<?xml version="1.0" standalone="no"?>
<!DOCTYPE svg PUBLIC "-//W3C//DTD SVG 1.1//EN" "http://www.w3.org/Graphics/SVG/1.1/DTD/svg11.dtd">
<svg version="1.1" width="1200" height="331" onload="init(evt)" viewBox="0 0 1200 331" xmlns="http://www.w3.org/2000/svg" xmlns:xlink="http://www.w3.org/1999/xlink">
<!-- Flame graph stack visualization. See https://github.com/brendangregg/FlameGraph for latest version, and http://www.brendangregg.com/flamegraphs.html for examples. -->
<!-- NOTES:  -->
<defs>
	<linearGradient id="background" y1="0" y2="1" x1="0" x2="0" >
		<stop stop-color="#eeeeee" offset="5%" />
		<stop stop-color="#eeeeb0" offset="95%" />
	</linearGradient>
</defs>
<style type="text/css">
	text { font-family:Verdana; font-size:13px; fill:rgb(0,0,0); }
	#search, #ignorecase { opacity:0.1; cursor:pointer; }
	#search:hover, #search.show, #ignorecase:hover, #ignorecase.show { opacity:1; }
	#subtitle { text-anchor:middle; font-color:rgb(160,160,160); }
	#title { text-anchor:middle; font-size:18px}
	#unzoom { cursor:pointer; }
	#frames > *:hover { stroke:black; stroke-width:0.5; cursor:pointer; }
	.hide { display:none; }
	.parent { opacity:0.5; }
</style>
<script type="text/ecmascript">
<![CDATA[
	"use strict";
	var details, searchbtn, unzoombtn, matchedtxt, svg, searching, currentSearchTerm, ignorecase, ignorecaseBtn;
	function init(evt) {
		details = document.getElementById("details").firstChild;
		searchbtn = document.getElementById("search");
		ignorecaseBtn = document.getElementById("ignorecase");
		unzoombtn = document.getElementById("unzoom");
		matchedtxt = document.getElementById("matched");
		svg = document.getElementsByTagName("svg")[0];
		searching = 0;
		currentSearchTerm = null;

		// use GET parameters to restore a flamegraphs state.
		var params = get_params();
		if (params.x && params.y)
			zoom(find_group(document.querySelector('[x="' + params.x + '"][y="' + params.y + '"]')));
                if (params.s) search(params.s);
	}

	// event listeners
	window.addEventListener("click", function(e) {
		var target = find_group(e.target);
		if (target) {
			if (target.nodeName == "a") {
				if (e.ctrlKey === false) return;
				e.preventDefault();
			}
			if (target.classList.contains("parent")) unzoom();
			zoom(target);
			if (!document.querySelector('.parent')) {
				clearzoom();
				return;
			}

			// set parameters for zoom state
			var el = target.querySelector("rect");
			if (el && el.attributes && el.attributes.y && el.attributes._orig_x) {
				var params = get_params()
				params.x = el.attributes._orig_x.value;
				params.y = el.attributes.y.value;
				history.replaceState(null, null, parse_params(params));
			}
		}
		else if (e.target.id == "unzoom") clearzoom();
		else if (e.target.id == "search") search_prompt();
		else if (e.target.id == "ignorecase") toggle_ignorecase();
	}, false)

	// mouse-over for info
	// show
	window.addEventListener("mouseover", function(e) {
		var target = find_group(e.target);
		if (target) details.nodeValue = "Function: " + g_to_text(target);
	}, false)

	// clear
	window.addEventListener("mouseout", function(e) {
		var target = find_group(e.target);
		if (target) details.nodeValue = ' ';
	}, false)

	// ctrl-F for search
	// ctrl-I to toggle case-sensitive search
	window.addEventListener("keydown",function (e) {
		if (e.keyCode === 114 || (e.ctrlKey && e.keyCode === 70)) {
			e.preventDefault();
			search_prompt();
		}
		else if (e.ctrlKey && e.keyCode === 73) {
			e.preventDefault();
			toggle_ignorecase();
		}
	}, false)

	// functions
	function get_params() {
		var params = {};
		var paramsarr = window.location.search.substr(1).split('&');
		for (var i = 0; i < paramsarr.length; ++i) {
			var tmp = paramsarr[i].split("=");
			if (!tmp[0] || !tmp[1]) continue;
			params[tmp[0]]  = decodeURIComponent(tmp[1]);
		}
		return params;
	}
	function parse_params(params) {
		var uri = "?";
		for (var key in params) {
			uri += key + '=' + encodeURIComponent(params[key]) + '&';
		}
		if (uri.slice(-1) == "&")
			uri = uri.substring(0, uri.length - 1);
		if (uri == '?')
			uri = window.location.href.split('?')[0];
		return uri;
	}
	function find_child(node, selector) {
		var children = node.querySelectorAll(selector);
		if (children.length) return children[0];
	}
	function find_group(node) {
		var parent = node.parentElement;
		if (!parent) return;
		if (parent.id == "frames") return node;
		return find_group(parent);
	}
	function orig_save(e, attr, val) {
		if (e.attributes["_orig_" + attr] != undefined) return;
		if (e.attributes[attr] == undefined) return;
		if (val == undefined) val = e.attributes[attr].value;
		e.setAttribute("_orig_" + attr, val);
	}
	function orig_load(e, attr) {
		if (e.attributes["_orig_"+attr] == undefined) return;
		e.attributes[attr].value = e.attributes["_orig_" + attr].value;
		e.removeAttribute("_orig_"+attr);
	}
	function g_to_text(e) {
		var text = find_child(e, "title").firstChild.nodeValue;
		return (text)
	}
	function g_to_func(e) {
		var func = g_to_text(e);
		// if there's any manipulation we want to do to the function
		// name before it's searched, do it here before returning.
		return (func);
	}
	function update_text(e) {
		var r = find_child(e, "rect");
		var t = find_child(e, "text");
		var w = parseFloat(r.attributes.width.value) -3;
		var txt = find_child(e, "title").textContent.replace(/\([^(]*\)$/,"");
		t.attributes.x.value = parseFloat(r.attributes.x.value) + 3;

		// Smaller than this size won't fit anything
		if (w < 2 * 13 * 0.59) {
			t.textContent = "";
			return;
		}

		t.textContent = txt;
		// Fit in full text width
		if (/^ *$/.test(txt) || t.getSubStringLength(0, txt.length) < w)
			return;

		for (var x = txt.length - 2; x > 0; x--) {
			if (t.getSubStringLength(0, x + 2) <= w) {
				t.textContent = txt.substring(0, x) + "..";
				return;
			}
		}
		t.textContent = "";
	}

	// zoom
	function zoom_reset(e) {
		if (e.attributes != undefined) {
			orig_load(e, "x");
			orig_load(e, "width");
		}
		if (e.childNodes == undefined) return;
		for (var i = 0, c = e.childNodes; i < c.length; i++) {
			zoom_reset(c[i]);
		}
	}
	function zoom_child(e, x, ratio) {
		if (e.attributes != undefined) {
			if (e.attributes.x != undefined) {
				orig_save(e, "x");
				e.attributes.x.value = (parseFloat(e.attributes.x.value) - x - 10) * ratio + 10;
				if (e.tagName == "text")
					e.attributes.x.value = find_child(e.parentNode, "rect[x]").attributes.x.value + 3;
			}
			if (e.attributes.width != undefined) {
				orig_save(e, "width");
				e.attributes.width.value = parseFloat(e.attributes.width.value) * ratio;
			}
		}

		if (e.childNodes == undefined) return;
		for (var i = 0, c = e.childNodes; i < c.length; i++) {
			zoom_child(c[i], x - 10, ratio);
		}
	}
	function zoom_parent(e) {
		if (e.attributes) {
			if (e.attributes.x != undefined) {
				orig_save(e, "x");
				e.attributes.x.value = 10;
			}
			if (e.attributes.width != undefined) {
				orig_save(e, "width");
				e.attributes.width.value = parseInt(svg.width.baseVal.value) - (10 * 2);
			}
		}
		if (e.childNodes == undefined) return;
		for (var i = 0, c = e.childNodes; i < c.length; i++) {
			zoom_parent(c[i]);
		}
	}
	function zoom(node) {
		var attr = find_child(node, "rect").attributes;
		var width = parseFloat(attr.width.value);
		var xmin = parseFloat(attr.x.value);
		var xmax = parseFloat(xmin + width);
		var ymin = parseFloat(attr.y.value);
		var ratio = (svg.width.baseVal.value - 2 * 10) / width;

		// XXX: Workaround for JavaScript float issues (fix me)
		var fudge = 0.0001;

		unzoombtn.classList.remove("hide");

		var el = document.getElementById("frames").children;
		for (var i = 0; i < el.length; i++) {
			var e = el[i];
			var a = find_child(e, "rect").attributes;
			var ex = parseFloat(a.x.value);
			var ew = parseFloat(a.width.value);
			var upstack;
			// Is it an ancestor
			if (1 == 0) {
				upstack = parseFloat(a.y.value) > ymin;
			} else {
				upstack = parseFloat(a.y.value) < ymin;
			}
			if (upstack) {
				// Direct ancestor
				if (ex <= xmin && (ex+ew+fudge) >= xmax) {
					e.classList.add("parent");
					zoom_parent(e);
					update_text(e);
				}
				// not in current path
				else
					e.classList.add("hide");
			}
			// Children maybe
			else {
				// no common path
				if (ex < xmin || ex + fudge >= xmax) {
					e.classList.add("hide");
				}
				else {
					zoom_child(e, xmin, ratio);
					update_text(e);
				}
			}
		}
		search();
	}
	function unzoom() {
		unzoombtn.classList.add("hide");
		var el = document.getElementById("frames").children;
		for(var i = 0; i < el.length; i++) {
			el[i].classList.remove("parent");
			el[i].classList.remove("hide");
			zoom_reset(el[i]);
			update_text(el[i]);
		}
		search();
	}
	function clearzoom() {
		unzoom();

		// remove zoom state
		var params = get_params();
		if (params.x) delete params.x;
		if (params.y) delete params.y;
		history.replaceState(null, null, parse_params(params));
	}

	// search
	function toggle_ignorecase() {
		ignorecase = !ignorecase;
		if (ignorecase) {
			ignorecaseBtn.classList.add("show");
		} else {
			ignorecaseBtn.classList.remove("show");
		}
		reset_search();
		search();
	}
	function reset_search() {
		var el = document.querySelectorAll("#frames rect");
		for (var i = 0; i < el.length; i++) {
			orig_load(el[i], "fill")
		}
		var params = get_params();
		delete params.s;
		history.replaceState(null, null, parse_params(params));
	}
	function search_prompt() {
		if (!searching) {
			var term = prompt("Enter a search term (regexp " +
			    "allowed, eg: ^ext4_)"
			    + (ignorecase ? ", ignoring case" : "")
			    + "\nPress Ctrl-i to toggle case sensitivity", "");
			if (term != null) search(term);
		} else {
			reset_search();
			searching = 0;
			currentSearchTerm = null;
			searchbtn.classList.remove("show");
			searchbtn.firstChild.nodeValue = "Search"
			matchedtxt.classList.add("hide");
			matchedtxt.firstChild.nodeValue = ""
		}
	}
	function search(term) {
		if (term) currentSearchTerm = term;

		var re = new RegExp(currentSearchTerm, ignorecase ? 'i' : '');
		var el = document.getElementById("frames").children;
		var matches = new Object();
		var maxwidth = 0;
		for (var i = 0; i < el.length; i++) {
			var e = el[i];
			var func = g_to_func(e);
			var rect = find_child(e, "rect");
			if (func == null || rect == null)
				continue;

			// Save max width. Only works as we have a root frame
			var w = parseFloat(rect.attributes.width.value);
			if (w > maxwidth)
				maxwidth = w;

			if (func.match(re)) {
				// highlight
				var x = parseFloat(rect.attributes.x.value);
				orig_save(rect, "fill");
				rect.attributes.fill.value = "rgb(230,0,230)";

				// remember matches
				if (matches[x] == undefined) {
					matches[x] = w;
				} else {
					if (w > matches[x]) {
						// overwrite with parent
						matches[x] = w;
					}
				}
				searching = 1;
			}
		}
		if (!searching)
			return;
		var params = get_params();
		params.s = currentSearchTerm;
		history.replaceState(null, null, parse_params(params));

		searchbtn.classList.add("show");
		searchbtn.firstChild.nodeValue = "Reset Search";

		// calculate percent matched, excluding vertical overlap
		var count = 0;
		var lastx = -1;
		var lastw = 0;
		var keys = Array();
		for (k in matches) {
			if (matches.hasOwnProperty(k))
				keys.push(k);
		}
		// sort the matched frames by their x location
		// ascending, then width descending
		keys.sort(function(a, b){
			return a - b;
		});
		// Step through frames saving only the biggest bottom-up frames
		// thanks to the sort order. This relies on the tree property
		// where children are always smaller than their parents.
		var fudge = 0.0001;	// JavaScript floating point
		for (var k in keys) {
			var x = parseFloat(keys[k]);
			var w = matches[keys[k]];
			if (x >= lastx + lastw - fudge) {
				count += w;
				lastx = x;
				lastw = w;
			}
		}
		// display matched percent
		matchedtxt.classList.remove("hide");
		var pct = 100 * count / maxwidth;
		if (pct != 100) pct = pct.toFixed(1)
		matchedtxt.firstChild.nodeValue = "Matched: " + pct + "%";
	}
]]>
</script>
<rect x="0.0" y="0" width="1200.0" height="331.0" fill="url(#background)"  />
<text id="title" x="600.00" y="26" >Firedrake example</text>
<text id="details" x="10.00" y="313" > </text>
<text id="unzoom" x="10.00" y="26" class="hide">Reset Zoom</text>
<text id="search" x="1090.00" y="26" >Search</text>
<text id="ignorecase" x="1174.00" y="26" >ic</text>
<text id="matched" x="1090.00" y="313" > </text>
<g id="frames">
<g >
<title>MatPtAPSymbolic (9,427 us, 0.01%)</title><rect x="543.1" y="199" width="0.2" height="15.0" fill="rgb(0,0,0)" rx="2" ry="2" />
<text  x="546.13" y="209.5" ></text>
</g>
<g >
<title>firedrake.formmanipulation.ExtractSubBlock.split (8,708 us, 0.01%)</title><rect x="547.4" y="151" width="0.2" height="15.0" fill="rgb(0,0,0)" rx="2" ry="2" />
<text  x="550.44" y="161.5" ></text>
</g>
<g >
<title>SNESSolve (46,336,307 us, 55.59%)</title><rect x="534.0" y="87" width="656.0" height="15.0" fill="rgb(0,0,0)" rx="2" ry="2" />
<text  x="537.04" y="97.5" >SNESSolve</text>
</g>
<g >
<title>FunctionSpaceData: CreateElement (11,775 us, 0.01%)</title><rect x="36.3" y="135" width="0.1" height="15.0" fill="rgb(0,0,0)" rx="2" ry="2" />
<text  x="39.26" y="145.5" ></text>
</g>
<g >
<title>pyop2.global_kernel.GlobalKernel.compile (11,760,250 us, 14.11%)</title><rect x="698.2" y="151" width="166.5" height="15.0" fill="rgb(0,0,0)" rx="2" ry="2" />
<text  x="701.23" y="161.5" >pyop2.global_kernel..</text>
</g>
<g >
<title>firedrake.variational_solver.NonlinearVariationalProblem.__init__ (22,107 us, 0.03%)</title><rect x="547.6" y="151" width="0.3" height="15.0" fill="rgb(0,0,0)" rx="2" ry="2" />
<text  x="550.56" y="161.5" ></text>
</g>
<g >
<title>MatMult (10,307 us, 0.01%)</title><rect x="546.8" y="183" width="0.1" height="15.0" fill="rgb(0,0,0)" rx="2" ry="2" />
<text  x="549.76" y="193.5" ></text>
</g>
<g >
<title>CreateSparsity (49,228 us, 0.06%)</title><rect x="339.8" y="135" width="0.6" height="15.0" fill="rgb(0,0,0)" rx="2" ry="2" />
<text  x="342.75" y="145.5" ></text>
</g>
<g >
<title>firedrake.assemble.assemble (771,370 us, 0.93%)</title><rect x="58.1" y="71" width="10.9" height="15.0" fill="rgb(0,0,0)" rx="2" ry="2" />
<text  x="61.08" y="81.5" ></text>
</g>
<g >
<title>PCApply (223,999 us, 0.27%)</title><rect x="543.6" y="199" width="3.2" height="15.0" fill="rgb(0,0,0)" rx="2" ry="2" />
<text  x="546.59" y="209.5" ></text>
</g>
<g >
<title>MatZeroInitial (16,162 us, 0.02%)</title><rect x="340.4" y="135" width="0.3" height="15.0" fill="rgb(0,0,0)" rx="2" ry="2" />
<text  x="343.45" y="145.5" ></text>
</g>
<g >
<title>PCSetUp (58,076 us, 0.07%)</title><rect x="547.1" y="103" width="0.8" height="15.0" fill="rgb(0,0,0)" rx="2" ry="2" />
<text  x="550.06" y="113.5" ></text>
</g>
<g >
<title>KSPSetUp (10,876 us, 0.01%)</title><rect x="543.3" y="167" width="0.1" height="15.0" fill="rgb(0,0,0)" rx="2" ry="2" />
<text  x="546.27" y="177.5" ></text>
</g>
<g >
<title>KSPGMRESOrthog (8,649 us, 0.01%)</title><rect x="534.0" y="119" width="0.2" height="15.0" fill="rgb(0,0,0)" rx="2" ry="2" />
<text  x="537.04" y="129.5" ></text>
</g>
<g >
<title>  SA: smooth (9,279 us, 0.01%)</title><rect x="541.7" y="199" width="0.1" height="15.0" fill="rgb(0,0,0)" rx="2" ry="2" />
<text  x="544.68" y="209.5" ></text>
</g>
<g >
<title>firedrake.assemble_expressions.assemble_expression (771,370 us, 0.93%)</title><rect x="58.1" y="87" width="10.9" height="15.0" fill="rgb(0,0,0)" rx="2" ry="2" />
<text  x="61.08" y="97.5" ></text>
</g>
<g >
<title>PCApply (127,379 us, 0.15%)</title><rect x="539.2" y="199" width="1.8" height="15.0" fill="rgb(0,0,0)" rx="2" ry="2" />
<text  x="542.22" y="209.5" ></text>
</g>
<g >
<title>Parloop_Cells_wrap_form00_cell_integral_otherwise (14,793,973 us, 17.75%)</title><rect x="130.3" y="135" width="209.5" height="15.0" fill="rgb(0,0,0)" rx="2" ry="2" />
<text  x="133.32" y="145.5" >Parloop_Cells_wrap_form00..</text>
</g>
<g >
<title>PCApply (114,938 us, 0.14%)</title><rect x="544.9" y="231" width="1.6" height="15.0" fill="rgb(0,0,0)" rx="2" ry="2" />
<text  x="547.90" y="241.5" ></text>
</g>
<g >
<title>SNESJacobianEval (34,749,378 us, 41.69%)</title><rect x="698.1" y="103" width="491.9" height="15.0" fill="rgb(0,0,0)" rx="2" ry="2" />
<text  x="701.07" y="113.5" >SNESJacobianEval</text>
</g>
<g >
<title>firedrake.formmanipulation.split_form (9,451 us, 0.01%)</title><rect x="1189.9" y="135" width="0.1" height="15.0" fill="rgb(0,0,0)" rx="2" ry="2" />
<text  x="1192.87" y="145.5" ></text>
</g>
<g >
<title>firedrake.variational_solver.LinearVariationalProblem.__init__ (12,165 us, 0.01%)</title><rect x="532.4" y="71" width="0.1" height="15.0" fill="rgb(0,0,0)" rx="2" ry="2" />
<text  x="535.36" y="81.5" ></text>
</g>
<g >
<title>ParLoopExecute (4,331,474 us, 5.20%)</title><rect x="69.0" y="103" width="61.3" height="15.0" fill="rgb(0,0,0)" rx="2" ry="2" />
<text  x="72.00" y="113.5" >ParLo..</text>
</g>
<g >
<title>ParLoopExecute (751,046 us, 0.90%)</title><rect x="58.1" y="119" width="10.6" height="15.0" fill="rgb(0,0,0)" rx="2" ry="2" />
<text  x="61.08" y="129.5" ></text>
</g>
<g >
<title>MatMult (234,306 us, 0.28%)</title><rect x="543.6" y="167" width="3.3" height="15.0" fill="rgb(0,0,0)" rx="2" ry="2" />
<text  x="546.59" y="177.5" ></text>
</g>
<g >
<title>MatPtAPNumeric (27,078 us, 0.03%)</title><rect x="542.2" y="199" width="0.4" height="15.0" fill="rgb(0,0,0)" rx="2" ry="2" />
<text  x="545.24" y="209.5" ></text>
</g>
<g >
<title>PCApply (113,287 us, 0.14%)</title><rect x="536.1" y="231" width="1.6" height="15.0" fill="rgb(0,0,0)" rx="2" ry="2" />
<text  x="539.05" y="241.5" ></text>
</g>
<g >
<title>PCSetUp (8,557 us, 0.01%)</title><rect x="349.1" y="135" width="0.1" height="15.0" fill="rgb(0,0,0)" rx="2" ry="2" />
<text  x="352.05" y="145.5" ></text>
</g>
<g >
<title>MatMult (10,498 us, 0.01%)</title><rect x="546.9" y="135" width="0.2" height="15.0" fill="rgb(0,0,0)" rx="2" ry="2" />
<text  x="549.91" y="145.5" ></text>
</g>
<g >
<title>Parloop_Cells_wrap_form0_cell_integral_otherwise (4,639,171 us, 5.57%)</title><rect x="547.9" y="135" width="65.7" height="15.0" fill="rgb(0,0,0)" rx="2" ry="2" />
<text  x="550.88" y="145.5" >Parloo..</text>
</g>
<g >
<title>MatPtAPSymbolic (11,122 us, 0.01%)</title><rect x="542.1" y="199" width="0.1" height="15.0" fill="rgb(0,0,0)" rx="2" ry="2" />
<text  x="545.08" y="209.5" ></text>
</g>
<g >
<title>Parloop_set_#x7f8339198670_wrap_expression_kernel (376,715 us, 0.45%)</title><rect x="63.4" y="135" width="5.3" height="15.0" fill="rgb(0,0,0)" rx="2" ry="2" />
<text  x="66.38" y="145.5" ></text>
</g>
<g >
<title>firedrake.assemble.assemble (12,489,930 us, 14.98%)</title><rect x="355.5" y="103" width="176.9" height="15.0" fill="rgb(0,0,0)" rx="2" ry="2" />
<text  x="358.54" y="113.5" >firedrake.assemble.as..</text>
</g>
<g >
<title>KSPSolve (223,999 us, 0.27%)</title><rect x="543.6" y="183" width="3.2" height="15.0" fill="rgb(0,0,0)" rx="2" ry="2" />
<text  x="546.59" y="193.5" ></text>
</g>
<g >
<title>ParLoopExecute (32,549,510 us, 39.05%)</title><rect x="698.1" y="119" width="460.8" height="15.0" fill="rgb(0,0,0)" rx="2" ry="2" />
<text  x="701.07" y="129.5" >ParLoopExecute</text>
</g>
<g >
<title>GAMG: partLevel (102,910 us, 0.12%)</title><rect x="541.8" y="167" width="1.5" height="15.0" fill="rgb(0,0,0)" rx="2" ry="2" />
<text  x="544.81" y="177.5" ></text>
</g>
<g >
<title>MatSOR (114,938 us, 0.14%)</title><rect x="544.9" y="279" width="1.6" height="15.0" fill="rgb(0,0,0)" rx="2" ry="2" />
<text  x="547.90" y="289.5" ></text>
</g>
<g >
<title>PCSetUp (152,585 us, 0.18%)</title><rect x="541.3" y="151" width="2.1" height="15.0" fill="rgb(0,0,0)" rx="2" ry="2" />
<text  x="544.26" y="161.5" ></text>
</g>
<g >
<title>firedrake.assemble.allocate_matrix (65,390 us, 0.08%)</title><rect x="339.8" y="119" width="0.9" height="15.0" fill="rgb(0,0,0)" rx="2" ry="2" />
<text  x="342.75" y="129.5" ></text>
</g>
<g >
<title>MatSOR (113,287 us, 0.14%)</title><rect x="536.1" y="247" width="1.6" height="15.0" fill="rgb(0,0,0)" rx="2" ry="2" />
<text  x="539.05" y="257.5" ></text>
</g>
<g >
<title>GAMG: createProl (38,799 us, 0.05%)</title><rect x="541.3" y="167" width="0.5" height="15.0" fill="rgb(0,0,0)" rx="2" ry="2" />
<text  x="544.26" y="177.5" ></text>
</g>
<g >
<title>PCGAMG Gal l02 (22,188 us, 0.03%)</title><rect x="543.0" y="183" width="0.3" height="15.0" fill="rgb(0,0,0)" rx="2" ry="2" />
<text  x="545.95" y="193.5" ></text>
</g>
<g >
<title>ParLoopExecute (14,793,973 us, 17.75%)</title><rect x="130.3" y="119" width="209.5" height="15.0" fill="rgb(0,0,0)" rx="2" ry="2" />
<text  x="133.32" y="129.5" >ParLoopExecute</text>
</g>
<g >
<title>pyop2.caching.disk_cached.&lt;locals&gt;.decorator.&lt;locals&gt;.wrapper (20,324 us, 0.02%)</title><rect x="68.7" y="119" width="0.3" height="15.0" fill="rgb(0,0,0)" rx="2" ry="2" />
<text  x="71.71" y="129.5" ></text>
</g>
<g >
<title>SNESFunctionEval (10,609,279 us, 12.73%)</title><rect x="547.9" y="103" width="150.2" height="15.0" fill="rgb(0,0,0)" rx="2" ry="2" />
<text  x="550.88" y="113.5" >SNESFunctionEval</text>
</g>
<g >
<title>CreateSparsity (82,222 us, 0.10%)</title><rect x="532.5" y="103" width="1.2" height="15.0" fill="rgb(0,0,0)" rx="2" ry="2" />
<text  x="535.53" y="113.5" ></text>
</g>
<g >
<title>MatMult (16,624 us, 0.02%)</title><rect x="546.5" y="231" width="0.3" height="15.0" fill="rgb(0,0,0)" rx="2" ry="2" />
<text  x="549.53" y="241.5" ></text>
</g>
<g >
<title>pyop2.global_kernel.GlobalKernel.compile (4,628,846 us, 5.55%)</title><rect x="548.0" y="151" width="65.6" height="15.0" fill="rgb(0,0,0)" rx="2" ry="2" />
<text  x="551.02" y="161.5" >pyop2...</text>
</g>
<g >
<title>pyop2.global_kernel.GlobalKernel.compile (9,796,597 us, 11.75%)</title><rect x="1020.2" y="151" width="138.7" height="15.0" fill="rgb(0,0,0)" rx="2" ry="2" />
<text  x="1023.17" y="161.5" >pyop2.global_ker..</text>
</g>
<g >
<title>PCGAMGPOpt_AGG (9,279 us, 0.01%)</title><rect x="541.7" y="183" width="0.1" height="15.0" fill="rgb(0,0,0)" rx="2" ry="2" />
<text  x="544.68" y="193.5" ></text>
</g>
<g >
<title>firedrake.tsfc_interface.compile_form (591,682 us, 0.71%)</title><rect x="340.7" y="119" width="8.4" height="15.0" fill="rgb(0,0,0)" rx="2" ry="2" />
<text  x="343.68" y="129.5" ></text>
</g>
<g >
<title>Parloop_Cells_wrap_form01_cell_integral_otherwise (10,981,191 us, 13.17%)</title><rect x="864.7" y="135" width="155.5" height="15.0" fill="rgb(0,0,0)" rx="2" ry="2" />
<text  x="867.72" y="145.5" >Parloop_Cells_wrap..</text>
</g>
<g >
<title>PCGAMGGraph_AGG (20,212 us, 0.02%)</title><rect x="541.4" y="183" width="0.3" height="15.0" fill="rgb(0,0,0)" rx="2" ry="2" />
<text  x="544.39" y="193.5" ></text>
</g>
<g >
<title>PCSetUpOnBlocks (8,557 us, 0.01%)</title><rect x="349.1" y="119" width="0.1" height="15.0" fill="rgb(0,0,0)" rx="2" ry="2" />
<text  x="352.05" y="129.5" ></text>
</g>
<g >
<title>PCGAMG Gal l00 (30,268 us, 0.04%)</title><rect x="541.8" y="183" width="0.4" height="15.0" fill="rgb(0,0,0)" rx="2" ry="2" />
<text  x="544.81" y="193.5" ></text>
</g>
<g >
<title>firedrake.assemble.allocate_matrix (106,663 us, 0.13%)</title><rect x="532.5" y="87" width="1.5" height="15.0" fill="rgb(0,0,0)" rx="2" ry="2" />
<text  x="535.53" y="97.5" ></text>
</g>
<g >
<title>MatMult (41,646 us, 0.05%)</title><rect x="534.2" y="119" width="0.5" height="15.0" fill="rgb(0,0,0)" rx="2" ry="2" />
<text  x="537.16" y="129.5" ></text>
</g>
<g >
<title>KSPSolve_FS_0 (221,985 us, 0.27%)</title><rect x="534.7" y="135" width="3.2" height="15.0" fill="rgb(0,0,0)" rx="2" ry="2" />
<text  x="537.75" y="145.5" ></text>
</g>
<g >
<title>firedrake.functionspace.VectorFunctionSpace (8,718 us, 0.01%)</title><rect x="35.9" y="87" width="0.2" height="15.0" fill="rgb(0,0,0)" rx="2" ry="2" />
<text  x="38.94" y="97.5" ></text>
</g>
<g >
<title>firedrake.function.Function.project (20,240,787 us, 24.28%)</title><rect x="69.0" y="71" width="286.5" height="15.0" fill="rgb(0,0,0)" rx="2" ry="2" />
<text  x="72.00" y="81.5" >firedrake.function.Function.project</text>
</g>
<g >
<title>KSPSolve (210,567 us, 0.25%)</title><rect x="538.0" y="183" width="3.0" height="15.0" fill="rgb(0,0,0)" rx="2" ry="2" />
<text  x="541.04" y="193.5" ></text>
</g>
<g >
<title>ParLoopExecute (9,113,327 us, 10.93%)</title><rect x="547.9" y="119" width="129.0" height="15.0" fill="rgb(0,0,0)" rx="2" ry="2" />
<text  x="550.88" y="129.5" >ParLoopExecute</text>
</g>
<g >
<title>firedrake.linear_solver.LinearSolver.solve (8,557 us, 0.01%)</title><rect x="349.1" y="103" width="0.1" height="15.0" fill="rgb(0,0,0)" rx="2" ry="2" />
<text  x="352.05" y="113.5" ></text>
</g>
<g >
<title>firedrake.tsfc_interface.compile_form (1,676,164 us, 2.01%)</title><rect x="508.6" y="119" width="23.8" height="15.0" fill="rgb(0,0,0)" rx="2" ry="2" />
<text  x="511.63" y="129.5" >f..</text>
</g>
<g >
<title>firedrake.tsfc_interface.compile_form (2,199,868 us, 2.64%)</title><rect x="1158.9" y="119" width="31.1" height="15.0" fill="rgb(0,0,0)" rx="2" ry="2" />
<text  x="1161.86" y="129.5" >fi..</text>
</g>
<g >
<title>pyop2.global_kernel.GlobalKernel.compile (376,715 us, 0.45%)</title><rect x="63.4" y="151" width="5.3" height="15.0" fill="rgb(0,0,0)" rx="2" ry="2" />
<text  x="66.38" y="161.5" ></text>
</g>
<g >
<title>Parloop_Cells_wrap_pyop2_kernel_uniform_extrusion (899,010 us, 1.08%)</title><rect x="23.2" y="119" width="12.7" height="15.0" fill="rgb(0,0,0)" rx="2" ry="2" />
<text  x="26.22" y="129.5" ></text>
</g>
<g >
<title>MatCreateSubMats (11,792 us, 0.01%)</title><rect x="547.3" y="119" width="0.1" height="15.0" fill="rgb(0,0,0)" rx="2" ry="2" />
<text  x="550.27" y="129.5" ></text>
</g>
<g >
<title>firedrake.solving_utils._SNESContext.split (30,815 us, 0.04%)</title><rect x="547.4" y="135" width="0.5" height="15.0" fill="rgb(0,0,0)" rx="2" ry="2" />
<text  x="550.44" y="145.5" ></text>
</g>
<g >
<title>MatCholFctrNum (8,557 us, 0.01%)</title><rect x="349.1" y="151" width="0.1" height="15.0" fill="rgb(0,0,0)" rx="2" ry="2" />
<text  x="352.05" y="161.5" ></text>
</g>
<g >
<title>PCGAMGCoarse_AGG (9,308 us, 0.01%)</title><rect x="541.3" y="183" width="0.1" height="15.0" fill="rgb(0,0,0)" rx="2" ry="2" />
<text  x="544.26" y="193.5" ></text>
</g>
<g >
<title>firedrake.__init__ (1,529,793 us, 1.84%)</title><rect x="36.4" y="71" width="21.7" height="15.0" fill="rgb(0,0,0)" rx="2" ry="2" />
<text  x="39.42" y="81.5" ></text>
</g>
<g >
<title>PCApply (869,279 us, 1.04%)</title><rect x="534.7" y="119" width="12.4" height="15.0" fill="rgb(0,0,0)" rx="2" ry="2" />
<text  x="537.75" y="129.5" ></text>
</g>
<g >
<title>MatPtAPSymbolic (23,376 us, 0.03%)</title><rect x="542.6" y="199" width="0.4" height="15.0" fill="rgb(0,0,0)" rx="2" ry="2" />
<text  x="545.62" y="209.5" ></text>
</g>
<g >
<title>firedrake.variational_solver.NonlinearVariationalSolver.solve (46,336,307 us, 55.59%)</title><rect x="534.0" y="71" width="656.0" height="15.0" fill="rgb(0,0,0)" rx="2" ry="2" />
<text  x="537.04" y="81.5" >firedrake.variational_solver.NonlinearVariationalSolver.solve</text>
</g>
<g >
<title>pyop2.global_kernel.GlobalKernel.compile (10,813,766 us, 12.97%)</title><rect x="355.5" y="151" width="153.1" height="15.0" fill="rgb(0,0,0)" rx="2" ry="2" />
<text  x="358.54" y="161.5" >pyop2.global_kern..</text>
</g>
<g >
<title>KSPSolve_FS_Schu (246,322 us, 0.30%)</title><rect x="543.4" y="135" width="3.5" height="15.0" fill="rgb(0,0,0)" rx="2" ry="2" />
<text  x="546.42" y="145.5" ></text>
</g>
<g >
<title>firedrake.tsfc_interface.compile_form (449,711 us, 0.54%)</title><rect x="349.2" y="103" width="6.3" height="15.0" fill="rgb(0,0,0)" rx="2" ry="2" />
<text  x="352.17" y="113.5" ></text>
</g>
<g >
<title>KSPSolve (127,379 us, 0.15%)</title><rect x="539.2" y="215" width="1.8" height="15.0" fill="rgb(0,0,0)" rx="2" ry="2" />
<text  x="542.22" y="225.5" ></text>
</g>
<g >
<title>Parloop_Cells_wrap_form10_cell_integral_otherwise (9,796,597 us, 11.75%)</title><rect x="1020.2" y="135" width="138.7" height="15.0" fill="rgb(0,0,0)" rx="2" ry="2" />
<text  x="1023.17" y="145.5" >Parloop_Cells_wr..</text>
</g>
<g >
<title>MatMult (16,637 us, 0.02%)</title><rect x="537.7" y="199" width="0.2" height="15.0" fill="rgb(0,0,0)" rx="2" ry="2" />
<text  x="540.66" y="209.5" ></text>
</g>
<g >
<title>CreateFunctionSpace (8,718 us, 0.01%)</title><rect x="35.9" y="103" width="0.2" height="15.0" fill="rgb(0,0,0)" rx="2" ry="2" />
<text  x="38.94" y="113.5" ></text>
</g>
<g >
<title>Parloop_Cells_wrap_form00_cell_integral_otherwise (11,771,722 us, 14.12%)</title><rect x="698.1" y="135" width="166.6" height="15.0" fill="rgb(0,0,0)" rx="2" ry="2" />
<text  x="701.07" y="145.5" >Parloop_Cells_wrap_..</text>
</g>
<g >
<title>pyop2.global_kernel.GlobalKernel.compile (4,474,156 us, 5.37%)</title><rect x="613.6" y="151" width="63.3" height="15.0" fill="rgb(0,0,0)" rx="2" ry="2" />
<text  x="616.55" y="161.5" >pyop2...</text>
</g>
<g >
<title>PCApply (127,379 us, 0.15%)</title><rect x="539.2" y="231" width="1.8" height="15.0" fill="rgb(0,0,0)" rx="2" ry="2" />
<text  x="542.22" y="241.5" ></text>
</g>
<g >
<title>pyop2.global_kernel.GlobalKernel.compile (10,971,818 us, 13.16%)</title><rect x="864.8" y="151" width="155.4" height="15.0" fill="rgb(0,0,0)" rx="2" ry="2" />
<text  x="867.85" y="161.5" >pyop2.global_kerne..</text>
</g>
<g >
<title>PCApply (237,889 us, 0.29%)</title><rect x="537.9" y="167" width="3.4" height="15.0" fill="rgb(0,0,0)" rx="2" ry="2" />
<text  x="540.89" y="177.5" ></text>
</g>
<g >
<title>PCGAMG Gal l01 (50,454 us, 0.06%)</title><rect x="542.2" y="183" width="0.8" height="15.0" fill="rgb(0,0,0)" rx="2" ry="2" />
<text  x="545.24" y="193.5" ></text>
</g>
<g >
<title>MatPtAPNumeric (19,146 us, 0.02%)</title><rect x="541.8" y="199" width="0.3" height="15.0" fill="rgb(0,0,0)" rx="2" ry="2" />
<text  x="544.81" y="209.5" ></text>
</g>
<g >
<title>pyop2.global_kernel.GlobalKernel.compile (4,331,474 us, 5.20%)</title><rect x="69.0" y="135" width="61.3" height="15.0" fill="rgb(0,0,0)" rx="2" ry="2" />
<text  x="72.00" y="145.5" >pyop2..</text>
</g>
<g >
<title>ParLoopExecute (899,010 us, 1.08%)</title><rect x="23.2" y="103" width="12.7" height="15.0" fill="rgb(0,0,0)" rx="2" ry="2" />
<text  x="26.22" y="113.5" ></text>
</g>
<g >
<title>firedrake.projection.project (20,240,787 us, 24.28%)</title><rect x="69.0" y="87" width="286.5" height="15.0" fill="rgb(0,0,0)" rx="2" ry="2" />
<text  x="72.00" y="97.5" >firedrake.projection.project</text>
</g>
<g >
<title>MatMult (16,667 us, 0.02%)</title><rect x="541.0" y="199" width="0.3" height="15.0" fill="rgb(0,0,0)" rx="2" ry="2" />
<text  x="544.02" y="209.5" ></text>
</g>
<g >
<title>PCApply (113,287 us, 0.14%)</title><rect x="536.1" y="199" width="1.6" height="15.0" fill="rgb(0,0,0)" rx="2" ry="2" />
<text  x="539.05" y="209.5" ></text>
</g>
<g >
<title>PCApply (114,938 us, 0.14%)</title><rect x="544.9" y="263" width="1.6" height="15.0" fill="rgb(0,0,0)" rx="2" ry="2" />
<text  x="547.90" y="273.5" ></text>
</g>
<g >
<title>firedrake.formmanipulation.ExtractSubBlock.split (9,451 us, 0.01%)</title><rect x="1189.9" y="151" width="0.1" height="15.0" fill="rgb(0,0,0)" rx="2" ry="2" />
<text  x="1192.87" y="161.5" ></text>
</g>
<g >
<title>KSPSolve (198,170 us, 0.24%)</title><rect x="543.7" y="215" width="2.8" height="15.0" fill="rgb(0,0,0)" rx="2" ry="2" />
<text  x="546.72" y="225.5" ></text>
</g>
<g >
<title>Parloop_Cells_wrap_form1_cell_integral_otherwise (4,474,156 us, 5.37%)</title><rect x="613.6" y="135" width="63.3" height="15.0" fill="rgb(0,0,0)" rx="2" ry="2" />
<text  x="616.55" y="145.5" >Parloo..</text>
</g>
<g >
<title>MatResidual (16,637 us, 0.02%)</title><rect x="537.7" y="183" width="0.2" height="15.0" fill="rgb(0,0,0)" rx="2" ry="2" />
<text  x="540.66" y="193.5" ></text>
</g>
<g >
<title>KSPSolve (10,876 us, 0.01%)</title><rect x="543.3" y="183" width="0.1" height="15.0" fill="rgb(0,0,0)" rx="2" ry="2" />
<text  x="546.27" y="193.5" ></text>
</g>
<g >
<title>KSPSolve (113,287 us, 0.14%)</title><rect x="536.1" y="215" width="1.6" height="15.0" fill="rgb(0,0,0)" rx="2" ry="2" />
<text  x="539.05" y="225.5" ></text>
</g>
<g >
<title>KSPSolve (919,574 us, 1.10%)</title><rect x="534.0" y="103" width="13.1" height="15.0" fill="rgb(0,0,0)" rx="2" ry="2" />
<text  x="537.04" y="113.5" ></text>
</g>
<g >
<title>firedrake.functionspacedata.FunctionSpaceData.__init__ (25,339 us, 0.03%)</title><rect x="36.1" y="119" width="0.3" height="15.0" fill="rgb(0,0,0)" rx="2" ry="2" />
<text  x="39.07" y="129.5" ></text>
</g>
<g >
<title>KSPSolve (237,889 us, 0.29%)</title><rect x="537.9" y="151" width="3.4" height="15.0" fill="rgb(0,0,0)" rx="2" ry="2" />
<text  x="540.89" y="161.5" ></text>
</g>
<g >
<title>firedrake.norms.norm (12,489,930 us, 14.98%)</title><rect x="355.5" y="87" width="176.9" height="15.0" fill="rgb(0,0,0)" rx="2" ry="2" />
<text  x="358.54" y="97.5" >firedrake.norms.norm</text>
</g>
<g >
<title>MatMult (83,188 us, 0.10%)</title><rect x="538.0" y="199" width="1.2" height="15.0" fill="rgb(0,0,0)" rx="2" ry="2" />
<text  x="541.04" y="209.5" ></text>
</g>
<g >
<title>CreateExtMesh (943,034 us, 1.13%)</title><rect x="22.7" y="71" width="13.4" height="15.0" fill="rgb(0,0,0)" rx="2" ry="2" />
<text  x="25.72" y="81.5" ></text>
</g>
<g >
<title>Parloop_Cells_wrap_form0_cell_integral_otherwise (4,331,474 us, 5.20%)</title><rect x="69.0" y="119" width="61.3" height="15.0" fill="rgb(0,0,0)" rx="2" ry="2" />
<text  x="72.00" y="129.5" >Parlo..</text>
</g>
<g >
<title>firedrake.variational_solver.NonlinearVariationalProblem.__init__ (12,165 us, 0.01%)</title><rect x="532.4" y="87" width="0.1" height="15.0" fill="rgb(0,0,0)" rx="2" ry="2" />
<text  x="535.36" y="97.5" ></text>
</g>
<g >
<title>firedrake.norms.errornorm (12,489,930 us, 14.98%)</title><rect x="355.5" y="71" width="176.9" height="15.0" fill="rgb(0,0,0)" rx="2" ry="2" />
<text  x="358.54" y="81.5" >firedrake.norms.error..</text>
</g>
<g >
<title>MatResidual (16,667 us, 0.02%)</title><rect x="541.0" y="183" width="0.3" height="15.0" fill="rgb(0,0,0)" rx="2" ry="2" />
<text  x="544.02" y="193.5" ></text>
</g>
<g >
<title>KSPSolve (246,322 us, 0.30%)</title><rect x="543.4" y="151" width="3.5" height="15.0" fill="rgb(0,0,0)" rx="2" ry="2" />
<text  x="546.42" y="161.5" ></text>
</g>
<g >
<title>MatResidual (16,624 us, 0.02%)</title><rect x="546.5" y="215" width="0.3" height="15.0" fill="rgb(0,0,0)" rx="2" ry="2" />
<text  x="549.53" y="225.5" ></text>
</g>
<g >
<title>firedrake.extrusion_utils.make_extruded_coords (934,316 us, 1.12%)</title><rect x="22.7" y="87" width="13.2" height="15.0" fill="rgb(0,0,0)" rx="2" ry="2" />
<text  x="25.72" y="97.5" ></text>
</g>
<g >
<title>firedrake.assemble.assemble (15,451,045 us, 18.54%)</title><rect x="130.3" y="103" width="218.8" height="15.0" fill="rgb(0,0,0)" rx="2" ry="2" />
<text  x="133.32" y="113.5" >firedrake.assemble.assemble</text>
</g>
<g >
<title>firedrake.variational_solver.NonlinearVariationalSolver.__init__ (106,663 us, 0.13%)</title><rect x="532.5" y="71" width="1.5" height="15.0" fill="rgb(0,0,0)" rx="2" ry="2" />
<text  x="535.53" y="81.5" ></text>
</g>
<g >
<title>firedrake (83,353,599 us, 100.00%)</title><rect x="10.0" y="55" width="1180.0" height="15.0" fill="rgb(0,0,0)" rx="2" ry="2" />
<text  x="13.00" y="65.5" >firedrake</text>
</g>
<g >
<title>firedrake.functionspaceimpl.FunctionSpace.__init__ (25,339 us, 0.03%)</title><rect x="36.1" y="87" width="0.3" height="15.0" fill="rgb(0,0,0)" rx="2" ry="2" />
<text  x="39.07" y="97.5" ></text>
</g>
<g >
<title>MatMult (83,309 us, 0.10%)</title><rect x="534.9" y="199" width="1.2" height="15.0" fill="rgb(0,0,0)" rx="2" ry="2" />
<text  x="537.87" y="209.5" ></text>
</g>
<g >
<title>KSPSolve (114,938 us, 0.14%)</title><rect x="544.9" y="247" width="1.6" height="15.0" fill="rgb(0,0,0)" rx="2" ry="2" />
<text  x="547.90" y="257.5" ></text>
</g>
<g >
<title>MatZeroInitial (24,441 us, 0.03%)</title><rect x="533.7" y="103" width="0.3" height="15.0" fill="rgb(0,0,0)" rx="2" ry="2" />
<text  x="536.69" y="113.5" ></text>
</g>
<g >
<title>pyop2.global_kernel.GlobalKernel.compile (14,778,699 us, 17.73%)</title><rect x="130.5" y="151" width="209.3" height="15.0" fill="rgb(0,0,0)" rx="2" ry="2" />
<text  x="133.54" y="161.5" >pyop2.global_kernel.Globa..</text>
</g>
<g >
<title>MatMult (83,232 us, 0.10%)</title><rect x="543.7" y="231" width="1.2" height="15.0" fill="rgb(0,0,0)" rx="2" ry="2" />
<text  x="546.72" y="241.5" ></text>
</g>
<g >
<title>firedrake.tsfc_interface.compile_form (1,495,952 us, 1.79%)</title><rect x="676.9" y="119" width="21.2" height="15.0" fill="rgb(0,0,0)" rx="2" ry="2" />
<text  x="679.89" y="129.5" ></text>
</g>
<g >
<title>pyop2.global_kernel.GlobalKernel.compile (899,010 us, 1.08%)</title><rect x="23.2" y="135" width="12.7" height="15.0" fill="rgb(0,0,0)" rx="2" ry="2" />
<text  x="26.22" y="145.5" ></text>
</g>
<g >
<title>  Graph (20,212 us, 0.02%)</title><rect x="541.4" y="199" width="0.3" height="15.0" fill="rgb(0,0,0)" rx="2" ry="2" />
<text  x="544.39" y="209.5" ></text>
</g>
<g >
<title>firedrake.dmhooks.create_field_decomposition (30,815 us, 0.04%)</title><rect x="547.4" y="119" width="0.5" height="15.0" fill="rgb(0,0,0)" rx="2" ry="2" />
<text  x="550.44" y="129.5" ></text>
</g>
<g >
<title>firedrake.functionspacedata.get_shared_data (25,339 us, 0.03%)</title><rect x="36.1" y="103" width="0.3" height="15.0" fill="rgb(0,0,0)" rx="2" ry="2" />
<text  x="39.07" y="113.5" ></text>
</g>
<g >
<title>Log_Event_form0_cell_integral_otherwise (10,325 us, 0.01%)</title><rect x="547.9" y="151" width="0.1" height="15.0" fill="rgb(0,0,0)" rx="2" ry="2" />
<text  x="550.88" y="161.5" ></text>
</g>
<g >
<title>MatPtAPNumeric (12,761 us, 0.02%)</title><rect x="543.0" y="199" width="0.1" height="15.0" fill="rgb(0,0,0)" rx="2" ry="2" />
<text  x="545.95" y="209.5" ></text>
</g>
<g >
<title>firedrake.assemble_expressions.evaluate_expression (771,370 us, 0.93%)</title><rect x="58.1" y="103" width="10.9" height="15.0" fill="rgb(0,0,0)" rx="2" ry="2" />
<text  x="61.08" y="113.5" ></text>
</g>
<g >
<title>PCApply (221,985 us, 0.27%)</title><rect x="534.7" y="167" width="3.2" height="15.0" fill="rgb(0,0,0)" rx="2" ry="2" />
<text  x="537.75" y="177.5" ></text>
</g>
<g >
<title>pyop2.global_kernel.GlobalKernel.compile (374,331 us, 0.45%)</title><rect x="58.1" y="151" width="5.3" height="15.0" fill="rgb(0,0,0)" rx="2" ry="2" />
<text  x="61.08" y="161.5" ></text>
</g>
<g >
<title>Parloop_Cells_wrap_form_cell_integral_otherwise (10,813,766 us, 12.97%)</title><rect x="355.5" y="135" width="153.1" height="15.0" fill="rgb(0,0,0)" rx="2" ry="2" />
<text  x="358.54" y="145.5" >Parloop_Cells_wra..</text>
</g>
<g >
<title>firedrake.ufl_expr.adjoint (22,107 us, 0.03%)</title><rect x="547.6" y="167" width="0.3" height="15.0" fill="rgb(0,0,0)" rx="2" ry="2" />
<text  x="550.56" y="177.5" ></text>
</g>
<g >
<title>Parloop_set_#x7f833911caf0_wrap_expression_kernel (374,331 us, 0.45%)</title><rect x="58.1" y="135" width="5.3" height="15.0" fill="rgb(0,0,0)" rx="2" ry="2" />
<text  x="61.08" y="145.5" ></text>
</g>
<g >
<title>KSPSolve (221,985 us, 0.27%)</title><rect x="534.7" y="151" width="3.2" height="15.0" fill="rgb(0,0,0)" rx="2" ry="2" />
<text  x="537.75" y="161.5" ></text>
</g>
<g >
<title>firedrake.ufl_expr.adjoint (12,165 us, 0.01%)</title><rect x="532.4" y="103" width="0.1" height="15.0" fill="rgb(0,0,0)" rx="2" ry="2" />
<text  x="535.36" y="113.5" ></text>
</g>
<g >
<title>all (83,353,599 us, 100%)</title><rect x="10.0" y="39" width="1180.0" height="15.0" fill="rgb(0,0,0)" rx="2" ry="2" />
<text  x="13.00" y="49.5" ></text>
</g>
<g >
<title>KSPSolve (196,596 us, 0.24%)</title><rect x="534.9" y="183" width="2.8" height="15.0" fill="rgb(0,0,0)" rx="2" ry="2" />
<text  x="537.87" y="193.5" ></text>
</g>
<g >
<title>ParLoopExecute (10,813,766 us, 12.97%)</title><rect x="355.5" y="119" width="153.1" height="15.0" fill="rgb(0,0,0)" rx="2" ry="2" />
<text  x="358.54" y="129.5" >ParLoopExecute</text>
</g>
<g >
<title>KSPSolve_FS_Low (390,474 us, 0.47%)</title><rect x="537.9" y="135" width="5.5" height="15.0" fill="rgb(0,0,0)" rx="2" ry="2" />
<text  x="540.89" y="145.5" ></text>
</g>
<g >
<title>CreateFunctionSpace (25,339 us, 0.03%)</title><rect x="36.1" y="71" width="0.3" height="15.0" fill="rgb(0,0,0)" rx="2" ry="2" />
<text  x="39.07" y="81.5" ></text>
</g>
<g >
<title>MatSOR (127,379 us, 0.15%)</title><rect x="539.2" y="247" width="1.8" height="15.0" fill="rgb(0,0,0)" rx="2" ry="2" />
<text  x="542.22" y="257.5" ></text>
</g>
</g>
</svg>
