<?xml version="1.0" standalone="no"?>
<!DOCTYPE svg PUBLIC "-//W3C//DTD SVG 1.1//EN" "http://www.w3.org/Graphics/SVG/1.1/DTD/svg11.dtd">
<svg version="1.1" width="1200" height="331" onload="init(evt)" viewBox="0 0 1200 331" xmlns="http://www.w3.org/2000/svg" xmlns:xlink="http://www.w3.org/1999/xlink">
<!-- Flame graph stack visualization. See https://github.com/brendangregg/FlameGraph for latest version, and http://www.brendangregg.com/flamegraphs.html for examples. -->
<!-- NOTES:  -->
<defs>
	<linearGradient id="background" y1="0" y2="1" x1="0" x2="0" >
		<stop stop-color="#eeeeee" offset="5%" />
		<stop stop-color="#eeeeb0" offset="95%" />
	</linearGradient>
</defs>
<style type="text/css">
	text { font-family:Verdana; font-size:13px; fill:rgb(0,0,0); }
	#search, #ignorecase { opacity:0.1; cursor:pointer; }
	#search:hover, #search.show, #ignorecase:hover, #ignorecase.show { opacity:1; }
	#subtitle { text-anchor:middle; font-color:rgb(160,160,160); }
	#title { text-anchor:middle; font-size:18px}
	#unzoom { cursor:pointer; }
	#frames > *:hover { stroke:black; stroke-width:0.5; cursor:pointer; }
	.hide { display:none; }
	.parent { opacity:0.5; }
</style>
<script type="text/ecmascript">
<![CDATA[
	"use strict";
	var details, searchbtn, unzoombtn, matchedtxt, svg, searching, currentSearchTerm, ignorecase, ignorecaseBtn;
	function init(evt) {
		details = document.getElementById("details").firstChild;
		searchbtn = document.getElementById("search");
		ignorecaseBtn = document.getElementById("ignorecase");
		unzoombtn = document.getElementById("unzoom");
		matchedtxt = document.getElementById("matched");
		svg = document.getElementsByTagName("svg")[0];
		searching = 0;
		currentSearchTerm = null;

		// use GET parameters to restore a flamegraphs state.
		var params = get_params();
		if (params.x && params.y)
			zoom(find_group(document.querySelector('[x="' + params.x + '"][y="' + params.y + '"]')));
                if (params.s) search(params.s);
	}

	// event listeners
	window.addEventListener("click", function(e) {
		var target = find_group(e.target);
		if (target) {
			if (target.nodeName == "a") {
				if (e.ctrlKey === false) return;
				e.preventDefault();
			}
			if (target.classList.contains("parent")) unzoom();
			zoom(target);
			if (!document.querySelector('.parent')) {
				clearzoom();
				return;
			}

			// set parameters for zoom state
			var el = target.querySelector("rect");
			if (el && el.attributes && el.attributes.y && el.attributes._orig_x) {
				var params = get_params()
				params.x = el.attributes._orig_x.value;
				params.y = el.attributes.y.value;
				history.replaceState(null, null, parse_params(params));
			}
		}
		else if (e.target.id == "unzoom") clearzoom();
		else if (e.target.id == "search") search_prompt();
		else if (e.target.id == "ignorecase") toggle_ignorecase();
	}, false)

	// mouse-over for info
	// show
	window.addEventListener("mouseover", function(e) {
		var target = find_group(e.target);
		if (target) details.nodeValue = "Function: " + g_to_text(target);
	}, false)

	// clear
	window.addEventListener("mouseout", function(e) {
		var target = find_group(e.target);
		if (target) details.nodeValue = ' ';
	}, false)

	// ctrl-F for search
	// ctrl-I to toggle case-sensitive search
	window.addEventListener("keydown",function (e) {
		if (e.keyCode === 114 || (e.ctrlKey && e.keyCode === 70)) {
			e.preventDefault();
			search_prompt();
		}
		else if (e.ctrlKey && e.keyCode === 73) {
			e.preventDefault();
			toggle_ignorecase();
		}
	}, false)

	// functions
	function get_params() {
		var params = {};
		var paramsarr = window.location.search.substr(1).split('&');
		for (var i = 0; i < paramsarr.length; ++i) {
			var tmp = paramsarr[i].split("=");
			if (!tmp[0] || !tmp[1]) continue;
			params[tmp[0]]  = decodeURIComponent(tmp[1]);
		}
		return params;
	}
	function parse_params(params) {
		var uri = "?";
		for (var key in params) {
			uri += key + '=' + encodeURIComponent(params[key]) + '&';
		}
		if (uri.slice(-1) == "&")
			uri = uri.substring(0, uri.length - 1);
		if (uri == '?')
			uri = window.location.href.split('?')[0];
		return uri;
	}
	function find_child(node, selector) {
		var children = node.querySelectorAll(selector);
		if (children.length) return children[0];
	}
	function find_group(node) {
		var parent = node.parentElement;
		if (!parent) return;
		if (parent.id == "frames") return node;
		return find_group(parent);
	}
	function orig_save(e, attr, val) {
		if (e.attributes["_orig_" + attr] != undefined) return;
		if (e.attributes[attr] == undefined) return;
		if (val == undefined) val = e.attributes[attr].value;
		e.setAttribute("_orig_" + attr, val);
	}
	function orig_load(e, attr) {
		if (e.attributes["_orig_"+attr] == undefined) return;
		e.attributes[attr].value = e.attributes["_orig_" + attr].value;
		e.removeAttribute("_orig_"+attr);
	}
	function g_to_text(e) {
		var text = find_child(e, "title").firstChild.nodeValue;
		return (text)
	}
	function g_to_func(e) {
		var func = g_to_text(e);
		// if there's any manipulation we want to do to the function
		// name before it's searched, do it here before returning.
		return (func);
	}
	function update_text(e) {
		var r = find_child(e, "rect");
		var t = find_child(e, "text");
		var w = parseFloat(r.attributes.width.value) -3;
		var txt = find_child(e, "title").textContent.replace(/\([^(]*\)$/,"");
		t.attributes.x.value = parseFloat(r.attributes.x.value) + 3;

		// Smaller than this size won't fit anything
		if (w < 2 * 13 * 0.59) {
			t.textContent = "";
			return;
		}

		t.textContent = txt;
		// Fit in full text width
		if (/^ *$/.test(txt) || t.getSubStringLength(0, txt.length) < w)
			return;

		for (var x = txt.length - 2; x > 0; x--) {
			if (t.getSubStringLength(0, x + 2) <= w) {
				t.textContent = txt.substring(0, x) + "..";
				return;
			}
		}
		t.textContent = "";
	}

	// zoom
	function zoom_reset(e) {
		if (e.attributes != undefined) {
			orig_load(e, "x");
			orig_load(e, "width");
		}
		if (e.childNodes == undefined) return;
		for (var i = 0, c = e.childNodes; i < c.length; i++) {
			zoom_reset(c[i]);
		}
	}
	function zoom_child(e, x, ratio) {
		if (e.attributes != undefined) {
			if (e.attributes.x != undefined) {
				orig_save(e, "x");
				e.attributes.x.value = (parseFloat(e.attributes.x.value) - x - 10) * ratio + 10;
				if (e.tagName == "text")
					e.attributes.x.value = find_child(e.parentNode, "rect[x]").attributes.x.value + 3;
			}
			if (e.attributes.width != undefined) {
				orig_save(e, "width");
				e.attributes.width.value = parseFloat(e.attributes.width.value) * ratio;
			}
		}

		if (e.childNodes == undefined) return;
		for (var i = 0, c = e.childNodes; i < c.length; i++) {
			zoom_child(c[i], x - 10, ratio);
		}
	}
	function zoom_parent(e) {
		if (e.attributes) {
			if (e.attributes.x != undefined) {
				orig_save(e, "x");
				e.attributes.x.value = 10;
			}
			if (e.attributes.width != undefined) {
				orig_save(e, "width");
				e.attributes.width.value = parseInt(svg.width.baseVal.value) - (10 * 2);
			}
		}
		if (e.childNodes == undefined) return;
		for (var i = 0, c = e.childNodes; i < c.length; i++) {
			zoom_parent(c[i]);
		}
	}
	function zoom(node) {
		var attr = find_child(node, "rect").attributes;
		var width = parseFloat(attr.width.value);
		var xmin = parseFloat(attr.x.value);
		var xmax = parseFloat(xmin + width);
		var ymin = parseFloat(attr.y.value);
		var ratio = (svg.width.baseVal.value - 2 * 10) / width;

		// XXX: Workaround for JavaScript float issues (fix me)
		var fudge = 0.0001;

		unzoombtn.classList.remove("hide");

		var el = document.getElementById("frames").children;
		for (var i = 0; i < el.length; i++) {
			var e = el[i];
			var a = find_child(e, "rect").attributes;
			var ex = parseFloat(a.x.value);
			var ew = parseFloat(a.width.value);
			var upstack;
			// Is it an ancestor
			if (1 == 0) {
				upstack = parseFloat(a.y.value) > ymin;
			} else {
				upstack = parseFloat(a.y.value) < ymin;
			}
			if (upstack) {
				// Direct ancestor
				if (ex <= xmin && (ex+ew+fudge) >= xmax) {
					e.classList.add("parent");
					zoom_parent(e);
					update_text(e);
				}
				// not in current path
				else
					e.classList.add("hide");
			}
			// Children maybe
			else {
				// no common path
				if (ex < xmin || ex + fudge >= xmax) {
					e.classList.add("hide");
				}
				else {
					zoom_child(e, xmin, ratio);
					update_text(e);
				}
			}
		}
		search();
	}
	function unzoom() {
		unzoombtn.classList.add("hide");
		var el = document.getElementById("frames").children;
		for(var i = 0; i < el.length; i++) {
			el[i].classList.remove("parent");
			el[i].classList.remove("hide");
			zoom_reset(el[i]);
			update_text(el[i]);
		}
		search();
	}
	function clearzoom() {
		unzoom();

		// remove zoom state
		var params = get_params();
		if (params.x) delete params.x;
		if (params.y) delete params.y;
		history.replaceState(null, null, parse_params(params));
	}

	// search
	function toggle_ignorecase() {
		ignorecase = !ignorecase;
		if (ignorecase) {
			ignorecaseBtn.classList.add("show");
		} else {
			ignorecaseBtn.classList.remove("show");
		}
		reset_search();
		search();
	}
	function reset_search() {
		var el = document.querySelectorAll("#frames rect");
		for (var i = 0; i < el.length; i++) {
			orig_load(el[i], "fill")
		}
		var params = get_params();
		delete params.s;
		history.replaceState(null, null, parse_params(params));
	}
	function search_prompt() {
		if (!searching) {
			var term = prompt("Enter a search term (regexp " +
			    "allowed, eg: ^ext4_)"
			    + (ignorecase ? ", ignoring case" : "")
			    + "\nPress Ctrl-i to toggle case sensitivity", "");
			if (term != null) search(term);
		} else {
			reset_search();
			searching = 0;
			currentSearchTerm = null;
			searchbtn.classList.remove("show");
			searchbtn.firstChild.nodeValue = "Search"
			matchedtxt.classList.add("hide");
			matchedtxt.firstChild.nodeValue = ""
		}
	}
	function search(term) {
		if (term) currentSearchTerm = term;

		var re = new RegExp(currentSearchTerm, ignorecase ? 'i' : '');
		var el = document.getElementById("frames").children;
		var matches = new Object();
		var maxwidth = 0;
		for (var i = 0; i < el.length; i++) {
			var e = el[i];
			var func = g_to_func(e);
			var rect = find_child(e, "rect");
			if (func == null || rect == null)
				continue;

			// Save max width. Only works as we have a root frame
			var w = parseFloat(rect.attributes.width.value);
			if (w > maxwidth)
				maxwidth = w;

			if (func.match(re)) {
				// highlight
				var x = parseFloat(rect.attributes.x.value);
				orig_save(rect, "fill");
				rect.attributes.fill.value = "rgb(230,0,230)";

				// remember matches
				if (matches[x] == undefined) {
					matches[x] = w;
				} else {
					if (w > matches[x]) {
						// overwrite with parent
						matches[x] = w;
					}
				}
				searching = 1;
			}
		}
		if (!searching)
			return;
		var params = get_params();
		params.s = currentSearchTerm;
		history.replaceState(null, null, parse_params(params));

		searchbtn.classList.add("show");
		searchbtn.firstChild.nodeValue = "Reset Search";

		// calculate percent matched, excluding vertical overlap
		var count = 0;
		var lastx = -1;
		var lastw = 0;
		var keys = Array();
		for (k in matches) {
			if (matches.hasOwnProperty(k))
				keys.push(k);
		}
		// sort the matched frames by their x location
		// ascending, then width descending
		keys.sort(function(a, b){
			return a - b;
		});
		// Step through frames saving only the biggest bottom-up frames
		// thanks to the sort order. This relies on the tree property
		// where children are always smaller than their parents.
		var fudge = 0.0001;	// JavaScript floating point
		for (var k in keys) {
			var x = parseFloat(keys[k]);
			var w = matches[keys[k]];
			if (x >= lastx + lastw - fudge) {
				count += w;
				lastx = x;
				lastw = w;
			}
		}
		// display matched percent
		matchedtxt.classList.remove("hide");
		var pct = 100 * count / maxwidth;
		if (pct != 100) pct = pct.toFixed(1)
		matchedtxt.firstChild.nodeValue = "Matched: " + pct + "%";
	}
]]>
</script>
<rect x="0.0" y="0" width="1200.0" height="331.0" fill="url(#background)"  />
<text id="title" x="600.00" y="26" >Firedrake example</text>
<text id="details" x="10.00" y="313" > </text>
<text id="unzoom" x="10.00" y="26" class="hide">Reset Zoom</text>
<text id="search" x="1090.00" y="26" >Search</text>
<text id="ignorecase" x="1174.00" y="26" >ic</text>
<text id="matched" x="1090.00" y="313" > </text>
<g id="frames">
<g >
<title>KSPSolve (938,335 us, 1.16%)</title><rect x="534.9" y="103" width="13.7" height="15.0" fill="rgb(0,0,0)" rx="2" ry="2" />
<text  x="537.94" y="113.5" ></text>
</g>
<g >
<title>MatPtAPSymbolic (11,741 us, 0.01%)</title><rect x="543.4" y="199" width="0.2" height="15.0" fill="rgb(0,0,0)" rx="2" ry="2" />
<text  x="546.42" y="209.5" ></text>
</g>
<g >
<title>pyop2.global_kernel.GlobalKernel.compile (384,284 us, 0.47%)</title><rect x="58.9" y="151" width="5.5" height="15.0" fill="rgb(0,0,0)" rx="2" ry="2" />
<text  x="61.86" y="161.5" ></text>
</g>
<g >
<title>MatMult (16,863 us, 0.02%)</title><rect x="542.2" y="199" width="0.3" height="15.0" fill="rgb(0,0,0)" rx="2" ry="2" />
<text  x="545.21" y="209.5" ></text>
</g>
<g >
<title>Parloop_Cells_wrap_form10_cell_integral_otherwise (9,472,925 us, 11.68%)</title><rect x="1021.2" y="135" width="137.9" height="15.0" fill="rgb(0,0,0)" rx="2" ry="2" />
<text  x="1024.22" y="145.5" >Parloop_Cells_w..</text>
</g>
<g >
<title>SNESSolve (45,008,361 us, 55.51%)</title><rect x="534.9" y="87" width="655.1" height="15.0" fill="rgb(0,0,0)" rx="2" ry="2" />
<text  x="537.94" y="97.5" >SNESSolve</text>
</g>
<g >
<title>MatMult (10,164 us, 0.01%)</title><rect x="548.3" y="183" width="0.2" height="15.0" fill="rgb(0,0,0)" rx="2" ry="2" />
<text  x="551.30" y="193.5" ></text>
</g>
<g >
<title>PCApply (227,066 us, 0.28%)</title><rect x="545.0" y="199" width="3.3" height="15.0" fill="rgb(0,0,0)" rx="2" ry="2" />
<text  x="548.00" y="209.5" ></text>
</g>
<g >
<title>firedrake.ufl_expr.adjoint (12,188 us, 0.02%)</title><rect x="533.2" y="103" width="0.2" height="15.0" fill="rgb(0,0,0)" rx="2" ry="2" />
<text  x="536.22" y="113.5" ></text>
</g>
<g >
<title>firedrake.formmanipulation.split_form (9,291 us, 0.01%)</title><rect x="1189.9" y="135" width="0.1" height="15.0" fill="rgb(0,0,0)" rx="2" ry="2" />
<text  x="1192.86" y="145.5" ></text>
</g>
<g >
<title>firedrake.assemble.assemble (765,078 us, 0.94%)</title><rect x="58.9" y="71" width="11.1" height="15.0" fill="rgb(0,0,0)" rx="2" ry="2" />
<text  x="61.86" y="81.5" ></text>
</g>
<g >
<title>PCSetUpOnBlocks (8,392 us, 0.01%)</title><rect x="350.4" y="119" width="0.2" height="15.0" fill="rgb(0,0,0)" rx="2" ry="2" />
<text  x="353.44" y="129.5" ></text>
</g>
<g >
<title>MatResidual (16,747 us, 0.02%)</title><rect x="548.1" y="215" width="0.2" height="15.0" fill="rgb(0,0,0)" rx="2" ry="2" />
<text  x="551.06" y="225.5" ></text>
</g>
<g >
<title>firedrake.assemble.allocate_matrix (105,981 us, 0.13%)</title><rect x="533.4" y="87" width="1.5" height="15.0" fill="rgb(0,0,0)" rx="2" ry="2" />
<text  x="536.40" y="97.5" ></text>
</g>
<g >
<title>KSPSolve_FS_0 (225,163 us, 0.28%)</title><rect x="535.7" y="135" width="3.3" height="15.0" fill="rgb(0,0,0)" rx="2" ry="2" />
<text  x="538.68" y="145.5" ></text>
</g>
<g >
<title>firedrake.formmanipulation.ExtractSubBlock.split (9,745 us, 0.01%)</title><rect x="549.1" y="151" width="0.2" height="15.0" fill="rgb(0,0,0)" rx="2" ry="2" />
<text  x="552.15" y="161.5" ></text>
</g>
<g >
<title>firedrake.variational_solver.NonlinearVariationalSolver.__init__ (105,981 us, 0.13%)</title><rect x="533.4" y="71" width="1.5" height="15.0" fill="rgb(0,0,0)" rx="2" ry="2" />
<text  x="536.40" y="81.5" ></text>
</g>
<g >
<title>KSPSolve (227,066 us, 0.28%)</title><rect x="545.0" y="183" width="3.3" height="15.0" fill="rgb(0,0,0)" rx="2" ry="2" />
<text  x="548.00" y="193.5" ></text>
</g>
<g >
<title>firedrake.projection.project (19,708,746 us, 24.31%)</title><rect x="70.0" y="87" width="286.8" height="15.0" fill="rgb(0,0,0)" rx="2" ry="2" />
<text  x="72.99" y="97.5" >firedrake.projection.project</text>
</g>
<g >
<title>PCSetUp (70,082 us, 0.09%)</title><rect x="548.6" y="103" width="1.0" height="15.0" fill="rgb(0,0,0)" rx="2" ry="2" />
<text  x="551.60" y="113.5" ></text>
</g>
<g >
<title>pyop2.global_kernel.GlobalKernel.compile (9,472,925 us, 11.68%)</title><rect x="1021.2" y="151" width="137.9" height="15.0" fill="rgb(0,0,0)" rx="2" ry="2" />
<text  x="1024.22" y="161.5" >pyop2.global_ke..</text>
</g>
<g >
<title>pyop2.global_kernel.GlobalKernel.compile (362,739 us, 0.45%)</title><rect x="64.4" y="151" width="5.3" height="15.0" fill="rgb(0,0,0)" rx="2" ry="2" />
<text  x="67.45" y="161.5" ></text>
</g>
<g >
<title>firedrake.__init__ (1,516,377 us, 1.87%)</title><rect x="36.8" y="71" width="22.1" height="15.0" fill="rgb(0,0,0)" rx="2" ry="2" />
<text  x="39.79" y="81.5" ></text>
</g>
<g >
<title>firedrake (81,076,746 us, 100.00%)</title><rect x="10.0" y="55" width="1180.0" height="15.0" fill="rgb(0,0,0)" rx="2" ry="2" />
<text  x="13.00" y="65.5" >firedrake</text>
</g>
<g >
<title>PCGAMGCoarse_AGG (8,396 us, 0.01%)</title><rect x="542.5" y="183" width="0.1" height="15.0" fill="rgb(0,0,0)" rx="2" ry="2" />
<text  x="545.46" y="193.5" ></text>
</g>
<g >
<title>firedrake.solving_utils._SNESContext.split (32,484 us, 0.04%)</title><rect x="549.1" y="135" width="0.5" height="15.0" fill="rgb(0,0,0)" rx="2" ry="2" />
<text  x="552.15" y="145.5" ></text>
</g>
<g >
<title>pyop2.global_kernel.GlobalKernel.compile (4,231,519 us, 5.22%)</title><rect x="70.1" y="135" width="61.6" height="15.0" fill="rgb(0,0,0)" rx="2" ry="2" />
<text  x="73.11" y="145.5" >pyop2...</text>
</g>
<g >
<title>SNESJacobianEval (33,671,214 us, 41.53%)</title><rect x="699.9" y="103" width="490.1" height="15.0" fill="rgb(0,0,0)" rx="2" ry="2" />
<text  x="702.95" y="113.5" >SNESJacobianEval</text>
</g>
<g >
<title>CreateSparsity (48,615 us, 0.06%)</title><rect x="341.3" y="135" width="0.7" height="15.0" fill="rgb(0,0,0)" rx="2" ry="2" />
<text  x="344.31" y="145.5" ></text>
</g>
<g >
<title>ParLoopExecute (14,401,952 us, 17.76%)</title><rect x="131.7" y="119" width="209.6" height="15.0" fill="rgb(0,0,0)" rx="2" ry="2" />
<text  x="134.70" y="129.5" >ParLoopExecute</text>
</g>
<g >
<title>KSPSolve_FS_Low (403,168 us, 0.50%)</title><rect x="539.0" y="135" width="5.8" height="15.0" fill="rgb(0,0,0)" rx="2" ry="2" />
<text  x="541.95" y="145.5" ></text>
</g>
<g >
<title>pyop2.global_kernel.GlobalKernel.compile (11,412,114 us, 14.08%)</title><rect x="700.1" y="151" width="166.1" height="15.0" fill="rgb(0,0,0)" rx="2" ry="2" />
<text  x="703.13" y="161.5" >pyop2.global_kernel..</text>
</g>
<g >
<title>firedrake.assemble.assemble (15,029,764 us, 18.54%)</title><rect x="131.7" y="103" width="218.7" height="15.0" fill="rgb(0,0,0)" rx="2" ry="2" />
<text  x="134.70" y="113.5" >firedrake.assemble.assemble</text>
</g>
<g >
<title>KSPSetUp (11,013 us, 0.01%)</title><rect x="544.7" y="167" width="0.1" height="15.0" fill="rgb(0,0,0)" rx="2" ry="2" />
<text  x="547.66" y="177.5" ></text>
</g>
<g >
<title>all (81,076,746 us, 100%)</title><rect x="10.0" y="39" width="1180.0" height="15.0" fill="rgb(0,0,0)" rx="2" ry="2" />
<text  x="13.00" y="49.5" ></text>
</g>
<g >
<title>MatMult (16,747 us, 0.02%)</title><rect x="548.1" y="231" width="0.2" height="15.0" fill="rgb(0,0,0)" rx="2" ry="2" />
<text  x="551.06" y="241.5" ></text>
</g>
<g >
<title>firedrake.variational_solver.NonlinearVariationalProblem.__init__ (22,739 us, 0.03%)</title><rect x="549.3" y="151" width="0.3" height="15.0" fill="rgb(0,0,0)" rx="2" ry="2" />
<text  x="552.29" y="161.5" ></text>
</g>
<g >
<title>CreateFunctionSpace (22,262 us, 0.03%)</title><rect x="36.5" y="71" width="0.3" height="15.0" fill="rgb(0,0,0)" rx="2" ry="2" />
<text  x="39.46" y="81.5" ></text>
</g>
<g >
<title>PCGAMGPOpt_AGG (18,088 us, 0.02%)</title><rect x="542.9" y="183" width="0.2" height="15.0" fill="rgb(0,0,0)" rx="2" ry="2" />
<text  x="545.88" y="193.5" ></text>
</g>
<g >
<title>pyop2.caching.disk_cached.&lt;locals&gt;.decorator.&lt;locals&gt;.wrapper (18,055 us, 0.02%)</title><rect x="69.7" y="119" width="0.3" height="15.0" fill="rgb(0,0,0)" rx="2" ry="2" />
<text  x="72.73" y="129.5" ></text>
</g>
<g >
<title>ParLoopExecute (31,547,159 us, 38.91%)</title><rect x="699.9" y="119" width="459.2" height="15.0" fill="rgb(0,0,0)" rx="2" ry="2" />
<text  x="702.95" y="129.5" >ParLoopExecute</text>
</g>
<g >
<title>Parloop_Cells_wrap_form_cell_integral_otherwise (10,533,663 us, 12.99%)</title><rect x="356.8" y="135" width="153.3" height="15.0" fill="rgb(0,0,0)" rx="2" ry="2" />
<text  x="359.83" y="145.5" >Parloop_Cells_wra..</text>
</g>
<g >
<title>FunctionSpaceData: CreateElement (10,212 us, 0.01%)</title><rect x="36.6" y="135" width="0.2" height="15.0" fill="rgb(0,0,0)" rx="2" ry="2" />
<text  x="39.64" y="145.5" ></text>
</g>
<g >
<title>pyop2.global_kernel.GlobalKernel.compile (891,669 us, 1.10%)</title><rect x="23.5" y="135" width="13.0" height="15.0" fill="rgb(0,0,0)" rx="2" ry="2" />
<text  x="26.48" y="145.5" ></text>
</g>
<g >
<title>PCSetUp (162,241 us, 0.20%)</title><rect x="542.5" y="151" width="2.3" height="15.0" fill="rgb(0,0,0)" rx="2" ry="2" />
<text  x="545.46" y="161.5" ></text>
</g>
<g >
<title>firedrake.tsfc_interface.compile_form (430,743 us, 0.53%)</title><rect x="350.6" y="103" width="6.2" height="15.0" fill="rgb(0,0,0)" rx="2" ry="2" />
<text  x="353.57" y="113.5" ></text>
</g>
<g >
<title>Parloop_set_#x7f0e406c4760_wrap_expression_kernel (384,284 us, 0.47%)</title><rect x="58.9" y="135" width="5.5" height="15.0" fill="rgb(0,0,0)" rx="2" ry="2" />
<text  x="61.86" y="145.5" ></text>
</g>
<g >
<title>firedrake.norms.norm (12,119,542 us, 14.95%)</title><rect x="356.8" y="87" width="176.4" height="15.0" fill="rgb(0,0,0)" rx="2" ry="2" />
<text  x="359.83" y="97.5" >firedrake.norms.norm</text>
</g>
<g >
<title>MatPtAPNumeric (19,388 us, 0.02%)</title><rect x="543.1" y="199" width="0.3" height="15.0" fill="rgb(0,0,0)" rx="2" ry="2" />
<text  x="546.14" y="209.5" ></text>
</g>
<g >
<title>KSPSolve (213,341 us, 0.26%)</title><rect x="539.1" y="183" width="3.1" height="15.0" fill="rgb(0,0,0)" rx="2" ry="2" />
<text  x="542.11" y="193.5" ></text>
</g>
<g >
<title>MatMult (237,230 us, 0.29%)</title><rect x="545.0" y="167" width="3.5" height="15.0" fill="rgb(0,0,0)" rx="2" ry="2" />
<text  x="548.00" y="177.5" ></text>
</g>
<g >
<title>MatMult (10,137 us, 0.01%)</title><rect x="548.5" y="135" width="0.1" height="15.0" fill="rgb(0,0,0)" rx="2" ry="2" />
<text  x="551.45" y="145.5" ></text>
</g>
<g >
<title>firedrake.tsfc_interface.compile_form (2,124,055 us, 2.62%)</title><rect x="1159.1" y="119" width="30.9" height="15.0" fill="rgb(0,0,0)" rx="2" ry="2" />
<text  x="1162.09" y="129.5" >fi..</text>
</g>
<g >
<title>firedrake.norms.errornorm (12,119,542 us, 14.95%)</title><rect x="356.8" y="71" width="176.4" height="15.0" fill="rgb(0,0,0)" rx="2" ry="2" />
<text  x="359.83" y="81.5" >firedrake.norms.erro..</text>
</g>
<g >
<title>Parloop_Cells_wrap_form0_cell_integral_otherwise (4,231,519 us, 5.22%)</title><rect x="70.1" y="119" width="61.6" height="15.0" fill="rgb(0,0,0)" rx="2" ry="2" />
<text  x="73.11" y="129.5" >Parloo..</text>
</g>
<g >
<title>firedrake.ufl_expr.adjoint (22,739 us, 0.03%)</title><rect x="549.3" y="167" width="0.3" height="15.0" fill="rgb(0,0,0)" rx="2" ry="2" />
<text  x="552.29" y="177.5" ></text>
</g>
<g >
<title>ParLoopExecute (891,669 us, 1.10%)</title><rect x="23.5" y="103" width="13.0" height="15.0" fill="rgb(0,0,0)" rx="2" ry="2" />
<text  x="26.48" y="113.5" ></text>
</g>
<g >
<title>ParLoopExecute (4,231,519 us, 5.22%)</title><rect x="70.1" y="103" width="61.6" height="15.0" fill="rgb(0,0,0)" rx="2" ry="2" />
<text  x="73.11" y="113.5" >ParLoo..</text>
</g>
<g >
<title>KSPSolve (249,590 us, 0.31%)</title><rect x="544.8" y="151" width="3.7" height="15.0" fill="rgb(0,0,0)" rx="2" ry="2" />
<text  x="547.82" y="161.5" ></text>
</g>
<g >
<title>PCGAMG Gal l02 (22,295 us, 0.03%)</title><rect x="544.3" y="183" width="0.4" height="15.0" fill="rgb(0,0,0)" rx="2" ry="2" />
<text  x="547.34" y="193.5" ></text>
</g>
<g >
<title>ParLoopExecute (747,023 us, 0.92%)</title><rect x="58.9" y="119" width="10.8" height="15.0" fill="rgb(0,0,0)" rx="2" ry="2" />
<text  x="61.86" y="129.5" ></text>
</g>
<g >
<title>PCApply (128,967 us, 0.16%)</title><rect x="540.3" y="199" width="1.9" height="15.0" fill="rgb(0,0,0)" rx="2" ry="2" />
<text  x="543.34" y="209.5" ></text>
</g>
<g >
<title>MatMult (16,896 us, 0.02%)</title><rect x="538.7" y="199" width="0.3" height="15.0" fill="rgb(0,0,0)" rx="2" ry="2" />
<text  x="541.71" y="209.5" ></text>
</g>
<g >
<title>PCApply (240,927 us, 0.30%)</title><rect x="539.0" y="167" width="3.5" height="15.0" fill="rgb(0,0,0)" rx="2" ry="2" />
<text  x="541.95" y="177.5" ></text>
</g>
<g >
<title>PCApply (128,967 us, 0.16%)</title><rect x="540.3" y="231" width="1.9" height="15.0" fill="rgb(0,0,0)" rx="2" ry="2" />
<text  x="543.34" y="241.5" ></text>
</g>
<g >
<title>firedrake.functionspaceimpl.FunctionSpace.__init__ (22,262 us, 0.03%)</title><rect x="36.5" y="87" width="0.3" height="15.0" fill="rgb(0,0,0)" rx="2" ry="2" />
<text  x="39.46" y="97.5" ></text>
</g>
<g >
<title>PCGAMGGraph_AGG (20,355 us, 0.03%)</title><rect x="542.6" y="183" width="0.3" height="15.0" fill="rgb(0,0,0)" rx="2" ry="2" />
<text  x="545.58" y="193.5" ></text>
</g>
<g >
<title>KSPSolve_FS_Schu (249,590 us, 0.31%)</title><rect x="544.8" y="135" width="3.7" height="15.0" fill="rgb(0,0,0)" rx="2" ry="2" />
<text  x="547.82" y="145.5" ></text>
</g>
<g >
<title>CreateExtMesh (933,217 us, 1.15%)</title><rect x="22.9" y="71" width="13.6" height="15.0" fill="rgb(0,0,0)" rx="2" ry="2" />
<text  x="25.88" y="81.5" ></text>
</g>
<g >
<title>MatMult (41,694 us, 0.05%)</title><rect x="535.1" y="119" width="0.6" height="15.0" fill="rgb(0,0,0)" rx="2" ry="2" />
<text  x="538.07" y="129.5" ></text>
</g>
<g >
<title>MatPtAPNumeric (12,737 us, 0.02%)</title><rect x="544.3" y="199" width="0.2" height="15.0" fill="rgb(0,0,0)" rx="2" ry="2" />
<text  x="547.34" y="209.5" ></text>
</g>
<g >
<title>KSPSolve (116,607 us, 0.14%)</title><rect x="546.4" y="247" width="1.7" height="15.0" fill="rgb(0,0,0)" rx="2" ry="2" />
<text  x="549.36" y="257.5" ></text>
</g>
<g >
<title>pyop2.global_kernel.GlobalKernel.compile (10,649,552 us, 13.14%)</title><rect x="866.2" y="151" width="155.0" height="15.0" fill="rgb(0,0,0)" rx="2" ry="2" />
<text  x="869.22" y="161.5" >pyop2.global_kerne..</text>
</g>
<g >
<title>pyop2.global_kernel.GlobalKernel.compile (4,507,526 us, 5.56%)</title><rect x="549.8" y="151" width="65.6" height="15.0" fill="rgb(0,0,0)" rx="2" ry="2" />
<text  x="552.77" y="161.5" >pyop2...</text>
</g>
<g >
<title>firedrake.functionspacedata.get_shared_data (22,262 us, 0.03%)</title><rect x="36.5" y="103" width="0.3" height="15.0" fill="rgb(0,0,0)" rx="2" ry="2" />
<text  x="39.46" y="113.5" ></text>
</g>
<g >
<title>MatMult (84,374 us, 0.10%)</title><rect x="539.1" y="199" width="1.2" height="15.0" fill="rgb(0,0,0)" rx="2" ry="2" />
<text  x="542.11" y="209.5" ></text>
</g>
<g >
<title>MatSOR (128,967 us, 0.16%)</title><rect x="540.3" y="247" width="1.9" height="15.0" fill="rgb(0,0,0)" rx="2" ry="2" />
<text  x="543.34" y="257.5" ></text>
</g>
<g >
<title>ParLoopExecute (8,884,858 us, 10.96%)</title><rect x="549.6" y="119" width="129.3" height="15.0" fill="rgb(0,0,0)" rx="2" ry="2" />
<text  x="552.62" y="129.5" >ParLoopExecute</text>
</g>
<g >
<title>KSPSolve (11,013 us, 0.01%)</title><rect x="544.7" y="183" width="0.1" height="15.0" fill="rgb(0,0,0)" rx="2" ry="2" />
<text  x="547.66" y="193.5" ></text>
</g>
<g >
<title>Parloop_Cells_wrap_form01_cell_integral_otherwise (10,649,552 us, 13.14%)</title><rect x="866.2" y="135" width="155.0" height="15.0" fill="rgb(0,0,0)" rx="2" ry="2" />
<text  x="869.22" y="145.5" >Parloop_Cells_wrap..</text>
</g>
<g >
<title>pyop2.global_kernel.GlobalKernel.compile (4,367,087 us, 5.39%)</title><rect x="615.4" y="151" width="63.5" height="15.0" fill="rgb(0,0,0)" rx="2" ry="2" />
<text  x="618.37" y="161.5" >pyop2...</text>
</g>
<g >
<title>Log_Event_form0_cell_integral_otherwise (10,245 us, 0.01%)</title><rect x="549.6" y="151" width="0.2" height="15.0" fill="rgb(0,0,0)" rx="2" ry="2" />
<text  x="552.62" y="161.5" ></text>
</g>
<g >
<title>Parloop_Cells_wrap_form1_cell_integral_otherwise (4,367,087 us, 5.39%)</title><rect x="615.4" y="135" width="63.5" height="15.0" fill="rgb(0,0,0)" rx="2" ry="2" />
<text  x="618.37" y="145.5" >Parloo..</text>
</g>
<g >
<title>Parloop_Cells_wrap_pyop2_kernel_uniform_extrusion (891,669 us, 1.10%)</title><rect x="23.5" y="119" width="13.0" height="15.0" fill="rgb(0,0,0)" rx="2" ry="2" />
<text  x="26.48" y="129.5" ></text>
</g>
<g >
<title>MatCholFctrNum (8,392 us, 0.01%)</title><rect x="350.4" y="151" width="0.2" height="15.0" fill="rgb(0,0,0)" rx="2" ry="2" />
<text  x="353.44" y="161.5" ></text>
</g>
<g >
<title>MatMult (84,253 us, 0.10%)</title><rect x="545.1" y="231" width="1.3" height="15.0" fill="rgb(0,0,0)" rx="2" ry="2" />
<text  x="548.14" y="241.5" ></text>
</g>
<g >
<title>Parloop_Cells_wrap_form00_cell_integral_otherwise (14,401,952 us, 17.76%)</title><rect x="131.7" y="135" width="209.6" height="15.0" fill="rgb(0,0,0)" rx="2" ry="2" />
<text  x="134.70" y="145.5" >Parloop_Cells_wrap_form00..</text>
</g>
<g >
<title>SNESFunctionEval (10,328,730 us, 12.74%)</title><rect x="549.6" y="103" width="150.3" height="15.0" fill="rgb(0,0,0)" rx="2" ry="2" />
<text  x="552.62" y="113.5" >SNESFunctionEval</text>
</g>
<g >
<title>MatZeroInitial (24,541 us, 0.03%)</title><rect x="534.6" y="103" width="0.3" height="15.0" fill="rgb(0,0,0)" rx="2" ry="2" />
<text  x="537.59" y="113.5" ></text>
</g>
<g >
<title>Parloop_Cells_wrap_form00_cell_integral_otherwise (11,424,682 us, 14.09%)</title><rect x="699.9" y="135" width="166.3" height="15.0" fill="rgb(0,0,0)" rx="2" ry="2" />
<text  x="702.95" y="145.5" >Parloop_Cells_wrap_..</text>
</g>
<g >
<title>KSPSolve (200,860 us, 0.25%)</title><rect x="545.1" y="215" width="3.0" height="15.0" fill="rgb(0,0,0)" rx="2" ry="2" />
<text  x="548.14" y="225.5" ></text>
</g>
<g >
<title>CreateSparsity (81,440 us, 0.10%)</title><rect x="533.4" y="103" width="1.2" height="15.0" fill="rgb(0,0,0)" rx="2" ry="2" />
<text  x="536.40" y="113.5" ></text>
</g>
<g >
<title>pyop2.global_kernel.GlobalKernel.compile (10,533,663 us, 12.99%)</title><rect x="356.8" y="151" width="153.3" height="15.0" fill="rgb(0,0,0)" rx="2" ry="2" />
<text  x="359.83" y="161.5" >pyop2.global_kern..</text>
</g>
<g >
<title>firedrake.tsfc_interface.compile_form (1,585,879 us, 1.96%)</title><rect x="510.1" y="119" width="23.1" height="15.0" fill="rgb(0,0,0)" rx="2" ry="2" />
<text  x="513.14" y="129.5" >f..</text>
</g>
<g >
<title>KSPSolve (128,967 us, 0.16%)</title><rect x="540.3" y="215" width="1.9" height="15.0" fill="rgb(0,0,0)" rx="2" ry="2" />
<text  x="543.34" y="225.5" ></text>
</g>
<g >
<title>  SA: smooth (9,503 us, 0.01%)</title><rect x="543.0" y="199" width="0.1" height="15.0" fill="rgb(0,0,0)" rx="2" ry="2" />
<text  x="546.00" y="209.5" ></text>
</g>
<g >
<title>firedrake.assemble.allocate_matrix (64,806 us, 0.08%)</title><rect x="341.3" y="119" width="0.9" height="15.0" fill="rgb(0,0,0)" rx="2" ry="2" />
<text  x="344.31" y="129.5" ></text>
</g>
<g >
<title>KSPSolve (115,325 us, 0.14%)</title><rect x="537.0" y="215" width="1.7" height="15.0" fill="rgb(0,0,0)" rx="2" ry="2" />
<text  x="540.03" y="225.5" ></text>
</g>
<g >
<title>PCApply (888,058 us, 1.10%)</title><rect x="535.7" y="119" width="12.9" height="15.0" fill="rgb(0,0,0)" rx="2" ry="2" />
<text  x="538.68" y="129.5" ></text>
</g>
<g >
<title>firedrake.dmhooks.create_field_decomposition (40,851 us, 0.05%)</title><rect x="549.0" y="119" width="0.6" height="15.0" fill="rgb(0,0,0)" rx="2" ry="2" />
<text  x="552.03" y="129.5" ></text>
</g>
<g >
<title>MatPtAPSymbolic (9,558 us, 0.01%)</title><rect x="544.5" y="199" width="0.2" height="15.0" fill="rgb(0,0,0)" rx="2" ry="2" />
<text  x="547.52" y="209.5" ></text>
</g>
<g >
<title>MatMult (84,050 us, 0.10%)</title><rect x="535.8" y="199" width="1.2" height="15.0" fill="rgb(0,0,0)" rx="2" ry="2" />
<text  x="538.80" y="209.5" ></text>
</g>
<g >
<title>KSPSolve (199,375 us, 0.25%)</title><rect x="535.8" y="183" width="2.9" height="15.0" fill="rgb(0,0,0)" rx="2" ry="2" />
<text  x="538.80" y="193.5" ></text>
</g>
<g >
<title>PCApply (225,163 us, 0.28%)</title><rect x="535.7" y="167" width="3.3" height="15.0" fill="rgb(0,0,0)" rx="2" ry="2" />
<text  x="538.68" y="177.5" ></text>
</g>
<g >
<title>firedrake.tsfc_interface.compile_form (563,006 us, 0.69%)</title><rect x="342.2" y="119" width="8.2" height="15.0" fill="rgb(0,0,0)" rx="2" ry="2" />
<text  x="345.25" y="129.5" ></text>
</g>
<g >
<title>firedrake.functionspacedata.FunctionSpaceData.__init__ (22,262 us, 0.03%)</title><rect x="36.5" y="119" width="0.3" height="15.0" fill="rgb(0,0,0)" rx="2" ry="2" />
<text  x="39.46" y="129.5" ></text>
</g>
<g >
<title>Parloop_Cells_wrap_form0_cell_integral_otherwise (4,517,771 us, 5.57%)</title><rect x="549.6" y="135" width="65.8" height="15.0" fill="rgb(0,0,0)" rx="2" ry="2" />
<text  x="552.62" y="145.5" >Parloo..</text>
</g>
<g >
<title>MatResidual (16,896 us, 0.02%)</title><rect x="538.7" y="183" width="0.3" height="15.0" fill="rgb(0,0,0)" rx="2" ry="2" />
<text  x="541.71" y="193.5" ></text>
</g>
<g >
<title>firedrake.variational_solver.LinearVariationalProblem.__init__ (12,188 us, 0.02%)</title><rect x="533.2" y="71" width="0.2" height="15.0" fill="rgb(0,0,0)" rx="2" ry="2" />
<text  x="536.22" y="81.5" ></text>
</g>
<g >
<title>KSPSolve (240,927 us, 0.30%)</title><rect x="539.0" y="151" width="3.5" height="15.0" fill="rgb(0,0,0)" rx="2" ry="2" />
<text  x="541.95" y="161.5" ></text>
</g>
<g >
<title>firedrake.formmanipulation.ExtractSubBlock.split (9,291 us, 0.01%)</title><rect x="1189.9" y="151" width="0.1" height="15.0" fill="rgb(0,0,0)" rx="2" ry="2" />
<text  x="1192.86" y="161.5" ></text>
</g>
<g >
<title>firedrake.extrusion_utils.make_extruded_coords (923,351 us, 1.14%)</title><rect x="23.0" y="87" width="13.5" height="15.0" fill="rgb(0,0,0)" rx="2" ry="2" />
<text  x="26.02" y="97.5" ></text>
</g>
<g >
<title>MatSOR (116,607 us, 0.14%)</title><rect x="546.4" y="279" width="1.7" height="15.0" fill="rgb(0,0,0)" rx="2" ry="2" />
<text  x="549.36" y="289.5" ></text>
</g>
<g >
<title>PCApply (115,325 us, 0.14%)</title><rect x="537.0" y="231" width="1.7" height="15.0" fill="rgb(0,0,0)" rx="2" ry="2" />
<text  x="540.03" y="241.5" ></text>
</g>
<g >
<title>PCSetUp (8,392 us, 0.01%)</title><rect x="350.4" y="135" width="0.2" height="15.0" fill="rgb(0,0,0)" rx="2" ry="2" />
<text  x="353.44" y="145.5" ></text>
</g>
<g >
<title>PCApply (115,325 us, 0.14%)</title><rect x="537.0" y="199" width="1.7" height="15.0" fill="rgb(0,0,0)" rx="2" ry="2" />
<text  x="540.03" y="209.5" ></text>
</g>
<g >
<title>firedrake.variational_solver.NonlinearVariationalProblem.__init__ (12,188 us, 0.02%)</title><rect x="533.2" y="87" width="0.2" height="15.0" fill="rgb(0,0,0)" rx="2" ry="2" />
<text  x="536.22" y="97.5" ></text>
</g>
<g >
<title>  Graph (20,355 us, 0.03%)</title><rect x="542.6" y="199" width="0.3" height="15.0" fill="rgb(0,0,0)" rx="2" ry="2" />
<text  x="545.58" y="209.5" ></text>
</g>
<g >
<title>Parloop_set_#x7f0e4384cd30_wrap_expression_kernel (362,739 us, 0.45%)</title><rect x="64.4" y="135" width="5.3" height="15.0" fill="rgb(0,0,0)" rx="2" ry="2" />
<text  x="67.45" y="145.5" ></text>
</g>
<g >
<title>MatTrnMatMultSym (8,396 us, 0.01%)</title><rect x="542.5" y="215" width="0.1" height="15.0" fill="rgb(0,0,0)" rx="2" ry="2" />
<text  x="545.46" y="225.5" ></text>
</g>
<g >
<title>pyop2.global_kernel.GlobalKernel.compile (14,386,745 us, 17.74%)</title><rect x="131.9" y="151" width="209.4" height="15.0" fill="rgb(0,0,0)" rx="2" ry="2" />
<text  x="134.92" y="161.5" >pyop2.global_kernel.Globa..</text>
</g>
<g >
<title>GAMG: createProl (46,839 us, 0.06%)</title><rect x="542.5" y="167" width="0.6" height="15.0" fill="rgb(0,0,0)" rx="2" ry="2" />
<text  x="545.46" y="177.5" ></text>
</g>
<g >
<title>MatPtAPNumeric (27,064 us, 0.03%)</title><rect x="543.6" y="199" width="0.4" height="15.0" fill="rgb(0,0,0)" rx="2" ry="2" />
<text  x="546.59" y="209.5" ></text>
</g>
<g >
<title>ParLoopExecute (10,533,663 us, 12.99%)</title><rect x="356.8" y="119" width="153.3" height="15.0" fill="rgb(0,0,0)" rx="2" ry="2" />
<text  x="359.83" y="129.5" >ParLoopExecute</text>
</g>
<g >
<title>PCGAMG Gal l01 (50,965 us, 0.06%)</title><rect x="543.6" y="183" width="0.7" height="15.0" fill="rgb(0,0,0)" rx="2" ry="2" />
<text  x="546.59" y="193.5" ></text>
</g>
<g >
<title>GAMG: partLevel (104,389 us, 0.13%)</title><rect x="543.1" y="167" width="1.6" height="15.0" fill="rgb(0,0,0)" rx="2" ry="2" />
<text  x="546.14" y="177.5" ></text>
</g>
<g >
<title>PCApply (116,607 us, 0.14%)</title><rect x="546.4" y="231" width="1.7" height="15.0" fill="rgb(0,0,0)" rx="2" ry="2" />
<text  x="549.36" y="241.5" ></text>
</g>
<g >
<title>PCGAMG Gal l00 (31,129 us, 0.04%)</title><rect x="543.1" y="183" width="0.5" height="15.0" fill="rgb(0,0,0)" rx="2" ry="2" />
<text  x="546.14" y="193.5" ></text>
</g>
<g >
<title>firedrake.assemble_expressions.evaluate_expression (765,078 us, 0.94%)</title><rect x="58.9" y="103" width="11.1" height="15.0" fill="rgb(0,0,0)" rx="2" ry="2" />
<text  x="61.86" y="113.5" ></text>
</g>
<g >
<title>MatCreateSubMats (13,310 us, 0.02%)</title><rect x="548.8" y="119" width="0.2" height="15.0" fill="rgb(0,0,0)" rx="2" ry="2" />
<text  x="551.83" y="129.5" ></text>
</g>
<g >
<title>MatResidual (16,863 us, 0.02%)</title><rect x="542.2" y="183" width="0.3" height="15.0" fill="rgb(0,0,0)" rx="2" ry="2" />
<text  x="545.21" y="193.5" ></text>
</g>
<g >
<title>PCGAMG Squ l00 (8,396 us, 0.01%)</title><rect x="542.5" y="199" width="0.1" height="15.0" fill="rgb(0,0,0)" rx="2" ry="2" />
<text  x="545.46" y="209.5" ></text>
</g>
<g >
<title>firedrake.assemble.assemble (12,119,542 us, 14.95%)</title><rect x="356.8" y="103" width="176.4" height="15.0" fill="rgb(0,0,0)" rx="2" ry="2" />
<text  x="359.83" y="113.5" >firedrake.assemble.a..</text>
</g>
<g >
<title>firedrake.tsfc_interface.compile_form (1,443,872 us, 1.78%)</title><rect x="678.9" y="119" width="21.0" height="15.0" fill="rgb(0,0,0)" rx="2" ry="2" />
<text  x="681.93" y="129.5" ></text>
</g>
<g >
<title>PCApply (116,607 us, 0.14%)</title><rect x="546.4" y="263" width="1.7" height="15.0" fill="rgb(0,0,0)" rx="2" ry="2" />
<text  x="549.36" y="273.5" ></text>
</g>
<g >
<title>KSPSolve (225,163 us, 0.28%)</title><rect x="535.7" y="151" width="3.3" height="15.0" fill="rgb(0,0,0)" rx="2" ry="2" />
<text  x="538.68" y="161.5" ></text>
</g>
<g >
<title>firedrake.linear_solver.LinearSolver.solve (8,392 us, 0.01%)</title><rect x="350.4" y="103" width="0.2" height="15.0" fill="rgb(0,0,0)" rx="2" ry="2" />
<text  x="353.44" y="113.5" ></text>
</g>
<g >
<title>MatZeroInitial (16,191 us, 0.02%)</title><rect x="342.0" y="135" width="0.2" height="15.0" fill="rgb(0,0,0)" rx="2" ry="2" />
<text  x="345.01" y="145.5" ></text>
</g>
<g >
<title>MatPtAPSymbolic (23,901 us, 0.03%)</title><rect x="544.0" y="199" width="0.3" height="15.0" fill="rgb(0,0,0)" rx="2" ry="2" />
<text  x="546.99" y="209.5" ></text>
</g>
<g >
<title>KSPGMRESOrthog (8,583 us, 0.01%)</title><rect x="534.9" y="119" width="0.2" height="15.0" fill="rgb(0,0,0)" rx="2" ry="2" />
<text  x="537.94" y="129.5" ></text>
</g>
<g >
<title>firedrake.assemble_expressions.assemble_expression (765,078 us, 0.94%)</title><rect x="58.9" y="87" width="11.1" height="15.0" fill="rgb(0,0,0)" rx="2" ry="2" />
<text  x="61.86" y="97.5" ></text>
</g>
<g >
<title>MatSOR (115,325 us, 0.14%)</title><rect x="537.0" y="247" width="1.7" height="15.0" fill="rgb(0,0,0)" rx="2" ry="2" />
<text  x="540.03" y="257.5" ></text>
</g>
<g >
<title>firedrake.function.Function.project (19,708,746 us, 24.31%)</title><rect x="70.0" y="71" width="286.8" height="15.0" fill="rgb(0,0,0)" rx="2" ry="2" />
<text  x="72.99" y="81.5" >firedrake.function.Function.project</text>
</g>
<g >
<title>firedrake.variational_solver.NonlinearVariationalSolver.solve (45,008,361 us, 55.51%)</title><rect x="534.9" y="71" width="655.1" height="15.0" fill="rgb(0,0,0)" rx="2" ry="2" />
<text  x="537.94" y="81.5" >firedrake.variational_solver.NonlinearVariationalSolver.solve</text>
</g>
</g>
</svg>
