<?xml version="1.0" standalone="no"?>
<!DOCTYPE svg PUBLIC "-//W3C//DTD SVG 1.1//EN" "http://www.w3.org/Graphics/SVG/1.1/DTD/svg11.dtd">
<svg version="1.1" width="1200" height="299" onload="init(evt)" viewBox="0 0 1200 299" xmlns="http://www.w3.org/2000/svg" xmlns:xlink="http://www.w3.org/1999/xlink">
<!-- Flame graph stack visualization. See https://github.com/brendangregg/FlameGraph for latest version, and http://www.brendangregg.com/flamegraphs.html for examples. -->
<!-- NOTES:  -->
<defs>
	<linearGradient id="background" y1="0" y2="1" x1="0" x2="0" >
		<stop stop-color="#eeeeee" offset="5%" />
		<stop stop-color="#eeeeb0" offset="95%" />
	</linearGradient>
</defs>
<style type="text/css">
	text { font-family:Verdana; font-size:13px; fill:rgb(0,0,0); }
	#search, #ignorecase { opacity:0.1; cursor:pointer; }
	#search:hover, #search.show, #ignorecase:hover, #ignorecase.show { opacity:1; }
	#subtitle { text-anchor:middle; font-color:rgb(160,160,160); }
	#title { text-anchor:middle; font-size:18px}
	#unzoom { cursor:pointer; }
	#frames > *:hover { stroke:black; stroke-width:0.5; cursor:pointer; }
	.hide { display:none; }
	.parent { opacity:0.5; }
</style>
<script type="text/ecmascript">
<![CDATA[
	"use strict";
	var details, searchbtn, unzoombtn, matchedtxt, svg, searching, currentSearchTerm, ignorecase, ignorecaseBtn;
	function init(evt) {
		details = document.getElementById("details").firstChild;
		searchbtn = document.getElementById("search");
		ignorecaseBtn = document.getElementById("ignorecase");
		unzoombtn = document.getElementById("unzoom");
		matchedtxt = document.getElementById("matched");
		svg = document.getElementsByTagName("svg")[0];
		searching = 0;
		currentSearchTerm = null;

		// use GET parameters to restore a flamegraphs state.
		var params = get_params();
		if (params.x && params.y)
			zoom(find_group(document.querySelector('[x="' + params.x + '"][y="' + params.y + '"]')));
                if (params.s) search(params.s);
	}

	// event listeners
	window.addEventListener("click", function(e) {
		var target = find_group(e.target);
		if (target) {
			if (target.nodeName == "a") {
				if (e.ctrlKey === false) return;
				e.preventDefault();
			}
			if (target.classList.contains("parent")) unzoom();
			zoom(target);
			if (!document.querySelector('.parent')) {
				clearzoom();
				return;
			}

			// set parameters for zoom state
			var el = target.querySelector("rect");
			if (el && el.attributes && el.attributes.y && el.attributes._orig_x) {
				var params = get_params()
				params.x = el.attributes._orig_x.value;
				params.y = el.attributes.y.value;
				history.replaceState(null, null, parse_params(params));
			}
		}
		else if (e.target.id == "unzoom") clearzoom();
		else if (e.target.id == "search") search_prompt();
		else if (e.target.id == "ignorecase") toggle_ignorecase();
	}, false)

	// mouse-over for info
	// show
	window.addEventListener("mouseover", function(e) {
		var target = find_group(e.target);
		if (target) details.nodeValue = "Function: " + g_to_text(target);
	}, false)

	// clear
	window.addEventListener("mouseout", function(e) {
		var target = find_group(e.target);
		if (target) details.nodeValue = ' ';
	}, false)

	// ctrl-F for search
	// ctrl-I to toggle case-sensitive search
	window.addEventListener("keydown",function (e) {
		if (e.keyCode === 114 || (e.ctrlKey && e.keyCode === 70)) {
			e.preventDefault();
			search_prompt();
		}
		else if (e.ctrlKey && e.keyCode === 73) {
			e.preventDefault();
			toggle_ignorecase();
		}
	}, false)

	// functions
	function get_params() {
		var params = {};
		var paramsarr = window.location.search.substr(1).split('&');
		for (var i = 0; i < paramsarr.length; ++i) {
			var tmp = paramsarr[i].split("=");
			if (!tmp[0] || !tmp[1]) continue;
			params[tmp[0]]  = decodeURIComponent(tmp[1]);
		}
		return params;
	}
	function parse_params(params) {
		var uri = "?";
		for (var key in params) {
			uri += key + '=' + encodeURIComponent(params[key]) + '&';
		}
		if (uri.slice(-1) == "&")
			uri = uri.substring(0, uri.length - 1);
		if (uri == '?')
			uri = window.location.href.split('?')[0];
		return uri;
	}
	function find_child(node, selector) {
		var children = node.querySelectorAll(selector);
		if (children.length) return children[0];
	}
	function find_group(node) {
		var parent = node.parentElement;
		if (!parent) return;
		if (parent.id == "frames") return node;
		return find_group(parent);
	}
	function orig_save(e, attr, val) {
		if (e.attributes["_orig_" + attr] != undefined) return;
		if (e.attributes[attr] == undefined) return;
		if (val == undefined) val = e.attributes[attr].value;
		e.setAttribute("_orig_" + attr, val);
	}
	function orig_load(e, attr) {
		if (e.attributes["_orig_"+attr] == undefined) return;
		e.attributes[attr].value = e.attributes["_orig_" + attr].value;
		e.removeAttribute("_orig_"+attr);
	}
	function g_to_text(e) {
		var text = find_child(e, "title").firstChild.nodeValue;
		return (text)
	}
	function g_to_func(e) {
		var func = g_to_text(e);
		// if there's any manipulation we want to do to the function
		// name before it's searched, do it here before returning.
		return (func);
	}
	function update_text(e) {
		var r = find_child(e, "rect");
		var t = find_child(e, "text");
		var w = parseFloat(r.attributes.width.value) -3;
		var txt = find_child(e, "title").textContent.replace(/\([^(]*\)$/,"");
		t.attributes.x.value = parseFloat(r.attributes.x.value) + 3;

		// Smaller than this size won't fit anything
		if (w < 2 * 13 * 0.59) {
			t.textContent = "";
			return;
		}

		t.textContent = txt;
		// Fit in full text width
		if (/^ *$/.test(txt) || t.getSubStringLength(0, txt.length) < w)
			return;

		for (var x = txt.length - 2; x > 0; x--) {
			if (t.getSubStringLength(0, x + 2) <= w) {
				t.textContent = txt.substring(0, x) + "..";
				return;
			}
		}
		t.textContent = "";
	}

	// zoom
	function zoom_reset(e) {
		if (e.attributes != undefined) {
			orig_load(e, "x");
			orig_load(e, "width");
		}
		if (e.childNodes == undefined) return;
		for (var i = 0, c = e.childNodes; i < c.length; i++) {
			zoom_reset(c[i]);
		}
	}
	function zoom_child(e, x, ratio) {
		if (e.attributes != undefined) {
			if (e.attributes.x != undefined) {
				orig_save(e, "x");
				e.attributes.x.value = (parseFloat(e.attributes.x.value) - x - 10) * ratio + 10;
				if (e.tagName == "text")
					e.attributes.x.value = find_child(e.parentNode, "rect[x]").attributes.x.value + 3;
			}
			if (e.attributes.width != undefined) {
				orig_save(e, "width");
				e.attributes.width.value = parseFloat(e.attributes.width.value) * ratio;
			}
		}

		if (e.childNodes == undefined) return;
		for (var i = 0, c = e.childNodes; i < c.length; i++) {
			zoom_child(c[i], x - 10, ratio);
		}
	}
	function zoom_parent(e) {
		if (e.attributes) {
			if (e.attributes.x != undefined) {
				orig_save(e, "x");
				e.attributes.x.value = 10;
			}
			if (e.attributes.width != undefined) {
				orig_save(e, "width");
				e.attributes.width.value = parseInt(svg.width.baseVal.value) - (10 * 2);
			}
		}
		if (e.childNodes == undefined) return;
		for (var i = 0, c = e.childNodes; i < c.length; i++) {
			zoom_parent(c[i]);
		}
	}
	function zoom(node) {
		var attr = find_child(node, "rect").attributes;
		var width = parseFloat(attr.width.value);
		var xmin = parseFloat(attr.x.value);
		var xmax = parseFloat(xmin + width);
		var ymin = parseFloat(attr.y.value);
		var ratio = (svg.width.baseVal.value - 2 * 10) / width;

		// XXX: Workaround for JavaScript float issues (fix me)
		var fudge = 0.0001;

		unzoombtn.classList.remove("hide");

		var el = document.getElementById("frames").children;
		for (var i = 0; i < el.length; i++) {
			var e = el[i];
			var a = find_child(e, "rect").attributes;
			var ex = parseFloat(a.x.value);
			var ew = parseFloat(a.width.value);
			var upstack;
			// Is it an ancestor
			if (1 == 0) {
				upstack = parseFloat(a.y.value) > ymin;
			} else {
				upstack = parseFloat(a.y.value) < ymin;
			}
			if (upstack) {
				// Direct ancestor
				if (ex <= xmin && (ex+ew+fudge) >= xmax) {
					e.classList.add("parent");
					zoom_parent(e);
					update_text(e);
				}
				// not in current path
				else
					e.classList.add("hide");
			}
			// Children maybe
			else {
				// no common path
				if (ex < xmin || ex + fudge >= xmax) {
					e.classList.add("hide");
				}
				else {
					zoom_child(e, xmin, ratio);
					update_text(e);
				}
			}
		}
		search();
	}
	function unzoom() {
		unzoombtn.classList.add("hide");
		var el = document.getElementById("frames").children;
		for(var i = 0; i < el.length; i++) {
			el[i].classList.remove("parent");
			el[i].classList.remove("hide");
			zoom_reset(el[i]);
			update_text(el[i]);
		}
		search();
	}
	function clearzoom() {
		unzoom();

		// remove zoom state
		var params = get_params();
		if (params.x) delete params.x;
		if (params.y) delete params.y;
		history.replaceState(null, null, parse_params(params));
	}

	// search
	function toggle_ignorecase() {
		ignorecase = !ignorecase;
		if (ignorecase) {
			ignorecaseBtn.classList.add("show");
		} else {
			ignorecaseBtn.classList.remove("show");
		}
		reset_search();
		search();
	}
	function reset_search() {
		var el = document.querySelectorAll("#frames rect");
		for (var i = 0; i < el.length; i++) {
			orig_load(el[i], "fill")
		}
		var params = get_params();
		delete params.s;
		history.replaceState(null, null, parse_params(params));
	}
	function search_prompt() {
		if (!searching) {
			var term = prompt("Enter a search term (regexp " +
			    "allowed, eg: ^ext4_)"
			    + (ignorecase ? ", ignoring case" : "")
			    + "\nPress Ctrl-i to toggle case sensitivity", "");
			if (term != null) search(term);
		} else {
			reset_search();
			searching = 0;
			currentSearchTerm = null;
			searchbtn.classList.remove("show");
			searchbtn.firstChild.nodeValue = "Search"
			matchedtxt.classList.add("hide");
			matchedtxt.firstChild.nodeValue = ""
		}
	}
	function search(term) {
		if (term) currentSearchTerm = term;

		var re = new RegExp(currentSearchTerm, ignorecase ? 'i' : '');
		var el = document.getElementById("frames").children;
		var matches = new Object();
		var maxwidth = 0;
		for (var i = 0; i < el.length; i++) {
			var e = el[i];
			var func = g_to_func(e);
			var rect = find_child(e, "rect");
			if (func == null || rect == null)
				continue;

			// Save max width. Only works as we have a root frame
			var w = parseFloat(rect.attributes.width.value);
			if (w > maxwidth)
				maxwidth = w;

			if (func.match(re)) {
				// highlight
				var x = parseFloat(rect.attributes.x.value);
				orig_save(rect, "fill");
				rect.attributes.fill.value = "rgb(230,0,230)";

				// remember matches
				if (matches[x] == undefined) {
					matches[x] = w;
				} else {
					if (w > matches[x]) {
						// overwrite with parent
						matches[x] = w;
					}
				}
				searching = 1;
			}
		}
		if (!searching)
			return;
		var params = get_params();
		params.s = currentSearchTerm;
		history.replaceState(null, null, parse_params(params));

		searchbtn.classList.add("show");
		searchbtn.firstChild.nodeValue = "Reset Search";

		// calculate percent matched, excluding vertical overlap
		var count = 0;
		var lastx = -1;
		var lastw = 0;
		var keys = Array();
		for (k in matches) {
			if (matches.hasOwnProperty(k))
				keys.push(k);
		}
		// sort the matched frames by their x location
		// ascending, then width descending
		keys.sort(function(a, b){
			return a - b;
		});
		// Step through frames saving only the biggest bottom-up frames
		// thanks to the sort order. This relies on the tree property
		// where children are always smaller than their parents.
		var fudge = 0.0001;	// JavaScript floating point
		for (var k in keys) {
			var x = parseFloat(keys[k]);
			var w = matches[keys[k]];
			if (x >= lastx + lastw - fudge) {
				count += w;
				lastx = x;
				lastw = w;
			}
		}
		// display matched percent
		matchedtxt.classList.remove("hide");
		var pct = 100 * count / maxwidth;
		if (pct != 100) pct = pct.toFixed(1)
		matchedtxt.firstChild.nodeValue = "Matched: " + pct + "%";
	}
]]>
</script>
<rect x="0.0" y="0" width="1200.0" height="299.0" fill="url(#background)"  />
<text id="title" x="600.00" y="26" >Firedrake example</text>
<text id="details" x="10.00" y="281" > </text>
<text id="unzoom" x="10.00" y="26" class="hide">Reset Zoom</text>
<text id="search" x="1090.00" y="26" >Search</text>
<text id="ignorecase" x="1174.00" y="26" >ic</text>
<text id="matched" x="1090.00" y="281" > </text>
<g id="frames">
<g >
<title>KSPSolve_FS_0 (9,404,945 us, 11.81%)</title><rect x="185.4" y="135" width="139.3" height="15.0" fill="rgb(0,0,0)" rx="2" ry="2" />
<text  x="188.43" y="145.5" >KSPSolve_FS_0</text>
</g>
<g >
<title>firedrake.assemble.allocate_matrix (7,238,102 us, 9.09%)</title><rect x="59.5" y="87" width="107.2" height="15.0" fill="rgb(0,0,0)" rx="2" ry="2" />
<text  x="62.50" y="97.5" >firedrake.a..</text>
</g>
<g >
<title>firedrake.functionspaceimpl.FunctionSpace.__init__ (23,868 us, 0.03%)</title><rect x="36.4" y="87" width="0.3" height="15.0" fill="rgb(0,0,0)" rx="2" ry="2" />
<text  x="39.39" y="97.5" ></text>
</g>
<g >
<title>MatMult (3,807,039 us, 4.78%)</title><rect x="324.7" y="199" width="56.4" height="15.0" fill="rgb(0,0,0)" rx="2" ry="2" />
<text  x="327.74" y="209.5" >MatMult</text>
</g>
<g >
<title>  Graph (903,246 us, 1.13%)</title><rect x="479.8" y="199" width="13.4" height="15.0" fill="rgb(0,0,0)" rx="2" ry="2" />
<text  x="482.83" y="209.5" ></text>
</g>
<g >
<title>PCSetUp (2,133,187 us, 2.68%)</title><rect x="550.3" y="103" width="31.6" height="15.0" fill="rgb(0,0,0)" rx="2" ry="2" />
<text  x="553.26" y="113.5" >PC..</text>
</g>
<g >
<title>PCApply (4,780,357 us, 6.00%)</title><rect x="241.8" y="199" width="70.8" height="15.0" fill="rgb(0,0,0)" rx="2" ry="2" />
<text  x="244.83" y="209.5" >PCApply</text>
</g>
<g >
<title>MatILUFactorSym (53,738 us, 0.07%)</title><rect x="525.5" y="183" width="0.8" height="15.0" fill="rgb(0,0,0)" rx="2" ry="2" />
<text  x="528.52" y="193.5" ></text>
</g>
<g >
<title>PCSetUp (3,807,204 us, 4.78%)</title><rect x="464.0" y="151" width="56.4" height="15.0" fill="rgb(0,0,0)" rx="2" ry="2" />
<text  x="466.97" y="161.5" >PCSetUp</text>
</g>
<g >
<title>SNESJacobianEval (31,560,546 us, 39.62%)</title><rect x="722.5" y="103" width="467.5" height="15.0" fill="rgb(0,0,0)" rx="2" ry="2" />
<text  x="725.51" y="113.5" >SNESJacobianEval</text>
</g>
<g >
<title>MatAssemblyEnd (11,216 us, 0.01%)</title><rect x="571.1" y="135" width="0.1" height="15.0" fill="rgb(0,0,0)" rx="2" ry="2" />
<text  x="574.08" y="145.5" ></text>
</g>
<g >
<title>Log_Event_form0_cell_integral_otherwise (14,178 us, 0.02%)</title><rect x="581.9" y="151" width="0.2" height="15.0" fill="rgb(0,0,0)" rx="2" ry="2" />
<text  x="584.86" y="161.5" ></text>
</g>
<g >
<title>ParLoopExecute (29,813,123 us, 37.42%)</title><rect x="723.5" y="119" width="441.6" height="15.0" fill="rgb(0,0,0)" rx="2" ry="2" />
<text  x="726.48" y="129.5" >ParLoopExecute</text>
</g>
<g >
<title>firedrake (79,663,030 us, 100.00%)</title><rect x="10.0" y="55" width="1180.0" height="15.0" fill="rgb(0,0,0)" rx="2" ry="2" />
<text  x="13.00" y="65.5" >firedrake</text>
</g>
<g >
<title>MatResidual (757,592 us, 0.95%)</title><rect x="313.5" y="183" width="11.2" height="15.0" fill="rgb(0,0,0)" rx="2" ry="2" />
<text  x="316.52" y="193.5" ></text>
</g>
<g >
<title>MatAssemblyEnd (41,762 us, 0.05%)</title><rect x="562.3" y="135" width="0.6" height="15.0" fill="rgb(0,0,0)" rx="2" ry="2" />
<text  x="565.33" y="145.5" ></text>
</g>
<g >
<title>Parloop_Cells_wrap_form00_cell_integral_otherwise (15,076,588 us, 18.93%)</title><rect x="723.5" y="135" width="223.3" height="15.0" fill="rgb(0,0,0)" rx="2" ry="2" />
<text  x="726.48" y="145.5" >Parloop_Cells_wrap_form00_c..</text>
</g>
<g >
<title>firedrake.solving_utils._SNESContext.split (27,068 us, 0.03%)</title><rect x="581.5" y="135" width="0.4" height="15.0" fill="rgb(0,0,0)" rx="2" ry="2" />
<text  x="584.46" y="145.5" ></text>
</g>
<g >
<title>PCApply (20,449 us, 0.03%)</title><rect x="501.8" y="215" width="0.3" height="15.0" fill="rgb(0,0,0)" rx="2" ry="2" />
<text  x="504.84" y="225.5" ></text>
</g>
<g >
<title>MatTrnMatMultSym (1,045,908 us, 1.31%)</title><rect x="464.3" y="215" width="15.5" height="15.0" fill="rgb(0,0,0)" rx="2" ry="2" />
<text  x="467.33" y="225.5" ></text>
</g>
<g >
<title>KSPGMRESOrthog (32,009 us, 0.04%)</title><rect x="167.1" y="119" width="0.5" height="15.0" fill="rgb(0,0,0)" rx="2" ry="2" />
<text  x="170.12" y="129.5" ></text>
</g>
<g >
<title>MatAssemblyEnd (38,176 us, 0.05%)</title><rect x="489.8" y="215" width="0.6" height="15.0" fill="rgb(0,0,0)" rx="2" ry="2" />
<text  x="492.84" y="225.5" ></text>
</g>
<g >
<title>Parloop_Cells_wrap_form1_cell_integral_otherwise (4,152,637 us, 5.21%)</title><rect x="642.5" y="135" width="61.5" height="15.0" fill="rgb(0,0,0)" rx="2" ry="2" />
<text  x="645.53" y="145.5" >Parloo..</text>
</g>
<g >
<title>PCApply (24,629,916 us, 30.92%)</title><rect x="185.4" y="119" width="364.9" height="15.0" fill="rgb(0,0,0)" rx="2" ry="2" />
<text  x="188.43" y="129.5" >PCApply</text>
</g>
<g >
<title>VecMDot (19,935 us, 0.03%)</title><rect x="167.3" y="135" width="0.3" height="15.0" fill="rgb(0,0,0)" rx="2" ry="2" />
<text  x="170.30" y="145.5" ></text>
</g>
<g >
<title>MatSOR (4,763,072 us, 5.98%)</title><rect x="241.8" y="247" width="70.6" height="15.0" fill="rgb(0,0,0)" rx="2" ry="2" />
<text  x="244.83" y="257.5" >MatSOR</text>
</g>
<g >
<title>VecAYPX (19,409 us, 0.02%)</title><rect x="312.9" y="199" width="0.3" height="15.0" fill="rgb(0,0,0)" rx="2" ry="2" />
<text  x="315.86" y="209.5" ></text>
</g>
<g >
<title>MatPtAPNumeric (308,706 us, 0.39%)</title><rect x="502.1" y="199" width="4.6" height="15.0" fill="rgb(0,0,0)" rx="2" ry="2" />
<text  x="505.15" y="209.5" ></text>
</g>
<g >
<title>MatMult (757,592 us, 0.95%)</title><rect x="313.5" y="199" width="11.2" height="15.0" fill="rgb(0,0,0)" rx="2" ry="2" />
<text  x="316.52" y="209.5" ></text>
</g>
<g >
<title>MatMult (1,204,505 us, 1.51%)</title><rect x="167.6" y="119" width="17.8" height="15.0" fill="rgb(0,0,0)" rx="2" ry="2" />
<text  x="170.59" y="129.5" ></text>
</g>
<g >
<title>MatAssemblyEnd (8,815 us, 0.01%)</title><rect x="479.7" y="231" width="0.1" height="15.0" fill="rgb(0,0,0)" rx="2" ry="2" />
<text  x="482.70" y="241.5" ></text>
</g>
<g >
<title>firedrake.variational_solver.NonlinearVariationalSolver.__init__ (7,238,102 us, 9.09%)</title><rect x="59.5" y="71" width="107.2" height="15.0" fill="rgb(0,0,0)" rx="2" ry="2" />
<text  x="62.50" y="81.5" >firedrake.v..</text>
</g>
<g >
<title>VecSet (16,670 us, 0.02%)</title><rect x="451.6" y="231" width="0.3" height="15.0" fill="rgb(0,0,0)" rx="2" ry="2" />
<text  x="454.64" y="241.5" ></text>
</g>
<g >
<title>VecAYPX (19,369 us, 0.02%)</title><rect x="452.1" y="199" width="0.3" height="15.0" fill="rgb(0,0,0)" rx="2" ry="2" />
<text  x="455.12" y="209.5" ></text>
</g>
<g >
<title>pyop2.global_kernel.GlobalKernel.compile (859,411 us, 1.08%)</title><rect x="23.7" y="135" width="12.7" height="15.0" fill="rgb(0,0,0)" rx="2" ry="2" />
<text  x="26.66" y="145.5" ></text>
</g>
<g >
<title>firedrake.formmanipulation.ExtractSubBlock.split (9,116 us, 0.01%)</title><rect x="1189.9" y="151" width="0.1" height="15.0" fill="rgb(0,0,0)" rx="2" ry="2" />
<text  x="1192.86" y="161.5" ></text>
</g>
<g >
<title>PCGAMG Gal l02 (20,529 us, 0.03%)</title><rect x="509.3" y="183" width="0.4" height="15.0" fill="rgb(0,0,0)" rx="2" ry="2" />
<text  x="512.35" y="193.5" ></text>
</g>
<g >
<title>KSPSolve (401,121 us, 0.50%)</title><rect x="496.2" y="199" width="5.9" height="15.0" fill="rgb(0,0,0)" rx="2" ry="2" />
<text  x="499.20" y="209.5" ></text>
</g>
<g >
<title>MatPtAPNumeric (27,382 us, 0.03%)</title><rect x="508.6" y="199" width="0.4" height="15.0" fill="rgb(0,0,0)" rx="2" ry="2" />
<text  x="511.60" y="209.5" ></text>
</g>
<g >
<title>ParLoopExecute (859,411 us, 1.08%)</title><rect x="23.7" y="103" width="12.7" height="15.0" fill="rgb(0,0,0)" rx="2" ry="2" />
<text  x="26.66" y="113.5" ></text>
</g>
<g >
<title>MatMatMultSym (670,522 us, 0.84%)</title><rect x="571.2" y="119" width="10.0" height="15.0" fill="rgb(0,0,0)" rx="2" ry="2" />
<text  x="574.24" y="129.5" ></text>
</g>
<g >
<title>SNESSolve (69,082,898 us, 86.72%)</title><rect x="166.7" y="87" width="1023.3" height="15.0" fill="rgb(0,0,0)" rx="2" ry="2" />
<text  x="169.72" y="97.5" >SNESSolve</text>
</g>
<g >
<title>PCApply (347,902 us, 0.44%)</title><rect x="520.4" y="199" width="5.1" height="15.0" fill="rgb(0,0,0)" rx="2" ry="2" />
<text  x="523.37" y="209.5" ></text>
</g>
<g >
<title>all (79,663,030 us, 100%)</title><rect x="10.0" y="39" width="1180.0" height="15.0" fill="rgb(0,0,0)" rx="2" ry="2" />
<text  x="13.00" y="49.5" ></text>
</g>
<g >
<title>firedrake.functionspacedata.FunctionSpaceData.__init__ (23,868 us, 0.03%)</title><rect x="36.4" y="119" width="0.3" height="15.0" fill="rgb(0,0,0)" rx="2" ry="2" />
<text  x="39.39" y="129.5" ></text>
</g>
<g >
<title>KSPSolve (347,902 us, 0.44%)</title><rect x="520.4" y="183" width="5.1" height="15.0" fill="rgb(0,0,0)" rx="2" ry="2" />
<text  x="523.37" y="193.5" ></text>
</g>
<g >
<title>Parloop_Cells_wrap_form0_cell_integral_otherwise (4,096,257 us, 5.14%)</title><rect x="581.9" y="135" width="60.6" height="15.0" fill="rgb(0,0,0)" rx="2" ry="2" />
<text  x="584.86" y="145.5" >Parlo..</text>
</g>
<g >
<title>pyop2.global_kernel.GlobalKernel.compile (6,954,628 us, 8.73%)</title><rect x="951.3" y="151" width="103.0" height="15.0" fill="rgb(0,0,0)" rx="2" ry="2" />
<text  x="954.33" y="161.5" >pyop2.globa..</text>
</g>
<g >
<title>MatConvert (35,277 us, 0.04%)</title><rect x="555.1" y="119" width="0.5" height="15.0" fill="rgb(0,0,0)" rx="2" ry="2" />
<text  x="558.10" y="129.5" ></text>
</g>
<g >
<title>MatCreateSubMats (494,578 us, 0.62%)</title><rect x="555.6" y="119" width="7.3" height="15.0" fill="rgb(0,0,0)" rx="2" ry="2" />
<text  x="558.62" y="129.5" ></text>
</g>
<g >
<title>MatSOR (4,760,296 us, 5.98%)</title><rect x="381.1" y="247" width="70.5" height="15.0" fill="rgb(0,0,0)" rx="2" ry="2" />
<text  x="384.13" y="257.5" >MatSOR</text>
</g>
<g >
<title>GAMG: createProl (2,576,952 us, 3.23%)</title><rect x="464.0" y="167" width="38.1" height="15.0" fill="rgb(0,0,0)" rx="2" ry="2" />
<text  x="466.97" y="177.5" >GA..</text>
</g>
<g >
<title>Parloop_Cells_wrap_form01_cell_integral_otherwise (7,260,402 us, 9.11%)</title><rect x="946.8" y="135" width="107.5" height="15.0" fill="rgb(0,0,0)" rx="2" ry="2" />
<text  x="949.80" y="145.5" >Parloop_Cell..</text>
</g>
<g >
<title>KSPSolve (9,404,945 us, 11.81%)</title><rect x="185.4" y="151" width="139.3" height="15.0" fill="rgb(0,0,0)" rx="2" ry="2" />
<text  x="188.43" y="161.5" >KSPSolve</text>
</g>
<g >
<title>  MIS/Agg (13,469 us, 0.02%)</title><rect x="464.1" y="199" width="0.2" height="15.0" fill="rgb(0,0,0)" rx="2" ry="2" />
<text  x="467.14" y="209.5" ></text>
</g>
<g >
<title>MatPtAPNumeric (11,744 us, 0.01%)</title><rect x="509.3" y="199" width="0.2" height="15.0" fill="rgb(0,0,0)" rx="2" ry="2" />
<text  x="512.35" y="209.5" ></text>
</g>
<g >
<title>MatZeroEntries (65,537 us, 0.08%)</title><rect x="722.5" y="119" width="1.0" height="15.0" fill="rgb(0,0,0)" rx="2" ry="2" />
<text  x="725.51" y="129.5" ></text>
</g>
<g >
<title>MatCoarsen (13,469 us, 0.02%)</title><rect x="464.1" y="215" width="0.2" height="15.0" fill="rgb(0,0,0)" rx="2" ry="2" />
<text  x="467.14" y="225.5" ></text>
</g>
<g >
<title>MatAXPY (304,280 us, 0.38%)</title><rect x="550.6" y="119" width="4.5" height="15.0" fill="rgb(0,0,0)" rx="2" ry="2" />
<text  x="553.59" y="129.5" ></text>
</g>
<g >
<title>PCGAMGPOpt_AGG (603,492 us, 0.76%)</title><rect x="493.2" y="183" width="8.9" height="15.0" fill="rgb(0,0,0)" rx="2" ry="2" />
<text  x="496.21" y="193.5" ></text>
</g>
<g >
<title>firedrake.functionspacedata.get_shared_data (23,868 us, 0.03%)</title><rect x="36.4" y="103" width="0.3" height="15.0" fill="rgb(0,0,0)" rx="2" ry="2" />
<text  x="39.39" y="113.5" ></text>
</g>
<g >
<title>PCApply (4,776,966 us, 6.00%)</title><rect x="381.1" y="199" width="70.8" height="15.0" fill="rgb(0,0,0)" rx="2" ry="2" />
<text  x="384.13" y="209.5" >PCApply</text>
</g>
<g >
<title>VecAXPBYCZ (15,122 us, 0.02%)</title><rect x="451.9" y="199" width="0.2" height="15.0" fill="rgb(0,0,0)" rx="2" ry="2" />
<text  x="454.89" y="209.5" ></text>
</g>
<g >
<title>MatPtAPSymbolic (8,785 us, 0.01%)</title><rect x="509.5" y="199" width="0.2" height="15.0" fill="rgb(0,0,0)" rx="2" ry="2" />
<text  x="512.52" y="209.5" ></text>
</g>
<g >
<title>VecScatterBegin (13,523 us, 0.02%)</title><rect x="550.1" y="135" width="0.2" height="15.0" fill="rgb(0,0,0)" rx="2" ry="2" />
<text  x="553.06" y="145.5" ></text>
</g>
<g >
<title>MatLUFactorNum (1,194,865 us, 1.50%)</title><rect x="526.3" y="183" width="17.7" height="15.0" fill="rgb(0,0,0)" rx="2" ry="2" />
<text  x="529.32" y="193.5" ></text>
</g>
<g >
<title>VecSet (17,285 us, 0.02%)</title><rect x="312.4" y="231" width="0.2" height="15.0" fill="rgb(0,0,0)" rx="2" ry="2" />
<text  x="315.39" y="241.5" ></text>
</g>
<g >
<title>MatMatMultSym (86,097 us, 0.11%)</title><rect x="494.9" y="231" width="1.3" height="15.0" fill="rgb(0,0,0)" rx="2" ry="2" />
<text  x="497.93" y="241.5" ></text>
</g>
<g >
<title>firedrake.variational_solver.NonlinearVariationalProblem.__init__ (11,080 us, 0.01%)</title><rect x="59.3" y="87" width="0.2" height="15.0" fill="rgb(0,0,0)" rx="2" ry="2" />
<text  x="62.34" y="97.5" ></text>
</g>
<g >
<title>firedrake.formmanipulation.split_form (9,116 us, 0.01%)</title><rect x="1189.9" y="135" width="0.1" height="15.0" fill="rgb(0,0,0)" rx="2" ry="2" />
<text  x="1192.86" y="145.5" ></text>
</g>
<g >
<title>MatMult (325,934 us, 0.41%)</title><rect x="509.8" y="199" width="4.8" height="15.0" fill="rgb(0,0,0)" rx="2" ry="2" />
<text  x="512.81" y="209.5" ></text>
</g>
<g >
<title>KSPSolve (347,902 us, 0.44%)</title><rect x="520.4" y="151" width="5.1" height="15.0" fill="rgb(0,0,0)" rx="2" ry="2" />
<text  x="523.37" y="161.5" ></text>
</g>
<g >
<title>VecMAXPY (12,074 us, 0.02%)</title><rect x="167.1" y="135" width="0.2" height="15.0" fill="rgb(0,0,0)" rx="2" ry="2" />
<text  x="170.12" y="145.5" ></text>
</g>
<g >
<title>MatMultTranspose (14,268 us, 0.02%)</title><rect x="452.5" y="183" width="0.2" height="15.0" fill="rgb(0,0,0)" rx="2" ry="2" />
<text  x="455.54" y="193.5" ></text>
</g>
<g >
<title>MatMatMultNum (89,363 us, 0.11%)</title><rect x="493.6" y="231" width="1.3" height="15.0" fill="rgb(0,0,0)" rx="2" ry="2" />
<text  x="496.61" y="241.5" ></text>
</g>
<g >
<title>MatMatMultNum (560,171 us, 0.70%)</title><rect x="562.9" y="119" width="8.3" height="15.0" fill="rgb(0,0,0)" rx="2" ry="2" />
<text  x="565.95" y="129.5" ></text>
</g>
<g >
<title>Log_Event_form10_cell_integral_otherwise (45,480 us, 0.06%)</title><rect x="1057.7" y="151" width="0.7" height="15.0" fill="rgb(0,0,0)" rx="2" ry="2" />
<text  x="1060.75" y="161.5" ></text>
</g>
<g >
<title>PCSetUpOnBlocks (1,248,603 us, 1.57%)</title><rect x="525.5" y="151" width="18.5" height="15.0" fill="rgb(0,0,0)" rx="2" ry="2" />
<text  x="528.52" y="161.5" ></text>
</g>
<g >
<title>KSPSolve_FS_Schu (1,596,505 us, 2.00%)</title><rect x="520.4" y="135" width="23.6" height="15.0" fill="rgb(0,0,0)" rx="2" ry="2" />
<text  x="523.37" y="145.5" >K..</text>
</g>
<g >
<title>KSPSolve (8,622,468 us, 10.82%)</title><rect x="185.4" y="183" width="127.8" height="15.0" fill="rgb(0,0,0)" rx="2" ry="2" />
<text  x="188.43" y="193.5" >KSPSolve</text>
</g>
<g >
<title>pyop2.global_kernel.GlobalKernel.compile (4,082,079 us, 5.12%)</title><rect x="582.1" y="151" width="60.4" height="15.0" fill="rgb(0,0,0)" rx="2" ry="2" />
<text  x="585.07" y="161.5" >pyop2..</text>
</g>
<g >
<title>MatMultTranspose (15,765 us, 0.02%)</title><rect x="313.3" y="183" width="0.2" height="15.0" fill="rgb(0,0,0)" rx="2" ry="2" />
<text  x="316.29" y="193.5" ></text>
</g>
<g >
<title>firedrake.tsfc_interface.compile_form (1,246,867 us, 1.57%)</title><rect x="704.0" y="119" width="18.5" height="15.0" fill="rgb(0,0,0)" rx="2" ry="2" />
<text  x="707.04" y="129.5" ></text>
</g>
<g >
<title>KSPSolve (8,618,496 us, 10.82%)</title><rect x="324.7" y="183" width="127.7" height="15.0" fill="rgb(0,0,0)" rx="2" ry="2" />
<text  x="327.74" y="193.5" >KSPSolve</text>
</g>
<g >
<title>KSPSolve (9,399,749 us, 11.80%)</title><rect x="324.7" y="151" width="139.3" height="15.0" fill="rgb(0,0,0)" rx="2" ry="2" />
<text  x="327.74" y="161.5" >KSPSolve</text>
</g>
<g >
<title>firedrake.formmanipulation.ExtractSubBlock.split (8,115 us, 0.01%)</title><rect x="581.5" y="151" width="0.1" height="15.0" fill="rgb(0,0,0)" rx="2" ry="2" />
<text  x="584.46" y="161.5" ></text>
</g>
<g >
<title>Parloop_Cells_wrap_pyop2_kernel_uniform_extrusion (859,411 us, 1.08%)</title><rect x="23.7" y="119" width="12.7" height="15.0" fill="rgb(0,0,0)" rx="2" ry="2" />
<text  x="26.66" y="129.5" ></text>
</g>
<g >
<title>PCApply (4,760,296 us, 5.98%)</title><rect x="381.1" y="231" width="70.5" height="15.0" fill="rgb(0,0,0)" rx="2" ry="2" />
<text  x="384.13" y="241.5" >PCApply</text>
</g>
<g >
<title>MatAssemblyEnd (11,755 us, 0.01%)</title><rect x="554.9" y="135" width="0.2" height="15.0" fill="rgb(0,0,0)" rx="2" ry="2" />
<text  x="557.92" y="145.5" ></text>
</g>
<g >
<title>firedrake.variational_solver.LinearVariationalProblem.__init__ (11,080 us, 0.01%)</title><rect x="59.3" y="71" width="0.2" height="15.0" fill="rgb(0,0,0)" rx="2" ry="2" />
<text  x="62.34" y="81.5" ></text>
</g>
<g >
<title>CreateFunctionSpace (23,868 us, 0.03%)</title><rect x="36.4" y="71" width="0.3" height="15.0" fill="rgb(0,0,0)" rx="2" ry="2" />
<text  x="39.39" y="81.5" ></text>
</g>
<g >
<title>VecAXPBYCZ (14,942 us, 0.02%)</title><rect x="312.6" y="199" width="0.3" height="15.0" fill="rgb(0,0,0)" rx="2" ry="2" />
<text  x="315.64" y="209.5" ></text>
</g>
<g >
<title>GAMG: partLevel (506,692 us, 0.64%)</title><rect x="502.1" y="167" width="7.6" height="15.0" fill="rgb(0,0,0)" rx="2" ry="2" />
<text  x="505.15" y="177.5" ></text>
</g>
<g >
<title>Log_Event_form01_cell_integral_otherwise (98,651 us, 0.12%)</title><rect x="949.9" y="151" width="1.4" height="15.0" fill="rgb(0,0,0)" rx="2" ry="2" />
<text  x="952.87" y="161.5" ></text>
</g>
<g >
<title>CreateExtMesh (900,674 us, 1.13%)</title><rect x="23.0" y="71" width="13.4" height="15.0" fill="rgb(0,0,0)" rx="2" ry="2" />
<text  x="26.04" y="81.5" ></text>
</g>
<g >
<title>PCApply (4,763,072 us, 5.98%)</title><rect x="241.8" y="231" width="70.6" height="15.0" fill="rgb(0,0,0)" rx="2" ry="2" />
<text  x="244.83" y="241.5" >PCApply</text>
</g>
<g >
<title>Parloop_Cells_wrap_form10_cell_integral_otherwise (7,476,133 us, 9.38%)</title><rect x="1054.3" y="135" width="110.8" height="15.0" fill="rgb(0,0,0)" rx="2" ry="2" />
<text  x="1057.35" y="145.5" >Parloop_Cell..</text>
</g>
<g >
<title>KSPSolve (4,780,357 us, 6.00%)</title><rect x="241.8" y="215" width="70.8" height="15.0" fill="rgb(0,0,0)" rx="2" ry="2" />
<text  x="244.83" y="225.5" >KSPSolve</text>
</g>
<g >
<title>pyop2.global_kernel.GlobalKernel.compile (4,152,637 us, 5.21%)</title><rect x="642.5" y="151" width="61.5" height="15.0" fill="rgb(0,0,0)" rx="2" ry="2" />
<text  x="645.53" y="161.5" >pyop2...</text>
</g>
<g >
<title>PCApply (9,404,945 us, 11.81%)</title><rect x="185.4" y="167" width="139.3" height="15.0" fill="rgb(0,0,0)" rx="2" ry="2" />
<text  x="188.43" y="177.5" >PCApply</text>
</g>
<g >
<title>firedrake.__init__ (1,525,748 us, 1.92%)</title><rect x="36.7" y="71" width="22.6" height="15.0" fill="rgb(0,0,0)" rx="2" ry="2" />
<text  x="39.74" y="81.5" ></text>
</g>
<g >
<title>firedrake.extrusion_utils.make_extruded_coords (890,510 us, 1.12%)</title><rect x="23.2" y="87" width="13.2" height="15.0" fill="rgb(0,0,0)" rx="2" ry="2" />
<text  x="26.20" y="97.5" ></text>
</g>
<g >
<title>MatZeroInitial (1,802,543 us, 2.26%)</title><rect x="140.0" y="103" width="26.7" height="15.0" fill="rgb(0,0,0)" rx="2" ry="2" />
<text  x="143.02" y="113.5" >M..</text>
</g>
<g >
<title>pyop2.global_kernel.GlobalKernel.compile (14,492,017 us, 18.19%)</title><rect x="732.1" y="151" width="214.7" height="15.0" fill="rgb(0,0,0)" rx="2" ry="2" />
<text  x="735.14" y="161.5" >pyop2.global_kernel.Globa..</text>
</g>
<g >
<title>MatMultAdd (9,084 us, 0.01%)</title><rect x="452.4" y="183" width="0.1" height="15.0" fill="rgb(0,0,0)" rx="2" ry="2" />
<text  x="455.40" y="193.5" ></text>
</g>
<g >
<title>PCGAMG Gal l00 (435,700 us, 0.55%)</title><rect x="502.1" y="183" width="6.5" height="15.0" fill="rgb(0,0,0)" rx="2" ry="2" />
<text  x="505.15" y="193.5" ></text>
</g>
<g >
<title>PCGAMG Squ l00 (1,045,908 us, 1.31%)</title><rect x="464.3" y="199" width="15.5" height="15.0" fill="rgb(0,0,0)" rx="2" ry="2" />
<text  x="467.33" y="209.5" ></text>
</g>
<g >
<title>KSPSetUp (723,560 us, 0.91%)</title><rect x="509.7" y="167" width="10.7" height="15.0" fill="rgb(0,0,0)" rx="2" ry="2" />
<text  x="512.65" y="177.5" ></text>
</g>
<g >
<title>FunctionSpaceData: CreateElement (10,894 us, 0.01%)</title><rect x="36.6" y="135" width="0.1" height="15.0" fill="rgb(0,0,0)" rx="2" ry="2" />
<text  x="39.58" y="145.5" ></text>
</g>
<g >
<title>KSPSolve (25,884,392 us, 32.49%)</title><rect x="166.9" y="103" width="383.4" height="15.0" fill="rgb(0,0,0)" rx="2" ry="2" />
<text  x="169.85" y="113.5" >KSPSolve</text>
</g>
<g >
<title>KSPSolve (4,776,966 us, 6.00%)</title><rect x="381.1" y="215" width="70.8" height="15.0" fill="rgb(0,0,0)" rx="2" ry="2" />
<text  x="384.13" y="225.5" >KSPSolve</text>
</g>
<g >
<title>  SA: smooth (202,371 us, 0.25%)</title><rect x="493.2" y="199" width="3.0" height="15.0" fill="rgb(0,0,0)" rx="2" ry="2" />
<text  x="496.21" y="209.5" ></text>
</g>
<g >
<title>firedrake.ufl_expr.adjoint (18,953 us, 0.02%)</title><rect x="581.6" y="167" width="0.3" height="15.0" fill="rgb(0,0,0)" rx="2" ry="2" />
<text  x="584.58" y="177.5" ></text>
</g>
<g >
<title>PCApply (347,902 us, 0.44%)</title><rect x="520.4" y="167" width="5.1" height="15.0" fill="rgb(0,0,0)" rx="2" ry="2" />
<text  x="523.37" y="177.5" ></text>
</g>
<g >
<title>MatResidual (757,901 us, 0.95%)</title><rect x="452.7" y="183" width="11.3" height="15.0" fill="rgb(0,0,0)" rx="2" ry="2" />
<text  x="455.75" y="193.5" ></text>
</g>
<g >
<title>KSPSolve (386,786 us, 0.49%)</title><rect x="514.6" y="215" width="5.8" height="15.0" fill="rgb(0,0,0)" rx="2" ry="2" />
<text  x="517.64" y="225.5" ></text>
</g>
<g >
<title>CreateSparsity (5,395,583 us, 6.77%)</title><rect x="59.5" y="103" width="79.9" height="15.0" fill="rgb(0,0,0)" rx="2" ry="2" />
<text  x="62.50" y="113.5" >CreateSp..</text>
</g>
<g >
<title>MatScale (62,720 us, 0.08%)</title><rect x="492.3" y="215" width="0.9" height="15.0" fill="rgb(0,0,0)" rx="2" ry="2" />
<text  x="495.28" y="225.5" ></text>
</g>
<g >
<title>firedrake.ufl_expr.adjoint (11,080 us, 0.01%)</title><rect x="59.3" y="103" width="0.2" height="15.0" fill="rgb(0,0,0)" rx="2" ry="2" />
<text  x="62.34" y="113.5" ></text>
</g>
<g >
<title>pyop2.global_kernel.GlobalKernel.compile (7,201,074 us, 9.04%)</title><rect x="1058.4" y="151" width="106.7" height="15.0" fill="rgb(0,0,0)" rx="2" ry="2" />
<text  x="1061.42" y="161.5" >pyop2.globa..</text>
</g>
<g >
<title>firedrake.tsfc_interface.compile_form (1,681,886 us, 2.11%)</title><rect x="1165.1" y="119" width="24.9" height="15.0" fill="rgb(0,0,0)" rx="2" ry="2" />
<text  x="1168.09" y="129.5" >f..</text>
</g>
<g >
<title>KSPSolve (723,560 us, 0.91%)</title><rect x="509.7" y="183" width="10.7" height="15.0" fill="rgb(0,0,0)" rx="2" ry="2" />
<text  x="512.65" y="193.5" ></text>
</g>
<g >
<title>MatMult (368,634 us, 0.46%)</title><rect x="496.4" y="215" width="5.4" height="15.0" fill="rgb(0,0,0)" rx="2" ry="2" />
<text  x="499.38" y="225.5" ></text>
</g>
<g >
<title>PCSetUp (1,248,603 us, 1.57%)</title><rect x="525.5" y="167" width="18.5" height="15.0" fill="rgb(0,0,0)" rx="2" ry="2" />
<text  x="528.52" y="177.5" ></text>
</g>
<g >
<title>MatScale (18,967 us, 0.02%)</title><rect x="581.2" y="119" width="0.3" height="15.0" fill="rgb(0,0,0)" rx="2" ry="2" />
<text  x="584.18" y="129.5" ></text>
</g>
<g >
<title>PCApply (386,786 us, 0.49%)</title><rect x="514.6" y="199" width="5.8" height="15.0" fill="rgb(0,0,0)" rx="2" ry="2" />
<text  x="517.64" y="209.5" ></text>
</g>
<g >
<title>PCApply (386,786 us, 0.49%)</title><rect x="514.6" y="231" width="5.8" height="15.0" fill="rgb(0,0,0)" rx="2" ry="2" />
<text  x="517.64" y="241.5" ></text>
</g>
<g >
<title>PCGAMGGraph_AGG (903,246 us, 1.13%)</title><rect x="479.8" y="183" width="13.4" height="15.0" fill="rgb(0,0,0)" rx="2" ry="2" />
<text  x="482.83" y="193.5" ></text>
</g>
<g >
<title>MatPtAPSymbolic (23,081 us, 0.03%)</title><rect x="509.0" y="199" width="0.3" height="15.0" fill="rgb(0,0,0)" rx="2" ry="2" />
<text  x="512.01" y="209.5" ></text>
</g>
<g >
<title>MatSOR (386,786 us, 0.49%)</title><rect x="514.6" y="247" width="5.8" height="15.0" fill="rgb(0,0,0)" rx="2" ry="2" />
<text  x="517.64" y="257.5" ></text>
</g>
<g >
<title>firedrake.dmhooks.create_field_decomposition (27,068 us, 0.03%)</title><rect x="581.5" y="119" width="0.4" height="15.0" fill="rgb(0,0,0)" rx="2" ry="2" />
<text  x="584.46" y="129.5" ></text>
</g>
<g >
<title>MatConvert (126,635 us, 0.16%)</title><rect x="490.4" y="215" width="1.9" height="15.0" fill="rgb(0,0,0)" rx="2" ry="2" />
<text  x="493.40" y="225.5" ></text>
</g>
<g >
<title>MatMult (3,807,760 us, 4.78%)</title><rect x="185.4" y="199" width="56.4" height="15.0" fill="rgb(0,0,0)" rx="2" ry="2" />
<text  x="188.43" y="209.5" >MatMult</text>
</g>
<g >
<title>MatMult (757,901 us, 0.95%)</title><rect x="452.7" y="199" width="11.3" height="15.0" fill="rgb(0,0,0)" rx="2" ry="2" />
<text  x="455.75" y="209.5" ></text>
</g>
<g >
<title>MatMultAdd (9,120 us, 0.01%)</title><rect x="313.2" y="183" width="0.1" height="15.0" fill="rgb(0,0,0)" rx="2" ry="2" />
<text  x="316.15" y="193.5" ></text>
</g>
<g >
<title>PCGAMGCoarse_AGG (1,070,214 us, 1.34%)</title><rect x="464.0" y="183" width="15.8" height="15.0" fill="rgb(0,0,0)" rx="2" ry="2" />
<text  x="466.97" y="193.5" ></text>
</g>
<g >
<title>KSPSolve_FS_Low (13,206,953 us, 16.58%)</title><rect x="324.7" y="135" width="195.7" height="15.0" fill="rgb(0,0,0)" rx="2" ry="2" />
<text  x="327.74" y="145.5" >KSPSolve_FS_Low</text>
</g>
<g >
<title>ParLoopExecute (8,248,894 us, 10.35%)</title><rect x="581.9" y="119" width="122.1" height="15.0" fill="rgb(0,0,0)" rx="2" ry="2" />
<text  x="584.86" y="129.5" >ParLoopExecute</text>
</g>
<g >
<title>MatMult (407,990 us, 0.51%)</title><rect x="544.0" y="135" width="6.1" height="15.0" fill="rgb(0,0,0)" rx="2" ry="2" />
<text  x="547.02" y="145.5" ></text>
</g>
<g >
<title>firedrake.variational_solver.NonlinearVariationalSolver.solve (69,082,898 us, 86.72%)</title><rect x="166.7" y="71" width="1023.3" height="15.0" fill="rgb(0,0,0)" rx="2" ry="2" />
<text  x="169.72" y="81.5" >firedrake.variational_solver.NonlinearVariationalSolver.solve</text>
</g>
<g >
<title>MatPtAPSymbolic (126,994 us, 0.16%)</title><rect x="506.7" y="199" width="1.9" height="15.0" fill="rgb(0,0,0)" rx="2" ry="2" />
<text  x="509.72" y="209.5" ></text>
</g>
<g >
<title>firedrake.variational_solver.NonlinearVariationalProblem.__init__ (18,953 us, 0.02%)</title><rect x="581.6" y="151" width="0.3" height="15.0" fill="rgb(0,0,0)" rx="2" ry="2" />
<text  x="584.58" y="161.5" ></text>
</g>
<g >
<title>PCApply (9,399,749 us, 11.80%)</title><rect x="324.7" y="167" width="139.3" height="15.0" fill="rgb(0,0,0)" rx="2" ry="2" />
<text  x="327.74" y="177.5" >PCApply</text>
</g>
<g >
<title>SNESFunctionEval (9,495,761 us, 11.92%)</title><rect x="581.9" y="103" width="140.6" height="15.0" fill="rgb(0,0,0)" rx="2" ry="2" />
<text  x="584.86" y="113.5" >SNESFunctionEval</text>
</g>
<g >
<title>Log_Event_form00_cell_integral_otherwise (165,010 us, 0.21%)</title><rect x="729.7" y="151" width="2.4" height="15.0" fill="rgb(0,0,0)" rx="2" ry="2" />
<text  x="732.70" y="161.5" ></text>
</g>
<g >
<title>PCGAMG Opt l00 (175,460 us, 0.22%)</title><rect x="493.6" y="215" width="2.6" height="15.0" fill="rgb(0,0,0)" rx="2" ry="2" />
<text  x="496.61" y="225.5" ></text>
</g>
<g >
<title>PCGAMG Gal l01 (50,463 us, 0.06%)</title><rect x="508.6" y="183" width="0.7" height="15.0" fill="rgb(0,0,0)" rx="2" ry="2" />
<text  x="511.60" y="193.5" ></text>
</g>
<g >
<title>MatAssemblyEnd (39,976 us, 0.05%)</title><rect x="139.4" y="103" width="0.6" height="15.0" fill="rgb(0,0,0)" rx="2" ry="2" />
<text  x="142.42" y="113.5" ></text>
</g>
<g >
<title>MatSolve (347,902 us, 0.44%)</title><rect x="520.4" y="215" width="5.1" height="15.0" fill="rgb(0,0,0)" rx="2" ry="2" />
<text  x="523.37" y="225.5" ></text>
</g>
</g>
</svg>
