<?xml version="1.0" standalone="no"?>
<!DOCTYPE svg PUBLIC "-//W3C//DTD SVG 1.1//EN" "http://www.w3.org/Graphics/SVG/1.1/DTD/svg11.dtd">
<svg version="1.1" width="1200" height="331" onload="init(evt)" viewBox="0 0 1200 331" xmlns="http://www.w3.org/2000/svg" xmlns:xlink="http://www.w3.org/1999/xlink">
<!-- Flame graph stack visualization. See https://github.com/brendangregg/FlameGraph for latest version, and http://www.brendangregg.com/flamegraphs.html for examples. -->
<!-- NOTES:  -->
<defs>
	<linearGradient id="background" y1="0" y2="1" x1="0" x2="0" >
		<stop stop-color="#eeeeee" offset="5%" />
		<stop stop-color="#eeeeb0" offset="95%" />
	</linearGradient>
</defs>
<style type="text/css">
	text { font-family:Verdana; font-size:13px; fill:rgb(0,0,0); }
	#search, #ignorecase { opacity:0.1; cursor:pointer; }
	#search:hover, #search.show, #ignorecase:hover, #ignorecase.show { opacity:1; }
	#subtitle { text-anchor:middle; font-color:rgb(160,160,160); }
	#title { text-anchor:middle; font-size:18px}
	#unzoom { cursor:pointer; }
	#frames > *:hover { stroke:black; stroke-width:0.5; cursor:pointer; }
	.hide { display:none; }
	.parent { opacity:0.5; }
</style>
<script type="text/ecmascript">
<![CDATA[
	"use strict";
	var details, searchbtn, unzoombtn, matchedtxt, svg, searching, currentSearchTerm, ignorecase, ignorecaseBtn;
	function init(evt) {
		details = document.getElementById("details").firstChild;
		searchbtn = document.getElementById("search");
		ignorecaseBtn = document.getElementById("ignorecase");
		unzoombtn = document.getElementById("unzoom");
		matchedtxt = document.getElementById("matched");
		svg = document.getElementsByTagName("svg")[0];
		searching = 0;
		currentSearchTerm = null;

		// use GET parameters to restore a flamegraphs state.
		var params = get_params();
		if (params.x && params.y)
			zoom(find_group(document.querySelector('[x="' + params.x + '"][y="' + params.y + '"]')));
                if (params.s) search(params.s);
	}

	// event listeners
	window.addEventListener("click", function(e) {
		var target = find_group(e.target);
		if (target) {
			if (target.nodeName == "a") {
				if (e.ctrlKey === false) return;
				e.preventDefault();
			}
			if (target.classList.contains("parent")) unzoom();
			zoom(target);
			if (!document.querySelector('.parent')) {
				clearzoom();
				return;
			}

			// set parameters for zoom state
			var el = target.querySelector("rect");
			if (el && el.attributes && el.attributes.y && el.attributes._orig_x) {
				var params = get_params()
				params.x = el.attributes._orig_x.value;
				params.y = el.attributes.y.value;
				history.replaceState(null, null, parse_params(params));
			}
		}
		else if (e.target.id == "unzoom") clearzoom();
		else if (e.target.id == "search") search_prompt();
		else if (e.target.id == "ignorecase") toggle_ignorecase();
	}, false)

	// mouse-over for info
	// show
	window.addEventListener("mouseover", function(e) {
		var target = find_group(e.target);
		if (target) details.nodeValue = "Function: " + g_to_text(target);
	}, false)

	// clear
	window.addEventListener("mouseout", function(e) {
		var target = find_group(e.target);
		if (target) details.nodeValue = ' ';
	}, false)

	// ctrl-F for search
	// ctrl-I to toggle case-sensitive search
	window.addEventListener("keydown",function (e) {
		if (e.keyCode === 114 || (e.ctrlKey && e.keyCode === 70)) {
			e.preventDefault();
			search_prompt();
		}
		else if (e.ctrlKey && e.keyCode === 73) {
			e.preventDefault();
			toggle_ignorecase();
		}
	}, false)

	// functions
	function get_params() {
		var params = {};
		var paramsarr = window.location.search.substr(1).split('&');
		for (var i = 0; i < paramsarr.length; ++i) {
			var tmp = paramsarr[i].split("=");
			if (!tmp[0] || !tmp[1]) continue;
			params[tmp[0]]  = decodeURIComponent(tmp[1]);
		}
		return params;
	}
	function parse_params(params) {
		var uri = "?";
		for (var key in params) {
			uri += key + '=' + encodeURIComponent(params[key]) + '&';
		}
		if (uri.slice(-1) == "&")
			uri = uri.substring(0, uri.length - 1);
		if (uri == '?')
			uri = window.location.href.split('?')[0];
		return uri;
	}
	function find_child(node, selector) {
		var children = node.querySelectorAll(selector);
		if (children.length) return children[0];
	}
	function find_group(node) {
		var parent = node.parentElement;
		if (!parent) return;
		if (parent.id == "frames") return node;
		return find_group(parent);
	}
	function orig_save(e, attr, val) {
		if (e.attributes["_orig_" + attr] != undefined) return;
		if (e.attributes[attr] == undefined) return;
		if (val == undefined) val = e.attributes[attr].value;
		e.setAttribute("_orig_" + attr, val);
	}
	function orig_load(e, attr) {
		if (e.attributes["_orig_"+attr] == undefined) return;
		e.attributes[attr].value = e.attributes["_orig_" + attr].value;
		e.removeAttribute("_orig_"+attr);
	}
	function g_to_text(e) {
		var text = find_child(e, "title").firstChild.nodeValue;
		return (text)
	}
	function g_to_func(e) {
		var func = g_to_text(e);
		// if there's any manipulation we want to do to the function
		// name before it's searched, do it here before returning.
		return (func);
	}
	function update_text(e) {
		var r = find_child(e, "rect");
		var t = find_child(e, "text");
		var w = parseFloat(r.attributes.width.value) -3;
		var txt = find_child(e, "title").textContent.replace(/\([^(]*\)$/,"");
		t.attributes.x.value = parseFloat(r.attributes.x.value) + 3;

		// Smaller than this size won't fit anything
		if (w < 2 * 13 * 0.59) {
			t.textContent = "";
			return;
		}

		t.textContent = txt;
		// Fit in full text width
		if (/^ *$/.test(txt) || t.getSubStringLength(0, txt.length) < w)
			return;

		for (var x = txt.length - 2; x > 0; x--) {
			if (t.getSubStringLength(0, x + 2) <= w) {
				t.textContent = txt.substring(0, x) + "..";
				return;
			}
		}
		t.textContent = "";
	}

	// zoom
	function zoom_reset(e) {
		if (e.attributes != undefined) {
			orig_load(e, "x");
			orig_load(e, "width");
		}
		if (e.childNodes == undefined) return;
		for (var i = 0, c = e.childNodes; i < c.length; i++) {
			zoom_reset(c[i]);
		}
	}
	function zoom_child(e, x, ratio) {
		if (e.attributes != undefined) {
			if (e.attributes.x != undefined) {
				orig_save(e, "x");
				e.attributes.x.value = (parseFloat(e.attributes.x.value) - x - 10) * ratio + 10;
				if (e.tagName == "text")
					e.attributes.x.value = find_child(e.parentNode, "rect[x]").attributes.x.value + 3;
			}
			if (e.attributes.width != undefined) {
				orig_save(e, "width");
				e.attributes.width.value = parseFloat(e.attributes.width.value) * ratio;
			}
		}

		if (e.childNodes == undefined) return;
		for (var i = 0, c = e.childNodes; i < c.length; i++) {
			zoom_child(c[i], x - 10, ratio);
		}
	}
	function zoom_parent(e) {
		if (e.attributes) {
			if (e.attributes.x != undefined) {
				orig_save(e, "x");
				e.attributes.x.value = 10;
			}
			if (e.attributes.width != undefined) {
				orig_save(e, "width");
				e.attributes.width.value = parseInt(svg.width.baseVal.value) - (10 * 2);
			}
		}
		if (e.childNodes == undefined) return;
		for (var i = 0, c = e.childNodes; i < c.length; i++) {
			zoom_parent(c[i]);
		}
	}
	function zoom(node) {
		var attr = find_child(node, "rect").attributes;
		var width = parseFloat(attr.width.value);
		var xmin = parseFloat(attr.x.value);
		var xmax = parseFloat(xmin + width);
		var ymin = parseFloat(attr.y.value);
		var ratio = (svg.width.baseVal.value - 2 * 10) / width;

		// XXX: Workaround for JavaScript float issues (fix me)
		var fudge = 0.0001;

		unzoombtn.classList.remove("hide");

		var el = document.getElementById("frames").children;
		for (var i = 0; i < el.length; i++) {
			var e = el[i];
			var a = find_child(e, "rect").attributes;
			var ex = parseFloat(a.x.value);
			var ew = parseFloat(a.width.value);
			var upstack;
			// Is it an ancestor
			if (1 == 0) {
				upstack = parseFloat(a.y.value) > ymin;
			} else {
				upstack = parseFloat(a.y.value) < ymin;
			}
			if (upstack) {
				// Direct ancestor
				if (ex <= xmin && (ex+ew+fudge) >= xmax) {
					e.classList.add("parent");
					zoom_parent(e);
					update_text(e);
				}
				// not in current path
				else
					e.classList.add("hide");
			}
			// Children maybe
			else {
				// no common path
				if (ex < xmin || ex + fudge >= xmax) {
					e.classList.add("hide");
				}
				else {
					zoom_child(e, xmin, ratio);
					update_text(e);
				}
			}
		}
		search();
	}
	function unzoom() {
		unzoombtn.classList.add("hide");
		var el = document.getElementById("frames").children;
		for(var i = 0; i < el.length; i++) {
			el[i].classList.remove("parent");
			el[i].classList.remove("hide");
			zoom_reset(el[i]);
			update_text(el[i]);
		}
		search();
	}
	function clearzoom() {
		unzoom();

		// remove zoom state
		var params = get_params();
		if (params.x) delete params.x;
		if (params.y) delete params.y;
		history.replaceState(null, null, parse_params(params));
	}

	// search
	function toggle_ignorecase() {
		ignorecase = !ignorecase;
		if (ignorecase) {
			ignorecaseBtn.classList.add("show");
		} else {
			ignorecaseBtn.classList.remove("show");
		}
		reset_search();
		search();
	}
	function reset_search() {
		var el = document.querySelectorAll("#frames rect");
		for (var i = 0; i < el.length; i++) {
			orig_load(el[i], "fill")
		}
		var params = get_params();
		delete params.s;
		history.replaceState(null, null, parse_params(params));
	}
	function search_prompt() {
		if (!searching) {
			var term = prompt("Enter a search term (regexp " +
			    "allowed, eg: ^ext4_)"
			    + (ignorecase ? ", ignoring case" : "")
			    + "\nPress Ctrl-i to toggle case sensitivity", "");
			if (term != null) search(term);
		} else {
			reset_search();
			searching = 0;
			currentSearchTerm = null;
			searchbtn.classList.remove("show");
			searchbtn.firstChild.nodeValue = "Search"
			matchedtxt.classList.add("hide");
			matchedtxt.firstChild.nodeValue = ""
		}
	}
	function search(term) {
		if (term) currentSearchTerm = term;

		var re = new RegExp(currentSearchTerm, ignorecase ? 'i' : '');
		var el = document.getElementById("frames").children;
		var matches = new Object();
		var maxwidth = 0;
		for (var i = 0; i < el.length; i++) {
			var e = el[i];
			var func = g_to_func(e);
			var rect = find_child(e, "rect");
			if (func == null || rect == null)
				continue;

			// Save max width. Only works as we have a root frame
			var w = parseFloat(rect.attributes.width.value);
			if (w > maxwidth)
				maxwidth = w;

			if (func.match(re)) {
				// highlight
				var x = parseFloat(rect.attributes.x.value);
				orig_save(rect, "fill");
				rect.attributes.fill.value = "rgb(230,0,230)";

				// remember matches
				if (matches[x] == undefined) {
					matches[x] = w;
				} else {
					if (w > matches[x]) {
						// overwrite with parent
						matches[x] = w;
					}
				}
				searching = 1;
			}
		}
		if (!searching)
			return;
		var params = get_params();
		params.s = currentSearchTerm;
		history.replaceState(null, null, parse_params(params));

		searchbtn.classList.add("show");
		searchbtn.firstChild.nodeValue = "Reset Search";

		// calculate percent matched, excluding vertical overlap
		var count = 0;
		var lastx = -1;
		var lastw = 0;
		var keys = Array();
		for (k in matches) {
			if (matches.hasOwnProperty(k))
				keys.push(k);
		}
		// sort the matched frames by their x location
		// ascending, then width descending
		keys.sort(function(a, b){
			return a - b;
		});
		// Step through frames saving only the biggest bottom-up frames
		// thanks to the sort order. This relies on the tree property
		// where children are always smaller than their parents.
		var fudge = 0.0001;	// JavaScript floating point
		for (var k in keys) {
			var x = parseFloat(keys[k]);
			var w = matches[keys[k]];
			if (x >= lastx + lastw - fudge) {
				count += w;
				lastx = x;
				lastw = w;
			}
		}
		// display matched percent
		matchedtxt.classList.remove("hide");
		var pct = 100 * count / maxwidth;
		if (pct != 100) pct = pct.toFixed(1)
		matchedtxt.firstChild.nodeValue = "Matched: " + pct + "%";
	}
]]>
</script>
<rect x="0.0" y="0" width="1200.0" height="331.0" fill="url(#background)"  />
<text id="title" x="600.00" y="26" >Firedrake example</text>
<text id="details" x="10.00" y="313" > </text>
<text id="unzoom" x="10.00" y="26" class="hide">Reset Zoom</text>
<text id="search" x="1090.00" y="26" >Search</text>
<text id="ignorecase" x="1174.00" y="26" >ic</text>
<text id="matched" x="1090.00" y="313" > </text>
<g id="frames">
<g >
<title>MatSolve (364,184 us, 0.28%)</title><rect x="759.7" y="279" width="3.3" height="15.0" fill="rgb(0,0,0)" rx="2" ry="2" />
<text  x="762.72" y="289.5" ></text>
</g>
<g >
<title>KSPSolve (159,212 us, 0.12%)</title><rect x="765.0" y="215" width="1.5" height="15.0" fill="rgb(0,0,0)" rx="2" ry="2" />
<text  x="768.04" y="225.5" ></text>
</g>
<g >
<title>pyop2.global_kernel.GlobalKernel.compile (393,137 us, 0.30%)</title><rect x="43.9" y="151" width="3.6" height="15.0" fill="rgb(0,0,0)" rx="2" ry="2" />
<text  x="46.89" y="161.5" ></text>
</g>
<g >
<title>MatICCFactorSym (29,654 us, 0.02%)</title><rect x="343.8" y="151" width="0.2" height="15.0" fill="rgb(0,0,0)" rx="2" ry="2" />
<text  x="346.77" y="161.5" ></text>
</g>
<g >
<title>firedrake.tsfc_interface.compile_form (607,397 us, 0.47%)</title><rect x="324.9" y="119" width="5.5" height="15.0" fill="rgb(0,0,0)" rx="2" ry="2" />
<text  x="327.90" y="129.5" ></text>
</g>
<g >
<title>firedrake.__init__ (1,517,583 us, 1.17%)</title><rect x="26.7" y="71" width="13.8" height="15.0" fill="rgb(0,0,0)" rx="2" ry="2" />
<text  x="29.68" y="81.5" ></text>
</g>
<g >
<title>PCApply (1,882,217 us, 1.45%)</title><rect x="668.2" y="231" width="17.2" height="15.0" fill="rgb(0,0,0)" rx="2" ry="2" />
<text  x="671.20" y="241.5" ></text>
</g>
<g >
<title>VecAYPX (14,949 us, 0.01%)</title><rect x="645.9" y="231" width="0.2" height="15.0" fill="rgb(0,0,0)" rx="2" ry="2" />
<text  x="648.92" y="241.5" ></text>
</g>
<g >
<title>Parloop_Cells_wrap_form0_cell_integral_otherwise (4,248,240 us, 3.28%)</title><rect x="790.0" y="135" width="38.8" height="15.0" fill="rgb(0,0,0)" rx="2" ry="2" />
<text  x="793.05" y="145.5" >Par..</text>
</g>
<g >
<title>firedrake.variational_solver.NonlinearVariationalProblem.__init__ (21,125 us, 0.02%)</title><rect x="789.9" y="151" width="0.1" height="15.0" fill="rgb(0,0,0)" rx="2" ry="2" />
<text  x="792.85" y="161.5" ></text>
</g>
<g >
<title>ParLoopExecute (7,816,436 us, 6.04%)</title><rect x="790.0" y="119" width="71.3" height="15.0" fill="rgb(0,0,0)" rx="2" ry="2" />
<text  x="793.05" y="129.5" >ParLoop..</text>
</g>
<g >
<title>PCApply (157,064 us, 0.12%)</title><rect x="331.5" y="167" width="1.4" height="15.0" fill="rgb(0,0,0)" rx="2" ry="2" />
<text  x="334.48" y="177.5" ></text>
</g>
<g >
<title>MatMatMultNum (42,693 us, 0.03%)</title><rect x="753.1" y="231" width="0.4" height="15.0" fill="rgb(0,0,0)" rx="2" ry="2" />
<text  x="756.13" y="241.5" ></text>
</g>
<g >
<title>MatMult (947,344 us, 0.73%)</title><rect x="756.4" y="199" width="8.6" height="15.0" fill="rgb(0,0,0)" rx="2" ry="2" />
<text  x="759.40" y="209.5" ></text>
</g>
<g >
<title>PCApply (803,559 us, 0.62%)</title><rect x="557.3" y="199" width="7.4" height="15.0" fill="rgb(0,0,0)" rx="2" ry="2" />
<text  x="560.32" y="209.5" ></text>
</g>
<g >
<title>SNESFunctionEval (9,096,143 us, 7.03%)</title><rect x="790.0" y="103" width="83.0" height="15.0" fill="rgb(0,0,0)" rx="2" ry="2" />
<text  x="793.05" y="113.5" >SNESFunc..</text>
</g>
<g >
<title>firedrake.tsfc_interface.compile_form (1,279,707 us, 0.99%)</title><rect x="861.3" y="119" width="11.7" height="15.0" fill="rgb(0,0,0)" rx="2" ry="2" />
<text  x="864.32" y="129.5" ></text>
</g>
<g >
<title>MatMult (10,506,395 us, 8.12%)</title><rect x="572.4" y="199" width="95.8" height="15.0" fill="rgb(0,0,0)" rx="2" ry="2" />
<text  x="575.40" y="209.5" >MatMult</text>
</g>
<g >
<title>PCApply (364,184 us, 0.28%)</title><rect x="759.7" y="231" width="3.3" height="15.0" fill="rgb(0,0,0)" rx="2" ry="2" />
<text  x="762.72" y="241.5" ></text>
</g>
<g >
<title>PCGAMG Gal l00 (116,280 us, 0.09%)</title><rect x="755.3" y="183" width="1.1" height="15.0" fill="rgb(0,0,0)" rx="2" ry="2" />
<text  x="758.34" y="193.5" ></text>
</g>
<g >
<title>pyop2.global_kernel.GlobalKernel.compile (369,692 us, 0.29%)</title><rect x="40.5" y="151" width="3.4" height="15.0" fill="rgb(0,0,0)" rx="2" ry="2" />
<text  x="43.52" y="161.5" ></text>
</g>
<g >
<title>firedrake.assemble.assemble (782,754 us, 0.60%)</title><rect x="40.5" y="71" width="7.2" height="15.0" fill="rgb(0,0,0)" rx="2" ry="2" />
<text  x="43.52" y="81.5" ></text>
</g>
<g >
<title>KSPSolve (1,106,556 us, 0.86%)</title><rect x="756.4" y="183" width="10.1" height="15.0" fill="rgb(0,0,0)" rx="2" ry="2" />
<text  x="759.40" y="193.5" ></text>
</g>
<g >
<title>MatMult (363,865 us, 0.28%)</title><rect x="756.4" y="231" width="3.3" height="15.0" fill="rgb(0,0,0)" rx="2" ry="2" />
<text  x="759.40" y="241.5" ></text>
</g>
<g >
<title>pyop2.global_kernel.GlobalKernel.compile (7,954,322 us, 6.15%)</title><rect x="1101.1" y="151" width="72.6" height="15.0" fill="rgb(0,0,0)" rx="2" ry="2" />
<text  x="1104.13" y="161.5" >pyop2.g..</text>
</g>
<g >
<title>firedrake.functionspacedata.FunctionSpaceData.__init__ (23,624 us, 0.02%)</title><rect x="26.5" y="119" width="0.2" height="15.0" fill="rgb(0,0,0)" rx="2" ry="2" />
<text  x="29.47" y="129.5" ></text>
</g>
<g >
<title>Parloop_set_#x7f5d69194af0_wrap_expression_kernel (369,692 us, 0.29%)</title><rect x="40.5" y="135" width="3.4" height="15.0" fill="rgb(0,0,0)" rx="2" ry="2" />
<text  x="43.52" y="145.5" ></text>
</g>
<g >
<title>CreateSparsity (3,702,424 us, 2.86%)</title><rect x="279.8" y="135" width="33.8" height="15.0" fill="rgb(0,0,0)" rx="2" ry="2" />
<text  x="282.81" y="145.5" >Cr..</text>
</g>
<g >
<title>VecMDot (21,829 us, 0.02%)</title><rect x="523.4" y="135" width="0.2" height="15.0" fill="rgb(0,0,0)" rx="2" ry="2" />
<text  x="526.44" y="145.5" ></text>
</g>
<g >
<title>MatScale (19,002 us, 0.01%)</title><rect x="789.7" y="119" width="0.2" height="15.0" fill="rgb(0,0,0)" rx="2" ry="2" />
<text  x="792.68" y="129.5" ></text>
</g>
<g >
<title>MatConvert (35,301 us, 0.03%)</title><rect x="773.5" y="119" width="0.3" height="15.0" fill="rgb(0,0,0)" rx="2" ry="2" />
<text  x="776.52" y="129.5" ></text>
</g>
<g >
<title>MatCreateSubMats (497,773 us, 0.38%)</title><rect x="773.8" y="119" width="4.6" height="15.0" fill="rgb(0,0,0)" rx="2" ry="2" />
<text  x="776.84" y="129.5" ></text>
</g>
<g >
<title>PCApply (803,559 us, 0.62%)</title><rect x="557.3" y="167" width="7.4" height="15.0" fill="rgb(0,0,0)" rx="2" ry="2" />
<text  x="560.32" y="177.5" ></text>
</g>
<g >
<title>firedrake.tsfc_interface.compile_form (447,762 us, 0.35%)</title><rect x="344.0" y="103" width="4.1" height="15.0" fill="rgb(0,0,0)" rx="2" ry="2" />
<text  x="347.04" y="113.5" ></text>
</g>
<g >
<title>firedrake.tsfc_interface.compile_form (1,791,781 us, 1.38%)</title><rect x="1173.7" y="119" width="16.3" height="15.0" fill="rgb(0,0,0)" rx="2" ry="2" />
<text  x="1176.66" y="129.5" ></text>
</g>
<g >
<title>pyop2.global_kernel.GlobalKernel.compile (4,210,644 us, 3.25%)</title><rect x="790.4" y="151" width="38.4" height="15.0" fill="rgb(0,0,0)" rx="2" ry="2" />
<text  x="793.39" y="161.5" >pyo..</text>
</g>
<g >
<title>firedrake.dmhooks.create_field_decomposition (21,125 us, 0.02%)</title><rect x="789.9" y="119" width="0.1" height="15.0" fill="rgb(0,0,0)" rx="2" ry="2" />
<text  x="792.85" y="129.5" ></text>
</g>
<g >
<title>MatMultAdd (27,125 us, 0.02%)</title><rect x="764.8" y="215" width="0.2" height="15.0" fill="rgb(0,0,0)" rx="2" ry="2" />
<text  x="767.79" y="225.5" ></text>
</g>
<g >
<title>GAMG: partLevel (116,280 us, 0.09%)</title><rect x="755.3" y="167" width="1.1" height="15.0" fill="rgb(0,0,0)" rx="2" ry="2" />
<text  x="758.34" y="177.5" ></text>
</g>
<g >
<title>MatMult (1,256,488 us, 0.97%)</title><rect x="523.6" y="119" width="11.5" height="15.0" fill="rgb(0,0,0)" rx="2" ry="2" />
<text  x="526.64" y="129.5" ></text>
</g>
<g >
<title>PCSetUpOnBlocks (1,220,364 us, 0.94%)</title><rect x="332.9" y="119" width="11.1" height="15.0" fill="rgb(0,0,0)" rx="2" ry="2" />
<text  x="335.92" y="129.5" ></text>
</g>
<g >
<title>firedrake.functionspacedata.get_shared_data (23,624 us, 0.02%)</title><rect x="26.5" y="103" width="0.2" height="15.0" fill="rgb(0,0,0)" rx="2" ry="2" />
<text  x="29.47" y="113.5" ></text>
</g>
<g >
<title>ParLoopExecute (762,829 us, 0.59%)</title><rect x="40.5" y="119" width="7.0" height="15.0" fill="rgb(0,0,0)" rx="2" ry="2" />
<text  x="43.52" y="129.5" ></text>
</g>
<g >
<title>Parloop_Cells_wrap_form00_cell_integral_otherwise (20,371,013 us, 15.74%)</title><rect x="94.0" y="135" width="185.8" height="15.0" fill="rgb(0,0,0)" rx="2" ry="2" />
<text  x="97.05" y="145.5" >Parloop_Cells_wrap_for..</text>
</g>
<g >
<title>firedrake.assemble.assemble (25,923,684 us, 20.03%)</title><rect x="94.0" y="103" width="236.4" height="15.0" fill="rgb(0,0,0)" rx="2" ry="2" />
<text  x="97.05" y="113.5" >firedrake.assemble.assemble</text>
</g>
<g >
<title>firedrake.projection.project (32,950,396 us, 25.46%)</title><rect x="47.7" y="87" width="300.4" height="15.0" fill="rgb(0,0,0)" rx="2" ry="2" />
<text  x="50.66" y="97.5" >firedrake.projection.project</text>
</g>
<g >
<title>KSPSolve (1,619,098 us, 1.25%)</title><rect x="685.4" y="215" width="14.7" height="15.0" fill="rgb(0,0,0)" rx="2" ry="2" />
<text  x="688.37" y="225.5" ></text>
</g>
<g >
<title>MatMatMultSym (676,750 us, 0.52%)</title><rect x="783.5" y="119" width="6.2" height="15.0" fill="rgb(0,0,0)" rx="2" ry="2" />
<text  x="786.51" y="129.5" ></text>
</g>
<g >
<title>MatZeroInitial (1,215,869 us, 0.94%)</title><rect x="313.8" y="135" width="11.1" height="15.0" fill="rgb(0,0,0)" rx="2" ry="2" />
<text  x="316.81" y="145.5" ></text>
</g>
<g >
<title>KSPSolve (157,064 us, 0.12%)</title><rect x="331.5" y="151" width="1.4" height="15.0" fill="rgb(0,0,0)" rx="2" ry="2" />
<text  x="334.48" y="161.5" ></text>
</g>
<g >
<title>firedrake.solving_utils._SNESContext.split (21,125 us, 0.02%)</title><rect x="789.9" y="135" width="0.1" height="15.0" fill="rgb(0,0,0)" rx="2" ry="2" />
<text  x="792.85" y="145.5" ></text>
</g>
<g >
<title>MatScale (28,340 us, 0.02%)</title><rect x="752.9" y="215" width="0.2" height="15.0" fill="rgb(0,0,0)" rx="2" ry="2" />
<text  x="755.87" y="225.5" ></text>
</g>
<g >
<title>pyop2.global_kernel.GlobalKernel.compile (19,745,776 us, 15.26%)</title><rect x="99.7" y="151" width="180.1" height="15.0" fill="rgb(0,0,0)" rx="2" ry="2" />
<text  x="102.75" y="161.5" >pyop2.global_kernel.G..</text>
</g>
<g >
<title>MatSolve (802,630 us, 0.62%)</title><rect x="542.5" y="215" width="7.4" height="15.0" fill="rgb(0,0,0)" rx="2" ry="2" />
<text  x="545.55" y="225.5" ></text>
</g>
<g >
<title>KSPSolve (728,049 us, 0.56%)</title><rect x="756.4" y="215" width="6.6" height="15.0" fill="rgb(0,0,0)" rx="2" ry="2" />
<text  x="759.40" y="225.5" ></text>
</g>
<g >
<title>firedrake.assemble.assemble (11,905,501 us, 9.20%)</title><rect x="348.1" y="103" width="108.6" height="15.0" fill="rgb(0,0,0)" rx="2" ry="2" />
<text  x="351.13" y="113.5" >firedrake.as..</text>
</g>
<g >
<title>Parloop_Cells_wrap_form0_cell_integral_otherwise (5,087,103 us, 3.93%)</title><rect x="47.7" y="119" width="46.3" height="15.0" fill="rgb(0,0,0)" rx="2" ry="2" />
<text  x="50.66" y="129.5" >Parl..</text>
</g>
<g >
<title>PCSetUpOnBlocks (835,236 us, 0.65%)</title><rect x="564.7" y="151" width="7.6" height="15.0" fill="rgb(0,0,0)" rx="2" ry="2" />
<text  x="567.65" y="161.5" ></text>
</g>
<g >
<title>CreateExtMesh (915,437 us, 0.71%)</title><rect x="18.1" y="71" width="8.4" height="15.0" fill="rgb(0,0,0)" rx="2" ry="2" />
<text  x="21.12" y="81.5" ></text>
</g>
<g >
<title>MatMult (164,446 us, 0.13%)</title><rect x="753.8" y="215" width="1.5" height="15.0" fill="rgb(0,0,0)" rx="2" ry="2" />
<text  x="756.84" y="225.5" ></text>
</g>
<g >
<title>KSPSolve (27,126,105 us, 20.96%)</title><rect x="523.1" y="103" width="247.4" height="15.0" fill="rgb(0,0,0)" rx="2" ry="2" />
<text  x="526.14" y="113.5" >KSPSolve</text>
</g>
<g >
<title>MatMult (801,615 us, 0.62%)</title><rect x="685.5" y="231" width="7.3" height="15.0" fill="rgb(0,0,0)" rx="2" ry="2" />
<text  x="688.51" y="241.5" ></text>
</g>
<g >
<title>Parloop_Cells_wrap_pyop2_kernel_uniform_extrusion (884,242 us, 0.68%)</title><rect x="18.4" y="119" width="8.1" height="15.0" fill="rgb(0,0,0)" rx="2" ry="2" />
<text  x="21.40" y="129.5" ></text>
</g>
<g >
<title>MatMult (2,114,322 us, 1.63%)</title><rect x="646.2" y="215" width="19.3" height="15.0" fill="rgb(0,0,0)" rx="2" ry="2" />
<text  x="649.19" y="225.5" ></text>
</g>
<g >
<title>MatMult (803,180 us, 0.62%)</title><rect x="535.2" y="167" width="7.3" height="15.0" fill="rgb(0,0,0)" rx="2" ry="2" />
<text  x="538.22" y="177.5" ></text>
</g>
<g >
<title>firedrake.assemble_expressions.evaluate_expression (782,754 us, 0.60%)</title><rect x="40.5" y="103" width="7.2" height="15.0" fill="rgb(0,0,0)" rx="2" ry="2" />
<text  x="43.52" y="113.5" ></text>
</g>
<g >
<title>firedrake.tsfc_interface.compile_form (1,350,779 us, 1.04%)</title><rect x="444.4" y="119" width="12.3" height="15.0" fill="rgb(0,0,0)" rx="2" ry="2" />
<text  x="447.37" y="129.5" ></text>
</g>
<g >
<title>KSPSolve_FS_Low (2,456,845 us, 1.90%)</title><rect x="549.9" y="135" width="22.4" height="15.0" fill="rgb(0,0,0)" rx="2" ry="2" />
<text  x="552.86" y="145.5" ></text>
</g>
<g >
<title>Parloop_Cells_wrap_form00_cell_integral_otherwise (16,652,592 us, 12.87%)</title><rect x="873.6" y="135" width="151.9" height="15.0" fill="rgb(0,0,0)" rx="2" ry="2" />
<text  x="876.62" y="145.5" >Parloop_Cells_wra..</text>
</g>
<g >
<title>MatMult (192,170 us, 0.15%)</title><rect x="763.0" y="215" width="1.8" height="15.0" fill="rgb(0,0,0)" rx="2" ry="2" />
<text  x="766.04" y="225.5" ></text>
</g>
<g >
<title>MatMult (802,723 us, 0.62%)</title><rect x="550.0" y="167" width="7.3" height="15.0" fill="rgb(0,0,0)" rx="2" ry="2" />
<text  x="553.00" y="177.5" ></text>
</g>
<g >
<title>PCSetUp (6,794,559 us, 5.25%)</title><rect x="704.5" y="151" width="62.0" height="15.0" fill="rgb(0,0,0)" rx="2" ry="2" />
<text  x="707.53" y="161.5" >PCSetUp</text>
</g>
<g >
<title>MatLUFactorNum (716,907 us, 0.55%)</title><rect x="565.7" y="183" width="6.6" height="15.0" fill="rgb(0,0,0)" rx="2" ry="2" />
<text  x="568.73" y="193.5" ></text>
</g>
<g >
<title>ParLoopExecute (5,087,103 us, 3.93%)</title><rect x="47.7" y="103" width="46.3" height="15.0" fill="rgb(0,0,0)" rx="2" ry="2" />
<text  x="50.66" y="113.5" >ParL..</text>
</g>
<g >
<title>ParLoopExecute (20,371,013 us, 15.74%)</title><rect x="94.0" y="119" width="185.8" height="15.0" fill="rgb(0,0,0)" rx="2" ry="2" />
<text  x="97.05" y="129.5" >ParLoopExecute</text>
</g>
<g >
<title>MatMult (114,419 us, 0.09%)</title><rect x="330.4" y="135" width="1.1" height="15.0" fill="rgb(0,0,0)" rx="2" ry="2" />
<text  x="333.44" y="145.5" ></text>
</g>
<g >
<title>MatMult (4,003,247 us, 3.09%)</title><rect x="572.8" y="231" width="36.5" height="15.0" fill="rgb(0,0,0)" rx="2" ry="2" />
<text  x="575.83" y="241.5" >Ma..</text>
</g>
<g >
<title>MatMultAdd (299,250 us, 0.23%)</title><rect x="665.5" y="215" width="2.7" height="15.0" fill="rgb(0,0,0)" rx="2" ry="2" />
<text  x="668.47" y="225.5" ></text>
</g>
<g >
<title>MatAssemblyEnd (41,822 us, 0.03%)</title><rect x="778.0" y="135" width="0.4" height="15.0" fill="rgb(0,0,0)" rx="2" ry="2" />
<text  x="781.00" y="145.5" ></text>
</g>
<g >
<title>MatSolve (157,064 us, 0.12%)</title><rect x="331.5" y="183" width="1.4" height="15.0" fill="rgb(0,0,0)" rx="2" ry="2" />
<text  x="334.48" y="193.5" ></text>
</g>
<g >
<title>SNESSolve (73,129,378 us, 56.51%)</title><rect x="523.1" y="87" width="666.9" height="15.0" fill="rgb(0,0,0)" rx="2" ry="2" />
<text  x="526.14" y="97.5" >SNESSolve</text>
</g>
<g >
<title>PCApply (25,815,195 us, 19.95%)</title><rect x="535.1" y="119" width="235.4" height="15.0" fill="rgb(0,0,0)" rx="2" ry="2" />
<text  x="538.10" y="129.5" >PCApply</text>
</g>
<g >
<title>KSPSolve (271,483 us, 0.21%)</title><rect x="330.4" y="119" width="2.5" height="15.0" fill="rgb(0,0,0)" rx="2" ry="2" />
<text  x="333.44" y="129.5" ></text>
</g>
<g >
<title>PCApply (364,184 us, 0.28%)</title><rect x="759.7" y="263" width="3.3" height="15.0" fill="rgb(0,0,0)" rx="2" ry="2" />
<text  x="762.72" y="273.5" ></text>
</g>
<g >
<title>MatSOR (159,212 us, 0.12%)</title><rect x="765.0" y="247" width="1.5" height="15.0" fill="rgb(0,0,0)" rx="2" ry="2" />
<text  x="768.04" y="257.5" ></text>
</g>
<g >
<title>PCApply (1,882,217 us, 1.45%)</title><rect x="668.2" y="199" width="17.2" height="15.0" fill="rgb(0,0,0)" rx="2" ry="2" />
<text  x="671.20" y="209.5" ></text>
</g>
<g >
<title>all (129,402,393 us, 100%)</title><rect x="10.0" y="39" width="1180.0" height="15.0" fill="rgb(0,0,0)" rx="2" ry="2" />
<text  x="13.00" y="49.5" ></text>
</g>
<g >
<title>KSPSolve (1,621,609 us, 1.25%)</title><rect x="549.9" y="151" width="14.8" height="15.0" fill="rgb(0,0,0)" rx="2" ry="2" />
<text  x="552.86" y="161.5" ></text>
</g>
<g >
<title>pyop2.global_kernel.GlobalKernel.compile (884,242 us, 0.68%)</title><rect x="18.4" y="135" width="8.1" height="15.0" fill="rgb(0,0,0)" rx="2" ry="2" />
<text  x="21.40" y="145.5" ></text>
</g>
<g >
<title>MatSolve (803,559 us, 0.62%)</title><rect x="557.3" y="215" width="7.4" height="15.0" fill="rgb(0,0,0)" rx="2" ry="2" />
<text  x="560.32" y="225.5" ></text>
</g>
<g >
<title>VecScatterBegin (14,583 us, 0.01%)</title><rect x="770.4" y="135" width="0.1" height="15.0" fill="rgb(0,0,0)" rx="2" ry="2" />
<text  x="773.37" y="145.5" ></text>
</g>
<g >
<title>MatMatMultNum (562,668 us, 0.43%)</title><rect x="778.4" y="119" width="5.1" height="15.0" fill="rgb(0,0,0)" rx="2" ry="2" />
<text  x="781.38" y="129.5" ></text>
</g>
<g >
<title>ParLoopExecute (32,903,821 us, 25.43%)</title><rect x="873.6" y="119" width="300.1" height="15.0" fill="rgb(0,0,0)" rx="2" ry="2" />
<text  x="876.62" y="129.5" >ParLoopExecute</text>
</g>
<g >
<title>MatResidual (2,101,774 us, 1.62%)</title><rect x="685.4" y="183" width="19.1" height="15.0" fill="rgb(0,0,0)" rx="2" ry="2" />
<text  x="688.37" y="193.5" ></text>
</g>
<g >
<title>pyop2.caching.disk_cached.&lt;locals&gt;.decorator.&lt;locals&gt;.wrapper (19,925 us, 0.02%)</title><rect x="47.5" y="119" width="0.2" height="15.0" fill="rgb(0,0,0)" rx="2" ry="2" />
<text  x="50.48" y="129.5" ></text>
</g>
<g >
<title>firedrake.ufl_expr.adjoint (21,125 us, 0.02%)</title><rect x="789.9" y="167" width="0.1" height="15.0" fill="rgb(0,0,0)" rx="2" ry="2" />
<text  x="792.85" y="177.5" ></text>
</g>
<g >
<title>KSPSolve (802,630 us, 0.62%)</title><rect x="542.5" y="183" width="7.4" height="15.0" fill="rgb(0,0,0)" rx="2" ry="2" />
<text  x="545.55" y="193.5" ></text>
</g>
<g >
<title>MatSolve (802,037 us, 0.62%)</title><rect x="692.8" y="279" width="7.3" height="15.0" fill="rgb(0,0,0)" rx="2" ry="2" />
<text  x="695.82" y="289.5" ></text>
</g>
<g >
<title>Parloop_set_#x7f5d69214760_wrap_expression_kernel (393,137 us, 0.30%)</title><rect x="43.9" y="135" width="3.6" height="15.0" fill="rgb(0,0,0)" rx="2" ry="2" />
<text  x="46.89" y="145.5" ></text>
</g>
<g >
<title>KSPSolve (8,092,823 us, 6.25%)</title><rect x="572.4" y="215" width="73.8" height="15.0" fill="rgb(0,0,0)" rx="2" ry="2" />
<text  x="575.40" y="225.5" >KSPSolve</text>
</g>
<g >
<title>KSPSolve (4,012,059 us, 3.10%)</title><rect x="609.3" y="247" width="36.6" height="15.0" fill="rgb(0,0,0)" rx="2" ry="2" />
<text  x="612.34" y="257.5" >KS..</text>
</g>
<g >
<title>Parloop_Cells_wrap_form10_cell_integral_otherwise (8,247,535 us, 6.37%)</title><rect x="1098.5" y="135" width="75.2" height="15.0" fill="rgb(0,0,0)" rx="2" ry="2" />
<text  x="1101.45" y="145.5" >Parloop..</text>
</g>
<g >
<title>CreateSparsity (5,431,572 us, 4.20%)</title><rect x="456.8" y="103" width="49.5" height="15.0" fill="rgb(0,0,0)" rx="2" ry="2" />
<text  x="459.82" y="113.5" >Crea..</text>
</g>
<g >
<title>MatZeroInitial (1,801,936 us, 1.39%)</title><rect x="506.7" y="103" width="16.4" height="15.0" fill="rgb(0,0,0)" rx="2" ry="2" />
<text  x="509.71" y="113.5" ></text>
</g>
<g >
<title>MatPtAPSymbolic (29,906 us, 0.02%)</title><rect x="756.1" y="199" width="0.3" height="15.0" fill="rgb(0,0,0)" rx="2" ry="2" />
<text  x="759.13" y="209.5" ></text>
</g>
<g >
<title>Parloop_Cells_wrap_form_cell_integral_otherwise (10,554,722 us, 8.16%)</title><rect x="348.1" y="135" width="96.3" height="15.0" fill="rgb(0,0,0)" rx="2" ry="2" />
<text  x="351.13" y="145.5" >Parloop_Ce..</text>
</g>
<g >
<title>PCApply (159,212 us, 0.12%)</title><rect x="765.0" y="231" width="1.5" height="15.0" fill="rgb(0,0,0)" rx="2" ry="2" />
<text  x="768.04" y="241.5" ></text>
</g>
<g >
<title>firedrake.norms.errornorm (11,905,501 us, 9.20%)</title><rect x="348.1" y="71" width="108.6" height="15.0" fill="rgb(0,0,0)" rx="2" ry="2" />
<text  x="351.13" y="81.5" >firedrake.no..</text>
</g>
<g >
<title>firedrake.norms.norm (11,905,501 us, 9.20%)</title><rect x="348.1" y="87" width="108.6" height="15.0" fill="rgb(0,0,0)" rx="2" ry="2" />
<text  x="351.13" y="97.5" >firedrake.no..</text>
</g>
<g >
<title>PCApply (802,630 us, 0.62%)</title><rect x="542.5" y="199" width="7.4" height="15.0" fill="rgb(0,0,0)" rx="2" ry="2" />
<text  x="545.55" y="209.5" ></text>
</g>
<g >
<title>VecSet (14,837 us, 0.01%)</title><rect x="646.1" y="231" width="0.1" height="15.0" fill="rgb(0,0,0)" rx="2" ry="2" />
<text  x="649.06" y="241.5" ></text>
</g>
<g >
<title>KSPSolve_FS_Schu (21,299,052 us, 16.46%)</title><rect x="572.3" y="135" width="194.2" height="15.0" fill="rgb(0,0,0)" rx="2" ry="2" />
<text  x="575.27" y="145.5" >KSPSolve_FS_Schu</text>
</g>
<g >
<title>KSPGMRESOrthog (36,254 us, 0.03%)</title><rect x="523.3" y="119" width="0.3" height="15.0" fill="rgb(0,0,0)" rx="2" ry="2" />
<text  x="526.31" y="129.5" ></text>
</g>
<g >
<title>PCGAMG Opt l00 (78,283 us, 0.06%)</title><rect x="753.1" y="215" width="0.7" height="15.0" fill="rgb(0,0,0)" rx="2" ry="2" />
<text  x="756.13" y="225.5" ></text>
</g>
<g >
<title>KSPSolve (364,184 us, 0.28%)</title><rect x="759.7" y="247" width="3.3" height="15.0" fill="rgb(0,0,0)" rx="2" ry="2" />
<text  x="762.72" y="257.5" ></text>
</g>
<g >
<title>MatConvert (56,594 us, 0.04%)</title><rect x="752.4" y="215" width="0.5" height="15.0" fill="rgb(0,0,0)" rx="2" ry="2" />
<text  x="755.35" y="225.5" ></text>
</g>
<g >
<title>PCGAMGPOpt_AGG (242,729 us, 0.19%)</title><rect x="753.1" y="183" width="2.2" height="15.0" fill="rgb(0,0,0)" rx="2" ry="2" />
<text  x="756.13" y="193.5" ></text>
</g>
<g >
<title>PCGAMGGraph_AGG (963,617 us, 0.74%)</title><rect x="744.3" y="183" width="8.8" height="15.0" fill="rgb(0,0,0)" rx="2" ry="2" />
<text  x="747.34" y="193.5" ></text>
</g>
<g >
<title>GAMG: createProl (5,571,723 us, 4.31%)</title><rect x="704.5" y="167" width="50.8" height="15.0" fill="rgb(0,0,0)" rx="2" ry="2" />
<text  x="707.53" y="177.5" >GAMG..</text>
</g>
<g >
<title>Log_Event_form0_cell_integral_otherwise (37,596 us, 0.03%)</title><rect x="790.0" y="151" width="0.4" height="15.0" fill="rgb(0,0,0)" rx="2" ry="2" />
<text  x="793.05" y="161.5" ></text>
</g>
<g >
<title>Parloop_Cells_wrap_form01_cell_integral_otherwise (8,003,694 us, 6.19%)</title><rect x="1025.5" y="135" width="73.0" height="15.0" fill="rgb(0,0,0)" rx="2" ry="2" />
<text  x="1028.47" y="145.5" >Parloop..</text>
</g>
<g >
<title>KSPSolve (12,402,719 us, 9.58%)</title><rect x="572.3" y="183" width="113.1" height="15.0" fill="rgb(0,0,0)" rx="2" ry="2" />
<text  x="575.27" y="193.5" >KSPSolve</text>
</g>
<g >
<title>VecMAXPY (14,425 us, 0.01%)</title><rect x="523.3" y="135" width="0.1" height="15.0" fill="rgb(0,0,0)" rx="2" ry="2" />
<text  x="526.31" y="145.5" ></text>
</g>
<g >
<title>firedrake.extrusion_utils.make_extruded_coords (915,437 us, 0.71%)</title><rect x="18.1" y="87" width="8.4" height="15.0" fill="rgb(0,0,0)" rx="2" ry="2" />
<text  x="21.12" y="97.5" ></text>
</g>
<g >
<title>Parloop_Cells_wrap_form1_cell_integral_otherwise (3,568,196 us, 2.76%)</title><rect x="828.8" y="135" width="32.5" height="15.0" fill="rgb(0,0,0)" rx="2" ry="2" />
<text  x="831.78" y="145.5" >Pa..</text>
</g>
<g >
<title>KSPSolve (14,504,493 us, 11.21%)</title><rect x="572.3" y="151" width="132.2" height="15.0" fill="rgb(0,0,0)" rx="2" ry="2" />
<text  x="575.27" y="161.5" >KSPSolve</text>
</g>
<g >
<title>Log_Event_form00_cell_integral_otherwise (223,981 us, 0.17%)</title><rect x="97.7" y="151" width="2.0" height="15.0" fill="rgb(0,0,0)" rx="2" ry="2" />
<text  x="100.71" y="161.5" ></text>
</g>
<g >
<title>PCApply (157,064 us, 0.12%)</title><rect x="331.5" y="135" width="1.4" height="15.0" fill="rgb(0,0,0)" rx="2" ry="2" />
<text  x="334.48" y="145.5" ></text>
</g>
<g >
<title>MatCholFctrNum (1,190,710 us, 0.92%)</title><rect x="332.9" y="151" width="10.9" height="15.0" fill="rgb(0,0,0)" rx="2" ry="2" />
<text  x="335.92" y="161.5" ></text>
</g>
<g >
<title>  MIS/Agg (18,243 us, 0.01%)</title><rect x="704.7" y="199" width="0.2" height="15.0" fill="rgb(0,0,0)" rx="2" ry="2" />
<text  x="707.70" y="209.5" ></text>
</g>
<g >
<title>  SA: smooth (78,283 us, 0.06%)</title><rect x="753.1" y="199" width="0.7" height="15.0" fill="rgb(0,0,0)" rx="2" ry="2" />
<text  x="756.13" y="209.5" ></text>
</g>
<g >
<title>firedrake.assemble.allocate_matrix (7,273,434 us, 5.62%)</title><rect x="456.8" y="87" width="66.3" height="15.0" fill="rgb(0,0,0)" rx="2" ry="2" />
<text  x="459.82" y="97.5" >firedr..</text>
</g>
<g >
<title>SNESJacobianEval (34,764,055 us, 26.87%)</title><rect x="873.0" y="103" width="317.0" height="15.0" fill="rgb(0,0,0)" rx="2" ry="2" />
<text  x="875.99" y="113.5" >SNESJacobianEval</text>
</g>
<g >
<title>MatZeroEntries (68,453 us, 0.05%)</title><rect x="873.0" y="119" width="0.6" height="15.0" fill="rgb(0,0,0)" rx="2" ry="2" />
<text  x="875.99" y="129.5" ></text>
</g>
<g >
<title>pyop2.global_kernel.GlobalKernel.compile (3,554,558 us, 2.75%)</title><rect x="828.9" y="151" width="32.4" height="15.0" fill="rgb(0,0,0)" rx="2" ry="2" />
<text  x="831.91" y="161.5" >py..</text>
</g>
<g >
<title>KSPSetUp (1,106,556 us, 0.86%)</title><rect x="756.4" y="167" width="10.1" height="15.0" fill="rgb(0,0,0)" rx="2" ry="2" />
<text  x="759.40" y="177.5" ></text>
</g>
<g >
<title>PCApply (802,037 us, 0.62%)</title><rect x="692.8" y="263" width="7.3" height="15.0" fill="rgb(0,0,0)" rx="2" ry="2" />
<text  x="695.82" y="273.5" ></text>
</g>
<g >
<title>Log_Event_form01_cell_integral_otherwise (98,147 us, 0.08%)</title><rect x="1027.5" y="151" width="0.8" height="15.0" fill="rgb(0,0,0)" rx="2" ry="2" />
<text  x="1030.45" y="161.5" ></text>
</g>
<g >
<title>firedrake.variational_solver.LinearVariationalProblem.__init__ (13,984 us, 0.01%)</title><rect x="456.7" y="71" width="0.1" height="15.0" fill="rgb(0,0,0)" rx="2" ry="2" />
<text  x="459.69" y="81.5" ></text>
</g>
<g >
<title>MatAXPY (307,871 us, 0.24%)</title><rect x="770.7" y="119" width="2.8" height="15.0" fill="rgb(0,0,0)" rx="2" ry="2" />
<text  x="773.71" y="129.5" ></text>
</g>
<g >
<title>MatMult (425,410 us, 0.33%)</title><rect x="766.5" y="135" width="3.9" height="15.0" fill="rgb(0,0,0)" rx="2" ry="2" />
<text  x="769.49" y="145.5" ></text>
</g>
<g >
<title>PCApply (4,012,059 us, 3.10%)</title><rect x="609.3" y="263" width="36.6" height="15.0" fill="rgb(0,0,0)" rx="2" ry="2" />
<text  x="612.34" y="273.5" >PC..</text>
</g>
<g >
<title>firedrake.variational_solver.NonlinearVariationalSolver.solve (73,129,378 us, 56.51%)</title><rect x="523.1" y="71" width="666.9" height="15.0" fill="rgb(0,0,0)" rx="2" ry="2" />
<text  x="526.14" y="81.5" >firedrake.variational_solver.NonlinearVariationalSolver.solve</text>
</g>
<g >
<title>MatSOR (1,882,217 us, 1.45%)</title><rect x="668.2" y="247" width="17.2" height="15.0" fill="rgb(0,0,0)" rx="2" ry="2" />
<text  x="671.20" y="257.5" ></text>
</g>
<g >
<title>CreateFunctionSpace (23,624 us, 0.02%)</title><rect x="26.5" y="71" width="0.2" height="15.0" fill="rgb(0,0,0)" rx="2" ry="2" />
<text  x="29.47" y="81.5" ></text>
</g>
<g >
<title>pyop2.global_kernel.GlobalKernel.compile (16,056,680 us, 12.41%)</title><rect x="879.1" y="151" width="146.4" height="15.0" fill="rgb(0,0,0)" rx="2" ry="2" />
<text  x="882.05" y="161.5" >pyop2.global_kern..</text>
</g>
<g >
<title>MatMult (423,043 us, 0.33%)</title><rect x="700.1" y="215" width="3.9" height="15.0" fill="rgb(0,0,0)" rx="2" ry="2" />
<text  x="703.13" y="225.5" ></text>
</g>
<g >
<title>PCApply (4,012,059 us, 3.10%)</title><rect x="609.3" y="231" width="36.6" height="15.0" fill="rgb(0,0,0)" rx="2" ry="2" />
<text  x="612.34" y="241.5" >PC..</text>
</g>
<g >
<title>KSPSolve_FS_0 (1,619,305 us, 1.25%)</title><rect x="535.1" y="135" width="14.8" height="15.0" fill="rgb(0,0,0)" rx="2" ry="2" />
<text  x="538.10" y="145.5" ></text>
</g>
<g >
<title>firedrake.linear_solver.LinearSolver.solve (1,491,847 us, 1.15%)</title><rect x="330.4" y="103" width="13.6" height="15.0" fill="rgb(0,0,0)" rx="2" ry="2" />
<text  x="333.44" y="113.5" ></text>
</g>
<g >
<title>PCApply (802,037 us, 0.62%)</title><rect x="692.8" y="231" width="7.3" height="15.0" fill="rgb(0,0,0)" rx="2" ry="2" />
<text  x="695.82" y="241.5" ></text>
</g>
<g >
<title>firedrake.functionspaceimpl.FunctionSpace.__init__ (23,624 us, 0.02%)</title><rect x="26.5" y="87" width="0.2" height="15.0" fill="rgb(0,0,0)" rx="2" ry="2" />
<text  x="29.47" y="97.5" ></text>
</g>
<g >
<title>firedrake.variational_solver.NonlinearVariationalProblem.__init__ (13,984 us, 0.01%)</title><rect x="456.7" y="87" width="0.1" height="15.0" fill="rgb(0,0,0)" rx="2" ry="2" />
<text  x="459.69" y="97.5" ></text>
</g>
<g >
<title>firedrake.function.Function.project (32,950,396 us, 25.46%)</title><rect x="47.7" y="71" width="300.4" height="15.0" fill="rgb(0,0,0)" rx="2" ry="2" />
<text  x="50.66" y="81.5" >firedrake.function.Function.project</text>
</g>
<g >
<title>PCApply (14,504,493 us, 11.21%)</title><rect x="572.3" y="167" width="132.2" height="15.0" fill="rgb(0,0,0)" rx="2" ry="2" />
<text  x="575.27" y="177.5" >PCApply</text>
</g>
<g >
<title>MatMultAdd (59,633 us, 0.05%)</title><rect x="704.0" y="215" width="0.5" height="15.0" fill="rgb(0,0,0)" rx="2" ry="2" />
<text  x="706.99" y="225.5" ></text>
</g>
<g >
<title>MatAssemblyEnd (26,981 us, 0.02%)</title><rect x="313.6" y="135" width="0.2" height="15.0" fill="rgb(0,0,0)" rx="2" ry="2" />
<text  x="316.57" y="145.5" ></text>
</g>
<g >
<title>MatCoarsen (18,243 us, 0.01%)</title><rect x="704.7" y="215" width="0.2" height="15.0" fill="rgb(0,0,0)" rx="2" ry="2" />
<text  x="707.70" y="225.5" ></text>
</g>
<g >
<title>MatAssemblyEnd (39,926 us, 0.03%)</title><rect x="506.3" y="103" width="0.4" height="15.0" fill="rgb(0,0,0)" rx="2" ry="2" />
<text  x="509.35" y="113.5" ></text>
</g>
<g >
<title>firedrake (129,402,393 us, 100.00%)</title><rect x="10.0" y="55" width="1180.0" height="15.0" fill="rgb(0,0,0)" rx="2" ry="2" />
<text  x="13.00" y="65.5" >firedrake</text>
</g>
<g >
<title>PCApply (802,630 us, 0.62%)</title><rect x="542.5" y="167" width="7.4" height="15.0" fill="rgb(0,0,0)" rx="2" ry="2" />
<text  x="545.55" y="177.5" ></text>
</g>
<g >
<title>KSPSolve (1,882,217 us, 1.45%)</title><rect x="668.2" y="215" width="17.2" height="15.0" fill="rgb(0,0,0)" rx="2" ry="2" />
<text  x="671.20" y="225.5" ></text>
</g>
<g >
<title>MatILUFactorSym (118,329 us, 0.09%)</title><rect x="564.7" y="183" width="1.0" height="15.0" fill="rgb(0,0,0)" rx="2" ry="2" />
<text  x="567.65" y="193.5" ></text>
</g>
<g >
<title>MatPtAPNumeric (86,374 us, 0.07%)</title><rect x="755.3" y="199" width="0.8" height="15.0" fill="rgb(0,0,0)" rx="2" ry="2" />
<text  x="758.34" y="209.5" ></text>
</g>
<g >
<title>PCSetUp (2,143,075 us, 1.66%)</title><rect x="770.5" y="103" width="19.5" height="15.0" fill="rgb(0,0,0)" rx="2" ry="2" />
<text  x="773.50" y="113.5" ></text>
</g>
<g >
<title>firedrake.variational_solver.NonlinearVariationalSolver.__init__ (7,273,434 us, 5.62%)</title><rect x="456.8" y="71" width="66.3" height="15.0" fill="rgb(0,0,0)" rx="2" ry="2" />
<text  x="459.82" y="81.5" >firedr..</text>
</g>
<g >
<title>PCGAMGCoarse_AGG (4,365,377 us, 3.37%)</title><rect x="704.5" y="183" width="39.8" height="15.0" fill="rgb(0,0,0)" rx="2" ry="2" />
<text  x="707.53" y="193.5" >PCG..</text>
</g>
<g >
<title>PCApply (159,212 us, 0.12%)</title><rect x="765.0" y="199" width="1.5" height="15.0" fill="rgb(0,0,0)" rx="2" ry="2" />
<text  x="768.04" y="209.5" ></text>
</g>
<g >
<title>pyop2.global_kernel.GlobalKernel.compile (7,688,102 us, 5.94%)</title><rect x="1028.3" y="151" width="70.2" height="15.0" fill="rgb(0,0,0)" rx="2" ry="2" />
<text  x="1031.35" y="161.5" >pyop2.g..</text>
</g>
<g >
<title>MatTrnMatMultSym (4,328,368 us, 3.34%)</title><rect x="704.9" y="215" width="39.4" height="15.0" fill="rgb(0,0,0)" rx="2" ry="2" />
<text  x="707.87" y="225.5" >Mat..</text>
</g>
<g >
<title>ParLoopExecute (884,242 us, 0.68%)</title><rect x="18.4" y="103" width="8.1" height="15.0" fill="rgb(0,0,0)" rx="2" ry="2" />
<text  x="21.40" y="113.5" ></text>
</g>
<g >
<title>  Graph (963,617 us, 0.74%)</title><rect x="744.3" y="199" width="8.8" height="15.0" fill="rgb(0,0,0)" rx="2" ry="2" />
<text  x="747.34" y="209.5" ></text>
</g>
<g >
<title>PCSetUp (1,220,364 us, 0.94%)</title><rect x="332.9" y="135" width="11.1" height="15.0" fill="rgb(0,0,0)" rx="2" ry="2" />
<text  x="335.92" y="145.5" ></text>
</g>
<g >
<title>MatSolve (4,012,059 us, 3.10%)</title><rect x="609.3" y="279" width="36.6" height="15.0" fill="rgb(0,0,0)" rx="2" ry="2" />
<text  x="612.34" y="289.5" >Ma..</text>
</g>
<g >
<title>pyop2.global_kernel.GlobalKernel.compile (10,554,722 us, 8.16%)</title><rect x="348.1" y="151" width="96.3" height="15.0" fill="rgb(0,0,0)" rx="2" ry="2" />
<text  x="351.13" y="161.5" >pyop2.glob..</text>
</g>
<g >
<title>PCGAMG Squ l00 (4,328,368 us, 3.34%)</title><rect x="704.9" y="199" width="39.4" height="15.0" fill="rgb(0,0,0)" rx="2" ry="2" />
<text  x="707.87" y="209.5" >PCG..</text>
</g>
<g >
<title>firedrake.assemble_expressions.assemble_expression (782,754 us, 0.60%)</title><rect x="40.5" y="87" width="7.2" height="15.0" fill="rgb(0,0,0)" rx="2" ry="2" />
<text  x="43.52" y="97.5" ></text>
</g>
<g >
<title>KSPSolve (1,619,305 us, 1.25%)</title><rect x="535.1" y="151" width="14.8" height="15.0" fill="rgb(0,0,0)" rx="2" ry="2" />
<text  x="538.10" y="161.5" ></text>
</g>
<g >
<title>Log_Event_form00_cell_integral_otherwise (168,603 us, 0.13%)</title><rect x="877.5" y="151" width="1.6" height="15.0" fill="rgb(0,0,0)" rx="2" ry="2" />
<text  x="880.51" y="161.5" ></text>
</g>
<g >
<title>firedrake.assemble.allocate_matrix (4,945,274 us, 3.82%)</title><rect x="279.8" y="119" width="45.1" height="15.0" fill="rgb(0,0,0)" rx="2" ry="2" />
<text  x="282.81" y="129.5" >fir..</text>
</g>
<g >
<title>KSPSolve (802,037 us, 0.62%)</title><rect x="692.8" y="247" width="7.3" height="15.0" fill="rgb(0,0,0)" rx="2" ry="2" />
<text  x="695.82" y="257.5" ></text>
</g>
<g >
<title>pyop2.global_kernel.GlobalKernel.compile (5,087,103 us, 3.93%)</title><rect x="47.7" y="135" width="46.3" height="15.0" fill="rgb(0,0,0)" rx="2" ry="2" />
<text  x="50.66" y="145.5" >pyop..</text>
</g>
<g >
<title>Log_Event_form10_cell_integral_otherwise (48,793 us, 0.04%)</title><rect x="1100.7" y="151" width="0.4" height="15.0" fill="rgb(0,0,0)" rx="2" ry="2" />
<text  x="1103.68" y="161.5" ></text>
</g>
<g >
<title>MatMult (2,101,774 us, 1.62%)</title><rect x="685.4" y="199" width="19.1" height="15.0" fill="rgb(0,0,0)" rx="2" ry="2" />
<text  x="688.37" y="209.5" ></text>
</g>
<g >
<title>KSPSolve (164,446 us, 0.13%)</title><rect x="753.8" y="199" width="1.5" height="15.0" fill="rgb(0,0,0)" rx="2" ry="2" />
<text  x="756.84" y="209.5" ></text>
</g>
<g >
<title>PCSetUp (835,236 us, 0.65%)</title><rect x="564.7" y="167" width="7.6" height="15.0" fill="rgb(0,0,0)" rx="2" ry="2" />
<text  x="567.65" y="177.5" ></text>
</g>
<g >
<title>KSPSolve (803,559 us, 0.62%)</title><rect x="557.3" y="183" width="7.4" height="15.0" fill="rgb(0,0,0)" rx="2" ry="2" />
<text  x="560.32" y="193.5" ></text>
</g>
<g >
<title>ParLoopExecute (10,554,722 us, 8.16%)</title><rect x="348.1" y="119" width="96.3" height="15.0" fill="rgb(0,0,0)" rx="2" ry="2" />
<text  x="351.13" y="129.5" >ParLoopExe..</text>
</g>
<g >
<title>MatMatMultSym (35,590 us, 0.03%)</title><rect x="753.5" y="231" width="0.3" height="15.0" fill="rgb(0,0,0)" rx="2" ry="2" />
<text  x="756.52" y="241.5" ></text>
</g>
</g>
</svg>
