<?xml version="1.0" standalone="no"?>
<!DOCTYPE svg PUBLIC "-//W3C//DTD SVG 1.1//EN" "http://www.w3.org/Graphics/SVG/1.1/DTD/svg11.dtd">
<svg version="1.1" width="1200" height="331" onload="init(evt)" viewBox="0 0 1200 331" xmlns="http://www.w3.org/2000/svg" xmlns:xlink="http://www.w3.org/1999/xlink">
<!-- Flame graph stack visualization. See https://github.com/brendangregg/FlameGraph for latest version, and http://www.brendangregg.com/flamegraphs.html for examples. -->
<!-- NOTES:  -->
<defs>
	<linearGradient id="background" y1="0" y2="1" x1="0" x2="0" >
		<stop stop-color="#eeeeee" offset="5%" />
		<stop stop-color="#eeeeb0" offset="95%" />
	</linearGradient>
</defs>
<style type="text/css">
	text { font-family:Verdana; font-size:13px; fill:rgb(0,0,0); }
	#search, #ignorecase { opacity:0.1; cursor:pointer; }
	#search:hover, #search.show, #ignorecase:hover, #ignorecase.show { opacity:1; }
	#subtitle { text-anchor:middle; font-color:rgb(160,160,160); }
	#title { text-anchor:middle; font-size:18px}
	#unzoom { cursor:pointer; }
	#frames > *:hover { stroke:black; stroke-width:0.5; cursor:pointer; }
	.hide { display:none; }
	.parent { opacity:0.5; }
</style>
<script type="text/ecmascript">
<![CDATA[
	"use strict";
	var details, searchbtn, unzoombtn, matchedtxt, svg, searching, currentSearchTerm, ignorecase, ignorecaseBtn;
	function init(evt) {
		details = document.getElementById("details").firstChild;
		searchbtn = document.getElementById("search");
		ignorecaseBtn = document.getElementById("ignorecase");
		unzoombtn = document.getElementById("unzoom");
		matchedtxt = document.getElementById("matched");
		svg = document.getElementsByTagName("svg")[0];
		searching = 0;
		currentSearchTerm = null;

		// use GET parameters to restore a flamegraphs state.
		var params = get_params();
		if (params.x && params.y)
			zoom(find_group(document.querySelector('[x="' + params.x + '"][y="' + params.y + '"]')));
                if (params.s) search(params.s);
	}

	// event listeners
	window.addEventListener("click", function(e) {
		var target = find_group(e.target);
		if (target) {
			if (target.nodeName == "a") {
				if (e.ctrlKey === false) return;
				e.preventDefault();
			}
			if (target.classList.contains("parent")) unzoom();
			zoom(target);
			if (!document.querySelector('.parent')) {
				clearzoom();
				return;
			}

			// set parameters for zoom state
			var el = target.querySelector("rect");
			if (el && el.attributes && el.attributes.y && el.attributes._orig_x) {
				var params = get_params()
				params.x = el.attributes._orig_x.value;
				params.y = el.attributes.y.value;
				history.replaceState(null, null, parse_params(params));
			}
		}
		else if (e.target.id == "unzoom") clearzoom();
		else if (e.target.id == "search") search_prompt();
		else if (e.target.id == "ignorecase") toggle_ignorecase();
	}, false)

	// mouse-over for info
	// show
	window.addEventListener("mouseover", function(e) {
		var target = find_group(e.target);
		if (target) details.nodeValue = "Function: " + g_to_text(target);
	}, false)

	// clear
	window.addEventListener("mouseout", function(e) {
		var target = find_group(e.target);
		if (target) details.nodeValue = ' ';
	}, false)

	// ctrl-F for search
	// ctrl-I to toggle case-sensitive search
	window.addEventListener("keydown",function (e) {
		if (e.keyCode === 114 || (e.ctrlKey && e.keyCode === 70)) {
			e.preventDefault();
			search_prompt();
		}
		else if (e.ctrlKey && e.keyCode === 73) {
			e.preventDefault();
			toggle_ignorecase();
		}
	}, false)

	// functions
	function get_params() {
		var params = {};
		var paramsarr = window.location.search.substr(1).split('&');
		for (var i = 0; i < paramsarr.length; ++i) {
			var tmp = paramsarr[i].split("=");
			if (!tmp[0] || !tmp[1]) continue;
			params[tmp[0]]  = decodeURIComponent(tmp[1]);
		}
		return params;
	}
	function parse_params(params) {
		var uri = "?";
		for (var key in params) {
			uri += key + '=' + encodeURIComponent(params[key]) + '&';
		}
		if (uri.slice(-1) == "&")
			uri = uri.substring(0, uri.length - 1);
		if (uri == '?')
			uri = window.location.href.split('?')[0];
		return uri;
	}
	function find_child(node, selector) {
		var children = node.querySelectorAll(selector);
		if (children.length) return children[0];
	}
	function find_group(node) {
		var parent = node.parentElement;
		if (!parent) return;
		if (parent.id == "frames") return node;
		return find_group(parent);
	}
	function orig_save(e, attr, val) {
		if (e.attributes["_orig_" + attr] != undefined) return;
		if (e.attributes[attr] == undefined) return;
		if (val == undefined) val = e.attributes[attr].value;
		e.setAttribute("_orig_" + attr, val);
	}
	function orig_load(e, attr) {
		if (e.attributes["_orig_"+attr] == undefined) return;
		e.attributes[attr].value = e.attributes["_orig_" + attr].value;
		e.removeAttribute("_orig_"+attr);
	}
	function g_to_text(e) {
		var text = find_child(e, "title").firstChild.nodeValue;
		return (text)
	}
	function g_to_func(e) {
		var func = g_to_text(e);
		// if there's any manipulation we want to do to the function
		// name before it's searched, do it here before returning.
		return (func);
	}
	function update_text(e) {
		var r = find_child(e, "rect");
		var t = find_child(e, "text");
		var w = parseFloat(r.attributes.width.value) -3;
		var txt = find_child(e, "title").textContent.replace(/\([^(]*\)$/,"");
		t.attributes.x.value = parseFloat(r.attributes.x.value) + 3;

		// Smaller than this size won't fit anything
		if (w < 2 * 13 * 0.59) {
			t.textContent = "";
			return;
		}

		t.textContent = txt;
		// Fit in full text width
		if (/^ *$/.test(txt) || t.getSubStringLength(0, txt.length) < w)
			return;

		for (var x = txt.length - 2; x > 0; x--) {
			if (t.getSubStringLength(0, x + 2) <= w) {
				t.textContent = txt.substring(0, x) + "..";
				return;
			}
		}
		t.textContent = "";
	}

	// zoom
	function zoom_reset(e) {
		if (e.attributes != undefined) {
			orig_load(e, "x");
			orig_load(e, "width");
		}
		if (e.childNodes == undefined) return;
		for (var i = 0, c = e.childNodes; i < c.length; i++) {
			zoom_reset(c[i]);
		}
	}
	function zoom_child(e, x, ratio) {
		if (e.attributes != undefined) {
			if (e.attributes.x != undefined) {
				orig_save(e, "x");
				e.attributes.x.value = (parseFloat(e.attributes.x.value) - x - 10) * ratio + 10;
				if (e.tagName == "text")
					e.attributes.x.value = find_child(e.parentNode, "rect[x]").attributes.x.value + 3;
			}
			if (e.attributes.width != undefined) {
				orig_save(e, "width");
				e.attributes.width.value = parseFloat(e.attributes.width.value) * ratio;
			}
		}

		if (e.childNodes == undefined) return;
		for (var i = 0, c = e.childNodes; i < c.length; i++) {
			zoom_child(c[i], x - 10, ratio);
		}
	}
	function zoom_parent(e) {
		if (e.attributes) {
			if (e.attributes.x != undefined) {
				orig_save(e, "x");
				e.attributes.x.value = 10;
			}
			if (e.attributes.width != undefined) {
				orig_save(e, "width");
				e.attributes.width.value = parseInt(svg.width.baseVal.value) - (10 * 2);
			}
		}
		if (e.childNodes == undefined) return;
		for (var i = 0, c = e.childNodes; i < c.length; i++) {
			zoom_parent(c[i]);
		}
	}
	function zoom(node) {
		var attr = find_child(node, "rect").attributes;
		var width = parseFloat(attr.width.value);
		var xmin = parseFloat(attr.x.value);
		var xmax = parseFloat(xmin + width);
		var ymin = parseFloat(attr.y.value);
		var ratio = (svg.width.baseVal.value - 2 * 10) / width;

		// XXX: Workaround for JavaScript float issues (fix me)
		var fudge = 0.0001;

		unzoombtn.classList.remove("hide");

		var el = document.getElementById("frames").children;
		for (var i = 0; i < el.length; i++) {
			var e = el[i];
			var a = find_child(e, "rect").attributes;
			var ex = parseFloat(a.x.value);
			var ew = parseFloat(a.width.value);
			var upstack;
			// Is it an ancestor
			if (1 == 0) {
				upstack = parseFloat(a.y.value) > ymin;
			} else {
				upstack = parseFloat(a.y.value) < ymin;
			}
			if (upstack) {
				// Direct ancestor
				if (ex <= xmin && (ex+ew+fudge) >= xmax) {
					e.classList.add("parent");
					zoom_parent(e);
					update_text(e);
				}
				// not in current path
				else
					e.classList.add("hide");
			}
			// Children maybe
			else {
				// no common path
				if (ex < xmin || ex + fudge >= xmax) {
					e.classList.add("hide");
				}
				else {
					zoom_child(e, xmin, ratio);
					update_text(e);
				}
			}
		}
		search();
	}
	function unzoom() {
		unzoombtn.classList.add("hide");
		var el = document.getElementById("frames").children;
		for(var i = 0; i < el.length; i++) {
			el[i].classList.remove("parent");
			el[i].classList.remove("hide");
			zoom_reset(el[i]);
			update_text(el[i]);
		}
		search();
	}
	function clearzoom() {
		unzoom();

		// remove zoom state
		var params = get_params();
		if (params.x) delete params.x;
		if (params.y) delete params.y;
		history.replaceState(null, null, parse_params(params));
	}

	// search
	function toggle_ignorecase() {
		ignorecase = !ignorecase;
		if (ignorecase) {
			ignorecaseBtn.classList.add("show");
		} else {
			ignorecaseBtn.classList.remove("show");
		}
		reset_search();
		search();
	}
	function reset_search() {
		var el = document.querySelectorAll("#frames rect");
		for (var i = 0; i < el.length; i++) {
			orig_load(el[i], "fill")
		}
		var params = get_params();
		delete params.s;
		history.replaceState(null, null, parse_params(params));
	}
	function search_prompt() {
		if (!searching) {
			var term = prompt("Enter a search term (regexp " +
			    "allowed, eg: ^ext4_)"
			    + (ignorecase ? ", ignoring case" : "")
			    + "\nPress Ctrl-i to toggle case sensitivity", "");
			if (term != null) search(term);
		} else {
			reset_search();
			searching = 0;
			currentSearchTerm = null;
			searchbtn.classList.remove("show");
			searchbtn.firstChild.nodeValue = "Search"
			matchedtxt.classList.add("hide");
			matchedtxt.firstChild.nodeValue = ""
		}
	}
	function search(term) {
		if (term) currentSearchTerm = term;

		var re = new RegExp(currentSearchTerm, ignorecase ? 'i' : '');
		var el = document.getElementById("frames").children;
		var matches = new Object();
		var maxwidth = 0;
		for (var i = 0; i < el.length; i++) {
			var e = el[i];
			var func = g_to_func(e);
			var rect = find_child(e, "rect");
			if (func == null || rect == null)
				continue;

			// Save max width. Only works as we have a root frame
			var w = parseFloat(rect.attributes.width.value);
			if (w > maxwidth)
				maxwidth = w;

			if (func.match(re)) {
				// highlight
				var x = parseFloat(rect.attributes.x.value);
				orig_save(rect, "fill");
				rect.attributes.fill.value = "rgb(230,0,230)";

				// remember matches
				if (matches[x] == undefined) {
					matches[x] = w;
				} else {
					if (w > matches[x]) {
						// overwrite with parent
						matches[x] = w;
					}
				}
				searching = 1;
			}
		}
		if (!searching)
			return;
		var params = get_params();
		params.s = currentSearchTerm;
		history.replaceState(null, null, parse_params(params));

		searchbtn.classList.add("show");
		searchbtn.firstChild.nodeValue = "Reset Search";

		// calculate percent matched, excluding vertical overlap
		var count = 0;
		var lastx = -1;
		var lastw = 0;
		var keys = Array();
		for (k in matches) {
			if (matches.hasOwnProperty(k))
				keys.push(k);
		}
		// sort the matched frames by their x location
		// ascending, then width descending
		keys.sort(function(a, b){
			return a - b;
		});
		// Step through frames saving only the biggest bottom-up frames
		// thanks to the sort order. This relies on the tree property
		// where children are always smaller than their parents.
		var fudge = 0.0001;	// JavaScript floating point
		for (var k in keys) {
			var x = parseFloat(keys[k]);
			var w = matches[keys[k]];
			if (x >= lastx + lastw - fudge) {
				count += w;
				lastx = x;
				lastw = w;
			}
		}
		// display matched percent
		matchedtxt.classList.remove("hide");
		var pct = 100 * count / maxwidth;
		if (pct != 100) pct = pct.toFixed(1)
		matchedtxt.firstChild.nodeValue = "Matched: " + pct + "%";
	}
]]>
</script>
<rect x="0.0" y="0" width="1200.0" height="331.0" fill="url(#background)"  />
<text id="title" x="600.00" y="26" >Firedrake example</text>
<text id="details" x="10.00" y="313" > </text>
<text id="unzoom" x="10.00" y="26" class="hide">Reset Zoom</text>
<text id="search" x="1090.00" y="26" >Search</text>
<text id="ignorecase" x="1174.00" y="26" >ic</text>
<text id="matched" x="1090.00" y="313" > </text>
<g id="frames">
<g >
<title>PCApply (660,526 us, 0.77%)</title><rect x="579.8" y="231" width="9.1" height="15.0" fill="rgb(0,0,0)" rx="2" ry="2" />
<text  x="582.83" y="241.5" ></text>
</g>
<g >
<title>PCSetUp (433,698 us, 0.51%)</title><rect x="608.3" y="151" width="6.0" height="15.0" fill="rgb(0,0,0)" rx="2" ry="2" />
<text  x="611.32" y="161.5" ></text>
</g>
<g >
<title>MatAXPY (33,686 us, 0.04%)</title><rect x="636.5" y="119" width="0.4" height="15.0" fill="rgb(0,0,0)" rx="2" ry="2" />
<text  x="639.45" y="129.5" ></text>
</g>
<g >
<title>pyop2.global_kernel.GlobalKernel.compile (7,420,958 us, 8.68%)</title><rect x="1063.6" y="151" width="102.4" height="15.0" fill="rgb(0,0,0)" rx="2" ry="2" />
<text  x="1066.57" y="161.5" >pyop2.globa..</text>
</g>
<g >
<title>MatMatMultSym (79,584 us, 0.09%)</title><rect x="638.7" y="119" width="1.1" height="15.0" fill="rgb(0,0,0)" rx="2" ry="2" />
<text  x="641.69" y="129.5" ></text>
</g>
<g >
<title>firedrake.__init__ (1,510,207 us, 1.77%)</title><rect x="35.2" y="71" width="20.9" height="15.0" fill="rgb(0,0,0)" rx="2" ry="2" />
<text  x="38.22" y="81.5" ></text>
</g>
<g >
<title>firedrake.assemble.assemble (748,283 us, 0.88%)</title><rect x="56.1" y="71" width="10.3" height="15.0" fill="rgb(0,0,0)" rx="2" ry="2" />
<text  x="59.06" y="81.5" ></text>
</g>
<g >
<title>MatZeroInitial (152,384 us, 0.18%)</title><rect x="386.4" y="135" width="2.1" height="15.0" fill="rgb(0,0,0)" rx="2" ry="2" />
<text  x="389.38" y="145.5" ></text>
</g>
<g >
<title>Parloop_Cells_wrap_form00_cell_integral_otherwise (14,654,089 us, 17.14%)</title><rect x="764.0" y="135" width="202.2" height="15.0" fill="rgb(0,0,0)" rx="2" ry="2" />
<text  x="767.01" y="145.5" >Parloop_Cells_wrap_form0..</text>
</g>
<g >
<title>MatCreateSubMats (62,884 us, 0.07%)</title><rect x="636.9" y="119" width="0.9" height="15.0" fill="rgb(0,0,0)" rx="2" ry="2" />
<text  x="639.92" y="129.5" ></text>
</g>
<g >
<title>GAMG: partLevel (48,404 us, 0.06%)</title><rect x="612.5" y="167" width="0.7" height="15.0" fill="rgb(0,0,0)" rx="2" ry="2" />
<text  x="615.55" y="177.5" ></text>
</g>
<g >
<title>KSPSolve (661,730 us, 0.77%)</title><rect x="597.8" y="215" width="9.1" height="15.0" fill="rgb(0,0,0)" rx="2" ry="2" />
<text  x="600.76" y="225.5" ></text>
</g>
<g >
<title>PCApply (660,526 us, 0.77%)</title><rect x="579.8" y="199" width="9.1" height="15.0" fill="rgb(0,0,0)" rx="2" ry="2" />
<text  x="582.83" y="209.5" ></text>
</g>
<g >
<title>MatMult (13,921 us, 0.02%)</title><rect x="396.4" y="135" width="0.2" height="15.0" fill="rgb(0,0,0)" rx="2" ry="2" />
<text  x="399.36" y="145.5" ></text>
</g>
<g >
<title>SNESSolve (44,947,235 us, 52.57%)</title><rect x="569.7" y="87" width="620.3" height="15.0" fill="rgb(0,0,0)" rx="2" ry="2" />
<text  x="572.73" y="97.5" >SNESSolve</text>
</g>
<g >
<title>MatMult (36,127 us, 0.04%)</title><rect x="613.2" y="199" width="0.5" height="15.0" fill="rgb(0,0,0)" rx="2" ry="2" />
<text  x="616.22" y="209.5" ></text>
</g>
<g >
<title>pyop2.global_kernel.GlobalKernel.compile (353,596 us, 0.41%)</title><rect x="61.2" y="151" width="4.9" height="15.0" fill="rgb(0,0,0)" rx="2" ry="2" />
<text  x="64.24" y="161.5" ></text>
</g>
<g >
<title>firedrake.assemble.assemble (11,209,942 us, 13.11%)</title><rect x="404.8" y="103" width="154.7" height="15.0" fill="rgb(0,0,0)" rx="2" ry="2" />
<text  x="407.82" y="113.5" >firedrake.assemble..</text>
</g>
<g >
<title>PCApply (18,543 us, 0.02%)</title><rect x="396.6" y="167" width="0.2" height="15.0" fill="rgb(0,0,0)" rx="2" ry="2" />
<text  x="399.55" y="177.5" ></text>
</g>
<g >
<title>pyop2.global_kernel.GlobalKernel.compile (375,333 us, 0.44%)</title><rect x="56.1" y="151" width="5.1" height="15.0" fill="rgb(0,0,0)" rx="2" ry="2" />
<text  x="59.06" y="161.5" ></text>
</g>
<g >
<title>ParLoopExecute (9,885,871 us, 11.56%)</title><rect x="404.8" y="119" width="136.4" height="15.0" fill="rgb(0,0,0)" rx="2" ry="2" />
<text  x="407.82" y="129.5" >ParLoopExecute</text>
</g>
<g >
<title>MatTrnMatMultSym (122,974 us, 0.14%)</title><rect x="608.3" y="215" width="1.7" height="15.0" fill="rgb(0,0,0)" rx="2" ry="2" />
<text  x="611.32" y="225.5" ></text>
</g>
<g >
<title>KSPSolve (4,824,360 us, 5.64%)</title><rect x="569.7" y="103" width="66.6" height="15.0" fill="rgb(0,0,0)" rx="2" ry="2" />
<text  x="572.73" y="113.5" >KSPSolve</text>
</g>
<g >
<title>MatSOR (42,812 us, 0.05%)</title><rect x="613.7" y="247" width="0.6" height="15.0" fill="rgb(0,0,0)" rx="2" ry="2" />
<text  x="616.72" y="257.5" ></text>
</g>
<g >
<title>firedrake.variational_solver.LinearVariationalProblem.__init__ (12,267 us, 0.01%)</title><rect x="559.5" y="71" width="0.2" height="15.0" fill="rgb(0,0,0)" rx="2" ry="2" />
<text  x="562.51" y="81.5" ></text>
</g>
<g >
<title>firedrake.ufl_expr.adjoint (12,267 us, 0.01%)</title><rect x="559.5" y="103" width="0.2" height="15.0" fill="rgb(0,0,0)" rx="2" ry="2" />
<text  x="562.51" y="113.5" ></text>
</g>
<g >
<title>ParLoopExecute (880,790 us, 1.03%)</title><rect x="22.8" y="103" width="12.1" height="15.0" fill="rgb(0,0,0)" rx="2" ry="2" />
<text  x="25.75" y="113.5" ></text>
</g>
<g >
<title>KSPSolve (1,194,503 us, 1.40%)</title><rect x="572.5" y="183" width="16.4" height="15.0" fill="rgb(0,0,0)" rx="2" ry="2" />
<text  x="575.46" y="193.5" ></text>
</g>
<g >
<title>firedrake.variational_solver.NonlinearVariationalSolver.__init__ (728,115 us, 0.85%)</title><rect x="559.7" y="71" width="10.0" height="15.0" fill="rgb(0,0,0)" rx="2" ry="2" />
<text  x="562.68" y="81.5" ></text>
</g>
<g >
<title>firedrake (85,507,658 us, 100.00%)</title><rect x="10.0" y="55" width="1180.0" height="15.0" fill="rgb(0,0,0)" rx="2" ry="2" />
<text  x="13.00" y="65.5" >firedrake</text>
</g>
<g >
<title>firedrake.assemble.assemble (19,262,205 us, 22.53%)</title><rect x="130.5" y="103" width="265.9" height="15.0" fill="rgb(0,0,0)" rx="2" ry="2" />
<text  x="133.54" y="113.5" >firedrake.assemble.assemble</text>
</g>
<g >
<title>  Graph (115,388 us, 0.13%)</title><rect x="610.0" y="199" width="1.6" height="15.0" fill="rgb(0,0,0)" rx="2" ry="2" />
<text  x="613.02" y="209.5" ></text>
</g>
<g >
<title>MatMult (63,108 us, 0.07%)</title><rect x="632.3" y="183" width="0.8" height="15.0" fill="rgb(0,0,0)" rx="2" ry="2" />
<text  x="635.27" y="193.5" ></text>
</g>
<g >
<title>MatLUFactorNum (111,368 us, 0.13%)</title><rect x="633.9" y="183" width="1.5" height="15.0" fill="rgb(0,0,0)" rx="2" ry="2" />
<text  x="636.91" y="193.5" ></text>
</g>
<g >
<title>KSPSolve (32,464 us, 0.04%)</title><rect x="396.4" y="119" width="0.4" height="15.0" fill="rgb(0,0,0)" rx="2" ry="2" />
<text  x="399.36" y="129.5" ></text>
</g>
<g >
<title>MatPtAPSymbolic (13,917 us, 0.02%)</title><rect x="613.0" y="199" width="0.2" height="15.0" fill="rgb(0,0,0)" rx="2" ry="2" />
<text  x="616.03" y="209.5" ></text>
</g>
<g >
<title>MatMultAdd (8,989 us, 0.01%)</title><rect x="633.1" y="183" width="0.2" height="15.0" fill="rgb(0,0,0)" rx="2" ry="2" />
<text  x="636.14" y="193.5" ></text>
</g>
<g >
<title>Parloop_set_#x7efd500b8700_wrap_expression_kernel (353,596 us, 0.41%)</title><rect x="61.2" y="135" width="4.9" height="15.0" fill="rgb(0,0,0)" rx="2" ry="2" />
<text  x="64.24" y="145.5" ></text>
</g>
<g >
<title>KSPSolve (1,196,875 us, 1.40%)</title><rect x="614.3" y="215" width="16.5" height="15.0" fill="rgb(0,0,0)" rx="2" ry="2" />
<text  x="617.31" y="225.5" ></text>
</g>
<g >
<title>MatSOR (661,730 us, 0.77%)</title><rect x="597.8" y="247" width="9.1" height="15.0" fill="rgb(0,0,0)" rx="2" ry="2" />
<text  x="600.76" y="257.5" ></text>
</g>
<g >
<title>firedrake.dmhooks.create_field_decomposition (34,193 us, 0.04%)</title><rect x="639.8" y="119" width="0.5" height="15.0" fill="rgb(0,0,0)" rx="2" ry="2" />
<text  x="642.79" y="129.5" ></text>
</g>
<g >
<title>ParLoopExecute (4,648,947 us, 5.44%)</title><rect x="66.4" y="103" width="64.1" height="15.0" fill="rgb(0,0,0)" rx="2" ry="2" />
<text  x="69.39" y="113.5" >ParLoo..</text>
</g>
<g >
<title>firedrake.ufl_expr.adjoint (21,418 us, 0.03%)</title><rect x="640.0" y="167" width="0.3" height="15.0" fill="rgb(0,0,0)" rx="2" ry="2" />
<text  x="642.97" y="177.5" ></text>
</g>
<g >
<title>MatMult (45,787 us, 0.05%)</title><rect x="611.9" y="215" width="0.6" height="15.0" fill="rgb(0,0,0)" rx="2" ry="2" />
<text  x="614.92" y="225.5" ></text>
</g>
<g >
<title>PCApply (18,543 us, 0.02%)</title><rect x="396.6" y="135" width="0.2" height="15.0" fill="rgb(0,0,0)" rx="2" ry="2" />
<text  x="399.55" y="145.5" ></text>
</g>
<g >
<title>firedrake.extrusion_utils.make_extruded_coords (912,325 us, 1.07%)</title><rect x="22.3" y="87" width="12.6" height="15.0" fill="rgb(0,0,0)" rx="2" ry="2" />
<text  x="25.32" y="97.5" ></text>
</g>
<g >
<title>firedrake.function.Function.project (24,523,940 us, 28.68%)</title><rect x="66.4" y="71" width="338.4" height="15.0" fill="rgb(0,0,0)" rx="2" ry="2" />
<text  x="69.39" y="81.5" >firedrake.function.Function.project</text>
</g>
<g >
<title>PCApply (1,300,726 us, 1.52%)</title><rect x="590.4" y="167" width="17.9" height="15.0" fill="rgb(0,0,0)" rx="2" ry="2" />
<text  x="593.37" y="177.5" ></text>
</g>
<g >
<title>firedrake.assemble_expressions.assemble_expression (748,283 us, 0.88%)</title><rect x="56.1" y="87" width="10.3" height="15.0" fill="rgb(0,0,0)" rx="2" ry="2" />
<text  x="59.06" y="97.5" ></text>
</g>
<g >
<title>PCSetUpOnBlocks (149,761 us, 0.18%)</title><rect x="396.8" y="119" width="2.1" height="15.0" fill="rgb(0,0,0)" rx="2" ry="2" />
<text  x="399.81" y="129.5" ></text>
</g>
<g >
<title>MatMult (103,696 us, 0.12%)</title><rect x="588.9" y="199" width="1.5" height="15.0" fill="rgb(0,0,0)" rx="2" ry="2" />
<text  x="591.94" y="209.5" ></text>
</g>
<g >
<title>PCApply (4,626,849 us, 5.41%)</title><rect x="572.5" y="119" width="63.8" height="15.0" fill="rgb(0,0,0)" rx="2" ry="2" />
<text  x="575.46" y="129.5" >PCApply</text>
</g>
<g >
<title>KSPSolve_FS_Low (1,734,424 us, 2.03%)</title><rect x="590.4" y="135" width="23.9" height="15.0" fill="rgb(0,0,0)" rx="2" ry="2" />
<text  x="593.37" y="145.5" >K..</text>
</g>
<g >
<title>KSPSolve (42,812 us, 0.05%)</title><rect x="613.7" y="215" width="0.6" height="15.0" fill="rgb(0,0,0)" rx="2" ry="2" />
<text  x="616.72" y="225.5" ></text>
</g>
<g >
<title>KSPSolve (45,787 us, 0.05%)</title><rect x="611.9" y="199" width="0.6" height="15.0" fill="rgb(0,0,0)" rx="2" ry="2" />
<text  x="614.92" y="209.5" ></text>
</g>
<g >
<title>firedrake.tsfc_interface.compile_form (1,324,071 us, 1.55%)</title><rect x="541.2" y="119" width="18.3" height="15.0" fill="rgb(0,0,0)" rx="2" ry="2" />
<text  x="544.24" y="129.5" ></text>
</g>
<g >
<title>MatPtAPNumeric (34,487 us, 0.04%)</title><rect x="612.5" y="199" width="0.5" height="15.0" fill="rgb(0,0,0)" rx="2" ry="2" />
<text  x="615.55" y="209.5" ></text>
</g>
<g >
<title>MatMatMultSym (10,839 us, 0.01%)</title><rect x="611.8" y="231" width="0.1" height="15.0" fill="rgb(0,0,0)" rx="2" ry="2" />
<text  x="614.77" y="241.5" ></text>
</g>
<g >
<title>  SA: smooth (22,206 us, 0.03%)</title><rect x="611.6" y="199" width="0.3" height="15.0" fill="rgb(0,0,0)" rx="2" ry="2" />
<text  x="614.61" y="209.5" ></text>
</g>
<g >
<title>PCApply (662,218 us, 0.77%)</title><rect x="621.7" y="263" width="9.1" height="15.0" fill="rgb(0,0,0)" rx="2" ry="2" />
<text  x="624.69" y="273.5" ></text>
</g>
<g >
<title>SNESJacobianEval (30,878,022 us, 36.11%)</title><rect x="763.9" y="103" width="426.1" height="15.0" fill="rgb(0,0,0)" rx="2" ry="2" />
<text  x="766.89" y="113.5" >SNESJacobianEval</text>
</g>
<g >
<title>Log_Event_form01_cell_integral_otherwise (15,799 us, 0.02%)</title><rect x="966.7" y="151" width="0.2" height="15.0" fill="rgb(0,0,0)" rx="2" ry="2" />
<text  x="969.67" y="161.5" ></text>
</g>
<g >
<title>pyop2.global_kernel.GlobalKernel.compile (18,095,838 us, 21.16%)</title><rect x="131.7" y="151" width="249.7" height="15.0" fill="rgb(0,0,0)" rx="2" ry="2" />
<text  x="134.66" y="161.5" >pyop2.global_kernel.GlobalKern..</text>
</g>
<g >
<title>firedrake.tsfc_interface.compile_form (1,741,020 us, 2.04%)</title><rect x="1166.0" y="119" width="24.0" height="15.0" fill="rgb(0,0,0)" rx="2" ry="2" />
<text  x="1168.97" y="129.5" >f..</text>
</g>
<g >
<title>MatMult (188,112 us, 0.22%)</title><rect x="569.9" y="119" width="2.6" height="15.0" fill="rgb(0,0,0)" rx="2" ry="2" />
<text  x="572.86" y="129.5" ></text>
</g>
<g >
<title>Parloop_Cells_wrap_form0_cell_integral_otherwise (4,200,659 us, 4.91%)</title><rect x="640.3" y="135" width="57.9" height="15.0" fill="rgb(0,0,0)" rx="2" ry="2" />
<text  x="643.26" y="145.5" >Parlo..</text>
</g>
<g >
<title>pyop2.global_kernel.GlobalKernel.compile (6,965,259 us, 8.15%)</title><rect x="966.9" y="151" width="96.1" height="15.0" fill="rgb(0,0,0)" rx="2" ry="2" />
<text  x="969.88" y="161.5" >pyop2.glob..</text>
</g>
<g >
<title>MatZeroEntries (9,090 us, 0.01%)</title><rect x="763.9" y="119" width="0.1" height="15.0" fill="rgb(0,0,0)" rx="2" ry="2" />
<text  x="766.89" y="129.5" ></text>
</g>
<g >
<title>firedrake.variational_solver.NonlinearVariationalProblem.__init__ (12,267 us, 0.01%)</title><rect x="559.5" y="87" width="0.2" height="15.0" fill="rgb(0,0,0)" rx="2" ry="2" />
<text  x="562.51" y="97.5" ></text>
</g>
<g >
<title>PCSetUp (149,761 us, 0.18%)</title><rect x="396.8" y="135" width="2.1" height="15.0" fill="rgb(0,0,0)" rx="2" ry="2" />
<text  x="399.81" y="145.5" ></text>
</g>
<g >
<title>KSPSolve (1,298,199 us, 1.52%)</title><rect x="572.5" y="151" width="17.9" height="15.0" fill="rgb(0,0,0)" rx="2" ry="2" />
<text  x="575.46" y="161.5" ></text>
</g>
<g >
<title>PCGAMGGraph_AGG (115,388 us, 0.13%)</title><rect x="610.0" y="183" width="1.6" height="15.0" fill="rgb(0,0,0)" rx="2" ry="2" />
<text  x="613.02" y="193.5" ></text>
</g>
<g >
<title>PCSetUpOnBlocks (111,368 us, 0.13%)</title><rect x="633.9" y="151" width="1.5" height="15.0" fill="rgb(0,0,0)" rx="2" ry="2" />
<text  x="636.91" y="161.5" ></text>
</g>
<g >
<title>firedrake.assemble.allocate_matrix (728,115 us, 0.85%)</title><rect x="559.7" y="87" width="10.0" height="15.0" fill="rgb(0,0,0)" rx="2" ry="2" />
<text  x="562.68" y="97.5" ></text>
</g>
<g >
<title>MatResidual (103,599 us, 0.12%)</title><rect x="606.9" y="183" width="1.4" height="15.0" fill="rgb(0,0,0)" rx="2" ry="2" />
<text  x="609.89" y="193.5" ></text>
</g>
<g >
<title>PCSetUp (111,368 us, 0.13%)</title><rect x="633.9" y="167" width="1.5" height="15.0" fill="rgb(0,0,0)" rx="2" ry="2" />
<text  x="636.91" y="177.5" ></text>
</g>
<g >
<title>KSPSolve (1,420,280 us, 1.66%)</title><rect x="614.3" y="151" width="19.6" height="15.0" fill="rgb(0,0,0)" rx="2" ry="2" />
<text  x="617.31" y="161.5" ></text>
</g>
<g >
<title>firedrake.linear_solver.LinearSolver.solve (182,225 us, 0.21%)</title><rect x="396.4" y="103" width="2.5" height="15.0" fill="rgb(0,0,0)" rx="2" ry="2" />
<text  x="399.36" y="113.5" ></text>
</g>
<g >
<title>FunctionSpaceData: CreateElement (10,561 us, 0.01%)</title><rect x="35.1" y="135" width="0.1" height="15.0" fill="rgb(0,0,0)" rx="2" ry="2" />
<text  x="38.08" y="145.5" ></text>
</g>
<g >
<title>CreateExtMesh (922,001 us, 1.08%)</title><rect x="22.2" y="71" width="12.7" height="15.0" fill="rgb(0,0,0)" rx="2" ry="2" />
<text  x="25.18" y="81.5" ></text>
</g>
<g >
<title>MatSOR (660,526 us, 0.77%)</title><rect x="579.8" y="247" width="9.1" height="15.0" fill="rgb(0,0,0)" rx="2" ry="2" />
<text  x="582.83" y="257.5" ></text>
</g>
<g >
<title>firedrake.variational_solver.NonlinearVariationalProblem.__init__ (21,418 us, 0.03%)</title><rect x="640.0" y="151" width="0.3" height="15.0" fill="rgb(0,0,0)" rx="2" ry="2" />
<text  x="642.97" y="161.5" ></text>
</g>
<g >
<title>MatMatMultNum (66,024 us, 0.08%)</title><rect x="637.8" y="119" width="0.9" height="15.0" fill="rgb(0,0,0)" rx="2" ry="2" />
<text  x="640.78" y="129.5" ></text>
</g>
<g >
<title>MatMult (533,977 us, 0.62%)</title><rect x="572.5" y="199" width="7.3" height="15.0" fill="rgb(0,0,0)" rx="2" ry="2" />
<text  x="575.46" y="209.5" ></text>
</g>
<g >
<title>firedrake.norms.norm (11,209,942 us, 13.11%)</title><rect x="404.8" y="87" width="154.7" height="15.0" fill="rgb(0,0,0)" rx="2" ry="2" />
<text  x="407.82" y="97.5" >firedrake.norms.norm</text>
</g>
<g >
<title>Parloop_Cells_wrap_form10_cell_integral_otherwise (7,461,618 us, 8.73%)</title><rect x="1063.0" y="135" width="103.0" height="15.0" fill="rgb(0,0,0)" rx="2" ry="2" />
<text  x="1066.00" y="145.5" >Parloop_Cel..</text>
</g>
<g >
<title>all (85,507,658 us, 100%)</title><rect x="10.0" y="39" width="1180.0" height="15.0" fill="rgb(0,0,0)" rx="2" ry="2" />
<text  x="13.00" y="49.5" ></text>
</g>
<g >
<title>MatSOR (662,218 us, 0.77%)</title><rect x="621.7" y="279" width="9.1" height="15.0" fill="rgb(0,0,0)" rx="2" ry="2" />
<text  x="624.69" y="289.5" ></text>
</g>
<g >
<title>MatMatMultNum (11,367 us, 0.01%)</title><rect x="611.6" y="231" width="0.2" height="15.0" fill="rgb(0,0,0)" rx="2" ry="2" />
<text  x="614.61" y="241.5" ></text>
</g>
<g >
<title>PCGAMGCoarse_AGG (122,974 us, 0.14%)</title><rect x="608.3" y="183" width="1.7" height="15.0" fill="rgb(0,0,0)" rx="2" ry="2" />
<text  x="611.32" y="193.5" ></text>
</g>
<g >
<title>PCApply (1,301,528 us, 1.52%)</title><rect x="614.3" y="199" width="18.0" height="15.0" fill="rgb(0,0,0)" rx="2" ry="2" />
<text  x="617.31" y="209.5" ></text>
</g>
<g >
<title>SNESFunctionEval (8,958,091 us, 10.48%)</title><rect x="640.3" y="103" width="123.6" height="15.0" fill="rgb(0,0,0)" rx="2" ry="2" />
<text  x="643.26" y="113.5" >SNESFunctionEval</text>
</g>
<g >
<title>PCApply (1,298,199 us, 1.52%)</title><rect x="572.5" y="167" width="17.9" height="15.0" fill="rgb(0,0,0)" rx="2" ry="2" />
<text  x="575.46" y="177.5" ></text>
</g>
<g >
<title>firedrake.tsfc_interface.compile_form (571,210 us, 0.67%)</title><rect x="388.5" y="119" width="7.9" height="15.0" fill="rgb(0,0,0)" rx="2" ry="2" />
<text  x="391.48" y="129.5" ></text>
</g>
<g >
<title>PCGAMG Gal l00 (48,404 us, 0.06%)</title><rect x="612.5" y="183" width="0.7" height="15.0" fill="rgb(0,0,0)" rx="2" ry="2" />
<text  x="615.55" y="193.5" ></text>
</g>
<g >
<title>firedrake.variational_solver.NonlinearVariationalSolver.solve (44,947,235 us, 52.57%)</title><rect x="569.7" y="71" width="620.3" height="15.0" fill="rgb(0,0,0)" rx="2" ry="2" />
<text  x="572.73" y="81.5" >firedrake.variational_solver.NonlinearVariationalSolver.solve</text>
</g>
<g >
<title>PCSetUp (286,762 us, 0.34%)</title><rect x="636.3" y="103" width="4.0" height="15.0" fill="rgb(0,0,0)" rx="2" ry="2" />
<text  x="639.31" y="113.5" ></text>
</g>
<g >
<title>KSPSolve (1,301,528 us, 1.52%)</title><rect x="614.3" y="183" width="18.0" height="15.0" fill="rgb(0,0,0)" rx="2" ry="2" />
<text  x="617.31" y="193.5" ></text>
</g>
<g >
<title>firedrake.formmanipulation.split_form (10,351 us, 0.01%)</title><rect x="1189.9" y="135" width="0.1" height="15.0" fill="rgb(0,0,0)" rx="2" ry="2" />
<text  x="1192.86" y="145.5" ></text>
</g>
<g >
<title>MatSolve (46,655 us, 0.05%)</title><rect x="633.3" y="215" width="0.6" height="15.0" fill="rgb(0,0,0)" rx="2" ry="2" />
<text  x="636.26" y="225.5" ></text>
</g>
<g >
<title>Parloop_Cells_wrap_form0_cell_integral_otherwise (4,648,947 us, 5.44%)</title><rect x="66.4" y="119" width="64.1" height="15.0" fill="rgb(0,0,0)" rx="2" ry="2" />
<text  x="69.39" y="129.5" >Parloo..</text>
</g>
<g >
<title>pyop2.global_kernel.GlobalKernel.compile (880,790 us, 1.03%)</title><rect x="22.8" y="135" width="12.1" height="15.0" fill="rgb(0,0,0)" rx="2" ry="2" />
<text  x="25.75" y="145.5" ></text>
</g>
<g >
<title>Log_Event_form00_cell_integral_otherwise (22,773 us, 0.03%)</title><rect x="764.8" y="151" width="0.3" height="15.0" fill="rgb(0,0,0)" rx="2" ry="2" />
<text  x="767.79" y="161.5" ></text>
</g>
<g >
<title>MatResidual (103,696 us, 0.12%)</title><rect x="588.9" y="183" width="1.5" height="15.0" fill="rgb(0,0,0)" rx="2" ry="2" />
<text  x="591.94" y="193.5" ></text>
</g>
<g >
<title>GAMG: createProl (306,355 us, 0.36%)</title><rect x="608.3" y="167" width="4.2" height="15.0" fill="rgb(0,0,0)" rx="2" ry="2" />
<text  x="611.32" y="177.5" ></text>
</g>
<g >
<title>KSPSetUp (78,939 us, 0.09%)</title><rect x="613.2" y="167" width="1.1" height="15.0" fill="rgb(0,0,0)" rx="2" ry="2" />
<text  x="616.22" y="177.5" ></text>
</g>
<g >
<title>pyop2.global_kernel.GlobalKernel.compile (4,200,659 us, 4.91%)</title><rect x="640.3" y="151" width="57.9" height="15.0" fill="rgb(0,0,0)" rx="2" ry="2" />
<text  x="643.26" y="161.5" >pyop2..</text>
</g>
<g >
<title>firedrake.functionspacedata.get_shared_data (22,869 us, 0.03%)</title><rect x="34.9" y="103" width="0.3" height="15.0" fill="rgb(0,0,0)" rx="2" ry="2" />
<text  x="37.91" y="113.5" ></text>
</g>
<g >
<title>KSPSolve (660,526 us, 0.77%)</title><rect x="579.8" y="215" width="9.1" height="15.0" fill="rgb(0,0,0)" rx="2" ry="2" />
<text  x="582.83" y="225.5" ></text>
</g>
<g >
<title>firedrake.tsfc_interface.compile_form (1,257,691 us, 1.47%)</title><rect x="746.5" y="119" width="17.4" height="15.0" fill="rgb(0,0,0)" rx="2" ry="2" />
<text  x="749.53" y="129.5" ></text>
</g>
<g >
<title>firedrake.functionspacedata.FunctionSpaceData.__init__ (22,869 us, 0.03%)</title><rect x="34.9" y="119" width="0.3" height="15.0" fill="rgb(0,0,0)" rx="2" ry="2" />
<text  x="37.91" y="129.5" ></text>
</g>
<g >
<title>PCGAMG Squ l00 (122,974 us, 0.14%)</title><rect x="608.3" y="199" width="1.7" height="15.0" fill="rgb(0,0,0)" rx="2" ry="2" />
<text  x="611.32" y="209.5" ></text>
</g>
<g >
<title>KSPSolve (662,218 us, 0.77%)</title><rect x="621.7" y="247" width="9.1" height="15.0" fill="rgb(0,0,0)" rx="2" ry="2" />
<text  x="624.69" y="257.5" ></text>
</g>
<g >
<title>firedrake.tsfc_interface.compile_form (430,563 us, 0.50%)</title><rect x="398.9" y="103" width="5.9" height="15.0" fill="rgb(0,0,0)" rx="2" ry="2" />
<text  x="401.88" y="113.5" ></text>
</g>
<g >
<title>firedrake.solving_utils._SNESContext.split (34,193 us, 0.04%)</title><rect x="639.8" y="135" width="0.5" height="15.0" fill="rgb(0,0,0)" rx="2" ry="2" />
<text  x="642.79" y="145.5" ></text>
</g>
<g >
<title>KSPSolve_FS_0 (1,298,199 us, 1.52%)</title><rect x="572.5" y="135" width="17.9" height="15.0" fill="rgb(0,0,0)" rx="2" ry="2" />
<text  x="575.46" y="145.5" ></text>
</g>
<g >
<title>Parloop_Cells_wrap_form01_cell_integral_otherwise (7,012,205 us, 8.20%)</title><rect x="966.2" y="135" width="96.8" height="15.0" fill="rgb(0,0,0)" rx="2" ry="2" />
<text  x="969.24" y="145.5" >Parloop_Ce..</text>
</g>
<g >
<title>KSPSolve_FS_Schu (1,531,648 us, 1.79%)</title><rect x="614.3" y="135" width="21.1" height="15.0" fill="rgb(0,0,0)" rx="2" ry="2" />
<text  x="617.31" y="145.5" ></text>
</g>
<g >
<title>PCApply (46,655 us, 0.05%)</title><rect x="633.3" y="167" width="0.6" height="15.0" fill="rgb(0,0,0)" rx="2" ry="2" />
<text  x="636.26" y="177.5" ></text>
</g>
<g >
<title>KSPSolve (1,197,127 us, 1.40%)</title><rect x="590.4" y="183" width="16.5" height="15.0" fill="rgb(0,0,0)" rx="2" ry="2" />
<text  x="593.37" y="193.5" ></text>
</g>
<g >
<title>firedrake.assemble_expressions.evaluate_expression (748,283 us, 0.88%)</title><rect x="56.1" y="103" width="10.3" height="15.0" fill="rgb(0,0,0)" rx="2" ry="2" />
<text  x="59.06" y="113.5" ></text>
</g>
<g >
<title>firedrake.projection.project (24,523,940 us, 28.68%)</title><rect x="66.4" y="87" width="338.4" height="15.0" fill="rgb(0,0,0)" rx="2" ry="2" />
<text  x="69.39" y="97.5" >firedrake.projection.project</text>
</g>
<g >
<title>PCApply (46,655 us, 0.05%)</title><rect x="633.3" y="199" width="0.6" height="15.0" fill="rgb(0,0,0)" rx="2" ry="2" />
<text  x="636.26" y="209.5" ></text>
</g>
<g >
<title>firedrake.functionspaceimpl.FunctionSpace.__init__ (22,869 us, 0.03%)</title><rect x="34.9" y="87" width="0.3" height="15.0" fill="rgb(0,0,0)" rx="2" ry="2" />
<text  x="37.91" y="97.5" ></text>
</g>
<g >
<title>MatMult (62,578 us, 0.07%)</title><rect x="635.4" y="135" width="0.9" height="15.0" fill="rgb(0,0,0)" rx="2" ry="2" />
<text  x="638.44" y="145.5" ></text>
</g>
<g >
<title>PCApply (42,812 us, 0.05%)</title><rect x="613.7" y="199" width="0.6" height="15.0" fill="rgb(0,0,0)" rx="2" ry="2" />
<text  x="616.72" y="209.5" ></text>
</g>
<g >
<title>firedrake.formmanipulation.ExtractSubBlock.split (10,351 us, 0.01%)</title><rect x="1189.9" y="151" width="0.1" height="15.0" fill="rgb(0,0,0)" rx="2" ry="2" />
<text  x="1192.86" y="161.5" ></text>
</g>
<g >
<title>PCGAMG Opt l00 (22,206 us, 0.03%)</title><rect x="611.6" y="215" width="0.3" height="15.0" fill="rgb(0,0,0)" rx="2" ry="2" />
<text  x="614.61" y="225.5" ></text>
</g>
<g >
<title>KSPSolve (1,300,726 us, 1.52%)</title><rect x="590.4" y="151" width="17.9" height="15.0" fill="rgb(0,0,0)" rx="2" ry="2" />
<text  x="593.37" y="161.5" ></text>
</g>
<g >
<title>pyop2.caching.disk_cached.&lt;locals&gt;.decorator.&lt;locals&gt;.wrapper (19,354 us, 0.02%)</title><rect x="66.1" y="119" width="0.3" height="15.0" fill="rgb(0,0,0)" rx="2" ry="2" />
<text  x="69.12" y="129.5" ></text>
</g>
<g >
<title>Parloop_Cells_wrap_pyop2_kernel_uniform_extrusion (880,790 us, 1.03%)</title><rect x="22.8" y="119" width="12.1" height="15.0" fill="rgb(0,0,0)" rx="2" ry="2" />
<text  x="25.75" y="129.5" ></text>
</g>
<g >
<title>pyop2.global_kernel.GlobalKernel.compile (9,885,871 us, 11.56%)</title><rect x="404.8" y="151" width="136.4" height="15.0" fill="rgb(0,0,0)" rx="2" ry="2" />
<text  x="407.82" y="161.5" >pyop2.global_ke..</text>
</g>
<g >
<title>pyop2.global_kernel.GlobalKernel.compile (4,648,947 us, 5.44%)</title><rect x="66.4" y="135" width="64.1" height="15.0" fill="rgb(0,0,0)" rx="2" ry="2" />
<text  x="69.39" y="145.5" >pyop2...</text>
</g>
<g >
<title>ParLoopExecute (29,127,912 us, 34.06%)</title><rect x="764.0" y="119" width="402.0" height="15.0" fill="rgb(0,0,0)" rx="2" ry="2" />
<text  x="767.01" y="129.5" >ParLoopExecute</text>
</g>
<g >
<title>PCApply (42,812 us, 0.05%)</title><rect x="613.7" y="231" width="0.6" height="15.0" fill="rgb(0,0,0)" rx="2" ry="2" />
<text  x="616.72" y="241.5" ></text>
</g>
<g >
<title>PCApply (662,218 us, 0.77%)</title><rect x="621.7" y="231" width="9.1" height="15.0" fill="rgb(0,0,0)" rx="2" ry="2" />
<text  x="624.69" y="241.5" ></text>
</g>
<g >
<title>KSPSolve (18,543 us, 0.02%)</title><rect x="396.6" y="151" width="0.2" height="15.0" fill="rgb(0,0,0)" rx="2" ry="2" />
<text  x="399.55" y="161.5" ></text>
</g>
<g >
<title>MatConvert (16,100 us, 0.02%)</title><rect x="611.4" y="215" width="0.2" height="15.0" fill="rgb(0,0,0)" rx="2" ry="2" />
<text  x="614.39" y="225.5" ></text>
</g>
<g >
<title>ParLoopExecute (7,700,400 us, 9.01%)</title><rect x="640.3" y="119" width="106.2" height="15.0" fill="rgb(0,0,0)" rx="2" ry="2" />
<text  x="643.26" y="129.5" >ParLoopExec..</text>
</g>
<g >
<title>MatMult (103,599 us, 0.12%)</title><rect x="606.9" y="199" width="1.4" height="15.0" fill="rgb(0,0,0)" rx="2" ry="2" />
<text  x="609.89" y="209.5" ></text>
</g>
<g >
<title>pyop2.global_kernel.GlobalKernel.compile (14,574,793 us, 17.05%)</title><rect x="765.1" y="151" width="201.1" height="15.0" fill="rgb(0,0,0)" rx="2" ry="2" />
<text  x="768.11" y="161.5" >pyop2.global_kernel.Glob..</text>
</g>
<g >
<title>CreateFunctionSpace (22,869 us, 0.03%)</title><rect x="34.9" y="71" width="0.3" height="15.0" fill="rgb(0,0,0)" rx="2" ry="2" />
<text  x="37.91" y="81.5" ></text>
</g>
<g >
<title>Log_Event_form00_cell_integral_otherwise (29,526 us, 0.03%)</title><rect x="131.3" y="151" width="0.4" height="15.0" fill="rgb(0,0,0)" rx="2" ry="2" />
<text  x="134.25" y="161.5" ></text>
</g>
<g >
<title>firedrake.norms.errornorm (11,209,942 us, 13.11%)</title><rect x="404.8" y="71" width="154.7" height="15.0" fill="rgb(0,0,0)" rx="2" ry="2" />
<text  x="407.82" y="81.5" >firedrake.norms.er..</text>
</g>
<g >
<title>firedrake.assemble.allocate_matrix (514,112 us, 0.60%)</title><rect x="381.4" y="119" width="7.1" height="15.0" fill="rgb(0,0,0)" rx="2" ry="2" />
<text  x="384.38" y="129.5" ></text>
</g>
<g >
<title>MatMult (534,657 us, 0.63%)</title><rect x="614.3" y="231" width="7.4" height="15.0" fill="rgb(0,0,0)" rx="2" ry="2" />
<text  x="617.31" y="241.5" ></text>
</g>
<g >
<title>MatSolve (18,543 us, 0.02%)</title><rect x="396.6" y="183" width="0.2" height="15.0" fill="rgb(0,0,0)" rx="2" ry="2" />
<text  x="399.55" y="193.5" ></text>
</g>
<g >
<title>ParLoopExecute (728,929 us, 0.85%)</title><rect x="56.1" y="119" width="10.0" height="15.0" fill="rgb(0,0,0)" rx="2" ry="2" />
<text  x="59.06" y="129.5" ></text>
</g>
<g >
<title>Parloop_Cells_wrap_form1_cell_integral_otherwise (3,499,741 us, 4.09%)</title><rect x="698.2" y="135" width="48.3" height="15.0" fill="rgb(0,0,0)" rx="2" ry="2" />
<text  x="701.23" y="145.5" >Parl..</text>
</g>
<g >
<title>PCApply (661,730 us, 0.77%)</title><rect x="597.8" y="231" width="9.1" height="15.0" fill="rgb(0,0,0)" rx="2" ry="2" />
<text  x="600.76" y="241.5" ></text>
</g>
<g >
<title>pyop2.global_kernel.GlobalKernel.compile (3,499,741 us, 4.09%)</title><rect x="698.2" y="151" width="48.3" height="15.0" fill="rgb(0,0,0)" rx="2" ry="2" />
<text  x="701.23" y="161.5" >pyop..</text>
</g>
<g >
<title>CreateSparsity (503,445 us, 0.59%)</title><rect x="559.7" y="103" width="6.9" height="15.0" fill="rgb(0,0,0)" rx="2" ry="2" />
<text  x="562.68" y="113.5" ></text>
</g>
<g >
<title>PCGAMGPOpt_AGG (67,993 us, 0.08%)</title><rect x="611.6" y="183" width="0.9" height="15.0" fill="rgb(0,0,0)" rx="2" ry="2" />
<text  x="614.61" y="193.5" ></text>
</g>
<g >
<title>MatZeroInitial (224,670 us, 0.26%)</title><rect x="566.6" y="103" width="3.1" height="15.0" fill="rgb(0,0,0)" rx="2" ry="2" />
<text  x="569.63" y="113.5" ></text>
</g>
<g >
<title>MatMult (535,397 us, 0.63%)</title><rect x="590.4" y="199" width="7.4" height="15.0" fill="rgb(0,0,0)" rx="2" ry="2" />
<text  x="593.37" y="209.5" ></text>
</g>
<g >
<title>MatResidual (104,653 us, 0.12%)</title><rect x="630.8" y="215" width="1.5" height="15.0" fill="rgb(0,0,0)" rx="2" ry="2" />
<text  x="633.82" y="225.5" ></text>
</g>
<g >
<title>ParLoopExecute (18,176,883 us, 21.26%)</title><rect x="130.5" y="119" width="250.9" height="15.0" fill="rgb(0,0,0)" rx="2" ry="2" />
<text  x="133.54" y="129.5" >ParLoopExecute</text>
</g>
<g >
<title>KSPSolve (78,939 us, 0.09%)</title><rect x="613.2" y="183" width="1.1" height="15.0" fill="rgb(0,0,0)" rx="2" ry="2" />
<text  x="616.22" y="193.5" ></text>
</g>
<g >
<title>MatMult (104,653 us, 0.12%)</title><rect x="630.8" y="231" width="1.5" height="15.0" fill="rgb(0,0,0)" rx="2" ry="2" />
<text  x="633.82" y="241.5" ></text>
</g>
<g >
<title>MatCholFctrNum (149,761 us, 0.18%)</title><rect x="396.8" y="151" width="2.1" height="15.0" fill="rgb(0,0,0)" rx="2" ry="2" />
<text  x="399.81" y="161.5" ></text>
</g>
<g >
<title>Parloop_set_#x7efd5007a680_wrap_expression_kernel (375,333 us, 0.44%)</title><rect x="56.1" y="135" width="5.1" height="15.0" fill="rgb(0,0,0)" rx="2" ry="2" />
<text  x="59.06" y="145.5" ></text>
</g>
<g >
<title>Parloop_Cells_wrap_form00_cell_integral_otherwise (18,176,883 us, 21.26%)</title><rect x="130.5" y="135" width="250.9" height="15.0" fill="rgb(0,0,0)" rx="2" ry="2" />
<text  x="133.54" y="145.5" >Parloop_Cells_wrap_form00_cell..</text>
</g>
<g >
<title>MatMult (1,373,625 us, 1.61%)</title><rect x="614.3" y="167" width="19.0" height="15.0" fill="rgb(0,0,0)" rx="2" ry="2" />
<text  x="617.31" y="177.5" ></text>
</g>
<g >
<title>CreateSparsity (361,728 us, 0.42%)</title><rect x="381.4" y="135" width="5.0" height="15.0" fill="rgb(0,0,0)" rx="2" ry="2" />
<text  x="384.38" y="145.5" ></text>
</g>
<g >
<title>KSPSolve (46,655 us, 0.05%)</title><rect x="633.3" y="183" width="0.6" height="15.0" fill="rgb(0,0,0)" rx="2" ry="2" />
<text  x="636.26" y="193.5" ></text>
</g>
<g >
<title>Parloop_Cells_wrap_form_cell_integral_otherwise (9,885,871 us, 11.56%)</title><rect x="404.8" y="135" width="136.4" height="15.0" fill="rgb(0,0,0)" rx="2" ry="2" />
<text  x="407.82" y="145.5" >Parloop_Cells_w..</text>
</g>
<g >
<title>PCApply (661,730 us, 0.77%)</title><rect x="597.8" y="199" width="9.1" height="15.0" fill="rgb(0,0,0)" rx="2" ry="2" />
<text  x="600.76" y="209.5" ></text>
</g>
</g>
</svg>
