<?xml version="1.0" standalone="no"?>
<!DOCTYPE svg PUBLIC "-//W3C//DTD SVG 1.1//EN" "http://www.w3.org/Graphics/SVG/1.1/DTD/svg11.dtd">
<svg version="1.1" width="1200" height="331" onload="init(evt)" viewBox="0 0 1200 331" xmlns="http://www.w3.org/2000/svg" xmlns:xlink="http://www.w3.org/1999/xlink">
<!-- Flame graph stack visualization. See https://github.com/brendangregg/FlameGraph for latest version, and http://www.brendangregg.com/flamegraphs.html for examples. -->
<!-- NOTES:  -->
<defs>
	<linearGradient id="background" y1="0" y2="1" x1="0" x2="0" >
		<stop stop-color="#eeeeee" offset="5%" />
		<stop stop-color="#eeeeb0" offset="95%" />
	</linearGradient>
</defs>
<style type="text/css">
	text { font-family:Verdana; font-size:13px; fill:rgb(0,0,0); }
	#search, #ignorecase { opacity:0.1; cursor:pointer; }
	#search:hover, #search.show, #ignorecase:hover, #ignorecase.show { opacity:1; }
	#subtitle { text-anchor:middle; font-color:rgb(160,160,160); }
	#title { text-anchor:middle; font-size:18px}
	#unzoom { cursor:pointer; }
	#frames > *:hover { stroke:black; stroke-width:0.5; cursor:pointer; }
	.hide { display:none; }
	.parent { opacity:0.5; }
</style>
<script type="text/ecmascript">
<![CDATA[
	"use strict";
	var details, searchbtn, unzoombtn, matchedtxt, svg, searching, currentSearchTerm, ignorecase, ignorecaseBtn;
	function init(evt) {
		details = document.getElementById("details").firstChild;
		searchbtn = document.getElementById("search");
		ignorecaseBtn = document.getElementById("ignorecase");
		unzoombtn = document.getElementById("unzoom");
		matchedtxt = document.getElementById("matched");
		svg = document.getElementsByTagName("svg")[0];
		searching = 0;
		currentSearchTerm = null;

		// use GET parameters to restore a flamegraphs state.
		var params = get_params();
		if (params.x && params.y)
			zoom(find_group(document.querySelector('[x="' + params.x + '"][y="' + params.y + '"]')));
                if (params.s) search(params.s);
	}

	// event listeners
	window.addEventListener("click", function(e) {
		var target = find_group(e.target);
		if (target) {
			if (target.nodeName == "a") {
				if (e.ctrlKey === false) return;
				e.preventDefault();
			}
			if (target.classList.contains("parent")) unzoom();
			zoom(target);
			if (!document.querySelector('.parent')) {
				clearzoom();
				return;
			}

			// set parameters for zoom state
			var el = target.querySelector("rect");
			if (el && el.attributes && el.attributes.y && el.attributes._orig_x) {
				var params = get_params()
				params.x = el.attributes._orig_x.value;
				params.y = el.attributes.y.value;
				history.replaceState(null, null, parse_params(params));
			}
		}
		else if (e.target.id == "unzoom") clearzoom();
		else if (e.target.id == "search") search_prompt();
		else if (e.target.id == "ignorecase") toggle_ignorecase();
	}, false)

	// mouse-over for info
	// show
	window.addEventListener("mouseover", function(e) {
		var target = find_group(e.target);
		if (target) details.nodeValue = "Function: " + g_to_text(target);
	}, false)

	// clear
	window.addEventListener("mouseout", function(e) {
		var target = find_group(e.target);
		if (target) details.nodeValue = ' ';
	}, false)

	// ctrl-F for search
	// ctrl-I to toggle case-sensitive search
	window.addEventListener("keydown",function (e) {
		if (e.keyCode === 114 || (e.ctrlKey && e.keyCode === 70)) {
			e.preventDefault();
			search_prompt();
		}
		else if (e.ctrlKey && e.keyCode === 73) {
			e.preventDefault();
			toggle_ignorecase();
		}
	}, false)

	// functions
	function get_params() {
		var params = {};
		var paramsarr = window.location.search.substr(1).split('&');
		for (var i = 0; i < paramsarr.length; ++i) {
			var tmp = paramsarr[i].split("=");
			if (!tmp[0] || !tmp[1]) continue;
			params[tmp[0]]  = decodeURIComponent(tmp[1]);
		}
		return params;
	}
	function parse_params(params) {
		var uri = "?";
		for (var key in params) {
			uri += key + '=' + encodeURIComponent(params[key]) + '&';
		}
		if (uri.slice(-1) == "&")
			uri = uri.substring(0, uri.length - 1);
		if (uri == '?')
			uri = window.location.href.split('?')[0];
		return uri;
	}
	function find_child(node, selector) {
		var children = node.querySelectorAll(selector);
		if (children.length) return children[0];
	}
	function find_group(node) {
		var parent = node.parentElement;
		if (!parent) return;
		if (parent.id == "frames") return node;
		return find_group(parent);
	}
	function orig_save(e, attr, val) {
		if (e.attributes["_orig_" + attr] != undefined) return;
		if (e.attributes[attr] == undefined) return;
		if (val == undefined) val = e.attributes[attr].value;
		e.setAttribute("_orig_" + attr, val);
	}
	function orig_load(e, attr) {
		if (e.attributes["_orig_"+attr] == undefined) return;
		e.attributes[attr].value = e.attributes["_orig_" + attr].value;
		e.removeAttribute("_orig_"+attr);
	}
	function g_to_text(e) {
		var text = find_child(e, "title").firstChild.nodeValue;
		return (text)
	}
	function g_to_func(e) {
		var func = g_to_text(e);
		// if there's any manipulation we want to do to the function
		// name before it's searched, do it here before returning.
		return (func);
	}
	function update_text(e) {
		var r = find_child(e, "rect");
		var t = find_child(e, "text");
		var w = parseFloat(r.attributes.width.value) -3;
		var txt = find_child(e, "title").textContent.replace(/\([^(]*\)$/,"");
		t.attributes.x.value = parseFloat(r.attributes.x.value) + 3;

		// Smaller than this size won't fit anything
		if (w < 2 * 13 * 0.59) {
			t.textContent = "";
			return;
		}

		t.textContent = txt;
		// Fit in full text width
		if (/^ *$/.test(txt) || t.getSubStringLength(0, txt.length) < w)
			return;

		for (var x = txt.length - 2; x > 0; x--) {
			if (t.getSubStringLength(0, x + 2) <= w) {
				t.textContent = txt.substring(0, x) + "..";
				return;
			}
		}
		t.textContent = "";
	}

	// zoom
	function zoom_reset(e) {
		if (e.attributes != undefined) {
			orig_load(e, "x");
			orig_load(e, "width");
		}
		if (e.childNodes == undefined) return;
		for (var i = 0, c = e.childNodes; i < c.length; i++) {
			zoom_reset(c[i]);
		}
	}
	function zoom_child(e, x, ratio) {
		if (e.attributes != undefined) {
			if (e.attributes.x != undefined) {
				orig_save(e, "x");
				e.attributes.x.value = (parseFloat(e.attributes.x.value) - x - 10) * ratio + 10;
				if (e.tagName == "text")
					e.attributes.x.value = find_child(e.parentNode, "rect[x]").attributes.x.value + 3;
			}
			if (e.attributes.width != undefined) {
				orig_save(e, "width");
				e.attributes.width.value = parseFloat(e.attributes.width.value) * ratio;
			}
		}

		if (e.childNodes == undefined) return;
		for (var i = 0, c = e.childNodes; i < c.length; i++) {
			zoom_child(c[i], x - 10, ratio);
		}
	}
	function zoom_parent(e) {
		if (e.attributes) {
			if (e.attributes.x != undefined) {
				orig_save(e, "x");
				e.attributes.x.value = 10;
			}
			if (e.attributes.width != undefined) {
				orig_save(e, "width");
				e.attributes.width.value = parseInt(svg.width.baseVal.value) - (10 * 2);
			}
		}
		if (e.childNodes == undefined) return;
		for (var i = 0, c = e.childNodes; i < c.length; i++) {
			zoom_parent(c[i]);
		}
	}
	function zoom(node) {
		var attr = find_child(node, "rect").attributes;
		var width = parseFloat(attr.width.value);
		var xmin = parseFloat(attr.x.value);
		var xmax = parseFloat(xmin + width);
		var ymin = parseFloat(attr.y.value);
		var ratio = (svg.width.baseVal.value - 2 * 10) / width;

		// XXX: Workaround for JavaScript float issues (fix me)
		var fudge = 0.0001;

		unzoombtn.classList.remove("hide");

		var el = document.getElementById("frames").children;
		for (var i = 0; i < el.length; i++) {
			var e = el[i];
			var a = find_child(e, "rect").attributes;
			var ex = parseFloat(a.x.value);
			var ew = parseFloat(a.width.value);
			var upstack;
			// Is it an ancestor
			if (1 == 0) {
				upstack = parseFloat(a.y.value) > ymin;
			} else {
				upstack = parseFloat(a.y.value) < ymin;
			}
			if (upstack) {
				// Direct ancestor
				if (ex <= xmin && (ex+ew+fudge) >= xmax) {
					e.classList.add("parent");
					zoom_parent(e);
					update_text(e);
				}
				// not in current path
				else
					e.classList.add("hide");
			}
			// Children maybe
			else {
				// no common path
				if (ex < xmin || ex + fudge >= xmax) {
					e.classList.add("hide");
				}
				else {
					zoom_child(e, xmin, ratio);
					update_text(e);
				}
			}
		}
		search();
	}
	function unzoom() {
		unzoombtn.classList.add("hide");
		var el = document.getElementById("frames").children;
		for(var i = 0; i < el.length; i++) {
			el[i].classList.remove("parent");
			el[i].classList.remove("hide");
			zoom_reset(el[i]);
			update_text(el[i]);
		}
		search();
	}
	function clearzoom() {
		unzoom();

		// remove zoom state
		var params = get_params();
		if (params.x) delete params.x;
		if (params.y) delete params.y;
		history.replaceState(null, null, parse_params(params));
	}

	// search
	function toggle_ignorecase() {
		ignorecase = !ignorecase;
		if (ignorecase) {
			ignorecaseBtn.classList.add("show");
		} else {
			ignorecaseBtn.classList.remove("show");
		}
		reset_search();
		search();
	}
	function reset_search() {
		var el = document.querySelectorAll("#frames rect");
		for (var i = 0; i < el.length; i++) {
			orig_load(el[i], "fill")
		}
		var params = get_params();
		delete params.s;
		history.replaceState(null, null, parse_params(params));
	}
	function search_prompt() {
		if (!searching) {
			var term = prompt("Enter a search term (regexp " +
			    "allowed, eg: ^ext4_)"
			    + (ignorecase ? ", ignoring case" : "")
			    + "\nPress Ctrl-i to toggle case sensitivity", "");
			if (term != null) search(term);
		} else {
			reset_search();
			searching = 0;
			currentSearchTerm = null;
			searchbtn.classList.remove("show");
			searchbtn.firstChild.nodeValue = "Search"
			matchedtxt.classList.add("hide");
			matchedtxt.firstChild.nodeValue = ""
		}
	}
	function search(term) {
		if (term) currentSearchTerm = term;

		var re = new RegExp(currentSearchTerm, ignorecase ? 'i' : '');
		var el = document.getElementById("frames").children;
		var matches = new Object();
		var maxwidth = 0;
		for (var i = 0; i < el.length; i++) {
			var e = el[i];
			var func = g_to_func(e);
			var rect = find_child(e, "rect");
			if (func == null || rect == null)
				continue;

			// Save max width. Only works as we have a root frame
			var w = parseFloat(rect.attributes.width.value);
			if (w > maxwidth)
				maxwidth = w;

			if (func.match(re)) {
				// highlight
				var x = parseFloat(rect.attributes.x.value);
				orig_save(rect, "fill");
				rect.attributes.fill.value = "rgb(230,0,230)";

				// remember matches
				if (matches[x] == undefined) {
					matches[x] = w;
				} else {
					if (w > matches[x]) {
						// overwrite with parent
						matches[x] = w;
					}
				}
				searching = 1;
			}
		}
		if (!searching)
			return;
		var params = get_params();
		params.s = currentSearchTerm;
		history.replaceState(null, null, parse_params(params));

		searchbtn.classList.add("show");
		searchbtn.firstChild.nodeValue = "Reset Search";

		// calculate percent matched, excluding vertical overlap
		var count = 0;
		var lastx = -1;
		var lastw = 0;
		var keys = Array();
		for (k in matches) {
			if (matches.hasOwnProperty(k))
				keys.push(k);
		}
		// sort the matched frames by their x location
		// ascending, then width descending
		keys.sort(function(a, b){
			return a - b;
		});
		// Step through frames saving only the biggest bottom-up frames
		// thanks to the sort order. This relies on the tree property
		// where children are always smaller than their parents.
		var fudge = 0.0001;	// JavaScript floating point
		for (var k in keys) {
			var x = parseFloat(keys[k]);
			var w = matches[keys[k]];
			if (x >= lastx + lastw - fudge) {
				count += w;
				lastx = x;
				lastw = w;
			}
		}
		// display matched percent
		matchedtxt.classList.remove("hide");
		var pct = 100 * count / maxwidth;
		if (pct != 100) pct = pct.toFixed(1)
		matchedtxt.firstChild.nodeValue = "Matched: " + pct + "%";
	}
]]>
</script>
<rect x="0.0" y="0" width="1200.0" height="331.0" fill="url(#background)"  />
<text id="title" x="600.00" y="26" >Firedrake example</text>
<text id="details" x="10.00" y="313" > </text>
<text id="unzoom" x="10.00" y="26" class="hide">Reset Zoom</text>
<text id="search" x="1090.00" y="26" >Search</text>
<text id="ignorecase" x="1174.00" y="26" >ic</text>
<text id="matched" x="1090.00" y="313" > </text>
<g id="frames">
<g >
<title>pyop2.global_kernel.GlobalKernel.compile (4,061,169 us, 5.05%)</title><rect x="687.4" y="151" width="59.6" height="15.0" fill="rgb(0,0,0)" rx="2" ry="2" />
<text  x="690.44" y="161.5" >pyop2..</text>
</g>
<g >
<title>firedrake.assemble_expressions.evaluate_expression (770,611 us, 0.96%)</title><rect x="59.5" y="103" width="11.3" height="15.0" fill="rgb(0,0,0)" rx="2" ry="2" />
<text  x="62.47" y="113.5" ></text>
</g>
<g >
<title>PCApply (52,147 us, 0.06%)</title><rect x="621.4" y="263" width="0.7" height="15.0" fill="rgb(0,0,0)" rx="2" ry="2" />
<text  x="624.37" y="273.5" ></text>
</g>
<g >
<title>Parloop_Cells_wrap_form01_cell_integral_otherwise (6,824,418 us, 8.49%)</title><rect x="963.5" y="135" width="100.2" height="15.0" fill="rgb(0,0,0)" rx="2" ry="2" />
<text  x="966.52" y="145.5" >Parloop_Cel..</text>
</g>
<g >
<title>firedrake.ufl_expr.adjoint (22,740 us, 0.03%)</title><rect x="623.2" y="167" width="0.4" height="15.0" fill="rgb(0,0,0)" rx="2" ry="2" />
<text  x="626.24" y="177.5" ></text>
</g>
<g >
<title>firedrake.variational_solver.LinearVariationalProblem.__init__ (12,167 us, 0.02%)</title><rect x="613.6" y="71" width="0.1" height="15.0" fill="rgb(0,0,0)" rx="2" ry="2" />
<text  x="616.56" y="81.5" ></text>
</g>
<g >
<title>Parloop_Cells_wrap_form1_cell_integral_otherwise (4,061,169 us, 5.05%)</title><rect x="687.4" y="135" width="59.6" height="15.0" fill="rgb(0,0,0)" rx="2" ry="2" />
<text  x="690.44" y="145.5" >Parlo..</text>
</g>
<g >
<title>firedrake.ufl_expr.adjoint (12,167 us, 0.02%)</title><rect x="613.6" y="103" width="0.1" height="15.0" fill="rgb(0,0,0)" rx="2" ry="2" />
<text  x="616.56" y="113.5" ></text>
</g>
<g >
<title>firedrake.solving_utils._SNESContext.split (32,856 us, 0.04%)</title><rect x="623.1" y="135" width="0.5" height="15.0" fill="rgb(0,0,0)" rx="2" ry="2" />
<text  x="626.09" y="145.5" ></text>
</g>
<g >
<title>firedrake.formmanipulation.ExtractSubBlock.split (10,116 us, 0.01%)</title><rect x="623.1" y="151" width="0.1" height="15.0" fill="rgb(0,0,0)" rx="2" ry="2" />
<text  x="626.09" y="161.5" ></text>
</g>
<g >
<title>GAMG: partLevel (8,268 us, 0.01%)</title><rect x="620.3" y="167" width="0.1" height="15.0" fill="rgb(0,0,0)" rx="2" ry="2" />
<text  x="623.25" y="177.5" ></text>
</g>
<g >
<title>firedrake.variational_solver.NonlinearVariationalSolver.__init__ (121,916 us, 0.15%)</title><rect x="613.7" y="71" width="1.8" height="15.0" fill="rgb(0,0,0)" rx="2" ry="2" />
<text  x="616.74" y="81.5" ></text>
</g>
<g >
<title>SNESFunctionEval (9,834,101 us, 12.23%)</title><rect x="623.6" y="103" width="144.3" height="15.0" fill="rgb(0,0,0)" rx="2" ry="2" />
<text  x="626.57" y="113.5" >SNESFunctionEval</text>
</g>
<g >
<title>Parloop_Cells_wrap_form0_cell_integral_otherwise (4,351,071 us, 5.41%)</title><rect x="623.6" y="135" width="63.8" height="15.0" fill="rgb(0,0,0)" rx="2" ry="2" />
<text  x="626.57" y="145.5" >Parloo..</text>
</g>
<g >
<title>MatCholFctrNum (17,875 us, 0.02%)</title><rect x="393.8" y="151" width="0.3" height="15.0" fill="rgb(0,0,0)" rx="2" ry="2" />
<text  x="396.79" y="161.5" ></text>
</g>
<g >
<title>Parloop_Cells_wrap_form00_cell_integral_otherwise (16,503,376 us, 20.53%)</title><rect x="142.0" y="135" width="242.3" height="15.0" fill="rgb(0,0,0)" rx="2" ry="2" />
<text  x="145.03" y="145.5" >Parloop_Cells_wrap_form00_cel..</text>
</g>
<g >
<title>MatMult (9,867 us, 0.01%)</title><rect x="617.6" y="199" width="0.2" height="15.0" fill="rgb(0,0,0)" rx="2" ry="2" />
<text  x="620.63" y="209.5" ></text>
</g>
<g >
<title>MatMult (49,597 us, 0.06%)</title><rect x="620.6" y="231" width="0.8" height="15.0" fill="rgb(0,0,0)" rx="2" ry="2" />
<text  x="623.65" y="241.5" ></text>
</g>
<g >
<title>ParLoopExecute (12,771,400 us, 15.89%)</title><rect x="400.6" y="119" width="187.5" height="15.0" fill="rgb(0,0,0)" rx="2" ry="2" />
<text  x="403.62" y="129.5" >ParLoopExecute</text>
</g>
<g >
<title>PCApply (51,693 us, 0.06%)</title><rect x="616.9" y="199" width="0.7" height="15.0" fill="rgb(0,0,0)" rx="2" ry="2" />
<text  x="619.87" y="209.5" ></text>
</g>
<g >
<title>pyop2.global_kernel.GlobalKernel.compile (13,308,187 us, 16.55%)</title><rect x="768.2" y="151" width="195.3" height="15.0" fill="rgb(0,0,0)" rx="2" ry="2" />
<text  x="771.18" y="161.5" >pyop2.global_kernel.Glo..</text>
</g>
<g >
<title>PCApply (435,577 us, 0.54%)</title><rect x="616.0" y="119" width="6.4" height="15.0" fill="rgb(0,0,0)" rx="2" ry="2" />
<text  x="619.02" y="129.5" ></text>
</g>
<g >
<title>KSPSolve_FS_Low (185,216 us, 0.23%)</title><rect x="617.8" y="135" width="2.7" height="15.0" fill="rgb(0,0,0)" rx="2" ry="2" />
<text  x="620.78" y="145.5" ></text>
</g>
<g >
<title>MatMult (33,385 us, 0.04%)</title><rect x="615.5" y="119" width="0.5" height="15.0" fill="rgb(0,0,0)" rx="2" ry="2" />
<text  x="618.53" y="129.5" ></text>
</g>
<g >
<title>pyop2.global_kernel.GlobalKernel.compile (12,771,400 us, 15.89%)</title><rect x="400.6" y="151" width="187.5" height="15.0" fill="rgb(0,0,0)" rx="2" ry="2" />
<text  x="403.62" y="161.5" >pyop2.global_kernel.Gl..</text>
</g>
<g >
<title>MatSOR (51,693 us, 0.06%)</title><rect x="616.9" y="247" width="0.7" height="15.0" fill="rgb(0,0,0)" rx="2" ry="2" />
<text  x="619.87" y="257.5" ></text>
</g>
<g >
<title>KSPSolve (109,839 us, 0.14%)</title><rect x="617.8" y="183" width="1.6" height="15.0" fill="rgb(0,0,0)" rx="2" ry="2" />
<text  x="620.78" y="193.5" ></text>
</g>
<g >
<title>MatMult (49,546 us, 0.06%)</title><rect x="616.1" y="199" width="0.8" height="15.0" fill="rgb(0,0,0)" rx="2" ry="2" />
<text  x="619.15" y="209.5" ></text>
</g>
<g >
<title>MatZeroInitial (34,206 us, 0.04%)</title><rect x="615.0" y="103" width="0.5" height="15.0" fill="rgb(0,0,0)" rx="2" ry="2" />
<text  x="618.02" y="113.5" ></text>
</g>
<g >
<title>firedrake.tsfc_interface.compile_form (1,735,259 us, 2.16%)</title><rect x="588.1" y="119" width="25.5" height="15.0" fill="rgb(0,0,0)" rx="2" ry="2" />
<text  x="591.09" y="129.5" >f..</text>
</g>
<g >
<title>PCApply (111,753 us, 0.14%)</title><rect x="620.6" y="199" width="1.7" height="15.0" fill="rgb(0,0,0)" rx="2" ry="2" />
<text  x="623.65" y="209.5" ></text>
</g>
<g >
<title>MatMult (120,179 us, 0.15%)</title><rect x="620.6" y="167" width="1.8" height="15.0" fill="rgb(0,0,0)" rx="2" ry="2" />
<text  x="623.65" y="177.5" ></text>
</g>
<g >
<title>ParLoopExecute (8,412,240 us, 10.46%)</title><rect x="623.6" y="119" width="123.4" height="15.0" fill="rgb(0,0,0)" rx="2" ry="2" />
<text  x="626.57" y="129.5" >ParLoopExecute</text>
</g>
<g >
<title>KSPSolve (101,744 us, 0.13%)</title><rect x="620.6" y="215" width="1.5" height="15.0" fill="rgb(0,0,0)" rx="2" ry="2" />
<text  x="623.65" y="225.5" ></text>
</g>
<g >
<title>Parloop_Cells_wrap_form00_cell_integral_otherwise (13,325,577 us, 16.58%)</title><rect x="767.9" y="135" width="195.6" height="15.0" fill="rgb(0,0,0)" rx="2" ry="2" />
<text  x="770.92" y="145.5" >Parloop_Cells_wrap_form..</text>
</g>
<g >
<title>PCGAMG Gal l00 (8,268 us, 0.01%)</title><rect x="620.3" y="183" width="0.1" height="15.0" fill="rgb(0,0,0)" rx="2" ry="2" />
<text  x="623.25" y="193.5" ></text>
</g>
<g >
<title>firedrake.function.Function.project (22,471,578 us, 27.95%)</title><rect x="70.8" y="71" width="329.8" height="15.0" fill="rgb(0,0,0)" rx="2" ry="2" />
<text  x="73.78" y="81.5" >firedrake.function.Function.project</text>
</g>
<g >
<title>MatMult (9,877 us, 0.01%)</title><rect x="619.4" y="199" width="0.1" height="15.0" fill="rgb(0,0,0)" rx="2" ry="2" />
<text  x="622.39" y="209.5" ></text>
</g>
<g >
<title>FunctionSpaceData: CreateElement (10,692 us, 0.01%)</title><rect x="37.0" y="135" width="0.2" height="15.0" fill="rgb(0,0,0)" rx="2" ry="2" />
<text  x="40.04" y="145.5" ></text>
</g>
<g >
<title>MatSOR (56,995 us, 0.07%)</title><rect x="618.6" y="247" width="0.8" height="15.0" fill="rgb(0,0,0)" rx="2" ry="2" />
<text  x="621.55" y="257.5" ></text>
</g>
<g >
<title>firedrake.norms.norm (14,506,659 us, 18.05%)</title><rect x="400.6" y="87" width="213.0" height="15.0" fill="rgb(0,0,0)" rx="2" ry="2" />
<text  x="403.62" y="97.5" >firedrake.norms.norm</text>
</g>
<g >
<title>CreateSparsity (87,710 us, 0.11%)</title><rect x="613.7" y="103" width="1.3" height="15.0" fill="rgb(0,0,0)" rx="2" ry="2" />
<text  x="616.74" y="113.5" ></text>
</g>
<g >
<title>  Graph (22,524 us, 0.03%)</title><rect x="619.7" y="199" width="0.4" height="15.0" fill="rgb(0,0,0)" rx="2" ry="2" />
<text  x="622.75" y="209.5" ></text>
</g>
<g >
<title>KSPSolve (56,995 us, 0.07%)</title><rect x="618.6" y="215" width="0.8" height="15.0" fill="rgb(0,0,0)" rx="2" ry="2" />
<text  x="621.55" y="225.5" ></text>
</g>
<g >
<title>PCGAMGCoarse_AGG (14,592 us, 0.02%)</title><rect x="619.5" y="183" width="0.2" height="15.0" fill="rgb(0,0,0)" rx="2" ry="2" />
<text  x="622.54" y="193.5" ></text>
</g>
<g >
<title>PCApply (56,995 us, 0.07%)</title><rect x="618.6" y="231" width="0.8" height="15.0" fill="rgb(0,0,0)" rx="2" ry="2" />
<text  x="621.55" y="241.5" ></text>
</g>
<g >
<title>PCApply (119,716 us, 0.15%)</title><rect x="617.8" y="167" width="1.7" height="15.0" fill="rgb(0,0,0)" rx="2" ry="2" />
<text  x="620.78" y="177.5" ></text>
</g>
<g >
<title>PCApply (52,147 us, 0.06%)</title><rect x="621.4" y="231" width="0.7" height="15.0" fill="rgb(0,0,0)" rx="2" ry="2" />
<text  x="624.37" y="241.5" ></text>
</g>
<g >
<title>Parloop_Cells_wrap_form_cell_integral_otherwise (12,771,400 us, 15.89%)</title><rect x="400.6" y="135" width="187.5" height="15.0" fill="rgb(0,0,0)" rx="2" ry="2" />
<text  x="403.62" y="145.5" >Parloop_Cells_wrap_for..</text>
</g>
<g >
<title>firedrake.formmanipulation.split_form (8,634 us, 0.01%)</title><rect x="1189.9" y="135" width="0.1" height="15.0" fill="rgb(0,0,0)" rx="2" ry="2" />
<text  x="1192.87" y="145.5" ></text>
</g>
<g >
<title>pyop2.global_kernel.GlobalKernel.compile (369,890 us, 0.46%)</title><rect x="59.5" y="151" width="5.4" height="15.0" fill="rgb(0,0,0)" rx="2" ry="2" />
<text  x="62.47" y="161.5" ></text>
</g>
<g >
<title>firedrake.functionspacedata.FunctionSpaceData.__init__ (22,660 us, 0.03%)</title><rect x="36.9" y="119" width="0.3" height="15.0" fill="rgb(0,0,0)" rx="2" ry="2" />
<text  x="39.86" y="129.5" ></text>
</g>
<g >
<title>CreateExtMesh (946,212 us, 1.18%)</title><rect x="23.0" y="71" width="13.9" height="15.0" fill="rgb(0,0,0)" rx="2" ry="2" />
<text  x="25.98" y="81.5" ></text>
</g>
<g >
<title>PCApply (111,106 us, 0.14%)</title><rect x="616.1" y="167" width="1.7" height="15.0" fill="rgb(0,0,0)" rx="2" ry="2" />
<text  x="619.15" y="177.5" ></text>
</g>
<g >
<title>firedrake.variational_solver.NonlinearVariationalSolver.solve (39,137,319 us, 48.68%)</title><rect x="615.5" y="71" width="574.5" height="15.0" fill="rgb(0,0,0)" rx="2" ry="2" />
<text  x="618.53" y="81.5" >firedrake.variational_solver.NonlinearVariationalSolver.solve</text>
</g>
<g >
<title>SNESSolve (39,137,319 us, 48.68%)</title><rect x="615.5" y="87" width="574.5" height="15.0" fill="rgb(0,0,0)" rx="2" ry="2" />
<text  x="618.53" y="97.5" >SNESSolve</text>
</g>
<g >
<title>firedrake.assemble_expressions.assemble_expression (770,611 us, 0.96%)</title><rect x="59.5" y="87" width="11.3" height="15.0" fill="rgb(0,0,0)" rx="2" ry="2" />
<text  x="62.47" y="97.5" ></text>
</g>
<g >
<title>firedrake.tsfc_interface.compile_form (1,728,908 us, 2.15%)</title><rect x="1164.6" y="119" width="25.4" height="15.0" fill="rgb(0,0,0)" rx="2" ry="2" />
<text  x="1167.62" y="129.5" >f..</text>
</g>
<g >
<title>Parloop_set_#x7fa7a446efe0_wrap_expression_kernel (369,890 us, 0.46%)</title><rect x="59.5" y="135" width="5.4" height="15.0" fill="rgb(0,0,0)" rx="2" ry="2" />
<text  x="62.47" y="145.5" ></text>
</g>
<g >
<title>PCGAMG Squ l00 (14,592 us, 0.02%)</title><rect x="619.5" y="199" width="0.2" height="15.0" fill="rgb(0,0,0)" rx="2" ry="2" />
<text  x="622.54" y="209.5" ></text>
</g>
<g >
<title>firedrake.projection.project (22,471,578 us, 27.95%)</title><rect x="70.8" y="87" width="329.8" height="15.0" fill="rgb(0,0,0)" rx="2" ry="2" />
<text  x="73.78" y="97.5" >firedrake.projection.project</text>
</g>
<g >
<title>KSPSolve (51,693 us, 0.06%)</title><rect x="616.9" y="215" width="0.7" height="15.0" fill="rgb(0,0,0)" rx="2" ry="2" />
<text  x="619.87" y="225.5" ></text>
</g>
<g >
<title>pyop2.global_kernel.GlobalKernel.compile (6,824,418 us, 8.49%)</title><rect x="963.5" y="151" width="100.2" height="15.0" fill="rgb(0,0,0)" rx="2" ry="2" />
<text  x="966.52" y="161.5" >pyop2.globa..</text>
</g>
<g >
<title>Parloop_Cells_wrap_form0_cell_integral_otherwise (4,844,609 us, 6.03%)</title><rect x="70.9" y="119" width="71.1" height="15.0" fill="rgb(0,0,0)" rx="2" ry="2" />
<text  x="73.91" y="129.5" >Parloop..</text>
</g>
<g >
<title>Parloop_set_#x7fa7a44bded0_wrap_expression_kernel (382,348 us, 0.48%)</title><rect x="64.9" y="135" width="5.6" height="15.0" fill="rgb(0,0,0)" rx="2" ry="2" />
<text  x="67.89" y="145.5" ></text>
</g>
<g >
<title>pyop2.global_kernel.GlobalKernel.compile (4,844,609 us, 6.03%)</title><rect x="70.9" y="135" width="71.1" height="15.0" fill="rgb(0,0,0)" rx="2" ry="2" />
<text  x="73.91" y="145.5" >pyop2.g..</text>
</g>
<g >
<title>firedrake.tsfc_interface.compile_form (447,481 us, 0.56%)</title><rect x="394.1" y="103" width="6.5" height="15.0" fill="rgb(0,0,0)" rx="2" ry="2" />
<text  x="397.06" y="113.5" ></text>
</g>
<g >
<title>ParLoopExecute (4,844,609 us, 6.03%)</title><rect x="70.9" y="103" width="71.1" height="15.0" fill="rgb(0,0,0)" rx="2" ry="2" />
<text  x="73.91" y="113.5" >ParLoop..</text>
</g>
<g >
<title>PCSetUp (79,124 us, 0.10%)</title><rect x="622.4" y="103" width="1.2" height="15.0" fill="rgb(0,0,0)" rx="2" ry="2" />
<text  x="625.41" y="113.5" ></text>
</g>
<g >
<title>firedrake.tsfc_interface.compile_form (1,421,861 us, 1.77%)</title><rect x="747.0" y="119" width="20.9" height="15.0" fill="rgb(0,0,0)" rx="2" ry="2" />
<text  x="750.05" y="129.5" ></text>
</g>
<g >
<title>KSPSolve_FS_Schu (130,332 us, 0.16%)</title><rect x="620.5" y="135" width="1.9" height="15.0" fill="rgb(0,0,0)" rx="2" ry="2" />
<text  x="623.50" y="145.5" ></text>
</g>
<g >
<title>MatMult (52,844 us, 0.07%)</title><rect x="617.8" y="199" width="0.8" height="15.0" fill="rgb(0,0,0)" rx="2" ry="2" />
<text  x="620.78" y="209.5" ></text>
</g>
<g >
<title>pyop2.global_kernel.GlobalKernel.compile (6,867,557 us, 8.54%)</title><rect x="1063.8" y="151" width="100.8" height="15.0" fill="rgb(0,0,0)" rx="2" ry="2" />
<text  x="1066.82" y="161.5" >pyop2.globa..</text>
</g>
<g >
<title>firedrake.variational_solver.NonlinearVariationalProblem.__init__ (22,740 us, 0.03%)</title><rect x="623.2" y="151" width="0.4" height="15.0" fill="rgb(0,0,0)" rx="2" ry="2" />
<text  x="626.24" y="161.5" ></text>
</g>
<g >
<title>firedrake.extrusion_utils.make_extruded_coords (935,826 us, 1.16%)</title><rect x="23.1" y="87" width="13.8" height="15.0" fill="rgb(0,0,0)" rx="2" ry="2" />
<text  x="26.13" y="97.5" ></text>
</g>
<g >
<title>MatMult (10,009 us, 0.01%)</title><rect x="622.1" y="231" width="0.2" height="15.0" fill="rgb(0,0,0)" rx="2" ry="2" />
<text  x="625.14" y="241.5" ></text>
</g>
<g >
<title>firedrake.assemble.allocate_matrix (72,952 us, 0.09%)</title><rect x="384.3" y="119" width="1.0" height="15.0" fill="rgb(0,0,0)" rx="2" ry="2" />
<text  x="387.27" y="129.5" ></text>
</g>
<g >
<title>ParLoopExecute (27,026,224 us, 33.62%)</title><rect x="767.9" y="119" width="396.7" height="15.0" fill="rgb(0,0,0)" rx="2" ry="2" />
<text  x="770.92" y="129.5" >ParLoopExecute</text>
</g>
<g >
<title>CreateSparsity (50,254 us, 0.06%)</title><rect x="384.3" y="135" width="0.7" height="15.0" fill="rgb(0,0,0)" rx="2" ry="2" />
<text  x="387.27" y="145.5" ></text>
</g>
<g >
<title>pyop2.global_kernel.GlobalKernel.compile (382,348 us, 0.48%)</title><rect x="64.9" y="151" width="5.6" height="15.0" fill="rgb(0,0,0)" rx="2" ry="2" />
<text  x="67.89" y="161.5" ></text>
</g>
<g >
<title>GAMG: createProl (48,751 us, 0.06%)</title><rect x="619.5" y="167" width="0.8" height="15.0" fill="rgb(0,0,0)" rx="2" ry="2" />
<text  x="622.54" y="177.5" ></text>
</g>
<g >
<title>KSPSolve (119,716 us, 0.15%)</title><rect x="617.8" y="151" width="1.7" height="15.0" fill="rgb(0,0,0)" rx="2" ry="2" />
<text  x="620.78" y="161.5" ></text>
</g>
<g >
<title>MatResidual (9,877 us, 0.01%)</title><rect x="619.4" y="183" width="0.1" height="15.0" fill="rgb(0,0,0)" rx="2" ry="2" />
<text  x="622.39" y="193.5" ></text>
</g>
<g >
<title>pyop2.global_kernel.GlobalKernel.compile (903,552 us, 1.12%)</title><rect x="23.6" y="135" width="13.3" height="15.0" fill="rgb(0,0,0)" rx="2" ry="2" />
<text  x="26.60" y="145.5" ></text>
</g>
<g >
<title>pyop2.global_kernel.GlobalKernel.compile (4,351,071 us, 5.41%)</title><rect x="623.6" y="151" width="63.8" height="15.0" fill="rgb(0,0,0)" rx="2" ry="2" />
<text  x="626.57" y="161.5" >pyop2...</text>
</g>
<g >
<title>ParLoopExecute (903,552 us, 1.12%)</title><rect x="23.6" y="103" width="13.3" height="15.0" fill="rgb(0,0,0)" rx="2" ry="2" />
<text  x="26.60" y="113.5" ></text>
</g>
<g >
<title>firedrake.assemble.assemble (17,152,263 us, 21.34%)</title><rect x="142.0" y="103" width="251.8" height="15.0" fill="rgb(0,0,0)" rx="2" ry="2" />
<text  x="145.03" y="113.5" >firedrake.assemble.assemble</text>
</g>
<g >
<title>firedrake.variational_solver.NonlinearVariationalProblem.__init__ (12,167 us, 0.02%)</title><rect x="613.6" y="87" width="0.1" height="15.0" fill="rgb(0,0,0)" rx="2" ry="2" />
<text  x="616.56" y="97.5" ></text>
</g>
<g >
<title>firedrake.norms.errornorm (14,506,659 us, 18.05%)</title><rect x="400.6" y="71" width="213.0" height="15.0" fill="rgb(0,0,0)" rx="2" ry="2" />
<text  x="403.62" y="81.5" >firedrake.norms.errornorm</text>
</g>
<g >
<title>ParLoopExecute (16,503,376 us, 20.53%)</title><rect x="142.0" y="119" width="242.3" height="15.0" fill="rgb(0,0,0)" rx="2" ry="2" />
<text  x="145.03" y="129.5" >ParLoopExecute</text>
</g>
<g >
<title>MatMatMultSym (9,341 us, 0.01%)</title><rect x="622.8" y="119" width="0.2" height="15.0" fill="rgb(0,0,0)" rx="2" ry="2" />
<text  x="625.82" y="129.5" ></text>
</g>
<g >
<title>PCApply (56,995 us, 0.07%)</title><rect x="618.6" y="199" width="0.8" height="15.0" fill="rgb(0,0,0)" rx="2" ry="2" />
<text  x="621.55" y="209.5" ></text>
</g>
<g >
<title>pyop2.global_kernel.GlobalKernel.compile (16,486,267 us, 20.51%)</title><rect x="142.3" y="151" width="242.0" height="15.0" fill="rgb(0,0,0)" rx="2" ry="2" />
<text  x="145.28" y="161.5" >pyop2.global_kernel.GlobalKer..</text>
</g>
<g >
<title>KSPSolve (101,239 us, 0.13%)</title><rect x="616.1" y="183" width="1.5" height="15.0" fill="rgb(0,0,0)" rx="2" ry="2" />
<text  x="619.15" y="193.5" ></text>
</g>
<g >
<title>firedrake.functionspaceimpl.FunctionSpace.__init__ (22,660 us, 0.03%)</title><rect x="36.9" y="87" width="0.3" height="15.0" fill="rgb(0,0,0)" rx="2" ry="2" />
<text  x="39.86" y="97.5" ></text>
</g>
<g >
<title>firedrake.dmhooks.create_field_decomposition (41,611 us, 0.05%)</title><rect x="623.0" y="119" width="0.6" height="15.0" fill="rgb(0,0,0)" rx="2" ry="2" />
<text  x="625.96" y="129.5" ></text>
</g>
<g >
<title>MatTrnMatMultSym (14,592 us, 0.02%)</title><rect x="619.5" y="215" width="0.2" height="15.0" fill="rgb(0,0,0)" rx="2" ry="2" />
<text  x="622.54" y="225.5" ></text>
</g>
<g >
<title>PCGAMGGraph_AGG (22,524 us, 0.03%)</title><rect x="619.7" y="183" width="0.4" height="15.0" fill="rgb(0,0,0)" rx="2" ry="2" />
<text  x="622.75" y="193.5" ></text>
</g>
<g >
<title>firedrake.assemble.assemble (14,506,659 us, 18.05%)</title><rect x="400.6" y="103" width="213.0" height="15.0" fill="rgb(0,0,0)" rx="2" ry="2" />
<text  x="403.62" y="113.5" >firedrake.assemble.assemble</text>
</g>
<g >
<title>KSPSolve (111,106 us, 0.14%)</title><rect x="616.1" y="151" width="1.7" height="15.0" fill="rgb(0,0,0)" rx="2" ry="2" />
<text  x="619.15" y="161.5" ></text>
</g>
<g >
<title>firedrake (80,390,189 us, 100.00%)</title><rect x="10.0" y="55" width="1180.0" height="15.0" fill="rgb(0,0,0)" rx="2" ry="2" />
<text  x="13.00" y="65.5" >firedrake</text>
</g>
<g >
<title>MatResidual (10,009 us, 0.01%)</title><rect x="622.1" y="215" width="0.2" height="15.0" fill="rgb(0,0,0)" rx="2" ry="2" />
<text  x="625.14" y="225.5" ></text>
</g>
<g >
<title>KSPSolve (111,753 us, 0.14%)</title><rect x="620.6" y="183" width="1.7" height="15.0" fill="rgb(0,0,0)" rx="2" ry="2" />
<text  x="623.65" y="193.5" ></text>
</g>
<g >
<title>Parloop_Cells_wrap_pyop2_kernel_uniform_extrusion (903,552 us, 1.12%)</title><rect x="23.6" y="119" width="13.3" height="15.0" fill="rgb(0,0,0)" rx="2" ry="2" />
<text  x="26.60" y="129.5" ></text>
</g>
<g >
<title>Parloop_Cells_wrap_form10_cell_integral_otherwise (6,876,229 us, 8.55%)</title><rect x="1063.7" y="135" width="100.9" height="15.0" fill="rgb(0,0,0)" rx="2" ry="2" />
<text  x="1066.69" y="145.5" >Parloop_Cel..</text>
</g>
<g >
<title>MatResidual (9,867 us, 0.01%)</title><rect x="617.6" y="183" width="0.2" height="15.0" fill="rgb(0,0,0)" rx="2" ry="2" />
<text  x="620.63" y="193.5" ></text>
</g>
<g >
<title>MatMult (8,426 us, 0.01%)</title><rect x="622.3" y="183" width="0.1" height="15.0" fill="rgb(0,0,0)" rx="2" ry="2" />
<text  x="625.29" y="193.5" ></text>
</g>
<g >
<title>SNESJacobianEval (28,755,132 us, 35.77%)</title><rect x="767.9" y="103" width="422.1" height="15.0" fill="rgb(0,0,0)" rx="2" ry="2" />
<text  x="770.92" y="113.5" >SNESJacobianEval</text>
</g>
<g >
<title>firedrake.formmanipulation.ExtractSubBlock.split (8,634 us, 0.01%)</title><rect x="1189.9" y="151" width="0.1" height="15.0" fill="rgb(0,0,0)" rx="2" ry="2" />
<text  x="1192.87" y="161.5" ></text>
</g>
<g >
<title>PCApply (51,693 us, 0.06%)</title><rect x="616.9" y="231" width="0.7" height="15.0" fill="rgb(0,0,0)" rx="2" ry="2" />
<text  x="619.87" y="241.5" ></text>
</g>
<g >
<title>MatZeroInitial (22,698 us, 0.03%)</title><rect x="385.0" y="135" width="0.3" height="15.0" fill="rgb(0,0,0)" rx="2" ry="2" />
<text  x="388.01" y="145.5" ></text>
</g>
<g >
<title>KSPSolve_FS_0 (111,106 us, 0.14%)</title><rect x="616.1" y="135" width="1.7" height="15.0" fill="rgb(0,0,0)" rx="2" ry="2" />
<text  x="619.15" y="145.5" ></text>
</g>
<g >
<title>MatSOR (52,147 us, 0.06%)</title><rect x="621.4" y="279" width="0.7" height="15.0" fill="rgb(0,0,0)" rx="2" ry="2" />
<text  x="624.37" y="289.5" ></text>
</g>
<g >
<title>firedrake.functionspacedata.get_shared_data (22,660 us, 0.03%)</title><rect x="36.9" y="103" width="0.3" height="15.0" fill="rgb(0,0,0)" rx="2" ry="2" />
<text  x="39.86" y="113.5" ></text>
</g>
<g >
<title>KSPSolve (52,147 us, 0.06%)</title><rect x="621.4" y="247" width="0.7" height="15.0" fill="rgb(0,0,0)" rx="2" ry="2" />
<text  x="624.37" y="257.5" ></text>
</g>
<g >
<title>KSPSolve (130,332 us, 0.16%)</title><rect x="620.5" y="151" width="1.9" height="15.0" fill="rgb(0,0,0)" rx="2" ry="2" />
<text  x="623.50" y="161.5" ></text>
</g>
<g >
<title>CreateFunctionSpace (22,660 us, 0.03%)</title><rect x="36.9" y="71" width="0.3" height="15.0" fill="rgb(0,0,0)" rx="2" ry="2" />
<text  x="39.86" y="81.5" ></text>
</g>
<g >
<title>PCSetUpOnBlocks (17,875 us, 0.02%)</title><rect x="393.8" y="119" width="0.3" height="15.0" fill="rgb(0,0,0)" rx="2" ry="2" />
<text  x="396.79" y="129.5" ></text>
</g>
<g >
<title>pyop2.caching.disk_cached.&lt;locals&gt;.decorator.&lt;locals&gt;.wrapper (18,373 us, 0.02%)</title><rect x="70.5" y="119" width="0.3" height="15.0" fill="rgb(0,0,0)" rx="2" ry="2" />
<text  x="73.51" y="129.5" ></text>
</g>
<g >
<title>MatPtAPNumeric (8,268 us, 0.01%)</title><rect x="620.3" y="199" width="0.1" height="15.0" fill="rgb(0,0,0)" rx="2" ry="2" />
<text  x="623.25" y="209.5" ></text>
</g>
<g >
<title>PCGAMGPOpt_AGG (11,635 us, 0.01%)</title><rect x="620.1" y="183" width="0.2" height="15.0" fill="rgb(0,0,0)" rx="2" ry="2" />
<text  x="623.08" y="193.5" ></text>
</g>
<g >
<title>all (80,390,189 us, 100%)</title><rect x="10.0" y="39" width="1180.0" height="15.0" fill="rgb(0,0,0)" rx="2" ry="2" />
<text  x="13.00" y="49.5" ></text>
</g>
<g >
<title>KSPSolve (468,962 us, 0.58%)</title><rect x="615.5" y="103" width="6.9" height="15.0" fill="rgb(0,0,0)" rx="2" ry="2" />
<text  x="618.53" y="113.5" ></text>
</g>
<g >
<title>PCSetUp (17,875 us, 0.02%)</title><rect x="393.8" y="135" width="0.3" height="15.0" fill="rgb(0,0,0)" rx="2" ry="2" />
<text  x="396.79" y="145.5" ></text>
</g>
<g >
<title>MatCreateSubMats (13,226 us, 0.02%)</title><rect x="622.6" y="119" width="0.2" height="15.0" fill="rgb(0,0,0)" rx="2" ry="2" />
<text  x="625.63" y="129.5" ></text>
</g>
<g >
<title>firedrake.tsfc_interface.compile_form (575,935 us, 0.72%)</title><rect x="385.3" y="119" width="8.5" height="15.0" fill="rgb(0,0,0)" rx="2" ry="2" />
<text  x="388.34" y="129.5" ></text>
</g>
<g >
<title>firedrake.linear_solver.LinearSolver.solve (17,875 us, 0.02%)</title><rect x="393.8" y="103" width="0.3" height="15.0" fill="rgb(0,0,0)" rx="2" ry="2" />
<text  x="396.79" y="113.5" ></text>
</g>
<g >
<title>firedrake.__init__ (1,517,095 us, 1.89%)</title><rect x="37.2" y="71" width="22.3" height="15.0" fill="rgb(0,0,0)" rx="2" ry="2" />
<text  x="40.20" y="81.5" ></text>
</g>
<g >
<title>ParLoopExecute (752,238 us, 0.94%)</title><rect x="59.5" y="119" width="11.0" height="15.0" fill="rgb(0,0,0)" rx="2" ry="2" />
<text  x="62.47" y="129.5" ></text>
</g>
<g >
<title>firedrake.assemble.assemble (770,611 us, 0.96%)</title><rect x="59.5" y="71" width="11.3" height="15.0" fill="rgb(0,0,0)" rx="2" ry="2" />
<text  x="62.47" y="81.5" ></text>
</g>
<g >
<title>firedrake.assemble.allocate_matrix (121,916 us, 0.15%)</title><rect x="613.7" y="87" width="1.8" height="15.0" fill="rgb(0,0,0)" rx="2" ry="2" />
<text  x="616.74" y="97.5" ></text>
</g>
<g >
<title>KSPSetUp (8,481 us, 0.01%)</title><rect x="620.4" y="167" width="0.1" height="15.0" fill="rgb(0,0,0)" rx="2" ry="2" />
<text  x="623.37" y="177.5" ></text>
</g>
<g >
<title>PCSetUp (65,500 us, 0.08%)</title><rect x="619.5" y="151" width="1.0" height="15.0" fill="rgb(0,0,0)" rx="2" ry="2" />
<text  x="622.54" y="161.5" ></text>
</g>
</g>
</svg>
