<?xml version="1.0" standalone="no"?>
<!DOCTYPE svg PUBLIC "-//W3C//DTD SVG 1.1//EN" "http://www.w3.org/Graphics/SVG/1.1/DTD/svg11.dtd">
<svg version="1.1" width="1200" height="267" onload="init(evt)" viewBox="0 0 1200 267" xmlns="http://www.w3.org/2000/svg" xmlns:xlink="http://www.w3.org/1999/xlink">
<!-- Flame graph stack visualization. See https://github.com/brendangregg/FlameGraph for latest version, and http://www.brendangregg.com/flamegraphs.html for examples. -->
<!-- NOTES:  -->
<defs>
	<linearGradient id="background" y1="0" y2="1" x1="0" x2="0" >
		<stop stop-color="#eeeeee" offset="5%" />
		<stop stop-color="#eeeeb0" offset="95%" />
	</linearGradient>
</defs>
<style type="text/css">
	text { font-family:Verdana; font-size:13px; fill:rgb(0,0,0); }
	#search, #ignorecase { opacity:0.1; cursor:pointer; }
	#search:hover, #search.show, #ignorecase:hover, #ignorecase.show { opacity:1; }
	#subtitle { text-anchor:middle; font-color:rgb(160,160,160); }
	#title { text-anchor:middle; font-size:18px}
	#unzoom { cursor:pointer; }
	#frames > *:hover { stroke:black; stroke-width:0.5; cursor:pointer; }
	.hide { display:none; }
	.parent { opacity:0.5; }
</style>
<script type="text/ecmascript">
<![CDATA[
	"use strict";
	var details, searchbtn, unzoombtn, matchedtxt, svg, searching, currentSearchTerm, ignorecase, ignorecaseBtn;
	function init(evt) {
		details = document.getElementById("details").firstChild;
		searchbtn = document.getElementById("search");
		ignorecaseBtn = document.getElementById("ignorecase");
		unzoombtn = document.getElementById("unzoom");
		matchedtxt = document.getElementById("matched");
		svg = document.getElementsByTagName("svg")[0];
		searching = 0;
		currentSearchTerm = null;

		// use GET parameters to restore a flamegraphs state.
		var params = get_params();
		if (params.x && params.y)
			zoom(find_group(document.querySelector('[x="' + params.x + '"][y="' + params.y + '"]')));
                if (params.s) search(params.s);
	}

	// event listeners
	window.addEventListener("click", function(e) {
		var target = find_group(e.target);
		if (target) {
			if (target.nodeName == "a") {
				if (e.ctrlKey === false) return;
				e.preventDefault();
			}
			if (target.classList.contains("parent")) unzoom();
			zoom(target);
			if (!document.querySelector('.parent')) {
				clearzoom();
				return;
			}

			// set parameters for zoom state
			var el = target.querySelector("rect");
			if (el && el.attributes && el.attributes.y && el.attributes._orig_x) {
				var params = get_params()
				params.x = el.attributes._orig_x.value;
				params.y = el.attributes.y.value;
				history.replaceState(null, null, parse_params(params));
			}
		}
		else if (e.target.id == "unzoom") clearzoom();
		else if (e.target.id == "search") search_prompt();
		else if (e.target.id == "ignorecase") toggle_ignorecase();
	}, false)

	// mouse-over for info
	// show
	window.addEventListener("mouseover", function(e) {
		var target = find_group(e.target);
		if (target) details.nodeValue = "Function: " + g_to_text(target);
	}, false)

	// clear
	window.addEventListener("mouseout", function(e) {
		var target = find_group(e.target);
		if (target) details.nodeValue = ' ';
	}, false)

	// ctrl-F for search
	// ctrl-I to toggle case-sensitive search
	window.addEventListener("keydown",function (e) {
		if (e.keyCode === 114 || (e.ctrlKey && e.keyCode === 70)) {
			e.preventDefault();
			search_prompt();
		}
		else if (e.ctrlKey && e.keyCode === 73) {
			e.preventDefault();
			toggle_ignorecase();
		}
	}, false)

	// functions
	function get_params() {
		var params = {};
		var paramsarr = window.location.search.substr(1).split('&');
		for (var i = 0; i < paramsarr.length; ++i) {
			var tmp = paramsarr[i].split("=");
			if (!tmp[0] || !tmp[1]) continue;
			params[tmp[0]]  = decodeURIComponent(tmp[1]);
		}
		return params;
	}
	function parse_params(params) {
		var uri = "?";
		for (var key in params) {
			uri += key + '=' + encodeURIComponent(params[key]) + '&';
		}
		if (uri.slice(-1) == "&")
			uri = uri.substring(0, uri.length - 1);
		if (uri == '?')
			uri = window.location.href.split('?')[0];
		return uri;
	}
	function find_child(node, selector) {
		var children = node.querySelectorAll(selector);
		if (children.length) return children[0];
	}
	function find_group(node) {
		var parent = node.parentElement;
		if (!parent) return;
		if (parent.id == "frames") return node;
		return find_group(parent);
	}
	function orig_save(e, attr, val) {
		if (e.attributes["_orig_" + attr] != undefined) return;
		if (e.attributes[attr] == undefined) return;
		if (val == undefined) val = e.attributes[attr].value;
		e.setAttribute("_orig_" + attr, val);
	}
	function orig_load(e, attr) {
		if (e.attributes["_orig_"+attr] == undefined) return;
		e.attributes[attr].value = e.attributes["_orig_" + attr].value;
		e.removeAttribute("_orig_"+attr);
	}
	function g_to_text(e) {
		var text = find_child(e, "title").firstChild.nodeValue;
		return (text)
	}
	function g_to_func(e) {
		var func = g_to_text(e);
		// if there's any manipulation we want to do to the function
		// name before it's searched, do it here before returning.
		return (func);
	}
	function update_text(e) {
		var r = find_child(e, "rect");
		var t = find_child(e, "text");
		var w = parseFloat(r.attributes.width.value) -3;
		var txt = find_child(e, "title").textContent.replace(/\([^(]*\)$/,"");
		t.attributes.x.value = parseFloat(r.attributes.x.value) + 3;

		// Smaller than this size won't fit anything
		if (w < 2 * 13 * 0.59) {
			t.textContent = "";
			return;
		}

		t.textContent = txt;
		// Fit in full text width
		if (/^ *$/.test(txt) || t.getSubStringLength(0, txt.length) < w)
			return;

		for (var x = txt.length - 2; x > 0; x--) {
			if (t.getSubStringLength(0, x + 2) <= w) {
				t.textContent = txt.substring(0, x) + "..";
				return;
			}
		}
		t.textContent = "";
	}

	// zoom
	function zoom_reset(e) {
		if (e.attributes != undefined) {
			orig_load(e, "x");
			orig_load(e, "width");
		}
		if (e.childNodes == undefined) return;
		for (var i = 0, c = e.childNodes; i < c.length; i++) {
			zoom_reset(c[i]);
		}
	}
	function zoom_child(e, x, ratio) {
		if (e.attributes != undefined) {
			if (e.attributes.x != undefined) {
				orig_save(e, "x");
				e.attributes.x.value = (parseFloat(e.attributes.x.value) - x - 10) * ratio + 10;
				if (e.tagName == "text")
					e.attributes.x.value = find_child(e.parentNode, "rect[x]").attributes.x.value + 3;
			}
			if (e.attributes.width != undefined) {
				orig_save(e, "width");
				e.attributes.width.value = parseFloat(e.attributes.width.value) * ratio;
			}
		}

		if (e.childNodes == undefined) return;
		for (var i = 0, c = e.childNodes; i < c.length; i++) {
			zoom_child(c[i], x - 10, ratio);
		}
	}
	function zoom_parent(e) {
		if (e.attributes) {
			if (e.attributes.x != undefined) {
				orig_save(e, "x");
				e.attributes.x.value = 10;
			}
			if (e.attributes.width != undefined) {
				orig_save(e, "width");
				e.attributes.width.value = parseInt(svg.width.baseVal.value) - (10 * 2);
			}
		}
		if (e.childNodes == undefined) return;
		for (var i = 0, c = e.childNodes; i < c.length; i++) {
			zoom_parent(c[i]);
		}
	}
	function zoom(node) {
		var attr = find_child(node, "rect").attributes;
		var width = parseFloat(attr.width.value);
		var xmin = parseFloat(attr.x.value);
		var xmax = parseFloat(xmin + width);
		var ymin = parseFloat(attr.y.value);
		var ratio = (svg.width.baseVal.value - 2 * 10) / width;

		// XXX: Workaround for JavaScript float issues (fix me)
		var fudge = 0.0001;

		unzoombtn.classList.remove("hide");

		var el = document.getElementById("frames").children;
		for (var i = 0; i < el.length; i++) {
			var e = el[i];
			var a = find_child(e, "rect").attributes;
			var ex = parseFloat(a.x.value);
			var ew = parseFloat(a.width.value);
			var upstack;
			// Is it an ancestor
			if (1 == 0) {
				upstack = parseFloat(a.y.value) > ymin;
			} else {
				upstack = parseFloat(a.y.value) < ymin;
			}
			if (upstack) {
				// Direct ancestor
				if (ex <= xmin && (ex+ew+fudge) >= xmax) {
					e.classList.add("parent");
					zoom_parent(e);
					update_text(e);
				}
				// not in current path
				else
					e.classList.add("hide");
			}
			// Children maybe
			else {
				// no common path
				if (ex < xmin || ex + fudge >= xmax) {
					e.classList.add("hide");
				}
				else {
					zoom_child(e, xmin, ratio);
					update_text(e);
				}
			}
		}
		search();
	}
	function unzoom() {
		unzoombtn.classList.add("hide");
		var el = document.getElementById("frames").children;
		for(var i = 0; i < el.length; i++) {
			el[i].classList.remove("parent");
			el[i].classList.remove("hide");
			zoom_reset(el[i]);
			update_text(el[i]);
		}
		search();
	}
	function clearzoom() {
		unzoom();

		// remove zoom state
		var params = get_params();
		if (params.x) delete params.x;
		if (params.y) delete params.y;
		history.replaceState(null, null, parse_params(params));
	}

	// search
	function toggle_ignorecase() {
		ignorecase = !ignorecase;
		if (ignorecase) {
			ignorecaseBtn.classList.add("show");
		} else {
			ignorecaseBtn.classList.remove("show");
		}
		reset_search();
		search();
	}
	function reset_search() {
		var el = document.querySelectorAll("#frames rect");
		for (var i = 0; i < el.length; i++) {
			orig_load(el[i], "fill")
		}
		var params = get_params();
		delete params.s;
		history.replaceState(null, null, parse_params(params));
	}
	function search_prompt() {
		if (!searching) {
			var term = prompt("Enter a search term (regexp " +
			    "allowed, eg: ^ext4_)"
			    + (ignorecase ? ", ignoring case" : "")
			    + "\nPress Ctrl-i to toggle case sensitivity", "");
			if (term != null) search(term);
		} else {
			reset_search();
			searching = 0;
			currentSearchTerm = null;
			searchbtn.classList.remove("show");
			searchbtn.firstChild.nodeValue = "Search"
			matchedtxt.classList.add("hide");
			matchedtxt.firstChild.nodeValue = ""
		}
	}
	function search(term) {
		if (term) currentSearchTerm = term;

		var re = new RegExp(currentSearchTerm, ignorecase ? 'i' : '');
		var el = document.getElementById("frames").children;
		var matches = new Object();
		var maxwidth = 0;
		for (var i = 0; i < el.length; i++) {
			var e = el[i];
			var func = g_to_func(e);
			var rect = find_child(e, "rect");
			if (func == null || rect == null)
				continue;

			// Save max width. Only works as we have a root frame
			var w = parseFloat(rect.attributes.width.value);
			if (w > maxwidth)
				maxwidth = w;

			if (func.match(re)) {
				// highlight
				var x = parseFloat(rect.attributes.x.value);
				orig_save(rect, "fill");
				rect.attributes.fill.value = "rgb(230,0,230)";

				// remember matches
				if (matches[x] == undefined) {
					matches[x] = w;
				} else {
					if (w > matches[x]) {
						// overwrite with parent
						matches[x] = w;
					}
				}
				searching = 1;
			}
		}
		if (!searching)
			return;
		var params = get_params();
		params.s = currentSearchTerm;
		history.replaceState(null, null, parse_params(params));

		searchbtn.classList.add("show");
		searchbtn.firstChild.nodeValue = "Reset Search";

		// calculate percent matched, excluding vertical overlap
		var count = 0;
		var lastx = -1;
		var lastw = 0;
		var keys = Array();
		for (k in matches) {
			if (matches.hasOwnProperty(k))
				keys.push(k);
		}
		// sort the matched frames by their x location
		// ascending, then width descending
		keys.sort(function(a, b){
			return a - b;
		});
		// Step through frames saving only the biggest bottom-up frames
		// thanks to the sort order. This relies on the tree property
		// where children are always smaller than their parents.
		var fudge = 0.0001;	// JavaScript floating point
		for (var k in keys) {
			var x = parseFloat(keys[k]);
			var w = matches[keys[k]];
			if (x >= lastx + lastw - fudge) {
				count += w;
				lastx = x;
				lastw = w;
			}
		}
		// display matched percent
		matchedtxt.classList.remove("hide");
		var pct = 100 * count / maxwidth;
		if (pct != 100) pct = pct.toFixed(1)
		matchedtxt.firstChild.nodeValue = "Matched: " + pct + "%";
	}
]]>
</script>
<rect x="0.0" y="0" width="1200.0" height="267.0" fill="url(#background)"  />
<text id="title" x="600.00" y="26" >Firedrake example</text>
<text id="details" x="10.00" y="249" > </text>
<text id="unzoom" x="10.00" y="26" class="hide">Reset Zoom</text>
<text id="search" x="1090.00" y="26" >Search</text>
<text id="ignorecase" x="1174.00" y="26" >ic</text>
<text id="matched" x="1090.00" y="249" > </text>
<g id="frames">
<g >
<title>firedrake.tsfc_interface.compile_form (1,490,844 us, 1.05%)</title><rect x="418.5" y="119" width="12.4" height="15.0" fill="rgb(0,0,0)" rx="2" ry="2" />
<text  x="421.50" y="129.5" ></text>
</g>
<g >
<title>ParLoopExecute (8,330,194 us, 5.87%)</title><rect x="40.1" y="87" width="69.3" height="15.0" fill="rgb(0,0,0)" rx="2" ry="2" />
<text  x="43.07" y="97.5" >ParLoop..</text>
</g>
<g >
<title>CreateExtMesh (921,340 us, 0.65%)</title><rect x="19.3" y="71" width="7.7" height="15.0" fill="rgb(0,0,0)" rx="2" ry="2" />
<text  x="22.34" y="81.5" ></text>
</g>
<g >
<title>KSPSolve (54,335,355 us, 38.31%)</title><rect x="499.6" y="103" width="452.0" height="15.0" fill="rgb(0,0,0)" rx="2" ry="2" />
<text  x="502.57" y="113.5" >KSPSolve</text>
</g>
<g >
<title>HybridInit (21,468,103 us, 15.14%)</title><rect x="951.6" y="119" width="178.6" height="15.0" fill="rgb(0,0,0)" rx="2" ry="2" />
<text  x="954.60" y="129.5" >HybridInit</text>
</g>
<g >
<title>Parloop_Cells_wrap_form00_exterior_facet_top_integral_otherwise (2,035,163 us, 1.43%)</title><rect x="348.9" y="135" width="16.9" height="15.0" fill="rgb(0,0,0)" rx="2" ry="2" />
<text  x="351.86" y="145.5" ></text>
</g>
<g >
<title>pyop2.global_kernel.GlobalKernel.compile (1,353,033 us, 0.95%)</title><rect x="162.3" y="135" width="11.3" height="15.0" fill="rgb(0,0,0)" rx="2" ry="2" />
<text  x="165.30" y="145.5" ></text>
</g>
<g >
<title>firedrake.function.Function.project (38,140,821 us, 26.89%)</title><rect x="124.6" y="71" width="317.3" height="15.0" fill="rgb(0,0,0)" rx="2" ry="2" />
<text  x="127.56" y="81.5" >firedrake.function.Function.project</text>
</g>
<g >
<title>Parloop_Cells_wrap_form0_exterior_facet_bottom_integral_otherwise (1,353,033 us, 0.95%)</title><rect x="162.3" y="119" width="11.3" height="15.0" fill="rgb(0,0,0)" rx="2" ry="2" />
<text  x="165.30" y="129.5" ></text>
</g>
<g >
<title>firedrake.tsfc_interface.compile_form (1,332,983 us, 0.94%)</title><rect x="488.3" y="119" width="11.1" height="15.0" fill="rgb(0,0,0)" rx="2" ry="2" />
<text  x="491.32" y="129.5" ></text>
</g>
<g >
<title>ParLoopExecute (826,153 us, 0.58%)</title><rect x="109.4" y="119" width="6.8" height="15.0" fill="rgb(0,0,0)" rx="2" ry="2" />
<text  x="112.37" y="129.5" ></text>
</g>
<g >
<title>Parloop_Cells_wrap_form0_interior_facet_horiz_integral_otherwise (1,561,957 us, 1.10%)</title><rect x="185.0" y="119" width="13.0" height="15.0" fill="rgb(0,0,0)" rx="2" ry="2" />
<text  x="187.98" y="129.5" ></text>
</g>
<g >
<title>firedrake.variational_solver.LinearVariationalProblem.__init__ (19,507 us, 0.01%)</title><rect x="499.4" y="71" width="0.2" height="15.0" fill="rgb(0,0,0)" rx="2" ry="2" />
<text  x="502.40" y="81.5" ></text>
</g>
<g >
<title>firedrake.extrusion_utils.make_extruded_coords (921,340 us, 0.65%)</title><rect x="19.3" y="87" width="7.7" height="15.0" fill="rgb(0,0,0)" rx="2" ry="2" />
<text  x="22.34" y="97.5" ></text>
</g>
<g >
<title>firedrake.norms.errornorm (6,916,342 us, 4.88%)</title><rect x="441.9" y="71" width="57.5" height="15.0" fill="rgb(0,0,0)" rx="2" ry="2" />
<text  x="444.87" y="81.5" >fired..</text>
</g>
<g >
<title>firedrake.assemble_expressions.evaluate_expression (845,922 us, 0.60%)</title><rect x="109.4" y="103" width="7.0" height="15.0" fill="rgb(0,0,0)" rx="2" ry="2" />
<text  x="112.37" y="113.5" ></text>
</g>
<g >
<title>Parloop_Cells_wrap_form_cell_integral_otherwise (5,583,359 us, 3.94%)</title><rect x="441.9" y="135" width="46.4" height="15.0" fill="rgb(0,0,0)" rx="2" ry="2" />
<text  x="444.87" y="145.5" >Parl..</text>
</g>
<g >
<title>pyop2.global_kernel.GlobalKernel.compile (12,055,657 us, 8.50%)</title><rect x="234.4" y="151" width="100.3" height="15.0" fill="rgb(0,0,0)" rx="2" ry="2" />
<text  x="237.42" y="161.5" >pyop2.globa..</text>
</g>
<g >
<title>Parloop_Cells_wrap_form00_interior_facet_horiz_integral_otherwise (1,763,296 us, 1.24%)</title><rect x="365.8" y="135" width="14.7" height="15.0" fill="rgb(0,0,0)" rx="2" ry="2" />
<text  x="368.79" y="145.5" ></text>
</g>
<g >
<title>pyop2.global_kernel.GlobalKernel.compile (4,512,916 us, 3.18%)</title><rect x="124.8" y="135" width="37.5" height="15.0" fill="rgb(0,0,0)" rx="2" ry="2" />
<text  x="127.76" y="145.5" >py..</text>
</g>
<g >
<title>Parloop_IntFacets_wrap_form00_interior_facet_vert_integral_otherwise (2,310,400 us, 1.63%)</title><rect x="399.1" y="135" width="19.2" height="15.0" fill="rgb(0,0,0)" rx="2" ry="2" />
<text  x="402.12" y="145.5" ></text>
</g>
<g >
<title>pyop2.global_kernel.GlobalKernel.compile (418,553 us, 0.30%)</title><rect x="109.4" y="151" width="3.5" height="15.0" fill="rgb(0,0,0)" rx="2" ry="2" />
<text  x="112.37" y="161.5" ></text>
</g>
<g >
<title>firedrake.__init__ (1,551,028 us, 1.09%)</title><rect x="27.2" y="71" width="12.9" height="15.0" fill="rgb(0,0,0)" rx="2" ry="2" />
<text  x="30.17" y="81.5" ></text>
</g>
<g >
<title>firedrake.functionspacedata.FunctionSpaceData.__init__ (19,925 us, 0.01%)</title><rect x="27.0" y="119" width="0.2" height="15.0" fill="rgb(0,0,0)" rx="2" ry="2" />
<text  x="30.00" y="129.5" ></text>
</g>
<g >
<title>ParLoopExecute (11,427,428 us, 8.06%)</title><rect x="841.4" y="167" width="95.1" height="15.0" fill="rgb(0,0,0)" rx="2" ry="2" />
<text  x="844.41" y="177.5" >ParLoopExe..</text>
</g>
<g >
<title>ParLoopExecute (854,804 us, 0.60%)</title><rect x="563.1" y="183" width="7.1" height="15.0" fill="rgb(0,0,0)" rx="2" ry="2" />
<text  x="566.07" y="193.5" ></text>
</g>
<g >
<title>pyop2.global_kernel.GlobalKernel.compile (677,444 us, 0.48%)</title><rect x="1124.6" y="183" width="5.6" height="15.0" fill="rgb(0,0,0)" rx="2" ry="2" />
<text  x="1127.56" y="193.5" ></text>
</g>
<g >
<title>pyop2.global_kernel.GlobalKernel.compile (1,700,937 us, 1.20%)</title><rect x="334.7" y="151" width="14.2" height="15.0" fill="rgb(0,0,0)" rx="2" ry="2" />
<text  x="337.71" y="161.5" ></text>
</g>
<g >
<title>Parloop_Cells_wrap_form_exterior_facet_top_integral_otherwise (1,351,848 us, 0.95%)</title><rect x="50.6" y="103" width="11.2" height="15.0" fill="rgb(0,0,0)" rx="2" ry="2" />
<text  x="53.58" y="113.5" ></text>
</g>
<g >
<title>Parloop_Cells_wrap_form_interior_facet_horiz_integral_otherwise (1,351,442 us, 0.95%)</title><rect x="61.8" y="103" width="11.3" height="15.0" fill="rgb(0,0,0)" rx="2" ry="2" />
<text  x="64.83" y="113.5" ></text>
</g>
<g >
<title>ParLoopExecute (14,025,917 us, 9.89%)</title><rect x="670.4" y="167" width="116.6" height="15.0" fill="rgb(0,0,0)" rx="2" ry="2" />
<text  x="673.36" y="177.5" >ParLoopExecute</text>
</g>
<g >
<title>pyop2.global_kernel.GlobalKernel.compile (2,242,390 us, 1.58%)</title><rect x="380.5" y="151" width="18.6" height="15.0" fill="rgb(0,0,0)" rx="2" ry="2" />
<text  x="383.46" y="161.5" ></text>
</g>
<g >
<title>PCApply (47,900,871 us, 33.77%)</title><rect x="553.1" y="119" width="398.5" height="15.0" fill="rgb(0,0,0)" rx="2" ry="2" />
<text  x="556.10" y="129.5" >PCApply</text>
</g>
<g >
<title>Parloop_Cells_wrap_wrap_slate_loopy_knl_7 (14,025,917 us, 9.89%)</title><rect x="670.4" y="183" width="116.6" height="15.0" fill="rgb(0,0,0)" rx="2" ry="2" />
<text  x="673.36" y="193.5" >Parloop_Cells..</text>
</g>
<g >
<title>pyop2.global_kernel.GlobalKernel.compile (1,981,114 us, 1.40%)</title><rect x="73.1" y="119" width="16.5" height="15.0" fill="rgb(0,0,0)" rx="2" ry="2" />
<text  x="76.07" y="129.5" ></text>
</g>
<g >
<title>firedrake.functionspaceimpl.FunctionSpace.__init__ (19,925 us, 0.01%)</title><rect x="27.0" y="87" width="0.2" height="15.0" fill="rgb(0,0,0)" rx="2" ry="2" />
<text  x="30.00" y="97.5" ></text>
</g>
<g >
<title>firedrake.tsfc_interface.compile_form (1,317,754 us, 0.93%)</title><rect x="430.9" y="103" width="11.0" height="15.0" fill="rgb(0,0,0)" rx="2" ry="2" />
<text  x="433.90" y="113.5" ></text>
</g>
<g >
<title>firedrake.assemble_expressions.assemble_expression (845,922 us, 0.60%)</title><rect x="109.4" y="87" width="7.0" height="15.0" fill="rgb(0,0,0)" rx="2" ry="2" />
<text  x="112.37" y="97.5" ></text>
</g>
<g >
<title>pyop2.global_kernel.GlobalKernel.compile (10,506,230 us, 7.41%)</title><rect x="570.2" y="183" width="87.4" height="15.0" fill="rgb(0,0,0)" rx="2" ry="2" />
<text  x="573.18" y="193.5" >pyop2.glo..</text>
</g>
<g >
<title>ParLoopExecute (889,617 us, 0.63%)</title><rect x="19.6" y="103" width="7.4" height="15.0" fill="rgb(0,0,0)" rx="2" ry="2" />
<text  x="22.60" y="113.5" ></text>
</g>
<g >
<title>Parloop_ExtFacets_wrap_form00_exterior_facet_vert_integral_otherwise (2,242,390 us, 1.58%)</title><rect x="380.5" y="135" width="18.6" height="15.0" fill="rgb(0,0,0)" rx="2" ry="2" />
<text  x="383.46" y="145.5" ></text>
</g>
<g >
<title>Parloop_Cells_wrap_pyop2_kernel_uniform_extrusion (889,617 us, 0.63%)</title><rect x="19.6" y="119" width="7.4" height="15.0" fill="rgb(0,0,0)" rx="2" ry="2" />
<text  x="22.60" y="129.5" ></text>
</g>
<g >
<title>Parloop_ExtFacets_wrap_form_exterior_facet_vert_integral_otherwise (1,981,114 us, 1.40%)</title><rect x="73.1" y="103" width="16.5" height="15.0" fill="rgb(0,0,0)" rx="2" ry="2" />
<text  x="76.07" y="113.5" ></text>
</g>
<g >
<title>firedrake.projection.project (38,140,821 us, 26.89%)</title><rect x="124.6" y="87" width="317.3" height="15.0" fill="rgb(0,0,0)" rx="2" ry="2" />
<text  x="127.56" y="97.5" >firedrake.projection.project</text>
</g>
<g >
<title>pyop2.global_kernel.GlobalKernel.compile (2,035,163 us, 1.43%)</title><rect x="348.9" y="151" width="16.9" height="15.0" fill="rgb(0,0,0)" rx="2" ry="2" />
<text  x="351.86" y="161.5" ></text>
</g>
<g >
<title>SNESFunctionEval (7,188,481 us, 5.07%)</title><rect x="1130.2" y="103" width="59.8" height="15.0" fill="rgb(0,0,0)" rx="2" ry="2" />
<text  x="1133.20" y="113.5" >SNESF..</text>
</g>
<g >
<title>Parloop_IntFacets_wrap_form_interior_facet_vert_integral_otherwise (2,382,072 us, 1.68%)</title><rect x="89.6" y="103" width="19.8" height="15.0" fill="rgb(0,0,0)" rx="2" ry="2" />
<text  x="92.56" y="113.5" ></text>
</g>
<g >
<title>ParLoopExecute (924,148 us, 0.65%)</title><rect x="823.8" y="183" width="7.7" height="15.0" fill="rgb(0,0,0)" rx="2" ry="2" />
<text  x="826.79" y="193.5" ></text>
</g>
<g >
<title>ParLoopExecute (5,536,655 us, 3.90%)</title><rect x="499.6" y="151" width="46.0" height="15.0" fill="rgb(0,0,0)" rx="2" ry="2" />
<text  x="502.57" y="161.5" >ParL..</text>
</g>
<g >
<title>MatMult (6,434,484 us, 4.54%)</title><rect x="499.6" y="119" width="53.5" height="15.0" fill="rgb(0,0,0)" rx="2" ry="2" />
<text  x="502.57" y="129.5" >MatM..</text>
</g>
<g >
<title>pyop2.global_kernel.GlobalKernel.compile (854,804 us, 0.60%)</title><rect x="563.1" y="215" width="7.1" height="15.0" fill="rgb(0,0,0)" rx="2" ry="2" />
<text  x="566.07" y="225.5" ></text>
</g>
<g >
<title>firedrake.parloops.par_loop (854,804 us, 0.60%)</title><rect x="563.1" y="167" width="7.1" height="15.0" fill="rgb(0,0,0)" rx="2" ry="2" />
<text  x="566.07" y="177.5" ></text>
</g>
<g >
<title>pyop2.global_kernel.GlobalKernel.compile (1,351,442 us, 0.95%)</title><rect x="61.8" y="119" width="11.3" height="15.0" fill="rgb(0,0,0)" rx="2" ry="2" />
<text  x="64.83" y="129.5" ></text>
</g>
<g >
<title>Parloop_ExtFacets_wrap_form0_exterior_facet_vert_integral_otherwise (2,016,270 us, 1.42%)</title><rect x="198.0" y="119" width="16.7" height="15.0" fill="rgb(0,0,0)" rx="2" ry="2" />
<text  x="200.97" y="129.5" ></text>
</g>
<g >
<title>Parloop_Cells_wrap_form_exterior_facet_bottom_integral_otherwise (1,263,718 us, 0.89%)</title><rect x="40.1" y="103" width="10.5" height="15.0" fill="rgb(0,0,0)" rx="2" ry="2" />
<text  x="43.07" y="113.5" ></text>
</g>
<g >
<title>firedrake (141,839,268 us, 100.00%)</title><rect x="10.0" y="55" width="1180.0" height="15.0" fill="rgb(0,0,0)" rx="2" ry="2" />
<text  x="13.00" y="65.5" >firedrake</text>
</g>
<g >
<title>firedrake.tsfc_interface.compile_form (1,907,393 us, 1.34%)</title><rect x="807.9" y="151" width="15.9" height="15.0" fill="rgb(0,0,0)" rx="2" ry="2" />
<text  x="810.92" y="161.5" ></text>
</g>
<g >
<title>firedrake.assemble.assemble (23,618,266 us, 16.65%)</title><rect x="234.4" y="103" width="196.5" height="15.0" fill="rgb(0,0,0)" rx="2" ry="2" />
<text  x="237.42" y="113.5" >firedrake.assemble.asse..</text>
</g>
<g >
<title>firedrake.assemble.assemble (6,916,342 us, 4.88%)</title><rect x="441.9" y="103" width="57.5" height="15.0" fill="rgb(0,0,0)" rx="2" ry="2" />
<text  x="444.87" y="113.5" >fired..</text>
</g>
<g >
<title>pyop2.global_kernel.GlobalKernel.compile (2,382,072 us, 1.68%)</title><rect x="89.6" y="119" width="19.8" height="15.0" fill="rgb(0,0,0)" rx="2" ry="2" />
<text  x="92.56" y="129.5" ></text>
</g>
<g >
<title>pyop2.global_kernel.GlobalKernel.compile (1,351,848 us, 0.95%)</title><rect x="50.6" y="119" width="11.2" height="15.0" fill="rgb(0,0,0)" rx="2" ry="2" />
<text  x="53.58" y="129.5" ></text>
</g>
<g >
<title>ParLoopExecute (13,181,502 us, 9.29%)</title><rect x="124.8" y="103" width="109.6" height="15.0" fill="rgb(0,0,0)" rx="2" ry="2" />
<text  x="127.76" y="113.5" >ParLoopExecute</text>
</g>
<g >
<title>SCForwardElim (15,362,590 us, 10.83%)</title><rect x="823.8" y="135" width="127.8" height="15.0" fill="rgb(0,0,0)" rx="2" ry="2" />
<text  x="826.79" y="145.5" >SCForwardElim</text>
</g>
<g >
<title>Parloop_Cells_wrap_wrap_slate_loopy_knl_0 (16,394,568 us, 11.56%)</title><rect x="966.5" y="167" width="136.4" height="15.0" fill="rgb(0,0,0)" rx="2" ry="2" />
<text  x="969.48" y="177.5" >Parloop_Cells_w..</text>
</g>
<g >
<title>Parloop_Cells_wrap_form1_cell_integral_otherwise (2,305,309 us, 1.63%)</title><rect x="526.4" y="167" width="19.2" height="15.0" fill="rgb(0,0,0)" rx="2" ry="2" />
<text  x="529.45" y="177.5" ></text>
</g>
<g >
<title>HybridOperatorAssembly (20,720,046 us, 14.61%)</title><rect x="952.1" y="135" width="172.3" height="15.0" fill="rgb(0,0,0)" rx="2" ry="2" />
<text  x="955.05" y="145.5" >HybridOperatorAssembly</text>
</g>
<g >
<title>Parloop_Cells_wrap_par_loop_kernel (924,148 us, 0.65%)</title><rect x="823.8" y="199" width="7.7" height="15.0" fill="rgb(0,0,0)" rx="2" ry="2" />
<text  x="826.79" y="209.5" ></text>
</g>
<g >
<title>Parloop_Cells_wrap_form00_exterior_facet_bottom_integral_otherwise (1,700,937 us, 1.20%)</title><rect x="334.7" y="135" width="14.2" height="15.0" fill="rgb(0,0,0)" rx="2" ry="2" />
<text  x="337.71" y="145.5" ></text>
</g>
<g >
<title>pyop2.global_kernel.GlobalKernel.compile (2,364,177 us, 1.67%)</title><rect x="214.7" y="135" width="19.7" height="15.0" fill="rgb(0,0,0)" rx="2" ry="2" />
<text  x="217.75" y="145.5" ></text>
</g>
<g >
<title>firedrake.tsfc_interface.compile_form (2,509,553 us, 1.77%)</title><rect x="787.0" y="167" width="20.9" height="15.0" fill="rgb(0,0,0)" rx="2" ry="2" />
<text  x="790.05" y="177.5" ></text>
</g>
<g >
<title>PCSetUp (21,468,103 us, 15.14%)</title><rect x="951.6" y="103" width="178.6" height="15.0" fill="rgb(0,0,0)" rx="2" ry="2" />
<text  x="954.60" y="113.5" >PCSetUp</text>
</g>
<g >
<title>firedrake.tsfc_interface.compile_form (2,591,235 us, 1.83%)</title><rect x="1102.9" y="151" width="21.5" height="15.0" fill="rgb(0,0,0)" rx="2" ry="2" />
<text  x="1105.87" y="161.5" ></text>
</g>
<g >
<title>firedrake.norms.norm (6,916,342 us, 4.88%)</title><rect x="441.9" y="87" width="57.5" height="15.0" fill="rgb(0,0,0)" rx="2" ry="2" />
<text  x="444.87" y="97.5" >fired..</text>
</g>
<g >
<title>pyop2.global_kernel.GlobalKernel.compile (2,016,270 us, 1.42%)</title><rect x="198.0" y="135" width="16.7" height="15.0" fill="rgb(0,0,0)" rx="2" ry="2" />
<text  x="200.97" y="145.5" ></text>
</g>
<g >
<title>firedrake.assemble.allocate_matrix (19,579 us, 0.01%)</title><rect x="418.3" y="119" width="0.2" height="15.0" fill="rgb(0,0,0)" rx="2" ry="2" />
<text  x="421.34" y="129.5" ></text>
</g>
<g >
<title>firedrake.tsfc_interface.compile_form (1,817,682 us, 1.28%)</title><rect x="936.5" y="167" width="15.1" height="15.0" fill="rgb(0,0,0)" rx="2" ry="2" />
<text  x="939.48" y="177.5" ></text>
</g>
<g >
<title>CreateFunctionSpace (19,925 us, 0.01%)</title><rect x="27.0" y="71" width="0.2" height="15.0" fill="rgb(0,0,0)" rx="2" ry="2" />
<text  x="30.00" y="81.5" ></text>
</g>
<g >
<title>pyop2.global_kernel.GlobalKernel.compile (2,310,400 us, 1.63%)</title><rect x="399.1" y="151" width="19.2" height="15.0" fill="rgb(0,0,0)" rx="2" ry="2" />
<text  x="402.12" y="161.5" ></text>
</g>
<g >
<title>pyop2.global_kernel.GlobalKernel.compile (14,025,917 us, 9.89%)</title><rect x="670.4" y="199" width="116.6" height="15.0" fill="rgb(0,0,0)" rx="2" ry="2" />
<text  x="673.36" y="209.5" >pyop2.global_..</text>
</g>
<g >
<title>firedrake.formmanipulation.split_form (16,093 us, 0.01%)</title><rect x="1124.4" y="135" width="0.2" height="15.0" fill="rgb(0,0,0)" rx="2" ry="2" />
<text  x="1127.43" y="145.5" ></text>
</g>
<g >
<title>ParLoopExecute (677,444 us, 0.48%)</title><rect x="1124.6" y="151" width="5.6" height="15.0" fill="rgb(0,0,0)" rx="2" ry="2" />
<text  x="1127.56" y="161.5" ></text>
</g>
<g >
<title>firedrake.variational_solver.NonlinearVariationalSolver.solve (82,991,939 us, 58.51%)</title><rect x="499.6" y="71" width="690.4" height="15.0" fill="rgb(0,0,0)" rx="2" ry="2" />
<text  x="502.57" y="81.5" >firedrake.variational_solver.NonlinearVariationalSolver.solve</text>
</g>
<g >
<title>Parloop_Cells_wrap_par_loop_kernel (677,444 us, 0.48%)</title><rect x="1124.6" y="167" width="5.6" height="15.0" fill="rgb(0,0,0)" rx="2" ry="2" />
<text  x="1127.56" y="177.5" ></text>
</g>
<g >
<title>SCBackSub (32,538,281 us, 22.94%)</title><rect x="553.1" y="135" width="270.7" height="15.0" fill="rgb(0,0,0)" rx="2" ry="2" />
<text  x="556.10" y="145.5" >SCBackSub</text>
</g>
<g >
<title>pyop2.global_kernel.GlobalKernel.compile (407,600 us, 0.29%)</title><rect x="112.9" y="151" width="3.3" height="15.0" fill="rgb(0,0,0)" rx="2" ry="2" />
<text  x="115.85" y="161.5" ></text>
</g>
<g >
<title>pyop2.global_kernel.GlobalKernel.compile (1,763,296 us, 1.24%)</title><rect x="365.8" y="151" width="14.7" height="15.0" fill="rgb(0,0,0)" rx="2" ry="2" />
<text  x="368.79" y="161.5" ></text>
</g>
<g >
<title>pyop2.global_kernel.GlobalKernel.compile (1,561,957 us, 1.10%)</title><rect x="185.0" y="135" width="13.0" height="15.0" fill="rgb(0,0,0)" rx="2" ry="2" />
<text  x="187.98" y="145.5" ></text>
</g>
<g >
<title>firedrake.functionspacedata.get_shared_data (19,925 us, 0.01%)</title><rect x="27.0" y="103" width="0.2" height="15.0" fill="rgb(0,0,0)" rx="2" ry="2" />
<text  x="30.00" y="113.5" ></text>
</g>
<g >
<title>ParLoopExecute (6,061,459 us, 4.27%)</title><rect x="1130.2" y="119" width="50.4" height="15.0" fill="rgb(0,0,0)" rx="2" ry="2" />
<text  x="1133.20" y="129.5" >ParL..</text>
</g>
<g >
<title>pyop2.global_kernel.GlobalKernel.compile (1,263,718 us, 0.89%)</title><rect x="40.1" y="119" width="10.5" height="15.0" fill="rgb(0,0,0)" rx="2" ry="2" />
<text  x="43.07" y="129.5" ></text>
</g>
<g >
<title>Parloop_Cells_wrap_wrap_slate_loopy_knl_14 (10,506,230 us, 7.41%)</title><rect x="570.2" y="167" width="87.4" height="15.0" fill="rgb(0,0,0)" rx="2" ry="2" />
<text  x="573.18" y="177.5" >Parloop_C..</text>
</g>
<g >
<title>pyop2.global_kernel.GlobalKernel.compile (2,305,309 us, 1.63%)</title><rect x="526.4" y="183" width="19.2" height="15.0" fill="rgb(0,0,0)" rx="2" ry="2" />
<text  x="529.45" y="193.5" ></text>
</g>
<g >
<title>Parloop_Cells_wrap_form0_cell_integral_otherwise (4,512,916 us, 3.18%)</title><rect x="124.8" y="119" width="37.5" height="15.0" fill="rgb(0,0,0)" rx="2" ry="2" />
<text  x="127.76" y="129.5" >Pa..</text>
</g>
<g >
<title>Parloop_Cells_wrap_form00_cell_integral_otherwise (12,055,657 us, 8.50%)</title><rect x="234.4" y="135" width="100.3" height="15.0" fill="rgb(0,0,0)" rx="2" ry="2" />
<text  x="237.42" y="145.5" >Parloop_Cel..</text>
</g>
<g >
<title>firedrake.parloops.par_loop (924,148 us, 0.65%)</title><rect x="823.8" y="167" width="7.7" height="15.0" fill="rgb(0,0,0)" rx="2" ry="2" />
<text  x="826.79" y="177.5" ></text>
</g>
<g >
<title>firedrake.tsfc_interface.compile_form (1,127,022 us, 0.79%)</title><rect x="1180.6" y="119" width="9.4" height="15.0" fill="rgb(0,0,0)" rx="2" ry="2" />
<text  x="1183.62" y="129.5" ></text>
</g>
<g >
<title>Parloop_Cells_wrap_form1_cell_integral_otherwise (2,831,646 us, 2.00%)</title><rect x="1157.1" y="135" width="23.5" height="15.0" fill="rgb(0,0,0)" rx="2" ry="2" />
<text  x="1160.07" y="145.5" >P..</text>
</g>
<g >
<title>Parloop_set_#x7f603c0fdae0_wrap_expression_kernel (407,600 us, 0.29%)</title><rect x="112.9" y="135" width="3.3" height="15.0" fill="rgb(0,0,0)" rx="2" ry="2" />
<text  x="115.85" y="145.5" ></text>
</g>
<g >
<title>ParLoopExecute (22,107,843 us, 15.59%)</title><rect x="234.4" y="119" width="183.9" height="15.0" fill="rgb(0,0,0)" rx="2" ry="2" />
<text  x="237.42" y="129.5" >ParLoopExecute</text>
</g>
<g >
<title>RecoverFirstElim (18,071,448 us, 12.74%)</title><rect x="657.6" y="151" width="150.3" height="15.0" fill="rgb(0,0,0)" rx="2" ry="2" />
<text  x="660.58" y="161.5" >RecoverFirstElim</text>
</g>
<g >
<title>pyop2.global_kernel.GlobalKernel.compile (11,427,428 us, 8.06%)</title><rect x="841.4" y="199" width="95.1" height="15.0" fill="rgb(0,0,0)" rx="2" ry="2" />
<text  x="844.41" y="209.5" >pyop2.glob..</text>
</g>
<g >
<title>pyop2.global_kernel.GlobalKernel.compile (924,148 us, 0.65%)</title><rect x="823.8" y="215" width="7.7" height="15.0" fill="rgb(0,0,0)" rx="2" ry="2" />
<text  x="826.79" y="225.5" ></text>
</g>
<g >
<title>Parloop_Cells_wrap_form0_exterior_facet_top_integral_otherwise (1,373,149 us, 0.97%)</title><rect x="173.6" y="119" width="11.4" height="15.0" fill="rgb(0,0,0)" rx="2" ry="2" />
<text  x="176.56" y="129.5" ></text>
</g>
<g >
<title>firedrake.tsfc_interface.compile_form (979,860 us, 0.69%)</title><rect x="116.4" y="87" width="8.2" height="15.0" fill="rgb(0,0,0)" rx="2" ry="2" />
<text  x="119.41" y="97.5" ></text>
</g>
<g >
<title>ParLoopExecute (5,583,359 us, 3.94%)</title><rect x="441.9" y="119" width="46.4" height="15.0" fill="rgb(0,0,0)" rx="2" ry="2" />
<text  x="444.87" y="129.5" >ParL..</text>
</g>
<g >
<title>Parloop_Cells_wrap_form0_cell_integral_otherwise (3,229,813 us, 2.28%)</title><rect x="1130.2" y="135" width="26.9" height="15.0" fill="rgb(0,0,0)" rx="2" ry="2" />
<text  x="1133.20" y="145.5" >P..</text>
</g>
<g >
<title>pyop2.global_kernel.GlobalKernel.compile (16,394,568 us, 11.56%)</title><rect x="966.5" y="183" width="136.4" height="15.0" fill="rgb(0,0,0)" rx="2" ry="2" />
<text  x="969.48" y="193.5" >pyop2.global_ke..</text>
</g>
<g >
<title>firedrake.formmanipulation.ExtractSubBlock.split (16,093 us, 0.01%)</title><rect x="1124.4" y="151" width="0.2" height="15.0" fill="rgb(0,0,0)" rx="2" ry="2" />
<text  x="1127.43" y="161.5" ></text>
</g>
<g >
<title>HybridRHS (14,438,442 us, 10.18%)</title><rect x="831.5" y="151" width="120.1" height="15.0" fill="rgb(0,0,0)" rx="2" ry="2" />
<text  x="834.48" y="161.5" >HybridRHS</text>
</g>
<g >
<title>pyop2.global_kernel.GlobalKernel.compile (889,617 us, 0.63%)</title><rect x="19.6" y="135" width="7.4" height="15.0" fill="rgb(0,0,0)" rx="2" ry="2" />
<text  x="22.60" y="145.5" ></text>
</g>
<g >
<title>pyop2.global_kernel.GlobalKernel.compile (1,373,149 us, 0.97%)</title><rect x="173.6" y="135" width="11.4" height="15.0" fill="rgb(0,0,0)" rx="2" ry="2" />
<text  x="176.56" y="145.5" ></text>
</g>
<g >
<title>ParLoopExecute (10,506,230 us, 7.41%)</title><rect x="570.2" y="151" width="87.4" height="15.0" fill="rgb(0,0,0)" rx="2" ry="2" />
<text  x="573.18" y="161.5" >ParLoopEx..</text>
</g>
<g >
<title>pyop2.caching.disk_cached.&lt;locals&gt;.decorator.&lt;locals&gt;.wrapper (19,769 us, 0.01%)</title><rect x="116.2" y="119" width="0.2" height="15.0" fill="rgb(0,0,0)" rx="2" ry="2" />
<text  x="119.25" y="129.5" ></text>
</g>
<g >
<title>pyop2.global_kernel.GlobalKernel.compile (3,229,813 us, 2.28%)</title><rect x="1130.2" y="151" width="26.9" height="15.0" fill="rgb(0,0,0)" rx="2" ry="2" />
<text  x="1133.20" y="161.5" >p..</text>
</g>
<g >
<title>Parloop_Cells_wrap_wrap_slate_loopy_knl_4 (11,427,428 us, 8.06%)</title><rect x="841.4" y="183" width="95.1" height="15.0" fill="rgb(0,0,0)" rx="2" ry="2" />
<text  x="844.41" y="193.5" >Parloop_Ce..</text>
</g>
<g >
<title>pyop2.global_kernel.GlobalKernel.compile (3,231,346 us, 2.28%)</title><rect x="499.6" y="183" width="26.8" height="15.0" fill="rgb(0,0,0)" rx="2" ry="2" />
<text  x="502.57" y="193.5" >p..</text>
</g>
<g >
<title>firedrake.matrix_free.operators.ImplicitMatrixContext.mult (6,434,484 us, 4.54%)</title><rect x="499.6" y="135" width="53.5" height="15.0" fill="rgb(0,0,0)" rx="2" ry="2" />
<text  x="502.57" y="145.5" >fire..</text>
</g>
<g >
<title>HybridBreak (924,148 us, 0.65%)</title><rect x="823.8" y="151" width="7.7" height="15.0" fill="rgb(0,0,0)" rx="2" ry="2" />
<text  x="826.79" y="161.5" ></text>
</g>
<g >
<title>firedrake.assemble.assemble (10,155,976 us, 7.16%)</title><rect x="40.1" y="71" width="84.5" height="15.0" fill="rgb(0,0,0)" rx="2" ry="2" />
<text  x="43.07" y="81.5" >firedrake..</text>
</g>
<g >
<title>pyop2.global_kernel.GlobalKernel.compile (5,583,359 us, 3.94%)</title><rect x="441.9" y="151" width="46.4" height="15.0" fill="rgb(0,0,0)" rx="2" ry="2" />
<text  x="444.87" y="161.5" >pyop..</text>
</g>
<g >
<title>pyop2.global_kernel.GlobalKernel.compile (2,831,646 us, 2.00%)</title><rect x="1157.1" y="151" width="23.5" height="15.0" fill="rgb(0,0,0)" rx="2" ry="2" />
<text  x="1160.07" y="161.5" >p..</text>
</g>
<g >
<title>HybridProject (854,804 us, 0.60%)</title><rect x="563.1" y="151" width="7.1" height="15.0" fill="rgb(0,0,0)" rx="2" ry="2" />
<text  x="566.07" y="161.5" ></text>
</g>
<g >
<title>ParLoopExecute (16,394,568 us, 11.56%)</title><rect x="966.5" y="151" width="136.4" height="15.0" fill="rgb(0,0,0)" rx="2" ry="2" />
<text  x="969.48" y="161.5" >ParLoopExecute</text>
</g>
<g >
<title>Parloop_IntFacets_wrap_form0_interior_facet_vert_integral_otherwise (2,364,177 us, 1.67%)</title><rect x="214.7" y="119" width="19.7" height="15.0" fill="rgb(0,0,0)" rx="2" ry="2" />
<text  x="217.75" y="129.5" ></text>
</g>
<g >
<title>Parloop_Cells_wrap_par_loop_kernel (854,804 us, 0.60%)</title><rect x="563.1" y="199" width="7.1" height="15.0" fill="rgb(0,0,0)" rx="2" ry="2" />
<text  x="566.07" y="209.5" ></text>
</g>
<g >
<title>SNESSolve (82,991,939 us, 58.51%)</title><rect x="499.6" y="87" width="690.4" height="15.0" fill="rgb(0,0,0)" rx="2" ry="2" />
<text  x="502.57" y="97.5" >SNESSolve</text>
</g>
<g >
<title>Parloop_Cells_wrap_form0_cell_integral_otherwise (3,231,346 us, 2.28%)</title><rect x="499.6" y="167" width="26.8" height="15.0" fill="rgb(0,0,0)" rx="2" ry="2" />
<text  x="502.57" y="177.5" >P..</text>
</g>
<g >
<title>firedrake.tsfc_interface.compile_form (897,829 us, 0.63%)</title><rect x="545.6" y="151" width="7.5" height="15.0" fill="rgb(0,0,0)" rx="2" ry="2" />
<text  x="548.63" y="161.5" ></text>
</g>
<g >
<title>Parloop_set_#x7f603c0a8c10_wrap_expression_kernel (418,553 us, 0.30%)</title><rect x="109.4" y="135" width="3.5" height="15.0" fill="rgb(0,0,0)" rx="2" ry="2" />
<text  x="112.37" y="145.5" ></text>
</g>
<g >
<title>all (141,839,268 us, 100%)</title><rect x="10.0" y="39" width="1180.0" height="15.0" fill="rgb(0,0,0)" rx="2" ry="2" />
<text  x="13.00" y="49.5" ></text>
</g>
<g >
<title>firedrake.parloops.par_loop (677,444 us, 0.48%)</title><rect x="1124.6" y="135" width="5.6" height="15.0" fill="rgb(0,0,0)" rx="2" ry="2" />
<text  x="1127.56" y="145.5" ></text>
</g>
</g>
</svg>
