<?xml version="1.0" standalone="no"?>
<!DOCTYPE svg PUBLIC "-//W3C//DTD SVG 1.1//EN" "http://www.w3.org/Graphics/SVG/1.1/DTD/svg11.dtd">
<svg version="1.1" width="1200" height="267" onload="init(evt)" viewBox="0 0 1200 267" xmlns="http://www.w3.org/2000/svg" xmlns:xlink="http://www.w3.org/1999/xlink">
<!-- Flame graph stack visualization. See https://github.com/brendangregg/FlameGraph for latest version, and http://www.brendangregg.com/flamegraphs.html for examples. -->
<!-- NOTES:  -->
<defs>
	<linearGradient id="background" y1="0" y2="1" x1="0" x2="0" >
		<stop stop-color="#eeeeee" offset="5%" />
		<stop stop-color="#eeeeb0" offset="95%" />
	</linearGradient>
</defs>
<style type="text/css">
	text { font-family:Verdana; font-size:13px; fill:rgb(0,0,0); }
	#search, #ignorecase { opacity:0.1; cursor:pointer; }
	#search:hover, #search.show, #ignorecase:hover, #ignorecase.show { opacity:1; }
	#subtitle { text-anchor:middle; font-color:rgb(160,160,160); }
	#title { text-anchor:middle; font-size:18px}
	#unzoom { cursor:pointer; }
	#frames > *:hover { stroke:black; stroke-width:0.5; cursor:pointer; }
	.hide { display:none; }
	.parent { opacity:0.5; }
</style>
<script type="text/ecmascript">
<![CDATA[
	"use strict";
	var details, searchbtn, unzoombtn, matchedtxt, svg, searching, currentSearchTerm, ignorecase, ignorecaseBtn;
	function init(evt) {
		details = document.getElementById("details").firstChild;
		searchbtn = document.getElementById("search");
		ignorecaseBtn = document.getElementById("ignorecase");
		unzoombtn = document.getElementById("unzoom");
		matchedtxt = document.getElementById("matched");
		svg = document.getElementsByTagName("svg")[0];
		searching = 0;
		currentSearchTerm = null;

		// use GET parameters to restore a flamegraphs state.
		var params = get_params();
		if (params.x && params.y)
			zoom(find_group(document.querySelector('[x="' + params.x + '"][y="' + params.y + '"]')));
                if (params.s) search(params.s);
	}

	// event listeners
	window.addEventListener("click", function(e) {
		var target = find_group(e.target);
		if (target) {
			if (target.nodeName == "a") {
				if (e.ctrlKey === false) return;
				e.preventDefault();
			}
			if (target.classList.contains("parent")) unzoom();
			zoom(target);
			if (!document.querySelector('.parent')) {
				clearzoom();
				return;
			}

			// set parameters for zoom state
			var el = target.querySelector("rect");
			if (el && el.attributes && el.attributes.y && el.attributes._orig_x) {
				var params = get_params()
				params.x = el.attributes._orig_x.value;
				params.y = el.attributes.y.value;
				history.replaceState(null, null, parse_params(params));
			}
		}
		else if (e.target.id == "unzoom") clearzoom();
		else if (e.target.id == "search") search_prompt();
		else if (e.target.id == "ignorecase") toggle_ignorecase();
	}, false)

	// mouse-over for info
	// show
	window.addEventListener("mouseover", function(e) {
		var target = find_group(e.target);
		if (target) details.nodeValue = "Function: " + g_to_text(target);
	}, false)

	// clear
	window.addEventListener("mouseout", function(e) {
		var target = find_group(e.target);
		if (target) details.nodeValue = ' ';
	}, false)

	// ctrl-F for search
	// ctrl-I to toggle case-sensitive search
	window.addEventListener("keydown",function (e) {
		if (e.keyCode === 114 || (e.ctrlKey && e.keyCode === 70)) {
			e.preventDefault();
			search_prompt();
		}
		else if (e.ctrlKey && e.keyCode === 73) {
			e.preventDefault();
			toggle_ignorecase();
		}
	}, false)

	// functions
	function get_params() {
		var params = {};
		var paramsarr = window.location.search.substr(1).split('&');
		for (var i = 0; i < paramsarr.length; ++i) {
			var tmp = paramsarr[i].split("=");
			if (!tmp[0] || !tmp[1]) continue;
			params[tmp[0]]  = decodeURIComponent(tmp[1]);
		}
		return params;
	}
	function parse_params(params) {
		var uri = "?";
		for (var key in params) {
			uri += key + '=' + encodeURIComponent(params[key]) + '&';
		}
		if (uri.slice(-1) == "&")
			uri = uri.substring(0, uri.length - 1);
		if (uri == '?')
			uri = window.location.href.split('?')[0];
		return uri;
	}
	function find_child(node, selector) {
		var children = node.querySelectorAll(selector);
		if (children.length) return children[0];
	}
	function find_group(node) {
		var parent = node.parentElement;
		if (!parent) return;
		if (parent.id == "frames") return node;
		return find_group(parent);
	}
	function orig_save(e, attr, val) {
		if (e.attributes["_orig_" + attr] != undefined) return;
		if (e.attributes[attr] == undefined) return;
		if (val == undefined) val = e.attributes[attr].value;
		e.setAttribute("_orig_" + attr, val);
	}
	function orig_load(e, attr) {
		if (e.attributes["_orig_"+attr] == undefined) return;
		e.attributes[attr].value = e.attributes["_orig_" + attr].value;
		e.removeAttribute("_orig_"+attr);
	}
	function g_to_text(e) {
		var text = find_child(e, "title").firstChild.nodeValue;
		return (text)
	}
	function g_to_func(e) {
		var func = g_to_text(e);
		// if there's any manipulation we want to do to the function
		// name before it's searched, do it here before returning.
		return (func);
	}
	function update_text(e) {
		var r = find_child(e, "rect");
		var t = find_child(e, "text");
		var w = parseFloat(r.attributes.width.value) -3;
		var txt = find_child(e, "title").textContent.replace(/\([^(]*\)$/,"");
		t.attributes.x.value = parseFloat(r.attributes.x.value) + 3;

		// Smaller than this size won't fit anything
		if (w < 2 * 13 * 0.59) {
			t.textContent = "";
			return;
		}

		t.textContent = txt;
		// Fit in full text width
		if (/^ *$/.test(txt) || t.getSubStringLength(0, txt.length) < w)
			return;

		for (var x = txt.length - 2; x > 0; x--) {
			if (t.getSubStringLength(0, x + 2) <= w) {
				t.textContent = txt.substring(0, x) + "..";
				return;
			}
		}
		t.textContent = "";
	}

	// zoom
	function zoom_reset(e) {
		if (e.attributes != undefined) {
			orig_load(e, "x");
			orig_load(e, "width");
		}
		if (e.childNodes == undefined) return;
		for (var i = 0, c = e.childNodes; i < c.length; i++) {
			zoom_reset(c[i]);
		}
	}
	function zoom_child(e, x, ratio) {
		if (e.attributes != undefined) {
			if (e.attributes.x != undefined) {
				orig_save(e, "x");
				e.attributes.x.value = (parseFloat(e.attributes.x.value) - x - 10) * ratio + 10;
				if (e.tagName == "text")
					e.attributes.x.value = find_child(e.parentNode, "rect[x]").attributes.x.value + 3;
			}
			if (e.attributes.width != undefined) {
				orig_save(e, "width");
				e.attributes.width.value = parseFloat(e.attributes.width.value) * ratio;
			}
		}

		if (e.childNodes == undefined) return;
		for (var i = 0, c = e.childNodes; i < c.length; i++) {
			zoom_child(c[i], x - 10, ratio);
		}
	}
	function zoom_parent(e) {
		if (e.attributes) {
			if (e.attributes.x != undefined) {
				orig_save(e, "x");
				e.attributes.x.value = 10;
			}
			if (e.attributes.width != undefined) {
				orig_save(e, "width");
				e.attributes.width.value = parseInt(svg.width.baseVal.value) - (10 * 2);
			}
		}
		if (e.childNodes == undefined) return;
		for (var i = 0, c = e.childNodes; i < c.length; i++) {
			zoom_parent(c[i]);
		}
	}
	function zoom(node) {
		var attr = find_child(node, "rect").attributes;
		var width = parseFloat(attr.width.value);
		var xmin = parseFloat(attr.x.value);
		var xmax = parseFloat(xmin + width);
		var ymin = parseFloat(attr.y.value);
		var ratio = (svg.width.baseVal.value - 2 * 10) / width;

		// XXX: Workaround for JavaScript float issues (fix me)
		var fudge = 0.0001;

		unzoombtn.classList.remove("hide");

		var el = document.getElementById("frames").children;
		for (var i = 0; i < el.length; i++) {
			var e = el[i];
			var a = find_child(e, "rect").attributes;
			var ex = parseFloat(a.x.value);
			var ew = parseFloat(a.width.value);
			var upstack;
			// Is it an ancestor
			if (1 == 0) {
				upstack = parseFloat(a.y.value) > ymin;
			} else {
				upstack = parseFloat(a.y.value) < ymin;
			}
			if (upstack) {
				// Direct ancestor
				if (ex <= xmin && (ex+ew+fudge) >= xmax) {
					e.classList.add("parent");
					zoom_parent(e);
					update_text(e);
				}
				// not in current path
				else
					e.classList.add("hide");
			}
			// Children maybe
			else {
				// no common path
				if (ex < xmin || ex + fudge >= xmax) {
					e.classList.add("hide");
				}
				else {
					zoom_child(e, xmin, ratio);
					update_text(e);
				}
			}
		}
		search();
	}
	function unzoom() {
		unzoombtn.classList.add("hide");
		var el = document.getElementById("frames").children;
		for(var i = 0; i < el.length; i++) {
			el[i].classList.remove("parent");
			el[i].classList.remove("hide");
			zoom_reset(el[i]);
			update_text(el[i]);
		}
		search();
	}
	function clearzoom() {
		unzoom();

		// remove zoom state
		var params = get_params();
		if (params.x) delete params.x;
		if (params.y) delete params.y;
		history.replaceState(null, null, parse_params(params));
	}

	// search
	function toggle_ignorecase() {
		ignorecase = !ignorecase;
		if (ignorecase) {
			ignorecaseBtn.classList.add("show");
		} else {
			ignorecaseBtn.classList.remove("show");
		}
		reset_search();
		search();
	}
	function reset_search() {
		var el = document.querySelectorAll("#frames rect");
		for (var i = 0; i < el.length; i++) {
			orig_load(el[i], "fill")
		}
		var params = get_params();
		delete params.s;
		history.replaceState(null, null, parse_params(params));
	}
	function search_prompt() {
		if (!searching) {
			var term = prompt("Enter a search term (regexp " +
			    "allowed, eg: ^ext4_)"
			    + (ignorecase ? ", ignoring case" : "")
			    + "\nPress Ctrl-i to toggle case sensitivity", "");
			if (term != null) search(term);
		} else {
			reset_search();
			searching = 0;
			currentSearchTerm = null;
			searchbtn.classList.remove("show");
			searchbtn.firstChild.nodeValue = "Search"
			matchedtxt.classList.add("hide");
			matchedtxt.firstChild.nodeValue = ""
		}
	}
	function search(term) {
		if (term) currentSearchTerm = term;

		var re = new RegExp(currentSearchTerm, ignorecase ? 'i' : '');
		var el = document.getElementById("frames").children;
		var matches = new Object();
		var maxwidth = 0;
		for (var i = 0; i < el.length; i++) {
			var e = el[i];
			var func = g_to_func(e);
			var rect = find_child(e, "rect");
			if (func == null || rect == null)
				continue;

			// Save max width. Only works as we have a root frame
			var w = parseFloat(rect.attributes.width.value);
			if (w > maxwidth)
				maxwidth = w;

			if (func.match(re)) {
				// highlight
				var x = parseFloat(rect.attributes.x.value);
				orig_save(rect, "fill");
				rect.attributes.fill.value = "rgb(230,0,230)";

				// remember matches
				if (matches[x] == undefined) {
					matches[x] = w;
				} else {
					if (w > matches[x]) {
						// overwrite with parent
						matches[x] = w;
					}
				}
				searching = 1;
			}
		}
		if (!searching)
			return;
		var params = get_params();
		params.s = currentSearchTerm;
		history.replaceState(null, null, parse_params(params));

		searchbtn.classList.add("show");
		searchbtn.firstChild.nodeValue = "Reset Search";

		// calculate percent matched, excluding vertical overlap
		var count = 0;
		var lastx = -1;
		var lastw = 0;
		var keys = Array();
		for (k in matches) {
			if (matches.hasOwnProperty(k))
				keys.push(k);
		}
		// sort the matched frames by their x location
		// ascending, then width descending
		keys.sort(function(a, b){
			return a - b;
		});
		// Step through frames saving only the biggest bottom-up frames
		// thanks to the sort order. This relies on the tree property
		// where children are always smaller than their parents.
		var fudge = 0.0001;	// JavaScript floating point
		for (var k in keys) {
			var x = parseFloat(keys[k]);
			var w = matches[keys[k]];
			if (x >= lastx + lastw - fudge) {
				count += w;
				lastx = x;
				lastw = w;
			}
		}
		// display matched percent
		matchedtxt.classList.remove("hide");
		var pct = 100 * count / maxwidth;
		if (pct != 100) pct = pct.toFixed(1)
		matchedtxt.firstChild.nodeValue = "Matched: " + pct + "%";
	}
]]>
</script>
<rect x="0.0" y="0" width="1200.0" height="267.0" fill="url(#background)"  />
<text id="title" x="600.00" y="26" >Firedrake example</text>
<text id="details" x="10.00" y="249" > </text>
<text id="unzoom" x="10.00" y="26" class="hide">Reset Zoom</text>
<text id="search" x="1090.00" y="26" >Search</text>
<text id="ignorecase" x="1174.00" y="26" >ic</text>
<text id="matched" x="1090.00" y="249" > </text>
<g id="frames">
<g >
<title>pyop2.global_kernel.GlobalKernel.compile (2,083,136 us, 1.54%)</title><rect x="389.7" y="151" width="18.2" height="15.0" fill="rgb(0,0,0)" rx="2" ry="2" />
<text  x="392.70" y="161.5" ></text>
</g>
<g >
<title>HybridProject (926,193 us, 0.69%)</title><rect x="553.8" y="151" width="8.1" height="15.0" fill="rgb(0,0,0)" rx="2" ry="2" />
<text  x="556.84" y="161.5" ></text>
</g>
<g >
<title>pyop2.global_kernel.GlobalKernel.compile (660,410 us, 0.49%)</title><rect x="1123.5" y="183" width="5.7" height="15.0" fill="rgb(0,0,0)" rx="2" ry="2" />
<text  x="1126.48" y="193.5" ></text>
</g>
<g >
<title>all (135,059,658 us, 100%)</title><rect x="10.0" y="39" width="1180.0" height="15.0" fill="rgb(0,0,0)" rx="2" ry="2" />
<text  x="13.00" y="49.5" ></text>
</g>
<g >
<title>firedrake.tsfc_interface.compile_form (2,562,891 us, 1.90%)</title><rect x="1101.0" y="151" width="22.4" height="15.0" fill="rgb(0,0,0)" rx="2" ry="2" />
<text  x="1103.96" y="161.5" ></text>
</g>
<g >
<title>ParLoopExecute (775,400 us, 0.57%)</title><rect x="103.1" y="119" width="6.8" height="15.0" fill="rgb(0,0,0)" rx="2" ry="2" />
<text  x="106.14" y="129.5" ></text>
</g>
<g >
<title>firedrake.function.Function.project (35,877,606 us, 26.56%)</title><rect x="118.4" y="71" width="313.4" height="15.0" fill="rgb(0,0,0)" rx="2" ry="2" />
<text  x="121.39" y="81.5" >firedrake.function.Function.project</text>
</g>
<g >
<title>SCForwardElim (14,757,233 us, 10.93%)</title><rect x="819.1" y="135" width="128.9" height="15.0" fill="rgb(0,0,0)" rx="2" ry="2" />
<text  x="822.08" y="145.5" >SCForwardElim</text>
</g>
<g >
<title>firedrake.norms.norm (6,544,435 us, 4.85%)</title><rect x="431.8" y="87" width="57.2" height="15.0" fill="rgb(0,0,0)" rx="2" ry="2" />
<text  x="434.85" y="97.5" >fired..</text>
</g>
<g >
<title>HybridRHS (13,883,633 us, 10.28%)</title><rect x="826.7" y="151" width="121.3" height="15.0" fill="rgb(0,0,0)" rx="2" ry="2" />
<text  x="829.71" y="161.5" >HybridRHS</text>
</g>
<g >
<title>ParLoopExecute (5,365,539 us, 3.97%)</title><rect x="489.1" y="151" width="46.9" height="15.0" fill="rgb(0,0,0)" rx="2" ry="2" />
<text  x="492.15" y="161.5" >ParL..</text>
</g>
<g >
<title>Parloop_Cells_wrap_form_exterior_facet_bottom_integral_otherwise (1,171,953 us, 0.87%)</title><rect x="40.8" y="103" width="10.2" height="15.0" fill="rgb(0,0,0)" rx="2" ry="2" />
<text  x="43.77" y="113.5" ></text>
</g>
<g >
<title>firedrake.matrix_free.operators.ImplicitMatrixContext.mult (6,250,896 us, 4.63%)</title><rect x="489.1" y="135" width="54.7" height="15.0" fill="rgb(0,0,0)" rx="2" ry="2" />
<text  x="492.15" y="145.5" >fired..</text>
</g>
<g >
<title>Parloop_Cells_wrap_wrap_slate_loopy_knl_14 (10,012,704 us, 7.41%)</title><rect x="561.9" y="167" width="87.5" height="15.0" fill="rgb(0,0,0)" rx="2" ry="2" />
<text  x="564.93" y="177.5" >Parloop_C..</text>
</g>
<g >
<title>ParLoopExecute (10,955,657 us, 8.11%)</title><rect x="836.7" y="167" width="95.7" height="15.0" fill="rgb(0,0,0)" rx="2" ry="2" />
<text  x="839.68" y="177.5" >ParLoopExe..</text>
</g>
<g >
<title>firedrake.tsfc_interface.compile_form (1,119,042 us, 0.83%)</title><rect x="1180.2" y="119" width="9.8" height="15.0" fill="rgb(0,0,0)" rx="2" ry="2" />
<text  x="1183.22" y="129.5" ></text>
</g>
<g >
<title>ParLoopExecute (873,600 us, 0.65%)</title><rect x="819.1" y="183" width="7.6" height="15.0" fill="rgb(0,0,0)" rx="2" ry="2" />
<text  x="822.08" y="193.5" ></text>
</g>
<g >
<title>SNESFunctionEval (6,953,321 us, 5.15%)</title><rect x="1129.2" y="103" width="60.8" height="15.0" fill="rgb(0,0,0)" rx="2" ry="2" />
<text  x="1132.25" y="113.5" >SNESF..</text>
</g>
<g >
<title>firedrake.extrusion_utils.make_extruded_coords (870,867 us, 0.64%)</title><rect x="19.6" y="87" width="7.6" height="15.0" fill="rgb(0,0,0)" rx="2" ry="2" />
<text  x="22.60" y="97.5" ></text>
</g>
<g >
<title>firedrake.formmanipulation.split_form (14,302 us, 0.01%)</title><rect x="1123.4" y="135" width="0.1" height="15.0" fill="rgb(0,0,0)" rx="2" ry="2" />
<text  x="1126.35" y="145.5" ></text>
</g>
<g >
<title>PCApply (46,269,220 us, 34.26%)</title><rect x="543.8" y="119" width="404.2" height="15.0" fill="rgb(0,0,0)" rx="2" ry="2" />
<text  x="546.76" y="129.5" >PCApply</text>
</g>
<g >
<title>firedrake.functionspaceimpl.FunctionSpace.__init__ (20,564 us, 0.02%)</title><rect x="27.2" y="87" width="0.2" height="15.0" fill="rgb(0,0,0)" rx="2" ry="2" />
<text  x="30.21" y="97.5" ></text>
</g>
<g >
<title>Parloop_Cells_wrap_form0_exterior_facet_top_integral_otherwise (1,271,299 us, 0.94%)</title><rect x="166.5" y="119" width="11.1" height="15.0" fill="rgb(0,0,0)" rx="2" ry="2" />
<text  x="169.47" y="129.5" ></text>
</g>
<g >
<title>firedrake (135,059,658 us, 100.00%)</title><rect x="10.0" y="55" width="1180.0" height="15.0" fill="rgb(0,0,0)" rx="2" ry="2" />
<text  x="13.00" y="65.5" >firedrake</text>
</g>
<g >
<title>Parloop_IntFacets_wrap_form0_interior_facet_vert_integral_otherwise (2,171,988 us, 1.61%)</title><rect x="206.4" y="119" width="18.9" height="15.0" fill="rgb(0,0,0)" rx="2" ry="2" />
<text  x="209.37" y="129.5" ></text>
</g>
<g >
<title>firedrake.__init__ (1,531,060 us, 1.13%)</title><rect x="27.4" y="71" width="13.4" height="15.0" fill="rgb(0,0,0)" rx="2" ry="2" />
<text  x="30.39" y="81.5" ></text>
</g>
<g >
<title>pyop2.global_kernel.GlobalKernel.compile (1,481,620 us, 1.10%)</title><rect x="177.6" y="135" width="12.9" height="15.0" fill="rgb(0,0,0)" rx="2" ry="2" />
<text  x="180.57" y="145.5" ></text>
</g>
<g >
<title>firedrake.projection.project (35,877,606 us, 26.56%)</title><rect x="118.4" y="87" width="313.4" height="15.0" fill="rgb(0,0,0)" rx="2" ry="2" />
<text  x="121.39" y="97.5" >firedrake.projection.project</text>
</g>
<g >
<title>firedrake.assemble_expressions.evaluate_expression (795,199 us, 0.59%)</title><rect x="103.1" y="103" width="7.0" height="15.0" fill="rgb(0,0,0)" rx="2" ry="2" />
<text  x="106.14" y="113.5" ></text>
</g>
<g >
<title>firedrake.parloops.par_loop (660,410 us, 0.49%)</title><rect x="1123.5" y="135" width="5.7" height="15.0" fill="rgb(0,0,0)" rx="2" ry="2" />
<text  x="1126.48" y="145.5" ></text>
</g>
<g >
<title>pyop2.global_kernel.GlobalKernel.compile (396,370 us, 0.29%)</title><rect x="103.1" y="151" width="3.5" height="15.0" fill="rgb(0,0,0)" rx="2" ry="2" />
<text  x="106.14" y="161.5" ></text>
</g>
<g >
<title>Parloop_Cells_wrap_par_loop_kernel (873,600 us, 0.65%)</title><rect x="819.1" y="199" width="7.6" height="15.0" fill="rgb(0,0,0)" rx="2" ry="2" />
<text  x="822.08" y="209.5" ></text>
</g>
<g >
<title>pyop2.global_kernel.GlobalKernel.compile (13,554,303 us, 10.04%)</title><rect x="662.3" y="199" width="118.4" height="15.0" fill="rgb(0,0,0)" rx="2" ry="2" />
<text  x="665.32" y="209.5" >pyop2.global_..</text>
</g>
<g >
<title>ParLoopExecute (20,894,249 us, 15.47%)</title><rect x="225.3" y="119" width="182.6" height="15.0" fill="rgb(0,0,0)" rx="2" ry="2" />
<text  x="228.35" y="129.5" >ParLoopExecute</text>
</g>
<g >
<title>Parloop_Cells_wrap_form0_cell_integral_otherwise (3,114,567 us, 2.31%)</title><rect x="1129.2" y="135" width="27.3" height="15.0" fill="rgb(0,0,0)" rx="2" ry="2" />
<text  x="1132.25" y="145.5" >P..</text>
</g>
<g >
<title>ParLoopExecute (5,834,279 us, 4.32%)</title><rect x="1129.2" y="119" width="51.0" height="15.0" fill="rgb(0,0,0)" rx="2" ry="2" />
<text  x="1132.25" y="129.5" >ParL..</text>
</g>
<g >
<title>pyop2.global_kernel.GlobalKernel.compile (1,823,356 us, 1.35%)</title><rect x="356.4" y="151" width="16.0" height="15.0" fill="rgb(0,0,0)" rx="2" ry="2" />
<text  x="359.44" y="161.5" ></text>
</g>
<g >
<title>PCSetUp (20,744,181 us, 15.36%)</title><rect x="948.0" y="103" width="181.2" height="15.0" fill="rgb(0,0,0)" rx="2" ry="2" />
<text  x="951.01" y="113.5" >PCSetUp</text>
</g>
<g >
<title>pyop2.global_kernel.GlobalKernel.compile (15,781,438 us, 11.68%)</title><rect x="963.1" y="183" width="137.9" height="15.0" fill="rgb(0,0,0)" rx="2" ry="2" />
<text  x="966.08" y="193.5" >pyop2.global_ke..</text>
</g>
<g >
<title>Parloop_Cells_wrap_form_cell_integral_otherwise (5,341,704 us, 3.96%)</title><rect x="431.8" y="135" width="46.7" height="15.0" fill="rgb(0,0,0)" rx="2" ry="2" />
<text  x="434.85" y="145.5" >Parl..</text>
</g>
<g >
<title>Parloop_Cells_wrap_form00_cell_integral_otherwise (11,614,544 us, 8.60%)</title><rect x="225.3" y="135" width="101.5" height="15.0" fill="rgb(0,0,0)" rx="2" ry="2" />
<text  x="228.35" y="145.5" >Parloop_Cel..</text>
</g>
<g >
<title>Parloop_Cells_wrap_form00_interior_facet_horiz_integral_otherwise (1,823,356 us, 1.35%)</title><rect x="356.4" y="135" width="16.0" height="15.0" fill="rgb(0,0,0)" rx="2" ry="2" />
<text  x="359.44" y="145.5" ></text>
</g>
<g >
<title>pyop2.global_kernel.GlobalKernel.compile (11,614,544 us, 8.60%)</title><rect x="225.3" y="151" width="101.5" height="15.0" fill="rgb(0,0,0)" rx="2" ry="2" />
<text  x="228.35" y="161.5" >pyop2.globa..</text>
</g>
<g >
<title>pyop2.global_kernel.GlobalKernel.compile (1,780,554 us, 1.32%)</title><rect x="71.7" y="119" width="15.5" height="15.0" fill="rgb(0,0,0)" rx="2" ry="2" />
<text  x="74.69" y="129.5" ></text>
</g>
<g >
<title>ParLoopExecute (660,410 us, 0.49%)</title><rect x="1123.5" y="151" width="5.7" height="15.0" fill="rgb(0,0,0)" rx="2" ry="2" />
<text  x="1126.48" y="161.5" ></text>
</g>
<g >
<title>firedrake.tsfc_interface.compile_form (885,357 us, 0.66%)</title><rect x="536.0" y="151" width="7.8" height="15.0" fill="rgb(0,0,0)" rx="2" ry="2" />
<text  x="539.03" y="161.5" ></text>
</g>
<g >
<title>pyop2.global_kernel.GlobalKernel.compile (1,188,470 us, 0.88%)</title><rect x="51.0" y="119" width="10.4" height="15.0" fill="rgb(0,0,0)" rx="2" ry="2" />
<text  x="54.01" y="129.5" ></text>
</g>
<g >
<title>firedrake.formmanipulation.ExtractSubBlock.split (14,302 us, 0.01%)</title><rect x="1123.4" y="151" width="0.1" height="15.0" fill="rgb(0,0,0)" rx="2" ry="2" />
<text  x="1126.35" y="161.5" ></text>
</g>
<g >
<title>firedrake.assemble.allocate_matrix (19,681 us, 0.01%)</title><rect x="407.9" y="119" width="0.2" height="15.0" fill="rgb(0,0,0)" rx="2" ry="2" />
<text  x="410.90" y="129.5" ></text>
</g>
<g >
<title>Parloop_Cells_wrap_wrap_slate_loopy_knl_4 (10,955,657 us, 8.11%)</title><rect x="836.7" y="183" width="95.7" height="15.0" fill="rgb(0,0,0)" rx="2" ry="2" />
<text  x="839.68" y="193.5" >Parloop_Ce..</text>
</g>
<g >
<title>Parloop_Cells_wrap_form1_cell_integral_otherwise (2,719,712 us, 2.01%)</title><rect x="1156.5" y="135" width="23.7" height="15.0" fill="rgb(0,0,0)" rx="2" ry="2" />
<text  x="1159.46" y="145.5" >P..</text>
</g>
<g >
<title>Parloop_Cells_wrap_form1_cell_integral_otherwise (2,223,117 us, 1.65%)</title><rect x="516.6" y="167" width="19.4" height="15.0" fill="rgb(0,0,0)" rx="2" ry="2" />
<text  x="519.60" y="177.5" ></text>
</g>
<g >
<title>Parloop_Cells_wrap_form00_exterior_facet_bottom_integral_otherwise (1,869,036 us, 1.38%)</title><rect x="326.8" y="135" width="16.4" height="15.0" fill="rgb(0,0,0)" rx="2" ry="2" />
<text  x="329.82" y="145.5" ></text>
</g>
<g >
<title>Parloop_Cells_wrap_form_interior_facet_horiz_integral_otherwise (1,178,138 us, 0.87%)</title><rect x="61.4" y="103" width="10.3" height="15.0" fill="rgb(0,0,0)" rx="2" ry="2" />
<text  x="64.39" y="113.5" ></text>
</g>
<g >
<title>pyop2.global_kernel.GlobalKernel.compile (926,193 us, 0.69%)</title><rect x="553.8" y="215" width="8.1" height="15.0" fill="rgb(0,0,0)" rx="2" ry="2" />
<text  x="556.84" y="225.5" ></text>
</g>
<g >
<title>firedrake.variational_solver.NonlinearVariationalProblem.__init__ (13,877 us, 0.01%)</title><rect x="489.0" y="87" width="0.1" height="15.0" fill="rgb(0,0,0)" rx="2" ry="2" />
<text  x="492.03" y="97.5" ></text>
</g>
<g >
<title>pyop2.global_kernel.GlobalKernel.compile (1,178,138 us, 0.87%)</title><rect x="61.4" y="119" width="10.3" height="15.0" fill="rgb(0,0,0)" rx="2" ry="2" />
<text  x="64.39" y="129.5" ></text>
</g>
<g >
<title>firedrake.variational_solver.LinearVariationalProblem.__init__ (13,877 us, 0.01%)</title><rect x="489.0" y="71" width="0.1" height="15.0" fill="rgb(0,0,0)" rx="2" ry="2" />
<text  x="492.03" y="81.5" ></text>
</g>
<g >
<title>pyop2.global_kernel.GlobalKernel.compile (1,819,172 us, 1.35%)</title><rect x="87.2" y="119" width="15.9" height="15.0" fill="rgb(0,0,0)" rx="2" ry="2" />
<text  x="90.24" y="129.5" ></text>
</g>
<g >
<title>firedrake.assemble.assemble (22,352,236 us, 16.55%)</title><rect x="225.3" y="103" width="195.3" height="15.0" fill="rgb(0,0,0)" rx="2" ry="2" />
<text  x="228.35" y="113.5" >firedrake.assemble.asse..</text>
</g>
<g >
<title>ParLoopExecute (10,012,704 us, 7.41%)</title><rect x="561.9" y="151" width="87.5" height="15.0" fill="rgb(0,0,0)" rx="2" ry="2" />
<text  x="564.93" y="161.5" >ParLoopEx..</text>
</g>
<g >
<title>pyop2.global_kernel.GlobalKernel.compile (839,887 us, 0.62%)</title><rect x="19.9" y="135" width="7.3" height="15.0" fill="rgb(0,0,0)" rx="2" ry="2" />
<text  x="22.88" y="145.5" ></text>
</g>
<g >
<title>MatMult (6,250,896 us, 4.63%)</title><rect x="489.1" y="119" width="54.7" height="15.0" fill="rgb(0,0,0)" rx="2" ry="2" />
<text  x="492.15" y="129.5" >MatMult</text>
</g>
<g >
<title>firedrake.parloops.par_loop (926,193 us, 0.69%)</title><rect x="553.8" y="167" width="8.1" height="15.0" fill="rgb(0,0,0)" rx="2" ry="2" />
<text  x="556.84" y="177.5" ></text>
</g>
<g >
<title>pyop2.global_kernel.GlobalKernel.compile (10,012,704 us, 7.41%)</title><rect x="561.9" y="183" width="87.5" height="15.0" fill="rgb(0,0,0)" rx="2" ry="2" />
<text  x="564.93" y="193.5" >pyop2.glo..</text>
</g>
<g >
<title>firedrake.tsfc_interface.compile_form (2,484,651 us, 1.84%)</title><rect x="780.7" y="167" width="21.7" height="15.0" fill="rgb(0,0,0)" rx="2" ry="2" />
<text  x="783.74" y="177.5" ></text>
</g>
<g >
<title>ParLoopExecute (13,554,303 us, 10.04%)</title><rect x="662.3" y="167" width="118.4" height="15.0" fill="rgb(0,0,0)" rx="2" ry="2" />
<text  x="665.32" y="177.5" >ParLoopExecute</text>
</g>
<g >
<title>pyop2.global_kernel.GlobalKernel.compile (3,142,422 us, 2.33%)</title><rect x="489.1" y="183" width="27.5" height="15.0" fill="rgb(0,0,0)" rx="2" ry="2" />
<text  x="492.15" y="193.5" >p..</text>
</g>
<g >
<title>firedrake.assemble.assemble (6,544,435 us, 4.85%)</title><rect x="431.8" y="103" width="57.2" height="15.0" fill="rgb(0,0,0)" rx="2" ry="2" />
<text  x="434.85" y="113.5" >fired..</text>
</g>
<g >
<title>pyop2.global_kernel.GlobalKernel.compile (873,600 us, 0.65%)</title><rect x="819.1" y="215" width="7.6" height="15.0" fill="rgb(0,0,0)" rx="2" ry="2" />
<text  x="822.08" y="225.5" ></text>
</g>
<g >
<title>Parloop_IntFacets_wrap_form00_interior_facet_vert_integral_otherwise (2,083,136 us, 1.54%)</title><rect x="389.7" y="135" width="18.2" height="15.0" fill="rgb(0,0,0)" rx="2" ry="2" />
<text  x="392.70" y="145.5" ></text>
</g>
<g >
<title>pyop2.global_kernel.GlobalKernel.compile (1,983,653 us, 1.47%)</title><rect x="372.4" y="151" width="17.3" height="15.0" fill="rgb(0,0,0)" rx="2" ry="2" />
<text  x="375.37" y="161.5" ></text>
</g>
<g >
<title>firedrake.tsfc_interface.compile_form (1,438,306 us, 1.06%)</title><rect x="408.1" y="119" width="12.5" height="15.0" fill="rgb(0,0,0)" rx="2" ry="2" />
<text  x="411.07" y="129.5" ></text>
</g>
<g >
<title>Parloop_set_#x7fce490c4b50_wrap_expression_kernel (396,370 us, 0.29%)</title><rect x="103.1" y="135" width="3.5" height="15.0" fill="rgb(0,0,0)" rx="2" ry="2" />
<text  x="106.14" y="145.5" ></text>
</g>
<g >
<title>firedrake.assemble.assemble (8,884,307 us, 6.58%)</title><rect x="40.8" y="71" width="77.6" height="15.0" fill="rgb(0,0,0)" rx="2" ry="2" />
<text  x="43.77" y="81.5" >firedrak..</text>
</g>
<g >
<title>pyop2.caching.disk_cached.&lt;locals&gt;.decorator.&lt;locals&gt;.wrapper (19,799 us, 0.01%)</title><rect x="109.9" y="119" width="0.2" height="15.0" fill="rgb(0,0,0)" rx="2" ry="2" />
<text  x="112.91" y="129.5" ></text>
</g>
<g >
<title>SNESSolve (80,217,618 us, 59.39%)</title><rect x="489.1" y="87" width="700.9" height="15.0" fill="rgb(0,0,0)" rx="2" ry="2" />
<text  x="492.15" y="97.5" >SNESSolve</text>
</g>
<g >
<title>firedrake.tsfc_interface.compile_form (1,202,731 us, 0.89%)</title><rect x="478.5" y="119" width="10.5" height="15.0" fill="rgb(0,0,0)" rx="2" ry="2" />
<text  x="481.52" y="129.5" ></text>
</g>
<g >
<title>KSPSolve (52,520,116 us, 38.89%)</title><rect x="489.1" y="103" width="458.9" height="15.0" fill="rgb(0,0,0)" rx="2" ry="2" />
<text  x="492.15" y="113.5" >KSPSolve</text>
</g>
<g >
<title>Parloop_Cells_wrap_pyop2_kernel_uniform_extrusion (839,887 us, 0.62%)</title><rect x="19.9" y="119" width="7.3" height="15.0" fill="rgb(0,0,0)" rx="2" ry="2" />
<text  x="22.88" y="129.5" ></text>
</g>
<g >
<title>HybridBreak (873,600 us, 0.65%)</title><rect x="819.1" y="151" width="7.6" height="15.0" fill="rgb(0,0,0)" rx="2" ry="2" />
<text  x="822.08" y="161.5" ></text>
</g>
<g >
<title>RecoverFirstElim (17,516,436 us, 12.97%)</title><rect x="649.4" y="151" width="153.0" height="15.0" fill="rgb(0,0,0)" rx="2" ry="2" />
<text  x="652.41" y="161.5" >RecoverFirstElim</text>
</g>
<g >
<title>Parloop_set_#x7fce4911a260_wrap_expression_kernel (379,030 us, 0.28%)</title><rect x="106.6" y="135" width="3.3" height="15.0" fill="rgb(0,0,0)" rx="2" ry="2" />
<text  x="109.60" y="145.5" ></text>
</g>
<g >
<title>HybridOperatorAssembly (20,019,649 us, 14.82%)</title><rect x="948.4" y="135" width="175.0" height="15.0" fill="rgb(0,0,0)" rx="2" ry="2" />
<text  x="951.45" y="145.5" >HybridOperatorAssembly</text>
</g>
<g >
<title>pyop2.global_kernel.GlobalKernel.compile (2,223,117 us, 1.65%)</title><rect x="516.6" y="183" width="19.4" height="15.0" fill="rgb(0,0,0)" rx="2" ry="2" />
<text  x="519.60" y="193.5" ></text>
</g>
<g >
<title>Parloop_Cells_wrap_form_exterior_facet_top_integral_otherwise (1,188,470 us, 0.88%)</title><rect x="51.0" y="103" width="10.4" height="15.0" fill="rgb(0,0,0)" rx="2" ry="2" />
<text  x="54.01" y="113.5" ></text>
</g>
<g >
<title>Parloop_Cells_wrap_wrap_slate_loopy_knl_0 (15,781,438 us, 11.68%)</title><rect x="963.1" y="167" width="137.9" height="15.0" fill="rgb(0,0,0)" rx="2" ry="2" />
<text  x="966.08" y="177.5" >Parloop_Cells_w..</text>
</g>
<g >
<title>pyop2.global_kernel.GlobalKernel.compile (10,955,657 us, 8.11%)</title><rect x="836.7" y="199" width="95.7" height="15.0" fill="rgb(0,0,0)" rx="2" ry="2" />
<text  x="839.68" y="209.5" >pyop2.glob..</text>
</g>
<g >
<title>Parloop_Cells_wrap_form0_exterior_facet_bottom_integral_otherwise (1,259,840 us, 0.93%)</title><rect x="155.5" y="119" width="11.0" height="15.0" fill="rgb(0,0,0)" rx="2" ry="2" />
<text  x="158.46" y="129.5" ></text>
</g>
<g >
<title>ParLoopExecute (926,193 us, 0.69%)</title><rect x="553.8" y="183" width="8.1" height="15.0" fill="rgb(0,0,0)" rx="2" ry="2" />
<text  x="556.84" y="193.5" ></text>
</g>
<g >
<title>SCBackSub (31,511,987 us, 23.33%)</title><rect x="543.8" y="135" width="275.3" height="15.0" fill="rgb(0,0,0)" rx="2" ry="2" />
<text  x="546.76" y="145.5" >SCBackSub</text>
</g>
<g >
<title>pyop2.global_kernel.GlobalKernel.compile (1,814,314 us, 1.34%)</title><rect x="190.5" y="135" width="15.9" height="15.0" fill="rgb(0,0,0)" rx="2" ry="2" />
<text  x="193.52" y="145.5" ></text>
</g>
<g >
<title>firedrake.functionspacedata.FunctionSpaceData.__init__ (20,564 us, 0.02%)</title><rect x="27.2" y="119" width="0.2" height="15.0" fill="rgb(0,0,0)" rx="2" ry="2" />
<text  x="30.21" y="129.5" ></text>
</g>
<g >
<title>Parloop_IntFacets_wrap_form_interior_facet_vert_integral_otherwise (1,819,172 us, 1.35%)</title><rect x="87.2" y="103" width="15.9" height="15.0" fill="rgb(0,0,0)" rx="2" ry="2" />
<text  x="90.24" y="113.5" ></text>
</g>
<g >
<title>CreateFunctionSpace (20,564 us, 0.02%)</title><rect x="27.2" y="71" width="0.2" height="15.0" fill="rgb(0,0,0)" rx="2" ry="2" />
<text  x="30.21" y="81.5" ></text>
</g>
<g >
<title>Parloop_Cells_wrap_wrap_slate_loopy_knl_7 (13,554,303 us, 10.04%)</title><rect x="662.3" y="183" width="118.4" height="15.0" fill="rgb(0,0,0)" rx="2" ry="2" />
<text  x="665.32" y="193.5" >Parloop_Cells..</text>
</g>
<g >
<title>HybridInit (20,744,181 us, 15.36%)</title><rect x="948.0" y="119" width="181.2" height="15.0" fill="rgb(0,0,0)" rx="2" ry="2" />
<text  x="951.01" y="129.5" >HybridInit</text>
</g>
<g >
<title>pyop2.global_kernel.GlobalKernel.compile (5,341,704 us, 3.96%)</title><rect x="431.8" y="151" width="46.7" height="15.0" fill="rgb(0,0,0)" rx="2" ry="2" />
<text  x="434.85" y="161.5" >pyop..</text>
</g>
<g >
<title>pyop2.global_kernel.GlobalKernel.compile (2,719,712 us, 2.01%)</title><rect x="1156.5" y="151" width="23.7" height="15.0" fill="rgb(0,0,0)" rx="2" ry="2" />
<text  x="1159.46" y="161.5" >p..</text>
</g>
<g >
<title>pyop2.global_kernel.GlobalKernel.compile (1,271,299 us, 0.94%)</title><rect x="166.5" y="135" width="11.1" height="15.0" fill="rgb(0,0,0)" rx="2" ry="2" />
<text  x="169.47" y="145.5" ></text>
</g>
<g >
<title>firedrake.norms.errornorm (6,544,435 us, 4.85%)</title><rect x="431.8" y="71" width="57.2" height="15.0" fill="rgb(0,0,0)" rx="2" ry="2" />
<text  x="434.85" y="81.5" >fired..</text>
</g>
<g >
<title>firedrake.tsfc_interface.compile_form (950,821 us, 0.70%)</title><rect x="110.1" y="87" width="8.3" height="15.0" fill="rgb(0,0,0)" rx="2" ry="2" />
<text  x="113.08" y="97.5" ></text>
</g>
<g >
<title>ParLoopExecute (12,222,383 us, 9.05%)</title><rect x="118.6" y="103" width="106.7" height="15.0" fill="rgb(0,0,0)" rx="2" ry="2" />
<text  x="121.56" y="113.5" >ParLoopExec..</text>
</g>
<g >
<title>firedrake.parloops.par_loop (873,600 us, 0.65%)</title><rect x="819.1" y="167" width="7.6" height="15.0" fill="rgb(0,0,0)" rx="2" ry="2" />
<text  x="822.08" y="177.5" ></text>
</g>
<g >
<title>Parloop_ExtFacets_wrap_form0_exterior_facet_vert_integral_otherwise (1,814,314 us, 1.34%)</title><rect x="190.5" y="119" width="15.9" height="15.0" fill="rgb(0,0,0)" rx="2" ry="2" />
<text  x="193.52" y="129.5" ></text>
</g>
<g >
<title>Parloop_Cells_wrap_par_loop_kernel (926,193 us, 0.69%)</title><rect x="553.8" y="199" width="8.1" height="15.0" fill="rgb(0,0,0)" rx="2" ry="2" />
<text  x="556.84" y="209.5" ></text>
</g>
<g >
<title>pyop2.global_kernel.GlobalKernel.compile (1,259,840 us, 0.93%)</title><rect x="155.5" y="135" width="11.0" height="15.0" fill="rgb(0,0,0)" rx="2" ry="2" />
<text  x="158.46" y="145.5" ></text>
</g>
<g >
<title>pyop2.global_kernel.GlobalKernel.compile (379,030 us, 0.28%)</title><rect x="106.6" y="151" width="3.3" height="15.0" fill="rgb(0,0,0)" rx="2" ry="2" />
<text  x="109.60" y="161.5" ></text>
</g>
<g >
<title>pyop2.global_kernel.GlobalKernel.compile (2,171,988 us, 1.61%)</title><rect x="206.4" y="135" width="18.9" height="15.0" fill="rgb(0,0,0)" rx="2" ry="2" />
<text  x="209.37" y="145.5" ></text>
</g>
<g >
<title>Parloop_ExtFacets_wrap_form_exterior_facet_vert_integral_otherwise (1,780,554 us, 1.32%)</title><rect x="71.7" y="103" width="15.5" height="15.0" fill="rgb(0,0,0)" rx="2" ry="2" />
<text  x="74.69" y="113.5" ></text>
</g>
<g >
<title>ParLoopExecute (7,138,287 us, 5.29%)</title><rect x="40.8" y="87" width="62.3" height="15.0" fill="rgb(0,0,0)" rx="2" ry="2" />
<text  x="43.77" y="97.5" >ParLoo..</text>
</g>
<g >
<title>Parloop_ExtFacets_wrap_form00_exterior_facet_vert_integral_otherwise (1,983,653 us, 1.47%)</title><rect x="372.4" y="135" width="17.3" height="15.0" fill="rgb(0,0,0)" rx="2" ry="2" />
<text  x="375.37" y="145.5" ></text>
</g>
<g >
<title>firedrake.variational_solver.NonlinearVariationalSolver.solve (80,217,618 us, 59.39%)</title><rect x="489.1" y="71" width="700.9" height="15.0" fill="rgb(0,0,0)" rx="2" ry="2" />
<text  x="492.15" y="81.5" >firedrake.variational_solver.NonlinearVariationalSolver.solve</text>
</g>
<g >
<title>CreateExtMesh (870,867 us, 0.64%)</title><rect x="19.6" y="71" width="7.6" height="15.0" fill="rgb(0,0,0)" rx="2" ry="2" />
<text  x="22.60" y="81.5" ></text>
</g>
<g >
<title>pyop2.global_kernel.GlobalKernel.compile (3,114,567 us, 2.31%)</title><rect x="1129.2" y="151" width="27.3" height="15.0" fill="rgb(0,0,0)" rx="2" ry="2" />
<text  x="1132.25" y="161.5" >p..</text>
</g>
<g >
<title>firedrake.assemble_expressions.assemble_expression (795,199 us, 0.59%)</title><rect x="103.1" y="87" width="7.0" height="15.0" fill="rgb(0,0,0)" rx="2" ry="2" />
<text  x="106.14" y="97.5" ></text>
</g>
<g >
<title>Parloop_Cells_wrap_par_loop_kernel (660,410 us, 0.49%)</title><rect x="1123.5" y="167" width="5.7" height="15.0" fill="rgb(0,0,0)" rx="2" ry="2" />
<text  x="1126.48" y="177.5" ></text>
</g>
<g >
<title>Parloop_Cells_wrap_form00_exterior_facet_top_integral_otherwise (1,520,524 us, 1.13%)</title><rect x="343.2" y="135" width="13.2" height="15.0" fill="rgb(0,0,0)" rx="2" ry="2" />
<text  x="346.15" y="145.5" ></text>
</g>
<g >
<title>pyop2.global_kernel.GlobalKernel.compile (4,223,322 us, 3.13%)</title><rect x="118.6" y="135" width="36.9" height="15.0" fill="rgb(0,0,0)" rx="2" ry="2" />
<text  x="121.56" y="145.5" >py..</text>
</g>
<g >
<title>firedrake.functionspacedata.get_shared_data (20,564 us, 0.02%)</title><rect x="27.2" y="103" width="0.2" height="15.0" fill="rgb(0,0,0)" rx="2" ry="2" />
<text  x="30.21" y="113.5" ></text>
</g>
<g >
<title>firedrake.tsfc_interface.compile_form (1,283,446 us, 0.95%)</title><rect x="420.6" y="103" width="11.2" height="15.0" fill="rgb(0,0,0)" rx="2" ry="2" />
<text  x="423.64" y="113.5" ></text>
</g>
<g >
<title>pyop2.global_kernel.GlobalKernel.compile (1,171,953 us, 0.87%)</title><rect x="40.8" y="119" width="10.2" height="15.0" fill="rgb(0,0,0)" rx="2" ry="2" />
<text  x="43.77" y="129.5" ></text>
</g>
<g >
<title>Parloop_Cells_wrap_form0_cell_integral_otherwise (3,142,422 us, 2.33%)</title><rect x="489.1" y="167" width="27.5" height="15.0" fill="rgb(0,0,0)" rx="2" ry="2" />
<text  x="492.15" y="177.5" >P..</text>
</g>
<g >
<title>Parloop_Cells_wrap_form0_interior_facet_horiz_integral_otherwise (1,481,620 us, 1.10%)</title><rect x="177.6" y="119" width="12.9" height="15.0" fill="rgb(0,0,0)" rx="2" ry="2" />
<text  x="180.57" y="129.5" ></text>
</g>
<g >
<title>firedrake.tsfc_interface.compile_form (1,786,833 us, 1.32%)</title><rect x="932.4" y="167" width="15.6" height="15.0" fill="rgb(0,0,0)" rx="2" ry="2" />
<text  x="935.40" y="177.5" ></text>
</g>
<g >
<title>Parloop_Cells_wrap_form0_cell_integral_otherwise (4,223,322 us, 3.13%)</title><rect x="118.6" y="119" width="36.9" height="15.0" fill="rgb(0,0,0)" rx="2" ry="2" />
<text  x="121.56" y="129.5" >Pa..</text>
</g>
<g >
<title>pyop2.global_kernel.GlobalKernel.compile (1,520,524 us, 1.13%)</title><rect x="343.2" y="151" width="13.2" height="15.0" fill="rgb(0,0,0)" rx="2" ry="2" />
<text  x="346.15" y="161.5" ></text>
</g>
<g >
<title>ParLoopExecute (5,341,704 us, 3.96%)</title><rect x="431.8" y="119" width="46.7" height="15.0" fill="rgb(0,0,0)" rx="2" ry="2" />
<text  x="434.85" y="129.5" >ParL..</text>
</g>
<g >
<title>pyop2.global_kernel.GlobalKernel.compile (1,869,036 us, 1.38%)</title><rect x="326.8" y="151" width="16.4" height="15.0" fill="rgb(0,0,0)" rx="2" ry="2" />
<text  x="329.82" y="161.5" ></text>
</g>
<g >
<title>firedrake.tsfc_interface.compile_form (1,903,327 us, 1.41%)</title><rect x="802.4" y="151" width="16.7" height="15.0" fill="rgb(0,0,0)" rx="2" ry="2" />
<text  x="805.45" y="161.5" ></text>
</g>
<g >
<title>ParLoopExecute (15,781,438 us, 11.68%)</title><rect x="963.1" y="151" width="137.9" height="15.0" fill="rgb(0,0,0)" rx="2" ry="2" />
<text  x="966.08" y="161.5" >ParLoopExecute</text>
</g>
<g >
<title>ParLoopExecute (839,887 us, 0.62%)</title><rect x="19.9" y="103" width="7.3" height="15.0" fill="rgb(0,0,0)" rx="2" ry="2" />
<text  x="22.88" y="113.5" ></text>
</g>
</g>
</svg>
