<?xml version="1.0" standalone="no"?>
<!DOCTYPE svg PUBLIC "-//W3C//DTD SVG 1.1//EN" "http://www.w3.org/Graphics/SVG/1.1/DTD/svg11.dtd">
<svg version="1.1" width="1200" height="331" onload="init(evt)" viewBox="0 0 1200 331" xmlns="http://www.w3.org/2000/svg" xmlns:xlink="http://www.w3.org/1999/xlink">
<!-- Flame graph stack visualization. See https://github.com/brendangregg/FlameGraph for latest version, and http://www.brendangregg.com/flamegraphs.html for examples. -->
<!-- NOTES:  -->
<defs>
	<linearGradient id="background" y1="0" y2="1" x1="0" x2="0" >
		<stop stop-color="#eeeeee" offset="5%" />
		<stop stop-color="#eeeeb0" offset="95%" />
	</linearGradient>
</defs>
<style type="text/css">
	text { font-family:Verdana; font-size:13px; fill:rgb(0,0,0); }
	#search, #ignorecase { opacity:0.1; cursor:pointer; }
	#search:hover, #search.show, #ignorecase:hover, #ignorecase.show { opacity:1; }
	#subtitle { text-anchor:middle; font-color:rgb(160,160,160); }
	#title { text-anchor:middle; font-size:18px}
	#unzoom { cursor:pointer; }
	#frames > *:hover { stroke:black; stroke-width:0.5; cursor:pointer; }
	.hide { display:none; }
	.parent { opacity:0.5; }
</style>
<script type="text/ecmascript">
<![CDATA[
	"use strict";
	var details, searchbtn, unzoombtn, matchedtxt, svg, searching, currentSearchTerm, ignorecase, ignorecaseBtn;
	function init(evt) {
		details = document.getElementById("details").firstChild;
		searchbtn = document.getElementById("search");
		ignorecaseBtn = document.getElementById("ignorecase");
		unzoombtn = document.getElementById("unzoom");
		matchedtxt = document.getElementById("matched");
		svg = document.getElementsByTagName("svg")[0];
		searching = 0;
		currentSearchTerm = null;

		// use GET parameters to restore a flamegraphs state.
		var params = get_params();
		if (params.x && params.y)
			zoom(find_group(document.querySelector('[x="' + params.x + '"][y="' + params.y + '"]')));
                if (params.s) search(params.s);
	}

	// event listeners
	window.addEventListener("click", function(e) {
		var target = find_group(e.target);
		if (target) {
			if (target.nodeName == "a") {
				if (e.ctrlKey === false) return;
				e.preventDefault();
			}
			if (target.classList.contains("parent")) unzoom();
			zoom(target);
			if (!document.querySelector('.parent')) {
				clearzoom();
				return;
			}

			// set parameters for zoom state
			var el = target.querySelector("rect");
			if (el && el.attributes && el.attributes.y && el.attributes._orig_x) {
				var params = get_params()
				params.x = el.attributes._orig_x.value;
				params.y = el.attributes.y.value;
				history.replaceState(null, null, parse_params(params));
			}
		}
		else if (e.target.id == "unzoom") clearzoom();
		else if (e.target.id == "search") search_prompt();
		else if (e.target.id == "ignorecase") toggle_ignorecase();
	}, false)

	// mouse-over for info
	// show
	window.addEventListener("mouseover", function(e) {
		var target = find_group(e.target);
		if (target) details.nodeValue = "Function: " + g_to_text(target);
	}, false)

	// clear
	window.addEventListener("mouseout", function(e) {
		var target = find_group(e.target);
		if (target) details.nodeValue = ' ';
	}, false)

	// ctrl-F for search
	// ctrl-I to toggle case-sensitive search
	window.addEventListener("keydown",function (e) {
		if (e.keyCode === 114 || (e.ctrlKey && e.keyCode === 70)) {
			e.preventDefault();
			search_prompt();
		}
		else if (e.ctrlKey && e.keyCode === 73) {
			e.preventDefault();
			toggle_ignorecase();
		}
	}, false)

	// functions
	function get_params() {
		var params = {};
		var paramsarr = window.location.search.substr(1).split('&');
		for (var i = 0; i < paramsarr.length; ++i) {
			var tmp = paramsarr[i].split("=");
			if (!tmp[0] || !tmp[1]) continue;
			params[tmp[0]]  = decodeURIComponent(tmp[1]);
		}
		return params;
	}
	function parse_params(params) {
		var uri = "?";
		for (var key in params) {
			uri += key + '=' + encodeURIComponent(params[key]) + '&';
		}
		if (uri.slice(-1) == "&")
			uri = uri.substring(0, uri.length - 1);
		if (uri == '?')
			uri = window.location.href.split('?')[0];
		return uri;
	}
	function find_child(node, selector) {
		var children = node.querySelectorAll(selector);
		if (children.length) return children[0];
	}
	function find_group(node) {
		var parent = node.parentElement;
		if (!parent) return;
		if (parent.id == "frames") return node;
		return find_group(parent);
	}
	function orig_save(e, attr, val) {
		if (e.attributes["_orig_" + attr] != undefined) return;
		if (e.attributes[attr] == undefined) return;
		if (val == undefined) val = e.attributes[attr].value;
		e.setAttribute("_orig_" + attr, val);
	}
	function orig_load(e, attr) {
		if (e.attributes["_orig_"+attr] == undefined) return;
		e.attributes[attr].value = e.attributes["_orig_" + attr].value;
		e.removeAttribute("_orig_"+attr);
	}
	function g_to_text(e) {
		var text = find_child(e, "title").firstChild.nodeValue;
		return (text)
	}
	function g_to_func(e) {
		var func = g_to_text(e);
		// if there's any manipulation we want to do to the function
		// name before it's searched, do it here before returning.
		return (func);
	}
	function update_text(e) {
		var r = find_child(e, "rect");
		var t = find_child(e, "text");
		var w = parseFloat(r.attributes.width.value) -3;
		var txt = find_child(e, "title").textContent.replace(/\([^(]*\)$/,"");
		t.attributes.x.value = parseFloat(r.attributes.x.value) + 3;

		// Smaller than this size won't fit anything
		if (w < 2 * 13 * 0.59) {
			t.textContent = "";
			return;
		}

		t.textContent = txt;
		// Fit in full text width
		if (/^ *$/.test(txt) || t.getSubStringLength(0, txt.length) < w)
			return;

		for (var x = txt.length - 2; x > 0; x--) {
			if (t.getSubStringLength(0, x + 2) <= w) {
				t.textContent = txt.substring(0, x) + "..";
				return;
			}
		}
		t.textContent = "";
	}

	// zoom
	function zoom_reset(e) {
		if (e.attributes != undefined) {
			orig_load(e, "x");
			orig_load(e, "width");
		}
		if (e.childNodes == undefined) return;
		for (var i = 0, c = e.childNodes; i < c.length; i++) {
			zoom_reset(c[i]);
		}
	}
	function zoom_child(e, x, ratio) {
		if (e.attributes != undefined) {
			if (e.attributes.x != undefined) {
				orig_save(e, "x");
				e.attributes.x.value = (parseFloat(e.attributes.x.value) - x - 10) * ratio + 10;
				if (e.tagName == "text")
					e.attributes.x.value = find_child(e.parentNode, "rect[x]").attributes.x.value + 3;
			}
			if (e.attributes.width != undefined) {
				orig_save(e, "width");
				e.attributes.width.value = parseFloat(e.attributes.width.value) * ratio;
			}
		}

		if (e.childNodes == undefined) return;
		for (var i = 0, c = e.childNodes; i < c.length; i++) {
			zoom_child(c[i], x - 10, ratio);
		}
	}
	function zoom_parent(e) {
		if (e.attributes) {
			if (e.attributes.x != undefined) {
				orig_save(e, "x");
				e.attributes.x.value = 10;
			}
			if (e.attributes.width != undefined) {
				orig_save(e, "width");
				e.attributes.width.value = parseInt(svg.width.baseVal.value) - (10 * 2);
			}
		}
		if (e.childNodes == undefined) return;
		for (var i = 0, c = e.childNodes; i < c.length; i++) {
			zoom_parent(c[i]);
		}
	}
	function zoom(node) {
		var attr = find_child(node, "rect").attributes;
		var width = parseFloat(attr.width.value);
		var xmin = parseFloat(attr.x.value);
		var xmax = parseFloat(xmin + width);
		var ymin = parseFloat(attr.y.value);
		var ratio = (svg.width.baseVal.value - 2 * 10) / width;

		// XXX: Workaround for JavaScript float issues (fix me)
		var fudge = 0.0001;

		unzoombtn.classList.remove("hide");

		var el = document.getElementById("frames").children;
		for (var i = 0; i < el.length; i++) {
			var e = el[i];
			var a = find_child(e, "rect").attributes;
			var ex = parseFloat(a.x.value);
			var ew = parseFloat(a.width.value);
			var upstack;
			// Is it an ancestor
			if (1 == 0) {
				upstack = parseFloat(a.y.value) > ymin;
			} else {
				upstack = parseFloat(a.y.value) < ymin;
			}
			if (upstack) {
				// Direct ancestor
				if (ex <= xmin && (ex+ew+fudge) >= xmax) {
					e.classList.add("parent");
					zoom_parent(e);
					update_text(e);
				}
				// not in current path
				else
					e.classList.add("hide");
			}
			// Children maybe
			else {
				// no common path
				if (ex < xmin || ex + fudge >= xmax) {
					e.classList.add("hide");
				}
				else {
					zoom_child(e, xmin, ratio);
					update_text(e);
				}
			}
		}
		search();
	}
	function unzoom() {
		unzoombtn.classList.add("hide");
		var el = document.getElementById("frames").children;
		for(var i = 0; i < el.length; i++) {
			el[i].classList.remove("parent");
			el[i].classList.remove("hide");
			zoom_reset(el[i]);
			update_text(el[i]);
		}
		search();
	}
	function clearzoom() {
		unzoom();

		// remove zoom state
		var params = get_params();
		if (params.x) delete params.x;
		if (params.y) delete params.y;
		history.replaceState(null, null, parse_params(params));
	}

	// search
	function toggle_ignorecase() {
		ignorecase = !ignorecase;
		if (ignorecase) {
			ignorecaseBtn.classList.add("show");
		} else {
			ignorecaseBtn.classList.remove("show");
		}
		reset_search();
		search();
	}
	function reset_search() {
		var el = document.querySelectorAll("#frames rect");
		for (var i = 0; i < el.length; i++) {
			orig_load(el[i], "fill")
		}
		var params = get_params();
		delete params.s;
		history.replaceState(null, null, parse_params(params));
	}
	function search_prompt() {
		if (!searching) {
			var term = prompt("Enter a search term (regexp " +
			    "allowed, eg: ^ext4_)"
			    + (ignorecase ? ", ignoring case" : "")
			    + "\nPress Ctrl-i to toggle case sensitivity", "");
			if (term != null) search(term);
		} else {
			reset_search();
			searching = 0;
			currentSearchTerm = null;
			searchbtn.classList.remove("show");
			searchbtn.firstChild.nodeValue = "Search"
			matchedtxt.classList.add("hide");
			matchedtxt.firstChild.nodeValue = ""
		}
	}
	function search(term) {
		if (term) currentSearchTerm = term;

		var re = new RegExp(currentSearchTerm, ignorecase ? 'i' : '');
		var el = document.getElementById("frames").children;
		var matches = new Object();
		var maxwidth = 0;
		for (var i = 0; i < el.length; i++) {
			var e = el[i];
			var func = g_to_func(e);
			var rect = find_child(e, "rect");
			if (func == null || rect == null)
				continue;

			// Save max width. Only works as we have a root frame
			var w = parseFloat(rect.attributes.width.value);
			if (w > maxwidth)
				maxwidth = w;

			if (func.match(re)) {
				// highlight
				var x = parseFloat(rect.attributes.x.value);
				orig_save(rect, "fill");
				rect.attributes.fill.value = "rgb(230,0,230)";

				// remember matches
				if (matches[x] == undefined) {
					matches[x] = w;
				} else {
					if (w > matches[x]) {
						// overwrite with parent
						matches[x] = w;
					}
				}
				searching = 1;
			}
		}
		if (!searching)
			return;
		var params = get_params();
		params.s = currentSearchTerm;
		history.replaceState(null, null, parse_params(params));

		searchbtn.classList.add("show");
		searchbtn.firstChild.nodeValue = "Reset Search";

		// calculate percent matched, excluding vertical overlap
		var count = 0;
		var lastx = -1;
		var lastw = 0;
		var keys = Array();
		for (k in matches) {
			if (matches.hasOwnProperty(k))
				keys.push(k);
		}
		// sort the matched frames by their x location
		// ascending, then width descending
		keys.sort(function(a, b){
			return a - b;
		});
		// Step through frames saving only the biggest bottom-up frames
		// thanks to the sort order. This relies on the tree property
		// where children are always smaller than their parents.
		var fudge = 0.0001;	// JavaScript floating point
		for (var k in keys) {
			var x = parseFloat(keys[k]);
			var w = matches[keys[k]];
			if (x >= lastx + lastw - fudge) {
				count += w;
				lastx = x;
				lastw = w;
			}
		}
		// display matched percent
		matchedtxt.classList.remove("hide");
		var pct = 100 * count / maxwidth;
		if (pct != 100) pct = pct.toFixed(1)
		matchedtxt.firstChild.nodeValue = "Matched: " + pct + "%";
	}
]]>
</script>
<rect x="0.0" y="0" width="1200.0" height="331.0" fill="url(#background)"  />
<text id="title" x="600.00" y="26" >Firedrake example</text>
<text id="details" x="10.00" y="313" > </text>
<text id="unzoom" x="10.00" y="26" class="hide">Reset Zoom</text>
<text id="search" x="1090.00" y="26" >Search</text>
<text id="ignorecase" x="1174.00" y="26" >ic</text>
<text id="matched" x="1090.00" y="313" > </text>
<g id="frames">
<g >
<title>firedrake.functionspacedata.get_shared_data (24,194 us, 0.02%)</title><rect x="31.2" y="103" width="0.2" height="15.0" fill="rgb(0,0,0)" rx="2" ry="2" />
<text  x="34.15" y="113.5" ></text>
</g>
<g >
<title>PCGAMGCoarse_AGG (2,755,531 us, 2.74%)</title><rect x="616.5" y="183" width="32.4" height="15.0" fill="rgb(0,0,0)" rx="2" ry="2" />
<text  x="619.53" y="193.5" >PC..</text>
</g>
<g >
<title>firedrake.variational_solver.NonlinearVariationalSolver.solve (55,223,707 us, 54.97%)</title><rect x="541.3" y="71" width="648.7" height="15.0" fill="rgb(0,0,0)" rx="2" ry="2" />
<text  x="544.32" y="81.5" >firedrake.variational_solver.NonlinearVariationalSolver.solve</text>
</g>
<g >
<title>ParLoopExecute (787,975 us, 0.78%)</title><rect x="49.0" y="119" width="9.3" height="15.0" fill="rgb(0,0,0)" rx="2" ry="2" />
<text  x="52.03" y="129.5" ></text>
</g>
<g >
<title>MatMult (159,322 us, 0.16%)</title><rect x="655.4" y="231" width="1.9" height="15.0" fill="rgb(0,0,0)" rx="2" ry="2" />
<text  x="658.45" y="241.5" ></text>
</g>
<g >
<title>FunctionSpaceData: CreateElement (11,249 us, 0.01%)</title><rect x="31.3" y="135" width="0.1" height="15.0" fill="rgb(0,0,0)" rx="2" ry="2" />
<text  x="34.30" y="145.5" ></text>
</g>
<g >
<title>KSPSolve (321,184 us, 0.32%)</title><rect x="655.4" y="215" width="3.8" height="15.0" fill="rgb(0,0,0)" rx="2" ry="2" />
<text  x="658.45" y="225.5" ></text>
</g>
<g >
<title>PCApply (4,505,014 us, 4.48%)</title><rect x="563.6" y="167" width="52.9" height="15.0" fill="rgb(0,0,0)" rx="2" ry="2" />
<text  x="566.61" y="177.5" >PCAp..</text>
</g>
<g >
<title>MatConvert (16,875 us, 0.02%)</title><rect x="664.5" y="119" width="0.2" height="15.0" fill="rgb(0,0,0)" rx="2" ry="2" />
<text  x="667.46" y="129.5" ></text>
</g>
<g >
<title>Parloop_set_#x7fe968e374c0_wrap_expression_kernel (397,192 us, 0.40%)</title><rect x="49.0" y="135" width="4.7" height="15.0" fill="rgb(0,0,0)" rx="2" ry="2" />
<text  x="52.03" y="145.5" ></text>
</g>
<g >
<title>MatMatMultSym (14,395 us, 0.01%)</title><rect x="654.1" y="231" width="0.2" height="15.0" fill="rgb(0,0,0)" rx="2" ry="2" />
<text  x="657.10" y="241.5" ></text>
</g>
<g >
<title>firedrake.dmhooks.create_field_decomposition (34,109 us, 0.03%)</title><rect x="677.5" y="119" width="0.4" height="15.0" fill="rgb(0,0,0)" rx="2" ry="2" />
<text  x="680.45" y="129.5" ></text>
</g>
<g >
<title>firedrake.assemble.allocate_matrix (3,160,564 us, 3.15%)</title><rect x="504.2" y="87" width="37.1" height="15.0" fill="rgb(0,0,0)" rx="2" ry="2" />
<text  x="507.19" y="97.5" >fi..</text>
</g>
<g >
<title>KSPSolve (1,295,362 us, 1.29%)</title><rect x="578.9" y="247" width="15.2" height="15.0" fill="rgb(0,0,0)" rx="2" ry="2" />
<text  x="581.85" y="257.5" ></text>
</g>
<g >
<title>MatCreateSubMats (221,497 us, 0.22%)</title><rect x="664.7" y="119" width="2.6" height="15.0" fill="rgb(0,0,0)" rx="2" ry="2" />
<text  x="667.66" y="129.5" ></text>
</g>
<g >
<title>firedrake.assemble_expressions.evaluate_expression (806,338 us, 0.80%)</title><rect x="49.0" y="103" width="9.5" height="15.0" fill="rgb(0,0,0)" rx="2" ry="2" />
<text  x="52.03" y="113.5" ></text>
</g>
<g >
<title>MatSolve (78,528 us, 0.08%)</title><rect x="356.3" y="183" width="0.9" height="15.0" fill="rgb(0,0,0)" rx="2" ry="2" />
<text  x="359.27" y="193.5" ></text>
</g>
<g >
<title>PCGAMG Opt l00 (32,494 us, 0.03%)</title><rect x="653.9" y="215" width="0.4" height="15.0" fill="rgb(0,0,0)" rx="2" ry="2" />
<text  x="656.89" y="225.5" ></text>
</g>
<g >
<title>pyop2.global_kernel.GlobalKernel.compile (4,400,295 us, 4.38%)</title><rect x="677.9" y="151" width="51.6" height="15.0" fill="rgb(0,0,0)" rx="2" ry="2" />
<text  x="680.85" y="161.5" >pyop..</text>
</g>
<g >
<title>KSPSolve (130,070 us, 0.13%)</title><rect x="355.7" y="119" width="1.5" height="15.0" fill="rgb(0,0,0)" rx="2" ry="2" />
<text  x="358.67" y="129.5" ></text>
</g>
<g >
<title>firedrake.tsfc_interface.compile_form (1,276,080 us, 1.27%)</title><rect x="770.4" y="119" width="15.0" height="15.0" fill="rgb(0,0,0)" rx="2" ry="2" />
<text  x="773.37" y="129.5" ></text>
</g>
<g >
<title>pyop2.global_kernel.GlobalKernel.compile (397,192 us, 0.40%)</title><rect x="49.0" y="151" width="4.7" height="15.0" fill="rgb(0,0,0)" rx="2" ry="2" />
<text  x="52.03" y="161.5" ></text>
</g>
<g >
<title>MatMult (255,697 us, 0.25%)</title><rect x="608.6" y="231" width="3.0" height="15.0" fill="rgb(0,0,0)" rx="2" ry="2" />
<text  x="611.58" y="241.5" ></text>
</g>
<g >
<title>Log_Event_form00_cell_integral_otherwise (76,074 us, 0.08%)</title><rect x="114.5" y="151" width="0.9" height="15.0" fill="rgb(0,0,0)" rx="2" ry="2" />
<text  x="117.53" y="161.5" ></text>
</g>
<g >
<title>MatSolve (1,295,362 us, 1.29%)</title><rect x="578.9" y="279" width="15.2" height="15.0" fill="rgb(0,0,0)" rx="2" ry="2" />
<text  x="581.85" y="289.5" ></text>
</g>
<g >
<title>CreateFunctionSpace (24,194 us, 0.02%)</title><rect x="31.2" y="71" width="0.2" height="15.0" fill="rgb(0,0,0)" rx="2" ry="2" />
<text  x="34.15" y="81.5" ></text>
</g>
<g >
<title>PCSetUp (3,786,211 us, 3.77%)</title><rect x="616.5" y="151" width="44.5" height="15.0" fill="rgb(0,0,0)" rx="2" ry="2" />
<text  x="619.53" y="161.5" >PCS..</text>
</g>
<g >
<title>KSPSolve (10,332,807 us, 10.29%)</title><rect x="541.3" y="103" width="121.4" height="15.0" fill="rgb(0,0,0)" rx="2" ry="2" />
<text  x="544.32" y="113.5" >KSPSolve</text>
</g>
<g >
<title>ParLoopExecute (18,210,976 us, 18.13%)</title><rect x="112.1" y="119" width="213.9" height="15.0" fill="rgb(0,0,0)" rx="2" ry="2" />
<text  x="115.07" y="129.5" >ParLoopExecute</text>
</g>
<g >
<title>MatMult (423,710 us, 0.42%)</title><rect x="655.4" y="199" width="5.0" height="15.0" fill="rgb(0,0,0)" rx="2" ry="2" />
<text  x="658.45" y="209.5" ></text>
</g>
<g >
<title>MatMult (255,416 us, 0.25%)</title><rect x="552.0" y="167" width="3.0" height="15.0" fill="rgb(0,0,0)" rx="2" ry="2" />
<text  x="554.97" y="177.5" ></text>
</g>
<g >
<title>MatILUFactorSym (51,684 us, 0.05%)</title><rect x="558.0" y="183" width="0.6" height="15.0" fill="rgb(0,0,0)" rx="2" ry="2" />
<text  x="561.02" y="193.5" ></text>
</g>
<g >
<title>firedrake.tsfc_interface.compile_form (577,597 us, 0.57%)</title><rect x="348.9" y="119" width="6.8" height="15.0" fill="rgb(0,0,0)" rx="2" ry="2" />
<text  x="351.88" y="129.5" ></text>
</g>
<g >
<title>MatAssemblyEnd (16,669 us, 0.02%)</title><rect x="529.4" y="103" width="0.2" height="15.0" fill="rgb(0,0,0)" rx="2" ry="2" />
<text  x="532.38" y="113.5" ></text>
</g>
<g >
<title>MatConvert (24,825 us, 0.02%)</title><rect x="653.5" y="215" width="0.2" height="15.0" fill="rgb(0,0,0)" rx="2" ry="2" />
<text  x="656.46" y="225.5" ></text>
</g>
<g >
<title>PCApply (1,295,362 us, 1.29%)</title><rect x="578.9" y="263" width="15.2" height="15.0" fill="rgb(0,0,0)" rx="2" ry="2" />
<text  x="581.85" y="273.5" ></text>
</g>
<g >
<title>PCSetUp (476,219 us, 0.47%)</title><rect x="558.0" y="167" width="5.6" height="15.0" fill="rgb(0,0,0)" rx="2" ry="2" />
<text  x="561.02" y="177.5" ></text>
</g>
<g >
<title>firedrake.__init__ (1,498,039 us, 1.49%)</title><rect x="31.4" y="71" width="17.6" height="15.0" fill="rgb(0,0,0)" rx="2" ry="2" />
<text  x="34.44" y="81.5" ></text>
</g>
<g >
<title>Log_Event_form00_cell_integral_otherwise (58,947 us, 0.06%)</title><rect x="788.1" y="151" width="0.7" height="15.0" fill="rgb(0,0,0)" rx="2" ry="2" />
<text  x="791.09" y="161.5" ></text>
</g>
<g >
<title>SNESSolve (55,223,707 us, 54.97%)</title><rect x="541.3" y="87" width="648.7" height="15.0" fill="rgb(0,0,0)" rx="2" ry="2" />
<text  x="544.32" y="97.5" >SNESSolve</text>
</g>
<g >
<title>Parloop_Cells_wrap_form0_cell_integral_otherwise (4,400,295 us, 4.38%)</title><rect x="677.9" y="135" width="51.6" height="15.0" fill="rgb(0,0,0)" rx="2" ry="2" />
<text  x="680.85" y="145.5" >Parl..</text>
</g>
<g >
<title>PCApply (9,940,359 us, 9.90%)</title><rect x="545.9" y="119" width="116.8" height="15.0" fill="rgb(0,0,0)" rx="2" ry="2" />
<text  x="548.93" y="129.5" >PCApply</text>
</g>
<g >
<title>firedrake (100,455,742 us, 100.00%)</title><rect x="10.0" y="55" width="1180.0" height="15.0" fill="rgb(0,0,0)" rx="2" ry="2" />
<text  x="13.00" y="65.5" >firedrake</text>
</g>
<g >
<title>all (100,455,742 us, 100%)</title><rect x="10.0" y="39" width="1180.0" height="15.0" fill="rgb(0,0,0)" rx="2" ry="2" />
<text  x="13.00" y="49.5" ></text>
</g>
<g >
<title>PCSetUpOnBlocks (476,219 us, 0.47%)</title><rect x="558.0" y="151" width="5.6" height="15.0" fill="rgb(0,0,0)" rx="2" ry="2" />
<text  x="561.02" y="161.5" ></text>
</g>
<g >
<title>MatZeroInitial (663,625 us, 0.66%)</title><rect x="341.1" y="135" width="7.8" height="15.0" fill="rgb(0,0,0)" rx="2" ry="2" />
<text  x="344.09" y="145.5" ></text>
</g>
<g >
<title>Parloop_Cells_wrap_form_cell_integral_otherwise (9,679,721 us, 9.64%)</title><rect x="375.0" y="135" width="113.7" height="15.0" fill="rgb(0,0,0)" rx="2" ry="2" />
<text  x="377.99" y="145.5" >Parloop_Cell..</text>
</g>
<g >
<title>MatMult (255,211 us, 0.25%)</title><rect x="545.9" y="167" width="3.0" height="15.0" fill="rgb(0,0,0)" rx="2" ry="2" />
<text  x="548.93" y="177.5" ></text>
</g>
<g >
<title>CreateSparsity (2,144,011 us, 2.13%)</title><rect x="504.2" y="103" width="25.2" height="15.0" fill="rgb(0,0,0)" rx="2" ry="2" />
<text  x="507.19" y="113.5" >C..</text>
</g>
<g >
<title>KSPSolve (514,514 us, 0.51%)</title><rect x="545.9" y="151" width="6.1" height="15.0" fill="rgb(0,0,0)" rx="2" ry="2" />
<text  x="548.93" y="161.5" ></text>
</g>
<g >
<title>ParLoopExecute (901,536 us, 0.90%)</title><rect x="20.6" y="103" width="10.6" height="15.0" fill="rgb(0,0,0)" rx="2" ry="2" />
<text  x="23.56" y="113.5" ></text>
</g>
<g >
<title>KSPSolve (514,617 us, 0.51%)</title><rect x="552.0" y="151" width="6.0" height="15.0" fill="rgb(0,0,0)" rx="2" ry="2" />
<text  x="554.97" y="161.5" ></text>
</g>
<g >
<title>MatMult (3,402,389 us, 3.39%)</title><rect x="563.6" y="199" width="40.0" height="15.0" fill="rgb(0,0,0)" rx="2" ry="2" />
<text  x="566.61" y="209.5" >Mat..</text>
</g>
<g >
<title>pyop2.global_kernel.GlobalKernel.compile (4,560,195 us, 4.54%)</title><rect x="58.5" y="135" width="53.6" height="15.0" fill="rgb(0,0,0)" rx="2" ry="2" />
<text  x="61.50" y="145.5" >pyop..</text>
</g>
<g >
<title>PCApply (258,896 us, 0.26%)</title><rect x="611.6" y="231" width="3.0" height="15.0" fill="rgb(0,0,0)" rx="2" ry="2" />
<text  x="614.59" y="241.5" ></text>
</g>
<g >
<title>MatZeroEntries (29,168 us, 0.03%)</title><rect x="785.4" y="119" width="0.3" height="15.0" fill="rgb(0,0,0)" rx="2" ry="2" />
<text  x="788.36" y="129.5" ></text>
</g>
<g >
<title>PCApply (426,307 us, 0.42%)</title><rect x="603.6" y="199" width="5.0" height="15.0" fill="rgb(0,0,0)" rx="2" ry="2" />
<text  x="606.58" y="209.5" ></text>
</g>
<g >
<title>Parloop_Cells_wrap_form01_cell_integral_otherwise (8,019,443 us, 7.98%)</title><rect x="978.3" y="135" width="94.2" height="15.0" fill="rgb(0,0,0)" rx="2" ry="2" />
<text  x="981.31" y="145.5" >Parloop_Ce..</text>
</g>
<g >
<title>KSPSolve (259,303 us, 0.26%)</title><rect x="548.9" y="183" width="3.1" height="15.0" fill="rgb(0,0,0)" rx="2" ry="2" />
<text  x="551.92" y="193.5" ></text>
</g>
<g >
<title>firedrake.assemble.assemble (806,338 us, 0.80%)</title><rect x="49.0" y="71" width="9.5" height="15.0" fill="rgb(0,0,0)" rx="2" ry="2" />
<text  x="52.03" y="81.5" ></text>
</g>
<g >
<title>firedrake.variational_solver.NonlinearVariationalProblem.__init__ (12,295 us, 0.01%)</title><rect x="504.0" y="87" width="0.2" height="15.0" fill="rgb(0,0,0)" rx="2" ry="2" />
<text  x="507.05" y="97.5" ></text>
</g>
<g >
<title>PCApply (161,862 us, 0.16%)</title><rect x="657.3" y="231" width="1.9" height="15.0" fill="rgb(0,0,0)" rx="2" ry="2" />
<text  x="660.32" y="241.5" ></text>
</g>
<g >
<title>MatSolve (259,303 us, 0.26%)</title><rect x="548.9" y="215" width="3.1" height="15.0" fill="rgb(0,0,0)" rx="2" ry="2" />
<text  x="551.92" y="225.5" ></text>
</g>
<g >
<title>KSPSolve (514,593 us, 0.51%)</title><rect x="608.6" y="215" width="6.0" height="15.0" fill="rgb(0,0,0)" rx="2" ry="2" />
<text  x="611.58" y="225.5" ></text>
</g>
<g >
<title>firedrake.assemble_expressions.assemble_expression (806,338 us, 0.80%)</title><rect x="49.0" y="87" width="9.5" height="15.0" fill="rgb(0,0,0)" rx="2" ry="2" />
<text  x="52.03" y="97.5" ></text>
</g>
<g >
<title>KSPSolve (259,201 us, 0.26%)</title><rect x="555.0" y="183" width="3.0" height="15.0" fill="rgb(0,0,0)" rx="2" ry="2" />
<text  x="557.97" y="193.5" ></text>
</g>
<g >
<title>Parloop_set_#x7fe968e877f0_wrap_expression_kernel (390,783 us, 0.39%)</title><rect x="53.7" y="135" width="4.6" height="15.0" fill="rgb(0,0,0)" rx="2" ry="2" />
<text  x="56.70" y="145.5" ></text>
</g>
<g >
<title>firedrake.variational_solver.NonlinearVariationalProblem.__init__ (19,922 us, 0.02%)</title><rect x="677.6" y="151" width="0.3" height="15.0" fill="rgb(0,0,0)" rx="2" ry="2" />
<text  x="680.62" y="161.5" ></text>
</g>
<g >
<title>PCApply (49,301 us, 0.05%)</title><rect x="660.4" y="199" width="0.6" height="15.0" fill="rgb(0,0,0)" rx="2" ry="2" />
<text  x="663.42" y="209.5" ></text>
</g>
<g >
<title>MatSolve (259,201 us, 0.26%)</title><rect x="555.0" y="215" width="3.0" height="15.0" fill="rgb(0,0,0)" rx="2" ry="2" />
<text  x="557.97" y="225.5" ></text>
</g>
<g >
<title>firedrake.norms.norm (10,987,043 us, 10.94%)</title><rect x="375.0" y="87" width="129.0" height="15.0" fill="rgb(0,0,0)" rx="2" ry="2" />
<text  x="377.99" y="97.5" >firedrake.norm..</text>
</g>
<g >
<title>PCSetUp (1,082,987 us, 1.08%)</title><rect x="357.2" y="135" width="12.7" height="15.0" fill="rgb(0,0,0)" rx="2" ry="2" />
<text  x="360.19" y="145.5" ></text>
</g>
<g >
<title>MatMultAdd (94,958 us, 0.09%)</title><rect x="602.5" y="215" width="1.1" height="15.0" fill="rgb(0,0,0)" rx="2" ry="2" />
<text  x="605.46" y="225.5" ></text>
</g>
<g >
<title>pyop2.global_kernel.GlobalKernel.compile (8,113,615 us, 8.08%)</title><rect x="1074.7" y="151" width="95.3" height="15.0" fill="rgb(0,0,0)" rx="2" ry="2" />
<text  x="1077.66" y="161.5" >pyop2.glob..</text>
</g>
<g >
<title>MatAssemblyEnd (14,833 us, 0.01%)</title><rect x="667.1" y="135" width="0.2" height="15.0" fill="rgb(0,0,0)" rx="2" ry="2" />
<text  x="670.09" y="145.5" ></text>
</g>
<g >
<title>Parloop_Cells_wrap_pyop2_kernel_uniform_extrusion (901,536 us, 0.90%)</title><rect x="20.6" y="119" width="10.6" height="15.0" fill="rgb(0,0,0)" rx="2" ry="2" />
<text  x="23.56" y="129.5" ></text>
</g>
<g >
<title>PCApply (259,303 us, 0.26%)</title><rect x="548.9" y="199" width="3.1" height="15.0" fill="rgb(0,0,0)" rx="2" ry="2" />
<text  x="551.92" y="209.5" ></text>
</g>
<g >
<title>CreateExtMesh (933,248 us, 0.93%)</title><rect x="20.2" y="71" width="11.0" height="15.0" fill="rgb(0,0,0)" rx="2" ry="2" />
<text  x="23.19" y="81.5" ></text>
</g>
<g >
<title>MatMult (90,333 us, 0.09%)</title><rect x="659.2" y="215" width="1.1" height="15.0" fill="rgb(0,0,0)" rx="2" ry="2" />
<text  x="662.22" y="225.5" ></text>
</g>
<g >
<title>MatSolve (258,896 us, 0.26%)</title><rect x="611.6" y="279" width="3.0" height="15.0" fill="rgb(0,0,0)" rx="2" ry="2" />
<text  x="614.59" y="289.5" ></text>
</g>
<g >
<title>MatMult (676,318 us, 0.67%)</title><rect x="608.6" y="199" width="7.9" height="15.0" fill="rgb(0,0,0)" rx="2" ry="2" />
<text  x="611.58" y="209.5" ></text>
</g>
<g >
<title>PCSetUp (1,290,837 us, 1.28%)</title><rect x="662.7" y="103" width="15.2" height="15.0" fill="rgb(0,0,0)" rx="2" ry="2" />
<text  x="665.69" y="113.5" ></text>
</g>
<g >
<title>PCApply (161,862 us, 0.16%)</title><rect x="657.3" y="263" width="1.9" height="15.0" fill="rgb(0,0,0)" rx="2" ry="2" />
<text  x="660.32" y="273.5" ></text>
</g>
<g >
<title>Parloop_Cells_wrap_form1_cell_integral_otherwise (3,476,121 us, 3.46%)</title><rect x="729.5" y="135" width="40.9" height="15.0" fill="rgb(0,0,0)" rx="2" ry="2" />
<text  x="732.54" y="145.5" >Par..</text>
</g>
<g >
<title>MatTrnMatMultSym (2,739,199 us, 2.73%)</title><rect x="616.7" y="215" width="32.2" height="15.0" fill="rgb(0,0,0)" rx="2" ry="2" />
<text  x="619.72" y="225.5" >Ma..</text>
</g>
<g >
<title>KSPSolve (78,528 us, 0.08%)</title><rect x="356.3" y="151" width="0.9" height="15.0" fill="rgb(0,0,0)" rx="2" ry="2" />
<text  x="359.27" y="161.5" ></text>
</g>
<g >
<title>PCApply (259,201 us, 0.26%)</title><rect x="555.0" y="199" width="3.0" height="15.0" fill="rgb(0,0,0)" rx="2" ry="2" />
<text  x="557.97" y="209.5" ></text>
</g>
<g >
<title>MatMult (392,448 us, 0.39%)</title><rect x="541.3" y="119" width="4.6" height="15.0" fill="rgb(0,0,0)" rx="2" ry="2" />
<text  x="544.32" y="129.5" ></text>
</g>
<g >
<title>KSPSolve (473,011 us, 0.47%)</title><rect x="655.4" y="183" width="5.6" height="15.0" fill="rgb(0,0,0)" rx="2" ry="2" />
<text  x="658.45" y="193.5" ></text>
</g>
<g >
<title>MatScale (11,603 us, 0.01%)</title><rect x="653.7" y="215" width="0.2" height="15.0" fill="rgb(0,0,0)" rx="2" ry="2" />
<text  x="656.75" y="225.5" ></text>
</g>
<g >
<title>firedrake.tsfc_interface.compile_form (1,307,322 us, 1.30%)</title><rect x="488.7" y="119" width="15.3" height="15.0" fill="rgb(0,0,0)" rx="2" ry="2" />
<text  x="491.69" y="129.5" ></text>
</g>
<g >
<title>MatMatMultSym (449,763 us, 0.45%)</title><rect x="672.2" y="119" width="5.3" height="15.0" fill="rgb(0,0,0)" rx="2" ry="2" />
<text  x="675.17" y="129.5" ></text>
</g>
<g >
<title>PCApply (259,303 us, 0.26%)</title><rect x="548.9" y="167" width="3.1" height="15.0" fill="rgb(0,0,0)" rx="2" ry="2" />
<text  x="551.92" y="177.5" ></text>
</g>
<g >
<title>pyop2.global_kernel.GlobalKernel.compile (9,679,721 us, 9.64%)</title><rect x="375.0" y="151" width="113.7" height="15.0" fill="rgb(0,0,0)" rx="2" ry="2" />
<text  x="377.99" y="161.5" >pyop2.global..</text>
</g>
<g >
<title>MatICCFactorSym (13,299 us, 0.01%)</title><rect x="369.8" y="151" width="0.1" height="15.0" fill="rgb(0,0,0)" rx="2" ry="2" />
<text  x="372.76" y="161.5" ></text>
</g>
<g >
<title>firedrake.norms.errornorm (10,987,043 us, 10.94%)</title><rect x="375.0" y="71" width="129.0" height="15.0" fill="rgb(0,0,0)" rx="2" ry="2" />
<text  x="377.99" y="81.5" >firedrake.norm..</text>
</g>
<g >
<title>KSPSolve (68,095 us, 0.07%)</title><rect x="654.3" y="199" width="0.8" height="15.0" fill="rgb(0,0,0)" rx="2" ry="2" />
<text  x="657.27" y="209.5" ></text>
</g>
<g >
<title>firedrake.extrusion_utils.make_extruded_coords (933,248 us, 0.93%)</title><rect x="20.2" y="87" width="11.0" height="15.0" fill="rgb(0,0,0)" rx="2" ry="2" />
<text  x="23.19" y="97.5" ></text>
</g>
<g >
<title>GAMG: partLevel (32,185 us, 0.03%)</title><rect x="655.1" y="167" width="0.3" height="15.0" fill="rgb(0,0,0)" rx="2" ry="2" />
<text  x="658.07" y="177.5" ></text>
</g>
<g >
<title>MatAXPY (133,998 us, 0.13%)</title><rect x="662.9" y="119" width="1.6" height="15.0" fill="rgb(0,0,0)" rx="2" ry="2" />
<text  x="665.89" y="129.5" ></text>
</g>
<g >
<title>MatCholFctrNum (1,069,688 us, 1.06%)</title><rect x="357.2" y="151" width="12.6" height="15.0" fill="rgb(0,0,0)" rx="2" ry="2" />
<text  x="360.19" y="161.5" ></text>
</g>
<g >
<title>KSPSolve_FS_Schu (8,291,225 us, 8.25%)</title><rect x="563.6" y="135" width="97.4" height="15.0" fill="rgb(0,0,0)" rx="2" ry="2" />
<text  x="566.61" y="145.5" >KSPSolve_F..</text>
</g>
<g >
<title>PCApply (78,528 us, 0.08%)</title><rect x="356.3" y="135" width="0.9" height="15.0" fill="rgb(0,0,0)" rx="2" ry="2" />
<text  x="359.27" y="145.5" ></text>
</g>
<g >
<title>PCGAMG Gal l00 (32,185 us, 0.03%)</title><rect x="655.1" y="183" width="0.3" height="15.0" fill="rgb(0,0,0)" rx="2" ry="2" />
<text  x="658.07" y="193.5" ></text>
</g>
<g >
<title>PCApply (1,295,362 us, 1.29%)</title><rect x="578.9" y="231" width="15.2" height="15.0" fill="rgb(0,0,0)" rx="2" ry="2" />
<text  x="581.85" y="241.5" ></text>
</g>
<g >
<title>firedrake.assemble.assemble (20,737,659 us, 20.64%)</title><rect x="112.1" y="103" width="243.6" height="15.0" fill="rgb(0,0,0)" rx="2" ry="2" />
<text  x="115.07" y="113.5" >firedrake.assemble.assemble</text>
</g>
<g >
<title>firedrake.functionspacedata.FunctionSpaceData.__init__ (24,194 us, 0.02%)</title><rect x="31.2" y="119" width="0.2" height="15.0" fill="rgb(0,0,0)" rx="2" ry="2" />
<text  x="34.15" y="129.5" ></text>
</g>
<g >
<title>KSPSetUp (473,011 us, 0.47%)</title><rect x="655.4" y="167" width="5.6" height="15.0" fill="rgb(0,0,0)" rx="2" ry="2" />
<text  x="658.45" y="177.5" ></text>
</g>
<g >
<title>CreateSparsity (1,274,360 us, 1.27%)</title><rect x="326.0" y="135" width="15.0" height="15.0" fill="rgb(0,0,0)" rx="2" ry="2" />
<text  x="328.99" y="145.5" ></text>
</g>
<g >
<title>MatMult (68,095 us, 0.07%)</title><rect x="654.3" y="215" width="0.8" height="15.0" fill="rgb(0,0,0)" rx="2" ry="2" />
<text  x="657.27" y="225.5" ></text>
</g>
<g >
<title>firedrake.assemble.assemble (10,987,043 us, 10.94%)</title><rect x="375.0" y="103" width="129.0" height="15.0" fill="rgb(0,0,0)" rx="2" ry="2" />
<text  x="377.99" y="113.5" >firedrake.asse..</text>
</g>
<g >
<title>PCApply (78,528 us, 0.08%)</title><rect x="356.3" y="167" width="0.9" height="15.0" fill="rgb(0,0,0)" rx="2" ry="2" />
<text  x="359.27" y="177.5" ></text>
</g>
<g >
<title>firedrake.solving_utils._SNESContext.split (34,109 us, 0.03%)</title><rect x="677.5" y="135" width="0.4" height="15.0" fill="rgb(0,0,0)" rx="2" ry="2" />
<text  x="680.45" y="145.5" ></text>
</g>
<g >
<title>KSPSolve (258,896 us, 0.26%)</title><rect x="611.6" y="247" width="3.0" height="15.0" fill="rgb(0,0,0)" rx="2" ry="2" />
<text  x="614.59" y="257.5" ></text>
</g>
<g >
<title>Parloop_Cells_wrap_form0_cell_integral_otherwise (4,560,195 us, 4.54%)</title><rect x="58.5" y="119" width="53.6" height="15.0" fill="rgb(0,0,0)" rx="2" ry="2" />
<text  x="61.50" y="129.5" >Parl..</text>
</g>
<g >
<title>PCGAMGPOpt_AGG (100,589 us, 0.10%)</title><rect x="653.9" y="183" width="1.2" height="15.0" fill="rgb(0,0,0)" rx="2" ry="2" />
<text  x="656.89" y="193.5" ></text>
</g>
<g >
<title>MatSOR (49,301 us, 0.05%)</title><rect x="660.4" y="247" width="0.6" height="15.0" fill="rgb(0,0,0)" rx="2" ry="2" />
<text  x="663.42" y="257.5" ></text>
</g>
<g >
<title>MatResidual (676,318 us, 0.67%)</title><rect x="608.6" y="183" width="7.9" height="15.0" fill="rgb(0,0,0)" rx="2" ry="2" />
<text  x="611.58" y="193.5" ></text>
</g>
<g >
<title>ParLoopExecute (32,712,849 us, 32.56%)</title><rect x="785.7" y="119" width="384.3" height="15.0" fill="rgb(0,0,0)" rx="2" ry="2" />
<text  x="788.71" y="129.5" >ParLoopExecute</text>
</g>
<g >
<title>pyop2.caching.disk_cached.&lt;locals&gt;.decorator.&lt;locals&gt;.wrapper (18,363 us, 0.02%)</title><rect x="58.3" y="119" width="0.2" height="15.0" fill="rgb(0,0,0)" rx="2" ry="2" />
<text  x="61.29" y="129.5" ></text>
</g>
<g >
<title>Parloop_Cells_wrap_form00_cell_integral_otherwise (18,210,976 us, 18.13%)</title><rect x="112.1" y="135" width="213.9" height="15.0" fill="rgb(0,0,0)" rx="2" ry="2" />
<text  x="115.07" y="145.5" >Parloop_Cells_wrap_form00..</text>
</g>
<g >
<title>MatLUFactorNum (424,535 us, 0.42%)</title><rect x="558.6" y="183" width="5.0" height="15.0" fill="rgb(0,0,0)" rx="2" ry="2" />
<text  x="561.62" y="193.5" ></text>
</g>
<g >
<title>MatMatMultNum (18,099 us, 0.02%)</title><rect x="653.9" y="231" width="0.2" height="15.0" fill="rgb(0,0,0)" rx="2" ry="2" />
<text  x="656.89" y="241.5" ></text>
</g>
<g >
<title>PCApply (258,896 us, 0.26%)</title><rect x="611.6" y="263" width="3.0" height="15.0" fill="rgb(0,0,0)" rx="2" ry="2" />
<text  x="614.59" y="273.5" ></text>
</g>
<g >
<title>MatMult (714,304 us, 0.71%)</title><rect x="594.1" y="215" width="8.4" height="15.0" fill="rgb(0,0,0)" rx="2" ry="2" />
<text  x="597.07" y="225.5" ></text>
</g>
<g >
<title>KSPSolve (3,828,696 us, 3.81%)</title><rect x="563.6" y="183" width="45.0" height="15.0" fill="rgb(0,0,0)" rx="2" ry="2" />
<text  x="566.61" y="193.5" >KSP..</text>
</g>
<g >
<title>pyop2.global_kernel.GlobalKernel.compile (17,925,327 us, 17.84%)</title><rect x="115.4" y="151" width="210.6" height="15.0" fill="rgb(0,0,0)" rx="2" ry="2" />
<text  x="118.43" y="161.5" >pyop2.global_kernel.Globa..</text>
</g>
<g >
<title>MatAssemblyEnd (11,101 us, 0.01%)</title><rect x="341.0" y="135" width="0.1" height="15.0" fill="rgb(0,0,0)" rx="2" ry="2" />
<text  x="343.95" y="145.5" ></text>
</g>
<g >
<title>firedrake.ufl_expr.adjoint (12,295 us, 0.01%)</title><rect x="504.0" y="103" width="0.2" height="15.0" fill="rgb(0,0,0)" rx="2" ry="2" />
<text  x="507.05" y="113.5" ></text>
</g>
<g >
<title>firedrake.ufl_expr.adjoint (19,922 us, 0.02%)</title><rect x="677.6" y="167" width="0.3" height="15.0" fill="rgb(0,0,0)" rx="2" ry="2" />
<text  x="680.62" y="177.5" ></text>
</g>
<g >
<title>GAMG: createProl (3,281,015 us, 3.27%)</title><rect x="616.5" y="167" width="38.6" height="15.0" fill="rgb(0,0,0)" rx="2" ry="2" />
<text  x="619.53" y="177.5" >GAM..</text>
</g>
<g >
<title>MatMult (142,883 us, 0.14%)</title><rect x="614.6" y="215" width="1.7" height="15.0" fill="rgb(0,0,0)" rx="2" ry="2" />
<text  x="617.63" y="225.5" ></text>
</g>
<g >
<title>MatSOR (426,307 us, 0.42%)</title><rect x="603.6" y="247" width="5.0" height="15.0" fill="rgb(0,0,0)" rx="2" ry="2" />
<text  x="606.58" y="257.5" ></text>
</g>
<g >
<title>PCGAMG Squ l00 (2,739,199 us, 2.73%)</title><rect x="616.7" y="199" width="32.2" height="15.0" fill="rgb(0,0,0)" rx="2" ry="2" />
<text  x="619.72" y="209.5" >PC..</text>
</g>
<g >
<title>MatMatMultNum (417,700 us, 0.42%)</title><rect x="667.3" y="119" width="4.9" height="15.0" fill="rgb(0,0,0)" rx="2" ry="2" />
<text  x="670.26" y="129.5" ></text>
</g>
<g >
<title>  SA: smooth (32,494 us, 0.03%)</title><rect x="653.9" y="199" width="0.4" height="15.0" fill="rgb(0,0,0)" rx="2" ry="2" />
<text  x="656.89" y="209.5" ></text>
</g>
<g >
<title>KSPSolve (161,862 us, 0.16%)</title><rect x="657.3" y="247" width="1.9" height="15.0" fill="rgb(0,0,0)" rx="2" ry="2" />
<text  x="660.32" y="257.5" ></text>
</g>
<g >
<title>firedrake.variational_solver.LinearVariationalProblem.__init__ (12,295 us, 0.01%)</title><rect x="504.0" y="71" width="0.2" height="15.0" fill="rgb(0,0,0)" rx="2" ry="2" />
<text  x="507.05" y="81.5" ></text>
</g>
<g >
<title>KSPSolve (4,505,014 us, 4.48%)</title><rect x="563.6" y="151" width="52.9" height="15.0" fill="rgb(0,0,0)" rx="2" ry="2" />
<text  x="566.61" y="161.5" >KSPS..</text>
</g>
<g >
<title>MatMult (143,784 us, 0.14%)</title><rect x="661.0" y="135" width="1.7" height="15.0" fill="rgb(0,0,0)" rx="2" ry="2" />
<text  x="664.00" y="145.5" ></text>
</g>
<g >
<title>pyop2.global_kernel.GlobalKernel.compile (901,536 us, 0.90%)</title><rect x="20.6" y="135" width="10.6" height="15.0" fill="rgb(0,0,0)" rx="2" ry="2" />
<text  x="23.56" y="145.5" ></text>
</g>
<g >
<title>Log_Event_form01_cell_integral_otherwise (29,039 us, 0.03%)</title><rect x="979.7" y="151" width="0.4" height="15.0" fill="rgb(0,0,0)" rx="2" ry="2" />
<text  x="982.74" y="161.5" ></text>
</g>
<g >
<title>KSPSolve_FS_0 (514,514 us, 0.51%)</title><rect x="545.9" y="135" width="6.1" height="15.0" fill="rgb(0,0,0)" rx="2" ry="2" />
<text  x="548.93" y="145.5" ></text>
</g>
<g >
<title>pyop2.global_kernel.GlobalKernel.compile (3,476,121 us, 3.46%)</title><rect x="729.5" y="151" width="40.9" height="15.0" fill="rgb(0,0,0)" rx="2" ry="2" />
<text  x="732.54" y="161.5" >pyo..</text>
</g>
<g >
<title>KSPSolve_FS_Low (990,836 us, 0.99%)</title><rect x="552.0" y="135" width="11.6" height="15.0" fill="rgb(0,0,0)" rx="2" ry="2" />
<text  x="554.97" y="145.5" ></text>
</g>
<g >
<title>pyop2.global_kernel.GlobalKernel.compile (7,869,040 us, 7.83%)</title><rect x="980.1" y="151" width="92.4" height="15.0" fill="rgb(0,0,0)" rx="2" ry="2" />
<text  x="983.08" y="161.5" >pyop2.glob..</text>
</g>
<g >
<title>MatMult (1,275,850 us, 1.27%)</title><rect x="563.9" y="231" width="15.0" height="15.0" fill="rgb(0,0,0)" rx="2" ry="2" />
<text  x="566.87" y="241.5" ></text>
</g>
<g >
<title>ParLoopExecute (9,679,721 us, 9.64%)</title><rect x="375.0" y="119" width="113.7" height="15.0" fill="rgb(0,0,0)" rx="2" ry="2" />
<text  x="377.99" y="129.5" >ParLoopExecute</text>
</g>
<g >
<title>MatMult (51,542 us, 0.05%)</title><rect x="355.7" y="135" width="0.6" height="15.0" fill="rgb(0,0,0)" rx="2" ry="2" />
<text  x="358.67" y="145.5" ></text>
</g>
<g >
<title>firedrake.linear_solver.LinearSolver.solve (1,213,057 us, 1.21%)</title><rect x="355.7" y="103" width="14.2" height="15.0" fill="rgb(0,0,0)" rx="2" ry="2" />
<text  x="358.67" y="113.5" ></text>
</g>
<g >
<title>firedrake.function.Function.project (26,942,828 us, 26.82%)</title><rect x="58.5" y="71" width="316.5" height="15.0" fill="rgb(0,0,0)" rx="2" ry="2" />
<text  x="61.50" y="81.5" >firedrake.function.Function.project</text>
</g>
<g >
<title>firedrake.variational_solver.NonlinearVariationalSolver.__init__ (3,160,564 us, 3.15%)</title><rect x="504.2" y="71" width="37.1" height="15.0" fill="rgb(0,0,0)" rx="2" ry="2" />
<text  x="507.19" y="81.5" >fi..</text>
</g>
<g >
<title>pyop2.global_kernel.GlobalKernel.compile (390,783 us, 0.39%)</title><rect x="53.7" y="151" width="4.6" height="15.0" fill="rgb(0,0,0)" rx="2" ry="2" />
<text  x="56.70" y="161.5" ></text>
</g>
<g >
<title>firedrake.tsfc_interface.compile_form (1,705,550 us, 1.70%)</title><rect x="1170.0" y="119" width="20.0" height="15.0" fill="rgb(0,0,0)" rx="2" ry="2" />
<text  x="1172.97" y="129.5" ></text>
</g>
<g >
<title>MatMultAdd (12,193 us, 0.01%)</title><rect x="660.3" y="215" width="0.1" height="15.0" fill="rgb(0,0,0)" rx="2" ry="2" />
<text  x="663.28" y="225.5" ></text>
</g>
<g >
<title>PCApply (49,301 us, 0.05%)</title><rect x="660.4" y="231" width="0.6" height="15.0" fill="rgb(0,0,0)" rx="2" ry="2" />
<text  x="663.42" y="241.5" ></text>
</g>
<g >
<title>firedrake.tsfc_interface.compile_form (431,917 us, 0.43%)</title><rect x="369.9" y="103" width="5.1" height="15.0" fill="rgb(0,0,0)" rx="2" ry="2" />
<text  x="372.91" y="113.5" ></text>
</g>
<g >
<title>KSPSolve (2,593,127 us, 2.58%)</title><rect x="563.6" y="215" width="30.5" height="15.0" fill="rgb(0,0,0)" rx="2" ry="2" />
<text  x="566.61" y="225.5" >K..</text>
</g>
<g >
<title>MatSolve (161,862 us, 0.16%)</title><rect x="657.3" y="279" width="1.9" height="15.0" fill="rgb(0,0,0)" rx="2" ry="2" />
<text  x="660.32" y="289.5" ></text>
</g>
<g >
<title>PCSetUpOnBlocks (1,082,987 us, 1.08%)</title><rect x="357.2" y="119" width="12.7" height="15.0" fill="rgb(0,0,0)" rx="2" ry="2" />
<text  x="360.19" y="129.5" ></text>
</g>
<g >
<title>PCGAMGGraph_AGG (424,895 us, 0.42%)</title><rect x="648.9" y="183" width="5.0" height="15.0" fill="rgb(0,0,0)" rx="2" ry="2" />
<text  x="651.89" y="193.5" ></text>
</g>
<g >
<title>firedrake.assemble.allocate_matrix (1,949,086 us, 1.94%)</title><rect x="326.0" y="119" width="22.9" height="15.0" fill="rgb(0,0,0)" rx="2" ry="2" />
<text  x="328.99" y="129.5" ></text>
</g>
<g >
<title>  Graph (424,895 us, 0.42%)</title><rect x="648.9" y="199" width="5.0" height="15.0" fill="rgb(0,0,0)" rx="2" ry="2" />
<text  x="651.89" y="209.5" ></text>
</g>
<g >
<title>SNESFunctionEval (9,152,496 us, 9.11%)</title><rect x="677.9" y="103" width="107.5" height="15.0" fill="rgb(0,0,0)" rx="2" ry="2" />
<text  x="680.85" y="113.5" >SNESFunction..</text>
</g>
<g >
<title>ParLoopExecute (7,876,416 us, 7.84%)</title><rect x="677.9" y="119" width="92.5" height="15.0" fill="rgb(0,0,0)" rx="2" ry="2" />
<text  x="680.85" y="129.5" >ParLoopExe..</text>
</g>
<g >
<title>Parloop_Cells_wrap_form00_cell_integral_otherwise (16,397,175 us, 16.32%)</title><rect x="785.7" y="135" width="192.6" height="15.0" fill="rgb(0,0,0)" rx="2" ry="2" />
<text  x="788.71" y="145.5" >Parloop_Cells_wrap_form..</text>
</g>
<g >
<title>ParLoopExecute (4,560,195 us, 4.54%)</title><rect x="58.5" y="103" width="53.6" height="15.0" fill="rgb(0,0,0)" rx="2" ry="2" />
<text  x="61.50" y="113.5" >ParL..</text>
</g>
<g >
<title>firedrake.functionspaceimpl.FunctionSpace.__init__ (24,194 us, 0.02%)</title><rect x="31.2" y="87" width="0.2" height="15.0" fill="rgb(0,0,0)" rx="2" ry="2" />
<text  x="34.15" y="97.5" ></text>
</g>
<g >
<title>PCApply (426,307 us, 0.42%)</title><rect x="603.6" y="231" width="5.0" height="15.0" fill="rgb(0,0,0)" rx="2" ry="2" />
<text  x="606.58" y="241.5" ></text>
</g>
<g >
<title>MatMultAdd (18,842 us, 0.02%)</title><rect x="616.3" y="215" width="0.2" height="15.0" fill="rgb(0,0,0)" rx="2" ry="2" />
<text  x="619.31" y="225.5" ></text>
</g>
<g >
<title>MatPtAPNumeric (32,185 us, 0.03%)</title><rect x="655.1" y="199" width="0.3" height="15.0" fill="rgb(0,0,0)" rx="2" ry="2" />
<text  x="658.07" y="209.5" ></text>
</g>
<g >
<title>Log_Event_form10_cell_integral_otherwise (33,794 us, 0.03%)</title><rect x="1074.3" y="151" width="0.4" height="15.0" fill="rgb(0,0,0)" rx="2" ry="2" />
<text  x="1077.26" y="161.5" ></text>
</g>
<g >
<title>PCApply (259,201 us, 0.26%)</title><rect x="555.0" y="167" width="3.0" height="15.0" fill="rgb(0,0,0)" rx="2" ry="2" />
<text  x="557.97" y="177.5" ></text>
</g>
<g >
<title>SNESJacobianEval (34,447,567 us, 34.29%)</title><rect x="785.4" y="103" width="404.6" height="15.0" fill="rgb(0,0,0)" rx="2" ry="2" />
<text  x="788.36" y="113.5" >SNESJacobianEval</text>
</g>
<g >
<title>pyop2.global_kernel.GlobalKernel.compile (16,135,164 us, 16.06%)</title><rect x="788.8" y="151" width="189.5" height="15.0" fill="rgb(0,0,0)" rx="2" ry="2" />
<text  x="791.78" y="161.5" >pyop2.global_kernel.Gl..</text>
</g>
<g >
<title>firedrake.projection.project (26,942,828 us, 26.82%)</title><rect x="58.5" y="87" width="316.5" height="15.0" fill="rgb(0,0,0)" rx="2" ry="2" />
<text  x="61.50" y="97.5" >firedrake.projection.project</text>
</g>
<g >
<title>KSPSolve (49,301 us, 0.05%)</title><rect x="660.4" y="215" width="0.6" height="15.0" fill="rgb(0,0,0)" rx="2" ry="2" />
<text  x="663.42" y="225.5" ></text>
</g>
<g >
<title>KSPSolve (426,307 us, 0.42%)</title><rect x="603.6" y="215" width="5.0" height="15.0" fill="rgb(0,0,0)" rx="2" ry="2" />
<text  x="606.58" y="225.5" ></text>
</g>
<g >
<title>MatZeroInitial (999,884 us, 1.00%)</title><rect x="529.6" y="103" width="11.7" height="15.0" fill="rgb(0,0,0)" rx="2" ry="2" />
<text  x="532.57" y="113.5" ></text>
</g>
<g >
<title>Parloop_Cells_wrap_form10_cell_integral_otherwise (8,296,231 us, 8.26%)</title><rect x="1072.5" y="135" width="97.5" height="15.0" fill="rgb(0,0,0)" rx="2" ry="2" />
<text  x="1075.51" y="145.5" >Parloop_Ce..</text>
</g>
</g>
</svg>
