<?xml version="1.0" standalone="no"?>
<!DOCTYPE svg PUBLIC "-//W3C//DTD SVG 1.1//EN" "http://www.w3.org/Graphics/SVG/1.1/DTD/svg11.dtd">
<svg version="1.1" width="1200" height="267" onload="init(evt)" viewBox="0 0 1200 267" xmlns="http://www.w3.org/2000/svg" xmlns:xlink="http://www.w3.org/1999/xlink">
<!-- Flame graph stack visualization. See https://github.com/brendangregg/FlameGraph for latest version, and http://www.brendangregg.com/flamegraphs.html for examples. -->
<!-- NOTES:  -->
<defs>
	<linearGradient id="background" y1="0" y2="1" x1="0" x2="0" >
		<stop stop-color="#eeeeee" offset="5%" />
		<stop stop-color="#eeeeb0" offset="95%" />
	</linearGradient>
</defs>
<style type="text/css">
	text { font-family:Verdana; font-size:13px; fill:rgb(0,0,0); }
	#search, #ignorecase { opacity:0.1; cursor:pointer; }
	#search:hover, #search.show, #ignorecase:hover, #ignorecase.show { opacity:1; }
	#subtitle { text-anchor:middle; font-color:rgb(160,160,160); }
	#title { text-anchor:middle; font-size:18px}
	#unzoom { cursor:pointer; }
	#frames > *:hover { stroke:black; stroke-width:0.5; cursor:pointer; }
	.hide { display:none; }
	.parent { opacity:0.5; }
</style>
<script type="text/ecmascript">
<![CDATA[
	"use strict";
	var details, searchbtn, unzoombtn, matchedtxt, svg, searching, currentSearchTerm, ignorecase, ignorecaseBtn;
	function init(evt) {
		details = document.getElementById("details").firstChild;
		searchbtn = document.getElementById("search");
		ignorecaseBtn = document.getElementById("ignorecase");
		unzoombtn = document.getElementById("unzoom");
		matchedtxt = document.getElementById("matched");
		svg = document.getElementsByTagName("svg")[0];
		searching = 0;
		currentSearchTerm = null;

		// use GET parameters to restore a flamegraphs state.
		var params = get_params();
		if (params.x && params.y)
			zoom(find_group(document.querySelector('[x="' + params.x + '"][y="' + params.y + '"]')));
                if (params.s) search(params.s);
	}

	// event listeners
	window.addEventListener("click", function(e) {
		var target = find_group(e.target);
		if (target) {
			if (target.nodeName == "a") {
				if (e.ctrlKey === false) return;
				e.preventDefault();
			}
			if (target.classList.contains("parent")) unzoom();
			zoom(target);
			if (!document.querySelector('.parent')) {
				clearzoom();
				return;
			}

			// set parameters for zoom state
			var el = target.querySelector("rect");
			if (el && el.attributes && el.attributes.y && el.attributes._orig_x) {
				var params = get_params()
				params.x = el.attributes._orig_x.value;
				params.y = el.attributes.y.value;
				history.replaceState(null, null, parse_params(params));
			}
		}
		else if (e.target.id == "unzoom") clearzoom();
		else if (e.target.id == "search") search_prompt();
		else if (e.target.id == "ignorecase") toggle_ignorecase();
	}, false)

	// mouse-over for info
	// show
	window.addEventListener("mouseover", function(e) {
		var target = find_group(e.target);
		if (target) details.nodeValue = "Function: " + g_to_text(target);
	}, false)

	// clear
	window.addEventListener("mouseout", function(e) {
		var target = find_group(e.target);
		if (target) details.nodeValue = ' ';
	}, false)

	// ctrl-F for search
	// ctrl-I to toggle case-sensitive search
	window.addEventListener("keydown",function (e) {
		if (e.keyCode === 114 || (e.ctrlKey && e.keyCode === 70)) {
			e.preventDefault();
			search_prompt();
		}
		else if (e.ctrlKey && e.keyCode === 73) {
			e.preventDefault();
			toggle_ignorecase();
		}
	}, false)

	// functions
	function get_params() {
		var params = {};
		var paramsarr = window.location.search.substr(1).split('&');
		for (var i = 0; i < paramsarr.length; ++i) {
			var tmp = paramsarr[i].split("=");
			if (!tmp[0] || !tmp[1]) continue;
			params[tmp[0]]  = decodeURIComponent(tmp[1]);
		}
		return params;
	}
	function parse_params(params) {
		var uri = "?";
		for (var key in params) {
			uri += key + '=' + encodeURIComponent(params[key]) + '&';
		}
		if (uri.slice(-1) == "&")
			uri = uri.substring(0, uri.length - 1);
		if (uri == '?')
			uri = window.location.href.split('?')[0];
		return uri;
	}
	function find_child(node, selector) {
		var children = node.querySelectorAll(selector);
		if (children.length) return children[0];
	}
	function find_group(node) {
		var parent = node.parentElement;
		if (!parent) return;
		if (parent.id == "frames") return node;
		return find_group(parent);
	}
	function orig_save(e, attr, val) {
		if (e.attributes["_orig_" + attr] != undefined) return;
		if (e.attributes[attr] == undefined) return;
		if (val == undefined) val = e.attributes[attr].value;
		e.setAttribute("_orig_" + attr, val);
	}
	function orig_load(e, attr) {
		if (e.attributes["_orig_"+attr] == undefined) return;
		e.attributes[attr].value = e.attributes["_orig_" + attr].value;
		e.removeAttribute("_orig_"+attr);
	}
	function g_to_text(e) {
		var text = find_child(e, "title").firstChild.nodeValue;
		return (text)
	}
	function g_to_func(e) {
		var func = g_to_text(e);
		// if there's any manipulation we want to do to the function
		// name before it's searched, do it here before returning.
		return (func);
	}
	function update_text(e) {
		var r = find_child(e, "rect");
		var t = find_child(e, "text");
		var w = parseFloat(r.attributes.width.value) -3;
		var txt = find_child(e, "title").textContent.replace(/\([^(]*\)$/,"");
		t.attributes.x.value = parseFloat(r.attributes.x.value) + 3;

		// Smaller than this size won't fit anything
		if (w < 2 * 13 * 0.59) {
			t.textContent = "";
			return;
		}

		t.textContent = txt;
		// Fit in full text width
		if (/^ *$/.test(txt) || t.getSubStringLength(0, txt.length) < w)
			return;

		for (var x = txt.length - 2; x > 0; x--) {
			if (t.getSubStringLength(0, x + 2) <= w) {
				t.textContent = txt.substring(0, x) + "..";
				return;
			}
		}
		t.textContent = "";
	}

	// zoom
	function zoom_reset(e) {
		if (e.attributes != undefined) {
			orig_load(e, "x");
			orig_load(e, "width");
		}
		if (e.childNodes == undefined) return;
		for (var i = 0, c = e.childNodes; i < c.length; i++) {
			zoom_reset(c[i]);
		}
	}
	function zoom_child(e, x, ratio) {
		if (e.attributes != undefined) {
			if (e.attributes.x != undefined) {
				orig_save(e, "x");
				e.attributes.x.value = (parseFloat(e.attributes.x.value) - x - 10) * ratio + 10;
				if (e.tagName == "text")
					e.attributes.x.value = find_child(e.parentNode, "rect[x]").attributes.x.value + 3;
			}
			if (e.attributes.width != undefined) {
				orig_save(e, "width");
				e.attributes.width.value = parseFloat(e.attributes.width.value) * ratio;
			}
		}

		if (e.childNodes == undefined) return;
		for (var i = 0, c = e.childNodes; i < c.length; i++) {
			zoom_child(c[i], x - 10, ratio);
		}
	}
	function zoom_parent(e) {
		if (e.attributes) {
			if (e.attributes.x != undefined) {
				orig_save(e, "x");
				e.attributes.x.value = 10;
			}
			if (e.attributes.width != undefined) {
				orig_save(e, "width");
				e.attributes.width.value = parseInt(svg.width.baseVal.value) - (10 * 2);
			}
		}
		if (e.childNodes == undefined) return;
		for (var i = 0, c = e.childNodes; i < c.length; i++) {
			zoom_parent(c[i]);
		}
	}
	function zoom(node) {
		var attr = find_child(node, "rect").attributes;
		var width = parseFloat(attr.width.value);
		var xmin = parseFloat(attr.x.value);
		var xmax = parseFloat(xmin + width);
		var ymin = parseFloat(attr.y.value);
		var ratio = (svg.width.baseVal.value - 2 * 10) / width;

		// XXX: Workaround for JavaScript float issues (fix me)
		var fudge = 0.0001;

		unzoombtn.classList.remove("hide");

		var el = document.getElementById("frames").children;
		for (var i = 0; i < el.length; i++) {
			var e = el[i];
			var a = find_child(e, "rect").attributes;
			var ex = parseFloat(a.x.value);
			var ew = parseFloat(a.width.value);
			var upstack;
			// Is it an ancestor
			if (1 == 0) {
				upstack = parseFloat(a.y.value) > ymin;
			} else {
				upstack = parseFloat(a.y.value) < ymin;
			}
			if (upstack) {
				// Direct ancestor
				if (ex <= xmin && (ex+ew+fudge) >= xmax) {
					e.classList.add("parent");
					zoom_parent(e);
					update_text(e);
				}
				// not in current path
				else
					e.classList.add("hide");
			}
			// Children maybe
			else {
				// no common path
				if (ex < xmin || ex + fudge >= xmax) {
					e.classList.add("hide");
				}
				else {
					zoom_child(e, xmin, ratio);
					update_text(e);
				}
			}
		}
		search();
	}
	function unzoom() {
		unzoombtn.classList.add("hide");
		var el = document.getElementById("frames").children;
		for(var i = 0; i < el.length; i++) {
			el[i].classList.remove("parent");
			el[i].classList.remove("hide");
			zoom_reset(el[i]);
			update_text(el[i]);
		}
		search();
	}
	function clearzoom() {
		unzoom();

		// remove zoom state
		var params = get_params();
		if (params.x) delete params.x;
		if (params.y) delete params.y;
		history.replaceState(null, null, parse_params(params));
	}

	// search
	function toggle_ignorecase() {
		ignorecase = !ignorecase;
		if (ignorecase) {
			ignorecaseBtn.classList.add("show");
		} else {
			ignorecaseBtn.classList.remove("show");
		}
		reset_search();
		search();
	}
	function reset_search() {
		var el = document.querySelectorAll("#frames rect");
		for (var i = 0; i < el.length; i++) {
			orig_load(el[i], "fill")
		}
		var params = get_params();
		delete params.s;
		history.replaceState(null, null, parse_params(params));
	}
	function search_prompt() {
		if (!searching) {
			var term = prompt("Enter a search term (regexp " +
			    "allowed, eg: ^ext4_)"
			    + (ignorecase ? ", ignoring case" : "")
			    + "\nPress Ctrl-i to toggle case sensitivity", "");
			if (term != null) search(term);
		} else {
			reset_search();
			searching = 0;
			currentSearchTerm = null;
			searchbtn.classList.remove("show");
			searchbtn.firstChild.nodeValue = "Search"
			matchedtxt.classList.add("hide");
			matchedtxt.firstChild.nodeValue = ""
		}
	}
	function search(term) {
		if (term) currentSearchTerm = term;

		var re = new RegExp(currentSearchTerm, ignorecase ? 'i' : '');
		var el = document.getElementById("frames").children;
		var matches = new Object();
		var maxwidth = 0;
		for (var i = 0; i < el.length; i++) {
			var e = el[i];
			var func = g_to_func(e);
			var rect = find_child(e, "rect");
			if (func == null || rect == null)
				continue;

			// Save max width. Only works as we have a root frame
			var w = parseFloat(rect.attributes.width.value);
			if (w > maxwidth)
				maxwidth = w;

			if (func.match(re)) {
				// highlight
				var x = parseFloat(rect.attributes.x.value);
				orig_save(rect, "fill");
				rect.attributes.fill.value = "rgb(230,0,230)";

				// remember matches
				if (matches[x] == undefined) {
					matches[x] = w;
				} else {
					if (w > matches[x]) {
						// overwrite with parent
						matches[x] = w;
					}
				}
				searching = 1;
			}
		}
		if (!searching)
			return;
		var params = get_params();
		params.s = currentSearchTerm;
		history.replaceState(null, null, parse_params(params));

		searchbtn.classList.add("show");
		searchbtn.firstChild.nodeValue = "Reset Search";

		// calculate percent matched, excluding vertical overlap
		var count = 0;
		var lastx = -1;
		var lastw = 0;
		var keys = Array();
		for (k in matches) {
			if (matches.hasOwnProperty(k))
				keys.push(k);
		}
		// sort the matched frames by their x location
		// ascending, then width descending
		keys.sort(function(a, b){
			return a - b;
		});
		// Step through frames saving only the biggest bottom-up frames
		// thanks to the sort order. This relies on the tree property
		// where children are always smaller than their parents.
		var fudge = 0.0001;	// JavaScript floating point
		for (var k in keys) {
			var x = parseFloat(keys[k]);
			var w = matches[keys[k]];
			if (x >= lastx + lastw - fudge) {
				count += w;
				lastx = x;
				lastw = w;
			}
		}
		// display matched percent
		matchedtxt.classList.remove("hide");
		var pct = 100 * count / maxwidth;
		if (pct != 100) pct = pct.toFixed(1)
		matchedtxt.firstChild.nodeValue = "Matched: " + pct + "%";
	}
]]>
</script>
<rect x="0.0" y="0" width="1200.0" height="267.0" fill="url(#background)"  />
<text id="title" x="600.00" y="26" >Firedrake example</text>
<text id="details" x="10.00" y="249" > </text>
<text id="unzoom" x="10.00" y="26" class="hide">Reset Zoom</text>
<text id="search" x="1090.00" y="26" >Search</text>
<text id="ignorecase" x="1174.00" y="26" >ic</text>
<text id="matched" x="1090.00" y="249" > </text>
<g id="frames">
<g >
<title>MatMult (41,597,820 us, 4.31%)</title><rect x="866.5" y="167" width="50.8" height="15.0" fill="rgb(0,0,0)" rx="2" ry="2" />
<text  x="869.47" y="177.5" >MatM..</text>
</g>
<g >
<title>Log_Event_subkernel1_interior_facet_horiz_top_to__exterior_facet_top_integral_otherwise (399,608 us, 0.04%)</title><rect x="1134.6" y="183" width="0.5" height="15.0" fill="rgb(0,0,0)" rx="2" ry="2" />
<text  x="1137.59" y="193.5" ></text>
</g>
<g >
<title>Log_Event_form0_cell_integral_otherwise (164,293 us, 0.02%)</title><rect x="628.2" y="183" width="0.2" height="15.0" fill="rgb(0,0,0)" rx="2" ry="2" />
<text  x="631.24" y="193.5" ></text>
</g>
<g >
<title>firedrake.matrix_free.operators.ImplicitMatrixContext.mult (303,437 us, 0.03%)</title><rect x="628.2" y="135" width="0.4" height="15.0" fill="rgb(0,0,0)" rx="2" ry="2" />
<text  x="631.24" y="145.5" ></text>
</g>
<g >
<title>MatZeroInitial (3,279,400 us, 0.34%)</title><rect x="1185.2" y="151" width="4.0" height="15.0" fill="rgb(0,0,0)" rx="2" ry="2" />
<text  x="1188.22" y="161.5" ></text>
</g>
<g >
<title>KSPSolve (42,344,233 us, 4.39%)</title><rect x="866.3" y="151" width="51.8" height="15.0" fill="rgb(0,0,0)" rx="2" ry="2" />
<text  x="869.32" y="161.5" >KSPS..</text>
</g>
<g >
<title>MatAssemblyEnd (1,029,303 us, 0.11%)</title><rect x="355.0" y="135" width="1.3" height="15.0" fill="rgb(0,0,0)" rx="2" ry="2" />
<text  x="358.01" y="145.5" ></text>
</g>
<g >
<title>Log_Event_subkernel16_cell_to__cell_integral_otherwise (1,523,757 us, 0.16%)</title><rect x="647.5" y="183" width="1.8" height="15.0" fill="rgb(0,0,0)" rx="2" ry="2" />
<text  x="650.45" y="193.5" ></text>
</g>
<g >
<title>Log_Event_subkernel5_interior_facet_vert_to__exterior_facet_vert_integral_otherwise (6,330,002 us, 0.66%)</title><rect x="837.2" y="199" width="7.7" height="15.0" fill="rgb(0,0,0)" rx="2" ry="2" />
<text  x="840.19" y="209.5" ></text>
</g>
<g >
<title>HybridRHS (46,658,440 us, 4.83%)</title><rect x="809.3" y="151" width="57.0" height="15.0" fill="rgb(0,0,0)" rx="2" ry="2" />
<text  x="812.30" y="161.5" >Hybri..</text>
</g>
<g >
<title>firedrake.projection.project (500,095,217 us, 51.79%)</title><rect x="16.6" y="87" width="611.1" height="15.0" fill="rgb(0,0,0)" rx="2" ry="2" />
<text  x="19.56" y="97.5" >firedrake.projection.project</text>
</g>
<g >
<title>Log_Event_subkernel10_cell_to__cell_integral_otherwise (3,473,448 us, 0.36%)</title><rect x="792.3" y="199" width="4.3" height="15.0" fill="rgb(0,0,0)" rx="2" ry="2" />
<text  x="795.35" y="209.5" ></text>
</g>
<g >
<title>Log_Event_inits_wrap_slate_loopy_knl_0 (568,887 us, 0.06%)</title><rect x="922.3" y="183" width="0.7" height="15.0" fill="rgb(0,0,0)" rx="2" ry="2" />
<text  x="925.30" y="193.5" ></text>
</g>
<g >
<title>PCSetUp (221,890,770 us, 22.98%)</title><rect x="918.1" y="103" width="271.1" height="15.0" fill="rgb(0,0,0)" rx="2" ry="2" />
<text  x="921.07" y="113.5" >PCSetUp</text>
</g>
<g >
<title>firedrake.assemble.allocate_matrix (14,430,290 us, 1.49%)</title><rect x="1171.6" y="135" width="17.6" height="15.0" fill="rgb(0,0,0)" rx="2" ry="2" />
<text  x="1174.60" y="145.5" ></text>
</g>
<g >
<title>Log_Event_inits_wrap_slate_loopy_knl_7 (469,764 us, 0.05%)</title><rect x="658.8" y="199" width="0.6" height="15.0" fill="rgb(0,0,0)" rx="2" ry="2" />
<text  x="661.85" y="209.5" ></text>
</g>
<g >
<title>ParLoopExecute (30,348,981 us, 3.14%)</title><rect x="17.4" y="119" width="37.1" height="15.0" fill="rgb(0,0,0)" rx="2" ry="2" />
<text  x="20.40" y="129.5" >Pa..</text>
</g>
<g >
<title>firedrake.linear_solver.LinearSolver.solve (128,499,796 us, 13.31%)</title><rect x="470.7" y="103" width="157.0" height="15.0" fill="rgb(0,0,0)" rx="2" ry="2" />
<text  x="473.68" y="113.5" >firedrake.linear_s..</text>
</g>
<g >
<title>Log_Event_slate_loopy_knl_0 (172,762,926 us, 17.89%)</title><rect x="923.0" y="183" width="211.1" height="15.0" fill="rgb(0,0,0)" rx="2" ry="2" />
<text  x="926.00" y="193.5" >Log_Event_slate_loopy_knl_0</text>
</g>
<g >
<title>Log_Event_subkernel9_cell_to__cell_integral_otherwise (1,632,348 us, 0.17%)</title><rect x="807.3" y="199" width="2.0" height="15.0" fill="rgb(0,0,0)" rx="2" ry="2" />
<text  x="810.30" y="209.5" ></text>
</g>
<g >
<title>inv_getri (46,669,508 us, 4.83%)</title><rect x="708.2" y="215" width="57.0" height="15.0" fill="rgb(0,0,0)" rx="2" ry="2" />
<text  x="711.16" y="225.5" >inv_g..</text>
</g>
<g >
<title>solve_getrf (19,600,172 us, 2.03%)</title><rect x="810.6" y="215" width="23.9" height="15.0" fill="rgb(0,0,0)" rx="2" ry="2" />
<text  x="813.56" y="225.5" >s..</text>
</g>
<g >
<title>solve_memcpy (1,217,809 us, 0.13%)</title><rect x="790.9" y="215" width="1.4" height="15.0" fill="rgb(0,0,0)" rx="2" ry="2" />
<text  x="793.86" y="225.5" ></text>
</g>
<g >
<title>firedrake.norms.errornorm (431,193 us, 0.04%)</title><rect x="627.7" y="71" width="0.5" height="15.0" fill="rgb(0,0,0)" rx="2" ry="2" />
<text  x="630.71" y="81.5" ></text>
</g>
<g >
<title>solve_getrf (9,702,942 us, 1.00%)</title><rect x="630.3" y="199" width="11.8" height="15.0" fill="rgb(0,0,0)" rx="2" ry="2" />
<text  x="633.27" y="209.5" ></text>
</g>
<g >
<title>Log_Event_subkernel15_cell_to__cell_integral_otherwise (3,494,562 us, 0.36%)</title><rect x="643.2" y="183" width="4.3" height="15.0" fill="rgb(0,0,0)" rx="2" ry="2" />
<text  x="646.18" y="193.5" ></text>
</g>
<g >
<title>Log_Event_expression_kernel (102,198 us, 0.01%)</title><rect x="15.8" y="151" width="0.1" height="15.0" fill="rgb(0,0,0)" rx="2" ry="2" />
<text  x="18.82" y="161.5" ></text>
</g>
<g >
<title>ParLoopExecute (303,437 us, 0.03%)</title><rect x="628.2" y="151" width="0.4" height="15.0" fill="rgb(0,0,0)" rx="2" ry="2" />
<text  x="631.24" y="161.5" ></text>
</g>
<g >
<title>ParLoopExecute (46,658,440 us, 4.83%)</title><rect x="809.3" y="167" width="57.0" height="15.0" fill="rgb(0,0,0)" rx="2" ry="2" />
<text  x="812.30" y="177.5" >ParLo..</text>
</g>
<g >
<title>ParLoopExecute (431,193 us, 0.04%)</title><rect x="627.7" y="119" width="0.5" height="15.0" fill="rgb(0,0,0)" rx="2" ry="2" />
<text  x="630.71" y="129.5" ></text>
</g>
<g >
<title>Log_Event_form0_interior_facet_vert_integral_otherwise (100,215 us, 0.01%)</title><rect x="17.3" y="135" width="0.1" height="15.0" fill="rgb(0,0,0)" rx="2" ry="2" />
<text  x="20.28" y="145.5" ></text>
</g>
<g >
<title>Log_Event_form00_exterior_facet_bottom_integral_otherwise (105,685 us, 0.01%)</title><rect x="38.3" y="151" width="0.2" height="15.0" fill="rgb(0,0,0)" rx="2" ry="2" />
<text  x="41.34" y="161.5" ></text>
</g>
<g >
<title>Log_Event_subkernel3_interior_facet_vert_to__exterior_facet_vert_integral_otherwise (4,947,942 us, 0.51%)</title><rect x="1165.5" y="183" width="6.1" height="15.0" fill="rgb(0,0,0)" rx="2" ry="2" />
<text  x="1168.55" y="193.5" ></text>
</g>
<g >
<title>Log_Event_inits_wrap_slate_loopy_knl_4 (461,669 us, 0.05%)</title><rect x="809.8" y="199" width="0.6" height="15.0" fill="rgb(0,0,0)" rx="2" ry="2" />
<text  x="812.84" y="209.5" ></text>
</g>
<g >
<title>inv_getrf (19,644,696 us, 2.03%)</title><rect x="989.3" y="199" width="24.0" height="15.0" fill="rgb(0,0,0)" rx="2" ry="2" />
<text  x="992.26" y="209.5" >i..</text>
</g>
<g >
<title>firedrake.assemble.assemble (1,347,881 us, 0.14%)</title><rect x="14.9" y="71" width="1.7" height="15.0" fill="rgb(0,0,0)" rx="2" ry="2" />
<text  x="17.92" y="81.5" ></text>
</g>
<g >
<title>MatMult (3,697,969 us, 0.38%)</title><rect x="470.7" y="135" width="4.5" height="15.0" fill="rgb(0,0,0)" rx="2" ry="2" />
<text  x="473.68" y="145.5" ></text>
</g>
<g >
<title>firedrake.norms.norm (431,193 us, 0.04%)</title><rect x="627.7" y="87" width="0.5" height="15.0" fill="rgb(0,0,0)" rx="2" ry="2" />
<text  x="630.71" y="97.5" ></text>
</g>
<g >
<title>HybridInit (221,890,770 us, 22.98%)</title><rect x="918.1" y="119" width="271.1" height="15.0" fill="rgb(0,0,0)" rx="2" ry="2" />
<text  x="921.07" y="129.5" >HybridInit</text>
</g>
<g >
<title>SCForwardElim (46,658,440 us, 4.83%)</title><rect x="809.3" y="135" width="57.0" height="15.0" fill="rgb(0,0,0)" rx="2" ry="2" />
<text  x="812.30" y="145.5" >SCFor..</text>
</g>
<g >
<title>MatZeroInitial (93,622,841 us, 9.70%)</title><rect x="356.3" y="135" width="114.4" height="15.0" fill="rgb(0,0,0)" rx="2" ry="2" />
<text  x="359.27" y="145.5" >MatZeroInitial</text>
</g>
<g >
<title>firedrake.assemble_expressions.assemble_expression (605,479 us, 0.06%)</title><rect x="15.5" y="87" width="0.7" height="15.0" fill="rgb(0,0,0)" rx="2" ry="2" />
<text  x="18.51" y="97.5" ></text>
</g>
<g >
<title>PCApply (5,618,061 us, 0.58%)</title><rect x="475.2" y="135" width="6.9" height="15.0" fill="rgb(0,0,0)" rx="2" ry="2" />
<text  x="478.20" y="145.5" ></text>
</g>
<g >
<title>firedrake.variational_solver.NonlinearVariationalSolver.solve (459,678,561 us, 47.61%)</title><rect x="628.2" y="71" width="561.8" height="15.0" fill="rgb(0,0,0)" rx="2" ry="2" />
<text  x="631.24" y="81.5" >firedrake.variational_solver.NonlinearVariationalSolver.solve</text>
</g>
<g >
<title>inv_memcpy (989,858 us, 0.10%)</title><rect x="1132.9" y="199" width="1.2" height="15.0" fill="rgb(0,0,0)" rx="2" ry="2" />
<text  x="1135.91" y="209.5" ></text>
</g>
<g >
<title>Log_Event_form_cell_integral_otherwise (283,139 us, 0.03%)</title><rect x="627.7" y="151" width="0.4" height="15.0" fill="rgb(0,0,0)" rx="2" ry="2" />
<text  x="630.71" y="161.5" ></text>
</g>
<g >
<title>SCBackSub (147,852,074 us, 15.31%)</title><rect x="628.6" y="135" width="180.7" height="15.0" fill="rgb(0,0,0)" rx="2" ry="2" />
<text  x="631.61" y="145.5" >SCBackSub</text>
</g>
<g >
<title>Parloop_Cells_wrap_wrap_slate_loopy_knl_4 (46,658,440 us, 4.83%)</title><rect x="809.3" y="183" width="57.0" height="15.0" fill="rgb(0,0,0)" rx="2" ry="2" />
<text  x="812.30" y="193.5" >Parlo..</text>
</g>
<g >
<title>KSPSolve (9,316,030 us, 0.96%)</title><rect x="470.7" y="119" width="11.4" height="15.0" fill="rgb(0,0,0)" rx="2" ry="2" />
<text  x="473.68" y="129.5" ></text>
</g>
<g >
<title>MatCholFctrNum (118,017,677 us, 12.22%)</title><rect x="482.1" y="151" width="144.2" height="15.0" fill="rgb(0,0,0)" rx="2" ry="2" />
<text  x="485.06" y="161.5" >MatCholFctrNum</text>
</g>
<g >
<title>solve_getrs (265,098 us, 0.03%)</title><rect x="642.1" y="199" width="0.3" height="15.0" fill="rgb(0,0,0)" rx="2" ry="2" />
<text  x="645.12" y="209.5" ></text>
</g>
<g >
<title>SCSolve (42,344,233 us, 4.39%)</title><rect x="866.3" y="135" width="51.8" height="15.0" fill="rgb(0,0,0)" rx="2" ry="2" />
<text  x="869.32" y="145.5" >SCSo..</text>
</g>
<g >
<title>Log_Event_subkernel13_interior_facet_horiz_top_to__exterior_facet_top_integral_otherwise (445,125 us, 0.05%)</title><rect x="799.0" y="199" width="0.5" height="15.0" fill="rgb(0,0,0)" rx="2" ry="2" />
<text  x="801.99" y="209.5" ></text>
</g>
<g >
<title>Log_Event_subkernel13_interior_facet_horiz_bottom_to__exterior_facet_bottom_integral_otherwise (443,236 us, 0.05%)</title><rect x="798.5" y="199" width="0.5" height="15.0" fill="rgb(0,0,0)" rx="2" ry="2" />
<text  x="801.45" y="209.5" ></text>
</g>
<g >
<title>MatMult (303,437 us, 0.03%)</title><rect x="628.2" y="119" width="0.4" height="15.0" fill="rgb(0,0,0)" rx="2" ry="2" />
<text  x="631.24" y="129.5" ></text>
</g>
<g >
<title>firedrake.assemble_expressions.evaluate_expression (605,479 us, 0.06%)</title><rect x="15.5" y="103" width="0.7" height="15.0" fill="rgb(0,0,0)" rx="2" ry="2" />
<text  x="18.51" y="113.5" ></text>
</g>
<g >
<title>Log_Event_subkernel5_interior_facet_horiz_top_to__exterior_facet_top_integral_otherwise (395,460 us, 0.04%)</title><rect x="836.7" y="199" width="0.5" height="15.0" fill="rgb(0,0,0)" rx="2" ry="2" />
<text  x="839.71" y="209.5" ></text>
</g>
<g >
<title>KSPSolve (5,618,061 us, 0.58%)</title><rect x="475.2" y="151" width="6.9" height="15.0" fill="rgb(0,0,0)" rx="2" ry="2" />
<text  x="478.20" y="161.5" ></text>
</g>
<g >
<title>CreateSparsity (245,907,448 us, 25.47%)</title><rect x="54.5" y="135" width="300.5" height="15.0" fill="rgb(0,0,0)" rx="2" ry="2" />
<text  x="57.49" y="145.5" >CreateSparsity</text>
</g>
<g >
<title>ParLoopExecute (23,853,100 us, 2.47%)</title><rect x="629.0" y="151" width="29.2" height="15.0" fill="rgb(0,0,0)" rx="2" ry="2" />
<text  x="632.01" y="161.5" >P..</text>
</g>
<g >
<title>Parloop_ExtFacets_wrap_form00_exterior_facet_vert_integral_otherwise (976,479 us, 0.10%)</title><rect x="42.4" y="135" width="1.2" height="15.0" fill="rgb(0,0,0)" rx="2" ry="2" />
<text  x="45.40" y="145.5" ></text>
</g>
<g >
<title>Parloop_Cells_wrap_form0_cell_integral_otherwise (322,446 us, 0.03%)</title><rect x="1189.2" y="135" width="0.4" height="15.0" fill="rgb(0,0,0)" rx="2" ry="2" />
<text  x="1192.23" y="145.5" ></text>
</g>
<g >
<title>ParLoopExecute (629,607 us, 0.07%)</title><rect x="1189.2" y="119" width="0.8" height="15.0" fill="rgb(0,0,0)" rx="2" ry="2" />
<text  x="1192.23" y="129.5" ></text>
</g>
<g >
<title>ParLoopExecute (483,566 us, 0.05%)</title><rect x="14.9" y="87" width="0.6" height="15.0" fill="rgb(0,0,0)" rx="2" ry="2" />
<text  x="17.92" y="97.5" ></text>
</g>
<g >
<title>RecoverFirstElim (123,671,451 us, 12.81%)</title><rect x="658.2" y="151" width="151.1" height="15.0" fill="rgb(0,0,0)" rx="2" ry="2" />
<text  x="661.16" y="161.5" >RecoverFirstElim</text>
</g>
<g >
<title>PCSetUpOnBlocks (119,183,766 us, 12.34%)</title><rect x="482.1" y="119" width="145.6" height="15.0" fill="rgb(0,0,0)" rx="2" ry="2" />
<text  x="485.06" y="129.5" >PCSetUpOnBlocks</text>
</g>
<g >
<title>Log_Event_form00_interior_facet_vert_integral_otherwise (5,880,576 us, 0.61%)</title><rect x="47.3" y="151" width="7.2" height="15.0" fill="rgb(0,0,0)" rx="2" ry="2" />
<text  x="50.31" y="161.5" ></text>
</g>
<g >
<title>Log_Event_form1_cell_integral_otherwise (307,161 us, 0.03%)</title><rect x="1189.6" y="151" width="0.4" height="15.0" fill="rgb(0,0,0)" rx="2" ry="2" />
<text  x="1192.62" y="161.5" ></text>
</g>
<g >
<title>Log_Event_form00_exterior_facet_vert_integral_otherwise (770,783 us, 0.08%)</title><rect x="42.6" y="151" width="1.0" height="15.0" fill="rgb(0,0,0)" rx="2" ry="2" />
<text  x="45.65" y="161.5" ></text>
</g>
<g >
<title>solve_memcpy (982,515 us, 0.10%)</title><rect x="835.0" y="215" width="1.2" height="15.0" fill="rgb(0,0,0)" rx="2" ry="2" />
<text  x="838.02" y="225.5" ></text>
</g>
<g >
<title>Parloop_Cells_wrap_form00_interior_facet_horiz_integral_otherwise (3,104,050 us, 0.32%)</title><rect x="38.6" y="135" width="3.8" height="15.0" fill="rgb(0,0,0)" rx="2" ry="2" />
<text  x="41.60" y="145.5" ></text>
</g>
<g >
<title>Parloop_Cells_wrap_form00_exterior_facet_bottom_integral_otherwise (236,882 us, 0.02%)</title><rect x="38.2" y="135" width="0.3" height="15.0" fill="rgb(0,0,0)" rx="2" ry="2" />
<text  x="41.18" y="145.5" ></text>
</g>
<g >
<title>Parloop_IntFacets_wrap_form00_interior_facet_vert_integral_otherwise (8,920,638 us, 0.92%)</title><rect x="43.6" y="135" width="10.9" height="15.0" fill="rgb(0,0,0)" rx="2" ry="2" />
<text  x="46.59" y="145.5" ></text>
</g>
<g >
<title>Log_Event_subkernel5_interior_facet_horiz_bottom_to__exterior_facet_bottom_integral_otherwise (402,447 us, 0.04%)</title><rect x="836.2" y="199" width="0.5" height="15.0" fill="rgb(0,0,0)" rx="2" ry="2" />
<text  x="839.22" y="209.5" ></text>
</g>
<g >
<title>pyop2.caching.disk_cached.&lt;locals&gt;.decorator.&lt;locals&gt;.wrapper (244,522 us, 0.03%)</title><rect x="15.9" y="119" width="0.3" height="15.0" fill="rgb(0,0,0)" rx="2" ry="2" />
<text  x="18.95" y="129.5" ></text>
</g>
<g >
<title>Parloop_IntFacets_wrap_form0_interior_facet_vert_integral_otherwise (237,061 us, 0.02%)</title><rect x="17.1" y="119" width="0.3" height="15.0" fill="rgb(0,0,0)" rx="2" ry="2" />
<text  x="20.11" y="129.5" ></text>
</g>
<g >
<title>solve_memcpy (598,856 us, 0.06%)</title><rect x="642.4" y="199" width="0.8" height="15.0" fill="rgb(0,0,0)" rx="2" ry="2" />
<text  x="645.45" y="209.5" ></text>
</g>
<g >
<title>MatZeroEntries (109,979 us, 0.01%)</title><rect x="918.6" y="151" width="0.2" height="15.0" fill="rgb(0,0,0)" rx="2" ry="2" />
<text  x="921.62" y="161.5" ></text>
</g>
<g >
<title>Parloop_Cells_wrap_form00_cell_integral_otherwise (17,002,375 us, 1.76%)</title><rect x="17.4" y="135" width="20.8" height="15.0" fill="rgb(0,0,0)" rx="2" ry="2" />
<text  x="20.40" y="145.5" ></text>
</g>
<g >
<title>Log_Event_subkernel3_interior_facet_horiz_bottom_to__exterior_facet_bottom_integral_otherwise (392,711 us, 0.04%)</title><rect x="1164.6" y="183" width="0.5" height="15.0" fill="rgb(0,0,0)" rx="2" ry="2" />
<text  x="1167.58" y="193.5" ></text>
</g>
<g >
<title>firedrake.tsfc_interface.compile_form (258,836 us, 0.03%)</title><rect x="16.2" y="87" width="0.4" height="15.0" fill="rgb(0,0,0)" rx="2" ry="2" />
<text  x="19.25" y="97.5" ></text>
</g>
<g >
<title>Log_Event_slate_loopy_knl_4 (21,122,564 us, 2.19%)</title><rect x="810.4" y="199" width="25.8" height="15.0" fill="rgb(0,0,0)" rx="2" ry="2" />
<text  x="813.41" y="209.5" >L..</text>
</g>
<g >
<title>VecTDot (190,168 us, 0.02%)</title><rect x="917.8" y="167" width="0.3" height="15.0" fill="rgb(0,0,0)" rx="2" ry="2" />
<text  x="920.83" y="177.5" ></text>
</g>
<g >
<title>Log_Event_subkernel13_interior_facet_vert_to__exterior_facet_vert_integral_otherwise (6,354,944 us, 0.66%)</title><rect x="799.5" y="199" width="7.8" height="15.0" fill="rgb(0,0,0)" rx="2" ry="2" />
<text  x="802.54" y="209.5" ></text>
</g>
<g >
<title>ParLoopExecute (572,432 us, 0.06%)</title><rect x="16.7" y="103" width="0.7" height="15.0" fill="rgb(0,0,0)" rx="2" ry="2" />
<text  x="19.70" y="113.5" ></text>
</g>
<g >
<title>Log_Event_subkernel17_interior_facet_vert_to__exterior_facet_vert_integral_otherwise (6,355,986 us, 0.66%)</title><rect x="650.4" y="183" width="7.8" height="15.0" fill="rgb(0,0,0)" rx="2" ry="2" />
<text  x="653.40" y="193.5" ></text>
</g>
<g >
<title>Parloop_set_#x7efdf57325c0_wrap_expression_kernel (254,557 us, 0.03%)</title><rect x="15.6" y="135" width="0.3" height="15.0" fill="rgb(0,0,0)" rx="2" ry="2" />
<text  x="18.64" y="145.5" ></text>
</g>
<g >
<title>VecPointwiseMult (158,711 us, 0.02%)</title><rect x="917.3" y="183" width="0.2" height="15.0" fill="rgb(0,0,0)" rx="2" ry="2" />
<text  x="920.31" y="193.5" ></text>
</g>
<g >
<title>PCApply (236,854,747 us, 24.53%)</title><rect x="628.6" y="119" width="289.5" height="15.0" fill="rgb(0,0,0)" rx="2" ry="2" />
<text  x="631.61" y="129.5" >PCApply</text>
</g>
<g >
<title>inv_getri (97,904,288 us, 10.14%)</title><rect x="1013.3" y="199" width="119.6" height="15.0" fill="rgb(0,0,0)" rx="2" ry="2" />
<text  x="1016.27" y="209.5" >inv_getri</text>
</g>
<g >
<title>Log_Event_subkernel11_cell_to__cell_integral_otherwise (1,522,385 us, 0.16%)</title><rect x="796.6" y="199" width="1.9" height="15.0" fill="rgb(0,0,0)" rx="2" ry="2" />
<text  x="799.59" y="209.5" ></text>
</g>
<g >
<title>HybridOperatorAssembly (207,285,870 us, 21.47%)</title><rect x="918.3" y="135" width="253.3" height="15.0" fill="rgb(0,0,0)" rx="2" ry="2" />
<text  x="921.28" y="145.5" >HybridOperatorAssembly</text>
</g>
<g >
<title>Log_Event_subkernel1_interior_facet_horiz_bottom_to__exterior_facet_bottom_integral_otherwise (384,514 us, 0.04%)</title><rect x="1134.1" y="183" width="0.5" height="15.0" fill="rgb(0,0,0)" rx="2" ry="2" />
<text  x="1137.12" y="193.5" ></text>
</g>
<g >
<title>ParLoopExecute (360,957 us, 0.04%)</title><rect x="15.5" y="119" width="0.4" height="15.0" fill="rgb(0,0,0)" rx="2" ry="2" />
<text  x="18.51" y="129.5" ></text>
</g>
<g >
<title>all (965,576,687 us, 100%)</title><rect x="10.0" y="39" width="1180.0" height="15.0" fill="rgb(0,0,0)" rx="2" ry="2" />
<text  x="13.00" y="49.5" ></text>
</g>
<g >
<title>Parloop_IntFacets_wrap_form_interior_facet_vert_integral_otherwise (261,577 us, 0.03%)</title><rect x="15.2" y="103" width="0.3" height="15.0" fill="rgb(0,0,0)" rx="2" ry="2" />
<text  x="18.19" y="113.5" ></text>
</g>
<g >
<title>firedrake.assemble.assemble (370,908,573 us, 38.41%)</title><rect x="17.4" y="103" width="453.3" height="15.0" fill="rgb(0,0,0)" rx="2" ry="2" />
<text  x="20.40" y="113.5" >firedrake.assemble.assemble</text>
</g>
<g >
<title>Parloop_Cells_wrap_form1_cell_integral_otherwise (307,161 us, 0.03%)</title><rect x="1189.6" y="135" width="0.4" height="15.0" fill="rgb(0,0,0)" rx="2" ry="2" />
<text  x="1192.62" y="145.5" ></text>
</g>
<g >
<title>Log_Event_slate_loopy_knl_14 (10,771,599 us, 1.12%)</title><rect x="630.0" y="183" width="13.2" height="15.0" fill="rgb(0,0,0)" rx="2" ry="2" />
<text  x="633.02" y="193.5" ></text>
</g>
<g >
<title>Log_Event_subkernel17_interior_facet_horiz_bottom_to__exterior_facet_bottom_integral_otherwise (443,830 us, 0.05%)</title><rect x="649.3" y="183" width="0.6" height="15.0" fill="rgb(0,0,0)" rx="2" ry="2" />
<text  x="652.31" y="193.5" ></text>
</g>
<g >
<title>Parloop_Cells_wrap_form0_cell_integral_otherwise (164,293 us, 0.02%)</title><rect x="628.2" y="167" width="0.2" height="15.0" fill="rgb(0,0,0)" rx="2" ry="2" />
<text  x="631.24" y="177.5" ></text>
</g>
<g >
<title>Log_Event_subkernel17_interior_facet_horiz_top_to__exterior_facet_top_integral_otherwise (441,919 us, 0.05%)</title><rect x="649.9" y="183" width="0.5" height="15.0" fill="rgb(0,0,0)" rx="2" ry="2" />
<text  x="652.86" y="193.5" ></text>
</g>
<g >
<title>firedrake.function.Function.project (500,095,217 us, 51.79%)</title><rect x="16.6" y="71" width="611.1" height="15.0" fill="rgb(0,0,0)" rx="2" ry="2" />
<text  x="19.56" y="81.5" >firedrake.function.Function.project</text>
</g>
<g >
<title>KSPSolve (237,158,184 us, 24.56%)</title><rect x="628.2" y="103" width="289.9" height="15.0" fill="rgb(0,0,0)" rx="2" ry="2" />
<text  x="631.24" y="113.5" >KSPSolve</text>
</g>
<g >
<title>PCSetUp (119,183,766 us, 12.34%)</title><rect x="482.1" y="135" width="145.6" height="15.0" fill="rgb(0,0,0)" rx="2" ry="2" />
<text  x="485.06" y="145.5" >PCSetUp</text>
</g>
<g >
<title>CreateSparsity (11,150,890 us, 1.15%)</title><rect x="1171.6" y="151" width="13.6" height="15.0" fill="rgb(0,0,0)" rx="2" ry="2" />
<text  x="1174.60" y="161.5" ></text>
</g>
<g >
<title>Log_Event_form00_cell_integral_otherwise (4,312,616 us, 0.45%)</title><rect x="32.9" y="151" width="5.3" height="15.0" fill="rgb(0,0,0)" rx="2" ry="2" />
<text  x="35.91" y="161.5" ></text>
</g>
<g >
<title>firedrake (965,576,687 us, 100.00%)</title><rect x="10.0" y="55" width="1180.0" height="15.0" fill="rgb(0,0,0)" rx="2" ry="2" />
<text  x="13.00" y="65.5" >firedrake</text>
</g>
<g >
<title>SNESFunctionEval (629,607 us, 0.07%)</title><rect x="1189.2" y="103" width="0.8" height="15.0" fill="rgb(0,0,0)" rx="2" ry="2" />
<text  x="1192.23" y="113.5" ></text>
</g>
<g >
<title>ParLoopExecute (123,563,244 us, 12.80%)</title><rect x="658.3" y="167" width="151.0" height="15.0" fill="rgb(0,0,0)" rx="2" ry="2" />
<text  x="661.30" y="177.5" >ParLoopExecute</text>
</g>
<g >
<title>SNESSolve (459,678,561 us, 47.61%)</title><rect x="628.2" y="87" width="561.8" height="15.0" fill="rgb(0,0,0)" rx="2" ry="2" />
<text  x="631.24" y="97.5" >SNESSolve</text>
</g>
<g >
<title>Parloop_Cells_wrap_wrap_slate_loopy_knl_14 (23,853,100 us, 2.47%)</title><rect x="629.0" y="167" width="29.2" height="15.0" fill="rgb(0,0,0)" rx="2" ry="2" />
<text  x="632.01" y="177.5" >P..</text>
</g>
<g >
<title>Log_Event_form0_cell_integral_otherwise (113,916 us, 0.01%)</title><rect x="17.0" y="135" width="0.1" height="15.0" fill="rgb(0,0,0)" rx="2" ry="2" />
<text  x="19.98" y="145.5" ></text>
</g>
<g >
<title>Parloop_Cells_wrap_wrap_slate_loopy_knl_7 (123,563,244 us, 12.80%)</title><rect x="658.3" y="183" width="151.0" height="15.0" fill="rgb(0,0,0)" rx="2" ry="2" />
<text  x="661.30" y="193.5" >Parloop_Cells_wra..</text>
</g>
<g >
<title>solve_getrs (559,562 us, 0.06%)</title><rect x="790.2" y="215" width="0.7" height="15.0" fill="rgb(0,0,0)" rx="2" ry="2" />
<text  x="793.17" y="225.5" ></text>
</g>
<g >
<title>MatICCFactorSym (1,166,089 us, 0.12%)</title><rect x="626.3" y="151" width="1.4" height="15.0" fill="rgb(0,0,0)" rx="2" ry="2" />
<text  x="629.29" y="161.5" ></text>
</g>
<g >
<title>Log_Event_subkernel1_interior_facet_vert_to__exterior_facet_vert_integral_otherwise (6,536,427 us, 0.68%)</title><rect x="1135.1" y="183" width="8.0" height="15.0" fill="rgb(0,0,0)" rx="2" ry="2" />
<text  x="1138.08" y="193.5" ></text>
</g>
<g >
<title>Log_Event_subkernel6_cell_to__cell_integral_otherwise (17,501,852 us, 1.81%)</title><rect x="844.9" y="199" width="21.4" height="15.0" fill="rgb(0,0,0)" rx="2" ry="2" />
<text  x="847.93" y="209.5" ></text>
</g>
<g >
<title>Log_Event_subkernel2_cell_to__cell_integral_otherwise (17,598,826 us, 1.82%)</title><rect x="1143.1" y="183" width="21.5" height="15.0" fill="rgb(0,0,0)" rx="2" ry="2" />
<text  x="1146.07" y="193.5" ></text>
</g>
<g >
<title>Log_Event_slate_loopy_knl_7 (108,768,929 us, 11.26%)</title><rect x="659.4" y="199" width="132.9" height="15.0" fill="rgb(0,0,0)" rx="2" ry="2" />
<text  x="662.42" y="209.5" >Log_Event_slate..</text>
</g>
<g >
<title>Log_Event_form00_exterior_facet_top_integral_otherwise (108,557 us, 0.01%)</title><rect x="38.5" y="151" width="0.1" height="15.0" fill="rgb(0,0,0)" rx="2" ry="2" />
<text  x="41.47" y="161.5" ></text>
</g>
<g >
<title>PCApply (5,618,061 us, 0.58%)</title><rect x="475.2" y="167" width="6.9" height="15.0" fill="rgb(0,0,0)" rx="2" ry="2" />
<text  x="478.20" y="177.5" ></text>
</g>
<g >
<title>VecAXPY (269,804 us, 0.03%)</title><rect x="917.5" y="167" width="0.3" height="15.0" fill="rgb(0,0,0)" rx="2" ry="2" />
<text  x="920.50" y="177.5" ></text>
</g>
<g >
<title>solve_getrf (19,855,161 us, 2.06%)</title><rect x="765.9" y="215" width="24.3" height="15.0" fill="rgb(0,0,0)" rx="2" ry="2" />
<text  x="768.91" y="225.5" >s..</text>
</g>
<g >
<title>MatSolve (5,618,061 us, 0.58%)</title><rect x="475.2" y="183" width="6.9" height="15.0" fill="rgb(0,0,0)" rx="2" ry="2" />
<text  x="478.20" y="193.5" ></text>
</g>
<g >
<title>firedrake.__init__ (1,658,207 us, 0.17%)</title><rect x="12.9" y="71" width="2.0" height="15.0" fill="rgb(0,0,0)" rx="2" ry="2" />
<text  x="15.89" y="81.5" ></text>
</g>
<g >
<title>Parloop_Cells_wrap_form1_cell_integral_otherwise (139,144 us, 0.01%)</title><rect x="628.4" y="167" width="0.2" height="15.0" fill="rgb(0,0,0)" rx="2" ry="2" />
<text  x="631.44" y="177.5" ></text>
</g>
<g >
<title>Log_Event_form00_interior_facet_horiz_integral_otherwise (1,556,053 us, 0.16%)</title><rect x="40.5" y="151" width="1.9" height="15.0" fill="rgb(0,0,0)" rx="2" ry="2" />
<text  x="43.50" y="161.5" ></text>
</g>
<g >
<title>Parloop_Cells_wrap_form0_cell_integral_otherwise (113,916 us, 0.01%)</title><rect x="17.0" y="119" width="0.1" height="15.0" fill="rgb(0,0,0)" rx="2" ry="2" />
<text  x="19.98" y="129.5" ></text>
</g>
<g >
<title>ParLoopExecute (206,899,649 us, 21.43%)</title><rect x="918.8" y="151" width="252.8" height="15.0" fill="rgb(0,0,0)" rx="2" ry="2" />
<text  x="921.75" y="161.5" >ParLoopExecute</text>
</g>
<g >
<title>inv_getrf (9,666,505 us, 1.00%)</title><rect x="696.3" y="215" width="11.9" height="15.0" fill="rgb(0,0,0)" rx="2" ry="2" />
<text  x="699.34" y="225.5" ></text>
</g>
<g >
<title>Log_Event_form0_cell_integral_otherwise (322,446 us, 0.03%)</title><rect x="1189.2" y="151" width="0.4" height="15.0" fill="rgb(0,0,0)" rx="2" ry="2" />
<text  x="1192.23" y="161.5" ></text>
</g>
<g >
<title>PCApply (158,711 us, 0.02%)</title><rect x="917.3" y="167" width="0.2" height="15.0" fill="rgb(0,0,0)" rx="2" ry="2" />
<text  x="920.31" y="177.5" ></text>
</g>
<g >
<title>Parloop_Cells_wrap_form00_exterior_facet_top_integral_otherwise (108,557 us, 0.01%)</title><rect x="38.5" y="135" width="0.1" height="15.0" fill="rgb(0,0,0)" rx="2" ry="2" />
<text  x="41.47" y="145.5" ></text>
</g>
<g >
<title>firedrake.assemble.assemble (431,193 us, 0.04%)</title><rect x="627.7" y="103" width="0.5" height="15.0" fill="rgb(0,0,0)" rx="2" ry="2" />
<text  x="630.71" y="113.5" ></text>
</g>
<g >
<title>firedrake.assemble.allocate_matrix (340,559,592 us, 35.27%)</title><rect x="54.5" y="119" width="416.2" height="15.0" fill="rgb(0,0,0)" rx="2" ry="2" />
<text  x="57.49" y="129.5" >firedrake.assemble.allocate_matrix</text>
</g>
<g >
<title>Log_Event_subkernel3_interior_facet_horiz_top_to__exterior_facet_top_integral_otherwise (403,020 us, 0.04%)</title><rect x="1165.1" y="183" width="0.4" height="15.0" fill="rgb(0,0,0)" rx="2" ry="2" />
<text  x="1168.06" y="193.5" ></text>
</g>
<g >
<title>Log_Event_inits_wrap_slate_loopy_knl_14 (366,768 us, 0.04%)</title><rect x="629.6" y="183" width="0.4" height="15.0" fill="rgb(0,0,0)" rx="2" ry="2" />
<text  x="632.57" y="193.5" ></text>
</g>
<g >
<title>Parloop_set_#x7efdec574a30_wrap_expression_kernel (106,400 us, 0.01%)</title><rect x="15.5" y="135" width="0.1" height="15.0" fill="rgb(0,0,0)" rx="2" ry="2" />
<text  x="18.51" y="145.5" ></text>
</g>
<g >
<title>Parloop_Cells_wrap_wrap_slate_loopy_knl_0 (206,899,649 us, 21.43%)</title><rect x="918.8" y="167" width="252.8" height="15.0" fill="rgb(0,0,0)" rx="2" ry="2" />
<text  x="921.75" y="177.5" >Parloop_Cells_wrap_wrap_slate_..</text>
</g>
<g >
<title>Log_Event_form1_cell_integral_otherwise (139,144 us, 0.01%)</title><rect x="628.4" y="183" width="0.2" height="15.0" fill="rgb(0,0,0)" rx="2" ry="2" />
<text  x="631.44" y="193.5" ></text>
</g>
<g >
<title>inv_memcpy (588,652 us, 0.06%)</title><rect x="765.2" y="215" width="0.7" height="15.0" fill="rgb(0,0,0)" rx="2" ry="2" />
<text  x="768.19" y="225.5" ></text>
</g>
<g >
<title>pyop2.global_kernel.GlobalKernel.compile (148,054 us, 0.02%)</title><rect x="628.1" y="151" width="0.1" height="15.0" fill="rgb(0,0,0)" rx="2" ry="2" />
<text  x="631.06" y="161.5" ></text>
</g>
<g >
<title>Log_Event_form_interior_facet_vert_integral_otherwise (115,043 us, 0.01%)</title><rect x="15.4" y="119" width="0.1" height="15.0" fill="rgb(0,0,0)" rx="2" ry="2" />
<text  x="18.37" y="129.5" ></text>
</g>
<g >
<title>Parloop_Cells_wrap_form_cell_integral_otherwise (431,193 us, 0.04%)</title><rect x="627.7" y="135" width="0.5" height="15.0" fill="rgb(0,0,0)" rx="2" ry="2" />
<text  x="630.71" y="145.5" ></text>
</g>
<g >
<title>solve_getrs (409,823 us, 0.04%)</title><rect x="834.5" y="215" width="0.5" height="15.0" fill="rgb(0,0,0)" rx="2" ry="2" />
<text  x="837.52" y="225.5" ></text>
</g>
</g>
</svg>
