<?xml version="1.0" standalone="no"?>
<!DOCTYPE svg PUBLIC "-//W3C//DTD SVG 1.1//EN" "http://www.w3.org/Graphics/SVG/1.1/DTD/svg11.dtd">
<svg version="1.1" width="1200" height="395" onload="init(evt)" viewBox="0 0 1200 395" xmlns="http://www.w3.org/2000/svg" xmlns:xlink="http://www.w3.org/1999/xlink">
<!-- Flame graph stack visualization. See https://github.com/brendangregg/FlameGraph for latest version, and http://www.brendangregg.com/flamegraphs.html for examples. -->
<!-- NOTES:  -->
<defs>
	<linearGradient id="background" y1="0" y2="1" x1="0" x2="0" >
		<stop stop-color="#eeeeee" offset="5%" />
		<stop stop-color="#eeeeb0" offset="95%" />
	</linearGradient>
</defs>
<style type="text/css">
	text { font-family:Verdana; font-size:13px; fill:rgb(0,0,0); }
	#search, #ignorecase { opacity:0.1; cursor:pointer; }
	#search:hover, #search.show, #ignorecase:hover, #ignorecase.show { opacity:1; }
	#subtitle { text-anchor:middle; font-color:rgb(160,160,160); }
	#title { text-anchor:middle; font-size:18px}
	#unzoom { cursor:pointer; }
	#frames > *:hover { stroke:black; stroke-width:0.5; cursor:pointer; }
	.hide { display:none; }
	.parent { opacity:0.5; }
</style>
<script type="text/ecmascript">
<![CDATA[
	"use strict";
	var details, searchbtn, unzoombtn, matchedtxt, svg, searching, currentSearchTerm, ignorecase, ignorecaseBtn;
	function init(evt) {
		details = document.getElementById("details").firstChild;
		searchbtn = document.getElementById("search");
		ignorecaseBtn = document.getElementById("ignorecase");
		unzoombtn = document.getElementById("unzoom");
		matchedtxt = document.getElementById("matched");
		svg = document.getElementsByTagName("svg")[0];
		searching = 0;
		currentSearchTerm = null;

		// use GET parameters to restore a flamegraphs state.
		var params = get_params();
		if (params.x && params.y)
			zoom(find_group(document.querySelector('[x="' + params.x + '"][y="' + params.y + '"]')));
                if (params.s) search(params.s);
	}

	// event listeners
	window.addEventListener("click", function(e) {
		var target = find_group(e.target);
		if (target) {
			if (target.nodeName == "a") {
				if (e.ctrlKey === false) return;
				e.preventDefault();
			}
			if (target.classList.contains("parent")) unzoom();
			zoom(target);
			if (!document.querySelector('.parent')) {
				clearzoom();
				return;
			}

			// set parameters for zoom state
			var el = target.querySelector("rect");
			if (el && el.attributes && el.attributes.y && el.attributes._orig_x) {
				var params = get_params()
				params.x = el.attributes._orig_x.value;
				params.y = el.attributes.y.value;
				history.replaceState(null, null, parse_params(params));
			}
		}
		else if (e.target.id == "unzoom") clearzoom();
		else if (e.target.id == "search") search_prompt();
		else if (e.target.id == "ignorecase") toggle_ignorecase();
	}, false)

	// mouse-over for info
	// show
	window.addEventListener("mouseover", function(e) {
		var target = find_group(e.target);
		if (target) details.nodeValue = "Function: " + g_to_text(target);
	}, false)

	// clear
	window.addEventListener("mouseout", function(e) {
		var target = find_group(e.target);
		if (target) details.nodeValue = ' ';
	}, false)

	// ctrl-F for search
	// ctrl-I to toggle case-sensitive search
	window.addEventListener("keydown",function (e) {
		if (e.keyCode === 114 || (e.ctrlKey && e.keyCode === 70)) {
			e.preventDefault();
			search_prompt();
		}
		else if (e.ctrlKey && e.keyCode === 73) {
			e.preventDefault();
			toggle_ignorecase();
		}
	}, false)

	// functions
	function get_params() {
		var params = {};
		var paramsarr = window.location.search.substr(1).split('&');
		for (var i = 0; i < paramsarr.length; ++i) {
			var tmp = paramsarr[i].split("=");
			if (!tmp[0] || !tmp[1]) continue;
			params[tmp[0]]  = decodeURIComponent(tmp[1]);
		}
		return params;
	}
	function parse_params(params) {
		var uri = "?";
		for (var key in params) {
			uri += key + '=' + encodeURIComponent(params[key]) + '&';
		}
		if (uri.slice(-1) == "&")
			uri = uri.substring(0, uri.length - 1);
		if (uri == '?')
			uri = window.location.href.split('?')[0];
		return uri;
	}
	function find_child(node, selector) {
		var children = node.querySelectorAll(selector);
		if (children.length) return children[0];
	}
	function find_group(node) {
		var parent = node.parentElement;
		if (!parent) return;
		if (parent.id == "frames") return node;
		return find_group(parent);
	}
	function orig_save(e, attr, val) {
		if (e.attributes["_orig_" + attr] != undefined) return;
		if (e.attributes[attr] == undefined) return;
		if (val == undefined) val = e.attributes[attr].value;
		e.setAttribute("_orig_" + attr, val);
	}
	function orig_load(e, attr) {
		if (e.attributes["_orig_"+attr] == undefined) return;
		e.attributes[attr].value = e.attributes["_orig_" + attr].value;
		e.removeAttribute("_orig_"+attr);
	}
	function g_to_text(e) {
		var text = find_child(e, "title").firstChild.nodeValue;
		return (text)
	}
	function g_to_func(e) {
		var func = g_to_text(e);
		// if there's any manipulation we want to do to the function
		// name before it's searched, do it here before returning.
		return (func);
	}
	function update_text(e) {
		var r = find_child(e, "rect");
		var t = find_child(e, "text");
		var w = parseFloat(r.attributes.width.value) -3;
		var txt = find_child(e, "title").textContent.replace(/\([^(]*\)$/,"");
		t.attributes.x.value = parseFloat(r.attributes.x.value) + 3;

		// Smaller than this size won't fit anything
		if (w < 2 * 13 * 0.59) {
			t.textContent = "";
			return;
		}

		t.textContent = txt;
		// Fit in full text width
		if (/^ *$/.test(txt) || t.getSubStringLength(0, txt.length) < w)
			return;

		for (var x = txt.length - 2; x > 0; x--) {
			if (t.getSubStringLength(0, x + 2) <= w) {
				t.textContent = txt.substring(0, x) + "..";
				return;
			}
		}
		t.textContent = "";
	}

	// zoom
	function zoom_reset(e) {
		if (e.attributes != undefined) {
			orig_load(e, "x");
			orig_load(e, "width");
		}
		if (e.childNodes == undefined) return;
		for (var i = 0, c = e.childNodes; i < c.length; i++) {
			zoom_reset(c[i]);
		}
	}
	function zoom_child(e, x, ratio) {
		if (e.attributes != undefined) {
			if (e.attributes.x != undefined) {
				orig_save(e, "x");
				e.attributes.x.value = (parseFloat(e.attributes.x.value) - x - 10) * ratio + 10;
				if (e.tagName == "text")
					e.attributes.x.value = find_child(e.parentNode, "rect[x]").attributes.x.value + 3;
			}
			if (e.attributes.width != undefined) {
				orig_save(e, "width");
				e.attributes.width.value = parseFloat(e.attributes.width.value) * ratio;
			}
		}

		if (e.childNodes == undefined) return;
		for (var i = 0, c = e.childNodes; i < c.length; i++) {
			zoom_child(c[i], x - 10, ratio);
		}
	}
	function zoom_parent(e) {
		if (e.attributes) {
			if (e.attributes.x != undefined) {
				orig_save(e, "x");
				e.attributes.x.value = 10;
			}
			if (e.attributes.width != undefined) {
				orig_save(e, "width");
				e.attributes.width.value = parseInt(svg.width.baseVal.value) - (10 * 2);
			}
		}
		if (e.childNodes == undefined) return;
		for (var i = 0, c = e.childNodes; i < c.length; i++) {
			zoom_parent(c[i]);
		}
	}
	function zoom(node) {
		var attr = find_child(node, "rect").attributes;
		var width = parseFloat(attr.width.value);
		var xmin = parseFloat(attr.x.value);
		var xmax = parseFloat(xmin + width);
		var ymin = parseFloat(attr.y.value);
		var ratio = (svg.width.baseVal.value - 2 * 10) / width;

		// XXX: Workaround for JavaScript float issues (fix me)
		var fudge = 0.0001;

		unzoombtn.classList.remove("hide");

		var el = document.getElementById("frames").children;
		for (var i = 0; i < el.length; i++) {
			var e = el[i];
			var a = find_child(e, "rect").attributes;
			var ex = parseFloat(a.x.value);
			var ew = parseFloat(a.width.value);
			var upstack;
			// Is it an ancestor
			if (1 == 0) {
				upstack = parseFloat(a.y.value) > ymin;
			} else {
				upstack = parseFloat(a.y.value) < ymin;
			}
			if (upstack) {
				// Direct ancestor
				if (ex <= xmin && (ex+ew+fudge) >= xmax) {
					e.classList.add("parent");
					zoom_parent(e);
					update_text(e);
				}
				// not in current path
				else
					e.classList.add("hide");
			}
			// Children maybe
			else {
				// no common path
				if (ex < xmin || ex + fudge >= xmax) {
					e.classList.add("hide");
				}
				else {
					zoom_child(e, xmin, ratio);
					update_text(e);
				}
			}
		}
		search();
	}
	function unzoom() {
		unzoombtn.classList.add("hide");
		var el = document.getElementById("frames").children;
		for(var i = 0; i < el.length; i++) {
			el[i].classList.remove("parent");
			el[i].classList.remove("hide");
			zoom_reset(el[i]);
			update_text(el[i]);
		}
		search();
	}
	function clearzoom() {
		unzoom();

		// remove zoom state
		var params = get_params();
		if (params.x) delete params.x;
		if (params.y) delete params.y;
		history.replaceState(null, null, parse_params(params));
	}

	// search
	function toggle_ignorecase() {
		ignorecase = !ignorecase;
		if (ignorecase) {
			ignorecaseBtn.classList.add("show");
		} else {
			ignorecaseBtn.classList.remove("show");
		}
		reset_search();
		search();
	}
	function reset_search() {
		var el = document.querySelectorAll("#frames rect");
		for (var i = 0; i < el.length; i++) {
			orig_load(el[i], "fill")
		}
		var params = get_params();
		delete params.s;
		history.replaceState(null, null, parse_params(params));
	}
	function search_prompt() {
		if (!searching) {
			var term = prompt("Enter a search term (regexp " +
			    "allowed, eg: ^ext4_)"
			    + (ignorecase ? ", ignoring case" : "")
			    + "\nPress Ctrl-i to toggle case sensitivity", "");
			if (term != null) search(term);
		} else {
			reset_search();
			searching = 0;
			currentSearchTerm = null;
			searchbtn.classList.remove("show");
			searchbtn.firstChild.nodeValue = "Search"
			matchedtxt.classList.add("hide");
			matchedtxt.firstChild.nodeValue = ""
		}
	}
	function search(term) {
		if (term) currentSearchTerm = term;

		var re = new RegExp(currentSearchTerm, ignorecase ? 'i' : '');
		var el = document.getElementById("frames").children;
		var matches = new Object();
		var maxwidth = 0;
		for (var i = 0; i < el.length; i++) {
			var e = el[i];
			var func = g_to_func(e);
			var rect = find_child(e, "rect");
			if (func == null || rect == null)
				continue;

			// Save max width. Only works as we have a root frame
			var w = parseFloat(rect.attributes.width.value);
			if (w > maxwidth)
				maxwidth = w;

			if (func.match(re)) {
				// highlight
				var x = parseFloat(rect.attributes.x.value);
				orig_save(rect, "fill");
				rect.attributes.fill.value = "rgb(230,0,230)";

				// remember matches
				if (matches[x] == undefined) {
					matches[x] = w;
				} else {
					if (w > matches[x]) {
						// overwrite with parent
						matches[x] = w;
					}
				}
				searching = 1;
			}
		}
		if (!searching)
			return;
		var params = get_params();
		params.s = currentSearchTerm;
		history.replaceState(null, null, parse_params(params));

		searchbtn.classList.add("show");
		searchbtn.firstChild.nodeValue = "Reset Search";

		// calculate percent matched, excluding vertical overlap
		var count = 0;
		var lastx = -1;
		var lastw = 0;
		var keys = Array();
		for (k in matches) {
			if (matches.hasOwnProperty(k))
				keys.push(k);
		}
		// sort the matched frames by their x location
		// ascending, then width descending
		keys.sort(function(a, b){
			return a - b;
		});
		// Step through frames saving only the biggest bottom-up frames
		// thanks to the sort order. This relies on the tree property
		// where children are always smaller than their parents.
		var fudge = 0.0001;	// JavaScript floating point
		for (var k in keys) {
			var x = parseFloat(keys[k]);
			var w = matches[keys[k]];
			if (x >= lastx + lastw - fudge) {
				count += w;
				lastx = x;
				lastw = w;
			}
		}
		// display matched percent
		matchedtxt.classList.remove("hide");
		var pct = 100 * count / maxwidth;
		if (pct != 100) pct = pct.toFixed(1)
		matchedtxt.firstChild.nodeValue = "Matched: " + pct + "%";
	}
]]>
</script>
<rect x="0.0" y="0" width="1200.0" height="395.0" fill="url(#background)"  />
<text id="title" x="600.00" y="26" >Firedrake example</text>
<text id="details" x="10.00" y="377" > </text>
<text id="unzoom" x="10.00" y="26" class="hide">Reset Zoom</text>
<text id="search" x="1090.00" y="26" >Search</text>
<text id="ignorecase" x="1174.00" y="26" >ic</text>
<text id="matched" x="1090.00" y="377" > </text>
<g id="frames">
<g >
<title>firedrake.variational_solver.LinearVariationalProblem.__init__ (19,704 us, 0.01%)</title><rect x="451.2" y="71" width="0.2" height="15.0" fill="rgb(0,0,0)" rx="2" ry="2" />
<text  x="454.21" y="81.5" ></text>
</g>
<g >
<title>KSPSolve (67,663,382 us, 43.82%)</title><rect x="451.4" y="103" width="517.0" height="15.0" fill="rgb(0,0,0)" rx="2" ry="2" />
<text  x="454.36" y="113.5" >KSPSolve</text>
</g>
<g >
<title>ParLoopExecute (1,125,320 us, 0.73%)</title><rect x="894.8" y="311" width="8.6" height="15.0" fill="rgb(0,0,0)" rx="2" ry="2" />
<text  x="897.82" y="321.5" ></text>
</g>
<g >
<title>MatMult (6,821,142 us, 4.42%)</title><rect x="451.4" y="119" width="52.1" height="15.0" fill="rgb(0,0,0)" rx="2" ry="2" />
<text  x="454.36" y="129.5" >MatM..</text>
</g>
<g >
<title>MatMultTranspose (1,111,073 us, 0.72%)</title><rect x="906.8" y="215" width="8.5" height="15.0" fill="rgb(0,0,0)" rx="2" ry="2" />
<text  x="909.80" y="225.5" ></text>
</g>
<g >
<title>firedrake.tsfc_interface.compile_form (345,772 us, 0.22%)</title><rect x="965.8" y="167" width="2.6" height="15.0" fill="rgb(0,0,0)" rx="2" ry="2" />
<text  x="968.80" y="177.5" ></text>
</g>
<g >
<title>ParLoopExecute (11,798,168 us, 7.64%)</title><rect x="775.5" y="167" width="90.2" height="15.0" fill="rgb(0,0,0)" rx="2" ry="2" />
<text  x="778.54" y="177.5" >ParLoopEx..</text>
</g>
<g >
<title>HybridInit (21,714,749 us, 14.06%)</title><rect x="968.4" y="119" width="166.0" height="15.0" fill="rgb(0,0,0)" rx="2" ry="2" />
<text  x="971.45" y="129.5" >HybridInit</text>
</g>
<g >
<title>Parloop_Cells_wrap_wrap_slate_loopy_knl_14 (10,822,803 us, 7.01%)</title><rect x="519.6" y="167" width="82.8" height="15.0" fill="rgb(0,0,0)" rx="2" ry="2" />
<text  x="522.65" y="177.5" >Parloop_..</text>
</g>
<g >
<title>firedrake.pointquery_utils.to_reference_coordinates (406,794 us, 0.26%)</title><rect x="903.7" y="279" width="3.1" height="15.0" fill="rgb(0,0,0)" rx="2" ry="2" />
<text  x="906.69" y="289.5" ></text>
</g>
<g >
<title>firedrake.functionspacedata.FunctionSpaceData.__init__ (18,548 us, 0.01%)</title><rect x="25.2" y="119" width="0.1" height="15.0" fill="rgb(0,0,0)" rx="2" ry="2" />
<text  x="28.16" y="129.5" ></text>
</g>
<g >
<title>firedrake.variational_solver.NonlinearVariationalSolver.solve (96,654,836 us, 62.60%)</title><rect x="451.4" y="71" width="738.6" height="15.0" fill="rgb(0,0,0)" rx="2" ry="2" />
<text  x="454.36" y="81.5" >firedrake.variational_solver.NonlinearVariationalSolver.solve</text>
</g>
<g >
<title>firedrake.functionspacedata.get_shared_data (18,548 us, 0.01%)</title><rect x="25.2" y="103" width="0.1" height="15.0" fill="rgb(0,0,0)" rx="2" ry="2" />
<text  x="28.16" y="113.5" ></text>
</g>
<g >
<title>ParLoopExecute (21,808,514 us, 14.12%)</title><rect x="211.3" y="119" width="166.6" height="15.0" fill="rgb(0,0,0)" rx="2" ry="2" />
<text  x="214.28" y="129.5" >ParLoopExecute</text>
</g>
<g >
<title>firedrake.norms.norm (6,832,097 us, 4.42%)</title><rect x="399.0" y="87" width="52.2" height="15.0" fill="rgb(0,0,0)" rx="2" ry="2" />
<text  x="402.00" y="97.5" >fire..</text>
</g>
<g >
<title>firedrake.interpolation.interpolate (1,160,474 us, 0.75%)</title><rect x="894.8" y="279" width="8.9" height="15.0" fill="rgb(0,0,0)" rx="2" ry="2" />
<text  x="897.82" y="289.5" ></text>
</g>
<g >
<title>pyop2.global_kernel.GlobalKernel.compile (2,115,448 us, 1.37%)</title><rect x="83.9" y="119" width="16.1" height="15.0" fill="rgb(0,0,0)" rx="2" ry="2" />
<text  x="86.86" y="129.5" ></text>
</g>
<g >
<title>CreateExtMesh (924,779 us, 0.60%)</title><rect x="18.1" y="71" width="7.1" height="15.0" fill="rgb(0,0,0)" rx="2" ry="2" />
<text  x="21.09" y="81.5" ></text>
</g>
<g >
<title>Parloop_ExtFacets_wrap_form0_exterior_facet_vert_integral_otherwise (1,923,614 us, 1.25%)</title><rect x="179.0" y="119" width="14.7" height="15.0" fill="rgb(0,0,0)" rx="2" ry="2" />
<text  x="181.98" y="129.5" ></text>
</g>
<g >
<title>Parloop_Cells_wrap_form0_exterior_facet_bottom_integral_otherwise (1,297,176 us, 0.84%)</title><rect x="147.6" y="119" width="9.9" height="15.0" fill="rgb(0,0,0)" rx="2" ry="2" />
<text  x="150.56" y="129.5" ></text>
</g>
<g >
<title>pyop2.global_kernel.GlobalKernel.compile (1,125,320 us, 0.73%)</title><rect x="894.8" y="343" width="8.6" height="15.0" fill="rgb(0,0,0)" rx="2" ry="2" />
<text  x="897.82" y="353.5" ></text>
</g>
<g >
<title>pyop2.global_kernel.GlobalKernel.compile (1,302,721 us, 0.84%)</title><rect x="56.5" y="119" width="10.0" height="15.0" fill="rgb(0,0,0)" rx="2" ry="2" />
<text  x="59.53" y="129.5" ></text>
</g>
<g >
<title>firedrake.interpolation.make_interpolator (24,873 us, 0.02%)</title><rect x="965.6" y="167" width="0.2" height="15.0" fill="rgb(0,0,0)" rx="2" ry="2" />
<text  x="968.61" y="177.5" ></text>
</g>
<g >
<title>Parloop_ExtFacets_wrap_form_exterior_facet_vert_integral_otherwise (2,273,680 us, 1.47%)</title><rect x="66.5" y="103" width="17.4" height="15.0" fill="rgb(0,0,0)" rx="2" ry="2" />
<text  x="69.49" y="113.5" ></text>
</g>
<g >
<title>pyop2.global_kernel.GlobalKernel.compile (5,350,905 us, 3.47%)</title><rect x="924.7" y="199" width="40.9" height="15.0" fill="rgb(0,0,0)" rx="2" ry="2" />
<text  x="927.72" y="209.5" >pyo..</text>
</g>
<g >
<title>firedrake.tsfc_interface.compile_form (2,477,173 us, 1.60%)</title><rect x="724.3" y="167" width="19.0" height="15.0" fill="rgb(0,0,0)" rx="2" ry="2" />
<text  x="727.32" y="177.5" ></text>
</g>
<g >
<title>firedrake.assemble.assemble (23,302,805 us, 15.09%)</title><rect x="211.3" y="103" width="178.1" height="15.0" fill="rgb(0,0,0)" rx="2" ry="2" />
<text  x="214.28" y="113.5" >firedrake.assemble.as..</text>
</g>
<g >
<title>pyop2.global_kernel.GlobalKernel.compile (1,344,205 us, 0.87%)</title><rect x="46.3" y="119" width="10.2" height="15.0" fill="rgb(0,0,0)" rx="2" ry="2" />
<text  x="49.26" y="129.5" ></text>
</g>
<g >
<title>pyop2.global_kernel.GlobalKernel.compile (2,203,789 us, 1.43%)</title><rect x="361.1" y="151" width="16.8" height="15.0" fill="rgb(0,0,0)" rx="2" ry="2" />
<text  x="364.11" y="161.5" ></text>
</g>
<g >
<title>RecoverFirstElim (18,436,976 us, 11.94%)</title><rect x="602.4" y="151" width="140.9" height="15.0" fill="rgb(0,0,0)" rx="2" ry="2" />
<text  x="605.36" y="161.5" >RecoverFirstElim</text>
</g>
<g >
<title>pyop2.global_kernel.GlobalKernel.compile (410,462 us, 0.27%)</title><rect x="102.9" y="151" width="3.1" height="15.0" fill="rgb(0,0,0)" rx="2" ry="2" />
<text  x="105.88" y="161.5" ></text>
</g>
<g >
<title>pyop2.global_kernel.GlobalKernel.compile (623,251 us, 0.40%)</title><rect x="879.8" y="311" width="4.8" height="15.0" fill="rgb(0,0,0)" rx="2" ry="2" />
<text  x="882.85" y="321.5" ></text>
</g>
<g >
<title>firedrake.projection.project (37,405,501 us, 24.22%)</title><rect x="113.1" y="87" width="285.9" height="15.0" fill="rgb(0,0,0)" rx="2" ry="2" />
<text  x="116.14" y="97.5" >firedrake.projection.project</text>
</g>
<g >
<title>firedrake.tsfc_interface.compile_form (1,110,685 us, 0.72%)</title><rect x="1181.5" y="119" width="8.5" height="15.0" fill="rgb(0,0,0)" rx="2" ry="2" />
<text  x="1184.51" y="129.5" ></text>
</g>
<g >
<title>Parloop_set_#x7f0ebf715210_wrap_pyop2_kernel_prolong (623,251 us, 0.40%)</title><rect x="879.8" y="295" width="4.8" height="15.0" fill="rgb(0,0,0)" rx="2" ry="2" />
<text  x="882.85" y="305.5" ></text>
</g>
<g >
<title>pyop2.caching.disk_cached.&lt;locals&gt;.decorator.&lt;locals&gt;.wrapper (18,732 us, 0.01%)</title><rect x="106.0" y="119" width="0.2" height="15.0" fill="rgb(0,0,0)" rx="2" ry="2" />
<text  x="109.01" y="129.5" ></text>
</g>
<g >
<title>DMCoarsen (2,475,611 us, 1.60%)</title><rect x="887.9" y="215" width="18.9" height="15.0" fill="rgb(0,0,0)" rx="2" ry="2" />
<text  x="890.88" y="225.5" ></text>
</g>
<g >
<title>firedrake.mg.interface.restrict (1,111,073 us, 0.72%)</title><rect x="906.8" y="231" width="8.5" height="15.0" fill="rgb(0,0,0)" rx="2" ry="2" />
<text  x="909.80" y="241.5" ></text>
</g>
<g >
<title>Parloop_set_#x7f0eb65acdc0_wrap_expression_kernel (372,572 us, 0.24%)</title><rect x="100.0" y="135" width="2.9" height="15.0" fill="rgb(0,0,0)" rx="2" ry="2" />
<text  x="103.03" y="145.5" ></text>
</g>
<g >
<title>pyop2.global_kernel.GlobalKernel.compile (693,887 us, 0.45%)</title><rect x="1129.1" y="183" width="5.3" height="15.0" fill="rgb(0,0,0)" rx="2" ry="2" />
<text  x="1132.09" y="193.5" ></text>
</g>
<g >
<title>ParLoopExecute (892,612 us, 0.58%)</title><rect x="18.3" y="103" width="6.9" height="15.0" fill="rgb(0,0,0)" rx="2" ry="2" />
<text  x="21.34" y="113.5" ></text>
</g>
<g >
<title>firedrake.assemble.allocate_matrix (19,368 us, 0.01%)</title><rect x="377.9" y="119" width="0.2" height="15.0" fill="rgb(0,0,0)" rx="2" ry="2" />
<text  x="380.95" y="129.5" ></text>
</g>
<g >
<title>ParLoopExecute (8,265,166 us, 5.35%)</title><rect x="36.9" y="87" width="63.1" height="15.0" fill="rgb(0,0,0)" rx="2" ry="2" />
<text  x="39.87" y="97.5" >ParLoo..</text>
</g>
<g >
<title>SNESFunctionEval (7,276,705 us, 4.71%)</title><rect x="1134.4" y="103" width="55.6" height="15.0" fill="rgb(0,0,0)" rx="2" ry="2" />
<text  x="1137.39" y="113.5" >SNESF..</text>
</g>
<g >
<title>pyop2.global_kernel.GlobalKernel.compile (11,798,168 us, 7.64%)</title><rect x="775.5" y="199" width="90.2" height="15.0" fill="rgb(0,0,0)" rx="2" ry="2" />
<text  x="778.54" y="209.5" >pyop2.glo..</text>
</g>
<g >
<title>firedrake.assemble.assemble (9,981,157 us, 6.46%)</title><rect x="36.9" y="71" width="76.2" height="15.0" fill="rgb(0,0,0)" rx="2" ry="2" />
<text  x="39.87" y="81.5" >firedra..</text>
</g>
<g >
<title>firedrake.tsfc_interface.compile_form (2,556,572 us, 1.66%)</title><rect x="1109.4" y="151" width="19.6" height="15.0" fill="rgb(0,0,0)" rx="2" ry="2" />
<text  x="1112.43" y="161.5" ></text>
</g>
<g >
<title>PCSetUp (6,955,307 us, 4.50%)</title><rect x="915.3" y="151" width="53.1" height="15.0" fill="rgb(0,0,0)" rx="2" ry="2" />
<text  x="918.29" y="161.5" >PCSe..</text>
</g>
<g >
<title>pyop2.global_kernel.GlobalKernel.compile (2,303,838 us, 1.49%)</title><rect x="193.7" y="135" width="17.6" height="15.0" fill="rgb(0,0,0)" rx="2" ry="2" />
<text  x="196.68" y="145.5" ></text>
</g>
<g >
<title>PCSetUp (21,714,749 us, 14.06%)</title><rect x="968.4" y="103" width="166.0" height="15.0" fill="rgb(0,0,0)" rx="2" ry="2" />
<text  x="971.45" y="113.5" >PCSetUp</text>
</g>
<g >
<title>CreateFunctionSpace (18,548 us, 0.01%)</title><rect x="25.2" y="71" width="0.1" height="15.0" fill="rgb(0,0,0)" rx="2" ry="2" />
<text  x="28.16" y="81.5" ></text>
</g>
<g >
<title>pyop2.global_kernel.GlobalKernel.compile (1,644,783 us, 1.07%)</title><rect x="306.9" y="151" width="12.5" height="15.0" fill="rgb(0,0,0)" rx="2" ry="2" />
<text  x="309.86" y="161.5" ></text>
</g>
<g >
<title>ParLoopExecute (16,617,456 us, 10.76%)</title><rect x="982.4" y="151" width="127.0" height="15.0" fill="rgb(0,0,0)" rx="2" ry="2" />
<text  x="985.44" y="161.5" >ParLoopExecute</text>
</g>
<g >
<title>Parloop_Cells_wrap_form0_cell_integral_otherwise (4,483,874 us, 2.90%)</title><rect x="113.3" y="119" width="34.3" height="15.0" fill="rgb(0,0,0)" rx="2" ry="2" />
<text  x="116.30" y="129.5" >Pa..</text>
</g>
<g >
<title>PCApply (1,329,472 us, 0.86%)</title><rect x="877.7" y="215" width="10.2" height="15.0" fill="rgb(0,0,0)" rx="2" ry="2" />
<text  x="880.72" y="225.5" ></text>
</g>
<g >
<title>Parloop_Cells_wrap_form0_cell_integral_otherwise (3,613,005 us, 2.34%)</title><rect x="451.4" y="167" width="27.6" height="15.0" fill="rgb(0,0,0)" rx="2" ry="2" />
<text  x="454.36" y="177.5" >P..</text>
</g>
<g >
<title>ParLoopExecute (684,329 us, 0.44%)</title><rect x="907.0" y="247" width="5.2" height="15.0" fill="rgb(0,0,0)" rx="2" ry="2" />
<text  x="909.96" y="257.5" ></text>
</g>
<g >
<title>ParLoopExecute (10,822,803 us, 7.01%)</title><rect x="519.6" y="151" width="82.8" height="15.0" fill="rgb(0,0,0)" rx="2" ry="2" />
<text  x="522.65" y="161.5" >ParLoopE..</text>
</g>
<g >
<title>Parloop_Cells_wrap_form00_cell_integral_otherwise (5,350,905 us, 3.47%)</title><rect x="924.7" y="183" width="40.9" height="15.0" fill="rgb(0,0,0)" rx="2" ry="2" />
<text  x="927.72" y="193.5" >Par..</text>
</g>
<g >
<title>Parloop_Cells_wrap_form00_exterior_facet_bottom_integral_otherwise (1,644,783 us, 1.07%)</title><rect x="306.9" y="135" width="12.5" height="15.0" fill="rgb(0,0,0)" rx="2" ry="2" />
<text  x="309.86" y="145.5" ></text>
</g>
<g >
<title>ParLoopExecute (6,584,662 us, 4.26%)</title><rect x="915.3" y="167" width="50.3" height="15.0" fill="rgb(0,0,0)" rx="2" ry="2" />
<text  x="918.29" y="177.5" >ParL..</text>
</g>
<g >
<title>Parloop_Cells_wrap_form0_exterior_facet_top_integral_otherwise (1,304,291 us, 0.84%)</title><rect x="157.5" y="119" width="9.9" height="15.0" fill="rgb(0,0,0)" rx="2" ry="2" />
<text  x="160.48" y="129.5" ></text>
</g>
<g >
<title>Parloop_Cells_wrap_form0_cell_integral_otherwise (3,317,742 us, 2.15%)</title><rect x="1134.4" y="135" width="25.3" height="15.0" fill="rgb(0,0,0)" rx="2" ry="2" />
<text  x="1137.39" y="145.5" >P..</text>
</g>
<g >
<title>PCSetUp (3,586,684 us, 2.32%)</title><rect x="887.9" y="183" width="27.4" height="15.0" fill="rgb(0,0,0)" rx="2" ry="2" />
<text  x="890.88" y="193.5" >P..</text>
</g>
<g >
<title>pyop2.global_kernel.GlobalKernel.compile (592,191 us, 0.38%)</title><rect x="890.3" y="311" width="4.5" height="15.0" fill="rgb(0,0,0)" rx="2" ry="2" />
<text  x="893.30" y="321.5" ></text>
</g>
<g >
<title>firedrake.function.Function.project (37,405,501 us, 24.22%)</title><rect x="113.1" y="71" width="285.9" height="15.0" fill="rgb(0,0,0)" rx="2" ry="2" />
<text  x="116.14" y="81.5" >firedrake.function.Function.project</text>
</g>
<g >
<title>Parloop_Cells_wrap_form1_cell_integral_otherwise (2,848,278 us, 1.84%)</title><rect x="1159.7" y="135" width="21.8" height="15.0" fill="rgb(0,0,0)" rx="2" ry="2" />
<text  x="1162.75" y="145.5" ></text>
</g>
<g >
<title>Parloop_IntFacets_wrap_form0_interior_facet_vert_integral_otherwise (2,303,838 us, 1.49%)</title><rect x="193.7" y="119" width="17.6" height="15.0" fill="rgb(0,0,0)" rx="2" ry="2" />
<text  x="196.68" y="129.5" ></text>
</g>
<g >
<title>HybridBreak (926,268 us, 0.60%)</title><rect x="757.5" y="151" width="7.1" height="15.0" fill="rgb(0,0,0)" rx="2" ry="2" />
<text  x="760.55" y="161.5" ></text>
</g>
<g >
<title>Parloop_Cells_wrap_expression_kernel (1,125,320 us, 0.73%)</title><rect x="894.8" y="327" width="8.6" height="15.0" fill="rgb(0,0,0)" rx="2" ry="2" />
<text  x="897.82" y="337.5" ></text>
</g>
<g >
<title>firedrake.interpolation.make_interpolator (35,154 us, 0.02%)</title><rect x="903.4" y="295" width="0.3" height="15.0" fill="rgb(0,0,0)" rx="2" ry="2" />
<text  x="906.42" y="305.5" ></text>
</g>
<g >
<title>Parloop_Cells_wrap_expression_kernel (1,233,757 us, 0.80%)</title><rect x="915.3" y="183" width="9.4" height="15.0" fill="rgb(0,0,0)" rx="2" ry="2" />
<text  x="918.29" y="193.5" ></text>
</g>
<g >
<title>MatMult (1,283,597 us, 0.83%)</title><rect x="877.9" y="231" width="9.8" height="15.0" fill="rgb(0,0,0)" rx="2" ry="2" />
<text  x="880.93" y="241.5" ></text>
</g>
<g >
<title>Parloop_IntFacets_wrap_form_interior_facet_vert_integral_otherwise (2,115,448 us, 1.37%)</title><rect x="83.9" y="103" width="16.1" height="15.0" fill="rgb(0,0,0)" rx="2" ry="2" />
<text  x="86.86" y="113.5" ></text>
</g>
<g >
<title>pyop2.global_kernel.GlobalKernel.compile (2,273,680 us, 1.47%)</title><rect x="66.5" y="119" width="17.4" height="15.0" fill="rgb(0,0,0)" rx="2" ry="2" />
<text  x="69.49" y="129.5" ></text>
</g>
<g >
<title>Parloop_Cells_wrap_pyop2_kernel_uniform_extrusion (892,612 us, 0.58%)</title><rect x="18.3" y="119" width="6.9" height="15.0" fill="rgb(0,0,0)" rx="2" ry="2" />
<text  x="21.34" y="129.5" ></text>
</g>
<g >
<title>firedrake.__init__ (1,513,112 us, 0.98%)</title><rect x="25.3" y="71" width="11.6" height="15.0" fill="rgb(0,0,0)" rx="2" ry="2" />
<text  x="28.30" y="81.5" ></text>
</g>
<g >
<title>firedrake.tsfc_interface.compile_form (875,625 us, 0.57%)</title><rect x="496.8" y="151" width="6.7" height="15.0" fill="rgb(0,0,0)" rx="2" ry="2" />
<text  x="499.79" y="161.5" ></text>
</g>
<g >
<title>PCApply (4,916,156 us, 3.18%)</title><rect x="877.7" y="167" width="37.6" height="15.0" fill="rgb(0,0,0)" rx="2" ry="2" />
<text  x="880.72" y="177.5" >PC..</text>
</g>
<g >
<title>ParLoopExecute (888,921 us, 0.58%)</title><rect x="512.9" y="183" width="6.7" height="15.0" fill="rgb(0,0,0)" rx="2" ry="2" />
<text  x="515.85" y="193.5" ></text>
</g>
<g >
<title>pyop2.global_kernel.GlobalKernel.compile (3,613,005 us, 2.34%)</title><rect x="451.4" y="183" width="27.6" height="15.0" fill="rgb(0,0,0)" rx="2" ry="2" />
<text  x="454.36" y="193.5" >p..</text>
</g>
<g >
<title>Parloop_Cells_wrap_form0_interior_facet_horiz_integral_otherwise (1,509,451 us, 0.98%)</title><rect x="167.4" y="119" width="11.6" height="15.0" fill="rgb(0,0,0)" rx="2" ry="2" />
<text  x="170.44" y="129.5" ></text>
</g>
<g >
<title>firedrake.tsfc_interface.compile_form (1,474,923 us, 0.96%)</title><rect x="378.1" y="119" width="11.3" height="15.0" fill="rgb(0,0,0)" rx="2" ry="2" />
<text  x="381.09" y="129.5" ></text>
</g>
<g >
<title>firedrake.extrusion_utils.make_extruded_coords (924,779 us, 0.60%)</title><rect x="18.1" y="87" width="7.1" height="15.0" fill="rgb(0,0,0)" rx="2" ry="2" />
<text  x="21.09" y="97.5" ></text>
</g>
<g >
<title>all (154,408,728 us, 100%)</title><rect x="10.0" y="39" width="1180.0" height="15.0" fill="rgb(0,0,0)" rx="2" ry="2" />
<text  x="13.00" y="49.5" ></text>
</g>
<g >
<title>firedrake.tsfc_interface.compile_form (1,572,853 us, 1.02%)</title><rect x="865.7" y="167" width="12.0" height="15.0" fill="rgb(0,0,0)" rx="2" ry="2" />
<text  x="868.70" y="177.5" ></text>
</g>
<g >
<title>SCBackSub (33,245,313 us, 21.53%)</title><rect x="503.5" y="135" width="254.0" height="15.0" fill="rgb(0,0,0)" rx="2" ry="2" />
<text  x="506.49" y="145.5" >SCBackSub</text>
</g>
<g >
<title>firedrake.assemble_expressions.assemble_expression (801,766 us, 0.52%)</title><rect x="100.0" y="87" width="6.2" height="15.0" fill="rgb(0,0,0)" rx="2" ry="2" />
<text  x="103.03" y="97.5" ></text>
</g>
<g >
<title>pyop2.global_kernel.GlobalKernel.compile (2,116,786 us, 1.37%)</title><rect x="344.9" y="151" width="16.2" height="15.0" fill="rgb(0,0,0)" rx="2" ry="2" />
<text  x="347.93" y="161.5" ></text>
</g>
<g >
<title>HybridRHS (14,799,196 us, 9.58%)</title><rect x="764.6" y="151" width="113.1" height="15.0" fill="rgb(0,0,0)" rx="2" ry="2" />
<text  x="767.63" y="161.5" >HybridRHS</text>
</g>
<g >
<title>KSPSolve (4,916,156 us, 3.18%)</title><rect x="877.7" y="151" width="37.6" height="15.0" fill="rgb(0,0,0)" rx="2" ry="2" />
<text  x="880.72" y="161.5" >KS..</text>
</g>
<g >
<title>Parloop_Cells_wrap_form_exterior_facet_bottom_integral_otherwise (1,229,112 us, 0.80%)</title><rect x="36.9" y="103" width="9.4" height="15.0" fill="rgb(0,0,0)" rx="2" ry="2" />
<text  x="39.87" y="113.5" ></text>
</g>
<g >
<title>firedrake.mg.embedded.TransferManager.op (1,283,597 us, 0.83%)</title><rect x="877.9" y="247" width="9.8" height="15.0" fill="rgb(0,0,0)" rx="2" ry="2" />
<text  x="880.93" y="257.5" ></text>
</g>
<g >
<title>ParLoopExecute (926,268 us, 0.60%)</title><rect x="757.5" y="183" width="7.1" height="15.0" fill="rgb(0,0,0)" rx="2" ry="2" />
<text  x="760.55" y="193.5" ></text>
</g>
<g >
<title>HybridProject (888,921 us, 0.58%)</title><rect x="512.9" y="151" width="6.7" height="15.0" fill="rgb(0,0,0)" rx="2" ry="2" />
<text  x="515.85" y="161.5" ></text>
</g>
<g >
<title>KSPSolve (1,329,472 us, 0.86%)</title><rect x="877.7" y="199" width="10.2" height="15.0" fill="rgb(0,0,0)" rx="2" ry="2" />
<text  x="880.72" y="209.5" ></text>
</g>
<g >
<title>Parloop_Cells_wrap_form00_exterior_facet_top_integral_otherwise (1,649,331 us, 1.07%)</title><rect x="319.4" y="135" width="12.6" height="15.0" fill="rgb(0,0,0)" rx="2" ry="2" />
<text  x="322.43" y="145.5" ></text>
</g>
<g >
<title>pyop2.global_kernel.GlobalKernel.compile (1,297,176 us, 0.84%)</title><rect x="147.6" y="135" width="9.9" height="15.0" fill="rgb(0,0,0)" rx="2" ry="2" />
<text  x="150.56" y="145.5" ></text>
</g>
<g >
<title>pyop2.global_kernel.GlobalKernel.compile (14,148,485 us, 9.16%)</title><rect x="616.2" y="199" width="108.1" height="15.0" fill="rgb(0,0,0)" rx="2" ry="2" />
<text  x="619.20" y="209.5" >pyop2.global..</text>
</g>
<g >
<title>Parloop_Cells_wrap_form_interior_facet_horiz_integral_otherwise (1,302,721 us, 0.84%)</title><rect x="56.5" y="103" width="10.0" height="15.0" fill="rgb(0,0,0)" rx="2" ry="2" />
<text  x="59.53" y="113.5" ></text>
</g>
<g >
<title>pyop2.global_kernel.GlobalKernel.compile (12,505,916 us, 8.10%)</title><rect x="211.3" y="151" width="95.6" height="15.0" fill="rgb(0,0,0)" rx="2" ry="2" />
<text  x="214.28" y="161.5" >pyop2.glob..</text>
</g>
<g >
<title>firedrake.pointquery_utils.to_reference_coordinates (409,348 us, 0.27%)</title><rect x="884.6" y="279" width="3.1" height="15.0" fill="rgb(0,0,0)" rx="2" ry="2" />
<text  x="887.61" y="289.5" ></text>
</g>
<g >
<title>ParLoopExecute (6,166,020 us, 3.99%)</title><rect x="1134.4" y="119" width="47.1" height="15.0" fill="rgb(0,0,0)" rx="2" ry="2" />
<text  x="1137.39" y="129.5" >ParL..</text>
</g>
<g >
<title>ParLoopExecute (783,034 us, 0.51%)</title><rect x="100.0" y="119" width="6.0" height="15.0" fill="rgb(0,0,0)" rx="2" ry="2" />
<text  x="103.03" y="129.5" ></text>
</g>
<g >
<title>Parloop_set_#x7f0ebf715210_wrap_pyop2_kernel_inject (592,191 us, 0.38%)</title><rect x="890.3" y="295" width="4.5" height="15.0" fill="rgb(0,0,0)" rx="2" ry="2" />
<text  x="893.30" y="305.5" ></text>
</g>
<g >
<title>firedrake.tsfc_interface.compile_form (1,196,323 us, 0.77%)</title><rect x="442.1" y="119" width="9.1" height="15.0" fill="rgb(0,0,0)" rx="2" ry="2" />
<text  x="445.07" y="129.5" ></text>
</g>
<g >
<title>pyop2.global_kernel.GlobalKernel.compile (2,848,278 us, 1.84%)</title><rect x="1159.7" y="151" width="21.8" height="15.0" fill="rgb(0,0,0)" rx="2" ry="2" />
<text  x="1162.75" y="161.5" ></text>
</g>
<g >
<title>firedrake (154,408,728 us, 100.00%)</title><rect x="10.0" y="55" width="1180.0" height="15.0" fill="rgb(0,0,0)" rx="2" ry="2" />
<text  x="13.00" y="65.5" >firedrake</text>
</g>
<g >
<title>pyop2.global_kernel.GlobalKernel.compile (1,229,112 us, 0.80%)</title><rect x="36.9" y="119" width="9.4" height="15.0" fill="rgb(0,0,0)" rx="2" ry="2" />
<text  x="39.87" y="129.5" ></text>
</g>
<g >
<title>ParLoopExecute (592,191 us, 0.38%)</title><rect x="890.3" y="279" width="4.5" height="15.0" fill="rgb(0,0,0)" rx="2" ry="2" />
<text  x="893.30" y="289.5" ></text>
</g>
<g >
<title>Parloop_Cells_wrap_wrap_slate_loopy_knl_4 (11,798,168 us, 7.64%)</title><rect x="775.5" y="183" width="90.2" height="15.0" fill="rgb(0,0,0)" rx="2" ry="2" />
<text  x="778.54" y="193.5" >Parloop_C..</text>
</g>
<g >
<title>firedrake.tsfc_interface.compile_form (1,870,759 us, 1.21%)</title><rect x="743.3" y="151" width="14.2" height="15.0" fill="rgb(0,0,0)" rx="2" ry="2" />
<text  x="746.25" y="161.5" ></text>
</g>
<g >
<title>firedrake.tsfc_interface.compile_form (914,225 us, 0.59%)</title><rect x="106.2" y="87" width="6.9" height="15.0" fill="rgb(0,0,0)" rx="2" ry="2" />
<text  x="109.16" y="97.5" ></text>
</g>
<g >
<title>firedrake.mg.embedded.TransferManager.op (2,456,487 us, 1.59%)</title><rect x="888.0" y="247" width="18.8" height="15.0" fill="rgb(0,0,0)" rx="2" ry="2" />
<text  x="891.03" y="257.5" ></text>
</g>
<g >
<title>Parloop_Cells_wrap_par_loop_kernel (693,887 us, 0.45%)</title><rect x="1129.1" y="167" width="5.3" height="15.0" fill="rgb(0,0,0)" rx="2" ry="2" />
<text  x="1132.09" y="177.5" ></text>
</g>
<g >
<title>ParLoopExecute (14,148,485 us, 9.16%)</title><rect x="616.2" y="167" width="108.1" height="15.0" fill="rgb(0,0,0)" rx="2" ry="2" />
<text  x="619.20" y="177.5" >ParLoopExecute</text>
</g>
<g >
<title>SNESSolve (96,654,836 us, 62.60%)</title><rect x="451.4" y="87" width="738.6" height="15.0" fill="rgb(0,0,0)" rx="2" ry="2" />
<text  x="454.36" y="97.5" >SNESSolve</text>
</g>
<g >
<title>pyop2.global_kernel.GlobalKernel.compile (684,329 us, 0.44%)</title><rect x="907.0" y="279" width="5.2" height="15.0" fill="rgb(0,0,0)" rx="2" ry="2" />
<text  x="909.96" y="289.5" ></text>
</g>
<g >
<title>pyop2.global_kernel.GlobalKernel.compile (10,822,803 us, 7.01%)</title><rect x="519.6" y="183" width="82.8" height="15.0" fill="rgb(0,0,0)" rx="2" ry="2" />
<text  x="522.65" y="193.5" >pyop2.gl..</text>
</g>
<g >
<title>Parloop_set_#x7f0eb6602920_wrap_expression_kernel (410,462 us, 0.27%)</title><rect x="102.9" y="135" width="3.1" height="15.0" fill="rgb(0,0,0)" rx="2" ry="2" />
<text  x="105.88" y="145.5" ></text>
</g>
<g >
<title>firedrake.functionspaceimpl.FunctionSpace.__init__ (18,548 us, 0.01%)</title><rect x="25.2" y="87" width="0.1" height="15.0" fill="rgb(0,0,0)" rx="2" ry="2" />
<text  x="28.16" y="97.5" ></text>
</g>
<g >
<title>PCSetUp (3,586,684 us, 2.32%)</title><rect x="887.9" y="199" width="27.4" height="15.0" fill="rgb(0,0,0)" rx="2" ry="2" />
<text  x="890.88" y="209.5" >P..</text>
</g>
<g >
<title>firedrake.assemble_expressions.evaluate_expression (801,766 us, 0.52%)</title><rect x="100.0" y="103" width="6.2" height="15.0" fill="rgb(0,0,0)" rx="2" ry="2" />
<text  x="103.03" y="113.5" ></text>
</g>
<g >
<title>Parloop_Cells_wrap_par_loop_kernel (926,268 us, 0.60%)</title><rect x="757.5" y="199" width="7.1" height="15.0" fill="rgb(0,0,0)" rx="2" ry="2" />
<text  x="760.55" y="209.5" ></text>
</g>
<g >
<title>pyop2.global_kernel.GlobalKernel.compile (888,921 us, 0.58%)</title><rect x="512.9" y="215" width="6.7" height="15.0" fill="rgb(0,0,0)" rx="2" ry="2" />
<text  x="515.85" y="225.5" ></text>
</g>
<g >
<title>pyop2.global_kernel.GlobalKernel.compile (2,332,512 us, 1.51%)</title><rect x="479.0" y="183" width="17.8" height="15.0" fill="rgb(0,0,0)" rx="2" ry="2" />
<text  x="481.97" y="193.5" ></text>
</g>
<g >
<title>pyop2.global_kernel.GlobalKernel.compile (4,483,874 us, 2.90%)</title><rect x="113.3" y="135" width="34.3" height="15.0" fill="rgb(0,0,0)" rx="2" ry="2" />
<text  x="116.30" y="145.5" >py..</text>
</g>
<g >
<title>PCApply (60,842,240 us, 39.40%)</title><rect x="503.5" y="119" width="464.9" height="15.0" fill="rgb(0,0,0)" rx="2" ry="2" />
<text  x="506.49" y="129.5" >PCApply</text>
</g>
<g >
<title>Parloop_Cells_wrap_form00_cell_integral_otherwise (12,505,916 us, 8.10%)</title><rect x="211.3" y="135" width="95.6" height="15.0" fill="rgb(0,0,0)" rx="2" ry="2" />
<text  x="214.28" y="145.5" >Parloop_Ce..</text>
</g>
<g >
<title>pyop2.global_kernel.GlobalKernel.compile (372,572 us, 0.24%)</title><rect x="100.0" y="151" width="2.9" height="15.0" fill="rgb(0,0,0)" rx="2" ry="2" />
<text  x="103.03" y="161.5" ></text>
</g>
<g >
<title>firedrake.interpolation.Interpolator.interpolate (1,125,320 us, 0.73%)</title><rect x="894.8" y="295" width="8.6" height="15.0" fill="rgb(0,0,0)" rx="2" ry="2" />
<text  x="897.82" y="305.5" ></text>
</g>
<g >
<title>SCForwardElim (15,725,464 us, 10.18%)</title><rect x="757.5" y="135" width="120.2" height="15.0" fill="rgb(0,0,0)" rx="2" ry="2" />
<text  x="760.55" y="145.5" >SCForwardElim</text>
</g>
<g >
<title>pyop2.global_kernel.GlobalKernel.compile (1,233,757 us, 0.80%)</title><rect x="915.3" y="199" width="9.4" height="15.0" fill="rgb(0,0,0)" rx="2" ry="2" />
<text  x="918.29" y="209.5" ></text>
</g>
<g >
<title>Parloop_IntFacets_wrap_form00_interior_facet_vert_integral_otherwise (2,203,789 us, 1.43%)</title><rect x="361.1" y="135" width="16.8" height="15.0" fill="rgb(0,0,0)" rx="2" ry="2" />
<text  x="364.11" y="145.5" ></text>
</g>
<g >
<title>ParLoopExecute (5,635,774 us, 3.65%)</title><rect x="399.0" y="119" width="43.1" height="15.0" fill="rgb(0,0,0)" rx="2" ry="2" />
<text  x="402.00" y="129.5" >Par..</text>
</g>
<g >
<title>SCSolve (11,871,463 us, 7.69%)</title><rect x="877.7" y="135" width="90.7" height="15.0" fill="rgb(0,0,0)" rx="2" ry="2" />
<text  x="880.72" y="145.5" >SCSolve</text>
</g>
<g >
<title>pyop2.global_kernel.GlobalKernel.compile (1,687,909 us, 1.09%)</title><rect x="332.0" y="151" width="12.9" height="15.0" fill="rgb(0,0,0)" rx="2" ry="2" />
<text  x="335.03" y="161.5" ></text>
</g>
<g >
<title>Parloop_set_#x7f0ebf74cfd0_wrap_pyop2_kernel_restrict (684,329 us, 0.44%)</title><rect x="907.0" y="263" width="5.2" height="15.0" fill="rgb(0,0,0)" rx="2" ry="2" />
<text  x="909.96" y="273.5" ></text>
</g>
<g >
<title>MatMultTranspose (18,656 us, 0.01%)</title><rect x="887.7" y="231" width="0.2" height="15.0" fill="rgb(0,0,0)" rx="2" ry="2" />
<text  x="890.74" y="241.5" ></text>
</g>
<g >
<title>firedrake.pointquery_utils.to_reference_coordinates (406,133 us, 0.26%)</title><rect x="912.2" y="247" width="3.1" height="15.0" fill="rgb(0,0,0)" rx="2" ry="2" />
<text  x="915.19" y="257.5" ></text>
</g>
<g >
<title>Parloop_Cells_wrap_form1_cell_integral_otherwise (2,332,512 us, 1.51%)</title><rect x="479.0" y="167" width="17.8" height="15.0" fill="rgb(0,0,0)" rx="2" ry="2" />
<text  x="481.97" y="177.5" ></text>
</g>
<g >
<title>pyop2.global_kernel.GlobalKernel.compile (892,612 us, 0.58%)</title><rect x="18.3" y="135" width="6.9" height="15.0" fill="rgb(0,0,0)" rx="2" ry="2" />
<text  x="21.34" y="145.5" ></text>
</g>
<g >
<title>pyop2.global_kernel.GlobalKernel.compile (5,635,774 us, 3.65%)</title><rect x="399.0" y="151" width="43.1" height="15.0" fill="rgb(0,0,0)" rx="2" ry="2" />
<text  x="402.00" y="161.5" >pyo..</text>
</g>
<g >
<title>firedrake.norms.errornorm (6,832,097 us, 4.42%)</title><rect x="399.0" y="71" width="52.2" height="15.0" fill="rgb(0,0,0)" rx="2" ry="2" />
<text  x="402.00" y="81.5" >fire..</text>
</g>
<g >
<title>Parloop_Cells_wrap_par_loop_kernel (888,921 us, 0.58%)</title><rect x="512.9" y="199" width="6.7" height="15.0" fill="rgb(0,0,0)" rx="2" ry="2" />
<text  x="515.85" y="209.5" ></text>
</g>
<g >
<title>PCApply (1,329,472 us, 0.86%)</title><rect x="877.7" y="183" width="10.2" height="15.0" fill="rgb(0,0,0)" rx="2" ry="2" />
<text  x="880.72" y="193.5" ></text>
</g>
<g >
<title>ParLoopExecute (12,822,244 us, 8.30%)</title><rect x="113.3" y="103" width="98.0" height="15.0" fill="rgb(0,0,0)" rx="2" ry="2" />
<text  x="116.30" y="113.5" >ParLoopExe..</text>
</g>
<g >
<title>pyop2.global_kernel.GlobalKernel.compile (1,649,331 us, 1.07%)</title><rect x="319.4" y="151" width="12.6" height="15.0" fill="rgb(0,0,0)" rx="2" ry="2" />
<text  x="322.43" y="161.5" ></text>
</g>
<g >
<title>pyop2.global_kernel.GlobalKernel.compile (16,617,456 us, 10.76%)</title><rect x="982.4" y="183" width="127.0" height="15.0" fill="rgb(0,0,0)" rx="2" ry="2" />
<text  x="985.44" y="193.5" >pyop2.global_k..</text>
</g>
<g >
<title>firedrake.mg.interface.prolong (1,283,597 us, 0.83%)</title><rect x="877.9" y="263" width="9.8" height="15.0" fill="rgb(0,0,0)" rx="2" ry="2" />
<text  x="880.93" y="273.5" ></text>
</g>
<g >
<title>firedrake.formmanipulation.split_form (15,833 us, 0.01%)</title><rect x="1129.0" y="135" width="0.1" height="15.0" fill="rgb(0,0,0)" rx="2" ry="2" />
<text  x="1131.97" y="145.5" ></text>
</g>
<g >
<title>pyop2.global_kernel.GlobalKernel.compile (1,304,291 us, 0.84%)</title><rect x="157.5" y="135" width="9.9" height="15.0" fill="rgb(0,0,0)" rx="2" ry="2" />
<text  x="160.48" y="145.5" ></text>
</g>
<g >
<title>ParLoopExecute (5,945,517 us, 3.85%)</title><rect x="451.4" y="151" width="45.4" height="15.0" fill="rgb(0,0,0)" rx="2" ry="2" />
<text  x="454.36" y="161.5" >Par..</text>
</g>
<g >
<title>firedrake.tsfc_interface.compile_form (1,260,175 us, 0.82%)</title><rect x="389.4" y="103" width="9.6" height="15.0" fill="rgb(0,0,0)" rx="2" ry="2" />
<text  x="392.37" y="113.5" ></text>
</g>
<g >
<title>Parloop_ExtFacets_wrap_form00_exterior_facet_vert_integral_otherwise (2,116,786 us, 1.37%)</title><rect x="344.9" y="135" width="16.2" height="15.0" fill="rgb(0,0,0)" rx="2" ry="2" />
<text  x="347.93" y="145.5" ></text>
</g>
<g >
<title>Parloop_Cells_wrap_form00_interior_facet_horiz_integral_otherwise (1,687,909 us, 1.09%)</title><rect x="332.0" y="135" width="12.9" height="15.0" fill="rgb(0,0,0)" rx="2" ry="2" />
<text  x="335.03" y="145.5" ></text>
</g>
<g >
<title>pyop2.global_kernel.GlobalKernel.compile (1,923,614 us, 1.25%)</title><rect x="179.0" y="135" width="14.7" height="15.0" fill="rgb(0,0,0)" rx="2" ry="2" />
<text  x="181.98" y="145.5" ></text>
</g>
<g >
<title>pyop2.global_kernel.GlobalKernel.compile (926,268 us, 0.60%)</title><rect x="757.5" y="215" width="7.1" height="15.0" fill="rgb(0,0,0)" rx="2" ry="2" />
<text  x="760.55" y="225.5" ></text>
</g>
<g >
<title>Parloop_Cells_wrap_form_cell_integral_otherwise (5,635,774 us, 3.65%)</title><rect x="399.0" y="135" width="43.1" height="15.0" fill="rgb(0,0,0)" rx="2" ry="2" />
<text  x="402.00" y="145.5" >Par..</text>
</g>
<g >
<title>HybridOperatorAssembly (20,953,819 us, 13.57%)</title><rect x="968.8" y="135" width="160.2" height="15.0" fill="rgb(0,0,0)" rx="2" ry="2" />
<text  x="971.84" y="145.5" >HybridOperatorAsse..</text>
</g>
<g >
<title>firedrake.parloops.par_loop (888,921 us, 0.58%)</title><rect x="512.9" y="167" width="6.7" height="15.0" fill="rgb(0,0,0)" rx="2" ry="2" />
<text  x="515.85" y="177.5" ></text>
</g>
<g >
<title>firedrake.assemble.assemble (6,832,097 us, 4.42%)</title><rect x="399.0" y="103" width="52.2" height="15.0" fill="rgb(0,0,0)" rx="2" ry="2" />
<text  x="402.00" y="113.5" >fire..</text>
</g>
<g >
<title>Parloop_Cells_wrap_wrap_slate_loopy_knl_0 (16,617,456 us, 10.76%)</title><rect x="982.4" y="167" width="127.0" height="15.0" fill="rgb(0,0,0)" rx="2" ry="2" />
<text  x="985.44" y="177.5" >Parloop_Cells_..</text>
</g>
<g >
<title>firedrake.mg.interface.restrict (18,656 us, 0.01%)</title><rect x="887.7" y="247" width="0.2" height="15.0" fill="rgb(0,0,0)" rx="2" ry="2" />
<text  x="890.74" y="257.5" ></text>
</g>
<g >
<title>firedrake.dmhooks.coarsen (2,475,611 us, 1.60%)</title><rect x="887.9" y="231" width="18.9" height="15.0" fill="rgb(0,0,0)" rx="2" ry="2" />
<text  x="890.88" y="241.5" ></text>
</g>
<g >
<title>Parloop_Cells_wrap_form_exterior_facet_top_integral_otherwise (1,344,205 us, 0.87%)</title><rect x="46.3" y="103" width="10.2" height="15.0" fill="rgb(0,0,0)" rx="2" ry="2" />
<text  x="49.26" y="113.5" ></text>
</g>
<g >
<title>Parloop_Cells_wrap_wrap_slate_loopy_knl_7 (14,148,485 us, 9.16%)</title><rect x="616.2" y="183" width="108.1" height="15.0" fill="rgb(0,0,0)" rx="2" ry="2" />
<text  x="619.20" y="193.5" >Parloop_Cell..</text>
</g>
<g >
<title>ParLoopExecute (693,887 us, 0.45%)</title><rect x="1129.1" y="151" width="5.3" height="15.0" fill="rgb(0,0,0)" rx="2" ry="2" />
<text  x="1132.09" y="161.5" ></text>
</g>
<g >
<title>pyop2.global_kernel.GlobalKernel.compile (1,509,451 us, 0.98%)</title><rect x="167.4" y="135" width="11.6" height="15.0" fill="rgb(0,0,0)" rx="2" ry="2" />
<text  x="170.44" y="145.5" ></text>
</g>
<g >
<title>pyop2.global_kernel.GlobalKernel.compile (3,317,742 us, 2.15%)</title><rect x="1134.4" y="151" width="25.3" height="15.0" fill="rgb(0,0,0)" rx="2" ry="2" />
<text  x="1137.39" y="161.5" >p..</text>
</g>
<g >
<title>ParLoopExecute (623,251 us, 0.40%)</title><rect x="879.8" y="279" width="4.8" height="15.0" fill="rgb(0,0,0)" rx="2" ry="2" />
<text  x="882.85" y="289.5" ></text>
</g>
<g >
<title>firedrake.matrix_free.operators.ImplicitMatrixContext.mult (6,821,142 us, 4.42%)</title><rect x="451.4" y="135" width="52.1" height="15.0" fill="rgb(0,0,0)" rx="2" ry="2" />
<text  x="454.36" y="145.5" >fire..</text>
</g>
<g >
<title>firedrake.parloops.par_loop (926,268 us, 0.60%)</title><rect x="757.5" y="167" width="7.1" height="15.0" fill="rgb(0,0,0)" rx="2" ry="2" />
<text  x="760.55" y="177.5" ></text>
</g>
<g >
<title>firedrake.mg.interface.inject (2,456,487 us, 1.59%)</title><rect x="888.0" y="263" width="18.8" height="15.0" fill="rgb(0,0,0)" rx="2" ry="2" />
<text  x="891.03" y="273.5" ></text>
</g>
<g >
<title>firedrake.parloops.par_loop (693,887 us, 0.45%)</title><rect x="1129.1" y="135" width="5.3" height="15.0" fill="rgb(0,0,0)" rx="2" ry="2" />
<text  x="1132.09" y="145.5" ></text>
</g>
</g>
</svg>
