<?xml version="1.0" standalone="no"?>
<!DOCTYPE svg PUBLIC "-//W3C//DTD SVG 1.1//EN" "http://www.w3.org/Graphics/SVG/1.1/DTD/svg11.dtd">
<svg version="1.1" width="1200" height="379" onload="init(evt)" viewBox="0 0 1200 379" xmlns="http://www.w3.org/2000/svg" xmlns:xlink="http://www.w3.org/1999/xlink">
<!-- Flame graph stack visualization. See https://github.com/brendangregg/FlameGraph for latest version, and http://www.brendangregg.com/flamegraphs.html for examples. -->
<!-- NOTES:  -->
<defs>
	<linearGradient id="background" y1="0" y2="1" x1="0" x2="0" >
		<stop stop-color="#eeeeee" offset="5%" />
		<stop stop-color="#eeeeb0" offset="95%" />
	</linearGradient>
</defs>
<style type="text/css">
	text { font-family:Verdana; font-size:13px; fill:rgb(0,0,0); }
	#search, #ignorecase { opacity:0.1; cursor:pointer; }
	#search:hover, #search.show, #ignorecase:hover, #ignorecase.show { opacity:1; }
	#subtitle { text-anchor:middle; font-color:rgb(160,160,160); }
	#title { text-anchor:middle; font-size:18px}
	#unzoom { cursor:pointer; }
	#frames > *:hover { stroke:black; stroke-width:0.5; cursor:pointer; }
	.hide { display:none; }
	.parent { opacity:0.5; }
</style>
<script type="text/ecmascript">
<![CDATA[
	"use strict";
	var details, searchbtn, unzoombtn, matchedtxt, svg, searching, currentSearchTerm, ignorecase, ignorecaseBtn;
	function init(evt) {
		details = document.getElementById("details").firstChild;
		searchbtn = document.getElementById("search");
		ignorecaseBtn = document.getElementById("ignorecase");
		unzoombtn = document.getElementById("unzoom");
		matchedtxt = document.getElementById("matched");
		svg = document.getElementsByTagName("svg")[0];
		searching = 0;
		currentSearchTerm = null;

		// use GET parameters to restore a flamegraphs state.
		var params = get_params();
		if (params.x && params.y)
			zoom(find_group(document.querySelector('[x="' + params.x + '"][y="' + params.y + '"]')));
                if (params.s) search(params.s);
	}

	// event listeners
	window.addEventListener("click", function(e) {
		var target = find_group(e.target);
		if (target) {
			if (target.nodeName == "a") {
				if (e.ctrlKey === false) return;
				e.preventDefault();
			}
			if (target.classList.contains("parent")) unzoom();
			zoom(target);
			if (!document.querySelector('.parent')) {
				clearzoom();
				return;
			}

			// set parameters for zoom state
			var el = target.querySelector("rect");
			if (el && el.attributes && el.attributes.y && el.attributes._orig_x) {
				var params = get_params()
				params.x = el.attributes._orig_x.value;
				params.y = el.attributes.y.value;
				history.replaceState(null, null, parse_params(params));
			}
		}
		else if (e.target.id == "unzoom") clearzoom();
		else if (e.target.id == "search") search_prompt();
		else if (e.target.id == "ignorecase") toggle_ignorecase();
	}, false)

	// mouse-over for info
	// show
	window.addEventListener("mouseover", function(e) {
		var target = find_group(e.target);
		if (target) details.nodeValue = "Function: " + g_to_text(target);
	}, false)

	// clear
	window.addEventListener("mouseout", function(e) {
		var target = find_group(e.target);
		if (target) details.nodeValue = ' ';
	}, false)

	// ctrl-F for search
	// ctrl-I to toggle case-sensitive search
	window.addEventListener("keydown",function (e) {
		if (e.keyCode === 114 || (e.ctrlKey && e.keyCode === 70)) {
			e.preventDefault();
			search_prompt();
		}
		else if (e.ctrlKey && e.keyCode === 73) {
			e.preventDefault();
			toggle_ignorecase();
		}
	}, false)

	// functions
	function get_params() {
		var params = {};
		var paramsarr = window.location.search.substr(1).split('&');
		for (var i = 0; i < paramsarr.length; ++i) {
			var tmp = paramsarr[i].split("=");
			if (!tmp[0] || !tmp[1]) continue;
			params[tmp[0]]  = decodeURIComponent(tmp[1]);
		}
		return params;
	}
	function parse_params(params) {
		var uri = "?";
		for (var key in params) {
			uri += key + '=' + encodeURIComponent(params[key]) + '&';
		}
		if (uri.slice(-1) == "&")
			uri = uri.substring(0, uri.length - 1);
		if (uri == '?')
			uri = window.location.href.split('?')[0];
		return uri;
	}
	function find_child(node, selector) {
		var children = node.querySelectorAll(selector);
		if (children.length) return children[0];
	}
	function find_group(node) {
		var parent = node.parentElement;
		if (!parent) return;
		if (parent.id == "frames") return node;
		return find_group(parent);
	}
	function orig_save(e, attr, val) {
		if (e.attributes["_orig_" + attr] != undefined) return;
		if (e.attributes[attr] == undefined) return;
		if (val == undefined) val = e.attributes[attr].value;
		e.setAttribute("_orig_" + attr, val);
	}
	function orig_load(e, attr) {
		if (e.attributes["_orig_"+attr] == undefined) return;
		e.attributes[attr].value = e.attributes["_orig_" + attr].value;
		e.removeAttribute("_orig_"+attr);
	}
	function g_to_text(e) {
		var text = find_child(e, "title").firstChild.nodeValue;
		return (text)
	}
	function g_to_func(e) {
		var func = g_to_text(e);
		// if there's any manipulation we want to do to the function
		// name before it's searched, do it here before returning.
		return (func);
	}
	function update_text(e) {
		var r = find_child(e, "rect");
		var t = find_child(e, "text");
		var w = parseFloat(r.attributes.width.value) -3;
		var txt = find_child(e, "title").textContent.replace(/\([^(]*\)$/,"");
		t.attributes.x.value = parseFloat(r.attributes.x.value) + 3;

		// Smaller than this size won't fit anything
		if (w < 2 * 13 * 0.59) {
			t.textContent = "";
			return;
		}

		t.textContent = txt;
		// Fit in full text width
		if (/^ *$/.test(txt) || t.getSubStringLength(0, txt.length) < w)
			return;

		for (var x = txt.length - 2; x > 0; x--) {
			if (t.getSubStringLength(0, x + 2) <= w) {
				t.textContent = txt.substring(0, x) + "..";
				return;
			}
		}
		t.textContent = "";
	}

	// zoom
	function zoom_reset(e) {
		if (e.attributes != undefined) {
			orig_load(e, "x");
			orig_load(e, "width");
		}
		if (e.childNodes == undefined) return;
		for (var i = 0, c = e.childNodes; i < c.length; i++) {
			zoom_reset(c[i]);
		}
	}
	function zoom_child(e, x, ratio) {
		if (e.attributes != undefined) {
			if (e.attributes.x != undefined) {
				orig_save(e, "x");
				e.attributes.x.value = (parseFloat(e.attributes.x.value) - x - 10) * ratio + 10;
				if (e.tagName == "text")
					e.attributes.x.value = find_child(e.parentNode, "rect[x]").attributes.x.value + 3;
			}
			if (e.attributes.width != undefined) {
				orig_save(e, "width");
				e.attributes.width.value = parseFloat(e.attributes.width.value) * ratio;
			}
		}

		if (e.childNodes == undefined) return;
		for (var i = 0, c = e.childNodes; i < c.length; i++) {
			zoom_child(c[i], x - 10, ratio);
		}
	}
	function zoom_parent(e) {
		if (e.attributes) {
			if (e.attributes.x != undefined) {
				orig_save(e, "x");
				e.attributes.x.value = 10;
			}
			if (e.attributes.width != undefined) {
				orig_save(e, "width");
				e.attributes.width.value = parseInt(svg.width.baseVal.value) - (10 * 2);
			}
		}
		if (e.childNodes == undefined) return;
		for (var i = 0, c = e.childNodes; i < c.length; i++) {
			zoom_parent(c[i]);
		}
	}
	function zoom(node) {
		var attr = find_child(node, "rect").attributes;
		var width = parseFloat(attr.width.value);
		var xmin = parseFloat(attr.x.value);
		var xmax = parseFloat(xmin + width);
		var ymin = parseFloat(attr.y.value);
		var ratio = (svg.width.baseVal.value - 2 * 10) / width;

		// XXX: Workaround for JavaScript float issues (fix me)
		var fudge = 0.0001;

		unzoombtn.classList.remove("hide");

		var el = document.getElementById("frames").children;
		for (var i = 0; i < el.length; i++) {
			var e = el[i];
			var a = find_child(e, "rect").attributes;
			var ex = parseFloat(a.x.value);
			var ew = parseFloat(a.width.value);
			var upstack;
			// Is it an ancestor
			if (1 == 0) {
				upstack = parseFloat(a.y.value) > ymin;
			} else {
				upstack = parseFloat(a.y.value) < ymin;
			}
			if (upstack) {
				// Direct ancestor
				if (ex <= xmin && (ex+ew+fudge) >= xmax) {
					e.classList.add("parent");
					zoom_parent(e);
					update_text(e);
				}
				// not in current path
				else
					e.classList.add("hide");
			}
			// Children maybe
			else {
				// no common path
				if (ex < xmin || ex + fudge >= xmax) {
					e.classList.add("hide");
				}
				else {
					zoom_child(e, xmin, ratio);
					update_text(e);
				}
			}
		}
		search();
	}
	function unzoom() {
		unzoombtn.classList.add("hide");
		var el = document.getElementById("frames").children;
		for(var i = 0; i < el.length; i++) {
			el[i].classList.remove("parent");
			el[i].classList.remove("hide");
			zoom_reset(el[i]);
			update_text(el[i]);
		}
		search();
	}
	function clearzoom() {
		unzoom();

		// remove zoom state
		var params = get_params();
		if (params.x) delete params.x;
		if (params.y) delete params.y;
		history.replaceState(null, null, parse_params(params));
	}

	// search
	function toggle_ignorecase() {
		ignorecase = !ignorecase;
		if (ignorecase) {
			ignorecaseBtn.classList.add("show");
		} else {
			ignorecaseBtn.classList.remove("show");
		}
		reset_search();
		search();
	}
	function reset_search() {
		var el = document.querySelectorAll("#frames rect");
		for (var i = 0; i < el.length; i++) {
			orig_load(el[i], "fill")
		}
		var params = get_params();
		delete params.s;
		history.replaceState(null, null, parse_params(params));
	}
	function search_prompt() {
		if (!searching) {
			var term = prompt("Enter a search term (regexp " +
			    "allowed, eg: ^ext4_)"
			    + (ignorecase ? ", ignoring case" : "")
			    + "\nPress Ctrl-i to toggle case sensitivity", "");
			if (term != null) search(term);
		} else {
			reset_search();
			searching = 0;
			currentSearchTerm = null;
			searchbtn.classList.remove("show");
			searchbtn.firstChild.nodeValue = "Search"
			matchedtxt.classList.add("hide");
			matchedtxt.firstChild.nodeValue = ""
		}
	}
	function search(term) {
		if (term) currentSearchTerm = term;

		var re = new RegExp(currentSearchTerm, ignorecase ? 'i' : '');
		var el = document.getElementById("frames").children;
		var matches = new Object();
		var maxwidth = 0;
		for (var i = 0; i < el.length; i++) {
			var e = el[i];
			var func = g_to_func(e);
			var rect = find_child(e, "rect");
			if (func == null || rect == null)
				continue;

			// Save max width. Only works as we have a root frame
			var w = parseFloat(rect.attributes.width.value);
			if (w > maxwidth)
				maxwidth = w;

			if (func.match(re)) {
				// highlight
				var x = parseFloat(rect.attributes.x.value);
				orig_save(rect, "fill");
				rect.attributes.fill.value = "rgb(230,0,230)";

				// remember matches
				if (matches[x] == undefined) {
					matches[x] = w;
				} else {
					if (w > matches[x]) {
						// overwrite with parent
						matches[x] = w;
					}
				}
				searching = 1;
			}
		}
		if (!searching)
			return;
		var params = get_params();
		params.s = currentSearchTerm;
		history.replaceState(null, null, parse_params(params));

		searchbtn.classList.add("show");
		searchbtn.firstChild.nodeValue = "Reset Search";

		// calculate percent matched, excluding vertical overlap
		var count = 0;
		var lastx = -1;
		var lastw = 0;
		var keys = Array();
		for (k in matches) {
			if (matches.hasOwnProperty(k))
				keys.push(k);
		}
		// sort the matched frames by their x location
		// ascending, then width descending
		keys.sort(function(a, b){
			return a - b;
		});
		// Step through frames saving only the biggest bottom-up frames
		// thanks to the sort order. This relies on the tree property
		// where children are always smaller than their parents.
		var fudge = 0.0001;	// JavaScript floating point
		for (var k in keys) {
			var x = parseFloat(keys[k]);
			var w = matches[keys[k]];
			if (x >= lastx + lastw - fudge) {
				count += w;
				lastx = x;
				lastw = w;
			}
		}
		// display matched percent
		matchedtxt.classList.remove("hide");
		var pct = 100 * count / maxwidth;
		if (pct != 100) pct = pct.toFixed(1)
		matchedtxt.firstChild.nodeValue = "Matched: " + pct + "%";
	}
]]>
</script>
<rect x="0.0" y="0" width="1200.0" height="379.0" fill="url(#background)"  />
<text id="title" x="600.00" y="26" >Firedrake example</text>
<text id="details" x="10.00" y="361" > </text>
<text id="unzoom" x="10.00" y="26" class="hide">Reset Zoom</text>
<text id="search" x="1090.00" y="26" >Search</text>
<text id="ignorecase" x="1174.00" y="26" >ic</text>
<text id="matched" x="1090.00" y="361" > </text>
<g id="frames">
<g >
<title>firedrake.matrix_free.operators.ImplicitMatrixContext.mult (3,340,957,351 us, 13.71%)</title><rect x="969.0" y="231" width="161.7" height="15.0" fill="rgb(0,0,0)" rx="2" ry="2" />
<text  x="971.99" y="241.5" >firedrake.matrix_fr..</text>
</g>
<g >
<title>Log_Event_slate_loopy_knl_9 (16,389,042,380 us, 67.23%)</title><rect x="175.5" y="279" width="793.3" height="15.0" fill="rgb(0,0,0)" rx="2" ry="2" />
<text  x="178.47" y="289.5" >Log_Event_slate_loopy_knl_9</text>
</g>
<g >
<title>Parloop_Cells_wrap_form1_cell_integral_otherwise (3,127,122 us, 0.01%)</title><rect x="10.2" y="167" width="0.2" height="15.0" fill="rgb(0,0,0)" rx="2" ry="2" />
<text  x="13.20" y="177.5" ></text>
</g>
<g >
<title>ParLoopExecute (7,686,556 us, 0.03%)</title><rect x="1189.6" y="119" width="0.4" height="15.0" fill="rgb(0,0,0)" rx="2" ry="2" />
<text  x="1192.63" y="129.5" ></text>
</g>
<g >
<title>Log_Event_mtf_solve_1 (145,106,035 us, 0.60%)</title><rect x="18.2" y="215" width="7.0" height="15.0" fill="rgb(0,0,0)" rx="2" ry="2" />
<text  x="21.22" y="225.5" ></text>
</g>
<g >
<title>SNESSolve (24,376,391,683 us, 100.00%)</title><rect x="10.0" y="87" width="1180.0" height="15.0" fill="rgb(0,0,0)" rx="2" ry="2" />
<text  x="13.00" y="97.5" >SNESSolve</text>
</g>
<g >
<title>Log_Event_mtf_solve_11 (3,293,477,701 us, 13.51%)</title><rect x="970.3" y="295" width="159.5" height="15.0" fill="rgb(0,0,0)" rx="2" ry="2" />
<text  x="973.34" y="305.5" >Log_Event_mtf_solv..</text>
</g>
<g >
<title>Log_Event_mtf_solve_36 (71,237,339 us, 0.29%)</title><rect x="11.9" y="247" width="3.4" height="15.0" fill="rgb(0,0,0)" rx="2" ry="2" />
<text  x="14.88" y="257.5" ></text>
</g>
<g >
<title>Log_Event_subkernel8_interior_facet_vert_to__exterior_facet_vert_integral_otherwise (4,959,813 us, 0.02%)</title><rect x="1185.7" y="263" width="0.3" height="15.0" fill="rgb(0,0,0)" rx="2" ry="2" />
<text  x="1188.73" y="273.5" ></text>
</g>
<g >
<title>Log_Event_subkernel10_interior_facet_horiz_top_to__exterior_facet_top_integral_otherwise (4,795,507 us, 0.02%)</title><rect x="963.4" y="295" width="0.2" height="15.0" fill="rgb(0,0,0)" rx="2" ry="2" />
<text  x="966.40" y="305.5" ></text>
</g>
<g >
<title>SCSolve (24,029,936,923 us, 98.58%)</title><rect x="26.4" y="135" width="1163.2" height="15.0" fill="rgb(0,0,0)" rx="2" ry="2" />
<text  x="29.40" y="145.5" >SCSolve</text>
</g>
<g >
<title>Parloop_Cells_wrap_form0_cell_integral_otherwise (4,186,410 us, 0.02%)</title><rect x="1189.6" y="135" width="0.2" height="15.0" fill="rgb(0,0,0)" rx="2" ry="2" />
<text  x="1192.63" y="145.5" ></text>
</g>
<g >
<title>Parloop_Cells_wrap_slate_loopy_knl_9 (16,389,042,380 us, 67.23%)</title><rect x="175.5" y="263" width="793.3" height="15.0" fill="rgb(0,0,0)" rx="2" ry="2" />
<text  x="178.47" y="273.5" >Parloop_Cells_wrap_slate_loopy_knl_9</text>
</g>
<g >
<title>Log_Event_mtf_solve_44 (2,590,982 us, 0.01%)</title><rect x="10.4" y="199" width="0.1" height="15.0" fill="rgb(0,0,0)" rx="2" ry="2" />
<text  x="13.35" y="209.5" ></text>
</g>
<g >
<title>Parloop_Cells_wrap_slate_loopy_knl_0 (165,300,701 us, 0.68%)</title><rect x="18.2" y="183" width="8.0" height="15.0" fill="rgb(0,0,0)" rx="2" ry="2" />
<text  x="21.22" y="193.5" ></text>
</g>
<g >
<title>Log_Event_mtf_solve_11 (3,034,498,827 us, 12.45%)</title><rect x="27.7" y="247" width="146.9" height="15.0" fill="rgb(0,0,0)" rx="2" ry="2" />
<text  x="30.67" y="257.5" >Log_Event_mtf_sol..</text>
</g>
<g >
<title>Parloop_Cells_wrap_slate_loopy_knl_9 (3,079,417,973 us, 12.63%)</title><rect x="26.4" y="215" width="149.1" height="15.0" fill="rgb(0,0,0)" rx="2" ry="2" />
<text  x="29.40" y="225.5" >Parloop_Cells_wra..</text>
</g>
<g >
<title>Log_Event_subkernel13_cell_to__cell_integral_otherwise (864,381,470 us, 3.55%)</title><rect x="1132.1" y="327" width="41.8" height="15.0" fill="rgb(0,0,0)" rx="2" ry="2" />
<text  x="1135.06" y="337.5" >Log..</text>
</g>
<g >
<title>Log_Event_subkernel6_interior_facet_vert_to__exterior_facet_vert_integral_otherwise (6,826,188 us, 0.03%)</title><rect x="1184.6" y="263" width="0.3" height="15.0" fill="rgb(0,0,0)" rx="2" ry="2" />
<text  x="1187.56" y="273.5" ></text>
</g>
<g >
<title>Log_Event_slate_loopy_knl_9 (3,079,417,973 us, 12.63%)</title><rect x="26.4" y="231" width="149.1" height="15.0" fill="rgb(0,0,0)" rx="2" ry="2" />
<text  x="29.40" y="241.5" >Log_Event_slate_l..</text>
</g>
<g >
<title>Log_Event_slate_loopy_knl_15 (84,159,709 us, 0.35%)</title><rect x="11.6" y="199" width="4.1" height="15.0" fill="rgb(0,0,0)" rx="2" ry="2" />
<text  x="14.59" y="209.5" ></text>
</g>
<g >
<title>Log_Event_mtf_solve_11 (883,307,519 us, 3.62%)</title><rect x="1131.1" y="311" width="42.8" height="15.0" fill="rgb(0,0,0)" rx="2" ry="2" />
<text  x="1134.15" y="321.5" >Log..</text>
</g>
<g >
<title>Log_Event_mtf_solve_29 (2,578,925 us, 0.01%)</title><rect x="11.8" y="247" width="0.1" height="15.0" fill="rgb(0,0,0)" rx="2" ry="2" />
<text  x="14.75" y="257.5" ></text>
</g>
<g >
<title>pyop2.global_kernel.GlobalKernel.compile (3,500,146 us, 0.01%)</title><rect x="1189.8" y="151" width="0.2" height="15.0" fill="rgb(0,0,0)" rx="2" ry="2" />
<text  x="1192.83" y="161.5" ></text>
</g>
<g >
<title>Log_Event_mtf_solve_11 (16,151,798,965 us, 66.26%)</title><rect x="181.3" y="295" width="781.9" height="15.0" fill="rgb(0,0,0)" rx="2" ry="2" />
<text  x="184.30" y="305.5" >Log_Event_mtf_solve_11</text>
</g>
<g >
<title>pyop2.global_kernel.GlobalKernel.compile (20,194,666 us, 0.08%)</title><rect x="25.2" y="199" width="1.0" height="15.0" fill="rgb(0,0,0)" rx="2" ry="2" />
<text  x="28.24" y="209.5" ></text>
</g>
<g >
<title>KSPSetUp (1,211,943,900 us, 4.97%)</title><rect x="1130.7" y="199" width="58.7" height="15.0" fill="rgb(0,0,0)" rx="2" ry="2" />
<text  x="1133.72" y="209.5" >KSPSe..</text>
</g>
<g >
<title>Log_Event_subkernel3_cell_to__cell_integral_otherwise (141,876,505 us, 0.58%)</title><rect x="18.4" y="231" width="6.8" height="15.0" fill="rgb(0,0,0)" rx="2" ry="2" />
<text  x="21.38" y="241.5" ></text>
</g>
<g >
<title>Log_Event_subkernel12_cell_to__cell_integral_otherwise (39,136,035 us, 0.16%)</title><rect x="196.5" y="311" width="1.9" height="15.0" fill="rgb(0,0,0)" rx="2" ry="2" />
<text  x="199.55" y="321.5" ></text>
</g>
<g >
<title>pyop2.global_kernel.GlobalKernel.compile (3,127,122 us, 0.01%)</title><rect x="10.2" y="183" width="0.2" height="15.0" fill="rgb(0,0,0)" rx="2" ry="2" />
<text  x="13.20" y="193.5" ></text>
</g>
<g >
<title>Parloop_Cells_wrap_wrap_slate_loopy_knl_5 (256,499,041 us, 1.05%)</title><rect x="1175.9" y="247" width="12.4" height="15.0" fill="rgb(0,0,0)" rx="2" ry="2" />
<text  x="1178.90" y="257.5" ></text>
</g>
<g >
<title>Log_Event_slate_loopy_knl_9 (3,340,957,351 us, 13.71%)</title><rect x="969.0" y="279" width="161.7" height="15.0" fill="rgb(0,0,0)" rx="2" ry="2" />
<text  x="971.99" y="289.5" >Log_Event_slate_loo..</text>
</g>
<g >
<title>Log_Event_tensorshell_knl_27 (2,578,925 us, 0.01%)</title><rect x="11.8" y="231" width="0.1" height="15.0" fill="rgb(0,0,0)" rx="2" ry="2" />
<text  x="14.75" y="241.5" ></text>
</g>
<g >
<title>firedrake.tsfc_interface.compile_form (5,955,120 us, 0.02%)</title><rect x="1175.6" y="263" width="0.3" height="15.0" fill="rgb(0,0,0)" rx="2" ry="2" />
<text  x="1178.61" y="273.5" ></text>
</g>
<g >
<title>Log_Event_subkernel14_interior_facet_horiz_bottom_to__exterior_facet_bottom_integral_otherwise (4,318,256 us, 0.02%)</title><rect x="966.7" y="295" width="0.2" height="15.0" fill="rgb(0,0,0)" rx="2" ry="2" />
<text  x="969.72" y="305.5" ></text>
</g>
<g >
<title>firedrake (24,376,391,683 us, 100.00%)</title><rect x="10.0" y="55" width="1180.0" height="15.0" fill="rgb(0,0,0)" rx="2" ry="2" />
<text  x="13.00" y="65.5" >firedrake</text>
</g>
<g >
<title>Log_Event_subkernel14_interior_facet_horiz_top_to__exterior_facet_top_integral_otherwise (4,328,285 us, 0.02%)</title><rect x="966.9" y="295" width="0.2" height="15.0" fill="rgb(0,0,0)" rx="2" ry="2" />
<text  x="969.93" y="305.5" ></text>
</g>
<g >
<title>Log_Event_subkernel10_interior_facet_vert_to__exterior_facet_vert_integral_otherwise (12,771,452 us, 0.05%)</title><rect x="1129.8" y="295" width="0.6" height="15.0" fill="rgb(0,0,0)" rx="2" ry="2" />
<text  x="1132.76" y="305.5" ></text>
</g>
<g >
<title>PCApply (19,733,513,342 us, 80.95%)</title><rect x="175.5" y="183" width="955.2" height="15.0" fill="rgb(0,0,0)" rx="2" ry="2" />
<text  x="178.47" y="193.5" >PCApply</text>
</g>
<g >
<title>MatMult (933,454,061 us, 3.83%)</title><rect x="1130.7" y="231" width="45.2" height="15.0" fill="rgb(0,0,0)" rx="2" ry="2" />
<text  x="1133.72" y="241.5" >Mat..</text>
</g>
<g >
<title>Log_Event_tensorshell_knl_34 (78,305,711 us, 0.32%)</title><rect x="11.9" y="231" width="3.8" height="15.0" fill="rgb(0,0,0)" rx="2" ry="2" />
<text  x="14.88" y="241.5" ></text>
</g>
<g >
<title>Parloop_Cells_wrap_form1_cell_integral_otherwise (3,500,146 us, 0.01%)</title><rect x="1189.8" y="135" width="0.2" height="15.0" fill="rgb(0,0,0)" rx="2" ry="2" />
<text  x="1192.83" y="145.5" ></text>
</g>
<g >
<title>Parloop_Cells_wrap_slate_loopy_knl_15 (124,598,283 us, 0.51%)</title><rect x="11.6" y="183" width="6.0" height="15.0" fill="rgb(0,0,0)" rx="2" ry="2" />
<text  x="14.59" y="193.5" ></text>
</g>
<g >
<title>MatMult (16,389,042,380 us, 67.23%)</title><rect x="175.5" y="215" width="793.3" height="15.0" fill="rgb(0,0,0)" rx="2" ry="2" />
<text  x="178.47" y="225.5" >MatMult</text>
</g>
<g >
<title>Log_Event_slate_loopy_knl_5 (173,450,775 us, 0.71%)</title><rect x="1176.2" y="263" width="8.4" height="15.0" fill="rgb(0,0,0)" rx="2" ry="2" />
<text  x="1179.16" y="273.5" ></text>
</g>
<g >
<title>Log_Event_subkernel13_cell_to__cell_integral_otherwise (3,221,660,459 us, 13.22%)</title><rect x="973.8" y="311" width="156.0" height="15.0" fill="rgb(0,0,0)" rx="2" ry="2" />
<text  x="976.81" y="321.5" >Log_Event_subkerne..</text>
</g>
<g >
<title>Parloop_Cells_wrap_slate_loopy_knl_9 (927,498,941 us, 3.80%)</title><rect x="1130.7" y="279" width="44.9" height="15.0" fill="rgb(0,0,0)" rx="2" ry="2" />
<text  x="1133.72" y="289.5" >Par..</text>
</g>
<g >
<title>MatMult (3,079,417,973 us, 12.63%)</title><rect x="26.4" y="167" width="149.1" height="15.0" fill="rgb(0,0,0)" rx="2" ry="2" />
<text  x="29.40" y="177.5" >MatMult</text>
</g>
<g >
<title>Parloop_Cells_wrap_form00_cell_integral_otherwise (5,061,708 us, 0.02%)</title><rect x="1189.4" y="183" width="0.2" height="15.0" fill="rgb(0,0,0)" rx="2" ry="2" />
<text  x="1192.38" y="193.5" ></text>
</g>
<g >
<title>pyop2.global_kernel.GlobalKernel.compile (5,061,708 us, 0.02%)</title><rect x="1189.4" y="199" width="0.2" height="15.0" fill="rgb(0,0,0)" rx="2" ry="2" />
<text  x="1192.38" y="209.5" ></text>
</g>
<g >
<title>firedrake.matrix_free.operators.ImplicitMatrixContext.mult (16,389,042,380 us, 67.23%)</title><rect x="175.5" y="231" width="793.3" height="15.0" fill="rgb(0,0,0)" rx="2" ry="2" />
<text  x="178.47" y="241.5" >firedrake.matrix_free.operators.ImplicitMatrixContext.mult</text>
</g>
<g >
<title>RecoverFirstElim (137,019,990 us, 0.56%)</title><rect x="11.4" y="151" width="6.7" height="15.0" fill="rgb(0,0,0)" rx="2" ry="2" />
<text  x="14.43" y="161.5" ></text>
</g>
<g >
<title>Log_Event_subkernel14_interior_facet_vert_to__exterior_facet_vert_integral_otherwise (6,889,149 us, 0.03%)</title><rect x="1130.4" y="295" width="0.3" height="15.0" fill="rgb(0,0,0)" rx="2" ry="2" />
<text  x="1133.38" y="305.5" ></text>
</g>
<g >
<title>Log_Event_subkernel13_cell_to__cell_integral_otherwise (2,968,799,985 us, 12.18%)</title><rect x="30.8" y="263" width="143.8" height="15.0" fill="rgb(0,0,0)" rx="2" ry="2" />
<text  x="33.85" y="273.5" >Log_Event_subker..</text>
</g>
<g >
<title>firedrake.tsfc_interface.compile_form (5,714,220 us, 0.02%)</title><rect x="1189.1" y="231" width="0.3" height="15.0" fill="rgb(0,0,0)" rx="2" ry="2" />
<text  x="1192.11" y="241.5" ></text>
</g>
<g >
<title>Log_Event_subkernel12_cell_to__cell_integral_otherwise (7,839,963 us, 0.03%)</title><rect x="973.4" y="311" width="0.4" height="15.0" fill="rgb(0,0,0)" rx="2" ry="2" />
<text  x="976.43" y="321.5" ></text>
</g>
<g >
<title>ParLoopExecute (124,598,283 us, 0.51%)</title><rect x="11.6" y="167" width="6.0" height="15.0" fill="rgb(0,0,0)" rx="2" ry="2" />
<text  x="14.59" y="177.5" ></text>
</g>
<g >
<title>firedrake.tsfc_interface.compile_form (3,682,297 us, 0.02%)</title><rect x="26.2" y="167" width="0.2" height="15.0" fill="rgb(0,0,0)" rx="2" ry="2" />
<text  x="29.22" y="177.5" ></text>
</g>
<g >
<title>SCForwardElim (168,982,998 us, 0.69%)</title><rect x="18.2" y="135" width="8.2" height="15.0" fill="rgb(0,0,0)" rx="2" ry="2" />
<text  x="21.22" y="145.5" ></text>
</g>
<g >
<title>MatResidual (3,340,957,351 us, 13.71%)</title><rect x="969.0" y="199" width="161.7" height="15.0" fill="rgb(0,0,0)" rx="2" ry="2" />
<text  x="971.99" y="209.5" >MatResidual</text>
</g>
<g >
<title>firedrake.matrix_free.operators.ImplicitMatrixContext.mult (3,079,417,973 us, 12.63%)</title><rect x="26.4" y="183" width="149.1" height="15.0" fill="rgb(0,0,0)" rx="2" ry="2" />
<text  x="29.40" y="193.5" >firedrake.matrix_..</text>
</g>
<g >
<title>ParLoopExecute (16,389,042,380 us, 67.23%)</title><rect x="175.5" y="247" width="793.3" height="15.0" fill="rgb(0,0,0)" rx="2" ry="2" />
<text  x="178.47" y="257.5" >ParLoopExecute</text>
</g>
<g >
<title>inv_getrf (19,621,802 us, 0.08%)</title><rect x="1178.8" y="279" width="1.0" height="15.0" fill="rgb(0,0,0)" rx="2" ry="2" />
<text  x="1181.83" y="289.5" ></text>
</g>
<g >
<title>Log_Event_subkernel12_cell_to__cell_integral_otherwise (7,447,806 us, 0.03%)</title><rect x="30.5" y="263" width="0.3" height="15.0" fill="rgb(0,0,0)" rx="2" ry="2" />
<text  x="33.49" y="273.5" ></text>
</g>
<g >
<title>MatMult (7,294,003 us, 0.03%)</title><rect x="10.0" y="119" width="0.4" height="15.0" fill="rgb(0,0,0)" rx="2" ry="2" />
<text  x="13.00" y="129.5" ></text>
</g>
<g >
<title>ParLoopExecute (256,499,041 us, 1.05%)</title><rect x="1175.9" y="231" width="12.4" height="15.0" fill="rgb(0,0,0)" rx="2" ry="2" />
<text  x="1178.90" y="241.5" ></text>
</g>
<g >
<title>firedrake.tsfc_interface.compile_form (9,059,290 us, 0.04%)</title><rect x="17.6" y="167" width="0.5" height="15.0" fill="rgb(0,0,0)" rx="2" ry="2" />
<text  x="20.62" y="177.5" ></text>
</g>
<g >
<title>PCSetUp (278,489,839 us, 1.14%)</title><rect x="1175.9" y="215" width="13.5" height="15.0" fill="rgb(0,0,0)" rx="2" ry="2" />
<text  x="1178.90" y="225.5" ></text>
</g>
<g >
<title>all (24,376,391,683 us, 100%)</title><rect x="10.0" y="39" width="1180.0" height="15.0" fill="rgb(0,0,0)" rx="2" ry="2" />
<text  x="13.00" y="49.5" ></text>
</g>
<g >
<title>ParLoopExecute (5,061,708 us, 0.02%)</title><rect x="1189.4" y="167" width="0.2" height="15.0" fill="rgb(0,0,0)" rx="2" ry="2" />
<text  x="1192.38" y="177.5" ></text>
</g>
<g >
<title>pyop2.global_kernel.GlobalKernel.compile (40,438,574 us, 0.17%)</title><rect x="15.7" y="199" width="1.9" height="15.0" fill="rgb(0,0,0)" rx="2" ry="2" />
<text  x="18.67" y="209.5" ></text>
</g>
<g >
<title>CreateSparsity (12,818,732 us, 0.05%)</title><rect x="1188.3" y="247" width="0.6" height="15.0" fill="rgb(0,0,0)" rx="2" ry="2" />
<text  x="1191.32" y="257.5" ></text>
</g>
<g >
<title>firedrake.variational_solver.NonlinearVariationalSolver.solve (24,376,391,683 us, 100.00%)</title><rect x="10.0" y="71" width="1180.0" height="15.0" fill="rgb(0,0,0)" rx="2" ry="2" />
<text  x="13.00" y="81.5" >firedrake.variational_solver.NonlinearVariationalSolver.solve</text>
</g>
<g >
<title>Log_Event_slate_loopy_knl_0 (145,106,035 us, 0.60%)</title><rect x="18.2" y="199" width="7.0" height="15.0" fill="rgb(0,0,0)" rx="2" ry="2" />
<text  x="21.22" y="209.5" ></text>
</g>
<g >
<title>Log_Event_subkernel35_cell_to__cell_integral_otherwise (3,599,855 us, 0.01%)</title><rect x="15.3" y="247" width="0.2" height="15.0" fill="rgb(0,0,0)" rx="2" ry="2" />
<text  x="18.32" y="257.5" ></text>
</g>
<g >
<title>SCBackSub (162,491,203 us, 0.67%)</title><rect x="10.4" y="135" width="7.8" height="15.0" fill="rgb(0,0,0)" rx="2" ry="2" />
<text  x="13.35" y="145.5" ></text>
</g>
<g >
<title>Parloop_Cells_wrap_form0_cell_integral_otherwise (4,166,881 us, 0.02%)</title><rect x="10.0" y="167" width="0.2" height="15.0" fill="rgb(0,0,0)" rx="2" ry="2" />
<text  x="13.00" y="177.5" ></text>
</g>
<g >
<title>Log_Event_subkernel14_interior_facet_vert_to__exterior_facet_vert_integral_otherwise (6,591,550 us, 0.03%)</title><rect x="175.1" y="247" width="0.4" height="15.0" fill="rgb(0,0,0)" rx="2" ry="2" />
<text  x="178.15" y="257.5" ></text>
</g>
<g >
<title>SNESFunctionEval (7,686,556 us, 0.03%)</title><rect x="1189.6" y="103" width="0.4" height="15.0" fill="rgb(0,0,0)" rx="2" ry="2" />
<text  x="1192.63" y="113.5" ></text>
</g>
<g >
<title>Parloop_Cells_wrap_slate_loopy_knl_9 (3,340,957,351 us, 13.71%)</title><rect x="969.0" y="263" width="161.7" height="15.0" fill="rgb(0,0,0)" rx="2" ry="2" />
<text  x="971.99" y="273.5" >Parloop_Cells_wrap_..</text>
</g>
<g >
<title>PCSetUp (1,211,943,900 us, 4.97%)</title><rect x="1130.7" y="183" width="58.7" height="15.0" fill="rgb(0,0,0)" rx="2" ry="2" />
<text  x="1133.72" y="193.5" >PCSetUp</text>
</g>
<g >
<title>pyop2.global_kernel.GlobalKernel.compile (4,186,410 us, 0.02%)</title><rect x="1189.6" y="151" width="0.2" height="15.0" fill="rgb(0,0,0)" rx="2" ry="2" />
<text  x="1192.63" y="161.5" ></text>
</g>
<g >
<title>Parloop_Cells_wrap_slate_loopy_knl_41 (22,237,262 us, 0.09%)</title><rect x="10.4" y="167" width="1.0" height="15.0" fill="rgb(0,0,0)" rx="2" ry="2" />
<text  x="13.35" y="177.5" ></text>
</g>
<g >
<title>pyop2.global_kernel.GlobalKernel.compile (4,166,881 us, 0.02%)</title><rect x="10.0" y="183" width="0.2" height="15.0" fill="rgb(0,0,0)" rx="2" ry="2" />
<text  x="13.00" y="193.5" ></text>
</g>
<g >
<title>firedrake.tsfc_interface.compile_form (3,233,951 us, 0.01%)</title><rect x="18.1" y="151" width="0.1" height="15.0" fill="rgb(0,0,0)" rx="2" ry="2" />
<text  x="21.06" y="161.5" ></text>
</g>
<g >
<title>KSPSolve (24,368,705,127 us, 99.97%)</title><rect x="10.0" y="103" width="1179.6" height="15.0" fill="rgb(0,0,0)" rx="2" ry="2" />
<text  x="13.00" y="113.5" >KSPSolve</text>
</g>
<g >
<title>firedrake.matrix_free.operators.ImplicitMatrixContext.mult (933,454,061 us, 3.83%)</title><rect x="1130.7" y="247" width="45.2" height="15.0" fill="rgb(0,0,0)" rx="2" ry="2" />
<text  x="1133.72" y="257.5" >fir..</text>
</g>
<g >
<title>ParLoopExecute (7,294,003 us, 0.03%)</title><rect x="10.0" y="151" width="0.4" height="15.0" fill="rgb(0,0,0)" rx="2" ry="2" />
<text  x="13.00" y="161.5" ></text>
</g>
<g >
<title>Log_Event_subkernel10_interior_facet_horiz_bottom_to__exterior_facet_bottom_integral_otherwise (4,637,347 us, 0.02%)</title><rect x="963.2" y="295" width="0.2" height="15.0" fill="rgb(0,0,0)" rx="2" ry="2" />
<text  x="966.17" y="305.5" ></text>
</g>
<g >
<title>Log_Event_subkernel14_interior_facet_vert_to__exterior_facet_vert_integral_otherwise (34,771,075 us, 0.14%)</title><rect x="967.1" y="295" width="1.7" height="15.0" fill="rgb(0,0,0)" rx="2" ry="2" />
<text  x="970.14" y="305.5" ></text>
</g>
<g >
<title>pyop2.global_kernel.GlobalKernel.compile (19,646,280 us, 0.08%)</title><rect x="10.5" y="183" width="0.9" height="15.0" fill="rgb(0,0,0)" rx="2" ry="2" />
<text  x="13.48" y="193.5" ></text>
</g>
<g >
<title>ParLoopExecute (22,237,262 us, 0.09%)</title><rect x="10.4" y="151" width="1.0" height="15.0" fill="rgb(0,0,0)" rx="2" ry="2" />
<text  x="13.35" y="161.5" ></text>
</g>
<g >
<title>Log_Event_mtf_solve_26 (80,884,636 us, 0.33%)</title><rect x="11.8" y="215" width="3.9" height="15.0" fill="rgb(0,0,0)" rx="2" ry="2" />
<text  x="14.75" y="225.5" ></text>
</g>
<g >
<title>firedrake.assemble.allocate_matrix (16,276,578 us, 0.07%)</title><rect x="1188.3" y="231" width="0.8" height="15.0" fill="rgb(0,0,0)" rx="2" ry="2" />
<text  x="1191.32" y="241.5" ></text>
</g>
<g >
<title>Log_Event_subkernel10_interior_facet_vert_to__exterior_facet_vert_integral_otherwise (63,792,419 us, 0.26%)</title><rect x="963.6" y="295" width="3.1" height="15.0" fill="rgb(0,0,0)" rx="2" ry="2" />
<text  x="966.63" y="305.5" ></text>
</g>
<g >
<title>ParLoopExecute (165,300,701 us, 0.68%)</title><rect x="18.2" y="167" width="8.0" height="15.0" fill="rgb(0,0,0)" rx="2" ry="2" />
<text  x="21.22" y="177.5" ></text>
</g>
<g >
<title>PCApply (24,361,411,124 us, 99.94%)</title><rect x="10.4" y="119" width="1179.2" height="15.0" fill="rgb(0,0,0)" rx="2" ry="2" />
<text  x="13.35" y="129.5" >PCApply</text>
</g>
<g >
<title>inv_getri (98,572,655 us, 0.40%)</title><rect x="1179.8" y="279" width="4.8" height="15.0" fill="rgb(0,0,0)" rx="2" ry="2" />
<text  x="1182.78" y="289.5" ></text>
</g>
<g >
<title>MatMult (3,340,957,351 us, 13.71%)</title><rect x="969.0" y="215" width="161.7" height="15.0" fill="rgb(0,0,0)" rx="2" ry="2" />
<text  x="971.99" y="225.5" >MatMult</text>
</g>
<g >
<title>Log_Event_slate_loopy_knl_41 (2,590,982 us, 0.01%)</title><rect x="10.4" y="183" width="0.1" height="15.0" fill="rgb(0,0,0)" rx="2" ry="2" />
<text  x="13.35" y="193.5" ></text>
</g>
<g >
<title>firedrake.matrix_free.operators.ImplicitMatrixContext.mult (7,294,003 us, 0.03%)</title><rect x="10.0" y="135" width="0.4" height="15.0" fill="rgb(0,0,0)" rx="2" ry="2" />
<text  x="13.00" y="145.5" ></text>
</g>
<g >
<title>Log_Event_subkernel10_interior_facet_vert_to__exterior_facet_vert_integral_otherwise (12,141,052 us, 0.05%)</title><rect x="174.6" y="247" width="0.5" height="15.0" fill="rgb(0,0,0)" rx="2" ry="2" />
<text  x="177.56" y="257.5" ></text>
</g>
<g >
<title>Log_Event_subkernel46_cell_to__cell_integral_otherwise (2,590,982 us, 0.01%)</title><rect x="10.4" y="215" width="0.1" height="15.0" fill="rgb(0,0,0)" rx="2" ry="2" />
<text  x="13.35" y="225.5" ></text>
</g>
<g >
<title>Log_Event_subkernel31_cell_to__cell_integral_otherwise (2,578,925 us, 0.01%)</title><rect x="11.8" y="263" width="0.1" height="15.0" fill="rgb(0,0,0)" rx="2" ry="2" />
<text  x="14.75" y="273.5" ></text>
</g>
<g >
<title>pyop2.global_kernel.GlobalKernel.compile (32,067,633 us, 0.13%)</title><rect x="1174.1" y="295" width="1.5" height="15.0" fill="rgb(0,0,0)" rx="2" ry="2" />
<text  x="1177.06" y="305.5" ></text>
</g>
<g >
<title>KSPSolve (24,024,875,215 us, 98.56%)</title><rect x="26.4" y="151" width="1163.0" height="15.0" fill="rgb(0,0,0)" rx="2" ry="2" />
<text  x="29.40" y="161.5" >KSPSolve</text>
</g>
<g >
<title>Log_Event_subkernel38_cell_to__cell_integral_otherwise (66,451,954 us, 0.27%)</title><rect x="12.1" y="263" width="3.2" height="15.0" fill="rgb(0,0,0)" rx="2" ry="2" />
<text  x="15.11" y="273.5" ></text>
</g>
<g >
<title>KSPSolve (933,454,061 us, 3.83%)</title><rect x="1130.7" y="215" width="45.2" height="15.0" fill="rgb(0,0,0)" rx="2" ry="2" />
<text  x="1133.72" y="225.5" >KSP..</text>
</g>
<g >
<title>PCApply (3,513,611 us, 0.01%)</title><rect x="968.8" y="215" width="0.2" height="15.0" fill="rgb(0,0,0)" rx="2" ry="2" />
<text  x="971.82" y="225.5" ></text>
</g>
<g >
<title>PCApply (20,945,457,242 us, 85.93%)</title><rect x="175.5" y="167" width="1013.9" height="15.0" fill="rgb(0,0,0)" rx="2" ry="2" />
<text  x="178.47" y="177.5" >PCApply</text>
</g>
<g >
<title>Log_Event_subkernel7_cell_to__cell_integral_otherwise (17,472,183 us, 0.07%)</title><rect x="1184.9" y="263" width="0.8" height="15.0" fill="rgb(0,0,0)" rx="2" ry="2" />
<text  x="1187.89" y="273.5" ></text>
</g>
<g >
<title>PCSetUp (3,513,611 us, 0.01%)</title><rect x="968.8" y="231" width="0.2" height="15.0" fill="rgb(0,0,0)" rx="2" ry="2" />
<text  x="971.82" y="241.5" ></text>
</g>
<g >
<title>PCSetUp (5,061,708 us, 0.02%)</title><rect x="1189.4" y="151" width="0.2" height="15.0" fill="rgb(0,0,0)" rx="2" ry="2" />
<text  x="1192.38" y="161.5" ></text>
</g>
<g >
<title>Log_Event_slate_loopy_knl_9 (895,431,308 us, 3.67%)</title><rect x="1130.7" y="295" width="43.4" height="15.0" fill="rgb(0,0,0)" rx="2" ry="2" />
<text  x="1133.72" y="305.5" >Log..</text>
</g>
<g >
<title>ParLoopExecute (927,498,941 us, 3.80%)</title><rect x="1130.7" y="263" width="44.9" height="15.0" fill="rgb(0,0,0)" rx="2" ry="2" />
<text  x="1133.72" y="273.5" >Par..</text>
</g>
<g >
<title>Log_Event_subkernel39_cell_to__cell_integral_otherwise (3,468,517 us, 0.01%)</title><rect x="15.5" y="247" width="0.2" height="15.0" fill="rgb(0,0,0)" rx="2" ry="2" />
<text  x="18.50" y="257.5" ></text>
</g>
<g >
<title>HybridRHS (168,982,998 us, 0.69%)</title><rect x="18.2" y="151" width="8.2" height="15.0" fill="rgb(0,0,0)" rx="2" ry="2" />
<text  x="21.22" y="161.5" ></text>
</g>
<g >
<title>pyop2.global_kernel.GlobalKernel.compile (48,477,685 us, 0.20%)</title><rect x="1186.0" y="263" width="2.3" height="15.0" fill="rgb(0,0,0)" rx="2" ry="2" />
<text  x="1188.97" y="273.5" ></text>
</g>
<g >
<title>Log_Event_subkernel13_cell_to__cell_integral_otherwise (15,797,716,801 us, 64.81%)</title><rect x="198.4" y="311" width="764.8" height="15.0" fill="rgb(0,0,0)" rx="2" ry="2" />
<text  x="201.44" y="321.5" >Log_Event_subkernel13_cell_to__cell_integral_otherwise</text>
</g>
<g >
<title>ParLoopExecute (3,340,957,351 us, 13.71%)</title><rect x="969.0" y="247" width="161.7" height="15.0" fill="rgb(0,0,0)" rx="2" ry="2" />
<text  x="971.99" y="257.5" >ParLoopExecute</text>
</g>
<g >
<title>Log_Event_subkernel10_interior_facet_vert_to__exterior_facet_vert_integral_otherwise (3,255,758 us, 0.01%)</title><rect x="1173.9" y="311" width="0.2" height="15.0" fill="rgb(0,0,0)" rx="2" ry="2" />
<text  x="1176.90" y="321.5" ></text>
</g>
<g >
<title>MatZeroInitial (3,457,846 us, 0.01%)</title><rect x="1188.9" y="247" width="0.2" height="15.0" fill="rgb(0,0,0)" rx="2" ry="2" />
<text  x="1191.94" y="257.5" ></text>
</g>
<g >
<title>KSPSolve (16,392,555,991 us, 67.25%)</title><rect x="175.5" y="199" width="793.5" height="15.0" fill="rgb(0,0,0)" rx="2" ry="2" />
<text  x="178.47" y="209.5" >KSPSolve</text>
</g>
<g >
<title>ParLoopExecute (3,079,417,973 us, 12.63%)</title><rect x="26.4" y="199" width="149.1" height="15.0" fill="rgb(0,0,0)" rx="2" ry="2" />
<text  x="29.40" y="209.5" >ParLoopExecute</text>
</g>
</g>
</svg>
