<?xml version="1.0" standalone="no"?>
<!DOCTYPE svg PUBLIC "-//W3C//DTD SVG 1.1//EN" "http://www.w3.org/Graphics/SVG/1.1/DTD/svg11.dtd">
<svg version="1.1" width="1200" height="283" onload="init(evt)" viewBox="0 0 1200 283" xmlns="http://www.w3.org/2000/svg" xmlns:xlink="http://www.w3.org/1999/xlink">
<!-- Flame graph stack visualization. See https://github.com/brendangregg/FlameGraph for latest version, and http://www.brendangregg.com/flamegraphs.html for examples. -->
<!-- NOTES:  -->
<defs>
	<linearGradient id="background" y1="0" y2="1" x1="0" x2="0" >
		<stop stop-color="#eeeeee" offset="5%" />
		<stop stop-color="#eeeeb0" offset="95%" />
	</linearGradient>
</defs>
<style type="text/css">
	text { font-family:Verdana; font-size:13px; fill:rgb(0,0,0); }
	#search, #ignorecase { opacity:0.1; cursor:pointer; }
	#search:hover, #search.show, #ignorecase:hover, #ignorecase.show { opacity:1; }
	#subtitle { text-anchor:middle; font-color:rgb(160,160,160); }
	#title { text-anchor:middle; font-size:18px}
	#unzoom { cursor:pointer; }
	#frames > *:hover { stroke:black; stroke-width:0.5; cursor:pointer; }
	.hide { display:none; }
	.parent { opacity:0.5; }
</style>
<script type="text/ecmascript">
<![CDATA[
	"use strict";
	var details, searchbtn, unzoombtn, matchedtxt, svg, searching, currentSearchTerm, ignorecase, ignorecaseBtn;
	function init(evt) {
		details = document.getElementById("details").firstChild;
		searchbtn = document.getElementById("search");
		ignorecaseBtn = document.getElementById("ignorecase");
		unzoombtn = document.getElementById("unzoom");
		matchedtxt = document.getElementById("matched");
		svg = document.getElementsByTagName("svg")[0];
		searching = 0;
		currentSearchTerm = null;

		// use GET parameters to restore a flamegraphs state.
		var params = get_params();
		if (params.x && params.y)
			zoom(find_group(document.querySelector('[x="' + params.x + '"][y="' + params.y + '"]')));
                if (params.s) search(params.s);
	}

	// event listeners
	window.addEventListener("click", function(e) {
		var target = find_group(e.target);
		if (target) {
			if (target.nodeName == "a") {
				if (e.ctrlKey === false) return;
				e.preventDefault();
			}
			if (target.classList.contains("parent")) unzoom();
			zoom(target);
			if (!document.querySelector('.parent')) {
				clearzoom();
				return;
			}

			// set parameters for zoom state
			var el = target.querySelector("rect");
			if (el && el.attributes && el.attributes.y && el.attributes._orig_x) {
				var params = get_params()
				params.x = el.attributes._orig_x.value;
				params.y = el.attributes.y.value;
				history.replaceState(null, null, parse_params(params));
			}
		}
		else if (e.target.id == "unzoom") clearzoom();
		else if (e.target.id == "search") search_prompt();
		else if (e.target.id == "ignorecase") toggle_ignorecase();
	}, false)

	// mouse-over for info
	// show
	window.addEventListener("mouseover", function(e) {
		var target = find_group(e.target);
		if (target) details.nodeValue = "Function: " + g_to_text(target);
	}, false)

	// clear
	window.addEventListener("mouseout", function(e) {
		var target = find_group(e.target);
		if (target) details.nodeValue = ' ';
	}, false)

	// ctrl-F for search
	// ctrl-I to toggle case-sensitive search
	window.addEventListener("keydown",function (e) {
		if (e.keyCode === 114 || (e.ctrlKey && e.keyCode === 70)) {
			e.preventDefault();
			search_prompt();
		}
		else if (e.ctrlKey && e.keyCode === 73) {
			e.preventDefault();
			toggle_ignorecase();
		}
	}, false)

	// functions
	function get_params() {
		var params = {};
		var paramsarr = window.location.search.substr(1).split('&');
		for (var i = 0; i < paramsarr.length; ++i) {
			var tmp = paramsarr[i].split("=");
			if (!tmp[0] || !tmp[1]) continue;
			params[tmp[0]]  = decodeURIComponent(tmp[1]);
		}
		return params;
	}
	function parse_params(params) {
		var uri = "?";
		for (var key in params) {
			uri += key + '=' + encodeURIComponent(params[key]) + '&';
		}
		if (uri.slice(-1) == "&")
			uri = uri.substring(0, uri.length - 1);
		if (uri == '?')
			uri = window.location.href.split('?')[0];
		return uri;
	}
	function find_child(node, selector) {
		var children = node.querySelectorAll(selector);
		if (children.length) return children[0];
	}
	function find_group(node) {
		var parent = node.parentElement;
		if (!parent) return;
		if (parent.id == "frames") return node;
		return find_group(parent);
	}
	function orig_save(e, attr, val) {
		if (e.attributes["_orig_" + attr] != undefined) return;
		if (e.attributes[attr] == undefined) return;
		if (val == undefined) val = e.attributes[attr].value;
		e.setAttribute("_orig_" + attr, val);
	}
	function orig_load(e, attr) {
		if (e.attributes["_orig_"+attr] == undefined) return;
		e.attributes[attr].value = e.attributes["_orig_" + attr].value;
		e.removeAttribute("_orig_"+attr);
	}
	function g_to_text(e) {
		var text = find_child(e, "title").firstChild.nodeValue;
		return (text)
	}
	function g_to_func(e) {
		var func = g_to_text(e);
		// if there's any manipulation we want to do to the function
		// name before it's searched, do it here before returning.
		return (func);
	}
	function update_text(e) {
		var r = find_child(e, "rect");
		var t = find_child(e, "text");
		var w = parseFloat(r.attributes.width.value) -3;
		var txt = find_child(e, "title").textContent.replace(/\([^(]*\)$/,"");
		t.attributes.x.value = parseFloat(r.attributes.x.value) + 3;

		// Smaller than this size won't fit anything
		if (w < 2 * 13 * 0.59) {
			t.textContent = "";
			return;
		}

		t.textContent = txt;
		// Fit in full text width
		if (/^ *$/.test(txt) || t.getSubStringLength(0, txt.length) < w)
			return;

		for (var x = txt.length - 2; x > 0; x--) {
			if (t.getSubStringLength(0, x + 2) <= w) {
				t.textContent = txt.substring(0, x) + "..";
				return;
			}
		}
		t.textContent = "";
	}

	// zoom
	function zoom_reset(e) {
		if (e.attributes != undefined) {
			orig_load(e, "x");
			orig_load(e, "width");
		}
		if (e.childNodes == undefined) return;
		for (var i = 0, c = e.childNodes; i < c.length; i++) {
			zoom_reset(c[i]);
		}
	}
	function zoom_child(e, x, ratio) {
		if (e.attributes != undefined) {
			if (e.attributes.x != undefined) {
				orig_save(e, "x");
				e.attributes.x.value = (parseFloat(e.attributes.x.value) - x - 10) * ratio + 10;
				if (e.tagName == "text")
					e.attributes.x.value = find_child(e.parentNode, "rect[x]").attributes.x.value + 3;
			}
			if (e.attributes.width != undefined) {
				orig_save(e, "width");
				e.attributes.width.value = parseFloat(e.attributes.width.value) * ratio;
			}
		}

		if (e.childNodes == undefined) return;
		for (var i = 0, c = e.childNodes; i < c.length; i++) {
			zoom_child(c[i], x - 10, ratio);
		}
	}
	function zoom_parent(e) {
		if (e.attributes) {
			if (e.attributes.x != undefined) {
				orig_save(e, "x");
				e.attributes.x.value = 10;
			}
			if (e.attributes.width != undefined) {
				orig_save(e, "width");
				e.attributes.width.value = parseInt(svg.width.baseVal.value) - (10 * 2);
			}
		}
		if (e.childNodes == undefined) return;
		for (var i = 0, c = e.childNodes; i < c.length; i++) {
			zoom_parent(c[i]);
		}
	}
	function zoom(node) {
		var attr = find_child(node, "rect").attributes;
		var width = parseFloat(attr.width.value);
		var xmin = parseFloat(attr.x.value);
		var xmax = parseFloat(xmin + width);
		var ymin = parseFloat(attr.y.value);
		var ratio = (svg.width.baseVal.value - 2 * 10) / width;

		// XXX: Workaround for JavaScript float issues (fix me)
		var fudge = 0.0001;

		unzoombtn.classList.remove("hide");

		var el = document.getElementById("frames").children;
		for (var i = 0; i < el.length; i++) {
			var e = el[i];
			var a = find_child(e, "rect").attributes;
			var ex = parseFloat(a.x.value);
			var ew = parseFloat(a.width.value);
			var upstack;
			// Is it an ancestor
			if (1 == 0) {
				upstack = parseFloat(a.y.value) > ymin;
			} else {
				upstack = parseFloat(a.y.value) < ymin;
			}
			if (upstack) {
				// Direct ancestor
				if (ex <= xmin && (ex+ew+fudge) >= xmax) {
					e.classList.add("parent");
					zoom_parent(e);
					update_text(e);
				}
				// not in current path
				else
					e.classList.add("hide");
			}
			// Children maybe
			else {
				// no common path
				if (ex < xmin || ex + fudge >= xmax) {
					e.classList.add("hide");
				}
				else {
					zoom_child(e, xmin, ratio);
					update_text(e);
				}
			}
		}
		search();
	}
	function unzoom() {
		unzoombtn.classList.add("hide");
		var el = document.getElementById("frames").children;
		for(var i = 0; i < el.length; i++) {
			el[i].classList.remove("parent");
			el[i].classList.remove("hide");
			zoom_reset(el[i]);
			update_text(el[i]);
		}
		search();
	}
	function clearzoom() {
		unzoom();

		// remove zoom state
		var params = get_params();
		if (params.x) delete params.x;
		if (params.y) delete params.y;
		history.replaceState(null, null, parse_params(params));
	}

	// search
	function toggle_ignorecase() {
		ignorecase = !ignorecase;
		if (ignorecase) {
			ignorecaseBtn.classList.add("show");
		} else {
			ignorecaseBtn.classList.remove("show");
		}
		reset_search();
		search();
	}
	function reset_search() {
		var el = document.querySelectorAll("#frames rect");
		for (var i = 0; i < el.length; i++) {
			orig_load(el[i], "fill")
		}
		var params = get_params();
		delete params.s;
		history.replaceState(null, null, parse_params(params));
	}
	function search_prompt() {
		if (!searching) {
			var term = prompt("Enter a search term (regexp " +
			    "allowed, eg: ^ext4_)"
			    + (ignorecase ? ", ignoring case" : "")
			    + "\nPress Ctrl-i to toggle case sensitivity", "");
			if (term != null) search(term);
		} else {
			reset_search();
			searching = 0;
			currentSearchTerm = null;
			searchbtn.classList.remove("show");
			searchbtn.firstChild.nodeValue = "Search"
			matchedtxt.classList.add("hide");
			matchedtxt.firstChild.nodeValue = ""
		}
	}
	function search(term) {
		if (term) currentSearchTerm = term;

		var re = new RegExp(currentSearchTerm, ignorecase ? 'i' : '');
		var el = document.getElementById("frames").children;
		var matches = new Object();
		var maxwidth = 0;
		for (var i = 0; i < el.length; i++) {
			var e = el[i];
			var func = g_to_func(e);
			var rect = find_child(e, "rect");
			if (func == null || rect == null)
				continue;

			// Save max width. Only works as we have a root frame
			var w = parseFloat(rect.attributes.width.value);
			if (w > maxwidth)
				maxwidth = w;

			if (func.match(re)) {
				// highlight
				var x = parseFloat(rect.attributes.x.value);
				orig_save(rect, "fill");
				rect.attributes.fill.value = "rgb(230,0,230)";

				// remember matches
				if (matches[x] == undefined) {
					matches[x] = w;
				} else {
					if (w > matches[x]) {
						// overwrite with parent
						matches[x] = w;
					}
				}
				searching = 1;
			}
		}
		if (!searching)
			return;
		var params = get_params();
		params.s = currentSearchTerm;
		history.replaceState(null, null, parse_params(params));

		searchbtn.classList.add("show");
		searchbtn.firstChild.nodeValue = "Reset Search";

		// calculate percent matched, excluding vertical overlap
		var count = 0;
		var lastx = -1;
		var lastw = 0;
		var keys = Array();
		for (k in matches) {
			if (matches.hasOwnProperty(k))
				keys.push(k);
		}
		// sort the matched frames by their x location
		// ascending, then width descending
		keys.sort(function(a, b){
			return a - b;
		});
		// Step through frames saving only the biggest bottom-up frames
		// thanks to the sort order. This relies on the tree property
		// where children are always smaller than their parents.
		var fudge = 0.0001;	// JavaScript floating point
		for (var k in keys) {
			var x = parseFloat(keys[k]);
			var w = matches[keys[k]];
			if (x >= lastx + lastw - fudge) {
				count += w;
				lastx = x;
				lastw = w;
			}
		}
		// display matched percent
		matchedtxt.classList.remove("hide");
		var pct = 100 * count / maxwidth;
		if (pct != 100) pct = pct.toFixed(1)
		matchedtxt.firstChild.nodeValue = "Matched: " + pct + "%";
	}
]]>
</script>
<rect x="0.0" y="0" width="1200.0" height="283.0" fill="url(#background)"  />
<text id="title" x="600.00" y="26" >Firedrake example</text>
<text id="details" x="10.00" y="265" > </text>
<text id="unzoom" x="10.00" y="26" class="hide">Reset Zoom</text>
<text id="search" x="1090.00" y="26" >Search</text>
<text id="ignorecase" x="1174.00" y="26" >ic</text>
<text id="matched" x="1090.00" y="265" > </text>
<g id="frames">
<g >
<title>Log_Event_subkernel17_interior_facet_vert_to__exterior_facet_vert_integral_otherwise (60,542 us, 1.17%)</title><rect x="675.6" y="183" width="13.9" height="15.0" fill="rgb(0,0,0)" rx="2" ry="2" />
<text  x="678.63" y="193.5" ></text>
</g>
<g >
<title>firedrake.functionspace.MixedFunctionSpace (1,294 us, 0.03%)</title><rect x="583.8" y="71" width="0.3" height="15.0" fill="rgb(0,0,0)" rx="2" ry="2" />
<text  x="586.83" y="81.5" ></text>
</g>
<g >
<title>firedrake.functionspaceimpl.FunctionSpace.__init__ (8,292 us, 0.16%)</title><rect x="916.0" y="151" width="1.9" height="15.0" fill="rgb(0,0,0)" rx="2" ry="2" />
<text  x="919.01" y="161.5" ></text>
</g>
<g >
<title>pyop2.global_kernel.GlobalKernel.compile (35,890 us, 0.69%)</title><rect x="896.2" y="199" width="8.2" height="15.0" fill="rgb(0,0,0)" rx="2" ry="2" />
<text  x="899.18" y="209.5" ></text>
</g>
<g >
<title>firedrake.functionspacedata.FunctionSpaceData.__init__ (2,418 us, 0.05%)</title><rect x="1147.1" y="231" width="0.5" height="15.0" fill="rgb(0,0,0)" rx="2" ry="2" />
<text  x="1150.09" y="241.5" ></text>
</g>
<g >
<title>ParLoopExecute (655,026 us, 12.68%)</title><rect x="962.3" y="151" width="149.6" height="15.0" fill="rgb(0,0,0)" rx="2" ry="2" />
<text  x="965.31" y="161.5" >ParLoopExecute</text>
</g>
<g >
<title>Log_Event_subkernel13_interior_facet_horiz_bottom_to__exterior_facet_bottom_integral_otherwise (6,135 us, 0.12%)</title><rect x="789.7" y="199" width="1.4" height="15.0" fill="rgb(0,0,0)" rx="2" ry="2" />
<text  x="792.70" y="209.5" ></text>
</g>
<g >
<title>solve_getrf (41,576 us, 0.80%)</title><rect x="654.2" y="199" width="9.5" height="15.0" fill="rgb(0,0,0)" rx="2" ry="2" />
<text  x="657.20" y="209.5" ></text>
</g>
<g >
<title>Log_Event_subkernel17_interior_facet_horiz_top_to__exterior_facet_top_integral_otherwise (6,377 us, 0.12%)</title><rect x="674.2" y="183" width="1.4" height="15.0" fill="rgb(0,0,0)" rx="2" ry="2" />
<text  x="677.17" y="193.5" ></text>
</g>
<g >
<title>solve_memcpy (3,639 us, 0.07%)</title><rect x="864.3" y="215" width="0.8" height="15.0" fill="rgb(0,0,0)" rx="2" ry="2" />
<text  x="867.30" y="225.5" ></text>
</g>
<g >
<title>firedrake.ufl_expr.action (5,200 us, 0.10%)</title><rect x="584.5" y="87" width="1.2" height="15.0" fill="rgb(0,0,0)" rx="2" ry="2" />
<text  x="587.54" y="97.5" ></text>
</g>
<g >
<title>firedrake.variational_solver.NonlinearVariationalSolver.__init__ (9,494 us, 0.18%)</title><rect x="588.4" y="71" width="2.2" height="15.0" fill="rgb(0,0,0)" rx="2" ry="2" />
<text  x="591.44" y="81.5" ></text>
</g>
<g >
<title>CreateExtMesh (76,443 us, 1.48%)</title><rect x="210.6" y="71" width="17.5" height="15.0" fill="rgb(0,0,0)" rx="2" ry="2" />
<text  x="213.61" y="81.5" ></text>
</g>
<g >
<title>CreateSparsity (104,558 us, 2.02%)</title><rect x="1112.3" y="151" width="23.9" height="15.0" fill="rgb(0,0,0)" rx="2" ry="2" />
<text  x="1115.30" y="161.5" >C..</text>
</g>
<g >
<title>firedrake.functionspace.MixedFunctionSpace (3,460 us, 0.07%)</title><rect x="915.2" y="151" width="0.8" height="15.0" fill="rgb(0,0,0)" rx="2" ry="2" />
<text  x="918.22" y="161.5" ></text>
</g>
<g >
<title>Log_Event_subkernel17_interior_facet_horiz_bottom_to__exterior_facet_bottom_integral_otherwise (6,084 us, 0.12%)</title><rect x="672.8" y="183" width="1.4" height="15.0" fill="rgb(0,0,0)" rx="2" ry="2" />
<text  x="675.78" y="193.5" ></text>
</g>
<g >
<title>firedrake.parloops.par_loop (42,377 us, 0.82%)</title><rect x="641.4" y="167" width="9.7" height="15.0" fill="rgb(0,0,0)" rx="2" ry="2" />
<text  x="644.41" y="177.5" ></text>
</g>
<g >
<title>Log_Event_subkernel5_interior_facet_vert_to__exterior_facet_vert_integral_otherwise (76,670 us, 1.48%)</title><rect x="867.3" y="199" width="17.5" height="15.0" fill="rgb(0,0,0)" rx="2" ry="2" />
<text  x="870.30" y="209.5" ></text>
</g>
<g >
<title>RecoverFirstElim (528,805 us, 10.24%)</title><rect x="698.1" y="151" width="120.8" height="15.0" fill="rgb(0,0,0)" rx="2" ry="2" />
<text  x="701.12" y="161.5" >RecoverFirstE..</text>
</g>
<g >
<title>firedrake.extrusion_utils.make_extruded_coords (68,159 us, 1.32%)</title><rect x="210.7" y="87" width="15.6" height="15.0" fill="rgb(0,0,0)" rx="2" ry="2" />
<text  x="213.75" y="97.5" ></text>
</g>
<g >
<title>Log_Event_subkernel9_cell_to__cell_integral_otherwise (12,483 us, 0.24%)</title><rect x="806.5" y="199" width="2.8" height="15.0" fill="rgb(0,0,0)" rx="2" ry="2" />
<text  x="809.47" y="209.5" ></text>
</g>
<g >
<title>pyop2.global_kernel.GlobalKernel.compile (37,883 us, 0.73%)</title><rect x="1103.3" y="183" width="8.6" height="15.0" fill="rgb(0,0,0)" rx="2" ry="2" />
<text  x="1106.29" y="193.5" ></text>
</g>
<g >
<title>Log_Event_slate_loopy_knl_7 (259,436 us, 5.02%)</title><rect x="722.8" y="199" width="59.3" height="15.0" fill="rgb(0,0,0)" rx="2" ry="2" />
<text  x="725.82" y="209.5" >Log_E..</text>
</g>
<g >
<title>firedrake.variational_solver.NonlinearVariationalSolver.solve (2,623,763 us, 50.80%)</title><rect x="590.6" y="71" width="599.4" height="15.0" fill="rgb(0,0,0)" rx="2" ry="2" />
<text  x="593.61" y="81.5" >firedrake.variational_solver.NonlinearVariationalSolver.solve</text>
</g>
<g >
<title>firedrake.mesh._Facets.__init__ (629 us, 0.01%)</title><rect x="227.6" y="167" width="0.2" height="15.0" fill="rgb(0,0,0)" rx="2" ry="2" />
<text  x="230.61" y="177.5" ></text>
</g>
<g >
<title>CreateFunctionSpace (2,135 us, 0.04%)</title><rect x="915.4" y="167" width="0.5" height="15.0" fill="rgb(0,0,0)" rx="2" ry="2" />
<text  x="918.38" y="177.5" ></text>
</g>
<g >
<title>Log_Event_form0_cell_integral_otherwise (4,485 us, 0.09%)</title><rect x="1163.5" y="151" width="1.1" height="15.0" fill="rgb(0,0,0)" rx="2" ry="2" />
<text  x="1166.54" y="161.5" ></text>
</g>
<g >
<title>firedrake.formmanipulation.split_form (6,345 us, 0.12%)</title><rect x="1188.6" y="135" width="1.4" height="15.0" fill="rgb(0,0,0)" rx="2" ry="2" />
<text  x="1191.55" y="145.5" ></text>
</g>
<g >
<title>CreateFunctionSpace (6,292 us, 0.12%)</title><rect x="226.3" y="103" width="1.5" height="15.0" fill="rgb(0,0,0)" rx="2" ry="2" />
<text  x="229.32" y="113.5" ></text>
</g>
<g >
<title>Log_Event_subkernel3_interior_facet_horiz_bottom_to__exterior_facet_bottom_integral_otherwise (4,512 us, 0.09%)</title><rect x="1090.0" y="183" width="1.0" height="15.0" fill="rgb(0,0,0)" rx="2" ry="2" />
<text  x="1092.96" y="193.5" ></text>
</g>
<g >
<title>pyop2.global_kernel.GlobalKernel.compile (39,459 us, 0.76%)</title><rect x="1164.6" y="151" width="9.0" height="15.0" fill="rgb(0,0,0)" rx="2" ry="2" />
<text  x="1167.56" y="161.5" ></text>
</g>
<g >
<title>pyop2.global_kernel.GlobalKernel.compile (35,858 us, 0.69%)</title><rect x="642.9" y="215" width="8.2" height="15.0" fill="rgb(0,0,0)" rx="2" ry="2" />
<text  x="645.90" y="225.5" ></text>
</g>
<g >
<title>HybridProject (42,377 us, 0.82%)</title><rect x="641.4" y="151" width="9.7" height="15.0" fill="rgb(0,0,0)" rx="2" ry="2" />
<text  x="644.41" y="161.5" ></text>
</g>
<g >
<title>SCForwardElim (374,062 us, 7.24%)</title><rect x="818.9" y="135" width="85.5" height="15.0" fill="rgb(0,0,0)" rx="2" ry="2" />
<text  x="821.93" y="145.5" >SCForward..</text>
</g>
<g >
<title>firedrake.variational_solver.NonlinearVariationalProblem.__init__ (11,874 us, 0.23%)</title><rect x="585.7" y="87" width="2.7" height="15.0" fill="rgb(0,0,0)" rx="2" ry="2" />
<text  x="588.72" y="97.5" ></text>
</g>
<g >
<title>Log_Event_subkernel11_cell_to__cell_integral_otherwise (12,682 us, 0.25%)</title><rect x="786.8" y="199" width="2.9" height="15.0" fill="rgb(0,0,0)" rx="2" ry="2" />
<text  x="789.80" y="209.5" ></text>
</g>
<g >
<title>firedrake.ufl_expr.adjoint (3,067 us, 0.06%)</title><rect x="589.9" y="119" width="0.7" height="15.0" fill="rgb(0,0,0)" rx="2" ry="2" />
<text  x="592.90" y="129.5" ></text>
</g>
<g >
<title>Parloop_Cells_wrap_form1_cell_integral_otherwise (34,224 us, 0.66%)</title><rect x="1173.6" y="135" width="7.8" height="15.0" fill="rgb(0,0,0)" rx="2" ry="2" />
<text  x="1176.58" y="145.5" ></text>
</g>
<g >
<title>firedrake.functionspacedata.get_shared_data (22,228 us, 0.43%)</title><rect x="228.6" y="103" width="5.1" height="15.0" fill="rgb(0,0,0)" rx="2" ry="2" />
<text  x="231.59" y="113.5" ></text>
</g>
<g >
<title>Log_Event_slate_loopy_knl_0 (377,001 us, 7.30%)</title><rect x="972.8" y="183" width="86.1" height="15.0" fill="rgb(0,0,0)" rx="2" ry="2" />
<text  x="975.82" y="193.5" >Log_Event..</text>
</g>
<g >
<title>firedrake.formmanipulation.ExtractSubBlock.argument (1,253 us, 0.02%)</title><rect x="1189.7" y="167" width="0.3" height="15.0" fill="rgb(0,0,0)" rx="2" ry="2" />
<text  x="1192.71" y="177.5" ></text>
</g>
<g >
<title>firedrake.utility_meshes.SquareMesh (1,778 us, 0.03%)</title><rect x="584.1" y="71" width="0.4" height="15.0" fill="rgb(0,0,0)" rx="2" ry="2" />
<text  x="587.13" y="81.5" ></text>
</g>
<g >
<title>Log_Event_form1_cell_integral_otherwise (2,769 us, 0.05%)</title><rect x="1173.6" y="151" width="0.6" height="15.0" fill="rgb(0,0,0)" rx="2" ry="2" />
<text  x="1176.58" y="161.5" ></text>
</g>
<g >
<title>MatMult (24,995 us, 0.48%)</title><rect x="904.8" y="167" width="5.7" height="15.0" fill="rgb(0,0,0)" rx="2" ry="2" />
<text  x="907.77" y="177.5" ></text>
</g>
<g >
<title>pyop2.global_kernel.GlobalKernel.compile (32,008 us, 0.62%)</title><rect x="1154.8" y="183" width="7.3" height="15.0" fill="rgb(0,0,0)" rx="2" ry="2" />
<text  x="1157.80" y="193.5" ></text>
</g>
<g >
<title>solve_getrf (75,327 us, 1.46%)</title><rect x="846.0" y="215" width="17.2" height="15.0" fill="rgb(0,0,0)" rx="2" ry="2" />
<text  x="849.03" y="225.5" ></text>
</g>
<g >
<title>Log_Event_slate_loopy_knl_14 (49,169 us, 0.95%)</title><rect x="653.9" y="183" width="11.2" height="15.0" fill="rgb(0,0,0)" rx="2" ry="2" />
<text  x="656.86" y="193.5" ></text>
</g>
<g >
<title>ParLoopExecute (37,929 us, 0.73%)</title><rect x="217.7" y="103" width="8.6" height="15.0" fill="rgb(0,0,0)" rx="2" ry="2" />
<text  x="220.65" y="113.5" ></text>
</g>
<g >
<title>solve_getrs (7,011 us, 0.14%)</title><rect x="779.2" y="215" width="1.6" height="15.0" fill="rgb(0,0,0)" rx="2" ry="2" />
<text  x="782.21" y="225.5" ></text>
</g>
<g >
<title>solve_memcpy (3,113 us, 0.06%)</title><rect x="664.4" y="199" width="0.7" height="15.0" fill="rgb(0,0,0)" rx="2" ry="2" />
<text  x="667.38" y="209.5" ></text>
</g>
<g >
<title>Log_Event_subkernel15_cell_to__cell_integral_otherwise (20,932 us, 0.41%)</title><rect x="665.1" y="183" width="4.8" height="15.0" fill="rgb(0,0,0)" rx="2" ry="2" />
<text  x="668.09" y="193.5" ></text>
</g>
<g >
<title>Log_Event_inits_wrap_slate_loopy_knl_14 (2,811 us, 0.05%)</title><rect x="653.2" y="183" width="0.7" height="15.0" fill="rgb(0,0,0)" rx="2" ry="2" />
<text  x="656.22" y="193.5" ></text>
</g>
<g >
<title>PCSetUp (1,101,744 us, 21.33%)</title><rect x="910.9" y="103" width="251.7" height="15.0" fill="rgb(0,0,0)" rx="2" ry="2" />
<text  x="913.91" y="113.5" >PCSetUp</text>
</g>
<g >
<title>inv_getrf (41,308 us, 0.80%)</title><rect x="730.2" y="215" width="9.4" height="15.0" fill="rgb(0,0,0)" rx="2" ry="2" />
<text  x="733.20" y="225.5" ></text>
</g>
<g >
<title>firedrake.formmanipulation.ExtractSubBlock.split (3,403 us, 0.07%)</title><rect x="1189.2" y="151" width="0.8" height="15.0" fill="rgb(0,0,0)" rx="2" ry="2" />
<text  x="1192.22" y="161.5" ></text>
</g>
<g >
<title>firedrake.functionspaceimpl.FunctionSpace.__init__ (650 us, 0.01%)</title><rect x="1189.9" y="199" width="0.1" height="15.0" fill="rgb(0,0,0)" rx="2" ry="2" />
<text  x="1192.85" y="209.5" ></text>
</g>
<g >
<title>firedrake.variational_solver.LinearVariationalProblem.__init__ (17,074 us, 0.33%)</title><rect x="584.5" y="71" width="3.9" height="15.0" fill="rgb(0,0,0)" rx="2" ry="2" />
<text  x="587.54" y="81.5" ></text>
</g>
<g >
<title>ParLoopExecute (78,168 us, 1.51%)</title><rect x="1163.5" y="119" width="17.9" height="15.0" fill="rgb(0,0,0)" rx="2" ry="2" />
<text  x="1166.54" y="129.5" ></text>
</g>
<g >
<title>Log_Event_inits_wrap_slate_loopy_knl_4 (3,328 us, 0.06%)</title><rect x="844.9" y="199" width="0.8" height="15.0" fill="rgb(0,0,0)" rx="2" ry="2" />
<text  x="847.93" y="209.5" ></text>
</g>
<g >
<title>firedrake.tsfc_interface.compile_form (37,665 us, 0.73%)</title><rect x="1181.4" y="119" width="8.6" height="15.0" fill="rgb(0,0,0)" rx="2" ry="2" />
<text  x="1184.40" y="129.5" ></text>
</g>
<g >
<title>firedrake.ufl_expr.adjoint (10,860 us, 0.21%)</title><rect x="585.7" y="103" width="2.5" height="15.0" fill="rgb(0,0,0)" rx="2" ry="2" />
<text  x="588.72" y="113.5" ></text>
</g>
<g >
<title>firedrake.functionspaceimpl.FunctionSpace.__init__ (1,529 us, 0.03%)</title><rect x="915.5" y="183" width="0.4" height="15.0" fill="rgb(0,0,0)" rx="2" ry="2" />
<text  x="918.52" y="193.5" ></text>
</g>
<g >
<title>Log_Event_subkernel6_cell_to__cell_integral_otherwise (49,776 us, 0.96%)</title><rect x="884.8" y="199" width="11.4" height="15.0" fill="rgb(0,0,0)" rx="2" ry="2" />
<text  x="887.81" y="209.5" ></text>
</g>
<g >
<title>firedrake.functionspacedata.FunctionSpaceData.__init__ (6,292 us, 0.12%)</title><rect x="226.3" y="151" width="1.5" height="15.0" fill="rgb(0,0,0)" rx="2" ry="2" />
<text  x="229.32" y="161.5" ></text>
</g>
<g >
<title>CreateFunctionSpace (6,936 us, 0.13%)</title><rect x="1146.1" y="183" width="1.5" height="15.0" fill="rgb(0,0,0)" rx="2" ry="2" />
<text  x="1149.06" y="193.5" ></text>
</g>
<g >
<title>firedrake.ufl_expr.derivative (1,014 us, 0.02%)</title><rect x="588.2" y="103" width="0.2" height="15.0" fill="rgb(0,0,0)" rx="2" ry="2" />
<text  x="591.20" y="113.5" ></text>
</g>
<g >
<title>firedrake.assemble.allocate_matrix (142,944 us, 2.77%)</title><rect x="1112.2" y="135" width="32.6" height="15.0" fill="rgb(0,0,0)" rx="2" ry="2" />
<text  x="1115.16" y="145.5" >fi..</text>
</g>
<g >
<title>firedrake.mesh._Facets.__init__ (801 us, 0.02%)</title><rect x="233.5" y="151" width="0.2" height="15.0" fill="rgb(0,0,0)" rx="2" ry="2" />
<text  x="236.48" y="161.5" ></text>
</g>
<g >
<title>SCBackSub (997,250 us, 19.31%)</title><rect x="591.1" y="135" width="227.8" height="15.0" fill="rgb(0,0,0)" rx="2" ry="2" />
<text  x="594.11" y="145.5" >SCBackSub</text>
</g>
<g >
<title>pyop2.global_kernel.GlobalKernel.compile (31,455 us, 0.61%)</title><rect x="1174.2" y="151" width="7.2" height="15.0" fill="rgb(0,0,0)" rx="2" ry="2" />
<text  x="1177.21" y="161.5" ></text>
</g>
<g >
<title>firedrake.functionspaceimpl.FunctionSpace.local_to_global_map (942 us, 0.02%)</title><rect x="1111.9" y="151" width="0.3" height="15.0" fill="rgb(0,0,0)" rx="2" ry="2" />
<text  x="1114.95" y="161.5" ></text>
</g>
<g >
<title>firedrake.formmanipulation.ExtractSubBlock.argument (9,597 us, 0.19%)</title><rect x="1145.6" y="167" width="2.2" height="15.0" fill="rgb(0,0,0)" rx="2" ry="2" />
<text  x="1148.64" y="177.5" ></text>
</g>
<g >
<title>firedrake.mesh.MeshTopology._facets (2,495 us, 0.05%)</title><rect x="233.1" y="135" width="0.6" height="15.0" fill="rgb(0,0,0)" rx="2" ry="2" />
<text  x="236.10" y="145.5" ></text>
</g>
<g >
<title>Log_Event_subkernel5_interior_facet_horiz_bottom_to__exterior_facet_bottom_integral_otherwise (4,644 us, 0.09%)</title><rect x="865.1" y="199" width="1.1" height="15.0" fill="rgb(0,0,0)" rx="2" ry="2" />
<text  x="868.13" y="209.5" ></text>
</g>
<g >
<title>Mesh: numbering (722 us, 0.01%)</title><rect x="233.9" y="87" width="0.2" height="15.0" fill="rgb(0,0,0)" rx="2" ry="2" />
<text  x="236.89" y="97.5" ></text>
</g>
<g >
<title>SNESFunctionEval (119,921 us, 2.32%)</title><rect x="1162.6" y="103" width="27.4" height="15.0" fill="rgb(0,0,0)" rx="2" ry="2" />
<text  x="1165.60" y="113.5" >S..</text>
</g>
<g >
<title>firedrake.__init__ (1,530,424 us, 29.63%)</title><rect x="234.2" y="71" width="349.6" height="15.0" fill="rgb(0,0,0)" rx="2" ry="2" />
<text  x="237.21" y="81.5" >firedrake.__init__</text>
</g>
<g >
<title>firedrake.parloops.par_loop (37,008 us, 0.72%)</title><rect x="1153.7" y="135" width="8.4" height="15.0" fill="rgb(0,0,0)" rx="2" ry="2" />
<text  x="1156.65" y="145.5" ></text>
</g>
<g >
<title>firedrake.functionspaceimpl.FunctionSpace.__init__ (645 us, 0.01%)</title><rect x="915.9" y="167" width="0.1" height="15.0" fill="rgb(0,0,0)" rx="2" ry="2" />
<text  x="918.86" y="177.5" ></text>
</g>
<g >
<title>SNESSolve (2,622,257 us, 50.77%)</title><rect x="590.9" y="87" width="599.1" height="15.0" fill="rgb(0,0,0)" rx="2" ry="2" />
<text  x="593.95" y="97.5" >SNESSolve</text>
</g>
<g >
<title>CreateMesh (1,720 us, 0.03%)</title><rect x="233.7" y="71" width="0.4" height="15.0" fill="rgb(0,0,0)" rx="2" ry="2" />
<text  x="236.67" y="81.5" ></text>
</g>
<g >
<title>Parloop_Cells_wrap_par_loop_kernel (38,023 us, 0.74%)</title><rect x="820.6" y="199" width="8.7" height="15.0" fill="rgb(0,0,0)" rx="2" ry="2" />
<text  x="823.61" y="209.5" ></text>
</g>
<g >
<title>Parloop_Cells_wrap_wrap_slate_loopy_knl_4 (269,011 us, 5.21%)</title><rect x="842.9" y="183" width="61.5" height="15.0" fill="rgb(0,0,0)" rx="2" ry="2" />
<text  x="845.93" y="193.5" >Parloo..</text>
</g>
<g >
<title>Parloop_Cells_wrap_wrap_slate_loopy_knl_14 (205,861 us, 3.99%)</title><rect x="651.1" y="167" width="47.0" height="15.0" fill="rgb(0,0,0)" rx="2" ry="2" />
<text  x="654.09" y="177.5" >Parl..</text>
</g>
<g >
<title>CreateFunctionSpace (24,496 us, 0.47%)</title><rect x="228.1" y="71" width="5.6" height="15.0" fill="rgb(0,0,0)" rx="2" ry="2" />
<text  x="231.07" y="81.5" ></text>
</g>
<g >
<title>firedrake.functionspacedata.get_shared_data (2,418 us, 0.05%)</title><rect x="1147.1" y="215" width="0.5" height="15.0" fill="rgb(0,0,0)" rx="2" ry="2" />
<text  x="1150.09" y="225.5" ></text>
</g>
<g >
<title>inv_getri (184,591 us, 3.57%)</title><rect x="1015.8" y="199" width="42.2" height="15.0" fill="rgb(0,0,0)" rx="2" ry="2" />
<text  x="1018.81" y="209.5" >inv..</text>
</g>
<g >
<title>PCApply (1,897 us, 0.04%)</title><rect x="910.5" y="167" width="0.4" height="15.0" fill="rgb(0,0,0)" rx="2" ry="2" />
<text  x="913.48" y="177.5" ></text>
</g>
<g >
<title>Parloop_Cells_wrap_par_loop_kernel (35,858 us, 0.69%)</title><rect x="642.9" y="199" width="8.2" height="15.0" fill="rgb(0,0,0)" rx="2" ry="2" />
<text  x="645.90" y="209.5" ></text>
</g>
<g >
<title>firedrake.function.Function.split (1,014 us, 0.02%)</title><rect x="588.2" y="119" width="0.2" height="15.0" fill="rgb(0,0,0)" rx="2" ry="2" />
<text  x="591.20" y="129.5" ></text>
</g>
<g >
<title>Log_Event_subkernel3_interior_facet_vert_to__exterior_facet_vert_integral_otherwise (49,090 us, 0.95%)</title><rect x="1092.1" y="183" width="11.2" height="15.0" fill="rgb(0,0,0)" rx="2" ry="2" />
<text  x="1095.08" y="193.5" ></text>
</g>
<g >
<title>Parloop_Cells_wrap_wrap_slate_loopy_knl_7 (433,001 us, 8.38%)</title><rect x="719.9" y="183" width="98.9" height="15.0" fill="rgb(0,0,0)" rx="2" ry="2" />
<text  x="722.86" y="193.5" >Parloop_Ce..</text>
</g>
<g >
<title>firedrake.functionspaceimpl.FunctionSpace.__init__ (6,292 us, 0.12%)</title><rect x="226.3" y="119" width="1.5" height="15.0" fill="rgb(0,0,0)" rx="2" ry="2" />
<text  x="229.32" y="129.5" ></text>
</g>
<g >
<title>HybridRHS (328,695 us, 6.36%)</title><rect x="829.3" y="151" width="75.1" height="15.0" fill="rgb(0,0,0)" rx="2" ry="2" />
<text  x="832.29" y="161.5" >HybridRHS</text>
</g>
<g >
<title>firedrake.assemble.allocate_matrix (7,260 us, 0.14%)</title><rect x="588.9" y="87" width="1.7" height="15.0" fill="rgb(0,0,0)" rx="2" ry="2" />
<text  x="591.95" y="97.5" ></text>
</g>
<g >
<title>firedrake.interpolation.make_interpolator (24,366 us, 0.47%)</title><rect x="1148.1" y="135" width="5.6" height="15.0" fill="rgb(0,0,0)" rx="2" ry="2" />
<text  x="1151.09" y="145.5" ></text>
</g>
<g >
<title>firedrake.ufl_expr.action (4,193 us, 0.08%)</title><rect x="588.9" y="119" width="1.0" height="15.0" fill="rgb(0,0,0)" rx="2" ry="2" />
<text  x="591.95" y="129.5" ></text>
</g>
<g >
<title>inv_memcpy (2,987 us, 0.06%)</title><rect x="758.3" y="215" width="0.7" height="15.0" fill="rgb(0,0,0)" rx="2" ry="2" />
<text  x="761.35" y="225.5" ></text>
</g>
<g >
<title>PCApply (1,399,898 us, 27.10%)</title><rect x="591.1" y="119" width="319.8" height="15.0" fill="rgb(0,0,0)" rx="2" ry="2" />
<text  x="594.11" y="129.5" >PCApply</text>
</g>
<g >
<title>HybridOperatorAssembly (850,321 us, 16.46%)</title><rect x="917.9" y="135" width="194.3" height="15.0" fill="rgb(0,0,0)" rx="2" ry="2" />
<text  x="920.91" y="145.5" >HybridOperatorAssembly</text>
</g>
<g >
<title>solve_getrf (88,348 us, 1.71%)</title><rect x="759.0" y="215" width="20.2" height="15.0" fill="rgb(0,0,0)" rx="2" ry="2" />
<text  x="762.03" y="225.5" ></text>
</g>
<g >
<title>HybridBreak (45,367 us, 0.88%)</title><rect x="818.9" y="151" width="10.4" height="15.0" fill="rgb(0,0,0)" rx="2" ry="2" />
<text  x="821.93" y="161.5" ></text>
</g>
<g >
<title>Log_Event_subkernel2_cell_to__cell_integral_otherwise (50,032 us, 0.97%)</title><rect x="1078.5" y="183" width="11.5" height="15.0" fill="rgb(0,0,0)" rx="2" ry="2" />
<text  x="1081.53" y="193.5" ></text>
</g>
<g >
<title>ParLoopExecute (433,001 us, 8.38%)</title><rect x="719.9" y="167" width="98.9" height="15.0" fill="rgb(0,0,0)" rx="2" ry="2" />
<text  x="722.86" y="177.5" >ParLoopExe..</text>
</g>
<g >
<title>KSPSolve (1,399,898 us, 27.10%)</title><rect x="591.1" y="103" width="319.8" height="15.0" fill="rgb(0,0,0)" rx="2" ry="2" />
<text  x="594.11" y="113.5" >KSPSolve</text>
</g>
<g >
<title>Log_Event_subkernel13_interior_facet_horiz_top_to__exterior_facet_top_integral_otherwise (6,426 us, 0.12%)</title><rect x="791.1" y="199" width="1.5" height="15.0" fill="rgb(0,0,0)" rx="2" ry="2" />
<text  x="794.10" y="209.5" ></text>
</g>
<g >
<title>Parloop_Cells_wrap_wrap_slate_loopy_knl_0 (655,026 us, 12.68%)</title><rect x="962.3" y="167" width="149.6" height="15.0" fill="rgb(0,0,0)" rx="2" ry="2" />
<text  x="965.31" y="177.5" >Parloop_Cells_wra..</text>
</g>
<g >
<title>Log_Event_subkernel1_interior_facet_horiz_bottom_to__exterior_facet_bottom_integral_otherwise (4,861 us, 0.09%)</title><rect x="1058.9" y="183" width="1.2" height="15.0" fill="rgb(0,0,0)" rx="2" ry="2" />
<text  x="1061.95" y="193.5" ></text>
</g>
<g >
<title>CreateMesh (612 us, 0.01%)</title><rect x="584.4" y="103" width="0.1" height="15.0" fill="rgb(0,0,0)" rx="2" ry="2" />
<text  x="587.40" y="113.5" ></text>
</g>
<g >
<title>Log_Event_subkernel16_cell_to__cell_integral_otherwise (12,725 us, 0.25%)</title><rect x="669.9" y="183" width="2.9" height="15.0" fill="rgb(0,0,0)" rx="2" ry="2" />
<text  x="672.88" y="193.5" ></text>
</g>
<g >
<title>firedrake.formmanipulation.ExtractSubBlock.split (13,217 us, 0.26%)</title><rect x="1144.8" y="151" width="3.0" height="15.0" fill="rgb(0,0,0)" rx="2" ry="2" />
<text  x="1147.82" y="161.5" ></text>
</g>
<g >
<title>Parloop_Cells_wrap_par_loop_kernel (32,008 us, 0.62%)</title><rect x="1154.8" y="167" width="7.3" height="15.0" fill="rgb(0,0,0)" rx="2" ry="2" />
<text  x="1157.80" y="177.5" ></text>
</g>
<g >
<title>firedrake.functionspaceimpl.FunctionSpace.__init__ (3,320 us, 0.06%)</title><rect x="1146.9" y="199" width="0.7" height="15.0" fill="rgb(0,0,0)" rx="2" ry="2" />
<text  x="1149.89" y="209.5" ></text>
</g>
<g >
<title>HybridInit (1,101,744 us, 21.33%)</title><rect x="910.9" y="119" width="251.7" height="15.0" fill="rgb(0,0,0)" rx="2" ry="2" />
<text  x="913.91" y="129.5" >HybridInit</text>
</g>
<g >
<title>MatAssemblyEnd (750 us, 0.01%)</title><rect x="1136.2" y="151" width="0.2" height="15.0" fill="rgb(0,0,0)" rx="2" ry="2" />
<text  x="1139.19" y="161.5" ></text>
</g>
<g >
<title>Log_Event_subkernel5_interior_facet_horiz_top_to__exterior_facet_top_integral_otherwise (4,829 us, 0.09%)</title><rect x="866.2" y="199" width="1.1" height="15.0" fill="rgb(0,0,0)" rx="2" ry="2" />
<text  x="869.19" y="209.5" ></text>
</g>
<g >
<title>pyop2.global_kernel.GlobalKernel.compile (37,923 us, 0.73%)</title><rect x="689.5" y="183" width="8.6" height="15.0" fill="rgb(0,0,0)" rx="2" ry="2" />
<text  x="692.46" y="193.5" ></text>
</g>
<g >
<title>firedrake.functionspacedata.FunctionSpaceData.__init__ (22,228 us, 0.43%)</title><rect x="228.6" y="119" width="5.1" height="15.0" fill="rgb(0,0,0)" rx="2" ry="2" />
<text  x="231.59" y="129.5" ></text>
</g>
<g >
<title>firedrake.functionspacedata.get_shared_data (8,292 us, 0.16%)</title><rect x="916.0" y="167" width="1.9" height="15.0" fill="rgb(0,0,0)" rx="2" ry="2" />
<text  x="919.01" y="177.5" ></text>
</g>
<g >
<title>Log_Event_subkernel1_interior_facet_horiz_top_to__exterior_facet_top_integral_otherwise (5,253 us, 0.10%)</title><rect x="1060.1" y="183" width="1.2" height="15.0" fill="rgb(0,0,0)" rx="2" ry="2" />
<text  x="1063.06" y="193.5" ></text>
</g>
<g >
<title>firedrake.function.Function.split (648 us, 0.01%)</title><rect x="818.8" y="167" width="0.1" height="15.0" fill="rgb(0,0,0)" rx="2" ry="2" />
<text  x="821.78" y="177.5" ></text>
</g>
<g >
<title>all (5,165,277 us, 100%)</title><rect x="10.0" y="39" width="1180.0" height="15.0" fill="rgb(0,0,0)" rx="2" ry="2" />
<text  x="13.00" y="49.5" ></text>
</g>
<g >
<title>inv_getri (81,886 us, 1.59%)</title><rect x="739.6" y="215" width="18.7" height="15.0" fill="rgb(0,0,0)" rx="2" ry="2" />
<text  x="742.64" y="225.5" ></text>
</g>
<g >
<title>pyop2.global_kernel.GlobalKernel.compile (41,388 us, 0.80%)</title><rect x="809.3" y="199" width="9.5" height="15.0" fill="rgb(0,0,0)" rx="2" ry="2" />
<text  x="812.33" y="209.5" ></text>
</g>
<g >
<title>firedrake (5,165,277 us, 100.00%)</title><rect x="10.0" y="55" width="1180.0" height="15.0" fill="rgb(0,0,0)" rx="2" ry="2" />
<text  x="13.00" y="65.5" >firedrake</text>
</g>
<g >
<title>firedrake.mesh.make_mesh_from_coordinates (621 us, 0.01%)</title><rect x="227.9" y="87" width="0.2" height="15.0" fill="rgb(0,0,0)" rx="2" ry="2" />
<text  x="230.93" y="97.5" ></text>
</g>
<g >
<title>firedrake.functionspaceimpl.FunctionSpace.__init__ (618 us, 0.01%)</title><rect x="584.0" y="87" width="0.1" height="15.0" fill="rgb(0,0,0)" rx="2" ry="2" />
<text  x="586.99" y="97.5" ></text>
</g>
<g >
<title>SCSolve (28,586 us, 0.55%)</title><rect x="904.4" y="135" width="6.5" height="15.0" fill="rgb(0,0,0)" rx="2" ry="2" />
<text  x="907.38" y="145.5" ></text>
</g>
<g >
<title>MatZeroInitial (37,032 us, 0.72%)</title><rect x="1136.4" y="151" width="8.4" height="15.0" fill="rgb(0,0,0)" rx="2" ry="2" />
<text  x="1139.36" y="161.5" ></text>
</g>
<g >
<title>Log_Event_inits_wrap_slate_loopy_knl_7 (3,379 us, 0.07%)</title><rect x="722.0" y="199" width="0.8" height="15.0" fill="rgb(0,0,0)" rx="2" ry="2" />
<text  x="725.05" y="209.5" ></text>
</g>
<g >
<title>firedrake.formmanipulation.split_form (13,217 us, 0.26%)</title><rect x="1144.8" y="135" width="3.0" height="15.0" fill="rgb(0,0,0)" rx="2" ry="2" />
<text  x="1147.82" y="145.5" ></text>
</g>
<g >
<title>ParLoopExecute (35,858 us, 0.69%)</title><rect x="642.9" y="183" width="8.2" height="15.0" fill="rgb(0,0,0)" rx="2" ry="2" />
<text  x="645.90" y="193.5" ></text>
</g>
<g >
<title>CreateFunctionSpace (12,377 us, 0.24%)</title><rect x="915.1" y="135" width="2.8" height="15.0" fill="rgb(0,0,0)" rx="2" ry="2" />
<text  x="918.08" y="145.5" ></text>
</g>
<g >
<title>firedrake.functionspaceimpl.FunctionSpace.__init__ (23,039 us, 0.45%)</title><rect x="228.4" y="87" width="5.3" height="15.0" fill="rgb(0,0,0)" rx="2" ry="2" />
<text  x="231.40" y="97.5" ></text>
</g>
<g >
<title>solve_getrs (4,647 us, 0.09%)</title><rect x="863.2" y="215" width="1.1" height="15.0" fill="rgb(0,0,0)" rx="2" ry="2" />
<text  x="866.24" y="225.5" ></text>
</g>
<g >
<title>FunctionSpaceData: CreateElement (7,466 us, 0.14%)</title><rect x="916.2" y="199" width="1.7" height="15.0" fill="rgb(0,0,0)" rx="2" ry="2" />
<text  x="919.20" y="209.5" ></text>
</g>
<g >
<title>firedrake.functionspacedata.get_shared_data (1,529 us, 0.03%)</title><rect x="915.5" y="199" width="0.4" height="15.0" fill="rgb(0,0,0)" rx="2" ry="2" />
<text  x="918.52" y="209.5" ></text>
</g>
<g >
<title>Log_Event_subkernel10_cell_to__cell_integral_otherwise (20,648 us, 0.40%)</title><rect x="782.1" y="199" width="4.7" height="15.0" fill="rgb(0,0,0)" rx="2" ry="2" />
<text  x="785.09" y="209.5" ></text>
</g>
<g >
<title>firedrake.functionspaceimpl.WithGeometry.split (826 us, 0.02%)</title><rect x="1147.6" y="183" width="0.2" height="15.0" fill="rgb(0,0,0)" rx="2" ry="2" />
<text  x="1150.65" y="193.5" ></text>
</g>
<g >
<title>Parloop_Cells_wrap_form0_cell_integral_otherwise (43,944 us, 0.85%)</title><rect x="1163.5" y="135" width="10.1" height="15.0" fill="rgb(0,0,0)" rx="2" ry="2" />
<text  x="1166.54" y="145.5" ></text>
</g>
<g >
<title>firedrake.parloops.par_loop (44,482 us, 0.86%)</title><rect x="819.1" y="167" width="10.2" height="15.0" fill="rgb(0,0,0)" rx="2" ry="2" />
<text  x="822.13" y="177.5" ></text>
</g>
<g >
<title>firedrake.ufl_expr.adjoint (2,174 us, 0.04%)</title><rect x="1162.1" y="135" width="0.5" height="15.0" fill="rgb(0,0,0)" rx="2" ry="2" />
<text  x="1165.11" y="145.5" ></text>
</g>
<g >
<title>pyop2.global_kernel.GlobalKernel.compile (36,821 us, 0.71%)</title><rect x="217.9" y="135" width="8.4" height="15.0" fill="rgb(0,0,0)" rx="2" ry="2" />
<text  x="220.90" y="145.5" ></text>
</g>
<g >
<title>firedrake.mesh.ExtrudedMeshTopology.__init__ (766 us, 0.01%)</title><rect x="227.8" y="87" width="0.1" height="15.0" fill="rgb(0,0,0)" rx="2" ry="2" />
<text  x="230.75" y="97.5" ></text>
</g>
<g >
<title>Log_Event_subkernel3_interior_facet_horiz_top_to__exterior_facet_top_integral_otherwise (4,748 us, 0.09%)</title><rect x="1091.0" y="183" width="1.1" height="15.0" fill="rgb(0,0,0)" rx="2" ry="2" />
<text  x="1093.99" y="193.5" ></text>
</g>
<g >
<title>pyop2.global_kernel.GlobalKernel.compile (38,023 us, 0.74%)</title><rect x="820.6" y="215" width="8.7" height="15.0" fill="rgb(0,0,0)" rx="2" ry="2" />
<text  x="823.61" y="225.5" ></text>
</g>
<g >
<title>firedrake.functionspace.make_scalar_element (759 us, 0.01%)</title><rect x="228.2" y="87" width="0.2" height="15.0" fill="rgb(0,0,0)" rx="2" ry="2" />
<text  x="231.23" y="97.5" ></text>
</g>
<g >
<title>ParLoopExecute (32,008 us, 0.62%)</title><rect x="1154.8" y="151" width="7.3" height="15.0" fill="rgb(0,0,0)" rx="2" ry="2" />
<text  x="1157.80" y="161.5" ></text>
</g>
<g >
<title>firedrake.functionspace.VectorFunctionSpace (6,292 us, 0.12%)</title><rect x="226.3" y="87" width="1.5" height="15.0" fill="rgb(0,0,0)" rx="2" ry="2" />
<text  x="229.32" y="97.5" ></text>
</g>
<g >
<title>Log_Event_subkernel13_interior_facet_vert_to__exterior_facet_vert_integral_otherwise (60,864 us, 1.18%)</title><rect x="792.6" y="199" width="13.9" height="15.0" fill="rgb(0,0,0)" rx="2" ry="2" />
<text  x="795.57" y="209.5" ></text>
</g>
<g >
<title>FunctionSpaceData: CreateElement (808 us, 0.02%)</title><rect x="227.4" y="167" width="0.2" height="15.0" fill="rgb(0,0,0)" rx="2" ry="2" />
<text  x="230.43" y="177.5" ></text>
</g>
<g >
<title>firedrake.utility_meshes.RectangleMesh (1,778 us, 0.03%)</title><rect x="584.1" y="87" width="0.4" height="15.0" fill="rgb(0,0,0)" rx="2" ry="2" />
<text  x="587.13" y="97.5" ></text>
</g>
<g >
<title>solve_getrs (3,017 us, 0.06%)</title><rect x="663.7" y="199" width="0.7" height="15.0" fill="rgb(0,0,0)" rx="2" ry="2" />
<text  x="666.69" y="209.5" ></text>
</g>
<g >
<title>Log_Event_subkernel1_interior_facet_vert_to__exterior_facet_vert_integral_otherwise (75,622 us, 1.46%)</title><rect x="1061.3" y="183" width="17.2" height="15.0" fill="rgb(0,0,0)" rx="2" ry="2" />
<text  x="1064.26" y="193.5" ></text>
</g>
<g >
<title>CreateFunctionSpace (1,253 us, 0.02%)</title><rect x="1189.7" y="183" width="0.3" height="15.0" fill="rgb(0,0,0)" rx="2" ry="2" />
<text  x="1192.71" y="193.5" ></text>
</g>
<g >
<title>Log_Event_inits_wrap_slate_loopy_knl_0 (4,615 us, 0.09%)</title><rect x="971.8" y="183" width="1.0" height="15.0" fill="rgb(0,0,0)" rx="2" ry="2" />
<text  x="974.77" y="193.5" ></text>
</g>
<g >
<title>inv_memcpy (4,209 us, 0.08%)</title><rect x="1058.0" y="199" width="0.9" height="15.0" fill="rgb(0,0,0)" rx="2" ry="2" />
<text  x="1060.98" y="209.5" ></text>
</g>
<g >
<title>PetscBarrier (663 us, 0.01%)</title><rect x="234.1" y="71" width="0.1" height="15.0" fill="rgb(0,0,0)" rx="2" ry="2" />
<text  x="237.06" y="81.5" ></text>
</g>
<g >
<title>firedrake.functionspacedata.get_shared_data (6,292 us, 0.12%)</title><rect x="226.3" y="135" width="1.5" height="15.0" fill="rgb(0,0,0)" rx="2" ry="2" />
<text  x="229.32" y="145.5" ></text>
</g>
<g >
<title>Log_Event_slate_loopy_knl_4 (85,116 us, 1.65%)</title><rect x="845.7" y="199" width="19.4" height="15.0" fill="rgb(0,0,0)" rx="2" ry="2" />
<text  x="848.69" y="209.5" ></text>
</g>
<g >
<title>ParLoopExecute (205,861 us, 3.99%)</title><rect x="651.1" y="151" width="47.0" height="15.0" fill="rgb(0,0,0)" rx="2" ry="2" />
<text  x="654.09" y="161.5" >ParL..</text>
</g>
<g >
<title>solve_memcpy (5,572 us, 0.11%)</title><rect x="780.8" y="215" width="1.3" height="15.0" fill="rgb(0,0,0)" rx="2" ry="2" />
<text  x="783.81" y="225.5" ></text>
</g>
<g >
<title>Parloop_Cells_wrap_pyop2_kernel_uniform_extrusion (36,821 us, 0.71%)</title><rect x="217.9" y="119" width="8.4" height="15.0" fill="rgb(0,0,0)" rx="2" ry="2" />
<text  x="220.90" y="129.5" ></text>
</g>
<g >
<title>firedrake.functionspace.make_scalar_element (1,661 us, 0.03%)</title><rect x="1146.5" y="199" width="0.4" height="15.0" fill="rgb(0,0,0)" rx="2" ry="2" />
<text  x="1149.51" y="209.5" ></text>
</g>
<g >
<title>firedrake.matrix_free.operators.ImplicitMatrixContext.__init__ (7,260 us, 0.14%)</title><rect x="588.9" y="103" width="1.7" height="15.0" fill="rgb(0,0,0)" rx="2" ry="2" />
<text  x="591.95" y="113.5" ></text>
</g>
<g >
<title>firedrake.functionspacedata.FunctionSpaceData.__init__ (8,292 us, 0.16%)</title><rect x="916.0" y="183" width="1.9" height="15.0" fill="rgb(0,0,0)" rx="2" ry="2" />
<text  x="919.01" y="193.5" ></text>
</g>
<g >
<title>ParLoopExecute (38,023 us, 0.74%)</title><rect x="820.6" y="183" width="8.7" height="15.0" fill="rgb(0,0,0)" rx="2" ry="2" />
<text  x="823.61" y="193.5" ></text>
</g>
<g >
<title>KSPSolve (28,586 us, 0.55%)</title><rect x="904.4" y="151" width="6.5" height="15.0" fill="rgb(0,0,0)" rx="2" ry="2" />
<text  x="907.38" y="161.5" ></text>
</g>
<g >
<title>firedrake.function.Function.__init__ (1,098 us, 0.02%)</title><rect x="1147.8" y="135" width="0.3" height="15.0" fill="rgb(0,0,0)" rx="2" ry="2" />
<text  x="1150.84" y="145.5" ></text>
</g>
<g >
<title>firedrake.functionspacedata.FunctionSpaceData.__init__ (1,529 us, 0.03%)</title><rect x="915.5" y="215" width="0.4" height="15.0" fill="rgb(0,0,0)" rx="2" ry="2" />
<text  x="918.52" y="225.5" ></text>
</g>
<g >
<title>inv_getrf (77,617 us, 1.50%)</title><rect x="998.1" y="199" width="17.7" height="15.0" fill="rgb(0,0,0)" rx="2" ry="2" />
<text  x="1001.08" y="209.5" ></text>
</g>
<g >
<title>FunctionSpaceData: CreateElement (10,084 us, 0.20%)</title><rect x="230.8" y="135" width="2.3" height="15.0" fill="rgb(0,0,0)" rx="2" ry="2" />
<text  x="233.79" y="145.5" ></text>
</g>
<g >
<title>ParLoopExecute (269,011 us, 5.21%)</title><rect x="842.9" y="167" width="61.5" height="15.0" fill="rgb(0,0,0)" rx="2" ry="2" />
<text  x="845.93" y="177.5" >ParLoo..</text>
</g>
</g>
</svg>
