<?xml version="1.0" standalone="no"?>
<!DOCTYPE svg PUBLIC "-//W3C//DTD SVG 1.1//EN" "http://www.w3.org/Graphics/SVG/1.1/DTD/svg11.dtd">
<svg version="1.1" width="1200" height="331" onload="init(evt)" viewBox="0 0 1200 331" xmlns="http://www.w3.org/2000/svg" xmlns:xlink="http://www.w3.org/1999/xlink">
<!-- Flame graph stack visualization. See https://github.com/brendangregg/FlameGraph for latest version, and http://www.brendangregg.com/flamegraphs.html for examples. -->
<!-- NOTES:  -->
<defs>
	<linearGradient id="background" y1="0" y2="1" x1="0" x2="0" >
		<stop stop-color="#eeeeee" offset="5%" />
		<stop stop-color="#eeeeb0" offset="95%" />
	</linearGradient>
</defs>
<style type="text/css">
	text { font-family:Verdana; font-size:13px; fill:rgb(0,0,0); }
	#search, #ignorecase { opacity:0.1; cursor:pointer; }
	#search:hover, #search.show, #ignorecase:hover, #ignorecase.show { opacity:1; }
	#subtitle { text-anchor:middle; font-color:rgb(160,160,160); }
	#title { text-anchor:middle; font-size:18px}
	#unzoom { cursor:pointer; }
	#frames > *:hover { stroke:black; stroke-width:0.5; cursor:pointer; }
	.hide { display:none; }
	.parent { opacity:0.5; }
</style>
<script type="text/ecmascript">
<![CDATA[
	"use strict";
	var details, searchbtn, unzoombtn, matchedtxt, svg, searching, currentSearchTerm, ignorecase, ignorecaseBtn;
	function init(evt) {
		details = document.getElementById("details").firstChild;
		searchbtn = document.getElementById("search");
		ignorecaseBtn = document.getElementById("ignorecase");
		unzoombtn = document.getElementById("unzoom");
		matchedtxt = document.getElementById("matched");
		svg = document.getElementsByTagName("svg")[0];
		searching = 0;
		currentSearchTerm = null;

		// use GET parameters to restore a flamegraphs state.
		var params = get_params();
		if (params.x && params.y)
			zoom(find_group(document.querySelector('[x="' + params.x + '"][y="' + params.y + '"]')));
                if (params.s) search(params.s);
	}

	// event listeners
	window.addEventListener("click", function(e) {
		var target = find_group(e.target);
		if (target) {
			if (target.nodeName == "a") {
				if (e.ctrlKey === false) return;
				e.preventDefault();
			}
			if (target.classList.contains("parent")) unzoom();
			zoom(target);
			if (!document.querySelector('.parent')) {
				clearzoom();
				return;
			}

			// set parameters for zoom state
			var el = target.querySelector("rect");
			if (el && el.attributes && el.attributes.y && el.attributes._orig_x) {
				var params = get_params()
				params.x = el.attributes._orig_x.value;
				params.y = el.attributes.y.value;
				history.replaceState(null, null, parse_params(params));
			}
		}
		else if (e.target.id == "unzoom") clearzoom();
		else if (e.target.id == "search") search_prompt();
		else if (e.target.id == "ignorecase") toggle_ignorecase();
	}, false)

	// mouse-over for info
	// show
	window.addEventListener("mouseover", function(e) {
		var target = find_group(e.target);
		if (target) details.nodeValue = "Function: " + g_to_text(target);
	}, false)

	// clear
	window.addEventListener("mouseout", function(e) {
		var target = find_group(e.target);
		if (target) details.nodeValue = ' ';
	}, false)

	// ctrl-F for search
	// ctrl-I to toggle case-sensitive search
	window.addEventListener("keydown",function (e) {
		if (e.keyCode === 114 || (e.ctrlKey && e.keyCode === 70)) {
			e.preventDefault();
			search_prompt();
		}
		else if (e.ctrlKey && e.keyCode === 73) {
			e.preventDefault();
			toggle_ignorecase();
		}
	}, false)

	// functions
	function get_params() {
		var params = {};
		var paramsarr = window.location.search.substr(1).split('&');
		for (var i = 0; i < paramsarr.length; ++i) {
			var tmp = paramsarr[i].split("=");
			if (!tmp[0] || !tmp[1]) continue;
			params[tmp[0]]  = decodeURIComponent(tmp[1]);
		}
		return params;
	}
	function parse_params(params) {
		var uri = "?";
		for (var key in params) {
			uri += key + '=' + encodeURIComponent(params[key]) + '&';
		}
		if (uri.slice(-1) == "&")
			uri = uri.substring(0, uri.length - 1);
		if (uri == '?')
			uri = window.location.href.split('?')[0];
		return uri;
	}
	function find_child(node, selector) {
		var children = node.querySelectorAll(selector);
		if (children.length) return children[0];
	}
	function find_group(node) {
		var parent = node.parentElement;
		if (!parent) return;
		if (parent.id == "frames") return node;
		return find_group(parent);
	}
	function orig_save(e, attr, val) {
		if (e.attributes["_orig_" + attr] != undefined) return;
		if (e.attributes[attr] == undefined) return;
		if (val == undefined) val = e.attributes[attr].value;
		e.setAttribute("_orig_" + attr, val);
	}
	function orig_load(e, attr) {
		if (e.attributes["_orig_"+attr] == undefined) return;
		e.attributes[attr].value = e.attributes["_orig_" + attr].value;
		e.removeAttribute("_orig_"+attr);
	}
	function g_to_text(e) {
		var text = find_child(e, "title").firstChild.nodeValue;
		return (text)
	}
	function g_to_func(e) {
		var func = g_to_text(e);
		// if there's any manipulation we want to do to the function
		// name before it's searched, do it here before returning.
		return (func);
	}
	function update_text(e) {
		var r = find_child(e, "rect");
		var t = find_child(e, "text");
		var w = parseFloat(r.attributes.width.value) -3;
		var txt = find_child(e, "title").textContent.replace(/\([^(]*\)$/,"");
		t.attributes.x.value = parseFloat(r.attributes.x.value) + 3;

		// Smaller than this size won't fit anything
		if (w < 2 * 13 * 0.59) {
			t.textContent = "";
			return;
		}

		t.textContent = txt;
		// Fit in full text width
		if (/^ *$/.test(txt) || t.getSubStringLength(0, txt.length) < w)
			return;

		for (var x = txt.length - 2; x > 0; x--) {
			if (t.getSubStringLength(0, x + 2) <= w) {
				t.textContent = txt.substring(0, x) + "..";
				return;
			}
		}
		t.textContent = "";
	}

	// zoom
	function zoom_reset(e) {
		if (e.attributes != undefined) {
			orig_load(e, "x");
			orig_load(e, "width");
		}
		if (e.childNodes == undefined) return;
		for (var i = 0, c = e.childNodes; i < c.length; i++) {
			zoom_reset(c[i]);
		}
	}
	function zoom_child(e, x, ratio) {
		if (e.attributes != undefined) {
			if (e.attributes.x != undefined) {
				orig_save(e, "x");
				e.attributes.x.value = (parseFloat(e.attributes.x.value) - x - 10) * ratio + 10;
				if (e.tagName == "text")
					e.attributes.x.value = find_child(e.parentNode, "rect[x]").attributes.x.value + 3;
			}
			if (e.attributes.width != undefined) {
				orig_save(e, "width");
				e.attributes.width.value = parseFloat(e.attributes.width.value) * ratio;
			}
		}

		if (e.childNodes == undefined) return;
		for (var i = 0, c = e.childNodes; i < c.length; i++) {
			zoom_child(c[i], x - 10, ratio);
		}
	}
	function zoom_parent(e) {
		if (e.attributes) {
			if (e.attributes.x != undefined) {
				orig_save(e, "x");
				e.attributes.x.value = 10;
			}
			if (e.attributes.width != undefined) {
				orig_save(e, "width");
				e.attributes.width.value = parseInt(svg.width.baseVal.value) - (10 * 2);
			}
		}
		if (e.childNodes == undefined) return;
		for (var i = 0, c = e.childNodes; i < c.length; i++) {
			zoom_parent(c[i]);
		}
	}
	function zoom(node) {
		var attr = find_child(node, "rect").attributes;
		var width = parseFloat(attr.width.value);
		var xmin = parseFloat(attr.x.value);
		var xmax = parseFloat(xmin + width);
		var ymin = parseFloat(attr.y.value);
		var ratio = (svg.width.baseVal.value - 2 * 10) / width;

		// XXX: Workaround for JavaScript float issues (fix me)
		var fudge = 0.0001;

		unzoombtn.classList.remove("hide");

		var el = document.getElementById("frames").children;
		for (var i = 0; i < el.length; i++) {
			var e = el[i];
			var a = find_child(e, "rect").attributes;
			var ex = parseFloat(a.x.value);
			var ew = parseFloat(a.width.value);
			var upstack;
			// Is it an ancestor
			if (1 == 0) {
				upstack = parseFloat(a.y.value) > ymin;
			} else {
				upstack = parseFloat(a.y.value) < ymin;
			}
			if (upstack) {
				// Direct ancestor
				if (ex <= xmin && (ex+ew+fudge) >= xmax) {
					e.classList.add("parent");
					zoom_parent(e);
					update_text(e);
				}
				// not in current path
				else
					e.classList.add("hide");
			}
			// Children maybe
			else {
				// no common path
				if (ex < xmin || ex + fudge >= xmax) {
					e.classList.add("hide");
				}
				else {
					zoom_child(e, xmin, ratio);
					update_text(e);
				}
			}
		}
		search();
	}
	function unzoom() {
		unzoombtn.classList.add("hide");
		var el = document.getElementById("frames").children;
		for(var i = 0; i < el.length; i++) {
			el[i].classList.remove("parent");
			el[i].classList.remove("hide");
			zoom_reset(el[i]);
			update_text(el[i]);
		}
		search();
	}
	function clearzoom() {
		unzoom();

		// remove zoom state
		var params = get_params();
		if (params.x) delete params.x;
		if (params.y) delete params.y;
		history.replaceState(null, null, parse_params(params));
	}

	// search
	function toggle_ignorecase() {
		ignorecase = !ignorecase;
		if (ignorecase) {
			ignorecaseBtn.classList.add("show");
		} else {
			ignorecaseBtn.classList.remove("show");
		}
		reset_search();
		search();
	}
	function reset_search() {
		var el = document.querySelectorAll("#frames rect");
		for (var i = 0; i < el.length; i++) {
			orig_load(el[i], "fill")
		}
		var params = get_params();
		delete params.s;
		history.replaceState(null, null, parse_params(params));
	}
	function search_prompt() {
		if (!searching) {
			var term = prompt("Enter a search term (regexp " +
			    "allowed, eg: ^ext4_)"
			    + (ignorecase ? ", ignoring case" : "")
			    + "\nPress Ctrl-i to toggle case sensitivity", "");
			if (term != null) search(term);
		} else {
			reset_search();
			searching = 0;
			currentSearchTerm = null;
			searchbtn.classList.remove("show");
			searchbtn.firstChild.nodeValue = "Search"
			matchedtxt.classList.add("hide");
			matchedtxt.firstChild.nodeValue = ""
		}
	}
	function search(term) {
		if (term) currentSearchTerm = term;

		var re = new RegExp(currentSearchTerm, ignorecase ? 'i' : '');
		var el = document.getElementById("frames").children;
		var matches = new Object();
		var maxwidth = 0;
		for (var i = 0; i < el.length; i++) {
			var e = el[i];
			var func = g_to_func(e);
			var rect = find_child(e, "rect");
			if (func == null || rect == null)
				continue;

			// Save max width. Only works as we have a root frame
			var w = parseFloat(rect.attributes.width.value);
			if (w > maxwidth)
				maxwidth = w;

			if (func.match(re)) {
				// highlight
				var x = parseFloat(rect.attributes.x.value);
				orig_save(rect, "fill");
				rect.attributes.fill.value = "rgb(230,0,230)";

				// remember matches
				if (matches[x] == undefined) {
					matches[x] = w;
				} else {
					if (w > matches[x]) {
						// overwrite with parent
						matches[x] = w;
					}
				}
				searching = 1;
			}
		}
		if (!searching)
			return;
		var params = get_params();
		params.s = currentSearchTerm;
		history.replaceState(null, null, parse_params(params));

		searchbtn.classList.add("show");
		searchbtn.firstChild.nodeValue = "Reset Search";

		// calculate percent matched, excluding vertical overlap
		var count = 0;
		var lastx = -1;
		var lastw = 0;
		var keys = Array();
		for (k in matches) {
			if (matches.hasOwnProperty(k))
				keys.push(k);
		}
		// sort the matched frames by their x location
		// ascending, then width descending
		keys.sort(function(a, b){
			return a - b;
		});
		// Step through frames saving only the biggest bottom-up frames
		// thanks to the sort order. This relies on the tree property
		// where children are always smaller than their parents.
		var fudge = 0.0001;	// JavaScript floating point
		for (var k in keys) {
			var x = parseFloat(keys[k]);
			var w = matches[keys[k]];
			if (x >= lastx + lastw - fudge) {
				count += w;
				lastx = x;
				lastw = w;
			}
		}
		// display matched percent
		matchedtxt.classList.remove("hide");
		var pct = 100 * count / maxwidth;
		if (pct != 100) pct = pct.toFixed(1)
		matchedtxt.firstChild.nodeValue = "Matched: " + pct + "%";
	}
]]>
</script>
<rect x="0.0" y="0" width="1200.0" height="331.0" fill="url(#background)"  />
<text id="title" x="600.00" y="26" >Firedrake example</text>
<text id="details" x="10.00" y="313" > </text>
<text id="unzoom" x="10.00" y="26" class="hide">Reset Zoom</text>
<text id="search" x="1090.00" y="26" >Search</text>
<text id="ignorecase" x="1174.00" y="26" >ic</text>
<text id="matched" x="1090.00" y="313" > </text>
<g id="frames">
<g >
<title>pyop2.global_kernel.GlobalKernel.compile (32,546 us, 0.97%)</title><rect x="1137.5" y="151" width="11.4" height="15.0" fill="rgb(0,0,0)" rx="2" ry="2" />
<text  x="1140.52" y="161.5" ></text>
</g>
<g >
<title>firedrake.formmanipulation.split_form (6,180 us, 0.18%)</title><rect x="1133.9" y="135" width="2.2" height="15.0" fill="rgb(0,0,0)" rx="2" ry="2" />
<text  x="1136.94" y="145.5" ></text>
</g>
<g >
<title>KSPSolve (3,575 us, 0.11%)</title><rect x="1083.4" y="151" width="1.2" height="15.0" fill="rgb(0,0,0)" rx="2" ry="2" />
<text  x="1086.37" y="161.5" ></text>
</g>
<g >
<title>firedrake.functionspace.MixedFunctionSpace (2,393 us, 0.07%)</title><rect x="1086.2" y="167" width="0.9" height="15.0" fill="rgb(0,0,0)" rx="2" ry="2" />
<text  x="1089.22" y="177.5" ></text>
</g>
<g >
<title>firedrake.norms.errornorm (248,547 us, 7.39%)</title><rect x="983.7" y="71" width="87.2" height="15.0" fill="rgb(0,0,0)" rx="2" ry="2" />
<text  x="986.68" y="81.5" >firedrake..</text>
</g>
<g >
<title>KSPSolve (2,966 us, 0.09%)</title><rect x="1083.6" y="183" width="1.0" height="15.0" fill="rgb(0,0,0)" rx="2" ry="2" />
<text  x="1086.59" y="193.5" ></text>
</g>
<g >
<title>CreateFunctionSpace (3,595 us, 0.11%)</title><rect x="1090.6" y="183" width="1.3" height="15.0" fill="rgb(0,0,0)" rx="2" ry="2" />
<text  x="1093.60" y="193.5" ></text>
</g>
<g >
<title>MatMult (2,966 us, 0.09%)</title><rect x="1083.6" y="167" width="1.0" height="15.0" fill="rgb(0,0,0)" rx="2" ry="2" />
<text  x="1086.59" y="177.5" ></text>
</g>
<g >
<title>firedrake.functionspacedata.get_shared_data (1,664 us, 0.05%)</title><rect x="1189.4" y="215" width="0.6" height="15.0" fill="rgb(0,0,0)" rx="2" ry="2" />
<text  x="1192.42" y="225.5" ></text>
</g>
<g >
<title>firedrake.utility_meshes.SquareMesh (1,641 us, 0.05%)</title><rect x="1070.9" y="71" width="0.6" height="15.0" fill="rgb(0,0,0)" rx="2" ry="2" />
<text  x="1073.92" y="81.5" ></text>
</g>
<g >
<title>firedrake.projection.project (183,600 us, 5.46%)</title><rect x="918.8" y="87" width="64.5" height="15.0" fill="rgb(0,0,0)" rx="2" ry="2" />
<text  x="921.85" y="97.5" >firedr..</text>
</g>
<g >
<title>pyop2.caching.disk_cached.&lt;locals&gt;.decorator.&lt;locals&gt;.wrapper (18,389 us, 0.55%)</title><rect x="912.4" y="119" width="6.4" height="15.0" fill="rgb(0,0,0)" rx="2" ry="2" />
<text  x="915.39" y="129.5" ></text>
</g>
<g >
<title>firedrake.functionspacedata.get_shared_data (6,167 us, 0.18%)</title><rect x="343.5" y="135" width="2.2" height="15.0" fill="rgb(0,0,0)" rx="2" ry="2" />
<text  x="346.55" y="145.5" ></text>
</g>
<g >
<title>CreateFunctionSpace (2,788 us, 0.08%)</title><rect x="1086.1" y="151" width="1.0" height="15.0" fill="rgb(0,0,0)" rx="2" ry="2" />
<text  x="1089.08" y="161.5" ></text>
</g>
<g >
<title>firedrake.formmanipulation.ExtractSubBlock.argument (1,015 us, 0.03%)</title><rect x="1135.8" y="167" width="0.3" height="15.0" fill="rgb(0,0,0)" rx="2" ry="2" />
<text  x="1138.76" y="177.5" ></text>
</g>
<g >
<title>SNESSolve (316,349 us, 9.41%)</title><rect x="1079.0" y="87" width="111.0" height="15.0" fill="rgb(0,0,0)" rx="2" ry="2" />
<text  x="1081.96" y="97.5" >SNESSolve</text>
</g>
<g >
<title>firedrake.formmanipulation.ExtractSubBlock.split (3,190 us, 0.09%)</title><rect x="1135.0" y="151" width="1.1" height="15.0" fill="rgb(0,0,0)" rx="2" ry="2" />
<text  x="1137.99" y="161.5" ></text>
</g>
<g >
<title>KSPSolve_FS_Schu (3,575 us, 0.11%)</title><rect x="1083.4" y="135" width="1.2" height="15.0" fill="rgb(0,0,0)" rx="2" ry="2" />
<text  x="1086.37" y="145.5" ></text>
</g>
<g >
<title>firedrake.dmhooks.get_function_space (3,541 us, 0.11%)</title><rect x="1085.8" y="135" width="1.3" height="15.0" fill="rgb(0,0,0)" rx="2" ry="2" />
<text  x="1088.81" y="145.5" ></text>
</g>
<g >
<title>firedrake.function.Function.split (516 us, 0.02%)</title><rect x="1099.9" y="183" width="0.2" height="15.0" fill="rgb(0,0,0)" rx="2" ry="2" />
<text  x="1102.93" y="193.5" ></text>
</g>
<g >
<title>Mesh: numbering (633 us, 0.02%)</title><rect x="353.7" y="87" width="0.2" height="15.0" fill="rgb(0,0,0)" rx="2" ry="2" />
<text  x="356.66" y="97.5" ></text>
</g>
<g >
<title>PCApply (2,909 us, 0.09%)</title><rect x="1079.6" y="167" width="1.0" height="15.0" fill="rgb(0,0,0)" rx="2" ry="2" />
<text  x="1082.59" y="177.5" ></text>
</g>
<g >
<title>CreateMesh (1,524 us, 0.05%)</title><rect x="353.3" y="71" width="0.6" height="15.0" fill="rgb(0,0,0)" rx="2" ry="2" />
<text  x="356.35" y="81.5" ></text>
</g>
<g >
<title>firedrake.functionspacedata.FunctionSpaceData.__init__ (398 us, 0.01%)</title><rect x="1086.9" y="215" width="0.2" height="15.0" fill="rgb(0,0,0)" rx="2" ry="2" />
<text  x="1089.92" y="225.5" ></text>
</g>
<g >
<title>Parloop_Cells_wrap_pyop2_kernel_uniform_extrusion (38,333 us, 1.14%)</title><rect x="329.8" y="119" width="13.5" height="15.0" fill="rgb(0,0,0)" rx="2" ry="2" />
<text  x="332.80" y="129.5" ></text>
</g>
<g >
<title>MatView (643 us, 0.02%)</title><rect x="1085.3" y="119" width="0.2" height="15.0" fill="rgb(0,0,0)" rx="2" ry="2" />
<text  x="1088.32" y="129.5" ></text>
</g>
<g >
<title>KSPSolve (2,993 us, 0.09%)</title><rect x="1080.6" y="151" width="1.1" height="15.0" fill="rgb(0,0,0)" rx="2" ry="2" />
<text  x="1083.61" y="161.5" ></text>
</g>
<g >
<title>Parloop_set_#x7fbc717bbd90_wrap_expression_kernel (31,548 us, 0.94%)</title><rect x="901.3" y="135" width="11.1" height="15.0" fill="rgb(0,0,0)" rx="2" ry="2" />
<text  x="904.32" y="145.5" ></text>
</g>
<g >
<title>firedrake.ufl_expr.derivative (1,071 us, 0.03%)</title><rect x="1077.5" y="103" width="0.3" height="15.0" fill="rgb(0,0,0)" rx="2" ry="2" />
<text  x="1080.47" y="113.5" ></text>
</g>
<g >
<title>KSPSolve (2,909 us, 0.09%)</title><rect x="1079.6" y="151" width="1.0" height="15.0" fill="rgb(0,0,0)" rx="2" ry="2" />
<text  x="1082.59" y="161.5" ></text>
</g>
<g >
<title>firedrake.assemble.assemble (94,906 us, 2.82%)</title><rect x="943.2" y="103" width="33.3" height="15.0" fill="rgb(0,0,0)" rx="2" ry="2" />
<text  x="946.21" y="113.5" >fi..</text>
</g>
<g >
<title>Parloop_set_#x7fbc717ba920_wrap_expression_kernel (33,697 us, 1.00%)</title><rect x="889.5" y="135" width="11.8" height="15.0" fill="rgb(0,0,0)" rx="2" ry="2" />
<text  x="892.49" y="145.5" ></text>
</g>
<g >
<title>PCGAMGPOpt_AGG (1,023 us, 0.03%)</title><rect x="1082.4" y="183" width="0.3" height="15.0" fill="rgb(0,0,0)" rx="2" ry="2" />
<text  x="1085.38" y="193.5" ></text>
</g>
<g >
<title>firedrake.variational_solver.NonlinearVariationalProblem.__init__ (23,502 us, 0.70%)</title><rect x="1091.9" y="151" width="8.2" height="15.0" fill="rgb(0,0,0)" rx="2" ry="2" />
<text  x="1094.87" y="161.5" ></text>
</g>
<g >
<title>KSPSolve (2,513 us, 0.07%)</title><rect x="1079.7" y="183" width="0.9" height="15.0" fill="rgb(0,0,0)" rx="2" ry="2" />
<text  x="1082.73" y="193.5" ></text>
</g>
<g >
<title>firedrake.formmanipulation.split_form (7,958 us, 0.24%)</title><rect x="1187.2" y="135" width="2.8" height="15.0" fill="rgb(0,0,0)" rx="2" ry="2" />
<text  x="1190.21" y="145.5" ></text>
</g>
<g >
<title>KSPSolve (2,499 us, 0.07%)</title><rect x="1080.8" y="183" width="0.9" height="15.0" fill="rgb(0,0,0)" rx="2" ry="2" />
<text  x="1083.79" y="193.5" ></text>
</g>
<g >
<title>PCSetUp (41,499 us, 1.23%)</title><rect x="1085.5" y="103" width="14.6" height="15.0" fill="rgb(0,0,0)" rx="2" ry="2" />
<text  x="1088.55" y="113.5" ></text>
</g>
<g >
<title>Parloop_Cells_wrap_form_cell_integral_otherwise (100,319 us, 2.98%)</title><rect x="986.3" y="135" width="35.2" height="15.0" fill="rgb(0,0,0)" rx="2" ry="2" />
<text  x="989.33" y="145.5" >Pa..</text>
</g>
<g >
<title>PCApply (785 us, 0.02%)</title><rect x="1084.4" y="263" width="0.2" height="15.0" fill="rgb(0,0,0)" rx="2" ry="2" />
<text  x="1087.35" y="273.5" ></text>
</g>
<g >
<title>firedrake.dmhooks.create_field_decomposition (40,747 us, 1.21%)</title><rect x="1085.8" y="119" width="14.3" height="15.0" fill="rgb(0,0,0)" rx="2" ry="2" />
<text  x="1088.81" y="129.5" ></text>
</g>
<g >
<title>PCSetUp (4,871 us, 0.14%)</title><rect x="1081.7" y="151" width="1.7" height="15.0" fill="rgb(0,0,0)" rx="2" ry="2" />
<text  x="1084.66" y="161.5" ></text>
</g>
<g >
<title>firedrake.__init__ (1,524,056 us, 45.33%)</title><rect x="354.1" y="71" width="534.9" height="15.0" fill="rgb(0,0,0)" rx="2" ry="2" />
<text  x="357.07" y="81.5" >firedrake.__init__</text>
</g>
<g >
<title>firedrake.tsfc_interface.compile_form (140,690 us, 4.18%)</title><rect x="1021.5" y="119" width="49.4" height="15.0" fill="rgb(0,0,0)" rx="2" ry="2" />
<text  x="1024.54" y="129.5" >fire..</text>
</g>
<g >
<title>KSPSolve (1,542 us, 0.05%)</title><rect x="1081.1" y="215" width="0.6" height="15.0" fill="rgb(0,0,0)" rx="2" ry="2" />
<text  x="1084.12" y="225.5" ></text>
</g>
<g >
<title>ParLoopExecute (65,245 us, 1.94%)</title><rect x="889.5" y="119" width="22.9" height="15.0" fill="rgb(0,0,0)" rx="2" ry="2" />
<text  x="892.49" y="129.5" ></text>
</g>
<g >
<title>firedrake (3,361,844 us, 100.00%)</title><rect x="10.0" y="55" width="1180.0" height="15.0" fill="rgb(0,0,0)" rx="2" ry="2" />
<text  x="13.00" y="65.5" >firedrake</text>
</g>
<g >
<title>Parloop_Cells_wrap_form00_cell_integral_otherwise (32,546 us, 0.97%)</title><rect x="1137.5" y="135" width="11.4" height="15.0" fill="rgb(0,0,0)" rx="2" ry="2" />
<text  x="1140.52" y="145.5" ></text>
</g>
<g >
<title>firedrake.assemble_expressions.assemble_expression (84,997 us, 2.53%)</title><rect x="889.0" y="87" width="29.8" height="15.0" fill="rgb(0,0,0)" rx="2" ry="2" />
<text  x="892.01" y="97.5" >f..</text>
</g>
<g >
<title>MatMult (527 us, 0.02%)</title><rect x="1080.9" y="199" width="0.2" height="15.0" fill="rgb(0,0,0)" rx="2" ry="2" />
<text  x="1083.94" y="209.5" ></text>
</g>
<g >
<title>CreateMesh (401 us, 0.01%)</title><rect x="1071.2" y="119" width="0.1" height="15.0" fill="rgb(0,0,0)" rx="2" ry="2" />
<text  x="1074.16" y="129.5" ></text>
</g>
<g >
<title>FunctionSpaceData: CreateElement (7,011 us, 0.21%)</title><rect x="350.1" y="135" width="2.4" height="15.0" fill="rgb(0,0,0)" rx="2" ry="2" />
<text  x="353.07" y="145.5" ></text>
</g>
<g >
<title>firedrake.functionspaceimpl.FunctionSpace.__init__ (398 us, 0.01%)</title><rect x="1086.9" y="183" width="0.2" height="15.0" fill="rgb(0,0,0)" rx="2" ry="2" />
<text  x="1089.92" y="193.5" ></text>
</g>
<g >
<title>firedrake.functionspacedata.FunctionSpaceData.__init__ (1,664 us, 0.05%)</title><rect x="1189.4" y="231" width="0.6" height="15.0" fill="rgb(0,0,0)" rx="2" ry="2" />
<text  x="1192.42" y="241.5" ></text>
</g>
<g >
<title>firedrake.assemble_expressions.compile_to_gem (1,824 us, 0.05%)</title><rect x="918.2" y="135" width="0.6" height="15.0" fill="rgb(0,0,0)" rx="2" ry="2" />
<text  x="921.21" y="145.5" ></text>
</g>
<g >
<title>CreateMesh (391 us, 0.01%)</title><rect x="353.5" y="87" width="0.2" height="15.0" fill="rgb(0,0,0)" rx="2" ry="2" />
<text  x="356.52" y="97.5" ></text>
</g>
<g >
<title>ParLoopExecute (65,878 us, 1.96%)</title><rect x="920.1" y="103" width="23.1" height="15.0" fill="rgb(0,0,0)" rx="2" ry="2" />
<text  x="923.08" y="113.5" >P..</text>
</g>
<g >
<title>CreateMesh (401 us, 0.01%)</title><rect x="1071.2" y="103" width="0.1" height="15.0" fill="rgb(0,0,0)" rx="2" ry="2" />
<text  x="1074.16" y="113.5" ></text>
</g>
<g >
<title>firedrake.functionspaceimpl.FunctionSpace.__init__ (398 us, 0.01%)</title><rect x="1136.0" y="199" width="0.1" height="15.0" fill="rgb(0,0,0)" rx="2" ry="2" />
<text  x="1138.97" y="209.5" ></text>
</g>
<g >
<title>firedrake.mesh._Facets.__init__ (598 us, 0.02%)</title><rect x="345.5" y="167" width="0.2" height="15.0" fill="rgb(0,0,0)" rx="2" ry="2" />
<text  x="348.50" y="177.5" ></text>
</g>
<g >
<title>firedrake.functionspacedata.get_shared_data (398 us, 0.01%)</title><rect x="1136.0" y="215" width="0.1" height="15.0" fill="rgb(0,0,0)" rx="2" ry="2" />
<text  x="1138.97" y="225.5" ></text>
</g>
<g >
<title>MatView (2,620 us, 0.08%)</title><rect x="1084.6" y="103" width="0.9" height="15.0" fill="rgb(0,0,0)" rx="2" ry="2" />
<text  x="1087.63" y="113.5" ></text>
</g>
<g >
<title>KSPSolve (2,557 us, 0.08%)</title><rect x="1083.7" y="215" width="0.9" height="15.0" fill="rgb(0,0,0)" rx="2" ry="2" />
<text  x="1086.73" y="225.5" ></text>
</g>
<g >
<title>CreateFunctionSpace (1,106 us, 0.03%)</title><rect x="1086.5" y="183" width="0.4" height="15.0" fill="rgb(0,0,0)" rx="2" ry="2" />
<text  x="1089.53" y="193.5" ></text>
</g>
<g >
<title>PCApply (1,575 us, 0.05%)</title><rect x="1084.1" y="231" width="0.5" height="15.0" fill="rgb(0,0,0)" rx="2" ry="2" />
<text  x="1087.08" y="241.5" ></text>
</g>
<g >
<title>firedrake.mesh._from_cell_list (557 us, 0.02%)</title><rect x="1071.3" y="103" width="0.2" height="15.0" fill="rgb(0,0,0)" rx="2" ry="2" />
<text  x="1074.30" y="113.5" ></text>
</g>
<g >
<title>firedrake.ufl_expr.adjoint (21,941 us, 0.65%)</title><rect x="1092.1" y="167" width="7.7" height="15.0" fill="rgb(0,0,0)" rx="2" ry="2" />
<text  x="1095.06" y="177.5" ></text>
</g>
<g >
<title>firedrake.formmanipulation.ExtractSubBlock.argument (6,074 us, 0.18%)</title><rect x="1187.9" y="167" width="2.1" height="15.0" fill="rgb(0,0,0)" rx="2" ry="2" />
<text  x="1190.87" y="177.5" ></text>
</g>
<g >
<title>CreateSparsity (678 us, 0.02%)</title><rect x="1078.6" y="103" width="0.2" height="15.0" fill="rgb(0,0,0)" rx="2" ry="2" />
<text  x="1081.59" y="113.5" ></text>
</g>
<g >
<title>pyop2.global_kernel.GlobalKernel.compile (31,548 us, 0.94%)</title><rect x="901.3" y="151" width="11.1" height="15.0" fill="rgb(0,0,0)" rx="2" ry="2" />
<text  x="904.32" y="161.5" ></text>
</g>
<g >
<title>PCApply (2,993 us, 0.09%)</title><rect x="1080.6" y="167" width="1.1" height="15.0" fill="rgb(0,0,0)" rx="2" ry="2" />
<text  x="1083.61" y="177.5" ></text>
</g>
<g >
<title>pyop2.global_kernel.GlobalKernel.compile (67,118 us, 2.00%)</title><rect x="944.5" y="151" width="23.6" height="15.0" fill="rgb(0,0,0)" rx="2" ry="2" />
<text  x="947.50" y="161.5" >p..</text>
</g>
<g >
<title>firedrake.functionspaceimpl.FunctionSpace.__init__ (18,911 us, 0.56%)</title><rect x="346.7" y="87" width="6.6" height="15.0" fill="rgb(0,0,0)" rx="2" ry="2" />
<text  x="349.71" y="97.5" ></text>
</g>
<g >
<title>Parloop_Cells_wrap_form0_cell_integral_otherwise (65,878 us, 1.96%)</title><rect x="920.1" y="119" width="23.1" height="15.0" fill="rgb(0,0,0)" rx="2" ry="2" />
<text  x="923.08" y="129.5" >P..</text>
</g>
<g >
<title>firedrake.tsfc_interface.compile_form (53,737 us, 1.60%)</title><rect x="1171.1" y="119" width="18.9" height="15.0" fill="rgb(0,0,0)" rx="2" ry="2" />
<text  x="1174.14" y="129.5" ></text>
</g>
<g >
<title>firedrake.assemble.allocate_matrix (1,682 us, 0.05%)</title><rect x="1078.2" y="87" width="0.6" height="15.0" fill="rgb(0,0,0)" rx="2" ry="2" />
<text  x="1081.24" y="97.5" ></text>
</g>
<g >
<title>firedrake.variational_solver.NonlinearVariationalProblem.__init__ (12,952 us, 0.39%)</title><rect x="1073.3" y="87" width="4.5" height="15.0" fill="rgb(0,0,0)" rx="2" ry="2" />
<text  x="1076.30" y="97.5" ></text>
</g>
<g >
<title>firedrake.tsfc_interface.compile_form (30,140 us, 0.90%)</title><rect x="1125.5" y="119" width="10.6" height="15.0" fill="rgb(0,0,0)" rx="2" ry="2" />
<text  x="1128.53" y="129.5" ></text>
</g>
<g >
<title>Log_Event_form1_cell_integral_otherwise (796 us, 0.02%)</title><rect x="1114.5" y="151" width="0.3" height="15.0" fill="rgb(0,0,0)" rx="2" ry="2" />
<text  x="1117.53" y="161.5" ></text>
</g>
<g >
<title>pyop2.global_kernel.GlobalKernel.compile (33,697 us, 1.00%)</title><rect x="889.5" y="151" width="11.8" height="15.0" fill="rgb(0,0,0)" rx="2" ry="2" />
<text  x="892.49" y="161.5" ></text>
</g>
<g >
<title>CreateFunctionSpace (4,714 us, 0.14%)</title><rect x="1188.3" y="183" width="1.7" height="15.0" fill="rgb(0,0,0)" rx="2" ry="2" />
<text  x="1191.35" y="193.5" ></text>
</g>
<g >
<title>firedrake.functionspacedata.FunctionSpaceData.__init__ (395 us, 0.01%)</title><rect x="983.5" y="119" width="0.2" height="15.0" fill="rgb(0,0,0)" rx="2" ry="2" />
<text  x="986.54" y="129.5" ></text>
</g>
<g >
<title>PCApply (804 us, 0.02%)</title><rect x="1080.3" y="231" width="0.3" height="15.0" fill="rgb(0,0,0)" rx="2" ry="2" />
<text  x="1083.33" y="241.5" ></text>
</g>
<g >
<title>firedrake.functionspacedata.FunctionSpaceData.__init__ (489 us, 0.01%)</title><rect x="1086.7" y="231" width="0.2" height="15.0" fill="rgb(0,0,0)" rx="2" ry="2" />
<text  x="1089.74" y="241.5" ></text>
</g>
<g >
<title>PCGAMG Gal l01 (388 us, 0.01%)</title><rect x="1083.0" y="183" width="0.1" height="15.0" fill="rgb(0,0,0)" rx="2" ry="2" />
<text  x="1085.96" y="193.5" ></text>
</g>
<g >
<title>firedrake.extrusion_utils.make_extruded_coords (70,028 us, 2.08%)</title><rect x="318.7" y="87" width="24.6" height="15.0" fill="rgb(0,0,0)" rx="2" ry="2" />
<text  x="321.67" y="97.5" >f..</text>
</g>
<g >
<title>firedrake.assemble_expressions.evaluate_expression (84,605 us, 2.52%)</title><rect x="889.1" y="103" width="29.7" height="15.0" fill="rgb(0,0,0)" rx="2" ry="2" />
<text  x="892.15" y="113.5" >f..</text>
</g>
<g >
<title>PCApply (14,348 us, 0.43%)</title><rect x="1079.6" y="119" width="5.0" height="15.0" fill="rgb(0,0,0)" rx="2" ry="2" />
<text  x="1082.59" y="129.5" ></text>
</g>
<g >
<title>PCApply (780 us, 0.02%)</title><rect x="1081.4" y="231" width="0.3" height="15.0" fill="rgb(0,0,0)" rx="2" ry="2" />
<text  x="1084.39" y="241.5" ></text>
</g>
<g >
<title>KSPSolve (1,575 us, 0.05%)</title><rect x="1084.1" y="247" width="0.5" height="15.0" fill="rgb(0,0,0)" rx="2" ry="2" />
<text  x="1087.08" y="257.5" ></text>
</g>
<g >
<title>firedrake.linear_solver.LinearSolver.__init__ (2,044 us, 0.06%)</title><rect x="976.5" y="103" width="0.7" height="15.0" fill="rgb(0,0,0)" rx="2" ry="2" />
<text  x="979.52" y="113.5" ></text>
</g>
<g >
<title>firedrake.functionspace.make_scalar_element (1,130 us, 0.03%)</title><rect x="1188.8" y="199" width="0.4" height="15.0" fill="rgb(0,0,0)" rx="2" ry="2" />
<text  x="1191.78" y="209.5" ></text>
</g>
<g >
<title>firedrake.dmhooks.set_function_space (1,586 us, 0.05%)</title><rect x="976.7" y="119" width="0.5" height="15.0" fill="rgb(0,0,0)" rx="2" ry="2" />
<text  x="979.68" y="129.5" ></text>
</g>
<g >
<title>ParLoopExecute (67,601 us, 2.01%)</title><rect x="944.3" y="119" width="23.8" height="15.0" fill="rgb(0,0,0)" rx="2" ry="2" />
<text  x="947.33" y="129.5" >P..</text>
</g>
<g >
<title>firedrake.functionspaceimpl.FunctionSpace.__init__ (395 us, 0.01%)</title><rect x="983.5" y="87" width="0.2" height="15.0" fill="rgb(0,0,0)" rx="2" ry="2" />
<text  x="986.54" y="97.5" ></text>
</g>
<g >
<title>firedrake.solving_utils._SNESContext.split (35,562 us, 1.06%)</title><rect x="1087.6" y="135" width="12.5" height="15.0" fill="rgb(0,0,0)" rx="2" ry="2" />
<text  x="1090.63" y="145.5" ></text>
</g>
<g >
<title>Log_Event_form0_cell_integral_otherwise (810 us, 0.02%)</title><rect x="1101.7" y="151" width="0.3" height="15.0" fill="rgb(0,0,0)" rx="2" ry="2" />
<text  x="1104.70" y="161.5" ></text>
</g>
<g >
<title>firedrake.norms.norm (248,547 us, 7.39%)</title><rect x="983.7" y="87" width="87.2" height="15.0" fill="rgb(0,0,0)" rx="2" ry="2" />
<text  x="986.68" y="97.5" >firedrake..</text>
</g>
<g >
<title>MatSOR (780 us, 0.02%)</title><rect x="1081.4" y="247" width="0.3" height="15.0" fill="rgb(0,0,0)" rx="2" ry="2" />
<text  x="1084.39" y="257.5" ></text>
</g>
<g >
<title>CreateFunctionSpace (20,355 us, 0.61%)</title><rect x="346.2" y="71" width="7.1" height="15.0" fill="rgb(0,0,0)" rx="2" ry="2" />
<text  x="349.20" y="81.5" ></text>
</g>
<g >
<title>firedrake.ufl_expr.adjoint (11,881 us, 0.35%)</title><rect x="1073.3" y="103" width="4.2" height="15.0" fill="rgb(0,0,0)" rx="2" ry="2" />
<text  x="1076.30" y="113.5" ></text>
</g>
<g >
<title>firedrake.functionspacedata.get_shared_data (1,249 us, 0.04%)</title><rect x="1091.4" y="215" width="0.5" height="15.0" fill="rgb(0,0,0)" rx="2" ry="2" />
<text  x="1094.43" y="225.5" ></text>
</g>
<g >
<title>pyop2.global_kernel.GlobalKernel.compile (31,939 us, 0.95%)</title><rect x="1159.9" y="151" width="11.2" height="15.0" fill="rgb(0,0,0)" rx="2" ry="2" />
<text  x="1162.93" y="161.5" ></text>
</g>
<g >
<title>firedrake.functionspacedata.FunctionSpaceData.__init__ (1,249 us, 0.04%)</title><rect x="1091.4" y="231" width="0.5" height="15.0" fill="rgb(0,0,0)" rx="2" ry="2" />
<text  x="1094.43" y="241.5" ></text>
</g>
<g >
<title>CreateFunctionSpace (1,015 us, 0.03%)</title><rect x="1135.8" y="183" width="0.3" height="15.0" fill="rgb(0,0,0)" rx="2" ry="2" />
<text  x="1138.76" y="193.5" ></text>
</g>
<g >
<title>firedrake.tsfc_interface.compile_form (16,414 us, 0.49%)</title><rect x="977.5" y="103" width="5.8" height="15.0" fill="rgb(0,0,0)" rx="2" ry="2" />
<text  x="980.53" y="113.5" ></text>
</g>
<g >
<title>firedrake.functionspace.make_scalar_element (755 us, 0.02%)</title><rect x="346.4" y="87" width="0.3" height="15.0" fill="rgb(0,0,0)" rx="2" ry="2" />
<text  x="349.44" y="97.5" ></text>
</g>
<g >
<title>firedrake.tsfc_interface.compile_form (22,669 us, 0.67%)</title><rect x="968.6" y="119" width="7.9" height="15.0" fill="rgb(0,0,0)" rx="2" ry="2" />
<text  x="971.56" y="129.5" ></text>
</g>
<g >
<title>firedrake.functionspace.make_scalar_element (861 us, 0.03%)</title><rect x="1090.9" y="199" width="0.3" height="15.0" fill="rgb(0,0,0)" rx="2" ry="2" />
<text  x="1093.95" y="209.5" ></text>
</g>
<g >
<title>firedrake.mesh.make_mesh_from_coordinates (578 us, 0.02%)</title><rect x="346.0" y="87" width="0.2" height="15.0" fill="rgb(0,0,0)" rx="2" ry="2" />
<text  x="349.00" y="97.5" ></text>
</g>
<g >
<title>KSPSolve (1,564 us, 0.05%)</title><rect x="1080.1" y="215" width="0.5" height="15.0" fill="rgb(0,0,0)" rx="2" ry="2" />
<text  x="1083.06" y="225.5" ></text>
</g>
<g >
<title>PCApply (2,966 us, 0.09%)</title><rect x="1083.6" y="199" width="1.0" height="15.0" fill="rgb(0,0,0)" rx="2" ry="2" />
<text  x="1086.59" y="209.5" ></text>
</g>
<g >
<title>firedrake.functionspace.VectorFunctionSpace (7,009 us, 0.21%)</title><rect x="343.3" y="87" width="2.4" height="15.0" fill="rgb(0,0,0)" rx="2" ry="2" />
<text  x="346.25" y="97.5" ></text>
</g>
<g >
<title>firedrake.functionspacedata.get_shared_data (395 us, 0.01%)</title><rect x="983.5" y="103" width="0.2" height="15.0" fill="rgb(0,0,0)" rx="2" ry="2" />
<text  x="986.54" y="113.5" ></text>
</g>
<g >
<title>firedrake.variational_solver.NonlinearVariationalSolver.solve (316,732 us, 9.42%)</title><rect x="1078.8" y="71" width="111.2" height="15.0" fill="rgb(0,0,0)" rx="2" ry="2" />
<text  x="1081.83" y="81.5" >firedrake.va..</text>
</g>
<g >
<title>firedrake.formmanipulation.split_form (393 us, 0.01%)</title><rect x="1070.6" y="135" width="0.2" height="15.0" fill="rgb(0,0,0)" rx="2" ry="2" />
<text  x="1073.63" y="145.5" ></text>
</g>
<g >
<title>firedrake.mesh.ExtrudedMeshTopology.__init__ (816 us, 0.02%)</title><rect x="345.7" y="87" width="0.3" height="15.0" fill="rgb(0,0,0)" rx="2" ry="2" />
<text  x="348.71" y="97.5" ></text>
</g>
<g >
<title>PCApply (1,542 us, 0.05%)</title><rect x="1081.1" y="199" width="0.6" height="15.0" fill="rgb(0,0,0)" rx="2" ry="2" />
<text  x="1084.12" y="209.5" ></text>
</g>
<g >
<title>pyop2.global_kernel.GlobalKernel.compile (35,734 us, 1.06%)</title><rect x="1102.0" y="151" width="12.5" height="15.0" fill="rgb(0,0,0)" rx="2" ry="2" />
<text  x="1104.98" y="161.5" ></text>
</g>
<g >
<title>GAMG: partLevel (1,037 us, 0.03%)</title><rect x="1082.7" y="167" width="0.4" height="15.0" fill="rgb(0,0,0)" rx="2" ry="2" />
<text  x="1085.74" y="177.5" ></text>
</g>
<g >
<title>firedrake.dmhooks.set_function_space (1,644 us, 0.05%)</title><rect x="1087.1" y="135" width="0.5" height="15.0" fill="rgb(0,0,0)" rx="2" ry="2" />
<text  x="1090.06" y="145.5" ></text>
</g>
<g >
<title>firedrake.mesh._Facets.__init__ (810 us, 0.02%)</title><rect x="353.1" y="151" width="0.2" height="15.0" fill="rgb(0,0,0)" rx="2" ry="2" />
<text  x="356.06" y="161.5" ></text>
</g>
<g >
<title>PCApply (1,564 us, 0.05%)</title><rect x="1080.1" y="199" width="0.5" height="15.0" fill="rgb(0,0,0)" rx="2" ry="2" />
<text  x="1083.06" y="209.5" ></text>
</g>
<g >
<title>KSPSolve_FS_Low (7,864 us, 0.23%)</title><rect x="1080.6" y="135" width="2.8" height="15.0" fill="rgb(0,0,0)" rx="2" ry="2" />
<text  x="1083.61" y="145.5" ></text>
</g>
<g >
<title>firedrake.functionspacedata.FunctionSpaceData.__init__ (398 us, 0.01%)</title><rect x="1136.0" y="231" width="0.1" height="15.0" fill="rgb(0,0,0)" rx="2" ry="2" />
<text  x="1138.97" y="241.5" ></text>
</g>
<g >
<title>firedrake.assemble.assemble (247,628 us, 7.37%)</title><rect x="984.0" y="103" width="86.9" height="15.0" fill="rgb(0,0,0)" rx="2" ry="2" />
<text  x="987.00" y="113.5" >firedrake..</text>
</g>
<g >
<title>MatMult (516 us, 0.02%)</title><rect x="1079.9" y="199" width="0.2" height="15.0" fill="rgb(0,0,0)" rx="2" ry="2" />
<text  x="1082.88" y="209.5" ></text>
</g>
<g >
<title>firedrake.functionspaceimpl.FunctionSpace.__init__ (2,334 us, 0.07%)</title><rect x="1189.2" y="199" width="0.8" height="15.0" fill="rgb(0,0,0)" rx="2" ry="2" />
<text  x="1192.18" y="209.5" ></text>
</g>
<g >
<title>pyop2.global_kernel.GlobalKernel.compile (31,296 us, 0.93%)</title><rect x="1148.9" y="151" width="11.0" height="15.0" fill="rgb(0,0,0)" rx="2" ry="2" />
<text  x="1151.94" y="161.5" ></text>
</g>
<g >
<title>firedrake.variational_solver.LinearVariationalProblem.__init__ (18,103 us, 0.54%)</title><rect x="1071.5" y="71" width="6.3" height="15.0" fill="rgb(0,0,0)" rx="2" ry="2" />
<text  x="1074.50" y="81.5" ></text>
</g>
<g >
<title>SNESFunctionEval (102,562 us, 3.05%)</title><rect x="1100.1" y="103" width="36.0" height="15.0" fill="rgb(0,0,0)" rx="2" ry="2" />
<text  x="1103.11" y="113.5" >SN..</text>
</g>
<g >
<title>firedrake.variational_solver.NonlinearVariationalSolver.__init__ (2,788 us, 0.08%)</title><rect x="1077.8" y="71" width="1.0" height="15.0" fill="rgb(0,0,0)" rx="2" ry="2" />
<text  x="1080.85" y="81.5" ></text>
</g>
<g >
<title>ParLoopExecute (68,352 us, 2.03%)</title><rect x="1101.5" y="119" width="24.0" height="15.0" fill="rgb(0,0,0)" rx="2" ry="2" />
<text  x="1104.54" y="129.5" >P..</text>
</g>
<g >
<title>firedrake.ufl_expr.action (5,151 us, 0.15%)</title><rect x="1071.5" y="87" width="1.8" height="15.0" fill="rgb(0,0,0)" rx="2" ry="2" />
<text  x="1074.50" y="97.5" ></text>
</g>
<g >
<title>firedrake.function.Function.split (441 us, 0.01%)</title><rect x="1070.8" y="135" width="0.1" height="15.0" fill="rgb(0,0,0)" rx="2" ry="2" />
<text  x="1073.76" y="145.5" ></text>
</g>
<g >
<title>Parloop_Cells_wrap_form01_cell_integral_otherwise (31,296 us, 0.93%)</title><rect x="1148.9" y="135" width="11.0" height="15.0" fill="rgb(0,0,0)" rx="2" ry="2" />
<text  x="1151.94" y="145.5" ></text>
</g>
<g >
<title>pyop2.global_kernel.GlobalKernel.compile (99,648 us, 2.96%)</title><rect x="986.6" y="151" width="34.9" height="15.0" fill="rgb(0,0,0)" rx="2" ry="2" />
<text  x="989.56" y="161.5" >py..</text>
</g>
<g >
<title>pyop2.global_kernel.GlobalKernel.compile (37,930 us, 1.13%)</title><rect x="329.9" y="135" width="13.4" height="15.0" fill="rgb(0,0,0)" rx="2" ry="2" />
<text  x="332.94" y="145.5" ></text>
</g>
<g >
<title>firedrake.functionspace.MixedFunctionSpace (1,114 us, 0.03%)</title><rect x="983.3" y="71" width="0.4" height="15.0" fill="rgb(0,0,0)" rx="2" ry="2" />
<text  x="986.29" y="81.5" ></text>
</g>
<g >
<title>firedrake.formmanipulation.ExtractSubBlock.split (7,971 us, 0.24%)</title><rect x="1089.1" y="151" width="2.8" height="15.0" fill="rgb(0,0,0)" rx="2" ry="2" />
<text  x="1092.07" y="161.5" ></text>
</g>
<g >
<title>FunctionSpaceData: CreateElement (735 us, 0.02%)</title><rect x="345.2" y="167" width="0.3" height="15.0" fill="rgb(0,0,0)" rx="2" ry="2" />
<text  x="348.25" y="177.5" ></text>
</g>
<g >
<title>firedrake.linear_solver.LinearSolver.solve (831 us, 0.02%)</title><rect x="977.2" y="103" width="0.3" height="15.0" fill="rgb(0,0,0)" rx="2" ry="2" />
<text  x="980.24" y="113.5" ></text>
</g>
<g >
<title>firedrake.utility_meshes.RectangleMesh (1,641 us, 0.05%)</title><rect x="1070.9" y="87" width="0.6" height="15.0" fill="rgb(0,0,0)" rx="2" ry="2" />
<text  x="1073.92" y="97.5" ></text>
</g>
<g >
<title>CreateFunctionSpace (6,597 us, 0.20%)</title><rect x="343.4" y="103" width="2.3" height="15.0" fill="rgb(0,0,0)" rx="2" ry="2" />
<text  x="346.40" y="113.5" ></text>
</g>
<g >
<title>Parloop_Cells_wrap_form0_cell_integral_otherwise (36,544 us, 1.09%)</title><rect x="1101.7" y="135" width="12.8" height="15.0" fill="rgb(0,0,0)" rx="2" ry="2" />
<text  x="1104.70" y="145.5" ></text>
</g>
<g >
<title>PCGAMG Gal l00 (649 us, 0.02%)</title><rect x="1082.7" y="183" width="0.3" height="15.0" fill="rgb(0,0,0)" rx="2" ry="2" />
<text  x="1085.74" y="193.5" ></text>
</g>
<g >
<title>pyop2.global_kernel.GlobalKernel.compile (65,312 us, 1.94%)</title><rect x="920.3" y="135" width="22.9" height="15.0" fill="rgb(0,0,0)" rx="2" ry="2" />
<text  x="923.28" y="145.5" ></text>
</g>
<g >
<title>GAMG: createProl (1,681 us, 0.05%)</title><rect x="1082.1" y="167" width="0.6" height="15.0" fill="rgb(0,0,0)" rx="2" ry="2" />
<text  x="1085.15" y="177.5" ></text>
</g>
<g >
<title>firedrake.functionspacedata.FunctionSpaceData.__init__ (18,023 us, 0.54%)</title><rect x="347.0" y="119" width="6.3" height="15.0" fill="rgb(0,0,0)" rx="2" ry="2" />
<text  x="350.02" y="129.5" ></text>
</g>
<g >
<title>ParLoopExecute (39,456 us, 1.17%)</title><rect x="329.4" y="103" width="13.9" height="15.0" fill="rgb(0,0,0)" rx="2" ry="2" />
<text  x="332.40" y="113.5" ></text>
</g>
<g >
<title>Parloop_Cells_wrap_form00_cell_integral_otherwise (67,601 us, 2.01%)</title><rect x="944.3" y="135" width="23.8" height="15.0" fill="rgb(0,0,0)" rx="2" ry="2" />
<text  x="947.33" y="145.5" >P..</text>
</g>
<g >
<title>Parloop_Cells_wrap_form1_cell_integral_otherwise (31,359 us, 0.93%)</title><rect x="1114.5" y="135" width="11.0" height="15.0" fill="rgb(0,0,0)" rx="2" ry="2" />
<text  x="1117.53" y="145.5" ></text>
</g>
<g >
<title>firedrake.functionspacedata.get_shared_data (398 us, 0.01%)</title><rect x="1086.9" y="199" width="0.2" height="15.0" fill="rgb(0,0,0)" rx="2" ry="2" />
<text  x="1089.92" y="209.5" ></text>
</g>
<g >
<title>pyop2.global_kernel.GlobalKernel.compile (30,563 us, 0.91%)</title><rect x="1114.8" y="151" width="10.7" height="15.0" fill="rgb(0,0,0)" rx="2" ry="2" />
<text  x="1117.81" y="161.5" ></text>
</g>
<g >
<title>MatMult (515 us, 0.02%)</title><rect x="1083.9" y="231" width="0.2" height="15.0" fill="rgb(0,0,0)" rx="2" ry="2" />
<text  x="1086.90" y="241.5" ></text>
</g>
<g >
<title>CreateSparsity (591 us, 0.02%)</title><rect x="968.4" y="135" width="0.2" height="15.0" fill="rgb(0,0,0)" rx="2" ry="2" />
<text  x="971.35" y="145.5" ></text>
</g>
<g >
<title>firedrake.functionspaceimpl.FunctionSpace.__init__ (1,759 us, 0.05%)</title><rect x="1091.2" y="199" width="0.7" height="15.0" fill="rgb(0,0,0)" rx="2" ry="2" />
<text  x="1094.25" y="209.5" ></text>
</g>
<g >
<title>KSPSolve (14,804 us, 0.44%)</title><rect x="1079.4" y="103" width="5.2" height="15.0" fill="rgb(0,0,0)" rx="2" ry="2" />
<text  x="1082.43" y="113.5" ></text>
</g>
<g >
<title>ParLoopExecute (101,150 us, 3.01%)</title><rect x="986.0" y="119" width="35.5" height="15.0" fill="rgb(0,0,0)" rx="2" ry="2" />
<text  x="989.03" y="129.5" >Pa..</text>
</g>
<g >
<title>MatSOR (785 us, 0.02%)</title><rect x="1084.4" y="279" width="0.2" height="15.0" fill="rgb(0,0,0)" rx="2" ry="2" />
<text  x="1087.35" y="289.5" ></text>
</g>
<g >
<title>firedrake.formmanipulation.ExtractSubBlock.split (7,958 us, 0.24%)</title><rect x="1187.2" y="151" width="2.8" height="15.0" fill="rgb(0,0,0)" rx="2" ry="2" />
<text  x="1190.21" y="161.5" ></text>
</g>
<g >
<title>CreateExtMesh (78,918 us, 2.35%)</title><rect x="318.5" y="71" width="27.7" height="15.0" fill="rgb(0,0,0)" rx="2" ry="2" />
<text  x="321.50" y="81.5" >C..</text>
</g>
<g >
<title>firedrake.functionspacedata.get_shared_data (489 us, 0.01%)</title><rect x="1086.7" y="215" width="0.2" height="15.0" fill="rgb(0,0,0)" rx="2" ry="2" />
<text  x="1089.74" y="225.5" ></text>
</g>
<g >
<title>firedrake.functionspaceimpl.FunctionSpace.__init__ (489 us, 0.01%)</title><rect x="1086.7" y="199" width="0.2" height="15.0" fill="rgb(0,0,0)" rx="2" ry="2" />
<text  x="1089.74" y="209.5" ></text>
</g>
<g >
<title>firedrake.function.Function.split (1,071 us, 0.03%)</title><rect x="1077.5" y="119" width="0.3" height="15.0" fill="rgb(0,0,0)" rx="2" ry="2" />
<text  x="1080.47" y="129.5" ></text>
</g>
<g >
<title>firedrake.assemble.allocate_matrix (1,428 us, 0.04%)</title><rect x="968.1" y="119" width="0.5" height="15.0" fill="rgb(0,0,0)" rx="2" ry="2" />
<text  x="971.06" y="129.5" ></text>
</g>
<g >
<title>all (3,361,844 us, 100%)</title><rect x="10.0" y="39" width="1180.0" height="15.0" fill="rgb(0,0,0)" rx="2" ry="2" />
<text  x="13.00" y="49.5" ></text>
</g>
<g >
<title>KSPSetUp (783 us, 0.02%)</title><rect x="1083.1" y="167" width="0.3" height="15.0" fill="rgb(0,0,0)" rx="2" ry="2" />
<text  x="1086.10" y="177.5" ></text>
</g>
<g >
<title>firedrake.mesh.MeshTopology._facets (2,332 us, 0.07%)</title><rect x="352.5" y="135" width="0.8" height="15.0" fill="rgb(0,0,0)" rx="2" ry="2" />
<text  x="355.53" y="145.5" ></text>
</g>
<g >
<title>SNESJacobianEval (153,524 us, 4.57%)</title><rect x="1136.1" y="103" width="53.9" height="15.0" fill="rgb(0,0,0)" rx="2" ry="2" />
<text  x="1139.11" y="113.5" >SNESJ..</text>
</g>
<g >
<title>firedrake.ufl_expr.derivative (1,018 us, 0.03%)</title><rect x="1099.8" y="167" width="0.3" height="15.0" fill="rgb(0,0,0)" rx="2" ry="2" />
<text  x="1102.76" y="177.5" ></text>
</g>
<g >
<title>PetscBarrier (540 us, 0.02%)</title><rect x="353.9" y="71" width="0.2" height="15.0" fill="rgb(0,0,0)" rx="2" ry="2" />
<text  x="356.88" y="81.5" ></text>
</g>
<g >
<title>firedrake.assemble.assemble (84,997 us, 2.53%)</title><rect x="889.0" y="71" width="29.8" height="15.0" fill="rgb(0,0,0)" rx="2" ry="2" />
<text  x="892.01" y="81.5" >f..</text>
</g>
<g >
<title>ParLoopExecute (96,189 us, 2.86%)</title><rect x="1137.4" y="119" width="33.7" height="15.0" fill="rgb(0,0,0)" rx="2" ry="2" />
<text  x="1140.38" y="129.5" >Pa..</text>
</g>
<g >
<title>firedrake.functionspaceimpl.FunctionSpace.__init__ (6,167 us, 0.18%)</title><rect x="343.5" y="119" width="2.2" height="15.0" fill="rgb(0,0,0)" rx="2" ry="2" />
<text  x="346.55" y="129.5" ></text>
</g>
<g >
<title>firedrake.function.Function.project (183,600 us, 5.46%)</title><rect x="918.8" y="71" width="64.5" height="15.0" fill="rgb(0,0,0)" rx="2" ry="2" />
<text  x="921.85" y="81.5" >firedr..</text>
</g>
<g >
<title>KSPSolve_FS_0 (2,909 us, 0.09%)</title><rect x="1079.6" y="135" width="1.0" height="15.0" fill="rgb(0,0,0)" rx="2" ry="2" />
<text  x="1082.59" y="145.5" ></text>
</g>
<g >
<title>MatPtAPNumeric (388 us, 0.01%)</title><rect x="1083.0" y="199" width="0.1" height="15.0" fill="rgb(0,0,0)" rx="2" ry="2" />
<text  x="1085.96" y="209.5" ></text>
</g>
<g >
<title>firedrake.formmanipulation.ExtractSubBlock.argument (4,628 us, 0.14%)</title><rect x="1090.2" y="167" width="1.7" height="15.0" fill="rgb(0,0,0)" rx="2" ry="2" />
<text  x="1093.24" y="177.5" ></text>
</g>
<g >
<title>MatSOR (804 us, 0.02%)</title><rect x="1080.3" y="247" width="0.3" height="15.0" fill="rgb(0,0,0)" rx="2" ry="2" />
<text  x="1083.33" y="257.5" ></text>
</g>
<g >
<title>firedrake.functionspacedata.FunctionSpaceData.__init__ (6,167 us, 0.18%)</title><rect x="343.5" y="151" width="2.2" height="15.0" fill="rgb(0,0,0)" rx="2" ry="2" />
<text  x="346.55" y="161.5" ></text>
</g>
<g >
<title>Parloop_Cells_wrap_form10_cell_integral_otherwise (31,939 us, 0.95%)</title><rect x="1159.9" y="135" width="11.2" height="15.0" fill="rgb(0,0,0)" rx="2" ry="2" />
<text  x="1162.93" y="145.5" ></text>
</g>
<g >
<title>firedrake.functionspacedata.get_shared_data (18,023 us, 0.54%)</title><rect x="347.0" y="103" width="6.3" height="15.0" fill="rgb(0,0,0)" rx="2" ry="2" />
<text  x="350.02" y="113.5" ></text>
</g>
</g>
</svg>
