<?xml version="1.0" standalone="no"?>
<!DOCTYPE svg PUBLIC "-//W3C//DTD SVG 1.1//EN" "http://www.w3.org/Graphics/SVG/1.1/DTD/svg11.dtd">
<svg version="1.1" width="1200" height="331" onload="init(evt)" viewBox="0 0 1200 331" xmlns="http://www.w3.org/2000/svg" xmlns:xlink="http://www.w3.org/1999/xlink">
<!-- Flame graph stack visualization. See https://github.com/brendangregg/FlameGraph for latest version, and http://www.brendangregg.com/flamegraphs.html for examples. -->
<!-- NOTES:  -->
<defs>
	<linearGradient id="background" y1="0" y2="1" x1="0" x2="0" >
		<stop stop-color="#eeeeee" offset="5%" />
		<stop stop-color="#eeeeb0" offset="95%" />
	</linearGradient>
</defs>
<style type="text/css">
	text { font-family:Verdana; font-size:13px; fill:rgb(0,0,0); }
	#search, #ignorecase { opacity:0.1; cursor:pointer; }
	#search:hover, #search.show, #ignorecase:hover, #ignorecase.show { opacity:1; }
	#subtitle { text-anchor:middle; font-color:rgb(160,160,160); }
	#title { text-anchor:middle; font-size:18px}
	#unzoom { cursor:pointer; }
	#frames > *:hover { stroke:black; stroke-width:0.5; cursor:pointer; }
	.hide { display:none; }
	.parent { opacity:0.5; }
</style>
<script type="text/ecmascript">
<![CDATA[
	"use strict";
	var details, searchbtn, unzoombtn, matchedtxt, svg, searching, currentSearchTerm, ignorecase, ignorecaseBtn;
	function init(evt) {
		details = document.getElementById("details").firstChild;
		searchbtn = document.getElementById("search");
		ignorecaseBtn = document.getElementById("ignorecase");
		unzoombtn = document.getElementById("unzoom");
		matchedtxt = document.getElementById("matched");
		svg = document.getElementsByTagName("svg")[0];
		searching = 0;
		currentSearchTerm = null;

		// use GET parameters to restore a flamegraphs state.
		var params = get_params();
		if (params.x && params.y)
			zoom(find_group(document.querySelector('[x="' + params.x + '"][y="' + params.y + '"]')));
                if (params.s) search(params.s);
	}

	// event listeners
	window.addEventListener("click", function(e) {
		var target = find_group(e.target);
		if (target) {
			if (target.nodeName == "a") {
				if (e.ctrlKey === false) return;
				e.preventDefault();
			}
			if (target.classList.contains("parent")) unzoom();
			zoom(target);
			if (!document.querySelector('.parent')) {
				clearzoom();
				return;
			}

			// set parameters for zoom state
			var el = target.querySelector("rect");
			if (el && el.attributes && el.attributes.y && el.attributes._orig_x) {
				var params = get_params()
				params.x = el.attributes._orig_x.value;
				params.y = el.attributes.y.value;
				history.replaceState(null, null, parse_params(params));
			}
		}
		else if (e.target.id == "unzoom") clearzoom();
		else if (e.target.id == "search") search_prompt();
		else if (e.target.id == "ignorecase") toggle_ignorecase();
	}, false)

	// mouse-over for info
	// show
	window.addEventListener("mouseover", function(e) {
		var target = find_group(e.target);
		if (target) details.nodeValue = "Function: " + g_to_text(target);
	}, false)

	// clear
	window.addEventListener("mouseout", function(e) {
		var target = find_group(e.target);
		if (target) details.nodeValue = ' ';
	}, false)

	// ctrl-F for search
	// ctrl-I to toggle case-sensitive search
	window.addEventListener("keydown",function (e) {
		if (e.keyCode === 114 || (e.ctrlKey && e.keyCode === 70)) {
			e.preventDefault();
			search_prompt();
		}
		else if (e.ctrlKey && e.keyCode === 73) {
			e.preventDefault();
			toggle_ignorecase();
		}
	}, false)

	// functions
	function get_params() {
		var params = {};
		var paramsarr = window.location.search.substr(1).split('&');
		for (var i = 0; i < paramsarr.length; ++i) {
			var tmp = paramsarr[i].split("=");
			if (!tmp[0] || !tmp[1]) continue;
			params[tmp[0]]  = decodeURIComponent(tmp[1]);
		}
		return params;
	}
	function parse_params(params) {
		var uri = "?";
		for (var key in params) {
			uri += key + '=' + encodeURIComponent(params[key]) + '&';
		}
		if (uri.slice(-1) == "&")
			uri = uri.substring(0, uri.length - 1);
		if (uri == '?')
			uri = window.location.href.split('?')[0];
		return uri;
	}
	function find_child(node, selector) {
		var children = node.querySelectorAll(selector);
		if (children.length) return children[0];
	}
	function find_group(node) {
		var parent = node.parentElement;
		if (!parent) return;
		if (parent.id == "frames") return node;
		return find_group(parent);
	}
	function orig_save(e, attr, val) {
		if (e.attributes["_orig_" + attr] != undefined) return;
		if (e.attributes[attr] == undefined) return;
		if (val == undefined) val = e.attributes[attr].value;
		e.setAttribute("_orig_" + attr, val);
	}
	function orig_load(e, attr) {
		if (e.attributes["_orig_"+attr] == undefined) return;
		e.attributes[attr].value = e.attributes["_orig_" + attr].value;
		e.removeAttribute("_orig_"+attr);
	}
	function g_to_text(e) {
		var text = find_child(e, "title").firstChild.nodeValue;
		return (text)
	}
	function g_to_func(e) {
		var func = g_to_text(e);
		// if there's any manipulation we want to do to the function
		// name before it's searched, do it here before returning.
		return (func);
	}
	function update_text(e) {
		var r = find_child(e, "rect");
		var t = find_child(e, "text");
		var w = parseFloat(r.attributes.width.value) -3;
		var txt = find_child(e, "title").textContent.replace(/\([^(]*\)$/,"");
		t.attributes.x.value = parseFloat(r.attributes.x.value) + 3;

		// Smaller than this size won't fit anything
		if (w < 2 * 13 * 0.59) {
			t.textContent = "";
			return;
		}

		t.textContent = txt;
		// Fit in full text width
		if (/^ *$/.test(txt) || t.getSubStringLength(0, txt.length) < w)
			return;

		for (var x = txt.length - 2; x > 0; x--) {
			if (t.getSubStringLength(0, x + 2) <= w) {
				t.textContent = txt.substring(0, x) + "..";
				return;
			}
		}
		t.textContent = "";
	}

	// zoom
	function zoom_reset(e) {
		if (e.attributes != undefined) {
			orig_load(e, "x");
			orig_load(e, "width");
		}
		if (e.childNodes == undefined) return;
		for (var i = 0, c = e.childNodes; i < c.length; i++) {
			zoom_reset(c[i]);
		}
	}
	function zoom_child(e, x, ratio) {
		if (e.attributes != undefined) {
			if (e.attributes.x != undefined) {
				orig_save(e, "x");
				e.attributes.x.value = (parseFloat(e.attributes.x.value) - x - 10) * ratio + 10;
				if (e.tagName == "text")
					e.attributes.x.value = find_child(e.parentNode, "rect[x]").attributes.x.value + 3;
			}
			if (e.attributes.width != undefined) {
				orig_save(e, "width");
				e.attributes.width.value = parseFloat(e.attributes.width.value) * ratio;
			}
		}

		if (e.childNodes == undefined) return;
		for (var i = 0, c = e.childNodes; i < c.length; i++) {
			zoom_child(c[i], x - 10, ratio);
		}
	}
	function zoom_parent(e) {
		if (e.attributes) {
			if (e.attributes.x != undefined) {
				orig_save(e, "x");
				e.attributes.x.value = 10;
			}
			if (e.attributes.width != undefined) {
				orig_save(e, "width");
				e.attributes.width.value = parseInt(svg.width.baseVal.value) - (10 * 2);
			}
		}
		if (e.childNodes == undefined) return;
		for (var i = 0, c = e.childNodes; i < c.length; i++) {
			zoom_parent(c[i]);
		}
	}
	function zoom(node) {
		var attr = find_child(node, "rect").attributes;
		var width = parseFloat(attr.width.value);
		var xmin = parseFloat(attr.x.value);
		var xmax = parseFloat(xmin + width);
		var ymin = parseFloat(attr.y.value);
		var ratio = (svg.width.baseVal.value - 2 * 10) / width;

		// XXX: Workaround for JavaScript float issues (fix me)
		var fudge = 0.0001;

		unzoombtn.classList.remove("hide");

		var el = document.getElementById("frames").children;
		for (var i = 0; i < el.length; i++) {
			var e = el[i];
			var a = find_child(e, "rect").attributes;
			var ex = parseFloat(a.x.value);
			var ew = parseFloat(a.width.value);
			var upstack;
			// Is it an ancestor
			if (1 == 0) {
				upstack = parseFloat(a.y.value) > ymin;
			} else {
				upstack = parseFloat(a.y.value) < ymin;
			}
			if (upstack) {
				// Direct ancestor
				if (ex <= xmin && (ex+ew+fudge) >= xmax) {
					e.classList.add("parent");
					zoom_parent(e);
					update_text(e);
				}
				// not in current path
				else
					e.classList.add("hide");
			}
			// Children maybe
			else {
				// no common path
				if (ex < xmin || ex + fudge >= xmax) {
					e.classList.add("hide");
				}
				else {
					zoom_child(e, xmin, ratio);
					update_text(e);
				}
			}
		}
		search();
	}
	function unzoom() {
		unzoombtn.classList.add("hide");
		var el = document.getElementById("frames").children;
		for(var i = 0; i < el.length; i++) {
			el[i].classList.remove("parent");
			el[i].classList.remove("hide");
			zoom_reset(el[i]);
			update_text(el[i]);
		}
		search();
	}
	function clearzoom() {
		unzoom();

		// remove zoom state
		var params = get_params();
		if (params.x) delete params.x;
		if (params.y) delete params.y;
		history.replaceState(null, null, parse_params(params));
	}

	// search
	function toggle_ignorecase() {
		ignorecase = !ignorecase;
		if (ignorecase) {
			ignorecaseBtn.classList.add("show");
		} else {
			ignorecaseBtn.classList.remove("show");
		}
		reset_search();
		search();
	}
	function reset_search() {
		var el = document.querySelectorAll("#frames rect");
		for (var i = 0; i < el.length; i++) {
			orig_load(el[i], "fill")
		}
		var params = get_params();
		delete params.s;
		history.replaceState(null, null, parse_params(params));
	}
	function search_prompt() {
		if (!searching) {
			var term = prompt("Enter a search term (regexp " +
			    "allowed, eg: ^ext4_)"
			    + (ignorecase ? ", ignoring case" : "")
			    + "\nPress Ctrl-i to toggle case sensitivity", "");
			if (term != null) search(term);
		} else {
			reset_search();
			searching = 0;
			currentSearchTerm = null;
			searchbtn.classList.remove("show");
			searchbtn.firstChild.nodeValue = "Search"
			matchedtxt.classList.add("hide");
			matchedtxt.firstChild.nodeValue = ""
		}
	}
	function search(term) {
		if (term) currentSearchTerm = term;

		var re = new RegExp(currentSearchTerm, ignorecase ? 'i' : '');
		var el = document.getElementById("frames").children;
		var matches = new Object();
		var maxwidth = 0;
		for (var i = 0; i < el.length; i++) {
			var e = el[i];
			var func = g_to_func(e);
			var rect = find_child(e, "rect");
			if (func == null || rect == null)
				continue;

			// Save max width. Only works as we have a root frame
			var w = parseFloat(rect.attributes.width.value);
			if (w > maxwidth)
				maxwidth = w;

			if (func.match(re)) {
				// highlight
				var x = parseFloat(rect.attributes.x.value);
				orig_save(rect, "fill");
				rect.attributes.fill.value = "rgb(230,0,230)";

				// remember matches
				if (matches[x] == undefined) {
					matches[x] = w;
				} else {
					if (w > matches[x]) {
						// overwrite with parent
						matches[x] = w;
					}
				}
				searching = 1;
			}
		}
		if (!searching)
			return;
		var params = get_params();
		params.s = currentSearchTerm;
		history.replaceState(null, null, parse_params(params));

		searchbtn.classList.add("show");
		searchbtn.firstChild.nodeValue = "Reset Search";

		// calculate percent matched, excluding vertical overlap
		var count = 0;
		var lastx = -1;
		var lastw = 0;
		var keys = Array();
		for (k in matches) {
			if (matches.hasOwnProperty(k))
				keys.push(k);
		}
		// sort the matched frames by their x location
		// ascending, then width descending
		keys.sort(function(a, b){
			return a - b;
		});
		// Step through frames saving only the biggest bottom-up frames
		// thanks to the sort order. This relies on the tree property
		// where children are always smaller than their parents.
		var fudge = 0.0001;	// JavaScript floating point
		for (var k in keys) {
			var x = parseFloat(keys[k]);
			var w = matches[keys[k]];
			if (x >= lastx + lastw - fudge) {
				count += w;
				lastx = x;
				lastw = w;
			}
		}
		// display matched percent
		matchedtxt.classList.remove("hide");
		var pct = 100 * count / maxwidth;
		if (pct != 100) pct = pct.toFixed(1)
		matchedtxt.firstChild.nodeValue = "Matched: " + pct + "%";
	}
]]>
</script>
<rect x="0.0" y="0" width="1200.0" height="331.0" fill="url(#background)"  />
<text id="title" x="600.00" y="26" >Firedrake example</text>
<text id="details" x="10.00" y="313" > </text>
<text id="unzoom" x="10.00" y="26" class="hide">Reset Zoom</text>
<text id="search" x="1090.00" y="26" >Search</text>
<text id="ignorecase" x="1174.00" y="26" >ic</text>
<text id="matched" x="1090.00" y="313" > </text>
<g id="frames">
<g >
<title>firedrake.functionspacedata.FunctionSpaceData.__init__ (398 us, 0.01%)</title><rect x="1086.8" y="215" width="0.2" height="15.0" fill="rgb(0,0,0)" rx="2" ry="2" />
<text  x="1089.84" y="225.5" ></text>
</g>
<g >
<title>CreateSparsity (649 us, 0.02%)</title><rect x="1078.7" y="103" width="0.3" height="15.0" fill="rgb(0,0,0)" rx="2" ry="2" />
<text  x="1081.74" y="113.5" ></text>
</g>
<g >
<title>KSPSolve (2,512 us, 0.07%)</title><rect x="1080.8" y="183" width="0.9" height="15.0" fill="rgb(0,0,0)" rx="2" ry="2" />
<text  x="1083.78" y="193.5" ></text>
</g>
<g >
<title>pyop2.caching.disk_cached.&lt;locals&gt;.decorator.&lt;locals&gt;.wrapper (17,653 us, 0.52%)</title><rect x="912.1" y="119" width="6.2" height="15.0" fill="rgb(0,0,0)" rx="2" ry="2" />
<text  x="915.14" y="129.5" ></text>
</g>
<g >
<title>firedrake.tsfc_interface.compile_form (29,738 us, 0.88%)</title><rect x="1125.7" y="119" width="10.4" height="15.0" fill="rgb(0,0,0)" rx="2" ry="2" />
<text  x="1128.73" y="129.5" ></text>
</g>
<g >
<title>firedrake.variational_solver.LinearVariationalProblem.__init__ (18,458 us, 0.54%)</title><rect x="1071.6" y="71" width="6.4" height="15.0" fill="rgb(0,0,0)" rx="2" ry="2" />
<text  x="1074.61" y="81.5" ></text>
</g>
<g >
<title>firedrake.dmhooks.set_function_space (1,665 us, 0.05%)</title><rect x="975.1" y="119" width="0.6" height="15.0" fill="rgb(0,0,0)" rx="2" ry="2" />
<text  x="978.07" y="129.5" ></text>
</g>
<g >
<title>SNESJacobianEval (154,914 us, 4.57%)</title><rect x="1136.1" y="103" width="53.9" height="15.0" fill="rgb(0,0,0)" rx="2" ry="2" />
<text  x="1139.08" y="113.5" >SNESJ..</text>
</g>
<g >
<title>KSPSolve (3,466 us, 0.10%)</title><rect x="1083.4" y="151" width="1.2" height="15.0" fill="rgb(0,0,0)" rx="2" ry="2" />
<text  x="1086.39" y="161.5" ></text>
</g>
<g >
<title>CreateFunctionSpace (4,615 us, 0.14%)</title><rect x="1188.4" y="183" width="1.6" height="15.0" fill="rgb(0,0,0)" rx="2" ry="2" />
<text  x="1191.39" y="193.5" ></text>
</g>
<g >
<title>firedrake.functionspacedata.get_shared_data (6,154 us, 0.18%)</title><rect x="343.6" y="135" width="2.1" height="15.0" fill="rgb(0,0,0)" rx="2" ry="2" />
<text  x="346.56" y="145.5" ></text>
</g>
<g >
<title>SNESFunctionEval (104,598 us, 3.09%)</title><rect x="1099.7" y="103" width="36.4" height="15.0" fill="rgb(0,0,0)" rx="2" ry="2" />
<text  x="1102.67" y="113.5" >SN..</text>
</g>
<g >
<title>firedrake.functionspace.make_scalar_element (763 us, 0.02%)</title><rect x="346.4" y="87" width="0.3" height="15.0" fill="rgb(0,0,0)" rx="2" ry="2" />
<text  x="349.44" y="97.5" ></text>
</g>
<g >
<title>MatSOR (782 us, 0.02%)</title><rect x="1081.4" y="247" width="0.3" height="15.0" fill="rgb(0,0,0)" rx="2" ry="2" />
<text  x="1084.39" y="257.5" ></text>
</g>
<g >
<title>firedrake.ufl_expr.derivative (1,069 us, 0.03%)</title><rect x="1099.3" y="167" width="0.4" height="15.0" fill="rgb(0,0,0)" rx="2" ry="2" />
<text  x="1102.30" y="177.5" ></text>
</g>
<g >
<title>CreateFunctionSpace (6,555 us, 0.19%)</title><rect x="343.4" y="103" width="2.3" height="15.0" fill="rgb(0,0,0)" rx="2" ry="2" />
<text  x="346.42" y="113.5" ></text>
</g>
<g >
<title>PCSetUp (4,980 us, 0.15%)</title><rect x="1081.7" y="151" width="1.7" height="15.0" fill="rgb(0,0,0)" rx="2" ry="2" />
<text  x="1084.66" y="161.5" ></text>
</g>
<g >
<title>firedrake.variational_solver.NonlinearVariationalSolver.solve (318,989 us, 9.41%)</title><rect x="1079.0" y="71" width="111.0" height="15.0" fill="rgb(0,0,0)" rx="2" ry="2" />
<text  x="1081.97" y="81.5" >firedrake.va..</text>
</g>
<g >
<title>pyop2.global_kernel.GlobalKernel.compile (64,902 us, 1.91%)</title><rect x="919.7" y="135" width="22.6" height="15.0" fill="rgb(0,0,0)" rx="2" ry="2" />
<text  x="922.70" y="145.5" ></text>
</g>
<g >
<title>CreateMesh (1,457 us, 0.04%)</title><rect x="353.5" y="71" width="0.5" height="15.0" fill="rgb(0,0,0)" rx="2" ry="2" />
<text  x="356.45" y="81.5" ></text>
</g>
<g >
<title>firedrake.functionspaceimpl.FunctionSpace.__init__ (452 us, 0.01%)</title><rect x="981.7" y="87" width="0.2" height="15.0" fill="rgb(0,0,0)" rx="2" ry="2" />
<text  x="984.70" y="97.5" ></text>
</g>
<g >
<title>firedrake.solving_utils._SNESContext.split (34,957 us, 1.03%)</title><rect x="1087.5" y="135" width="12.2" height="15.0" fill="rgb(0,0,0)" rx="2" ry="2" />
<text  x="1090.50" y="145.5" ></text>
</g>
<g >
<title>firedrake.formmanipulation.ExtractSubBlock.argument (4,572 us, 0.13%)</title><rect x="1090.0" y="167" width="1.6" height="15.0" fill="rgb(0,0,0)" rx="2" ry="2" />
<text  x="1093.02" y="177.5" ></text>
</g>
<g >
<title>firedrake.formmanipulation.ExtractSubBlock.split (3,140 us, 0.09%)</title><rect x="1135.0" y="151" width="1.1" height="15.0" fill="rgb(0,0,0)" rx="2" ry="2" />
<text  x="1137.98" y="161.5" ></text>
</g>
<g >
<title>PCSetUp (40,576 us, 1.20%)</title><rect x="1085.5" y="103" width="14.2" height="15.0" fill="rgb(0,0,0)" rx="2" ry="2" />
<text  x="1088.55" y="113.5" ></text>
</g>
<g >
<title>firedrake.functionspacedata.get_shared_data (398 us, 0.01%)</title><rect x="1086.8" y="199" width="0.2" height="15.0" fill="rgb(0,0,0)" rx="2" ry="2" />
<text  x="1089.84" y="209.5" ></text>
</g>
<g >
<title>firedrake.functionspace.MixedFunctionSpace (2,291 us, 0.07%)</title><rect x="1086.2" y="167" width="0.8" height="15.0" fill="rgb(0,0,0)" rx="2" ry="2" />
<text  x="1089.18" y="177.5" ></text>
</g>
<g >
<title>PCGAMG Gal l01 (617 us, 0.02%)</title><rect x="1082.9" y="183" width="0.2" height="15.0" fill="rgb(0,0,0)" rx="2" ry="2" />
<text  x="1085.88" y="193.5" ></text>
</g>
<g >
<title>ParLoopExecute (98,493 us, 2.91%)</title><rect x="1137.3" y="119" width="34.3" height="15.0" fill="rgb(0,0,0)" rx="2" ry="2" />
<text  x="1140.30" y="129.5" >Pa..</text>
</g>
<g >
<title>firedrake.variational_solver.NonlinearVariationalProblem.__init__ (13,305 us, 0.39%)</title><rect x="1073.4" y="87" width="4.6" height="15.0" fill="rgb(0,0,0)" rx="2" ry="2" />
<text  x="1076.40" y="97.5" ></text>
</g>
<g >
<title>firedrake.utility_meshes.SquareMesh (1,510 us, 0.04%)</title><rect x="1071.1" y="71" width="0.5" height="15.0" fill="rgb(0,0,0)" rx="2" ry="2" />
<text  x="1074.08" y="81.5" ></text>
</g>
<g >
<title>firedrake.functionspaceimpl.FunctionSpace.__init__ (409 us, 0.01%)</title><rect x="1135.9" y="199" width="0.2" height="15.0" fill="rgb(0,0,0)" rx="2" ry="2" />
<text  x="1138.94" y="209.5" ></text>
</g>
<g >
<title>pyop2.global_kernel.GlobalKernel.compile (38,363 us, 1.13%)</title><rect x="330.1" y="135" width="13.3" height="15.0" fill="rgb(0,0,0)" rx="2" ry="2" />
<text  x="333.07" y="145.5" ></text>
</g>
<g >
<title>PCApply (784 us, 0.02%)</title><rect x="1080.3" y="231" width="0.3" height="15.0" fill="rgb(0,0,0)" rx="2" ry="2" />
<text  x="1083.34" y="241.5" ></text>
</g>
<g >
<title>KSPSolve (2,887 us, 0.09%)</title><rect x="1083.6" y="183" width="1.0" height="15.0" fill="rgb(0,0,0)" rx="2" ry="2" />
<text  x="1086.59" y="193.5" ></text>
</g>
<g >
<title>firedrake.tsfc_interface.compile_form (22,841 us, 0.67%)</title><rect x="967.0" y="119" width="7.9" height="15.0" fill="rgb(0,0,0)" rx="2" ry="2" />
<text  x="969.96" y="129.5" ></text>
</g>
<g >
<title>Parloop_Cells_wrap_form00_cell_integral_otherwise (66,224 us, 1.95%)</title><rect x="943.4" y="135" width="23.1" height="15.0" fill="rgb(0,0,0)" rx="2" ry="2" />
<text  x="946.42" y="145.5" >P..</text>
</g>
<g >
<title>firedrake.norms.errornorm (256,344 us, 7.56%)</title><rect x="981.9" y="71" width="89.2" height="15.0" fill="rgb(0,0,0)" rx="2" ry="2" />
<text  x="984.85" y="81.5" >firedrake..</text>
</g>
<g >
<title>firedrake.function.Function.split (508 us, 0.01%)</title><rect x="1099.5" y="183" width="0.2" height="15.0" fill="rgb(0,0,0)" rx="2" ry="2" />
<text  x="1102.49" y="193.5" ></text>
</g>
<g >
<title>firedrake.mesh.make_mesh_from_coordinates (581 us, 0.02%)</title><rect x="346.0" y="87" width="0.2" height="15.0" fill="rgb(0,0,0)" rx="2" ry="2" />
<text  x="349.00" y="97.5" ></text>
</g>
<g >
<title>firedrake.functionspacedata.FunctionSpaceData.__init__ (1,620 us, 0.05%)</title><rect x="1189.4" y="231" width="0.6" height="15.0" fill="rgb(0,0,0)" rx="2" ry="2" />
<text  x="1192.44" y="241.5" ></text>
</g>
<g >
<title>firedrake.ufl_expr.derivative (1,385 us, 0.04%)</title><rect x="1077.5" y="103" width="0.5" height="15.0" fill="rgb(0,0,0)" rx="2" ry="2" />
<text  x="1080.55" y="113.5" ></text>
</g>
<g >
<title>firedrake.formmanipulation.split_form (6,053 us, 0.18%)</title><rect x="1134.0" y="135" width="2.1" height="15.0" fill="rgb(0,0,0)" rx="2" ry="2" />
<text  x="1136.97" y="145.5" ></text>
</g>
<g >
<title>KSPSolve (3,002 us, 0.09%)</title><rect x="1080.6" y="151" width="1.1" height="15.0" fill="rgb(0,0,0)" rx="2" ry="2" />
<text  x="1083.61" y="161.5" ></text>
</g>
<g >
<title>ParLoopExecute (39,907 us, 1.18%)</title><rect x="329.5" y="103" width="13.9" height="15.0" fill="rgb(0,0,0)" rx="2" ry="2" />
<text  x="332.53" y="113.5" ></text>
</g>
<g >
<title>firedrake.functionspace.make_scalar_element (1,077 us, 0.03%)</title><rect x="1188.8" y="199" width="0.4" height="15.0" fill="rgb(0,0,0)" rx="2" ry="2" />
<text  x="1191.84" y="209.5" ></text>
</g>
<g >
<title>Log_Event_form0_cell_integral_otherwise (891 us, 0.03%)</title><rect x="1101.2" y="151" width="0.3" height="15.0" fill="rgb(0,0,0)" rx="2" ry="2" />
<text  x="1104.23" y="161.5" ></text>
</g>
<g >
<title>firedrake.dmhooks.set_function_space (1,492 us, 0.04%)</title><rect x="1087.0" y="135" width="0.5" height="15.0" fill="rgb(0,0,0)" rx="2" ry="2" />
<text  x="1089.98" y="145.5" ></text>
</g>
<g >
<title>firedrake.functionspacedata.get_shared_data (452 us, 0.01%)</title><rect x="981.7" y="103" width="0.2" height="15.0" fill="rgb(0,0,0)" rx="2" ry="2" />
<text  x="984.70" y="113.5" ></text>
</g>
<g >
<title>PetscBarrier (491 us, 0.01%)</title><rect x="354.0" y="71" width="0.1" height="15.0" fill="rgb(0,0,0)" rx="2" ry="2" />
<text  x="356.96" y="81.5" ></text>
</g>
<g >
<title>firedrake.functionspaceimpl.FunctionSpace.__init__ (485 us, 0.01%)</title><rect x="1086.7" y="199" width="0.1" height="15.0" fill="rgb(0,0,0)" rx="2" ry="2" />
<text  x="1089.67" y="209.5" ></text>
</g>
<g >
<title>PCApply (3,002 us, 0.09%)</title><rect x="1080.6" y="167" width="1.1" height="15.0" fill="rgb(0,0,0)" rx="2" ry="2" />
<text  x="1083.61" y="177.5" ></text>
</g>
<g >
<title>pyop2.global_kernel.GlobalKernel.compile (34,832 us, 1.03%)</title><rect x="1148.5" y="151" width="12.1" height="15.0" fill="rgb(0,0,0)" rx="2" ry="2" />
<text  x="1151.47" y="161.5" ></text>
</g>
<g >
<title>firedrake.functionspacedata.get_shared_data (1,620 us, 0.05%)</title><rect x="1189.4" y="215" width="0.6" height="15.0" fill="rgb(0,0,0)" rx="2" ry="2" />
<text  x="1192.44" y="225.5" ></text>
</g>
<g >
<title>firedrake.variational_solver.NonlinearVariationalProblem.__init__ (23,149 us, 0.68%)</title><rect x="1091.6" y="151" width="8.1" height="15.0" fill="rgb(0,0,0)" rx="2" ry="2" />
<text  x="1094.61" y="161.5" ></text>
</g>
<g >
<title>CreateMesh (389 us, 0.01%)</title><rect x="1071.3" y="103" width="0.1" height="15.0" fill="rgb(0,0,0)" rx="2" ry="2" />
<text  x="1074.31" y="113.5" ></text>
</g>
<g >
<title>firedrake.function.Function.project (181,459 us, 5.35%)</title><rect x="918.3" y="71" width="63.1" height="15.0" fill="rgb(0,0,0)" rx="2" ry="2" />
<text  x="921.28" y="81.5" >firedr..</text>
</g>
<g >
<title>GAMG: partLevel (1,013 us, 0.03%)</title><rect x="1082.7" y="167" width="0.4" height="15.0" fill="rgb(0,0,0)" rx="2" ry="2" />
<text  x="1085.74" y="177.5" ></text>
</g>
<g >
<title>PCApply (808 us, 0.02%)</title><rect x="1084.3" y="263" width="0.3" height="15.0" fill="rgb(0,0,0)" rx="2" ry="2" />
<text  x="1087.32" y="273.5" ></text>
</g>
<g >
<title>KSPSolve (1,535 us, 0.05%)</title><rect x="1080.1" y="215" width="0.5" height="15.0" fill="rgb(0,0,0)" rx="2" ry="2" />
<text  x="1083.08" y="225.5" ></text>
</g>
<g >
<title>firedrake.functionspacedata.FunctionSpaceData.__init__ (1,274 us, 0.04%)</title><rect x="1091.2" y="231" width="0.4" height="15.0" fill="rgb(0,0,0)" rx="2" ry="2" />
<text  x="1094.17" y="241.5" ></text>
</g>
<g >
<title>Log_Event_form1_cell_integral_otherwise (721 us, 0.02%)</title><rect x="1114.1" y="151" width="0.2" height="15.0" fill="rgb(0,0,0)" rx="2" ry="2" />
<text  x="1117.06" y="161.5" ></text>
</g>
<g >
<title>PCGAMGPOpt_AGG (1,033 us, 0.03%)</title><rect x="1082.4" y="183" width="0.3" height="15.0" fill="rgb(0,0,0)" rx="2" ry="2" />
<text  x="1085.38" y="193.5" ></text>
</g>
<g >
<title>KSPSolve (2,497 us, 0.07%)</title><rect x="1083.7" y="215" width="0.9" height="15.0" fill="rgb(0,0,0)" rx="2" ry="2" />
<text  x="1086.73" y="225.5" ></text>
</g>
<g >
<title>firedrake.functionspaceimpl.FunctionSpace.__init__ (1,771 us, 0.05%)</title><rect x="1091.0" y="199" width="0.6" height="15.0" fill="rgb(0,0,0)" rx="2" ry="2" />
<text  x="1093.99" y="209.5" ></text>
</g>
<g >
<title>CreateMesh (389 us, 0.01%)</title><rect x="1071.3" y="119" width="0.1" height="15.0" fill="rgb(0,0,0)" rx="2" ry="2" />
<text  x="1074.31" y="129.5" ></text>
</g>
<g >
<title>all (3,390,016 us, 100%)</title><rect x="10.0" y="39" width="1180.0" height="15.0" fill="rgb(0,0,0)" rx="2" ry="2" />
<text  x="13.00" y="49.5" ></text>
</g>
<g >
<title>ParLoopExecute (70,805 us, 2.09%)</title><rect x="1101.1" y="119" width="24.6" height="15.0" fill="rgb(0,0,0)" rx="2" ry="2" />
<text  x="1104.08" y="129.5" >P..</text>
</g>
<g >
<title>firedrake.extrusion_utils.make_extruded_coords (70,310 us, 2.07%)</title><rect x="319.0" y="87" width="24.4" height="15.0" fill="rgb(0,0,0)" rx="2" ry="2" />
<text  x="321.95" y="97.5" >f..</text>
</g>
<g >
<title>PCGAMG Gal l00 (396 us, 0.01%)</title><rect x="1082.7" y="183" width="0.2" height="15.0" fill="rgb(0,0,0)" rx="2" ry="2" />
<text  x="1085.74" y="193.5" ></text>
</g>
<g >
<title>firedrake.ufl_expr.action (5,153 us, 0.15%)</title><rect x="1071.6" y="87" width="1.8" height="15.0" fill="rgb(0,0,0)" rx="2" ry="2" />
<text  x="1074.61" y="97.5" ></text>
</g>
<g >
<title>firedrake.tsfc_interface.compile_form (15,844 us, 0.47%)</title><rect x="975.9" y="103" width="5.5" height="15.0" fill="rgb(0,0,0)" rx="2" ry="2" />
<text  x="978.93" y="113.5" ></text>
</g>
<g >
<title>FunctionSpaceData: CreateElement (7,558 us, 0.22%)</title><rect x="350.0" y="135" width="2.7" height="15.0" fill="rgb(0,0,0)" rx="2" ry="2" />
<text  x="353.03" y="145.5" ></text>
</g>
<g >
<title>pyop2.global_kernel.GlobalKernel.compile (102,445 us, 3.02%)</title><rect x="984.6" y="151" width="35.7" height="15.0" fill="rgb(0,0,0)" rx="2" ry="2" />
<text  x="987.61" y="161.5" >py..</text>
</g>
<g >
<title>Parloop_Cells_wrap_form1_cell_integral_otherwise (33,524 us, 0.99%)</title><rect x="1114.1" y="135" width="11.6" height="15.0" fill="rgb(0,0,0)" rx="2" ry="2" />
<text  x="1117.06" y="145.5" ></text>
</g>
<g >
<title>CreateFunctionSpace (2,679 us, 0.08%)</title><rect x="1086.0" y="151" width="1.0" height="15.0" fill="rgb(0,0,0)" rx="2" ry="2" />
<text  x="1089.05" y="161.5" ></text>
</g>
<g >
<title>firedrake.functionspacedata.FunctionSpaceData.__init__ (452 us, 0.01%)</title><rect x="981.7" y="119" width="0.2" height="15.0" fill="rgb(0,0,0)" rx="2" ry="2" />
<text  x="984.70" y="129.5" ></text>
</g>
<g >
<title>firedrake.linear_solver.LinearSolver.__init__ (2,127 us, 0.06%)</title><rect x="974.9" y="103" width="0.8" height="15.0" fill="rgb(0,0,0)" rx="2" ry="2" />
<text  x="977.91" y="113.5" ></text>
</g>
<g >
<title>firedrake.functionspace.MixedFunctionSpace (1,169 us, 0.03%)</title><rect x="981.4" y="71" width="0.5" height="15.0" fill="rgb(0,0,0)" rx="2" ry="2" />
<text  x="984.45" y="81.5" ></text>
</g>
<g >
<title>ParLoopExecute (66,224 us, 1.95%)</title><rect x="943.4" y="119" width="23.1" height="15.0" fill="rgb(0,0,0)" rx="2" ry="2" />
<text  x="946.42" y="129.5" >P..</text>
</g>
<g >
<title>firedrake.tsfc_interface.compile_form (145,971 us, 4.31%)</title><rect x="1020.3" y="119" width="50.8" height="15.0" fill="rgb(0,0,0)" rx="2" ry="2" />
<text  x="1023.27" y="129.5" >fire..</text>
</g>
<g >
<title>firedrake.functionspacedata.get_shared_data (18,489 us, 0.55%)</title><rect x="347.0" y="103" width="6.5" height="15.0" fill="rgb(0,0,0)" rx="2" ry="2" />
<text  x="350.02" y="113.5" ></text>
</g>
<g >
<title>MatMult (514 us, 0.02%)</title><rect x="1083.9" y="231" width="0.2" height="15.0" fill="rgb(0,0,0)" rx="2" ry="2" />
<text  x="1086.88" y="241.5" ></text>
</g>
<g >
<title>CreateFunctionSpace (1,063 us, 0.03%)</title><rect x="1086.5" y="183" width="0.3" height="15.0" fill="rgb(0,0,0)" rx="2" ry="2" />
<text  x="1089.47" y="193.5" ></text>
</g>
<g >
<title>ParLoopExecute (62,336 us, 1.84%)</title><rect x="890.4" y="119" width="21.7" height="15.0" fill="rgb(0,0,0)" rx="2" ry="2" />
<text  x="893.44" y="129.5" ></text>
</g>
<g >
<title>CreateSparsity (591 us, 0.02%)</title><rect x="966.8" y="135" width="0.2" height="15.0" fill="rgb(0,0,0)" rx="2" ry="2" />
<text  x="969.76" y="145.5" ></text>
</g>
<g >
<title>CreateFunctionSpace (20,838 us, 0.61%)</title><rect x="346.2" y="71" width="7.3" height="15.0" fill="rgb(0,0,0)" rx="2" ry="2" />
<text  x="349.20" y="81.5" ></text>
</g>
<g >
<title>PCApply (1,535 us, 0.05%)</title><rect x="1080.1" y="199" width="0.5" height="15.0" fill="rgb(0,0,0)" rx="2" ry="2" />
<text  x="1083.08" y="209.5" ></text>
</g>
<g >
<title>PCApply (14,333 us, 0.42%)</title><rect x="1079.6" y="119" width="5.0" height="15.0" fill="rgb(0,0,0)" rx="2" ry="2" />
<text  x="1082.61" y="129.5" ></text>
</g>
<g >
<title>Parloop_Cells_wrap_form01_cell_integral_otherwise (34,832 us, 1.03%)</title><rect x="1148.5" y="135" width="12.1" height="15.0" fill="rgb(0,0,0)" rx="2" ry="2" />
<text  x="1151.47" y="145.5" ></text>
</g>
<g >
<title>MatView (2,718 us, 0.08%)</title><rect x="1084.6" y="103" width="0.9" height="15.0" fill="rgb(0,0,0)" rx="2" ry="2" />
<text  x="1087.60" y="113.5" ></text>
</g>
<g >
<title>pyop2.global_kernel.GlobalKernel.compile (31,676 us, 0.93%)</title><rect x="1137.4" y="151" width="11.1" height="15.0" fill="rgb(0,0,0)" rx="2" ry="2" />
<text  x="1140.44" y="161.5" ></text>
</g>
<g >
<title>firedrake.functionspace.VectorFunctionSpace (6,555 us, 0.19%)</title><rect x="343.4" y="87" width="2.3" height="15.0" fill="rgb(0,0,0)" rx="2" ry="2" />
<text  x="346.42" y="97.5" ></text>
</g>
<g >
<title>MatMult (2,887 us, 0.09%)</title><rect x="1083.6" y="167" width="1.0" height="15.0" fill="rgb(0,0,0)" rx="2" ry="2" />
<text  x="1086.59" y="177.5" ></text>
</g>
<g >
<title>FunctionSpaceData: CreateElement (745 us, 0.02%)</title><rect x="345.2" y="167" width="0.3" height="15.0" fill="rgb(0,0,0)" rx="2" ry="2" />
<text  x="348.23" y="177.5" ></text>
</g>
<g >
<title>Parloop_Cells_wrap_form10_cell_integral_otherwise (31,584 us, 0.93%)</title><rect x="1160.6" y="135" width="11.0" height="15.0" fill="rgb(0,0,0)" rx="2" ry="2" />
<text  x="1163.59" y="145.5" ></text>
</g>
<g >
<title>firedrake.functionspacedata.FunctionSpaceData.__init__ (485 us, 0.01%)</title><rect x="1086.7" y="231" width="0.1" height="15.0" fill="rgb(0,0,0)" rx="2" ry="2" />
<text  x="1089.67" y="241.5" ></text>
</g>
<g >
<title>Parloop_Cells_wrap_form0_cell_integral_otherwise (65,445 us, 1.93%)</title><rect x="919.5" y="119" width="22.8" height="15.0" fill="rgb(0,0,0)" rx="2" ry="2" />
<text  x="922.51" y="129.5" ></text>
</g>
<g >
<title>MatSOR (808 us, 0.02%)</title><rect x="1084.3" y="279" width="0.3" height="15.0" fill="rgb(0,0,0)" rx="2" ry="2" />
<text  x="1087.32" y="289.5" ></text>
</g>
<g >
<title>KSPSolve (2,885 us, 0.09%)</title><rect x="1079.6" y="151" width="1.0" height="15.0" fill="rgb(0,0,0)" rx="2" ry="2" />
<text  x="1082.61" y="161.5" ></text>
</g>
<g >
<title>firedrake.functionspaceimpl.FunctionSpace.__init__ (2,265 us, 0.07%)</title><rect x="1189.2" y="199" width="0.8" height="15.0" fill="rgb(0,0,0)" rx="2" ry="2" />
<text  x="1192.21" y="209.5" ></text>
</g>
<g >
<title>firedrake.formmanipulation.split_form (7,712 us, 0.23%)</title><rect x="1187.3" y="135" width="2.7" height="15.0" fill="rgb(0,0,0)" rx="2" ry="2" />
<text  x="1190.32" y="145.5" ></text>
</g>
<g >
<title>firedrake.formmanipulation.ExtractSubBlock.split (7,858 us, 0.23%)</title><rect x="1088.9" y="151" width="2.7" height="15.0" fill="rgb(0,0,0)" rx="2" ry="2" />
<text  x="1091.88" y="161.5" ></text>
</g>
<g >
<title>CreateExtMesh (78,753 us, 2.32%)</title><rect x="318.8" y="71" width="27.4" height="15.0" fill="rgb(0,0,0)" rx="2" ry="2" />
<text  x="321.79" y="81.5" >C..</text>
</g>
<g >
<title>GAMG: createProl (1,739 us, 0.05%)</title><rect x="1082.1" y="167" width="0.6" height="15.0" fill="rgb(0,0,0)" rx="2" ry="2" />
<text  x="1085.14" y="177.5" ></text>
</g>
<g >
<title>MatView (662 us, 0.02%)</title><rect x="1085.3" y="119" width="0.2" height="15.0" fill="rgb(0,0,0)" rx="2" ry="2" />
<text  x="1088.31" y="129.5" ></text>
</g>
<g >
<title>MatMult (535 us, 0.02%)</title><rect x="1080.9" y="199" width="0.2" height="15.0" fill="rgb(0,0,0)" rx="2" ry="2" />
<text  x="1083.93" y="209.5" ></text>
</g>
<g >
<title>ParLoopExecute (103,916 us, 3.07%)</title><rect x="984.1" y="119" width="36.2" height="15.0" fill="rgb(0,0,0)" rx="2" ry="2" />
<text  x="987.10" y="129.5" >Pa..</text>
</g>
<g >
<title>CreateFunctionSpace (1,003 us, 0.03%)</title><rect x="1135.7" y="183" width="0.4" height="15.0" fill="rgb(0,0,0)" rx="2" ry="2" />
<text  x="1138.73" y="193.5" ></text>
</g>
<g >
<title>firedrake.assemble.assemble (80,844 us, 2.38%)</title><rect x="890.1" y="71" width="28.2" height="15.0" fill="rgb(0,0,0)" rx="2" ry="2" />
<text  x="893.14" y="81.5" >f..</text>
</g>
<g >
<title>PCApply (782 us, 0.02%)</title><rect x="1081.4" y="231" width="0.3" height="15.0" fill="rgb(0,0,0)" rx="2" ry="2" />
<text  x="1084.39" y="241.5" ></text>
</g>
<g >
<title>KSPSolve_FS_0 (2,885 us, 0.09%)</title><rect x="1079.6" y="135" width="1.0" height="15.0" fill="rgb(0,0,0)" rx="2" ry="2" />
<text  x="1082.61" y="145.5" ></text>
</g>
<g >
<title>firedrake.utility_meshes.RectangleMesh (1,510 us, 0.04%)</title><rect x="1071.1" y="87" width="0.5" height="15.0" fill="rgb(0,0,0)" rx="2" ry="2" />
<text  x="1074.08" y="97.5" ></text>
</g>
<g >
<title>KSPSolve (14,793 us, 0.44%)</title><rect x="1079.4" y="103" width="5.2" height="15.0" fill="rgb(0,0,0)" rx="2" ry="2" />
<text  x="1082.45" y="113.5" ></text>
</g>
<g >
<title>KSPSolve (1,546 us, 0.05%)</title><rect x="1081.1" y="215" width="0.6" height="15.0" fill="rgb(0,0,0)" rx="2" ry="2" />
<text  x="1084.12" y="225.5" ></text>
</g>
<g >
<title>firedrake.assemble.assemble (255,475 us, 7.54%)</title><rect x="982.2" y="103" width="88.9" height="15.0" fill="rgb(0,0,0)" rx="2" ry="2" />
<text  x="985.15" y="113.5" >firedrake..</text>
</g>
<g >
<title>pyop2.global_kernel.GlobalKernel.compile (35,958 us, 1.06%)</title><rect x="1101.5" y="151" width="12.6" height="15.0" fill="rgb(0,0,0)" rx="2" ry="2" />
<text  x="1104.54" y="161.5" ></text>
</g>
<g >
<title>firedrake.functionspaceimpl.FunctionSpace.__init__ (6,154 us, 0.18%)</title><rect x="343.6" y="119" width="2.1" height="15.0" fill="rgb(0,0,0)" rx="2" ry="2" />
<text  x="346.56" y="129.5" ></text>
</g>
<g >
<title>firedrake.functionspace.make_scalar_element (813 us, 0.02%)</title><rect x="1090.7" y="199" width="0.3" height="15.0" fill="rgb(0,0,0)" rx="2" ry="2" />
<text  x="1093.71" y="209.5" ></text>
</g>
<g >
<title>firedrake.assemble_expressions.assemble_expression (80,844 us, 2.38%)</title><rect x="890.1" y="87" width="28.2" height="15.0" fill="rgb(0,0,0)" rx="2" ry="2" />
<text  x="893.14" y="97.5" >f..</text>
</g>
<g >
<title>firedrake.assemble.allocate_matrix (1,622 us, 0.05%)</title><rect x="1078.4" y="87" width="0.6" height="15.0" fill="rgb(0,0,0)" rx="2" ry="2" />
<text  x="1081.40" y="97.5" ></text>
</g>
<g >
<title>pyop2.global_kernel.GlobalKernel.compile (65,700 us, 1.94%)</title><rect x="943.6" y="151" width="22.9" height="15.0" fill="rgb(0,0,0)" rx="2" ry="2" />
<text  x="946.60" y="161.5" ></text>
</g>
<g >
<title>firedrake.mesh._from_cell_list (459 us, 0.01%)</title><rect x="1071.4" y="103" width="0.2" height="15.0" fill="rgb(0,0,0)" rx="2" ry="2" />
<text  x="1074.45" y="113.5" ></text>
</g>
<g >
<title>firedrake.linear_solver.LinearSolver.solve (795 us, 0.02%)</title><rect x="975.7" y="103" width="0.2" height="15.0" fill="rgb(0,0,0)" rx="2" ry="2" />
<text  x="978.65" y="113.5" ></text>
</g>
<g >
<title>PCApply (1,543 us, 0.05%)</title><rect x="1084.1" y="231" width="0.5" height="15.0" fill="rgb(0,0,0)" rx="2" ry="2" />
<text  x="1087.06" y="241.5" ></text>
</g>
<g >
<title>firedrake.projection.project (181,459 us, 5.35%)</title><rect x="918.3" y="87" width="63.1" height="15.0" fill="rgb(0,0,0)" rx="2" ry="2" />
<text  x="921.28" y="97.5" >firedr..</text>
</g>
<g >
<title>KSPSolve (2,485 us, 0.07%)</title><rect x="1079.7" y="183" width="0.9" height="15.0" fill="rgb(0,0,0)" rx="2" ry="2" />
<text  x="1082.75" y="193.5" ></text>
</g>
<g >
<title>firedrake.mesh.MeshTopology._facets (2,280 us, 0.07%)</title><rect x="352.7" y="135" width="0.8" height="15.0" fill="rgb(0,0,0)" rx="2" ry="2" />
<text  x="355.66" y="145.5" ></text>
</g>
<g >
<title>firedrake.assemble.assemble (93,728 us, 2.76%)</title><rect x="942.3" y="103" width="32.6" height="15.0" fill="rgb(0,0,0)" rx="2" ry="2" />
<text  x="945.29" y="113.5" >fi..</text>
</g>
<g >
<title>firedrake.variational_solver.NonlinearVariationalSolver.__init__ (2,685 us, 0.08%)</title><rect x="1078.0" y="71" width="1.0" height="15.0" fill="rgb(0,0,0)" rx="2" ry="2" />
<text  x="1081.03" y="81.5" ></text>
</g>
<g >
<title>MatPtAPNumeric (396 us, 0.01%)</title><rect x="1082.7" y="199" width="0.2" height="15.0" fill="rgb(0,0,0)" rx="2" ry="2" />
<text  x="1085.74" y="209.5" ></text>
</g>
<g >
<title>firedrake.functionspacedata.get_shared_data (1,274 us, 0.04%)</title><rect x="1091.2" y="215" width="0.4" height="15.0" fill="rgb(0,0,0)" rx="2" ry="2" />
<text  x="1094.17" y="225.5" ></text>
</g>
<g >
<title>Mesh: numbering (622 us, 0.02%)</title><rect x="353.7" y="87" width="0.3" height="15.0" fill="rgb(0,0,0)" rx="2" ry="2" />
<text  x="356.74" y="97.5" ></text>
</g>
<g >
<title>KSPSolve_FS_Schu (3,466 us, 0.10%)</title><rect x="1083.4" y="135" width="1.2" height="15.0" fill="rgb(0,0,0)" rx="2" ry="2" />
<text  x="1086.39" y="145.5" ></text>
</g>
<g >
<title>firedrake.functionspacedata.get_shared_data (485 us, 0.01%)</title><rect x="1086.7" y="215" width="0.1" height="15.0" fill="rgb(0,0,0)" rx="2" ry="2" />
<text  x="1089.67" y="225.5" ></text>
</g>
<g >
<title>firedrake.assemble.allocate_matrix (1,417 us, 0.04%)</title><rect x="966.5" y="119" width="0.5" height="15.0" fill="rgb(0,0,0)" rx="2" ry="2" />
<text  x="969.47" y="129.5" ></text>
</g>
<g >
<title>firedrake.tsfc_interface.compile_form (52,904 us, 1.56%)</title><rect x="1171.6" y="119" width="18.4" height="15.0" fill="rgb(0,0,0)" rx="2" ry="2" />
<text  x="1174.59" y="129.5" ></text>
</g>
<g >
<title>Parloop_Cells_wrap_pyop2_kernel_uniform_extrusion (38,752 us, 1.14%)</title><rect x="329.9" y="119" width="13.5" height="15.0" fill="rgb(0,0,0)" rx="2" ry="2" />
<text  x="332.94" y="129.5" ></text>
</g>
<g >
<title>firedrake.ufl_expr.adjoint (21,527 us, 0.64%)</title><rect x="1091.8" y="167" width="7.5" height="15.0" fill="rgb(0,0,0)" rx="2" ry="2" />
<text  x="1094.80" y="177.5" ></text>
</g>
<g >
<title>Parloop_Cells_wrap_form00_cell_integral_otherwise (31,676 us, 0.93%)</title><rect x="1137.4" y="135" width="11.1" height="15.0" fill="rgb(0,0,0)" rx="2" ry="2" />
<text  x="1140.44" y="145.5" ></text>
</g>
<g >
<title>KSPSetUp (858 us, 0.03%)</title><rect x="1083.1" y="167" width="0.3" height="15.0" fill="rgb(0,0,0)" rx="2" ry="2" />
<text  x="1086.09" y="177.5" ></text>
</g>
<g >
<title>Parloop_set_#x7fecf20cfb50_wrap_expression_kernel (31,140 us, 0.92%)</title><rect x="901.3" y="135" width="10.8" height="15.0" fill="rgb(0,0,0)" rx="2" ry="2" />
<text  x="904.30" y="145.5" ></text>
</g>
<g >
<title>firedrake (3,390,016 us, 100.00%)</title><rect x="10.0" y="55" width="1180.0" height="15.0" fill="rgb(0,0,0)" rx="2" ry="2" />
<text  x="13.00" y="65.5" >firedrake</text>
</g>
<g >
<title>PCApply (1,546 us, 0.05%)</title><rect x="1081.1" y="199" width="0.6" height="15.0" fill="rgb(0,0,0)" rx="2" ry="2" />
<text  x="1084.12" y="209.5" ></text>
</g>
<g >
<title>MatSOR (784 us, 0.02%)</title><rect x="1080.3" y="247" width="0.3" height="15.0" fill="rgb(0,0,0)" rx="2" ry="2" />
<text  x="1083.34" y="257.5" ></text>
</g>
<g >
<title>firedrake.formmanipulation.ExtractSubBlock.argument (5,932 us, 0.17%)</title><rect x="1187.9" y="167" width="2.1" height="15.0" fill="rgb(0,0,0)" rx="2" ry="2" />
<text  x="1190.94" y="177.5" ></text>
</g>
<g >
<title>firedrake.norms.norm (256,344 us, 7.56%)</title><rect x="981.9" y="87" width="89.2" height="15.0" fill="rgb(0,0,0)" rx="2" ry="2" />
<text  x="984.85" y="97.5" >firedrake..</text>
</g>
<g >
<title>pyop2.global_kernel.GlobalKernel.compile (31,584 us, 0.93%)</title><rect x="1160.6" y="151" width="11.0" height="15.0" fill="rgb(0,0,0)" rx="2" ry="2" />
<text  x="1163.59" y="161.5" ></text>
</g>
<g >
<title>Parloop_Cells_wrap_form_cell_integral_otherwise (103,107 us, 3.04%)</title><rect x="984.4" y="135" width="35.9" height="15.0" fill="rgb(0,0,0)" rx="2" ry="2" />
<text  x="987.38" y="145.5" >Pa..</text>
</g>
<g >
<title>firedrake.functionspacedata.get_shared_data (409 us, 0.01%)</title><rect x="1135.9" y="215" width="0.2" height="15.0" fill="rgb(0,0,0)" rx="2" ry="2" />
<text  x="1138.94" y="225.5" ></text>
</g>
<g >
<title>pyop2.global_kernel.GlobalKernel.compile (31,140 us, 0.92%)</title><rect x="901.3" y="151" width="10.8" height="15.0" fill="rgb(0,0,0)" rx="2" ry="2" />
<text  x="904.30" y="161.5" ></text>
</g>
<g >
<title>firedrake.formmanipulation.ExtractSubBlock.split (7,712 us, 0.23%)</title><rect x="1187.3" y="151" width="2.7" height="15.0" fill="rgb(0,0,0)" rx="2" ry="2" />
<text  x="1190.32" y="161.5" ></text>
</g>
<g >
<title>CreateFunctionSpace (3,621 us, 0.11%)</title><rect x="1090.4" y="183" width="1.2" height="15.0" fill="rgb(0,0,0)" rx="2" ry="2" />
<text  x="1093.35" y="193.5" ></text>
</g>
<g >
<title>KSPSolve (1,543 us, 0.05%)</title><rect x="1084.1" y="247" width="0.5" height="15.0" fill="rgb(0,0,0)" rx="2" ry="2" />
<text  x="1087.06" y="257.5" ></text>
</g>
<g >
<title>firedrake.dmhooks.create_field_decomposition (39,902 us, 1.18%)</title><rect x="1085.8" y="119" width="13.9" height="15.0" fill="rgb(0,0,0)" rx="2" ry="2" />
<text  x="1088.78" y="129.5" ></text>
</g>
<g >
<title>firedrake.functionspacedata.FunctionSpaceData.__init__ (18,489 us, 0.55%)</title><rect x="347.0" y="119" width="6.5" height="15.0" fill="rgb(0,0,0)" rx="2" ry="2" />
<text  x="350.02" y="129.5" ></text>
</g>
<g >
<title>firedrake.functionspacedata.FunctionSpaceData.__init__ (6,154 us, 0.18%)</title><rect x="343.6" y="151" width="2.1" height="15.0" fill="rgb(0,0,0)" rx="2" ry="2" />
<text  x="346.56" y="161.5" ></text>
</g>
<g >
<title>firedrake.__init__ (1,539,910 us, 45.42%)</title><rect x="354.1" y="71" width="536.0" height="15.0" fill="rgb(0,0,0)" rx="2" ry="2" />
<text  x="357.13" y="81.5" >firedrake.__init__</text>
</g>
<g >
<title>firedrake.mesh.ExtrudedMeshTopology.__init__ (833 us, 0.02%)</title><rect x="345.7" y="87" width="0.3" height="15.0" fill="rgb(0,0,0)" rx="2" ry="2" />
<text  x="348.71" y="97.5" ></text>
</g>
<g >
<title>ParLoopExecute (65,445 us, 1.93%)</title><rect x="919.5" y="103" width="22.8" height="15.0" fill="rgb(0,0,0)" rx="2" ry="2" />
<text  x="922.51" y="113.5" ></text>
</g>
<g >
<title>PCApply (2,885 us, 0.09%)</title><rect x="1079.6" y="167" width="1.0" height="15.0" fill="rgb(0,0,0)" rx="2" ry="2" />
<text  x="1082.61" y="177.5" ></text>
</g>
<g >
<title>firedrake.functionspaceimpl.FunctionSpace.__init__ (398 us, 0.01%)</title><rect x="1086.8" y="183" width="0.2" height="15.0" fill="rgb(0,0,0)" rx="2" ry="2" />
<text  x="1089.84" y="193.5" ></text>
</g>
<g >
<title>SNESSolve (318,989 us, 9.41%)</title><rect x="1079.0" y="87" width="111.0" height="15.0" fill="rgb(0,0,0)" rx="2" ry="2" />
<text  x="1081.97" y="97.5" >SNESSolve</text>
</g>
<g >
<title>Parloop_Cells_wrap_form0_cell_integral_otherwise (36,849 us, 1.09%)</title><rect x="1101.2" y="135" width="12.9" height="15.0" fill="rgb(0,0,0)" rx="2" ry="2" />
<text  x="1104.23" y="145.5" ></text>
</g>
<g >
<title>firedrake.functionspacedata.FunctionSpaceData.__init__ (409 us, 0.01%)</title><rect x="1135.9" y="231" width="0.2" height="15.0" fill="rgb(0,0,0)" rx="2" ry="2" />
<text  x="1138.94" y="241.5" ></text>
</g>
<g >
<title>firedrake.function.Function.split (418 us, 0.01%)</title><rect x="1070.9" y="135" width="0.2" height="15.0" fill="rgb(0,0,0)" rx="2" ry="2" />
<text  x="1073.94" y="145.5" ></text>
</g>
<g >
<title>MatMult (515 us, 0.02%)</title><rect x="1079.9" y="199" width="0.2" height="15.0" fill="rgb(0,0,0)" rx="2" ry="2" />
<text  x="1082.90" y="209.5" ></text>
</g>
<g >
<title>firedrake.function.Function.split (984 us, 0.03%)</title><rect x="1077.7" y="119" width="0.3" height="15.0" fill="rgb(0,0,0)" rx="2" ry="2" />
<text  x="1080.69" y="129.5" ></text>
</g>
<g >
<title>firedrake.formmanipulation.ExtractSubBlock.argument (1,003 us, 0.03%)</title><rect x="1135.7" y="167" width="0.4" height="15.0" fill="rgb(0,0,0)" rx="2" ry="2" />
<text  x="1138.73" y="177.5" ></text>
</g>
<g >
<title>firedrake.functionspaceimpl.FunctionSpace.__init__ (19,394 us, 0.57%)</title><rect x="346.7" y="87" width="6.8" height="15.0" fill="rgb(0,0,0)" rx="2" ry="2" />
<text  x="349.70" y="97.5" ></text>
</g>
<g >
<title>firedrake.dmhooks.get_function_space (3,453 us, 0.10%)</title><rect x="1085.8" y="135" width="1.2" height="15.0" fill="rgb(0,0,0)" rx="2" ry="2" />
<text  x="1088.78" y="145.5" ></text>
</g>
<g >
<title>pyop2.global_kernel.GlobalKernel.compile (32,803 us, 0.97%)</title><rect x="1114.3" y="151" width="11.4" height="15.0" fill="rgb(0,0,0)" rx="2" ry="2" />
<text  x="1117.31" y="161.5" ></text>
</g>
<g >
<title>pyop2.global_kernel.GlobalKernel.compile (31,196 us, 0.92%)</title><rect x="890.4" y="151" width="10.9" height="15.0" fill="rgb(0,0,0)" rx="2" ry="2" />
<text  x="893.44" y="161.5" ></text>
</g>
<g >
<title>firedrake.assemble_expressions.evaluate_expression (80,844 us, 2.38%)</title><rect x="890.1" y="103" width="28.2" height="15.0" fill="rgb(0,0,0)" rx="2" ry="2" />
<text  x="893.14" y="113.5" >f..</text>
</g>
<g >
<title>firedrake.assemble_expressions.compile_to_gem (1,565 us, 0.05%)</title><rect x="917.7" y="135" width="0.6" height="15.0" fill="rgb(0,0,0)" rx="2" ry="2" />
<text  x="920.74" y="145.5" ></text>
</g>
<g >
<title>firedrake.mesh._Facets.__init__ (609 us, 0.02%)</title><rect x="345.5" y="167" width="0.2" height="15.0" fill="rgb(0,0,0)" rx="2" ry="2" />
<text  x="348.49" y="177.5" ></text>
</g>
<g >
<title>PCApply (2,887 us, 0.09%)</title><rect x="1083.6" y="199" width="1.0" height="15.0" fill="rgb(0,0,0)" rx="2" ry="2" />
<text  x="1086.59" y="209.5" ></text>
</g>
<g >
<title>KSPSolve_FS_Low (7,982 us, 0.24%)</title><rect x="1080.6" y="135" width="2.8" height="15.0" fill="rgb(0,0,0)" rx="2" ry="2" />
<text  x="1083.61" y="145.5" ></text>
</g>
<g >
<title>firedrake.mesh._Facets.__init__ (791 us, 0.02%)</title><rect x="353.2" y="151" width="0.3" height="15.0" fill="rgb(0,0,0)" rx="2" ry="2" />
<text  x="356.18" y="161.5" ></text>
</g>
<g >
<title>firedrake.ufl_expr.adjoint (11,920 us, 0.35%)</title><rect x="1073.4" y="103" width="4.1" height="15.0" fill="rgb(0,0,0)" rx="2" ry="2" />
<text  x="1076.40" y="113.5" ></text>
</g>
<g >
<title>Parloop_set_#x7fecf20ce680_wrap_expression_kernel (31,196 us, 0.92%)</title><rect x="890.4" y="135" width="10.9" height="15.0" fill="rgb(0,0,0)" rx="2" ry="2" />
<text  x="893.44" y="145.5" ></text>
</g>
</g>
</svg>
