<?xml version="1.0" standalone="no"?>
<!DOCTYPE svg PUBLIC "-//W3C//DTD SVG 1.1//EN" "http://www.w3.org/Graphics/SVG/1.1/DTD/svg11.dtd">
<svg version="1.1" width="1200" height="267" onload="init(evt)" viewBox="0 0 1200 267" xmlns="http://www.w3.org/2000/svg" xmlns:xlink="http://www.w3.org/1999/xlink">
<!-- Flame graph stack visualization. See https://github.com/brendangregg/FlameGraph for latest version, and http://www.brendangregg.com/flamegraphs.html for examples. -->
<!-- NOTES:  -->
<defs>
	<linearGradient id="background" y1="0" y2="1" x1="0" x2="0" >
		<stop stop-color="#eeeeee" offset="5%" />
		<stop stop-color="#eeeeb0" offset="95%" />
	</linearGradient>
</defs>
<style type="text/css">
	text { font-family:Verdana; font-size:13px; fill:rgb(0,0,0); }
	#search, #ignorecase { opacity:0.1; cursor:pointer; }
	#search:hover, #search.show, #ignorecase:hover, #ignorecase.show { opacity:1; }
	#subtitle { text-anchor:middle; font-color:rgb(160,160,160); }
	#title { text-anchor:middle; font-size:18px}
	#unzoom { cursor:pointer; }
	#frames > *:hover { stroke:black; stroke-width:0.5; cursor:pointer; }
	.hide { display:none; }
	.parent { opacity:0.5; }
</style>
<script type="text/ecmascript">
<![CDATA[
	"use strict";
	var details, searchbtn, unzoombtn, matchedtxt, svg, searching, currentSearchTerm, ignorecase, ignorecaseBtn;
	function init(evt) {
		details = document.getElementById("details").firstChild;
		searchbtn = document.getElementById("search");
		ignorecaseBtn = document.getElementById("ignorecase");
		unzoombtn = document.getElementById("unzoom");
		matchedtxt = document.getElementById("matched");
		svg = document.getElementsByTagName("svg")[0];
		searching = 0;
		currentSearchTerm = null;

		// use GET parameters to restore a flamegraphs state.
		var params = get_params();
		if (params.x && params.y)
			zoom(find_group(document.querySelector('[x="' + params.x + '"][y="' + params.y + '"]')));
                if (params.s) search(params.s);
	}

	// event listeners
	window.addEventListener("click", function(e) {
		var target = find_group(e.target);
		if (target) {
			if (target.nodeName == "a") {
				if (e.ctrlKey === false) return;
				e.preventDefault();
			}
			if (target.classList.contains("parent")) unzoom();
			zoom(target);
			if (!document.querySelector('.parent')) {
				clearzoom();
				return;
			}

			// set parameters for zoom state
			var el = target.querySelector("rect");
			if (el && el.attributes && el.attributes.y && el.attributes._orig_x) {
				var params = get_params()
				params.x = el.attributes._orig_x.value;
				params.y = el.attributes.y.value;
				history.replaceState(null, null, parse_params(params));
			}
		}
		else if (e.target.id == "unzoom") clearzoom();
		else if (e.target.id == "search") search_prompt();
		else if (e.target.id == "ignorecase") toggle_ignorecase();
	}, false)

	// mouse-over for info
	// show
	window.addEventListener("mouseover", function(e) {
		var target = find_group(e.target);
		if (target) details.nodeValue = "Function: " + g_to_text(target);
	}, false)

	// clear
	window.addEventListener("mouseout", function(e) {
		var target = find_group(e.target);
		if (target) details.nodeValue = ' ';
	}, false)

	// ctrl-F for search
	// ctrl-I to toggle case-sensitive search
	window.addEventListener("keydown",function (e) {
		if (e.keyCode === 114 || (e.ctrlKey && e.keyCode === 70)) {
			e.preventDefault();
			search_prompt();
		}
		else if (e.ctrlKey && e.keyCode === 73) {
			e.preventDefault();
			toggle_ignorecase();
		}
	}, false)

	// functions
	function get_params() {
		var params = {};
		var paramsarr = window.location.search.substr(1).split('&');
		for (var i = 0; i < paramsarr.length; ++i) {
			var tmp = paramsarr[i].split("=");
			if (!tmp[0] || !tmp[1]) continue;
			params[tmp[0]]  = decodeURIComponent(tmp[1]);
		}
		return params;
	}
	function parse_params(params) {
		var uri = "?";
		for (var key in params) {
			uri += key + '=' + encodeURIComponent(params[key]) + '&';
		}
		if (uri.slice(-1) == "&")
			uri = uri.substring(0, uri.length - 1);
		if (uri == '?')
			uri = window.location.href.split('?')[0];
		return uri;
	}
	function find_child(node, selector) {
		var children = node.querySelectorAll(selector);
		if (children.length) return children[0];
	}
	function find_group(node) {
		var parent = node.parentElement;
		if (!parent) return;
		if (parent.id == "frames") return node;
		return find_group(parent);
	}
	function orig_save(e, attr, val) {
		if (e.attributes["_orig_" + attr] != undefined) return;
		if (e.attributes[attr] == undefined) return;
		if (val == undefined) val = e.attributes[attr].value;
		e.setAttribute("_orig_" + attr, val);
	}
	function orig_load(e, attr) {
		if (e.attributes["_orig_"+attr] == undefined) return;
		e.attributes[attr].value = e.attributes["_orig_" + attr].value;
		e.removeAttribute("_orig_"+attr);
	}
	function g_to_text(e) {
		var text = find_child(e, "title").firstChild.nodeValue;
		return (text)
	}
	function g_to_func(e) {
		var func = g_to_text(e);
		// if there's any manipulation we want to do to the function
		// name before it's searched, do it here before returning.
		return (func);
	}
	function update_text(e) {
		var r = find_child(e, "rect");
		var t = find_child(e, "text");
		var w = parseFloat(r.attributes.width.value) -3;
		var txt = find_child(e, "title").textContent.replace(/\([^(]*\)$/,"");
		t.attributes.x.value = parseFloat(r.attributes.x.value) + 3;

		// Smaller than this size won't fit anything
		if (w < 2 * 13 * 0.59) {
			t.textContent = "";
			return;
		}

		t.textContent = txt;
		// Fit in full text width
		if (/^ *$/.test(txt) || t.getSubStringLength(0, txt.length) < w)
			return;

		for (var x = txt.length - 2; x > 0; x--) {
			if (t.getSubStringLength(0, x + 2) <= w) {
				t.textContent = txt.substring(0, x) + "..";
				return;
			}
		}
		t.textContent = "";
	}

	// zoom
	function zoom_reset(e) {
		if (e.attributes != undefined) {
			orig_load(e, "x");
			orig_load(e, "width");
		}
		if (e.childNodes == undefined) return;
		for (var i = 0, c = e.childNodes; i < c.length; i++) {
			zoom_reset(c[i]);
		}
	}
	function zoom_child(e, x, ratio) {
		if (e.attributes != undefined) {
			if (e.attributes.x != undefined) {
				orig_save(e, "x");
				e.attributes.x.value = (parseFloat(e.attributes.x.value) - x - 10) * ratio + 10;
				if (e.tagName == "text")
					e.attributes.x.value = find_child(e.parentNode, "rect[x]").attributes.x.value + 3;
			}
			if (e.attributes.width != undefined) {
				orig_save(e, "width");
				e.attributes.width.value = parseFloat(e.attributes.width.value) * ratio;
			}
		}

		if (e.childNodes == undefined) return;
		for (var i = 0, c = e.childNodes; i < c.length; i++) {
			zoom_child(c[i], x - 10, ratio);
		}
	}
	function zoom_parent(e) {
		if (e.attributes) {
			if (e.attributes.x != undefined) {
				orig_save(e, "x");
				e.attributes.x.value = 10;
			}
			if (e.attributes.width != undefined) {
				orig_save(e, "width");
				e.attributes.width.value = parseInt(svg.width.baseVal.value) - (10 * 2);
			}
		}
		if (e.childNodes == undefined) return;
		for (var i = 0, c = e.childNodes; i < c.length; i++) {
			zoom_parent(c[i]);
		}
	}
	function zoom(node) {
		var attr = find_child(node, "rect").attributes;
		var width = parseFloat(attr.width.value);
		var xmin = parseFloat(attr.x.value);
		var xmax = parseFloat(xmin + width);
		var ymin = parseFloat(attr.y.value);
		var ratio = (svg.width.baseVal.value - 2 * 10) / width;

		// XXX: Workaround for JavaScript float issues (fix me)
		var fudge = 0.0001;

		unzoombtn.classList.remove("hide");

		var el = document.getElementById("frames").children;
		for (var i = 0; i < el.length; i++) {
			var e = el[i];
			var a = find_child(e, "rect").attributes;
			var ex = parseFloat(a.x.value);
			var ew = parseFloat(a.width.value);
			var upstack;
			// Is it an ancestor
			if (1 == 0) {
				upstack = parseFloat(a.y.value) > ymin;
			} else {
				upstack = parseFloat(a.y.value) < ymin;
			}
			if (upstack) {
				// Direct ancestor
				if (ex <= xmin && (ex+ew+fudge) >= xmax) {
					e.classList.add("parent");
					zoom_parent(e);
					update_text(e);
				}
				// not in current path
				else
					e.classList.add("hide");
			}
			// Children maybe
			else {
				// no common path
				if (ex < xmin || ex + fudge >= xmax) {
					e.classList.add("hide");
				}
				else {
					zoom_child(e, xmin, ratio);
					update_text(e);
				}
			}
		}
		search();
	}
	function unzoom() {
		unzoombtn.classList.add("hide");
		var el = document.getElementById("frames").children;
		for(var i = 0; i < el.length; i++) {
			el[i].classList.remove("parent");
			el[i].classList.remove("hide");
			zoom_reset(el[i]);
			update_text(el[i]);
		}
		search();
	}
	function clearzoom() {
		unzoom();

		// remove zoom state
		var params = get_params();
		if (params.x) delete params.x;
		if (params.y) delete params.y;
		history.replaceState(null, null, parse_params(params));
	}

	// search
	function toggle_ignorecase() {
		ignorecase = !ignorecase;
		if (ignorecase) {
			ignorecaseBtn.classList.add("show");
		} else {
			ignorecaseBtn.classList.remove("show");
		}
		reset_search();
		search();
	}
	function reset_search() {
		var el = document.querySelectorAll("#frames rect");
		for (var i = 0; i < el.length; i++) {
			orig_load(el[i], "fill")
		}
		var params = get_params();
		delete params.s;
		history.replaceState(null, null, parse_params(params));
	}
	function search_prompt() {
		if (!searching) {
			var term = prompt("Enter a search term (regexp " +
			    "allowed, eg: ^ext4_)"
			    + (ignorecase ? ", ignoring case" : "")
			    + "\nPress Ctrl-i to toggle case sensitivity", "");
			if (term != null) search(term);
		} else {
			reset_search();
			searching = 0;
			currentSearchTerm = null;
			searchbtn.classList.remove("show");
			searchbtn.firstChild.nodeValue = "Search"
			matchedtxt.classList.add("hide");
			matchedtxt.firstChild.nodeValue = ""
		}
	}
	function search(term) {
		if (term) currentSearchTerm = term;

		var re = new RegExp(currentSearchTerm, ignorecase ? 'i' : '');
		var el = document.getElementById("frames").children;
		var matches = new Object();
		var maxwidth = 0;
		for (var i = 0; i < el.length; i++) {
			var e = el[i];
			var func = g_to_func(e);
			var rect = find_child(e, "rect");
			if (func == null || rect == null)
				continue;

			// Save max width. Only works as we have a root frame
			var w = parseFloat(rect.attributes.width.value);
			if (w > maxwidth)
				maxwidth = w;

			if (func.match(re)) {
				// highlight
				var x = parseFloat(rect.attributes.x.value);
				orig_save(rect, "fill");
				rect.attributes.fill.value = "rgb(230,0,230)";

				// remember matches
				if (matches[x] == undefined) {
					matches[x] = w;
				} else {
					if (w > matches[x]) {
						// overwrite with parent
						matches[x] = w;
					}
				}
				searching = 1;
			}
		}
		if (!searching)
			return;
		var params = get_params();
		params.s = currentSearchTerm;
		history.replaceState(null, null, parse_params(params));

		searchbtn.classList.add("show");
		searchbtn.firstChild.nodeValue = "Reset Search";

		// calculate percent matched, excluding vertical overlap
		var count = 0;
		var lastx = -1;
		var lastw = 0;
		var keys = Array();
		for (k in matches) {
			if (matches.hasOwnProperty(k))
				keys.push(k);
		}
		// sort the matched frames by their x location
		// ascending, then width descending
		keys.sort(function(a, b){
			return a - b;
		});
		// Step through frames saving only the biggest bottom-up frames
		// thanks to the sort order. This relies on the tree property
		// where children are always smaller than their parents.
		var fudge = 0.0001;	// JavaScript floating point
		for (var k in keys) {
			var x = parseFloat(keys[k]);
			var w = matches[keys[k]];
			if (x >= lastx + lastw - fudge) {
				count += w;
				lastx = x;
				lastw = w;
			}
		}
		// display matched percent
		matchedtxt.classList.remove("hide");
		var pct = 100 * count / maxwidth;
		if (pct != 100) pct = pct.toFixed(1)
		matchedtxt.firstChild.nodeValue = "Matched: " + pct + "%";
	}
]]>
</script>
<rect x="0.0" y="0" width="1200.0" height="267.0" fill="url(#background)"  />
<text id="title" x="600.00" y="26" >Firedrake example</text>
<text id="details" x="10.00" y="249" > </text>
<text id="unzoom" x="10.00" y="26" class="hide">Reset Zoom</text>
<text id="search" x="1090.00" y="26" >Search</text>
<text id="ignorecase" x="1174.00" y="26" >ic</text>
<text id="matched" x="1090.00" y="249" > </text>
<g id="frames">
<g >
<title>CreateFunctionSpace (24,409 us, 0.01%)</title><rect x="22.0" y="71" width="0.1" height="15.0" fill="rgb(0,0,0)" rx="2" ry="2" />
<text  x="25.00" y="81.5" ></text>
</g>
<g >
<title>pyop2.global_kernel.GlobalKernel.compile (2,365,419 us, 0.99%)</title><rect x="51.1" y="119" width="11.7" height="15.0" fill="rgb(0,0,0)" rx="2" ry="2" />
<text  x="54.10" y="129.5" ></text>
</g>
<g >
<title>Parloop_IntFacets_wrap_form0_interior_facet_vert_integral_otherwise (2,605,616 us, 1.09%)</title><rect x="145.0" y="119" width="12.9" height="15.0" fill="rgb(0,0,0)" rx="2" ry="2" />
<text  x="148.05" y="129.5" ></text>
</g>
<g >
<title>ParLoopExecute (938,763 us, 0.39%)</title><rect x="17.4" y="103" width="4.6" height="15.0" fill="rgb(0,0,0)" rx="2" ry="2" />
<text  x="20.36" y="113.5" ></text>
</g>
<g >
<title>Log_Event_subkernel1_interior_facet_vert_to__exterior_facet_vert_integral_otherwise (110,525 us, 0.05%)</title><rect x="919.7" y="183" width="0.6" height="15.0" fill="rgb(0,0,0)" rx="2" ry="2" />
<text  x="922.75" y="193.5" ></text>
</g>
<g >
<title>ParLoopExecute (937,249 us, 0.39%)</title><rect x="446.1" y="183" width="4.6" height="15.0" fill="rgb(0,0,0)" rx="2" ry="2" />
<text  x="449.11" y="193.5" ></text>
</g>
<g >
<title>pyop2.global_kernel.GlobalKernel.compile (19,351,451 us, 8.09%)</title><rect x="451.9" y="183" width="95.5" height="15.0" fill="rgb(0,0,0)" rx="2" ry="2" />
<text  x="454.92" y="193.5" >pyop2.glob..</text>
</g>
<g >
<title>Parloop_Cells_wrap_pyop2_kernel_uniform_extrusion (938,763 us, 0.39%)</title><rect x="17.4" y="119" width="4.6" height="15.0" fill="rgb(0,0,0)" rx="2" ry="2" />
<text  x="20.36" y="129.5" ></text>
</g>
<g >
<title>MatCholFctrNum (385,011 us, 0.16%)</title><rect x="314.6" y="151" width="1.9" height="15.0" fill="rgb(0,0,0)" rx="2" ry="2" />
<text  x="317.56" y="161.5" ></text>
</g>
<g >
<title>PCApply (95,020,844 us, 39.73%)</title><rect x="439.6" y="119" width="468.8" height="15.0" fill="rgb(0,0,0)" rx="2" ry="2" />
<text  x="442.57" y="129.5" >PCApply</text>
</g>
<g >
<title>pyop2.global_kernel.GlobalKernel.compile (1,704,577 us, 0.71%)</title><rect x="125.6" y="135" width="8.4" height="15.0" fill="rgb(0,0,0)" rx="2" ry="2" />
<text  x="128.64" y="145.5" ></text>
</g>
<g >
<title>Log_Event_subkernel13_interior_facet_vert_to__exterior_facet_vert_integral_otherwise (102,531 us, 0.04%)</title><rect x="558.6" y="199" width="0.5" height="15.0" fill="rgb(0,0,0)" rx="2" ry="2" />
<text  x="561.64" y="209.5" ></text>
</g>
<g >
<title>firedrake.assemble.assemble (31,661,172 us, 13.24%)</title><rect x="157.9" y="103" width="156.2" height="15.0" fill="rgb(0,0,0)" rx="2" ry="2" />
<text  x="160.91" y="113.5" >firedrake.assemble..</text>
</g>
<g >
<title>solve_getrf (39,734 us, 0.02%)</title><rect x="451.0" y="199" width="0.2" height="15.0" fill="rgb(0,0,0)" rx="2" ry="2" />
<text  x="453.98" y="209.5" ></text>
</g>
<g >
<title>pyop2.global_kernel.GlobalKernel.compile (5,024,367 us, 2.10%)</title><rect x="86.7" y="135" width="24.8" height="15.0" fill="rgb(0,0,0)" rx="2" ry="2" />
<text  x="89.72" y="145.5" >p..</text>
</g>
<g >
<title>Parloop_Cells_wrap_wrap_slate_loopy_knl_0 (39,528,613 us, 16.53%)</title><rect x="918.3" y="167" width="195.0" height="15.0" fill="rgb(0,0,0)" rx="2" ry="2" />
<text  x="921.30" y="177.5" >Parloop_Cells_wrap_wrap..</text>
</g>
<g >
<title>CreateSparsity (2,143,585 us, 0.90%)</title><rect x="290.7" y="135" width="10.6" height="15.0" fill="rgb(0,0,0)" rx="2" ry="2" />
<text  x="293.70" y="145.5" ></text>
</g>
<g >
<title>ParLoopExecute (26,911,361 us, 11.25%)</title><rect x="157.9" y="119" width="132.8" height="15.0" fill="rgb(0,0,0)" rx="2" ry="2" />
<text  x="160.91" y="129.5" >ParLoopExecute</text>
</g>
<g >
<title>Parloop_Cells_wrap_form_exterior_facet_bottom_integral_otherwise (1,405,907 us, 0.59%)</title><rect x="29.8" y="103" width="7.0" height="15.0" fill="rgb(0,0,0)" rx="2" ry="2" />
<text  x="32.82" y="113.5" ></text>
</g>
<g >
<title>Parloop_Cells_wrap_wrap_slate_loopy_knl_14 (19,591,549 us, 8.19%)</title><rect x="450.7" y="167" width="96.7" height="15.0" fill="rgb(0,0,0)" rx="2" ry="2" />
<text  x="453.73" y="177.5" >Parloop_Ce..</text>
</g>
<g >
<title>pyop2.global_kernel.GlobalKernel.compile (946,017 us, 0.40%)</title><rect x="715.7" y="215" width="4.6" height="15.0" fill="rgb(0,0,0)" rx="2" ry="2" />
<text  x="718.66" y="225.5" ></text>
</g>
<g >
<title>Parloop_Cells_wrap_par_loop_kernel (777,123 us, 0.32%)</title><rect x="1131.2" y="167" width="3.9" height="15.0" fill="rgb(0,0,0)" rx="2" ry="2" />
<text  x="1134.24" y="177.5" ></text>
</g>
<g >
<title>pyop2.global_kernel.GlobalKernel.compile (2,229,790 us, 0.93%)</title><rect x="134.0" y="135" width="11.0" height="15.0" fill="rgb(0,0,0)" rx="2" ry="2" />
<text  x="137.05" y="145.5" ></text>
</g>
<g >
<title>Parloop_Cells_wrap_form00_cell_integral_otherwise (15,510,645 us, 6.49%)</title><rect x="157.9" y="135" width="76.5" height="15.0" fill="rgb(0,0,0)" rx="2" ry="2" />
<text  x="160.91" y="145.5" >Parloop..</text>
</g>
<g >
<title>Parloop_ExtFacets_wrap_form_exterior_facet_vert_integral_otherwise (2,365,419 us, 0.99%)</title><rect x="51.1" y="103" width="11.7" height="15.0" fill="rgb(0,0,0)" rx="2" ry="2" />
<text  x="54.10" y="113.5" ></text>
</g>
<g >
<title>SCForwardElim (38,811,197 us, 16.23%)</title><rect x="715.7" y="135" width="191.5" height="15.0" fill="rgb(0,0,0)" rx="2" ry="2" />
<text  x="718.66" y="145.5" >SCForwardElim</text>
</g>
<g >
<title>firedrake.function.Function.project (48,308,317 us, 20.20%)</title><rect x="86.6" y="71" width="238.4" height="15.0" fill="rgb(0,0,0)" rx="2" ry="2" />
<text  x="89.59" y="81.5" >firedrake.function.Function.p..</text>
</g>
<g >
<title>Log_Event_form1_cell_integral_otherwise (72,030 us, 0.03%)</title><rect x="1159.4" y="151" width="0.4" height="15.0" fill="rgb(0,0,0)" rx="2" ry="2" />
<text  x="1162.40" y="161.5" ></text>
</g>
<g >
<title>firedrake.extrusion_utils.make_extruded_coords (972,224 us, 0.41%)</title><rect x="17.2" y="87" width="4.8" height="15.0" fill="rgb(0,0,0)" rx="2" ry="2" />
<text  x="20.20" y="97.5" ></text>
</g>
<g >
<title>SCBackSub (55,952,956 us, 23.40%)</title><rect x="439.6" y="135" width="276.1" height="15.0" fill="rgb(0,0,0)" rx="2" ry="2" />
<text  x="442.57" y="145.5" >SCBackSub</text>
</g>
<g >
<title>Log_Event_slate_loopy_knl_14 (39,734 us, 0.02%)</title><rect x="451.0" y="183" width="0.2" height="15.0" fill="rgb(0,0,0)" rx="2" ry="2" />
<text  x="453.98" y="193.5" ></text>
</g>
<g >
<title>pyop2.global_kernel.GlobalKernel.compile (1,866,764 us, 0.78%)</title><rect x="254.7" y="151" width="9.2" height="15.0" fill="rgb(0,0,0)" rx="2" ry="2" />
<text  x="257.69" y="161.5" ></text>
</g>
<g >
<title>pyop2.global_kernel.GlobalKernel.compile (1,424,097 us, 0.60%)</title><rect x="118.6" y="135" width="7.0" height="15.0" fill="rgb(0,0,0)" rx="2" ry="2" />
<text  x="121.61" y="145.5" ></text>
</g>
<g >
<title>PCApply (52,005 us, 0.02%)</title><rect x="314.3" y="135" width="0.3" height="15.0" fill="rgb(0,0,0)" rx="2" ry="2" />
<text  x="317.30" y="145.5" ></text>
</g>
<g >
<title>firedrake.tsfc_interface.compile_form (1,493,337 us, 0.62%)</title><rect x="382.8" y="119" width="7.4" height="15.0" fill="rgb(0,0,0)" rx="2" ry="2" />
<text  x="385.80" y="129.5" ></text>
</g>
<g >
<title>MatMult (10,011,196 us, 4.19%)</title><rect x="390.2" y="119" width="49.4" height="15.0" fill="rgb(0,0,0)" rx="2" ry="2" />
<text  x="393.17" y="129.5" >MatM..</text>
</g>
<g >
<title>Parloop_Cells_wrap_form00_exterior_facet_top_integral_otherwise (1,819,958 us, 0.76%)</title><rect x="245.3" y="135" width="9.0" height="15.0" fill="rgb(0,0,0)" rx="2" ry="2" />
<text  x="248.33" y="145.5" ></text>
</g>
<g >
<title>firedrake.linear_solver.LinearSolver.solve (470,557 us, 0.20%)</title><rect x="314.1" y="103" width="2.4" height="15.0" fill="rgb(0,0,0)" rx="2" ry="2" />
<text  x="317.13" y="113.5" ></text>
</g>
<g >
<title>KSPSolve (85,546 us, 0.04%)</title><rect x="314.1" y="119" width="0.5" height="15.0" fill="rgb(0,0,0)" rx="2" ry="2" />
<text  x="317.13" y="129.5" ></text>
</g>
<g >
<title>inv_getri (70,352 us, 0.03%)</title><rect x="919.4" y="199" width="0.3" height="15.0" fill="rgb(0,0,0)" rx="2" ry="2" />
<text  x="922.40" y="209.5" ></text>
</g>
<g >
<title>pyop2.global_kernel.GlobalKernel.compile (1,405,907 us, 0.59%)</title><rect x="29.8" y="119" width="7.0" height="15.0" fill="rgb(0,0,0)" rx="2" ry="2" />
<text  x="32.82" y="129.5" ></text>
</g>
<g >
<title>SCSolve (256,691 us, 0.11%)</title><rect x="907.2" y="135" width="1.2" height="15.0" fill="rgb(0,0,0)" rx="2" ry="2" />
<text  x="910.16" y="145.5" ></text>
</g>
<g >
<title>inv_getrf (58,157 us, 0.02%)</title><rect x="919.1" y="199" width="0.3" height="15.0" fill="rgb(0,0,0)" rx="2" ry="2" />
<text  x="922.12" y="209.5" ></text>
</g>
<g >
<title>Parloop_Cells_wrap_wrap_slate_loopy_knl_7 (26,676,013 us, 11.15%)</title><rect x="557.1" y="183" width="131.6" height="15.0" fill="rgb(0,0,0)" rx="2" ry="2" />
<text  x="560.09" y="193.5" >Parloop_Cells_w..</text>
</g>
<g >
<title>firedrake.tsfc_interface.compile_form (1,243,287 us, 0.52%)</title><rect x="433.4" y="151" width="6.2" height="15.0" fill="rgb(0,0,0)" rx="2" ry="2" />
<text  x="436.43" y="161.5" ></text>
</g>
<g >
<title>ParLoopExecute (946,017 us, 0.40%)</title><rect x="715.7" y="183" width="4.6" height="15.0" fill="rgb(0,0,0)" rx="2" ry="2" />
<text  x="718.66" y="193.5" ></text>
</g>
<g >
<title>PCSetUp (385,011 us, 0.16%)</title><rect x="314.6" y="135" width="1.9" height="15.0" fill="rgb(0,0,0)" rx="2" ry="2" />
<text  x="317.56" y="145.5" ></text>
</g>
<g >
<title>firedrake.tsfc_interface.compile_form (1,724,374 us, 0.72%)</title><rect x="316.5" y="103" width="8.5" height="15.0" fill="rgb(0,0,0)" rx="2" ry="2" />
<text  x="319.46" y="113.5" ></text>
</g>
<g >
<title>firedrake.assemble.allocate_matrix (3,041,712 us, 1.27%)</title><rect x="290.7" y="119" width="15.0" height="15.0" fill="rgb(0,0,0)" rx="2" ry="2" />
<text  x="293.70" y="129.5" ></text>
</g>
<g >
<title>pyop2.global_kernel.GlobalKernel.compile (1,446,997 us, 0.61%)</title><rect x="36.8" y="119" width="7.1" height="15.0" fill="rgb(0,0,0)" rx="2" ry="2" />
<text  x="39.75" y="129.5" ></text>
</g>
<g >
<title>firedrake.tsfc_interface.compile_form (1,708,099 us, 0.71%)</title><rect x="305.7" y="119" width="8.4" height="15.0" fill="rgb(0,0,0)" rx="2" ry="2" />
<text  x="308.71" y="129.5" ></text>
</g>
<g >
<title>pyop2.global_kernel.GlobalKernel.compile (15,403,623 us, 6.44%)</title><rect x="158.4" y="151" width="76.0" height="15.0" fill="rgb(0,0,0)" rx="2" ry="2" />
<text  x="161.43" y="161.5" >pyop2.g..</text>
</g>
<g >
<title>firedrake.tsfc_interface.compile_form (1,765,151 us, 0.74%)</title><rect x="77.9" y="87" width="8.7" height="15.0" fill="rgb(0,0,0)" rx="2" ry="2" />
<text  x="80.88" y="97.5" ></text>
</g>
<g >
<title>Parloop_ExtFacets_wrap_form00_exterior_facet_vert_integral_otherwise (2,602,019 us, 1.09%)</title><rect x="263.9" y="135" width="12.8" height="15.0" fill="rgb(0,0,0)" rx="2" ry="2" />
<text  x="266.90" y="145.5" ></text>
</g>
<g >
<title>firedrake.functionspacedata.FunctionSpaceData.__init__ (24,409 us, 0.01%)</title><rect x="22.0" y="119" width="0.1" height="15.0" fill="rgb(0,0,0)" rx="2" ry="2" />
<text  x="25.00" y="129.5" ></text>
</g>
<g >
<title>Parloop_Cells_wrap_form_exterior_facet_top_integral_otherwise (1,446,997 us, 0.61%)</title><rect x="36.8" y="103" width="7.1" height="15.0" fill="rgb(0,0,0)" rx="2" ry="2" />
<text  x="39.75" y="113.5" ></text>
</g>
<g >
<title>HybridInit (45,931,980 us, 19.21%)</title><rect x="908.4" y="119" width="226.7" height="15.0" fill="rgb(0,0,0)" rx="2" ry="2" />
<text  x="911.43" y="129.5" >HybridInit</text>
</g>
<g >
<title>firedrake.parloops.par_loop (777,123 us, 0.32%)</title><rect x="1131.2" y="135" width="3.9" height="15.0" fill="rgb(0,0,0)" rx="2" ry="2" />
<text  x="1134.24" y="145.5" ></text>
</g>
<g >
<title>ParLoopExecute (39,528,613 us, 16.53%)</title><rect x="918.3" y="151" width="195.0" height="15.0" fill="rgb(0,0,0)" rx="2" ry="2" />
<text  x="921.30" y="161.5" >ParLoopExecute</text>
</g>
<g >
<title>firedrake.assemble_expressions.evaluate_expression (823,113 us, 0.34%)</title><rect x="73.8" y="103" width="4.1" height="15.0" fill="rgb(0,0,0)" rx="2" ry="2" />
<text  x="76.82" y="113.5" ></text>
</g>
<g >
<title>Parloop_Cells_wrap_form0_exterior_facet_top_integral_otherwise (1,424,097 us, 0.60%)</title><rect x="118.6" y="119" width="7.0" height="15.0" fill="rgb(0,0,0)" rx="2" ry="2" />
<text  x="121.61" y="129.5" ></text>
</g>
<g >
<title>ParLoopExecute (9,639,843 us, 4.03%)</title><rect x="1135.1" y="119" width="47.5" height="15.0" fill="rgb(0,0,0)" rx="2" ry="2" />
<text  x="1138.08" y="129.5" >ParL..</text>
</g>
<g >
<title>Parloop_Cells_wrap_form00_exterior_facet_bottom_integral_otherwise (2,207,146 us, 0.92%)</title><rect x="234.4" y="135" width="10.9" height="15.0" fill="rgb(0,0,0)" rx="2" ry="2" />
<text  x="237.44" y="145.5" ></text>
</g>
<g >
<title>ParLoopExecute (8,918,722 us, 3.73%)</title><rect x="29.8" y="87" width="44.0" height="15.0" fill="rgb(0,0,0)" rx="2" ry="2" />
<text  x="32.82" y="97.5" >Par..</text>
</g>
<g >
<title>pyop2.global_kernel.GlobalKernel.compile (2,207,146 us, 0.92%)</title><rect x="234.4" y="151" width="10.9" height="15.0" fill="rgb(0,0,0)" rx="2" ry="2" />
<text  x="237.44" y="161.5" ></text>
</g>
<g >
<title>pyop2.global_kernel.GlobalKernel.compile (3,982,838 us, 1.67%)</title><rect x="413.8" y="183" width="19.6" height="15.0" fill="rgb(0,0,0)" rx="2" ry="2" />
<text  x="416.78" y="193.5" ></text>
</g>
<g >
<title>inv_getrf (38,700 us, 0.02%)</title><rect x="557.5" y="215" width="0.2" height="15.0" fill="rgb(0,0,0)" rx="2" ry="2" />
<text  x="560.52" y="225.5" ></text>
</g>
<g >
<title>Parloop_set_#x7efd52a5fca0_wrap_expression_kernel (389,705 us, 0.16%)</title><rect x="76.0" y="135" width="1.9" height="15.0" fill="rgb(0,0,0)" rx="2" ry="2" />
<text  x="78.96" y="145.5" ></text>
</g>
<g >
<title>pyop2.global_kernel.GlobalKernel.compile (2,577,241 us, 1.08%)</title><rect x="278.0" y="151" width="12.7" height="15.0" fill="rgb(0,0,0)" rx="2" ry="2" />
<text  x="280.98" y="161.5" ></text>
</g>
<g >
<title>Log_Event_subkernel5_interior_facet_vert_to__exterior_facet_vert_integral_otherwise (115,992 us, 0.05%)</title><rect x="727.3" y="199" width="0.6" height="15.0" fill="rgb(0,0,0)" rx="2" ry="2" />
<text  x="730.32" y="209.5" ></text>
</g>
<g >
<title>Parloop_Cells_wrap_wrap_slate_loopy_knl_4 (34,121,876 us, 14.27%)</title><rect x="726.8" y="183" width="168.3" height="15.0" fill="rgb(0,0,0)" rx="2" ry="2" />
<text  x="729.77" y="193.5" >Parloop_Cells_wrap_..</text>
</g>
<g >
<title>pyop2.global_kernel.GlobalKernel.compile (26,232,419 us, 10.97%)</title><rect x="559.3" y="199" width="129.4" height="15.0" fill="rgb(0,0,0)" rx="2" ry="2" />
<text  x="562.27" y="209.5" >pyop2.global_k..</text>
</g>
<g >
<title>Log_Event_form00_interior_facet_vert_integral_otherwise (124,889 us, 0.05%)</title><rect x="277.4" y="151" width="0.6" height="15.0" fill="rgb(0,0,0)" rx="2" ry="2" />
<text  x="280.36" y="161.5" ></text>
</g>
<g >
<title>firedrake.tsfc_interface.compile_form (3,170,560 us, 1.33%)</title><rect x="688.7" y="167" width="15.7" height="15.0" fill="rgb(0,0,0)" rx="2" ry="2" />
<text  x="691.71" y="177.5" ></text>
</g>
<g >
<title>Parloop_Cells_wrap_par_loop_kernel (946,017 us, 0.40%)</title><rect x="715.7" y="199" width="4.6" height="15.0" fill="rgb(0,0,0)" rx="2" ry="2" />
<text  x="718.66" y="209.5" ></text>
</g>
<g >
<title>Parloop_Cells_wrap_form00_interior_facet_horiz_integral_otherwise (1,943,850 us, 0.81%)</title><rect x="254.3" y="135" width="9.6" height="15.0" fill="rgb(0,0,0)" rx="2" ry="2" />
<text  x="257.31" y="145.5" ></text>
</g>
<g >
<title>pyop2.global_kernel.GlobalKernel.compile (38,963,122 us, 16.29%)</title><rect x="921.1" y="183" width="192.2" height="15.0" fill="rgb(0,0,0)" rx="2" ry="2" />
<text  x="924.09" y="193.5" >pyop2.global_kernel.Glo..</text>
</g>
<g >
<title>Log_Event_subkernel17_interior_facet_vert_to__exterior_facet_vert_integral_otherwise (98,581 us, 0.04%)</title><rect x="451.4" y="183" width="0.5" height="15.0" fill="rgb(0,0,0)" rx="2" ry="2" />
<text  x="454.43" y="193.5" ></text>
</g>
<g >
<title>pyop2.global_kernel.GlobalKernel.compile (389,705 us, 0.16%)</title><rect x="76.0" y="151" width="1.9" height="15.0" fill="rgb(0,0,0)" rx="2" ry="2" />
<text  x="78.96" y="161.5" ></text>
</g>
<g >
<title>MatMult (220,784 us, 0.09%)</title><rect x="907.3" y="167" width="1.1" height="15.0" fill="rgb(0,0,0)" rx="2" ry="2" />
<text  x="910.34" y="177.5" ></text>
</g>
<g >
<title>ParLoopExecute (34,121,876 us, 14.27%)</title><rect x="726.8" y="167" width="168.3" height="15.0" fill="rgb(0,0,0)" rx="2" ry="2" />
<text  x="729.77" y="177.5" >ParLoopExecute</text>
</g>
<g >
<title>HybridRHS (37,865,180 us, 15.83%)</title><rect x="720.3" y="151" width="186.9" height="15.0" fill="rgb(0,0,0)" rx="2" ry="2" />
<text  x="723.33" y="161.5" >HybridRHS</text>
</g>
<g >
<title>Parloop_Cells_wrap_form0_exterior_facet_bottom_integral_otherwise (1,438,901 us, 0.60%)</title><rect x="111.5" y="119" width="7.1" height="15.0" fill="rgb(0,0,0)" rx="2" ry="2" />
<text  x="114.51" y="129.5" ></text>
</g>
<g >
<title>pyop2.global_kernel.GlobalKernel.compile (777,123 us, 0.32%)</title><rect x="1131.2" y="183" width="3.9" height="15.0" fill="rgb(0,0,0)" rx="2" ry="2" />
<text  x="1134.24" y="193.5" ></text>
</g>
<g >
<title>Parloop_Cells_wrap_form0_interior_facet_horiz_integral_otherwise (1,704,577 us, 0.71%)</title><rect x="125.6" y="119" width="8.4" height="15.0" fill="rgb(0,0,0)" rx="2" ry="2" />
<text  x="128.64" y="129.5" ></text>
</g>
<g >
<title>pyop2.global_kernel.GlobalKernel.compile (1,459,798 us, 0.61%)</title><rect x="43.9" y="119" width="7.2" height="15.0" fill="rgb(0,0,0)" rx="2" ry="2" />
<text  x="46.89" y="129.5" ></text>
</g>
<g >
<title>Parloop_Cells_wrap_form0_cell_integral_otherwise (4,785,071 us, 2.00%)</title><rect x="390.2" y="167" width="23.6" height="15.0" fill="rgb(0,0,0)" rx="2" ry="2" />
<text  x="393.17" y="177.5" >P..</text>
</g>
<g >
<title>RecoverFirstElim (31,808,954 us, 13.30%)</title><rect x="547.4" y="151" width="157.0" height="15.0" fill="rgb(0,0,0)" rx="2" ry="2" />
<text  x="550.40" y="161.5" >RecoverFirstElim</text>
</g>
<g >
<title>all (239,140,234 us, 100%)</title><rect x="10.0" y="39" width="1180.0" height="15.0" fill="rgb(0,0,0)" rx="2" ry="2" />
<text  x="13.00" y="49.5" ></text>
</g>
<g >
<title>pyop2.global_kernel.GlobalKernel.compile (4,785,071 us, 2.00%)</title><rect x="390.2" y="183" width="23.6" height="15.0" fill="rgb(0,0,0)" rx="2" ry="2" />
<text  x="393.17" y="193.5" >p..</text>
</g>
<g >
<title>firedrake.variational_solver.NonlinearVariationalSolver.solve (162,095,048 us, 67.78%)</title><rect x="390.2" y="71" width="799.8" height="15.0" fill="rgb(0,0,0)" rx="2" ry="2" />
<text  x="393.17" y="81.5" >firedrake.variational_solver.NonlinearVariationalSolver.solve</text>
</g>
<g >
<title>Parloop_Cells_wrap_par_loop_kernel (937,249 us, 0.39%)</title><rect x="446.1" y="199" width="4.6" height="15.0" fill="rgb(0,0,0)" rx="2" ry="2" />
<text  x="449.11" y="209.5" ></text>
</g>
<g >
<title>firedrake.assemble.assemble (11,506,986 us, 4.81%)</title><rect x="29.8" y="71" width="56.8" height="15.0" fill="rgb(0,0,0)" rx="2" ry="2" />
<text  x="32.82" y="81.5" >fired..</text>
</g>
<g >
<title>ParLoopExecute (26,676,013 us, 11.15%)</title><rect x="557.1" y="167" width="131.6" height="15.0" fill="rgb(0,0,0)" rx="2" ry="2" />
<text  x="560.09" y="177.5" >ParLoopExecute</text>
</g>
<g >
<title>firedrake.functionspaceimpl.FunctionSpace.__init__ (24,409 us, 0.01%)</title><rect x="22.0" y="87" width="0.1" height="15.0" fill="rgb(0,0,0)" rx="2" ry="2" />
<text  x="25.00" y="97.5" ></text>
</g>
<g >
<title>solve_getrf (85,734 us, 0.04%)</title><rect x="557.9" y="215" width="0.5" height="15.0" fill="rgb(0,0,0)" rx="2" ry="2" />
<text  x="560.94" y="225.5" ></text>
</g>
<g >
<title>firedrake.parloops.par_loop (937,249 us, 0.39%)</title><rect x="446.1" y="167" width="4.6" height="15.0" fill="rgb(0,0,0)" rx="2" ry="2" />
<text  x="449.11" y="177.5" ></text>
</g>
<g >
<title>MatZeroInitial (898,127 us, 0.38%)</title><rect x="301.3" y="135" width="4.4" height="15.0" fill="rgb(0,0,0)" rx="2" ry="2" />
<text  x="304.27" y="145.5" ></text>
</g>
<g >
<title>pyop2.global_kernel.GlobalKernel.compile (2,580,464 us, 1.08%)</title><rect x="145.2" y="135" width="12.7" height="15.0" fill="rgb(0,0,0)" rx="2" ry="2" />
<text  x="148.17" y="145.5" ></text>
</g>
<g >
<title>pyop2.global_kernel.GlobalKernel.compile (11,720,796 us, 4.90%)</title><rect x="325.0" y="151" width="57.8" height="15.0" fill="rgb(0,0,0)" rx="2" ry="2" />
<text  x="327.96" y="161.5" >pyop2..</text>
</g>
<g >
<title>MatMult (33,541 us, 0.01%)</title><rect x="314.1" y="135" width="0.2" height="15.0" fill="rgb(0,0,0)" rx="2" ry="2" />
<text  x="317.13" y="145.5" ></text>
</g>
<g >
<title>Parloop_Cells_wrap_form_interior_facet_horiz_integral_otherwise (1,459,798 us, 0.61%)</title><rect x="43.9" y="103" width="7.2" height="15.0" fill="rgb(0,0,0)" rx="2" ry="2" />
<text  x="46.89" y="113.5" ></text>
</g>
<g >
<title>Parloop_ExtFacets_wrap_form0_exterior_facet_vert_integral_otherwise (2,229,790 us, 0.93%)</title><rect x="134.0" y="119" width="11.0" height="15.0" fill="rgb(0,0,0)" rx="2" ry="2" />
<text  x="137.05" y="129.5" ></text>
</g>
<g >
<title>HybridOperatorAssembly (44,828,892 us, 18.75%)</title><rect x="908.8" y="135" width="221.2" height="15.0" fill="rgb(0,0,0)" rx="2" ry="2" />
<text  x="911.79" y="145.5" >HybridOperatorAssembly</text>
</g>
<g >
<title>firedrake.tsfc_interface.compile_form (3,373,839 us, 1.41%)</title><rect x="1113.3" y="151" width="16.7" height="15.0" fill="rgb(0,0,0)" rx="2" ry="2" />
<text  x="1116.34" y="161.5" ></text>
</g>
<g >
<title>Log_Event_form0_cell_integral_otherwise (81,820 us, 0.03%)</title><rect x="1135.1" y="151" width="0.4" height="15.0" fill="rgb(0,0,0)" rx="2" ry="2" />
<text  x="1138.08" y="161.5" ></text>
</g>
<g >
<title>pyop2.global_kernel.GlobalKernel.compile (938,763 us, 0.39%)</title><rect x="17.4" y="135" width="4.6" height="15.0" fill="rgb(0,0,0)" rx="2" ry="2" />
<text  x="20.36" y="145.5" ></text>
</g>
<g >
<title>ParLoopExecute (11,720,796 us, 4.90%)</title><rect x="325.0" y="119" width="57.8" height="15.0" fill="rgb(0,0,0)" rx="2" ry="2" />
<text  x="327.96" y="129.5" >ParLo..</text>
</g>
<g >
<title>Log_Event_slate_loopy_knl_0 (162,617 us, 0.07%)</title><rect x="918.9" y="183" width="0.8" height="15.0" fill="rgb(0,0,0)" rx="2" ry="2" />
<text  x="921.95" y="193.5" ></text>
</g>
<g >
<title>ParLoopExecute (777,123 us, 0.32%)</title><rect x="1131.2" y="151" width="3.9" height="15.0" fill="rgb(0,0,0)" rx="2" ry="2" />
<text  x="1134.24" y="161.5" ></text>
</g>
<g >
<title>pyop2.global_kernel.GlobalKernel.compile (4,638,591 us, 1.94%)</title><rect x="1159.8" y="151" width="22.8" height="15.0" fill="rgb(0,0,0)" rx="2" ry="2" />
<text  x="1162.75" y="161.5" ></text>
</g>
<g >
<title>firedrake.matrix_free.operators.ImplicitMatrixContext.mult (10,011,196 us, 4.19%)</title><rect x="390.2" y="135" width="49.4" height="15.0" fill="rgb(0,0,0)" rx="2" ry="2" />
<text  x="393.17" y="145.5" >fire..</text>
</g>
<g >
<title>firedrake.parloops.par_loop (946,017 us, 0.40%)</title><rect x="715.7" y="167" width="4.6" height="15.0" fill="rgb(0,0,0)" rx="2" ry="2" />
<text  x="718.66" y="177.5" ></text>
</g>
<g >
<title>Log_Event_subkernel6_cell_to__cell_integral_otherwise (68,962 us, 0.03%)</title><rect x="727.9" y="199" width="0.3" height="15.0" fill="rgb(0,0,0)" rx="2" ry="2" />
<text  x="730.89" y="209.5" ></text>
</g>
<g >
<title>MatSolve (52,005 us, 0.02%)</title><rect x="314.3" y="183" width="0.3" height="15.0" fill="rgb(0,0,0)" rx="2" ry="2" />
<text  x="317.30" y="193.5" ></text>
</g>
<g >
<title>firedrake.__init__ (1,560,233 us, 0.65%)</title><rect x="22.1" y="71" width="7.7" height="15.0" fill="rgb(0,0,0)" rx="2" ry="2" />
<text  x="25.12" y="81.5" ></text>
</g>
<g >
<title>solve_getrf (60,686 us, 0.03%)</title><rect x="727.0" y="215" width="0.3" height="15.0" fill="rgb(0,0,0)" rx="2" ry="2" />
<text  x="730.02" y="225.5" ></text>
</g>
<g >
<title>Parloop_IntFacets_wrap_form_interior_facet_vert_integral_otherwise (2,240,601 us, 0.94%)</title><rect x="62.8" y="103" width="11.0" height="15.0" fill="rgb(0,0,0)" rx="2" ry="2" />
<text  x="65.77" y="113.5" ></text>
</g>
<g >
<title>firedrake.tsfc_interface.compile_form (2,289,628 us, 0.96%)</title><rect x="704.4" y="151" width="11.3" height="15.0" fill="rgb(0,0,0)" rx="2" ry="2" />
<text  x="707.36" y="161.5" ></text>
</g>
<g >
<title>Log_Event_subkernel2_cell_to__cell_integral_otherwise (64,261 us, 0.03%)</title><rect x="920.3" y="183" width="0.3" height="15.0" fill="rgb(0,0,0)" rx="2" ry="2" />
<text  x="923.29" y="193.5" ></text>
</g>
<g >
<title>MatZeroInitial (55,579 us, 0.02%)</title><rect x="1131.0" y="151" width="0.2" height="15.0" fill="rgb(0,0,0)" rx="2" ry="2" />
<text  x="1133.97" y="161.5" ></text>
</g>
<g >
<title>firedrake.functionspacedata.get_shared_data (24,409 us, 0.01%)</title><rect x="22.0" y="103" width="0.1" height="15.0" fill="rgb(0,0,0)" rx="2" ry="2" />
<text  x="25.00" y="113.5" ></text>
</g>
<g >
<title>Log_Event_subkernel9_cell_to__cell_integral_otherwise (25,442 us, 0.01%)</title><rect x="559.1" y="199" width="0.2" height="15.0" fill="rgb(0,0,0)" rx="2" ry="2" />
<text  x="562.15" y="209.5" ></text>
</g>
<g >
<title>pyop2.global_kernel.GlobalKernel.compile (1,819,958 us, 0.76%)</title><rect x="245.3" y="151" width="9.0" height="15.0" fill="rgb(0,0,0)" rx="2" ry="2" />
<text  x="248.33" y="161.5" ></text>
</g>
<g >
<title>firedrake.assemble.allocate_matrix (253,021 us, 0.11%)</title><rect x="1130.0" y="135" width="1.2" height="15.0" fill="rgb(0,0,0)" rx="2" ry="2" />
<text  x="1132.99" y="145.5" ></text>
</g>
<g >
<title>Parloop_Cells_wrap_form_cell_integral_otherwise (11,720,796 us, 4.90%)</title><rect x="325.0" y="135" width="57.8" height="15.0" fill="rgb(0,0,0)" rx="2" ry="2" />
<text  x="327.96" y="145.5" >Parlo..</text>
</g>
<g >
<title>Log_Event_subkernel10_cell_to__cell_integral_otherwise (26,658 us, 0.01%)</title><rect x="558.4" y="199" width="0.1" height="15.0" fill="rgb(0,0,0)" rx="2" ry="2" />
<text  x="561.37" y="209.5" ></text>
</g>
<g >
<title>SNESFunctionEval (11,131,028 us, 4.65%)</title><rect x="1135.1" y="103" width="54.9" height="15.0" fill="rgb(0,0,0)" rx="2" ry="2" />
<text  x="1138.08" y="113.5" >SNESF..</text>
</g>
<g >
<title>Log_Event_form00_cell_integral_otherwise (56,916 us, 0.02%)</title><rect x="158.2" y="151" width="0.2" height="15.0" fill="rgb(0,0,0)" rx="2" ry="2" />
<text  x="161.15" y="161.5" ></text>
</g>
<g >
<title>pyop2.global_kernel.GlobalKernel.compile (2,576,908 us, 1.08%)</title><rect x="264.0" y="151" width="12.7" height="15.0" fill="rgb(0,0,0)" rx="2" ry="2" />
<text  x="267.03" y="161.5" ></text>
</g>
<g >
<title>pyop2.global_kernel.GlobalKernel.compile (937,249 us, 0.39%)</title><rect x="446.1" y="215" width="4.6" height="15.0" fill="rgb(0,0,0)" rx="2" ry="2" />
<text  x="449.11" y="225.5" ></text>
</g>
<g >
<title>pyop2.global_kernel.GlobalKernel.compile (433,408 us, 0.18%)</title><rect x="73.8" y="151" width="2.2" height="15.0" fill="rgb(0,0,0)" rx="2" ry="2" />
<text  x="76.82" y="161.5" ></text>
</g>
<g >
<title>firedrake.assemble.assemble (13,214,133 us, 5.53%)</title><rect x="325.0" y="103" width="65.2" height="15.0" fill="rgb(0,0,0)" rx="2" ry="2" />
<text  x="327.96" y="113.5" >firedr..</text>
</g>
<g >
<title>KSPSolve (105,032,040 us, 43.92%)</title><rect x="390.2" y="103" width="518.2" height="15.0" fill="rgb(0,0,0)" rx="2" ry="2" />
<text  x="393.17" y="113.5" >KSPSolve</text>
</g>
<g >
<title>SNESSolve (162,095,048 us, 67.78%)</title><rect x="390.2" y="87" width="799.8" height="15.0" fill="rgb(0,0,0)" rx="2" ry="2" />
<text  x="393.17" y="97.5" >SNESSolve</text>
</g>
<g >
<title>Parloop_Cells_wrap_form0_cell_integral_otherwise (4,929,222 us, 2.06%)</title><rect x="1135.1" y="135" width="24.3" height="15.0" fill="rgb(0,0,0)" rx="2" ry="2" />
<text  x="1138.08" y="145.5" >P..</text>
</g>
<g >
<title>firedrake.tsfc_interface.compile_form (1,491,185 us, 0.62%)</title><rect x="1182.6" y="119" width="7.4" height="15.0" fill="rgb(0,0,0)" rx="2" ry="2" />
<text  x="1185.64" y="129.5" ></text>
</g>
<g >
<title>HybridBreak (946,017 us, 0.40%)</title><rect x="715.7" y="151" width="4.6" height="15.0" fill="rgb(0,0,0)" rx="2" ry="2" />
<text  x="718.66" y="161.5" ></text>
</g>
<g >
<title>PCSetUp (45,931,980 us, 19.21%)</title><rect x="908.4" y="103" width="226.7" height="15.0" fill="rgb(0,0,0)" rx="2" ry="2" />
<text  x="911.43" y="113.5" >PCSetUp</text>
</g>
<g >
<title>ParLoopExecute (823,113 us, 0.34%)</title><rect x="73.8" y="119" width="4.1" height="15.0" fill="rgb(0,0,0)" rx="2" ry="2" />
<text  x="76.82" y="129.5" ></text>
</g>
<g >
<title>KSPSolve (256,691 us, 0.11%)</title><rect x="907.2" y="151" width="1.2" height="15.0" fill="rgb(0,0,0)" rx="2" ry="2" />
<text  x="910.16" y="161.5" ></text>
</g>
<g >
<title>ParLoopExecute (14,452,214 us, 6.04%)</title><rect x="86.6" y="103" width="71.3" height="15.0" fill="rgb(0,0,0)" rx="2" ry="2" />
<text  x="89.59" y="113.5" >ParLoop..</text>
</g>
<g >
<title>firedrake.projection.project (48,308,317 us, 20.20%)</title><rect x="86.6" y="87" width="238.4" height="15.0" fill="rgb(0,0,0)" rx="2" ry="2" />
<text  x="89.59" y="97.5" >firedrake.projection.project</text>
</g>
<g >
<title>Log_Event_subkernel15_cell_to__cell_integral_otherwise (24,564 us, 0.01%)</title><rect x="451.2" y="183" width="0.1" height="15.0" fill="rgb(0,0,0)" rx="2" ry="2" />
<text  x="454.17" y="193.5" ></text>
</g>
<g >
<title>CreateSparsity (197,442 us, 0.08%)</title><rect x="1130.0" y="151" width="1.0" height="15.0" fill="rgb(0,0,0)" rx="2" ry="2" />
<text  x="1132.99" y="161.5" ></text>
</g>
<g >
<title>Parloop_Cells_wrap_form1_cell_integral_otherwise (4,710,621 us, 1.97%)</title><rect x="1159.4" y="135" width="23.2" height="15.0" fill="rgb(0,0,0)" rx="2" ry="2" />
<text  x="1162.40" y="145.5" >P..</text>
</g>
<g >
<title>pyop2.global_kernel.GlobalKernel.compile (4,847,402 us, 2.03%)</title><rect x="1135.5" y="151" width="23.9" height="15.0" fill="rgb(0,0,0)" rx="2" ry="2" />
<text  x="1138.48" y="161.5" >p..</text>
</g>
<g >
<title>ParLoopExecute (8,767,909 us, 3.67%)</title><rect x="390.2" y="151" width="43.2" height="15.0" fill="rgb(0,0,0)" rx="2" ry="2" />
<text  x="393.17" y="161.5" >Par..</text>
</g>
<g >
<title>pyop2.global_kernel.GlobalKernel.compile (1,438,901 us, 0.60%)</title><rect x="111.5" y="135" width="7.1" height="15.0" fill="rgb(0,0,0)" rx="2" ry="2" />
<text  x="114.51" y="145.5" ></text>
</g>
<g >
<title>firedrake.norms.norm (13,214,133 us, 5.53%)</title><rect x="325.0" y="87" width="65.2" height="15.0" fill="rgb(0,0,0)" rx="2" ry="2" />
<text  x="327.96" y="97.5" >firedr..</text>
</g>
<g >
<title>Log_Event_slate_loopy_knl_7 (207,971 us, 0.09%)</title><rect x="557.3" y="199" width="1.1" height="15.0" fill="rgb(0,0,0)" rx="2" ry="2" />
<text  x="560.34" y="209.5" ></text>
</g>
<g >
<title>firedrake.assemble_expressions.assemble_expression (823,113 us, 0.34%)</title><rect x="73.8" y="87" width="4.1" height="15.0" fill="rgb(0,0,0)" rx="2" ry="2" />
<text  x="76.82" y="97.5" ></text>
</g>
<g >
<title>Log_Event_slate_loopy_knl_4 (60,686 us, 0.03%)</title><rect x="727.0" y="199" width="0.3" height="15.0" fill="rgb(0,0,0)" rx="2" ry="2" />
<text  x="730.02" y="209.5" ></text>
</g>
<g >
<title>pyop2.global_kernel.GlobalKernel.compile (33,825,508 us, 14.14%)</title><rect x="728.2" y="199" width="166.9" height="15.0" fill="rgb(0,0,0)" rx="2" ry="2" />
<text  x="731.23" y="209.5" >pyop2.global_kernel..</text>
</g>
<g >
<title>Log_Event_subkernel3_interior_facet_vert_to__exterior_facet_vert_integral_otherwise (96,380 us, 0.04%)</title><rect x="920.6" y="183" width="0.5" height="15.0" fill="rgb(0,0,0)" rx="2" ry="2" />
<text  x="923.61" y="193.5" ></text>
</g>
<g >
<title>HybridProject (937,249 us, 0.39%)</title><rect x="446.1" y="151" width="4.6" height="15.0" fill="rgb(0,0,0)" rx="2" ry="2" />
<text  x="449.11" y="161.5" ></text>
</g>
<g >
<title>ParLoopExecute (19,591,549 us, 8.19%)</title><rect x="450.7" y="151" width="96.7" height="15.0" fill="rgb(0,0,0)" rx="2" ry="2" />
<text  x="453.73" y="161.5" >ParLoopExe..</text>
</g>
<g >
<title>pyop2.global_kernel.GlobalKernel.compile (2,240,601 us, 0.94%)</title><rect x="62.8" y="119" width="11.0" height="15.0" fill="rgb(0,0,0)" rx="2" ry="2" />
<text  x="65.77" y="129.5" ></text>
</g>
<g >
<title>PCApply (52,005 us, 0.02%)</title><rect x="314.3" y="167" width="0.3" height="15.0" fill="rgb(0,0,0)" rx="2" ry="2" />
<text  x="317.30" y="177.5" ></text>
</g>
<g >
<title>firedrake.norms.errornorm (13,214,133 us, 5.53%)</title><rect x="325.0" y="71" width="65.2" height="15.0" fill="rgb(0,0,0)" rx="2" ry="2" />
<text  x="327.96" y="81.5" >firedr..</text>
</g>
<g >
<title>Parloop_set_#x7efd52a10cd0_wrap_expression_kernel (433,408 us, 0.18%)</title><rect x="73.8" y="135" width="2.2" height="15.0" fill="rgb(0,0,0)" rx="2" ry="2" />
<text  x="76.82" y="145.5" ></text>
</g>
<g >
<title>firedrake (239,140,234 us, 100.00%)</title><rect x="10.0" y="55" width="1180.0" height="15.0" fill="rgb(0,0,0)" rx="2" ry="2" />
<text  x="13.00" y="65.5" >firedrake</text>
</g>
<g >
<title>KSPSolve (52,005 us, 0.02%)</title><rect x="314.3" y="151" width="0.3" height="15.0" fill="rgb(0,0,0)" rx="2" ry="2" />
<text  x="317.30" y="161.5" ></text>
</g>
<g >
<title>Parloop_Cells_wrap_form0_cell_integral_otherwise (5,049,233 us, 2.11%)</title><rect x="86.6" y="119" width="24.9" height="15.0" fill="rgb(0,0,0)" rx="2" ry="2" />
<text  x="89.59" y="129.5" >P..</text>
</g>
<g >
<title>PCSetUpOnBlocks (385,011 us, 0.16%)</title><rect x="314.6" y="119" width="1.9" height="15.0" fill="rgb(0,0,0)" rx="2" ry="2" />
<text  x="317.56" y="129.5" ></text>
</g>
<g >
<title>Parloop_IntFacets_wrap_form00_interior_facet_vert_integral_otherwise (2,827,743 us, 1.18%)</title><rect x="276.7" y="135" width="14.0" height="15.0" fill="rgb(0,0,0)" rx="2" ry="2" />
<text  x="279.74" y="145.5" ></text>
</g>
<g >
<title>Parloop_Cells_wrap_form1_cell_integral_otherwise (3,982,838 us, 1.67%)</title><rect x="413.8" y="167" width="19.6" height="15.0" fill="rgb(0,0,0)" rx="2" ry="2" />
<text  x="416.78" y="177.5" ></text>
</g>
<g >
<title>Log_Event_subkernel11_cell_to__cell_integral_otherwise (29,509 us, 0.01%)</title><rect x="558.5" y="199" width="0.1" height="15.0" fill="rgb(0,0,0)" rx="2" ry="2" />
<text  x="561.50" y="209.5" ></text>
</g>
<g >
<title>CreateExtMesh (972,224 us, 0.41%)</title><rect x="17.2" y="71" width="4.8" height="15.0" fill="rgb(0,0,0)" rx="2" ry="2" />
<text  x="20.20" y="81.5" ></text>
</g>
<g >
<title>firedrake.tsfc_interface.compile_form (2,437,441 us, 1.02%)</title><rect x="895.1" y="167" width="12.1" height="15.0" fill="rgb(0,0,0)" rx="2" ry="2" />
<text  x="898.14" y="177.5" ></text>
</g>
<g >
<title>Log_Event_subkernel16_cell_to__cell_integral_otherwise (27,805 us, 0.01%)</title><rect x="451.3" y="183" width="0.1" height="15.0" fill="rgb(0,0,0)" rx="2" ry="2" />
<text  x="454.29" y="193.5" ></text>
</g>
<g >
<title>inv_getri (47,814 us, 0.02%)</title><rect x="557.7" y="215" width="0.2" height="15.0" fill="rgb(0,0,0)" rx="2" ry="2" />
<text  x="560.71" y="225.5" ></text>
</g>
</g>
</svg>
