<?xml version="1.0" standalone="no"?>
<!DOCTYPE svg PUBLIC "-//W3C//DTD SVG 1.1//EN" "http://www.w3.org/Graphics/SVG/1.1/DTD/svg11.dtd">
<svg version="1.1" width="1200" height="411" onload="init(evt)" viewBox="0 0 1200 411" xmlns="http://www.w3.org/2000/svg" xmlns:xlink="http://www.w3.org/1999/xlink">
<!-- Flame graph stack visualization. See https://github.com/brendangregg/FlameGraph for latest version, and http://www.brendangregg.com/flamegraphs.html for examples. -->
<!-- NOTES:  -->
<defs>
	<linearGradient id="background" y1="0" y2="1" x1="0" x2="0" >
		<stop stop-color="#eeeeee" offset="5%" />
		<stop stop-color="#eeeeb0" offset="95%" />
	</linearGradient>
</defs>
<style type="text/css">
	text { font-family:Verdana; font-size:13px; fill:rgb(0,0,0); }
	#search, #ignorecase { opacity:0.1; cursor:pointer; }
	#search:hover, #search.show, #ignorecase:hover, #ignorecase.show { opacity:1; }
	#subtitle { text-anchor:middle; font-color:rgb(160,160,160); }
	#title { text-anchor:middle; font-size:18px}
	#unzoom { cursor:pointer; }
	#frames > *:hover { stroke:black; stroke-width:0.5; cursor:pointer; }
	.hide { display:none; }
	.parent { opacity:0.5; }
</style>
<script type="text/ecmascript">
<![CDATA[
	"use strict";
	var details, searchbtn, unzoombtn, matchedtxt, svg, searching, currentSearchTerm, ignorecase, ignorecaseBtn;
	function init(evt) {
		details = document.getElementById("details").firstChild;
		searchbtn = document.getElementById("search");
		ignorecaseBtn = document.getElementById("ignorecase");
		unzoombtn = document.getElementById("unzoom");
		matchedtxt = document.getElementById("matched");
		svg = document.getElementsByTagName("svg")[0];
		searching = 0;
		currentSearchTerm = null;

		// use GET parameters to restore a flamegraphs state.
		var params = get_params();
		if (params.x && params.y)
			zoom(find_group(document.querySelector('[x="' + params.x + '"][y="' + params.y + '"]')));
                if (params.s) search(params.s);
	}

	// event listeners
	window.addEventListener("click", function(e) {
		var target = find_group(e.target);
		if (target) {
			if (target.nodeName == "a") {
				if (e.ctrlKey === false) return;
				e.preventDefault();
			}
			if (target.classList.contains("parent")) unzoom();
			zoom(target);
			if (!document.querySelector('.parent')) {
				clearzoom();
				return;
			}

			// set parameters for zoom state
			var el = target.querySelector("rect");
			if (el && el.attributes && el.attributes.y && el.attributes._orig_x) {
				var params = get_params()
				params.x = el.attributes._orig_x.value;
				params.y = el.attributes.y.value;
				history.replaceState(null, null, parse_params(params));
			}
		}
		else if (e.target.id == "unzoom") clearzoom();
		else if (e.target.id == "search") search_prompt();
		else if (e.target.id == "ignorecase") toggle_ignorecase();
	}, false)

	// mouse-over for info
	// show
	window.addEventListener("mouseover", function(e) {
		var target = find_group(e.target);
		if (target) details.nodeValue = "Function: " + g_to_text(target);
	}, false)

	// clear
	window.addEventListener("mouseout", function(e) {
		var target = find_group(e.target);
		if (target) details.nodeValue = ' ';
	}, false)

	// ctrl-F for search
	// ctrl-I to toggle case-sensitive search
	window.addEventListener("keydown",function (e) {
		if (e.keyCode === 114 || (e.ctrlKey && e.keyCode === 70)) {
			e.preventDefault();
			search_prompt();
		}
		else if (e.ctrlKey && e.keyCode === 73) {
			e.preventDefault();
			toggle_ignorecase();
		}
	}, false)

	// functions
	function get_params() {
		var params = {};
		var paramsarr = window.location.search.substr(1).split('&');
		for (var i = 0; i < paramsarr.length; ++i) {
			var tmp = paramsarr[i].split("=");
			if (!tmp[0] || !tmp[1]) continue;
			params[tmp[0]]  = decodeURIComponent(tmp[1]);
		}
		return params;
	}
	function parse_params(params) {
		var uri = "?";
		for (var key in params) {
			uri += key + '=' + encodeURIComponent(params[key]) + '&';
		}
		if (uri.slice(-1) == "&")
			uri = uri.substring(0, uri.length - 1);
		if (uri == '?')
			uri = window.location.href.split('?')[0];
		return uri;
	}
	function find_child(node, selector) {
		var children = node.querySelectorAll(selector);
		if (children.length) return children[0];
	}
	function find_group(node) {
		var parent = node.parentElement;
		if (!parent) return;
		if (parent.id == "frames") return node;
		return find_group(parent);
	}
	function orig_save(e, attr, val) {
		if (e.attributes["_orig_" + attr] != undefined) return;
		if (e.attributes[attr] == undefined) return;
		if (val == undefined) val = e.attributes[attr].value;
		e.setAttribute("_orig_" + attr, val);
	}
	function orig_load(e, attr) {
		if (e.attributes["_orig_"+attr] == undefined) return;
		e.attributes[attr].value = e.attributes["_orig_" + attr].value;
		e.removeAttribute("_orig_"+attr);
	}
	function g_to_text(e) {
		var text = find_child(e, "title").firstChild.nodeValue;
		return (text)
	}
	function g_to_func(e) {
		var func = g_to_text(e);
		// if there's any manipulation we want to do to the function
		// name before it's searched, do it here before returning.
		return (func);
	}
	function update_text(e) {
		var r = find_child(e, "rect");
		var t = find_child(e, "text");
		var w = parseFloat(r.attributes.width.value) -3;
		var txt = find_child(e, "title").textContent.replace(/\([^(]*\)$/,"");
		t.attributes.x.value = parseFloat(r.attributes.x.value) + 3;

		// Smaller than this size won't fit anything
		if (w < 2 * 13 * 0.59) {
			t.textContent = "";
			return;
		}

		t.textContent = txt;
		// Fit in full text width
		if (/^ *$/.test(txt) || t.getSubStringLength(0, txt.length) < w)
			return;

		for (var x = txt.length - 2; x > 0; x--) {
			if (t.getSubStringLength(0, x + 2) <= w) {
				t.textContent = txt.substring(0, x) + "..";
				return;
			}
		}
		t.textContent = "";
	}

	// zoom
	function zoom_reset(e) {
		if (e.attributes != undefined) {
			orig_load(e, "x");
			orig_load(e, "width");
		}
		if (e.childNodes == undefined) return;
		for (var i = 0, c = e.childNodes; i < c.length; i++) {
			zoom_reset(c[i]);
		}
	}
	function zoom_child(e, x, ratio) {
		if (e.attributes != undefined) {
			if (e.attributes.x != undefined) {
				orig_save(e, "x");
				e.attributes.x.value = (parseFloat(e.attributes.x.value) - x - 10) * ratio + 10;
				if (e.tagName == "text")
					e.attributes.x.value = find_child(e.parentNode, "rect[x]").attributes.x.value + 3;
			}
			if (e.attributes.width != undefined) {
				orig_save(e, "width");
				e.attributes.width.value = parseFloat(e.attributes.width.value) * ratio;
			}
		}

		if (e.childNodes == undefined) return;
		for (var i = 0, c = e.childNodes; i < c.length; i++) {
			zoom_child(c[i], x - 10, ratio);
		}
	}
	function zoom_parent(e) {
		if (e.attributes) {
			if (e.attributes.x != undefined) {
				orig_save(e, "x");
				e.attributes.x.value = 10;
			}
			if (e.attributes.width != undefined) {
				orig_save(e, "width");
				e.attributes.width.value = parseInt(svg.width.baseVal.value) - (10 * 2);
			}
		}
		if (e.childNodes == undefined) return;
		for (var i = 0, c = e.childNodes; i < c.length; i++) {
			zoom_parent(c[i]);
		}
	}
	function zoom(node) {
		var attr = find_child(node, "rect").attributes;
		var width = parseFloat(attr.width.value);
		var xmin = parseFloat(attr.x.value);
		var xmax = parseFloat(xmin + width);
		var ymin = parseFloat(attr.y.value);
		var ratio = (svg.width.baseVal.value - 2 * 10) / width;

		// XXX: Workaround for JavaScript float issues (fix me)
		var fudge = 0.0001;

		unzoombtn.classList.remove("hide");

		var el = document.getElementById("frames").children;
		for (var i = 0; i < el.length; i++) {
			var e = el[i];
			var a = find_child(e, "rect").attributes;
			var ex = parseFloat(a.x.value);
			var ew = parseFloat(a.width.value);
			var upstack;
			// Is it an ancestor
			if (1 == 0) {
				upstack = parseFloat(a.y.value) > ymin;
			} else {
				upstack = parseFloat(a.y.value) < ymin;
			}
			if (upstack) {
				// Direct ancestor
				if (ex <= xmin && (ex+ew+fudge) >= xmax) {
					e.classList.add("parent");
					zoom_parent(e);
					update_text(e);
				}
				// not in current path
				else
					e.classList.add("hide");
			}
			// Children maybe
			else {
				// no common path
				if (ex < xmin || ex + fudge >= xmax) {
					e.classList.add("hide");
				}
				else {
					zoom_child(e, xmin, ratio);
					update_text(e);
				}
			}
		}
		search();
	}
	function unzoom() {
		unzoombtn.classList.add("hide");
		var el = document.getElementById("frames").children;
		for(var i = 0; i < el.length; i++) {
			el[i].classList.remove("parent");
			el[i].classList.remove("hide");
			zoom_reset(el[i]);
			update_text(el[i]);
		}
		search();
	}
	function clearzoom() {
		unzoom();

		// remove zoom state
		var params = get_params();
		if (params.x) delete params.x;
		if (params.y) delete params.y;
		history.replaceState(null, null, parse_params(params));
	}

	// search
	function toggle_ignorecase() {
		ignorecase = !ignorecase;
		if (ignorecase) {
			ignorecaseBtn.classList.add("show");
		} else {
			ignorecaseBtn.classList.remove("show");
		}
		reset_search();
		search();
	}
	function reset_search() {
		var el = document.querySelectorAll("#frames rect");
		for (var i = 0; i < el.length; i++) {
			orig_load(el[i], "fill")
		}
		var params = get_params();
		delete params.s;
		history.replaceState(null, null, parse_params(params));
	}
	function search_prompt() {
		if (!searching) {
			var term = prompt("Enter a search term (regexp " +
			    "allowed, eg: ^ext4_)"
			    + (ignorecase ? ", ignoring case" : "")
			    + "\nPress Ctrl-i to toggle case sensitivity", "");
			if (term != null) search(term);
		} else {
			reset_search();
			searching = 0;
			currentSearchTerm = null;
			searchbtn.classList.remove("show");
			searchbtn.firstChild.nodeValue = "Search"
			matchedtxt.classList.add("hide");
			matchedtxt.firstChild.nodeValue = ""
		}
	}
	function search(term) {
		if (term) currentSearchTerm = term;

		var re = new RegExp(currentSearchTerm, ignorecase ? 'i' : '');
		var el = document.getElementById("frames").children;
		var matches = new Object();
		var maxwidth = 0;
		for (var i = 0; i < el.length; i++) {
			var e = el[i];
			var func = g_to_func(e);
			var rect = find_child(e, "rect");
			if (func == null || rect == null)
				continue;

			// Save max width. Only works as we have a root frame
			var w = parseFloat(rect.attributes.width.value);
			if (w > maxwidth)
				maxwidth = w;

			if (func.match(re)) {
				// highlight
				var x = parseFloat(rect.attributes.x.value);
				orig_save(rect, "fill");
				rect.attributes.fill.value = "rgb(230,0,230)";

				// remember matches
				if (matches[x] == undefined) {
					matches[x] = w;
				} else {
					if (w > matches[x]) {
						// overwrite with parent
						matches[x] = w;
					}
				}
				searching = 1;
			}
		}
		if (!searching)
			return;
		var params = get_params();
		params.s = currentSearchTerm;
		history.replaceState(null, null, parse_params(params));

		searchbtn.classList.add("show");
		searchbtn.firstChild.nodeValue = "Reset Search";

		// calculate percent matched, excluding vertical overlap
		var count = 0;
		var lastx = -1;
		var lastw = 0;
		var keys = Array();
		for (k in matches) {
			if (matches.hasOwnProperty(k))
				keys.push(k);
		}
		// sort the matched frames by their x location
		// ascending, then width descending
		keys.sort(function(a, b){
			return a - b;
		});
		// Step through frames saving only the biggest bottom-up frames
		// thanks to the sort order. This relies on the tree property
		// where children are always smaller than their parents.
		var fudge = 0.0001;	// JavaScript floating point
		for (var k in keys) {
			var x = parseFloat(keys[k]);
			var w = matches[keys[k]];
			if (x >= lastx + lastw - fudge) {
				count += w;
				lastx = x;
				lastw = w;
			}
		}
		// display matched percent
		matchedtxt.classList.remove("hide");
		var pct = 100 * count / maxwidth;
		if (pct != 100) pct = pct.toFixed(1)
		matchedtxt.firstChild.nodeValue = "Matched: " + pct + "%";
	}
]]>
</script>
<rect x="0.0" y="0" width="1200.0" height="411.0" fill="url(#background)"  />
<text id="title" x="600.00" y="26" >Firedrake example</text>
<text id="details" x="10.00" y="393" > </text>
<text id="unzoom" x="10.00" y="26" class="hide">Reset Zoom</text>
<text id="search" x="1090.00" y="26" >Search</text>
<text id="ignorecase" x="1174.00" y="26" >ic</text>
<text id="matched" x="1090.00" y="393" > </text>
<g id="frames">
<g >
<title>Log_Event_subkernel132_interior_facet_vert_to__exterior_facet_vert_integral_otherwise (267,286 us, 0.07%)</title><rect x="560.8" y="263" width="0.8" height="15.0" fill="rgb(0,0,0)" rx="2" ry="2" />
<text  x="563.76" y="273.5" ></text>
</g>
<g >
<title>Log_Event_subkernel129_cell_to__cell_integral_otherwise (91,458 us, 0.02%)</title><rect x="683.8" y="343" width="0.3" height="15.0" fill="rgb(0,0,0)" rx="2" ry="2" />
<text  x="686.81" y="353.5" ></text>
</g>
<g >
<title>ParLoopExecute (8,406,776 us, 2.23%)</title><rect x="22.7" y="151" width="26.3" height="15.0" fill="rgb(0,0,0)" rx="2" ry="2" />
<text  x="25.68" y="161.5" >P..</text>
</g>
<g >
<title>ParLoopExecute (23,964,744 us, 6.35%)</title><rect x="544.7" y="199" width="74.9" height="15.0" fill="rgb(0,0,0)" rx="2" ry="2" />
<text  x="547.70" y="209.5" >ParLoop..</text>
</g>
<g >
<title>Log_Event_subkernel15_cell_to__cell_integral_otherwise (120,992 us, 0.03%)</title><rect x="110.4" y="247" width="0.4" height="15.0" fill="rgb(0,0,0)" rx="2" ry="2" />
<text  x="113.40" y="257.5" ></text>
</g>
<g >
<title>all (377,431,952 us, 100%)</title><rect x="10.0" y="39" width="1180.0" height="15.0" fill="rgb(0,0,0)" rx="2" ry="2" />
<text  x="13.00" y="49.5" ></text>
</g>
<g >
<title>Log_Event_subkernel81_cell_to__cell_integral_otherwise (106,804 us, 0.03%)</title><rect x="701.6" y="343" width="0.3" height="15.0" fill="rgb(0,0,0)" rx="2" ry="2" />
<text  x="704.61" y="353.5" ></text>
</g>
<g >
<title>Log_Event_tensorshell_knl_80 (801,611 us, 0.21%)</title><rect x="604.4" y="263" width="2.5" height="15.0" fill="rgb(0,0,0)" rx="2" ry="2" />
<text  x="607.44" y="273.5" ></text>
</g>
<g >
<title>Log_Event_subkernel134_cell_to__cell_integral_otherwise (1,226,970 us, 0.33%)</title><rect x="692.3" y="343" width="3.8" height="15.0" fill="rgb(0,0,0)" rx="2" ry="2" />
<text  x="695.27" y="353.5" ></text>
</g>
<g >
<title>firedrake.__init__ (1,517,328 us, 0.40%)</title><rect x="17.9" y="71" width="4.8" height="15.0" fill="rgb(0,0,0)" rx="2" ry="2" />
<text  x="20.94" y="81.5" ></text>
</g>
<g >
<title>firedrake.interpolation.make_interpolator (93,183 us, 0.02%)</title><rect x="1186.2" y="167" width="0.3" height="15.0" fill="rgb(0,0,0)" rx="2" ry="2" />
<text  x="1189.23" y="177.5" ></text>
</g>
<g >
<title>PCSetUp (770,177 us, 0.20%)</title><rect x="1187.6" y="103" width="2.4" height="15.0" fill="rgb(0,0,0)" rx="2" ry="2" />
<text  x="1190.59" y="113.5" ></text>
</g>
<g >
<title>Log_Event_subkernel91_cell_to__cell_integral_otherwise (239,589 us, 0.06%)</title><rect x="602.9" y="263" width="0.7" height="15.0" fill="rgb(0,0,0)" rx="2" ry="2" />
<text  x="605.85" y="273.5" ></text>
</g>
<g >
<title>Log_Event_subkernel127_cell_to__cell_integral_otherwise (231,024 us, 0.06%)</title><rect x="562.5" y="295" width="0.8" height="15.0" fill="rgb(0,0,0)" rx="2" ry="2" />
<text  x="565.53" y="305.5" ></text>
</g>
<g >
<title>Log_Event_subkernel112_interior_facet_vert_to__exterior_facet_vert_integral_otherwise (768,926 us, 0.20%)</title><rect x="612.1" y="247" width="2.4" height="15.0" fill="rgb(0,0,0)" rx="2" ry="2" />
<text  x="615.07" y="257.5" ></text>
</g>
<g >
<title>Log_Event_subkernel117_cell_to__cell_integral_otherwise (99,123 us, 0.03%)</title><rect x="681.3" y="327" width="0.3" height="15.0" fill="rgb(0,0,0)" rx="2" ry="2" />
<text  x="684.30" y="337.5" ></text>
</g>
<g >
<title>Log_Event_mtf_solve_113 (529,675 us, 0.14%)</title><rect x="557.3" y="247" width="1.6" height="15.0" fill="rgb(0,0,0)" rx="2" ry="2" />
<text  x="560.26" y="257.5" ></text>
</g>
<g >
<title>HybridRHS (156,462,052 us, 41.45%)</title><rect x="55.5" y="151" width="489.2" height="15.0" fill="rgb(0,0,0)" rx="2" ry="2" />
<text  x="58.53" y="161.5" >HybridRHS</text>
</g>
<g >
<title>KSPSolve (372,604,610 us, 98.72%)</title><rect x="22.7" y="103" width="1164.9" height="15.0" fill="rgb(0,0,0)" rx="2" ry="2" />
<text  x="25.68" y="113.5" >KSPSolve</text>
</g>
<g >
<title>pyop2.global_kernel.GlobalKernel.compile (681,449 us, 0.18%)</title><rect x="1187.9" y="183" width="2.1" height="15.0" fill="rgb(0,0,0)" rx="2" ry="2" />
<text  x="1190.87" y="193.5" ></text>
</g>
<g >
<title>firedrake.variational_solver.NonlinearVariationalSolver.solve (373,374,787 us, 98.93%)</title><rect x="22.7" y="71" width="1167.3" height="15.0" fill="rgb(0,0,0)" rx="2" ry="2" />
<text  x="25.68" y="81.5" >firedrake.variational_solver.NonlinearVariationalSolver.solve</text>
</g>
<g >
<title>Log_Event_subkernel91_interior_facet_vert_to__exterior_facet_vert_integral_otherwise (117,739 us, 0.03%)</title><rect x="700.7" y="327" width="0.4" height="15.0" fill="rgb(0,0,0)" rx="2" ry="2" />
<text  x="703.72" y="337.5" ></text>
</g>
<g >
<title>Log_Event_mtf_solve_120 (13,314,907 us, 3.53%)</title><rect x="558.9" y="247" width="41.6" height="15.0" fill="rgb(0,0,0)" rx="2" ry="2" />
<text  x="561.92" y="257.5" >Log..</text>
</g>
<g >
<title>PCSetUp (173,655,362 us, 46.01%)</title><rect x="619.6" y="183" width="542.9" height="15.0" fill="rgb(0,0,0)" rx="2" ry="2" />
<text  x="622.62" y="193.5" >PCSetUp</text>
</g>
<g >
<title>firedrake.parloops.par_loop (681,449 us, 0.18%)</title><rect x="1187.9" y="135" width="2.1" height="15.0" fill="rgb(0,0,0)" rx="2" ry="2" />
<text  x="1190.87" y="145.5" ></text>
</g>
<g >
<title>Parloop_Cells_wrap_form1_cell_integral_otherwise (3,934,864 us, 1.04%)</title><rect x="36.7" y="167" width="12.3" height="15.0" fill="rgb(0,0,0)" rx="2" ry="2" />
<text  x="39.67" y="177.5" ></text>
</g>
<g >
<title>Log_Event_mtf_solve_113 (229,686 us, 0.06%)</title><rect x="680.9" y="311" width="0.7" height="15.0" fill="rgb(0,0,0)" rx="2" ry="2" />
<text  x="683.89" y="321.5" ></text>
</g>
<g >
<title>Log_Event_subkernel141_cell_to__cell_integral_otherwise (2,420,909 us, 0.64%)</title><rect x="593.0" y="279" width="7.5" height="15.0" fill="rgb(0,0,0)" rx="2" ry="2" />
<text  x="595.98" y="289.5" ></text>
</g>
<g >
<title>Log_Event_subkernel85_cell_to__cell_integral_otherwise (94,712 us, 0.03%)</title><rect x="604.8" y="295" width="0.3" height="15.0" fill="rgb(0,0,0)" rx="2" ry="2" />
<text  x="607.82" y="305.5" ></text>
</g>
<g >
<title>MatMult (173,319,016 us, 45.92%)</title><rect x="619.6" y="231" width="541.9" height="15.0" fill="rgb(0,0,0)" rx="2" ry="2" />
<text  x="622.62" y="241.5" >MatMult</text>
</g>
<g >
<title>Log_Event_subkernel111_interior_facet_vert_to__exterior_facet_vert_integral_otherwise (597,717 us, 0.16%)</title><rect x="610.2" y="247" width="1.9" height="15.0" fill="rgb(0,0,0)" rx="2" ry="2" />
<text  x="613.20" y="257.5" ></text>
</g>
<g >
<title>Log_Event_subkernel106_cell_to__cell_integral_otherwise (123,159 us, 0.03%)</title><rect x="556.2" y="263" width="0.4" height="15.0" fill="rgb(0,0,0)" rx="2" ry="2" />
<text  x="559.20" y="273.5" ></text>
</g>
<g >
<title>PCSetUp (336,346 us, 0.09%)</title><rect x="1161.5" y="199" width="1.0" height="15.0" fill="rgb(0,0,0)" rx="2" ry="2" />
<text  x="1164.48" y="209.5" ></text>
</g>
<g >
<title>Log_Event_subkernel108_cell_to__cell_integral_otherwise (95,019 us, 0.03%)</title><rect x="556.6" y="263" width="0.3" height="15.0" fill="rgb(0,0,0)" rx="2" ry="2" />
<text  x="559.58" y="273.5" ></text>
</g>
<g >
<title>ParLoopExecute (893,457 us, 0.24%)</title><rect x="15.1" y="103" width="2.8" height="15.0" fill="rgb(0,0,0)" rx="2" ry="2" />
<text  x="18.15" y="113.5" ></text>
</g>
<g >
<title>firedrake.extrusion_utils.make_extruded_coords (893,457 us, 0.24%)</title><rect x="15.1" y="87" width="2.8" height="15.0" fill="rgb(0,0,0)" rx="2" ry="2" />
<text  x="18.15" y="97.5" ></text>
</g>
<g >
<title>Log_Event_tensorshell_knl_140 (120,231 us, 0.03%)</title><rect x="691.9" y="359" width="0.4" height="15.0" fill="rgb(0,0,0)" rx="2" ry="2" />
<text  x="694.89" y="369.5" ></text>
</g>
<g >
<title>Log_Event_subkernel129_cell_to__cell_integral_otherwise (210,693 us, 0.06%)</title><rect x="564.0" y="279" width="0.7" height="15.0" fill="rgb(0,0,0)" rx="2" ry="2" />
<text  x="567.01" y="289.5" ></text>
</g>
<g >
<title>Log_Event_subkernel139_cell_to__cell_integral_otherwise (1,168,839 us, 0.31%)</title><rect x="688.2" y="359" width="3.7" height="15.0" fill="rgb(0,0,0)" rx="2" ry="2" />
<text  x="691.24" y="369.5" ></text>
</g>
<g >
<title>MatMult (23,964,744 us, 6.35%)</title><rect x="544.7" y="167" width="74.9" height="15.0" fill="rgb(0,0,0)" rx="2" ry="2" />
<text  x="547.70" y="177.5" >MatMult</text>
</g>
<g >
<title>Log_Event_subkernel132_cell_to__cell_integral_otherwise (102,625 us, 0.03%)</title><rect x="682.1" y="327" width="0.3" height="15.0" fill="rgb(0,0,0)" rx="2" ry="2" />
<text  x="685.08" y="337.5" ></text>
</g>
<g >
<title>Log_Event_subkernel152_interior_facet_vert_to__exterior_facet_vert_integral_otherwise (265,261 us, 0.07%)</title><rect x="706.2" y="311" width="0.8" height="15.0" fill="rgb(0,0,0)" rx="2" ry="2" />
<text  x="709.18" y="321.5" ></text>
</g>
<g >
<title>Log_Event_subkernel98_cell_to__cell_integral_otherwise (125,610 us, 0.03%)</title><rect x="607.6" y="295" width="0.4" height="15.0" fill="rgb(0,0,0)" rx="2" ry="2" />
<text  x="610.63" y="305.5" ></text>
</g>
<g >
<title>PCSetUp (8,014,963 us, 2.12%)</title><rect x="1162.5" y="151" width="25.1" height="15.0" fill="rgb(0,0,0)" rx="2" ry="2" />
<text  x="1165.53" y="161.5" >P..</text>
</g>
<g >
<title>Log_Event_subkernel104_cell_to__cell_integral_otherwise (244,458 us, 0.06%)</title><rect x="609.4" y="247" width="0.8" height="15.0" fill="rgb(0,0,0)" rx="2" ry="2" />
<text  x="612.44" y="257.5" ></text>
</g>
<g >
<title>firedrake.tsfc_interface.compile_form (29,006,077 us, 7.69%)</title><rect x="454.0" y="167" width="90.7" height="15.0" fill="rgb(0,0,0)" rx="2" ry="2" />
<text  x="457.01" y="177.5" >firedrake..</text>
</g>
<g >
<title>Parloop_Cells_wrap_pyop2_kernel_uniform_extrusion (893,457 us, 0.24%)</title><rect x="15.1" y="119" width="2.8" height="15.0" fill="rgb(0,0,0)" rx="2" ry="2" />
<text  x="18.15" y="129.5" ></text>
</g>
<g >
<title>Log_Event_subkernel86_cell_to__cell_integral_otherwise (124,823 us, 0.03%)</title><rect x="605.1" y="295" width="0.4" height="15.0" fill="rgb(0,0,0)" rx="2" ry="2" />
<text  x="608.12" y="305.5" ></text>
</g>
<g >
<title>Log_Event_subkernel88_cell_to__cell_integral_otherwise (92,686 us, 0.02%)</title><rect x="701.9" y="343" width="0.3" height="15.0" fill="rgb(0,0,0)" rx="2" ry="2" />
<text  x="704.95" y="353.5" ></text>
</g>
<g >
<title>Log_Event_subkernel138_cell_to__cell_integral_otherwise (460,926 us, 0.12%)</title><rect x="686.8" y="359" width="1.4" height="15.0" fill="rgb(0,0,0)" rx="2" ry="2" />
<text  x="689.80" y="369.5" ></text>
</g>
<g >
<title>Log_Event_subkernel141_cell_to__cell_integral_otherwise (1,055,246 us, 0.28%)</title><rect x="696.1" y="343" width="3.3" height="15.0" fill="rgb(0,0,0)" rx="2" ry="2" />
<text  x="699.10" y="353.5" ></text>
</g>
<g >
<title>Log_Event_subkernel145_cell_to__cell_integral_otherwise (241,547 us, 0.06%)</title><rect x="615.1" y="247" width="0.8" height="15.0" fill="rgb(0,0,0)" rx="2" ry="2" />
<text  x="618.14" y="257.5" ></text>
</g>
<g >
<title>Log_Event_subkernel111_interior_facet_vert_to__exterior_facet_vert_integral_otherwise (259,145 us, 0.07%)</title><rect x="703.7" y="311" width="0.8" height="15.0" fill="rgb(0,0,0)" rx="2" ry="2" />
<text  x="706.70" y="321.5" ></text>
</g>
<g >
<title>Log_Event_mtf_solve_120 (5,692,361 us, 1.51%)</title><rect x="681.6" y="311" width="17.8" height="15.0" fill="rgb(0,0,0)" rx="2" ry="2" />
<text  x="684.61" y="321.5" ></text>
</g>
<g >
<title>PCApply (363,002,200 us, 96.18%)</title><rect x="52.7" y="119" width="1134.9" height="15.0" fill="rgb(0,0,0)" rx="2" ry="2" />
<text  x="55.71" y="129.5" >PCApply</text>
</g>
<g >
<title>Log_Event_subkernel100_cell_to__cell_integral_otherwise (210,198 us, 0.06%)</title><rect x="608.0" y="279" width="0.7" height="15.0" fill="rgb(0,0,0)" rx="2" ry="2" />
<text  x="611.02" y="289.5" ></text>
</g>
<g >
<title>Log_Event_mtf_solve_41 (105,688 us, 0.03%)</title><rect x="111.1" y="215" width="0.3" height="15.0" fill="rgb(0,0,0)" rx="2" ry="2" />
<text  x="114.10" y="225.5" ></text>
</g>
<g >
<title>Log_Event_subkernel91_cell_to__cell_integral_otherwise (102,926 us, 0.03%)</title><rect x="700.4" y="327" width="0.3" height="15.0" fill="rgb(0,0,0)" rx="2" ry="2" />
<text  x="703.40" y="337.5" ></text>
</g>
<g >
<title>firedrake.tsfc_interface.compile_form (341,269 us, 0.09%)</title><rect x="1186.5" y="167" width="1.1" height="15.0" fill="rgb(0,0,0)" rx="2" ry="2" />
<text  x="1189.53" y="177.5" ></text>
</g>
<g >
<title>Log_Event_tensorshell_knl_140 (283,636 us, 0.08%)</title><rect x="583.3" y="295" width="0.9" height="15.0" fill="rgb(0,0,0)" rx="2" ry="2" />
<text  x="586.30" y="305.5" ></text>
</g>
<g >
<title>ParLoopExecute (7,580,511 us, 2.01%)</title><rect x="1162.5" y="167" width="23.7" height="15.0" fill="rgb(0,0,0)" rx="2" ry="2" />
<text  x="1165.53" y="177.5" >P..</text>
</g>
<g >
<title>Log_Event_subkernel145_cell_to__cell_integral_otherwise (105,478 us, 0.03%)</title><rect x="705.8" y="311" width="0.4" height="15.0" fill="rgb(0,0,0)" rx="2" ry="2" />
<text  x="708.85" y="321.5" ></text>
</g>
<g >
<title>Log_Event_subkernel83_cell_to__cell_integral_otherwise (123,772 us, 0.03%)</title><rect x="604.4" y="295" width="0.4" height="15.0" fill="rgb(0,0,0)" rx="2" ry="2" />
<text  x="607.44" y="305.5" ></text>
</g>
<g >
<title>SCSolve (205,635,069 us, 54.48%)</title><rect x="544.7" y="135" width="642.9" height="15.0" fill="rgb(0,0,0)" rx="2" ry="2" />
<text  x="547.70" y="145.5" >SCSolve</text>
</g>
<g >
<title>Log_Event_mtf_solve_135 (2,614,550 us, 0.69%)</title><rect x="684.1" y="343" width="8.2" height="15.0" fill="rgb(0,0,0)" rx="2" ry="2" />
<text  x="687.09" y="353.5" ></text>
</g>
<g >
<title>Log_Event_subkernel150_cell_to__cell_integral_otherwise (227,588 us, 0.06%)</title><rect x="601.5" y="263" width="0.7" height="15.0" fill="rgb(0,0,0)" rx="2" ry="2" />
<text  x="604.50" y="273.5" ></text>
</g>
<g >
<title>Log_Event_subkernel119_cell_to__cell_integral_otherwise (211,892 us, 0.06%)</title><rect x="614.5" y="247" width="0.6" height="15.0" fill="rgb(0,0,0)" rx="2" ry="2" />
<text  x="617.48" y="257.5" ></text>
</g>
<g >
<title>Log_Event_subkernel153_interior_facet_vert_to__exterior_facet_vert_integral_otherwise (258,610 us, 0.07%)</title><rect x="707.0" y="311" width="0.8" height="15.0" fill="rgb(0,0,0)" rx="2" ry="2" />
<text  x="710.01" y="321.5" ></text>
</g>
<g >
<title>Log_Event_mtf_solve_16 (259,007 us, 0.07%)</title><rect x="109.6" y="247" width="0.8" height="15.0" fill="rgb(0,0,0)" rx="2" ry="2" />
<text  x="112.59" y="257.5" ></text>
</g>
<g >
<title>Log_Event_subkernel147_cell_to__cell_integral_otherwise (124,839 us, 0.03%)</title><rect x="600.8" y="263" width="0.4" height="15.0" fill="rgb(0,0,0)" rx="2" ry="2" />
<text  x="603.81" y="273.5" ></text>
</g>
<g >
<title>Log_Event_subkernel132_interior_facet_vert_to__exterior_facet_vert_integral_otherwise (116,864 us, 0.03%)</title><rect x="682.4" y="327" width="0.4" height="15.0" fill="rgb(0,0,0)" rx="2" ry="2" />
<text  x="685.40" y="337.5" ></text>
</g>
<g >
<title>pyop2.global_kernel.GlobalKernel.compile (905,079 us, 0.24%)</title><rect x="52.7" y="215" width="2.8" height="15.0" fill="rgb(0,0,0)" rx="2" ry="2" />
<text  x="55.71" y="225.5" ></text>
</g>
<g >
<title>Log_Event_subkernel97_cell_to__cell_integral_otherwise (95,003 us, 0.03%)</title><rect x="607.3" y="295" width="0.3" height="15.0" fill="rgb(0,0,0)" rx="2" ry="2" />
<text  x="610.33" y="305.5" ></text>
</g>
<g >
<title>KSPSolve (197,620,106 us, 52.36%)</title><rect x="544.7" y="151" width="617.8" height="15.0" fill="rgb(0,0,0)" rx="2" ry="2" />
<text  x="547.70" y="161.5" >KSPSolve</text>
</g>
<g >
<title>Log_Event_subkernel112_interior_facet_vert_to__exterior_facet_vert_integral_otherwise (334,302 us, 0.09%)</title><rect x="704.5" y="311" width="1.1" height="15.0" fill="rgb(0,0,0)" rx="2" ry="2" />
<text  x="707.52" y="321.5" ></text>
</g>
<g >
<title>Log_Event_mtf_solve_82 (343,307 us, 0.09%)</title><rect x="604.4" y="279" width="1.1" height="15.0" fill="rgb(0,0,0)" rx="2" ry="2" />
<text  x="607.44" y="289.5" ></text>
</g>
<g >
<title>Log_Event_mtf_solve_79 (1,039,175 us, 0.28%)</title><rect x="700.1" y="311" width="3.3" height="15.0" fill="rgb(0,0,0)" rx="2" ry="2" />
<text  x="703.12" y="321.5" ></text>
</g>
<g >
<title>Parloop_Cells_wrap_form0_cell_integral_otherwise (4,471,912 us, 1.18%)</title><rect x="22.7" y="167" width="14.0" height="15.0" fill="rgb(0,0,0)" rx="2" ry="2" />
<text  x="25.68" y="177.5" ></text>
</g>
<g >
<title>ParLoopExecute (125,747,612 us, 33.32%)</title><rect x="675.4" y="263" width="393.1" height="15.0" fill="rgb(0,0,0)" rx="2" ry="2" />
<text  x="678.36" y="273.5" >ParLoopExecute</text>
</g>
<g >
<title>Log_Event_subkernel104_cell_to__cell_integral_otherwise (106,409 us, 0.03%)</title><rect x="703.4" y="311" width="0.3" height="15.0" fill="rgb(0,0,0)" rx="2" ry="2" />
<text  x="706.37" y="321.5" ></text>
</g>
<g >
<title>firedrake.tsfc_interface.compile_form (1,195,634 us, 0.32%)</title><rect x="49.0" y="151" width="3.7" height="15.0" fill="rgb(0,0,0)" rx="2" ry="2" />
<text  x="51.97" y="161.5" ></text>
</g>
<g >
<title>Log_Event_mtf_solve_146 (230,164 us, 0.06%)</title><rect x="699.4" y="311" width="0.7" height="15.0" fill="rgb(0,0,0)" rx="2" ry="2" />
<text  x="702.40" y="321.5" ></text>
</g>
<g >
<title>Log_Event_subkernel91_interior_facet_vert_to__exterior_facet_vert_integral_otherwise (266,820 us, 0.07%)</title><rect x="603.6" y="263" width="0.8" height="15.0" fill="rgb(0,0,0)" rx="2" ry="2" />
<text  x="606.60" y="273.5" ></text>
</g>
<g >
<title>Parloop_Cells_wrap_form00_cell_integral_otherwise (6,248,646 us, 1.66%)</title><rect x="1166.7" y="183" width="19.5" height="15.0" fill="rgb(0,0,0)" rx="2" ry="2" />
<text  x="1169.70" y="193.5" ></text>
</g>
<g >
<title>Log_Event_subkernel20_cell_to__cell_integral_otherwise (115,453 us, 0.03%)</title><rect x="110.0" y="263" width="0.4" height="15.0" fill="rgb(0,0,0)" rx="2" ry="2" />
<text  x="113.03" y="273.5" ></text>
</g>
<g >
<title>pyop2.global_kernel.GlobalKernel.compile (115,366,905 us, 30.57%)</title><rect x="707.8" y="295" width="360.7" height="15.0" fill="rgb(0,0,0)" rx="2" ry="2" />
<text  x="710.82" y="305.5" >pyop2.global_kernel.GlobalKernel.compile</text>
</g>
<g >
<title>Log_Event_mtf_solve_82 (166,833 us, 0.04%)</title><rect x="701.1" y="343" width="0.5" height="15.0" fill="rgb(0,0,0)" rx="2" ry="2" />
<text  x="704.09" y="353.5" ></text>
</g>
<g >
<title>pyop2.global_kernel.GlobalKernel.compile (6,248,646 us, 1.66%)</title><rect x="1166.7" y="199" width="19.5" height="15.0" fill="rgb(0,0,0)" rx="2" ry="2" />
<text  x="1169.70" y="209.5" ></text>
</g>
<g >
<title>Log_Event_subkernel127_cell_to__cell_integral_otherwise (100,232 us, 0.03%)</title><rect x="683.2" y="359" width="0.3" height="15.0" fill="rgb(0,0,0)" rx="2" ry="2" />
<text  x="686.16" y="369.5" ></text>
</g>
<g >
<title>Parloop_Cells_wrap_par_loop_kernel (681,449 us, 0.18%)</title><rect x="1187.9" y="167" width="2.1" height="15.0" fill="rgb(0,0,0)" rx="2" ry="2" />
<text  x="1190.87" y="177.5" ></text>
</g>
<g >
<title>Log_Event_mtf_solve_105 (340,611 us, 0.09%)</title><rect x="556.2" y="247" width="1.1" height="15.0" fill="rgb(0,0,0)" rx="2" ry="2" />
<text  x="559.20" y="257.5" ></text>
</g>
<g >
<title>pyop2.global_kernel.GlobalKernel.compile (3,934,864 us, 1.04%)</title><rect x="36.7" y="183" width="12.3" height="15.0" fill="rgb(0,0,0)" rx="2" ry="2" />
<text  x="39.67" y="193.5" ></text>
</g>
<g >
<title>Log_Event_subkernel93_cell_to__cell_integral_otherwise (105,894 us, 0.03%)</title><rect x="703.0" y="343" width="0.4" height="15.0" fill="rgb(0,0,0)" rx="2" ry="2" />
<text  x="706.04" y="353.5" ></text>
</g>
<g >
<title>Log_Event_tensorshell_knl_92 (798,206 us, 0.21%)</title><rect x="606.9" y="263" width="2.5" height="15.0" fill="rgb(0,0,0)" rx="2" ry="2" />
<text  x="609.94" y="273.5" ></text>
</g>
<g >
<title>pyop2.global_kernel.GlobalKernel.compile (893,457 us, 0.24%)</title><rect x="15.1" y="135" width="2.8" height="15.0" fill="rgb(0,0,0)" rx="2" ry="2" />
<text  x="18.15" y="145.5" ></text>
</g>
<g >
<title>Log_Event_tensorshell_knl_133 (4,896,766 us, 1.30%)</title><rect x="684.1" y="327" width="15.3" height="15.0" fill="rgb(0,0,0)" rx="2" ry="2" />
<text  x="687.09" y="337.5" ></text>
</g>
<g >
<title>firedrake.tsfc_interface.compile_form (336,346 us, 0.09%)</title><rect x="1161.5" y="215" width="1.0" height="15.0" fill="rgb(0,0,0)" rx="2" ry="2" />
<text  x="1164.48" y="225.5" ></text>
</g>
<g >
<title>Parloop_Cells_wrap_par_loop_kernel (905,079 us, 0.24%)</title><rect x="52.7" y="199" width="2.8" height="15.0" fill="rgb(0,0,0)" rx="2" ry="2" />
<text  x="55.71" y="209.5" ></text>
</g>
<g >
<title>pyop2.global_kernel.GlobalKernel.compile (109,576,789 us, 29.03%)</title><rect x="111.4" y="199" width="342.6" height="15.0" fill="rgb(0,0,0)" rx="2" ry="2" />
<text  x="114.43" y="209.5" >pyop2.global_kernel.GlobalKernel.compile</text>
</g>
<g >
<title>Log_Event_subkernel93_cell_to__cell_integral_otherwise (243,820 us, 0.06%)</title><rect x="608.7" y="279" width="0.7" height="15.0" fill="rgb(0,0,0)" rx="2" ry="2" />
<text  x="611.68" y="289.5" ></text>
</g>
<g >
<title>Log_Event_tensorshell_knl_133 (11,474,467 us, 3.04%)</title><rect x="564.7" y="263" width="35.8" height="15.0" fill="rgb(0,0,0)" rx="2" ry="2" />
<text  x="567.67" y="273.5" >Lo..</text>
</g>
<g >
<title>Log_Event_mtf_solve_105 (164,889 us, 0.04%)</title><rect x="680.4" y="311" width="0.5" height="15.0" fill="rgb(0,0,0)" rx="2" ry="2" />
<text  x="683.37" y="321.5" ></text>
</g>
<g >
<title>Log_Event_subkernel88_cell_to__cell_integral_otherwise (212,155 us, 0.06%)</title><rect x="606.3" y="279" width="0.6" height="15.0" fill="rgb(0,0,0)" rx="2" ry="2" />
<text  x="609.28" y="289.5" ></text>
</g>
<g >
<title>Log_Event_subkernel109_cell_to__cell_integral_otherwise (122,433 us, 0.03%)</title><rect x="556.9" y="263" width="0.4" height="15.0" fill="rgb(0,0,0)" rx="2" ry="2" />
<text  x="559.88" y="273.5" ></text>
</g>
<g >
<title>firedrake.matrix_free.operators.ImplicitMatrixContext.mult (173,319,016 us, 45.92%)</title><rect x="619.6" y="247" width="541.9" height="15.0" fill="rgb(0,0,0)" rx="2" ry="2" />
<text  x="622.62" y="257.5" >firedrake.matrix_free.operators.ImplicitMatrixContext.mult</text>
</g>
<g >
<title>Log_Event_tensorshell_knl_92 (363,673 us, 0.10%)</title><rect x="702.2" y="327" width="1.2" height="15.0" fill="rgb(0,0,0)" rx="2" ry="2" />
<text  x="705.24" y="337.5" ></text>
</g>
<g >
<title>Log_Event_tensorshell_knl_137 (144,311 us, 0.04%)</title><rect x="582.8" y="295" width="0.5" height="15.0" fill="rgb(0,0,0)" rx="2" ry="2" />
<text  x="585.85" y="305.5" ></text>
</g>
<g >
<title>Log_Event_mtf_solve_94 (166,207 us, 0.04%)</title><rect x="702.2" y="343" width="0.6" height="15.0" fill="rgb(0,0,0)" rx="2" ry="2" />
<text  x="705.24" y="353.5" ></text>
</g>
<g >
<title>HybridBreak (905,079 us, 0.24%)</title><rect x="52.7" y="151" width="2.8" height="15.0" fill="rgb(0,0,0)" rx="2" ry="2" />
<text  x="55.71" y="161.5" ></text>
</g>
<g >
<title>Log_Event_subkernel81_cell_to__cell_integral_otherwise (246,149 us, 0.07%)</title><rect x="605.5" y="279" width="0.8" height="15.0" fill="rgb(0,0,0)" rx="2" ry="2" />
<text  x="608.51" y="289.5" ></text>
</g>
<g >
<title>firedrake.parloops.par_loop (905,079 us, 0.24%)</title><rect x="52.7" y="167" width="2.8" height="15.0" fill="rgb(0,0,0)" rx="2" ry="2" />
<text  x="55.71" y="177.5" ></text>
</g>
<g >
<title>pyop2.global_kernel.GlobalKernel.compile (1,331,865 us, 0.35%)</title><rect x="1162.5" y="199" width="4.2" height="15.0" fill="rgb(0,0,0)" rx="2" ry="2" />
<text  x="1165.53" y="209.5" ></text>
</g>
<g >
<title>firedrake.matrix_free.operators.ImplicitMatrixContext.mult (23,964,744 us, 6.35%)</title><rect x="544.7" y="183" width="74.9" height="15.0" fill="rgb(0,0,0)" rx="2" ry="2" />
<text  x="547.70" y="193.5" >firedra..</text>
</g>
<g >
<title>Log_Event_mtf_solve_135 (6,063,047 us, 1.61%)</title><rect x="565.2" y="279" width="19.0" height="15.0" fill="rgb(0,0,0)" rx="2" ry="2" />
<text  x="568.23" y="289.5" ></text>
</g>
<g >
<title>Log_Event_subkernel117_cell_to__cell_integral_otherwise (227,376 us, 0.06%)</title><rect x="558.2" y="263" width="0.7" height="15.0" fill="rgb(0,0,0)" rx="2" ry="2" />
<text  x="561.21" y="273.5" ></text>
</g>
<g >
<title>Log_Event_subkernel138_cell_to__cell_integral_otherwise (1,068,178 us, 0.28%)</title><rect x="571.1" y="295" width="3.3" height="15.0" fill="rgb(0,0,0)" rx="2" ry="2" />
<text  x="574.10" y="305.5" ></text>
</g>
<g >
<title>Parloop_Cells_wrap_slate_loopy_knl_0 (110,509,022 us, 29.28%)</title><rect x="108.5" y="183" width="345.5" height="15.0" fill="rgb(0,0,0)" rx="2" ry="2" />
<text  x="111.52" y="193.5" >Parloop_Cells_wrap_slate_loopy_knl_0</text>
</g>
<g >
<title>Log_Event_subkernel95_cell_to__cell_integral_otherwise (123,575 us, 0.03%)</title><rect x="606.9" y="295" width="0.4" height="15.0" fill="rgb(0,0,0)" rx="2" ry="2" />
<text  x="609.94" y="305.5" ></text>
</g>
<g >
<title>firedrake.matrix_free.operators.ImplicitMatrixContext.mult (9,602,410 us, 2.54%)</title><rect x="22.7" y="135" width="30.0" height="15.0" fill="rgb(0,0,0)" rx="2" ry="2" />
<text  x="25.68" y="145.5" >f..</text>
</g>
<g >
<title>Log_Event_mtf_solve_146 (532,693 us, 0.14%)</title><rect x="600.5" y="247" width="1.7" height="15.0" fill="rgb(0,0,0)" rx="2" ry="2" />
<text  x="603.55" y="257.5" ></text>
</g>
<g >
<title>ParLoopExecute (110,509,022 us, 29.28%)</title><rect x="108.5" y="167" width="345.5" height="15.0" fill="rgb(0,0,0)" rx="2" ry="2" />
<text  x="111.52" y="177.5" >ParLoopExecute</text>
</g>
<g >
<title>Log_Event_tensorshell_knl_121 (984,287 us, 0.26%)</title><rect x="561.6" y="263" width="3.1" height="15.0" fill="rgb(0,0,0)" rx="2" ry="2" />
<text  x="564.59" y="273.5" ></text>
</g>
<g >
<title>Log_Event_subkernel114_cell_to__cell_integral_otherwise (122,700 us, 0.03%)</title><rect x="557.5" y="263" width="0.4" height="15.0" fill="rgb(0,0,0)" rx="2" ry="2" />
<text  x="560.53" y="273.5" ></text>
</g>
<g >
<title>Log_Event_tensorshell_knl_14 (484,973 us, 0.13%)</title><rect x="109.6" y="231" width="1.5" height="15.0" fill="rgb(0,0,0)" rx="2" ry="2" />
<text  x="112.59" y="241.5" ></text>
</g>
<g >
<title>Log_Event_slate_loopy_knl_77 (10,041,206 us, 2.66%)</title><rect x="676.4" y="295" width="31.4" height="15.0" fill="rgb(0,0,0)" rx="2" ry="2" />
<text  x="679.42" y="305.5" >Lo..</text>
</g>
<g >
<title>Log_Event_subkernel122_cell_to__cell_integral_otherwise (243,682 us, 0.06%)</title><rect x="563.3" y="279" width="0.7" height="15.0" fill="rgb(0,0,0)" rx="2" ry="2" />
<text  x="566.25" y="289.5" ></text>
</g>
<g >
<title>KSPSolve (173,319,016 us, 45.92%)</title><rect x="619.6" y="215" width="541.9" height="15.0" fill="rgb(0,0,0)" rx="2" ry="2" />
<text  x="622.62" y="225.5" >KSPSolve</text>
</g>
<g >
<title>Parloop_Cells_wrap_expression_kernel (1,331,865 us, 0.35%)</title><rect x="1162.5" y="183" width="4.2" height="15.0" fill="rgb(0,0,0)" rx="2" ry="2" />
<text  x="1165.53" y="193.5" ></text>
</g>
<g >
<title>Parloop_Cells_wrap_slate_loopy_knl_77 (23,964,744 us, 6.35%)</title><rect x="544.7" y="215" width="74.9" height="15.0" fill="rgb(0,0,0)" rx="2" ry="2" />
<text  x="547.70" y="225.5" >Parloop..</text>
</g>
<g >
<title>Log_Event_slate_loopy_knl_77 (23,199,486 us, 6.15%)</title><rect x="547.1" y="231" width="72.5" height="15.0" fill="rgb(0,0,0)" rx="2" ry="2" />
<text  x="550.09" y="241.5" >Log_Eve..</text>
</g>
<g >
<title>Log_Event_mtf_solve_123 (529,912 us, 0.14%)</title><rect x="561.6" y="279" width="1.7" height="15.0" fill="rgb(0,0,0)" rx="2" ry="2" />
<text  x="564.59" y="289.5" ></text>
</g>
<g >
<title>Log_Event_subkernel132_cell_to__cell_integral_otherwise (239,559 us, 0.06%)</title><rect x="560.0" y="263" width="0.8" height="15.0" fill="rgb(0,0,0)" rx="2" ry="2" />
<text  x="563.01" y="273.5" ></text>
</g>
<g >
<title>Log_Event_mtf_solve_123 (229,368 us, 0.06%)</title><rect x="682.8" y="343" width="0.7" height="15.0" fill="rgb(0,0,0)" rx="2" ry="2" />
<text  x="685.76" y="353.5" ></text>
</g>
<g >
<title>Log_Event_mtf_solve_79 (2,311,766 us, 0.61%)</title><rect x="602.2" y="247" width="7.2" height="15.0" fill="rgb(0,0,0)" rx="2" ry="2" />
<text  x="605.21" y="257.5" ></text>
</g>
<g >
<title>Log_Event_tensorshell_knl_121 (426,483 us, 0.11%)</title><rect x="682.8" y="327" width="1.3" height="15.0" fill="rgb(0,0,0)" rx="2" ry="2" />
<text  x="685.76" y="337.5" ></text>
</g>
<g >
<title>SCForwardElim (157,367,131 us, 41.69%)</title><rect x="52.7" y="135" width="492.0" height="15.0" fill="rgb(0,0,0)" rx="2" ry="2" />
<text  x="55.71" y="145.5" >SCForwardElim</text>
</g>
<g >
<title>Log_Event_subkernel119_cell_to__cell_integral_otherwise (92,348 us, 0.02%)</title><rect x="705.6" y="311" width="0.2" height="15.0" fill="rgb(0,0,0)" rx="2" ry="2" />
<text  x="708.56" y="321.5" ></text>
</g>
<g >
<title>Log_Event_mtf_solve_94 (344,188 us, 0.09%)</title><rect x="606.9" y="279" width="1.1" height="15.0" fill="rgb(0,0,0)" rx="2" ry="2" />
<text  x="609.94" y="289.5" ></text>
</g>
<g >
<title>pyop2.global_kernel.GlobalKernel.compile (4,471,912 us, 1.18%)</title><rect x="22.7" y="183" width="14.0" height="15.0" fill="rgb(0,0,0)" rx="2" ry="2" />
<text  x="25.68" y="193.5" ></text>
</g>
<g >
<title>CreateExtMesh (893,457 us, 0.24%)</title><rect x="15.1" y="71" width="2.8" height="15.0" fill="rgb(0,0,0)" rx="2" ry="2" />
<text  x="18.15" y="81.5" ></text>
</g>
<g >
<title>Log_Event_slate_loopy_knl_0 (932,233 us, 0.25%)</title><rect x="108.5" y="199" width="2.9" height="15.0" fill="rgb(0,0,0)" rx="2" ry="2" />
<text  x="111.52" y="209.5" ></text>
</g>
<g >
<title>Log_Event_tensorshell_knl_80 (366,323 us, 0.10%)</title><rect x="701.1" y="327" width="1.1" height="15.0" fill="rgb(0,0,0)" rx="2" ry="2" />
<text  x="704.09" y="337.5" ></text>
</g>
<g >
<title>Log_Event_subkernel126_cell_to__cell_integral_otherwise (94,519 us, 0.03%)</title><rect x="562.2" y="295" width="0.3" height="15.0" fill="rgb(0,0,0)" rx="2" ry="2" />
<text  x="565.23" y="305.5" ></text>
</g>
<g >
<title>Log_Event_subkernel134_cell_to__cell_integral_otherwise (2,812,347 us, 0.75%)</title><rect x="584.2" y="279" width="8.8" height="15.0" fill="rgb(0,0,0)" rx="2" ry="2" />
<text  x="587.18" y="289.5" ></text>
</g>
<g >
<title>Log_Event_subkernel116_cell_to__cell_integral_otherwise (95,241 us, 0.03%)</title><rect x="557.9" y="263" width="0.3" height="15.0" fill="rgb(0,0,0)" rx="2" ry="2" />
<text  x="560.91" y="273.5" ></text>
</g>
<g >
<title>firedrake (377,431,952 us, 100.00%)</title><rect x="10.0" y="55" width="1180.0" height="15.0" fill="rgb(0,0,0)" rx="2" ry="2" />
<text  x="13.00" y="65.5" >firedrake</text>
</g>
<g >
<title>Log_Event_subkernel100_cell_to__cell_integral_otherwise (91,572 us, 0.02%)</title><rect x="702.8" y="343" width="0.2" height="15.0" fill="rgb(0,0,0)" rx="2" ry="2" />
<text  x="705.75" y="353.5" ></text>
</g>
<g >
<title>Log_Event_subkernel149_cell_to__cell_integral_otherwise (94,862 us, 0.03%)</title><rect x="601.2" y="263" width="0.3" height="15.0" fill="rgb(0,0,0)" rx="2" ry="2" />
<text  x="604.20" y="273.5" ></text>
</g>
<g >
<title>SNESSolve (373,374,787 us, 98.93%)</title><rect x="22.7" y="87" width="1167.3" height="15.0" fill="rgb(0,0,0)" rx="2" ry="2" />
<text  x="25.68" y="97.5" >SNESSolve</text>
</g>
<g >
<title>Log_Event_subkernel153_interior_facet_vert_to__exterior_facet_vert_integral_otherwise (595,544 us, 0.16%)</title><rect x="617.8" y="247" width="1.8" height="15.0" fill="rgb(0,0,0)" rx="2" ry="2" />
<text  x="620.76" y="257.5" ></text>
</g>
<g >
<title>ParLoopExecute (681,449 us, 0.18%)</title><rect x="1187.9" y="151" width="2.1" height="15.0" fill="rgb(0,0,0)" rx="2" ry="2" />
<text  x="1190.87" y="161.5" ></text>
</g>
<g >
<title>MatMult (9,602,410 us, 2.54%)</title><rect x="22.7" y="119" width="30.0" height="15.0" fill="rgb(0,0,0)" rx="2" ry="2" />
<text  x="25.68" y="129.5" >M..</text>
</g>
<g >
<title>Log_Event_subkernel124_cell_to__cell_integral_otherwise (124,268 us, 0.03%)</title><rect x="561.8" y="295" width="0.4" height="15.0" fill="rgb(0,0,0)" rx="2" ry="2" />
<text  x="564.84" y="305.5" ></text>
</g>
<g >
<title>PCApply (173,655,362 us, 46.01%)</title><rect x="619.6" y="167" width="542.9" height="15.0" fill="rgb(0,0,0)" rx="2" ry="2" />
<text  x="622.62" y="177.5" >PCApply</text>
</g>
<g >
<title>Log_Event_subkernel152_interior_facet_vert_to__exterior_facet_vert_integral_otherwise (596,461 us, 0.16%)</title><rect x="615.9" y="247" width="1.9" height="15.0" fill="rgb(0,0,0)" rx="2" ry="2" />
<text  x="618.89" y="257.5" ></text>
</g>
<g >
<title>HybridInit (770,177 us, 0.20%)</title><rect x="1187.6" y="119" width="2.4" height="15.0" fill="rgb(0,0,0)" rx="2" ry="2" />
<text  x="1190.59" y="129.5" ></text>
</g>
<g >
<title>ParLoopExecute (905,079 us, 0.24%)</title><rect x="52.7" y="183" width="2.8" height="15.0" fill="rgb(0,0,0)" rx="2" ry="2" />
<text  x="55.71" y="193.5" ></text>
</g>
<g >
<title>Log_Event_subkernel122_cell_to__cell_integral_otherwise (105,657 us, 0.03%)</title><rect x="683.5" y="343" width="0.3" height="15.0" fill="rgb(0,0,0)" rx="2" ry="2" />
<text  x="686.48" y="353.5" ></text>
</g>
<g >
<title>Log_Event_mtf_solve_1 (565,168 us, 0.15%)</title><rect x="109.3" y="215" width="1.8" height="15.0" fill="rgb(0,0,0)" rx="2" ry="2" />
<text  x="112.33" y="225.5" ></text>
</g>
<g >
<title>firedrake.tsfc_interface.compile_form (29,741,625 us, 7.88%)</title><rect x="1068.5" y="263" width="93.0" height="15.0" fill="rgb(0,0,0)" rx="2" ry="2" />
<text  x="1071.50" y="273.5" >firedrake...</text>
</g>
<g >
<title>Log_Event_subkernel139_cell_to__cell_integral_otherwise (2,687,640 us, 0.71%)</title><rect x="574.4" y="295" width="8.4" height="15.0" fill="rgb(0,0,0)" rx="2" ry="2" />
<text  x="577.44" y="305.5" ></text>
</g>
<g >
<title>Log_Event_subkernel136_cell_to__cell_integral_otherwise (1,353,099 us, 0.36%)</title><rect x="566.9" y="295" width="4.2" height="15.0" fill="rgb(0,0,0)" rx="2" ry="2" />
<text  x="569.87" y="305.5" ></text>
</g>
<g >
<title>Parloop_Cells_wrap_slate_loopy_knl_77 (125,747,612 us, 33.32%)</title><rect x="675.4" y="279" width="393.1" height="15.0" fill="rgb(0,0,0)" rx="2" ry="2" />
<text  x="678.36" y="289.5" >Parloop_Cells_wrap_slate_loopy_knl_77</text>
</g>
<g >
<title>Log_Event_subkernel22_cell_to__cell_integral_otherwise (104,974 us, 0.03%)</title><rect x="110.8" y="247" width="0.3" height="15.0" fill="rgb(0,0,0)" rx="2" ry="2" />
<text  x="113.77" y="257.5" ></text>
</g>
<g >
<title>Log_Event_subkernel150_cell_to__cell_integral_otherwise (99,155 us, 0.03%)</title><rect x="699.8" y="327" width="0.3" height="15.0" fill="rgb(0,0,0)" rx="2" ry="2" />
<text  x="702.81" y="337.5" ></text>
</g>
<g >
<title>Log_Event_subkernel136_cell_to__cell_integral_otherwise (588,480 us, 0.16%)</title><rect x="685.0" y="359" width="1.8" height="15.0" fill="rgb(0,0,0)" rx="2" ry="2" />
<text  x="687.96" y="369.5" ></text>
</g>
<g >
<title>KSPSetUp (173,319,016 us, 45.92%)</title><rect x="619.6" y="199" width="541.9" height="15.0" fill="rgb(0,0,0)" rx="2" ry="2" />
<text  x="622.62" y="209.5" >KSPSetUp</text>
</g>
</g>
</svg>
