<?xml version="1.0" standalone="no"?>
<!DOCTYPE svg PUBLIC "-//W3C//DTD SVG 1.1//EN" "http://www.w3.org/Graphics/SVG/1.1/DTD/svg11.dtd">
<svg version="1.1" width="1200" height="331" onload="init(evt)" viewBox="0 0 1200 331" xmlns="http://www.w3.org/2000/svg" xmlns:xlink="http://www.w3.org/1999/xlink">
<!-- Flame graph stack visualization. See https://github.com/brendangregg/FlameGraph for latest version, and http://www.brendangregg.com/flamegraphs.html for examples. -->
<!-- NOTES:  -->
<defs>
	<linearGradient id="background" y1="0" y2="1" x1="0" x2="0" >
		<stop stop-color="#eeeeee" offset="5%" />
		<stop stop-color="#eeeeb0" offset="95%" />
	</linearGradient>
</defs>
<style type="text/css">
	text { font-family:Verdana; font-size:13px; fill:rgb(0,0,0); }
	#search, #ignorecase { opacity:0.1; cursor:pointer; }
	#search:hover, #search.show, #ignorecase:hover, #ignorecase.show { opacity:1; }
	#subtitle { text-anchor:middle; font-color:rgb(160,160,160); }
	#title { text-anchor:middle; font-size:18px}
	#unzoom { cursor:pointer; }
	#frames > *:hover { stroke:black; stroke-width:0.5; cursor:pointer; }
	.hide { display:none; }
	.parent { opacity:0.5; }
</style>
<script type="text/ecmascript">
<![CDATA[
	"use strict";
	var details, searchbtn, unzoombtn, matchedtxt, svg, searching, currentSearchTerm, ignorecase, ignorecaseBtn;
	function init(evt) {
		details = document.getElementById("details").firstChild;
		searchbtn = document.getElementById("search");
		ignorecaseBtn = document.getElementById("ignorecase");
		unzoombtn = document.getElementById("unzoom");
		matchedtxt = document.getElementById("matched");
		svg = document.getElementsByTagName("svg")[0];
		searching = 0;
		currentSearchTerm = null;

		// use GET parameters to restore a flamegraphs state.
		var params = get_params();
		if (params.x && params.y)
			zoom(find_group(document.querySelector('[x="' + params.x + '"][y="' + params.y + '"]')));
                if (params.s) search(params.s);
	}

	// event listeners
	window.addEventListener("click", function(e) {
		var target = find_group(e.target);
		if (target) {
			if (target.nodeName == "a") {
				if (e.ctrlKey === false) return;
				e.preventDefault();
			}
			if (target.classList.contains("parent")) unzoom();
			zoom(target);
			if (!document.querySelector('.parent')) {
				clearzoom();
				return;
			}

			// set parameters for zoom state
			var el = target.querySelector("rect");
			if (el && el.attributes && el.attributes.y && el.attributes._orig_x) {
				var params = get_params()
				params.x = el.attributes._orig_x.value;
				params.y = el.attributes.y.value;
				history.replaceState(null, null, parse_params(params));
			}
		}
		else if (e.target.id == "unzoom") clearzoom();
		else if (e.target.id == "search") search_prompt();
		else if (e.target.id == "ignorecase") toggle_ignorecase();
	}, false)

	// mouse-over for info
	// show
	window.addEventListener("mouseover", function(e) {
		var target = find_group(e.target);
		if (target) details.nodeValue = "Function: " + g_to_text(target);
	}, false)

	// clear
	window.addEventListener("mouseout", function(e) {
		var target = find_group(e.target);
		if (target) details.nodeValue = ' ';
	}, false)

	// ctrl-F for search
	// ctrl-I to toggle case-sensitive search
	window.addEventListener("keydown",function (e) {
		if (e.keyCode === 114 || (e.ctrlKey && e.keyCode === 70)) {
			e.preventDefault();
			search_prompt();
		}
		else if (e.ctrlKey && e.keyCode === 73) {
			e.preventDefault();
			toggle_ignorecase();
		}
	}, false)

	// functions
	function get_params() {
		var params = {};
		var paramsarr = window.location.search.substr(1).split('&');
		for (var i = 0; i < paramsarr.length; ++i) {
			var tmp = paramsarr[i].split("=");
			if (!tmp[0] || !tmp[1]) continue;
			params[tmp[0]]  = decodeURIComponent(tmp[1]);
		}
		return params;
	}
	function parse_params(params) {
		var uri = "?";
		for (var key in params) {
			uri += key + '=' + encodeURIComponent(params[key]) + '&';
		}
		if (uri.slice(-1) == "&")
			uri = uri.substring(0, uri.length - 1);
		if (uri == '?')
			uri = window.location.href.split('?')[0];
		return uri;
	}
	function find_child(node, selector) {
		var children = node.querySelectorAll(selector);
		if (children.length) return children[0];
	}
	function find_group(node) {
		var parent = node.parentElement;
		if (!parent) return;
		if (parent.id == "frames") return node;
		return find_group(parent);
	}
	function orig_save(e, attr, val) {
		if (e.attributes["_orig_" + attr] != undefined) return;
		if (e.attributes[attr] == undefined) return;
		if (val == undefined) val = e.attributes[attr].value;
		e.setAttribute("_orig_" + attr, val);
	}
	function orig_load(e, attr) {
		if (e.attributes["_orig_"+attr] == undefined) return;
		e.attributes[attr].value = e.attributes["_orig_" + attr].value;
		e.removeAttribute("_orig_"+attr);
	}
	function g_to_text(e) {
		var text = find_child(e, "title").firstChild.nodeValue;
		return (text)
	}
	function g_to_func(e) {
		var func = g_to_text(e);
		// if there's any manipulation we want to do to the function
		// name before it's searched, do it here before returning.
		return (func);
	}
	function update_text(e) {
		var r = find_child(e, "rect");
		var t = find_child(e, "text");
		var w = parseFloat(r.attributes.width.value) -3;
		var txt = find_child(e, "title").textContent.replace(/\([^(]*\)$/,"");
		t.attributes.x.value = parseFloat(r.attributes.x.value) + 3;

		// Smaller than this size won't fit anything
		if (w < 2 * 13 * 0.59) {
			t.textContent = "";
			return;
		}

		t.textContent = txt;
		// Fit in full text width
		if (/^ *$/.test(txt) || t.getSubStringLength(0, txt.length) < w)
			return;

		for (var x = txt.length - 2; x > 0; x--) {
			if (t.getSubStringLength(0, x + 2) <= w) {
				t.textContent = txt.substring(0, x) + "..";
				return;
			}
		}
		t.textContent = "";
	}

	// zoom
	function zoom_reset(e) {
		if (e.attributes != undefined) {
			orig_load(e, "x");
			orig_load(e, "width");
		}
		if (e.childNodes == undefined) return;
		for (var i = 0, c = e.childNodes; i < c.length; i++) {
			zoom_reset(c[i]);
		}
	}
	function zoom_child(e, x, ratio) {
		if (e.attributes != undefined) {
			if (e.attributes.x != undefined) {
				orig_save(e, "x");
				e.attributes.x.value = (parseFloat(e.attributes.x.value) - x - 10) * ratio + 10;
				if (e.tagName == "text")
					e.attributes.x.value = find_child(e.parentNode, "rect[x]").attributes.x.value + 3;
			}
			if (e.attributes.width != undefined) {
				orig_save(e, "width");
				e.attributes.width.value = parseFloat(e.attributes.width.value) * ratio;
			}
		}

		if (e.childNodes == undefined) return;
		for (var i = 0, c = e.childNodes; i < c.length; i++) {
			zoom_child(c[i], x - 10, ratio);
		}
	}
	function zoom_parent(e) {
		if (e.attributes) {
			if (e.attributes.x != undefined) {
				orig_save(e, "x");
				e.attributes.x.value = 10;
			}
			if (e.attributes.width != undefined) {
				orig_save(e, "width");
				e.attributes.width.value = parseInt(svg.width.baseVal.value) - (10 * 2);
			}
		}
		if (e.childNodes == undefined) return;
		for (var i = 0, c = e.childNodes; i < c.length; i++) {
			zoom_parent(c[i]);
		}
	}
	function zoom(node) {
		var attr = find_child(node, "rect").attributes;
		var width = parseFloat(attr.width.value);
		var xmin = parseFloat(attr.x.value);
		var xmax = parseFloat(xmin + width);
		var ymin = parseFloat(attr.y.value);
		var ratio = (svg.width.baseVal.value - 2 * 10) / width;

		// XXX: Workaround for JavaScript float issues (fix me)
		var fudge = 0.0001;

		unzoombtn.classList.remove("hide");

		var el = document.getElementById("frames").children;
		for (var i = 0; i < el.length; i++) {
			var e = el[i];
			var a = find_child(e, "rect").attributes;
			var ex = parseFloat(a.x.value);
			var ew = parseFloat(a.width.value);
			var upstack;
			// Is it an ancestor
			if (1 == 0) {
				upstack = parseFloat(a.y.value) > ymin;
			} else {
				upstack = parseFloat(a.y.value) < ymin;
			}
			if (upstack) {
				// Direct ancestor
				if (ex <= xmin && (ex+ew+fudge) >= xmax) {
					e.classList.add("parent");
					zoom_parent(e);
					update_text(e);
				}
				// not in current path
				else
					e.classList.add("hide");
			}
			// Children maybe
			else {
				// no common path
				if (ex < xmin || ex + fudge >= xmax) {
					e.classList.add("hide");
				}
				else {
					zoom_child(e, xmin, ratio);
					update_text(e);
				}
			}
		}
		search();
	}
	function unzoom() {
		unzoombtn.classList.add("hide");
		var el = document.getElementById("frames").children;
		for(var i = 0; i < el.length; i++) {
			el[i].classList.remove("parent");
			el[i].classList.remove("hide");
			zoom_reset(el[i]);
			update_text(el[i]);
		}
		search();
	}
	function clearzoom() {
		unzoom();

		// remove zoom state
		var params = get_params();
		if (params.x) delete params.x;
		if (params.y) delete params.y;
		history.replaceState(null, null, parse_params(params));
	}

	// search
	function toggle_ignorecase() {
		ignorecase = !ignorecase;
		if (ignorecase) {
			ignorecaseBtn.classList.add("show");
		} else {
			ignorecaseBtn.classList.remove("show");
		}
		reset_search();
		search();
	}
	function reset_search() {
		var el = document.querySelectorAll("#frames rect");
		for (var i = 0; i < el.length; i++) {
			orig_load(el[i], "fill")
		}
		var params = get_params();
		delete params.s;
		history.replaceState(null, null, parse_params(params));
	}
	function search_prompt() {
		if (!searching) {
			var term = prompt("Enter a search term (regexp " +
			    "allowed, eg: ^ext4_)"
			    + (ignorecase ? ", ignoring case" : "")
			    + "\nPress Ctrl-i to toggle case sensitivity", "");
			if (term != null) search(term);
		} else {
			reset_search();
			searching = 0;
			currentSearchTerm = null;
			searchbtn.classList.remove("show");
			searchbtn.firstChild.nodeValue = "Search"
			matchedtxt.classList.add("hide");
			matchedtxt.firstChild.nodeValue = ""
		}
	}
	function search(term) {
		if (term) currentSearchTerm = term;

		var re = new RegExp(currentSearchTerm, ignorecase ? 'i' : '');
		var el = document.getElementById("frames").children;
		var matches = new Object();
		var maxwidth = 0;
		for (var i = 0; i < el.length; i++) {
			var e = el[i];
			var func = g_to_func(e);
			var rect = find_child(e, "rect");
			if (func == null || rect == null)
				continue;

			// Save max width. Only works as we have a root frame
			var w = parseFloat(rect.attributes.width.value);
			if (w > maxwidth)
				maxwidth = w;

			if (func.match(re)) {
				// highlight
				var x = parseFloat(rect.attributes.x.value);
				orig_save(rect, "fill");
				rect.attributes.fill.value = "rgb(230,0,230)";

				// remember matches
				if (matches[x] == undefined) {
					matches[x] = w;
				} else {
					if (w > matches[x]) {
						// overwrite with parent
						matches[x] = w;
					}
				}
				searching = 1;
			}
		}
		if (!searching)
			return;
		var params = get_params();
		params.s = currentSearchTerm;
		history.replaceState(null, null, parse_params(params));

		searchbtn.classList.add("show");
		searchbtn.firstChild.nodeValue = "Reset Search";

		// calculate percent matched, excluding vertical overlap
		var count = 0;
		var lastx = -1;
		var lastw = 0;
		var keys = Array();
		for (k in matches) {
			if (matches.hasOwnProperty(k))
				keys.push(k);
		}
		// sort the matched frames by their x location
		// ascending, then width descending
		keys.sort(function(a, b){
			return a - b;
		});
		// Step through frames saving only the biggest bottom-up frames
		// thanks to the sort order. This relies on the tree property
		// where children are always smaller than their parents.
		var fudge = 0.0001;	// JavaScript floating point
		for (var k in keys) {
			var x = parseFloat(keys[k]);
			var w = matches[keys[k]];
			if (x >= lastx + lastw - fudge) {
				count += w;
				lastx = x;
				lastw = w;
			}
		}
		// display matched percent
		matchedtxt.classList.remove("hide");
		var pct = 100 * count / maxwidth;
		if (pct != 100) pct = pct.toFixed(1)
		matchedtxt.firstChild.nodeValue = "Matched: " + pct + "%";
	}
]]>
</script>
<rect x="0.0" y="0" width="1200.0" height="331.0" fill="url(#background)"  />
<text id="title" x="600.00" y="26" >Firedrake example</text>
<text id="details" x="10.00" y="313" > </text>
<text id="unzoom" x="10.00" y="26" class="hide">Reset Zoom</text>
<text id="search" x="1090.00" y="26" >Search</text>
<text id="ignorecase" x="1174.00" y="26" >ic</text>
<text id="matched" x="1090.00" y="313" > </text>
<g id="frames">
<g >
<title>PCGAMGCoarse_AGG (16,032,648 us, 6.26%)</title><rect x="824.9" y="183" width="73.8" height="15.0" fill="rgb(0,0,0)" rx="2" ry="2" />
<text  x="827.88" y="193.5" >PCGAMGC..</text>
</g>
<g >
<title>ParLoopExecute (21,584,596 us, 8.42%)</title><rect x="54.4" y="119" width="99.4" height="15.0" fill="rgb(0,0,0)" rx="2" ry="2" />
<text  x="57.40" y="129.5" >ParLoopExe..</text>
</g>
<g >
<title>MatMult (16,627,652 us, 6.49%)</title><rect x="548.0" y="231" width="76.5" height="15.0" fill="rgb(0,0,0)" rx="2" ry="2" />
<text  x="550.97" y="241.5" >MatMult</text>
</g>
<g >
<title>MatPtAPNumeric (312,771 us, 0.12%)</title><rect x="918.5" y="199" width="1.5" height="15.0" fill="rgb(0,0,0)" rx="2" ry="2" />
<text  x="921.51" y="209.5" ></text>
</g>
<g >
<title>MatMult (388,685 us, 0.15%)</title><rect x="235.9" y="135" width="1.8" height="15.0" fill="rgb(0,0,0)" rx="2" ry="2" />
<text  x="238.93" y="145.5" ></text>
</g>
<g >
<title>Parloop_Cells_wrap_form_cell_integral_otherwise (10,925,044 us, 4.26%)</title><rect x="261.5" y="135" width="50.3" height="15.0" fill="rgb(0,0,0)" rx="2" ry="2" />
<text  x="264.53" y="145.5" >Parl..</text>
</g>
<g >
<title>PCApply (550,167 us, 0.21%)</title><rect x="935.2" y="199" width="2.6" height="15.0" fill="rgb(0,0,0)" rx="2" ry="2" />
<text  x="938.24" y="209.5" ></text>
</g>
<g >
<title>MatSolve (16,665,226 us, 6.50%)</title><rect x="624.5" y="279" width="76.8" height="15.0" fill="rgb(0,0,0)" rx="2" ry="2" />
<text  x="627.53" y="289.5" >MatSolve</text>
</g>
<g >
<title>PCApply (7,955,832 us, 3.10%)</title><rect x="748.2" y="199" width="36.6" height="15.0" fill="rgb(0,0,0)" rx="2" ry="2" />
<text  x="751.16" y="209.5" >PC..</text>
</g>
<g >
<title>KSPSolve (543,445 us, 0.21%)</title><rect x="237.7" y="151" width="2.5" height="15.0" fill="rgb(0,0,0)" rx="2" ry="2" />
<text  x="240.72" y="161.5" ></text>
</g>
<g >
<title>Log_Event_form10_cell_integral_otherwise (157,361 us, 0.06%)</title><rect x="1146.5" y="151" width="0.7" height="15.0" fill="rgb(0,0,0)" rx="2" ry="2" />
<text  x="1149.50" y="161.5" ></text>
</g>
<g >
<title>PCApply (28,507 us, 0.01%)</title><rect x="918.4" y="215" width="0.1" height="15.0" fill="rgb(0,0,0)" rx="2" ry="2" />
<text  x="921.38" y="225.5" ></text>
</g>
<g >
<title>MatAXPY (1,065,029 us, 0.42%)</title><rect x="946.4" y="119" width="4.9" height="15.0" fill="rgb(0,0,0)" rx="2" ry="2" />
<text  x="949.38" y="129.5" ></text>
</g>
<g >
<title>PCApply (16,665,226 us, 6.50%)</title><rect x="624.5" y="263" width="76.8" height="15.0" fill="rgb(0,0,0)" rx="2" ry="2" />
<text  x="627.53" y="273.5" >PCApply</text>
</g>
<g >
<title>Parloop_Cells_wrap_form1_cell_integral_otherwise (3,665,199 us, 1.43%)</title><rect x="999.7" y="135" width="16.9" height="15.0" fill="rgb(0,0,0)" rx="2" ry="2" />
<text  x="1002.70" y="145.5" ></text>
</g>
<g >
<title>PCApply (16,665,226 us, 6.50%)</title><rect x="624.5" y="231" width="76.8" height="15.0" fill="rgb(0,0,0)" rx="2" ry="2" />
<text  x="627.53" y="241.5" >PCApply</text>
</g>
<g >
<title>firedrake.tsfc_interface.compile_form (594,395 us, 0.23%)</title><rect x="233.2" y="119" width="2.7" height="15.0" fill="rgb(0,0,0)" rx="2" ry="2" />
<text  x="236.19" y="129.5" ></text>
</g>
<g >
<title>KSPSolve (33,542,649 us, 13.09%)</title><rect x="547.6" y="215" width="154.4" height="15.0" fill="rgb(0,0,0)" rx="2" ry="2" />
<text  x="550.58" y="225.5" >KSPSolve</text>
</g>
<g >
<title>PCSetUpOnBlocks (4,187,506 us, 1.63%)</title><rect x="240.2" y="119" width="19.3" height="15.0" fill="rgb(0,0,0)" rx="2" ry="2" />
<text  x="243.22" y="129.5" ></text>
</g>
<g >
<title>firedrake.variational_solver.NonlinearVariationalSolver.solve (161,836,724 us, 63.14%)</title><rect x="444.9" y="71" width="745.1" height="15.0" fill="rgb(0,0,0)" rx="2" ry="2" />
<text  x="447.90" y="81.5" >firedrake.variational_solver.NonlinearVariationalSolver.solve</text>
</g>
<g >
<title>Parloop_set_#x7f92315d90f0_wrap_expression_kernel (419,537 us, 0.16%)</title><rect x="27.7" y="135" width="1.9" height="15.0" fill="rgb(0,0,0)" rx="2" ry="2" />
<text  x="30.67" y="145.5" ></text>
</g>
<g >
<title>firedrake.assemble.assemble (12,086,867 us, 4.72%)</title><rect x="261.5" y="103" width="55.7" height="15.0" fill="rgb(0,0,0)" rx="2" ry="2" />
<text  x="264.53" y="113.5" >fired..</text>
</g>
<g >
<title>pyop2.global_kernel.GlobalKernel.compile (7,486,432 us, 2.92%)</title><rect x="1108.5" y="151" width="34.4" height="15.0" fill="rgb(0,0,0)" rx="2" ry="2" />
<text  x="1111.46" y="161.5" >py..</text>
</g>
<g >
<title>PCSetUp (7,252,085 us, 2.83%)</title><rect x="946.1" y="103" width="33.3" height="15.0" fill="rgb(0,0,0)" rx="2" ry="2" />
<text  x="949.06" y="113.5" >PC..</text>
</g>
<g >
<title>MatLUFactorNum (2,862,433 us, 1.12%)</title><rect x="534.2" y="183" width="13.1" height="15.0" fill="rgb(0,0,0)" rx="2" ry="2" />
<text  x="537.15" y="193.5" ></text>
</g>
<g >
<title>MatICCFactorSym (92,953 us, 0.04%)</title><rect x="259.1" y="151" width="0.4" height="15.0" fill="rgb(0,0,0)" rx="2" ry="2" />
<text  x="262.07" y="161.5" ></text>
</g>
<g >
<title>pyop2.global_kernel.GlobalKernel.compile (19,033,093 us, 7.43%)</title><rect x="66.1" y="151" width="87.7" height="15.0" fill="rgb(0,0,0)" rx="2" ry="2" />
<text  x="69.15" y="161.5" >pyop2.glo..</text>
</g>
<g >
<title>PCApply (3,338,141 us, 1.30%)</title><rect x="486.0" y="199" width="15.4" height="15.0" fill="rgb(0,0,0)" rx="2" ry="2" />
<text  x="488.98" y="209.5" ></text>
</g>
<g >
<title>Parloop_set_#x7f923158f3a0_wrap_expression_kernel (422,846 us, 0.16%)</title><rect x="25.7" y="135" width="2.0" height="15.0" fill="rgb(0,0,0)" rx="2" ry="2" />
<text  x="28.73" y="145.5" ></text>
</g>
<g >
<title>MatScale (66,006 us, 0.03%)</title><rect x="979.0" y="119" width="0.3" height="15.0" fill="rgb(0,0,0)" rx="2" ry="2" />
<text  x="981.98" y="129.5" ></text>
</g>
<g >
<title>Log_Event_form0_cell_integral_otherwise (31,811 us, 0.01%)</title><rect x="29.6" y="135" width="0.2" height="15.0" fill="rgb(0,0,0)" rx="2" ry="2" />
<text  x="32.60" y="145.5" ></text>
</g>
<g >
<title>firedrake.solving_utils._SNESContext.split (34,482 us, 0.01%)</title><rect x="979.3" y="135" width="0.1" height="15.0" fill="rgb(0,0,0)" rx="2" ry="2" />
<text  x="982.29" y="145.5" ></text>
</g>
<g >
<title>GAMG: partLevel (417,946 us, 0.16%)</title><rect x="918.5" y="167" width="1.9" height="15.0" fill="rgb(0,0,0)" rx="2" ry="2" />
<text  x="921.51" y="177.5" ></text>
</g>
<g >
<title>VecScatterBegin (39,950 us, 0.02%)</title><rect x="945.9" y="135" width="0.2" height="15.0" fill="rgb(0,0,0)" rx="2" ry="2" />
<text  x="948.87" y="145.5" ></text>
</g>
<g >
<title>KSPSolve (1,238,077 us, 0.48%)</title><rect x="926.1" y="247" width="5.7" height="15.0" fill="rgb(0,0,0)" rx="2" ry="2" />
<text  x="929.12" y="257.5" ></text>
</g>
<g >
<title>pyop2.global_kernel.GlobalKernel.compile (15,103,282 us, 5.89%)</title><rect x="1034.2" y="151" width="69.6" height="15.0" fill="rgb(0,0,0)" rx="2" ry="2" />
<text  x="1037.23" y="161.5" >pyop2.g..</text>
</g>
<g >
<title>MatAssemblyEnd (92,332 us, 0.04%)</title><rect x="214.0" y="135" width="0.4" height="15.0" fill="rgb(0,0,0)" rx="2" ry="2" />
<text  x="216.96" y="145.5" ></text>
</g>
<g >
<title>MatSolve (1,238,077 us, 0.48%)</title><rect x="926.1" y="279" width="5.7" height="15.0" fill="rgb(0,0,0)" rx="2" ry="2" />
<text  x="929.12" y="289.5" ></text>
</g>
<g >
<title>KSPSolve (6,713,079 us, 2.62%)</title><rect x="470.4" y="151" width="31.0" height="15.0" fill="rgb(0,0,0)" rx="2" ry="2" />
<text  x="473.44" y="161.5" >KS..</text>
</g>
<g >
<title>PCSetUp (24,521,493 us, 9.57%)</title><rect x="824.9" y="151" width="112.9" height="15.0" fill="rgb(0,0,0)" rx="2" ry="2" />
<text  x="827.88" y="161.5" >PCSetUp</text>
</g>
<g >
<title>MatMult (3,331,247 us, 1.30%)</title><rect x="501.6" y="167" width="15.3" height="15.0" fill="rgb(0,0,0)" rx="2" ry="2" />
<text  x="504.59" y="177.5" ></text>
</g>
<g >
<title>firedrake (256,297,601 us, 100.00%)</title><rect x="10.0" y="55" width="1180.0" height="15.0" fill="rgb(0,0,0)" rx="2" ry="2" />
<text  x="13.00" y="65.5" >firedrake</text>
</g>
<g >
<title>VecAYPX (61,303 us, 0.02%)</title><rect x="701.3" y="231" width="0.2" height="15.0" fill="rgb(0,0,0)" rx="2" ry="2" />
<text  x="704.25" y="241.5" ></text>
</g>
<g >
<title>  SA: smooth (306,538 us, 0.12%)</title><rect x="914.3" y="199" width="1.4" height="15.0" fill="rgb(0,0,0)" rx="2" ry="2" />
<text  x="917.32" y="209.5" ></text>
</g>
<g >
<title>MatConvert (198,840 us, 0.08%)</title><rect x="912.9" y="215" width="1.0" height="15.0" fill="rgb(0,0,0)" rx="2" ry="2" />
<text  x="915.94" y="225.5" ></text>
</g>
<g >
<title>  MIS/Agg (65,512 us, 0.03%)</title><rect x="825.2" y="199" width="0.3" height="15.0" fill="rgb(0,0,0)" rx="2" ry="2" />
<text  x="828.21" y="209.5" ></text>
</g>
<g >
<title>MatSOR (7,927,101 us, 3.09%)</title><rect x="748.3" y="247" width="36.5" height="15.0" fill="rgb(0,0,0)" rx="2" ry="2" />
<text  x="751.29" y="257.5" >Ma..</text>
</g>
<g >
<title>KSPSolve (2,471,805 us, 0.96%)</title><rect x="920.4" y="215" width="11.4" height="15.0" fill="rgb(0,0,0)" rx="2" ry="2" />
<text  x="923.44" y="225.5" ></text>
</g>
<g >
<title>SNESJacobianEval (36,362,995 us, 14.19%)</title><rect x="1022.6" y="103" width="167.4" height="15.0" fill="rgb(0,0,0)" rx="2" ry="2" />
<text  x="1025.58" y="113.5" >SNESJacobianEval</text>
</g>
<g >
<title>firedrake.projection.project (50,373,880 us, 19.65%)</title><rect x="29.6" y="87" width="231.9" height="15.0" fill="rgb(0,0,0)" rx="2" ry="2" />
<text  x="32.60" y="97.5" >firedrake.projection.project</text>
</g>
<g >
<title>MatMultAdd (1,243,288 us, 0.49%)</title><rect x="742.4" y="215" width="5.8" height="15.0" fill="rgb(0,0,0)" rx="2" ry="2" />
<text  x="745.43" y="225.5" ></text>
</g>
<g >
<title>MatMult (43,564,997 us, 17.00%)</title><rect x="547.6" y="199" width="200.6" height="15.0" fill="rgb(0,0,0)" rx="2" ry="2" />
<text  x="550.58" y="209.5" >MatMult</text>
</g>
<g >
<title>CreateSparsity (13,071,732 us, 5.10%)</title><rect x="153.8" y="135" width="60.2" height="15.0" fill="rgb(0,0,0)" rx="2" ry="2" />
<text  x="156.77" y="145.5" >Creat..</text>
</g>
<g >
<title>KSPSolve (3,337,070 us, 1.30%)</title><rect x="516.9" y="183" width="15.4" height="15.0" fill="rgb(0,0,0)" rx="2" ry="2" />
<text  x="519.93" y="193.5" ></text>
</g>
<g >
<title>MatSOR (550,167 us, 0.21%)</title><rect x="935.2" y="247" width="2.6" height="15.0" fill="rgb(0,0,0)" rx="2" ry="2" />
<text  x="938.24" y="257.5" ></text>
</g>
<g >
<title>VecMDot (116,863 us, 0.05%)</title><rect x="445.6" y="135" width="0.6" height="15.0" fill="rgb(0,0,0)" rx="2" ry="2" />
<text  x="448.65" y="145.5" ></text>
</g>
<g >
<title>PCGAMG Opt l00 (274,363 us, 0.11%)</title><rect x="914.5" y="215" width="1.2" height="15.0" fill="rgb(0,0,0)" rx="2" ry="2" />
<text  x="917.47" y="225.5" ></text>
</g>
<g >
<title>MatZeroEntries (206,937 us, 0.08%)</title><rect x="1022.6" y="119" width="0.9" height="15.0" fill="rgb(0,0,0)" rx="2" ry="2" />
<text  x="1025.58" y="129.5" ></text>
</g>
<g >
<title>MatSolve (543,445 us, 0.21%)</title><rect x="237.7" y="183" width="2.5" height="15.0" fill="rgb(0,0,0)" rx="2" ry="2" />
<text  x="240.72" y="193.5" ></text>
</g>
<g >
<title>ParLoopExecute (909,885 us, 0.36%)</title><rect x="14.4" y="103" width="4.2" height="15.0" fill="rgb(0,0,0)" rx="2" ry="2" />
<text  x="17.39" y="113.5" ></text>
</g>
<g >
<title>MatMult (8,779,060 us, 3.43%)</title><rect x="702.0" y="215" width="40.4" height="15.0" fill="rgb(0,0,0)" rx="2" ry="2" />
<text  x="705.01" y="225.5" >Mat..</text>
</g>
<g >
<title>MatMultAdd (92,977 us, 0.04%)</title><rect x="934.8" y="215" width="0.4" height="15.0" fill="rgb(0,0,0)" rx="2" ry="2" />
<text  x="937.81" y="225.5" ></text>
</g>
<g >
<title>Parloop_Cells_wrap_form00_cell_integral_otherwise (17,426,301 us, 6.80%)</title><rect x="1023.5" y="135" width="80.3" height="15.0" fill="rgb(0,0,0)" rx="2" ry="2" />
<text  x="1026.54" y="145.5" >Parloop_..</text>
</g>
<g >
<title>MatMult (650,448 us, 0.25%)</title><rect x="931.8" y="215" width="3.0" height="15.0" fill="rgb(0,0,0)" rx="2" ry="2" />
<text  x="934.82" y="225.5" ></text>
</g>
<g >
<title>  Graph (3,394,079 us, 1.32%)</title><rect x="898.7" y="199" width="15.6" height="15.0" fill="rgb(0,0,0)" rx="2" ry="2" />
<text  x="901.69" y="209.5" ></text>
</g>
<g >
<title>ParLoopExecute (10,925,044 us, 4.26%)</title><rect x="261.5" y="119" width="50.3" height="15.0" fill="rgb(0,0,0)" rx="2" ry="2" />
<text  x="264.53" y="129.5" >ParL..</text>
</g>
<g >
<title>ParLoopExecute (5,385,289 us, 2.10%)</title><rect x="29.6" y="103" width="24.8" height="15.0" fill="rgb(0,0,0)" rx="2" ry="2" />
<text  x="32.60" y="113.5" >P..</text>
</g>
<g >
<title>firedrake.linear_solver.LinearSolver.solve (5,119,636 us, 2.00%)</title><rect x="235.9" y="103" width="23.6" height="15.0" fill="rgb(0,0,0)" rx="2" ry="2" />
<text  x="238.93" y="113.5" >f..</text>
</g>
<g >
<title>Log_Event_form_cell_integral_otherwise (35,153 us, 0.01%)</title><rect x="261.5" y="151" width="0.2" height="15.0" fill="rgb(0,0,0)" rx="2" ry="2" />
<text  x="264.53" y="161.5" ></text>
</g>
<g >
<title>MatAssemblyEnd (39,564 us, 0.02%)</title><rect x="898.5" y="231" width="0.2" height="15.0" fill="rgb(0,0,0)" rx="2" ry="2" />
<text  x="901.51" y="241.5" ></text>
</g>
<g >
<title>PCGAMGPOpt_AGG (911,423 us, 0.36%)</title><rect x="914.3" y="183" width="4.2" height="15.0" fill="rgb(0,0,0)" rx="2" ry="2" />
<text  x="917.32" y="193.5" ></text>
</g>
<g >
<title>Log_Event_form01_cell_integral_otherwise (325,776 us, 0.13%)</title><rect x="1107.0" y="151" width="1.5" height="15.0" fill="rgb(0,0,0)" rx="2" ry="2" />
<text  x="1109.96" y="161.5" ></text>
</g>
<g >
<title>MatPtAPSymbolic (105,175 us, 0.04%)</title><rect x="920.0" y="199" width="0.4" height="15.0" fill="rgb(0,0,0)" rx="2" ry="2" />
<text  x="922.95" y="209.5" ></text>
</g>
<g >
<title>MatMult (3,325,412 us, 1.30%)</title><rect x="785.0" y="231" width="15.3" height="15.0" fill="rgb(0,0,0)" rx="2" ry="2" />
<text  x="788.01" y="241.5" ></text>
</g>
<g >
<title>pyop2.global_kernel.GlobalKernel.compile (5,353,478 us, 2.09%)</title><rect x="29.8" y="135" width="24.6" height="15.0" fill="rgb(0,0,0)" rx="2" ry="2" />
<text  x="32.75" y="145.5" >p..</text>
</g>
<g >
<title>KSPSolve (16,665,226 us, 6.50%)</title><rect x="624.5" y="247" width="76.8" height="15.0" fill="rgb(0,0,0)" rx="2" ry="2" />
<text  x="627.53" y="257.5" >KSPSolve</text>
</g>
<g >
<title>ParLoopExecute (842,383 us, 0.33%)</title><rect x="25.7" y="119" width="3.9" height="15.0" fill="rgb(0,0,0)" rx="2" ry="2" />
<text  x="28.73" y="129.5" ></text>
</g>
<g >
<title>VecNorm (44,625 us, 0.02%)</title><rect x="701.5" y="231" width="0.2" height="15.0" fill="rgb(0,0,0)" rx="2" ry="2" />
<text  x="704.53" y="241.5" ></text>
</g>
<g >
<title>KSPSolve_FS_Schu (84,804,095 us, 33.09%)</title><rect x="547.3" y="135" width="390.5" height="15.0" fill="rgb(0,0,0)" rx="2" ry="2" />
<text  x="550.33" y="145.5" >KSPSolve_FS_Schu</text>
</g>
<g >
<title>firedrake.assemble.assemble (842,383 us, 0.33%)</title><rect x="25.7" y="71" width="3.9" height="15.0" fill="rgb(0,0,0)" rx="2" ry="2" />
<text  x="28.73" y="81.5" ></text>
</g>
<g >
<title>MatCholFctrNum (4,094,553 us, 1.60%)</title><rect x="240.2" y="151" width="18.9" height="15.0" fill="rgb(0,0,0)" rx="2" ry="2" />
<text  x="243.22" y="161.5" ></text>
</g>
<g >
<title>MatMatMultSym (2,302,069 us, 0.90%)</title><rect x="968.4" y="119" width="10.6" height="15.0" fill="rgb(0,0,0)" rx="2" ry="2" />
<text  x="971.39" y="129.5" ></text>
</g>
<g >
<title>Parloop_Cells_wrap_form10_cell_integral_otherwise (8,532,248 us, 3.33%)</title><rect x="1142.9" y="135" width="39.3" height="15.0" fill="rgb(0,0,0)" rx="2" ry="2" />
<text  x="1145.93" y="145.5" >Par..</text>
</g>
<g >
<title>MatTrnMatMultSym (15,893,601 us, 6.20%)</title><rect x="825.5" y="215" width="73.2" height="15.0" fill="rgb(0,0,0)" rx="2" ry="2" />
<text  x="828.52" y="225.5" >MatTrnM..</text>
</g>
<g >
<title>MatAssemblyEnd (39,447 us, 0.02%)</title><rect x="912.8" y="215" width="0.1" height="15.0" fill="rgb(0,0,0)" rx="2" ry="2" />
<text  x="915.76" y="225.5" ></text>
</g>
<g >
<title>GAMG: createProl (20,338,150 us, 7.94%)</title><rect x="824.9" y="167" width="93.6" height="15.0" fill="rgb(0,0,0)" rx="2" ry="2" />
<text  x="827.88" y="177.5" >GAMG: crea..</text>
</g>
<g >
<title>MatConvert (117,863 us, 0.05%)</title><rect x="951.3" y="119" width="0.5" height="15.0" fill="rgb(0,0,0)" rx="2" ry="2" />
<text  x="954.29" y="129.5" ></text>
</g>
<g >
<title>MatMult (3,215,230 us, 1.25%)</title><rect x="920.4" y="199" width="14.8" height="15.0" fill="rgb(0,0,0)" rx="2" ry="2" />
<text  x="923.44" y="209.5" ></text>
</g>
<g >
<title>MatAssemblyEnd (135,571 us, 0.05%)</title><rect x="416.2" y="103" width="0.6" height="15.0" fill="rgb(0,0,0)" rx="2" ry="2" />
<text  x="419.22" y="113.5" ></text>
</g>
<g >
<title>firedrake.assemble.allocate_matrix (27,742,012 us, 10.82%)</title><rect x="317.2" y="87" width="127.7" height="15.0" fill="rgb(0,0,0)" rx="2" ry="2" />
<text  x="320.18" y="97.5" >firedrake.asse..</text>
</g>
<g >
<title>firedrake.tsfc_interface.compile_form (1,161,823 us, 0.45%)</title><rect x="311.8" y="119" width="5.4" height="15.0" fill="rgb(0,0,0)" rx="2" ry="2" />
<text  x="314.83" y="129.5" ></text>
</g>
<g >
<title>MatCreateSubMats (1,665,228 us, 0.65%)</title><rect x="951.8" y="119" width="7.7" height="15.0" fill="rgb(0,0,0)" rx="2" ry="2" />
<text  x="954.83" y="129.5" ></text>
</g>
<g >
<title>KSPSolve (3,329,838 us, 1.30%)</title><rect x="800.3" y="247" width="15.4" height="15.0" fill="rgb(0,0,0)" rx="2" ry="2" />
<text  x="803.32" y="257.5" ></text>
</g>
<g >
<title>firedrake.tsfc_interface.compile_form (440,878 us, 0.17%)</title><rect x="259.5" y="103" width="2.0" height="15.0" fill="rgb(0,0,0)" rx="2" ry="2" />
<text  x="262.50" y="113.5" ></text>
</g>
<g >
<title>firedrake.extrusion_utils.make_extruded_coords (941,594 us, 0.37%)</title><rect x="14.2" y="87" width="4.4" height="15.0" fill="rgb(0,0,0)" rx="2" ry="2" />
<text  x="17.24" y="97.5" ></text>
</g>
<g >
<title>firedrake.assemble_expressions.evaluate_expression (842,383 us, 0.33%)</title><rect x="25.7" y="103" width="3.9" height="15.0" fill="rgb(0,0,0)" rx="2" ry="2" />
<text  x="28.73" y="113.5" ></text>
</g>
<g >
<title>PCSetUpOnBlocks (3,266,485 us, 1.27%)</title><rect x="532.3" y="151" width="15.0" height="15.0" fill="rgb(0,0,0)" rx="2" ry="2" />
<text  x="535.29" y="161.5" ></text>
</g>
<g >
<title>MatMult (3,333,843 us, 1.30%)</title><rect x="470.6" y="167" width="15.4" height="15.0" fill="rgb(0,0,0)" rx="2" ry="2" />
<text  x="473.63" y="177.5" ></text>
</g>
<g >
<title>Parloop_Cells_wrap_form0_cell_integral_otherwise (5,385,289 us, 2.10%)</title><rect x="29.6" y="119" width="24.8" height="15.0" fill="rgb(0,0,0)" rx="2" ry="2" />
<text  x="32.60" y="129.5" >P..</text>
</g>
<g >
<title>PCApply (3,337,070 us, 1.30%)</title><rect x="516.9" y="167" width="15.4" height="15.0" fill="rgb(0,0,0)" rx="2" ry="2" />
<text  x="519.93" y="177.5" ></text>
</g>
<g >
<title>KSPSolve (550,167 us, 0.21%)</title><rect x="935.2" y="215" width="2.6" height="15.0" fill="rgb(0,0,0)" rx="2" ry="2" />
<text  x="938.24" y="225.5" ></text>
</g>
<g >
<title>KSPGMRESOrthog (216,823 us, 0.08%)</title><rect x="445.2" y="119" width="1.0" height="15.0" fill="rgb(0,0,0)" rx="2" ry="2" />
<text  x="448.19" y="129.5" ></text>
</g>
<g >
<title>MatMult (576,378 us, 0.22%)</title><rect x="915.7" y="215" width="2.7" height="15.0" fill="rgb(0,0,0)" rx="2" ry="2" />
<text  x="918.73" y="225.5" ></text>
</g>
<g >
<title>firedrake.assemble.assemble (39,428,077 us, 15.38%)</title><rect x="54.4" y="103" width="181.5" height="15.0" fill="rgb(0,0,0)" rx="2" ry="2" />
<text  x="57.40" y="113.5" >firedrake.assemble.as..</text>
</g>
<g >
<title>MatMult (5,268,722 us, 2.06%)</title><rect x="446.2" y="119" width="24.2" height="15.0" fill="rgb(0,0,0)" rx="2" ry="2" />
<text  x="449.19" y="129.5" >M..</text>
</g>
<g >
<title>CreateSparsity (21,513,467 us, 8.39%)</title><rect x="317.2" y="103" width="99.0" height="15.0" fill="rgb(0,0,0)" rx="2" ry="2" />
<text  x="320.18" y="113.5" >CreateSpar..</text>
</g>
<g >
<title>MatMatMultNum (1,930,814 us, 0.75%)</title><rect x="959.5" y="119" width="8.9" height="15.0" fill="rgb(0,0,0)" rx="2" ry="2" />
<text  x="962.50" y="129.5" ></text>
</g>
<g >
<title>PCSetUp (3,266,485 us, 1.27%)</title><rect x="532.3" y="167" width="15.0" height="15.0" fill="rgb(0,0,0)" rx="2" ry="2" />
<text  x="535.29" y="177.5" ></text>
</g>
<g >
<title>PCApply (3,337,070 us, 1.30%)</title><rect x="516.9" y="199" width="15.4" height="15.0" fill="rgb(0,0,0)" rx="2" ry="2" />
<text  x="519.93" y="209.5" ></text>
</g>
<g >
<title>KSPSolve (932,130 us, 0.36%)</title><rect x="235.9" y="119" width="4.3" height="15.0" fill="rgb(0,0,0)" rx="2" ry="2" />
<text  x="238.93" y="129.5" ></text>
</g>
<g >
<title>MatCoarsen (65,512 us, 0.03%)</title><rect x="825.2" y="215" width="0.3" height="15.0" fill="rgb(0,0,0)" rx="2" ry="2" />
<text  x="828.21" y="225.5" ></text>
</g>
<g >
<title>MatAssemblyEnd (39,438 us, 0.02%)</title><rect x="968.2" y="135" width="0.2" height="15.0" fill="rgb(0,0,0)" rx="2" ry="2" />
<text  x="971.20" y="145.5" ></text>
</g>
<g >
<title>KSPSolve_FS_0 (6,713,079 us, 2.62%)</title><rect x="470.4" y="135" width="31.0" height="15.0" fill="rgb(0,0,0)" rx="2" ry="2" />
<text  x="473.44" y="145.5" >KS..</text>
</g>
<g >
<title>KSPSolve (60,282,602 us, 23.52%)</title><rect x="547.3" y="151" width="277.6" height="15.0" fill="rgb(0,0,0)" rx="2" ry="2" />
<text  x="550.33" y="161.5" >KSPSolve</text>
</g>
<g >
<title>Parloop_Cells_wrap_form00_cell_integral_otherwise (21,584,596 us, 8.42%)</title><rect x="54.4" y="135" width="99.4" height="15.0" fill="rgb(0,0,0)" rx="2" ry="2" />
<text  x="57.40" y="145.5" >Parloop_Ce..</text>
</g>
<g >
<title>KSPSolve (604,885 us, 0.24%)</title><rect x="915.7" y="199" width="2.8" height="15.0" fill="rgb(0,0,0)" rx="2" ry="2" />
<text  x="918.73" y="209.5" ></text>
</g>
<g >
<title>pyop2.global_kernel.GlobalKernel.compile (909,885 us, 0.36%)</title><rect x="14.4" y="135" width="4.2" height="15.0" fill="rgb(0,0,0)" rx="2" ry="2" />
<text  x="17.39" y="145.5" ></text>
</g>
<g >
<title>MatAssemblyEnd (40,937 us, 0.02%)</title><rect x="951.1" y="135" width="0.2" height="15.0" fill="rgb(0,0,0)" rx="2" ry="2" />
<text  x="954.10" y="145.5" ></text>
</g>
<g >
<title>pyop2.global_kernel.GlobalKernel.compile (10,889,891 us, 4.25%)</title><rect x="261.7" y="151" width="50.1" height="15.0" fill="rgb(0,0,0)" rx="2" ry="2" />
<text  x="264.69" y="161.5" >pyop..</text>
</g>
<g >
<title>Parloop_Cells_wrap_form0_cell_integral_otherwise (4,398,771 us, 1.72%)</title><rect x="979.4" y="135" width="20.3" height="15.0" fill="rgb(0,0,0)" rx="2" ry="2" />
<text  x="982.45" y="145.5" ></text>
</g>
<g >
<title>MatZeroInitial (4,085,022 us, 1.59%)</title><rect x="214.4" y="135" width="18.8" height="15.0" fill="rgb(0,0,0)" rx="2" ry="2" />
<text  x="217.38" y="145.5" ></text>
</g>
<g >
<title>Log_Event_form0_cell_integral_otherwise (127,321 us, 0.05%)</title><rect x="979.4" y="151" width="0.6" height="15.0" fill="rgb(0,0,0)" rx="2" ry="2" />
<text  x="982.45" y="161.5" ></text>
</g>
<g >
<title>MatScale (99,248 us, 0.04%)</title><rect x="913.9" y="215" width="0.4" height="15.0" fill="rgb(0,0,0)" rx="2" ry="2" />
<text  x="916.86" y="225.5" ></text>
</g>
<g >
<title>SNESFunctionEval (9,369,339 us, 3.66%)</title><rect x="979.4" y="103" width="43.2" height="15.0" fill="rgb(0,0,0)" rx="2" ry="2" />
<text  x="982.45" y="113.5" >SNE..</text>
</g>
<g >
<title>MatMatMultSym (125,513 us, 0.05%)</title><rect x="915.2" y="231" width="0.5" height="15.0" fill="rgb(0,0,0)" rx="2" ry="2" />
<text  x="918.15" y="241.5" ></text>
</g>
<g >
<title>MatMult (1,233,728 us, 0.48%)</title><rect x="920.4" y="231" width="5.7" height="15.0" fill="rgb(0,0,0)" rx="2" ry="2" />
<text  x="923.44" y="241.5" ></text>
</g>
<g >
<title>pyop2.global_kernel.GlobalKernel.compile (4,271,450 us, 1.67%)</title><rect x="980.0" y="151" width="19.7" height="15.0" fill="rgb(0,0,0)" rx="2" ry="2" />
<text  x="983.03" y="161.5" ></text>
</g>
<g >
<title>MatMultAdd (248,453 us, 0.10%)</title><rect x="823.7" y="215" width="1.2" height="15.0" fill="rgb(0,0,0)" rx="2" ry="2" />
<text  x="826.73" y="225.5" ></text>
</g>
<g >
<title>Log_Event_form00_cell_integral_otherwise (556,126 us, 0.22%)</title><rect x="1031.7" y="151" width="2.5" height="15.0" fill="rgb(0,0,0)" rx="2" ry="2" />
<text  x="1034.67" y="161.5" ></text>
</g>
<g >
<title>firedrake.variational_solver.NonlinearVariationalSolver.__init__ (27,742,012 us, 10.82%)</title><rect x="317.2" y="71" width="127.7" height="15.0" fill="rgb(0,0,0)" rx="2" ry="2" />
<text  x="320.18" y="81.5" >firedrake.vari..</text>
</g>
<g >
<title>PCApply (60,282,602 us, 23.52%)</title><rect x="547.3" y="167" width="277.6" height="15.0" fill="rgb(0,0,0)" rx="2" ry="2" />
<text  x="550.33" y="177.5" >PCApply</text>
</g>
<g >
<title>KSPSolve (7,955,832 us, 3.10%)</title><rect x="748.2" y="215" width="36.6" height="15.0" fill="rgb(0,0,0)" rx="2" ry="2" />
<text  x="751.16" y="225.5" >KS..</text>
</g>
<g >
<title>PCApply (1,238,077 us, 0.48%)</title><rect x="926.1" y="231" width="5.7" height="15.0" fill="rgb(0,0,0)" rx="2" ry="2" />
<text  x="929.12" y="241.5" ></text>
</g>
<g >
<title>MatMult (1,759,577 us, 0.69%)</title><rect x="937.8" y="135" width="8.1" height="15.0" fill="rgb(0,0,0)" rx="2" ry="2" />
<text  x="940.77" y="145.5" ></text>
</g>
<g >
<title>firedrake.assemble.allocate_matrix (17,249,086 us, 6.73%)</title><rect x="153.8" y="119" width="79.4" height="15.0" fill="rgb(0,0,0)" rx="2" ry="2" />
<text  x="156.77" y="129.5" >firedrak..</text>
</g>
<g >
<title>PCApply (1,238,077 us, 0.48%)</title><rect x="926.1" y="263" width="5.7" height="15.0" fill="rgb(0,0,0)" rx="2" ry="2" />
<text  x="929.12" y="273.5" ></text>
</g>
<g >
<title>MatSolve (3,337,070 us, 1.30%)</title><rect x="516.9" y="215" width="15.4" height="15.0" fill="rgb(0,0,0)" rx="2" ry="2" />
<text  x="519.93" y="225.5" ></text>
</g>
<g >
<title>MatMult (8,707,790 us, 3.40%)</title><rect x="784.8" y="199" width="40.1" height="15.0" fill="rgb(0,0,0)" rx="2" ry="2" />
<text  x="787.79" y="209.5" >Mat..</text>
</g>
<g >
<title>PCApply (3,338,141 us, 1.30%)</title><rect x="486.0" y="167" width="15.4" height="15.0" fill="rgb(0,0,0)" rx="2" ry="2" />
<text  x="488.98" y="177.5" ></text>
</g>
<g >
<title>PCApply (7,927,101 us, 3.09%)</title><rect x="748.3" y="231" width="36.5" height="15.0" fill="rgb(0,0,0)" rx="2" ry="2" />
<text  x="751.29" y="241.5" >PC..</text>
</g>
<g >
<title>VecMAXPY (99,960 us, 0.04%)</title><rect x="445.2" y="135" width="0.4" height="15.0" fill="rgb(0,0,0)" rx="2" ry="2" />
<text  x="448.19" y="145.5" ></text>
</g>
<g >
<title>PCApply (3,329,838 us, 1.30%)</title><rect x="800.3" y="231" width="15.4" height="15.0" fill="rgb(0,0,0)" rx="2" ry="2" />
<text  x="803.32" y="241.5" ></text>
</g>
<g >
<title>firedrake.__init__ (1,526,367 us, 0.60%)</title><rect x="18.7" y="71" width="7.0" height="15.0" fill="rgb(0,0,0)" rx="2" ry="2" />
<text  x="21.70" y="81.5" ></text>
</g>
<g >
<title>PCApply (550,167 us, 0.21%)</title><rect x="935.2" y="231" width="2.6" height="15.0" fill="rgb(0,0,0)" rx="2" ry="2" />
<text  x="938.24" y="241.5" ></text>
</g>
<g >
<title>CreateFunctionSpace (26,511 us, 0.01%)</title><rect x="18.6" y="71" width="0.1" height="15.0" fill="rgb(0,0,0)" rx="2" ry="2" />
<text  x="21.58" y="81.5" ></text>
</g>
<g >
<title>PCApply (3,329,838 us, 1.30%)</title><rect x="800.3" y="263" width="15.4" height="15.0" fill="rgb(0,0,0)" rx="2" ry="2" />
<text  x="803.32" y="273.5" ></text>
</g>
<g >
<title>MatMult (1,754,468 us, 0.68%)</title><rect x="815.7" y="215" width="8.0" height="15.0" fill="rgb(0,0,0)" rx="2" ry="2" />
<text  x="818.65" y="225.5" ></text>
</g>
<g >
<title>KSPSolve (3,765,397 us, 1.47%)</title><rect x="920.4" y="183" width="17.4" height="15.0" fill="rgb(0,0,0)" rx="2" ry="2" />
<text  x="923.44" y="193.5" ></text>
</g>
<g >
<title>PCApply (543,445 us, 0.21%)</title><rect x="237.7" y="135" width="2.5" height="15.0" fill="rgb(0,0,0)" rx="2" ry="2" />
<text  x="240.72" y="145.5" ></text>
</g>
<g >
<title>KSPSolve (51,574,812 us, 20.12%)</title><rect x="547.3" y="183" width="237.5" height="15.0" fill="rgb(0,0,0)" rx="2" ry="2" />
<text  x="550.33" y="193.5" >KSPSolve</text>
</g>
<g >
<title>pyop2.global_kernel.GlobalKernel.compile (7,598,044 us, 2.96%)</title><rect x="1147.2" y="151" width="35.0" height="15.0" fill="rgb(0,0,0)" rx="2" ry="2" />
<text  x="1150.23" y="161.5" >py..</text>
</g>
<g >
<title>KSPSetUp (3,765,397 us, 1.47%)</title><rect x="920.4" y="167" width="17.4" height="15.0" fill="rgb(0,0,0)" rx="2" ry="2" />
<text  x="923.44" y="177.5" ></text>
</g>
<g >
<title>firedrake.tsfc_interface.compile_form (1,305,369 us, 0.51%)</title><rect x="1016.6" y="119" width="6.0" height="15.0" fill="rgb(0,0,0)" rx="2" ry="2" />
<text  x="1019.57" y="129.5" ></text>
</g>
<g >
<title>PCApply (543,445 us, 0.21%)</title><rect x="237.7" y="167" width="2.5" height="15.0" fill="rgb(0,0,0)" rx="2" ry="2" />
<text  x="240.72" y="177.5" ></text>
</g>
<g >
<title>PCGAMG Squ l00 (15,893,601 us, 6.20%)</title><rect x="825.5" y="199" width="73.2" height="15.0" fill="rgb(0,0,0)" rx="2" ry="2" />
<text  x="828.52" y="209.5" >PCGAMG ..</text>
</g>
<g >
<title>ParLoopExecute (34,463,881 us, 13.45%)</title><rect x="1023.5" y="119" width="158.7" height="15.0" fill="rgb(0,0,0)" rx="2" ry="2" />
<text  x="1026.54" y="129.5" >ParLoopExecute</text>
</g>
<g >
<title>firedrake.function.Function.project (50,373,880 us, 19.65%)</title><rect x="29.6" y="71" width="231.9" height="15.0" fill="rgb(0,0,0)" rx="2" ry="2" />
<text  x="32.60" y="81.5" >firedrake.function.Function...</text>
</g>
<g >
<title>SNESSolve (161,836,724 us, 63.14%)</title><rect x="444.9" y="87" width="745.1" height="15.0" fill="rgb(0,0,0)" rx="2" ry="2" />
<text  x="447.90" y="97.5" >SNESSolve</text>
</g>
<g >
<title>MatSolve (3,338,141 us, 1.30%)</title><rect x="486.0" y="215" width="15.4" height="15.0" fill="rgb(0,0,0)" rx="2" ry="2" />
<text  x="488.98" y="225.5" ></text>
</g>
<g >
<title>KSPSolve (108,852,305 us, 42.47%)</title><rect x="444.9" y="103" width="501.2" height="15.0" fill="rgb(0,0,0)" rx="2" ry="2" />
<text  x="447.90" y="113.5" >KSPSolve</text>
</g>
<g >
<title>firedrake.assemble_expressions.assemble_expression (842,383 us, 0.33%)</title><rect x="25.7" y="87" width="3.9" height="15.0" fill="rgb(0,0,0)" rx="2" ry="2" />
<text  x="28.73" y="97.5" ></text>
</g>
<g >
<title>MatZeroInitial (6,092,974 us, 2.38%)</title><rect x="416.8" y="103" width="28.1" height="15.0" fill="rgb(0,0,0)" rx="2" ry="2" />
<text  x="419.85" y="113.5" >M..</text>
</g>
<g >
<title>KSPSolve_FS_Low (9,987,554 us, 3.90%)</title><rect x="501.4" y="135" width="45.9" height="15.0" fill="rgb(0,0,0)" rx="2" ry="2" />
<text  x="504.35" y="145.5" >KSP..</text>
</g>
<g >
<title>ParLoopExecute (8,063,970 us, 3.15%)</title><rect x="979.4" y="119" width="37.2" height="15.0" fill="rgb(0,0,0)" rx="2" ry="2" />
<text  x="982.45" y="129.5" >Pa..</text>
</g>
<g >
<title>Log_Event_form1_cell_integral_otherwise (34,686 us, 0.01%)</title><rect x="999.7" y="151" width="0.2" height="15.0" fill="rgb(0,0,0)" rx="2" ry="2" />
<text  x="1002.70" y="161.5" ></text>
</g>
<g >
<title>PCApply (103,304,255 us, 40.31%)</title><rect x="470.4" y="119" width="475.7" height="15.0" fill="rgb(0,0,0)" rx="2" ry="2" />
<text  x="473.44" y="129.5" >PCApply</text>
</g>
<g >
<title>PCSetUp (4,187,506 us, 1.63%)</title><rect x="240.2" y="135" width="19.3" height="15.0" fill="rgb(0,0,0)" rx="2" ry="2" />
<text  x="243.22" y="145.5" ></text>
</g>
<g >
<title>pyop2.global_kernel.GlobalKernel.compile (3,630,513 us, 1.42%)</title><rect x="999.9" y="151" width="16.7" height="15.0" fill="rgb(0,0,0)" rx="2" ry="2" />
<text  x="1002.86" y="161.5" ></text>
</g>
<g >
<title>firedrake.norms.norm (12,086,867 us, 4.72%)</title><rect x="261.5" y="87" width="55.7" height="15.0" fill="rgb(0,0,0)" rx="2" ry="2" />
<text  x="264.53" y="97.5" >fired..</text>
</g>
<g >
<title>firedrake.dmhooks.create_field_decomposition (34,482 us, 0.01%)</title><rect x="979.3" y="119" width="0.1" height="15.0" fill="rgb(0,0,0)" rx="2" ry="2" />
<text  x="982.29" y="129.5" ></text>
</g>
<g >
<title>VecSet (59,289 us, 0.02%)</title><rect x="701.7" y="231" width="0.3" height="15.0" fill="rgb(0,0,0)" rx="2" ry="2" />
<text  x="704.74" y="241.5" ></text>
</g>
<g >
<title>firedrake.norms.errornorm (12,086,867 us, 4.72%)</title><rect x="261.5" y="71" width="55.7" height="15.0" fill="rgb(0,0,0)" rx="2" ry="2" />
<text  x="264.53" y="81.5" >fired..</text>
</g>
<g >
<title>KSPSolve (6,704,869 us, 2.62%)</title><rect x="784.8" y="215" width="30.9" height="15.0" fill="rgb(0,0,0)" rx="2" ry="2" />
<text  x="787.79" y="225.5" >KS..</text>
</g>
<g >
<title>PCGAMG Gal l00 (417,946 us, 0.16%)</title><rect x="918.5" y="183" width="1.9" height="15.0" fill="rgb(0,0,0)" rx="2" ry="2" />
<text  x="921.51" y="193.5" ></text>
</g>
<g >
<title>PCGAMGGraph_AGG (3,394,079 us, 1.32%)</title><rect x="898.7" y="183" width="15.6" height="15.0" fill="rgb(0,0,0)" rx="2" ry="2" />
<text  x="901.69" y="193.5" ></text>
</g>
<g >
<title>Parloop_Cells_wrap_pyop2_kernel_uniform_extrusion (909,885 us, 0.36%)</title><rect x="14.4" y="119" width="4.2" height="15.0" fill="rgb(0,0,0)" rx="2" ry="2" />
<text  x="17.39" y="129.5" ></text>
</g>
<g >
<title>CreateExtMesh (941,594 us, 0.37%)</title><rect x="14.2" y="71" width="4.4" height="15.0" fill="rgb(0,0,0)" rx="2" ry="2" />
<text  x="17.24" y="81.5" ></text>
</g>
<g >
<title>MatILUFactorSym (404,052 us, 0.16%)</title><rect x="532.3" y="183" width="1.9" height="15.0" fill="rgb(0,0,0)" rx="2" ry="2" />
<text  x="535.29" y="193.5" ></text>
</g>
<g >
<title>pyop2.global_kernel.GlobalKernel.compile (378,737 us, 0.15%)</title><rect x="25.9" y="151" width="1.8" height="15.0" fill="rgb(0,0,0)" rx="2" ry="2" />
<text  x="28.93" y="161.5" ></text>
</g>
<g >
<title>KSPSolve (6,721,069 us, 2.62%)</title><rect x="501.4" y="151" width="30.9" height="15.0" fill="rgb(0,0,0)" rx="2" ry="2" />
<text  x="504.35" y="161.5" >KS..</text>
</g>
<g >
<title>pyop2.global_kernel.GlobalKernel.compile (419,537 us, 0.16%)</title><rect x="27.7" y="151" width="1.9" height="15.0" fill="rgb(0,0,0)" rx="2" ry="2" />
<text  x="30.67" y="161.5" ></text>
</g>
<g >
<title>MatMatMultNum (148,850 us, 0.06%)</title><rect x="914.5" y="231" width="0.7" height="15.0" fill="rgb(0,0,0)" rx="2" ry="2" />
<text  x="917.47" y="241.5" ></text>
</g>
<g >
<title>Log_Event_form00_cell_integral_otherwise (791,277 us, 0.31%)</title><rect x="62.5" y="151" width="3.6" height="15.0" fill="rgb(0,0,0)" rx="2" ry="2" />
<text  x="65.50" y="161.5" ></text>
</g>
<g >
<title>KSPSolve (3,338,141 us, 1.30%)</title><rect x="486.0" y="183" width="15.4" height="15.0" fill="rgb(0,0,0)" rx="2" ry="2" />
<text  x="488.98" y="193.5" ></text>
</g>
<g >
<title>MatSolve (3,329,838 us, 1.30%)</title><rect x="800.3" y="279" width="15.4" height="15.0" fill="rgb(0,0,0)" rx="2" ry="2" />
<text  x="803.32" y="289.5" ></text>
</g>
<g >
<title>firedrake.tsfc_interface.compile_form (1,692,177 us, 0.66%)</title><rect x="1182.2" y="119" width="7.8" height="15.0" fill="rgb(0,0,0)" rx="2" ry="2" />
<text  x="1185.21" y="129.5" ></text>
</g>
<g >
<title>MatAssemblyEnd (144,106 us, 0.06%)</title><rect x="958.8" y="135" width="0.7" height="15.0" fill="rgb(0,0,0)" rx="2" ry="2" />
<text  x="961.83" y="145.5" ></text>
</g>
<g >
<title>all (256,297,601 us, 100%)</title><rect x="10.0" y="39" width="1180.0" height="15.0" fill="rgb(0,0,0)" rx="2" ry="2" />
<text  x="13.00" y="49.5" ></text>
</g>
<g >
<title>Parloop_Cells_wrap_form01_cell_integral_otherwise (8,505,332 us, 3.32%)</title><rect x="1103.8" y="135" width="39.1" height="15.0" fill="rgb(0,0,0)" rx="2" ry="2" />
<text  x="1106.77" y="145.5" >Par..</text>
</g>
<g >
<title>MatResidual (8,707,790 us, 3.40%)</title><rect x="784.8" y="183" width="40.1" height="15.0" fill="rgb(0,0,0)" rx="2" ry="2" />
<text  x="787.79" y="193.5" >Mat..</text>
</g>
</g>
</svg>
