<?xml version="1.0" standalone="no"?>
<!DOCTYPE svg PUBLIC "-//W3C//DTD SVG 1.1//EN" "http://www.w3.org/Graphics/SVG/1.1/DTD/svg11.dtd">
<svg version="1.1" width="1200" height="331" onload="init(evt)" viewBox="0 0 1200 331" xmlns="http://www.w3.org/2000/svg" xmlns:xlink="http://www.w3.org/1999/xlink">
<!-- Flame graph stack visualization. See https://github.com/brendangregg/FlameGraph for latest version, and http://www.brendangregg.com/flamegraphs.html for examples. -->
<!-- NOTES:  -->
<defs>
	<linearGradient id="background" y1="0" y2="1" x1="0" x2="0" >
		<stop stop-color="#eeeeee" offset="5%" />
		<stop stop-color="#eeeeb0" offset="95%" />
	</linearGradient>
</defs>
<style type="text/css">
	text { font-family:Verdana; font-size:13px; fill:rgb(0,0,0); }
	#search, #ignorecase { opacity:0.1; cursor:pointer; }
	#search:hover, #search.show, #ignorecase:hover, #ignorecase.show { opacity:1; }
	#subtitle { text-anchor:middle; font-color:rgb(160,160,160); }
	#title { text-anchor:middle; font-size:18px}
	#unzoom { cursor:pointer; }
	#frames > *:hover { stroke:black; stroke-width:0.5; cursor:pointer; }
	.hide { display:none; }
	.parent { opacity:0.5; }
</style>
<script type="text/ecmascript">
<![CDATA[
	"use strict";
	var details, searchbtn, unzoombtn, matchedtxt, svg, searching, currentSearchTerm, ignorecase, ignorecaseBtn;
	function init(evt) {
		details = document.getElementById("details").firstChild;
		searchbtn = document.getElementById("search");
		ignorecaseBtn = document.getElementById("ignorecase");
		unzoombtn = document.getElementById("unzoom");
		matchedtxt = document.getElementById("matched");
		svg = document.getElementsByTagName("svg")[0];
		searching = 0;
		currentSearchTerm = null;

		// use GET parameters to restore a flamegraphs state.
		var params = get_params();
		if (params.x && params.y)
			zoom(find_group(document.querySelector('[x="' + params.x + '"][y="' + params.y + '"]')));
                if (params.s) search(params.s);
	}

	// event listeners
	window.addEventListener("click", function(e) {
		var target = find_group(e.target);
		if (target) {
			if (target.nodeName == "a") {
				if (e.ctrlKey === false) return;
				e.preventDefault();
			}
			if (target.classList.contains("parent")) unzoom();
			zoom(target);
			if (!document.querySelector('.parent')) {
				clearzoom();
				return;
			}

			// set parameters for zoom state
			var el = target.querySelector("rect");
			if (el && el.attributes && el.attributes.y && el.attributes._orig_x) {
				var params = get_params()
				params.x = el.attributes._orig_x.value;
				params.y = el.attributes.y.value;
				history.replaceState(null, null, parse_params(params));
			}
		}
		else if (e.target.id == "unzoom") clearzoom();
		else if (e.target.id == "search") search_prompt();
		else if (e.target.id == "ignorecase") toggle_ignorecase();
	}, false)

	// mouse-over for info
	// show
	window.addEventListener("mouseover", function(e) {
		var target = find_group(e.target);
		if (target) details.nodeValue = "Function: " + g_to_text(target);
	}, false)

	// clear
	window.addEventListener("mouseout", function(e) {
		var target = find_group(e.target);
		if (target) details.nodeValue = ' ';
	}, false)

	// ctrl-F for search
	// ctrl-I to toggle case-sensitive search
	window.addEventListener("keydown",function (e) {
		if (e.keyCode === 114 || (e.ctrlKey && e.keyCode === 70)) {
			e.preventDefault();
			search_prompt();
		}
		else if (e.ctrlKey && e.keyCode === 73) {
			e.preventDefault();
			toggle_ignorecase();
		}
	}, false)

	// functions
	function get_params() {
		var params = {};
		var paramsarr = window.location.search.substr(1).split('&');
		for (var i = 0; i < paramsarr.length; ++i) {
			var tmp = paramsarr[i].split("=");
			if (!tmp[0] || !tmp[1]) continue;
			params[tmp[0]]  = decodeURIComponent(tmp[1]);
		}
		return params;
	}
	function parse_params(params) {
		var uri = "?";
		for (var key in params) {
			uri += key + '=' + encodeURIComponent(params[key]) + '&';
		}
		if (uri.slice(-1) == "&")
			uri = uri.substring(0, uri.length - 1);
		if (uri == '?')
			uri = window.location.href.split('?')[0];
		return uri;
	}
	function find_child(node, selector) {
		var children = node.querySelectorAll(selector);
		if (children.length) return children[0];
	}
	function find_group(node) {
		var parent = node.parentElement;
		if (!parent) return;
		if (parent.id == "frames") return node;
		return find_group(parent);
	}
	function orig_save(e, attr, val) {
		if (e.attributes["_orig_" + attr] != undefined) return;
		if (e.attributes[attr] == undefined) return;
		if (val == undefined) val = e.attributes[attr].value;
		e.setAttribute("_orig_" + attr, val);
	}
	function orig_load(e, attr) {
		if (e.attributes["_orig_"+attr] == undefined) return;
		e.attributes[attr].value = e.attributes["_orig_" + attr].value;
		e.removeAttribute("_orig_"+attr);
	}
	function g_to_text(e) {
		var text = find_child(e, "title").firstChild.nodeValue;
		return (text)
	}
	function g_to_func(e) {
		var func = g_to_text(e);
		// if there's any manipulation we want to do to the function
		// name before it's searched, do it here before returning.
		return (func);
	}
	function update_text(e) {
		var r = find_child(e, "rect");
		var t = find_child(e, "text");
		var w = parseFloat(r.attributes.width.value) -3;
		var txt = find_child(e, "title").textContent.replace(/\([^(]*\)$/,"");
		t.attributes.x.value = parseFloat(r.attributes.x.value) + 3;

		// Smaller than this size won't fit anything
		if (w < 2 * 13 * 0.59) {
			t.textContent = "";
			return;
		}

		t.textContent = txt;
		// Fit in full text width
		if (/^ *$/.test(txt) || t.getSubStringLength(0, txt.length) < w)
			return;

		for (var x = txt.length - 2; x > 0; x--) {
			if (t.getSubStringLength(0, x + 2) <= w) {
				t.textContent = txt.substring(0, x) + "..";
				return;
			}
		}
		t.textContent = "";
	}

	// zoom
	function zoom_reset(e) {
		if (e.attributes != undefined) {
			orig_load(e, "x");
			orig_load(e, "width");
		}
		if (e.childNodes == undefined) return;
		for (var i = 0, c = e.childNodes; i < c.length; i++) {
			zoom_reset(c[i]);
		}
	}
	function zoom_child(e, x, ratio) {
		if (e.attributes != undefined) {
			if (e.attributes.x != undefined) {
				orig_save(e, "x");
				e.attributes.x.value = (parseFloat(e.attributes.x.value) - x - 10) * ratio + 10;
				if (e.tagName == "text")
					e.attributes.x.value = find_child(e.parentNode, "rect[x]").attributes.x.value + 3;
			}
			if (e.attributes.width != undefined) {
				orig_save(e, "width");
				e.attributes.width.value = parseFloat(e.attributes.width.value) * ratio;
			}
		}

		if (e.childNodes == undefined) return;
		for (var i = 0, c = e.childNodes; i < c.length; i++) {
			zoom_child(c[i], x - 10, ratio);
		}
	}
	function zoom_parent(e) {
		if (e.attributes) {
			if (e.attributes.x != undefined) {
				orig_save(e, "x");
				e.attributes.x.value = 10;
			}
			if (e.attributes.width != undefined) {
				orig_save(e, "width");
				e.attributes.width.value = parseInt(svg.width.baseVal.value) - (10 * 2);
			}
		}
		if (e.childNodes == undefined) return;
		for (var i = 0, c = e.childNodes; i < c.length; i++) {
			zoom_parent(c[i]);
		}
	}
	function zoom(node) {
		var attr = find_child(node, "rect").attributes;
		var width = parseFloat(attr.width.value);
		var xmin = parseFloat(attr.x.value);
		var xmax = parseFloat(xmin + width);
		var ymin = parseFloat(attr.y.value);
		var ratio = (svg.width.baseVal.value - 2 * 10) / width;

		// XXX: Workaround for JavaScript float issues (fix me)
		var fudge = 0.0001;

		unzoombtn.classList.remove("hide");

		var el = document.getElementById("frames").children;
		for (var i = 0; i < el.length; i++) {
			var e = el[i];
			var a = find_child(e, "rect").attributes;
			var ex = parseFloat(a.x.value);
			var ew = parseFloat(a.width.value);
			var upstack;
			// Is it an ancestor
			if (1 == 0) {
				upstack = parseFloat(a.y.value) > ymin;
			} else {
				upstack = parseFloat(a.y.value) < ymin;
			}
			if (upstack) {
				// Direct ancestor
				if (ex <= xmin && (ex+ew+fudge) >= xmax) {
					e.classList.add("parent");
					zoom_parent(e);
					update_text(e);
				}
				// not in current path
				else
					e.classList.add("hide");
			}
			// Children maybe
			else {
				// no common path
				if (ex < xmin || ex + fudge >= xmax) {
					e.classList.add("hide");
				}
				else {
					zoom_child(e, xmin, ratio);
					update_text(e);
				}
			}
		}
		search();
	}
	function unzoom() {
		unzoombtn.classList.add("hide");
		var el = document.getElementById("frames").children;
		for(var i = 0; i < el.length; i++) {
			el[i].classList.remove("parent");
			el[i].classList.remove("hide");
			zoom_reset(el[i]);
			update_text(el[i]);
		}
		search();
	}
	function clearzoom() {
		unzoom();

		// remove zoom state
		var params = get_params();
		if (params.x) delete params.x;
		if (params.y) delete params.y;
		history.replaceState(null, null, parse_params(params));
	}

	// search
	function toggle_ignorecase() {
		ignorecase = !ignorecase;
		if (ignorecase) {
			ignorecaseBtn.classList.add("show");
		} else {
			ignorecaseBtn.classList.remove("show");
		}
		reset_search();
		search();
	}
	function reset_search() {
		var el = document.querySelectorAll("#frames rect");
		for (var i = 0; i < el.length; i++) {
			orig_load(el[i], "fill")
		}
		var params = get_params();
		delete params.s;
		history.replaceState(null, null, parse_params(params));
	}
	function search_prompt() {
		if (!searching) {
			var term = prompt("Enter a search term (regexp " +
			    "allowed, eg: ^ext4_)"
			    + (ignorecase ? ", ignoring case" : "")
			    + "\nPress Ctrl-i to toggle case sensitivity", "");
			if (term != null) search(term);
		} else {
			reset_search();
			searching = 0;
			currentSearchTerm = null;
			searchbtn.classList.remove("show");
			searchbtn.firstChild.nodeValue = "Search"
			matchedtxt.classList.add("hide");
			matchedtxt.firstChild.nodeValue = ""
		}
	}
	function search(term) {
		if (term) currentSearchTerm = term;

		var re = new RegExp(currentSearchTerm, ignorecase ? 'i' : '');
		var el = document.getElementById("frames").children;
		var matches = new Object();
		var maxwidth = 0;
		for (var i = 0; i < el.length; i++) {
			var e = el[i];
			var func = g_to_func(e);
			var rect = find_child(e, "rect");
			if (func == null || rect == null)
				continue;

			// Save max width. Only works as we have a root frame
			var w = parseFloat(rect.attributes.width.value);
			if (w > maxwidth)
				maxwidth = w;

			if (func.match(re)) {
				// highlight
				var x = parseFloat(rect.attributes.x.value);
				orig_save(rect, "fill");
				rect.attributes.fill.value = "rgb(230,0,230)";

				// remember matches
				if (matches[x] == undefined) {
					matches[x] = w;
				} else {
					if (w > matches[x]) {
						// overwrite with parent
						matches[x] = w;
					}
				}
				searching = 1;
			}
		}
		if (!searching)
			return;
		var params = get_params();
		params.s = currentSearchTerm;
		history.replaceState(null, null, parse_params(params));

		searchbtn.classList.add("show");
		searchbtn.firstChild.nodeValue = "Reset Search";

		// calculate percent matched, excluding vertical overlap
		var count = 0;
		var lastx = -1;
		var lastw = 0;
		var keys = Array();
		for (k in matches) {
			if (matches.hasOwnProperty(k))
				keys.push(k);
		}
		// sort the matched frames by their x location
		// ascending, then width descending
		keys.sort(function(a, b){
			return a - b;
		});
		// Step through frames saving only the biggest bottom-up frames
		// thanks to the sort order. This relies on the tree property
		// where children are always smaller than their parents.
		var fudge = 0.0001;	// JavaScript floating point
		for (var k in keys) {
			var x = parseFloat(keys[k]);
			var w = matches[keys[k]];
			if (x >= lastx + lastw - fudge) {
				count += w;
				lastx = x;
				lastw = w;
			}
		}
		// display matched percent
		matchedtxt.classList.remove("hide");
		var pct = 100 * count / maxwidth;
		if (pct != 100) pct = pct.toFixed(1)
		matchedtxt.firstChild.nodeValue = "Matched: " + pct + "%";
	}
]]>
</script>
<rect x="0.0" y="0" width="1200.0" height="331.0" fill="url(#background)"  />
<text id="title" x="600.00" y="26" >Firedrake example</text>
<text id="details" x="10.00" y="313" > </text>
<text id="unzoom" x="10.00" y="26" class="hide">Reset Zoom</text>
<text id="search" x="1090.00" y="26" >Search</text>
<text id="ignorecase" x="1174.00" y="26" >ic</text>
<text id="matched" x="1090.00" y="313" > </text>
<g id="frames">
<g >
<title>MatSOR (57,815,653 us, 10.70%)</title><rect x="886.4" y="279" width="126.3" height="15.0" fill="rgb(0,0,0)" rx="2" ry="2" />
<text  x="889.41" y="289.5" >MatSOR</text>
</g>
<g >
<title>MatCoarsen (76,112 us, 0.01%)</title><rect x="745.9" y="215" width="0.2" height="15.0" fill="rgb(0,0,0)" rx="2" ry="2" />
<text  x="748.93" y="225.5" ></text>
</g>
<g >
<title>Log_Event_form0_cell_integral_otherwise (127,274 us, 0.02%)</title><rect x="1092.9" y="151" width="0.3" height="15.0" fill="rgb(0,0,0)" rx="2" ry="2" />
<text  x="1095.91" y="161.5" ></text>
</g>
<g >
<title>VecMDot (365,326 us, 0.07%)</title><rect x="211.1" y="135" width="0.8" height="15.0" fill="rgb(0,0,0)" rx="2" ry="2" />
<text  x="214.09" y="145.5" ></text>
</g>
<g >
<title>VecAYPX (242,055 us, 0.04%)</title><rect x="473.8" y="199" width="0.6" height="15.0" fill="rgb(0,0,0)" rx="2" ry="2" />
<text  x="476.84" y="209.5" ></text>
</g>
<g >
<title>pyop2.global_kernel.GlobalKernel.compile (7,344,769 us, 1.36%)</title><rect x="1170.3" y="151" width="16.0" height="15.0" fill="rgb(0,0,0)" rx="2" ry="2" />
<text  x="1173.26" y="161.5" ></text>
</g>
<g >
<title>MatMult (15,091,792 us, 2.79%)</title><rect x="211.9" y="119" width="33.0" height="15.0" fill="rgb(0,0,0)" rx="2" ry="2" />
<text  x="214.89" y="129.5" >Ma..</text>
</g>
<g >
<title>Parloop_set_#x7fa0e847a2f0_wrap_expression_kernel (562,866 us, 0.10%)</title><rect x="17.3" y="135" width="1.3" height="15.0" fill="rgb(0,0,0)" rx="2" ry="2" />
<text  x="20.33" y="145.5" ></text>
</g>
<g >
<title>pyop2.global_kernel.GlobalKernel.compile (10,067,697 us, 1.86%)</title><rect x="125.4" y="151" width="22.0" height="15.0" fill="rgb(0,0,0)" rx="2" ry="2" />
<text  x="128.37" y="161.5" ></text>
</g>
<g >
<title>MatScale (65,930 us, 0.01%)</title><rect x="1092.8" y="119" width="0.1" height="15.0" fill="rgb(0,0,0)" rx="2" ry="2" />
<text  x="1095.77" y="129.5" ></text>
</g>
<g >
<title>GAMG: partLevel (1,671,903 us, 0.31%)</title><rect x="775.6" y="167" width="3.6" height="15.0" fill="rgb(0,0,0)" rx="2" ry="2" />
<text  x="778.58" y="177.5" ></text>
</g>
<g >
<title>MatPtAPNumeric (72,072 us, 0.01%)</title><rect x="779.0" y="199" width="0.1" height="15.0" fill="rgb(0,0,0)" rx="2" ry="2" />
<text  x="781.95" y="209.5" ></text>
</g>
<g >
<title>PCGAMG Gal l02 (128,547 us, 0.02%)</title><rect x="779.0" y="183" width="0.2" height="15.0" fill="rgb(0,0,0)" rx="2" ry="2" />
<text  x="781.95" y="193.5" ></text>
</g>
<g >
<title>VecAXPBYCZ (182,757 us, 0.03%)</title><rect x="473.4" y="199" width="0.4" height="15.0" fill="rgb(0,0,0)" rx="2" ry="2" />
<text  x="476.44" y="209.5" ></text>
</g>
<g >
<title>PCApply (68,098 us, 0.01%)</title><rect x="775.4" y="215" width="0.2" height="15.0" fill="rgb(0,0,0)" rx="2" ry="2" />
<text  x="778.43" y="225.5" ></text>
</g>
<g >
<title>SNESJacobianEval (35,318,789 us, 6.54%)</title><rect x="1112.8" y="103" width="77.2" height="15.0" fill="rgb(0,0,0)" rx="2" ry="2" />
<text  x="1115.84" y="113.5" >SNESJaco..</text>
</g>
<g >
<title>PCSetUp (17,658,026 us, 3.27%)</title><rect x="745.9" y="151" width="38.6" height="15.0" fill="rgb(0,0,0)" rx="2" ry="2" />
<text  x="748.93" y="161.5" >PCS..</text>
</g>
<g >
<title>pyop2.global_kernel.GlobalKernel.compile (4,653,817 us, 0.86%)</title><rect x="19.4" y="135" width="10.1" height="15.0" fill="rgb(0,0,0)" rx="2" ry="2" />
<text  x="22.37" y="145.5" ></text>
</g>
<g >
<title>firedrake.norms.norm (11,205,824 us, 2.07%)</title><rect x="125.4" y="87" width="24.5" height="15.0" fill="rgb(0,0,0)" rx="2" ry="2" />
<text  x="128.37" y="97.5" >f..</text>
</g>
<g >
<title>MatResidual (9,335,589 us, 1.73%)</title><rect x="725.5" y="183" width="20.4" height="15.0" fill="rgb(0,0,0)" rx="2" ry="2" />
<text  x="728.53" y="193.5" ></text>
</g>
<g >
<title>MatMatMultNum (307,497 us, 0.06%)</title><rect x="771.4" y="231" width="0.7" height="15.0" fill="rgb(0,0,0)" rx="2" ry="2" />
<text  x="774.42" y="241.5" ></text>
</g>
<g >
<title>PCApply (58,020,394 us, 10.74%)</title><rect x="886.4" y="231" width="126.8" height="15.0" fill="rgb(0,0,0)" rx="2" ry="2" />
<text  x="889.41" y="241.5" >PCApply</text>
</g>
<g >
<title>MatMult (4,929,360 us, 0.91%)</title><rect x="1066.1" y="135" width="10.7" height="15.0" fill="rgb(0,0,0)" rx="2" ry="2" />
<text  x="1069.07" y="145.5" ></text>
</g>
<g >
<title>KSPSolve_FS_Low (132,329,278 us, 24.50%)</title><rect x="495.4" y="135" width="289.1" height="15.0" fill="rgb(0,0,0)" rx="2" ry="2" />
<text  x="498.40" y="145.5" >KSPSolve_FS_Low</text>
</g>
<g >
<title>ParLoopExecute (20,511,230 us, 3.80%)</title><rect x="29.5" y="119" width="44.8" height="15.0" fill="rgb(0,0,0)" rx="2" ry="2" />
<text  x="32.54" y="129.5" >Par..</text>
</g>
<g >
<title>MatCholFctrNum (4,088,405 us, 0.76%)</title><rect x="115.3" y="151" width="8.9" height="15.0" fill="rgb(0,0,0)" rx="2" ry="2" />
<text  x="118.29" y="161.5" ></text>
</g>
<g >
<title>KSPSolve (58,035,702 us, 10.75%)</title><rect x="346.6" y="215" width="126.8" height="15.0" fill="rgb(0,0,0)" rx="2" ry="2" />
<text  x="349.65" y="225.5" >KSPSolve</text>
</g>
<g >
<title>firedrake.function.Function.project (48,519,451 us, 8.98%)</title><rect x="19.4" y="71" width="106.0" height="15.0" fill="rgb(0,0,0)" rx="2" ry="2" />
<text  x="22.37" y="81.5" >firedrake.f..</text>
</g>
<g >
<title>MatICCFactorSym (93,500 us, 0.02%)</title><rect x="124.2" y="151" width="0.2" height="15.0" fill="rgb(0,0,0)" rx="2" ry="2" />
<text  x="127.22" y="161.5" ></text>
</g>
<g >
<title>pyop2.global_kernel.GlobalKernel.compile (884,801 us, 0.16%)</title><rect x="12.1" y="135" width="1.9" height="15.0" fill="rgb(0,0,0)" rx="2" ry="2" />
<text  x="15.08" y="145.5" ></text>
</g>
<g >
<title>PCGAMGCoarse_AGG (7,741,450 us, 1.43%)</title><rect x="745.9" y="183" width="16.9" height="15.0" fill="rgb(0,0,0)" rx="2" ry="2" />
<text  x="748.93" y="193.5" ></text>
</g>
<g >
<title>Log_Event_form00_cell_integral_otherwise (552,706 us, 0.10%)</title><rect x="1117.1" y="151" width="1.2" height="15.0" fill="rgb(0,0,0)" rx="2" ry="2" />
<text  x="1120.13" y="161.5" ></text>
</g>
<g >
<title>firedrake.projection.project (48,519,451 us, 8.98%)</title><rect x="19.4" y="87" width="106.0" height="15.0" fill="rgb(0,0,0)" rx="2" ry="2" />
<text  x="22.37" y="97.5" >firedrake.p..</text>
</g>
<g >
<title>KSPSolve (58,025,884 us, 10.74%)</title><rect x="597.2" y="215" width="126.7" height="15.0" fill="rgb(0,0,0)" rx="2" ry="2" />
<text  x="600.17" y="225.5" >KSPSolve</text>
</g>
<g >
<title>CreateSparsity (21,420,772 us, 3.97%)</title><rect x="149.9" y="103" width="46.8" height="15.0" fill="rgb(0,0,0)" rx="2" ry="2" />
<text  x="152.85" y="113.5" >Crea..</text>
</g>
<g >
<title>PCGAMG Squ l00 (7,665,338 us, 1.42%)</title><rect x="746.1" y="199" width="16.7" height="15.0" fill="rgb(0,0,0)" rx="2" ry="2" />
<text  x="749.09" y="209.5" ></text>
</g>
<g >
<title>MatConvert (117,693 us, 0.02%)</title><rect x="1079.6" y="119" width="0.3" height="15.0" fill="rgb(0,0,0)" rx="2" ry="2" />
<text  x="1082.62" y="129.5" ></text>
</g>
<g >
<title>Parloop_Cells_wrap_form1_cell_integral_otherwise (3,519,257 us, 0.65%)</title><rect x="1102.3" y="135" width="7.7" height="15.0" fill="rgb(0,0,0)" rx="2" ry="2" />
<text  x="1105.30" y="145.5" ></text>
</g>
<g >
<title>MatAssemblyEnd (143,522 us, 0.03%)</title><rect x="1083.2" y="135" width="0.3" height="15.0" fill="rgb(0,0,0)" rx="2" ry="2" />
<text  x="1086.21" y="145.5" ></text>
</g>
<g >
<title>Parloop_Cells_wrap_pyop2_kernel_uniform_extrusion (884,801 us, 0.16%)</title><rect x="12.1" y="119" width="1.9" height="15.0" fill="rgb(0,0,0)" rx="2" ry="2" />
<text  x="15.08" y="129.5" ></text>
</g>
<g >
<title>MatMultTranspose (157,591 us, 0.03%)</title><rect x="474.7" y="183" width="0.3" height="15.0" fill="rgb(0,0,0)" rx="2" ry="2" />
<text  x="477.68" y="193.5" ></text>
</g>
<g >
<title>firedrake.variational_solver.NonlinearVariationalSolver.__init__ (27,636,965 us, 5.12%)</title><rect x="149.9" y="71" width="60.3" height="15.0" fill="rgb(0,0,0)" rx="2" ry="2" />
<text  x="152.85" y="81.5" >fired..</text>
</g>
<g >
<title>MatMult (385,594 us, 0.07%)</title><rect x="113.3" y="135" width="0.8" height="15.0" fill="rgb(0,0,0)" rx="2" ry="2" />
<text  x="116.28" y="145.5" ></text>
</g>
<g >
<title>PCApply (58,025,884 us, 10.74%)</title><rect x="597.2" y="199" width="126.7" height="15.0" fill="rgb(0,0,0)" rx="2" ry="2" />
<text  x="600.17" y="209.5" >PCApply</text>
</g>
<g >
<title>SNESSolve (448,462,306 us, 83.03%)</title><rect x="210.2" y="87" width="979.8" height="15.0" fill="rgb(0,0,0)" rx="2" ry="2" />
<text  x="213.23" y="97.5" >SNESSolve</text>
</g>
<g >
<title>MatSolve (534,782 us, 0.10%)</title><rect x="114.1" y="183" width="1.2" height="15.0" fill="rgb(0,0,0)" rx="2" ry="2" />
<text  x="117.12" y="193.5" ></text>
</g>
<g >
<title>PCGAMGPOpt_AGG (1,995,473 us, 0.37%)</title><rect x="771.2" y="183" width="4.4" height="15.0" fill="rgb(0,0,0)" rx="2" ry="2" />
<text  x="774.22" y="193.5" ></text>
</g>
<g >
<title>KSPSolve (114,677,133 us, 21.23%)</title><rect x="244.9" y="151" width="250.5" height="15.0" fill="rgb(0,0,0)" rx="2" ry="2" />
<text  x="247.86" y="161.5" >KSPSolve</text>
</g>
<g >
<title>KSPSolve (1,314,224 us, 0.24%)</title><rect x="772.7" y="199" width="2.9" height="15.0" fill="rgb(0,0,0)" rx="2" ry="2" />
<text  x="775.71" y="209.5" ></text>
</g>
<g >
<title>MatResidual (9,329,195 us, 1.73%)</title><rect x="1014.8" y="215" width="20.3" height="15.0" fill="rgb(0,0,0)" rx="2" ry="2" />
<text  x="1017.75" y="225.5" ></text>
</g>
<g >
<title>MatMatMultSym (284,267 us, 0.05%)</title><rect x="772.1" y="231" width="0.6" height="15.0" fill="rgb(0,0,0)" rx="2" ry="2" />
<text  x="775.09" y="241.5" ></text>
</g>
<g >
<title>ParLoopExecute (4,653,817 us, 0.86%)</title><rect x="19.4" y="103" width="10.1" height="15.0" fill="rgb(0,0,0)" rx="2" ry="2" />
<text  x="22.37" y="113.5" ></text>
</g>
<g >
<title>MatMultAdd (705,893 us, 0.13%)</title><rect x="1045.9" y="183" width="1.5" height="15.0" fill="rgb(0,0,0)" rx="2" ry="2" />
<text  x="1048.89" y="193.5" ></text>
</g>
<g >
<title>MatMult (4,923,994 us, 0.91%)</title><rect x="1035.1" y="183" width="10.8" height="15.0" fill="rgb(0,0,0)" rx="2" ry="2" />
<text  x="1038.14" y="193.5" ></text>
</g>
<g >
<title>MatMult (9,335,589 us, 1.73%)</title><rect x="725.5" y="199" width="20.4" height="15.0" fill="rgb(0,0,0)" rx="2" ry="2" />
<text  x="728.53" y="209.5" ></text>
</g>
<g >
<title>PCApply (57,834,986 us, 10.71%)</title><rect x="346.6" y="231" width="126.4" height="15.0" fill="rgb(0,0,0)" rx="2" ry="2" />
<text  x="349.65" y="241.5" >PCApply</text>
</g>
<g >
<title>PCSetUp (7,257,021 us, 1.34%)</title><rect x="1077.1" y="103" width="15.8" height="15.0" fill="rgb(0,0,0)" rx="2" ry="2" />
<text  x="1080.06" y="113.5" ></text>
</g>
<g >
<title>KSPSetUp (2,411,949 us, 0.45%)</title><rect x="779.2" y="167" width="5.3" height="15.0" fill="rgb(0,0,0)" rx="2" ry="2" />
<text  x="782.23" y="177.5" ></text>
</g>
<g >
<title>Log_Event_form01_cell_integral_otherwise (325,471 us, 0.06%)</title><rect x="1151.7" y="151" width="0.7" height="15.0" fill="rgb(0,0,0)" rx="2" ry="2" />
<text  x="1154.70" y="161.5" ></text>
</g>
<g >
<title>firedrake.assemble.assemble (931,094 us, 0.17%)</title><rect x="17.3" y="71" width="2.1" height="15.0" fill="rgb(0,0,0)" rx="2" ry="2" />
<text  x="20.33" y="81.5" ></text>
</g>
<g >
<title>PCGAMG Gal l00 (1,374,523 us, 0.25%)</title><rect x="775.6" y="183" width="3.0" height="15.0" fill="rgb(0,0,0)" rx="2" ry="2" />
<text  x="778.58" y="193.5" ></text>
</g>
<g >
<title>VecAXPBYCZ (182,193 us, 0.03%)</title><rect x="1013.2" y="231" width="0.4" height="15.0" fill="rgb(0,0,0)" rx="2" ry="2" />
<text  x="1016.17" y="241.5" ></text>
</g>
<g >
<title>all (540,112,708 us, 100%)</title><rect x="10.0" y="39" width="1180.0" height="15.0" fill="rgb(0,0,0)" rx="2" ry="2" />
<text  x="13.00" y="49.5" ></text>
</g>
<g >
<title>ParLoopExecute (931,094 us, 0.17%)</title><rect x="17.3" y="119" width="2.1" height="15.0" fill="rgb(0,0,0)" rx="2" ry="2" />
<text  x="20.33" y="129.5" ></text>
</g>
<g >
<title>PCApply (534,782 us, 0.10%)</title><rect x="114.1" y="135" width="1.2" height="15.0" fill="rgb(0,0,0)" rx="2" ry="2" />
<text  x="117.12" y="145.5" ></text>
</g>
<g >
<title>pyop2.global_kernel.GlobalKernel.compile (7,244,178 us, 1.34%)</title><rect x="1152.4" y="151" width="15.8" height="15.0" fill="rgb(0,0,0)" rx="2" ry="2" />
<text  x="1155.41" y="161.5" ></text>
</g>
<g >
<title>VecAYPX (240,328 us, 0.04%)</title><rect x="724.3" y="199" width="0.6" height="15.0" fill="rgb(0,0,0)" rx="2" ry="2" />
<text  x="727.33" y="209.5" ></text>
</g>
<g >
<title>KSPSolve (124,732,218 us, 23.09%)</title><rect x="784.5" y="151" width="272.5" height="15.0" fill="rgb(0,0,0)" rx="2" ry="2" />
<text  x="787.50" y="161.5" >KSPSolve</text>
</g>
<g >
<title>pyop2.global_kernel.GlobalKernel.compile (562,866 us, 0.10%)</title><rect x="17.3" y="151" width="1.3" height="15.0" fill="rgb(0,0,0)" rx="2" ry="2" />
<text  x="20.33" y="161.5" ></text>
</g>
<g >
<title>VecSet (200,716 us, 0.04%)</title><rect x="473.0" y="231" width="0.4" height="15.0" fill="rgb(0,0,0)" rx="2" ry="2" />
<text  x="476.00" y="241.5" ></text>
</g>
<g >
<title>PCApply (534,782 us, 0.10%)</title><rect x="114.1" y="167" width="1.2" height="15.0" fill="rgb(0,0,0)" rx="2" ry="2" />
<text  x="117.12" y="177.5" ></text>
</g>
<g >
<title>firedrake.assemble.assemble (11,205,824 us, 2.07%)</title><rect x="125.4" y="103" width="24.5" height="15.0" fill="rgb(0,0,0)" rx="2" ry="2" />
<text  x="128.37" y="113.5" >f..</text>
</g>
<g >
<title>CreateSparsity (13,050,771 us, 2.42%)</title><rect x="74.3" y="135" width="28.6" height="15.0" fill="rgb(0,0,0)" rx="2" ry="2" />
<text  x="77.35" y="145.5" >C..</text>
</g>
<g >
<title>MatAssemblyEnd (135,153 us, 0.03%)</title><rect x="196.7" y="103" width="0.2" height="15.0" fill="rgb(0,0,0)" rx="2" ry="2" />
<text  x="199.65" y="113.5" ></text>
</g>
<g >
<title>firedrake.norms.errornorm (11,205,824 us, 2.07%)</title><rect x="125.4" y="71" width="24.5" height="15.0" fill="rgb(0,0,0)" rx="2" ry="2" />
<text  x="128.37" y="81.5" >f..</text>
</g>
<g >
<title>MatPtAPSymbolic (56,475 us, 0.01%)</title><rect x="779.1" y="199" width="0.1" height="15.0" fill="rgb(0,0,0)" rx="2" ry="2" />
<text  x="782.11" y="209.5" ></text>
</g>
<g >
<title>MatILUFactorSym (187,697 us, 0.03%)</title><rect x="1057.0" y="183" width="0.4" height="15.0" fill="rgb(0,0,0)" rx="2" ry="2" />
<text  x="1060.01" y="193.5" ></text>
</g>
<g >
<title>PCGAMGGraph_AGG (3,837,251 us, 0.71%)</title><rect x="762.8" y="183" width="8.4" height="15.0" fill="rgb(0,0,0)" rx="2" ry="2" />
<text  x="765.84" y="193.5" ></text>
</g>
<g >
<title>VecScatterBegin (98,820 us, 0.02%)</title><rect x="1076.8" y="135" width="0.3" height="15.0" fill="rgb(0,0,0)" rx="2" ry="2" />
<text  x="1079.84" y="145.5" ></text>
</g>
<g >
<title>Parloop_Cells_wrap_form10_cell_integral_otherwise (8,269,353 us, 1.53%)</title><rect x="1168.2" y="135" width="18.1" height="15.0" fill="rgb(0,0,0)" rx="2" ry="2" />
<text  x="1171.24" y="145.5" ></text>
</g>
<g >
<title>ParLoopExecute (10,067,697 us, 1.86%)</title><rect x="125.4" y="119" width="22.0" height="15.0" fill="rgb(0,0,0)" rx="2" ry="2" />
<text  x="128.37" y="129.5" ></text>
</g>
<g >
<title>PCSetUp (4,147,711 us, 0.77%)</title><rect x="1057.0" y="167" width="9.1" height="15.0" fill="rgb(0,0,0)" rx="2" ry="2" />
<text  x="1060.01" y="177.5" ></text>
</g>
<g >
<title>firedrake.assemble_expressions.assemble_expression (931,094 us, 0.17%)</title><rect x="17.3" y="87" width="2.1" height="15.0" fill="rgb(0,0,0)" rx="2" ry="2" />
<text  x="20.33" y="97.5" ></text>
</g>
<g >
<title>MatPtAPNumeric (978,729 us, 0.18%)</title><rect x="775.6" y="199" width="2.1" height="15.0" fill="rgb(0,0,0)" rx="2" ry="2" />
<text  x="778.58" y="209.5" ></text>
</g>
<g >
<title>firedrake (540,112,708 us, 100.00%)</title><rect x="10.0" y="55" width="1180.0" height="15.0" fill="rgb(0,0,0)" rx="2" ry="2" />
<text  x="13.00" y="65.5" >firedrake</text>
</g>
<g >
<title>pyop2.global_kernel.GlobalKernel.compile (14,573,463 us, 2.70%)</title><rect x="1118.3" y="151" width="31.9" height="15.0" fill="rgb(0,0,0)" rx="2" ry="2" />
<text  x="1121.34" y="161.5" >py..</text>
</g>
<g >
<title>PCSetUpOnBlocks (4,181,905 us, 0.77%)</title><rect x="115.3" y="119" width="9.1" height="15.0" fill="rgb(0,0,0)" rx="2" ry="2" />
<text  x="118.29" y="129.5" ></text>
</g>
<g >
<title>Parloop_Cells_wrap_form00_cell_integral_otherwise (20,511,230 us, 3.80%)</title><rect x="29.5" y="135" width="44.8" height="15.0" fill="rgb(0,0,0)" rx="2" ry="2" />
<text  x="32.54" y="145.5" >Par..</text>
</g>
<g >
<title>KSPSolve (105,027,626 us, 19.45%)</title><rect x="784.6" y="215" width="229.5" height="15.0" fill="rgb(0,0,0)" rx="2" ry="2" />
<text  x="787.63" y="225.5" >KSPSolve</text>
</g>
<g >
<title>PCApply (4,382,397 us, 0.81%)</title><rect x="1047.4" y="167" width="9.6" height="15.0" fill="rgb(0,0,0)" rx="2" ry="2" />
<text  x="1050.43" y="177.5" ></text>
</g>
<g >
<title>KSPSolve (4,382,397 us, 0.81%)</title><rect x="1047.4" y="183" width="9.6" height="15.0" fill="rgb(0,0,0)" rx="2" ry="2" />
<text  x="1050.43" y="193.5" ></text>
</g>
<g >
<title>ParLoopExecute (884,801 us, 0.16%)</title><rect x="12.1" y="103" width="1.9" height="15.0" fill="rgb(0,0,0)" rx="2" ry="2" />
<text  x="15.08" y="113.5" ></text>
</g>
<g >
<title>VecAXPBYCZ (179,992 us, 0.03%)</title><rect x="723.9" y="199" width="0.4" height="15.0" fill="rgb(0,0,0)" rx="2" ry="2" />
<text  x="726.94" y="209.5" ></text>
</g>
<g >
<title>MatMultAdd (145,291 us, 0.03%)</title><rect x="724.9" y="183" width="0.3" height="15.0" fill="rgb(0,0,0)" rx="2" ry="2" />
<text  x="727.86" y="193.5" ></text>
</g>
<g >
<title>KSPSolve (105,027,325 us, 19.45%)</title><rect x="495.4" y="183" width="229.5" height="15.0" fill="rgb(0,0,0)" rx="2" ry="2" />
<text  x="498.40" y="193.5" >KSPSolve</text>
</g>
<g >
<title>MatLUFactorNum (3,960,014 us, 0.73%)</title><rect x="1057.4" y="183" width="8.7" height="15.0" fill="rgb(0,0,0)" rx="2" ry="2" />
<text  x="1060.42" y="193.5" ></text>
</g>
<g >
<title>Log_Event_form00_cell_integral_otherwise (748,577 us, 0.14%)</title><rect x="33.1" y="151" width="1.6" height="15.0" fill="rgb(0,0,0)" rx="2" ry="2" />
<text  x="36.09" y="161.5" ></text>
</g>
<g >
<title>KSPSolve (534,782 us, 0.10%)</title><rect x="114.1" y="151" width="1.2" height="15.0" fill="rgb(0,0,0)" rx="2" ry="2" />
<text  x="117.12" y="161.5" ></text>
</g>
<g >
<title>firedrake.tsfc_interface.compile_form (1,690,159 us, 0.31%)</title><rect x="1186.3" y="119" width="3.7" height="15.0" fill="rgb(0,0,0)" rx="2" ry="2" />
<text  x="1189.31" y="129.5" ></text>
</g>
<g >
<title>MatMultAdd (145,502 us, 0.03%)</title><rect x="1014.1" y="215" width="0.3" height="15.0" fill="rgb(0,0,0)" rx="2" ry="2" />
<text  x="1017.09" y="225.5" ></text>
</g>
<g >
<title>MatScale (212,341 us, 0.04%)</title><rect x="770.8" y="215" width="0.4" height="15.0" fill="rgb(0,0,0)" rx="2" ry="2" />
<text  x="773.76" y="225.5" ></text>
</g>
<g >
<title>MatZeroEntries (205,354 us, 0.04%)</title><rect x="1112.8" y="119" width="0.5" height="15.0" fill="rgb(0,0,0)" rx="2" ry="2" />
<text  x="1115.84" y="129.5" ></text>
</g>
<g >
<title>MatMultTranspose (163,047 us, 0.03%)</title><rect x="725.2" y="183" width="0.3" height="15.0" fill="rgb(0,0,0)" rx="2" ry="2" />
<text  x="728.17" y="193.5" ></text>
</g>
<g >
<title>MatAXPY (1,061,555 us, 0.20%)</title><rect x="1077.3" y="119" width="2.3" height="15.0" fill="rgb(0,0,0)" rx="2" ry="2" />
<text  x="1080.30" y="129.5" ></text>
</g>
<g >
<title>ParLoopExecute (7,818,766 us, 1.45%)</title><rect x="1092.9" y="119" width="17.1" height="15.0" fill="rgb(0,0,0)" rx="2" ry="2" />
<text  x="1095.91" y="129.5" ></text>
</g>
<g >
<title>MatSolve (4,382,397 us, 0.81%)</title><rect x="1047.4" y="215" width="9.6" height="15.0" fill="rgb(0,0,0)" rx="2" ry="2" />
<text  x="1050.43" y="225.5" ></text>
</g>
<g >
<title>GAMG: createProl (13,574,174 us, 2.51%)</title><rect x="745.9" y="167" width="29.7" height="15.0" fill="rgb(0,0,0)" rx="2" ry="2" />
<text  x="748.93" y="177.5" >G..</text>
</g>
<g >
<title>firedrake.tsfc_interface.compile_form (580,555 us, 0.11%)</title><rect x="112.0" y="119" width="1.3" height="15.0" fill="rgb(0,0,0)" rx="2" ry="2" />
<text  x="115.01" y="129.5" ></text>
</g>
<g >
<title>KSPSolve (396,765,301 us, 73.46%)</title><rect x="210.2" y="103" width="866.9" height="15.0" fill="rgb(0,0,0)" rx="2" ry="2" />
<text  x="213.23" y="113.5" >KSPSolve</text>
</g>
<g >
<title>PCSetUpOnBlocks (4,147,711 us, 0.77%)</title><rect x="1057.0" y="151" width="9.1" height="15.0" fill="rgb(0,0,0)" rx="2" ry="2" />
<text  x="1060.01" y="161.5" ></text>
</g>
<g >
<title>MatZeroInitial (4,095,781 us, 0.76%)</title><rect x="103.1" y="135" width="8.9" height="15.0" fill="rgb(0,0,0)" rx="2" ry="2" />
<text  x="106.06" y="145.5" ></text>
</g>
<g >
<title>VecSet (204,741 us, 0.04%)</title><rect x="1012.7" y="263" width="0.5" height="15.0" fill="rgb(0,0,0)" rx="2" ry="2" />
<text  x="1015.72" y="273.5" ></text>
</g>
<g >
<title>Parloop_set_#x7fa0e84b4c40_wrap_expression_kernel (368,228 us, 0.07%)</title><rect x="18.6" y="135" width="0.8" height="15.0" fill="rgb(0,0,0)" rx="2" ry="2" />
<text  x="21.56" y="145.5" ></text>
</g>
<g >
<title>KSPSolve (2,411,949 us, 0.45%)</title><rect x="779.2" y="183" width="5.3" height="15.0" fill="rgb(0,0,0)" rx="2" ry="2" />
<text  x="782.23" y="193.5" ></text>
</g>
<g >
<title>pyop2.global_kernel.GlobalKernel.compile (3,519,257 us, 0.65%)</title><rect x="1102.3" y="151" width="7.7" height="15.0" fill="rgb(0,0,0)" rx="2" ry="2" />
<text  x="1105.30" y="161.5" ></text>
</g>
<g >
<title>MatMult (1,112,678 us, 0.21%)</title><rect x="779.2" y="199" width="2.5" height="15.0" fill="rgb(0,0,0)" rx="2" ry="2" />
<text  x="782.23" y="209.5" ></text>
</g>
<g >
<title>PCApply (57,815,653 us, 10.70%)</title><rect x="886.4" y="263" width="126.3" height="15.0" fill="rgb(0,0,0)" rx="2" ry="2" />
<text  x="889.41" y="273.5" >PCApply</text>
</g>
<g >
<title>PCApply (114,677,133 us, 21.23%)</title><rect x="244.9" y="167" width="250.5" height="15.0" fill="rgb(0,0,0)" rx="2" ry="2" />
<text  x="247.86" y="177.5" >PCApply</text>
</g>
<g >
<title>MatMultTranspose (159,612 us, 0.03%)</title><rect x="1014.4" y="215" width="0.4" height="15.0" fill="rgb(0,0,0)" rx="2" ry="2" />
<text  x="1017.40" y="225.5" ></text>
</g>
<g >
<title>KSPSolve (1,299,271 us, 0.24%)</title><rect x="781.7" y="215" width="2.8" height="15.0" fill="rgb(0,0,0)" rx="2" ry="2" />
<text  x="784.66" y="225.5" ></text>
</g>
<g >
<title>MatTrnMatMultSym (7,665,338 us, 1.42%)</title><rect x="746.1" y="215" width="16.7" height="15.0" fill="rgb(0,0,0)" rx="2" ry="2" />
<text  x="749.09" y="225.5" ></text>
</g>
<g >
<title>MatAssemblyEnd (166,894 us, 0.03%)</title><rect x="769.5" y="215" width="0.3" height="15.0" fill="rgb(0,0,0)" rx="2" ry="2" />
<text  x="772.46" y="225.5" ></text>
</g>
<g >
<title>PCApply (114,671,252 us, 21.23%)</title><rect x="495.4" y="167" width="250.5" height="15.0" fill="rgb(0,0,0)" rx="2" ry="2" />
<text  x="498.40" y="177.5" >PCApply</text>
</g>
<g >
<title>Parloop_Cells_wrap_form0_cell_integral_otherwise (4,653,817 us, 0.86%)</title><rect x="19.4" y="119" width="10.1" height="15.0" fill="rgb(0,0,0)" rx="2" ry="2" />
<text  x="22.37" y="129.5" ></text>
</g>
<g >
<title>MatSOR (57,834,986 us, 10.71%)</title><rect x="346.6" y="247" width="126.4" height="15.0" fill="rgb(0,0,0)" rx="2" ry="2" />
<text  x="349.65" y="257.5" >MatSOR</text>
</g>
<g >
<title>MatPtAPSymbolic (395,794 us, 0.07%)</title><rect x="777.7" y="199" width="0.9" height="15.0" fill="rgb(0,0,0)" rx="2" ry="2" />
<text  x="780.72" y="209.5" ></text>
</g>
<g >
<title>PCGAMG Gal l01 (168,833 us, 0.03%)</title><rect x="778.6" y="183" width="0.4" height="15.0" fill="rgb(0,0,0)" rx="2" ry="2" />
<text  x="781.58" y="193.5" ></text>
</g>
<g >
<title>MatMult (46,585,744 us, 8.63%)</title><rect x="784.6" y="231" width="101.8" height="15.0" fill="rgb(0,0,0)" rx="2" ry="2" />
<text  x="787.63" y="241.5" >MatMult</text>
</g>
<g >
<title>MatZeroInitial (6,081,040 us, 1.13%)</title><rect x="196.9" y="103" width="13.3" height="15.0" fill="rgb(0,0,0)" rx="2" ry="2" />
<text  x="199.95" y="113.5" ></text>
</g>
<g >
<title>firedrake.assemble_expressions.evaluate_expression (931,094 us, 0.17%)</title><rect x="17.3" y="103" width="2.1" height="15.0" fill="rgb(0,0,0)" rx="2" ry="2" />
<text  x="20.33" y="113.5" ></text>
</g>
<g >
<title>pyop2.global_kernel.GlobalKernel.compile (18,133,605 us, 3.36%)</title><rect x="34.7" y="151" width="39.6" height="15.0" fill="rgb(0,0,0)" rx="2" ry="2" />
<text  x="37.73" y="161.5" >pyo..</text>
</g>
<g >
<title>PCApply (1,299,271 us, 0.24%)</title><rect x="781.7" y="231" width="2.8" height="15.0" fill="rgb(0,0,0)" rx="2" ry="2" />
<text  x="784.66" y="241.5" ></text>
</g>
<g >
<title>PCSetUp (4,181,905 us, 0.77%)</title><rect x="115.3" y="135" width="9.1" height="15.0" fill="rgb(0,0,0)" rx="2" ry="2" />
<text  x="118.29" y="145.5" ></text>
</g>
<g >
<title>Log_Event_form10_cell_integral_otherwise (152,074 us, 0.03%)</title><rect x="1169.9" y="151" width="0.4" height="15.0" fill="rgb(0,0,0)" rx="2" ry="2" />
<text  x="1172.93" y="161.5" ></text>
</g>
<g >
<title>PCApply (114,661,935 us, 21.23%)</title><rect x="784.6" y="199" width="250.5" height="15.0" fill="rgb(0,0,0)" rx="2" ry="2" />
<text  x="787.63" y="209.5" >PCApply</text>
</g>
<g >
<title>  MIS/Agg (76,112 us, 0.01%)</title><rect x="745.9" y="199" width="0.2" height="15.0" fill="rgb(0,0,0)" rx="2" ry="2" />
<text  x="748.93" y="209.5" ></text>
</g>
<g >
<title>VecSet (201,002 us, 0.04%)</title><rect x="723.5" y="231" width="0.4" height="15.0" fill="rgb(0,0,0)" rx="2" ry="2" />
<text  x="726.50" y="241.5" ></text>
</g>
<g >
<title>KSPGMRESOrthog (653,368 us, 0.12%)</title><rect x="210.5" y="119" width="1.4" height="15.0" fill="rgb(0,0,0)" rx="2" ry="2" />
<text  x="213.46" y="129.5" ></text>
</g>
<g >
<title>firedrake.__init__ (1,521,816 us, 0.28%)</title><rect x="14.0" y="71" width="3.3" height="15.0" fill="rgb(0,0,0)" rx="2" ry="2" />
<text  x="17.01" y="81.5" ></text>
</g>
<g >
<title>MatPtAPSymbolic (71,244 us, 0.01%)</title><rect x="778.8" y="199" width="0.2" height="15.0" fill="rgb(0,0,0)" rx="2" ry="2" />
<text  x="781.80" y="209.5" ></text>
</g>
<g >
<title>VecMAXPY (288,042 us, 0.05%)</title><rect x="210.5" y="135" width="0.6" height="15.0" fill="rgb(0,0,0)" rx="2" ry="2" />
<text  x="213.46" y="145.5" ></text>
</g>
<g >
<title>firedrake.assemble.allocate_matrix (17,239,227 us, 3.19%)</title><rect x="74.3" y="119" width="37.7" height="15.0" fill="rgb(0,0,0)" rx="2" ry="2" />
<text  x="77.35" y="129.5" >fi..</text>
</g>
<g >
<title>MatPtAPNumeric (97,589 us, 0.02%)</title><rect x="778.6" y="199" width="0.2" height="15.0" fill="rgb(0,0,0)" rx="2" ry="2" />
<text  x="781.58" y="209.5" ></text>
</g>
<g >
<title>KSPSolve (58,020,394 us, 10.74%)</title><rect x="886.4" y="247" width="126.8" height="15.0" fill="rgb(0,0,0)" rx="2" ry="2" />
<text  x="889.41" y="257.5" >KSPSolve</text>
</g>
<g >
<title>MatMult (46,581,121 us, 8.62%)</title><rect x="495.4" y="199" width="101.8" height="15.0" fill="rgb(0,0,0)" rx="2" ry="2" />
<text  x="498.40" y="209.5" >MatMult</text>
</g>
<g >
<title>MatMult (9,325,862 us, 1.73%)</title><rect x="475.0" y="199" width="20.4" height="15.0" fill="rgb(0,0,0)" rx="2" ry="2" />
<text  x="478.02" y="209.5" ></text>
</g>
<g >
<title>MatMatMultNum (1,918,359 us, 0.36%)</title><rect x="1083.5" y="119" width="4.2" height="15.0" fill="rgb(0,0,0)" rx="2" ry="2" />
<text  x="1086.52" y="129.5" ></text>
</g>
<g >
<title>KSPSolve (114,661,935 us, 21.23%)</title><rect x="784.6" y="183" width="250.5" height="15.0" fill="rgb(0,0,0)" rx="2" ry="2" />
<text  x="787.63" y="193.5" >KSPSolve</text>
</g>
<g >
<title>MatSOR (57,824,882 us, 10.71%)</title><rect x="597.2" y="247" width="126.3" height="15.0" fill="rgb(0,0,0)" rx="2" ry="2" />
<text  x="600.17" y="257.5" >MatSOR</text>
</g>
<g >
<title>KSPSolve (114,671,252 us, 21.23%)</title><rect x="495.4" y="151" width="250.5" height="15.0" fill="rgb(0,0,0)" rx="2" ry="2" />
<text  x="498.40" y="161.5" >KSPSolve</text>
</g>
<g >
<title>MatMatMultSym (2,312,723 us, 0.43%)</title><rect x="1087.7" y="119" width="5.1" height="15.0" fill="rgb(0,0,0)" rx="2" ry="2" />
<text  x="1090.71" y="129.5" ></text>
</g>
<g >
<title>Parloop_Cells_wrap_form01_cell_integral_otherwise (8,269,575 us, 1.53%)</title><rect x="1150.2" y="135" width="18.0" height="15.0" fill="rgb(0,0,0)" rx="2" ry="2" />
<text  x="1153.17" y="145.5" ></text>
</g>
<g >
<title>PCApply (380,914,520 us, 70.53%)</title><rect x="244.9" y="119" width="832.2" height="15.0" fill="rgb(0,0,0)" rx="2" ry="2" />
<text  x="247.86" y="129.5" >PCApply</text>
</g>
<g >
<title>VecAYPX (239,295 us, 0.04%)</title><rect x="1013.6" y="231" width="0.5" height="15.0" fill="rgb(0,0,0)" rx="2" ry="2" />
<text  x="1016.56" y="241.5" ></text>
</g>
<g >
<title>firedrake.tsfc_interface.compile_form (1,302,429 us, 0.24%)</title><rect x="1110.0" y="119" width="2.8" height="15.0" fill="rgb(0,0,0)" rx="2" ry="2" />
<text  x="1112.99" y="129.5" ></text>
</g>
<g >
<title>MatResidual (9,325,862 us, 1.73%)</title><rect x="475.0" y="183" width="20.4" height="15.0" fill="rgb(0,0,0)" rx="2" ry="2" />
<text  x="478.02" y="193.5" ></text>
</g>
<g >
<title>pyop2.global_kernel.GlobalKernel.compile (4,172,235 us, 0.77%)</title><rect x="1093.2" y="151" width="9.1" height="15.0" fill="rgb(0,0,0)" rx="2" ry="2" />
<text  x="1096.19" y="161.5" ></text>
</g>
<g >
<title>PCApply (57,824,882 us, 10.71%)</title><rect x="597.2" y="231" width="126.3" height="15.0" fill="rgb(0,0,0)" rx="2" ry="2" />
<text  x="600.17" y="241.5" >PCApply</text>
</g>
<g >
<title>firedrake.assemble.assemble (38,331,012 us, 7.10%)</title><rect x="29.5" y="103" width="83.8" height="15.0" fill="rgb(0,0,0)" rx="2" ry="2" />
<text  x="32.54" y="113.5" >firedrak..</text>
</g>
<g >
<title>firedrake.extrusion_utils.make_extruded_coords (884,801 us, 0.16%)</title><rect x="12.1" y="87" width="1.9" height="15.0" fill="rgb(0,0,0)" rx="2" ry="2" />
<text  x="15.08" y="97.5" ></text>
</g>
<g >
<title>CreateExtMesh (884,801 us, 0.16%)</title><rect x="12.1" y="71" width="1.9" height="15.0" fill="rgb(0,0,0)" rx="2" ry="2" />
<text  x="15.08" y="81.5" ></text>
</g>
<g >
<title>KSPSolve_FS_Schu (128,879,929 us, 23.86%)</title><rect x="784.5" y="135" width="281.6" height="15.0" fill="rgb(0,0,0)" rx="2" ry="2" />
<text  x="787.50" y="145.5" >KSPSolve_FS_Schu</text>
</g>
<g >
<title>MatMultAdd (143,699 us, 0.03%)</title><rect x="474.4" y="183" width="0.3" height="15.0" fill="rgb(0,0,0)" rx="2" ry="2" />
<text  x="477.37" y="193.5" ></text>
</g>
<g >
<title>MatMult (1,246,126 us, 0.23%)</title><rect x="772.7" y="215" width="2.7" height="15.0" fill="rgb(0,0,0)" rx="2" ry="2" />
<text  x="775.71" y="225.5" ></text>
</g>
<g >
<title>KSPSolve (920,376 us, 0.17%)</title><rect x="113.3" y="119" width="2.0" height="15.0" fill="rgb(0,0,0)" rx="2" ry="2" />
<text  x="116.28" y="129.5" ></text>
</g>
<g >
<title>PCGAMG Opt l00 (591,764 us, 0.11%)</title><rect x="771.4" y="215" width="1.3" height="15.0" fill="rgb(0,0,0)" rx="2" ry="2" />
<text  x="774.42" y="225.5" ></text>
</g>
<g >
<title>MatSOR (1,299,271 us, 0.24%)</title><rect x="781.7" y="247" width="2.8" height="15.0" fill="rgb(0,0,0)" rx="2" ry="2" />
<text  x="784.66" y="257.5" ></text>
</g>
<g >
<title>firedrake.assemble.allocate_matrix (27,636,965 us, 5.12%)</title><rect x="149.9" y="87" width="60.3" height="15.0" fill="rgb(0,0,0)" rx="2" ry="2" />
<text  x="152.85" y="97.5" >fired..</text>
</g>
<g >
<title>KSPSolve (105,049,981 us, 19.45%)</title><rect x="244.9" y="183" width="229.5" height="15.0" fill="rgb(0,0,0)" rx="2" ry="2" />
<text  x="247.86" y="193.5" >KSPSolve</text>
</g>
<g >
<title>  SA: smooth (681,249 us, 0.13%)</title><rect x="771.2" y="199" width="1.5" height="15.0" fill="rgb(0,0,0)" rx="2" ry="2" />
<text  x="774.22" y="209.5" ></text>
</g>
<g >
<title>PCApply (1,299,271 us, 0.24%)</title><rect x="781.7" y="199" width="2.8" height="15.0" fill="rgb(0,0,0)" rx="2" ry="2" />
<text  x="784.66" y="209.5" ></text>
</g>
<g >
<title>pyop2.global_kernel.GlobalKernel.compile (368,228 us, 0.07%)</title><rect x="18.6" y="151" width="0.8" height="15.0" fill="rgb(0,0,0)" rx="2" ry="2" />
<text  x="21.56" y="161.5" ></text>
</g>
<g >
<title>SNESFunctionEval (9,121,195 us, 1.69%)</title><rect x="1092.9" y="103" width="19.9" height="15.0" fill="rgb(0,0,0)" rx="2" ry="2" />
<text  x="1095.91" y="113.5" ></text>
</g>
<g >
<title>Parloop_Cells_wrap_form_cell_integral_otherwise (10,067,697 us, 1.86%)</title><rect x="125.4" y="135" width="22.0" height="15.0" fill="rgb(0,0,0)" rx="2" ry="2" />
<text  x="128.37" y="145.5" ></text>
</g>
<g >
<title>firedrake.tsfc_interface.compile_form (1,138,127 us, 0.21%)</title><rect x="147.4" y="119" width="2.5" height="15.0" fill="rgb(0,0,0)" rx="2" ry="2" />
<text  x="150.37" y="129.5" ></text>
</g>
<g >
<title>MatMult (46,589,467 us, 8.63%)</title><rect x="244.9" y="199" width="101.7" height="15.0" fill="rgb(0,0,0)" rx="2" ry="2" />
<text  x="247.86" y="209.5" >MatMult</text>
</g>
<g >
<title>Parloop_Cells_wrap_form0_cell_integral_otherwise (4,299,509 us, 0.80%)</title><rect x="1092.9" y="135" width="9.4" height="15.0" fill="rgb(0,0,0)" rx="2" ry="2" />
<text  x="1095.91" y="145.5" ></text>
</g>
<g >
<title>MatConvert (425,973 us, 0.08%)</title><rect x="769.8" y="215" width="1.0" height="15.0" fill="rgb(0,0,0)" rx="2" ry="2" />
<text  x="772.83" y="225.5" ></text>
</g>
<g >
<title>MatMult (120,291,822 us, 22.27%)</title><rect x="784.6" y="167" width="262.8" height="15.0" fill="rgb(0,0,0)" rx="2" ry="2" />
<text  x="787.63" y="177.5" >MatMult</text>
</g>
<g >
<title>KSPSolve_FS_0 (114,677,133 us, 21.23%)</title><rect x="244.9" y="135" width="250.5" height="15.0" fill="rgb(0,0,0)" rx="2" ry="2" />
<text  x="247.86" y="145.5" >KSPSolve_FS_0</text>
</g>
<g >
<title>PCApply (4,382,397 us, 0.81%)</title><rect x="1047.4" y="199" width="9.6" height="15.0" fill="rgb(0,0,0)" rx="2" ry="2" />
<text  x="1050.43" y="209.5" ></text>
</g>
<g >
<title>firedrake.linear_solver.LinearSolver.solve (5,102,281 us, 0.94%)</title><rect x="113.3" y="103" width="11.1" height="15.0" fill="rgb(0,0,0)" rx="2" ry="2" />
<text  x="116.28" y="113.5" ></text>
</g>
<g >
<title>Parloop_Cells_wrap_form00_cell_integral_otherwise (16,884,348 us, 3.13%)</title><rect x="1113.3" y="135" width="36.9" height="15.0" fill="rgb(0,0,0)" rx="2" ry="2" />
<text  x="1116.29" y="145.5" >Pa..</text>
</g>
<g >
<title>PCApply (58,035,702 us, 10.75%)</title><rect x="346.6" y="199" width="126.8" height="15.0" fill="rgb(0,0,0)" rx="2" ry="2" />
<text  x="349.65" y="209.5" >PCApply</text>
</g>
<g >
<title>MatMult (9,329,195 us, 1.73%)</title><rect x="1014.8" y="231" width="20.3" height="15.0" fill="rgb(0,0,0)" rx="2" ry="2" />
<text  x="1017.75" y="241.5" ></text>
</g>
<g >
<title>MatAssemblyEnd (92,675 us, 0.02%)</title><rect x="102.9" y="135" width="0.2" height="15.0" fill="rgb(0,0,0)" rx="2" ry="2" />
<text  x="105.86" y="145.5" ></text>
</g>
<g >
<title>  Graph (3,837,251 us, 0.71%)</title><rect x="762.8" y="199" width="8.4" height="15.0" fill="rgb(0,0,0)" rx="2" ry="2" />
<text  x="765.84" y="209.5" ></text>
</g>
<g >
<title>firedrake.tsfc_interface.compile_form (432,341 us, 0.08%)</title><rect x="124.4" y="103" width="1.0" height="15.0" fill="rgb(0,0,0)" rx="2" ry="2" />
<text  x="127.43" y="113.5" ></text>
</g>
<g >
<title>MatCreateSubMats (1,667,741 us, 0.31%)</title><rect x="1079.9" y="119" width="3.6" height="15.0" fill="rgb(0,0,0)" rx="2" ry="2" />
<text  x="1082.88" y="129.5" ></text>
</g>
<g >
<title>ParLoopExecute (33,423,276 us, 6.19%)</title><rect x="1113.3" y="119" width="73.0" height="15.0" fill="rgb(0,0,0)" rx="2" ry="2" />
<text  x="1116.29" y="129.5" >ParLoop..</text>
</g>
<g >
<title>firedrake.variational_solver.NonlinearVariationalSolver.solve (448,462,306 us, 83.03%)</title><rect x="210.2" y="71" width="979.8" height="15.0" fill="rgb(0,0,0)" rx="2" ry="2" />
<text  x="213.23" y="81.5" >firedrake.variational_solver.NonlinearVariationalSolver.solve</text>
</g>
</g>
</svg>
