<?xml version="1.0" standalone="no"?>
<!DOCTYPE svg PUBLIC "-//W3C//DTD SVG 1.1//EN" "http://www.w3.org/Graphics/SVG/1.1/DTD/svg11.dtd">
<svg version="1.1" width="1200" height="331" onload="init(evt)" viewBox="0 0 1200 331" xmlns="http://www.w3.org/2000/svg" xmlns:xlink="http://www.w3.org/1999/xlink">
<!-- Flame graph stack visualization. See https://github.com/brendangregg/FlameGraph for latest version, and http://www.brendangregg.com/flamegraphs.html for examples. -->
<!-- NOTES:  -->
<defs>
	<linearGradient id="background" y1="0" y2="1" x1="0" x2="0" >
		<stop stop-color="#eeeeee" offset="5%" />
		<stop stop-color="#eeeeb0" offset="95%" />
	</linearGradient>
</defs>
<style type="text/css">
	text { font-family:Verdana; font-size:13px; fill:rgb(0,0,0); }
	#search, #ignorecase { opacity:0.1; cursor:pointer; }
	#search:hover, #search.show, #ignorecase:hover, #ignorecase.show { opacity:1; }
	#subtitle { text-anchor:middle; font-color:rgb(160,160,160); }
	#title { text-anchor:middle; font-size:18px}
	#unzoom { cursor:pointer; }
	#frames > *:hover { stroke:black; stroke-width:0.5; cursor:pointer; }
	.hide { display:none; }
	.parent { opacity:0.5; }
</style>
<script type="text/ecmascript">
<![CDATA[
	"use strict";
	var details, searchbtn, unzoombtn, matchedtxt, svg, searching, currentSearchTerm, ignorecase, ignorecaseBtn;
	function init(evt) {
		details = document.getElementById("details").firstChild;
		searchbtn = document.getElementById("search");
		ignorecaseBtn = document.getElementById("ignorecase");
		unzoombtn = document.getElementById("unzoom");
		matchedtxt = document.getElementById("matched");
		svg = document.getElementsByTagName("svg")[0];
		searching = 0;
		currentSearchTerm = null;

		// use GET parameters to restore a flamegraphs state.
		var params = get_params();
		if (params.x && params.y)
			zoom(find_group(document.querySelector('[x="' + params.x + '"][y="' + params.y + '"]')));
                if (params.s) search(params.s);
	}

	// event listeners
	window.addEventListener("click", function(e) {
		var target = find_group(e.target);
		if (target) {
			if (target.nodeName == "a") {
				if (e.ctrlKey === false) return;
				e.preventDefault();
			}
			if (target.classList.contains("parent")) unzoom();
			zoom(target);
			if (!document.querySelector('.parent')) {
				clearzoom();
				return;
			}

			// set parameters for zoom state
			var el = target.querySelector("rect");
			if (el && el.attributes && el.attributes.y && el.attributes._orig_x) {
				var params = get_params()
				params.x = el.attributes._orig_x.value;
				params.y = el.attributes.y.value;
				history.replaceState(null, null, parse_params(params));
			}
		}
		else if (e.target.id == "unzoom") clearzoom();
		else if (e.target.id == "search") search_prompt();
		else if (e.target.id == "ignorecase") toggle_ignorecase();
	}, false)

	// mouse-over for info
	// show
	window.addEventListener("mouseover", function(e) {
		var target = find_group(e.target);
		if (target) details.nodeValue = "Function: " + g_to_text(target);
	}, false)

	// clear
	window.addEventListener("mouseout", function(e) {
		var target = find_group(e.target);
		if (target) details.nodeValue = ' ';
	}, false)

	// ctrl-F for search
	// ctrl-I to toggle case-sensitive search
	window.addEventListener("keydown",function (e) {
		if (e.keyCode === 114 || (e.ctrlKey && e.keyCode === 70)) {
			e.preventDefault();
			search_prompt();
		}
		else if (e.ctrlKey && e.keyCode === 73) {
			e.preventDefault();
			toggle_ignorecase();
		}
	}, false)

	// functions
	function get_params() {
		var params = {};
		var paramsarr = window.location.search.substr(1).split('&');
		for (var i = 0; i < paramsarr.length; ++i) {
			var tmp = paramsarr[i].split("=");
			if (!tmp[0] || !tmp[1]) continue;
			params[tmp[0]]  = decodeURIComponent(tmp[1]);
		}
		return params;
	}
	function parse_params(params) {
		var uri = "?";
		for (var key in params) {
			uri += key + '=' + encodeURIComponent(params[key]) + '&';
		}
		if (uri.slice(-1) == "&")
			uri = uri.substring(0, uri.length - 1);
		if (uri == '?')
			uri = window.location.href.split('?')[0];
		return uri;
	}
	function find_child(node, selector) {
		var children = node.querySelectorAll(selector);
		if (children.length) return children[0];
	}
	function find_group(node) {
		var parent = node.parentElement;
		if (!parent) return;
		if (parent.id == "frames") return node;
		return find_group(parent);
	}
	function orig_save(e, attr, val) {
		if (e.attributes["_orig_" + attr] != undefined) return;
		if (e.attributes[attr] == undefined) return;
		if (val == undefined) val = e.attributes[attr].value;
		e.setAttribute("_orig_" + attr, val);
	}
	function orig_load(e, attr) {
		if (e.attributes["_orig_"+attr] == undefined) return;
		e.attributes[attr].value = e.attributes["_orig_" + attr].value;
		e.removeAttribute("_orig_"+attr);
	}
	function g_to_text(e) {
		var text = find_child(e, "title").firstChild.nodeValue;
		return (text)
	}
	function g_to_func(e) {
		var func = g_to_text(e);
		// if there's any manipulation we want to do to the function
		// name before it's searched, do it here before returning.
		return (func);
	}
	function update_text(e) {
		var r = find_child(e, "rect");
		var t = find_child(e, "text");
		var w = parseFloat(r.attributes.width.value) -3;
		var txt = find_child(e, "title").textContent.replace(/\([^(]*\)$/,"");
		t.attributes.x.value = parseFloat(r.attributes.x.value) + 3;

		// Smaller than this size won't fit anything
		if (w < 2 * 13 * 0.59) {
			t.textContent = "";
			return;
		}

		t.textContent = txt;
		// Fit in full text width
		if (/^ *$/.test(txt) || t.getSubStringLength(0, txt.length) < w)
			return;

		for (var x = txt.length - 2; x > 0; x--) {
			if (t.getSubStringLength(0, x + 2) <= w) {
				t.textContent = txt.substring(0, x) + "..";
				return;
			}
		}
		t.textContent = "";
	}

	// zoom
	function zoom_reset(e) {
		if (e.attributes != undefined) {
			orig_load(e, "x");
			orig_load(e, "width");
		}
		if (e.childNodes == undefined) return;
		for (var i = 0, c = e.childNodes; i < c.length; i++) {
			zoom_reset(c[i]);
		}
	}
	function zoom_child(e, x, ratio) {
		if (e.attributes != undefined) {
			if (e.attributes.x != undefined) {
				orig_save(e, "x");
				e.attributes.x.value = (parseFloat(e.attributes.x.value) - x - 10) * ratio + 10;
				if (e.tagName == "text")
					e.attributes.x.value = find_child(e.parentNode, "rect[x]").attributes.x.value + 3;
			}
			if (e.attributes.width != undefined) {
				orig_save(e, "width");
				e.attributes.width.value = parseFloat(e.attributes.width.value) * ratio;
			}
		}

		if (e.childNodes == undefined) return;
		for (var i = 0, c = e.childNodes; i < c.length; i++) {
			zoom_child(c[i], x - 10, ratio);
		}
	}
	function zoom_parent(e) {
		if (e.attributes) {
			if (e.attributes.x != undefined) {
				orig_save(e, "x");
				e.attributes.x.value = 10;
			}
			if (e.attributes.width != undefined) {
				orig_save(e, "width");
				e.attributes.width.value = parseInt(svg.width.baseVal.value) - (10 * 2);
			}
		}
		if (e.childNodes == undefined) return;
		for (var i = 0, c = e.childNodes; i < c.length; i++) {
			zoom_parent(c[i]);
		}
	}
	function zoom(node) {
		var attr = find_child(node, "rect").attributes;
		var width = parseFloat(attr.width.value);
		var xmin = parseFloat(attr.x.value);
		var xmax = parseFloat(xmin + width);
		var ymin = parseFloat(attr.y.value);
		var ratio = (svg.width.baseVal.value - 2 * 10) / width;

		// XXX: Workaround for JavaScript float issues (fix me)
		var fudge = 0.0001;

		unzoombtn.classList.remove("hide");

		var el = document.getElementById("frames").children;
		for (var i = 0; i < el.length; i++) {
			var e = el[i];
			var a = find_child(e, "rect").attributes;
			var ex = parseFloat(a.x.value);
			var ew = parseFloat(a.width.value);
			var upstack;
			// Is it an ancestor
			if (1 == 0) {
				upstack = parseFloat(a.y.value) > ymin;
			} else {
				upstack = parseFloat(a.y.value) < ymin;
			}
			if (upstack) {
				// Direct ancestor
				if (ex <= xmin && (ex+ew+fudge) >= xmax) {
					e.classList.add("parent");
					zoom_parent(e);
					update_text(e);
				}
				// not in current path
				else
					e.classList.add("hide");
			}
			// Children maybe
			else {
				// no common path
				if (ex < xmin || ex + fudge >= xmax) {
					e.classList.add("hide");
				}
				else {
					zoom_child(e, xmin, ratio);
					update_text(e);
				}
			}
		}
		search();
	}
	function unzoom() {
		unzoombtn.classList.add("hide");
		var el = document.getElementById("frames").children;
		for(var i = 0; i < el.length; i++) {
			el[i].classList.remove("parent");
			el[i].classList.remove("hide");
			zoom_reset(el[i]);
			update_text(el[i]);
		}
		search();
	}
	function clearzoom() {
		unzoom();

		// remove zoom state
		var params = get_params();
		if (params.x) delete params.x;
		if (params.y) delete params.y;
		history.replaceState(null, null, parse_params(params));
	}

	// search
	function toggle_ignorecase() {
		ignorecase = !ignorecase;
		if (ignorecase) {
			ignorecaseBtn.classList.add("show");
		} else {
			ignorecaseBtn.classList.remove("show");
		}
		reset_search();
		search();
	}
	function reset_search() {
		var el = document.querySelectorAll("#frames rect");
		for (var i = 0; i < el.length; i++) {
			orig_load(el[i], "fill")
		}
		var params = get_params();
		delete params.s;
		history.replaceState(null, null, parse_params(params));
	}
	function search_prompt() {
		if (!searching) {
			var term = prompt("Enter a search term (regexp " +
			    "allowed, eg: ^ext4_)"
			    + (ignorecase ? ", ignoring case" : "")
			    + "\nPress Ctrl-i to toggle case sensitivity", "");
			if (term != null) search(term);
		} else {
			reset_search();
			searching = 0;
			currentSearchTerm = null;
			searchbtn.classList.remove("show");
			searchbtn.firstChild.nodeValue = "Search"
			matchedtxt.classList.add("hide");
			matchedtxt.firstChild.nodeValue = ""
		}
	}
	function search(term) {
		if (term) currentSearchTerm = term;

		var re = new RegExp(currentSearchTerm, ignorecase ? 'i' : '');
		var el = document.getElementById("frames").children;
		var matches = new Object();
		var maxwidth = 0;
		for (var i = 0; i < el.length; i++) {
			var e = el[i];
			var func = g_to_func(e);
			var rect = find_child(e, "rect");
			if (func == null || rect == null)
				continue;

			// Save max width. Only works as we have a root frame
			var w = parseFloat(rect.attributes.width.value);
			if (w > maxwidth)
				maxwidth = w;

			if (func.match(re)) {
				// highlight
				var x = parseFloat(rect.attributes.x.value);
				orig_save(rect, "fill");
				rect.attributes.fill.value = "rgb(230,0,230)";

				// remember matches
				if (matches[x] == undefined) {
					matches[x] = w;
				} else {
					if (w > matches[x]) {
						// overwrite with parent
						matches[x] = w;
					}
				}
				searching = 1;
			}
		}
		if (!searching)
			return;
		var params = get_params();
		params.s = currentSearchTerm;
		history.replaceState(null, null, parse_params(params));

		searchbtn.classList.add("show");
		searchbtn.firstChild.nodeValue = "Reset Search";

		// calculate percent matched, excluding vertical overlap
		var count = 0;
		var lastx = -1;
		var lastw = 0;
		var keys = Array();
		for (k in matches) {
			if (matches.hasOwnProperty(k))
				keys.push(k);
		}
		// sort the matched frames by their x location
		// ascending, then width descending
		keys.sort(function(a, b){
			return a - b;
		});
		// Step through frames saving only the biggest bottom-up frames
		// thanks to the sort order. This relies on the tree property
		// where children are always smaller than their parents.
		var fudge = 0.0001;	// JavaScript floating point
		for (var k in keys) {
			var x = parseFloat(keys[k]);
			var w = matches[keys[k]];
			if (x >= lastx + lastw - fudge) {
				count += w;
				lastx = x;
				lastw = w;
			}
		}
		// display matched percent
		matchedtxt.classList.remove("hide");
		var pct = 100 * count / maxwidth;
		if (pct != 100) pct = pct.toFixed(1)
		matchedtxt.firstChild.nodeValue = "Matched: " + pct + "%";
	}
]]>
</script>
<rect x="0.0" y="0" width="1200.0" height="331.0" fill="url(#background)"  />
<text id="title" x="600.00" y="26" >Firedrake example</text>
<text id="details" x="10.00" y="313" > </text>
<text id="unzoom" x="10.00" y="26" class="hide">Reset Zoom</text>
<text id="search" x="1090.00" y="26" >Search</text>
<text id="ignorecase" x="1174.00" y="26" >ic</text>
<text id="matched" x="1090.00" y="313" > </text>
<g id="frames">
<g >
<title>firedrake.tsfc_interface.compile_form (58,342 us, 0.01%)</title><rect x="1189.9" y="119" width="0.1" height="15.0" fill="rgb(0,0,0)" rx="2" ry="2" />
<text  x="1192.85" y="129.5" ></text>
</g>
<g >
<title>firedrake.projection.project (24,981,337 us, 5.42%)</title><rect x="16.7" y="87" width="64.0" height="15.0" fill="rgb(0,0,0)" rx="2" ry="2" />
<text  x="19.74" y="97.5" >firedr..</text>
</g>
<g >
<title>MatPtAPNumeric (102,240 us, 0.02%)</title><rect x="811.9" y="199" width="0.2" height="15.0" fill="rgb(0,0,0)" rx="2" ry="2" />
<text  x="814.85" y="209.5" ></text>
</g>
<g >
<title>MatMult (1,111,191 us, 0.24%)</title><rect x="812.6" y="199" width="2.9" height="15.0" fill="rgb(0,0,0)" rx="2" ry="2" />
<text  x="815.63" y="209.5" ></text>
</g>
<g >
<title>Log_Event_form00_cell_integral_otherwise (739,853 us, 0.16%)</title><rect x="21.1" y="151" width="1.9" height="15.0" fill="rgb(0,0,0)" rx="2" ry="2" />
<text  x="24.11" y="161.5" ></text>
</g>
<g >
<title>CreateSparsity (13,253,080 us, 2.87%)</title><rect x="23.2" y="135" width="33.9" height="15.0" fill="rgb(0,0,0)" rx="2" ry="2" />
<text  x="26.20" y="145.5" >Cr..</text>
</g>
<g >
<title>MatResidual (9,239,034 us, 2.00%)</title><rect x="749.8" y="183" width="23.6" height="15.0" fill="rgb(0,0,0)" rx="2" ry="2" />
<text  x="752.75" y="193.5" >M..</text>
</g>
<g >
<title>Parloop_set_#x7f4f6e2fc880_wrap_expression_kernel (47,346 us, 0.01%)</title><rect x="16.4" y="135" width="0.1" height="15.0" fill="rgb(0,0,0)" rx="2" ry="2" />
<text  x="19.41" y="145.5" ></text>
</g>
<g >
<title>firedrake.variational_solver.NonlinearVariationalSolver.solve (405,955,061 us, 88.02%)</title><rect x="151.4" y="71" width="1038.6" height="15.0" fill="rgb(0,0,0)" rx="2" ry="2" />
<text  x="154.36" y="81.5" >firedrake.variational_solver.NonlinearVariationalSolver.solve</text>
</g>
<g >
<title>Parloop_Cells_wrap_form00_cell_integral_otherwise (2,449,163 us, 0.53%)</title><rect x="16.9" y="135" width="6.3" height="15.0" fill="rgb(0,0,0)" rx="2" ry="2" />
<text  x="19.94" y="145.5" ></text>
</g>
<g >
<title>firedrake.assemble_expressions.assemble_expression (127,519 us, 0.03%)</title><rect x="16.4" y="87" width="0.3" height="15.0" fill="rgb(0,0,0)" rx="2" ry="2" />
<text  x="19.41" y="97.5" ></text>
</g>
<g >
<title>Log_Event_form01_cell_integral_otherwise (324,768 us, 0.07%)</title><rect x="1186.6" y="151" width="0.8" height="15.0" fill="rgb(0,0,0)" rx="2" ry="2" />
<text  x="1189.58" y="161.5" ></text>
</g>
<g >
<title>PCGAMG Gal l02 (129,630 us, 0.03%)</title><rect x="812.3" y="183" width="0.3" height="15.0" fill="rgb(0,0,0)" rx="2" ry="2" />
<text  x="815.30" y="193.5" ></text>
</g>
<g >
<title>  MIS/Agg (76,090 us, 0.02%)</title><rect x="773.5" y="199" width="0.2" height="15.0" fill="rgb(0,0,0)" rx="2" ry="2" />
<text  x="776.51" y="209.5" ></text>
</g>
<g >
<title>MatPtAPSymbolic (400,690 us, 0.09%)</title><rect x="810.8" y="199" width="1.1" height="15.0" fill="rgb(0,0,0)" rx="2" ry="2" />
<text  x="813.83" y="209.5" ></text>
</g>
<g >
<title>firedrake.norms.errornorm (323,451 us, 0.07%)</title><rect x="80.7" y="71" width="0.8" height="15.0" fill="rgb(0,0,0)" rx="2" ry="2" />
<text  x="83.66" y="81.5" ></text>
</g>
<g >
<title>VecAYPX (239,069 us, 0.05%)</title><rect x="1084.9" y="231" width="0.6" height="15.0" fill="rgb(0,0,0)" rx="2" ry="2" />
<text  x="1087.91" y="241.5" ></text>
</g>
<g >
<title>pyop2.global_kernel.GlobalKernel.compile (137,966 us, 0.03%)</title><rect x="80.7" y="151" width="0.3" height="15.0" fill="rgb(0,0,0)" rx="2" ry="2" />
<text  x="83.66" y="161.5" ></text>
</g>
<g >
<title>MatSolve (4,374,685 us, 0.95%)</title><rect x="1124.5" y="215" width="11.2" height="15.0" fill="rgb(0,0,0)" rx="2" ry="2" />
<text  x="1127.52" y="225.5" ></text>
</g>
<g >
<title>PCSetUp (7,258,390 us, 1.57%)</title><rect x="1159.1" y="103" width="18.6" height="15.0" fill="rgb(0,0,0)" rx="2" ry="2" />
<text  x="1162.11" y="113.5" ></text>
</g>
<g >
<title>PCSetUpOnBlocks (4,170,027 us, 0.90%)</title><rect x="1135.7" y="151" width="10.7" height="15.0" fill="rgb(0,0,0)" rx="2" ry="2" />
<text  x="1138.71" y="161.5" ></text>
</g>
<g >
<title>PCGAMGCoarse_AGG (7,802,355 us, 1.69%)</title><rect x="773.4" y="183" width="20.0" height="15.0" fill="rgb(0,0,0)" rx="2" ry="2" />
<text  x="776.39" y="193.5" ></text>
</g>
<g >
<title>MatMultTranspose (161,536 us, 0.04%)</title><rect x="1085.9" y="215" width="0.4" height="15.0" fill="rgb(0,0,0)" rx="2" ry="2" />
<text  x="1088.90" y="225.5" ></text>
</g>
<g >
<title>PCGAMG Gal l00 (1,380,572 us, 0.30%)</title><rect x="808.3" y="183" width="3.6" height="15.0" fill="rgb(0,0,0)" rx="2" ry="2" />
<text  x="811.32" y="193.5" ></text>
</g>
<g >
<title>Parloop_Cells_wrap_form1_cell_integral_otherwise (72,965 us, 0.02%)</title><rect x="1178.0" y="135" width="0.2" height="15.0" fill="rgb(0,0,0)" rx="2" ry="2" />
<text  x="1181.01" y="145.5" ></text>
</g>
<g >
<title>MatMult (9,255,573 us, 2.01%)</title><rect x="459.0" y="199" width="23.7" height="15.0" fill="rgb(0,0,0)" rx="2" ry="2" />
<text  x="462.03" y="209.5" >M..</text>
</g>
<g >
<title>KSPSolve (2,413,339 us, 0.52%)</title><rect x="812.6" y="183" width="6.2" height="15.0" fill="rgb(0,0,0)" rx="2" ry="2" />
<text  x="815.63" y="193.5" ></text>
</g>
<g >
<title>MatAssemblyEnd (92,474 us, 0.02%)</title><rect x="57.1" y="135" width="0.2" height="15.0" fill="rgb(0,0,0)" rx="2" ry="2" />
<text  x="60.11" y="145.5" ></text>
</g>
<g >
<title>MatPtAPSymbolic (57,248 us, 0.01%)</title><rect x="812.5" y="199" width="0.1" height="15.0" fill="rgb(0,0,0)" rx="2" ry="2" />
<text  x="815.48" y="209.5" ></text>
</g>
<g >
<title>CreateExtMesh (70,928 us, 0.02%)</title><rect x="12.4" y="71" width="0.2" height="15.0" fill="rgb(0,0,0)" rx="2" ry="2" />
<text  x="15.38" y="81.5" ></text>
</g>
<g >
<title>MatMultAdd (141,523 us, 0.03%)</title><rect x="749.0" y="183" width="0.4" height="15.0" fill="rgb(0,0,0)" rx="2" ry="2" />
<text  x="751.99" y="193.5" ></text>
</g>
<g >
<title>MatMatMultNum (310,061 us, 0.07%)</title><rect x="803.4" y="231" width="0.8" height="15.0" fill="rgb(0,0,0)" rx="2" ry="2" />
<text  x="806.43" y="241.5" ></text>
</g>
<g >
<title>ParLoopExecute (199,134 us, 0.04%)</title><rect x="1177.7" y="119" width="0.5" height="15.0" fill="rgb(0,0,0)" rx="2" ry="2" />
<text  x="1180.68" y="129.5" ></text>
</g>
<g >
<title>CreateSparsity (21,101,253 us, 4.58%)</title><rect x="81.5" y="103" width="54.0" height="15.0" fill="rgb(0,0,0)" rx="2" ry="2" />
<text  x="84.48" y="113.5" >Creat..</text>
</g>
<g >
<title>PCApply (4,374,685 us, 0.95%)</title><rect x="1124.5" y="199" width="11.2" height="15.0" fill="rgb(0,0,0)" rx="2" ry="2" />
<text  x="1127.52" y="209.5" ></text>
</g>
<g >
<title>Parloop_Cells_wrap_form00_cell_integral_otherwise (2,351,580 us, 0.51%)</title><rect x="1178.7" y="135" width="6.0" height="15.0" fill="rgb(0,0,0)" rx="2" ry="2" />
<text  x="1181.72" y="145.5" ></text>
</g>
<g >
<title>Parloop_set_#x7f4f774ba8c0_wrap_expression_kernel (80,173 us, 0.02%)</title><rect x="16.5" y="135" width="0.2" height="15.0" fill="rgb(0,0,0)" rx="2" ry="2" />
<text  x="19.54" y="145.5" ></text>
</g>
<g >
<title>MatSOR (57,259,067 us, 12.42%)</title><rect x="310.2" y="247" width="146.5" height="15.0" fill="rgb(0,0,0)" rx="2" ry="2" />
<text  x="313.18" y="257.5" >MatSOR</text>
</g>
<g >
<title>MatMult (46,237,332 us, 10.03%)</title><rect x="482.7" y="199" width="118.3" height="15.0" fill="rgb(0,0,0)" rx="2" ry="2" />
<text  x="485.71" y="209.5" >MatMult</text>
</g>
<g >
<title>  Graph (3,850,357 us, 0.83%)</title><rect x="793.4" y="199" width="9.8" height="15.0" fill="rgb(0,0,0)" rx="2" ry="2" />
<text  x="796.35" y="209.5" ></text>
</g>
<g >
<title>SNESSolve (405,955,061 us, 88.02%)</title><rect x="151.4" y="87" width="1038.6" height="15.0" fill="rgb(0,0,0)" rx="2" ry="2" />
<text  x="154.36" y="97.5" >SNESSolve</text>
</g>
<g >
<title>MatMult (46,316,500 us, 10.04%)</title><rect x="819.0" y="231" width="118.5" height="15.0" fill="rgb(0,0,0)" rx="2" ry="2" />
<text  x="821.96" y="241.5" >MatMult</text>
</g>
<g >
<title>MatMatMultSym (290,212 us, 0.06%)</title><rect x="804.2" y="231" width="0.8" height="15.0" fill="rgb(0,0,0)" rx="2" ry="2" />
<text  x="807.23" y="241.5" ></text>
</g>
<g >
<title>VecMDot (380,361 us, 0.08%)</title><rect x="152.4" y="135" width="0.9" height="15.0" fill="rgb(0,0,0)" rx="2" ry="2" />
<text  x="155.36" y="145.5" ></text>
</g>
<g >
<title>MatMult (9,239,034 us, 2.00%)</title><rect x="749.8" y="199" width="23.6" height="15.0" fill="rgb(0,0,0)" rx="2" ry="2" />
<text  x="752.75" y="209.5" >M..</text>
</g>
<g >
<title>PCApply (57,457,771 us, 12.46%)</title><rect x="310.2" y="199" width="147.0" height="15.0" fill="rgb(0,0,0)" rx="2" ry="2" />
<text  x="313.18" y="209.5" >PCApply</text>
</g>
<g >
<title>MatICCFactorSym (93,422 us, 0.02%)</title><rect x="80.4" y="151" width="0.3" height="15.0" fill="rgb(0,0,0)" rx="2" ry="2" />
<text  x="83.42" y="161.5" ></text>
</g>
<g >
<title>Log_Event_form00_cell_integral_otherwise (549,412 us, 0.12%)</title><rect x="1183.3" y="151" width="1.4" height="15.0" fill="rgb(0,0,0)" rx="2" ry="2" />
<text  x="1186.33" y="161.5" ></text>
</g>
<g >
<title>PCApply (57,225,896 us, 12.41%)</title><rect x="601.0" y="231" width="146.4" height="15.0" fill="rgb(0,0,0)" rx="2" ry="2" />
<text  x="604.01" y="241.5" >PCApply</text>
</g>
<g >
<title>MatMultAdd (142,772 us, 0.03%)</title><rect x="458.3" y="183" width="0.3" height="15.0" fill="rgb(0,0,0)" rx="2" ry="2" />
<text  x="461.26" y="193.5" ></text>
</g>
<g >
<title>MatMult (1,241,533 us, 0.27%)</title><rect x="805.0" y="215" width="3.1" height="15.0" fill="rgb(0,0,0)" rx="2" ry="2" />
<text  x="807.97" y="225.5" ></text>
</g>
<g >
<title>MatPtAPSymbolic (72,124 us, 0.02%)</title><rect x="812.1" y="199" width="0.2" height="15.0" fill="rgb(0,0,0)" rx="2" ry="2" />
<text  x="815.11" y="209.5" ></text>
</g>
<g >
<title>KSPSolve (104,106,231 us, 22.57%)</title><rect x="191.9" y="183" width="266.4" height="15.0" fill="rgb(0,0,0)" rx="2" ry="2" />
<text  x="194.90" y="193.5" >KSPSolve</text>
</g>
<g >
<title>PCApply (57,450,204 us, 12.46%)</title><rect x="937.5" y="231" width="147.0" height="15.0" fill="rgb(0,0,0)" rx="2" ry="2" />
<text  x="940.46" y="241.5" >PCApply</text>
</g>
<g >
<title>MatLUFactorNum (3,981,921 us, 0.86%)</title><rect x="1136.2" y="183" width="10.2" height="15.0" fill="rgb(0,0,0)" rx="2" ry="2" />
<text  x="1139.19" y="193.5" ></text>
</g>
<g >
<title>VecSet (206,847 us, 0.04%)</title><rect x="1083.9" y="263" width="0.6" height="15.0" fill="rgb(0,0,0)" rx="2" ry="2" />
<text  x="1086.92" y="273.5" ></text>
</g>
<g >
<title>KSPSolve (57,450,204 us, 12.46%)</title><rect x="937.5" y="247" width="147.0" height="15.0" fill="rgb(0,0,0)" rx="2" ry="2" />
<text  x="940.46" y="257.5" >KSPSolve</text>
</g>
<g >
<title>KSPSetUp (2,413,339 us, 0.52%)</title><rect x="812.6" y="167" width="6.2" height="15.0" fill="rgb(0,0,0)" rx="2" ry="2" />
<text  x="815.63" y="177.5" ></text>
</g>
<g >
<title>MatResidual (9,255,573 us, 2.01%)</title><rect x="459.0" y="183" width="23.7" height="15.0" fill="rgb(0,0,0)" rx="2" ry="2" />
<text  x="462.03" y="193.5" >M..</text>
</g>
<g >
<title>MatSOR (1,302,148 us, 0.28%)</title><rect x="815.5" y="247" width="3.3" height="15.0" fill="rgb(0,0,0)" rx="2" ry="2" />
<text  x="818.47" y="257.5" ></text>
</g>
<g >
<title>KSPSolve_FS_Low (131,361,489 us, 28.48%)</title><rect x="482.7" y="135" width="336.1" height="15.0" fill="rgb(0,0,0)" rx="2" ry="2" />
<text  x="485.71" y="145.5" >KSPSolve_FS_Low</text>
</g>
<g >
<title>Parloop_Cells_wrap_form10_cell_integral_otherwise (953,915 us, 0.21%)</title><rect x="1187.4" y="135" width="2.5" height="15.0" fill="rgb(0,0,0)" rx="2" ry="2" />
<text  x="1190.41" y="145.5" ></text>
</g>
<g >
<title>KSPSolve (104,076,474 us, 22.57%)</title><rect x="482.7" y="183" width="266.3" height="15.0" fill="rgb(0,0,0)" rx="2" ry="2" />
<text  x="485.71" y="193.5" >KSPSolve</text>
</g>
<g >
<title>MatZeroInitial (4,090,058 us, 0.89%)</title><rect x="57.3" y="135" width="10.5" height="15.0" fill="rgb(0,0,0)" rx="2" ry="2" />
<text  x="60.35" y="145.5" ></text>
</g>
<g >
<title>PCApply (1,302,148 us, 0.28%)</title><rect x="815.5" y="199" width="3.3" height="15.0" fill="rgb(0,0,0)" rx="2" ry="2" />
<text  x="818.47" y="209.5" ></text>
</g>
<g >
<title>PCGAMG Squ l00 (7,679,125 us, 1.67%)</title><rect x="773.7" y="199" width="19.7" height="15.0" fill="rgb(0,0,0)" rx="2" ry="2" />
<text  x="776.71" y="209.5" ></text>
</g>
<g >
<title>Log_Event_form0_cell_integral_otherwise (126,169 us, 0.03%)</title><rect x="1177.7" y="151" width="0.3" height="15.0" fill="rgb(0,0,0)" rx="2" ry="2" />
<text  x="1180.68" y="161.5" ></text>
</g>
<g >
<title>VecSet (198,345 us, 0.04%)</title><rect x="747.4" y="231" width="0.5" height="15.0" fill="rgb(0,0,0)" rx="2" ry="2" />
<text  x="750.43" y="241.5" ></text>
</g>
<g >
<title>Parloop_Cells_wrap_form0_cell_integral_otherwise (126,169 us, 0.03%)</title><rect x="1177.7" y="135" width="0.3" height="15.0" fill="rgb(0,0,0)" rx="2" ry="2" />
<text  x="1180.68" y="145.5" ></text>
</g>
<g >
<title>KSPSolve (1,308,818 us, 0.28%)</title><rect x="805.0" y="199" width="3.3" height="15.0" fill="rgb(0,0,0)" rx="2" ry="2" />
<text  x="807.97" y="209.5" ></text>
</g>
<g >
<title>firedrake.assemble.assemble (19,884,775 us, 4.31%)</title><rect x="16.9" y="103" width="50.9" height="15.0" fill="rgb(0,0,0)" rx="2" ry="2" />
<text  x="19.94" y="113.5" >fire..</text>
</g>
<g >
<title>MatTrnMatMultSym (7,679,125 us, 1.67%)</title><rect x="773.7" y="215" width="19.7" height="15.0" fill="rgb(0,0,0)" rx="2" ry="2" />
<text  x="776.71" y="225.5" ></text>
</g>
<g >
<title>PCGAMGPOpt_AGG (1,998,509 us, 0.43%)</title><rect x="803.2" y="183" width="5.1" height="15.0" fill="rgb(0,0,0)" rx="2" ry="2" />
<text  x="806.21" y="193.5" ></text>
</g>
<g >
<title>VecAXPBYCZ (181,212 us, 0.04%)</title><rect x="1084.5" y="231" width="0.4" height="15.0" fill="rgb(0,0,0)" rx="2" ry="2" />
<text  x="1087.45" y="241.5" ></text>
</g>
<g >
<title>MatMatMultSym (2,302,212 us, 0.50%)</title><rect x="1171.6" y="119" width="5.9" height="15.0" fill="rgb(0,0,0)" rx="2" ry="2" />
<text  x="1174.63" y="129.5" ></text>
</g>
<g >
<title>MatAXPY (1,066,218 us, 0.23%)</title><rect x="1159.4" y="119" width="2.7" height="15.0" fill="rgb(0,0,0)" rx="2" ry="2" />
<text  x="1162.40" y="129.5" ></text>
</g>
<g >
<title>ParLoopExecute (76,660 us, 0.02%)</title><rect x="16.7" y="103" width="0.2" height="15.0" fill="rgb(0,0,0)" rx="2" ry="2" />
<text  x="19.74" y="113.5" ></text>
</g>
<g >
<title>PCSetUp (4,113,046 us, 0.89%)</title><rect x="70.1" y="135" width="10.6" height="15.0" fill="rgb(0,0,0)" rx="2" ry="2" />
<text  x="73.13" y="145.5" ></text>
</g>
<g >
<title>KSPSolve (4,374,685 us, 0.95%)</title><rect x="1124.5" y="183" width="11.2" height="15.0" fill="rgb(0,0,0)" rx="2" ry="2" />
<text  x="1127.52" y="193.5" ></text>
</g>
<g >
<title>MatSOR (57,225,896 us, 12.41%)</title><rect x="601.0" y="247" width="146.4" height="15.0" fill="rgb(0,0,0)" rx="2" ry="2" />
<text  x="604.01" y="257.5" >MatSOR</text>
</g>
<g >
<title>MatScale (65,984 us, 0.01%)</title><rect x="1177.5" y="119" width="0.2" height="15.0" fill="rgb(0,0,0)" rx="2" ry="2" />
<text  x="1180.52" y="129.5" ></text>
</g>
<g >
<title>pyop2.global_kernel.GlobalKernel.compile (78,222 us, 0.02%)</title><rect x="23.0" y="151" width="0.2" height="15.0" fill="rgb(0,0,0)" rx="2" ry="2" />
<text  x="26.00" y="161.5" ></text>
</g>
<g >
<title>MatMult (15,025,695 us, 3.26%)</title><rect x="153.3" y="119" width="38.5" height="15.0" fill="rgb(0,0,0)" rx="2" ry="2" />
<text  x="156.34" y="129.5" >Mat..</text>
</g>
<g >
<title>MatScale (212,673 us, 0.05%)</title><rect x="802.7" y="215" width="0.5" height="15.0" fill="rgb(0,0,0)" rx="2" ry="2" />
<text  x="805.66" y="225.5" ></text>
</g>
<g >
<title>firedrake.linear_solver.LinearSolver.solve (5,019,902 us, 1.09%)</title><rect x="67.8" y="103" width="12.9" height="15.0" fill="rgb(0,0,0)" rx="2" ry="2" />
<text  x="70.81" y="113.5" ></text>
</g>
<g >
<title>MatMult (9,332,148 us, 2.02%)</title><rect x="1086.3" y="231" width="23.9" height="15.0" fill="rgb(0,0,0)" rx="2" ry="2" />
<text  x="1089.31" y="241.5" >M..</text>
</g>
<g >
<title>pyop2.global_kernel.GlobalKernel.compile (76,660 us, 0.02%)</title><rect x="16.7" y="135" width="0.2" height="15.0" fill="rgb(0,0,0)" rx="2" ry="2" />
<text  x="19.74" y="145.5" ></text>
</g>
<g >
<title>MatZeroEntries (203,736 us, 0.04%)</title><rect x="1178.2" y="119" width="0.5" height="15.0" fill="rgb(0,0,0)" rx="2" ry="2" />
<text  x="1181.19" y="129.5" ></text>
</g>
<g >
<title>MatCoarsen (76,090 us, 0.02%)</title><rect x="773.5" y="215" width="0.2" height="15.0" fill="rgb(0,0,0)" rx="2" ry="2" />
<text  x="776.51" y="225.5" ></text>
</g>
<g >
<title>ParLoopExecute (4,352,431 us, 0.94%)</title><rect x="1178.7" y="119" width="11.2" height="15.0" fill="rgb(0,0,0)" rx="2" ry="2" />
<text  x="1181.72" y="129.5" ></text>
</g>
<g >
<title>SNESJacobianEval (4,614,509 us, 1.00%)</title><rect x="1178.2" y="103" width="11.8" height="15.0" fill="rgb(0,0,0)" rx="2" ry="2" />
<text  x="1181.19" y="113.5" ></text>
</g>
<g >
<title>firedrake.tsfc_interface.compile_form (185,485 us, 0.04%)</title><rect x="81.0" y="119" width="0.5" height="15.0" fill="rgb(0,0,0)" rx="2" ry="2" />
<text  x="84.01" y="129.5" ></text>
</g>
<g >
<title>firedrake.assemble.allocate_matrix (27,311,722 us, 5.92%)</title><rect x="81.5" y="87" width="69.9" height="15.0" fill="rgb(0,0,0)" rx="2" ry="2" />
<text  x="84.48" y="97.5" >firedra..</text>
</g>
<g >
<title>MatCholFctrNum (4,019,624 us, 0.87%)</title><rect x="70.1" y="151" width="10.3" height="15.0" fill="rgb(0,0,0)" rx="2" ry="2" />
<text  x="73.13" y="161.5" ></text>
</g>
<g >
<title>PCSetUp (4,170,027 us, 0.90%)</title><rect x="1135.7" y="167" width="10.7" height="15.0" fill="rgb(0,0,0)" rx="2" ry="2" />
<text  x="1138.71" y="177.5" ></text>
</g>
<g >
<title>Parloop_Cells_wrap_form_cell_integral_otherwise (137,966 us, 0.03%)</title><rect x="80.7" y="135" width="0.3" height="15.0" fill="rgb(0,0,0)" rx="2" ry="2" />
<text  x="83.66" y="145.5" ></text>
</g>
<g >
<title>KSPSolve (906,856 us, 0.20%)</title><rect x="67.8" y="119" width="2.3" height="15.0" fill="rgb(0,0,0)" rx="2" ry="2" />
<text  x="70.81" y="129.5" ></text>
</g>
<g >
<title>MatMult (119,427,048 us, 25.89%)</title><rect x="819.0" y="167" width="305.5" height="15.0" fill="rgb(0,0,0)" rx="2" ry="2" />
<text  x="821.96" y="177.5" >MatMult</text>
</g>
<g >
<title>PCApply (113,825,602 us, 24.68%)</title><rect x="819.0" y="199" width="291.2" height="15.0" fill="rgb(0,0,0)" rx="2" ry="2" />
<text  x="821.96" y="209.5" >PCApply</text>
</g>
<g >
<title>KSPSolve (123,864,192 us, 26.86%)</title><rect x="818.8" y="151" width="316.9" height="15.0" fill="rgb(0,0,0)" rx="2" ry="2" />
<text  x="821.80" y="161.5" >KSPSolve</text>
</g>
<g >
<title>firedrake.assemble.assemble (127,519 us, 0.03%)</title><rect x="16.4" y="71" width="0.3" height="15.0" fill="rgb(0,0,0)" rx="2" ry="2" />
<text  x="19.41" y="81.5" ></text>
</g>
<g >
<title>MatMultAdd (698,191 us, 0.15%)</title><rect x="1122.7" y="183" width="1.8" height="15.0" fill="rgb(0,0,0)" rx="2" ry="2" />
<text  x="1125.73" y="193.5" ></text>
</g>
<g >
<title>KSPGMRESOrthog (667,518 us, 0.14%)</title><rect x="151.6" y="119" width="1.7" height="15.0" fill="rgb(0,0,0)" rx="2" ry="2" />
<text  x="154.63" y="129.5" ></text>
</g>
<g >
<title>PCApply (378,085,315 us, 81.98%)</title><rect x="191.8" y="119" width="967.3" height="15.0" fill="rgb(0,0,0)" rx="2" ry="2" />
<text  x="194.78" y="129.5" >PCApply</text>
</g>
<g >
<title>MatMult (378,073 us, 0.08%)</title><rect x="67.8" y="135" width="1.0" height="15.0" fill="rgb(0,0,0)" rx="2" ry="2" />
<text  x="70.81" y="145.5" ></text>
</g>
<g >
<title>MatMultTranspose (155,332 us, 0.03%)</title><rect x="749.4" y="183" width="0.4" height="15.0" fill="rgb(0,0,0)" rx="2" ry="2" />
<text  x="752.36" y="193.5" ></text>
</g>
<g >
<title>KSPSolve_FS_0 (113,665,011 us, 24.65%)</title><rect x="191.9" y="135" width="290.8" height="15.0" fill="rgb(0,0,0)" rx="2" ry="2" />
<text  x="194.90" y="145.5" >KSPSolve_FS_0</text>
</g>
<g >
<title>firedrake.assemble.assemble (323,451 us, 0.07%)</title><rect x="80.7" y="103" width="0.8" height="15.0" fill="rgb(0,0,0)" rx="2" ry="2" />
<text  x="83.66" y="113.5" ></text>
</g>
<g >
<title>KSPSolve (104,186,985 us, 22.59%)</title><rect x="819.0" y="215" width="266.5" height="15.0" fill="rgb(0,0,0)" rx="2" ry="2" />
<text  x="821.96" y="225.5" >KSPSolve</text>
</g>
<g >
<title>KSPSolve (393,883,028 us, 85.40%)</title><rect x="151.4" y="103" width="1007.7" height="15.0" fill="rgb(0,0,0)" rx="2" ry="2" />
<text  x="154.36" y="113.5" >KSPSolve</text>
</g>
<g >
<title>GAMG: createProl (13,651,221 us, 2.96%)</title><rect x="773.4" y="167" width="34.9" height="15.0" fill="rgb(0,0,0)" rx="2" ry="2" />
<text  x="776.39" y="177.5" >GA..</text>
</g>
<g >
<title>firedrake.__init__ (1,506,303 us, 0.33%)</title><rect x="12.6" y="71" width="3.8" height="15.0" fill="rgb(0,0,0)" rx="2" ry="2" />
<text  x="15.56" y="81.5" ></text>
</g>
<g >
<title>MatILUFactorSym (188,106 us, 0.04%)</title><rect x="1135.7" y="183" width="0.5" height="15.0" fill="rgb(0,0,0)" rx="2" ry="2" />
<text  x="1138.71" y="193.5" ></text>
</g>
<g >
<title>Parloop_Cells_wrap_form01_cell_integral_otherwise (1,046,936 us, 0.23%)</title><rect x="1184.7" y="135" width="2.7" height="15.0" fill="rgb(0,0,0)" rx="2" ry="2" />
<text  x="1187.73" y="145.5" ></text>
</g>
<g >
<title>Log_Event_form10_cell_integral_otherwise (152,008 us, 0.03%)</title><rect x="1189.5" y="151" width="0.4" height="15.0" fill="rgb(0,0,0)" rx="2" ry="2" />
<text  x="1192.46" y="161.5" ></text>
</g>
<g >
<title>VecAXPBYCZ (178,462 us, 0.04%)</title><rect x="747.9" y="199" width="0.5" height="15.0" fill="rgb(0,0,0)" rx="2" ry="2" />
<text  x="750.93" y="209.5" ></text>
</g>
<g >
<title>MatMult (46,231,219 us, 10.02%)</title><rect x="191.9" y="199" width="118.3" height="15.0" fill="rgb(0,0,0)" rx="2" ry="2" />
<text  x="194.90" y="209.5" >MatMult</text>
</g>
<g >
<title>MatAssemblyEnd (167,239 us, 0.04%)</title><rect x="801.1" y="215" width="0.5" height="15.0" fill="rgb(0,0,0)" rx="2" ry="2" />
<text  x="804.14" y="225.5" ></text>
</g>
<g >
<title>PCApply (4,374,685 us, 0.95%)</title><rect x="1124.5" y="167" width="11.2" height="15.0" fill="rgb(0,0,0)" rx="2" ry="2" />
<text  x="1127.52" y="177.5" ></text>
</g>
<g >
<title>MatMult (4,886,453 us, 1.06%)</title><rect x="1146.4" y="135" width="12.5" height="15.0" fill="rgb(0,0,0)" rx="2" ry="2" />
<text  x="1149.38" y="145.5" ></text>
</g>
<g >
<title>VecAXPBYCZ (181,191 us, 0.04%)</title><rect x="457.2" y="199" width="0.5" height="15.0" fill="rgb(0,0,0)" rx="2" ry="2" />
<text  x="460.19" y="209.5" ></text>
</g>
<g >
<title>KSPSolve (1,302,148 us, 0.28%)</title><rect x="815.5" y="215" width="3.3" height="15.0" fill="rgb(0,0,0)" rx="2" ry="2" />
<text  x="818.47" y="225.5" ></text>
</g>
<g >
<title>MatMultTranspose (160,435 us, 0.03%)</title><rect x="458.6" y="183" width="0.4" height="15.0" fill="rgb(0,0,0)" rx="2" ry="2" />
<text  x="461.62" y="193.5" ></text>
</g>
<g >
<title>MatResidual (9,332,148 us, 2.02%)</title><rect x="1086.3" y="215" width="23.9" height="15.0" fill="rgb(0,0,0)" rx="2" ry="2" />
<text  x="1089.31" y="225.5" >M..</text>
</g>
<g >
<title>MatSolve (528,783 us, 0.11%)</title><rect x="68.8" y="183" width="1.3" height="15.0" fill="rgb(0,0,0)" rx="2" ry="2" />
<text  x="71.78" y="193.5" ></text>
</g>
<g >
<title>MatConvert (117,808 us, 0.03%)</title><rect x="1162.1" y="119" width="0.3" height="15.0" fill="rgb(0,0,0)" rx="2" ry="2" />
<text  x="1165.13" y="129.5" ></text>
</g>
<g >
<title>firedrake.assemble_expressions.evaluate_expression (127,519 us, 0.03%)</title><rect x="16.4" y="103" width="0.3" height="15.0" fill="rgb(0,0,0)" rx="2" ry="2" />
<text  x="19.41" y="113.5" ></text>
</g>
<g >
<title>ParLoopExecute (2,449,163 us, 0.53%)</title><rect x="16.9" y="119" width="6.3" height="15.0" fill="rgb(0,0,0)" rx="2" ry="2" />
<text  x="19.94" y="129.5" ></text>
</g>
<g >
<title>KSPSolve (113,612,363 us, 24.63%)</title><rect x="482.7" y="151" width="290.7" height="15.0" fill="rgb(0,0,0)" rx="2" ry="2" />
<text  x="485.71" y="161.5" >KSPSolve</text>
</g>
<g >
<title>PCSetUpOnBlocks (4,113,046 us, 0.89%)</title><rect x="70.1" y="119" width="10.6" height="15.0" fill="rgb(0,0,0)" rx="2" ry="2" />
<text  x="73.13" y="129.5" ></text>
</g>
<g >
<title>firedrake.assemble.allocate_matrix (17,435,612 us, 3.78%)</title><rect x="23.2" y="119" width="44.6" height="15.0" fill="rgb(0,0,0)" rx="2" ry="2" />
<text  x="26.20" y="129.5" >fir..</text>
</g>
<g >
<title>MatMult (4,903,255 us, 1.06%)</title><rect x="1110.2" y="183" width="12.5" height="15.0" fill="rgb(0,0,0)" rx="2" ry="2" />
<text  x="1113.19" y="193.5" ></text>
</g>
<g >
<title>MatMatMultNum (1,925,017 us, 0.42%)</title><rect x="1166.7" y="119" width="4.9" height="15.0" fill="rgb(0,0,0)" rx="2" ry="2" />
<text  x="1169.70" y="129.5" ></text>
</g>
<g >
<title>PCGAMGGraph_AGG (3,850,357 us, 0.83%)</title><rect x="793.4" y="183" width="9.8" height="15.0" fill="rgb(0,0,0)" rx="2" ry="2" />
<text  x="796.35" y="193.5" ></text>
</g>
<g >
<title>PCApply (57,259,067 us, 12.42%)</title><rect x="310.2" y="231" width="146.5" height="15.0" fill="rgb(0,0,0)" rx="2" ry="2" />
<text  x="313.18" y="241.5" >PCApply</text>
</g>
<g >
<title>VecAYPX (236,439 us, 0.05%)</title><rect x="748.4" y="199" width="0.6" height="15.0" fill="rgb(0,0,0)" rx="2" ry="2" />
<text  x="751.39" y="209.5" ></text>
</g>
<g >
<title>PCGAMG Opt l00 (600,273 us, 0.13%)</title><rect x="803.4" y="215" width="1.6" height="15.0" fill="rgb(0,0,0)" rx="2" ry="2" />
<text  x="806.43" y="225.5" ></text>
</g>
<g >
<title>PCApply (528,783 us, 0.11%)</title><rect x="68.8" y="167" width="1.3" height="15.0" fill="rgb(0,0,0)" rx="2" ry="2" />
<text  x="71.78" y="177.5" ></text>
</g>
<g >
<title>KSPSolve_FS_Schu (128,034,219 us, 27.76%)</title><rect x="818.8" y="135" width="327.6" height="15.0" fill="rgb(0,0,0)" rx="2" ry="2" />
<text  x="821.80" y="145.5" >KSPSolve_FS_Schu</text>
</g>
<g >
<title>MatAssemblyEnd (135,369 us, 0.03%)</title><rect x="135.5" y="103" width="0.3" height="15.0" fill="rgb(0,0,0)" rx="2" ry="2" />
<text  x="138.47" y="113.5" ></text>
</g>
<g >
<title>firedrake.variational_solver.NonlinearVariationalSolver.__init__ (27,311,722 us, 5.92%)</title><rect x="81.5" y="71" width="69.9" height="15.0" fill="rgb(0,0,0)" rx="2" ry="2" />
<text  x="84.48" y="81.5" >firedra..</text>
</g>
<g >
<title>KSPSolve (57,457,771 us, 12.46%)</title><rect x="310.2" y="215" width="147.0" height="15.0" fill="rgb(0,0,0)" rx="2" ry="2" />
<text  x="313.18" y="225.5" >KSPSolve</text>
</g>
<g >
<title>GAMG: partLevel (1,684,566 us, 0.37%)</title><rect x="808.3" y="167" width="4.3" height="15.0" fill="rgb(0,0,0)" rx="2" ry="2" />
<text  x="811.32" y="177.5" ></text>
</g>
<g >
<title>PCApply (57,243,357 us, 12.41%)</title><rect x="937.5" y="263" width="146.4" height="15.0" fill="rgb(0,0,0)" rx="2" ry="2" />
<text  x="940.46" y="273.5" >PCApply</text>
</g>
<g >
<title>PCApply (528,783 us, 0.11%)</title><rect x="68.8" y="135" width="1.3" height="15.0" fill="rgb(0,0,0)" rx="2" ry="2" />
<text  x="71.78" y="145.5" ></text>
</g>
<g >
<title>ParLoopExecute (127,519 us, 0.03%)</title><rect x="16.4" y="119" width="0.3" height="15.0" fill="rgb(0,0,0)" rx="2" ry="2" />
<text  x="19.41" y="129.5" ></text>
</g>
<g >
<title>MatCreateSubMats (1,668,893 us, 0.36%)</title><rect x="1162.4" y="119" width="4.3" height="15.0" fill="rgb(0,0,0)" rx="2" ry="2" />
<text  x="1165.43" y="129.5" ></text>
</g>
<g >
<title>MatConvert (427,332 us, 0.09%)</title><rect x="801.6" y="215" width="1.1" height="15.0" fill="rgb(0,0,0)" rx="2" ry="2" />
<text  x="804.57" y="225.5" ></text>
</g>
<g >
<title>PCApply (113,665,011 us, 24.65%)</title><rect x="191.9" y="167" width="290.8" height="15.0" fill="rgb(0,0,0)" rx="2" ry="2" />
<text  x="194.90" y="177.5" >PCApply</text>
</g>
<g >
<title>all (461,206,376 us, 100%)</title><rect x="10.0" y="39" width="1180.0" height="15.0" fill="rgb(0,0,0)" rx="2" ry="2" />
<text  x="13.00" y="49.5" ></text>
</g>
<g >
<title>ParLoopExecute (137,966 us, 0.03%)</title><rect x="80.7" y="119" width="0.3" height="15.0" fill="rgb(0,0,0)" rx="2" ry="2" />
<text  x="83.66" y="129.5" ></text>
</g>
<g >
<title>firedrake.norms.norm (323,451 us, 0.07%)</title><rect x="80.7" y="87" width="0.8" height="15.0" fill="rgb(0,0,0)" rx="2" ry="2" />
<text  x="83.66" y="97.5" ></text>
</g>
<g >
<title>KSPSolve (113,665,011 us, 24.65%)</title><rect x="191.9" y="151" width="290.8" height="15.0" fill="rgb(0,0,0)" rx="2" ry="2" />
<text  x="194.90" y="161.5" >KSPSolve</text>
</g>
<g >
<title>Parloop_Cells_wrap_form0_cell_integral_otherwise (76,660 us, 0.02%)</title><rect x="16.7" y="119" width="0.2" height="15.0" fill="rgb(0,0,0)" rx="2" ry="2" />
<text  x="19.74" y="129.5" ></text>
</g>
<g >
<title>KSPSolve (113,825,602 us, 24.68%)</title><rect x="819.0" y="183" width="291.2" height="15.0" fill="rgb(0,0,0)" rx="2" ry="2" />
<text  x="821.96" y="193.5" >KSPSolve</text>
</g>
<g >
<title>PCApply (113,612,363 us, 24.63%)</title><rect x="482.7" y="167" width="290.7" height="15.0" fill="rgb(0,0,0)" rx="2" ry="2" />
<text  x="485.71" y="177.5" >PCApply</text>
</g>
<g >
<title>PCApply (1,302,148 us, 0.28%)</title><rect x="815.5" y="231" width="3.3" height="15.0" fill="rgb(0,0,0)" rx="2" ry="2" />
<text  x="818.47" y="241.5" ></text>
</g>
<g >
<title>VecSet (198,704 us, 0.04%)</title><rect x="456.7" y="231" width="0.5" height="15.0" fill="rgb(0,0,0)" rx="2" ry="2" />
<text  x="459.68" y="241.5" ></text>
</g>
<g >
<title>KSPSolve (528,783 us, 0.11%)</title><rect x="68.8" y="151" width="1.3" height="15.0" fill="rgb(0,0,0)" rx="2" ry="2" />
<text  x="71.78" y="161.5" ></text>
</g>
<g >
<title>MatMultAdd (144,933 us, 0.03%)</title><rect x="1085.5" y="215" width="0.4" height="15.0" fill="rgb(0,0,0)" rx="2" ry="2" />
<text  x="1088.53" y="225.5" ></text>
</g>
<g >
<title>MatPtAPNumeric (979,882 us, 0.21%)</title><rect x="808.3" y="199" width="2.5" height="15.0" fill="rgb(0,0,0)" rx="2" ry="2" />
<text  x="811.32" y="209.5" ></text>
</g>
<g >
<title>PCGAMG Gal l01 (174,364 us, 0.04%)</title><rect x="811.9" y="183" width="0.4" height="15.0" fill="rgb(0,0,0)" rx="2" ry="2" />
<text  x="814.85" y="193.5" ></text>
</g>
<g >
<title>VecScatterBegin (90,555 us, 0.02%)</title><rect x="1158.9" y="135" width="0.2" height="15.0" fill="rgb(0,0,0)" rx="2" ry="2" />
<text  x="1161.88" y="145.5" ></text>
</g>
<g >
<title>MatPtAPNumeric (72,382 us, 0.02%)</title><rect x="812.3" y="199" width="0.2" height="15.0" fill="rgb(0,0,0)" rx="2" ry="2" />
<text  x="815.30" y="209.5" ></text>
</g>
<g >
<title>SNESFunctionEval (199,134 us, 0.04%)</title><rect x="1177.7" y="103" width="0.5" height="15.0" fill="rgb(0,0,0)" rx="2" ry="2" />
<text  x="1180.68" y="113.5" ></text>
</g>
<g >
<title>firedrake.extrusion_utils.make_extruded_coords (70,928 us, 0.02%)</title><rect x="12.4" y="87" width="0.2" height="15.0" fill="rgb(0,0,0)" rx="2" ry="2" />
<text  x="15.38" y="97.5" ></text>
</g>
<g >
<title>MatZeroInitial (6,075,100 us, 1.32%)</title><rect x="135.8" y="103" width="15.6" height="15.0" fill="rgb(0,0,0)" rx="2" ry="2" />
<text  x="138.82" y="113.5" ></text>
</g>
<g >
<title>PCApply (67,285 us, 0.01%)</title><rect x="808.1" y="215" width="0.2" height="15.0" fill="rgb(0,0,0)" rx="2" ry="2" />
<text  x="811.15" y="225.5" ></text>
</g>
<g >
<title>firedrake (461,206,376 us, 100.00%)</title><rect x="10.0" y="55" width="1180.0" height="15.0" fill="rgb(0,0,0)" rx="2" ry="2" />
<text  x="13.00" y="65.5" >firedrake</text>
</g>
<g >
<title>firedrake.function.Function.project (24,981,337 us, 5.42%)</title><rect x="16.7" y="71" width="64.0" height="15.0" fill="rgb(0,0,0)" rx="2" ry="2" />
<text  x="19.74" y="81.5" >firedr..</text>
</g>
<g >
<title>PCSetUp (17,749,126 us, 3.85%)</title><rect x="773.4" y="151" width="45.4" height="15.0" fill="rgb(0,0,0)" rx="2" ry="2" />
<text  x="776.39" y="161.5" >PCS..</text>
</g>
<g >
<title>VecAYPX (236,050 us, 0.05%)</title><rect x="457.7" y="199" width="0.6" height="15.0" fill="rgb(0,0,0)" rx="2" ry="2" />
<text  x="460.65" y="209.5" ></text>
</g>
<g >
<title>VecMAXPY (287,157 us, 0.06%)</title><rect x="151.6" y="135" width="0.8" height="15.0" fill="rgb(0,0,0)" rx="2" ry="2" />
<text  x="154.63" y="145.5" ></text>
</g>
<g >
<title>  SA: smooth (689,691 us, 0.15%)</title><rect x="803.2" y="199" width="1.8" height="15.0" fill="rgb(0,0,0)" rx="2" ry="2" />
<text  x="806.21" y="209.5" ></text>
</g>
<g >
<title>MatAssemblyEnd (143,673 us, 0.03%)</title><rect x="1166.3" y="135" width="0.4" height="15.0" fill="rgb(0,0,0)" rx="2" ry="2" />
<text  x="1169.33" y="145.5" ></text>
</g>
<g >
<title>KSPSolve (57,424,241 us, 12.45%)</title><rect x="601.0" y="215" width="146.9" height="15.0" fill="rgb(0,0,0)" rx="2" ry="2" />
<text  x="604.01" y="225.5" >KSPSolve</text>
</g>
<g >
<title>MatSOR (57,243,357 us, 12.41%)</title><rect x="937.5" y="279" width="146.4" height="15.0" fill="rgb(0,0,0)" rx="2" ry="2" />
<text  x="940.46" y="289.5" >MatSOR</text>
</g>
<g >
<title>PCApply (57,424,241 us, 12.45%)</title><rect x="601.0" y="199" width="146.9" height="15.0" fill="rgb(0,0,0)" rx="2" ry="2" />
<text  x="604.01" y="209.5" >PCApply</text>
</g>
</g>
</svg>
