<?xml version="1.0" standalone="no"?>
<!DOCTYPE svg PUBLIC "-//W3C//DTD SVG 1.1//EN" "http://www.w3.org/Graphics/SVG/1.1/DTD/svg11.dtd">
<svg version="1.1" width="1200" height="427" onload="init(evt)" viewBox="0 0 1200 427" xmlns="http://www.w3.org/2000/svg" xmlns:xlink="http://www.w3.org/1999/xlink">
<!-- Flame graph stack visualization. See https://github.com/brendangregg/FlameGraph for latest version, and http://www.brendangregg.com/flamegraphs.html for examples. -->
<!-- NOTES:  -->
<defs>
	<linearGradient id="background" y1="0" y2="1" x1="0" x2="0" >
		<stop stop-color="#eeeeee" offset="5%" />
		<stop stop-color="#eeeeb0" offset="95%" />
	</linearGradient>
</defs>
<style type="text/css">
	text { font-family:Verdana; font-size:13px; fill:rgb(0,0,0); }
	#search, #ignorecase { opacity:0.1; cursor:pointer; }
	#search:hover, #search.show, #ignorecase:hover, #ignorecase.show { opacity:1; }
	#subtitle { text-anchor:middle; font-color:rgb(160,160,160); }
	#title { text-anchor:middle; font-size:18px}
	#unzoom { cursor:pointer; }
	#frames > *:hover { stroke:black; stroke-width:0.5; cursor:pointer; }
	.hide { display:none; }
	.parent { opacity:0.5; }
</style>
<script type="text/ecmascript">
<![CDATA[
	"use strict";
	var details, searchbtn, unzoombtn, matchedtxt, svg, searching, currentSearchTerm, ignorecase, ignorecaseBtn;
	function init(evt) {
		details = document.getElementById("details").firstChild;
		searchbtn = document.getElementById("search");
		ignorecaseBtn = document.getElementById("ignorecase");
		unzoombtn = document.getElementById("unzoom");
		matchedtxt = document.getElementById("matched");
		svg = document.getElementsByTagName("svg")[0];
		searching = 0;
		currentSearchTerm = null;

		// use GET parameters to restore a flamegraphs state.
		var params = get_params();
		if (params.x && params.y)
			zoom(find_group(document.querySelector('[x="' + params.x + '"][y="' + params.y + '"]')));
                if (params.s) search(params.s);
	}

	// event listeners
	window.addEventListener("click", function(e) {
		var target = find_group(e.target);
		if (target) {
			if (target.nodeName == "a") {
				if (e.ctrlKey === false) return;
				e.preventDefault();
			}
			if (target.classList.contains("parent")) unzoom();
			zoom(target);
			if (!document.querySelector('.parent')) {
				clearzoom();
				return;
			}

			// set parameters for zoom state
			var el = target.querySelector("rect");
			if (el && el.attributes && el.attributes.y && el.attributes._orig_x) {
				var params = get_params()
				params.x = el.attributes._orig_x.value;
				params.y = el.attributes.y.value;
				history.replaceState(null, null, parse_params(params));
			}
		}
		else if (e.target.id == "unzoom") clearzoom();
		else if (e.target.id == "search") search_prompt();
		else if (e.target.id == "ignorecase") toggle_ignorecase();
	}, false)

	// mouse-over for info
	// show
	window.addEventListener("mouseover", function(e) {
		var target = find_group(e.target);
		if (target) details.nodeValue = "Function: " + g_to_text(target);
	}, false)

	// clear
	window.addEventListener("mouseout", function(e) {
		var target = find_group(e.target);
		if (target) details.nodeValue = ' ';
	}, false)

	// ctrl-F for search
	// ctrl-I to toggle case-sensitive search
	window.addEventListener("keydown",function (e) {
		if (e.keyCode === 114 || (e.ctrlKey && e.keyCode === 70)) {
			e.preventDefault();
			search_prompt();
		}
		else if (e.ctrlKey && e.keyCode === 73) {
			e.preventDefault();
			toggle_ignorecase();
		}
	}, false)

	// functions
	function get_params() {
		var params = {};
		var paramsarr = window.location.search.substr(1).split('&');
		for (var i = 0; i < paramsarr.length; ++i) {
			var tmp = paramsarr[i].split("=");
			if (!tmp[0] || !tmp[1]) continue;
			params[tmp[0]]  = decodeURIComponent(tmp[1]);
		}
		return params;
	}
	function parse_params(params) {
		var uri = "?";
		for (var key in params) {
			uri += key + '=' + encodeURIComponent(params[key]) + '&';
		}
		if (uri.slice(-1) == "&")
			uri = uri.substring(0, uri.length - 1);
		if (uri == '?')
			uri = window.location.href.split('?')[0];
		return uri;
	}
	function find_child(node, selector) {
		var children = node.querySelectorAll(selector);
		if (children.length) return children[0];
	}
	function find_group(node) {
		var parent = node.parentElement;
		if (!parent) return;
		if (parent.id == "frames") return node;
		return find_group(parent);
	}
	function orig_save(e, attr, val) {
		if (e.attributes["_orig_" + attr] != undefined) return;
		if (e.attributes[attr] == undefined) return;
		if (val == undefined) val = e.attributes[attr].value;
		e.setAttribute("_orig_" + attr, val);
	}
	function orig_load(e, attr) {
		if (e.attributes["_orig_"+attr] == undefined) return;
		e.attributes[attr].value = e.attributes["_orig_" + attr].value;
		e.removeAttribute("_orig_"+attr);
	}
	function g_to_text(e) {
		var text = find_child(e, "title").firstChild.nodeValue;
		return (text)
	}
	function g_to_func(e) {
		var func = g_to_text(e);
		// if there's any manipulation we want to do to the function
		// name before it's searched, do it here before returning.
		return (func);
	}
	function update_text(e) {
		var r = find_child(e, "rect");
		var t = find_child(e, "text");
		var w = parseFloat(r.attributes.width.value) -3;
		var txt = find_child(e, "title").textContent.replace(/\([^(]*\)$/,"");
		t.attributes.x.value = parseFloat(r.attributes.x.value) + 3;

		// Smaller than this size won't fit anything
		if (w < 2 * 13 * 0.59) {
			t.textContent = "";
			return;
		}

		t.textContent = txt;
		// Fit in full text width
		if (/^ *$/.test(txt) || t.getSubStringLength(0, txt.length) < w)
			return;

		for (var x = txt.length - 2; x > 0; x--) {
			if (t.getSubStringLength(0, x + 2) <= w) {
				t.textContent = txt.substring(0, x) + "..";
				return;
			}
		}
		t.textContent = "";
	}

	// zoom
	function zoom_reset(e) {
		if (e.attributes != undefined) {
			orig_load(e, "x");
			orig_load(e, "width");
		}
		if (e.childNodes == undefined) return;
		for (var i = 0, c = e.childNodes; i < c.length; i++) {
			zoom_reset(c[i]);
		}
	}
	function zoom_child(e, x, ratio) {
		if (e.attributes != undefined) {
			if (e.attributes.x != undefined) {
				orig_save(e, "x");
				e.attributes.x.value = (parseFloat(e.attributes.x.value) - x - 10) * ratio + 10;
				if (e.tagName == "text")
					e.attributes.x.value = find_child(e.parentNode, "rect[x]").attributes.x.value + 3;
			}
			if (e.attributes.width != undefined) {
				orig_save(e, "width");
				e.attributes.width.value = parseFloat(e.attributes.width.value) * ratio;
			}
		}

		if (e.childNodes == undefined) return;
		for (var i = 0, c = e.childNodes; i < c.length; i++) {
			zoom_child(c[i], x - 10, ratio);
		}
	}
	function zoom_parent(e) {
		if (e.attributes) {
			if (e.attributes.x != undefined) {
				orig_save(e, "x");
				e.attributes.x.value = 10;
			}
			if (e.attributes.width != undefined) {
				orig_save(e, "width");
				e.attributes.width.value = parseInt(svg.width.baseVal.value) - (10 * 2);
			}
		}
		if (e.childNodes == undefined) return;
		for (var i = 0, c = e.childNodes; i < c.length; i++) {
			zoom_parent(c[i]);
		}
	}
	function zoom(node) {
		var attr = find_child(node, "rect").attributes;
		var width = parseFloat(attr.width.value);
		var xmin = parseFloat(attr.x.value);
		var xmax = parseFloat(xmin + width);
		var ymin = parseFloat(attr.y.value);
		var ratio = (svg.width.baseVal.value - 2 * 10) / width;

		// XXX: Workaround for JavaScript float issues (fix me)
		var fudge = 0.0001;

		unzoombtn.classList.remove("hide");

		var el = document.getElementById("frames").children;
		for (var i = 0; i < el.length; i++) {
			var e = el[i];
			var a = find_child(e, "rect").attributes;
			var ex = parseFloat(a.x.value);
			var ew = parseFloat(a.width.value);
			var upstack;
			// Is it an ancestor
			if (1 == 0) {
				upstack = parseFloat(a.y.value) > ymin;
			} else {
				upstack = parseFloat(a.y.value) < ymin;
			}
			if (upstack) {
				// Direct ancestor
				if (ex <= xmin && (ex+ew+fudge) >= xmax) {
					e.classList.add("parent");
					zoom_parent(e);
					update_text(e);
				}
				// not in current path
				else
					e.classList.add("hide");
			}
			// Children maybe
			else {
				// no common path
				if (ex < xmin || ex + fudge >= xmax) {
					e.classList.add("hide");
				}
				else {
					zoom_child(e, xmin, ratio);
					update_text(e);
				}
			}
		}
		search();
	}
	function unzoom() {
		unzoombtn.classList.add("hide");
		var el = document.getElementById("frames").children;
		for(var i = 0; i < el.length; i++) {
			el[i].classList.remove("parent");
			el[i].classList.remove("hide");
			zoom_reset(el[i]);
			update_text(el[i]);
		}
		search();
	}
	function clearzoom() {
		unzoom();

		// remove zoom state
		var params = get_params();
		if (params.x) delete params.x;
		if (params.y) delete params.y;
		history.replaceState(null, null, parse_params(params));
	}

	// search
	function toggle_ignorecase() {
		ignorecase = !ignorecase;
		if (ignorecase) {
			ignorecaseBtn.classList.add("show");
		} else {
			ignorecaseBtn.classList.remove("show");
		}
		reset_search();
		search();
	}
	function reset_search() {
		var el = document.querySelectorAll("#frames rect");
		for (var i = 0; i < el.length; i++) {
			orig_load(el[i], "fill")
		}
		var params = get_params();
		delete params.s;
		history.replaceState(null, null, parse_params(params));
	}
	function search_prompt() {
		if (!searching) {
			var term = prompt("Enter a search term (regexp " +
			    "allowed, eg: ^ext4_)"
			    + (ignorecase ? ", ignoring case" : "")
			    + "\nPress Ctrl-i to toggle case sensitivity", "");
			if (term != null) search(term);
		} else {
			reset_search();
			searching = 0;
			currentSearchTerm = null;
			searchbtn.classList.remove("show");
			searchbtn.firstChild.nodeValue = "Search"
			matchedtxt.classList.add("hide");
			matchedtxt.firstChild.nodeValue = ""
		}
	}
	function search(term) {
		if (term) currentSearchTerm = term;

		var re = new RegExp(currentSearchTerm, ignorecase ? 'i' : '');
		var el = document.getElementById("frames").children;
		var matches = new Object();
		var maxwidth = 0;
		for (var i = 0; i < el.length; i++) {
			var e = el[i];
			var func = g_to_func(e);
			var rect = find_child(e, "rect");
			if (func == null || rect == null)
				continue;

			// Save max width. Only works as we have a root frame
			var w = parseFloat(rect.attributes.width.value);
			if (w > maxwidth)
				maxwidth = w;

			if (func.match(re)) {
				// highlight
				var x = parseFloat(rect.attributes.x.value);
				orig_save(rect, "fill");
				rect.attributes.fill.value = "rgb(230,0,230)";

				// remember matches
				if (matches[x] == undefined) {
					matches[x] = w;
				} else {
					if (w > matches[x]) {
						// overwrite with parent
						matches[x] = w;
					}
				}
				searching = 1;
			}
		}
		if (!searching)
			return;
		var params = get_params();
		params.s = currentSearchTerm;
		history.replaceState(null, null, parse_params(params));

		searchbtn.classList.add("show");
		searchbtn.firstChild.nodeValue = "Reset Search";

		// calculate percent matched, excluding vertical overlap
		var count = 0;
		var lastx = -1;
		var lastw = 0;
		var keys = Array();
		for (k in matches) {
			if (matches.hasOwnProperty(k))
				keys.push(k);
		}
		// sort the matched frames by their x location
		// ascending, then width descending
		keys.sort(function(a, b){
			return a - b;
		});
		// Step through frames saving only the biggest bottom-up frames
		// thanks to the sort order. This relies on the tree property
		// where children are always smaller than their parents.
		var fudge = 0.0001;	// JavaScript floating point
		for (var k in keys) {
			var x = parseFloat(keys[k]);
			var w = matches[keys[k]];
			if (x >= lastx + lastw - fudge) {
				count += w;
				lastx = x;
				lastw = w;
			}
		}
		// display matched percent
		matchedtxt.classList.remove("hide");
		var pct = 100 * count / maxwidth;
		if (pct != 100) pct = pct.toFixed(1)
		matchedtxt.firstChild.nodeValue = "Matched: " + pct + "%";
	}
]]>
</script>
<rect x="0.0" y="0" width="1200.0" height="427.0" fill="url(#background)"  />
<text id="title" x="600.00" y="26" >Firedrake example</text>
<text id="details" x="10.00" y="409" > </text>
<text id="unzoom" x="10.00" y="26" class="hide">Reset Zoom</text>
<text id="search" x="1090.00" y="26" >Search</text>
<text id="ignorecase" x="1174.00" y="26" >ic</text>
<text id="matched" x="1090.00" y="409" > </text>
<g id="frames">
<g >
<title>Parloop_Cells_wrap_par_loop_kernel (678,411 us, 0.33%)</title><rect x="1128.4" y="167" width="3.8" height="15.0" fill="rgb(0,0,0)" rx="2" ry="2" />
<text  x="1131.37" y="177.5" ></text>
</g>
<g >
<title>SCForwardElim (36,041,933 us, 17.34%)</title><rect x="379.4" y="135" width="204.6" height="15.0" fill="rgb(0,0,0)" rx="2" ry="2" />
<text  x="382.40" y="145.5" >SCForwardElim</text>
</g>
<g >
<title>Parloop_Cells_wrap_wrap_slate_loopy_knl_11 (25,158,226 us, 12.11%)</title><rect x="207.3" y="183" width="142.8" height="15.0" fill="rgb(0,0,0)" rx="2" ry="2" />
<text  x="210.30" y="193.5" >Parloop_Cells_wr..</text>
</g>
<g >
<title>Log_Event_subkernel8_interior_facet_horiz_top_to__exterior_facet_top_integral_otherwise (44,957 us, 0.02%)</title><rect x="590.4" y="279" width="0.2" height="15.0" fill="rgb(0,0,0)" rx="2" ry="2" />
<text  x="593.37" y="289.5" ></text>
</g>
<g >
<title>PCApply (184,023,104 us, 88.55%)</title><rect x="83.1" y="119" width="1044.8" height="15.0" fill="rgb(0,0,0)" rx="2" ry="2" />
<text  x="86.11" y="129.5" >PCApply</text>
</g>
<g >
<title>firedrake.matrix_free.operators.ImplicitMatrixContext.mult (287,111 us, 0.14%)</title><rect x="584.0" y="183" width="1.7" height="15.0" fill="rgb(0,0,0)" rx="2" ry="2" />
<text  x="587.04" y="193.5" ></text>
</g>
<g >
<title>Parloop_Cells_wrap_pyop2_kernel_uniform_extrusion (888,838 us, 0.43%)</title><rect x="15.3" y="119" width="5.1" height="15.0" fill="rgb(0,0,0)" rx="2" ry="2" />
<text  x="18.31" y="129.5" ></text>
</g>
<g >
<title>Log_Event_subkernel10_interior_facet_vert_to__exterior_facet_vert_integral_otherwise (58,583 us, 0.03%)</title><rect x="623.3" y="279" width="0.4" height="15.0" fill="rgb(0,0,0)" rx="2" ry="2" />
<text  x="626.34" y="289.5" ></text>
</g>
<g >
<title>Log_Event_subkernel8_interior_facet_vert_to__exterior_facet_vert_integral_otherwise (73,310 us, 0.04%)</title><rect x="623.7" y="279" width="0.4" height="15.0" fill="rgb(0,0,0)" rx="2" ry="2" />
<text  x="626.67" y="289.5" ></text>
</g>
<g >
<title>Log_Event_subkernel10_interior_facet_vert_to__exterior_facet_vert_integral_otherwise (58,414 us, 0.03%)</title><rect x="584.6" y="231" width="0.4" height="15.0" fill="rgb(0,0,0)" rx="2" ry="2" />
<text  x="587.64" y="241.5" ></text>
</g>
<g >
<title>Parloop_set_#x7f011838bf70_wrap_pyop2_kernel_prolong (581,549 us, 0.28%)</title><rect x="595.9" y="327" width="3.3" height="15.0" fill="rgb(0,0,0)" rx="2" ry="2" />
<text  x="598.91" y="337.5" ></text>
</g>
<g >
<title>PCSetUp (752,512 us, 0.36%)</title><rect x="1127.9" y="103" width="4.3" height="15.0" fill="rgb(0,0,0)" rx="2" ry="2" />
<text  x="1130.94" y="113.5" ></text>
</g>
<g >
<title>firedrake.functionspacedata.FunctionSpaceData.__init__ (24,938 us, 0.01%)</title><rect x="20.4" y="119" width="0.1" height="15.0" fill="rgb(0,0,0)" rx="2" ry="2" />
<text  x="23.36" y="129.5" ></text>
</g>
<g >
<title>pyop2.global_kernel.GlobalKernel.compile (35,971,168 us, 17.31%)</title><rect x="863.7" y="263" width="204.2" height="15.0" fill="rgb(0,0,0)" rx="2" ry="2" />
<text  x="866.70" y="273.5" >pyop2.global_kernel.Glob..</text>
</g>
<g >
<title>Log_Event_subkernel10_interior_facet_vert_to__exterior_facet_vert_integral_otherwise (292,244 us, 0.14%)</title><rect x="588.5" y="279" width="1.6" height="15.0" fill="rgb(0,0,0)" rx="2" ry="2" />
<text  x="591.46" y="289.5" ></text>
</g>
<g >
<title>firedrake.pointquery_utils.to_reference_coordinates (482,243 us, 0.23%)</title><rect x="599.2" y="311" width="2.7" height="15.0" fill="rgb(0,0,0)" rx="2" ry="2" />
<text  x="602.21" y="321.5" ></text>
</g>
<g >
<title>Log_Event_subkernel10_interior_facet_horiz_bottom_to__exterior_facet_bottom_integral_otherwise (40,676 us, 0.02%)</title><rect x="588.0" y="279" width="0.2" height="15.0" fill="rgb(0,0,0)" rx="2" ry="2" />
<text  x="590.99" y="289.5" ></text>
</g>
<g >
<title>pyop2.global_kernel.GlobalKernel.compile (4,703,111 us, 2.26%)</title><rect x="1132.2" y="151" width="26.7" height="15.0" fill="rgb(0,0,0)" rx="2" ry="2" />
<text  x="1135.22" y="161.5" >p..</text>
</g>
<g >
<title>Parloop_Cells_wrap_par_loop_kernel (887,381 us, 0.43%)</title><rect x="379.4" y="199" width="5.0" height="15.0" fill="rgb(0,0,0)" rx="2" ry="2" />
<text  x="382.40" y="209.5" ></text>
</g>
<g >
<title>PCApply (6,815,751 us, 3.28%)</title><rect x="585.7" y="183" width="38.7" height="15.0" fill="rgb(0,0,0)" rx="2" ry="2" />
<text  x="588.67" y="193.5" >PCA..</text>
</g>
<g >
<title>all (207,828,785 us, 100%)</title><rect x="10.0" y="39" width="1180.0" height="15.0" fill="rgb(0,0,0)" rx="2" ry="2" />
<text  x="13.00" y="49.5" ></text>
</g>
<g >
<title>PCSetUp (334,523 us, 0.16%)</title><rect x="1086.4" y="199" width="1.9" height="15.0" fill="rgb(0,0,0)" rx="2" ry="2" />
<text  x="1089.38" y="209.5" ></text>
</g>
<g >
<title>firedrake.mg.interface.restrict (1,170,667 us, 0.56%)</title><rect x="616.1" y="263" width="6.6" height="15.0" fill="rgb(0,0,0)" rx="2" ry="2" />
<text  x="619.09" y="273.5" ></text>
</g>
<g >
<title>Log_Event_subkernel9_cell_to__cell_integral_otherwise (247,530 us, 0.12%)</title><rect x="592.7" y="279" width="1.4" height="15.0" fill="rgb(0,0,0)" rx="2" ry="2" />
<text  x="595.73" y="289.5" ></text>
</g>
<g >
<title>MatMult (1,348,402 us, 0.65%)</title><rect x="594.3" y="263" width="7.6" height="15.0" fill="rgb(0,0,0)" rx="2" ry="2" />
<text  x="597.29" y="273.5" ></text>
</g>
<g >
<title>ParLoopExecute (286,643 us, 0.14%)</title><rect x="622.7" y="247" width="1.7" height="15.0" fill="rgb(0,0,0)" rx="2" ry="2" />
<text  x="625.74" y="257.5" ></text>
</g>
<g >
<title>PCApply (5,037,968 us, 2.42%)</title><rect x="594.1" y="215" width="28.6" height="15.0" fill="rgb(0,0,0)" rx="2" ry="2" />
<text  x="597.14" y="225.5" >P..</text>
</g>
<g >
<title>firedrake.interpolation.make_interpolator (36,781 us, 0.02%)</title><rect x="1125.8" y="167" width="0.2" height="15.0" fill="rgb(0,0,0)" rx="2" ry="2" />
<text  x="1128.80" y="177.5" ></text>
</g>
<g >
<title>firedrake.variational_solver.NonlinearVariationalSolver.solve (204,460,797 us, 98.38%)</title><rect x="29.1" y="71" width="1160.9" height="15.0" fill="rgb(0,0,0)" rx="2" ry="2" />
<text  x="32.12" y="81.5" >firedrake.variational_solver.NonlinearVariationalSolver.solve</text>
</g>
<g >
<title>Log_Event_subkernel10_interior_facet_horiz_top_to__exterior_facet_top_integral_otherwise (41,724 us, 0.02%)</title><rect x="588.2" y="279" width="0.3" height="15.0" fill="rgb(0,0,0)" rx="2" ry="2" />
<text  x="591.22" y="289.5" ></text>
</g>
<g >
<title>pyop2.global_kernel.GlobalKernel.compile (581,549 us, 0.28%)</title><rect x="595.9" y="343" width="3.3" height="15.0" fill="rgb(0,0,0)" rx="2" ry="2" />
<text  x="598.91" y="353.5" ></text>
</g>
<g >
<title>pyop2.global_kernel.GlobalKernel.compile (18,080,231 us, 8.70%)</title><rect x="95.6" y="183" width="102.7" height="15.0" fill="rgb(0,0,0)" rx="2" ry="2" />
<text  x="98.61" y="193.5" >pyop2.globa..</text>
</g>
<g >
<title>pyop2.global_kernel.GlobalKernel.compile (4,900,633 us, 2.36%)</title><rect x="29.1" y="183" width="27.8" height="15.0" fill="rgb(0,0,0)" rx="2" ry="2" />
<text  x="32.12" y="193.5" >p..</text>
</g>
<g >
<title>Log_Event_subkernel10_interior_facet_vert_to__exterior_facet_vert_integral_otherwise (98,714 us, 0.05%)</title><rect x="635.3" y="295" width="0.6" height="15.0" fill="rgb(0,0,0)" rx="2" ry="2" />
<text  x="638.29" y="305.5" ></text>
</g>
<g >
<title>Parloop_Cells_wrap_form0_cell_integral_otherwise (4,900,633 us, 2.36%)</title><rect x="29.1" y="167" width="27.8" height="15.0" fill="rgb(0,0,0)" rx="2" ry="2" />
<text  x="32.12" y="177.5" >P..</text>
</g>
<g >
<title>MatMult (40,315,452 us, 19.40%)</title><rect x="624.4" y="231" width="228.9" height="15.0" fill="rgb(0,0,0)" rx="2" ry="2" />
<text  x="627.37" y="241.5" >MatMult</text>
</g>
<g >
<title>SNESSolve (204,460,797 us, 98.38%)</title><rect x="29.1" y="87" width="1160.9" height="15.0" fill="rgb(0,0,0)" rx="2" ry="2" />
<text  x="32.12" y="97.5" >SNESSolve</text>
</g>
<g >
<title>DMCoarsen (2,491,425 us, 1.20%)</title><rect x="601.9" y="247" width="14.2" height="15.0" fill="rgb(0,0,0)" rx="2" ry="2" />
<text  x="604.95" y="257.5" ></text>
</g>
<g >
<title>KSPSolve (40,315,452 us, 19.40%)</title><rect x="624.4" y="215" width="228.9" height="15.0" fill="rgb(0,0,0)" rx="2" ry="2" />
<text  x="627.37" y="225.5" >KSPSolve</text>
</g>
<g >
<title>firedrake.interpolation.Interpolator.interpolate (1,060,454 us, 0.51%)</title><rect x="607.2" y="327" width="6.0" height="15.0" fill="rgb(0,0,0)" rx="2" ry="2" />
<text  x="610.20" y="337.5" ></text>
</g>
<g >
<title>MatMultTranspose (1,170,667 us, 0.56%)</title><rect x="616.1" y="247" width="6.6" height="15.0" fill="rgb(0,0,0)" rx="2" ry="2" />
<text  x="619.09" y="257.5" ></text>
</g>
<g >
<title>firedrake.tsfc_interface.compile_form (1,469,530 us, 0.71%)</title><rect x="1181.7" y="119" width="8.3" height="15.0" fill="rgb(0,0,0)" rx="2" ry="2" />
<text  x="1184.66" y="129.5" ></text>
</g>
<g >
<title>CreateSparsity (23,396 us, 0.01%)</title><rect x="1067.9" y="247" width="0.2" height="15.0" fill="rgb(0,0,0)" rx="2" ry="2" />
<text  x="1070.93" y="257.5" ></text>
</g>
<g >
<title>Parloop_Cells_wrap_wrap_slate_loopy_knl_7 (287,111 us, 0.14%)</title><rect x="584.0" y="215" width="1.7" height="15.0" fill="rgb(0,0,0)" rx="2" ry="2" />
<text  x="587.04" y="225.5" ></text>
</g>
<g >
<title>pyop2.global_kernel.GlobalKernel.compile (5,313,630 us, 2.56%)</title><rect x="1095.6" y="199" width="30.2" height="15.0" fill="rgb(0,0,0)" rx="2" ry="2" />
<text  x="1098.63" y="209.5" >p..</text>
</g>
<g >
<title>firedrake.tsfc_interface.compile_form (2,336,372 us, 1.12%)</title><rect x="570.8" y="167" width="13.2" height="15.0" fill="rgb(0,0,0)" rx="2" ry="2" />
<text  x="573.78" y="177.5" ></text>
</g>
<g >
<title>Log_Event_slate_loopy_knl_3 (22,779 us, 0.01%)</title><rect x="863.6" y="263" width="0.1" height="15.0" fill="rgb(0,0,0)" rx="2" ry="2" />
<text  x="866.57" y="273.5" ></text>
</g>
<g >
<title>firedrake.tsfc_interface.compile_form (3,194,038 us, 1.54%)</title><rect x="350.1" y="167" width="18.2" height="15.0" fill="rgb(0,0,0)" rx="2" ry="2" />
<text  x="353.14" y="177.5" ></text>
</g>
<g >
<title>solve_getrf (73,080 us, 0.04%)</title><rect x="634.9" y="311" width="0.4" height="15.0" fill="rgb(0,0,0)" rx="2" ry="2" />
<text  x="637.88" y="321.5" ></text>
</g>
<g >
<title>ParLoopExecute (25,158,226 us, 12.11%)</title><rect x="207.3" y="167" width="142.8" height="15.0" fill="rgb(0,0,0)" rx="2" ry="2" />
<text  x="210.30" y="177.5" >ParLoopExecute</text>
</g>
<g >
<title>PCApply (1,375,876 us, 0.66%)</title><rect x="594.1" y="231" width="7.8" height="15.0" fill="rgb(0,0,0)" rx="2" ry="2" />
<text  x="597.14" y="241.5" ></text>
</g>
<g >
<title>PCSetUp (81,706,252 us, 39.31%)</title><rect x="624.4" y="183" width="463.9" height="15.0" fill="rgb(0,0,0)" rx="2" ry="2" />
<text  x="627.37" y="193.5" >PCSetUp</text>
</g>
<g >
<title>Log_Event_slate_loopy_knl_7 (43,154 us, 0.02%)</title><rect x="584.4" y="231" width="0.2" height="15.0" fill="rgb(0,0,0)" rx="2" ry="2" />
<text  x="587.39" y="241.5" ></text>
</g>
<g >
<title>solve_getrs (27,704 us, 0.01%)</title><rect x="587.8" y="295" width="0.2" height="15.0" fill="rgb(0,0,0)" rx="2" ry="2" />
<text  x="590.83" y="305.5" ></text>
</g>
<g >
<title>pyop2.global_kernel.GlobalKernel.compile (587,247 us, 0.28%)</title><rect x="603.9" y="343" width="3.3" height="15.0" fill="rgb(0,0,0)" rx="2" ry="2" />
<text  x="606.86" y="353.5" ></text>
</g>
<g >
<title>firedrake.parloops.par_loop (678,411 us, 0.33%)</title><rect x="1128.4" y="135" width="3.8" height="15.0" fill="rgb(0,0,0)" rx="2" ry="2" />
<text  x="1131.37" y="145.5" ></text>
</g>
<g >
<title>firedrake.mg.interface.inject (2,491,425 us, 1.20%)</title><rect x="601.9" y="295" width="14.2" height="15.0" fill="rgb(0,0,0)" rx="2" ry="2" />
<text  x="604.95" y="305.5" ></text>
</g>
<g >
<title>pyop2.global_kernel.GlobalKernel.compile (34,862,346 us, 16.77%)</title><rect x="637.0" y="295" width="198.0" height="15.0" fill="rgb(0,0,0)" rx="2" ry="2" />
<text  x="640.04" y="305.5" >pyop2.global_kernel.Glo..</text>
</g>
<g >
<title>pyop2.global_kernel.GlobalKernel.compile (887,381 us, 0.43%)</title><rect x="379.4" y="215" width="5.0" height="15.0" fill="rgb(0,0,0)" rx="2" ry="2" />
<text  x="382.40" y="225.5" ></text>
</g>
<g >
<title>ParLoopExecute (581,549 us, 0.28%)</title><rect x="595.9" y="311" width="3.3" height="15.0" fill="rgb(0,0,0)" rx="2" ry="2" />
<text  x="598.91" y="321.5" ></text>
</g>
<g >
<title>pyop2.global_kernel.GlobalKernel.compile (925,598 us, 0.45%)</title><rect x="90.1" y="215" width="5.3" height="15.0" fill="rgb(0,0,0)" rx="2" ry="2" />
<text  x="93.13" y="225.5" ></text>
</g>
<g >
<title>firedrake.parloops.par_loop (887,381 us, 0.43%)</title><rect x="379.4" y="167" width="5.0" height="15.0" fill="rgb(0,0,0)" rx="2" ry="2" />
<text  x="382.40" y="177.5" ></text>
</g>
<g >
<title>firedrake.interpolation.make_interpolator (35,154 us, 0.02%)</title><rect x="613.2" y="327" width="0.2" height="15.0" fill="rgb(0,0,0)" rx="2" ry="2" />
<text  x="616.22" y="337.5" ></text>
</g>
<g >
<title>ParLoopExecute (678,411 us, 0.33%)</title><rect x="1128.4" y="151" width="3.8" height="15.0" fill="rgb(0,0,0)" rx="2" ry="2" />
<text  x="1131.37" y="161.5" ></text>
</g>
<g >
<title>firedrake.extrusion_utils.make_extruded_coords (921,088 us, 0.44%)</title><rect x="15.1" y="87" width="5.3" height="15.0" fill="rgb(0,0,0)" rx="2" ry="2" />
<text  x="18.13" y="97.5" ></text>
</g>
<g >
<title>Parloop_Cells_wrap_form1_cell_integral_otherwise (4,004,355 us, 1.93%)</title><rect x="1158.9" y="135" width="22.8" height="15.0" fill="rgb(0,0,0)" rx="2" ry="2" />
<text  x="1161.92" y="145.5" ></text>
</g>
<g >
<title>pyop2.global_kernel.GlobalKernel.compile (888,838 us, 0.43%)</title><rect x="15.3" y="135" width="5.1" height="15.0" fill="rgb(0,0,0)" rx="2" ry="2" />
<text  x="18.31" y="145.5" ></text>
</g>
<g >
<title>KSPSetUp (81,371,729 us, 39.15%)</title><rect x="624.4" y="199" width="462.0" height="15.0" fill="rgb(0,0,0)" rx="2" ry="2" />
<text  x="627.37" y="209.5" >KSPSetUp</text>
</g>
<g >
<title>firedrake.tsfc_interface.compile_form (334,523 us, 0.16%)</title><rect x="1086.4" y="215" width="1.9" height="15.0" fill="rgb(0,0,0)" rx="2" ry="2" />
<text  x="1089.38" y="225.5" ></text>
</g>
<g >
<title>pyop2.global_kernel.GlobalKernel.compile (1,294,451 us, 0.62%)</title><rect x="1088.3" y="199" width="7.3" height="15.0" fill="rgb(0,0,0)" rx="2" ry="2" />
<text  x="1091.28" y="209.5" ></text>
</g>
<g >
<title>MatMult (286,643 us, 0.14%)</title><rect x="622.7" y="215" width="1.7" height="15.0" fill="rgb(0,0,0)" rx="2" ry="2" />
<text  x="625.74" y="225.5" ></text>
</g>
<g >
<title>Log_Event_subkernel9_cell_to__cell_integral_otherwise (49,554 us, 0.02%)</title><rect x="624.1" y="279" width="0.3" height="15.0" fill="rgb(0,0,0)" rx="2" ry="2" />
<text  x="627.09" y="289.5" ></text>
</g>
<g >
<title>solve_getrf (43,243 us, 0.02%)</title><rect x="623.1" y="295" width="0.2" height="15.0" fill="rgb(0,0,0)" rx="2" ry="2" />
<text  x="626.09" y="305.5" ></text>
</g>
<g >
<title>Parloop_Cells_wrap_form00_cell_integral_otherwise (5,313,630 us, 2.56%)</title><rect x="1095.6" y="183" width="30.2" height="15.0" fill="rgb(0,0,0)" rx="2" ry="2" />
<text  x="1098.63" y="193.5" >P..</text>
</g>
<g >
<title>firedrake (207,828,785 us, 100.00%)</title><rect x="10.0" y="55" width="1180.0" height="15.0" fill="rgb(0,0,0)" rx="2" ry="2" />
<text  x="13.00" y="65.5" >firedrake</text>
</g>
<g >
<title>RecoverFirstElim (29,943,359 us, 14.41%)</title><rect x="198.3" y="151" width="170.0" height="15.0" fill="rgb(0,0,0)" rx="2" ry="2" />
<text  x="201.27" y="161.5" >RecoverFirstElim</text>
</g>
<g >
<title>Parloop_Cells_wrap_form1_cell_integral_otherwise (3,364,497 us, 1.62%)</title><rect x="56.9" y="167" width="19.1" height="15.0" fill="rgb(0,0,0)" rx="2" ry="2" />
<text  x="59.95" y="177.5" ></text>
</g>
<g >
<title>ParLoopExecute (287,111 us, 0.14%)</title><rect x="584.0" y="199" width="1.7" height="15.0" fill="rgb(0,0,0)" rx="2" ry="2" />
<text  x="587.04" y="209.5" ></text>
</g>
<g >
<title>firedrake.mg.embedded.TransferManager.op (1,348,402 us, 0.65%)</title><rect x="594.3" y="279" width="7.6" height="15.0" fill="rgb(0,0,0)" rx="2" ry="2" />
<text  x="597.29" y="289.5" ></text>
</g>
<g >
<title>MGInterp Level 1 (1,348,402 us, 0.65%)</title><rect x="594.3" y="247" width="7.6" height="15.0" fill="rgb(0,0,0)" rx="2" ry="2" />
<text  x="597.29" y="257.5" ></text>
</g>
<g >
<title>pyop2.global_kernel.GlobalKernel.compile (3,364,497 us, 1.62%)</title><rect x="56.9" y="183" width="19.1" height="15.0" fill="rgb(0,0,0)" rx="2" ry="2" />
<text  x="59.95" y="193.5" ></text>
</g>
<g >
<title>Log_Event_slate_loopy_knl_7 (43,243 us, 0.02%)</title><rect x="623.1" y="279" width="0.2" height="15.0" fill="rgb(0,0,0)" rx="2" ry="2" />
<text  x="626.09" y="289.5" ></text>
</g>
<g >
<title>SCSolve (95,795,754 us, 46.09%)</title><rect x="584.0" y="135" width="543.9" height="15.0" fill="rgb(0,0,0)" rx="2" ry="2" />
<text  x="587.04" y="145.5" >SCSolve</text>
</g>
<g >
<title>solve_getrf (43,154 us, 0.02%)</title><rect x="584.4" y="247" width="0.2" height="15.0" fill="rgb(0,0,0)" rx="2" ry="2" />
<text  x="587.39" y="257.5" ></text>
</g>
<g >
<title>ParLoopExecute (1,060,454 us, 0.51%)</title><rect x="607.2" y="343" width="6.0" height="15.0" fill="rgb(0,0,0)" rx="2" ry="2" />
<text  x="610.20" y="353.5" ></text>
</g>
<g >
<title>MatResidual (286,643 us, 0.14%)</title><rect x="622.7" y="199" width="1.7" height="15.0" fill="rgb(0,0,0)" rx="2" ry="2" />
<text  x="625.74" y="209.5" ></text>
</g>
<g >
<title>Parloop_Cells_wrap_form0_cell_integral_otherwise (4,703,111 us, 2.26%)</title><rect x="1132.2" y="135" width="26.7" height="15.0" fill="rgb(0,0,0)" rx="2" ry="2" />
<text  x="1135.22" y="145.5" >P..</text>
</g>
<g >
<title>firedrake.mg.interface.prolong (1,348,402 us, 0.65%)</title><rect x="594.3" y="295" width="7.6" height="15.0" fill="rgb(0,0,0)" rx="2" ry="2" />
<text  x="597.29" y="305.5" ></text>
</g>
<g >
<title>pyop2.global_kernel.GlobalKernel.compile (4,004,355 us, 1.93%)</title><rect x="1158.9" y="151" width="22.8" height="15.0" fill="rgb(0,0,0)" rx="2" ry="2" />
<text  x="1161.92" y="161.5" ></text>
</g>
<g >
<title>Parloop_Cells_wrap_wrap_slate_loopy_knl_7 (35,346,846 us, 17.01%)</title><rect x="634.3" y="279" width="200.7" height="15.0" fill="rgb(0,0,0)" rx="2" ry="2" />
<text  x="637.29" y="289.5" >Parloop_Cells_wrap_wrap_..</text>
</g>
<g >
<title>PCApply (88,522,003 us, 42.59%)</title><rect x="585.7" y="167" width="502.6" height="15.0" fill="rgb(0,0,0)" rx="2" ry="2" />
<text  x="588.67" y="177.5" >PCApply</text>
</g>
<g >
<title>firedrake.mg.embedded.TransferManager.op (2,491,425 us, 1.20%)</title><rect x="601.9" y="279" width="14.2" height="15.0" fill="rgb(0,0,0)" rx="2" ry="2" />
<text  x="604.95" y="289.5" ></text>
</g>
<g >
<title>ParLoopExecute (666,552 us, 0.32%)</title><rect x="616.2" y="279" width="3.8" height="15.0" fill="rgb(0,0,0)" rx="2" ry="2" />
<text  x="619.24" y="289.5" ></text>
</g>
<g >
<title>ParLoopExecute (6,608,081 us, 3.18%)</title><rect x="1088.3" y="167" width="37.5" height="15.0" fill="rgb(0,0,0)" rx="2" ry="2" />
<text  x="1091.28" y="177.5" >Pa..</text>
</g>
<g >
<title>CreateFunctionSpace (24,938 us, 0.01%)</title><rect x="20.4" y="71" width="0.1" height="15.0" fill="rgb(0,0,0)" rx="2" ry="2" />
<text  x="23.36" y="81.5" ></text>
</g>
<g >
<title>pyop2.global_kernel.GlobalKernel.compile (666,552 us, 0.32%)</title><rect x="616.2" y="311" width="3.8" height="15.0" fill="rgb(0,0,0)" rx="2" ry="2" />
<text  x="619.24" y="321.5" ></text>
</g>
<g >
<title>firedrake.parloops.par_loop (925,598 us, 0.45%)</title><rect x="90.1" y="167" width="5.3" height="15.0" fill="rgb(0,0,0)" rx="2" ry="2" />
<text  x="93.13" y="177.5" ></text>
</g>
<g >
<title>Log_Event_subkernel9_cell_to__cell_integral_otherwise (84,044 us, 0.04%)</title><rect x="636.6" y="295" width="0.4" height="15.0" fill="rgb(0,0,0)" rx="2" ry="2" />
<text  x="639.56" y="305.5" ></text>
</g>
<g >
<title>firedrake.dmhooks.coarsen (2,491,425 us, 1.20%)</title><rect x="601.9" y="263" width="14.2" height="15.0" fill="rgb(0,0,0)" rx="2" ry="2" />
<text  x="604.95" y="273.5" ></text>
</g>
<g >
<title>Parloop_Cells_wrap_wrap_slate_loopy_knl_18 (18,119,102 us, 8.72%)</title><rect x="95.4" y="167" width="102.9" height="15.0" fill="rgb(0,0,0)" rx="2" ry="2" />
<text  x="98.39" y="177.5" >Parloop_Cel..</text>
</g>
<g >
<title>Log_Event_subkernel8_interior_facet_vert_to__exterior_facet_vert_integral_otherwise (73,420 us, 0.04%)</title><rect x="585.0" y="231" width="0.4" height="15.0" fill="rgb(0,0,0)" rx="2" ry="2" />
<text  x="587.97" y="241.5" ></text>
</g>
<g >
<title>Log_Event_subkernel8_interior_facet_vert_to__exterior_facet_vert_integral_otherwise (124,768 us, 0.06%)</title><rect x="635.9" y="295" width="0.7" height="15.0" fill="rgb(0,0,0)" rx="2" ry="2" />
<text  x="638.85" y="305.5" ></text>
</g>
<g >
<title>firedrake.matrix_free.operators.ImplicitMatrixContext.mult (1,491,140 us, 0.72%)</title><rect x="585.7" y="231" width="8.4" height="15.0" fill="rgb(0,0,0)" rx="2" ry="2" />
<text  x="588.67" y="241.5" ></text>
</g>
<g >
<title>ParLoopExecute (8,707,466 us, 4.19%)</title><rect x="1132.2" y="119" width="49.5" height="15.0" fill="rgb(0,0,0)" rx="2" ry="2" />
<text  x="1135.22" y="129.5" >ParL..</text>
</g>
<g >
<title>SCBackSub (52,185,417 us, 25.11%)</title><rect x="83.1" y="135" width="296.3" height="15.0" fill="rgb(0,0,0)" rx="2" ry="2" />
<text  x="86.11" y="145.5" >SCBackSub</text>
</g>
<g >
<title>ParLoopExecute (31,450,571 us, 15.13%)</title><rect x="392.2" y="167" width="178.6" height="15.0" fill="rgb(0,0,0)" rx="2" ry="2" />
<text  x="395.21" y="177.5" >ParLoopExecute</text>
</g>
<g >
<title>pyop2.global_kernel.GlobalKernel.compile (25,092,245 us, 12.07%)</title><rect x="207.7" y="199" width="142.4" height="15.0" fill="rgb(0,0,0)" rx="2" ry="2" />
<text  x="210.67" y="209.5" >pyop2.global_ker..</text>
</g>
<g >
<title>firedrake.matrix_free.operators.ImplicitMatrixContext.mult (40,315,452 us, 19.40%)</title><rect x="624.4" y="247" width="228.9" height="15.0" fill="rgb(0,0,0)" rx="2" ry="2" />
<text  x="627.37" y="257.5" >firedrake.matrix_free.opera..</text>
</g>
<g >
<title>Parloop_Cells_wrap_wrap_slate_loopy_knl_3 (36,047,214 us, 17.34%)</title><rect x="863.3" y="247" width="204.6" height="15.0" fill="rgb(0,0,0)" rx="2" ry="2" />
<text  x="866.27" y="257.5" >Parloop_Cells_wrap_wrap_..</text>
</g>
<g >
<title>ParLoopExecute (587,247 us, 0.28%)</title><rect x="603.9" y="311" width="3.3" height="15.0" fill="rgb(0,0,0)" rx="2" ry="2" />
<text  x="606.86" y="321.5" ></text>
</g>
<g >
<title>firedrake.tsfc_interface.compile_form (3,225,006 us, 1.55%)</title><rect x="1068.1" y="231" width="18.3" height="15.0" fill="rgb(0,0,0)" rx="2" ry="2" />
<text  x="1071.07" y="241.5" ></text>
</g>
<g >
<title>firedrake.functionspaceimpl.FunctionSpace.__init__ (24,938 us, 0.01%)</title><rect x="20.4" y="87" width="0.1" height="15.0" fill="rgb(0,0,0)" rx="2" ry="2" />
<text  x="23.36" y="97.5" ></text>
</g>
<g >
<title>ParLoopExecute (36,047,214 us, 17.34%)</title><rect x="863.3" y="231" width="204.6" height="15.0" fill="rgb(0,0,0)" rx="2" ry="2" />
<text  x="866.27" y="241.5" >ParLoopExecute</text>
</g>
<g >
<title>pyop2.global_kernel.GlobalKernel.compile (31,404,142 us, 15.11%)</title><rect x="392.5" y="199" width="178.3" height="15.0" fill="rgb(0,0,0)" rx="2" ry="2" />
<text  x="395.47" y="209.5" >pyop2.global_kernel.G..</text>
</g>
<g >
<title>ParLoopExecute (925,598 us, 0.45%)</title><rect x="90.1" y="183" width="5.3" height="15.0" fill="rgb(0,0,0)" rx="2" ry="2" />
<text  x="93.13" y="193.5" ></text>
</g>
<g >
<title>pyop2.global_kernel.GlobalKernel.compile (678,411 us, 0.33%)</title><rect x="1128.4" y="183" width="3.8" height="15.0" fill="rgb(0,0,0)" rx="2" ry="2" />
<text  x="1131.37" y="193.5" ></text>
</g>
<g >
<title>Parloop_Cells_wrap_par_loop_kernel (925,598 us, 0.45%)</title><rect x="90.1" y="199" width="5.3" height="15.0" fill="rgb(0,0,0)" rx="2" ry="2" />
<text  x="93.13" y="209.5" ></text>
</g>
<g >
<title>ParLoopExecute (887,381 us, 0.43%)</title><rect x="379.4" y="183" width="5.0" height="15.0" fill="rgb(0,0,0)" rx="2" ry="2" />
<text  x="382.40" y="193.5" ></text>
</g>
<g >
<title>Log_Event_slate_loopy_knl_7 (271,727 us, 0.13%)</title><rect x="586.4" y="279" width="1.6" height="15.0" fill="rgb(0,0,0)" rx="2" ry="2" />
<text  x="589.45" y="289.5" ></text>
</g>
<g >
<title>firedrake.matrix_free.operators.ImplicitMatrixContext.mult (286,643 us, 0.14%)</title><rect x="622.7" y="231" width="1.7" height="15.0" fill="rgb(0,0,0)" rx="2" ry="2" />
<text  x="625.74" y="241.5" ></text>
</g>
<g >
<title>ParLoopExecute (18,119,102 us, 8.72%)</title><rect x="95.4" y="151" width="102.9" height="15.0" fill="rgb(0,0,0)" rx="2" ry="2" />
<text  x="98.39" y="161.5" >ParLoopExec..</text>
</g>
<g >
<title>pyop2.global_kernel.GlobalKernel.compile (1,060,454 us, 0.51%)</title><rect x="607.2" y="375" width="6.0" height="15.0" fill="rgb(0,0,0)" rx="2" ry="2" />
<text  x="610.20" y="385.5" ></text>
</g>
<g >
<title>Parloop_Cells_wrap_expression_kernel (1,294,451 us, 0.62%)</title><rect x="1088.3" y="183" width="7.3" height="15.0" fill="rgb(0,0,0)" rx="2" ry="2" />
<text  x="1091.28" y="193.5" ></text>
</g>
<g >
<title>CreateExtMesh (921,088 us, 0.44%)</title><rect x="15.1" y="71" width="5.3" height="15.0" fill="rgb(0,0,0)" rx="2" ry="2" />
<text  x="18.13" y="81.5" ></text>
</g>
<g >
<title>Parloop_set_#x7f011838bf70_wrap_pyop2_kernel_inject (587,247 us, 0.28%)</title><rect x="603.9" y="327" width="3.3" height="15.0" fill="rgb(0,0,0)" rx="2" ry="2" />
<text  x="606.86" y="337.5" ></text>
</g>
<g >
<title>firedrake.pointquery_utils.to_reference_coordinates (479,026 us, 0.23%)</title><rect x="620.0" y="279" width="2.7" height="15.0" fill="rgb(0,0,0)" rx="2" ry="2" />
<text  x="623.02" y="289.5" ></text>
</g>
<g >
<title>firedrake.matrix_free.operators.ImplicitMatrixContext.mult (9,508,185 us, 4.58%)</title><rect x="29.1" y="135" width="54.0" height="15.0" fill="rgb(0,0,0)" rx="2" ry="2" />
<text  x="32.12" y="145.5" >fired..</text>
</g>
<g >
<title>HybridRHS (35,154,552 us, 16.92%)</title><rect x="384.4" y="151" width="199.6" height="15.0" fill="rgb(0,0,0)" rx="2" ry="2" />
<text  x="387.44" y="161.5" >HybridRHS</text>
</g>
<g >
<title>ParLoopExecute (888,838 us, 0.43%)</title><rect x="15.3" y="103" width="5.1" height="15.0" fill="rgb(0,0,0)" rx="2" ry="2" />
<text  x="18.31" y="113.5" ></text>
</g>
<g >
<title>firedrake.functionspacedata.get_shared_data (24,938 us, 0.01%)</title><rect x="20.4" y="103" width="0.1" height="15.0" fill="rgb(0,0,0)" rx="2" ry="2" />
<text  x="23.36" y="113.5" ></text>
</g>
<g >
<title>KSPSolve (88,809,114 us, 42.73%)</title><rect x="584.0" y="151" width="504.3" height="15.0" fill="rgb(0,0,0)" rx="2" ry="2" />
<text  x="587.04" y="161.5" >KSPSolve</text>
</g>
<g >
<title>Parloop_Cells_wrap_expression_kernel (1,060,454 us, 0.51%)</title><rect x="607.2" y="359" width="6.0" height="15.0" fill="rgb(0,0,0)" rx="2" ry="2" />
<text  x="610.20" y="369.5" ></text>
</g>
<g >
<title>Log_Event_subkernel8_interior_facet_vert_to__exterior_facet_vert_integral_otherwise (371,839 us, 0.18%)</title><rect x="590.6" y="279" width="2.1" height="15.0" fill="rgb(0,0,0)" rx="2" ry="2" />
<text  x="593.62" y="289.5" ></text>
</g>
<g >
<title>firedrake.__init__ (1,518,531 us, 0.73%)</title><rect x="20.5" y="71" width="8.6" height="15.0" fill="rgb(0,0,0)" rx="2" ry="2" />
<text  x="23.50" y="81.5" ></text>
</g>
<g >
<title>Parloop_Cells_wrap_wrap_slate_loopy_knl_0 (31,450,571 us, 15.13%)</title><rect x="392.2" y="183" width="178.6" height="15.0" fill="rgb(0,0,0)" rx="2" ry="2" />
<text  x="395.21" y="193.5" >Parloop_Cells_wrap_wr..</text>
</g>
<g >
<title>firedrake.assemble.allocate_matrix (23,396 us, 0.01%)</title><rect x="1067.9" y="231" width="0.2" height="15.0" fill="rgb(0,0,0)" rx="2" ry="2" />
<text  x="1070.93" y="241.5" ></text>
</g>
<g >
<title>HybridProject (925,598 us, 0.45%)</title><rect x="90.1" y="151" width="5.3" height="15.0" fill="rgb(0,0,0)" rx="2" ry="2" />
<text  x="93.13" y="161.5" ></text>
</g>
<g >
<title>SNESFunctionEval (10,176,996 us, 4.90%)</title><rect x="1132.2" y="103" width="57.8" height="15.0" fill="rgb(0,0,0)" rx="2" ry="2" />
<text  x="1135.22" y="113.5" >SNESF..</text>
</g>
<g >
<title>firedrake.tsfc_interface.compile_form (1,959,752 us, 0.94%)</title><rect x="368.3" y="151" width="11.1" height="15.0" fill="rgb(0,0,0)" rx="2" ry="2" />
<text  x="371.28" y="161.5" ></text>
</g>
<g >
<title>HybridBreak (887,381 us, 0.43%)</title><rect x="379.4" y="151" width="5.0" height="15.0" fill="rgb(0,0,0)" rx="2" ry="2" />
<text  x="382.40" y="161.5" ></text>
</g>
<g >
<title>MatMult (9,508,185 us, 4.58%)</title><rect x="29.1" y="119" width="54.0" height="15.0" fill="rgb(0,0,0)" rx="2" ry="2" />
<text  x="32.12" y="129.5" >MatMult</text>
</g>
<g >
<title>firedrake.pointquery_utils.to_reference_coordinates (471,199 us, 0.23%)</title><rect x="613.4" y="311" width="2.7" height="15.0" fill="rgb(0,0,0)" rx="2" ry="2" />
<text  x="616.42" y="321.5" ></text>
</g>
<g >
<title>MatMult (1,491,140 us, 0.72%)</title><rect x="585.7" y="215" width="8.4" height="15.0" fill="rgb(0,0,0)" rx="2" ry="2" />
<text  x="588.67" y="225.5" ></text>
</g>
<g >
<title>Log_Event_slate_loopy_knl_7 (73,080 us, 0.04%)</title><rect x="634.9" y="295" width="0.4" height="15.0" fill="rgb(0,0,0)" rx="2" ry="2" />
<text  x="637.88" y="305.5" ></text>
</g>
<g >
<title>solve_getrf (216,761 us, 0.10%)</title><rect x="586.6" y="295" width="1.2" height="15.0" fill="rgb(0,0,0)" rx="2" ry="2" />
<text  x="589.60" y="305.5" ></text>
</g>
<g >
<title>ParLoopExecute (35,346,846 us, 17.01%)</title><rect x="634.3" y="263" width="200.7" height="15.0" fill="rgb(0,0,0)" rx="2" ry="2" />
<text  x="637.29" y="273.5" >ParLoopExecute</text>
</g>
<g >
<title>firedrake.tsfc_interface.compile_form (3,221,643 us, 1.55%)</title><rect x="835.0" y="263" width="18.3" height="15.0" fill="rgb(0,0,0)" rx="2" ry="2" />
<text  x="837.98" y="273.5" ></text>
</g>
<g >
<title>PCSetUp (6,986,640 us, 3.36%)</title><rect x="1088.3" y="151" width="39.6" height="15.0" fill="rgb(0,0,0)" rx="2" ry="2" />
<text  x="1091.28" y="161.5" >PCS..</text>
</g>
<g >
<title>Parloop_Cells_wrap_wrap_slate_loopy_knl_7 (1,491,140 us, 0.72%)</title><rect x="585.7" y="263" width="8.4" height="15.0" fill="rgb(0,0,0)" rx="2" ry="2" />
<text  x="588.67" y="273.5" ></text>
</g>
<g >
<title>Log_Event_subkernel9_cell_to__cell_integral_otherwise (50,081 us, 0.02%)</title><rect x="585.4" y="231" width="0.3" height="15.0" fill="rgb(0,0,0)" rx="2" ry="2" />
<text  x="588.39" y="241.5" ></text>
</g>
<g >
<title>HybridInit (752,512 us, 0.36%)</title><rect x="1127.9" y="119" width="4.3" height="15.0" fill="rgb(0,0,0)" rx="2" ry="2" />
<text  x="1130.94" y="129.5" ></text>
</g>
<g >
<title>firedrake.tsfc_interface.compile_form (341,778 us, 0.16%)</title><rect x="1126.0" y="167" width="1.9" height="15.0" fill="rgb(0,0,0)" rx="2" ry="2" />
<text  x="1129.00" y="177.5" ></text>
</g>
<g >
<title>Parloop_set_#x7f011838a4d0_wrap_pyop2_kernel_restrict (666,552 us, 0.32%)</title><rect x="616.2" y="295" width="3.8" height="15.0" fill="rgb(0,0,0)" rx="2" ry="2" />
<text  x="619.24" y="305.5" ></text>
</g>
<g >
<title>ParLoopExecute (8,265,130 us, 3.98%)</title><rect x="29.1" y="151" width="46.9" height="15.0" fill="rgb(0,0,0)" rx="2" ry="2" />
<text  x="32.12" y="161.5" >ParL..</text>
</g>
<g >
<title>PCSetUp (3,662,092 us, 1.76%)</title><rect x="601.9" y="231" width="20.8" height="15.0" fill="rgb(0,0,0)" rx="2" ry="2" />
<text  x="604.95" y="241.5" ></text>
</g>
<g >
<title>Log_Event_subkernel8_interior_facet_horiz_bottom_to__exterior_facet_bottom_integral_otherwise (43,961 us, 0.02%)</title><rect x="590.1" y="279" width="0.3" height="15.0" fill="rgb(0,0,0)" rx="2" ry="2" />
<text  x="593.12" y="289.5" ></text>
</g>
<g >
<title>KSPSolve (193,531,289 us, 93.12%)</title><rect x="29.1" y="103" width="1098.8" height="15.0" fill="rgb(0,0,0)" rx="2" ry="2" />
<text  x="32.12" y="113.5" >KSPSolve</text>
</g>
<g >
<title>MatMult (287,111 us, 0.14%)</title><rect x="584.0" y="167" width="1.7" height="15.0" fill="rgb(0,0,0)" rx="2" ry="2" />
<text  x="587.04" y="177.5" ></text>
</g>
<g >
<title>Parloop_Cells_wrap_wrap_slate_loopy_knl_7 (286,643 us, 0.14%)</title><rect x="622.7" y="263" width="1.7" height="15.0" fill="rgb(0,0,0)" rx="2" ry="2" />
<text  x="625.74" y="273.5" ></text>
</g>
<g >
<title>firedrake.interpolation.interpolate (1,095,608 us, 0.53%)</title><rect x="607.2" y="311" width="6.2" height="15.0" fill="rgb(0,0,0)" rx="2" ry="2" />
<text  x="610.20" y="321.5" ></text>
</g>
<g >
<title>Log_Event_slate_loopy_knl_11 (31,337 us, 0.02%)</title><rect x="207.5" y="199" width="0.2" height="15.0" fill="rgb(0,0,0)" rx="2" ry="2" />
<text  x="210.50" y="209.5" ></text>
</g>
<g >
<title>firedrake.tsfc_interface.compile_form (1,243,055 us, 0.60%)</title><rect x="76.0" y="151" width="7.1" height="15.0" fill="rgb(0,0,0)" rx="2" ry="2" />
<text  x="79.05" y="161.5" ></text>
</g>
<g >
<title>ParLoopExecute (1,491,140 us, 0.72%)</title><rect x="585.7" y="247" width="8.4" height="15.0" fill="rgb(0,0,0)" rx="2" ry="2" />
<text  x="588.67" y="257.5" ></text>
</g>
<g >
<title>KSPSolve (6,529,108 us, 3.14%)</title><rect x="585.7" y="199" width="37.0" height="15.0" fill="rgb(0,0,0)" rx="2" ry="2" />
<text  x="588.67" y="209.5" >KS..</text>
</g>
<g >
<title>PCSetUp (41,056,277 us, 19.75%)</title><rect x="853.3" y="215" width="233.1" height="15.0" fill="rgb(0,0,0)" rx="2" ry="2" />
<text  x="856.27" y="225.5" >PCSetUp</text>
</g>
</g>
</svg>
