<?xml version="1.0" standalone="no"?>
<!DOCTYPE svg PUBLIC "-//W3C//DTD SVG 1.1//EN" "http://www.w3.org/Graphics/SVG/1.1/DTD/svg11.dtd">
<svg version="1.1" width="1200" height="299" onload="init(evt)" viewBox="0 0 1200 299" xmlns="http://www.w3.org/2000/svg" xmlns:xlink="http://www.w3.org/1999/xlink">
<!-- Flame graph stack visualization. See https://github.com/brendangregg/FlameGraph for latest version, and http://www.brendangregg.com/flamegraphs.html for examples. -->
<!-- NOTES:  -->
<defs>
	<linearGradient id="background" y1="0" y2="1" x1="0" x2="0" >
		<stop stop-color="#eeeeee" offset="5%" />
		<stop stop-color="#eeeeb0" offset="95%" />
	</linearGradient>
</defs>
<style type="text/css">
	text { font-family:Verdana; font-size:13px; fill:rgb(0,0,0); }
	#search, #ignorecase { opacity:0.1; cursor:pointer; }
	#search:hover, #search.show, #ignorecase:hover, #ignorecase.show { opacity:1; }
	#subtitle { text-anchor:middle; font-color:rgb(160,160,160); }
	#title { text-anchor:middle; font-size:18px}
	#unzoom { cursor:pointer; }
	#frames > *:hover { stroke:black; stroke-width:0.5; cursor:pointer; }
	.hide { display:none; }
	.parent { opacity:0.5; }
</style>
<script type="text/ecmascript">
<![CDATA[
	"use strict";
	var details, searchbtn, unzoombtn, matchedtxt, svg, searching, currentSearchTerm, ignorecase, ignorecaseBtn;
	function init(evt) {
		details = document.getElementById("details").firstChild;
		searchbtn = document.getElementById("search");
		ignorecaseBtn = document.getElementById("ignorecase");
		unzoombtn = document.getElementById("unzoom");
		matchedtxt = document.getElementById("matched");
		svg = document.getElementsByTagName("svg")[0];
		searching = 0;
		currentSearchTerm = null;

		// use GET parameters to restore a flamegraphs state.
		var params = get_params();
		if (params.x && params.y)
			zoom(find_group(document.querySelector('[x="' + params.x + '"][y="' + params.y + '"]')));
                if (params.s) search(params.s);
	}

	// event listeners
	window.addEventListener("click", function(e) {
		var target = find_group(e.target);
		if (target) {
			if (target.nodeName == "a") {
				if (e.ctrlKey === false) return;
				e.preventDefault();
			}
			if (target.classList.contains("parent")) unzoom();
			zoom(target);
			if (!document.querySelector('.parent')) {
				clearzoom();
				return;
			}

			// set parameters for zoom state
			var el = target.querySelector("rect");
			if (el && el.attributes && el.attributes.y && el.attributes._orig_x) {
				var params = get_params()
				params.x = el.attributes._orig_x.value;
				params.y = el.attributes.y.value;
				history.replaceState(null, null, parse_params(params));
			}
		}
		else if (e.target.id == "unzoom") clearzoom();
		else if (e.target.id == "search") search_prompt();
		else if (e.target.id == "ignorecase") toggle_ignorecase();
	}, false)

	// mouse-over for info
	// show
	window.addEventListener("mouseover", function(e) {
		var target = find_group(e.target);
		if (target) details.nodeValue = "Function: " + g_to_text(target);
	}, false)

	// clear
	window.addEventListener("mouseout", function(e) {
		var target = find_group(e.target);
		if (target) details.nodeValue = ' ';
	}, false)

	// ctrl-F for search
	// ctrl-I to toggle case-sensitive search
	window.addEventListener("keydown",function (e) {
		if (e.keyCode === 114 || (e.ctrlKey && e.keyCode === 70)) {
			e.preventDefault();
			search_prompt();
		}
		else if (e.ctrlKey && e.keyCode === 73) {
			e.preventDefault();
			toggle_ignorecase();
		}
	}, false)

	// functions
	function get_params() {
		var params = {};
		var paramsarr = window.location.search.substr(1).split('&');
		for (var i = 0; i < paramsarr.length; ++i) {
			var tmp = paramsarr[i].split("=");
			if (!tmp[0] || !tmp[1]) continue;
			params[tmp[0]]  = decodeURIComponent(tmp[1]);
		}
		return params;
	}
	function parse_params(params) {
		var uri = "?";
		for (var key in params) {
			uri += key + '=' + encodeURIComponent(params[key]) + '&';
		}
		if (uri.slice(-1) == "&")
			uri = uri.substring(0, uri.length - 1);
		if (uri == '?')
			uri = window.location.href.split('?')[0];
		return uri;
	}
	function find_child(node, selector) {
		var children = node.querySelectorAll(selector);
		if (children.length) return children[0];
	}
	function find_group(node) {
		var parent = node.parentElement;
		if (!parent) return;
		if (parent.id == "frames") return node;
		return find_group(parent);
	}
	function orig_save(e, attr, val) {
		if (e.attributes["_orig_" + attr] != undefined) return;
		if (e.attributes[attr] == undefined) return;
		if (val == undefined) val = e.attributes[attr].value;
		e.setAttribute("_orig_" + attr, val);
	}
	function orig_load(e, attr) {
		if (e.attributes["_orig_"+attr] == undefined) return;
		e.attributes[attr].value = e.attributes["_orig_" + attr].value;
		e.removeAttribute("_orig_"+attr);
	}
	function g_to_text(e) {
		var text = find_child(e, "title").firstChild.nodeValue;
		return (text)
	}
	function g_to_func(e) {
		var func = g_to_text(e);
		// if there's any manipulation we want to do to the function
		// name before it's searched, do it here before returning.
		return (func);
	}
	function update_text(e) {
		var r = find_child(e, "rect");
		var t = find_child(e, "text");
		var w = parseFloat(r.attributes.width.value) -3;
		var txt = find_child(e, "title").textContent.replace(/\([^(]*\)$/,"");
		t.attributes.x.value = parseFloat(r.attributes.x.value) + 3;

		// Smaller than this size won't fit anything
		if (w < 2 * 13 * 0.59) {
			t.textContent = "";
			return;
		}

		t.textContent = txt;
		// Fit in full text width
		if (/^ *$/.test(txt) || t.getSubStringLength(0, txt.length) < w)
			return;

		for (var x = txt.length - 2; x > 0; x--) {
			if (t.getSubStringLength(0, x + 2) <= w) {
				t.textContent = txt.substring(0, x) + "..";
				return;
			}
		}
		t.textContent = "";
	}

	// zoom
	function zoom_reset(e) {
		if (e.attributes != undefined) {
			orig_load(e, "x");
			orig_load(e, "width");
		}
		if (e.childNodes == undefined) return;
		for (var i = 0, c = e.childNodes; i < c.length; i++) {
			zoom_reset(c[i]);
		}
	}
	function zoom_child(e, x, ratio) {
		if (e.attributes != undefined) {
			if (e.attributes.x != undefined) {
				orig_save(e, "x");
				e.attributes.x.value = (parseFloat(e.attributes.x.value) - x - 10) * ratio + 10;
				if (e.tagName == "text")
					e.attributes.x.value = find_child(e.parentNode, "rect[x]").attributes.x.value + 3;
			}
			if (e.attributes.width != undefined) {
				orig_save(e, "width");
				e.attributes.width.value = parseFloat(e.attributes.width.value) * ratio;
			}
		}

		if (e.childNodes == undefined) return;
		for (var i = 0, c = e.childNodes; i < c.length; i++) {
			zoom_child(c[i], x - 10, ratio);
		}
	}
	function zoom_parent(e) {
		if (e.attributes) {
			if (e.attributes.x != undefined) {
				orig_save(e, "x");
				e.attributes.x.value = 10;
			}
			if (e.attributes.width != undefined) {
				orig_save(e, "width");
				e.attributes.width.value = parseInt(svg.width.baseVal.value) - (10 * 2);
			}
		}
		if (e.childNodes == undefined) return;
		for (var i = 0, c = e.childNodes; i < c.length; i++) {
			zoom_parent(c[i]);
		}
	}
	function zoom(node) {
		var attr = find_child(node, "rect").attributes;
		var width = parseFloat(attr.width.value);
		var xmin = parseFloat(attr.x.value);
		var xmax = parseFloat(xmin + width);
		var ymin = parseFloat(attr.y.value);
		var ratio = (svg.width.baseVal.value - 2 * 10) / width;

		// XXX: Workaround for JavaScript float issues (fix me)
		var fudge = 0.0001;

		unzoombtn.classList.remove("hide");

		var el = document.getElementById("frames").children;
		for (var i = 0; i < el.length; i++) {
			var e = el[i];
			var a = find_child(e, "rect").attributes;
			var ex = parseFloat(a.x.value);
			var ew = parseFloat(a.width.value);
			var upstack;
			// Is it an ancestor
			if (1 == 0) {
				upstack = parseFloat(a.y.value) > ymin;
			} else {
				upstack = parseFloat(a.y.value) < ymin;
			}
			if (upstack) {
				// Direct ancestor
				if (ex <= xmin && (ex+ew+fudge) >= xmax) {
					e.classList.add("parent");
					zoom_parent(e);
					update_text(e);
				}
				// not in current path
				else
					e.classList.add("hide");
			}
			// Children maybe
			else {
				// no common path
				if (ex < xmin || ex + fudge >= xmax) {
					e.classList.add("hide");
				}
				else {
					zoom_child(e, xmin, ratio);
					update_text(e);
				}
			}
		}
		search();
	}
	function unzoom() {
		unzoombtn.classList.add("hide");
		var el = document.getElementById("frames").children;
		for(var i = 0; i < el.length; i++) {
			el[i].classList.remove("parent");
			el[i].classList.remove("hide");
			zoom_reset(el[i]);
			update_text(el[i]);
		}
		search();
	}
	function clearzoom() {
		unzoom();

		// remove zoom state
		var params = get_params();
		if (params.x) delete params.x;
		if (params.y) delete params.y;
		history.replaceState(null, null, parse_params(params));
	}

	// search
	function toggle_ignorecase() {
		ignorecase = !ignorecase;
		if (ignorecase) {
			ignorecaseBtn.classList.add("show");
		} else {
			ignorecaseBtn.classList.remove("show");
		}
		reset_search();
		search();
	}
	function reset_search() {
		var el = document.querySelectorAll("#frames rect");
		for (var i = 0; i < el.length; i++) {
			orig_load(el[i], "fill")
		}
		var params = get_params();
		delete params.s;
		history.replaceState(null, null, parse_params(params));
	}
	function search_prompt() {
		if (!searching) {
			var term = prompt("Enter a search term (regexp " +
			    "allowed, eg: ^ext4_)"
			    + (ignorecase ? ", ignoring case" : "")
			    + "\nPress Ctrl-i to toggle case sensitivity", "");
			if (term != null) search(term);
		} else {
			reset_search();
			searching = 0;
			currentSearchTerm = null;
			searchbtn.classList.remove("show");
			searchbtn.firstChild.nodeValue = "Search"
			matchedtxt.classList.add("hide");
			matchedtxt.firstChild.nodeValue = ""
		}
	}
	function search(term) {
		if (term) currentSearchTerm = term;

		var re = new RegExp(currentSearchTerm, ignorecase ? 'i' : '');
		var el = document.getElementById("frames").children;
		var matches = new Object();
		var maxwidth = 0;
		for (var i = 0; i < el.length; i++) {
			var e = el[i];
			var func = g_to_func(e);
			var rect = find_child(e, "rect");
			if (func == null || rect == null)
				continue;

			// Save max width. Only works as we have a root frame
			var w = parseFloat(rect.attributes.width.value);
			if (w > maxwidth)
				maxwidth = w;

			if (func.match(re)) {
				// highlight
				var x = parseFloat(rect.attributes.x.value);
				orig_save(rect, "fill");
				rect.attributes.fill.value = "rgb(230,0,230)";

				// remember matches
				if (matches[x] == undefined) {
					matches[x] = w;
				} else {
					if (w > matches[x]) {
						// overwrite with parent
						matches[x] = w;
					}
				}
				searching = 1;
			}
		}
		if (!searching)
			return;
		var params = get_params();
		params.s = currentSearchTerm;
		history.replaceState(null, null, parse_params(params));

		searchbtn.classList.add("show");
		searchbtn.firstChild.nodeValue = "Reset Search";

		// calculate percent matched, excluding vertical overlap
		var count = 0;
		var lastx = -1;
		var lastw = 0;
		var keys = Array();
		for (k in matches) {
			if (matches.hasOwnProperty(k))
				keys.push(k);
		}
		// sort the matched frames by their x location
		// ascending, then width descending
		keys.sort(function(a, b){
			return a - b;
		});
		// Step through frames saving only the biggest bottom-up frames
		// thanks to the sort order. This relies on the tree property
		// where children are always smaller than their parents.
		var fudge = 0.0001;	// JavaScript floating point
		for (var k in keys) {
			var x = parseFloat(keys[k]);
			var w = matches[keys[k]];
			if (x >= lastx + lastw - fudge) {
				count += w;
				lastx = x;
				lastw = w;
			}
		}
		// display matched percent
		matchedtxt.classList.remove("hide");
		var pct = 100 * count / maxwidth;
		if (pct != 100) pct = pct.toFixed(1)
		matchedtxt.firstChild.nodeValue = "Matched: " + pct + "%";
	}
]]>
</script>
<rect x="0.0" y="0" width="1200.0" height="299.0" fill="url(#background)"  />
<text id="title" x="600.00" y="26" >Firedrake example</text>
<text id="details" x="10.00" y="281" > </text>
<text id="unzoom" x="10.00" y="26" class="hide">Reset Zoom</text>
<text id="search" x="1090.00" y="26" >Search</text>
<text id="ignorecase" x="1174.00" y="26" >ic</text>
<text id="matched" x="1090.00" y="281" > </text>
<g id="frames">
<g >
<title>MatAssemblyEnd (39,056 us, 0.03%)</title><rect x="1116.4" y="135" width="0.4" height="15.0" fill="rgb(0,0,0)" rx="2" ry="2" />
<text  x="1119.43" y="145.5" ></text>
</g>
<g >
<title>KSPGMRESOrthog (91,414 us, 0.06%)</title><rect x="284.0" y="119" width="0.7" height="15.0" fill="rgb(0,0,0)" rx="2" ry="2" />
<text  x="286.97" y="129.5" ></text>
</g>
<g >
<title>firedrake.functionspaceimpl.FunctionSpace.__init__ (24,308 us, 0.02%)</title><rect x="18.0" y="87" width="0.2" height="15.0" fill="rgb(0,0,0)" rx="2" ry="2" />
<text  x="21.02" y="97.5" ></text>
</g>
<g >
<title>MatMult (4,627,105 us, 3.29%)</title><rect x="284.7" y="119" width="38.8" height="15.0" fill="rgb(0,0,0)" rx="2" ry="2" />
<text  x="287.73" y="129.5" >Mat..</text>
</g>
<g >
<title>CreateSparsity (22,255,294 us, 15.81%)</title><rect x="31.2" y="103" width="186.5" height="15.0" fill="rgb(0,0,0)" rx="2" ry="2" />
<text  x="34.17" y="113.5" >CreateSparsity</text>
</g>
<g >
<title>PCGAMGProl_AGG (14,901 us, 0.01%)</title><rect x="937.8" y="183" width="0.1" height="15.0" fill="rgb(0,0,0)" rx="2" ry="2" />
<text  x="940.79" y="193.5" ></text>
</g>
<g >
<title>MatAssemblyEnd (30,112 us, 0.02%)</title><rect x="893.0" y="231" width="0.3" height="15.0" fill="rgb(0,0,0)" rx="2" ry="2" />
<text  x="896.01" y="241.5" ></text>
</g>
<g >
<title>SNESJacobianEval (4,717,643 us, 3.35%)</title><rect x="1150.5" y="103" width="39.5" height="15.0" fill="rgb(0,0,0)" rx="2" ry="2" />
<text  x="1153.46" y="113.5" >SNE..</text>
</g>
<g >
<title>MatConvert (126,113 us, 0.09%)</title><rect x="1071.6" y="119" width="1.1" height="15.0" fill="rgb(0,0,0)" rx="2" ry="2" />
<text  x="1074.64" y="129.5" ></text>
</g>
<g >
<title>Parloop_Cells_wrap_form1_cell_integral_otherwise (52,230 us, 0.04%)</title><rect x="1149.7" y="135" width="0.4" height="15.0" fill="rgb(0,0,0)" rx="2" ry="2" />
<text  x="1152.70" y="145.5" ></text>
</g>
<g >
<title>PCGAMG Gal l02 (14,233 us, 0.01%)</title><rect x="949.7" y="183" width="0.1" height="15.0" fill="rgb(0,0,0)" rx="2" ry="2" />
<text  x="952.70" y="193.5" ></text>
</g>
<g >
<title>MatLUFactorNum (7,804,451 us, 5.54%)</title><rect x="981.7" y="183" width="65.4" height="15.0" fill="rgb(0,0,0)" rx="2" ry="2" />
<text  x="984.70" y="193.5" >MatLUF..</text>
</g>
<g >
<title>VecAYPX (42,563 us, 0.03%)</title><rect x="817.5" y="199" width="0.4" height="15.0" fill="rgb(0,0,0)" rx="2" ry="2" />
<text  x="820.51" y="209.5" ></text>
</g>
<g >
<title>PCApply (30,993,330 us, 22.01%)</title><rect x="323.5" y="167" width="259.7" height="15.0" fill="rgb(0,0,0)" rx="2" ry="2" />
<text  x="326.51" y="177.5" >PCApply</text>
</g>
<g >
<title>Parloop_Cells_wrap_form0_cell_integral_otherwise (60,338 us, 0.04%)</title><rect x="1149.2" y="135" width="0.5" height="15.0" fill="rgb(0,0,0)" rx="2" ry="2" />
<text  x="1152.20" y="145.5" ></text>
</g>
<g >
<title>KSPSetUp (2,141,438 us, 1.52%)</title><rect x="949.8" y="167" width="18.0" height="15.0" fill="rgb(0,0,0)" rx="2" ry="2" />
<text  x="952.82" y="177.5" ></text>
</g>
<g >
<title>PCGAMG Opt l00 (604,915 us, 0.43%)</title><rect x="921.3" y="215" width="5.1" height="15.0" fill="rgb(0,0,0)" rx="2" ry="2" />
<text  x="924.28" y="225.5" ></text>
</g>
<g >
<title>MatMatMultNum (3,478,197 us, 2.47%)</title><rect x="1087.6" y="119" width="29.2" height="15.0" fill="rgb(0,0,0)" rx="2" ry="2" />
<text  x="1090.61" y="129.5" >M..</text>
</g>
<g >
<title>MatMult (2,942,530 us, 2.09%)</title><rect x="558.6" y="199" width="24.6" height="15.0" fill="rgb(0,0,0)" rx="2" ry="2" />
<text  x="561.59" y="209.5" >M..</text>
</g>
<g >
<title>PCApply (59,824 us, 0.04%)</title><rect x="937.3" y="215" width="0.5" height="15.0" fill="rgb(0,0,0)" rx="2" ry="2" />
<text  x="940.29" y="225.5" ></text>
</g>
<g >
<title>firedrake.variational_solver.LinearVariationalProblem.__init__ (17,848 us, 0.01%)</title><rect x="31.0" y="71" width="0.2" height="15.0" fill="rgb(0,0,0)" rx="2" ry="2" />
<text  x="34.02" y="81.5" ></text>
</g>
<g >
<title>pyop2.global_kernel.GlobalKernel.compile (39,879 us, 0.03%)</title><rect x="1149.4" y="151" width="0.3" height="15.0" fill="rgb(0,0,0)" rx="2" ry="2" />
<text  x="1152.37" y="161.5" ></text>
</g>
<g >
<title>PCSetUp (10,504,639 us, 7.46%)</title><rect x="1061.2" y="103" width="88.0" height="15.0" fill="rgb(0,0,0)" rx="2" ry="2" />
<text  x="1064.16" y="113.5" >PCSetUp</text>
</g>
<g >
<title>KSPSolve_FS_Schu (9,467,028 us, 6.72%)</title><rect x="967.8" y="135" width="79.3" height="15.0" fill="rgb(0,0,0)" rx="2" ry="2" />
<text  x="970.77" y="145.5" >KSPSolve..</text>
</g>
<g >
<title>CreateExtMesh (69,427 us, 0.05%)</title><rect x="17.4" y="71" width="0.6" height="15.0" fill="rgb(0,0,0)" rx="2" ry="2" />
<text  x="20.44" y="81.5" ></text>
</g>
<g >
<title>PCSetUpOnBlocks (8,005,047 us, 5.69%)</title><rect x="980.0" y="151" width="67.1" height="15.0" fill="rgb(0,0,0)" rx="2" ry="2" />
<text  x="983.02" y="161.5" >PCSetU..</text>
</g>
<g >
<title>PCApply (1,461,981 us, 1.04%)</title><rect x="967.8" y="167" width="12.2" height="15.0" fill="rgb(0,0,0)" rx="2" ry="2" />
<text  x="970.77" y="177.5" ></text>
</g>
<g >
<title>KSPSolve (92,773,281 us, 65.89%)</title><rect x="283.7" y="103" width="777.5" height="15.0" fill="rgb(0,0,0)" rx="2" ry="2" />
<text  x="286.69" y="113.5" >KSPSolve</text>
</g>
<g >
<title>PCApply (13,181,136 us, 9.36%)</title><rect x="706.5" y="231" width="110.4" height="15.0" fill="rgb(0,0,0)" rx="2" ry="2" />
<text  x="709.48" y="241.5" >PCApply</text>
</g>
<g >
<title>MatSOR (974,567 us, 0.69%)</title><rect x="959.6" y="247" width="8.2" height="15.0" fill="rgb(0,0,0)" rx="2" ry="2" />
<text  x="962.60" y="257.5" ></text>
</g>
<g >
<title>PCGAMGCoarse_AGG (6,009,825 us, 4.27%)</title><rect x="842.9" y="183" width="50.4" height="15.0" fill="rgb(0,0,0)" rx="2" ry="2" />
<text  x="845.90" y="193.5" >PCGA..</text>
</g>
<g >
<title>MatMatMultSym (3,781,187 us, 2.69%)</title><rect x="1116.8" y="119" width="31.6" height="15.0" fill="rgb(0,0,0)" rx="2" ry="2" />
<text  x="1119.76" y="129.5" >Ma..</text>
</g>
<g >
<title>MatSolve (1,461,981 us, 1.04%)</title><rect x="967.8" y="215" width="12.2" height="15.0" fill="rgb(0,0,0)" rx="2" ry="2" />
<text  x="970.77" y="225.5" ></text>
</g>
<g >
<title>KSPSolve (13,217,280 us, 9.39%)</title><rect x="446.8" y="215" width="110.7" height="15.0" fill="rgb(0,0,0)" rx="2" ry="2" />
<text  x="449.77" y="225.5" >KSPSolve</text>
</g>
<g >
<title>VecAXPBYCZ (31,992 us, 0.02%)</title><rect x="817.2" y="199" width="0.3" height="15.0" fill="rgb(0,0,0)" rx="2" ry="2" />
<text  x="820.24" y="209.5" ></text>
</g>
<g >
<title>MatMatMultSym (280,009 us, 0.20%)</title><rect x="924.0" y="231" width="2.4" height="15.0" fill="rgb(0,0,0)" rx="2" ry="2" />
<text  x="927.00" y="241.5" ></text>
</g>
<g >
<title>Log_Event_form01_cell_integral_otherwise (188,945 us, 0.13%)</title><rect x="1177.0" y="151" width="1.6" height="15.0" fill="rgb(0,0,0)" rx="2" ry="2" />
<text  x="1180.00" y="161.5" ></text>
</g>
<g >
<title>MatMult (14,704,428 us, 10.44%)</title><rect x="583.2" y="199" width="123.3" height="15.0" fill="rgb(0,0,0)" rx="2" ry="2" />
<text  x="586.25" y="209.5" >MatMult</text>
</g>
<g >
<title>  MIS/Agg (46,582 us, 0.03%)</title><rect x="843.1" y="199" width="0.4" height="15.0" fill="rgb(0,0,0)" rx="2" ry="2" />
<text  x="846.11" y="209.5" ></text>
</g>
<g >
<title>KSPSolve (1,461,981 us, 1.04%)</title><rect x="967.8" y="183" width="12.2" height="15.0" fill="rgb(0,0,0)" rx="2" ry="2" />
<text  x="970.77" y="193.5" ></text>
</g>
<g >
<title>PCGAMGPOpt_AGG (2,039,292 us, 1.45%)</title><rect x="920.7" y="183" width="17.1" height="15.0" fill="rgb(0,0,0)" rx="2" ry="2" />
<text  x="923.70" y="193.5" ></text>
</g>
<g >
<title>firedrake (140,804,410 us, 100.00%)</title><rect x="10.0" y="55" width="1180.0" height="15.0" fill="rgb(0,0,0)" rx="2" ry="2" />
<text  x="13.00" y="65.5" >firedrake</text>
</g>
<g >
<title>PCApply (13,216,921 us, 9.39%)</title><rect x="706.5" y="199" width="110.7" height="15.0" fill="rgb(0,0,0)" rx="2" ry="2" />
<text  x="709.48" y="209.5" >PCApply</text>
</g>
<g >
<title>KSPSolve (974,567 us, 0.69%)</title><rect x="959.6" y="215" width="8.2" height="15.0" fill="rgb(0,0,0)" rx="2" ry="2" />
<text  x="962.60" y="225.5" ></text>
</g>
<g >
<title>firedrake.tsfc_interface.compile_form (58,800 us, 0.04%)</title><rect x="1189.5" y="119" width="0.5" height="15.0" fill="rgb(0,0,0)" rx="2" ry="2" />
<text  x="1192.51" y="129.5" ></text>
</g>
<g >
<title>MatAssemblyEnd (39,871 us, 0.03%)</title><rect x="1071.3" y="135" width="0.3" height="15.0" fill="rgb(0,0,0)" rx="2" ry="2" />
<text  x="1074.31" y="145.5" ></text>
</g>
<g >
<title>  Graph (3,273,834 us, 2.33%)</title><rect x="893.3" y="199" width="27.4" height="15.0" fill="rgb(0,0,0)" rx="2" ry="2" />
<text  x="896.26" y="209.5" > ..</text>
</g>
<g >
<title>pyop2.global_kernel.GlobalKernel.compile (33,931 us, 0.02%)</title><rect x="1149.9" y="151" width="0.2" height="15.0" fill="rgb(0,0,0)" rx="2" ry="2" />
<text  x="1152.86" y="161.5" ></text>
</g>
<g >
<title>MatSOR (13,181,136 us, 9.36%)</title><rect x="706.5" y="247" width="110.4" height="15.0" fill="rgb(0,0,0)" rx="2" ry="2" />
<text  x="709.48" y="257.5" >MatSOR</text>
</g>
<g >
<title>firedrake.variational_solver.NonlinearVariationalSolver.__init__ (30,131,493 us, 21.40%)</title><rect x="31.2" y="71" width="252.5" height="15.0" fill="rgb(0,0,0)" rx="2" ry="2" />
<text  x="34.17" y="81.5" >firedrake.variational_solver.N..</text>
</g>
<g >
<title>KSPSolve (30,993,330 us, 22.01%)</title><rect x="323.5" y="151" width="259.7" height="15.0" fill="rgb(0,0,0)" rx="2" ry="2" />
<text  x="326.51" y="161.5" >KSPSolve</text>
</g>
<g >
<title>PCApply (974,567 us, 0.69%)</title><rect x="959.6" y="231" width="8.2" height="15.0" fill="rgb(0,0,0)" rx="2" ry="2" />
<text  x="962.60" y="241.5" ></text>
</g>
<g >
<title>PCGAMG Gal l00 (1,353,484 us, 0.96%)</title><rect x="937.9" y="183" width="11.4" height="15.0" fill="rgb(0,0,0)" rx="2" ry="2" />
<text  x="940.91" y="193.5" ></text>
</g>
<g >
<title>pyop2.global_kernel.GlobalKernel.compile (39,984 us, 0.03%)</title><rect x="1189.2" y="151" width="0.3" height="15.0" fill="rgb(0,0,0)" rx="2" ry="2" />
<text  x="1192.17" y="161.5" ></text>
</g>
<g >
<title>KSPSolve (13,216,921 us, 9.39%)</title><rect x="706.5" y="215" width="110.7" height="15.0" fill="rgb(0,0,0)" rx="2" ry="2" />
<text  x="709.48" y="225.5" >KSPSolve</text>
</g>
<g >
<title>PCApply (1,461,981 us, 1.04%)</title><rect x="967.8" y="199" width="12.2" height="15.0" fill="rgb(0,0,0)" rx="2" ry="2" />
<text  x="970.77" y="209.5" ></text>
</g>
<g >
<title>  SA: smooth (674,295 us, 0.48%)</title><rect x="920.7" y="199" width="5.7" height="15.0" fill="rgb(0,0,0)" rx="2" ry="2" />
<text  x="923.70" y="209.5" ></text>
</g>
<g >
<title>MatMultTranspose (27,829 us, 0.02%)</title><rect x="818.0" y="183" width="0.3" height="15.0" fill="rgb(0,0,0)" rx="2" ry="2" />
<text  x="821.03" y="193.5" ></text>
</g>
<g >
<title>KSPSolve_FS_Low (45,883,258 us, 32.59%)</title><rect x="583.2" y="135" width="384.6" height="15.0" fill="rgb(0,0,0)" rx="2" ry="2" />
<text  x="586.25" y="145.5" >KSPSolve_FS_Low</text>
</g>
<g >
<title>MatMult (1,149,946 us, 0.82%)</title><rect x="950.0" y="199" width="9.6" height="15.0" fill="rgb(0,0,0)" rx="2" ry="2" />
<text  x="952.96" y="209.5" ></text>
</g>
<g >
<title>PCGAMGGraph_AGG (3,273,834 us, 2.33%)</title><rect x="893.3" y="183" width="27.4" height="15.0" fill="rgb(0,0,0)" rx="2" ry="2" />
<text  x="896.26" y="193.5" >P..</text>
</g>
<g >
<title>firedrake.variational_solver.NonlinearVariationalProblem.__init__ (18,019 us, 0.01%)</title><rect x="1149.0" y="151" width="0.2" height="15.0" fill="rgb(0,0,0)" rx="2" ry="2" />
<text  x="1152.05" y="161.5" ></text>
</g>
<g >
<title>firedrake.dmhooks.create_field_decomposition (18,019 us, 0.01%)</title><rect x="1149.0" y="119" width="0.2" height="15.0" fill="rgb(0,0,0)" rx="2" ry="2" />
<text  x="1152.05" y="129.5" ></text>
</g>
<g >
<title>firedrake.assemble.allocate_matrix (30,131,493 us, 21.40%)</title><rect x="31.2" y="87" width="252.5" height="15.0" fill="rgb(0,0,0)" rx="2" ry="2" />
<text  x="34.17" y="97.5" >firedrake.assemble.allocate_ma..</text>
</g>
<g >
<title>PCGAMG Gal l01 (53,022 us, 0.04%)</title><rect x="949.3" y="183" width="0.4" height="15.0" fill="rgb(0,0,0)" rx="2" ry="2" />
<text  x="952.26" y="193.5" ></text>
</g>
<g >
<title>KSPSolve (27,999,540 us, 19.89%)</title><rect x="323.5" y="183" width="234.7" height="15.0" fill="rgb(0,0,0)" rx="2" ry="2" />
<text  x="326.51" y="193.5" >KSPSolve</text>
</g>
<g >
<title>Log_Event_form00_cell_integral_otherwise (462,152 us, 0.33%)</title><rect x="1165.8" y="151" width="3.9" height="15.0" fill="rgb(0,0,0)" rx="2" ry="2" />
<text  x="1168.79" y="161.5" ></text>
</g>
<g >
<title>MatResidual (2,942,530 us, 2.09%)</title><rect x="558.6" y="183" width="24.6" height="15.0" fill="rgb(0,0,0)" rx="2" ry="2" />
<text  x="561.59" y="193.5" >M..</text>
</g>
<g >
<title>GAMG: createProl (11,337,852 us, 8.05%)</title><rect x="842.9" y="167" width="95.0" height="15.0" fill="rgb(0,0,0)" rx="2" ry="2" />
<text  x="845.90" y="177.5" >GAMG: crea..</text>
</g>
<g >
<title>firedrake.tsfc_interface.compile_form (38,593 us, 0.03%)</title><rect x="1150.1" y="119" width="0.4" height="15.0" fill="rgb(0,0,0)" rx="2" ry="2" />
<text  x="1153.14" y="129.5" ></text>
</g>
<g >
<title>VecAXPBYCZ (31,974 us, 0.02%)</title><rect x="557.5" y="199" width="0.3" height="15.0" fill="rgb(0,0,0)" rx="2" ry="2" />
<text  x="560.54" y="209.5" ></text>
</g>
<g >
<title>KSPSolve (2,141,438 us, 1.52%)</title><rect x="949.8" y="183" width="18.0" height="15.0" fill="rgb(0,0,0)" rx="2" ry="2" />
<text  x="952.82" y="193.5" ></text>
</g>
<g >
<title>pyop2.global_kernel.GlobalKernel.compile (39,273 us, 0.03%)</title><rect x="17.7" y="135" width="0.3" height="15.0" fill="rgb(0,0,0)" rx="2" ry="2" />
<text  x="20.69" y="145.5" ></text>
</g>
<g >
<title>MatAXPY (1,187,153 us, 0.84%)</title><rect x="1061.7" y="119" width="9.9" height="15.0" fill="rgb(0,0,0)" rx="2" ry="2" />
<text  x="1064.69" y="129.5" ></text>
</g>
<g >
<title>firedrake.functionspacedata.FunctionSpaceData.__init__ (24,308 us, 0.02%)</title><rect x="18.0" y="119" width="0.2" height="15.0" fill="rgb(0,0,0)" rx="2" ry="2" />
<text  x="21.02" y="129.5" ></text>
</g>
<g >
<title>KSPSolve (1,461,981 us, 1.04%)</title><rect x="967.8" y="151" width="12.2" height="15.0" fill="rgb(0,0,0)" rx="2" ry="2" />
<text  x="970.77" y="161.5" ></text>
</g>
<g >
<title>Log_Event_form0_cell_integral_otherwise (20,459 us, 0.01%)</title><rect x="1149.2" y="151" width="0.2" height="15.0" fill="rgb(0,0,0)" rx="2" ry="2" />
<text  x="1152.20" y="161.5" ></text>
</g>
<g >
<title>ParLoopExecute (4,443,011 us, 3.16%)</title><rect x="1152.3" y="119" width="37.2" height="15.0" fill="rgb(0,0,0)" rx="2" ry="2" />
<text  x="1155.27" y="129.5" >Pa..</text>
</g>
<g >
<title>all (140,804,410 us, 100%)</title><rect x="10.0" y="39" width="1180.0" height="15.0" fill="rgb(0,0,0)" rx="2" ry="2" />
<text  x="13.00" y="49.5" ></text>
</g>
<g >
<title>MatCreateSubMats (1,779,532 us, 1.26%)</title><rect x="1072.7" y="119" width="14.9" height="15.0" fill="rgb(0,0,0)" rx="2" ry="2" />
<text  x="1075.70" y="129.5" ></text>
</g>
<g >
<title>MatPtAPSymbolic (384,012 us, 0.27%)</title><rect x="946.0" y="199" width="3.3" height="15.0" fill="rgb(0,0,0)" rx="2" ry="2" />
<text  x="949.04" y="209.5" ></text>
</g>
<g >
<title>MatScale (224,192 us, 0.16%)</title><rect x="918.8" y="215" width="1.9" height="15.0" fill="rgb(0,0,0)" rx="2" ry="2" />
<text  x="921.82" y="225.5" ></text>
</g>
<g >
<title>Log_Event_form10_cell_integral_otherwise (223,360 us, 0.16%)</title><rect x="1187.3" y="151" width="1.9" height="15.0" fill="rgb(0,0,0)" rx="2" ry="2" />
<text  x="1190.30" y="161.5" ></text>
</g>
<g >
<title>MatMatMultNum (324,906 us, 0.23%)</title><rect x="921.3" y="231" width="2.7" height="15.0" fill="rgb(0,0,0)" rx="2" ry="2" />
<text  x="924.28" y="241.5" ></text>
</g>
<g >
<title>firedrake.functionspacedata.get_shared_data (24,308 us, 0.02%)</title><rect x="18.0" y="103" width="0.2" height="15.0" fill="rgb(0,0,0)" rx="2" ry="2" />
<text  x="21.02" y="113.5" ></text>
</g>
<g >
<title>MatAssemblyEnd (127,372 us, 0.09%)</title><rect x="914.0" y="215" width="1.1" height="15.0" fill="rgb(0,0,0)" rx="2" ry="2" />
<text  x="916.99" y="225.5" ></text>
</g>
<g >
<title>VecSet (35,785 us, 0.03%)</title><rect x="816.9" y="231" width="0.3" height="15.0" fill="rgb(0,0,0)" rx="2" ry="2" />
<text  x="819.94" y="241.5" ></text>
</g>
<g >
<title>MatPtAPNumeric (969,472 us, 0.69%)</title><rect x="937.9" y="199" width="8.1" height="15.0" fill="rgb(0,0,0)" rx="2" ry="2" />
<text  x="940.91" y="209.5" ></text>
</g>
<g >
<title>MatMult (2,939,199 us, 2.09%)</title><rect x="818.3" y="199" width="24.6" height="15.0" fill="rgb(0,0,0)" rx="2" ry="2" />
<text  x="821.27" y="209.5" >M..</text>
</g>
<g >
<title>KSPSolve (27,995,904 us, 19.88%)</title><rect x="583.2" y="183" width="234.7" height="15.0" fill="rgb(0,0,0)" rx="2" ry="2" />
<text  x="586.25" y="193.5" >KSPSolve</text>
</g>
<g >
<title>MatMultAdd (20,516 us, 0.01%)</title><rect x="558.2" y="183" width="0.1" height="15.0" fill="rgb(0,0,0)" rx="2" ry="2" />
<text  x="561.16" y="193.5" ></text>
</g>
<g >
<title>SNESSolve (108,146,724 us, 76.81%)</title><rect x="283.7" y="87" width="906.3" height="15.0" fill="rgb(0,0,0)" rx="2" ry="2" />
<text  x="286.69" y="97.5" >SNESSolve</text>
</g>
<g >
<title>MatILUFactorSym (200,596 us, 0.14%)</title><rect x="980.0" y="183" width="1.7" height="15.0" fill="rgb(0,0,0)" rx="2" ry="2" />
<text  x="983.02" y="193.5" ></text>
</g>
<g >
<title>PCSetUp (8,005,047 us, 5.69%)</title><rect x="980.0" y="167" width="67.1" height="15.0" fill="rgb(0,0,0)" rx="2" ry="2" />
<text  x="983.02" y="177.5" >PCSetUp</text>
</g>
<g >
<title>GAMG: partLevel (1,420,739 us, 1.01%)</title><rect x="937.9" y="167" width="11.9" height="15.0" fill="rgb(0,0,0)" rx="2" ry="2" />
<text  x="940.91" y="177.5" ></text>
</g>
<g >
<title>firedrake.solving_utils._SNESContext.split (18,019 us, 0.01%)</title><rect x="1149.0" y="135" width="0.2" height="15.0" fill="rgb(0,0,0)" rx="2" ry="2" />
<text  x="1152.05" y="145.5" ></text>
</g>
<g >
<title>Parloop_Cells_wrap_form01_cell_integral_otherwise (1,064,628 us, 0.76%)</title><rect x="1170.0" y="135" width="8.9" height="15.0" fill="rgb(0,0,0)" rx="2" ry="2" />
<text  x="1172.99" y="145.5" ></text>
</g>
<g >
<title>PCApply (30,983,229 us, 22.00%)</title><rect x="583.2" y="167" width="259.7" height="15.0" fill="rgb(0,0,0)" rx="2" ry="2" />
<text  x="586.25" y="177.5" >PCApply</text>
</g>
<g >
<title>PCApply (974,567 us, 0.69%)</title><rect x="959.6" y="199" width="8.2" height="15.0" fill="rgb(0,0,0)" rx="2" ry="2" />
<text  x="962.60" y="209.5" ></text>
</g>
<g >
<title>PCApply (88,021,232 us, 62.51%)</title><rect x="323.5" y="119" width="737.7" height="15.0" fill="rgb(0,0,0)" rx="2" ry="2" />
<text  x="326.51" y="129.5" >PCApply</text>
</g>
<g >
<title>CreateFunctionSpace (24,308 us, 0.02%)</title><rect x="18.0" y="71" width="0.2" height="15.0" fill="rgb(0,0,0)" rx="2" ry="2" />
<text  x="21.02" y="81.5" ></text>
</g>
<g >
<title>MatConvert (449,404 us, 0.32%)</title><rect x="915.1" y="215" width="3.7" height="15.0" fill="rgb(0,0,0)" rx="2" ry="2" />
<text  x="918.05" y="225.5" ></text>
</g>
<g >
<title>MatZeroEntries (215,832 us, 0.15%)</title><rect x="1150.5" y="119" width="1.8" height="15.0" fill="rgb(0,0,0)" rx="2" ry="2" />
<text  x="1153.46" y="129.5" ></text>
</g>
<g >
<title>MatMult (14,708,268 us, 10.45%)</title><rect x="323.5" y="199" width="123.3" height="15.0" fill="rgb(0,0,0)" rx="2" ry="2" />
<text  x="326.51" y="209.5" >MatMult</text>
</g>
<g >
<title>firedrake.variational_solver.NonlinearVariationalSolver.solve (108,146,724 us, 76.81%)</title><rect x="283.7" y="71" width="906.3" height="15.0" fill="rgb(0,0,0)" rx="2" ry="2" />
<text  x="286.69" y="81.5" >firedrake.variational_solver.NonlinearVariationalSolver.solve</text>
</g>
<g >
<title>KSPSolve_FS_0 (30,993,330 us, 22.01%)</title><rect x="323.5" y="135" width="259.7" height="15.0" fill="rgb(0,0,0)" rx="2" ry="2" />
<text  x="326.51" y="145.5" >KSPSolve_FS_0</text>
</g>
<g >
<title>VecSet (35,062 us, 0.02%)</title><rect x="557.2" y="231" width="0.3" height="15.0" fill="rgb(0,0,0)" rx="2" ry="2" />
<text  x="560.24" y="241.5" ></text>
</g>
<g >
<title>PCSetUp (14,900,029 us, 10.58%)</title><rect x="842.9" y="151" width="124.9" height="15.0" fill="rgb(0,0,0)" rx="2" ry="2" />
<text  x="845.90" y="161.5" >PCSetUp</text>
</g>
<g >
<title>MatCoarsen (46,582 us, 0.03%)</title><rect x="843.1" y="215" width="0.4" height="15.0" fill="rgb(0,0,0)" rx="2" ry="2" />
<text  x="846.11" y="225.5" ></text>
</g>
<g >
<title>MatMult (1,657,291 us, 1.18%)</title><rect x="1047.1" y="135" width="13.9" height="15.0" fill="rgb(0,0,0)" rx="2" ry="2" />
<text  x="1050.10" y="145.5" ></text>
</g>
<g >
<title>Parloop_Cells_wrap_pyop2_kernel_uniform_extrusion (39,273 us, 0.03%)</title><rect x="17.7" y="119" width="0.3" height="15.0" fill="rgb(0,0,0)" rx="2" ry="2" />
<text  x="20.69" y="129.5" ></text>
</g>
<g >
<title>MatZeroInitial (7,745,853 us, 5.50%)</title><rect x="218.8" y="103" width="64.9" height="15.0" fill="rgb(0,0,0)" rx="2" ry="2" />
<text  x="221.77" y="113.5" >MatZer..</text>
</g>
<g >
<title>VecMAXPY (38,934 us, 0.03%)</title><rect x="284.0" y="135" width="0.3" height="15.0" fill="rgb(0,0,0)" rx="2" ry="2" />
<text  x="286.97" y="145.5" ></text>
</g>
<g >
<title>KSPSolve (1,364,997 us, 0.97%)</title><rect x="926.4" y="199" width="11.4" height="15.0" fill="rgb(0,0,0)" rx="2" ry="2" />
<text  x="929.35" y="209.5" ></text>
</g>
<g >
<title>VecMDot (52,480 us, 0.04%)</title><rect x="284.3" y="135" width="0.4" height="15.0" fill="rgb(0,0,0)" rx="2" ry="2" />
<text  x="287.29" y="145.5" ></text>
</g>
<g >
<title>MatMultAdd (20,297 us, 0.01%)</title><rect x="817.9" y="183" width="0.1" height="15.0" fill="rgb(0,0,0)" rx="2" ry="2" />
<text  x="820.86" y="193.5" ></text>
</g>
<g >
<title>pyop2.global_kernel.GlobalKernel.compile (38,534 us, 0.03%)</title><rect x="1178.6" y="151" width="0.3" height="15.0" fill="rgb(0,0,0)" rx="2" ry="2" />
<text  x="1181.59" y="161.5" ></text>
</g>
<g >
<title>MatSOR (13,182,218 us, 9.36%)</title><rect x="446.8" y="247" width="110.4" height="15.0" fill="rgb(0,0,0)" rx="2" ry="2" />
<text  x="449.77" y="257.5" >MatSOR</text>
</g>
<g >
<title>PCGAMG Squ l00 (5,937,614 us, 4.22%)</title><rect x="843.5" y="199" width="49.8" height="15.0" fill="rgb(0,0,0)" rx="2" ry="2" />
<text  x="846.50" y="209.5" >PCGA..</text>
</g>
<g >
<title>ParLoopExecute (112,568 us, 0.08%)</title><rect x="1149.2" y="119" width="0.9" height="15.0" fill="rgb(0,0,0)" rx="2" ry="2" />
<text  x="1152.20" y="129.5" ></text>
</g>
<g >
<title>MatPtAPNumeric (28,502 us, 0.02%)</title><rect x="949.3" y="199" width="0.2" height="15.0" fill="rgb(0,0,0)" rx="2" ry="2" />
<text  x="952.26" y="209.5" ></text>
</g>
<g >
<title>MatPtAPSymbolic (24,520 us, 0.02%)</title><rect x="949.5" y="199" width="0.2" height="15.0" fill="rgb(0,0,0)" rx="2" ry="2" />
<text  x="952.50" y="209.5" ></text>
</g>
<g >
<title>Log_Event_form1_cell_integral_otherwise (18,299 us, 0.01%)</title><rect x="1149.7" y="151" width="0.2" height="15.0" fill="rgb(0,0,0)" rx="2" ry="2" />
<text  x="1152.70" y="161.5" ></text>
</g>
<g >
<title>firedrake.__init__ (1,526,575 us, 1.08%)</title><rect x="18.2" y="71" width="12.8" height="15.0" fill="rgb(0,0,0)" rx="2" ry="2" />
<text  x="21.23" y="81.5" ></text>
</g>
<g >
<title>MatMult (1,281,649 us, 0.91%)</title><rect x="926.5" y="215" width="10.8" height="15.0" fill="rgb(0,0,0)" rx="2" ry="2" />
<text  x="929.55" y="225.5" ></text>
</g>
<g >
<title>VecScatterBegin (20,325 us, 0.01%)</title><rect x="1061.0" y="135" width="0.2" height="15.0" fill="rgb(0,0,0)" rx="2" ry="2" />
<text  x="1063.99" y="145.5" ></text>
</g>
<g >
<title>KSPSolve (30,983,229 us, 22.00%)</title><rect x="583.2" y="151" width="259.7" height="15.0" fill="rgb(0,0,0)" rx="2" ry="2" />
<text  x="586.25" y="161.5" >KSPSolve</text>
</g>
<g >
<title>MatScale (71,391 us, 0.05%)</title><rect x="1148.4" y="119" width="0.6" height="15.0" fill="rgb(0,0,0)" rx="2" ry="2" />
<text  x="1151.45" y="129.5" ></text>
</g>
<g >
<title>SNESFunctionEval (151,161 us, 0.11%)</title><rect x="1149.2" y="103" width="1.3" height="15.0" fill="rgb(0,0,0)" rx="2" ry="2" />
<text  x="1152.20" y="113.5" ></text>
</g>
<g >
<title>Parloop_Cells_wrap_form00_cell_integral_otherwise (2,113,649 us, 1.50%)</title><rect x="1152.3" y="135" width="17.7" height="15.0" fill="rgb(0,0,0)" rx="2" ry="2" />
<text  x="1155.27" y="145.5" ></text>
</g>
<g >
<title>MatMultTranspose (30,744 us, 0.02%)</title><rect x="558.3" y="183" width="0.3" height="15.0" fill="rgb(0,0,0)" rx="2" ry="2" />
<text  x="561.33" y="193.5" ></text>
</g>
<g >
<title>PCApply (13,182,218 us, 9.36%)</title><rect x="446.8" y="231" width="110.4" height="15.0" fill="rgb(0,0,0)" rx="2" ry="2" />
<text  x="449.77" y="241.5" >PCApply</text>
</g>
<g >
<title>MatAssemblyEnd (143,609 us, 0.10%)</title><rect x="1086.4" y="135" width="1.2" height="15.0" fill="rgb(0,0,0)" rx="2" ry="2" />
<text  x="1089.41" y="145.5" ></text>
</g>
<g >
<title>firedrake.extrusion_utils.make_extruded_coords (69,427 us, 0.05%)</title><rect x="17.4" y="87" width="0.6" height="15.0" fill="rgb(0,0,0)" rx="2" ry="2" />
<text  x="20.44" y="97.5" ></text>
</g>
<g >
<title>MatResidual (2,939,199 us, 2.09%)</title><rect x="818.3" y="183" width="24.6" height="15.0" fill="rgb(0,0,0)" rx="2" ry="2" />
<text  x="821.27" y="193.5" >M..</text>
</g>
<g >
<title>MatAssemblyEnd (130,346 us, 0.09%)</title><rect x="217.7" y="103" width="1.1" height="15.0" fill="rgb(0,0,0)" rx="2" ry="2" />
<text  x="220.68" y="113.5" ></text>
</g>
<g >
<title>PCApply (13,217,280 us, 9.39%)</title><rect x="446.8" y="199" width="110.7" height="15.0" fill="rgb(0,0,0)" rx="2" ry="2" />
<text  x="449.77" y="209.5" >PCApply</text>
</g>
<g >
<title>Parloop_Cells_wrap_form10_cell_integral_otherwise (1,264,734 us, 0.90%)</title><rect x="1178.9" y="135" width="10.6" height="15.0" fill="rgb(0,0,0)" rx="2" ry="2" />
<text  x="1181.91" y="145.5" ></text>
</g>
<g >
<title>ParLoopExecute (39,273 us, 0.03%)</title><rect x="17.7" y="103" width="0.3" height="15.0" fill="rgb(0,0,0)" rx="2" ry="2" />
<text  x="20.69" y="113.5" ></text>
</g>
<g >
<title>VecAYPX (42,018 us, 0.03%)</title><rect x="557.8" y="199" width="0.4" height="15.0" fill="rgb(0,0,0)" rx="2" ry="2" />
<text  x="560.81" y="209.5" ></text>
</g>
<g >
<title>pyop2.global_kernel.GlobalKernel.compile (38,106 us, 0.03%)</title><rect x="1169.7" y="151" width="0.3" height="15.0" fill="rgb(0,0,0)" rx="2" ry="2" />
<text  x="1172.67" y="161.5" ></text>
</g>
<g >
<title>firedrake.ufl_expr.adjoint (18,019 us, 0.01%)</title><rect x="1149.0" y="167" width="0.2" height="15.0" fill="rgb(0,0,0)" rx="2" ry="2" />
<text  x="1152.05" y="177.5" ></text>
</g>
<g >
<title>MatTrnMatMultSym (5,937,614 us, 4.22%)</title><rect x="843.5" y="215" width="49.8" height="15.0" fill="rgb(0,0,0)" rx="2" ry="2" />
<text  x="846.50" y="225.5" >MatT..</text>
</g>
<g >
<title>MatPtAPNumeric (14,233 us, 0.01%)</title><rect x="949.7" y="199" width="0.1" height="15.0" fill="rgb(0,0,0)" rx="2" ry="2" />
<text  x="952.70" y="209.5" ></text>
</g>
</g>
</svg>
