<?xml version="1.0" standalone="no"?>
<!DOCTYPE svg PUBLIC "-//W3C//DTD SVG 1.1//EN" "http://www.w3.org/Graphics/SVG/1.1/DTD/svg11.dtd">
<svg version="1.1" width="1200" height="331" onload="init(evt)" viewBox="0 0 1200 331" xmlns="http://www.w3.org/2000/svg" xmlns:xlink="http://www.w3.org/1999/xlink">
<!-- Flame graph stack visualization. See https://github.com/brendangregg/FlameGraph for latest version, and http://www.brendangregg.com/flamegraphs.html for examples. -->
<!-- NOTES:  -->
<defs>
	<linearGradient id="background" y1="0" y2="1" x1="0" x2="0" >
		<stop stop-color="#eeeeee" offset="5%" />
		<stop stop-color="#eeeeb0" offset="95%" />
	</linearGradient>
</defs>
<style type="text/css">
	text { font-family:Verdana; font-size:13px; fill:rgb(0,0,0); }
	#search, #ignorecase { opacity:0.1; cursor:pointer; }
	#search:hover, #search.show, #ignorecase:hover, #ignorecase.show { opacity:1; }
	#subtitle { text-anchor:middle; font-color:rgb(160,160,160); }
	#title { text-anchor:middle; font-size:18px}
	#unzoom { cursor:pointer; }
	#frames > *:hover { stroke:black; stroke-width:0.5; cursor:pointer; }
	.hide { display:none; }
	.parent { opacity:0.5; }
</style>
<script type="text/ecmascript">
<![CDATA[
	"use strict";
	var details, searchbtn, unzoombtn, matchedtxt, svg, searching, currentSearchTerm, ignorecase, ignorecaseBtn;
	function init(evt) {
		details = document.getElementById("details").firstChild;
		searchbtn = document.getElementById("search");
		ignorecaseBtn = document.getElementById("ignorecase");
		unzoombtn = document.getElementById("unzoom");
		matchedtxt = document.getElementById("matched");
		svg = document.getElementsByTagName("svg")[0];
		searching = 0;
		currentSearchTerm = null;

		// use GET parameters to restore a flamegraphs state.
		var params = get_params();
		if (params.x && params.y)
			zoom(find_group(document.querySelector('[x="' + params.x + '"][y="' + params.y + '"]')));
                if (params.s) search(params.s);
	}

	// event listeners
	window.addEventListener("click", function(e) {
		var target = find_group(e.target);
		if (target) {
			if (target.nodeName == "a") {
				if (e.ctrlKey === false) return;
				e.preventDefault();
			}
			if (target.classList.contains("parent")) unzoom();
			zoom(target);
			if (!document.querySelector('.parent')) {
				clearzoom();
				return;
			}

			// set parameters for zoom state
			var el = target.querySelector("rect");
			if (el && el.attributes && el.attributes.y && el.attributes._orig_x) {
				var params = get_params()
				params.x = el.attributes._orig_x.value;
				params.y = el.attributes.y.value;
				history.replaceState(null, null, parse_params(params));
			}
		}
		else if (e.target.id == "unzoom") clearzoom();
		else if (e.target.id == "search") search_prompt();
		else if (e.target.id == "ignorecase") toggle_ignorecase();
	}, false)

	// mouse-over for info
	// show
	window.addEventListener("mouseover", function(e) {
		var target = find_group(e.target);
		if (target) details.nodeValue = "Function: " + g_to_text(target);
	}, false)

	// clear
	window.addEventListener("mouseout", function(e) {
		var target = find_group(e.target);
		if (target) details.nodeValue = ' ';
	}, false)

	// ctrl-F for search
	// ctrl-I to toggle case-sensitive search
	window.addEventListener("keydown",function (e) {
		if (e.keyCode === 114 || (e.ctrlKey && e.keyCode === 70)) {
			e.preventDefault();
			search_prompt();
		}
		else if (e.ctrlKey && e.keyCode === 73) {
			e.preventDefault();
			toggle_ignorecase();
		}
	}, false)

	// functions
	function get_params() {
		var params = {};
		var paramsarr = window.location.search.substr(1).split('&');
		for (var i = 0; i < paramsarr.length; ++i) {
			var tmp = paramsarr[i].split("=");
			if (!tmp[0] || !tmp[1]) continue;
			params[tmp[0]]  = decodeURIComponent(tmp[1]);
		}
		return params;
	}
	function parse_params(params) {
		var uri = "?";
		for (var key in params) {
			uri += key + '=' + encodeURIComponent(params[key]) + '&';
		}
		if (uri.slice(-1) == "&")
			uri = uri.substring(0, uri.length - 1);
		if (uri == '?')
			uri = window.location.href.split('?')[0];
		return uri;
	}
	function find_child(node, selector) {
		var children = node.querySelectorAll(selector);
		if (children.length) return children[0];
	}
	function find_group(node) {
		var parent = node.parentElement;
		if (!parent) return;
		if (parent.id == "frames") return node;
		return find_group(parent);
	}
	function orig_save(e, attr, val) {
		if (e.attributes["_orig_" + attr] != undefined) return;
		if (e.attributes[attr] == undefined) return;
		if (val == undefined) val = e.attributes[attr].value;
		e.setAttribute("_orig_" + attr, val);
	}
	function orig_load(e, attr) {
		if (e.attributes["_orig_"+attr] == undefined) return;
		e.attributes[attr].value = e.attributes["_orig_" + attr].value;
		e.removeAttribute("_orig_"+attr);
	}
	function g_to_text(e) {
		var text = find_child(e, "title").firstChild.nodeValue;
		return (text)
	}
	function g_to_func(e) {
		var func = g_to_text(e);
		// if there's any manipulation we want to do to the function
		// name before it's searched, do it here before returning.
		return (func);
	}
	function update_text(e) {
		var r = find_child(e, "rect");
		var t = find_child(e, "text");
		var w = parseFloat(r.attributes.width.value) -3;
		var txt = find_child(e, "title").textContent.replace(/\([^(]*\)$/,"");
		t.attributes.x.value = parseFloat(r.attributes.x.value) + 3;

		// Smaller than this size won't fit anything
		if (w < 2 * 13 * 0.59) {
			t.textContent = "";
			return;
		}

		t.textContent = txt;
		// Fit in full text width
		if (/^ *$/.test(txt) || t.getSubStringLength(0, txt.length) < w)
			return;

		for (var x = txt.length - 2; x > 0; x--) {
			if (t.getSubStringLength(0, x + 2) <= w) {
				t.textContent = txt.substring(0, x) + "..";
				return;
			}
		}
		t.textContent = "";
	}

	// zoom
	function zoom_reset(e) {
		if (e.attributes != undefined) {
			orig_load(e, "x");
			orig_load(e, "width");
		}
		if (e.childNodes == undefined) return;
		for (var i = 0, c = e.childNodes; i < c.length; i++) {
			zoom_reset(c[i]);
		}
	}
	function zoom_child(e, x, ratio) {
		if (e.attributes != undefined) {
			if (e.attributes.x != undefined) {
				orig_save(e, "x");
				e.attributes.x.value = (parseFloat(e.attributes.x.value) - x - 10) * ratio + 10;
				if (e.tagName == "text")
					e.attributes.x.value = find_child(e.parentNode, "rect[x]").attributes.x.value + 3;
			}
			if (e.attributes.width != undefined) {
				orig_save(e, "width");
				e.attributes.width.value = parseFloat(e.attributes.width.value) * ratio;
			}
		}

		if (e.childNodes == undefined) return;
		for (var i = 0, c = e.childNodes; i < c.length; i++) {
			zoom_child(c[i], x - 10, ratio);
		}
	}
	function zoom_parent(e) {
		if (e.attributes) {
			if (e.attributes.x != undefined) {
				orig_save(e, "x");
				e.attributes.x.value = 10;
			}
			if (e.attributes.width != undefined) {
				orig_save(e, "width");
				e.attributes.width.value = parseInt(svg.width.baseVal.value) - (10 * 2);
			}
		}
		if (e.childNodes == undefined) return;
		for (var i = 0, c = e.childNodes; i < c.length; i++) {
			zoom_parent(c[i]);
		}
	}
	function zoom(node) {
		var attr = find_child(node, "rect").attributes;
		var width = parseFloat(attr.width.value);
		var xmin = parseFloat(attr.x.value);
		var xmax = parseFloat(xmin + width);
		var ymin = parseFloat(attr.y.value);
		var ratio = (svg.width.baseVal.value - 2 * 10) / width;

		// XXX: Workaround for JavaScript float issues (fix me)
		var fudge = 0.0001;

		unzoombtn.classList.remove("hide");

		var el = document.getElementById("frames").children;
		for (var i = 0; i < el.length; i++) {
			var e = el[i];
			var a = find_child(e, "rect").attributes;
			var ex = parseFloat(a.x.value);
			var ew = parseFloat(a.width.value);
			var upstack;
			// Is it an ancestor
			if (1 == 0) {
				upstack = parseFloat(a.y.value) > ymin;
			} else {
				upstack = parseFloat(a.y.value) < ymin;
			}
			if (upstack) {
				// Direct ancestor
				if (ex <= xmin && (ex+ew+fudge) >= xmax) {
					e.classList.add("parent");
					zoom_parent(e);
					update_text(e);
				}
				// not in current path
				else
					e.classList.add("hide");
			}
			// Children maybe
			else {
				// no common path
				if (ex < xmin || ex + fudge >= xmax) {
					e.classList.add("hide");
				}
				else {
					zoom_child(e, xmin, ratio);
					update_text(e);
				}
			}
		}
		search();
	}
	function unzoom() {
		unzoombtn.classList.add("hide");
		var el = document.getElementById("frames").children;
		for(var i = 0; i < el.length; i++) {
			el[i].classList.remove("parent");
			el[i].classList.remove("hide");
			zoom_reset(el[i]);
			update_text(el[i]);
		}
		search();
	}
	function clearzoom() {
		unzoom();

		// remove zoom state
		var params = get_params();
		if (params.x) delete params.x;
		if (params.y) delete params.y;
		history.replaceState(null, null, parse_params(params));
	}

	// search
	function toggle_ignorecase() {
		ignorecase = !ignorecase;
		if (ignorecase) {
			ignorecaseBtn.classList.add("show");
		} else {
			ignorecaseBtn.classList.remove("show");
		}
		reset_search();
		search();
	}
	function reset_search() {
		var el = document.querySelectorAll("#frames rect");
		for (var i = 0; i < el.length; i++) {
			orig_load(el[i], "fill")
		}
		var params = get_params();
		delete params.s;
		history.replaceState(null, null, parse_params(params));
	}
	function search_prompt() {
		if (!searching) {
			var term = prompt("Enter a search term (regexp " +
			    "allowed, eg: ^ext4_)"
			    + (ignorecase ? ", ignoring case" : "")
			    + "\nPress Ctrl-i to toggle case sensitivity", "");
			if (term != null) search(term);
		} else {
			reset_search();
			searching = 0;
			currentSearchTerm = null;
			searchbtn.classList.remove("show");
			searchbtn.firstChild.nodeValue = "Search"
			matchedtxt.classList.add("hide");
			matchedtxt.firstChild.nodeValue = ""
		}
	}
	function search(term) {
		if (term) currentSearchTerm = term;

		var re = new RegExp(currentSearchTerm, ignorecase ? 'i' : '');
		var el = document.getElementById("frames").children;
		var matches = new Object();
		var maxwidth = 0;
		for (var i = 0; i < el.length; i++) {
			var e = el[i];
			var func = g_to_func(e);
			var rect = find_child(e, "rect");
			if (func == null || rect == null)
				continue;

			// Save max width. Only works as we have a root frame
			var w = parseFloat(rect.attributes.width.value);
			if (w > maxwidth)
				maxwidth = w;

			if (func.match(re)) {
				// highlight
				var x = parseFloat(rect.attributes.x.value);
				orig_save(rect, "fill");
				rect.attributes.fill.value = "rgb(230,0,230)";

				// remember matches
				if (matches[x] == undefined) {
					matches[x] = w;
				} else {
					if (w > matches[x]) {
						// overwrite with parent
						matches[x] = w;
					}
				}
				searching = 1;
			}
		}
		if (!searching)
			return;
		var params = get_params();
		params.s = currentSearchTerm;
		history.replaceState(null, null, parse_params(params));

		searchbtn.classList.add("show");
		searchbtn.firstChild.nodeValue = "Reset Search";

		// calculate percent matched, excluding vertical overlap
		var count = 0;
		var lastx = -1;
		var lastw = 0;
		var keys = Array();
		for (k in matches) {
			if (matches.hasOwnProperty(k))
				keys.push(k);
		}
		// sort the matched frames by their x location
		// ascending, then width descending
		keys.sort(function(a, b){
			return a - b;
		});
		// Step through frames saving only the biggest bottom-up frames
		// thanks to the sort order. This relies on the tree property
		// where children are always smaller than their parents.
		var fudge = 0.0001;	// JavaScript floating point
		for (var k in keys) {
			var x = parseFloat(keys[k]);
			var w = matches[keys[k]];
			if (x >= lastx + lastw - fudge) {
				count += w;
				lastx = x;
				lastw = w;
			}
		}
		// display matched percent
		matchedtxt.classList.remove("hide");
		var pct = 100 * count / maxwidth;
		if (pct != 100) pct = pct.toFixed(1)
		matchedtxt.firstChild.nodeValue = "Matched: " + pct + "%";
	}
]]>
</script>
<rect x="0.0" y="0" width="1200.0" height="331.0" fill="url(#background)"  />
<text id="title" x="600.00" y="26" >Firedrake example</text>
<text id="details" x="10.00" y="313" > </text>
<text id="unzoom" x="10.00" y="26" class="hide">Reset Zoom</text>
<text id="search" x="1090.00" y="26" >Search</text>
<text id="ignorecase" x="1174.00" y="26" >ic</text>
<text id="matched" x="1090.00" y="313" > </text>
<g id="frames">
<g >
<title>MatMult (3,448,511 us, 1.70%)</title><rect x="409.3" y="167" width="20.1" height="15.0" fill="rgb(0,0,0)" rx="2" ry="2" />
<text  x="412.30" y="177.5" ></text>
</g>
<g >
<title>all (202,689,377 us, 100%)</title><rect x="10.0" y="39" width="1180.0" height="15.0" fill="rgb(0,0,0)" rx="2" ry="2" />
<text  x="13.00" y="49.5" ></text>
</g>
<g >
<title>MatScale (108,336 us, 0.05%)</title><rect x="1057.7" y="215" width="0.7" height="15.0" fill="rgb(0,0,0)" rx="2" ry="2" />
<text  x="1060.72" y="225.5" ></text>
</g>
<g >
<title>PCGAMGCoarse_AGG (28,222,844 us, 13.92%)</title><rect x="871.1" y="183" width="164.3" height="15.0" fill="rgb(0,0,0)" rx="2" ry="2" />
<text  x="874.07" y="193.5" >PCGAMGCoarse_AGG</text>
</g>
<g >
<title>ParLoopExecute (75,159 us, 0.04%)</title><rect x="25.3" y="103" width="0.4" height="15.0" fill="rgb(0,0,0)" rx="2" ry="2" />
<text  x="28.26" y="113.5" ></text>
</g>
<g >
<title>VecScatterBegin (23,016 us, 0.01%)</title><rect x="1100.0" y="135" width="0.1" height="15.0" fill="rgb(0,0,0)" rx="2" ry="2" />
<text  x="1103.00" y="145.5" ></text>
</g>
<g >
<title>firedrake.projection.project (29,887,486 us, 14.75%)</title><rect x="25.1" y="87" width="174.0" height="15.0" fill="rgb(0,0,0)" rx="2" ry="2" />
<text  x="28.10" y="97.5" >firedrake.projection..</text>
</g>
<g >
<title>MatZeroInitial (5,257,685 us, 2.59%)</title><rect x="119.2" y="135" width="30.6" height="15.0" fill="rgb(0,0,0)" rx="2" ry="2" />
<text  x="122.20" y="145.5" >M..</text>
</g>
<g >
<title>Parloop_Cells_wrap_form0_cell_integral_otherwise (75,159 us, 0.04%)</title><rect x="25.3" y="119" width="0.4" height="15.0" fill="rgb(0,0,0)" rx="2" ry="2" />
<text  x="28.26" y="129.5" ></text>
</g>
<g >
<title>PCApply (118,691,555 us, 58.56%)</title><rect x="409.1" y="119" width="691.0" height="15.0" fill="rgb(0,0,0)" rx="2" ry="2" />
<text  x="412.15" y="129.5" >PCApply</text>
</g>
<g >
<title>Parloop_Cells_wrap_pyop2_kernel_uniform_extrusion (36,279 us, 0.02%)</title><rect x="15.4" y="119" width="0.2" height="15.0" fill="rgb(0,0,0)" rx="2" ry="2" />
<text  x="18.36" y="129.5" ></text>
</g>
<g >
<title>PCApply (61,596,502 us, 30.39%)</title><rect x="512.5" y="167" width="358.6" height="15.0" fill="rgb(0,0,0)" rx="2" ry="2" />
<text  x="515.47" y="177.5" >PCApply</text>
</g>
<g >
<title>KSPSolve (2,571,761 us, 1.27%)</title><rect x="1066.4" y="215" width="15.0" height="15.0" fill="rgb(0,0,0)" rx="2" ry="2" />
<text  x="1069.44" y="225.5" ></text>
</g>
<g >
<title>Parloop_Cells_wrap_form00_cell_integral_otherwise (2,229,518 us, 1.10%)</title><rect x="25.7" y="135" width="13.0" height="15.0" fill="rgb(0,0,0)" rx="2" ry="2" />
<text  x="28.70" y="145.5" ></text>
</g>
<g >
<title>pyop2.global_kernel.GlobalKernel.compile (36,279 us, 0.02%)</title><rect x="15.4" y="135" width="0.2" height="15.0" fill="rgb(0,0,0)" rx="2" ry="2" />
<text  x="18.36" y="145.5" ></text>
</g>
<g >
<title>SNESFunctionEval (200,024 us, 0.10%)</title><rect x="1161.4" y="103" width="1.1" height="15.0" fill="rgb(0,0,0)" rx="2" ry="2" />
<text  x="1164.36" y="113.5" ></text>
</g>
<g >
<title>MatCreateSubMats (1,783,196 us, 0.88%)</title><rect x="1108.2" y="119" width="10.4" height="15.0" fill="rgb(0,0,0)" rx="2" ry="2" />
<text  x="1111.20" y="129.5" ></text>
</g>
<g >
<title>firedrake.functionspacedata.get_shared_data (25,348 us, 0.01%)</title><rect x="15.6" y="103" width="0.1" height="15.0" fill="rgb(0,0,0)" rx="2" ry="2" />
<text  x="18.57" y="113.5" ></text>
</g>
<g >
<title>GAMG: partLevel (428,418 us, 0.21%)</title><rect x="1063.9" y="167" width="2.5" height="15.0" fill="rgb(0,0,0)" rx="2" ry="2" />
<text  x="1066.94" y="177.5" ></text>
</g>
<g >
<title>pyop2.global_kernel.GlobalKernel.compile (37,139 us, 0.02%)</title><rect x="24.9" y="151" width="0.2" height="15.0" fill="rgb(0,0,0)" rx="2" ry="2" />
<text  x="27.89" y="161.5" ></text>
</g>
<g >
<title>MatMult (9,160,809 us, 4.52%)</title><rect x="817.7" y="199" width="53.4" height="15.0" fill="rgb(0,0,0)" rx="2" ry="2" />
<text  x="820.74" y="209.5" >MatM..</text>
</g>
<g >
<title>firedrake.variational_solver.NonlinearVariationalSolver.solve (139,741,888 us, 68.94%)</title><rect x="376.5" y="71" width="813.5" height="15.0" fill="rgb(0,0,0)" rx="2" ry="2" />
<text  x="379.46" y="81.5" >firedrake.variational_solver.NonlinearVariationalSolver.solve</text>
</g>
<g >
<title>firedrake.tsfc_interface.compile_form (182,654 us, 0.09%)</title><rect x="200.1" y="119" width="1.1" height="15.0" fill="rgb(0,0,0)" rx="2" ry="2" />
<text  x="203.10" y="129.5" ></text>
</g>
<g >
<title>KSPSolve_FS_Schu (98,989,840 us, 48.84%)</title><rect x="512.5" y="135" width="576.3" height="15.0" fill="rgb(0,0,0)" rx="2" ry="2" />
<text  x="515.47" y="145.5" >KSPSolve_FS_Schu</text>
</g>
<g >
<title>Parloop_set_#x7ffa8c288d00_wrap_expression_kernel (31,393 us, 0.02%)</title><rect x="24.6" y="135" width="0.1" height="15.0" fill="rgb(0,0,0)" rx="2" ry="2" />
<text  x="27.56" y="145.5" ></text>
</g>
<g >
<title>KSPSolve (3,499,904 us, 1.73%)</title><rect x="429.4" y="183" width="20.4" height="15.0" fill="rgb(0,0,0)" rx="2" ry="2" />
<text  x="432.38" y="193.5" ></text>
</g>
<g >
<title>MatMultAdd (94,217 us, 0.05%)</title><rect x="1085.6" y="215" width="0.5" height="15.0" fill="rgb(0,0,0)" rx="2" ry="2" />
<text  x="1088.57" y="225.5" ></text>
</g>
<g >
<title>pyop2.global_kernel.GlobalKernel.compile (42,074 us, 0.02%)</title><rect x="1161.6" y="151" width="0.2" height="15.0" fill="rgb(0,0,0)" rx="2" ry="2" />
<text  x="1164.60" y="161.5" ></text>
</g>
<g >
<title>KSPSolve (124,306,214 us, 61.33%)</title><rect x="376.5" y="103" width="723.6" height="15.0" fill="rgb(0,0,0)" rx="2" ry="2" />
<text  x="379.46" y="113.5" >KSPSolve</text>
</g>
<g >
<title>MatMult (1,927,645 us, 0.95%)</title><rect x="858.4" y="215" width="11.2" height="15.0" fill="rgb(0,0,0)" rx="2" ry="2" />
<text  x="861.36" y="225.5" ></text>
</g>
<g >
<title>KSPSolve (6,605,837 us, 3.26%)</title><rect x="779.3" y="215" width="38.4" height="15.0" fill="rgb(0,0,0)" rx="2" ry="2" />
<text  x="782.28" y="225.5" >KSP..</text>
</g>
<g >
<title>ParLoopExecute (160,746 us, 0.08%)</title><rect x="1161.4" y="119" width="0.9" height="15.0" fill="rgb(0,0,0)" rx="2" ry="2" />
<text  x="1164.36" y="129.5" ></text>
</g>
<g >
<title>firedrake.linear_solver.LinearSolver.solve (8,437,927 us, 4.16%)</title><rect x="150.0" y="103" width="49.1" height="15.0" fill="rgb(0,0,0)" rx="2" ry="2" />
<text  x="152.97" y="113.5" >fire..</text>
</g>
<g >
<title>MatAXPY (1,196,432 us, 0.59%)</title><rect x="1100.5" y="119" width="7.0" height="15.0" fill="rgb(0,0,0)" rx="2" ry="2" />
<text  x="1103.51" y="129.5" ></text>
</g>
<g >
<title>firedrake.tsfc_interface.compile_form (29,141 us, 0.01%)</title><rect x="149.8" y="119" width="0.2" height="15.0" fill="rgb(0,0,0)" rx="2" ry="2" />
<text  x="152.80" y="129.5" ></text>
</g>
<g >
<title>MatMatMultNum (163,544 us, 0.08%)</title><rect x="1058.5" y="231" width="1.0" height="15.0" fill="rgb(0,0,0)" rx="2" ry="2" />
<text  x="1061.51" y="241.5" ></text>
</g>
<g >
<title>PCApply (3,499,904 us, 1.73%)</title><rect x="429.4" y="167" width="20.4" height="15.0" fill="rgb(0,0,0)" rx="2" ry="2" />
<text  x="432.38" y="177.5" ></text>
</g>
<g >
<title>pyop2.global_kernel.GlobalKernel.compile (36,720 us, 0.02%)</title><rect x="1182.1" y="151" width="0.2" height="15.0" fill="rgb(0,0,0)" rx="2" ry="2" />
<text  x="1185.09" y="161.5" ></text>
</g>
<g >
<title>firedrake.assemble.assemble (114,068 us, 0.06%)</title><rect x="24.4" y="71" width="0.7" height="15.0" fill="rgb(0,0,0)" rx="2" ry="2" />
<text  x="27.44" y="81.5" ></text>
</g>
<g >
<title>KSPSolve (6,974,332 us, 3.44%)</title><rect x="409.1" y="151" width="40.7" height="15.0" fill="rgb(0,0,0)" rx="2" ry="2" />
<text  x="412.15" y="161.5" >KSP..</text>
</g>
<g >
<title>PCApply (3,499,904 us, 1.73%)</title><rect x="429.4" y="199" width="20.4" height="15.0" fill="rgb(0,0,0)" rx="2" ry="2" />
<text  x="432.38" y="209.5" ></text>
</g>
<g >
<title>MatMult (612,732 us, 0.30%)</title><rect x="1060.2" y="215" width="3.6" height="15.0" fill="rgb(0,0,0)" rx="2" ry="2" />
<text  x="1063.22" y="225.5" ></text>
</g>
<g >
<title>Log_Event_form_cell_integral_otherwise (35,433 us, 0.02%)</title><rect x="199.1" y="151" width="0.2" height="15.0" fill="rgb(0,0,0)" rx="2" ry="2" />
<text  x="202.10" y="161.5" ></text>
</g>
<g >
<title>PCApply (26,954 us, 0.01%)</title><rect x="1063.8" y="215" width="0.1" height="15.0" fill="rgb(0,0,0)" rx="2" ry="2" />
<text  x="1066.79" y="225.5" ></text>
</g>
<g >
<title>PCSetUp (10,516,663 us, 5.19%)</title><rect x="1100.1" y="103" width="61.3" height="15.0" fill="rgb(0,0,0)" rx="2" ry="2" />
<text  x="1103.14" y="113.5" >PCSetUp</text>
</g>
<g >
<title>PCSetUp (3,801,591 us, 1.88%)</title><rect x="490.3" y="167" width="22.2" height="15.0" fill="rgb(0,0,0)" rx="2" ry="2" />
<text  x="493.34" y="177.5" ></text>
</g>
<g >
<title>KSPSolve (61,596,502 us, 30.39%)</title><rect x="512.5" y="151" width="358.6" height="15.0" fill="rgb(0,0,0)" rx="2" ry="2" />
<text  x="515.47" y="161.5" >KSPSolve</text>
</g>
<g >
<title>ParLoopExecute (93,487 us, 0.05%)</title><rect x="24.6" y="119" width="0.5" height="15.0" fill="rgb(0,0,0)" rx="2" ry="2" />
<text  x="27.56" y="129.5" ></text>
</g>
<g >
<title>PCGAMGPOpt_AGG (960,545 us, 0.47%)</title><rect x="1058.4" y="183" width="5.5" height="15.0" fill="rgb(0,0,0)" rx="2" ry="2" />
<text  x="1061.35" y="193.5" ></text>
</g>
<g >
<title>firedrake.functionspacedata.FunctionSpaceData.__init__ (25,348 us, 0.01%)</title><rect x="15.6" y="119" width="0.1" height="15.0" fill="rgb(0,0,0)" rx="2" ry="2" />
<text  x="18.57" y="129.5" ></text>
</g>
<g >
<title>MatMatMultSym (3,781,619 us, 1.87%)</title><rect x="1138.8" y="119" width="22.0" height="15.0" fill="rgb(0,0,0)" rx="2" ry="2" />
<text  x="1141.81" y="129.5" ></text>
</g>
<g >
<title>MatMult (714,123 us, 0.35%)</title><rect x="1081.4" y="215" width="4.2" height="15.0" fill="rgb(0,0,0)" rx="2" ry="2" />
<text  x="1084.41" y="225.5" ></text>
</g>
<g >
<title>MatAssemblyEnd (143,961 us, 0.07%)</title><rect x="1117.7" y="135" width="0.9" height="15.0" fill="rgb(0,0,0)" rx="2" ry="2" />
<text  x="1120.75" y="145.5" ></text>
</g>
<g >
<title>pyop2.global_kernel.GlobalKernel.compile (31,393 us, 0.02%)</title><rect x="24.6" y="151" width="0.1" height="15.0" fill="rgb(0,0,0)" rx="2" ry="2" />
<text  x="27.56" y="161.5" ></text>
</g>
<g >
<title>KSPSolve (6,977,478 us, 3.44%)</title><rect x="817.7" y="215" width="40.7" height="15.0" fill="rgb(0,0,0)" rx="2" ry="2" />
<text  x="820.74" y="225.5" >KSP..</text>
</g>
<g >
<title>PCSetUpOnBlocks (7,483,326 us, 3.69%)</title><rect x="155.5" y="119" width="43.6" height="15.0" fill="rgb(0,0,0)" rx="2" ry="2" />
<text  x="158.53" y="129.5" >PCS..</text>
</g>
<g >
<title>Parloop_Cells_wrap_form0_cell_integral_otherwise (82,697 us, 0.04%)</title><rect x="1161.4" y="135" width="0.4" height="15.0" fill="rgb(0,0,0)" rx="2" ry="2" />
<text  x="1164.36" y="145.5" ></text>
</g>
<g >
<title>CreateFunctionSpace (25,348 us, 0.01%)</title><rect x="15.6" y="71" width="0.1" height="15.0" fill="rgb(0,0,0)" rx="2" ry="2" />
<text  x="18.57" y="81.5" ></text>
</g>
<g >
<title>MatMult (393,013 us, 0.19%)</title><rect x="150.0" y="135" width="2.3" height="15.0" fill="rgb(0,0,0)" rx="2" ry="2" />
<text  x="152.97" y="145.5" ></text>
</g>
<g >
<title>MatResidual (9,160,809 us, 4.52%)</title><rect x="817.7" y="183" width="53.4" height="15.0" fill="rgb(0,0,0)" rx="2" ry="2" />
<text  x="820.74" y="193.5" >MatR..</text>
</g>
<g >
<title>GAMG: createProl (33,130,728 us, 16.35%)</title><rect x="871.1" y="167" width="192.8" height="15.0" fill="rgb(0,0,0)" rx="2" ry="2" />
<text  x="874.07" y="177.5" >GAMG: createProl</text>
</g>
<g >
<title>firedrake.assemble.assemble (21,346,392 us, 10.53%)</title><rect x="25.7" y="103" width="124.3" height="15.0" fill="rgb(0,0,0)" rx="2" ry="2" />
<text  x="28.70" y="113.5" >firedrake.asse..</text>
</g>
<g >
<title>MatMult (3,380,101 us, 1.67%)</title><rect x="1066.4" y="199" width="19.7" height="15.0" fill="rgb(0,0,0)" rx="2" ry="2" />
<text  x="1069.44" y="209.5" ></text>
</g>
<g >
<title>MatICCFactorSym (94,101 us, 0.05%)</title><rect x="198.5" y="151" width="0.6" height="15.0" fill="rgb(0,0,0)" rx="2" ry="2" />
<text  x="201.55" y="161.5" ></text>
</g>
<g >
<title>MatScale (71,180 us, 0.04%)</title><rect x="1160.8" y="119" width="0.4" height="15.0" fill="rgb(0,0,0)" rx="2" ry="2" />
<text  x="1163.82" y="129.5" ></text>
</g>
<g >
<title>KSPSolve (639,686 us, 0.32%)</title><rect x="1060.2" y="199" width="3.7" height="15.0" fill="rgb(0,0,0)" rx="2" ry="2" />
<text  x="1063.22" y="209.5" ></text>
</g>
<g >
<title>KSPSolve (561,588 us, 0.28%)</title><rect x="152.3" y="151" width="3.2" height="15.0" fill="rgb(0,0,0)" rx="2" ry="2" />
<text  x="155.26" y="161.5" ></text>
</g>
<g >
<title>VecMDot (68,417 us, 0.03%)</title><rect x="377.0" y="135" width="0.4" height="15.0" fill="rgb(0,0,0)" rx="2" ry="2" />
<text  x="380.04" y="145.5" ></text>
</g>
<g >
<title>KSPSolve_FS_0 (6,974,332 us, 3.44%)</title><rect x="409.1" y="135" width="40.7" height="15.0" fill="rgb(0,0,0)" rx="2" ry="2" />
<text  x="412.15" y="145.5" >KSP..</text>
</g>
<g >
<title>firedrake.norms.norm (354,489 us, 0.17%)</title><rect x="199.1" y="87" width="2.1" height="15.0" fill="rgb(0,0,0)" rx="2" ry="2" />
<text  x="202.10" y="97.5" ></text>
</g>
<g >
<title>MatMult (1,931,330 us, 0.95%)</title><rect x="1088.8" y="135" width="11.2" height="15.0" fill="rgb(0,0,0)" rx="2" ry="2" />
<text  x="1091.76" y="145.5" ></text>
</g>
<g >
<title>MatConvert (218,539 us, 0.11%)</title><rect x="1056.4" y="215" width="1.3" height="15.0" fill="rgb(0,0,0)" rx="2" ry="2" />
<text  x="1059.45" y="225.5" ></text>
</g>
<g >
<title>pyop2.global_kernel.GlobalKernel.compile (35,107 us, 0.02%)</title><rect x="1162.1" y="151" width="0.2" height="15.0" fill="rgb(0,0,0)" rx="2" ry="2" />
<text  x="1165.09" y="161.5" ></text>
</g>
<g >
<title>SNESJacobianEval (4,718,987 us, 2.33%)</title><rect x="1162.5" y="103" width="27.5" height="15.0" fill="rgb(0,0,0)" rx="2" ry="2" />
<text  x="1165.53" y="113.5" >S..</text>
</g>
<g >
<title>VecAYPX (34,928 us, 0.02%)</title><rect x="715.2" y="231" width="0.2" height="15.0" fill="rgb(0,0,0)" rx="2" ry="2" />
<text  x="718.17" y="241.5" ></text>
</g>
<g >
<title>Log_Event_form01_cell_integral_otherwise (189,220 us, 0.09%)</title><rect x="1181.0" y="151" width="1.1" height="15.0" fill="rgb(0,0,0)" rx="2" ry="2" />
<text  x="1183.99" y="161.5" ></text>
</g>
<g >
<title>PCGAMGGraph_AGG (3,947,339 us, 1.95%)</title><rect x="1035.4" y="183" width="23.0" height="15.0" fill="rgb(0,0,0)" rx="2" ry="2" />
<text  x="1038.37" y="193.5" ></text>
</g>
<g >
<title>firedrake.variational_solver.NonlinearVariationalProblem.__init__ (21,569 us, 0.01%)</title><rect x="1161.2" y="151" width="0.2" height="15.0" fill="rgb(0,0,0)" rx="2" ry="2" />
<text  x="1164.24" y="161.5" ></text>
</g>
<g >
<title>CreateSparsity (13,739,303 us, 6.78%)</title><rect x="38.7" y="135" width="80.0" height="15.0" fill="rgb(0,0,0)" rx="2" ry="2" />
<text  x="41.68" y="145.5" >CreateSp..</text>
</g>
<g >
<title>  MIS/Agg (67,993 us, 0.03%)</title><rect x="871.5" y="199" width="0.4" height="15.0" fill="rgb(0,0,0)" rx="2" ry="2" />
<text  x="874.51" y="209.5" ></text>
</g>
<g >
<title>PCApply (6,605,837 us, 3.26%)</title><rect x="779.3" y="199" width="38.4" height="15.0" fill="rgb(0,0,0)" rx="2" ry="2" />
<text  x="782.28" y="209.5" >PCA..</text>
</g>
<g >
<title>firedrake.assemble_expressions.evaluate_expression (114,068 us, 0.06%)</title><rect x="24.4" y="103" width="0.7" height="15.0" fill="rgb(0,0,0)" rx="2" ry="2" />
<text  x="27.44" y="113.5" ></text>
</g>
<g >
<title>ParLoopExecute (36,279 us, 0.02%)</title><rect x="15.4" y="103" width="0.2" height="15.0" fill="rgb(0,0,0)" rx="2" ry="2" />
<text  x="18.36" y="113.5" ></text>
</g>
<g >
<title>firedrake (202,689,377 us, 100.00%)</title><rect x="10.0" y="55" width="1180.0" height="15.0" fill="rgb(0,0,0)" rx="2" ry="2" />
<text  x="13.00" y="65.5" >firedrake</text>
</g>
<g >
<title>PCApply (454,091 us, 0.22%)</title><rect x="1086.1" y="231" width="2.7" height="15.0" fill="rgb(0,0,0)" rx="2" ry="2" />
<text  x="1089.12" y="241.5" ></text>
</g>
<g >
<title>firedrake.extrusion_utils.make_extruded_coords (66,873 us, 0.03%)</title><rect x="15.2" y="87" width="0.4" height="15.0" fill="rgb(0,0,0)" rx="2" ry="2" />
<text  x="18.18" y="97.5" ></text>
</g>
<g >
<title>KSPSetUp (3,834,192 us, 1.89%)</title><rect x="1066.4" y="167" width="22.4" height="15.0" fill="rgb(0,0,0)" rx="2" ry="2" />
<text  x="1069.44" y="177.5" ></text>
</g>
<g >
<title>VecMAXPY (55,578 us, 0.03%)</title><rect x="376.7" y="135" width="0.3" height="15.0" fill="rgb(0,0,0)" rx="2" ry="2" />
<text  x="379.71" y="145.5" ></text>
</g>
<g >
<title>KSPSolve_FS_Low (10,773,037 us, 5.32%)</title><rect x="449.8" y="135" width="62.7" height="15.0" fill="rgb(0,0,0)" rx="2" ry="2" />
<text  x="452.75" y="145.5" >KSPSol..</text>
</g>
<g >
<title>KSPSolve (3,834,192 us, 1.89%)</title><rect x="1066.4" y="183" width="22.4" height="15.0" fill="rgb(0,0,0)" rx="2" ry="2" />
<text  x="1069.44" y="193.5" ></text>
</g>
<g >
<title>KSPSolve (52,435,693 us, 25.87%)</title><rect x="512.5" y="183" width="305.2" height="15.0" fill="rgb(0,0,0)" rx="2" ry="2" />
<text  x="515.47" y="193.5" >KSPSolve</text>
</g>
<g >
<title>MatLUFactorNum (3,390,436 us, 1.67%)</title><rect x="492.7" y="183" width="19.8" height="15.0" fill="rgb(0,0,0)" rx="2" ry="2" />
<text  x="495.73" y="193.5" ></text>
</g>
<g >
<title>MatSolve (3,499,904 us, 1.73%)</title><rect x="429.4" y="215" width="20.4" height="15.0" fill="rgb(0,0,0)" rx="2" ry="2" />
<text  x="432.38" y="225.5" ></text>
</g>
<g >
<title>PCApply (6,605,837 us, 3.26%)</title><rect x="779.3" y="231" width="38.4" height="15.0" fill="rgb(0,0,0)" rx="2" ry="2" />
<text  x="782.28" y="241.5" >PCA..</text>
</g>
<g >
<title>Parloop_Cells_wrap_form1_cell_integral_otherwise (78,049 us, 0.04%)</title><rect x="1161.8" y="135" width="0.5" height="15.0" fill="rgb(0,0,0)" rx="2" ry="2" />
<text  x="1164.84" y="145.5" ></text>
</g>
<g >
<title>firedrake.assemble.allocate_matrix (30,111,551 us, 14.86%)</title><rect x="201.2" y="87" width="175.3" height="15.0" fill="rgb(0,0,0)" rx="2" ry="2" />
<text  x="204.16" y="97.5" >firedrake.assemble.a..</text>
</g>
<g >
<title>firedrake.assemble.allocate_matrix (19,087,733 us, 9.42%)</title><rect x="38.7" y="119" width="111.1" height="15.0" fill="rgb(0,0,0)" rx="2" ry="2" />
<text  x="41.68" y="129.5" >firedrake.as..</text>
</g>
<g >
<title>pyop2.global_kernel.GlobalKernel.compile (77,295 us, 0.04%)</title><rect x="38.2" y="151" width="0.5" height="15.0" fill="rgb(0,0,0)" rx="2" ry="2" />
<text  x="41.23" y="161.5" ></text>
</g>
<g >
<title>MatAssemblyEnd (130,462 us, 0.06%)</title><rect x="330.6" y="103" width="0.7" height="15.0" fill="rgb(0,0,0)" rx="2" ry="2" />
<text  x="333.56" y="113.5" ></text>
</g>
<g >
<title>PCApply (454,091 us, 0.22%)</title><rect x="1086.1" y="199" width="2.7" height="15.0" fill="rgb(0,0,0)" rx="2" ry="2" />
<text  x="1089.12" y="209.5" ></text>
</g>
<g >
<title>  SA: smooth (320,859 us, 0.16%)</title><rect x="1058.4" y="199" width="1.8" height="15.0" fill="rgb(0,0,0)" rx="2" ry="2" />
<text  x="1061.35" y="209.5" ></text>
</g>
<g >
<title>MatSolve (17,485,453 us, 8.63%)</title><rect x="613.4" y="279" width="101.8" height="15.0" fill="rgb(0,0,0)" rx="2" ry="2" />
<text  x="616.38" y="289.5" >MatSolve</text>
</g>
<g >
<title>VecSet (34,255 us, 0.02%)</title><rect x="715.5" y="231" width="0.2" height="15.0" fill="rgb(0,0,0)" rx="2" ry="2" />
<text  x="718.53" y="241.5" ></text>
</g>
<g >
<title>Parloop_Cells_wrap_form01_cell_integral_otherwise (1,061,678 us, 0.52%)</title><rect x="1176.1" y="135" width="6.2" height="15.0" fill="rgb(0,0,0)" rx="2" ry="2" />
<text  x="1179.12" y="145.5" ></text>
</g>
<g >
<title>MatZeroInitial (7,753,376 us, 3.83%)</title><rect x="331.3" y="103" width="45.2" height="15.0" fill="rgb(0,0,0)" rx="2" ry="2" />
<text  x="334.32" y="113.5" >Mat..</text>
</g>
<g >
<title>MatMatMultSym (130,297 us, 0.06%)</title><rect x="1059.5" y="231" width="0.7" height="15.0" fill="rgb(0,0,0)" rx="2" ry="2" />
<text  x="1062.46" y="241.5" ></text>
</g>
<g >
<title>firedrake.tsfc_interface.compile_form (58,807 us, 0.03%)</title><rect x="1189.7" y="119" width="0.3" height="15.0" fill="rgb(0,0,0)" rx="2" ry="2" />
<text  x="1192.66" y="129.5" ></text>
</g>
<g >
<title>MatSOR (454,091 us, 0.22%)</title><rect x="1086.1" y="247" width="2.7" height="15.0" fill="rgb(0,0,0)" rx="2" ry="2" />
<text  x="1089.12" y="257.5" ></text>
</g>
<g >
<title>PCApply (1,298,345 us, 0.64%)</title><rect x="1073.9" y="231" width="7.5" height="15.0" fill="rgb(0,0,0)" rx="2" ry="2" />
<text  x="1076.85" y="241.5" ></text>
</g>
<g >
<title>MatPtAPNumeric (323,987 us, 0.16%)</title><rect x="1063.9" y="199" width="1.9" height="15.0" fill="rgb(0,0,0)" rx="2" ry="2" />
<text  x="1066.94" y="209.5" ></text>
</g>
<g >
<title>ParLoopExecute (171,835 us, 0.08%)</title><rect x="199.1" y="119" width="1.0" height="15.0" fill="rgb(0,0,0)" rx="2" ry="2" />
<text  x="202.10" y="129.5" ></text>
</g>
<g >
<title>MatSolve (3,494,102 us, 1.72%)</title><rect x="470.0" y="215" width="20.3" height="15.0" fill="rgb(0,0,0)" rx="2" ry="2" />
<text  x="473.00" y="225.5" ></text>
</g>
<g >
<title>MatMult (9,637,320 us, 4.75%)</title><rect x="715.7" y="215" width="56.1" height="15.0" fill="rgb(0,0,0)" rx="2" ry="2" />
<text  x="718.73" y="225.5" >MatMult</text>
</g>
<g >
<title>MatMult (3,449,941 us, 1.70%)</title><rect x="817.9" y="231" width="20.1" height="15.0" fill="rgb(0,0,0)" rx="2" ry="2" />
<text  x="820.92" y="241.5" ></text>
</g>
<g >
<title>pyop2.global_kernel.GlobalKernel.compile (136,402 us, 0.07%)</title><rect x="199.3" y="151" width="0.8" height="15.0" fill="rgb(0,0,0)" rx="2" ry="2" />
<text  x="202.30" y="161.5" ></text>
</g>
<g >
<title>PCApply (3,496,171 us, 1.72%)</title><rect x="838.0" y="231" width="20.4" height="15.0" fill="rgb(0,0,0)" rx="2" ry="2" />
<text  x="841.00" y="241.5" ></text>
</g>
<g >
<title>firedrake.dmhooks.create_field_decomposition (21,569 us, 0.01%)</title><rect x="1161.2" y="119" width="0.2" height="15.0" fill="rgb(0,0,0)" rx="2" ry="2" />
<text  x="1164.24" y="129.5" ></text>
</g>
<g >
<title>MatAssemblyEnd (39,877 us, 0.02%)</title><rect x="1107.2" y="135" width="0.3" height="15.0" fill="rgb(0,0,0)" rx="2" ry="2" />
<text  x="1110.24" y="145.5" ></text>
</g>
<g >
<title>firedrake.__init__ (1,498,200 us, 0.74%)</title><rect x="15.7" y="71" width="8.7" height="15.0" fill="rgb(0,0,0)" rx="2" ry="2" />
<text  x="18.72" y="81.5" ></text>
</g>
<g >
<title>  Graph (3,947,339 us, 1.95%)</title><rect x="1035.4" y="199" width="23.0" height="15.0" fill="rgb(0,0,0)" rx="2" ry="2" />
<text  x="1038.37" y="209.5" ></text>
</g>
<g >
<title>PCSetUpOnBlocks (3,801,591 us, 1.88%)</title><rect x="490.3" y="151" width="22.2" height="15.0" fill="rgb(0,0,0)" rx="2" ry="2" />
<text  x="493.34" y="161.5" ></text>
</g>
<g >
<title>pyop2.global_kernel.GlobalKernel.compile (39,870 us, 0.02%)</title><rect x="1175.9" y="151" width="0.2" height="15.0" fill="rgb(0,0,0)" rx="2" ry="2" />
<text  x="1178.89" y="161.5" ></text>
</g>
<g >
<title>MatTrnMatMultSym (28,078,179 us, 13.85%)</title><rect x="871.9" y="215" width="163.5" height="15.0" fill="rgb(0,0,0)" rx="2" ry="2" />
<text  x="874.91" y="225.5" >MatTrnMatMultSym</text>
</g>
<g >
<title>pyop2.global_kernel.GlobalKernel.compile (75,159 us, 0.04%)</title><rect x="25.3" y="135" width="0.4" height="15.0" fill="rgb(0,0,0)" rx="2" ry="2" />
<text  x="28.26" y="145.5" ></text>
</g>
<g >
<title>Parloop_set_#x7ffa954428c0_wrap_expression_kernel (62,094 us, 0.03%)</title><rect x="24.7" y="135" width="0.4" height="15.0" fill="rgb(0,0,0)" rx="2" ry="2" />
<text  x="27.74" y="145.5" ></text>
</g>
<g >
<title>MatCoarsen (67,993 us, 0.03%)</title><rect x="871.5" y="215" width="0.4" height="15.0" fill="rgb(0,0,0)" rx="2" ry="2" />
<text  x="874.51" y="225.5" ></text>
</g>
<g >
<title>firedrake.solving_utils._SNESContext.split (21,569 us, 0.01%)</title><rect x="1161.2" y="135" width="0.2" height="15.0" fill="rgb(0,0,0)" rx="2" ry="2" />
<text  x="1164.24" y="145.5" ></text>
</g>
<g >
<title>PCApply (561,588 us, 0.28%)</title><rect x="152.3" y="135" width="3.2" height="15.0" fill="rgb(0,0,0)" rx="2" ry="2" />
<text  x="155.26" y="145.5" ></text>
</g>
<g >
<title>Parloop_Cells_wrap_form00_cell_integral_otherwise (2,118,307 us, 1.05%)</title><rect x="1163.8" y="135" width="12.3" height="15.0" fill="rgb(0,0,0)" rx="2" ry="2" />
<text  x="1166.79" y="145.5" ></text>
</g>
<g >
<title>KSPSolve (1,298,345 us, 0.64%)</title><rect x="1073.9" y="247" width="7.5" height="15.0" fill="rgb(0,0,0)" rx="2" ry="2" />
<text  x="1076.85" y="257.5" ></text>
</g>
<g >
<title>KSPSolve (3,494,102 us, 1.72%)</title><rect x="470.0" y="183" width="20.3" height="15.0" fill="rgb(0,0,0)" rx="2" ry="2" />
<text  x="473.00" y="193.5" ></text>
</g>
<g >
<title>MatAssemblyEnd (39,883 us, 0.02%)</title><rect x="1035.1" y="231" width="0.3" height="15.0" fill="rgb(0,0,0)" rx="2" ry="2" />
<text  x="1038.14" y="241.5" ></text>
</g>
<g >
<title>MatSolve (3,496,171 us, 1.72%)</title><rect x="838.0" y="279" width="20.4" height="15.0" fill="rgb(0,0,0)" rx="2" ry="2" />
<text  x="841.00" y="289.5" ></text>
</g>
<g >
<title>MatMult (5,447,858 us, 2.69%)</title><rect x="377.4" y="119" width="31.7" height="15.0" fill="rgb(0,0,0)" rx="2" ry="2" />
<text  x="380.43" y="129.5" >Ma..</text>
</g>
<g >
<title>MatMult (17,239,789 us, 8.51%)</title><rect x="513.0" y="231" width="100.4" height="15.0" fill="rgb(0,0,0)" rx="2" ry="2" />
<text  x="516.01" y="241.5" >MatMult</text>
</g>
<g >
<title>MatAssemblyEnd (39,622 us, 0.02%)</title><rect x="1056.2" y="215" width="0.2" height="15.0" fill="rgb(0,0,0)" rx="2" ry="2" />
<text  x="1059.22" y="225.5" ></text>
</g>
<g >
<title>MatMult (45,796,839 us, 22.59%)</title><rect x="512.7" y="199" width="266.6" height="15.0" fill="rgb(0,0,0)" rx="2" ry="2" />
<text  x="515.66" y="209.5" >MatMult</text>
</g>
<g >
<title>PCSetUp (37,393,338 us, 18.45%)</title><rect x="871.1" y="151" width="217.7" height="15.0" fill="rgb(0,0,0)" rx="2" ry="2" />
<text  x="874.07" y="161.5" >PCSetUp</text>
</g>
<g >
<title>KSPSolve (34,880,836 us, 17.21%)</title><rect x="512.7" y="215" width="203.0" height="15.0" fill="rgb(0,0,0)" rx="2" ry="2" />
<text  x="515.66" y="225.5" >KSPSolve</text>
</g>
<g >
<title>PCApply (17,485,453 us, 8.63%)</title><rect x="613.4" y="263" width="101.8" height="15.0" fill="rgb(0,0,0)" rx="2" ry="2" />
<text  x="616.38" y="273.5" >PCApply</text>
</g>
<g >
<title>firedrake.variational_solver.NonlinearVariationalSolver.__init__ (30,111,551 us, 14.86%)</title><rect x="201.2" y="71" width="175.3" height="15.0" fill="rgb(0,0,0)" rx="2" ry="2" />
<text  x="204.16" y="81.5" >firedrake.variationa..</text>
</g>
<g >
<title>firedrake.assemble.assemble (354,489 us, 0.17%)</title><rect x="199.1" y="103" width="2.1" height="15.0" fill="rgb(0,0,0)" rx="2" ry="2" />
<text  x="202.10" y="113.5" ></text>
</g>
<g >
<title>PCApply (3,494,102 us, 1.72%)</title><rect x="470.0" y="199" width="20.3" height="15.0" fill="rgb(0,0,0)" rx="2" ry="2" />
<text  x="473.00" y="209.5" ></text>
</g>
<g >
<title>KSPSolve (6,971,446 us, 3.44%)</title><rect x="449.8" y="151" width="40.5" height="15.0" fill="rgb(0,0,0)" rx="2" ry="2" />
<text  x="452.75" y="161.5" >KSP..</text>
</g>
<g >
<title>MatILUFactorSym (411,155 us, 0.20%)</title><rect x="490.3" y="183" width="2.4" height="15.0" fill="rgb(0,0,0)" rx="2" ry="2" />
<text  x="493.34" y="193.5" ></text>
</g>
<g >
<title>MatZeroEntries (216,631 us, 0.11%)</title><rect x="1162.5" y="119" width="1.3" height="15.0" fill="rgb(0,0,0)" rx="2" ry="2" />
<text  x="1165.53" y="129.5" ></text>
</g>
<g >
<title>PCApply (3,494,102 us, 1.72%)</title><rect x="470.0" y="167" width="20.3" height="15.0" fill="rgb(0,0,0)" rx="2" ry="2" />
<text  x="473.00" y="177.5" ></text>
</g>
<g >
<title>PCGAMG Squ l00 (28,078,179 us, 13.85%)</title><rect x="871.9" y="199" width="163.5" height="15.0" fill="rgb(0,0,0)" rx="2" ry="2" />
<text  x="874.91" y="209.5" >PCGAMG Squ l00</text>
</g>
<g >
<title>MatMatMultNum (3,473,553 us, 1.71%)</title><rect x="1118.6" y="119" width="20.2" height="15.0" fill="rgb(0,0,0)" rx="2" ry="2" />
<text  x="1121.59" y="129.5" ></text>
</g>
<g >
<title>MatMult (1,273,416 us, 0.63%)</title><rect x="1066.4" y="231" width="7.5" height="15.0" fill="rgb(0,0,0)" rx="2" ry="2" />
<text  x="1069.44" y="241.5" ></text>
</g>
<g >
<title>MatAssemblyEnd (90,745 us, 0.04%)</title><rect x="118.7" y="135" width="0.5" height="15.0" fill="rgb(0,0,0)" rx="2" ry="2" />
<text  x="121.67" y="145.5" ></text>
</g>
<g >
<title>MatSOR (6,605,837 us, 3.26%)</title><rect x="779.3" y="247" width="38.4" height="15.0" fill="rgb(0,0,0)" rx="2" ry="2" />
<text  x="782.28" y="257.5" >Mat..</text>
</g>
<g >
<title>Log_Event_form1_cell_integral_otherwise (42,942 us, 0.02%)</title><rect x="1161.8" y="151" width="0.3" height="15.0" fill="rgb(0,0,0)" rx="2" ry="2" />
<text  x="1164.84" y="161.5" ></text>
</g>
<g >
<title>firedrake.norms.errornorm (354,489 us, 0.17%)</title><rect x="199.1" y="71" width="2.1" height="15.0" fill="rgb(0,0,0)" rx="2" ry="2" />
<text  x="202.10" y="81.5" ></text>
</g>
<g >
<title>MatMult (3,444,241 us, 1.70%)</title><rect x="449.9" y="167" width="20.1" height="15.0" fill="rgb(0,0,0)" rx="2" ry="2" />
<text  x="452.94" y="177.5" ></text>
</g>
<g >
<title>MatMultAdd (1,278,683 us, 0.63%)</title><rect x="771.8" y="215" width="7.5" height="15.0" fill="rgb(0,0,0)" rx="2" ry="2" />
<text  x="774.83" y="225.5" ></text>
</g>
<g >
<title>firedrake.tsfc_interface.compile_form (39,278 us, 0.02%)</title><rect x="1162.3" y="119" width="0.2" height="15.0" fill="rgb(0,0,0)" rx="2" ry="2" />
<text  x="1165.30" y="129.5" ></text>
</g>
<g >
<title>MatMultAdd (255,686 us, 0.13%)</title><rect x="869.6" y="215" width="1.5" height="15.0" fill="rgb(0,0,0)" rx="2" ry="2" />
<text  x="872.58" y="225.5" ></text>
</g>
<g >
<title>KSPGMRESOrthog (123,995 us, 0.06%)</title><rect x="376.7" y="119" width="0.7" height="15.0" fill="rgb(0,0,0)" rx="2" ry="2" />
<text  x="379.71" y="129.5" ></text>
</g>
<g >
<title>MatAssemblyEnd (39,056 us, 0.02%)</title><rect x="1138.6" y="135" width="0.2" height="15.0" fill="rgb(0,0,0)" rx="2" ry="2" />
<text  x="1141.58" y="145.5" ></text>
</g>
<g >
<title>ParLoopExecute (4,443,549 us, 2.19%)</title><rect x="1163.8" y="119" width="25.9" height="15.0" fill="rgb(0,0,0)" rx="2" ry="2" />
<text  x="1166.79" y="129.5" >P..</text>
</g>
<g >
<title>firedrake.function.Function.project (29,887,486 us, 14.75%)</title><rect x="25.1" y="71" width="174.0" height="15.0" fill="rgb(0,0,0)" rx="2" ry="2" />
<text  x="28.10" y="81.5" >firedrake.function.F..</text>
</g>
<g >
<title>PCApply (17,485,453 us, 8.63%)</title><rect x="613.4" y="231" width="101.8" height="15.0" fill="rgb(0,0,0)" rx="2" ry="2" />
<text  x="616.38" y="241.5" >PCApply</text>
</g>
<g >
<title>Log_Event_form00_cell_integral_otherwise (464,254 us, 0.23%)</title><rect x="1173.2" y="151" width="2.7" height="15.0" fill="rgb(0,0,0)" rx="2" ry="2" />
<text  x="1176.19" y="161.5" ></text>
</g>
<g >
<title>ParLoopExecute (2,229,518 us, 1.10%)</title><rect x="25.7" y="119" width="13.0" height="15.0" fill="rgb(0,0,0)" rx="2" ry="2" />
<text  x="28.70" y="129.5" ></text>
</g>
<g >
<title>KSPSolve (454,091 us, 0.22%)</title><rect x="1086.1" y="215" width="2.7" height="15.0" fill="rgb(0,0,0)" rx="2" ry="2" />
<text  x="1089.12" y="225.5" ></text>
</g>
<g >
<title>KSPSolve (17,485,453 us, 8.63%)</title><rect x="613.4" y="247" width="101.8" height="15.0" fill="rgb(0,0,0)" rx="2" ry="2" />
<text  x="616.38" y="257.5" >KSPSolve</text>
</g>
<g >
<title>firedrake.functionspaceimpl.FunctionSpace.__init__ (25,348 us, 0.01%)</title><rect x="15.6" y="87" width="0.1" height="15.0" fill="rgb(0,0,0)" rx="2" ry="2" />
<text  x="18.57" y="97.5" ></text>
</g>
<g >
<title>MatPtAPSymbolic (104,431 us, 0.05%)</title><rect x="1065.8" y="199" width="0.6" height="15.0" fill="rgb(0,0,0)" rx="2" ry="2" />
<text  x="1068.83" y="209.5" ></text>
</g>
<g >
<title>PCApply (561,588 us, 0.28%)</title><rect x="152.3" y="167" width="3.2" height="15.0" fill="rgb(0,0,0)" rx="2" ry="2" />
<text  x="155.26" y="177.5" ></text>
</g>
<g >
<title>firedrake.assemble_expressions.assemble_expression (114,068 us, 0.06%)</title><rect x="24.4" y="87" width="0.7" height="15.0" fill="rgb(0,0,0)" rx="2" ry="2" />
<text  x="27.44" y="97.5" ></text>
</g>
<g >
<title>SNESSolve (139,741,888 us, 68.94%)</title><rect x="376.5" y="87" width="813.5" height="15.0" fill="rgb(0,0,0)" rx="2" ry="2" />
<text  x="379.46" y="97.5" >SNESSolve</text>
</g>
<g >
<title>Log_Event_form0_cell_integral_otherwise (40,623 us, 0.02%)</title><rect x="1161.4" y="151" width="0.2" height="15.0" fill="rgb(0,0,0)" rx="2" ry="2" />
<text  x="1164.36" y="161.5" ></text>
</g>
<g >
<title>KSPSolve (954,601 us, 0.47%)</title><rect x="150.0" y="119" width="5.5" height="15.0" fill="rgb(0,0,0)" rx="2" ry="2" />
<text  x="152.97" y="129.5" ></text>
</g>
<g >
<title>CreateSparsity (22,227,713 us, 10.97%)</title><rect x="201.2" y="103" width="129.4" height="15.0" fill="rgb(0,0,0)" rx="2" ry="2" />
<text  x="204.16" y="113.5" >CreateSparsity</text>
</g>
<g >
<title>MatConvert (126,047 us, 0.06%)</title><rect x="1107.5" y="119" width="0.7" height="15.0" fill="rgb(0,0,0)" rx="2" ry="2" />
<text  x="1110.47" y="129.5" ></text>
</g>
<g >
<title>KSPSolve (3,496,171 us, 1.72%)</title><rect x="838.0" y="247" width="20.4" height="15.0" fill="rgb(0,0,0)" rx="2" ry="2" />
<text  x="841.00" y="257.5" ></text>
</g>
<g >
<title>pyop2.global_kernel.GlobalKernel.compile (38,369 us, 0.02%)</title><rect x="1189.4" y="151" width="0.3" height="15.0" fill="rgb(0,0,0)" rx="2" ry="2" />
<text  x="1192.43" y="161.5" ></text>
</g>
<g >
<title>MatSolve (561,588 us, 0.28%)</title><rect x="152.3" y="183" width="3.2" height="15.0" fill="rgb(0,0,0)" rx="2" ry="2" />
<text  x="155.26" y="193.5" ></text>
</g>
<g >
<title>Log_Event_form00_cell_integral_otherwise (574,281 us, 0.28%)</title><rect x="34.9" y="151" width="3.3" height="15.0" fill="rgb(0,0,0)" rx="2" ry="2" />
<text  x="37.89" y="161.5" ></text>
</g>
<g >
<title>CreateExtMesh (66,873 us, 0.03%)</title><rect x="15.2" y="71" width="0.4" height="15.0" fill="rgb(0,0,0)" rx="2" ry="2" />
<text  x="18.18" y="81.5" ></text>
</g>
<g >
<title>PCGAMG Opt l00 (293,841 us, 0.14%)</title><rect x="1058.5" y="215" width="1.7" height="15.0" fill="rgb(0,0,0)" rx="2" ry="2" />
<text  x="1061.51" y="225.5" ></text>
</g>
<g >
<title>Log_Event_form10_cell_integral_otherwise (223,385 us, 0.11%)</title><rect x="1188.1" y="151" width="1.3" height="15.0" fill="rgb(0,0,0)" rx="2" ry="2" />
<text  x="1191.13" y="161.5" ></text>
</g>
<g >
<title>PCSetUp (7,483,326 us, 3.69%)</title><rect x="155.5" y="135" width="43.6" height="15.0" fill="rgb(0,0,0)" rx="2" ry="2" />
<text  x="158.53" y="145.5" >PCS..</text>
</g>
<g >
<title>PCApply (1,298,345 us, 0.64%)</title><rect x="1073.9" y="263" width="7.5" height="15.0" fill="rgb(0,0,0)" rx="2" ry="2" />
<text  x="1076.85" y="273.5" ></text>
</g>
<g >
<title>MatCholFctrNum (7,389,225 us, 3.65%)</title><rect x="155.5" y="151" width="43.0" height="15.0" fill="rgb(0,0,0)" rx="2" ry="2" />
<text  x="158.53" y="161.5" >Mat..</text>
</g>
<g >
<title>PCGAMG Gal l00 (428,418 us, 0.21%)</title><rect x="1063.9" y="183" width="2.5" height="15.0" fill="rgb(0,0,0)" rx="2" ry="2" />
<text  x="1066.94" y="193.5" ></text>
</g>
<g >
<title>VecNorm (26,414 us, 0.01%)</title><rect x="715.4" y="231" width="0.1" height="15.0" fill="rgb(0,0,0)" rx="2" ry="2" />
<text  x="718.37" y="241.5" ></text>
</g>
<g >
<title>Parloop_Cells_wrap_form10_cell_integral_otherwise (1,263,564 us, 0.62%)</title><rect x="1182.3" y="135" width="7.4" height="15.0" fill="rgb(0,0,0)" rx="2" ry="2" />
<text  x="1185.30" y="145.5" ></text>
</g>
<g >
<title>Parloop_Cells_wrap_form_cell_integral_otherwise (171,835 us, 0.08%)</title><rect x="199.1" y="135" width="1.0" height="15.0" fill="rgb(0,0,0)" rx="2" ry="2" />
<text  x="202.10" y="145.5" ></text>
</g>
<g >
<title>MatSolve (1,298,345 us, 0.64%)</title><rect x="1073.9" y="279" width="7.5" height="15.0" fill="rgb(0,0,0)" rx="2" ry="2" />
<text  x="1076.85" y="289.5" ></text>
</g>
<g >
<title>PCApply (3,496,171 us, 1.72%)</title><rect x="838.0" y="263" width="20.4" height="15.0" fill="rgb(0,0,0)" rx="2" ry="2" />
<text  x="841.00" y="273.5" ></text>
</g>
</g>
</svg>
