<?xml version="1.0" standalone="no"?>
<!DOCTYPE svg PUBLIC "-//W3C//DTD SVG 1.1//EN" "http://www.w3.org/Graphics/SVG/1.1/DTD/svg11.dtd">
<svg version="1.1" width="1200" height="331" onload="init(evt)" viewBox="0 0 1200 331" xmlns="http://www.w3.org/2000/svg" xmlns:xlink="http://www.w3.org/1999/xlink">
<!-- Flame graph stack visualization. See https://github.com/brendangregg/FlameGraph for latest version, and http://www.brendangregg.com/flamegraphs.html for examples. -->
<!-- NOTES:  -->
<defs>
	<linearGradient id="background" y1="0" y2="1" x1="0" x2="0" >
		<stop stop-color="#eeeeee" offset="5%" />
		<stop stop-color="#eeeeb0" offset="95%" />
	</linearGradient>
</defs>
<style type="text/css">
	text { font-family:Verdana; font-size:13px; fill:rgb(0,0,0); }
	#search, #ignorecase { opacity:0.1; cursor:pointer; }
	#search:hover, #search.show, #ignorecase:hover, #ignorecase.show { opacity:1; }
	#subtitle { text-anchor:middle; font-color:rgb(160,160,160); }
	#title { text-anchor:middle; font-size:18px}
	#unzoom { cursor:pointer; }
	#frames > *:hover { stroke:black; stroke-width:0.5; cursor:pointer; }
	.hide { display:none; }
	.parent { opacity:0.5; }
</style>
<script type="text/ecmascript">
<![CDATA[
	"use strict";
	var details, searchbtn, unzoombtn, matchedtxt, svg, searching, currentSearchTerm, ignorecase, ignorecaseBtn;
	function init(evt) {
		details = document.getElementById("details").firstChild;
		searchbtn = document.getElementById("search");
		ignorecaseBtn = document.getElementById("ignorecase");
		unzoombtn = document.getElementById("unzoom");
		matchedtxt = document.getElementById("matched");
		svg = document.getElementsByTagName("svg")[0];
		searching = 0;
		currentSearchTerm = null;

		// use GET parameters to restore a flamegraphs state.
		var params = get_params();
		if (params.x && params.y)
			zoom(find_group(document.querySelector('[x="' + params.x + '"][y="' + params.y + '"]')));
                if (params.s) search(params.s);
	}

	// event listeners
	window.addEventListener("click", function(e) {
		var target = find_group(e.target);
		if (target) {
			if (target.nodeName == "a") {
				if (e.ctrlKey === false) return;
				e.preventDefault();
			}
			if (target.classList.contains("parent")) unzoom();
			zoom(target);
			if (!document.querySelector('.parent')) {
				clearzoom();
				return;
			}

			// set parameters for zoom state
			var el = target.querySelector("rect");
			if (el && el.attributes && el.attributes.y && el.attributes._orig_x) {
				var params = get_params()
				params.x = el.attributes._orig_x.value;
				params.y = el.attributes.y.value;
				history.replaceState(null, null, parse_params(params));
			}
		}
		else if (e.target.id == "unzoom") clearzoom();
		else if (e.target.id == "search") search_prompt();
		else if (e.target.id == "ignorecase") toggle_ignorecase();
	}, false)

	// mouse-over for info
	// show
	window.addEventListener("mouseover", function(e) {
		var target = find_group(e.target);
		if (target) details.nodeValue = "Function: " + g_to_text(target);
	}, false)

	// clear
	window.addEventListener("mouseout", function(e) {
		var target = find_group(e.target);
		if (target) details.nodeValue = ' ';
	}, false)

	// ctrl-F for search
	// ctrl-I to toggle case-sensitive search
	window.addEventListener("keydown",function (e) {
		if (e.keyCode === 114 || (e.ctrlKey && e.keyCode === 70)) {
			e.preventDefault();
			search_prompt();
		}
		else if (e.ctrlKey && e.keyCode === 73) {
			e.preventDefault();
			toggle_ignorecase();
		}
	}, false)

	// functions
	function get_params() {
		var params = {};
		var paramsarr = window.location.search.substr(1).split('&');
		for (var i = 0; i < paramsarr.length; ++i) {
			var tmp = paramsarr[i].split("=");
			if (!tmp[0] || !tmp[1]) continue;
			params[tmp[0]]  = decodeURIComponent(tmp[1]);
		}
		return params;
	}
	function parse_params(params) {
		var uri = "?";
		for (var key in params) {
			uri += key + '=' + encodeURIComponent(params[key]) + '&';
		}
		if (uri.slice(-1) == "&")
			uri = uri.substring(0, uri.length - 1);
		if (uri == '?')
			uri = window.location.href.split('?')[0];
		return uri;
	}
	function find_child(node, selector) {
		var children = node.querySelectorAll(selector);
		if (children.length) return children[0];
	}
	function find_group(node) {
		var parent = node.parentElement;
		if (!parent) return;
		if (parent.id == "frames") return node;
		return find_group(parent);
	}
	function orig_save(e, attr, val) {
		if (e.attributes["_orig_" + attr] != undefined) return;
		if (e.attributes[attr] == undefined) return;
		if (val == undefined) val = e.attributes[attr].value;
		e.setAttribute("_orig_" + attr, val);
	}
	function orig_load(e, attr) {
		if (e.attributes["_orig_"+attr] == undefined) return;
		e.attributes[attr].value = e.attributes["_orig_" + attr].value;
		e.removeAttribute("_orig_"+attr);
	}
	function g_to_text(e) {
		var text = find_child(e, "title").firstChild.nodeValue;
		return (text)
	}
	function g_to_func(e) {
		var func = g_to_text(e);
		// if there's any manipulation we want to do to the function
		// name before it's searched, do it here before returning.
		return (func);
	}
	function update_text(e) {
		var r = find_child(e, "rect");
		var t = find_child(e, "text");
		var w = parseFloat(r.attributes.width.value) -3;
		var txt = find_child(e, "title").textContent.replace(/\([^(]*\)$/,"");
		t.attributes.x.value = parseFloat(r.attributes.x.value) + 3;

		// Smaller than this size won't fit anything
		if (w < 2 * 13 * 0.59) {
			t.textContent = "";
			return;
		}

		t.textContent = txt;
		// Fit in full text width
		if (/^ *$/.test(txt) || t.getSubStringLength(0, txt.length) < w)
			return;

		for (var x = txt.length - 2; x > 0; x--) {
			if (t.getSubStringLength(0, x + 2) <= w) {
				t.textContent = txt.substring(0, x) + "..";
				return;
			}
		}
		t.textContent = "";
	}

	// zoom
	function zoom_reset(e) {
		if (e.attributes != undefined) {
			orig_load(e, "x");
			orig_load(e, "width");
		}
		if (e.childNodes == undefined) return;
		for (var i = 0, c = e.childNodes; i < c.length; i++) {
			zoom_reset(c[i]);
		}
	}
	function zoom_child(e, x, ratio) {
		if (e.attributes != undefined) {
			if (e.attributes.x != undefined) {
				orig_save(e, "x");
				e.attributes.x.value = (parseFloat(e.attributes.x.value) - x - 10) * ratio + 10;
				if (e.tagName == "text")
					e.attributes.x.value = find_child(e.parentNode, "rect[x]").attributes.x.value + 3;
			}
			if (e.attributes.width != undefined) {
				orig_save(e, "width");
				e.attributes.width.value = parseFloat(e.attributes.width.value) * ratio;
			}
		}

		if (e.childNodes == undefined) return;
		for (var i = 0, c = e.childNodes; i < c.length; i++) {
			zoom_child(c[i], x - 10, ratio);
		}
	}
	function zoom_parent(e) {
		if (e.attributes) {
			if (e.attributes.x != undefined) {
				orig_save(e, "x");
				e.attributes.x.value = 10;
			}
			if (e.attributes.width != undefined) {
				orig_save(e, "width");
				e.attributes.width.value = parseInt(svg.width.baseVal.value) - (10 * 2);
			}
		}
		if (e.childNodes == undefined) return;
		for (var i = 0, c = e.childNodes; i < c.length; i++) {
			zoom_parent(c[i]);
		}
	}
	function zoom(node) {
		var attr = find_child(node, "rect").attributes;
		var width = parseFloat(attr.width.value);
		var xmin = parseFloat(attr.x.value);
		var xmax = parseFloat(xmin + width);
		var ymin = parseFloat(attr.y.value);
		var ratio = (svg.width.baseVal.value - 2 * 10) / width;

		// XXX: Workaround for JavaScript float issues (fix me)
		var fudge = 0.0001;

		unzoombtn.classList.remove("hide");

		var el = document.getElementById("frames").children;
		for (var i = 0; i < el.length; i++) {
			var e = el[i];
			var a = find_child(e, "rect").attributes;
			var ex = parseFloat(a.x.value);
			var ew = parseFloat(a.width.value);
			var upstack;
			// Is it an ancestor
			if (1 == 0) {
				upstack = parseFloat(a.y.value) > ymin;
			} else {
				upstack = parseFloat(a.y.value) < ymin;
			}
			if (upstack) {
				// Direct ancestor
				if (ex <= xmin && (ex+ew+fudge) >= xmax) {
					e.classList.add("parent");
					zoom_parent(e);
					update_text(e);
				}
				// not in current path
				else
					e.classList.add("hide");
			}
			// Children maybe
			else {
				// no common path
				if (ex < xmin || ex + fudge >= xmax) {
					e.classList.add("hide");
				}
				else {
					zoom_child(e, xmin, ratio);
					update_text(e);
				}
			}
		}
		search();
	}
	function unzoom() {
		unzoombtn.classList.add("hide");
		var el = document.getElementById("frames").children;
		for(var i = 0; i < el.length; i++) {
			el[i].classList.remove("parent");
			el[i].classList.remove("hide");
			zoom_reset(el[i]);
			update_text(el[i]);
		}
		search();
	}
	function clearzoom() {
		unzoom();

		// remove zoom state
		var params = get_params();
		if (params.x) delete params.x;
		if (params.y) delete params.y;
		history.replaceState(null, null, parse_params(params));
	}

	// search
	function toggle_ignorecase() {
		ignorecase = !ignorecase;
		if (ignorecase) {
			ignorecaseBtn.classList.add("show");
		} else {
			ignorecaseBtn.classList.remove("show");
		}
		reset_search();
		search();
	}
	function reset_search() {
		var el = document.querySelectorAll("#frames rect");
		for (var i = 0; i < el.length; i++) {
			orig_load(el[i], "fill")
		}
		var params = get_params();
		delete params.s;
		history.replaceState(null, null, parse_params(params));
	}
	function search_prompt() {
		if (!searching) {
			var term = prompt("Enter a search term (regexp " +
			    "allowed, eg: ^ext4_)"
			    + (ignorecase ? ", ignoring case" : "")
			    + "\nPress Ctrl-i to toggle case sensitivity", "");
			if (term != null) search(term);
		} else {
			reset_search();
			searching = 0;
			currentSearchTerm = null;
			searchbtn.classList.remove("show");
			searchbtn.firstChild.nodeValue = "Search"
			matchedtxt.classList.add("hide");
			matchedtxt.firstChild.nodeValue = ""
		}
	}
	function search(term) {
		if (term) currentSearchTerm = term;

		var re = new RegExp(currentSearchTerm, ignorecase ? 'i' : '');
		var el = document.getElementById("frames").children;
		var matches = new Object();
		var maxwidth = 0;
		for (var i = 0; i < el.length; i++) {
			var e = el[i];
			var func = g_to_func(e);
			var rect = find_child(e, "rect");
			if (func == null || rect == null)
				continue;

			// Save max width. Only works as we have a root frame
			var w = parseFloat(rect.attributes.width.value);
			if (w > maxwidth)
				maxwidth = w;

			if (func.match(re)) {
				// highlight
				var x = parseFloat(rect.attributes.x.value);
				orig_save(rect, "fill");
				rect.attributes.fill.value = "rgb(230,0,230)";

				// remember matches
				if (matches[x] == undefined) {
					matches[x] = w;
				} else {
					if (w > matches[x]) {
						// overwrite with parent
						matches[x] = w;
					}
				}
				searching = 1;
			}
		}
		if (!searching)
			return;
		var params = get_params();
		params.s = currentSearchTerm;
		history.replaceState(null, null, parse_params(params));

		searchbtn.classList.add("show");
		searchbtn.firstChild.nodeValue = "Reset Search";

		// calculate percent matched, excluding vertical overlap
		var count = 0;
		var lastx = -1;
		var lastw = 0;
		var keys = Array();
		for (k in matches) {
			if (matches.hasOwnProperty(k))
				keys.push(k);
		}
		// sort the matched frames by their x location
		// ascending, then width descending
		keys.sort(function(a, b){
			return a - b;
		});
		// Step through frames saving only the biggest bottom-up frames
		// thanks to the sort order. This relies on the tree property
		// where children are always smaller than their parents.
		var fudge = 0.0001;	// JavaScript floating point
		for (var k in keys) {
			var x = parseFloat(keys[k]);
			var w = matches[keys[k]];
			if (x >= lastx + lastw - fudge) {
				count += w;
				lastx = x;
				lastw = w;
			}
		}
		// display matched percent
		matchedtxt.classList.remove("hide");
		var pct = 100 * count / maxwidth;
		if (pct != 100) pct = pct.toFixed(1)
		matchedtxt.firstChild.nodeValue = "Matched: " + pct + "%";
	}
]]>
</script>
<rect x="0.0" y="0" width="1200.0" height="331.0" fill="url(#background)"  />
<text id="title" x="600.00" y="26" >Firedrake example</text>
<text id="details" x="10.00" y="313" > </text>
<text id="unzoom" x="10.00" y="26" class="hide">Reset Zoom</text>
<text id="search" x="1090.00" y="26" >Search</text>
<text id="ignorecase" x="1174.00" y="26" >ic</text>
<text id="matched" x="1090.00" y="313" > </text>
<g id="frames">
<g >
<title>KSPSolve (29,933,554 us, 8.95%)</title><rect x="935.5" y="247" width="105.7" height="15.0" fill="rgb(0,0,0)" rx="2" ry="2" />
<text  x="938.55" y="257.5" >KSPSolve</text>
</g>
<g >
<title>PCSetUpOnBlocks (7,480,248 us, 2.24%)</title><rect x="98.0" y="119" width="26.4" height="15.0" fill="rgb(0,0,0)" rx="2" ry="2" />
<text  x="100.97" y="129.5" >P..</text>
</g>
<g >
<title>PCApply (70,099,605 us, 20.97%)</title><rect x="517.8" y="167" width="247.4" height="15.0" fill="rgb(0,0,0)" rx="2" ry="2" />
<text  x="520.80" y="177.5" >PCApply</text>
</g>
<g >
<title>KSPSolve (975,596 us, 0.29%)</title><rect x="814.9" y="215" width="3.5" height="15.0" fill="rgb(0,0,0)" rx="2" ry="2" />
<text  x="817.91" y="225.5" ></text>
</g>
<g >
<title>MatMult (1,361,134 us, 0.41%)</title><rect x="800.8" y="215" width="4.8" height="15.0" fill="rgb(0,0,0)" rx="2" ry="2" />
<text  x="803.79" y="225.5" ></text>
</g>
<g >
<title>pyop2.global_kernel.GlobalKernel.compile (34,281 us, 0.01%)</title><rect x="1172.7" y="151" width="0.2" height="15.0" fill="rgb(0,0,0)" rx="2" ry="2" />
<text  x="1175.75" y="161.5" ></text>
</g>
<g >
<title>VecAYPX (94,151 us, 0.03%)</title><rect x="1041.4" y="231" width="0.4" height="15.0" fill="rgb(0,0,0)" rx="2" ry="2" />
<text  x="1044.45" y="241.5" ></text>
</g>
<g >
<title>KSPSolve (1,442,740 us, 0.43%)</title><rect x="800.8" y="199" width="5.1" height="15.0" fill="rgb(0,0,0)" rx="2" ry="2" />
<text  x="803.79" y="209.5" ></text>
</g>
<g >
<title>firedrake.function.Function.project (29,830,038 us, 8.92%)</title><rect x="19.1" y="71" width="105.3" height="15.0" fill="rgb(0,0,0)" rx="2" ry="2" />
<text  x="22.09" y="81.5" >firedrake.f..</text>
</g>
<g >
<title>MatScale (223,780 us, 0.07%)</title><rect x="797.6" y="215" width="0.8" height="15.0" fill="rgb(0,0,0)" rx="2" ry="2" />
<text  x="800.61" y="225.5" ></text>
</g>
<g >
<title>firedrake.projection.project (29,830,038 us, 8.92%)</title><rect x="19.1" y="87" width="105.3" height="15.0" fill="rgb(0,0,0)" rx="2" ry="2" />
<text  x="22.09" y="97.5" >firedrake.p..</text>
</g>
<g >
<title>firedrake.assemble_expressions.evaluate_expression (73,009 us, 0.02%)</title><rect x="18.8" y="103" width="0.3" height="15.0" fill="rgb(0,0,0)" rx="2" ry="2" />
<text  x="21.83" y="113.5" ></text>
</g>
<g >
<title>KSPSolve (562,662 us, 0.17%)</title><rect x="96.0" y="151" width="2.0" height="15.0" fill="rgb(0,0,0)" rx="2" ry="2" />
<text  x="98.98" y="161.5" ></text>
</g>
<g >
<title>MatMultAdd (495,369 us, 0.15%)</title><rect x="1078.8" y="183" width="1.7" height="15.0" fill="rgb(0,0,0)" rx="2" ry="2" />
<text  x="1081.76" y="193.5" ></text>
</g>
<g >
<title>KSPSolve (958,080 us, 0.29%)</title><rect x="94.6" y="119" width="3.4" height="15.0" fill="rgb(0,0,0)" rx="2" ry="2" />
<text  x="97.59" y="129.5" ></text>
</g>
<g >
<title>  SA: smooth (677,256 us, 0.20%)</title><rect x="798.4" y="199" width="2.4" height="15.0" fill="rgb(0,0,0)" rx="2" ry="2" />
<text  x="801.40" y="209.5" ></text>
</g>
<g >
<title>MatMatMultNum (325,935 us, 0.10%)</title><rect x="798.6" y="231" width="1.2" height="15.0" fill="rgb(0,0,0)" rx="2" ry="2" />
<text  x="801.65" y="241.5" ></text>
</g>
<g >
<title>MatPtAPNumeric (968,770 us, 0.29%)</title><rect x="805.9" y="199" width="3.4" height="15.0" fill="rgb(0,0,0)" rx="2" ry="2" />
<text  x="808.88" y="209.5" ></text>
</g>
<g >
<title>MatAssemblyEnd (130,302 us, 0.04%)</title><rect x="204.1" y="103" width="0.5" height="15.0" fill="rgb(0,0,0)" rx="2" ry="2" />
<text  x="207.12" y="113.5" ></text>
</g>
<g >
<title>SNESFunctionEval (193,080 us, 0.06%)</title><rect x="1172.3" y="103" width="0.7" height="15.0" fill="rgb(0,0,0)" rx="2" ry="2" />
<text  x="1175.32" y="113.5" ></text>
</g>
<g >
<title>MatSOR (29,886,688 us, 8.94%)</title><rect x="635.0" y="247" width="105.5" height="15.0" fill="rgb(0,0,0)" rx="2" ry="2" />
<text  x="638.05" y="257.5" >MatSOR</text>
</g>
<g >
<title>KSPSolve_FS_Schu (85,915,843 us, 25.70%)</title><rect x="818.4" y="135" width="303.2" height="15.0" fill="rgb(0,0,0)" rx="2" ry="2" />
<text  x="821.35" y="145.5" >KSPSolve_FS_Schu</text>
</g>
<g >
<title>VecSet (78,843 us, 0.02%)</title><rect x="740.5" y="231" width="0.3" height="15.0" fill="rgb(0,0,0)" rx="2" ry="2" />
<text  x="743.52" y="241.5" ></text>
</g>
<g >
<title>PCSetUp (8,326,188 us, 2.49%)</title><rect x="1092.2" y="167" width="29.4" height="15.0" fill="rgb(0,0,0)" rx="2" ry="2" />
<text  x="1095.18" y="177.5" >P..</text>
</g>
<g >
<title>MatMult (1,150,157 us, 0.34%)</title><rect x="810.9" y="199" width="4.0" height="15.0" fill="rgb(0,0,0)" rx="2" ry="2" />
<text  x="813.85" y="209.5" ></text>
</g>
<g >
<title>PCGAMG Gal l01 (54,047 us, 0.02%)</title><rect x="810.7" y="183" width="0.2" height="15.0" fill="rgb(0,0,0)" rx="2" ry="2" />
<text  x="813.66" y="193.5" ></text>
</g>
<g >
<title>MatSOR (29,854,422 us, 8.93%)</title><rect x="935.5" y="279" width="105.4" height="15.0" fill="rgb(0,0,0)" rx="2" ry="2" />
<text  x="938.55" y="289.5" >MatSOR</text>
</g>
<g >
<title>MatLUFactorNum (8,125,732 us, 2.43%)</title><rect x="1092.9" y="183" width="28.7" height="15.0" fill="rgb(0,0,0)" rx="2" ry="2" />
<text  x="1095.88" y="193.5" >M..</text>
</g>
<g >
<title>firedrake.variational_solver.NonlinearVariationalSolver.solve (271,454,702 us, 81.19%)</title><rect x="232.0" y="71" width="958.0" height="15.0" fill="rgb(0,0,0)" rx="2" ry="2" />
<text  x="235.01" y="81.5" >firedrake.variational_solver.NonlinearVariationalSolver.solve</text>
</g>
<g >
<title>VecAXPBYCZ (72,437 us, 0.02%)</title><rect x="740.8" y="199" width="0.3" height="15.0" fill="rgb(0,0,0)" rx="2" ry="2" />
<text  x="743.80" y="209.5" ></text>
</g>
<g >
<title>MatMultTranspose (61,543 us, 0.02%)</title><rect x="494.2" y="183" width="0.2" height="15.0" fill="rgb(0,0,0)" rx="2" ry="2" />
<text  x="497.18" y="193.5" ></text>
</g>
<g >
<title>CreateSparsity (22,257,453 us, 6.66%)</title><rect x="125.6" y="103" width="78.5" height="15.0" fill="rgb(0,0,0)" rx="2" ry="2" />
<text  x="128.57" y="113.5" >CreateSp..</text>
</g>
<g >
<title>MatMult (3,730,696 us, 1.12%)</title><rect x="1065.6" y="183" width="13.2" height="15.0" fill="rgb(0,0,0)" rx="2" ry="2" />
<text  x="1068.59" y="193.5" ></text>
</g>
<g >
<title>firedrake.extrusion_utils.make_extruded_coords (38,693 us, 0.01%)</title><rect x="13.3" y="87" width="0.1" height="15.0" fill="rgb(0,0,0)" rx="2" ry="2" />
<text  x="16.31" y="97.5" ></text>
</g>
<g >
<title>PCApply (3,306,205 us, 0.99%)</title><rect x="1080.5" y="199" width="11.7" height="15.0" fill="rgb(0,0,0)" rx="2" ry="2" />
<text  x="1083.51" y="209.5" ></text>
</g>
<g >
<title>pyop2.global_kernel.GlobalKernel.compile (40,488 us, 0.01%)</title><rect x="1172.5" y="151" width="0.1" height="15.0" fill="rgb(0,0,0)" rx="2" ry="2" />
<text  x="1175.47" y="161.5" ></text>
</g>
<g >
<title>MatMult (6,642,907 us, 1.99%)</title><rect x="1042.2" y="231" width="23.4" height="15.0" fill="rgb(0,0,0)" rx="2" ry="2" />
<text  x="1045.15" y="241.5" >M..</text>
</g>
<g >
<title>firedrake.norms.norm (342,404 us, 0.10%)</title><rect x="124.4" y="87" width="1.2" height="15.0" fill="rgb(0,0,0)" rx="2" ry="2" />
<text  x="127.37" y="97.5" ></text>
</g>
<g >
<title>MatScale (71,120 us, 0.02%)</title><rect x="1172.0" y="119" width="0.2" height="15.0" fill="rgb(0,0,0)" rx="2" ry="2" />
<text  x="1174.95" y="129.5" ></text>
</g>
<g >
<title>Parloop_set_#x7f335eea5f00_wrap_expression_kernel (37,690 us, 0.01%)</title><rect x="18.8" y="135" width="0.2" height="15.0" fill="rgb(0,0,0)" rx="2" ry="2" />
<text  x="21.83" y="145.5" ></text>
</g>
<g >
<title>GAMG: createProl (11,530,734 us, 3.45%)</title><rect x="765.2" y="167" width="40.7" height="15.0" fill="rgb(0,0,0)" rx="2" ry="2" />
<text  x="768.19" y="177.5" >GAM..</text>
</g>
<g >
<title>MatTrnMatMultSym (6,005,738 us, 1.80%)</title><rect x="765.4" y="215" width="21.1" height="15.0" fill="rgb(0,0,0)" rx="2" ry="2" />
<text  x="768.35" y="225.5" ></text>
</g>
<g >
<title>MatPtAPSymbolic (385,504 us, 0.12%)</title><rect x="809.3" y="199" width="1.4" height="15.0" fill="rgb(0,0,0)" rx="2" ry="2" />
<text  x="812.30" y="209.5" ></text>
</g>
<g >
<title>MatMatMultSym (281,567 us, 0.08%)</title><rect x="799.8" y="231" width="1.0" height="15.0" fill="rgb(0,0,0)" rx="2" ry="2" />
<text  x="802.80" y="241.5" ></text>
</g>
<g >
<title>KSPGMRESOrthog (230,458 us, 0.07%)</title><rect x="232.2" y="119" width="0.8" height="15.0" fill="rgb(0,0,0)" rx="2" ry="2" />
<text  x="235.20" y="129.5" ></text>
</g>
<g >
<title>MatMultAdd (43,791 us, 0.01%)</title><rect x="741.4" y="183" width="0.1" height="15.0" fill="rgb(0,0,0)" rx="2" ry="2" />
<text  x="744.39" y="193.5" ></text>
</g>
<g >
<title>VecAXPBYCZ (72,230 us, 0.02%)</title><rect x="493.4" y="199" width="0.3" height="15.0" fill="rgb(0,0,0)" rx="2" ry="2" />
<text  x="496.44" y="209.5" ></text>
</g>
<g >
<title>KSPSolve (77,589,655 us, 23.21%)</title><rect x="818.4" y="151" width="273.8" height="15.0" fill="rgb(0,0,0)" rx="2" ry="2" />
<text  x="821.35" y="161.5" >KSPSolve</text>
</g>
<g >
<title>Parloop_Cells_wrap_form_cell_integral_otherwise (171,535 us, 0.05%)</title><rect x="124.4" y="135" width="0.6" height="15.0" fill="rgb(0,0,0)" rx="2" ry="2" />
<text  x="127.37" y="145.5" ></text>
</g>
<g >
<title>PCGAMG Squ l00 (6,005,738 us, 1.80%)</title><rect x="765.4" y="199" width="21.1" height="15.0" fill="rgb(0,0,0)" rx="2" ry="2" />
<text  x="768.35" y="209.5" ></text>
</g>
<g >
<title>KSPSolve (29,881,169 us, 8.94%)</title><rect x="388.0" y="215" width="105.4" height="15.0" fill="rgb(0,0,0)" rx="2" ry="2" />
<text  x="390.98" y="225.5" >KSPSolve</text>
</g>
<g >
<title>KSPSolve (3,306,205 us, 0.99%)</title><rect x="1080.5" y="183" width="11.7" height="15.0" fill="rgb(0,0,0)" rx="2" ry="2" />
<text  x="1083.51" y="193.5" ></text>
</g>
<g >
<title>MatZeroEntries (216,949 us, 0.06%)</title><rect x="1173.0" y="119" width="0.8" height="15.0" fill="rgb(0,0,0)" rx="2" ry="2" />
<text  x="1176.01" y="129.5" ></text>
</g>
<g >
<title>PCApply (244,817,776 us, 73.22%)</title><rect x="270.9" y="119" width="864.0" height="15.0" fill="rgb(0,0,0)" rx="2" ry="2" />
<text  x="273.87" y="129.5" >PCApply</text>
</g>
<g >
<title>KSPSolve (255,829,467 us, 76.51%)</title><rect x="232.0" y="103" width="902.9" height="15.0" fill="rgb(0,0,0)" rx="2" ry="2" />
<text  x="235.01" y="113.5" >KSPSolve</text>
</g>
<g >
<title>firedrake.variational_solver.NonlinearVariationalSolver.__init__ (30,158,933 us, 9.02%)</title><rect x="125.6" y="71" width="106.4" height="15.0" fill="rgb(0,0,0)" rx="2" ry="2" />
<text  x="128.57" y="81.5" >firedrake.v..</text>
</g>
<g >
<title>PCApply (29,965,531 us, 8.96%)</title><rect x="635.0" y="199" width="105.8" height="15.0" fill="rgb(0,0,0)" rx="2" ry="2" />
<text  x="638.05" y="209.5" >PCApply</text>
</g>
<g >
<title>firedrake.assemble.assemble (342,404 us, 0.10%)</title><rect x="124.4" y="103" width="1.2" height="15.0" fill="rgb(0,0,0)" rx="2" ry="2" />
<text  x="127.37" y="113.5" ></text>
</g>
<g >
<title>PCApply (70,057,385 us, 20.95%)</title><rect x="818.4" y="199" width="247.2" height="15.0" fill="rgb(0,0,0)" rx="2" ry="2" />
<text  x="821.35" y="209.5" >PCApply</text>
</g>
<g >
<title>Parloop_Cells_wrap_form10_cell_integral_otherwise (1,303,715 us, 0.39%)</title><rect x="1185.2" y="135" width="4.6" height="15.0" fill="rgb(0,0,0)" rx="2" ry="2" />
<text  x="1188.19" y="145.5" ></text>
</g>
<g >
<title>Parloop_Cells_wrap_form00_cell_integral_otherwise (2,123,107 us, 0.63%)</title><rect x="1173.8" y="135" width="7.5" height="15.0" fill="rgb(0,0,0)" rx="2" ry="2" />
<text  x="1176.77" y="145.5" ></text>
</g>
<g >
<title>Parloop_Cells_wrap_form0_cell_integral_otherwise (80,648 us, 0.02%)</title><rect x="1172.3" y="135" width="0.3" height="15.0" fill="rgb(0,0,0)" rx="2" ry="2" />
<text  x="1175.32" y="145.5" ></text>
</g>
<g >
<title>pyop2.global_kernel.GlobalKernel.compile (38,619 us, 0.01%)</title><rect x="1189.7" y="151" width="0.1" height="15.0" fill="rgb(0,0,0)" rx="2" ry="2" />
<text  x="1192.66" y="161.5" ></text>
</g>
<g >
<title>CreateExtMesh (38,693 us, 0.01%)</title><rect x="13.3" y="71" width="0.1" height="15.0" fill="rgb(0,0,0)" rx="2" ry="2" />
<text  x="16.31" y="81.5" ></text>
</g>
<g >
<title>firedrake.assemble_expressions.assemble_expression (73,009 us, 0.02%)</title><rect x="18.8" y="87" width="0.3" height="15.0" fill="rgb(0,0,0)" rx="2" ry="2" />
<text  x="21.83" y="97.5" ></text>
</g>
<g >
<title>pyop2.global_kernel.GlobalKernel.compile (35,319 us, 0.01%)</title><rect x="19.0" y="151" width="0.1" height="15.0" fill="rgb(0,0,0)" rx="2" ry="2" />
<text  x="21.97" y="161.5" ></text>
</g>
<g >
<title>SNESJacobianEval (4,815,556 us, 1.44%)</title><rect x="1173.0" y="103" width="17.0" height="15.0" fill="rgb(0,0,0)" rx="2" ry="2" />
<text  x="1176.01" y="113.5" ></text>
</g>
<g >
<title>ParLoopExecute (73,009 us, 0.02%)</title><rect x="18.8" y="119" width="0.3" height="15.0" fill="rgb(0,0,0)" rx="2" ry="2" />
<text  x="21.83" y="129.5" ></text>
</g>
<g >
<title>KSPSolve_FS_Low (85,164,413 us, 25.47%)</title><rect x="517.8" y="135" width="300.6" height="15.0" fill="rgb(0,0,0)" rx="2" ry="2" />
<text  x="520.80" y="145.5" >KSPSolve_FS_Low</text>
</g>
<g >
<title>MatMult (74,283,450 us, 22.22%)</title><rect x="818.4" y="167" width="262.1" height="15.0" fill="rgb(0,0,0)" rx="2" ry="2" />
<text  x="821.35" y="177.5" >MatMult</text>
</g>
<g >
<title>KSPSolve (70,057,385 us, 20.95%)</title><rect x="818.4" y="183" width="247.2" height="15.0" fill="rgb(0,0,0)" rx="2" ry="2" />
<text  x="821.35" y="193.5" >KSPSolve</text>
</g>
<g >
<title>firedrake.linear_solver.LinearSolver.solve (8,438,328 us, 2.52%)</title><rect x="94.6" y="103" width="29.8" height="15.0" fill="rgb(0,0,0)" rx="2" ry="2" />
<text  x="97.59" y="113.5" >f..</text>
</g>
<g >
<title>MatCreateSubMats (1,881,780 us, 0.56%)</title><rect x="1139.7" y="119" width="6.7" height="15.0" fill="rgb(0,0,0)" rx="2" ry="2" />
<text  x="1142.71" y="129.5" ></text>
</g>
<g >
<title>KSPSolve (29,965,531 us, 8.96%)</title><rect x="635.0" y="215" width="105.8" height="15.0" fill="rgb(0,0,0)" rx="2" ry="2" />
<text  x="638.05" y="225.5" >KSPSolve</text>
</g>
<g >
<title>PCApply (29,854,422 us, 8.93%)</title><rect x="935.5" y="263" width="105.4" height="15.0" fill="rgb(0,0,0)" rx="2" ry="2" />
<text  x="938.55" y="273.5" >PCApply</text>
</g>
<g >
<title>MatZeroInitial (5,267,313 us, 1.58%)</title><rect x="76.0" y="135" width="18.6" height="15.0" fill="rgb(0,0,0)" rx="2" ry="2" />
<text  x="79.00" y="145.5" ></text>
</g>
<g >
<title>firedrake.__init__ (1,526,970 us, 0.46%)</title><rect x="13.4" y="71" width="5.4" height="15.0" fill="rgb(0,0,0)" rx="2" ry="2" />
<text  x="16.45" y="81.5" ></text>
</g>
<g >
<title>PCApply (29,933,554 us, 8.95%)</title><rect x="935.5" y="231" width="105.7" height="15.0" fill="rgb(0,0,0)" rx="2" ry="2" />
<text  x="938.55" y="241.5" >PCApply</text>
</g>
<g >
<title>KSPSolve (63,309,279 us, 18.93%)</title><rect x="818.4" y="215" width="223.4" height="15.0" fill="rgb(0,0,0)" rx="2" ry="2" />
<text  x="821.35" y="225.5" >KSPSolve</text>
</g>
<g >
<title>VecSet (79,132 us, 0.02%)</title><rect x="1040.9" y="263" width="0.3" height="15.0" fill="rgb(0,0,0)" rx="2" ry="2" />
<text  x="1043.91" y="273.5" ></text>
</g>
<g >
<title>PCGAMGGraph_AGG (3,359,104 us, 1.00%)</title><rect x="786.5" y="183" width="11.9" height="15.0" fill="rgb(0,0,0)" rx="2" ry="2" />
<text  x="789.55" y="193.5" ></text>
</g>
<g >
<title>MatAssemblyEnd (39,133 us, 0.01%)</title><rect x="1158.5" y="135" width="0.1" height="15.0" fill="rgb(0,0,0)" rx="2" ry="2" />
<text  x="1161.49" y="145.5" ></text>
</g>
<g >
<title>PCGAMGPOpt_AGG (2,119,996 us, 0.63%)</title><rect x="798.4" y="183" width="7.5" height="15.0" fill="rgb(0,0,0)" rx="2" ry="2" />
<text  x="801.40" y="193.5" ></text>
</g>
<g >
<title>MatMatMultSym (3,776,715 us, 1.13%)</title><rect x="1158.6" y="119" width="13.4" height="15.0" fill="rgb(0,0,0)" rx="2" ry="2" />
<text  x="1161.63" y="129.5" ></text>
</g>
<g >
<title>SNESSolve (271,454,702 us, 81.19%)</title><rect x="232.0" y="87" width="958.0" height="15.0" fill="rgb(0,0,0)" rx="2" ry="2" />
<text  x="235.01" y="97.5" >SNESSolve</text>
</g>
<g >
<title>MatResidual (6,638,008 us, 1.99%)</title><rect x="741.8" y="183" width="23.4" height="15.0" fill="rgb(0,0,0)" rx="2" ry="2" />
<text  x="744.76" y="193.5" >M..</text>
</g>
<g >
<title>pyop2.global_kernel.GlobalKernel.compile (37,690 us, 0.01%)</title><rect x="18.8" y="151" width="0.2" height="15.0" fill="rgb(0,0,0)" rx="2" ry="2" />
<text  x="21.83" y="161.5" ></text>
</g>
<g >
<title>firedrake.assemble.allocate_matrix (30,158,933 us, 9.02%)</title><rect x="125.6" y="87" width="106.4" height="15.0" fill="rgb(0,0,0)" rx="2" ry="2" />
<text  x="128.57" y="97.5" >firedrake.a..</text>
</g>
<g >
<title>MatMatMultNum (3,478,174 us, 1.04%)</title><rect x="1146.4" y="119" width="12.2" height="15.0" fill="rgb(0,0,0)" rx="2" ry="2" />
<text  x="1149.35" y="129.5" ></text>
</g>
<g >
<title>Log_Event_form01_cell_integral_otherwise (203,468 us, 0.06%)</title><rect x="1184.3" y="151" width="0.8" height="15.0" fill="rgb(0,0,0)" rx="2" ry="2" />
<text  x="1187.34" y="161.5" ></text>
</g>
<g >
<title>MatCoarsen (45,896 us, 0.01%)</title><rect x="765.2" y="215" width="0.2" height="15.0" fill="rgb(0,0,0)" rx="2" ry="2" />
<text  x="768.19" y="225.5" ></text>
</g>
<g >
<title>MatConvert (126,281 us, 0.04%)</title><rect x="1139.3" y="119" width="0.4" height="15.0" fill="rgb(0,0,0)" rx="2" ry="2" />
<text  x="1142.26" y="129.5" ></text>
</g>
<g >
<title>MatAssemblyEnd (40,046 us, 0.01%)</title><rect x="1139.1" y="135" width="0.2" height="15.0" fill="rgb(0,0,0)" rx="2" ry="2" />
<text  x="1142.12" y="145.5" ></text>
</g>
<g >
<title>PCApply (29,802,200 us, 8.91%)</title><rect x="388.0" y="231" width="105.2" height="15.0" fill="rgb(0,0,0)" rx="2" ry="2" />
<text  x="390.98" y="241.5" >PCApply</text>
</g>
<g >
<title>firedrake.assemble.assemble (73,009 us, 0.02%)</title><rect x="18.8" y="71" width="0.3" height="15.0" fill="rgb(0,0,0)" rx="2" ry="2" />
<text  x="21.83" y="81.5" ></text>
</g>
<g >
<title>MatMult (10,725,918 us, 3.21%)</title><rect x="233.0" y="119" width="37.9" height="15.0" fill="rgb(0,0,0)" rx="2" ry="2" />
<text  x="236.02" y="129.5" >Ma..</text>
</g>
<g >
<title>KSPSolve_FS_0 (69,969,695 us, 20.93%)</title><rect x="270.9" y="135" width="246.9" height="15.0" fill="rgb(0,0,0)" rx="2" ry="2" />
<text  x="273.87" y="145.5" >KSPSolve_FS_0</text>
</g>
<g >
<title>MatResidual (6,632,542 us, 1.98%)</title><rect x="494.4" y="183" width="23.4" height="15.0" fill="rgb(0,0,0)" rx="2" ry="2" />
<text  x="497.39" y="193.5" >M..</text>
</g>
<g >
<title>MatAssemblyEnd (158,858 us, 0.05%)</title><rect x="1145.8" y="135" width="0.6" height="15.0" fill="rgb(0,0,0)" rx="2" ry="2" />
<text  x="1148.79" y="145.5" ></text>
</g>
<g >
<title>GAMG: partLevel (1,408,321 us, 0.42%)</title><rect x="805.9" y="167" width="5.0" height="15.0" fill="rgb(0,0,0)" rx="2" ry="2" />
<text  x="808.88" y="177.5" ></text>
</g>
<g >
<title>firedrake (334,362,497 us, 100.00%)</title><rect x="10.0" y="55" width="1180.0" height="15.0" fill="rgb(0,0,0)" rx="2" ry="2" />
<text  x="13.00" y="65.5" >firedrake</text>
</g>
<g >
<title>PCApply (29,886,688 us, 8.94%)</title><rect x="635.0" y="231" width="105.5" height="15.0" fill="rgb(0,0,0)" rx="2" ry="2" />
<text  x="638.05" y="241.5" >PCApply</text>
</g>
<g >
<title>firedrake.norms.errornorm (342,404 us, 0.10%)</title><rect x="124.4" y="71" width="1.2" height="15.0" fill="rgb(0,0,0)" rx="2" ry="2" />
<text  x="127.37" y="81.5" ></text>
</g>
<g >
<title>pyop2.global_kernel.GlobalKernel.compile (37,812 us, 0.01%)</title><rect x="1181.1" y="151" width="0.2" height="15.0" fill="rgb(0,0,0)" rx="2" ry="2" />
<text  x="1184.13" y="161.5" ></text>
</g>
<g >
<title>PCGAMG Gal l00 (1,354,274 us, 0.41%)</title><rect x="805.9" y="183" width="4.8" height="15.0" fill="rgb(0,0,0)" rx="2" ry="2" />
<text  x="808.88" y="193.5" ></text>
</g>
<g >
<title>ParLoopExecute (4,540,134 us, 1.36%)</title><rect x="1173.8" y="119" width="16.0" height="15.0" fill="rgb(0,0,0)" rx="2" ry="2" />
<text  x="1176.77" y="129.5" ></text>
</g>
<g >
<title>PCSetUpOnBlocks (8,326,188 us, 2.49%)</title><rect x="1092.2" y="151" width="29.4" height="15.0" fill="rgb(0,0,0)" rx="2" ry="2" />
<text  x="1095.18" y="161.5" >P..</text>
</g>
<g >
<title>PCGAMGCoarse_AGG (6,051,634 us, 1.81%)</title><rect x="765.2" y="183" width="21.3" height="15.0" fill="rgb(0,0,0)" rx="2" ry="2" />
<text  x="768.19" y="193.5" ></text>
</g>
<g >
<title>firedrake.tsfc_interface.compile_form (58,473 us, 0.02%)</title><rect x="1189.8" y="119" width="0.2" height="15.0" fill="rgb(0,0,0)" rx="2" ry="2" />
<text  x="1192.79" y="129.5" ></text>
</g>
<g >
<title>VecMDot (125,439 us, 0.04%)</title><rect x="232.6" y="135" width="0.4" height="15.0" fill="rgb(0,0,0)" rx="2" ry="2" />
<text  x="235.57" y="145.5" ></text>
</g>
<g >
<title>MatMultAdd (43,524 us, 0.01%)</title><rect x="494.0" y="183" width="0.2" height="15.0" fill="rgb(0,0,0)" rx="2" ry="2" />
<text  x="497.02" y="193.5" ></text>
</g>
<g >
<title>VecScatterBegin (36,926 us, 0.01%)</title><rect x="1134.7" y="135" width="0.2" height="15.0" fill="rgb(0,0,0)" rx="2" ry="2" />
<text  x="1137.73" y="145.5" ></text>
</g>
<g >
<title>Log_Event_form_cell_integral_otherwise (34,653 us, 0.01%)</title><rect x="124.4" y="151" width="0.1" height="15.0" fill="rgb(0,0,0)" rx="2" ry="2" />
<text  x="127.37" y="161.5" ></text>
</g>
<g >
<title>KSPSetUp (2,125,753 us, 0.64%)</title><rect x="810.9" y="167" width="7.5" height="15.0" fill="rgb(0,0,0)" rx="2" ry="2" />
<text  x="813.85" y="177.5" ></text>
</g>
<g >
<title>  MIS/Agg (45,896 us, 0.01%)</title><rect x="765.2" y="199" width="0.2" height="15.0" fill="rgb(0,0,0)" rx="2" ry="2" />
<text  x="768.19" y="209.5" ></text>
</g>
<g >
<title>firedrake.tsfc_interface.compile_form (38,267 us, 0.01%)</title><rect x="1172.9" y="119" width="0.1" height="15.0" fill="rgb(0,0,0)" rx="2" ry="2" />
<text  x="1175.87" y="129.5" ></text>
</g>
<g >
<title>ParLoopExecute (2,226,861 us, 0.67%)</title><rect x="19.4" y="119" width="7.8" height="15.0" fill="rgb(0,0,0)" rx="2" ry="2" />
<text  x="22.38" y="129.5" ></text>
</g>
<g >
<title>MatSOR (975,596 us, 0.29%)</title><rect x="814.9" y="247" width="3.5" height="15.0" fill="rgb(0,0,0)" rx="2" ry="2" />
<text  x="817.91" y="257.5" ></text>
</g>
<g >
<title>MatAXPY (1,186,561 us, 0.35%)</title><rect x="1135.1" y="119" width="4.2" height="15.0" fill="rgb(0,0,0)" rx="2" ry="2" />
<text  x="1138.08" y="129.5" ></text>
</g>
<g >
<title>Parloop_Cells_wrap_form1_cell_integral_otherwise (74,165 us, 0.02%)</title><rect x="1172.6" y="135" width="0.3" height="15.0" fill="rgb(0,0,0)" rx="2" ry="2" />
<text  x="1175.61" y="145.5" ></text>
</g>
<g >
<title>PCApply (975,596 us, 0.29%)</title><rect x="814.9" y="231" width="3.5" height="15.0" fill="rgb(0,0,0)" rx="2" ry="2" />
<text  x="817.91" y="241.5" ></text>
</g>
<g >
<title>Log_Event_form00_cell_integral_otherwise (465,756 us, 0.14%)</title><rect x="1179.5" y="151" width="1.6" height="15.0" fill="rgb(0,0,0)" rx="2" ry="2" />
<text  x="1182.49" y="161.5" ></text>
</g>
<g >
<title>ParLoopExecute (171,535 us, 0.05%)</title><rect x="124.4" y="119" width="0.6" height="15.0" fill="rgb(0,0,0)" rx="2" ry="2" />
<text  x="127.37" y="129.5" ></text>
</g>
<g >
<title>VecAYPX (94,013 us, 0.03%)</title><rect x="493.7" y="199" width="0.3" height="15.0" fill="rgb(0,0,0)" rx="2" ry="2" />
<text  x="496.69" y="209.5" ></text>
</g>
<g >
<title>VecMAXPY (105,019 us, 0.03%)</title><rect x="232.2" y="135" width="0.4" height="15.0" fill="rgb(0,0,0)" rx="2" ry="2" />
<text  x="235.20" y="145.5" ></text>
</g>
<g >
<title>firedrake.assemble.allocate_matrix (19,084,373 us, 5.71%)</title><rect x="27.2" y="119" width="67.4" height="15.0" fill="rgb(0,0,0)" rx="2" ry="2" />
<text  x="30.24" y="129.5" >firedr..</text>
</g>
<g >
<title>MatZeroInitial (7,771,178 us, 2.32%)</title><rect x="204.6" y="103" width="27.4" height="15.0" fill="rgb(0,0,0)" rx="2" ry="2" />
<text  x="207.58" y="113.5" >M..</text>
</g>
<g >
<title>PCApply (29,881,169 us, 8.94%)</title><rect x="388.0" y="199" width="105.4" height="15.0" fill="rgb(0,0,0)" rx="2" ry="2" />
<text  x="390.98" y="209.5" >PCApply</text>
</g>
<g >
<title>Parloop_Cells_wrap_form01_cell_integral_otherwise (1,113,312 us, 0.33%)</title><rect x="1181.3" y="135" width="3.9" height="15.0" fill="rgb(0,0,0)" rx="2" ry="2" />
<text  x="1184.26" y="145.5" ></text>
</g>
<g >
<title>firedrake.assemble.assemble (21,311,234 us, 6.37%)</title><rect x="19.4" y="103" width="75.2" height="15.0" fill="rgb(0,0,0)" rx="2" ry="2" />
<text  x="22.38" y="113.5" >firedra..</text>
</g>
<g >
<title>PCApply (81,606 us, 0.02%)</title><rect x="805.6" y="215" width="0.3" height="15.0" fill="rgb(0,0,0)" rx="2" ry="2" />
<text  x="808.59" y="225.5" ></text>
</g>
<g >
<title>  Graph (3,359,104 us, 1.00%)</title><rect x="786.5" y="199" width="11.9" height="15.0" fill="rgb(0,0,0)" rx="2" ry="2" />
<text  x="789.55" y="209.5" ></text>
</g>
<g >
<title>MatMult (3,730,899 us, 1.12%)</title><rect x="1121.6" y="135" width="13.1" height="15.0" fill="rgb(0,0,0)" rx="2" ry="2" />
<text  x="1124.56" y="145.5" ></text>
</g>
<g >
<title>Log_Event_form00_cell_integral_otherwise (574,272 us, 0.17%)</title><rect x="24.9" y="151" width="2.1" height="15.0" fill="rgb(0,0,0)" rx="2" ry="2" />
<text  x="27.94" y="161.5" ></text>
</g>
<g >
<title>VecAYPX (94,421 us, 0.03%)</title><rect x="741.1" y="199" width="0.3" height="15.0" fill="rgb(0,0,0)" rx="2" ry="2" />
<text  x="744.05" y="209.5" ></text>
</g>
<g >
<title>VecSet (78,969 us, 0.02%)</title><rect x="493.2" y="231" width="0.2" height="15.0" fill="rgb(0,0,0)" rx="2" ry="2" />
<text  x="496.16" y="241.5" ></text>
</g>
<g >
<title>pyop2.global_kernel.GlobalKernel.compile (37,642 us, 0.01%)</title><rect x="1185.1" y="151" width="0.1" height="15.0" fill="rgb(0,0,0)" rx="2" ry="2" />
<text  x="1188.06" y="161.5" ></text>
</g>
<g >
<title>PCSetUp (15,064,808 us, 4.51%)</title><rect x="765.2" y="151" width="53.2" height="15.0" fill="rgb(0,0,0)" rx="2" ry="2" />
<text  x="768.19" y="161.5" >PCSe..</text>
</g>
<g >
<title>MatMult (33,208,226 us, 9.93%)</title><rect x="818.4" y="231" width="117.1" height="15.0" fill="rgb(0,0,0)" rx="2" ry="2" />
<text  x="821.35" y="241.5" >MatMult</text>
</g>
<g >
<title>PCGAMG Opt l00 (607,502 us, 0.18%)</title><rect x="798.6" y="215" width="2.2" height="15.0" fill="rgb(0,0,0)" rx="2" ry="2" />
<text  x="801.65" y="225.5" ></text>
</g>
<g >
<title>VecAXPBYCZ (73,348 us, 0.02%)</title><rect x="1041.2" y="231" width="0.2" height="15.0" fill="rgb(0,0,0)" rx="2" ry="2" />
<text  x="1044.19" y="241.5" ></text>
</g>
<g >
<title>Log_Event_form0_cell_integral_otherwise (40,160 us, 0.01%)</title><rect x="1172.3" y="151" width="0.2" height="15.0" fill="rgb(0,0,0)" rx="2" ry="2" />
<text  x="1175.32" y="161.5" ></text>
</g>
<g >
<title>Parloop_Cells_wrap_form0_cell_integral_otherwise (80,476 us, 0.02%)</title><rect x="19.1" y="119" width="0.3" height="15.0" fill="rgb(0,0,0)" rx="2" ry="2" />
<text  x="22.09" y="129.5" ></text>
</g>
<g >
<title>PCSetUp (10,616,599 us, 3.18%)</title><rect x="1134.9" y="103" width="37.4" height="15.0" fill="rgb(0,0,0)" rx="2" ry="2" />
<text  x="1137.86" y="113.5" >PC..</text>
</g>
<g >
<title>MatMult (395,418 us, 0.12%)</title><rect x="94.6" y="135" width="1.4" height="15.0" fill="rgb(0,0,0)" rx="2" ry="2" />
<text  x="97.59" y="145.5" ></text>
</g>
<g >
<title>PCApply (562,662 us, 0.17%)</title><rect x="96.0" y="135" width="2.0" height="15.0" fill="rgb(0,0,0)" rx="2" ry="2" />
<text  x="98.98" y="145.5" ></text>
</g>
<g >
<title>MatMult (33,184,674 us, 9.92%)</title><rect x="270.9" y="199" width="117.1" height="15.0" fill="rgb(0,0,0)" rx="2" ry="2" />
<text  x="273.87" y="209.5" >MatMult</text>
</g>
<g >
<title>PCApply (562,662 us, 0.17%)</title><rect x="96.0" y="167" width="2.0" height="15.0" fill="rgb(0,0,0)" rx="2" ry="2" />
<text  x="98.98" y="177.5" ></text>
</g>
<g >
<title>PCApply (69,969,695 us, 20.93%)</title><rect x="270.9" y="167" width="246.9" height="15.0" fill="rgb(0,0,0)" rx="2" ry="2" />
<text  x="273.87" y="177.5" >PCApply</text>
</g>
<g >
<title>MatConvert (450,169 us, 0.13%)</title><rect x="796.0" y="215" width="1.6" height="15.0" fill="rgb(0,0,0)" rx="2" ry="2" />
<text  x="799.02" y="225.5" ></text>
</g>
<g >
<title>KSPSolve (63,355,548 us, 18.95%)</title><rect x="517.8" y="183" width="223.6" height="15.0" fill="rgb(0,0,0)" rx="2" ry="2" />
<text  x="520.80" y="193.5" >KSPSolve</text>
</g>
<g >
<title>ParLoopExecute (80,476 us, 0.02%)</title><rect x="19.1" y="103" width="0.3" height="15.0" fill="rgb(0,0,0)" rx="2" ry="2" />
<text  x="22.09" y="113.5" ></text>
</g>
<g >
<title>MatMult (33,223,159 us, 9.94%)</title><rect x="517.8" y="199" width="117.2" height="15.0" fill="rgb(0,0,0)" rx="2" ry="2" />
<text  x="520.80" y="209.5" >MatMult</text>
</g>
<g >
<title>PCApply (3,306,205 us, 0.99%)</title><rect x="1080.5" y="167" width="11.7" height="15.0" fill="rgb(0,0,0)" rx="2" ry="2" />
<text  x="1083.51" y="177.5" ></text>
</g>
<g >
<title>MatSolve (562,662 us, 0.17%)</title><rect x="96.0" y="183" width="2.0" height="15.0" fill="rgb(0,0,0)" rx="2" ry="2" />
<text  x="98.98" y="193.5" ></text>
</g>
<g >
<title>MatResidual (6,642,907 us, 1.99%)</title><rect x="1042.2" y="215" width="23.4" height="15.0" fill="rgb(0,0,0)" rx="2" ry="2" />
<text  x="1045.15" y="225.5" >M..</text>
</g>
<g >
<title>KSPSolve (69,969,695 us, 20.93%)</title><rect x="270.9" y="151" width="246.9" height="15.0" fill="rgb(0,0,0)" rx="2" ry="2" />
<text  x="273.87" y="161.5" >KSPSolve</text>
</g>
<g >
<title>KSPSolve (70,099,605 us, 20.97%)</title><rect x="517.8" y="151" width="247.4" height="15.0" fill="rgb(0,0,0)" rx="2" ry="2" />
<text  x="520.80" y="161.5" >KSPSolve</text>
</g>
<g >
<title>all (334,362,497 us, 100%)</title><rect x="10.0" y="39" width="1180.0" height="15.0" fill="rgb(0,0,0)" rx="2" ry="2" />
<text  x="13.00" y="49.5" ></text>
</g>
<g >
<title>KSPSolve (63,232,086 us, 18.91%)</title><rect x="270.9" y="183" width="223.1" height="15.0" fill="rgb(0,0,0)" rx="2" ry="2" />
<text  x="273.87" y="193.5" >KSPSolve</text>
</g>
<g >
<title>MatSolve (3,306,205 us, 0.99%)</title><rect x="1080.5" y="215" width="11.7" height="15.0" fill="rgb(0,0,0)" rx="2" ry="2" />
<text  x="1083.51" y="225.5" ></text>
</g>
<g >
<title>MatMultTranspose (62,258 us, 0.02%)</title><rect x="741.5" y="183" width="0.3" height="15.0" fill="rgb(0,0,0)" rx="2" ry="2" />
<text  x="744.54" y="193.5" ></text>
</g>
<g >
<title>pyop2.global_kernel.GlobalKernel.compile (38,693 us, 0.01%)</title><rect x="13.3" y="135" width="0.1" height="15.0" fill="rgb(0,0,0)" rx="2" ry="2" />
<text  x="16.31" y="145.5" ></text>
</g>
<g >
<title>Parloop_Cells_wrap_form00_cell_integral_otherwise (2,226,861 us, 0.67%)</title><rect x="19.4" y="135" width="7.8" height="15.0" fill="rgb(0,0,0)" rx="2" ry="2" />
<text  x="22.38" y="145.5" ></text>
</g>
<g >
<title>pyop2.global_kernel.GlobalKernel.compile (136,882 us, 0.04%)</title><rect x="124.5" y="151" width="0.5" height="15.0" fill="rgb(0,0,0)" rx="2" ry="2" />
<text  x="127.49" y="161.5" ></text>
</g>
<g >
<title>firedrake.tsfc_interface.compile_form (170,869 us, 0.05%)</title><rect x="125.0" y="119" width="0.6" height="15.0" fill="rgb(0,0,0)" rx="2" ry="2" />
<text  x="127.97" y="129.5" ></text>
</g>
<g >
<title>MatMult (6,638,008 us, 1.99%)</title><rect x="741.8" y="199" width="23.4" height="15.0" fill="rgb(0,0,0)" rx="2" ry="2" />
<text  x="744.76" y="209.5" >M..</text>
</g>
<g >
<title>MatCholFctrNum (7,385,876 us, 2.21%)</title><rect x="98.0" y="151" width="26.0" height="15.0" fill="rgb(0,0,0)" rx="2" ry="2" />
<text  x="100.97" y="161.5" >M..</text>
</g>
<g >
<title>MatMult (6,632,542 us, 1.98%)</title><rect x="494.4" y="199" width="23.4" height="15.0" fill="rgb(0,0,0)" rx="2" ry="2" />
<text  x="497.39" y="209.5" >M..</text>
</g>
<g >
<title>pyop2.global_kernel.GlobalKernel.compile (76,759 us, 0.02%)</title><rect x="27.0" y="151" width="0.2" height="15.0" fill="rgb(0,0,0)" rx="2" ry="2" />
<text  x="29.96" y="161.5" ></text>
</g>
<g >
<title>KSPSolve (2,125,753 us, 0.64%)</title><rect x="810.9" y="183" width="7.5" height="15.0" fill="rgb(0,0,0)" rx="2" ry="2" />
<text  x="813.85" y="193.5" ></text>
</g>
<g >
<title>MatAssemblyEnd (90,655 us, 0.03%)</title><rect x="75.7" y="135" width="0.3" height="15.0" fill="rgb(0,0,0)" rx="2" ry="2" />
<text  x="78.68" y="145.5" ></text>
</g>
<g >
<title>MatMultAdd (43,420 us, 0.01%)</title><rect x="1041.8" y="215" width="0.1" height="15.0" fill="rgb(0,0,0)" rx="2" ry="2" />
<text  x="1044.78" y="225.5" ></text>
</g>
<g >
<title>firedrake.solving_utils._SNESContext.split (33,682 us, 0.01%)</title><rect x="1172.2" y="135" width="0.1" height="15.0" fill="rgb(0,0,0)" rx="2" ry="2" />
<text  x="1175.21" y="145.5" ></text>
</g>
<g >
<title>Parloop_Cells_wrap_pyop2_kernel_uniform_extrusion (38,693 us, 0.01%)</title><rect x="13.3" y="119" width="0.1" height="15.0" fill="rgb(0,0,0)" rx="2" ry="2" />
<text  x="16.31" y="129.5" ></text>
</g>
<g >
<title>MatMultTranspose (61,779 us, 0.02%)</title><rect x="1041.9" y="215" width="0.3" height="15.0" fill="rgb(0,0,0)" rx="2" ry="2" />
<text  x="1044.93" y="225.5" ></text>
</g>
<g >
<title>MatILUFactorSym (200,456 us, 0.06%)</title><rect x="1092.2" y="183" width="0.7" height="15.0" fill="rgb(0,0,0)" rx="2" ry="2" />
<text  x="1095.18" y="193.5" ></text>
</g>
<g >
<title>MatSOR (29,802,200 us, 8.91%)</title><rect x="388.0" y="247" width="105.2" height="15.0" fill="rgb(0,0,0)" rx="2" ry="2" />
<text  x="390.98" y="257.5" >MatSOR</text>
</g>
<g >
<title>Log_Event_form10_cell_integral_otherwise (228,924 us, 0.07%)</title><rect x="1188.8" y="151" width="0.9" height="15.0" fill="rgb(0,0,0)" rx="2" ry="2" />
<text  x="1191.85" y="161.5" ></text>
</g>
<g >
<title>firedrake.dmhooks.create_field_decomposition (33,682 us, 0.01%)</title><rect x="1172.2" y="119" width="0.1" height="15.0" fill="rgb(0,0,0)" rx="2" ry="2" />
<text  x="1175.21" y="129.5" ></text>
</g>
<g >
<title>CreateSparsity (13,726,405 us, 4.11%)</title><rect x="27.2" y="135" width="48.5" height="15.0" fill="rgb(0,0,0)" rx="2" ry="2" />
<text  x="30.24" y="145.5" >Crea..</text>
</g>
<g >
<title>ParLoopExecute (154,813 us, 0.05%)</title><rect x="1172.3" y="119" width="0.6" height="15.0" fill="rgb(0,0,0)" rx="2" ry="2" />
<text  x="1175.32" y="129.5" ></text>
</g>
<g >
<title>Parloop_set_#x7f335eeecca0_wrap_expression_kernel (35,319 us, 0.01%)</title><rect x="19.0" y="135" width="0.1" height="15.0" fill="rgb(0,0,0)" rx="2" ry="2" />
<text  x="21.97" y="145.5" ></text>
</g>
<g >
<title>ParLoopExecute (38,693 us, 0.01%)</title><rect x="13.3" y="103" width="0.1" height="15.0" fill="rgb(0,0,0)" rx="2" ry="2" />
<text  x="16.31" y="113.5" ></text>
</g>
<g >
<title>Log_Event_form1_cell_integral_otherwise (39,884 us, 0.01%)</title><rect x="1172.6" y="151" width="0.1" height="15.0" fill="rgb(0,0,0)" rx="2" ry="2" />
<text  x="1175.61" y="161.5" ></text>
</g>
<g >
<title>MatICCFactorSym (94,372 us, 0.03%)</title><rect x="124.0" y="151" width="0.4" height="15.0" fill="rgb(0,0,0)" rx="2" ry="2" />
<text  x="127.03" y="161.5" ></text>
</g>
<g >
<title>pyop2.global_kernel.GlobalKernel.compile (80,476 us, 0.02%)</title><rect x="19.1" y="135" width="0.3" height="15.0" fill="rgb(0,0,0)" rx="2" ry="2" />
<text  x="22.09" y="145.5" ></text>
</g>
<g >
<title>PCSetUp (7,480,248 us, 2.24%)</title><rect x="98.0" y="135" width="26.4" height="15.0" fill="rgb(0,0,0)" rx="2" ry="2" />
<text  x="100.97" y="145.5" >P..</text>
</g>
<g >
<title>PCApply (975,596 us, 0.29%)</title><rect x="814.9" y="199" width="3.5" height="15.0" fill="rgb(0,0,0)" rx="2" ry="2" />
<text  x="817.91" y="209.5" ></text>
</g>
<g >
<title>MatAssemblyEnd (127,424 us, 0.04%)</title><rect x="795.6" y="215" width="0.4" height="15.0" fill="rgb(0,0,0)" rx="2" ry="2" />
<text  x="798.57" y="225.5" ></text>
</g>
</g>
</svg>
