<?xml version="1.0" standalone="no"?>
<!DOCTYPE svg PUBLIC "-//W3C//DTD SVG 1.1//EN" "http://www.w3.org/Graphics/SVG/1.1/DTD/svg11.dtd">
<svg version="1.1" width="1200" height="299" onload="init(evt)" viewBox="0 0 1200 299" xmlns="http://www.w3.org/2000/svg" xmlns:xlink="http://www.w3.org/1999/xlink">
<!-- Flame graph stack visualization. See https://github.com/brendangregg/FlameGraph for latest version, and http://www.brendangregg.com/flamegraphs.html for examples. -->
<!-- NOTES:  -->
<defs>
	<linearGradient id="background" y1="0" y2="1" x1="0" x2="0" >
		<stop stop-color="#eeeeee" offset="5%" />
		<stop stop-color="#eeeeb0" offset="95%" />
	</linearGradient>
</defs>
<style type="text/css">
	text { font-family:Verdana; font-size:13px; fill:rgb(0,0,0); }
	#search, #ignorecase { opacity:0.1; cursor:pointer; }
	#search:hover, #search.show, #ignorecase:hover, #ignorecase.show { opacity:1; }
	#subtitle { text-anchor:middle; font-color:rgb(160,160,160); }
	#title { text-anchor:middle; font-size:18px}
	#unzoom { cursor:pointer; }
	#frames > *:hover { stroke:black; stroke-width:0.5; cursor:pointer; }
	.hide { display:none; }
	.parent { opacity:0.5; }
</style>
<script type="text/ecmascript">
<![CDATA[
	"use strict";
	var details, searchbtn, unzoombtn, matchedtxt, svg, searching, currentSearchTerm, ignorecase, ignorecaseBtn;
	function init(evt) {
		details = document.getElementById("details").firstChild;
		searchbtn = document.getElementById("search");
		ignorecaseBtn = document.getElementById("ignorecase");
		unzoombtn = document.getElementById("unzoom");
		matchedtxt = document.getElementById("matched");
		svg = document.getElementsByTagName("svg")[0];
		searching = 0;
		currentSearchTerm = null;

		// use GET parameters to restore a flamegraphs state.
		var params = get_params();
		if (params.x && params.y)
			zoom(find_group(document.querySelector('[x="' + params.x + '"][y="' + params.y + '"]')));
                if (params.s) search(params.s);
	}

	// event listeners
	window.addEventListener("click", function(e) {
		var target = find_group(e.target);
		if (target) {
			if (target.nodeName == "a") {
				if (e.ctrlKey === false) return;
				e.preventDefault();
			}
			if (target.classList.contains("parent")) unzoom();
			zoom(target);
			if (!document.querySelector('.parent')) {
				clearzoom();
				return;
			}

			// set parameters for zoom state
			var el = target.querySelector("rect");
			if (el && el.attributes && el.attributes.y && el.attributes._orig_x) {
				var params = get_params()
				params.x = el.attributes._orig_x.value;
				params.y = el.attributes.y.value;
				history.replaceState(null, null, parse_params(params));
			}
		}
		else if (e.target.id == "unzoom") clearzoom();
		else if (e.target.id == "search") search_prompt();
		else if (e.target.id == "ignorecase") toggle_ignorecase();
	}, false)

	// mouse-over for info
	// show
	window.addEventListener("mouseover", function(e) {
		var target = find_group(e.target);
		if (target) details.nodeValue = "Function: " + g_to_text(target);
	}, false)

	// clear
	window.addEventListener("mouseout", function(e) {
		var target = find_group(e.target);
		if (target) details.nodeValue = ' ';
	}, false)

	// ctrl-F for search
	// ctrl-I to toggle case-sensitive search
	window.addEventListener("keydown",function (e) {
		if (e.keyCode === 114 || (e.ctrlKey && e.keyCode === 70)) {
			e.preventDefault();
			search_prompt();
		}
		else if (e.ctrlKey && e.keyCode === 73) {
			e.preventDefault();
			toggle_ignorecase();
		}
	}, false)

	// functions
	function get_params() {
		var params = {};
		var paramsarr = window.location.search.substr(1).split('&');
		for (var i = 0; i < paramsarr.length; ++i) {
			var tmp = paramsarr[i].split("=");
			if (!tmp[0] || !tmp[1]) continue;
			params[tmp[0]]  = decodeURIComponent(tmp[1]);
		}
		return params;
	}
	function parse_params(params) {
		var uri = "?";
		for (var key in params) {
			uri += key + '=' + encodeURIComponent(params[key]) + '&';
		}
		if (uri.slice(-1) == "&")
			uri = uri.substring(0, uri.length - 1);
		if (uri == '?')
			uri = window.location.href.split('?')[0];
		return uri;
	}
	function find_child(node, selector) {
		var children = node.querySelectorAll(selector);
		if (children.length) return children[0];
	}
	function find_group(node) {
		var parent = node.parentElement;
		if (!parent) return;
		if (parent.id == "frames") return node;
		return find_group(parent);
	}
	function orig_save(e, attr, val) {
		if (e.attributes["_orig_" + attr] != undefined) return;
		if (e.attributes[attr] == undefined) return;
		if (val == undefined) val = e.attributes[attr].value;
		e.setAttribute("_orig_" + attr, val);
	}
	function orig_load(e, attr) {
		if (e.attributes["_orig_"+attr] == undefined) return;
		e.attributes[attr].value = e.attributes["_orig_" + attr].value;
		e.removeAttribute("_orig_"+attr);
	}
	function g_to_text(e) {
		var text = find_child(e, "title").firstChild.nodeValue;
		return (text)
	}
	function g_to_func(e) {
		var func = g_to_text(e);
		// if there's any manipulation we want to do to the function
		// name before it's searched, do it here before returning.
		return (func);
	}
	function update_text(e) {
		var r = find_child(e, "rect");
		var t = find_child(e, "text");
		var w = parseFloat(r.attributes.width.value) -3;
		var txt = find_child(e, "title").textContent.replace(/\([^(]*\)$/,"");
		t.attributes.x.value = parseFloat(r.attributes.x.value) + 3;

		// Smaller than this size won't fit anything
		if (w < 2 * 13 * 0.59) {
			t.textContent = "";
			return;
		}

		t.textContent = txt;
		// Fit in full text width
		if (/^ *$/.test(txt) || t.getSubStringLength(0, txt.length) < w)
			return;

		for (var x = txt.length - 2; x > 0; x--) {
			if (t.getSubStringLength(0, x + 2) <= w) {
				t.textContent = txt.substring(0, x) + "..";
				return;
			}
		}
		t.textContent = "";
	}

	// zoom
	function zoom_reset(e) {
		if (e.attributes != undefined) {
			orig_load(e, "x");
			orig_load(e, "width");
		}
		if (e.childNodes == undefined) return;
		for (var i = 0, c = e.childNodes; i < c.length; i++) {
			zoom_reset(c[i]);
		}
	}
	function zoom_child(e, x, ratio) {
		if (e.attributes != undefined) {
			if (e.attributes.x != undefined) {
				orig_save(e, "x");
				e.attributes.x.value = (parseFloat(e.attributes.x.value) - x - 10) * ratio + 10;
				if (e.tagName == "text")
					e.attributes.x.value = find_child(e.parentNode, "rect[x]").attributes.x.value + 3;
			}
			if (e.attributes.width != undefined) {
				orig_save(e, "width");
				e.attributes.width.value = parseFloat(e.attributes.width.value) * ratio;
			}
		}

		if (e.childNodes == undefined) return;
		for (var i = 0, c = e.childNodes; i < c.length; i++) {
			zoom_child(c[i], x - 10, ratio);
		}
	}
	function zoom_parent(e) {
		if (e.attributes) {
			if (e.attributes.x != undefined) {
				orig_save(e, "x");
				e.attributes.x.value = 10;
			}
			if (e.attributes.width != undefined) {
				orig_save(e, "width");
				e.attributes.width.value = parseInt(svg.width.baseVal.value) - (10 * 2);
			}
		}
		if (e.childNodes == undefined) return;
		for (var i = 0, c = e.childNodes; i < c.length; i++) {
			zoom_parent(c[i]);
		}
	}
	function zoom(node) {
		var attr = find_child(node, "rect").attributes;
		var width = parseFloat(attr.width.value);
		var xmin = parseFloat(attr.x.value);
		var xmax = parseFloat(xmin + width);
		var ymin = parseFloat(attr.y.value);
		var ratio = (svg.width.baseVal.value - 2 * 10) / width;

		// XXX: Workaround for JavaScript float issues (fix me)
		var fudge = 0.0001;

		unzoombtn.classList.remove("hide");

		var el = document.getElementById("frames").children;
		for (var i = 0; i < el.length; i++) {
			var e = el[i];
			var a = find_child(e, "rect").attributes;
			var ex = parseFloat(a.x.value);
			var ew = parseFloat(a.width.value);
			var upstack;
			// Is it an ancestor
			if (1 == 0) {
				upstack = parseFloat(a.y.value) > ymin;
			} else {
				upstack = parseFloat(a.y.value) < ymin;
			}
			if (upstack) {
				// Direct ancestor
				if (ex <= xmin && (ex+ew+fudge) >= xmax) {
					e.classList.add("parent");
					zoom_parent(e);
					update_text(e);
				}
				// not in current path
				else
					e.classList.add("hide");
			}
			// Children maybe
			else {
				// no common path
				if (ex < xmin || ex + fudge >= xmax) {
					e.classList.add("hide");
				}
				else {
					zoom_child(e, xmin, ratio);
					update_text(e);
				}
			}
		}
		search();
	}
	function unzoom() {
		unzoombtn.classList.add("hide");
		var el = document.getElementById("frames").children;
		for(var i = 0; i < el.length; i++) {
			el[i].classList.remove("parent");
			el[i].classList.remove("hide");
			zoom_reset(el[i]);
			update_text(el[i]);
		}
		search();
	}
	function clearzoom() {
		unzoom();

		// remove zoom state
		var params = get_params();
		if (params.x) delete params.x;
		if (params.y) delete params.y;
		history.replaceState(null, null, parse_params(params));
	}

	// search
	function toggle_ignorecase() {
		ignorecase = !ignorecase;
		if (ignorecase) {
			ignorecaseBtn.classList.add("show");
		} else {
			ignorecaseBtn.classList.remove("show");
		}
		reset_search();
		search();
	}
	function reset_search() {
		var el = document.querySelectorAll("#frames rect");
		for (var i = 0; i < el.length; i++) {
			orig_load(el[i], "fill")
		}
		var params = get_params();
		delete params.s;
		history.replaceState(null, null, parse_params(params));
	}
	function search_prompt() {
		if (!searching) {
			var term = prompt("Enter a search term (regexp " +
			    "allowed, eg: ^ext4_)"
			    + (ignorecase ? ", ignoring case" : "")
			    + "\nPress Ctrl-i to toggle case sensitivity", "");
			if (term != null) search(term);
		} else {
			reset_search();
			searching = 0;
			currentSearchTerm = null;
			searchbtn.classList.remove("show");
			searchbtn.firstChild.nodeValue = "Search"
			matchedtxt.classList.add("hide");
			matchedtxt.firstChild.nodeValue = ""
		}
	}
	function search(term) {
		if (term) currentSearchTerm = term;

		var re = new RegExp(currentSearchTerm, ignorecase ? 'i' : '');
		var el = document.getElementById("frames").children;
		var matches = new Object();
		var maxwidth = 0;
		for (var i = 0; i < el.length; i++) {
			var e = el[i];
			var func = g_to_func(e);
			var rect = find_child(e, "rect");
			if (func == null || rect == null)
				continue;

			// Save max width. Only works as we have a root frame
			var w = parseFloat(rect.attributes.width.value);
			if (w > maxwidth)
				maxwidth = w;

			if (func.match(re)) {
				// highlight
				var x = parseFloat(rect.attributes.x.value);
				orig_save(rect, "fill");
				rect.attributes.fill.value = "rgb(230,0,230)";

				// remember matches
				if (matches[x] == undefined) {
					matches[x] = w;
				} else {
					if (w > matches[x]) {
						// overwrite with parent
						matches[x] = w;
					}
				}
				searching = 1;
			}
		}
		if (!searching)
			return;
		var params = get_params();
		params.s = currentSearchTerm;
		history.replaceState(null, null, parse_params(params));

		searchbtn.classList.add("show");
		searchbtn.firstChild.nodeValue = "Reset Search";

		// calculate percent matched, excluding vertical overlap
		var count = 0;
		var lastx = -1;
		var lastw = 0;
		var keys = Array();
		for (k in matches) {
			if (matches.hasOwnProperty(k))
				keys.push(k);
		}
		// sort the matched frames by their x location
		// ascending, then width descending
		keys.sort(function(a, b){
			return a - b;
		});
		// Step through frames saving only the biggest bottom-up frames
		// thanks to the sort order. This relies on the tree property
		// where children are always smaller than their parents.
		var fudge = 0.0001;	// JavaScript floating point
		for (var k in keys) {
			var x = parseFloat(keys[k]);
			var w = matches[keys[k]];
			if (x >= lastx + lastw - fudge) {
				count += w;
				lastx = x;
				lastw = w;
			}
		}
		// display matched percent
		matchedtxt.classList.remove("hide");
		var pct = 100 * count / maxwidth;
		if (pct != 100) pct = pct.toFixed(1)
		matchedtxt.firstChild.nodeValue = "Matched: " + pct + "%";
	}
]]>
</script>
<rect x="0.0" y="0" width="1200.0" height="299.0" fill="url(#background)"  />
<text id="title" x="600.00" y="26" >Firedrake example</text>
<text id="details" x="10.00" y="281" > </text>
<text id="unzoom" x="10.00" y="26" class="hide">Reset Zoom</text>
<text id="search" x="1090.00" y="26" >Search</text>
<text id="ignorecase" x="1174.00" y="26" >ic</text>
<text id="matched" x="1090.00" y="281" > </text>
<g id="frames">
<g >
<title>MatAssemblyEnd (39,963 us, 0.02%)</title><rect x="830.7" y="135" width="0.3" height="15.0" fill="rgb(0,0,0)" rx="2" ry="2" />
<text  x="833.69" y="145.5" ></text>
</g>
<g >
<title>KSPSolve_FS_Low (45,831,380 us, 24.97%)</title><rect x="456.7" y="135" width="294.6" height="15.0" fill="rgb(0,0,0)" rx="2" ry="2" />
<text  x="459.68" y="145.5" >KSPSolve_FS_Low</text>
</g>
<g >
<title>ParLoopExecute (35,769,662 us, 19.49%)</title><rect x="949.1" y="119" width="229.9" height="15.0" fill="rgb(0,0,0)" rx="2" ry="2" />
<text  x="952.06" y="129.5" >ParLoopExecute</text>
</g>
<g >
<title>MatZeroEntries (219,060 us, 0.12%)</title><rect x="947.6" y="119" width="1.5" height="15.0" fill="rgb(0,0,0)" rx="2" ry="2" />
<text  x="950.65" y="129.5" ></text>
</g>
<g >
<title>PCApply (1,461,762 us, 0.80%)</title><rect x="751.3" y="199" width="9.4" height="15.0" fill="rgb(0,0,0)" rx="2" ry="2" />
<text  x="754.34" y="209.5" ></text>
</g>
<g >
<title>PCApply (13,164,626 us, 7.17%)</title><rect x="352.1" y="231" width="84.6" height="15.0" fill="rgb(0,0,0)" rx="2" ry="2" />
<text  x="355.09" y="241.5" >PCApply</text>
</g>
<g >
<title>KSPSolve (974,557 us, 0.53%)</title><rect x="745.1" y="215" width="6.2" height="15.0" fill="rgb(0,0,0)" rx="2" ry="2" />
<text  x="748.07" y="225.5" ></text>
</g>
<g >
<title>  MIS/Agg (45,248 us, 0.02%)</title><rect x="655.7" y="199" width="0.2" height="15.0" fill="rgb(0,0,0)" rx="2" ry="2" />
<text  x="658.65" y="209.5" ></text>
</g>
<g >
<title>MatAssemblyEnd (39,318 us, 0.02%)</title><rect x="865.3" y="135" width="0.3" height="15.0" fill="rgb(0,0,0)" rx="2" ry="2" />
<text  x="868.32" y="145.5" ></text>
</g>
<g >
<title>KSPSolve (1,364,808 us, 0.74%)</title><rect x="719.7" y="199" width="8.8" height="15.0" fill="rgb(0,0,0)" rx="2" ry="2" />
<text  x="722.70" y="209.5" ></text>
</g>
<g >
<title>PCGAMG Gal l01 (55,650 us, 0.03%)</title><rect x="737.2" y="183" width="0.3" height="15.0" fill="rgb(0,0,0)" rx="2" ry="2" />
<text  x="740.16" y="193.5" ></text>
</g>
<g >
<title>all (183,539,561 us, 100%)</title><rect x="10.0" y="39" width="1180.0" height="15.0" fill="rgb(0,0,0)" rx="2" ry="2" />
<text  x="13.00" y="49.5" ></text>
</g>
<g >
<title>VecSet (35,343 us, 0.02%)</title><rect x="436.7" y="231" width="0.3" height="15.0" fill="rgb(0,0,0)" rx="2" ry="2" />
<text  x="439.72" y="241.5" ></text>
</g>
<g >
<title>ParLoopExecute (7,608,093 us, 4.15%)</title><rect x="890.5" y="119" width="48.9" height="15.0" fill="rgb(0,0,0)" rx="2" ry="2" />
<text  x="893.46" y="129.5" >ParL..</text>
</g>
<g >
<title>MatMultTranspose (27,273 us, 0.01%)</title><rect x="636.5" y="183" width="0.1" height="15.0" fill="rgb(0,0,0)" rx="2" ry="2" />
<text  x="639.46" y="193.5" ></text>
</g>
<g >
<title>firedrake.solving_utils._SNESContext.split (19,308 us, 0.01%)</title><rect x="890.3" y="135" width="0.2" height="15.0" fill="rgb(0,0,0)" rx="2" ry="2" />
<text  x="893.34" y="145.5" ></text>
</g>
<g >
<title>Parloop_Cells_wrap_pyop2_kernel_uniform_extrusion (875,357 us, 0.48%)</title><rect x="16.1" y="119" width="5.6" height="15.0" fill="rgb(0,0,0)" rx="2" ry="2" />
<text  x="19.08" y="129.5" ></text>
</g>
<g >
<title>VecMAXPY (38,911 us, 0.02%)</title><rect x="227.4" y="135" width="0.3" height="15.0" fill="rgb(0,0,0)" rx="2" ry="2" />
<text  x="230.44" y="145.5" ></text>
</g>
<g >
<title>pyop2.global_kernel.GlobalKernel.compile (7,839,603 us, 4.27%)</title><rect x="1128.6" y="151" width="50.4" height="15.0" fill="rgb(0,0,0)" rx="2" ry="2" />
<text  x="1131.62" y="161.5" >pyop..</text>
</g>
<g >
<title>PCGAMG Opt l00 (606,728 us, 0.33%)</title><rect x="715.8" y="215" width="3.9" height="15.0" fill="rgb(0,0,0)" rx="2" ry="2" />
<text  x="718.80" y="225.5" ></text>
</g>
<g >
<title>Log_Event_form10_cell_integral_otherwise (233,229 us, 0.13%)</title><rect x="1127.1" y="151" width="1.5" height="15.0" fill="rgb(0,0,0)" rx="2" ry="2" />
<text  x="1130.12" y="161.5" ></text>
</g>
<g >
<title>MatTrnMatMultSym (5,947,008 us, 3.24%)</title><rect x="655.9" y="215" width="38.3" height="15.0" fill="rgb(0,0,0)" rx="2" ry="2" />
<text  x="658.94" y="225.5" >Ma..</text>
</g>
<g >
<title>pyop2.global_kernel.GlobalKernel.compile (875,357 us, 0.48%)</title><rect x="16.1" y="135" width="5.6" height="15.0" fill="rgb(0,0,0)" rx="2" ry="2" />
<text  x="19.08" y="145.5" ></text>
</g>
<g >
<title>firedrake.variational_solver.NonlinearVariationalSolver.solve (149,752,946 us, 81.59%)</title><rect x="227.2" y="71" width="962.8" height="15.0" fill="rgb(0,0,0)" rx="2" ry="2" />
<text  x="230.22" y="81.5" >firedrake.variational_solver.NonlinearVariationalSolver.solve</text>
</g>
<g >
<title>VecAXPBYCZ (33,339 us, 0.02%)</title><rect x="437.0" y="199" width="0.2" height="15.0" fill="rgb(0,0,0)" rx="2" ry="2" />
<text  x="439.95" y="209.5" ></text>
</g>
<g >
<title>MatSOR (13,151,467 us, 7.17%)</title><rect x="551.1" y="247" width="84.5" height="15.0" fill="rgb(0,0,0)" rx="2" ry="2" />
<text  x="554.07" y="257.5" >MatSOR</text>
</g>
<g >
<title>Log_Event_form0_cell_integral_otherwise (20,681 us, 0.01%)</title><rect x="890.5" y="151" width="0.1" height="15.0" fill="rgb(0,0,0)" rx="2" ry="2" />
<text  x="893.46" y="161.5" ></text>
</g>
<g >
<title>pyop2.global_kernel.GlobalKernel.compile (7,852,864 us, 4.28%)</title><rect x="1069.9" y="151" width="50.4" height="15.0" fill="rgb(0,0,0)" rx="2" ry="2" />
<text  x="1072.86" y="161.5" >pyop..</text>
</g>
<g >
<title>MatPtAPNumeric (30,895 us, 0.02%)</title><rect x="737.2" y="199" width="0.2" height="15.0" fill="rgb(0,0,0)" rx="2" ry="2" />
<text  x="740.16" y="209.5" ></text>
</g>
<g >
<title>Log_Event_form01_cell_integral_otherwise (208,771 us, 0.11%)</title><rect x="1068.5" y="151" width="1.4" height="15.0" fill="rgb(0,0,0)" rx="2" ry="2" />
<text  x="1071.52" y="161.5" ></text>
</g>
<g >
<title>MatConvert (125,952 us, 0.07%)</title><rect x="831.0" y="119" width="0.8" height="15.0" fill="rgb(0,0,0)" rx="2" ry="2" />
<text  x="833.95" y="129.5" ></text>
</g>
<g >
<title>MatMult (2,932,933 us, 1.60%)</title><rect x="636.6" y="199" width="18.9" height="15.0" fill="rgb(0,0,0)" rx="2" ry="2" />
<text  x="639.63" y="209.5" ></text>
</g>
<g >
<title>MatCoarsen (45,248 us, 0.02%)</title><rect x="655.7" y="215" width="0.2" height="15.0" fill="rgb(0,0,0)" rx="2" ry="2" />
<text  x="658.65" y="225.5" ></text>
</g>
<g >
<title>PCGAMGGraph_AGG (3,293,589 us, 1.79%)</title><rect x="694.2" y="183" width="21.2" height="15.0" fill="rgb(0,0,0)" rx="2" ry="2" />
<text  x="697.18" y="193.5" ></text>
</g>
<g >
<title>firedrake.functionspaceimpl.FunctionSpace.__init__ (24,998 us, 0.01%)</title><rect x="21.7" y="87" width="0.2" height="15.0" fill="rgb(0,0,0)" rx="2" ry="2" />
<text  x="24.70" y="97.5" ></text>
</g>
<g >
<title>MatMult (1,650,719 us, 0.90%)</title><rect x="812.2" y="135" width="10.6" height="15.0" fill="rgb(0,0,0)" rx="2" ry="2" />
<text  x="815.18" y="145.5" ></text>
</g>
<g >
<title>MatMult (14,682,144 us, 8.00%)</title><rect x="456.7" y="199" width="94.4" height="15.0" fill="rgb(0,0,0)" rx="2" ry="2" />
<text  x="459.68" y="209.5" >MatMult</text>
</g>
<g >
<title>VecAYPX (42,833 us, 0.02%)</title><rect x="437.2" y="199" width="0.2" height="15.0" fill="rgb(0,0,0)" rx="2" ry="2" />
<text  x="440.17" y="209.5" ></text>
</g>
<g >
<title>PCSetUp (8,001,390 us, 4.36%)</title><rect x="760.7" y="167" width="51.5" height="15.0" fill="rgb(0,0,0)" rx="2" ry="2" />
<text  x="763.73" y="177.5" >PCSe..</text>
</g>
<g >
<title>MatMatMultNum (3,478,253 us, 1.90%)</title><rect x="843.2" y="119" width="22.4" height="15.0" fill="rgb(0,0,0)" rx="2" ry="2" />
<text  x="846.21" y="129.5" ></text>
</g>
<g >
<title>CreateExtMesh (906,688 us, 0.49%)</title><rect x="15.9" y="71" width="5.8" height="15.0" fill="rgb(0,0,0)" rx="2" ry="2" />
<text  x="18.87" y="81.5" ></text>
</g>
<g >
<title>MatSOR (974,557 us, 0.53%)</title><rect x="745.1" y="247" width="6.2" height="15.0" fill="rgb(0,0,0)" rx="2" ry="2" />
<text  x="748.07" y="257.5" ></text>
</g>
<g >
<title>  SA: smooth (676,116 us, 0.37%)</title><rect x="715.4" y="199" width="4.3" height="15.0" fill="rgb(0,0,0)" rx="2" ry="2" />
<text  x="718.35" y="209.5" ></text>
</g>
<g >
<title>VecAXPBYCZ (32,051 us, 0.02%)</title><rect x="635.9" y="199" width="0.2" height="15.0" fill="rgb(0,0,0)" rx="2" ry="2" />
<text  x="638.85" y="209.5" ></text>
</g>
<g >
<title>KSPSolve (92,657,010 us, 50.48%)</title><rect x="227.2" y="103" width="595.7" height="15.0" fill="rgb(0,0,0)" rx="2" ry="2" />
<text  x="230.22" y="113.5" >KSPSolve</text>
</g>
<g >
<title>MatScale (224,149 us, 0.12%)</title><rect x="713.9" y="215" width="1.5" height="15.0" fill="rgb(0,0,0)" rx="2" ry="2" />
<text  x="716.91" y="225.5" ></text>
</g>
<g >
<title>PCGAMG Squ l00 (5,947,008 us, 3.24%)</title><rect x="655.9" y="199" width="38.3" height="15.0" fill="rgb(0,0,0)" rx="2" ry="2" />
<text  x="658.94" y="209.5" >PC..</text>
</g>
<g >
<title>MatMultAdd (20,027 us, 0.01%)</title><rect x="636.3" y="183" width="0.2" height="15.0" fill="rgb(0,0,0)" rx="2" ry="2" />
<text  x="639.33" y="193.5" ></text>
</g>
<g >
<title>KSPSolve_FS_0 (30,951,579 us, 16.86%)</title><rect x="257.7" y="135" width="199.0" height="15.0" fill="rgb(0,0,0)" rx="2" ry="2" />
<text  x="260.69" y="145.5" >KSPSolve_FS_0</text>
</g>
<g >
<title>PCSetUp (14,908,358 us, 8.12%)</title><rect x="655.5" y="151" width="95.8" height="15.0" fill="rgb(0,0,0)" rx="2" ry="2" />
<text  x="658.49" y="161.5" >PCSetUp</text>
</g>
<g >
<title>MatPtAPSymbolic (24,755 us, 0.01%)</title><rect x="737.4" y="199" width="0.1" height="15.0" fill="rgb(0,0,0)" rx="2" ry="2" />
<text  x="740.36" y="209.5" ></text>
</g>
<g >
<title>MatResidual (2,932,933 us, 1.60%)</title><rect x="636.6" y="183" width="18.9" height="15.0" fill="rgb(0,0,0)" rx="2" ry="2" />
<text  x="639.63" y="193.5" ></text>
</g>
<g >
<title>KSPSolve (27,942,789 us, 15.22%)</title><rect x="456.7" y="183" width="179.6" height="15.0" fill="rgb(0,0,0)" rx="2" ry="2" />
<text  x="459.68" y="193.5" >KSPSolve</text>
</g>
<g >
<title>PCApply (13,186,551 us, 7.18%)</title><rect x="551.1" y="199" width="84.8" height="15.0" fill="rgb(0,0,0)" rx="2" ry="2" />
<text  x="554.07" y="209.5" >PCApply</text>
</g>
<g >
<title>MatMatMultNum (323,956 us, 0.18%)</title><rect x="715.8" y="231" width="2.1" height="15.0" fill="rgb(0,0,0)" rx="2" ry="2" />
<text  x="718.80" y="241.5" ></text>
</g>
<g >
<title>MatMult (4,610,812 us, 2.51%)</title><rect x="228.0" y="119" width="29.7" height="15.0" fill="rgb(0,0,0)" rx="2" ry="2" />
<text  x="231.05" y="129.5" >M..</text>
</g>
<g >
<title>MatMult (1,149,970 us, 0.63%)</title><rect x="737.7" y="199" width="7.4" height="15.0" fill="rgb(0,0,0)" rx="2" ry="2" />
<text  x="740.68" y="209.5" ></text>
</g>
<g >
<title>KSPSolve (30,923,022 us, 16.85%)</title><rect x="456.7" y="151" width="198.8" height="15.0" fill="rgb(0,0,0)" rx="2" ry="2" />
<text  x="459.68" y="161.5" >KSPSolve</text>
</g>
<g >
<title>PCGAMGPOpt_AGG (2,040,924 us, 1.11%)</title><rect x="715.4" y="183" width="13.1" height="15.0" fill="rgb(0,0,0)" rx="2" ry="2" />
<text  x="718.35" y="193.5" ></text>
</g>
<g >
<title>VecSet (35,084 us, 0.02%)</title><rect x="635.6" y="231" width="0.3" height="15.0" fill="rgb(0,0,0)" rx="2" ry="2" />
<text  x="638.63" y="241.5" ></text>
</g>
<g >
<title>KSPSolve (1,461,762 us, 0.80%)</title><rect x="751.3" y="183" width="9.4" height="15.0" fill="rgb(0,0,0)" rx="2" ry="2" />
<text  x="754.34" y="193.5" ></text>
</g>
<g >
<title>PCApply (13,151,467 us, 7.17%)</title><rect x="551.1" y="231" width="84.5" height="15.0" fill="rgb(0,0,0)" rx="2" ry="2" />
<text  x="554.07" y="241.5" >PCApply</text>
</g>
<g >
<title>KSPSolve (13,199,969 us, 7.19%)</title><rect x="352.1" y="215" width="84.9" height="15.0" fill="rgb(0,0,0)" rx="2" ry="2" />
<text  x="355.09" y="225.5" >KSPSolve</text>
</g>
<g >
<title>pyop2.global_kernel.GlobalKernel.compile (3,328,656 us, 1.81%)</title><rect x="918.0" y="151" width="21.4" height="15.0" fill="rgb(0,0,0)" rx="2" ry="2" />
<text  x="920.97" y="161.5" ></text>
</g>
<g >
<title>MatMult (14,682,965 us, 8.00%)</title><rect x="257.7" y="199" width="94.4" height="15.0" fill="rgb(0,0,0)" rx="2" ry="2" />
<text  x="260.69" y="209.5" >MatMult</text>
</g>
<g >
<title>firedrake (183,539,561 us, 100.00%)</title><rect x="10.0" y="55" width="1180.0" height="15.0" fill="rgb(0,0,0)" rx="2" ry="2" />
<text  x="13.00" y="65.5" >firedrake</text>
</g>
<g >
<title>Parloop_Cells_wrap_form10_cell_integral_otherwise (9,127,163 us, 4.97%)</title><rect x="1120.3" y="135" width="58.7" height="15.0" fill="rgb(0,0,0)" rx="2" ry="2" />
<text  x="1123.35" y="145.5" >Parlo..</text>
</g>
<g >
<title>PCApply (59,696 us, 0.03%)</title><rect x="728.1" y="215" width="0.4" height="15.0" fill="rgb(0,0,0)" rx="2" ry="2" />
<text  x="731.09" y="225.5" ></text>
</g>
<g >
<title>PCSetUp (10,504,804 us, 5.72%)</title><rect x="822.9" y="103" width="67.6" height="15.0" fill="rgb(0,0,0)" rx="2" ry="2" />
<text  x="825.92" y="113.5" >PCSetUp</text>
</g>
<g >
<title>PCApply (974,557 us, 0.53%)</title><rect x="745.1" y="231" width="6.2" height="15.0" fill="rgb(0,0,0)" rx="2" ry="2" />
<text  x="748.07" y="241.5" ></text>
</g>
<g >
<title>MatZeroInitial (7,751,528 us, 4.22%)</title><rect x="177.4" y="103" width="49.8" height="15.0" fill="rgb(0,0,0)" rx="2" ry="2" />
<text  x="180.38" y="113.5" >MatZ..</text>
</g>
<g >
<title>firedrake.variational_solver.NonlinearVariationalProblem.__init__ (19,308 us, 0.01%)</title><rect x="890.3" y="151" width="0.2" height="15.0" fill="rgb(0,0,0)" rx="2" ry="2" />
<text  x="893.34" y="161.5" ></text>
</g>
<g >
<title>PCApply (87,917,613 us, 47.90%)</title><rect x="257.7" y="119" width="565.2" height="15.0" fill="rgb(0,0,0)" rx="2" ry="2" />
<text  x="260.69" y="129.5" >PCApply</text>
</g>
<g >
<title>VecMDot (54,966 us, 0.03%)</title><rect x="227.7" y="135" width="0.3" height="15.0" fill="rgb(0,0,0)" rx="2" ry="2" />
<text  x="230.69" y="145.5" ></text>
</g>
<g >
<title>PCApply (1,461,762 us, 0.80%)</title><rect x="751.3" y="167" width="9.4" height="15.0" fill="rgb(0,0,0)" rx="2" ry="2" />
<text  x="754.34" y="177.5" ></text>
</g>
<g >
<title>firedrake.assemble.allocate_matrix (30,407,370 us, 16.57%)</title><rect x="31.7" y="87" width="195.5" height="15.0" fill="rgb(0,0,0)" rx="2" ry="2" />
<text  x="34.73" y="97.5" >firedrake.assemble.allo..</text>
</g>
<g >
<title>pyop2.global_kernel.GlobalKernel.compile (15,502,461 us, 8.45%)</title><rect x="963.2" y="151" width="99.6" height="15.0" fill="rgb(0,0,0)" rx="2" ry="2" />
<text  x="966.16" y="161.5" >pyop2.glob..</text>
</g>
<g >
<title>firedrake.ufl_expr.adjoint (19,308 us, 0.01%)</title><rect x="890.3" y="167" width="0.2" height="15.0" fill="rgb(0,0,0)" rx="2" ry="2" />
<text  x="893.34" y="177.5" ></text>
</g>
<g >
<title>MatSolve (1,461,762 us, 0.80%)</title><rect x="751.3" y="215" width="9.4" height="15.0" fill="rgb(0,0,0)" rx="2" ry="2" />
<text  x="754.34" y="225.5" ></text>
</g>
<g >
<title>VecAYPX (42,043 us, 0.02%)</title><rect x="636.1" y="199" width="0.2" height="15.0" fill="rgb(0,0,0)" rx="2" ry="2" />
<text  x="639.06" y="209.5" ></text>
</g>
<g >
<title>MatLUFactorNum (7,801,385 us, 4.25%)</title><rect x="762.0" y="183" width="50.2" height="15.0" fill="rgb(0,0,0)" rx="2" ry="2" />
<text  x="765.02" y="193.5" >MatL..</text>
</g>
<g >
<title>MatSOR (13,164,626 us, 7.17%)</title><rect x="352.1" y="247" width="84.6" height="15.0" fill="rgb(0,0,0)" rx="2" ry="2" />
<text  x="355.09" y="257.5" >MatSOR</text>
</g>
<g >
<title>SNESFunctionEval (8,895,299 us, 4.85%)</title><rect x="890.5" y="103" width="57.1" height="15.0" fill="rgb(0,0,0)" rx="2" ry="2" />
<text  x="893.46" y="113.5" >SNESF..</text>
</g>
<g >
<title>MatCreateSubMats (1,780,293 us, 0.97%)</title><rect x="831.8" y="119" width="11.4" height="15.0" fill="rgb(0,0,0)" rx="2" ry="2" />
<text  x="834.76" y="129.5" ></text>
</g>
<g >
<title>Parloop_Cells_wrap_form01_cell_integral_otherwise (8,946,272 us, 4.87%)</title><rect x="1062.8" y="135" width="57.5" height="15.0" fill="rgb(0,0,0)" rx="2" ry="2" />
<text  x="1065.83" y="145.5" >Parlo..</text>
</g>
<g >
<title>KSPGMRESOrthog (93,877 us, 0.05%)</title><rect x="227.4" y="119" width="0.6" height="15.0" fill="rgb(0,0,0)" rx="2" ry="2" />
<text  x="230.44" y="129.5" ></text>
</g>
<g >
<title>MatAssemblyEnd (30,118 us, 0.02%)</title><rect x="694.0" y="231" width="0.2" height="15.0" fill="rgb(0,0,0)" rx="2" ry="2" />
<text  x="696.98" y="241.5" ></text>
</g>
<g >
<title>Parloop_Cells_wrap_form1_cell_integral_otherwise (3,347,782 us, 1.82%)</title><rect x="917.8" y="135" width="21.6" height="15.0" fill="rgb(0,0,0)" rx="2" ry="2" />
<text  x="920.85" y="145.5" ></text>
</g>
<g >
<title>KSPSolve (13,186,551 us, 7.18%)</title><rect x="551.1" y="215" width="84.8" height="15.0" fill="rgb(0,0,0)" rx="2" ry="2" />
<text  x="554.07" y="225.5" >KSPSolve</text>
</g>
<g >
<title>pyop2.global_kernel.GlobalKernel.compile (4,239,630 us, 2.31%)</title><rect x="890.6" y="151" width="27.2" height="15.0" fill="rgb(0,0,0)" rx="2" ry="2" />
<text  x="893.59" y="161.5" >p..</text>
</g>
<g >
<title>MatPtAPNumeric (968,229 us, 0.53%)</title><rect x="728.5" y="199" width="6.2" height="15.0" fill="rgb(0,0,0)" rx="2" ry="2" />
<text  x="731.47" y="209.5" ></text>
</g>
<g >
<title>VecScatterBegin (20,783 us, 0.01%)</title><rect x="822.8" y="135" width="0.1" height="15.0" fill="rgb(0,0,0)" rx="2" ry="2" />
<text  x="825.79" y="145.5" ></text>
</g>
<g >
<title>KSPSolve_FS_Schu (9,463,152 us, 5.16%)</title><rect x="751.3" y="135" width="60.9" height="15.0" fill="rgb(0,0,0)" rx="2" ry="2" />
<text  x="754.34" y="145.5" >KSPSo..</text>
</g>
<g >
<title>MatResidual (2,938,864 us, 1.60%)</title><rect x="437.8" y="183" width="18.9" height="15.0" fill="rgb(0,0,0)" rx="2" ry="2" />
<text  x="440.79" y="193.5" ></text>
</g>
<g >
<title>PCApply (30,923,022 us, 16.85%)</title><rect x="456.7" y="167" width="198.8" height="15.0" fill="rgb(0,0,0)" rx="2" ry="2" />
<text  x="459.68" y="177.5" >PCApply</text>
</g>
<g >
<title>PCGAMG Gal l02 (24,981 us, 0.01%)</title><rect x="737.5" y="183" width="0.2" height="15.0" fill="rgb(0,0,0)" rx="2" ry="2" />
<text  x="740.52" y="193.5" ></text>
</g>
<g >
<title>KSPSolve (2,124,527 us, 1.16%)</title><rect x="737.7" y="183" width="13.6" height="15.0" fill="rgb(0,0,0)" rx="2" ry="2" />
<text  x="740.68" y="193.5" ></text>
</g>
<g >
<title>PCApply (13,199,969 us, 7.19%)</title><rect x="352.1" y="199" width="84.9" height="15.0" fill="rgb(0,0,0)" rx="2" ry="2" />
<text  x="355.09" y="209.5" >PCApply</text>
</g>
<g >
<title>firedrake.__init__ (1,533,804 us, 0.84%)</title><rect x="21.9" y="71" width="9.8" height="15.0" fill="rgb(0,0,0)" rx="2" ry="2" />
<text  x="24.86" y="81.5" ></text>
</g>
<g >
<title>MatILUFactorSym (200,005 us, 0.11%)</title><rect x="760.7" y="183" width="1.3" height="15.0" fill="rgb(0,0,0)" rx="2" ry="2" />
<text  x="763.73" y="193.5" ></text>
</g>
<g >
<title>firedrake.tsfc_interface.compile_form (1,707,111 us, 0.93%)</title><rect x="1179.0" y="119" width="11.0" height="15.0" fill="rgb(0,0,0)" rx="2" ry="2" />
<text  x="1182.02" y="129.5" ></text>
</g>
<g >
<title>Parloop_Cells_wrap_form00_cell_integral_otherwise (17,696,227 us, 9.64%)</title><rect x="949.1" y="135" width="113.7" height="15.0" fill="rgb(0,0,0)" rx="2" ry="2" />
<text  x="952.06" y="145.5" >Parloop_Cell..</text>
</g>
<g >
<title>MatMultTranspose (33,175 us, 0.02%)</title><rect x="437.6" y="183" width="0.2" height="15.0" fill="rgb(0,0,0)" rx="2" ry="2" />
<text  x="440.57" y="193.5" ></text>
</g>
<g >
<title>  Graph (3,293,589 us, 1.79%)</title><rect x="694.2" y="199" width="21.2" height="15.0" fill="rgb(0,0,0)" rx="2" ry="2" />
<text  x="697.18" y="209.5" ></text>
</g>
<g >
<title>MatMatMultSym (3,781,118 us, 2.06%)</title><rect x="865.6" y="119" width="24.3" height="15.0" fill="rgb(0,0,0)" rx="2" ry="2" />
<text  x="868.57" y="129.5" >M..</text>
</g>
<g >
<title>MatPtAPSymbolic (382,650 us, 0.21%)</title><rect x="734.7" y="199" width="2.5" height="15.0" fill="rgb(0,0,0)" rx="2" ry="2" />
<text  x="737.70" y="209.5" ></text>
</g>
<g >
<title>MatMult (2,938,864 us, 1.60%)</title><rect x="437.8" y="199" width="18.9" height="15.0" fill="rgb(0,0,0)" rx="2" ry="2" />
<text  x="440.79" y="209.5" ></text>
</g>
<g >
<title>KSPSolve (1,461,762 us, 0.80%)</title><rect x="751.3" y="151" width="9.4" height="15.0" fill="rgb(0,0,0)" rx="2" ry="2" />
<text  x="754.34" y="161.5" ></text>
</g>
<g >
<title>SNESSolve (149,752,946 us, 81.59%)</title><rect x="227.2" y="87" width="962.8" height="15.0" fill="rgb(0,0,0)" rx="2" ry="2" />
<text  x="230.22" y="97.5" >SNESSolve</text>
</g>
<g >
<title>MatMultAdd (20,434 us, 0.01%)</title><rect x="437.4" y="183" width="0.2" height="15.0" fill="rgb(0,0,0)" rx="2" ry="2" />
<text  x="440.44" y="193.5" ></text>
</g>
<g >
<title>PCGAMGCoarse_AGG (6,017,808 us, 3.28%)</title><rect x="655.5" y="183" width="38.7" height="15.0" fill="rgb(0,0,0)" rx="2" ry="2" />
<text  x="658.49" y="193.5" >PCG..</text>
</g>
<g >
<title>firedrake.dmhooks.create_field_decomposition (19,308 us, 0.01%)</title><rect x="890.3" y="119" width="0.2" height="15.0" fill="rgb(0,0,0)" rx="2" ry="2" />
<text  x="893.34" y="129.5" ></text>
</g>
<g >
<title>PCApply (30,951,579 us, 16.86%)</title><rect x="257.7" y="167" width="199.0" height="15.0" fill="rgb(0,0,0)" rx="2" ry="2" />
<text  x="260.69" y="177.5" >PCApply</text>
</g>
<g >
<title>MatScale (71,204 us, 0.04%)</title><rect x="889.9" y="119" width="0.4" height="15.0" fill="rgb(0,0,0)" rx="2" ry="2" />
<text  x="892.88" y="129.5" ></text>
</g>
<g >
<title>GAMG: partLevel (1,431,510 us, 0.78%)</title><rect x="728.5" y="167" width="9.2" height="15.0" fill="rgb(0,0,0)" rx="2" ry="2" />
<text  x="731.47" y="177.5" ></text>
</g>
<g >
<title>firedrake.functionspacedata.FunctionSpaceData.__init__ (24,998 us, 0.01%)</title><rect x="21.7" y="119" width="0.2" height="15.0" fill="rgb(0,0,0)" rx="2" ry="2" />
<text  x="24.70" y="129.5" ></text>
</g>
<g >
<title>MatMult (1,281,365 us, 0.70%)</title><rect x="719.9" y="215" width="8.2" height="15.0" fill="rgb(0,0,0)" rx="2" ry="2" />
<text  x="722.85" y="225.5" ></text>
</g>
<g >
<title>MatMatMultSym (282,772 us, 0.15%)</title><rect x="717.9" y="231" width="1.8" height="15.0" fill="rgb(0,0,0)" rx="2" ry="2" />
<text  x="720.88" y="241.5" ></text>
</g>
<g >
<title>PCApply (974,557 us, 0.53%)</title><rect x="745.1" y="199" width="6.2" height="15.0" fill="rgb(0,0,0)" rx="2" ry="2" />
<text  x="748.07" y="209.5" ></text>
</g>
<g >
<title>KSPSetUp (2,124,527 us, 1.16%)</title><rect x="737.7" y="167" width="13.6" height="15.0" fill="rgb(0,0,0)" rx="2" ry="2" />
<text  x="740.68" y="177.5" ></text>
</g>
<g >
<title>firedrake.extrusion_utils.make_extruded_coords (906,688 us, 0.49%)</title><rect x="15.9" y="87" width="5.8" height="15.0" fill="rgb(0,0,0)" rx="2" ry="2" />
<text  x="18.87" y="97.5" ></text>
</g>
<g >
<title>Parloop_Cells_wrap_form0_cell_integral_otherwise (4,260,311 us, 2.32%)</title><rect x="890.5" y="135" width="27.3" height="15.0" fill="rgb(0,0,0)" rx="2" ry="2" />
<text  x="893.46" y="145.5" >P..</text>
</g>
<g >
<title>PCSetUpOnBlocks (8,001,390 us, 4.36%)</title><rect x="760.7" y="151" width="51.5" height="15.0" fill="rgb(0,0,0)" rx="2" ry="2" />
<text  x="763.73" y="161.5" >PCSe..</text>
</g>
<g >
<title>MatAXPY (1,185,646 us, 0.65%)</title><rect x="823.3" y="119" width="7.7" height="15.0" fill="rgb(0,0,0)" rx="2" ry="2" />
<text  x="826.33" y="129.5" ></text>
</g>
<g >
<title>MatConvert (449,574 us, 0.24%)</title><rect x="711.0" y="215" width="2.9" height="15.0" fill="rgb(0,0,0)" rx="2" ry="2" />
<text  x="714.02" y="225.5" ></text>
</g>
<g >
<title>firedrake.variational_solver.NonlinearVariationalSolver.__init__ (30,407,370 us, 16.57%)</title><rect x="31.7" y="71" width="195.5" height="15.0" fill="rgb(0,0,0)" rx="2" ry="2" />
<text  x="34.73" y="81.5" >firedrake.variational_s..</text>
</g>
<g >
<title>PCGAMG Gal l00 (1,350,879 us, 0.74%)</title><rect x="728.5" y="183" width="8.7" height="15.0" fill="rgb(0,0,0)" rx="2" ry="2" />
<text  x="731.47" y="193.5" ></text>
</g>
<g >
<title>MatAssemblyEnd (127,391 us, 0.07%)</title><rect x="710.2" y="215" width="0.8" height="15.0" fill="rgb(0,0,0)" rx="2" ry="2" />
<text  x="713.20" y="225.5" ></text>
</g>
<g >
<title>Log_Event_form00_cell_integral_otherwise (491,562 us, 0.27%)</title><rect x="960.0" y="151" width="3.2" height="15.0" fill="rgb(0,0,0)" rx="2" ry="2" />
<text  x="963.00" y="161.5" ></text>
</g>
<g >
<title>CreateSparsity (22,525,507 us, 12.27%)</title><rect x="31.7" y="103" width="144.8" height="15.0" fill="rgb(0,0,0)" rx="2" ry="2" />
<text  x="34.73" y="113.5" >CreateSparsity</text>
</g>
<g >
<title>ParLoopExecute (875,357 us, 0.48%)</title><rect x="16.1" y="103" width="5.6" height="15.0" fill="rgb(0,0,0)" rx="2" ry="2" />
<text  x="19.08" y="113.5" ></text>
</g>
<g >
<title>KSPSolve (27,959,106 us, 15.23%)</title><rect x="257.7" y="183" width="179.7" height="15.0" fill="rgb(0,0,0)" rx="2" ry="2" />
<text  x="260.69" y="193.5" >KSPSolve</text>
</g>
<g >
<title>GAMG: createProl (11,352,321 us, 6.19%)</title><rect x="655.5" y="167" width="73.0" height="15.0" fill="rgb(0,0,0)" rx="2" ry="2" />
<text  x="658.49" y="177.5" >GAMG: c..</text>
</g>
<g >
<title>firedrake.functionspacedata.get_shared_data (24,998 us, 0.01%)</title><rect x="21.7" y="103" width="0.2" height="15.0" fill="rgb(0,0,0)" rx="2" ry="2" />
<text  x="24.70" y="113.5" ></text>
</g>
<g >
<title>KSPSolve (30,951,579 us, 16.86%)</title><rect x="257.7" y="151" width="199.0" height="15.0" fill="rgb(0,0,0)" rx="2" ry="2" />
<text  x="260.69" y="161.5" >KSPSolve</text>
</g>
<g >
<title>SNESJacobianEval (37,695,833 us, 20.54%)</title><rect x="947.6" y="103" width="242.4" height="15.0" fill="rgb(0,0,0)" rx="2" ry="2" />
<text  x="950.65" y="113.5" >SNESJacobianEval</text>
</g>
<g >
<title>CreateFunctionSpace (24,998 us, 0.01%)</title><rect x="21.7" y="71" width="0.2" height="15.0" fill="rgb(0,0,0)" rx="2" ry="2" />
<text  x="24.70" y="81.5" ></text>
</g>
<g >
<title>firedrake.tsfc_interface.compile_form (1,287,206 us, 0.70%)</title><rect x="939.4" y="119" width="8.2" height="15.0" fill="rgb(0,0,0)" rx="2" ry="2" />
<text  x="942.37" y="129.5" ></text>
</g>
<g >
<title>MatAssemblyEnd (143,891 us, 0.08%)</title><rect x="842.3" y="135" width="0.9" height="15.0" fill="rgb(0,0,0)" rx="2" ry="2" />
<text  x="845.28" y="145.5" ></text>
</g>
<g >
<title>MatAssemblyEnd (130,335 us, 0.07%)</title><rect x="176.5" y="103" width="0.9" height="15.0" fill="rgb(0,0,0)" rx="2" ry="2" />
<text  x="179.55" y="113.5" ></text>
</g>
</g>
</svg>
