<?xml version="1.0" standalone="no"?>
<!DOCTYPE svg PUBLIC "-//W3C//DTD SVG 1.1//EN" "http://www.w3.org/Graphics/SVG/1.1/DTD/svg11.dtd">
<svg version="1.1" width="1200" height="331" onload="init(evt)" viewBox="0 0 1200 331" xmlns="http://www.w3.org/2000/svg" xmlns:xlink="http://www.w3.org/1999/xlink">
<!-- Flame graph stack visualization. See https://github.com/brendangregg/FlameGraph for latest version, and http://www.brendangregg.com/flamegraphs.html for examples. -->
<!-- NOTES:  -->
<defs>
	<linearGradient id="background" y1="0" y2="1" x1="0" x2="0" >
		<stop stop-color="#eeeeee" offset="5%" />
		<stop stop-color="#eeeeb0" offset="95%" />
	</linearGradient>
</defs>
<style type="text/css">
	text { font-family:Verdana; font-size:13px; fill:rgb(0,0,0); }
	#search, #ignorecase { opacity:0.1; cursor:pointer; }
	#search:hover, #search.show, #ignorecase:hover, #ignorecase.show { opacity:1; }
	#subtitle { text-anchor:middle; font-color:rgb(160,160,160); }
	#title { text-anchor:middle; font-size:18px}
	#unzoom { cursor:pointer; }
	#frames > *:hover { stroke:black; stroke-width:0.5; cursor:pointer; }
	.hide { display:none; }
	.parent { opacity:0.5; }
</style>
<script type="text/ecmascript">
<![CDATA[
	"use strict";
	var details, searchbtn, unzoombtn, matchedtxt, svg, searching, currentSearchTerm, ignorecase, ignorecaseBtn;
	function init(evt) {
		details = document.getElementById("details").firstChild;
		searchbtn = document.getElementById("search");
		ignorecaseBtn = document.getElementById("ignorecase");
		unzoombtn = document.getElementById("unzoom");
		matchedtxt = document.getElementById("matched");
		svg = document.getElementsByTagName("svg")[0];
		searching = 0;
		currentSearchTerm = null;

		// use GET parameters to restore a flamegraphs state.
		var params = get_params();
		if (params.x && params.y)
			zoom(find_group(document.querySelector('[x="' + params.x + '"][y="' + params.y + '"]')));
                if (params.s) search(params.s);
	}

	// event listeners
	window.addEventListener("click", function(e) {
		var target = find_group(e.target);
		if (target) {
			if (target.nodeName == "a") {
				if (e.ctrlKey === false) return;
				e.preventDefault();
			}
			if (target.classList.contains("parent")) unzoom();
			zoom(target);
			if (!document.querySelector('.parent')) {
				clearzoom();
				return;
			}

			// set parameters for zoom state
			var el = target.querySelector("rect");
			if (el && el.attributes && el.attributes.y && el.attributes._orig_x) {
				var params = get_params()
				params.x = el.attributes._orig_x.value;
				params.y = el.attributes.y.value;
				history.replaceState(null, null, parse_params(params));
			}
		}
		else if (e.target.id == "unzoom") clearzoom();
		else if (e.target.id == "search") search_prompt();
		else if (e.target.id == "ignorecase") toggle_ignorecase();
	}, false)

	// mouse-over for info
	// show
	window.addEventListener("mouseover", function(e) {
		var target = find_group(e.target);
		if (target) details.nodeValue = "Function: " + g_to_text(target);
	}, false)

	// clear
	window.addEventListener("mouseout", function(e) {
		var target = find_group(e.target);
		if (target) details.nodeValue = ' ';
	}, false)

	// ctrl-F for search
	// ctrl-I to toggle case-sensitive search
	window.addEventListener("keydown",function (e) {
		if (e.keyCode === 114 || (e.ctrlKey && e.keyCode === 70)) {
			e.preventDefault();
			search_prompt();
		}
		else if (e.ctrlKey && e.keyCode === 73) {
			e.preventDefault();
			toggle_ignorecase();
		}
	}, false)

	// functions
	function get_params() {
		var params = {};
		var paramsarr = window.location.search.substr(1).split('&');
		for (var i = 0; i < paramsarr.length; ++i) {
			var tmp = paramsarr[i].split("=");
			if (!tmp[0] || !tmp[1]) continue;
			params[tmp[0]]  = decodeURIComponent(tmp[1]);
		}
		return params;
	}
	function parse_params(params) {
		var uri = "?";
		for (var key in params) {
			uri += key + '=' + encodeURIComponent(params[key]) + '&';
		}
		if (uri.slice(-1) == "&")
			uri = uri.substring(0, uri.length - 1);
		if (uri == '?')
			uri = window.location.href.split('?')[0];
		return uri;
	}
	function find_child(node, selector) {
		var children = node.querySelectorAll(selector);
		if (children.length) return children[0];
	}
	function find_group(node) {
		var parent = node.parentElement;
		if (!parent) return;
		if (parent.id == "frames") return node;
		return find_group(parent);
	}
	function orig_save(e, attr, val) {
		if (e.attributes["_orig_" + attr] != undefined) return;
		if (e.attributes[attr] == undefined) return;
		if (val == undefined) val = e.attributes[attr].value;
		e.setAttribute("_orig_" + attr, val);
	}
	function orig_load(e, attr) {
		if (e.attributes["_orig_"+attr] == undefined) return;
		e.attributes[attr].value = e.attributes["_orig_" + attr].value;
		e.removeAttribute("_orig_"+attr);
	}
	function g_to_text(e) {
		var text = find_child(e, "title").firstChild.nodeValue;
		return (text)
	}
	function g_to_func(e) {
		var func = g_to_text(e);
		// if there's any manipulation we want to do to the function
		// name before it's searched, do it here before returning.
		return (func);
	}
	function update_text(e) {
		var r = find_child(e, "rect");
		var t = find_child(e, "text");
		var w = parseFloat(r.attributes.width.value) -3;
		var txt = find_child(e, "title").textContent.replace(/\([^(]*\)$/,"");
		t.attributes.x.value = parseFloat(r.attributes.x.value) + 3;

		// Smaller than this size won't fit anything
		if (w < 2 * 13 * 0.59) {
			t.textContent = "";
			return;
		}

		t.textContent = txt;
		// Fit in full text width
		if (/^ *$/.test(txt) || t.getSubStringLength(0, txt.length) < w)
			return;

		for (var x = txt.length - 2; x > 0; x--) {
			if (t.getSubStringLength(0, x + 2) <= w) {
				t.textContent = txt.substring(0, x) + "..";
				return;
			}
		}
		t.textContent = "";
	}

	// zoom
	function zoom_reset(e) {
		if (e.attributes != undefined) {
			orig_load(e, "x");
			orig_load(e, "width");
		}
		if (e.childNodes == undefined) return;
		for (var i = 0, c = e.childNodes; i < c.length; i++) {
			zoom_reset(c[i]);
		}
	}
	function zoom_child(e, x, ratio) {
		if (e.attributes != undefined) {
			if (e.attributes.x != undefined) {
				orig_save(e, "x");
				e.attributes.x.value = (parseFloat(e.attributes.x.value) - x - 10) * ratio + 10;
				if (e.tagName == "text")
					e.attributes.x.value = find_child(e.parentNode, "rect[x]").attributes.x.value + 3;
			}
			if (e.attributes.width != undefined) {
				orig_save(e, "width");
				e.attributes.width.value = parseFloat(e.attributes.width.value) * ratio;
			}
		}

		if (e.childNodes == undefined) return;
		for (var i = 0, c = e.childNodes; i < c.length; i++) {
			zoom_child(c[i], x - 10, ratio);
		}
	}
	function zoom_parent(e) {
		if (e.attributes) {
			if (e.attributes.x != undefined) {
				orig_save(e, "x");
				e.attributes.x.value = 10;
			}
			if (e.attributes.width != undefined) {
				orig_save(e, "width");
				e.attributes.width.value = parseInt(svg.width.baseVal.value) - (10 * 2);
			}
		}
		if (e.childNodes == undefined) return;
		for (var i = 0, c = e.childNodes; i < c.length; i++) {
			zoom_parent(c[i]);
		}
	}
	function zoom(node) {
		var attr = find_child(node, "rect").attributes;
		var width = parseFloat(attr.width.value);
		var xmin = parseFloat(attr.x.value);
		var xmax = parseFloat(xmin + width);
		var ymin = parseFloat(attr.y.value);
		var ratio = (svg.width.baseVal.value - 2 * 10) / width;

		// XXX: Workaround for JavaScript float issues (fix me)
		var fudge = 0.0001;

		unzoombtn.classList.remove("hide");

		var el = document.getElementById("frames").children;
		for (var i = 0; i < el.length; i++) {
			var e = el[i];
			var a = find_child(e, "rect").attributes;
			var ex = parseFloat(a.x.value);
			var ew = parseFloat(a.width.value);
			var upstack;
			// Is it an ancestor
			if (1 == 0) {
				upstack = parseFloat(a.y.value) > ymin;
			} else {
				upstack = parseFloat(a.y.value) < ymin;
			}
			if (upstack) {
				// Direct ancestor
				if (ex <= xmin && (ex+ew+fudge) >= xmax) {
					e.classList.add("parent");
					zoom_parent(e);
					update_text(e);
				}
				// not in current path
				else
					e.classList.add("hide");
			}
			// Children maybe
			else {
				// no common path
				if (ex < xmin || ex + fudge >= xmax) {
					e.classList.add("hide");
				}
				else {
					zoom_child(e, xmin, ratio);
					update_text(e);
				}
			}
		}
		search();
	}
	function unzoom() {
		unzoombtn.classList.add("hide");
		var el = document.getElementById("frames").children;
		for(var i = 0; i < el.length; i++) {
			el[i].classList.remove("parent");
			el[i].classList.remove("hide");
			zoom_reset(el[i]);
			update_text(el[i]);
		}
		search();
	}
	function clearzoom() {
		unzoom();

		// remove zoom state
		var params = get_params();
		if (params.x) delete params.x;
		if (params.y) delete params.y;
		history.replaceState(null, null, parse_params(params));
	}

	// search
	function toggle_ignorecase() {
		ignorecase = !ignorecase;
		if (ignorecase) {
			ignorecaseBtn.classList.add("show");
		} else {
			ignorecaseBtn.classList.remove("show");
		}
		reset_search();
		search();
	}
	function reset_search() {
		var el = document.querySelectorAll("#frames rect");
		for (var i = 0; i < el.length; i++) {
			orig_load(el[i], "fill")
		}
		var params = get_params();
		delete params.s;
		history.replaceState(null, null, parse_params(params));
	}
	function search_prompt() {
		if (!searching) {
			var term = prompt("Enter a search term (regexp " +
			    "allowed, eg: ^ext4_)"
			    + (ignorecase ? ", ignoring case" : "")
			    + "\nPress Ctrl-i to toggle case sensitivity", "");
			if (term != null) search(term);
		} else {
			reset_search();
			searching = 0;
			currentSearchTerm = null;
			searchbtn.classList.remove("show");
			searchbtn.firstChild.nodeValue = "Search"
			matchedtxt.classList.add("hide");
			matchedtxt.firstChild.nodeValue = ""
		}
	}
	function search(term) {
		if (term) currentSearchTerm = term;

		var re = new RegExp(currentSearchTerm, ignorecase ? 'i' : '');
		var el = document.getElementById("frames").children;
		var matches = new Object();
		var maxwidth = 0;
		for (var i = 0; i < el.length; i++) {
			var e = el[i];
			var func = g_to_func(e);
			var rect = find_child(e, "rect");
			if (func == null || rect == null)
				continue;

			// Save max width. Only works as we have a root frame
			var w = parseFloat(rect.attributes.width.value);
			if (w > maxwidth)
				maxwidth = w;

			if (func.match(re)) {
				// highlight
				var x = parseFloat(rect.attributes.x.value);
				orig_save(rect, "fill");
				rect.attributes.fill.value = "rgb(230,0,230)";

				// remember matches
				if (matches[x] == undefined) {
					matches[x] = w;
				} else {
					if (w > matches[x]) {
						// overwrite with parent
						matches[x] = w;
					}
				}
				searching = 1;
			}
		}
		if (!searching)
			return;
		var params = get_params();
		params.s = currentSearchTerm;
		history.replaceState(null, null, parse_params(params));

		searchbtn.classList.add("show");
		searchbtn.firstChild.nodeValue = "Reset Search";

		// calculate percent matched, excluding vertical overlap
		var count = 0;
		var lastx = -1;
		var lastw = 0;
		var keys = Array();
		for (k in matches) {
			if (matches.hasOwnProperty(k))
				keys.push(k);
		}
		// sort the matched frames by their x location
		// ascending, then width descending
		keys.sort(function(a, b){
			return a - b;
		});
		// Step through frames saving only the biggest bottom-up frames
		// thanks to the sort order. This relies on the tree property
		// where children are always smaller than their parents.
		var fudge = 0.0001;	// JavaScript floating point
		for (var k in keys) {
			var x = parseFloat(keys[k]);
			var w = matches[keys[k]];
			if (x >= lastx + lastw - fudge) {
				count += w;
				lastx = x;
				lastw = w;
			}
		}
		// display matched percent
		matchedtxt.classList.remove("hide");
		var pct = 100 * count / maxwidth;
		if (pct != 100) pct = pct.toFixed(1)
		matchedtxt.firstChild.nodeValue = "Matched: " + pct + "%";
	}
]]>
</script>
<rect x="0.0" y="0" width="1200.0" height="331.0" fill="url(#background)"  />
<text id="title" x="600.00" y="26" >Firedrake example</text>
<text id="details" x="10.00" y="313" > </text>
<text id="unzoom" x="10.00" y="26" class="hide">Reset Zoom</text>
<text id="search" x="1090.00" y="26" >Search</text>
<text id="ignorecase" x="1174.00" y="26" >ic</text>
<text id="matched" x="1090.00" y="313" > </text>
<g id="frames">
<g >
<title>MatMult (10,617,459 us, 2.59%)</title><rect x="296.8" y="119" width="30.6" height="15.0" fill="rgb(0,0,0)" rx="2" ry="2" />
<text  x="299.82" y="129.5" >M..</text>
</g>
<g >
<title>Parloop_Cells_wrap_form00_cell_integral_otherwise (17,654,364 us, 4.31%)</title><rect x="1082.2" y="135" width="51.0" height="15.0" fill="rgb(0,0,0)" rx="2" ry="2" />
<text  x="1085.25" y="145.5" >Parl..</text>
</g>
<g >
<title>firedrake.tsfc_interface.compile_form (566,355 us, 0.14%)</title><rect x="146.5" y="119" width="1.6" height="15.0" fill="rgb(0,0,0)" rx="2" ry="2" />
<text  x="149.51" y="129.5" ></text>
</g>
<g >
<title>pyop2.global_kernel.GlobalKernel.compile (7,895,653 us, 1.93%)</title><rect x="1162.4" y="151" width="22.7" height="15.0" fill="rgb(0,0,0)" rx="2" ry="2" />
<text  x="1165.36" y="161.5" ></text>
</g>
<g >
<title>all (409,172,224 us, 100%)</title><rect x="10.0" y="39" width="1180.0" height="15.0" fill="rgb(0,0,0)" rx="2" ry="2" />
<text  x="13.00" y="49.5" ></text>
</g>
<g >
<title>firedrake.linear_solver.LinearSolver.solve (8,600,929 us, 2.10%)</title><rect x="148.1" y="103" width="24.9" height="15.0" fill="rgb(0,0,0)" rx="2" ry="2" />
<text  x="151.15" y="113.5" >f..</text>
</g>
<g >
<title>firedrake.function.Function.project (52,806,110 us, 12.91%)</title><rect x="21.9" y="71" width="152.3" height="15.0" fill="rgb(0,0,0)" rx="2" ry="2" />
<text  x="24.89" y="81.5" >firedrake.functio..</text>
</g>
<g >
<title>ParLoopExecute (35,675,820 us, 8.72%)</title><rect x="1082.2" y="119" width="102.9" height="15.0" fill="rgb(0,0,0)" rx="2" ry="2" />
<text  x="1085.25" y="129.5" >ParLoopExec..</text>
</g>
<g >
<title>pyop2.global_kernel.GlobalKernel.compile (17,517,095 us, 4.28%)</title><rect x="41.2" y="151" width="50.5" height="15.0" fill="rgb(0,0,0)" rx="2" ry="2" />
<text  x="44.16" y="161.5" >pyop..</text>
</g>
<g >
<title>VecSet (80,704 us, 0.02%)</title><rect x="707.3" y="231" width="0.2" height="15.0" fill="rgb(0,0,0)" rx="2" ry="2" />
<text  x="710.26" y="241.5" ></text>
</g>
<g >
<title>Parloop_Cells_wrap_form0_cell_integral_otherwise (4,519,165 us, 1.10%)</title><rect x="21.9" y="119" width="13.0" height="15.0" fill="rgb(0,0,0)" rx="2" ry="2" />
<text  x="24.89" y="129.5" ></text>
</g>
<g >
<title>KSPSolve (984,557 us, 0.24%)</title><rect x="148.1" y="119" width="2.9" height="15.0" fill="rgb(0,0,0)" rx="2" ry="2" />
<text  x="151.15" y="129.5" ></text>
</g>
<g >
<title>PCApply (69,378,905 us, 16.96%)</title><rect x="327.4" y="167" width="200.1" height="15.0" fill="rgb(0,0,0)" rx="2" ry="2" />
<text  x="330.44" y="177.5" >PCApply</text>
</g>
<g >
<title>PCGAMG Opt l00 (601,219 us, 0.15%)</title><rect x="754.2" y="215" width="1.7" height="15.0" fill="rgb(0,0,0)" rx="2" ry="2" />
<text  x="757.18" y="225.5" ></text>
</g>
<g >
<title>VecMDot (154,005 us, 0.04%)</title><rect x="296.4" y="135" width="0.4" height="15.0" fill="rgb(0,0,0)" rx="2" ry="2" />
<text  x="299.37" y="145.5" ></text>
</g>
<g >
<title>PCGAMGPOpt_AGG (1,998,099 us, 0.49%)</title><rect x="754.0" y="183" width="5.7" height="15.0" fill="rgb(0,0,0)" rx="2" ry="2" />
<text  x="756.98" y="193.5" ></text>
</g>
<g >
<title>KSPSetUp (2,097,534 us, 0.51%)</title><rect x="763.8" y="167" width="6.0" height="15.0" fill="rgb(0,0,0)" rx="2" ry="2" />
<text  x="766.79" y="177.5" ></text>
</g>
<g >
<title>pyop2.global_kernel.GlobalKernel.compile (15,571,378 us, 3.81%)</title><rect x="1088.3" y="151" width="44.9" height="15.0" fill="rgb(0,0,0)" rx="2" ry="2" />
<text  x="1091.25" y="161.5" >pyo..</text>
</g>
<g >
<title>KSPSolve_FS_Low (84,026,912 us, 20.54%)</title><rect x="527.5" y="135" width="242.3" height="15.0" fill="rgb(0,0,0)" rx="2" ry="2" />
<text  x="530.52" y="145.5" >KSPSolve_FS_Low</text>
</g>
<g >
<title>pyop2.global_kernel.GlobalKernel.compile (7,864,431 us, 1.92%)</title><rect x="1136.1" y="151" width="22.7" height="15.0" fill="rgb(0,0,0)" rx="2" ry="2" />
<text  x="1139.13" y="161.5" ></text>
</g>
<g >
<title>MatMult (1,137,475 us, 0.28%)</title><rect x="763.8" y="199" width="3.3" height="15.0" fill="rgb(0,0,0)" rx="2" ry="2" />
<text  x="766.79" y="209.5" ></text>
</g>
<g >
<title>VecAXPBYCZ (72,142 us, 0.02%)</title><rect x="707.5" y="199" width="0.2" height="15.0" fill="rgb(0,0,0)" rx="2" ry="2" />
<text  x="710.49" y="209.5" ></text>
</g>
<g >
<title>PCGAMG Squ l00 (5,921,743 us, 1.45%)</title><rect x="727.4" y="199" width="17.0" height="15.0" fill="rgb(0,0,0)" rx="2" ry="2" />
<text  x="730.36" y="209.5" ></text>
</g>
<g >
<title>VecSet (81,326 us, 0.02%)</title><rect x="507.5" y="231" width="0.2" height="15.0" fill="rgb(0,0,0)" rx="2" ry="2" />
<text  x="510.48" y="241.5" ></text>
</g>
<g >
<title>KSPSolve (29,535,757 us, 7.22%)</title><rect x="622.3" y="215" width="85.2" height="15.0" fill="rgb(0,0,0)" rx="2" ry="2" />
<text  x="625.32" y="225.5" >KSPSolve</text>
</g>
<g >
<title>MatAssemblyEnd (127,138 us, 0.03%)</title><rect x="751.7" y="215" width="0.3" height="15.0" fill="rgb(0,0,0)" rx="2" ry="2" />
<text  x="754.67" y="225.5" ></text>
</g>
<g >
<title>MatMult (3,697,092 us, 0.90%)</title><rect x="1014.1" y="135" width="10.7" height="15.0" fill="rgb(0,0,0)" rx="2" ry="2" />
<text  x="1017.15" y="145.5" ></text>
</g>
<g >
<title>MatICCFactorSym (95,201 us, 0.02%)</title><rect x="172.7" y="151" width="0.3" height="15.0" fill="rgb(0,0,0)" rx="2" ry="2" />
<text  x="175.68" y="161.5" ></text>
</g>
<g >
<title>MatConvert (125,544 us, 0.03%)</title><rect x="1028.7" y="119" width="0.3" height="15.0" fill="rgb(0,0,0)" rx="2" ry="2" />
<text  x="1031.66" y="129.5" ></text>
</g>
<g >
<title>firedrake.assemble.allocate_matrix (19,013,689 us, 4.65%)</title><rect x="91.7" y="119" width="54.8" height="15.0" fill="rgb(0,0,0)" rx="2" ry="2" />
<text  x="94.68" y="129.5" >fired..</text>
</g>
<g >
<title>Parloop_set_#x7f0ac2a7f820_wrap_expression_kernel (367,963 us, 0.09%)</title><rect x="20.8" y="135" width="1.1" height="15.0" fill="rgb(0,0,0)" rx="2" ry="2" />
<text  x="23.83" y="145.5" ></text>
</g>
<g >
<title>MatCoarsen (45,211 us, 0.01%)</title><rect x="727.2" y="215" width="0.2" height="15.0" fill="rgb(0,0,0)" rx="2" ry="2" />
<text  x="730.23" y="225.5" ></text>
</g>
<g >
<title>KSPSolve (29,532,906 us, 7.22%)</title><rect x="864.8" y="247" width="85.1" height="15.0" fill="rgb(0,0,0)" rx="2" ry="2" />
<text  x="867.77" y="257.5" >KSPSolve</text>
</g>
<g >
<title>VecAYPX (95,582 us, 0.02%)</title><rect x="507.9" y="199" width="0.3" height="15.0" fill="rgb(0,0,0)" rx="2" ry="2" />
<text  x="510.93" y="209.5" ></text>
</g>
<g >
<title>PCGAMGCoarse_AGG (5,966,954 us, 1.46%)</title><rect x="727.2" y="183" width="17.2" height="15.0" fill="rgb(0,0,0)" rx="2" ry="2" />
<text  x="730.23" y="193.5" ></text>
</g>
<g >
<title>CreateSparsity (23,513,445 us, 5.75%)</title><rect x="205.4" y="103" width="67.8" height="15.0" fill="rgb(0,0,0)" rx="2" ry="2" />
<text  x="208.44" y="113.5" >Create..</text>
</g>
<g >
<title>MatMultAdd (45,115 us, 0.01%)</title><rect x="950.4" y="215" width="0.2" height="15.0" fill="rgb(0,0,0)" rx="2" ry="2" />
<text  x="953.42" y="225.5" ></text>
</g>
<g >
<title>PCApply (69,309,192 us, 16.94%)</title><rect x="769.8" y="199" width="199.9" height="15.0" fill="rgb(0,0,0)" rx="2" ry="2" />
<text  x="772.84" y="209.5" >PCApply</text>
</g>
<g >
<title>pyop2.global_kernel.GlobalKernel.compile (4,519,165 us, 1.10%)</title><rect x="21.9" y="135" width="13.0" height="15.0" fill="rgb(0,0,0)" rx="2" ry="2" />
<text  x="24.89" y="145.5" ></text>
</g>
<g >
<title>firedrake.tsfc_interface.compile_form (1,309,511 us, 0.32%)</title><rect x="201.7" y="119" width="3.7" height="15.0" fill="rgb(0,0,0)" rx="2" ry="2" />
<text  x="204.66" y="129.5" ></text>
</g>
<g >
<title>MatResidual (6,581,558 us, 1.61%)</title><rect x="950.7" y="215" width="19.0" height="15.0" fill="rgb(0,0,0)" rx="2" ry="2" />
<text  x="953.74" y="225.5" ></text>
</g>
<g >
<title>PCApply (69,252,430 us, 16.93%)</title><rect x="527.5" y="167" width="199.7" height="15.0" fill="rgb(0,0,0)" rx="2" ry="2" />
<text  x="530.52" y="177.5" >PCApply</text>
</g>
<g >
<title>PCSetUp (14,774,482 us, 3.61%)</title><rect x="727.2" y="151" width="42.6" height="15.0" fill="rgb(0,0,0)" rx="2" ry="2" />
<text  x="730.23" y="161.5" >PCS..</text>
</g>
<g >
<title>MatMult (6,582,623 us, 1.61%)</title><rect x="508.5" y="199" width="19.0" height="15.0" fill="rgb(0,0,0)" rx="2" ry="2" />
<text  x="511.53" y="209.5" ></text>
</g>
<g >
<title>KSPSolve (69,252,430 us, 16.93%)</title><rect x="527.5" y="151" width="199.7" height="15.0" fill="rgb(0,0,0)" rx="2" ry="2" />
<text  x="530.52" y="161.5" >KSPSolve</text>
</g>
<g >
<title>KSPSolve (76,757,389 us, 18.76%)</title><rect x="769.8" y="151" width="221.4" height="15.0" fill="rgb(0,0,0)" rx="2" ry="2" />
<text  x="772.84" y="161.5" >KSPSolve</text>
</g>
<g >
<title>pyop2.global_kernel.GlobalKernel.compile (367,963 us, 0.09%)</title><rect x="20.8" y="151" width="1.1" height="15.0" fill="rgb(0,0,0)" rx="2" ry="2" />
<text  x="23.83" y="161.5" ></text>
</g>
<g >
<title>firedrake.assemble_expressions.evaluate_expression (753,587 us, 0.18%)</title><rect x="19.7" y="103" width="2.2" height="15.0" fill="rgb(0,0,0)" rx="2" ry="2" />
<text  x="22.72" y="113.5" ></text>
</g>
<g >
<title>firedrake.norms.errornorm (10,838,363 us, 2.65%)</title><rect x="174.2" y="71" width="31.2" height="15.0" fill="rgb(0,0,0)" rx="2" ry="2" />
<text  x="177.18" y="81.5" >fi..</text>
</g>
<g >
<title>firedrake.tsfc_interface.compile_form (426,121 us, 0.10%)</title><rect x="173.0" y="103" width="1.2" height="15.0" fill="rgb(0,0,0)" rx="2" ry="2" />
<text  x="175.95" y="113.5" ></text>
</g>
<g >
<title>  Graph (3,307,019 us, 0.81%)</title><rect x="744.4" y="199" width="9.6" height="15.0" fill="rgb(0,0,0)" rx="2" ry="2" />
<text  x="747.44" y="209.5" ></text>
</g>
<g >
<title>KSPSolve (62,680,966 us, 15.32%)</title><rect x="327.4" y="183" width="180.8" height="15.0" fill="rgb(0,0,0)" rx="2" ry="2" />
<text  x="330.44" y="193.5" >KSPSolve</text>
</g>
<g >
<title>firedrake.assemble_expressions.assemble_expression (753,587 us, 0.18%)</title><rect x="19.7" y="87" width="2.2" height="15.0" fill="rgb(0,0,0)" rx="2" ry="2" />
<text  x="22.72" y="97.5" ></text>
</g>
<g >
<title>MatMatMultNum (322,643 us, 0.08%)</title><rect x="754.2" y="231" width="0.9" height="15.0" fill="rgb(0,0,0)" rx="2" ry="2" />
<text  x="757.18" y="241.5" ></text>
</g>
<g >
<title>KSPSolve (29,590,957 us, 7.23%)</title><rect x="422.4" y="215" width="85.3" height="15.0" fill="rgb(0,0,0)" rx="2" ry="2" />
<text  x="425.38" y="225.5" >KSPSolve</text>
</g>
<g >
<title>KSPSolve (69,309,192 us, 16.94%)</title><rect x="769.8" y="183" width="199.9" height="15.0" fill="rgb(0,0,0)" rx="2" ry="2" />
<text  x="772.84" y="193.5" >KSPSolve</text>
</g>
<g >
<title>VecAXPBYCZ (72,979 us, 0.02%)</title><rect x="507.7" y="199" width="0.2" height="15.0" fill="rgb(0,0,0)" rx="2" ry="2" />
<text  x="510.72" y="209.5" ></text>
</g>
<g >
<title>MatPtAPNumeric (964,737 us, 0.24%)</title><rect x="759.7" y="199" width="2.8" height="15.0" fill="rgb(0,0,0)" rx="2" ry="2" />
<text  x="762.74" y="209.5" ></text>
</g>
<g >
<title>MatMultTranspose (64,332 us, 0.02%)</title><rect x="708.1" y="183" width="0.2" height="15.0" fill="rgb(0,0,0)" rx="2" ry="2" />
<text  x="711.11" y="193.5" ></text>
</g>
<g >
<title>pyop2.global_kernel.GlobalKernel.compile (3,396,005 us, 0.83%)</title><rect x="1067.9" y="151" width="9.8" height="15.0" fill="rgb(0,0,0)" rx="2" ry="2" />
<text  x="1070.87" y="161.5" ></text>
</g>
<g >
<title>SNESFunctionEval (9,154,120 us, 2.24%)</title><rect x="1055.2" y="103" width="26.4" height="15.0" fill="rgb(0,0,0)" rx="2" ry="2" />
<text  x="1058.22" y="113.5" >S..</text>
</g>
<g >
<title>VecMAXPY (104,607 us, 0.03%)</title><rect x="296.1" y="135" width="0.3" height="15.0" fill="rgb(0,0,0)" rx="2" ry="2" />
<text  x="299.07" y="145.5" ></text>
</g>
<g >
<title>MatMult (3,694,307 us, 0.90%)</title><rect x="969.7" y="183" width="10.7" height="15.0" fill="rgb(0,0,0)" rx="2" ry="2" />
<text  x="972.72" y="193.5" ></text>
</g>
<g >
<title>firedrake.tsfc_interface.compile_form (1,371,667 us, 0.34%)</title><rect x="1077.7" y="119" width="3.9" height="15.0" fill="rgb(0,0,0)" rx="2" ry="2" />
<text  x="1080.67" y="129.5" ></text>
</g>
<g >
<title>KSPSolve (62,618,496 us, 15.30%)</title><rect x="769.8" y="215" width="180.6" height="15.0" fill="rgb(0,0,0)" rx="2" ry="2" />
<text  x="772.84" y="225.5" >KSPSolve</text>
</g>
<g >
<title>MatAssemblyEnd (143,537 us, 0.04%)</title><rect x="1033.7" y="135" width="0.4" height="15.0" fill="rgb(0,0,0)" rx="2" ry="2" />
<text  x="1036.72" y="145.5" ></text>
</g>
<g >
<title>MatSOR (29,509,631 us, 7.21%)</title><rect x="422.4" y="247" width="85.1" height="15.0" fill="rgb(0,0,0)" rx="2" ry="2" />
<text  x="425.38" y="257.5" >MatSOR</text>
</g>
<g >
<title>MatPtAPSymbolic (384,386 us, 0.09%)</title><rect x="762.5" y="199" width="1.1" height="15.0" fill="rgb(0,0,0)" rx="2" ry="2" />
<text  x="765.52" y="209.5" ></text>
</g>
<g >
<title>ParLoopExecute (879,438 us, 0.21%)</title><rect x="12.8" y="103" width="2.5" height="15.0" fill="rgb(0,0,0)" rx="2" ry="2" />
<text  x="15.77" y="113.5" ></text>
</g>
<g >
<title>MatMult (32,872,514 us, 8.03%)</title><rect x="527.5" y="199" width="94.8" height="15.0" fill="rgb(0,0,0)" rx="2" ry="2" />
<text  x="530.52" y="209.5" >MatMult</text>
</g>
<g >
<title>Log_Event_form01_cell_integral_otherwise (190,435 us, 0.05%)</title><rect x="1135.6" y="151" width="0.5" height="15.0" fill="rgb(0,0,0)" rx="2" ry="2" />
<text  x="1138.58" y="161.5" ></text>
</g>
<g >
<title>MatSOR (29,455,053 us, 7.20%)</title><rect x="622.3" y="247" width="85.0" height="15.0" fill="rgb(0,0,0)" rx="2" ry="2" />
<text  x="625.32" y="257.5" >MatSOR</text>
</g>
<g >
<title>MatScale (71,552 us, 0.02%)</title><rect x="1055.0" y="119" width="0.2" height="15.0" fill="rgb(0,0,0)" rx="2" ry="2" />
<text  x="1058.02" y="129.5" ></text>
</g>
<g >
<title>MatMultTranspose (64,023 us, 0.02%)</title><rect x="950.6" y="215" width="0.1" height="15.0" fill="rgb(0,0,0)" rx="2" ry="2" />
<text  x="953.55" y="225.5" ></text>
</g>
<g >
<title>PCGAMG Gal l00 (1,349,123 us, 0.33%)</title><rect x="759.7" y="183" width="3.9" height="15.0" fill="rgb(0,0,0)" rx="2" ry="2" />
<text  x="762.74" y="193.5" ></text>
</g>
<g >
<title>MatScale (223,230 us, 0.05%)</title><rect x="753.3" y="215" width="0.7" height="15.0" fill="rgb(0,0,0)" rx="2" ry="2" />
<text  x="756.33" y="225.5" ></text>
</g>
<g >
<title>MatMultAdd (491,280 us, 0.12%)</title><rect x="980.4" y="183" width="1.4" height="15.0" fill="rgb(0,0,0)" rx="2" ry="2" />
<text  x="983.37" y="193.5" ></text>
</g>
<g >
<title>PCApply (29,590,957 us, 7.23%)</title><rect x="422.4" y="199" width="85.3" height="15.0" fill="rgb(0,0,0)" rx="2" ry="2" />
<text  x="425.38" y="209.5" >PCApply</text>
</g>
<g >
<title>MatResidual (6,582,623 us, 1.61%)</title><rect x="508.5" y="183" width="19.0" height="15.0" fill="rgb(0,0,0)" rx="2" ry="2" />
<text  x="511.53" y="193.5" ></text>
</g>
<g >
<title>firedrake.variational_solver.NonlinearVariationalSolver.__init__ (31,372,513 us, 7.67%)</title><rect x="205.4" y="71" width="90.5" height="15.0" fill="rgb(0,0,0)" rx="2" ry="2" />
<text  x="208.44" y="81.5" >firedrake..</text>
</g>
<g >
<title>MatMultAdd (44,965 us, 0.01%)</title><rect x="708.0" y="183" width="0.1" height="15.0" fill="rgb(0,0,0)" rx="2" ry="2" />
<text  x="710.98" y="193.5" ></text>
</g>
<g >
<title>Log_Event_form10_cell_integral_otherwise (223,391 us, 0.05%)</title><rect x="1161.7" y="151" width="0.7" height="15.0" fill="rgb(0,0,0)" rx="2" ry="2" />
<text  x="1164.72" y="161.5" ></text>
</g>
<g >
<title>MatSOR (29,452,177 us, 7.20%)</title><rect x="864.8" y="279" width="84.9" height="15.0" fill="rgb(0,0,0)" rx="2" ry="2" />
<text  x="867.77" y="289.5" >MatSOR</text>
</g>
<g >
<title>VecAXPBYCZ (72,441 us, 0.02%)</title><rect x="949.9" y="231" width="0.2" height="15.0" fill="rgb(0,0,0)" rx="2" ry="2" />
<text  x="952.94" y="241.5" ></text>
</g>
<g >
<title>MatMatMultSym (3,771,550 us, 0.92%)</title><rect x="1044.1" y="119" width="10.9" height="15.0" fill="rgb(0,0,0)" rx="2" ry="2" />
<text  x="1047.14" y="129.5" ></text>
</g>
<g >
<title>KSPSolve (1,327,827 us, 0.32%)</title><rect x="755.9" y="199" width="3.8" height="15.0" fill="rgb(0,0,0)" rx="2" ry="2" />
<text  x="758.91" y="209.5" ></text>
</g>
<g >
<title>ParLoopExecute (7,782,453 us, 1.90%)</title><rect x="1055.2" y="119" width="22.5" height="15.0" fill="rgb(0,0,0)" rx="2" ry="2" />
<text  x="1058.22" y="129.5" ></text>
</g>
<g >
<title>  MIS/Agg (45,211 us, 0.01%)</title><rect x="727.2" y="199" width="0.2" height="15.0" fill="rgb(0,0,0)" rx="2" ry="2" />
<text  x="730.23" y="209.5" ></text>
</g>
<g >
<title>Parloop_Cells_wrap_form1_cell_integral_otherwise (3,437,448 us, 0.84%)</title><rect x="1067.8" y="135" width="9.9" height="15.0" fill="rgb(0,0,0)" rx="2" ry="2" />
<text  x="1070.75" y="145.5" ></text>
</g>
<g >
<title>firedrake.assemble.assemble (39,259,895 us, 9.59%)</title><rect x="34.9" y="103" width="113.2" height="15.0" fill="rgb(0,0,0)" rx="2" ry="2" />
<text  x="37.93" y="113.5" >firedrake.as..</text>
</g>
<g >
<title>Parloop_Cells_wrap_form0_cell_integral_otherwise (4,345,005 us, 1.06%)</title><rect x="1055.2" y="135" width="12.6" height="15.0" fill="rgb(0,0,0)" rx="2" ry="2" />
<text  x="1058.22" y="145.5" ></text>
</g>
<g >
<title>MatSOR (960,059 us, 0.23%)</title><rect x="767.1" y="247" width="2.7" height="15.0" fill="rgb(0,0,0)" rx="2" ry="2" />
<text  x="770.07" y="257.5" ></text>
</g>
<g >
<title>MatSolve (3,262,610 us, 0.80%)</title><rect x="981.8" y="215" width="9.4" height="15.0" fill="rgb(0,0,0)" rx="2" ry="2" />
<text  x="984.79" y="225.5" ></text>
</g>
<g >
<title>MatZeroInitial (5,265,067 us, 1.29%)</title><rect x="131.3" y="135" width="15.2" height="15.0" fill="rgb(0,0,0)" rx="2" ry="2" />
<text  x="134.33" y="145.5" ></text>
</g>
<g >
<title>KSPSolve (69,378,905 us, 16.96%)</title><rect x="327.4" y="151" width="200.1" height="15.0" fill="rgb(0,0,0)" rx="2" ry="2" />
<text  x="330.44" y="161.5" >KSPSolve</text>
</g>
<g >
<title>KSPSolve_FS_Schu (84,715,585 us, 20.70%)</title><rect x="769.8" y="135" width="244.3" height="15.0" fill="rgb(0,0,0)" rx="2" ry="2" />
<text  x="772.84" y="145.5" >KSPSolve_FS_Schu</text>
</g>
<g >
<title>firedrake.projection.project (52,806,110 us, 12.91%)</title><rect x="21.9" y="87" width="152.3" height="15.0" fill="rgb(0,0,0)" rx="2" ry="2" />
<text  x="24.89" y="97.5" >firedrake.project..</text>
</g>
<g >
<title>MatMultAdd (45,586 us, 0.01%)</title><rect x="508.2" y="183" width="0.1" height="15.0" fill="rgb(0,0,0)" rx="2" ry="2" />
<text  x="511.20" y="193.5" ></text>
</g>
<g >
<title>MatMatMultSym (278,576 us, 0.07%)</title><rect x="755.1" y="231" width="0.8" height="15.0" fill="rgb(0,0,0)" rx="2" ry="2" />
<text  x="758.11" y="241.5" ></text>
</g>
<g >
<title>MatMult (6,567,587 us, 1.61%)</title><rect x="708.3" y="199" width="18.9" height="15.0" fill="rgb(0,0,0)" rx="2" ry="2" />
<text  x="711.29" y="209.5" ></text>
</g>
<g >
<title>VecScatterBegin (47,710 us, 0.01%)</title><rect x="1024.8" y="135" width="0.1" height="15.0" fill="rgb(0,0,0)" rx="2" ry="2" />
<text  x="1027.81" y="145.5" ></text>
</g>
<g >
<title>MatMult (403,376 us, 0.10%)</title><rect x="148.1" y="135" width="1.2" height="15.0" fill="rgb(0,0,0)" rx="2" ry="2" />
<text  x="151.15" y="145.5" ></text>
</g>
<g >
<title>pyop2.global_kernel.GlobalKernel.compile (4,303,131 us, 1.05%)</title><rect x="1055.3" y="151" width="12.5" height="15.0" fill="rgb(0,0,0)" rx="2" ry="2" />
<text  x="1058.34" y="161.5" ></text>
</g>
<g >
<title>MatAssemblyEnd (90,407 us, 0.02%)</title><rect x="131.1" y="135" width="0.2" height="15.0" fill="rgb(0,0,0)" rx="2" ry="2" />
<text  x="134.07" y="145.5" ></text>
</g>
<g >
<title>  SA: smooth (670,272 us, 0.16%)</title><rect x="754.0" y="199" width="1.9" height="15.0" fill="rgb(0,0,0)" rx="2" ry="2" />
<text  x="756.98" y="209.5" ></text>
</g>
<g >
<title>firedrake.assemble.assemble (753,587 us, 0.18%)</title><rect x="19.7" y="71" width="2.2" height="15.0" fill="rgb(0,0,0)" rx="2" ry="2" />
<text  x="22.72" y="81.5" ></text>
</g>
<g >
<title>KSPSolve (581,181 us, 0.14%)</title><rect x="149.3" y="151" width="1.7" height="15.0" fill="rgb(0,0,0)" rx="2" ry="2" />
<text  x="152.31" y="161.5" ></text>
</g>
<g >
<title>PCApply (960,059 us, 0.23%)</title><rect x="767.1" y="231" width="2.7" height="15.0" fill="rgb(0,0,0)" rx="2" ry="2" />
<text  x="770.07" y="241.5" ></text>
</g>
<g >
<title>PCApply (59,507 us, 0.01%)</title><rect x="759.6" y="215" width="0.1" height="15.0" fill="rgb(0,0,0)" rx="2" ry="2" />
<text  x="762.57" y="225.5" ></text>
</g>
<g >
<title>KSPSolve (2,097,534 us, 0.51%)</title><rect x="763.8" y="183" width="6.0" height="15.0" fill="rgb(0,0,0)" rx="2" ry="2" />
<text  x="766.79" y="193.5" ></text>
</g>
<g >
<title>PCGAMG Gal l01 (55,753 us, 0.01%)</title><rect x="763.6" y="183" width="0.2" height="15.0" fill="rgb(0,0,0)" rx="2" ry="2" />
<text  x="766.63" y="193.5" ></text>
</g>
<g >
<title>Log_Event_form00_cell_integral_otherwise (463,907 us, 0.11%)</title><rect x="1086.9" y="151" width="1.4" height="15.0" fill="rgb(0,0,0)" rx="2" ry="2" />
<text  x="1089.92" y="161.5" ></text>
</g>
<g >
<title>PCApply (29,535,757 us, 7.22%)</title><rect x="622.3" y="199" width="85.2" height="15.0" fill="rgb(0,0,0)" rx="2" ry="2" />
<text  x="625.32" y="209.5" >PCApply</text>
</g>
<g >
<title>VecAYPX (95,133 us, 0.02%)</title><rect x="707.7" y="199" width="0.3" height="15.0" fill="rgb(0,0,0)" rx="2" ry="2" />
<text  x="710.70" y="209.5" ></text>
</g>
<g >
<title>KSPSolve (3,262,610 us, 0.80%)</title><rect x="981.8" y="183" width="9.4" height="15.0" fill="rgb(0,0,0)" rx="2" ry="2" />
<text  x="984.79" y="193.5" ></text>
</g>
<g >
<title>MatMult (6,581,558 us, 1.61%)</title><rect x="950.7" y="231" width="19.0" height="15.0" fill="rgb(0,0,0)" rx="2" ry="2" />
<text  x="953.74" y="241.5" ></text>
</g>
<g >
<title>PCApply (29,532,906 us, 7.22%)</title><rect x="864.8" y="231" width="85.1" height="15.0" fill="rgb(0,0,0)" rx="2" ry="2" />
<text  x="867.77" y="241.5" >PCApply</text>
</g>
<g >
<title>firedrake (409,172,224 us, 100.00%)</title><rect x="10.0" y="55" width="1180.0" height="15.0" fill="rgb(0,0,0)" rx="2" ry="2" />
<text  x="13.00" y="65.5" >firedrake</text>
</g>
<g >
<title>pyop2.global_kernel.GlobalKernel.compile (879,438 us, 0.21%)</title><rect x="12.8" y="135" width="2.5" height="15.0" fill="rgb(0,0,0)" rx="2" ry="2" />
<text  x="15.77" y="145.5" ></text>
</g>
<g >
<title>KSPSolve_FS_0 (69,378,905 us, 16.96%)</title><rect x="327.4" y="135" width="200.1" height="15.0" fill="rgb(0,0,0)" rx="2" ry="2" />
<text  x="330.44" y="145.5" >KSPSolve_FS_0</text>
</g>
<g >
<title>firedrake.__init__ (1,530,322 us, 0.37%)</title><rect x="15.3" y="71" width="4.4" height="15.0" fill="rgb(0,0,0)" rx="2" ry="2" />
<text  x="18.31" y="81.5" ></text>
</g>
<g >
<title>Parloop_set_#x7f0ac2a2f6d0_wrap_expression_kernel (385,624 us, 0.09%)</title><rect x="19.7" y="135" width="1.1" height="15.0" fill="rgb(0,0,0)" rx="2" ry="2" />
<text  x="22.72" y="145.5" ></text>
</g>
<g >
<title>PCApply (3,262,610 us, 0.80%)</title><rect x="981.8" y="167" width="9.4" height="15.0" fill="rgb(0,0,0)" rx="2" ry="2" />
<text  x="984.79" y="177.5" ></text>
</g>
<g >
<title>MatAXPY (1,183,842 us, 0.29%)</title><rect x="1025.2" y="119" width="3.5" height="15.0" fill="rgb(0,0,0)" rx="2" ry="2" />
<text  x="1028.25" y="129.5" ></text>
</g>
<g >
<title>pyop2.global_kernel.GlobalKernel.compile (385,624 us, 0.09%)</title><rect x="19.7" y="151" width="1.1" height="15.0" fill="rgb(0,0,0)" rx="2" ry="2" />
<text  x="22.72" y="161.5" ></text>
</g>
<g >
<title>Parloop_Cells_wrap_form01_cell_integral_otherwise (8,895,106 us, 2.17%)</title><rect x="1133.2" y="135" width="25.6" height="15.0" fill="rgb(0,0,0)" rx="2" ry="2" />
<text  x="1136.16" y="145.5" >P..</text>
</g>
<g >
<title>PCApply (581,181 us, 0.14%)</title><rect x="149.3" y="167" width="1.7" height="15.0" fill="rgb(0,0,0)" rx="2" ry="2" />
<text  x="152.31" y="177.5" ></text>
</g>
<g >
<title>Parloop_Cells_wrap_pyop2_kernel_uniform_extrusion (879,438 us, 0.21%)</title><rect x="12.8" y="119" width="2.5" height="15.0" fill="rgb(0,0,0)" rx="2" ry="2" />
<text  x="15.77" y="129.5" ></text>
</g>
<g >
<title>MatLUFactorNum (7,761,155 us, 1.90%)</title><rect x="991.8" y="183" width="22.3" height="15.0" fill="rgb(0,0,0)" rx="2" ry="2" />
<text  x="994.77" y="193.5" ></text>
</g>
<g >
<title>KSPGMRESOrthog (258,612 us, 0.06%)</title><rect x="296.1" y="119" width="0.7" height="15.0" fill="rgb(0,0,0)" rx="2" ry="2" />
<text  x="299.07" y="129.5" ></text>
</g>
<g >
<title>PCSetUp (7,616,372 us, 1.86%)</title><rect x="151.0" y="135" width="22.0" height="15.0" fill="rgb(0,0,0)" rx="2" ry="2" />
<text  x="153.99" y="145.5" ></text>
</g>
<g >
<title>MatResidual (6,567,587 us, 1.61%)</title><rect x="708.3" y="183" width="18.9" height="15.0" fill="rgb(0,0,0)" rx="2" ry="2" />
<text  x="711.29" y="193.5" ></text>
</g>
<g >
<title>Parloop_Cells_wrap_form10_cell_integral_otherwise (9,126,350 us, 2.23%)</title><rect x="1158.8" y="135" width="26.3" height="15.0" fill="rgb(0,0,0)" rx="2" ry="2" />
<text  x="1161.81" y="145.5" >P..</text>
</g>
<g >
<title>firedrake.extrusion_utils.make_extruded_coords (879,438 us, 0.21%)</title><rect x="12.8" y="87" width="2.5" height="15.0" fill="rgb(0,0,0)" rx="2" ry="2" />
<text  x="15.77" y="97.5" ></text>
</g>
<g >
<title>Log_Event_form00_cell_integral_otherwise (576,545 us, 0.14%)</title><rect x="39.5" y="151" width="1.7" height="15.0" fill="rgb(0,0,0)" rx="2" ry="2" />
<text  x="42.50" y="161.5" ></text>
</g>
<g >
<title>PCSetUpOnBlocks (7,958,196 us, 1.94%)</title><rect x="991.2" y="151" width="22.9" height="15.0" fill="rgb(0,0,0)" rx="2" ry="2" />
<text  x="994.20" y="161.5" ></text>
</g>
<g >
<title>MatILUFactorSym (197,041 us, 0.05%)</title><rect x="991.2" y="183" width="0.6" height="15.0" fill="rgb(0,0,0)" rx="2" ry="2" />
<text  x="994.20" y="193.5" ></text>
</g>
<g >
<title>PCApply (29,509,631 us, 7.21%)</title><rect x="422.4" y="231" width="85.1" height="15.0" fill="rgb(0,0,0)" rx="2" ry="2" />
<text  x="425.38" y="241.5" >PCApply</text>
</g>
<g >
<title>Parloop_Cells_wrap_form_cell_integral_otherwise (9,528,852 us, 2.33%)</title><rect x="174.2" y="135" width="27.5" height="15.0" fill="rgb(0,0,0)" rx="2" ry="2" />
<text  x="177.18" y="145.5" >P..</text>
</g>
<g >
<title>PCApply (241,866,204 us, 59.11%)</title><rect x="327.4" y="119" width="697.5" height="15.0" fill="rgb(0,0,0)" rx="2" ry="2" />
<text  x="330.44" y="129.5" >PCApply</text>
</g>
<g >
<title>PCSetUpOnBlocks (7,616,372 us, 1.86%)</title><rect x="151.0" y="119" width="22.0" height="15.0" fill="rgb(0,0,0)" rx="2" ry="2" />
<text  x="153.99" y="129.5" ></text>
</g>
<g >
<title>MatMult (1,268,320 us, 0.31%)</title><rect x="755.9" y="215" width="3.7" height="15.0" fill="rgb(0,0,0)" rx="2" ry="2" />
<text  x="758.91" y="225.5" ></text>
</g>
<g >
<title>MatMatMultNum (3,470,140 us, 0.85%)</title><rect x="1034.1" y="119" width="10.0" height="15.0" fill="rgb(0,0,0)" rx="2" ry="2" />
<text  x="1037.13" y="129.5" ></text>
</g>
<g >
<title>MatMult (32,916,724 us, 8.04%)</title><rect x="769.8" y="231" width="95.0" height="15.0" fill="rgb(0,0,0)" rx="2" ry="2" />
<text  x="772.84" y="241.5" >MatMult</text>
</g>
<g >
<title>MatAssemblyEnd (130,987 us, 0.03%)</title><rect x="273.2" y="103" width="0.4" height="15.0" fill="rgb(0,0,0)" rx="2" ry="2" />
<text  x="276.25" y="113.5" ></text>
</g>
<g >
<title>SNESJacobianEval (37,580,290 us, 9.18%)</title><rect x="1081.6" y="103" width="108.4" height="15.0" fill="rgb(0,0,0)" rx="2" ry="2" />
<text  x="1084.62" y="113.5" >SNESJacobian..</text>
</g>
<g >
<title>PCApply (581,181 us, 0.14%)</title><rect x="149.3" y="135" width="1.7" height="15.0" fill="rgb(0,0,0)" rx="2" ry="2" />
<text  x="152.31" y="145.5" ></text>
</g>
<g >
<title>MatZeroEntries (216,158 us, 0.05%)</title><rect x="1081.6" y="119" width="0.6" height="15.0" fill="rgb(0,0,0)" rx="2" ry="2" />
<text  x="1084.62" y="129.5" ></text>
</g>
<g >
<title>Parloop_Cells_wrap_form00_cell_integral_otherwise (19,679,851 us, 4.81%)</title><rect x="34.9" y="135" width="56.8" height="15.0" fill="rgb(0,0,0)" rx="2" ry="2" />
<text  x="37.93" y="145.5" >Parlo..</text>
</g>
<g >
<title>MatCholFctrNum (7,521,171 us, 1.84%)</title><rect x="151.0" y="151" width="21.7" height="15.0" fill="rgb(0,0,0)" rx="2" ry="2" />
<text  x="153.99" y="161.5" ></text>
</g>
<g >
<title>ParLoopExecute (9,528,852 us, 2.33%)</title><rect x="174.2" y="119" width="27.5" height="15.0" fill="rgb(0,0,0)" rx="2" ry="2" />
<text  x="177.18" y="129.5" >P..</text>
</g>
<g >
<title>MatTrnMatMultSym (5,921,743 us, 1.45%)</title><rect x="727.4" y="215" width="17.0" height="15.0" fill="rgb(0,0,0)" rx="2" ry="2" />
<text  x="730.36" y="225.5" ></text>
</g>
<g >
<title>PCApply (29,455,053 us, 7.20%)</title><rect x="622.3" y="231" width="85.0" height="15.0" fill="rgb(0,0,0)" rx="2" ry="2" />
<text  x="625.32" y="241.5" >PCApply</text>
</g>
<g >
<title>PCSetUp (7,958,196 us, 1.94%)</title><rect x="991.2" y="167" width="22.9" height="15.0" fill="rgb(0,0,0)" rx="2" ry="2" />
<text  x="994.20" y="177.5" ></text>
</g>
<g >
<title>SNESSolve (310,030,954 us, 75.77%)</title><rect x="295.9" y="87" width="894.1" height="15.0" fill="rgb(0,0,0)" rx="2" ry="2" />
<text  x="298.91" y="97.5" >SNESSolve</text>
</g>
<g >
<title>CreateExtMesh (879,438 us, 0.21%)</title><rect x="12.8" y="71" width="2.5" height="15.0" fill="rgb(0,0,0)" rx="2" ry="2" />
<text  x="15.77" y="81.5" ></text>
</g>
<g >
<title>firedrake.tsfc_interface.compile_form (1,688,312 us, 0.41%)</title><rect x="1185.1" y="119" width="4.9" height="15.0" fill="rgb(0,0,0)" rx="2" ry="2" />
<text  x="1188.13" y="129.5" ></text>
</g>
<g >
<title>VecSet (80,729 us, 0.02%)</title><rect x="949.7" y="263" width="0.2" height="15.0" fill="rgb(0,0,0)" rx="2" ry="2" />
<text  x="952.70" y="273.5" ></text>
</g>
<g >
<title>ParLoopExecute (753,587 us, 0.18%)</title><rect x="19.7" y="119" width="2.2" height="15.0" fill="rgb(0,0,0)" rx="2" ry="2" />
<text  x="22.72" y="129.5" ></text>
</g>
<g >
<title>KSPSolve (960,059 us, 0.23%)</title><rect x="767.1" y="215" width="2.7" height="15.0" fill="rgb(0,0,0)" rx="2" ry="2" />
<text  x="770.07" y="225.5" ></text>
</g>
<g >
<title>PCGAMGGraph_AGG (3,307,019 us, 0.81%)</title><rect x="744.4" y="183" width="9.6" height="15.0" fill="rgb(0,0,0)" rx="2" ry="2" />
<text  x="747.44" y="193.5" ></text>
</g>
<g >
<title>GAMG: createProl (11,272,072 us, 2.75%)</title><rect x="727.2" y="167" width="32.5" height="15.0" fill="rgb(0,0,0)" rx="2" ry="2" />
<text  x="730.23" y="177.5" >GA..</text>
</g>
<g >
<title>MatZeroInitial (7,728,081 us, 1.89%)</title><rect x="273.6" y="103" width="22.3" height="15.0" fill="rgb(0,0,0)" rx="2" ry="2" />
<text  x="276.62" y="113.5" ></text>
</g>
<g >
<title>pyop2.global_kernel.GlobalKernel.compile (9,528,852 us, 2.33%)</title><rect x="174.2" y="151" width="27.5" height="15.0" fill="rgb(0,0,0)" rx="2" ry="2" />
<text  x="177.18" y="161.5" >p..</text>
</g>
<g >
<title>PCApply (3,262,610 us, 0.80%)</title><rect x="981.8" y="199" width="9.4" height="15.0" fill="rgb(0,0,0)" rx="2" ry="2" />
<text  x="984.79" y="209.5" ></text>
</g>
<g >
<title>ParLoopExecute (4,519,165 us, 1.10%)</title><rect x="21.9" y="103" width="13.0" height="15.0" fill="rgb(0,0,0)" rx="2" ry="2" />
<text  x="24.89" y="113.5" ></text>
</g>
<g >
<title>PCApply (29,452,177 us, 7.20%)</title><rect x="864.8" y="263" width="84.9" height="15.0" fill="rgb(0,0,0)" rx="2" ry="2" />
<text  x="867.77" y="273.5" >PCApply</text>
</g>
<g >
<title>firedrake.assemble.assemble (10,838,363 us, 2.65%)</title><rect x="174.2" y="103" width="31.2" height="15.0" fill="rgb(0,0,0)" rx="2" ry="2" />
<text  x="177.18" y="113.5" >fi..</text>
</g>
<g >
<title>PCApply (960,059 us, 0.23%)</title><rect x="767.1" y="199" width="2.7" height="15.0" fill="rgb(0,0,0)" rx="2" ry="2" />
<text  x="770.07" y="209.5" ></text>
</g>
<g >
<title>MatMultTranspose (69,730 us, 0.02%)</title><rect x="508.3" y="183" width="0.2" height="15.0" fill="rgb(0,0,0)" rx="2" ry="2" />
<text  x="511.33" y="193.5" ></text>
</g>
<g >
<title>firedrake.assemble.allocate_matrix (31,372,513 us, 7.67%)</title><rect x="205.4" y="87" width="90.5" height="15.0" fill="rgb(0,0,0)" rx="2" ry="2" />
<text  x="208.44" y="97.5" >firedrake..</text>
</g>
<g >
<title>VecAYPX (96,425 us, 0.02%)</title><rect x="950.1" y="231" width="0.3" height="15.0" fill="rgb(0,0,0)" rx="2" ry="2" />
<text  x="953.15" y="241.5" ></text>
</g>
<g >
<title>firedrake.norms.norm (10,838,363 us, 2.65%)</title><rect x="174.2" y="87" width="31.2" height="15.0" fill="rgb(0,0,0)" rx="2" ry="2" />
<text  x="177.18" y="97.5" >fi..</text>
</g>
<g >
<title>MatCreateSubMats (1,771,715 us, 0.43%)</title><rect x="1029.0" y="119" width="5.1" height="15.0" fill="rgb(0,0,0)" rx="2" ry="2" />
<text  x="1032.02" y="129.5" ></text>
</g>
<g >
<title>KSPSolve (252,798,325 us, 61.78%)</title><rect x="295.9" y="103" width="729.0" height="15.0" fill="rgb(0,0,0)" rx="2" ry="2" />
<text  x="298.91" y="113.5" >KSPSolve</text>
</g>
<g >
<title>PCSetUp (10,498,219 us, 2.57%)</title><rect x="1024.9" y="103" width="30.3" height="15.0" fill="rgb(0,0,0)" rx="2" ry="2" />
<text  x="1027.95" y="113.5" >P..</text>
</g>
<g >
<title>MatMult (73,494,779 us, 17.96%)</title><rect x="769.8" y="167" width="212.0" height="15.0" fill="rgb(0,0,0)" rx="2" ry="2" />
<text  x="772.84" y="177.5" >MatMult</text>
</g>
<g >
<title>MatSolve (581,181 us, 0.14%)</title><rect x="149.3" y="183" width="1.7" height="15.0" fill="rgb(0,0,0)" rx="2" ry="2" />
<text  x="152.31" y="193.5" ></text>
</g>
<g >
<title>MatMult (32,921,448 us, 8.05%)</title><rect x="327.4" y="199" width="95.0" height="15.0" fill="rgb(0,0,0)" rx="2" ry="2" />
<text  x="330.44" y="209.5" >MatMult</text>
</g>
<g >
<title>GAMG: partLevel (1,404,876 us, 0.34%)</title><rect x="759.7" y="167" width="4.1" height="15.0" fill="rgb(0,0,0)" rx="2" ry="2" />
<text  x="762.74" y="177.5" ></text>
</g>
<g >
<title>KSPSolve (62,575,546 us, 15.29%)</title><rect x="527.5" y="183" width="180.5" height="15.0" fill="rgb(0,0,0)" rx="2" ry="2" />
<text  x="530.52" y="193.5" >KSPSolve</text>
</g>
<g >
<title>ParLoopExecute (19,679,851 us, 4.81%)</title><rect x="34.9" y="119" width="56.8" height="15.0" fill="rgb(0,0,0)" rx="2" ry="2" />
<text  x="37.93" y="129.5" >ParLo..</text>
</g>
<g >
<title>MatConvert (449,008 us, 0.11%)</title><rect x="752.0" y="215" width="1.3" height="15.0" fill="rgb(0,0,0)" rx="2" ry="2" />
<text  x="755.04" y="225.5" ></text>
</g>
<g >
<title>CreateSparsity (13,658,215 us, 3.34%)</title><rect x="91.7" y="135" width="39.4" height="15.0" fill="rgb(0,0,0)" rx="2" ry="2" />
<text  x="94.68" y="145.5" >Cre..</text>
</g>
<g >
<title>firedrake.variational_solver.NonlinearVariationalSolver.solve (310,030,954 us, 75.77%)</title><rect x="295.9" y="71" width="894.1" height="15.0" fill="rgb(0,0,0)" rx="2" ry="2" />
<text  x="298.91" y="81.5" >firedrake.variational_solver.NonlinearVariationalSolver.solve</text>
</g>
</g>
</svg>
