<?xml version="1.0" standalone="no"?>
<!DOCTYPE svg PUBLIC "-//W3C//DTD SVG 1.1//EN" "http://www.w3.org/Graphics/SVG/1.1/DTD/svg11.dtd">
<svg version="1.1" width="1200" height="411" onload="init(evt)" viewBox="0 0 1200 411" xmlns="http://www.w3.org/2000/svg" xmlns:xlink="http://www.w3.org/1999/xlink">
<!-- Flame graph stack visualization. See https://github.com/brendangregg/FlameGraph for latest version, and http://www.brendangregg.com/flamegraphs.html for examples. -->
<!-- NOTES:  -->
<defs>
	<linearGradient id="background" y1="0" y2="1" x1="0" x2="0" >
		<stop stop-color="#eeeeee" offset="5%" />
		<stop stop-color="#eeeeb0" offset="95%" />
	</linearGradient>
</defs>
<style type="text/css">
	text { font-family:Verdana; font-size:13px; fill:rgb(0,0,0); }
	#search, #ignorecase { opacity:0.1; cursor:pointer; }
	#search:hover, #search.show, #ignorecase:hover, #ignorecase.show { opacity:1; }
	#subtitle { text-anchor:middle; font-color:rgb(160,160,160); }
	#title { text-anchor:middle; font-size:18px}
	#unzoom { cursor:pointer; }
	#frames > *:hover { stroke:black; stroke-width:0.5; cursor:pointer; }
	.hide { display:none; }
	.parent { opacity:0.5; }
</style>
<script type="text/ecmascript">
<![CDATA[
	"use strict";
	var details, searchbtn, unzoombtn, matchedtxt, svg, searching, currentSearchTerm, ignorecase, ignorecaseBtn;
	function init(evt) {
		details = document.getElementById("details").firstChild;
		searchbtn = document.getElementById("search");
		ignorecaseBtn = document.getElementById("ignorecase");
		unzoombtn = document.getElementById("unzoom");
		matchedtxt = document.getElementById("matched");
		svg = document.getElementsByTagName("svg")[0];
		searching = 0;
		currentSearchTerm = null;

		// use GET parameters to restore a flamegraphs state.
		var params = get_params();
		if (params.x && params.y)
			zoom(find_group(document.querySelector('[x="' + params.x + '"][y="' + params.y + '"]')));
                if (params.s) search(params.s);
	}

	// event listeners
	window.addEventListener("click", function(e) {
		var target = find_group(e.target);
		if (target) {
			if (target.nodeName == "a") {
				if (e.ctrlKey === false) return;
				e.preventDefault();
			}
			if (target.classList.contains("parent")) unzoom();
			zoom(target);
			if (!document.querySelector('.parent')) {
				clearzoom();
				return;
			}

			// set parameters for zoom state
			var el = target.querySelector("rect");
			if (el && el.attributes && el.attributes.y && el.attributes._orig_x) {
				var params = get_params()
				params.x = el.attributes._orig_x.value;
				params.y = el.attributes.y.value;
				history.replaceState(null, null, parse_params(params));
			}
		}
		else if (e.target.id == "unzoom") clearzoom();
		else if (e.target.id == "search") search_prompt();
		else if (e.target.id == "ignorecase") toggle_ignorecase();
	}, false)

	// mouse-over for info
	// show
	window.addEventListener("mouseover", function(e) {
		var target = find_group(e.target);
		if (target) details.nodeValue = "Function: " + g_to_text(target);
	}, false)

	// clear
	window.addEventListener("mouseout", function(e) {
		var target = find_group(e.target);
		if (target) details.nodeValue = ' ';
	}, false)

	// ctrl-F for search
	// ctrl-I to toggle case-sensitive search
	window.addEventListener("keydown",function (e) {
		if (e.keyCode === 114 || (e.ctrlKey && e.keyCode === 70)) {
			e.preventDefault();
			search_prompt();
		}
		else if (e.ctrlKey && e.keyCode === 73) {
			e.preventDefault();
			toggle_ignorecase();
		}
	}, false)

	// functions
	function get_params() {
		var params = {};
		var paramsarr = window.location.search.substr(1).split('&');
		for (var i = 0; i < paramsarr.length; ++i) {
			var tmp = paramsarr[i].split("=");
			if (!tmp[0] || !tmp[1]) continue;
			params[tmp[0]]  = decodeURIComponent(tmp[1]);
		}
		return params;
	}
	function parse_params(params) {
		var uri = "?";
		for (var key in params) {
			uri += key + '=' + encodeURIComponent(params[key]) + '&';
		}
		if (uri.slice(-1) == "&")
			uri = uri.substring(0, uri.length - 1);
		if (uri == '?')
			uri = window.location.href.split('?')[0];
		return uri;
	}
	function find_child(node, selector) {
		var children = node.querySelectorAll(selector);
		if (children.length) return children[0];
	}
	function find_group(node) {
		var parent = node.parentElement;
		if (!parent) return;
		if (parent.id == "frames") return node;
		return find_group(parent);
	}
	function orig_save(e, attr, val) {
		if (e.attributes["_orig_" + attr] != undefined) return;
		if (e.attributes[attr] == undefined) return;
		if (val == undefined) val = e.attributes[attr].value;
		e.setAttribute("_orig_" + attr, val);
	}
	function orig_load(e, attr) {
		if (e.attributes["_orig_"+attr] == undefined) return;
		e.attributes[attr].value = e.attributes["_orig_" + attr].value;
		e.removeAttribute("_orig_"+attr);
	}
	function g_to_text(e) {
		var text = find_child(e, "title").firstChild.nodeValue;
		return (text)
	}
	function g_to_func(e) {
		var func = g_to_text(e);
		// if there's any manipulation we want to do to the function
		// name before it's searched, do it here before returning.
		return (func);
	}
	function update_text(e) {
		var r = find_child(e, "rect");
		var t = find_child(e, "text");
		var w = parseFloat(r.attributes.width.value) -3;
		var txt = find_child(e, "title").textContent.replace(/\([^(]*\)$/,"");
		t.attributes.x.value = parseFloat(r.attributes.x.value) + 3;

		// Smaller than this size won't fit anything
		if (w < 2 * 13 * 0.59) {
			t.textContent = "";
			return;
		}

		t.textContent = txt;
		// Fit in full text width
		if (/^ *$/.test(txt) || t.getSubStringLength(0, txt.length) < w)
			return;

		for (var x = txt.length - 2; x > 0; x--) {
			if (t.getSubStringLength(0, x + 2) <= w) {
				t.textContent = txt.substring(0, x) + "..";
				return;
			}
		}
		t.textContent = "";
	}

	// zoom
	function zoom_reset(e) {
		if (e.attributes != undefined) {
			orig_load(e, "x");
			orig_load(e, "width");
		}
		if (e.childNodes == undefined) return;
		for (var i = 0, c = e.childNodes; i < c.length; i++) {
			zoom_reset(c[i]);
		}
	}
	function zoom_child(e, x, ratio) {
		if (e.attributes != undefined) {
			if (e.attributes.x != undefined) {
				orig_save(e, "x");
				e.attributes.x.value = (parseFloat(e.attributes.x.value) - x - 10) * ratio + 10;
				if (e.tagName == "text")
					e.attributes.x.value = find_child(e.parentNode, "rect[x]").attributes.x.value + 3;
			}
			if (e.attributes.width != undefined) {
				orig_save(e, "width");
				e.attributes.width.value = parseFloat(e.attributes.width.value) * ratio;
			}
		}

		if (e.childNodes == undefined) return;
		for (var i = 0, c = e.childNodes; i < c.length; i++) {
			zoom_child(c[i], x - 10, ratio);
		}
	}
	function zoom_parent(e) {
		if (e.attributes) {
			if (e.attributes.x != undefined) {
				orig_save(e, "x");
				e.attributes.x.value = 10;
			}
			if (e.attributes.width != undefined) {
				orig_save(e, "width");
				e.attributes.width.value = parseInt(svg.width.baseVal.value) - (10 * 2);
			}
		}
		if (e.childNodes == undefined) return;
		for (var i = 0, c = e.childNodes; i < c.length; i++) {
			zoom_parent(c[i]);
		}
	}
	function zoom(node) {
		var attr = find_child(node, "rect").attributes;
		var width = parseFloat(attr.width.value);
		var xmin = parseFloat(attr.x.value);
		var xmax = parseFloat(xmin + width);
		var ymin = parseFloat(attr.y.value);
		var ratio = (svg.width.baseVal.value - 2 * 10) / width;

		// XXX: Workaround for JavaScript float issues (fix me)
		var fudge = 0.0001;

		unzoombtn.classList.remove("hide");

		var el = document.getElementById("frames").children;
		for (var i = 0; i < el.length; i++) {
			var e = el[i];
			var a = find_child(e, "rect").attributes;
			var ex = parseFloat(a.x.value);
			var ew = parseFloat(a.width.value);
			var upstack;
			// Is it an ancestor
			if (1 == 0) {
				upstack = parseFloat(a.y.value) > ymin;
			} else {
				upstack = parseFloat(a.y.value) < ymin;
			}
			if (upstack) {
				// Direct ancestor
				if (ex <= xmin && (ex+ew+fudge) >= xmax) {
					e.classList.add("parent");
					zoom_parent(e);
					update_text(e);
				}
				// not in current path
				else
					e.classList.add("hide");
			}
			// Children maybe
			else {
				// no common path
				if (ex < xmin || ex + fudge >= xmax) {
					e.classList.add("hide");
				}
				else {
					zoom_child(e, xmin, ratio);
					update_text(e);
				}
			}
		}
		search();
	}
	function unzoom() {
		unzoombtn.classList.add("hide");
		var el = document.getElementById("frames").children;
		for(var i = 0; i < el.length; i++) {
			el[i].classList.remove("parent");
			el[i].classList.remove("hide");
			zoom_reset(el[i]);
			update_text(el[i]);
		}
		search();
	}
	function clearzoom() {
		unzoom();

		// remove zoom state
		var params = get_params();
		if (params.x) delete params.x;
		if (params.y) delete params.y;
		history.replaceState(null, null, parse_params(params));
	}

	// search
	function toggle_ignorecase() {
		ignorecase = !ignorecase;
		if (ignorecase) {
			ignorecaseBtn.classList.add("show");
		} else {
			ignorecaseBtn.classList.remove("show");
		}
		reset_search();
		search();
	}
	function reset_search() {
		var el = document.querySelectorAll("#frames rect");
		for (var i = 0; i < el.length; i++) {
			orig_load(el[i], "fill")
		}
		var params = get_params();
		delete params.s;
		history.replaceState(null, null, parse_params(params));
	}
	function search_prompt() {
		if (!searching) {
			var term = prompt("Enter a search term (regexp " +
			    "allowed, eg: ^ext4_)"
			    + (ignorecase ? ", ignoring case" : "")
			    + "\nPress Ctrl-i to toggle case sensitivity", "");
			if (term != null) search(term);
		} else {
			reset_search();
			searching = 0;
			currentSearchTerm = null;
			searchbtn.classList.remove("show");
			searchbtn.firstChild.nodeValue = "Search"
			matchedtxt.classList.add("hide");
			matchedtxt.firstChild.nodeValue = ""
		}
	}
	function search(term) {
		if (term) currentSearchTerm = term;

		var re = new RegExp(currentSearchTerm, ignorecase ? 'i' : '');
		var el = document.getElementById("frames").children;
		var matches = new Object();
		var maxwidth = 0;
		for (var i = 0; i < el.length; i++) {
			var e = el[i];
			var func = g_to_func(e);
			var rect = find_child(e, "rect");
			if (func == null || rect == null)
				continue;

			// Save max width. Only works as we have a root frame
			var w = parseFloat(rect.attributes.width.value);
			if (w > maxwidth)
				maxwidth = w;

			if (func.match(re)) {
				// highlight
				var x = parseFloat(rect.attributes.x.value);
				orig_save(rect, "fill");
				rect.attributes.fill.value = "rgb(230,0,230)";

				// remember matches
				if (matches[x] == undefined) {
					matches[x] = w;
				} else {
					if (w > matches[x]) {
						// overwrite with parent
						matches[x] = w;
					}
				}
				searching = 1;
			}
		}
		if (!searching)
			return;
		var params = get_params();
		params.s = currentSearchTerm;
		history.replaceState(null, null, parse_params(params));

		searchbtn.classList.add("show");
		searchbtn.firstChild.nodeValue = "Reset Search";

		// calculate percent matched, excluding vertical overlap
		var count = 0;
		var lastx = -1;
		var lastw = 0;
		var keys = Array();
		for (k in matches) {
			if (matches.hasOwnProperty(k))
				keys.push(k);
		}
		// sort the matched frames by their x location
		// ascending, then width descending
		keys.sort(function(a, b){
			return a - b;
		});
		// Step through frames saving only the biggest bottom-up frames
		// thanks to the sort order. This relies on the tree property
		// where children are always smaller than their parents.
		var fudge = 0.0001;	// JavaScript floating point
		for (var k in keys) {
			var x = parseFloat(keys[k]);
			var w = matches[keys[k]];
			if (x >= lastx + lastw - fudge) {
				count += w;
				lastx = x;
				lastw = w;
			}
		}
		// display matched percent
		matchedtxt.classList.remove("hide");
		var pct = 100 * count / maxwidth;
		if (pct != 100) pct = pct.toFixed(1)
		matchedtxt.firstChild.nodeValue = "Matched: " + pct + "%";
	}
]]>
</script>
<rect x="0.0" y="0" width="1200.0" height="411.0" fill="url(#background)"  />
<text id="title" x="600.00" y="26" >Firedrake example</text>
<text id="details" x="10.00" y="393" > </text>
<text id="unzoom" x="10.00" y="26" class="hide">Reset Zoom</text>
<text id="search" x="1090.00" y="26" >Search</text>
<text id="ignorecase" x="1174.00" y="26" >ic</text>
<text id="matched" x="1090.00" y="393" > </text>
<g id="frames">
<g >
<title>Log_Event_tensorshell_knl_140 (758,058 us, 0.10%)</title><rect x="1147.7" y="359" width="1.2" height="15.0" fill="rgb(0,0,0)" rx="2" ry="2" />
<text  x="1150.68" y="369.5" ></text>
</g>
<g >
<title>SCSolve (728,257,191 us, 97.65%)</title><rect x="37.7" y="135" width="1152.3" height="15.0" fill="rgb(0,0,0)" rx="2" ry="2" />
<text  x="40.72" y="145.5" >SCSolve</text>
</g>
<g >
<title>Log_Event_tensorshell_knl_140 (9,328,181 us, 1.25%)</title><rect x="529.3" y="295" width="14.7" height="15.0" fill="rgb(0,0,0)" rx="2" ry="2" />
<text  x="532.28" y="305.5" ></text>
</g>
<g >
<title>firedrake.__init__ (1,514,805 us, 0.20%)</title><rect x="12.5" y="71" width="2.4" height="15.0" fill="rgb(0,0,0)" rx="2" ry="2" />
<text  x="15.48" y="81.5" ></text>
</g>
<g >
<title>Log_Event_tensorshell_knl_14 (4,166,681 us, 0.56%)</title><rect x="31.1" y="231" width="6.6" height="15.0" fill="rgb(0,0,0)" rx="2" ry="2" />
<text  x="34.13" y="241.5" ></text>
</g>
<g >
<title>Log_Event_slate_loopy_knl_77 (54,504,167 us, 7.31%)</title><rect x="1103.8" y="295" width="86.2" height="15.0" fill="rgb(0,0,0)" rx="2" ry="2" />
<text  x="1106.76" y="305.5" >Log_Event..</text>
</g>
<g >
<title>Log_Event_subkernel132_interior_facet_vert_to__exterior_facet_vert_integral_otherwise (853,248 us, 0.11%)</title><rect x="116.1" y="263" width="1.3" height="15.0" fill="rgb(0,0,0)" rx="2" ry="2" />
<text  x="119.06" y="273.5" ></text>
</g>
<g >
<title>Log_Event_subkernel108_cell_to__cell_integral_otherwise (844,540 us, 0.11%)</title><rect x="99.6" y="263" width="1.3" height="15.0" fill="rgb(0,0,0)" rx="2" ry="2" />
<text  x="102.57" y="273.5" ></text>
</g>
<g >
<title>Parloop_Cells_wrap_form1_cell_integral_otherwise (3,169,852 us, 0.43%)</title><rect x="21.3" y="167" width="5.0" height="15.0" fill="rgb(0,0,0)" rx="2" ry="2" />
<text  x="24.28" y="177.5" ></text>
</g>
<g >
<title>firedrake (745,775,767 us, 100.00%)</title><rect x="10.0" y="55" width="1180.0" height="15.0" fill="rgb(0,0,0)" rx="2" ry="2" />
<text  x="13.00" y="65.5" >firedrake</text>
</g>
<g >
<title>firedrake.matrix_free.operators.ImplicitMatrixContext.mult (55,837,627 us, 7.49%)</title><rect x="1101.7" y="247" width="88.3" height="15.0" fill="rgb(0,0,0)" rx="2" ry="2" />
<text  x="1104.65" y="257.5" >firedrake..</text>
</g>
<g >
<title>Log_Event_subkernel109_cell_to__cell_integral_otherwise (1,426,204 us, 0.19%)</title><rect x="100.9" y="263" width="2.3" height="15.0" fill="rgb(0,0,0)" rx="2" ry="2" />
<text  x="103.91" y="273.5" ></text>
</g>
<g >
<title>Log_Event_subkernel132_cell_to__cell_integral_otherwise (919,739 us, 0.12%)</title><rect x="114.6" y="263" width="1.5" height="15.0" fill="rgb(0,0,0)" rx="2" ry="2" />
<text  x="117.61" y="273.5" ></text>
</g>
<g >
<title>Log_Event_subkernel122_cell_to__cell_integral_otherwise (3,232,410 us, 0.43%)</title><rect x="125.5" y="279" width="5.1" height="15.0" fill="rgb(0,0,0)" rx="2" ry="2" />
<text  x="128.48" y="289.5" ></text>
</g>
<g >
<title>ParLoopExecute (7,214,365 us, 0.97%)</title><rect x="14.9" y="151" width="11.4" height="15.0" fill="rgb(0,0,0)" rx="2" ry="2" />
<text  x="17.88" y="161.5" ></text>
</g>
<g >
<title>Log_Event_tensorshell_knl_133 (550,701,856 us, 73.84%)</title><rect x="135.8" y="263" width="871.3" height="15.0" fill="rgb(0,0,0)" rx="2" ry="2" />
<text  x="138.77" y="273.5" >Log_Event_tensorshell_knl_133</text>
</g>
<g >
<title>Log_Event_subkernel129_cell_to__cell_integral_otherwise (3,269,117 us, 0.44%)</title><rect x="130.6" y="279" width="5.2" height="15.0" fill="rgb(0,0,0)" rx="2" ry="2" />
<text  x="133.60" y="289.5" ></text>
</g>
<g >
<title>Log_Event_subkernel91_cell_to__cell_integral_otherwise (918,155 us, 0.12%)</title><rect x="1018.6" y="263" width="1.4" height="15.0" fill="rgb(0,0,0)" rx="2" ry="2" />
<text  x="1021.59" y="273.5" ></text>
</g>
<g >
<title>Log_Event_subkernel83_cell_to__cell_integral_otherwise (1,407,696 us, 0.19%)</title><rect x="1021.4" y="295" width="2.2" height="15.0" fill="rgb(0,0,0)" rx="2" ry="2" />
<text  x="1024.40" y="305.5" ></text>
</g>
<g >
<title>Parloop_Cells_wrap_slate_loopy_knl_77 (672,419,564 us, 90.16%)</title><rect x="37.7" y="215" width="1064.0" height="15.0" fill="rgb(0,0,0)" rx="2" ry="2" />
<text  x="40.72" y="225.5" >Parloop_Cells_wrap_slate_loopy_knl_77</text>
</g>
<g >
<title>Log_Event_subkernel116_cell_to__cell_integral_otherwise (848,045 us, 0.11%)</title><rect x="105.4" y="263" width="1.4" height="15.0" fill="rgb(0,0,0)" rx="2" ry="2" />
<text  x="108.42" y="273.5" ></text>
</g>
<g >
<title>Log_Event_subkernel104_cell_to__cell_integral_otherwise (3,220,811 us, 0.43%)</title><rect x="1053.7" y="247" width="5.1" height="15.0" fill="rgb(0,0,0)" rx="2" ry="2" />
<text  x="1056.66" y="257.5" ></text>
</g>
<g >
<title>Log_Event_tensorshell_knl_133 (45,169,822 us, 6.06%)</title><rect x="1115.8" y="327" width="71.4" height="15.0" fill="rgb(0,0,0)" rx="2" ry="2" />
<text  x="1118.78" y="337.5" >Log_Eve..</text>
</g>
<g >
<title>Log_Event_subkernel91_interior_facet_vert_to__exterior_facet_vert_integral_otherwise (854,665 us, 0.11%)</title><rect x="1020.0" y="263" width="1.4" height="15.0" fill="rgb(0,0,0)" rx="2" ry="2" />
<text  x="1023.04" y="273.5" ></text>
</g>
<g >
<title>Log_Event_mtf_solve_94 (3,702,530 us, 0.50%)</title><rect x="1037.5" y="279" width="5.9" height="15.0" fill="rgb(0,0,0)" rx="2" ry="2" />
<text  x="1040.53" y="289.5" ></text>
</g>
<g >
<title>MatMult (672,419,564 us, 90.16%)</title><rect x="37.7" y="167" width="1064.0" height="15.0" fill="rgb(0,0,0)" rx="2" ry="2" />
<text  x="40.72" y="177.5" >MatMult</text>
</g>
<g >
<title>Log_Event_tensorshell_knl_80 (10,193,782 us, 1.37%)</title><rect x="1021.4" y="263" width="16.1" height="15.0" fill="rgb(0,0,0)" rx="2" ry="2" />
<text  x="1024.40" y="273.5" ></text>
</g>
<g >
<title>MatMult (8,229,216 us, 1.10%)</title><rect x="14.9" y="119" width="13.0" height="15.0" fill="rgb(0,0,0)" rx="2" ry="2" />
<text  x="17.88" y="129.5" ></text>
</g>
<g >
<title>Log_Event_subkernel147_cell_to__cell_integral_otherwise (1,421,199 us, 0.19%)</title><rect x="1009.4" y="263" width="2.3" height="15.0" fill="rgb(0,0,0)" rx="2" ry="2" />
<text  x="1012.41" y="273.5" ></text>
</g>
<g >
<title>ParLoopExecute (4,867,324 us, 0.65%)</title><rect x="30.0" y="167" width="7.7" height="15.0" fill="rgb(0,0,0)" rx="2" ry="2" />
<text  x="33.02" y="177.5" ></text>
</g>
<g >
<title>Log_Event_mtf_solve_79 (22,864,924 us, 3.07%)</title><rect x="1017.5" y="247" width="36.2" height="15.0" fill="rgb(0,0,0)" rx="2" ry="2" />
<text  x="1020.48" y="257.5" >Lo..</text>
</g>
<g >
<title>Log_Event_subkernel97_cell_to__cell_integral_otherwise (859,655 us, 0.12%)</title><rect x="1039.8" y="295" width="1.3" height="15.0" fill="rgb(0,0,0)" rx="2" ry="2" />
<text  x="1042.76" y="305.5" ></text>
</g>
<g >
<title>Log_Event_subkernel93_cell_to__cell_integral_otherwise (3,226,448 us, 0.43%)</title><rect x="1048.6" y="279" width="5.1" height="15.0" fill="rgb(0,0,0)" rx="2" ry="2" />
<text  x="1051.56" y="289.5" ></text>
</g>
<g >
<title>Log_Event_mtf_solve_79 (1,741,125 us, 0.23%)</title><rect x="1187.2" y="311" width="2.8" height="15.0" fill="rgb(0,0,0)" rx="2" ry="2" />
<text  x="1190.25" y="321.5" ></text>
</g>
<g >
<title>Log_Event_slate_loopy_knl_77 (669,176,566 us, 89.73%)</title><rect x="42.8" y="231" width="1058.9" height="15.0" fill="rgb(0,0,0)" rx="2" ry="2" />
<text  x="45.85" y="241.5" >Log_Event_slate_loopy_knl_77</text>
</g>
<g >
<title>Log_Event_subkernel117_cell_to__cell_integral_otherwise (2,818,844 us, 0.38%)</title><rect x="106.8" y="263" width="4.4" height="15.0" fill="rgb(0,0,0)" rx="2" ry="2" />
<text  x="109.76" y="273.5" ></text>
</g>
<g >
<title>Log_Event_mtf_solve_82 (3,699,310 us, 0.50%)</title><rect x="1021.4" y="279" width="5.8" height="15.0" fill="rgb(0,0,0)" rx="2" ry="2" />
<text  x="1024.40" y="289.5" ></text>
</g>
<g >
<title>Log_Event_subkernel95_cell_to__cell_integral_otherwise (1,411,484 us, 0.19%)</title><rect x="1037.5" y="295" width="2.3" height="15.0" fill="rgb(0,0,0)" rx="2" ry="2" />
<text  x="1040.53" y="305.5" ></text>
</g>
<g >
<title>Log_Event_mtf_solve_120 (46,181,691 us, 6.19%)</title><rect x="1114.2" y="311" width="73.0" height="15.0" fill="rgb(0,0,0)" rx="2" ry="2" />
<text  x="1117.17" y="321.5" >Log_Eve..</text>
</g>
<g >
<title>Log_Event_subkernel22_cell_to__cell_integral_otherwise (1,129,981 us, 0.15%)</title><rect x="35.9" y="247" width="1.8" height="15.0" fill="rgb(0,0,0)" rx="2" ry="2" />
<text  x="38.93" y="257.5" ></text>
</g>
<g >
<title>PCApply (734,464,863 us, 98.48%)</title><rect x="27.9" y="119" width="1162.1" height="15.0" fill="rgb(0,0,0)" rx="2" ry="2" />
<text  x="30.90" y="129.5" >PCApply</text>
</g>
<g >
<title>Log_Event_tensorshell_knl_92 (870,511 us, 0.12%)</title><rect x="1188.6" y="327" width="1.4" height="15.0" fill="rgb(0,0,0)" rx="2" ry="2" />
<text  x="1191.62" y="337.5" ></text>
</g>
<g >
<title>Log_Event_subkernel141_cell_to__cell_integral_otherwise (12,172,944 us, 1.63%)</title><rect x="1168.0" y="343" width="19.2" height="15.0" fill="rgb(0,0,0)" rx="2" ry="2" />
<text  x="1170.98" y="353.5" ></text>
</g>
<g >
<title>PCApply (55,837,627 us, 7.49%)</title><rect x="1101.7" y="167" width="88.3" height="15.0" fill="rgb(0,0,0)" rx="2" ry="2" />
<text  x="1104.65" y="177.5" >PCApply</text>
</g>
<g >
<title>Log_Event_subkernel139_cell_to__cell_integral_otherwise (10,381,511 us, 1.39%)</title><rect x="1131.3" y="359" width="16.4" height="15.0" fill="rgb(0,0,0)" rx="2" ry="2" />
<text  x="1134.25" y="369.5" ></text>
</g>
<g >
<title>all (745,775,767 us, 100%)</title><rect x="10.0" y="39" width="1180.0" height="15.0" fill="rgb(0,0,0)" rx="2" ry="2" />
<text  x="13.00" y="49.5" ></text>
</g>
<g >
<title>ParLoopExecute (672,419,564 us, 90.16%)</title><rect x="37.7" y="199" width="1064.0" height="15.0" fill="rgb(0,0,0)" rx="2" ry="2" />
<text  x="40.72" y="209.5" >ParLoopExecute</text>
</g>
<g >
<title>Log_Event_subkernel124_cell_to__cell_integral_otherwise (1,408,783 us, 0.19%)</title><rect x="117.4" y="295" width="2.2" height="15.0" fill="rgb(0,0,0)" rx="2" ry="2" />
<text  x="120.41" y="305.5" ></text>
</g>
<g >
<title>Log_Event_subkernel81_cell_to__cell_integral_otherwise (3,225,733 us, 0.43%)</title><rect x="1027.2" y="279" width="5.2" height="15.0" fill="rgb(0,0,0)" rx="2" ry="2" />
<text  x="1030.25" y="289.5" ></text>
</g>
<g >
<title>Log_Event_subkernel85_cell_to__cell_integral_otherwise (858,635 us, 0.12%)</title><rect x="1023.6" y="295" width="1.4" height="15.0" fill="rgb(0,0,0)" rx="2" ry="2" />
<text  x="1026.62" y="305.5" ></text>
</g>
<g >
<title>Log_Event_subkernel15_cell_to__cell_integral_otherwise (1,097,739 us, 0.15%)</title><rect x="34.2" y="247" width="1.7" height="15.0" fill="rgb(0,0,0)" rx="2" ry="2" />
<text  x="37.19" y="257.5" ></text>
</g>
<g >
<title>Log_Event_tensorshell_knl_121 (11,599,976 us, 1.56%)</title><rect x="117.4" y="263" width="18.4" height="15.0" fill="rgb(0,0,0)" rx="2" ry="2" />
<text  x="120.41" y="273.5" ></text>
</g>
<g >
<title>KSPSetUp (55,837,627 us, 7.49%)</title><rect x="1101.7" y="199" width="88.3" height="15.0" fill="rgb(0,0,0)" rx="2" ry="2" />
<text  x="1104.65" y="209.5" >KSPSetUp</text>
</g>
<g >
<title>Parloop_Cells_wrap_slate_loopy_knl_0 (4,867,324 us, 0.65%)</title><rect x="30.0" y="183" width="7.7" height="15.0" fill="rgb(0,0,0)" rx="2" ry="2" />
<text  x="33.02" y="193.5" ></text>
</g>
<g >
<title>KSPSolve (742,694,079 us, 99.59%)</title><rect x="14.9" y="103" width="1175.1" height="15.0" fill="rgb(0,0,0)" rx="2" ry="2" />
<text  x="17.88" y="113.5" >KSPSolve</text>
</g>
<g >
<title>Log_Event_subkernel106_cell_to__cell_integral_otherwise (1,434,357 us, 0.19%)</title><rect x="97.3" y="263" width="2.3" height="15.0" fill="rgb(0,0,0)" rx="2" ry="2" />
<text  x="100.30" y="273.5" ></text>
</g>
<g >
<title>Log_Event_subkernel111_interior_facet_vert_to__exterior_facet_vert_integral_otherwise (4,181,596 us, 0.56%)</title><rect x="1058.8" y="247" width="6.6" height="15.0" fill="rgb(0,0,0)" rx="2" ry="2" />
<text  x="1061.76" y="257.5" ></text>
</g>
<g >
<title>Log_Event_slate_loopy_knl_0 (4,867,324 us, 0.65%)</title><rect x="30.0" y="199" width="7.7" height="15.0" fill="rgb(0,0,0)" rx="2" ry="2" />
<text  x="33.02" y="209.5" ></text>
</g>
<g >
<title>Log_Event_subkernel153_interior_facet_vert_to__exterior_facet_vert_integral_otherwise (4,179,696 us, 0.56%)</title><rect x="1095.0" y="247" width="6.7" height="15.0" fill="rgb(0,0,0)" rx="2" ry="2" />
<text  x="1098.04" y="257.5" ></text>
</g>
<g >
<title>Log_Event_tensorshell_knl_92 (10,199,009 us, 1.37%)</title><rect x="1037.5" y="263" width="16.2" height="15.0" fill="rgb(0,0,0)" rx="2" ry="2" />
<text  x="1040.53" y="273.5" ></text>
</g>
<g >
<title>Log_Event_subkernel138_cell_to__cell_integral_otherwise (38,587,631 us, 5.17%)</title><rect x="260.0" y="295" width="61.1" height="15.0" fill="rgb(0,0,0)" rx="2" ry="2" />
<text  x="263.03" y="305.5" >Log_E..</text>
</g>
<g >
<title>Log_Event_mtf_solve_120 (567,666,316 us, 76.12%)</title><rect x="111.2" y="247" width="898.2" height="15.0" fill="rgb(0,0,0)" rx="2" ry="2" />
<text  x="114.22" y="257.5" >Log_Event_mtf_solve_120</text>
</g>
<g >
<title>Parloop_Cells_wrap_slate_loopy_knl_77 (54,504,167 us, 7.31%)</title><rect x="1103.8" y="279" width="86.2" height="15.0" fill="rgb(0,0,0)" rx="2" ry="2" />
<text  x="1106.76" y="289.5" >Parloop_C..</text>
</g>
<g >
<title>PCSetUp (55,837,627 us, 7.49%)</title><rect x="1101.7" y="183" width="88.3" height="15.0" fill="rgb(0,0,0)" rx="2" ry="2" />
<text  x="1104.65" y="193.5" >PCSetUp</text>
</g>
<g >
<title>Log_Event_subkernel119_cell_to__cell_integral_otherwise (3,270,813 us, 0.44%)</title><rect x="1078.2" y="247" width="5.1" height="15.0" fill="rgb(0,0,0)" rx="2" ry="2" />
<text  x="1081.17" y="257.5" ></text>
</g>
<g >
<title>Log_Event_mtf_solve_123 (5,098,449 us, 0.68%)</title><rect x="117.4" y="279" width="8.1" height="15.0" fill="rgb(0,0,0)" rx="2" ry="2" />
<text  x="120.41" y="289.5" ></text>
</g>
<g >
<title>ParLoopExecute (54,504,167 us, 7.31%)</title><rect x="1103.8" y="263" width="86.2" height="15.0" fill="rgb(0,0,0)" rx="2" ry="2" />
<text  x="1106.76" y="273.5" >ParLoopEx..</text>
</g>
<g >
<title>Log_Event_mtf_solve_146 (5,102,140 us, 0.68%)</title><rect x="1009.4" y="247" width="8.1" height="15.0" fill="rgb(0,0,0)" rx="2" ry="2" />
<text  x="1012.41" y="257.5" ></text>
</g>
<g >
<title>KSPSolve (55,837,627 us, 7.49%)</title><rect x="1101.7" y="215" width="88.3" height="15.0" fill="rgb(0,0,0)" rx="2" ry="2" />
<text  x="1104.65" y="225.5" >KSPSolve</text>
</g>
<g >
<title>Log_Event_subkernel141_cell_to__cell_integral_otherwise (147,337,450 us, 19.76%)</title><rect x="774.0" y="279" width="233.1" height="15.0" fill="rgb(0,0,0)" rx="2" ry="2" />
<text  x="776.99" y="289.5" >Log_Event_subkernel141_cell_..</text>
</g>
<g >
<title>Log_Event_subkernel152_interior_facet_vert_to__exterior_facet_vert_integral_otherwise (4,174,815 us, 0.56%)</title><rect x="1088.4" y="247" width="6.6" height="15.0" fill="rgb(0,0,0)" rx="2" ry="2" />
<text  x="1091.43" y="257.5" ></text>
</g>
<g >
<title>HybridRHS (6,207,672 us, 0.83%)</title><rect x="27.9" y="151" width="9.8" height="15.0" fill="rgb(0,0,0)" rx="2" ry="2" />
<text  x="30.90" y="161.5" ></text>
</g>
<g >
<title>MatMult (55,837,627 us, 7.49%)</title><rect x="1101.7" y="231" width="88.3" height="15.0" fill="rgb(0,0,0)" rx="2" ry="2" />
<text  x="1104.65" y="241.5" >MatMult</text>
</g>
<g >
<title>Log_Event_mtf_solve_113 (5,093,717 us, 0.68%)</title><rect x="103.2" y="247" width="8.0" height="15.0" fill="rgb(0,0,0)" rx="2" ry="2" />
<text  x="106.17" y="257.5" ></text>
</g>
<g >
<title>Log_Event_mtf_solve_105 (3,705,101 us, 0.50%)</title><rect x="97.3" y="247" width="5.9" height="15.0" fill="rgb(0,0,0)" rx="2" ry="2" />
<text  x="100.30" y="257.5" ></text>
</g>
<g >
<title>Log_Event_subkernel136_cell_to__cell_integral_otherwise (63,217,788 us, 8.48%)</title><rect x="160.0" y="295" width="100.0" height="15.0" fill="rgb(0,0,0)" rx="2" ry="2" />
<text  x="163.01" y="305.5" >Log_Event_s..</text>
</g>
<g >
<title>SCForwardElim (6,207,672 us, 0.83%)</title><rect x="27.9" y="135" width="9.8" height="15.0" fill="rgb(0,0,0)" rx="2" ry="2" />
<text  x="30.90" y="145.5" ></text>
</g>
<g >
<title>Log_Event_subkernel126_cell_to__cell_integral_otherwise (858,942 us, 0.12%)</title><rect x="119.6" y="295" width="1.4" height="15.0" fill="rgb(0,0,0)" rx="2" ry="2" />
<text  x="122.64" y="305.5" ></text>
</g>
<g >
<title>Log_Event_subkernel136_cell_to__cell_integral_otherwise (5,165,367 us, 0.69%)</title><rect x="1118.1" y="359" width="8.1" height="15.0" fill="rgb(0,0,0)" rx="2" ry="2" />
<text  x="1121.07" y="369.5" ></text>
</g>
<g >
<title>SNESSolve (742,694,079 us, 99.59%)</title><rect x="14.9" y="87" width="1175.1" height="15.0" fill="rgb(0,0,0)" rx="2" ry="2" />
<text  x="17.88" y="97.5" >SNESSolve</text>
</g>
<g >
<title>firedrake.variational_solver.NonlinearVariationalSolver.solve (742,694,079 us, 99.59%)</title><rect x="14.9" y="71" width="1175.1" height="15.0" fill="rgb(0,0,0)" rx="2" ry="2" />
<text  x="17.88" y="81.5" >firedrake.variational_solver.NonlinearVariationalSolver.solve</text>
</g>
<g >
<title>Log_Event_mtf_solve_135 (20,920,797 us, 2.81%)</title><rect x="1115.8" y="343" width="33.1" height="15.0" fill="rgb(0,0,0)" rx="2" ry="2" />
<text  x="1118.78" y="353.5" >Lo..</text>
</g>
<g >
<title>pyop2.global_kernel.GlobalKernel.compile (3,169,852 us, 0.43%)</title><rect x="21.3" y="183" width="5.0" height="15.0" fill="rgb(0,0,0)" rx="2" ry="2" />
<text  x="24.28" y="193.5" ></text>
</g>
<g >
<title>Log_Event_subkernel98_cell_to__cell_integral_otherwise (1,431,391 us, 0.19%)</title><rect x="1041.1" y="295" width="2.3" height="15.0" fill="rgb(0,0,0)" rx="2" ry="2" />
<text  x="1044.12" y="305.5" ></text>
</g>
<g >
<title>Log_Event_mtf_solve_16 (1,938,961 us, 0.26%)</title><rect x="31.1" y="247" width="3.1" height="15.0" fill="rgb(0,0,0)" rx="2" ry="2" />
<text  x="34.13" y="257.5" ></text>
</g>
<g >
<title>Log_Event_tensorshell_knl_137 (4,617,286 us, 0.62%)</title><rect x="522.0" y="295" width="7.3" height="15.0" fill="rgb(0,0,0)" rx="2" ry="2" />
<text  x="524.97" y="305.5" ></text>
</g>
<g >
<title>Log_Event_tensorshell_knl_80 (870,614 us, 0.12%)</title><rect x="1187.2" y="327" width="1.4" height="15.0" fill="rgb(0,0,0)" rx="2" ry="2" />
<text  x="1190.25" y="337.5" ></text>
</g>
<g >
<title>Log_Event_subkernel127_cell_to__cell_integral_otherwise (2,830,724 us, 0.38%)</title><rect x="121.0" y="295" width="4.5" height="15.0" fill="rgb(0,0,0)" rx="2" ry="2" />
<text  x="124.00" y="305.5" ></text>
</g>
<g >
<title>Log_Event_subkernel114_cell_to__cell_integral_otherwise (1,426,828 us, 0.19%)</title><rect x="103.2" y="263" width="2.2" height="15.0" fill="rgb(0,0,0)" rx="2" ry="2" />
<text  x="106.17" y="273.5" ></text>
</g>
<g >
<title>Log_Event_subkernel20_cell_to__cell_integral_otherwise (960,234 us, 0.13%)</title><rect x="32.7" y="263" width="1.5" height="15.0" fill="rgb(0,0,0)" rx="2" ry="2" />
<text  x="35.67" y="273.5" ></text>
</g>
<g >
<title>Log_Event_tensorshell_knl_121 (1,011,869 us, 0.14%)</title><rect x="1114.2" y="327" width="1.6" height="15.0" fill="rgb(0,0,0)" rx="2" ry="2" />
<text  x="1117.17" y="337.5" ></text>
</g>
<g >
<title>Log_Event_subkernel150_cell_to__cell_integral_otherwise (2,826,558 us, 0.38%)</title><rect x="1013.0" y="263" width="4.5" height="15.0" fill="rgb(0,0,0)" rx="2" ry="2" />
<text  x="1016.01" y="273.5" ></text>
</g>
<g >
<title>Parloop_Cells_wrap_form0_cell_integral_otherwise (4,044,513 us, 0.54%)</title><rect x="14.9" y="167" width="6.4" height="15.0" fill="rgb(0,0,0)" rx="2" ry="2" />
<text  x="17.88" y="177.5" ></text>
</g>
<g >
<title>Log_Event_subkernel100_cell_to__cell_integral_otherwise (3,270,031 us, 0.44%)</title><rect x="1043.4" y="279" width="5.2" height="15.0" fill="rgb(0,0,0)" rx="2" ry="2" />
<text  x="1046.38" y="289.5" ></text>
</g>
<g >
<title>firedrake.matrix_free.operators.ImplicitMatrixContext.mult (8,229,216 us, 1.10%)</title><rect x="14.9" y="135" width="13.0" height="15.0" fill="rgb(0,0,0)" rx="2" ry="2" />
<text  x="17.88" y="145.5" ></text>
</g>
<g >
<title>Log_Event_mtf_solve_1 (4,166,681 us, 0.56%)</title><rect x="31.1" y="215" width="6.6" height="15.0" fill="rgb(0,0,0)" rx="2" ry="2" />
<text  x="34.13" y="225.5" ></text>
</g>
<g >
<title>Log_Event_subkernel138_cell_to__cell_integral_otherwise (3,164,351 us, 0.42%)</title><rect x="1126.2" y="359" width="5.1" height="15.0" fill="rgb(0,0,0)" rx="2" ry="2" />
<text  x="1129.24" y="369.5" ></text>
</g>
<g >
<title>firedrake.matrix_free.operators.ImplicitMatrixContext.mult (672,419,564 us, 90.16%)</title><rect x="37.7" y="183" width="1064.0" height="15.0" fill="rgb(0,0,0)" rx="2" ry="2" />
<text  x="40.72" y="193.5" >firedrake.matrix_free.operators.ImplicitMatrixContext.mult</text>
</g>
<g >
<title>KSPSolve (728,257,191 us, 97.65%)</title><rect x="37.7" y="151" width="1152.3" height="15.0" fill="rgb(0,0,0)" rx="2" ry="2" />
<text  x="40.72" y="161.5" >KSPSolve</text>
</g>
<g >
<title>Log_Event_subkernel149_cell_to__cell_integral_otherwise (854,383 us, 0.11%)</title><rect x="1011.7" y="263" width="1.3" height="15.0" fill="rgb(0,0,0)" rx="2" ry="2" />
<text  x="1014.66" y="273.5" ></text>
</g>
<g >
<title>Log_Event_subkernel134_cell_to__cell_integral_otherwise (145,333,024 us, 19.49%)</title><rect x="544.0" y="279" width="230.0" height="15.0" fill="rgb(0,0,0)" rx="2" ry="2" />
<text  x="547.04" y="289.5" >Log_Event_subkernel134_cell..</text>
</g>
<g >
<title>Log_Event_subkernel145_cell_to__cell_integral_otherwise (3,216,855 us, 0.43%)</title><rect x="1083.3" y="247" width="5.1" height="15.0" fill="rgb(0,0,0)" rx="2" ry="2" />
<text  x="1086.34" y="257.5" ></text>
</g>
<g >
<title>firedrake.tsfc_interface.compile_form (1,014,851 us, 0.14%)</title><rect x="26.3" y="151" width="1.6" height="15.0" fill="rgb(0,0,0)" rx="2" ry="2" />
<text  x="29.29" y="161.5" ></text>
</g>
<g >
<title>Log_Event_mtf_solve_135 (255,862,750 us, 34.31%)</title><rect x="139.2" y="279" width="404.8" height="15.0" fill="rgb(0,0,0)" rx="2" ry="2" />
<text  x="142.20" y="289.5" >Log_Event_mtf_solve_135</text>
</g>
<g >
<title>Log_Event_subkernel139_cell_to__cell_integral_otherwise (126,961,069 us, 17.02%)</title><rect x="321.1" y="295" width="200.9" height="15.0" fill="rgb(0,0,0)" rx="2" ry="2" />
<text  x="324.09" y="305.5" >Log_Event_subkernel139_c..</text>
</g>
<g >
<title>Log_Event_subkernel112_interior_facet_vert_to__exterior_facet_vert_integral_otherwise (8,084,711 us, 1.08%)</title><rect x="1065.4" y="247" width="12.8" height="15.0" fill="rgb(0,0,0)" rx="2" ry="2" />
<text  x="1068.38" y="257.5" ></text>
</g>
<g >
<title>pyop2.global_kernel.GlobalKernel.compile (4,044,513 us, 0.54%)</title><rect x="14.9" y="183" width="6.4" height="15.0" fill="rgb(0,0,0)" rx="2" ry="2" />
<text  x="17.88" y="193.5" ></text>
</g>
<g >
<title>Log_Event_subkernel88_cell_to__cell_integral_otherwise (3,268,739 us, 0.44%)</title><rect x="1032.4" y="279" width="5.1" height="15.0" fill="rgb(0,0,0)" rx="2" ry="2" />
<text  x="1035.35" y="289.5" ></text>
</g>
<g >
<title>Log_Event_subkernel134_cell_to__cell_integral_otherwise (12,076,081 us, 1.62%)</title><rect x="1148.9" y="343" width="19.1" height="15.0" fill="rgb(0,0,0)" rx="2" ry="2" />
<text  x="1151.88" y="353.5" ></text>
</g>
<g >
<title>Log_Event_tensorshell_knl_143 (1,452,637 us, 0.19%)</title><rect x="1007.1" y="263" width="2.3" height="15.0" fill="rgb(0,0,0)" rx="2" ry="2" />
<text  x="1010.11" y="273.5" ></text>
</g>
<g >
<title>Log_Event_subkernel86_cell_to__cell_integral_otherwise (1,432,979 us, 0.19%)</title><rect x="1025.0" y="295" width="2.2" height="15.0" fill="rgb(0,0,0)" rx="2" ry="2" />
<text  x="1027.98" y="305.5" ></text>
</g>
</g>
</svg>
