<?xml version="1.0" standalone="no"?>
<!DOCTYPE svg PUBLIC "-//W3C//DTD SVG 1.1//EN" "http://www.w3.org/Graphics/SVG/1.1/DTD/svg11.dtd">
<svg version="1.1" width="1200" height="299" onload="init(evt)" viewBox="0 0 1200 299" xmlns="http://www.w3.org/2000/svg" xmlns:xlink="http://www.w3.org/1999/xlink">
<!-- Flame graph stack visualization. See https://github.com/brendangregg/FlameGraph for latest version, and http://www.brendangregg.com/flamegraphs.html for examples. -->
<!-- NOTES:  -->
<defs>
	<linearGradient id="background" y1="0" y2="1" x1="0" x2="0" >
		<stop stop-color="#eeeeee" offset="5%" />
		<stop stop-color="#eeeeb0" offset="95%" />
	</linearGradient>
</defs>
<style type="text/css">
	text { font-family:Verdana; font-size:13px; fill:rgb(0,0,0); }
	#search, #ignorecase { opacity:0.1; cursor:pointer; }
	#search:hover, #search.show, #ignorecase:hover, #ignorecase.show { opacity:1; }
	#subtitle { text-anchor:middle; font-color:rgb(160,160,160); }
	#title { text-anchor:middle; font-size:18px}
	#unzoom { cursor:pointer; }
	#frames > *:hover { stroke:black; stroke-width:0.5; cursor:pointer; }
	.hide { display:none; }
	.parent { opacity:0.5; }
</style>
<script type="text/ecmascript">
<![CDATA[
	"use strict";
	var details, searchbtn, unzoombtn, matchedtxt, svg, searching, currentSearchTerm, ignorecase, ignorecaseBtn;
	function init(evt) {
		details = document.getElementById("details").firstChild;
		searchbtn = document.getElementById("search");
		ignorecaseBtn = document.getElementById("ignorecase");
		unzoombtn = document.getElementById("unzoom");
		matchedtxt = document.getElementById("matched");
		svg = document.getElementsByTagName("svg")[0];
		searching = 0;
		currentSearchTerm = null;

		// use GET parameters to restore a flamegraphs state.
		var params = get_params();
		if (params.x && params.y)
			zoom(find_group(document.querySelector('[x="' + params.x + '"][y="' + params.y + '"]')));
                if (params.s) search(params.s);
	}

	// event listeners
	window.addEventListener("click", function(e) {
		var target = find_group(e.target);
		if (target) {
			if (target.nodeName == "a") {
				if (e.ctrlKey === false) return;
				e.preventDefault();
			}
			if (target.classList.contains("parent")) unzoom();
			zoom(target);
			if (!document.querySelector('.parent')) {
				clearzoom();
				return;
			}

			// set parameters for zoom state
			var el = target.querySelector("rect");
			if (el && el.attributes && el.attributes.y && el.attributes._orig_x) {
				var params = get_params()
				params.x = el.attributes._orig_x.value;
				params.y = el.attributes.y.value;
				history.replaceState(null, null, parse_params(params));
			}
		}
		else if (e.target.id == "unzoom") clearzoom();
		else if (e.target.id == "search") search_prompt();
		else if (e.target.id == "ignorecase") toggle_ignorecase();
	}, false)

	// mouse-over for info
	// show
	window.addEventListener("mouseover", function(e) {
		var target = find_group(e.target);
		if (target) details.nodeValue = "Function: " + g_to_text(target);
	}, false)

	// clear
	window.addEventListener("mouseout", function(e) {
		var target = find_group(e.target);
		if (target) details.nodeValue = ' ';
	}, false)

	// ctrl-F for search
	// ctrl-I to toggle case-sensitive search
	window.addEventListener("keydown",function (e) {
		if (e.keyCode === 114 || (e.ctrlKey && e.keyCode === 70)) {
			e.preventDefault();
			search_prompt();
		}
		else if (e.ctrlKey && e.keyCode === 73) {
			e.preventDefault();
			toggle_ignorecase();
		}
	}, false)

	// functions
	function get_params() {
		var params = {};
		var paramsarr = window.location.search.substr(1).split('&');
		for (var i = 0; i < paramsarr.length; ++i) {
			var tmp = paramsarr[i].split("=");
			if (!tmp[0] || !tmp[1]) continue;
			params[tmp[0]]  = decodeURIComponent(tmp[1]);
		}
		return params;
	}
	function parse_params(params) {
		var uri = "?";
		for (var key in params) {
			uri += key + '=' + encodeURIComponent(params[key]) + '&';
		}
		if (uri.slice(-1) == "&")
			uri = uri.substring(0, uri.length - 1);
		if (uri == '?')
			uri = window.location.href.split('?')[0];
		return uri;
	}
	function find_child(node, selector) {
		var children = node.querySelectorAll(selector);
		if (children.length) return children[0];
	}
	function find_group(node) {
		var parent = node.parentElement;
		if (!parent) return;
		if (parent.id == "frames") return node;
		return find_group(parent);
	}
	function orig_save(e, attr, val) {
		if (e.attributes["_orig_" + attr] != undefined) return;
		if (e.attributes[attr] == undefined) return;
		if (val == undefined) val = e.attributes[attr].value;
		e.setAttribute("_orig_" + attr, val);
	}
	function orig_load(e, attr) {
		if (e.attributes["_orig_"+attr] == undefined) return;
		e.attributes[attr].value = e.attributes["_orig_" + attr].value;
		e.removeAttribute("_orig_"+attr);
	}
	function g_to_text(e) {
		var text = find_child(e, "title").firstChild.nodeValue;
		return (text)
	}
	function g_to_func(e) {
		var func = g_to_text(e);
		// if there's any manipulation we want to do to the function
		// name before it's searched, do it here before returning.
		return (func);
	}
	function update_text(e) {
		var r = find_child(e, "rect");
		var t = find_child(e, "text");
		var w = parseFloat(r.attributes.width.value) -3;
		var txt = find_child(e, "title").textContent.replace(/\([^(]*\)$/,"");
		t.attributes.x.value = parseFloat(r.attributes.x.value) + 3;

		// Smaller than this size won't fit anything
		if (w < 2 * 13 * 0.59) {
			t.textContent = "";
			return;
		}

		t.textContent = txt;
		// Fit in full text width
		if (/^ *$/.test(txt) || t.getSubStringLength(0, txt.length) < w)
			return;

		for (var x = txt.length - 2; x > 0; x--) {
			if (t.getSubStringLength(0, x + 2) <= w) {
				t.textContent = txt.substring(0, x) + "..";
				return;
			}
		}
		t.textContent = "";
	}

	// zoom
	function zoom_reset(e) {
		if (e.attributes != undefined) {
			orig_load(e, "x");
			orig_load(e, "width");
		}
		if (e.childNodes == undefined) return;
		for (var i = 0, c = e.childNodes; i < c.length; i++) {
			zoom_reset(c[i]);
		}
	}
	function zoom_child(e, x, ratio) {
		if (e.attributes != undefined) {
			if (e.attributes.x != undefined) {
				orig_save(e, "x");
				e.attributes.x.value = (parseFloat(e.attributes.x.value) - x - 10) * ratio + 10;
				if (e.tagName == "text")
					e.attributes.x.value = find_child(e.parentNode, "rect[x]").attributes.x.value + 3;
			}
			if (e.attributes.width != undefined) {
				orig_save(e, "width");
				e.attributes.width.value = parseFloat(e.attributes.width.value) * ratio;
			}
		}

		if (e.childNodes == undefined) return;
		for (var i = 0, c = e.childNodes; i < c.length; i++) {
			zoom_child(c[i], x - 10, ratio);
		}
	}
	function zoom_parent(e) {
		if (e.attributes) {
			if (e.attributes.x != undefined) {
				orig_save(e, "x");
				e.attributes.x.value = 10;
			}
			if (e.attributes.width != undefined) {
				orig_save(e, "width");
				e.attributes.width.value = parseInt(svg.width.baseVal.value) - (10 * 2);
			}
		}
		if (e.childNodes == undefined) return;
		for (var i = 0, c = e.childNodes; i < c.length; i++) {
			zoom_parent(c[i]);
		}
	}
	function zoom(node) {
		var attr = find_child(node, "rect").attributes;
		var width = parseFloat(attr.width.value);
		var xmin = parseFloat(attr.x.value);
		var xmax = parseFloat(xmin + width);
		var ymin = parseFloat(attr.y.value);
		var ratio = (svg.width.baseVal.value - 2 * 10) / width;

		// XXX: Workaround for JavaScript float issues (fix me)
		var fudge = 0.0001;

		unzoombtn.classList.remove("hide");

		var el = document.getElementById("frames").children;
		for (var i = 0; i < el.length; i++) {
			var e = el[i];
			var a = find_child(e, "rect").attributes;
			var ex = parseFloat(a.x.value);
			var ew = parseFloat(a.width.value);
			var upstack;
			// Is it an ancestor
			if (1 == 0) {
				upstack = parseFloat(a.y.value) > ymin;
			} else {
				upstack = parseFloat(a.y.value) < ymin;
			}
			if (upstack) {
				// Direct ancestor
				if (ex <= xmin && (ex+ew+fudge) >= xmax) {
					e.classList.add("parent");
					zoom_parent(e);
					update_text(e);
				}
				// not in current path
				else
					e.classList.add("hide");
			}
			// Children maybe
			else {
				// no common path
				if (ex < xmin || ex + fudge >= xmax) {
					e.classList.add("hide");
				}
				else {
					zoom_child(e, xmin, ratio);
					update_text(e);
				}
			}
		}
		search();
	}
	function unzoom() {
		unzoombtn.classList.add("hide");
		var el = document.getElementById("frames").children;
		for(var i = 0; i < el.length; i++) {
			el[i].classList.remove("parent");
			el[i].classList.remove("hide");
			zoom_reset(el[i]);
			update_text(el[i]);
		}
		search();
	}
	function clearzoom() {
		unzoom();

		// remove zoom state
		var params = get_params();
		if (params.x) delete params.x;
		if (params.y) delete params.y;
		history.replaceState(null, null, parse_params(params));
	}

	// search
	function toggle_ignorecase() {
		ignorecase = !ignorecase;
		if (ignorecase) {
			ignorecaseBtn.classList.add("show");
		} else {
			ignorecaseBtn.classList.remove("show");
		}
		reset_search();
		search();
	}
	function reset_search() {
		var el = document.querySelectorAll("#frames rect");
		for (var i = 0; i < el.length; i++) {
			orig_load(el[i], "fill")
		}
		var params = get_params();
		delete params.s;
		history.replaceState(null, null, parse_params(params));
	}
	function search_prompt() {
		if (!searching) {
			var term = prompt("Enter a search term (regexp " +
			    "allowed, eg: ^ext4_)"
			    + (ignorecase ? ", ignoring case" : "")
			    + "\nPress Ctrl-i to toggle case sensitivity", "");
			if (term != null) search(term);
		} else {
			reset_search();
			searching = 0;
			currentSearchTerm = null;
			searchbtn.classList.remove("show");
			searchbtn.firstChild.nodeValue = "Search"
			matchedtxt.classList.add("hide");
			matchedtxt.firstChild.nodeValue = ""
		}
	}
	function search(term) {
		if (term) currentSearchTerm = term;

		var re = new RegExp(currentSearchTerm, ignorecase ? 'i' : '');
		var el = document.getElementById("frames").children;
		var matches = new Object();
		var maxwidth = 0;
		for (var i = 0; i < el.length; i++) {
			var e = el[i];
			var func = g_to_func(e);
			var rect = find_child(e, "rect");
			if (func == null || rect == null)
				continue;

			// Save max width. Only works as we have a root frame
			var w = parseFloat(rect.attributes.width.value);
			if (w > maxwidth)
				maxwidth = w;

			if (func.match(re)) {
				// highlight
				var x = parseFloat(rect.attributes.x.value);
				orig_save(rect, "fill");
				rect.attributes.fill.value = "rgb(230,0,230)";

				// remember matches
				if (matches[x] == undefined) {
					matches[x] = w;
				} else {
					if (w > matches[x]) {
						// overwrite with parent
						matches[x] = w;
					}
				}
				searching = 1;
			}
		}
		if (!searching)
			return;
		var params = get_params();
		params.s = currentSearchTerm;
		history.replaceState(null, null, parse_params(params));

		searchbtn.classList.add("show");
		searchbtn.firstChild.nodeValue = "Reset Search";

		// calculate percent matched, excluding vertical overlap
		var count = 0;
		var lastx = -1;
		var lastw = 0;
		var keys = Array();
		for (k in matches) {
			if (matches.hasOwnProperty(k))
				keys.push(k);
		}
		// sort the matched frames by their x location
		// ascending, then width descending
		keys.sort(function(a, b){
			return a - b;
		});
		// Step through frames saving only the biggest bottom-up frames
		// thanks to the sort order. This relies on the tree property
		// where children are always smaller than their parents.
		var fudge = 0.0001;	// JavaScript floating point
		for (var k in keys) {
			var x = parseFloat(keys[k]);
			var w = matches[keys[k]];
			if (x >= lastx + lastw - fudge) {
				count += w;
				lastx = x;
				lastw = w;
			}
		}
		// display matched percent
		matchedtxt.classList.remove("hide");
		var pct = 100 * count / maxwidth;
		if (pct != 100) pct = pct.toFixed(1)
		matchedtxt.firstChild.nodeValue = "Matched: " + pct + "%";
	}
]]>
</script>
<rect x="0.0" y="0" width="1200.0" height="299.0" fill="url(#background)"  />
<text id="title" x="600.00" y="26" >Firedrake example</text>
<text id="details" x="10.00" y="281" > </text>
<text id="unzoom" x="10.00" y="26" class="hide">Reset Zoom</text>
<text id="search" x="1090.00" y="26" >Search</text>
<text id="ignorecase" x="1174.00" y="26" >ic</text>
<text id="matched" x="1090.00" y="281" > </text>
<g id="frames">
<g >
<title>firedrake.functionspace.make_scalar_element (1,665 us, 0.04%)</title><rect x="1174.7" y="199" width="0.4" height="15.0" fill="rgb(0,0,0)" rx="2" ry="2" />
<text  x="1177.65" y="209.5" ></text>
</g>
<g >
<title>firedrake.utility_meshes.RectangleMesh (1,720 us, 0.04%)</title><rect x="754.5" y="87" width="0.5" height="15.0" fill="rgb(0,0,0)" rx="2" ry="2" />
<text  x="757.52" y="97.5" ></text>
</g>
<g >
<title>all (4,433,461 us, 100%)</title><rect x="10.0" y="39" width="1180.0" height="15.0" fill="rgb(0,0,0)" rx="2" ry="2" />
<text  x="13.00" y="49.5" ></text>
</g>
<g >
<title>Log_Event_tensorshell_knl_2 (3,395 us, 0.08%)</title><rect x="1063.1" y="231" width="0.9" height="15.0" fill="rgb(0,0,0)" rx="2" ry="2" />
<text  x="1066.11" y="241.5" ></text>
</g>
<g >
<title>firedrake.utility_meshes.SquareMesh (1,720 us, 0.04%)</title><rect x="754.5" y="71" width="0.5" height="15.0" fill="rgb(0,0,0)" rx="2" ry="2" />
<text  x="757.52" y="81.5" ></text>
</g>
<g >
<title>firedrake.functionspaceimpl.FunctionSpace.__init__ (6,191 us, 0.14%)</title><rect x="348.8" y="119" width="1.6" height="15.0" fill="rgb(0,0,0)" rx="2" ry="2" />
<text  x="351.77" y="129.5" ></text>
</g>
<g >
<title>firedrake.ufl_expr.action (5,083 us, 0.11%)</title><rect x="755.0" y="87" width="1.3" height="15.0" fill="rgb(0,0,0)" rx="2" ry="2" />
<text  x="757.98" y="97.5" ></text>
</g>
<g >
<title>CreateFunctionSpace (6,191 us, 0.14%)</title><rect x="348.8" y="103" width="1.6" height="15.0" fill="rgb(0,0,0)" rx="2" ry="2" />
<text  x="351.77" y="113.5" ></text>
</g>
<g >
<title>CreateFunctionSpace (1,494 us, 0.03%)</title><rect x="1170.9" y="167" width="0.4" height="15.0" fill="rgb(0,0,0)" rx="2" ry="2" />
<text  x="1173.88" y="177.5" ></text>
</g>
<g >
<title>CreateSparsity (1,770 us, 0.04%)</title><rect x="1111.0" y="183" width="0.5" height="15.0" fill="rgb(0,0,0)" rx="2" ry="2" />
<text  x="1113.98" y="193.5" ></text>
</g>
<g >
<title>ParLoopExecute (38,323 us, 0.86%)</title><rect x="338.6" y="103" width="10.2" height="15.0" fill="rgb(0,0,0)" rx="2" ry="2" />
<text  x="341.57" y="113.5" ></text>
</g>
<g >
<title>firedrake.functionspace.VectorFunctionSpace (6,191 us, 0.14%)</title><rect x="348.8" y="87" width="1.6" height="15.0" fill="rgb(0,0,0)" rx="2" ry="2" />
<text  x="351.77" y="97.5" ></text>
</g>
<g >
<title>firedrake.ufl_expr.action (4,166 us, 0.09%)</title><rect x="759.9" y="119" width="1.1" height="15.0" fill="rgb(0,0,0)" rx="2" ry="2" />
<text  x="762.87" y="129.5" ></text>
</g>
<g >
<title>firedrake.functionspaceimpl.FunctionSpace.__init__ (18,076 us, 0.41%)</title><rect x="350.8" y="87" width="4.8" height="15.0" fill="rgb(0,0,0)" rx="2" ry="2" />
<text  x="353.81" y="97.5" ></text>
</g>
<g >
<title>pyop2.global_kernel.GlobalKernel.compile (34,408 us, 0.78%)</title><rect x="763.5" y="183" width="9.2" height="15.0" fill="rgb(0,0,0)" rx="2" ry="2" />
<text  x="766.51" y="193.5" ></text>
</g>
<g >
<title>Log_Event_tensorshell_knl_54 (3,299 us, 0.07%)</title><rect x="1065.8" y="231" width="0.9" height="15.0" fill="rgb(0,0,0)" rx="2" ry="2" />
<text  x="1068.80" y="241.5" ></text>
</g>
<g >
<title>SCSolve (319,656 us, 7.21%)</title><rect x="1077.8" y="135" width="85.1" height="15.0" fill="rgb(0,0,0)" rx="2" ry="2" />
<text  x="1080.78" y="145.5" >SCSolve</text>
</g>
<g >
<title>PCSetUp (101,957 us, 2.30%)</title><rect x="1162.9" y="103" width="27.1" height="15.0" fill="rgb(0,0,0)" rx="2" ry="2" />
<text  x="1165.86" y="113.5" >P..</text>
</g>
<g >
<title>firedrake.functionspacedata.get_shared_data (1,494 us, 0.03%)</title><rect x="1170.9" y="199" width="0.4" height="15.0" fill="rgb(0,0,0)" rx="2" ry="2" />
<text  x="1173.88" y="209.5" ></text>
</g>
<g >
<title>pyop2.global_kernel.GlobalKernel.compile (41,728 us, 0.94%)</title><rect x="1066.7" y="199" width="11.1" height="15.0" fill="rgb(0,0,0)" rx="2" ry="2" />
<text  x="1069.68" y="209.5" ></text>
</g>
<g >
<title>MatMult (96,448 us, 2.18%)</title><rect x="762.5" y="119" width="25.7" height="15.0" fill="rgb(0,0,0)" rx="2" ry="2" />
<text  x="765.51" y="129.5" >M..</text>
</g>
<g >
<title>firedrake.tsfc_interface.compile_form (26,592 us, 0.60%)</title><rect x="781.1" y="151" width="7.1" height="15.0" fill="rgb(0,0,0)" rx="2" ry="2" />
<text  x="784.10" y="161.5" ></text>
</g>
<g >
<title>firedrake.functionspaceimpl.FunctionSpace.__init__ (2,235 us, 0.05%)</title><rect x="1175.1" y="199" width="0.6" height="15.0" fill="rgb(0,0,0)" rx="2" ry="2" />
<text  x="1178.10" y="209.5" ></text>
</g>
<g >
<title>firedrake.formmanipulation.ExtractSubBlock.argument (8,447 us, 0.19%)</title><rect x="1173.4" y="167" width="2.3" height="15.0" fill="rgb(0,0,0)" rx="2" ry="2" />
<text  x="1176.44" y="177.5" ></text>
</g>
<g >
<title>pyop2.global_kernel.GlobalKernel.compile (41,231 us, 0.93%)</title><rect x="1093.6" y="199" width="10.9" height="15.0" fill="rgb(0,0,0)" rx="2" ry="2" />
<text  x="1096.56" y="209.5" ></text>
</g>
<g >
<title>firedrake.ufl_expr.adjoint (2,254 us, 0.05%)</title><rect x="1189.4" y="135" width="0.6" height="15.0" fill="rgb(0,0,0)" rx="2" ry="2" />
<text  x="1192.40" y="145.5" ></text>
</g>
<g >
<title>Parloop_Cells_wrap_form00_cell_integral_otherwise (41,231 us, 0.93%)</title><rect x="1093.6" y="183" width="10.9" height="15.0" fill="rgb(0,0,0)" rx="2" ry="2" />
<text  x="1096.56" y="193.5" ></text>
</g>
<g >
<title>firedrake.formmanipulation.ExtractSubBlock.split (12,009 us, 0.27%)</title><rect x="1172.5" y="151" width="3.2" height="15.0" fill="rgb(0,0,0)" rx="2" ry="2" />
<text  x="1175.50" y="161.5" ></text>
</g>
<g >
<title>firedrake.matrix_free.operators.ImplicitMatrixContext.mult (96,448 us, 2.18%)</title><rect x="762.5" y="135" width="25.7" height="15.0" fill="rgb(0,0,0)" rx="2" ry="2" />
<text  x="765.51" y="145.5" >f..</text>
</g>
<g >
<title>firedrake.formmanipulation.split_form (1,646 us, 0.04%)</title><rect x="787.7" y="167" width="0.5" height="15.0" fill="rgb(0,0,0)" rx="2" ry="2" />
<text  x="790.74" y="177.5" ></text>
</g>
<g >
<title>firedrake.formmanipulation.ExtractSubBlock.split (1,646 us, 0.04%)</title><rect x="787.7" y="183" width="0.5" height="15.0" fill="rgb(0,0,0)" rx="2" ry="2" />
<text  x="790.74" y="193.5" ></text>
</g>
<g >
<title>pyop2.global_kernel.GlobalKernel.compile (31,659 us, 0.71%)</title><rect x="772.7" y="183" width="8.4" height="15.0" fill="rgb(0,0,0)" rx="2" ry="2" />
<text  x="775.67" y="193.5" ></text>
</g>
<g >
<title>SNESSolve (1,608,767 us, 36.29%)</title><rect x="761.8" y="87" width="428.2" height="15.0" fill="rgb(0,0,0)" rx="2" ry="2" />
<text  x="764.81" y="97.5" >SNESSolve</text>
</g>
<g >
<title>firedrake.functionspace.MixedFunctionSpace (1,494 us, 0.03%)</title><rect x="1170.9" y="151" width="0.4" height="15.0" fill="rgb(0,0,0)" rx="2" ry="2" />
<text  x="1173.88" y="161.5" ></text>
</g>
<g >
<title>firedrake.variational_solver.NonlinearVariationalSolver.solve (1,608,767 us, 36.29%)</title><rect x="761.8" y="71" width="428.2" height="15.0" fill="rgb(0,0,0)" rx="2" ry="2" />
<text  x="764.81" y="81.5" >firedrake.variational_solver.NonlinearVariationalSolv..</text>
</g>
<g >
<title>firedrake.functionspacedata.get_shared_data (4,591 us, 0.10%)</title><rect x="1171.3" y="167" width="1.2" height="15.0" fill="rgb(0,0,0)" rx="2" ry="2" />
<text  x="1174.27" y="177.5" ></text>
</g>
<g >
<title>firedrake.variational_solver.NonlinearVariationalSolver.__init__ (7,294 us, 0.16%)</title><rect x="759.9" y="71" width="1.9" height="15.0" fill="rgb(0,0,0)" rx="2" ry="2" />
<text  x="762.87" y="81.5" ></text>
</g>
<g >
<title>CreateFunctionSpace (5,864 us, 0.13%)</title><rect x="1174.1" y="183" width="1.6" height="15.0" fill="rgb(0,0,0)" rx="2" ry="2" />
<text  x="1177.13" y="193.5" ></text>
</g>
<g >
<title>firedrake.variational_solver.LinearVariationalProblem.__init__ (18,391 us, 0.41%)</title><rect x="755.0" y="71" width="4.9" height="15.0" fill="rgb(0,0,0)" rx="2" ry="2" />
<text  x="757.98" y="81.5" ></text>
</g>
<g >
<title>firedrake.functionspacedata.FunctionSpaceData.__init__ (2,235 us, 0.05%)</title><rect x="1175.1" y="231" width="0.6" height="15.0" fill="rgb(0,0,0)" rx="2" ry="2" />
<text  x="1178.10" y="241.5" ></text>
</g>
<g >
<title>CreateSparsity (2,082 us, 0.05%)</title><rect x="1105.0" y="183" width="0.5" height="15.0" fill="rgb(0,0,0)" rx="2" ry="2" />
<text  x="1107.99" y="193.5" ></text>
</g>
<g >
<title>firedrake.variational_solver.NonlinearVariationalProblem.__init__ (13,308 us, 0.30%)</title><rect x="756.3" y="87" width="3.6" height="15.0" fill="rgb(0,0,0)" rx="2" ry="2" />
<text  x="759.33" y="97.5" ></text>
</g>
<g >
<title>firedrake.interpolation.make_interpolator (15,592 us, 0.35%)</title><rect x="1175.7" y="135" width="4.1" height="15.0" fill="rgb(0,0,0)" rx="2" ry="2" />
<text  x="1178.69" y="145.5" ></text>
</g>
<g >
<title>Log_Event_mtf_solve_16 (1,563 us, 0.04%)</title><rect x="1062.7" y="247" width="0.4" height="15.0" fill="rgb(0,0,0)" rx="2" ry="2" />
<text  x="1065.70" y="257.5" ></text>
</g>
<g >
<title>ParLoopExecute (66,067 us, 1.49%)</title><rect x="763.5" y="151" width="17.6" height="15.0" fill="rgb(0,0,0)" rx="2" ry="2" />
<text  x="766.51" y="161.5" ></text>
</g>
<g >
<title>firedrake.formmanipulation.split_form (12,009 us, 0.27%)</title><rect x="1172.5" y="135" width="3.2" height="15.0" fill="rgb(0,0,0)" rx="2" ry="2" />
<text  x="1175.50" y="145.5" ></text>
</g>
<g >
<title>firedrake.interpolation.make_interpolator (22,202 us, 0.50%)</title><rect x="1105.5" y="167" width="6.0" height="15.0" fill="rgb(0,0,0)" rx="2" ry="2" />
<text  x="1108.55" y="177.5" ></text>
</g>
<g >
<title>FunctionSpaceData: CreateElement (6,867 us, 0.15%)</title><rect x="353.1" y="135" width="1.9" height="15.0" fill="rgb(0,0,0)" rx="2" ry="2" />
<text  x="356.14" y="145.5" ></text>
</g>
<g >
<title>firedrake.extrusion_utils.make_extruded_coords (68,330 us, 1.54%)</title><rect x="330.6" y="87" width="18.2" height="15.0" fill="rgb(0,0,0)" rx="2" ry="2" />
<text  x="333.58" y="97.5" ></text>
</g>
<g >
<title>Log_Event_subkernel13_interior_facet_vert_to__exterior_facet_vert_integral_otherwise (2,010 us, 0.05%)</title><rect x="1061.7" y="231" width="0.5" height="15.0" fill="rgb(0,0,0)" rx="2" ry="2" />
<text  x="1064.69" y="241.5" ></text>
</g>
<g >
<title>firedrake.matrix_free.operators.ImplicitMatrixContext.mult (20,487 us, 0.46%)</title><rect x="1077.8" y="183" width="5.4" height="15.0" fill="rgb(0,0,0)" rx="2" ry="2" />
<text  x="1080.78" y="193.5" ></text>
</g>
<g >
<title>Log_Event_subkernel53_interior_facet_vert_to__exterior_facet_vert_integral_otherwise (1,973 us, 0.04%)</title><rect x="1064.4" y="231" width="0.5" height="15.0" fill="rgb(0,0,0)" rx="2" ry="2" />
<text  x="1067.41" y="241.5" ></text>
</g>
<g >
<title>KSPSolve (1,504,214 us, 33.93%)</title><rect x="762.5" y="103" width="400.4" height="15.0" fill="rgb(0,0,0)" rx="2" ry="2" />
<text  x="765.51" y="113.5" >KSPSolve</text>
</g>
<g >
<title>firedrake (4,433,461 us, 100.00%)</title><rect x="10.0" y="55" width="1180.0" height="15.0" fill="rgb(0,0,0)" rx="2" ry="2" />
<text  x="13.00" y="65.5" >firedrake</text>
</g>
<g >
<title>Parloop_Cells_wrap_expression_kernel (32,880 us, 0.74%)</title><rect x="1084.8" y="183" width="8.8" height="15.0" fill="rgb(0,0,0)" rx="2" ry="2" />
<text  x="1087.81" y="193.5" ></text>
</g>
<g >
<title>pyop2.global_kernel.GlobalKernel.compile (30,495 us, 0.69%)</title><rect x="1181.3" y="183" width="8.1" height="15.0" fill="rgb(0,0,0)" rx="2" ry="2" />
<text  x="1184.28" y="193.5" ></text>
</g>
<g >
<title>MatMult (20,487 us, 0.46%)</title><rect x="1077.8" y="167" width="5.4" height="15.0" fill="rgb(0,0,0)" rx="2" ry="2" />
<text  x="1080.78" y="177.5" ></text>
</g>
<g >
<title>firedrake.functionspacedata.FunctionSpaceData.__init__ (18,076 us, 0.41%)</title><rect x="350.8" y="119" width="4.8" height="15.0" fill="rgb(0,0,0)" rx="2" ry="2" />
<text  x="353.81" y="129.5" ></text>
</g>
<g >
<title>pyop2.global_kernel.GlobalKernel.compile (34,959 us, 0.79%)</title><rect x="789.7" y="215" width="9.3" height="15.0" fill="rgb(0,0,0)" rx="2" ry="2" />
<text  x="792.70" y="225.5" ></text>
</g>
<g >
<title>firedrake.tsfc_interface.compile_form (191,457 us, 4.32%)</title><rect x="1111.5" y="167" width="50.9" height="15.0" fill="rgb(0,0,0)" rx="2" ry="2" />
<text  x="1114.46" y="177.5" >fire..</text>
</g>
<g >
<title>firedrake.parloops.par_loop (40,704 us, 0.92%)</title><rect x="788.2" y="167" width="10.8" height="15.0" fill="rgb(0,0,0)" rx="2" ry="2" />
<text  x="791.18" y="177.5" ></text>
</g>
<g >
<title>Log_Event_mtf_solve_41 (10,007 us, 0.23%)</title><rect x="1064.0" y="215" width="2.7" height="15.0" fill="rgb(0,0,0)" rx="2" ry="2" />
<text  x="1067.01" y="225.5" ></text>
</g>
<g >
<title>Log_Event_slate_loopy_knl_0 (31,832 us, 0.72%)</title><rect x="1058.2" y="199" width="8.5" height="15.0" fill="rgb(0,0,0)" rx="2" ry="2" />
<text  x="1061.21" y="209.5" ></text>
</g>
<g >
<title>Parloop_Cells_wrap_par_loop_kernel (30,495 us, 0.69%)</title><rect x="1181.3" y="167" width="8.1" height="15.0" fill="rgb(0,0,0)" rx="2" ry="2" />
<text  x="1184.28" y="177.5" ></text>
</g>
<g >
<title>HybridRHS (1,047,406 us, 23.63%)</title><rect x="799.0" y="151" width="278.8" height="15.0" fill="rgb(0,0,0)" rx="2" ry="2" />
<text  x="802.01" y="161.5" >HybridRHS</text>
</g>
<g >
<title>firedrake.assemble.allocate_matrix (3,811 us, 0.09%)</title><rect x="1104.5" y="167" width="1.0" height="15.0" fill="rgb(0,0,0)" rx="2" ry="2" />
<text  x="1107.53" y="177.5" ></text>
</g>
<g >
<title>Parloop_Cells_wrap_form1_cell_integral_otherwise (31,659 us, 0.71%)</title><rect x="772.7" y="167" width="8.4" height="15.0" fill="rgb(0,0,0)" rx="2" ry="2" />
<text  x="775.67" y="177.5" ></text>
</g>
<g >
<title>PCApply (1,407,766 us, 31.75%)</title><rect x="788.2" y="119" width="374.7" height="15.0" fill="rgb(0,0,0)" rx="2" ry="2" />
<text  x="791.18" y="129.5" >PCApply</text>
</g>
<g >
<title>ParLoopExecute (34,959 us, 0.79%)</title><rect x="789.7" y="183" width="9.3" height="15.0" fill="rgb(0,0,0)" rx="2" ry="2" />
<text  x="792.70" y="193.5" ></text>
</g>
<g >
<title>firedrake.functionspacedata.get_shared_data (2,235 us, 0.05%)</title><rect x="1175.1" y="215" width="0.6" height="15.0" fill="rgb(0,0,0)" rx="2" ry="2" />
<text  x="1178.10" y="225.5" ></text>
</g>
<g >
<title>Parloop_Cells_wrap_pyop2_kernel_uniform_extrusion (38,323 us, 0.86%)</title><rect x="338.6" y="119" width="10.2" height="15.0" fill="rgb(0,0,0)" rx="2" ry="2" />
<text  x="341.57" y="129.5" ></text>
</g>
<g >
<title>Log_Event_mtf_solve_56 (1,507 us, 0.03%)</title><rect x="1066.3" y="247" width="0.4" height="15.0" fill="rgb(0,0,0)" rx="2" ry="2" />
<text  x="1069.28" y="257.5" ></text>
</g>
<g >
<title>firedrake.functionspacedata.get_shared_data (18,076 us, 0.41%)</title><rect x="350.8" y="103" width="4.8" height="15.0" fill="rgb(0,0,0)" rx="2" ry="2" />
<text  x="353.81" y="113.5" ></text>
</g>
<g >
<title>Parloop_Cells_wrap_slate_loopy_knl_0 (77,080 us, 1.74%)</title><rect x="1057.3" y="183" width="20.5" height="15.0" fill="rgb(0,0,0)" rx="2" ry="2" />
<text  x="1060.27" y="193.5" ></text>
</g>
<g >
<title>firedrake.mesh.MeshTopology._facets (2,453 us, 0.06%)</title><rect x="355.0" y="135" width="0.6" height="15.0" fill="rgb(0,0,0)" rx="2" ry="2" />
<text  x="357.97" y="145.5" ></text>
</g>
<g >
<title>ParLoopExecute (74,111 us, 1.67%)</title><rect x="1084.8" y="167" width="19.7" height="15.0" fill="rgb(0,0,0)" rx="2" ry="2" />
<text  x="1087.81" y="177.5" ></text>
</g>
<g >
<title>ParLoopExecute (3,429 us, 0.08%)</title><rect x="1082.3" y="199" width="0.9" height="15.0" fill="rgb(0,0,0)" rx="2" ry="2" />
<text  x="1085.32" y="209.5" ></text>
</g>
<g >
<title>HybridInit (101,957 us, 2.30%)</title><rect x="1162.9" y="119" width="27.1" height="15.0" fill="rgb(0,0,0)" rx="2" ry="2" />
<text  x="1165.86" y="129.5" >H..</text>
</g>
<g >
<title>CreateMesh (1,739 us, 0.04%)</title><rect x="355.6" y="71" width="0.5" height="15.0" fill="rgb(0,0,0)" rx="2" ry="2" />
<text  x="358.62" y="81.5" ></text>
</g>
<g >
<title>firedrake.parloops.par_loop (35,912 us, 0.81%)</title><rect x="1179.8" y="135" width="9.6" height="15.0" fill="rgb(0,0,0)" rx="2" ry="2" />
<text  x="1182.84" y="145.5" ></text>
</g>
<g >
<title>Log_Event_tensorshell_knl_42 (3,254 us, 0.07%)</title><rect x="1064.9" y="231" width="0.9" height="15.0" fill="rgb(0,0,0)" rx="2" ry="2" />
<text  x="1067.93" y="241.5" ></text>
</g>
<g >
<title>firedrake.ufl_expr.adjoint (3,128 us, 0.07%)</title><rect x="761.0" y="119" width="0.8" height="15.0" fill="rgb(0,0,0)" rx="2" ry="2" />
<text  x="763.98" y="129.5" ></text>
</g>
<g >
<title>Log_Event_mtf_solve_1 (10,282 us, 0.23%)</title><rect x="1061.3" y="215" width="2.7" height="15.0" fill="rgb(0,0,0)" rx="2" ry="2" />
<text  x="1064.28" y="225.5" ></text>
</g>
<g >
<title>firedrake.functionspacedata.FunctionSpaceData.__init__ (1,494 us, 0.03%)</title><rect x="1170.9" y="215" width="0.4" height="15.0" fill="rgb(0,0,0)" rx="2" ry="2" />
<text  x="1173.88" y="225.5" ></text>
</g>
<g >
<title>firedrake.functionspaceimpl.FunctionSpace.__init__ (4,591 us, 0.10%)</title><rect x="1171.3" y="151" width="1.2" height="15.0" fill="rgb(0,0,0)" rx="2" ry="2" />
<text  x="1174.27" y="161.5" ></text>
</g>
<g >
<title>Parloop_Cells_wrap_par_loop_kernel (34,959 us, 0.79%)</title><rect x="789.7" y="199" width="9.3" height="15.0" fill="rgb(0,0,0)" rx="2" ry="2" />
<text  x="792.70" y="209.5" ></text>
</g>
<g >
<title>pyop2.global_kernel.GlobalKernel.compile (32,880 us, 0.74%)</title><rect x="1084.8" y="199" width="8.8" height="15.0" fill="rgb(0,0,0)" rx="2" ry="2" />
<text  x="1087.81" y="209.5" ></text>
</g>
<g >
<title>FunctionSpaceData: CreateElement (4,591 us, 0.10%)</title><rect x="1171.3" y="199" width="1.2" height="15.0" fill="rgb(0,0,0)" rx="2" ry="2" />
<text  x="1174.27" y="209.5" ></text>
</g>
<g >
<title>ParLoopExecute (30,495 us, 0.69%)</title><rect x="1181.3" y="151" width="8.1" height="15.0" fill="rgb(0,0,0)" rx="2" ry="2" />
<text  x="1184.28" y="161.5" ></text>
</g>
<g >
<title>pyop2.global_kernel.GlobalKernel.compile (38,323 us, 0.86%)</title><rect x="338.6" y="135" width="10.2" height="15.0" fill="rgb(0,0,0)" rx="2" ry="2" />
<text  x="341.57" y="145.5" ></text>
</g>
<g >
<title>firedrake.formmanipulation.ExtractSubBlock.argument (1,646 us, 0.04%)</title><rect x="787.7" y="199" width="0.5" height="15.0" fill="rgb(0,0,0)" rx="2" ry="2" />
<text  x="790.74" y="209.5" ></text>
</g>
<g >
<title>firedrake.functionspacedata.get_shared_data (6,191 us, 0.14%)</title><rect x="348.8" y="135" width="1.6" height="15.0" fill="rgb(0,0,0)" rx="2" ry="2" />
<text  x="351.77" y="145.5" ></text>
</g>
<g >
<title>PCSetUp (299,169 us, 6.75%)</title><rect x="1083.2" y="151" width="79.7" height="15.0" fill="rgb(0,0,0)" rx="2" ry="2" />
<text  x="1086.24" y="161.5" >PCSetUp</text>
</g>
<g >
<title>firedrake.variational_solver.NonlinearVariationalProblem.__init__ (1,692 us, 0.04%)</title><rect x="1162.4" y="167" width="0.5" height="15.0" fill="rgb(0,0,0)" rx="2" ry="2" />
<text  x="1165.41" y="177.5" ></text>
</g>
<g >
<title>Parloop_Cells_wrap_form0_cell_integral_otherwise (34,408 us, 0.78%)</title><rect x="763.5" y="167" width="9.2" height="15.0" fill="rgb(0,0,0)" rx="2" ry="2" />
<text  x="766.51" y="177.5" ></text>
</g>
<g >
<title>HybridBreak (40,704 us, 0.92%)</title><rect x="788.2" y="151" width="10.8" height="15.0" fill="rgb(0,0,0)" rx="2" ry="2" />
<text  x="791.18" y="161.5" ></text>
</g>
<g >
<title>firedrake.__init__ (1,496,992 us, 33.77%)</title><rect x="356.1" y="71" width="398.4" height="15.0" fill="rgb(0,0,0)" rx="2" ry="2" />
<text  x="359.08" y="81.5" >firedrake.__init__</text>
</g>
<g >
<title>firedrake.functionspacedata.FunctionSpaceData.__init__ (4,591 us, 0.10%)</title><rect x="1171.3" y="183" width="1.2" height="15.0" fill="rgb(0,0,0)" rx="2" ry="2" />
<text  x="1174.27" y="193.5" ></text>
</g>
<g >
<title>CreateFunctionSpace (6,085 us, 0.14%)</title><rect x="1170.9" y="135" width="1.6" height="15.0" fill="rgb(0,0,0)" rx="2" ry="2" />
<text  x="1173.88" y="145.5" ></text>
</g>
<g >
<title>SCForwardElim (1,088,110 us, 24.54%)</title><rect x="788.2" y="135" width="289.6" height="15.0" fill="rgb(0,0,0)" rx="2" ry="2" />
<text  x="791.18" y="145.5" >SCForwardElim</text>
</g>
<g >
<title>Parloop_Cells_wrap_slate_loopy_knl_77 (3,429 us, 0.08%)</title><rect x="1082.3" y="215" width="0.9" height="15.0" fill="rgb(0,0,0)" rx="2" ry="2" />
<text  x="1085.32" y="225.5" ></text>
</g>
<g >
<title>firedrake.functionspaceimpl.FunctionSpace.__init__ (1,494 us, 0.03%)</title><rect x="1170.9" y="183" width="0.4" height="15.0" fill="rgb(0,0,0)" rx="2" ry="2" />
<text  x="1173.88" y="193.5" ></text>
</g>
<g >
<title>Log_Event_mtf_solve_4 (1,600 us, 0.04%)</title><rect x="1063.6" y="247" width="0.4" height="15.0" fill="rgb(0,0,0)" rx="2" ry="2" />
<text  x="1066.59" y="257.5" ></text>
</g>
<g >
<title>firedrake.functionspacedata.FunctionSpaceData.__init__ (6,191 us, 0.14%)</title><rect x="348.8" y="151" width="1.6" height="15.0" fill="rgb(0,0,0)" rx="2" ry="2" />
<text  x="351.77" y="161.5" ></text>
</g>
<g >
<title>CreateExtMesh (76,530 us, 1.73%)</title><rect x="330.0" y="71" width="20.4" height="15.0" fill="rgb(0,0,0)" rx="2" ry="2" />
<text  x="333.05" y="81.5" ></text>
</g>
<g >
<title>firedrake.ufl_expr.adjoint (11,658 us, 0.26%)</title><rect x="756.8" y="103" width="3.1" height="15.0" fill="rgb(0,0,0)" rx="2" ry="2" />
<text  x="759.77" y="113.5" ></text>
</g>
<g >
<title>CreateFunctionSpace (19,553 us, 0.44%)</title><rect x="350.4" y="71" width="5.2" height="15.0" fill="rgb(0,0,0)" rx="2" ry="2" />
<text  x="353.42" y="81.5" ></text>
</g>
<g >
<title>CreateFunctionSpace (1,646 us, 0.04%)</title><rect x="787.7" y="215" width="0.5" height="15.0" fill="rgb(0,0,0)" rx="2" ry="2" />
<text  x="790.74" y="225.5" ></text>
</g>
<g >
<title>Log_Event_mtf_solve_44 (1,490 us, 0.03%)</title><rect x="1065.4" y="247" width="0.4" height="15.0" fill="rgb(0,0,0)" rx="2" ry="2" />
<text  x="1068.40" y="257.5" ></text>
</g>
<g >
<title>ParLoopExecute (77,080 us, 1.74%)</title><rect x="1057.3" y="167" width="20.5" height="15.0" fill="rgb(0,0,0)" rx="2" ry="2" />
<text  x="1060.27" y="177.5" ></text>
</g>
<g >
<title>firedrake.matrix_free.operators.ImplicitMatrixContext.__init__ (7,294 us, 0.16%)</title><rect x="759.9" y="103" width="1.9" height="15.0" fill="rgb(0,0,0)" rx="2" ry="2" />
<text  x="762.87" y="113.5" ></text>
</g>
<g >
<title>Log_Event_tensorshell_knl_14 (3,341 us, 0.08%)</title><rect x="1062.2" y="231" width="0.9" height="15.0" fill="rgb(0,0,0)" rx="2" ry="2" />
<text  x="1065.22" y="241.5" ></text>
</g>
<g >
<title>firedrake.assemble.allocate_matrix (7,294 us, 0.16%)</title><rect x="759.9" y="87" width="1.9" height="15.0" fill="rgb(0,0,0)" rx="2" ry="2" />
<text  x="762.87" y="97.5" ></text>
</g>
<g >
<title>KSPSolve (20,487 us, 0.46%)</title><rect x="1077.8" y="151" width="5.4" height="15.0" fill="rgb(0,0,0)" rx="2" ry="2" />
<text  x="1080.78" y="161.5" ></text>
</g>
</g>
</svg>
