<?xml version="1.0" standalone="no"?>
<!DOCTYPE svg PUBLIC "-//W3C//DTD SVG 1.1//EN" "http://www.w3.org/Graphics/SVG/1.1/DTD/svg11.dtd">
<svg version="1.1" width="1200" height="363" onload="init(evt)" viewBox="0 0 1200 363" xmlns="http://www.w3.org/2000/svg" xmlns:xlink="http://www.w3.org/1999/xlink">
<!-- Flame graph stack visualization. See https://github.com/brendangregg/FlameGraph for latest version, and http://www.brendangregg.com/flamegraphs.html for examples. -->
<!-- NOTES:  -->
<defs>
	<linearGradient id="background" y1="0" y2="1" x1="0" x2="0" >
		<stop stop-color="#eeeeee" offset="5%" />
		<stop stop-color="#eeeeb0" offset="95%" />
	</linearGradient>
</defs>
<style type="text/css">
	text { font-family:Verdana; font-size:13px; fill:rgb(0,0,0); }
	#search, #ignorecase { opacity:0.1; cursor:pointer; }
	#search:hover, #search.show, #ignorecase:hover, #ignorecase.show { opacity:1; }
	#subtitle { text-anchor:middle; font-color:rgb(160,160,160); }
	#title { text-anchor:middle; font-size:18px}
	#unzoom { cursor:pointer; }
	#frames > *:hover { stroke:black; stroke-width:0.5; cursor:pointer; }
	.hide { display:none; }
	.parent { opacity:0.5; }
</style>
<script type="text/ecmascript">
<![CDATA[
	"use strict";
	var details, searchbtn, unzoombtn, matchedtxt, svg, searching, currentSearchTerm, ignorecase, ignorecaseBtn;
	function init(evt) {
		details = document.getElementById("details").firstChild;
		searchbtn = document.getElementById("search");
		ignorecaseBtn = document.getElementById("ignorecase");
		unzoombtn = document.getElementById("unzoom");
		matchedtxt = document.getElementById("matched");
		svg = document.getElementsByTagName("svg")[0];
		searching = 0;
		currentSearchTerm = null;

		// use GET parameters to restore a flamegraphs state.
		var params = get_params();
		if (params.x && params.y)
			zoom(find_group(document.querySelector('[x="' + params.x + '"][y="' + params.y + '"]')));
                if (params.s) search(params.s);
	}

	// event listeners
	window.addEventListener("click", function(e) {
		var target = find_group(e.target);
		if (target) {
			if (target.nodeName == "a") {
				if (e.ctrlKey === false) return;
				e.preventDefault();
			}
			if (target.classList.contains("parent")) unzoom();
			zoom(target);
			if (!document.querySelector('.parent')) {
				clearzoom();
				return;
			}

			// set parameters for zoom state
			var el = target.querySelector("rect");
			if (el && el.attributes && el.attributes.y && el.attributes._orig_x) {
				var params = get_params()
				params.x = el.attributes._orig_x.value;
				params.y = el.attributes.y.value;
				history.replaceState(null, null, parse_params(params));
			}
		}
		else if (e.target.id == "unzoom") clearzoom();
		else if (e.target.id == "search") search_prompt();
		else if (e.target.id == "ignorecase") toggle_ignorecase();
	}, false)

	// mouse-over for info
	// show
	window.addEventListener("mouseover", function(e) {
		var target = find_group(e.target);
		if (target) details.nodeValue = "Function: " + g_to_text(target);
	}, false)

	// clear
	window.addEventListener("mouseout", function(e) {
		var target = find_group(e.target);
		if (target) details.nodeValue = ' ';
	}, false)

	// ctrl-F for search
	// ctrl-I to toggle case-sensitive search
	window.addEventListener("keydown",function (e) {
		if (e.keyCode === 114 || (e.ctrlKey && e.keyCode === 70)) {
			e.preventDefault();
			search_prompt();
		}
		else if (e.ctrlKey && e.keyCode === 73) {
			e.preventDefault();
			toggle_ignorecase();
		}
	}, false)

	// functions
	function get_params() {
		var params = {};
		var paramsarr = window.location.search.substr(1).split('&');
		for (var i = 0; i < paramsarr.length; ++i) {
			var tmp = paramsarr[i].split("=");
			if (!tmp[0] || !tmp[1]) continue;
			params[tmp[0]]  = decodeURIComponent(tmp[1]);
		}
		return params;
	}
	function parse_params(params) {
		var uri = "?";
		for (var key in params) {
			uri += key + '=' + encodeURIComponent(params[key]) + '&';
		}
		if (uri.slice(-1) == "&")
			uri = uri.substring(0, uri.length - 1);
		if (uri == '?')
			uri = window.location.href.split('?')[0];
		return uri;
	}
	function find_child(node, selector) {
		var children = node.querySelectorAll(selector);
		if (children.length) return children[0];
	}
	function find_group(node) {
		var parent = node.parentElement;
		if (!parent) return;
		if (parent.id == "frames") return node;
		return find_group(parent);
	}
	function orig_save(e, attr, val) {
		if (e.attributes["_orig_" + attr] != undefined) return;
		if (e.attributes[attr] == undefined) return;
		if (val == undefined) val = e.attributes[attr].value;
		e.setAttribute("_orig_" + attr, val);
	}
	function orig_load(e, attr) {
		if (e.attributes["_orig_"+attr] == undefined) return;
		e.attributes[attr].value = e.attributes["_orig_" + attr].value;
		e.removeAttribute("_orig_"+attr);
	}
	function g_to_text(e) {
		var text = find_child(e, "title").firstChild.nodeValue;
		return (text)
	}
	function g_to_func(e) {
		var func = g_to_text(e);
		// if there's any manipulation we want to do to the function
		// name before it's searched, do it here before returning.
		return (func);
	}
	function update_text(e) {
		var r = find_child(e, "rect");
		var t = find_child(e, "text");
		var w = parseFloat(r.attributes.width.value) -3;
		var txt = find_child(e, "title").textContent.replace(/\([^(]*\)$/,"");
		t.attributes.x.value = parseFloat(r.attributes.x.value) + 3;

		// Smaller than this size won't fit anything
		if (w < 2 * 13 * 0.59) {
			t.textContent = "";
			return;
		}

		t.textContent = txt;
		// Fit in full text width
		if (/^ *$/.test(txt) || t.getSubStringLength(0, txt.length) < w)
			return;

		for (var x = txt.length - 2; x > 0; x--) {
			if (t.getSubStringLength(0, x + 2) <= w) {
				t.textContent = txt.substring(0, x) + "..";
				return;
			}
		}
		t.textContent = "";
	}

	// zoom
	function zoom_reset(e) {
		if (e.attributes != undefined) {
			orig_load(e, "x");
			orig_load(e, "width");
		}
		if (e.childNodes == undefined) return;
		for (var i = 0, c = e.childNodes; i < c.length; i++) {
			zoom_reset(c[i]);
		}
	}
	function zoom_child(e, x, ratio) {
		if (e.attributes != undefined) {
			if (e.attributes.x != undefined) {
				orig_save(e, "x");
				e.attributes.x.value = (parseFloat(e.attributes.x.value) - x - 10) * ratio + 10;
				if (e.tagName == "text")
					e.attributes.x.value = find_child(e.parentNode, "rect[x]").attributes.x.value + 3;
			}
			if (e.attributes.width != undefined) {
				orig_save(e, "width");
				e.attributes.width.value = parseFloat(e.attributes.width.value) * ratio;
			}
		}

		if (e.childNodes == undefined) return;
		for (var i = 0, c = e.childNodes; i < c.length; i++) {
			zoom_child(c[i], x - 10, ratio);
		}
	}
	function zoom_parent(e) {
		if (e.attributes) {
			if (e.attributes.x != undefined) {
				orig_save(e, "x");
				e.attributes.x.value = 10;
			}
			if (e.attributes.width != undefined) {
				orig_save(e, "width");
				e.attributes.width.value = parseInt(svg.width.baseVal.value) - (10 * 2);
			}
		}
		if (e.childNodes == undefined) return;
		for (var i = 0, c = e.childNodes; i < c.length; i++) {
			zoom_parent(c[i]);
		}
	}
	function zoom(node) {
		var attr = find_child(node, "rect").attributes;
		var width = parseFloat(attr.width.value);
		var xmin = parseFloat(attr.x.value);
		var xmax = parseFloat(xmin + width);
		var ymin = parseFloat(attr.y.value);
		var ratio = (svg.width.baseVal.value - 2 * 10) / width;

		// XXX: Workaround for JavaScript float issues (fix me)
		var fudge = 0.0001;

		unzoombtn.classList.remove("hide");

		var el = document.getElementById("frames").children;
		for (var i = 0; i < el.length; i++) {
			var e = el[i];
			var a = find_child(e, "rect").attributes;
			var ex = parseFloat(a.x.value);
			var ew = parseFloat(a.width.value);
			var upstack;
			// Is it an ancestor
			if (1 == 0) {
				upstack = parseFloat(a.y.value) > ymin;
			} else {
				upstack = parseFloat(a.y.value) < ymin;
			}
			if (upstack) {
				// Direct ancestor
				if (ex <= xmin && (ex+ew+fudge) >= xmax) {
					e.classList.add("parent");
					zoom_parent(e);
					update_text(e);
				}
				// not in current path
				else
					e.classList.add("hide");
			}
			// Children maybe
			else {
				// no common path
				if (ex < xmin || ex + fudge >= xmax) {
					e.classList.add("hide");
				}
				else {
					zoom_child(e, xmin, ratio);
					update_text(e);
				}
			}
		}
		search();
	}
	function unzoom() {
		unzoombtn.classList.add("hide");
		var el = document.getElementById("frames").children;
		for(var i = 0; i < el.length; i++) {
			el[i].classList.remove("parent");
			el[i].classList.remove("hide");
			zoom_reset(el[i]);
			update_text(el[i]);
		}
		search();
	}
	function clearzoom() {
		unzoom();

		// remove zoom state
		var params = get_params();
		if (params.x) delete params.x;
		if (params.y) delete params.y;
		history.replaceState(null, null, parse_params(params));
	}

	// search
	function toggle_ignorecase() {
		ignorecase = !ignorecase;
		if (ignorecase) {
			ignorecaseBtn.classList.add("show");
		} else {
			ignorecaseBtn.classList.remove("show");
		}
		reset_search();
		search();
	}
	function reset_search() {
		var el = document.querySelectorAll("#frames rect");
		for (var i = 0; i < el.length; i++) {
			orig_load(el[i], "fill")
		}
		var params = get_params();
		delete params.s;
		history.replaceState(null, null, parse_params(params));
	}
	function search_prompt() {
		if (!searching) {
			var term = prompt("Enter a search term (regexp " +
			    "allowed, eg: ^ext4_)"
			    + (ignorecase ? ", ignoring case" : "")
			    + "\nPress Ctrl-i to toggle case sensitivity", "");
			if (term != null) search(term);
		} else {
			reset_search();
			searching = 0;
			currentSearchTerm = null;
			searchbtn.classList.remove("show");
			searchbtn.firstChild.nodeValue = "Search"
			matchedtxt.classList.add("hide");
			matchedtxt.firstChild.nodeValue = ""
		}
	}
	function search(term) {
		if (term) currentSearchTerm = term;

		var re = new RegExp(currentSearchTerm, ignorecase ? 'i' : '');
		var el = document.getElementById("frames").children;
		var matches = new Object();
		var maxwidth = 0;
		for (var i = 0; i < el.length; i++) {
			var e = el[i];
			var func = g_to_func(e);
			var rect = find_child(e, "rect");
			if (func == null || rect == null)
				continue;

			// Save max width. Only works as we have a root frame
			var w = parseFloat(rect.attributes.width.value);
			if (w > maxwidth)
				maxwidth = w;

			if (func.match(re)) {
				// highlight
				var x = parseFloat(rect.attributes.x.value);
				orig_save(rect, "fill");
				rect.attributes.fill.value = "rgb(230,0,230)";

				// remember matches
				if (matches[x] == undefined) {
					matches[x] = w;
				} else {
					if (w > matches[x]) {
						// overwrite with parent
						matches[x] = w;
					}
				}
				searching = 1;
			}
		}
		if (!searching)
			return;
		var params = get_params();
		params.s = currentSearchTerm;
		history.replaceState(null, null, parse_params(params));

		searchbtn.classList.add("show");
		searchbtn.firstChild.nodeValue = "Reset Search";

		// calculate percent matched, excluding vertical overlap
		var count = 0;
		var lastx = -1;
		var lastw = 0;
		var keys = Array();
		for (k in matches) {
			if (matches.hasOwnProperty(k))
				keys.push(k);
		}
		// sort the matched frames by their x location
		// ascending, then width descending
		keys.sort(function(a, b){
			return a - b;
		});
		// Step through frames saving only the biggest bottom-up frames
		// thanks to the sort order. This relies on the tree property
		// where children are always smaller than their parents.
		var fudge = 0.0001;	// JavaScript floating point
		for (var k in keys) {
			var x = parseFloat(keys[k]);
			var w = matches[keys[k]];
			if (x >= lastx + lastw - fudge) {
				count += w;
				lastx = x;
				lastw = w;
			}
		}
		// display matched percent
		matchedtxt.classList.remove("hide");
		var pct = 100 * count / maxwidth;
		if (pct != 100) pct = pct.toFixed(1)
		matchedtxt.firstChild.nodeValue = "Matched: " + pct + "%";
	}
]]>
</script>
<rect x="0.0" y="0" width="1200.0" height="363.0" fill="url(#background)"  />
<text id="title" x="600.00" y="26" >Firedrake example</text>
<text id="details" x="10.00" y="345" > </text>
<text id="unzoom" x="10.00" y="26" class="hide">Reset Zoom</text>
<text id="search" x="1090.00" y="26" >Search</text>
<text id="ignorecase" x="1174.00" y="26" >ic</text>
<text id="matched" x="1090.00" y="345" > </text>
<g id="frames">
<g >
<title>Log_Event_subkernel8_interior_facet_vert_to__exterior_facet_vert_integral_otherwise (27,998,716 us, 0.78%)</title><rect x="1125.2" y="295" width="9.3" height="15.0" fill="rgb(0,0,0)" rx="2" ry="2" />
<text  x="1128.20" y="305.5" ></text>
</g>
<g >
<title>Log_Event_subkernel10_interior_facet_horiz_top_to__exterior_facet_top_integral_otherwise (15,458,072 us, 0.43%)</title><rect x="541.6" y="279" width="5.1" height="15.0" fill="rgb(0,0,0)" rx="2" ry="2" />
<text  x="544.58" y="289.5" ></text>
</g>
<g >
<title>Log_Event_subkernel8_interior_facet_horiz_top_to__exterior_facet_top_integral_otherwise (1,632,401 us, 0.05%)</title><rect x="1124.7" y="295" width="0.5" height="15.0" fill="rgb(0,0,0)" rx="2" ry="2" />
<text  x="1127.66" y="305.5" ></text>
</g>
<g >
<title>ParLoopExecute (225,288,047 us, 6.31%)</title><rect x="1084.6" y="263" width="74.5" height="15.0" fill="rgb(0,0,0)" rx="2" ry="2" />
<text  x="1087.62" y="273.5" >ParLoop..</text>
</g>
<g >
<title>Log_Event_subkernel8_interior_facet_horiz_bottom_to__exterior_facet_bottom_integral_otherwise (16,056,394 us, 0.45%)</title><rect x="610.6" y="279" width="5.3" height="15.0" fill="rgb(0,0,0)" rx="2" ry="2" />
<text  x="613.60" y="289.5" ></text>
</g>
<g >
<title>MatMult (446,796 us, 0.01%)</title><rect x="942.9" y="263" width="0.2" height="15.0" fill="rgb(0,0,0)" rx="2" ry="2" />
<text  x="945.93" y="273.5" ></text>
</g>
<g >
<title>Log_Event_subkernel15_cell_to__cell_integral_otherwise (639,568 us, 0.02%)</title><rect x="95.4" y="199" width="0.2" height="15.0" fill="rgb(0,0,0)" rx="2" ry="2" />
<text  x="98.35" y="209.5" ></text>
</g>
<g >
<title>Log_Event_subkernel8_interior_facet_vert_to__exterior_facet_vert_integral_otherwise (265,809,962 us, 7.45%)</title><rect x="621.1" y="279" width="87.8" height="15.0" fill="rgb(0,0,0)" rx="2" ry="2" />
<text  x="624.09" y="289.5" >Log_Event..</text>
</g>
<g >
<title>KSPSolve (3,288,014,818 us, 92.10%)</title><rect x="102.9" y="151" width="1086.8" height="15.0" fill="rgb(0,0,0)" rx="2" ry="2" />
<text  x="105.94" y="161.5" >KSPSolve</text>
</g>
<g >
<title>ParLoopExecute (426,909,459 us, 11.96%)</title><rect x="943.5" y="247" width="141.1" height="15.0" fill="rgb(0,0,0)" rx="2" ry="2" />
<text  x="946.53" y="257.5" >ParLoopExecute</text>
</g>
<g >
<title>Log_Event_subkernel9_cell_to__cell_integral_otherwise (707,976,703 us, 19.83%)</title><rect x="708.9" y="279" width="234.0" height="15.0" fill="rgb(0,0,0)" rx="2" ry="2" />
<text  x="711.94" y="289.5" >Log_Event_subkernel9_cell_to..</text>
</g>
<g >
<title>Log_Event_subkernel13_cell_to__cell_integral_otherwise (757,680 us, 0.02%)</title><rect x="94.6" y="199" width="0.2" height="15.0" fill="rgb(0,0,0)" rx="2" ry="2" />
<text  x="97.59" y="209.5" ></text>
</g>
<g >
<title>Log_Event_slate_loopy_knl_7 (170,600,120 us, 4.78%)</title><rect x="947.1" y="279" width="56.4" height="15.0" fill="rgb(0,0,0)" rx="2" ry="2" />
<text  x="950.10" y="289.5" >Log_E..</text>
</g>
<g >
<title>firedrake.pointquery_utils.to_reference_coordinates (453,314 us, 0.01%)</title><rect x="943.2" y="311" width="0.2" height="15.0" fill="rgb(0,0,0)" rx="2" ry="2" />
<text  x="946.23" y="321.5" ></text>
</g>
<g >
<title>Parloop_Cells_wrap_wrap_slate_loopy_knl_18 (10,072,977 us, 0.28%)</title><rect x="75.8" y="167" width="3.3" height="15.0" fill="rgb(0,0,0)" rx="2" ry="2" />
<text  x="78.78" y="177.5" ></text>
</g>
<g >
<title>Log_Event_slate_loopy_knl_0 (8,740,299 us, 0.24%)</title><rect x="96.7" y="199" width="2.9" height="15.0" fill="rgb(0,0,0)" rx="2" ry="2" />
<text  x="99.68" y="209.5" ></text>
</g>
<g >
<title>MatZeroInitial (39,259,701 us, 1.10%)</title><rect x="45.2" y="135" width="13.0" height="15.0" fill="rgb(0,0,0)" rx="2" ry="2" />
<text  x="48.20" y="145.5" ></text>
</g>
<g >
<title>all (3,570,219,092 us, 100%)</title><rect x="10.0" y="39" width="1180.0" height="15.0" fill="rgb(0,0,0)" rx="2" ry="2" />
<text  x="13.00" y="49.5" ></text>
</g>
<g >
<title>MatMult (405,059,319 us, 11.35%)</title><rect x="102.9" y="167" width="133.9" height="15.0" fill="rgb(0,0,0)" rx="2" ry="2" />
<text  x="105.94" y="177.5" >MatMult</text>
</g>
<g >
<title>Log_Event_subkernel9_cell_to__cell_integral_otherwise (133,955,835 us, 3.75%)</title><rect x="192.5" y="231" width="44.3" height="15.0" fill="rgb(0,0,0)" rx="2" ry="2" />
<text  x="195.55" y="241.5" >Log..</text>
</g>
<g >
<title>Log_Event_slate_loopy_knl_7 (852,331,813 us, 23.87%)</title><rect x="254.8" y="279" width="281.7" height="15.0" fill="rgb(0,0,0)" rx="2" ry="2" />
<text  x="257.78" y="289.5" >Log_Event_slate_loopy_knl_7</text>
</g>
<g >
<title>Log_Event_subkernel6_interior_facet_vert_to__exterior_facet_vert_integral_otherwise (2,047,318 us, 0.06%)</title><rect x="1187.1" y="263" width="0.7" height="15.0" fill="rgb(0,0,0)" rx="2" ry="2" />
<text  x="1190.13" y="273.5" ></text>
</g>
<g >
<title>solve_memcpy (423,692 us, 0.01%)</title><rect x="99.4" y="215" width="0.2" height="15.0" fill="rgb(0,0,0)" rx="2" ry="2" />
<text  x="102.43" y="225.5" ></text>
</g>
<g >
<title>PCApply (3,370,784,030 us, 94.41%)</title><rect x="75.8" y="119" width="1114.1" height="15.0" fill="rgb(0,0,0)" rx="2" ry="2" />
<text  x="78.78" y="129.5" >PCApply</text>
</g>
<g >
<title>SCBackSub (62,477,399 us, 1.75%)</title><rect x="75.8" y="135" width="20.6" height="15.0" fill="rgb(0,0,0)" rx="2" ry="2" />
<text  x="78.78" y="145.5" ></text>
</g>
<g >
<title>firedrake.variational_solver.NonlinearVariationalSolver.solve (3,371,182,213 us, 94.43%)</title><rect x="75.8" y="71" width="1114.2" height="15.0" fill="rgb(0,0,0)" rx="2" ry="2" />
<text  x="78.78" y="81.5" >firedrake.variational_solver.NonlinearVariationalSolver.solve</text>
</g>
<g >
<title>solve_getrs (1,721,801 us, 0.05%)</title><rect x="1114.4" y="311" width="0.5" height="15.0" fill="rgb(0,0,0)" rx="2" ry="2" />
<text  x="1117.38" y="321.5" ></text>
</g>
<g >
<title>Log_Event_subkernel8_interior_facet_vert_to__exterior_facet_vert_integral_otherwise (50,654,848 us, 1.42%)</title><rect x="175.8" y="231" width="16.7" height="15.0" fill="rgb(0,0,0)" rx="2" ry="2" />
<text  x="178.80" y="241.5" ></text>
</g>
<g >
<title>Parloop_IntFacets_wrap_form00_interior_facet_vert_integral_otherwise (3,662,490 us, 0.10%)</title><rect x="15.0" y="135" width="1.2" height="15.0" fill="rgb(0,0,0)" rx="2" ry="2" />
<text  x="17.98" y="145.5" ></text>
</g>
<g >
<title>Log_Event_subkernel10_interior_facet_horiz_top_to__exterior_facet_top_integral_otherwise (2,936,038 us, 0.08%)</title><rect x="160.7" y="231" width="1.0" height="15.0" fill="rgb(0,0,0)" rx="2" ry="2" />
<text  x="163.72" y="241.5" ></text>
</g>
<g >
<title>PCSetUp (594,017 us, 0.02%)</title><rect x="1189.7" y="151" width="0.2" height="15.0" fill="rgb(0,0,0)" rx="2" ry="2" />
<text  x="1192.67" y="161.5" ></text>
</g>
<g >
<title>Log_Event_slate_loopy_knl_7 (161,651,077 us, 4.53%)</title><rect x="106.3" y="231" width="53.5" height="15.0" fill="rgb(0,0,0)" rx="2" ry="2" />
<text  x="109.33" y="241.5" >Log_..</text>
</g>
<g >
<title>HybridRHS (19,697,796 us, 0.55%)</title><rect x="96.4" y="151" width="6.5" height="15.0" fill="rgb(0,0,0)" rx="2" ry="2" />
<text  x="99.43" y="161.5" ></text>
</g>
<g >
<title>inv_getri (41,217,645 us, 1.15%)</title><rect x="1170.1" y="279" width="13.6" height="15.0" fill="rgb(0,0,0)" rx="2" ry="2" />
<text  x="1173.05" y="289.5" ></text>
</g>
<g >
<title>PCSetUp (49,317,684 us, 1.38%)</title><rect x="59.5" y="135" width="16.3" height="15.0" fill="rgb(0,0,0)" rx="2" ry="2" />
<text  x="62.48" y="145.5" ></text>
</g>
<g >
<title>firedrake.linear_solver.LinearSolver.solve (53,288,792 us, 1.49%)</title><rect x="58.2" y="103" width="17.6" height="15.0" fill="rgb(0,0,0)" rx="2" ry="2" />
<text  x="61.17" y="113.5" ></text>
</g>
<g >
<title>ParLoopExecute (2,136,422,366 us, 59.84%)</title><rect x="236.8" y="247" width="706.1" height="15.0" fill="rgb(0,0,0)" rx="2" ry="2" />
<text  x="239.82" y="257.5" >ParLoopExecute</text>
</g>
<g >
<title>firedrake.function.Function.project (194,625,624 us, 5.45%)</title><rect x="11.5" y="71" width="64.3" height="15.0" fill="rgb(0,0,0)" rx="2" ry="2" />
<text  x="14.46" y="81.5" >firedr..</text>
</g>
<g >
<title>Log_Event_subkernel10_interior_facet_vert_to__exterior_facet_vert_integral_otherwise (36,674,768 us, 1.03%)</title><rect x="161.7" y="231" width="12.1" height="15.0" fill="rgb(0,0,0)" rx="2" ry="2" />
<text  x="164.69" y="241.5" ></text>
</g>
<g >
<title>PCSetUp (317,835,246 us, 8.90%)</title><rect x="1084.6" y="183" width="105.1" height="15.0" fill="rgb(0,0,0)" rx="2" ry="2" />
<text  x="1087.62" y="193.5" >PCSetUp</text>
</g>
<g >
<title>PCSetUp (1,341,632 us, 0.04%)</title><rect x="943.1" y="231" width="0.4" height="15.0" fill="rgb(0,0,0)" rx="2" ry="2" />
<text  x="946.08" y="241.5" ></text>
</g>
<g >
<title>MatCholFctrNum (48,851,201 us, 1.37%)</title><rect x="59.5" y="151" width="16.1" height="15.0" fill="rgb(0,0,0)" rx="2" ry="2" />
<text  x="62.48" y="161.5" ></text>
</g>
<g >
<title>PCApply (1,788,428 us, 0.05%)</title><rect x="942.9" y="215" width="0.6" height="15.0" fill="rgb(0,0,0)" rx="2" ry="2" />
<text  x="945.93" y="225.5" ></text>
</g>
<g >
<title>Log_Event_subkernel4_interior_facet_vert_to__exterior_facet_vert_integral_otherwise (2,611,764 us, 0.07%)</title><rect x="1183.8" y="263" width="0.9" height="15.0" fill="rgb(0,0,0)" rx="2" ry="2" />
<text  x="1186.81" y="273.5" ></text>
</g>
<g >
<title>firedrake.matrix_free.operators.ImplicitMatrixContext.mult (426,909,459 us, 11.96%)</title><rect x="943.5" y="231" width="141.1" height="15.0" fill="rgb(0,0,0)" rx="2" ry="2" />
<text  x="946.53" y="241.5" >firedrake.matrix..</text>
</g>
<g >
<title>PCApply (2,882,955,499 us, 80.75%)</title><rect x="236.8" y="167" width="952.9" height="15.0" fill="rgb(0,0,0)" rx="2" ry="2" />
<text  x="239.82" y="177.5" >PCApply</text>
</g>
<g >
<title>Parloop_Cells_wrap_wrap_slate_loopy_knl_11 (52,404,422 us, 1.47%)</title><rect x="79.1" y="183" width="17.3" height="15.0" fill="rgb(0,0,0)" rx="2" ry="2" />
<text  x="82.11" y="193.5" ></text>
</g>
<g >
<title>Log_Event_subkernel10_interior_facet_vert_to__exterior_facet_vert_integral_otherwise (193,375,842 us, 5.42%)</title><rect x="546.7" y="279" width="63.9" height="15.0" fill="rgb(0,0,0)" rx="2" ry="2" />
<text  x="549.68" y="289.5" >Log_Ev..</text>
</g>
<g >
<title>SCSolve (3,288,608,835 us, 92.11%)</title><rect x="102.9" y="135" width="1087.0" height="15.0" fill="rgb(0,0,0)" rx="2" ry="2" />
<text  x="105.94" y="145.5" >SCSolve</text>
</g>
<g >
<title>PCApply (2,429,638 us, 0.07%)</title><rect x="58.7" y="135" width="0.8" height="15.0" fill="rgb(0,0,0)" rx="2" ry="2" />
<text  x="61.68" y="145.5" ></text>
</g>
<g >
<title>firedrake.projection.project (194,625,624 us, 5.45%)</title><rect x="11.5" y="87" width="64.3" height="15.0" fill="rgb(0,0,0)" rx="2" ry="2" />
<text  x="14.46" y="97.5" >firedr..</text>
</g>
<g >
<title>Parloop_Cells_wrap_wrap_slate_loopy_knl_7 (426,909,459 us, 11.96%)</title><rect x="943.5" y="263" width="141.1" height="15.0" fill="rgb(0,0,0)" rx="2" ry="2" />
<text  x="946.53" y="273.5" >Parloop_Cells_wr..</text>
</g>
<g >
<title>KSPSolve (3,971,108 us, 0.11%)</title><rect x="58.2" y="119" width="1.3" height="15.0" fill="rgb(0,0,0)" rx="2" ry="2" />
<text  x="61.17" y="129.5" ></text>
</g>
<g >
<title>Log_Event_subkernel14_cell_to__cell_integral_otherwise (1,539,611 us, 0.04%)</title><rect x="94.8" y="199" width="0.6" height="15.0" fill="rgb(0,0,0)" rx="2" ry="2" />
<text  x="97.85" y="209.5" ></text>
</g>
<g >
<title>firedrake.assemble.assemble (140,948,473 us, 3.95%)</title><rect x="11.6" y="103" width="46.6" height="15.0" fill="rgb(0,0,0)" rx="2" ry="2" />
<text  x="14.59" y="113.5" >fire..</text>
</g>
<g >
<title>Log_Event_subkernel8_interior_facet_horiz_top_to__exterior_facet_top_integral_otherwise (3,082,841 us, 0.09%)</title><rect x="1019.3" y="279" width="1.0" height="15.0" fill="rgb(0,0,0)" rx="2" ry="2" />
<text  x="1022.30" y="289.5" ></text>
</g>
<g >
<title>MatZeroInitial (1,356,126 us, 0.04%)</title><rect x="1189.2" y="247" width="0.5" height="15.0" fill="rgb(0,0,0)" rx="2" ry="2" />
<text  x="1192.22" y="257.5" ></text>
</g>
<g >
<title>Parloop_ExtFacets_wrap_form00_exterior_facet_vert_integral_otherwise (468,111 us, 0.01%)</title><rect x="14.8" y="135" width="0.2" height="15.0" fill="rgb(0,0,0)" rx="2" ry="2" />
<text  x="17.82" y="145.5" ></text>
</g>
<g >
<title>PCApply (2,429,638 us, 0.07%)</title><rect x="58.7" y="167" width="0.8" height="15.0" fill="rgb(0,0,0)" rx="2" ry="2" />
<text  x="61.68" y="177.5" ></text>
</g>
<g >
<title>MatAssemblyEnd (433,693 us, 0.01%)</title><rect x="45.1" y="135" width="0.1" height="15.0" fill="rgb(0,0,0)" rx="2" ry="2" />
<text  x="48.05" y="145.5" ></text>
</g>
<g >
<title>KSPSolve (2,138,210,794 us, 59.89%)</title><rect x="236.8" y="199" width="706.7" height="15.0" fill="rgb(0,0,0)" rx="2" ry="2" />
<text  x="239.82" y="209.5" >KSPSolve</text>
</g>
<g >
<title>solve_memcpy (7,468,285 us, 0.21%)</title><rect x="157.3" y="247" width="2.5" height="15.0" fill="rgb(0,0,0)" rx="2" ry="2" />
<text  x="160.29" y="257.5" ></text>
</g>
<g >
<title>MatMult (426,909,459 us, 11.96%)</title><rect x="943.5" y="215" width="141.1" height="15.0" fill="rgb(0,0,0)" rx="2" ry="2" />
<text  x="946.53" y="225.5" >MatMult</text>
</g>
<g >
<title>PCApply (2,565,120,253 us, 71.85%)</title><rect x="236.8" y="183" width="847.8" height="15.0" fill="rgb(0,0,0)" rx="2" ry="2" />
<text  x="239.82" y="193.5" >PCApply</text>
</g>
<g >
<title>MatMultTranspose (449,908 us, 0.01%)</title><rect x="943.4" y="247" width="0.1" height="15.0" fill="rgb(0,0,0)" rx="2" ry="2" />
<text  x="946.38" y="257.5" ></text>
</g>
<g >
<title>solve_memcpy (39,181,016 us, 1.10%)</title><rect x="523.5" y="295" width="13.0" height="15.0" fill="rgb(0,0,0)" rx="2" ry="2" />
<text  x="526.54" y="305.5" ></text>
</g>
<g >
<title>SNESFunctionEval (398,183 us, 0.01%)</title><rect x="1189.9" y="103" width="0.1" height="15.0" fill="rgb(0,0,0)" rx="2" ry="2" />
<text  x="1192.87" y="113.5" ></text>
</g>
<g >
<title>Log_Event_subkernel10_interior_facet_horiz_top_to__exterior_facet_top_integral_otherwise (1,610,824 us, 0.05%)</title><rect x="1116.8" y="295" width="0.6" height="15.0" fill="rgb(0,0,0)" rx="2" ry="2" />
<text  x="1119.84" y="305.5" ></text>
</g>
<g >
<title>Log_Event_subkernel10_interior_facet_horiz_bottom_to__exterior_facet_bottom_integral_otherwise (1,607,796 us, 0.05%)</title><rect x="1116.3" y="295" width="0.5" height="15.0" fill="rgb(0,0,0)" rx="2" ry="2" />
<text  x="1119.31" y="305.5" ></text>
</g>
<g >
<title>solve_getrf (83,278,409 us, 2.33%)</title><rect x="1086.9" y="311" width="27.5" height="15.0" fill="rgb(0,0,0)" rx="2" ry="2" />
<text  x="1089.85" y="321.5" >s..</text>
</g>
<g >
<title>Log_Event_subkernel8_interior_facet_horiz_top_to__exterior_facet_top_integral_otherwise (2,977,562 us, 0.08%)</title><rect x="174.8" y="231" width="1.0" height="15.0" fill="rgb(0,0,0)" rx="2" ry="2" />
<text  x="177.82" y="241.5" ></text>
</g>
<g >
<title>solve_getrf (157,555,690 us, 4.41%)</title><rect x="947.7" y="295" width="52.1" height="15.0" fill="rgb(0,0,0)" rx="2" ry="2" />
<text  x="950.72" y="305.5" >solv..</text>
</g>
<g >
<title>Log_Event_subkernel8_interior_facet_horiz_top_to__exterior_facet_top_integral_otherwise (15,676,892 us, 0.44%)</title><rect x="615.9" y="279" width="5.2" height="15.0" fill="rgb(0,0,0)" rx="2" ry="2" />
<text  x="618.90" y="289.5" ></text>
</g>
<g >
<title>Log_Event_subkernel10_interior_facet_horiz_bottom_to__exterior_facet_bottom_integral_otherwise (15,395,136 us, 0.43%)</title><rect x="536.5" y="279" width="5.1" height="15.0" fill="rgb(0,0,0)" rx="2" ry="2" />
<text  x="539.49" y="289.5" ></text>
</g>
<g >
<title>solve_getrf (4,083,816 us, 0.11%)</title><rect x="76.2" y="199" width="1.3" height="15.0" fill="rgb(0,0,0)" rx="2" ry="2" />
<text  x="79.17" y="209.5" ></text>
</g>
<g >
<title>Log_Event_inits_wrap_slate_loopy_knl_7 (4,506,427 us, 0.13%)</title><rect x="945.6" y="279" width="1.5" height="15.0" fill="rgb(0,0,0)" rx="2" ry="2" />
<text  x="948.61" y="289.5" ></text>
</g>
<g >
<title>Log_Event_inits_wrap_slate_loopy_knl_7 (4,269,912 us, 0.12%)</title><rect x="104.9" y="231" width="1.4" height="15.0" fill="rgb(0,0,0)" rx="2" ry="2" />
<text  x="107.91" y="241.5" ></text>
</g>
<g >
<title>MatICCFactorSym (466,483 us, 0.01%)</title><rect x="75.6" y="151" width="0.2" height="15.0" fill="rgb(0,0,0)" rx="2" ry="2" />
<text  x="78.63" y="161.5" ></text>
</g>
<g >
<title>Log_Event_subkernel8_interior_facet_vert_to__exterior_facet_vert_integral_otherwise (53,317,720 us, 1.49%)</title><rect x="1020.3" y="279" width="17.6" height="15.0" fill="rgb(0,0,0)" rx="2" ry="2" />
<text  x="1023.31" y="289.5" ></text>
</g>
<g >
<title>MGInterp Level 1 (446,796 us, 0.01%)</title><rect x="942.9" y="247" width="0.2" height="15.0" fill="rgb(0,0,0)" rx="2" ry="2" />
<text  x="945.93" y="257.5" ></text>
</g>
<g >
<title>firedrake.mg.interface.prolong (446,796 us, 0.01%)</title><rect x="942.9" y="295" width="0.2" height="15.0" fill="rgb(0,0,0)" rx="2" ry="2" />
<text  x="945.93" y="305.5" ></text>
</g>
<g >
<title>Log_Event_inits_wrap_slate_loopy_knl_7 (2,370,890 us, 0.07%)</title><rect x="1085.7" y="295" width="0.8" height="15.0" fill="rgb(0,0,0)" rx="2" ry="2" />
<text  x="1088.74" y="305.5" ></text>
</g>
<g >
<title>Log_Event_slate_loopy_knl_3 (72,714,557 us, 2.04%)</title><rect x="1159.8" y="263" width="24.0" height="15.0" fill="rgb(0,0,0)" rx="2" ry="2" />
<text  x="1162.78" y="273.5" >L..</text>
</g>
<g >
<title>solve_getrf (149,304,427 us, 4.18%)</title><rect x="106.9" y="247" width="49.4" height="15.0" fill="rgb(0,0,0)" rx="2" ry="2" />
<text  x="109.92" y="257.5" >solv..</text>
</g>
<g >
<title>Log_Event_subkernel10_interior_facet_vert_to__exterior_facet_vert_integral_otherwise (20,361,504 us, 0.57%)</title><rect x="1117.4" y="295" width="6.7" height="15.0" fill="rgb(0,0,0)" rx="2" ry="2" />
<text  x="1120.38" y="305.5" ></text>
</g>
<g >
<title>Log_Event_subkernel17_interior_facet_vert_to__exterior_facet_vert_integral_otherwise (2,627,206 us, 0.07%)</title><rect x="95.6" y="199" width="0.8" height="15.0" fill="rgb(0,0,0)" rx="2" ry="2" />
<text  x="98.57" y="209.5" ></text>
</g>
<g >
<title>firedrake.assemble.assemble (773,939 us, 0.02%)</title><rect x="11.2" y="71" width="0.3" height="15.0" fill="rgb(0,0,0)" rx="2" ry="2" />
<text  x="14.20" y="81.5" ></text>
</g>
<g >
<title>Parloop_Cells_wrap_wrap_slate_loopy_knl_7 (2,136,422,366 us, 59.84%)</title><rect x="236.8" y="263" width="706.1" height="15.0" fill="rgb(0,0,0)" rx="2" ry="2" />
<text  x="239.82" y="273.5" >Parloop_Cells_wrap_wrap_slate_loopy_knl_7</text>
</g>
<g >
<title>PCSetUpOnBlocks (49,317,684 us, 1.38%)</title><rect x="59.5" y="119" width="16.3" height="15.0" fill="rgb(0,0,0)" rx="2" ry="2" />
<text  x="62.48" y="129.5" ></text>
</g>
<g >
<title>solve_getrs (3,094,755 us, 0.09%)</title><rect x="156.3" y="247" width="1.0" height="15.0" fill="rgb(0,0,0)" rx="2" ry="2" />
<text  x="159.26" y="257.5" ></text>
</g>
<g >
<title>KSPSetUp (317,835,246 us, 8.90%)</title><rect x="1084.6" y="199" width="105.1" height="15.0" fill="rgb(0,0,0)" rx="2" ry="2" />
<text  x="1087.62" y="209.5" >KSPSetUp</text>
</g>
<g >
<title>firedrake.assemble.allocate_matrix (127,033,008 us, 3.56%)</title><rect x="16.2" y="119" width="42.0" height="15.0" fill="rgb(0,0,0)" rx="2" ry="2" />
<text  x="19.19" y="129.5" >fir..</text>
</g>
<g >
<title>ParLoopExecute (10,072,977 us, 0.28%)</title><rect x="75.8" y="151" width="3.3" height="15.0" fill="rgb(0,0,0)" rx="2" ry="2" />
<text  x="78.78" y="161.5" ></text>
</g>
<g >
<title>MatSolve (2,429,638 us, 0.07%)</title><rect x="58.7" y="183" width="0.8" height="15.0" fill="rgb(0,0,0)" rx="2" ry="2" />
<text  x="61.68" y="193.5" ></text>
</g>
<g >
<title>Log_Event_form00_interior_facet_horiz_integral_otherwise (644,822 us, 0.02%)</title><rect x="14.6" y="151" width="0.2" height="15.0" fill="rgb(0,0,0)" rx="2" ry="2" />
<text  x="17.61" y="161.5" ></text>
</g>
<g >
<title>Parloop_Cells_wrap_wrap_slate_loopy_knl_3 (86,898,290 us, 2.43%)</title><rect x="1159.1" y="247" width="28.7" height="15.0" fill="rgb(0,0,0)" rx="2" ry="2" />
<text  x="1162.08" y="257.5" >P..</text>
</g>
<g >
<title>SCForwardElim (19,697,796 us, 0.55%)</title><rect x="96.4" y="135" width="6.5" height="15.0" fill="rgb(0,0,0)" rx="2" ry="2" />
<text  x="99.43" y="145.5" ></text>
</g>
<g >
<title>firedrake.assemble.allocate_matrix (5,648,909 us, 0.16%)</title><rect x="1187.8" y="231" width="1.9" height="15.0" fill="rgb(0,0,0)" rx="2" ry="2" />
<text  x="1190.81" y="241.5" ></text>
</g>
<g >
<title>Log_Event_subkernel10_interior_facet_horiz_bottom_to__exterior_facet_bottom_integral_otherwise (2,929,810 us, 0.08%)</title><rect x="159.8" y="231" width="0.9" height="15.0" fill="rgb(0,0,0)" rx="2" ry="2" />
<text  x="162.75" y="241.5" ></text>
</g>
<g >
<title>Parloop_Cells_wrap_wrap_slate_loopy_knl_7 (225,288,047 us, 6.31%)</title><rect x="1084.6" y="279" width="74.5" height="15.0" fill="rgb(0,0,0)" rx="2" ry="2" />
<text  x="1087.62" y="289.5" >Parloop..</text>
</g>
<g >
<title>KSPSolve (3,370,784,030 us, 94.41%)</title><rect x="75.8" y="103" width="1114.1" height="15.0" fill="rgb(0,0,0)" rx="2" ry="2" />
<text  x="78.78" y="113.5" >KSPSolve</text>
</g>
<g >
<title>firedrake.mg.embedded.TransferManager.op (891,724 us, 0.02%)</title><rect x="943.1" y="279" width="0.3" height="15.0" fill="rgb(0,0,0)" rx="2" ry="2" />
<text  x="946.08" y="289.5" ></text>
</g>
<g >
<title>solve_getrs (3,271,993 us, 0.09%)</title><rect x="999.8" y="295" width="1.1" height="15.0" fill="rgb(0,0,0)" rx="2" ry="2" />
<text  x="1002.80" y="305.5" ></text>
</g>
<g >
<title>Parloop_Cells_wrap_form00_interior_facet_horiz_integral_otherwise (1,291,731 us, 0.04%)</title><rect x="14.4" y="135" width="0.4" height="15.0" fill="rgb(0,0,0)" rx="2" ry="2" />
<text  x="17.39" y="145.5" ></text>
</g>
<g >
<title>DMCoarsen (891,724 us, 0.02%)</title><rect x="943.1" y="247" width="0.3" height="15.0" fill="rgb(0,0,0)" rx="2" ry="2" />
<text  x="946.08" y="257.5" ></text>
</g>
<g >
<title>firedrake.mg.interface.inject (891,724 us, 0.02%)</title><rect x="943.1" y="295" width="0.3" height="15.0" fill="rgb(0,0,0)" rx="2" ry="2" />
<text  x="946.08" y="305.5" ></text>
</g>
<g >
<title>firedrake.dmhooks.coarsen (891,724 us, 0.02%)</title><rect x="943.1" y="263" width="0.3" height="15.0" fill="rgb(0,0,0)" rx="2" ry="2" />
<text  x="946.08" y="273.5" ></text>
</g>
<g >
<title>solve_getrf (787,384,839 us, 22.05%)</title><rect x="257.9" y="295" width="260.2" height="15.0" fill="rgb(0,0,0)" rx="2" ry="2" />
<text  x="260.89" y="305.5" >solve_getrf</text>
</g>
<g >
<title>Parloop_Cells_wrap_wrap_slate_loopy_knl_7 (405,059,319 us, 11.35%)</title><rect x="102.9" y="215" width="133.9" height="15.0" fill="rgb(0,0,0)" rx="2" ry="2" />
<text  x="105.94" y="225.5" >Parloop_Cells_w..</text>
</g>
<g >
<title>ParLoopExecute (13,915,465 us, 0.39%)</title><rect x="11.6" y="119" width="4.6" height="15.0" fill="rgb(0,0,0)" rx="2" ry="2" />
<text  x="14.59" y="129.5" ></text>
</g>
<g >
<title>Parloop_Cells_wrap_wrap_slate_loopy_knl_0 (19,697,796 us, 0.55%)</title><rect x="96.4" y="183" width="6.5" height="15.0" fill="rgb(0,0,0)" rx="2" ry="2" />
<text  x="99.43" y="193.5" ></text>
</g>
<g >
<title>ParLoopExecute (86,898,290 us, 2.43%)</title><rect x="1159.1" y="231" width="28.7" height="15.0" fill="rgb(0,0,0)" rx="2" ry="2" />
<text  x="1162.08" y="241.5" >P..</text>
</g>
<g >
<title>Parloop_Cells_wrap_form00_cell_integral_otherwise (8,493,133 us, 0.24%)</title><rect x="11.6" y="135" width="2.8" height="15.0" fill="rgb(0,0,0)" rx="2" ry="2" />
<text  x="14.59" y="145.5" ></text>
</g>
<g >
<title>solve_getrs (16,364,627 us, 0.46%)</title><rect x="518.1" y="295" width="5.4" height="15.0" fill="rgb(0,0,0)" rx="2" ry="2" />
<text  x="521.13" y="305.5" ></text>
</g>
<g >
<title>Log_Event_form00_cell_integral_otherwise (1,909,136 us, 0.05%)</title><rect x="13.8" y="151" width="0.6" height="15.0" fill="rgb(0,0,0)" rx="2" ry="2" />
<text  x="16.76" y="161.5" ></text>
</g>
<g >
<title>firedrake.mg.embedded.TransferManager.op (446,796 us, 0.01%)</title><rect x="942.9" y="279" width="0.2" height="15.0" fill="rgb(0,0,0)" rx="2" ry="2" />
<text  x="945.93" y="289.5" ></text>
</g>
<g >
<title>firedrake.pointquery_utils.to_reference_coordinates (449,908 us, 0.01%)</title><rect x="943.4" y="279" width="0.1" height="15.0" fill="rgb(0,0,0)" rx="2" ry="2" />
<text  x="946.38" y="289.5" ></text>
</g>
<g >
<title>firedrake (3,570,219,092 us, 100.00%)</title><rect x="10.0" y="55" width="1180.0" height="15.0" fill="rgb(0,0,0)" rx="2" ry="2" />
<text  x="13.00" y="65.5" >firedrake</text>
</g>
<g >
<title>SNESSolve (3,371,182,213 us, 94.43%)</title><rect x="75.8" y="87" width="1114.2" height="15.0" fill="rgb(0,0,0)" rx="2" ry="2" />
<text  x="78.78" y="97.5" >SNESSolve</text>
</g>
<g >
<title>MatMult (225,288,047 us, 6.31%)</title><rect x="1084.6" y="231" width="74.5" height="15.0" fill="rgb(0,0,0)" rx="2" ry="2" />
<text  x="1087.62" y="241.5" >MatMult</text>
</g>
<g >
<title>Log_Event_form00_interior_facet_vert_integral_otherwise (2,425,069 us, 0.07%)</title><rect x="15.4" y="151" width="0.8" height="15.0" fill="rgb(0,0,0)" rx="2" ry="2" />
<text  x="18.38" y="161.5" ></text>
</g>
<g >
<title>inv_getri (19,832,777 us, 0.56%)</title><rect x="85.1" y="215" width="6.6" height="15.0" fill="rgb(0,0,0)" rx="2" ry="2" />
<text  x="88.10" y="225.5" ></text>
</g>
<g >
<title>Log_Event_subkernel9_cell_to__cell_integral_otherwise (74,523,684 us, 2.09%)</title><rect x="1134.5" y="295" width="24.6" height="15.0" fill="rgb(0,0,0)" rx="2" ry="2" />
<text  x="1137.45" y="305.5" >L..</text>
</g>
<g >
<title>Log_Event_subkernel9_cell_to__cell_integral_otherwise (141,255,730 us, 3.96%)</title><rect x="1037.9" y="279" width="46.7" height="15.0" fill="rgb(0,0,0)" rx="2" ry="2" />
<text  x="1040.94" y="289.5" >Log_..</text>
</g>
<g >
<title>Log_Event_subkernel8_interior_facet_horiz_bottom_to__exterior_facet_bottom_integral_otherwise (1,674,376 us, 0.05%)</title><rect x="1124.1" y="295" width="0.6" height="15.0" fill="rgb(0,0,0)" rx="2" ry="2" />
<text  x="1127.11" y="305.5" ></text>
</g>
<g >
<title>CreateSparsity (87,339,614 us, 2.45%)</title><rect x="16.2" y="135" width="28.9" height="15.0" fill="rgb(0,0,0)" rx="2" ry="2" />
<text  x="19.19" y="145.5" >C..</text>
</g>
<g >
<title>firedrake.pointquery_utils.to_reference_coordinates (446,796 us, 0.01%)</title><rect x="942.9" y="311" width="0.2" height="15.0" fill="rgb(0,0,0)" rx="2" ry="2" />
<text  x="945.93" y="321.5" ></text>
</g>
<g >
<title>inv_getrf (4,081,457 us, 0.11%)</title><rect x="83.7" y="215" width="1.4" height="15.0" fill="rgb(0,0,0)" rx="2" ry="2" />
<text  x="86.75" y="225.5" ></text>
</g>
<g >
<title>solve_memcpy (4,134,804 us, 0.12%)</title><rect x="1114.9" y="311" width="1.4" height="15.0" fill="rgb(0,0,0)" rx="2" ry="2" />
<text  x="1117.95" y="321.5" ></text>
</g>
<g >
<title>firedrake.matrix_free.operators.ImplicitMatrixContext.mult (225,288,047 us, 6.31%)</title><rect x="1084.6" y="247" width="74.5" height="15.0" fill="rgb(0,0,0)" rx="2" ry="2" />
<text  x="1087.62" y="257.5" >firedra..</text>
</g>
<g >
<title>Log_Event_subkernel19_cell_to__cell_integral_otherwise (1,542,549 us, 0.04%)</title><rect x="77.5" y="183" width="0.5" height="15.0" fill="rgb(0,0,0)" rx="2" ry="2" />
<text  x="80.52" y="193.5" ></text>
</g>
<g >
<title>firedrake.__init__ (1,520,825 us, 0.04%)</title><rect x="10.7" y="71" width="0.5" height="15.0" fill="rgb(0,0,0)" rx="2" ry="2" />
<text  x="13.70" y="81.5" ></text>
</g>
<g >
<title>PCSetUp (92,547,199 us, 2.59%)</title><rect x="1159.1" y="215" width="30.6" height="15.0" fill="rgb(0,0,0)" rx="2" ry="2" />
<text  x="1162.08" y="225.5" >P..</text>
</g>
<g >
<title>Log_Event_slate_loopy_knl_18 (4,532,107 us, 0.13%)</title><rect x="76.0" y="183" width="1.5" height="15.0" fill="rgb(0,0,0)" rx="2" ry="2" />
<text  x="79.03" y="193.5" ></text>
</g>
<g >
<title>Log_Event_subkernel21_interior_facet_vert_to__exterior_facet_vert_integral_otherwise (2,621,500 us, 0.07%)</title><rect x="78.2" y="183" width="0.9" height="15.0" fill="rgb(0,0,0)" rx="2" ry="2" />
<text  x="81.25" y="193.5" ></text>
</g>
<g >
<title>solve_memcpy (7,881,700 us, 0.22%)</title><rect x="1000.9" y="295" width="2.6" height="15.0" fill="rgb(0,0,0)" rx="2" ry="2" />
<text  x="1003.88" y="305.5" ></text>
</g>
<g >
<title>Log_Event_subkernel5_cell_to__cell_integral_otherwise (7,413,969 us, 0.21%)</title><rect x="1184.7" y="263" width="2.4" height="15.0" fill="rgb(0,0,0)" rx="2" ry="2" />
<text  x="1187.68" y="273.5" ></text>
</g>
<g >
<title>Log_Event_subkernel10_interior_facet_vert_to__exterior_facet_vert_integral_otherwise (38,599,369 us, 1.08%)</title><rect x="1005.5" y="279" width="12.7" height="15.0" fill="rgb(0,0,0)" rx="2" ry="2" />
<text  x="1008.49" y="289.5" ></text>
</g>
<g >
<title>Log_Event_subkernel8_interior_facet_horiz_bottom_to__exterior_facet_bottom_integral_otherwise (3,171,059 us, 0.09%)</title><rect x="1018.2" y="279" width="1.1" height="15.0" fill="rgb(0,0,0)" rx="2" ry="2" />
<text  x="1021.25" y="289.5" ></text>
</g>
<g >
<title>CreateSparsity (4,292,783 us, 0.12%)</title><rect x="1187.8" y="247" width="1.4" height="15.0" fill="rgb(0,0,0)" rx="2" ry="2" />
<text  x="1190.81" y="257.5" ></text>
</g>
<g >
<title>Log_Event_form00_exterior_facet_vert_integral_otherwise (468,111 us, 0.01%)</title><rect x="14.8" y="151" width="0.2" height="15.0" fill="rgb(0,0,0)" rx="2" ry="2" />
<text  x="17.82" y="161.5" ></text>
</g>
<g >
<title>KSPSolve (2,429,638 us, 0.07%)</title><rect x="58.7" y="151" width="0.8" height="15.0" fill="rgb(0,0,0)" rx="2" ry="2" />
<text  x="61.68" y="161.5" ></text>
</g>
<g >
<title>ParLoopExecute (388,359 us, 0.01%)</title><rect x="11.5" y="103" width="0.1" height="15.0" fill="rgb(0,0,0)" rx="2" ry="2" />
<text  x="14.46" y="113.5" ></text>
</g>
<g >
<title>solve_getrf (8,382,501 us, 0.23%)</title><rect x="91.7" y="215" width="2.7" height="15.0" fill="rgb(0,0,0)" rx="2" ry="2" />
<text  x="94.65" y="225.5" ></text>
</g>
<g >
<title>inv_getrf (8,301,912 us, 0.23%)</title><rect x="1167.3" y="279" width="2.8" height="15.0" fill="rgb(0,0,0)" rx="2" ry="2" />
<text  x="1170.31" y="289.5" ></text>
</g>
<g >
<title>Log_Event_subkernel2_cell_to__cell_integral_otherwise (7,421,916 us, 0.21%)</title><rect x="100.5" y="199" width="2.4" height="15.0" fill="rgb(0,0,0)" rx="2" ry="2" />
<text  x="103.49" y="209.5" ></text>
</g>
<g >
<title>MatMult (2,136,422,366 us, 59.84%)</title><rect x="236.8" y="215" width="706.1" height="15.0" fill="rgb(0,0,0)" rx="2" ry="2" />
<text  x="239.82" y="225.5" >MatMult</text>
</g>
<g >
<title>ParLoopExecute (19,697,796 us, 0.55%)</title><rect x="96.4" y="167" width="6.5" height="15.0" fill="rgb(0,0,0)" rx="2" ry="2" />
<text  x="99.43" y="177.5" ></text>
</g>
<g >
<title>firedrake.mg.interface.restrict (449,908 us, 0.01%)</title><rect x="943.4" y="263" width="0.1" height="15.0" fill="rgb(0,0,0)" rx="2" ry="2" />
<text  x="946.38" y="273.5" ></text>
</g>
<g >
<title>ParLoopExecute (405,059,319 us, 11.35%)</title><rect x="102.9" y="199" width="133.9" height="15.0" fill="rgb(0,0,0)" rx="2" ry="2" />
<text  x="105.94" y="209.5" >ParLoopExecute</text>
</g>
<g >
<title>solve_getrf (8,316,607 us, 0.23%)</title><rect x="96.7" y="215" width="2.7" height="15.0" fill="rgb(0,0,0)" rx="2" ry="2" />
<text  x="99.68" y="225.5" ></text>
</g>
<g >
<title>Log_Event_subkernel10_interior_facet_horiz_top_to__exterior_facet_top_integral_otherwise (3,033,780 us, 0.08%)</title><rect x="1004.5" y="279" width="1.0" height="15.0" fill="rgb(0,0,0)" rx="2" ry="2" />
<text  x="1007.49" y="289.5" ></text>
</g>
<g >
<title>ParLoopExecute (52,404,422 us, 1.47%)</title><rect x="79.1" y="167" width="17.3" height="15.0" fill="rgb(0,0,0)" rx="2" ry="2" />
<text  x="82.11" y="177.5" ></text>
</g>
<g >
<title>PCApply (446,796 us, 0.01%)</title><rect x="942.9" y="231" width="0.2" height="15.0" fill="rgb(0,0,0)" rx="2" ry="2" />
<text  x="945.93" y="241.5" ></text>
</g>
<g >
<title>KSPSolve (225,288,047 us, 6.31%)</title><rect x="1084.6" y="215" width="74.5" height="15.0" fill="rgb(0,0,0)" rx="2" ry="2" />
<text  x="1087.62" y="225.5" >KSPSolve</text>
</g>
<g >
<title>RecoverFirstElim (52,404,422 us, 1.47%)</title><rect x="79.1" y="151" width="17.3" height="15.0" fill="rgb(0,0,0)" rx="2" ry="2" />
<text  x="82.11" y="161.5" ></text>
</g>
<g >
<title>Log_Event_slate_loopy_knl_11 (46,060,135 us, 1.29%)</title><rect x="79.4" y="199" width="15.2" height="15.0" fill="rgb(0,0,0)" rx="2" ry="2" />
<text  x="82.37" y="209.5" ></text>
</g>
<g >
<title>solve_memcpy (521,387 us, 0.01%)</title><rect x="94.4" y="215" width="0.2" height="15.0" fill="rgb(0,0,0)" rx="2" ry="2" />
<text  x="97.42" y="225.5" ></text>
</g>
<g >
<title>firedrake.matrix_free.operators.ImplicitMatrixContext.mult (2,136,422,366 us, 59.84%)</title><rect x="236.8" y="231" width="706.1" height="15.0" fill="rgb(0,0,0)" rx="2" ry="2" />
<text  x="239.82" y="241.5" >firedrake.matrix_free.operators.ImplicitMatrixContext.mult</text>
</g>
<g >
<title>Log_Event_subkernel10_interior_facet_horiz_bottom_to__exterior_facet_bottom_integral_otherwise (3,036,377 us, 0.09%)</title><rect x="1003.5" y="279" width="1.0" height="15.0" fill="rgb(0,0,0)" rx="2" ry="2" />
<text  x="1006.48" y="289.5" ></text>
</g>
<g >
<title>Log_Event_slate_loopy_knl_7 (90,130,922 us, 2.52%)</title><rect x="1086.5" y="295" width="29.8" height="15.0" fill="rgb(0,0,0)" rx="2" ry="2" />
<text  x="1089.52" y="305.5" >L..</text>
</g>
<g >
<title>MatMult (1,541,470 us, 0.04%)</title><rect x="58.2" y="135" width="0.5" height="15.0" fill="rgb(0,0,0)" rx="2" ry="2" />
<text  x="61.17" y="145.5" ></text>
</g>
<g >
<title>Log_Event_subkernel20_cell_to__cell_integral_otherwise (642,631 us, 0.02%)</title><rect x="78.0" y="183" width="0.2" height="15.0" fill="rgb(0,0,0)" rx="2" ry="2" />
<text  x="81.03" y="193.5" ></text>
</g>
<g >
<title>inv_memcpy (416,946 us, 0.01%)</title><rect x="1183.7" y="279" width="0.1" height="15.0" fill="rgb(0,0,0)" rx="2" ry="2" />
<text  x="1186.68" y="289.5" ></text>
</g>
<g >
<title>Log_Event_subkernel1_interior_facet_vert_to__exterior_facet_vert_integral_otherwise (2,796,627 us, 0.08%)</title><rect x="99.6" y="199" width="0.9" height="15.0" fill="rgb(0,0,0)" rx="2" ry="2" />
<text  x="102.57" y="209.5" ></text>
</g>
<g >
<title>MatResidual (426,909,459 us, 11.96%)</title><rect x="943.5" y="199" width="141.1" height="15.0" fill="rgb(0,0,0)" rx="2" ry="2" />
<text  x="946.53" y="209.5" >MatResidual</text>
</g>
<g >
<title>Log_Event_inits_wrap_slate_loopy_knl_7 (22,547,610 us, 0.63%)</title><rect x="247.3" y="279" width="7.5" height="15.0" fill="rgb(0,0,0)" rx="2" ry="2" />
<text  x="250.33" y="289.5" ></text>
</g>
<g >
<title>Log_Event_subkernel8_interior_facet_horiz_bottom_to__exterior_facet_bottom_integral_otherwise (3,046,932 us, 0.09%)</title><rect x="173.8" y="231" width="1.0" height="15.0" fill="rgb(0,0,0)" rx="2" ry="2" />
<text  x="176.81" y="241.5" ></text>
</g>
<g >
<title>firedrake.matrix_free.operators.ImplicitMatrixContext.mult (405,059,319 us, 11.35%)</title><rect x="102.9" y="183" width="133.9" height="15.0" fill="rgb(0,0,0)" rx="2" ry="2" />
<text  x="105.94" y="193.5" >firedrake.matri..</text>
</g>
</g>
</svg>
