<?xml version="1.0" standalone="no"?>
<!DOCTYPE svg PUBLIC "-//W3C//DTD SVG 1.1//EN" "http://www.w3.org/Graphics/SVG/1.1/DTD/svg11.dtd">
<svg version="1.1" width="1200" height="363" onload="init(evt)" viewBox="0 0 1200 363" xmlns="http://www.w3.org/2000/svg" xmlns:xlink="http://www.w3.org/1999/xlink">
<!-- Flame graph stack visualization. See https://github.com/brendangregg/FlameGraph for latest version, and http://www.brendangregg.com/flamegraphs.html for examples. -->
<!-- NOTES:  -->
<defs>
	<linearGradient id="background" y1="0" y2="1" x1="0" x2="0" >
		<stop stop-color="#eeeeee" offset="5%" />
		<stop stop-color="#eeeeb0" offset="95%" />
	</linearGradient>
</defs>
<style type="text/css">
	text { font-family:Verdana; font-size:13px; fill:rgb(0,0,0); }
	#search, #ignorecase { opacity:0.1; cursor:pointer; }
	#search:hover, #search.show, #ignorecase:hover, #ignorecase.show { opacity:1; }
	#subtitle { text-anchor:middle; font-color:rgb(160,160,160); }
	#title { text-anchor:middle; font-size:18px}
	#unzoom { cursor:pointer; }
	#frames > *:hover { stroke:black; stroke-width:0.5; cursor:pointer; }
	.hide { display:none; }
	.parent { opacity:0.5; }
</style>
<script type="text/ecmascript">
<![CDATA[
	"use strict";
	var details, searchbtn, unzoombtn, matchedtxt, svg, searching, currentSearchTerm, ignorecase, ignorecaseBtn;
	function init(evt) {
		details = document.getElementById("details").firstChild;
		searchbtn = document.getElementById("search");
		ignorecaseBtn = document.getElementById("ignorecase");
		unzoombtn = document.getElementById("unzoom");
		matchedtxt = document.getElementById("matched");
		svg = document.getElementsByTagName("svg")[0];
		searching = 0;
		currentSearchTerm = null;

		// use GET parameters to restore a flamegraphs state.
		var params = get_params();
		if (params.x && params.y)
			zoom(find_group(document.querySelector('[x="' + params.x + '"][y="' + params.y + '"]')));
                if (params.s) search(params.s);
	}

	// event listeners
	window.addEventListener("click", function(e) {
		var target = find_group(e.target);
		if (target) {
			if (target.nodeName == "a") {
				if (e.ctrlKey === false) return;
				e.preventDefault();
			}
			if (target.classList.contains("parent")) unzoom();
			zoom(target);
			if (!document.querySelector('.parent')) {
				clearzoom();
				return;
			}

			// set parameters for zoom state
			var el = target.querySelector("rect");
			if (el && el.attributes && el.attributes.y && el.attributes._orig_x) {
				var params = get_params()
				params.x = el.attributes._orig_x.value;
				params.y = el.attributes.y.value;
				history.replaceState(null, null, parse_params(params));
			}
		}
		else if (e.target.id == "unzoom") clearzoom();
		else if (e.target.id == "search") search_prompt();
		else if (e.target.id == "ignorecase") toggle_ignorecase();
	}, false)

	// mouse-over for info
	// show
	window.addEventListener("mouseover", function(e) {
		var target = find_group(e.target);
		if (target) details.nodeValue = "Function: " + g_to_text(target);
	}, false)

	// clear
	window.addEventListener("mouseout", function(e) {
		var target = find_group(e.target);
		if (target) details.nodeValue = ' ';
	}, false)

	// ctrl-F for search
	// ctrl-I to toggle case-sensitive search
	window.addEventListener("keydown",function (e) {
		if (e.keyCode === 114 || (e.ctrlKey && e.keyCode === 70)) {
			e.preventDefault();
			search_prompt();
		}
		else if (e.ctrlKey && e.keyCode === 73) {
			e.preventDefault();
			toggle_ignorecase();
		}
	}, false)

	// functions
	function get_params() {
		var params = {};
		var paramsarr = window.location.search.substr(1).split('&');
		for (var i = 0; i < paramsarr.length; ++i) {
			var tmp = paramsarr[i].split("=");
			if (!tmp[0] || !tmp[1]) continue;
			params[tmp[0]]  = decodeURIComponent(tmp[1]);
		}
		return params;
	}
	function parse_params(params) {
		var uri = "?";
		for (var key in params) {
			uri += key + '=' + encodeURIComponent(params[key]) + '&';
		}
		if (uri.slice(-1) == "&")
			uri = uri.substring(0, uri.length - 1);
		if (uri == '?')
			uri = window.location.href.split('?')[0];
		return uri;
	}
	function find_child(node, selector) {
		var children = node.querySelectorAll(selector);
		if (children.length) return children[0];
	}
	function find_group(node) {
		var parent = node.parentElement;
		if (!parent) return;
		if (parent.id == "frames") return node;
		return find_group(parent);
	}
	function orig_save(e, attr, val) {
		if (e.attributes["_orig_" + attr] != undefined) return;
		if (e.attributes[attr] == undefined) return;
		if (val == undefined) val = e.attributes[attr].value;
		e.setAttribute("_orig_" + attr, val);
	}
	function orig_load(e, attr) {
		if (e.attributes["_orig_"+attr] == undefined) return;
		e.attributes[attr].value = e.attributes["_orig_" + attr].value;
		e.removeAttribute("_orig_"+attr);
	}
	function g_to_text(e) {
		var text = find_child(e, "title").firstChild.nodeValue;
		return (text)
	}
	function g_to_func(e) {
		var func = g_to_text(e);
		// if there's any manipulation we want to do to the function
		// name before it's searched, do it here before returning.
		return (func);
	}
	function update_text(e) {
		var r = find_child(e, "rect");
		var t = find_child(e, "text");
		var w = parseFloat(r.attributes.width.value) -3;
		var txt = find_child(e, "title").textContent.replace(/\([^(]*\)$/,"");
		t.attributes.x.value = parseFloat(r.attributes.x.value) + 3;

		// Smaller than this size won't fit anything
		if (w < 2 * 13 * 0.59) {
			t.textContent = "";
			return;
		}

		t.textContent = txt;
		// Fit in full text width
		if (/^ *$/.test(txt) || t.getSubStringLength(0, txt.length) < w)
			return;

		for (var x = txt.length - 2; x > 0; x--) {
			if (t.getSubStringLength(0, x + 2) <= w) {
				t.textContent = txt.substring(0, x) + "..";
				return;
			}
		}
		t.textContent = "";
	}

	// zoom
	function zoom_reset(e) {
		if (e.attributes != undefined) {
			orig_load(e, "x");
			orig_load(e, "width");
		}
		if (e.childNodes == undefined) return;
		for (var i = 0, c = e.childNodes; i < c.length; i++) {
			zoom_reset(c[i]);
		}
	}
	function zoom_child(e, x, ratio) {
		if (e.attributes != undefined) {
			if (e.attributes.x != undefined) {
				orig_save(e, "x");
				e.attributes.x.value = (parseFloat(e.attributes.x.value) - x - 10) * ratio + 10;
				if (e.tagName == "text")
					e.attributes.x.value = find_child(e.parentNode, "rect[x]").attributes.x.value + 3;
			}
			if (e.attributes.width != undefined) {
				orig_save(e, "width");
				e.attributes.width.value = parseFloat(e.attributes.width.value) * ratio;
			}
		}

		if (e.childNodes == undefined) return;
		for (var i = 0, c = e.childNodes; i < c.length; i++) {
			zoom_child(c[i], x - 10, ratio);
		}
	}
	function zoom_parent(e) {
		if (e.attributes) {
			if (e.attributes.x != undefined) {
				orig_save(e, "x");
				e.attributes.x.value = 10;
			}
			if (e.attributes.width != undefined) {
				orig_save(e, "width");
				e.attributes.width.value = parseInt(svg.width.baseVal.value) - (10 * 2);
			}
		}
		if (e.childNodes == undefined) return;
		for (var i = 0, c = e.childNodes; i < c.length; i++) {
			zoom_parent(c[i]);
		}
	}
	function zoom(node) {
		var attr = find_child(node, "rect").attributes;
		var width = parseFloat(attr.width.value);
		var xmin = parseFloat(attr.x.value);
		var xmax = parseFloat(xmin + width);
		var ymin = parseFloat(attr.y.value);
		var ratio = (svg.width.baseVal.value - 2 * 10) / width;

		// XXX: Workaround for JavaScript float issues (fix me)
		var fudge = 0.0001;

		unzoombtn.classList.remove("hide");

		var el = document.getElementById("frames").children;
		for (var i = 0; i < el.length; i++) {
			var e = el[i];
			var a = find_child(e, "rect").attributes;
			var ex = parseFloat(a.x.value);
			var ew = parseFloat(a.width.value);
			var upstack;
			// Is it an ancestor
			if (1 == 0) {
				upstack = parseFloat(a.y.value) > ymin;
			} else {
				upstack = parseFloat(a.y.value) < ymin;
			}
			if (upstack) {
				// Direct ancestor
				if (ex <= xmin && (ex+ew+fudge) >= xmax) {
					e.classList.add("parent");
					zoom_parent(e);
					update_text(e);
				}
				// not in current path
				else
					e.classList.add("hide");
			}
			// Children maybe
			else {
				// no common path
				if (ex < xmin || ex + fudge >= xmax) {
					e.classList.add("hide");
				}
				else {
					zoom_child(e, xmin, ratio);
					update_text(e);
				}
			}
		}
		search();
	}
	function unzoom() {
		unzoombtn.classList.add("hide");
		var el = document.getElementById("frames").children;
		for(var i = 0; i < el.length; i++) {
			el[i].classList.remove("parent");
			el[i].classList.remove("hide");
			zoom_reset(el[i]);
			update_text(el[i]);
		}
		search();
	}
	function clearzoom() {
		unzoom();

		// remove zoom state
		var params = get_params();
		if (params.x) delete params.x;
		if (params.y) delete params.y;
		history.replaceState(null, null, parse_params(params));
	}

	// search
	function toggle_ignorecase() {
		ignorecase = !ignorecase;
		if (ignorecase) {
			ignorecaseBtn.classList.add("show");
		} else {
			ignorecaseBtn.classList.remove("show");
		}
		reset_search();
		search();
	}
	function reset_search() {
		var el = document.querySelectorAll("#frames rect");
		for (var i = 0; i < el.length; i++) {
			orig_load(el[i], "fill")
		}
		var params = get_params();
		delete params.s;
		history.replaceState(null, null, parse_params(params));
	}
	function search_prompt() {
		if (!searching) {
			var term = prompt("Enter a search term (regexp " +
			    "allowed, eg: ^ext4_)"
			    + (ignorecase ? ", ignoring case" : "")
			    + "\nPress Ctrl-i to toggle case sensitivity", "");
			if (term != null) search(term);
		} else {
			reset_search();
			searching = 0;
			currentSearchTerm = null;
			searchbtn.classList.remove("show");
			searchbtn.firstChild.nodeValue = "Search"
			matchedtxt.classList.add("hide");
			matchedtxt.firstChild.nodeValue = ""
		}
	}
	function search(term) {
		if (term) currentSearchTerm = term;

		var re = new RegExp(currentSearchTerm, ignorecase ? 'i' : '');
		var el = document.getElementById("frames").children;
		var matches = new Object();
		var maxwidth = 0;
		for (var i = 0; i < el.length; i++) {
			var e = el[i];
			var func = g_to_func(e);
			var rect = find_child(e, "rect");
			if (func == null || rect == null)
				continue;

			// Save max width. Only works as we have a root frame
			var w = parseFloat(rect.attributes.width.value);
			if (w > maxwidth)
				maxwidth = w;

			if (func.match(re)) {
				// highlight
				var x = parseFloat(rect.attributes.x.value);
				orig_save(rect, "fill");
				rect.attributes.fill.value = "rgb(230,0,230)";

				// remember matches
				if (matches[x] == undefined) {
					matches[x] = w;
				} else {
					if (w > matches[x]) {
						// overwrite with parent
						matches[x] = w;
					}
				}
				searching = 1;
			}
		}
		if (!searching)
			return;
		var params = get_params();
		params.s = currentSearchTerm;
		history.replaceState(null, null, parse_params(params));

		searchbtn.classList.add("show");
		searchbtn.firstChild.nodeValue = "Reset Search";

		// calculate percent matched, excluding vertical overlap
		var count = 0;
		var lastx = -1;
		var lastw = 0;
		var keys = Array();
		for (k in matches) {
			if (matches.hasOwnProperty(k))
				keys.push(k);
		}
		// sort the matched frames by their x location
		// ascending, then width descending
		keys.sort(function(a, b){
			return a - b;
		});
		// Step through frames saving only the biggest bottom-up frames
		// thanks to the sort order. This relies on the tree property
		// where children are always smaller than their parents.
		var fudge = 0.0001;	// JavaScript floating point
		for (var k in keys) {
			var x = parseFloat(keys[k]);
			var w = matches[keys[k]];
			if (x >= lastx + lastw - fudge) {
				count += w;
				lastx = x;
				lastw = w;
			}
		}
		// display matched percent
		matchedtxt.classList.remove("hide");
		var pct = 100 * count / maxwidth;
		if (pct != 100) pct = pct.toFixed(1)
		matchedtxt.firstChild.nodeValue = "Matched: " + pct + "%";
	}
]]>
</script>
<rect x="0.0" y="0" width="1200.0" height="363.0" fill="url(#background)"  />
<text id="title" x="600.00" y="26" >Firedrake example</text>
<text id="details" x="10.00" y="345" > </text>
<text id="unzoom" x="10.00" y="26" class="hide">Reset Zoom</text>
<text id="search" x="1090.00" y="26" >Search</text>
<text id="ignorecase" x="1174.00" y="26" >ic</text>
<text id="matched" x="1090.00" y="345" > </text>
<g id="frames">
<g >
<title>Log_Event_subkernel8_interior_facet_horiz_bottom_to__exterior_facet_bottom_integral_otherwise (2,257,615 us, 0.13%)</title><rect x="138.6" y="231" width="1.6" height="15.0" fill="rgb(0,0,0)" rx="2" ry="2" />
<text  x="141.63" y="241.5" ></text>
</g>
<g >
<title>firedrake.mg.interface.restrict (292,613 us, 0.02%)</title><rect x="883.5" y="263" width="0.2" height="15.0" fill="rgb(0,0,0)" rx="2" ry="2" />
<text  x="886.51" y="273.5" ></text>
</g>
<g >
<title>Log_Event_subkernel10_interior_facet_vert_to__exterior_facet_vert_integral_otherwise (11,357,931 us, 0.67%)</title><rect x="955.4" y="279" width="8.0" height="15.0" fill="rgb(0,0,0)" rx="2" ry="2" />
<text  x="958.42" y="289.5" ></text>
</g>
<g >
<title>Log_Event_subkernel10_interior_facet_vert_to__exterior_facet_vert_integral_otherwise (9,389,837 us, 0.56%)</title><rect x="1080.7" y="295" width="6.5" height="15.0" fill="rgb(0,0,0)" rx="2" ry="2" />
<text  x="1083.65" y="305.5" ></text>
</g>
<g >
<title>Log_Event_subkernel10_interior_facet_horiz_top_to__exterior_facet_top_integral_otherwise (7,636,936 us, 0.45%)</title><rect x="547.8" y="279" width="5.3" height="15.0" fill="rgb(0,0,0)" rx="2" ry="2" />
<text  x="550.78" y="289.5" ></text>
</g>
<g >
<title>MatMultTranspose (292,613 us, 0.02%)</title><rect x="883.5" y="247" width="0.2" height="15.0" fill="rgb(0,0,0)" rx="2" ry="2" />
<text  x="886.51" y="257.5" ></text>
</g>
<g >
<title>PCApply (735,042 us, 0.04%)</title><rect x="882.5" y="231" width="0.6" height="15.0" fill="rgb(0,0,0)" rx="2" ry="2" />
<text  x="885.54" y="241.5" ></text>
</g>
<g >
<title>MatMult (196,383,042 us, 11.66%)</title><rect x="883.7" y="215" width="137.6" height="15.0" fill="rgb(0,0,0)" rx="2" ry="2" />
<text  x="886.72" y="225.5" >MatMult</text>
</g>
<g >
<title>solve_getrs (1,900,621 us, 0.11%)</title><rect x="949.2" y="295" width="1.3" height="15.0" fill="rgb(0,0,0)" rx="2" ry="2" />
<text  x="952.17" y="305.5" ></text>
</g>
<g >
<title>KSPSolve (1,613,457,876 us, 95.80%)</title><rect x="59.0" y="151" width="1130.5" height="15.0" fill="rgb(0,0,0)" rx="2" ry="2" />
<text  x="62.02" y="161.5" >KSPSolve</text>
</g>
<g >
<title>solve_getrf (7,255,771 us, 0.43%)</title><rect x="48.9" y="215" width="5.1" height="15.0" fill="rgb(0,0,0)" rx="2" ry="2" />
<text  x="51.87" y="225.5" ></text>
</g>
<g >
<title>PCApply (1,177,359,544 us, 69.91%)</title><rect x="196.4" y="183" width="824.9" height="15.0" fill="rgb(0,0,0)" rx="2" ry="2" />
<text  x="199.39" y="193.5" >PCApply</text>
</g>
<g >
<title>solve_getrf (7,531,517 us, 0.45%)</title><rect x="39.3" y="215" width="5.3" height="15.0" fill="rgb(0,0,0)" rx="2" ry="2" />
<text  x="42.30" y="225.5" ></text>
</g>
<g >
<title>MatZeroInitial (2,564,922 us, 0.15%)</title><rect x="1187.7" y="247" width="1.8" height="15.0" fill="rgb(0,0,0)" rx="2" ry="2" />
<text  x="1190.70" y="257.5" ></text>
</g>
<g >
<title>firedrake.pointquery_utils.to_reference_coordinates (292,613 us, 0.02%)</title><rect x="883.5" y="279" width="0.2" height="15.0" fill="rgb(0,0,0)" rx="2" ry="2" />
<text  x="886.51" y="289.5" ></text>
</g>
<g >
<title>PCSetUp (945,996 us, 0.06%)</title><rect x="883.1" y="231" width="0.6" height="15.0" fill="rgb(0,0,0)" rx="2" ry="2" />
<text  x="886.05" y="241.5" ></text>
</g>
<g >
<title>HybridInit (179,358 us, 0.01%)</title><rect x="1189.9" y="119" width="0.1" height="15.0" fill="rgb(0,0,0)" rx="2" ry="2" />
<text  x="1192.87" y="129.5" ></text>
</g>
<g >
<title>Log_Event_subkernel8_interior_facet_horiz_top_to__exterior_facet_top_integral_otherwise (2,604,374 us, 0.15%)</title><rect x="1088.6" y="295" width="1.8" height="15.0" fill="rgb(0,0,0)" rx="2" ry="2" />
<text  x="1091.55" y="305.5" ></text>
</g>
<g >
<title>PCApply (1,417,399,620 us, 84.16%)</title><rect x="196.4" y="167" width="993.1" height="15.0" fill="rgb(0,0,0)" rx="2" ry="2" />
<text  x="199.39" y="177.5" >PCApply</text>
</g>
<g >
<title>PCSetUp (240,040,076 us, 14.25%)</title><rect x="1021.3" y="183" width="168.2" height="15.0" fill="rgb(0,0,0)" rx="2" ry="2" />
<text  x="1024.31" y="193.5" >PCSetUp</text>
</g>
<g >
<title>KSPSetUp (240,040,076 us, 14.25%)</title><rect x="1021.3" y="199" width="168.2" height="15.0" fill="rgb(0,0,0)" rx="2" ry="2" />
<text  x="1024.31" y="209.5" >KSPSetUp</text>
</g>
<g >
<title>Log_Event_subkernel15_cell_to__cell_integral_otherwise (428,967 us, 0.03%)</title><rect x="46.5" y="199" width="0.3" height="15.0" fill="rgb(0,0,0)" rx="2" ry="2" />
<text  x="49.54" y="209.5" ></text>
</g>
<g >
<title>Log_Event_subkernel21_interior_facet_vert_to__exterior_facet_vert_integral_otherwise (1,988,465 us, 0.12%)</title><rect x="16.3" y="183" width="1.4" height="15.0" fill="rgb(0,0,0)" rx="2" ry="2" />
<text  x="19.31" y="193.5" ></text>
</g>
<g >
<title>Log_Event_subkernel6_interior_facet_vert_to__exterior_facet_vert_integral_otherwise (948,446 us, 0.06%)</title><rect x="1178.8" y="263" width="0.7" height="15.0" fill="rgb(0,0,0)" rx="2" ry="2" />
<text  x="1181.80" y="273.5" ></text>
</g>
<g >
<title>inv_memcpy (360,167 us, 0.02%)</title><rect x="1173.7" y="279" width="0.2" height="15.0" fill="rgb(0,0,0)" rx="2" ry="2" />
<text  x="1176.66" y="289.5" ></text>
</g>
<g >
<title>Parloop_Cells_wrap_wrap_slate_loopy_knl_7 (196,058,256 us, 11.64%)</title><rect x="59.0" y="215" width="137.4" height="15.0" fill="rgb(0,0,0)" rx="2" ry="2" />
<text  x="62.02" y="225.5" >Parloop_Cells_w..</text>
</g>
<g >
<title>Parloop_Cells_wrap_wrap_slate_loopy_knl_7 (196,383,042 us, 11.66%)</title><rect x="883.7" y="263" width="137.6" height="15.0" fill="rgb(0,0,0)" rx="2" ry="2" />
<text  x="886.72" y="273.5" >Parloop_Cells_w..</text>
</g>
<g >
<title>Parloop_Cells_wrap_wrap_slate_loopy_knl_11 (43,736,824 us, 2.60%)</title><rect x="17.7" y="183" width="30.7" height="15.0" fill="rgb(0,0,0)" rx="2" ry="2" />
<text  x="20.71" y="193.5" >P..</text>
</g>
<g >
<title>Log_Event_subkernel8_interior_facet_vert_to__exterior_facet_vert_integral_otherwise (30,295,441 us, 1.80%)</title><rect x="967.2" y="279" width="21.2" height="15.0" fill="rgb(0,0,0)" rx="2" ry="2" />
<text  x="970.19" y="289.5" ></text>
</g>
<g >
<title>Log_Event_subkernel13_cell_to__cell_integral_otherwise (516,590 us, 0.03%)</title><rect x="45.2" y="199" width="0.4" height="15.0" fill="rgb(0,0,0)" rx="2" ry="2" />
<text  x="48.20" y="209.5" ></text>
</g>
<g >
<title>Log_Event_subkernel9_cell_to__cell_integral_otherwise (234,547,549 us, 13.93%)</title><rect x="718.2" y="279" width="164.3" height="15.0" fill="rgb(0,0,0)" rx="2" ry="2" />
<text  x="721.20" y="289.5" >Log_Event_subkernel..</text>
</g>
<g >
<title>Log_Event_slate_loopy_knl_7 (95,429,149 us, 5.67%)</title><rect x="61.8" y="231" width="66.9" height="15.0" fill="rgb(0,0,0)" rx="2" ry="2" />
<text  x="64.80" y="241.5" >Log_Ev..</text>
</g>
<g >
<title>SCBackSub (52,195,919 us, 3.10%)</title><rect x="11.8" y="135" width="36.6" height="15.0" fill="rgb(0,0,0)" rx="2" ry="2" />
<text  x="14.78" y="145.5" >SC..</text>
</g>
<g >
<title>PCSetUp (77,189,538 us, 4.58%)</title><rect x="1135.4" y="215" width="54.1" height="15.0" fill="rgb(0,0,0)" rx="2" ry="2" />
<text  x="1138.42" y="225.5" >PCSetUp</text>
</g>
<g >
<title>solve_getrf (435,286,715 us, 25.85%)</title><rect x="217.6" y="295" width="304.9" height="15.0" fill="rgb(0,0,0)" rx="2" ry="2" />
<text  x="220.55" y="305.5" >solve_getrf</text>
</g>
<g >
<title>Parloop_Cells_wrap_wrap_slate_loopy_knl_7 (979,295,464 us, 58.15%)</title><rect x="196.4" y="263" width="686.1" height="15.0" fill="rgb(0,0,0)" rx="2" ry="2" />
<text  x="199.39" y="273.5" >Parloop_Cells_wrap_wrap_slate_loopy_knl_7</text>
</g>
<g >
<title>Log_Event_subkernel8_interior_facet_vert_to__exterior_facet_vert_integral_otherwise (30,219,487 us, 1.79%)</title><rect x="142.4" y="231" width="21.2" height="15.0" fill="rgb(0,0,0)" rx="2" ry="2" />
<text  x="145.39" y="241.5" ></text>
</g>
<g >
<title>Parloop_Cells_wrap_wrap_slate_loopy_knl_3 (62,636,647 us, 3.72%)</title><rect x="1135.6" y="247" width="43.9" height="15.0" fill="rgb(0,0,0)" rx="2" ry="2" />
<text  x="1138.58" y="257.5" >Par..</text>
</g>
<g >
<title>ParLoopExecute (162,850,538 us, 9.67%)</title><rect x="1021.3" y="263" width="114.1" height="15.0" fill="rgb(0,0,0)" rx="2" ry="2" />
<text  x="1024.31" y="273.5" >ParLoopExecute</text>
</g>
<g >
<title>MatMult (979,295,464 us, 58.15%)</title><rect x="196.4" y="215" width="686.1" height="15.0" fill="rgb(0,0,0)" rx="2" ry="2" />
<text  x="199.39" y="225.5" >MatMult</text>
</g>
<g >
<title>KSPSolve (162,850,538 us, 9.67%)</title><rect x="1021.3" y="215" width="114.1" height="15.0" fill="rgb(0,0,0)" rx="2" ry="2" />
<text  x="1024.31" y="225.5" >KSPSolve</text>
</g>
<g >
<title>Log_Event_slate_loopy_knl_7 (78,907,491 us, 4.69%)</title><rect x="1023.7" y="295" width="55.2" height="15.0" fill="rgb(0,0,0)" rx="2" ry="2" />
<text  x="1026.65" y="305.5" >Log_E..</text>
</g>
<g >
<title>ParLoopExecute (62,636,647 us, 3.72%)</title><rect x="1135.6" y="231" width="43.9" height="15.0" fill="rgb(0,0,0)" rx="2" ry="2" />
<text  x="1138.58" y="241.5" >Par..</text>
</g>
<g >
<title>Log_Event_slate_loopy_knl_18 (4,244,634 us, 0.25%)</title><rect x="12.1" y="183" width="3.0" height="15.0" fill="rgb(0,0,0)" rx="2" ry="2" />
<text  x="15.11" y="193.5" ></text>
</g>
<g >
<title>ParLoopExecute (979,295,464 us, 58.15%)</title><rect x="196.4" y="247" width="686.1" height="15.0" fill="rgb(0,0,0)" rx="2" ry="2" />
<text  x="199.39" y="257.5" >ParLoopExecute</text>
</g>
<g >
<title>firedrake.interpolation.make_interpolator (534,037 us, 0.03%)</title><rect x="1189.5" y="167" width="0.4" height="15.0" fill="rgb(0,0,0)" rx="2" ry="2" />
<text  x="1192.50" y="177.5" ></text>
</g>
<g >
<title>Log_Event_subkernel8_interior_facet_horiz_bottom_to__exterior_facet_bottom_integral_otherwise (2,285,794 us, 0.14%)</title><rect x="963.4" y="279" width="1.6" height="15.0" fill="rgb(0,0,0)" rx="2" ry="2" />
<text  x="966.38" y="289.5" ></text>
</g>
<g >
<title>PCApply (1,681,038 us, 0.10%)</title><rect x="882.5" y="215" width="1.2" height="15.0" fill="rgb(0,0,0)" rx="2" ry="2" />
<text  x="885.54" y="225.5" ></text>
</g>
<g >
<title>Log_Event_subkernel17_interior_facet_vert_to__exterior_facet_vert_integral_otherwise (1,991,429 us, 0.12%)</title><rect x="47.0" y="199" width="1.4" height="15.0" fill="rgb(0,0,0)" rx="2" ry="2" />
<text  x="49.96" y="209.5" ></text>
</g>
<g >
<title>firedrake.dmhooks.coarsen (653,383 us, 0.04%)</title><rect x="883.1" y="263" width="0.4" height="15.0" fill="rgb(0,0,0)" rx="2" ry="2" />
<text  x="886.05" y="273.5" ></text>
</g>
<g >
<title>solve_memcpy (244,520 us, 0.01%)</title><rect x="14.9" y="199" width="0.2" height="15.0" fill="rgb(0,0,0)" rx="2" ry="2" />
<text  x="17.91" y="209.5" ></text>
</g>
<g >
<title>Log_Event_subkernel9_cell_to__cell_integral_otherwise (46,838,812 us, 2.78%)</title><rect x="163.6" y="231" width="32.8" height="15.0" fill="rgb(0,0,0)" rx="2" ry="2" />
<text  x="166.57" y="241.5" >Lo..</text>
</g>
<g >
<title>Log_Event_subkernel10_interior_facet_horiz_bottom_to__exterior_facet_bottom_integral_otherwise (1,439,270 us, 0.09%)</title><rect x="128.7" y="231" width="1.0" height="15.0" fill="rgb(0,0,0)" rx="2" ry="2" />
<text  x="131.66" y="241.5" ></text>
</g>
<g >
<title>inv_getri (13,031,462 us, 0.77%)</title><rect x="29.9" y="215" width="9.2" height="15.0" fill="rgb(0,0,0)" rx="2" ry="2" />
<text  x="32.93" y="225.5" ></text>
</g>
<g >
<title>firedrake.mg.interface.prolong (479,553 us, 0.03%)</title><rect x="882.7" y="279" width="0.4" height="15.0" fill="rgb(0,0,0)" rx="2" ry="2" />
<text  x="885.72" y="289.5" ></text>
</g>
<g >
<title>Log_Event_subkernel8_interior_facet_horiz_top_to__exterior_facet_top_integral_otherwise (15,818,096 us, 0.94%)</title><rect x="601.0" y="279" width="11.1" height="15.0" fill="rgb(0,0,0)" rx="2" ry="2" />
<text  x="604.02" y="289.5" ></text>
</g>
<g >
<title>MatMult (479,553 us, 0.03%)</title><rect x="882.7" y="247" width="0.4" height="15.0" fill="rgb(0,0,0)" rx="2" ry="2" />
<text  x="885.72" y="257.5" ></text>
</g>
<g >
<title>MatMult (196,058,256 us, 11.64%)</title><rect x="59.0" y="167" width="137.4" height="15.0" fill="rgb(0,0,0)" rx="2" ry="2" />
<text  x="62.02" y="177.5" >MatMult</text>
</g>
<g >
<title>firedrake (1,684,129,101 us, 100.00%)</title><rect x="10.0" y="55" width="1180.0" height="15.0" fill="rgb(0,0,0)" rx="2" ry="2" />
<text  x="13.00" y="65.5" >firedrake</text>
</g>
<g >
<title>Log_Event_subkernel10_interior_facet_horiz_top_to__exterior_facet_top_integral_otherwise (1,516,927 us, 0.09%)</title><rect x="129.7" y="231" width="1.0" height="15.0" fill="rgb(0,0,0)" rx="2" ry="2" />
<text  x="132.67" y="241.5" ></text>
</g>
<g >
<title>ParLoopExecute (43,736,824 us, 2.60%)</title><rect x="17.7" y="167" width="30.7" height="15.0" fill="rgb(0,0,0)" rx="2" ry="2" />
<text  x="20.71" y="177.5" >P..</text>
</g>
<g >
<title>firedrake.mg.embedded.TransferManager.op (479,553 us, 0.03%)</title><rect x="882.7" y="263" width="0.4" height="15.0" fill="rgb(0,0,0)" rx="2" ry="2" />
<text  x="885.72" y="273.5" ></text>
</g>
<g >
<title>Log_Event_subkernel10_interior_facet_horiz_bottom_to__exterior_facet_bottom_integral_otherwise (7,191,348 us, 0.43%)</title><rect x="542.7" y="279" width="5.1" height="15.0" fill="rgb(0,0,0)" rx="2" ry="2" />
<text  x="545.75" y="289.5" ></text>
</g>
<g >
<title>Log_Event_subkernel5_cell_to__cell_integral_otherwise (3,955,412 us, 0.23%)</title><rect x="1176.0" y="263" width="2.8" height="15.0" fill="rgb(0,0,0)" rx="2" ry="2" />
<text  x="1179.03" y="273.5" ></text>
</g>
<g >
<title>HybridRHS (15,222,774 us, 0.90%)</title><rect x="48.4" y="151" width="10.6" height="15.0" fill="rgb(0,0,0)" rx="2" ry="2" />
<text  x="51.35" y="161.5" ></text>
</g>
<g >
<title>RecoverFirstElim (43,736,824 us, 2.60%)</title><rect x="17.7" y="151" width="30.7" height="15.0" fill="rgb(0,0,0)" rx="2" ry="2" />
<text  x="20.71" y="161.5" >R..</text>
</g>
<g >
<title>Log_Event_subkernel19_cell_to__cell_integral_otherwise (1,322,307 us, 0.08%)</title><rect x="15.1" y="183" width="0.9" height="15.0" fill="rgb(0,0,0)" rx="2" ry="2" />
<text  x="18.08" y="193.5" ></text>
</g>
<g >
<title>solve_memcpy (4,180,707 us, 0.25%)</title><rect x="125.7" y="247" width="3.0" height="15.0" fill="rgb(0,0,0)" rx="2" ry="2" />
<text  x="128.73" y="257.5" ></text>
</g>
<g >
<title>Parloop_Cells_wrap_wrap_slate_loopy_knl_18 (8,459,095 us, 0.50%)</title><rect x="11.8" y="167" width="5.9" height="15.0" fill="rgb(0,0,0)" rx="2" ry="2" />
<text  x="14.78" y="177.5" ></text>
</g>
<g >
<title>Log_Event_subkernel8_interior_facet_horiz_top_to__exterior_facet_top_integral_otherwise (3,115,362 us, 0.18%)</title><rect x="140.2" y="231" width="2.2" height="15.0" fill="rgb(0,0,0)" rx="2" ry="2" />
<text  x="143.21" y="241.5" ></text>
</g>
<g >
<title>ParLoopExecute (196,058,256 us, 11.64%)</title><rect x="59.0" y="199" width="137.4" height="15.0" fill="rgb(0,0,0)" rx="2" ry="2" />
<text  x="62.02" y="209.5" >ParLoopExecute</text>
</g>
<g >
<title>SCForwardElim (15,222,774 us, 0.90%)</title><rect x="48.4" y="135" width="10.6" height="15.0" fill="rgb(0,0,0)" rx="2" ry="2" />
<text  x="51.35" y="145.5" ></text>
</g>
<g >
<title>Log_Event_subkernel1_interior_facet_horiz_top_to__exterior_facet_top_integral_otherwise (258,454 us, 0.02%)</title><rect x="54.4" y="199" width="0.2" height="15.0" fill="rgb(0,0,0)" rx="2" ry="2" />
<text  x="57.43" y="209.5" ></text>
</g>
<g >
<title>CreateSparsity (11,324,434 us, 0.67%)</title><rect x="1179.8" y="247" width="7.9" height="15.0" fill="rgb(0,0,0)" rx="2" ry="2" />
<text  x="1182.77" y="257.5" ></text>
</g>
<g >
<title>firedrake.interpolation.make_interpolator (179,358 us, 0.01%)</title><rect x="1189.9" y="135" width="0.1" height="15.0" fill="rgb(0,0,0)" rx="2" ry="2" />
<text  x="1192.87" y="145.5" ></text>
</g>
<g >
<title>Log_Event_inits_wrap_slate_loopy_knl_11 (200,736 us, 0.01%)</title><rect x="17.9" y="199" width="0.1" height="15.0" fill="rgb(0,0,0)" rx="2" ry="2" />
<text  x="20.87" y="209.5" ></text>
</g>
<g >
<title>inv_memcpy (346,068 us, 0.02%)</title><rect x="39.1" y="215" width="0.2" height="15.0" fill="rgb(0,0,0)" rx="2" ry="2" />
<text  x="42.06" y="225.5" ></text>
</g>
<g >
<title>MatMult (162,850,538 us, 9.67%)</title><rect x="1021.3" y="231" width="114.1" height="15.0" fill="rgb(0,0,0)" rx="2" ry="2" />
<text  x="1024.31" y="241.5" >MatMult</text>
</g>
<g >
<title>firedrake.pointquery_utils.to_reference_coordinates (294,018 us, 0.02%)</title><rect x="882.8" y="295" width="0.3" height="15.0" fill="rgb(0,0,0)" rx="2" ry="2" />
<text  x="885.85" y="305.5" ></text>
</g>
<g >
<title>KSPSolve (980,976,502 us, 58.25%)</title><rect x="196.4" y="199" width="687.3" height="15.0" fill="rgb(0,0,0)" rx="2" ry="2" />
<text  x="199.39" y="209.5" >KSPSolve</text>
</g>
<g >
<title>Log_Event_subkernel8_interior_facet_vert_to__exterior_facet_vert_integral_otherwise (151,431,531 us, 8.99%)</title><rect x="612.1" y="279" width="106.1" height="15.0" fill="rgb(0,0,0)" rx="2" ry="2" />
<text  x="615.10" y="289.5" >Log_Event_s..</text>
</g>
<g >
<title>firedrake.matrix_free.operators.ImplicitMatrixContext.mult (162,850,538 us, 9.67%)</title><rect x="1021.3" y="247" width="114.1" height="15.0" fill="rgb(0,0,0)" rx="2" ry="2" />
<text  x="1024.31" y="257.5" >firedrake.ma..</text>
</g>
<g >
<title>solve_memcpy (4,071,603 us, 0.24%)</title><rect x="950.5" y="295" width="2.9" height="15.0" fill="rgb(0,0,0)" rx="2" ry="2" />
<text  x="953.50" y="305.5" ></text>
</g>
<g >
<title>Log_Event_slate_loopy_knl_7 (95,364,835 us, 5.66%)</title><rect x="886.5" y="279" width="66.9" height="15.0" fill="rgb(0,0,0)" rx="2" ry="2" />
<text  x="889.53" y="289.5" >Log_Ev..</text>
</g>
<g >
<title>Log_Event_inits_wrap_slate_loopy_knl_3 (280,542 us, 0.02%)</title><rect x="1137.2" y="263" width="0.2" height="15.0" fill="rgb(0,0,0)" rx="2" ry="2" />
<text  x="1140.20" y="273.5" ></text>
</g>
<g >
<title>firedrake.variational_solver.NonlinearVariationalSolver.solve (1,681,938,285 us, 99.87%)</title><rect x="11.5" y="71" width="1178.5" height="15.0" fill="rgb(0,0,0)" rx="2" ry="2" />
<text  x="14.54" y="81.5" >firedrake.variational_solver.NonlinearVariationalSolver.solve</text>
</g>
<g >
<title>Log_Event_subkernel8_interior_facet_horiz_bottom_to__exterior_facet_bottom_integral_otherwise (11,579,635 us, 0.69%)</title><rect x="592.9" y="279" width="8.1" height="15.0" fill="rgb(0,0,0)" rx="2" ry="2" />
<text  x="595.90" y="289.5" ></text>
</g>
<g >
<title>Parloop_Cells_wrap_wrap_slate_loopy_knl_0 (15,222,774 us, 0.90%)</title><rect x="48.4" y="183" width="10.6" height="15.0" fill="rgb(0,0,0)" rx="2" ry="2" />
<text  x="51.35" y="193.5" ></text>
</g>
<g >
<title>PCApply (1,681,410,606 us, 99.84%)</title><rect x="11.8" y="119" width="1178.1" height="15.0" fill="rgb(0,0,0)" rx="2" ry="2" />
<text  x="14.78" y="129.5" >PCApply</text>
</g>
<g >
<title>solve_memcpy (3,178,936 us, 0.19%)</title><rect x="1076.7" y="311" width="2.2" height="15.0" fill="rgb(0,0,0)" rx="2" ry="2" />
<text  x="1079.71" y="321.5" ></text>
</g>
<g >
<title>ParLoopExecute (196,383,042 us, 11.66%)</title><rect x="883.7" y="247" width="137.6" height="15.0" fill="rgb(0,0,0)" rx="2" ry="2" />
<text  x="886.72" y="257.5" >ParLoopExecute</text>
</g>
<g >
<title>Log_Event_subkernel10_interior_facet_vert_to__exterior_facet_vert_integral_otherwise (11,270,264 us, 0.67%)</title><rect x="130.7" y="231" width="7.9" height="15.0" fill="rgb(0,0,0)" rx="2" ry="2" />
<text  x="133.73" y="241.5" ></text>
</g>
<g >
<title>solve_getrf (87,358,949 us, 5.19%)</title><rect x="63.2" y="247" width="61.2" height="15.0" fill="rgb(0,0,0)" rx="2" ry="2" />
<text  x="66.19" y="257.5" >solve..</text>
</g>
<g >
<title>DMCoarsen (653,383 us, 0.04%)</title><rect x="883.1" y="247" width="0.4" height="15.0" fill="rgb(0,0,0)" rx="2" ry="2" />
<text  x="886.05" y="257.5" ></text>
</g>
<g >
<title>PCSetUp (534,037 us, 0.03%)</title><rect x="1189.5" y="151" width="0.4" height="15.0" fill="rgb(0,0,0)" rx="2" ry="2" />
<text  x="1192.50" y="161.5" ></text>
</g>
<g >
<title>Log_Event_subkernel10_interior_facet_horiz_top_to__exterior_facet_top_integral_otherwise (1,255,495 us, 0.07%)</title><rect x="1079.8" y="295" width="0.9" height="15.0" fill="rgb(0,0,0)" rx="2" ry="2" />
<text  x="1082.77" y="305.5" ></text>
</g>
<g >
<title>solve_getrf (72,518,115 us, 4.31%)</title><rect x="1024.8" y="311" width="50.8" height="15.0" fill="rgb(0,0,0)" rx="2" ry="2" />
<text  x="1027.81" y="321.5" >solv..</text>
</g>
<g >
<title>Log_Event_subkernel9_cell_to__cell_integral_otherwise (39,086,602 us, 2.32%)</title><rect x="1108.0" y="295" width="27.4" height="15.0" fill="rgb(0,0,0)" rx="2" ry="2" />
<text  x="1111.03" y="305.5" >L..</text>
</g>
<g >
<title>solve_getrs (9,354,985 us, 0.56%)</title><rect x="522.5" y="295" width="6.6" height="15.0" fill="rgb(0,0,0)" rx="2" ry="2" />
<text  x="525.54" y="305.5" ></text>
</g>
<g >
<title>solve_getrf (3,657,636 us, 0.22%)</title><rect x="12.4" y="199" width="2.5" height="15.0" fill="rgb(0,0,0)" rx="2" ry="2" />
<text  x="15.35" y="209.5" ></text>
</g>
<g >
<title>firedrake.mg.embedded.TransferManager.op (653,383 us, 0.04%)</title><rect x="883.1" y="279" width="0.4" height="15.0" fill="rgb(0,0,0)" rx="2" ry="2" />
<text  x="886.05" y="289.5" ></text>
</g>
<g >
<title>inv_getri (27,138,594 us, 1.61%)</title><rect x="1154.6" y="279" width="19.1" height="15.0" fill="rgb(0,0,0)" rx="2" ry="2" />
<text  x="1157.65" y="289.5" ></text>
</g>
<g >
<title>Log_Event_subkernel4_interior_facet_horiz_bottom_to__exterior_facet_bottom_integral_otherwise (201,341 us, 0.01%)</title><rect x="1173.9" y="263" width="0.2" height="15.0" fill="rgb(0,0,0)" rx="2" ry="2" />
<text  x="1176.92" y="273.5" ></text>
</g>
<g >
<title>Log_Event_slate_loopy_knl_0 (8,266,929 us, 0.49%)</title><rect x="48.5" y="199" width="5.8" height="15.0" fill="rgb(0,0,0)" rx="2" ry="2" />
<text  x="51.50" y="209.5" ></text>
</g>
<g >
<title>Log_Event_slate_loopy_knl_11 (38,808,793 us, 2.30%)</title><rect x="18.0" y="199" width="27.2" height="15.0" fill="rgb(0,0,0)" rx="2" ry="2" />
<text  x="21.01" y="209.5" >L..</text>
</g>
<g >
<title>firedrake.matrix_free.operators.ImplicitMatrixContext.mult (196,383,042 us, 11.66%)</title><rect x="883.7" y="231" width="137.6" height="15.0" fill="rgb(0,0,0)" rx="2" ry="2" />
<text  x="886.72" y="241.5" >firedrake.matri..</text>
</g>
<g >
<title>Log_Event_subkernel2_cell_to__cell_integral_otherwise (3,782,931 us, 0.22%)</title><rect x="56.4" y="199" width="2.6" height="15.0" fill="rgb(0,0,0)" rx="2" ry="2" />
<text  x="59.37" y="209.5" ></text>
</g>
<g >
<title>SCSolve (1,613,991,913 us, 95.84%)</title><rect x="59.0" y="135" width="1130.9" height="15.0" fill="rgb(0,0,0)" rx="2" ry="2" />
<text  x="62.02" y="145.5" >SCSolve</text>
</g>
<g >
<title>solve_memcpy (479,394 us, 0.03%)</title><rect x="54.0" y="215" width="0.3" height="15.0" fill="rgb(0,0,0)" rx="2" ry="2" />
<text  x="56.96" y="225.5" ></text>
</g>
<g >
<title>firedrake.matrix_free.operators.ImplicitMatrixContext.mult (979,295,464 us, 58.15%)</title><rect x="196.4" y="231" width="686.1" height="15.0" fill="rgb(0,0,0)" rx="2" ry="2" />
<text  x="199.39" y="241.5" >firedrake.matrix_free.operators.ImplicitMatrixContext.mult</text>
</g>
<g >
<title>CreateSparsity (353,622 us, 0.02%)</title><rect x="1189.6" y="183" width="0.3" height="15.0" fill="rgb(0,0,0)" rx="2" ry="2" />
<text  x="1192.63" y="193.5" ></text>
</g>
<g >
<title>Log_Event_inits_wrap_slate_loopy_knl_0 (216,621 us, 0.01%)</title><rect x="48.4" y="199" width="0.1" height="15.0" fill="rgb(0,0,0)" rx="2" ry="2" />
<text  x="51.35" y="209.5" ></text>
</g>
<g >
<title>PCSetUp (179,358 us, 0.01%)</title><rect x="1189.9" y="103" width="0.1" height="15.0" fill="rgb(0,0,0)" rx="2" ry="2" />
<text  x="1192.87" y="113.5" ></text>
</g>
<g >
<title>solve_memcpy (19,479,802 us, 1.16%)</title><rect x="529.1" y="295" width="13.6" height="15.0" fill="rgb(0,0,0)" rx="2" ry="2" />
<text  x="532.10" y="305.5" ></text>
</g>
<g >
<title>Log_Event_slate_loopy_knl_7 (474,185,367 us, 28.16%)</title><rect x="210.5" y="279" width="332.2" height="15.0" fill="rgb(0,0,0)" rx="2" ry="2" />
<text  x="213.50" y="289.5" >Log_Event_slate_loopy_knl_7</text>
</g>
<g >
<title>firedrake.__init__ (1,497,612 us, 0.09%)</title><rect x="10.5" y="71" width="1.0" height="15.0" fill="rgb(0,0,0)" rx="2" ry="2" />
<text  x="13.49" y="81.5" ></text>
</g>
<g >
<title>ParLoopExecute (8,459,095 us, 0.50%)</title><rect x="11.8" y="151" width="5.9" height="15.0" fill="rgb(0,0,0)" rx="2" ry="2" />
<text  x="14.78" y="161.5" ></text>
</g>
<g >
<title>solve_getrs (1,903,204 us, 0.11%)</title><rect x="124.4" y="247" width="1.3" height="15.0" fill="rgb(0,0,0)" rx="2" ry="2" />
<text  x="127.40" y="257.5" ></text>
</g>
<g >
<title>solve_getrf (87,385,168 us, 5.19%)</title><rect x="887.9" y="295" width="61.3" height="15.0" fill="rgb(0,0,0)" rx="2" ry="2" />
<text  x="890.94" y="305.5" >solve..</text>
</g>
<g >
<title>SNESSolve (1,681,938,285 us, 99.87%)</title><rect x="11.5" y="87" width="1178.5" height="15.0" fill="rgb(0,0,0)" rx="2" ry="2" />
<text  x="14.54" y="97.5" >SNESSolve</text>
</g>
<g >
<title>Log_Event_slate_loopy_knl_3 (52,128,047 us, 3.10%)</title><rect x="1137.4" y="263" width="36.5" height="15.0" fill="rgb(0,0,0)" rx="2" ry="2" />
<text  x="1140.39" y="273.5" >Lo..</text>
</g>
<g >
<title>Log_Event_subkernel10_interior_facet_vert_to__exterior_facet_vert_integral_otherwise (56,756,866 us, 3.37%)</title><rect x="553.1" y="279" width="39.8" height="15.0" fill="rgb(0,0,0)" rx="2" ry="2" />
<text  x="556.14" y="289.5" >Log..</text>
</g>
<g >
<title>Log_Event_inits_wrap_slate_loopy_knl_7 (2,990,947 us, 0.18%)</title><rect x="884.4" y="279" width="2.1" height="15.0" fill="rgb(0,0,0)" rx="2" ry="2" />
<text  x="887.44" y="289.5" ></text>
</g>
<g >
<title>KSPSolve (1,681,586,210 us, 99.85%)</title><rect x="11.7" y="103" width="1178.2" height="15.0" fill="rgb(0,0,0)" rx="2" ry="2" />
<text  x="14.66" y="113.5" >KSPSolve</text>
</g>
<g >
<title>Log_Event_subkernel10_interior_facet_horiz_top_to__exterior_facet_top_integral_otherwise (1,516,144 us, 0.09%)</title><rect x="954.4" y="279" width="1.0" height="15.0" fill="rgb(0,0,0)" rx="2" ry="2" />
<text  x="957.36" y="289.5" ></text>
</g>
<g >
<title>Log_Event_subkernel17_interior_facet_horiz_top_to__exterior_facet_top_integral_otherwise (169,637 us, 0.01%)</title><rect x="46.8" y="199" width="0.2" height="15.0" fill="rgb(0,0,0)" rx="2" ry="2" />
<text  x="49.84" y="209.5" ></text>
</g>
<g >
<title>firedrake.pointquery_utils.to_reference_coordinates (369,568 us, 0.02%)</title><rect x="883.3" y="311" width="0.2" height="15.0" fill="rgb(0,0,0)" rx="2" ry="2" />
<text  x="886.25" y="321.5" ></text>
</g>
<g >
<title>Log_Event_inits_wrap_slate_loopy_knl_7 (14,997,560 us, 0.89%)</title><rect x="200.0" y="279" width="10.5" height="15.0" fill="rgb(0,0,0)" rx="2" ry="2" />
<text  x="203.00" y="289.5" ></text>
</g>
<g >
<title>solve_memcpy (685,931 us, 0.04%)</title><rect x="44.7" y="215" width="0.5" height="15.0" fill="rgb(0,0,0)" rx="2" ry="2" />
<text  x="47.72" y="225.5" ></text>
</g>
<g >
<title>Parloop_Cells_wrap_wrap_slate_loopy_knl_7 (162,850,538 us, 9.67%)</title><rect x="1021.3" y="279" width="114.1" height="15.0" fill="rgb(0,0,0)" rx="2" ry="2" />
<text  x="1024.31" y="289.5" >Parloop_Cell..</text>
</g>
<g >
<title>Log_Event_subkernel4_interior_facet_vert_to__exterior_facet_vert_integral_otherwise (2,515,894 us, 0.15%)</title><rect x="1174.3" y="263" width="1.7" height="15.0" fill="rgb(0,0,0)" rx="2" ry="2" />
<text  x="1177.27" y="273.5" ></text>
</g>
<g >
<title>Log_Event_subkernel20_cell_to__cell_integral_otherwise (430,698 us, 0.03%)</title><rect x="16.0" y="183" width="0.3" height="15.0" fill="rgb(0,0,0)" rx="2" ry="2" />
<text  x="19.01" y="193.5" ></text>
</g>
<g >
<title>Log_Event_subkernel8_interior_facet_horiz_top_to__exterior_facet_top_integral_otherwise (3,148,653 us, 0.19%)</title><rect x="965.0" y="279" width="2.2" height="15.0" fill="rgb(0,0,0)" rx="2" ry="2" />
<text  x="967.98" y="289.5" ></text>
</g>
<g >
<title>firedrake.mg.interface.inject (653,383 us, 0.04%)</title><rect x="883.1" y="295" width="0.4" height="15.0" fill="rgb(0,0,0)" rx="2" ry="2" />
<text  x="886.05" y="305.5" ></text>
</g>
<g >
<title>Log_Event_subkernel9_cell_to__cell_integral_otherwise (46,956,945 us, 2.79%)</title><rect x="988.4" y="279" width="32.9" height="15.0" fill="rgb(0,0,0)" rx="2" ry="2" />
<text  x="991.41" y="289.5" >Lo..</text>
</g>
<g >
<title>inv_getrf (3,648,545 us, 0.22%)</title><rect x="27.4" y="215" width="2.5" height="15.0" fill="rgb(0,0,0)" rx="2" ry="2" />
<text  x="30.37" y="225.5" ></text>
</g>
<g >
<title>firedrake.assemble.allocate_matrix (14,321,627 us, 0.85%)</title><rect x="1179.5" y="231" width="10.0" height="15.0" fill="rgb(0,0,0)" rx="2" ry="2" />
<text  x="1182.47" y="241.5" ></text>
</g>
<g >
<title>Log_Event_subkernel1_interior_facet_horiz_bottom_to__exterior_facet_bottom_integral_otherwise (186,868 us, 0.01%)</title><rect x="54.3" y="199" width="0.1" height="15.0" fill="rgb(0,0,0)" rx="2" ry="2" />
<text  x="57.29" y="209.5" ></text>
</g>
<g >
<title>Log_Event_subkernel10_interior_facet_horiz_bottom_to__exterior_facet_bottom_integral_otherwise (1,437,451 us, 0.09%)</title><rect x="953.4" y="279" width="1.0" height="15.0" fill="rgb(0,0,0)" rx="2" ry="2" />
<text  x="956.35" y="289.5" ></text>
</g>
<g >
<title>firedrake.matrix_free.operators.ImplicitMatrixContext.mult (196,058,256 us, 11.64%)</title><rect x="59.0" y="183" width="137.4" height="15.0" fill="rgb(0,0,0)" rx="2" ry="2" />
<text  x="62.02" y="193.5" >firedrake.matri..</text>
</g>
<g >
<title>Log_Event_subkernel8_interior_facet_vert_to__exterior_facet_vert_integral_otherwise (25,193,909 us, 1.50%)</title><rect x="1090.4" y="295" width="17.6" height="15.0" fill="rgb(0,0,0)" rx="2" ry="2" />
<text  x="1093.38" y="305.5" ></text>
</g>
<g >
<title>solve_getrs (1,553,029 us, 0.09%)</title><rect x="1075.6" y="311" width="1.1" height="15.0" fill="rgb(0,0,0)" rx="2" ry="2" />
<text  x="1078.62" y="321.5" ></text>
</g>
<g >
<title>Log_Event_subkernel14_cell_to__cell_integral_otherwise (1,393,331 us, 0.08%)</title><rect x="45.6" y="199" width="0.9" height="15.0" fill="rgb(0,0,0)" rx="2" ry="2" />
<text  x="48.56" y="209.5" ></text>
</g>
<g >
<title>ParLoopExecute (15,222,774 us, 0.90%)</title><rect x="48.4" y="167" width="10.6" height="15.0" fill="rgb(0,0,0)" rx="2" ry="2" />
<text  x="51.35" y="177.5" ></text>
</g>
<g >
<title>Log_Event_subkernel4_interior_facet_horiz_top_to__exterior_facet_top_integral_otherwise (299,475 us, 0.02%)</title><rect x="1174.1" y="263" width="0.2" height="15.0" fill="rgb(0,0,0)" rx="2" ry="2" />
<text  x="1177.06" y="273.5" ></text>
</g>
<g >
<title>Log_Event_inits_wrap_slate_loopy_knl_7 (2,479,988 us, 0.15%)</title><rect x="1021.9" y="295" width="1.8" height="15.0" fill="rgb(0,0,0)" rx="2" ry="2" />
<text  x="1024.91" y="305.5" ></text>
</g>
<g >
<title>Log_Event_subkernel8_interior_facet_horiz_bottom_to__exterior_facet_bottom_integral_otherwise (1,886,965 us, 0.11%)</title><rect x="1087.2" y="295" width="1.4" height="15.0" fill="rgb(0,0,0)" rx="2" ry="2" />
<text  x="1090.23" y="305.5" ></text>
</g>
<g >
<title>Log_Event_subkernel10_interior_facet_horiz_bottom_to__exterior_facet_bottom_integral_otherwise (1,189,441 us, 0.07%)</title><rect x="1078.9" y="295" width="0.9" height="15.0" fill="rgb(0,0,0)" rx="2" ry="2" />
<text  x="1081.94" y="305.5" ></text>
</g>
<g >
<title>inv_getrf (7,332,228 us, 0.44%)</title><rect x="1149.5" y="279" width="5.1" height="15.0" fill="rgb(0,0,0)" rx="2" ry="2" />
<text  x="1152.51" y="289.5" ></text>
</g>
<g >
<title>Log_Event_inits_wrap_slate_loopy_knl_7 (2,944,401 us, 0.17%)</title><rect x="59.7" y="231" width="2.1" height="15.0" fill="rgb(0,0,0)" rx="2" ry="2" />
<text  x="62.74" y="241.5" ></text>
</g>
<g >
<title>MatResidual (196,383,042 us, 11.66%)</title><rect x="883.7" y="199" width="137.6" height="15.0" fill="rgb(0,0,0)" rx="2" ry="2" />
<text  x="886.72" y="209.5" >MatResidual</text>
</g>
<g >
<title>Log_Event_subkernel1_interior_facet_vert_to__exterior_facet_vert_integral_otherwise (2,510,971 us, 0.15%)</title><rect x="54.6" y="199" width="1.8" height="15.0" fill="rgb(0,0,0)" rx="2" ry="2" />
<text  x="57.61" y="209.5" ></text>
</g>
<g >
<title>solve_getrs (197,653 us, 0.01%)</title><rect x="44.6" y="215" width="0.1" height="15.0" fill="rgb(0,0,0)" rx="2" ry="2" />
<text  x="47.58" y="225.5" ></text>
</g>
<g >
<title>all (1,684,129,101 us, 100%)</title><rect x="10.0" y="39" width="1180.0" height="15.0" fill="rgb(0,0,0)" rx="2" ry="2" />
<text  x="13.00" y="49.5" ></text>
</g>
</g>
</svg>
