<?xml version="1.0" standalone="no"?>
<!DOCTYPE svg PUBLIC "-//W3C//DTD SVG 1.1//EN" "http://www.w3.org/Graphics/SVG/1.1/DTD/svg11.dtd">
<svg version="1.1" width="1200" height="299" onload="init(evt)" viewBox="0 0 1200 299" xmlns="http://www.w3.org/2000/svg" xmlns:xlink="http://www.w3.org/1999/xlink">
<!-- Flame graph stack visualization. See https://github.com/brendangregg/FlameGraph for latest version, and http://www.brendangregg.com/flamegraphs.html for examples. -->
<!-- NOTES:  -->
<defs>
	<linearGradient id="background" y1="0" y2="1" x1="0" x2="0" >
		<stop stop-color="#eeeeee" offset="5%" />
		<stop stop-color="#eeeeb0" offset="95%" />
	</linearGradient>
</defs>
<style type="text/css">
	text { font-family:Verdana; font-size:13px; fill:rgb(0,0,0); }
	#search, #ignorecase { opacity:0.1; cursor:pointer; }
	#search:hover, #search.show, #ignorecase:hover, #ignorecase.show { opacity:1; }
	#subtitle { text-anchor:middle; font-color:rgb(160,160,160); }
	#title { text-anchor:middle; font-size:18px}
	#unzoom { cursor:pointer; }
	#frames > *:hover { stroke:black; stroke-width:0.5; cursor:pointer; }
	.hide { display:none; }
	.parent { opacity:0.5; }
</style>
<script type="text/ecmascript">
<![CDATA[
	"use strict";
	var details, searchbtn, unzoombtn, matchedtxt, svg, searching, currentSearchTerm, ignorecase, ignorecaseBtn;
	function init(evt) {
		details = document.getElementById("details").firstChild;
		searchbtn = document.getElementById("search");
		ignorecaseBtn = document.getElementById("ignorecase");
		unzoombtn = document.getElementById("unzoom");
		matchedtxt = document.getElementById("matched");
		svg = document.getElementsByTagName("svg")[0];
		searching = 0;
		currentSearchTerm = null;

		// use GET parameters to restore a flamegraphs state.
		var params = get_params();
		if (params.x && params.y)
			zoom(find_group(document.querySelector('[x="' + params.x + '"][y="' + params.y + '"]')));
                if (params.s) search(params.s);
	}

	// event listeners
	window.addEventListener("click", function(e) {
		var target = find_group(e.target);
		if (target) {
			if (target.nodeName == "a") {
				if (e.ctrlKey === false) return;
				e.preventDefault();
			}
			if (target.classList.contains("parent")) unzoom();
			zoom(target);
			if (!document.querySelector('.parent')) {
				clearzoom();
				return;
			}

			// set parameters for zoom state
			var el = target.querySelector("rect");
			if (el && el.attributes && el.attributes.y && el.attributes._orig_x) {
				var params = get_params()
				params.x = el.attributes._orig_x.value;
				params.y = el.attributes.y.value;
				history.replaceState(null, null, parse_params(params));
			}
		}
		else if (e.target.id == "unzoom") clearzoom();
		else if (e.target.id == "search") search_prompt();
		else if (e.target.id == "ignorecase") toggle_ignorecase();
	}, false)

	// mouse-over for info
	// show
	window.addEventListener("mouseover", function(e) {
		var target = find_group(e.target);
		if (target) details.nodeValue = "Function: " + g_to_text(target);
	}, false)

	// clear
	window.addEventListener("mouseout", function(e) {
		var target = find_group(e.target);
		if (target) details.nodeValue = ' ';
	}, false)

	// ctrl-F for search
	// ctrl-I to toggle case-sensitive search
	window.addEventListener("keydown",function (e) {
		if (e.keyCode === 114 || (e.ctrlKey && e.keyCode === 70)) {
			e.preventDefault();
			search_prompt();
		}
		else if (e.ctrlKey && e.keyCode === 73) {
			e.preventDefault();
			toggle_ignorecase();
		}
	}, false)

	// functions
	function get_params() {
		var params = {};
		var paramsarr = window.location.search.substr(1).split('&');
		for (var i = 0; i < paramsarr.length; ++i) {
			var tmp = paramsarr[i].split("=");
			if (!tmp[0] || !tmp[1]) continue;
			params[tmp[0]]  = decodeURIComponent(tmp[1]);
		}
		return params;
	}
	function parse_params(params) {
		var uri = "?";
		for (var key in params) {
			uri += key + '=' + encodeURIComponent(params[key]) + '&';
		}
		if (uri.slice(-1) == "&")
			uri = uri.substring(0, uri.length - 1);
		if (uri == '?')
			uri = window.location.href.split('?')[0];
		return uri;
	}
	function find_child(node, selector) {
		var children = node.querySelectorAll(selector);
		if (children.length) return children[0];
	}
	function find_group(node) {
		var parent = node.parentElement;
		if (!parent) return;
		if (parent.id == "frames") return node;
		return find_group(parent);
	}
	function orig_save(e, attr, val) {
		if (e.attributes["_orig_" + attr] != undefined) return;
		if (e.attributes[attr] == undefined) return;
		if (val == undefined) val = e.attributes[attr].value;
		e.setAttribute("_orig_" + attr, val);
	}
	function orig_load(e, attr) {
		if (e.attributes["_orig_"+attr] == undefined) return;
		e.attributes[attr].value = e.attributes["_orig_" + attr].value;
		e.removeAttribute("_orig_"+attr);
	}
	function g_to_text(e) {
		var text = find_child(e, "title").firstChild.nodeValue;
		return (text)
	}
	function g_to_func(e) {
		var func = g_to_text(e);
		// if there's any manipulation we want to do to the function
		// name before it's searched, do it here before returning.
		return (func);
	}
	function update_text(e) {
		var r = find_child(e, "rect");
		var t = find_child(e, "text");
		var w = parseFloat(r.attributes.width.value) -3;
		var txt = find_child(e, "title").textContent.replace(/\([^(]*\)$/,"");
		t.attributes.x.value = parseFloat(r.attributes.x.value) + 3;

		// Smaller than this size won't fit anything
		if (w < 2 * 13 * 0.59) {
			t.textContent = "";
			return;
		}

		t.textContent = txt;
		// Fit in full text width
		if (/^ *$/.test(txt) || t.getSubStringLength(0, txt.length) < w)
			return;

		for (var x = txt.length - 2; x > 0; x--) {
			if (t.getSubStringLength(0, x + 2) <= w) {
				t.textContent = txt.substring(0, x) + "..";
				return;
			}
		}
		t.textContent = "";
	}

	// zoom
	function zoom_reset(e) {
		if (e.attributes != undefined) {
			orig_load(e, "x");
			orig_load(e, "width");
		}
		if (e.childNodes == undefined) return;
		for (var i = 0, c = e.childNodes; i < c.length; i++) {
			zoom_reset(c[i]);
		}
	}
	function zoom_child(e, x, ratio) {
		if (e.attributes != undefined) {
			if (e.attributes.x != undefined) {
				orig_save(e, "x");
				e.attributes.x.value = (parseFloat(e.attributes.x.value) - x - 10) * ratio + 10;
				if (e.tagName == "text")
					e.attributes.x.value = find_child(e.parentNode, "rect[x]").attributes.x.value + 3;
			}
			if (e.attributes.width != undefined) {
				orig_save(e, "width");
				e.attributes.width.value = parseFloat(e.attributes.width.value) * ratio;
			}
		}

		if (e.childNodes == undefined) return;
		for (var i = 0, c = e.childNodes; i < c.length; i++) {
			zoom_child(c[i], x - 10, ratio);
		}
	}
	function zoom_parent(e) {
		if (e.attributes) {
			if (e.attributes.x != undefined) {
				orig_save(e, "x");
				e.attributes.x.value = 10;
			}
			if (e.attributes.width != undefined) {
				orig_save(e, "width");
				e.attributes.width.value = parseInt(svg.width.baseVal.value) - (10 * 2);
			}
		}
		if (e.childNodes == undefined) return;
		for (var i = 0, c = e.childNodes; i < c.length; i++) {
			zoom_parent(c[i]);
		}
	}
	function zoom(node) {
		var attr = find_child(node, "rect").attributes;
		var width = parseFloat(attr.width.value);
		var xmin = parseFloat(attr.x.value);
		var xmax = parseFloat(xmin + width);
		var ymin = parseFloat(attr.y.value);
		var ratio = (svg.width.baseVal.value - 2 * 10) / width;

		// XXX: Workaround for JavaScript float issues (fix me)
		var fudge = 0.0001;

		unzoombtn.classList.remove("hide");

		var el = document.getElementById("frames").children;
		for (var i = 0; i < el.length; i++) {
			var e = el[i];
			var a = find_child(e, "rect").attributes;
			var ex = parseFloat(a.x.value);
			var ew = parseFloat(a.width.value);
			var upstack;
			// Is it an ancestor
			if (1 == 0) {
				upstack = parseFloat(a.y.value) > ymin;
			} else {
				upstack = parseFloat(a.y.value) < ymin;
			}
			if (upstack) {
				// Direct ancestor
				if (ex <= xmin && (ex+ew+fudge) >= xmax) {
					e.classList.add("parent");
					zoom_parent(e);
					update_text(e);
				}
				// not in current path
				else
					e.classList.add("hide");
			}
			// Children maybe
			else {
				// no common path
				if (ex < xmin || ex + fudge >= xmax) {
					e.classList.add("hide");
				}
				else {
					zoom_child(e, xmin, ratio);
					update_text(e);
				}
			}
		}
		search();
	}
	function unzoom() {
		unzoombtn.classList.add("hide");
		var el = document.getElementById("frames").children;
		for(var i = 0; i < el.length; i++) {
			el[i].classList.remove("parent");
			el[i].classList.remove("hide");
			zoom_reset(el[i]);
			update_text(el[i]);
		}
		search();
	}
	function clearzoom() {
		unzoom();

		// remove zoom state
		var params = get_params();
		if (params.x) delete params.x;
		if (params.y) delete params.y;
		history.replaceState(null, null, parse_params(params));
	}

	// search
	function toggle_ignorecase() {
		ignorecase = !ignorecase;
		if (ignorecase) {
			ignorecaseBtn.classList.add("show");
		} else {
			ignorecaseBtn.classList.remove("show");
		}
		reset_search();
		search();
	}
	function reset_search() {
		var el = document.querySelectorAll("#frames rect");
		for (var i = 0; i < el.length; i++) {
			orig_load(el[i], "fill")
		}
		var params = get_params();
		delete params.s;
		history.replaceState(null, null, parse_params(params));
	}
	function search_prompt() {
		if (!searching) {
			var term = prompt("Enter a search term (regexp " +
			    "allowed, eg: ^ext4_)"
			    + (ignorecase ? ", ignoring case" : "")
			    + "\nPress Ctrl-i to toggle case sensitivity", "");
			if (term != null) search(term);
		} else {
			reset_search();
			searching = 0;
			currentSearchTerm = null;
			searchbtn.classList.remove("show");
			searchbtn.firstChild.nodeValue = "Search"
			matchedtxt.classList.add("hide");
			matchedtxt.firstChild.nodeValue = ""
		}
	}
	function search(term) {
		if (term) currentSearchTerm = term;

		var re = new RegExp(currentSearchTerm, ignorecase ? 'i' : '');
		var el = document.getElementById("frames").children;
		var matches = new Object();
		var maxwidth = 0;
		for (var i = 0; i < el.length; i++) {
			var e = el[i];
			var func = g_to_func(e);
			var rect = find_child(e, "rect");
			if (func == null || rect == null)
				continue;

			// Save max width. Only works as we have a root frame
			var w = parseFloat(rect.attributes.width.value);
			if (w > maxwidth)
				maxwidth = w;

			if (func.match(re)) {
				// highlight
				var x = parseFloat(rect.attributes.x.value);
				orig_save(rect, "fill");
				rect.attributes.fill.value = "rgb(230,0,230)";

				// remember matches
				if (matches[x] == undefined) {
					matches[x] = w;
				} else {
					if (w > matches[x]) {
						// overwrite with parent
						matches[x] = w;
					}
				}
				searching = 1;
			}
		}
		if (!searching)
			return;
		var params = get_params();
		params.s = currentSearchTerm;
		history.replaceState(null, null, parse_params(params));

		searchbtn.classList.add("show");
		searchbtn.firstChild.nodeValue = "Reset Search";

		// calculate percent matched, excluding vertical overlap
		var count = 0;
		var lastx = -1;
		var lastw = 0;
		var keys = Array();
		for (k in matches) {
			if (matches.hasOwnProperty(k))
				keys.push(k);
		}
		// sort the matched frames by their x location
		// ascending, then width descending
		keys.sort(function(a, b){
			return a - b;
		});
		// Step through frames saving only the biggest bottom-up frames
		// thanks to the sort order. This relies on the tree property
		// where children are always smaller than their parents.
		var fudge = 0.0001;	// JavaScript floating point
		for (var k in keys) {
			var x = parseFloat(keys[k]);
			var w = matches[keys[k]];
			if (x >= lastx + lastw - fudge) {
				count += w;
				lastx = x;
				lastw = w;
			}
		}
		// display matched percent
		matchedtxt.classList.remove("hide");
		var pct = 100 * count / maxwidth;
		if (pct != 100) pct = pct.toFixed(1)
		matchedtxt.firstChild.nodeValue = "Matched: " + pct + "%";
	}
]]>
</script>
<rect x="0.0" y="0" width="1200.0" height="299.0" fill="url(#background)"  />
<text id="title" x="600.00" y="26" >Firedrake example</text>
<text id="details" x="10.00" y="281" > </text>
<text id="unzoom" x="10.00" y="26" class="hide">Reset Zoom</text>
<text id="search" x="1090.00" y="26" >Search</text>
<text id="ignorecase" x="1174.00" y="26" >ic</text>
<text id="matched" x="1090.00" y="281" > </text>
<g id="frames">
<g >
<title>firedrake.norms.norm (128,121 us, 0.01%)</title><rect x="73.8" y="87" width="0.2" height="15.0" fill="rgb(0,0,0)" rx="2" ry="2" />
<text  x="76.84" y="97.5" ></text>
</g>
<g >
<title>ParLoopExecute (126,500 us, 0.01%)</title><rect x="74.0" y="151" width="0.1" height="15.0" fill="rgb(0,0,0)" rx="2" ry="2" />
<text  x="76.97" y="161.5" ></text>
</g>
<g >
<title>pyop2.global_kernel.GlobalKernel.compile (128,121 us, 0.01%)</title><rect x="73.8" y="151" width="0.2" height="15.0" fill="rgb(0,0,0)" rx="2" ry="2" />
<text  x="76.84" y="161.5" ></text>
</g>
<g >
<title>Log_Event_subkernel10_interior_facet_horiz_bottom_to__exterior_facet_bottom_integral_otherwise (10,353,639 us, 0.94%)</title><rect x="460.0" y="231" width="11.0" height="15.0" fill="rgb(0,0,0)" rx="2" ry="2" />
<text  x="462.99" y="241.5" ></text>
</g>
<g >
<title>PCSetUpOnBlocks (10,791,492 us, 0.98%)</title><rect x="62.3" y="119" width="11.5" height="15.0" fill="rgb(0,0,0)" rx="2" ry="2" />
<text  x="65.32" y="129.5" ></text>
</g>
<g >
<title>Log_Event_form00_interior_facet_vert_integral_otherwise (1,000,015 us, 0.09%)</title><rect x="18.3" y="151" width="1.1" height="15.0" fill="rgb(0,0,0)" rx="2" ry="2" />
<text  x="21.30" y="161.5" ></text>
</g>
<g >
<title>firedrake (1,106,087,276 us, 100.00%)</title><rect x="10.0" y="55" width="1180.0" height="15.0" fill="rgb(0,0,0)" rx="2" ry="2" />
<text  x="13.00" y="65.5" >firedrake</text>
</g>
<g >
<title>MatMult (1,008,827,613 us, 91.21%)</title><rect x="93.3" y="167" width="1076.3" height="15.0" fill="rgb(0,0,0)" rx="2" ry="2" />
<text  x="96.35" y="177.5" >MatMult</text>
</g>
<g >
<title>inv_getrf (1,486,444 us, 0.13%)</title><rect x="1175.3" y="215" width="1.6" height="15.0" fill="rgb(0,0,0)" rx="2" ry="2" />
<text  x="1178.31" y="225.5" ></text>
</g>
<g >
<title>PCApply (1,045,739,654 us, 94.54%)</title><rect x="74.1" y="119" width="1115.6" height="15.0" fill="rgb(0,0,0)" rx="2" ry="2" />
<text  x="77.11" y="129.5" >PCApply</text>
</g>
<g >
<title>SNESFunctionEval (126,602 us, 0.01%)</title><rect x="1189.9" y="103" width="0.1" height="15.0" fill="rgb(0,0,0)" rx="2" ry="2" />
<text  x="1192.86" y="113.5" ></text>
</g>
<g >
<title>firedrake.projection.project (56,311,545 us, 5.09%)</title><rect x="13.8" y="87" width="60.0" height="15.0" fill="rgb(0,0,0)" rx="2" ry="2" />
<text  x="16.76" y="97.5" >fired..</text>
</g>
<g >
<title>Log_Event_subkernel17_interior_facet_vert_to__exterior_facet_vert_integral_otherwise (672,468 us, 0.06%)</title><rect x="87.4" y="199" width="0.7" height="15.0" fill="rgb(0,0,0)" rx="2" ry="2" />
<text  x="90.43" y="209.5" ></text>
</g>
<g >
<title>firedrake.assemble.assemble (128,121 us, 0.01%)</title><rect x="73.8" y="103" width="0.2" height="15.0" fill="rgb(0,0,0)" rx="2" ry="2" />
<text  x="76.84" y="113.5" ></text>
</g>
<g >
<title>all (1,106,087,276 us, 100%)</title><rect x="10.0" y="39" width="1180.0" height="15.0" fill="rgb(0,0,0)" rx="2" ry="2" />
<text  x="13.00" y="49.5" ></text>
</g>
<g >
<title>Parloop_Cells_wrap_wrap_slate_loopy_knl_0 (4,754,057 us, 0.43%)</title><rect x="88.1" y="183" width="5.1" height="15.0" fill="rgb(0,0,0)" rx="2" ry="2" />
<text  x="91.14" y="193.5" ></text>
</g>
<g >
<title>firedrake.assemble.allocate_matrix (2,180,149 us, 0.20%)</title><rect x="1187.4" y="167" width="2.3" height="15.0" fill="rgb(0,0,0)" rx="2" ry="2" />
<text  x="1190.40" y="177.5" ></text>
</g>
<g >
<title>PCApply (717,555 us, 0.06%)</title><rect x="61.6" y="135" width="0.7" height="15.0" fill="rgb(0,0,0)" rx="2" ry="2" />
<text  x="64.56" y="145.5" ></text>
</g>
<g >
<title>RecoverFirstElim (10,123,838 us, 0.92%)</title><rect x="77.3" y="151" width="10.8" height="15.0" fill="rgb(0,0,0)" rx="2" ry="2" />
<text  x="80.34" y="161.5" ></text>
</g>
<g >
<title>firedrake.function.Function.project (56,311,545 us, 5.09%)</title><rect x="13.8" y="71" width="60.0" height="15.0" fill="rgb(0,0,0)" rx="2" ry="2" />
<text  x="16.76" y="81.5" >fired..</text>
</g>
<g >
<title>PCSetUp (18,878,143 us, 1.71%)</title><rect x="1169.6" y="151" width="20.1" height="15.0" fill="rgb(0,0,0)" rx="2" ry="2" />
<text  x="1172.59" y="161.5" ></text>
</g>
<g >
<title>Parloop_Cells_wrap_form00_interior_facet_horiz_integral_otherwise (566,194 us, 0.05%)</title><rect x="16.9" y="135" width="0.6" height="15.0" fill="rgb(0,0,0)" rx="2" ry="2" />
<text  x="19.88" y="145.5" ></text>
</g>
<g >
<title>firedrake.matrix_free.operators.ImplicitMatrixContext.mult (126,500 us, 0.01%)</title><rect x="74.0" y="135" width="0.1" height="15.0" fill="rgb(0,0,0)" rx="2" ry="2" />
<text  x="76.97" y="145.5" ></text>
</g>
<g >
<title>Log_Event_subkernel15_cell_to__cell_integral_otherwise (319,414 us, 0.03%)</title><rect x="87.1" y="199" width="0.3" height="15.0" fill="rgb(0,0,0)" rx="2" ry="2" />
<text  x="90.09" y="209.5" ></text>
</g>
<g >
<title>Log_Event_subkernel4_interior_facet_vert_to__exterior_facet_vert_integral_otherwise (762,562 us, 0.07%)</title><rect x="1183.9" y="199" width="0.8" height="15.0" fill="rgb(0,0,0)" rx="2" ry="2" />
<text  x="1186.86" y="209.5" ></text>
</g>
<g >
<title>MatSolve (717,555 us, 0.06%)</title><rect x="61.6" y="183" width="0.7" height="15.0" fill="rgb(0,0,0)" rx="2" ry="2" />
<text  x="64.56" y="193.5" ></text>
</g>
<g >
<title>ParLoopExecute (229,182 us, 0.02%)</title><rect x="13.4" y="87" width="0.2" height="15.0" fill="rgb(0,0,0)" rx="2" ry="2" />
<text  x="16.38" y="97.5" ></text>
</g>
<g >
<title>inv_getri (6,526,430 us, 0.59%)</title><rect x="1176.9" y="215" width="7.0" height="15.0" fill="rgb(0,0,0)" rx="2" ry="2" />
<text  x="1179.89" y="225.5" ></text>
</g>
<g >
<title>ParLoopExecute (9,868,402 us, 0.89%)</title><rect x="77.6" y="167" width="10.5" height="15.0" fill="rgb(0,0,0)" rx="2" ry="2" />
<text  x="80.62" y="177.5" ></text>
</g>
<g >
<title>MatICCFactorSym (156,419 us, 0.01%)</title><rect x="73.7" y="151" width="0.1" height="15.0" fill="rgb(0,0,0)" rx="2" ry="2" />
<text  x="76.67" y="161.5" ></text>
</g>
<g >
<title>HybridInit (129,845 us, 0.01%)</title><rect x="1189.7" y="119" width="0.2" height="15.0" fill="rgb(0,0,0)" rx="2" ry="2" />
<text  x="1192.73" y="129.5" ></text>
</g>
<g >
<title>Parloop_Cells_wrap_form00_cell_integral_otherwise (2,446,376 us, 0.22%)</title><rect x="14.3" y="135" width="2.6" height="15.0" fill="rgb(0,0,0)" rx="2" ry="2" />
<text  x="17.27" y="145.5" ></text>
</g>
<g >
<title>MatCholFctrNum (10,635,073 us, 0.96%)</title><rect x="62.3" y="151" width="11.4" height="15.0" fill="rgb(0,0,0)" rx="2" ry="2" />
<text  x="65.32" y="161.5" ></text>
</g>
<g >
<title>solve_getrf (828,671 us, 0.07%)</title><rect x="74.7" y="199" width="0.9" height="15.0" fill="rgb(0,0,0)" rx="2" ry="2" />
<text  x="77.72" y="209.5" ></text>
</g>
<g >
<title>ParLoopExecute (334,467 us, 0.03%)</title><rect x="13.8" y="103" width="0.3" height="15.0" fill="rgb(0,0,0)" rx="2" ry="2" />
<text  x="16.76" y="113.5" ></text>
</g>
<g >
<title>Log_Event_subkernel1_interior_facet_vert_to__exterior_facet_vert_integral_otherwise (809,083 us, 0.07%)</title><rect x="90.3" y="199" width="0.8" height="15.0" fill="rgb(0,0,0)" rx="2" ry="2" />
<text  x="93.25" y="209.5" ></text>
</g>
<g >
<title>CreateSparsity (1,714,310 us, 0.15%)</title><rect x="1187.4" y="183" width="1.8" height="15.0" fill="rgb(0,0,0)" rx="2" ry="2" />
<text  x="1190.40" y="193.5" ></text>
</g>
<g >
<title>Log_Event_subkernel13_cell_to__cell_integral_otherwise (153,757 us, 0.01%)</title><rect x="86.3" y="199" width="0.2" height="15.0" fill="rgb(0,0,0)" rx="2" ry="2" />
<text  x="89.33" y="209.5" ></text>
</g>
<g >
<title>Parloop_Cells_wrap_wrap_slate_loopy_knl_7 (1,008,546,481 us, 91.18%)</title><rect x="93.6" y="215" width="1076.0" height="15.0" fill="rgb(0,0,0)" rx="2" ry="2" />
<text  x="96.65" y="225.5" >Parloop_Cells_wrap_wrap_slate_loopy_knl_7</text>
</g>
<g >
<title>Parloop_Cells_wrap_wrap_slate_loopy_knl_11 (9,868,402 us, 0.89%)</title><rect x="77.6" y="183" width="10.5" height="15.0" fill="rgb(0,0,0)" rx="2" ry="2" />
<text  x="80.62" y="193.5" ></text>
</g>
<g >
<title>Log_Event_subkernel6_interior_facet_vert_to__exterior_facet_vert_integral_otherwise (602,563 us, 0.05%)</title><rect x="1186.8" y="199" width="0.6" height="15.0" fill="rgb(0,0,0)" rx="2" ry="2" />
<text  x="1189.76" y="209.5" ></text>
</g>
<g >
<title>Parloop_ExtFacets_wrap_form00_exterior_facet_vert_integral_otherwise (197,569 us, 0.02%)</title><rect x="17.5" y="135" width="0.2" height="15.0" fill="rgb(0,0,0)" rx="2" ry="2" />
<text  x="20.49" y="145.5" ></text>
</g>
<g >
<title>Log_Event_slate_loopy_knl_18 (940,526 us, 0.09%)</title><rect x="74.6" y="183" width="1.0" height="15.0" fill="rgb(0,0,0)" rx="2" ry="2" />
<text  x="77.60" y="193.5" ></text>
</g>
<g >
<title>SCBackSub (13,158,983 us, 1.19%)</title><rect x="74.1" y="135" width="14.0" height="15.0" fill="rgb(0,0,0)" rx="2" ry="2" />
<text  x="77.11" y="145.5" ></text>
</g>
<g >
<title>KSPSolve (1,008,948,471 us, 91.22%)</title><rect x="93.2" y="151" width="1076.4" height="15.0" fill="rgb(0,0,0)" rx="2" ry="2" />
<text  x="96.22" y="161.5" >KSPSolve</text>
</g>
<g >
<title>firedrake.assemble_expressions.evaluate_expression (132,195 us, 0.01%)</title><rect x="13.6" y="103" width="0.2" height="15.0" fill="rgb(0,0,0)" rx="2" ry="2" />
<text  x="16.62" y="113.5" ></text>
</g>
<g >
<title>firedrake.assemble.assemble (43,995,572 us, 3.98%)</title><rect x="14.1" y="103" width="47.0" height="15.0" fill="rgb(0,0,0)" rx="2" ry="2" />
<text  x="17.12" y="113.5" >fire..</text>
</g>
<g >
<title>Log_Event_subkernel2_cell_to__cell_integral_otherwise (1,971,493 us, 0.18%)</title><rect x="91.1" y="199" width="2.1" height="15.0" fill="rgb(0,0,0)" rx="2" ry="2" />
<text  x="94.11" y="209.5" ></text>
</g>
<g >
<title>Log_Event_subkernel20_cell_to__cell_integral_otherwise (327,188 us, 0.03%)</title><rect x="76.2" y="183" width="0.4" height="15.0" fill="rgb(0,0,0)" rx="2" ry="2" />
<text  x="79.21" y="193.5" ></text>
</g>
<g >
<title>ParLoopExecute (16,432,911 us, 1.49%)</title><rect x="1169.9" y="167" width="17.5" height="15.0" fill="rgb(0,0,0)" rx="2" ry="2" />
<text  x="1172.87" y="177.5" ></text>
</g>
<g >
<title>ParLoopExecute (132,195 us, 0.01%)</title><rect x="13.6" y="119" width="0.2" height="15.0" fill="rgb(0,0,0)" rx="2" ry="2" />
<text  x="16.62" y="129.5" ></text>
</g>
<g >
<title>Log_Event_subkernel8_interior_facet_horiz_top_to__exterior_facet_top_integral_otherwise (10,744,395 us, 0.97%)</title><rect x="614.5" y="231" width="11.5" height="15.0" fill="rgb(0,0,0)" rx="2" ry="2" />
<text  x="617.52" y="241.5" ></text>
</g>
<g >
<title>Log_Event_form00_exterior_facet_vert_integral_otherwise (197,569 us, 0.02%)</title><rect x="17.5" y="151" width="0.2" height="15.0" fill="rgb(0,0,0)" rx="2" ry="2" />
<text  x="20.49" y="161.5" ></text>
</g>
<g >
<title>firedrake.assemble.assemble (361,377 us, 0.03%)</title><rect x="13.4" y="71" width="0.4" height="15.0" fill="rgb(0,0,0)" rx="2" ry="2" />
<text  x="16.38" y="81.5" ></text>
</g>
<g >
<title>Parloop_Cells_wrap_wrap_slate_loopy_knl_3 (16,432,911 us, 1.49%)</title><rect x="1169.9" y="183" width="17.5" height="15.0" fill="rgb(0,0,0)" rx="2" ry="2" />
<text  x="1172.87" y="193.5" ></text>
</g>
<g >
<title>MatZeroInitial (11,462,084 us, 1.04%)</title><rect x="48.6" y="135" width="12.2" height="15.0" fill="rgb(0,0,0)" rx="2" ry="2" />
<text  x="51.57" y="145.5" ></text>
</g>
<g >
<title>Log_Event_subkernel5_cell_to__cell_integral_otherwise (1,956,608 us, 0.18%)</title><rect x="1184.7" y="199" width="2.1" height="15.0" fill="rgb(0,0,0)" rx="2" ry="2" />
<text  x="1187.67" y="209.5" ></text>
</g>
<g >
<title>KSPSolve (1,190,014 us, 0.11%)</title><rect x="61.1" y="119" width="1.2" height="15.0" fill="rgb(0,0,0)" rx="2" ry="2" />
<text  x="64.05" y="129.5" ></text>
</g>
<g >
<title>firedrake.__init__ (1,529,755 us, 0.14%)</title><rect x="11.7" y="71" width="1.7" height="15.0" fill="rgb(0,0,0)" rx="2" ry="2" />
<text  x="14.74" y="81.5" ></text>
</g>
<g >
<title>Log_Event_inits_wrap_slate_loopy_knl_7 (12,695,882 us, 1.15%)</title><rect x="121.3" y="231" width="13.5" height="15.0" fill="rgb(0,0,0)" rx="2" ry="2" />
<text  x="124.26" y="241.5" ></text>
</g>
<g >
<title>firedrake.assemble.allocate_matrix (38,829,209 us, 3.51%)</title><rect x="19.4" y="119" width="41.4" height="15.0" fill="rgb(0,0,0)" rx="2" ry="2" />
<text  x="22.37" y="129.5" >fir..</text>
</g>
<g >
<title>Parloop_Cells_wrap_wrap_slate_loopy_knl_18 (2,906,807 us, 0.26%)</title><rect x="74.2" y="167" width="3.1" height="15.0" fill="rgb(0,0,0)" rx="2" ry="2" />
<text  x="77.24" y="177.5" ></text>
</g>
<g >
<title>Log_Event_slate_loopy_knl_7 (304,819,521 us, 27.56%)</title><rect x="134.8" y="231" width="325.2" height="15.0" fill="rgb(0,0,0)" rx="2" ry="2" />
<text  x="137.80" y="241.5" >Log_Event_slate_loopy_knl_7</text>
</g>
<g >
<title>solve_getrf (1,724,157 us, 0.16%)</title><rect x="84.5" y="215" width="1.8" height="15.0" fill="rgb(0,0,0)" rx="2" ry="2" />
<text  x="87.49" y="225.5" ></text>
</g>
<g >
<title>Log_Event_form00_cell_integral_otherwise (743,184 us, 0.07%)</title><rect x="16.1" y="151" width="0.8" height="15.0" fill="rgb(0,0,0)" rx="2" ry="2" />
<text  x="19.09" y="161.5" ></text>
</g>
<g >
<title>firedrake.variational_solver.NonlinearVariationalSolver.solve (1,046,122,601 us, 94.58%)</title><rect x="74.0" y="71" width="1116.0" height="15.0" fill="rgb(0,0,0)" rx="2" ry="2" />
<text  x="76.97" y="81.5" >firedrake.variational_solver.NonlinearVariationalSolver.solve</text>
</g>
<g >
<title>Parloop_Cells_wrap_form_cell_integral_otherwise (128,121 us, 0.01%)</title><rect x="73.8" y="135" width="0.2" height="15.0" fill="rgb(0,0,0)" rx="2" ry="2" />
<text  x="76.84" y="145.5" ></text>
</g>
<g >
<title>solve_getrs (10,744,936 us, 0.97%)</title><rect x="432.8" y="247" width="11.5" height="15.0" fill="rgb(0,0,0)" rx="2" ry="2" />
<text  x="435.82" y="257.5" ></text>
</g>
<g >
<title>ParLoopExecute (128,121 us, 0.01%)</title><rect x="73.8" y="119" width="0.2" height="15.0" fill="rgb(0,0,0)" rx="2" ry="2" />
<text  x="76.84" y="129.5" ></text>
</g>
<g >
<title>KSPSolve (1,045,866,154 us, 94.56%)</title><rect x="74.0" y="103" width="1115.7" height="15.0" fill="rgb(0,0,0)" rx="2" ry="2" />
<text  x="76.97" y="113.5" >KSPSolve</text>
</g>
<g >
<title>Log_Event_subkernel19_cell_to__cell_integral_otherwise (568,376 us, 0.05%)</title><rect x="75.6" y="183" width="0.6" height="15.0" fill="rgb(0,0,0)" rx="2" ry="2" />
<text  x="78.61" y="193.5" ></text>
</g>
<g >
<title>HybridRHS (4,754,057 us, 0.43%)</title><rect x="88.1" y="151" width="5.1" height="15.0" fill="rgb(0,0,0)" rx="2" ry="2" />
<text  x="91.14" y="161.5" ></text>
</g>
<g >
<title>Log_Event_subkernel9_cell_to__cell_integral_otherwise (358,878,114 us, 32.45%)</title><rect x="786.7" y="231" width="382.9" height="15.0" fill="rgb(0,0,0)" rx="2" ry="2" />
<text  x="789.73" y="241.5" >Log_Event_subkernel9_cell_to__cell_integral_oth..</text>
</g>
<g >
<title>Parloop_IntFacets_wrap_form00_interior_facet_vert_integral_otherwise (1,567,320 us, 0.14%)</title><rect x="17.7" y="135" width="1.7" height="15.0" fill="rgb(0,0,0)" rx="2" ry="2" />
<text  x="20.70" y="145.5" ></text>
</g>
<g >
<title>PCSetUp (10,791,492 us, 0.98%)</title><rect x="62.3" y="135" width="11.5" height="15.0" fill="rgb(0,0,0)" rx="2" ry="2" />
<text  x="65.32" y="145.5" ></text>
</g>
<g >
<title>Log_Event_form00_interior_facet_horiz_integral_otherwise (245,099 us, 0.02%)</title><rect x="17.2" y="151" width="0.3" height="15.0" fill="rgb(0,0,0)" rx="2" ry="2" />
<text  x="20.23" y="161.5" ></text>
</g>
<g >
<title>inv_getri (3,276,424 us, 0.30%)</title><rect x="81.0" y="215" width="3.5" height="15.0" fill="rgb(0,0,0)" rx="2" ry="2" />
<text  x="84.00" y="225.5" ></text>
</g>
<g >
<title>CreateSparsity (27,220,230 us, 2.46%)</title><rect x="19.4" y="135" width="29.0" height="15.0" fill="rgb(0,0,0)" rx="2" ry="2" />
<text  x="22.37" y="145.5" >C..</text>
</g>
<g >
<title>Log_Event_slate_loopy_knl_11 (7,829,287 us, 0.71%)</title><rect x="78.0" y="199" width="8.3" height="15.0" fill="rgb(0,0,0)" rx="2" ry="2" />
<text  x="80.98" y="209.5" ></text>
</g>
<g >
<title>Log_Event_slate_loopy_knl_3 (12,325,428 us, 1.11%)</title><rect x="1170.7" y="199" width="13.2" height="15.0" fill="rgb(0,0,0)" rx="2" ry="2" />
<text  x="1173.71" y="209.5" ></text>
</g>
<g >
<title>Log_Event_subkernel8_interior_facet_vert_to__exterior_facet_vert_integral_otherwise (150,671,783 us, 13.62%)</title><rect x="626.0" y="231" width="160.7" height="15.0" fill="rgb(0,0,0)" rx="2" ry="2" />
<text  x="628.99" y="241.5" >Log_Event_subkerne..</text>
</g>
<g >
<title>Log_Event_form0_cell_integral_otherwise (126,602 us, 0.01%)</title><rect x="1189.9" y="151" width="0.1" height="15.0" fill="rgb(0,0,0)" rx="2" ry="2" />
<text  x="1192.86" y="161.5" ></text>
</g>
<g >
<title>MatZeroInitial (465,839 us, 0.04%)</title><rect x="1189.2" y="183" width="0.5" height="15.0" fill="rgb(0,0,0)" rx="2" ry="2" />
<text  x="1192.23" y="193.5" ></text>
</g>
<g >
<title>KSPSolve (717,555 us, 0.06%)</title><rect x="61.6" y="151" width="0.7" height="15.0" fill="rgb(0,0,0)" rx="2" ry="2" />
<text  x="64.56" y="161.5" ></text>
</g>
<g >
<title>solve_getrf (273,385,434 us, 24.72%)</title><rect x="141.2" y="247" width="291.6" height="15.0" fill="rgb(0,0,0)" rx="2" ry="2" />
<text  x="144.17" y="257.5" >solve_getrf</text>
</g>
<g >
<title>SCSolve (1,027,826,614 us, 92.92%)</title><rect x="93.2" y="135" width="1096.5" height="15.0" fill="rgb(0,0,0)" rx="2" ry="2" />
<text  x="96.22" y="145.5" >SCSolve</text>
</g>
<g >
<title>inv_getrf (825,440 us, 0.07%)</title><rect x="80.1" y="215" width="0.9" height="15.0" fill="rgb(0,0,0)" rx="2" ry="2" />
<text  x="83.12" y="225.5" ></text>
</g>
<g >
<title>SNESSolve (1,046,122,601 us, 94.58%)</title><rect x="74.0" y="87" width="1116.0" height="15.0" fill="rgb(0,0,0)" rx="2" ry="2" />
<text  x="76.97" y="97.5" >SNESSolve</text>
</g>
<g >
<title>ParLoopExecute (126,602 us, 0.01%)</title><rect x="1189.9" y="119" width="0.1" height="15.0" fill="rgb(0,0,0)" rx="2" ry="2" />
<text  x="1192.86" y="129.5" ></text>
</g>
<g >
<title>solve_getrf (1,528,034 us, 0.14%)</title><rect x="88.6" y="215" width="1.7" height="15.0" fill="rgb(0,0,0)" rx="2" ry="2" />
<text  x="91.62" y="225.5" ></text>
</g>
<g >
<title>PCApply (717,555 us, 0.06%)</title><rect x="61.6" y="167" width="0.7" height="15.0" fill="rgb(0,0,0)" rx="2" ry="2" />
<text  x="64.56" y="177.5" ></text>
</g>
<g >
<title>ParLoopExecute (1,008,546,481 us, 91.18%)</title><rect x="93.6" y="199" width="1076.0" height="15.0" fill="rgb(0,0,0)" rx="2" ry="2" />
<text  x="96.65" y="209.5" >ParLoopExecute</text>
</g>
<g >
<title>firedrake.assemble_expressions.assemble_expression (132,195 us, 0.01%)</title><rect x="13.6" y="87" width="0.2" height="15.0" fill="rgb(0,0,0)" rx="2" ry="2" />
<text  x="16.62" y="97.5" ></text>
</g>
<g >
<title>ParLoopExecute (2,906,807 us, 0.26%)</title><rect x="74.2" y="151" width="3.1" height="15.0" fill="rgb(0,0,0)" rx="2" ry="2" />
<text  x="77.24" y="161.5" ></text>
</g>
<g >
<title>Log_Event_slate_loopy_knl_0 (1,687,847 us, 0.15%)</title><rect x="88.4" y="199" width="1.9" height="15.0" fill="rgb(0,0,0)" rx="2" ry="2" />
<text  x="91.45" y="209.5" ></text>
</g>
<g >
<title>MatMult (126,500 us, 0.01%)</title><rect x="74.0" y="119" width="0.1" height="15.0" fill="rgb(0,0,0)" rx="2" ry="2" />
<text  x="76.97" y="129.5" ></text>
</g>
<g >
<title>Parloop_Cells_wrap_form0_cell_integral_otherwise (126,602 us, 0.01%)</title><rect x="1189.9" y="135" width="0.1" height="15.0" fill="rgb(0,0,0)" rx="2" ry="2" />
<text  x="1192.86" y="145.5" ></text>
</g>
<g >
<title>Log_Event_subkernel21_interior_facet_vert_to__exterior_facet_vert_integral_otherwise (732,549 us, 0.07%)</title><rect x="76.6" y="183" width="0.7" height="15.0" fill="rgb(0,0,0)" rx="2" ry="2" />
<text  x="79.56" y="193.5" ></text>
</g>
<g >
<title>firedrake.linear_solver.LinearSolver.solve (11,981,506 us, 1.08%)</title><rect x="61.1" y="103" width="12.7" height="15.0" fill="rgb(0,0,0)" rx="2" ry="2" />
<text  x="64.05" y="113.5" ></text>
</g>
<g >
<title>SCForwardElim (4,754,057 us, 0.43%)</title><rect x="88.1" y="135" width="5.1" height="15.0" fill="rgb(0,0,0)" rx="2" ry="2" />
<text  x="91.14" y="145.5" ></text>
</g>
<g >
<title>PCSetUp (129,845 us, 0.01%)</title><rect x="1189.7" y="103" width="0.2" height="15.0" fill="rgb(0,0,0)" rx="2" ry="2" />
<text  x="1192.73" y="113.5" ></text>
</g>
<g >
<title>Log_Event_subkernel10_interior_facet_vert_to__exterior_facet_vert_integral_otherwise (113,305,786 us, 10.24%)</title><rect x="482.5" y="231" width="120.9" height="15.0" fill="rgb(0,0,0)" rx="2" ry="2" />
<text  x="485.55" y="241.5" >Log_Event_sub..</text>
</g>
<g >
<title>Log_Event_subkernel8_interior_facet_horiz_bottom_to__exterior_facet_bottom_integral_otherwise (10,402,299 us, 0.94%)</title><rect x="603.4" y="231" width="11.1" height="15.0" fill="rgb(0,0,0)" rx="2" ry="2" />
<text  x="606.43" y="241.5" ></text>
</g>
<g >
<title>firedrake.norms.errornorm (128,121 us, 0.01%)</title><rect x="73.8" y="71" width="0.2" height="15.0" fill="rgb(0,0,0)" rx="2" ry="2" />
<text  x="76.84" y="81.5" ></text>
</g>
<g >
<title>ParLoopExecute (4,924,389 us, 0.45%)</title><rect x="14.1" y="119" width="5.3" height="15.0" fill="rgb(0,0,0)" rx="2" ry="2" />
<text  x="17.12" y="129.5" ></text>
</g>
<g >
<title>MatMult (472,459 us, 0.04%)</title><rect x="61.1" y="135" width="0.5" height="15.0" fill="rgb(0,0,0)" rx="2" ry="2" />
<text  x="64.05" y="145.5" ></text>
</g>
<g >
<title>firedrake.tsfc_interface.compile_form (241,974 us, 0.02%)</title><rect x="60.8" y="119" width="0.3" height="15.0" fill="rgb(0,0,0)" rx="2" ry="2" />
<text  x="63.79" y="129.5" ></text>
</g>
<g >
<title>MatAssemblyEnd (146,895 us, 0.01%)</title><rect x="48.4" y="135" width="0.2" height="15.0" fill="rgb(0,0,0)" rx="2" ry="2" />
<text  x="51.41" y="145.5" ></text>
</g>
<g >
<title>Log_Event_subkernel10_interior_facet_horiz_top_to__exterior_facet_top_integral_otherwise (10,791,880 us, 0.98%)</title><rect x="471.0" y="231" width="11.5" height="15.0" fill="rgb(0,0,0)" rx="2" ry="2" />
<text  x="474.04" y="241.5" ></text>
</g>
<g >
<title>solve_memcpy (14,722,831 us, 1.33%)</title><rect x="444.3" y="247" width="15.7" height="15.0" fill="rgb(0,0,0)" rx="2" ry="2" />
<text  x="447.28" y="257.5" ></text>
</g>
<g >
<title>firedrake.matrix_free.operators.ImplicitMatrixContext.mult (1,008,827,613 us, 91.21%)</title><rect x="93.3" y="183" width="1076.3" height="15.0" fill="rgb(0,0,0)" rx="2" ry="2" />
<text  x="96.35" y="193.5" >firedrake.matrix_free.operators.ImplicitMatrixContext.mult</text>
</g>
<g >
<title>Log_Event_subkernel14_cell_to__cell_integral_otherwise (551,903 us, 0.05%)</title><rect x="86.5" y="199" width="0.6" height="15.0" fill="rgb(0,0,0)" rx="2" ry="2" />
<text  x="89.50" y="209.5" ></text>
</g>
<g >
<title>ParLoopExecute (4,754,057 us, 0.43%)</title><rect x="88.1" y="167" width="5.1" height="15.0" fill="rgb(0,0,0)" rx="2" ry="2" />
<text  x="91.14" y="177.5" ></text>
</g>
</g>
</svg>
