<?xml version="1.0" standalone="no"?>
<!DOCTYPE svg PUBLIC "-//W3C//DTD SVG 1.1//EN" "http://www.w3.org/Graphics/SVG/1.1/DTD/svg11.dtd">
<svg version="1.1" width="1200" height="331" onload="init(evt)" viewBox="0 0 1200 331" xmlns="http://www.w3.org/2000/svg" xmlns:xlink="http://www.w3.org/1999/xlink">
<!-- Flame graph stack visualization. See https://github.com/brendangregg/FlameGraph for latest version, and http://www.brendangregg.com/flamegraphs.html for examples. -->
<!-- NOTES:  -->
<defs>
	<linearGradient id="background" y1="0" y2="1" x1="0" x2="0" >
		<stop stop-color="#eeeeee" offset="5%" />
		<stop stop-color="#eeeeb0" offset="95%" />
	</linearGradient>
</defs>
<style type="text/css">
	text { font-family:Verdana; font-size:13px; fill:rgb(0,0,0); }
	#search, #ignorecase { opacity:0.1; cursor:pointer; }
	#search:hover, #search.show, #ignorecase:hover, #ignorecase.show { opacity:1; }
	#subtitle { text-anchor:middle; font-color:rgb(160,160,160); }
	#title { text-anchor:middle; font-size:18px}
	#unzoom { cursor:pointer; }
	#frames > *:hover { stroke:black; stroke-width:0.5; cursor:pointer; }
	.hide { display:none; }
	.parent { opacity:0.5; }
</style>
<script type="text/ecmascript">
<![CDATA[
	"use strict";
	var details, searchbtn, unzoombtn, matchedtxt, svg, searching, currentSearchTerm, ignorecase, ignorecaseBtn;
	function init(evt) {
		details = document.getElementById("details").firstChild;
		searchbtn = document.getElementById("search");
		ignorecaseBtn = document.getElementById("ignorecase");
		unzoombtn = document.getElementById("unzoom");
		matchedtxt = document.getElementById("matched");
		svg = document.getElementsByTagName("svg")[0];
		searching = 0;
		currentSearchTerm = null;

		// use GET parameters to restore a flamegraphs state.
		var params = get_params();
		if (params.x && params.y)
			zoom(find_group(document.querySelector('[x="' + params.x + '"][y="' + params.y + '"]')));
                if (params.s) search(params.s);
	}

	// event listeners
	window.addEventListener("click", function(e) {
		var target = find_group(e.target);
		if (target) {
			if (target.nodeName == "a") {
				if (e.ctrlKey === false) return;
				e.preventDefault();
			}
			if (target.classList.contains("parent")) unzoom();
			zoom(target);
			if (!document.querySelector('.parent')) {
				clearzoom();
				return;
			}

			// set parameters for zoom state
			var el = target.querySelector("rect");
			if (el && el.attributes && el.attributes.y && el.attributes._orig_x) {
				var params = get_params()
				params.x = el.attributes._orig_x.value;
				params.y = el.attributes.y.value;
				history.replaceState(null, null, parse_params(params));
			}
		}
		else if (e.target.id == "unzoom") clearzoom();
		else if (e.target.id == "search") search_prompt();
		else if (e.target.id == "ignorecase") toggle_ignorecase();
	}, false)

	// mouse-over for info
	// show
	window.addEventListener("mouseover", function(e) {
		var target = find_group(e.target);
		if (target) details.nodeValue = "Function: " + g_to_text(target);
	}, false)

	// clear
	window.addEventListener("mouseout", function(e) {
		var target = find_group(e.target);
		if (target) details.nodeValue = ' ';
	}, false)

	// ctrl-F for search
	// ctrl-I to toggle case-sensitive search
	window.addEventListener("keydown",function (e) {
		if (e.keyCode === 114 || (e.ctrlKey && e.keyCode === 70)) {
			e.preventDefault();
			search_prompt();
		}
		else if (e.ctrlKey && e.keyCode === 73) {
			e.preventDefault();
			toggle_ignorecase();
		}
	}, false)

	// functions
	function get_params() {
		var params = {};
		var paramsarr = window.location.search.substr(1).split('&');
		for (var i = 0; i < paramsarr.length; ++i) {
			var tmp = paramsarr[i].split("=");
			if (!tmp[0] || !tmp[1]) continue;
			params[tmp[0]]  = decodeURIComponent(tmp[1]);
		}
		return params;
	}
	function parse_params(params) {
		var uri = "?";
		for (var key in params) {
			uri += key + '=' + encodeURIComponent(params[key]) + '&';
		}
		if (uri.slice(-1) == "&")
			uri = uri.substring(0, uri.length - 1);
		if (uri == '?')
			uri = window.location.href.split('?')[0];
		return uri;
	}
	function find_child(node, selector) {
		var children = node.querySelectorAll(selector);
		if (children.length) return children[0];
	}
	function find_group(node) {
		var parent = node.parentElement;
		if (!parent) return;
		if (parent.id == "frames") return node;
		return find_group(parent);
	}
	function orig_save(e, attr, val) {
		if (e.attributes["_orig_" + attr] != undefined) return;
		if (e.attributes[attr] == undefined) return;
		if (val == undefined) val = e.attributes[attr].value;
		e.setAttribute("_orig_" + attr, val);
	}
	function orig_load(e, attr) {
		if (e.attributes["_orig_"+attr] == undefined) return;
		e.attributes[attr].value = e.attributes["_orig_" + attr].value;
		e.removeAttribute("_orig_"+attr);
	}
	function g_to_text(e) {
		var text = find_child(e, "title").firstChild.nodeValue;
		return (text)
	}
	function g_to_func(e) {
		var func = g_to_text(e);
		// if there's any manipulation we want to do to the function
		// name before it's searched, do it here before returning.
		return (func);
	}
	function update_text(e) {
		var r = find_child(e, "rect");
		var t = find_child(e, "text");
		var w = parseFloat(r.attributes.width.value) -3;
		var txt = find_child(e, "title").textContent.replace(/\([^(]*\)$/,"");
		t.attributes.x.value = parseFloat(r.attributes.x.value) + 3;

		// Smaller than this size won't fit anything
		if (w < 2 * 13 * 0.59) {
			t.textContent = "";
			return;
		}

		t.textContent = txt;
		// Fit in full text width
		if (/^ *$/.test(txt) || t.getSubStringLength(0, txt.length) < w)
			return;

		for (var x = txt.length - 2; x > 0; x--) {
			if (t.getSubStringLength(0, x + 2) <= w) {
				t.textContent = txt.substring(0, x) + "..";
				return;
			}
		}
		t.textContent = "";
	}

	// zoom
	function zoom_reset(e) {
		if (e.attributes != undefined) {
			orig_load(e, "x");
			orig_load(e, "width");
		}
		if (e.childNodes == undefined) return;
		for (var i = 0, c = e.childNodes; i < c.length; i++) {
			zoom_reset(c[i]);
		}
	}
	function zoom_child(e, x, ratio) {
		if (e.attributes != undefined) {
			if (e.attributes.x != undefined) {
				orig_save(e, "x");
				e.attributes.x.value = (parseFloat(e.attributes.x.value) - x - 10) * ratio + 10;
				if (e.tagName == "text")
					e.attributes.x.value = find_child(e.parentNode, "rect[x]").attributes.x.value + 3;
			}
			if (e.attributes.width != undefined) {
				orig_save(e, "width");
				e.attributes.width.value = parseFloat(e.attributes.width.value) * ratio;
			}
		}

		if (e.childNodes == undefined) return;
		for (var i = 0, c = e.childNodes; i < c.length; i++) {
			zoom_child(c[i], x - 10, ratio);
		}
	}
	function zoom_parent(e) {
		if (e.attributes) {
			if (e.attributes.x != undefined) {
				orig_save(e, "x");
				e.attributes.x.value = 10;
			}
			if (e.attributes.width != undefined) {
				orig_save(e, "width");
				e.attributes.width.value = parseInt(svg.width.baseVal.value) - (10 * 2);
			}
		}
		if (e.childNodes == undefined) return;
		for (var i = 0, c = e.childNodes; i < c.length; i++) {
			zoom_parent(c[i]);
		}
	}
	function zoom(node) {
		var attr = find_child(node, "rect").attributes;
		var width = parseFloat(attr.width.value);
		var xmin = parseFloat(attr.x.value);
		var xmax = parseFloat(xmin + width);
		var ymin = parseFloat(attr.y.value);
		var ratio = (svg.width.baseVal.value - 2 * 10) / width;

		// XXX: Workaround for JavaScript float issues (fix me)
		var fudge = 0.0001;

		unzoombtn.classList.remove("hide");

		var el = document.getElementById("frames").children;
		for (var i = 0; i < el.length; i++) {
			var e = el[i];
			var a = find_child(e, "rect").attributes;
			var ex = parseFloat(a.x.value);
			var ew = parseFloat(a.width.value);
			var upstack;
			// Is it an ancestor
			if (1 == 0) {
				upstack = parseFloat(a.y.value) > ymin;
			} else {
				upstack = parseFloat(a.y.value) < ymin;
			}
			if (upstack) {
				// Direct ancestor
				if (ex <= xmin && (ex+ew+fudge) >= xmax) {
					e.classList.add("parent");
					zoom_parent(e);
					update_text(e);
				}
				// not in current path
				else
					e.classList.add("hide");
			}
			// Children maybe
			else {
				// no common path
				if (ex < xmin || ex + fudge >= xmax) {
					e.classList.add("hide");
				}
				else {
					zoom_child(e, xmin, ratio);
					update_text(e);
				}
			}
		}
		search();
	}
	function unzoom() {
		unzoombtn.classList.add("hide");
		var el = document.getElementById("frames").children;
		for(var i = 0; i < el.length; i++) {
			el[i].classList.remove("parent");
			el[i].classList.remove("hide");
			zoom_reset(el[i]);
			update_text(el[i]);
		}
		search();
	}
	function clearzoom() {
		unzoom();

		// remove zoom state
		var params = get_params();
		if (params.x) delete params.x;
		if (params.y) delete params.y;
		history.replaceState(null, null, parse_params(params));
	}

	// search
	function toggle_ignorecase() {
		ignorecase = !ignorecase;
		if (ignorecase) {
			ignorecaseBtn.classList.add("show");
		} else {
			ignorecaseBtn.classList.remove("show");
		}
		reset_search();
		search();
	}
	function reset_search() {
		var el = document.querySelectorAll("#frames rect");
		for (var i = 0; i < el.length; i++) {
			orig_load(el[i], "fill")
		}
		var params = get_params();
		delete params.s;
		history.replaceState(null, null, parse_params(params));
	}
	function search_prompt() {
		if (!searching) {
			var term = prompt("Enter a search term (regexp " +
			    "allowed, eg: ^ext4_)"
			    + (ignorecase ? ", ignoring case" : "")
			    + "\nPress Ctrl-i to toggle case sensitivity", "");
			if (term != null) search(term);
		} else {
			reset_search();
			searching = 0;
			currentSearchTerm = null;
			searchbtn.classList.remove("show");
			searchbtn.firstChild.nodeValue = "Search"
			matchedtxt.classList.add("hide");
			matchedtxt.firstChild.nodeValue = ""
		}
	}
	function search(term) {
		if (term) currentSearchTerm = term;

		var re = new RegExp(currentSearchTerm, ignorecase ? 'i' : '');
		var el = document.getElementById("frames").children;
		var matches = new Object();
		var maxwidth = 0;
		for (var i = 0; i < el.length; i++) {
			var e = el[i];
			var func = g_to_func(e);
			var rect = find_child(e, "rect");
			if (func == null || rect == null)
				continue;

			// Save max width. Only works as we have a root frame
			var w = parseFloat(rect.attributes.width.value);
			if (w > maxwidth)
				maxwidth = w;

			if (func.match(re)) {
				// highlight
				var x = parseFloat(rect.attributes.x.value);
				orig_save(rect, "fill");
				rect.attributes.fill.value = "rgb(230,0,230)";

				// remember matches
				if (matches[x] == undefined) {
					matches[x] = w;
				} else {
					if (w > matches[x]) {
						// overwrite with parent
						matches[x] = w;
					}
				}
				searching = 1;
			}
		}
		if (!searching)
			return;
		var params = get_params();
		params.s = currentSearchTerm;
		history.replaceState(null, null, parse_params(params));

		searchbtn.classList.add("show");
		searchbtn.firstChild.nodeValue = "Reset Search";

		// calculate percent matched, excluding vertical overlap
		var count = 0;
		var lastx = -1;
		var lastw = 0;
		var keys = Array();
		for (k in matches) {
			if (matches.hasOwnProperty(k))
				keys.push(k);
		}
		// sort the matched frames by their x location
		// ascending, then width descending
		keys.sort(function(a, b){
			return a - b;
		});
		// Step through frames saving only the biggest bottom-up frames
		// thanks to the sort order. This relies on the tree property
		// where children are always smaller than their parents.
		var fudge = 0.0001;	// JavaScript floating point
		for (var k in keys) {
			var x = parseFloat(keys[k]);
			var w = matches[keys[k]];
			if (x >= lastx + lastw - fudge) {
				count += w;
				lastx = x;
				lastw = w;
			}
		}
		// display matched percent
		matchedtxt.classList.remove("hide");
		var pct = 100 * count / maxwidth;
		if (pct != 100) pct = pct.toFixed(1)
		matchedtxt.firstChild.nodeValue = "Matched: " + pct + "%";
	}
]]>
</script>
<rect x="0.0" y="0" width="1200.0" height="331.0" fill="url(#background)"  />
<text id="title" x="600.00" y="26" >Firedrake example</text>
<text id="details" x="10.00" y="313" > </text>
<text id="unzoom" x="10.00" y="26" class="hide">Reset Zoom</text>
<text id="search" x="1090.00" y="26" >Search</text>
<text id="ignorecase" x="1174.00" y="26" >ic</text>
<text id="matched" x="1090.00" y="313" > </text>
<g id="frames">
<g >
<title>PCApply (9,077,794 us, 1.71%)</title><rect x="454.0" y="199" width="20.2" height="15.0" fill="rgb(0,0,0)" rx="2" ry="2" />
<text  x="456.97" y="209.5" ></text>
</g>
<g >
<title>Parloop_set_#x7febdeab89a0_wrap_expression_kernel (525,559 us, 0.10%)</title><rect x="18.4" y="135" width="1.2" height="15.0" fill="rgb(0,0,0)" rx="2" ry="2" />
<text  x="21.39" y="145.5" ></text>
</g>
<g >
<title>  Graph (8,288,643 us, 1.56%)</title><rect x="982.4" y="199" width="18.4" height="15.0" fill="rgb(0,0,0)" rx="2" ry="2" />
<text  x="985.40" y="209.5" ></text>
</g>
<g >
<title>firedrake.norms.errornorm (11,341,189 us, 2.14%)</title><rect x="220.8" y="71" width="25.2" height="15.0" fill="rgb(0,0,0)" rx="2" ry="2" />
<text  x="223.81" y="81.5" >f..</text>
</g>
<g >
<title>KSPSolve_FS_0 (18,322,278 us, 3.45%)</title><rect x="433.4" y="135" width="40.8" height="15.0" fill="rgb(0,0,0)" rx="2" ry="2" />
<text  x="436.41" y="145.5" >KSP..</text>
</g>
<g >
<title>KSPSolve (21,806,553 us, 4.11%)</title><rect x="794.0" y="215" width="48.5" height="15.0" fill="rgb(0,0,0)" rx="2" ry="2" />
<text  x="796.98" y="225.5" >KSPS..</text>
</g>
<g >
<title>pyop2.global_kernel.GlobalKernel.compile (5,352,537 us, 1.01%)</title><rect x="19.7" y="135" width="11.9" height="15.0" fill="rgb(0,0,0)" rx="2" ry="2" />
<text  x="22.73" y="145.5" ></text>
</g>
<g >
<title>PCApply (9,077,794 us, 1.71%)</title><rect x="454.0" y="167" width="20.2" height="15.0" fill="rgb(0,0,0)" rx="2" ry="2" />
<text  x="456.97" y="177.5" ></text>
</g>
<g >
<title>VecMDot (425,757 us, 0.08%)</title><rect x="400.3" y="135" width="0.9" height="15.0" fill="rgb(0,0,0)" rx="2" ry="2" />
<text  x="403.29" y="145.5" ></text>
</g>
<g >
<title>VecNorm (116,977 us, 0.02%)</title><rect x="732.6" y="231" width="0.3" height="15.0" fill="rgb(0,0,0)" rx="2" ry="2" />
<text  x="735.63" y="241.5" ></text>
</g>
<g >
<title>ParLoopExecute (10,201,732 us, 1.92%)</title><rect x="220.8" y="119" width="22.7" height="15.0" fill="rgb(0,0,0)" rx="2" ry="2" />
<text  x="223.81" y="129.5" ></text>
</g>
<g >
<title>Parloop_Cells_wrap_form1_cell_integral_otherwise (3,649,415 us, 0.69%)</title><rect x="1087.2" y="135" width="8.2" height="15.0" fill="rgb(0,0,0)" rx="2" ry="2" />
<text  x="1090.25" y="145.5" ></text>
</g>
<g >
<title>MatAssemblyEnd (218,919 us, 0.04%)</title><rect x="169.1" y="135" width="0.5" height="15.0" fill="rgb(0,0,0)" rx="2" ry="2" />
<text  x="172.10" y="145.5" ></text>
</g>
<g >
<title>PCGAMG Squ l00 (38,674,122 us, 7.29%)</title><rect x="896.4" y="199" width="86.0" height="15.0" fill="rgb(0,0,0)" rx="2" ry="2" />
<text  x="899.37" y="209.5" >PCGAMG Sq..</text>
</g>
<g >
<title>VecSet (64,102 us, 0.01%)</title><rect x="842.3" y="231" width="0.2" height="15.0" fill="rgb(0,0,0)" rx="2" ry="2" />
<text  x="845.34" y="241.5" ></text>
</g>
<g >
<title>MatMatMultNum (4,603,025 us, 0.87%)</title><rect x="1054.4" y="119" width="10.2" height="15.0" fill="rgb(0,0,0)" rx="2" ry="2" />
<text  x="1057.40" y="129.5" ></text>
</g>
<g >
<title>PCApply (9,084,810 us, 1.71%)</title><rect x="863.2" y="231" width="20.2" height="15.0" fill="rgb(0,0,0)" rx="2" ry="2" />
<text  x="866.23" y="241.5" ></text>
</g>
<g >
<title>CreateExtMesh (902,861 us, 0.17%)</title><rect x="12.2" y="71" width="2.0" height="15.0" fill="rgb(0,0,0)" rx="2" ry="2" />
<text  x="15.17" y="81.5" ></text>
</g>
<g >
<title>MatSolve (45,368,125 us, 8.55%)</title><rect x="631.3" y="279" width="101.0" height="15.0" fill="rgb(0,0,0)" rx="2" ry="2" />
<text  x="634.34" y="289.5" >MatSolve</text>
</g>
<g >
<title>MatAssemblyEnd (95,839 us, 0.02%)</title><rect x="982.2" y="231" width="0.2" height="15.0" fill="rgb(0,0,0)" rx="2" ry="2" />
<text  x="985.19" y="241.5" ></text>
</g>
<g >
<title>MatCholFctrNum (9,847,081 us, 1.86%)</title><rect x="197.4" y="151" width="21.9" height="15.0" fill="rgb(0,0,0)" rx="2" ry="2" />
<text  x="200.39" y="161.5" ></text>
</g>
<g >
<title>firedrake.assemble.assemble (916,620 us, 0.17%)</title><rect x="17.5" y="71" width="2.1" height="15.0" fill="rgb(0,0,0)" rx="2" ry="2" />
<text  x="20.52" y="81.5" ></text>
</g>
<g >
<title>ParLoopExecute (5,425,314 us, 1.02%)</title><rect x="19.6" y="103" width="12.0" height="15.0" fill="rgb(0,0,0)" rx="2" ry="2" />
<text  x="22.56" y="113.5" ></text>
</g>
<g >
<title>Parloop_Cells_wrap_pyop2_kernel_uniform_extrusion (902,861 us, 0.17%)</title><rect x="12.2" y="119" width="2.0" height="15.0" fill="rgb(0,0,0)" rx="2" ry="2" />
<text  x="15.17" y="129.5" ></text>
</g>
<g >
<title>MatZeroEntries (485,241 us, 0.09%)</title><rect x="1098.3" y="119" width="1.0" height="15.0" fill="rgb(0,0,0)" rx="2" ry="2" />
<text  x="1101.27" y="129.5" ></text>
</g>
<g >
<title>MatMatMultSym (301,789 us, 0.06%)</title><rect x="1001.8" y="231" width="0.7" height="15.0" fill="rgb(0,0,0)" rx="2" ry="2" />
<text  x="1004.81" y="241.5" ></text>
</g>
<g >
<title>PCGAMG Opt l00 (664,486 us, 0.13%)</title><rect x="1001.0" y="215" width="1.5" height="15.0" fill="rgb(0,0,0)" rx="2" ry="2" />
<text  x="1004.01" y="225.5" ></text>
</g>
<g >
<title>Log_Event_form0_cell_integral_otherwise (292,503 us, 0.06%)</title><rect x="1077.3" y="151" width="0.6" height="15.0" fill="rgb(0,0,0)" rx="2" ry="2" />
<text  x="1080.29" y="161.5" ></text>
</g>
<g >
<title>MatSolve (1,300,239 us, 0.25%)</title><rect x="194.5" y="183" width="2.9" height="15.0" fill="rgb(0,0,0)" rx="2" ry="2" />
<text  x="197.49" y="193.5" ></text>
</g>
<g >
<title>MatMult (1,546,325 us, 0.29%)</title><rect x="1021.0" y="215" width="3.5" height="15.0" fill="rgb(0,0,0)" rx="2" ry="2" />
<text  x="1024.04" y="225.5" ></text>
</g>
<g >
<title>GAMG: createProl (49,505,046 us, 9.33%)</title><rect x="895.6" y="167" width="110.1" height="15.0" fill="rgb(0,0,0)" rx="2" ry="2" />
<text  x="898.61" y="177.5" >GAMG: create..</text>
</g>
<g >
<title>MatILUFactorSym (957,390 us, 0.18%)</title><rect x="515.0" y="183" width="2.1" height="15.0" fill="rgb(0,0,0)" rx="2" ry="2" />
<text  x="517.98" y="193.5" ></text>
</g>
<g >
<title>MatMult (2,923,683 us, 0.55%)</title><rect x="1008.0" y="231" width="6.5" height="15.0" fill="rgb(0,0,0)" rx="2" ry="2" />
<text  x="1011.02" y="241.5" ></text>
</g>
<g >
<title>MatResidual (23,747,538 us, 4.48%)</title><rect x="842.8" y="183" width="52.8" height="15.0" fill="rgb(0,0,0)" rx="2" ry="2" />
<text  x="845.78" y="193.5" >MatR..</text>
</g>
<g >
<title>PCGAMG Gal l00 (1,030,639 us, 0.19%)</title><rect x="1005.7" y="183" width="2.3" height="15.0" fill="rgb(0,0,0)" rx="2" ry="2" />
<text  x="1008.73" y="193.5" ></text>
</g>
<g >
<title>KSPSolve (140,575,266 us, 26.50%)</title><rect x="530.1" y="183" width="312.7" height="15.0" fill="rgb(0,0,0)" rx="2" ry="2" />
<text  x="533.08" y="193.5" >KSPSolve</text>
</g>
<g >
<title>pyop2.global_kernel.GlobalKernel.compile (423,187 us, 0.08%)</title><rect x="18.6" y="151" width="1.0" height="15.0" fill="rgb(0,0,0)" rx="2" ry="2" />
<text  x="21.62" y="161.5" ></text>
</g>
<g >
<title>MatScale (239,789 us, 0.05%)</title><rect x="1000.3" y="215" width="0.5" height="15.0" fill="rgb(0,0,0)" rx="2" ry="2" />
<text  x="1003.30" y="225.5" ></text>
</g>
<g >
<title>SNESJacobianEval (41,239,147 us, 7.77%)</title><rect x="1098.3" y="103" width="91.7" height="15.0" fill="rgb(0,0,0)" rx="2" ry="2" />
<text  x="1101.27" y="113.5" >SNESJacob..</text>
</g>
<g >
<title>PCApply (164,398,759 us, 30.99%)</title><rect x="529.9" y="167" width="365.7" height="15.0" fill="rgb(0,0,0)" rx="2" ry="2" />
<text  x="532.91" y="177.5" >PCApply</text>
</g>
<g >
<title>ParLoopExecute (39,041,661 us, 7.36%)</title><rect x="1099.3" y="119" width="86.9" height="15.0" fill="rgb(0,0,0)" rx="2" ry="2" />
<text  x="1102.35" y="129.5" >ParLoopEx..</text>
</g>
<g >
<title>KSPSolve (91,332,473 us, 17.22%)</title><rect x="530.1" y="215" width="203.1" height="15.0" fill="rgb(0,0,0)" rx="2" ry="2" />
<text  x="533.08" y="225.5" >KSPSolve</text>
</g>
<g >
<title>PCApply (1,300,239 us, 0.25%)</title><rect x="194.5" y="167" width="2.9" height="15.0" fill="rgb(0,0,0)" rx="2" ry="2" />
<text  x="197.49" y="177.5" ></text>
</g>
<g >
<title>PCApply (272,153,270 us, 51.30%)</title><rect x="433.4" y="119" width="605.4" height="15.0" fill="rgb(0,0,0)" rx="2" ry="2" />
<text  x="436.41" y="129.5" >PCApply</text>
</g>
<g >
<title>MatICCFactorSym (227,648 us, 0.04%)</title><rect x="219.3" y="151" width="0.5" height="15.0" fill="rgb(0,0,0)" rx="2" ry="2" />
<text  x="222.29" y="161.5" ></text>
</g>
<g >
<title>Log_Event_form_cell_integral_otherwise (79,310 us, 0.01%)</title><rect x="220.8" y="151" width="0.2" height="15.0" fill="rgb(0,0,0)" rx="2" ry="2" />
<text  x="223.81" y="161.5" ></text>
</g>
<g >
<title>MatZeroInitial (14,407,974 us, 2.72%)</title><rect x="367.1" y="103" width="32.1" height="15.0" fill="rgb(0,0,0)" rx="2" ry="2" />
<text  x="370.12" y="113.5" >Ma..</text>
</g>
<g >
<title>MatPtAPSymbolic (261,383 us, 0.05%)</title><rect x="1007.4" y="199" width="0.6" height="15.0" fill="rgb(0,0,0)" rx="2" ry="2" />
<text  x="1010.44" y="209.5" ></text>
</g>
<g >
<title>MatAssemblyEnd (95,748 us, 0.02%)</title><rect x="999.0" y="215" width="0.2" height="15.0" fill="rgb(0,0,0)" rx="2" ry="2" />
<text  x="1002.02" y="225.5" ></text>
</g>
<g >
<title>MatMult (1,389,458 us, 0.26%)</title><rect x="1002.5" y="215" width="3.1" height="15.0" fill="rgb(0,0,0)" rx="2" ry="2" />
<text  x="1005.49" y="225.5" ></text>
</g>
<g >
<title>KSPSolve (1,300,239 us, 0.25%)</title><rect x="194.5" y="151" width="2.9" height="15.0" fill="rgb(0,0,0)" rx="2" ry="2" />
<text  x="197.49" y="161.5" ></text>
</g>
<g >
<title>firedrake.variational_solver.NonlinearVariationalSolver.solve (355,519,029 us, 67.02%)</title><rect x="399.2" y="71" width="790.8" height="15.0" fill="rgb(0,0,0)" rx="2" ry="2" />
<text  x="402.17" y="81.5" >firedrake.variational_solver.NonlinearVariationalSolver.solve</text>
</g>
<g >
<title>Parloop_Cells_wrap_form00_cell_integral_otherwise (24,881,734 us, 4.69%)</title><rect x="31.6" y="135" width="55.4" height="15.0" fill="rgb(0,0,0)" rx="2" ry="2" />
<text  x="34.63" y="145.5" >Parlo..</text>
</g>
<g >
<title>MatTrnMatMultSym (38,674,122 us, 7.29%)</title><rect x="896.4" y="215" width="86.0" height="15.0" fill="rgb(0,0,0)" rx="2" ry="2" />
<text  x="899.37" y="225.5" >MatTrnMat..</text>
</g>
<g >
<title>PCApply (1,300,239 us, 0.25%)</title><rect x="194.5" y="135" width="2.9" height="15.0" fill="rgb(0,0,0)" rx="2" ry="2" />
<text  x="197.49" y="145.5" ></text>
</g>
<g >
<title>firedrake.variational_solver.NonlinearVariationalSolver.__init__ (68,837,343 us, 12.98%)</title><rect x="246.0" y="71" width="153.2" height="15.0" fill="rgb(0,0,0)" rx="2" ry="2" />
<text  x="249.04" y="81.5" >firedrake.variati..</text>
</g>
<g >
<title>MatCreateSubMats (3,972,651 us, 0.75%)</title><rect x="1045.6" y="119" width="8.8" height="15.0" fill="rgb(0,0,0)" rx="2" ry="2" />
<text  x="1048.56" y="129.5" ></text>
</g>
<g >
<title>MatSolve (9,078,682 us, 1.71%)</title><rect x="494.8" y="215" width="20.2" height="15.0" fill="rgb(0,0,0)" rx="2" ry="2" />
<text  x="497.79" y="225.5" ></text>
</g>
<g >
<title>PCApply (9,084,810 us, 1.71%)</title><rect x="863.2" y="263" width="20.2" height="15.0" fill="rgb(0,0,0)" rx="2" ry="2" />
<text  x="866.23" y="273.5" ></text>
</g>
<g >
<title>MatMatMultSym (5,529,129 us, 1.04%)</title><rect x="1064.6" y="119" width="12.3" height="15.0" fill="rgb(0,0,0)" rx="2" ry="2" />
<text  x="1067.63" y="129.5" ></text>
</g>
<g >
<title>MatAssemblyEnd (98,283 us, 0.02%)</title><rect x="1064.4" y="135" width="0.2" height="15.0" fill="rgb(0,0,0)" rx="2" ry="2" />
<text  x="1067.42" y="145.5" ></text>
</g>
<g >
<title>firedrake.tsfc_interface.compile_form (1,139,457 us, 0.21%)</title><rect x="243.5" y="119" width="2.5" height="15.0" fill="rgb(0,0,0)" rx="2" ry="2" />
<text  x="246.51" y="129.5" ></text>
</g>
<g >
<title>PCGAMGPOpt_AGG (2,198,736 us, 0.41%)</title><rect x="1000.8" y="183" width="4.9" height="15.0" fill="rgb(0,0,0)" rx="2" ry="2" />
<text  x="1003.84" y="193.5" ></text>
</g>
<g >
<title>PCApply (1,304,994 us, 0.25%)</title><rect x="1025.0" y="199" width="2.9" height="15.0" fill="rgb(0,0,0)" rx="2" ry="2" />
<text  x="1027.97" y="209.5" ></text>
</g>
<g >
<title>MatMult (14,461,025 us, 2.73%)</title><rect x="401.2" y="119" width="32.2" height="15.0" fill="rgb(0,0,0)" rx="2" ry="2" />
<text  x="404.24" y="129.5" >Ma..</text>
</g>
<g >
<title>MatPtAPNumeric (769,256 us, 0.15%)</title><rect x="1005.7" y="199" width="1.7" height="15.0" fill="rgb(0,0,0)" rx="2" ry="2" />
<text  x="1008.73" y="209.5" ></text>
</g>
<g >
<title>VecAYPX (166,061 us, 0.03%)</title><rect x="732.3" y="231" width="0.3" height="15.0" fill="rgb(0,0,0)" rx="2" ry="2" />
<text  x="735.26" y="241.5" ></text>
</g>
<g >
<title>firedrake.tsfc_interface.compile_form (603,085 us, 0.11%)</title><rect x="191.1" y="119" width="1.3" height="15.0" fill="rgb(0,0,0)" rx="2" ry="2" />
<text  x="194.08" y="129.5" ></text>
</g>
<g >
<title>CreateSparsity (54,101,523 us, 10.20%)</title><rect x="246.0" y="103" width="120.4" height="15.0" fill="rgb(0,0,0)" rx="2" ry="2" />
<text  x="249.04" y="113.5" >CreateSparsity</text>
</g>
<g >
<title>MatMult (930,551 us, 0.18%)</title><rect x="192.4" y="135" width="2.1" height="15.0" fill="rgb(0,0,0)" rx="2" ry="2" />
<text  x="195.42" y="145.5" ></text>
</g>
<g >
<title>MatMult (45,331,484 us, 8.55%)</title><rect x="530.5" y="231" width="100.8" height="15.0" fill="rgb(0,0,0)" rx="2" ry="2" />
<text  x="533.50" y="241.5" >MatMult</text>
</g>
<g >
<title>KSPSetUp (8,925,341 us, 1.68%)</title><rect x="1008.0" y="167" width="19.9" height="15.0" fill="rgb(0,0,0)" rx="2" ry="2" />
<text  x="1011.02" y="177.5" ></text>
</g>
<g >
<title>Log_Event_form00_cell_integral_otherwise (1,762,909 us, 0.33%)</title><rect x="38.8" y="151" width="3.9" height="15.0" fill="rgb(0,0,0)" rx="2" ry="2" />
<text  x="41.75" y="161.5" ></text>
</g>
<g >
<title>Parloop_Cells_wrap_form10_cell_integral_otherwise (9,773,641 us, 1.84%)</title><rect x="1164.5" y="135" width="21.7" height="15.0" fill="rgb(0,0,0)" rx="2" ry="2" />
<text  x="1167.45" y="145.5" ></text>
</g>
<g >
<title>PCApply (9,078,682 us, 1.71%)</title><rect x="494.8" y="199" width="20.2" height="15.0" fill="rgb(0,0,0)" rx="2" ry="2" />
<text  x="497.79" y="209.5" ></text>
</g>
<g >
<title>firedrake.assemble.allocate_matrix (68,837,343 us, 12.98%)</title><rect x="246.0" y="87" width="153.2" height="15.0" fill="rgb(0,0,0)" rx="2" ry="2" />
<text  x="249.04" y="97.5" >firedrake.assembl..</text>
</g>
<g >
<title>VecScatterBegin (92,120 us, 0.02%)</title><rect x="1038.6" y="135" width="0.2" height="15.0" fill="rgb(0,0,0)" rx="2" ry="2" />
<text  x="1041.59" y="145.5" ></text>
</g>
<g >
<title>KSPSolve_FS_Schu (223,859,785 us, 42.20%)</title><rect x="529.9" y="135" width="498.0" height="15.0" fill="rgb(0,0,0)" rx="2" ry="2" />
<text  x="532.91" y="145.5" >KSPSolve_FS_Schu</text>
</g>
<g >
<title>MatCoarsen (161,831 us, 0.03%)</title><rect x="896.0" y="215" width="0.4" height="15.0" fill="rgb(0,0,0)" rx="2" ry="2" />
<text  x="899.01" y="225.5" ></text>
</g>
<g >
<title>PCApply (68,361 us, 0.01%)</title><rect x="1005.6" y="215" width="0.1" height="15.0" fill="rgb(0,0,0)" rx="2" ry="2" />
<text  x="1008.58" y="225.5" ></text>
</g>
<g >
<title>firedrake.tsfc_interface.compile_form (1,712,245 us, 0.32%)</title><rect x="1186.2" y="119" width="3.8" height="15.0" fill="rgb(0,0,0)" rx="2" ry="2" />
<text  x="1189.19" y="129.5" ></text>
</g>
<g >
<title>KSPSolve (2,929,641 us, 0.55%)</title><rect x="1014.5" y="247" width="6.5" height="15.0" fill="rgb(0,0,0)" rx="2" ry="2" />
<text  x="1017.52" y="257.5" ></text>
</g>
<g >
<title>MatLUFactorNum (5,753,765 us, 1.08%)</title><rect x="517.1" y="183" width="12.8" height="15.0" fill="rgb(0,0,0)" rx="2" ry="2" />
<text  x="520.11" y="193.5" ></text>
</g>
<g >
<title>pyop2.global_kernel.GlobalKernel.compile (4,185,434 us, 0.79%)</title><rect x="1077.9" y="151" width="9.3" height="15.0" fill="rgb(0,0,0)" rx="2" ry="2" />
<text  x="1080.94" y="161.5" ></text>
</g>
<g >
<title>KSPSolve (5,853,324 us, 1.10%)</title><rect x="1008.0" y="215" width="13.0" height="15.0" fill="rgb(0,0,0)" rx="2" ry="2" />
<text  x="1011.02" y="225.5" ></text>
</g>
<g >
<title>MatSolve (9,084,810 us, 1.71%)</title><rect x="863.2" y="279" width="20.2" height="15.0" fill="rgb(0,0,0)" rx="2" ry="2" />
<text  x="866.23" y="289.5" ></text>
</g>
<g >
<title>VecMAXPY (361,291 us, 0.07%)</title><rect x="399.5" y="135" width="0.8" height="15.0" fill="rgb(0,0,0)" rx="2" ry="2" />
<text  x="402.49" y="145.5" ></text>
</g>
<g >
<title>firedrake (530,468,579 us, 100.00%)</title><rect x="10.0" y="55" width="1180.0" height="15.0" fill="rgb(0,0,0)" rx="2" ry="2" />
<text  x="13.00" y="65.5" >firedrake</text>
</g>
<g >
<title>VecSet (158,545 us, 0.03%)</title><rect x="732.9" y="231" width="0.3" height="15.0" fill="rgb(0,0,0)" rx="2" ry="2" />
<text  x="735.89" y="241.5" ></text>
</g>
<g >
<title>MatAXPY (2,557,750 us, 0.48%)</title><rect x="1039.3" y="119" width="5.6" height="15.0" fill="rgb(0,0,0)" rx="2" ry="2" />
<text  x="1042.25" y="129.5" ></text>
</g>
<g >
<title>PCApply (21,806,553 us, 4.11%)</title><rect x="794.0" y="199" width="48.5" height="15.0" fill="rgb(0,0,0)" rx="2" ry="2" />
<text  x="796.98" y="209.5" >PCAp..</text>
</g>
<g >
<title>PCGAMGGraph_AGG (8,288,643 us, 1.56%)</title><rect x="982.4" y="183" width="18.4" height="15.0" fill="rgb(0,0,0)" rx="2" ry="2" />
<text  x="985.40" y="193.5" ></text>
</g>
<g >
<title>firedrake.assemble.allocate_matrix (46,799,566 us, 8.82%)</title><rect x="87.0" y="119" width="104.1" height="15.0" fill="rgb(0,0,0)" rx="2" ry="2" />
<text  x="89.98" y="129.5" >firedrake.a..</text>
</g>
<g >
<title>Parloop_Cells_wrap_form0_cell_integral_otherwise (5,425,314 us, 1.02%)</title><rect x="19.6" y="119" width="12.0" height="15.0" fill="rgb(0,0,0)" rx="2" ry="2" />
<text  x="22.56" y="129.5" ></text>
</g>
<g >
<title>KSPSolve (9,084,810 us, 1.71%)</title><rect x="863.2" y="247" width="20.2" height="15.0" fill="rgb(0,0,0)" rx="2" ry="2" />
<text  x="866.23" y="257.5" ></text>
</g>
<g >
<title>VecAYPX (75,202 us, 0.01%)</title><rect x="842.6" y="199" width="0.2" height="15.0" fill="rgb(0,0,0)" rx="2" ry="2" />
<text  x="845.61" y="209.5" ></text>
</g>
<g >
<title>firedrake.linear_solver.LinearSolver.solve (12,305,519 us, 2.32%)</title><rect x="192.4" y="103" width="27.4" height="15.0" fill="rgb(0,0,0)" rx="2" ry="2" />
<text  x="195.42" y="113.5" >f..</text>
</g>
<g >
<title>PCSetUpOnBlocks (6,711,155 us, 1.27%)</title><rect x="515.0" y="151" width="14.9" height="15.0" fill="rgb(0,0,0)" rx="2" ry="2" />
<text  x="517.98" y="161.5" ></text>
</g>
<g >
<title>Log_Event_form00_cell_integral_otherwise (1,309,084 us, 0.25%)</title><rect x="1106.9" y="151" width="2.9" height="15.0" fill="rgb(0,0,0)" rx="2" ry="2" />
<text  x="1109.86" y="161.5" ></text>
</g>
<g >
<title>GAMG: partLevel (1,030,639 us, 0.19%)</title><rect x="1005.7" y="167" width="2.3" height="15.0" fill="rgb(0,0,0)" rx="2" ry="2" />
<text  x="1008.73" y="177.5" ></text>
</g>
<g >
<title>KSPSolve (18,277,788 us, 3.45%)</title><rect x="842.8" y="215" width="40.6" height="15.0" fill="rgb(0,0,0)" rx="2" ry="2" />
<text  x="845.78" y="225.5" >KSP..</text>
</g>
<g >
<title>MatSolve (2,929,641 us, 0.55%)</title><rect x="1014.5" y="279" width="6.5" height="15.0" fill="rgb(0,0,0)" rx="2" ry="2" />
<text  x="1017.52" y="289.5" ></text>
</g>
<g >
<title>pyop2.global_kernel.GlobalKernel.compile (10,122,422 us, 1.91%)</title><rect x="221.0" y="151" width="22.5" height="15.0" fill="rgb(0,0,0)" rx="2" ry="2" />
<text  x="223.99" y="161.5" ></text>
</g>
<g >
<title>KSPSolve (287,545,624 us, 54.21%)</title><rect x="399.2" y="103" width="639.6" height="15.0" fill="rgb(0,0,0)" rx="2" ry="2" />
<text  x="402.17" y="113.5" >KSPSolve</text>
</g>
<g >
<title>MatMultAdd (220,698 us, 0.04%)</title><rect x="1024.5" y="215" width="0.5" height="15.0" fill="rgb(0,0,0)" rx="2" ry="2" />
<text  x="1027.48" y="225.5" ></text>
</g>
<g >
<title>ParLoopExecute (916,620 us, 0.17%)</title><rect x="17.5" y="119" width="2.1" height="15.0" fill="rgb(0,0,0)" rx="2" ry="2" />
<text  x="20.52" y="129.5" ></text>
</g>
<g >
<title>PCGAMGCoarse_AGG (39,017,667 us, 7.36%)</title><rect x="895.6" y="183" width="86.8" height="15.0" fill="rgb(0,0,0)" rx="2" ry="2" />
<text  x="898.61" y="193.5" >PCGAMGCoa..</text>
</g>
<g >
<title>Log_Event_form1_cell_integral_otherwise (77,372 us, 0.01%)</title><rect x="1087.2" y="151" width="0.2" height="15.0" fill="rgb(0,0,0)" rx="2" ry="2" />
<text  x="1090.25" y="161.5" ></text>
</g>
<g >
<title>Log_Event_form0_cell_integral_otherwise (72,777 us, 0.01%)</title><rect x="19.6" y="135" width="0.1" height="15.0" fill="rgb(0,0,0)" rx="2" ry="2" />
<text  x="22.56" y="145.5" ></text>
</g>
<g >
<title>MatMult (9,066,589 us, 1.71%)</title><rect x="843.1" y="231" width="20.1" height="15.0" fill="rgb(0,0,0)" rx="2" ry="2" />
<text  x="846.06" y="241.5" ></text>
</g>
<g >
<title>MatMult (118,636,060 us, 22.36%)</title><rect x="530.1" y="199" width="263.9" height="15.0" fill="rgb(0,0,0)" rx="2" ry="2" />
<text  x="533.08" y="209.5" >MatMult</text>
</g>
<g >
<title>MatMult (7,620,347 us, 1.44%)</title><rect x="1008.0" y="199" width="17.0" height="15.0" fill="rgb(0,0,0)" rx="2" ry="2" />
<text  x="1011.02" y="209.5" ></text>
</g>
<g >
<title>MatMult (4,817,737 us, 0.91%)</title><rect x="1027.9" y="135" width="10.7" height="15.0" fill="rgb(0,0,0)" rx="2" ry="2" />
<text  x="1030.87" y="145.5" ></text>
</g>
<g >
<title>PCApply (2,929,641 us, 0.55%)</title><rect x="1014.5" y="231" width="6.5" height="15.0" fill="rgb(0,0,0)" rx="2" ry="2" />
<text  x="1017.52" y="241.5" ></text>
</g>
<g >
<title>Parloop_Cells_wrap_form00_cell_integral_otherwise (19,466,303 us, 3.67%)</title><rect x="1099.3" y="135" width="43.3" height="15.0" fill="rgb(0,0,0)" rx="2" ry="2" />
<text  x="1102.35" y="145.5" >Par..</text>
</g>
<g >
<title>MatSOR (1,304,994 us, 0.25%)</title><rect x="1025.0" y="247" width="2.9" height="15.0" fill="rgb(0,0,0)" rx="2" ry="2" />
<text  x="1027.97" y="257.5" ></text>
</g>
<g >
<title>firedrake.assemble.assemble (11,341,189 us, 2.14%)</title><rect x="220.8" y="103" width="25.2" height="15.0" fill="rgb(0,0,0)" rx="2" ry="2" />
<text  x="223.81" y="113.5" >f..</text>
</g>
<g >
<title>firedrake.extrusion_utils.make_extruded_coords (902,861 us, 0.17%)</title><rect x="12.2" y="87" width="2.0" height="15.0" fill="rgb(0,0,0)" rx="2" ry="2" />
<text  x="15.17" y="97.5" ></text>
</g>
<g >
<title>KSPSolve (9,077,794 us, 1.71%)</title><rect x="454.0" y="183" width="20.2" height="15.0" fill="rgb(0,0,0)" rx="2" ry="2" />
<text  x="456.97" y="193.5" ></text>
</g>
<g >
<title>Log_Event_form01_cell_integral_otherwise (775,761 us, 0.15%)</title><rect x="1146.4" y="151" width="1.8" height="15.0" fill="rgb(0,0,0)" rx="2" ry="2" />
<text  x="1149.43" y="161.5" ></text>
</g>
<g >
<title>SNESFunctionEval (9,430,279 us, 1.78%)</title><rect x="1077.3" y="103" width="21.0" height="15.0" fill="rgb(0,0,0)" rx="2" ry="2" />
<text  x="1080.29" y="113.5" ></text>
</g>
<g >
<title>Parloop_Cells_wrap_form0_cell_integral_otherwise (4,477,937 us, 0.84%)</title><rect x="1077.3" y="135" width="9.9" height="15.0" fill="rgb(0,0,0)" rx="2" ry="2" />
<text  x="1080.29" y="145.5" ></text>
</g>
<g >
<title>PCSetUp (17,303,979 us, 3.26%)</title><rect x="1038.8" y="103" width="38.5" height="15.0" fill="rgb(0,0,0)" rx="2" ry="2" />
<text  x="1041.80" y="113.5" >PCS..</text>
</g>
<g >
<title>ParLoopExecute (24,881,734 us, 4.69%)</title><rect x="31.6" y="119" width="55.4" height="15.0" fill="rgb(0,0,0)" rx="2" ry="2" />
<text  x="34.63" y="129.5" >ParLo..</text>
</g>
<g >
<title>pyop2.global_kernel.GlobalKernel.compile (19,918,841 us, 3.75%)</title><rect x="42.7" y="151" width="44.3" height="15.0" fill="rgb(0,0,0)" rx="2" ry="2" />
<text  x="45.67" y="161.5" >pyo..</text>
</g>
<g >
<title>PCApply (45,368,125 us, 8.55%)</title><rect x="631.3" y="231" width="101.0" height="15.0" fill="rgb(0,0,0)" rx="2" ry="2" />
<text  x="634.34" y="241.5" >PCApply</text>
</g>
<g >
<title>KSPSolve (164,398,759 us, 30.99%)</title><rect x="529.9" y="151" width="365.7" height="15.0" fill="rgb(0,0,0)" rx="2" ry="2" />
<text  x="532.91" y="161.5" >KSPSolve</text>
</g>
<g >
<title>firedrake.tsfc_interface.compile_form (1,302,927 us, 0.25%)</title><rect x="1095.4" y="119" width="2.9" height="15.0" fill="rgb(0,0,0)" rx="2" ry="2" />
<text  x="1098.37" y="129.5" ></text>
</g>
<g >
<title>KSPSolve (18,322,278 us, 3.45%)</title><rect x="433.4" y="151" width="40.8" height="15.0" fill="rgb(0,0,0)" rx="2" ry="2" />
<text  x="436.41" y="161.5" >KSP..</text>
</g>
<g >
<title>  MIS/Agg (161,831 us, 0.03%)</title><rect x="896.0" y="199" width="0.4" height="15.0" fill="rgb(0,0,0)" rx="2" ry="2" />
<text  x="899.01" y="209.5" ></text>
</g>
<g >
<title>all (530,468,579 us, 100%)</title><rect x="10.0" y="39" width="1180.0" height="15.0" fill="rgb(0,0,0)" rx="2" ry="2" />
<text  x="13.00" y="49.5" ></text>
</g>
<g >
<title>ParLoopExecute (8,127,352 us, 1.53%)</title><rect x="1077.3" y="119" width="18.1" height="15.0" fill="rgb(0,0,0)" rx="2" ry="2" />
<text  x="1080.29" y="129.5" ></text>
</g>
<g >
<title>PCSetUp (6,711,155 us, 1.27%)</title><rect x="515.0" y="167" width="14.9" height="15.0" fill="rgb(0,0,0)" rx="2" ry="2" />
<text  x="517.98" y="177.5" ></text>
</g>
<g >
<title>MatScale (159,330 us, 0.03%)</title><rect x="1076.9" y="119" width="0.4" height="15.0" fill="rgb(0,0,0)" rx="2" ry="2" />
<text  x="1079.93" y="129.5" ></text>
</g>
<g >
<title>CreateSparsity (36,915,012 us, 6.96%)</title><rect x="87.0" y="135" width="82.1" height="15.0" fill="rgb(0,0,0)" rx="2" ry="2" />
<text  x="89.98" y="145.5" >CreateSp..</text>
</g>
<g >
<title>Parloop_Cells_wrap_form_cell_integral_otherwise (10,201,732 us, 1.92%)</title><rect x="220.8" y="135" width="22.7" height="15.0" fill="rgb(0,0,0)" rx="2" ry="2" />
<text  x="223.81" y="145.5" ></text>
</g>
<g >
<title>pyop2.global_kernel.GlobalKernel.compile (902,861 us, 0.17%)</title><rect x="12.2" y="135" width="2.0" height="15.0" fill="rgb(0,0,0)" rx="2" ry="2" />
<text  x="15.17" y="145.5" ></text>
</g>
<g >
<title>PCApply (21,742,451 us, 4.10%)</title><rect x="794.0" y="231" width="48.3" height="15.0" fill="rgb(0,0,0)" rx="2" ry="2" />
<text  x="796.98" y="241.5" >PCAp..</text>
</g>
<g >
<title>KSPSolve (9,078,682 us, 1.71%)</title><rect x="494.8" y="183" width="20.2" height="15.0" fill="rgb(0,0,0)" rx="2" ry="2" />
<text  x="497.79" y="193.5" ></text>
</g>
<g >
<title>PCApply (1,304,994 us, 0.25%)</title><rect x="1025.0" y="231" width="2.9" height="15.0" fill="rgb(0,0,0)" rx="2" ry="2" />
<text  x="1027.97" y="241.5" ></text>
</g>
<g >
<title>PCApply (9,078,682 us, 1.71%)</title><rect x="494.8" y="167" width="20.2" height="15.0" fill="rgb(0,0,0)" rx="2" ry="2" />
<text  x="497.79" y="177.5" ></text>
</g>
<g >
<title>ParLoopExecute (902,861 us, 0.17%)</title><rect x="12.2" y="103" width="2.0" height="15.0" fill="rgb(0,0,0)" rx="2" ry="2" />
<text  x="15.17" y="113.5" ></text>
</g>
<g >
<title>Parloop_set_#x7febdea40d00_wrap_expression_kernel (391,061 us, 0.07%)</title><rect x="17.5" y="135" width="0.9" height="15.0" fill="rgb(0,0,0)" rx="2" ry="2" />
<text  x="20.52" y="145.5" ></text>
</g>
<g >
<title>KSPSolve (2,230,790 us, 0.42%)</title><rect x="192.4" y="119" width="5.0" height="15.0" fill="rgb(0,0,0)" rx="2" ry="2" />
<text  x="195.42" y="129.5" ></text>
</g>
<g >
<title>firedrake.__init__ (1,505,134 us, 0.28%)</title><rect x="14.2" y="71" width="3.3" height="15.0" fill="rgb(0,0,0)" rx="2" ry="2" />
<text  x="17.18" y="81.5" ></text>
</g>
<g >
<title>KSPSolve (1,457,819 us, 0.27%)</title><rect x="1002.5" y="199" width="3.2" height="15.0" fill="rgb(0,0,0)" rx="2" ry="2" />
<text  x="1005.49" y="209.5" ></text>
</g>
<g >
<title>pyop2.global_kernel.GlobalKernel.compile (391,061 us, 0.07%)</title><rect x="17.5" y="151" width="0.9" height="15.0" fill="rgb(0,0,0)" rx="2" ry="2" />
<text  x="20.52" y="161.5" ></text>
</g>
<g >
<title>MatMult (9,142,133 us, 1.72%)</title><rect x="433.6" y="167" width="20.4" height="15.0" fill="rgb(0,0,0)" rx="2" ry="2" />
<text  x="436.63" y="177.5" ></text>
</g>
<g >
<title>VecAXPBYCZ (57,451 us, 0.01%)</title><rect x="842.5" y="199" width="0.1" height="15.0" fill="rgb(0,0,0)" rx="2" ry="2" />
<text  x="845.49" y="209.5" ></text>
</g>
<g >
<title>firedrake.assemble_expressions.evaluate_expression (916,620 us, 0.17%)</title><rect x="17.5" y="103" width="2.1" height="15.0" fill="rgb(0,0,0)" rx="2" ry="2" />
<text  x="20.52" y="113.5" ></text>
</g>
<g >
<title>MatSolve (9,077,794 us, 1.71%)</title><rect x="454.0" y="215" width="20.2" height="15.0" fill="rgb(0,0,0)" rx="2" ry="2" />
<text  x="456.97" y="225.5" ></text>
</g>
<g >
<title>MatMult (9,139,098 us, 1.72%)</title><rect x="474.5" y="167" width="20.3" height="15.0" fill="rgb(0,0,0)" rx="2" ry="2" />
<text  x="477.46" y="177.5" ></text>
</g>
<g >
<title>KSPSolve (18,350,195 us, 3.46%)</title><rect x="474.2" y="151" width="40.8" height="15.0" fill="rgb(0,0,0)" rx="2" ry="2" />
<text  x="477.16" y="161.5" >KSP..</text>
</g>
<g >
<title>SNESSolve (355,519,029 us, 67.02%)</title><rect x="399.2" y="87" width="790.8" height="15.0" fill="rgb(0,0,0)" rx="2" ry="2" />
<text  x="402.17" y="97.5" >SNESSolve</text>
</g>
<g >
<title>KSPSolve (1,304,994 us, 0.25%)</title><rect x="1025.0" y="215" width="2.9" height="15.0" fill="rgb(0,0,0)" rx="2" ry="2" />
<text  x="1027.97" y="225.5" ></text>
</g>
<g >
<title>firedrake.norms.norm (11,341,189 us, 2.14%)</title><rect x="220.8" y="87" width="25.2" height="15.0" fill="rgb(0,0,0)" rx="2" ry="2" />
<text  x="223.81" y="97.5" >f..</text>
</g>
<g >
<title>MatConvert (277,219 us, 0.05%)</title><rect x="1044.9" y="119" width="0.7" height="15.0" fill="rgb(0,0,0)" rx="2" ry="2" />
<text  x="1047.94" y="129.5" ></text>
</g>
<g >
<title>KSPSolve_FS_Low (25,061,350 us, 4.72%)</title><rect x="474.2" y="135" width="55.7" height="15.0" fill="rgb(0,0,0)" rx="2" ry="2" />
<text  x="477.16" y="145.5" >KSPSo..</text>
</g>
<g >
<title>MatAssemblyEnd (341,739 us, 0.06%)</title><rect x="1053.6" y="135" width="0.8" height="15.0" fill="rgb(0,0,0)" rx="2" ry="2" />
<text  x="1056.64" y="145.5" ></text>
</g>
<g >
<title>MatMatMultNum (362,697 us, 0.07%)</title><rect x="1001.0" y="231" width="0.8" height="15.0" fill="rgb(0,0,0)" rx="2" ry="2" />
<text  x="1004.01" y="241.5" ></text>
</g>
<g >
<title>MatAssemblyEnd (327,846 us, 0.06%)</title><rect x="366.4" y="103" width="0.7" height="15.0" fill="rgb(0,0,0)" rx="2" ry="2" />
<text  x="369.39" y="113.5" ></text>
</g>
<g >
<title>firedrake.function.Function.project (90,471,632 us, 17.06%)</title><rect x="19.6" y="71" width="201.2" height="15.0" fill="rgb(0,0,0)" rx="2" ry="2" />
<text  x="22.56" y="81.5" >firedrake.function.Funct..</text>
</g>
<g >
<title>PCApply (2,929,641 us, 0.55%)</title><rect x="1014.5" y="263" width="6.5" height="15.0" fill="rgb(0,0,0)" rx="2" ry="2" />
<text  x="1017.52" y="273.5" ></text>
</g>
<g >
<title>pyop2.global_kernel.GlobalKernel.compile (7,324,111 us, 1.38%)</title><rect x="1148.2" y="151" width="16.3" height="15.0" fill="rgb(0,0,0)" rx="2" ry="2" />
<text  x="1151.16" y="161.5" ></text>
</g>
<g >
<title>MatSOR (21,742,451 us, 4.10%)</title><rect x="794.0" y="247" width="48.3" height="15.0" fill="rgb(0,0,0)" rx="2" ry="2" />
<text  x="796.98" y="257.5" >MatSOR</text>
</g>
<g >
<title>KSPSolve (45,368,125 us, 8.55%)</title><rect x="631.3" y="247" width="101.0" height="15.0" fill="rgb(0,0,0)" rx="2" ry="2" />
<text  x="634.34" y="257.5" >KSPSolve</text>
</g>
<g >
<title>firedrake.assemble.assemble (72,284,385 us, 13.63%)</title><rect x="31.6" y="103" width="160.8" height="15.0" fill="rgb(0,0,0)" rx="2" ry="2" />
<text  x="34.63" y="113.5" >firedrake.assemble..</text>
</g>
<g >
<title>  SA: smooth (740,917 us, 0.14%)</title><rect x="1000.8" y="199" width="1.7" height="15.0" fill="rgb(0,0,0)" rx="2" ry="2" />
<text  x="1003.84" y="209.5" ></text>
</g>
<g >
<title>MatMult (4,795,334 us, 0.90%)</title><rect x="883.4" y="215" width="10.7" height="15.0" fill="rgb(0,0,0)" rx="2" ry="2" />
<text  x="886.44" y="225.5" ></text>
</g>
<g >
<title>firedrake.assemble_expressions.assemble_expression (916,620 us, 0.17%)</title><rect x="17.5" y="87" width="2.1" height="15.0" fill="rgb(0,0,0)" rx="2" ry="2" />
<text  x="20.52" y="97.5" ></text>
</g>
<g >
<title>pyop2.global_kernel.GlobalKernel.compile (14,780,120 us, 2.79%)</title><rect x="1109.8" y="151" width="32.8" height="15.0" fill="rgb(0,0,0)" rx="2" ry="2" />
<text  x="1112.77" y="161.5" >py..</text>
</g>
<g >
<title>firedrake.projection.project (90,471,632 us, 17.06%)</title><rect x="19.6" y="87" width="201.2" height="15.0" fill="rgb(0,0,0)" rx="2" ry="2" />
<text  x="22.56" y="97.5" >firedrake.projection.pro..</text>
</g>
<g >
<title>KSPGMRESOrthog (787,048 us, 0.15%)</title><rect x="399.5" y="119" width="1.7" height="15.0" fill="rgb(0,0,0)" rx="2" ry="2" />
<text  x="402.49" y="129.5" ></text>
</g>
<g >
<title>MatAssemblyEnd (98,709 us, 0.02%)</title><rect x="1044.7" y="135" width="0.2" height="15.0" fill="rgb(0,0,0)" rx="2" ry="2" />
<text  x="1047.72" y="145.5" ></text>
</g>
<g >
<title>MatMult (23,921,585 us, 4.51%)</title><rect x="733.2" y="215" width="53.3" height="15.0" fill="rgb(0,0,0)" rx="2" ry="2" />
<text  x="736.24" y="225.5" >MatM..</text>
</g>
<g >
<title>PCApply (45,368,125 us, 8.55%)</title><rect x="631.3" y="263" width="101.0" height="15.0" fill="rgb(0,0,0)" rx="2" ry="2" />
<text  x="634.34" y="273.5" >PCApply</text>
</g>
<g >
<title>MatMultAdd (3,382,002 us, 0.64%)</title><rect x="786.5" y="215" width="7.5" height="15.0" fill="rgb(0,0,0)" rx="2" ry="2" />
<text  x="789.46" y="225.5" ></text>
</g>
<g >
<title>firedrake.tsfc_interface.compile_form (456,414 us, 0.09%)</title><rect x="219.8" y="103" width="1.0" height="15.0" fill="rgb(0,0,0)" rx="2" ry="2" />
<text  x="222.80" y="113.5" ></text>
</g>
<g >
<title>KSPSolve (8,925,341 us, 1.68%)</title><rect x="1008.0" y="183" width="19.9" height="15.0" fill="rgb(0,0,0)" rx="2" ry="2" />
<text  x="1011.02" y="193.5" ></text>
</g>
<g >
<title>PCSetUp (59,461,026 us, 11.21%)</title><rect x="895.6" y="151" width="132.3" height="15.0" fill="rgb(0,0,0)" rx="2" ry="2" />
<text  x="898.61" y="161.5" >PCSetUp</text>
</g>
<g >
<title>PCSetUpOnBlocks (10,074,729 us, 1.90%)</title><rect x="197.4" y="119" width="22.4" height="15.0" fill="rgb(0,0,0)" rx="2" ry="2" />
<text  x="200.39" y="129.5" ></text>
</g>
<g >
<title>pyop2.global_kernel.GlobalKernel.compile (7,471,621 us, 1.41%)</title><rect x="1169.6" y="151" width="16.6" height="15.0" fill="rgb(0,0,0)" rx="2" ry="2" />
<text  x="1172.57" y="161.5" ></text>
</g>
<g >
<title>Parloop_Cells_wrap_form01_cell_integral_otherwise (9,801,717 us, 1.85%)</title><rect x="1142.6" y="135" width="21.9" height="15.0" fill="rgb(0,0,0)" rx="2" ry="2" />
<text  x="1145.65" y="145.5" ></text>
</g>
<g >
<title>MatConvert (479,847 us, 0.09%)</title><rect x="999.2" y="215" width="1.1" height="15.0" fill="rgb(0,0,0)" rx="2" ry="2" />
<text  x="1002.24" y="225.5" ></text>
</g>
<g >
<title>MatMultAdd (674,416 us, 0.13%)</title><rect x="894.1" y="215" width="1.5" height="15.0" fill="rgb(0,0,0)" rx="2" ry="2" />
<text  x="897.11" y="225.5" ></text>
</g>
<g >
<title>pyop2.global_kernel.GlobalKernel.compile (3,572,043 us, 0.67%)</title><rect x="1087.4" y="151" width="8.0" height="15.0" fill="rgb(0,0,0)" rx="2" ry="2" />
<text  x="1090.42" y="161.5" ></text>
</g>
<g >
<title>MatMult (23,747,538 us, 4.48%)</title><rect x="842.8" y="199" width="52.8" height="15.0" fill="rgb(0,0,0)" rx="2" ry="2" />
<text  x="845.78" y="209.5" >MatM..</text>
</g>
<g >
<title>MatZeroInitial (9,665,635 us, 1.82%)</title><rect x="169.6" y="135" width="21.5" height="15.0" fill="rgb(0,0,0)" rx="2" ry="2" />
<text  x="172.58" y="145.5" ></text>
</g>
<g >
<title>PCSetUp (10,074,729 us, 1.90%)</title><rect x="197.4" y="135" width="22.4" height="15.0" fill="rgb(0,0,0)" rx="2" ry="2" />
<text  x="200.39" y="145.5" ></text>
</g>
<g >
<title>Log_Event_form10_cell_integral_otherwise (369,092 us, 0.07%)</title><rect x="1168.7" y="151" width="0.9" height="15.0" fill="rgb(0,0,0)" rx="2" ry="2" />
<text  x="1171.75" y="161.5" ></text>
</g>
</g>
</svg>
