<?xml version="1.0" standalone="no"?>
<!DOCTYPE svg PUBLIC "-//W3C//DTD SVG 1.1//EN" "http://www.w3.org/Graphics/SVG/1.1/DTD/svg11.dtd">
<svg version="1.1" width="1200" height="331" onload="init(evt)" viewBox="0 0 1200 331" xmlns="http://www.w3.org/2000/svg" xmlns:xlink="http://www.w3.org/1999/xlink">
<!-- Flame graph stack visualization. See https://github.com/brendangregg/FlameGraph for latest version, and http://www.brendangregg.com/flamegraphs.html for examples. -->
<!-- NOTES:  -->
<defs>
	<linearGradient id="background" y1="0" y2="1" x1="0" x2="0" >
		<stop stop-color="#eeeeee" offset="5%" />
		<stop stop-color="#eeeeb0" offset="95%" />
	</linearGradient>
</defs>
<style type="text/css">
	text { font-family:Verdana; font-size:13px; fill:rgb(0,0,0); }
	#search, #ignorecase { opacity:0.1; cursor:pointer; }
	#search:hover, #search.show, #ignorecase:hover, #ignorecase.show { opacity:1; }
	#subtitle { text-anchor:middle; font-color:rgb(160,160,160); }
	#title { text-anchor:middle; font-size:18px}
	#unzoom { cursor:pointer; }
	#frames > *:hover { stroke:black; stroke-width:0.5; cursor:pointer; }
	.hide { display:none; }
	.parent { opacity:0.5; }
</style>
<script type="text/ecmascript">
<![CDATA[
	"use strict";
	var details, searchbtn, unzoombtn, matchedtxt, svg, searching, currentSearchTerm, ignorecase, ignorecaseBtn;
	function init(evt) {
		details = document.getElementById("details").firstChild;
		searchbtn = document.getElementById("search");
		ignorecaseBtn = document.getElementById("ignorecase");
		unzoombtn = document.getElementById("unzoom");
		matchedtxt = document.getElementById("matched");
		svg = document.getElementsByTagName("svg")[0];
		searching = 0;
		currentSearchTerm = null;

		// use GET parameters to restore a flamegraphs state.
		var params = get_params();
		if (params.x && params.y)
			zoom(find_group(document.querySelector('[x="' + params.x + '"][y="' + params.y + '"]')));
                if (params.s) search(params.s);
	}

	// event listeners
	window.addEventListener("click", function(e) {
		var target = find_group(e.target);
		if (target) {
			if (target.nodeName == "a") {
				if (e.ctrlKey === false) return;
				e.preventDefault();
			}
			if (target.classList.contains("parent")) unzoom();
			zoom(target);
			if (!document.querySelector('.parent')) {
				clearzoom();
				return;
			}

			// set parameters for zoom state
			var el = target.querySelector("rect");
			if (el && el.attributes && el.attributes.y && el.attributes._orig_x) {
				var params = get_params()
				params.x = el.attributes._orig_x.value;
				params.y = el.attributes.y.value;
				history.replaceState(null, null, parse_params(params));
			}
		}
		else if (e.target.id == "unzoom") clearzoom();
		else if (e.target.id == "search") search_prompt();
		else if (e.target.id == "ignorecase") toggle_ignorecase();
	}, false)

	// mouse-over for info
	// show
	window.addEventListener("mouseover", function(e) {
		var target = find_group(e.target);
		if (target) details.nodeValue = "Function: " + g_to_text(target);
	}, false)

	// clear
	window.addEventListener("mouseout", function(e) {
		var target = find_group(e.target);
		if (target) details.nodeValue = ' ';
	}, false)

	// ctrl-F for search
	// ctrl-I to toggle case-sensitive search
	window.addEventListener("keydown",function (e) {
		if (e.keyCode === 114 || (e.ctrlKey && e.keyCode === 70)) {
			e.preventDefault();
			search_prompt();
		}
		else if (e.ctrlKey && e.keyCode === 73) {
			e.preventDefault();
			toggle_ignorecase();
		}
	}, false)

	// functions
	function get_params() {
		var params = {};
		var paramsarr = window.location.search.substr(1).split('&');
		for (var i = 0; i < paramsarr.length; ++i) {
			var tmp = paramsarr[i].split("=");
			if (!tmp[0] || !tmp[1]) continue;
			params[tmp[0]]  = decodeURIComponent(tmp[1]);
		}
		return params;
	}
	function parse_params(params) {
		var uri = "?";
		for (var key in params) {
			uri += key + '=' + encodeURIComponent(params[key]) + '&';
		}
		if (uri.slice(-1) == "&")
			uri = uri.substring(0, uri.length - 1);
		if (uri == '?')
			uri = window.location.href.split('?')[0];
		return uri;
	}
	function find_child(node, selector) {
		var children = node.querySelectorAll(selector);
		if (children.length) return children[0];
	}
	function find_group(node) {
		var parent = node.parentElement;
		if (!parent) return;
		if (parent.id == "frames") return node;
		return find_group(parent);
	}
	function orig_save(e, attr, val) {
		if (e.attributes["_orig_" + attr] != undefined) return;
		if (e.attributes[attr] == undefined) return;
		if (val == undefined) val = e.attributes[attr].value;
		e.setAttribute("_orig_" + attr, val);
	}
	function orig_load(e, attr) {
		if (e.attributes["_orig_"+attr] == undefined) return;
		e.attributes[attr].value = e.attributes["_orig_" + attr].value;
		e.removeAttribute("_orig_"+attr);
	}
	function g_to_text(e) {
		var text = find_child(e, "title").firstChild.nodeValue;
		return (text)
	}
	function g_to_func(e) {
		var func = g_to_text(e);
		// if there's any manipulation we want to do to the function
		// name before it's searched, do it here before returning.
		return (func);
	}
	function update_text(e) {
		var r = find_child(e, "rect");
		var t = find_child(e, "text");
		var w = parseFloat(r.attributes.width.value) -3;
		var txt = find_child(e, "title").textContent.replace(/\([^(]*\)$/,"");
		t.attributes.x.value = parseFloat(r.attributes.x.value) + 3;

		// Smaller than this size won't fit anything
		if (w < 2 * 13 * 0.59) {
			t.textContent = "";
			return;
		}

		t.textContent = txt;
		// Fit in full text width
		if (/^ *$/.test(txt) || t.getSubStringLength(0, txt.length) < w)
			return;

		for (var x = txt.length - 2; x > 0; x--) {
			if (t.getSubStringLength(0, x + 2) <= w) {
				t.textContent = txt.substring(0, x) + "..";
				return;
			}
		}
		t.textContent = "";
	}

	// zoom
	function zoom_reset(e) {
		if (e.attributes != undefined) {
			orig_load(e, "x");
			orig_load(e, "width");
		}
		if (e.childNodes == undefined) return;
		for (var i = 0, c = e.childNodes; i < c.length; i++) {
			zoom_reset(c[i]);
		}
	}
	function zoom_child(e, x, ratio) {
		if (e.attributes != undefined) {
			if (e.attributes.x != undefined) {
				orig_save(e, "x");
				e.attributes.x.value = (parseFloat(e.attributes.x.value) - x - 10) * ratio + 10;
				if (e.tagName == "text")
					e.attributes.x.value = find_child(e.parentNode, "rect[x]").attributes.x.value + 3;
			}
			if (e.attributes.width != undefined) {
				orig_save(e, "width");
				e.attributes.width.value = parseFloat(e.attributes.width.value) * ratio;
			}
		}

		if (e.childNodes == undefined) return;
		for (var i = 0, c = e.childNodes; i < c.length; i++) {
			zoom_child(c[i], x - 10, ratio);
		}
	}
	function zoom_parent(e) {
		if (e.attributes) {
			if (e.attributes.x != undefined) {
				orig_save(e, "x");
				e.attributes.x.value = 10;
			}
			if (e.attributes.width != undefined) {
				orig_save(e, "width");
				e.attributes.width.value = parseInt(svg.width.baseVal.value) - (10 * 2);
			}
		}
		if (e.childNodes == undefined) return;
		for (var i = 0, c = e.childNodes; i < c.length; i++) {
			zoom_parent(c[i]);
		}
	}
	function zoom(node) {
		var attr = find_child(node, "rect").attributes;
		var width = parseFloat(attr.width.value);
		var xmin = parseFloat(attr.x.value);
		var xmax = parseFloat(xmin + width);
		var ymin = parseFloat(attr.y.value);
		var ratio = (svg.width.baseVal.value - 2 * 10) / width;

		// XXX: Workaround for JavaScript float issues (fix me)
		var fudge = 0.0001;

		unzoombtn.classList.remove("hide");

		var el = document.getElementById("frames").children;
		for (var i = 0; i < el.length; i++) {
			var e = el[i];
			var a = find_child(e, "rect").attributes;
			var ex = parseFloat(a.x.value);
			var ew = parseFloat(a.width.value);
			var upstack;
			// Is it an ancestor
			if (1 == 0) {
				upstack = parseFloat(a.y.value) > ymin;
			} else {
				upstack = parseFloat(a.y.value) < ymin;
			}
			if (upstack) {
				// Direct ancestor
				if (ex <= xmin && (ex+ew+fudge) >= xmax) {
					e.classList.add("parent");
					zoom_parent(e);
					update_text(e);
				}
				// not in current path
				else
					e.classList.add("hide");
			}
			// Children maybe
			else {
				// no common path
				if (ex < xmin || ex + fudge >= xmax) {
					e.classList.add("hide");
				}
				else {
					zoom_child(e, xmin, ratio);
					update_text(e);
				}
			}
		}
		search();
	}
	function unzoom() {
		unzoombtn.classList.add("hide");
		var el = document.getElementById("frames").children;
		for(var i = 0; i < el.length; i++) {
			el[i].classList.remove("parent");
			el[i].classList.remove("hide");
			zoom_reset(el[i]);
			update_text(el[i]);
		}
		search();
	}
	function clearzoom() {
		unzoom();

		// remove zoom state
		var params = get_params();
		if (params.x) delete params.x;
		if (params.y) delete params.y;
		history.replaceState(null, null, parse_params(params));
	}

	// search
	function toggle_ignorecase() {
		ignorecase = !ignorecase;
		if (ignorecase) {
			ignorecaseBtn.classList.add("show");
		} else {
			ignorecaseBtn.classList.remove("show");
		}
		reset_search();
		search();
	}
	function reset_search() {
		var el = document.querySelectorAll("#frames rect");
		for (var i = 0; i < el.length; i++) {
			orig_load(el[i], "fill")
		}
		var params = get_params();
		delete params.s;
		history.replaceState(null, null, parse_params(params));
	}
	function search_prompt() {
		if (!searching) {
			var term = prompt("Enter a search term (regexp " +
			    "allowed, eg: ^ext4_)"
			    + (ignorecase ? ", ignoring case" : "")
			    + "\nPress Ctrl-i to toggle case sensitivity", "");
			if (term != null) search(term);
		} else {
			reset_search();
			searching = 0;
			currentSearchTerm = null;
			searchbtn.classList.remove("show");
			searchbtn.firstChild.nodeValue = "Search"
			matchedtxt.classList.add("hide");
			matchedtxt.firstChild.nodeValue = ""
		}
	}
	function search(term) {
		if (term) currentSearchTerm = term;

		var re = new RegExp(currentSearchTerm, ignorecase ? 'i' : '');
		var el = document.getElementById("frames").children;
		var matches = new Object();
		var maxwidth = 0;
		for (var i = 0; i < el.length; i++) {
			var e = el[i];
			var func = g_to_func(e);
			var rect = find_child(e, "rect");
			if (func == null || rect == null)
				continue;

			// Save max width. Only works as we have a root frame
			var w = parseFloat(rect.attributes.width.value);
			if (w > maxwidth)
				maxwidth = w;

			if (func.match(re)) {
				// highlight
				var x = parseFloat(rect.attributes.x.value);
				orig_save(rect, "fill");
				rect.attributes.fill.value = "rgb(230,0,230)";

				// remember matches
				if (matches[x] == undefined) {
					matches[x] = w;
				} else {
					if (w > matches[x]) {
						// overwrite with parent
						matches[x] = w;
					}
				}
				searching = 1;
			}
		}
		if (!searching)
			return;
		var params = get_params();
		params.s = currentSearchTerm;
		history.replaceState(null, null, parse_params(params));

		searchbtn.classList.add("show");
		searchbtn.firstChild.nodeValue = "Reset Search";

		// calculate percent matched, excluding vertical overlap
		var count = 0;
		var lastx = -1;
		var lastw = 0;
		var keys = Array();
		for (k in matches) {
			if (matches.hasOwnProperty(k))
				keys.push(k);
		}
		// sort the matched frames by their x location
		// ascending, then width descending
		keys.sort(function(a, b){
			return a - b;
		});
		// Step through frames saving only the biggest bottom-up frames
		// thanks to the sort order. This relies on the tree property
		// where children are always smaller than their parents.
		var fudge = 0.0001;	// JavaScript floating point
		for (var k in keys) {
			var x = parseFloat(keys[k]);
			var w = matches[keys[k]];
			if (x >= lastx + lastw - fudge) {
				count += w;
				lastx = x;
				lastw = w;
			}
		}
		// display matched percent
		matchedtxt.classList.remove("hide");
		var pct = 100 * count / maxwidth;
		if (pct != 100) pct = pct.toFixed(1)
		matchedtxt.firstChild.nodeValue = "Matched: " + pct + "%";
	}
]]>
</script>
<rect x="0.0" y="0" width="1200.0" height="331.0" fill="url(#background)"  />
<text id="title" x="600.00" y="26" >Firedrake example</text>
<text id="details" x="10.00" y="313" > </text>
<text id="unzoom" x="10.00" y="26" class="hide">Reset Zoom</text>
<text id="search" x="1090.00" y="26" >Search</text>
<text id="ignorecase" x="1174.00" y="26" >ic</text>
<text id="matched" x="1090.00" y="313" > </text>
<g id="frames">
<g >
<title>  SA: smooth (47,278 us, 0.05%)</title><rect x="648.5" y="199" width="0.6" height="15.0" fill="rgb(0,0,0)" rx="2" ry="2" />
<text  x="651.47" y="209.5" ></text>
</g>
<g >
<title>PCSetUp (86,995 us, 0.09%)</title><rect x="706.8" y="167" width="1.1" height="15.0" fill="rgb(0,0,0)" rx="2" ry="2" />
<text  x="709.80" y="177.5" ></text>
</g>
<g >
<title>MatPtAPNumeric (80,470 us, 0.08%)</title><rect x="650.0" y="199" width="1.0" height="15.0" fill="rgb(0,0,0)" rx="2" ry="2" />
<text  x="652.97" y="209.5" ></text>
</g>
<g >
<title>Log_Event_form00_cell_integral_otherwise (21,400 us, 0.02%)</title><rect x="838.0" y="151" width="0.3" height="15.0" fill="rgb(0,0,0)" rx="2" ry="2" />
<text  x="840.99" y="161.5" ></text>
</g>
<g >
<title>SNESFunctionEval (9,985,264 us, 10.39%)</title><rect x="713.9" y="103" width="122.6" height="15.0" fill="rgb(0,0,0)" rx="2" ry="2" />
<text  x="716.85" y="113.5" >SNESFunctionE..</text>
</g>
<g >
<title>Parloop_Cells_wrap_pyop2_kernel_uniform_extrusion (975,824 us, 1.02%)</title><rect x="21.7" y="119" width="12.0" height="15.0" fill="rgb(0,0,0)" rx="2" ry="2" />
<text  x="24.69" y="129.5" ></text>
</g>
<g >
<title>VecAYPX (15,034 us, 0.02%)</title><rect x="641.1" y="199" width="0.2" height="15.0" fill="rgb(0,0,0)" rx="2" ry="2" />
<text  x="644.08" y="209.5" ></text>
</g>
<g >
<title>KSPSolve (2,344,921 us, 2.44%)</title><rect x="612.1" y="215" width="28.8" height="15.0" fill="rgb(0,0,0)" rx="2" ry="2" />
<text  x="615.14" y="225.5" >K..</text>
</g>
<g >
<title>PCGAMGCoarse_AGG (129,741 us, 0.14%)</title><rect x="644.7" y="183" width="1.6" height="15.0" fill="rgb(0,0,0)" rx="2" ry="2" />
<text  x="647.71" y="193.5" ></text>
</g>
<g >
<title>MatCholFctrNum (134,567 us, 0.14%)</title><rect x="339.3" y="151" width="1.6" height="15.0" fill="rgb(0,0,0)" rx="2" ry="2" />
<text  x="342.29" y="161.5" ></text>
</g>
<g >
<title>MatMatMultSym (77,259 us, 0.08%)</title><rect x="712.5" y="119" width="0.9" height="15.0" fill="rgb(0,0,0)" rx="2" ry="2" />
<text  x="715.49" y="129.5" ></text>
</g>
<g >
<title>firedrake.functionspacedata.get_shared_data (23,849 us, 0.02%)</title><rect x="33.7" y="103" width="0.3" height="15.0" fill="rgb(0,0,0)" rx="2" ry="2" />
<text  x="36.67" y="113.5" ></text>
</g>
<g >
<title>KSPSolve (2,344,981 us, 2.44%)</title><rect x="562.8" y="215" width="28.8" height="15.0" fill="rgb(0,0,0)" rx="2" ry="2" />
<text  x="565.82" y="225.5" >K..</text>
</g>
<g >
<title>MatConvert (26,179 us, 0.03%)</title><rect x="648.0" y="215" width="0.3" height="15.0" fill="rgb(0,0,0)" rx="2" ry="2" />
<text  x="651.00" y="225.5" ></text>
</g>
<g >
<title>PCApply (115,266 us, 0.12%)</title><rect x="705.4" y="167" width="1.4" height="15.0" fill="rgb(0,0,0)" rx="2" ry="2" />
<text  x="708.38" y="177.5" ></text>
</g>
<g >
<title>KSPSolve_FS_Schu (4,377,209 us, 4.56%)</title><rect x="654.1" y="135" width="53.8" height="15.0" fill="rgb(0,0,0)" rx="2" ry="2" />
<text  x="657.10" y="145.5" >KSPSo..</text>
</g>
<g >
<title>PCApply (4,013,953 us, 4.18%)</title><rect x="654.1" y="199" width="49.3" height="15.0" fill="rgb(0,0,0)" rx="2" ry="2" />
<text  x="657.10" y="209.5" >PCAp..</text>
</g>
<g >
<title>firedrake.tsfc_interface.compile_form (1,776,451 us, 1.85%)</title><rect x="1168.2" y="119" width="21.8" height="15.0" fill="rgb(0,0,0)" rx="2" ry="2" />
<text  x="1171.18" y="129.5" ></text>
</g>
<g >
<title>VecScatterBegin (10,204 us, 0.01%)</title><rect x="709.6" y="135" width="0.1" height="15.0" fill="rgb(0,0,0)" rx="2" ry="2" />
<text  x="712.62" y="145.5" ></text>
</g>
<g >
<title>PCSetUp (764,929 us, 0.80%)</title><rect x="644.7" y="151" width="9.4" height="15.0" fill="rgb(0,0,0)" rx="2" ry="2" />
<text  x="647.71" y="161.5" ></text>
</g>
<g >
<title>firedrake.assemble.allocate_matrix (739,723 us, 0.77%)</title><rect x="322.4" y="119" width="9.1" height="15.0" fill="rgb(0,0,0)" rx="2" ry="2" />
<text  x="325.43" y="129.5" ></text>
</g>
<g >
<title>KSPSolve (74,542 us, 0.08%)</title><rect x="649.1" y="199" width="0.9" height="15.0" fill="rgb(0,0,0)" rx="2" ry="2" />
<text  x="652.05" y="209.5" ></text>
</g>
<g >
<title>pyop2.global_kernel.GlobalKernel.compile (373,718 us, 0.39%)</title><rect x="56.8" y="151" width="4.6" height="15.0" fill="rgb(0,0,0)" rx="2" ry="2" />
<text  x="59.78" y="161.5" ></text>
</g>
<g >
<title>GAMG: partLevel (177,299 us, 0.18%)</title><rect x="650.0" y="167" width="2.1" height="15.0" fill="rgb(0,0,0)" rx="2" ry="2" />
<text  x="652.97" y="177.5" ></text>
</g>
<g >
<title>MatMult (22,118 us, 0.02%)</title><rect x="338.7" y="135" width="0.2" height="15.0" fill="rgb(0,0,0)" rx="2" ry="2" />
<text  x="341.66" y="145.5" ></text>
</g>
<g >
<title>MatSOR (2,331,456 us, 2.43%)</title><rect x="562.8" y="247" width="28.7" height="15.0" fill="rgb(0,0,0)" rx="2" ry="2" />
<text  x="565.82" y="257.5" >M..</text>
</g>
<g >
<title>Log_Event_form00_cell_integral_otherwise (36,300 us, 0.04%)</title><rect x="121.5" y="151" width="0.5" height="15.0" fill="rgb(0,0,0)" rx="2" ry="2" />
<text  x="124.50" y="161.5" ></text>
</g>
<g >
<title>PCSetUpOnBlocks (134,567 us, 0.14%)</title><rect x="339.3" y="119" width="1.6" height="15.0" fill="rgb(0,0,0)" rx="2" ry="2" />
<text  x="342.29" y="129.5" ></text>
</g>
<g >
<title>pyop2.global_kernel.GlobalKernel.compile (4,024,830 us, 4.19%)</title><rect x="767.6" y="151" width="49.4" height="15.0" fill="rgb(0,0,0)" rx="2" ry="2" />
<text  x="770.60" y="161.5" >pyop..</text>
</g>
<g >
<title>VecAYPX (14,952 us, 0.02%)</title><rect x="591.8" y="199" width="0.1" height="15.0" fill="rgb(0,0,0)" rx="2" ry="2" />
<text  x="594.76" y="209.5" ></text>
</g>
<g >
<title>pyop2.caching.disk_cached.&lt;locals&gt;.decorator.&lt;locals&gt;.wrapper (18,613 us, 0.02%)</title><rect x="61.4" y="119" width="0.2" height="15.0" fill="rgb(0,0,0)" rx="2" ry="2" />
<text  x="64.37" y="129.5" ></text>
</g>
<g >
<title>PCApply (4,014,743 us, 4.18%)</title><rect x="595.4" y="167" width="49.3" height="15.0" fill="rgb(0,0,0)" rx="2" ry="2" />
<text  x="598.40" y="177.5" >PCAp..</text>
</g>
<g >
<title>MatCreateSubMats (97,584 us, 0.10%)</title><rect x="710.6" y="119" width="1.2" height="15.0" fill="rgb(0,0,0)" rx="2" ry="2" />
<text  x="713.63" y="129.5" ></text>
</g>
<g >
<title>Parloop_Cells_wrap_form1_cell_integral_otherwise (4,024,830 us, 4.19%)</title><rect x="767.6" y="135" width="49.4" height="15.0" fill="rgb(0,0,0)" rx="2" ry="2" />
<text  x="770.60" y="145.5" >Parl..</text>
</g>
<g >
<title>firedrake.assemble.assemble (17,752,750 us, 18.48%)</title><rect x="120.6" y="103" width="218.1" height="15.0" fill="rgb(0,0,0)" rx="2" ry="2" />
<text  x="123.61" y="113.5" >firedrake.assemble.assemble</text>
</g>
<g >
<title>KSPGMRESOrthog (22,030 us, 0.02%)</title><rect x="540.3" y="119" width="0.2" height="15.0" fill="rgb(0,0,0)" rx="2" ry="2" />
<text  x="543.26" y="129.5" ></text>
</g>
<g >
<title>MatSolve (115,266 us, 0.12%)</title><rect x="705.4" y="215" width="1.4" height="15.0" fill="rgb(0,0,0)" rx="2" ry="2" />
<text  x="708.38" y="225.5" ></text>
</g>
<g >
<title>KSPSolve (159,381 us, 0.17%)</title><rect x="652.1" y="183" width="2.0" height="15.0" fill="rgb(0,0,0)" rx="2" ry="2" />
<text  x="655.15" y="193.5" ></text>
</g>
<g >
<title>MatZeroInitial (198,577 us, 0.21%)</title><rect x="329.1" y="135" width="2.4" height="15.0" fill="rgb(0,0,0)" rx="2" ry="2" />
<text  x="332.08" y="145.5" ></text>
</g>
<g >
<title>firedrake.assemble.allocate_matrix (1,306,288 us, 1.36%)</title><rect x="524.1" y="87" width="16.0" height="15.0" fill="rgb(0,0,0)" rx="2" ry="2" />
<text  x="527.06" y="97.5" ></text>
</g>
<g >
<title>Parloop_Cells_wrap_form00_cell_integral_otherwise (16,431,467 us, 17.10%)</title><rect x="120.6" y="135" width="201.8" height="15.0" fill="rgb(0,0,0)" rx="2" ry="2" />
<text  x="123.61" y="145.5" >Parloop_Cells_wrap_form0..</text>
</g>
<g >
<title>firedrake (96,070,059 us, 100.00%)</title><rect x="10.0" y="55" width="1180.0" height="15.0" fill="rgb(0,0,0)" rx="2" ry="2" />
<text  x="13.00" y="65.5" >firedrake</text>
</g>
<g >
<title>Parloop_Cells_wrap_form0_cell_integral_otherwise (4,376,062 us, 4.56%)</title><rect x="713.9" y="135" width="53.7" height="15.0" fill="rgb(0,0,0)" rx="2" ry="2" />
<text  x="716.85" y="145.5" >Parlo..</text>
</g>
<g >
<title>all (96,070,059 us, 100%)</title><rect x="10.0" y="39" width="1180.0" height="15.0" fill="rgb(0,0,0)" rx="2" ry="2" />
<text  x="13.00" y="49.5" ></text>
</g>
<g >
<title>firedrake.variational_solver.NonlinearVariationalProblem.__init__ (21,139 us, 0.02%)</title><rect x="713.6" y="151" width="0.3" height="15.0" fill="rgb(0,0,0)" rx="2" ry="2" />
<text  x="716.59" y="161.5" ></text>
</g>
<g >
<title>VecSet (13,578 us, 0.01%)</title><rect x="699.5" y="263" width="0.1" height="15.0" fill="rgb(0,0,0)" rx="2" ry="2" />
<text  x="702.48" y="273.5" ></text>
</g>
<g >
<title>KSPSolve_FS_0 (4,013,712 us, 4.18%)</title><rect x="546.1" y="135" width="49.3" height="15.0" fill="rgb(0,0,0)" rx="2" ry="2" />
<text  x="549.10" y="145.5" >KSPS..</text>
</g>
<g >
<title>PCApply (13,323,535 us, 13.87%)</title><rect x="546.1" y="119" width="163.6" height="15.0" fill="rgb(0,0,0)" rx="2" ry="2" />
<text  x="549.10" y="129.5" >PCApply</text>
</g>
<g >
<title>MatMult (59,958 us, 0.06%)</title><rect x="652.1" y="199" width="0.8" height="15.0" fill="rgb(0,0,0)" rx="2" ry="2" />
<text  x="655.15" y="209.5" ></text>
</g>
<g >
<title>PCApply (2,330,566 us, 2.43%)</title><rect x="670.9" y="263" width="28.6" height="15.0" fill="rgb(0,0,0)" rx="2" ry="2" />
<text  x="673.85" y="273.5" >P..</text>
</g>
<g >
<title>KSPSetUp (159,381 us, 0.17%)</title><rect x="652.1" y="167" width="2.0" height="15.0" fill="rgb(0,0,0)" rx="2" ry="2" />
<text  x="655.15" y="177.5" ></text>
</g>
<g >
<title>MatMultTranspose (13,894 us, 0.01%)</title><rect x="591.9" y="183" width="0.2" height="15.0" fill="rgb(0,0,0)" rx="2" ry="2" />
<text  x="594.95" y="193.5" ></text>
</g>
<g >
<title>MatMultTranspose (13,920 us, 0.01%)</title><rect x="700.0" y="215" width="0.1" height="15.0" fill="rgb(0,0,0)" rx="2" ry="2" />
<text  x="702.97" y="225.5" ></text>
</g>
<g >
<title>firedrake.tsfc_interface.compile_form (1,732,699 us, 1.80%)</title><rect x="502.6" y="119" width="21.3" height="15.0" fill="rgb(0,0,0)" rx="2" ry="2" />
<text  x="505.63" y="129.5" ></text>
</g>
<g >
<title>pyop2.global_kernel.GlobalKernel.compile (6,810,212 us, 7.09%)</title><rect x="1084.5" y="151" width="83.7" height="15.0" fill="rgb(0,0,0)" rx="2" ry="2" />
<text  x="1087.53" y="161.5" >pyop2.gl..</text>
</g>
<g >
<title>Parloop_Cells_wrap_form10_cell_integral_otherwise (6,859,167 us, 7.14%)</title><rect x="1083.9" y="135" width="84.3" height="15.0" fill="rgb(0,0,0)" rx="2" ry="2" />
<text  x="1086.93" y="145.5" >Parloop_..</text>
</g>
<g >
<title>Log_Event_form10_cell_integral_otherwise (11,817 us, 0.01%)</title><rect x="1084.4" y="151" width="0.1" height="15.0" fill="rgb(0,0,0)" rx="2" ry="2" />
<text  x="1087.39" y="161.5" ></text>
</g>
<g >
<title>firedrake.formmanipulation.ExtractSubBlock.split (9,780 us, 0.01%)</title><rect x="1189.9" y="151" width="0.1" height="15.0" fill="rgb(0,0,0)" rx="2" ry="2" />
<text  x="1192.88" y="161.5" ></text>
</g>
<g >
<title>VecAYPX (15,136 us, 0.02%)</title><rect x="699.8" y="231" width="0.2" height="15.0" fill="rgb(0,0,0)" rx="2" ry="2" />
<text  x="702.78" y="241.5" ></text>
</g>
<g >
<title>ParLoopExecute (8,400,892 us, 8.74%)</title><rect x="713.9" y="119" width="103.1" height="15.0" fill="rgb(0,0,0)" rx="2" ry="2" />
<text  x="716.85" y="129.5" >ParLoopExec..</text>
</g>
<g >
<title>PCGAMGPOpt_AGG (121,820 us, 0.13%)</title><rect x="648.5" y="183" width="1.5" height="15.0" fill="rgb(0,0,0)" rx="2" ry="2" />
<text  x="651.47" y="193.5" ></text>
</g>
<g >
<title>MatMult (1,361,676 us, 1.42%)</title><rect x="546.1" y="199" width="16.7" height="15.0" fill="rgb(0,0,0)" rx="2" ry="2" />
<text  x="549.10" y="209.5" ></text>
</g>
<g >
<title>MatMult (74,542 us, 0.08%)</title><rect x="649.1" y="215" width="0.9" height="15.0" fill="rgb(0,0,0)" rx="2" ry="2" />
<text  x="652.05" y="225.5" ></text>
</g>
<g >
<title>VecAXPBYCZ (11,370 us, 0.01%)</title><rect x="591.6" y="199" width="0.2" height="15.0" fill="rgb(0,0,0)" rx="2" ry="2" />
<text  x="594.62" y="209.5" ></text>
</g>
<g >
<title>MatMatMultSym (19,834 us, 0.02%)</title><rect x="648.8" y="231" width="0.3" height="15.0" fill="rgb(0,0,0)" rx="2" ry="2" />
<text  x="651.81" y="241.5" ></text>
</g>
<g >
<title>MatLUFactorNum (86,995 us, 0.09%)</title><rect x="706.8" y="183" width="1.1" height="15.0" fill="rgb(0,0,0)" rx="2" ry="2" />
<text  x="709.80" y="193.5" ></text>
</g>
<g >
<title>firedrake.assemble.assemble (748,851 us, 0.78%)</title><rect x="52.4" y="71" width="9.2" height="15.0" fill="rgb(0,0,0)" rx="2" ry="2" />
<text  x="55.40" y="81.5" ></text>
</g>
<g >
<title>MatZeroInitial (295,983 us, 0.31%)</title><rect x="536.5" y="103" width="3.6" height="15.0" fill="rgb(0,0,0)" rx="2" ry="2" />
<text  x="539.47" y="113.5" ></text>
</g>
<g >
<title>MatAXPY (54,367 us, 0.06%)</title><rect x="710.0" y="119" width="0.6" height="15.0" fill="rgb(0,0,0)" rx="2" ry="2" />
<text  x="712.96" y="129.5" ></text>
</g>
<g >
<title>MatSOR (2,331,318 us, 2.43%)</title><rect x="612.1" y="247" width="28.7" height="15.0" fill="rgb(0,0,0)" rx="2" ry="2" />
<text  x="615.14" y="257.5" >M..</text>
</g>
<g >
<title>KSPSolve (4,290,214 us, 4.47%)</title><rect x="654.1" y="151" width="52.7" height="15.0" fill="rgb(0,0,0)" rx="2" ry="2" />
<text  x="657.10" y="161.5" >KSPS..</text>
</g>
<g >
<title>MatMult (4,174,948 us, 4.35%)</title><rect x="654.1" y="167" width="51.3" height="15.0" fill="rgb(0,0,0)" rx="2" ry="2" />
<text  x="657.10" y="177.5" >MatM..</text>
</g>
<g >
<title>KSPSolve (51,819 us, 0.05%)</title><rect x="338.7" y="119" width="0.6" height="15.0" fill="rgb(0,0,0)" rx="2" ry="2" />
<text  x="341.66" y="129.5" ></text>
</g>
<g >
<title>PCApply (2,344,981 us, 2.44%)</title><rect x="562.8" y="199" width="28.8" height="15.0" fill="rgb(0,0,0)" rx="2" ry="2" />
<text  x="565.82" y="209.5" >P..</text>
</g>
<g >
<title>MatPtAPNumeric (10,246 us, 0.01%)</title><rect x="652.0" y="199" width="0.1" height="15.0" fill="rgb(0,0,0)" rx="2" ry="2" />
<text  x="655.02" y="209.5" ></text>
</g>
<g >
<title>pyop2.global_kernel.GlobalKernel.compile (4,804,188 us, 5.00%)</title><rect x="61.6" y="135" width="59.0" height="15.0" fill="rgb(0,0,0)" rx="2" ry="2" />
<text  x="64.60" y="145.5" >pyop2..</text>
</g>
<g >
<title>Parloop_Cells_wrap_form0_cell_integral_otherwise (4,804,188 us, 5.00%)</title><rect x="61.6" y="119" width="59.0" height="15.0" fill="rgb(0,0,0)" rx="2" ry="2" />
<text  x="64.60" y="129.5" >Parlo..</text>
</g>
<g >
<title>MatScale (12,586 us, 0.01%)</title><rect x="648.3" y="215" width="0.2" height="15.0" fill="rgb(0,0,0)" rx="2" ry="2" />
<text  x="651.32" y="225.5" ></text>
</g>
<g >
<title>Parloop_Cells_wrap_form00_cell_integral_otherwise (13,285,997 us, 13.83%)</title><rect x="836.9" y="135" width="163.2" height="15.0" fill="rgb(0,0,0)" rx="2" ry="2" />
<text  x="839.93" y="145.5" >Parloop_Cells_wrap_..</text>
</g>
<g >
<title>PCGAMGGraph_AGG (176,688 us, 0.18%)</title><rect x="646.3" y="183" width="2.2" height="15.0" fill="rgb(0,0,0)" rx="2" ry="2" />
<text  x="649.30" y="193.5" ></text>
</g>
<g >
<title>KSPSolve (115,266 us, 0.12%)</title><rect x="705.4" y="183" width="1.4" height="15.0" fill="rgb(0,0,0)" rx="2" ry="2" />
<text  x="708.38" y="193.5" ></text>
</g>
<g >
<title>Parloop_set_#x7fb0403f8ee0_wrap_expression_kernel (356,520 us, 0.37%)</title><rect x="52.4" y="135" width="4.4" height="15.0" fill="rgb(0,0,0)" rx="2" ry="2" />
<text  x="55.40" y="145.5" ></text>
</g>
<g >
<title>CreateExtMesh (1,019,155 us, 1.06%)</title><rect x="21.2" y="71" width="12.5" height="15.0" fill="rgb(0,0,0)" rx="2" ry="2" />
<text  x="24.15" y="81.5" ></text>
</g>
<g >
<title>CreateSparsity (541,146 us, 0.56%)</title><rect x="322.4" y="135" width="6.7" height="15.0" fill="rgb(0,0,0)" rx="2" ry="2" />
<text  x="325.43" y="145.5" ></text>
</g>
<g >
<title>firedrake.linear_solver.LinearSolver.solve (186,386 us, 0.19%)</title><rect x="338.7" y="103" width="2.2" height="15.0" fill="rgb(0,0,0)" rx="2" ry="2" />
<text  x="341.66" y="113.5" ></text>
</g>
<g >
<title>KSPSolve (2,344,144 us, 2.44%)</title><rect x="670.9" y="247" width="28.7" height="15.0" fill="rgb(0,0,0)" rx="2" ry="2" />
<text  x="673.85" y="257.5" >K..</text>
</g>
<g >
<title>pyop2.global_kernel.GlobalKernel.compile (6,768,235 us, 7.05%)</title><rect x="1000.8" y="151" width="83.1" height="15.0" fill="rgb(0,0,0)" rx="2" ry="2" />
<text  x="1003.80" y="161.5" >pyop2.gl..</text>
</g>
<g >
<title>pyop2.global_kernel.GlobalKernel.compile (356,520 us, 0.37%)</title><rect x="52.4" y="151" width="4.4" height="15.0" fill="rgb(0,0,0)" rx="2" ry="2" />
<text  x="55.40" y="161.5" ></text>
</g>
<g >
<title>PCGAMG Gal l02 (10,246 us, 0.01%)</title><rect x="652.0" y="183" width="0.1" height="15.0" fill="rgb(0,0,0)" rx="2" ry="2" />
<text  x="655.02" y="193.5" ></text>
</g>
<g >
<title>MatMult (1,363,495 us, 1.42%)</title><rect x="595.4" y="199" width="16.7" height="15.0" fill="rgb(0,0,0)" rx="2" ry="2" />
<text  x="598.40" y="209.5" ></text>
</g>
<g >
<title>MatSOR (2,330,566 us, 2.43%)</title><rect x="670.9" y="279" width="28.6" height="15.0" fill="rgb(0,0,0)" rx="2" ry="2" />
<text  x="673.85" y="289.5" >M..</text>
</g>
<g >
<title>FunctionSpaceData: CreateElement (10,939 us, 0.01%)</title><rect x="33.8" y="135" width="0.2" height="15.0" fill="rgb(0,0,0)" rx="2" ry="2" />
<text  x="36.83" y="145.5" ></text>
</g>
<g >
<title>firedrake.assemble_expressions.evaluate_expression (748,851 us, 0.78%)</title><rect x="52.4" y="103" width="9.2" height="15.0" fill="rgb(0,0,0)" rx="2" ry="2" />
<text  x="55.40" y="113.5" ></text>
</g>
<g >
<title>KSPSolve (13,811,492 us, 14.38%)</title><rect x="540.1" y="103" width="169.6" height="15.0" fill="rgb(0,0,0)" rx="2" ry="2" />
<text  x="543.10" y="113.5" >KSPSolve</text>
</g>
<g >
<title>Log_Event_form01_cell_integral_otherwise (12,343 us, 0.01%)</title><rect x="1000.6" y="151" width="0.2" height="15.0" fill="rgb(0,0,0)" rx="2" ry="2" />
<text  x="1003.65" y="161.5" ></text>
</g>
<g >
<title>firedrake.variational_solver.NonlinearVariationalProblem.__init__ (12,279 us, 0.01%)</title><rect x="523.9" y="87" width="0.2" height="15.0" fill="rgb(0,0,0)" rx="2" ry="2" />
<text  x="526.91" y="97.5" ></text>
</g>
<g >
<title>MatPtAPSymbolic (38,981 us, 0.04%)</title><rect x="651.0" y="199" width="0.4" height="15.0" fill="rgb(0,0,0)" rx="2" ry="2" />
<text  x="653.96" y="209.5" ></text>
</g>
<g >
<title>MatMultAdd (18,612 us, 0.02%)</title><rect x="705.2" y="183" width="0.2" height="15.0" fill="rgb(0,0,0)" rx="2" ry="2" />
<text  x="708.15" y="193.5" ></text>
</g>
<g >
<title>PCGAMG Gal l01 (47,602 us, 0.05%)</title><rect x="651.4" y="183" width="0.6" height="15.0" fill="rgb(0,0,0)" rx="2" ry="2" />
<text  x="654.44" y="193.5" ></text>
</g>
<g >
<title>ParLoopExecute (26,969,230 us, 28.07%)</title><rect x="836.9" y="119" width="331.3" height="15.0" fill="rgb(0,0,0)" rx="2" ry="2" />
<text  x="839.93" y="129.5" >ParLoopExecute</text>
</g>
<g >
<title>firedrake.tsfc_interface.compile_form (581,560 us, 0.61%)</title><rect x="331.5" y="119" width="7.2" height="15.0" fill="rgb(0,0,0)" rx="2" ry="2" />
<text  x="334.51" y="129.5" ></text>
</g>
<g >
<title>PCSetUpOnBlocks (86,995 us, 0.09%)</title><rect x="706.8" y="151" width="1.1" height="15.0" fill="rgb(0,0,0)" rx="2" ry="2" />
<text  x="709.80" y="161.5" ></text>
</g>
<g >
<title>MatResidual (265,974 us, 0.28%)</title><rect x="700.1" y="215" width="3.3" height="15.0" fill="rgb(0,0,0)" rx="2" ry="2" />
<text  x="703.14" y="225.5" ></text>
</g>
<g >
<title>Parloop_set_#x7fb040474a30_wrap_expression_kernel (373,718 us, 0.39%)</title><rect x="56.8" y="135" width="4.6" height="15.0" fill="rgb(0,0,0)" rx="2" ry="2" />
<text  x="59.78" y="145.5" ></text>
</g>
<g >
<title>firedrake.solving_utils._SNESContext.split (33,702 us, 0.04%)</title><rect x="713.4" y="135" width="0.5" height="15.0" fill="rgb(0,0,0)" rx="2" ry="2" />
<text  x="716.44" y="145.5" ></text>
</g>
<g >
<title>VecAXPBYCZ (11,330 us, 0.01%)</title><rect x="640.9" y="199" width="0.2" height="15.0" fill="rgb(0,0,0)" rx="2" ry="2" />
<text  x="643.95" y="209.5" ></text>
</g>
<g >
<title>firedrake.extrusion_utils.make_extruded_coords (1,008,180 us, 1.05%)</title><rect x="21.3" y="87" width="12.4" height="15.0" fill="rgb(0,0,0)" rx="2" ry="2" />
<text  x="24.29" y="97.5" ></text>
</g>
<g >
<title>PCApply (115,266 us, 0.12%)</title><rect x="705.4" y="199" width="1.4" height="15.0" fill="rgb(0,0,0)" rx="2" ry="2" />
<text  x="708.38" y="209.5" ></text>
</g>
<g >
<title>MatSOR (99,423 us, 0.10%)</title><rect x="652.9" y="247" width="1.2" height="15.0" fill="rgb(0,0,0)" rx="2" ry="2" />
<text  x="655.88" y="257.5" ></text>
</g>
<g >
<title>firedrake.norms.errornorm (14,456,915 us, 15.05%)</title><rect x="346.3" y="71" width="177.6" height="15.0" fill="rgb(0,0,0)" rx="2" ry="2" />
<text  x="349.34" y="81.5" >firedrake.norms.error..</text>
</g>
<g >
<title>MatZeroEntries (34,825 us, 0.04%)</title><rect x="836.5" y="119" width="0.4" height="15.0" fill="rgb(0,0,0)" rx="2" ry="2" />
<text  x="839.50" y="129.5" ></text>
</g>
<g >
<title>firedrake.ufl_expr.adjoint (12,279 us, 0.01%)</title><rect x="523.9" y="103" width="0.2" height="15.0" fill="rgb(0,0,0)" rx="2" ry="2" />
<text  x="526.91" y="113.5" ></text>
</g>
<g >
<title>ParLoopExecute (12,724,216 us, 13.24%)</title><rect x="346.3" y="119" width="156.3" height="15.0" fill="rgb(0,0,0)" rx="2" ry="2" />
<text  x="349.34" y="129.5" >ParLoopExecute</text>
</g>
<g >
<title>VecAXPBYCZ (11,321 us, 0.01%)</title><rect x="699.6" y="231" width="0.2" height="15.0" fill="rgb(0,0,0)" rx="2" ry="2" />
<text  x="702.64" y="241.5" ></text>
</g>
<g >
<title>firedrake.tsfc_interface.compile_form (438,923 us, 0.46%)</title><rect x="340.9" y="103" width="5.4" height="15.0" fill="rgb(0,0,0)" rx="2" ry="2" />
<text  x="343.95" y="113.5" ></text>
</g>
<g >
<title>PCApply (4,013,712 us, 4.18%)</title><rect x="546.1" y="167" width="49.3" height="15.0" fill="rgb(0,0,0)" rx="2" ry="2" />
<text  x="549.10" y="177.5" >PCAp..</text>
</g>
<g >
<title>firedrake.tsfc_interface.compile_form (1,584,372 us, 1.65%)</title><rect x="817.0" y="119" width="19.5" height="15.0" fill="rgb(0,0,0)" rx="2" ry="2" />
<text  x="820.04" y="129.5" ></text>
</g>
<g >
<title>MatMult (142,383 us, 0.15%)</title><rect x="703.4" y="183" width="1.8" height="15.0" fill="rgb(0,0,0)" rx="2" ry="2" />
<text  x="706.41" y="193.5" ></text>
</g>
<g >
<title>pyop2.global_kernel.GlobalKernel.compile (12,724,216 us, 13.24%)</title><rect x="346.3" y="151" width="156.3" height="15.0" fill="rgb(0,0,0)" rx="2" ry="2" />
<text  x="349.34" y="161.5" >pyop2.global_kerne..</text>
</g>
<g >
<title>firedrake.formmanipulation.split_form (9,780 us, 0.01%)</title><rect x="1189.9" y="135" width="0.1" height="15.0" fill="rgb(0,0,0)" rx="2" ry="2" />
<text  x="1192.88" y="145.5" ></text>
</g>
<g >
<title>pyop2.global_kernel.GlobalKernel.compile (16,322,019 us, 16.99%)</title><rect x="122.0" y="151" width="200.4" height="15.0" fill="rgb(0,0,0)" rx="2" ry="2" />
<text  x="124.95" y="161.5" >pyop2.global_kernel.Glob..</text>
</g>
<g >
<title>PCSetUp (134,567 us, 0.14%)</title><rect x="339.3" y="135" width="1.6" height="15.0" fill="rgb(0,0,0)" rx="2" ry="2" />
<text  x="342.29" y="145.5" ></text>
</g>
<g >
<title>MatPtAPNumeric (25,869 us, 0.03%)</title><rect x="651.4" y="199" width="0.4" height="15.0" fill="rgb(0,0,0)" rx="2" ry="2" />
<text  x="654.44" y="209.5" ></text>
</g>
<g >
<title>KSPSolve (3,732,979 us, 3.89%)</title><rect x="546.1" y="183" width="45.8" height="15.0" fill="rgb(0,0,0)" rx="2" ry="2" />
<text  x="549.10" y="193.5" >KSP..</text>
</g>
<g >
<title>firedrake.variational_solver.LinearVariationalProblem.__init__ (12,279 us, 0.01%)</title><rect x="523.9" y="71" width="0.2" height="15.0" fill="rgb(0,0,0)" rx="2" ry="2" />
<text  x="526.91" y="81.5" ></text>
</g>
<g >
<title>MatMatMultNum (17,167 us, 0.02%)</title><rect x="648.6" y="231" width="0.2" height="15.0" fill="rgb(0,0,0)" rx="2" ry="2" />
<text  x="651.60" y="241.5" ></text>
</g>
<g >
<title>ParLoopExecute (975,824 us, 1.02%)</title><rect x="21.7" y="103" width="12.0" height="15.0" fill="rgb(0,0,0)" rx="2" ry="2" />
<text  x="24.69" y="113.5" ></text>
</g>
<g >
<title>firedrake.__init__ (1,500,777 us, 1.56%)</title><rect x="34.0" y="71" width="18.4" height="15.0" fill="rgb(0,0,0)" rx="2" ry="2" />
<text  x="36.97" y="81.5" ></text>
</g>
<g >
<title>firedrake.assemble.assemble (14,456,915 us, 15.05%)</title><rect x="346.3" y="103" width="177.6" height="15.0" fill="rgb(0,0,0)" rx="2" ry="2" />
<text  x="349.34" y="113.5" >firedrake.assemble.as..</text>
</g>
<g >
<title>VecMDot (22,030 us, 0.02%)</title><rect x="540.3" y="135" width="0.2" height="15.0" fill="rgb(0,0,0)" rx="2" ry="2" />
<text  x="543.26" y="145.5" ></text>
</g>
<g >
<title>PCSetUp (334,256 us, 0.35%)</title><rect x="709.7" y="103" width="4.2" height="15.0" fill="rgb(0,0,0)" rx="2" ry="2" />
<text  x="712.75" y="113.5" ></text>
</g>
<g >
<title>KSPSolve (3,734,059 us, 3.89%)</title><rect x="654.1" y="215" width="45.9" height="15.0" fill="rgb(0,0,0)" rx="2" ry="2" />
<text  x="657.10" y="225.5" >KSP..</text>
</g>
<g >
<title>VecSet (13,525 us, 0.01%)</title><rect x="591.5" y="231" width="0.1" height="15.0" fill="rgb(0,0,0)" rx="2" ry="2" />
<text  x="594.46" y="241.5" ></text>
</g>
<g >
<title>Parloop_Cells_wrap_form_cell_integral_otherwise (12,724,216 us, 13.24%)</title><rect x="346.3" y="135" width="156.3" height="15.0" fill="rgb(0,0,0)" rx="2" ry="2" />
<text  x="349.34" y="145.5" >Parloop_Cells_wrap..</text>
</g>
<g >
<title>KSPSolve (29,701 us, 0.03%)</title><rect x="338.9" y="151" width="0.4" height="15.0" fill="rgb(0,0,0)" rx="2" ry="2" />
<text  x="341.93" y="161.5" ></text>
</g>
<g >
<title>pyop2.global_kernel.GlobalKernel.compile (13,177,539 us, 13.72%)</title><rect x="838.3" y="151" width="161.8" height="15.0" fill="rgb(0,0,0)" rx="2" ry="2" />
<text  x="841.26" y="161.5" >pyop2.global_kernel..</text>
</g>
<g >
<title>SNESJacobianEval (28,780,506 us, 29.96%)</title><rect x="836.5" y="103" width="353.5" height="15.0" fill="rgb(0,0,0)" rx="2" ry="2" />
<text  x="839.50" y="113.5" >SNESJacobianEval</text>
</g>
<g >
<title>KSPSolve (3,734,780 us, 3.89%)</title><rect x="595.4" y="183" width="45.9" height="15.0" fill="rgb(0,0,0)" rx="2" ry="2" />
<text  x="598.40" y="193.5" >KSP..</text>
</g>
<g >
<title>MatMultTranspose (13,684 us, 0.01%)</title><rect x="641.3" y="183" width="0.1" height="15.0" fill="rgb(0,0,0)" rx="2" ry="2" />
<text  x="644.27" y="193.5" ></text>
</g>
<g >
<title>PCApply (2,331,318 us, 2.43%)</title><rect x="612.1" y="231" width="28.7" height="15.0" fill="rgb(0,0,0)" rx="2" ry="2" />
<text  x="615.14" y="241.5" >P..</text>
</g>
<g >
<title>firedrake.norms.norm (14,456,915 us, 15.05%)</title><rect x="346.3" y="87" width="177.6" height="15.0" fill="rgb(0,0,0)" rx="2" ry="2" />
<text  x="349.34" y="97.5" >firedrake.norms.norm</text>
</g>
<g >
<title>firedrake.functionspaceimpl.FunctionSpace.__init__ (23,849 us, 0.02%)</title><rect x="33.7" y="87" width="0.3" height="15.0" fill="rgb(0,0,0)" rx="2" ry="2" />
<text  x="36.67" y="97.5" ></text>
</g>
<g >
<title>PCApply (2,344,921 us, 2.44%)</title><rect x="612.1" y="199" width="28.8" height="15.0" fill="rgb(0,0,0)" rx="2" ry="2" />
<text  x="615.14" y="209.5" >P..</text>
</g>
<g >
<title>PCGAMG Opt l00 (37,001 us, 0.04%)</title><rect x="648.6" y="215" width="0.5" height="15.0" fill="rgb(0,0,0)" rx="2" ry="2" />
<text  x="651.60" y="225.5" ></text>
</g>
<g >
<title>firedrake.dmhooks.create_field_decomposition (33,702 us, 0.04%)</title><rect x="713.4" y="119" width="0.5" height="15.0" fill="rgb(0,0,0)" rx="2" ry="2" />
<text  x="716.44" y="129.5" ></text>
</g>
<g >
<title>PCApply (29,701 us, 0.03%)</title><rect x="338.9" y="135" width="0.4" height="15.0" fill="rgb(0,0,0)" rx="2" ry="2" />
<text  x="341.93" y="145.5" ></text>
</g>
<g >
<title>PCGAMG Squ l00 (129,741 us, 0.14%)</title><rect x="644.7" y="199" width="1.6" height="15.0" fill="rgb(0,0,0)" rx="2" ry="2" />
<text  x="647.71" y="209.5" ></text>
</g>
<g >
<title>ParLoopExecute (16,431,467 us, 17.10%)</title><rect x="120.6" y="119" width="201.8" height="15.0" fill="rgb(0,0,0)" rx="2" ry="2" />
<text  x="123.61" y="129.5" >ParLoopExecute</text>
</g>
<g >
<title>PCApply (99,423 us, 0.10%)</title><rect x="652.9" y="231" width="1.2" height="15.0" fill="rgb(0,0,0)" rx="2" ry="2" />
<text  x="655.88" y="241.5" ></text>
</g>
<g >
<title>firedrake.variational_solver.NonlinearVariationalSolver.__init__ (1,306,288 us, 1.36%)</title><rect x="524.1" y="71" width="16.0" height="15.0" fill="rgb(0,0,0)" rx="2" ry="2" />
<text  x="527.06" y="81.5" ></text>
</g>
<g >
<title>CreateSparsity (1,000,119 us, 1.04%)</title><rect x="524.2" y="103" width="12.3" height="15.0" fill="rgb(0,0,0)" rx="2" ry="2" />
<text  x="527.18" y="113.5" ></text>
</g>
<g >
<title>firedrake.ufl_expr.adjoint (21,139 us, 0.02%)</title><rect x="713.6" y="167" width="0.3" height="15.0" fill="rgb(0,0,0)" rx="2" ry="2" />
<text  x="716.59" y="177.5" ></text>
</g>
<g >
<title>VecSet (13,603 us, 0.01%)</title><rect x="640.8" y="231" width="0.1" height="15.0" fill="rgb(0,0,0)" rx="2" ry="2" />
<text  x="643.78" y="241.5" ></text>
</g>
<g >
<title>PCApply (29,701 us, 0.03%)</title><rect x="338.9" y="167" width="0.4" height="15.0" fill="rgb(0,0,0)" rx="2" ry="2" />
<text  x="341.93" y="177.5" ></text>
</g>
<g >
<title>firedrake.function.Function.project (23,182,247 us, 24.13%)</title><rect x="61.6" y="71" width="284.7" height="15.0" fill="rgb(0,0,0)" rx="2" ry="2" />
<text  x="64.60" y="81.5" >firedrake.function.Function.project</text>
</g>
<g >
<title>firedrake.functionspacedata.FunctionSpaceData.__init__ (23,849 us, 0.02%)</title><rect x="33.7" y="119" width="0.3" height="15.0" fill="rgb(0,0,0)" rx="2" ry="2" />
<text  x="36.67" y="129.5" ></text>
</g>
<g >
<title>pyop2.global_kernel.GlobalKernel.compile (975,824 us, 1.02%)</title><rect x="21.7" y="135" width="12.0" height="15.0" fill="rgb(0,0,0)" rx="2" ry="2" />
<text  x="24.69" y="145.5" ></text>
</g>
<g >
<title>PCApply (99,423 us, 0.10%)</title><rect x="652.9" y="199" width="1.2" height="15.0" fill="rgb(0,0,0)" rx="2" ry="2" />
<text  x="655.88" y="209.5" ></text>
</g>
<g >
<title>MatMult (1,363,458 us, 1.42%)</title><rect x="654.1" y="231" width="16.8" height="15.0" fill="rgb(0,0,0)" rx="2" ry="2" />
<text  x="657.10" y="241.5" ></text>
</g>
<g >
<title>MatResidual (266,279 us, 0.28%)</title><rect x="641.4" y="183" width="3.3" height="15.0" fill="rgb(0,0,0)" rx="2" ry="2" />
<text  x="644.44" y="193.5" ></text>
</g>
<g >
<title>firedrake.variational_solver.NonlinearVariationalSolver.solve (52,911,518 us, 55.08%)</title><rect x="540.1" y="71" width="649.9" height="15.0" fill="rgb(0,0,0)" rx="2" ry="2" />
<text  x="543.10" y="81.5" >firedrake.variational_solver.NonlinearVariationalSolver.solve</text>
</g>
<g >
<title>MatMult (265,974 us, 0.28%)</title><rect x="700.1" y="231" width="3.3" height="15.0" fill="rgb(0,0,0)" rx="2" ry="2" />
<text  x="703.14" y="241.5" ></text>
</g>
<g >
<title>SNESSolve (52,911,518 us, 55.08%)</title><rect x="540.1" y="87" width="649.9" height="15.0" fill="rgb(0,0,0)" rx="2" ry="2" />
<text  x="543.10" y="97.5" >SNESSolve</text>
</g>
<g >
<title>PCApply (2,331,456 us, 2.43%)</title><rect x="562.8" y="231" width="28.7" height="15.0" fill="rgb(0,0,0)" rx="2" ry="2" />
<text  x="565.82" y="241.5" >P..</text>
</g>
<g >
<title>MatMult (142,738 us, 0.15%)</title><rect x="707.9" y="135" width="1.7" height="15.0" fill="rgb(0,0,0)" rx="2" ry="2" />
<text  x="710.87" y="145.5" ></text>
</g>
<g >
<title>MatMult (452,944 us, 0.47%)</title><rect x="540.5" y="119" width="5.6" height="15.0" fill="rgb(0,0,0)" rx="2" ry="2" />
<text  x="543.53" y="129.5" ></text>
</g>
<g >
<title>PCGAMG Gal l00 (119,451 us, 0.12%)</title><rect x="650.0" y="183" width="1.4" height="15.0" fill="rgb(0,0,0)" rx="2" ry="2" />
<text  x="652.97" y="193.5" ></text>
</g>
<g >
<title>pyop2.global_kernel.GlobalKernel.compile (4,376,062 us, 4.56%)</title><rect x="713.9" y="151" width="53.7" height="15.0" fill="rgb(0,0,0)" rx="2" ry="2" />
<text  x="716.85" y="161.5" >pyop2..</text>
</g>
<g >
<title>  Graph (176,688 us, 0.18%)</title><rect x="646.3" y="199" width="2.2" height="15.0" fill="rgb(0,0,0)" rx="2" ry="2" />
<text  x="649.30" y="209.5" ></text>
</g>
<g >
<title>MatMatMultNum (53,711 us, 0.06%)</title><rect x="711.8" y="119" width="0.7" height="15.0" fill="rgb(0,0,0)" rx="2" ry="2" />
<text  x="714.83" y="129.5" ></text>
</g>
<g >
<title>PCApply (2,344,144 us, 2.44%)</title><rect x="670.9" y="231" width="28.7" height="15.0" fill="rgb(0,0,0)" rx="2" ry="2" />
<text  x="673.85" y="241.5" >P..</text>
</g>
<g >
<title>ParLoopExecute (730,238 us, 0.76%)</title><rect x="52.4" y="119" width="9.0" height="15.0" fill="rgb(0,0,0)" rx="2" ry="2" />
<text  x="55.40" y="129.5" ></text>
</g>
<g >
<title>ParLoopExecute (4,804,188 us, 5.00%)</title><rect x="61.6" y="103" width="59.0" height="15.0" fill="rgb(0,0,0)" rx="2" ry="2" />
<text  x="64.60" y="113.5" >ParLo..</text>
</g>
<g >
<title>firedrake.assemble_expressions.assemble_expression (748,851 us, 0.78%)</title><rect x="52.4" y="87" width="9.2" height="15.0" fill="rgb(0,0,0)" rx="2" ry="2" />
<text  x="55.40" y="97.5" ></text>
</g>
<g >
<title>GAMG: createProl (428,249 us, 0.45%)</title><rect x="644.7" y="167" width="5.3" height="15.0" fill="rgb(0,0,0)" rx="2" ry="2" />
<text  x="647.71" y="177.5" ></text>
</g>
<g >
<title>KSPSolve (99,423 us, 0.10%)</title><rect x="652.9" y="215" width="1.2" height="15.0" fill="rgb(0,0,0)" rx="2" ry="2" />
<text  x="655.88" y="225.5" ></text>
</g>
<g >
<title>KSPSolve (4,014,743 us, 4.18%)</title><rect x="595.4" y="151" width="49.3" height="15.0" fill="rgb(0,0,0)" rx="2" ry="2" />
<text  x="598.40" y="161.5" >KSPS..</text>
</g>
<g >
<title>KSPSolve (4,013,953 us, 4.18%)</title><rect x="654.1" y="183" width="49.3" height="15.0" fill="rgb(0,0,0)" rx="2" ry="2" />
<text  x="657.10" y="193.5" >KSPS..</text>
</g>
<g >
<title>MatMult (266,279 us, 0.28%)</title><rect x="641.4" y="199" width="3.3" height="15.0" fill="rgb(0,0,0)" rx="2" ry="2" />
<text  x="644.44" y="209.5" ></text>
</g>
<g >
<title>MatPtAPSymbolic (21,733 us, 0.02%)</title><rect x="651.8" y="199" width="0.2" height="15.0" fill="rgb(0,0,0)" rx="2" ry="2" />
<text  x="654.75" y="209.5" ></text>
</g>
<g >
<title>MatResidual (266,839 us, 0.28%)</title><rect x="592.1" y="183" width="3.3" height="15.0" fill="rgb(0,0,0)" rx="2" ry="2" />
<text  x="595.12" y="193.5" ></text>
</g>
<g >
<title>CreateFunctionSpace (23,849 us, 0.02%)</title><rect x="33.7" y="71" width="0.3" height="15.0" fill="rgb(0,0,0)" rx="2" ry="2" />
<text  x="36.67" y="81.5" ></text>
</g>
<g >
<title>MatTrnMatMultSym (129,741 us, 0.14%)</title><rect x="644.7" y="215" width="1.6" height="15.0" fill="rgb(0,0,0)" rx="2" ry="2" />
<text  x="647.71" y="225.5" ></text>
</g>
<g >
<title>KSPSolve_FS_Low (4,779,672 us, 4.98%)</title><rect x="595.4" y="135" width="58.7" height="15.0" fill="rgb(0,0,0)" rx="2" ry="2" />
<text  x="598.40" y="145.5" >KSPSo..</text>
</g>
<g >
<title>firedrake.projection.project (23,182,247 us, 24.13%)</title><rect x="61.6" y="87" width="284.7" height="15.0" fill="rgb(0,0,0)" rx="2" ry="2" />
<text  x="64.60" y="97.5" >firedrake.projection.project</text>
</g>
<g >
<title>MatMult (266,839 us, 0.28%)</title><rect x="592.1" y="199" width="3.3" height="15.0" fill="rgb(0,0,0)" rx="2" ry="2" />
<text  x="595.12" y="209.5" ></text>
</g>
<g >
<title>Parloop_Cells_wrap_form01_cell_integral_otherwise (6,824,066 us, 7.10%)</title><rect x="1000.1" y="135" width="83.8" height="15.0" fill="rgb(0,0,0)" rx="2" ry="2" />
<text  x="1003.11" y="145.5" >Parloop_..</text>
</g>
<g >
<title>KSPSolve (4,013,712 us, 4.18%)</title><rect x="546.1" y="151" width="49.3" height="15.0" fill="rgb(0,0,0)" rx="2" ry="2" />
<text  x="549.10" y="161.5" >KSPS..</text>
</g>
<g >
<title>MatSolve (29,701 us, 0.03%)</title><rect x="338.9" y="183" width="0.4" height="15.0" fill="rgb(0,0,0)" rx="2" ry="2" />
<text  x="341.93" y="193.5" ></text>
</g>
</g>
</svg>
