<?xml version="1.0" standalone="no"?>
<!DOCTYPE svg PUBLIC "-//W3C//DTD SVG 1.1//EN" "http://www.w3.org/Graphics/SVG/1.1/DTD/svg11.dtd">
<svg version="1.1" width="1200" height="331" onload="init(evt)" viewBox="0 0 1200 331" xmlns="http://www.w3.org/2000/svg" xmlns:xlink="http://www.w3.org/1999/xlink">
<!-- Flame graph stack visualization. See https://github.com/brendangregg/FlameGraph for latest version, and http://www.brendangregg.com/flamegraphs.html for examples. -->
<!-- NOTES:  -->
<defs>
	<linearGradient id="background" y1="0" y2="1" x1="0" x2="0" >
		<stop stop-color="#eeeeee" offset="5%" />
		<stop stop-color="#eeeeb0" offset="95%" />
	</linearGradient>
</defs>
<style type="text/css">
	text { font-family:Verdana; font-size:13px; fill:rgb(0,0,0); }
	#search, #ignorecase { opacity:0.1; cursor:pointer; }
	#search:hover, #search.show, #ignorecase:hover, #ignorecase.show { opacity:1; }
	#subtitle { text-anchor:middle; font-color:rgb(160,160,160); }
	#title { text-anchor:middle; font-size:18px}
	#unzoom { cursor:pointer; }
	#frames > *:hover { stroke:black; stroke-width:0.5; cursor:pointer; }
	.hide { display:none; }
	.parent { opacity:0.5; }
</style>
<script type="text/ecmascript">
<![CDATA[
	"use strict";
	var details, searchbtn, unzoombtn, matchedtxt, svg, searching, currentSearchTerm, ignorecase, ignorecaseBtn;
	function init(evt) {
		details = document.getElementById("details").firstChild;
		searchbtn = document.getElementById("search");
		ignorecaseBtn = document.getElementById("ignorecase");
		unzoombtn = document.getElementById("unzoom");
		matchedtxt = document.getElementById("matched");
		svg = document.getElementsByTagName("svg")[0];
		searching = 0;
		currentSearchTerm = null;

		// use GET parameters to restore a flamegraphs state.
		var params = get_params();
		if (params.x && params.y)
			zoom(find_group(document.querySelector('[x="' + params.x + '"][y="' + params.y + '"]')));
                if (params.s) search(params.s);
	}

	// event listeners
	window.addEventListener("click", function(e) {
		var target = find_group(e.target);
		if (target) {
			if (target.nodeName == "a") {
				if (e.ctrlKey === false) return;
				e.preventDefault();
			}
			if (target.classList.contains("parent")) unzoom();
			zoom(target);
			if (!document.querySelector('.parent')) {
				clearzoom();
				return;
			}

			// set parameters for zoom state
			var el = target.querySelector("rect");
			if (el && el.attributes && el.attributes.y && el.attributes._orig_x) {
				var params = get_params()
				params.x = el.attributes._orig_x.value;
				params.y = el.attributes.y.value;
				history.replaceState(null, null, parse_params(params));
			}
		}
		else if (e.target.id == "unzoom") clearzoom();
		else if (e.target.id == "search") search_prompt();
		else if (e.target.id == "ignorecase") toggle_ignorecase();
	}, false)

	// mouse-over for info
	// show
	window.addEventListener("mouseover", function(e) {
		var target = find_group(e.target);
		if (target) details.nodeValue = "Function: " + g_to_text(target);
	}, false)

	// clear
	window.addEventListener("mouseout", function(e) {
		var target = find_group(e.target);
		if (target) details.nodeValue = ' ';
	}, false)

	// ctrl-F for search
	// ctrl-I to toggle case-sensitive search
	window.addEventListener("keydown",function (e) {
		if (e.keyCode === 114 || (e.ctrlKey && e.keyCode === 70)) {
			e.preventDefault();
			search_prompt();
		}
		else if (e.ctrlKey && e.keyCode === 73) {
			e.preventDefault();
			toggle_ignorecase();
		}
	}, false)

	// functions
	function get_params() {
		var params = {};
		var paramsarr = window.location.search.substr(1).split('&');
		for (var i = 0; i < paramsarr.length; ++i) {
			var tmp = paramsarr[i].split("=");
			if (!tmp[0] || !tmp[1]) continue;
			params[tmp[0]]  = decodeURIComponent(tmp[1]);
		}
		return params;
	}
	function parse_params(params) {
		var uri = "?";
		for (var key in params) {
			uri += key + '=' + encodeURIComponent(params[key]) + '&';
		}
		if (uri.slice(-1) == "&")
			uri = uri.substring(0, uri.length - 1);
		if (uri == '?')
			uri = window.location.href.split('?')[0];
		return uri;
	}
	function find_child(node, selector) {
		var children = node.querySelectorAll(selector);
		if (children.length) return children[0];
	}
	function find_group(node) {
		var parent = node.parentElement;
		if (!parent) return;
		if (parent.id == "frames") return node;
		return find_group(parent);
	}
	function orig_save(e, attr, val) {
		if (e.attributes["_orig_" + attr] != undefined) return;
		if (e.attributes[attr] == undefined) return;
		if (val == undefined) val = e.attributes[attr].value;
		e.setAttribute("_orig_" + attr, val);
	}
	function orig_load(e, attr) {
		if (e.attributes["_orig_"+attr] == undefined) return;
		e.attributes[attr].value = e.attributes["_orig_" + attr].value;
		e.removeAttribute("_orig_"+attr);
	}
	function g_to_text(e) {
		var text = find_child(e, "title").firstChild.nodeValue;
		return (text)
	}
	function g_to_func(e) {
		var func = g_to_text(e);
		// if there's any manipulation we want to do to the function
		// name before it's searched, do it here before returning.
		return (func);
	}
	function update_text(e) {
		var r = find_child(e, "rect");
		var t = find_child(e, "text");
		var w = parseFloat(r.attributes.width.value) -3;
		var txt = find_child(e, "title").textContent.replace(/\([^(]*\)$/,"");
		t.attributes.x.value = parseFloat(r.attributes.x.value) + 3;

		// Smaller than this size won't fit anything
		if (w < 2 * 13 * 0.59) {
			t.textContent = "";
			return;
		}

		t.textContent = txt;
		// Fit in full text width
		if (/^ *$/.test(txt) || t.getSubStringLength(0, txt.length) < w)
			return;

		for (var x = txt.length - 2; x > 0; x--) {
			if (t.getSubStringLength(0, x + 2) <= w) {
				t.textContent = txt.substring(0, x) + "..";
				return;
			}
		}
		t.textContent = "";
	}

	// zoom
	function zoom_reset(e) {
		if (e.attributes != undefined) {
			orig_load(e, "x");
			orig_load(e, "width");
		}
		if (e.childNodes == undefined) return;
		for (var i = 0, c = e.childNodes; i < c.length; i++) {
			zoom_reset(c[i]);
		}
	}
	function zoom_child(e, x, ratio) {
		if (e.attributes != undefined) {
			if (e.attributes.x != undefined) {
				orig_save(e, "x");
				e.attributes.x.value = (parseFloat(e.attributes.x.value) - x - 10) * ratio + 10;
				if (e.tagName == "text")
					e.attributes.x.value = find_child(e.parentNode, "rect[x]").attributes.x.value + 3;
			}
			if (e.attributes.width != undefined) {
				orig_save(e, "width");
				e.attributes.width.value = parseFloat(e.attributes.width.value) * ratio;
			}
		}

		if (e.childNodes == undefined) return;
		for (var i = 0, c = e.childNodes; i < c.length; i++) {
			zoom_child(c[i], x - 10, ratio);
		}
	}
	function zoom_parent(e) {
		if (e.attributes) {
			if (e.attributes.x != undefined) {
				orig_save(e, "x");
				e.attributes.x.value = 10;
			}
			if (e.attributes.width != undefined) {
				orig_save(e, "width");
				e.attributes.width.value = parseInt(svg.width.baseVal.value) - (10 * 2);
			}
		}
		if (e.childNodes == undefined) return;
		for (var i = 0, c = e.childNodes; i < c.length; i++) {
			zoom_parent(c[i]);
		}
	}
	function zoom(node) {
		var attr = find_child(node, "rect").attributes;
		var width = parseFloat(attr.width.value);
		var xmin = parseFloat(attr.x.value);
		var xmax = parseFloat(xmin + width);
		var ymin = parseFloat(attr.y.value);
		var ratio = (svg.width.baseVal.value - 2 * 10) / width;

		// XXX: Workaround for JavaScript float issues (fix me)
		var fudge = 0.0001;

		unzoombtn.classList.remove("hide");

		var el = document.getElementById("frames").children;
		for (var i = 0; i < el.length; i++) {
			var e = el[i];
			var a = find_child(e, "rect").attributes;
			var ex = parseFloat(a.x.value);
			var ew = parseFloat(a.width.value);
			var upstack;
			// Is it an ancestor
			if (1 == 0) {
				upstack = parseFloat(a.y.value) > ymin;
			} else {
				upstack = parseFloat(a.y.value) < ymin;
			}
			if (upstack) {
				// Direct ancestor
				if (ex <= xmin && (ex+ew+fudge) >= xmax) {
					e.classList.add("parent");
					zoom_parent(e);
					update_text(e);
				}
				// not in current path
				else
					e.classList.add("hide");
			}
			// Children maybe
			else {
				// no common path
				if (ex < xmin || ex + fudge >= xmax) {
					e.classList.add("hide");
				}
				else {
					zoom_child(e, xmin, ratio);
					update_text(e);
				}
			}
		}
		search();
	}
	function unzoom() {
		unzoombtn.classList.add("hide");
		var el = document.getElementById("frames").children;
		for(var i = 0; i < el.length; i++) {
			el[i].classList.remove("parent");
			el[i].classList.remove("hide");
			zoom_reset(el[i]);
			update_text(el[i]);
		}
		search();
	}
	function clearzoom() {
		unzoom();

		// remove zoom state
		var params = get_params();
		if (params.x) delete params.x;
		if (params.y) delete params.y;
		history.replaceState(null, null, parse_params(params));
	}

	// search
	function toggle_ignorecase() {
		ignorecase = !ignorecase;
		if (ignorecase) {
			ignorecaseBtn.classList.add("show");
		} else {
			ignorecaseBtn.classList.remove("show");
		}
		reset_search();
		search();
	}
	function reset_search() {
		var el = document.querySelectorAll("#frames rect");
		for (var i = 0; i < el.length; i++) {
			orig_load(el[i], "fill")
		}
		var params = get_params();
		delete params.s;
		history.replaceState(null, null, parse_params(params));
	}
	function search_prompt() {
		if (!searching) {
			var term = prompt("Enter a search term (regexp " +
			    "allowed, eg: ^ext4_)"
			    + (ignorecase ? ", ignoring case" : "")
			    + "\nPress Ctrl-i to toggle case sensitivity", "");
			if (term != null) search(term);
		} else {
			reset_search();
			searching = 0;
			currentSearchTerm = null;
			searchbtn.classList.remove("show");
			searchbtn.firstChild.nodeValue = "Search"
			matchedtxt.classList.add("hide");
			matchedtxt.firstChild.nodeValue = ""
		}
	}
	function search(term) {
		if (term) currentSearchTerm = term;

		var re = new RegExp(currentSearchTerm, ignorecase ? 'i' : '');
		var el = document.getElementById("frames").children;
		var matches = new Object();
		var maxwidth = 0;
		for (var i = 0; i < el.length; i++) {
			var e = el[i];
			var func = g_to_func(e);
			var rect = find_child(e, "rect");
			if (func == null || rect == null)
				continue;

			// Save max width. Only works as we have a root frame
			var w = parseFloat(rect.attributes.width.value);
			if (w > maxwidth)
				maxwidth = w;

			if (func.match(re)) {
				// highlight
				var x = parseFloat(rect.attributes.x.value);
				orig_save(rect, "fill");
				rect.attributes.fill.value = "rgb(230,0,230)";

				// remember matches
				if (matches[x] == undefined) {
					matches[x] = w;
				} else {
					if (w > matches[x]) {
						// overwrite with parent
						matches[x] = w;
					}
				}
				searching = 1;
			}
		}
		if (!searching)
			return;
		var params = get_params();
		params.s = currentSearchTerm;
		history.replaceState(null, null, parse_params(params));

		searchbtn.classList.add("show");
		searchbtn.firstChild.nodeValue = "Reset Search";

		// calculate percent matched, excluding vertical overlap
		var count = 0;
		var lastx = -1;
		var lastw = 0;
		var keys = Array();
		for (k in matches) {
			if (matches.hasOwnProperty(k))
				keys.push(k);
		}
		// sort the matched frames by their x location
		// ascending, then width descending
		keys.sort(function(a, b){
			return a - b;
		});
		// Step through frames saving only the biggest bottom-up frames
		// thanks to the sort order. This relies on the tree property
		// where children are always smaller than their parents.
		var fudge = 0.0001;	// JavaScript floating point
		for (var k in keys) {
			var x = parseFloat(keys[k]);
			var w = matches[keys[k]];
			if (x >= lastx + lastw - fudge) {
				count += w;
				lastx = x;
				lastw = w;
			}
		}
		// display matched percent
		matchedtxt.classList.remove("hide");
		var pct = 100 * count / maxwidth;
		if (pct != 100) pct = pct.toFixed(1)
		matchedtxt.firstChild.nodeValue = "Matched: " + pct + "%";
	}
]]>
</script>
<rect x="0.0" y="0" width="1200.0" height="331.0" fill="url(#background)"  />
<text id="title" x="600.00" y="26" >Firedrake example</text>
<text id="details" x="10.00" y="313" > </text>
<text id="unzoom" x="10.00" y="26" class="hide">Reset Zoom</text>
<text id="search" x="1090.00" y="26" >Search</text>
<text id="ignorecase" x="1174.00" y="26" >ic</text>
<text id="matched" x="1090.00" y="313" > </text>
<g id="frames">
<g >
<title>KSPSolve (4,008,712 us, 4.22%)</title><rect x="545.3" y="151" width="49.7" height="15.0" fill="rgb(0,0,0)" rx="2" ry="2" />
<text  x="548.30" y="161.5" >KSPS..</text>
</g>
<g >
<title>Parloop_Cells_wrap_form0_cell_integral_otherwise (4,759,140 us, 5.00%)</title><rect x="61.6" y="119" width="59.1" height="15.0" fill="rgb(0,0,0)" rx="2" ry="2" />
<text  x="64.65" y="129.5" >Parlo..</text>
</g>
<g >
<title>MatMult (141,282 us, 0.15%)</title><rect x="708.7" y="135" width="1.8" height="15.0" fill="rgb(0,0,0)" rx="2" ry="2" />
<text  x="711.72" y="145.5" ></text>
</g>
<g >
<title>Parloop_Cells_wrap_form1_cell_integral_otherwise (4,080,779 us, 4.29%)</title><rect x="768.3" y="135" width="50.7" height="15.0" fill="rgb(0,0,0)" rx="2" ry="2" />
<text  x="771.34" y="145.5" >Parl..</text>
</g>
<g >
<title>firedrake.projection.project (23,085,770 us, 24.27%)</title><rect x="61.6" y="87" width="286.5" height="15.0" fill="rgb(0,0,0)" rx="2" ry="2" />
<text  x="64.65" y="97.5" >firedrake.projection.project</text>
</g>
<g >
<title>KSPSolve (4,007,650 us, 4.21%)</title><rect x="654.5" y="183" width="49.8" height="15.0" fill="rgb(0,0,0)" rx="2" ry="2" />
<text  x="657.53" y="193.5" >KSPS..</text>
</g>
<g >
<title>MatSOR (99,493 us, 0.10%)</title><rect x="653.2" y="247" width="1.2" height="15.0" fill="rgb(0,0,0)" rx="2" ry="2" />
<text  x="656.18" y="257.5" ></text>
</g>
<g >
<title>KSPSolve (2,337,689 us, 2.46%)</title><rect x="671.4" y="247" width="29.0" height="15.0" fill="rgb(0,0,0)" rx="2" ry="2" />
<text  x="674.44" y="257.5" >K..</text>
</g>
<g >
<title>firedrake.__init__ (1,530,551 us, 1.61%)</title><rect x="32.9" y="71" width="19.0" height="15.0" fill="rgb(0,0,0)" rx="2" ry="2" />
<text  x="35.86" y="81.5" ></text>
</g>
<g >
<title>PCApply (2,325,258 us, 2.44%)</title><rect x="562.2" y="231" width="28.9" height="15.0" fill="rgb(0,0,0)" rx="2" ry="2" />
<text  x="565.21" y="241.5" >P..</text>
</g>
<g >
<title>ParLoopExecute (16,388,152 us, 17.23%)</title><rect x="120.7" y="119" width="203.3" height="15.0" fill="rgb(0,0,0)" rx="2" ry="2" />
<text  x="123.70" y="129.5" >ParLoopExecute</text>
</g>
<g >
<title>VecAXPBYCZ (11,381 us, 0.01%)</title><rect x="641.0" y="199" width="0.1" height="15.0" fill="rgb(0,0,0)" rx="2" ry="2" />
<text  x="643.96" y="209.5" ></text>
</g>
<g >
<title>MatSOR (2,324,082 us, 2.44%)</title><rect x="671.4" y="279" width="28.9" height="15.0" fill="rgb(0,0,0)" rx="2" ry="2" />
<text  x="674.44" y="289.5" >M..</text>
</g>
<g >
<title>ParLoopExecute (8,399,834 us, 8.83%)</title><rect x="714.8" y="119" width="104.2" height="15.0" fill="rgb(0,0,0)" rx="2" ry="2" />
<text  x="717.75" y="129.5" >ParLoopExec..</text>
</g>
<g >
<title>MatPtAPNumeric (26,218 us, 0.03%)</title><rect x="651.7" y="199" width="0.3" height="15.0" fill="rgb(0,0,0)" rx="2" ry="2" />
<text  x="654.71" y="209.5" ></text>
</g>
<g >
<title>MatMatMultNum (17,209 us, 0.02%)</title><rect x="648.7" y="231" width="0.2" height="15.0" fill="rgb(0,0,0)" rx="2" ry="2" />
<text  x="651.72" y="241.5" ></text>
</g>
<g >
<title>PCSetUp (86,398 us, 0.09%)</title><rect x="707.7" y="167" width="1.0" height="15.0" fill="rgb(0,0,0)" rx="2" ry="2" />
<text  x="710.65" y="177.5" ></text>
</g>
<g >
<title>MatMultTranspose (13,926 us, 0.01%)</title><rect x="591.6" y="183" width="0.1" height="15.0" fill="rgb(0,0,0)" rx="2" ry="2" />
<text  x="594.55" y="193.5" ></text>
</g>
<g >
<title>KSPSolve_FS_0 (4,008,712 us, 4.22%)</title><rect x="545.3" y="135" width="49.7" height="15.0" fill="rgb(0,0,0)" rx="2" ry="2" />
<text  x="548.30" y="145.5" >KSPS..</text>
</g>
<g >
<title>MatMult (266,707 us, 0.28%)</title><rect x="641.5" y="199" width="3.3" height="15.0" fill="rgb(0,0,0)" rx="2" ry="2" />
<text  x="644.46" y="209.5" ></text>
</g>
<g >
<title>VecSet (13,607 us, 0.01%)</title><rect x="700.3" y="263" width="0.1" height="15.0" fill="rgb(0,0,0)" rx="2" ry="2" />
<text  x="703.28" y="273.5" ></text>
</g>
<g >
<title>all (95,103,865 us, 100%)</title><rect x="10.0" y="39" width="1180.0" height="15.0" fill="rgb(0,0,0)" rx="2" ry="2" />
<text  x="13.00" y="49.5" ></text>
</g>
<g >
<title>CreateSparsity (890,651 us, 0.94%)</title><rect x="524.6" y="103" width="11.0" height="15.0" fill="rgb(0,0,0)" rx="2" ry="2" />
<text  x="527.60" y="113.5" ></text>
</g>
<g >
<title>firedrake.solving_utils._SNESContext.split (33,882 us, 0.04%)</title><rect x="714.3" y="135" width="0.5" height="15.0" fill="rgb(0,0,0)" rx="2" ry="2" />
<text  x="717.33" y="145.5" ></text>
</g>
<g >
<title>KSPSolve_FS_Low (4,785,895 us, 5.03%)</title><rect x="595.0" y="135" width="59.4" height="15.0" fill="rgb(0,0,0)" rx="2" ry="2" />
<text  x="598.03" y="145.5" >KSPSo..</text>
</g>
<g >
<title>PCApply (2,337,689 us, 2.46%)</title><rect x="671.4" y="231" width="29.0" height="15.0" fill="rgb(0,0,0)" rx="2" ry="2" />
<text  x="674.44" y="241.5" >P..</text>
</g>
<g >
<title>firedrake.tsfc_interface.compile_form (435,016 us, 0.46%)</title><rect x="342.7" y="103" width="5.4" height="15.0" fill="rgb(0,0,0)" rx="2" ry="2" />
<text  x="345.69" y="113.5" ></text>
</g>
<g >
<title>MatSOR (2,323,044 us, 2.44%)</title><rect x="612.0" y="247" width="28.8" height="15.0" fill="rgb(0,0,0)" rx="2" ry="2" />
<text  x="614.97" y="257.5" >M..</text>
</g>
<g >
<title>KSPSolve (2,338,782 us, 2.46%)</title><rect x="562.2" y="215" width="29.0" height="15.0" fill="rgb(0,0,0)" rx="2" ry="2" />
<text  x="565.21" y="225.5" >K..</text>
</g>
<g >
<title>PCGAMGPOpt_AGG (130,984 us, 0.14%)</title><rect x="648.6" y="183" width="1.6" height="15.0" fill="rgb(0,0,0)" rx="2" ry="2" />
<text  x="651.59" y="193.5" ></text>
</g>
<g >
<title>MatMult (450,964 us, 0.47%)</title><rect x="539.7" y="119" width="5.6" height="15.0" fill="rgb(0,0,0)" rx="2" ry="2" />
<text  x="542.70" y="129.5" ></text>
</g>
<g >
<title>PCApply (4,008,434 us, 4.21%)</title><rect x="595.0" y="167" width="49.8" height="15.0" fill="rgb(0,0,0)" rx="2" ry="2" />
<text  x="598.03" y="177.5" >PCAp..</text>
</g>
<g >
<title>PCGAMGGraph_AGG (178,708 us, 0.19%)</title><rect x="646.4" y="183" width="2.2" height="15.0" fill="rgb(0,0,0)" rx="2" ry="2" />
<text  x="649.37" y="193.5" ></text>
</g>
<g >
<title>MatCreateSubMats (96,696 us, 0.10%)</title><rect x="711.5" y="119" width="1.2" height="15.0" fill="rgb(0,0,0)" rx="2" ry="2" />
<text  x="714.49" y="129.5" ></text>
</g>
<g >
<title>PCSetUpOnBlocks (86,398 us, 0.09%)</title><rect x="707.7" y="151" width="1.0" height="15.0" fill="rgb(0,0,0)" rx="2" ry="2" />
<text  x="710.65" y="161.5" ></text>
</g>
<g >
<title>KSPSolve_FS_Schu (4,376,969 us, 4.60%)</title><rect x="654.4" y="135" width="54.3" height="15.0" fill="rgb(0,0,0)" rx="2" ry="2" />
<text  x="657.42" y="145.5" >KSPSo..</text>
</g>
<g >
<title>MatMult (74,425 us, 0.08%)</title><rect x="649.3" y="215" width="0.9" height="15.0" fill="rgb(0,0,0)" rx="2" ry="2" />
<text  x="652.29" y="225.5" ></text>
</g>
<g >
<title>PCApply (29,444 us, 0.03%)</title><rect x="340.7" y="167" width="0.3" height="15.0" fill="rgb(0,0,0)" rx="2" ry="2" />
<text  x="343.66" y="177.5" ></text>
</g>
<g >
<title>firedrake.norms.errornorm (14,204,337 us, 14.94%)</title><rect x="348.1" y="71" width="176.2" height="15.0" fill="rgb(0,0,0)" rx="2" ry="2" />
<text  x="351.08" y="81.5" >firedrake.norms.erro..</text>
</g>
<g >
<title>pyop2.global_kernel.GlobalKernel.compile (4,319,055 us, 4.54%)</title><rect x="714.8" y="151" width="53.5" height="15.0" fill="rgb(0,0,0)" rx="2" ry="2" />
<text  x="717.75" y="161.5" >pyop..</text>
</g>
<g >
<title>MatSOR (2,325,258 us, 2.44%)</title><rect x="562.2" y="247" width="28.9" height="15.0" fill="rgb(0,0,0)" rx="2" ry="2" />
<text  x="565.21" y="257.5" >M..</text>
</g>
<g >
<title>KSPSolve (112,589 us, 0.12%)</title><rect x="706.3" y="183" width="1.4" height="15.0" fill="rgb(0,0,0)" rx="2" ry="2" />
<text  x="709.25" y="193.5" ></text>
</g>
<g >
<title>pyop2.global_kernel.GlobalKernel.compile (6,710,613 us, 7.06%)</title><rect x="1000.9" y="151" width="83.3" height="15.0" fill="rgb(0,0,0)" rx="2" ry="2" />
<text  x="1003.90" y="161.5" >pyop2.gl..</text>
</g>
<g >
<title>ParLoopExecute (26,716,750 us, 28.09%)</title><rect x="837.0" y="119" width="331.5" height="15.0" fill="rgb(0,0,0)" rx="2" ry="2" />
<text  x="840.00" y="129.5" >ParLoopExecute</text>
</g>
<g >
<title>Parloop_Cells_wrap_form00_cell_integral_otherwise (16,388,152 us, 17.23%)</title><rect x="120.7" y="135" width="203.3" height="15.0" fill="rgb(0,0,0)" rx="2" ry="2" />
<text  x="123.70" y="145.5" >Parloop_Cells_wrap_form0..</text>
</g>
<g >
<title>MatPtAPSymbolic (40,238 us, 0.04%)</title><rect x="651.2" y="199" width="0.5" height="15.0" fill="rgb(0,0,0)" rx="2" ry="2" />
<text  x="654.21" y="209.5" ></text>
</g>
<g >
<title>firedrake.formmanipulation.split_form (9,671 us, 0.01%)</title><rect x="1189.9" y="135" width="0.1" height="15.0" fill="rgb(0,0,0)" rx="2" ry="2" />
<text  x="1192.88" y="145.5" ></text>
</g>
<g >
<title>MatMult (266,482 us, 0.28%)</title><rect x="701.0" y="231" width="3.3" height="15.0" fill="rgb(0,0,0)" rx="2" ry="2" />
<text  x="703.95" y="241.5" ></text>
</g>
<g >
<title>firedrake.formmanipulation.ExtractSubBlock.split (9,671 us, 0.01%)</title><rect x="1189.9" y="151" width="0.1" height="15.0" fill="rgb(0,0,0)" rx="2" ry="2" />
<text  x="1192.88" y="161.5" ></text>
</g>
<g >
<title>firedrake.norms.norm (14,204,337 us, 14.94%)</title><rect x="348.1" y="87" width="176.2" height="15.0" fill="rgb(0,0,0)" rx="2" ry="2" />
<text  x="351.08" y="97.5" >firedrake.norms.norm</text>
</g>
<g >
<title>FunctionSpaceData: CreateElement (12,055 us, 0.01%)</title><rect x="32.7" y="135" width="0.2" height="15.0" fill="rgb(0,0,0)" rx="2" ry="2" />
<text  x="35.71" y="145.5" ></text>
</g>
<g >
<title>firedrake.linear_solver.LinearSolver.solve (185,663 us, 0.20%)</title><rect x="340.4" y="103" width="2.3" height="15.0" fill="rgb(0,0,0)" rx="2" ry="2" />
<text  x="343.38" y="113.5" ></text>
</g>
<g >
<title>  Graph (178,708 us, 0.19%)</title><rect x="646.4" y="199" width="2.2" height="15.0" fill="rgb(0,0,0)" rx="2" ry="2" />
<text  x="649.37" y="209.5" ></text>
</g>
<g >
<title>PCApply (2,338,782 us, 2.46%)</title><rect x="562.2" y="199" width="29.0" height="15.0" fill="rgb(0,0,0)" rx="2" ry="2" />
<text  x="565.21" y="209.5" >P..</text>
</g>
<g >
<title>MatLUFactorNum (86,398 us, 0.09%)</title><rect x="707.7" y="183" width="1.0" height="15.0" fill="rgb(0,0,0)" rx="2" ry="2" />
<text  x="710.65" y="193.5" ></text>
</g>
<g >
<title>firedrake.dmhooks.create_field_decomposition (33,882 us, 0.04%)</title><rect x="714.3" y="119" width="0.5" height="15.0" fill="rgb(0,0,0)" rx="2" ry="2" />
<text  x="717.33" y="129.5" ></text>
</g>
<g >
<title>pyop2.global_kernel.GlobalKernel.compile (13,058,050 us, 13.73%)</title><rect x="838.2" y="151" width="162.0" height="15.0" fill="rgb(0,0,0)" rx="2" ry="2" />
<text  x="841.23" y="161.5" >pyop2.global_kernel..</text>
</g>
<g >
<title>MatResidual (266,707 us, 0.28%)</title><rect x="641.5" y="183" width="3.3" height="15.0" fill="rgb(0,0,0)" rx="2" ry="2" />
<text  x="644.46" y="193.5" ></text>
</g>
<g >
<title>MatSolve (29,444 us, 0.03%)</title><rect x="340.7" y="183" width="0.3" height="15.0" fill="rgb(0,0,0)" rx="2" ry="2" />
<text  x="343.66" y="193.5" ></text>
</g>
<g >
<title>MatMultAdd (18,444 us, 0.02%)</title><rect x="706.0" y="183" width="0.3" height="15.0" fill="rgb(0,0,0)" rx="2" ry="2" />
<text  x="709.02" y="193.5" ></text>
</g>
<g >
<title>MatSolve (112,589 us, 0.12%)</title><rect x="706.3" y="215" width="1.4" height="15.0" fill="rgb(0,0,0)" rx="2" ry="2" />
<text  x="709.25" y="225.5" ></text>
</g>
<g >
<title>firedrake.functionspacedata.FunctionSpaceData.__init__ (25,904 us, 0.03%)</title><rect x="32.5" y="119" width="0.4" height="15.0" fill="rgb(0,0,0)" rx="2" ry="2" />
<text  x="35.54" y="129.5" ></text>
</g>
<g >
<title>pyop2.global_kernel.GlobalKernel.compile (881,538 us, 0.93%)</title><rect x="21.6" y="135" width="10.9" height="15.0" fill="rgb(0,0,0)" rx="2" ry="2" />
<text  x="24.60" y="145.5" ></text>
</g>
<g >
<title>PCApply (4,008,712 us, 4.22%)</title><rect x="545.3" y="167" width="49.7" height="15.0" fill="rgb(0,0,0)" rx="2" ry="2" />
<text  x="548.30" y="177.5" >PCAp..</text>
</g>
<g >
<title>Log_Event_form00_cell_integral_otherwise (38,024 us, 0.04%)</title><rect x="121.6" y="151" width="0.5" height="15.0" fill="rgb(0,0,0)" rx="2" ry="2" />
<text  x="124.64" y="161.5" ></text>
</g>
<g >
<title>PCApply (99,493 us, 0.10%)</title><rect x="653.2" y="199" width="1.2" height="15.0" fill="rgb(0,0,0)" rx="2" ry="2" />
<text  x="656.18" y="209.5" ></text>
</g>
<g >
<title>firedrake.assemble.assemble (17,705,951 us, 18.62%)</title><rect x="120.7" y="103" width="219.7" height="15.0" fill="rgb(0,0,0)" rx="2" ry="2" />
<text  x="123.70" y="113.5" >firedrake.assemble.assemble</text>
</g>
<g >
<title>PCApply (13,323,114 us, 14.01%)</title><rect x="545.3" y="119" width="165.3" height="15.0" fill="rgb(0,0,0)" rx="2" ry="2" />
<text  x="548.30" y="129.5" >PCApply</text>
</g>
<g >
<title>Parloop_Cells_wrap_form0_cell_integral_otherwise (4,319,055 us, 4.54%)</title><rect x="714.8" y="135" width="53.5" height="15.0" fill="rgb(0,0,0)" rx="2" ry="2" />
<text  x="717.75" y="145.5" >Parl..</text>
</g>
<g >
<title>KSPSolve (3,728,116 us, 3.92%)</title><rect x="545.3" y="183" width="46.3" height="15.0" fill="rgb(0,0,0)" rx="2" ry="2" />
<text  x="548.30" y="193.5" >KSPS..</text>
</g>
<g >
<title>firedrake.assemble_expressions.evaluate_expression (789,229 us, 0.83%)</title><rect x="51.9" y="103" width="9.7" height="15.0" fill="rgb(0,0,0)" rx="2" ry="2" />
<text  x="54.85" y="113.5" ></text>
</g>
<g >
<title>firedrake.tsfc_interface.compile_form (577,704 us, 0.61%)</title><rect x="333.2" y="119" width="7.2" height="15.0" fill="rgb(0,0,0)" rx="2" ry="2" />
<text  x="336.21" y="129.5" ></text>
</g>
<g >
<title>Log_Event_form01_cell_integral_otherwise (12,355 us, 0.01%)</title><rect x="1000.7" y="151" width="0.2" height="15.0" fill="rgb(0,0,0)" rx="2" ry="2" />
<text  x="1003.75" y="161.5" ></text>
</g>
<g >
<title>SNESJacobianEval (28,463,528 us, 29.93%)</title><rect x="836.8" y="103" width="353.2" height="15.0" fill="rgb(0,0,0)" rx="2" ry="2" />
<text  x="839.84" y="113.5" >SNESJacobianEval</text>
</g>
<g >
<title>firedrake.assemble.allocate_matrix (740,095 us, 0.78%)</title><rect x="324.0" y="119" width="9.2" height="15.0" fill="rgb(0,0,0)" rx="2" ry="2" />
<text  x="327.03" y="129.5" ></text>
</g>
<g >
<title>ParLoopExecute (881,538 us, 0.93%)</title><rect x="21.6" y="103" width="10.9" height="15.0" fill="rgb(0,0,0)" rx="2" ry="2" />
<text  x="24.60" y="113.5" ></text>
</g>
<g >
<title>pyop2.global_kernel.GlobalKernel.compile (4,759,140 us, 5.00%)</title><rect x="61.6" y="135" width="59.1" height="15.0" fill="rgb(0,0,0)" rx="2" ry="2" />
<text  x="64.65" y="145.5" >pyop2..</text>
</g>
<g >
<title>MatTrnMatMultSym (129,296 us, 0.14%)</title><rect x="644.8" y="215" width="1.6" height="15.0" fill="rgb(0,0,0)" rx="2" ry="2" />
<text  x="647.77" y="225.5" ></text>
</g>
<g >
<title>KSPGMRESOrthog (19,447 us, 0.02%)</title><rect x="539.5" y="119" width="0.2" height="15.0" fill="rgb(0,0,0)" rx="2" ry="2" />
<text  x="542.46" y="129.5" ></text>
</g>
<g >
<title>MatPtAPNumeric (80,450 us, 0.08%)</title><rect x="650.2" y="199" width="1.0" height="15.0" fill="rgb(0,0,0)" rx="2" ry="2" />
<text  x="653.22" y="209.5" ></text>
</g>
<g >
<title>firedrake.tsfc_interface.compile_form (1,734,212 us, 1.82%)</title><rect x="1168.5" y="119" width="21.5" height="15.0" fill="rgb(0,0,0)" rx="2" ry="2" />
<text  x="1171.48" y="129.5" ></text>
</g>
<g >
<title>Parloop_Cells_wrap_form10_cell_integral_otherwise (6,795,852 us, 7.15%)</title><rect x="1084.2" y="135" width="84.3" height="15.0" fill="rgb(0,0,0)" rx="2" ry="2" />
<text  x="1087.16" y="145.5" >Parloop_..</text>
</g>
<g >
<title>VecAYPX (14,767 us, 0.02%)</title><rect x="591.4" y="199" width="0.2" height="15.0" fill="rgb(0,0,0)" rx="2" ry="2" />
<text  x="594.37" y="209.5" ></text>
</g>
<g >
<title>firedrake.function.Function.project (23,085,770 us, 24.27%)</title><rect x="61.6" y="71" width="286.5" height="15.0" fill="rgb(0,0,0)" rx="2" ry="2" />
<text  x="64.65" y="81.5" >firedrake.function.Function.project</text>
</g>
<g >
<title>Log_Event_form10_cell_integral_otherwise (11,620 us, 0.01%)</title><rect x="1084.6" y="151" width="0.2" height="15.0" fill="rgb(0,0,0)" rx="2" ry="2" />
<text  x="1087.62" y="161.5" ></text>
</g>
<g >
<title>PCApply (99,493 us, 0.10%)</title><rect x="653.2" y="231" width="1.2" height="15.0" fill="rgb(0,0,0)" rx="2" ry="2" />
<text  x="656.18" y="241.5" ></text>
</g>
<g >
<title>SNESSolve (52,444,336 us, 55.14%)</title><rect x="539.3" y="87" width="650.7" height="15.0" fill="rgb(0,0,0)" rx="2" ry="2" />
<text  x="542.30" y="97.5" >SNESSolve</text>
</g>
<g >
<title>Parloop_Cells_wrap_form01_cell_integral_otherwise (6,763,169 us, 7.11%)</title><rect x="1000.2" y="135" width="84.0" height="15.0" fill="rgb(0,0,0)" rx="2" ry="2" />
<text  x="1003.25" y="145.5" >Parloop_..</text>
</g>
<g >
<title>PCApply (2,323,044 us, 2.44%)</title><rect x="612.0" y="231" width="28.8" height="15.0" fill="rgb(0,0,0)" rx="2" ry="2" />
<text  x="614.97" y="241.5" >P..</text>
</g>
<g >
<title>MatResidual (266,482 us, 0.28%)</title><rect x="701.0" y="215" width="3.3" height="15.0" fill="rgb(0,0,0)" rx="2" ry="2" />
<text  x="703.95" y="225.5" ></text>
</g>
<g >
<title>Log_Event_form00_cell_integral_otherwise (20,944 us, 0.02%)</title><rect x="838.0" y="151" width="0.2" height="15.0" fill="rgb(0,0,0)" rx="2" ry="2" />
<text  x="840.97" y="161.5" ></text>
</g>
<g >
<title>MatMult (1,364,721 us, 1.43%)</title><rect x="595.0" y="199" width="17.0" height="15.0" fill="rgb(0,0,0)" rx="2" ry="2" />
<text  x="598.03" y="209.5" ></text>
</g>
<g >
<title>Parloop_Cells_wrap_form_cell_integral_otherwise (12,488,597 us, 13.13%)</title><rect x="348.1" y="135" width="154.9" height="15.0" fill="rgb(0,0,0)" rx="2" ry="2" />
<text  x="351.08" y="145.5" >Parloop_Cells_wrap..</text>
</g>
<g >
<title>SNESFunctionEval (9,839,917 us, 10.35%)</title><rect x="714.8" y="103" width="122.0" height="15.0" fill="rgb(0,0,0)" rx="2" ry="2" />
<text  x="717.75" y="113.5" >SNESFunctionE..</text>
</g>
<g >
<title>KSPSolve (84,209 us, 0.09%)</title><rect x="649.2" y="199" width="1.0" height="15.0" fill="rgb(0,0,0)" rx="2" ry="2" />
<text  x="652.17" y="209.5" ></text>
</g>
<g >
<title>GAMG: partLevel (179,029 us, 0.19%)</title><rect x="650.2" y="167" width="2.2" height="15.0" fill="rgb(0,0,0)" rx="2" ry="2" />
<text  x="653.22" y="177.5" ></text>
</g>
<g >
<title>MatConvert (26,227 us, 0.03%)</title><rect x="648.1" y="215" width="0.3" height="15.0" fill="rgb(0,0,0)" rx="2" ry="2" />
<text  x="651.10" y="225.5" ></text>
</g>
<g >
<title>MatZeroEntries (12,566 us, 0.01%)</title><rect x="836.8" y="119" width="0.2" height="15.0" fill="rgb(0,0,0)" rx="2" ry="2" />
<text  x="839.84" y="129.5" ></text>
</g>
<g >
<title>KSPSolve (51,648 us, 0.05%)</title><rect x="340.4" y="119" width="0.6" height="15.0" fill="rgb(0,0,0)" rx="2" ry="2" />
<text  x="343.38" y="129.5" ></text>
</g>
<g >
<title>MatZeroInitial (198,752 us, 0.21%)</title><rect x="330.7" y="135" width="2.5" height="15.0" fill="rgb(0,0,0)" rx="2" ry="2" />
<text  x="333.75" y="145.5" ></text>
</g>
<g >
<title>  SA: smooth (46,775 us, 0.05%)</title><rect x="648.6" y="199" width="0.6" height="15.0" fill="rgb(0,0,0)" rx="2" ry="2" />
<text  x="651.59" y="209.5" ></text>
</g>
<g >
<title>MatMultTranspose (14,364 us, 0.02%)</title><rect x="700.8" y="215" width="0.2" height="15.0" fill="rgb(0,0,0)" rx="2" ry="2" />
<text  x="703.78" y="225.5" ></text>
</g>
<g >
<title>KSPSetUp (159,444 us, 0.17%)</title><rect x="652.4" y="167" width="2.0" height="15.0" fill="rgb(0,0,0)" rx="2" ry="2" />
<text  x="655.44" y="177.5" ></text>
</g>
<g >
<title>Parloop_Cells_wrap_pyop2_kernel_uniform_extrusion (881,538 us, 0.93%)</title><rect x="21.6" y="119" width="10.9" height="15.0" fill="rgb(0,0,0)" rx="2" ry="2" />
<text  x="24.60" y="129.5" ></text>
</g>
<g >
<title>MatMatMultSym (19,357 us, 0.02%)</title><rect x="648.9" y="231" width="0.3" height="15.0" fill="rgb(0,0,0)" rx="2" ry="2" />
<text  x="651.93" y="241.5" ></text>
</g>
<g >
<title>MatPtAPNumeric (10,272 us, 0.01%)</title><rect x="652.3" y="199" width="0.1" height="15.0" fill="rgb(0,0,0)" rx="2" ry="2" />
<text  x="655.31" y="209.5" ></text>
</g>
<g >
<title>MatResidual (266,670 us, 0.28%)</title><rect x="591.7" y="183" width="3.3" height="15.0" fill="rgb(0,0,0)" rx="2" ry="2" />
<text  x="594.73" y="193.5" ></text>
</g>
<g >
<title>MatMult (59,951 us, 0.06%)</title><rect x="652.4" y="199" width="0.8" height="15.0" fill="rgb(0,0,0)" rx="2" ry="2" />
<text  x="655.44" y="209.5" ></text>
</g>
<g >
<title>PCGAMG Gal l00 (120,688 us, 0.13%)</title><rect x="650.2" y="183" width="1.5" height="15.0" fill="rgb(0,0,0)" rx="2" ry="2" />
<text  x="653.22" y="193.5" ></text>
</g>
<g >
<title>VecSet (13,592 us, 0.01%)</title><rect x="640.8" y="231" width="0.2" height="15.0" fill="rgb(0,0,0)" rx="2" ry="2" />
<text  x="643.79" y="241.5" ></text>
</g>
<g >
<title>PCSetUp (334,310 us, 0.35%)</title><rect x="710.6" y="103" width="4.2" height="15.0" fill="rgb(0,0,0)" rx="2" ry="2" />
<text  x="713.60" y="113.5" ></text>
</g>
<g >
<title>MatAXPY (53,543 us, 0.06%)</title><rect x="710.8" y="119" width="0.7" height="15.0" fill="rgb(0,0,0)" rx="2" ry="2" />
<text  x="713.82" y="129.5" ></text>
</g>
<g >
<title>VecMDot (19,447 us, 0.02%)</title><rect x="539.5" y="135" width="0.2" height="15.0" fill="rgb(0,0,0)" rx="2" ry="2" />
<text  x="542.46" y="145.5" ></text>
</g>
<g >
<title>MatMatMultSym (78,606 us, 0.08%)</title><rect x="713.4" y="119" width="0.9" height="15.0" fill="rgb(0,0,0)" rx="2" ry="2" />
<text  x="716.35" y="129.5" ></text>
</g>
<g >
<title>firedrake.tsfc_interface.compile_form (1,715,740 us, 1.80%)</title><rect x="503.0" y="119" width="21.3" height="15.0" fill="rgb(0,0,0)" rx="2" ry="2" />
<text  x="506.03" y="129.5" ></text>
</g>
<g >
<title>VecAXPBYCZ (11,388 us, 0.01%)</title><rect x="700.4" y="231" width="0.2" height="15.0" fill="rgb(0,0,0)" rx="2" ry="2" />
<text  x="703.44" y="241.5" ></text>
</g>
<g >
<title>firedrake.variational_solver.NonlinearVariationalSolver.solve (52,444,336 us, 55.14%)</title><rect x="539.3" y="71" width="650.7" height="15.0" fill="rgb(0,0,0)" rx="2" ry="2" />
<text  x="542.30" y="81.5" >firedrake.variational_solver.NonlinearVariationalSolver.solve</text>
</g>
<g >
<title>pyop2.global_kernel.GlobalKernel.compile (12,488,597 us, 13.13%)</title><rect x="348.1" y="151" width="154.9" height="15.0" fill="rgb(0,0,0)" rx="2" ry="2" />
<text  x="351.08" y="161.5" >pyop2.global_kerne..</text>
</g>
<g >
<title>firedrake.ufl_expr.adjoint (21,467 us, 0.02%)</title><rect x="714.5" y="167" width="0.3" height="15.0" fill="rgb(0,0,0)" rx="2" ry="2" />
<text  x="717.48" y="177.5" ></text>
</g>
<g >
<title>firedrake.functionspacedata.get_shared_data (25,904 us, 0.03%)</title><rect x="32.5" y="103" width="0.4" height="15.0" fill="rgb(0,0,0)" rx="2" ry="2" />
<text  x="35.54" y="113.5" ></text>
</g>
<g >
<title>firedrake.extrusion_utils.make_extruded_coords (913,832 us, 0.96%)</title><rect x="21.2" y="87" width="11.3" height="15.0" fill="rgb(0,0,0)" rx="2" ry="2" />
<text  x="24.20" y="97.5" ></text>
</g>
<g >
<title>KSPSolve (13,806,581 us, 14.52%)</title><rect x="539.3" y="103" width="171.3" height="15.0" fill="rgb(0,0,0)" rx="2" ry="2" />
<text  x="542.30" y="113.5" >KSPSolve</text>
</g>
<g >
<title>PCGAMG Gal l02 (10,272 us, 0.01%)</title><rect x="652.3" y="183" width="0.1" height="15.0" fill="rgb(0,0,0)" rx="2" ry="2" />
<text  x="655.31" y="193.5" ></text>
</g>
<g >
<title>KSPSolve (4,290,571 us, 4.51%)</title><rect x="654.4" y="151" width="53.3" height="15.0" fill="rgb(0,0,0)" rx="2" ry="2" />
<text  x="657.42" y="161.5" >KSPS..</text>
</g>
<g >
<title>KSPSolve (99,493 us, 0.10%)</title><rect x="653.2" y="215" width="1.2" height="15.0" fill="rgb(0,0,0)" rx="2" ry="2" />
<text  x="656.18" y="225.5" ></text>
</g>
<g >
<title>pyop2.global_kernel.GlobalKernel.compile (4,080,779 us, 4.29%)</title><rect x="768.3" y="151" width="50.7" height="15.0" fill="rgb(0,0,0)" rx="2" ry="2" />
<text  x="771.34" y="161.5" >pyop..</text>
</g>
<g >
<title>VecSet (13,524 us, 0.01%)</title><rect x="591.1" y="231" width="0.1" height="15.0" fill="rgb(0,0,0)" rx="2" ry="2" />
<text  x="594.06" y="241.5" ></text>
</g>
<g >
<title>PCSetUp (777,461 us, 0.82%)</title><rect x="644.8" y="151" width="9.6" height="15.0" fill="rgb(0,0,0)" rx="2" ry="2" />
<text  x="647.77" y="161.5" ></text>
</g>
<g >
<title>pyop2.caching.disk_cached.&lt;locals&gt;.decorator.&lt;locals&gt;.wrapper (18,527 us, 0.02%)</title><rect x="61.4" y="119" width="0.2" height="15.0" fill="rgb(0,0,0)" rx="2" ry="2" />
<text  x="64.42" y="129.5" ></text>
</g>
<g >
<title>KSPSolve (3,726,804 us, 3.92%)</title><rect x="654.5" y="215" width="46.3" height="15.0" fill="rgb(0,0,0)" rx="2" ry="2" />
<text  x="657.53" y="225.5" >KSPS..</text>
</g>
<g >
<title>firedrake.variational_solver.NonlinearVariationalProblem.__init__ (12,078 us, 0.01%)</title><rect x="524.3" y="87" width="0.2" height="15.0" fill="rgb(0,0,0)" rx="2" ry="2" />
<text  x="527.32" y="97.5" ></text>
</g>
<g >
<title>PCApply (112,589 us, 0.12%)</title><rect x="706.3" y="167" width="1.4" height="15.0" fill="rgb(0,0,0)" rx="2" ry="2" />
<text  x="709.25" y="177.5" ></text>
</g>
<g >
<title>KSPSolve (159,444 us, 0.17%)</title><rect x="652.4" y="183" width="2.0" height="15.0" fill="rgb(0,0,0)" rx="2" ry="2" />
<text  x="655.44" y="193.5" ></text>
</g>
<g >
<title>PCSetUpOnBlocks (134,015 us, 0.14%)</title><rect x="341.0" y="119" width="1.7" height="15.0" fill="rgb(0,0,0)" rx="2" ry="2" />
<text  x="344.02" y="129.5" ></text>
</g>
<g >
<title>firedrake.assemble_expressions.assemble_expression (789,229 us, 0.83%)</title><rect x="51.9" y="87" width="9.7" height="15.0" fill="rgb(0,0,0)" rx="2" ry="2" />
<text  x="54.85" y="97.5" ></text>
</g>
<g >
<title>firedrake.variational_solver.LinearVariationalProblem.__init__ (12,078 us, 0.01%)</title><rect x="524.3" y="71" width="0.2" height="15.0" fill="rgb(0,0,0)" rx="2" ry="2" />
<text  x="527.32" y="81.5" ></text>
</g>
<g >
<title>MatMultTranspose (14,114 us, 0.01%)</title><rect x="641.3" y="183" width="0.2" height="15.0" fill="rgb(0,0,0)" rx="2" ry="2" />
<text  x="644.28" y="193.5" ></text>
</g>
<g >
<title>firedrake.ufl_expr.adjoint (12,078 us, 0.01%)</title><rect x="524.3" y="103" width="0.2" height="15.0" fill="rgb(0,0,0)" rx="2" ry="2" />
<text  x="527.32" y="113.5" ></text>
</g>
<g >
<title>MatZeroInitial (294,188 us, 0.31%)</title><rect x="535.6" y="103" width="3.7" height="15.0" fill="rgb(0,0,0)" rx="2" ry="2" />
<text  x="538.65" y="113.5" ></text>
</g>
<g >
<title>KSPSolve (2,336,636 us, 2.46%)</title><rect x="612.0" y="215" width="29.0" height="15.0" fill="rgb(0,0,0)" rx="2" ry="2" />
<text  x="614.97" y="225.5" >K..</text>
</g>
<g >
<title>pyop2.global_kernel.GlobalKernel.compile (6,747,224 us, 7.09%)</title><rect x="1084.8" y="151" width="83.7" height="15.0" fill="rgb(0,0,0)" rx="2" ry="2" />
<text  x="1087.77" y="161.5" >pyop2.gl..</text>
</g>
<g >
<title>pyop2.global_kernel.GlobalKernel.compile (367,236 us, 0.39%)</title><rect x="51.9" y="151" width="4.5" height="15.0" fill="rgb(0,0,0)" rx="2" ry="2" />
<text  x="54.85" y="161.5" ></text>
</g>
<g >
<title>MatCholFctrNum (134,015 us, 0.14%)</title><rect x="341.0" y="151" width="1.7" height="15.0" fill="rgb(0,0,0)" rx="2" ry="2" />
<text  x="344.02" y="161.5" ></text>
</g>
<g >
<title>MatMult (266,670 us, 0.28%)</title><rect x="591.7" y="199" width="3.3" height="15.0" fill="rgb(0,0,0)" rx="2" ry="2" />
<text  x="594.73" y="209.5" ></text>
</g>
<g >
<title>ParLoopExecute (12,488,597 us, 13.13%)</title><rect x="348.1" y="119" width="154.9" height="15.0" fill="rgb(0,0,0)" rx="2" ry="2" />
<text  x="351.08" y="129.5" >ParLoopExecute</text>
</g>
<g >
<title>MatMult (1,362,503 us, 1.43%)</title><rect x="654.5" y="231" width="16.9" height="15.0" fill="rgb(0,0,0)" rx="2" ry="2" />
<text  x="657.53" y="241.5" ></text>
</g>
<g >
<title>PCGAMG Gal l01 (48,069 us, 0.05%)</title><rect x="651.7" y="183" width="0.6" height="15.0" fill="rgb(0,0,0)" rx="2" ry="2" />
<text  x="654.71" y="193.5" ></text>
</g>
<g >
<title>firedrake.assemble.assemble (14,204,337 us, 14.94%)</title><rect x="348.1" y="103" width="176.2" height="15.0" fill="rgb(0,0,0)" rx="2" ry="2" />
<text  x="351.08" y="113.5" >firedrake.assemble.a..</text>
</g>
<g >
<title>GAMG: createProl (438,988 us, 0.46%)</title><rect x="644.8" y="167" width="5.4" height="15.0" fill="rgb(0,0,0)" rx="2" ry="2" />
<text  x="647.77" y="177.5" ></text>
</g>
<g >
<title>firedrake (95,103,865 us, 100.00%)</title><rect x="10.0" y="55" width="1180.0" height="15.0" fill="rgb(0,0,0)" rx="2" ry="2" />
<text  x="13.00" y="65.5" >firedrake</text>
</g>
<g >
<title>firedrake.variational_solver.NonlinearVariationalProblem.__init__ (21,467 us, 0.02%)</title><rect x="714.5" y="151" width="0.3" height="15.0" fill="rgb(0,0,0)" rx="2" ry="2" />
<text  x="717.48" y="161.5" ></text>
</g>
<g >
<title>ParLoopExecute (770,702 us, 0.81%)</title><rect x="51.9" y="119" width="9.5" height="15.0" fill="rgb(0,0,0)" rx="2" ry="2" />
<text  x="54.85" y="129.5" ></text>
</g>
<g >
<title>PCGAMG Opt l00 (36,566 us, 0.04%)</title><rect x="648.7" y="215" width="0.5" height="15.0" fill="rgb(0,0,0)" rx="2" ry="2" />
<text  x="651.72" y="225.5" ></text>
</g>
<g >
<title>KSPSolve (4,008,434 us, 4.21%)</title><rect x="595.0" y="151" width="49.8" height="15.0" fill="rgb(0,0,0)" rx="2" ry="2" />
<text  x="598.03" y="161.5" >KSPS..</text>
</g>
<g >
<title>PCSetUp (134,015 us, 0.14%)</title><rect x="341.0" y="135" width="1.7" height="15.0" fill="rgb(0,0,0)" rx="2" ry="2" />
<text  x="344.02" y="145.5" ></text>
</g>
<g >
<title>MatMult (142,242 us, 0.15%)</title><rect x="704.3" y="183" width="1.7" height="15.0" fill="rgb(0,0,0)" rx="2" ry="2" />
<text  x="707.26" y="193.5" ></text>
</g>
<g >
<title>Parloop_set_#x7fc900650520_wrap_expression_kernel (403,466 us, 0.42%)</title><rect x="56.4" y="135" width="5.0" height="15.0" fill="rgb(0,0,0)" rx="2" ry="2" />
<text  x="59.41" y="145.5" ></text>
</g>
<g >
<title>MatMult (1,363,218 us, 1.43%)</title><rect x="545.3" y="199" width="16.9" height="15.0" fill="rgb(0,0,0)" rx="2" ry="2" />
<text  x="548.30" y="209.5" ></text>
</g>
<g >
<title>MatMatMultNum (53,770 us, 0.06%)</title><rect x="712.7" y="119" width="0.7" height="15.0" fill="rgb(0,0,0)" rx="2" ry="2" />
<text  x="715.69" y="129.5" ></text>
</g>
<g >
<title>firedrake.tsfc_interface.compile_form (1,440,083 us, 1.51%)</title><rect x="819.0" y="119" width="17.8" height="15.0" fill="rgb(0,0,0)" rx="2" ry="2" />
<text  x="821.97" y="129.5" ></text>
</g>
<g >
<title>MatScale (13,012 us, 0.01%)</title><rect x="648.4" y="215" width="0.2" height="15.0" fill="rgb(0,0,0)" rx="2" ry="2" />
<text  x="651.43" y="225.5" ></text>
</g>
<g >
<title>CreateSparsity (541,343 us, 0.57%)</title><rect x="324.0" y="135" width="6.7" height="15.0" fill="rgb(0,0,0)" rx="2" ry="2" />
<text  x="327.03" y="145.5" ></text>
</g>
<g >
<title>VecAYPX (14,875 us, 0.02%)</title><rect x="641.1" y="199" width="0.2" height="15.0" fill="rgb(0,0,0)" rx="2" ry="2" />
<text  x="644.10" y="209.5" ></text>
</g>
<g >
<title>CreateExtMesh (924,452 us, 0.97%)</title><rect x="21.1" y="71" width="11.4" height="15.0" fill="rgb(0,0,0)" rx="2" ry="2" />
<text  x="24.07" y="81.5" ></text>
</g>
<g >
<title>PCApply (4,007,650 us, 4.21%)</title><rect x="654.5" y="199" width="49.8" height="15.0" fill="rgb(0,0,0)" rx="2" ry="2" />
<text  x="657.53" y="209.5" >PCAp..</text>
</g>
<g >
<title>PCGAMG Squ l00 (129,296 us, 0.14%)</title><rect x="644.8" y="199" width="1.6" height="15.0" fill="rgb(0,0,0)" rx="2" ry="2" />
<text  x="647.77" y="209.5" ></text>
</g>
<g >
<title>Parloop_set_#x7fc90061e410_wrap_expression_kernel (367,236 us, 0.39%)</title><rect x="51.9" y="135" width="4.5" height="15.0" fill="rgb(0,0,0)" rx="2" ry="2" />
<text  x="54.85" y="145.5" ></text>
</g>
<g >
<title>VecAXPBYCZ (11,349 us, 0.01%)</title><rect x="591.2" y="199" width="0.2" height="15.0" fill="rgb(0,0,0)" rx="2" ry="2" />
<text  x="594.23" y="209.5" ></text>
</g>
<g >
<title>firedrake.assemble.allocate_matrix (1,194,823 us, 1.26%)</title><rect x="524.5" y="87" width="14.8" height="15.0" fill="rgb(0,0,0)" rx="2" ry="2" />
<text  x="527.47" y="97.5" ></text>
</g>
<g >
<title>MatMult (22,204 us, 0.02%)</title><rect x="340.4" y="135" width="0.3" height="15.0" fill="rgb(0,0,0)" rx="2" ry="2" />
<text  x="343.38" y="145.5" ></text>
</g>
<g >
<title>PCApply (29,444 us, 0.03%)</title><rect x="340.7" y="135" width="0.3" height="15.0" fill="rgb(0,0,0)" rx="2" ry="2" />
<text  x="343.66" y="145.5" ></text>
</g>
<g >
<title>PCGAMGCoarse_AGG (129,296 us, 0.14%)</title><rect x="644.8" y="183" width="1.6" height="15.0" fill="rgb(0,0,0)" rx="2" ry="2" />
<text  x="647.77" y="193.5" ></text>
</g>
<g >
<title>pyop2.global_kernel.GlobalKernel.compile (403,466 us, 0.42%)</title><rect x="56.4" y="151" width="5.0" height="15.0" fill="rgb(0,0,0)" rx="2" ry="2" />
<text  x="59.41" y="161.5" ></text>
</g>
<g >
<title>PCApply (2,324,082 us, 2.44%)</title><rect x="671.4" y="263" width="28.9" height="15.0" fill="rgb(0,0,0)" rx="2" ry="2" />
<text  x="674.44" y="273.5" >P..</text>
</g>
<g >
<title>firedrake.variational_solver.NonlinearVariationalSolver.__init__ (1,194,823 us, 1.26%)</title><rect x="524.5" y="71" width="14.8" height="15.0" fill="rgb(0,0,0)" rx="2" ry="2" />
<text  x="527.47" y="81.5" ></text>
</g>
<g >
<title>VecAYPX (15,224 us, 0.02%)</title><rect x="700.6" y="231" width="0.2" height="15.0" fill="rgb(0,0,0)" rx="2" ry="2" />
<text  x="703.59" y="241.5" ></text>
</g>
<g >
<title>ParLoopExecute (4,759,140 us, 5.00%)</title><rect x="61.6" y="103" width="59.1" height="15.0" fill="rgb(0,0,0)" rx="2" ry="2" />
<text  x="64.65" y="113.5" >ParLo..</text>
</g>
<g >
<title>CreateFunctionSpace (25,904 us, 0.03%)</title><rect x="32.5" y="71" width="0.4" height="15.0" fill="rgb(0,0,0)" rx="2" ry="2" />
<text  x="35.54" y="81.5" ></text>
</g>
<g >
<title>MatPtAPSymbolic (21,851 us, 0.02%)</title><rect x="652.0" y="199" width="0.3" height="15.0" fill="rgb(0,0,0)" rx="2" ry="2" />
<text  x="655.04" y="209.5" ></text>
</g>
<g >
<title>Parloop_Cells_wrap_form00_cell_integral_otherwise (13,157,729 us, 13.84%)</title><rect x="837.0" y="135" width="163.2" height="15.0" fill="rgb(0,0,0)" rx="2" ry="2" />
<text  x="840.00" y="145.5" >Parloop_Cells_wrap_..</text>
</g>
<g >
<title>KSPSolve (3,727,613 us, 3.92%)</title><rect x="595.0" y="183" width="46.3" height="15.0" fill="rgb(0,0,0)" rx="2" ry="2" />
<text  x="598.03" y="193.5" >KSPS..</text>
</g>
<g >
<title>MatMult (4,168,336 us, 4.38%)</title><rect x="654.5" y="167" width="51.8" height="15.0" fill="rgb(0,0,0)" rx="2" ry="2" />
<text  x="657.53" y="177.5" >MatM..</text>
</g>
<g >
<title>pyop2.global_kernel.GlobalKernel.compile (16,273,620 us, 17.11%)</title><rect x="122.1" y="151" width="201.9" height="15.0" fill="rgb(0,0,0)" rx="2" ry="2" />
<text  x="125.12" y="161.5" >pyop2.global_kernel.Glob..</text>
</g>
<g >
<title>firedrake.functionspaceimpl.FunctionSpace.__init__ (25,904 us, 0.03%)</title><rect x="32.5" y="87" width="0.4" height="15.0" fill="rgb(0,0,0)" rx="2" ry="2" />
<text  x="35.54" y="97.5" ></text>
</g>
<g >
<title>VecScatterBegin (10,256 us, 0.01%)</title><rect x="710.5" y="135" width="0.1" height="15.0" fill="rgb(0,0,0)" rx="2" ry="2" />
<text  x="713.48" y="145.5" ></text>
</g>
<g >
<title>PCApply (2,336,636 us, 2.46%)</title><rect x="612.0" y="199" width="29.0" height="15.0" fill="rgb(0,0,0)" rx="2" ry="2" />
<text  x="614.97" y="209.5" >P..</text>
</g>
<g >
<title>PCApply (112,589 us, 0.12%)</title><rect x="706.3" y="199" width="1.4" height="15.0" fill="rgb(0,0,0)" rx="2" ry="2" />
<text  x="709.25" y="209.5" ></text>
</g>
<g >
<title>KSPSolve (29,444 us, 0.03%)</title><rect x="340.7" y="151" width="0.3" height="15.0" fill="rgb(0,0,0)" rx="2" ry="2" />
<text  x="343.66" y="161.5" ></text>
</g>
<g >
<title>firedrake.assemble.assemble (789,229 us, 0.83%)</title><rect x="51.9" y="71" width="9.7" height="15.0" fill="rgb(0,0,0)" rx="2" ry="2" />
<text  x="54.85" y="81.5" ></text>
</g>
</g>
</svg>
