<?xml version="1.0" standalone="no"?>
<!DOCTYPE svg PUBLIC "-//W3C//DTD SVG 1.1//EN" "http://www.w3.org/Graphics/SVG/1.1/DTD/svg11.dtd">
<svg version="1.1" width="1200" height="331" onload="init(evt)" viewBox="0 0 1200 331" xmlns="http://www.w3.org/2000/svg" xmlns:xlink="http://www.w3.org/1999/xlink">
<!-- Flame graph stack visualization. See https://github.com/brendangregg/FlameGraph for latest version, and http://www.brendangregg.com/flamegraphs.html for examples. -->
<!-- NOTES:  -->
<defs>
	<linearGradient id="background" y1="0" y2="1" x1="0" x2="0" >
		<stop stop-color="#eeeeee" offset="5%" />
		<stop stop-color="#eeeeb0" offset="95%" />
	</linearGradient>
</defs>
<style type="text/css">
	text { font-family:Verdana; font-size:13px; fill:rgb(0,0,0); }
	#search, #ignorecase { opacity:0.1; cursor:pointer; }
	#search:hover, #search.show, #ignorecase:hover, #ignorecase.show { opacity:1; }
	#subtitle { text-anchor:middle; font-color:rgb(160,160,160); }
	#title { text-anchor:middle; font-size:18px}
	#unzoom { cursor:pointer; }
	#frames > *:hover { stroke:black; stroke-width:0.5; cursor:pointer; }
	.hide { display:none; }
	.parent { opacity:0.5; }
</style>
<script type="text/ecmascript">
<![CDATA[
	"use strict";
	var details, searchbtn, unzoombtn, matchedtxt, svg, searching, currentSearchTerm, ignorecase, ignorecaseBtn;
	function init(evt) {
		details = document.getElementById("details").firstChild;
		searchbtn = document.getElementById("search");
		ignorecaseBtn = document.getElementById("ignorecase");
		unzoombtn = document.getElementById("unzoom");
		matchedtxt = document.getElementById("matched");
		svg = document.getElementsByTagName("svg")[0];
		searching = 0;
		currentSearchTerm = null;

		// use GET parameters to restore a flamegraphs state.
		var params = get_params();
		if (params.x && params.y)
			zoom(find_group(document.querySelector('[x="' + params.x + '"][y="' + params.y + '"]')));
                if (params.s) search(params.s);
	}

	// event listeners
	window.addEventListener("click", function(e) {
		var target = find_group(e.target);
		if (target) {
			if (target.nodeName == "a") {
				if (e.ctrlKey === false) return;
				e.preventDefault();
			}
			if (target.classList.contains("parent")) unzoom();
			zoom(target);
			if (!document.querySelector('.parent')) {
				clearzoom();
				return;
			}

			// set parameters for zoom state
			var el = target.querySelector("rect");
			if (el && el.attributes && el.attributes.y && el.attributes._orig_x) {
				var params = get_params()
				params.x = el.attributes._orig_x.value;
				params.y = el.attributes.y.value;
				history.replaceState(null, null, parse_params(params));
			}
		}
		else if (e.target.id == "unzoom") clearzoom();
		else if (e.target.id == "search") search_prompt();
		else if (e.target.id == "ignorecase") toggle_ignorecase();
	}, false)

	// mouse-over for info
	// show
	window.addEventListener("mouseover", function(e) {
		var target = find_group(e.target);
		if (target) details.nodeValue = "Function: " + g_to_text(target);
	}, false)

	// clear
	window.addEventListener("mouseout", function(e) {
		var target = find_group(e.target);
		if (target) details.nodeValue = ' ';
	}, false)

	// ctrl-F for search
	// ctrl-I to toggle case-sensitive search
	window.addEventListener("keydown",function (e) {
		if (e.keyCode === 114 || (e.ctrlKey && e.keyCode === 70)) {
			e.preventDefault();
			search_prompt();
		}
		else if (e.ctrlKey && e.keyCode === 73) {
			e.preventDefault();
			toggle_ignorecase();
		}
	}, false)

	// functions
	function get_params() {
		var params = {};
		var paramsarr = window.location.search.substr(1).split('&');
		for (var i = 0; i < paramsarr.length; ++i) {
			var tmp = paramsarr[i].split("=");
			if (!tmp[0] || !tmp[1]) continue;
			params[tmp[0]]  = decodeURIComponent(tmp[1]);
		}
		return params;
	}
	function parse_params(params) {
		var uri = "?";
		for (var key in params) {
			uri += key + '=' + encodeURIComponent(params[key]) + '&';
		}
		if (uri.slice(-1) == "&")
			uri = uri.substring(0, uri.length - 1);
		if (uri == '?')
			uri = window.location.href.split('?')[0];
		return uri;
	}
	function find_child(node, selector) {
		var children = node.querySelectorAll(selector);
		if (children.length) return children[0];
	}
	function find_group(node) {
		var parent = node.parentElement;
		if (!parent) return;
		if (parent.id == "frames") return node;
		return find_group(parent);
	}
	function orig_save(e, attr, val) {
		if (e.attributes["_orig_" + attr] != undefined) return;
		if (e.attributes[attr] == undefined) return;
		if (val == undefined) val = e.attributes[attr].value;
		e.setAttribute("_orig_" + attr, val);
	}
	function orig_load(e, attr) {
		if (e.attributes["_orig_"+attr] == undefined) return;
		e.attributes[attr].value = e.attributes["_orig_" + attr].value;
		e.removeAttribute("_orig_"+attr);
	}
	function g_to_text(e) {
		var text = find_child(e, "title").firstChild.nodeValue;
		return (text)
	}
	function g_to_func(e) {
		var func = g_to_text(e);
		// if there's any manipulation we want to do to the function
		// name before it's searched, do it here before returning.
		return (func);
	}
	function update_text(e) {
		var r = find_child(e, "rect");
		var t = find_child(e, "text");
		var w = parseFloat(r.attributes.width.value) -3;
		var txt = find_child(e, "title").textContent.replace(/\([^(]*\)$/,"");
		t.attributes.x.value = parseFloat(r.attributes.x.value) + 3;

		// Smaller than this size won't fit anything
		if (w < 2 * 13 * 0.59) {
			t.textContent = "";
			return;
		}

		t.textContent = txt;
		// Fit in full text width
		if (/^ *$/.test(txt) || t.getSubStringLength(0, txt.length) < w)
			return;

		for (var x = txt.length - 2; x > 0; x--) {
			if (t.getSubStringLength(0, x + 2) <= w) {
				t.textContent = txt.substring(0, x) + "..";
				return;
			}
		}
		t.textContent = "";
	}

	// zoom
	function zoom_reset(e) {
		if (e.attributes != undefined) {
			orig_load(e, "x");
			orig_load(e, "width");
		}
		if (e.childNodes == undefined) return;
		for (var i = 0, c = e.childNodes; i < c.length; i++) {
			zoom_reset(c[i]);
		}
	}
	function zoom_child(e, x, ratio) {
		if (e.attributes != undefined) {
			if (e.attributes.x != undefined) {
				orig_save(e, "x");
				e.attributes.x.value = (parseFloat(e.attributes.x.value) - x - 10) * ratio + 10;
				if (e.tagName == "text")
					e.attributes.x.value = find_child(e.parentNode, "rect[x]").attributes.x.value + 3;
			}
			if (e.attributes.width != undefined) {
				orig_save(e, "width");
				e.attributes.width.value = parseFloat(e.attributes.width.value) * ratio;
			}
		}

		if (e.childNodes == undefined) return;
		for (var i = 0, c = e.childNodes; i < c.length; i++) {
			zoom_child(c[i], x - 10, ratio);
		}
	}
	function zoom_parent(e) {
		if (e.attributes) {
			if (e.attributes.x != undefined) {
				orig_save(e, "x");
				e.attributes.x.value = 10;
			}
			if (e.attributes.width != undefined) {
				orig_save(e, "width");
				e.attributes.width.value = parseInt(svg.width.baseVal.value) - (10 * 2);
			}
		}
		if (e.childNodes == undefined) return;
		for (var i = 0, c = e.childNodes; i < c.length; i++) {
			zoom_parent(c[i]);
		}
	}
	function zoom(node) {
		var attr = find_child(node, "rect").attributes;
		var width = parseFloat(attr.width.value);
		var xmin = parseFloat(attr.x.value);
		var xmax = parseFloat(xmin + width);
		var ymin = parseFloat(attr.y.value);
		var ratio = (svg.width.baseVal.value - 2 * 10) / width;

		// XXX: Workaround for JavaScript float issues (fix me)
		var fudge = 0.0001;

		unzoombtn.classList.remove("hide");

		var el = document.getElementById("frames").children;
		for (var i = 0; i < el.length; i++) {
			var e = el[i];
			var a = find_child(e, "rect").attributes;
			var ex = parseFloat(a.x.value);
			var ew = parseFloat(a.width.value);
			var upstack;
			// Is it an ancestor
			if (1 == 0) {
				upstack = parseFloat(a.y.value) > ymin;
			} else {
				upstack = parseFloat(a.y.value) < ymin;
			}
			if (upstack) {
				// Direct ancestor
				if (ex <= xmin && (ex+ew+fudge) >= xmax) {
					e.classList.add("parent");
					zoom_parent(e);
					update_text(e);
				}
				// not in current path
				else
					e.classList.add("hide");
			}
			// Children maybe
			else {
				// no common path
				if (ex < xmin || ex + fudge >= xmax) {
					e.classList.add("hide");
				}
				else {
					zoom_child(e, xmin, ratio);
					update_text(e);
				}
			}
		}
		search();
	}
	function unzoom() {
		unzoombtn.classList.add("hide");
		var el = document.getElementById("frames").children;
		for(var i = 0; i < el.length; i++) {
			el[i].classList.remove("parent");
			el[i].classList.remove("hide");
			zoom_reset(el[i]);
			update_text(el[i]);
		}
		search();
	}
	function clearzoom() {
		unzoom();

		// remove zoom state
		var params = get_params();
		if (params.x) delete params.x;
		if (params.y) delete params.y;
		history.replaceState(null, null, parse_params(params));
	}

	// search
	function toggle_ignorecase() {
		ignorecase = !ignorecase;
		if (ignorecase) {
			ignorecaseBtn.classList.add("show");
		} else {
			ignorecaseBtn.classList.remove("show");
		}
		reset_search();
		search();
	}
	function reset_search() {
		var el = document.querySelectorAll("#frames rect");
		for (var i = 0; i < el.length; i++) {
			orig_load(el[i], "fill")
		}
		var params = get_params();
		delete params.s;
		history.replaceState(null, null, parse_params(params));
	}
	function search_prompt() {
		if (!searching) {
			var term = prompt("Enter a search term (regexp " +
			    "allowed, eg: ^ext4_)"
			    + (ignorecase ? ", ignoring case" : "")
			    + "\nPress Ctrl-i to toggle case sensitivity", "");
			if (term != null) search(term);
		} else {
			reset_search();
			searching = 0;
			currentSearchTerm = null;
			searchbtn.classList.remove("show");
			searchbtn.firstChild.nodeValue = "Search"
			matchedtxt.classList.add("hide");
			matchedtxt.firstChild.nodeValue = ""
		}
	}
	function search(term) {
		if (term) currentSearchTerm = term;

		var re = new RegExp(currentSearchTerm, ignorecase ? 'i' : '');
		var el = document.getElementById("frames").children;
		var matches = new Object();
		var maxwidth = 0;
		for (var i = 0; i < el.length; i++) {
			var e = el[i];
			var func = g_to_func(e);
			var rect = find_child(e, "rect");
			if (func == null || rect == null)
				continue;

			// Save max width. Only works as we have a root frame
			var w = parseFloat(rect.attributes.width.value);
			if (w > maxwidth)
				maxwidth = w;

			if (func.match(re)) {
				// highlight
				var x = parseFloat(rect.attributes.x.value);
				orig_save(rect, "fill");
				rect.attributes.fill.value = "rgb(230,0,230)";

				// remember matches
				if (matches[x] == undefined) {
					matches[x] = w;
				} else {
					if (w > matches[x]) {
						// overwrite with parent
						matches[x] = w;
					}
				}
				searching = 1;
			}
		}
		if (!searching)
			return;
		var params = get_params();
		params.s = currentSearchTerm;
		history.replaceState(null, null, parse_params(params));

		searchbtn.classList.add("show");
		searchbtn.firstChild.nodeValue = "Reset Search";

		// calculate percent matched, excluding vertical overlap
		var count = 0;
		var lastx = -1;
		var lastw = 0;
		var keys = Array();
		for (k in matches) {
			if (matches.hasOwnProperty(k))
				keys.push(k);
		}
		// sort the matched frames by their x location
		// ascending, then width descending
		keys.sort(function(a, b){
			return a - b;
		});
		// Step through frames saving only the biggest bottom-up frames
		// thanks to the sort order. This relies on the tree property
		// where children are always smaller than their parents.
		var fudge = 0.0001;	// JavaScript floating point
		for (var k in keys) {
			var x = parseFloat(keys[k]);
			var w = matches[keys[k]];
			if (x >= lastx + lastw - fudge) {
				count += w;
				lastx = x;
				lastw = w;
			}
		}
		// display matched percent
		matchedtxt.classList.remove("hide");
		var pct = 100 * count / maxwidth;
		if (pct != 100) pct = pct.toFixed(1)
		matchedtxt.firstChild.nodeValue = "Matched: " + pct + "%";
	}
]]>
</script>
<rect x="0.0" y="0" width="1200.0" height="331.0" fill="url(#background)"  />
<text id="title" x="600.00" y="26" >Firedrake example</text>
<text id="details" x="10.00" y="313" > </text>
<text id="unzoom" x="10.00" y="26" class="hide">Reset Zoom</text>
<text id="search" x="1090.00" y="26" >Search</text>
<text id="ignorecase" x="1174.00" y="26" >ic</text>
<text id="matched" x="1090.00" y="313" > </text>
<g id="frames">
<g >
<title>MatMult (57,024 us, 0.07%)</title><rect x="639.8" y="215" width="0.8" height="15.0" fill="rgb(0,0,0)" rx="2" ry="2" />
<text  x="642.80" y="225.5" ></text>
</g>
<g >
<title>MatTrnMatMultSym (413,725 us, 0.48%)</title><rect x="640.6" y="215" width="5.6" height="15.0" fill="rgb(0,0,0)" rx="2" ry="2" />
<text  x="643.58" y="225.5" ></text>
</g>
<g >
<title>pyop2.global_kernel.GlobalKernel.compile (4,067,862 us, 4.72%)</title><rect x="717.8" y="151" width="55.7" height="15.0" fill="rgb(0,0,0)" rx="2" ry="2" />
<text  x="720.81" y="161.5" >pyop2..</text>
</g>
<g >
<title>pyop2.global_kernel.GlobalKernel.compile (6,895,784 us, 8.01%)</title><rect x="1072.2" y="151" width="94.5" height="15.0" fill="rgb(0,0,0)" rx="2" ry="2" />
<text  x="1075.22" y="161.5" >pyop2.glob..</text>
</g>
<g >
<title>firedrake.function.Function.project (23,400,070 us, 27.17%)</title><rect x="67.0" y="71" width="320.6" height="15.0" fill="rgb(0,0,0)" rx="2" ry="2" />
<text  x="70.04" y="81.5" >firedrake.function.Function.project</text>
</g>
<g >
<title>  Graph (162,530 us, 0.19%)</title><rect x="646.2" y="199" width="2.3" height="15.0" fill="rgb(0,0,0)" rx="2" ry="2" />
<text  x="649.25" y="209.5" ></text>
</g>
<g >
<title>PCApply (113,426 us, 0.13%)</title><rect x="638.2" y="231" width="1.6" height="15.0" fill="rgb(0,0,0)" rx="2" ry="2" />
<text  x="641.24" y="241.5" ></text>
</g>
<g >
<title>firedrake.functionspacedata.get_shared_data (22,829 us, 0.03%)</title><rect x="34.9" y="103" width="0.3" height="15.0" fill="rgb(0,0,0)" rx="2" ry="2" />
<text  x="37.91" y="113.5" ></text>
</g>
<g >
<title>Parloop_Cells_wrap_form01_cell_integral_otherwise (6,870,334 us, 7.98%)</title><rect x="977.4" y="135" width="94.1" height="15.0" fill="rgb(0,0,0)" rx="2" ry="2" />
<text  x="980.42" y="145.5" >Parloop_Ce..</text>
</g>
<g >
<title>firedrake.functionspaceimpl.FunctionSpace.__init__ (22,829 us, 0.03%)</title><rect x="34.9" y="87" width="0.3" height="15.0" fill="rgb(0,0,0)" rx="2" ry="2" />
<text  x="37.91" y="97.5" ></text>
</g>
<g >
<title>PCApply (327,368 us, 0.38%)</title><rect x="632.2" y="231" width="4.4" height="15.0" fill="rgb(0,0,0)" rx="2" ry="2" />
<text  x="635.16" y="241.5" ></text>
</g>
<g >
<title>SNESJacobianEval (28,976,755 us, 33.64%)</title><rect x="793.0" y="103" width="397.0" height="15.0" fill="rgb(0,0,0)" rx="2" ry="2" />
<text  x="796.04" y="113.5" >SNESJacobianEval</text>
</g>
<g >
<title>PCGAMGPOpt_AGG (35,960 us, 0.04%)</title><rect x="648.5" y="183" width="0.5" height="15.0" fill="rgb(0,0,0)" rx="2" ry="2" />
<text  x="651.47" y="193.5" ></text>
</g>
<g >
<title>ParLoopExecute (4,664,057 us, 5.41%)</title><rect x="67.0" y="103" width="63.9" height="15.0" fill="rgb(0,0,0)" rx="2" ry="2" />
<text  x="70.04" y="113.5" >ParLoo..</text>
</g>
<g >
<title>firedrake.assemble_expressions.evaluate_expression (800,065 us, 0.93%)</title><rect x="56.1" y="103" width="10.9" height="15.0" fill="rgb(0,0,0)" rx="2" ry="2" />
<text  x="59.08" y="113.5" ></text>
</g>
<g >
<title>pyop2.global_kernel.GlobalKernel.compile (370,460 us, 0.43%)</title><rect x="61.7" y="151" width="5.1" height="15.0" fill="rgb(0,0,0)" rx="2" ry="2" />
<text  x="64.70" y="161.5" ></text>
</g>
<g >
<title>firedrake.assemble.assemble (14,398,889 us, 16.72%)</title><rect x="387.6" y="103" width="197.3" height="15.0" fill="rgb(0,0,0)" rx="2" ry="2" />
<text  x="390.60" y="113.5" >firedrake.assemble.asse..</text>
</g>
<g >
<title>MatSolve (113,426 us, 0.13%)</title><rect x="638.2" y="279" width="1.6" height="15.0" fill="rgb(0,0,0)" rx="2" ry="2" />
<text  x="641.24" y="289.5" ></text>
</g>
<g >
<title>ParLoopExecute (27,261,524 us, 31.65%)</title><rect x="793.2" y="119" width="373.5" height="15.0" fill="rgb(0,0,0)" rx="2" ry="2" />
<text  x="796.22" y="129.5" >ParLoopExecute</text>
</g>
<g >
<title>Parloop_Cells_wrap_form00_cell_integral_otherwise (13,446,353 us, 15.61%)</title><rect x="793.2" y="135" width="184.2" height="15.0" fill="rgb(0,0,0)" rx="2" ry="2" />
<text  x="796.22" y="145.5" >Parloop_Cells_wrap_for..</text>
</g>
<g >
<title>firedrake.ufl_expr.adjoint (21,122 us, 0.02%)</title><rect x="657.3" y="167" width="0.3" height="15.0" fill="rgb(0,0,0)" rx="2" ry="2" />
<text  x="660.29" y="177.5" ></text>
</g>
<g >
<title>KSPSolve (221,295 us, 0.26%)</title><rect x="649.2" y="183" width="3.0" height="15.0" fill="rgb(0,0,0)" rx="2" ry="2" />
<text  x="652.19" y="193.5" ></text>
</g>
<g >
<title>MatAXPY (53,654 us, 0.06%)</title><rect x="653.2" y="119" width="0.8" height="15.0" fill="rgb(0,0,0)" rx="2" ry="2" />
<text  x="656.25" y="129.5" ></text>
</g>
<g >
<title>pyop2.global_kernel.GlobalKernel.compile (891,779 us, 1.04%)</title><rect x="22.7" y="135" width="12.2" height="15.0" fill="rgb(0,0,0)" rx="2" ry="2" />
<text  x="25.70" y="145.5" ></text>
</g>
<g >
<title>MatSolve (71,541 us, 0.08%)</title><rect x="650.2" y="279" width="1.0" height="15.0" fill="rgb(0,0,0)" rx="2" ry="2" />
<text  x="653.23" y="289.5" ></text>
</g>
<g >
<title>firedrake.assemble.assemble (800,065 us, 0.93%)</title><rect x="56.1" y="71" width="10.9" height="15.0" fill="rgb(0,0,0)" rx="2" ry="2" />
<text  x="59.08" y="81.5" ></text>
</g>
<g >
<title>firedrake.variational_solver.LinearVariationalProblem.__init__ (12,569 us, 0.01%)</title><rect x="584.9" y="71" width="0.1" height="15.0" fill="rgb(0,0,0)" rx="2" ry="2" />
<text  x="587.86" y="81.5" ></text>
</g>
<g >
<title>MatSolve (113,397 us, 0.13%)</title><rect x="608.8" y="215" width="1.5" height="15.0" fill="rgb(0,0,0)" rx="2" ry="2" />
<text  x="611.76" y="225.5" ></text>
</g>
<g >
<title>pyop2.global_kernel.GlobalKernel.compile (16,514,666 us, 19.17%)</title><rect x="132.5" y="151" width="226.2" height="15.0" fill="rgb(0,0,0)" rx="2" ry="2" />
<text  x="135.48" y="161.5" >pyop2.global_kernel.GlobalK..</text>
</g>
<g >
<title>KSPSolve (1,181,120 us, 1.37%)</title><rect x="611.6" y="215" width="16.2" height="15.0" fill="rgb(0,0,0)" rx="2" ry="2" />
<text  x="614.59" y="225.5" ></text>
</g>
<g >
<title>Log_Event_form01_cell_integral_otherwise (12,472 us, 0.01%)</title><rect x="978.0" y="151" width="0.1" height="15.0" fill="rgb(0,0,0)" rx="2" ry="2" />
<text  x="980.97" y="161.5" ></text>
</g>
<g >
<title>firedrake.assemble.allocate_matrix (726,806 us, 0.84%)</title><rect x="358.7" y="119" width="10.0" height="15.0" fill="rgb(0,0,0)" rx="2" ry="2" />
<text  x="361.72" y="129.5" ></text>
</g>
<g >
<title>pyop2.caching.disk_cached.&lt;locals&gt;.decorator.&lt;locals&gt;.wrapper (19,022 us, 0.02%)</title><rect x="66.8" y="119" width="0.2" height="15.0" fill="rgb(0,0,0)" rx="2" ry="2" />
<text  x="69.78" y="129.5" ></text>
</g>
<g >
<title>MatMult (35,480 us, 0.04%)</title><rect x="651.2" y="215" width="0.5" height="15.0" fill="rgb(0,0,0)" rx="2" ry="2" />
<text  x="654.21" y="225.5" ></text>
</g>
<g >
<title>MatMult (585,205 us, 0.68%)</title><rect x="612.0" y="231" width="8.0" height="15.0" fill="rgb(0,0,0)" rx="2" ry="2" />
<text  x="614.98" y="241.5" ></text>
</g>
<g >
<title>pyop2.global_kernel.GlobalKernel.compile (410,583 us, 0.48%)</title><rect x="56.1" y="151" width="5.6" height="15.0" fill="rgb(0,0,0)" rx="2" ry="2" />
<text  x="59.08" y="161.5" ></text>
</g>
<g >
<title>firedrake.tsfc_interface.compile_form (623,828 us, 0.72%)</title><rect x="379.1" y="103" width="8.5" height="15.0" fill="rgb(0,0,0)" rx="2" ry="2" />
<text  x="382.06" y="113.5" ></text>
</g>
<g >
<title>firedrake.variational_solver.NonlinearVariationalProblem.__init__ (21,122 us, 0.02%)</title><rect x="657.3" y="151" width="0.3" height="15.0" fill="rgb(0,0,0)" rx="2" ry="2" />
<text  x="660.29" y="161.5" ></text>
</g>
<g >
<title>SNESFunctionEval (9,887,829 us, 11.48%)</title><rect x="657.6" y="103" width="135.4" height="15.0" fill="rgb(0,0,0)" rx="2" ry="2" />
<text  x="660.58" y="113.5" >SNESFunctionEval</text>
</g>
<g >
<title>pyop2.global_kernel.GlobalKernel.compile (13,342,570 us, 15.49%)</title><rect x="794.6" y="151" width="182.8" height="15.0" fill="rgb(0,0,0)" rx="2" ry="2" />
<text  x="797.64" y="161.5" >pyop2.global_kernel.G..</text>
</g>
<g >
<title>PCApply (113,141 us, 0.13%)</title><rect x="605.6" y="167" width="1.6" height="15.0" fill="rgb(0,0,0)" rx="2" ry="2" />
<text  x="608.60" y="177.5" ></text>
</g>
<g >
<title>  SA: smooth (14,296 us, 0.02%)</title><rect x="648.5" y="199" width="0.2" height="15.0" fill="rgb(0,0,0)" rx="2" ry="2" />
<text  x="651.47" y="209.5" ></text>
</g>
<g >
<title>PCGAMGCoarse_AGG (413,725 us, 0.48%)</title><rect x="640.6" y="183" width="5.6" height="15.0" fill="rgb(0,0,0)" rx="2" ry="2" />
<text  x="643.58" y="193.5" ></text>
</g>
<g >
<title>KSPSolve (327,368 us, 0.38%)</title><rect x="632.2" y="215" width="4.4" height="15.0" fill="rgb(0,0,0)" rx="2" ry="2" />
<text  x="635.16" y="225.5" ></text>
</g>
<g >
<title>firedrake.dmhooks.create_field_decomposition (33,402 us, 0.04%)</title><rect x="657.1" y="119" width="0.5" height="15.0" fill="rgb(0,0,0)" rx="2" ry="2" />
<text  x="660.12" y="129.5" ></text>
</g>
<g >
<title>KSPSolve (1,828,897 us, 2.12%)</title><rect x="611.6" y="183" width="25.0" height="15.0" fill="rgb(0,0,0)" rx="2" ry="2" />
<text  x="614.59" y="193.5" >K..</text>
</g>
<g >
<title>PCSetUp (133,744 us, 0.16%)</title><rect x="377.2" y="135" width="1.9" height="15.0" fill="rgb(0,0,0)" rx="2" ry="2" />
<text  x="380.23" y="145.5" ></text>
</g>
<g >
<title>MatMult (182,542 us, 0.21%)</title><rect x="649.2" y="199" width="2.5" height="15.0" fill="rgb(0,0,0)" rx="2" ry="2" />
<text  x="652.19" y="209.5" ></text>
</g>
<g >
<title>KSPSolve (567,130 us, 0.66%)</title><rect x="620.0" y="247" width="7.8" height="15.0" fill="rgb(0,0,0)" rx="2" ry="2" />
<text  x="623.00" y="257.5" ></text>
</g>
<g >
<title>ParLoopExecute (12,681,973 us, 14.72%)</title><rect x="387.6" y="119" width="173.7" height="15.0" fill="rgb(0,0,0)" rx="2" ry="2" />
<text  x="390.60" y="129.5" >ParLoopExecute</text>
</g>
<g >
<title>PCApply (71,541 us, 0.08%)</title><rect x="650.2" y="231" width="1.0" height="15.0" fill="rgb(0,0,0)" rx="2" ry="2" />
<text  x="653.23" y="241.5" ></text>
</g>
<g >
<title>ParLoopExecute (891,779 us, 1.04%)</title><rect x="22.7" y="103" width="12.2" height="15.0" fill="rgb(0,0,0)" rx="2" ry="2" />
<text  x="25.70" y="113.5" ></text>
</g>
<g >
<title>MatMatMultNum (54,339 us, 0.06%)</title><rect x="655.3" y="119" width="0.8" height="15.0" fill="rgb(0,0,0)" rx="2" ry="2" />
<text  x="658.31" y="129.5" ></text>
</g>
<g >
<title>CreateSparsity (526,253 us, 0.61%)</title><rect x="358.7" y="135" width="7.2" height="15.0" fill="rgb(0,0,0)" rx="2" ry="2" />
<text  x="361.72" y="145.5" ></text>
</g>
<g >
<title>firedrake.projection.project (23,400,070 us, 27.17%)</title><rect x="67.0" y="87" width="320.6" height="15.0" fill="rgb(0,0,0)" rx="2" ry="2" />
<text  x="70.04" y="97.5" >firedrake.projection.project</text>
</g>
<g >
<title>MatSolve (113,141 us, 0.13%)</title><rect x="605.6" y="215" width="1.6" height="15.0" fill="rgb(0,0,0)" rx="2" ry="2" />
<text  x="608.60" y="225.5" ></text>
</g>
<g >
<title>Parloop_Cells_wrap_form_cell_integral_otherwise (12,681,973 us, 14.72%)</title><rect x="387.6" y="135" width="173.7" height="15.0" fill="rgb(0,0,0)" rx="2" ry="2" />
<text  x="390.60" y="145.5" >Parloop_Cells_wrap_f..</text>
</g>
<g >
<title>MatResidual (287,269 us, 0.33%)</title><rect x="636.6" y="183" width="4.0" height="15.0" fill="rgb(0,0,0)" rx="2" ry="2" />
<text  x="639.64" y="193.5" ></text>
</g>
<g >
<title>firedrake.norms.norm (14,398,889 us, 16.72%)</title><rect x="387.6" y="87" width="197.3" height="15.0" fill="rgb(0,0,0)" rx="2" ry="2" />
<text  x="390.60" y="97.5" >firedrake.norms.norm</text>
</g>
<g >
<title>firedrake.ufl_expr.adjoint (12,569 us, 0.01%)</title><rect x="584.9" y="103" width="0.1" height="15.0" fill="rgb(0,0,0)" rx="2" ry="2" />
<text  x="587.86" y="113.5" ></text>
</g>
<g >
<title>MatSOR (38,753 us, 0.04%)</title><rect x="651.7" y="247" width="0.5" height="15.0" fill="rgb(0,0,0)" rx="2" ry="2" />
<text  x="654.69" y="257.5" ></text>
</g>
<g >
<title>PCSetUp (93,427 us, 0.11%)</title><rect x="610.3" y="167" width="1.3" height="15.0" fill="rgb(0,0,0)" rx="2" ry="2" />
<text  x="613.31" y="177.5" ></text>
</g>
<g >
<title>firedrake.tsfc_interface.compile_form (1,702,016 us, 1.98%)</title><rect x="1166.7" y="119" width="23.3" height="15.0" fill="rgb(0,0,0)" rx="2" ry="2" />
<text  x="1169.68" y="129.5" >f..</text>
</g>
<g >
<title>PCSetUp (334,011 us, 0.39%)</title><rect x="653.0" y="103" width="4.6" height="15.0" fill="rgb(0,0,0)" rx="2" ry="2" />
<text  x="656.00" y="113.5" ></text>
</g>
<g >
<title>PCApply (113,397 us, 0.13%)</title><rect x="608.8" y="167" width="1.5" height="15.0" fill="rgb(0,0,0)" rx="2" ry="2" />
<text  x="611.76" y="177.5" ></text>
</g>
<g >
<title>PCApply (567,130 us, 0.66%)</title><rect x="620.0" y="231" width="7.8" height="15.0" fill="rgb(0,0,0)" rx="2" ry="2" />
<text  x="623.00" y="241.5" ></text>
</g>
<g >
<title>Parloop_Cells_wrap_pyop2_kernel_uniform_extrusion (891,779 us, 1.04%)</title><rect x="22.7" y="119" width="12.2" height="15.0" fill="rgb(0,0,0)" rx="2" ry="2" />
<text  x="25.70" y="129.5" ></text>
</g>
<g >
<title>MatCholFctrNum (133,744 us, 0.16%)</title><rect x="377.2" y="151" width="1.9" height="15.0" fill="rgb(0,0,0)" rx="2" ry="2" />
<text  x="380.23" y="161.5" ></text>
</g>
<g >
<title>PCApply (38,753 us, 0.04%)</title><rect x="651.7" y="231" width="0.5" height="15.0" fill="rgb(0,0,0)" rx="2" ry="2" />
<text  x="654.69" y="241.5" ></text>
</g>
<g >
<title>MatZeroEntries (13,215 us, 0.02%)</title><rect x="793.0" y="119" width="0.2" height="15.0" fill="rgb(0,0,0)" rx="2" ry="2" />
<text  x="796.04" y="129.5" ></text>
</g>
<g >
<title>PCApply (113,397 us, 0.13%)</title><rect x="608.8" y="199" width="1.5" height="15.0" fill="rgb(0,0,0)" rx="2" ry="2" />
<text  x="611.76" y="209.5" ></text>
</g>
<g >
<title>KSPSolve (38,753 us, 0.04%)</title><rect x="651.7" y="215" width="0.5" height="15.0" fill="rgb(0,0,0)" rx="2" ry="2" />
<text  x="654.69" y="225.5" ></text>
</g>
<g >
<title>firedrake.assemble.assemble (17,926,999 us, 20.81%)</title><rect x="130.9" y="103" width="245.6" height="15.0" fill="rgb(0,0,0)" rx="2" ry="2" />
<text  x="133.93" y="113.5" >firedrake.assemble.assemble</text>
</g>
<g >
<title>KSPSolve_FS_Low (323,770 us, 0.38%)</title><rect x="607.2" y="135" width="4.4" height="15.0" fill="rgb(0,0,0)" rx="2" ry="2" />
<text  x="610.15" y="145.5" ></text>
</g>
<g >
<title>MatSOR (327,368 us, 0.38%)</title><rect x="632.2" y="247" width="4.4" height="15.0" fill="rgb(0,0,0)" rx="2" ry="2" />
<text  x="635.16" y="257.5" ></text>
</g>
<g >
<title>MatZeroInitial (294,459 us, 0.34%)</title><rect x="597.4" y="103" width="4.1" height="15.0" fill="rgb(0,0,0)" rx="2" ry="2" />
<text  x="600.44" y="113.5" ></text>
</g>
<g >
<title>CreateFunctionSpace (22,829 us, 0.03%)</title><rect x="34.9" y="71" width="0.3" height="15.0" fill="rgb(0,0,0)" rx="2" ry="2" />
<text  x="37.91" y="81.5" ></text>
</g>
<g >
<title>firedrake.extrusion_utils.make_extruded_coords (923,112 us, 1.07%)</title><rect x="22.3" y="87" width="12.6" height="15.0" fill="rgb(0,0,0)" rx="2" ry="2" />
<text  x="25.27" y="97.5" ></text>
</g>
<g >
<title>KSPSolve (3,761,561 us, 4.37%)</title><rect x="601.5" y="103" width="51.5" height="15.0" fill="rgb(0,0,0)" rx="2" ry="2" />
<text  x="604.47" y="113.5" >KSPS..</text>
</g>
<g >
<title>GAMG: partLevel (16,525 us, 0.02%)</title><rect x="649.0" y="167" width="0.2" height="15.0" fill="rgb(0,0,0)" rx="2" ry="2" />
<text  x="651.97" y="177.5" ></text>
</g>
<g >
<title>PCApply (113,141 us, 0.13%)</title><rect x="605.6" y="199" width="1.6" height="15.0" fill="rgb(0,0,0)" rx="2" ry="2" />
<text  x="608.60" y="209.5" ></text>
</g>
<g >
<title>Parloop_Cells_wrap_form10_cell_integral_otherwise (6,944,837 us, 8.06%)</title><rect x="1071.5" y="135" width="95.2" height="15.0" fill="rgb(0,0,0)" rx="2" ry="2" />
<text  x="1074.54" y="145.5" >Parloop_Ce..</text>
</g>
<g >
<title>Parloop_set_#x7fb1406ca080_wrap_expression_kernel (410,583 us, 0.48%)</title><rect x="56.1" y="135" width="5.6" height="15.0" fill="rgb(0,0,0)" rx="2" ry="2" />
<text  x="59.08" y="145.5" ></text>
</g>
<g >
<title>PCSetUp (850,035 us, 0.99%)</title><rect x="640.6" y="151" width="11.6" height="15.0" fill="rgb(0,0,0)" rx="2" ry="2" />
<text  x="643.58" y="161.5" ></text>
</g>
<g >
<title>firedrake.functionspacedata.FunctionSpaceData.__init__ (22,829 us, 0.03%)</title><rect x="34.9" y="119" width="0.3" height="15.0" fill="rgb(0,0,0)" rx="2" ry="2" />
<text  x="37.91" y="129.5" ></text>
</g>
<g >
<title>MatMult (287,269 us, 0.33%)</title><rect x="636.6" y="199" width="4.0" height="15.0" fill="rgb(0,0,0)" rx="2" ry="2" />
<text  x="639.64" y="209.5" ></text>
</g>
<g >
<title>Parloop_Cells_wrap_form0_cell_integral_otherwise (4,396,328 us, 5.10%)</title><rect x="657.6" y="135" width="60.2" height="15.0" fill="rgb(0,0,0)" rx="2" ry="2" />
<text  x="660.58" y="145.5" >Parlo..</text>
</g>
<g >
<title>ParLoopExecute (781,043 us, 0.91%)</title><rect x="56.1" y="119" width="10.7" height="15.0" fill="rgb(0,0,0)" rx="2" ry="2" />
<text  x="59.08" y="129.5" ></text>
</g>
<g >
<title>KSPSolve (230,299 us, 0.27%)</title><rect x="604.0" y="151" width="3.2" height="15.0" fill="rgb(0,0,0)" rx="2" ry="2" />
<text  x="607.00" y="161.5" ></text>
</g>
<g >
<title>MatConvert (11,011 us, 0.01%)</title><rect x="648.3" y="215" width="0.2" height="15.0" fill="rgb(0,0,0)" rx="2" ry="2" />
<text  x="651.32" y="225.5" ></text>
</g>
<g >
<title>PCGAMG Gal l00 (16,525 us, 0.02%)</title><rect x="649.0" y="183" width="0.2" height="15.0" fill="rgb(0,0,0)" rx="2" ry="2" />
<text  x="651.97" y="193.5" ></text>
</g>
<g >
<title>GAMG: createProl (612,215 us, 0.71%)</title><rect x="640.6" y="167" width="8.4" height="15.0" fill="rgb(0,0,0)" rx="2" ry="2" />
<text  x="643.58" y="177.5" ></text>
</g>
<g >
<title>MatZeroInitial (200,553 us, 0.23%)</title><rect x="365.9" y="135" width="2.8" height="15.0" fill="rgb(0,0,0)" rx="2" ry="2" />
<text  x="368.93" y="145.5" ></text>
</g>
<g >
<title>MatSolve (29,313 us, 0.03%)</title><rect x="376.8" y="183" width="0.4" height="15.0" fill="rgb(0,0,0)" rx="2" ry="2" />
<text  x="379.82" y="193.5" ></text>
</g>
<g >
<title>firedrake.formmanipulation.split_form (9,084 us, 0.01%)</title><rect x="1189.9" y="135" width="0.1" height="15.0" fill="rgb(0,0,0)" rx="2" ry="2" />
<text  x="1192.88" y="145.5" ></text>
</g>
<g >
<title>PCGAMG Opt l00 (14,296 us, 0.02%)</title><rect x="648.5" y="215" width="0.2" height="15.0" fill="rgb(0,0,0)" rx="2" ry="2" />
<text  x="651.47" y="225.5" ></text>
</g>
<g >
<title>pyop2.global_kernel.GlobalKernel.compile (4,386,993 us, 5.09%)</title><rect x="657.7" y="151" width="60.1" height="15.0" fill="rgb(0,0,0)" rx="2" ry="2" />
<text  x="660.71" y="161.5" >pyop2..</text>
</g>
<g >
<title>MatMult (116,946 us, 0.14%)</title><rect x="607.2" y="167" width="1.6" height="15.0" fill="rgb(0,0,0)" rx="2" ry="2" />
<text  x="610.15" y="177.5" ></text>
</g>
<g >
<title>KSPSolve (230,343 us, 0.27%)</title><rect x="607.2" y="151" width="3.1" height="15.0" fill="rgb(0,0,0)" rx="2" ry="2" />
<text  x="610.15" y="161.5" ></text>
</g>
<g >
<title>MatMult (1,501,529 us, 1.74%)</title><rect x="611.6" y="199" width="20.6" height="15.0" fill="rgb(0,0,0)" rx="2" ry="2" />
<text  x="614.59" y="209.5" ></text>
</g>
<g >
<title>PCApply (2,116,166 us, 2.46%)</title><rect x="611.6" y="167" width="29.0" height="15.0" fill="rgb(0,0,0)" rx="2" ry="2" />
<text  x="614.59" y="177.5" >P..</text>
</g>
<g >
<title>PCGAMGGraph_AGG (162,530 us, 0.19%)</title><rect x="646.2" y="183" width="2.3" height="15.0" fill="rgb(0,0,0)" rx="2" ry="2" />
<text  x="649.25" y="193.5" ></text>
</g>
<g >
<title>firedrake.__init__ (1,522,002 us, 1.77%)</title><rect x="35.2" y="71" width="20.9" height="15.0" fill="rgb(0,0,0)" rx="2" ry="2" />
<text  x="38.23" y="81.5" ></text>
</g>
<g >
<title>firedrake.solving_utils._SNESContext.split (33,402 us, 0.04%)</title><rect x="657.1" y="135" width="0.5" height="15.0" fill="rgb(0,0,0)" rx="2" ry="2" />
<text  x="660.12" y="145.5" ></text>
</g>
<g >
<title>Log_Event_form00_cell_integral_otherwise (36,711 us, 0.04%)</title><rect x="132.0" y="151" width="0.5" height="15.0" fill="rgb(0,0,0)" rx="2" ry="2" />
<text  x="134.97" y="161.5" ></text>
</g>
<g >
<title>MatILUFactorSym (24,373 us, 0.03%)</title><rect x="610.3" y="183" width="0.3" height="15.0" fill="rgb(0,0,0)" rx="2" ry="2" />
<text  x="613.31" y="193.5" ></text>
</g>
<g >
<title>PCApply (327,368 us, 0.38%)</title><rect x="632.2" y="199" width="4.4" height="15.0" fill="rgb(0,0,0)" rx="2" ry="2" />
<text  x="635.16" y="209.5" ></text>
</g>
<g >
<title>PCApply (71,541 us, 0.08%)</title><rect x="650.2" y="263" width="1.0" height="15.0" fill="rgb(0,0,0)" rx="2" ry="2" />
<text  x="653.23" y="273.5" ></text>
</g>
<g >
<title>Log_Event_form00_cell_integral_otherwise (21,836 us, 0.03%)</title><rect x="794.3" y="151" width="0.3" height="15.0" fill="rgb(0,0,0)" rx="2" ry="2" />
<text  x="797.34" y="161.5" ></text>
</g>
<g >
<title>MatMultAdd (36,030 us, 0.04%)</title><rect x="631.7" y="215" width="0.5" height="15.0" fill="rgb(0,0,0)" rx="2" ry="2" />
<text  x="634.67" y="225.5" ></text>
</g>
<g >
<title>MatMult (75,521 us, 0.09%)</title><rect x="649.2" y="231" width="1.0" height="15.0" fill="rgb(0,0,0)" rx="2" ry="2" />
<text  x="652.19" y="241.5" ></text>
</g>
<g >
<title>KSPSolve (230,245 us, 0.27%)</title><rect x="636.6" y="215" width="3.2" height="15.0" fill="rgb(0,0,0)" rx="2" ry="2" />
<text  x="639.64" y="225.5" ></text>
</g>
<g >
<title>KSPSolve (147,062 us, 0.17%)</title><rect x="649.2" y="215" width="2.0" height="15.0" fill="rgb(0,0,0)" rx="2" ry="2" />
<text  x="652.19" y="225.5" ></text>
</g>
<g >
<title>PCApply (567,130 us, 0.66%)</title><rect x="620.0" y="263" width="7.8" height="15.0" fill="rgb(0,0,0)" rx="2" ry="2" />
<text  x="623.00" y="273.5" ></text>
</g>
<g >
<title>MatMult (173,424 us, 0.20%)</title><rect x="601.6" y="119" width="2.4" height="15.0" fill="rgb(0,0,0)" rx="2" ry="2" />
<text  x="604.62" y="129.5" ></text>
</g>
<g >
<title>MatMult (56,896 us, 0.07%)</title><rect x="652.2" y="135" width="0.8" height="15.0" fill="rgb(0,0,0)" rx="2" ry="2" />
<text  x="655.22" y="145.5" ></text>
</g>
<g >
<title>KSPSolve (113,141 us, 0.13%)</title><rect x="605.6" y="183" width="1.6" height="15.0" fill="rgb(0,0,0)" rx="2" ry="2" />
<text  x="608.60" y="193.5" ></text>
</g>
<g >
<title>firedrake.tsfc_interface.compile_form (1,423,639 us, 1.65%)</title><rect x="773.5" y="119" width="19.5" height="15.0" fill="rgb(0,0,0)" rx="2" ry="2" />
<text  x="776.53" y="129.5" ></text>
</g>
<g >
<title>KSPSolve (29,313 us, 0.03%)</title><rect x="376.8" y="151" width="0.4" height="15.0" fill="rgb(0,0,0)" rx="2" ry="2" />
<text  x="379.82" y="161.5" ></text>
</g>
<g >
<title>MatSolve (567,130 us, 0.66%)</title><rect x="620.0" y="279" width="7.8" height="15.0" fill="rgb(0,0,0)" rx="2" ry="2" />
<text  x="623.00" y="289.5" ></text>
</g>
<g >
<title>PCSetUpOnBlocks (93,427 us, 0.11%)</title><rect x="610.3" y="151" width="1.3" height="15.0" fill="rgb(0,0,0)" rx="2" ry="2" />
<text  x="613.31" y="161.5" ></text>
</g>
<g >
<title>KSPSolve_FS_Schu (2,966,201 us, 3.44%)</title><rect x="611.6" y="135" width="40.6" height="15.0" fill="rgb(0,0,0)" rx="2" ry="2" />
<text  x="614.59" y="145.5" >KSP..</text>
</g>
<g >
<title>firedrake.assemble.allocate_matrix (1,200,185 us, 1.39%)</title><rect x="585.0" y="87" width="16.5" height="15.0" fill="rgb(0,0,0)" rx="2" ry="2" />
<text  x="588.03" y="97.5" ></text>
</g>
<g >
<title>MatCreateSubMats (97,127 us, 0.11%)</title><rect x="654.0" y="119" width="1.3" height="15.0" fill="rgb(0,0,0)" rx="2" ry="2" />
<text  x="656.98" y="129.5" ></text>
</g>
<g >
<title>KSPSetUp (221,295 us, 0.26%)</title><rect x="649.2" y="167" width="3.0" height="15.0" fill="rgb(0,0,0)" rx="2" ry="2" />
<text  x="652.19" y="177.5" ></text>
</g>
<g >
<title>KSPSolve (113,397 us, 0.13%)</title><rect x="608.8" y="183" width="1.5" height="15.0" fill="rgb(0,0,0)" rx="2" ry="2" />
<text  x="611.76" y="193.5" ></text>
</g>
<g >
<title>pyop2.global_kernel.GlobalKernel.compile (4,664,057 us, 5.41%)</title><rect x="67.0" y="135" width="63.9" height="15.0" fill="rgb(0,0,0)" rx="2" ry="2" />
<text  x="70.04" y="145.5" >pyop2...</text>
</g>
<g >
<title>firedrake.variational_solver.NonlinearVariationalSolver.__init__ (1,200,185 us, 1.39%)</title><rect x="585.0" y="71" width="16.5" height="15.0" fill="rgb(0,0,0)" rx="2" ry="2" />
<text  x="588.03" y="81.5" ></text>
</g>
<g >
<title>firedrake.norms.errornorm (14,398,889 us, 16.72%)</title><rect x="387.6" y="71" width="197.3" height="15.0" fill="rgb(0,0,0)" rx="2" ry="2" />
<text  x="390.60" y="81.5" >firedrake.norms.errornorm</text>
</g>
<g >
<title>MatMult (22,129 us, 0.03%)</title><rect x="376.5" y="135" width="0.3" height="15.0" fill="rgb(0,0,0)" rx="2" ry="2" />
<text  x="379.52" y="145.5" ></text>
</g>
<g >
<title>CreateExtMesh (933,186 us, 1.08%)</title><rect x="22.1" y="71" width="12.8" height="15.0" fill="rgb(0,0,0)" rx="2" ry="2" />
<text  x="25.13" y="81.5" ></text>
</g>
<g >
<title>KSPSolve (71,541 us, 0.08%)</title><rect x="650.2" y="247" width="1.0" height="15.0" fill="rgb(0,0,0)" rx="2" ry="2" />
<text  x="653.23" y="257.5" ></text>
</g>
<g >
<title>PCApply (29,313 us, 0.03%)</title><rect x="376.8" y="167" width="0.4" height="15.0" fill="rgb(0,0,0)" rx="2" ry="2" />
<text  x="379.82" y="177.5" ></text>
</g>
<g >
<title>PCApply (113,426 us, 0.13%)</title><rect x="638.2" y="263" width="1.6" height="15.0" fill="rgb(0,0,0)" rx="2" ry="2" />
<text  x="641.24" y="273.5" ></text>
</g>
<g >
<title>Parloop_set_#x7fb14070ca00_wrap_expression_kernel (370,460 us, 0.43%)</title><rect x="61.7" y="135" width="5.1" height="15.0" fill="rgb(0,0,0)" rx="2" ry="2" />
<text  x="64.70" y="145.5" ></text>
</g>
<g >
<title>all (86,135,378 us, 100%)</title><rect x="10.0" y="39" width="1180.0" height="15.0" fill="rgb(0,0,0)" rx="2" ry="2" />
<text  x="13.00" y="49.5" ></text>
</g>
<g >
<title>SNESSolve (42,960,156 us, 49.88%)</title><rect x="601.5" y="87" width="588.5" height="15.0" fill="rgb(0,0,0)" rx="2" ry="2" />
<text  x="604.47" y="97.5" >SNESSolve</text>
</g>
<g >
<title>firedrake.tsfc_interface.compile_form (572,828 us, 0.67%)</title><rect x="368.7" y="119" width="7.8" height="15.0" fill="rgb(0,0,0)" rx="2" ry="2" />
<text  x="371.67" y="129.5" ></text>
</g>
<g >
<title>pyop2.global_kernel.GlobalKernel.compile (12,672,966 us, 14.71%)</title><rect x="387.7" y="151" width="173.6" height="15.0" fill="rgb(0,0,0)" rx="2" ry="2" />
<text  x="390.73" y="161.5" >pyop2.global_kernel...</text>
</g>
<g >
<title>MatMult (117,158 us, 0.14%)</title><rect x="604.0" y="167" width="1.6" height="15.0" fill="rgb(0,0,0)" rx="2" ry="2" />
<text  x="607.00" y="177.5" ></text>
</g>
<g >
<title>Log_Event_form10_cell_integral_otherwise (11,718 us, 0.01%)</title><rect x="1072.1" y="151" width="0.1" height="15.0" fill="rgb(0,0,0)" rx="2" ry="2" />
<text  x="1075.06" y="161.5" ></text>
</g>
<g >
<title>MatMult (116,819 us, 0.14%)</title><rect x="636.6" y="231" width="1.6" height="15.0" fill="rgb(0,0,0)" rx="2" ry="2" />
<text  x="639.64" y="241.5" ></text>
</g>
<g >
<title>firedrake (86,135,378 us, 100.00%)</title><rect x="10.0" y="55" width="1180.0" height="15.0" fill="rgb(0,0,0)" rx="2" ry="2" />
<text  x="13.00" y="65.5" >firedrake</text>
</g>
<g >
<title>Parloop_Cells_wrap_form1_cell_integral_otherwise (4,067,862 us, 4.72%)</title><rect x="717.8" y="135" width="55.7" height="15.0" fill="rgb(0,0,0)" rx="2" ry="2" />
<text  x="720.81" y="145.5" >Parlo..</text>
</g>
<g >
<title>firedrake.variational_solver.NonlinearVariationalSolver.solve (42,960,156 us, 49.88%)</title><rect x="601.5" y="71" width="588.5" height="15.0" fill="rgb(0,0,0)" rx="2" ry="2" />
<text  x="604.47" y="81.5" >firedrake.variational_solver.NonlinearVariationalSolver.solve</text>
</g>
<g >
<title>KSPSolve_FS_0 (230,299 us, 0.27%)</title><rect x="604.0" y="135" width="3.2" height="15.0" fill="rgb(0,0,0)" rx="2" ry="2" />
<text  x="607.00" y="145.5" ></text>
</g>
<g >
<title>KSPSolve (21,664 us, 0.03%)</title><rect x="648.7" y="199" width="0.3" height="15.0" fill="rgb(0,0,0)" rx="2" ry="2" />
<text  x="651.67" y="209.5" ></text>
</g>
<g >
<title>FunctionSpaceData: CreateElement (10,598 us, 0.01%)</title><rect x="35.1" y="135" width="0.1" height="15.0" fill="rgb(0,0,0)" rx="2" ry="2" />
<text  x="38.08" y="145.5" ></text>
</g>
<g >
<title>firedrake.formmanipulation.ExtractSubBlock.split (9,084 us, 0.01%)</title><rect x="1189.9" y="151" width="0.1" height="15.0" fill="rgb(0,0,0)" rx="2" ry="2" />
<text  x="1192.88" y="161.5" ></text>
</g>
<g >
<title>firedrake.variational_solver.NonlinearVariationalProblem.__init__ (12,569 us, 0.01%)</title><rect x="584.9" y="87" width="0.1" height="15.0" fill="rgb(0,0,0)" rx="2" ry="2" />
<text  x="587.86" y="97.5" ></text>
</g>
<g >
<title>PCApply (3,577,166 us, 4.15%)</title><rect x="604.0" y="119" width="49.0" height="15.0" fill="rgb(0,0,0)" rx="2" ry="2" />
<text  x="607.00" y="129.5" >PCAp..</text>
</g>
<g >
<title>ParLoopExecute (8,464,190 us, 9.83%)</title><rect x="657.6" y="119" width="115.9" height="15.0" fill="rgb(0,0,0)" rx="2" ry="2" />
<text  x="660.58" y="129.5" >ParLoopExecute</text>
</g>
<g >
<title>MatPtAPNumeric (16,525 us, 0.02%)</title><rect x="649.0" y="199" width="0.2" height="15.0" fill="rgb(0,0,0)" rx="2" ry="2" />
<text  x="651.97" y="209.5" ></text>
</g>
<g >
<title>MatLUFactorNum (69,054 us, 0.08%)</title><rect x="610.6" y="183" width="1.0" height="15.0" fill="rgb(0,0,0)" rx="2" ry="2" />
<text  x="613.64" y="193.5" ></text>
</g>
<g >
<title>firedrake.linear_solver.LinearSolver.solve (185,186 us, 0.21%)</title><rect x="376.5" y="103" width="2.6" height="15.0" fill="rgb(0,0,0)" rx="2" ry="2" />
<text  x="379.52" y="113.5" ></text>
</g>
<g >
<title>firedrake.tsfc_interface.compile_form (1,716,916 us, 1.99%)</title><rect x="561.3" y="119" width="23.6" height="15.0" fill="rgb(0,0,0)" rx="2" ry="2" />
<text  x="564.34" y="129.5" >f..</text>
</g>
<g >
<title>Parloop_Cells_wrap_form00_cell_integral_otherwise (16,627,365 us, 19.30%)</title><rect x="130.9" y="135" width="227.8" height="15.0" fill="rgb(0,0,0)" rx="2" ry="2" />
<text  x="133.93" y="145.5" >Parloop_Cells_wrap_form00_c..</text>
</g>
<g >
<title>ParLoopExecute (16,627,365 us, 19.30%)</title><rect x="130.9" y="119" width="227.8" height="15.0" fill="rgb(0,0,0)" rx="2" ry="2" />
<text  x="133.93" y="129.5" >ParLoopExecute</text>
</g>
<g >
<title>CreateSparsity (895,735 us, 1.04%)</title><rect x="585.2" y="103" width="12.2" height="15.0" fill="rgb(0,0,0)" rx="2" ry="2" />
<text  x="588.17" y="113.5" ></text>
</g>
<g >
<title>PCGAMG Squ l00 (413,725 us, 0.48%)</title><rect x="640.6" y="199" width="5.6" height="15.0" fill="rgb(0,0,0)" rx="2" ry="2" />
<text  x="643.58" y="209.5" ></text>
</g>
<g >
<title>PCApply (29,313 us, 0.03%)</title><rect x="376.8" y="135" width="0.4" height="15.0" fill="rgb(0,0,0)" rx="2" ry="2" />
<text  x="379.82" y="145.5" ></text>
</g>
<g >
<title>KSPSolve (51,442 us, 0.06%)</title><rect x="376.5" y="119" width="0.7" height="15.0" fill="rgb(0,0,0)" rx="2" ry="2" />
<text  x="379.52" y="129.5" ></text>
</g>
<g >
<title>PCSetUpOnBlocks (133,744 us, 0.16%)</title><rect x="377.2" y="119" width="1.9" height="15.0" fill="rgb(0,0,0)" rx="2" ry="2" />
<text  x="380.23" y="129.5" ></text>
</g>
<g >
<title>firedrake.assemble_expressions.assemble_expression (800,065 us, 0.93%)</title><rect x="56.1" y="87" width="10.9" height="15.0" fill="rgb(0,0,0)" rx="2" ry="2" />
<text  x="59.08" y="97.5" ></text>
</g>
<g >
<title>MatMult (284,379 us, 0.33%)</title><rect x="627.8" y="215" width="3.9" height="15.0" fill="rgb(0,0,0)" rx="2" ry="2" />
<text  x="630.77" y="225.5" ></text>
</g>
<g >
<title>Parloop_Cells_wrap_form0_cell_integral_otherwise (4,664,057 us, 5.41%)</title><rect x="67.0" y="119" width="63.9" height="15.0" fill="rgb(0,0,0)" rx="2" ry="2" />
<text  x="70.04" y="129.5" >Parloo..</text>
</g>
<g >
<title>KSPSolve (2,116,166 us, 2.46%)</title><rect x="611.6" y="151" width="29.0" height="15.0" fill="rgb(0,0,0)" rx="2" ry="2" />
<text  x="614.59" y="161.5" >K..</text>
</g>
<g >
<title>pyop2.global_kernel.GlobalKernel.compile (6,818,359 us, 7.92%)</title><rect x="978.1" y="151" width="93.4" height="15.0" fill="rgb(0,0,0)" rx="2" ry="2" />
<text  x="981.14" y="161.5" >pyop2.glob..</text>
</g>
<g >
<title>MatMatMultSym (77,665 us, 0.09%)</title><rect x="656.1" y="119" width="1.0" height="15.0" fill="rgb(0,0,0)" rx="2" ry="2" />
<text  x="659.06" y="129.5" ></text>
</g>
<g >
<title>PCApply (38,753 us, 0.04%)</title><rect x="651.7" y="199" width="0.5" height="15.0" fill="rgb(0,0,0)" rx="2" ry="2" />
<text  x="654.69" y="209.5" ></text>
</g>
<g >
<title>MatMult (21,664 us, 0.03%)</title><rect x="648.7" y="215" width="0.3" height="15.0" fill="rgb(0,0,0)" rx="2" ry="2" />
<text  x="651.67" y="225.5" ></text>
</g>
<g >
<title>KSPSolve (113,426 us, 0.13%)</title><rect x="638.2" y="247" width="1.6" height="15.0" fill="rgb(0,0,0)" rx="2" ry="2" />
<text  x="641.24" y="257.5" ></text>
</g>
</g>
</svg>
