<?xml version="1.0" standalone="no"?>
<!DOCTYPE svg PUBLIC "-//W3C//DTD SVG 1.1//EN" "http://www.w3.org/Graphics/SVG/1.1/DTD/svg11.dtd">
<svg version="1.1" width="1200" height="411" onload="init(evt)" viewBox="0 0 1200 411" xmlns="http://www.w3.org/2000/svg" xmlns:xlink="http://www.w3.org/1999/xlink">
<!-- Flame graph stack visualization. See https://github.com/brendangregg/FlameGraph for latest version, and http://www.brendangregg.com/flamegraphs.html for examples. -->
<!-- NOTES:  -->
<defs>
	<linearGradient id="background" y1="0" y2="1" x1="0" x2="0" >
		<stop stop-color="#eeeeee" offset="5%" />
		<stop stop-color="#eeeeb0" offset="95%" />
	</linearGradient>
</defs>
<style type="text/css">
	text { font-family:Verdana; font-size:13px; fill:rgb(0,0,0); }
	#search, #ignorecase { opacity:0.1; cursor:pointer; }
	#search:hover, #search.show, #ignorecase:hover, #ignorecase.show { opacity:1; }
	#subtitle { text-anchor:middle; font-color:rgb(160,160,160); }
	#title { text-anchor:middle; font-size:18px}
	#unzoom { cursor:pointer; }
	#frames > *:hover { stroke:black; stroke-width:0.5; cursor:pointer; }
	.hide { display:none; }
	.parent { opacity:0.5; }
</style>
<script type="text/ecmascript">
<![CDATA[
	"use strict";
	var details, searchbtn, unzoombtn, matchedtxt, svg, searching, currentSearchTerm, ignorecase, ignorecaseBtn;
	function init(evt) {
		details = document.getElementById("details").firstChild;
		searchbtn = document.getElementById("search");
		ignorecaseBtn = document.getElementById("ignorecase");
		unzoombtn = document.getElementById("unzoom");
		matchedtxt = document.getElementById("matched");
		svg = document.getElementsByTagName("svg")[0];
		searching = 0;
		currentSearchTerm = null;

		// use GET parameters to restore a flamegraphs state.
		var params = get_params();
		if (params.x && params.y)
			zoom(find_group(document.querySelector('[x="' + params.x + '"][y="' + params.y + '"]')));
                if (params.s) search(params.s);
	}

	// event listeners
	window.addEventListener("click", function(e) {
		var target = find_group(e.target);
		if (target) {
			if (target.nodeName == "a") {
				if (e.ctrlKey === false) return;
				e.preventDefault();
			}
			if (target.classList.contains("parent")) unzoom();
			zoom(target);
			if (!document.querySelector('.parent')) {
				clearzoom();
				return;
			}

			// set parameters for zoom state
			var el = target.querySelector("rect");
			if (el && el.attributes && el.attributes.y && el.attributes._orig_x) {
				var params = get_params()
				params.x = el.attributes._orig_x.value;
				params.y = el.attributes.y.value;
				history.replaceState(null, null, parse_params(params));
			}
		}
		else if (e.target.id == "unzoom") clearzoom();
		else if (e.target.id == "search") search_prompt();
		else if (e.target.id == "ignorecase") toggle_ignorecase();
	}, false)

	// mouse-over for info
	// show
	window.addEventListener("mouseover", function(e) {
		var target = find_group(e.target);
		if (target) details.nodeValue = "Function: " + g_to_text(target);
	}, false)

	// clear
	window.addEventListener("mouseout", function(e) {
		var target = find_group(e.target);
		if (target) details.nodeValue = ' ';
	}, false)

	// ctrl-F for search
	// ctrl-I to toggle case-sensitive search
	window.addEventListener("keydown",function (e) {
		if (e.keyCode === 114 || (e.ctrlKey && e.keyCode === 70)) {
			e.preventDefault();
			search_prompt();
		}
		else if (e.ctrlKey && e.keyCode === 73) {
			e.preventDefault();
			toggle_ignorecase();
		}
	}, false)

	// functions
	function get_params() {
		var params = {};
		var paramsarr = window.location.search.substr(1).split('&');
		for (var i = 0; i < paramsarr.length; ++i) {
			var tmp = paramsarr[i].split("=");
			if (!tmp[0] || !tmp[1]) continue;
			params[tmp[0]]  = decodeURIComponent(tmp[1]);
		}
		return params;
	}
	function parse_params(params) {
		var uri = "?";
		for (var key in params) {
			uri += key + '=' + encodeURIComponent(params[key]) + '&';
		}
		if (uri.slice(-1) == "&")
			uri = uri.substring(0, uri.length - 1);
		if (uri == '?')
			uri = window.location.href.split('?')[0];
		return uri;
	}
	function find_child(node, selector) {
		var children = node.querySelectorAll(selector);
		if (children.length) return children[0];
	}
	function find_group(node) {
		var parent = node.parentElement;
		if (!parent) return;
		if (parent.id == "frames") return node;
		return find_group(parent);
	}
	function orig_save(e, attr, val) {
		if (e.attributes["_orig_" + attr] != undefined) return;
		if (e.attributes[attr] == undefined) return;
		if (val == undefined) val = e.attributes[attr].value;
		e.setAttribute("_orig_" + attr, val);
	}
	function orig_load(e, attr) {
		if (e.attributes["_orig_"+attr] == undefined) return;
		e.attributes[attr].value = e.attributes["_orig_" + attr].value;
		e.removeAttribute("_orig_"+attr);
	}
	function g_to_text(e) {
		var text = find_child(e, "title").firstChild.nodeValue;
		return (text)
	}
	function g_to_func(e) {
		var func = g_to_text(e);
		// if there's any manipulation we want to do to the function
		// name before it's searched, do it here before returning.
		return (func);
	}
	function update_text(e) {
		var r = find_child(e, "rect");
		var t = find_child(e, "text");
		var w = parseFloat(r.attributes.width.value) -3;
		var txt = find_child(e, "title").textContent.replace(/\([^(]*\)$/,"");
		t.attributes.x.value = parseFloat(r.attributes.x.value) + 3;

		// Smaller than this size won't fit anything
		if (w < 2 * 13 * 0.59) {
			t.textContent = "";
			return;
		}

		t.textContent = txt;
		// Fit in full text width
		if (/^ *$/.test(txt) || t.getSubStringLength(0, txt.length) < w)
			return;

		for (var x = txt.length - 2; x > 0; x--) {
			if (t.getSubStringLength(0, x + 2) <= w) {
				t.textContent = txt.substring(0, x) + "..";
				return;
			}
		}
		t.textContent = "";
	}

	// zoom
	function zoom_reset(e) {
		if (e.attributes != undefined) {
			orig_load(e, "x");
			orig_load(e, "width");
		}
		if (e.childNodes == undefined) return;
		for (var i = 0, c = e.childNodes; i < c.length; i++) {
			zoom_reset(c[i]);
		}
	}
	function zoom_child(e, x, ratio) {
		if (e.attributes != undefined) {
			if (e.attributes.x != undefined) {
				orig_save(e, "x");
				e.attributes.x.value = (parseFloat(e.attributes.x.value) - x - 10) * ratio + 10;
				if (e.tagName == "text")
					e.attributes.x.value = find_child(e.parentNode, "rect[x]").attributes.x.value + 3;
			}
			if (e.attributes.width != undefined) {
				orig_save(e, "width");
				e.attributes.width.value = parseFloat(e.attributes.width.value) * ratio;
			}
		}

		if (e.childNodes == undefined) return;
		for (var i = 0, c = e.childNodes; i < c.length; i++) {
			zoom_child(c[i], x - 10, ratio);
		}
	}
	function zoom_parent(e) {
		if (e.attributes) {
			if (e.attributes.x != undefined) {
				orig_save(e, "x");
				e.attributes.x.value = 10;
			}
			if (e.attributes.width != undefined) {
				orig_save(e, "width");
				e.attributes.width.value = parseInt(svg.width.baseVal.value) - (10 * 2);
			}
		}
		if (e.childNodes == undefined) return;
		for (var i = 0, c = e.childNodes; i < c.length; i++) {
			zoom_parent(c[i]);
		}
	}
	function zoom(node) {
		var attr = find_child(node, "rect").attributes;
		var width = parseFloat(attr.width.value);
		var xmin = parseFloat(attr.x.value);
		var xmax = parseFloat(xmin + width);
		var ymin = parseFloat(attr.y.value);
		var ratio = (svg.width.baseVal.value - 2 * 10) / width;

		// XXX: Workaround for JavaScript float issues (fix me)
		var fudge = 0.0001;

		unzoombtn.classList.remove("hide");

		var el = document.getElementById("frames").children;
		for (var i = 0; i < el.length; i++) {
			var e = el[i];
			var a = find_child(e, "rect").attributes;
			var ex = parseFloat(a.x.value);
			var ew = parseFloat(a.width.value);
			var upstack;
			// Is it an ancestor
			if (1 == 0) {
				upstack = parseFloat(a.y.value) > ymin;
			} else {
				upstack = parseFloat(a.y.value) < ymin;
			}
			if (upstack) {
				// Direct ancestor
				if (ex <= xmin && (ex+ew+fudge) >= xmax) {
					e.classList.add("parent");
					zoom_parent(e);
					update_text(e);
				}
				// not in current path
				else
					e.classList.add("hide");
			}
			// Children maybe
			else {
				// no common path
				if (ex < xmin || ex + fudge >= xmax) {
					e.classList.add("hide");
				}
				else {
					zoom_child(e, xmin, ratio);
					update_text(e);
				}
			}
		}
		search();
	}
	function unzoom() {
		unzoombtn.classList.add("hide");
		var el = document.getElementById("frames").children;
		for(var i = 0; i < el.length; i++) {
			el[i].classList.remove("parent");
			el[i].classList.remove("hide");
			zoom_reset(el[i]);
			update_text(el[i]);
		}
		search();
	}
	function clearzoom() {
		unzoom();

		// remove zoom state
		var params = get_params();
		if (params.x) delete params.x;
		if (params.y) delete params.y;
		history.replaceState(null, null, parse_params(params));
	}

	// search
	function toggle_ignorecase() {
		ignorecase = !ignorecase;
		if (ignorecase) {
			ignorecaseBtn.classList.add("show");
		} else {
			ignorecaseBtn.classList.remove("show");
		}
		reset_search();
		search();
	}
	function reset_search() {
		var el = document.querySelectorAll("#frames rect");
		for (var i = 0; i < el.length; i++) {
			orig_load(el[i], "fill")
		}
		var params = get_params();
		delete params.s;
		history.replaceState(null, null, parse_params(params));
	}
	function search_prompt() {
		if (!searching) {
			var term = prompt("Enter a search term (regexp " +
			    "allowed, eg: ^ext4_)"
			    + (ignorecase ? ", ignoring case" : "")
			    + "\nPress Ctrl-i to toggle case sensitivity", "");
			if (term != null) search(term);
		} else {
			reset_search();
			searching = 0;
			currentSearchTerm = null;
			searchbtn.classList.remove("show");
			searchbtn.firstChild.nodeValue = "Search"
			matchedtxt.classList.add("hide");
			matchedtxt.firstChild.nodeValue = ""
		}
	}
	function search(term) {
		if (term) currentSearchTerm = term;

		var re = new RegExp(currentSearchTerm, ignorecase ? 'i' : '');
		var el = document.getElementById("frames").children;
		var matches = new Object();
		var maxwidth = 0;
		for (var i = 0; i < el.length; i++) {
			var e = el[i];
			var func = g_to_func(e);
			var rect = find_child(e, "rect");
			if (func == null || rect == null)
				continue;

			// Save max width. Only works as we have a root frame
			var w = parseFloat(rect.attributes.width.value);
			if (w > maxwidth)
				maxwidth = w;

			if (func.match(re)) {
				// highlight
				var x = parseFloat(rect.attributes.x.value);
				orig_save(rect, "fill");
				rect.attributes.fill.value = "rgb(230,0,230)";

				// remember matches
				if (matches[x] == undefined) {
					matches[x] = w;
				} else {
					if (w > matches[x]) {
						// overwrite with parent
						matches[x] = w;
					}
				}
				searching = 1;
			}
		}
		if (!searching)
			return;
		var params = get_params();
		params.s = currentSearchTerm;
		history.replaceState(null, null, parse_params(params));

		searchbtn.classList.add("show");
		searchbtn.firstChild.nodeValue = "Reset Search";

		// calculate percent matched, excluding vertical overlap
		var count = 0;
		var lastx = -1;
		var lastw = 0;
		var keys = Array();
		for (k in matches) {
			if (matches.hasOwnProperty(k))
				keys.push(k);
		}
		// sort the matched frames by their x location
		// ascending, then width descending
		keys.sort(function(a, b){
			return a - b;
		});
		// Step through frames saving only the biggest bottom-up frames
		// thanks to the sort order. This relies on the tree property
		// where children are always smaller than their parents.
		var fudge = 0.0001;	// JavaScript floating point
		for (var k in keys) {
			var x = parseFloat(keys[k]);
			var w = matches[keys[k]];
			if (x >= lastx + lastw - fudge) {
				count += w;
				lastx = x;
				lastw = w;
			}
		}
		// display matched percent
		matchedtxt.classList.remove("hide");
		var pct = 100 * count / maxwidth;
		if (pct != 100) pct = pct.toFixed(1)
		matchedtxt.firstChild.nodeValue = "Matched: " + pct + "%";
	}
]]>
</script>
<rect x="0.0" y="0" width="1200.0" height="411.0" fill="url(#background)"  />
<text id="title" x="600.00" y="26" >Firedrake example</text>
<text id="details" x="10.00" y="393" > </text>
<text id="unzoom" x="10.00" y="26" class="hide">Reset Zoom</text>
<text id="search" x="1090.00" y="26" >Search</text>
<text id="ignorecase" x="1174.00" y="26" >ic</text>
<text id="matched" x="1090.00" y="393" > </text>
<g id="frames">
<g >
<title>KSPSetUp (227,752,344 us, 7.72%)</title><rect x="1098.9" y="199" width="91.1" height="15.0" fill="rgb(0,0,0)" rx="2" ry="2" />
<text  x="1101.88" y="209.5" >KSPSetUp</text>
</g>
<g >
<title>MatMult (227,752,344 us, 7.72%)</title><rect x="1098.9" y="231" width="91.1" height="15.0" fill="rgb(0,0,0)" rx="2" ry="2" />
<text  x="1101.88" y="241.5" >MatMult</text>
</g>
<g >
<title>Log_Event_subkernel132_cell_to__cell_integral_otherwise (6,341,270 us, 0.22%)</title><rect x="122.1" y="263" width="2.5" height="15.0" fill="rgb(0,0,0)" rx="2" ry="2" />
<text  x="125.08" y="273.5" ></text>
</g>
<g >
<title>Log_Event_mtf_solve_82 (18,848,219 us, 0.64%)</title><rect x="991.2" y="279" width="7.5" height="15.0" fill="rgb(0,0,0)" rx="2" ry="2" />
<text  x="994.21" y="289.5" ></text>
</g>
<g >
<title>Log_Event_mtf_solve_120 (2,137,199,638 us, 72.46%)</title><rect x="118.1" y="247" width="855.1" height="15.0" fill="rgb(0,0,0)" rx="2" ry="2" />
<text  x="121.10" y="257.5" >Log_Event_mtf_solve_120</text>
</g>
<g >
<title>Log_Event_slate_loopy_knl_77 (2,641,341,816 us, 89.56%)</title><rect x="42.1" y="231" width="1056.8" height="15.0" fill="rgb(0,0,0)" rx="2" ry="2" />
<text  x="45.11" y="241.5" >Log_Event_slate_loopy_knl_77</text>
</g>
<g >
<title>Log_Event_subkernel83_cell_to__cell_integral_otherwise (7,269,305 us, 0.25%)</title><rect x="991.2" y="295" width="2.9" height="15.0" fill="rgb(0,0,0)" rx="2" ry="2" />
<text  x="994.21" y="305.5" ></text>
</g>
<g >
<title>Log_Event_subkernel149_cell_to__cell_integral_otherwise (4,362,800 us, 0.15%)</title><rect x="977.1" y="263" width="1.8" height="15.0" fill="rgb(0,0,0)" rx="2" ry="2" />
<text  x="980.14" y="273.5" ></text>
</g>
<g >
<title>Log_Event_subkernel139_cell_to__cell_integral_otherwise (42,164,187 us, 1.43%)</title><rect x="1128.9" y="359" width="16.8" height="15.0" fill="rgb(0,0,0)" rx="2" ry="2" />
<text  x="1131.87" y="369.5" ></text>
</g>
<g >
<title>Log_Event_tensorshell_knl_92 (51,056,834 us, 1.73%)</title><rect x="1011.6" y="263" width="20.5" height="15.0" fill="rgb(0,0,0)" rx="2" ry="2" />
<text  x="1014.63" y="273.5" ></text>
</g>
<g >
<title>firedrake.variational_solver.NonlinearVariationalSolver.solve (2,946,778,654 us, 99.91%)</title><rect x="11.0" y="71" width="1179.0" height="15.0" fill="rgb(0,0,0)" rx="2" ry="2" />
<text  x="14.03" y="81.5" >firedrake.variational_solver.NonlinearVariationalSolver.solve</text>
</g>
<g >
<title>Log_Event_tensorshell_knl_137 (16,274,556 us, 0.55%)</title><rect x="518.8" y="295" width="6.5" height="15.0" fill="rgb(0,0,0)" rx="2" ry="2" />
<text  x="521.79" y="305.5" ></text>
</g>
<g >
<title>Log_Event_tensorshell_knl_121 (60,863,278 us, 2.06%)</title><rect x="127.0" y="263" width="24.4" height="15.0" fill="rgb(0,0,0)" rx="2" ry="2" />
<text  x="130.01" y="273.5" >L..</text>
</g>
<g >
<title>Log_Event_subkernel138_cell_to__cell_integral_otherwise (12,787,209 us, 0.43%)</title><rect x="1123.8" y="359" width="5.1" height="15.0" fill="rgb(0,0,0)" rx="2" ry="2" />
<text  x="1126.76" y="369.5" ></text>
</g>
<g >
<title>Parloop_Cells_wrap_slate_loopy_knl_77 (227,752,344 us, 7.72%)</title><rect x="1098.9" y="279" width="91.1" height="15.0" fill="rgb(0,0,0)" rx="2" ry="2" />
<text  x="1101.88" y="289.5" >Parloop_C..</text>
</g>
<g >
<title>Log_Event_subkernel85_cell_to__cell_integral_otherwise (4,405,508 us, 0.15%)</title><rect x="994.1" y="295" width="1.8" height="15.0" fill="rgb(0,0,0)" rx="2" ry="2" />
<text  x="997.12" y="305.5" ></text>
</g>
<g >
<title>Log_Event_subkernel98_cell_to__cell_integral_otherwise (7,144,327 us, 0.24%)</title><rect x="1016.3" y="295" width="2.9" height="15.0" fill="rgb(0,0,0)" rx="2" ry="2" />
<text  x="1019.30" y="305.5" ></text>
</g>
<g >
<title>Log_Event_subkernel112_interior_facet_vert_to__exterior_facet_vert_integral_otherwise (37,888,550 us, 1.28%)</title><rect x="1050.8" y="247" width="15.2" height="15.0" fill="rgb(0,0,0)" rx="2" ry="2" />
<text  x="1053.84" y="257.5" ></text>
</g>
<g >
<title>Log_Event_subkernel62_cell_to__cell_integral_otherwise (4,709,153 us, 0.16%)</title><rect x="31.9" y="247" width="1.9" height="15.0" fill="rgb(0,0,0)" rx="2" ry="2" />
<text  x="34.91" y="257.5" ></text>
</g>
<g >
<title>Log_Event_subkernel124_cell_to__cell_integral_otherwise (7,236,857 us, 0.25%)</title><rect x="128.2" y="295" width="2.8" height="15.0" fill="rgb(0,0,0)" rx="2" ry="2" />
<text  x="131.15" y="305.5" ></text>
</g>
<g >
<title>Log_Event_subkernel81_cell_to__cell_integral_otherwise (16,444,103 us, 0.56%)</title><rect x="998.7" y="279" width="6.6" height="15.0" fill="rgb(0,0,0)" rx="2" ry="2" />
<text  x="1001.75" y="289.5" ></text>
</g>
<g >
<title>Parloop_Cells_wrap_slate_loopy_knl_77 (2,662,118,019 us, 90.26%)</title><rect x="33.8" y="215" width="1065.1" height="15.0" fill="rgb(0,0,0)" rx="2" ry="2" />
<text  x="36.80" y="225.5" >Parloop_Cells_wrap_slate_loopy_knl_77</text>
</g>
<g >
<title>Log_Event_subkernel114_cell_to__cell_integral_otherwise (7,071,732 us, 0.24%)</title><rect x="107.9" y="263" width="2.8" height="15.0" fill="rgb(0,0,0)" rx="2" ry="2" />
<text  x="110.90" y="273.5" ></text>
</g>
<g >
<title>ParLoopExecute (2,662,118,019 us, 90.26%)</title><rect x="33.8" y="199" width="1065.1" height="15.0" fill="rgb(0,0,0)" rx="2" ry="2" />
<text  x="36.80" y="209.5" >ParLoopExecute</text>
</g>
<g >
<title>Log_Event_tensorshell_knl_14 (33,745,491 us, 1.14%)</title><rect x="13.2" y="231" width="13.5" height="15.0" fill="rgb(0,0,0)" rx="2" ry="2" />
<text  x="16.16" y="241.5" ></text>
</g>
<g >
<title>Log_Event_subkernel95_cell_to__cell_integral_otherwise (7,239,651 us, 0.25%)</title><rect x="1011.6" y="295" width="2.9" height="15.0" fill="rgb(0,0,0)" rx="2" ry="2" />
<text  x="1014.63" y="305.5" ></text>
</g>
<g >
<title>HybridRHS (56,908,291 us, 1.93%)</title><rect x="11.0" y="151" width="22.8" height="15.0" fill="rgb(0,0,0)" rx="2" ry="2" />
<text  x="14.03" y="161.5" ></text>
</g>
<g >
<title>Log_Event_subkernel17_cell_to__cell_integral_otherwise (3,962,533 us, 0.13%)</title><rect x="14.7" y="263" width="1.6" height="15.0" fill="rgb(0,0,0)" rx="2" ry="2" />
<text  x="17.72" y="273.5" ></text>
</g>
<g >
<title>Log_Event_subkernel119_cell_to__cell_integral_otherwise (15,772,232 us, 0.53%)</title><rect x="1066.0" y="247" width="6.3" height="15.0" fill="rgb(0,0,0)" rx="2" ry="2" />
<text  x="1069.00" y="257.5" ></text>
</g>
<g >
<title>Log_Event_subkernel108_cell_to__cell_integral_otherwise (4,365,387 us, 0.15%)</title><rect x="102.1" y="263" width="1.8" height="15.0" fill="rgb(0,0,0)" rx="2" ry="2" />
<text  x="105.12" y="273.5" ></text>
</g>
<g >
<title>Log_Event_subkernel153_interior_facet_horiz_top_to__exterior_facet_top_integral_otherwise (2,549,891 us, 0.09%)</title><rect x="1089.9" y="247" width="1.0" height="15.0" fill="rgb(0,0,0)" rx="2" ry="2" />
<text  x="1092.93" y="257.5" ></text>
</g>
<g >
<title>Log_Event_tensorshell_knl_140 (32,287,337 us, 1.09%)</title><rect x="525.3" y="295" width="12.9" height="15.0" fill="rgb(0,0,0)" rx="2" ry="2" />
<text  x="528.30" y="305.5" ></text>
</g>
<g >
<title>Log_Event_subkernel122_cell_to__cell_integral_otherwise (16,439,238 us, 0.56%)</title><rect x="138.5" y="279" width="6.6" height="15.0" fill="rgb(0,0,0)" rx="2" ry="2" />
<text  x="141.48" y="289.5" ></text>
</g>
<g >
<title>Log_Event_mtf_solve_146 (28,289,518 us, 0.96%)</title><rect x="973.2" y="247" width="11.3" height="15.0" fill="rgb(0,0,0)" rx="2" ry="2" />
<text  x="976.16" y="257.5" ></text>
</g>
<g >
<title>Log_Event_subkernel126_cell_to__cell_integral_otherwise (4,422,254 us, 0.15%)</title><rect x="131.0" y="295" width="1.8" height="15.0" fill="rgb(0,0,0)" rx="2" ry="2" />
<text  x="134.05" y="305.5" ></text>
</g>
<g >
<title>Log_Event_subkernel97_cell_to__cell_integral_otherwise (4,415,159 us, 0.15%)</title><rect x="1014.5" y="295" width="1.8" height="15.0" fill="rgb(0,0,0)" rx="2" ry="2" />
<text  x="1017.53" y="305.5" ></text>
</g>
<g >
<title>Log_Event_subkernel134_cell_to__cell_integral_otherwise (48,747,191 us, 1.65%)</title><rect x="1146.9" y="343" width="19.5" height="15.0" fill="rgb(0,0,0)" rx="2" ry="2" />
<text  x="1149.88" y="353.5" ></text>
</g>
<g >
<title>ParLoopExecute (227,752,344 us, 7.72%)</title><rect x="1098.9" y="263" width="91.1" height="15.0" fill="rgb(0,0,0)" rx="2" ry="2" />
<text  x="1101.88" y="273.5" >ParLoopEx..</text>
</g>
<g >
<title>Log_Event_mtf_solve_79 (118,914,416 us, 4.03%)</title><rect x="984.5" y="247" width="47.6" height="15.0" fill="rgb(0,0,0)" rx="2" ry="2" />
<text  x="987.48" y="257.5" >Log_..</text>
</g>
<g >
<title>firedrake (2,949,351,154 us, 100.00%)</title><rect x="10.0" y="55" width="1180.0" height="15.0" fill="rgb(0,0,0)" rx="2" ry="2" />
<text  x="13.00" y="65.5" >firedrake</text>
</g>
<g >
<title>Log_Event_subkernel88_cell_to__cell_integral_otherwise (15,758,845 us, 0.53%)</title><rect x="1005.3" y="279" width="6.3" height="15.0" fill="rgb(0,0,0)" rx="2" ry="2" />
<text  x="1008.33" y="289.5" ></text>
</g>
<g >
<title>Log_Event_subkernel145_cell_to__cell_integral_otherwise (16,467,380 us, 0.56%)</title><rect x="1072.3" y="247" width="6.6" height="15.0" fill="rgb(0,0,0)" rx="2" ry="2" />
<text  x="1075.31" y="257.5" ></text>
</g>
<g >
<title>Log_Event_subkernel152_interior_facet_vert_to__exterior_facet_vert_integral_otherwise (19,830,102 us, 0.67%)</title><rect x="1081.0" y="247" width="7.9" height="15.0" fill="rgb(0,0,0)" rx="2" ry="2" />
<text  x="1083.96" y="257.5" ></text>
</g>
<g >
<title>Log_Event_mtf_solve_1 (33,745,491 us, 1.14%)</title><rect x="13.2" y="215" width="13.5" height="15.0" fill="rgb(0,0,0)" rx="2" ry="2" />
<text  x="16.16" y="225.5" ></text>
</g>
<g >
<title>Log_Event_subkernel153_interior_facet_horiz_bottom_to__exterior_facet_bottom_integral_otherwise (2,585,999 us, 0.09%)</title><rect x="1088.9" y="247" width="1.0" height="15.0" fill="rgb(0,0,0)" rx="2" ry="2" />
<text  x="1091.89" y="257.5" ></text>
</g>
<g >
<title>SNESSolve (2,946,778,654 us, 99.91%)</title><rect x="11.0" y="87" width="1179.0" height="15.0" fill="rgb(0,0,0)" rx="2" ry="2" />
<text  x="14.03" y="97.5" >SNESSolve</text>
</g>
<g >
<title>Log_Event_tensorshell_knl_92 (4,544,186 us, 0.15%)</title><rect x="1186.9" y="327" width="1.8" height="15.0" fill="rgb(0,0,0)" rx="2" ry="2" />
<text  x="1189.87" y="337.5" ></text>
</g>
<g >
<title>Log_Event_subkernel22_cell_to__cell_integral_otherwise (8,864,467 us, 0.30%)</title><rect x="23.1" y="247" width="3.6" height="15.0" fill="rgb(0,0,0)" rx="2" ry="2" />
<text  x="26.11" y="257.5" ></text>
</g>
<g >
<title>Log_Event_subkernel111_interior_facet_vert_to__exterior_facet_vert_integral_otherwise (19,706,848 us, 0.67%)</title><rect x="1040.7" y="247" width="7.9" height="15.0" fill="rgb(0,0,0)" rx="2" ry="2" />
<text  x="1043.69" y="257.5" ></text>
</g>
<g >
<title>Log_Event_subkernel15_cell_to__cell_integral_otherwise (9,145,412 us, 0.31%)</title><rect x="19.5" y="247" width="3.6" height="15.0" fill="rgb(0,0,0)" rx="2" ry="2" />
<text  x="22.45" y="257.5" ></text>
</g>
<g >
<title>firedrake.matrix_free.operators.ImplicitMatrixContext.mult (2,662,118,019 us, 90.26%)</title><rect x="33.8" y="183" width="1065.1" height="15.0" fill="rgb(0,0,0)" rx="2" ry="2" />
<text  x="36.80" y="193.5" >firedrake.matrix_free.operators.ImplicitMatrixContext.mult</text>
</g>
<g >
<title>Log_Event_subkernel117_cell_to__cell_integral_otherwise (14,031,319 us, 0.48%)</title><rect x="112.5" y="263" width="5.6" height="15.0" fill="rgb(0,0,0)" rx="2" ry="2" />
<text  x="115.48" y="273.5" ></text>
</g>
<g >
<title>Log_Event_mtf_solve_56 (8,286,443 us, 0.28%)</title><rect x="26.7" y="247" width="3.3" height="15.0" fill="rgb(0,0,0)" rx="2" ry="2" />
<text  x="29.66" y="257.5" ></text>
</g>
<g >
<title>PCSetUp (227,752,344 us, 7.72%)</title><rect x="1098.9" y="183" width="91.1" height="15.0" fill="rgb(0,0,0)" rx="2" ry="2" />
<text  x="1101.88" y="193.5" >PCSetUp</text>
</g>
<g >
<title>Log_Event_mtf_solve_135 (84,539,619 us, 2.87%)</title><rect x="1113.1" y="343" width="33.8" height="15.0" fill="rgb(0,0,0)" rx="2" ry="2" />
<text  x="1116.05" y="353.5" >Lo..</text>
</g>
<g >
<title>Log_Event_mtf_solve_120 (185,238,073 us, 6.28%)</title><rect x="1110.9" y="311" width="74.2" height="15.0" fill="rgb(0,0,0)" rx="2" ry="2" />
<text  x="1113.94" y="321.5" >Log_Eve..</text>
</g>
<g >
<title>Log_Event_subkernel152_interior_facet_horiz_top_to__exterior_facet_top_integral_otherwise (2,541,549 us, 0.09%)</title><rect x="1079.9" y="247" width="1.1" height="15.0" fill="rgb(0,0,0)" rx="2" ry="2" />
<text  x="1082.94" y="257.5" ></text>
</g>
<g >
<title>Log_Event_mtf_solve_79 (9,089,046 us, 0.31%)</title><rect x="1185.1" y="311" width="3.6" height="15.0" fill="rgb(0,0,0)" rx="2" ry="2" />
<text  x="1188.05" y="321.5" ></text>
</g>
<g >
<title>Log_Event_mtf_solve_16 (15,735,612 us, 0.53%)</title><rect x="13.2" y="247" width="6.3" height="15.0" fill="rgb(0,0,0)" rx="2" ry="2" />
<text  x="16.16" y="257.5" ></text>
</g>
<g >
<title>Log_Event_subkernel55_cell_to__cell_integral_otherwise (4,852,733 us, 0.16%)</title><rect x="30.0" y="247" width="1.9" height="15.0" fill="rgb(0,0,0)" rx="2" ry="2" />
<text  x="32.97" y="257.5" ></text>
</g>
<g >
<title>Log_Event_subkernel150_cell_to__cell_integral_otherwise (13,980,707 us, 0.47%)</title><rect x="978.9" y="263" width="5.6" height="15.0" fill="rgb(0,0,0)" rx="2" ry="2" />
<text  x="981.89" y="273.5" ></text>
</g>
<g >
<title>Log_Event_tensorshell_knl_80 (4,544,860 us, 0.15%)</title><rect x="1185.1" y="327" width="1.8" height="15.0" fill="rgb(0,0,0)" rx="2" ry="2" />
<text  x="1188.05" y="337.5" ></text>
</g>
<g >
<title>MatMult (2,662,118,019 us, 90.26%)</title><rect x="33.8" y="167" width="1065.1" height="15.0" fill="rgb(0,0,0)" rx="2" ry="2" />
<text  x="36.80" y="177.5" >MatMult</text>
</g>
<g >
<title>KSPSolve (2,946,778,654 us, 99.91%)</title><rect x="11.0" y="103" width="1179.0" height="15.0" fill="rgb(0,0,0)" rx="2" ry="2" />
<text  x="14.03" y="113.5" >KSPSolve</text>
</g>
<g >
<title>Log_Event_slate_loopy_knl_0 (56,908,291 us, 1.93%)</title><rect x="11.0" y="199" width="22.8" height="15.0" fill="rgb(0,0,0)" rx="2" ry="2" />
<text  x="14.03" y="209.5" ></text>
</g>
<g >
<title>Log_Event_subkernel112_interior_facet_horiz_top_to__exterior_facet_top_integral_otherwise (2,846,432 us, 0.10%)</title><rect x="1049.7" y="247" width="1.1" height="15.0" fill="rgb(0,0,0)" rx="2" ry="2" />
<text  x="1052.70" y="257.5" ></text>
</g>
<g >
<title>Log_Event_subkernel116_cell_to__cell_integral_otherwise (4,376,450 us, 0.15%)</title><rect x="110.7" y="263" width="1.8" height="15.0" fill="rgb(0,0,0)" rx="2" ry="2" />
<text  x="113.73" y="273.5" ></text>
</g>
<g >
<title>PCApply (227,752,344 us, 7.72%)</title><rect x="1098.9" y="167" width="91.1" height="15.0" fill="rgb(0,0,0)" rx="2" ry="2" />
<text  x="1101.88" y="177.5" >PCApply</text>
</g>
<g >
<title>Log_Event_tensorshell_knl_121 (5,272,086 us, 0.18%)</title><rect x="1110.9" y="327" width="2.2" height="15.0" fill="rgb(0,0,0)" rx="2" ry="2" />
<text  x="1113.94" y="337.5" ></text>
</g>
<g >
<title>Log_Event_mtf_solve_135 (957,015,894 us, 32.45%)</title><rect x="155.3" y="279" width="382.9" height="15.0" fill="rgb(0,0,0)" rx="2" ry="2" />
<text  x="158.33" y="289.5" >Log_Event_mtf_solve_135</text>
</g>
<g >
<title>Log_Event_tensorshell_knl_133 (179,965,987 us, 6.10%)</title><rect x="1113.1" y="327" width="72.0" height="15.0" fill="rgb(0,0,0)" rx="2" ry="2" />
<text  x="1116.05" y="337.5" >Log_Eve..</text>
</g>
<g >
<title>Log_Event_subkernel147_cell_to__cell_integral_otherwise (7,081,892 us, 0.24%)</title><rect x="974.3" y="263" width="2.8" height="15.0" fill="rgb(0,0,0)" rx="2" ry="2" />
<text  x="977.31" y="273.5" ></text>
</g>
<g >
<title>KSPSolve (2,889,870,363 us, 97.98%)</title><rect x="33.8" y="151" width="1156.2" height="15.0" fill="rgb(0,0,0)" rx="2" ry="2" />
<text  x="36.80" y="161.5" >KSPSolve</text>
</g>
<g >
<title>Log_Event_tensorshell_knl_133 (2,048,817,963 us, 69.47%)</title><rect x="151.4" y="263" width="819.7" height="15.0" fill="rgb(0,0,0)" rx="2" ry="2" />
<text  x="154.36" y="273.5" >Log_Event_tensorshell_knl_133</text>
</g>
<g >
<title>Log_Event_subkernel112_interior_facet_horiz_bottom_to__exterior_facet_bottom_integral_otherwise (2,824,715 us, 0.10%)</title><rect x="1048.6" y="247" width="1.1" height="15.0" fill="rgb(0,0,0)" rx="2" ry="2" />
<text  x="1051.57" y="257.5" ></text>
</g>
<g >
<title>Log_Event_subkernel104_cell_to__cell_integral_otherwise (16,466,886 us, 0.56%)</title><rect x="1032.1" y="247" width="6.5" height="15.0" fill="rgb(0,0,0)" rx="2" ry="2" />
<text  x="1035.06" y="257.5" ></text>
</g>
<g >
<title>ParLoopExecute (56,908,291 us, 1.93%)</title><rect x="11.0" y="167" width="22.8" height="15.0" fill="rgb(0,0,0)" rx="2" ry="2" />
<text  x="14.03" y="177.5" ></text>
</g>
<g >
<title>Log_Event_subkernel129_cell_to__cell_integral_otherwise (15,749,795 us, 0.53%)</title><rect x="145.1" y="279" width="6.3" height="15.0" fill="rgb(0,0,0)" rx="2" ry="2" />
<text  x="148.06" y="289.5" ></text>
</g>
<g >
<title>Log_Event_subkernel111_interior_facet_horiz_top_to__exterior_facet_top_integral_otherwise (2,532,581 us, 0.09%)</title><rect x="1039.7" y="247" width="1.0" height="15.0" fill="rgb(0,0,0)" rx="2" ry="2" />
<text  x="1042.67" y="257.5" ></text>
</g>
<g >
<title>Log_Event_subkernel134_cell_to__cell_integral_otherwise (552,813,263 us, 18.74%)</title><rect x="538.2" y="279" width="221.2" height="15.0" fill="rgb(0,0,0)" rx="2" ry="2" />
<text  x="541.22" y="289.5" >Log_Event_subkernel134_cel..</text>
</g>
<g >
<title>Log_Event_mtf_solve_41 (17,848,329 us, 0.61%)</title><rect x="26.7" y="215" width="7.1" height="15.0" fill="rgb(0,0,0)" rx="2" ry="2" />
<text  x="29.66" y="225.5" ></text>
</g>
<g >
<title>PCApply (2,946,778,654 us, 99.91%)</title><rect x="11.0" y="119" width="1179.0" height="15.0" fill="rgb(0,0,0)" rx="2" ry="2" />
<text  x="14.03" y="129.5" >PCApply</text>
</g>
<g >
<title>Log_Event_subkernel111_interior_facet_horiz_bottom_to__exterior_facet_bottom_integral_otherwise (2,565,698 us, 0.09%)</title><rect x="1038.6" y="247" width="1.1" height="15.0" fill="rgb(0,0,0)" rx="2" ry="2" />
<text  x="1041.65" y="257.5" ></text>
</g>
<g >
<title>Log_Event_subkernel136_cell_to__cell_integral_otherwise (241,608,815 us, 8.19%)</title><rect x="173.3" y="295" width="96.7" height="15.0" fill="rgb(0,0,0)" rx="2" ry="2" />
<text  x="176.30" y="305.5" >Log_Event_..</text>
</g>
<g >
<title>Log_Event_subkernel91_interior_facet_vert_to__exterior_facet_vert_integral_otherwise (6,000,874 us, 0.20%)</title><rect x="988.8" y="263" width="2.4" height="15.0" fill="rgb(0,0,0)" rx="2" ry="2" />
<text  x="991.81" y="273.5" ></text>
</g>
<g >
<title>Log_Event_subkernel106_cell_to__cell_integral_otherwise (7,067,828 us, 0.24%)</title><rect x="99.3" y="263" width="2.8" height="15.0" fill="rgb(0,0,0)" rx="2" ry="2" />
<text  x="102.30" y="273.5" ></text>
</g>
<g >
<title>Log_Event_slate_loopy_knl_77 (227,752,344 us, 7.72%)</title><rect x="1098.9" y="295" width="91.1" height="15.0" fill="rgb(0,0,0)" rx="2" ry="2" />
<text  x="1101.88" y="305.5" >Log_Event..</text>
</g>
<g >
<title>Log_Event_subkernel153_interior_facet_vert_to__exterior_facet_vert_integral_otherwise (19,819,907 us, 0.67%)</title><rect x="1090.9" y="247" width="8.0" height="15.0" fill="rgb(0,0,0)" rx="2" ry="2" />
<text  x="1093.95" y="257.5" ></text>
</g>
<g >
<title>Log_Event_subkernel109_cell_to__cell_integral_otherwise (7,062,340 us, 0.24%)</title><rect x="103.9" y="263" width="2.8" height="15.0" fill="rgb(0,0,0)" rx="2" ry="2" />
<text  x="106.87" y="273.5" ></text>
</g>
<g >
<title>Log_Event_subkernel141_cell_to__cell_integral_otherwise (529,061,554 us, 17.94%)</title><rect x="759.4" y="279" width="211.7" height="15.0" fill="rgb(0,0,0)" rx="2" ry="2" />
<text  x="762.40" y="289.5" >Log_Event_subkernel141_ce..</text>
</g>
<g >
<title>Log_Event_subkernel141_cell_to__cell_integral_otherwise (46,679,177 us, 1.58%)</title><rect x="1166.4" y="343" width="18.7" height="15.0" fill="rgb(0,0,0)" rx="2" ry="2" />
<text  x="1169.38" y="353.5" ></text>
</g>
<g >
<title>Log_Event_subkernel112_interior_facet_vert_to__exterior_facet_vert_integral_otherwise (3,273,088 us, 0.11%)</title><rect x="1188.7" y="311" width="1.3" height="15.0" fill="rgb(0,0,0)" rx="2" ry="2" />
<text  x="1191.69" y="321.5" ></text>
</g>
<g >
<title>Log_Event_subkernel138_cell_to__cell_integral_otherwise (144,806,386 us, 4.91%)</title><rect x="270.0" y="295" width="57.9" height="15.0" fill="rgb(0,0,0)" rx="2" ry="2" />
<text  x="272.97" y="305.5" >Log_E..</text>
</g>
<g >
<title>Log_Event_tensorshell_knl_80 (51,051,167 us, 1.73%)</title><rect x="991.2" y="263" width="20.4" height="15.0" fill="rgb(0,0,0)" rx="2" ry="2" />
<text  x="994.21" y="273.5" ></text>
</g>
<g >
<title>Log_Event_mtf_solve_113 (28,498,603 us, 0.97%)</title><rect x="106.7" y="247" width="11.4" height="15.0" fill="rgb(0,0,0)" rx="2" ry="2" />
<text  x="109.70" y="257.5" ></text>
</g>
<g >
<title>Log_Event_mtf_solve_94 (18,799,137 us, 0.64%)</title><rect x="1011.6" y="279" width="7.6" height="15.0" fill="rgb(0,0,0)" rx="2" ry="2" />
<text  x="1014.63" y="289.5" ></text>
</g>
<g >
<title>Log_Event_tensorshell_knl_140 (2,830,039 us, 0.10%)</title><rect x="1145.7" y="359" width="1.2" height="15.0" fill="rgb(0,0,0)" rx="2" ry="2" />
<text  x="1148.74" y="369.5" ></text>
</g>
<g >
<title>Log_Event_subkernel100_cell_to__cell_integral_otherwise (15,757,449 us, 0.53%)</title><rect x="1019.2" y="279" width="6.3" height="15.0" fill="rgb(0,0,0)" rx="2" ry="2" />
<text  x="1022.15" y="289.5" ></text>
</g>
<g >
<title>Log_Event_subkernel152_interior_facet_horiz_bottom_to__exterior_facet_bottom_integral_otherwise (2,613,251 us, 0.09%)</title><rect x="1078.9" y="247" width="1.0" height="15.0" fill="rgb(0,0,0)" rx="2" ry="2" />
<text  x="1081.90" y="257.5" ></text>
</g>
<g >
<title>Parloop_Cells_wrap_slate_loopy_knl_0 (56,908,291 us, 1.93%)</title><rect x="11.0" y="183" width="22.8" height="15.0" fill="rgb(0,0,0)" rx="2" ry="2" />
<text  x="14.03" y="193.5" ></text>
</g>
<g >
<title>Log_Event_mtf_solve_123 (28,674,245 us, 0.97%)</title><rect x="127.0" y="279" width="11.5" height="15.0" fill="rgb(0,0,0)" rx="2" ry="2" />
<text  x="130.01" y="289.5" ></text>
</g>
<g >
<title>Log_Event_tensorshell_knl_54 (17,848,329 us, 0.61%)</title><rect x="26.7" y="231" width="7.1" height="15.0" fill="rgb(0,0,0)" rx="2" ry="2" />
<text  x="29.66" y="241.5" ></text>
</g>
<g >
<title>SCSolve (2,889,870,363 us, 97.98%)</title><rect x="33.8" y="135" width="1156.2" height="15.0" fill="rgb(0,0,0)" rx="2" ry="2" />
<text  x="36.80" y="145.5" >SCSolve</text>
</g>
<g >
<title>all (2,949,351,154 us, 100%)</title><rect x="10.0" y="39" width="1180.0" height="15.0" fill="rgb(0,0,0)" rx="2" ry="2" />
<text  x="13.00" y="49.5" ></text>
</g>
<g >
<title>Log_Event_subkernel93_cell_to__cell_integral_otherwise (16,500,248 us, 0.56%)</title><rect x="1025.5" y="279" width="6.6" height="15.0" fill="rgb(0,0,0)" rx="2" ry="2" />
<text  x="1028.46" y="289.5" ></text>
</g>
<g >
<title>KSPSolve (227,752,344 us, 7.72%)</title><rect x="1098.9" y="215" width="91.1" height="15.0" fill="rgb(0,0,0)" rx="2" ry="2" />
<text  x="1101.88" y="225.5" >KSPSolve</text>
</g>
<g >
<title>Log_Event_subkernel86_cell_to__cell_integral_otherwise (7,173,406 us, 0.24%)</title><rect x="995.9" y="295" width="2.8" height="15.0" fill="rgb(0,0,0)" rx="2" ry="2" />
<text  x="998.88" y="305.5" ></text>
</g>
<g >
<title>SCForwardElim (56,908,291 us, 1.93%)</title><rect x="11.0" y="135" width="22.8" height="15.0" fill="rgb(0,0,0)" rx="2" ry="2" />
<text  x="14.03" y="145.5" ></text>
</g>
<g >
<title>Log_Event_subkernel91_cell_to__cell_integral_otherwise (6,393,746 us, 0.22%)</title><rect x="986.2" y="263" width="2.6" height="15.0" fill="rgb(0,0,0)" rx="2" ry="2" />
<text  x="989.25" y="273.5" ></text>
</g>
<g >
<title>firedrake.matrix_free.operators.ImplicitMatrixContext.mult (227,752,344 us, 7.72%)</title><rect x="1098.9" y="247" width="91.1" height="15.0" fill="rgb(0,0,0)" rx="2" ry="2" />
<text  x="1101.88" y="257.5" >firedrake..</text>
</g>
<g >
<title>Log_Event_subkernel60_cell_to__cell_integral_otherwise (4,116,439 us, 0.14%)</title><rect x="28.3" y="263" width="1.7" height="15.0" fill="rgb(0,0,0)" rx="2" ry="2" />
<text  x="31.33" y="273.5" ></text>
</g>
<g >
<title>Log_Event_tensorshell_knl_143 (5,245,111 us, 0.18%)</title><rect x="971.1" y="263" width="2.1" height="15.0" fill="rgb(0,0,0)" rx="2" ry="2" />
<text  x="974.07" y="273.5" ></text>
</g>
<g >
<title>Log_Event_subkernel136_cell_to__cell_integral_otherwise (21,357,940 us, 0.72%)</title><rect x="1115.2" y="359" width="8.6" height="15.0" fill="rgb(0,0,0)" rx="2" ry="2" />
<text  x="1118.21" y="369.5" ></text>
</g>
<g >
<title>Log_Event_subkernel139_cell_to__cell_integral_otherwise (477,120,877 us, 16.18%)</title><rect x="327.9" y="295" width="190.9" height="15.0" fill="rgb(0,0,0)" rx="2" ry="2" />
<text  x="330.90" y="305.5" >Log_Event_subkernel139..</text>
</g>
<g >
<title>Log_Event_mtf_solve_105 (18,495,555 us, 0.63%)</title><rect x="99.3" y="247" width="7.4" height="15.0" fill="rgb(0,0,0)" rx="2" ry="2" />
<text  x="102.30" y="257.5" ></text>
</g>
<g >
<title>Log_Event_subkernel20_cell_to__cell_integral_otherwise (7,871,429 us, 0.27%)</title><rect x="16.3" y="263" width="3.2" height="15.0" fill="rgb(0,0,0)" rx="2" ry="2" />
<text  x="19.30" y="273.5" ></text>
</g>
<g >
<title>Log_Event_subkernel127_cell_to__cell_integral_otherwise (14,160,580 us, 0.48%)</title><rect x="132.8" y="295" width="5.7" height="15.0" fill="rgb(0,0,0)" rx="2" ry="2" />
<text  x="135.82" y="305.5" ></text>
</g>
<g >
<title>Log_Event_subkernel132_interior_facet_vert_to__exterior_facet_vert_integral_otherwise (5,972,491 us, 0.20%)</title><rect x="124.6" y="263" width="2.4" height="15.0" fill="rgb(0,0,0)" rx="2" ry="2" />
<text  x="127.62" y="273.5" ></text>
</g>
</g>
</svg>
