<?xml version="1.0" standalone="no"?>
<!DOCTYPE svg PUBLIC "-//W3C//DTD SVG 1.1//EN" "http://www.w3.org/Graphics/SVG/1.1/DTD/svg11.dtd">
<svg version="1.1" width="1200" height="395" onload="init(evt)" viewBox="0 0 1200 395" xmlns="http://www.w3.org/2000/svg" xmlns:xlink="http://www.w3.org/1999/xlink">
<!-- Flame graph stack visualization. See https://github.com/brendangregg/FlameGraph for latest version, and http://www.brendangregg.com/flamegraphs.html for examples. -->
<!-- NOTES:  -->
<defs>
	<linearGradient id="background" y1="0" y2="1" x1="0" x2="0" >
		<stop stop-color="#eeeeee" offset="5%" />
		<stop stop-color="#eeeeb0" offset="95%" />
	</linearGradient>
</defs>
<style type="text/css">
	text { font-family:Verdana; font-size:13px; fill:rgb(0,0,0); }
	#search, #ignorecase { opacity:0.1; cursor:pointer; }
	#search:hover, #search.show, #ignorecase:hover, #ignorecase.show { opacity:1; }
	#subtitle { text-anchor:middle; font-color:rgb(160,160,160); }
	#title { text-anchor:middle; font-size:18px}
	#unzoom { cursor:pointer; }
	#frames > *:hover { stroke:black; stroke-width:0.5; cursor:pointer; }
	.hide { display:none; }
	.parent { opacity:0.5; }
</style>
<script type="text/ecmascript">
<![CDATA[
	"use strict";
	var details, searchbtn, unzoombtn, matchedtxt, svg, searching, currentSearchTerm, ignorecase, ignorecaseBtn;
	function init(evt) {
		details = document.getElementById("details").firstChild;
		searchbtn = document.getElementById("search");
		ignorecaseBtn = document.getElementById("ignorecase");
		unzoombtn = document.getElementById("unzoom");
		matchedtxt = document.getElementById("matched");
		svg = document.getElementsByTagName("svg")[0];
		searching = 0;
		currentSearchTerm = null;

		// use GET parameters to restore a flamegraphs state.
		var params = get_params();
		if (params.x && params.y)
			zoom(find_group(document.querySelector('[x="' + params.x + '"][y="' + params.y + '"]')));
                if (params.s) search(params.s);
	}

	// event listeners
	window.addEventListener("click", function(e) {
		var target = find_group(e.target);
		if (target) {
			if (target.nodeName == "a") {
				if (e.ctrlKey === false) return;
				e.preventDefault();
			}
			if (target.classList.contains("parent")) unzoom();
			zoom(target);
			if (!document.querySelector('.parent')) {
				clearzoom();
				return;
			}

			// set parameters for zoom state
			var el = target.querySelector("rect");
			if (el && el.attributes && el.attributes.y && el.attributes._orig_x) {
				var params = get_params()
				params.x = el.attributes._orig_x.value;
				params.y = el.attributes.y.value;
				history.replaceState(null, null, parse_params(params));
			}
		}
		else if (e.target.id == "unzoom") clearzoom();
		else if (e.target.id == "search") search_prompt();
		else if (e.target.id == "ignorecase") toggle_ignorecase();
	}, false)

	// mouse-over for info
	// show
	window.addEventListener("mouseover", function(e) {
		var target = find_group(e.target);
		if (target) details.nodeValue = "Function: " + g_to_text(target);
	}, false)

	// clear
	window.addEventListener("mouseout", function(e) {
		var target = find_group(e.target);
		if (target) details.nodeValue = ' ';
	}, false)

	// ctrl-F for search
	// ctrl-I to toggle case-sensitive search
	window.addEventListener("keydown",function (e) {
		if (e.keyCode === 114 || (e.ctrlKey && e.keyCode === 70)) {
			e.preventDefault();
			search_prompt();
		}
		else if (e.ctrlKey && e.keyCode === 73) {
			e.preventDefault();
			toggle_ignorecase();
		}
	}, false)

	// functions
	function get_params() {
		var params = {};
		var paramsarr = window.location.search.substr(1).split('&');
		for (var i = 0; i < paramsarr.length; ++i) {
			var tmp = paramsarr[i].split("=");
			if (!tmp[0] || !tmp[1]) continue;
			params[tmp[0]]  = decodeURIComponent(tmp[1]);
		}
		return params;
	}
	function parse_params(params) {
		var uri = "?";
		for (var key in params) {
			uri += key + '=' + encodeURIComponent(params[key]) + '&';
		}
		if (uri.slice(-1) == "&")
			uri = uri.substring(0, uri.length - 1);
		if (uri == '?')
			uri = window.location.href.split('?')[0];
		return uri;
	}
	function find_child(node, selector) {
		var children = node.querySelectorAll(selector);
		if (children.length) return children[0];
	}
	function find_group(node) {
		var parent = node.parentElement;
		if (!parent) return;
		if (parent.id == "frames") return node;
		return find_group(parent);
	}
	function orig_save(e, attr, val) {
		if (e.attributes["_orig_" + attr] != undefined) return;
		if (e.attributes[attr] == undefined) return;
		if (val == undefined) val = e.attributes[attr].value;
		e.setAttribute("_orig_" + attr, val);
	}
	function orig_load(e, attr) {
		if (e.attributes["_orig_"+attr] == undefined) return;
		e.attributes[attr].value = e.attributes["_orig_" + attr].value;
		e.removeAttribute("_orig_"+attr);
	}
	function g_to_text(e) {
		var text = find_child(e, "title").firstChild.nodeValue;
		return (text)
	}
	function g_to_func(e) {
		var func = g_to_text(e);
		// if there's any manipulation we want to do to the function
		// name before it's searched, do it here before returning.
		return (func);
	}
	function update_text(e) {
		var r = find_child(e, "rect");
		var t = find_child(e, "text");
		var w = parseFloat(r.attributes.width.value) -3;
		var txt = find_child(e, "title").textContent.replace(/\([^(]*\)$/,"");
		t.attributes.x.value = parseFloat(r.attributes.x.value) + 3;

		// Smaller than this size won't fit anything
		if (w < 2 * 13 * 0.59) {
			t.textContent = "";
			return;
		}

		t.textContent = txt;
		// Fit in full text width
		if (/^ *$/.test(txt) || t.getSubStringLength(0, txt.length) < w)
			return;

		for (var x = txt.length - 2; x > 0; x--) {
			if (t.getSubStringLength(0, x + 2) <= w) {
				t.textContent = txt.substring(0, x) + "..";
				return;
			}
		}
		t.textContent = "";
	}

	// zoom
	function zoom_reset(e) {
		if (e.attributes != undefined) {
			orig_load(e, "x");
			orig_load(e, "width");
		}
		if (e.childNodes == undefined) return;
		for (var i = 0, c = e.childNodes; i < c.length; i++) {
			zoom_reset(c[i]);
		}
	}
	function zoom_child(e, x, ratio) {
		if (e.attributes != undefined) {
			if (e.attributes.x != undefined) {
				orig_save(e, "x");
				e.attributes.x.value = (parseFloat(e.attributes.x.value) - x - 10) * ratio + 10;
				if (e.tagName == "text")
					e.attributes.x.value = find_child(e.parentNode, "rect[x]").attributes.x.value + 3;
			}
			if (e.attributes.width != undefined) {
				orig_save(e, "width");
				e.attributes.width.value = parseFloat(e.attributes.width.value) * ratio;
			}
		}

		if (e.childNodes == undefined) return;
		for (var i = 0, c = e.childNodes; i < c.length; i++) {
			zoom_child(c[i], x - 10, ratio);
		}
	}
	function zoom_parent(e) {
		if (e.attributes) {
			if (e.attributes.x != undefined) {
				orig_save(e, "x");
				e.attributes.x.value = 10;
			}
			if (e.attributes.width != undefined) {
				orig_save(e, "width");
				e.attributes.width.value = parseInt(svg.width.baseVal.value) - (10 * 2);
			}
		}
		if (e.childNodes == undefined) return;
		for (var i = 0, c = e.childNodes; i < c.length; i++) {
			zoom_parent(c[i]);
		}
	}
	function zoom(node) {
		var attr = find_child(node, "rect").attributes;
		var width = parseFloat(attr.width.value);
		var xmin = parseFloat(attr.x.value);
		var xmax = parseFloat(xmin + width);
		var ymin = parseFloat(attr.y.value);
		var ratio = (svg.width.baseVal.value - 2 * 10) / width;

		// XXX: Workaround for JavaScript float issues (fix me)
		var fudge = 0.0001;

		unzoombtn.classList.remove("hide");

		var el = document.getElementById("frames").children;
		for (var i = 0; i < el.length; i++) {
			var e = el[i];
			var a = find_child(e, "rect").attributes;
			var ex = parseFloat(a.x.value);
			var ew = parseFloat(a.width.value);
			var upstack;
			// Is it an ancestor
			if (1 == 0) {
				upstack = parseFloat(a.y.value) > ymin;
			} else {
				upstack = parseFloat(a.y.value) < ymin;
			}
			if (upstack) {
				// Direct ancestor
				if (ex <= xmin && (ex+ew+fudge) >= xmax) {
					e.classList.add("parent");
					zoom_parent(e);
					update_text(e);
				}
				// not in current path
				else
					e.classList.add("hide");
			}
			// Children maybe
			else {
				// no common path
				if (ex < xmin || ex + fudge >= xmax) {
					e.classList.add("hide");
				}
				else {
					zoom_child(e, xmin, ratio);
					update_text(e);
				}
			}
		}
		search();
	}
	function unzoom() {
		unzoombtn.classList.add("hide");
		var el = document.getElementById("frames").children;
		for(var i = 0; i < el.length; i++) {
			el[i].classList.remove("parent");
			el[i].classList.remove("hide");
			zoom_reset(el[i]);
			update_text(el[i]);
		}
		search();
	}
	function clearzoom() {
		unzoom();

		// remove zoom state
		var params = get_params();
		if (params.x) delete params.x;
		if (params.y) delete params.y;
		history.replaceState(null, null, parse_params(params));
	}

	// search
	function toggle_ignorecase() {
		ignorecase = !ignorecase;
		if (ignorecase) {
			ignorecaseBtn.classList.add("show");
		} else {
			ignorecaseBtn.classList.remove("show");
		}
		reset_search();
		search();
	}
	function reset_search() {
		var el = document.querySelectorAll("#frames rect");
		for (var i = 0; i < el.length; i++) {
			orig_load(el[i], "fill")
		}
		var params = get_params();
		delete params.s;
		history.replaceState(null, null, parse_params(params));
	}
	function search_prompt() {
		if (!searching) {
			var term = prompt("Enter a search term (regexp " +
			    "allowed, eg: ^ext4_)"
			    + (ignorecase ? ", ignoring case" : "")
			    + "\nPress Ctrl-i to toggle case sensitivity", "");
			if (term != null) search(term);
		} else {
			reset_search();
			searching = 0;
			currentSearchTerm = null;
			searchbtn.classList.remove("show");
			searchbtn.firstChild.nodeValue = "Search"
			matchedtxt.classList.add("hide");
			matchedtxt.firstChild.nodeValue = ""
		}
	}
	function search(term) {
		if (term) currentSearchTerm = term;

		var re = new RegExp(currentSearchTerm, ignorecase ? 'i' : '');
		var el = document.getElementById("frames").children;
		var matches = new Object();
		var maxwidth = 0;
		for (var i = 0; i < el.length; i++) {
			var e = el[i];
			var func = g_to_func(e);
			var rect = find_child(e, "rect");
			if (func == null || rect == null)
				continue;

			// Save max width. Only works as we have a root frame
			var w = parseFloat(rect.attributes.width.value);
			if (w > maxwidth)
				maxwidth = w;

			if (func.match(re)) {
				// highlight
				var x = parseFloat(rect.attributes.x.value);
				orig_save(rect, "fill");
				rect.attributes.fill.value = "rgb(230,0,230)";

				// remember matches
				if (matches[x] == undefined) {
					matches[x] = w;
				} else {
					if (w > matches[x]) {
						// overwrite with parent
						matches[x] = w;
					}
				}
				searching = 1;
			}
		}
		if (!searching)
			return;
		var params = get_params();
		params.s = currentSearchTerm;
		history.replaceState(null, null, parse_params(params));

		searchbtn.classList.add("show");
		searchbtn.firstChild.nodeValue = "Reset Search";

		// calculate percent matched, excluding vertical overlap
		var count = 0;
		var lastx = -1;
		var lastw = 0;
		var keys = Array();
		for (k in matches) {
			if (matches.hasOwnProperty(k))
				keys.push(k);
		}
		// sort the matched frames by their x location
		// ascending, then width descending
		keys.sort(function(a, b){
			return a - b;
		});
		// Step through frames saving only the biggest bottom-up frames
		// thanks to the sort order. This relies on the tree property
		// where children are always smaller than their parents.
		var fudge = 0.0001;	// JavaScript floating point
		for (var k in keys) {
			var x = parseFloat(keys[k]);
			var w = matches[keys[k]];
			if (x >= lastx + lastw - fudge) {
				count += w;
				lastx = x;
				lastw = w;
			}
		}
		// display matched percent
		matchedtxt.classList.remove("hide");
		var pct = 100 * count / maxwidth;
		if (pct != 100) pct = pct.toFixed(1)
		matchedtxt.firstChild.nodeValue = "Matched: " + pct + "%";
	}
]]>
</script>
<rect x="0.0" y="0" width="1200.0" height="395.0" fill="url(#background)"  />
<text id="title" x="600.00" y="26" >Firedrake example</text>
<text id="details" x="10.00" y="377" > </text>
<text id="unzoom" x="10.00" y="26" class="hide">Reset Zoom</text>
<text id="search" x="1090.00" y="26" >Search</text>
<text id="ignorecase" x="1174.00" y="26" >ic</text>
<text id="matched" x="1090.00" y="377" > </text>
<g id="frames">
<g >
<title>firedrake.parloops.par_loop (949,215 us, 0.39%)</title><rect x="410.7" y="167" width="4.6" height="15.0" fill="rgb(0,0,0)" rx="2" ry="2" />
<text  x="413.67" y="177.5" ></text>
</g>
<g >
<title>Parloop_set_#x7f0af46e1180_wrap_pyop2_kernel_prolong (607,337 us, 0.25%)</title><rect x="869.7" y="295" width="3.0" height="15.0" fill="rgb(0,0,0)" rx="2" ry="2" />
<text  x="872.70" y="305.5" ></text>
</g>
<g >
<title>pyop2.global_kernel.GlobalKernel.compile (698,562 us, 0.29%)</title><rect x="1135.5" y="183" width="3.4" height="15.0" fill="rgb(0,0,0)" rx="2" ry="2" />
<text  x="1138.47" y="193.5" ></text>
</g>
<g >
<title>Parloop_Cells_wrap_par_loop_kernel (698,562 us, 0.29%)</title><rect x="1135.5" y="167" width="3.4" height="15.0" fill="rgb(0,0,0)" rx="2" ry="2" />
<text  x="1138.47" y="177.5" ></text>
</g>
<g >
<title>Parloop_Cells_wrap_form1_cell_integral_otherwise (3,662,114 us, 1.52%)</title><rect x="378.5" y="167" width="17.9" height="15.0" fill="rgb(0,0,0)" rx="2" ry="2" />
<text  x="381.48" y="177.5" ></text>
</g>
<g >
<title>all (240,627,747 us, 100%)</title><rect x="10.0" y="39" width="1180.0" height="15.0" fill="rgb(0,0,0)" rx="2" ry="2" />
<text  x="13.00" y="49.5" ></text>
</g>
<g >
<title>Parloop_Cells_wrap_form1_cell_integral_otherwise (4,386,522 us, 1.82%)</title><rect x="1161.4" y="135" width="21.5" height="15.0" fill="rgb(0,0,0)" rx="2" ry="2" />
<text  x="1164.38" y="145.5" ></text>
</g>
<g >
<title>Parloop_Cells_wrap_form0_exterior_facet_bottom_integral_otherwise (1,326,658 us, 0.55%)</title><rect x="102.4" y="119" width="6.5" height="15.0" fill="rgb(0,0,0)" rx="2" ry="2" />
<text  x="105.39" y="129.5" ></text>
</g>
<g >
<title>firedrake.tsfc_interface.compile_form (2,310,331 us, 0.96%)</title><rect x="665.7" y="151" width="11.4" height="15.0" fill="rgb(0,0,0)" rx="2" ry="2" />
<text  x="668.73" y="161.5" ></text>
</g>
<g >
<title>pyop2.global_kernel.GlobalKernel.compile (1,819,279 us, 0.76%)</title><rect x="241.2" y="151" width="8.9" height="15.0" fill="rgb(0,0,0)" rx="2" ry="2" />
<text  x="244.22" y="161.5" ></text>
</g>
<g >
<title>Parloop_Cells_wrap_form0_cell_integral_otherwise (4,584,111 us, 1.91%)</title><rect x="1138.9" y="135" width="22.5" height="15.0" fill="rgb(0,0,0)" rx="2" ry="2" />
<text  x="1141.90" y="145.5" ></text>
</g>
<g >
<title>firedrake.mg.interface.inject (2,774,961 us, 1.15%)</title><rect x="875.0" y="263" width="13.6" height="15.0" fill="rgb(0,0,0)" rx="2" ry="2" />
<text  x="877.95" y="273.5" ></text>
</g>
<g >
<title>Parloop_Cells_wrap_form0_cell_integral_otherwise (4,942,265 us, 2.05%)</title><rect x="78.2" y="119" width="24.2" height="15.0" fill="rgb(0,0,0)" rx="2" ry="2" />
<text  x="81.16" y="129.5" >P..</text>
</g>
<g >
<title>Parloop_IntFacets_wrap_form_interior_facet_vert_integral_otherwise (2,232,319 us, 0.93%)</title><rect x="57.3" y="103" width="10.9" height="15.0" fill="rgb(0,0,0)" rx="2" ry="2" />
<text  x="60.26" y="113.5" ></text>
</g>
<g >
<title>Parloop_set_#x7f0af47601f0_wrap_expression_kernel (393,345 us, 0.16%)</title><rect x="70.2" y="135" width="1.9" height="15.0" fill="rgb(0,0,0)" rx="2" ry="2" />
<text  x="73.21" y="145.5" ></text>
</g>
<g >
<title>pyop2.global_kernel.GlobalKernel.compile (1,609,141 us, 0.67%)</title><rect x="115.4" y="135" width="7.9" height="15.0" fill="rgb(0,0,0)" rx="2" ry="2" />
<text  x="118.43" y="145.5" ></text>
</g>
<g >
<title>PCSetUp (3,880,807 us, 1.61%)</title><rect x="875.0" y="183" width="19.0" height="15.0" fill="rgb(0,0,0)" rx="2" ry="2" />
<text  x="877.95" y="193.5" ></text>
</g>
<g >
<title>firedrake.tsfc_interface.compile_form (348,477 us, 0.14%)</title><rect x="927.7" y="167" width="1.7" height="15.0" fill="rgb(0,0,0)" rx="2" ry="2" />
<text  x="930.72" y="177.5" ></text>
</g>
<g >
<title>Log_Event_slate_loopy_knl_7 (32,291 us, 0.01%)</title><rect x="519.9" y="199" width="0.1" height="15.0" fill="rgb(0,0,0)" rx="2" ry="2" />
<text  x="522.86" y="209.5" ></text>
</g>
<g >
<title>pyop2.global_kernel.GlobalKernel.compile (3,662,114 us, 1.52%)</title><rect x="378.5" y="183" width="17.9" height="15.0" fill="rgb(0,0,0)" rx="2" ry="2" />
<text  x="381.48" y="193.5" ></text>
</g>
<g >
<title>CreateSparsity (193,549 us, 0.08%)</title><rect x="275.6" y="135" width="0.9" height="15.0" fill="rgb(0,0,0)" rx="2" ry="2" />
<text  x="278.59" y="145.5" ></text>
</g>
<g >
<title>pyop2.global_kernel.GlobalKernel.compile (590,062 us, 0.25%)</title><rect x="876.4" y="311" width="2.9" height="15.0" fill="rgb(0,0,0)" rx="2" ry="2" />
<text  x="879.44" y="321.5" ></text>
</g>
<g >
<title>HybridRHS (38,098,090 us, 15.83%)</title><rect x="681.3" y="151" width="186.8" height="15.0" fill="rgb(0,0,0)" rx="2" ry="2" />
<text  x="684.27" y="161.5" >HybridRHS</text>
</g>
<g >
<title>pyop2.global_kernel.GlobalKernel.compile (4,584,111 us, 1.91%)</title><rect x="1138.9" y="151" width="22.5" height="15.0" fill="rgb(0,0,0)" rx="2" ry="2" />
<text  x="1141.90" y="161.5" ></text>
</g>
<g >
<title>pyop2.global_kernel.GlobalKernel.compile (1,799,665 us, 0.75%)</title><rect x="223.6" y="151" width="8.8" height="15.0" fill="rgb(0,0,0)" rx="2" ry="2" />
<text  x="226.61" y="161.5" ></text>
</g>
<g >
<title>firedrake.assemble.assemble (12,508,281 us, 5.20%)</title><rect x="293.6" y="103" width="61.3" height="15.0" fill="rgb(0,0,0)" rx="2" ry="2" />
<text  x="296.57" y="113.5" >fired..</text>
</g>
<g >
<title>firedrake.parloops.par_loop (698,562 us, 0.29%)</title><rect x="1135.5" y="135" width="3.4" height="15.0" fill="rgb(0,0,0)" rx="2" ry="2" />
<text  x="1138.47" y="145.5" ></text>
</g>
<g >
<title>pyop2.global_kernel.GlobalKernel.compile (408,882 us, 0.17%)</title><rect x="68.2" y="151" width="2.0" height="15.0" fill="rgb(0,0,0)" rx="2" ry="2" />
<text  x="71.21" y="161.5" ></text>
</g>
<g >
<title>Parloop_ExtFacets_wrap_form_exterior_facet_vert_integral_otherwise (1,989,565 us, 0.83%)</title><rect x="47.5" y="103" width="9.8" height="15.0" fill="rgb(0,0,0)" rx="2" ry="2" />
<text  x="50.51" y="113.5" ></text>
</g>
<g >
<title>firedrake.assemble.allocate_matrix (29,745 us, 0.01%)</title><rect x="1135.3" y="135" width="0.2" height="15.0" fill="rgb(0,0,0)" rx="2" ry="2" />
<text  x="1138.32" y="145.5" ></text>
</g>
<g >
<title>firedrake.mg.interface.prolong (1,306,916 us, 0.54%)</title><rect x="868.4" y="263" width="6.4" height="15.0" fill="rgb(0,0,0)" rx="2" ry="2" />
<text  x="871.42" y="273.5" ></text>
</g>
<g >
<title>pyop2.global_kernel.GlobalKernel.compile (858,755 us, 0.36%)</title><rect x="677.1" y="215" width="4.2" height="15.0" fill="rgb(0,0,0)" rx="2" ry="2" />
<text  x="680.06" y="225.5" ></text>
</g>
<g >
<title>firedrake.pointquery_utils.to_reference_coordinates (421,032 us, 0.17%)</title><rect x="891.9" y="247" width="2.1" height="15.0" fill="rgb(0,0,0)" rx="2" ry="2" />
<text  x="894.92" y="257.5" ></text>
</g>
<g >
<title>Parloop_Cells_wrap_form00_cell_integral_otherwise (15,471,153 us, 6.43%)</title><rect x="147.7" y="135" width="75.9" height="15.0" fill="rgb(0,0,0)" rx="2" ry="2" />
<text  x="150.74" y="145.5" >Parloop..</text>
</g>
<g >
<title>SNESFunctionEval (10,421,322 us, 4.33%)</title><rect x="1138.9" y="103" width="51.1" height="15.0" fill="rgb(0,0,0)" rx="2" ry="2" />
<text  x="1141.90" y="113.5" >SNES..</text>
</g>
<g >
<title>firedrake.norms.errornorm (12,508,281 us, 5.20%)</title><rect x="293.6" y="71" width="61.3" height="15.0" fill="rgb(0,0,0)" rx="2" ry="2" />
<text  x="296.57" y="81.5" >fired..</text>
</g>
<g >
<title>MatCholFctrNum (46,508 us, 0.02%)</title><rect x="285.5" y="151" width="0.2" height="15.0" fill="rgb(0,0,0)" rx="2" ry="2" />
<text  x="288.46" y="161.5" ></text>
</g>
<g >
<title>pyop2.global_kernel.GlobalKernel.compile (1,331,911 us, 0.55%)</title><rect x="108.9" y="135" width="6.5" height="15.0" fill="rgb(0,0,0)" rx="2" ry="2" />
<text  x="111.90" y="145.5" ></text>
</g>
<g >
<title>firedrake.tsfc_interface.compile_form (3,131,490 us, 1.30%)</title><rect x="650.4" y="167" width="15.3" height="15.0" fill="rgb(0,0,0)" rx="2" ry="2" />
<text  x="653.37" y="177.5" ></text>
</g>
<g >
<title>firedrake.mg.embedded.TransferManager.op (2,774,961 us, 1.15%)</title><rect x="875.0" y="247" width="13.6" height="15.0" fill="rgb(0,0,0)" rx="2" ry="2" />
<text  x="877.95" y="257.5" ></text>
</g>
<g >
<title>pyop2.global_kernel.GlobalKernel.compile (1,989,565 us, 0.83%)</title><rect x="47.5" y="119" width="9.8" height="15.0" fill="rgb(0,0,0)" rx="2" ry="2" />
<text  x="50.51" y="129.5" ></text>
</g>
<g >
<title>HybridProject (949,215 us, 0.39%)</title><rect x="410.7" y="151" width="4.6" height="15.0" fill="rgb(0,0,0)" rx="2" ry="2" />
<text  x="413.67" y="161.5" ></text>
</g>
<g >
<title>pyop2.global_kernel.GlobalKernel.compile (2,119,047 us, 0.88%)</title><rect x="123.3" y="135" width="10.4" height="15.0" fill="rgb(0,0,0)" rx="2" ry="2" />
<text  x="126.32" y="145.5" ></text>
</g>
<g >
<title>firedrake.pointquery_utils.to_reference_coordinates (707,464 us, 0.29%)</title><rect x="885.1" y="279" width="3.5" height="15.0" fill="rgb(0,0,0)" rx="2" ry="2" />
<text  x="888.09" y="289.5" ></text>
</g>
<g >
<title>pyop2.global_kernel.GlobalKernel.compile (2,232,319 us, 0.93%)</title><rect x="57.3" y="119" width="10.9" height="15.0" fill="rgb(0,0,0)" rx="2" ry="2" />
<text  x="60.26" y="129.5" ></text>
</g>
<g >
<title>pyop2.global_kernel.GlobalKernel.compile (34,330,323 us, 14.27%)</title><rect x="687.9" y="199" width="168.4" height="15.0" fill="rgb(0,0,0)" rx="2" ry="2" />
<text  x="690.91" y="209.5" >pyop2.global_kernel..</text>
</g>
<g >
<title>pyop2.global_kernel.GlobalKernel.compile (2,580,139 us, 1.07%)</title><rect x="250.1" y="151" width="12.7" height="15.0" fill="rgb(0,0,0)" rx="2" ry="2" />
<text  x="253.14" y="161.5" ></text>
</g>
<g >
<title>firedrake.function.Function.project (43,927,544 us, 18.26%)</title><rect x="78.2" y="71" width="215.4" height="15.0" fill="rgb(0,0,0)" rx="2" ry="2" />
<text  x="81.16" y="81.5" >firedrake.function.Functio..</text>
</g>
<g >
<title>PCApply (1,397,817 us, 0.58%)</title><rect x="868.1" y="183" width="6.9" height="15.0" fill="rgb(0,0,0)" rx="2" ry="2" />
<text  x="871.10" y="193.5" ></text>
</g>
<g >
<title>KSPSolve (5,278,624 us, 2.19%)</title><rect x="868.1" y="151" width="25.9" height="15.0" fill="rgb(0,0,0)" rx="2" ry="2" />
<text  x="871.10" y="161.5" >K..</text>
</g>
<g >
<title>ParLoopExecute (19,564,702 us, 8.13%)</title><rect x="415.3" y="151" width="96.0" height="15.0" fill="rgb(0,0,0)" rx="2" ry="2" />
<text  x="418.32" y="161.5" >ParLoopExe..</text>
</g>
<g >
<title>Parloop_Cells_wrap_form_cell_integral_otherwise (11,056,345 us, 4.59%)</title><rect x="293.6" y="135" width="54.2" height="15.0" fill="rgb(0,0,0)" rx="2" ry="2" />
<text  x="296.57" y="145.5" >Parlo..</text>
</g>
<g >
<title>HybridInit (42,715,107 us, 17.75%)</title><rect x="929.4" y="119" width="209.5" height="15.0" fill="rgb(0,0,0)" rx="2" ry="2" />
<text  x="932.43" y="129.5" >HybridInit</text>
</g>
<g >
<title>RecoverFirstElim (31,499,418 us, 13.09%)</title><rect x="511.3" y="151" width="154.4" height="15.0" fill="rgb(0,0,0)" rx="2" ry="2" />
<text  x="514.26" y="161.5" >RecoverFirstElim</text>
</g>
<g >
<title>firedrake.assemble_expressions.assemble_expression (802,227 us, 0.33%)</title><rect x="68.2" y="87" width="3.9" height="15.0" fill="rgb(0,0,0)" rx="2" ry="2" />
<text  x="71.21" y="97.5" ></text>
</g>
<g >
<title>pyop2.global_kernel.GlobalKernel.compile (4,386,522 us, 1.82%)</title><rect x="1161.4" y="151" width="21.5" height="15.0" fill="rgb(0,0,0)" rx="2" ry="2" />
<text  x="1164.38" y="161.5" ></text>
</g>
<g >
<title>firedrake.tsfc_interface.compile_form (1,607,879 us, 0.67%)</title><rect x="285.7" y="103" width="7.9" height="15.0" fill="rgb(0,0,0)" rx="2" ry="2" />
<text  x="288.69" y="113.5" ></text>
</g>
<g >
<title>firedrake.tsfc_interface.compile_form (1,226,270 us, 0.51%)</title><rect x="72.1" y="87" width="6.1" height="15.0" fill="rgb(0,0,0)" rx="2" ry="2" />
<text  x="75.14" y="97.5" ></text>
</g>
<g >
<title>Parloop_Cells_wrap_form_exterior_facet_top_integral_otherwise (1,320,026 us, 0.55%)</title><rect x="33.8" y="103" width="6.5" height="15.0" fill="rgb(0,0,0)" rx="2" ry="2" />
<text  x="36.84" y="113.5" ></text>
</g>
<g >
<title>Parloop_ExtFacets_wrap_form0_exterior_facet_vert_integral_otherwise (2,119,047 us, 0.88%)</title><rect x="123.3" y="119" width="10.4" height="15.0" fill="rgb(0,0,0)" rx="2" ry="2" />
<text  x="126.32" y="129.5" ></text>
</g>
<g >
<title>ParLoopExecute (14,189,287 us, 5.90%)</title><rect x="78.2" y="103" width="69.5" height="15.0" fill="rgb(0,0,0)" rx="2" ry="2" />
<text  x="81.16" y="113.5" >ParLoop..</text>
</g>
<g >
<title>firedrake (240,627,747 us, 100.00%)</title><rect x="10.0" y="55" width="1180.0" height="15.0" fill="rgb(0,0,0)" rx="2" ry="2" />
<text  x="13.00" y="65.5" >firedrake</text>
</g>
<g >
<title>pyop2.global_kernel.GlobalKernel.compile (1,326,658 us, 0.55%)</title><rect x="102.4" y="135" width="6.5" height="15.0" fill="rgb(0,0,0)" rx="2" ry="2" />
<text  x="105.39" y="145.5" ></text>
</g>
<g >
<title>Parloop_Cells_wrap_wrap_slate_loopy_knl_14 (19,564,702 us, 8.13%)</title><rect x="415.3" y="167" width="96.0" height="15.0" fill="rgb(0,0,0)" rx="2" ry="2" />
<text  x="418.32" y="177.5" >Parloop_Ce..</text>
</g>
<g >
<title>pyop2.global_kernel.GlobalKernel.compile (1,320,026 us, 0.55%)</title><rect x="33.8" y="119" width="6.5" height="15.0" fill="rgb(0,0,0)" rx="2" ry="2" />
<text  x="36.84" y="129.5" ></text>
</g>
<g >
<title>PCSetUpOnBlocks (46,508 us, 0.02%)</title><rect x="285.5" y="119" width="0.2" height="15.0" fill="rgb(0,0,0)" rx="2" ry="2" />
<text  x="288.46" y="129.5" ></text>
</g>
<g >
<title>PCSetUp (46,508 us, 0.02%)</title><rect x="285.5" y="135" width="0.2" height="15.0" fill="rgb(0,0,0)" rx="2" ry="2" />
<text  x="288.46" y="145.5" ></text>
</g>
<g >
<title>firedrake.interpolation.make_interpolator (36,701 us, 0.02%)</title><rect x="927.5" y="167" width="0.2" height="15.0" fill="rgb(0,0,0)" rx="2" ry="2" />
<text  x="930.54" y="177.5" ></text>
</g>
<g >
<title>PCApply (5,278,624 us, 2.19%)</title><rect x="868.1" y="167" width="25.9" height="15.0" fill="rgb(0,0,0)" rx="2" ry="2" />
<text  x="871.10" y="177.5" >P..</text>
</g>
<g >
<title>Parloop_Cells_wrap_form00_exterior_facet_top_integral_otherwise (1,792,499 us, 0.74%)</title><rect x="232.4" y="135" width="8.8" height="15.0" fill="rgb(0,0,0)" rx="2" ry="2" />
<text  x="235.43" y="145.5" ></text>
</g>
<g >
<title>firedrake.projection.project (43,927,544 us, 18.26%)</title><rect x="78.2" y="87" width="215.4" height="15.0" fill="rgb(0,0,0)" rx="2" ry="2" />
<text  x="81.16" y="97.5" >firedrake.projection.project</text>
</g>
<g >
<title>firedrake.__init__ (1,499,305 us, 0.62%)</title><rect x="20.3" y="71" width="7.3" height="15.0" fill="rgb(0,0,0)" rx="2" ry="2" />
<text  x="23.25" y="81.5" ></text>
</g>
<g >
<title>DMCoarsen (2,774,961 us, 1.15%)</title><rect x="875.0" y="215" width="13.6" height="15.0" fill="rgb(0,0,0)" rx="2" ry="2" />
<text  x="877.95" y="225.5" ></text>
</g>
<g >
<title>pyop2.global_kernel.GlobalKernel.compile (886,830 us, 0.37%)</title><rect x="15.9" y="135" width="4.4" height="15.0" fill="rgb(0,0,0)" rx="2" ry="2" />
<text  x="18.91" y="145.5" ></text>
</g>
<g >
<title>pyop2.global_kernel.GlobalKernel.compile (949,215 us, 0.39%)</title><rect x="410.7" y="215" width="4.6" height="15.0" fill="rgb(0,0,0)" rx="2" ry="2" />
<text  x="413.67" y="225.5" ></text>
</g>
<g >
<title>pyop2.global_kernel.GlobalKernel.compile (19,531,525 us, 8.12%)</title><rect x="415.5" y="183" width="95.8" height="15.0" fill="rgb(0,0,0)" rx="2" ry="2" />
<text  x="418.48" y="193.5" >pyop2.glob..</text>
</g>
<g >
<title>pyop2.global_kernel.GlobalKernel.compile (1,138,831 us, 0.47%)</title><rect x="879.3" y="343" width="5.6" height="15.0" fill="rgb(0,0,0)" rx="2" ry="2" />
<text  x="882.33" y="353.5" ></text>
</g>
<g >
<title>PCSetUp (42,715,107 us, 17.75%)</title><rect x="929.4" y="103" width="209.5" height="15.0" fill="rgb(0,0,0)" rx="2" ry="2" />
<text  x="932.43" y="113.5" >PCSetUp</text>
</g>
<g >
<title>MatZeroInitial (102,288 us, 0.04%)</title><rect x="276.5" y="135" width="0.5" height="15.0" fill="rgb(0,0,0)" rx="2" ry="2" />
<text  x="279.54" y="145.5" ></text>
</g>
<g >
<title>ParLoopExecute (858,755 us, 0.36%)</title><rect x="677.1" y="183" width="4.2" height="15.0" fill="rgb(0,0,0)" rx="2" ry="2" />
<text  x="680.06" y="193.5" ></text>
</g>
<g >
<title>ParLoopExecute (886,830 us, 0.37%)</title><rect x="15.9" y="103" width="4.4" height="15.0" fill="rgb(0,0,0)" rx="2" ry="2" />
<text  x="18.91" y="113.5" ></text>
</g>
<g >
<title>SNESSolve (170,293,190 us, 70.77%)</title><rect x="354.9" y="87" width="835.1" height="15.0" fill="rgb(0,0,0)" rx="2" ry="2" />
<text  x="357.91" y="97.5" >SNESSolve</text>
</g>
<g >
<title>KSPSolve (117,156,761 us, 48.69%)</title><rect x="354.9" y="103" width="574.5" height="15.0" fill="rgb(0,0,0)" rx="2" ry="2" />
<text  x="357.91" y="113.5" >KSPSolve</text>
</g>
<g >
<title>firedrake.assemble_expressions.evaluate_expression (802,227 us, 0.33%)</title><rect x="68.2" y="103" width="3.9" height="15.0" fill="rgb(0,0,0)" rx="2" ry="2" />
<text  x="71.21" y="113.5" ></text>
</g>
<g >
<title>pyop2.global_kernel.GlobalKernel.compile (393,345 us, 0.16%)</title><rect x="70.2" y="151" width="1.9" height="15.0" fill="rgb(0,0,0)" rx="2" ry="2" />
<text  x="73.21" y="161.5" ></text>
</g>
<g >
<title>Parloop_IntFacets_wrap_form00_interior_facet_vert_integral_otherwise (2,609,178 us, 1.08%)</title><rect x="262.8" y="135" width="12.8" height="15.0" fill="rgb(0,0,0)" rx="2" ry="2" />
<text  x="265.80" y="145.5" ></text>
</g>
<g >
<title>MatMultTranspose (1,105,846 us, 0.46%)</title><rect x="888.6" y="215" width="5.4" height="15.0" fill="rgb(0,0,0)" rx="2" ry="2" />
<text  x="891.56" y="225.5" ></text>
</g>
<g >
<title>Parloop_IntFacets_wrap_form0_interior_facet_vert_integral_otherwise (2,860,265 us, 1.19%)</title><rect x="133.7" y="119" width="14.0" height="15.0" fill="rgb(0,0,0)" rx="2" ry="2" />
<text  x="136.71" y="129.5" ></text>
</g>
<g >
<title>firedrake.assemble.allocate_matrix (295,837 us, 0.12%)</title><rect x="275.6" y="119" width="1.4" height="15.0" fill="rgb(0,0,0)" rx="2" ry="2" />
<text  x="278.59" y="129.5" ></text>
</g>
<g >
<title>pyop2.global_kernel.GlobalKernel.compile (4,806,018 us, 2.00%)</title><rect x="354.9" y="183" width="23.6" height="15.0" fill="rgb(0,0,0)" rx="2" ry="2" />
<text  x="357.91" y="193.5" >p..</text>
</g>
<g >
<title>ParLoopExecute (698,562 us, 0.29%)</title><rect x="1135.5" y="151" width="3.4" height="15.0" fill="rgb(0,0,0)" rx="2" ry="2" />
<text  x="1138.47" y="161.5" ></text>
</g>
<g >
<title>Parloop_Cells_wrap_form00_cell_integral_otherwise (5,502,729 us, 2.29%)</title><rect x="900.6" y="183" width="26.9" height="15.0" fill="rgb(0,0,0)" rx="2" ry="2" />
<text  x="903.55" y="193.5" >P..</text>
</g>
<g >
<title>pyop2.global_kernel.GlobalKernel.compile (4,942,265 us, 2.05%)</title><rect x="78.2" y="135" width="24.2" height="15.0" fill="rgb(0,0,0)" rx="2" ry="2" />
<text  x="81.16" y="145.5" >p..</text>
</g>
<g >
<title>pyop2.global_kernel.GlobalKernel.compile (1,339,823 us, 0.56%)</title><rect x="894.0" y="199" width="6.6" height="15.0" fill="rgb(0,0,0)" rx="2" ry="2" />
<text  x="896.98" y="209.5" ></text>
</g>
<g >
<title>Parloop_ExtFacets_wrap_form00_exterior_facet_vert_integral_otherwise (2,580,139 us, 1.07%)</title><rect x="250.1" y="135" width="12.7" height="15.0" fill="rgb(0,0,0)" rx="2" ry="2" />
<text  x="253.14" y="145.5" ></text>
</g>
<g >
<title>firedrake.tsfc_interface.compile_form (1,451,936 us, 0.60%)</title><rect x="347.8" y="119" width="7.1" height="15.0" fill="rgb(0,0,0)" rx="2" ry="2" />
<text  x="350.79" y="129.5" ></text>
</g>
<g >
<title>ParLoopExecute (607,337 us, 0.25%)</title><rect x="869.7" y="279" width="3.0" height="15.0" fill="rgb(0,0,0)" rx="2" ry="2" />
<text  x="872.70" y="289.5" ></text>
</g>
<g >
<title>PCApply (1,371,667 us, 0.57%)</title><rect x="868.2" y="215" width="6.8" height="15.0" fill="rgb(0,0,0)" rx="2" ry="2" />
<text  x="871.23" y="225.5" ></text>
</g>
<g >
<title>firedrake.tsfc_interface.compile_form (1,575,602 us, 0.65%)</title><rect x="396.4" y="151" width="7.8" height="15.0" fill="rgb(0,0,0)" rx="2" ry="2" />
<text  x="399.44" y="161.5" ></text>
</g>
<g >
<title>ParLoopExecute (684,814 us, 0.28%)</title><rect x="888.6" y="247" width="3.3" height="15.0" fill="rgb(0,0,0)" rx="2" ry="2" />
<text  x="891.56" y="257.5" ></text>
</g>
<g >
<title>ParLoopExecute (26,071,913 us, 10.83%)</title><rect x="147.7" y="119" width="127.9" height="15.0" fill="rgb(0,0,0)" rx="2" ry="2" />
<text  x="150.74" y="129.5" >ParLoopExecute</text>
</g>
<g >
<title>firedrake.variational_solver.NonlinearVariationalSolver.solve (170,293,190 us, 70.77%)</title><rect x="354.9" y="71" width="835.1" height="15.0" fill="rgb(0,0,0)" rx="2" ry="2" />
<text  x="357.91" y="81.5" >firedrake.variational_solver.NonlinearVariationalSolver.solve</text>
</g>
<g >
<title>Parloop_Cells_wrap_form0_exterior_facet_top_integral_otherwise (1,331,911 us, 0.55%)</title><rect x="108.9" y="119" width="6.5" height="15.0" fill="rgb(0,0,0)" rx="2" ry="2" />
<text  x="111.90" y="129.5" ></text>
</g>
<g >
<title>ParLoopExecute (949,215 us, 0.39%)</title><rect x="410.7" y="183" width="4.6" height="15.0" fill="rgb(0,0,0)" rx="2" ry="2" />
<text  x="413.67" y="193.5" ></text>
</g>
<g >
<title>firedrake.assemble.assemble (10,308,409 us, 4.28%)</title><rect x="27.6" y="71" width="50.6" height="15.0" fill="rgb(0,0,0)" rx="2" ry="2" />
<text  x="30.61" y="81.5" >fire..</text>
</g>
<g >
<title>pyop2.global_kernel.GlobalKernel.compile (607,337 us, 0.25%)</title><rect x="869.7" y="311" width="3.0" height="15.0" fill="rgb(0,0,0)" rx="2" ry="2" />
<text  x="872.70" y="321.5" ></text>
</g>
<g >
<title>firedrake.tsfc_interface.compile_form (1,450,689 us, 0.60%)</title><rect x="1182.9" y="119" width="7.1" height="15.0" fill="rgb(0,0,0)" rx="2" ry="2" />
<text  x="1185.89" y="129.5" ></text>
</g>
<g >
<title>firedrake.mg.interface.restrict (1,105,846 us, 0.46%)</title><rect x="888.6" y="231" width="5.4" height="15.0" fill="rgb(0,0,0)" rx="2" ry="2" />
<text  x="891.56" y="241.5" ></text>
</g>
<g >
<title>HybridOperatorAssembly (41,916,643 us, 17.42%)</title><rect x="929.8" y="135" width="205.5" height="15.0" fill="rgb(0,0,0)" rx="2" ry="2" />
<text  x="932.77" y="145.5" >HybridOperatorAssembly</text>
</g>
<g >
<title>ParLoopExecute (36,857,262 us, 15.32%)</title><rect x="938.5" y="151" width="180.8" height="15.0" fill="rgb(0,0,0)" rx="2" ry="2" />
<text  x="941.55" y="161.5" >ParLoopExecute</text>
</g>
<g >
<title>pyop2.global_kernel.GlobalKernel.compile (1,270,595 us, 0.53%)</title><rect x="27.6" y="119" width="6.2" height="15.0" fill="rgb(0,0,0)" rx="2" ry="2" />
<text  x="30.61" y="129.5" ></text>
</g>
<g >
<title>MatMultTranspose (26,272 us, 0.01%)</title><rect x="874.8" y="231" width="0.2" height="15.0" fill="rgb(0,0,0)" rx="2" ry="2" />
<text  x="877.82" y="241.5" ></text>
</g>
<g >
<title>firedrake.dmhooks.coarsen (2,774,961 us, 1.15%)</title><rect x="875.0" y="231" width="13.6" height="15.0" fill="rgb(0,0,0)" rx="2" ry="2" />
<text  x="877.95" y="241.5" ></text>
</g>
<g >
<title>firedrake.parloops.par_loop (858,755 us, 0.36%)</title><rect x="677.1" y="167" width="4.2" height="15.0" fill="rgb(0,0,0)" rx="2" ry="2" />
<text  x="680.06" y="177.5" ></text>
</g>
<g >
<title>pyop2.global_kernel.GlobalKernel.compile (1,467,407 us, 0.61%)</title><rect x="40.3" y="119" width="7.2" height="15.0" fill="rgb(0,0,0)" rx="2" ry="2" />
<text  x="43.31" y="129.5" ></text>
</g>
<g >
<title>ParLoopExecute (802,227 us, 0.33%)</title><rect x="68.2" y="119" width="3.9" height="15.0" fill="rgb(0,0,0)" rx="2" ry="2" />
<text  x="71.21" y="129.5" ></text>
</g>
<g >
<title>Parloop_Cells_wrap_pyop2_kernel_uniform_extrusion (886,830 us, 0.37%)</title><rect x="15.9" y="119" width="4.4" height="15.0" fill="rgb(0,0,0)" rx="2" ry="2" />
<text  x="18.91" y="129.5" ></text>
</g>
<g >
<title>Parloop_Cells_wrap_wrap_slate_loopy_knl_7 (26,649,374 us, 11.07%)</title><rect x="519.7" y="183" width="130.7" height="15.0" fill="rgb(0,0,0)" rx="2" ry="2" />
<text  x="522.69" y="193.5" >Parloop_Cells_w..</text>
</g>
<g >
<title>Parloop_set_#x7f0af46e1180_wrap_pyop2_kernel_inject (590,062 us, 0.25%)</title><rect x="876.4" y="295" width="2.9" height="15.0" fill="rgb(0,0,0)" rx="2" ry="2" />
<text  x="879.44" y="305.5" ></text>
</g>
<g >
<title>pyop2.global_kernel.GlobalKernel.compile (15,471,153 us, 6.43%)</title><rect x="147.7" y="151" width="75.9" height="15.0" fill="rgb(0,0,0)" rx="2" ry="2" />
<text  x="150.74" y="161.5" >pyop2.g..</text>
</g>
<g >
<title>SCSolve (12,506,354 us, 5.20%)</title><rect x="868.1" y="135" width="61.3" height="15.0" fill="rgb(0,0,0)" rx="2" ry="2" />
<text  x="871.10" y="145.5" >SCSolve</text>
</g>
<g >
<title>PCSetUp (3,880,807 us, 1.61%)</title><rect x="875.0" y="199" width="19.0" height="15.0" fill="rgb(0,0,0)" rx="2" ry="2" />
<text  x="877.95" y="209.5" ></text>
</g>
<g >
<title>Parloop_Cells_wrap_form_exterior_facet_bottom_integral_otherwise (1,270,595 us, 0.53%)</title><rect x="27.6" y="103" width="6.2" height="15.0" fill="rgb(0,0,0)" rx="2" ry="2" />
<text  x="30.61" y="113.5" ></text>
</g>
<g >
<title>Parloop_Cells_wrap_wrap_slate_loopy_knl_4 (34,369,818 us, 14.28%)</title><rect x="687.7" y="183" width="168.6" height="15.0" fill="rgb(0,0,0)" rx="2" ry="2" />
<text  x="690.72" y="193.5" >Parloop_Cells_wrap_..</text>
</g>
<g >
<title>MatMult (10,043,734 us, 4.17%)</title><rect x="354.9" y="119" width="49.3" height="15.0" fill="rgb(0,0,0)" rx="2" ry="2" />
<text  x="357.91" y="129.5" >MatM..</text>
</g>
<g >
<title>pyop2.global_kernel.GlobalKernel.compile (1,792,499 us, 0.74%)</title><rect x="232.4" y="151" width="8.8" height="15.0" fill="rgb(0,0,0)" rx="2" ry="2" />
<text  x="235.43" y="161.5" ></text>
</g>
<g >
<title>ParLoopExecute (26,649,374 us, 11.07%)</title><rect x="519.7" y="167" width="130.7" height="15.0" fill="rgb(0,0,0)" rx="2" ry="2" />
<text  x="522.69" y="177.5" >ParLoopExecute</text>
</g>
<g >
<title>firedrake.mg.interface.restrict (26,272 us, 0.01%)</title><rect x="874.8" y="247" width="0.2" height="15.0" fill="rgb(0,0,0)" rx="2" ry="2" />
<text  x="877.82" y="257.5" ></text>
</g>
<g >
<title>firedrake.pointquery_utils.to_reference_coordinates (436,705 us, 0.18%)</title><rect x="872.7" y="279" width="2.1" height="15.0" fill="rgb(0,0,0)" rx="2" ry="2" />
<text  x="875.68" y="289.5" ></text>
</g>
<g >
<title>pyop2.global_kernel.GlobalKernel.compile (684,814 us, 0.28%)</title><rect x="888.6" y="279" width="3.3" height="15.0" fill="rgb(0,0,0)" rx="2" ry="2" />
<text  x="891.56" y="289.5" ></text>
</g>
<g >
<title>HybridBreak (858,755 us, 0.36%)</title><rect x="677.1" y="151" width="4.2" height="15.0" fill="rgb(0,0,0)" rx="2" ry="2" />
<text  x="680.06" y="161.5" ></text>
</g>
<g >
<title>firedrake.norms.norm (12,508,281 us, 5.20%)</title><rect x="293.6" y="87" width="61.3" height="15.0" fill="rgb(0,0,0)" rx="2" ry="2" />
<text  x="296.57" y="97.5" >fired..</text>
</g>
<g >
<title>Parloop_set_#x7f0af46fe320_wrap_expression_kernel (408,882 us, 0.17%)</title><rect x="68.2" y="135" width="2.0" height="15.0" fill="rgb(0,0,0)" rx="2" ry="2" />
<text  x="71.21" y="145.5" ></text>
</g>
<g >
<title>KSPSolve (1,397,817 us, 0.58%)</title><rect x="868.1" y="199" width="6.9" height="15.0" fill="rgb(0,0,0)" rx="2" ry="2" />
<text  x="871.10" y="209.5" ></text>
</g>
<g >
<title>firedrake.interpolation.interpolate (1,174,224 us, 0.49%)</title><rect x="879.3" y="279" width="5.8" height="15.0" fill="rgb(0,0,0)" rx="2" ry="2" />
<text  x="882.33" y="289.5" ></text>
</g>
<g >
<title>firedrake.assemble.assemble (28,083,870 us, 11.67%)</title><rect x="147.7" y="103" width="137.8" height="15.0" fill="rgb(0,0,0)" rx="2" ry="2" />
<text  x="150.74" y="113.5" >firedrake.assem..</text>
</g>
<g >
<title>Parloop_Cells_wrap_expression_kernel (1,339,823 us, 0.56%)</title><rect x="894.0" y="183" width="6.6" height="15.0" fill="rgb(0,0,0)" rx="2" ry="2" />
<text  x="896.98" y="193.5" ></text>
</g>
<g >
<title>MatMult (1,306,916 us, 0.54%)</title><rect x="868.4" y="231" width="6.4" height="15.0" fill="rgb(0,0,0)" rx="2" ry="2" />
<text  x="871.42" y="241.5" ></text>
</g>
<g >
<title>pyop2.global_kernel.GlobalKernel.compile (2,577,712 us, 1.07%)</title><rect x="263.0" y="151" width="12.6" height="15.0" fill="rgb(0,0,0)" rx="2" ry="2" />
<text  x="265.95" y="161.5" ></text>
</g>
<g >
<title>firedrake.interpolation.Interpolator.interpolate (1,138,831 us, 0.47%)</title><rect x="879.3" y="295" width="5.6" height="15.0" fill="rgb(0,0,0)" rx="2" ry="2" />
<text  x="882.33" y="305.5" ></text>
</g>
<g >
<title>Parloop_Cells_wrap_form00_exterior_facet_bottom_integral_otherwise (1,799,665 us, 0.75%)</title><rect x="223.6" y="135" width="8.8" height="15.0" fill="rgb(0,0,0)" rx="2" ry="2" />
<text  x="226.61" y="145.5" ></text>
</g>
<g >
<title>pyop2.global_kernel.GlobalKernel.compile (11,056,345 us, 4.59%)</title><rect x="293.6" y="151" width="54.2" height="15.0" fill="rgb(0,0,0)" rx="2" ry="2" />
<text  x="296.57" y="161.5" >pyop2..</text>
</g>
<g >
<title>firedrake.interpolation.make_interpolator (35,393 us, 0.01%)</title><rect x="884.9" y="295" width="0.2" height="15.0" fill="rgb(0,0,0)" rx="2" ry="2" />
<text  x="887.92" y="305.5" ></text>
</g>
<g >
<title>CreateExtMesh (918,705 us, 0.38%)</title><rect x="15.7" y="71" width="4.6" height="15.0" fill="rgb(0,0,0)" rx="2" ry="2" />
<text  x="18.75" y="81.5" ></text>
</g>
<g >
<title>pyop2.global_kernel.GlobalKernel.compile (2,860,265 us, 1.19%)</title><rect x="133.7" y="135" width="14.0" height="15.0" fill="rgb(0,0,0)" rx="2" ry="2" />
<text  x="136.71" y="145.5" ></text>
</g>
<g >
<title>Parloop_Cells_wrap_form0_interior_facet_horiz_integral_otherwise (1,609,141 us, 0.67%)</title><rect x="115.4" y="119" width="7.9" height="15.0" fill="rgb(0,0,0)" rx="2" ry="2" />
<text  x="118.43" y="129.5" ></text>
</g>
<g >
<title>Parloop_Cells_wrap_form0_cell_integral_otherwise (4,806,018 us, 2.00%)</title><rect x="354.9" y="167" width="23.6" height="15.0" fill="rgb(0,0,0)" rx="2" ry="2" />
<text  x="357.91" y="177.5" >P..</text>
</g>
<g >
<title>firedrake.linear_solver.LinearSolver.solve (46,508 us, 0.02%)</title><rect x="285.5" y="103" width="0.2" height="15.0" fill="rgb(0,0,0)" rx="2" ry="2" />
<text  x="288.46" y="113.5" ></text>
</g>
<g >
<title>ParLoopExecute (6,842,552 us, 2.84%)</title><rect x="894.0" y="167" width="33.5" height="15.0" fill="rgb(0,0,0)" rx="2" ry="2" />
<text  x="896.98" y="177.5" >Pa..</text>
</g>
<g >
<title>PCApply (107,113,027 us, 44.51%)</title><rect x="404.2" y="119" width="525.2" height="15.0" fill="rgb(0,0,0)" rx="2" ry="2" />
<text  x="407.16" y="129.5" >PCApply</text>
</g>
<g >
<title>Parloop_set_#x7f0af46e0fd0_wrap_pyop2_kernel_restrict (684,814 us, 0.28%)</title><rect x="888.6" y="263" width="3.3" height="15.0" fill="rgb(0,0,0)" rx="2" ry="2" />
<text  x="891.56" y="273.5" ></text>
</g>
<g >
<title>Parloop_Cells_wrap_form_interior_facet_horiz_integral_otherwise (1,467,407 us, 0.61%)</title><rect x="40.3" y="103" width="7.2" height="15.0" fill="rgb(0,0,0)" rx="2" ry="2" />
<text  x="43.31" y="113.5" ></text>
</g>
<g >
<title>Parloop_Cells_wrap_par_loop_kernel (949,215 us, 0.39%)</title><rect x="410.7" y="199" width="4.6" height="15.0" fill="rgb(0,0,0)" rx="2" ry="2" />
<text  x="413.67" y="209.5" ></text>
</g>
<g >
<title>firedrake.tsfc_interface.compile_form (2,413,824 us, 1.00%)</title><rect x="856.3" y="167" width="11.8" height="15.0" fill="rgb(0,0,0)" rx="2" ry="2" />
<text  x="859.26" y="177.5" ></text>
</g>
<g >
<title>Parloop_Cells_wrap_par_loop_kernel (858,755 us, 0.36%)</title><rect x="677.1" y="199" width="4.2" height="15.0" fill="rgb(0,0,0)" rx="2" ry="2" />
<text  x="680.06" y="209.5" ></text>
</g>
<g >
<title>firedrake.tsfc_interface.compile_form (3,269,711 us, 1.36%)</title><rect x="1119.3" y="151" width="16.0" height="15.0" fill="rgb(0,0,0)" rx="2" ry="2" />
<text  x="1122.29" y="161.5" ></text>
</g>
<g >
<title>pyop2.global_kernel.GlobalKernel.compile (36,784,858 us, 15.29%)</title><rect x="938.9" y="183" width="180.4" height="15.0" fill="rgb(0,0,0)" rx="2" ry="2" />
<text  x="941.90" y="193.5" >pyop2.global_kernel.G..</text>
</g>
<g >
<title>MatMult (26,150 us, 0.01%)</title><rect x="868.1" y="215" width="0.1" height="15.0" fill="rgb(0,0,0)" rx="2" ry="2" />
<text  x="871.10" y="225.5" ></text>
</g>
<g >
<title>SCForwardElim (38,956,845 us, 16.19%)</title><rect x="677.1" y="135" width="191.0" height="15.0" fill="rgb(0,0,0)" rx="2" ry="2" />
<text  x="680.06" y="145.5" >SCForwardElim</text>
</g>
<g >
<title>ParLoopExecute (8,970,633 us, 3.73%)</title><rect x="1138.9" y="119" width="44.0" height="15.0" fill="rgb(0,0,0)" rx="2" ry="2" />
<text  x="1141.90" y="129.5" >Par..</text>
</g>
<g >
<title>firedrake.extrusion_utils.make_extruded_coords (918,705 us, 0.38%)</title><rect x="15.7" y="87" width="4.6" height="15.0" fill="rgb(0,0,0)" rx="2" ry="2" />
<text  x="18.75" y="97.5" ></text>
</g>
<g >
<title>Parloop_Cells_wrap_expression_kernel (1,138,831 us, 0.47%)</title><rect x="879.3" y="327" width="5.6" height="15.0" fill="rgb(0,0,0)" rx="2" ry="2" />
<text  x="882.33" y="337.5" ></text>
</g>
<g >
<title>firedrake.mg.embedded.TransferManager.op (1,306,916 us, 0.54%)</title><rect x="868.4" y="247" width="6.4" height="15.0" fill="rgb(0,0,0)" rx="2" ry="2" />
<text  x="871.42" y="257.5" ></text>
</g>
<g >
<title>SCBackSub (55,649,828 us, 23.13%)</title><rect x="404.2" y="135" width="272.9" height="15.0" fill="rgb(0,0,0)" rx="2" ry="2" />
<text  x="407.16" y="145.5" >SCBackSub</text>
</g>
<g >
<title>ParLoopExecute (8,279,912 us, 3.44%)</title><rect x="27.6" y="87" width="40.6" height="15.0" fill="rgb(0,0,0)" rx="2" ry="2" />
<text  x="30.61" y="97.5" >Par..</text>
</g>
<g >
<title>pyop2.global_kernel.GlobalKernel.compile (5,502,729 us, 2.29%)</title><rect x="900.6" y="199" width="26.9" height="15.0" fill="rgb(0,0,0)" rx="2" ry="2" />
<text  x="903.55" y="209.5" >p..</text>
</g>
<g >
<title>firedrake.matrix_free.operators.ImplicitMatrixContext.mult (10,043,734 us, 4.17%)</title><rect x="354.9" y="135" width="49.3" height="15.0" fill="rgb(0,0,0)" rx="2" ry="2" />
<text  x="357.91" y="145.5" >fire..</text>
</g>
<g >
<title>Parloop_Cells_wrap_wrap_slate_loopy_knl_0 (36,857,262 us, 15.32%)</title><rect x="938.5" y="167" width="180.8" height="15.0" fill="rgb(0,0,0)" rx="2" ry="2" />
<text  x="941.55" y="177.5" >Parloop_Cells_wrap_wr..</text>
</g>
<g >
<title>pyop2.global_kernel.GlobalKernel.compile (26,582,295 us, 11.05%)</title><rect x="520.0" y="199" width="130.4" height="15.0" fill="rgb(0,0,0)" rx="2" ry="2" />
<text  x="523.02" y="209.5" >pyop2.global_k..</text>
</g>
<g >
<title>Parloop_Cells_wrap_form00_interior_facet_horiz_integral_otherwise (1,819,279 us, 0.76%)</title><rect x="241.2" y="135" width="8.9" height="15.0" fill="rgb(0,0,0)" rx="2" ry="2" />
<text  x="244.22" y="145.5" ></text>
</g>
<g >
<title>ParLoopExecute (34,369,818 us, 14.28%)</title><rect x="687.7" y="167" width="168.6" height="15.0" fill="rgb(0,0,0)" rx="2" ry="2" />
<text  x="690.72" y="177.5" >ParLoopExecute</text>
</g>
<g >
<title>ParLoopExecute (8,468,132 us, 3.52%)</title><rect x="354.9" y="151" width="41.5" height="15.0" fill="rgb(0,0,0)" rx="2" ry="2" />
<text  x="357.91" y="161.5" >Par..</text>
</g>
<g >
<title>PCSetUp (7,227,730 us, 3.00%)</title><rect x="894.0" y="151" width="35.4" height="15.0" fill="rgb(0,0,0)" rx="2" ry="2" />
<text  x="896.98" y="161.5" >PC..</text>
</g>
<g >
<title>ParLoopExecute (11,056,345 us, 4.59%)</title><rect x="293.6" y="119" width="54.2" height="15.0" fill="rgb(0,0,0)" rx="2" ry="2" />
<text  x="296.57" y="129.5" >ParLo..</text>
</g>
<g >
<title>ParLoopExecute (590,062 us, 0.25%)</title><rect x="876.4" y="279" width="2.9" height="15.0" fill="rgb(0,0,0)" rx="2" ry="2" />
<text  x="879.44" y="289.5" ></text>
</g>
<g >
<title>firedrake.tsfc_interface.compile_form (1,716,120 us, 0.71%)</title><rect x="277.0" y="119" width="8.5" height="15.0" fill="rgb(0,0,0)" rx="2" ry="2" />
<text  x="280.04" y="129.5" ></text>
</g>
<g >
<title>ParLoopExecute (1,138,831 us, 0.47%)</title><rect x="879.3" y="311" width="5.6" height="15.0" fill="rgb(0,0,0)" rx="2" ry="2" />
<text  x="882.33" y="321.5" ></text>
</g>
</g>
</svg>
