<?xml version="1.0" standalone="no"?>
<!DOCTYPE svg PUBLIC "-//W3C//DTD SVG 1.1//EN" "http://www.w3.org/Graphics/SVG/1.1/DTD/svg11.dtd">
<svg version="1.1" width="1200" height="427" onload="init(evt)" viewBox="0 0 1200 427" xmlns="http://www.w3.org/2000/svg" xmlns:xlink="http://www.w3.org/1999/xlink">
<!-- Flame graph stack visualization. See https://github.com/brendangregg/FlameGraph for latest version, and http://www.brendangregg.com/flamegraphs.html for examples. -->
<!-- NOTES:  -->
<defs>
	<linearGradient id="background" y1="0" y2="1" x1="0" x2="0" >
		<stop stop-color="#eeeeee" offset="5%" />
		<stop stop-color="#eeeeb0" offset="95%" />
	</linearGradient>
</defs>
<style type="text/css">
	text { font-family:Verdana; font-size:13px; fill:rgb(0,0,0); }
	#search, #ignorecase { opacity:0.1; cursor:pointer; }
	#search:hover, #search.show, #ignorecase:hover, #ignorecase.show { opacity:1; }
	#subtitle { text-anchor:middle; font-color:rgb(160,160,160); }
	#title { text-anchor:middle; font-size:18px}
	#unzoom { cursor:pointer; }
	#frames > *:hover { stroke:black; stroke-width:0.5; cursor:pointer; }
	.hide { display:none; }
	.parent { opacity:0.5; }
</style>
<script type="text/ecmascript">
<![CDATA[
	"use strict";
	var details, searchbtn, unzoombtn, matchedtxt, svg, searching, currentSearchTerm, ignorecase, ignorecaseBtn;
	function init(evt) {
		details = document.getElementById("details").firstChild;
		searchbtn = document.getElementById("search");
		ignorecaseBtn = document.getElementById("ignorecase");
		unzoombtn = document.getElementById("unzoom");
		matchedtxt = document.getElementById("matched");
		svg = document.getElementsByTagName("svg")[0];
		searching = 0;
		currentSearchTerm = null;

		// use GET parameters to restore a flamegraphs state.
		var params = get_params();
		if (params.x && params.y)
			zoom(find_group(document.querySelector('[x="' + params.x + '"][y="' + params.y + '"]')));
                if (params.s) search(params.s);
	}

	// event listeners
	window.addEventListener("click", function(e) {
		var target = find_group(e.target);
		if (target) {
			if (target.nodeName == "a") {
				if (e.ctrlKey === false) return;
				e.preventDefault();
			}
			if (target.classList.contains("parent")) unzoom();
			zoom(target);
			if (!document.querySelector('.parent')) {
				clearzoom();
				return;
			}

			// set parameters for zoom state
			var el = target.querySelector("rect");
			if (el && el.attributes && el.attributes.y && el.attributes._orig_x) {
				var params = get_params()
				params.x = el.attributes._orig_x.value;
				params.y = el.attributes.y.value;
				history.replaceState(null, null, parse_params(params));
			}
		}
		else if (e.target.id == "unzoom") clearzoom();
		else if (e.target.id == "search") search_prompt();
		else if (e.target.id == "ignorecase") toggle_ignorecase();
	}, false)

	// mouse-over for info
	// show
	window.addEventListener("mouseover", function(e) {
		var target = find_group(e.target);
		if (target) details.nodeValue = "Function: " + g_to_text(target);
	}, false)

	// clear
	window.addEventListener("mouseout", function(e) {
		var target = find_group(e.target);
		if (target) details.nodeValue = ' ';
	}, false)

	// ctrl-F for search
	// ctrl-I to toggle case-sensitive search
	window.addEventListener("keydown",function (e) {
		if (e.keyCode === 114 || (e.ctrlKey && e.keyCode === 70)) {
			e.preventDefault();
			search_prompt();
		}
		else if (e.ctrlKey && e.keyCode === 73) {
			e.preventDefault();
			toggle_ignorecase();
		}
	}, false)

	// functions
	function get_params() {
		var params = {};
		var paramsarr = window.location.search.substr(1).split('&');
		for (var i = 0; i < paramsarr.length; ++i) {
			var tmp = paramsarr[i].split("=");
			if (!tmp[0] || !tmp[1]) continue;
			params[tmp[0]]  = decodeURIComponent(tmp[1]);
		}
		return params;
	}
	function parse_params(params) {
		var uri = "?";
		for (var key in params) {
			uri += key + '=' + encodeURIComponent(params[key]) + '&';
		}
		if (uri.slice(-1) == "&")
			uri = uri.substring(0, uri.length - 1);
		if (uri == '?')
			uri = window.location.href.split('?')[0];
		return uri;
	}
	function find_child(node, selector) {
		var children = node.querySelectorAll(selector);
		if (children.length) return children[0];
	}
	function find_group(node) {
		var parent = node.parentElement;
		if (!parent) return;
		if (parent.id == "frames") return node;
		return find_group(parent);
	}
	function orig_save(e, attr, val) {
		if (e.attributes["_orig_" + attr] != undefined) return;
		if (e.attributes[attr] == undefined) return;
		if (val == undefined) val = e.attributes[attr].value;
		e.setAttribute("_orig_" + attr, val);
	}
	function orig_load(e, attr) {
		if (e.attributes["_orig_"+attr] == undefined) return;
		e.attributes[attr].value = e.attributes["_orig_" + attr].value;
		e.removeAttribute("_orig_"+attr);
	}
	function g_to_text(e) {
		var text = find_child(e, "title").firstChild.nodeValue;
		return (text)
	}
	function g_to_func(e) {
		var func = g_to_text(e);
		// if there's any manipulation we want to do to the function
		// name before it's searched, do it here before returning.
		return (func);
	}
	function update_text(e) {
		var r = find_child(e, "rect");
		var t = find_child(e, "text");
		var w = parseFloat(r.attributes.width.value) -3;
		var txt = find_child(e, "title").textContent.replace(/\([^(]*\)$/,"");
		t.attributes.x.value = parseFloat(r.attributes.x.value) + 3;

		// Smaller than this size won't fit anything
		if (w < 2 * 13 * 0.59) {
			t.textContent = "";
			return;
		}

		t.textContent = txt;
		// Fit in full text width
		if (/^ *$/.test(txt) || t.getSubStringLength(0, txt.length) < w)
			return;

		for (var x = txt.length - 2; x > 0; x--) {
			if (t.getSubStringLength(0, x + 2) <= w) {
				t.textContent = txt.substring(0, x) + "..";
				return;
			}
		}
		t.textContent = "";
	}

	// zoom
	function zoom_reset(e) {
		if (e.attributes != undefined) {
			orig_load(e, "x");
			orig_load(e, "width");
		}
		if (e.childNodes == undefined) return;
		for (var i = 0, c = e.childNodes; i < c.length; i++) {
			zoom_reset(c[i]);
		}
	}
	function zoom_child(e, x, ratio) {
		if (e.attributes != undefined) {
			if (e.attributes.x != undefined) {
				orig_save(e, "x");
				e.attributes.x.value = (parseFloat(e.attributes.x.value) - x - 10) * ratio + 10;
				if (e.tagName == "text")
					e.attributes.x.value = find_child(e.parentNode, "rect[x]").attributes.x.value + 3;
			}
			if (e.attributes.width != undefined) {
				orig_save(e, "width");
				e.attributes.width.value = parseFloat(e.attributes.width.value) * ratio;
			}
		}

		if (e.childNodes == undefined) return;
		for (var i = 0, c = e.childNodes; i < c.length; i++) {
			zoom_child(c[i], x - 10, ratio);
		}
	}
	function zoom_parent(e) {
		if (e.attributes) {
			if (e.attributes.x != undefined) {
				orig_save(e, "x");
				e.attributes.x.value = 10;
			}
			if (e.attributes.width != undefined) {
				orig_save(e, "width");
				e.attributes.width.value = parseInt(svg.width.baseVal.value) - (10 * 2);
			}
		}
		if (e.childNodes == undefined) return;
		for (var i = 0, c = e.childNodes; i < c.length; i++) {
			zoom_parent(c[i]);
		}
	}
	function zoom(node) {
		var attr = find_child(node, "rect").attributes;
		var width = parseFloat(attr.width.value);
		var xmin = parseFloat(attr.x.value);
		var xmax = parseFloat(xmin + width);
		var ymin = parseFloat(attr.y.value);
		var ratio = (svg.width.baseVal.value - 2 * 10) / width;

		// XXX: Workaround for JavaScript float issues (fix me)
		var fudge = 0.0001;

		unzoombtn.classList.remove("hide");

		var el = document.getElementById("frames").children;
		for (var i = 0; i < el.length; i++) {
			var e = el[i];
			var a = find_child(e, "rect").attributes;
			var ex = parseFloat(a.x.value);
			var ew = parseFloat(a.width.value);
			var upstack;
			// Is it an ancestor
			if (1 == 0) {
				upstack = parseFloat(a.y.value) > ymin;
			} else {
				upstack = parseFloat(a.y.value) < ymin;
			}
			if (upstack) {
				// Direct ancestor
				if (ex <= xmin && (ex+ew+fudge) >= xmax) {
					e.classList.add("parent");
					zoom_parent(e);
					update_text(e);
				}
				// not in current path
				else
					e.classList.add("hide");
			}
			// Children maybe
			else {
				// no common path
				if (ex < xmin || ex + fudge >= xmax) {
					e.classList.add("hide");
				}
				else {
					zoom_child(e, xmin, ratio);
					update_text(e);
				}
			}
		}
		search();
	}
	function unzoom() {
		unzoombtn.classList.add("hide");
		var el = document.getElementById("frames").children;
		for(var i = 0; i < el.length; i++) {
			el[i].classList.remove("parent");
			el[i].classList.remove("hide");
			zoom_reset(el[i]);
			update_text(el[i]);
		}
		search();
	}
	function clearzoom() {
		unzoom();

		// remove zoom state
		var params = get_params();
		if (params.x) delete params.x;
		if (params.y) delete params.y;
		history.replaceState(null, null, parse_params(params));
	}

	// search
	function toggle_ignorecase() {
		ignorecase = !ignorecase;
		if (ignorecase) {
			ignorecaseBtn.classList.add("show");
		} else {
			ignorecaseBtn.classList.remove("show");
		}
		reset_search();
		search();
	}
	function reset_search() {
		var el = document.querySelectorAll("#frames rect");
		for (var i = 0; i < el.length; i++) {
			orig_load(el[i], "fill")
		}
		var params = get_params();
		delete params.s;
		history.replaceState(null, null, parse_params(params));
	}
	function search_prompt() {
		if (!searching) {
			var term = prompt("Enter a search term (regexp " +
			    "allowed, eg: ^ext4_)"
			    + (ignorecase ? ", ignoring case" : "")
			    + "\nPress Ctrl-i to toggle case sensitivity", "");
			if (term != null) search(term);
		} else {
			reset_search();
			searching = 0;
			currentSearchTerm = null;
			searchbtn.classList.remove("show");
			searchbtn.firstChild.nodeValue = "Search"
			matchedtxt.classList.add("hide");
			matchedtxt.firstChild.nodeValue = ""
		}
	}
	function search(term) {
		if (term) currentSearchTerm = term;

		var re = new RegExp(currentSearchTerm, ignorecase ? 'i' : '');
		var el = document.getElementById("frames").children;
		var matches = new Object();
		var maxwidth = 0;
		for (var i = 0; i < el.length; i++) {
			var e = el[i];
			var func = g_to_func(e);
			var rect = find_child(e, "rect");
			if (func == null || rect == null)
				continue;

			// Save max width. Only works as we have a root frame
			var w = parseFloat(rect.attributes.width.value);
			if (w > maxwidth)
				maxwidth = w;

			if (func.match(re)) {
				// highlight
				var x = parseFloat(rect.attributes.x.value);
				orig_save(rect, "fill");
				rect.attributes.fill.value = "rgb(230,0,230)";

				// remember matches
				if (matches[x] == undefined) {
					matches[x] = w;
				} else {
					if (w > matches[x]) {
						// overwrite with parent
						matches[x] = w;
					}
				}
				searching = 1;
			}
		}
		if (!searching)
			return;
		var params = get_params();
		params.s = currentSearchTerm;
		history.replaceState(null, null, parse_params(params));

		searchbtn.classList.add("show");
		searchbtn.firstChild.nodeValue = "Reset Search";

		// calculate percent matched, excluding vertical overlap
		var count = 0;
		var lastx = -1;
		var lastw = 0;
		var keys = Array();
		for (k in matches) {
			if (matches.hasOwnProperty(k))
				keys.push(k);
		}
		// sort the matched frames by their x location
		// ascending, then width descending
		keys.sort(function(a, b){
			return a - b;
		});
		// Step through frames saving only the biggest bottom-up frames
		// thanks to the sort order. This relies on the tree property
		// where children are always smaller than their parents.
		var fudge = 0.0001;	// JavaScript floating point
		for (var k in keys) {
			var x = parseFloat(keys[k]);
			var w = matches[keys[k]];
			if (x >= lastx + lastw - fudge) {
				count += w;
				lastx = x;
				lastw = w;
			}
		}
		// display matched percent
		matchedtxt.classList.remove("hide");
		var pct = 100 * count / maxwidth;
		if (pct != 100) pct = pct.toFixed(1)
		matchedtxt.firstChild.nodeValue = "Matched: " + pct + "%";
	}
]]>
</script>
<rect x="0.0" y="0" width="1200.0" height="427.0" fill="url(#background)"  />
<text id="title" x="600.00" y="26" >Firedrake example</text>
<text id="details" x="10.00" y="409" > </text>
<text id="unzoom" x="10.00" y="26" class="hide">Reset Zoom</text>
<text id="search" x="1090.00" y="26" >Search</text>
<text id="ignorecase" x="1174.00" y="26" >ic</text>
<text id="matched" x="1090.00" y="409" > </text>
<g id="frames">
<g >
<title>Log_Event_subkernel8_interior_facet_vert_to__exterior_facet_vert_integral_otherwise (13,109,373 us, 4.07%)</title><rect x="490.6" y="279" width="48.0" height="15.0" fill="rgb(0,0,0)" rx="2" ry="2" />
<text  x="493.60" y="289.5" >Log_..</text>
</g>
<g >
<title>PCSetUp (7,183,952 us, 2.23%)</title><rect x="1125.2" y="151" width="26.2" height="15.0" fill="rgb(0,0,0)" rx="2" ry="2" />
<text  x="1128.16" y="161.5" >P..</text>
</g>
<g >
<title>firedrake.tsfc_interface.compile_form (4,098,617 us, 1.27%)</title><rect x="935.9" y="263" width="15.0" height="15.0" fill="rgb(0,0,0)" rx="2" ry="2" />
<text  x="938.87" y="273.5" ></text>
</g>
<g >
<title>ParLoopExecute (8,374,252 us, 2.60%)</title><rect x="1154.7" y="119" width="30.6" height="15.0" fill="rgb(0,0,0)" rx="2" ry="2" />
<text  x="1157.70" y="129.5" >P..</text>
</g>
<g >
<title>Log_Event_subkernel8_interior_facet_horiz_top_to__exterior_facet_top_integral_otherwise (933,861 us, 0.29%)</title><rect x="487.2" y="279" width="3.4" height="15.0" fill="rgb(0,0,0)" rx="2" ry="2" />
<text  x="490.18" y="289.5" ></text>
</g>
<g >
<title>PCApply (1,289,066 us, 0.40%)</title><rect x="653.5" y="231" width="4.7" height="15.0" fill="rgb(0,0,0)" rx="2" ry="2" />
<text  x="656.49" y="241.5" ></text>
</g>
<g >
<title>CreateSparsity (402,511 us, 0.12%)</title><rect x="1105.6" y="247" width="1.4" height="15.0" fill="rgb(0,0,0)" rx="2" ry="2" />
<text  x="1108.57" y="257.5" ></text>
</g>
<g >
<title>Log_Event_subkernel6_interior_facet_vert_to__exterior_facet_vert_integral_otherwise (169,973 us, 0.05%)</title><rect x="974.5" y="263" width="0.6" height="15.0" fill="rgb(0,0,0)" rx="2" ry="2" />
<text  x="977.51" y="273.5" ></text>
</g>
<g >
<title>Log_Event_subkernel10_interior_facet_horiz_bottom_to__exterior_facet_bottom_integral_otherwise (873,474 us, 0.27%)</title><rect x="440.6" y="279" width="3.2" height="15.0" fill="rgb(0,0,0)" rx="2" ry="2" />
<text  x="443.62" y="289.5" ></text>
</g>
<g >
<title>solve_getrf (5,201,137 us, 1.61%)</title><rect x="674.5" y="295" width="19.0" height="15.0" fill="rgb(0,0,0)" rx="2" ry="2" />
<text  x="677.50" y="305.5" ></text>
</g>
<g >
<title>Parloop_Cells_wrap_wrap_slate_loopy_knl_3 (40,473,428 us, 12.55%)</title><rect x="957.5" y="247" width="148.1" height="15.0" fill="rgb(0,0,0)" rx="2" ry="2" />
<text  x="960.46" y="257.5" >Parloop_Cells_wra..</text>
</g>
<g >
<title>PCApply (309,463,730 us, 95.97%)</title><rect x="19.0" y="119" width="1132.4" height="15.0" fill="rgb(0,0,0)" rx="2" ry="2" />
<text  x="21.98" y="129.5" >PCApply</text>
</g>
<g >
<title>MatMultTranspose (1,076,481 us, 0.33%)</title><rect x="667.7" y="247" width="3.9" height="15.0" fill="rgb(0,0,0)" rx="2" ry="2" />
<text  x="670.66" y="257.5" ></text>
</g>
<g >
<title>pyop2.global_kernel.GlobalKernel.compile (899,814 us, 0.28%)</title><rect x="138.8" y="215" width="3.2" height="15.0" fill="rgb(0,0,0)" rx="2" ry="2" />
<text  x="141.75" y="225.5" ></text>
</g>
<g >
<title>Parloop_Cells_wrap_wrap_slate_loopy_knl_7 (18,322,315 us, 5.68%)</title><rect x="671.6" y="263" width="67.0" height="15.0" fill="rgb(0,0,0)" rx="2" ry="2" />
<text  x="674.60" y="273.5" >Parloo..</text>
</g>
<g >
<title>firedrake.pointquery_utils.to_reference_coordinates (460,323 us, 0.14%)</title><rect x="666.0" y="311" width="1.7" height="15.0" fill="rgb(0,0,0)" rx="2" ry="2" />
<text  x="668.97" y="321.5" ></text>
</g>
<g >
<title>ParLoopExecute (40,473,428 us, 12.55%)</title><rect x="957.5" y="231" width="148.1" height="15.0" fill="rgb(0,0,0)" rx="2" ry="2" />
<text  x="960.46" y="241.5" >ParLoopExecute</text>
</g>
<g >
<title>firedrake.extrusion_utils.make_extruded_coords (900,512 us, 0.28%)</title><rect x="10.0" y="87" width="3.3" height="15.0" fill="rgb(0,0,0)" rx="2" ry="2" />
<text  x="13.00" y="97.5" ></text>
</g>
<g >
<title>firedrake.tsfc_interface.compile_form (378,481 us, 0.12%)</title><rect x="1123.8" y="215" width="1.4" height="15.0" fill="rgb(0,0,0)" rx="2" ry="2" />
<text  x="1126.77" y="225.5" ></text>
</g>
<g >
<title>HybridInit (889,977 us, 0.28%)</title><rect x="1151.4" y="119" width="3.3" height="15.0" fill="rgb(0,0,0)" rx="2" ry="2" />
<text  x="1154.45" y="129.5" ></text>
</g>
<g >
<title>Log_Event_subkernel10_interior_facet_horiz_top_to__exterior_facet_top_integral_otherwise (187,030 us, 0.06%)</title><rect x="695.9" y="279" width="0.7" height="15.0" fill="rgb(0,0,0)" rx="2" ry="2" />
<text  x="698.94" y="289.5" ></text>
</g>
<g >
<title>ParLoopExecute (28,492,892 us, 8.84%)</title><rect x="147.0" y="167" width="104.3" height="15.0" fill="rgb(0,0,0)" rx="2" ry="2" />
<text  x="150.05" y="177.5" >ParLoopExec..</text>
</g>
<g >
<title>ParLoopExecute (52,146,961 us, 16.17%)</title><rect x="745.0" y="263" width="190.9" height="15.0" fill="rgb(0,0,0)" rx="2" ry="2" />
<text  x="748.04" y="273.5" >ParLoopExecute</text>
</g>
<g >
<title>firedrake.tsfc_interface.compile_form (1,271,439 us, 0.39%)</title><rect x="1185.3" y="119" width="4.7" height="15.0" fill="rgb(0,0,0)" rx="2" ry="2" />
<text  x="1188.35" y="129.5" ></text>
</g>
<g >
<title>SNESFunctionEval (9,645,691 us, 2.99%)</title><rect x="1154.7" y="103" width="35.3" height="15.0" fill="rgb(0,0,0)" rx="2" ry="2" />
<text  x="1157.70" y="113.5" >SN..</text>
</g>
<g >
<title>MGInterp Level 1 (1,254,480 us, 0.39%)</title><rect x="653.5" y="247" width="4.6" height="15.0" fill="rgb(0,0,0)" rx="2" ry="2" />
<text  x="656.49" y="257.5" ></text>
</g>
<g >
<title>HybridRHS (32,454,942 us, 10.07%)</title><rect x="142.0" y="151" width="118.8" height="15.0" fill="rgb(0,0,0)" rx="2" ry="2" />
<text  x="145.04" y="161.5" >HybridRHS</text>
</g>
<g >
<title>firedrake.tsfc_interface.compile_form (3,928,016 us, 1.22%)</title><rect x="124.4" y="167" width="14.4" height="15.0" fill="rgb(0,0,0)" rx="2" ry="2" />
<text  x="127.38" y="177.5" ></text>
</g>
<g >
<title>firedrake.mg.interface.inject (2,583,082 us, 0.80%)</title><rect x="658.2" y="295" width="9.5" height="15.0" fill="rgb(0,0,0)" rx="2" ry="2" />
<text  x="661.21" y="305.5" ></text>
</g>
<g >
<title>Parloop_Cells_wrap_par_loop_kernel (899,814 us, 0.28%)</title><rect x="138.8" y="199" width="3.2" height="15.0" fill="rgb(0,0,0)" rx="2" ry="2" />
<text  x="141.75" y="209.5" ></text>
</g>
<g >
<title>Log_Event_subkernel10_interior_facet_horiz_bottom_to__exterior_facet_bottom_integral_otherwise (168,160 us, 0.05%)</title><rect x="283.1" y="231" width="0.7" height="15.0" fill="rgb(0,0,0)" rx="2" ry="2" />
<text  x="286.15" y="241.5" ></text>
</g>
<g >
<title>firedrake.interpolation.Interpolator.interpolate (1,132,694 us, 0.35%)</title><rect x="661.6" y="327" width="4.2" height="15.0" fill="rgb(0,0,0)" rx="2" ry="2" />
<text  x="664.65" y="337.5" ></text>
</g>
<g >
<title>firedrake.interpolation.interpolate (1,182,742 us, 0.37%)</title><rect x="661.6" y="311" width="4.4" height="15.0" fill="rgb(0,0,0)" rx="2" ry="2" />
<text  x="664.65" y="321.5" ></text>
</g>
<g >
<title>Log_Event_slate_loopy_knl_7 (5,080,442 us, 1.58%)</title><rect x="747.3" y="295" width="18.6" height="15.0" fill="rgb(0,0,0)" rx="2" ry="2" />
<text  x="750.34" y="305.5" ></text>
</g>
<g >
<title>ParLoopExecute (18,322,315 us, 5.68%)</title><rect x="671.6" y="247" width="67.0" height="15.0" fill="rgb(0,0,0)" rx="2" ry="2" />
<text  x="674.60" y="257.5" >ParLoo..</text>
</g>
<g >
<title>solve_memcpy (267,260 us, 0.08%)</title><rect x="282.2" y="247" width="0.9" height="15.0" fill="rgb(0,0,0)" rx="2" ry="2" />
<text  x="285.17" y="257.5" ></text>
</g>
<g >
<title>SNESSolve (319,999,398 us, 99.24%)</title><rect x="19.0" y="87" width="1171.0" height="15.0" fill="rgb(0,0,0)" rx="2" ry="2" />
<text  x="21.98" y="97.5" >SNESSolve</text>
</g>
<g >
<title>Parloop_set_#x7ffa3fcf08e0_wrap_pyop2_kernel_restrict (634,734 us, 0.20%)</title><rect x="667.7" y="295" width="2.3" height="15.0" fill="rgb(0,0,0)" rx="2" ry="2" />
<text  x="670.66" y="305.5" ></text>
</g>
<g >
<title>pyop2.global_kernel.GlobalKernel.compile (5,205,717 us, 1.61%)</title><rect x="1130.2" y="199" width="19.1" height="15.0" fill="rgb(0,0,0)" rx="2" ry="2" />
<text  x="1133.20" y="209.5" ></text>
</g>
<g >
<title>Parloop_set_#x7ffa486bfe20_wrap_pyop2_kernel_prolong (561,844 us, 0.17%)</title><rect x="654.4" y="327" width="2.1" height="15.0" fill="rgb(0,0,0)" rx="2" ry="2" />
<text  x="657.45" y="337.5" ></text>
</g>
<g >
<title>pyop2.global_kernel.GlobalKernel.compile (1,132,694 us, 0.35%)</title><rect x="661.6" y="375" width="4.2" height="15.0" fill="rgb(0,0,0)" rx="2" ry="2" />
<text  x="664.65" y="385.5" ></text>
</g>
<g >
<title>pyop2.global_kernel.GlobalKernel.compile (792,395 us, 0.25%)</title><rect x="1151.8" y="183" width="2.9" height="15.0" fill="rgb(0,0,0)" rx="2" ry="2" />
<text  x="1154.80" y="193.5" ></text>
</g>
<g >
<title>firedrake.mg.embedded.TransferManager.op (2,583,082 us, 0.80%)</title><rect x="658.2" y="279" width="9.5" height="15.0" fill="rgb(0,0,0)" rx="2" ry="2" />
<text  x="661.21" y="289.5" ></text>
</g>
<g >
<title>Log_Event_subkernel9_cell_to__cell_integral_otherwise (5,982,004 us, 1.86%)</title><rect x="783.7" y="295" width="21.9" height="15.0" fill="rgb(0,0,0)" rx="2" ry="2" />
<text  x="786.74" y="305.5" ></text>
</g>
<g >
<title>firedrake.tsfc_interface.compile_form (4,431,452 us, 1.37%)</title><rect x="1107.6" y="231" width="16.2" height="15.0" fill="rgb(0,0,0)" rx="2" ry="2" />
<text  x="1110.55" y="241.5" ></text>
</g>
<g >
<title>ParLoopExecute (17,430,433 us, 5.41%)</title><rect x="260.8" y="199" width="63.8" height="15.0" fill="rgb(0,0,0)" rx="2" ry="2" />
<text  x="263.81" y="209.5" >ParLoo..</text>
</g>
<g >
<title>Log_Event_subkernel4_interior_facet_vert_to__exterior_facet_vert_integral_otherwise (214,654 us, 0.07%)</title><rect x="971.6" y="263" width="0.8" height="15.0" fill="rgb(0,0,0)" rx="2" ry="2" />
<text  x="974.60" y="273.5" ></text>
</g>
<g >
<title>pyop2.global_kernel.GlobalKernel.compile (27,087,907 us, 8.40%)</title><rect x="152.2" y="199" width="99.1" height="15.0" fill="rgb(0,0,0)" rx="2" ry="2" />
<text  x="155.19" y="209.5" >pyop2.glob..</text>
</g>
<g >
<title>Log_Event_subkernel8_interior_facet_horiz_bottom_to__exterior_facet_bottom_integral_otherwise (896,658 us, 0.28%)</title><rect x="483.9" y="279" width="3.3" height="15.0" fill="rgb(0,0,0)" rx="2" ry="2" />
<text  x="486.90" y="289.5" ></text>
</g>
<g >
<title>firedrake (322,452,259 us, 100.00%)</title><rect x="10.0" y="55" width="1180.0" height="15.0" fill="rgb(0,0,0)" rx="2" ry="2" />
<text  x="13.00" y="65.5" >firedrake</text>
</g>
<g >
<title>Log_Event_subkernel10_interior_facet_horiz_top_to__exterior_facet_top_integral_otherwise (176,086 us, 0.05%)</title><rect x="283.8" y="231" width="0.6" height="15.0" fill="rgb(0,0,0)" rx="2" ry="2" />
<text  x="286.76" y="241.5" ></text>
</g>
<g >
<title>Parloop_Cells_wrap_expression_kernel (1,379,695 us, 0.43%)</title><rect x="1125.2" y="183" width="5.0" height="15.0" fill="rgb(0,0,0)" rx="2" ry="2" />
<text  x="1128.16" y="193.5" ></text>
</g>
<g >
<title>Log_Event_slate_loopy_knl_0 (496,430 us, 0.15%)</title><rect x="147.3" y="199" width="1.8" height="15.0" fill="rgb(0,0,0)" rx="2" ry="2" />
<text  x="150.31" y="209.5" ></text>
</g>
<g >
<title>DMCoarsen (2,583,082 us, 0.80%)</title><rect x="658.2" y="247" width="9.5" height="15.0" fill="rgb(0,0,0)" rx="2" ry="2" />
<text  x="661.21" y="257.5" ></text>
</g>
<g >
<title>solve_getrs (999,739 us, 0.31%)</title><rect x="432.0" y="295" width="3.6" height="15.0" fill="rgb(0,0,0)" rx="2" ry="2" />
<text  x="434.98" y="305.5" ></text>
</g>
<g >
<title>Parloop_set_#x7ffa486bfe20_wrap_pyop2_kernel_inject (607,497 us, 0.19%)</title><rect x="659.4" y="327" width="2.2" height="15.0" fill="rgb(0,0,0)" rx="2" ry="2" />
<text  x="662.42" y="337.5" ></text>
</g>
<g >
<title>solve_memcpy (1,362,496 us, 0.42%)</title><rect x="435.6" y="295" width="5.0" height="15.0" fill="rgb(0,0,0)" rx="2" ry="2" />
<text  x="438.64" y="305.5" ></text>
</g>
<g >
<title>Parloop_Cells_wrap_form00_cell_integral_otherwise (5,205,717 us, 1.61%)</title><rect x="1130.2" y="183" width="19.1" height="15.0" fill="rgb(0,0,0)" rx="2" ry="2" />
<text  x="1133.20" y="193.5" ></text>
</g>
<g >
<title>ParLoopExecute (27,013,746 us, 8.38%)</title><rect x="25.5" y="167" width="98.9" height="15.0" fill="rgb(0,0,0)" rx="2" ry="2" />
<text  x="28.52" y="177.5" >ParLoopExe..</text>
</g>
<g >
<title>Log_Event_subkernel9_cell_to__cell_integral_otherwise (31,401,514 us, 9.74%)</title><rect x="538.6" y="279" width="114.9" height="15.0" fill="rgb(0,0,0)" rx="2" ry="2" />
<text  x="541.58" y="289.5" >Log_Event_su..</text>
</g>
<g >
<title>firedrake.__init__ (1,552,349 us, 0.48%)</title><rect x="13.3" y="71" width="5.7" height="15.0" fill="rgb(0,0,0)" rx="2" ry="2" />
<text  x="16.30" y="81.5" ></text>
</g>
<g >
<title>firedrake.parloops.par_loop (899,814 us, 0.28%)</title><rect x="138.8" y="167" width="3.2" height="15.0" fill="rgb(0,0,0)" rx="2" ry="2" />
<text  x="141.75" y="177.5" ></text>
</g>
<g >
<title>Parloop_Cells_wrap_wrap_slate_loopy_knl_0 (28,492,892 us, 8.84%)</title><rect x="147.0" y="183" width="104.3" height="15.0" fill="rgb(0,0,0)" rx="2" ry="2" />
<text  x="150.05" y="193.5" >Parloop_Cel..</text>
</g>
<g >
<title>PCSetUp (378,481 us, 0.12%)</title><rect x="1123.8" y="199" width="1.4" height="15.0" fill="rgb(0,0,0)" rx="2" ry="2" />
<text  x="1126.77" y="209.5" ></text>
</g>
<g >
<title>Log_Event_subkernel10_interior_facet_horiz_bottom_to__exterior_facet_bottom_integral_otherwise (177,947 us, 0.06%)</title><rect x="695.3" y="279" width="0.6" height="15.0" fill="rgb(0,0,0)" rx="2" ry="2" />
<text  x="698.29" y="289.5" ></text>
</g>
<g >
<title>solve_getrf (448,177 us, 0.14%)</title><rect x="147.5" y="215" width="1.6" height="15.0" fill="rgb(0,0,0)" rx="2" ry="2" />
<text  x="150.49" y="225.5" ></text>
</g>
<g >
<title>Log_Event_subkernel8_interior_facet_vert_to__exterior_facet_vert_integral_otherwise (2,495,764 us, 0.77%)</title><rect x="292.8" y="231" width="9.1" height="15.0" fill="rgb(0,0,0)" rx="2" ry="2" />
<text  x="295.78" y="241.5" ></text>
</g>
<g >
<title>ParLoopExecute (792,395 us, 0.25%)</title><rect x="1151.8" y="151" width="2.9" height="15.0" fill="rgb(0,0,0)" rx="2" ry="2" />
<text  x="1154.80" y="161.5" ></text>
</g>
<g >
<title>Log_Event_subkernel2_cell_to__cell_integral_otherwise (597,819 us, 0.19%)</title><rect x="150.0" y="199" width="2.2" height="15.0" fill="rgb(0,0,0)" rx="2" ry="2" />
<text  x="153.00" y="209.5" ></text>
</g>
<g >
<title>ParLoopExecute (6,585,412 us, 2.04%)</title><rect x="1125.2" y="167" width="24.1" height="15.0" fill="rgb(0,0,0)" rx="2" ry="2" />
<text  x="1128.16" y="177.5" >P..</text>
</g>
<g >
<title>inv_getri (1,936,519 us, 0.60%)</title><rect x="964.5" y="279" width="7.1" height="15.0" fill="rgb(0,0,0)" rx="2" ry="2" />
<text  x="967.51" y="289.5" ></text>
</g>
<g >
<title>Parloop_Cells_wrap_wrap_slate_loopy_knl_11 (27,013,746 us, 8.38%)</title><rect x="25.5" y="183" width="98.9" height="15.0" fill="rgb(0,0,0)" rx="2" ry="2" />
<text  x="28.52" y="193.5" >Parloop_Ce..</text>
</g>
<g >
<title>Log_Event_subkernel5_cell_to__cell_integral_otherwise (581,345 us, 0.18%)</title><rect x="972.4" y="263" width="2.1" height="15.0" fill="rgb(0,0,0)" rx="2" ry="2" />
<text  x="975.38" y="273.5" ></text>
</g>
<g >
<title>ParLoopExecute (89,835,327 us, 27.86%)</title><rect x="324.7" y="247" width="328.8" height="15.0" fill="rgb(0,0,0)" rx="2" ry="2" />
<text  x="327.74" y="257.5" >ParLoopExecute</text>
</g>
<g >
<title>solve_getrs (196,159 us, 0.06%)</title><rect x="281.4" y="247" width="0.8" height="15.0" fill="rgb(0,0,0)" rx="2" ry="2" />
<text  x="284.45" y="257.5" ></text>
</g>
<g >
<title>ParLoopExecute (634,734 us, 0.20%)</title><rect x="667.7" y="279" width="2.3" height="15.0" fill="rgb(0,0,0)" rx="2" ry="2" />
<text  x="670.66" y="289.5" ></text>
</g>
<g >
<title>SCBackSub (32,730,501 us, 10.15%)</title><rect x="19.0" y="135" width="119.8" height="15.0" fill="rgb(0,0,0)" rx="2" ry="2" />
<text  x="21.98" y="145.5" >SCBackSub</text>
</g>
<g >
<title>pyop2.global_kernel.GlobalKernel.compile (900,512 us, 0.28%)</title><rect x="10.0" y="135" width="3.3" height="15.0" fill="rgb(0,0,0)" rx="2" ry="2" />
<text  x="13.00" y="145.5" ></text>
</g>
<g >
<title>solve_getrs (185,240 us, 0.06%)</title><rect x="764.4" y="311" width="0.6" height="15.0" fill="rgb(0,0,0)" rx="2" ry="2" />
<text  x="767.36" y="321.5" ></text>
</g>
<g >
<title>Log_Event_subkernel8_interior_facet_horiz_bottom_to__exterior_facet_bottom_integral_otherwise (183,312 us, 0.06%)</title><rect x="704.1" y="279" width="0.7" height="15.0" fill="rgb(0,0,0)" rx="2" ry="2" />
<text  x="707.14" y="289.5" ></text>
</g>
<g >
<title>pyop2.global_kernel.GlobalKernel.compile (4,192,981 us, 1.30%)</title><rect x="1154.7" y="151" width="15.3" height="15.0" fill="rgb(0,0,0)" rx="2" ry="2" />
<text  x="1157.70" y="161.5" ></text>
</g>
<g >
<title>PCApply (218,764,088 us, 67.84%)</title><rect x="324.6" y="167" width="800.6" height="15.0" fill="rgb(0,0,0)" rx="2" ry="2" />
<text  x="327.60" y="177.5" >PCApply</text>
</g>
<g >
<title>ParLoopExecute (899,814 us, 0.28%)</title><rect x="138.8" y="183" width="3.2" height="15.0" fill="rgb(0,0,0)" rx="2" ry="2" />
<text  x="141.75" y="193.5" ></text>
</g>
<g >
<title>Log_Event_subkernel10_interior_facet_vert_to__exterior_facet_vert_integral_otherwise (10,039,526 us, 3.11%)</title><rect x="447.2" y="279" width="36.7" height="15.0" fill="rgb(0,0,0)" rx="2" ry="2" />
<text  x="450.16" y="289.5" >Lo..</text>
</g>
<g >
<title>pyop2.global_kernel.GlobalKernel.compile (1,379,695 us, 0.43%)</title><rect x="1125.2" y="199" width="5.0" height="15.0" fill="rgb(0,0,0)" rx="2" ry="2" />
<text  x="1128.16" y="209.5" ></text>
</g>
<g >
<title>ParLoopExecute (900,512 us, 0.28%)</title><rect x="10.0" y="103" width="3.3" height="15.0" fill="rgb(0,0,0)" rx="2" ry="2" />
<text  x="13.00" y="113.5" ></text>
</g>
<g >
<title>Log_Event_subkernel10_interior_facet_horiz_bottom_to__exterior_facet_bottom_integral_otherwise (160,742 us, 0.05%)</title><rect x="765.9" y="295" width="0.6" height="15.0" fill="rgb(0,0,0)" rx="2" ry="2" />
<text  x="768.93" y="305.5" ></text>
</g>
<g >
<title>RecoverFirstElim (32,730,501 us, 10.15%)</title><rect x="19.0" y="151" width="119.8" height="15.0" fill="rgb(0,0,0)" rx="2" ry="2" />
<text  x="21.98" y="161.5" >RecoverFirstE..</text>
</g>
<g >
<title>Log_Event_inits_wrap_slate_loopy_knl_7 (226,706 us, 0.07%)</title><rect x="262.4" y="231" width="0.9" height="15.0" fill="rgb(0,0,0)" rx="2" ry="2" />
<text  x="265.43" y="241.5" ></text>
</g>
<g >
<title>MatMult (1,254,480 us, 0.39%)</title><rect x="653.5" y="263" width="4.6" height="15.0" fill="rgb(0,0,0)" rx="2" ry="2" />
<text  x="656.49" y="273.5" ></text>
</g>
<g >
<title>Parloop_Cells_wrap_form0_cell_integral_otherwise (4,192,981 us, 1.30%)</title><rect x="1154.7" y="135" width="15.3" height="15.0" fill="rgb(0,0,0)" rx="2" ry="2" />
<text  x="1157.70" y="145.5" ></text>
</g>
<g >
<title>solve_getrf (4,551,957 us, 1.41%)</title><rect x="747.7" y="311" width="16.7" height="15.0" fill="rgb(0,0,0)" rx="2" ry="2" />
<text  x="750.70" y="321.5" ></text>
</g>
<g >
<title>Log_Event_subkernel9_cell_to__cell_integral_otherwise (6,199,387 us, 1.92%)</title><rect x="301.9" y="231" width="22.7" height="15.0" fill="rgb(0,0,0)" rx="2" ry="2" />
<text  x="304.91" y="241.5" ></text>
</g>
<g >
<title>firedrake.matrix_free.operators.ImplicitMatrixContext.mult (17,430,433 us, 5.41%)</title><rect x="260.8" y="183" width="63.8" height="15.0" fill="rgb(0,0,0)" rx="2" ry="2" />
<text  x="263.81" y="193.5" >firedr..</text>
</g>
<g >
<title>Log_Event_slate_loopy_knl_7 (28,267,476 us, 8.77%)</title><rect x="337.2" y="279" width="103.4" height="15.0" fill="rgb(0,0,0)" rx="2" ry="2" />
<text  x="340.18" y="289.5" >Log_Event_s..</text>
</g>
<g >
<title>Log_Event_subkernel10_interior_facet_horiz_top_to__exterior_facet_top_integral_otherwise (165,696 us, 0.05%)</title><rect x="766.5" y="295" width="0.6" height="15.0" fill="rgb(0,0,0)" rx="2" ry="2" />
<text  x="769.52" y="305.5" ></text>
</g>
<g >
<title>MatMult (18,322,315 us, 5.68%)</title><rect x="671.6" y="215" width="67.0" height="15.0" fill="rgb(0,0,0)" rx="2" ry="2" />
<text  x="674.60" y="225.5" >MatMult</text>
</g>
<g >
<title>all (322,452,259 us, 100%)</title><rect x="10.0" y="39" width="1180.0" height="15.0" fill="rgb(0,0,0)" rx="2" ry="2" />
<text  x="13.00" y="49.5" ></text>
</g>
<g >
<title>firedrake.mg.interface.restrict (1,076,481 us, 0.33%)</title><rect x="667.7" y="263" width="3.9" height="15.0" fill="rgb(0,0,0)" rx="2" ry="2" />
<text  x="670.66" y="273.5" ></text>
</g>
<g >
<title>PCSetUp (47,248,664 us, 14.65%)</title><rect x="950.9" y="215" width="172.9" height="15.0" fill="rgb(0,0,0)" rx="2" ry="2" />
<text  x="953.87" y="225.5" >PCSetUp</text>
</g>
<g >
<title>Log_Event_subkernel8_interior_facet_horiz_top_to__exterior_facet_top_integral_otherwise (177,976 us, 0.06%)</title><rect x="292.1" y="231" width="0.7" height="15.0" fill="rgb(0,0,0)" rx="2" ry="2" />
<text  x="295.13" y="241.5" ></text>
</g>
<g >
<title>firedrake.interpolation.make_interpolator (37,565 us, 0.01%)</title><rect x="1151.7" y="135" width="0.1" height="15.0" fill="rgb(0,0,0)" rx="2" ry="2" />
<text  x="1154.66" y="145.5" ></text>
</g>
<g >
<title>ParLoopExecute (1,132,694 us, 0.35%)</title><rect x="661.6" y="343" width="4.2" height="15.0" fill="rgb(0,0,0)" rx="2" ry="2" />
<text  x="664.65" y="353.5" ></text>
</g>
<g >
<title>inv_getrf (438,412 us, 0.14%)</title><rect x="962.9" y="279" width="1.6" height="15.0" fill="rgb(0,0,0)" rx="2" ry="2" />
<text  x="965.91" y="289.5" ></text>
</g>
<g >
<title>Parloop_Cells_wrap_form1_cell_integral_otherwise (4,181,271 us, 1.30%)</title><rect x="1170.0" y="135" width="15.3" height="15.0" fill="rgb(0,0,0)" rx="2" ry="2" />
<text  x="1173.05" y="145.5" ></text>
</g>
<g >
<title>firedrake.pointquery_utils.to_reference_coordinates (430,962 us, 0.13%)</title><rect x="656.5" y="311" width="1.6" height="15.0" fill="rgb(0,0,0)" rx="2" ry="2" />
<text  x="659.50" y="321.5" ></text>
</g>
<g >
<title>solve_getrf (25,329,569 us, 7.86%)</title><rect x="339.3" y="295" width="92.7" height="15.0" fill="rgb(0,0,0)" rx="2" ry="2" />
<text  x="342.28" y="305.5" >solve_getrf</text>
</g>
<g >
<title>firedrake.tsfc_interface.compile_form (516,693 us, 0.16%)</title><rect x="1149.6" y="167" width="1.8" height="15.0" fill="rgb(0,0,0)" rx="2" ry="2" />
<text  x="1152.55" y="177.5" ></text>
</g>
<g >
<title>Log_Event_inits_wrap_slate_loopy_knl_7 (211,498 us, 0.07%)</title><rect x="746.6" y="295" width="0.7" height="15.0" fill="rgb(0,0,0)" rx="2" ry="2" />
<text  x="749.57" y="305.5" ></text>
</g>
<g >
<title>pyop2.global_kernel.GlobalKernel.compile (35,644,608 us, 11.05%)</title><rect x="975.1" y="263" width="130.5" height="15.0" fill="rgb(0,0,0)" rx="2" ry="2" />
<text  x="978.13" y="273.5" >pyop2.global_ke..</text>
</g>
<g >
<title>PCSetUp (105,619,226 us, 32.75%)</title><rect x="738.6" y="183" width="386.6" height="15.0" fill="rgb(0,0,0)" rx="2" ry="2" />
<text  x="741.65" y="193.5" >PCSetUp</text>
</g>
<g >
<title>firedrake.matrix_free.operators.ImplicitMatrixContext.mult (57,992,081 us, 17.98%)</title><rect x="738.6" y="247" width="212.3" height="15.0" fill="rgb(0,0,0)" rx="2" ry="2" />
<text  x="741.65" y="257.5" >firedrake.matrix_free.ope..</text>
</g>
<g >
<title>Log_Event_subkernel8_interior_facet_horiz_top_to__exterior_facet_top_integral_otherwise (189,789 us, 0.06%)</title><rect x="704.8" y="279" width="0.7" height="15.0" fill="rgb(0,0,0)" rx="2" ry="2" />
<text  x="707.81" y="289.5" ></text>
</g>
<g >
<title>firedrake.assemble.allocate_matrix (541,833 us, 0.17%)</title><rect x="1105.6" y="231" width="2.0" height="15.0" fill="rgb(0,0,0)" rx="2" ry="2" />
<text  x="1108.57" y="241.5" ></text>
</g>
<g >
<title>PCSetUp (3,659,563 us, 1.13%)</title><rect x="658.2" y="231" width="13.4" height="15.0" fill="rgb(0,0,0)" rx="2" ry="2" />
<text  x="661.21" y="241.5" ></text>
</g>
<g >
<title>firedrake.matrix_free.operators.ImplicitMatrixContext.mult (18,322,315 us, 5.68%)</title><rect x="671.6" y="231" width="67.0" height="15.0" fill="rgb(0,0,0)" rx="2" ry="2" />
<text  x="674.60" y="241.5" >firedr..</text>
</g>
<g >
<title>firedrake.pointquery_utils.to_reference_coordinates (441,747 us, 0.14%)</title><rect x="670.0" y="279" width="1.6" height="15.0" fill="rgb(0,0,0)" rx="2" ry="2" />
<text  x="672.98" y="289.5" ></text>
</g>
<g >
<title>Log_Event_subkernel1_interior_facet_vert_to__exterior_facet_vert_integral_otherwise (237,573 us, 0.07%)</title><rect x="149.1" y="199" width="0.9" height="15.0" fill="rgb(0,0,0)" rx="2" ry="2" />
<text  x="152.13" y="209.5" ></text>
</g>
<g >
<title>firedrake.mg.interface.prolong (1,254,480 us, 0.39%)</title><rect x="653.5" y="295" width="4.6" height="15.0" fill="rgb(0,0,0)" rx="2" ry="2" />
<text  x="656.49" y="305.5" ></text>
</g>
<g >
<title>firedrake.interpolation.make_interpolator (50,048 us, 0.02%)</title><rect x="665.8" y="327" width="0.2" height="15.0" fill="rgb(0,0,0)" rx="2" ry="2" />
<text  x="668.79" y="337.5" ></text>
</g>
<g >
<title>PCApply (113,144,862 us, 35.09%)</title><rect x="324.6" y="183" width="414.0" height="15.0" fill="rgb(0,0,0)" rx="2" ry="2" />
<text  x="327.60" y="193.5" >PCApply</text>
</g>
<g >
<title>SCSolve (243,378,473 us, 75.48%)</title><rect x="260.8" y="135" width="890.6" height="15.0" fill="rgb(0,0,0)" rx="2" ry="2" />
<text  x="263.81" y="145.5" >SCSolve</text>
</g>
<g >
<title>KSPSolve (94,822,547 us, 29.41%)</title><rect x="324.6" y="199" width="347.0" height="15.0" fill="rgb(0,0,0)" rx="2" ry="2" />
<text  x="327.60" y="209.5" >KSPSolve</text>
</g>
<g >
<title>pyop2.global_kernel.GlobalKernel.compile (634,734 us, 0.20%)</title><rect x="667.7" y="311" width="2.3" height="15.0" fill="rgb(0,0,0)" rx="2" ry="2" />
<text  x="670.66" y="321.5" ></text>
</g>
<g >
<title>pyop2.global_kernel.GlobalKernel.compile (561,844 us, 0.17%)</title><rect x="654.4" y="343" width="2.1" height="15.0" fill="rgb(0,0,0)" rx="2" ry="2" />
<text  x="657.45" y="353.5" ></text>
</g>
<g >
<title>Log_Event_subkernel10_interior_facet_vert_to__exterior_facet_vert_integral_otherwise (1,939,319 us, 0.60%)</title><rect x="284.4" y="231" width="7.1" height="15.0" fill="rgb(0,0,0)" rx="2" ry="2" />
<text  x="287.41" y="241.5" ></text>
</g>
<g >
<title>ParLoopExecute (561,844 us, 0.17%)</title><rect x="654.4" y="311" width="2.1" height="15.0" fill="rgb(0,0,0)" rx="2" ry="2" />
<text  x="657.45" y="321.5" ></text>
</g>
<g >
<title>firedrake.matrix_free.operators.ImplicitMatrixContext.mult (89,873,918 us, 27.87%)</title><rect x="324.6" y="231" width="328.9" height="15.0" fill="rgb(0,0,0)" rx="2" ry="2" />
<text  x="327.60" y="241.5" >firedrake.matrix_free.operators.Implicit..</text>
</g>
<g >
<title>Log_Event_subkernel10_interior_facet_vert_to__exterior_facet_vert_integral_otherwise (1,838,964 us, 0.57%)</title><rect x="767.1" y="295" width="6.8" height="15.0" fill="rgb(0,0,0)" rx="2" ry="2" />
<text  x="770.13" y="305.5" ></text>
</g>
<g >
<title>MatMult (89,873,918 us, 27.87%)</title><rect x="324.6" y="215" width="328.9" height="15.0" fill="rgb(0,0,0)" rx="2" ry="2" />
<text  x="327.60" y="225.5" >MatMult</text>
</g>
<g >
<title>MatMult (57,992,081 us, 17.98%)</title><rect x="738.6" y="231" width="212.3" height="15.0" fill="rgb(0,0,0)" rx="2" ry="2" />
<text  x="741.65" y="241.5" >MatMult</text>
</g>
<g >
<title>KSPSolve (236,194,521 us, 73.25%)</title><rect x="260.8" y="151" width="864.4" height="15.0" fill="rgb(0,0,0)" rx="2" ry="2" />
<text  x="263.81" y="161.5" >KSPSolve</text>
</g>
<g >
<title>Log_Event_inits_wrap_slate_loopy_knl_7 (1,152,957 us, 0.36%)</title><rect x="333.0" y="279" width="4.2" height="15.0" fill="rgb(0,0,0)" rx="2" ry="2" />
<text  x="335.96" y="289.5" ></text>
</g>
<g >
<title>Log_Event_subkernel8_interior_facet_vert_to__exterior_facet_vert_integral_otherwise (2,688,245 us, 0.83%)</title><rect x="705.5" y="279" width="9.8" height="15.0" fill="rgb(0,0,0)" rx="2" ry="2" />
<text  x="708.51" y="289.5" ></text>
</g>
<g >
<title>Parloop_Cells_wrap_wrap_slate_loopy_knl_7 (52,146,961 us, 16.17%)</title><rect x="745.0" y="279" width="190.9" height="15.0" fill="rgb(0,0,0)" rx="2" ry="2" />
<text  x="748.04" y="289.5" >Parloop_Cells_wrap_wra..</text>
</g>
<g >
<title>Log_Event_slate_loopy_knl_7 (5,803,535 us, 1.80%)</title><rect x="674.1" y="279" width="21.2" height="15.0" fill="rgb(0,0,0)" rx="2" ry="2" />
<text  x="677.05" y="289.5" ></text>
</g>
<g >
<title>solve_memcpy (277,548 us, 0.09%)</title><rect x="694.3" y="295" width="1.0" height="15.0" fill="rgb(0,0,0)" rx="2" ry="2" />
<text  x="697.28" y="305.5" ></text>
</g>
<g >
<title>MatResidual (18,322,315 us, 5.68%)</title><rect x="671.6" y="199" width="67.0" height="15.0" fill="rgb(0,0,0)" rx="2" ry="2" />
<text  x="674.60" y="209.5" >MatRes..</text>
</g>
<g >
<title>solve_memcpy (244,399 us, 0.08%)</title><rect x="765.0" y="311" width="0.9" height="15.0" fill="rgb(0,0,0)" rx="2" ry="2" />
<text  x="768.04" y="321.5" ></text>
</g>
<g >
<title>Log_Event_subkernel10_interior_facet_vert_to__exterior_facet_vert_integral_otherwise (2,053,585 us, 0.64%)</title><rect x="696.6" y="279" width="7.5" height="15.0" fill="rgb(0,0,0)" rx="2" ry="2" />
<text  x="699.63" y="289.5" ></text>
</g>
<g >
<title>Parloop_Cells_wrap_par_loop_kernel (792,395 us, 0.25%)</title><rect x="1151.8" y="167" width="2.9" height="15.0" fill="rgb(0,0,0)" rx="2" ry="2" />
<text  x="1154.80" y="177.5" ></text>
</g>
<g >
<title>Log_Event_subkernel10_interior_facet_horiz_top_to__exterior_facet_top_integral_otherwise (914,555 us, 0.28%)</title><rect x="443.8" y="279" width="3.4" height="15.0" fill="rgb(0,0,0)" rx="2" ry="2" />
<text  x="446.82" y="289.5" ></text>
</g>
<g >
<title>KSPSolve (57,992,081 us, 17.98%)</title><rect x="738.6" y="215" width="212.3" height="15.0" fill="rgb(0,0,0)" rx="2" ry="2" />
<text  x="741.65" y="225.5" >KSPSolve</text>
</g>
<g >
<title>Parloop_Cells_wrap_expression_kernel (1,132,694 us, 0.35%)</title><rect x="661.6" y="359" width="4.2" height="15.0" fill="rgb(0,0,0)" rx="2" ry="2" />
<text  x="664.65" y="369.5" ></text>
</g>
<g >
<title>PCApply (4,948,629 us, 1.53%)</title><rect x="653.5" y="215" width="18.1" height="15.0" fill="rgb(0,0,0)" rx="2" ry="2" />
<text  x="656.49" y="225.5" ></text>
</g>
<g >
<title>Log_Event_slate_loopy_knl_7 (5,433,596 us, 1.69%)</title><rect x="263.3" y="231" width="19.8" height="15.0" fill="rgb(0,0,0)" rx="2" ry="2" />
<text  x="266.26" y="241.5" ></text>
</g>
<g >
<title>Log_Event_subkernel9_cell_to__cell_integral_otherwise (6,367,280 us, 1.97%)</title><rect x="715.3" y="279" width="23.3" height="15.0" fill="rgb(0,0,0)" rx="2" ry="2" />
<text  x="718.35" y="289.5" >L..</text>
</g>
<g >
<title>solve_getrs (204,359 us, 0.06%)</title><rect x="693.5" y="295" width="0.8" height="15.0" fill="rgb(0,0,0)" rx="2" ry="2" />
<text  x="696.53" y="305.5" ></text>
</g>
<g >
<title>firedrake.variational_solver.NonlinearVariationalSolver.solve (319,999,398 us, 99.24%)</title><rect x="19.0" y="71" width="1171.0" height="15.0" fill="rgb(0,0,0)" rx="2" ry="2" />
<text  x="21.98" y="81.5" >firedrake.variational_solver.NonlinearVariationalSolver.solve</text>
</g>
<g >
<title>PCSetUp (889,977 us, 0.28%)</title><rect x="1151.4" y="103" width="3.3" height="15.0" fill="rgb(0,0,0)" rx="2" ry="2" />
<text  x="1154.45" y="113.5" ></text>
</g>
<g >
<title>pyop2.global_kernel.GlobalKernel.compile (607,497 us, 0.19%)</title><rect x="659.4" y="343" width="2.2" height="15.0" fill="rgb(0,0,0)" rx="2" ry="2" />
<text  x="662.42" y="353.5" ></text>
</g>
<g >
<title>Parloop_Cells_wrap_wrap_slate_loopy_knl_7 (89,835,327 us, 27.86%)</title><rect x="324.7" y="263" width="328.8" height="15.0" fill="rgb(0,0,0)" rx="2" ry="2" />
<text  x="327.74" y="273.5" >Parloop_Cells_wrap_wrap_slate_loopy_knl_7</text>
</g>
<g >
<title>Log_Event_subkernel8_interior_facet_vert_to__exterior_facet_vert_integral_otherwise (2,363,161 us, 0.73%)</title><rect x="775.1" y="295" width="8.6" height="15.0" fill="rgb(0,0,0)" rx="2" ry="2" />
<text  x="778.09" y="305.5" ></text>
</g>
<g >
<title>Parloop_Cells_wrap_wrap_slate_loopy_knl_7 (17,430,433 us, 5.41%)</title><rect x="260.8" y="215" width="63.8" height="15.0" fill="rgb(0,0,0)" rx="2" ry="2" />
<text  x="263.81" y="225.5" >Parloo..</text>
</g>
<g >
<title>KSPSetUp (105,240,745 us, 32.64%)</title><rect x="738.6" y="199" width="385.2" height="15.0" fill="rgb(0,0,0)" rx="2" ry="2" />
<text  x="741.65" y="209.5" >KSPSetUp</text>
</g>
<g >
<title>Log_Event_subkernel8_interior_facet_horiz_top_to__exterior_facet_top_integral_otherwise (171,829 us, 0.05%)</title><rect x="774.5" y="295" width="0.6" height="15.0" fill="rgb(0,0,0)" rx="2" ry="2" />
<text  x="777.46" y="305.5" ></text>
</g>
<g >
<title>solve_getrf (4,859,337 us, 1.51%)</title><rect x="263.7" y="247" width="17.7" height="15.0" fill="rgb(0,0,0)" rx="2" ry="2" />
<text  x="266.67" y="257.5" ></text>
</g>
<g >
<title>MatZeroInitial (139,322 us, 0.04%)</title><rect x="1107.0" y="247" width="0.6" height="15.0" fill="rgb(0,0,0)" rx="2" ry="2" />
<text  x="1110.04" y="257.5" ></text>
</g>
<g >
<title>firedrake.tsfc_interface.compile_form (2,595,479 us, 0.80%)</title><rect x="251.3" y="167" width="9.5" height="15.0" fill="rgb(0,0,0)" rx="2" ry="2" />
<text  x="254.31" y="177.5" ></text>
</g>
<g >
<title>Log_Event_slate_loopy_knl_3 (3,651,974 us, 1.13%)</title><rect x="958.2" y="263" width="13.4" height="15.0" fill="rgb(0,0,0)" rx="2" ry="2" />
<text  x="961.23" y="273.5" ></text>
</g>
<g >
<title>firedrake.dmhooks.coarsen (2,583,082 us, 0.80%)</title><rect x="658.2" y="263" width="9.5" height="15.0" fill="rgb(0,0,0)" rx="2" ry="2" />
<text  x="661.21" y="273.5" ></text>
</g>
<g >
<title>HybridBreak (899,814 us, 0.28%)</title><rect x="138.8" y="151" width="3.2" height="15.0" fill="rgb(0,0,0)" rx="2" ry="2" />
<text  x="141.75" y="161.5" ></text>
</g>
<g >
<title>pyop2.global_kernel.GlobalKernel.compile (27,013,746 us, 8.38%)</title><rect x="25.5" y="199" width="98.9" height="15.0" fill="rgb(0,0,0)" rx="2" ry="2" />
<text  x="28.52" y="209.5" >pyop2.glob..</text>
</g>
<g >
<title>Log_Event_subkernel8_interior_facet_horiz_bottom_to__exterior_facet_bottom_integral_otherwise (170,875 us, 0.05%)</title><rect x="291.5" y="231" width="0.6" height="15.0" fill="rgb(0,0,0)" rx="2" ry="2" />
<text  x="294.50" y="241.5" ></text>
</g>
<g >
<title>SCForwardElim (33,354,756 us, 10.34%)</title><rect x="138.8" y="135" width="122.0" height="15.0" fill="rgb(0,0,0)" rx="2" ry="2" />
<text  x="141.75" y="145.5" >SCForwardElim</text>
</g>
<g >
<title>MGInterp Level (34,586 us, 0.01%; +0.01%)</title><rect x="658.1" y="247" width="0.1" height="15.0" fill="rgb(255,0,0)" rx="2" ry="2" />
<text  x="661.08" y="257.5" ></text>
</g>
<g >
<title>Parloop_Cells_wrap_pyop2_kernel_uniform_extrusion (900,512 us, 0.28%)</title><rect x="10.0" y="119" width="3.3" height="15.0" fill="rgb(0,0,0)" rx="2" ry="2" />
<text  x="13.00" y="129.5" ></text>
</g>
<g >
<title>firedrake.interpolation.make_interpolator (81,847 us, 0.03%)</title><rect x="1149.3" y="167" width="0.3" height="15.0" fill="rgb(0,0,0)" rx="2" ry="2" />
<text  x="1152.25" y="177.5" ></text>
</g>
<g >
<title>pyop2.global_kernel.GlobalKernel.compile (4,181,271 us, 1.30%)</title><rect x="1170.0" y="151" width="15.3" height="15.0" fill="rgb(0,0,0)" rx="2" ry="2" />
<text  x="1173.05" y="161.5" ></text>
</g>
<g >
<title>Log_Event_inits_wrap_slate_loopy_knl_7 (235,170 us, 0.07%)</title><rect x="673.2" y="279" width="0.9" height="15.0" fill="rgb(0,0,0)" rx="2" ry="2" />
<text  x="676.19" y="289.5" ></text>
</g>
<g >
<title>pyop2.global_kernel.GlobalKernel.compile (35,588,836 us, 11.04%)</title><rect x="805.6" y="295" width="130.3" height="15.0" fill="rgb(0,0,0)" rx="2" ry="2" />
<text  x="808.63" y="305.5" >pyop2.global_k..</text>
</g>
<g >
<title>MatMult (17,430,433 us, 5.41%)</title><rect x="260.8" y="167" width="63.8" height="15.0" fill="rgb(0,0,0)" rx="2" ry="2" />
<text  x="263.81" y="177.5" >MatMult</text>
</g>
<g >
<title>firedrake.mg.embedded.TransferManager.op (1,254,480 us, 0.39%)</title><rect x="653.5" y="279" width="4.6" height="15.0" fill="rgb(0,0,0)" rx="2" ry="2" />
<text  x="656.49" y="289.5" ></text>
</g>
<g >
<title>Log_Event_subkernel8_interior_facet_horiz_bottom_to__exterior_facet_bottom_integral_otherwise (165,944 us, 0.05%)</title><rect x="773.9" y="295" width="0.6" height="15.0" fill="rgb(0,0,0)" rx="2" ry="2" />
<text  x="776.86" y="305.5" ></text>
</g>
<g >
<title>KSPSolve (309,463,730 us, 95.97%)</title><rect x="19.0" y="103" width="1132.4" height="15.0" fill="rgb(0,0,0)" rx="2" ry="2" />
<text  x="21.98" y="113.5" >KSPSolve</text>
</g>
<g >
<title>CreateExtMesh (900,512 us, 0.28%)</title><rect x="10.0" y="71" width="3.3" height="15.0" fill="rgb(0,0,0)" rx="2" ry="2" />
<text  x="13.00" y="81.5" ></text>
</g>
<g >
<title>firedrake.parloops.par_loop (792,395 us, 0.25%)</title><rect x="1151.8" y="135" width="2.9" height="15.0" fill="rgb(0,0,0)" rx="2" ry="2" />
<text  x="1154.80" y="145.5" ></text>
</g>
<g >
<title>ParLoopExecute (607,497 us, 0.19%)</title><rect x="659.4" y="311" width="2.2" height="15.0" fill="rgb(0,0,0)" rx="2" ry="2" />
<text  x="662.42" y="321.5" ></text>
</g>
</g>
</svg>
