<?xml version="1.0" standalone="no"?>
<!DOCTYPE svg PUBLIC "-//W3C//DTD SVG 1.1//EN" "http://www.w3.org/Graphics/SVG/1.1/DTD/svg11.dtd">
<svg version="1.1" width="1200" height="299" onload="init(evt)" viewBox="0 0 1200 299" xmlns="http://www.w3.org/2000/svg" xmlns:xlink="http://www.w3.org/1999/xlink">
<!-- Flame graph stack visualization. See https://github.com/brendangregg/FlameGraph for latest version, and http://www.brendangregg.com/flamegraphs.html for examples. -->
<!-- NOTES:  -->
<defs>
	<linearGradient id="background" y1="0" y2="1" x1="0" x2="0" >
		<stop stop-color="#eeeeee" offset="5%" />
		<stop stop-color="#eeeeb0" offset="95%" />
	</linearGradient>
</defs>
<style type="text/css">
	text { font-family:Verdana; font-size:13px; fill:rgb(0,0,0); }
	#search, #ignorecase { opacity:0.1; cursor:pointer; }
	#search:hover, #search.show, #ignorecase:hover, #ignorecase.show { opacity:1; }
	#subtitle { text-anchor:middle; font-color:rgb(160,160,160); }
	#title { text-anchor:middle; font-size:18px}
	#unzoom { cursor:pointer; }
	#frames > *:hover { stroke:black; stroke-width:0.5; cursor:pointer; }
	.hide { display:none; }
	.parent { opacity:0.5; }
</style>
<script type="text/ecmascript">
<![CDATA[
	"use strict";
	var details, searchbtn, unzoombtn, matchedtxt, svg, searching, currentSearchTerm, ignorecase, ignorecaseBtn;
	function init(evt) {
		details = document.getElementById("details").firstChild;
		searchbtn = document.getElementById("search");
		ignorecaseBtn = document.getElementById("ignorecase");
		unzoombtn = document.getElementById("unzoom");
		matchedtxt = document.getElementById("matched");
		svg = document.getElementsByTagName("svg")[0];
		searching = 0;
		currentSearchTerm = null;

		// use GET parameters to restore a flamegraphs state.
		var params = get_params();
		if (params.x && params.y)
			zoom(find_group(document.querySelector('[x="' + params.x + '"][y="' + params.y + '"]')));
                if (params.s) search(params.s);
	}

	// event listeners
	window.addEventListener("click", function(e) {
		var target = find_group(e.target);
		if (target) {
			if (target.nodeName == "a") {
				if (e.ctrlKey === false) return;
				e.preventDefault();
			}
			if (target.classList.contains("parent")) unzoom();
			zoom(target);
			if (!document.querySelector('.parent')) {
				clearzoom();
				return;
			}

			// set parameters for zoom state
			var el = target.querySelector("rect");
			if (el && el.attributes && el.attributes.y && el.attributes._orig_x) {
				var params = get_params()
				params.x = el.attributes._orig_x.value;
				params.y = el.attributes.y.value;
				history.replaceState(null, null, parse_params(params));
			}
		}
		else if (e.target.id == "unzoom") clearzoom();
		else if (e.target.id == "search") search_prompt();
		else if (e.target.id == "ignorecase") toggle_ignorecase();
	}, false)

	// mouse-over for info
	// show
	window.addEventListener("mouseover", function(e) {
		var target = find_group(e.target);
		if (target) details.nodeValue = "Function: " + g_to_text(target);
	}, false)

	// clear
	window.addEventListener("mouseout", function(e) {
		var target = find_group(e.target);
		if (target) details.nodeValue = ' ';
	}, false)

	// ctrl-F for search
	// ctrl-I to toggle case-sensitive search
	window.addEventListener("keydown",function (e) {
		if (e.keyCode === 114 || (e.ctrlKey && e.keyCode === 70)) {
			e.preventDefault();
			search_prompt();
		}
		else if (e.ctrlKey && e.keyCode === 73) {
			e.preventDefault();
			toggle_ignorecase();
		}
	}, false)

	// functions
	function get_params() {
		var params = {};
		var paramsarr = window.location.search.substr(1).split('&');
		for (var i = 0; i < paramsarr.length; ++i) {
			var tmp = paramsarr[i].split("=");
			if (!tmp[0] || !tmp[1]) continue;
			params[tmp[0]]  = decodeURIComponent(tmp[1]);
		}
		return params;
	}
	function parse_params(params) {
		var uri = "?";
		for (var key in params) {
			uri += key + '=' + encodeURIComponent(params[key]) + '&';
		}
		if (uri.slice(-1) == "&")
			uri = uri.substring(0, uri.length - 1);
		if (uri == '?')
			uri = window.location.href.split('?')[0];
		return uri;
	}
	function find_child(node, selector) {
		var children = node.querySelectorAll(selector);
		if (children.length) return children[0];
	}
	function find_group(node) {
		var parent = node.parentElement;
		if (!parent) return;
		if (parent.id == "frames") return node;
		return find_group(parent);
	}
	function orig_save(e, attr, val) {
		if (e.attributes["_orig_" + attr] != undefined) return;
		if (e.attributes[attr] == undefined) return;
		if (val == undefined) val = e.attributes[attr].value;
		e.setAttribute("_orig_" + attr, val);
	}
	function orig_load(e, attr) {
		if (e.attributes["_orig_"+attr] == undefined) return;
		e.attributes[attr].value = e.attributes["_orig_" + attr].value;
		e.removeAttribute("_orig_"+attr);
	}
	function g_to_text(e) {
		var text = find_child(e, "title").firstChild.nodeValue;
		return (text)
	}
	function g_to_func(e) {
		var func = g_to_text(e);
		// if there's any manipulation we want to do to the function
		// name before it's searched, do it here before returning.
		return (func);
	}
	function update_text(e) {
		var r = find_child(e, "rect");
		var t = find_child(e, "text");
		var w = parseFloat(r.attributes.width.value) -3;
		var txt = find_child(e, "title").textContent.replace(/\([^(]*\)$/,"");
		t.attributes.x.value = parseFloat(r.attributes.x.value) + 3;

		// Smaller than this size won't fit anything
		if (w < 2 * 13 * 0.59) {
			t.textContent = "";
			return;
		}

		t.textContent = txt;
		// Fit in full text width
		if (/^ *$/.test(txt) || t.getSubStringLength(0, txt.length) < w)
			return;

		for (var x = txt.length - 2; x > 0; x--) {
			if (t.getSubStringLength(0, x + 2) <= w) {
				t.textContent = txt.substring(0, x) + "..";
				return;
			}
		}
		t.textContent = "";
	}

	// zoom
	function zoom_reset(e) {
		if (e.attributes != undefined) {
			orig_load(e, "x");
			orig_load(e, "width");
		}
		if (e.childNodes == undefined) return;
		for (var i = 0, c = e.childNodes; i < c.length; i++) {
			zoom_reset(c[i]);
		}
	}
	function zoom_child(e, x, ratio) {
		if (e.attributes != undefined) {
			if (e.attributes.x != undefined) {
				orig_save(e, "x");
				e.attributes.x.value = (parseFloat(e.attributes.x.value) - x - 10) * ratio + 10;
				if (e.tagName == "text")
					e.attributes.x.value = find_child(e.parentNode, "rect[x]").attributes.x.value + 3;
			}
			if (e.attributes.width != undefined) {
				orig_save(e, "width");
				e.attributes.width.value = parseFloat(e.attributes.width.value) * ratio;
			}
		}

		if (e.childNodes == undefined) return;
		for (var i = 0, c = e.childNodes; i < c.length; i++) {
			zoom_child(c[i], x - 10, ratio);
		}
	}
	function zoom_parent(e) {
		if (e.attributes) {
			if (e.attributes.x != undefined) {
				orig_save(e, "x");
				e.attributes.x.value = 10;
			}
			if (e.attributes.width != undefined) {
				orig_save(e, "width");
				e.attributes.width.value = parseInt(svg.width.baseVal.value) - (10 * 2);
			}
		}
		if (e.childNodes == undefined) return;
		for (var i = 0, c = e.childNodes; i < c.length; i++) {
			zoom_parent(c[i]);
		}
	}
	function zoom(node) {
		var attr = find_child(node, "rect").attributes;
		var width = parseFloat(attr.width.value);
		var xmin = parseFloat(attr.x.value);
		var xmax = parseFloat(xmin + width);
		var ymin = parseFloat(attr.y.value);
		var ratio = (svg.width.baseVal.value - 2 * 10) / width;

		// XXX: Workaround for JavaScript float issues (fix me)
		var fudge = 0.0001;

		unzoombtn.classList.remove("hide");

		var el = document.getElementById("frames").children;
		for (var i = 0; i < el.length; i++) {
			var e = el[i];
			var a = find_child(e, "rect").attributes;
			var ex = parseFloat(a.x.value);
			var ew = parseFloat(a.width.value);
			var upstack;
			// Is it an ancestor
			if (1 == 0) {
				upstack = parseFloat(a.y.value) > ymin;
			} else {
				upstack = parseFloat(a.y.value) < ymin;
			}
			if (upstack) {
				// Direct ancestor
				if (ex <= xmin && (ex+ew+fudge) >= xmax) {
					e.classList.add("parent");
					zoom_parent(e);
					update_text(e);
				}
				// not in current path
				else
					e.classList.add("hide");
			}
			// Children maybe
			else {
				// no common path
				if (ex < xmin || ex + fudge >= xmax) {
					e.classList.add("hide");
				}
				else {
					zoom_child(e, xmin, ratio);
					update_text(e);
				}
			}
		}
		search();
	}
	function unzoom() {
		unzoombtn.classList.add("hide");
		var el = document.getElementById("frames").children;
		for(var i = 0; i < el.length; i++) {
			el[i].classList.remove("parent");
			el[i].classList.remove("hide");
			zoom_reset(el[i]);
			update_text(el[i]);
		}
		search();
	}
	function clearzoom() {
		unzoom();

		// remove zoom state
		var params = get_params();
		if (params.x) delete params.x;
		if (params.y) delete params.y;
		history.replaceState(null, null, parse_params(params));
	}

	// search
	function toggle_ignorecase() {
		ignorecase = !ignorecase;
		if (ignorecase) {
			ignorecaseBtn.classList.add("show");
		} else {
			ignorecaseBtn.classList.remove("show");
		}
		reset_search();
		search();
	}
	function reset_search() {
		var el = document.querySelectorAll("#frames rect");
		for (var i = 0; i < el.length; i++) {
			orig_load(el[i], "fill")
		}
		var params = get_params();
		delete params.s;
		history.replaceState(null, null, parse_params(params));
	}
	function search_prompt() {
		if (!searching) {
			var term = prompt("Enter a search term (regexp " +
			    "allowed, eg: ^ext4_)"
			    + (ignorecase ? ", ignoring case" : "")
			    + "\nPress Ctrl-i to toggle case sensitivity", "");
			if (term != null) search(term);
		} else {
			reset_search();
			searching = 0;
			currentSearchTerm = null;
			searchbtn.classList.remove("show");
			searchbtn.firstChild.nodeValue = "Search"
			matchedtxt.classList.add("hide");
			matchedtxt.firstChild.nodeValue = ""
		}
	}
	function search(term) {
		if (term) currentSearchTerm = term;

		var re = new RegExp(currentSearchTerm, ignorecase ? 'i' : '');
		var el = document.getElementById("frames").children;
		var matches = new Object();
		var maxwidth = 0;
		for (var i = 0; i < el.length; i++) {
			var e = el[i];
			var func = g_to_func(e);
			var rect = find_child(e, "rect");
			if (func == null || rect == null)
				continue;

			// Save max width. Only works as we have a root frame
			var w = parseFloat(rect.attributes.width.value);
			if (w > maxwidth)
				maxwidth = w;

			if (func.match(re)) {
				// highlight
				var x = parseFloat(rect.attributes.x.value);
				orig_save(rect, "fill");
				rect.attributes.fill.value = "rgb(230,0,230)";

				// remember matches
				if (matches[x] == undefined) {
					matches[x] = w;
				} else {
					if (w > matches[x]) {
						// overwrite with parent
						matches[x] = w;
					}
				}
				searching = 1;
			}
		}
		if (!searching)
			return;
		var params = get_params();
		params.s = currentSearchTerm;
		history.replaceState(null, null, parse_params(params));

		searchbtn.classList.add("show");
		searchbtn.firstChild.nodeValue = "Reset Search";

		// calculate percent matched, excluding vertical overlap
		var count = 0;
		var lastx = -1;
		var lastw = 0;
		var keys = Array();
		for (k in matches) {
			if (matches.hasOwnProperty(k))
				keys.push(k);
		}
		// sort the matched frames by their x location
		// ascending, then width descending
		keys.sort(function(a, b){
			return a - b;
		});
		// Step through frames saving only the biggest bottom-up frames
		// thanks to the sort order. This relies on the tree property
		// where children are always smaller than their parents.
		var fudge = 0.0001;	// JavaScript floating point
		for (var k in keys) {
			var x = parseFloat(keys[k]);
			var w = matches[keys[k]];
			if (x >= lastx + lastw - fudge) {
				count += w;
				lastx = x;
				lastw = w;
			}
		}
		// display matched percent
		matchedtxt.classList.remove("hide");
		var pct = 100 * count / maxwidth;
		if (pct != 100) pct = pct.toFixed(1)
		matchedtxt.firstChild.nodeValue = "Matched: " + pct + "%";
	}
]]>
</script>
<rect x="0.0" y="0" width="1200.0" height="299.0" fill="url(#background)"  />
<text id="title" x="600.00" y="26" >Firedrake example</text>
<text id="details" x="10.00" y="281" > </text>
<text id="unzoom" x="10.00" y="26" class="hide">Reset Zoom</text>
<text id="search" x="1090.00" y="26" >Search</text>
<text id="ignorecase" x="1174.00" y="26" >ic</text>
<text id="matched" x="1090.00" y="281" > </text>
<g id="frames">
<g >
<title>firedrake.assemble.assemble (183,301,290 us, 2.51%)</title><rect x="19.3" y="103" width="29.6" height="15.0" fill="rgb(0,0,0)" rx="2" ry="2" />
<text  x="22.27" y="113.5" >f..</text>
</g>
<g >
<title>Parloop_Cells_wrap_form0_cell_integral_otherwise (4,212,815 us, 0.06%)</title><rect x="60.1" y="167" width="0.7" height="15.0" fill="rgb(0,0,0)" rx="2" ry="2" />
<text  x="63.10" y="177.5" ></text>
</g>
<g >
<title>solve_getrf (2,448,147,273 us, 33.58%)</title><rect x="125.3" y="247" width="396.2" height="15.0" fill="rgb(0,0,0)" rx="2" ry="2" />
<text  x="128.30" y="257.5" >solve_getrf</text>
</g>
<g >
<title>ParLoopExecute (136,038,860 us, 1.87%)</title><rect x="1164.6" y="167" width="22.0" height="15.0" fill="rgb(0,0,0)" rx="2" ry="2" />
<text  x="1167.60" y="177.5" ></text>
</g>
<g >
<title>pyop2.global_kernel.GlobalKernel.compile (5,031,815 us, 0.07%)</title><rect x="17.6" y="135" width="0.8" height="15.0" fill="rgb(0,0,0)" rx="2" ry="2" />
<text  x="20.57" y="145.5" ></text>
</g>
<g >
<title>MatMult (1,582,079 us, 0.02%)</title><rect x="48.9" y="135" width="0.3" height="15.0" fill="rgb(0,0,0)" rx="2" ry="2" />
<text  x="51.94" y="145.5" ></text>
</g>
<g >
<title>Parloop_Cells_wrap_form00_exterior_facet_bottom_integral_otherwise (2,419,365 us, 0.03%)</title><rect x="23.6" y="135" width="0.4" height="15.0" fill="rgb(0,0,0)" rx="2" ry="2" />
<text  x="26.57" y="145.5" ></text>
</g>
<g >
<title>KSPSolve (6,971,933,869 us, 95.62%)</title><rect x="60.1" y="103" width="1128.3" height="15.0" fill="rgb(0,0,0)" rx="2" ry="2" />
<text  x="63.10" y="113.5" >KSPSolve</text>
</g>
<g >
<title>PCSetUp (49,423,496 us, 0.68%)</title><rect x="49.6" y="135" width="8.0" height="15.0" fill="rgb(0,0,0)" rx="2" ry="2" />
<text  x="52.59" y="145.5" ></text>
</g>
<g >
<title>ParLoopExecute (38,111,162 us, 0.52%)</title><rect x="61.9" y="151" width="6.1" height="15.0" fill="rgb(0,0,0)" rx="2" ry="2" />
<text  x="64.85" y="161.5" ></text>
</g>
<g >
<title>firedrake.assemble.assemble (30,603,514 us, 0.42%)</title><rect x="10.7" y="71" width="4.9" height="15.0" fill="rgb(0,0,0)" rx="2" ry="2" />
<text  x="13.67" y="81.5" ></text>
</g>
<g >
<title>ParLoopExecute (7,351,018 us, 0.10%)</title><rect x="60.1" y="151" width="1.2" height="15.0" fill="rgb(0,0,0)" rx="2" ry="2" />
<text  x="63.10" y="161.5" ></text>
</g>
<g >
<title>Parloop_Cells_wrap_form_exterior_facet_bottom_integral_otherwise (2,722,888 us, 0.04%)</title><rect x="10.7" y="103" width="0.4" height="15.0" fill="rgb(0,0,0)" rx="2" ry="2" />
<text  x="13.67" y="113.5" ></text>
</g>
<g >
<title>ParLoopExecute (892,004 us, 0.01%)</title><rect x="10.3" y="103" width="0.1" height="15.0" fill="rgb(0,0,0)" rx="2" ry="2" />
<text  x="13.28" y="113.5" ></text>
</g>
<g >
<title>CreateSparsity (88,570,385 us, 1.21%)</title><rect x="27.4" y="135" width="14.3" height="15.0" fill="rgb(0,0,0)" rx="2" ry="2" />
<text  x="30.39" y="145.5" ></text>
</g>
<g >
<title>Parloop_ExtFacets_wrap_form_exterior_facet_vert_integral_otherwise (7,623,474 us, 0.10%)</title><rect x="12.1" y="103" width="1.2" height="15.0" fill="rgb(0,0,0)" rx="2" ry="2" />
<text  x="15.06" y="113.5" ></text>
</g>
<g >
<title>Parloop_IntFacets_wrap_form_interior_facet_vert_integral_otherwise (7,223,377 us, 0.10%)</title><rect x="13.3" y="103" width="1.2" height="15.0" fill="rgb(0,0,0)" rx="2" ry="2" />
<text  x="16.30" y="113.5" ></text>
</g>
<g >
<title>KSPSolve (4,009,772 us, 0.05%)</title><rect x="48.9" y="119" width="0.7" height="15.0" fill="rgb(0,0,0)" rx="2" ry="2" />
<text  x="51.94" y="129.5" ></text>
</g>
<g >
<title>ParLoopExecute (85,931,752 us, 1.18%)</title><rect x="68.3" y="167" width="13.9" height="15.0" fill="rgb(0,0,0)" rx="2" ry="2" />
<text  x="71.28" y="177.5" ></text>
</g>
<g >
<title>Log_Event_subkernel1_interior_facet_vert_to__exterior_facet_vert_integral_otherwise (2,820,780 us, 0.04%)</title><rect x="85.2" y="199" width="0.5" height="15.0" fill="rgb(0,0,0)" rx="2" ry="2" />
<text  x="88.22" y="209.5" ></text>
</g>
<g >
<title>firedrake.__init__ (1,526,905 us, 0.02%)</title><rect x="10.4" y="71" width="0.3" height="15.0" fill="rgb(0,0,0)" rx="2" ry="2" />
<text  x="13.43" y="81.5" ></text>
</g>
<g >
<title>pyop2.global_kernel.GlobalKernel.compile (2,039,293 us, 0.03%)</title><rect x="16.7" y="135" width="0.3" height="15.0" fill="rgb(0,0,0)" rx="2" ry="2" />
<text  x="19.69" y="145.5" ></text>
</g>
<g >
<title>firedrake.assemble.allocate_matrix (5,671,993 us, 0.08%)</title><rect x="1186.6" y="167" width="0.9" height="15.0" fill="rgb(0,0,0)" rx="2" ry="2" />
<text  x="1189.62" y="177.5" ></text>
</g>
<g >
<title>Log_Event_subkernel21_interior_facet_vert_to__exterior_facet_vert_integral_otherwise (2,613,821 us, 0.04%)</title><rect x="63.0" y="183" width="0.4" height="15.0" fill="rgb(0,0,0)" rx="2" ry="2" />
<text  x="65.98" y="193.5" ></text>
</g>
<g >
<title>HybridProject (894,350 us, 0.01%)</title><rect x="61.7" y="151" width="0.2" height="15.0" fill="rgb(0,0,0)" rx="2" ry="2" />
<text  x="64.71" y="161.5" ></text>
</g>
<g >
<title>pyop2.global_kernel.GlobalKernel.compile (894,350 us, 0.01%)</title><rect x="61.7" y="215" width="0.2" height="15.0" fill="rgb(0,0,0)" rx="2" ry="2" />
<text  x="64.71" y="225.5" ></text>
</g>
<g >
<title>RecoverFirstElim (92,725,213 us, 1.27%)</title><rect x="68.0" y="151" width="15.0" height="15.0" fill="rgb(0,0,0)" rx="2" ry="2" />
<text  x="71.02" y="161.5" ></text>
</g>
<g >
<title>Parloop_Cells_wrap_wrap_slate_loopy_knl_11 (85,931,752 us, 1.18%)</title><rect x="68.3" y="183" width="13.9" height="15.0" fill="rgb(0,0,0)" rx="2" ry="2" />
<text  x="71.28" y="193.5" ></text>
</g>
<g >
<title>HybridInit (756,729 us, 0.01%)</title><rect x="1188.4" y="119" width="0.1" height="15.0" fill="rgb(0,0,0)" rx="2" ry="2" />
<text  x="1191.41" y="129.5" ></text>
</g>
<g >
<title>solve_memcpy (122,115,335 us, 1.67%)</title><rect x="529.7" y="247" width="19.8" height="15.0" fill="rgb(0,0,0)" rx="2" ry="2" />
<text  x="532.73" y="257.5" ></text>
</g>
<g >
<title>Log_Event_form00_interior_facet_vert_integral_otherwise (2,458,104 us, 0.03%)</title><rect x="26.1" y="151" width="0.4" height="15.0" fill="rgb(0,0,0)" rx="2" ry="2" />
<text  x="29.13" y="161.5" ></text>
</g>
<g >
<title>Parloop_Cells_wrap_form_interior_facet_horiz_integral_otherwise (3,151,980 us, 0.04%)</title><rect x="11.6" y="103" width="0.5" height="15.0" fill="rgb(0,0,0)" rx="2" ry="2" />
<text  x="14.55" y="113.5" ></text>
</g>
<g >
<title>MatCholFctrNum (49,423,496 us, 0.68%)</title><rect x="49.6" y="151" width="8.0" height="15.0" fill="rgb(0,0,0)" rx="2" ry="2" />
<text  x="52.59" y="161.5" ></text>
</g>
<g >
<title>Log_Event_subkernel10_interior_facet_horiz_bottom_to__exterior_facet_bottom_integral_otherwise (47,320,702 us, 0.65%)</title><rect x="549.5" y="231" width="7.7" height="15.0" fill="rgb(0,0,0)" rx="2" ry="2" />
<text  x="552.49" y="241.5" ></text>
</g>
<g >
<title>HybridBreak (888,187 us, 0.01%)</title><rect x="83.5" y="151" width="0.2" height="15.0" fill="rgb(0,0,0)" rx="2" ry="2" />
<text  x="86.53" y="161.5" ></text>
</g>
<g >
<title>firedrake.extrusion_utils.make_extruded_coords (892,004 us, 0.01%)</title><rect x="10.3" y="87" width="0.1" height="15.0" fill="rgb(0,0,0)" rx="2" ry="2" />
<text  x="13.28" y="97.5" ></text>
</g>
<g >
<title>pyop2.global_kernel.GlobalKernel.compile (48,503,978 us, 0.67%)</title><rect x="1178.8" y="199" width="7.8" height="15.0" fill="rgb(0,0,0)" rx="2" ry="2" />
<text  x="1181.77" y="209.5" ></text>
</g>
<g >
<title>Log_Event_subkernel10_interior_facet_vert_to__exterior_facet_vert_integral_otherwise (600,551,936 us, 8.24%)</title><rect x="564.8" y="231" width="97.2" height="15.0" fill="rgb(0,0,0)" rx="2" ry="2" />
<text  x="567.81" y="241.5" >Log_Event_..</text>
</g>
<g >
<title>MatZeroInitial (1,359,218 us, 0.02%)</title><rect x="1187.3" y="183" width="0.2" height="15.0" fill="rgb(0,0,0)" rx="2" ry="2" />
<text  x="1190.32" y="193.5" ></text>
</g>
<g >
<title>Log_Event_slate_loopy_knl_0 (8,350,181 us, 0.11%)</title><rect x="83.9" y="199" width="1.3" height="15.0" fill="rgb(0,0,0)" rx="2" ry="2" />
<text  x="86.87" y="209.5" ></text>
</g>
<g >
<title>firedrake.matrix_free.operators.ImplicitMatrixContext.mult (6,617,745,217 us, 90.76%)</title><rect x="93.3" y="183" width="1071.0" height="15.0" fill="rgb(0,0,0)" rx="2" ry="2" />
<text  x="96.31" y="193.5" >firedrake.matrix_free.operators.ImplicitMatrixContext.mult</text>
</g>
<g >
<title>firedrake.parloops.par_loop (894,350 us, 0.01%)</title><rect x="61.7" y="167" width="0.2" height="15.0" fill="rgb(0,0,0)" rx="2" ry="2" />
<text  x="64.71" y="177.5" ></text>
</g>
<g >
<title>Parloop_IntFacets_wrap_form00_interior_facet_vert_integral_otherwise (9,020,701 us, 0.12%)</title><rect x="25.9" y="135" width="1.5" height="15.0" fill="rgb(0,0,0)" rx="2" ry="2" />
<text  x="28.93" y="145.5" ></text>
</g>
<g >
<title>Log_Event_subkernel10_interior_facet_horiz_top_to__exterior_facet_top_integral_otherwise (47,310,778 us, 0.65%)</title><rect x="557.2" y="231" width="7.6" height="15.0" fill="rgb(0,0,0)" rx="2" ry="2" />
<text  x="560.15" y="241.5" ></text>
</g>
<g >
<title>Log_Event_slate_loopy_knl_7 (2,650,205,473 us, 36.35%)</title><rect x="120.6" y="231" width="428.9" height="15.0" fill="rgb(0,0,0)" rx="2" ry="2" />
<text  x="123.59" y="241.5" >Log_Event_slate_loopy_knl_7</text>
</g>
<g >
<title>pyop2.global_kernel.GlobalKernel.compile (48,504,951 us, 0.67%)</title><rect x="1155.6" y="231" width="7.8" height="15.0" fill="rgb(0,0,0)" rx="2" ry="2" />
<text  x="1158.60" y="241.5" ></text>
</g>
<g >
<title>Parloop_Cells_wrap_form00_exterior_facet_top_integral_otherwise (2,469,909 us, 0.03%)</title><rect x="24.0" y="135" width="0.4" height="15.0" fill="rgb(0,0,0)" rx="2" ry="2" />
<text  x="26.96" y="145.5" ></text>
</g>
<g >
<title>pyop2.global_kernel.GlobalKernel.compile (888,187 us, 0.01%)</title><rect x="83.5" y="215" width="0.2" height="15.0" fill="rgb(0,0,0)" rx="2" ry="2" />
<text  x="86.53" y="225.5" ></text>
</g>
<g >
<title>Log_Event_slate_loopy_knl_18 (4,079,570 us, 0.06%)</title><rect x="62.1" y="183" width="0.6" height="15.0" fill="rgb(0,0,0)" rx="2" ry="2" />
<text  x="65.07" y="193.5" ></text>
</g>
<g >
<title>pyop2.global_kernel.GlobalKernel.compile (7,223,377 us, 0.10%)</title><rect x="13.3" y="119" width="1.2" height="15.0" fill="rgb(0,0,0)" rx="2" ry="2" />
<text  x="16.30" y="129.5" ></text>
</g>
<g >
<title>PCSetUp (756,729 us, 0.01%)</title><rect x="1188.4" y="103" width="0.1" height="15.0" fill="rgb(0,0,0)" rx="2" ry="2" />
<text  x="1191.41" y="113.5" ></text>
</g>
<g >
<title>pyop2.global_kernel.GlobalKernel.compile (9,836,488 us, 0.13%)</title><rect x="58.3" y="151" width="1.6" height="15.0" fill="rgb(0,0,0)" rx="2" ry="2" />
<text  x="61.32" y="161.5" ></text>
</g>
<g >
<title>CreateExtMesh (892,004 us, 0.01%)</title><rect x="10.3" y="71" width="0.1" height="15.0" fill="rgb(0,0,0)" rx="2" ry="2" />
<text  x="13.28" y="81.5" ></text>
</g>
<g >
<title>firedrake.parloops.par_loop (888,187 us, 0.01%)</title><rect x="83.5" y="167" width="0.2" height="15.0" fill="rgb(0,0,0)" rx="2" ry="2" />
<text  x="86.53" y="177.5" ></text>
</g>
<g >
<title>Log_Event_subkernel14_cell_to__cell_integral_otherwise (1,559,220 us, 0.02%)</title><rect x="76.0" y="199" width="0.3" height="15.0" fill="rgb(0,0,0)" rx="2" ry="2" />
<text  x="79.02" y="209.5" ></text>
</g>
<g >
<title>PCSetUpOnBlocks (49,423,496 us, 0.68%)</title><rect x="49.6" y="119" width="8.0" height="15.0" fill="rgb(0,0,0)" rx="2" ry="2" />
<text  x="52.59" y="129.5" ></text>
</g>
<g >
<title>Log_Event_subkernel19_cell_to__cell_integral_otherwise (1,561,217 us, 0.02%)</title><rect x="62.7" y="183" width="0.3" height="15.0" fill="rgb(0,0,0)" rx="2" ry="2" />
<text  x="65.73" y="193.5" ></text>
</g>
<g >
<title>pyop2.global_kernel.GlobalKernel.compile (892,004 us, 0.01%)</title><rect x="10.3" y="135" width="0.1" height="15.0" fill="rgb(0,0,0)" rx="2" ry="2" />
<text  x="13.28" y="145.5" ></text>
</g>
<g >
<title>Parloop_Cells_wrap_form00_cell_integral_otherwise (26,561,249 us, 0.36%)</title><rect x="19.3" y="135" width="4.3" height="15.0" fill="rgb(0,0,0)" rx="2" ry="2" />
<text  x="22.27" y="145.5" ></text>
</g>
<g >
<title>firedrake.tsfc_interface.compile_form (5,427,694 us, 0.07%)</title><rect x="1187.5" y="167" width="0.9" height="15.0" fill="rgb(0,0,0)" rx="2" ry="2" />
<text  x="1190.54" y="177.5" ></text>
</g>
<g >
<title>inv_getrf (8,307,549 us, 0.11%)</title><rect x="1168.7" y="215" width="1.4" height="15.0" fill="rgb(0,0,0)" rx="2" ry="2" />
<text  x="1171.71" y="225.5" ></text>
</g>
<g >
<title>Log_Event_subkernel6_interior_facet_vert_to__exterior_facet_vert_integral_otherwise (2,045,090 us, 0.03%)</title><rect x="1178.4" y="199" width="0.4" height="15.0" fill="rgb(0,0,0)" rx="2" ry="2" />
<text  x="1181.44" y="209.5" ></text>
</g>
<g >
<title>Parloop_Cells_wrap_wrap_slate_loopy_knl_3 (136,038,860 us, 1.87%)</title><rect x="1164.6" y="183" width="22.0" height="15.0" fill="rgb(0,0,0)" rx="2" ry="2" />
<text  x="1167.60" y="193.5" ></text>
</g>
<g >
<title>KSPSolve (2,427,693 us, 0.03%)</title><rect x="49.2" y="151" width="0.4" height="15.0" fill="rgb(0,0,0)" rx="2" ry="2" />
<text  x="52.20" y="161.5" ></text>
</g>
<g >
<title>PCSetUp (148,985,070 us, 2.04%)</title><rect x="1164.3" y="151" width="24.1" height="15.0" fill="rgb(0,0,0)" rx="2" ry="2" />
<text  x="1167.30" y="161.5" >P..</text>
</g>
<g >
<title>pyop2.global_kernel.GlobalKernel.compile (2,419,365 us, 0.03%)</title><rect x="23.6" y="151" width="0.4" height="15.0" fill="rgb(0,0,0)" rx="2" ry="2" />
<text  x="26.57" y="161.5" ></text>
</g>
<g >
<title>solve_getrf (4,079,570 us, 0.06%)</title><rect x="62.1" y="199" width="0.6" height="15.0" fill="rgb(0,0,0)" rx="2" ry="2" />
<text  x="65.07" y="209.5" ></text>
</g>
<g >
<title>solve_getrf (8,374,688 us, 0.11%)</title><rect x="74.7" y="215" width="1.3" height="15.0" fill="rgb(0,0,0)" rx="2" ry="2" />
<text  x="77.66" y="225.5" ></text>
</g>
<g >
<title>SCForwardElim (60,409,588 us, 0.83%)</title><rect x="83.5" y="135" width="9.8" height="15.0" fill="rgb(0,0,0)" rx="2" ry="2" />
<text  x="86.53" y="145.5" ></text>
</g>
<g >
<title>firedrake.function.Function.project (263,807,179 us, 3.62%)</title><rect x="15.6" y="71" width="42.7" height="15.0" fill="rgb(0,0,0)" rx="2" ry="2" />
<text  x="18.63" y="81.5" >fir..</text>
</g>
<g >
<title>Parloop_IntFacets_wrap_form0_interior_facet_vert_integral_otherwise (5,481,411 us, 0.08%)</title><rect x="18.4" y="119" width="0.9" height="15.0" fill="rgb(0,0,0)" rx="2" ry="2" />
<text  x="21.39" y="129.5" ></text>
</g>
<g >
<title>firedrake.norms.norm (11,005,012 us, 0.15%)</title><rect x="58.3" y="87" width="1.8" height="15.0" fill="rgb(0,0,0)" rx="2" ry="2" />
<text  x="61.32" y="97.5" ></text>
</g>
<g >
<title>pyop2.global_kernel.GlobalKernel.compile (3,409,313 us, 0.05%)</title><rect x="17.0" y="135" width="0.6" height="15.0" fill="rgb(0,0,0)" rx="2" ry="2" />
<text  x="20.02" y="145.5" ></text>
</g>
<g >
<title>MatMult (8,386,747 us, 0.12%)</title><rect x="60.1" y="119" width="1.4" height="15.0" fill="rgb(0,0,0)" rx="2" ry="2" />
<text  x="63.10" y="129.5" ></text>
</g>
<g >
<title>pyop2.global_kernel.GlobalKernel.compile (3,151,980 us, 0.04%)</title><rect x="11.6" y="119" width="0.5" height="15.0" fill="rgb(0,0,0)" rx="2" ry="2" />
<text  x="14.55" y="129.5" ></text>
</g>
<g >
<title>ParLoopExecute (23,437,079 us, 0.32%)</title><rect x="10.7" y="87" width="3.8" height="15.0" fill="rgb(0,0,0)" rx="2" ry="2" />
<text  x="13.67" y="97.5" ></text>
</g>
<g >
<title>PCApply (2,427,693 us, 0.03%)</title><rect x="49.2" y="167" width="0.4" height="15.0" fill="rgb(0,0,0)" rx="2" ry="2" />
<text  x="52.20" y="177.5" ></text>
</g>
<g >
<title>KSPSolve (6,617,745,217 us, 90.76%)</title><rect x="93.3" y="151" width="1071.0" height="15.0" fill="rgb(0,0,0)" rx="2" ry="2" />
<text  x="96.31" y="161.5" >KSPSolve</text>
</g>
<g >
<title>firedrake.tsfc_interface.compile_form (3,309,583 us, 0.05%)</title><rect x="92.8" y="167" width="0.5" height="15.0" fill="rgb(0,0,0)" rx="2" ry="2" />
<text  x="95.77" y="177.5" ></text>
</g>
<g >
<title>Parloop_Cells_wrap_pyop2_kernel_uniform_extrusion (892,004 us, 0.01%)</title><rect x="10.3" y="119" width="0.1" height="15.0" fill="rgb(0,0,0)" rx="2" ry="2" />
<text  x="13.28" y="129.5" ></text>
</g>
<g >
<title>pyop2.global_kernel.GlobalKernel.compile (28,524,940 us, 0.39%)</title><rect x="63.4" y="183" width="4.6" height="15.0" fill="rgb(0,0,0)" rx="2" ry="2" />
<text  x="66.40" y="193.5" ></text>
</g>
<g >
<title>firedrake.assemble.allocate_matrix (127,852,997 us, 1.75%)</title><rect x="27.4" y="119" width="20.7" height="15.0" fill="rgb(0,0,0)" rx="2" ry="2" />
<text  x="30.39" y="129.5" ></text>
</g>
<g >
<title>pyop2.global_kernel.GlobalKernel.compile (3,114,746 us, 0.04%)</title><rect x="24.6" y="151" width="0.5" height="15.0" fill="rgb(0,0,0)" rx="2" ry="2" />
<text  x="27.57" y="161.5" ></text>
</g>
<g >
<title>solve_getrs (50,873,946 us, 0.70%)</title><rect x="521.5" y="247" width="8.2" height="15.0" fill="rgb(0,0,0)" rx="2" ry="2" />
<text  x="524.50" y="257.5" ></text>
</g>
<g >
<title>Log_Event_slate_loopy_knl_3 (73,154,016 us, 1.00%)</title><rect x="1164.9" y="199" width="11.9" height="15.0" fill="rgb(0,0,0)" rx="2" ry="2" />
<text  x="1167.94" y="209.5" ></text>
</g>
<g >
<title>Parloop_Cells_wrap_form0_cell_integral_otherwise (4,228,787 us, 0.06%)</title><rect x="1188.5" y="135" width="0.7" height="15.0" fill="rgb(0,0,0)" rx="2" ry="2" />
<text  x="1191.54" y="145.5" ></text>
</g>
<g >
<title>pyop2.global_kernel.GlobalKernel.compile (3,138,203 us, 0.04%)</title><rect x="60.8" y="183" width="0.5" height="15.0" fill="rgb(0,0,0)" rx="2" ry="2" />
<text  x="63.78" y="193.5" ></text>
</g>
<g >
<title>MatSolve (2,427,693 us, 0.03%)</title><rect x="49.2" y="183" width="0.4" height="15.0" fill="rgb(0,0,0)" rx="2" ry="2" />
<text  x="52.20" y="193.5" ></text>
</g>
<g >
<title>Log_Event_subkernel9_cell_to__cell_integral_otherwise (2,183,712,784 us, 29.95%)</title><rect x="802.2" y="231" width="353.4" height="15.0" fill="rgb(0,0,0)" rx="2" ry="2" />
<text  x="805.19" y="241.5" >Log_Event_subkernel9_cell_to__cell_integral_..</text>
</g>
<g >
<title>firedrake.norms.errornorm (11,005,012 us, 0.15%)</title><rect x="58.3" y="71" width="1.8" height="15.0" fill="rgb(0,0,0)" rx="2" ry="2" />
<text  x="61.32" y="81.5" ></text>
</g>
<g >
<title>pyop2.global_kernel.GlobalKernel.compile (2,032,363 us, 0.03%)</title><rect x="16.4" y="135" width="0.3" height="15.0" fill="rgb(0,0,0)" rx="2" ry="2" />
<text  x="19.36" y="145.5" ></text>
</g>
<g >
<title>pyop2.global_kernel.GlobalKernel.compile (3,542,972 us, 0.05%)</title><rect x="1189.2" y="151" width="0.6" height="15.0" fill="rgb(0,0,0)" rx="2" ry="2" />
<text  x="1192.22" y="161.5" ></text>
</g>
<g >
<title>PCApply (2,427,693 us, 0.03%)</title><rect x="49.2" y="135" width="0.4" height="15.0" fill="rgb(0,0,0)" rx="2" ry="2" />
<text  x="52.20" y="145.5" ></text>
</g>
<g >
<title>firedrake (7,291,304,995 us, 100.00%)</title><rect x="10.0" y="55" width="1180.0" height="15.0" fill="rgb(0,0,0)" rx="2" ry="2" />
<text  x="13.00" y="65.5" >firedrake</text>
</g>
<g >
<title>pyop2.global_kernel.GlobalKernel.compile (7,623,474 us, 0.10%)</title><rect x="12.1" y="119" width="1.2" height="15.0" fill="rgb(0,0,0)" rx="2" ry="2" />
<text  x="15.06" y="129.5" ></text>
</g>
<g >
<title>pyop2.global_kernel.GlobalKernel.compile (17,999,671 us, 0.25%)</title><rect x="20.7" y="151" width="2.9" height="15.0" fill="rgb(0,0,0)" rx="2" ry="2" />
<text  x="23.66" y="161.5" ></text>
</g>
<g >
<title>pyop2.global_kernel.GlobalKernel.compile (2,469,909 us, 0.03%)</title><rect x="24.0" y="151" width="0.4" height="15.0" fill="rgb(0,0,0)" rx="2" ry="2" />
<text  x="26.96" y="161.5" ></text>
</g>
<g >
<title>firedrake.projection.project (263,807,179 us, 3.62%)</title><rect x="15.6" y="87" width="42.7" height="15.0" fill="rgb(0,0,0)" rx="2" ry="2" />
<text  x="18.63" y="97.5" >fir..</text>
</g>
<g >
<title>Log_Event_subkernel2_cell_to__cell_integral_otherwise (7,494,111 us, 0.10%)</title><rect x="85.7" y="199" width="1.2" height="15.0" fill="rgb(0,0,0)" rx="2" ry="2" />
<text  x="88.68" y="209.5" ></text>
</g>
<g >
<title>pyop2.global_kernel.GlobalKernel.compile (4,552,958 us, 0.06%)</title><rect x="15.6" y="135" width="0.8" height="15.0" fill="rgb(0,0,0)" rx="2" ry="2" />
<text  x="18.63" y="145.5" ></text>
</g>
<g >
<title>firedrake.tsfc_interface.compile_form (1,268,659 us, 0.02%)</title><rect x="1189.8" y="119" width="0.2" height="15.0" fill="rgb(0,0,0)" rx="2" ry="2" />
<text  x="1192.79" y="129.5" ></text>
</g>
<g >
<title>firedrake.tsfc_interface.compile_form (6,298,075 us, 0.09%)</title><rect x="14.6" y="87" width="1.0" height="15.0" fill="rgb(0,0,0)" rx="2" ry="2" />
<text  x="17.61" y="97.5" ></text>
</g>
<g >
<title>firedrake.tsfc_interface.compile_form (3,130,513 us, 0.04%)</title><rect x="83.0" y="151" width="0.5" height="15.0" fill="rgb(0,0,0)" rx="2" ry="2" />
<text  x="86.03" y="161.5" ></text>
</g>
<g >
<title>MatMult (6,617,745,217 us, 90.76%)</title><rect x="93.3" y="167" width="1071.0" height="15.0" fill="rgb(0,0,0)" rx="2" ry="2" />
<text  x="96.31" y="177.5" >MatMult</text>
</g>
<g >
<title>Log_Event_subkernel8_interior_facet_horiz_bottom_to__exterior_facet_bottom_integral_otherwise (49,268,183 us, 0.68%)</title><rect x="662.0" y="231" width="8.0" height="15.0" fill="rgb(0,0,0)" rx="2" ry="2" />
<text  x="665.00" y="241.5" ></text>
</g>
<g >
<title>firedrake.tsfc_interface.compile_form (5,310,169 us, 0.07%)</title><rect x="48.1" y="119" width="0.8" height="15.0" fill="rgb(0,0,0)" rx="2" ry="2" />
<text  x="51.08" y="129.5" ></text>
</g>
<g >
<title>MatZeroInitial (39,282,612 us, 0.54%)</title><rect x="41.7" y="135" width="6.4" height="15.0" fill="rgb(0,0,0)" rx="2" ry="2" />
<text  x="44.72" y="145.5" ></text>
</g>
<g >
<title>SCBackSub (136,407,247 us, 1.87%)</title><rect x="61.5" y="135" width="22.0" height="15.0" fill="rgb(0,0,0)" rx="2" ry="2" />
<text  x="64.46" y="145.5" ></text>
</g>
<g >
<title>pyop2.global_kernel.GlobalKernel.compile (5,481,411 us, 0.08%)</title><rect x="18.4" y="135" width="0.9" height="15.0" fill="rgb(0,0,0)" rx="2" ry="2" />
<text  x="21.39" y="145.5" ></text>
</g>
<g >
<title>Log_Event_subkernel5_cell_to__cell_integral_otherwise (7,453,790 us, 0.10%)</title><rect x="1177.2" y="199" width="1.2" height="15.0" fill="rgb(0,0,0)" rx="2" ry="2" />
<text  x="1180.23" y="209.5" ></text>
</g>
<g >
<title>Parloop_Cells_wrap_form0_cell_integral_otherwise (4,552,958 us, 0.06%)</title><rect x="15.6" y="119" width="0.8" height="15.0" fill="rgb(0,0,0)" rx="2" ry="2" />
<text  x="18.63" y="129.5" ></text>
</g>
<g >
<title>pyop2.global_kernel.GlobalKernel.compile (5,345,676 us, 0.07%)</title><rect x="26.5" y="151" width="0.9" height="15.0" fill="rgb(0,0,0)" rx="2" ry="2" />
<text  x="29.52" y="161.5" ></text>
</g>
<g >
<title>ParLoopExecute (868,360 us, 0.01%)</title><rect x="14.5" y="119" width="0.1" height="15.0" fill="rgb(0,0,0)" rx="2" ry="2" />
<text  x="17.47" y="129.5" ></text>
</g>
<g >
<title>Parloop_Cells_wrap_wrap_slate_loopy_knl_7 (6,610,170,269 us, 90.66%)</title><rect x="93.7" y="215" width="1069.7" height="15.0" fill="rgb(0,0,0)" rx="2" ry="2" />
<text  x="96.68" y="225.5" >Parloop_Cells_wrap_wrap_slate_loopy_knl_7</text>
</g>
<g >
<title>ParLoopExecute (22,547,153 us, 0.31%)</title><rect x="15.6" y="103" width="3.7" height="15.0" fill="rgb(0,0,0)" rx="2" ry="2" />
<text  x="18.63" y="113.5" ></text>
</g>
<g >
<title>pyop2.global_kernel.GlobalKernel.compile (2,715,360 us, 0.04%)</title><rect x="11.1" y="119" width="0.5" height="15.0" fill="rgb(0,0,0)" rx="2" ry="2" />
<text  x="14.11" y="129.5" ></text>
</g>
<g >
<title>Parloop_Cells_wrap_form_exterior_facet_top_integral_otherwise (2,715,360 us, 0.04%)</title><rect x="11.1" y="103" width="0.5" height="15.0" fill="rgb(0,0,0)" rx="2" ry="2" />
<text  x="14.11" y="113.5" ></text>
</g>
<g >
<title>all (7,291,304,995 us, 100%)</title><rect x="10.0" y="39" width="1180.0" height="15.0" fill="rgb(0,0,0)" rx="2" ry="2" />
<text  x="13.00" y="49.5" ></text>
</g>
<g >
<title>Parloop_Cells_wrap_form0_exterior_facet_bottom_integral_otherwise (2,032,363 us, 0.03%)</title><rect x="16.4" y="119" width="0.3" height="15.0" fill="rgb(0,0,0)" rx="2" ry="2" />
<text  x="19.36" y="129.5" ></text>
</g>
<g >
<title>Parloop_Cells_wrap_form0_exterior_facet_top_integral_otherwise (2,039,293 us, 0.03%)</title><rect x="16.7" y="119" width="0.3" height="15.0" fill="rgb(0,0,0)" rx="2" ry="2" />
<text  x="19.69" y="129.5" ></text>
</g>
<g >
<title>firedrake.variational_solver.NonlinearVariationalSolver.solve (6,981,731,016 us, 95.75%)</title><rect x="60.1" y="71" width="1129.9" height="15.0" fill="rgb(0,0,0)" rx="2" ry="2" />
<text  x="63.10" y="81.5" >firedrake.variational_solver.NonlinearVariationalSolver.solve</text>
</g>
<g >
<title>Log_Event_form00_cell_integral_otherwise (1,972,725 us, 0.03%)</title><rect x="20.3" y="151" width="0.4" height="15.0" fill="rgb(0,0,0)" rx="2" ry="2" />
<text  x="23.34" y="161.5" ></text>
</g>
<g >
<title>PCApply (6,963,547,122 us, 95.50%)</title><rect x="61.5" y="119" width="1126.9" height="15.0" fill="rgb(0,0,0)" rx="2" ry="2" />
<text  x="64.46" y="129.5" >PCApply</text>
</g>
<g >
<title>firedrake.assemble_expressions.evaluate_expression (868,360 us, 0.01%)</title><rect x="14.5" y="103" width="0.1" height="15.0" fill="rgb(0,0,0)" rx="2" ry="2" />
<text  x="17.47" y="113.5" ></text>
</g>
<g >
<title>Parloop_ExtFacets_wrap_form0_exterior_facet_vert_integral_otherwise (5,031,815 us, 0.07%)</title><rect x="17.6" y="119" width="0.8" height="15.0" fill="rgb(0,0,0)" rx="2" ry="2" />
<text  x="20.57" y="129.5" ></text>
</g>
<g >
<title>Parloop_Cells_wrap_form0_interior_facet_horiz_integral_otherwise (3,409,313 us, 0.05%)</title><rect x="17.0" y="119" width="0.6" height="15.0" fill="rgb(0,0,0)" rx="2" ry="2" />
<text  x="20.02" y="129.5" ></text>
</g>
<g >
<title>Log_Event_subkernel4_interior_facet_vert_to__exterior_facet_vert_integral_otherwise (2,809,770 us, 0.04%)</title><rect x="1176.8" y="199" width="0.4" height="15.0" fill="rgb(0,0,0)" rx="2" ry="2" />
<text  x="1179.78" y="209.5" ></text>
</g>
<g >
<title>Parloop_Cells_wrap_form00_interior_facet_horiz_integral_otherwise (4,405,616 us, 0.06%)</title><rect x="24.4" y="135" width="0.7" height="15.0" fill="rgb(0,0,0)" rx="2" ry="2" />
<text  x="27.36" y="145.5" ></text>
</g>
<g >
<title>Parloop_ExtFacets_wrap_form00_exterior_facet_vert_integral_otherwise (5,261,284 us, 0.07%)</title><rect x="25.1" y="135" width="0.8" height="15.0" fill="rgb(0,0,0)" rx="2" ry="2" />
<text  x="28.08" y="145.5" ></text>
</g>
<g >
<title>inv_getrf (4,077,837 us, 0.06%)</title><rect x="70.8" y="215" width="0.7" height="15.0" fill="rgb(0,0,0)" rx="2" ry="2" />
<text  x="73.82" y="225.5" ></text>
</g>
<g >
<title>Parloop_Cells_wrap_par_loop_kernel (894,350 us, 0.01%)</title><rect x="61.7" y="199" width="0.2" height="15.0" fill="rgb(0,0,0)" rx="2" ry="2" />
<text  x="64.71" y="209.5" ></text>
</g>
<g >
<title>solve_getrf (8,350,181 us, 0.11%)</title><rect x="83.9" y="215" width="1.3" height="15.0" fill="rgb(0,0,0)" rx="2" ry="2" />
<text  x="86.87" y="225.5" ></text>
</g>
<g >
<title>ParLoopExecute (50,138,124 us, 0.69%)</title><rect x="19.3" y="119" width="8.1" height="15.0" fill="rgb(0,0,0)" rx="2" ry="2" />
<text  x="22.27" y="129.5" ></text>
</g>
<g >
<title>SCSolve (6,766,730,287 us, 92.81%)</title><rect x="93.3" y="135" width="1095.1" height="15.0" fill="rgb(0,0,0)" rx="2" ry="2" />
<text  x="96.31" y="145.5" >SCSolve</text>
</g>
<g >
<title>Parloop_Cells_wrap_form_cell_integral_otherwise (9,836,488 us, 0.13%)</title><rect x="58.3" y="135" width="1.6" height="15.0" fill="rgb(0,0,0)" rx="2" ry="2" />
<text  x="61.32" y="145.5" ></text>
</g>
<g >
<title>Parloop_Cells_wrap_form1_cell_integral_otherwise (3,138,203 us, 0.04%)</title><rect x="60.8" y="167" width="0.5" height="15.0" fill="rgb(0,0,0)" rx="2" ry="2" />
<text  x="63.78" y="177.5" ></text>
</g>
<g >
<title>inv_getri (19,642,337 us, 0.27%)</title><rect x="71.5" y="215" width="3.2" height="15.0" fill="rgb(0,0,0)" rx="2" ry="2" />
<text  x="74.48" y="225.5" ></text>
</g>
<g >
<title>pyop2.global_kernel.GlobalKernel.compile (5,261,284 us, 0.07%)</title><rect x="25.1" y="151" width="0.8" height="15.0" fill="rgb(0,0,0)" rx="2" ry="2" />
<text  x="28.08" y="161.5" ></text>
</g>
<g >
<title>firedrake.tsfc_interface.compile_form (5,279,672 us, 0.07%)</title><rect x="1163.4" y="199" width="0.9" height="15.0" fill="rgb(0,0,0)" rx="2" ry="2" />
<text  x="1166.45" y="209.5" ></text>
</g>
<g >
<title>Log_Event_subkernel17_interior_facet_vert_to__exterior_facet_vert_integral_otherwise (2,616,283 us, 0.04%)</title><rect x="76.3" y="199" width="0.4" height="15.0" fill="rgb(0,0,0)" rx="2" ry="2" />
<text  x="79.27" y="209.5" ></text>
</g>
<g >
<title>ParLoopExecute (6,610,170,269 us, 90.66%)</title><rect x="93.7" y="199" width="1069.7" height="15.0" fill="rgb(0,0,0)" rx="2" ry="2" />
<text  x="96.68" y="209.5" >ParLoopExecute</text>
</g>
<g >
<title>ParLoopExecute (7,771,759 us, 0.11%)</title><rect x="1188.5" y="119" width="1.3" height="15.0" fill="rgb(0,0,0)" rx="2" ry="2" />
<text  x="1191.54" y="129.5" ></text>
</g>
<g >
<title>pyop2.global_kernel.GlobalKernel.compile (4,228,787 us, 0.06%)</title><rect x="1188.5" y="151" width="0.7" height="15.0" fill="rgb(0,0,0)" rx="2" ry="2" />
<text  x="1191.54" y="161.5" ></text>
</g>
<g >
<title>ParLoopExecute (894,350 us, 0.01%)</title><rect x="61.7" y="183" width="0.2" height="15.0" fill="rgb(0,0,0)" rx="2" ry="2" />
<text  x="64.71" y="193.5" ></text>
</g>
<g >
<title>Parloop_Cells_wrap_par_loop_kernel (888,187 us, 0.01%)</title><rect x="83.5" y="199" width="0.2" height="15.0" fill="rgb(0,0,0)" rx="2" ry="2" />
<text  x="86.53" y="209.5" ></text>
</g>
<g >
<title>Parloop_Cells_wrap_wrap_slate_loopy_knl_18 (38,111,162 us, 0.52%)</title><rect x="61.9" y="167" width="6.1" height="15.0" fill="rgb(0,0,0)" rx="2" ry="2" />
<text  x="64.85" y="177.5" ></text>
</g>
<g >
<title>inv_getri (41,561,755 us, 0.57%)</title><rect x="1170.1" y="215" width="6.7" height="15.0" fill="rgb(0,0,0)" rx="2" ry="2" />
<text  x="1173.05" y="225.5" ></text>
</g>
<g >
<title>pyop2.global_kernel.GlobalKernel.compile (36,337,709 us, 0.50%)</title><rect x="86.9" y="199" width="5.9" height="15.0" fill="rgb(0,0,0)" rx="2" ry="2" />
<text  x="89.89" y="209.5" ></text>
</g>
<g >
<title>firedrake.tsfc_interface.compile_form (4,525,468 us, 0.06%)</title><rect x="57.6" y="103" width="0.7" height="15.0" fill="rgb(0,0,0)" rx="2" ry="2" />
<text  x="60.59" y="113.5" ></text>
</g>
<g >
<title>pyop2.global_kernel.GlobalKernel.compile (2,722,888 us, 0.04%)</title><rect x="10.7" y="119" width="0.4" height="15.0" fill="rgb(0,0,0)" rx="2" ry="2" />
<text  x="13.67" y="129.5" ></text>
</g>
<g >
<title>pyop2.global_kernel.GlobalKernel.compile (33,933,138 us, 0.47%)</title><rect x="76.7" y="199" width="5.5" height="15.0" fill="rgb(0,0,0)" rx="2" ry="2" />
<text  x="79.69" y="209.5" ></text>
</g>
<g >
<title>firedrake.matrix_free.operators.ImplicitMatrixContext.mult (8,386,747 us, 0.12%)</title><rect x="60.1" y="135" width="1.4" height="15.0" fill="rgb(0,0,0)" rx="2" ry="2" />
<text  x="63.10" y="145.5" ></text>
</g>
<g >
<title>firedrake.tsfc_interface.compile_form (1,035,729 us, 0.01%)</title><rect x="61.3" y="151" width="0.2" height="15.0" fill="rgb(0,0,0)" rx="2" ry="2" />
<text  x="64.29" y="161.5" ></text>
</g>
<g >
<title>ParLoopExecute (9,836,488 us, 0.13%)</title><rect x="58.3" y="119" width="1.6" height="15.0" fill="rgb(0,0,0)" rx="2" ry="2" />
<text  x="61.32" y="129.5" ></text>
</g>
<g >
<title>Parloop_Cells_wrap_form1_cell_integral_otherwise (3,542,972 us, 0.05%)</title><rect x="1189.2" y="135" width="0.6" height="15.0" fill="rgb(0,0,0)" rx="2" ry="2" />
<text  x="1192.22" y="145.5" ></text>
</g>
<g >
<title>firedrake.linear_solver.LinearSolver.solve (53,433,268 us, 0.73%)</title><rect x="48.9" y="103" width="8.7" height="15.0" fill="rgb(0,0,0)" rx="2" ry="2" />
<text  x="51.94" y="113.5" ></text>
</g>
<g >
<title>ParLoopExecute (55,002,781 us, 0.75%)</title><rect x="83.9" y="167" width="8.9" height="15.0" fill="rgb(0,0,0)" rx="2" ry="2" />
<text  x="86.87" y="177.5" ></text>
</g>
<g >
<title>SNESFunctionEval (9,040,418 us, 0.12%)</title><rect x="1188.5" y="103" width="1.5" height="15.0" fill="rgb(0,0,0)" rx="2" ry="2" />
<text  x="1191.54" y="113.5" ></text>
</g>
<g >
<title>Parloop_Cells_wrap_wrap_slate_loopy_knl_0 (55,002,781 us, 0.75%)</title><rect x="83.9" y="183" width="8.9" height="15.0" fill="rgb(0,0,0)" rx="2" ry="2" />
<text  x="86.87" y="193.5" ></text>
</g>
<g >
<title>SNESSolve (6,981,731,016 us, 95.75%)</title><rect x="60.1" y="87" width="1129.9" height="15.0" fill="rgb(0,0,0)" rx="2" ry="2" />
<text  x="63.10" y="97.5" >SNESSolve</text>
</g>
<g >
<title>HybridRHS (59,521,401 us, 0.82%)</title><rect x="83.7" y="151" width="9.6" height="15.0" fill="rgb(0,0,0)" rx="2" ry="2" />
<text  x="86.68" y="161.5" ></text>
</g>
<g >
<title>Log_Event_subkernel8_interior_facet_horiz_top_to__exterior_facet_top_integral_otherwise (48,010,220 us, 0.66%)</title><rect x="670.0" y="231" width="7.7" height="15.0" fill="rgb(0,0,0)" rx="2" ry="2" />
<text  x="672.97" y="241.5" ></text>
</g>
<g >
<title>Log_Event_slate_loopy_knl_11 (45,762,683 us, 0.63%)</title><rect x="68.6" y="199" width="7.4" height="15.0" fill="rgb(0,0,0)" rx="2" ry="2" />
<text  x="71.61" y="209.5" ></text>
</g>
<g >
<title>firedrake.assemble.assemble (11,005,012 us, 0.15%)</title><rect x="58.3" y="103" width="1.8" height="15.0" fill="rgb(0,0,0)" rx="2" ry="2" />
<text  x="61.32" y="113.5" ></text>
</g>
<g >
<title>firedrake.assemble_expressions.assemble_expression (868,360 us, 0.01%)</title><rect x="14.5" y="87" width="0.1" height="15.0" fill="rgb(0,0,0)" rx="2" ry="2" />
<text  x="17.47" y="97.5" ></text>
</g>
<g >
<title>ParLoopExecute (888,187 us, 0.01%)</title><rect x="83.5" y="183" width="0.2" height="15.0" fill="rgb(0,0,0)" rx="2" ry="2" />
<text  x="86.53" y="193.5" ></text>
</g>
<g >
<title>firedrake.tsfc_interface.compile_form (5,198,050 us, 0.07%)</title><rect x="82.2" y="167" width="0.8" height="15.0" fill="rgb(0,0,0)" rx="2" ry="2" />
<text  x="85.19" y="177.5" ></text>
</g>
<g >
<title>Log_Event_subkernel8_interior_facet_vert_to__exterior_facet_vert_integral_otherwise (769,002,971 us, 10.55%)</title><rect x="677.7" y="231" width="124.5" height="15.0" fill="rgb(0,0,0)" rx="2" ry="2" />
<text  x="680.74" y="241.5" >Log_Event_subk..</text>
</g>
<g >
<title>firedrake.tsfc_interface.compile_form (1,168,524 us, 0.02%)</title><rect x="59.9" y="119" width="0.2" height="15.0" fill="rgb(0,0,0)" rx="2" ry="2" />
<text  x="62.91" y="129.5" ></text>
</g>
<g >
<title>Log_Event_inits_wrap_slate_loopy_knl_7 (69,440,449 us, 0.95%)</title><rect x="109.4" y="231" width="11.2" height="15.0" fill="rgb(0,0,0)" rx="2" ry="2" />
<text  x="112.35" y="241.5" ></text>
</g>
<g >
<title>CreateSparsity (4,312,775 us, 0.06%)</title><rect x="1186.6" y="183" width="0.7" height="15.0" fill="rgb(0,0,0)" rx="2" ry="2" />
<text  x="1189.62" y="193.5" ></text>
</g>
<g >
<title>pyop2.global_kernel.GlobalKernel.compile (4,212,815 us, 0.06%)</title><rect x="60.1" y="183" width="0.7" height="15.0" fill="rgb(0,0,0)" rx="2" ry="2" />
<text  x="63.10" y="193.5" ></text>
</g>
</g>
</svg>
