<?xml version="1.0" standalone="no"?>
<!DOCTYPE svg PUBLIC "-//W3C//DTD SVG 1.1//EN" "http://www.w3.org/Graphics/SVG/1.1/DTD/svg11.dtd">
<svg version="1.1" width="1200" height="427" onload="init(evt)" viewBox="0 0 1200 427" xmlns="http://www.w3.org/2000/svg" xmlns:xlink="http://www.w3.org/1999/xlink">
<!-- Flame graph stack visualization. See https://github.com/brendangregg/FlameGraph for latest version, and http://www.brendangregg.com/flamegraphs.html for examples. -->
<!-- NOTES:  -->
<defs>
	<linearGradient id="background" y1="0" y2="1" x1="0" x2="0" >
		<stop stop-color="#eeeeee" offset="5%" />
		<stop stop-color="#eeeeb0" offset="95%" />
	</linearGradient>
</defs>
<style type="text/css">
	text { font-family:Verdana; font-size:13px; fill:rgb(0,0,0); }
	#search, #ignorecase { opacity:0.1; cursor:pointer; }
	#search:hover, #search.show, #ignorecase:hover, #ignorecase.show { opacity:1; }
	#subtitle { text-anchor:middle; font-color:rgb(160,160,160); }
	#title { text-anchor:middle; font-size:18px}
	#unzoom { cursor:pointer; }
	#frames > *:hover { stroke:black; stroke-width:0.5; cursor:pointer; }
	.hide { display:none; }
	.parent { opacity:0.5; }
</style>
<script type="text/ecmascript">
<![CDATA[
	"use strict";
	var details, searchbtn, unzoombtn, matchedtxt, svg, searching, currentSearchTerm, ignorecase, ignorecaseBtn;
	function init(evt) {
		details = document.getElementById("details").firstChild;
		searchbtn = document.getElementById("search");
		ignorecaseBtn = document.getElementById("ignorecase");
		unzoombtn = document.getElementById("unzoom");
		matchedtxt = document.getElementById("matched");
		svg = document.getElementsByTagName("svg")[0];
		searching = 0;
		currentSearchTerm = null;

		// use GET parameters to restore a flamegraphs state.
		var params = get_params();
		if (params.x && params.y)
			zoom(find_group(document.querySelector('[x="' + params.x + '"][y="' + params.y + '"]')));
                if (params.s) search(params.s);
	}

	// event listeners
	window.addEventListener("click", function(e) {
		var target = find_group(e.target);
		if (target) {
			if (target.nodeName == "a") {
				if (e.ctrlKey === false) return;
				e.preventDefault();
			}
			if (target.classList.contains("parent")) unzoom();
			zoom(target);
			if (!document.querySelector('.parent')) {
				clearzoom();
				return;
			}

			// set parameters for zoom state
			var el = target.querySelector("rect");
			if (el && el.attributes && el.attributes.y && el.attributes._orig_x) {
				var params = get_params()
				params.x = el.attributes._orig_x.value;
				params.y = el.attributes.y.value;
				history.replaceState(null, null, parse_params(params));
			}
		}
		else if (e.target.id == "unzoom") clearzoom();
		else if (e.target.id == "search") search_prompt();
		else if (e.target.id == "ignorecase") toggle_ignorecase();
	}, false)

	// mouse-over for info
	// show
	window.addEventListener("mouseover", function(e) {
		var target = find_group(e.target);
		if (target) details.nodeValue = "Function: " + g_to_text(target);
	}, false)

	// clear
	window.addEventListener("mouseout", function(e) {
		var target = find_group(e.target);
		if (target) details.nodeValue = ' ';
	}, false)

	// ctrl-F for search
	// ctrl-I to toggle case-sensitive search
	window.addEventListener("keydown",function (e) {
		if (e.keyCode === 114 || (e.ctrlKey && e.keyCode === 70)) {
			e.preventDefault();
			search_prompt();
		}
		else if (e.ctrlKey && e.keyCode === 73) {
			e.preventDefault();
			toggle_ignorecase();
		}
	}, false)

	// functions
	function get_params() {
		var params = {};
		var paramsarr = window.location.search.substr(1).split('&');
		for (var i = 0; i < paramsarr.length; ++i) {
			var tmp = paramsarr[i].split("=");
			if (!tmp[0] || !tmp[1]) continue;
			params[tmp[0]]  = decodeURIComponent(tmp[1]);
		}
		return params;
	}
	function parse_params(params) {
		var uri = "?";
		for (var key in params) {
			uri += key + '=' + encodeURIComponent(params[key]) + '&';
		}
		if (uri.slice(-1) == "&")
			uri = uri.substring(0, uri.length - 1);
		if (uri == '?')
			uri = window.location.href.split('?')[0];
		return uri;
	}
	function find_child(node, selector) {
		var children = node.querySelectorAll(selector);
		if (children.length) return children[0];
	}
	function find_group(node) {
		var parent = node.parentElement;
		if (!parent) return;
		if (parent.id == "frames") return node;
		return find_group(parent);
	}
	function orig_save(e, attr, val) {
		if (e.attributes["_orig_" + attr] != undefined) return;
		if (e.attributes[attr] == undefined) return;
		if (val == undefined) val = e.attributes[attr].value;
		e.setAttribute("_orig_" + attr, val);
	}
	function orig_load(e, attr) {
		if (e.attributes["_orig_"+attr] == undefined) return;
		e.attributes[attr].value = e.attributes["_orig_" + attr].value;
		e.removeAttribute("_orig_"+attr);
	}
	function g_to_text(e) {
		var text = find_child(e, "title").firstChild.nodeValue;
		return (text)
	}
	function g_to_func(e) {
		var func = g_to_text(e);
		// if there's any manipulation we want to do to the function
		// name before it's searched, do it here before returning.
		return (func);
	}
	function update_text(e) {
		var r = find_child(e, "rect");
		var t = find_child(e, "text");
		var w = parseFloat(r.attributes.width.value) -3;
		var txt = find_child(e, "title").textContent.replace(/\([^(]*\)$/,"");
		t.attributes.x.value = parseFloat(r.attributes.x.value) + 3;

		// Smaller than this size won't fit anything
		if (w < 2 * 13 * 0.59) {
			t.textContent = "";
			return;
		}

		t.textContent = txt;
		// Fit in full text width
		if (/^ *$/.test(txt) || t.getSubStringLength(0, txt.length) < w)
			return;

		for (var x = txt.length - 2; x > 0; x--) {
			if (t.getSubStringLength(0, x + 2) <= w) {
				t.textContent = txt.substring(0, x) + "..";
				return;
			}
		}
		t.textContent = "";
	}

	// zoom
	function zoom_reset(e) {
		if (e.attributes != undefined) {
			orig_load(e, "x");
			orig_load(e, "width");
		}
		if (e.childNodes == undefined) return;
		for (var i = 0, c = e.childNodes; i < c.length; i++) {
			zoom_reset(c[i]);
		}
	}
	function zoom_child(e, x, ratio) {
		if (e.attributes != undefined) {
			if (e.attributes.x != undefined) {
				orig_save(e, "x");
				e.attributes.x.value = (parseFloat(e.attributes.x.value) - x - 10) * ratio + 10;
				if (e.tagName == "text")
					e.attributes.x.value = find_child(e.parentNode, "rect[x]").attributes.x.value + 3;
			}
			if (e.attributes.width != undefined) {
				orig_save(e, "width");
				e.attributes.width.value = parseFloat(e.attributes.width.value) * ratio;
			}
		}

		if (e.childNodes == undefined) return;
		for (var i = 0, c = e.childNodes; i < c.length; i++) {
			zoom_child(c[i], x - 10, ratio);
		}
	}
	function zoom_parent(e) {
		if (e.attributes) {
			if (e.attributes.x != undefined) {
				orig_save(e, "x");
				e.attributes.x.value = 10;
			}
			if (e.attributes.width != undefined) {
				orig_save(e, "width");
				e.attributes.width.value = parseInt(svg.width.baseVal.value) - (10 * 2);
			}
		}
		if (e.childNodes == undefined) return;
		for (var i = 0, c = e.childNodes; i < c.length; i++) {
			zoom_parent(c[i]);
		}
	}
	function zoom(node) {
		var attr = find_child(node, "rect").attributes;
		var width = parseFloat(attr.width.value);
		var xmin = parseFloat(attr.x.value);
		var xmax = parseFloat(xmin + width);
		var ymin = parseFloat(attr.y.value);
		var ratio = (svg.width.baseVal.value - 2 * 10) / width;

		// XXX: Workaround for JavaScript float issues (fix me)
		var fudge = 0.0001;

		unzoombtn.classList.remove("hide");

		var el = document.getElementById("frames").children;
		for (var i = 0; i < el.length; i++) {
			var e = el[i];
			var a = find_child(e, "rect").attributes;
			var ex = parseFloat(a.x.value);
			var ew = parseFloat(a.width.value);
			var upstack;
			// Is it an ancestor
			if (1 == 0) {
				upstack = parseFloat(a.y.value) > ymin;
			} else {
				upstack = parseFloat(a.y.value) < ymin;
			}
			if (upstack) {
				// Direct ancestor
				if (ex <= xmin && (ex+ew+fudge) >= xmax) {
					e.classList.add("parent");
					zoom_parent(e);
					update_text(e);
				}
				// not in current path
				else
					e.classList.add("hide");
			}
			// Children maybe
			else {
				// no common path
				if (ex < xmin || ex + fudge >= xmax) {
					e.classList.add("hide");
				}
				else {
					zoom_child(e, xmin, ratio);
					update_text(e);
				}
			}
		}
		search();
	}
	function unzoom() {
		unzoombtn.classList.add("hide");
		var el = document.getElementById("frames").children;
		for(var i = 0; i < el.length; i++) {
			el[i].classList.remove("parent");
			el[i].classList.remove("hide");
			zoom_reset(el[i]);
			update_text(el[i]);
		}
		search();
	}
	function clearzoom() {
		unzoom();

		// remove zoom state
		var params = get_params();
		if (params.x) delete params.x;
		if (params.y) delete params.y;
		history.replaceState(null, null, parse_params(params));
	}

	// search
	function toggle_ignorecase() {
		ignorecase = !ignorecase;
		if (ignorecase) {
			ignorecaseBtn.classList.add("show");
		} else {
			ignorecaseBtn.classList.remove("show");
		}
		reset_search();
		search();
	}
	function reset_search() {
		var el = document.querySelectorAll("#frames rect");
		for (var i = 0; i < el.length; i++) {
			orig_load(el[i], "fill")
		}
		var params = get_params();
		delete params.s;
		history.replaceState(null, null, parse_params(params));
	}
	function search_prompt() {
		if (!searching) {
			var term = prompt("Enter a search term (regexp " +
			    "allowed, eg: ^ext4_)"
			    + (ignorecase ? ", ignoring case" : "")
			    + "\nPress Ctrl-i to toggle case sensitivity", "");
			if (term != null) search(term);
		} else {
			reset_search();
			searching = 0;
			currentSearchTerm = null;
			searchbtn.classList.remove("show");
			searchbtn.firstChild.nodeValue = "Search"
			matchedtxt.classList.add("hide");
			matchedtxt.firstChild.nodeValue = ""
		}
	}
	function search(term) {
		if (term) currentSearchTerm = term;

		var re = new RegExp(currentSearchTerm, ignorecase ? 'i' : '');
		var el = document.getElementById("frames").children;
		var matches = new Object();
		var maxwidth = 0;
		for (var i = 0; i < el.length; i++) {
			var e = el[i];
			var func = g_to_func(e);
			var rect = find_child(e, "rect");
			if (func == null || rect == null)
				continue;

			// Save max width. Only works as we have a root frame
			var w = parseFloat(rect.attributes.width.value);
			if (w > maxwidth)
				maxwidth = w;

			if (func.match(re)) {
				// highlight
				var x = parseFloat(rect.attributes.x.value);
				orig_save(rect, "fill");
				rect.attributes.fill.value = "rgb(230,0,230)";

				// remember matches
				if (matches[x] == undefined) {
					matches[x] = w;
				} else {
					if (w > matches[x]) {
						// overwrite with parent
						matches[x] = w;
					}
				}
				searching = 1;
			}
		}
		if (!searching)
			return;
		var params = get_params();
		params.s = currentSearchTerm;
		history.replaceState(null, null, parse_params(params));

		searchbtn.classList.add("show");
		searchbtn.firstChild.nodeValue = "Reset Search";

		// calculate percent matched, excluding vertical overlap
		var count = 0;
		var lastx = -1;
		var lastw = 0;
		var keys = Array();
		for (k in matches) {
			if (matches.hasOwnProperty(k))
				keys.push(k);
		}
		// sort the matched frames by their x location
		// ascending, then width descending
		keys.sort(function(a, b){
			return a - b;
		});
		// Step through frames saving only the biggest bottom-up frames
		// thanks to the sort order. This relies on the tree property
		// where children are always smaller than their parents.
		var fudge = 0.0001;	// JavaScript floating point
		for (var k in keys) {
			var x = parseFloat(keys[k]);
			var w = matches[keys[k]];
			if (x >= lastx + lastw - fudge) {
				count += w;
				lastx = x;
				lastw = w;
			}
		}
		// display matched percent
		matchedtxt.classList.remove("hide");
		var pct = 100 * count / maxwidth;
		if (pct != 100) pct = pct.toFixed(1)
		matchedtxt.firstChild.nodeValue = "Matched: " + pct + "%";
	}
]]>
</script>
<rect x="0.0" y="0" width="1200.0" height="427.0" fill="url(#background)"  />
<text id="title" x="600.00" y="26" >Firedrake example</text>
<text id="details" x="10.00" y="409" > </text>
<text id="unzoom" x="10.00" y="26" class="hide">Reset Zoom</text>
<text id="search" x="1090.00" y="26" >Search</text>
<text id="ignorecase" x="1174.00" y="26" >ic</text>
<text id="matched" x="1090.00" y="409" > </text>
<g id="frames">
<g >
<title>ParLoopExecute (9,008,781 us, 3.06%)</title><rect x="24.1" y="151" width="36.0" height="15.0" fill="rgb(0,0,0)" rx="2" ry="2" />
<text  x="27.07" y="161.5" >Pa..</text>
</g>
<g >
<title>Parloop_set_#x7f4f9c2468c0_wrap_pyop2_kernel_restrict (668,452 us, 0.23%)</title><rect x="680.4" y="295" width="2.7" height="15.0" fill="rgb(0,0,0)" rx="2" ry="2" />
<text  x="683.40" y="305.5" ></text>
</g>
<g >
<title>Log_Event_tensorshell_knl_83 (232,052 us, 0.08%)</title><rect x="660.7" y="311" width="1.0" height="15.0" fill="rgb(0,0,0)" rx="2" ry="2" />
<text  x="663.72" y="321.5" ></text>
</g>
<g >
<title>firedrake.interpolation.interpolate (1,090,725 us, 0.37%)</title><rect x="674.3" y="311" width="4.4" height="15.0" fill="rgb(0,0,0)" rx="2" ry="2" />
<text  x="677.35" y="321.5" ></text>
</g>
<g >
<title>PCApply (1,393,467 us, 0.47%; 0.00%)</title><rect x="665.2" y="231" width="5.5" height="15.0" fill="rgb(255,255,255)" rx="2" ry="2" />
<text  x="668.17" y="241.5" ></text>
</g>
<g >
<title>PCApply (127,921,374 us, 43.39%)</title><rect x="641.4" y="167" width="512.0" height="15.0" fill="rgb(0,0,0)" rx="2" ry="2" />
<text  x="644.41" y="177.5" >PCApply</text>
</g>
<g >
<title>MatMult (5,936,189 us, 2.01%)</title><rect x="641.4" y="215" width="23.8" height="15.0" fill="rgb(0,0,0)" rx="2" ry="2" />
<text  x="644.41" y="225.5" >M..</text>
</g>
<g >
<title>Log_Event_mtf_solve_123 (240,315 us, 0.08%)</title><rect x="639.3" y="279" width="1.0" height="15.0" fill="rgb(0,0,0)" rx="2" ry="2" />
<text  x="642.34" y="289.5" ></text>
</g>
<g >
<title>PCSetUp (7,817,063 us, 2.65%)</title><rect x="1153.4" y="151" width="31.3" height="15.0" fill="rgb(0,0,0)" rx="2" ry="2" />
<text  x="1156.41" y="161.5" >PC..</text>
</g>
<g >
<title>Parloop_Cells_wrap_form1_cell_integral_otherwise (4,214,881 us, 1.43%)</title><rect x="43.3" y="167" width="16.8" height="15.0" fill="rgb(0,0,0)" rx="2" ry="2" />
<text  x="46.25" y="177.5" ></text>
</g>
<g >
<title>firedrake.tsfc_interface.compile_form (336,132 us, 0.11%)</title><rect x="1152.1" y="215" width="1.3" height="15.0" fill="rgb(0,0,0)" rx="2" ry="2" />
<text  x="1155.07" y="225.5" ></text>
</g>
<g >
<title>pyop2.global_kernel.GlobalKernel.compile (1,361,485 us, 0.46%)</title><rect x="1153.6" y="199" width="5.4" height="15.0" fill="rgb(0,0,0)" rx="2" ry="2" />
<text  x="1156.59" y="209.5" ></text>
</g>
<g >
<title>Parloop_Cells_wrap_expression_kernel (1,090,725 us, 0.37%)</title><rect x="674.3" y="359" width="4.4" height="15.0" fill="rgb(0,0,0)" rx="2" ry="2" />
<text  x="677.35" y="369.5" ></text>
</g>
<g >
<title>Parloop_Cells_wrap_slate_loopy_knl_70 (769,583 us, 0.26%)</title><rect x="638.3" y="215" width="3.1" height="15.0" fill="rgb(0,0,0)" rx="2" ry="2" />
<text  x="641.33" y="225.5" ></text>
</g>
<g >
<title>Parloop_Cells_wrap_slate_loopy_knl_70 (84,620,432 us, 28.70%)</title><rect x="732.1" y="279" width="338.7" height="15.0" fill="rgb(0,0,0)" rx="2" ry="2" />
<text  x="735.08" y="289.5" >Parloop_Cells_wrap_slate_loopy_knl_70</text>
</g>
<g >
<title>Log_Event_subkernel122_cell_to__cell_integral_otherwise (111,900 us, 0.04%)</title><rect x="640.3" y="279" width="0.5" height="15.0" fill="rgb(0,0,0)" rx="2" ry="2" />
<text  x="643.31" y="289.5" ></text>
</g>
<g >
<title>HybridInit (1,323,951 us, 0.45%)</title><rect x="1184.7" y="119" width="5.3" height="15.0" fill="rgb(0,0,0)" rx="2" ry="2" />
<text  x="1187.70" y="129.5" ></text>
</g>
<g >
<title>Log_Event_subkernel132_cell_to__cell_integral_otherwise (67,799 us, 0.02%)</title><rect x="663.6" y="295" width="0.2" height="15.0" fill="rgb(0,0,0)" rx="2" ry="2" />
<text  x="666.56" y="305.5" ></text>
</g>
<g >
<title>firedrake.extrusion_utils.make_extruded_coords (861,846 us, 0.29%)</title><rect x="14.6" y="87" width="3.4" height="15.0" fill="rgb(0,0,0)" rx="2" ry="2" />
<text  x="17.57" y="97.5" ></text>
</g>
<g >
<title>Log_Event_subkernel101_interior_facet_vert_to__exterior_facet_vert_integral_otherwise (132,917 us, 0.05%)</title><rect x="662.1" y="295" width="0.5" height="15.0" fill="rgb(0,0,0)" rx="2" ry="2" />
<text  x="665.07" y="305.5" ></text>
</g>
<g >
<title>Log_Event_subkernel124_cell_to__cell_integral_otherwise (381,754 us, 0.13%)</title><rect x="647.0" y="343" width="1.5" height="15.0" fill="rgb(0,0,0)" rx="2" ry="2" />
<text  x="649.99" y="353.5" ></text>
</g>
<g >
<title>ParLoopExecute (861,846 us, 0.29%)</title><rect x="14.6" y="103" width="3.4" height="15.0" fill="rgb(0,0,0)" rx="2" ry="2" />
<text  x="17.57" y="113.5" ></text>
</g>
<g >
<title>Log_Event_mtf_solve_75 (105,644 us, 0.04%)</title><rect x="659.8" y="327" width="0.4" height="15.0" fill="rgb(0,0,0)" rx="2" ry="2" />
<text  x="662.79" y="337.5" ></text>
</g>
<g >
<title>Log_Event_subkernel129_cell_to__cell_integral_otherwise (707,839 us, 0.24%)</title><rect x="656.4" y="327" width="2.8" height="15.0" fill="rgb(0,0,0)" rx="2" ry="2" />
<text  x="659.37" y="337.5" ></text>
</g>
<g >
<title>firedrake.tsfc_interface.compile_form (4,012,335 us, 1.36%)</title><rect x="145.5" y="151" width="16.0" height="15.0" fill="rgb(0,0,0)" rx="2" ry="2" />
<text  x="148.48" y="161.5" ></text>
</g>
<g >
<title>firedrake.matrix_free.operators.ImplicitMatrixContext.mult (5,936,189 us, 2.01%)</title><rect x="641.4" y="231" width="23.8" height="15.0" fill="rgb(0,0,0)" rx="2" ry="2" />
<text  x="644.41" y="241.5" >f..</text>
</g>
<g >
<title>SNESSolve (291,301,316 us, 98.81%)</title><rect x="24.1" y="87" width="1165.9" height="15.0" fill="rgb(0,0,0)" rx="2" ry="2" />
<text  x="27.07" y="97.5" >SNESSolve</text>
</g>
<g >
<title>MatMult (769,583 us, 0.26%)</title><rect x="638.3" y="167" width="3.1" height="15.0" fill="rgb(0,0,0)" rx="2" ry="2" />
<text  x="641.33" y="177.5" ></text>
</g>
<g >
<title>firedrake.matrix_free.operators.ImplicitMatrixContext.mult (10,250,459 us, 3.48%)</title><rect x="24.1" y="135" width="41.0" height="15.0" fill="rgb(0,0,0)" rx="2" ry="2" />
<text  x="27.07" y="145.5" >fir..</text>
</g>
<g >
<title>Log_Event_mtf_solve_110 (150,183 us, 0.05%)</title><rect x="732.6" y="311" width="0.6" height="15.0" fill="rgb(0,0,0)" rx="2" ry="2" />
<text  x="735.64" y="321.5" ></text>
</g>
<g >
<title>HybridBreak (1,415,699 us, 0.48%)</title><rect x="161.5" y="151" width="5.7" height="15.0" fill="rgb(0,0,0)" rx="2" ry="2" />
<text  x="164.54" y="161.5" ></text>
</g>
<g >
<title>Parloop_set_#x7f4f9c245e70_wrap_pyop2_kernel_inject (602,793 us, 0.20%)</title><rect x="671.9" y="327" width="2.4" height="15.0" fill="rgb(0,0,0)" rx="2" ry="2" />
<text  x="674.94" y="337.5" ></text>
</g>
<g >
<title>Parloop_set_#x7f4f9c245e70_wrap_pyop2_kernel_prolong (599,980 us, 0.20%)</title><rect x="666.5" y="327" width="2.4" height="15.0" fill="rgb(0,0,0)" rx="2" ry="2" />
<text  x="669.45" y="337.5" ></text>
</g>
<g >
<title>ParLoopExecute (599,980 us, 0.20%)</title><rect x="666.5" y="311" width="2.4" height="15.0" fill="rgb(0,0,0)" rx="2" ry="2" />
<text  x="669.45" y="321.5" ></text>
</g>
<g >
<title>firedrake.pointquery_utils.to_reference_coordinates (421,311 us, 0.14%)</title><rect x="668.9" y="311" width="1.6" height="15.0" fill="rgb(0,0,0)" rx="2" ry="2" />
<text  x="671.85" y="321.5" ></text>
</g>
<g >
<title>firedrake.pointquery_utils.to_reference_coordinates (418,473 us, 0.14%)</title><rect x="683.1" y="279" width="1.7" height="15.0" fill="rgb(0,0,0)" rx="2" ry="2" />
<text  x="686.08" y="289.5" ></text>
</g>
<g >
<title>MatMult (1,280,537 us, 0.43%)</title><rect x="665.4" y="263" width="5.1" height="15.0" fill="rgb(0,0,0)" rx="2" ry="2" />
<text  x="668.41" y="273.5" ></text>
</g>
<g >
<title>firedrake.slate.slac.optimise.optimise (49,965 us, 0.02%)</title><rect x="532.1" y="167" width="0.2" height="15.0" fill="rgb(0,0,0)" rx="2" ry="2" />
<text  x="535.13" y="177.5" ></text>
</g>
<g >
<title>firedrake.mg.interface.prolong (1,280,537 us, 0.43%)</title><rect x="665.4" y="295" width="5.1" height="15.0" fill="rgb(0,0,0)" rx="2" ry="2" />
<text  x="668.41" y="305.5" ></text>
</g>
<g >
<title>Parloop_Cells_wrap_slate_loopy_knl_0 (79,382,594 us, 26.93%)</title><rect x="214.4" y="183" width="317.7" height="15.0" fill="rgb(0,0,0)" rx="2" ry="2" />
<text  x="217.40" y="193.5" >Parloop_Cells_wrap_slate_loopy_knl_0</text>
</g>
<g >
<title>Log_Event_slate_loopy_knl_70 (798,328 us, 0.27%)</title><rect x="684.8" y="279" width="3.1" height="15.0" fill="rgb(0,0,0)" rx="2" ry="2" />
<text  x="687.75" y="289.5" ></text>
</g>
<g >
<title>RecoverFirstElim (4,548,835 us, 1.54%)</title><rect x="127.3" y="151" width="18.2" height="15.0" fill="rgb(0,0,0)" rx="2" ry="2" />
<text  x="130.27" y="161.5" ></text>
</g>
<g >
<title>DMCoarsen (2,412,334 us, 0.82%)</title><rect x="670.7" y="247" width="9.7" height="15.0" fill="rgb(0,0,0)" rx="2" ry="2" />
<text  x="673.74" y="257.5" ></text>
</g>
<g >
<title>ParLoopExecute (84,620,432 us, 28.70%)</title><rect x="732.1" y="263" width="338.7" height="15.0" fill="rgb(0,0,0)" rx="2" ry="2" />
<text  x="735.08" y="273.5" >ParLoopExecute</text>
</g>
<g >
<title>firedrake.mg.interface.inject (2,412,334 us, 0.82%)</title><rect x="670.7" y="295" width="9.7" height="15.0" fill="rgb(0,0,0)" rx="2" ry="2" />
<text  x="673.74" y="305.5" ></text>
</g>
<g >
<title>pyop2.global_kernel.GlobalKernel.compile (599,980 us, 0.20%)</title><rect x="666.5" y="343" width="2.4" height="15.0" fill="rgb(0,0,0)" rx="2" ry="2" />
<text  x="669.45" y="353.5" ></text>
</g>
<g >
<title>pyop2.global_kernel.GlobalKernel.compile (861,846 us, 0.29%)</title><rect x="14.6" y="135" width="3.4" height="15.0" fill="rgb(0,0,0)" rx="2" ry="2" />
<text  x="17.57" y="145.5" ></text>
</g>
<g >
<title>CreateExtMesh (861,846 us, 0.29%)</title><rect x="14.6" y="71" width="3.4" height="15.0" fill="rgb(0,0,0)" rx="2" ry="2" />
<text  x="17.57" y="81.5" ></text>
</g>
<g >
<title>Log_Event_mtf_solve_133 (145,584 us, 0.05%)</title><rect x="659.2" y="295" width="0.6" height="15.0" fill="rgb(0,0,0)" rx="2" ry="2" />
<text  x="662.21" y="305.5" ></text>
</g>
<g >
<title>Log_Event_mtf_solve_72 (66,153 us, 0.02%)</title><rect x="641.1" y="247" width="0.3" height="15.0" fill="rgb(0,0,0)" rx="2" ry="2" />
<text  x="644.14" y="257.5" ></text>
</g>
<g >
<title>PCSetUp (336,132 us, 0.11%)</title><rect x="1152.1" y="199" width="1.3" height="15.0" fill="rgb(0,0,0)" rx="2" ry="2" />
<text  x="1155.07" y="209.5" ></text>
</g>
<g >
<title>ParLoopExecute (668,452 us, 0.23%)</title><rect x="680.4" y="279" width="2.7" height="15.0" fill="rgb(0,0,0)" rx="2" ry="2" />
<text  x="683.40" y="289.5" ></text>
</g>
<g >
<title>ParLoopExecute (14,266,172 us, 4.84%)</title><rect x="70.2" y="151" width="57.1" height="15.0" fill="rgb(0,0,0)" rx="2" ry="2" />
<text  x="73.17" y="161.5" >ParLo..</text>
</g>
<g >
<title>PCApply (279,726,906 us, 94.88%)</title><rect x="65.1" y="119" width="1119.6" height="15.0" fill="rgb(0,0,0)" rx="2" ry="2" />
<text  x="68.09" y="129.5" >PCApply</text>
</g>
<g >
<title>Log_Event_subkernel84_cell_to__cell_integral_otherwise (67,851 us, 0.02%)</title><rect x="661.1" y="327" width="0.3" height="15.0" fill="rgb(0,0,0)" rx="2" ry="2" />
<text  x="664.14" y="337.5" ></text>
</g>
<g >
<title>MatMult (115,957,999 us, 39.33%)</title><rect x="687.9" y="231" width="464.2" height="15.0" fill="rgb(0,0,0)" rx="2" ry="2" />
<text  x="690.95" y="241.5" >MatMult</text>
</g>
<g >
<title>firedrake.mg.embedded.TransferManager.op (2,412,334 us, 0.82%)</title><rect x="670.7" y="279" width="9.7" height="15.0" fill="rgb(0,0,0)" rx="2" ry="2" />
<text  x="673.74" y="289.5" ></text>
</g>
<g >
<title>MGInterp Level (51,109 us, 0.02%; +0.02%)</title><rect x="670.5" y="247" width="0.2" height="15.0" fill="rgb(255,36,36)" rx="2" ry="2" />
<text  x="673.54" y="257.5" ></text>
</g>
<g >
<title>Log_Event_subkernel112_cell_to__cell_integral_otherwise (67,871 us, 0.02%)</title><rect x="645.5" y="327" width="0.3" height="15.0" fill="rgb(0,0,0)" rx="2" ry="2" />
<text  x="648.50" y="337.5" ></text>
</g>
<g >
<title>Log_Event_subkernel129_cell_to__cell_integral_otherwise (97,207 us, 0.03%)</title><rect x="640.8" y="279" width="0.3" height="15.0" fill="rgb(0,0,0)" rx="2" ry="2" />
<text  x="643.75" y="289.5" ></text>
</g>
<g >
<title>pyop2.global_kernel.GlobalKernel.compile (1,169,585 us, 0.40%)</title><rect x="1185.3" y="183" width="4.7" height="15.0" fill="rgb(0,0,0)" rx="2" ry="2" />
<text  x="1188.32" y="193.5" ></text>
</g>
<g >
<title>firedrake.matrix_free.operators.ImplicitMatrixContext.mult (769,583 us, 0.26%)</title><rect x="638.3" y="183" width="3.1" height="15.0" fill="rgb(0,0,0)" rx="2" ry="2" />
<text  x="641.33" y="193.5" ></text>
</g>
<g >
<title>PCSetUp (3,499,259 us, 1.19%)</title><rect x="670.7" y="231" width="14.1" height="15.0" fill="rgb(0,0,0)" rx="2" ry="2" />
<text  x="673.74" y="241.5" ></text>
</g>
<g >
<title>MGInterp Level 1 (1,280,537 us, 0.43%)</title><rect x="665.4" y="247" width="5.1" height="15.0" fill="rgb(0,0,0)" rx="2" ry="2" />
<text  x="668.41" y="257.5" ></text>
</g>
<g >
<title>firedrake.matrix_free.operators.ImplicitMatrixContext.mult (115,957,999 us, 39.33%)</title><rect x="687.9" y="247" width="464.2" height="15.0" fill="rgb(0,0,0)" rx="2" ry="2" />
<text  x="690.95" y="257.5" >firedrake.matrix_free.operators.ImplicitMatrixContext.mult</text>
</g>
<g >
<title>firedrake.variational_solver.NonlinearVariationalSolver.solve (291,301,316 us, 98.81%)</title><rect x="24.1" y="71" width="1165.9" height="15.0" fill="rgb(0,0,0)" rx="2" ry="2" />
<text  x="27.07" y="81.5" >firedrake.variational_solver.NonlinearVariationalSolver.solve</text>
</g>
<g >
<title>Log_Event_subkernel127_cell_to__cell_integral_otherwise (763,358 us, 0.26%)</title><rect x="649.7" y="343" width="3.1" height="15.0" fill="rgb(0,0,0)" rx="2" ry="2" />
<text  x="652.72" y="353.5" ></text>
</g>
<g >
<title>firedrake.__init__ (1,511,495 us, 0.51%)</title><rect x="18.0" y="71" width="6.1" height="15.0" fill="rgb(0,0,0)" rx="2" ry="2" />
<text  x="21.02" y="81.5" ></text>
</g>
<g >
<title>SCForwardElim (119,122,770 us, 40.41%)</title><rect x="161.5" y="135" width="476.8" height="15.0" fill="rgb(0,0,0)" rx="2" ry="2" />
<text  x="164.54" y="145.5" >SCForwardElim</text>
</g>
<g >
<title>KSPSolve (115,957,999 us, 39.33%)</title><rect x="687.9" y="215" width="464.2" height="15.0" fill="rgb(0,0,0)" rx="2" ry="2" />
<text  x="690.95" y="225.5" >KSPSolve</text>
</g>
<g >
<title>firedrake.tsfc_interface.compile_form (341,371 us, 0.12%)</title><rect x="1183.3" y="167" width="1.4" height="15.0" fill="rgb(0,0,0)" rx="2" ry="2" />
<text  x="1186.33" y="177.5" ></text>
</g>
<g >
<title>Log_Event_slate_loopy_knl_70 (769,583 us, 0.26%)</title><rect x="638.3" y="231" width="3.1" height="15.0" fill="rgb(0,0,0)" rx="2" ry="2" />
<text  x="641.33" y="241.5" ></text>
</g>
<g >
<title>Log_Event_subkernel127_cell_to__cell_integral_otherwise (109,088 us, 0.04%)</title><rect x="686.4" y="343" width="0.4" height="15.0" fill="rgb(0,0,0)" rx="2" ry="2" />
<text  x="689.36" y="353.5" ></text>
</g>
<g >
<title>Log_Event_subkernel81_cell_to__cell_integral_otherwise (59,309 us, 0.02%)</title><rect x="660.5" y="327" width="0.2" height="15.0" fill="rgb(0,0,0)" rx="2" ry="2" />
<text  x="663.48" y="337.5" ></text>
</g>
<g >
<title>Log_Event_tensorshell_knl_128 (83,028 us, 0.03%)</title><rect x="652.8" y="343" width="0.3" height="15.0" fill="rgb(0,0,0)" rx="2" ry="2" />
<text  x="655.78" y="353.5" ></text>
</g>
<g >
<title>MatResidual (798,328 us, 0.27%)</title><rect x="684.8" y="199" width="3.1" height="15.0" fill="rgb(0,0,0)" rx="2" ry="2" />
<text  x="687.75" y="209.5" ></text>
</g>
<g >
<title>firedrake.parloops.par_loop (1,169,585 us, 0.40%)</title><rect x="1185.3" y="135" width="4.7" height="15.0" fill="rgb(0,0,0)" rx="2" ry="2" />
<text  x="1188.32" y="145.5" ></text>
</g>
<g >
<title>Log_Event_subkernel74_cell_to__cell_integral_otherwise (68,202 us, 0.02%)</title><rect x="660.2" y="327" width="0.3" height="15.0" fill="rgb(0,0,0)" rx="2" ry="2" />
<text  x="663.21" y="337.5" ></text>
</g>
<g >
<title>Log_Event_subkernel117_cell_to__cell_integral_otherwise (63,379 us, 0.02%)</title><rect x="645.2" y="343" width="0.3" height="15.0" fill="rgb(0,0,0)" rx="2" ry="2" />
<text  x="648.25" y="353.5" ></text>
</g>
<g >
<title>Log_Event_tensorshell_knl_121 (449,422 us, 0.15%)</title><rect x="639.3" y="263" width="1.8" height="15.0" fill="rgb(0,0,0)" rx="2" ry="2" />
<text  x="642.34" y="273.5" ></text>
</g>
<g >
<title>Log_Event_mtf_solve_110 (464,114 us, 0.16%)</title><rect x="685.8" y="295" width="1.9" height="15.0" fill="rgb(0,0,0)" rx="2" ry="2" />
<text  x="688.81" y="305.5" ></text>
</g>
<g >
<title>Log_Event_subkernel109_cell_to__cell_integral_otherwise (59,335 us, 0.02%)</title><rect x="663.3" y="295" width="0.3" height="15.0" fill="rgb(0,0,0)" rx="2" ry="2" />
<text  x="666.32" y="305.5" ></text>
</g>
<g >
<title>firedrake.pointquery_utils.to_reference_coordinates (421,259 us, 0.14%)</title><rect x="678.7" y="311" width="1.7" height="15.0" fill="rgb(0,0,0)" rx="2" ry="2" />
<text  x="681.71" y="321.5" ></text>
</g>
<g >
<title>Log_Event_subkernel122_cell_to__cell_integral_otherwise (48,373 us, 0.02%)</title><rect x="733.0" y="343" width="0.2" height="15.0" fill="rgb(0,0,0)" rx="2" ry="2" />
<text  x="736.04" y="353.5" ></text>
</g>
<g >
<title>Log_Event_subkernel139_interior_facet_vert_to__exterior_facet_vert_integral_otherwise (133,038 us, 0.05%)</title><rect x="663.8" y="295" width="0.6" height="15.0" fill="rgb(0,0,0)" rx="2" ry="2" />
<text  x="666.83" y="305.5" ></text>
</g>
<g >
<title>MatMultTranspose (1,086,925 us, 0.37%)</title><rect x="680.4" y="247" width="4.4" height="15.0" fill="rgb(0,0,0)" rx="2" ry="2" />
<text  x="683.40" y="257.5" ></text>
</g>
<g >
<title>Parloop_Cells_wrap_form00_cell_integral_otherwise (6,069,073 us, 2.06%)</title><rect x="1159.0" y="183" width="24.3" height="15.0" fill="rgb(0,0,0)" rx="2" ry="2" />
<text  x="1162.04" y="193.5" >P..</text>
</g>
<g >
<title>pyop2.global_kernel.GlobalKernel.compile (84,331,745 us, 28.60%)</title><rect x="733.2" y="295" width="337.6" height="15.0" fill="rgb(0,0,0)" rx="2" ry="2" />
<text  x="736.24" y="305.5" >pyop2.global_kernel.GlobalKernel.compile</text>
</g>
<g >
<title>pyop2.global_kernel.GlobalKernel.compile (6,069,073 us, 2.06%)</title><rect x="1159.0" y="199" width="24.3" height="15.0" fill="rgb(0,0,0)" rx="2" ry="2" />
<text  x="1162.04" y="209.5" >p..</text>
</g>
<g >
<title>Log_Event_subkernel126_cell_to__cell_integral_otherwise (300,043 us, 0.10%)</title><rect x="648.5" y="343" width="1.2" height="15.0" fill="rgb(0,0,0)" rx="2" ry="2" />
<text  x="651.52" y="353.5" ></text>
</g>
<g >
<title>ParLoopExecute (1,169,585 us, 0.40%)</title><rect x="1185.3" y="151" width="4.7" height="15.0" fill="rgb(0,0,0)" rx="2" ry="2" />
<text  x="1188.32" y="161.5" ></text>
</g>
<g >
<title>Log_Event_mtf_solve_110 (3,570,496 us, 1.21%)</title><rect x="644.9" y="295" width="14.3" height="15.0" fill="rgb(0,0,0)" rx="2" ry="2" />
<text  x="647.91" y="305.5" ></text>
</g>
<g >
<title>pyop2.global_kernel.GlobalKernel.compile (14,266,172 us, 4.84%)</title><rect x="70.2" y="183" width="57.1" height="15.0" fill="rgb(0,0,0)" rx="2" ry="2" />
<text  x="73.17" y="193.5" >pyop2..</text>
</g>
<g >
<title>ParLoopExecute (1,415,699 us, 0.48%)</title><rect x="161.5" y="183" width="5.7" height="15.0" fill="rgb(0,0,0)" rx="2" ry="2" />
<text  x="164.54" y="193.5" ></text>
</g>
<g >
<title>ParLoopExecute (602,793 us, 0.20%)</title><rect x="671.9" y="311" width="2.4" height="15.0" fill="rgb(0,0,0)" rx="2" ry="2" />
<text  x="674.94" y="321.5" ></text>
</g>
<g >
<title>KSPSetUp (115,957,999 us, 39.33%)</title><rect x="687.9" y="199" width="464.2" height="15.0" fill="rgb(0,0,0)" rx="2" ry="2" />
<text  x="690.95" y="209.5" >KSPSetUp</text>
</g>
<g >
<title>ParLoopExecute (1,090,725 us, 0.37%)</title><rect x="674.3" y="343" width="4.4" height="15.0" fill="rgb(0,0,0)" rx="2" ry="2" />
<text  x="677.35" y="353.5" ></text>
</g>
<g >
<title>MatMult (10,250,459 us, 3.48%)</title><rect x="24.1" y="119" width="41.0" height="15.0" fill="rgb(0,0,0)" rx="2" ry="2" />
<text  x="27.07" y="129.5" >Mat..</text>
</g>
<g >
<title>Log_Event_mtf_solve_123 (1,720,462 us, 0.58%)</title><rect x="646.2" y="327" width="6.9" height="15.0" fill="rgb(0,0,0)" rx="2" ry="2" />
<text  x="649.22" y="337.5" ></text>
</g>
<g >
<title>Parloop_Cells_wrap_pyop2_kernel_uniform_extrusion (861,846 us, 0.29%)</title><rect x="14.6" y="119" width="3.4" height="15.0" fill="rgb(0,0,0)" rx="2" ry="2" />
<text  x="17.57" y="129.5" ></text>
</g>
<g >
<title>Parloop_Cells_wrap_expression_kernel (1,361,485 us, 0.46%)</title><rect x="1153.6" y="183" width="5.4" height="15.0" fill="rgb(0,0,0)" rx="2" ry="2" />
<text  x="1156.59" y="193.5" ></text>
</g>
<g >
<title>Log_Event_tensorshell_knl_121 (150,183 us, 0.05%)</title><rect x="732.6" y="327" width="0.6" height="15.0" fill="rgb(0,0,0)" rx="2" ry="2" />
<text  x="735.64" y="337.5" ></text>
</g>
<g >
<title>all (294,815,438 us, 100%)</title><rect x="10.0" y="39" width="1180.0" height="15.0" fill="rgb(0,0,0)" rx="2" ry="2" />
<text  x="13.00" y="49.5" ></text>
</g>
<g >
<title>firedrake.interpolation.Interpolator.interpolate (1,090,725 us, 0.37%)</title><rect x="674.3" y="327" width="4.4" height="15.0" fill="rgb(0,0,0)" rx="2" ry="2" />
<text  x="677.35" y="337.5" ></text>
</g>
<g >
<title>PCSetUp (116,294,131 us, 39.45%)</title><rect x="687.9" y="183" width="465.5" height="15.0" fill="rgb(0,0,0)" rx="2" ry="2" />
<text  x="690.95" y="193.5" >PCSetUp</text>
</g>
<g >
<title>pyop2.global_kernel.GlobalKernel.compile (4,214,881 us, 1.43%)</title><rect x="43.3" y="183" width="16.8" height="15.0" fill="rgb(0,0,0)" rx="2" ry="2" />
<text  x="46.25" y="193.5" ></text>
</g>
<g >
<title>Log_Event_subkernel124_cell_to__cell_integral_otherwise (56,024 us, 0.02%)</title><rect x="639.7" y="295" width="0.2" height="15.0" fill="rgb(0,0,0)" rx="2" ry="2" />
<text  x="642.66" y="305.5" ></text>
</g>
<g >
<title>ParLoopExecute (798,328 us, 0.27%)</title><rect x="684.8" y="247" width="3.1" height="15.0" fill="rgb(0,0,0)" rx="2" ry="2" />
<text  x="687.75" y="257.5" ></text>
</g>
<g >
<title>firedrake.parloops.par_loop (1,415,699 us, 0.48%)</title><rect x="161.5" y="167" width="5.7" height="15.0" fill="rgb(0,0,0)" rx="2" ry="2" />
<text  x="164.54" y="177.5" ></text>
</g>
<g >
<title>HybridRHS (117,707,071 us, 39.93%)</title><rect x="167.2" y="151" width="471.1" height="15.0" fill="rgb(0,0,0)" rx="2" ry="2" />
<text  x="170.20" y="161.5" >HybridRHS</text>
</g>
<g >
<title>Parloop_Cells_wrap_slate_loopy_knl_70 (798,328 us, 0.27%)</title><rect x="684.8" y="263" width="3.1" height="15.0" fill="rgb(0,0,0)" rx="2" ry="2" />
<text  x="687.75" y="273.5" ></text>
</g>
<g >
<title>firedrake.mg.interface.restrict (1,086,925 us, 0.37%)</title><rect x="680.4" y="263" width="4.4" height="15.0" fill="rgb(0,0,0)" rx="2" ry="2" />
<text  x="683.40" y="273.5" ></text>
</g>
<g >
<title>Log_Event_mtf_solve_110 (449,422 us, 0.15%)</title><rect x="639.3" y="247" width="1.8" height="15.0" fill="rgb(0,0,0)" rx="2" ry="2" />
<text  x="642.34" y="257.5" ></text>
</g>
<g >
<title>firedrake.dmhooks.coarsen (2,412,334 us, 0.82%)</title><rect x="670.7" y="263" width="9.7" height="15.0" fill="rgb(0,0,0)" rx="2" ry="2" />
<text  x="673.74" y="273.5" ></text>
</g>
<g >
<title>Parloop_Cells_wrap_par_loop_kernel (1,169,585 us, 0.40%)</title><rect x="1185.3" y="167" width="4.7" height="15.0" fill="rgb(0,0,0)" rx="2" ry="2" />
<text  x="1188.32" y="177.5" ></text>
</g>
<g >
<title>firedrake.matrix_free.operators.ImplicitMatrixContext.mult (798,328 us, 0.27%)</title><rect x="684.8" y="231" width="3.1" height="15.0" fill="rgb(0,0,0)" rx="2" ry="2" />
<text  x="687.75" y="241.5" ></text>
</g>
<g >
<title>Log_Event_subkernel102_interior_facet_vert_to__exterior_facet_vert_integral_otherwise (179,676 us, 0.06%)</title><rect x="662.6" y="295" width="0.7" height="15.0" fill="rgb(0,0,0)" rx="2" ry="2" />
<text  x="665.60" y="305.5" ></text>
</g>
<g >
<title>Parloop_Cells_wrap_form0_cell_integral_otherwise (4,793,900 us, 1.63%)</title><rect x="24.1" y="167" width="19.2" height="15.0" fill="rgb(0,0,0)" rx="2" ry="2" />
<text  x="27.07" y="177.5" ></text>
</g>
<g >
<title>Log_Event_tensorshell_knl_111 (273,390 us, 0.09%)</title><rect x="644.9" y="311" width="1.1" height="15.0" fill="rgb(0,0,0)" rx="2" ry="2" />
<text  x="647.91" y="321.5" ></text>
</g>
<g >
<title>Log_Event_tensorshell_knl_73 (233,155 us, 0.08%)</title><rect x="659.8" y="311" width="0.9" height="15.0" fill="rgb(0,0,0)" rx="2" ry="2" />
<text  x="662.79" y="321.5" ></text>
</g>
<g >
<title>Log_Event_slate_loopy_knl_70 (288,687 us, 0.10%)</title><rect x="732.1" y="295" width="1.1" height="15.0" fill="rgb(0,0,0)" rx="2" ry="2" />
<text  x="735.08" y="305.5" ></text>
</g>
<g >
<title>SCBackSub (24,096,116 us, 8.17%)</title><rect x="65.1" y="135" width="96.4" height="15.0" fill="rgb(0,0,0)" rx="2" ry="2" />
<text  x="68.09" y="145.5" >SCBackSub</text>
</g>
<g >
<title>Log_Event_mtf_solve_123 (246,348 us, 0.08%)</title><rect x="685.8" y="327" width="1.0" height="15.0" fill="rgb(0,0,0)" rx="2" ry="2" />
<text  x="688.81" y="337.5" ></text>
</g>
<g >
<title>Log_Event_subkernel124_cell_to__cell_integral_otherwise (54,736 us, 0.02%)</title><rect x="686.1" y="343" width="0.3" height="15.0" fill="rgb(0,0,0)" rx="2" ry="2" />
<text  x="689.14" y="353.5" ></text>
</g>
<g >
<title>KSPSolve (289,977,365 us, 98.36%)</title><rect x="24.1" y="103" width="1160.6" height="15.0" fill="rgb(0,0,0)" rx="2" ry="2" />
<text  x="27.07" y="113.5" >KSPSolve</text>
</g>
<g >
<title>Log_Event_tensorshell_knl_121 (464,114 us, 0.16%)</title><rect x="685.8" y="311" width="1.9" height="15.0" fill="rgb(0,0,0)" rx="2" ry="2" />
<text  x="688.81" y="321.5" ></text>
</g>
<g >
<title>Log_Event_subkernel94_cell_to__cell_integral_otherwise (68,389 us, 0.02%)</title><rect x="664.9" y="295" width="0.3" height="15.0" fill="rgb(0,0,0)" rx="2" ry="2" />
<text  x="667.89" y="305.5" ></text>
</g>
<g >
<title>firedrake (294,815,438 us, 100.00%)</title><rect x="10.0" y="55" width="1180.0" height="15.0" fill="rgb(0,0,0)" rx="2" ry="2" />
<text  x="13.00" y="65.5" >firedrake</text>
</g>
<g >
<title>KSPSolve (10,828,915 us, 3.67%)</title><rect x="641.4" y="199" width="43.4" height="15.0" fill="rgb(0,0,0)" rx="2" ry="2" />
<text  x="644.41" y="209.5" >KSP..</text>
</g>
<g >
<title>Log_Event_tensorshell_knl_121 (3,297,106 us, 1.12%)</title><rect x="646.0" y="311" width="13.2" height="15.0" fill="rgb(0,0,0)" rx="2" ry="2" />
<text  x="649.01" y="321.5" ></text>
</g>
<g >
<title>Parloop_Cells_wrap_slate_loopy_knl_181 (14,266,172 us, 4.84%)</title><rect x="70.2" y="167" width="57.1" height="15.0" fill="rgb(0,0,0)" rx="2" ry="2" />
<text  x="73.17" y="177.5" >Parlo..</text>
</g>
<g >
<title>Log_Event_mtf_solve_72 (68,733 us, 0.02%)</title><rect x="687.7" y="295" width="0.2" height="15.0" fill="rgb(0,0,0)" rx="2" ry="2" />
<text  x="690.67" y="305.5" ></text>
</g>
<g >
<title>Log_Event_mtf_solve_72 (465,207 us, 0.16%)</title><rect x="659.8" y="295" width="1.9" height="15.0" fill="rgb(0,0,0)" rx="2" ry="2" />
<text  x="662.79" y="305.5" ></text>
</g>
<g >
<title>firedrake.mg.embedded.TransferManager.op (1,280,537 us, 0.43%)</title><rect x="665.4" y="279" width="5.1" height="15.0" fill="rgb(0,0,0)" rx="2" ry="2" />
<text  x="668.41" y="289.5" ></text>
</g>
<g >
<title>Log_Event_subkernel140_interior_facet_vert_to__exterior_facet_vert_integral_otherwise (132,589 us, 0.04%)</title><rect x="664.4" y="295" width="0.5" height="15.0" fill="rgb(0,0,0)" rx="2" ry="2" />
<text  x="667.36" y="305.5" ></text>
</g>
<g >
<title>Parloop_Cells_wrap_par_loop_kernel (1,415,699 us, 0.48%)</title><rect x="161.5" y="199" width="5.7" height="15.0" fill="rgb(0,0,0)" rx="2" ry="2" />
<text  x="164.54" y="209.5" ></text>
</g>
<g >
<title>Log_Event_subkernel129_cell_to__cell_integral_otherwise (101,290 us, 0.03%)</title><rect x="687.3" y="327" width="0.4" height="15.0" fill="rgb(0,0,0)" rx="2" ry="2" />
<text  x="690.26" y="337.5" ></text>
</g>
<g >
<title>firedrake.tsfc_interface.compile_form (20,310,576 us, 6.89%)</title><rect x="1070.8" y="263" width="81.3" height="15.0" fill="rgb(0,0,0)" rx="2" ry="2" />
<text  x="1073.77" y="273.5" >firedrak..</text>
</g>
<g >
<title>MGInterp Level (61,821 us, 0.02%; +0.02%)</title><rect x="665.2" y="247" width="0.2" height="15.0" fill="rgb(255,0,0)" rx="2" ry="2" />
<text  x="668.17" y="257.5" ></text>
</g>
<g >
<title>ParLoopExecute (769,583 us, 0.26%)</title><rect x="638.3" y="199" width="3.1" height="15.0" fill="rgb(0,0,0)" rx="2" ry="2" />
<text  x="641.33" y="209.5" ></text>
</g>
<g >
<title>Log_Event_slate_loopy_knl_70 (5,890,183 us, 2.00%)</title><rect x="641.6" y="279" width="23.6" height="15.0" fill="rgb(0,0,0)" rx="2" ry="2" />
<text  x="644.59" y="289.5" >L..</text>
</g>
<g >
<title>PCApply (11,627,243 us, 3.94%)</title><rect x="641.4" y="183" width="46.5" height="15.0" fill="rgb(0,0,0)" rx="2" ry="2" />
<text  x="644.41" y="193.5" >PCAp..</text>
</g>
<g >
<title>pyop2.global_kernel.GlobalKernel.compile (1,415,699 us, 0.48%)</title><rect x="161.5" y="215" width="5.7" height="15.0" fill="rgb(0,0,0)" rx="2" ry="2" />
<text  x="164.54" y="225.5" ></text>
</g>
<g >
<title>Log_Event_mtf_solve_85 (104,914 us, 0.04%)</title><rect x="660.7" y="327" width="0.4" height="15.0" fill="rgb(0,0,0)" rx="2" ry="2" />
<text  x="663.72" y="337.5" ></text>
</g>
<g >
<title>PCSetUp (1,323,951 us, 0.45%)</title><rect x="1184.7" y="103" width="5.3" height="15.0" fill="rgb(0,0,0)" rx="2" ry="2" />
<text  x="1187.70" y="113.5" ></text>
</g>
<g >
<title>SCSolve (136,508,020 us, 46.30%)</title><rect x="638.3" y="135" width="546.4" height="15.0" fill="rgb(0,0,0)" rx="2" ry="2" />
<text  x="641.33" y="145.5" >SCSolve</text>
</g>
<g >
<title>Log_Event_subkernel119_cell_to__cell_integral_otherwise (59,255 us, 0.02%)</title><rect x="645.8" y="327" width="0.2" height="15.0" fill="rgb(0,0,0)" rx="2" ry="2" />
<text  x="648.77" y="337.5" ></text>
</g>
<g >
<title>ParLoopExecute (7,430,558 us, 2.52%)</title><rect x="1153.6" y="167" width="29.7" height="15.0" fill="rgb(0,0,0)" rx="2" ry="2" />
<text  x="1156.59" y="177.5" >P..</text>
</g>
<g >
<title>KSPSolve (128,690,957 us, 43.65%)</title><rect x="638.3" y="151" width="515.1" height="15.0" fill="rgb(0,0,0)" rx="2" ry="2" />
<text  x="641.33" y="161.5" >KSPSolve</text>
</g>
<g >
<title>Log_Event_subkernel107_cell_to__cell_integral_otherwise (62,526 us, 0.02%)</title><rect x="644.7" y="311" width="0.2" height="15.0" fill="rgb(0,0,0)" rx="2" ry="2" />
<text  x="647.66" y="321.5" ></text>
</g>
<g >
<title>Log_Event_subkernel122_cell_to__cell_integral_otherwise (116,476 us, 0.04%)</title><rect x="686.8" y="327" width="0.5" height="15.0" fill="rgb(0,0,0)" rx="2" ry="2" />
<text  x="689.80" y="337.5" ></text>
</g>
<g >
<title>Log_Event_subkernel137_cell_to__cell_integral_otherwise (62,486 us, 0.02%)</title><rect x="659.5" y="311" width="0.3" height="15.0" fill="rgb(0,0,0)" rx="2" ry="2" />
<text  x="662.54" y="321.5" ></text>
</g>
<g >
<title>ParLoopExecute (5,890,183 us, 2.00%)</title><rect x="641.6" y="247" width="23.6" height="15.0" fill="rgb(0,0,0)" rx="2" ry="2" />
<text  x="644.59" y="257.5" >P..</text>
</g>
<g >
<title>Log_Event_subkernel122_cell_to__cell_integral_otherwise (815,556 us, 0.28%)</title><rect x="653.1" y="327" width="3.3" height="15.0" fill="rgb(0,0,0)" rx="2" ry="2" />
<text  x="656.11" y="337.5" ></text>
</g>
<g >
<title>pyop2.global_kernel.GlobalKernel.compile (4,793,900 us, 1.63%)</title><rect x="24.1" y="183" width="19.2" height="15.0" fill="rgb(0,0,0)" rx="2" ry="2" />
<text  x="27.07" y="193.5" ></text>
</g>
<g >
<title>Log_Event_subkernel127_cell_to__cell_integral_otherwise (104,872 us, 0.04%)</title><rect x="639.9" y="295" width="0.4" height="15.0" fill="rgb(0,0,0)" rx="2" ry="2" />
<text  x="642.89" y="305.5" ></text>
</g>
<g >
<title>pyop2.global_kernel.GlobalKernel.compile (79,382,594 us, 26.93%)</title><rect x="214.4" y="199" width="317.7" height="15.0" fill="rgb(0,0,0)" rx="2" ry="2" />
<text  x="217.40" y="209.5" >pyop2.global_kernel.GlobalKernel.compile</text>
</g>
<g >
<title>Log_Event_mtf_solve_103 (146,092 us, 0.05%)</title><rect x="644.3" y="295" width="0.6" height="15.0" fill="rgb(0,0,0)" rx="2" ry="2" />
<text  x="647.33" y="305.5" ></text>
</g>
<g >
<title>Log_Event_mtf_solve_123 (101,810 us, 0.03%)</title><rect x="732.6" y="343" width="0.4" height="15.0" fill="rgb(0,0,0)" rx="2" ry="2" />
<text  x="735.64" y="353.5" ></text>
</g>
<g >
<title>Log_Event_subkernel91_cell_to__cell_integral_otherwise (59,287 us, 0.02%)</title><rect x="661.4" y="327" width="0.3" height="15.0" fill="rgb(0,0,0)" rx="2" ry="2" />
<text  x="664.41" y="337.5" ></text>
</g>
<g >
<title>PCApply (4,892,726 us, 1.66%; 0.00%)</title><rect x="665.2" y="215" width="19.6" height="15.0" fill="rgb(255,255,255)" rx="2" ry="2" />
<text  x="668.17" y="225.5" ></text>
</g>
<g >
<title>firedrake.interpolation.make_interpolator (49,362 us, 0.02%)</title><rect x="1185.1" y="135" width="0.2" height="15.0" fill="rgb(0,0,0)" rx="2" ry="2" />
<text  x="1188.12" y="145.5" ></text>
</g>
<g >
<title>Parloop_Cells_wrap_slate_loopy_knl_70 (5,890,183 us, 2.00%)</title><rect x="641.6" y="263" width="23.6" height="15.0" fill="rgb(0,0,0)" rx="2" ry="2" />
<text  x="644.59" y="273.5" >P..</text>
</g>
<g >
<title>Log_Event_mtf_solve_95 (104,879 us, 0.04%)</title><rect x="661.7" y="295" width="0.4" height="15.0" fill="rgb(0,0,0)" rx="2" ry="2" />
<text  x="664.65" y="305.5" ></text>
</g>
<g >
<title>MatMult (798,328 us, 0.27%)</title><rect x="684.8" y="215" width="3.1" height="15.0" fill="rgb(0,0,0)" rx="2" ry="2" />
<text  x="687.75" y="225.5" ></text>
</g>
<g >
<title>Log_Event_mtf_solve_113 (146,264 us, 0.05%)</title><rect x="644.9" y="327" width="0.6" height="15.0" fill="rgb(0,0,0)" rx="2" ry="2" />
<text  x="647.91" y="337.5" ></text>
</g>
<g >
<title>Log_Event_subkernel127_cell_to__cell_integral_otherwise (45,312 us, 0.02%)</title><rect x="732.9" y="359" width="0.1" height="15.0" fill="rgb(0,0,0)" rx="2" ry="2" />
<text  x="735.86" y="369.5" ></text>
</g>
<g >
<title>firedrake.tsfc_interface.compile_form (26,483,160 us, 8.98%)</title><rect x="532.3" y="167" width="106.0" height="15.0" fill="rgb(0,0,0)" rx="2" ry="2" />
<text  x="535.33" y="177.5" >firedrake.t..</text>
</g>
<g >
<title>pyop2.global_kernel.GlobalKernel.compile (1,090,725 us, 0.37%)</title><rect x="674.3" y="375" width="4.4" height="15.0" fill="rgb(0,0,0)" rx="2" ry="2" />
<text  x="677.35" y="385.5" ></text>
</g>
<g >
<title>firedrake.tsfc_interface.compile_form (1,241,678 us, 0.42%)</title><rect x="60.1" y="151" width="5.0" height="15.0" fill="rgb(0,0,0)" rx="2" ry="2" />
<text  x="63.12" y="161.5" ></text>
</g>
<g >
<title>pyop2.global_kernel.GlobalKernel.compile (602,793 us, 0.20%)</title><rect x="671.9" y="343" width="2.4" height="15.0" fill="rgb(0,0,0)" rx="2" ry="2" />
<text  x="674.94" y="353.5" ></text>
</g>
<g >
<title>pyop2.global_kernel.GlobalKernel.compile (668,452 us, 0.23%)</title><rect x="680.4" y="311" width="2.7" height="15.0" fill="rgb(0,0,0)" rx="2" ry="2" />
<text  x="683.40" y="321.5" ></text>
</g>
<g >
<title>ParLoopExecute (79,382,594 us, 26.93%)</title><rect x="214.4" y="167" width="317.7" height="15.0" fill="rgb(0,0,0)" rx="2" ry="2" />
<text  x="217.40" y="177.5" >ParLoopExecute</text>
</g>
</g>
</svg>
