<?xml version="1.0" standalone="no"?>
<!DOCTYPE svg PUBLIC "-//W3C//DTD SVG 1.1//EN" "http://www.w3.org/Graphics/SVG/1.1/DTD/svg11.dtd">
<svg version="1.1" width="1200" height="283" onload="init(evt)" viewBox="0 0 1200 283" xmlns="http://www.w3.org/2000/svg" xmlns:xlink="http://www.w3.org/1999/xlink">
<!-- Flame graph stack visualization. See https://github.com/brendangregg/FlameGraph for latest version, and http://www.brendangregg.com/flamegraphs.html for examples. -->
<!-- NOTES:  -->
<defs>
	<linearGradient id="background" y1="0" y2="1" x1="0" x2="0" >
		<stop stop-color="#eeeeee" offset="5%" />
		<stop stop-color="#eeeeb0" offset="95%" />
	</linearGradient>
</defs>
<style type="text/css">
	text { font-family:Verdana; font-size:13px; fill:rgb(0,0,0); }
	#search, #ignorecase { opacity:0.1; cursor:pointer; }
	#search:hover, #search.show, #ignorecase:hover, #ignorecase.show { opacity:1; }
	#subtitle { text-anchor:middle; font-color:rgb(160,160,160); }
	#title { text-anchor:middle; font-size:18px}
	#unzoom { cursor:pointer; }
	#frames > *:hover { stroke:black; stroke-width:0.5; cursor:pointer; }
	.hide { display:none; }
	.parent { opacity:0.5; }
</style>
<script type="text/ecmascript">
<![CDATA[
	"use strict";
	var details, searchbtn, unzoombtn, matchedtxt, svg, searching, currentSearchTerm, ignorecase, ignorecaseBtn;
	function init(evt) {
		details = document.getElementById("details").firstChild;
		searchbtn = document.getElementById("search");
		ignorecaseBtn = document.getElementById("ignorecase");
		unzoombtn = document.getElementById("unzoom");
		matchedtxt = document.getElementById("matched");
		svg = document.getElementsByTagName("svg")[0];
		searching = 0;
		currentSearchTerm = null;

		// use GET parameters to restore a flamegraphs state.
		var params = get_params();
		if (params.x && params.y)
			zoom(find_group(document.querySelector('[x="' + params.x + '"][y="' + params.y + '"]')));
                if (params.s) search(params.s);
	}

	// event listeners
	window.addEventListener("click", function(e) {
		var target = find_group(e.target);
		if (target) {
			if (target.nodeName == "a") {
				if (e.ctrlKey === false) return;
				e.preventDefault();
			}
			if (target.classList.contains("parent")) unzoom();
			zoom(target);
			if (!document.querySelector('.parent')) {
				clearzoom();
				return;
			}

			// set parameters for zoom state
			var el = target.querySelector("rect");
			if (el && el.attributes && el.attributes.y && el.attributes._orig_x) {
				var params = get_params()
				params.x = el.attributes._orig_x.value;
				params.y = el.attributes.y.value;
				history.replaceState(null, null, parse_params(params));
			}
		}
		else if (e.target.id == "unzoom") clearzoom();
		else if (e.target.id == "search") search_prompt();
		else if (e.target.id == "ignorecase") toggle_ignorecase();
	}, false)

	// mouse-over for info
	// show
	window.addEventListener("mouseover", function(e) {
		var target = find_group(e.target);
		if (target) details.nodeValue = "Function: " + g_to_text(target);
	}, false)

	// clear
	window.addEventListener("mouseout", function(e) {
		var target = find_group(e.target);
		if (target) details.nodeValue = ' ';
	}, false)

	// ctrl-F for search
	// ctrl-I to toggle case-sensitive search
	window.addEventListener("keydown",function (e) {
		if (e.keyCode === 114 || (e.ctrlKey && e.keyCode === 70)) {
			e.preventDefault();
			search_prompt();
		}
		else if (e.ctrlKey && e.keyCode === 73) {
			e.preventDefault();
			toggle_ignorecase();
		}
	}, false)

	// functions
	function get_params() {
		var params = {};
		var paramsarr = window.location.search.substr(1).split('&');
		for (var i = 0; i < paramsarr.length; ++i) {
			var tmp = paramsarr[i].split("=");
			if (!tmp[0] || !tmp[1]) continue;
			params[tmp[0]]  = decodeURIComponent(tmp[1]);
		}
		return params;
	}
	function parse_params(params) {
		var uri = "?";
		for (var key in params) {
			uri += key + '=' + encodeURIComponent(params[key]) + '&';
		}
		if (uri.slice(-1) == "&")
			uri = uri.substring(0, uri.length - 1);
		if (uri == '?')
			uri = window.location.href.split('?')[0];
		return uri;
	}
	function find_child(node, selector) {
		var children = node.querySelectorAll(selector);
		if (children.length) return children[0];
	}
	function find_group(node) {
		var parent = node.parentElement;
		if (!parent) return;
		if (parent.id == "frames") return node;
		return find_group(parent);
	}
	function orig_save(e, attr, val) {
		if (e.attributes["_orig_" + attr] != undefined) return;
		if (e.attributes[attr] == undefined) return;
		if (val == undefined) val = e.attributes[attr].value;
		e.setAttribute("_orig_" + attr, val);
	}
	function orig_load(e, attr) {
		if (e.attributes["_orig_"+attr] == undefined) return;
		e.attributes[attr].value = e.attributes["_orig_" + attr].value;
		e.removeAttribute("_orig_"+attr);
	}
	function g_to_text(e) {
		var text = find_child(e, "title").firstChild.nodeValue;
		return (text)
	}
	function g_to_func(e) {
		var func = g_to_text(e);
		// if there's any manipulation we want to do to the function
		// name before it's searched, do it here before returning.
		return (func);
	}
	function update_text(e) {
		var r = find_child(e, "rect");
		var t = find_child(e, "text");
		var w = parseFloat(r.attributes.width.value) -3;
		var txt = find_child(e, "title").textContent.replace(/\([^(]*\)$/,"");
		t.attributes.x.value = parseFloat(r.attributes.x.value) + 3;

		// Smaller than this size won't fit anything
		if (w < 2 * 13 * 0.59) {
			t.textContent = "";
			return;
		}

		t.textContent = txt;
		// Fit in full text width
		if (/^ *$/.test(txt) || t.getSubStringLength(0, txt.length) < w)
			return;

		for (var x = txt.length - 2; x > 0; x--) {
			if (t.getSubStringLength(0, x + 2) <= w) {
				t.textContent = txt.substring(0, x) + "..";
				return;
			}
		}
		t.textContent = "";
	}

	// zoom
	function zoom_reset(e) {
		if (e.attributes != undefined) {
			orig_load(e, "x");
			orig_load(e, "width");
		}
		if (e.childNodes == undefined) return;
		for (var i = 0, c = e.childNodes; i < c.length; i++) {
			zoom_reset(c[i]);
		}
	}
	function zoom_child(e, x, ratio) {
		if (e.attributes != undefined) {
			if (e.attributes.x != undefined) {
				orig_save(e, "x");
				e.attributes.x.value = (parseFloat(e.attributes.x.value) - x - 10) * ratio + 10;
				if (e.tagName == "text")
					e.attributes.x.value = find_child(e.parentNode, "rect[x]").attributes.x.value + 3;
			}
			if (e.attributes.width != undefined) {
				orig_save(e, "width");
				e.attributes.width.value = parseFloat(e.attributes.width.value) * ratio;
			}
		}

		if (e.childNodes == undefined) return;
		for (var i = 0, c = e.childNodes; i < c.length; i++) {
			zoom_child(c[i], x - 10, ratio);
		}
	}
	function zoom_parent(e) {
		if (e.attributes) {
			if (e.attributes.x != undefined) {
				orig_save(e, "x");
				e.attributes.x.value = 10;
			}
			if (e.attributes.width != undefined) {
				orig_save(e, "width");
				e.attributes.width.value = parseInt(svg.width.baseVal.value) - (10 * 2);
			}
		}
		if (e.childNodes == undefined) return;
		for (var i = 0, c = e.childNodes; i < c.length; i++) {
			zoom_parent(c[i]);
		}
	}
	function zoom(node) {
		var attr = find_child(node, "rect").attributes;
		var width = parseFloat(attr.width.value);
		var xmin = parseFloat(attr.x.value);
		var xmax = parseFloat(xmin + width);
		var ymin = parseFloat(attr.y.value);
		var ratio = (svg.width.baseVal.value - 2 * 10) / width;

		// XXX: Workaround for JavaScript float issues (fix me)
		var fudge = 0.0001;

		unzoombtn.classList.remove("hide");

		var el = document.getElementById("frames").children;
		for (var i = 0; i < el.length; i++) {
			var e = el[i];
			var a = find_child(e, "rect").attributes;
			var ex = parseFloat(a.x.value);
			var ew = parseFloat(a.width.value);
			var upstack;
			// Is it an ancestor
			if (1 == 0) {
				upstack = parseFloat(a.y.value) > ymin;
			} else {
				upstack = parseFloat(a.y.value) < ymin;
			}
			if (upstack) {
				// Direct ancestor
				if (ex <= xmin && (ex+ew+fudge) >= xmax) {
					e.classList.add("parent");
					zoom_parent(e);
					update_text(e);
				}
				// not in current path
				else
					e.classList.add("hide");
			}
			// Children maybe
			else {
				// no common path
				if (ex < xmin || ex + fudge >= xmax) {
					e.classList.add("hide");
				}
				else {
					zoom_child(e, xmin, ratio);
					update_text(e);
				}
			}
		}
		search();
	}
	function unzoom() {
		unzoombtn.classList.add("hide");
		var el = document.getElementById("frames").children;
		for(var i = 0; i < el.length; i++) {
			el[i].classList.remove("parent");
			el[i].classList.remove("hide");
			zoom_reset(el[i]);
			update_text(el[i]);
		}
		search();
	}
	function clearzoom() {
		unzoom();

		// remove zoom state
		var params = get_params();
		if (params.x) delete params.x;
		if (params.y) delete params.y;
		history.replaceState(null, null, parse_params(params));
	}

	// search
	function toggle_ignorecase() {
		ignorecase = !ignorecase;
		if (ignorecase) {
			ignorecaseBtn.classList.add("show");
		} else {
			ignorecaseBtn.classList.remove("show");
		}
		reset_search();
		search();
	}
	function reset_search() {
		var el = document.querySelectorAll("#frames rect");
		for (var i = 0; i < el.length; i++) {
			orig_load(el[i], "fill")
		}
		var params = get_params();
		delete params.s;
		history.replaceState(null, null, parse_params(params));
	}
	function search_prompt() {
		if (!searching) {
			var term = prompt("Enter a search term (regexp " +
			    "allowed, eg: ^ext4_)"
			    + (ignorecase ? ", ignoring case" : "")
			    + "\nPress Ctrl-i to toggle case sensitivity", "");
			if (term != null) search(term);
		} else {
			reset_search();
			searching = 0;
			currentSearchTerm = null;
			searchbtn.classList.remove("show");
			searchbtn.firstChild.nodeValue = "Search"
			matchedtxt.classList.add("hide");
			matchedtxt.firstChild.nodeValue = ""
		}
	}
	function search(term) {
		if (term) currentSearchTerm = term;

		var re = new RegExp(currentSearchTerm, ignorecase ? 'i' : '');
		var el = document.getElementById("frames").children;
		var matches = new Object();
		var maxwidth = 0;
		for (var i = 0; i < el.length; i++) {
			var e = el[i];
			var func = g_to_func(e);
			var rect = find_child(e, "rect");
			if (func == null || rect == null)
				continue;

			// Save max width. Only works as we have a root frame
			var w = parseFloat(rect.attributes.width.value);
			if (w > maxwidth)
				maxwidth = w;

			if (func.match(re)) {
				// highlight
				var x = parseFloat(rect.attributes.x.value);
				orig_save(rect, "fill");
				rect.attributes.fill.value = "rgb(230,0,230)";

				// remember matches
				if (matches[x] == undefined) {
					matches[x] = w;
				} else {
					if (w > matches[x]) {
						// overwrite with parent
						matches[x] = w;
					}
				}
				searching = 1;
			}
		}
		if (!searching)
			return;
		var params = get_params();
		params.s = currentSearchTerm;
		history.replaceState(null, null, parse_params(params));

		searchbtn.classList.add("show");
		searchbtn.firstChild.nodeValue = "Reset Search";

		// calculate percent matched, excluding vertical overlap
		var count = 0;
		var lastx = -1;
		var lastw = 0;
		var keys = Array();
		for (k in matches) {
			if (matches.hasOwnProperty(k))
				keys.push(k);
		}
		// sort the matched frames by their x location
		// ascending, then width descending
		keys.sort(function(a, b){
			return a - b;
		});
		// Step through frames saving only the biggest bottom-up frames
		// thanks to the sort order. This relies on the tree property
		// where children are always smaller than their parents.
		var fudge = 0.0001;	// JavaScript floating point
		for (var k in keys) {
			var x = parseFloat(keys[k]);
			var w = matches[keys[k]];
			if (x >= lastx + lastw - fudge) {
				count += w;
				lastx = x;
				lastw = w;
			}
		}
		// display matched percent
		matchedtxt.classList.remove("hide");
		var pct = 100 * count / maxwidth;
		if (pct != 100) pct = pct.toFixed(1)
		matchedtxt.firstChild.nodeValue = "Matched: " + pct + "%";
	}
]]>
</script>
<rect x="0.0" y="0" width="1200.0" height="283.0" fill="url(#background)"  />
<text id="title" x="600.00" y="26" >Firedrake example</text>
<text id="details" x="10.00" y="265" > </text>
<text id="unzoom" x="10.00" y="26" class="hide">Reset Zoom</text>
<text id="search" x="1090.00" y="26" >Search</text>
<text id="ignorecase" x="1174.00" y="26" >ic</text>
<text id="matched" x="1090.00" y="265" > </text>
<g id="frames">
<g >
<title>HybridProject (43,821 us, 0.77%)</title><rect x="579.2" y="151" width="9.1" height="15.0" fill="rgb(0,0,0)" rx="2" ry="2" />
<text  x="582.25" y="161.5" ></text>
</g>
<g >
<title>FunctionSpaceData: CreateElement (729 us, 0.01%)</title><rect x="205.5" y="167" width="0.1" height="15.0" fill="rgb(0,0,0)" rx="2" ry="2" />
<text  x="208.47" y="177.5" ></text>
</g>
<g >
<title>firedrake.extrusion_utils.make_extruded_coords (67,944 us, 1.19%)</title><rect x="190.2" y="87" width="14.1" height="15.0" fill="rgb(0,0,0)" rx="2" ry="2" />
<text  x="193.19" y="97.5" ></text>
</g>
<g >
<title>firedrake.formmanipulation.ExtractSubBlock.split (2,798 us, 0.05%)</title><rect x="1189.4" y="151" width="0.6" height="15.0" fill="rgb(0,0,0)" rx="2" ry="2" />
<text  x="1192.42" y="161.5" ></text>
</g>
<g >
<title>firedrake.functionspace.make_scalar_element (1,741 us, 0.03%)</title><rect x="1150.2" y="199" width="0.4" height="15.0" fill="rgb(0,0,0)" rx="2" ry="2" />
<text  x="1153.25" y="209.5" ></text>
</g>
<g >
<title>firedrake.parloops.par_loop (43,974 us, 0.77%)</title><rect x="739.5" y="167" width="9.2" height="15.0" fill="rgb(0,0,0)" rx="2" ry="2" />
<text  x="742.54" y="177.5" ></text>
</g>
<g >
<title>Log_Event_inits_wrap_slate_loopy_knl_14 (2,754 us, 0.05%)</title><rect x="590.3" y="183" width="0.6" height="15.0" fill="rgb(0,0,0)" rx="2" ry="2" />
<text  x="593.30" y="193.5" ></text>
</g>
<g >
<title>PCApply (1,917,293 us, 33.70%)</title><rect x="535.9" y="119" width="397.7" height="15.0" fill="rgb(0,0,0)" rx="2" ry="2" />
<text  x="538.95" y="129.5" >PCApply</text>
</g>
<g >
<title>pyop2.global_kernel.GlobalKernel.compile (36,766 us, 0.65%)</title><rect x="196.7" y="135" width="7.6" height="15.0" fill="rgb(0,0,0)" rx="2" ry="2" />
<text  x="199.66" y="145.5" ></text>
</g>
<g >
<title>CreateFunctionSpace (6,477 us, 0.11%)</title><rect x="204.3" y="103" width="1.3" height="15.0" fill="rgb(0,0,0)" rx="2" ry="2" />
<text  x="207.28" y="113.5" ></text>
</g>
<g >
<title>Log_Event_subkernel13_interior_facet_vert_to__exterior_facet_vert_integral_otherwise (59,800 us, 1.05%)</title><rect x="715.9" y="199" width="12.4" height="15.0" fill="rgb(0,0,0)" rx="2" ry="2" />
<text  x="718.90" y="209.5" ></text>
</g>
<g >
<title>pyop2.global_kernel.GlobalKernel.compile (37,156 us, 0.65%)</title><rect x="809.4" y="199" width="7.8" height="15.0" fill="rgb(0,0,0)" rx="2" ry="2" />
<text  x="812.45" y="209.5" ></text>
</g>
<g >
<title>firedrake.mesh.make_mesh_from_coordinates (633 us, 0.01%)</title><rect x="205.8" y="87" width="0.1" height="15.0" fill="rgb(0,0,0)" rx="2" ry="2" />
<text  x="208.78" y="97.5" ></text>
</g>
<g >
<title>ParLoopExecute (669,907 us, 11.78%)</title><rect x="980.5" y="151" width="139.0" height="15.0" fill="rgb(0,0,0)" rx="2" ry="2" />
<text  x="983.53" y="161.5" >ParLoopExecute</text>
</g>
<g >
<title>firedrake.interpolation.make_interpolator (24,692 us, 0.43%)</title><rect x="1151.7" y="135" width="5.1" height="15.0" fill="rgb(0,0,0)" rx="2" ry="2" />
<text  x="1154.69" y="145.5" ></text>
</g>
<g >
<title>firedrake.functionspacedata.get_shared_data (8,430 us, 0.15%)</title><rect x="938.0" y="167" width="1.8" height="15.0" fill="rgb(0,0,0)" rx="2" ry="2" />
<text  x="941.03" y="177.5" ></text>
</g>
<g >
<title>Log_Event_subkernel17_interior_facet_horiz_bottom_to__exterior_facet_bottom_integral_otherwise (6,070 us, 0.11%)</title><rect x="608.0" y="183" width="1.3" height="15.0" fill="rgb(0,0,0)" rx="2" ry="2" />
<text  x="611.03" y="193.5" ></text>
</g>
<g >
<title>Parloop_Cells_wrap_form0_cell_integral_otherwise (42,747 us, 0.75%)</title><rect x="1166.2" y="135" width="8.9" height="15.0" fill="rgb(0,0,0)" rx="2" ry="2" />
<text  x="1169.23" y="145.5" ></text>
</g>
<g >
<title>firedrake.functionspaceimpl.WithGeometry.split (823 us, 0.01%)</title><rect x="1151.3" y="183" width="0.2" height="15.0" fill="rgb(0,0,0)" rx="2" ry="2" />
<text  x="1154.29" y="193.5" ></text>
</g>
<g >
<title>SNESSolve (3,154,197 us, 55.44%)</title><rect x="535.8" y="87" width="654.2" height="15.0" fill="rgb(0,0,0)" rx="2" ry="2" />
<text  x="538.76" y="97.5" >SNESSolve</text>
</g>
<g >
<title>SCForwardElim (375,023 us, 6.59%)</title><rect x="739.4" y="135" width="77.8" height="15.0" fill="rgb(0,0,0)" rx="2" ry="2" />
<text  x="742.37" y="145.5" >SCForwar..</text>
</g>
<g >
<title>Log_Event_subkernel17_interior_facet_vert_to__exterior_facet_vert_integral_otherwise (59,939 us, 1.05%)</title><rect x="610.6" y="183" width="12.4" height="15.0" fill="rgb(0,0,0)" rx="2" ry="2" />
<text  x="613.61" y="193.5" ></text>
</g>
<g >
<title>Log_Event_subkernel16_cell_to__cell_integral_otherwise (12,635 us, 0.22%)</title><rect x="605.4" y="183" width="2.6" height="15.0" fill="rgb(0,0,0)" rx="2" ry="2" />
<text  x="608.41" y="193.5" ></text>
</g>
<g >
<title>Log_Event_subkernel3_interior_facet_horiz_bottom_to__exterior_facet_bottom_integral_otherwise (4,477 us, 0.08%)</title><rect x="1099.4" y="183" width="0.9" height="15.0" fill="rgb(0,0,0)" rx="2" ry="2" />
<text  x="1102.36" y="193.5" ></text>
</g>
<g >
<title>Log_Event_inits_wrap_slate_loopy_knl_0 (4,647 us, 0.08%)</title><rect x="989.1" y="183" width="1.0" height="15.0" fill="rgb(0,0,0)" rx="2" ry="2" />
<text  x="992.11" y="193.5" ></text>
</g>
<g >
<title>firedrake.functionspacedata.FunctionSpaceData.__init__ (22,820 us, 0.40%)</title><rect x="206.4" y="119" width="4.7" height="15.0" fill="rgb(0,0,0)" rx="2" ry="2" />
<text  x="209.39" y="129.5" ></text>
</g>
<g >
<title>ParLoopExecute (77,643 us, 1.36%)</title><rect x="1166.2" y="119" width="16.1" height="15.0" fill="rgb(0,0,0)" rx="2" ry="2" />
<text  x="1169.23" y="129.5" ></text>
</g>
<g >
<title>solve_getrf (88,536 us, 1.56%)</title><rect x="685.4" y="215" width="18.3" height="15.0" fill="rgb(0,0,0)" rx="2" ry="2" />
<text  x="688.36" y="225.5" ></text>
</g>
<g >
<title>pyop2.global_kernel.GlobalKernel.compile (38,334 us, 0.67%)</title><rect x="1167.1" y="151" width="8.0" height="15.0" fill="rgb(0,0,0)" rx="2" ry="2" />
<text  x="1170.15" y="161.5" ></text>
</g>
<g >
<title>CreateMesh (1,709 us, 0.03%)</title><rect x="211.1" y="71" width="0.4" height="15.0" fill="rgb(0,0,0)" rx="2" ry="2" />
<text  x="214.12" y="81.5" ></text>
</g>
<g >
<title>MatSolve (13,421 us, 0.24%)</title><rect x="817.8" y="183" width="2.8" height="15.0" fill="rgb(0,0,0)" rx="2" ry="2" />
<text  x="820.77" y="193.5" ></text>
</g>
<g >
<title>solve_memcpy (5,413 us, 0.10%)</title><rect x="705.2" y="215" width="1.1" height="15.0" fill="rgb(0,0,0)" rx="2" ry="2" />
<text  x="708.17" y="225.5" ></text>
</g>
<g >
<title>firedrake.functionspaceimpl.FunctionSpace.local_to_global_map (863 us, 0.02%)</title><rect x="1119.5" y="151" width="0.2" height="15.0" fill="rgb(0,0,0)" rx="2" ry="2" />
<text  x="1122.48" y="161.5" ></text>
</g>
<g >
<title>CreateFunctionSpace (1,602 us, 0.03%)</title><rect x="937.7" y="167" width="0.3" height="15.0" fill="rgb(0,0,0)" rx="2" ry="2" />
<text  x="940.70" y="177.5" ></text>
</g>
<g >
<title>firedrake.tsfc_interface.compile_form (36,942 us, 0.65%)</title><rect x="1182.3" y="119" width="7.7" height="15.0" fill="rgb(0,0,0)" rx="2" ry="2" />
<text  x="1185.34" y="129.5" ></text>
</g>
<g >
<title>SCSolve (561,554 us, 9.87%)</title><rect x="817.2" y="135" width="116.4" height="15.0" fill="rgb(0,0,0)" rx="2" ry="2" />
<text  x="820.15" y="145.5" >SCSolve</text>
</g>
<g >
<title>RecoverFirstElim (520,705 us, 9.15%)</title><rect x="631.4" y="151" width="108.0" height="15.0" fill="rgb(0,0,0)" rx="2" ry="2" />
<text  x="634.36" y="161.5" >RecoverFirst..</text>
</g>
<g >
<title>MatZeroInitial (36,482 us, 0.64%)</title><rect x="1141.1" y="151" width="7.6" height="15.0" fill="rgb(0,0,0)" rx="2" ry="2" />
<text  x="1144.12" y="161.5" ></text>
</g>
<g >
<title>HybridInit (1,117,346 us, 19.64%)</title><rect x="933.6" y="119" width="231.8" height="15.0" fill="rgb(0,0,0)" rx="2" ry="2" />
<text  x="936.63" y="129.5" >HybridInit</text>
</g>
<g >
<title>CreateFunctionSpace (11,361 us, 0.20%)</title><rect x="937.4" y="135" width="2.4" height="15.0" fill="rgb(0,0,0)" rx="2" ry="2" />
<text  x="940.42" y="145.5" ></text>
</g>
<g >
<title>Log_Event_subkernel5_interior_facet_horiz_bottom_to__exterior_facet_bottom_integral_otherwise (4,592 us, 0.08%)</title><rect x="781.3" y="199" width="1.0" height="15.0" fill="rgb(0,0,0)" rx="2" ry="2" />
<text  x="784.35" y="209.5" ></text>
</g>
<g >
<title>solve_getrs (3,163 us, 0.06%)</title><rect x="599.8" y="199" width="0.7" height="15.0" fill="rgb(0,0,0)" rx="2" ry="2" />
<text  x="602.84" y="209.5" ></text>
</g>
<g >
<title>all (5,688,979 us, 100%)</title><rect x="10.0" y="39" width="1180.0" height="15.0" fill="rgb(0,0,0)" rx="2" ry="2" />
<text  x="13.00" y="49.5" ></text>
</g>
<g >
<title>MatMult (2,984 us, 0.05%)</title><rect x="817.2" y="167" width="0.6" height="15.0" fill="rgb(0,0,0)" rx="2" ry="2" />
<text  x="820.15" y="177.5" ></text>
</g>
<g >
<title>inv_getri (81,751 us, 1.44%)</title><rect x="667.8" y="215" width="17.0" height="15.0" fill="rgb(0,0,0)" rx="2" ry="2" />
<text  x="670.81" y="225.5" ></text>
</g>
<g >
<title>Parloop_Cells_wrap_form1_cell_integral_otherwise (34,896 us, 0.61%)</title><rect x="1175.1" y="135" width="7.2" height="15.0" fill="rgb(0,0,0)" rx="2" ry="2" />
<text  x="1178.10" y="145.5" ></text>
</g>
<g >
<title>firedrake.ufl_expr.adjoint (10,512 us, 0.18%)</title><rect x="531.1" y="103" width="2.2" height="15.0" fill="rgb(0,0,0)" rx="2" ry="2" />
<text  x="534.09" y="113.5" ></text>
</g>
<g >
<title>PCSetUp (1,117,346 us, 19.64%)</title><rect x="933.6" y="103" width="231.8" height="15.0" fill="rgb(0,0,0)" rx="2" ry="2" />
<text  x="936.63" y="113.5" >PCSetUp</text>
</g>
<g >
<title>firedrake.ufl_expr.action (5,163 us, 0.09%)</title><rect x="530.0" y="87" width="1.1" height="15.0" fill="rgb(0,0,0)" rx="2" ry="2" />
<text  x="533.02" y="97.5" ></text>
</g>
<g >
<title>Log_Event_subkernel11_cell_to__cell_integral_otherwise (12,602 us, 0.22%)</title><rect x="710.6" y="199" width="2.6" height="15.0" fill="rgb(0,0,0)" rx="2" ry="2" />
<text  x="713.56" y="209.5" ></text>
</g>
<g >
<title>SNESFunctionEval (118,658 us, 2.09%)</title><rect x="1165.4" y="103" width="24.6" height="15.0" fill="rgb(0,0,0)" rx="2" ry="2" />
<text  x="1168.39" y="113.5" >S..</text>
</g>
<g >
<title>ParLoopExecute (269,699 us, 4.74%)</title><rect x="761.2" y="167" width="56.0" height="15.0" fill="rgb(0,0,0)" rx="2" ry="2" />
<text  x="764.21" y="177.5" >ParLo..</text>
</g>
<g >
<title>firedrake.parloops.par_loop (43,821 us, 0.77%)</title><rect x="579.2" y="167" width="9.1" height="15.0" fill="rgb(0,0,0)" rx="2" ry="2" />
<text  x="582.25" y="177.5" ></text>
</g>
<g >
<title>inv_getrf (41,542 us, 0.73%)</title><rect x="659.2" y="215" width="8.6" height="15.0" fill="rgb(0,0,0)" rx="2" ry="2" />
<text  x="662.20" y="225.5" ></text>
</g>
<g >
<title>firedrake.functionspace.make_scalar_element (758 us, 0.01%)</title><rect x="206.1" y="87" width="0.1" height="15.0" fill="rgb(0,0,0)" rx="2" ry="2" />
<text  x="209.06" y="97.5" ></text>
</g>
<g >
<title>Mesh: numbering (733 us, 0.01%)</title><rect x="211.3" y="87" width="0.2" height="15.0" fill="rgb(0,0,0)" rx="2" ry="2" />
<text  x="214.33" y="97.5" ></text>
</g>
<g >
<title>firedrake.functionspacedata.FunctionSpaceData.__init__ (8,430 us, 0.15%)</title><rect x="938.0" y="183" width="1.8" height="15.0" fill="rgb(0,0,0)" rx="2" ry="2" />
<text  x="941.03" y="193.5" ></text>
</g>
<g >
<title>firedrake.functionspaceimpl.FunctionSpace.__init__ (23,666 us, 0.42%)</title><rect x="206.2" y="87" width="4.9" height="15.0" fill="rgb(0,0,0)" rx="2" ry="2" />
<text  x="209.21" y="97.5" ></text>
</g>
<g >
<title>Log_Event_slate_loopy_knl_7 (259,434 us, 4.56%)</title><rect x="652.5" y="199" width="53.8" height="15.0" fill="rgb(0,0,0)" rx="2" ry="2" />
<text  x="655.48" y="209.5" >Log_E..</text>
</g>
<g >
<title>firedrake.functionspacedata.get_shared_data (22,820 us, 0.40%)</title><rect x="206.4" y="103" width="4.7" height="15.0" fill="rgb(0,0,0)" rx="2" ry="2" />
<text  x="209.39" y="113.5" ></text>
</g>
<g >
<title>firedrake.functionspaceimpl.FunctionSpace.__init__ (8,430 us, 0.15%)</title><rect x="938.0" y="151" width="1.8" height="15.0" fill="rgb(0,0,0)" rx="2" ry="2" />
<text  x="941.03" y="161.5" ></text>
</g>
<g >
<title>firedrake.formmanipulation.split_form (5,668 us, 0.10%)</title><rect x="1188.8" y="135" width="1.2" height="15.0" fill="rgb(0,0,0)" rx="2" ry="2" />
<text  x="1191.82" y="145.5" ></text>
</g>
<g >
<title>KSPSolve (16,405 us, 0.29%)</title><rect x="817.2" y="151" width="3.4" height="15.0" fill="rgb(0,0,0)" rx="2" ry="2" />
<text  x="820.15" y="161.5" ></text>
</g>
<g >
<title>Log_Event_subkernel5_interior_facet_horiz_top_to__exterior_facet_top_integral_otherwise (4,805 us, 0.08%)</title><rect x="782.3" y="199" width="1.0" height="15.0" fill="rgb(0,0,0)" rx="2" ry="2" />
<text  x="785.30" y="209.5" ></text>
</g>
<g >
<title>Parloop_Cells_wrap_wrap_slate_loopy_knl_4 (269,699 us, 4.74%)</title><rect x="761.2" y="183" width="56.0" height="15.0" fill="rgb(0,0,0)" rx="2" ry="2" />
<text  x="764.21" y="193.5" >Parlo..</text>
</g>
<g >
<title>Log_Event_inits_wrap_slate_loopy_knl_7 (3,330 us, 0.06%)</title><rect x="651.8" y="199" width="0.7" height="15.0" fill="rgb(0,0,0)" rx="2" ry="2" />
<text  x="654.79" y="209.5" ></text>
</g>
<g >
<title>Parloop_Cells_wrap_par_loop_kernel (37,440 us, 0.66%)</title><rect x="580.6" y="199" width="7.7" height="15.0" fill="rgb(0,0,0)" rx="2" ry="2" />
<text  x="583.57" y="209.5" ></text>
</g>
<g >
<title>Log_Event_subkernel3_interior_facet_vert_to__exterior_facet_vert_integral_otherwise (49,273 us, 0.87%)</title><rect x="1101.3" y="183" width="10.2" height="15.0" fill="rgb(0,0,0)" rx="2" ry="2" />
<text  x="1104.27" y="193.5" ></text>
</g>
<g >
<title>firedrake.variational_solver.NonlinearVariationalSolver.solve (3,155,713 us, 55.47%)</title><rect x="535.4" y="71" width="654.6" height="15.0" fill="rgb(0,0,0)" rx="2" ry="2" />
<text  x="538.45" y="81.5" >firedrake.variational_solver.NonlinearVariationalSolver.solve</text>
</g>
<g >
<title>Log_Event_subkernel1_interior_facet_horiz_bottom_to__exterior_facet_bottom_integral_otherwise (4,890 us, 0.09%)</title><rect x="1071.1" y="183" width="1.0" height="15.0" fill="rgb(0,0,0)" rx="2" ry="2" />
<text  x="1074.09" y="193.5" ></text>
</g>
<g >
<title>inv_memcpy (2,831 us, 0.05%)</title><rect x="684.8" y="215" width="0.6" height="15.0" fill="rgb(0,0,0)" rx="2" ry="2" />
<text  x="687.77" y="225.5" ></text>
</g>
<g >
<title>PCSetUp (545,149 us, 9.58%)</title><rect x="820.6" y="151" width="113.0" height="15.0" fill="rgb(0,0,0)" rx="2" ry="2" />
<text  x="823.56" y="161.5" >PCSetUp</text>
</g>
<g >
<title>pyop2.global_kernel.GlobalKernel.compile (40,914 us, 0.72%)</title><rect x="730.9" y="199" width="8.5" height="15.0" fill="rgb(0,0,0)" rx="2" ry="2" />
<text  x="733.88" y="209.5" ></text>
</g>
<g >
<title>inv_getri (187,133 us, 3.29%)</title><rect x="1031.4" y="199" width="38.8" height="15.0" fill="rgb(0,0,0)" rx="2" ry="2" />
<text  x="1034.37" y="209.5" >inv..</text>
</g>
<g >
<title>PCApply (13,421 us, 0.24%)</title><rect x="817.8" y="167" width="2.8" height="15.0" fill="rgb(0,0,0)" rx="2" ry="2" />
<text  x="820.77" y="177.5" ></text>
</g>
<g >
<title>Log_Event_slate_loopy_knl_4 (85,075 us, 1.50%)</title><rect x="763.7" y="199" width="17.6" height="15.0" fill="rgb(0,0,0)" rx="2" ry="2" />
<text  x="766.70" y="209.5" ></text>
</g>
<g >
<title>firedrake.variational_solver.NonlinearVariationalProblem.__init__ (11,552 us, 0.20%)</title><rect x="531.1" y="87" width="2.4" height="15.0" fill="rgb(0,0,0)" rx="2" ry="2" />
<text  x="534.09" y="97.5" ></text>
</g>
<g >
<title>firedrake.formmanipulation.ExtractSubBlock.split (13,357 us, 0.23%)</title><rect x="1148.7" y="151" width="2.8" height="15.0" fill="rgb(0,0,0)" rx="2" ry="2" />
<text  x="1151.69" y="161.5" ></text>
</g>
<g >
<title>HybridRHS (330,190 us, 5.80%)</title><rect x="748.7" y="151" width="68.5" height="15.0" fill="rgb(0,0,0)" rx="2" ry="2" />
<text  x="751.67" y="161.5" >Hybrid..</text>
</g>
<g >
<title>ParLoopExecute (431,816 us, 7.59%)</title><rect x="649.8" y="167" width="89.6" height="15.0" fill="rgb(0,0,0)" rx="2" ry="2" />
<text  x="652.80" y="177.5" >ParLoopEx..</text>
</g>
<g >
<title>firedrake.functionspacedata.get_shared_data (6,477 us, 0.11%)</title><rect x="204.3" y="135" width="1.3" height="15.0" fill="rgb(0,0,0)" rx="2" ry="2" />
<text  x="207.28" y="145.5" ></text>
</g>
<g >
<title>firedrake.functionspace.MixedFunctionSpace (1,306 us, 0.02%)</title><rect x="529.4" y="71" width="0.3" height="15.0" fill="rgb(0,0,0)" rx="2" ry="2" />
<text  x="532.39" y="81.5" ></text>
</g>
<g >
<title>CreateFunctionSpace (7,016 us, 0.12%)</title><rect x="1149.8" y="183" width="1.5" height="15.0" fill="rgb(0,0,0)" rx="2" ry="2" />
<text  x="1152.83" y="193.5" ></text>
</g>
<g >
<title>firedrake.variational_solver.LinearVariationalProblem.__init__ (16,715 us, 0.29%)</title><rect x="530.0" y="71" width="3.5" height="15.0" fill="rgb(0,0,0)" rx="2" ry="2" />
<text  x="533.02" y="81.5" ></text>
</g>
<g >
<title>HybridBreak (44,833 us, 0.79%)</title><rect x="739.4" y="151" width="9.3" height="15.0" fill="rgb(0,0,0)" rx="2" ry="2" />
<text  x="742.37" y="161.5" ></text>
</g>
<g >
<title>solve_getrf (41,825 us, 0.74%)</title><rect x="591.2" y="199" width="8.6" height="15.0" fill="rgb(0,0,0)" rx="2" ry="2" />
<text  x="594.17" y="209.5" ></text>
</g>
<g >
<title>firedrake.mesh.ExtrudedMeshTopology.__init__ (731 us, 0.01%)</title><rect x="205.6" y="87" width="0.2" height="15.0" fill="rgb(0,0,0)" rx="2" ry="2" />
<text  x="208.63" y="97.5" ></text>
</g>
<g >
<title>firedrake.__init__ (1,532,036 us, 26.93%)</title><rect x="211.6" y="71" width="317.8" height="15.0" fill="rgb(0,0,0)" rx="2" ry="2" />
<text  x="214.61" y="81.5" >firedrake.__init__</text>
</g>
<g >
<title>ParLoopExecute (33,479 us, 0.59%)</title><rect x="1158.0" y="151" width="6.9" height="15.0" fill="rgb(0,0,0)" rx="2" ry="2" />
<text  x="1160.98" y="161.5" ></text>
</g>
<g >
<title>firedrake.utility_meshes.SquareMesh (1,762 us, 0.03%)</title><rect x="529.7" y="71" width="0.3" height="15.0" fill="rgb(0,0,0)" rx="2" ry="2" />
<text  x="532.66" y="81.5" ></text>
</g>
<g >
<title>firedrake.functionspace.VectorFunctionSpace (6,477 us, 0.11%)</title><rect x="204.3" y="87" width="1.3" height="15.0" fill="rgb(0,0,0)" rx="2" ry="2" />
<text  x="207.28" y="97.5" ></text>
</g>
<g >
<title>firedrake.mesh._Facets.__init__ (813 us, 0.01%)</title><rect x="211.0" y="151" width="0.1" height="15.0" fill="rgb(0,0,0)" rx="2" ry="2" />
<text  x="213.95" y="161.5" ></text>
</g>
<g >
<title>Log_Event_subkernel6_cell_to__cell_integral_otherwise (50,563 us, 0.89%)</title><rect x="799.0" y="199" width="10.4" height="15.0" fill="rgb(0,0,0)" rx="2" ry="2" />
<text  x="801.96" y="209.5" ></text>
</g>
<g >
<title>ParLoopExecute (36,979 us, 0.65%)</title><rect x="741.0" y="183" width="7.7" height="15.0" fill="rgb(0,0,0)" rx="2" ry="2" />
<text  x="744.00" y="193.5" ></text>
</g>
<g >
<title>Log_Event_subkernel13_interior_facet_horiz_bottom_to__exterior_facet_bottom_integral_otherwise (6,431 us, 0.11%)</title><rect x="713.2" y="199" width="1.3" height="15.0" fill="rgb(0,0,0)" rx="2" ry="2" />
<text  x="716.18" y="209.5" ></text>
</g>
<g >
<title>pyop2.global_kernel.GlobalKernel.compile (32,122 us, 0.56%)</title><rect x="1175.7" y="151" width="6.6" height="15.0" fill="rgb(0,0,0)" rx="2" ry="2" />
<text  x="1178.67" y="161.5" ></text>
</g>
<g >
<title>SCBackSub (980,716 us, 17.24%)</title><rect x="535.9" y="135" width="203.5" height="15.0" fill="rgb(0,0,0)" rx="2" ry="2" />
<text  x="538.95" y="145.5" >SCBackSub</text>
</g>
<g >
<title>firedrake.formmanipulation.ExtractSubBlock.argument (644 us, 0.01%)</title><rect x="1189.9" y="167" width="0.1" height="15.0" fill="rgb(0,0,0)" rx="2" ry="2" />
<text  x="1192.87" y="177.5" ></text>
</g>
<g >
<title>Log_Event_slate_loopy_knl_0 (390,595 us, 6.87%)</title><rect x="990.1" y="183" width="81.0" height="15.0" fill="rgb(0,0,0)" rx="2" ry="2" />
<text  x="993.08" y="193.5" >Log_Even..</text>
</g>
<g >
<title>pyop2.global_kernel.GlobalKernel.compile (37,440 us, 0.66%)</title><rect x="580.6" y="215" width="7.7" height="15.0" fill="rgb(0,0,0)" rx="2" ry="2" />
<text  x="583.57" y="225.5" ></text>
</g>
<g >
<title>firedrake.functionspacedata.FunctionSpaceData.__init__ (6,477 us, 0.11%)</title><rect x="204.3" y="151" width="1.3" height="15.0" fill="rgb(0,0,0)" rx="2" ry="2" />
<text  x="207.28" y="161.5" ></text>
</g>
<g >
<title>Log_Event_subkernel1_interior_facet_vert_to__exterior_facet_vert_integral_otherwise (75,618 us, 1.33%)</title><rect x="1073.2" y="183" width="15.7" height="15.0" fill="rgb(0,0,0)" rx="2" ry="2" />
<text  x="1076.18" y="193.5" ></text>
</g>
<g >
<title>firedrake.formmanipulation.split_form (13,357 us, 0.23%)</title><rect x="1148.7" y="135" width="2.8" height="15.0" fill="rgb(0,0,0)" rx="2" ry="2" />
<text  x="1151.69" y="145.5" ></text>
</g>
<g >
<title>Log_Event_subkernel2_cell_to__cell_integral_otherwise (50,581 us, 0.89%)</title><rect x="1088.9" y="183" width="10.5" height="15.0" fill="rgb(0,0,0)" rx="2" ry="2" />
<text  x="1091.87" y="193.5" ></text>
</g>
<g >
<title>HybridOperatorAssembly (867,240 us, 15.24%)</title><rect x="939.8" y="135" width="179.9" height="15.0" fill="rgb(0,0,0)" rx="2" ry="2" />
<text  x="942.78" y="145.5" >HybridOperatorAssembly</text>
</g>
<g >
<title>firedrake.functionspacedata.get_shared_data (1,602 us, 0.03%)</title><rect x="937.7" y="199" width="0.3" height="15.0" fill="rgb(0,0,0)" rx="2" ry="2" />
<text  x="940.70" y="209.5" ></text>
</g>
<g >
<title>Parloop_Cells_wrap_wrap_slate_loopy_knl_14 (207,438 us, 3.65%)</title><rect x="588.3" y="167" width="43.1" height="15.0" fill="rgb(0,0,0)" rx="2" ry="2" />
<text  x="591.34" y="177.5" >Par..</text>
</g>
<g >
<title>firedrake.utility_meshes.RectangleMesh (1,762 us, 0.03%)</title><rect x="529.7" y="87" width="0.3" height="15.0" fill="rgb(0,0,0)" rx="2" ry="2" />
<text  x="532.66" y="97.5" ></text>
</g>
<g >
<title>Log_Event_subkernel3_interior_facet_horiz_top_to__exterior_facet_top_integral_otherwise (4,753 us, 0.08%)</title><rect x="1100.3" y="183" width="1.0" height="15.0" fill="rgb(0,0,0)" rx="2" ry="2" />
<text  x="1103.29" y="193.5" ></text>
</g>
<g >
<title>firedrake.ufl_expr.derivative (1,040 us, 0.02%)</title><rect x="533.3" y="103" width="0.2" height="15.0" fill="rgb(0,0,0)" rx="2" ry="2" />
<text  x="536.27" y="113.5" ></text>
</g>
<g >
<title>ParLoopExecute (37,440 us, 0.66%)</title><rect x="580.6" y="183" width="7.7" height="15.0" fill="rgb(0,0,0)" rx="2" ry="2" />
<text  x="583.57" y="193.5" ></text>
</g>
<g >
<title>Parloop_Cells_wrap_pyop2_kernel_uniform_extrusion (36,766 us, 0.65%)</title><rect x="196.7" y="119" width="7.6" height="15.0" fill="rgb(0,0,0)" rx="2" ry="2" />
<text  x="199.66" y="129.5" ></text>
</g>
<g >
<title>inv_getrf (77,414 us, 1.36%)</title><rect x="1015.3" y="199" width="16.1" height="15.0" fill="rgb(0,0,0)" rx="2" ry="2" />
<text  x="1018.31" y="209.5" ></text>
</g>
<g >
<title>pyop2.global_kernel.GlobalKernel.compile (38,507 us, 0.68%)</title><rect x="1111.5" y="183" width="8.0" height="15.0" fill="rgb(0,0,0)" rx="2" ry="2" />
<text  x="1114.49" y="193.5" ></text>
</g>
<g >
<title>inv_memcpy (4,389 us, 0.08%)</title><rect x="1070.2" y="199" width="0.9" height="15.0" fill="rgb(0,0,0)" rx="2" ry="2" />
<text  x="1073.18" y="209.5" ></text>
</g>
<g >
<title>firedrake.ufl_expr.adjoint (2,252 us, 0.04%)</title><rect x="1164.9" y="135" width="0.5" height="15.0" fill="rgb(0,0,0)" rx="2" ry="2" />
<text  x="1167.92" y="145.5" ></text>
</g>
<g >
<title>firedrake.functionspacedata.get_shared_data (2,384 us, 0.04%)</title><rect x="1150.8" y="215" width="0.5" height="15.0" fill="rgb(0,0,0)" rx="2" ry="2" />
<text  x="1153.80" y="225.5" ></text>
</g>
<g >
<title>firedrake.function.Function.__init__ (1,088 us, 0.02%)</title><rect x="1151.5" y="135" width="0.2" height="15.0" fill="rgb(0,0,0)" rx="2" ry="2" />
<text  x="1154.46" y="145.5" ></text>
</g>
<g >
<title>pyop2.global_kernel.GlobalKernel.compile (36,979 us, 0.65%)</title><rect x="741.0" y="215" width="7.7" height="15.0" fill="rgb(0,0,0)" rx="2" ry="2" />
<text  x="744.00" y="225.5" ></text>
</g>
<g >
<title>firedrake.function.Function.split (1,040 us, 0.02%)</title><rect x="533.3" y="119" width="0.2" height="15.0" fill="rgb(0,0,0)" rx="2" ry="2" />
<text  x="536.27" y="129.5" ></text>
</g>
<g >
<title>solve_memcpy (3,631 us, 0.06%)</title><rect x="780.6" y="215" width="0.7" height="15.0" fill="rgb(0,0,0)" rx="2" ry="2" />
<text  x="783.59" y="225.5" ></text>
</g>
<g >
<title>Log_Event_subkernel17_interior_facet_horiz_top_to__exterior_facet_top_integral_otherwise (6,370 us, 0.11%)</title><rect x="609.3" y="183" width="1.3" height="15.0" fill="rgb(0,0,0)" rx="2" ry="2" />
<text  x="612.29" y="193.5" ></text>
</g>
<g >
<title>Log_Event_subkernel13_interior_facet_horiz_top_to__exterior_facet_top_integral_otherwise (6,715 us, 0.12%)</title><rect x="714.5" y="199" width="1.4" height="15.0" fill="rgb(0,0,0)" rx="2" ry="2" />
<text  x="717.51" y="209.5" ></text>
</g>
<g >
<title>Log_Event_slate_loopy_knl_14 (49,320 us, 0.87%)</title><rect x="590.9" y="183" width="10.2" height="15.0" fill="rgb(0,0,0)" rx="2" ry="2" />
<text  x="593.87" y="193.5" ></text>
</g>
<g >
<title>CreateSparsity (102,806 us, 1.81%)</title><rect x="1119.7" y="151" width="21.3" height="15.0" fill="rgb(0,0,0)" rx="2" ry="2" />
<text  x="1122.66" y="161.5" ></text>
</g>
<g >
<title>firedrake.formmanipulation.ExtractSubBlock.argument (9,677 us, 0.17%)</title><rect x="1149.5" y="167" width="2.0" height="15.0" fill="rgb(0,0,0)" rx="2" ry="2" />
<text  x="1152.45" y="177.5" ></text>
</g>
<g >
<title>MatAssemblyEnd (666 us, 0.01%)</title><rect x="1141.0" y="151" width="0.1" height="15.0" fill="rgb(0,0,0)" rx="2" ry="2" />
<text  x="1143.98" y="161.5" ></text>
</g>
<g >
<title>FunctionSpaceData: CreateElement (10,450 us, 0.18%)</title><rect x="208.4" y="135" width="2.2" height="15.0" fill="rgb(0,0,0)" rx="2" ry="2" />
<text  x="211.44" y="145.5" ></text>
</g>
<g >
<title>Log_Event_subkernel5_interior_facet_vert_to__exterior_facet_vert_integral_otherwise (75,513 us, 1.33%)</title><rect x="783.3" y="199" width="15.7" height="15.0" fill="rgb(0,0,0)" rx="2" ry="2" />
<text  x="786.30" y="209.5" ></text>
</g>
<g >
<title>firedrake (5,688,979 us, 100.00%)</title><rect x="10.0" y="55" width="1180.0" height="15.0" fill="rgb(0,0,0)" rx="2" ry="2" />
<text  x="13.00" y="65.5" >firedrake</text>
</g>
<g >
<title>firedrake.functionspaceimpl.FunctionSpace.__init__ (644 us, 0.01%)</title><rect x="1189.9" y="199" width="0.1" height="15.0" fill="rgb(0,0,0)" rx="2" ry="2" />
<text  x="1192.87" y="209.5" ></text>
</g>
<g >
<title>firedrake.matrix_free.operators.ImplicitMatrixContext.__init__ (7,235 us, 0.13%)</title><rect x="533.9" y="103" width="1.5" height="15.0" fill="rgb(0,0,0)" rx="2" ry="2" />
<text  x="536.95" y="113.5" ></text>
</g>
<g >
<title>firedrake.assemble.allocate_matrix (139,954 us, 2.46%)</title><rect x="1119.7" y="135" width="29.0" height="15.0" fill="rgb(0,0,0)" rx="2" ry="2" />
<text  x="1122.66" y="145.5" >f..</text>
</g>
<g >
<title>Parloop_Cells_wrap_par_loop_kernel (33,479 us, 0.59%)</title><rect x="1158.0" y="167" width="6.9" height="15.0" fill="rgb(0,0,0)" rx="2" ry="2" />
<text  x="1160.98" y="177.5" ></text>
</g>
<g >
<title>ParLoopExecute (37,879 us, 0.67%)</title><rect x="196.4" y="103" width="7.9" height="15.0" fill="rgb(0,0,0)" rx="2" ry="2" />
<text  x="199.42" y="113.5" ></text>
</g>
<g >
<title>solve_getrs (6,985 us, 0.12%)</title><rect x="703.7" y="215" width="1.5" height="15.0" fill="rgb(0,0,0)" rx="2" ry="2" />
<text  x="706.72" y="225.5" ></text>
</g>
<g >
<title>solve_memcpy (2,884 us, 0.05%)</title><rect x="600.5" y="199" width="0.6" height="15.0" fill="rgb(0,0,0)" rx="2" ry="2" />
<text  x="603.50" y="209.5" ></text>
</g>
<g >
<title>pyop2.global_kernel.GlobalKernel.compile (40,109 us, 0.71%)</title><rect x="623.0" y="183" width="8.4" height="15.0" fill="rgb(0,0,0)" rx="2" ry="2" />
<text  x="626.04" y="193.5" ></text>
</g>
<g >
<title>Parloop_Cells_wrap_wrap_slate_loopy_knl_0 (669,907 us, 11.78%)</title><rect x="980.5" y="167" width="139.0" height="15.0" fill="rgb(0,0,0)" rx="2" ry="2" />
<text  x="983.53" y="177.5" >Parloop_Cells_wr..</text>
</g>
<g >
<title>FunctionSpaceData: CreateElement (7,501 us, 0.13%)</title><rect x="938.2" y="199" width="1.6" height="15.0" fill="rgb(0,0,0)" rx="2" ry="2" />
<text  x="941.22" y="209.5" ></text>
</g>
<g >
<title>pyop2.global_kernel.GlobalKernel.compile (33,479 us, 0.59%)</title><rect x="1158.0" y="183" width="6.9" height="15.0" fill="rgb(0,0,0)" rx="2" ry="2" />
<text  x="1160.98" y="193.5" ></text>
</g>
<g >
<title>Log_Event_inits_wrap_slate_loopy_knl_4 (3,315 us, 0.06%)</title><rect x="763.0" y="199" width="0.7" height="15.0" fill="rgb(0,0,0)" rx="2" ry="2" />
<text  x="766.01" y="209.5" ></text>
</g>
<g >
<title>firedrake.functionspaceimpl.FunctionSpace.__init__ (3,289 us, 0.06%)</title><rect x="1150.6" y="199" width="0.7" height="15.0" fill="rgb(0,0,0)" rx="2" ry="2" />
<text  x="1153.61" y="209.5" ></text>
</g>
<g >
<title>firedrake.assemble.allocate_matrix (7,235 us, 0.13%)</title><rect x="533.9" y="87" width="1.5" height="15.0" fill="rgb(0,0,0)" rx="2" ry="2" />
<text  x="536.95" y="97.5" ></text>
</g>
<g >
<title>firedrake.variational_solver.NonlinearVariationalSolver.__init__ (9,431 us, 0.17%)</title><rect x="533.5" y="71" width="1.9" height="15.0" fill="rgb(0,0,0)" rx="2" ry="2" />
<text  x="536.49" y="81.5" ></text>
</g>
<g >
<title>solve_getrf (75,261 us, 1.32%)</title><rect x="764.0" y="215" width="15.6" height="15.0" fill="rgb(0,0,0)" rx="2" ry="2" />
<text  x="767.01" y="225.5" ></text>
</g>
<g >
<title>Log_Event_subkernel15_cell_to__cell_integral_otherwise (20,785 us, 0.37%)</title><rect x="601.1" y="183" width="4.3" height="15.0" fill="rgb(0,0,0)" rx="2" ry="2" />
<text  x="604.10" y="193.5" ></text>
</g>
<g >
<title>firedrake.functionspacedata.FunctionSpaceData.__init__ (1,602 us, 0.03%)</title><rect x="937.7" y="215" width="0.3" height="15.0" fill="rgb(0,0,0)" rx="2" ry="2" />
<text  x="940.70" y="225.5" ></text>
</g>
<g >
<title>Log_Event_form0_cell_integral_otherwise (4,413 us, 0.08%)</title><rect x="1166.2" y="151" width="0.9" height="15.0" fill="rgb(0,0,0)" rx="2" ry="2" />
<text  x="1169.23" y="161.5" ></text>
</g>
<g >
<title>firedrake.parloops.par_loop (39,116 us, 0.69%)</title><rect x="1156.8" y="135" width="8.1" height="15.0" fill="rgb(0,0,0)" rx="2" ry="2" />
<text  x="1159.81" y="145.5" ></text>
</g>
<g >
<title>firedrake.mesh.MeshTopology._facets (2,476 us, 0.04%)</title><rect x="210.6" y="135" width="0.5" height="15.0" fill="rgb(0,0,0)" rx="2" ry="2" />
<text  x="213.61" y="145.5" ></text>
</g>
<g >
<title>firedrake.ufl_expr.adjoint (3,039 us, 0.05%)</title><rect x="534.8" y="119" width="0.6" height="15.0" fill="rgb(0,0,0)" rx="2" ry="2" />
<text  x="537.82" y="129.5" ></text>
</g>
<g >
<title>Parloop_Cells_wrap_par_loop_kernel (36,979 us, 0.65%)</title><rect x="741.0" y="199" width="7.7" height="15.0" fill="rgb(0,0,0)" rx="2" ry="2" />
<text  x="744.00" y="209.5" ></text>
</g>
<g >
<title>MatLUFactor (545,149 us, 9.58%)</title><rect x="820.6" y="167" width="113.0" height="15.0" fill="rgb(0,0,0)" rx="2" ry="2" />
<text  x="823.56" y="177.5" >MatLUFactor</text>
</g>
<g >
<title>firedrake.functionspacedata.FunctionSpaceData.__init__ (2,384 us, 0.04%)</title><rect x="1150.8" y="231" width="0.5" height="15.0" fill="rgb(0,0,0)" rx="2" ry="2" />
<text  x="1153.80" y="241.5" ></text>
</g>
<g >
<title>CreateExtMesh (75,785 us, 1.33%)</title><rect x="190.2" y="71" width="15.7" height="15.0" fill="rgb(0,0,0)" rx="2" ry="2" />
<text  x="193.19" y="81.5" ></text>
</g>
<g >
<title>CreateFunctionSpace (25,143 us, 0.44%)</title><rect x="205.9" y="71" width="5.2" height="15.0" fill="rgb(0,0,0)" rx="2" ry="2" />
<text  x="208.91" y="81.5" ></text>
</g>
<g >
<title>Log_Event_subkernel9_cell_to__cell_integral_otherwise (12,409 us, 0.22%)</title><rect x="728.3" y="199" width="2.6" height="15.0" fill="rgb(0,0,0)" rx="2" ry="2" />
<text  x="731.31" y="209.5" ></text>
</g>
<g >
<title>PetscBarrier (658 us, 0.01%)</title><rect x="211.5" y="71" width="0.1" height="15.0" fill="rgb(0,0,0)" rx="2" ry="2" />
<text  x="214.48" y="81.5" ></text>
</g>
<g >
<title>ParLoopExecute (207,438 us, 3.65%)</title><rect x="588.3" y="151" width="43.1" height="15.0" fill="rgb(0,0,0)" rx="2" ry="2" />
<text  x="591.34" y="161.5" >Par..</text>
</g>
<g >
<title>Log_Event_form1_cell_integral_otherwise (2,774 us, 0.05%)</title><rect x="1175.1" y="151" width="0.6" height="15.0" fill="rgb(0,0,0)" rx="2" ry="2" />
<text  x="1178.10" y="161.5" ></text>
</g>
<g >
<title>firedrake.functionspaceimpl.FunctionSpace.__init__ (6,477 us, 0.11%)</title><rect x="204.3" y="119" width="1.3" height="15.0" fill="rgb(0,0,0)" rx="2" ry="2" />
<text  x="207.28" y="129.5" ></text>
</g>
<g >
<title>Log_Event_subkernel1_interior_facet_horiz_top_to__exterior_facet_top_integral_otherwise (5,184 us, 0.09%)</title><rect x="1072.1" y="183" width="1.1" height="15.0" fill="rgb(0,0,0)" rx="2" ry="2" />
<text  x="1075.11" y="193.5" ></text>
</g>
<g >
<title>firedrake.functionspaceimpl.FunctionSpace.__init__ (1,602 us, 0.03%)</title><rect x="937.7" y="183" width="0.3" height="15.0" fill="rgb(0,0,0)" rx="2" ry="2" />
<text  x="940.70" y="193.5" ></text>
</g>
<g >
<title>firedrake.ufl_expr.action (4,196 us, 0.07%)</title><rect x="533.9" y="119" width="0.9" height="15.0" fill="rgb(0,0,0)" rx="2" ry="2" />
<text  x="536.95" y="129.5" ></text>
</g>
<g >
<title>CreateFunctionSpace (644 us, 0.01%)</title><rect x="1189.9" y="183" width="0.1" height="15.0" fill="rgb(0,0,0)" rx="2" ry="2" />
<text  x="1192.87" y="193.5" ></text>
</g>
<g >
<title>solve_getrs (4,702 us, 0.08%)</title><rect x="779.6" y="215" width="1.0" height="15.0" fill="rgb(0,0,0)" rx="2" ry="2" />
<text  x="782.62" y="225.5" ></text>
</g>
<g >
<title>KSPSolve (1,917,293 us, 33.70%)</title><rect x="535.9" y="103" width="397.7" height="15.0" fill="rgb(0,0,0)" rx="2" ry="2" />
<text  x="538.95" y="113.5" >KSPSolve</text>
</g>
<g >
<title>Log_Event_subkernel10_cell_to__cell_integral_otherwise (20,586 us, 0.36%)</title><rect x="706.3" y="199" width="4.3" height="15.0" fill="rgb(0,0,0)" rx="2" ry="2" />
<text  x="709.29" y="209.5" ></text>
</g>
<g >
<title>Parloop_Cells_wrap_wrap_slate_loopy_knl_7 (431,816 us, 7.59%)</title><rect x="649.8" y="183" width="89.6" height="15.0" fill="rgb(0,0,0)" rx="2" ry="2" />
<text  x="652.80" y="193.5" >Parloop_C..</text>
</g>
<g >
<title>firedrake.functionspace.MixedFunctionSpace (2,931 us, 0.05%)</title><rect x="937.4" y="151" width="0.6" height="15.0" fill="rgb(0,0,0)" rx="2" ry="2" />
<text  x="940.42" y="161.5" ></text>
</g>
</g>
</svg>
