<?xml version="1.0" standalone="no"?>
<!DOCTYPE svg PUBLIC "-//W3C//DTD SVG 1.1//EN" "http://www.w3.org/Graphics/SVG/1.1/DTD/svg11.dtd">
<svg version="1.1" width="1200" height="315" onload="init(evt)" viewBox="0 0 1200 315" xmlns="http://www.w3.org/2000/svg" xmlns:xlink="http://www.w3.org/1999/xlink">
<!-- Flame graph stack visualization. See https://github.com/brendangregg/FlameGraph for latest version, and http://www.brendangregg.com/flamegraphs.html for examples. -->
<!-- NOTES:  -->
<defs>
	<linearGradient id="background" y1="0" y2="1" x1="0" x2="0" >
		<stop stop-color="#eeeeee" offset="5%" />
		<stop stop-color="#eeeeb0" offset="95%" />
	</linearGradient>
</defs>
<style type="text/css">
	text { font-family:Verdana; font-size:13px; fill:rgb(0,0,0); }
	#search, #ignorecase { opacity:0.1; cursor:pointer; }
	#search:hover, #search.show, #ignorecase:hover, #ignorecase.show { opacity:1; }
	#subtitle { text-anchor:middle; font-color:rgb(160,160,160); }
	#title { text-anchor:middle; font-size:18px}
	#unzoom { cursor:pointer; }
	#frames > *:hover { stroke:black; stroke-width:0.5; cursor:pointer; }
	.hide { display:none; }
	.parent { opacity:0.5; }
</style>
<script type="text/ecmascript">
<![CDATA[
	"use strict";
	var details, searchbtn, unzoombtn, matchedtxt, svg, searching, currentSearchTerm, ignorecase, ignorecaseBtn;
	function init(evt) {
		details = document.getElementById("details").firstChild;
		searchbtn = document.getElementById("search");
		ignorecaseBtn = document.getElementById("ignorecase");
		unzoombtn = document.getElementById("unzoom");
		matchedtxt = document.getElementById("matched");
		svg = document.getElementsByTagName("svg")[0];
		searching = 0;
		currentSearchTerm = null;

		// use GET parameters to restore a flamegraphs state.
		var params = get_params();
		if (params.x && params.y)
			zoom(find_group(document.querySelector('[x="' + params.x + '"][y="' + params.y + '"]')));
                if (params.s) search(params.s);
	}

	// event listeners
	window.addEventListener("click", function(e) {
		var target = find_group(e.target);
		if (target) {
			if (target.nodeName == "a") {
				if (e.ctrlKey === false) return;
				e.preventDefault();
			}
			if (target.classList.contains("parent")) unzoom();
			zoom(target);
			if (!document.querySelector('.parent')) {
				clearzoom();
				return;
			}

			// set parameters for zoom state
			var el = target.querySelector("rect");
			if (el && el.attributes && el.attributes.y && el.attributes._orig_x) {
				var params = get_params()
				params.x = el.attributes._orig_x.value;
				params.y = el.attributes.y.value;
				history.replaceState(null, null, parse_params(params));
			}
		}
		else if (e.target.id == "unzoom") clearzoom();
		else if (e.target.id == "search") search_prompt();
		else if (e.target.id == "ignorecase") toggle_ignorecase();
	}, false)

	// mouse-over for info
	// show
	window.addEventListener("mouseover", function(e) {
		var target = find_group(e.target);
		if (target) details.nodeValue = "Function: " + g_to_text(target);
	}, false)

	// clear
	window.addEventListener("mouseout", function(e) {
		var target = find_group(e.target);
		if (target) details.nodeValue = ' ';
	}, false)

	// ctrl-F for search
	// ctrl-I to toggle case-sensitive search
	window.addEventListener("keydown",function (e) {
		if (e.keyCode === 114 || (e.ctrlKey && e.keyCode === 70)) {
			e.preventDefault();
			search_prompt();
		}
		else if (e.ctrlKey && e.keyCode === 73) {
			e.preventDefault();
			toggle_ignorecase();
		}
	}, false)

	// functions
	function get_params() {
		var params = {};
		var paramsarr = window.location.search.substr(1).split('&');
		for (var i = 0; i < paramsarr.length; ++i) {
			var tmp = paramsarr[i].split("=");
			if (!tmp[0] || !tmp[1]) continue;
			params[tmp[0]]  = decodeURIComponent(tmp[1]);
		}
		return params;
	}
	function parse_params(params) {
		var uri = "?";
		for (var key in params) {
			uri += key + '=' + encodeURIComponent(params[key]) + '&';
		}
		if (uri.slice(-1) == "&")
			uri = uri.substring(0, uri.length - 1);
		if (uri == '?')
			uri = window.location.href.split('?')[0];
		return uri;
	}
	function find_child(node, selector) {
		var children = node.querySelectorAll(selector);
		if (children.length) return children[0];
	}
	function find_group(node) {
		var parent = node.parentElement;
		if (!parent) return;
		if (parent.id == "frames") return node;
		return find_group(parent);
	}
	function orig_save(e, attr, val) {
		if (e.attributes["_orig_" + attr] != undefined) return;
		if (e.attributes[attr] == undefined) return;
		if (val == undefined) val = e.attributes[attr].value;
		e.setAttribute("_orig_" + attr, val);
	}
	function orig_load(e, attr) {
		if (e.attributes["_orig_"+attr] == undefined) return;
		e.attributes[attr].value = e.attributes["_orig_" + attr].value;
		e.removeAttribute("_orig_"+attr);
	}
	function g_to_text(e) {
		var text = find_child(e, "title").firstChild.nodeValue;
		return (text)
	}
	function g_to_func(e) {
		var func = g_to_text(e);
		// if there's any manipulation we want to do to the function
		// name before it's searched, do it here before returning.
		return (func);
	}
	function update_text(e) {
		var r = find_child(e, "rect");
		var t = find_child(e, "text");
		var w = parseFloat(r.attributes.width.value) -3;
		var txt = find_child(e, "title").textContent.replace(/\([^(]*\)$/,"");
		t.attributes.x.value = parseFloat(r.attributes.x.value) + 3;

		// Smaller than this size won't fit anything
		if (w < 2 * 13 * 0.59) {
			t.textContent = "";
			return;
		}

		t.textContent = txt;
		// Fit in full text width
		if (/^ *$/.test(txt) || t.getSubStringLength(0, txt.length) < w)
			return;

		for (var x = txt.length - 2; x > 0; x--) {
			if (t.getSubStringLength(0, x + 2) <= w) {
				t.textContent = txt.substring(0, x) + "..";
				return;
			}
		}
		t.textContent = "";
	}

	// zoom
	function zoom_reset(e) {
		if (e.attributes != undefined) {
			orig_load(e, "x");
			orig_load(e, "width");
		}
		if (e.childNodes == undefined) return;
		for (var i = 0, c = e.childNodes; i < c.length; i++) {
			zoom_reset(c[i]);
		}
	}
	function zoom_child(e, x, ratio) {
		if (e.attributes != undefined) {
			if (e.attributes.x != undefined) {
				orig_save(e, "x");
				e.attributes.x.value = (parseFloat(e.attributes.x.value) - x - 10) * ratio + 10;
				if (e.tagName == "text")
					e.attributes.x.value = find_child(e.parentNode, "rect[x]").attributes.x.value + 3;
			}
			if (e.attributes.width != undefined) {
				orig_save(e, "width");
				e.attributes.width.value = parseFloat(e.attributes.width.value) * ratio;
			}
		}

		if (e.childNodes == undefined) return;
		for (var i = 0, c = e.childNodes; i < c.length; i++) {
			zoom_child(c[i], x - 10, ratio);
		}
	}
	function zoom_parent(e) {
		if (e.attributes) {
			if (e.attributes.x != undefined) {
				orig_save(e, "x");
				e.attributes.x.value = 10;
			}
			if (e.attributes.width != undefined) {
				orig_save(e, "width");
				e.attributes.width.value = parseInt(svg.width.baseVal.value) - (10 * 2);
			}
		}
		if (e.childNodes == undefined) return;
		for (var i = 0, c = e.childNodes; i < c.length; i++) {
			zoom_parent(c[i]);
		}
	}
	function zoom(node) {
		var attr = find_child(node, "rect").attributes;
		var width = parseFloat(attr.width.value);
		var xmin = parseFloat(attr.x.value);
		var xmax = parseFloat(xmin + width);
		var ymin = parseFloat(attr.y.value);
		var ratio = (svg.width.baseVal.value - 2 * 10) / width;

		// XXX: Workaround for JavaScript float issues (fix me)
		var fudge = 0.0001;

		unzoombtn.classList.remove("hide");

		var el = document.getElementById("frames").children;
		for (var i = 0; i < el.length; i++) {
			var e = el[i];
			var a = find_child(e, "rect").attributes;
			var ex = parseFloat(a.x.value);
			var ew = parseFloat(a.width.value);
			var upstack;
			// Is it an ancestor
			if (1 == 0) {
				upstack = parseFloat(a.y.value) > ymin;
			} else {
				upstack = parseFloat(a.y.value) < ymin;
			}
			if (upstack) {
				// Direct ancestor
				if (ex <= xmin && (ex+ew+fudge) >= xmax) {
					e.classList.add("parent");
					zoom_parent(e);
					update_text(e);
				}
				// not in current path
				else
					e.classList.add("hide");
			}
			// Children maybe
			else {
				// no common path
				if (ex < xmin || ex + fudge >= xmax) {
					e.classList.add("hide");
				}
				else {
					zoom_child(e, xmin, ratio);
					update_text(e);
				}
			}
		}
		search();
	}
	function unzoom() {
		unzoombtn.classList.add("hide");
		var el = document.getElementById("frames").children;
		for(var i = 0; i < el.length; i++) {
			el[i].classList.remove("parent");
			el[i].classList.remove("hide");
			zoom_reset(el[i]);
			update_text(el[i]);
		}
		search();
	}
	function clearzoom() {
		unzoom();

		// remove zoom state
		var params = get_params();
		if (params.x) delete params.x;
		if (params.y) delete params.y;
		history.replaceState(null, null, parse_params(params));
	}

	// search
	function toggle_ignorecase() {
		ignorecase = !ignorecase;
		if (ignorecase) {
			ignorecaseBtn.classList.add("show");
		} else {
			ignorecaseBtn.classList.remove("show");
		}
		reset_search();
		search();
	}
	function reset_search() {
		var el = document.querySelectorAll("#frames rect");
		for (var i = 0; i < el.length; i++) {
			orig_load(el[i], "fill")
		}
		var params = get_params();
		delete params.s;
		history.replaceState(null, null, parse_params(params));
	}
	function search_prompt() {
		if (!searching) {
			var term = prompt("Enter a search term (regexp " +
			    "allowed, eg: ^ext4_)"
			    + (ignorecase ? ", ignoring case" : "")
			    + "\nPress Ctrl-i to toggle case sensitivity", "");
			if (term != null) search(term);
		} else {
			reset_search();
			searching = 0;
			currentSearchTerm = null;
			searchbtn.classList.remove("show");
			searchbtn.firstChild.nodeValue = "Search"
			matchedtxt.classList.add("hide");
			matchedtxt.firstChild.nodeValue = ""
		}
	}
	function search(term) {
		if (term) currentSearchTerm = term;

		var re = new RegExp(currentSearchTerm, ignorecase ? 'i' : '');
		var el = document.getElementById("frames").children;
		var matches = new Object();
		var maxwidth = 0;
		for (var i = 0; i < el.length; i++) {
			var e = el[i];
			var func = g_to_func(e);
			var rect = find_child(e, "rect");
			if (func == null || rect == null)
				continue;

			// Save max width. Only works as we have a root frame
			var w = parseFloat(rect.attributes.width.value);
			if (w > maxwidth)
				maxwidth = w;

			if (func.match(re)) {
				// highlight
				var x = parseFloat(rect.attributes.x.value);
				orig_save(rect, "fill");
				rect.attributes.fill.value = "rgb(230,0,230)";

				// remember matches
				if (matches[x] == undefined) {
					matches[x] = w;
				} else {
					if (w > matches[x]) {
						// overwrite with parent
						matches[x] = w;
					}
				}
				searching = 1;
			}
		}
		if (!searching)
			return;
		var params = get_params();
		params.s = currentSearchTerm;
		history.replaceState(null, null, parse_params(params));

		searchbtn.classList.add("show");
		searchbtn.firstChild.nodeValue = "Reset Search";

		// calculate percent matched, excluding vertical overlap
		var count = 0;
		var lastx = -1;
		var lastw = 0;
		var keys = Array();
		for (k in matches) {
			if (matches.hasOwnProperty(k))
				keys.push(k);
		}
		// sort the matched frames by their x location
		// ascending, then width descending
		keys.sort(function(a, b){
			return a - b;
		});
		// Step through frames saving only the biggest bottom-up frames
		// thanks to the sort order. This relies on the tree property
		// where children are always smaller than their parents.
		var fudge = 0.0001;	// JavaScript floating point
		for (var k in keys) {
			var x = parseFloat(keys[k]);
			var w = matches[keys[k]];
			if (x >= lastx + lastw - fudge) {
				count += w;
				lastx = x;
				lastw = w;
			}
		}
		// display matched percent
		matchedtxt.classList.remove("hide");
		var pct = 100 * count / maxwidth;
		if (pct != 100) pct = pct.toFixed(1)
		matchedtxt.firstChild.nodeValue = "Matched: " + pct + "%";
	}
]]>
</script>
<rect x="0.0" y="0" width="1200.0" height="315.0" fill="url(#background)"  />
<text id="title" x="600.00" y="26" >Firedrake example</text>
<text id="details" x="10.00" y="297" > </text>
<text id="unzoom" x="10.00" y="26" class="hide">Reset Zoom</text>
<text id="search" x="1090.00" y="26" >Search</text>
<text id="ignorecase" x="1174.00" y="26" >ic</text>
<text id="matched" x="1090.00" y="297" > </text>
<g id="frames">
<g >
<title>Parloop_Cells_wrap_slate_loopy_knl_0 (245,648 us, 5.23%)</title><rect x="1059.8" y="183" width="61.7" height="15.0" fill="rgb(0,0,0)" rx="2" ry="2" />
<text  x="1062.81" y="193.5" >Parloo..</text>
</g>
<g >
<title>firedrake.matrix_free.operators.ImplicitMatrixContext.mult (24,151 us, 0.51%)</title><rect x="1121.5" y="183" width="6.1" height="15.0" fill="rgb(0,0,0)" rx="2" ry="2" />
<text  x="1124.51" y="193.5" ></text>
</g>
<g >
<title>Log_Event_mtf_solve_61 (6,347 us, 0.14%)</title><rect x="1100.7" y="215" width="1.6" height="15.0" fill="rgb(0,0,0)" rx="2" ry="2" />
<text  x="1103.73" y="225.5" ></text>
</g>
<g >
<title>Parloop_Cells_wrap_par_loop_kernel (30,374 us, 0.65%)</title><rect x="835.2" y="199" width="7.6" height="15.0" fill="rgb(0,0,0)" rx="2" ry="2" />
<text  x="838.18" y="209.5" ></text>
</g>
<g >
<title>Log_Event_mtf_solve_4 (8,989 us, 0.19%)</title><rect x="1087.3" y="247" width="2.3" height="15.0" fill="rgb(0,0,0)" rx="2" ry="2" />
<text  x="1090.33" y="257.5" ></text>
</g>
<g >
<title>firedrake.formmanipulation.ExtractSubBlock.argument (7,262 us, 0.15%)</title><rect x="1173.4" y="167" width="1.8" height="15.0" fill="rgb(0,0,0)" rx="2" ry="2" />
<text  x="1176.40" y="177.5" ></text>
</g>
<g >
<title>PCSetUp (153,663 us, 3.27%)</title><rect x="1127.6" y="151" width="38.6" height="15.0" fill="rgb(0,0,0)" rx="2" ry="2" />
<text  x="1130.57" y="161.5" >PCS..</text>
</g>
<g >
<title>firedrake.extrusion_utils.make_extruded_coords (69,219 us, 1.47%)</title><rect x="317.2" y="87" width="17.4" height="15.0" fill="rgb(0,0,0)" rx="2" ry="2" />
<text  x="320.23" y="97.5" ></text>
</g>
<g >
<title>Parloop_Cells_wrap_slate_loopy_knl_70 (6,983 us, 0.15%)</title><rect x="1125.8" y="215" width="1.8" height="15.0" fill="rgb(0,0,0)" rx="2" ry="2" />
<text  x="1128.82" y="225.5" ></text>
</g>
<g >
<title>Log_Event_tensorshell_knl_2 (17,076 us, 0.36%)</title><rect x="1085.3" y="231" width="4.3" height="15.0" fill="rgb(0,0,0)" rx="2" ry="2" />
<text  x="1088.30" y="241.5" ></text>
</g>
<g >
<title>CreateFunctionSpace (6,523 us, 0.14%)</title><rect x="1171.8" y="135" width="1.6" height="15.0" fill="rgb(0,0,0)" rx="2" ry="2" />
<text  x="1174.76" y="145.5" ></text>
</g>
<g >
<title>HybridRHS (1,109,695 us, 23.62%)</title><rect x="842.8" y="151" width="278.7" height="15.0" fill="rgb(0,0,0)" rx="2" ry="2" />
<text  x="845.81" y="161.5" >HybridRHS</text>
</g>
<g >
<title>Log_Event_subkernel20_cell_to__cell_integral_otherwise (11,947 us, 0.25%)</title><rect x="1082.3" y="247" width="3.0" height="15.0" fill="rgb(0,0,0)" rx="2" ry="2" />
<text  x="1085.30" y="257.5" ></text>
</g>
<g >
<title>ParLoopExecute (30,374 us, 0.65%)</title><rect x="835.2" y="183" width="7.6" height="15.0" fill="rgb(0,0,0)" rx="2" ry="2" />
<text  x="838.18" y="193.5" ></text>
</g>
<g >
<title>MatZeroInitial (5,445 us, 0.12%)</title><rect x="1161.0" y="183" width="1.4" height="15.0" fill="rgb(0,0,0)" rx="2" ry="2" />
<text  x="1164.00" y="193.5" ></text>
</g>
<g >
<title>firedrake.__init__ (1,504,132 us, 32.01%)</title><rect x="341.9" y="71" width="377.8" height="15.0" fill="rgb(0,0,0)" rx="2" ry="2" />
<text  x="344.92" y="81.5" >firedrake.__init__</text>
</g>
<g >
<title>CreateSparsity (6,593 us, 0.14%)</title><rect x="1146.7" y="183" width="1.7" height="15.0" fill="rgb(0,0,0)" rx="2" ry="2" />
<text  x="1149.73" y="193.5" ></text>
</g>
<g >
<title>firedrake.interpolation.make_interpolator (55,669 us, 1.18%)</title><rect x="1148.4" y="167" width="14.0" height="15.0" fill="rgb(0,0,0)" rx="2" ry="2" />
<text  x="1151.38" y="177.5" ></text>
</g>
<g >
<title>Log_Event_subkernel30_interior_facet_vert_to__exterior_facet_vert_integral_otherwise (12,759 us, 0.27%)</title><rect x="1102.3" y="215" width="3.2" height="15.0" fill="rgb(0,0,0)" rx="2" ry="2" />
<text  x="1105.33" y="225.5" ></text>
</g>
<g >
<title>firedrake.functionspacedata.FunctionSpaceData.__init__ (6,523 us, 0.14%)</title><rect x="1171.8" y="183" width="1.6" height="15.0" fill="rgb(0,0,0)" rx="2" ry="2" />
<text  x="1174.76" y="193.5" ></text>
</g>
<g >
<title>CreateExtMesh (75,548 us, 1.61%)</title><rect x="317.2" y="71" width="19.0" height="15.0" fill="rgb(0,0,0)" rx="2" ry="2" />
<text  x="320.23" y="81.5" ></text>
</g>
<g >
<title>ParLoopExecute (69,003 us, 1.47%)</title><rect x="1129.4" y="167" width="17.3" height="15.0" fill="rgb(0,0,0)" rx="2" ry="2" />
<text  x="1132.40" y="177.5" ></text>
</g>
<g >
<title>Log_Event_subkernel67_interior_facet_vert_to__exterior_facet_vert_integral_otherwise (12,659 us, 0.27%)</title><rect x="1105.5" y="215" width="3.2" height="15.0" fill="rgb(0,0,0)" rx="2" ry="2" />
<text  x="1108.53" y="225.5" ></text>
</g>
<g >
<title>firedrake.variational_solver.LinearVariationalProblem.__init__ (16,973 us, 0.36%)</title><rect x="719.7" y="71" width="4.2" height="15.0" fill="rgb(0,0,0)" rx="2" ry="2" />
<text  x="722.68" y="81.5" ></text>
</g>
<g >
<title>pyop2.global_kernel.GlobalKernel.compile (36,138 us, 0.77%)</title><rect x="728.2" y="183" width="9.0" height="15.0" fill="rgb(0,0,0)" rx="2" ry="2" />
<text  x="731.15" y="193.5" ></text>
</g>
<g >
<title>Parloop_Cells_wrap_par_loop_kernel (30,759 us, 0.65%)</title><rect x="1182.3" y="167" width="7.7" height="15.0" fill="rgb(0,0,0)" rx="2" ry="2" />
<text  x="1185.27" y="177.5" ></text>
</g>
<g >
<title>Log_Event_subkernel13_cell_to__cell_integral_otherwise (14,453 us, 0.31%)</title><rect x="1078.7" y="247" width="3.6" height="15.0" fill="rgb(0,0,0)" rx="2" ry="2" />
<text  x="1081.67" y="257.5" ></text>
</g>
<g >
<title>SNESSolve (1,847,997 us, 39.33%)</title><rect x="725.9" y="87" width="464.1" height="15.0" fill="rgb(0,0,0)" rx="2" ry="2" />
<text  x="728.87" y="97.5" >SNESSolve</text>
</g>
<g >
<title>Log_Event_mtf_solve_14 (33,461 us, 0.71%)</title><rect x="1070.3" y="247" width="8.4" height="15.0" fill="rgb(0,0,0)" rx="2" ry="2" />
<text  x="1073.26" y="257.5" ></text>
</g>
<g >
<title>Log_Event_tensorshell_knl_49 (14,350 us, 0.31%)</title><rect x="1097.1" y="231" width="3.6" height="15.0" fill="rgb(0,0,0)" rx="2" ry="2" />
<text  x="1100.13" y="241.5" ></text>
</g>
<g >
<title>KSPSolve (1,753,091 us, 37.31%)</title><rect x="725.9" y="103" width="440.3" height="15.0" fill="rgb(0,0,0)" rx="2" ry="2" />
<text  x="728.87" y="113.5" >KSPSolve</text>
</g>
<g >
<title>firedrake.ufl_expr.adjoint (11,778 us, 0.25%)</title><rect x="721.0" y="103" width="2.9" height="15.0" fill="rgb(0,0,0)" rx="2" ry="2" />
<text  x="723.99" y="113.5" ></text>
</g>
<g >
<title>MatMult (24,151 us, 0.51%)</title><rect x="1121.5" y="167" width="6.1" height="15.0" fill="rgb(0,0,0)" rx="2" ry="2" />
<text  x="1124.51" y="177.5" ></text>
</g>
<g >
<title>CreateSparsity (22,677 us, 0.48%)</title><rect x="1155.3" y="183" width="5.7" height="15.0" fill="rgb(0,0,0)" rx="2" ry="2" />
<text  x="1158.30" y="193.5" ></text>
</g>
<g >
<title>firedrake.functionspaceimpl.FunctionSpace.__init__ (22,746 us, 0.48%)</title><rect x="336.2" y="87" width="5.7" height="15.0" fill="rgb(0,0,0)" rx="2" ry="2" />
<text  x="339.21" y="97.5" ></text>
</g>
<g >
<title>firedrake.formmanipulation.ExtractSubBlock.split (7,262 us, 0.15%)</title><rect x="1173.4" y="151" width="1.8" height="15.0" fill="rgb(0,0,0)" rx="2" ry="2" />
<text  x="1176.40" y="161.5" ></text>
</g>
<g >
<title>Log_Event_mtf_solve_51 (6,371 us, 0.14%)</title><rect x="1099.1" y="247" width="1.6" height="15.0" fill="rgb(0,0,0)" rx="2" ry="2" />
<text  x="1102.13" y="257.5" ></text>
</g>
<g >
<title>firedrake (4,698,377 us, 100.00%)</title><rect x="10.0" y="55" width="1180.0" height="15.0" fill="rgb(0,0,0)" rx="2" ry="2" />
<text  x="13.00" y="65.5" >firedrake</text>
</g>
<g >
<title>Log_Event_mtf_solve_1 (76,937 us, 1.64%)</title><rect x="1070.3" y="215" width="19.3" height="15.0" fill="rgb(0,0,0)" rx="2" ry="2" />
<text  x="1073.26" y="225.5" ></text>
</g>
<g >
<title>Parloop_Cells_wrap_form1_cell_integral_otherwise (33,507 us, 0.71%)</title><rect x="737.2" y="167" width="8.4" height="15.0" fill="rgb(0,0,0)" rx="2" ry="2" />
<text  x="740.23" y="177.5" ></text>
</g>
<g >
<title>SCSolve (177,814 us, 3.78%)</title><rect x="1121.5" y="135" width="44.7" height="15.0" fill="rgb(0,0,0)" rx="2" ry="2" />
<text  x="1124.51" y="145.5" >SCS..</text>
</g>
<g >
<title>CreateFunctionSpace (22,746 us, 0.48%)</title><rect x="336.2" y="71" width="5.7" height="15.0" fill="rgb(0,0,0)" rx="2" ry="2" />
<text  x="339.21" y="81.5" ></text>
</g>
<g >
<title>firedrake.parloops.par_loop (35,973 us, 0.77%)</title><rect x="1181.0" y="135" width="9.0" height="15.0" fill="rgb(0,0,0)" rx="2" ry="2" />
<text  x="1183.97" y="145.5" ></text>
</g>
<g >
<title>firedrake.matrix_free.operators.ImplicitMatrixContext.mult (429,382 us, 9.14%)</title><rect x="725.9" y="135" width="107.8" height="15.0" fill="rgb(0,0,0)" rx="2" ry="2" />
<text  x="728.87" y="145.5" >firedrake.ma..</text>
</g>
<g >
<title>HybridBreak (36,200 us, 0.77%)</title><rect x="833.7" y="151" width="9.1" height="15.0" fill="rgb(0,0,0)" rx="2" ry="2" />
<text  x="836.71" y="161.5" ></text>
</g>
<g >
<title>pyop2.global_kernel.GlobalKernel.compile (33,507 us, 0.71%)</title><rect x="737.2" y="183" width="8.4" height="15.0" fill="rgb(0,0,0)" rx="2" ry="2" />
<text  x="740.23" y="193.5" ></text>
</g>
<g >
<title>Log_Event_subkernel68_interior_facet_vert_to__exterior_facet_vert_integral_otherwise (12,698 us, 0.27%)</title><rect x="1108.7" y="215" width="3.2" height="15.0" fill="rgb(0,0,0)" rx="2" ry="2" />
<text  x="1111.71" y="225.5" ></text>
</g>
<g >
<title>PCSetUp (94,906 us, 2.02%)</title><rect x="1166.2" y="103" width="23.8" height="15.0" fill="rgb(0,0,0)" rx="2" ry="2" />
<text  x="1169.16" y="113.5" >P..</text>
</g>
<g >
<title>pyop2.global_kernel.GlobalKernel.compile (30,759 us, 0.65%)</title><rect x="1182.3" y="183" width="7.7" height="15.0" fill="rgb(0,0,0)" rx="2" ry="2" />
<text  x="1185.27" y="193.5" ></text>
</g>
<g >
<title>firedrake.functionspacedata.get_shared_data (6,329 us, 0.13%)</title><rect x="334.6" y="135" width="1.6" height="15.0" fill="rgb(0,0,0)" rx="2" ry="2" />
<text  x="337.62" y="145.5" ></text>
</g>
<g >
<title>FunctionSpaceData: CreateElement (6,523 us, 0.14%)</title><rect x="1171.8" y="199" width="1.6" height="15.0" fill="rgb(0,0,0)" rx="2" ry="2" />
<text  x="1174.76" y="209.5" ></text>
</g>
<g >
<title>firedrake.functionspacedata.FunctionSpaceData.__init__ (22,746 us, 0.48%)</title><rect x="336.2" y="119" width="5.7" height="15.0" fill="rgb(0,0,0)" rx="2" ry="2" />
<text  x="339.21" y="129.5" ></text>
</g>
<g >
<title>firedrake.variational_solver.NonlinearVariationalProblem.__init__ (11,778 us, 0.25%)</title><rect x="721.0" y="87" width="2.9" height="15.0" fill="rgb(0,0,0)" rx="2" ry="2" />
<text  x="723.99" y="97.5" ></text>
</g>
<g >
<title>firedrake.assemble.allocate_matrix (6,593 us, 0.14%)</title><rect x="1146.7" y="167" width="1.7" height="15.0" fill="rgb(0,0,0)" rx="2" ry="2" />
<text  x="1149.73" y="177.5" ></text>
</g>
<g >
<title>Parloop_Cells_wrap_expression_kernel (32,638 us, 0.69%)</title><rect x="1129.4" y="183" width="8.2" height="15.0" fill="rgb(0,0,0)" rx="2" ry="2" />
<text  x="1132.40" y="193.5" ></text>
</g>
<g >
<title>firedrake.parloops.par_loop (36,200 us, 0.77%)</title><rect x="833.7" y="167" width="9.1" height="15.0" fill="rgb(0,0,0)" rx="2" ry="2" />
<text  x="836.71" y="177.5" ></text>
</g>
<g >
<title>Log_Event_mtf_solve_38 (28,726 us, 0.61%)</title><rect x="1093.5" y="215" width="7.2" height="15.0" fill="rgb(0,0,0)" rx="2" ry="2" />
<text  x="1096.52" y="225.5" ></text>
</g>
<g >
<title>CreateFunctionSpace (7,262 us, 0.15%)</title><rect x="1173.4" y="183" width="1.8" height="15.0" fill="rgb(0,0,0)" rx="2" ry="2" />
<text  x="1176.40" y="193.5" ></text>
</g>
<g >
<title>PCApply (1,323,709 us, 28.17%)</title><rect x="833.7" y="119" width="332.5" height="15.0" fill="rgb(0,0,0)" rx="2" ry="2" />
<text  x="836.71" y="129.5" >PCApply</text>
</g>
<g >
<title>Log_Event_subkernel15_cell_to__cell_integral_otherwise (6,694 us, 0.14%)</title><rect x="1072.2" y="263" width="1.6" height="15.0" fill="rgb(0,0,0)" rx="2" ry="2" />
<text  x="1075.16" y="273.5" ></text>
</g>
<g >
<title>firedrake.assemble.allocate_matrix (7,686 us, 0.16%)</title><rect x="723.9" y="87" width="2.0" height="15.0" fill="rgb(0,0,0)" rx="2" ry="2" />
<text  x="726.94" y="97.5" ></text>
</g>
<g >
<title>Log_Event_subkernel17_cell_to__cell_integral_otherwise (5,623 us, 0.12%)</title><rect x="1073.8" y="263" width="1.5" height="15.0" fill="rgb(0,0,0)" rx="2" ry="2" />
<text  x="1076.84" y="273.5" ></text>
</g>
<g >
<title>HybridInit (94,906 us, 2.02%)</title><rect x="1166.2" y="119" width="23.8" height="15.0" fill="rgb(0,0,0)" rx="2" ry="2" />
<text  x="1169.16" y="129.5" >H..</text>
</g>
<g >
<title>firedrake.variational_solver.NonlinearVariationalSolver.__init__ (7,686 us, 0.16%)</title><rect x="723.9" y="71" width="2.0" height="15.0" fill="rgb(0,0,0)" rx="2" ry="2" />
<text  x="726.94" y="81.5" ></text>
</g>
<g >
<title>Log_Event_tensorshell_knl_12 (59,861 us, 1.27%)</title><rect x="1070.3" y="231" width="15.0" height="15.0" fill="rgb(0,0,0)" rx="2" ry="2" />
<text  x="1073.26" y="241.5" ></text>
</g>
<g >
<title>ParLoopExecute (37,921 us, 0.81%)</title><rect x="325.1" y="103" width="9.5" height="15.0" fill="rgb(0,0,0)" rx="2" ry="2" />
<text  x="328.09" y="113.5" ></text>
</g>
<g >
<title>pyop2.global_kernel.GlobalKernel.compile (32,638 us, 0.69%)</title><rect x="1129.4" y="199" width="8.2" height="15.0" fill="rgb(0,0,0)" rx="2" ry="2" />
<text  x="1132.40" y="209.5" ></text>
</g>
<g >
<title>Log_Event_subkernel18_cell_to__cell_integral_otherwise (13,603 us, 0.29%)</title><rect x="1075.3" y="263" width="3.4" height="15.0" fill="rgb(0,0,0)" rx="2" ry="2" />
<text  x="1078.25" y="273.5" ></text>
</g>
<g >
<title>firedrake.functionspace.VectorFunctionSpace (6,329 us, 0.13%)</title><rect x="334.6" y="87" width="1.6" height="15.0" fill="rgb(0,0,0)" rx="2" ry="2" />
<text  x="337.62" y="97.5" ></text>
</g>
<g >
<title>ParLoopExecute (30,759 us, 0.65%)</title><rect x="1182.3" y="151" width="7.7" height="15.0" fill="rgb(0,0,0)" rx="2" ry="2" />
<text  x="1185.27" y="161.5" ></text>
</g>
<g >
<title>KSPSolve (24,151 us, 0.51%)</title><rect x="1121.5" y="151" width="6.1" height="15.0" fill="rgb(0,0,0)" rx="2" ry="2" />
<text  x="1124.51" y="161.5" ></text>
</g>
<g >
<title>ParLoopExecute (245,648 us, 5.23%)</title><rect x="1059.8" y="167" width="61.7" height="15.0" fill="rgb(0,0,0)" rx="2" ry="2" />
<text  x="1062.81" y="177.5" >ParLoo..</text>
</g>
<g >
<title>CreateFunctionSpace (6,329 us, 0.13%)</title><rect x="334.6" y="103" width="1.6" height="15.0" fill="rgb(0,0,0)" rx="2" ry="2" />
<text  x="337.62" y="113.5" ></text>
</g>
<g >
<title>firedrake.tsfc_interface.compile_form (350,662 us, 7.46%)</title><rect x="745.6" y="151" width="88.1" height="15.0" fill="rgb(0,0,0)" rx="2" ry="2" />
<text  x="748.65" y="161.5" >firedrake..</text>
</g>
<g >
<title>pyop2.global_kernel.GlobalKernel.compile (37,921 us, 0.81%)</title><rect x="325.1" y="135" width="9.5" height="15.0" fill="rgb(0,0,0)" rx="2" ry="2" />
<text  x="328.09" y="145.5" ></text>
</g>
<g >
<title>Log_Event_tensorshell_knl_39 (14,376 us, 0.31%)</title><rect x="1093.5" y="231" width="3.6" height="15.0" fill="rgb(0,0,0)" rx="2" ry="2" />
<text  x="1096.52" y="241.5" ></text>
</g>
<g >
<title>MatMult (429,382 us, 9.14%)</title><rect x="725.9" y="119" width="107.8" height="15.0" fill="rgb(0,0,0)" rx="2" ry="2" />
<text  x="728.87" y="129.5" >MatMult</text>
</g>
<g >
<title>pyop2.global_kernel.GlobalKernel.compile (36,365 us, 0.77%)</title><rect x="1137.6" y="199" width="9.1" height="15.0" fill="rgb(0,0,0)" rx="2" ry="2" />
<text  x="1140.59" y="209.5" ></text>
</g>
<g >
<title>firedrake.functionspacedata.FunctionSpaceData.__init__ (6,329 us, 0.13%)</title><rect x="334.6" y="151" width="1.6" height="15.0" fill="rgb(0,0,0)" rx="2" ry="2" />
<text  x="337.62" y="161.5" ></text>
</g>
<g >
<title>FunctionSpaceData: CreateElement (10,204 us, 0.22%)</title><rect x="339.4" y="135" width="2.5" height="15.0" fill="rgb(0,0,0)" rx="2" ry="2" />
<text  x="342.36" y="145.5" ></text>
</g>
<g >
<title>all (4,698,377 us, 100%)</title><rect x="10.0" y="39" width="1180.0" height="15.0" fill="rgb(0,0,0)" rx="2" ry="2" />
<text  x="13.00" y="49.5" ></text>
</g>
<g >
<title>firedrake.variational_solver.NonlinearVariationalSolver.solve (1,847,997 us, 39.33%)</title><rect x="725.9" y="71" width="464.1" height="15.0" fill="rgb(0,0,0)" rx="2" ry="2" />
<text  x="728.87" y="81.5" >firedrake.variational_solver.NonlinearVariationalSolver.so..</text>
</g>
<g >
<title>ParLoopExecute (6,983 us, 0.15%)</title><rect x="1125.8" y="199" width="1.8" height="15.0" fill="rgb(0,0,0)" rx="2" ry="2" />
<text  x="1128.82" y="209.5" ></text>
</g>
<g >
<title>ParLoopExecute (74,087 us, 1.58%)</title><rect x="727.0" y="151" width="18.6" height="15.0" fill="rgb(0,0,0)" rx="2" ry="2" />
<text  x="730.04" y="161.5" ></text>
</g>
<g >
<title>pyop2.global_kernel.GlobalKernel.compile (38,255 us, 0.81%)</title><rect x="1111.9" y="199" width="9.6" height="15.0" fill="rgb(0,0,0)" rx="2" ry="2" />
<text  x="1114.90" y="209.5" ></text>
</g>
<g >
<title>Log_Event_mtf_solve_24 (9,245 us, 0.20%)</title><rect x="1089.6" y="215" width="2.3" height="15.0" fill="rgb(0,0,0)" rx="2" ry="2" />
<text  x="1092.59" y="225.5" ></text>
</g>
<g >
<title>Log_Event_mtf_solve_31 (6,405 us, 0.14%)</title><rect x="1091.9" y="215" width="1.6" height="15.0" fill="rgb(0,0,0)" rx="2" ry="2" />
<text  x="1094.91" y="225.5" ></text>
</g>
<g >
<title>pyop2.global_kernel.GlobalKernel.compile (30,374 us, 0.65%)</title><rect x="835.2" y="215" width="7.6" height="15.0" fill="rgb(0,0,0)" rx="2" ry="2" />
<text  x="838.18" y="225.5" ></text>
</g>
<g >
<title>Log_Event_mtf_solve_41 (6,320 us, 0.13%)</title><rect x="1095.5" y="247" width="1.6" height="15.0" fill="rgb(0,0,0)" rx="2" ry="2" />
<text  x="1098.54" y="257.5" ></text>
</g>
<g >
<title>firedrake.functionspacedata.get_shared_data (22,746 us, 0.48%)</title><rect x="336.2" y="103" width="5.7" height="15.0" fill="rgb(0,0,0)" rx="2" ry="2" />
<text  x="339.21" y="113.5" ></text>
</g>
<g >
<title>Parloop_Cells_wrap_form00_cell_integral_otherwise (36,365 us, 0.77%)</title><rect x="1137.6" y="183" width="9.1" height="15.0" fill="rgb(0,0,0)" rx="2" ry="2" />
<text  x="1140.59" y="193.5" ></text>
</g>
<g >
<title>Log_Event_slate_loopy_knl_0 (207,393 us, 4.41%)</title><rect x="1059.8" y="199" width="52.1" height="15.0" fill="rgb(0,0,0)" rx="2" ry="2" />
<text  x="1062.81" y="209.5" >Log_..</text>
</g>
<g >
<title>SCForwardElim (1,145,895 us, 24.39%)</title><rect x="833.7" y="135" width="287.8" height="15.0" fill="rgb(0,0,0)" rx="2" ry="2" />
<text  x="836.71" y="145.5" >SCForwardElim</text>
</g>
<g >
<title>Parloop_Cells_wrap_form0_cell_integral_otherwise (40,580 us, 0.86%)</title><rect x="727.0" y="167" width="10.2" height="15.0" fill="rgb(0,0,0)" rx="2" ry="2" />
<text  x="730.04" y="177.5" ></text>
</g>
<g >
<title>firedrake.formmanipulation.split_form (7,262 us, 0.15%)</title><rect x="1173.4" y="135" width="1.8" height="15.0" fill="rgb(0,0,0)" rx="2" ry="2" />
<text  x="1176.40" y="145.5" ></text>
</g>
<g >
<title>firedrake.functionspacedata.get_shared_data (6,523 us, 0.14%)</title><rect x="1171.8" y="167" width="1.6" height="15.0" fill="rgb(0,0,0)" rx="2" ry="2" />
<text  x="1174.76" y="177.5" ></text>
</g>
<g >
<title>firedrake.interpolation.make_interpolator (22,859 us, 0.49%)</title><rect x="1175.2" y="135" width="5.8" height="15.0" fill="rgb(0,0,0)" rx="2" ry="2" />
<text  x="1178.22" y="145.5" ></text>
</g>
<g >
<title>firedrake.tsfc_interface.compile_form (15,133 us, 0.32%)</title><rect x="1162.4" y="167" width="3.8" height="15.0" fill="rgb(0,0,0)" rx="2" ry="2" />
<text  x="1165.36" y="177.5" ></text>
</g>
<g >
<title>Parloop_Cells_wrap_pyop2_kernel_uniform_extrusion (37,921 us, 0.81%)</title><rect x="325.1" y="119" width="9.5" height="15.0" fill="rgb(0,0,0)" rx="2" ry="2" />
<text  x="328.09" y="129.5" ></text>
</g>
<g >
<title>firedrake.functionspaceimpl.FunctionSpace.__init__ (6,329 us, 0.13%)</title><rect x="334.6" y="119" width="1.6" height="15.0" fill="rgb(0,0,0)" rx="2" ry="2" />
<text  x="337.62" y="129.5" ></text>
</g>
<g >
<title>firedrake.ufl_expr.action (5,195 us, 0.11%)</title><rect x="719.7" y="87" width="1.3" height="15.0" fill="rgb(0,0,0)" rx="2" ry="2" />
<text  x="722.68" y="97.5" ></text>
</g>
<g >
<title>firedrake.functionspaceimpl.FunctionSpace.__init__ (6,523 us, 0.14%)</title><rect x="1171.8" y="151" width="1.6" height="15.0" fill="rgb(0,0,0)" rx="2" ry="2" />
<text  x="1174.76" y="161.5" ></text>
</g>
<g >
<title>firedrake.matrix_free.operators.ImplicitMatrixContext.__init__ (7,686 us, 0.16%)</title><rect x="723.9" y="103" width="2.0" height="15.0" fill="rgb(0,0,0)" rx="2" ry="2" />
<text  x="726.94" y="113.5" ></text>
</g>
</g>
</svg>
