<?xml version="1.0" standalone="no"?>
<!DOCTYPE svg PUBLIC "-//W3C//DTD SVG 1.1//EN" "http://www.w3.org/Graphics/SVG/1.1/DTD/svg11.dtd">
<svg version="1.1" width="1200" height="427" onload="init(evt)" viewBox="0 0 1200 427" xmlns="http://www.w3.org/2000/svg" xmlns:xlink="http://www.w3.org/1999/xlink">
<!-- Flame graph stack visualization. See https://github.com/brendangregg/FlameGraph for latest version, and http://www.brendangregg.com/flamegraphs.html for examples. -->
<!-- NOTES:  -->
<defs>
	<linearGradient id="background" y1="0" y2="1" x1="0" x2="0" >
		<stop stop-color="#eeeeee" offset="5%" />
		<stop stop-color="#eeeeb0" offset="95%" />
	</linearGradient>
</defs>
<style type="text/css">
	text { font-family:Verdana; font-size:13px; fill:rgb(0,0,0); }
	#search, #ignorecase { opacity:0.1; cursor:pointer; }
	#search:hover, #search.show, #ignorecase:hover, #ignorecase.show { opacity:1; }
	#subtitle { text-anchor:middle; font-color:rgb(160,160,160); }
	#title { text-anchor:middle; font-size:18px}
	#unzoom { cursor:pointer; }
	#frames > *:hover { stroke:black; stroke-width:0.5; cursor:pointer; }
	.hide { display:none; }
	.parent { opacity:0.5; }
</style>
<script type="text/ecmascript">
<![CDATA[
	"use strict";
	var details, searchbtn, unzoombtn, matchedtxt, svg, searching, currentSearchTerm, ignorecase, ignorecaseBtn;
	function init(evt) {
		details = document.getElementById("details").firstChild;
		searchbtn = document.getElementById("search");
		ignorecaseBtn = document.getElementById("ignorecase");
		unzoombtn = document.getElementById("unzoom");
		matchedtxt = document.getElementById("matched");
		svg = document.getElementsByTagName("svg")[0];
		searching = 0;
		currentSearchTerm = null;

		// use GET parameters to restore a flamegraphs state.
		var params = get_params();
		if (params.x && params.y)
			zoom(find_group(document.querySelector('[x="' + params.x + '"][y="' + params.y + '"]')));
                if (params.s) search(params.s);
	}

	// event listeners
	window.addEventListener("click", function(e) {
		var target = find_group(e.target);
		if (target) {
			if (target.nodeName == "a") {
				if (e.ctrlKey === false) return;
				e.preventDefault();
			}
			if (target.classList.contains("parent")) unzoom();
			zoom(target);
			if (!document.querySelector('.parent')) {
				clearzoom();
				return;
			}

			// set parameters for zoom state
			var el = target.querySelector("rect");
			if (el && el.attributes && el.attributes.y && el.attributes._orig_x) {
				var params = get_params()
				params.x = el.attributes._orig_x.value;
				params.y = el.attributes.y.value;
				history.replaceState(null, null, parse_params(params));
			}
		}
		else if (e.target.id == "unzoom") clearzoom();
		else if (e.target.id == "search") search_prompt();
		else if (e.target.id == "ignorecase") toggle_ignorecase();
	}, false)

	// mouse-over for info
	// show
	window.addEventListener("mouseover", function(e) {
		var target = find_group(e.target);
		if (target) details.nodeValue = "Function: " + g_to_text(target);
	}, false)

	// clear
	window.addEventListener("mouseout", function(e) {
		var target = find_group(e.target);
		if (target) details.nodeValue = ' ';
	}, false)

	// ctrl-F for search
	// ctrl-I to toggle case-sensitive search
	window.addEventListener("keydown",function (e) {
		if (e.keyCode === 114 || (e.ctrlKey && e.keyCode === 70)) {
			e.preventDefault();
			search_prompt();
		}
		else if (e.ctrlKey && e.keyCode === 73) {
			e.preventDefault();
			toggle_ignorecase();
		}
	}, false)

	// functions
	function get_params() {
		var params = {};
		var paramsarr = window.location.search.substr(1).split('&');
		for (var i = 0; i < paramsarr.length; ++i) {
			var tmp = paramsarr[i].split("=");
			if (!tmp[0] || !tmp[1]) continue;
			params[tmp[0]]  = decodeURIComponent(tmp[1]);
		}
		return params;
	}
	function parse_params(params) {
		var uri = "?";
		for (var key in params) {
			uri += key + '=' + encodeURIComponent(params[key]) + '&';
		}
		if (uri.slice(-1) == "&")
			uri = uri.substring(0, uri.length - 1);
		if (uri == '?')
			uri = window.location.href.split('?')[0];
		return uri;
	}
	function find_child(node, selector) {
		var children = node.querySelectorAll(selector);
		if (children.length) return children[0];
	}
	function find_group(node) {
		var parent = node.parentElement;
		if (!parent) return;
		if (parent.id == "frames") return node;
		return find_group(parent);
	}
	function orig_save(e, attr, val) {
		if (e.attributes["_orig_" + attr] != undefined) return;
		if (e.attributes[attr] == undefined) return;
		if (val == undefined) val = e.attributes[attr].value;
		e.setAttribute("_orig_" + attr, val);
	}
	function orig_load(e, attr) {
		if (e.attributes["_orig_"+attr] == undefined) return;
		e.attributes[attr].value = e.attributes["_orig_" + attr].value;
		e.removeAttribute("_orig_"+attr);
	}
	function g_to_text(e) {
		var text = find_child(e, "title").firstChild.nodeValue;
		return (text)
	}
	function g_to_func(e) {
		var func = g_to_text(e);
		// if there's any manipulation we want to do to the function
		// name before it's searched, do it here before returning.
		return (func);
	}
	function update_text(e) {
		var r = find_child(e, "rect");
		var t = find_child(e, "text");
		var w = parseFloat(r.attributes.width.value) -3;
		var txt = find_child(e, "title").textContent.replace(/\([^(]*\)$/,"");
		t.attributes.x.value = parseFloat(r.attributes.x.value) + 3;

		// Smaller than this size won't fit anything
		if (w < 2 * 13 * 0.59) {
			t.textContent = "";
			return;
		}

		t.textContent = txt;
		// Fit in full text width
		if (/^ *$/.test(txt) || t.getSubStringLength(0, txt.length) < w)
			return;

		for (var x = txt.length - 2; x > 0; x--) {
			if (t.getSubStringLength(0, x + 2) <= w) {
				t.textContent = txt.substring(0, x) + "..";
				return;
			}
		}
		t.textContent = "";
	}

	// zoom
	function zoom_reset(e) {
		if (e.attributes != undefined) {
			orig_load(e, "x");
			orig_load(e, "width");
		}
		if (e.childNodes == undefined) return;
		for (var i = 0, c = e.childNodes; i < c.length; i++) {
			zoom_reset(c[i]);
		}
	}
	function zoom_child(e, x, ratio) {
		if (e.attributes != undefined) {
			if (e.attributes.x != undefined) {
				orig_save(e, "x");
				e.attributes.x.value = (parseFloat(e.attributes.x.value) - x - 10) * ratio + 10;
				if (e.tagName == "text")
					e.attributes.x.value = find_child(e.parentNode, "rect[x]").attributes.x.value + 3;
			}
			if (e.attributes.width != undefined) {
				orig_save(e, "width");
				e.attributes.width.value = parseFloat(e.attributes.width.value) * ratio;
			}
		}

		if (e.childNodes == undefined) return;
		for (var i = 0, c = e.childNodes; i < c.length; i++) {
			zoom_child(c[i], x - 10, ratio);
		}
	}
	function zoom_parent(e) {
		if (e.attributes) {
			if (e.attributes.x != undefined) {
				orig_save(e, "x");
				e.attributes.x.value = 10;
			}
			if (e.attributes.width != undefined) {
				orig_save(e, "width");
				e.attributes.width.value = parseInt(svg.width.baseVal.value) - (10 * 2);
			}
		}
		if (e.childNodes == undefined) return;
		for (var i = 0, c = e.childNodes; i < c.length; i++) {
			zoom_parent(c[i]);
		}
	}
	function zoom(node) {
		var attr = find_child(node, "rect").attributes;
		var width = parseFloat(attr.width.value);
		var xmin = parseFloat(attr.x.value);
		var xmax = parseFloat(xmin + width);
		var ymin = parseFloat(attr.y.value);
		var ratio = (svg.width.baseVal.value - 2 * 10) / width;

		// XXX: Workaround for JavaScript float issues (fix me)
		var fudge = 0.0001;

		unzoombtn.classList.remove("hide");

		var el = document.getElementById("frames").children;
		for (var i = 0; i < el.length; i++) {
			var e = el[i];
			var a = find_child(e, "rect").attributes;
			var ex = parseFloat(a.x.value);
			var ew = parseFloat(a.width.value);
			var upstack;
			// Is it an ancestor
			if (1 == 0) {
				upstack = parseFloat(a.y.value) > ymin;
			} else {
				upstack = parseFloat(a.y.value) < ymin;
			}
			if (upstack) {
				// Direct ancestor
				if (ex <= xmin && (ex+ew+fudge) >= xmax) {
					e.classList.add("parent");
					zoom_parent(e);
					update_text(e);
				}
				// not in current path
				else
					e.classList.add("hide");
			}
			// Children maybe
			else {
				// no common path
				if (ex < xmin || ex + fudge >= xmax) {
					e.classList.add("hide");
				}
				else {
					zoom_child(e, xmin, ratio);
					update_text(e);
				}
			}
		}
		search();
	}
	function unzoom() {
		unzoombtn.classList.add("hide");
		var el = document.getElementById("frames").children;
		for(var i = 0; i < el.length; i++) {
			el[i].classList.remove("parent");
			el[i].classList.remove("hide");
			zoom_reset(el[i]);
			update_text(el[i]);
		}
		search();
	}
	function clearzoom() {
		unzoom();

		// remove zoom state
		var params = get_params();
		if (params.x) delete params.x;
		if (params.y) delete params.y;
		history.replaceState(null, null, parse_params(params));
	}

	// search
	function toggle_ignorecase() {
		ignorecase = !ignorecase;
		if (ignorecase) {
			ignorecaseBtn.classList.add("show");
		} else {
			ignorecaseBtn.classList.remove("show");
		}
		reset_search();
		search();
	}
	function reset_search() {
		var el = document.querySelectorAll("#frames rect");
		for (var i = 0; i < el.length; i++) {
			orig_load(el[i], "fill")
		}
		var params = get_params();
		delete params.s;
		history.replaceState(null, null, parse_params(params));
	}
	function search_prompt() {
		if (!searching) {
			var term = prompt("Enter a search term (regexp " +
			    "allowed, eg: ^ext4_)"
			    + (ignorecase ? ", ignoring case" : "")
			    + "\nPress Ctrl-i to toggle case sensitivity", "");
			if (term != null) search(term);
		} else {
			reset_search();
			searching = 0;
			currentSearchTerm = null;
			searchbtn.classList.remove("show");
			searchbtn.firstChild.nodeValue = "Search"
			matchedtxt.classList.add("hide");
			matchedtxt.firstChild.nodeValue = ""
		}
	}
	function search(term) {
		if (term) currentSearchTerm = term;

		var re = new RegExp(currentSearchTerm, ignorecase ? 'i' : '');
		var el = document.getElementById("frames").children;
		var matches = new Object();
		var maxwidth = 0;
		for (var i = 0; i < el.length; i++) {
			var e = el[i];
			var func = g_to_func(e);
			var rect = find_child(e, "rect");
			if (func == null || rect == null)
				continue;

			// Save max width. Only works as we have a root frame
			var w = parseFloat(rect.attributes.width.value);
			if (w > maxwidth)
				maxwidth = w;

			if (func.match(re)) {
				// highlight
				var x = parseFloat(rect.attributes.x.value);
				orig_save(rect, "fill");
				rect.attributes.fill.value = "rgb(230,0,230)";

				// remember matches
				if (matches[x] == undefined) {
					matches[x] = w;
				} else {
					if (w > matches[x]) {
						// overwrite with parent
						matches[x] = w;
					}
				}
				searching = 1;
			}
		}
		if (!searching)
			return;
		var params = get_params();
		params.s = currentSearchTerm;
		history.replaceState(null, null, parse_params(params));

		searchbtn.classList.add("show");
		searchbtn.firstChild.nodeValue = "Reset Search";

		// calculate percent matched, excluding vertical overlap
		var count = 0;
		var lastx = -1;
		var lastw = 0;
		var keys = Array();
		for (k in matches) {
			if (matches.hasOwnProperty(k))
				keys.push(k);
		}
		// sort the matched frames by their x location
		// ascending, then width descending
		keys.sort(function(a, b){
			return a - b;
		});
		// Step through frames saving only the biggest bottom-up frames
		// thanks to the sort order. This relies on the tree property
		// where children are always smaller than their parents.
		var fudge = 0.0001;	// JavaScript floating point
		for (var k in keys) {
			var x = parseFloat(keys[k]);
			var w = matches[keys[k]];
			if (x >= lastx + lastw - fudge) {
				count += w;
				lastx = x;
				lastw = w;
			}
		}
		// display matched percent
		matchedtxt.classList.remove("hide");
		var pct = 100 * count / maxwidth;
		if (pct != 100) pct = pct.toFixed(1)
		matchedtxt.firstChild.nodeValue = "Matched: " + pct + "%";
	}
]]>
</script>
<rect x="0.0" y="0" width="1200.0" height="427.0" fill="url(#background)"  />
<text id="title" x="600.00" y="26" >Firedrake example</text>
<text id="details" x="10.00" y="409" > </text>
<text id="unzoom" x="10.00" y="26" class="hide">Reset Zoom</text>
<text id="search" x="1090.00" y="26" >Search</text>
<text id="ignorecase" x="1174.00" y="26" >ic</text>
<text id="matched" x="1090.00" y="409" > </text>
<g id="frames">
<g >
<title>firedrake.extrusion_utils.make_extruded_coords (888,085 us, 0.25%)</title><rect x="13.0" y="87" width="2.9" height="15.0" fill="rgb(0,0,0)" rx="2" ry="2" />
<text  x="15.98" y="97.5" ></text>
</g>
<g >
<title>ParLoopExecute (668,354 us, 0.18%)</title><rect x="1166.4" y="151" width="2.2" height="15.0" fill="rgb(0,0,0)" rx="2" ry="2" />
<text  x="1169.40" y="161.5" ></text>
</g>
<g >
<title>MatMultTranspose (1,081,965 us, 0.30%)</title><rect x="660.6" y="247" width="3.5" height="15.0" fill="rgb(0,0,0)" rx="2" ry="2" />
<text  x="663.55" y="257.5" ></text>
</g>
<g >
<title>Parloop_set_#x7f98901c3c40_wrap_pyop2_kernel_prolong (592,965 us, 0.16%)</title><rect x="649.7" y="327" width="2.0" height="15.0" fill="rgb(0,0,0)" rx="2" ry="2" />
<text  x="652.72" y="337.5" ></text>
</g>
<g >
<title>firedrake.tsfc_interface.compile_form (6,309,874 us, 1.75%)</title><rect x="1122.8" y="231" width="20.6" height="15.0" fill="rgb(0,0,0)" rx="2" ry="2" />
<text  x="1125.83" y="241.5" ></text>
</g>
<g >
<title>HybridProject (884,734 us, 0.24%)</title><rect x="44.8" y="151" width="2.9" height="15.0" fill="rgb(0,0,0)" rx="2" ry="2" />
<text  x="47.83" y="161.5" ></text>
</g>
<g >
<title>ParLoopExecute (5,390,081 us, 1.49%)</title><rect x="20.8" y="151" width="17.6" height="15.0" fill="rgb(0,0,0)" rx="2" ry="2" />
<text  x="23.82" y="161.5" ></text>
</g>
<g >
<title>KSPSolve (152,643,259 us, 42.22%)</title><rect x="646.3" y="151" width="498.2" height="15.0" fill="rgb(0,0,0)" rx="2" ry="2" />
<text  x="649.28" y="161.5" >KSPSolve</text>
</g>
<g >
<title>KSPSolve (350,902,971 us, 97.06%)</title><rect x="20.8" y="103" width="1145.4" height="15.0" fill="rgb(0,0,0)" rx="2" ry="2" />
<text  x="23.82" y="113.5" >KSPSolve</text>
</g>
<g >
<title>all (361,520,294 us, 100%)</title><rect x="10.0" y="39" width="1180.0" height="15.0" fill="rgb(0,0,0)" rx="2" ry="2" />
<text  x="13.00" y="49.5" ></text>
</g>
<g >
<title>HybridInit (742,048 us, 0.21%)</title><rect x="1166.2" y="119" width="2.4" height="15.0" fill="rgb(0,0,0)" rx="2" ry="2" />
<text  x="1169.16" y="129.5" ></text>
</g>
<g >
<title>PCSetUp (6,635,874 us, 1.84%)</title><rect x="1144.5" y="151" width="21.7" height="15.0" fill="rgb(0,0,0)" rx="2" ry="2" />
<text  x="1147.50" y="161.5" ></text>
</g>
<g >
<title>firedrake.tsfc_interface.compile_form (13,568,183 us, 3.75%)</title><rect x="231.9" y="167" width="44.3" height="15.0" fill="rgb(0,0,0)" rx="2" ry="2" />
<text  x="234.93" y="177.5" >fir..</text>
</g>
<g >
<title>firedrake.tsfc_interface.compile_form (332,127 us, 0.09%)</title><rect x="1165.1" y="167" width="1.1" height="15.0" fill="rgb(0,0,0)" rx="2" ry="2" />
<text  x="1168.08" y="177.5" ></text>
</g>
<g >
<title>firedrake.tsfc_interface.compile_form (329,082 us, 0.09%)</title><rect x="1143.4" y="215" width="1.1" height="15.0" fill="rgb(0,0,0)" rx="2" ry="2" />
<text  x="1146.43" y="225.5" ></text>
</g>
<g >
<title>Parloop_Cells_wrap_pyop2_kernel_uniform_extrusion (888,085 us, 0.25%)</title><rect x="13.0" y="119" width="2.9" height="15.0" fill="rgb(0,0,0)" rx="2" ry="2" />
<text  x="15.98" y="129.5" ></text>
</g>
<g >
<title>Log_Event_mtf_solve_89 (39,465 us, 0.01%)</title><rect x="664.4" y="295" width="0.1" height="15.0" fill="rgb(0,0,0)" rx="2" ry="2" />
<text  x="667.40" y="305.5" ></text>
</g>
<g >
<title>Log_Event_mtf_solve_89 (99,680 us, 0.03%)</title><rect x="708.8" y="311" width="0.4" height="15.0" fill="rgb(0,0,0)" rx="2" ry="2" />
<text  x="711.84" y="321.5" ></text>
</g>
<g >
<title>pyop2.global_kernel.GlobalKernel.compile (78,691,162 us, 21.77%)</title><rect x="709.2" y="295" width="256.8" height="15.0" fill="rgb(0,0,0)" rx="2" ry="2" />
<text  x="712.17" y="305.5" >pyop2.global_kernel.GlobalKerne..</text>
</g>
<g >
<title>firedrake.matrix_free.operators.ImplicitMatrixContext.mult (6,274,043 us, 1.74%)</title><rect x="20.8" y="135" width="20.5" height="15.0" fill="rgb(0,0,0)" rx="2" ry="2" />
<text  x="23.82" y="145.5" ></text>
</g>
<g >
<title>firedrake.mg.embedded.TransferManager.op (2,312,682 us, 0.64%)</title><rect x="653.0" y="279" width="7.6" height="15.0" fill="rgb(0,0,0)" rx="2" ry="2" />
<text  x="656.00" y="289.5" ></text>
</g>
<g >
<title>ParLoopExecute (592,965 us, 0.16%)</title><rect x="649.7" y="311" width="2.0" height="15.0" fill="rgb(0,0,0)" rx="2" ry="2" />
<text  x="652.72" y="321.5" ></text>
</g>
<g >
<title>pyop2.global_kernel.GlobalKernel.compile (668,354 us, 0.18%)</title><rect x="1166.4" y="183" width="2.2" height="15.0" fill="rgb(0,0,0)" rx="2" ry="2" />
<text  x="1169.40" y="193.5" ></text>
</g>
<g >
<title>Parloop_Cells_wrap_form1_cell_integral_otherwise (2,374,901 us, 0.66%)</title><rect x="1178.7" y="135" width="7.8" height="15.0" fill="rgb(0,0,0)" rx="2" ry="2" />
<text  x="1181.71" y="145.5" ></text>
</g>
<g >
<title>firedrake.dmhooks.coarsen (2,312,682 us, 0.64%)</title><rect x="653.0" y="263" width="7.6" height="15.0" fill="rgb(0,0,0)" rx="2" ry="2" />
<text  x="656.00" y="273.5" ></text>
</g>
<g >
<title>CreateExtMesh (888,085 us, 0.25%)</title><rect x="13.0" y="71" width="2.9" height="15.0" fill="rgb(0,0,0)" rx="2" ry="2" />
<text  x="15.98" y="81.5" ></text>
</g>
<g >
<title>pyop2.global_kernel.GlobalKernel.compile (884,734 us, 0.24%)</title><rect x="44.8" y="215" width="2.9" height="15.0" fill="rgb(0,0,0)" rx="2" ry="2" />
<text  x="47.83" y="225.5" ></text>
</g>
<g >
<title>pyop2.global_kernel.GlobalKernel.compile (1,031,384 us, 0.29%)</title><rect x="655.9" y="375" width="3.3" height="15.0" fill="rgb(0,0,0)" rx="2" ry="2" />
<text  x="658.85" y="385.5" ></text>
</g>
<g >
<title>PCSetUp (147,051,768 us, 40.68%)</title><rect x="664.5" y="183" width="480.0" height="15.0" fill="rgb(0,0,0)" rx="2" ry="2" />
<text  x="667.53" y="193.5" >PCSetUp</text>
</g>
<g >
<title>firedrake.matrix_free.operators.ImplicitMatrixContext.mult (135,818 us, 0.04%)</title><rect x="646.3" y="183" width="0.4" height="15.0" fill="rgb(0,0,0)" rx="2" ry="2" />
<text  x="649.28" y="193.5" ></text>
</g>
<g >
<title>Parloop_Cells_wrap_slate_loopy_knl_87 (135,818 us, 0.04%)</title><rect x="646.3" y="215" width="0.4" height="15.0" fill="rgb(0,0,0)" rx="2" ry="2" />
<text  x="649.28" y="225.5" ></text>
</g>
<g >
<title>pyop2.global_kernel.GlobalKernel.compile (5,053,236 us, 1.40%)</title><rect x="1148.6" y="199" width="16.5" height="15.0" fill="rgb(0,0,0)" rx="2" ry="2" />
<text  x="1151.58" y="209.5" ></text>
</g>
<g >
<title>Log_Event_slate_loopy_knl_87 (135,818 us, 0.04%)</title><rect x="646.3" y="231" width="0.4" height="15.0" fill="rgb(0,0,0)" rx="2" ry="2" />
<text  x="649.28" y="241.5" ></text>
</g>
<g >
<title>ParLoopExecute (674,559 us, 0.19%)</title><rect x="660.6" y="279" width="2.2" height="15.0" fill="rgb(0,0,0)" rx="2" ry="2" />
<text  x="663.55" y="289.5" ></text>
</g>
<g >
<title>ParLoopExecute (21,158,863 us, 5.85%)</title><rect x="1053.8" y="231" width="69.0" height="15.0" fill="rgb(0,0,0)" rx="2" ry="2" />
<text  x="1056.77" y="241.5" >ParLoop..</text>
</g>
<g >
<title>KSPSetUp (146,722,686 us, 40.58%)</title><rect x="664.5" y="199" width="478.9" height="15.0" fill="rgb(0,0,0)" rx="2" ry="2" />
<text  x="667.53" y="209.5" >KSPSetUp</text>
</g>
<g >
<title>firedrake.__init__ (1,511,760 us, 0.42%)</title><rect x="15.9" y="71" width="4.9" height="15.0" fill="rgb(0,0,0)" rx="2" ry="2" />
<text  x="18.88" y="81.5" ></text>
</g>
<g >
<title>ParLoopExecute (39,758,482 us, 11.00%)</title><rect x="102.2" y="167" width="129.7" height="15.0" fill="rgb(0,0,0)" rx="2" ry="2" />
<text  x="105.16" y="177.5" >ParLoopExecute</text>
</g>
<g >
<title>ParLoopExecute (79,031,614 us, 21.86%)</title><rect x="708.1" y="263" width="257.9" height="15.0" fill="rgb(0,0,0)" rx="2" ry="2" />
<text  x="711.06" y="273.5" >ParLoopExecute</text>
</g>
<g >
<title>Log_Event_mtf_solve_130 (40,592 us, 0.01%)</title><rect x="646.5" y="247" width="0.1" height="15.0" fill="rgb(0,0,0)" rx="2" ry="2" />
<text  x="649.46" y="257.5" ></text>
</g>
<g >
<title>Parloop_set_#x7f98901c3c40_wrap_pyop2_kernel_inject (579,301 us, 0.16%)</title><rect x="654.0" y="327" width="1.9" height="15.0" fill="rgb(0,0,0)" rx="2" ry="2" />
<text  x="656.96" y="337.5" ></text>
</g>
<g >
<title>firedrake.parloops.par_loop (668,354 us, 0.18%)</title><rect x="1166.4" y="135" width="2.2" height="15.0" fill="rgb(0,0,0)" rx="2" ry="2" />
<text  x="1169.40" y="145.5" ></text>
</g>
<g >
<title>DMCoarsen (2,312,682 us, 0.64%)</title><rect x="653.0" y="247" width="7.6" height="15.0" fill="rgb(0,0,0)" rx="2" ry="2" />
<text  x="656.00" y="257.5" ></text>
</g>
<g >
<title>firedrake.matrix_free.operators.ImplicitMatrixContext.mult (135,172 us, 0.04%)</title><rect x="664.1" y="231" width="0.4" height="15.0" fill="rgb(0,0,0)" rx="2" ry="2" />
<text  x="667.08" y="241.5" ></text>
</g>
<g >
<title>pyop2.global_kernel.GlobalKernel.compile (2,374,901 us, 0.66%)</title><rect x="1178.7" y="151" width="7.8" height="15.0" fill="rgb(0,0,0)" rx="2" ry="2" />
<text  x="1181.71" y="161.5" ></text>
</g>
<g >
<title>Parloop_Cells_wrap_wrap_slate_loopy_knl_77 (21,158,863 us, 5.85%)</title><rect x="1053.8" y="247" width="69.0" height="15.0" fill="rgb(0,0,0)" rx="2" ry="2" />
<text  x="1056.77" y="257.5" >Parloop..</text>
</g>
<g >
<title>Log_Event_subkernel101_interior_facet_vert_to__exterior_facet_vert_integral_otherwise (38,733 us, 0.01%)</title><rect x="648.4" y="311" width="0.1" height="15.0" fill="rgb(0,0,0)" rx="2" ry="2" />
<text  x="651.37" y="321.5" ></text>
</g>
<g >
<title>firedrake.parloops.par_loop (884,734 us, 0.24%)</title><rect x="44.8" y="167" width="2.9" height="15.0" fill="rgb(0,0,0)" rx="2" ry="2" />
<text  x="47.83" y="177.5" ></text>
</g>
<g >
<title>Log_Event_slate_loopy_knl_87 (340,452 us, 0.09%)</title><rect x="708.1" y="295" width="1.1" height="15.0" fill="rgb(0,0,0)" rx="2" ry="2" />
<text  x="711.06" y="305.5" ></text>
</g>
<g >
<title>Parloop_Cells_wrap_form0_cell_integral_otherwise (3,164,065 us, 0.88%)</title><rect x="20.8" y="167" width="10.3" height="15.0" fill="rgb(0,0,0)" rx="2" ry="2" />
<text  x="23.82" y="177.5" ></text>
</g>
<g >
<title>pyop2.global_kernel.GlobalKernel.compile (10,718,424 us, 2.96%)</title><rect x="47.7" y="183" width="35.0" height="15.0" fill="rgb(0,0,0)" rx="2" ry="2" />
<text  x="50.72" y="193.5" >py..</text>
</g>
<g >
<title>PCSetUp (3,394,647 us, 0.94%)</title><rect x="653.0" y="231" width="11.1" height="15.0" fill="rgb(0,0,0)" rx="2" ry="2" />
<text  x="656.00" y="241.5" ></text>
</g>
<g >
<title>MatMult (135,172 us, 0.04%)</title><rect x="664.1" y="215" width="0.4" height="15.0" fill="rgb(0,0,0)" rx="2" ry="2" />
<text  x="667.08" y="225.5" ></text>
</g>
<g >
<title>ParLoopExecute (982,410 us, 0.27%)</title><rect x="283.6" y="183" width="3.2" height="15.0" fill="rgb(0,0,0)" rx="2" ry="2" />
<text  x="286.57" y="193.5" ></text>
</g>
<g >
<title>Log_Event_tensorshell_knl_143 (65,504 us, 0.02%)</title><rect x="648.2" y="311" width="0.2" height="15.0" fill="rgb(0,0,0)" rx="2" ry="2" />
<text  x="651.15" y="321.5" ></text>
</g>
<g >
<title>KSPSolve (5,320,501 us, 1.47%)</title><rect x="646.7" y="199" width="17.4" height="15.0" fill="rgb(0,0,0)" rx="2" ry="2" />
<text  x="649.72" y="209.5" ></text>
</g>
<g >
<title>ParLoopExecute (6,264,828 us, 1.73%)</title><rect x="1144.6" y="167" width="20.5" height="15.0" fill="rgb(0,0,0)" rx="2" ry="2" />
<text  x="1147.63" y="177.5" ></text>
</g>
<g >
<title>ParLoopExecute (888,085 us, 0.25%)</title><rect x="13.0" y="103" width="2.9" height="15.0" fill="rgb(0,0,0)" rx="2" ry="2" />
<text  x="15.98" y="113.5" ></text>
</g>
<g >
<title>Parloop_Cells_wrap_expression_kernel (1,211,592 us, 0.34%)</title><rect x="1144.6" y="183" width="4.0" height="15.0" fill="rgb(0,0,0)" rx="2" ry="2" />
<text  x="1147.63" y="193.5" ></text>
</g>
<g >
<title>ParLoopExecute (884,734 us, 0.24%)</title><rect x="44.8" y="183" width="2.9" height="15.0" fill="rgb(0,0,0)" rx="2" ry="2" />
<text  x="47.83" y="193.5" ></text>
</g>
<g >
<title>Parloop_Cells_wrap_slate_loopy_knl_87 (135,172 us, 0.04%)</title><rect x="664.1" y="263" width="0.4" height="15.0" fill="rgb(0,0,0)" rx="2" ry="2" />
<text  x="667.08" y="273.5" ></text>
</g>
<g >
<title>PCApply (5,455,673 us, 1.51%)</title><rect x="646.7" y="183" width="17.8" height="15.0" fill="rgb(0,0,0)" rx="2" ry="2" />
<text  x="649.72" y="193.5" ></text>
</g>
<g >
<title>firedrake.tsfc_interface.compile_form (23,178,323 us, 6.41%)</title><rect x="966.0" y="263" width="75.7" height="15.0" fill="rgb(0,0,0)" rx="2" ry="2" />
<text  x="969.02" y="273.5" >firedra..</text>
</g>
<g >
<title>ParLoopExecute (135,818 us, 0.04%)</title><rect x="646.3" y="199" width="0.4" height="15.0" fill="rgb(0,0,0)" rx="2" ry="2" />
<text  x="649.28" y="209.5" ></text>
</g>
<g >
<title>SCForwardElim (111,124,278 us, 30.74%)</title><rect x="283.6" y="135" width="362.7" height="15.0" fill="rgb(0,0,0)" rx="2" ry="2" />
<text  x="286.57" y="145.5" >SCForwardElim</text>
</g>
<g >
<title>Parloop_Cells_wrap_slate_loopy_knl_87 (672,867 us, 0.19%)</title><rect x="646.7" y="263" width="2.2" height="15.0" fill="rgb(0,0,0)" rx="2" ry="2" />
<text  x="649.72" y="273.5" ></text>
</g>
<g >
<title>firedrake.pointquery_utils.to_reference_coordinates (409,093 us, 0.11%)</title><rect x="659.2" y="311" width="1.4" height="15.0" fill="rgb(0,0,0)" rx="2" ry="2" />
<text  x="662.22" y="321.5" ></text>
</g>
<g >
<title>PCApply (344,628,928 us, 95.33%)</title><rect x="41.3" y="119" width="1124.9" height="15.0" fill="rgb(0,0,0)" rx="2" ry="2" />
<text  x="44.29" y="129.5" >PCApply</text>
</g>
<g >
<title>MatMult (115,546,674 us, 31.96%)</title><rect x="664.5" y="231" width="377.2" height="15.0" fill="rgb(0,0,0)" rx="2" ry="2" />
<text  x="667.53" y="241.5" >MatMult</text>
</g>
<g >
<title>Parloop_Cells_wrap_form0_cell_integral_otherwise (3,103,053 us, 0.86%)</title><rect x="1168.6" y="135" width="10.1" height="15.0" fill="rgb(0,0,0)" rx="2" ry="2" />
<text  x="1171.58" y="145.5" ></text>
</g>
<g >
<title>firedrake.tsfc_interface.compile_form (2,250,934 us, 0.62%)</title><rect x="276.2" y="151" width="7.4" height="15.0" fill="rgb(0,0,0)" rx="2" ry="2" />
<text  x="279.22" y="161.5" ></text>
</g>
<g >
<title>Log_Event_slate_loopy_knl_87 (135,172 us, 0.04%)</title><rect x="664.1" y="279" width="0.4" height="15.0" fill="rgb(0,0,0)" rx="2" ry="2" />
<text  x="667.08" y="289.5" ></text>
</g>
<g >
<title>PCApply (4,647,634 us, 1.29%)</title><rect x="648.9" y="215" width="15.2" height="15.0" fill="rgb(0,0,0)" rx="2" ry="2" />
<text  x="651.91" y="225.5" ></text>
</g>
<g >
<title>firedrake (361,520,294 us, 100.00%)</title><rect x="10.0" y="55" width="1180.0" height="15.0" fill="rgb(0,0,0)" rx="2" ry="2" />
<text  x="13.00" y="65.5" >firedrake</text>
</g>
<g >
<title>pyop2.global_kernel.GlobalKernel.compile (579,301 us, 0.16%)</title><rect x="654.0" y="343" width="1.9" height="15.0" fill="rgb(0,0,0)" rx="2" ry="2" />
<text  x="656.96" y="353.5" ></text>
</g>
<g >
<title>firedrake.parloops.par_loop (982,410 us, 0.27%)</title><rect x="283.6" y="167" width="3.2" height="15.0" fill="rgb(0,0,0)" rx="2" ry="2" />
<text  x="286.57" y="177.5" ></text>
</g>
<g >
<title>Parloop_Cells_wrap_par_loop_kernel (668,354 us, 0.18%)</title><rect x="1166.4" y="167" width="2.2" height="15.0" fill="rgb(0,0,0)" rx="2" ry="2" />
<text  x="1169.40" y="177.5" ></text>
</g>
<g >
<title>firedrake.mg.interface.prolong (1,252,987 us, 0.35%)</title><rect x="648.9" y="295" width="4.1" height="15.0" fill="rgb(0,0,0)" rx="2" ry="2" />
<text  x="651.91" y="305.5" ></text>
</g>
<g >
<title>firedrake.interpolation.Interpolator.interpolate (1,031,384 us, 0.29%)</title><rect x="655.9" y="327" width="3.3" height="15.0" fill="rgb(0,0,0)" rx="2" ry="2" />
<text  x="658.85" y="337.5" ></text>
</g>
<g >
<title>pyop2.global_kernel.GlobalKernel.compile (3,103,053 us, 0.86%)</title><rect x="1168.6" y="151" width="10.1" height="15.0" fill="rgb(0,0,0)" rx="2" ry="2" />
<text  x="1171.58" y="161.5" ></text>
</g>
<g >
<title>PCSetUp (329,082 us, 0.09%)</title><rect x="1143.4" y="199" width="1.1" height="15.0" fill="rgb(0,0,0)" rx="2" ry="2" />
<text  x="1146.43" y="209.5" ></text>
</g>
<g >
<title>HybridBreak (982,410 us, 0.27%)</title><rect x="283.6" y="151" width="3.2" height="15.0" fill="rgb(0,0,0)" rx="2" ry="2" />
<text  x="286.57" y="161.5" ></text>
</g>
<g >
<title>Log_Event_mtf_solve_89 (167,424 us, 0.05%)</title><rect x="648.4" y="295" width="0.5" height="15.0" fill="rgb(0,0,0)" rx="2" ry="2" />
<text  x="651.37" y="305.5" ></text>
</g>
<g >
<title>firedrake.matrix_free.operators.ImplicitMatrixContext.mult (115,546,674 us, 31.96%)</title><rect x="664.5" y="247" width="377.2" height="15.0" fill="rgb(0,0,0)" rx="2" ry="2" />
<text  x="667.53" y="257.5" >firedrake.matrix_free.operators.ImplicitMatrixC..</text>
</g>
<g >
<title>MatMult (672,867 us, 0.19%)</title><rect x="646.7" y="215" width="2.2" height="15.0" fill="rgb(0,0,0)" rx="2" ry="2" />
<text  x="649.72" y="225.5" ></text>
</g>
<g >
<title>ParLoopExecute (10,718,424 us, 2.96%)</title><rect x="47.7" y="151" width="35.0" height="15.0" fill="rgb(0,0,0)" rx="2" ry="2" />
<text  x="50.72" y="161.5" >Pa..</text>
</g>
<g >
<title>PCApply (1,252,987 us, 0.35%)</title><rect x="648.9" y="231" width="4.1" height="15.0" fill="rgb(0,0,0)" rx="2" ry="2" />
<text  x="651.91" y="241.5" ></text>
</g>
<g >
<title>pyop2.global_kernel.GlobalKernel.compile (21,158,863 us, 5.85%)</title><rect x="1053.8" y="263" width="69.0" height="15.0" fill="rgb(0,0,0)" rx="2" ry="2" />
<text  x="1056.77" y="273.5" >pyop2.g..</text>
</g>
<g >
<title>pyop2.global_kernel.GlobalKernel.compile (3,164,065 us, 0.88%)</title><rect x="20.8" y="183" width="10.3" height="15.0" fill="rgb(0,0,0)" rx="2" ry="2" />
<text  x="23.82" y="193.5" ></text>
</g>
<g >
<title>SCSolve (159,279,133 us, 44.06%)</title><rect x="646.3" y="135" width="519.9" height="15.0" fill="rgb(0,0,0)" rx="2" ry="2" />
<text  x="649.28" y="145.5" >SCSolve</text>
</g>
<g >
<title>firedrake.matrix_free.operators.ImplicitMatrixContext.mult (672,867 us, 0.19%)</title><rect x="646.7" y="231" width="2.2" height="15.0" fill="rgb(0,0,0)" rx="2" ry="2" />
<text  x="649.72" y="241.5" ></text>
</g>
<g >
<title>ParLoopExecute (5,477,954 us, 1.52%)</title><rect x="1168.6" y="119" width="17.9" height="15.0" fill="rgb(0,0,0)" rx="2" ry="2" />
<text  x="1171.58" y="129.5" ></text>
</g>
<g >
<title>SNESSolve (358,206,500 us, 99.08%)</title><rect x="20.8" y="87" width="1169.2" height="15.0" fill="rgb(0,0,0)" rx="2" ry="2" />
<text  x="23.82" y="97.5" >SNESSolve</text>
</g>
<g >
<title>ParLoopExecute (579,301 us, 0.16%)</title><rect x="654.0" y="311" width="1.9" height="15.0" fill="rgb(0,0,0)" rx="2" ry="2" />
<text  x="656.96" y="321.5" ></text>
</g>
<g >
<title>firedrake.pointquery_utils.to_reference_coordinates (407,406 us, 0.11%)</title><rect x="662.8" y="279" width="1.3" height="15.0" fill="rgb(0,0,0)" rx="2" ry="2" />
<text  x="665.75" y="289.5" ></text>
</g>
<g >
<title>PCSetUp (742,048 us, 0.21%)</title><rect x="1166.2" y="103" width="2.4" height="15.0" fill="rgb(0,0,0)" rx="2" ry="2" />
<text  x="1169.16" y="113.5" ></text>
</g>
<g >
<title>firedrake.mg.interface.restrict (1,081,965 us, 0.30%)</title><rect x="660.6" y="263" width="3.5" height="15.0" fill="rgb(0,0,0)" rx="2" ry="2" />
<text  x="663.55" y="273.5" ></text>
</g>
<g >
<title>pyop2.global_kernel.GlobalKernel.compile (982,410 us, 0.27%)</title><rect x="283.6" y="215" width="3.2" height="15.0" fill="rgb(0,0,0)" rx="2" ry="2" />
<text  x="286.57" y="225.5" ></text>
</g>
<g >
<title>MatMult (135,818 us, 0.04%)</title><rect x="646.3" y="167" width="0.4" height="15.0" fill="rgb(0,0,0)" rx="2" ry="2" />
<text  x="649.28" y="177.5" ></text>
</g>
<g >
<title>SNESFunctionEval (6,561,481 us, 1.81%)</title><rect x="1168.6" y="103" width="21.4" height="15.0" fill="rgb(0,0,0)" rx="2" ry="2" />
<text  x="1171.58" y="113.5" ></text>
</g>
<g >
<title>Parloop_Cells_wrap_slate_loopy_knl_209 (10,718,424 us, 2.96%)</title><rect x="47.7" y="167" width="35.0" height="15.0" fill="rgb(0,0,0)" rx="2" ry="2" />
<text  x="50.72" y="177.5" >Pa..</text>
</g>
<g >
<title>MGInterp Level 1 (1,252,987 us, 0.35%)</title><rect x="648.9" y="247" width="4.1" height="15.0" fill="rgb(0,0,0)" rx="2" ry="2" />
<text  x="651.91" y="257.5" ></text>
</g>
<g >
<title>PCApply (152,507,441 us, 42.19%)</title><rect x="646.7" y="167" width="497.8" height="15.0" fill="rgb(0,0,0)" rx="2" ry="2" />
<text  x="649.72" y="177.5" >PCApply</text>
</g>
<g >
<title>Parloop_Cells_wrap_par_loop_kernel (884,734 us, 0.24%)</title><rect x="44.8" y="199" width="2.9" height="15.0" fill="rgb(0,0,0)" rx="2" ry="2" />
<text  x="47.83" y="209.5" ></text>
</g>
<g >
<title>ParLoopExecute (672,867 us, 0.19%)</title><rect x="646.7" y="247" width="2.2" height="15.0" fill="rgb(0,0,0)" rx="2" ry="2" />
<text  x="649.72" y="257.5" ></text>
</g>
<g >
<title>pyop2.global_kernel.GlobalKernel.compile (75,589,298 us, 20.91%)</title><rect x="328.0" y="199" width="246.7" height="15.0" fill="rgb(0,0,0)" rx="2" ry="2" />
<text  x="331.01" y="209.5" >pyop2.global_kernel.GlobalKern..</text>
</g>
<g >
<title>Log_Event_mtf_solve_130 (101,866 us, 0.03%)</title><rect x="708.5" y="311" width="0.3" height="15.0" fill="rgb(0,0,0)" rx="2" ry="2" />
<text  x="711.51" y="321.5" ></text>
</g>
<g >
<title>firedrake.tsfc_interface.compile_form (883,962 us, 0.24%)</title><rect x="38.4" y="151" width="2.9" height="15.0" fill="rgb(0,0,0)" rx="2" ry="2" />
<text  x="41.41" y="161.5" ></text>
</g>
<g >
<title>pyop2.global_kernel.GlobalKernel.compile (2,226,016 us, 0.62%)</title><rect x="31.1" y="183" width="7.3" height="15.0" fill="rgb(0,0,0)" rx="2" ry="2" />
<text  x="34.14" y="193.5" ></text>
</g>
<g >
<title>firedrake.mg.embedded.TransferManager.op (1,252,987 us, 0.35%)</title><rect x="648.9" y="279" width="4.1" height="15.0" fill="rgb(0,0,0)" rx="2" ry="2" />
<text  x="651.91" y="289.5" ></text>
</g>
<g >
<title>Log_Event_subkernel142_interior_facet_vert_to__exterior_facet_vert_integral_otherwise (38,565 us, 0.01%)</title><rect x="647.8" y="311" width="0.1" height="15.0" fill="rgb(0,0,0)" rx="2" ry="2" />
<text  x="650.81" y="321.5" ></text>
</g>
<g >
<title>ParLoopExecute (75,628,825 us, 20.92%)</title><rect x="327.9" y="167" width="246.8" height="15.0" fill="rgb(0,0,0)" rx="2" ry="2" />
<text  x="330.88" y="177.5" >ParLoopExecute</text>
</g>
<g >
<title>firedrake.tsfc_interface.compile_form (1,083,527 us, 0.30%)</title><rect x="1186.5" y="119" width="3.5" height="15.0" fill="rgb(0,0,0)" rx="2" ry="2" />
<text  x="1189.46" y="129.5" ></text>
</g>
<g >
<title>firedrake.mg.interface.inject (2,312,682 us, 0.64%)</title><rect x="653.0" y="295" width="7.6" height="15.0" fill="rgb(0,0,0)" rx="2" ry="2" />
<text  x="656.00" y="305.5" ></text>
</g>
<g >
<title>firedrake.variational_solver.NonlinearVariationalSolver.solve (358,206,500 us, 99.08%)</title><rect x="20.8" y="71" width="1169.2" height="15.0" fill="rgb(0,0,0)" rx="2" ry="2" />
<text  x="23.82" y="81.5" >firedrake.variational_solver.NonlinearVariationalSolver.solve</text>
</g>
<g >
<title>Log_Event_tensorshell_knl_131 (66,005 us, 0.02%)</title><rect x="647.9" y="311" width="0.3" height="15.0" fill="rgb(0,0,0)" rx="2" ry="2" />
<text  x="650.94" y="321.5" ></text>
</g>
<g >
<title>Log_Event_mtf_solve_89 (39,703 us, 0.01%)</title><rect x="646.6" y="247" width="0.1" height="15.0" fill="rgb(0,0,0)" rx="2" ry="2" />
<text  x="649.59" y="257.5" ></text>
</g>
<g >
<title>Log_Event_slate_loopy_knl_87 (610,697 us, 0.17%)</title><rect x="646.9" y="279" width="2.0" height="15.0" fill="rgb(0,0,0)" rx="2" ry="2" />
<text  x="649.92" y="289.5" ></text>
</g>
<g >
<title>KSPSolve (115,546,674 us, 31.96%)</title><rect x="664.5" y="215" width="377.2" height="15.0" fill="rgb(0,0,0)" rx="2" ry="2" />
<text  x="667.53" y="225.5" >KSPSolve</text>
</g>
<g >
<title>pyop2.global_kernel.GlobalKernel.compile (888,085 us, 0.25%)</title><rect x="13.0" y="135" width="2.9" height="15.0" fill="rgb(0,0,0)" rx="2" ry="2" />
<text  x="15.98" y="145.5" ></text>
</g>
<g >
<title>Parloop_Cells_wrap_form00_cell_integral_otherwise (5,053,236 us, 1.40%)</title><rect x="1148.6" y="183" width="16.5" height="15.0" fill="rgb(0,0,0)" rx="2" ry="2" />
<text  x="1151.58" y="193.5" ></text>
</g>
<g >
<title>HybridRHS (110,141,868 us, 30.47%)</title><rect x="286.8" y="151" width="359.5" height="15.0" fill="rgb(0,0,0)" rx="2" ry="2" />
<text  x="289.77" y="161.5" >HybridRHS</text>
</g>
<g >
<title>Parloop_Cells_wrap_slate_loopy_knl_87 (79,031,614 us, 21.86%)</title><rect x="708.1" y="279" width="257.9" height="15.0" fill="rgb(0,0,0)" rx="2" ry="2" />
<text  x="711.06" y="289.5" >Parloop_Cells_wrap_slate_loopy_..</text>
</g>
<g >
<title>SCBackSub (74,225,517 us, 20.53%)</title><rect x="41.3" y="135" width="242.3" height="15.0" fill="rgb(0,0,0)" rx="2" ry="2" />
<text  x="44.29" y="145.5" >SCBackSub</text>
</g>
<g >
<title>Log_Event_mtf_solve_130 (170,074 us, 0.05%)</title><rect x="647.8" y="295" width="0.6" height="15.0" fill="rgb(0,0,0)" rx="2" ry="2" />
<text  x="650.81" y="305.5" ></text>
</g>
<g >
<title>Parloop_Cells_wrap_form1_cell_integral_otherwise (2,226,016 us, 0.62%)</title><rect x="31.1" y="167" width="7.3" height="15.0" fill="rgb(0,0,0)" rx="2" ry="2" />
<text  x="34.14" y="177.5" ></text>
</g>
<g >
<title>ParLoopExecute (135,172 us, 0.04%)</title><rect x="664.1" y="247" width="0.4" height="15.0" fill="rgb(0,0,0)" rx="2" ry="2" />
<text  x="667.08" y="257.5" ></text>
</g>
<g >
<title>Parloop_set_#x7f98901c0f70_wrap_pyop2_kernel_restrict (674,559 us, 0.19%)</title><rect x="660.6" y="295" width="2.2" height="15.0" fill="rgb(0,0,0)" rx="2" ry="2" />
<text  x="663.55" y="305.5" ></text>
</g>
<g >
<title>pyop2.global_kernel.GlobalKernel.compile (674,559 us, 0.19%)</title><rect x="660.6" y="311" width="2.2" height="15.0" fill="rgb(0,0,0)" rx="2" ry="2" />
<text  x="663.55" y="321.5" ></text>
</g>
<g >
<title>PCSetUp (31,176,012 us, 8.62%)</title><rect x="1041.7" y="215" width="101.7" height="15.0" fill="rgb(0,0,0)" rx="2" ry="2" />
<text  x="1044.67" y="225.5" >PCSetUp</text>
</g>
<g >
<title>firedrake.interpolation.interpolate (1,031,384 us, 0.29%)</title><rect x="655.9" y="311" width="3.3" height="15.0" fill="rgb(0,0,0)" rx="2" ry="2" />
<text  x="658.85" y="321.5" ></text>
</g>
<g >
<title>Parloop_Cells_wrap_par_loop_kernel (982,410 us, 0.27%)</title><rect x="283.6" y="199" width="3.2" height="15.0" fill="rgb(0,0,0)" rx="2" ry="2" />
<text  x="286.57" y="209.5" ></text>
</g>
<g >
<title>firedrake.tsfc_interface.compile_form (21,919,729 us, 6.06%)</title><rect x="574.7" y="167" width="71.6" height="15.0" fill="rgb(0,0,0)" rx="2" ry="2" />
<text  x="577.73" y="177.5" >firedra..</text>
</g>
<g >
<title>MatResidual (135,172 us, 0.04%)</title><rect x="664.1" y="199" width="0.4" height="15.0" fill="rgb(0,0,0)" rx="2" ry="2" />
<text  x="667.08" y="209.5" ></text>
</g>
<g >
<title>pyop2.global_kernel.GlobalKernel.compile (39,758,482 us, 11.00%)</title><rect x="102.2" y="199" width="129.7" height="15.0" fill="rgb(0,0,0)" rx="2" ry="2" />
<text  x="105.16" y="209.5" >pyop2.global_k..</text>
</g>
<g >
<title>Parloop_Cells_wrap_expression_kernel (1,031,384 us, 0.29%)</title><rect x="655.9" y="359" width="3.3" height="15.0" fill="rgb(0,0,0)" rx="2" ry="2" />
<text  x="658.85" y="369.5" ></text>
</g>
<g >
<title>Log_Event_tensorshell_knl_102 (63,936 us, 0.02%)</title><rect x="648.5" y="311" width="0.2" height="15.0" fill="rgb(0,0,0)" rx="2" ry="2" />
<text  x="651.49" y="321.5" ></text>
</g>
<g >
<title>pyop2.global_kernel.GlobalKernel.compile (592,965 us, 0.16%)</title><rect x="649.7" y="343" width="2.0" height="15.0" fill="rgb(0,0,0)" rx="2" ry="2" />
<text  x="652.72" y="353.5" ></text>
</g>
<g >
<title>Log_Event_tensorshell_knl_90 (64,755 us, 0.02%)</title><rect x="648.7" y="311" width="0.2" height="15.0" fill="rgb(0,0,0)" rx="2" ry="2" />
<text  x="651.70" y="321.5" ></text>
</g>
<g >
<title>Parloop_Cells_wrap_slate_loopy_knl_166 (39,758,482 us, 11.00%)</title><rect x="102.2" y="183" width="129.7" height="15.0" fill="rgb(0,0,0)" rx="2" ry="2" />
<text  x="105.16" y="193.5" >Parloop_Cells_..</text>
</g>
<g >
<title>pyop2.global_kernel.GlobalKernel.compile (1,211,592 us, 0.34%)</title><rect x="1144.6" y="199" width="4.0" height="15.0" fill="rgb(0,0,0)" rx="2" ry="2" />
<text  x="1147.63" y="209.5" ></text>
</g>
<g >
<title>RecoverFirstElim (59,288,109 us, 16.40%)</title><rect x="82.7" y="151" width="193.5" height="15.0" fill="rgb(0,0,0)" rx="2" ry="2" />
<text  x="85.70" y="161.5" >RecoverFirstElim</text>
</g>
<g >
<title>firedrake.pointquery_utils.to_reference_coordinates (413,781 us, 0.11%)</title><rect x="651.7" y="311" width="1.3" height="15.0" fill="rgb(0,0,0)" rx="2" ry="2" />
<text  x="654.65" y="321.5" ></text>
</g>
<g >
<title>MatMult (6,274,043 us, 1.74%)</title><rect x="20.8" y="119" width="20.5" height="15.0" fill="rgb(0,0,0)" rx="2" ry="2" />
<text  x="23.82" y="129.5" ></text>
</g>
<g >
<title>ParLoopExecute (1,031,384 us, 0.29%)</title><rect x="655.9" y="343" width="3.3" height="15.0" fill="rgb(0,0,0)" rx="2" ry="2" />
<text  x="658.85" y="353.5" ></text>
</g>
<g >
<title>Log_Event_mtf_solve_130 (40,498 us, 0.01%)</title><rect x="664.3" y="295" width="0.1" height="15.0" fill="rgb(0,0,0)" rx="2" ry="2" />
<text  x="667.26" y="305.5" ></text>
</g>
<g >
<title>MatMult (1,252,987 us, 0.35%)</title><rect x="648.9" y="263" width="4.1" height="15.0" fill="rgb(0,0,0)" rx="2" ry="2" />
<text  x="651.91" y="273.5" ></text>
</g>
<g >
<title>Parloop_Cells_wrap_slate_loopy_knl_0 (75,628,825 us, 20.92%)</title><rect x="327.9" y="183" width="246.8" height="15.0" fill="rgb(0,0,0)" rx="2" ry="2" />
<text  x="330.88" y="193.5" >Parloop_Cells_wrap_slate_loopy..</text>
</g>
</g>
</svg>
