<?xml version="1.0" standalone="no"?>
<!DOCTYPE svg PUBLIC "-//W3C//DTD SVG 1.1//EN" "http://www.w3.org/Graphics/SVG/1.1/DTD/svg11.dtd">
<svg version="1.1" width="1200" height="299" onload="init(evt)" viewBox="0 0 1200 299" xmlns="http://www.w3.org/2000/svg" xmlns:xlink="http://www.w3.org/1999/xlink">
<!-- Flame graph stack visualization. See https://github.com/brendangregg/FlameGraph for latest version, and http://www.brendangregg.com/flamegraphs.html for examples. -->
<!-- NOTES:  -->
<defs>
	<linearGradient id="background" y1="0" y2="1" x1="0" x2="0" >
		<stop stop-color="#eeeeee" offset="5%" />
		<stop stop-color="#eeeeb0" offset="95%" />
	</linearGradient>
</defs>
<style type="text/css">
	text { font-family:Verdana; font-size:13px; fill:rgb(0,0,0); }
	#search, #ignorecase { opacity:0.1; cursor:pointer; }
	#search:hover, #search.show, #ignorecase:hover, #ignorecase.show { opacity:1; }
	#subtitle { text-anchor:middle; font-color:rgb(160,160,160); }
	#title { text-anchor:middle; font-size:18px}
	#unzoom { cursor:pointer; }
	#frames > *:hover { stroke:black; stroke-width:0.5; cursor:pointer; }
	.hide { display:none; }
	.parent { opacity:0.5; }
</style>
<script type="text/ecmascript">
<![CDATA[
	"use strict";
	var details, searchbtn, unzoombtn, matchedtxt, svg, searching, currentSearchTerm, ignorecase, ignorecaseBtn;
	function init(evt) {
		details = document.getElementById("details").firstChild;
		searchbtn = document.getElementById("search");
		ignorecaseBtn = document.getElementById("ignorecase");
		unzoombtn = document.getElementById("unzoom");
		matchedtxt = document.getElementById("matched");
		svg = document.getElementsByTagName("svg")[0];
		searching = 0;
		currentSearchTerm = null;

		// use GET parameters to restore a flamegraphs state.
		var params = get_params();
		if (params.x && params.y)
			zoom(find_group(document.querySelector('[x="' + params.x + '"][y="' + params.y + '"]')));
                if (params.s) search(params.s);
	}

	// event listeners
	window.addEventListener("click", function(e) {
		var target = find_group(e.target);
		if (target) {
			if (target.nodeName == "a") {
				if (e.ctrlKey === false) return;
				e.preventDefault();
			}
			if (target.classList.contains("parent")) unzoom();
			zoom(target);
			if (!document.querySelector('.parent')) {
				clearzoom();
				return;
			}

			// set parameters for zoom state
			var el = target.querySelector("rect");
			if (el && el.attributes && el.attributes.y && el.attributes._orig_x) {
				var params = get_params()
				params.x = el.attributes._orig_x.value;
				params.y = el.attributes.y.value;
				history.replaceState(null, null, parse_params(params));
			}
		}
		else if (e.target.id == "unzoom") clearzoom();
		else if (e.target.id == "search") search_prompt();
		else if (e.target.id == "ignorecase") toggle_ignorecase();
	}, false)

	// mouse-over for info
	// show
	window.addEventListener("mouseover", function(e) {
		var target = find_group(e.target);
		if (target) details.nodeValue = "Function: " + g_to_text(target);
	}, false)

	// clear
	window.addEventListener("mouseout", function(e) {
		var target = find_group(e.target);
		if (target) details.nodeValue = ' ';
	}, false)

	// ctrl-F for search
	// ctrl-I to toggle case-sensitive search
	window.addEventListener("keydown",function (e) {
		if (e.keyCode === 114 || (e.ctrlKey && e.keyCode === 70)) {
			e.preventDefault();
			search_prompt();
		}
		else if (e.ctrlKey && e.keyCode === 73) {
			e.preventDefault();
			toggle_ignorecase();
		}
	}, false)

	// functions
	function get_params() {
		var params = {};
		var paramsarr = window.location.search.substr(1).split('&');
		for (var i = 0; i < paramsarr.length; ++i) {
			var tmp = paramsarr[i].split("=");
			if (!tmp[0] || !tmp[1]) continue;
			params[tmp[0]]  = decodeURIComponent(tmp[1]);
		}
		return params;
	}
	function parse_params(params) {
		var uri = "?";
		for (var key in params) {
			uri += key + '=' + encodeURIComponent(params[key]) + '&';
		}
		if (uri.slice(-1) == "&")
			uri = uri.substring(0, uri.length - 1);
		if (uri == '?')
			uri = window.location.href.split('?')[0];
		return uri;
	}
	function find_child(node, selector) {
		var children = node.querySelectorAll(selector);
		if (children.length) return children[0];
	}
	function find_group(node) {
		var parent = node.parentElement;
		if (!parent) return;
		if (parent.id == "frames") return node;
		return find_group(parent);
	}
	function orig_save(e, attr, val) {
		if (e.attributes["_orig_" + attr] != undefined) return;
		if (e.attributes[attr] == undefined) return;
		if (val == undefined) val = e.attributes[attr].value;
		e.setAttribute("_orig_" + attr, val);
	}
	function orig_load(e, attr) {
		if (e.attributes["_orig_"+attr] == undefined) return;
		e.attributes[attr].value = e.attributes["_orig_" + attr].value;
		e.removeAttribute("_orig_"+attr);
	}
	function g_to_text(e) {
		var text = find_child(e, "title").firstChild.nodeValue;
		return (text)
	}
	function g_to_func(e) {
		var func = g_to_text(e);
		// if there's any manipulation we want to do to the function
		// name before it's searched, do it here before returning.
		return (func);
	}
	function update_text(e) {
		var r = find_child(e, "rect");
		var t = find_child(e, "text");
		var w = parseFloat(r.attributes.width.value) -3;
		var txt = find_child(e, "title").textContent.replace(/\([^(]*\)$/,"");
		t.attributes.x.value = parseFloat(r.attributes.x.value) + 3;

		// Smaller than this size won't fit anything
		if (w < 2 * 13 * 0.59) {
			t.textContent = "";
			return;
		}

		t.textContent = txt;
		// Fit in full text width
		if (/^ *$/.test(txt) || t.getSubStringLength(0, txt.length) < w)
			return;

		for (var x = txt.length - 2; x > 0; x--) {
			if (t.getSubStringLength(0, x + 2) <= w) {
				t.textContent = txt.substring(0, x) + "..";
				return;
			}
		}
		t.textContent = "";
	}

	// zoom
	function zoom_reset(e) {
		if (e.attributes != undefined) {
			orig_load(e, "x");
			orig_load(e, "width");
		}
		if (e.childNodes == undefined) return;
		for (var i = 0, c = e.childNodes; i < c.length; i++) {
			zoom_reset(c[i]);
		}
	}
	function zoom_child(e, x, ratio) {
		if (e.attributes != undefined) {
			if (e.attributes.x != undefined) {
				orig_save(e, "x");
				e.attributes.x.value = (parseFloat(e.attributes.x.value) - x - 10) * ratio + 10;
				if (e.tagName == "text")
					e.attributes.x.value = find_child(e.parentNode, "rect[x]").attributes.x.value + 3;
			}
			if (e.attributes.width != undefined) {
				orig_save(e, "width");
				e.attributes.width.value = parseFloat(e.attributes.width.value) * ratio;
			}
		}

		if (e.childNodes == undefined) return;
		for (var i = 0, c = e.childNodes; i < c.length; i++) {
			zoom_child(c[i], x - 10, ratio);
		}
	}
	function zoom_parent(e) {
		if (e.attributes) {
			if (e.attributes.x != undefined) {
				orig_save(e, "x");
				e.attributes.x.value = 10;
			}
			if (e.attributes.width != undefined) {
				orig_save(e, "width");
				e.attributes.width.value = parseInt(svg.width.baseVal.value) - (10 * 2);
			}
		}
		if (e.childNodes == undefined) return;
		for (var i = 0, c = e.childNodes; i < c.length; i++) {
			zoom_parent(c[i]);
		}
	}
	function zoom(node) {
		var attr = find_child(node, "rect").attributes;
		var width = parseFloat(attr.width.value);
		var xmin = parseFloat(attr.x.value);
		var xmax = parseFloat(xmin + width);
		var ymin = parseFloat(attr.y.value);
		var ratio = (svg.width.baseVal.value - 2 * 10) / width;

		// XXX: Workaround for JavaScript float issues (fix me)
		var fudge = 0.0001;

		unzoombtn.classList.remove("hide");

		var el = document.getElementById("frames").children;
		for (var i = 0; i < el.length; i++) {
			var e = el[i];
			var a = find_child(e, "rect").attributes;
			var ex = parseFloat(a.x.value);
			var ew = parseFloat(a.width.value);
			var upstack;
			// Is it an ancestor
			if (1 == 0) {
				upstack = parseFloat(a.y.value) > ymin;
			} else {
				upstack = parseFloat(a.y.value) < ymin;
			}
			if (upstack) {
				// Direct ancestor
				if (ex <= xmin && (ex+ew+fudge) >= xmax) {
					e.classList.add("parent");
					zoom_parent(e);
					update_text(e);
				}
				// not in current path
				else
					e.classList.add("hide");
			}
			// Children maybe
			else {
				// no common path
				if (ex < xmin || ex + fudge >= xmax) {
					e.classList.add("hide");
				}
				else {
					zoom_child(e, xmin, ratio);
					update_text(e);
				}
			}
		}
		search();
	}
	function unzoom() {
		unzoombtn.classList.add("hide");
		var el = document.getElementById("frames").children;
		for(var i = 0; i < el.length; i++) {
			el[i].classList.remove("parent");
			el[i].classList.remove("hide");
			zoom_reset(el[i]);
			update_text(el[i]);
		}
		search();
	}
	function clearzoom() {
		unzoom();

		// remove zoom state
		var params = get_params();
		if (params.x) delete params.x;
		if (params.y) delete params.y;
		history.replaceState(null, null, parse_params(params));
	}

	// search
	function toggle_ignorecase() {
		ignorecase = !ignorecase;
		if (ignorecase) {
			ignorecaseBtn.classList.add("show");
		} else {
			ignorecaseBtn.classList.remove("show");
		}
		reset_search();
		search();
	}
	function reset_search() {
		var el = document.querySelectorAll("#frames rect");
		for (var i = 0; i < el.length; i++) {
			orig_load(el[i], "fill")
		}
		var params = get_params();
		delete params.s;
		history.replaceState(null, null, parse_params(params));
	}
	function search_prompt() {
		if (!searching) {
			var term = prompt("Enter a search term (regexp " +
			    "allowed, eg: ^ext4_)"
			    + (ignorecase ? ", ignoring case" : "")
			    + "\nPress Ctrl-i to toggle case sensitivity", "");
			if (term != null) search(term);
		} else {
			reset_search();
			searching = 0;
			currentSearchTerm = null;
			searchbtn.classList.remove("show");
			searchbtn.firstChild.nodeValue = "Search"
			matchedtxt.classList.add("hide");
			matchedtxt.firstChild.nodeValue = ""
		}
	}
	function search(term) {
		if (term) currentSearchTerm = term;

		var re = new RegExp(currentSearchTerm, ignorecase ? 'i' : '');
		var el = document.getElementById("frames").children;
		var matches = new Object();
		var maxwidth = 0;
		for (var i = 0; i < el.length; i++) {
			var e = el[i];
			var func = g_to_func(e);
			var rect = find_child(e, "rect");
			if (func == null || rect == null)
				continue;

			// Save max width. Only works as we have a root frame
			var w = parseFloat(rect.attributes.width.value);
			if (w > maxwidth)
				maxwidth = w;

			if (func.match(re)) {
				// highlight
				var x = parseFloat(rect.attributes.x.value);
				orig_save(rect, "fill");
				rect.attributes.fill.value = "rgb(230,0,230)";

				// remember matches
				if (matches[x] == undefined) {
					matches[x] = w;
				} else {
					if (w > matches[x]) {
						// overwrite with parent
						matches[x] = w;
					}
				}
				searching = 1;
			}
		}
		if (!searching)
			return;
		var params = get_params();
		params.s = currentSearchTerm;
		history.replaceState(null, null, parse_params(params));

		searchbtn.classList.add("show");
		searchbtn.firstChild.nodeValue = "Reset Search";

		// calculate percent matched, excluding vertical overlap
		var count = 0;
		var lastx = -1;
		var lastw = 0;
		var keys = Array();
		for (k in matches) {
			if (matches.hasOwnProperty(k))
				keys.push(k);
		}
		// sort the matched frames by their x location
		// ascending, then width descending
		keys.sort(function(a, b){
			return a - b;
		});
		// Step through frames saving only the biggest bottom-up frames
		// thanks to the sort order. This relies on the tree property
		// where children are always smaller than their parents.
		var fudge = 0.0001;	// JavaScript floating point
		for (var k in keys) {
			var x = parseFloat(keys[k]);
			var w = matches[keys[k]];
			if (x >= lastx + lastw - fudge) {
				count += w;
				lastx = x;
				lastw = w;
			}
		}
		// display matched percent
		matchedtxt.classList.remove("hide");
		var pct = 100 * count / maxwidth;
		if (pct != 100) pct = pct.toFixed(1)
		matchedtxt.firstChild.nodeValue = "Matched: " + pct + "%";
	}
]]>
</script>
<rect x="0.0" y="0" width="1200.0" height="299.0" fill="url(#background)"  />
<text id="title" x="600.00" y="26" >Firedrake example</text>
<text id="details" x="10.00" y="281" > </text>
<text id="unzoom" x="10.00" y="26" class="hide">Reset Zoom</text>
<text id="search" x="1090.00" y="26" >Search</text>
<text id="ignorecase" x="1174.00" y="26" >ic</text>
<text id="matched" x="1090.00" y="281" > </text>
<g id="frames">
<g >
<title>firedrake.functionspaceimpl.FunctionSpace.__init__ (6,306 us, 0.14%)</title><rect x="335.9" y="119" width="1.7" height="15.0" fill="rgb(0,0,0)" rx="2" ry="2" />
<text  x="338.93" y="129.5" ></text>
</g>
<g >
<title>firedrake.variational_solver.NonlinearVariationalSolver.solve (1,605,205 us, 36.47%)</title><rect x="759.6" y="71" width="430.4" height="15.0" fill="rgb(0,0,0)" rx="2" ry="2" />
<text  x="762.61" y="81.5" >firedrake.variational_solver.NonlinearVariationalSolve..</text>
</g>
<g >
<title>firedrake.functionspacedata.get_shared_data (2,147 us, 0.05%)</title><rect x="1174.3" y="215" width="0.6" height="15.0" fill="rgb(0,0,0)" rx="2" ry="2" />
<text  x="1177.34" y="225.5" ></text>
</g>
<g >
<title>firedrake.ufl_expr.adjoint (11,714 us, 0.27%)</title><rect x="754.5" y="103" width="3.1" height="15.0" fill="rgb(0,0,0)" rx="2" ry="2" />
<text  x="757.49" y="113.5" ></text>
</g>
<g >
<title>HybridInit (104,300 us, 2.37%)</title><rect x="1162.0" y="119" width="28.0" height="15.0" fill="rgb(0,0,0)" rx="2" ry="2" />
<text  x="1165.04" y="129.5" >H..</text>
</g>
<g >
<title>ParLoopExecute (3,734 us, 0.08%)</title><rect x="1082.3" y="199" width="1.0" height="15.0" fill="rgb(0,0,0)" rx="2" ry="2" />
<text  x="1085.26" y="209.5" ></text>
</g>
<g >
<title>Log_Event_tensorshell_knl_54 (3,287 us, 0.07%)</title><rect x="1065.3" y="231" width="0.9" height="15.0" fill="rgb(0,0,0)" rx="2" ry="2" />
<text  x="1068.32" y="241.5" ></text>
</g>
<g >
<title>firedrake.functionspace.MixedFunctionSpace (1,473 us, 0.03%)</title><rect x="1169.9" y="151" width="0.4" height="15.0" fill="rgb(0,0,0)" rx="2" ry="2" />
<text  x="1172.90" y="161.5" ></text>
</g>
<g >
<title>firedrake.variational_solver.NonlinearVariationalProblem.__init__ (13,365 us, 0.30%)</title><rect x="754.0" y="87" width="3.6" height="15.0" fill="rgb(0,0,0)" rx="2" ry="2" />
<text  x="757.05" y="97.5" ></text>
</g>
<g >
<title>firedrake.functionspaceimpl.FunctionSpace.__init__ (1,473 us, 0.03%)</title><rect x="1169.9" y="183" width="0.4" height="15.0" fill="rgb(0,0,0)" rx="2" ry="2" />
<text  x="1172.90" y="193.5" ></text>
</g>
<g >
<title>CreateSparsity (2,057 us, 0.05%)</title><rect x="1103.2" y="183" width="0.6" height="15.0" fill="rgb(0,0,0)" rx="2" ry="2" />
<text  x="1106.24" y="193.5" ></text>
</g>
<g >
<title>PCApply (1,400,270 us, 31.82%)</title><rect x="786.6" y="119" width="375.4" height="15.0" fill="rgb(0,0,0)" rx="2" ry="2" />
<text  x="789.59" y="129.5" >PCApply</text>
</g>
<g >
<title>firedrake.interpolation.make_interpolator (22,713 us, 0.52%)</title><rect x="1103.8" y="167" width="6.1" height="15.0" fill="rgb(0,0,0)" rx="2" ry="2" />
<text  x="1106.79" y="177.5" ></text>
</g>
<g >
<title>KSPSolve (1,498,102 us, 34.04%)</title><rect x="760.4" y="103" width="401.6" height="15.0" fill="rgb(0,0,0)" rx="2" ry="2" />
<text  x="763.36" y="113.5" >KSPSolve</text>
</g>
<g >
<title>firedrake.formmanipulation.split_form (12,200 us, 0.28%)</title><rect x="1171.6" y="135" width="3.3" height="15.0" fill="rgb(0,0,0)" rx="2" ry="2" />
<text  x="1174.65" y="145.5" ></text>
</g>
<g >
<title>firedrake.parloops.par_loop (41,268 us, 0.94%)</title><rect x="786.6" y="167" width="11.1" height="15.0" fill="rgb(0,0,0)" rx="2" ry="2" />
<text  x="789.59" y="177.5" ></text>
</g>
<g >
<title>firedrake.functionspacedata.FunctionSpaceData.__init__ (19,639 us, 0.45%)</title><rect x="338.0" y="119" width="5.3" height="15.0" fill="rgb(0,0,0)" rx="2" ry="2" />
<text  x="341.04" y="129.5" ></text>
</g>
<g >
<title>firedrake.functionspacedata.get_shared_data (1,473 us, 0.03%)</title><rect x="1169.9" y="199" width="0.4" height="15.0" fill="rgb(0,0,0)" rx="2" ry="2" />
<text  x="1172.90" y="209.5" ></text>
</g>
<g >
<title>pyop2.global_kernel.GlobalKernel.compile (31,116 us, 0.71%)</title><rect x="1084.9" y="199" width="8.3" height="15.0" fill="rgb(0,0,0)" rx="2" ry="2" />
<text  x="1087.86" y="209.5" ></text>
</g>
<g >
<title>ParLoopExecute (66,676 us, 1.52%)</title><rect x="1084.9" y="167" width="17.8" height="15.0" fill="rgb(0,0,0)" rx="2" ry="2" />
<text  x="1087.86" y="177.5" ></text>
</g>
<g >
<title>firedrake.functionspace.VectorFunctionSpace (6,306 us, 0.14%)</title><rect x="335.9" y="87" width="1.7" height="15.0" fill="rgb(0,0,0)" rx="2" ry="2" />
<text  x="338.93" y="97.5" ></text>
</g>
<g >
<title>firedrake.variational_solver.NonlinearVariationalProblem.__init__ (1,751 us, 0.04%)</title><rect x="1161.6" y="167" width="0.4" height="15.0" fill="rgb(0,0,0)" rx="2" ry="2" />
<text  x="1164.57" y="177.5" ></text>
</g>
<g >
<title>ParLoopExecute (32,999 us, 0.75%)</title><rect x="1180.5" y="151" width="8.9" height="15.0" fill="rgb(0,0,0)" rx="2" ry="2" />
<text  x="1183.55" y="161.5" ></text>
</g>
<g >
<title>CreateExtMesh (78,531 us, 1.78%)</title><rect x="316.6" y="71" width="21.0" height="15.0" fill="rgb(0,0,0)" rx="2" ry="2" />
<text  x="319.57" y="81.5" ></text>
</g>
<g >
<title>ParLoopExecute (76,032 us, 1.73%)</title><rect x="1057.1" y="167" width="20.4" height="15.0" fill="rgb(0,0,0)" rx="2" ry="2" />
<text  x="1060.10" y="177.5" ></text>
</g>
<g >
<title>firedrake.functionspace.make_scalar_element (1,609 us, 0.04%)</title><rect x="1173.9" y="199" width="0.4" height="15.0" fill="rgb(0,0,0)" rx="2" ry="2" />
<text  x="1176.91" y="209.5" ></text>
</g>
<g >
<title>firedrake.functionspacedata.FunctionSpaceData.__init__ (6,306 us, 0.14%)</title><rect x="335.9" y="151" width="1.7" height="15.0" fill="rgb(0,0,0)" rx="2" ry="2" />
<text  x="338.93" y="161.5" ></text>
</g>
<g >
<title>Parloop_Cells_wrap_form1_cell_integral_otherwise (34,229 us, 0.78%)</title><rect x="770.4" y="167" width="9.2" height="15.0" fill="rgb(0,0,0)" rx="2" ry="2" />
<text  x="773.44" y="177.5" ></text>
</g>
<g >
<title>firedrake.mesh.MeshTopology._facets (2,493 us, 0.06%)</title><rect x="342.6" y="135" width="0.7" height="15.0" fill="rgb(0,0,0)" rx="2" ry="2" />
<text  x="345.64" y="145.5" ></text>
</g>
<g >
<title>Log_Event_mtf_solve_16 (1,581 us, 0.04%)</title><rect x="1062.6" y="247" width="0.4" height="15.0" fill="rgb(0,0,0)" rx="2" ry="2" />
<text  x="1065.59" y="257.5" ></text>
</g>
<g >
<title>CreateFunctionSpace (6,536 us, 0.15%)</title><rect x="1169.9" y="135" width="1.7" height="15.0" fill="rgb(0,0,0)" rx="2" ry="2" />
<text  x="1172.90" y="145.5" ></text>
</g>
<g >
<title>firedrake.parloops.par_loop (38,051 us, 0.86%)</title><rect x="1179.2" y="135" width="10.2" height="15.0" fill="rgb(0,0,0)" rx="2" ry="2" />
<text  x="1182.19" y="145.5" ></text>
</g>
<g >
<title>CreateFunctionSpace (21,199 us, 0.48%)</title><rect x="337.6" y="71" width="5.7" height="15.0" fill="rgb(0,0,0)" rx="2" ry="2" />
<text  x="340.62" y="81.5" ></text>
</g>
<g >
<title>CreateFunctionSpace (6,306 us, 0.14%)</title><rect x="335.9" y="103" width="1.7" height="15.0" fill="rgb(0,0,0)" rx="2" ry="2" />
<text  x="338.93" y="113.5" ></text>
</g>
<g >
<title>Log_Event_mtf_solve_56 (1,472 us, 0.03%)</title><rect x="1065.8" y="247" width="0.4" height="15.0" fill="rgb(0,0,0)" rx="2" ry="2" />
<text  x="1068.81" y="257.5" ></text>
</g>
<g >
<title>firedrake.formmanipulation.ExtractSubBlock.split (12,200 us, 0.28%)</title><rect x="1171.6" y="151" width="3.3" height="15.0" fill="rgb(0,0,0)" rx="2" ry="2" />
<text  x="1174.65" y="161.5" ></text>
</g>
<g >
<title>SNESSolve (1,605,205 us, 36.47%)</title><rect x="759.6" y="87" width="430.4" height="15.0" fill="rgb(0,0,0)" rx="2" ry="2" />
<text  x="762.61" y="97.5" >SNESSolve</text>
</g>
<g >
<title>pyop2.global_kernel.GlobalKernel.compile (35,572 us, 0.81%)</title><rect x="788.1" y="215" width="9.6" height="15.0" fill="rgb(0,0,0)" rx="2" ry="2" />
<text  x="791.12" y="225.5" ></text>
</g>
<g >
<title>Log_Event_mtf_solve_1 (10,216 us, 0.23%)</title><rect x="1061.2" y="215" width="2.7" height="15.0" fill="rgb(0,0,0)" rx="2" ry="2" />
<text  x="1064.18" y="225.5" ></text>
</g>
<g >
<title>Log_Event_tensorshell_knl_2 (3,370 us, 0.08%)</title><rect x="1063.0" y="231" width="0.9" height="15.0" fill="rgb(0,0,0)" rx="2" ry="2" />
<text  x="1066.01" y="241.5" ></text>
</g>
<g >
<title>firedrake.matrix_free.operators.ImplicitMatrixContext.mult (21,543 us, 0.49%)</title><rect x="1077.5" y="183" width="5.8" height="15.0" fill="rgb(0,0,0)" rx="2" ry="2" />
<text  x="1080.48" y="193.5" ></text>
</g>
<g >
<title>Log_Event_mtf_solve_41 (8,545 us, 0.19%)</title><rect x="1063.9" y="215" width="2.3" height="15.0" fill="rgb(0,0,0)" rx="2" ry="2" />
<text  x="1066.91" y="225.5" ></text>
</g>
<g >
<title>pyop2.global_kernel.GlobalKernel.compile (35,560 us, 0.81%)</title><rect x="1093.2" y="199" width="9.5" height="15.0" fill="rgb(0,0,0)" rx="2" ry="2" />
<text  x="1096.20" y="209.5" ></text>
</g>
<g >
<title>firedrake.extrusion_utils.make_extruded_coords (70,329 us, 1.60%)</title><rect x="317.1" y="87" width="18.8" height="15.0" fill="rgb(0,0,0)" rx="2" ry="2" />
<text  x="320.08" y="97.5" ></text>
</g>
<g >
<title>firedrake.functionspaceimpl.FunctionSpace.__init__ (2,147 us, 0.05%)</title><rect x="1174.3" y="199" width="0.6" height="15.0" fill="rgb(0,0,0)" rx="2" ry="2" />
<text  x="1177.34" y="209.5" ></text>
</g>
<g >
<title>CreateMesh (1,714 us, 0.04%)</title><rect x="343.3" y="71" width="0.5" height="15.0" fill="rgb(0,0,0)" rx="2" ry="2" />
<text  x="346.31" y="81.5" ></text>
</g>
<g >
<title>firedrake.formmanipulation.ExtractSubBlock.argument (8,346 us, 0.19%)</title><rect x="1172.7" y="167" width="2.2" height="15.0" fill="rgb(0,0,0)" rx="2" ry="2" />
<text  x="1175.68" y="177.5" ></text>
</g>
<g >
<title>firedrake.ufl_expr.action (4,242 us, 0.10%)</title><rect x="757.6" y="119" width="1.2" height="15.0" fill="rgb(0,0,0)" rx="2" ry="2" />
<text  x="760.63" y="129.5" ></text>
</g>
<g >
<title>CreateFunctionSpace (1,637 us, 0.04%)</title><rect x="786.2" y="215" width="0.4" height="15.0" fill="rgb(0,0,0)" rx="2" ry="2" />
<text  x="789.16" y="225.5" ></text>
</g>
<g >
<title>firedrake.formmanipulation.split_form (1,637 us, 0.04%)</title><rect x="786.2" y="167" width="0.4" height="15.0" fill="rgb(0,0,0)" rx="2" ry="2" />
<text  x="789.16" y="177.5" ></text>
</g>
<g >
<title>firedrake.functionspacedata.FunctionSpaceData.__init__ (1,473 us, 0.03%)</title><rect x="1169.9" y="215" width="0.4" height="15.0" fill="rgb(0,0,0)" rx="2" ry="2" />
<text  x="1172.90" y="225.5" ></text>
</g>
<g >
<title>firedrake (4,401,017 us, 100.00%)</title><rect x="10.0" y="55" width="1180.0" height="15.0" fill="rgb(0,0,0)" rx="2" ry="2" />
<text  x="13.00" y="65.5" >firedrake</text>
</g>
<g >
<title>PCSetUp (293,810 us, 6.68%)</title><rect x="1083.3" y="151" width="78.7" height="15.0" fill="rgb(0,0,0)" rx="2" ry="2" />
<text  x="1086.26" y="161.5" >PCSetUp</text>
</g>
<g >
<title>firedrake.formmanipulation.ExtractSubBlock.split (1,637 us, 0.04%)</title><rect x="786.2" y="183" width="0.4" height="15.0" fill="rgb(0,0,0)" rx="2" ry="2" />
<text  x="789.16" y="193.5" ></text>
</g>
<g >
<title>ParLoopExecute (39,389 us, 0.89%)</title><rect x="325.4" y="103" width="10.5" height="15.0" fill="rgb(0,0,0)" rx="2" ry="2" />
<text  x="328.37" y="113.5" ></text>
</g>
<g >
<title>Log_Event_subkernel13_interior_facet_vert_to__exterior_facet_vert_integral_otherwise (1,952 us, 0.04%)</title><rect x="1061.6" y="231" width="0.5" height="15.0" fill="rgb(0,0,0)" rx="2" ry="2" />
<text  x="1064.59" y="241.5" ></text>
</g>
<g >
<title>CreateSparsity (1,733 us, 0.04%)</title><rect x="1109.4" y="183" width="0.5" height="15.0" fill="rgb(0,0,0)" rx="2" ry="2" />
<text  x="1112.41" y="193.5" ></text>
</g>
<g >
<title>firedrake.functionspacedata.FunctionSpaceData.__init__ (5,063 us, 0.12%)</title><rect x="1170.3" y="183" width="1.3" height="15.0" fill="rgb(0,0,0)" rx="2" ry="2" />
<text  x="1173.29" y="193.5" ></text>
</g>
<g >
<title>pyop2.global_kernel.GlobalKernel.compile (39,389 us, 0.89%)</title><rect x="325.4" y="135" width="10.5" height="15.0" fill="rgb(0,0,0)" rx="2" ry="2" />
<text  x="328.37" y="145.5" ></text>
</g>
<g >
<title>Log_Event_mtf_solve_44 (1,482 us, 0.03%)</title><rect x="1064.9" y="247" width="0.4" height="15.0" fill="rgb(0,0,0)" rx="2" ry="2" />
<text  x="1067.93" y="257.5" ></text>
</g>
<g >
<title>firedrake.matrix_free.operators.ImplicitMatrixContext.mult (97,832 us, 2.22%)</title><rect x="760.4" y="135" width="26.2" height="15.0" fill="rgb(0,0,0)" rx="2" ry="2" />
<text  x="763.36" y="145.5" >f..</text>
</g>
<g >
<title>pyop2.global_kernel.GlobalKernel.compile (32,999 us, 0.75%)</title><rect x="1180.5" y="183" width="8.9" height="15.0" fill="rgb(0,0,0)" rx="2" ry="2" />
<text  x="1183.55" y="193.5" ></text>
</g>
<g >
<title>Parloop_Cells_wrap_form00_cell_integral_otherwise (35,560 us, 0.81%)</title><rect x="1093.2" y="183" width="9.5" height="15.0" fill="rgb(0,0,0)" rx="2" ry="2" />
<text  x="1096.20" y="193.5" ></text>
</g>
<g >
<title>firedrake.formmanipulation.ExtractSubBlock.argument (1,637 us, 0.04%)</title><rect x="786.2" y="199" width="0.4" height="15.0" fill="rgb(0,0,0)" rx="2" ry="2" />
<text  x="789.16" y="209.5" ></text>
</g>
<g >
<title>firedrake.functionspaceimpl.FunctionSpace.__init__ (19,639 us, 0.45%)</title><rect x="338.0" y="87" width="5.3" height="15.0" fill="rgb(0,0,0)" rx="2" ry="2" />
<text  x="341.04" y="97.5" ></text>
</g>
<g >
<title>firedrake.variational_solver.NonlinearVariationalSolver.__init__ (7,390 us, 0.17%)</title><rect x="757.6" y="71" width="2.0" height="15.0" fill="rgb(0,0,0)" rx="2" ry="2" />
<text  x="760.63" y="81.5" ></text>
</g>
<g >
<title>MatMult (21,543 us, 0.49%)</title><rect x="1077.5" y="167" width="5.8" height="15.0" fill="rgb(0,0,0)" rx="2" ry="2" />
<text  x="1080.48" y="177.5" ></text>
</g>
<g >
<title>Parloop_Cells_wrap_form0_cell_integral_otherwise (33,805 us, 0.77%)</title><rect x="761.4" y="167" width="9.0" height="15.0" fill="rgb(0,0,0)" rx="2" ry="2" />
<text  x="764.38" y="177.5" ></text>
</g>
<g >
<title>Parloop_Cells_wrap_par_loop_kernel (32,999 us, 0.75%)</title><rect x="1180.5" y="167" width="8.9" height="15.0" fill="rgb(0,0,0)" rx="2" ry="2" />
<text  x="1183.55" y="177.5" ></text>
</g>
<g >
<title>Log_Event_tensorshell_knl_14 (3,341 us, 0.08%)</title><rect x="1062.1" y="231" width="0.9" height="15.0" fill="rgb(0,0,0)" rx="2" ry="2" />
<text  x="1065.12" y="241.5" ></text>
</g>
<g >
<title>firedrake.ufl_expr.adjoint (3,148 us, 0.07%)</title><rect x="758.8" y="119" width="0.8" height="15.0" fill="rgb(0,0,0)" rx="2" ry="2" />
<text  x="761.77" y="129.5" ></text>
</g>
<g >
<title>firedrake.functionspacedata.get_shared_data (5,063 us, 0.12%)</title><rect x="1170.3" y="167" width="1.3" height="15.0" fill="rgb(0,0,0)" rx="2" ry="2" />
<text  x="1173.29" y="177.5" ></text>
</g>
<g >
<title>Parloop_Cells_wrap_expression_kernel (31,116 us, 0.71%)</title><rect x="1084.9" y="183" width="8.3" height="15.0" fill="rgb(0,0,0)" rx="2" ry="2" />
<text  x="1087.86" y="193.5" ></text>
</g>
<g >
<title>SCSolve (315,353 us, 7.17%)</title><rect x="1077.5" y="135" width="84.5" height="15.0" fill="rgb(0,0,0)" rx="2" ry="2" />
<text  x="1080.48" y="145.5" >SCSolve</text>
</g>
<g >
<title>firedrake.utility_meshes.SquareMesh (1,805 us, 0.04%)</title><rect x="752.2" y="71" width="0.4" height="15.0" fill="rgb(0,0,0)" rx="2" ry="2" />
<text  x="755.16" y="81.5" ></text>
</g>
<g >
<title>Log_Event_slate_loopy_knl_0 (30,513 us, 0.69%)</title><rect x="1058.0" y="199" width="8.2" height="15.0" fill="rgb(0,0,0)" rx="2" ry="2" />
<text  x="1061.02" y="209.5" ></text>
</g>
<g >
<title>pyop2.global_kernel.GlobalKernel.compile (33,805 us, 0.77%)</title><rect x="761.4" y="183" width="9.0" height="15.0" fill="rgb(0,0,0)" rx="2" ry="2" />
<text  x="764.38" y="193.5" ></text>
</g>
<g >
<title>firedrake.ufl_expr.action (5,230 us, 0.12%)</title><rect x="752.6" y="87" width="1.4" height="15.0" fill="rgb(0,0,0)" rx="2" ry="2" />
<text  x="755.65" y="97.5" ></text>
</g>
<g >
<title>Parloop_Cells_wrap_par_loop_kernel (35,572 us, 0.81%)</title><rect x="788.1" y="199" width="9.6" height="15.0" fill="rgb(0,0,0)" rx="2" ry="2" />
<text  x="791.12" y="209.5" ></text>
</g>
<g >
<title>ParLoopExecute (68,034 us, 1.55%)</title><rect x="761.4" y="151" width="18.2" height="15.0" fill="rgb(0,0,0)" rx="2" ry="2" />
<text  x="764.38" y="161.5" ></text>
</g>
<g >
<title>Parloop_Cells_wrap_slate_loopy_knl_87 (3,734 us, 0.08%)</title><rect x="1082.3" y="215" width="1.0" height="15.0" fill="rgb(0,0,0)" rx="2" ry="2" />
<text  x="1085.26" y="225.5" ></text>
</g>
<g >
<title>FunctionSpaceData: CreateElement (8,031 us, 0.18%)</title><rect x="340.5" y="135" width="2.1" height="15.0" fill="rgb(0,0,0)" rx="2" ry="2" />
<text  x="343.49" y="145.5" ></text>
</g>
<g >
<title>pyop2.global_kernel.GlobalKernel.compile (34,229 us, 0.78%)</title><rect x="770.4" y="183" width="9.2" height="15.0" fill="rgb(0,0,0)" rx="2" ry="2" />
<text  x="773.44" y="193.5" ></text>
</g>
<g >
<title>firedrake.matrix_free.operators.ImplicitMatrixContext.__init__ (7,390 us, 0.17%)</title><rect x="757.6" y="103" width="2.0" height="15.0" fill="rgb(0,0,0)" rx="2" ry="2" />
<text  x="760.63" y="113.5" ></text>
</g>
<g >
<title>pyop2.global_kernel.GlobalKernel.compile (42,060 us, 0.96%)</title><rect x="1066.2" y="199" width="11.3" height="15.0" fill="rgb(0,0,0)" rx="2" ry="2" />
<text  x="1069.21" y="209.5" ></text>
</g>
<g >
<title>CreateFunctionSpace (1,473 us, 0.03%)</title><rect x="1169.9" y="167" width="0.4" height="15.0" fill="rgb(0,0,0)" rx="2" ry="2" />
<text  x="1172.90" y="177.5" ></text>
</g>
<g >
<title>all (4,401,017 us, 100%)</title><rect x="10.0" y="39" width="1180.0" height="15.0" fill="rgb(0,0,0)" rx="2" ry="2" />
<text  x="13.00" y="49.5" ></text>
</g>
<g >
<title>firedrake.__init__ (1,523,178 us, 34.61%)</title><rect x="343.8" y="71" width="408.4" height="15.0" fill="rgb(0,0,0)" rx="2" ry="2" />
<text  x="346.77" y="81.5" >firedrake.__init__</text>
</g>
<g >
<title>FunctionSpaceData: CreateElement (5,063 us, 0.12%)</title><rect x="1170.3" y="199" width="1.3" height="15.0" fill="rgb(0,0,0)" rx="2" ry="2" />
<text  x="1173.29" y="209.5" ></text>
</g>
<g >
<title>firedrake.ufl_expr.adjoint (1,751 us, 0.04%)</title><rect x="1161.6" y="183" width="0.4" height="15.0" fill="rgb(0,0,0)" rx="2" ry="2" />
<text  x="1164.57" y="193.5" ></text>
</g>
<g >
<title>firedrake.functionspaceimpl.FunctionSpace.__init__ (5,063 us, 0.12%)</title><rect x="1170.3" y="151" width="1.3" height="15.0" fill="rgb(0,0,0)" rx="2" ry="2" />
<text  x="1173.29" y="161.5" ></text>
</g>
<g >
<title>ParLoopExecute (35,572 us, 0.81%)</title><rect x="788.1" y="183" width="9.6" height="15.0" fill="rgb(0,0,0)" rx="2" ry="2" />
<text  x="791.12" y="193.5" ></text>
</g>
<g >
<title>firedrake.functionspacedata.FunctionSpaceData.__init__ (2,147 us, 0.05%)</title><rect x="1174.3" y="231" width="0.6" height="15.0" fill="rgb(0,0,0)" rx="2" ry="2" />
<text  x="1177.34" y="241.5" ></text>
</g>
<g >
<title>PCSetUp (104,300 us, 2.37%)</title><rect x="1162.0" y="103" width="28.0" height="15.0" fill="rgb(0,0,0)" rx="2" ry="2" />
<text  x="1165.04" y="113.5" >P..</text>
</g>
<g >
<title>KSPSolve (21,543 us, 0.49%)</title><rect x="1077.5" y="151" width="5.8" height="15.0" fill="rgb(0,0,0)" rx="2" ry="2" />
<text  x="1080.48" y="161.5" ></text>
</g>
<g >
<title>Parloop_Cells_wrap_slate_loopy_knl_0 (76,032 us, 1.73%)</title><rect x="1057.1" y="183" width="20.4" height="15.0" fill="rgb(0,0,0)" rx="2" ry="2" />
<text  x="1060.10" y="193.5" ></text>
</g>
<g >
<title>firedrake.assemble.allocate_matrix (7,390 us, 0.17%)</title><rect x="757.6" y="87" width="2.0" height="15.0" fill="rgb(0,0,0)" rx="2" ry="2" />
<text  x="760.63" y="97.5" ></text>
</g>
<g >
<title>HybridRHS (1,043,649 us, 23.71%)</title><rect x="797.7" y="151" width="279.8" height="15.0" fill="rgb(0,0,0)" rx="2" ry="2" />
<text  x="800.66" y="161.5" >HybridRHS</text>
</g>
<g >
<title>SCForwardElim (1,084,917 us, 24.65%)</title><rect x="786.6" y="135" width="290.9" height="15.0" fill="rgb(0,0,0)" rx="2" ry="2" />
<text  x="789.59" y="145.5" >SCForwardElim</text>
</g>
<g >
<title>firedrake.variational_solver.LinearVariationalProblem.__init__ (18,595 us, 0.42%)</title><rect x="752.6" y="71" width="5.0" height="15.0" fill="rgb(0,0,0)" rx="2" ry="2" />
<text  x="755.65" y="81.5" ></text>
</g>
<g >
<title>Log_Event_mtf_solve_4 (1,581 us, 0.04%)</title><rect x="1063.5" y="247" width="0.4" height="15.0" fill="rgb(0,0,0)" rx="2" ry="2" />
<text  x="1066.49" y="257.5" ></text>
</g>
<g >
<title>MatMult (97,832 us, 2.22%)</title><rect x="760.4" y="119" width="26.2" height="15.0" fill="rgb(0,0,0)" rx="2" ry="2" />
<text  x="763.36" y="129.5" >M..</text>
</g>
<g >
<title>HybridBreak (41,268 us, 0.94%)</title><rect x="786.6" y="151" width="11.1" height="15.0" fill="rgb(0,0,0)" rx="2" ry="2" />
<text  x="789.59" y="161.5" ></text>
</g>
<g >
<title>firedrake.utility_meshes.RectangleMesh (1,805 us, 0.04%)</title><rect x="752.2" y="87" width="0.4" height="15.0" fill="rgb(0,0,0)" rx="2" ry="2" />
<text  x="755.16" y="97.5" ></text>
</g>
<g >
<title>CreateFunctionSpace (5,697 us, 0.13%)</title><rect x="1173.4" y="183" width="1.5" height="15.0" fill="rgb(0,0,0)" rx="2" ry="2" />
<text  x="1176.39" y="193.5" ></text>
</g>
<g >
<title>Log_Event_subkernel53_interior_facet_vert_to__exterior_facet_vert_integral_otherwise (1,958 us, 0.04%)</title><rect x="1063.9" y="231" width="0.5" height="15.0" fill="rgb(0,0,0)" rx="2" ry="2" />
<text  x="1066.91" y="241.5" ></text>
</g>
<g >
<title>firedrake.tsfc_interface.compile_form (192,779 us, 4.38%)</title><rect x="1109.9" y="167" width="51.7" height="15.0" fill="rgb(0,0,0)" rx="2" ry="2" />
<text  x="1112.88" y="177.5" >fire..</text>
</g>
<g >
<title>firedrake.functionspacedata.get_shared_data (6,306 us, 0.14%)</title><rect x="335.9" y="135" width="1.7" height="15.0" fill="rgb(0,0,0)" rx="2" ry="2" />
<text  x="338.93" y="145.5" ></text>
</g>
<g >
<title>Parloop_Cells_wrap_pyop2_kernel_uniform_extrusion (39,389 us, 0.89%)</title><rect x="325.4" y="119" width="10.5" height="15.0" fill="rgb(0,0,0)" rx="2" ry="2" />
<text  x="328.37" y="129.5" ></text>
</g>
<g >
<title>firedrake.assemble.allocate_matrix (3,920 us, 0.09%)</title><rect x="1102.7" y="167" width="1.1" height="15.0" fill="rgb(0,0,0)" rx="2" ry="2" />
<text  x="1105.74" y="177.5" ></text>
</g>
<g >
<title>firedrake.tsfc_interface.compile_form (26,019 us, 0.59%)</title><rect x="779.6" y="151" width="7.0" height="15.0" fill="rgb(0,0,0)" rx="2" ry="2" />
<text  x="782.62" y="161.5" ></text>
</g>
<g >
<title>firedrake.functionspacedata.get_shared_data (19,639 us, 0.45%)</title><rect x="338.0" y="103" width="5.3" height="15.0" fill="rgb(0,0,0)" rx="2" ry="2" />
<text  x="341.04" y="113.5" ></text>
</g>
<g >
<title>firedrake.ufl_expr.adjoint (2,252 us, 0.05%)</title><rect x="1189.4" y="135" width="0.6" height="15.0" fill="rgb(0,0,0)" rx="2" ry="2" />
<text  x="1192.40" y="145.5" ></text>
</g>
<g >
<title>Log_Event_tensorshell_knl_42 (3,300 us, 0.07%)</title><rect x="1064.4" y="231" width="0.9" height="15.0" fill="rgb(0,0,0)" rx="2" ry="2" />
<text  x="1067.44" y="241.5" ></text>
</g>
<g >
<title>firedrake.interpolation.make_interpolator (15,940 us, 0.36%)</title><rect x="1174.9" y="135" width="4.3" height="15.0" fill="rgb(0,0,0)" rx="2" ry="2" />
<text  x="1177.92" y="145.5" ></text>
</g>
</g>
</svg>
