<?xml version="1.0" standalone="no"?>
<!DOCTYPE svg PUBLIC "-//W3C//DTD SVG 1.1//EN" "http://www.w3.org/Graphics/SVG/1.1/DTD/svg11.dtd">
<svg version="1.1" width="1200" height="315" onload="init(evt)" viewBox="0 0 1200 315" xmlns="http://www.w3.org/2000/svg" xmlns:xlink="http://www.w3.org/1999/xlink">
<!-- Flame graph stack visualization. See https://github.com/brendangregg/FlameGraph for latest version, and http://www.brendangregg.com/flamegraphs.html for examples. -->
<!-- NOTES:  -->
<defs>
	<linearGradient id="background" y1="0" y2="1" x1="0" x2="0" >
		<stop stop-color="#eeeeee" offset="5%" />
		<stop stop-color="#eeeeb0" offset="95%" />
	</linearGradient>
</defs>
<style type="text/css">
	text { font-family:Verdana; font-size:13px; fill:rgb(0,0,0); }
	#search, #ignorecase { opacity:0.1; cursor:pointer; }
	#search:hover, #search.show, #ignorecase:hover, #ignorecase.show { opacity:1; }
	#subtitle { text-anchor:middle; font-color:rgb(160,160,160); }
	#title { text-anchor:middle; font-size:18px}
	#unzoom { cursor:pointer; }
	#frames > *:hover { stroke:black; stroke-width:0.5; cursor:pointer; }
	.hide { display:none; }
	.parent { opacity:0.5; }
</style>
<script type="text/ecmascript">
<![CDATA[
	"use strict";
	var details, searchbtn, unzoombtn, matchedtxt, svg, searching, currentSearchTerm, ignorecase, ignorecaseBtn;
	function init(evt) {
		details = document.getElementById("details").firstChild;
		searchbtn = document.getElementById("search");
		ignorecaseBtn = document.getElementById("ignorecase");
		unzoombtn = document.getElementById("unzoom");
		matchedtxt = document.getElementById("matched");
		svg = document.getElementsByTagName("svg")[0];
		searching = 0;
		currentSearchTerm = null;

		// use GET parameters to restore a flamegraphs state.
		var params = get_params();
		if (params.x && params.y)
			zoom(find_group(document.querySelector('[x="' + params.x + '"][y="' + params.y + '"]')));
                if (params.s) search(params.s);
	}

	// event listeners
	window.addEventListener("click", function(e) {
		var target = find_group(e.target);
		if (target) {
			if (target.nodeName == "a") {
				if (e.ctrlKey === false) return;
				e.preventDefault();
			}
			if (target.classList.contains("parent")) unzoom();
			zoom(target);
			if (!document.querySelector('.parent')) {
				clearzoom();
				return;
			}

			// set parameters for zoom state
			var el = target.querySelector("rect");
			if (el && el.attributes && el.attributes.y && el.attributes._orig_x) {
				var params = get_params()
				params.x = el.attributes._orig_x.value;
				params.y = el.attributes.y.value;
				history.replaceState(null, null, parse_params(params));
			}
		}
		else if (e.target.id == "unzoom") clearzoom();
		else if (e.target.id == "search") search_prompt();
		else if (e.target.id == "ignorecase") toggle_ignorecase();
	}, false)

	// mouse-over for info
	// show
	window.addEventListener("mouseover", function(e) {
		var target = find_group(e.target);
		if (target) details.nodeValue = "Function: " + g_to_text(target);
	}, false)

	// clear
	window.addEventListener("mouseout", function(e) {
		var target = find_group(e.target);
		if (target) details.nodeValue = ' ';
	}, false)

	// ctrl-F for search
	// ctrl-I to toggle case-sensitive search
	window.addEventListener("keydown",function (e) {
		if (e.keyCode === 114 || (e.ctrlKey && e.keyCode === 70)) {
			e.preventDefault();
			search_prompt();
		}
		else if (e.ctrlKey && e.keyCode === 73) {
			e.preventDefault();
			toggle_ignorecase();
		}
	}, false)

	// functions
	function get_params() {
		var params = {};
		var paramsarr = window.location.search.substr(1).split('&');
		for (var i = 0; i < paramsarr.length; ++i) {
			var tmp = paramsarr[i].split("=");
			if (!tmp[0] || !tmp[1]) continue;
			params[tmp[0]]  = decodeURIComponent(tmp[1]);
		}
		return params;
	}
	function parse_params(params) {
		var uri = "?";
		for (var key in params) {
			uri += key + '=' + encodeURIComponent(params[key]) + '&';
		}
		if (uri.slice(-1) == "&")
			uri = uri.substring(0, uri.length - 1);
		if (uri == '?')
			uri = window.location.href.split('?')[0];
		return uri;
	}
	function find_child(node, selector) {
		var children = node.querySelectorAll(selector);
		if (children.length) return children[0];
	}
	function find_group(node) {
		var parent = node.parentElement;
		if (!parent) return;
		if (parent.id == "frames") return node;
		return find_group(parent);
	}
	function orig_save(e, attr, val) {
		if (e.attributes["_orig_" + attr] != undefined) return;
		if (e.attributes[attr] == undefined) return;
		if (val == undefined) val = e.attributes[attr].value;
		e.setAttribute("_orig_" + attr, val);
	}
	function orig_load(e, attr) {
		if (e.attributes["_orig_"+attr] == undefined) return;
		e.attributes[attr].value = e.attributes["_orig_" + attr].value;
		e.removeAttribute("_orig_"+attr);
	}
	function g_to_text(e) {
		var text = find_child(e, "title").firstChild.nodeValue;
		return (text)
	}
	function g_to_func(e) {
		var func = g_to_text(e);
		// if there's any manipulation we want to do to the function
		// name before it's searched, do it here before returning.
		return (func);
	}
	function update_text(e) {
		var r = find_child(e, "rect");
		var t = find_child(e, "text");
		var w = parseFloat(r.attributes.width.value) -3;
		var txt = find_child(e, "title").textContent.replace(/\([^(]*\)$/,"");
		t.attributes.x.value = parseFloat(r.attributes.x.value) + 3;

		// Smaller than this size won't fit anything
		if (w < 2 * 13 * 0.59) {
			t.textContent = "";
			return;
		}

		t.textContent = txt;
		// Fit in full text width
		if (/^ *$/.test(txt) || t.getSubStringLength(0, txt.length) < w)
			return;

		for (var x = txt.length - 2; x > 0; x--) {
			if (t.getSubStringLength(0, x + 2) <= w) {
				t.textContent = txt.substring(0, x) + "..";
				return;
			}
		}
		t.textContent = "";
	}

	// zoom
	function zoom_reset(e) {
		if (e.attributes != undefined) {
			orig_load(e, "x");
			orig_load(e, "width");
		}
		if (e.childNodes == undefined) return;
		for (var i = 0, c = e.childNodes; i < c.length; i++) {
			zoom_reset(c[i]);
		}
	}
	function zoom_child(e, x, ratio) {
		if (e.attributes != undefined) {
			if (e.attributes.x != undefined) {
				orig_save(e, "x");
				e.attributes.x.value = (parseFloat(e.attributes.x.value) - x - 10) * ratio + 10;
				if (e.tagName == "text")
					e.attributes.x.value = find_child(e.parentNode, "rect[x]").attributes.x.value + 3;
			}
			if (e.attributes.width != undefined) {
				orig_save(e, "width");
				e.attributes.width.value = parseFloat(e.attributes.width.value) * ratio;
			}
		}

		if (e.childNodes == undefined) return;
		for (var i = 0, c = e.childNodes; i < c.length; i++) {
			zoom_child(c[i], x - 10, ratio);
		}
	}
	function zoom_parent(e) {
		if (e.attributes) {
			if (e.attributes.x != undefined) {
				orig_save(e, "x");
				e.attributes.x.value = 10;
			}
			if (e.attributes.width != undefined) {
				orig_save(e, "width");
				e.attributes.width.value = parseInt(svg.width.baseVal.value) - (10 * 2);
			}
		}
		if (e.childNodes == undefined) return;
		for (var i = 0, c = e.childNodes; i < c.length; i++) {
			zoom_parent(c[i]);
		}
	}
	function zoom(node) {
		var attr = find_child(node, "rect").attributes;
		var width = parseFloat(attr.width.value);
		var xmin = parseFloat(attr.x.value);
		var xmax = parseFloat(xmin + width);
		var ymin = parseFloat(attr.y.value);
		var ratio = (svg.width.baseVal.value - 2 * 10) / width;

		// XXX: Workaround for JavaScript float issues (fix me)
		var fudge = 0.0001;

		unzoombtn.classList.remove("hide");

		var el = document.getElementById("frames").children;
		for (var i = 0; i < el.length; i++) {
			var e = el[i];
			var a = find_child(e, "rect").attributes;
			var ex = parseFloat(a.x.value);
			var ew = parseFloat(a.width.value);
			var upstack;
			// Is it an ancestor
			if (1 == 0) {
				upstack = parseFloat(a.y.value) > ymin;
			} else {
				upstack = parseFloat(a.y.value) < ymin;
			}
			if (upstack) {
				// Direct ancestor
				if (ex <= xmin && (ex+ew+fudge) >= xmax) {
					e.classList.add("parent");
					zoom_parent(e);
					update_text(e);
				}
				// not in current path
				else
					e.classList.add("hide");
			}
			// Children maybe
			else {
				// no common path
				if (ex < xmin || ex + fudge >= xmax) {
					e.classList.add("hide");
				}
				else {
					zoom_child(e, xmin, ratio);
					update_text(e);
				}
			}
		}
		search();
	}
	function unzoom() {
		unzoombtn.classList.add("hide");
		var el = document.getElementById("frames").children;
		for(var i = 0; i < el.length; i++) {
			el[i].classList.remove("parent");
			el[i].classList.remove("hide");
			zoom_reset(el[i]);
			update_text(el[i]);
		}
		search();
	}
	function clearzoom() {
		unzoom();

		// remove zoom state
		var params = get_params();
		if (params.x) delete params.x;
		if (params.y) delete params.y;
		history.replaceState(null, null, parse_params(params));
	}

	// search
	function toggle_ignorecase() {
		ignorecase = !ignorecase;
		if (ignorecase) {
			ignorecaseBtn.classList.add("show");
		} else {
			ignorecaseBtn.classList.remove("show");
		}
		reset_search();
		search();
	}
	function reset_search() {
		var el = document.querySelectorAll("#frames rect");
		for (var i = 0; i < el.length; i++) {
			orig_load(el[i], "fill")
		}
		var params = get_params();
		delete params.s;
		history.replaceState(null, null, parse_params(params));
	}
	function search_prompt() {
		if (!searching) {
			var term = prompt("Enter a search term (regexp " +
			    "allowed, eg: ^ext4_)"
			    + (ignorecase ? ", ignoring case" : "")
			    + "\nPress Ctrl-i to toggle case sensitivity", "");
			if (term != null) search(term);
		} else {
			reset_search();
			searching = 0;
			currentSearchTerm = null;
			searchbtn.classList.remove("show");
			searchbtn.firstChild.nodeValue = "Search"
			matchedtxt.classList.add("hide");
			matchedtxt.firstChild.nodeValue = ""
		}
	}
	function search(term) {
		if (term) currentSearchTerm = term;

		var re = new RegExp(currentSearchTerm, ignorecase ? 'i' : '');
		var el = document.getElementById("frames").children;
		var matches = new Object();
		var maxwidth = 0;
		for (var i = 0; i < el.length; i++) {
			var e = el[i];
			var func = g_to_func(e);
			var rect = find_child(e, "rect");
			if (func == null || rect == null)
				continue;

			// Save max width. Only works as we have a root frame
			var w = parseFloat(rect.attributes.width.value);
			if (w > maxwidth)
				maxwidth = w;

			if (func.match(re)) {
				// highlight
				var x = parseFloat(rect.attributes.x.value);
				orig_save(rect, "fill");
				rect.attributes.fill.value = "rgb(230,0,230)";

				// remember matches
				if (matches[x] == undefined) {
					matches[x] = w;
				} else {
					if (w > matches[x]) {
						// overwrite with parent
						matches[x] = w;
					}
				}
				searching = 1;
			}
		}
		if (!searching)
			return;
		var params = get_params();
		params.s = currentSearchTerm;
		history.replaceState(null, null, parse_params(params));

		searchbtn.classList.add("show");
		searchbtn.firstChild.nodeValue = "Reset Search";

		// calculate percent matched, excluding vertical overlap
		var count = 0;
		var lastx = -1;
		var lastw = 0;
		var keys = Array();
		for (k in matches) {
			if (matches.hasOwnProperty(k))
				keys.push(k);
		}
		// sort the matched frames by their x location
		// ascending, then width descending
		keys.sort(function(a, b){
			return a - b;
		});
		// Step through frames saving only the biggest bottom-up frames
		// thanks to the sort order. This relies on the tree property
		// where children are always smaller than their parents.
		var fudge = 0.0001;	// JavaScript floating point
		for (var k in keys) {
			var x = parseFloat(keys[k]);
			var w = matches[keys[k]];
			if (x >= lastx + lastw - fudge) {
				count += w;
				lastx = x;
				lastw = w;
			}
		}
		// display matched percent
		matchedtxt.classList.remove("hide");
		var pct = 100 * count / maxwidth;
		if (pct != 100) pct = pct.toFixed(1)
		matchedtxt.firstChild.nodeValue = "Matched: " + pct + "%";
	}
]]>
</script>
<rect x="0.0" y="0" width="1200.0" height="315.0" fill="url(#background)"  />
<text id="title" x="600.00" y="26" >Firedrake example</text>
<text id="details" x="10.00" y="297" > </text>
<text id="unzoom" x="10.00" y="26" class="hide">Reset Zoom</text>
<text id="search" x="1090.00" y="26" >Search</text>
<text id="ignorecase" x="1174.00" y="26" >ic</text>
<text id="matched" x="1090.00" y="297" > </text>
<g id="frames">
<g >
<title>FunctionSpaceData: CreateElement (7,803 us, 0.26%)</title><rect x="428.6" y="135" width="3.1" height="15.0" fill="rgb(0,0,0)" rx="2" ry="2" />
<text  x="431.63" y="145.5" ></text>
</g>
<g >
<title>pyop2.global_kernel.GlobalKernel.compile (33,821 us, 1.14%)</title><rect x="1103.1" y="183" width="13.4" height="15.0" fill="rgb(0,0,0)" rx="2" ry="2" />
<text  x="1106.12" y="193.5" ></text>
</g>
<g >
<title>firedrake.functionspaceimpl.FunctionSpace.__init__ (421 us, 0.01%)</title><rect x="1189.8" y="199" width="0.2" height="15.0" fill="rgb(0,0,0)" rx="2" ry="2" />
<text  x="1192.83" y="209.5" ></text>
</g>
<g >
<title>firedrake.formmanipulation.split_form (6,023 us, 0.20%)</title><rect x="1187.6" y="135" width="2.4" height="15.0" fill="rgb(0,0,0)" rx="2" ry="2" />
<text  x="1190.61" y="145.5" ></text>
</g>
<g >
<title>firedrake.functionspacedata.FunctionSpaceData.__init__ (1,713 us, 0.06%)</title><rect x="1146.7" y="247" width="0.7" height="15.0" fill="rgb(0,0,0)" rx="2" ry="2" />
<text  x="1149.74" y="257.5" ></text>
</g>
<g >
<title>firedrake.ufl_expr.derivative (954 us, 0.03%)</title><rect x="1068.2" y="103" width="0.4" height="15.0" fill="rgb(0,0,0)" rx="2" ry="2" />
<text  x="1071.20" y="113.5" ></text>
</g>
<g >
<title>PetscBarrier (659 us, 0.02%)</title><rect x="433.4" y="71" width="0.2" height="15.0" fill="rgb(0,0,0)" rx="2" ry="2" />
<text  x="436.38" y="81.5" ></text>
</g>
<g >
<title>ParLoopExecute (73,420 us, 2.47%)</title><rect x="1148.9" y="119" width="29.1" height="15.0" fill="rgb(0,0,0)" rx="2" ry="2" />
<text  x="1151.89" y="129.5" >P..</text>
</g>
<g >
<title>firedrake.tsfc_interface.compile_form (18,618 us, 0.63%)</title><rect x="1140.0" y="135" width="7.4" height="15.0" fill="rgb(0,0,0)" rx="2" ry="2" />
<text  x="1143.03" y="145.5" ></text>
</g>
<g >
<title>firedrake.functionspacedata.get_shared_data (516 us, 0.02%)</title><rect x="1060.9" y="103" width="0.2" height="15.0" fill="rgb(0,0,0)" rx="2" ry="2" />
<text  x="1063.92" y="113.5" ></text>
</g>
<g >
<title>firedrake.formmanipulation.ExtractSubBlock.split (2,510 us, 0.08%)</title><rect x="1125.5" y="183" width="1.0" height="15.0" fill="rgb(0,0,0)" rx="2" ry="2" />
<text  x="1128.52" y="193.5" ></text>
</g>
<g >
<title>Parloop_Cells_wrap_form0_cell_integral_otherwise (40,776 us, 1.37%)</title><rect x="1149.1" y="135" width="16.1" height="15.0" fill="rgb(0,0,0)" rx="2" ry="2" />
<text  x="1152.07" y="145.5" ></text>
</g>
<g >
<title>firedrake.functionspace.make_scalar_element (1,180 us, 0.04%)</title><rect x="1146.0" y="215" width="0.5" height="15.0" fill="rgb(0,0,0)" rx="2" ry="2" />
<text  x="1149.01" y="225.5" ></text>
</g>
<g >
<title>pyop2.global_kernel.GlobalKernel.compile (43,247 us, 1.45%)</title><rect x="402.6" y="135" width="17.2" height="15.0" fill="rgb(0,0,0)" rx="2" ry="2" />
<text  x="405.62" y="145.5" ></text>
</g>
<g >
<title>firedrake.formmanipulation.ExtractSubBlock.split (3,119 us, 0.10%)</title><rect x="1188.8" y="151" width="1.2" height="15.0" fill="rgb(0,0,0)" rx="2" ry="2" />
<text  x="1191.76" y="161.5" ></text>
</g>
<g >
<title>firedrake.matrix_free.operators.ImplicitMatrixContext.mult (136,012 us, 4.57%)</title><rect x="1072.6" y="135" width="53.9" height="15.0" fill="rgb(0,0,0)" rx="2" ry="2" />
<text  x="1075.59" y="145.5" >fired..</text>
</g>
<g >
<title>CreateFunctionSpace (4,917 us, 0.17%)</title><rect x="1145.5" y="199" width="1.9" height="15.0" fill="rgb(0,0,0)" rx="2" ry="2" />
<text  x="1148.47" y="209.5" ></text>
</g>
<g >
<title>Parloop_Cells_wrap_form0_cell_integral_otherwise (54,140 us, 1.82%)</title><rect x="1075.8" y="167" width="21.4" height="15.0" fill="rgb(0,0,0)" rx="2" ry="2" />
<text  x="1078.75" y="177.5" ></text>
</g>
<g >
<title>firedrake.variational_solver.NonlinearVariationalProblem.__init__ (11,794 us, 0.40%)</title><rect x="1063.9" y="87" width="4.7" height="15.0" fill="rgb(0,0,0)" rx="2" ry="2" />
<text  x="1066.90" y="97.5" ></text>
</g>
<g >
<title>firedrake.functionspacedata.FunctionSpaceData.__init__ (20,095 us, 0.68%)</title><rect x="424.7" y="119" width="8.0" height="15.0" fill="rgb(0,0,0)" rx="2" ry="2" />
<text  x="427.74" y="129.5" ></text>
</g>
<g >
<title>firedrake.functionspace.make_scalar_element (889 us, 0.03%)</title><rect x="424.0" y="87" width="0.4" height="15.0" fill="rgb(0,0,0)" rx="2" ry="2" />
<text  x="427.04" y="97.5" ></text>
</g>
<g >
<title>firedrake.functionspacedata.FunctionSpaceData.__init__ (421 us, 0.01%)</title><rect x="1189.8" y="231" width="0.2" height="15.0" fill="rgb(0,0,0)" rx="2" ry="2" />
<text  x="1192.83" y="241.5" ></text>
</g>
<g >
<title>FunctionSpaceData: CreateElement (742 us, 0.02%)</title><rect x="422.4" y="167" width="0.3" height="15.0" fill="rgb(0,0,0)" rx="2" ry="2" />
<text  x="425.45" y="177.5" ></text>
</g>
<g >
<title>Log_Event_form0_cell_integral_otherwise (2,115 us, 0.07%)</title><rect x="1149.1" y="151" width="0.8" height="15.0" fill="rgb(0,0,0)" rx="2" ry="2" />
<text  x="1152.07" y="161.5" ></text>
</g>
<g >
<title>firedrake.functionspacedata.get_shared_data (452 us, 0.02%)</title><rect x="1126.3" y="247" width="0.2" height="15.0" fill="rgb(0,0,0)" rx="2" ry="2" />
<text  x="1129.33" y="257.5" ></text>
</g>
<g >
<title>firedrake.variational_solver.LinearVariationalProblem.__init__ (17,106 us, 0.57%)</title><rect x="1061.8" y="71" width="6.8" height="15.0" fill="rgb(0,0,0)" rx="2" ry="2" />
<text  x="1064.80" y="81.5" ></text>
</g>
<g >
<title>CreateFunctionSpace (22,620 us, 0.76%)</title><rect x="423.7" y="71" width="9.0" height="15.0" fill="rgb(0,0,0)" rx="2" ry="2" />
<text  x="426.73" y="81.5" ></text>
</g>
<g >
<title>Log_Event_form1_cell_integral_otherwise (590 us, 0.02%)</title><rect x="1165.2" y="151" width="0.3" height="15.0" fill="rgb(0,0,0)" rx="2" ry="2" />
<text  x="1168.24" y="161.5" ></text>
</g>
<g >
<title>pyop2.global_kernel.GlobalKernel.compile (34,708 us, 1.17%)</title><rect x="1083.5" y="183" width="13.7" height="15.0" fill="rgb(0,0,0)" rx="2" ry="2" />
<text  x="1086.46" y="193.5" ></text>
</g>
<g >
<title>firedrake.ufl_expr.action (5,312 us, 0.18%)</title><rect x="1061.8" y="87" width="2.1" height="15.0" fill="rgb(0,0,0)" rx="2" ry="2" />
<text  x="1064.80" y="97.5" ></text>
</g>
<g >
<title>firedrake.functionspacedata.FunctionSpaceData.__init__ (7,008 us, 0.24%)</title><rect x="420.3" y="151" width="2.7" height="15.0" fill="rgb(0,0,0)" rx="2" ry="2" />
<text  x="423.26" y="161.5" ></text>
</g>
<g >
<title>CreateMesh (1,699 us, 0.06%)</title><rect x="432.7" y="71" width="0.7" height="15.0" fill="rgb(0,0,0)" rx="2" ry="2" />
<text  x="435.70" y="81.5" ></text>
</g>
<g >
<title>firedrake.mesh._from_cell_list (598 us, 0.02%)</title><rect x="1061.6" y="103" width="0.2" height="15.0" fill="rgb(0,0,0)" rx="2" ry="2" />
<text  x="1064.56" y="113.5" ></text>
</g>
<g >
<title>firedrake.mesh._Facets.__init__ (818 us, 0.03%)</title><rect x="432.4" y="151" width="0.3" height="15.0" fill="rgb(0,0,0)" rx="2" ry="2" />
<text  x="435.38" y="161.5" ></text>
</g>
<g >
<title>firedrake.mesh._Facets.__init__ (742 us, 0.02%)</title><rect x="422.7" y="167" width="0.3" height="15.0" fill="rgb(0,0,0)" rx="2" ry="2" />
<text  x="425.74" y="177.5" ></text>
</g>
<g >
<title>firedrake.extrusion_utils.make_extruded_coords (78,421 us, 2.63%)</title><rect x="388.7" y="87" width="31.1" height="15.0" fill="rgb(0,0,0)" rx="2" ry="2" />
<text  x="391.67" y="97.5" >fi..</text>
</g>
<g >
<title>firedrake (2,976,241 us, 100.00%)</title><rect x="10.0" y="55" width="1180.0" height="15.0" fill="rgb(0,0,0)" rx="2" ry="2" />
<text  x="13.00" y="65.5" >firedrake</text>
</g>
<g >
<title>firedrake.formmanipulation.ExtractSubBlock.argument (1,031 us, 0.03%)</title><rect x="1189.6" y="167" width="0.4" height="15.0" fill="rgb(0,0,0)" rx="2" ry="2" />
<text  x="1192.59" y="177.5" ></text>
</g>
<g >
<title>firedrake.function.Function.split (954 us, 0.03%)</title><rect x="1068.2" y="119" width="0.4" height="15.0" fill="rgb(0,0,0)" rx="2" ry="2" />
<text  x="1071.20" y="129.5" ></text>
</g>
<g >
<title>Log_Event_form1_cell_integral_otherwise (13,269 us, 0.45%)</title><rect x="1097.9" y="183" width="5.2" height="15.0" fill="rgb(0,0,0)" rx="2" ry="2" />
<text  x="1100.86" y="193.5" ></text>
</g>
<g >
<title>KSPSolve (189,943 us, 6.38%)</title><rect x="1072.1" y="103" width="75.3" height="15.0" fill="rgb(0,0,0)" rx="2" ry="2" />
<text  x="1075.11" y="113.5" >KSPSolve</text>
</g>
<g >
<title>firedrake.ufl_expr.adjoint (10,840 us, 0.36%)</title><rect x="1063.9" y="103" width="4.3" height="15.0" fill="rgb(0,0,0)" rx="2" ry="2" />
<text  x="1066.90" y="113.5" ></text>
</g>
<g >
<title>firedrake.mesh.MeshTopology._facets (2,477 us, 0.08%)</title><rect x="431.7" y="135" width="1.0" height="15.0" fill="rgb(0,0,0)" rx="2" ry="2" />
<text  x="434.72" y="145.5" ></text>
</g>
<g >
<title>firedrake.ufl_expr.adjoint (3,171 us, 0.11%)</title><rect x="1070.7" y="119" width="1.3" height="15.0" fill="rgb(0,0,0)" rx="2" ry="2" />
<text  x="1073.70" y="129.5" ></text>
</g>
<g >
<title>MatMult (136,012 us, 4.57%)</title><rect x="1072.6" y="119" width="53.9" height="15.0" fill="rgb(0,0,0)" rx="2" ry="2" />
<text  x="1075.59" y="129.5" >MatMult</text>
</g>
<g >
<title>CreateMesh (434 us, 0.01%)</title><rect x="1061.4" y="119" width="0.2" height="15.0" fill="rgb(0,0,0)" rx="2" ry="2" />
<text  x="1064.39" y="129.5" ></text>
</g>
<g >
<title>Parloop_Cells_wrap_pyop2_kernel_uniform_extrusion (43,736 us, 1.47%)</title><rect x="402.4" y="119" width="17.4" height="15.0" fill="rgb(0,0,0)" rx="2" ry="2" />
<text  x="405.43" y="129.5" ></text>
</g>
<g >
<title>CreateFunctionSpace (1,073 us, 0.04%)</title><rect x="1126.1" y="215" width="0.4" height="15.0" fill="rgb(0,0,0)" rx="2" ry="2" />
<text  x="1129.09" y="225.5" ></text>
</g>
<g >
<title>firedrake.variational_solver.NonlinearVariationalSolver.solve (297,728 us, 10.00%)</title><rect x="1072.0" y="71" width="118.0" height="15.0" fill="rgb(0,0,0)" rx="2" ry="2" />
<text  x="1074.96" y="81.5" >firedrake.var..</text>
</g>
<g >
<title>KSPGMRESOrthog (385 us, 0.01%)</title><rect x="1072.4" y="119" width="0.2" height="15.0" fill="rgb(0,0,0)" rx="2" ry="2" />
<text  x="1075.43" y="129.5" ></text>
</g>
<g >
<title>firedrake.tsfc_interface.compile_form (30,281 us, 1.02%)</title><rect x="1178.0" y="119" width="12.0" height="15.0" fill="rgb(0,0,0)" rx="2" ry="2" />
<text  x="1180.99" y="129.5" ></text>
</g>
<g >
<title>firedrake.mesh.ExtrudedMeshTopology.__init__ (874 us, 0.03%)</title><rect x="423.0" y="87" width="0.4" height="15.0" fill="rgb(0,0,0)" rx="2" ry="2" />
<text  x="426.03" y="97.5" ></text>
</g>
<g >
<title>firedrake.__init__ (1,581,263 us, 53.13%)</title><rect x="433.6" y="71" width="627.0" height="15.0" fill="rgb(0,0,0)" rx="2" ry="2" />
<text  x="436.64" y="81.5" >firedrake.__init__</text>
</g>
<g >
<title>pyop2.global_kernel.GlobalKernel.compile (31,953 us, 1.07%)</title><rect x="1127.4" y="167" width="12.6" height="15.0" fill="rgb(0,0,0)" rx="2" ry="2" />
<text  x="1130.37" y="177.5" ></text>
</g>
<g >
<title>firedrake.functionspacedata.FunctionSpaceData.__init__ (516 us, 0.02%)</title><rect x="1060.9" y="119" width="0.2" height="15.0" fill="rgb(0,0,0)" rx="2" ry="2" />
<text  x="1063.92" y="129.5" ></text>
</g>
<g >
<title>firedrake.functionspaceimpl.FunctionSpace.__init__ (2,370 us, 0.08%)</title><rect x="1146.5" y="215" width="0.9" height="15.0" fill="rgb(0,0,0)" rx="2" ry="2" />
<text  x="1149.48" y="225.5" ></text>
</g>
<g >
<title>firedrake.formmanipulation.split_form (8,233 us, 0.28%)</title><rect x="1144.2" y="151" width="3.2" height="15.0" fill="rgb(0,0,0)" rx="2" ry="2" />
<text  x="1147.15" y="161.5" ></text>
</g>
<g >
<title>Parloop_Cells_wrap_form0_cell_integral_otherwise (32,321 us, 1.09%)</title><rect x="1127.2" y="151" width="12.8" height="15.0" fill="rgb(0,0,0)" rx="2" ry="2" />
<text  x="1130.22" y="161.5" ></text>
</g>
<g >
<title>CreateFunctionSpace (1,031 us, 0.03%)</title><rect x="1189.6" y="183" width="0.4" height="15.0" fill="rgb(0,0,0)" rx="2" ry="2" />
<text  x="1192.59" y="193.5" ></text>
</g>
<g >
<title>CreateFunctionSpace (7,805 us, 0.26%)</title><rect x="419.9" y="103" width="3.1" height="15.0" fill="rgb(0,0,0)" rx="2" ry="2" />
<text  x="422.94" y="113.5" ></text>
</g>
<g >
<title>firedrake.formmanipulation.ExtractSubBlock.split (8,233 us, 0.28%)</title><rect x="1144.2" y="167" width="3.2" height="15.0" fill="rgb(0,0,0)" rx="2" ry="2" />
<text  x="1147.15" y="177.5" ></text>
</g>
<g >
<title>Parloop_Cells_wrap_form1_cell_integral_otherwise (32,171 us, 1.08%)</title><rect x="1165.2" y="135" width="12.8" height="15.0" fill="rgb(0,0,0)" rx="2" ry="2" />
<text  x="1168.24" y="145.5" ></text>
</g>
<g >
<title>Parloop_Cells_wrap_form1_cell_integral_otherwise (48,716 us, 1.64%)</title><rect x="1097.2" y="167" width="19.3" height="15.0" fill="rgb(0,0,0)" rx="2" ry="2" />
<text  x="1100.22" y="177.5" ></text>
</g>
<g >
<title>firedrake.assemble.allocate_matrix (7,424 us, 0.25%)</title><rect x="1069.0" y="87" width="3.0" height="15.0" fill="rgb(0,0,0)" rx="2" ry="2" />
<text  x="1072.02" y="97.5" ></text>
</g>
<g >
<title>firedrake.matrix_free.operators.ImplicitMatrixContext.__init__ (7,424 us, 0.25%)</title><rect x="1069.0" y="103" width="3.0" height="15.0" fill="rgb(0,0,0)" rx="2" ry="2" />
<text  x="1072.02" y="113.5" ></text>
</g>
<g >
<title>ParLoopExecute (32,321 us, 1.09%)</title><rect x="1127.2" y="135" width="12.8" height="15.0" fill="rgb(0,0,0)" rx="2" ry="2" />
<text  x="1130.22" y="145.5" ></text>
</g>
<g >
<title>firedrake.functionspacedata.get_shared_data (1,713 us, 0.06%)</title><rect x="1146.7" y="231" width="0.7" height="15.0" fill="rgb(0,0,0)" rx="2" ry="2" />
<text  x="1149.74" y="241.5" ></text>
</g>
<g >
<title>firedrake.formmanipulation.ExtractSubBlock.argument (1,073 us, 0.04%)</title><rect x="1126.1" y="199" width="0.4" height="15.0" fill="rgb(0,0,0)" rx="2" ry="2" />
<text  x="1129.09" y="209.5" ></text>
</g>
<g >
<title>firedrake.utility_meshes.SquareMesh (1,687 us, 0.06%)</title><rect x="1061.1" y="71" width="0.7" height="15.0" fill="rgb(0,0,0)" rx="2" ry="2" />
<text  x="1064.13" y="81.5" ></text>
</g>
<g >
<title>firedrake.functionspace.make_scalar_element (399 us, 0.01%)</title><rect x="419.9" y="119" width="0.2" height="15.0" fill="rgb(0,0,0)" rx="2" ry="2" />
<text  x="422.94" y="129.5" ></text>
</g>
<g >
<title>firedrake.formmanipulation.ExtractSubBlock.argument (6,283 us, 0.21%)</title><rect x="1144.9" y="183" width="2.5" height="15.0" fill="rgb(0,0,0)" rx="2" ry="2" />
<text  x="1147.93" y="193.5" ></text>
</g>
<g >
<title>Log_Event_form0_cell_integral_otherwise (17,484 us, 0.59%)</title><rect x="1076.5" y="183" width="7.0" height="15.0" fill="rgb(0,0,0)" rx="2" ry="2" />
<text  x="1079.52" y="193.5" ></text>
</g>
<g >
<title>SNESSolve (297,349 us, 9.99%)</title><rect x="1072.1" y="87" width="117.9" height="15.0" fill="rgb(0,0,0)" rx="2" ry="2" />
<text  x="1075.11" y="97.5" >SNESSolve</text>
</g>
<g >
<title>firedrake.ufl_expr.action (4,253 us, 0.14%)</title><rect x="1069.0" y="119" width="1.7" height="15.0" fill="rgb(0,0,0)" rx="2" ry="2" />
<text  x="1072.02" y="129.5" ></text>
</g>
<g >
<title>firedrake.tsfc_interface.compile_form (25,174 us, 0.85%)</title><rect x="1116.5" y="151" width="10.0" height="15.0" fill="rgb(0,0,0)" rx="2" ry="2" />
<text  x="1119.53" y="161.5" ></text>
</g>
<g >
<title>firedrake.variational_solver.NonlinearVariationalSolver.__init__ (8,522 us, 0.29%)</title><rect x="1068.6" y="71" width="3.4" height="15.0" fill="rgb(0,0,0)" rx="2" ry="2" />
<text  x="1071.58" y="81.5" ></text>
</g>
<g >
<title>firedrake.functionspacedata.get_shared_data (20,095 us, 0.68%)</title><rect x="424.7" y="103" width="8.0" height="15.0" fill="rgb(0,0,0)" rx="2" ry="2" />
<text  x="427.74" y="113.5" ></text>
</g>
<g >
<title>CreateExtMesh (89,116 us, 2.99%)</title><rect x="388.4" y="71" width="35.3" height="15.0" fill="rgb(0,0,0)" rx="2" ry="2" />
<text  x="391.40" y="81.5" >Cr..</text>
</g>
<g >
<title>firedrake.functionspaceimpl.FunctionSpace.__init__ (516 us, 0.02%)</title><rect x="1060.9" y="87" width="0.2" height="15.0" fill="rgb(0,0,0)" rx="2" ry="2" />
<text  x="1063.92" y="97.5" ></text>
</g>
<g >
<title>firedrake.functionspacedata.get_shared_data (421 us, 0.01%)</title><rect x="1189.8" y="215" width="0.2" height="15.0" fill="rgb(0,0,0)" rx="2" ry="2" />
<text  x="1192.83" y="225.5" ></text>
</g>
<g >
<title>CreateMesh (430 us, 0.01%)</title><rect x="432.9" y="87" width="0.2" height="15.0" fill="rgb(0,0,0)" rx="2" ry="2" />
<text  x="435.93" y="97.5" ></text>
</g>
<g >
<title>CreateMesh (434 us, 0.01%)</title><rect x="1061.4" y="103" width="0.2" height="15.0" fill="rgb(0,0,0)" rx="2" ry="2" />
<text  x="1064.39" y="113.5" ></text>
</g>
<g >
<title>PCApply (52,727 us, 1.77%)</title><rect x="1126.5" y="119" width="20.9" height="15.0" fill="rgb(0,0,0)" rx="2" ry="2" />
<text  x="1129.51" y="129.5" ></text>
</g>
<g >
<title>firedrake.functionspacedata.FunctionSpaceData.__init__ (452 us, 0.02%)</title><rect x="1126.3" y="263" width="0.2" height="15.0" fill="rgb(0,0,0)" rx="2" ry="2" />
<text  x="1129.33" y="273.5" ></text>
</g>
<g >
<title>pyop2.global_kernel.GlobalKernel.compile (31,581 us, 1.06%)</title><rect x="1165.5" y="151" width="12.5" height="15.0" fill="rgb(0,0,0)" rx="2" ry="2" />
<text  x="1168.47" y="161.5" ></text>
</g>
<g >
<title>firedrake.functionspaceimpl.FunctionSpace.__init__ (7,406 us, 0.25%)</title><rect x="420.1" y="119" width="2.9" height="15.0" fill="rgb(0,0,0)" rx="2" ry="2" />
<text  x="423.10" y="129.5" ></text>
</g>
<g >
<title>firedrake.functionspaceimpl.FunctionSpace.__init__ (20,957 us, 0.70%)</title><rect x="424.4" y="87" width="8.3" height="15.0" fill="rgb(0,0,0)" rx="2" ry="2" />
<text  x="427.39" y="97.5" ></text>
</g>
<g >
<title>all (2,976,241 us, 100%)</title><rect x="10.0" y="39" width="1180.0" height="15.0" fill="rgb(0,0,0)" rx="2" ry="2" />
<text  x="13.00" y="49.5" ></text>
</g>
<g >
<title>firedrake.functionspacedata.get_shared_data (7,008 us, 0.24%)</title><rect x="420.3" y="135" width="2.7" height="15.0" fill="rgb(0,0,0)" rx="2" ry="2" />
<text  x="423.26" y="145.5" ></text>
</g>
<g >
<title>firedrake.formmanipulation.split_form (2,510 us, 0.08%)</title><rect x="1125.5" y="167" width="1.0" height="15.0" fill="rgb(0,0,0)" rx="2" ry="2" />
<text  x="1128.52" y="177.5" ></text>
</g>
<g >
<title>VecMDot (385 us, 0.01%)</title><rect x="1072.4" y="135" width="0.2" height="15.0" fill="rgb(0,0,0)" rx="2" ry="2" />
<text  x="1075.43" y="145.5" ></text>
</g>
<g >
<title>firedrake.functionspace.MixedFunctionSpace (1,421 us, 0.05%)</title><rect x="1060.6" y="71" width="0.5" height="15.0" fill="rgb(0,0,0)" rx="2" ry="2" />
<text  x="1063.57" y="81.5" ></text>
</g>
<g >
<title>ParLoopExecute (45,028 us, 1.51%)</title><rect x="401.9" y="103" width="17.9" height="15.0" fill="rgb(0,0,0)" rx="2" ry="2" />
<text  x="404.91" y="113.5" ></text>
</g>
<g >
<title>firedrake.utility_meshes.RectangleMesh (1,687 us, 0.06%)</title><rect x="1061.1" y="87" width="0.7" height="15.0" fill="rgb(0,0,0)" rx="2" ry="2" />
<text  x="1064.13" y="97.5" ></text>
</g>
<g >
<title>pyop2.global_kernel.GlobalKernel.compile (38,661 us, 1.30%)</title><rect x="1149.9" y="151" width="15.3" height="15.0" fill="rgb(0,0,0)" rx="2" ry="2" />
<text  x="1152.91" y="161.5" ></text>
</g>
<g >
<title>SNESFunctionEval (107,406 us, 3.61%)</title><rect x="1147.4" y="103" width="42.6" height="15.0" fill="rgb(0,0,0)" rx="2" ry="2" />
<text  x="1150.42" y="113.5" >SNE..</text>
</g>
<g >
<title>firedrake.mesh.make_mesh_from_coordinates (892 us, 0.03%)</title><rect x="423.4" y="87" width="0.3" height="15.0" fill="rgb(0,0,0)" rx="2" ry="2" />
<text  x="426.38" y="97.5" ></text>
</g>
<g >
<title>firedrake.functionspaceimpl.FunctionSpace.__init__ (452 us, 0.02%)</title><rect x="1126.3" y="231" width="0.2" height="15.0" fill="rgb(0,0,0)" rx="2" ry="2" />
<text  x="1129.33" y="241.5" ></text>
</g>
<g >
<title>ParLoopExecute (105,630 us, 3.55%)</title><rect x="1074.7" y="151" width="41.8" height="15.0" fill="rgb(0,0,0)" rx="2" ry="2" />
<text  x="1077.65" y="161.5" >Par..</text>
</g>
<g >
<title>firedrake.functionspace.VectorFunctionSpace (8,243 us, 0.28%)</title><rect x="419.8" y="87" width="3.2" height="15.0" fill="rgb(0,0,0)" rx="2" ry="2" />
<text  x="422.77" y="97.5" ></text>
</g>
<g >
<title>Mesh: numbering (706 us, 0.02%)</title><rect x="433.1" y="87" width="0.3" height="15.0" fill="rgb(0,0,0)" rx="2" ry="2" />
<text  x="436.10" y="97.5" ></text>
</g>
</g>
</svg>
