<?xml version="1.0" standalone="no"?>
<!DOCTYPE svg PUBLIC "-//W3C//DTD SVG 1.1//EN" "http://www.w3.org/Graphics/SVG/1.1/DTD/svg11.dtd">
<svg version="1.1" width="1200" height="331" onload="init(evt)" viewBox="0 0 1200 331" xmlns="http://www.w3.org/2000/svg" xmlns:xlink="http://www.w3.org/1999/xlink">
<!-- Flame graph stack visualization. See https://github.com/brendangregg/FlameGraph for latest version, and http://www.brendangregg.com/flamegraphs.html for examples. -->
<!-- NOTES:  -->
<defs>
	<linearGradient id="background" y1="0" y2="1" x1="0" x2="0" >
		<stop stop-color="#eeeeee" offset="5%" />
		<stop stop-color="#eeeeb0" offset="95%" />
	</linearGradient>
</defs>
<style type="text/css">
	text { font-family:Verdana; font-size:13px; fill:rgb(0,0,0); }
	#search, #ignorecase { opacity:0.1; cursor:pointer; }
	#search:hover, #search.show, #ignorecase:hover, #ignorecase.show { opacity:1; }
	#subtitle { text-anchor:middle; font-color:rgb(160,160,160); }
	#title { text-anchor:middle; font-size:18px}
	#unzoom { cursor:pointer; }
	#frames > *:hover { stroke:black; stroke-width:0.5; cursor:pointer; }
	.hide { display:none; }
	.parent { opacity:0.5; }
</style>
<script type="text/ecmascript">
<![CDATA[
	"use strict";
	var details, searchbtn, unzoombtn, matchedtxt, svg, searching, currentSearchTerm, ignorecase, ignorecaseBtn;
	function init(evt) {
		details = document.getElementById("details").firstChild;
		searchbtn = document.getElementById("search");
		ignorecaseBtn = document.getElementById("ignorecase");
		unzoombtn = document.getElementById("unzoom");
		matchedtxt = document.getElementById("matched");
		svg = document.getElementsByTagName("svg")[0];
		searching = 0;
		currentSearchTerm = null;

		// use GET parameters to restore a flamegraphs state.
		var params = get_params();
		if (params.x && params.y)
			zoom(find_group(document.querySelector('[x="' + params.x + '"][y="' + params.y + '"]')));
                if (params.s) search(params.s);
	}

	// event listeners
	window.addEventListener("click", function(e) {
		var target = find_group(e.target);
		if (target) {
			if (target.nodeName == "a") {
				if (e.ctrlKey === false) return;
				e.preventDefault();
			}
			if (target.classList.contains("parent")) unzoom();
			zoom(target);
			if (!document.querySelector('.parent')) {
				clearzoom();
				return;
			}

			// set parameters for zoom state
			var el = target.querySelector("rect");
			if (el && el.attributes && el.attributes.y && el.attributes._orig_x) {
				var params = get_params()
				params.x = el.attributes._orig_x.value;
				params.y = el.attributes.y.value;
				history.replaceState(null, null, parse_params(params));
			}
		}
		else if (e.target.id == "unzoom") clearzoom();
		else if (e.target.id == "search") search_prompt();
		else if (e.target.id == "ignorecase") toggle_ignorecase();
	}, false)

	// mouse-over for info
	// show
	window.addEventListener("mouseover", function(e) {
		var target = find_group(e.target);
		if (target) details.nodeValue = "Function: " + g_to_text(target);
	}, false)

	// clear
	window.addEventListener("mouseout", function(e) {
		var target = find_group(e.target);
		if (target) details.nodeValue = ' ';
	}, false)

	// ctrl-F for search
	// ctrl-I to toggle case-sensitive search
	window.addEventListener("keydown",function (e) {
		if (e.keyCode === 114 || (e.ctrlKey && e.keyCode === 70)) {
			e.preventDefault();
			search_prompt();
		}
		else if (e.ctrlKey && e.keyCode === 73) {
			e.preventDefault();
			toggle_ignorecase();
		}
	}, false)

	// functions
	function get_params() {
		var params = {};
		var paramsarr = window.location.search.substr(1).split('&');
		for (var i = 0; i < paramsarr.length; ++i) {
			var tmp = paramsarr[i].split("=");
			if (!tmp[0] || !tmp[1]) continue;
			params[tmp[0]]  = decodeURIComponent(tmp[1]);
		}
		return params;
	}
	function parse_params(params) {
		var uri = "?";
		for (var key in params) {
			uri += key + '=' + encodeURIComponent(params[key]) + '&';
		}
		if (uri.slice(-1) == "&")
			uri = uri.substring(0, uri.length - 1);
		if (uri == '?')
			uri = window.location.href.split('?')[0];
		return uri;
	}
	function find_child(node, selector) {
		var children = node.querySelectorAll(selector);
		if (children.length) return children[0];
	}
	function find_group(node) {
		var parent = node.parentElement;
		if (!parent) return;
		if (parent.id == "frames") return node;
		return find_group(parent);
	}
	function orig_save(e, attr, val) {
		if (e.attributes["_orig_" + attr] != undefined) return;
		if (e.attributes[attr] == undefined) return;
		if (val == undefined) val = e.attributes[attr].value;
		e.setAttribute("_orig_" + attr, val);
	}
	function orig_load(e, attr) {
		if (e.attributes["_orig_"+attr] == undefined) return;
		e.attributes[attr].value = e.attributes["_orig_" + attr].value;
		e.removeAttribute("_orig_"+attr);
	}
	function g_to_text(e) {
		var text = find_child(e, "title").firstChild.nodeValue;
		return (text)
	}
	function g_to_func(e) {
		var func = g_to_text(e);
		// if there's any manipulation we want to do to the function
		// name before it's searched, do it here before returning.
		return (func);
	}
	function update_text(e) {
		var r = find_child(e, "rect");
		var t = find_child(e, "text");
		var w = parseFloat(r.attributes.width.value) -3;
		var txt = find_child(e, "title").textContent.replace(/\([^(]*\)$/,"");
		t.attributes.x.value = parseFloat(r.attributes.x.value) + 3;

		// Smaller than this size won't fit anything
		if (w < 2 * 13 * 0.59) {
			t.textContent = "";
			return;
		}

		t.textContent = txt;
		// Fit in full text width
		if (/^ *$/.test(txt) || t.getSubStringLength(0, txt.length) < w)
			return;

		for (var x = txt.length - 2; x > 0; x--) {
			if (t.getSubStringLength(0, x + 2) <= w) {
				t.textContent = txt.substring(0, x) + "..";
				return;
			}
		}
		t.textContent = "";
	}

	// zoom
	function zoom_reset(e) {
		if (e.attributes != undefined) {
			orig_load(e, "x");
			orig_load(e, "width");
		}
		if (e.childNodes == undefined) return;
		for (var i = 0, c = e.childNodes; i < c.length; i++) {
			zoom_reset(c[i]);
		}
	}
	function zoom_child(e, x, ratio) {
		if (e.attributes != undefined) {
			if (e.attributes.x != undefined) {
				orig_save(e, "x");
				e.attributes.x.value = (parseFloat(e.attributes.x.value) - x - 10) * ratio + 10;
				if (e.tagName == "text")
					e.attributes.x.value = find_child(e.parentNode, "rect[x]").attributes.x.value + 3;
			}
			if (e.attributes.width != undefined) {
				orig_save(e, "width");
				e.attributes.width.value = parseFloat(e.attributes.width.value) * ratio;
			}
		}

		if (e.childNodes == undefined) return;
		for (var i = 0, c = e.childNodes; i < c.length; i++) {
			zoom_child(c[i], x - 10, ratio);
		}
	}
	function zoom_parent(e) {
		if (e.attributes) {
			if (e.attributes.x != undefined) {
				orig_save(e, "x");
				e.attributes.x.value = 10;
			}
			if (e.attributes.width != undefined) {
				orig_save(e, "width");
				e.attributes.width.value = parseInt(svg.width.baseVal.value) - (10 * 2);
			}
		}
		if (e.childNodes == undefined) return;
		for (var i = 0, c = e.childNodes; i < c.length; i++) {
			zoom_parent(c[i]);
		}
	}
	function zoom(node) {
		var attr = find_child(node, "rect").attributes;
		var width = parseFloat(attr.width.value);
		var xmin = parseFloat(attr.x.value);
		var xmax = parseFloat(xmin + width);
		var ymin = parseFloat(attr.y.value);
		var ratio = (svg.width.baseVal.value - 2 * 10) / width;

		// XXX: Workaround for JavaScript float issues (fix me)
		var fudge = 0.0001;

		unzoombtn.classList.remove("hide");

		var el = document.getElementById("frames").children;
		for (var i = 0; i < el.length; i++) {
			var e = el[i];
			var a = find_child(e, "rect").attributes;
			var ex = parseFloat(a.x.value);
			var ew = parseFloat(a.width.value);
			var upstack;
			// Is it an ancestor
			if (1 == 0) {
				upstack = parseFloat(a.y.value) > ymin;
			} else {
				upstack = parseFloat(a.y.value) < ymin;
			}
			if (upstack) {
				// Direct ancestor
				if (ex <= xmin && (ex+ew+fudge) >= xmax) {
					e.classList.add("parent");
					zoom_parent(e);
					update_text(e);
				}
				// not in current path
				else
					e.classList.add("hide");
			}
			// Children maybe
			else {
				// no common path
				if (ex < xmin || ex + fudge >= xmax) {
					e.classList.add("hide");
				}
				else {
					zoom_child(e, xmin, ratio);
					update_text(e);
				}
			}
		}
		search();
	}
	function unzoom() {
		unzoombtn.classList.add("hide");
		var el = document.getElementById("frames").children;
		for(var i = 0; i < el.length; i++) {
			el[i].classList.remove("parent");
			el[i].classList.remove("hide");
			zoom_reset(el[i]);
			update_text(el[i]);
		}
		search();
	}
	function clearzoom() {
		unzoom();

		// remove zoom state
		var params = get_params();
		if (params.x) delete params.x;
		if (params.y) delete params.y;
		history.replaceState(null, null, parse_params(params));
	}

	// search
	function toggle_ignorecase() {
		ignorecase = !ignorecase;
		if (ignorecase) {
			ignorecaseBtn.classList.add("show");
		} else {
			ignorecaseBtn.classList.remove("show");
		}
		reset_search();
		search();
	}
	function reset_search() {
		var el = document.querySelectorAll("#frames rect");
		for (var i = 0; i < el.length; i++) {
			orig_load(el[i], "fill")
		}
		var params = get_params();
		delete params.s;
		history.replaceState(null, null, parse_params(params));
	}
	function search_prompt() {
		if (!searching) {
			var term = prompt("Enter a search term (regexp " +
			    "allowed, eg: ^ext4_)"
			    + (ignorecase ? ", ignoring case" : "")
			    + "\nPress Ctrl-i to toggle case sensitivity", "");
			if (term != null) search(term);
		} else {
			reset_search();
			searching = 0;
			currentSearchTerm = null;
			searchbtn.classList.remove("show");
			searchbtn.firstChild.nodeValue = "Search"
			matchedtxt.classList.add("hide");
			matchedtxt.firstChild.nodeValue = ""
		}
	}
	function search(term) {
		if (term) currentSearchTerm = term;

		var re = new RegExp(currentSearchTerm, ignorecase ? 'i' : '');
		var el = document.getElementById("frames").children;
		var matches = new Object();
		var maxwidth = 0;
		for (var i = 0; i < el.length; i++) {
			var e = el[i];
			var func = g_to_func(e);
			var rect = find_child(e, "rect");
			if (func == null || rect == null)
				continue;

			// Save max width. Only works as we have a root frame
			var w = parseFloat(rect.attributes.width.value);
			if (w > maxwidth)
				maxwidth = w;

			if (func.match(re)) {
				// highlight
				var x = parseFloat(rect.attributes.x.value);
				orig_save(rect, "fill");
				rect.attributes.fill.value = "rgb(230,0,230)";

				// remember matches
				if (matches[x] == undefined) {
					matches[x] = w;
				} else {
					if (w > matches[x]) {
						// overwrite with parent
						matches[x] = w;
					}
				}
				searching = 1;
			}
		}
		if (!searching)
			return;
		var params = get_params();
		params.s = currentSearchTerm;
		history.replaceState(null, null, parse_params(params));

		searchbtn.classList.add("show");
		searchbtn.firstChild.nodeValue = "Reset Search";

		// calculate percent matched, excluding vertical overlap
		var count = 0;
		var lastx = -1;
		var lastw = 0;
		var keys = Array();
		for (k in matches) {
			if (matches.hasOwnProperty(k))
				keys.push(k);
		}
		// sort the matched frames by their x location
		// ascending, then width descending
		keys.sort(function(a, b){
			return a - b;
		});
		// Step through frames saving only the biggest bottom-up frames
		// thanks to the sort order. This relies on the tree property
		// where children are always smaller than their parents.
		var fudge = 0.0001;	// JavaScript floating point
		for (var k in keys) {
			var x = parseFloat(keys[k]);
			var w = matches[keys[k]];
			if (x >= lastx + lastw - fudge) {
				count += w;
				lastx = x;
				lastw = w;
			}
		}
		// display matched percent
		matchedtxt.classList.remove("hide");
		var pct = 100 * count / maxwidth;
		if (pct != 100) pct = pct.toFixed(1)
		matchedtxt.firstChild.nodeValue = "Matched: " + pct + "%";
	}
]]>
</script>
<rect x="0.0" y="0" width="1200.0" height="331.0" fill="url(#background)"  />
<text id="title" x="600.00" y="26" >Firedrake example</text>
<text id="details" x="10.00" y="313" > </text>
<text id="unzoom" x="10.00" y="26" class="hide">Reset Zoom</text>
<text id="search" x="1090.00" y="26" >Search</text>
<text id="ignorecase" x="1174.00" y="26" >ic</text>
<text id="matched" x="1090.00" y="313" > </text>
<g id="frames">
<g >
<title>firedrake.functionspaceimpl.FunctionSpace.__init__ (2,603 us, 0.07%)</title><rect x="1087.6" y="199" width="0.9" height="15.0" fill="rgb(0,0,0)" rx="2" ry="2" />
<text  x="1090.61" y="209.5" ></text>
</g>
<g >
<title>firedrake.functionspacedata.FunctionSpaceData.__init__ (707 us, 0.02%)</title><rect x="1081.5" y="231" width="0.2" height="15.0" fill="rgb(0,0,0)" rx="2" ry="2" />
<text  x="1084.51" y="241.5" ></text>
</g>
<g >
<title>firedrake.functionspacedata.get_shared_data (707 us, 0.02%)</title><rect x="1081.5" y="215" width="0.2" height="15.0" fill="rgb(0,0,0)" rx="2" ry="2" />
<text  x="1084.51" y="225.5" ></text>
</g>
<g >
<title>KSPSolve (15,651 us, 0.43%)</title><rect x="1074.0" y="103" width="5.2" height="15.0" fill="rgb(0,0,0)" rx="2" ry="2" />
<text  x="1077.04" y="113.5" ></text>
</g>
<g >
<title>firedrake.dmhooks.set_function_space (2,844 us, 0.08%)</title><rect x="929.8" y="119" width="0.9" height="15.0" fill="rgb(0,0,0)" rx="2" ry="2" />
<text  x="932.75" y="129.5" ></text>
</g>
<g >
<title>firedrake.function.Function.split (753 us, 0.02%)</title><rect x="1098.4" y="183" width="0.3" height="15.0" fill="rgb(0,0,0)" rx="2" ry="2" />
<text  x="1101.43" y="193.5" ></text>
</g>
<g >
<title>firedrake.ufl_expr.action (5,164 us, 0.14%)</title><rect x="1065.5" y="87" width="1.7" height="15.0" fill="rgb(0,0,0)" rx="2" ry="2" />
<text  x="1068.55" y="97.5" ></text>
</g>
<g >
<title>CreateSparsity (2,449 us, 0.07%)</title><rect x="1072.2" y="103" width="0.8" height="15.0" fill="rgb(0,0,0)" rx="2" ry="2" />
<text  x="1075.19" y="113.5" ></text>
</g>
<g >
<title>firedrake.variational_solver.NonlinearVariationalProblem.__init__ (31,210 us, 0.87%)</title><rect x="1088.5" y="151" width="10.2" height="15.0" fill="rgb(0,0,0)" rx="2" ry="2" />
<text  x="1091.46" y="161.5" ></text>
</g>
<g >
<title>Parloop_Cells_wrap_form00_cell_integral_otherwise (78,715 us, 2.18%)</title><rect x="891.6" y="135" width="25.7" height="15.0" fill="rgb(0,0,0)" rx="2" ry="2" />
<text  x="894.58" y="145.5" >P..</text>
</g>
<g >
<title>SNESSolve (356,150 us, 9.88%)</title><rect x="1073.4" y="87" width="116.6" height="15.0" fill="rgb(0,0,0)" rx="2" ry="2" />
<text  x="1076.43" y="97.5" >SNESSolve</text>
</g>
<g >
<title>firedrake.tsfc_interface.compile_form (32,461 us, 0.90%)</title><rect x="918.9" y="119" width="10.6" height="15.0" fill="rgb(0,0,0)" rx="2" ry="2" />
<text  x="921.88" y="129.5" ></text>
</g>
<g >
<title>firedrake.dmhooks.create_field_decomposition (55,743 us, 1.55%)</title><rect x="1080.4" y="119" width="18.3" height="15.0" fill="rgb(0,0,0)" rx="2" ry="2" />
<text  x="1083.43" y="129.5" ></text>
</g>
<g >
<title>PCSetUp (6,914 us, 0.19%)</title><rect x="1076.9" y="151" width="2.3" height="15.0" fill="rgb(0,0,0)" rx="2" ry="2" />
<text  x="1079.90" y="161.5" ></text>
</g>
<g >
<title>Log_Event_form_cell_integral_otherwise (2,012 us, 0.06%)</title><rect x="945.2" y="151" width="0.6" height="15.0" fill="rgb(0,0,0)" rx="2" ry="2" />
<text  x="948.17" y="161.5" ></text>
</g>
<g >
<title>PCGAMGCoarse_AGG (538 us, 0.01%)</title><rect x="1077.5" y="183" width="0.2" height="15.0" fill="rgb(0,0,0)" rx="2" ry="2" />
<text  x="1080.49" y="193.5" ></text>
</g>
<g >
<title>firedrake.functionspace.MixedFunctionSpace (1,300 us, 0.04%)</title><rect x="939.5" y="71" width="0.4" height="15.0" fill="rgb(0,0,0)" rx="2" ry="2" />
<text  x="942.49" y="81.5" ></text>
</g>
<g >
<title>firedrake.mesh.MeshTopology._facets (2,536 us, 0.07%)</title><rect x="330.5" y="135" width="0.8" height="15.0" fill="rgb(0,0,0)" rx="2" ry="2" />
<text  x="333.45" y="145.5" ></text>
</g>
<g >
<title>KSPSolve (989 us, 0.03%)</title><rect x="1078.8" y="215" width="0.4" height="15.0" fill="rgb(0,0,0)" rx="2" ry="2" />
<text  x="1081.84" y="225.5" ></text>
</g>
<g >
<title>firedrake.ufl_expr.adjoint (29,037 us, 0.81%)</title><rect x="1088.7" y="167" width="9.5" height="15.0" fill="rgb(0,0,0)" rx="2" ry="2" />
<text  x="1091.71" y="177.5" ></text>
</g>
<g >
<title>ParLoopExecute (84,284 us, 2.34%)</title><rect x="1100.1" y="119" width="27.6" height="15.0" fill="rgb(0,0,0)" rx="2" ry="2" />
<text  x="1103.07" y="129.5" >P..</text>
</g>
<g >
<title>firedrake.functionspacedata.FunctionSpaceData.__init__ (608 us, 0.02%)</title><rect x="1081.7" y="215" width="0.2" height="15.0" fill="rgb(0,0,0)" rx="2" ry="2" />
<text  x="1084.75" y="225.5" ></text>
</g>
<g >
<title>MatMult (788 us, 0.02%)</title><rect x="1076.6" y="199" width="0.3" height="15.0" fill="rgb(0,0,0)" rx="2" ry="2" />
<text  x="1079.64" y="209.5" ></text>
</g>
<g >
<title>firedrake.utility_meshes.RectangleMesh (1,844 us, 0.05%)</title><rect x="1064.9" y="87" width="0.6" height="15.0" fill="rgb(0,0,0)" rx="2" ry="2" />
<text  x="1067.94" y="97.5" ></text>
</g>
<g >
<title>Log_Event_form10_cell_integral_otherwise (907 us, 0.03%)</title><rect x="1161.0" y="151" width="0.3" height="15.0" fill="rgb(0,0,0)" rx="2" ry="2" />
<text  x="1164.03" y="161.5" ></text>
</g>
<g >
<title>CreateExtMesh (78,499 us, 2.18%)</title><rect x="298.3" y="71" width="25.7" height="15.0" fill="rgb(0,0,0)" rx="2" ry="2" />
<text  x="301.26" y="81.5" >C..</text>
</g>
<g >
<title>PCApply (5,818 us, 0.16%)</title><rect x="1075.0" y="167" width="1.9" height="15.0" fill="rgb(0,0,0)" rx="2" ry="2" />
<text  x="1077.99" y="177.5" ></text>
</g>
<g >
<title>firedrake.functionspace.make_scalar_element (1,253 us, 0.03%)</title><rect x="1087.2" y="199" width="0.4" height="15.0" fill="rgb(0,0,0)" rx="2" ry="2" />
<text  x="1090.20" y="209.5" ></text>
</g>
<g >
<title>Parloop_set_#x7f2315ce3dc0_wrap_expression_kernel (33,604 us, 0.93%)</title><rect x="839.5" y="135" width="11.0" height="15.0" fill="rgb(0,0,0)" rx="2" ry="2" />
<text  x="842.55" y="145.5" ></text>
</g>
<g >
<title>CreateFunctionSpace (5,351 us, 0.15%)</title><rect x="1086.7" y="183" width="1.8" height="15.0" fill="rgb(0,0,0)" rx="2" ry="2" />
<text  x="1089.71" y="193.5" ></text>
</g>
<g >
<title>MatView (2,450 us, 0.07%)</title><rect x="1079.2" y="103" width="0.8" height="15.0" fill="rgb(0,0,0)" rx="2" ry="2" />
<text  x="1082.16" y="113.5" ></text>
</g>
<g >
<title>firedrake.mesh.make_mesh_from_coordinates (654 us, 0.02%)</title><rect x="323.7" y="87" width="0.3" height="15.0" fill="rgb(0,0,0)" rx="2" ry="2" />
<text  x="326.74" y="97.5" ></text>
</g>
<g >
<title>firedrake.functionspacedata.FunctionSpaceData.__init__ (1,889 us, 0.05%)</title><rect x="1087.8" y="231" width="0.7" height="15.0" fill="rgb(0,0,0)" rx="2" ry="2" />
<text  x="1090.85" y="241.5" ></text>
</g>
<g >
<title>firedrake.functionspace.VectorFunctionSpace (6,669 us, 0.18%)</title><rect x="321.3" y="87" width="2.2" height="15.0" fill="rgb(0,0,0)" rx="2" ry="2" />
<text  x="324.29" y="97.5" ></text>
</g>
<g >
<title>ParLoopExecute (69,601 us, 1.93%)</title><rect x="827.8" y="119" width="22.7" height="15.0" fill="rgb(0,0,0)" rx="2" ry="2" />
<text  x="830.76" y="129.5" ></text>
</g>
<g >
<title>firedrake.tsfc_interface.compile_form (52,845 us, 1.47%)</title><rect x="1172.7" y="119" width="17.3" height="15.0" fill="rgb(0,0,0)" rx="2" ry="2" />
<text  x="1175.70" y="129.5" ></text>
</g>
<g >
<title>firedrake.functionspacedata.FunctionSpaceData.__init__ (19,930 us, 0.55%)</title><rect x="324.8" y="119" width="6.5" height="15.0" fill="rgb(0,0,0)" rx="2" ry="2" />
<text  x="327.76" y="129.5" ></text>
</g>
<g >
<title>KSPSolve (861 us, 0.02%)</title><rect x="1076.0" y="247" width="0.3" height="15.0" fill="rgb(0,0,0)" rx="2" ry="2" />
<text  x="1079.02" y="257.5" ></text>
</g>
<g >
<title>firedrake.functionspace.make_scalar_element (518 us, 0.01%)</title><rect x="1081.9" y="167" width="0.2" height="15.0" fill="rgb(0,0,0)" rx="2" ry="2" />
<text  x="1084.94" y="177.5" ></text>
</g>
<g >
<title>PCGAMGPOpt_AGG (1,283 us, 0.04%)</title><rect x="1077.8" y="183" width="0.5" height="15.0" fill="rgb(0,0,0)" rx="2" ry="2" />
<text  x="1080.83" y="193.5" ></text>
</g>
<g >
<title>pyop2.caching.disk_cached.&lt;locals&gt;.decorator.&lt;locals&gt;.wrapper (33,604 us, 0.93%)</title><rect x="850.5" y="119" width="11.0" height="15.0" fill="rgb(0,0,0)" rx="2" ry="2" />
<text  x="853.55" y="129.5" ></text>
</g>
<g >
<title>firedrake.functionspacedata.get_shared_data (1,827 us, 0.05%)</title><rect x="1189.4" y="215" width="0.6" height="15.0" fill="rgb(0,0,0)" rx="2" ry="2" />
<text  x="1192.40" y="225.5" ></text>
</g>
<g >
<title>firedrake.projection.project (238,143 us, 6.61%)</title><rect x="861.5" y="87" width="78.0" height="15.0" fill="rgb(0,0,0)" rx="2" ry="2" />
<text  x="864.54" y="97.5" >firedrak..</text>
</g>
<g >
<title>firedrake.tsfc_interface.compile_form (29,637 us, 0.82%)</title><rect x="1127.7" y="119" width="9.7" height="15.0" fill="rgb(0,0,0)" rx="2" ry="2" />
<text  x="1130.65" y="129.5" ></text>
</g>
<g >
<title>MatZeroInitial (822 us, 0.02%)</title><rect x="918.6" y="135" width="0.3" height="15.0" fill="rgb(0,0,0)" rx="2" ry="2" />
<text  x="921.61" y="145.5" ></text>
</g>
<g >
<title>firedrake.functionspacedata.get_shared_data (1,889 us, 0.05%)</title><rect x="1087.8" y="215" width="0.7" height="15.0" fill="rgb(0,0,0)" rx="2" ry="2" />
<text  x="1090.85" y="225.5" ></text>
</g>
<g >
<title>MatMult (989 us, 0.03%)</title><rect x="1078.8" y="199" width="0.4" height="15.0" fill="rgb(0,0,0)" rx="2" ry="2" />
<text  x="1081.84" y="209.5" ></text>
</g>
<g >
<title>pyop2.global_kernel.GlobalKernel.compile (34,755 us, 0.96%)</title><rect x="1161.3" y="151" width="11.4" height="15.0" fill="rgb(0,0,0)" rx="2" ry="2" />
<text  x="1164.33" y="161.5" ></text>
</g>
<g >
<title>PCApply (861 us, 0.02%)</title><rect x="1076.0" y="231" width="0.3" height="15.0" fill="rgb(0,0,0)" rx="2" ry="2" />
<text  x="1079.02" y="241.5" ></text>
</g>
<g >
<title>MatMult (758 us, 0.02%)</title><rect x="1075.8" y="231" width="0.2" height="15.0" fill="rgb(0,0,0)" rx="2" ry="2" />
<text  x="1078.77" y="241.5" ></text>
</g>
<g >
<title>KSPSolve_FS_0 (1,138 us, 0.03%)</title><rect x="1074.2" y="135" width="0.4" height="15.0" fill="rgb(0,0,0)" rx="2" ry="2" />
<text  x="1077.21" y="145.5" ></text>
</g>
<g >
<title>PCApply (1,026 us, 0.03%)</title><rect x="1076.3" y="199" width="0.3" height="15.0" fill="rgb(0,0,0)" rx="2" ry="2" />
<text  x="1079.30" y="209.5" ></text>
</g>
<g >
<title>firedrake.mesh._Facets.__init__ (623 us, 0.02%)</title><rect x="323.3" y="167" width="0.2" height="15.0" fill="rgb(0,0,0)" rx="2" ry="2" />
<text  x="326.27" y="177.5" ></text>
</g>
<g >
<title>Parloop_Cells_wrap_pyop2_kernel_uniform_extrusion (38,592 us, 1.07%)</title><rect x="308.7" y="119" width="12.6" height="15.0" fill="rgb(0,0,0)" rx="2" ry="2" />
<text  x="311.66" y="129.5" ></text>
</g>
<g >
<title>firedrake.tsfc_interface.compile_form (250,459 us, 6.95%)</title><rect x="983.0" y="119" width="81.9" height="15.0" fill="rgb(0,0,0)" rx="2" ry="2" />
<text  x="985.96" y="129.5" >firedrak..</text>
</g>
<g >
<title>PCApply (861 us, 0.02%)</title><rect x="1076.0" y="263" width="0.3" height="15.0" fill="rgb(0,0,0)" rx="2" ry="2" />
<text  x="1079.02" y="273.5" ></text>
</g>
<g >
<title>firedrake.functionspaceimpl.FunctionSpace.__init__ (608 us, 0.02%)</title><rect x="1081.7" y="183" width="0.2" height="15.0" fill="rgb(0,0,0)" rx="2" ry="2" />
<text  x="1084.75" y="193.5" ></text>
</g>
<g >
<title>PetscBarrier (691 us, 0.02%)</title><rect x="331.9" y="71" width="0.2" height="15.0" fill="rgb(0,0,0)" rx="2" ry="2" />
<text  x="334.86" y="81.5" ></text>
</g>
<g >
<title>ParLoopExecute (118,281 us, 3.28%)</title><rect x="944.2" y="119" width="38.8" height="15.0" fill="rgb(0,0,0)" rx="2" ry="2" />
<text  x="947.25" y="129.5" >Par..</text>
</g>
<g >
<title>KSPSolve (5,030 us, 0.14%)</title><rect x="1075.0" y="183" width="1.6" height="15.0" fill="rgb(0,0,0)" rx="2" ry="2" />
<text  x="1077.99" y="193.5" ></text>
</g>
<g >
<title>ParLoopExecute (39,727 us, 1.10%)</title><rect x="308.3" y="103" width="13.0" height="15.0" fill="rgb(0,0,0)" rx="2" ry="2" />
<text  x="311.29" y="113.5" ></text>
</g>
<g >
<title>firedrake.assemble.allocate_matrix (4,185 us, 0.12%)</title><rect x="1071.9" y="87" width="1.4" height="15.0" fill="rgb(0,0,0)" rx="2" ry="2" />
<text  x="1074.91" y="97.5" ></text>
</g>
<g >
<title>KSPSolve (1,596 us, 0.04%)</title><rect x="1078.6" y="183" width="0.6" height="15.0" fill="rgb(0,0,0)" rx="2" ry="2" />
<text  x="1081.64" y="193.5" ></text>
</g>
<g >
<title>firedrake.formmanipulation.ExtractSubBlock.split (3,228 us, 0.09%)</title><rect x="1136.3" y="151" width="1.1" height="15.0" fill="rgb(0,0,0)" rx="2" ry="2" />
<text  x="1139.30" y="161.5" ></text>
</g>
<g >
<title>Log_Event_form0_cell_integral_otherwise (3,752 us, 0.10%)</title><rect x="863.6" y="135" width="1.2" height="15.0" fill="rgb(0,0,0)" rx="2" ry="2" />
<text  x="866.62" y="145.5" ></text>
</g>
<g >
<title>pyop2.global_kernel.GlobalKernel.compile (38,143 us, 1.06%)</title><rect x="308.8" y="135" width="12.5" height="15.0" fill="rgb(0,0,0)" rx="2" ry="2" />
<text  x="311.81" y="145.5" ></text>
</g>
<g >
<title>firedrake.variational_solver.NonlinearVariationalSolver.solve (356,584 us, 9.89%)</title><rect x="1073.3" y="71" width="116.7" height="15.0" fill="rgb(0,0,0)" rx="2" ry="2" />
<text  x="1076.28" y="81.5" >firedrake.var..</text>
</g>
<g >
<title>firedrake.formmanipulation.ExtractSubBlock.argument (6,763 us, 0.19%)</title><rect x="1086.3" y="167" width="2.2" height="15.0" fill="rgb(0,0,0)" rx="2" ry="2" />
<text  x="1089.25" y="177.5" ></text>
</g>
<g >
<title>pyop2.global_kernel.GlobalKernel.compile (33,604 us, 0.93%)</title><rect x="839.5" y="151" width="11.0" height="15.0" fill="rgb(0,0,0)" rx="2" ry="2" />
<text  x="842.55" y="161.5" ></text>
</g>
<g >
<title>firedrake.solving_utils._SNESContext.split (48,203 us, 1.34%)</title><rect x="1082.9" y="135" width="15.8" height="15.0" fill="rgb(0,0,0)" rx="2" ry="2" />
<text  x="1085.90" y="145.5" ></text>
</g>
<g >
<title>pyop2.global_kernel.GlobalKernel.compile (32,882 us, 0.91%)</title><rect x="1116.9" y="151" width="10.8" height="15.0" fill="rgb(0,0,0)" rx="2" ry="2" />
<text  x="1119.89" y="161.5" ></text>
</g>
<g >
<title>firedrake.functionspacedata.FunctionSpaceData.__init__ (1,827 us, 0.05%)</title><rect x="1189.4" y="231" width="0.6" height="15.0" fill="rgb(0,0,0)" rx="2" ry="2" />
<text  x="1192.40" y="241.5" ></text>
</g>
<g >
<title>CreateMesh (620 us, 0.02%)</title><rect x="1065.2" y="103" width="0.2" height="15.0" fill="rgb(0,0,0)" rx="2" ry="2" />
<text  x="1068.18" y="113.5" ></text>
</g>
<g >
<title>KSPSolve (1,138 us, 0.03%)</title><rect x="1074.2" y="151" width="0.4" height="15.0" fill="rgb(0,0,0)" rx="2" ry="2" />
<text  x="1077.21" y="161.5" ></text>
</g>
<g >
<title>firedrake.functionspace.make_scalar_element (1,167 us, 0.03%)</title><rect x="1188.8" y="199" width="0.4" height="15.0" fill="rgb(0,0,0)" rx="2" ry="2" />
<text  x="1191.80" y="209.5" ></text>
</g>
<g >
<title>firedrake.functionspace.MixedFunctionSpace (3,376 us, 0.09%)</title><rect x="1080.8" y="167" width="1.1" height="15.0" fill="rgb(0,0,0)" rx="2" ry="2" />
<text  x="1083.84" y="177.5" ></text>
</g>
<g >
<title>MatResidual (788 us, 0.02%)</title><rect x="1076.6" y="183" width="0.3" height="15.0" fill="rgb(0,0,0)" rx="2" ry="2" />
<text  x="1079.64" y="193.5" ></text>
</g>
<g >
<title>Log_Event_form1_cell_integral_otherwise (5,432 us, 0.15%)</title><rect x="1115.1" y="151" width="1.8" height="15.0" fill="rgb(0,0,0)" rx="2" ry="2" />
<text  x="1118.11" y="161.5" ></text>
</g>
<g >
<title>Parloop_Cells_wrap_form0_cell_integral_otherwise (45,524 us, 1.26%)</title><rect x="1100.2" y="135" width="14.9" height="15.0" fill="rgb(0,0,0)" rx="2" ry="2" />
<text  x="1103.21" y="145.5" ></text>
</g>
<g >
<title>ParLoopExecute (79,153 us, 2.20%)</title><rect x="891.4" y="119" width="25.9" height="15.0" fill="rgb(0,0,0)" rx="2" ry="2" />
<text  x="894.43" y="129.5" >P..</text>
</g>
<g >
<title>firedrake.projection.Projector (567 us, 0.02%)</title><rect x="931.3" y="103" width="0.2" height="15.0" fill="rgb(0,0,0)" rx="2" ry="2" />
<text  x="934.31" y="113.5" ></text>
</g>
<g >
<title>firedrake.assemble_expressions.evaluate_expression (104,857 us, 2.91%)</title><rect x="827.2" y="103" width="34.3" height="15.0" fill="rgb(0,0,0)" rx="2" ry="2" />
<text  x="830.22" y="113.5" >fi..</text>
</g>
<g >
<title>firedrake.linear_solver.LinearSolver.solve (1,922 us, 0.05%)</title><rect x="930.7" y="103" width="0.6" height="15.0" fill="rgb(0,0,0)" rx="2" ry="2" />
<text  x="933.68" y="113.5" ></text>
</g>
<g >
<title>Parloop_set_#x7f2315ce2920_wrap_expression_kernel (35,516 us, 0.99%)</title><rect x="827.9" y="135" width="11.6" height="15.0" fill="rgb(0,0,0)" rx="2" ry="2" />
<text  x="830.92" y="145.5" ></text>
</g>
<g >
<title>firedrake.functionspacedata.get_shared_data (6,669 us, 0.18%)</title><rect x="321.3" y="135" width="2.2" height="15.0" fill="rgb(0,0,0)" rx="2" ry="2" />
<text  x="324.29" y="145.5" ></text>
</g>
<g >
<title>firedrake (3,605,052 us, 100.00%)</title><rect x="10.0" y="55" width="1180.0" height="15.0" fill="rgb(0,0,0)" rx="2" ry="2" />
<text  x="13.00" y="65.5" >firedrake</text>
</g>
<g >
<title>CreateFunctionSpace (5,004 us, 0.14%)</title><rect x="1188.4" y="183" width="1.6" height="15.0" fill="rgb(0,0,0)" rx="2" ry="2" />
<text  x="1191.36" y="193.5" ></text>
</g>
<g >
<title>  Graph (512 us, 0.01%)</title><rect x="1077.7" y="199" width="0.1" height="15.0" fill="rgb(0,0,0)" rx="2" ry="2" />
<text  x="1080.66" y="209.5" ></text>
</g>
<g >
<title>firedrake.dmhooks.set_function_space (2,407 us, 0.07%)</title><rect x="1082.1" y="135" width="0.8" height="15.0" fill="rgb(0,0,0)" rx="2" ry="2" />
<text  x="1085.11" y="145.5" ></text>
</g>
<g >
<title>KSPSolve (3,373 us, 0.09%)</title><rect x="1075.2" y="215" width="1.1" height="15.0" fill="rgb(0,0,0)" rx="2" ry="2" />
<text  x="1078.20" y="225.5" ></text>
</g>
<g >
<title>firedrake.extrusion_utils.make_extruded_coords (69,869 us, 1.94%)</title><rect x="298.4" y="87" width="22.9" height="15.0" fill="rgb(0,0,0)" rx="2" ry="2" />
<text  x="301.42" y="97.5" ></text>
</g>
<g >
<title>Parloop_Cells_wrap_form10_cell_integral_otherwise (35,662 us, 0.99%)</title><rect x="1161.0" y="135" width="11.7" height="15.0" fill="rgb(0,0,0)" rx="2" ry="2" />
<text  x="1164.03" y="145.5" ></text>
</g>
<g >
<title>firedrake.utility_meshes.SquareMesh (1,844 us, 0.05%)</title><rect x="1064.9" y="71" width="0.6" height="15.0" fill="rgb(0,0,0)" rx="2" ry="2" />
<text  x="1067.94" y="81.5" ></text>
</g>
<g >
<title>firedrake.assemble.allocate_matrix (4,700 us, 0.13%)</title><rect x="917.3" y="119" width="1.6" height="15.0" fill="rgb(0,0,0)" rx="2" ry="2" />
<text  x="920.34" y="129.5" ></text>
</g>
<g >
<title>FunctionSpaceData: CreateElement (7,901 us, 0.22%)</title><rect x="327.9" y="135" width="2.6" height="15.0" fill="rgb(0,0,0)" rx="2" ry="2" />
<text  x="330.87" y="145.5" ></text>
</g>
<g >
<title>PCGAMGGraph_AGG (512 us, 0.01%)</title><rect x="1077.7" y="183" width="0.1" height="15.0" fill="rgb(0,0,0)" rx="2" ry="2" />
<text  x="1080.66" y="193.5" ></text>
</g>
<g >
<title>KSPSolve (5,818 us, 0.16%)</title><rect x="1075.0" y="151" width="1.9" height="15.0" fill="rgb(0,0,0)" rx="2" ry="2" />
<text  x="1077.99" y="161.5" ></text>
</g>
<g >
<title>firedrake.assemble_expressions.compile_to_gem (3,055 us, 0.08%)</title><rect x="860.5" y="135" width="1.0" height="15.0" fill="rgb(0,0,0)" rx="2" ry="2" />
<text  x="863.54" y="145.5" ></text>
</g>
<g >
<title>SNESFunctionEval (118,157 us, 3.28%)</title><rect x="1098.7" y="103" width="38.7" height="15.0" fill="rgb(0,0,0)" rx="2" ry="2" />
<text  x="1101.68" y="113.5" >SNE..</text>
</g>
<g >
<title>Parloop_Cells_wrap_form0_cell_integral_otherwise (80,488 us, 2.23%)</title><rect x="863.4" y="119" width="26.3" height="15.0" fill="rgb(0,0,0)" rx="2" ry="2" />
<text  x="866.40" y="129.5" >P..</text>
</g>
<g >
<title>firedrake.formmanipulation.split_form (6,058 us, 0.17%)</title><rect x="1135.4" y="135" width="2.0" height="15.0" fill="rgb(0,0,0)" rx="2" ry="2" />
<text  x="1138.37" y="145.5" ></text>
</g>
<g >
<title>all (3,605,052 us, 100%)</title><rect x="10.0" y="39" width="1180.0" height="15.0" fill="rgb(0,0,0)" rx="2" ry="2" />
<text  x="13.00" y="49.5" ></text>
</g>
<g >
<title>firedrake.assemble_expressions.assemble_expression (105,580 us, 2.93%)</title><rect x="827.0" y="87" width="34.5" height="15.0" fill="rgb(0,0,0)" rx="2" ry="2" />
<text  x="829.99" y="97.5" >fi..</text>
</g>
<g >
<title>CreateFunctionSpace (1,060 us, 0.03%)</title><rect x="1137.0" y="183" width="0.4" height="15.0" fill="rgb(0,0,0)" rx="2" ry="2" />
<text  x="1140.01" y="193.5" ></text>
</g>
<g >
<title>firedrake.variational_solver.LinearVariationalProblem.__init__ (18,332 us, 0.51%)</title><rect x="1065.5" y="71" width="6.0" height="15.0" fill="rgb(0,0,0)" rx="2" ry="2" />
<text  x="1068.55" y="81.5" ></text>
</g>
<g >
<title>firedrake.dmhooks.get_function_space (5,133 us, 0.14%)</title><rect x="1080.4" y="135" width="1.7" height="15.0" fill="rgb(0,0,0)" rx="2" ry="2" />
<text  x="1083.43" y="145.5" ></text>
</g>
<g >
<title>ParLoopExecute (81,080 us, 2.25%)</title><rect x="863.2" y="103" width="26.5" height="15.0" fill="rgb(0,0,0)" rx="2" ry="2" />
<text  x="866.20" y="113.5" >P..</text>
</g>
<g >
<title>pyop2.global_kernel.GlobalKernel.compile (113,449 us, 3.15%)</title><rect x="945.8" y="151" width="37.2" height="15.0" fill="rgb(0,0,0)" rx="2" ry="2" />
<text  x="948.83" y="161.5" >py..</text>
</g>
<g >
<title>ParLoopExecute (104,285 us, 2.89%)</title><rect x="1138.6" y="119" width="34.1" height="15.0" fill="rgb(0,0,0)" rx="2" ry="2" />
<text  x="1141.57" y="129.5" >Pa..</text>
</g>
<g >
<title>firedrake.mesh._from_cell_list (511 us, 0.01%)</title><rect x="1065.4" y="103" width="0.1" height="15.0" fill="rgb(0,0,0)" rx="2" ry="2" />
<text  x="1068.38" y="113.5" ></text>
</g>
<g >
<title>firedrake.functionspaceimpl.FunctionSpace.__init__ (439 us, 0.01%)</title><rect x="1137.2" y="199" width="0.2" height="15.0" fill="rgb(0,0,0)" rx="2" ry="2" />
<text  x="1140.21" y="209.5" ></text>
</g>
<g >
<title>CreateFunctionSpace (1,579 us, 0.04%)</title><rect x="1081.2" y="183" width="0.5" height="15.0" fill="rgb(0,0,0)" rx="2" ry="2" />
<text  x="1084.23" y="193.5" ></text>
</g>
<g >
<title>KSPSolve_FS_Low (1,243 us, 0.03%)</title><rect x="1074.6" y="135" width="0.4" height="15.0" fill="rgb(0,0,0)" rx="2" ry="2" />
<text  x="1077.58" y="145.5" ></text>
</g>
<g >
<title>firedrake.functionspace.make_scalar_element (810 us, 0.02%)</title><rect x="324.2" y="87" width="0.3" height="15.0" fill="rgb(0,0,0)" rx="2" ry="2" />
<text  x="327.20" y="97.5" ></text>
</g>
<g >
<title>firedrake.__init__ (1,511,969 us, 41.94%)</title><rect x="332.1" y="71" width="494.9" height="15.0" fill="rgb(0,0,0)" rx="2" ry="2" />
<text  x="335.09" y="81.5" >firedrake.__init__</text>
</g>
<g >
<title>CreateMesh (442 us, 0.01%)</title><rect x="331.5" y="87" width="0.1" height="15.0" fill="rgb(0,0,0)" rx="2" ry="2" />
<text  x="334.47" y="97.5" ></text>
</g>
<g >
<title>Parloop_Cells_wrap_form_cell_integral_otherwise (116,804 us, 3.24%)</title><rect x="944.7" y="135" width="38.3" height="15.0" fill="rgb(0,0,0)" rx="2" ry="2" />
<text  x="947.73" y="145.5" >Pa..</text>
</g>
<g >
<title>firedrake.function.Function.split (782 us, 0.02%)</title><rect x="1064.7" y="135" width="0.2" height="15.0" fill="rgb(0,0,0)" rx="2" ry="2" />
<text  x="1067.69" y="145.5" ></text>
</g>
<g >
<title>firedrake.function.Function.split (1,052 us, 0.03%)</title><rect x="1071.2" y="119" width="0.3" height="15.0" fill="rgb(0,0,0)" rx="2" ry="2" />
<text  x="1074.20" y="129.5" ></text>
</g>
<g >
<title>firedrake.formmanipulation.split_form (796 us, 0.02%)</title><rect x="1064.4" y="135" width="0.3" height="15.0" fill="rgb(0,0,0)" rx="2" ry="2" />
<text  x="1067.43" y="145.5" ></text>
</g>
<g >
<title>MatSolve (861 us, 0.02%)</title><rect x="1076.0" y="279" width="0.3" height="15.0" fill="rgb(0,0,0)" rx="2" ry="2" />
<text  x="1079.02" y="289.5" ></text>
</g>
<g >
<title>firedrake.tsfc_interface.compile_form (24,432 us, 0.68%)</title><rect x="931.5" y="103" width="8.0" height="15.0" fill="rgb(0,0,0)" rx="2" ry="2" />
<text  x="934.50" y="113.5" ></text>
</g>
<g >
<title>firedrake.formmanipulation.ExtractSubBlock.argument (6,348 us, 0.18%)</title><rect x="1187.9" y="167" width="2.1" height="15.0" fill="rgb(0,0,0)" rx="2" ry="2" />
<text  x="1190.92" y="177.5" ></text>
</g>
<g >
<title>firedrake.functionspaceimpl.FunctionSpace.__init__ (707 us, 0.02%)</title><rect x="1081.5" y="199" width="0.2" height="15.0" fill="rgb(0,0,0)" rx="2" ry="2" />
<text  x="1084.51" y="209.5" ></text>
</g>
<g >
<title>firedrake.variational_solver.NonlinearVariationalSolver.__init__ (5,304 us, 0.15%)</title><rect x="1071.5" y="71" width="1.8" height="15.0" fill="rgb(0,0,0)" rx="2" ry="2" />
<text  x="1074.55" y="81.5" ></text>
</g>
<g >
<title>KSPSolve (806 us, 0.02%)</title><rect x="1074.7" y="151" width="0.3" height="15.0" fill="rgb(0,0,0)" rx="2" ry="2" />
<text  x="1077.73" y="161.5" ></text>
</g>
<g >
<title>Mesh: numbering (753 us, 0.02%)</title><rect x="331.6" y="87" width="0.3" height="15.0" fill="rgb(0,0,0)" rx="2" ry="2" />
<text  x="334.62" y="97.5" ></text>
</g>
<g >
<title>firedrake.formmanipulation.ExtractSubBlock.split (8,159 us, 0.23%)</title><rect x="1187.3" y="151" width="2.7" height="15.0" fill="rgb(0,0,0)" rx="2" ry="2" />
<text  x="1190.33" y="161.5" ></text>
</g>
<g >
<title>CreateMesh (1,774 us, 0.05%)</title><rect x="331.3" y="71" width="0.6" height="15.0" fill="rgb(0,0,0)" rx="2" ry="2" />
<text  x="334.28" y="81.5" ></text>
</g>
<g >
<title>pyop2.global_kernel.GlobalKernel.compile (75,566 us, 2.10%)</title><rect x="892.6" y="151" width="24.7" height="15.0" fill="rgb(0,0,0)" rx="2" ry="2" />
<text  x="895.61" y="161.5" >p..</text>
</g>
<g >
<title>firedrake.functionspacedata.FunctionSpaceData.__init__ (6,669 us, 0.18%)</title><rect x="321.3" y="151" width="2.2" height="15.0" fill="rgb(0,0,0)" rx="2" ry="2" />
<text  x="324.29" y="161.5" ></text>
</g>
<g >
<title>KSPSetUp (2,224 us, 0.06%)</title><rect x="1078.4" y="167" width="0.8" height="15.0" fill="rgb(0,0,0)" rx="2" ry="2" />
<text  x="1081.43" y="177.5" ></text>
</g>
<g >
<title>CreateFunctionSpace (6,669 us, 0.18%)</title><rect x="321.3" y="103" width="2.2" height="15.0" fill="rgb(0,0,0)" rx="2" ry="2" />
<text  x="324.29" y="113.5" ></text>
</g>
<g >
<title>firedrake.variational_solver.NonlinearVariationalProblem.__init__ (13,168 us, 0.37%)</title><rect x="1067.2" y="87" width="4.3" height="15.0" fill="rgb(0,0,0)" rx="2" ry="2" />
<text  x="1070.24" y="97.5" ></text>
</g>
<g >
<title>MatView (950 us, 0.03%)</title><rect x="1079.7" y="119" width="0.3" height="15.0" fill="rgb(0,0,0)" rx="2" ry="2" />
<text  x="1082.65" y="129.5" ></text>
</g>
<g >
<title>firedrake.functionspacedata.get_shared_data (439 us, 0.01%)</title><rect x="1137.2" y="215" width="0.2" height="15.0" fill="rgb(0,0,0)" rx="2" ry="2" />
<text  x="1140.21" y="225.5" ></text>
</g>
<g >
<title>firedrake.assemble.assemble (105,580 us, 2.93%)</title><rect x="827.0" y="71" width="34.5" height="15.0" fill="rgb(0,0,0)" rx="2" ry="2" />
<text  x="829.99" y="81.5" >fi..</text>
</g>
<g >
<title>KSPSolve_FS_Schu (12,732 us, 0.35%)</title><rect x="1075.0" y="135" width="4.2" height="15.0" fill="rgb(0,0,0)" rx="2" ry="2" />
<text  x="1077.99" y="145.5" ></text>
</g>
<g >
<title>PCSetUp (57,188 us, 1.59%)</title><rect x="1080.0" y="103" width="18.7" height="15.0" fill="rgb(0,0,0)" rx="2" ry="2" />
<text  x="1082.96" y="113.5" ></text>
</g>
<g >
<title>SNESJacobianEval (160,838 us, 4.46%)</title><rect x="1137.4" y="103" width="52.6" height="15.0" fill="rgb(0,0,0)" rx="2" ry="2" />
<text  x="1140.35" y="113.5" >SNES..</text>
</g>
<g >
<title>MatZeroInitial (895 us, 0.02%)</title><rect x="1073.0" y="103" width="0.3" height="15.0" fill="rgb(0,0,0)" rx="2" ry="2" />
<text  x="1075.99" y="113.5" ></text>
</g>
<g >
<title>pyop2.global_kernel.GlobalKernel.compile (38,786 us, 1.08%)</title><rect x="1102.4" y="151" width="12.7" height="15.0" fill="rgb(0,0,0)" rx="2" ry="2" />
<text  x="1105.42" y="161.5" ></text>
</g>
<g >
<title>PCApply (442 us, 0.01%)</title><rect x="1076.5" y="231" width="0.1" height="15.0" fill="rgb(0,0,0)" rx="2" ry="2" />
<text  x="1079.49" y="241.5" ></text>
</g>
<g >
<title>MatMult (4,004 us, 0.11%)</title><rect x="1075.0" y="199" width="1.3" height="15.0" fill="rgb(0,0,0)" rx="2" ry="2" />
<text  x="1077.99" y="209.5" ></text>
</g>
<g >
<title>KSPSolve (1,026 us, 0.03%)</title><rect x="1076.3" y="215" width="0.3" height="15.0" fill="rgb(0,0,0)" rx="2" ry="2" />
<text  x="1079.30" y="225.5" ></text>
</g>
<g >
<title>firedrake.functionspaceimpl.FunctionSpace.__init__ (6,669 us, 0.18%)</title><rect x="321.3" y="119" width="2.2" height="15.0" fill="rgb(0,0,0)" rx="2" ry="2" />
<text  x="324.29" y="129.5" ></text>
</g>
<g >
<title>CreateFunctionSpace (22,383 us, 0.62%)</title><rect x="324.0" y="71" width="7.3" height="15.0" fill="rgb(0,0,0)" rx="2" ry="2" />
<text  x="326.96" y="81.5" ></text>
</g>
<g >
<title>firedrake.mesh._Facets.__init__ (827 us, 0.02%)</title><rect x="331.0" y="151" width="0.3" height="15.0" fill="rgb(0,0,0)" rx="2" ry="2" />
<text  x="334.01" y="161.5" ></text>
</g>
<g >
<title>firedrake.mesh.ExtrudedMeshTopology.__init__ (822 us, 0.02%)</title><rect x="323.5" y="87" width="0.2" height="15.0" fill="rgb(0,0,0)" rx="2" ry="2" />
<text  x="326.47" y="97.5" ></text>
</g>
<g >
<title>CreateFunctionSpace (3,894 us, 0.11%)</title><rect x="1080.8" y="151" width="1.3" height="15.0" fill="rgb(0,0,0)" rx="2" ry="2" />
<text  x="1083.84" y="161.5" ></text>
</g>
<g >
<title>PCApply (15,113 us, 0.42%)</title><rect x="1074.2" y="119" width="5.0" height="15.0" fill="rgb(0,0,0)" rx="2" ry="2" />
<text  x="1077.21" y="129.5" ></text>
</g>
<g >
<title>firedrake.functionspacedata.get_shared_data (19,930 us, 0.55%)</title><rect x="324.8" y="103" width="6.5" height="15.0" fill="rgb(0,0,0)" rx="2" ry="2" />
<text  x="327.76" y="113.5" ></text>
</g>
<g >
<title>firedrake.functionspaceimpl.FunctionSpace.__init__ (20,842 us, 0.58%)</title><rect x="324.5" y="87" width="6.8" height="15.0" fill="rgb(0,0,0)" rx="2" ry="2" />
<text  x="327.46" y="97.5" ></text>
</g>
<g >
<title>pyop2.global_kernel.GlobalKernel.compile (35,086 us, 0.97%)</title><rect x="1138.9" y="151" width="11.5" height="15.0" fill="rgb(0,0,0)" rx="2" ry="2" />
<text  x="1141.93" y="161.5" ></text>
</g>
<g >
<title>firedrake.ufl_expr.derivative (1,052 us, 0.03%)</title><rect x="1071.2" y="103" width="0.3" height="15.0" fill="rgb(0,0,0)" rx="2" ry="2" />
<text  x="1074.20" y="113.5" ></text>
</g>
<g >
<title>GAMG: partLevel (553 us, 0.02%)</title><rect x="1078.3" y="167" width="0.1" height="15.0" fill="rgb(0,0,0)" rx="2" ry="2" />
<text  x="1081.25" y="177.5" ></text>
</g>
<g >
<title>firedrake.formmanipulation.ExtractSubBlock.split (11,526 us, 0.32%)</title><rect x="1084.7" y="151" width="3.8" height="15.0" fill="rgb(0,0,0)" rx="2" ry="2" />
<text  x="1087.69" y="161.5" ></text>
</g>
<g >
<title>Parloop_Cells_wrap_form00_cell_integral_otherwise (35,758 us, 0.99%)</title><rect x="1138.7" y="135" width="11.7" height="15.0" fill="rgb(0,0,0)" rx="2" ry="2" />
<text  x="1141.71" y="145.5" ></text>
</g>
<g >
<title>Parloop_Cells_wrap_form01_cell_integral_otherwise (32,431 us, 0.90%)</title><rect x="1150.4" y="135" width="10.6" height="15.0" fill="rgb(0,0,0)" rx="2" ry="2" />
<text  x="1153.41" y="145.5" ></text>
</g>
<g >
<title>Log_Event_form0_cell_integral_otherwise (6,738 us, 0.19%)</title><rect x="1100.2" y="151" width="2.2" height="15.0" fill="rgb(0,0,0)" rx="2" ry="2" />
<text  x="1103.21" y="161.5" ></text>
</g>
<g >
<title>firedrake.assemble.assemble (379,477 us, 10.53%)</title><rect x="940.7" y="103" width="124.2" height="15.0" fill="rgb(0,0,0)" rx="2" ry="2" />
<text  x="943.73" y="113.5" >firedrake.asse..</text>
</g>
<g >
<title>firedrake.function.Function.project (238,143 us, 6.61%)</title><rect x="861.5" y="71" width="78.0" height="15.0" fill="rgb(0,0,0)" rx="2" ry="2" />
<text  x="864.54" y="81.5" >firedrak..</text>
</g>
<g >
<title>Log_Event_form01_cell_integral_otherwise (606 us, 0.02%)</title><rect x="1150.4" y="151" width="0.2" height="15.0" fill="rgb(0,0,0)" rx="2" ry="2" />
<text  x="1153.41" y="161.5" ></text>
</g>
<g >
<title>pyop2.global_kernel.GlobalKernel.compile (34,940 us, 0.97%)</title><rect x="828.1" y="151" width="11.4" height="15.0" fill="rgb(0,0,0)" rx="2" ry="2" />
<text  x="831.11" y="161.5" ></text>
</g>
<g >
<title>Parloop_Cells_wrap_form1_cell_integral_otherwise (38,314 us, 1.06%)</title><rect x="1115.1" y="135" width="12.6" height="15.0" fill="rgb(0,0,0)" rx="2" ry="2" />
<text  x="1118.11" y="145.5" ></text>
</g>
<g >
<title>firedrake.norms.norm (381,227 us, 10.57%)</title><rect x="940.2" y="87" width="124.7" height="15.0" fill="rgb(0,0,0)" rx="2" ry="2" />
<text  x="943.16" y="97.5" >firedrake.norm..</text>
</g>
<g >
<title>firedrake.ufl_expr.adjoint (12,116 us, 0.34%)</title><rect x="1067.2" y="103" width="4.0" height="15.0" fill="rgb(0,0,0)" rx="2" ry="2" />
<text  x="1070.24" y="113.5" ></text>
</g>
<g >
<title>firedrake.linear_solver.LinearSolver.__init__ (3,593 us, 0.10%)</title><rect x="929.5" y="103" width="1.2" height="15.0" fill="rgb(0,0,0)" rx="2" ry="2" />
<text  x="932.51" y="113.5" ></text>
</g>
<g >
<title>firedrake.formmanipulation.ExtractSubBlock.argument (1,060 us, 0.03%)</title><rect x="1137.0" y="167" width="0.4" height="15.0" fill="rgb(0,0,0)" rx="2" ry="2" />
<text  x="1140.01" y="177.5" ></text>
</g>
<g >
<title>firedrake.norms.errornorm (381,967 us, 10.60%)</title><rect x="939.9" y="71" width="125.0" height="15.0" fill="rgb(0,0,0)" rx="2" ry="2" />
<text  x="942.92" y="81.5" >firedrake.norm..</text>
</g>
<g >
<title>KSPSolve (495 us, 0.01%)</title><rect x="931.1" y="119" width="0.2" height="15.0" fill="rgb(0,0,0)" rx="2" ry="2" />
<text  x="934.15" y="129.5" ></text>
</g>
<g >
<title>GAMG: createProl (2,333 us, 0.06%)</title><rect x="1077.5" y="167" width="0.8" height="15.0" fill="rgb(0,0,0)" rx="2" ry="2" />
<text  x="1080.49" y="177.5" ></text>
</g>
<g >
<title>FunctionSpaceData: CreateElement (778 us, 0.02%)</title><rect x="323.0" y="167" width="0.3" height="15.0" fill="rgb(0,0,0)" rx="2" ry="2" />
<text  x="326.02" y="177.5" ></text>
</g>
<g >
<title>firedrake.functionspaceimpl.FunctionSpace.__init__ (2,491 us, 0.07%)</title><rect x="1189.2" y="199" width="0.8" height="15.0" fill="rgb(0,0,0)" rx="2" ry="2" />
<text  x="1192.18" y="209.5" ></text>
</g>
<g >
<title>pyop2.global_kernel.GlobalKernel.compile (31,825 us, 0.88%)</title><rect x="1150.6" y="151" width="10.4" height="15.0" fill="rgb(0,0,0)" rx="2" ry="2" />
<text  x="1153.61" y="161.5" ></text>
</g>
<g >
<title>firedrake.assemble.assemble (121,479 us, 3.37%)</title><rect x="889.7" y="103" width="39.8" height="15.0" fill="rgb(0,0,0)" rx="2" ry="2" />
<text  x="892.74" y="113.5" >fir..</text>
</g>
<g >
<title>Log_Event_form00_cell_integral_otherwise (2,208 us, 0.06%)</title><rect x="891.9" y="151" width="0.7" height="15.0" fill="rgb(0,0,0)" rx="2" ry="2" />
<text  x="894.88" y="161.5" ></text>
</g>
<g >
<title>firedrake.ufl_expr.derivative (1,434 us, 0.04%)</title><rect x="1098.2" y="167" width="0.5" height="15.0" fill="rgb(0,0,0)" rx="2" ry="2" />
<text  x="1101.21" y="177.5" ></text>
</g>
<g >
<title>MatSOR (442 us, 0.01%)</title><rect x="1076.5" y="247" width="0.1" height="15.0" fill="rgb(0,0,0)" rx="2" ry="2" />
<text  x="1079.49" y="257.5" ></text>
</g>
<g >
<title>firedrake.functionspaceimpl.FunctionSpace.__init__ (597 us, 0.02%)</title><rect x="939.7" y="87" width="0.2" height="15.0" fill="rgb(0,0,0)" rx="2" ry="2" />
<text  x="942.72" y="97.5" ></text>
</g>
<g >
<title>CreateSparsity (2,673 us, 0.07%)</title><rect x="917.7" y="135" width="0.9" height="15.0" fill="rgb(0,0,0)" rx="2" ry="2" />
<text  x="920.74" y="145.5" ></text>
</g>
<g >
<title>pyop2.global_kernel.GlobalKernel.compile (76,069 us, 2.11%)</title><rect x="864.8" y="135" width="24.9" height="15.0" fill="rgb(0,0,0)" rx="2" ry="2" />
<text  x="867.84" y="145.5" >p..</text>
</g>
<g >
<title>firedrake.formmanipulation.split_form (8,159 us, 0.23%)</title><rect x="1187.3" y="135" width="2.7" height="15.0" fill="rgb(0,0,0)" rx="2" ry="2" />
<text  x="1190.33" y="145.5" ></text>
</g>
<g >
<title>KSPSolve (788 us, 0.02%)</title><rect x="1076.6" y="215" width="0.3" height="15.0" fill="rgb(0,0,0)" rx="2" ry="2" />
<text  x="1079.64" y="225.5" ></text>
</g>
<g >
<title>firedrake.functionspacedata.get_shared_data (608 us, 0.02%)</title><rect x="1081.7" y="199" width="0.2" height="15.0" fill="rgb(0,0,0)" rx="2" ry="2" />
<text  x="1084.75" y="209.5" ></text>
</g>
</g>
</svg>
