<?xml version="1.0" standalone="no"?>
<!DOCTYPE svg PUBLIC "-//W3C//DTD SVG 1.1//EN" "http://www.w3.org/Graphics/SVG/1.1/DTD/svg11.dtd">
<svg version="1.1" width="1200" height="395" onload="init(evt)" viewBox="0 0 1200 395" xmlns="http://www.w3.org/2000/svg" xmlns:xlink="http://www.w3.org/1999/xlink">
<!-- Flame graph stack visualization. See https://github.com/brendangregg/FlameGraph for latest version, and http://www.brendangregg.com/flamegraphs.html for examples. -->
<!-- NOTES:  -->
<defs>
	<linearGradient id="background" y1="0" y2="1" x1="0" x2="0" >
		<stop stop-color="#eeeeee" offset="5%" />
		<stop stop-color="#eeeeb0" offset="95%" />
	</linearGradient>
</defs>
<style type="text/css">
	text { font-family:Verdana; font-size:13px; fill:rgb(0,0,0); }
	#search, #ignorecase { opacity:0.1; cursor:pointer; }
	#search:hover, #search.show, #ignorecase:hover, #ignorecase.show { opacity:1; }
	#subtitle { text-anchor:middle; font-color:rgb(160,160,160); }
	#title { text-anchor:middle; font-size:18px}
	#unzoom { cursor:pointer; }
	#frames > *:hover { stroke:black; stroke-width:0.5; cursor:pointer; }
	.hide { display:none; }
	.parent { opacity:0.5; }
</style>
<script type="text/ecmascript">
<![CDATA[
	"use strict";
	var details, searchbtn, unzoombtn, matchedtxt, svg, searching, currentSearchTerm, ignorecase, ignorecaseBtn;
	function init(evt) {
		details = document.getElementById("details").firstChild;
		searchbtn = document.getElementById("search");
		ignorecaseBtn = document.getElementById("ignorecase");
		unzoombtn = document.getElementById("unzoom");
		matchedtxt = document.getElementById("matched");
		svg = document.getElementsByTagName("svg")[0];
		searching = 0;
		currentSearchTerm = null;

		// use GET parameters to restore a flamegraphs state.
		var params = get_params();
		if (params.x && params.y)
			zoom(find_group(document.querySelector('[x="' + params.x + '"][y="' + params.y + '"]')));
                if (params.s) search(params.s);
	}

	// event listeners
	window.addEventListener("click", function(e) {
		var target = find_group(e.target);
		if (target) {
			if (target.nodeName == "a") {
				if (e.ctrlKey === false) return;
				e.preventDefault();
			}
			if (target.classList.contains("parent")) unzoom();
			zoom(target);
			if (!document.querySelector('.parent')) {
				clearzoom();
				return;
			}

			// set parameters for zoom state
			var el = target.querySelector("rect");
			if (el && el.attributes && el.attributes.y && el.attributes._orig_x) {
				var params = get_params()
				params.x = el.attributes._orig_x.value;
				params.y = el.attributes.y.value;
				history.replaceState(null, null, parse_params(params));
			}
		}
		else if (e.target.id == "unzoom") clearzoom();
		else if (e.target.id == "search") search_prompt();
		else if (e.target.id == "ignorecase") toggle_ignorecase();
	}, false)

	// mouse-over for info
	// show
	window.addEventListener("mouseover", function(e) {
		var target = find_group(e.target);
		if (target) details.nodeValue = "Function: " + g_to_text(target);
	}, false)

	// clear
	window.addEventListener("mouseout", function(e) {
		var target = find_group(e.target);
		if (target) details.nodeValue = ' ';
	}, false)

	// ctrl-F for search
	// ctrl-I to toggle case-sensitive search
	window.addEventListener("keydown",function (e) {
		if (e.keyCode === 114 || (e.ctrlKey && e.keyCode === 70)) {
			e.preventDefault();
			search_prompt();
		}
		else if (e.ctrlKey && e.keyCode === 73) {
			e.preventDefault();
			toggle_ignorecase();
		}
	}, false)

	// functions
	function get_params() {
		var params = {};
		var paramsarr = window.location.search.substr(1).split('&');
		for (var i = 0; i < paramsarr.length; ++i) {
			var tmp = paramsarr[i].split("=");
			if (!tmp[0] || !tmp[1]) continue;
			params[tmp[0]]  = decodeURIComponent(tmp[1]);
		}
		return params;
	}
	function parse_params(params) {
		var uri = "?";
		for (var key in params) {
			uri += key + '=' + encodeURIComponent(params[key]) + '&';
		}
		if (uri.slice(-1) == "&")
			uri = uri.substring(0, uri.length - 1);
		if (uri == '?')
			uri = window.location.href.split('?')[0];
		return uri;
	}
	function find_child(node, selector) {
		var children = node.querySelectorAll(selector);
		if (children.length) return children[0];
	}
	function find_group(node) {
		var parent = node.parentElement;
		if (!parent) return;
		if (parent.id == "frames") return node;
		return find_group(parent);
	}
	function orig_save(e, attr, val) {
		if (e.attributes["_orig_" + attr] != undefined) return;
		if (e.attributes[attr] == undefined) return;
		if (val == undefined) val = e.attributes[attr].value;
		e.setAttribute("_orig_" + attr, val);
	}
	function orig_load(e, attr) {
		if (e.attributes["_orig_"+attr] == undefined) return;
		e.attributes[attr].value = e.attributes["_orig_" + attr].value;
		e.removeAttribute("_orig_"+attr);
	}
	function g_to_text(e) {
		var text = find_child(e, "title").firstChild.nodeValue;
		return (text)
	}
	function g_to_func(e) {
		var func = g_to_text(e);
		// if there's any manipulation we want to do to the function
		// name before it's searched, do it here before returning.
		return (func);
	}
	function update_text(e) {
		var r = find_child(e, "rect");
		var t = find_child(e, "text");
		var w = parseFloat(r.attributes.width.value) -3;
		var txt = find_child(e, "title").textContent.replace(/\([^(]*\)$/,"");
		t.attributes.x.value = parseFloat(r.attributes.x.value) + 3;

		// Smaller than this size won't fit anything
		if (w < 2 * 13 * 0.59) {
			t.textContent = "";
			return;
		}

		t.textContent = txt;
		// Fit in full text width
		if (/^ *$/.test(txt) || t.getSubStringLength(0, txt.length) < w)
			return;

		for (var x = txt.length - 2; x > 0; x--) {
			if (t.getSubStringLength(0, x + 2) <= w) {
				t.textContent = txt.substring(0, x) + "..";
				return;
			}
		}
		t.textContent = "";
	}

	// zoom
	function zoom_reset(e) {
		if (e.attributes != undefined) {
			orig_load(e, "x");
			orig_load(e, "width");
		}
		if (e.childNodes == undefined) return;
		for (var i = 0, c = e.childNodes; i < c.length; i++) {
			zoom_reset(c[i]);
		}
	}
	function zoom_child(e, x, ratio) {
		if (e.attributes != undefined) {
			if (e.attributes.x != undefined) {
				orig_save(e, "x");
				e.attributes.x.value = (parseFloat(e.attributes.x.value) - x - 10) * ratio + 10;
				if (e.tagName == "text")
					e.attributes.x.value = find_child(e.parentNode, "rect[x]").attributes.x.value + 3;
			}
			if (e.attributes.width != undefined) {
				orig_save(e, "width");
				e.attributes.width.value = parseFloat(e.attributes.width.value) * ratio;
			}
		}

		if (e.childNodes == undefined) return;
		for (var i = 0, c = e.childNodes; i < c.length; i++) {
			zoom_child(c[i], x - 10, ratio);
		}
	}
	function zoom_parent(e) {
		if (e.attributes) {
			if (e.attributes.x != undefined) {
				orig_save(e, "x");
				e.attributes.x.value = 10;
			}
			if (e.attributes.width != undefined) {
				orig_save(e, "width");
				e.attributes.width.value = parseInt(svg.width.baseVal.value) - (10 * 2);
			}
		}
		if (e.childNodes == undefined) return;
		for (var i = 0, c = e.childNodes; i < c.length; i++) {
			zoom_parent(c[i]);
		}
	}
	function zoom(node) {
		var attr = find_child(node, "rect").attributes;
		var width = parseFloat(attr.width.value);
		var xmin = parseFloat(attr.x.value);
		var xmax = parseFloat(xmin + width);
		var ymin = parseFloat(attr.y.value);
		var ratio = (svg.width.baseVal.value - 2 * 10) / width;

		// XXX: Workaround for JavaScript float issues (fix me)
		var fudge = 0.0001;

		unzoombtn.classList.remove("hide");

		var el = document.getElementById("frames").children;
		for (var i = 0; i < el.length; i++) {
			var e = el[i];
			var a = find_child(e, "rect").attributes;
			var ex = parseFloat(a.x.value);
			var ew = parseFloat(a.width.value);
			var upstack;
			// Is it an ancestor
			if (1 == 0) {
				upstack = parseFloat(a.y.value) > ymin;
			} else {
				upstack = parseFloat(a.y.value) < ymin;
			}
			if (upstack) {
				// Direct ancestor
				if (ex <= xmin && (ex+ew+fudge) >= xmax) {
					e.classList.add("parent");
					zoom_parent(e);
					update_text(e);
				}
				// not in current path
				else
					e.classList.add("hide");
			}
			// Children maybe
			else {
				// no common path
				if (ex < xmin || ex + fudge >= xmax) {
					e.classList.add("hide");
				}
				else {
					zoom_child(e, xmin, ratio);
					update_text(e);
				}
			}
		}
		search();
	}
	function unzoom() {
		unzoombtn.classList.add("hide");
		var el = document.getElementById("frames").children;
		for(var i = 0; i < el.length; i++) {
			el[i].classList.remove("parent");
			el[i].classList.remove("hide");
			zoom_reset(el[i]);
			update_text(el[i]);
		}
		search();
	}
	function clearzoom() {
		unzoom();

		// remove zoom state
		var params = get_params();
		if (params.x) delete params.x;
		if (params.y) delete params.y;
		history.replaceState(null, null, parse_params(params));
	}

	// search
	function toggle_ignorecase() {
		ignorecase = !ignorecase;
		if (ignorecase) {
			ignorecaseBtn.classList.add("show");
		} else {
			ignorecaseBtn.classList.remove("show");
		}
		reset_search();
		search();
	}
	function reset_search() {
		var el = document.querySelectorAll("#frames rect");
		for (var i = 0; i < el.length; i++) {
			orig_load(el[i], "fill")
		}
		var params = get_params();
		delete params.s;
		history.replaceState(null, null, parse_params(params));
	}
	function search_prompt() {
		if (!searching) {
			var term = prompt("Enter a search term (regexp " +
			    "allowed, eg: ^ext4_)"
			    + (ignorecase ? ", ignoring case" : "")
			    + "\nPress Ctrl-i to toggle case sensitivity", "");
			if (term != null) search(term);
		} else {
			reset_search();
			searching = 0;
			currentSearchTerm = null;
			searchbtn.classList.remove("show");
			searchbtn.firstChild.nodeValue = "Search"
			matchedtxt.classList.add("hide");
			matchedtxt.firstChild.nodeValue = ""
		}
	}
	function search(term) {
		if (term) currentSearchTerm = term;

		var re = new RegExp(currentSearchTerm, ignorecase ? 'i' : '');
		var el = document.getElementById("frames").children;
		var matches = new Object();
		var maxwidth = 0;
		for (var i = 0; i < el.length; i++) {
			var e = el[i];
			var func = g_to_func(e);
			var rect = find_child(e, "rect");
			if (func == null || rect == null)
				continue;

			// Save max width. Only works as we have a root frame
			var w = parseFloat(rect.attributes.width.value);
			if (w > maxwidth)
				maxwidth = w;

			if (func.match(re)) {
				// highlight
				var x = parseFloat(rect.attributes.x.value);
				orig_save(rect, "fill");
				rect.attributes.fill.value = "rgb(230,0,230)";

				// remember matches
				if (matches[x] == undefined) {
					matches[x] = w;
				} else {
					if (w > matches[x]) {
						// overwrite with parent
						matches[x] = w;
					}
				}
				searching = 1;
			}
		}
		if (!searching)
			return;
		var params = get_params();
		params.s = currentSearchTerm;
		history.replaceState(null, null, parse_params(params));

		searchbtn.classList.add("show");
		searchbtn.firstChild.nodeValue = "Reset Search";

		// calculate percent matched, excluding vertical overlap
		var count = 0;
		var lastx = -1;
		var lastw = 0;
		var keys = Array();
		for (k in matches) {
			if (matches.hasOwnProperty(k))
				keys.push(k);
		}
		// sort the matched frames by their x location
		// ascending, then width descending
		keys.sort(function(a, b){
			return a - b;
		});
		// Step through frames saving only the biggest bottom-up frames
		// thanks to the sort order. This relies on the tree property
		// where children are always smaller than their parents.
		var fudge = 0.0001;	// JavaScript floating point
		for (var k in keys) {
			var x = parseFloat(keys[k]);
			var w = matches[keys[k]];
			if (x >= lastx + lastw - fudge) {
				count += w;
				lastx = x;
				lastw = w;
			}
		}
		// display matched percent
		matchedtxt.classList.remove("hide");
		var pct = 100 * count / maxwidth;
		if (pct != 100) pct = pct.toFixed(1)
		matchedtxt.firstChild.nodeValue = "Matched: " + pct + "%";
	}
]]>
</script>
<rect x="0.0" y="0" width="1200.0" height="395.0" fill="url(#background)"  />
<text id="title" x="600.00" y="26" >Firedrake example</text>
<text id="details" x="10.00" y="377" > </text>
<text id="unzoom" x="10.00" y="26" class="hide">Reset Zoom</text>
<text id="search" x="1090.00" y="26" >Search</text>
<text id="ignorecase" x="1174.00" y="26" >ic</text>
<text id="matched" x="1090.00" y="377" > </text>
<g id="frames">
<g >
<title>pyop2.global_kernel.GlobalKernel.compile (1,116,365 us, 0.73%)</title><rect x="894.0" y="343" width="8.6" height="15.0" fill="rgb(0,0,0)" rx="2" ry="2" />
<text  x="897.00" y="353.5" ></text>
</g>
<g >
<title>Parloop_set_#x7fda74537ca0_wrap_expression_kernel (373,182 us, 0.24%)</title><rect x="98.4" y="135" width="2.9" height="15.0" fill="rgb(0,0,0)" rx="2" ry="2" />
<text  x="101.45" y="145.5" ></text>
</g>
<g >
<title>firedrake.tsfc_interface.compile_form (1,164,760 us, 0.76%)</title><rect x="378.1" y="119" width="8.9" height="15.0" fill="rgb(0,0,0)" rx="2" ry="2" />
<text  x="381.06" y="129.5" ></text>
</g>
<g >
<title>pyop2.global_kernel.GlobalKernel.compile (686,748 us, 0.45%)</title><rect x="906.2" y="279" width="5.2" height="15.0" fill="rgb(0,0,0)" rx="2" ry="2" />
<text  x="909.15" y="289.5" ></text>
</g>
<g >
<title>firedrake.tsfc_interface.compile_form (1,202,131 us, 0.78%)</title><rect x="439.6" y="119" width="9.3" height="15.0" fill="rgb(0,0,0)" rx="2" ry="2" />
<text  x="442.64" y="129.5" ></text>
</g>
<g >
<title>firedrake.variational_solver.LinearVariationalProblem.__init__ (19,761 us, 0.01%)</title><rect x="448.9" y="71" width="0.1" height="15.0" fill="rgb(0,0,0)" rx="2" ry="2" />
<text  x="451.88" y="81.5" ></text>
</g>
<g >
<title>Parloop_Cells_wrap_form00_cell_integral_otherwise (5,338,035 us, 3.48%)</title><rect x="924.3" y="183" width="41.1" height="15.0" fill="rgb(0,0,0)" rx="2" ry="2" />
<text  x="927.33" y="193.5" >Par..</text>
</g>
<g >
<title>firedrake.assemble.assemble (9,576,685 us, 6.24%)</title><rect x="37.3" y="71" width="73.7" height="15.0" fill="rgb(0,0,0)" rx="2" ry="2" />
<text  x="40.33" y="81.5" >firedra..</text>
</g>
<g >
<title>pyop2.global_kernel.GlobalKernel.compile (1,722,562 us, 1.12%)</title><rect x="331.7" y="151" width="13.3" height="15.0" fill="rgb(0,0,0)" rx="2" ry="2" />
<text  x="334.74" y="161.5" ></text>
</g>
<g >
<title>Parloop_set_#x7fda7451d9c0_wrap_pyop2_kernel_prolong (617,638 us, 0.40%)</title><rect x="878.9" y="295" width="4.7" height="15.0" fill="rgb(0,0,0)" rx="2" ry="2" />
<text  x="881.89" y="305.5" ></text>
</g>
<g >
<title>firedrake.tsfc_interface.compile_form (1,250,140 us, 0.82%)</title><rect x="387.0" y="103" width="9.6" height="15.0" fill="rgb(0,0,0)" rx="2" ry="2" />
<text  x="390.02" y="113.5" ></text>
</g>
<g >
<title>HybridInit (21,423,150 us, 13.97%)</title><rect x="968.2" y="119" width="164.8" height="15.0" fill="rgb(0,0,0)" rx="2" ry="2" />
<text  x="971.23" y="129.5" >HybridInit</text>
</g>
<g >
<title>HybridRHS (14,730,721 us, 9.60%)</title><rect x="763.4" y="151" width="113.4" height="15.0" fill="rgb(0,0,0)" rx="2" ry="2" />
<text  x="766.44" y="161.5" >HybridRHS</text>
</g>
<g >
<title>Parloop_Cells_wrap_form00_interior_facet_horiz_integral_otherwise (1,722,562 us, 1.12%)</title><rect x="331.7" y="135" width="13.3" height="15.0" fill="rgb(0,0,0)" rx="2" ry="2" />
<text  x="334.74" y="145.5" ></text>
</g>
<g >
<title>DMCoarsen (2,470,308 us, 1.61%)</title><rect x="887.0" y="215" width="19.0" height="15.0" fill="rgb(0,0,0)" rx="2" ry="2" />
<text  x="889.98" y="225.5" ></text>
</g>
<g >
<title>Parloop_Cells_wrap_form0_exterior_facet_bottom_integral_otherwise (1,302,260 us, 0.85%)</title><rect x="147.6" y="119" width="10.0" height="15.0" fill="rgb(0,0,0)" rx="2" ry="2" />
<text  x="150.61" y="129.5" ></text>
</g>
<g >
<title>ParLoopExecute (684,464 us, 0.45%)</title><rect x="1127.8" y="151" width="5.2" height="15.0" fill="rgb(0,0,0)" rx="2" ry="2" />
<text  x="1130.77" y="161.5" ></text>
</g>
<g >
<title>PCSetUp (6,969,681 us, 4.54%)</title><rect x="914.6" y="151" width="53.6" height="15.0" fill="rgb(0,0,0)" rx="2" ry="2" />
<text  x="917.61" y="161.5" >PCSe..</text>
</g>
<g >
<title>Parloop_Cells_wrap_form_cell_integral_otherwise (5,589,617 us, 3.64%)</title><rect x="396.6" y="135" width="43.0" height="15.0" fill="rgb(0,0,0)" rx="2" ry="2" />
<text  x="399.63" y="145.5" >Par..</text>
</g>
<g >
<title>firedrake.mg.interface.prolong (1,285,798 us, 0.84%)</title><rect x="876.9" y="263" width="9.9" height="15.0" fill="rgb(0,0,0)" rx="2" ry="2" />
<text  x="879.95" y="273.5" ></text>
</g>
<g >
<title>ParLoopExecute (12,992,379 us, 8.47%)</title><rect x="111.1" y="103" width="100.0" height="15.0" fill="rgb(0,0,0)" rx="2" ry="2" />
<text  x="114.14" y="113.5" >ParLoopExec..</text>
</g>
<g >
<title>pyop2.global_kernel.GlobalKernel.compile (913,974 us, 0.60%)</title><rect x="18.5" y="135" width="7.1" height="15.0" fill="rgb(0,0,0)" rx="2" ry="2" />
<text  x="21.55" y="145.5" ></text>
</g>
<g >
<title>ParLoopExecute (7,521,924 us, 4.90%)</title><rect x="37.3" y="87" width="57.9" height="15.0" fill="rgb(0,0,0)" rx="2" ry="2" />
<text  x="40.33" y="97.5" >ParLo..</text>
</g>
<g >
<title>pyop2.global_kernel.GlobalKernel.compile (595,830 us, 0.39%)</title><rect x="889.4" y="311" width="4.6" height="15.0" fill="rgb(0,0,0)" rx="2" ry="2" />
<text  x="892.42" y="321.5" ></text>
</g>
<g >
<title>Parloop_ExtFacets_wrap_form00_exterior_facet_vert_integral_otherwise (2,129,952 us, 1.39%)</title><rect x="345.0" y="135" width="16.4" height="15.0" fill="rgb(0,0,0)" rx="2" ry="2" />
<text  x="348.00" y="145.5" ></text>
</g>
<g >
<title>pyop2.global_kernel.GlobalKernel.compile (14,358,709 us, 9.36%)</title><rect x="614.2" y="199" width="110.5" height="15.0" fill="rgb(0,0,0)" rx="2" ry="2" />
<text  x="617.20" y="209.5" >pyop2.global..</text>
</g>
<g >
<title>ParLoopExecute (6,602,161 us, 4.30%)</title><rect x="914.6" y="167" width="50.8" height="15.0" fill="rgb(0,0,0)" rx="2" ry="2" />
<text  x="917.61" y="177.5" >ParL..</text>
</g>
<g >
<title>pyop2.global_kernel.GlobalKernel.compile (1,668,249 us, 1.09%)</title><rect x="318.9" y="151" width="12.8" height="15.0" fill="rgb(0,0,0)" rx="2" ry="2" />
<text  x="321.91" y="161.5" ></text>
</g>
<g >
<title>Parloop_Cells_wrap_wrap_slate_loopy_knl_4 (11,740,211 us, 7.65%)</title><rect x="772.7" y="183" width="90.4" height="15.0" fill="rgb(0,0,0)" rx="2" ry="2" />
<text  x="775.73" y="193.5" >Parloop_C..</text>
</g>
<g >
<title>ParLoopExecute (10,788,927 us, 7.03%)</title><rect x="517.4" y="151" width="83.0" height="15.0" fill="rgb(0,0,0)" rx="2" ry="2" />
<text  x="520.36" y="161.5" >ParLoopE..</text>
</g>
<g >
<title>Parloop_Cells_wrap_wrap_slate_loopy_knl_7 (14,358,709 us, 9.36%)</title><rect x="614.2" y="183" width="110.5" height="15.0" fill="rgb(0,0,0)" rx="2" ry="2" />
<text  x="617.20" y="193.5" >Parloop_Cell..</text>
</g>
<g >
<title>Parloop_Cells_wrap_form0_cell_integral_otherwise (3,285,708 us, 2.14%)</title><rect x="1133.0" y="135" width="25.3" height="15.0" fill="rgb(0,0,0)" rx="2" ry="2" />
<text  x="1136.04" y="145.5" >P..</text>
</g>
<g >
<title>pyop2.caching.disk_cached.&lt;locals&gt;.decorator.&lt;locals&gt;.wrapper (20,044 us, 0.01%)</title><rect x="101.3" y="119" width="0.2" height="15.0" fill="rgb(0,0,0)" rx="2" ry="2" />
<text  x="104.32" y="129.5" ></text>
</g>
<g >
<title>ParLoopExecute (930,582 us, 0.61%)</title><rect x="510.2" y="183" width="7.2" height="15.0" fill="rgb(0,0,0)" rx="2" ry="2" />
<text  x="513.20" y="193.5" ></text>
</g>
<g >
<title>pyop2.global_kernel.GlobalKernel.compile (2,229,904 us, 1.45%)</title><rect x="193.9" y="135" width="17.2" height="15.0" fill="rgb(0,0,0)" rx="2" ry="2" />
<text  x="196.94" y="145.5" ></text>
</g>
<g >
<title>HybridOperatorAssembly (20,666,549 us, 13.47%)</title><rect x="968.8" y="135" width="159.0" height="15.0" fill="rgb(0,0,0)" rx="2" ry="2" />
<text  x="971.78" y="145.5" >HybridOperatorAsse..</text>
</g>
<g >
<title>firedrake.tsfc_interface.compile_form (1,621,113 us, 1.06%)</title><rect x="743.9" y="151" width="12.5" height="15.0" fill="rgb(0,0,0)" rx="2" ry="2" />
<text  x="746.93" y="161.5" ></text>
</g>
<g >
<title>firedrake.pointquery_utils.to_reference_coordinates (416,505 us, 0.27%)</title><rect x="883.6" y="279" width="3.2" height="15.0" fill="rgb(0,0,0)" rx="2" ry="2" />
<text  x="886.64" y="289.5" ></text>
</g>
<g >
<title>SCBackSub (33,221,296 us, 21.66%)</title><rect x="500.8" y="135" width="255.6" height="15.0" fill="rgb(0,0,0)" rx="2" ry="2" />
<text  x="503.83" y="145.5" >SCBackSub</text>
</g>
<g >
<title>Parloop_Cells_wrap_form00_exterior_facet_bottom_integral_otherwise (1,636,233 us, 1.07%)</title><rect x="306.3" y="135" width="12.6" height="15.0" fill="rgb(0,0,0)" rx="2" ry="2" />
<text  x="309.32" y="145.5" ></text>
</g>
<g >
<title>firedrake.parloops.par_loop (684,464 us, 0.45%)</title><rect x="1127.8" y="135" width="5.2" height="15.0" fill="rgb(0,0,0)" rx="2" ry="2" />
<text  x="1130.77" y="145.5" ></text>
</g>
<g >
<title>firedrake.assemble_expressions.evaluate_expression (815,935 us, 0.53%)</title><rect x="95.2" y="103" width="6.3" height="15.0" fill="rgb(0,0,0)" rx="2" ry="2" />
<text  x="98.20" y="113.5" ></text>
</g>
<g >
<title>pyop2.global_kernel.GlobalKernel.compile (930,582 us, 0.61%)</title><rect x="510.2" y="215" width="7.2" height="15.0" fill="rgb(0,0,0)" rx="2" ry="2" />
<text  x="513.20" y="225.5" ></text>
</g>
<g >
<title>pyop2.global_kernel.GlobalKernel.compile (1,636,233 us, 1.07%)</title><rect x="306.3" y="151" width="12.6" height="15.0" fill="rgb(0,0,0)" rx="2" ry="2" />
<text  x="309.32" y="161.5" ></text>
</g>
<g >
<title>pyop2.global_kernel.GlobalKernel.compile (1,321,565 us, 0.86%)</title><rect x="157.6" y="135" width="10.2" height="15.0" fill="rgb(0,0,0)" rx="2" ry="2" />
<text  x="160.63" y="145.5" ></text>
</g>
<g >
<title>firedrake.interpolation.interpolate (1,151,301 us, 0.75%)</title><rect x="894.0" y="279" width="8.9" height="15.0" fill="rgb(0,0,0)" rx="2" ry="2" />
<text  x="897.00" y="289.5" ></text>
</g>
<g >
<title>ParLoopExecute (5,589,617 us, 3.64%)</title><rect x="396.6" y="119" width="43.0" height="15.0" fill="rgb(0,0,0)" rx="2" ry="2" />
<text  x="399.63" y="129.5" >Par..</text>
</g>
<g >
<title>Parloop_set_#x7fda7451e7a0_wrap_pyop2_kernel_restrict (686,748 us, 0.45%)</title><rect x="906.2" y="263" width="5.2" height="15.0" fill="rgb(0,0,0)" rx="2" ry="2" />
<text  x="909.15" y="273.5" ></text>
</g>
<g >
<title>SCSolve (11,888,502 us, 7.75%)</title><rect x="876.8" y="135" width="91.4" height="15.0" fill="rgb(0,0,0)" rx="2" ry="2" />
<text  x="879.77" y="145.5" >SCSolve</text>
</g>
<g >
<title>firedrake.norms.errornorm (6,791,748 us, 4.43%)</title><rect x="396.6" y="71" width="52.3" height="15.0" fill="rgb(0,0,0)" rx="2" ry="2" />
<text  x="399.63" y="81.5" >fire..</text>
</g>
<g >
<title>PCSetUp (21,423,150 us, 13.97%)</title><rect x="968.2" y="103" width="164.8" height="15.0" fill="rgb(0,0,0)" rx="2" ry="2" />
<text  x="971.23" y="113.5" >PCSetUp</text>
</g>
<g >
<title>firedrake.parloops.par_loop (915,245 us, 0.60%)</title><rect x="756.4" y="167" width="7.0" height="15.0" fill="rgb(0,0,0)" rx="2" ry="2" />
<text  x="759.40" y="177.5" ></text>
</g>
<g >
<title>pyop2.global_kernel.GlobalKernel.compile (1,264,126 us, 0.82%)</title><rect x="914.6" y="199" width="9.7" height="15.0" fill="rgb(0,0,0)" rx="2" ry="2" />
<text  x="917.61" y="209.5" ></text>
</g>
<g >
<title>ParLoopExecute (16,325,521 us, 10.64%)</title><rect x="983.7" y="151" width="125.6" height="15.0" fill="rgb(0,0,0)" rx="2" ry="2" />
<text  x="986.67" y="161.5" >ParLoopExecute</text>
</g>
<g >
<title>Parloop_set_#x7fda7451d9c0_wrap_pyop2_kernel_inject (595,830 us, 0.39%)</title><rect x="889.4" y="295" width="4.6" height="15.0" fill="rgb(0,0,0)" rx="2" ry="2" />
<text  x="892.42" y="305.5" ></text>
</g>
<g >
<title>all (153,384,647 us, 100%)</title><rect x="10.0" y="39" width="1180.0" height="15.0" fill="rgb(0,0,0)" rx="2" ry="2" />
<text  x="13.00" y="49.5" ></text>
</g>
<g >
<title>SNESFunctionEval (7,404,486 us, 4.83%)</title><rect x="1133.0" y="103" width="57.0" height="15.0" fill="rgb(0,0,0)" rx="2" ry="2" />
<text  x="1136.04" y="113.5" >SNESF..</text>
</g>
<g >
<title>pyop2.global_kernel.GlobalKernel.compile (684,464 us, 0.45%)</title><rect x="1127.8" y="183" width="5.2" height="15.0" fill="rgb(0,0,0)" rx="2" ry="2" />
<text  x="1130.77" y="193.5" ></text>
</g>
<g >
<title>ParLoopExecute (11,740,211 us, 7.65%)</title><rect x="772.7" y="167" width="90.4" height="15.0" fill="rgb(0,0,0)" rx="2" ry="2" />
<text  x="775.73" y="177.5" >ParLoopEx..</text>
</g>
<g >
<title>pyop2.global_kernel.GlobalKernel.compile (3,006,608 us, 1.96%)</title><rect x="1158.3" y="151" width="23.1" height="15.0" fill="rgb(0,0,0)" rx="2" ry="2" />
<text  x="1161.31" y="161.5" >p..</text>
</g>
<g >
<title>HybridBreak (915,245 us, 0.60%)</title><rect x="756.4" y="151" width="7.0" height="15.0" fill="rgb(0,0,0)" rx="2" ry="2" />
<text  x="759.40" y="161.5" ></text>
</g>
<g >
<title>CreateFunctionSpace (18,102 us, 0.01%)</title><rect x="25.6" y="71" width="0.1" height="15.0" fill="rgb(0,0,0)" rx="2" ry="2" />
<text  x="28.58" y="81.5" ></text>
</g>
<g >
<title>firedrake.mg.embedded.TransferManager.op (1,285,798 us, 0.84%)</title><rect x="876.9" y="247" width="9.9" height="15.0" fill="rgb(0,0,0)" rx="2" ry="2" />
<text  x="879.95" y="257.5" ></text>
</g>
<g >
<title>firedrake.mg.interface.inject (2,453,008 us, 1.60%)</title><rect x="887.1" y="263" width="18.9" height="15.0" fill="rgb(0,0,0)" rx="2" ry="2" />
<text  x="890.11" y="273.5" ></text>
</g>
<g >
<title>pyop2.global_kernel.GlobalKernel.compile (11,740,211 us, 7.65%)</title><rect x="772.7" y="199" width="90.4" height="15.0" fill="rgb(0,0,0)" rx="2" ry="2" />
<text  x="775.73" y="209.5" >pyop2.glo..</text>
</g>
<g >
<title>firedrake.tsfc_interface.compile_form (1,112,170 us, 0.73%)</title><rect x="1181.4" y="119" width="8.6" height="15.0" fill="rgb(0,0,0)" rx="2" ry="2" />
<text  x="1184.44" y="129.5" ></text>
</g>
<g >
<title>firedrake.assemble.assemble (6,791,748 us, 4.43%)</title><rect x="396.6" y="103" width="52.3" height="15.0" fill="rgb(0,0,0)" rx="2" ry="2" />
<text  x="399.63" y="113.5" >fire..</text>
</g>
<g >
<title>MatMultTranspose (17,402 us, 0.01%)</title><rect x="886.8" y="231" width="0.2" height="15.0" fill="rgb(0,0,0)" rx="2" ry="2" />
<text  x="889.84" y="241.5" ></text>
</g>
<g >
<title>pyop2.global_kernel.GlobalKernel.compile (5,589,617 us, 3.64%)</title><rect x="396.6" y="151" width="43.0" height="15.0" fill="rgb(0,0,0)" rx="2" ry="2" />
<text  x="399.63" y="161.5" >pyo..</text>
</g>
<g >
<title>Parloop_Cells_wrap_wrap_slate_loopy_knl_14 (10,788,927 us, 7.03%)</title><rect x="517.4" y="167" width="83.0" height="15.0" fill="rgb(0,0,0)" rx="2" ry="2" />
<text  x="520.36" y="177.5" >Parloop_..</text>
</g>
<g >
<title>RecoverFirstElim (18,662,583 us, 12.17%)</title><rect x="600.4" y="151" width="143.5" height="15.0" fill="rgb(0,0,0)" rx="2" ry="2" />
<text  x="603.36" y="161.5" >RecoverFirstElim</text>
</g>
<g >
<title>ParLoopExecute (14,358,709 us, 9.36%)</title><rect x="614.2" y="167" width="110.5" height="15.0" fill="rgb(0,0,0)" rx="2" ry="2" />
<text  x="617.20" y="177.5" >ParLoopExecute</text>
</g>
<g >
<title>Parloop_Cells_wrap_wrap_slate_loopy_knl_0 (16,325,521 us, 10.64%)</title><rect x="983.7" y="167" width="125.6" height="15.0" fill="rgb(0,0,0)" rx="2" ry="2" />
<text  x="986.67" y="177.5" >Parloop_Cells_..</text>
</g>
<g >
<title>ParLoopExecute (6,292,316 us, 4.10%)</title><rect x="1133.0" y="119" width="48.4" height="15.0" fill="rgb(0,0,0)" rx="2" ry="2" />
<text  x="1136.04" y="129.5" >ParL..</text>
</g>
<g >
<title>PCApply (1,326,868 us, 0.87%)</title><rect x="876.8" y="183" width="10.2" height="15.0" fill="rgb(0,0,0)" rx="2" ry="2" />
<text  x="879.77" y="193.5" ></text>
</g>
<g >
<title>Parloop_Cells_wrap_expression_kernel (1,264,126 us, 0.82%)</title><rect x="914.6" y="183" width="9.7" height="15.0" fill="rgb(0,0,0)" rx="2" ry="2" />
<text  x="917.61" y="193.5" ></text>
</g>
<g >
<title>Parloop_IntFacets_wrap_form_interior_facet_vert_integral_otherwise (1,930,889 us, 1.26%)</title><rect x="80.3" y="103" width="14.9" height="15.0" fill="rgb(0,0,0)" rx="2" ry="2" />
<text  x="83.34" y="113.5" ></text>
</g>
<g >
<title>KSPSolve (4,918,821 us, 3.21%)</title><rect x="876.8" y="151" width="37.8" height="15.0" fill="rgb(0,0,0)" rx="2" ry="2" />
<text  x="879.77" y="161.5" >KS..</text>
</g>
<g >
<title>Parloop_Cells_wrap_form0_exterior_facet_top_integral_otherwise (1,321,565 us, 0.86%)</title><rect x="157.6" y="119" width="10.2" height="15.0" fill="rgb(0,0,0)" rx="2" ry="2" />
<text  x="160.63" y="129.5" ></text>
</g>
<g >
<title>Parloop_Cells_wrap_form_interior_facet_horiz_integral_otherwise (1,243,270 us, 0.81%)</title><rect x="56.5" y="103" width="9.6" height="15.0" fill="rgb(0,0,0)" rx="2" ry="2" />
<text  x="59.49" y="113.5" ></text>
</g>
<g >
<title>KSPSolve (1,326,868 us, 0.87%)</title><rect x="876.8" y="199" width="10.2" height="15.0" fill="rgb(0,0,0)" rx="2" ry="2" />
<text  x="879.77" y="209.5" ></text>
</g>
<g >
<title>pyop2.global_kernel.GlobalKernel.compile (16,325,521 us, 10.64%)</title><rect x="983.7" y="183" width="125.6" height="15.0" fill="rgb(0,0,0)" rx="2" ry="2" />
<text  x="986.67" y="193.5" >pyop2.global_k..</text>
</g>
<g >
<title>pyop2.global_kernel.GlobalKernel.compile (4,740,012 us, 3.09%)</title><rect x="111.1" y="135" width="36.5" height="15.0" fill="rgb(0,0,0)" rx="2" ry="2" />
<text  x="114.14" y="145.5" >py..</text>
</g>
<g >
<title>Parloop_set_#x7fda74535de0_wrap_expression_kernel (422,709 us, 0.28%)</title><rect x="95.2" y="135" width="3.2" height="15.0" fill="rgb(0,0,0)" rx="2" ry="2" />
<text  x="98.20" y="145.5" ></text>
</g>
<g >
<title>Parloop_Cells_wrap_par_loop_kernel (684,464 us, 0.45%)</title><rect x="1127.8" y="167" width="5.2" height="15.0" fill="rgb(0,0,0)" rx="2" ry="2" />
<text  x="1130.77" y="177.5" ></text>
</g>
<g >
<title>pyop2.global_kernel.GlobalKernel.compile (915,245 us, 0.60%)</title><rect x="756.4" y="215" width="7.0" height="15.0" fill="rgb(0,0,0)" rx="2" ry="2" />
<text  x="759.40" y="225.5" ></text>
</g>
<g >
<title>firedrake.projection.project (37,128,103 us, 24.21%)</title><rect x="111.0" y="87" width="285.6" height="15.0" fill="rgb(0,0,0)" rx="2" ry="2" />
<text  x="114.01" y="97.5" >firedrake.projection.project</text>
</g>
<g >
<title>pyop2.global_kernel.GlobalKernel.compile (12,378,349 us, 8.07%)</title><rect x="211.1" y="151" width="95.2" height="15.0" fill="rgb(0,0,0)" rx="2" ry="2" />
<text  x="214.10" y="161.5" >pyop2.glob..</text>
</g>
<g >
<title>pyop2.global_kernel.GlobalKernel.compile (422,709 us, 0.28%)</title><rect x="95.2" y="151" width="3.2" height="15.0" fill="rgb(0,0,0)" rx="2" ry="2" />
<text  x="98.20" y="161.5" ></text>
</g>
<g >
<title>pyop2.global_kernel.GlobalKernel.compile (10,788,927 us, 7.03%)</title><rect x="517.4" y="183" width="83.0" height="15.0" fill="rgb(0,0,0)" rx="2" ry="2" />
<text  x="520.36" y="193.5" >pyop2.gl..</text>
</g>
<g >
<title>Parloop_Cells_wrap_form1_cell_integral_otherwise (2,319,636 us, 1.51%)</title><rect x="476.2" y="167" width="17.8" height="15.0" fill="rgb(0,0,0)" rx="2" ry="2" />
<text  x="479.19" y="177.5" ></text>
</g>
<g >
<title>pyop2.global_kernel.GlobalKernel.compile (1,262,374 us, 0.82%)</title><rect x="46.8" y="119" width="9.7" height="15.0" fill="rgb(0,0,0)" rx="2" ry="2" />
<text  x="49.77" y="129.5" ></text>
</g>
<g >
<title>firedrake.mg.embedded.TransferManager.op (2,453,008 us, 1.60%)</title><rect x="887.1" y="247" width="18.9" height="15.0" fill="rgb(0,0,0)" rx="2" ry="2" />
<text  x="890.11" y="257.5" ></text>
</g>
<g >
<title>pyop2.global_kernel.GlobalKernel.compile (2,319,636 us, 1.51%)</title><rect x="476.2" y="183" width="17.8" height="15.0" fill="rgb(0,0,0)" rx="2" ry="2" />
<text  x="479.19" y="193.5" ></text>
</g>
<g >
<title>firedrake.functionspacedata.get_shared_data (18,102 us, 0.01%)</title><rect x="25.6" y="103" width="0.1" height="15.0" fill="rgb(0,0,0)" rx="2" ry="2" />
<text  x="28.58" y="113.5" ></text>
</g>
<g >
<title>pyop2.global_kernel.GlobalKernel.compile (373,182 us, 0.24%)</title><rect x="98.4" y="151" width="2.9" height="15.0" fill="rgb(0,0,0)" rx="2" ry="2" />
<text  x="101.45" y="161.5" ></text>
</g>
<g >
<title>pyop2.global_kernel.GlobalKernel.compile (1,227,550 us, 0.80%)</title><rect x="37.3" y="119" width="9.5" height="15.0" fill="rgb(0,0,0)" rx="2" ry="2" />
<text  x="40.33" y="129.5" ></text>
</g>
<g >
<title>firedrake.pointquery_utils.to_reference_coordinates (412,638 us, 0.27%)</title><rect x="911.4" y="247" width="3.2" height="15.0" fill="rgb(0,0,0)" rx="2" ry="2" />
<text  x="914.43" y="257.5" ></text>
</g>
<g >
<title>Parloop_IntFacets_wrap_form0_interior_facet_vert_integral_otherwise (2,229,904 us, 1.45%)</title><rect x="193.9" y="119" width="17.2" height="15.0" fill="rgb(0,0,0)" rx="2" ry="2" />
<text  x="196.94" y="129.5" ></text>
</g>
<g >
<title>PCApply (60,755,764 us, 39.61%)</title><rect x="500.8" y="119" width="467.4" height="15.0" fill="rgb(0,0,0)" rx="2" ry="2" />
<text  x="503.83" y="129.5" >PCApply</text>
</g>
<g >
<title>firedrake.assemble_expressions.assemble_expression (815,935 us, 0.53%)</title><rect x="95.2" y="87" width="6.3" height="15.0" fill="rgb(0,0,0)" rx="2" ry="2" />
<text  x="98.20" y="97.5" ></text>
</g>
<g >
<title>Parloop_IntFacets_wrap_form00_interior_facet_vert_integral_otherwise (2,167,462 us, 1.41%)</title><rect x="361.4" y="135" width="16.7" height="15.0" fill="rgb(0,0,0)" rx="2" ry="2" />
<text  x="364.38" y="145.5" ></text>
</g>
<g >
<title>firedrake.parloops.par_loop (930,582 us, 0.61%)</title><rect x="510.2" y="167" width="7.2" height="15.0" fill="rgb(0,0,0)" rx="2" ry="2" />
<text  x="513.20" y="177.5" ></text>
</g>
<g >
<title>Parloop_Cells_wrap_par_loop_kernel (915,245 us, 0.60%)</title><rect x="756.4" y="199" width="7.0" height="15.0" fill="rgb(0,0,0)" rx="2" ry="2" />
<text  x="759.40" y="209.5" ></text>
</g>
<g >
<title>Parloop_Cells_wrap_form00_exterior_facet_top_integral_otherwise (1,668,249 us, 1.09%)</title><rect x="318.9" y="135" width="12.8" height="15.0" fill="rgb(0,0,0)" rx="2" ry="2" />
<text  x="321.91" y="145.5" ></text>
</g>
<g >
<title>Parloop_Cells_wrap_form_exterior_facet_bottom_integral_otherwise (1,227,550 us, 0.80%)</title><rect x="37.3" y="103" width="9.5" height="15.0" fill="rgb(0,0,0)" rx="2" ry="2" />
<text  x="40.33" y="113.5" ></text>
</g>
<g >
<title>Parloop_Cells_wrap_form0_cell_integral_otherwise (3,529,517 us, 2.30%)</title><rect x="449.0" y="167" width="27.2" height="15.0" fill="rgb(0,0,0)" rx="2" ry="2" />
<text  x="452.04" y="177.5" >P..</text>
</g>
<g >
<title>firedrake.tsfc_interface.compile_form (2,504,107 us, 1.63%)</title><rect x="724.7" y="167" width="19.2" height="15.0" fill="rgb(0,0,0)" rx="2" ry="2" />
<text  x="727.67" y="177.5" ></text>
</g>
<g >
<title>Parloop_ExtFacets_wrap_form_exterior_facet_vert_integral_otherwise (1,857,841 us, 1.21%)</title><rect x="66.1" y="103" width="14.2" height="15.0" fill="rgb(0,0,0)" rx="2" ry="2" />
<text  x="69.05" y="113.5" ></text>
</g>
<g >
<title>ParLoopExecute (5,849,153 us, 3.81%)</title><rect x="449.0" y="151" width="45.0" height="15.0" fill="rgb(0,0,0)" rx="2" ry="2" />
<text  x="452.04" y="161.5" >Par..</text>
</g>
<g >
<title>MatMult (1,285,798 us, 0.84%)</title><rect x="876.9" y="231" width="9.9" height="15.0" fill="rgb(0,0,0)" rx="2" ry="2" />
<text  x="879.95" y="241.5" ></text>
</g>
<g >
<title>firedrake.tsfc_interface.compile_form (2,405,544 us, 1.57%)</title><rect x="1109.3" y="151" width="18.5" height="15.0" fill="rgb(0,0,0)" rx="2" ry="2" />
<text  x="1112.27" y="161.5" ></text>
</g>
<g >
<title>firedrake (153,384,647 us, 100.00%)</title><rect x="10.0" y="55" width="1180.0" height="15.0" fill="rgb(0,0,0)" rx="2" ry="2" />
<text  x="13.00" y="65.5" >firedrake</text>
</g>
<g >
<title>pyop2.global_kernel.GlobalKernel.compile (2,129,952 us, 1.39%)</title><rect x="345.0" y="151" width="16.4" height="15.0" fill="rgb(0,0,0)" rx="2" ry="2" />
<text  x="348.00" y="161.5" ></text>
</g>
<g >
<title>firedrake.functionspaceimpl.FunctionSpace.__init__ (18,102 us, 0.01%)</title><rect x="25.6" y="87" width="0.1" height="15.0" fill="rgb(0,0,0)" rx="2" ry="2" />
<text  x="28.58" y="97.5" ></text>
</g>
<g >
<title>firedrake.interpolation.make_interpolator (23,228 us, 0.02%)</title><rect x="965.4" y="167" width="0.2" height="15.0" fill="rgb(0,0,0)" rx="2" ry="2" />
<text  x="968.40" y="177.5" ></text>
</g>
<g >
<title>firedrake.variational_solver.NonlinearVariationalSolver.solve (96,315,686 us, 62.79%)</title><rect x="449.0" y="71" width="741.0" height="15.0" fill="rgb(0,0,0)" rx="2" ry="2" />
<text  x="452.04" y="81.5" >firedrake.variational_solver.NonlinearVariationalSolver.solve</text>
</g>
<g >
<title>pyop2.global_kernel.GlobalKernel.compile (3,529,517 us, 2.30%)</title><rect x="449.0" y="183" width="27.2" height="15.0" fill="rgb(0,0,0)" rx="2" ry="2" />
<text  x="452.04" y="193.5" >p..</text>
</g>
<g >
<title>PCSetUp (3,591,953 us, 2.34%)</title><rect x="887.0" y="183" width="27.6" height="15.0" fill="rgb(0,0,0)" rx="2" ry="2" />
<text  x="889.98" y="193.5" >P..</text>
</g>
<g >
<title>Parloop_Cells_wrap_pyop2_kernel_uniform_extrusion (913,974 us, 0.60%)</title><rect x="18.5" y="119" width="7.1" height="15.0" fill="rgb(0,0,0)" rx="2" ry="2" />
<text  x="21.55" y="129.5" ></text>
</g>
<g >
<title>ParLoopExecute (686,748 us, 0.45%)</title><rect x="906.2" y="247" width="5.2" height="15.0" fill="rgb(0,0,0)" rx="2" ry="2" />
<text  x="909.15" y="257.5" ></text>
</g>
<g >
<title>ParLoopExecute (913,974 us, 0.60%)</title><rect x="18.5" y="103" width="7.1" height="15.0" fill="rgb(0,0,0)" rx="2" ry="2" />
<text  x="21.55" y="113.5" ></text>
</g>
<g >
<title>pyop2.global_kernel.GlobalKernel.compile (617,638 us, 0.40%)</title><rect x="878.9" y="311" width="4.7" height="15.0" fill="rgb(0,0,0)" rx="2" ry="2" />
<text  x="881.89" y="321.5" ></text>
</g>
<g >
<title>pyop2.global_kernel.GlobalKernel.compile (1,905,735 us, 1.24%)</title><rect x="179.3" y="135" width="14.6" height="15.0" fill="rgb(0,0,0)" rx="2" ry="2" />
<text  x="182.28" y="145.5" ></text>
</g>
<g >
<title>firedrake.__init__ (1,509,280 us, 0.98%)</title><rect x="25.7" y="71" width="11.6" height="15.0" fill="rgb(0,0,0)" rx="2" ry="2" />
<text  x="28.72" y="81.5" ></text>
</g>
<g >
<title>firedrake.function.Function.project (37,128,103 us, 24.21%)</title><rect x="111.0" y="71" width="285.6" height="15.0" fill="rgb(0,0,0)" rx="2" ry="2" />
<text  x="114.01" y="81.5" >firedrake.function.Function.project</text>
</g>
<g >
<title>ParLoopExecute (795,891 us, 0.52%)</title><rect x="95.2" y="119" width="6.1" height="15.0" fill="rgb(0,0,0)" rx="2" ry="2" />
<text  x="98.20" y="129.5" ></text>
</g>
<g >
<title>Parloop_Cells_wrap_form0_cell_integral_otherwise (4,740,012 us, 3.09%)</title><rect x="111.1" y="119" width="36.5" height="15.0" fill="rgb(0,0,0)" rx="2" ry="2" />
<text  x="114.14" y="129.5" >Pa..</text>
</g>
<g >
<title>Parloop_Cells_wrap_form1_cell_integral_otherwise (3,006,608 us, 1.96%)</title><rect x="1158.3" y="135" width="23.1" height="15.0" fill="rgb(0,0,0)" rx="2" ry="2" />
<text  x="1161.31" y="145.5" >P..</text>
</g>
<g >
<title>MatMultTranspose (1,121,645 us, 0.73%)</title><rect x="906.0" y="215" width="8.6" height="15.0" fill="rgb(0,0,0)" rx="2" ry="2" />
<text  x="908.98" y="225.5" ></text>
</g>
<g >
<title>pyop2.global_kernel.GlobalKernel.compile (2,167,462 us, 1.41%)</title><rect x="361.4" y="151" width="16.7" height="15.0" fill="rgb(0,0,0)" rx="2" ry="2" />
<text  x="364.38" y="161.5" ></text>
</g>
<g >
<title>firedrake.interpolation.make_interpolator (34,936 us, 0.02%)</title><rect x="902.6" y="295" width="0.3" height="15.0" fill="rgb(0,0,0)" rx="2" ry="2" />
<text  x="905.59" y="305.5" ></text>
</g>
<g >
<title>MatMult (6,732,286 us, 4.39%)</title><rect x="449.0" y="119" width="51.8" height="15.0" fill="rgb(0,0,0)" rx="2" ry="2" />
<text  x="452.04" y="129.5" >MatM..</text>
</g>
<g >
<title>firedrake.tsfc_interface.compile_form (1,238,826 us, 0.81%)</title><rect x="101.5" y="87" width="9.5" height="15.0" fill="rgb(0,0,0)" rx="2" ry="2" />
<text  x="104.47" y="97.5" ></text>
</g>
<g >
<title>PCApply (4,918,821 us, 3.21%)</title><rect x="876.8" y="167" width="37.8" height="15.0" fill="rgb(0,0,0)" rx="2" ry="2" />
<text  x="879.77" y="177.5" >PC..</text>
</g>
<g >
<title>firedrake.assemble.assemble (22,867,567 us, 14.91%)</title><rect x="211.1" y="103" width="175.9" height="15.0" fill="rgb(0,0,0)" rx="2" ry="2" />
<text  x="214.10" y="113.5" >firedrake.assemble.a..</text>
</g>
<g >
<title>Parloop_Cells_wrap_expression_kernel (1,116,365 us, 0.73%)</title><rect x="894.0" y="327" width="8.6" height="15.0" fill="rgb(0,0,0)" rx="2" ry="2" />
<text  x="897.00" y="337.5" ></text>
</g>
<g >
<title>firedrake.extrusion_utils.make_extruded_coords (945,780 us, 0.62%)</title><rect x="18.3" y="87" width="7.3" height="15.0" fill="rgb(0,0,0)" rx="2" ry="2" />
<text  x="21.30" y="97.5" ></text>
</g>
<g >
<title>SNESSolve (96,315,686 us, 62.79%)</title><rect x="449.0" y="87" width="741.0" height="15.0" fill="rgb(0,0,0)" rx="2" ry="2" />
<text  x="452.04" y="97.5" >SNESSolve</text>
</g>
<g >
<title>pyop2.global_kernel.GlobalKernel.compile (3,285,708 us, 2.14%)</title><rect x="1133.0" y="151" width="25.3" height="15.0" fill="rgb(0,0,0)" rx="2" ry="2" />
<text  x="1136.04" y="161.5" >p..</text>
</g>
<g >
<title>ParLoopExecute (617,638 us, 0.40%)</title><rect x="878.9" y="279" width="4.7" height="15.0" fill="rgb(0,0,0)" rx="2" ry="2" />
<text  x="881.89" y="289.5" ></text>
</g>
<g >
<title>Parloop_Cells_wrap_form00_cell_integral_otherwise (12,378,349 us, 8.07%)</title><rect x="211.1" y="135" width="95.2" height="15.0" fill="rgb(0,0,0)" rx="2" ry="2" />
<text  x="214.10" y="145.5" >Parloop_Ce..</text>
</g>
<g >
<title>firedrake.mg.interface.restrict (1,121,645 us, 0.73%)</title><rect x="906.0" y="231" width="8.6" height="15.0" fill="rgb(0,0,0)" rx="2" ry="2" />
<text  x="908.98" y="241.5" ></text>
</g>
<g >
<title>PCApply (1,326,868 us, 0.87%)</title><rect x="876.8" y="215" width="10.2" height="15.0" fill="rgb(0,0,0)" rx="2" ry="2" />
<text  x="879.77" y="225.5" ></text>
</g>
<g >
<title>firedrake.matrix_free.operators.ImplicitMatrixContext.mult (6,732,286 us, 4.39%)</title><rect x="449.0" y="135" width="51.8" height="15.0" fill="rgb(0,0,0)" rx="2" ry="2" />
<text  x="452.04" y="145.5" >fire..</text>
</g>
<g >
<title>ParLoopExecute (21,702,807 us, 14.15%)</title><rect x="211.1" y="119" width="167.0" height="15.0" fill="rgb(0,0,0)" rx="2" ry="2" />
<text  x="214.10" y="129.5" >ParLoopExecute</text>
</g>
<g >
<title>ParLoopExecute (915,245 us, 0.60%)</title><rect x="756.4" y="183" width="7.0" height="15.0" fill="rgb(0,0,0)" rx="2" ry="2" />
<text  x="759.40" y="193.5" ></text>
</g>
<g >
<title>firedrake.pointquery_utils.to_reference_coordinates (405,447 us, 0.26%)</title><rect x="902.9" y="279" width="3.1" height="15.0" fill="rgb(0,0,0)" rx="2" ry="2" />
<text  x="905.86" y="289.5" ></text>
</g>
<g >
<title>pyop2.global_kernel.GlobalKernel.compile (1,302,260 us, 0.85%)</title><rect x="147.6" y="135" width="10.0" height="15.0" fill="rgb(0,0,0)" rx="2" ry="2" />
<text  x="150.61" y="145.5" ></text>
</g>
<g >
<title>Parloop_Cells_wrap_form0_interior_facet_horiz_integral_otherwise (1,492,903 us, 0.97%)</title><rect x="167.8" y="119" width="11.5" height="15.0" fill="rgb(0,0,0)" rx="2" ry="2" />
<text  x="170.79" y="129.5" ></text>
</g>
<g >
<title>firedrake.tsfc_interface.compile_form (1,783,032 us, 1.16%)</title><rect x="863.1" y="167" width="13.7" height="15.0" fill="rgb(0,0,0)" rx="2" ry="2" />
<text  x="866.05" y="177.5" ></text>
</g>
<g >
<title>Parloop_Cells_wrap_form_exterior_facet_top_integral_otherwise (1,262,374 us, 0.82%)</title><rect x="46.8" y="103" width="9.7" height="15.0" fill="rgb(0,0,0)" rx="2" ry="2" />
<text  x="49.77" y="113.5" ></text>
</g>
<g >
<title>firedrake.tsfc_interface.compile_form (883,133 us, 0.58%)</title><rect x="494.0" y="151" width="6.8" height="15.0" fill="rgb(0,0,0)" rx="2" ry="2" />
<text  x="497.03" y="161.5" ></text>
</g>
<g >
<title>Parloop_ExtFacets_wrap_form0_exterior_facet_vert_integral_otherwise (1,905,735 us, 1.24%)</title><rect x="179.3" y="119" width="14.6" height="15.0" fill="rgb(0,0,0)" rx="2" ry="2" />
<text  x="182.28" y="129.5" ></text>
</g>
<g >
<title>Parloop_Cells_wrap_par_loop_kernel (930,582 us, 0.61%)</title><rect x="510.2" y="199" width="7.2" height="15.0" fill="rgb(0,0,0)" rx="2" ry="2" />
<text  x="513.20" y="209.5" ></text>
</g>
<g >
<title>HybridProject (930,582 us, 0.61%)</title><rect x="510.2" y="151" width="7.2" height="15.0" fill="rgb(0,0,0)" rx="2" ry="2" />
<text  x="513.20" y="161.5" ></text>
</g>
<g >
<title>ParLoopExecute (1,116,365 us, 0.73%)</title><rect x="894.0" y="311" width="8.6" height="15.0" fill="rgb(0,0,0)" rx="2" ry="2" />
<text  x="897.00" y="321.5" ></text>
</g>
<g >
<title>PCSetUp (3,591,953 us, 2.34%)</title><rect x="887.0" y="199" width="27.6" height="15.0" fill="rgb(0,0,0)" rx="2" ry="2" />
<text  x="889.98" y="209.5" >P..</text>
</g>
<g >
<title>firedrake.dmhooks.coarsen (2,470,308 us, 1.61%)</title><rect x="887.0" y="231" width="19.0" height="15.0" fill="rgb(0,0,0)" rx="2" ry="2" />
<text  x="889.98" y="241.5" ></text>
</g>
<g >
<title>pyop2.global_kernel.GlobalKernel.compile (1,930,889 us, 1.26%)</title><rect x="80.3" y="119" width="14.9" height="15.0" fill="rgb(0,0,0)" rx="2" ry="2" />
<text  x="83.34" y="129.5" ></text>
</g>
<g >
<title>ParLoopExecute (595,830 us, 0.39%)</title><rect x="889.4" y="279" width="4.6" height="15.0" fill="rgb(0,0,0)" rx="2" ry="2" />
<text  x="892.42" y="289.5" ></text>
</g>
<g >
<title>SCForwardElim (15,645,966 us, 10.20%)</title><rect x="756.4" y="135" width="120.4" height="15.0" fill="rgb(0,0,0)" rx="2" ry="2" />
<text  x="759.40" y="145.5" >SCForwardElim</text>
</g>
<g >
<title>pyop2.global_kernel.GlobalKernel.compile (5,338,035 us, 3.48%)</title><rect x="924.3" y="199" width="41.1" height="15.0" fill="rgb(0,0,0)" rx="2" ry="2" />
<text  x="927.33" y="209.5" >pyo..</text>
</g>
<g >
<title>firedrake.functionspacedata.FunctionSpaceData.__init__ (18,102 us, 0.01%)</title><rect x="25.6" y="119" width="0.1" height="15.0" fill="rgb(0,0,0)" rx="2" ry="2" />
<text  x="28.58" y="129.5" ></text>
</g>
<g >
<title>firedrake.norms.norm (6,791,748 us, 4.43%)</title><rect x="396.6" y="87" width="52.3" height="15.0" fill="rgb(0,0,0)" rx="2" ry="2" />
<text  x="399.63" y="97.5" >fire..</text>
</g>
<g >
<title>firedrake.interpolation.Interpolator.interpolate (1,116,365 us, 0.73%)</title><rect x="894.0" y="295" width="8.6" height="15.0" fill="rgb(0,0,0)" rx="2" ry="2" />
<text  x="897.00" y="305.5" ></text>
</g>
<g >
<title>pyop2.global_kernel.GlobalKernel.compile (1,243,270 us, 0.81%)</title><rect x="56.5" y="119" width="9.6" height="15.0" fill="rgb(0,0,0)" rx="2" ry="2" />
<text  x="59.49" y="129.5" ></text>
</g>
<g >
<title>firedrake.mg.interface.restrict (17,402 us, 0.01%)</title><rect x="886.8" y="247" width="0.2" height="15.0" fill="rgb(0,0,0)" rx="2" ry="2" />
<text  x="889.84" y="257.5" ></text>
</g>
<g >
<title>firedrake.tsfc_interface.compile_form (344,292 us, 0.22%)</title><rect x="965.6" y="167" width="2.6" height="15.0" fill="rgb(0,0,0)" rx="2" ry="2" />
<text  x="968.58" y="177.5" ></text>
</g>
<g >
<title>pyop2.global_kernel.GlobalKernel.compile (1,492,903 us, 0.97%)</title><rect x="167.8" y="135" width="11.5" height="15.0" fill="rgb(0,0,0)" rx="2" ry="2" />
<text  x="170.79" y="145.5" ></text>
</g>
<g >
<title>KSPSolve (67,488,050 us, 44.00%)</title><rect x="449.0" y="103" width="519.2" height="15.0" fill="rgb(0,0,0)" rx="2" ry="2" />
<text  x="452.04" y="113.5" >KSPSolve</text>
</g>
<g >
<title>pyop2.global_kernel.GlobalKernel.compile (1,857,841 us, 1.21%)</title><rect x="66.1" y="119" width="14.2" height="15.0" fill="rgb(0,0,0)" rx="2" ry="2" />
<text  x="69.05" y="129.5" ></text>
</g>
<g >
<title>CreateExtMesh (945,780 us, 0.62%)</title><rect x="18.3" y="71" width="7.3" height="15.0" fill="rgb(0,0,0)" rx="2" ry="2" />
<text  x="21.30" y="81.5" ></text>
</g>
</g>
</svg>
