<?xml version="1.0" standalone="no"?>
<!DOCTYPE svg PUBLIC "-//W3C//DTD SVG 1.1//EN" "http://www.w3.org/Graphics/SVG/1.1/DTD/svg11.dtd">
<svg version="1.1" width="1200" height="395" onload="init(evt)" viewBox="0 0 1200 395" xmlns="http://www.w3.org/2000/svg" xmlns:xlink="http://www.w3.org/1999/xlink">
<!-- Flame graph stack visualization. See https://github.com/brendangregg/FlameGraph for latest version, and http://www.brendangregg.com/flamegraphs.html for examples. -->
<!-- NOTES:  -->
<defs>
	<linearGradient id="background" y1="0" y2="1" x1="0" x2="0" >
		<stop stop-color="#eeeeee" offset="5%" />
		<stop stop-color="#eeeeb0" offset="95%" />
	</linearGradient>
</defs>
<style type="text/css">
	text { font-family:Verdana; font-size:13px; fill:rgb(0,0,0); }
	#search, #ignorecase { opacity:0.1; cursor:pointer; }
	#search:hover, #search.show, #ignorecase:hover, #ignorecase.show { opacity:1; }
	#subtitle { text-anchor:middle; font-color:rgb(160,160,160); }
	#title { text-anchor:middle; font-size:18px}
	#unzoom { cursor:pointer; }
	#frames > *:hover { stroke:black; stroke-width:0.5; cursor:pointer; }
	.hide { display:none; }
	.parent { opacity:0.5; }
</style>
<script type="text/ecmascript">
<![CDATA[
	"use strict";
	var details, searchbtn, unzoombtn, matchedtxt, svg, searching, currentSearchTerm, ignorecase, ignorecaseBtn;
	function init(evt) {
		details = document.getElementById("details").firstChild;
		searchbtn = document.getElementById("search");
		ignorecaseBtn = document.getElementById("ignorecase");
		unzoombtn = document.getElementById("unzoom");
		matchedtxt = document.getElementById("matched");
		svg = document.getElementsByTagName("svg")[0];
		searching = 0;
		currentSearchTerm = null;

		// use GET parameters to restore a flamegraphs state.
		var params = get_params();
		if (params.x && params.y)
			zoom(find_group(document.querySelector('[x="' + params.x + '"][y="' + params.y + '"]')));
                if (params.s) search(params.s);
	}

	// event listeners
	window.addEventListener("click", function(e) {
		var target = find_group(e.target);
		if (target) {
			if (target.nodeName == "a") {
				if (e.ctrlKey === false) return;
				e.preventDefault();
			}
			if (target.classList.contains("parent")) unzoom();
			zoom(target);
			if (!document.querySelector('.parent')) {
				clearzoom();
				return;
			}

			// set parameters for zoom state
			var el = target.querySelector("rect");
			if (el && el.attributes && el.attributes.y && el.attributes._orig_x) {
				var params = get_params()
				params.x = el.attributes._orig_x.value;
				params.y = el.attributes.y.value;
				history.replaceState(null, null, parse_params(params));
			}
		}
		else if (e.target.id == "unzoom") clearzoom();
		else if (e.target.id == "search") search_prompt();
		else if (e.target.id == "ignorecase") toggle_ignorecase();
	}, false)

	// mouse-over for info
	// show
	window.addEventListener("mouseover", function(e) {
		var target = find_group(e.target);
		if (target) details.nodeValue = "Function: " + g_to_text(target);
	}, false)

	// clear
	window.addEventListener("mouseout", function(e) {
		var target = find_group(e.target);
		if (target) details.nodeValue = ' ';
	}, false)

	// ctrl-F for search
	// ctrl-I to toggle case-sensitive search
	window.addEventListener("keydown",function (e) {
		if (e.keyCode === 114 || (e.ctrlKey && e.keyCode === 70)) {
			e.preventDefault();
			search_prompt();
		}
		else if (e.ctrlKey && e.keyCode === 73) {
			e.preventDefault();
			toggle_ignorecase();
		}
	}, false)

	// functions
	function get_params() {
		var params = {};
		var paramsarr = window.location.search.substr(1).split('&');
		for (var i = 0; i < paramsarr.length; ++i) {
			var tmp = paramsarr[i].split("=");
			if (!tmp[0] || !tmp[1]) continue;
			params[tmp[0]]  = decodeURIComponent(tmp[1]);
		}
		return params;
	}
	function parse_params(params) {
		var uri = "?";
		for (var key in params) {
			uri += key + '=' + encodeURIComponent(params[key]) + '&';
		}
		if (uri.slice(-1) == "&")
			uri = uri.substring(0, uri.length - 1);
		if (uri == '?')
			uri = window.location.href.split('?')[0];
		return uri;
	}
	function find_child(node, selector) {
		var children = node.querySelectorAll(selector);
		if (children.length) return children[0];
	}
	function find_group(node) {
		var parent = node.parentElement;
		if (!parent) return;
		if (parent.id == "frames") return node;
		return find_group(parent);
	}
	function orig_save(e, attr, val) {
		if (e.attributes["_orig_" + attr] != undefined) return;
		if (e.attributes[attr] == undefined) return;
		if (val == undefined) val = e.attributes[attr].value;
		e.setAttribute("_orig_" + attr, val);
	}
	function orig_load(e, attr) {
		if (e.attributes["_orig_"+attr] == undefined) return;
		e.attributes[attr].value = e.attributes["_orig_" + attr].value;
		e.removeAttribute("_orig_"+attr);
	}
	function g_to_text(e) {
		var text = find_child(e, "title").firstChild.nodeValue;
		return (text)
	}
	function g_to_func(e) {
		var func = g_to_text(e);
		// if there's any manipulation we want to do to the function
		// name before it's searched, do it here before returning.
		return (func);
	}
	function update_text(e) {
		var r = find_child(e, "rect");
		var t = find_child(e, "text");
		var w = parseFloat(r.attributes.width.value) -3;
		var txt = find_child(e, "title").textContent.replace(/\([^(]*\)$/,"");
		t.attributes.x.value = parseFloat(r.attributes.x.value) + 3;

		// Smaller than this size won't fit anything
		if (w < 2 * 13 * 0.59) {
			t.textContent = "";
			return;
		}

		t.textContent = txt;
		// Fit in full text width
		if (/^ *$/.test(txt) || t.getSubStringLength(0, txt.length) < w)
			return;

		for (var x = txt.length - 2; x > 0; x--) {
			if (t.getSubStringLength(0, x + 2) <= w) {
				t.textContent = txt.substring(0, x) + "..";
				return;
			}
		}
		t.textContent = "";
	}

	// zoom
	function zoom_reset(e) {
		if (e.attributes != undefined) {
			orig_load(e, "x");
			orig_load(e, "width");
		}
		if (e.childNodes == undefined) return;
		for (var i = 0, c = e.childNodes; i < c.length; i++) {
			zoom_reset(c[i]);
		}
	}
	function zoom_child(e, x, ratio) {
		if (e.attributes != undefined) {
			if (e.attributes.x != undefined) {
				orig_save(e, "x");
				e.attributes.x.value = (parseFloat(e.attributes.x.value) - x - 10) * ratio + 10;
				if (e.tagName == "text")
					e.attributes.x.value = find_child(e.parentNode, "rect[x]").attributes.x.value + 3;
			}
			if (e.attributes.width != undefined) {
				orig_save(e, "width");
				e.attributes.width.value = parseFloat(e.attributes.width.value) * ratio;
			}
		}

		if (e.childNodes == undefined) return;
		for (var i = 0, c = e.childNodes; i < c.length; i++) {
			zoom_child(c[i], x - 10, ratio);
		}
	}
	function zoom_parent(e) {
		if (e.attributes) {
			if (e.attributes.x != undefined) {
				orig_save(e, "x");
				e.attributes.x.value = 10;
			}
			if (e.attributes.width != undefined) {
				orig_save(e, "width");
				e.attributes.width.value = parseInt(svg.width.baseVal.value) - (10 * 2);
			}
		}
		if (e.childNodes == undefined) return;
		for (var i = 0, c = e.childNodes; i < c.length; i++) {
			zoom_parent(c[i]);
		}
	}
	function zoom(node) {
		var attr = find_child(node, "rect").attributes;
		var width = parseFloat(attr.width.value);
		var xmin = parseFloat(attr.x.value);
		var xmax = parseFloat(xmin + width);
		var ymin = parseFloat(attr.y.value);
		var ratio = (svg.width.baseVal.value - 2 * 10) / width;

		// XXX: Workaround for JavaScript float issues (fix me)
		var fudge = 0.0001;

		unzoombtn.classList.remove("hide");

		var el = document.getElementById("frames").children;
		for (var i = 0; i < el.length; i++) {
			var e = el[i];
			var a = find_child(e, "rect").attributes;
			var ex = parseFloat(a.x.value);
			var ew = parseFloat(a.width.value);
			var upstack;
			// Is it an ancestor
			if (1 == 0) {
				upstack = parseFloat(a.y.value) > ymin;
			} else {
				upstack = parseFloat(a.y.value) < ymin;
			}
			if (upstack) {
				// Direct ancestor
				if (ex <= xmin && (ex+ew+fudge) >= xmax) {
					e.classList.add("parent");
					zoom_parent(e);
					update_text(e);
				}
				// not in current path
				else
					e.classList.add("hide");
			}
			// Children maybe
			else {
				// no common path
				if (ex < xmin || ex + fudge >= xmax) {
					e.classList.add("hide");
				}
				else {
					zoom_child(e, xmin, ratio);
					update_text(e);
				}
			}
		}
		search();
	}
	function unzoom() {
		unzoombtn.classList.add("hide");
		var el = document.getElementById("frames").children;
		for(var i = 0; i < el.length; i++) {
			el[i].classList.remove("parent");
			el[i].classList.remove("hide");
			zoom_reset(el[i]);
			update_text(el[i]);
		}
		search();
	}
	function clearzoom() {
		unzoom();

		// remove zoom state
		var params = get_params();
		if (params.x) delete params.x;
		if (params.y) delete params.y;
		history.replaceState(null, null, parse_params(params));
	}

	// search
	function toggle_ignorecase() {
		ignorecase = !ignorecase;
		if (ignorecase) {
			ignorecaseBtn.classList.add("show");
		} else {
			ignorecaseBtn.classList.remove("show");
		}
		reset_search();
		search();
	}
	function reset_search() {
		var el = document.querySelectorAll("#frames rect");
		for (var i = 0; i < el.length; i++) {
			orig_load(el[i], "fill")
		}
		var params = get_params();
		delete params.s;
		history.replaceState(null, null, parse_params(params));
	}
	function search_prompt() {
		if (!searching) {
			var term = prompt("Enter a search term (regexp " +
			    "allowed, eg: ^ext4_)"
			    + (ignorecase ? ", ignoring case" : "")
			    + "\nPress Ctrl-i to toggle case sensitivity", "");
			if (term != null) search(term);
		} else {
			reset_search();
			searching = 0;
			currentSearchTerm = null;
			searchbtn.classList.remove("show");
			searchbtn.firstChild.nodeValue = "Search"
			matchedtxt.classList.add("hide");
			matchedtxt.firstChild.nodeValue = ""
		}
	}
	function search(term) {
		if (term) currentSearchTerm = term;

		var re = new RegExp(currentSearchTerm, ignorecase ? 'i' : '');
		var el = document.getElementById("frames").children;
		var matches = new Object();
		var maxwidth = 0;
		for (var i = 0; i < el.length; i++) {
			var e = el[i];
			var func = g_to_func(e);
			var rect = find_child(e, "rect");
			if (func == null || rect == null)
				continue;

			// Save max width. Only works as we have a root frame
			var w = parseFloat(rect.attributes.width.value);
			if (w > maxwidth)
				maxwidth = w;

			if (func.match(re)) {
				// highlight
				var x = parseFloat(rect.attributes.x.value);
				orig_save(rect, "fill");
				rect.attributes.fill.value = "rgb(230,0,230)";

				// remember matches
				if (matches[x] == undefined) {
					matches[x] = w;
				} else {
					if (w > matches[x]) {
						// overwrite with parent
						matches[x] = w;
					}
				}
				searching = 1;
			}
		}
		if (!searching)
			return;
		var params = get_params();
		params.s = currentSearchTerm;
		history.replaceState(null, null, parse_params(params));

		searchbtn.classList.add("show");
		searchbtn.firstChild.nodeValue = "Reset Search";

		// calculate percent matched, excluding vertical overlap
		var count = 0;
		var lastx = -1;
		var lastw = 0;
		var keys = Array();
		for (k in matches) {
			if (matches.hasOwnProperty(k))
				keys.push(k);
		}
		// sort the matched frames by their x location
		// ascending, then width descending
		keys.sort(function(a, b){
			return a - b;
		});
		// Step through frames saving only the biggest bottom-up frames
		// thanks to the sort order. This relies on the tree property
		// where children are always smaller than their parents.
		var fudge = 0.0001;	// JavaScript floating point
		for (var k in keys) {
			var x = parseFloat(keys[k]);
			var w = matches[keys[k]];
			if (x >= lastx + lastw - fudge) {
				count += w;
				lastx = x;
				lastw = w;
			}
		}
		// display matched percent
		matchedtxt.classList.remove("hide");
		var pct = 100 * count / maxwidth;
		if (pct != 100) pct = pct.toFixed(1)
		matchedtxt.firstChild.nodeValue = "Matched: " + pct + "%";
	}
]]>
</script>
<rect x="0.0" y="0" width="1200.0" height="395.0" fill="url(#background)"  />
<text id="title" x="600.00" y="26" >Firedrake example</text>
<text id="details" x="10.00" y="377" > </text>
<text id="unzoom" x="10.00" y="26" class="hide">Reset Zoom</text>
<text id="search" x="1090.00" y="26" >Search</text>
<text id="ignorecase" x="1174.00" y="26" >ic</text>
<text id="matched" x="1090.00" y="377" > </text>
<g id="frames">
<g >
<title>Parloop_ExtFacets_wrap_form_exterior_facet_vert_integral_otherwise (1,846,714 us, 1.18%)</title><rect x="66.6" y="103" width="14.0" height="15.0" fill="rgb(0,0,0)" rx="2" ry="2" />
<text  x="69.59" y="113.5" ></text>
</g>
<g >
<title>ParLoopExecute (903,835 us, 0.58%)</title><rect x="18.5" y="103" width="6.9" height="15.0" fill="rgb(0,0,0)" rx="2" ry="2" />
<text  x="21.54" y="113.5" ></text>
</g>
<g >
<title>pyop2.global_kernel.GlobalKernel.compile (1,846,714 us, 1.18%)</title><rect x="66.6" y="119" width="14.0" height="15.0" fill="rgb(0,0,0)" rx="2" ry="2" />
<text  x="69.59" y="129.5" ></text>
</g>
<g >
<title>Parloop_Cells_wrap_form_cell_integral_otherwise (5,709,699 us, 3.66%)</title><rect x="394.0" y="135" width="43.2" height="15.0" fill="rgb(0,0,0)" rx="2" ry="2" />
<text  x="396.99" y="145.5" >Par..</text>
</g>
<g >
<title>pyop2.global_kernel.GlobalKernel.compile (16,768,842 us, 10.75%)</title><rect x="982.0" y="183" width="126.8" height="15.0" fill="rgb(0,0,0)" rx="2" ry="2" />
<text  x="985.03" y="193.5" >pyop2.global_k..</text>
</g>
<g >
<title>Parloop_Cells_wrap_par_loop_kernel (940,004 us, 0.60%)</title><rect x="754.2" y="199" width="7.1" height="15.0" fill="rgb(0,0,0)" rx="2" ry="2" />
<text  x="757.20" y="209.5" ></text>
</g>
<g >
<title>ParLoopExecute (12,839,892 us, 8.23%)</title><rect x="111.3" y="103" width="97.1" height="15.0" fill="rgb(0,0,0)" rx="2" ry="2" />
<text  x="114.27" y="113.5" >ParLoopExe..</text>
</g>
<g >
<title>Parloop_Cells_wrap_form00_cell_integral_otherwise (5,423,404 us, 3.48%)</title><rect x="924.0" y="183" width="41.0" height="15.0" fill="rgb(0,0,0)" rx="2" ry="2" />
<text  x="927.02" y="193.5" >Par..</text>
</g>
<g >
<title>pyop2.global_kernel.GlobalKernel.compile (1,284,122 us, 0.82%)</title><rect x="914.3" y="199" width="9.7" height="15.0" fill="rgb(0,0,0)" rx="2" ry="2" />
<text  x="917.31" y="209.5" ></text>
</g>
<g >
<title>pyop2.global_kernel.GlobalKernel.compile (1,608,238 us, 1.03%)</title><rect x="315.9" y="151" width="12.2" height="15.0" fill="rgb(0,0,0)" rx="2" ry="2" />
<text  x="318.91" y="161.5" ></text>
</g>
<g >
<title>firedrake.tsfc_interface.compile_form (2,622,693 us, 1.68%)</title><rect x="1108.8" y="151" width="19.9" height="15.0" fill="rgb(0,0,0)" rx="2" ry="2" />
<text  x="1111.84" y="161.5" ></text>
</g>
<g >
<title>firedrake.functionspacedata.get_shared_data (20,895 us, 0.01%)</title><rect x="25.4" y="103" width="0.1" height="15.0" fill="rgb(0,0,0)" rx="2" ry="2" />
<text  x="28.38" y="113.5" ></text>
</g>
<g >
<title>SNESFunctionEval (7,393,897 us, 4.74%)</title><rect x="1134.1" y="103" width="55.9" height="15.0" fill="rgb(0,0,0)" rx="2" ry="2" />
<text  x="1137.08" y="113.5" >SNESF..</text>
</g>
<g >
<title>ParLoopExecute (6,257,521 us, 4.01%)</title><rect x="1134.1" y="119" width="47.3" height="15.0" fill="rgb(0,0,0)" rx="2" ry="2" />
<text  x="1137.08" y="129.5" >ParL..</text>
</g>
<g >
<title>SCForwardElim (15,960,093 us, 10.23%)</title><rect x="754.2" y="135" width="120.7" height="15.0" fill="rgb(0,0,0)" rx="2" ry="2" />
<text  x="757.20" y="145.5" >SCForwardElim</text>
</g>
<g >
<title>firedrake.interpolation.make_interpolator (22,483 us, 0.01%)</title><rect x="965.0" y="167" width="0.2" height="15.0" fill="rgb(0,0,0)" rx="2" ry="2" />
<text  x="968.04" y="177.5" ></text>
</g>
<g >
<title>MatMult (1,391,784 us, 0.89%)</title><rect x="875.1" y="231" width="10.5" height="15.0" fill="rgb(0,0,0)" rx="2" ry="2" />
<text  x="878.09" y="241.5" ></text>
</g>
<g >
<title>ParLoopExecute (10,849,974 us, 6.95%)</title><rect x="515.5" y="151" width="82.1" height="15.0" fill="rgb(0,0,0)" rx="2" ry="2" />
<text  x="518.54" y="161.5" >ParLoopE..</text>
</g>
<g >
<title>ParLoopExecute (591,201 us, 0.38%)</title><rect x="888.5" y="279" width="4.5" height="15.0" fill="rgb(0,0,0)" rx="2" ry="2" />
<text  x="891.49" y="289.5" ></text>
</g>
<g >
<title>firedrake.extrusion_utils.make_extruded_coords (936,518 us, 0.60%)</title><rect x="18.3" y="87" width="7.1" height="15.0" fill="rgb(0,0,0)" rx="2" ry="2" />
<text  x="21.29" y="97.5" ></text>
</g>
<g >
<title>pyop2.global_kernel.GlobalKernel.compile (1,930,217 us, 1.24%)</title><rect x="176.1" y="135" width="14.6" height="15.0" fill="rgb(0,0,0)" rx="2" ry="2" />
<text  x="179.10" y="145.5" ></text>
</g>
<g >
<title>Parloop_IntFacets_wrap_form00_interior_facet_vert_integral_otherwise (2,206,330 us, 1.41%)</title><rect x="356.1" y="135" width="16.7" height="15.0" fill="rgb(0,0,0)" rx="2" ry="2" />
<text  x="359.12" y="145.5" ></text>
</g>
<g >
<title>firedrake.mg.interface.prolong (1,391,784 us, 0.89%)</title><rect x="875.1" y="263" width="10.5" height="15.0" fill="rgb(0,0,0)" rx="2" ry="2" />
<text  x="878.09" y="273.5" ></text>
</g>
<g >
<title>PCApply (5,210,856 us, 3.34%)</title><rect x="874.9" y="167" width="39.4" height="15.0" fill="rgb(0,0,0)" rx="2" ry="2" />
<text  x="877.90" y="177.5" >PCA..</text>
</g>
<g >
<title>firedrake.tsfc_interface.compile_form (1,136,376 us, 0.73%)</title><rect x="1181.4" y="119" width="8.6" height="15.0" fill="rgb(0,0,0)" rx="2" ry="2" />
<text  x="1184.41" y="129.5" ></text>
</g>
<g >
<title>ParLoopExecute (940,004 us, 0.60%)</title><rect x="754.2" y="183" width="7.1" height="15.0" fill="rgb(0,0,0)" rx="2" ry="2" />
<text  x="757.20" y="193.5" ></text>
</g>
<g >
<title>MatMultTranspose (1,191,509 us, 0.76%)</title><rect x="905.3" y="215" width="9.0" height="15.0" fill="rgb(0,0,0)" rx="2" ry="2" />
<text  x="908.30" y="225.5" ></text>
</g>
<g >
<title>pyop2.global_kernel.GlobalKernel.compile (2,338,127 us, 1.50%)</title><rect x="190.7" y="135" width="17.7" height="15.0" fill="rgb(0,0,0)" rx="2" ry="2" />
<text  x="193.70" y="145.5" ></text>
</g>
<g >
<title>pyop2.global_kernel.GlobalKernel.compile (3,676,521 us, 2.36%)</title><rect x="446.6" y="183" width="27.8" height="15.0" fill="rgb(0,0,0)" rx="2" ry="2" />
<text  x="449.60" y="193.5" >p..</text>
</g>
<g >
<title>KSPSolve (5,210,856 us, 3.34%)</title><rect x="874.9" y="151" width="39.4" height="15.0" fill="rgb(0,0,0)" rx="2" ry="2" />
<text  x="877.90" y="161.5" >KSP..</text>
</g>
<g >
<title>firedrake.assemble.assemble (9,795,655 us, 6.28%)</title><rect x="37.0" y="71" width="74.1" height="15.0" fill="rgb(0,0,0)" rx="2" ry="2" />
<text  x="40.05" y="81.5" >firedra..</text>
</g>
<g >
<title>firedrake.assemble_expressions.assemble_expression (773,293 us, 0.50%)</title><rect x="95.6" y="87" width="5.9" height="15.0" fill="rgb(0,0,0)" rx="2" ry="2" />
<text  x="98.63" y="97.5" ></text>
</g>
<g >
<title>ParLoopExecute (697,478 us, 0.45%)</title><rect x="1128.8" y="151" width="5.3" height="15.0" fill="rgb(0,0,0)" rx="2" ry="2" />
<text  x="1131.81" y="161.5" ></text>
</g>
<g >
<title>firedrake.pointquery_utils.to_reference_coordinates (476,405 us, 0.31%)</title><rect x="901.7" y="279" width="3.6" height="15.0" fill="rgb(0,0,0)" rx="2" ry="2" />
<text  x="904.70" y="289.5" ></text>
</g>
<g >
<title>DMCoarsen (2,584,711 us, 1.66%)</title><rect x="885.8" y="215" width="19.5" height="15.0" fill="rgb(0,0,0)" rx="2" ry="2" />
<text  x="888.75" y="225.5" ></text>
</g>
<g >
<title>Parloop_set_#x7f12a1b07490_wrap_pyop2_kernel_prolong (609,330 us, 0.39%)</title><rect x="877.3" y="295" width="4.6" height="15.0" fill="rgb(0,0,0)" rx="2" ry="2" />
<text  x="880.34" y="305.5" ></text>
</g>
<g >
<title>Parloop_Cells_wrap_form0_cell_integral_otherwise (3,343,261 us, 2.14%)</title><rect x="1134.1" y="135" width="25.3" height="15.0" fill="rgb(0,0,0)" rx="2" ry="2" />
<text  x="1137.08" y="145.5" >P..</text>
</g>
<g >
<title>Parloop_Cells_wrap_form00_interior_facet_horiz_integral_otherwise (1,668,623 us, 1.07%)</title><rect x="328.1" y="135" width="12.6" height="15.0" fill="rgb(0,0,0)" rx="2" ry="2" />
<text  x="331.07" y="145.5" ></text>
</g>
<g >
<title>Parloop_Cells_wrap_wrap_slate_loopy_knl_14 (10,849,974 us, 6.95%)</title><rect x="515.5" y="167" width="82.1" height="15.0" fill="rgb(0,0,0)" rx="2" ry="2" />
<text  x="518.54" y="177.5" >Parloop_..</text>
</g>
<g >
<title>pyop2.global_kernel.GlobalKernel.compile (891,610 us, 0.57%)</title><rect x="508.8" y="215" width="6.7" height="15.0" fill="rgb(0,0,0)" rx="2" ry="2" />
<text  x="511.80" y="225.5" ></text>
</g>
<g >
<title>Parloop_Cells_wrap_form0_interior_facet_horiz_integral_otherwise (1,512,550 us, 0.97%)</title><rect x="164.7" y="119" width="11.4" height="15.0" fill="rgb(0,0,0)" rx="2" ry="2" />
<text  x="167.66" y="129.5" ></text>
</g>
<g >
<title>Parloop_Cells_wrap_expression_kernel (1,119,390 us, 0.72%)</title><rect x="893.0" y="327" width="8.4" height="15.0" fill="rgb(0,0,0)" rx="2" ry="2" />
<text  x="895.96" y="337.5" ></text>
</g>
<g >
<title>PCSetUp (7,082,477 us, 4.54%)</title><rect x="914.3" y="151" width="53.6" height="15.0" fill="rgb(0,0,0)" rx="2" ry="2" />
<text  x="917.31" y="161.5" >PCSe..</text>
</g>
<g >
<title>pyop2.global_kernel.GlobalKernel.compile (1,119,390 us, 0.72%)</title><rect x="893.0" y="343" width="8.4" height="15.0" fill="rgb(0,0,0)" rx="2" ry="2" />
<text  x="895.96" y="353.5" ></text>
</g>
<g >
<title>pyop2.caching.disk_cached.&lt;locals&gt;.decorator.&lt;locals&gt;.wrapper (18,595 us, 0.01%)</title><rect x="101.3" y="119" width="0.2" height="15.0" fill="rgb(0,0,0)" rx="2" ry="2" />
<text  x="104.34" y="129.5" ></text>
</g>
<g >
<title>HybridInit (21,977,287 us, 14.09%)</title><rect x="967.9" y="119" width="166.2" height="15.0" fill="rgb(0,0,0)" rx="2" ry="2" />
<text  x="970.87" y="129.5" >HybridInit</text>
</g>
<g >
<title>firedrake.parloops.par_loop (940,004 us, 0.60%)</title><rect x="754.2" y="167" width="7.1" height="15.0" fill="rgb(0,0,0)" rx="2" ry="2" />
<text  x="757.20" y="177.5" ></text>
</g>
<g >
<title>firedrake.mg.interface.restrict (18,010 us, 0.01%)</title><rect x="885.6" y="247" width="0.2" height="15.0" fill="rgb(0,0,0)" rx="2" ry="2" />
<text  x="888.62" y="257.5" ></text>
</g>
<g >
<title>firedrake.functionspaceimpl.FunctionSpace.__init__ (20,895 us, 0.01%)</title><rect x="25.4" y="87" width="0.1" height="15.0" fill="rgb(0,0,0)" rx="2" ry="2" />
<text  x="28.38" y="97.5" ></text>
</g>
<g >
<title>ParLoopExecute (609,330 us, 0.39%)</title><rect x="877.3" y="279" width="4.6" height="15.0" fill="rgb(0,0,0)" rx="2" ry="2" />
<text  x="880.34" y="289.5" ></text>
</g>
<g >
<title>firedrake.tsfc_interface.compile_form (1,276,723 us, 0.82%)</title><rect x="101.5" y="87" width="9.6" height="15.0" fill="rgb(0,0,0)" rx="2" ry="2" />
<text  x="104.48" y="97.5" ></text>
</g>
<g >
<title>ParLoopExecute (7,745,639 us, 4.96%)</title><rect x="37.0" y="87" width="58.6" height="15.0" fill="rgb(0,0,0)" rx="2" ry="2" />
<text  x="40.05" y="97.5" >ParLo..</text>
</g>
<g >
<title>MatMult (6,971,372 us, 4.47%)</title><rect x="446.6" y="119" width="52.7" height="15.0" fill="rgb(0,0,0)" rx="2" ry="2" />
<text  x="449.60" y="129.5" >MatM..</text>
</g>
<g >
<title>pyop2.global_kernel.GlobalKernel.compile (2,039,304 us, 1.31%)</title><rect x="340.7" y="151" width="15.4" height="15.0" fill="rgb(0,0,0)" rx="2" ry="2" />
<text  x="343.69" y="161.5" ></text>
</g>
<g >
<title>ParLoopExecute (5,709,699 us, 3.66%)</title><rect x="394.0" y="119" width="43.2" height="15.0" fill="rgb(0,0,0)" rx="2" ry="2" />
<text  x="396.99" y="129.5" >Par..</text>
</g>
<g >
<title>firedrake.tsfc_interface.compile_form (1,827,959 us, 1.17%)</title><rect x="861.1" y="167" width="13.8" height="15.0" fill="rgb(0,0,0)" rx="2" ry="2" />
<text  x="864.08" y="177.5" ></text>
</g>
<g >
<title>pyop2.global_kernel.GlobalKernel.compile (591,201 us, 0.38%)</title><rect x="888.5" y="311" width="4.5" height="15.0" fill="rgb(0,0,0)" rx="2" ry="2" />
<text  x="891.49" y="321.5" ></text>
</g>
<g >
<title>pyop2.global_kernel.GlobalKernel.compile (3,343,261 us, 2.14%)</title><rect x="1134.1" y="151" width="25.3" height="15.0" fill="rgb(0,0,0)" rx="2" ry="2" />
<text  x="1137.08" y="161.5" >p..</text>
</g>
<g >
<title>pyop2.global_kernel.GlobalKernel.compile (1,411,737 us, 0.90%)</title><rect x="55.9" y="119" width="10.7" height="15.0" fill="rgb(0,0,0)" rx="2" ry="2" />
<text  x="58.91" y="129.5" ></text>
</g>
<g >
<title>pyop2.global_kernel.GlobalKernel.compile (386,450 us, 0.25%)</title><rect x="95.6" y="151" width="3.0" height="15.0" fill="rgb(0,0,0)" rx="2" ry="2" />
<text  x="98.63" y="161.5" ></text>
</g>
<g >
<title>Parloop_IntFacets_wrap_form0_interior_facet_vert_integral_otherwise (2,338,127 us, 1.50%)</title><rect x="190.7" y="119" width="17.7" height="15.0" fill="rgb(0,0,0)" rx="2" ry="2" />
<text  x="193.70" y="129.5" ></text>
</g>
<g >
<title>ParLoopExecute (16,768,842 us, 10.75%)</title><rect x="982.0" y="151" width="126.8" height="15.0" fill="rgb(0,0,0)" rx="2" ry="2" />
<text  x="985.03" y="161.5" >ParLoopExecute</text>
</g>
<g >
<title>SCSolve (12,293,333 us, 7.88%)</title><rect x="874.9" y="135" width="93.0" height="15.0" fill="rgb(0,0,0)" rx="2" ry="2" />
<text  x="877.90" y="145.5" >SCSolve</text>
</g>
<g >
<title>pyop2.global_kernel.GlobalKernel.compile (5,423,404 us, 3.48%)</title><rect x="924.0" y="199" width="41.0" height="15.0" fill="rgb(0,0,0)" rx="2" ry="2" />
<text  x="927.02" y="209.5" >pyo..</text>
</g>
<g >
<title>Parloop_Cells_wrap_par_loop_kernel (697,478 us, 0.45%)</title><rect x="1128.8" y="167" width="5.3" height="15.0" fill="rgb(0,0,0)" rx="2" ry="2" />
<text  x="1131.81" y="177.5" ></text>
</g>
<g >
<title>firedrake.function.Function.project (37,401,471 us, 23.97%)</title><rect x="111.1" y="71" width="282.9" height="15.0" fill="rgb(0,0,0)" rx="2" ry="2" />
<text  x="114.13" y="81.5" >firedrake.function.Function.project</text>
</g>
<g >
<title>PCSetUp (3,776,220 us, 2.42%)</title><rect x="885.8" y="199" width="28.5" height="15.0" fill="rgb(0,0,0)" rx="2" ry="2" />
<text  x="888.75" y="209.5" >P..</text>
</g>
<g >
<title>firedrake.tsfc_interface.compile_form (1,649,263 us, 1.06%)</title><rect x="741.7" y="151" width="12.5" height="15.0" fill="rgb(0,0,0)" rx="2" ry="2" />
<text  x="744.73" y="161.5" ></text>
</g>
<g >
<title>ParLoopExecute (21,741,228 us, 13.93%)</title><rect x="208.4" y="119" width="164.4" height="15.0" fill="rgb(0,0,0)" rx="2" ry="2" />
<text  x="211.38" y="129.5" >ParLoopExecute</text>
</g>
<g >
<title>PCSetUp (3,776,220 us, 2.42%)</title><rect x="885.8" y="183" width="28.5" height="15.0" fill="rgb(0,0,0)" rx="2" ry="2" />
<text  x="888.75" y="193.5" >P..</text>
</g>
<g >
<title>firedrake.assemble.assemble (23,253,245 us, 14.90%)</title><rect x="208.4" y="103" width="175.8" height="15.0" fill="rgb(0,0,0)" rx="2" ry="2" />
<text  x="211.38" y="113.5" >firedrake.assemble.a..</text>
</g>
<g >
<title>HybridBreak (940,004 us, 0.60%)</title><rect x="754.2" y="151" width="7.1" height="15.0" fill="rgb(0,0,0)" rx="2" ry="2" />
<text  x="757.20" y="161.5" ></text>
</g>
<g >
<title>Parloop_set_#x7f12a1b07490_wrap_pyop2_kernel_inject (591,201 us, 0.38%)</title><rect x="888.5" y="295" width="4.5" height="15.0" fill="rgb(0,0,0)" rx="2" ry="2" />
<text  x="891.49" y="305.5" ></text>
</g>
<g >
<title>Parloop_Cells_wrap_form0_cell_integral_otherwise (4,386,805 us, 2.81%)</title><rect x="111.3" y="119" width="33.1" height="15.0" fill="rgb(0,0,0)" rx="2" ry="2" />
<text  x="114.27" y="129.5" >Pa..</text>
</g>
<g >
<title>ParLoopExecute (754,698 us, 0.48%)</title><rect x="95.6" y="119" width="5.7" height="15.0" fill="rgb(0,0,0)" rx="2" ry="2" />
<text  x="98.63" y="129.5" ></text>
</g>
<g >
<title>ParLoopExecute (11,946,199 us, 7.66%)</title><rect x="770.7" y="167" width="90.4" height="15.0" fill="rgb(0,0,0)" rx="2" ry="2" />
<text  x="773.73" y="177.5" >ParLoopEx..</text>
</g>
<g >
<title>ParLoopExecute (14,647,632 us, 9.39%)</title><rect x="611.4" y="167" width="110.8" height="15.0" fill="rgb(0,0,0)" rx="2" ry="2" />
<text  x="614.44" y="177.5" >ParLoopExecute</text>
</g>
<g >
<title>HybridRHS (15,020,089 us, 9.63%)</title><rect x="761.3" y="151" width="113.6" height="15.0" fill="rgb(0,0,0)" rx="2" ry="2" />
<text  x="764.31" y="161.5" >HybridRHS</text>
</g>
<g >
<title>CreateExtMesh (936,518 us, 0.60%)</title><rect x="18.3" y="71" width="7.1" height="15.0" fill="rgb(0,0,0)" rx="2" ry="2" />
<text  x="21.29" y="81.5" ></text>
</g>
<g >
<title>firedrake.parloops.par_loop (891,610 us, 0.57%)</title><rect x="508.8" y="167" width="6.7" height="15.0" fill="rgb(0,0,0)" rx="2" ry="2" />
<text  x="511.80" y="177.5" ></text>
</g>
<g >
<title>pyop2.global_kernel.GlobalKernel.compile (4,386,805 us, 2.81%)</title><rect x="111.3" y="135" width="33.1" height="15.0" fill="rgb(0,0,0)" rx="2" ry="2" />
<text  x="114.27" y="145.5" >py..</text>
</g>
<g >
<title>firedrake.mg.interface.inject (2,566,972 us, 1.65%)</title><rect x="885.9" y="263" width="19.4" height="15.0" fill="rgb(0,0,0)" rx="2" ry="2" />
<text  x="888.89" y="273.5" ></text>
</g>
<g >
<title>pyop2.global_kernel.GlobalKernel.compile (2,914,260 us, 1.87%)</title><rect x="1159.4" y="151" width="22.0" height="15.0" fill="rgb(0,0,0)" rx="2" ry="2" />
<text  x="1162.37" y="161.5" ></text>
</g>
<g >
<title>ParLoopExecute (6,054,298 us, 3.88%)</title><rect x="446.6" y="151" width="45.8" height="15.0" fill="rgb(0,0,0)" rx="2" ry="2" />
<text  x="449.60" y="161.5" >Par..</text>
</g>
<g >
<title>firedrake.interpolation.Interpolator.interpolate (1,119,390 us, 0.72%)</title><rect x="893.0" y="295" width="8.4" height="15.0" fill="rgb(0,0,0)" rx="2" ry="2" />
<text  x="895.96" y="305.5" ></text>
</g>
<g >
<title>Parloop_set_#x7f12991ea9e0_wrap_expression_kernel (368,248 us, 0.24%)</title><rect x="98.6" y="135" width="2.7" height="15.0" fill="rgb(0,0,0)" rx="2" ry="2" />
<text  x="101.55" y="145.5" ></text>
</g>
<g >
<title>SNESSolve (98,297,933 us, 63.00%)</title><rect x="446.6" y="87" width="743.4" height="15.0" fill="rgb(0,0,0)" rx="2" ry="2" />
<text  x="449.60" y="97.5" >SNESSolve</text>
</g>
<g >
<title>ParLoopExecute (6,707,526 us, 4.30%)</title><rect x="914.3" y="167" width="50.7" height="15.0" fill="rgb(0,0,0)" rx="2" ry="2" />
<text  x="917.31" y="177.5" >ParL..</text>
</g>
<g >
<title>PCApply (61,955,377 us, 39.71%)</title><rect x="499.3" y="119" width="468.6" height="15.0" fill="rgb(0,0,0)" rx="2" ry="2" />
<text  x="502.32" y="129.5" >PCApply</text>
</g>
<g >
<title>firedrake (156,027,811 us, 100.00%)</title><rect x="10.0" y="55" width="1180.0" height="15.0" fill="rgb(0,0,0)" rx="2" ry="2" />
<text  x="13.00" y="65.5" >firedrake</text>
</g>
<g >
<title>pyop2.global_kernel.GlobalKernel.compile (903,835 us, 0.58%)</title><rect x="18.5" y="135" width="6.9" height="15.0" fill="rgb(0,0,0)" rx="2" ry="2" />
<text  x="21.54" y="145.5" ></text>
</g>
<g >
<title>firedrake.tsfc_interface.compile_form (352,468 us, 0.23%)</title><rect x="965.2" y="167" width="2.7" height="15.0" fill="rgb(0,0,0)" rx="2" ry="2" />
<text  x="968.21" y="177.5" ></text>
</g>
<g >
<title>firedrake.tsfc_interface.compile_form (917,074 us, 0.59%)</title><rect x="492.4" y="151" width="6.9" height="15.0" fill="rgb(0,0,0)" rx="2" ry="2" />
<text  x="495.38" y="161.5" ></text>
</g>
<g >
<title>Parloop_Cells_wrap_wrap_slate_loopy_knl_4 (11,946,199 us, 7.66%)</title><rect x="770.7" y="183" width="90.4" height="15.0" fill="rgb(0,0,0)" rx="2" ry="2" />
<text  x="773.73" y="193.5" >Parloop_C..</text>
</g>
<g >
<title>all (156,027,811 us, 100%)</title><rect x="10.0" y="39" width="1180.0" height="15.0" fill="rgb(0,0,0)" rx="2" ry="2" />
<text  x="13.00" y="49.5" ></text>
</g>
<g >
<title>Parloop_Cells_wrap_form_interior_facet_horiz_integral_otherwise (1,411,737 us, 0.90%)</title><rect x="55.9" y="103" width="10.7" height="15.0" fill="rgb(0,0,0)" rx="2" ry="2" />
<text  x="58.91" y="113.5" ></text>
</g>
<g >
<title>pyop2.global_kernel.GlobalKernel.compile (940,004 us, 0.60%)</title><rect x="754.2" y="215" width="7.1" height="15.0" fill="rgb(0,0,0)" rx="2" ry="2" />
<text  x="757.20" y="225.5" ></text>
</g>
<g >
<title>Parloop_Cells_wrap_pyop2_kernel_uniform_extrusion (903,835 us, 0.58%)</title><rect x="18.5" y="119" width="6.9" height="15.0" fill="rgb(0,0,0)" rx="2" ry="2" />
<text  x="21.54" y="129.5" ></text>
</g>
<g >
<title>pyop2.global_kernel.GlobalKernel.compile (2,206,330 us, 1.41%)</title><rect x="356.1" y="151" width="16.7" height="15.0" fill="rgb(0,0,0)" rx="2" ry="2" />
<text  x="359.12" y="161.5" ></text>
</g>
<g >
<title>Parloop_Cells_wrap_form_exterior_facet_bottom_integral_otherwise (1,282,258 us, 0.82%)</title><rect x="37.0" y="103" width="9.7" height="15.0" fill="rgb(0,0,0)" rx="2" ry="2" />
<text  x="40.05" y="113.5" ></text>
</g>
<g >
<title>pyop2.global_kernel.GlobalKernel.compile (1,576,760 us, 1.01%)</title><rect x="304.0" y="151" width="11.9" height="15.0" fill="rgb(0,0,0)" rx="2" ry="2" />
<text  x="306.99" y="161.5" ></text>
</g>
<g >
<title>pyop2.global_kernel.GlobalKernel.compile (12,641,973 us, 8.10%)</title><rect x="208.4" y="151" width="95.6" height="15.0" fill="rgb(0,0,0)" rx="2" ry="2" />
<text  x="211.38" y="161.5" >pyop2.glob..</text>
</g>
<g >
<title>pyop2.global_kernel.GlobalKernel.compile (695,478 us, 0.45%)</title><rect x="905.5" y="279" width="5.2" height="15.0" fill="rgb(0,0,0)" rx="2" ry="2" />
<text  x="908.47" y="289.5" ></text>
</g>
<g >
<title>firedrake.tsfc_interface.compile_form (1,512,017 us, 0.97%)</title><rect x="372.8" y="119" width="11.4" height="15.0" fill="rgb(0,0,0)" rx="2" ry="2" />
<text  x="375.80" y="129.5" ></text>
</g>
<g >
<title>firedrake.interpolation.interpolate (1,155,287 us, 0.74%)</title><rect x="893.0" y="279" width="8.7" height="15.0" fill="rgb(0,0,0)" rx="2" ry="2" />
<text  x="895.96" y="289.5" ></text>
</g>
<g >
<title>firedrake.projection.project (37,401,471 us, 23.97%)</title><rect x="111.1" y="87" width="282.9" height="15.0" fill="rgb(0,0,0)" rx="2" ry="2" />
<text  x="114.13" y="97.5" >firedrake.projection.project</text>
</g>
<g >
<title>PCSetUp (21,977,287 us, 14.09%)</title><rect x="967.9" y="103" width="166.2" height="15.0" fill="rgb(0,0,0)" rx="2" ry="2" />
<text  x="970.87" y="113.5" >PCSetUp</text>
</g>
<g >
<title>firedrake.pointquery_utils.to_reference_coordinates (484,772 us, 0.31%)</title><rect x="881.9" y="279" width="3.7" height="15.0" fill="rgb(0,0,0)" rx="2" ry="2" />
<text  x="884.95" y="289.5" ></text>
</g>
<g >
<title>pyop2.global_kernel.GlobalKernel.compile (2,377,777 us, 1.52%)</title><rect x="474.4" y="183" width="18.0" height="15.0" fill="rgb(0,0,0)" rx="2" ry="2" />
<text  x="477.40" y="193.5" ></text>
</g>
<g >
<title>pyop2.global_kernel.GlobalKernel.compile (14,647,632 us, 9.39%)</title><rect x="611.4" y="199" width="110.8" height="15.0" fill="rgb(0,0,0)" rx="2" ry="2" />
<text  x="614.44" y="209.5" >pyop2.global..</text>
</g>
<g >
<title>firedrake.pointquery_utils.to_reference_coordinates (473,860 us, 0.30%)</title><rect x="910.7" y="247" width="3.6" height="15.0" fill="rgb(0,0,0)" rx="2" ry="2" />
<text  x="913.73" y="257.5" ></text>
</g>
<g >
<title>firedrake.mg.embedded.TransferManager.op (2,566,972 us, 1.65%)</title><rect x="885.9" y="247" width="19.4" height="15.0" fill="rgb(0,0,0)" rx="2" ry="2" />
<text  x="888.89" y="257.5" ></text>
</g>
<g >
<title>pyop2.global_kernel.GlobalKernel.compile (1,512,550 us, 0.97%)</title><rect x="164.7" y="135" width="11.4" height="15.0" fill="rgb(0,0,0)" rx="2" ry="2" />
<text  x="167.66" y="145.5" ></text>
</g>
<g >
<title>pyop2.global_kernel.GlobalKernel.compile (11,946,199 us, 7.66%)</title><rect x="770.7" y="199" width="90.4" height="15.0" fill="rgb(0,0,0)" rx="2" ry="2" />
<text  x="773.73" y="209.5" >pyop2.glo..</text>
</g>
<g >
<title>firedrake.parloops.par_loop (697,478 us, 0.45%)</title><rect x="1128.8" y="135" width="5.3" height="15.0" fill="rgb(0,0,0)" rx="2" ry="2" />
<text  x="1131.81" y="145.5" ></text>
</g>
<g >
<title>firedrake.assemble_expressions.evaluate_expression (773,293 us, 0.50%)</title><rect x="95.6" y="103" width="5.9" height="15.0" fill="rgb(0,0,0)" rx="2" ry="2" />
<text  x="98.63" y="113.5" ></text>
</g>
<g >
<title>Parloop_Cells_wrap_par_loop_kernel (891,610 us, 0.57%)</title><rect x="508.8" y="199" width="6.7" height="15.0" fill="rgb(0,0,0)" rx="2" ry="2" />
<text  x="511.80" y="209.5" ></text>
</g>
<g >
<title>firedrake.tsfc_interface.compile_form (1,226,837 us, 0.79%)</title><rect x="437.2" y="119" width="9.2" height="15.0" fill="rgb(0,0,0)" rx="2" ry="2" />
<text  x="440.17" y="129.5" ></text>
</g>
<g >
<title>pyop2.global_kernel.GlobalKernel.compile (1,993,027 us, 1.28%)</title><rect x="80.6" y="119" width="15.0" height="15.0" fill="rgb(0,0,0)" rx="2" ry="2" />
<text  x="83.56" y="129.5" ></text>
</g>
<g >
<title>KSPSolve (1,434,636 us, 0.92%)</title><rect x="874.9" y="199" width="10.9" height="15.0" fill="rgb(0,0,0)" rx="2" ry="2" />
<text  x="877.90" y="209.5" ></text>
</g>
<g >
<title>MatMultTranspose (18,010 us, 0.01%)</title><rect x="885.6" y="231" width="0.2" height="15.0" fill="rgb(0,0,0)" rx="2" ry="2" />
<text  x="888.62" y="241.5" ></text>
</g>
<g >
<title>pyop2.global_kernel.GlobalKernel.compile (1,323,779 us, 0.85%)</title><rect x="144.4" y="135" width="10.1" height="15.0" fill="rgb(0,0,0)" rx="2" ry="2" />
<text  x="147.45" y="145.5" ></text>
</g>
<g >
<title>Parloop_set_#x7f1299141cf0_wrap_pyop2_kernel_restrict (695,478 us, 0.45%)</title><rect x="905.5" y="263" width="5.2" height="15.0" fill="rgb(0,0,0)" rx="2" ry="2" />
<text  x="908.47" y="273.5" ></text>
</g>
<g >
<title>pyop2.global_kernel.GlobalKernel.compile (368,248 us, 0.24%)</title><rect x="98.6" y="151" width="2.7" height="15.0" fill="rgb(0,0,0)" rx="2" ry="2" />
<text  x="101.55" y="161.5" ></text>
</g>
<g >
<title>firedrake.matrix_free.operators.ImplicitMatrixContext.mult (6,971,372 us, 4.47%)</title><rect x="446.6" y="135" width="52.7" height="15.0" fill="rgb(0,0,0)" rx="2" ry="2" />
<text  x="449.60" y="145.5" >fire..</text>
</g>
<g >
<title>ParLoopExecute (1,119,390 us, 0.72%)</title><rect x="893.0" y="311" width="8.4" height="15.0" fill="rgb(0,0,0)" rx="2" ry="2" />
<text  x="895.96" y="321.5" ></text>
</g>
<g >
<title>pyop2.global_kernel.GlobalKernel.compile (10,849,974 us, 6.95%)</title><rect x="515.5" y="183" width="82.1" height="15.0" fill="rgb(0,0,0)" rx="2" ry="2" />
<text  x="518.54" y="193.5" >pyop2.gl..</text>
</g>
<g >
<title>PCApply (1,434,636 us, 0.92%)</title><rect x="874.9" y="183" width="10.9" height="15.0" fill="rgb(0,0,0)" rx="2" ry="2" />
<text  x="877.90" y="193.5" ></text>
</g>
<g >
<title>firedrake.norms.norm (6,936,536 us, 4.45%)</title><rect x="394.0" y="87" width="52.4" height="15.0" fill="rgb(0,0,0)" rx="2" ry="2" />
<text  x="396.99" y="97.5" >fire..</text>
</g>
<g >
<title>firedrake.mg.interface.restrict (1,191,509 us, 0.76%)</title><rect x="905.3" y="231" width="9.0" height="15.0" fill="rgb(0,0,0)" rx="2" ry="2" />
<text  x="908.30" y="241.5" ></text>
</g>
<g >
<title>Parloop_Cells_wrap_form1_cell_integral_otherwise (2,377,777 us, 1.52%)</title><rect x="474.4" y="167" width="18.0" height="15.0" fill="rgb(0,0,0)" rx="2" ry="2" />
<text  x="477.40" y="177.5" ></text>
</g>
<g >
<title>pyop2.global_kernel.GlobalKernel.compile (1,348,414 us, 0.86%)</title><rect x="154.5" y="135" width="10.2" height="15.0" fill="rgb(0,0,0)" rx="2" ry="2" />
<text  x="157.46" y="145.5" ></text>
</g>
<g >
<title>Parloop_Cells_wrap_form1_cell_integral_otherwise (2,914,260 us, 1.87%)</title><rect x="1159.4" y="135" width="22.0" height="15.0" fill="rgb(0,0,0)" rx="2" ry="2" />
<text  x="1162.37" y="145.5" ></text>
</g>
<g >
<title>Parloop_Cells_wrap_wrap_slate_loopy_knl_7 (14,647,632 us, 9.39%)</title><rect x="611.4" y="183" width="110.8" height="15.0" fill="rgb(0,0,0)" rx="2" ry="2" />
<text  x="614.44" y="193.5" >Parloop_Cell..</text>
</g>
<g >
<title>firedrake.tsfc_interface.compile_form (1,289,629 us, 0.83%)</title><rect x="384.2" y="103" width="9.8" height="15.0" fill="rgb(0,0,0)" rx="2" ry="2" />
<text  x="387.24" y="113.5" ></text>
</g>
<g >
<title>firedrake.assemble.assemble (6,936,536 us, 4.45%)</title><rect x="394.0" y="103" width="52.4" height="15.0" fill="rgb(0,0,0)" rx="2" ry="2" />
<text  x="396.99" y="113.5" >fire..</text>
</g>
<g >
<title>firedrake.dmhooks.coarsen (2,584,711 us, 1.66%)</title><rect x="885.8" y="231" width="19.5" height="15.0" fill="rgb(0,0,0)" rx="2" ry="2" />
<text  x="888.75" y="241.5" ></text>
</g>
<g >
<title>Parloop_ExtFacets_wrap_form0_exterior_facet_vert_integral_otherwise (1,930,217 us, 1.24%)</title><rect x="176.1" y="119" width="14.6" height="15.0" fill="rgb(0,0,0)" rx="2" ry="2" />
<text  x="179.10" y="129.5" ></text>
</g>
<g >
<title>CreateFunctionSpace (20,895 us, 0.01%)</title><rect x="25.4" y="71" width="0.1" height="15.0" fill="rgb(0,0,0)" rx="2" ry="2" />
<text  x="28.38" y="81.5" ></text>
</g>
<g >
<title>ParLoopExecute (695,478 us, 0.45%)</title><rect x="905.5" y="247" width="5.2" height="15.0" fill="rgb(0,0,0)" rx="2" ry="2" />
<text  x="908.47" y="257.5" ></text>
</g>
<g >
<title>KSPSolve (68,926,749 us, 44.18%)</title><rect x="446.6" y="103" width="521.3" height="15.0" fill="rgb(0,0,0)" rx="2" ry="2" />
<text  x="449.60" y="113.5" >KSPSolve</text>
</g>
<g >
<title>firedrake.formmanipulation.split_form (16,958 us, 0.01%)</title><rect x="1128.7" y="135" width="0.1" height="15.0" fill="rgb(0,0,0)" rx="2" ry="2" />
<text  x="1131.68" y="145.5" ></text>
</g>
<g >
<title>pyop2.global_kernel.GlobalKernel.compile (1,668,623 us, 1.07%)</title><rect x="328.1" y="151" width="12.6" height="15.0" fill="rgb(0,0,0)" rx="2" ry="2" />
<text  x="331.07" y="161.5" ></text>
</g>
<g >
<title>Parloop_set_#x7f1299196c50_wrap_expression_kernel (386,450 us, 0.25%)</title><rect x="95.6" y="135" width="3.0" height="15.0" fill="rgb(0,0,0)" rx="2" ry="2" />
<text  x="98.63" y="145.5" ></text>
</g>
<g >
<title>pyop2.global_kernel.GlobalKernel.compile (1,211,903 us, 0.78%)</title><rect x="46.7" y="119" width="9.2" height="15.0" fill="rgb(0,0,0)" rx="2" ry="2" />
<text  x="49.75" y="129.5" ></text>
</g>
<g >
<title>Parloop_Cells_wrap_form00_exterior_facet_top_integral_otherwise (1,608,238 us, 1.03%)</title><rect x="315.9" y="135" width="12.2" height="15.0" fill="rgb(0,0,0)" rx="2" ry="2" />
<text  x="318.91" y="145.5" ></text>
</g>
<g >
<title>Parloop_Cells_wrap_expression_kernel (1,284,122 us, 0.82%)</title><rect x="914.3" y="183" width="9.7" height="15.0" fill="rgb(0,0,0)" rx="2" ry="2" />
<text  x="917.31" y="193.5" ></text>
</g>
<g >
<title>HybridProject (891,610 us, 0.57%)</title><rect x="508.8" y="151" width="6.7" height="15.0" fill="rgb(0,0,0)" rx="2" ry="2" />
<text  x="511.80" y="161.5" ></text>
</g>
<g >
<title>RecoverFirstElim (19,057,528 us, 12.21%)</title><rect x="597.6" y="151" width="144.1" height="15.0" fill="rgb(0,0,0)" rx="2" ry="2" />
<text  x="600.60" y="161.5" >RecoverFirstElim</text>
</g>
<g >
<title>pyop2.global_kernel.GlobalKernel.compile (609,330 us, 0.39%)</title><rect x="877.3" y="311" width="4.6" height="15.0" fill="rgb(0,0,0)" rx="2" ry="2" />
<text  x="880.34" y="321.5" ></text>
</g>
<g >
<title>firedrake.mg.embedded.TransferManager.op (1,391,784 us, 0.89%)</title><rect x="875.1" y="247" width="10.5" height="15.0" fill="rgb(0,0,0)" rx="2" ry="2" />
<text  x="878.09" y="257.5" ></text>
</g>
<g >
<title>firedrake.__init__ (1,522,724 us, 0.98%)</title><rect x="25.5" y="71" width="11.5" height="15.0" fill="rgb(0,0,0)" rx="2" ry="2" />
<text  x="28.53" y="81.5" ></text>
</g>
<g >
<title>firedrake.interpolation.make_interpolator (35,897 us, 0.02%)</title><rect x="901.4" y="295" width="0.3" height="15.0" fill="rgb(0,0,0)" rx="2" ry="2" />
<text  x="904.42" y="305.5" ></text>
</g>
<g >
<title>firedrake.functionspacedata.FunctionSpaceData.__init__ (20,895 us, 0.01%)</title><rect x="25.4" y="119" width="0.1" height="15.0" fill="rgb(0,0,0)" rx="2" ry="2" />
<text  x="28.38" y="129.5" ></text>
</g>
<g >
<title>Parloop_Cells_wrap_form00_exterior_facet_bottom_integral_otherwise (1,576,760 us, 1.01%)</title><rect x="304.0" y="135" width="11.9" height="15.0" fill="rgb(0,0,0)" rx="2" ry="2" />
<text  x="306.99" y="145.5" ></text>
</g>
<g >
<title>Parloop_IntFacets_wrap_form_interior_facet_vert_integral_otherwise (1,993,027 us, 1.28%)</title><rect x="80.6" y="103" width="15.0" height="15.0" fill="rgb(0,0,0)" rx="2" ry="2" />
<text  x="83.56" y="113.5" ></text>
</g>
<g >
<title>Parloop_Cells_wrap_wrap_slate_loopy_knl_0 (16,768,842 us, 10.75%)</title><rect x="982.0" y="167" width="126.8" height="15.0" fill="rgb(0,0,0)" rx="2" ry="2" />
<text  x="985.03" y="177.5" >Parloop_Cells_..</text>
</g>
<g >
<title>HybridOperatorAssembly (21,211,353 us, 13.59%)</title><rect x="968.3" y="135" width="160.4" height="15.0" fill="rgb(0,0,0)" rx="2" ry="2" />
<text  x="971.26" y="145.5" >HybridOperatorAsse..</text>
</g>
<g >
<title>Parloop_Cells_wrap_form0_exterior_facet_top_integral_otherwise (1,348,414 us, 0.86%)</title><rect x="154.5" y="119" width="10.2" height="15.0" fill="rgb(0,0,0)" rx="2" ry="2" />
<text  x="157.46" y="129.5" ></text>
</g>
<g >
<title>firedrake.variational_solver.LinearVariationalProblem.__init__ (19,510 us, 0.01%)</title><rect x="446.4" y="71" width="0.2" height="15.0" fill="rgb(0,0,0)" rx="2" ry="2" />
<text  x="449.45" y="81.5" ></text>
</g>
<g >
<title>Parloop_Cells_wrap_form0_exterior_facet_bottom_integral_otherwise (1,323,779 us, 0.85%)</title><rect x="144.4" y="119" width="10.1" height="15.0" fill="rgb(0,0,0)" rx="2" ry="2" />
<text  x="147.45" y="129.5" ></text>
</g>
<g >
<title>firedrake.variational_solver.NonlinearVariationalSolver.solve (98,297,933 us, 63.00%)</title><rect x="446.6" y="71" width="743.4" height="15.0" fill="rgb(0,0,0)" rx="2" ry="2" />
<text  x="449.60" y="81.5" >firedrake.variational_solver.NonlinearVariationalSolver.solve</text>
</g>
<g >
<title>Parloop_ExtFacets_wrap_form00_exterior_facet_vert_integral_otherwise (2,039,304 us, 1.31%)</title><rect x="340.7" y="135" width="15.4" height="15.0" fill="rgb(0,0,0)" rx="2" ry="2" />
<text  x="343.69" y="145.5" ></text>
</g>
<g >
<title>Parloop_Cells_wrap_form00_cell_integral_otherwise (12,641,973 us, 8.10%)</title><rect x="208.4" y="135" width="95.6" height="15.0" fill="rgb(0,0,0)" rx="2" ry="2" />
<text  x="211.38" y="145.5" >Parloop_Ce..</text>
</g>
<g >
<title>SCBackSub (33,701,951 us, 21.60%)</title><rect x="499.3" y="135" width="254.9" height="15.0" fill="rgb(0,0,0)" rx="2" ry="2" />
<text  x="502.32" y="145.5" >SCBackSub</text>
</g>
<g >
<title>firedrake.tsfc_interface.compile_form (2,579,821 us, 1.65%)</title><rect x="722.2" y="167" width="19.5" height="15.0" fill="rgb(0,0,0)" rx="2" ry="2" />
<text  x="725.22" y="177.5" ></text>
</g>
<g >
<title>firedrake.norms.errornorm (6,936,536 us, 4.45%)</title><rect x="394.0" y="71" width="52.4" height="15.0" fill="rgb(0,0,0)" rx="2" ry="2" />
<text  x="396.99" y="81.5" >fire..</text>
</g>
<g >
<title>PCApply (1,434,636 us, 0.92%)</title><rect x="874.9" y="215" width="10.9" height="15.0" fill="rgb(0,0,0)" rx="2" ry="2" />
<text  x="877.90" y="225.5" ></text>
</g>
<g >
<title>Parloop_Cells_wrap_form0_cell_integral_otherwise (3,676,521 us, 2.36%)</title><rect x="446.6" y="167" width="27.8" height="15.0" fill="rgb(0,0,0)" rx="2" ry="2" />
<text  x="449.60" y="177.5" >P..</text>
</g>
<g >
<title>pyop2.global_kernel.GlobalKernel.compile (1,282,258 us, 0.82%)</title><rect x="37.0" y="119" width="9.7" height="15.0" fill="rgb(0,0,0)" rx="2" ry="2" />
<text  x="40.05" y="129.5" ></text>
</g>
<g >
<title>pyop2.global_kernel.GlobalKernel.compile (697,478 us, 0.45%)</title><rect x="1128.8" y="183" width="5.3" height="15.0" fill="rgb(0,0,0)" rx="2" ry="2" />
<text  x="1131.81" y="193.5" ></text>
</g>
<g >
<title>pyop2.global_kernel.GlobalKernel.compile (5,709,699 us, 3.66%)</title><rect x="394.0" y="151" width="43.2" height="15.0" fill="rgb(0,0,0)" rx="2" ry="2" />
<text  x="396.99" y="161.5" >pyo..</text>
</g>
<g >
<title>ParLoopExecute (891,610 us, 0.57%)</title><rect x="508.8" y="183" width="6.7" height="15.0" fill="rgb(0,0,0)" rx="2" ry="2" />
<text  x="511.80" y="193.5" ></text>
</g>
<g >
<title>Parloop_Cells_wrap_form_exterior_facet_top_integral_otherwise (1,211,903 us, 0.78%)</title><rect x="46.7" y="103" width="9.2" height="15.0" fill="rgb(0,0,0)" rx="2" ry="2" />
<text  x="49.75" y="113.5" ></text>
</g>
</g>
</svg>
