<?xml version="1.0" standalone="no"?>
<!DOCTYPE svg PUBLIC "-//W3C//DTD SVG 1.1//EN" "http://www.w3.org/Graphics/SVG/1.1/DTD/svg11.dtd">
<svg version="1.1" width="1200" height="427" onload="init(evt)" viewBox="0 0 1200 427" xmlns="http://www.w3.org/2000/svg" xmlns:xlink="http://www.w3.org/1999/xlink">
<!-- Flame graph stack visualization. See https://github.com/brendangregg/FlameGraph for latest version, and http://www.brendangregg.com/flamegraphs.html for examples. -->
<!-- NOTES:  -->
<defs>
	<linearGradient id="background" y1="0" y2="1" x1="0" x2="0" >
		<stop stop-color="#eeeeee" offset="5%" />
		<stop stop-color="#eeeeb0" offset="95%" />
	</linearGradient>
</defs>
<style type="text/css">
	text { font-family:Verdana; font-size:13px; fill:rgb(0,0,0); }
	#search, #ignorecase { opacity:0.1; cursor:pointer; }
	#search:hover, #search.show, #ignorecase:hover, #ignorecase.show { opacity:1; }
	#subtitle { text-anchor:middle; font-color:rgb(160,160,160); }
	#title { text-anchor:middle; font-size:18px}
	#unzoom { cursor:pointer; }
	#frames > *:hover { stroke:black; stroke-width:0.5; cursor:pointer; }
	.hide { display:none; }
	.parent { opacity:0.5; }
</style>
<script type="text/ecmascript">
<![CDATA[
	"use strict";
	var details, searchbtn, unzoombtn, matchedtxt, svg, searching, currentSearchTerm, ignorecase, ignorecaseBtn;
	function init(evt) {
		details = document.getElementById("details").firstChild;
		searchbtn = document.getElementById("search");
		ignorecaseBtn = document.getElementById("ignorecase");
		unzoombtn = document.getElementById("unzoom");
		matchedtxt = document.getElementById("matched");
		svg = document.getElementsByTagName("svg")[0];
		searching = 0;
		currentSearchTerm = null;

		// use GET parameters to restore a flamegraphs state.
		var params = get_params();
		if (params.x && params.y)
			zoom(find_group(document.querySelector('[x="' + params.x + '"][y="' + params.y + '"]')));
                if (params.s) search(params.s);
	}

	// event listeners
	window.addEventListener("click", function(e) {
		var target = find_group(e.target);
		if (target) {
			if (target.nodeName == "a") {
				if (e.ctrlKey === false) return;
				e.preventDefault();
			}
			if (target.classList.contains("parent")) unzoom();
			zoom(target);
			if (!document.querySelector('.parent')) {
				clearzoom();
				return;
			}

			// set parameters for zoom state
			var el = target.querySelector("rect");
			if (el && el.attributes && el.attributes.y && el.attributes._orig_x) {
				var params = get_params()
				params.x = el.attributes._orig_x.value;
				params.y = el.attributes.y.value;
				history.replaceState(null, null, parse_params(params));
			}
		}
		else if (e.target.id == "unzoom") clearzoom();
		else if (e.target.id == "search") search_prompt();
		else if (e.target.id == "ignorecase") toggle_ignorecase();
	}, false)

	// mouse-over for info
	// show
	window.addEventListener("mouseover", function(e) {
		var target = find_group(e.target);
		if (target) details.nodeValue = "Function: " + g_to_text(target);
	}, false)

	// clear
	window.addEventListener("mouseout", function(e) {
		var target = find_group(e.target);
		if (target) details.nodeValue = ' ';
	}, false)

	// ctrl-F for search
	// ctrl-I to toggle case-sensitive search
	window.addEventListener("keydown",function (e) {
		if (e.keyCode === 114 || (e.ctrlKey && e.keyCode === 70)) {
			e.preventDefault();
			search_prompt();
		}
		else if (e.ctrlKey && e.keyCode === 73) {
			e.preventDefault();
			toggle_ignorecase();
		}
	}, false)

	// functions
	function get_params() {
		var params = {};
		var paramsarr = window.location.search.substr(1).split('&');
		for (var i = 0; i < paramsarr.length; ++i) {
			var tmp = paramsarr[i].split("=");
			if (!tmp[0] || !tmp[1]) continue;
			params[tmp[0]]  = decodeURIComponent(tmp[1]);
		}
		return params;
	}
	function parse_params(params) {
		var uri = "?";
		for (var key in params) {
			uri += key + '=' + encodeURIComponent(params[key]) + '&';
		}
		if (uri.slice(-1) == "&")
			uri = uri.substring(0, uri.length - 1);
		if (uri == '?')
			uri = window.location.href.split('?')[0];
		return uri;
	}
	function find_child(node, selector) {
		var children = node.querySelectorAll(selector);
		if (children.length) return children[0];
	}
	function find_group(node) {
		var parent = node.parentElement;
		if (!parent) return;
		if (parent.id == "frames") return node;
		return find_group(parent);
	}
	function orig_save(e, attr, val) {
		if (e.attributes["_orig_" + attr] != undefined) return;
		if (e.attributes[attr] == undefined) return;
		if (val == undefined) val = e.attributes[attr].value;
		e.setAttribute("_orig_" + attr, val);
	}
	function orig_load(e, attr) {
		if (e.attributes["_orig_"+attr] == undefined) return;
		e.attributes[attr].value = e.attributes["_orig_" + attr].value;
		e.removeAttribute("_orig_"+attr);
	}
	function g_to_text(e) {
		var text = find_child(e, "title").firstChild.nodeValue;
		return (text)
	}
	function g_to_func(e) {
		var func = g_to_text(e);
		// if there's any manipulation we want to do to the function
		// name before it's searched, do it here before returning.
		return (func);
	}
	function update_text(e) {
		var r = find_child(e, "rect");
		var t = find_child(e, "text");
		var w = parseFloat(r.attributes.width.value) -3;
		var txt = find_child(e, "title").textContent.replace(/\([^(]*\)$/,"");
		t.attributes.x.value = parseFloat(r.attributes.x.value) + 3;

		// Smaller than this size won't fit anything
		if (w < 2 * 13 * 0.59) {
			t.textContent = "";
			return;
		}

		t.textContent = txt;
		// Fit in full text width
		if (/^ *$/.test(txt) || t.getSubStringLength(0, txt.length) < w)
			return;

		for (var x = txt.length - 2; x > 0; x--) {
			if (t.getSubStringLength(0, x + 2) <= w) {
				t.textContent = txt.substring(0, x) + "..";
				return;
			}
		}
		t.textContent = "";
	}

	// zoom
	function zoom_reset(e) {
		if (e.attributes != undefined) {
			orig_load(e, "x");
			orig_load(e, "width");
		}
		if (e.childNodes == undefined) return;
		for (var i = 0, c = e.childNodes; i < c.length; i++) {
			zoom_reset(c[i]);
		}
	}
	function zoom_child(e, x, ratio) {
		if (e.attributes != undefined) {
			if (e.attributes.x != undefined) {
				orig_save(e, "x");
				e.attributes.x.value = (parseFloat(e.attributes.x.value) - x - 10) * ratio + 10;
				if (e.tagName == "text")
					e.attributes.x.value = find_child(e.parentNode, "rect[x]").attributes.x.value + 3;
			}
			if (e.attributes.width != undefined) {
				orig_save(e, "width");
				e.attributes.width.value = parseFloat(e.attributes.width.value) * ratio;
			}
		}

		if (e.childNodes == undefined) return;
		for (var i = 0, c = e.childNodes; i < c.length; i++) {
			zoom_child(c[i], x - 10, ratio);
		}
	}
	function zoom_parent(e) {
		if (e.attributes) {
			if (e.attributes.x != undefined) {
				orig_save(e, "x");
				e.attributes.x.value = 10;
			}
			if (e.attributes.width != undefined) {
				orig_save(e, "width");
				e.attributes.width.value = parseInt(svg.width.baseVal.value) - (10 * 2);
			}
		}
		if (e.childNodes == undefined) return;
		for (var i = 0, c = e.childNodes; i < c.length; i++) {
			zoom_parent(c[i]);
		}
	}
	function zoom(node) {
		var attr = find_child(node, "rect").attributes;
		var width = parseFloat(attr.width.value);
		var xmin = parseFloat(attr.x.value);
		var xmax = parseFloat(xmin + width);
		var ymin = parseFloat(attr.y.value);
		var ratio = (svg.width.baseVal.value - 2 * 10) / width;

		// XXX: Workaround for JavaScript float issues (fix me)
		var fudge = 0.0001;

		unzoombtn.classList.remove("hide");

		var el = document.getElementById("frames").children;
		for (var i = 0; i < el.length; i++) {
			var e = el[i];
			var a = find_child(e, "rect").attributes;
			var ex = parseFloat(a.x.value);
			var ew = parseFloat(a.width.value);
			var upstack;
			// Is it an ancestor
			if (1 == 0) {
				upstack = parseFloat(a.y.value) > ymin;
			} else {
				upstack = parseFloat(a.y.value) < ymin;
			}
			if (upstack) {
				// Direct ancestor
				if (ex <= xmin && (ex+ew+fudge) >= xmax) {
					e.classList.add("parent");
					zoom_parent(e);
					update_text(e);
				}
				// not in current path
				else
					e.classList.add("hide");
			}
			// Children maybe
			else {
				// no common path
				if (ex < xmin || ex + fudge >= xmax) {
					e.classList.add("hide");
				}
				else {
					zoom_child(e, xmin, ratio);
					update_text(e);
				}
			}
		}
		search();
	}
	function unzoom() {
		unzoombtn.classList.add("hide");
		var el = document.getElementById("frames").children;
		for(var i = 0; i < el.length; i++) {
			el[i].classList.remove("parent");
			el[i].classList.remove("hide");
			zoom_reset(el[i]);
			update_text(el[i]);
		}
		search();
	}
	function clearzoom() {
		unzoom();

		// remove zoom state
		var params = get_params();
		if (params.x) delete params.x;
		if (params.y) delete params.y;
		history.replaceState(null, null, parse_params(params));
	}

	// search
	function toggle_ignorecase() {
		ignorecase = !ignorecase;
		if (ignorecase) {
			ignorecaseBtn.classList.add("show");
		} else {
			ignorecaseBtn.classList.remove("show");
		}
		reset_search();
		search();
	}
	function reset_search() {
		var el = document.querySelectorAll("#frames rect");
		for (var i = 0; i < el.length; i++) {
			orig_load(el[i], "fill")
		}
		var params = get_params();
		delete params.s;
		history.replaceState(null, null, parse_params(params));
	}
	function search_prompt() {
		if (!searching) {
			var term = prompt("Enter a search term (regexp " +
			    "allowed, eg: ^ext4_)"
			    + (ignorecase ? ", ignoring case" : "")
			    + "\nPress Ctrl-i to toggle case sensitivity", "");
			if (term != null) search(term);
		} else {
			reset_search();
			searching = 0;
			currentSearchTerm = null;
			searchbtn.classList.remove("show");
			searchbtn.firstChild.nodeValue = "Search"
			matchedtxt.classList.add("hide");
			matchedtxt.firstChild.nodeValue = ""
		}
	}
	function search(term) {
		if (term) currentSearchTerm = term;

		var re = new RegExp(currentSearchTerm, ignorecase ? 'i' : '');
		var el = document.getElementById("frames").children;
		var matches = new Object();
		var maxwidth = 0;
		for (var i = 0; i < el.length; i++) {
			var e = el[i];
			var func = g_to_func(e);
			var rect = find_child(e, "rect");
			if (func == null || rect == null)
				continue;

			// Save max width. Only works as we have a root frame
			var w = parseFloat(rect.attributes.width.value);
			if (w > maxwidth)
				maxwidth = w;

			if (func.match(re)) {
				// highlight
				var x = parseFloat(rect.attributes.x.value);
				orig_save(rect, "fill");
				rect.attributes.fill.value = "rgb(230,0,230)";

				// remember matches
				if (matches[x] == undefined) {
					matches[x] = w;
				} else {
					if (w > matches[x]) {
						// overwrite with parent
						matches[x] = w;
					}
				}
				searching = 1;
			}
		}
		if (!searching)
			return;
		var params = get_params();
		params.s = currentSearchTerm;
		history.replaceState(null, null, parse_params(params));

		searchbtn.classList.add("show");
		searchbtn.firstChild.nodeValue = "Reset Search";

		// calculate percent matched, excluding vertical overlap
		var count = 0;
		var lastx = -1;
		var lastw = 0;
		var keys = Array();
		for (k in matches) {
			if (matches.hasOwnProperty(k))
				keys.push(k);
		}
		// sort the matched frames by their x location
		// ascending, then width descending
		keys.sort(function(a, b){
			return a - b;
		});
		// Step through frames saving only the biggest bottom-up frames
		// thanks to the sort order. This relies on the tree property
		// where children are always smaller than their parents.
		var fudge = 0.0001;	// JavaScript floating point
		for (var k in keys) {
			var x = parseFloat(keys[k]);
			var w = matches[keys[k]];
			if (x >= lastx + lastw - fudge) {
				count += w;
				lastx = x;
				lastw = w;
			}
		}
		// display matched percent
		matchedtxt.classList.remove("hide");
		var pct = 100 * count / maxwidth;
		if (pct != 100) pct = pct.toFixed(1)
		matchedtxt.firstChild.nodeValue = "Matched: " + pct + "%";
	}
]]>
</script>
<rect x="0.0" y="0" width="1200.0" height="427.0" fill="url(#background)"  />
<text id="title" x="600.00" y="26" >Firedrake example</text>
<text id="details" x="10.00" y="409" > </text>
<text id="unzoom" x="10.00" y="26" class="hide">Reset Zoom</text>
<text id="search" x="1090.00" y="26" >Search</text>
<text id="ignorecase" x="1174.00" y="26" >ic</text>
<text id="matched" x="1090.00" y="409" > </text>
<g id="frames">
<g >
<title>pyop2.global_kernel.GlobalKernel.compile (1,040,406 us, 0.47%)</title><rect x="89.6" y="215" width="5.6" height="15.0" fill="rgb(0,0,0)" rx="2" ry="2" />
<text  x="92.59" y="225.5" ></text>
</g>
<g >
<title>ParLoopExecute (1,494,158 us, 0.68%)</title><rect x="588.1" y="247" width="8.1" height="15.0" fill="rgb(0,0,0)" rx="2" ry="2" />
<text  x="591.13" y="257.5" ></text>
</g>
<g >
<title>firedrake.tsfc_interface.compile_form (343,664 us, 0.16%)</title><rect x="1088.5" y="215" width="1.9" height="15.0" fill="rgb(0,0,0)" rx="2" ry="2" />
<text  x="1091.52" y="225.5" ></text>
</g>
<g >
<title>pyop2.global_kernel.GlobalKernel.compile (4,681,414 us, 2.14%)</title><rect x="28.4" y="183" width="25.2" height="15.0" fill="rgb(0,0,0)" rx="2" ry="2" />
<text  x="31.38" y="193.5" >p..</text>
</g>
<g >
<title>PCSetUp (343,664 us, 0.16%)</title><rect x="1088.5" y="199" width="1.9" height="15.0" fill="rgb(0,0,0)" rx="2" ry="2" />
<text  x="1091.52" y="209.5" ></text>
</g>
<g >
<title>pyop2.global_kernel.GlobalKernel.compile (919,206 us, 0.42%)</title><rect x="15.0" y="135" width="5.0" height="15.0" fill="rgb(0,0,0)" rx="2" ry="2" />
<text  x="18.04" y="145.5" ></text>
</g>
<g >
<title>firedrake.mg.interface.inject (2,507,952 us, 1.14%)</title><rect x="603.5" y="295" width="13.5" height="15.0" fill="rgb(0,0,0)" rx="2" ry="2" />
<text  x="606.50" y="305.5" ></text>
</g>
<g >
<title>DMCoarsen (2,507,952 us, 1.14%)</title><rect x="603.5" y="247" width="13.5" height="15.0" fill="rgb(0,0,0)" rx="2" ry="2" />
<text  x="606.50" y="257.5" ></text>
</g>
<g >
<title>Parloop_Cells_wrap_form1_cell_integral_otherwise (3,790,093 us, 1.73%)</title><rect x="53.6" y="167" width="20.4" height="15.0" fill="rgb(0,0,0)" rx="2" ry="2" />
<text  x="56.59" y="177.5" ></text>
</g>
<g >
<title>ParLoopExecute (33,377,946 us, 15.23%)</title><rect x="393.0" y="167" width="179.7" height="15.0" fill="rgb(0,0,0)" rx="2" ry="2" />
<text  x="395.97" y="177.5" >ParLoopExecute</text>
</g>
<g >
<title>firedrake.parloops.par_loop (675,768 us, 0.31%)</title><rect x="1130.1" y="135" width="3.6" height="15.0" fill="rgb(0,0,0)" rx="2" ry="2" />
<text  x="1133.11" y="145.5" ></text>
</g>
<g >
<title>firedrake.parloops.par_loop (1,040,406 us, 0.47%)</title><rect x="89.6" y="167" width="5.6" height="15.0" fill="rgb(0,0,0)" rx="2" ry="2" />
<text  x="92.59" y="177.5" ></text>
</g>
<g >
<title>Log_Event_slate_loopy_knl_7 (43,696 us, 0.02%)</title><rect x="623.6" y="279" width="0.3" height="15.0" fill="rgb(0,0,0)" rx="2" ry="2" />
<text  x="626.64" y="289.5" ></text>
</g>
<g >
<title>pyop2.global_kernel.GlobalKernel.compile (708,356 us, 0.32%)</title><rect x="617.0" y="311" width="3.8" height="15.0" fill="rgb(0,0,0)" rx="2" ry="2" />
<text  x="620.01" y="321.5" ></text>
</g>
<g >
<title>Parloop_Cells_wrap_wrap_slate_loopy_knl_7 (1,494,158 us, 0.68%)</title><rect x="588.1" y="263" width="8.1" height="15.0" fill="rgb(0,0,0)" rx="2" ry="2" />
<text  x="591.13" y="273.5" ></text>
</g>
<g >
<title>Log_Event_subkernel9_cell_to__cell_integral_otherwise (82,595 us, 0.04%)</title><rect x="637.0" y="295" width="0.5" height="15.0" fill="rgb(0,0,0)" rx="2" ry="2" />
<text  x="640.03" y="305.5" ></text>
</g>
<g >
<title>firedrake.__init__ (1,532,433 us, 0.70%)</title><rect x="20.1" y="71" width="8.3" height="15.0" fill="rgb(0,0,0)" rx="2" ry="2" />
<text  x="23.12" y="81.5" ></text>
</g>
<g >
<title>pyop2.global_kernel.GlobalKernel.compile (19,391,200 us, 8.85%)</title><rect x="95.4" y="183" width="104.4" height="15.0" fill="rgb(0,0,0)" rx="2" ry="2" />
<text  x="98.36" y="193.5" >pyop2.globa..</text>
</g>
<g >
<title>PCSetUp (745,526 us, 0.34%)</title><rect x="1129.7" y="103" width="4.0" height="15.0" fill="rgb(0,0,0)" rx="2" ry="2" />
<text  x="1132.73" y="113.5" ></text>
</g>
<g >
<title>Parloop_Cells_wrap_wrap_slate_loopy_knl_7 (37,505,697 us, 17.12%)</title><rect x="634.9" y="279" width="202.0" height="15.0" fill="rgb(0,0,0)" rx="2" ry="2" />
<text  x="637.85" y="289.5" >Parloop_Cells_wrap_wrap_..</text>
</g>
<g >
<title>firedrake.mg.embedded.TransferManager.op (2,507,952 us, 1.14%)</title><rect x="603.5" y="279" width="13.5" height="15.0" fill="rgb(0,0,0)" rx="2" ry="2" />
<text  x="606.50" y="289.5" ></text>
</g>
<g >
<title>SNESFunctionEval (10,444,636 us, 4.77%)</title><rect x="1133.7" y="103" width="56.3" height="15.0" fill="rgb(0,0,0)" rx="2" ry="2" />
<text  x="1136.75" y="113.5" >SNESF..</text>
</g>
<g >
<title>SNESSolve (215,676,236 us, 98.44%)</title><rect x="28.4" y="87" width="1161.6" height="15.0" fill="rgb(0,0,0)" rx="2" ry="2" />
<text  x="31.38" y="97.5" >SNESSolve</text>
</g>
<g >
<title>Parloop_Cells_wrap_wrap_slate_loopy_knl_18 (19,422,172 us, 8.86%)</title><rect x="95.2" y="167" width="104.6" height="15.0" fill="rgb(0,0,0)" rx="2" ry="2" />
<text  x="98.20" y="177.5" >Parloop_Cel..</text>
</g>
<g >
<title>pyop2.global_kernel.GlobalKernel.compile (1,356,431 us, 0.62%)</title><rect x="1090.4" y="199" width="7.3" height="15.0" fill="rgb(0,0,0)" rx="2" ry="2" />
<text  x="1093.37" y="209.5" ></text>
</g>
<g >
<title>MatMult (1,331,329 us, 0.61%)</title><rect x="596.3" y="263" width="7.2" height="15.0" fill="rgb(0,0,0)" rx="2" ry="2" />
<text  x="599.33" y="273.5" ></text>
</g>
<g >
<title>HybridBreak (900,796 us, 0.41%)</title><rect x="381.2" y="151" width="4.9" height="15.0" fill="rgb(0,0,0)" rx="2" ry="2" />
<text  x="384.24" y="161.5" ></text>
</g>
<g >
<title>firedrake.mg.interface.prolong (1,331,329 us, 0.61%)</title><rect x="596.3" y="295" width="7.2" height="15.0" fill="rgb(0,0,0)" rx="2" ry="2" />
<text  x="599.33" y="305.5" ></text>
</g>
<g >
<title>ParLoopExecute (1,119,383 us, 0.51%)</title><rect x="608.2" y="343" width="6.1" height="15.0" fill="rgb(0,0,0)" rx="2" ry="2" />
<text  x="611.24" y="353.5" ></text>
</g>
<g >
<title>pyop2.global_kernel.GlobalKernel.compile (4,805,540 us, 2.19%)</title><rect x="1133.7" y="151" width="25.9" height="15.0" fill="rgb(0,0,0)" rx="2" ry="2" />
<text  x="1136.75" y="161.5" >p..</text>
</g>
<g >
<title>firedrake.interpolation.interpolate (1,157,315 us, 0.53%)</title><rect x="608.2" y="311" width="6.3" height="15.0" fill="rgb(0,0,0)" rx="2" ry="2" />
<text  x="611.24" y="321.5" ></text>
</g>
<g >
<title>firedrake (219,088,306 us, 100.00%)</title><rect x="10.0" y="55" width="1180.0" height="15.0" fill="rgb(0,0,0)" rx="2" ry="2" />
<text  x="13.00" y="65.5" >firedrake</text>
</g>
<g >
<title>SCSolve (100,846,280 us, 46.03%)</title><rect x="586.6" y="135" width="543.1" height="15.0" fill="rgb(0,0,0)" rx="2" ry="2" />
<text  x="589.58" y="145.5" >SCSolve</text>
</g>
<g >
<title>KSPSolve (204,486,074 us, 93.34%)</title><rect x="28.4" y="103" width="1101.3" height="15.0" fill="rgb(0,0,0)" rx="2" ry="2" />
<text  x="31.38" y="113.5" >KSPSolve</text>
</g>
<g >
<title>Parloop_set_#x7f0379127e80_wrap_pyop2_kernel_inject (546,240 us, 0.25%)</title><rect x="605.3" y="327" width="2.9" height="15.0" fill="rgb(0,0,0)" rx="2" ry="2" />
<text  x="608.30" y="337.5" ></text>
</g>
<g >
<title>Log_Event_slate_loopy_knl_7 (272,032 us, 0.12%)</title><rect x="588.9" y="279" width="1.4" height="15.0" fill="rgb(0,0,0)" rx="2" ry="2" />
<text  x="591.88" y="289.5" ></text>
</g>
<g >
<title>MatMult (288,951 us, 0.13%)</title><rect x="586.6" y="167" width="1.5" height="15.0" fill="rgb(0,0,0)" rx="2" ry="2" />
<text  x="589.58" y="177.5" ></text>
</g>
<g >
<title>Parloop_Cells_wrap_form00_cell_integral_otherwise (5,334,781 us, 2.43%)</title><rect x="1097.7" y="183" width="28.7" height="15.0" fill="rgb(0,0,0)" rx="2" ry="2" />
<text  x="1100.68" y="193.5" >P..</text>
</g>
<g >
<title>firedrake.tsfc_interface.compile_form (3,284,760 us, 1.50%)</title><rect x="1070.8" y="231" width="17.7" height="15.0" fill="rgb(0,0,0)" rx="2" ry="2" />
<text  x="1073.83" y="241.5" ></text>
</g>
<g >
<title>ParLoopExecute (6,691,212 us, 3.05%)</title><rect x="1090.4" y="167" width="36.0" height="15.0" fill="rgb(0,0,0)" rx="2" ry="2" />
<text  x="1093.37" y="177.5" >Pa..</text>
</g>
<g >
<title>PCApply (6,820,323 us, 3.11%)</title><rect x="588.1" y="183" width="36.8" height="15.0" fill="rgb(0,0,0)" rx="2" ry="2" />
<text  x="591.13" y="193.5" >PC..</text>
</g>
<g >
<title>Log_Event_subkernel8_interior_facet_vert_to__exterior_facet_vert_integral_otherwise (75,295 us, 0.03%)</title><rect x="587.5" y="231" width="0.4" height="15.0" fill="rgb(0,0,0)" rx="2" ry="2" />
<text  x="590.46" y="241.5" ></text>
</g>
<g >
<title>firedrake.dmhooks.coarsen (2,507,952 us, 1.14%)</title><rect x="603.5" y="263" width="13.5" height="15.0" fill="rgb(0,0,0)" rx="2" ry="2" />
<text  x="606.50" y="273.5" ></text>
</g>
<g >
<title>firedrake.tsfc_interface.compile_form (1,484,832 us, 0.68%)</title><rect x="1182.0" y="119" width="8.0" height="15.0" fill="rgb(0,0,0)" rx="2" ry="2" />
<text  x="1185.00" y="129.5" ></text>
</g>
<g >
<title>Log_Event_subkernel8_interior_facet_horiz_bottom_to__exterior_facet_bottom_integral_otherwise (44,233 us, 0.02%)</title><rect x="592.4" y="279" width="0.2" height="15.0" fill="rgb(0,0,0)" rx="2" ry="2" />
<text  x="595.37" y="289.5" ></text>
</g>
<g >
<title>Parloop_Cells_wrap_pyop2_kernel_uniform_extrusion (919,206 us, 0.42%)</title><rect x="15.0" y="119" width="5.0" height="15.0" fill="rgb(0,0,0)" rx="2" ry="2" />
<text  x="18.04" y="129.5" ></text>
</g>
<g >
<title>Log_Event_slate_loopy_knl_7 (73,353 us, 0.03%)</title><rect x="635.4" y="295" width="0.4" height="15.0" fill="rgb(0,0,0)" rx="2" ry="2" />
<text  x="638.41" y="305.5" ></text>
</g>
<g >
<title>firedrake.functionspaceimpl.FunctionSpace.__init__ (23,939 us, 0.01%)</title><rect x="20.0" y="87" width="0.1" height="15.0" fill="rgb(0,0,0)" rx="2" ry="2" />
<text  x="22.99" y="97.5" ></text>
</g>
<g >
<title>Log_Event_slate_loopy_knl_3 (24,937 us, 0.01%)</title><rect x="866.0" y="263" width="0.1" height="15.0" fill="rgb(0,0,0)" rx="2" ry="2" />
<text  x="869.01" y="273.5" ></text>
</g>
<g >
<title>firedrake.functionspacedata.get_shared_data (23,939 us, 0.01%)</title><rect x="20.0" y="103" width="0.1" height="15.0" fill="rgb(0,0,0)" rx="2" ry="2" />
<text  x="22.99" y="113.5" ></text>
</g>
<g >
<title>Parloop_set_#x7f0379127e80_wrap_pyop2_kernel_prolong (575,261 us, 0.26%)</title><rect x="597.8" y="327" width="3.1" height="15.0" fill="rgb(0,0,0)" rx="2" ry="2" />
<text  x="600.84" y="337.5" ></text>
</g>
<g >
<title>ParLoopExecute (546,240 us, 0.25%)</title><rect x="605.3" y="311" width="2.9" height="15.0" fill="rgb(0,0,0)" rx="2" ry="2" />
<text  x="608.30" y="321.5" ></text>
</g>
<g >
<title>PCApply (93,249,580 us, 42.56%)</title><rect x="588.1" y="167" width="502.3" height="15.0" fill="rgb(0,0,0)" rx="2" ry="2" />
<text  x="591.13" y="177.5" >PCApply</text>
</g>
<g >
<title>PCApply (1,358,634 us, 0.62%)</title><rect x="596.2" y="231" width="7.3" height="15.0" fill="rgb(0,0,0)" rx="2" ry="2" />
<text  x="599.18" y="241.5" ></text>
</g>
<g >
<title>KSPSetUp (86,085,593 us, 39.29%)</title><rect x="624.9" y="199" width="463.6" height="15.0" fill="rgb(0,0,0)" rx="2" ry="2" />
<text  x="627.87" y="209.5" >KSPSetUp</text>
</g>
<g >
<title>Log_Event_slate_loopy_knl_7 (43,533 us, 0.02%)</title><rect x="586.9" y="231" width="0.2" height="15.0" fill="rgb(0,0,0)" rx="2" ry="2" />
<text  x="589.91" y="241.5" ></text>
</g>
<g >
<title>ParLoopExecute (900,796 us, 0.41%)</title><rect x="381.2" y="183" width="4.9" height="15.0" fill="rgb(0,0,0)" rx="2" ry="2" />
<text  x="384.24" y="193.5" ></text>
</g>
<g >
<title>firedrake.pointquery_utils.to_reference_coordinates (469,674 us, 0.21%)</title><rect x="614.5" y="311" width="2.5" height="15.0" fill="rgb(0,0,0)" rx="2" ry="2" />
<text  x="617.48" y="321.5" ></text>
</g>
<g >
<title>Log_Event_subkernel10_interior_facet_vert_to__exterior_facet_vert_integral_otherwise (59,002 us, 0.03%)</title><rect x="587.1" y="231" width="0.4" height="15.0" fill="rgb(0,0,0)" rx="2" ry="2" />
<text  x="590.14" y="241.5" ></text>
</g>
<g >
<title>MatMult (289,816 us, 0.13%)</title><rect x="623.3" y="215" width="1.6" height="15.0" fill="rgb(0,0,0)" rx="2" ry="2" />
<text  x="626.31" y="225.5" ></text>
</g>
<g >
<title>firedrake.variational_solver.NonlinearVariationalSolver.solve (215,676,236 us, 98.44%)</title><rect x="28.4" y="71" width="1161.6" height="15.0" fill="rgb(0,0,0)" rx="2" ry="2" />
<text  x="31.38" y="81.5" >firedrake.variational_solver.NonlinearVariationalSolver.solve</text>
</g>
<g >
<title>ParLoopExecute (8,959,804 us, 4.09%)</title><rect x="1133.7" y="119" width="48.3" height="15.0" fill="rgb(0,0,0)" rx="2" ry="2" />
<text  x="1136.75" y="129.5" >ParL..</text>
</g>
<g >
<title>Log_Event_subkernel9_cell_to__cell_integral_otherwise (49,400 us, 0.02%)</title><rect x="624.6" y="279" width="0.3" height="15.0" fill="rgb(0,0,0)" rx="2" ry="2" />
<text  x="627.60" y="289.5" ></text>
</g>
<g >
<title>MatMult (10,097,162 us, 4.61%)</title><rect x="28.4" y="119" width="54.4" height="15.0" fill="rgb(0,0,0)" rx="2" ry="2" />
<text  x="31.38" y="129.5" >MatMult</text>
</g>
<g >
<title>pyop2.global_kernel.GlobalKernel.compile (33,331,600 us, 15.21%)</title><rect x="393.2" y="199" width="179.5" height="15.0" fill="rgb(0,0,0)" rx="2" ry="2" />
<text  x="396.22" y="209.5" >pyop2.global_kernel.G..</text>
</g>
<g >
<title>ParLoopExecute (919,206 us, 0.42%)</title><rect x="15.0" y="103" width="5.0" height="15.0" fill="rgb(0,0,0)" rx="2" ry="2" />
<text  x="18.04" y="113.5" ></text>
</g>
<g >
<title>ParLoopExecute (37,505,697 us, 17.12%)</title><rect x="634.9" y="263" width="202.0" height="15.0" fill="rgb(0,0,0)" rx="2" ry="2" />
<text  x="637.85" y="273.5" >ParLoopExecute</text>
</g>
<g >
<title>PCSetUp (7,307,749 us, 3.34%)</title><rect x="1090.4" y="151" width="39.3" height="15.0" fill="rgb(0,0,0)" rx="2" ry="2" />
<text  x="1093.37" y="161.5" >PCS..</text>
</g>
<g >
<title>PCSetUp (86,429,257 us, 39.45%)</title><rect x="624.9" y="183" width="465.5" height="15.0" fill="rgb(0,0,0)" rx="2" ry="2" />
<text  x="627.87" y="193.5" >PCSetUp</text>
</g>
<g >
<title>pyop2.global_kernel.GlobalKernel.compile (900,796 us, 0.41%)</title><rect x="381.2" y="215" width="4.9" height="15.0" fill="rgb(0,0,0)" rx="2" ry="2" />
<text  x="384.24" y="225.5" ></text>
</g>
<g >
<title>firedrake.matrix_free.operators.ImplicitMatrixContext.mult (289,816 us, 0.13%)</title><rect x="623.3" y="231" width="1.6" height="15.0" fill="rgb(0,0,0)" rx="2" ry="2" />
<text  x="626.31" y="241.5" ></text>
</g>
<g >
<title>SCForwardElim (38,124,674 us, 17.40%)</title><rect x="381.2" y="135" width="205.4" height="15.0" fill="rgb(0,0,0)" rx="2" ry="2" />
<text  x="384.24" y="145.5" >SCForwardElim</text>
</g>
<g >
<title>Log_Event_subkernel8_interior_facet_horiz_top_to__exterior_facet_top_integral_otherwise (45,062 us, 0.02%)</title><rect x="592.6" y="279" width="0.2" height="15.0" fill="rgb(0,0,0)" rx="2" ry="2" />
<text  x="595.60" y="289.5" ></text>
</g>
<g >
<title>all (219,088,306 us, 100%)</title><rect x="10.0" y="39" width="1180.0" height="15.0" fill="rgb(0,0,0)" rx="2" ry="2" />
<text  x="13.00" y="49.5" ></text>
</g>
<g >
<title>pyop2.global_kernel.GlobalKernel.compile (1,119,383 us, 0.51%)</title><rect x="608.2" y="375" width="6.1" height="15.0" fill="rgb(0,0,0)" rx="2" ry="2" />
<text  x="611.24" y="385.5" ></text>
</g>
<g >
<title>ParLoopExecute (708,356 us, 0.32%)</title><rect x="617.0" y="279" width="3.8" height="15.0" fill="rgb(0,0,0)" rx="2" ry="2" />
<text  x="620.01" y="289.5" ></text>
</g>
<g >
<title>firedrake.parloops.par_loop (900,796 us, 0.41%)</title><rect x="381.2" y="167" width="4.9" height="15.0" fill="rgb(0,0,0)" rx="2" ry="2" />
<text  x="384.24" y="177.5" ></text>
</g>
<g >
<title>PCSetUp (43,449,775 us, 19.83%)</title><rect x="854.5" y="215" width="234.0" height="15.0" fill="rgb(0,0,0)" rx="2" ry="2" />
<text  x="857.50" y="225.5" >PCSetUp</text>
</g>
<g >
<title>pyop2.global_kernel.GlobalKernel.compile (4,154,264 us, 1.90%)</title><rect x="1159.6" y="151" width="22.4" height="15.0" fill="rgb(0,0,0)" rx="2" ry="2" />
<text  x="1162.63" y="161.5" ></text>
</g>
<g >
<title>firedrake.pointquery_utils.to_reference_coordinates (475,236 us, 0.22%)</title><rect x="600.9" y="311" width="2.6" height="15.0" fill="rgb(0,0,0)" rx="2" ry="2" />
<text  x="603.94" y="321.5" ></text>
</g>
<g >
<title>firedrake.tsfc_interface.compile_form (1,625,655 us, 0.74%)</title><rect x="74.0" y="151" width="8.8" height="15.0" fill="rgb(0,0,0)" rx="2" ry="2" />
<text  x="77.00" y="161.5" ></text>
</g>
<g >
<title>CreateSparsity (22,744 us, 0.01%)</title><rect x="1070.7" y="247" width="0.1" height="15.0" fill="rgb(0,0,0)" rx="2" ry="2" />
<text  x="1073.71" y="257.5" ></text>
</g>
<g >
<title>CreateFunctionSpace (23,939 us, 0.01%)</title><rect x="20.0" y="71" width="0.1" height="15.0" fill="rgb(0,0,0)" rx="2" ry="2" />
<text  x="22.99" y="81.5" ></text>
</g>
<g >
<title>KSPSolve (93,538,531 us, 42.69%)</title><rect x="586.6" y="151" width="503.8" height="15.0" fill="rgb(0,0,0)" rx="2" ry="2" />
<text  x="589.58" y="161.5" >KSPSolve</text>
</g>
<g >
<title>Log_Event_subkernel8_interior_facet_vert_to__exterior_facet_vert_integral_otherwise (75,330 us, 0.03%)</title><rect x="624.2" y="279" width="0.4" height="15.0" fill="rgb(0,0,0)" rx="2" ry="2" />
<text  x="627.20" y="289.5" ></text>
</g>
<g >
<title>pyop2.global_kernel.GlobalKernel.compile (575,261 us, 0.26%)</title><rect x="597.8" y="343" width="3.1" height="15.0" fill="rgb(0,0,0)" rx="2" ry="2" />
<text  x="600.84" y="353.5" ></text>
</g>
<g >
<title>ParLoopExecute (675,768 us, 0.31%)</title><rect x="1130.1" y="151" width="3.6" height="15.0" fill="rgb(0,0,0)" rx="2" ry="2" />
<text  x="1133.11" y="161.5" ></text>
</g>
<g >
<title>Log_Event_subkernel10_interior_facet_vert_to__exterior_facet_vert_integral_otherwise (59,252 us, 0.03%)</title><rect x="623.9" y="279" width="0.3" height="15.0" fill="rgb(0,0,0)" rx="2" ry="2" />
<text  x="626.88" y="289.5" ></text>
</g>
<g >
<title>firedrake.matrix_free.operators.ImplicitMatrixContext.mult (42,635,818 us, 19.46%)</title><rect x="624.9" y="247" width="229.6" height="15.0" fill="rgb(0,0,0)" rx="2" ry="2" />
<text  x="627.87" y="257.5" >firedrake.matrix_free.opera..</text>
</g>
<g >
<title>solve_getrs (28,027 us, 0.01%)</title><rect x="590.2" y="295" width="0.1" height="15.0" fill="rgb(0,0,0)" rx="2" ry="2" />
<text  x="593.19" y="305.5" ></text>
</g>
<g >
<title>solve_getrf (43,696 us, 0.02%)</title><rect x="623.6" y="295" width="0.3" height="15.0" fill="rgb(0,0,0)" rx="2" ry="2" />
<text  x="626.64" y="305.5" ></text>
</g>
<g >
<title>MatMult (42,635,818 us, 19.46%)</title><rect x="624.9" y="231" width="229.6" height="15.0" fill="rgb(0,0,0)" rx="2" ry="2" />
<text  x="627.87" y="241.5" >MatMult</text>
</g>
<g >
<title>pyop2.global_kernel.GlobalKernel.compile (37,019,463 us, 16.90%)</title><rect x="637.5" y="295" width="199.4" height="15.0" fill="rgb(0,0,0)" rx="2" ry="2" />
<text  x="640.47" y="305.5" >pyop2.global_kernel.Glo..</text>
</g>
<g >
<title>Log_Event_subkernel10_interior_facet_vert_to__exterior_facet_vert_integral_otherwise (294,409 us, 0.13%)</title><rect x="590.8" y="279" width="1.6" height="15.0" fill="rgb(0,0,0)" rx="2" ry="2" />
<text  x="593.78" y="289.5" ></text>
</g>
<g >
<title>firedrake.interpolation.make_interpolator (37,932 us, 0.02%)</title><rect x="614.3" y="327" width="0.2" height="15.0" fill="rgb(0,0,0)" rx="2" ry="2" />
<text  x="617.27" y="337.5" ></text>
</g>
<g >
<title>Log_Event_subkernel9_cell_to__cell_integral_otherwise (49,173 us, 0.02%)</title><rect x="587.9" y="231" width="0.2" height="15.0" fill="rgb(0,0,0)" rx="2" ry="2" />
<text  x="590.87" y="241.5" ></text>
</g>
<g >
<title>firedrake.matrix_free.operators.ImplicitMatrixContext.mult (1,494,158 us, 0.68%)</title><rect x="588.1" y="231" width="8.1" height="15.0" fill="rgb(0,0,0)" rx="2" ry="2" />
<text  x="591.13" y="241.5" ></text>
</g>
<g >
<title>PCApply (5,036,349 us, 2.30%)</title><rect x="596.2" y="215" width="27.1" height="15.0" fill="rgb(0,0,0)" rx="2" ry="2" />
<text  x="599.18" y="225.5" >P..</text>
</g>
<g >
<title>MatMultTranspose (1,169,763 us, 0.53%)</title><rect x="617.0" y="247" width="6.3" height="15.0" fill="rgb(0,0,0)" rx="2" ry="2" />
<text  x="620.01" y="257.5" ></text>
</g>
<g >
<title>firedrake.tsfc_interface.compile_form (580,029 us, 0.26%)</title><rect x="1126.6" y="167" width="3.1" height="15.0" fill="rgb(0,0,0)" rx="2" ry="2" />
<text  x="1129.61" y="177.5" ></text>
</g>
<g >
<title>solve_getrf (73,353 us, 0.03%)</title><rect x="635.4" y="311" width="0.4" height="15.0" fill="rgb(0,0,0)" rx="2" ry="2" />
<text  x="638.41" y="321.5" ></text>
</g>
<g >
<title>solve_getrf (43,533 us, 0.02%)</title><rect x="586.9" y="247" width="0.2" height="15.0" fill="rgb(0,0,0)" rx="2" ry="2" />
<text  x="589.91" y="257.5" ></text>
</g>
<g >
<title>ParLoopExecute (288,951 us, 0.13%)</title><rect x="586.6" y="199" width="1.5" height="15.0" fill="rgb(0,0,0)" rx="2" ry="2" />
<text  x="589.58" y="209.5" ></text>
</g>
<g >
<title>pyop2.global_kernel.GlobalKernel.compile (37,981,111 us, 17.34%)</title><rect x="866.1" y="263" width="204.6" height="15.0" fill="rgb(0,0,0)" rx="2" ry="2" />
<text  x="869.14" y="273.5" >pyop2.global_kernel.Glob..</text>
</g>
<g >
<title>CreateExtMesh (951,401 us, 0.43%)</title><rect x="14.9" y="71" width="5.1" height="15.0" fill="rgb(0,0,0)" rx="2" ry="2" />
<text  x="17.87" y="81.5" ></text>
</g>
<g >
<title>firedrake.tsfc_interface.compile_form (2,568,756 us, 1.17%)</title><rect x="572.7" y="167" width="13.9" height="15.0" fill="rgb(0,0,0)" rx="2" ry="2" />
<text  x="575.74" y="177.5" ></text>
</g>
<g >
<title>ParLoopExecute (38,064,843 us, 17.37%)</title><rect x="865.7" y="231" width="205.0" height="15.0" fill="rgb(0,0,0)" rx="2" ry="2" />
<text  x="868.69" y="241.5" >ParLoopExecute</text>
</g>
<g >
<title>firedrake.tsfc_interface.compile_form (1,975,658 us, 0.90%)</title><rect x="370.6" y="151" width="10.6" height="15.0" fill="rgb(0,0,0)" rx="2" ry="2" />
<text  x="373.60" y="161.5" ></text>
</g>
<g >
<title>Parloop_Cells_wrap_wrap_slate_loopy_knl_0 (33,377,946 us, 15.23%)</title><rect x="393.0" y="183" width="179.7" height="15.0" fill="rgb(0,0,0)" rx="2" ry="2" />
<text  x="395.97" y="193.5" >Parloop_Cells_wrap_wr..</text>
</g>
<g >
<title>firedrake.extrusion_utils.make_extruded_coords (951,401 us, 0.43%)</title><rect x="14.9" y="87" width="5.1" height="15.0" fill="rgb(0,0,0)" rx="2" ry="2" />
<text  x="17.87" y="97.5" ></text>
</g>
<g >
<title>Log_Event_subkernel9_cell_to__cell_integral_otherwise (244,484 us, 0.11%)</title><rect x="594.9" y="279" width="1.3" height="15.0" fill="rgb(0,0,0)" rx="2" ry="2" />
<text  x="597.86" y="289.5" ></text>
</g>
<g >
<title>Parloop_Cells_wrap_expression_kernel (1,119,383 us, 0.51%)</title><rect x="608.2" y="359" width="6.1" height="15.0" fill="rgb(0,0,0)" rx="2" ry="2" />
<text  x="611.24" y="369.5" ></text>
</g>
<g >
<title>Parloop_Cells_wrap_form0_cell_integral_otherwise (4,805,540 us, 2.19%)</title><rect x="1133.7" y="135" width="25.9" height="15.0" fill="rgb(0,0,0)" rx="2" ry="2" />
<text  x="1136.75" y="145.5" >P..</text>
</g>
<g >
<title>firedrake.mg.interface.restrict (1,169,763 us, 0.53%)</title><rect x="617.0" y="263" width="6.3" height="15.0" fill="rgb(0,0,0)" rx="2" ry="2" />
<text  x="620.01" y="273.5" ></text>
</g>
<g >
<title>solve_getrf (217,018 us, 0.10%)</title><rect x="589.0" y="295" width="1.2" height="15.0" fill="rgb(0,0,0)" rx="2" ry="2" />
<text  x="592.02" y="305.5" ></text>
</g>
<g >
<title>firedrake.interpolation.make_interpolator (36,508 us, 0.02%)</title><rect x="1126.4" y="167" width="0.2" height="15.0" fill="rgb(0,0,0)" rx="2" ry="2" />
<text  x="1129.41" y="177.5" ></text>
</g>
<g >
<title>Parloop_Cells_wrap_wrap_slate_loopy_knl_7 (289,816 us, 0.13%)</title><rect x="623.3" y="263" width="1.6" height="15.0" fill="rgb(0,0,0)" rx="2" ry="2" />
<text  x="626.31" y="273.5" ></text>
</g>
<g >
<title>firedrake.tsfc_interface.compile_form (3,244,756 us, 1.48%)</title><rect x="353.1" y="167" width="17.5" height="15.0" fill="rgb(0,0,0)" rx="2" ry="2" />
<text  x="356.12" y="177.5" ></text>
</g>
<g >
<title>ParLoopExecute (19,422,172 us, 8.86%)</title><rect x="95.2" y="151" width="104.6" height="15.0" fill="rgb(0,0,0)" rx="2" ry="2" />
<text  x="98.20" y="161.5" >ParLoopExec..</text>
</g>
<g >
<title>KSPSolve (6,530,507 us, 2.98%)</title><rect x="588.1" y="199" width="35.2" height="15.0" fill="rgb(0,0,0)" rx="2" ry="2" />
<text  x="591.13" y="209.5" >KS..</text>
</g>
<g >
<title>firedrake.interpolation.Interpolator.interpolate (1,119,383 us, 0.51%)</title><rect x="608.2" y="327" width="6.1" height="15.0" fill="rgb(0,0,0)" rx="2" ry="2" />
<text  x="611.24" y="337.5" ></text>
</g>
<g >
<title>pyop2.global_kernel.GlobalKernel.compile (3,790,093 us, 1.73%)</title><rect x="53.6" y="183" width="20.4" height="15.0" fill="rgb(0,0,0)" rx="2" ry="2" />
<text  x="56.59" y="193.5" ></text>
</g>
<g >
<title>firedrake.matrix_free.operators.ImplicitMatrixContext.mult (288,951 us, 0.13%)</title><rect x="586.6" y="183" width="1.5" height="15.0" fill="rgb(0,0,0)" rx="2" ry="2" />
<text  x="589.58" y="193.5" ></text>
</g>
<g >
<title>MGInterp Level 1 (1,331,329 us, 0.61%)</title><rect x="596.3" y="247" width="7.2" height="15.0" fill="rgb(0,0,0)" rx="2" ry="2" />
<text  x="599.33" y="257.5" ></text>
</g>
<g >
<title>Log_Event_subkernel10_interior_facet_horiz_top_to__exterior_facet_top_integral_otherwise (40,909 us, 0.02%)</title><rect x="590.6" y="279" width="0.2" height="15.0" fill="rgb(0,0,0)" rx="2" ry="2" />
<text  x="593.56" y="289.5" ></text>
</g>
<g >
<title>pyop2.global_kernel.GlobalKernel.compile (5,334,781 us, 2.43%)</title><rect x="1097.7" y="199" width="28.7" height="15.0" fill="rgb(0,0,0)" rx="2" ry="2" />
<text  x="1100.68" y="209.5" >p..</text>
</g>
<g >
<title>MatMult (1,494,158 us, 0.68%)</title><rect x="588.1" y="215" width="8.1" height="15.0" fill="rgb(0,0,0)" rx="2" ry="2" />
<text  x="591.13" y="225.5" ></text>
</g>
<g >
<title>HybridRHS (37,223,878 us, 16.99%)</title><rect x="386.1" y="151" width="200.5" height="15.0" fill="rgb(0,0,0)" rx="2" ry="2" />
<text  x="389.09" y="161.5" >HybridRHS</text>
</g>
<g >
<title>ParLoopExecute (26,809,751 us, 12.24%)</title><rect x="208.7" y="167" width="144.4" height="15.0" fill="rgb(0,0,0)" rx="2" ry="2" />
<text  x="211.73" y="177.5" >ParLoopExecute</text>
</g>
<g >
<title>HybridInit (745,526 us, 0.34%)</title><rect x="1129.7" y="119" width="4.0" height="15.0" fill="rgb(0,0,0)" rx="2" ry="2" />
<text  x="1132.73" y="129.5" ></text>
</g>
<g >
<title>Parloop_Cells_wrap_wrap_slate_loopy_knl_11 (26,809,751 us, 12.24%)</title><rect x="208.7" y="183" width="144.4" height="15.0" fill="rgb(0,0,0)" rx="2" ry="2" />
<text  x="211.73" y="193.5" >Parloop_Cells_wr..</text>
</g>
<g >
<title>firedrake.matrix_free.operators.ImplicitMatrixContext.mult (10,097,162 us, 4.61%)</title><rect x="28.4" y="135" width="54.4" height="15.0" fill="rgb(0,0,0)" rx="2" ry="2" />
<text  x="31.38" y="145.5" >fired..</text>
</g>
<g >
<title>Parloop_Cells_wrap_par_loop_kernel (900,796 us, 0.41%)</title><rect x="381.2" y="199" width="4.9" height="15.0" fill="rgb(0,0,0)" rx="2" ry="2" />
<text  x="384.24" y="209.5" ></text>
</g>
<g >
<title>pyop2.global_kernel.GlobalKernel.compile (546,240 us, 0.25%)</title><rect x="605.3" y="343" width="2.9" height="15.0" fill="rgb(0,0,0)" rx="2" ry="2" />
<text  x="608.30" y="353.5" ></text>
</g>
<g >
<title>pyop2.global_kernel.GlobalKernel.compile (26,757,702 us, 12.21%)</title><rect x="209.0" y="199" width="144.1" height="15.0" fill="rgb(0,0,0)" rx="2" ry="2" />
<text  x="212.01" y="209.5" >pyop2.global_ker..</text>
</g>
<g >
<title>Parloop_Cells_wrap_expression_kernel (1,356,431 us, 0.62%)</title><rect x="1090.4" y="183" width="7.3" height="15.0" fill="rgb(0,0,0)" rx="2" ry="2" />
<text  x="1093.37" y="193.5" ></text>
</g>
<g >
<title>firedrake.tsfc_interface.compile_form (3,276,313 us, 1.50%)</title><rect x="836.9" y="263" width="17.6" height="15.0" fill="rgb(0,0,0)" rx="2" ry="2" />
<text  x="839.86" y="273.5" ></text>
</g>
<g >
<title>Parloop_Cells_wrap_wrap_slate_loopy_knl_3 (38,064,843 us, 17.37%)</title><rect x="865.7" y="247" width="205.0" height="15.0" fill="rgb(0,0,0)" rx="2" ry="2" />
<text  x="868.69" y="257.5" >Parloop_Cells_wrap_wrap_..</text>
</g>
<g >
<title>Parloop_Cells_wrap_form1_cell_integral_otherwise (4,154,264 us, 1.90%)</title><rect x="1159.6" y="135" width="22.4" height="15.0" fill="rgb(0,0,0)" rx="2" ry="2" />
<text  x="1162.63" y="145.5" ></text>
</g>
<g >
<title>Parloop_Cells_wrap_form0_cell_integral_otherwise (4,681,414 us, 2.14%)</title><rect x="28.4" y="167" width="25.2" height="15.0" fill="rgb(0,0,0)" rx="2" ry="2" />
<text  x="31.38" y="177.5" >P..</text>
</g>
<g >
<title>Log_Event_subkernel10_interior_facet_vert_to__exterior_facet_vert_integral_otherwise (100,749 us, 0.05%)</title><rect x="635.8" y="295" width="0.6" height="15.0" fill="rgb(0,0,0)" rx="2" ry="2" />
<text  x="638.81" y="305.5" ></text>
</g>
<g >
<title>RecoverFirstElim (31,711,165 us, 14.47%)</title><rect x="199.8" y="151" width="170.8" height="15.0" fill="rgb(0,0,0)" rx="2" ry="2" />
<text  x="202.80" y="161.5" >RecoverFirstElim</text>
</g>
<g >
<title>pyop2.global_kernel.GlobalKernel.compile (675,768 us, 0.31%)</title><rect x="1130.1" y="183" width="3.6" height="15.0" fill="rgb(0,0,0)" rx="2" ry="2" />
<text  x="1133.11" y="193.5" ></text>
</g>
<g >
<title>ParLoopExecute (1,040,406 us, 0.47%)</title><rect x="89.6" y="183" width="5.6" height="15.0" fill="rgb(0,0,0)" rx="2" ry="2" />
<text  x="92.59" y="193.5" ></text>
</g>
<g >
<title>ParLoopExecute (575,261 us, 0.26%)</title><rect x="597.8" y="311" width="3.1" height="15.0" fill="rgb(0,0,0)" rx="2" ry="2" />
<text  x="600.84" y="321.5" ></text>
</g>
<g >
<title>Log_Event_slate_loopy_knl_11 (24,876 us, 0.01%)</title><rect x="208.9" y="199" width="0.1" height="15.0" fill="rgb(0,0,0)" rx="2" ry="2" />
<text  x="211.87" y="209.5" ></text>
</g>
<g >
<title>firedrake.mg.embedded.TransferManager.op (1,331,329 us, 0.61%)</title><rect x="596.3" y="279" width="7.2" height="15.0" fill="rgb(0,0,0)" rx="2" ry="2" />
<text  x="599.33" y="289.5" ></text>
</g>
<g >
<title>ParLoopExecute (289,816 us, 0.13%)</title><rect x="623.3" y="247" width="1.6" height="15.0" fill="rgb(0,0,0)" rx="2" ry="2" />
<text  x="626.31" y="257.5" ></text>
</g>
<g >
<title>Parloop_set_#x7f0379158b20_wrap_pyop2_kernel_restrict (708,356 us, 0.32%)</title><rect x="617.0" y="295" width="3.8" height="15.0" fill="rgb(0,0,0)" rx="2" ry="2" />
<text  x="620.01" y="305.5" ></text>
</g>
<g >
<title>firedrake.pointquery_utils.to_reference_coordinates (461,407 us, 0.21%)</title><rect x="620.8" y="279" width="2.5" height="15.0" fill="rgb(0,0,0)" rx="2" ry="2" />
<text  x="623.82" y="289.5" ></text>
</g>
<g >
<title>Log_Event_subkernel8_interior_facet_vert_to__exterior_facet_vert_integral_otherwise (374,476 us, 0.17%)</title><rect x="592.8" y="279" width="2.1" height="15.0" fill="rgb(0,0,0)" rx="2" ry="2" />
<text  x="595.85" y="289.5" ></text>
</g>
<g >
<title>SCBackSub (55,417,958 us, 25.29%)</title><rect x="82.8" y="135" width="298.4" height="15.0" fill="rgb(0,0,0)" rx="2" ry="2" />
<text  x="85.76" y="145.5" >SCBackSub</text>
</g>
<g >
<title>firedrake.assemble.allocate_matrix (22,744 us, 0.01%)</title><rect x="1070.7" y="231" width="0.1" height="15.0" fill="rgb(0,0,0)" rx="2" ry="2" />
<text  x="1073.71" y="241.5" ></text>
</g>
<g >
<title>Log_Event_subkernel10_interior_facet_horiz_bottom_to__exterior_facet_bottom_integral_otherwise (40,710 us, 0.02%)</title><rect x="590.3" y="279" width="0.3" height="15.0" fill="rgb(0,0,0)" rx="2" ry="2" />
<text  x="593.34" y="289.5" ></text>
</g>
<g >
<title>KSPSolve (42,635,818 us, 19.46%)</title><rect x="624.9" y="215" width="229.6" height="15.0" fill="rgb(0,0,0)" rx="2" ry="2" />
<text  x="627.87" y="225.5" >KSPSolve</text>
</g>
<g >
<title>HybridProject (1,040,406 us, 0.47%)</title><rect x="89.6" y="151" width="5.6" height="15.0" fill="rgb(0,0,0)" rx="2" ry="2" />
<text  x="92.59" y="161.5" ></text>
</g>
<g >
<title>firedrake.functionspacedata.FunctionSpaceData.__init__ (23,939 us, 0.01%)</title><rect x="20.0" y="119" width="0.1" height="15.0" fill="rgb(0,0,0)" rx="2" ry="2" />
<text  x="22.99" y="129.5" ></text>
</g>
<g >
<title>Parloop_Cells_wrap_par_loop_kernel (675,768 us, 0.31%)</title><rect x="1130.1" y="167" width="3.6" height="15.0" fill="rgb(0,0,0)" rx="2" ry="2" />
<text  x="1133.11" y="177.5" ></text>
</g>
<g >
<title>PCApply (194,388,912 us, 88.73%)</title><rect x="82.8" y="119" width="1046.9" height="15.0" fill="rgb(0,0,0)" rx="2" ry="2" />
<text  x="85.76" y="129.5" >PCApply</text>
</g>
<g >
<title>Parloop_Cells_wrap_wrap_slate_loopy_knl_7 (288,951 us, 0.13%)</title><rect x="586.6" y="215" width="1.5" height="15.0" fill="rgb(0,0,0)" rx="2" ry="2" />
<text  x="589.58" y="225.5" ></text>
</g>
<g >
<title>Log_Event_subkernel8_interior_facet_vert_to__exterior_facet_vert_integral_otherwise (125,184 us, 0.06%)</title><rect x="636.4" y="295" width="0.6" height="15.0" fill="rgb(0,0,0)" rx="2" ry="2" />
<text  x="639.35" y="305.5" ></text>
</g>
<g >
<title>Parloop_Cells_wrap_par_loop_kernel (1,040,406 us, 0.47%)</title><rect x="89.6" y="199" width="5.6" height="15.0" fill="rgb(0,0,0)" rx="2" ry="2" />
<text  x="92.59" y="209.5" ></text>
</g>
<g >
<title>MatResidual (289,816 us, 0.13%)</title><rect x="623.3" y="199" width="1.6" height="15.0" fill="rgb(0,0,0)" rx="2" ry="2" />
<text  x="626.31" y="209.5" ></text>
</g>
<g >
<title>PCSetUp (3,677,715 us, 1.68%)</title><rect x="603.5" y="231" width="19.8" height="15.0" fill="rgb(0,0,0)" rx="2" ry="2" />
<text  x="606.50" y="241.5" ></text>
</g>
<g >
<title>ParLoopExecute (8,471,507 us, 3.87%)</title><rect x="28.4" y="151" width="45.6" height="15.0" fill="rgb(0,0,0)" rx="2" ry="2" />
<text  x="31.38" y="161.5" >Par..</text>
</g>
</g>
</svg>
