<?xml version="1.0" standalone="no"?>
<!DOCTYPE svg PUBLIC "-//W3C//DTD SVG 1.1//EN" "http://www.w3.org/Graphics/SVG/1.1/DTD/svg11.dtd">
<svg version="1.1" width="1200" height="267" onload="init(evt)" viewBox="0 0 1200 267" xmlns="http://www.w3.org/2000/svg" xmlns:xlink="http://www.w3.org/1999/xlink">
<!-- Flame graph stack visualization. See https://github.com/brendangregg/FlameGraph for latest version, and http://www.brendangregg.com/flamegraphs.html for examples. -->
<!-- NOTES:  -->
<defs>
	<linearGradient id="background" y1="0" y2="1" x1="0" x2="0" >
		<stop stop-color="#eeeeee" offset="5%" />
		<stop stop-color="#eeeeb0" offset="95%" />
	</linearGradient>
</defs>
<style type="text/css">
	text { font-family:Verdana; font-size:13px; fill:rgb(0,0,0); }
	#search, #ignorecase { opacity:0.1; cursor:pointer; }
	#search:hover, #search.show, #ignorecase:hover, #ignorecase.show { opacity:1; }
	#subtitle { text-anchor:middle; font-color:rgb(160,160,160); }
	#title { text-anchor:middle; font-size:18px}
	#unzoom { cursor:pointer; }
	#frames > *:hover { stroke:black; stroke-width:0.5; cursor:pointer; }
	.hide { display:none; }
	.parent { opacity:0.5; }
</style>
<script type="text/ecmascript">
<![CDATA[
	"use strict";
	var details, searchbtn, unzoombtn, matchedtxt, svg, searching, currentSearchTerm, ignorecase, ignorecaseBtn;
	function init(evt) {
		details = document.getElementById("details").firstChild;
		searchbtn = document.getElementById("search");
		ignorecaseBtn = document.getElementById("ignorecase");
		unzoombtn = document.getElementById("unzoom");
		matchedtxt = document.getElementById("matched");
		svg = document.getElementsByTagName("svg")[0];
		searching = 0;
		currentSearchTerm = null;

		// use GET parameters to restore a flamegraphs state.
		var params = get_params();
		if (params.x && params.y)
			zoom(find_group(document.querySelector('[x="' + params.x + '"][y="' + params.y + '"]')));
                if (params.s) search(params.s);
	}

	// event listeners
	window.addEventListener("click", function(e) {
		var target = find_group(e.target);
		if (target) {
			if (target.nodeName == "a") {
				if (e.ctrlKey === false) return;
				e.preventDefault();
			}
			if (target.classList.contains("parent")) unzoom();
			zoom(target);
			if (!document.querySelector('.parent')) {
				clearzoom();
				return;
			}

			// set parameters for zoom state
			var el = target.querySelector("rect");
			if (el && el.attributes && el.attributes.y && el.attributes._orig_x) {
				var params = get_params()
				params.x = el.attributes._orig_x.value;
				params.y = el.attributes.y.value;
				history.replaceState(null, null, parse_params(params));
			}
		}
		else if (e.target.id == "unzoom") clearzoom();
		else if (e.target.id == "search") search_prompt();
		else if (e.target.id == "ignorecase") toggle_ignorecase();
	}, false)

	// mouse-over for info
	// show
	window.addEventListener("mouseover", function(e) {
		var target = find_group(e.target);
		if (target) details.nodeValue = "Function: " + g_to_text(target);
	}, false)

	// clear
	window.addEventListener("mouseout", function(e) {
		var target = find_group(e.target);
		if (target) details.nodeValue = ' ';
	}, false)

	// ctrl-F for search
	// ctrl-I to toggle case-sensitive search
	window.addEventListener("keydown",function (e) {
		if (e.keyCode === 114 || (e.ctrlKey && e.keyCode === 70)) {
			e.preventDefault();
			search_prompt();
		}
		else if (e.ctrlKey && e.keyCode === 73) {
			e.preventDefault();
			toggle_ignorecase();
		}
	}, false)

	// functions
	function get_params() {
		var params = {};
		var paramsarr = window.location.search.substr(1).split('&');
		for (var i = 0; i < paramsarr.length; ++i) {
			var tmp = paramsarr[i].split("=");
			if (!tmp[0] || !tmp[1]) continue;
			params[tmp[0]]  = decodeURIComponent(tmp[1]);
		}
		return params;
	}
	function parse_params(params) {
		var uri = "?";
		for (var key in params) {
			uri += key + '=' + encodeURIComponent(params[key]) + '&';
		}
		if (uri.slice(-1) == "&")
			uri = uri.substring(0, uri.length - 1);
		if (uri == '?')
			uri = window.location.href.split('?')[0];
		return uri;
	}
	function find_child(node, selector) {
		var children = node.querySelectorAll(selector);
		if (children.length) return children[0];
	}
	function find_group(node) {
		var parent = node.parentElement;
		if (!parent) return;
		if (parent.id == "frames") return node;
		return find_group(parent);
	}
	function orig_save(e, attr, val) {
		if (e.attributes["_orig_" + attr] != undefined) return;
		if (e.attributes[attr] == undefined) return;
		if (val == undefined) val = e.attributes[attr].value;
		e.setAttribute("_orig_" + attr, val);
	}
	function orig_load(e, attr) {
		if (e.attributes["_orig_"+attr] == undefined) return;
		e.attributes[attr].value = e.attributes["_orig_" + attr].value;
		e.removeAttribute("_orig_"+attr);
	}
	function g_to_text(e) {
		var text = find_child(e, "title").firstChild.nodeValue;
		return (text)
	}
	function g_to_func(e) {
		var func = g_to_text(e);
		// if there's any manipulation we want to do to the function
		// name before it's searched, do it here before returning.
		return (func);
	}
	function update_text(e) {
		var r = find_child(e, "rect");
		var t = find_child(e, "text");
		var w = parseFloat(r.attributes.width.value) -3;
		var txt = find_child(e, "title").textContent.replace(/\([^(]*\)$/,"");
		t.attributes.x.value = parseFloat(r.attributes.x.value) + 3;

		// Smaller than this size won't fit anything
		if (w < 2 * 13 * 0.59) {
			t.textContent = "";
			return;
		}

		t.textContent = txt;
		// Fit in full text width
		if (/^ *$/.test(txt) || t.getSubStringLength(0, txt.length) < w)
			return;

		for (var x = txt.length - 2; x > 0; x--) {
			if (t.getSubStringLength(0, x + 2) <= w) {
				t.textContent = txt.substring(0, x) + "..";
				return;
			}
		}
		t.textContent = "";
	}

	// zoom
	function zoom_reset(e) {
		if (e.attributes != undefined) {
			orig_load(e, "x");
			orig_load(e, "width");
		}
		if (e.childNodes == undefined) return;
		for (var i = 0, c = e.childNodes; i < c.length; i++) {
			zoom_reset(c[i]);
		}
	}
	function zoom_child(e, x, ratio) {
		if (e.attributes != undefined) {
			if (e.attributes.x != undefined) {
				orig_save(e, "x");
				e.attributes.x.value = (parseFloat(e.attributes.x.value) - x - 10) * ratio + 10;
				if (e.tagName == "text")
					e.attributes.x.value = find_child(e.parentNode, "rect[x]").attributes.x.value + 3;
			}
			if (e.attributes.width != undefined) {
				orig_save(e, "width");
				e.attributes.width.value = parseFloat(e.attributes.width.value) * ratio;
			}
		}

		if (e.childNodes == undefined) return;
		for (var i = 0, c = e.childNodes; i < c.length; i++) {
			zoom_child(c[i], x - 10, ratio);
		}
	}
	function zoom_parent(e) {
		if (e.attributes) {
			if (e.attributes.x != undefined) {
				orig_save(e, "x");
				e.attributes.x.value = 10;
			}
			if (e.attributes.width != undefined) {
				orig_save(e, "width");
				e.attributes.width.value = parseInt(svg.width.baseVal.value) - (10 * 2);
			}
		}
		if (e.childNodes == undefined) return;
		for (var i = 0, c = e.childNodes; i < c.length; i++) {
			zoom_parent(c[i]);
		}
	}
	function zoom(node) {
		var attr = find_child(node, "rect").attributes;
		var width = parseFloat(attr.width.value);
		var xmin = parseFloat(attr.x.value);
		var xmax = parseFloat(xmin + width);
		var ymin = parseFloat(attr.y.value);
		var ratio = (svg.width.baseVal.value - 2 * 10) / width;

		// XXX: Workaround for JavaScript float issues (fix me)
		var fudge = 0.0001;

		unzoombtn.classList.remove("hide");

		var el = document.getElementById("frames").children;
		for (var i = 0; i < el.length; i++) {
			var e = el[i];
			var a = find_child(e, "rect").attributes;
			var ex = parseFloat(a.x.value);
			var ew = parseFloat(a.width.value);
			var upstack;
			// Is it an ancestor
			if (1 == 0) {
				upstack = parseFloat(a.y.value) > ymin;
			} else {
				upstack = parseFloat(a.y.value) < ymin;
			}
			if (upstack) {
				// Direct ancestor
				if (ex <= xmin && (ex+ew+fudge) >= xmax) {
					e.classList.add("parent");
					zoom_parent(e);
					update_text(e);
				}
				// not in current path
				else
					e.classList.add("hide");
			}
			// Children maybe
			else {
				// no common path
				if (ex < xmin || ex + fudge >= xmax) {
					e.classList.add("hide");
				}
				else {
					zoom_child(e, xmin, ratio);
					update_text(e);
				}
			}
		}
		search();
	}
	function unzoom() {
		unzoombtn.classList.add("hide");
		var el = document.getElementById("frames").children;
		for(var i = 0; i < el.length; i++) {
			el[i].classList.remove("parent");
			el[i].classList.remove("hide");
			zoom_reset(el[i]);
			update_text(el[i]);
		}
		search();
	}
	function clearzoom() {
		unzoom();

		// remove zoom state
		var params = get_params();
		if (params.x) delete params.x;
		if (params.y) delete params.y;
		history.replaceState(null, null, parse_params(params));
	}

	// search
	function toggle_ignorecase() {
		ignorecase = !ignorecase;
		if (ignorecase) {
			ignorecaseBtn.classList.add("show");
		} else {
			ignorecaseBtn.classList.remove("show");
		}
		reset_search();
		search();
	}
	function reset_search() {
		var el = document.querySelectorAll("#frames rect");
		for (var i = 0; i < el.length; i++) {
			orig_load(el[i], "fill")
		}
		var params = get_params();
		delete params.s;
		history.replaceState(null, null, parse_params(params));
	}
	function search_prompt() {
		if (!searching) {
			var term = prompt("Enter a search term (regexp " +
			    "allowed, eg: ^ext4_)"
			    + (ignorecase ? ", ignoring case" : "")
			    + "\nPress Ctrl-i to toggle case sensitivity", "");
			if (term != null) search(term);
		} else {
			reset_search();
			searching = 0;
			currentSearchTerm = null;
			searchbtn.classList.remove("show");
			searchbtn.firstChild.nodeValue = "Search"
			matchedtxt.classList.add("hide");
			matchedtxt.firstChild.nodeValue = ""
		}
	}
	function search(term) {
		if (term) currentSearchTerm = term;

		var re = new RegExp(currentSearchTerm, ignorecase ? 'i' : '');
		var el = document.getElementById("frames").children;
		var matches = new Object();
		var maxwidth = 0;
		for (var i = 0; i < el.length; i++) {
			var e = el[i];
			var func = g_to_func(e);
			var rect = find_child(e, "rect");
			if (func == null || rect == null)
				continue;

			// Save max width. Only works as we have a root frame
			var w = parseFloat(rect.attributes.width.value);
			if (w > maxwidth)
				maxwidth = w;

			if (func.match(re)) {
				// highlight
				var x = parseFloat(rect.attributes.x.value);
				orig_save(rect, "fill");
				rect.attributes.fill.value = "rgb(230,0,230)";

				// remember matches
				if (matches[x] == undefined) {
					matches[x] = w;
				} else {
					if (w > matches[x]) {
						// overwrite with parent
						matches[x] = w;
					}
				}
				searching = 1;
			}
		}
		if (!searching)
			return;
		var params = get_params();
		params.s = currentSearchTerm;
		history.replaceState(null, null, parse_params(params));

		searchbtn.classList.add("show");
		searchbtn.firstChild.nodeValue = "Reset Search";

		// calculate percent matched, excluding vertical overlap
		var count = 0;
		var lastx = -1;
		var lastw = 0;
		var keys = Array();
		for (k in matches) {
			if (matches.hasOwnProperty(k))
				keys.push(k);
		}
		// sort the matched frames by their x location
		// ascending, then width descending
		keys.sort(function(a, b){
			return a - b;
		});
		// Step through frames saving only the biggest bottom-up frames
		// thanks to the sort order. This relies on the tree property
		// where children are always smaller than their parents.
		var fudge = 0.0001;	// JavaScript floating point
		for (var k in keys) {
			var x = parseFloat(keys[k]);
			var w = matches[keys[k]];
			if (x >= lastx + lastw - fudge) {
				count += w;
				lastx = x;
				lastw = w;
			}
		}
		// display matched percent
		matchedtxt.classList.remove("hide");
		var pct = 100 * count / maxwidth;
		if (pct != 100) pct = pct.toFixed(1)
		matchedtxt.firstChild.nodeValue = "Matched: " + pct + "%";
	}
]]>
</script>
<rect x="0.0" y="0" width="1200.0" height="267.0" fill="url(#background)"  />
<text id="title" x="600.00" y="26" >Firedrake example</text>
<text id="details" x="10.00" y="249" > </text>
<text id="unzoom" x="10.00" y="26" class="hide">Reset Zoom</text>
<text id="search" x="1090.00" y="26" >Search</text>
<text id="ignorecase" x="1174.00" y="26" >ic</text>
<text id="matched" x="1090.00" y="249" > </text>
<g id="frames">
<g >
<title>Parloop_ExtFacets_wrap_form00_exterior_facet_vert_integral_otherwise (2,642,105 us, 1.15%)</title><rect x="262.5" y="135" width="13.6" height="15.0" fill="rgb(0,0,0)" rx="2" ry="2" />
<text  x="265.51" y="145.5" ></text>
</g>
<g >
<title>Parloop_Cells_wrap_form0_cell_integral_otherwise (4,655,439 us, 2.03%)</title><rect x="383.6" y="167" width="23.9" height="15.0" fill="rgb(0,0,0)" rx="2" ry="2" />
<text  x="386.58" y="177.5" >P..</text>
</g>
<g >
<title>pyop2.global_kernel.GlobalKernel.compile (643,827 us, 0.28%)</title><rect x="1131.6" y="183" width="3.3" height="15.0" fill="rgb(0,0,0)" rx="2" ry="2" />
<text  x="1134.59" y="193.5" ></text>
</g>
<g >
<title>Parloop_Cells_wrap_form_exterior_facet_top_integral_otherwise (1,502,212 us, 0.65%)</title><rect x="36.4" y="103" width="7.7" height="15.0" fill="rgb(0,0,0)" rx="2" ry="2" />
<text  x="39.42" y="113.5" ></text>
</g>
<g >
<title>Parloop_set_#x7f0e642344c0_wrap_expression_kernel (421,635 us, 0.18%)</title><rect x="74.5" y="135" width="2.2" height="15.0" fill="rgb(0,0,0)" rx="2" ry="2" />
<text  x="77.53" y="145.5" ></text>
</g>
<g >
<title>pyop2.global_kernel.GlobalKernel.compile (2,093,475 us, 0.91%)</title><rect x="61.7" y="119" width="10.7" height="15.0" fill="rgb(0,0,0)" rx="2" ry="2" />
<text  x="64.68" y="129.5" ></text>
</g>
<g >
<title>firedrake.extrusion_utils.make_extruded_coords (930,943 us, 0.41%)</title><rect x="16.7" y="87" width="4.8" height="15.0" fill="rgb(0,0,0)" rx="2" ry="2" />
<text  x="19.67" y="97.5" ></text>
</g>
<g >
<title>Parloop_Cells_wrap_pyop2_kernel_uniform_extrusion (898,747 us, 0.39%)</title><rect x="16.8" y="119" width="4.7" height="15.0" fill="rgb(0,0,0)" rx="2" ry="2" />
<text  x="19.84" y="129.5" ></text>
</g>
<g >
<title>Parloop_IntFacets_wrap_form00_interior_facet_vert_integral_otherwise (2,714,015 us, 1.18%)</title><rect x="276.1" y="135" width="14.0" height="15.0" fill="rgb(0,0,0)" rx="2" ry="2" />
<text  x="279.10" y="145.5" ></text>
</g>
<g >
<title>ParLoopExecute (828,495 us, 0.36%)</title><rect x="72.4" y="119" width="4.3" height="15.0" fill="rgb(0,0,0)" rx="2" ry="2" />
<text  x="75.44" y="129.5" ></text>
</g>
<g >
<title>ParLoopExecute (8,178,530 us, 3.56%)</title><rect x="383.6" y="151" width="42.0" height="15.0" fill="rgb(0,0,0)" rx="2" ry="2" />
<text  x="386.58" y="161.5" >Par..</text>
</g>
<g >
<title>Log_Event_subkernel5_interior_facet_vert_to__exterior_facet_vert_integral_otherwise (49,542 us, 0.02%)</title><rect x="719.5" y="199" width="0.3" height="15.0" fill="rgb(0,0,0)" rx="2" ry="2" />
<text  x="722.55" y="209.5" ></text>
</g>
<g >
<title>firedrake.norms.errornorm (12,958,921 us, 5.65%)</title><rect x="317.0" y="71" width="66.6" height="15.0" fill="rgb(0,0,0)" rx="2" ry="2" />
<text  x="319.95" y="81.5" >firedr..</text>
</g>
<g >
<title>pyop2.global_kernel.GlobalKernel.compile (2,235,949 us, 0.97%)</title><rect x="131.9" y="135" width="11.5" height="15.0" fill="rgb(0,0,0)" rx="2" ry="2" />
<text  x="134.90" y="145.5" ></text>
</g>
<g >
<title>pyop2.global_kernel.GlobalKernel.compile (37,222,987 us, 16.22%)</title><rect x="922.5" y="183" width="191.4" height="15.0" fill="rgb(0,0,0)" rx="2" ry="2" />
<text  x="925.49" y="193.5" >pyop2.global_kernel.Gl..</text>
</g>
<g >
<title>Parloop_Cells_wrap_form1_cell_integral_otherwise (4,524,498 us, 1.97%)</title><rect x="1159.1" y="135" width="23.2" height="15.0" fill="rgb(0,0,0)" rx="2" ry="2" />
<text  x="1162.06" y="145.5" >P..</text>
</g>
<g >
<title>Parloop_ExtFacets_wrap_form0_exterior_facet_vert_integral_otherwise (2,235,949 us, 0.97%)</title><rect x="131.9" y="119" width="11.5" height="15.0" fill="rgb(0,0,0)" rx="2" ry="2" />
<text  x="134.90" y="129.5" ></text>
</g>
<g >
<title>MatMult (44,085 us, 0.02%)</title><rect x="911.3" y="167" width="0.2" height="15.0" fill="rgb(0,0,0)" rx="2" ry="2" />
<text  x="914.27" y="177.5" ></text>
</g>
<g >
<title>ParLoopExecute (898,747 us, 0.39%)</title><rect x="16.8" y="103" width="4.7" height="15.0" fill="rgb(0,0,0)" rx="2" ry="2" />
<text  x="19.84" y="113.5" ></text>
</g>
<g >
<title>pyop2.global_kernel.GlobalKernel.compile (1,377,149 us, 0.60%)</title><rect x="44.1" y="119" width="7.1" height="15.0" fill="rgb(0,0,0)" rx="2" ry="2" />
<text  x="47.14" y="129.5" ></text>
</g>
<g >
<title>HybridRHS (38,659,278 us, 16.84%)</title><rect x="712.5" y="151" width="198.8" height="15.0" fill="rgb(0,0,0)" rx="2" ry="2" />
<text  x="715.50" y="161.5" >HybridRHS</text>
</g>
<g >
<title>ParLoopExecute (37,464,829 us, 16.32%)</title><rect x="921.2" y="151" width="192.7" height="15.0" fill="rgb(0,0,0)" rx="2" ry="2" />
<text  x="924.25" y="161.5" >ParLoopExecute</text>
</g>
<g >
<title>firedrake.parloops.par_loop (958,657 us, 0.42%)</title><rect x="707.6" y="167" width="4.9" height="15.0" fill="rgb(0,0,0)" rx="2" ry="2" />
<text  x="710.57" y="177.5" ></text>
</g>
<g >
<title>Parloop_Cells_wrap_form0_exterior_facet_bottom_integral_otherwise (1,424,301 us, 0.62%)</title><rect x="108.5" y="119" width="7.3" height="15.0" fill="rgb(0,0,0)" rx="2" ry="2" />
<text  x="111.51" y="129.5" ></text>
</g>
<g >
<title>SCSolve (44,085 us, 0.02%)</title><rect x="911.3" y="135" width="0.2" height="15.0" fill="rgb(0,0,0)" rx="2" ry="2" />
<text  x="914.27" y="145.5" ></text>
</g>
<g >
<title>pyop2.global_kernel.GlobalKernel.compile (3,523,091 us, 1.54%)</title><rect x="407.5" y="183" width="18.1" height="15.0" fill="rgb(0,0,0)" rx="2" ry="2" />
<text  x="410.52" y="193.5" ></text>
</g>
<g >
<title>Log_Event_subkernel2_cell_to__cell_integral_otherwise (29,293 us, 0.01%)</title><rect x="922.1" y="183" width="0.2" height="15.0" fill="rgb(0,0,0)" rx="2" ry="2" />
<text  x="925.12" y="193.5" ></text>
</g>
<g >
<title>Log_Event_form00_interior_facet_vert_integral_otherwise (47,409 us, 0.02%)</title><rect x="276.3" y="151" width="0.3" height="15.0" fill="rgb(0,0,0)" rx="2" ry="2" />
<text  x="279.34" y="161.5" ></text>
</g>
<g >
<title>pyop2.global_kernel.GlobalKernel.compile (1,502,212 us, 0.65%)</title><rect x="36.4" y="119" width="7.7" height="15.0" fill="rgb(0,0,0)" rx="2" ry="2" />
<text  x="39.42" y="129.5" ></text>
</g>
<g >
<title>PCSetUpOnBlocks (153,376 us, 0.07%)</title><rect x="307.2" y="119" width="0.7" height="15.0" fill="rgb(0,0,0)" rx="2" ry="2" />
<text  x="310.15" y="129.5" ></text>
</g>
<g >
<title>KSPSolve (36,832 us, 0.02%)</title><rect x="307.0" y="119" width="0.2" height="15.0" fill="rgb(0,0,0)" rx="2" ry="2" />
<text  x="309.96" y="129.5" ></text>
</g>
<g >
<title>Parloop_Cells_wrap_form00_cell_integral_otherwise (14,720,575 us, 6.41%)</title><rect x="156.8" y="135" width="75.7" height="15.0" fill="rgb(0,0,0)" rx="2" ry="2" />
<text  x="159.78" y="145.5" >Parloop..</text>
</g>
<g >
<title>Log_Event_form1_cell_integral_otherwise (24,153 us, 0.01%)</title><rect x="1159.1" y="151" width="0.1" height="15.0" fill="rgb(0,0,0)" rx="2" ry="2" />
<text  x="1162.06" y="161.5" ></text>
</g>
<g >
<title>all (229,501,112 us, 100%)</title><rect x="10.0" y="39" width="1180.0" height="15.0" fill="rgb(0,0,0)" rx="2" ry="2" />
<text  x="13.00" y="49.5" ></text>
</g>
<g >
<title>pyop2.global_kernel.GlobalKernel.compile (2,642,105 us, 1.15%)</title><rect x="262.5" y="151" width="13.6" height="15.0" fill="rgb(0,0,0)" rx="2" ry="2" />
<text  x="265.51" y="161.5" ></text>
</g>
<g >
<title>pyop2.global_kernel.GlobalKernel.compile (406,860 us, 0.18%)</title><rect x="72.4" y="151" width="2.1" height="15.0" fill="rgb(0,0,0)" rx="2" ry="2" />
<text  x="75.44" y="161.5" ></text>
</g>
<g >
<title>pyop2.global_kernel.GlobalKernel.compile (2,601,738 us, 1.13%)</title><rect x="143.4" y="135" width="13.4" height="15.0" fill="rgb(0,0,0)" rx="2" ry="2" />
<text  x="146.40" y="145.5" ></text>
</g>
<g >
<title>pyop2.global_kernel.GlobalKernel.compile (898,747 us, 0.39%)</title><rect x="16.8" y="135" width="4.7" height="15.0" fill="rgb(0,0,0)" rx="2" ry="2" />
<text  x="19.84" y="145.5" ></text>
</g>
<g >
<title>firedrake.parloops.par_loop (643,827 us, 0.28%)</title><rect x="1131.6" y="135" width="3.3" height="15.0" fill="rgb(0,0,0)" rx="2" ry="2" />
<text  x="1134.59" y="145.5" ></text>
</g>
<g >
<title>firedrake.variational_solver.NonlinearVariationalSolver.solve (156,842,164 us, 68.34%)</title><rect x="383.6" y="71" width="806.4" height="15.0" fill="rgb(0,0,0)" rx="2" ry="2" />
<text  x="386.58" y="81.5" >firedrake.variational_solver.NonlinearVariationalSolver.solve</text>
</g>
<g >
<title>firedrake (229,501,112 us, 100.00%)</title><rect x="10.0" y="55" width="1180.0" height="15.0" fill="rgb(0,0,0)" rx="2" ry="2" />
<text  x="13.00" y="65.5" >firedrake</text>
</g>
<g >
<title>SCForwardElim (39,617,935 us, 17.26%)</title><rect x="707.6" y="135" width="203.7" height="15.0" fill="rgb(0,0,0)" rx="2" ry="2" />
<text  x="710.57" y="145.5" >SCForwardElim</text>
</g>
<g >
<title>ParLoopExecute (9,223,579 us, 4.02%)</title><rect x="1134.9" y="119" width="47.4" height="15.0" fill="rgb(0,0,0)" rx="2" ry="2" />
<text  x="1137.90" y="129.5" >ParL..</text>
</g>
<g >
<title>pyop2.global_kernel.GlobalKernel.compile (18,552,049 us, 8.08%)</title><rect x="445.5" y="183" width="95.4" height="15.0" fill="rgb(0,0,0)" rx="2" ry="2" />
<text  x="448.49" y="193.5" >pyop2.glob..</text>
</g>
<g >
<title>ParLoopExecute (11,121,189 us, 4.85%)</title><rect x="317.0" y="119" width="57.1" height="15.0" fill="rgb(0,0,0)" rx="2" ry="2" />
<text  x="319.95" y="129.5" >ParLo..</text>
</g>
<g >
<title>Parloop_Cells_wrap_wrap_slate_loopy_knl_0 (37,464,829 us, 16.32%)</title><rect x="921.2" y="167" width="192.7" height="15.0" fill="rgb(0,0,0)" rx="2" ry="2" />
<text  x="924.25" y="177.5" >Parloop_Cells_wrap_wrap..</text>
</g>
<g >
<title>PCSetUp (43,449,806 us, 18.93%)</title><rect x="911.5" y="103" width="223.4" height="15.0" fill="rgb(0,0,0)" rx="2" ry="2" />
<text  x="914.50" y="113.5" >PCSetUp</text>
</g>
<g >
<title>firedrake.tsfc_interface.compile_form (1,677,004 us, 0.73%)</title><rect x="76.7" y="87" width="8.6" height="15.0" fill="rgb(0,0,0)" rx="2" ry="2" />
<text  x="79.70" y="97.5" ></text>
</g>
<g >
<title>Log_Event_subkernel3_interior_facet_vert_to__exterior_facet_vert_integral_otherwise (43,595 us, 0.02%)</title><rect x="922.3" y="183" width="0.2" height="15.0" fill="rgb(0,0,0)" rx="2" ry="2" />
<text  x="925.27" y="193.5" ></text>
</g>
<g >
<title>pyop2.global_kernel.GlobalKernel.compile (11,121,189 us, 4.85%)</title><rect x="317.0" y="151" width="57.1" height="15.0" fill="rgb(0,0,0)" rx="2" ry="2" />
<text  x="319.95" y="161.5" >pyop2..</text>
</g>
<g >
<title>firedrake.tsfc_interface.compile_form (3,136,386 us, 1.37%)</title><rect x="681.3" y="167" width="16.1" height="15.0" fill="rgb(0,0,0)" rx="2" ry="2" />
<text  x="684.31" y="177.5" ></text>
</g>
<g >
<title>Parloop_set_#x7f0e641f66b0_wrap_expression_kernel (406,860 us, 0.18%)</title><rect x="72.4" y="135" width="2.1" height="15.0" fill="rgb(0,0,0)" rx="2" ry="2" />
<text  x="75.44" y="145.5" ></text>
</g>
<g >
<title>Parloop_Cells_wrap_par_loop_kernel (958,657 us, 0.42%)</title><rect x="707.6" y="199" width="4.9" height="15.0" fill="rgb(0,0,0)" rx="2" ry="2" />
<text  x="710.57" y="209.5" ></text>
</g>
<g >
<title>MatMult (9,417,921 us, 4.10%)</title><rect x="383.6" y="119" width="48.4" height="15.0" fill="rgb(0,0,0)" rx="2" ry="2" />
<text  x="386.58" y="129.5" >MatM..</text>
</g>
<g >
<title>PCApply (93,257,154 us, 40.63%)</title><rect x="432.0" y="119" width="479.5" height="15.0" fill="rgb(0,0,0)" rx="2" ry="2" />
<text  x="435.01" y="129.5" >PCApply</text>
</g>
<g >
<title>pyop2.global_kernel.GlobalKernel.compile (958,657 us, 0.42%)</title><rect x="707.6" y="215" width="4.9" height="15.0" fill="rgb(0,0,0)" rx="2" ry="2" />
<text  x="710.57" y="225.5" ></text>
</g>
<g >
<title>Log_Event_slate_loopy_knl_14 (27,825 us, 0.01%)</title><rect x="445.1" y="183" width="0.1" height="15.0" fill="rgb(0,0,0)" rx="2" ry="2" />
<text  x="448.07" y="193.5" ></text>
</g>
<g >
<title>Parloop_Cells_wrap_form0_cell_integral_otherwise (4,699,081 us, 2.05%)</title><rect x="1134.9" y="135" width="24.2" height="15.0" fill="rgb(0,0,0)" rx="2" ry="2" />
<text  x="1137.90" y="145.5" >P..</text>
</g>
<g >
<title>ParLoopExecute (25,921,223 us, 11.29%)</title><rect x="156.8" y="119" width="133.3" height="15.0" fill="rgb(0,0,0)" rx="2" ry="2" />
<text  x="159.78" y="129.5" >ParLoopExecute</text>
</g>
<g >
<title>firedrake.tsfc_interface.compile_form (2,516,981 us, 1.10%)</title><rect x="898.3" y="167" width="13.0" height="15.0" fill="rgb(0,0,0)" rx="2" ry="2" />
<text  x="901.33" y="177.5" ></text>
</g>
<g >
<title>Log_Event_form0_cell_integral_otherwise (34,965 us, 0.02%)</title><rect x="1134.9" y="151" width="0.2" height="15.0" fill="rgb(0,0,0)" rx="2" ry="2" />
<text  x="1137.90" y="161.5" ></text>
</g>
<g >
<title>Log_Event_slate_loopy_knl_0 (59,106 us, 0.03%)</title><rect x="921.6" y="183" width="0.3" height="15.0" fill="rgb(0,0,0)" rx="2" ry="2" />
<text  x="924.55" y="193.5" ></text>
</g>
<g >
<title>pyop2.global_kernel.GlobalKernel.compile (4,500,345 us, 1.96%)</title><rect x="1159.2" y="151" width="23.1" height="15.0" fill="rgb(0,0,0)" rx="2" ry="2" />
<text  x="1162.18" y="161.5" >p..</text>
</g>
<g >
<title>ParLoopExecute (8,327,509 us, 3.63%)</title><rect x="29.6" y="87" width="42.8" height="15.0" fill="rgb(0,0,0)" rx="2" ry="2" />
<text  x="32.63" y="97.5" >Par..</text>
</g>
<g >
<title>HybridProject (919,376 us, 0.40%)</title><rect x="440.1" y="151" width="4.7" height="15.0" fill="rgb(0,0,0)" rx="2" ry="2" />
<text  x="443.05" y="161.5" ></text>
</g>
<g >
<title>Parloop_IntFacets_wrap_form0_interior_facet_vert_integral_otherwise (2,601,738 us, 1.13%)</title><rect x="143.4" y="119" width="13.4" height="15.0" fill="rgb(0,0,0)" rx="2" ry="2" />
<text  x="146.40" y="129.5" ></text>
</g>
<g >
<title>firedrake.assemble_expressions.assemble_expression (828,495 us, 0.36%)</title><rect x="72.4" y="87" width="4.3" height="15.0" fill="rgb(0,0,0)" rx="2" ry="2" />
<text  x="75.44" y="97.5" ></text>
</g>
<g >
<title>firedrake.norms.norm (12,958,921 us, 5.65%)</title><rect x="317.0" y="87" width="66.6" height="15.0" fill="rgb(0,0,0)" rx="2" ry="2" />
<text  x="319.95" y="97.5" >firedr..</text>
</g>
<g >
<title>Log_Event_slate_loopy_knl_4 (25,341 us, 0.01%)</title><rect x="719.4" y="199" width="0.1" height="15.0" fill="rgb(0,0,0)" rx="2" ry="2" />
<text  x="722.42" y="209.5" ></text>
</g>
<g >
<title>HybridBreak (958,657 us, 0.42%)</title><rect x="707.6" y="151" width="4.9" height="15.0" fill="rgb(0,0,0)" rx="2" ry="2" />
<text  x="710.57" y="161.5" ></text>
</g>
<g >
<title>MatZeroInitial (359,586 us, 0.16%)</title><rect x="294.4" y="135" width="1.8" height="15.0" fill="rgb(0,0,0)" rx="2" ry="2" />
<text  x="297.36" y="145.5" ></text>
</g>
<g >
<title>firedrake.__init__ (1,563,102 us, 0.68%)</title><rect x="21.6" y="71" width="8.0" height="15.0" fill="rgb(0,0,0)" rx="2" ry="2" />
<text  x="24.59" y="81.5" ></text>
</g>
<g >
<title>pyop2.global_kernel.GlobalKernel.compile (1,779,164 us, 0.78%)</title><rect x="232.5" y="151" width="9.1" height="15.0" fill="rgb(0,0,0)" rx="2" ry="2" />
<text  x="235.46" y="161.5" ></text>
</g>
<g >
<title>Parloop_Cells_wrap_form_cell_integral_otherwise (11,121,189 us, 4.85%)</title><rect x="317.0" y="135" width="57.1" height="15.0" fill="rgb(0,0,0)" rx="2" ry="2" />
<text  x="319.95" y="145.5" >Parlo..</text>
</g>
<g >
<title>firedrake.tsfc_interface.compile_form (1,970,082 us, 0.86%)</title><rect x="697.4" y="151" width="10.2" height="15.0" fill="rgb(0,0,0)" rx="2" ry="2" />
<text  x="700.44" y="161.5" ></text>
</g>
<g >
<title>RecoverFirstElim (30,450,586 us, 13.27%)</title><rect x="540.9" y="151" width="156.5" height="15.0" fill="rgb(0,0,0)" rx="2" ry="2" />
<text  x="543.88" y="161.5" >RecoverFirstElim</text>
</g>
<g >
<title>firedrake.assemble.allocate_matrix (106,451 us, 0.05%)</title><rect x="1131.0" y="135" width="0.6" height="15.0" fill="rgb(0,0,0)" rx="2" ry="2" />
<text  x="1134.04" y="145.5" ></text>
</g>
<g >
<title>SCBackSub (53,595,134 us, 23.35%)</title><rect x="432.0" y="135" width="275.6" height="15.0" fill="rgb(0,0,0)" rx="2" ry="2" />
<text  x="435.01" y="145.5" >SCBackSub</text>
</g>
<g >
<title>firedrake.functionspaceimpl.FunctionSpace.__init__ (25,685 us, 0.01%)</title><rect x="21.5" y="87" width="0.1" height="15.0" fill="rgb(0,0,0)" rx="2" ry="2" />
<text  x="24.46" y="97.5" ></text>
</g>
<g >
<title>CreateSparsity (837,357 us, 0.36%)</title><rect x="290.1" y="135" width="4.3" height="15.0" fill="rgb(0,0,0)" rx="2" ry="2" />
<text  x="293.05" y="145.5" ></text>
</g>
<g >
<title>Parloop_Cells_wrap_wrap_slate_loopy_knl_4 (34,796,948 us, 15.16%)</title><rect x="719.4" y="183" width="178.9" height="15.0" fill="rgb(0,0,0)" rx="2" ry="2" />
<text  x="722.42" y="193.5" >Parloop_Cells_wrap_wr..</text>
</g>
<g >
<title>ParLoopExecute (18,690,137 us, 8.14%)</title><rect x="444.8" y="151" width="96.1" height="15.0" fill="rgb(0,0,0)" rx="2" ry="2" />
<text  x="447.78" y="161.5" >ParLoopExe..</text>
</g>
<g >
<title>pyop2.global_kernel.GlobalKernel.compile (4,655,439 us, 2.03%)</title><rect x="383.6" y="183" width="23.9" height="15.0" fill="rgb(0,0,0)" rx="2" ry="2" />
<text  x="386.58" y="193.5" >p..</text>
</g>
<g >
<title>Parloop_IntFacets_wrap_form_interior_facet_vert_integral_otherwise (2,093,475 us, 0.91%)</title><rect x="61.7" y="103" width="10.7" height="15.0" fill="rgb(0,0,0)" rx="2" ry="2" />
<text  x="64.68" y="113.5" ></text>
</g>
<g >
<title>solve_getrf (25,341 us, 0.01%)</title><rect x="719.4" y="215" width="0.1" height="15.0" fill="rgb(0,0,0)" rx="2" ry="2" />
<text  x="722.42" y="225.5" ></text>
</g>
<g >
<title>pyop2.global_kernel.GlobalKernel.compile (1,687,004 us, 0.74%)</title><rect x="123.2" y="135" width="8.7" height="15.0" fill="rgb(0,0,0)" rx="2" ry="2" />
<text  x="126.23" y="145.5" ></text>
</g>
<g >
<title>Parloop_Cells_wrap_form00_exterior_facet_bottom_integral_otherwise (1,779,164 us, 0.78%)</title><rect x="232.5" y="135" width="9.1" height="15.0" fill="rgb(0,0,0)" rx="2" ry="2" />
<text  x="235.46" y="145.5" ></text>
</g>
<g >
<title>pyop2.global_kernel.GlobalKernel.compile (4,508,369 us, 1.96%)</title><rect x="85.3" y="135" width="23.2" height="15.0" fill="rgb(0,0,0)" rx="2" ry="2" />
<text  x="88.33" y="145.5" >p..</text>
</g>
<g >
<title>pyop2.global_kernel.GlobalKernel.compile (1,820,830 us, 0.79%)</title><rect x="241.6" y="151" width="9.4" height="15.0" fill="rgb(0,0,0)" rx="2" ry="2" />
<text  x="244.61" y="161.5" ></text>
</g>
<g >
<title>pyop2.global_kernel.GlobalKernel.compile (25,250,270 us, 11.00%)</title><rect x="551.5" y="199" width="129.8" height="15.0" fill="rgb(0,0,0)" rx="2" ry="2" />
<text  x="554.49" y="209.5" >pyop2.global_k..</text>
</g>
<g >
<title>pyop2.global_kernel.GlobalKernel.compile (1,424,301 us, 0.62%)</title><rect x="108.5" y="135" width="7.3" height="15.0" fill="rgb(0,0,0)" rx="2" ry="2" />
<text  x="111.51" y="145.5" ></text>
</g>
<g >
<title>inv_getri (31,731 us, 0.01%)</title><rect x="921.7" y="199" width="0.2" height="15.0" fill="rgb(0,0,0)" rx="2" ry="2" />
<text  x="924.69" y="209.5" ></text>
</g>
<g >
<title>firedrake.function.Function.project (45,049,855 us, 19.63%)</title><rect x="85.3" y="71" width="231.7" height="15.0" fill="rgb(0,0,0)" rx="2" ry="2" />
<text  x="88.33" y="81.5" >firedrake.function.Function...</text>
</g>
<g >
<title>MatZeroInitial (23,524 us, 0.01%)</title><rect x="1131.5" y="151" width="0.1" height="15.0" fill="rgb(0,0,0)" rx="2" ry="2" />
<text  x="1134.46" y="161.5" ></text>
</g>
<g >
<title>firedrake.linear_solver.LinearSolver.solve (190,208 us, 0.08%)</title><rect x="307.0" y="103" width="0.9" height="15.0" fill="rgb(0,0,0)" rx="2" ry="2" />
<text  x="309.96" y="113.5" ></text>
</g>
<g >
<title>pyop2.global_kernel.GlobalKernel.compile (2,033,372 us, 0.89%)</title><rect x="51.2" y="119" width="10.5" height="15.0" fill="rgb(0,0,0)" rx="2" ry="2" />
<text  x="54.22" y="129.5" ></text>
</g>
<g >
<title>pyop2.global_kernel.GlobalKernel.compile (34,693,899 us, 15.12%)</title><rect x="719.9" y="199" width="178.4" height="15.0" fill="rgb(0,0,0)" rx="2" ry="2" />
<text  x="722.95" y="209.5" >pyop2.global_kernel.G..</text>
</g>
<g >
<title>firedrake.assemble_expressions.evaluate_expression (828,495 us, 0.36%)</title><rect x="72.4" y="103" width="4.3" height="15.0" fill="rgb(0,0,0)" rx="2" ry="2" />
<text  x="75.44" y="113.5" ></text>
</g>
<g >
<title>firedrake.tsfc_interface.compile_form (1,752,838 us, 0.76%)</title><rect x="307.9" y="103" width="9.1" height="15.0" fill="rgb(0,0,0)" rx="2" ry="2" />
<text  x="310.94" y="113.5" ></text>
</g>
<g >
<title>pyop2.global_kernel.GlobalKernel.compile (2,619,125 us, 1.14%)</title><rect x="276.6" y="151" width="13.5" height="15.0" fill="rgb(0,0,0)" rx="2" ry="2" />
<text  x="279.59" y="161.5" ></text>
</g>
<g >
<title>pyop2.global_kernel.GlobalKernel.compile (919,376 us, 0.40%)</title><rect x="440.1" y="215" width="4.7" height="15.0" fill="rgb(0,0,0)" rx="2" ry="2" />
<text  x="443.05" y="225.5" ></text>
</g>
<g >
<title>firedrake.tsfc_interface.compile_form (1,493,704 us, 0.65%)</title><rect x="1182.3" y="119" width="7.7" height="15.0" fill="rgb(0,0,0)" rx="2" ry="2" />
<text  x="1185.32" y="129.5" ></text>
</g>
<g >
<title>Parloop_Cells_wrap_form00_exterior_facet_top_integral_otherwise (1,820,830 us, 0.79%)</title><rect x="241.6" y="135" width="9.4" height="15.0" fill="rgb(0,0,0)" rx="2" ry="2" />
<text  x="244.61" y="145.5" ></text>
</g>
<g >
<title>CreateFunctionSpace (25,685 us, 0.01%)</title><rect x="21.5" y="71" width="0.1" height="15.0" fill="rgb(0,0,0)" rx="2" ry="2" />
<text  x="24.46" y="81.5" ></text>
</g>
<g >
<title>Log_Event_slate_loopy_knl_7 (88,572 us, 0.04%)</title><rect x="550.8" y="199" width="0.5" height="15.0" fill="rgb(0,0,0)" rx="2" ry="2" />
<text  x="553.80" y="209.5" ></text>
</g>
<g >
<title>Parloop_Cells_wrap_form1_cell_integral_otherwise (3,523,091 us, 1.54%)</title><rect x="407.5" y="167" width="18.1" height="15.0" fill="rgb(0,0,0)" rx="2" ry="2" />
<text  x="410.52" y="177.5" ></text>
</g>
<g >
<title>ParLoopExecute (25,442,855 us, 11.09%)</title><rect x="550.5" y="167" width="130.8" height="15.0" fill="rgb(0,0,0)" rx="2" ry="2" />
<text  x="553.50" y="177.5" >ParLoopExecute</text>
</g>
<g >
<title>Parloop_Cells_wrap_form_exterior_facet_bottom_integral_otherwise (1,321,301 us, 0.58%)</title><rect x="29.6" y="103" width="6.8" height="15.0" fill="rgb(0,0,0)" rx="2" ry="2" />
<text  x="32.63" y="113.5" ></text>
</g>
<g >
<title>SNESSolve (156,842,164 us, 68.34%)</title><rect x="383.6" y="87" width="806.4" height="15.0" fill="rgb(0,0,0)" rx="2" ry="2" />
<text  x="386.58" y="97.5" >SNESSolve</text>
</g>
<g >
<title>firedrake.functionspacedata.FunctionSpaceData.__init__ (25,685 us, 0.01%)</title><rect x="21.5" y="119" width="0.1" height="15.0" fill="rgb(0,0,0)" rx="2" ry="2" />
<text  x="24.46" y="129.5" ></text>
</g>
<g >
<title>Parloop_Cells_wrap_wrap_slate_loopy_knl_7 (25,442,855 us, 11.09%)</title><rect x="550.5" y="183" width="130.8" height="15.0" fill="rgb(0,0,0)" rx="2" ry="2" />
<text  x="553.50" y="193.5" >Parloop_Cells_w..</text>
</g>
<g >
<title>firedrake.assemble.assemble (29,210,075 us, 12.73%)</title><rect x="156.8" y="103" width="150.2" height="15.0" fill="rgb(0,0,0)" rx="2" ry="2" />
<text  x="159.78" y="113.5" >firedrake.assembl..</text>
</g>
<g >
<title>pyop2.global_kernel.GlobalKernel.compile (421,635 us, 0.18%)</title><rect x="74.5" y="151" width="2.2" height="15.0" fill="rgb(0,0,0)" rx="2" ry="2" />
<text  x="77.53" y="161.5" ></text>
</g>
<g >
<title>Log_Event_subkernel13_interior_facet_vert_to__exterior_facet_vert_integral_otherwise (45,292 us, 0.02%)</title><rect x="551.3" y="199" width="0.2" height="15.0" fill="rgb(0,0,0)" rx="2" ry="2" />
<text  x="554.25" y="209.5" ></text>
</g>
<g >
<title>Log_Event_subkernel17_interior_facet_vert_to__exterior_facet_vert_integral_otherwise (53,885 us, 0.02%)</title><rect x="445.2" y="183" width="0.3" height="15.0" fill="rgb(0,0,0)" rx="2" ry="2" />
<text  x="448.21" y="193.5" ></text>
</g>
<g >
<title>firedrake.parloops.par_loop (919,376 us, 0.40%)</title><rect x="440.1" y="167" width="4.7" height="15.0" fill="rgb(0,0,0)" rx="2" ry="2" />
<text  x="443.05" y="177.5" ></text>
</g>
<g >
<title>firedrake.matrix_free.operators.ImplicitMatrixContext.mult (9,417,921 us, 4.10%)</title><rect x="383.6" y="135" width="48.4" height="15.0" fill="rgb(0,0,0)" rx="2" ry="2" />
<text  x="386.58" y="145.5" >fire..</text>
</g>
<g >
<title>SNESFunctionEval (10,717,283 us, 4.67%)</title><rect x="1134.9" y="103" width="55.1" height="15.0" fill="rgb(0,0,0)" rx="2" ry="2" />
<text  x="1137.90" y="113.5" >SNESF..</text>
</g>
<g >
<title>firedrake.assemble.assemble (10,833,008 us, 4.72%)</title><rect x="29.6" y="71" width="55.7" height="15.0" fill="rgb(0,0,0)" rx="2" ry="2" />
<text  x="32.63" y="81.5" >fired..</text>
</g>
<g >
<title>pyop2.global_kernel.GlobalKernel.compile (1,321,301 us, 0.58%)</title><rect x="29.6" y="119" width="6.8" height="15.0" fill="rgb(0,0,0)" rx="2" ry="2" />
<text  x="32.63" y="129.5" ></text>
</g>
<g >
<title>Log_Event_subkernel6_cell_to__cell_integral_otherwise (28,166 us, 0.01%)</title><rect x="719.8" y="199" width="0.1" height="15.0" fill="rgb(0,0,0)" rx="2" ry="2" />
<text  x="722.80" y="209.5" ></text>
</g>
<g >
<title>Parloop_Cells_wrap_form0_cell_integral_otherwise (4,508,369 us, 1.96%)</title><rect x="85.3" y="119" width="23.2" height="15.0" fill="rgb(0,0,0)" rx="2" ry="2" />
<text  x="88.33" y="129.5" >P..</text>
</g>
<g >
<title>pyop2.global_kernel.GlobalKernel.compile (1,439,373 us, 0.63%)</title><rect x="115.8" y="135" width="7.4" height="15.0" fill="rgb(0,0,0)" rx="2" ry="2" />
<text  x="118.83" y="145.5" ></text>
</g>
<g >
<title>ParLoopExecute (643,827 us, 0.28%)</title><rect x="1131.6" y="151" width="3.3" height="15.0" fill="rgb(0,0,0)" rx="2" ry="2" />
<text  x="1134.59" y="161.5" ></text>
</g>
<g >
<title>firedrake.projection.project (45,049,855 us, 19.63%)</title><rect x="85.3" y="87" width="231.7" height="15.0" fill="rgb(0,0,0)" rx="2" ry="2" />
<text  x="88.33" y="97.5" >firedrake.projection.project</text>
</g>
<g >
<title>firedrake.assemble.allocate_matrix (1,196,943 us, 0.52%)</title><rect x="290.1" y="119" width="6.1" height="15.0" fill="rgb(0,0,0)" rx="2" ry="2" />
<text  x="293.05" y="129.5" ></text>
</g>
<g >
<title>CreateExtMesh (930,943 us, 0.41%)</title><rect x="16.7" y="71" width="4.8" height="15.0" fill="rgb(0,0,0)" rx="2" ry="2" />
<text  x="19.67" y="81.5" ></text>
</g>
<g >
<title>pyop2.global_kernel.GlobalKernel.compile (4,664,116 us, 2.03%)</title><rect x="1135.1" y="151" width="24.0" height="15.0" fill="rgb(0,0,0)" rx="2" ry="2" />
<text  x="1138.08" y="161.5" >p..</text>
</g>
<g >
<title>firedrake.tsfc_interface.compile_form (2,091,909 us, 0.91%)</title><rect x="296.2" y="119" width="10.8" height="15.0" fill="rgb(0,0,0)" rx="2" ry="2" />
<text  x="299.21" y="129.5" ></text>
</g>
<g >
<title>pyop2.global_kernel.GlobalKernel.compile (2,213,721 us, 0.96%)</title><rect x="251.1" y="151" width="11.4" height="15.0" fill="rgb(0,0,0)" rx="2" ry="2" />
<text  x="254.13" y="161.5" ></text>
</g>
<g >
<title>firedrake.assemble.assemble (12,958,921 us, 5.65%)</title><rect x="317.0" y="103" width="66.6" height="15.0" fill="rgb(0,0,0)" rx="2" ry="2" />
<text  x="319.95" y="113.5" >firedr..</text>
</g>
<g >
<title>solve_getrf (36,417 us, 0.02%)</title><rect x="551.1" y="215" width="0.2" height="15.0" fill="rgb(0,0,0)" rx="2" ry="2" />
<text  x="554.07" y="225.5" ></text>
</g>
<g >
<title>Log_Event_subkernel1_interior_facet_vert_to__exterior_facet_vert_integral_otherwise (50,118 us, 0.02%)</title><rect x="921.9" y="183" width="0.2" height="15.0" fill="rgb(0,0,0)" rx="2" ry="2" />
<text  x="924.86" y="193.5" ></text>
</g>
<g >
<title>HybridOperatorAssembly (42,629,907 us, 18.58%)</title><rect x="911.9" y="135" width="219.1" height="15.0" fill="rgb(0,0,0)" rx="2" ry="2" />
<text  x="914.85" y="145.5" >HybridOperatorAssembly</text>
</g>
<g >
<title>Parloop_Cells_wrap_wrap_slate_loopy_knl_14 (18,690,137 us, 8.14%)</title><rect x="444.8" y="167" width="96.1" height="15.0" fill="rgb(0,0,0)" rx="2" ry="2" />
<text  x="447.78" y="177.5" >Parloop_Ce..</text>
</g>
<g >
<title>Parloop_Cells_wrap_par_loop_kernel (919,376 us, 0.40%)</title><rect x="440.1" y="199" width="4.7" height="15.0" fill="rgb(0,0,0)" rx="2" ry="2" />
<text  x="443.05" y="209.5" ></text>
</g>
<g >
<title>Log_Event_form00_cell_integral_otherwise (31,793 us, 0.01%)</title><rect x="156.9" y="151" width="0.2" height="15.0" fill="rgb(0,0,0)" rx="2" ry="2" />
<text  x="159.94" y="161.5" ></text>
</g>
<g >
<title>ParLoopExecute (34,796,948 us, 15.16%)</title><rect x="719.4" y="167" width="178.9" height="15.0" fill="rgb(0,0,0)" rx="2" ry="2" />
<text  x="722.42" y="177.5" >ParLoopExecute</text>
</g>
<g >
<title>Parloop_Cells_wrap_form0_interior_facet_horiz_integral_otherwise (1,687,004 us, 0.74%)</title><rect x="123.2" y="119" width="8.7" height="15.0" fill="rgb(0,0,0)" rx="2" ry="2" />
<text  x="126.23" y="129.5" ></text>
</g>
<g >
<title>Parloop_Cells_wrap_form0_exterior_facet_top_integral_otherwise (1,439,373 us, 0.63%)</title><rect x="115.8" y="119" width="7.4" height="15.0" fill="rgb(0,0,0)" rx="2" ry="2" />
<text  x="118.83" y="129.5" ></text>
</g>
<g >
<title>firedrake.tsfc_interface.compile_form (1,239,391 us, 0.54%)</title><rect x="425.6" y="151" width="6.4" height="15.0" fill="rgb(0,0,0)" rx="2" ry="2" />
<text  x="428.63" y="161.5" ></text>
</g>
<g >
<title>firedrake.tsfc_interface.compile_form (3,338,032 us, 1.45%)</title><rect x="1113.9" y="151" width="17.1" height="15.0" fill="rgb(0,0,0)" rx="2" ry="2" />
<text  x="1116.88" y="161.5" ></text>
</g>
<g >
<title>firedrake.functionspacedata.get_shared_data (25,685 us, 0.01%)</title><rect x="21.5" y="103" width="0.1" height="15.0" fill="rgb(0,0,0)" rx="2" ry="2" />
<text  x="24.46" y="113.5" ></text>
</g>
<g >
<title>ParLoopExecute (13,896,734 us, 6.06%)</title><rect x="85.3" y="103" width="71.5" height="15.0" fill="rgb(0,0,0)" rx="2" ry="2" />
<text  x="88.33" y="113.5" >ParLoop..</text>
</g>
<g >
<title>PCSetUp (153,376 us, 0.07%)</title><rect x="307.2" y="135" width="0.7" height="15.0" fill="rgb(0,0,0)" rx="2" ry="2" />
<text  x="310.15" y="145.5" ></text>
</g>
<g >
<title>CreateSparsity (82,927 us, 0.04%)</title><rect x="1131.0" y="151" width="0.5" height="15.0" fill="rgb(0,0,0)" rx="2" ry="2" />
<text  x="1134.04" y="161.5" ></text>
</g>
<g >
<title>Parloop_ExtFacets_wrap_form_exterior_facet_vert_integral_otherwise (2,033,372 us, 0.89%)</title><rect x="51.2" y="103" width="10.5" height="15.0" fill="rgb(0,0,0)" rx="2" ry="2" />
<text  x="54.22" y="113.5" ></text>
</g>
<g >
<title>Parloop_Cells_wrap_form00_interior_facet_horiz_integral_otherwise (2,244,534 us, 0.98%)</title><rect x="251.0" y="135" width="11.5" height="15.0" fill="rgb(0,0,0)" rx="2" ry="2" />
<text  x="253.97" y="145.5" ></text>
</g>
<g >
<title>MatCholFctrNum (153,376 us, 0.07%)</title><rect x="307.2" y="151" width="0.7" height="15.0" fill="rgb(0,0,0)" rx="2" ry="2" />
<text  x="310.15" y="161.5" ></text>
</g>
<g >
<title>firedrake.tsfc_interface.compile_form (1,837,732 us, 0.80%)</title><rect x="374.1" y="119" width="9.5" height="15.0" fill="rgb(0,0,0)" rx="2" ry="2" />
<text  x="377.13" y="129.5" ></text>
</g>
<g >
<title>ParLoopExecute (958,657 us, 0.42%)</title><rect x="707.6" y="183" width="4.9" height="15.0" fill="rgb(0,0,0)" rx="2" ry="2" />
<text  x="710.57" y="193.5" ></text>
</g>
<g >
<title>inv_getrf (27,375 us, 0.01%)</title><rect x="921.6" y="199" width="0.1" height="15.0" fill="rgb(0,0,0)" rx="2" ry="2" />
<text  x="924.55" y="209.5" ></text>
</g>
<g >
<title>HybridInit (43,449,806 us, 18.93%)</title><rect x="911.5" y="119" width="223.4" height="15.0" fill="rgb(0,0,0)" rx="2" ry="2" />
<text  x="914.50" y="129.5" >HybridInit</text>
</g>
<g >
<title>KSPSolve (102,675,075 us, 44.74%)</title><rect x="383.6" y="103" width="527.9" height="15.0" fill="rgb(0,0,0)" rx="2" ry="2" />
<text  x="386.58" y="113.5" >KSPSolve</text>
</g>
<g >
<title>KSPSolve (44,085 us, 0.02%)</title><rect x="911.3" y="151" width="0.2" height="15.0" fill="rgb(0,0,0)" rx="2" ry="2" />
<text  x="914.27" y="161.5" ></text>
</g>
<g >
<title>ParLoopExecute (919,376 us, 0.40%)</title><rect x="440.1" y="183" width="4.7" height="15.0" fill="rgb(0,0,0)" rx="2" ry="2" />
<text  x="443.05" y="193.5" ></text>
</g>
<g >
<title>Parloop_Cells_wrap_par_loop_kernel (643,827 us, 0.28%)</title><rect x="1131.6" y="167" width="3.3" height="15.0" fill="rgb(0,0,0)" rx="2" ry="2" />
<text  x="1134.59" y="177.5" ></text>
</g>
<g >
<title>Parloop_Cells_wrap_form_interior_facet_horiz_integral_otherwise (1,377,149 us, 0.60%)</title><rect x="44.1" y="103" width="7.1" height="15.0" fill="rgb(0,0,0)" rx="2" ry="2" />
<text  x="47.14" y="113.5" ></text>
</g>
<g >
<title>pyop2.global_kernel.GlobalKernel.compile (14,657,568 us, 6.39%)</title><rect x="157.1" y="151" width="75.4" height="15.0" fill="rgb(0,0,0)" rx="2" ry="2" />
<text  x="160.10" y="161.5" >pyop2.g..</text>
</g>
</g>
</svg>
