<?xml version="1.0" standalone="no"?>
<!DOCTYPE svg PUBLIC "-//W3C//DTD SVG 1.1//EN" "http://www.w3.org/Graphics/SVG/1.1/DTD/svg11.dtd">
<svg version="1.1" width="1200" height="379" onload="init(evt)" viewBox="0 0 1200 379" xmlns="http://www.w3.org/2000/svg" xmlns:xlink="http://www.w3.org/1999/xlink">
<!-- Flame graph stack visualization. See https://github.com/brendangregg/FlameGraph for latest version, and http://www.brendangregg.com/flamegraphs.html for examples. -->
<!-- NOTES:  -->
<defs>
	<linearGradient id="background" y1="0" y2="1" x1="0" x2="0" >
		<stop stop-color="#eeeeee" offset="5%" />
		<stop stop-color="#eeeeb0" offset="95%" />
	</linearGradient>
</defs>
<style type="text/css">
	text { font-family:Verdana; font-size:13px; fill:rgb(0,0,0); }
	#search, #ignorecase { opacity:0.1; cursor:pointer; }
	#search:hover, #search.show, #ignorecase:hover, #ignorecase.show { opacity:1; }
	#subtitle { text-anchor:middle; font-color:rgb(160,160,160); }
	#title { text-anchor:middle; font-size:18px}
	#unzoom { cursor:pointer; }
	#frames > *:hover { stroke:black; stroke-width:0.5; cursor:pointer; }
	.hide { display:none; }
	.parent { opacity:0.5; }
</style>
<script type="text/ecmascript">
<![CDATA[
	"use strict";
	var details, searchbtn, unzoombtn, matchedtxt, svg, searching, currentSearchTerm, ignorecase, ignorecaseBtn;
	function init(evt) {
		details = document.getElementById("details").firstChild;
		searchbtn = document.getElementById("search");
		ignorecaseBtn = document.getElementById("ignorecase");
		unzoombtn = document.getElementById("unzoom");
		matchedtxt = document.getElementById("matched");
		svg = document.getElementsByTagName("svg")[0];
		searching = 0;
		currentSearchTerm = null;

		// use GET parameters to restore a flamegraphs state.
		var params = get_params();
		if (params.x && params.y)
			zoom(find_group(document.querySelector('[x="' + params.x + '"][y="' + params.y + '"]')));
                if (params.s) search(params.s);
	}

	// event listeners
	window.addEventListener("click", function(e) {
		var target = find_group(e.target);
		if (target) {
			if (target.nodeName == "a") {
				if (e.ctrlKey === false) return;
				e.preventDefault();
			}
			if (target.classList.contains("parent")) unzoom();
			zoom(target);
			if (!document.querySelector('.parent')) {
				clearzoom();
				return;
			}

			// set parameters for zoom state
			var el = target.querySelector("rect");
			if (el && el.attributes && el.attributes.y && el.attributes._orig_x) {
				var params = get_params()
				params.x = el.attributes._orig_x.value;
				params.y = el.attributes.y.value;
				history.replaceState(null, null, parse_params(params));
			}
		}
		else if (e.target.id == "unzoom") clearzoom();
		else if (e.target.id == "search") search_prompt();
		else if (e.target.id == "ignorecase") toggle_ignorecase();
	}, false)

	// mouse-over for info
	// show
	window.addEventListener("mouseover", function(e) {
		var target = find_group(e.target);
		if (target) details.nodeValue = "Function: " + g_to_text(target);
	}, false)

	// clear
	window.addEventListener("mouseout", function(e) {
		var target = find_group(e.target);
		if (target) details.nodeValue = ' ';
	}, false)

	// ctrl-F for search
	// ctrl-I to toggle case-sensitive search
	window.addEventListener("keydown",function (e) {
		if (e.keyCode === 114 || (e.ctrlKey && e.keyCode === 70)) {
			e.preventDefault();
			search_prompt();
		}
		else if (e.ctrlKey && e.keyCode === 73) {
			e.preventDefault();
			toggle_ignorecase();
		}
	}, false)

	// functions
	function get_params() {
		var params = {};
		var paramsarr = window.location.search.substr(1).split('&');
		for (var i = 0; i < paramsarr.length; ++i) {
			var tmp = paramsarr[i].split("=");
			if (!tmp[0] || !tmp[1]) continue;
			params[tmp[0]]  = decodeURIComponent(tmp[1]);
		}
		return params;
	}
	function parse_params(params) {
		var uri = "?";
		for (var key in params) {
			uri += key + '=' + encodeURIComponent(params[key]) + '&';
		}
		if (uri.slice(-1) == "&")
			uri = uri.substring(0, uri.length - 1);
		if (uri == '?')
			uri = window.location.href.split('?')[0];
		return uri;
	}
	function find_child(node, selector) {
		var children = node.querySelectorAll(selector);
		if (children.length) return children[0];
	}
	function find_group(node) {
		var parent = node.parentElement;
		if (!parent) return;
		if (parent.id == "frames") return node;
		return find_group(parent);
	}
	function orig_save(e, attr, val) {
		if (e.attributes["_orig_" + attr] != undefined) return;
		if (e.attributes[attr] == undefined) return;
		if (val == undefined) val = e.attributes[attr].value;
		e.setAttribute("_orig_" + attr, val);
	}
	function orig_load(e, attr) {
		if (e.attributes["_orig_"+attr] == undefined) return;
		e.attributes[attr].value = e.attributes["_orig_" + attr].value;
		e.removeAttribute("_orig_"+attr);
	}
	function g_to_text(e) {
		var text = find_child(e, "title").firstChild.nodeValue;
		return (text)
	}
	function g_to_func(e) {
		var func = g_to_text(e);
		// if there's any manipulation we want to do to the function
		// name before it's searched, do it here before returning.
		return (func);
	}
	function update_text(e) {
		var r = find_child(e, "rect");
		var t = find_child(e, "text");
		var w = parseFloat(r.attributes.width.value) -3;
		var txt = find_child(e, "title").textContent.replace(/\([^(]*\)$/,"");
		t.attributes.x.value = parseFloat(r.attributes.x.value) + 3;

		// Smaller than this size won't fit anything
		if (w < 2 * 13 * 0.59) {
			t.textContent = "";
			return;
		}

		t.textContent = txt;
		// Fit in full text width
		if (/^ *$/.test(txt) || t.getSubStringLength(0, txt.length) < w)
			return;

		for (var x = txt.length - 2; x > 0; x--) {
			if (t.getSubStringLength(0, x + 2) <= w) {
				t.textContent = txt.substring(0, x) + "..";
				return;
			}
		}
		t.textContent = "";
	}

	// zoom
	function zoom_reset(e) {
		if (e.attributes != undefined) {
			orig_load(e, "x");
			orig_load(e, "width");
		}
		if (e.childNodes == undefined) return;
		for (var i = 0, c = e.childNodes; i < c.length; i++) {
			zoom_reset(c[i]);
		}
	}
	function zoom_child(e, x, ratio) {
		if (e.attributes != undefined) {
			if (e.attributes.x != undefined) {
				orig_save(e, "x");
				e.attributes.x.value = (parseFloat(e.attributes.x.value) - x - 10) * ratio + 10;
				if (e.tagName == "text")
					e.attributes.x.value = find_child(e.parentNode, "rect[x]").attributes.x.value + 3;
			}
			if (e.attributes.width != undefined) {
				orig_save(e, "width");
				e.attributes.width.value = parseFloat(e.attributes.width.value) * ratio;
			}
		}

		if (e.childNodes == undefined) return;
		for (var i = 0, c = e.childNodes; i < c.length; i++) {
			zoom_child(c[i], x - 10, ratio);
		}
	}
	function zoom_parent(e) {
		if (e.attributes) {
			if (e.attributes.x != undefined) {
				orig_save(e, "x");
				e.attributes.x.value = 10;
			}
			if (e.attributes.width != undefined) {
				orig_save(e, "width");
				e.attributes.width.value = parseInt(svg.width.baseVal.value) - (10 * 2);
			}
		}
		if (e.childNodes == undefined) return;
		for (var i = 0, c = e.childNodes; i < c.length; i++) {
			zoom_parent(c[i]);
		}
	}
	function zoom(node) {
		var attr = find_child(node, "rect").attributes;
		var width = parseFloat(attr.width.value);
		var xmin = parseFloat(attr.x.value);
		var xmax = parseFloat(xmin + width);
		var ymin = parseFloat(attr.y.value);
		var ratio = (svg.width.baseVal.value - 2 * 10) / width;

		// XXX: Workaround for JavaScript float issues (fix me)
		var fudge = 0.0001;

		unzoombtn.classList.remove("hide");

		var el = document.getElementById("frames").children;
		for (var i = 0; i < el.length; i++) {
			var e = el[i];
			var a = find_child(e, "rect").attributes;
			var ex = parseFloat(a.x.value);
			var ew = parseFloat(a.width.value);
			var upstack;
			// Is it an ancestor
			if (1 == 0) {
				upstack = parseFloat(a.y.value) > ymin;
			} else {
				upstack = parseFloat(a.y.value) < ymin;
			}
			if (upstack) {
				// Direct ancestor
				if (ex <= xmin && (ex+ew+fudge) >= xmax) {
					e.classList.add("parent");
					zoom_parent(e);
					update_text(e);
				}
				// not in current path
				else
					e.classList.add("hide");
			}
			// Children maybe
			else {
				// no common path
				if (ex < xmin || ex + fudge >= xmax) {
					e.classList.add("hide");
				}
				else {
					zoom_child(e, xmin, ratio);
					update_text(e);
				}
			}
		}
		search();
	}
	function unzoom() {
		unzoombtn.classList.add("hide");
		var el = document.getElementById("frames").children;
		for(var i = 0; i < el.length; i++) {
			el[i].classList.remove("parent");
			el[i].classList.remove("hide");
			zoom_reset(el[i]);
			update_text(el[i]);
		}
		search();
	}
	function clearzoom() {
		unzoom();

		// remove zoom state
		var params = get_params();
		if (params.x) delete params.x;
		if (params.y) delete params.y;
		history.replaceState(null, null, parse_params(params));
	}

	// search
	function toggle_ignorecase() {
		ignorecase = !ignorecase;
		if (ignorecase) {
			ignorecaseBtn.classList.add("show");
		} else {
			ignorecaseBtn.classList.remove("show");
		}
		reset_search();
		search();
	}
	function reset_search() {
		var el = document.querySelectorAll("#frames rect");
		for (var i = 0; i < el.length; i++) {
			orig_load(el[i], "fill")
		}
		var params = get_params();
		delete params.s;
		history.replaceState(null, null, parse_params(params));
	}
	function search_prompt() {
		if (!searching) {
			var term = prompt("Enter a search term (regexp " +
			    "allowed, eg: ^ext4_)"
			    + (ignorecase ? ", ignoring case" : "")
			    + "\nPress Ctrl-i to toggle case sensitivity", "");
			if (term != null) search(term);
		} else {
			reset_search();
			searching = 0;
			currentSearchTerm = null;
			searchbtn.classList.remove("show");
			searchbtn.firstChild.nodeValue = "Search"
			matchedtxt.classList.add("hide");
			matchedtxt.firstChild.nodeValue = ""
		}
	}
	function search(term) {
		if (term) currentSearchTerm = term;

		var re = new RegExp(currentSearchTerm, ignorecase ? 'i' : '');
		var el = document.getElementById("frames").children;
		var matches = new Object();
		var maxwidth = 0;
		for (var i = 0; i < el.length; i++) {
			var e = el[i];
			var func = g_to_func(e);
			var rect = find_child(e, "rect");
			if (func == null || rect == null)
				continue;

			// Save max width. Only works as we have a root frame
			var w = parseFloat(rect.attributes.width.value);
			if (w > maxwidth)
				maxwidth = w;

			if (func.match(re)) {
				// highlight
				var x = parseFloat(rect.attributes.x.value);
				orig_save(rect, "fill");
				rect.attributes.fill.value = "rgb(230,0,230)";

				// remember matches
				if (matches[x] == undefined) {
					matches[x] = w;
				} else {
					if (w > matches[x]) {
						// overwrite with parent
						matches[x] = w;
					}
				}
				searching = 1;
			}
		}
		if (!searching)
			return;
		var params = get_params();
		params.s = currentSearchTerm;
		history.replaceState(null, null, parse_params(params));

		searchbtn.classList.add("show");
		searchbtn.firstChild.nodeValue = "Reset Search";

		// calculate percent matched, excluding vertical overlap
		var count = 0;
		var lastx = -1;
		var lastw = 0;
		var keys = Array();
		for (k in matches) {
			if (matches.hasOwnProperty(k))
				keys.push(k);
		}
		// sort the matched frames by their x location
		// ascending, then width descending
		keys.sort(function(a, b){
			return a - b;
		});
		// Step through frames saving only the biggest bottom-up frames
		// thanks to the sort order. This relies on the tree property
		// where children are always smaller than their parents.
		var fudge = 0.0001;	// JavaScript floating point
		for (var k in keys) {
			var x = parseFloat(keys[k]);
			var w = matches[keys[k]];
			if (x >= lastx + lastw - fudge) {
				count += w;
				lastx = x;
				lastw = w;
			}
		}
		// display matched percent
		matchedtxt.classList.remove("hide");
		var pct = 100 * count / maxwidth;
		if (pct != 100) pct = pct.toFixed(1)
		matchedtxt.firstChild.nodeValue = "Matched: " + pct + "%";
	}
]]>
</script>
<rect x="0.0" y="0" width="1200.0" height="379.0" fill="url(#background)"  />
<text id="title" x="600.00" y="26" >Firedrake example</text>
<text id="details" x="10.00" y="361" > </text>
<text id="unzoom" x="10.00" y="26" class="hide">Reset Zoom</text>
<text id="search" x="1090.00" y="26" >Search</text>
<text id="ignorecase" x="1174.00" y="26" >ic</text>
<text id="matched" x="1090.00" y="361" > </text>
<g id="frames">
<g >
<title>PCSetUp (3,439,313 us, 0.52%)</title><rect x="1183.1" y="215" width="6.2" height="15.0" fill="rgb(0,0,0)" rx="2" ry="2" />
<text  x="1186.12" y="225.5" ></text>
</g>
<g >
<title>firedrake.dmhooks.coarsen (875,119 us, 0.13%)</title><rect x="982.9" y="263" width="1.6" height="15.0" fill="rgb(0,0,0)" rx="2" ry="2" />
<text  x="985.94" y="273.5" ></text>
</g>
<g >
<title>MatMult (85,200,849 us, 12.92%)</title><rect x="26.7" y="167" width="152.4" height="15.0" fill="rgb(0,0,0)" rx="2" ry="2" />
<text  x="29.67" y="177.5" >MatMult</text>
</g>
<g >
<title>Log_Event_subkernel14_interior_facet_vert_to__exterior_facet_vert_integral_otherwise (97,006 us, 0.01%)</title><rect x="179.0" y="247" width="0.1" height="15.0" fill="rgb(0,0,0)" rx="2" ry="2" />
<text  x="181.95" y="257.5" ></text>
</g>
<g >
<title>MatMult (20,194,540 us, 3.06%)</title><rect x="1147.0" y="231" width="36.1" height="15.0" fill="rgb(0,0,0)" rx="2" ry="2" />
<text  x="1149.99" y="241.5" >Ma..</text>
</g>
<g >
<title>Log_Event_subkernel12_cell_to__cell_integral_otherwise (726,307 us, 0.11%)</title><rect x="197.8" y="311" width="1.3" height="15.0" fill="rgb(0,0,0)" rx="2" ry="2" />
<text  x="200.82" y="321.5" ></text>
</g>
<g >
<title>Log_Event_mtf_solve_26 (2,553,596 us, 0.39%)</title><rect x="15.9" y="215" width="4.6" height="15.0" fill="rgb(0,0,0)" rx="2" ry="2" />
<text  x="18.94" y="225.5" ></text>
</g>
<g >
<title>MatMultTranspose (67,075 us, 0.01%)</title><rect x="982.8" y="263" width="0.1" height="15.0" fill="rgb(0,0,0)" rx="2" ry="2" />
<text  x="985.82" y="273.5" ></text>
</g>
<g >
<title>ParLoopExecute (85,200,849 us, 12.92%)</title><rect x="26.7" y="199" width="152.4" height="15.0" fill="rgb(0,0,0)" rx="2" ry="2" />
<text  x="29.67" y="209.5" >ParLoopExecute</text>
</g>
<g >
<title>Log_Event_subkernel12_cell_to__cell_integral_otherwise (138,082 us, 0.02%)</title><rect x="30.2" y="263" width="0.3" height="15.0" fill="rgb(0,0,0)" rx="2" ry="2" />
<text  x="33.25" y="273.5" ></text>
</g>
<g >
<title>firedrake.__init__ (1,530,043 us, 0.23%)</title><rect x="11.8" y="71" width="2.7" height="15.0" fill="rgb(0,0,0)" rx="2" ry="2" />
<text  x="14.79" y="81.5" ></text>
</g>
<g >
<title>Log_Event_subkernel13_cell_to__cell_integral_otherwise (87,827,729 us, 13.32%)</title><rect x="989.3" y="311" width="157.2" height="15.0" fill="rgb(0,0,0)" rx="2" ry="2" />
<text  x="992.31" y="321.5" >Log_Event_subkerne..</text>
</g>
<g >
<title>Log_Event_subkernel10_interior_facet_horiz_bottom_to__exterior_facet_bottom_integral_otherwise (68,323 us, 0.01%)</title><rect x="978.3" y="295" width="0.2" height="15.0" fill="rgb(0,0,0)" rx="2" ry="2" />
<text  x="981.34" y="305.5" ></text>
</g>
<g >
<title>Log_Event_mtf_solve_11 (19,775,185 us, 3.00%)</title><rect x="1147.7" y="311" width="35.4" height="15.0" fill="rgb(0,0,0)" rx="2" ry="2" />
<text  x="1150.74" y="321.5" >Lo..</text>
</g>
<g >
<title>Log_Event_subkernel10_interior_facet_horiz_top_to__exterior_facet_top_integral_otherwise (70,395 us, 0.01%)</title><rect x="978.5" y="295" width="0.1" height="15.0" fill="rgb(0,0,0)" rx="2" ry="2" />
<text  x="981.46" y="305.5" ></text>
</g>
<g >
<title>Log_Event_subkernel13_cell_to__cell_integral_otherwise (435,470,547 us, 66.04%)</title><rect x="199.1" y="311" width="779.2" height="15.0" fill="rgb(0,0,0)" rx="2" ry="2" />
<text  x="202.12" y="321.5" >Log_Event_subkernel13_cell_to__cell_integral_otherwise</text>
</g>
<g >
<title>Log_Event_tensorshell_knl_34 (2,475,171 us, 0.38%)</title><rect x="16.1" y="231" width="4.4" height="15.0" fill="rgb(0,0,0)" rx="2" ry="2" />
<text  x="19.08" y="241.5" ></text>
</g>
<g >
<title>Log_Event_subkernel12_cell_to__cell_integral_otherwise (145,733 us, 0.02%)</title><rect x="989.1" y="311" width="0.2" height="15.0" fill="rgb(0,0,0)" rx="2" ry="2" />
<text  x="992.05" y="321.5" ></text>
</g>
<g >
<title>CreateSparsity (101,271 us, 0.02%)</title><rect x="1189.1" y="247" width="0.2" height="15.0" fill="rgb(0,0,0)" rx="2" ry="2" />
<text  x="1192.10" y="257.5" ></text>
</g>
<g >
<title>inv_getrf (312,228 us, 0.05%)</title><rect x="1185.2" y="279" width="0.5" height="15.0" fill="rgb(0,0,0)" rx="2" ry="2" />
<text  x="1188.15" y="289.5" ></text>
</g>
<g >
<title>inv_getri (1,532,641 us, 0.23%)</title><rect x="1185.7" y="279" width="2.8" height="15.0" fill="rgb(0,0,0)" rx="2" ry="2" />
<text  x="1188.71" y="289.5" ></text>
</g>
<g >
<title>PCSetUp (161,828 us, 0.02%)</title><rect x="1189.6" y="103" width="0.3" height="15.0" fill="rgb(0,0,0)" rx="2" ry="2" />
<text  x="1192.57" y="113.5" ></text>
</g>
<g >
<title>Parloop_Cells_wrap_slate_loopy_knl_41 (79,482 us, 0.01%)</title><rect x="14.9" y="167" width="0.1" height="15.0" fill="rgb(0,0,0)" rx="2" ry="2" />
<text  x="17.86" y="177.5" ></text>
</g>
<g >
<title>ParLoopExecute (71,179 us, 0.01%)</title><rect x="14.5" y="151" width="0.2" height="15.0" fill="rgb(0,0,0)" rx="2" ry="2" />
<text  x="17.53" y="161.5" ></text>
</g>
<g >
<title>ParLoopExecute (80,115 us, 0.01%)</title><rect x="1189.9" y="119" width="0.1" height="15.0" fill="rgb(0,0,0)" rx="2" ry="2" />
<text  x="1192.86" y="129.5" ></text>
</g>
<g >
<title>MatMultTranspose (443,549 us, 0.07%)</title><rect x="984.5" y="247" width="0.8" height="15.0" fill="rgb(0,0,0)" rx="2" ry="2" />
<text  x="987.51" y="257.5" ></text>
</g>
<g >
<title>CreateExtMesh (70,005 us, 0.01%)</title><rect x="11.7" y="71" width="0.1" height="15.0" fill="rgb(0,0,0)" rx="2" ry="2" />
<text  x="14.66" y="81.5" ></text>
</g>
<g >
<title>Log_Event_tensorshell_knl_27 (78,425 us, 0.01%)</title><rect x="15.9" y="231" width="0.2" height="15.0" fill="rgb(0,0,0)" rx="2" ry="2" />
<text  x="18.94" y="241.5" ></text>
</g>
<g >
<title>Log_Event_slate_loopy_knl_9 (448,159,891 us, 67.96%)</title><rect x="179.3" y="279" width="801.9" height="15.0" fill="rgb(0,0,0)" rx="2" ry="2" />
<text  x="182.26" y="289.5" >Log_Event_slate_loopy_knl_9</text>
</g>
<g >
<title>MatMult (71,179 us, 0.01%)</title><rect x="14.5" y="119" width="0.2" height="15.0" fill="rgb(0,0,0)" rx="2" ry="2" />
<text  x="17.53" y="129.5" ></text>
</g>
<g >
<title>HybridRHS (3,442,848 us, 0.52%)</title><rect x="20.5" y="151" width="6.2" height="15.0" fill="rgb(0,0,0)" rx="2" ry="2" />
<text  x="23.51" y="161.5" ></text>
</g>
<g >
<title>Log_Event_mtf_solve_44 (79,482 us, 0.01%)</title><rect x="14.9" y="199" width="0.1" height="15.0" fill="rgb(0,0,0)" rx="2" ry="2" />
<text  x="17.86" y="209.5" ></text>
</g>
<g >
<title>MatMult (448,237,629 us, 67.97%)</title><rect x="179.1" y="215" width="802.1" height="15.0" fill="rgb(0,0,0)" rx="2" ry="2" />
<text  x="182.13" y="225.5" >MatMult</text>
</g>
<g >
<title>ParLoopExecute (2,686,429 us, 0.41%)</title><rect x="15.7" y="167" width="4.8" height="15.0" fill="rgb(0,0,0)" rx="2" ry="2" />
<text  x="18.70" y="177.5" ></text>
</g>
<g >
<title>Parloop_Cells_wrap_slate_loopy_knl_9 (19,927,421 us, 3.02%)</title><rect x="1147.5" y="279" width="35.6" height="15.0" fill="rgb(0,0,0)" rx="2" ry="2" />
<text  x="1150.47" y="289.5" >Pa..</text>
</g>
<g >
<title>MGInterp Level 2 (67,075 us, 0.01%)</title><rect x="982.8" y="247" width="0.1" height="15.0" fill="rgb(0,0,0)" rx="2" ry="2" />
<text  x="985.82" y="257.5" ></text>
</g>
<g >
<title>firedrake.interpolation.make_interpolator (86,574 us, 0.01%)</title><rect x="1189.4" y="167" width="0.2" height="15.0" fill="rgb(0,0,0)" rx="2" ry="2" />
<text  x="1192.41" y="177.5" ></text>
</g>
<g >
<title>Log_Event_subkernel10_interior_facet_vert_to__exterior_facet_vert_integral_otherwise (939,880 us, 0.14%)</title><rect x="978.6" y="295" width="1.7" height="15.0" fill="rgb(0,0,0)" rx="2" ry="2" />
<text  x="981.59" y="305.5" ></text>
</g>
<g >
<title>PCSetUp (23,633,853 us, 3.58%)</title><rect x="1147.0" y="183" width="42.3" height="15.0" fill="rgb(0,0,0)" rx="2" ry="2" />
<text  x="1149.99" y="193.5" >PCS..</text>
</g>
<g >
<title>Parloop_Cells_wrap_slate_loopy_knl_9 (90,359,515 us, 13.70%)</title><rect x="985.3" y="263" width="161.7" height="15.0" fill="rgb(0,0,0)" rx="2" ry="2" />
<text  x="988.30" y="273.5" >Parloop_Cells_wrap_..</text>
</g>
<g >
<title>firedrake.mg.interface.restrict (443,549 us, 0.07%)</title><rect x="984.5" y="263" width="0.8" height="15.0" fill="rgb(0,0,0)" rx="2" ry="2" />
<text  x="987.51" y="273.5" ></text>
</g>
<g >
<title>Log_Event_subkernel13_cell_to__cell_integral_otherwise (82,785,070 us, 12.55%)</title><rect x="30.5" y="263" width="148.1" height="15.0" fill="rgb(0,0,0)" rx="2" ry="2" />
<text  x="33.50" y="273.5" >Log_Event_subkern..</text>
</g>
<g >
<title>SNESFunctionEval (80,115 us, 0.01%)</title><rect x="1189.9" y="103" width="0.1" height="15.0" fill="rgb(0,0,0)" rx="2" ry="2" />
<text  x="1192.86" y="113.5" ></text>
</g>
<g >
<title>PCApply (540,895,355 us, 82.02%)</title><rect x="179.1" y="183" width="967.9" height="15.0" fill="rgb(0,0,0)" rx="2" ry="2" />
<text  x="182.13" y="193.5" >PCApply</text>
</g>
<g >
<title>PCApply (979,543 us, 0.15%)</title><rect x="981.2" y="231" width="1.7" height="15.0" fill="rgb(0,0,0)" rx="2" ry="2" />
<text  x="984.19" y="241.5" ></text>
</g>
<g >
<title>ParLoopExecute (3,223,988 us, 0.49%)</title><rect x="1183.3" y="231" width="5.8" height="15.0" fill="rgb(0,0,0)" rx="2" ry="2" />
<text  x="1186.33" y="241.5" ></text>
</g>
<g >
<title>firedrake (659,450,063 us, 100.00%)</title><rect x="10.0" y="55" width="1180.0" height="15.0" fill="rgb(0,0,0)" rx="2" ry="2" />
<text  x="13.00" y="65.5" >firedrake</text>
</g>
<g >
<title>Log_Event_subkernel7_cell_to__cell_integral_otherwise (272,795 us, 0.04%)</title><rect x="1188.6" y="263" width="0.5" height="15.0" fill="rgb(0,0,0)" rx="2" ry="2" />
<text  x="1191.61" y="273.5" ></text>
</g>
<g >
<title>Log_Event_mtf_solve_11 (444,683,707 us, 67.43%)</title><rect x="182.6" y="295" width="795.7" height="15.0" fill="rgb(0,0,0)" rx="2" ry="2" />
<text  x="185.64" y="305.5" >Log_Event_mtf_solve_11</text>
</g>
<g >
<title>RecoverFirstElim (3,080,043 us, 0.47%)</title><rect x="15.0" y="151" width="5.5" height="15.0" fill="rgb(0,0,0)" rx="2" ry="2" />
<text  x="18.00" y="161.5" ></text>
</g>
<g >
<title>ParLoopExecute (79,482 us, 0.01%)</title><rect x="14.9" y="151" width="0.1" height="15.0" fill="rgb(0,0,0)" rx="2" ry="2" />
<text  x="17.86" y="161.5" ></text>
</g>
<g >
<title>Log_Event_mtf_solve_36 (2,243,046 us, 0.34%)</title><rect x="16.1" y="247" width="4.0" height="15.0" fill="rgb(0,0,0)" rx="2" ry="2" />
<text  x="19.08" y="257.5" ></text>
</g>
<g >
<title>PCSetUp (1,318,668 us, 0.20%)</title><rect x="982.9" y="231" width="2.4" height="15.0" fill="rgb(0,0,0)" rx="2" ry="2" />
<text  x="985.94" y="241.5" ></text>
</g>
<g >
<title>firedrake.mg.interface.prolong (766,751 us, 0.12%)</title><rect x="981.3" y="295" width="1.4" height="15.0" fill="rgb(0,0,0)" rx="2" ry="2" />
<text  x="984.32" y="305.5" ></text>
</g>
<g >
<title>firedrake.matrix_free.operators.ImplicitMatrixContext.mult (448,237,629 us, 67.97%)</title><rect x="179.1" y="231" width="802.1" height="15.0" fill="rgb(0,0,0)" rx="2" ry="2" />
<text  x="182.13" y="241.5" >firedrake.matrix_free.operators.ImplicitMatrixContext.mult</text>
</g>
<g >
<title>Log_Event_subkernel13_cell_to__cell_integral_otherwise (19,363,268 us, 2.94%)</title><rect x="1148.5" y="327" width="34.6" height="15.0" fill="rgb(0,0,0)" rx="2" ry="2" />
<text  x="1151.48" y="337.5" >Lo..</text>
</g>
<g >
<title>firedrake.mg.interface.inject (875,119 us, 0.13%)</title><rect x="982.9" y="295" width="1.6" height="15.0" fill="rgb(0,0,0)" rx="2" ry="2" />
<text  x="985.94" y="305.5" ></text>
</g>
<g >
<title>Log_Event_subkernel6_interior_facet_vert_to__exterior_facet_vert_integral_otherwise (85,056 us, 0.01%)</title><rect x="1188.5" y="263" width="0.1" height="15.0" fill="rgb(0,0,0)" rx="2" ry="2" />
<text  x="1191.46" y="273.5" ></text>
</g>
<g >
<title>KSPSolve (20,194,540 us, 3.06%)</title><rect x="1147.0" y="215" width="36.1" height="15.0" fill="rgb(0,0,0)" rx="2" ry="2" />
<text  x="1149.99" y="225.5" >KS..</text>
</g>
<g >
<title>MatMult (90,359,515 us, 13.70%)</title><rect x="985.3" y="215" width="161.7" height="15.0" fill="rgb(0,0,0)" rx="2" ry="2" />
<text  x="988.30" y="225.5" >MatMult</text>
</g>
<g >
<title>ParLoopExecute (90,359,515 us, 13.70%)</title><rect x="985.3" y="247" width="161.7" height="15.0" fill="rgb(0,0,0)" rx="2" ry="2" />
<text  x="988.30" y="257.5" >ParLoopExecute</text>
</g>
<g >
<title>PCApply (564,529,208 us, 85.61%)</title><rect x="179.1" y="167" width="1010.2" height="15.0" fill="rgb(0,0,0)" rx="2" ry="2" />
<text  x="182.13" y="177.5" >PCApply</text>
</g>
<g >
<title>Parloop_Cells_wrap_slate_loopy_knl_15 (2,686,429 us, 0.41%)</title><rect x="15.7" y="183" width="4.8" height="15.0" fill="rgb(0,0,0)" rx="2" ry="2" />
<text  x="18.70" y="193.5" ></text>
</g>
<g >
<title>all (659,450,063 us, 100%)</title><rect x="10.0" y="39" width="1180.0" height="15.0" fill="rgb(0,0,0)" rx="2" ry="2" />
<text  x="13.00" y="49.5" ></text>
</g>
<g >
<title>Log_Event_mtf_solve_1 (3,256,263 us, 0.49%)</title><rect x="20.8" y="215" width="5.9" height="15.0" fill="rgb(0,0,0)" rx="2" ry="2" />
<text  x="23.84" y="225.5" ></text>
</g>
<g >
<title>MatResidual (90,359,515 us, 13.70%)</title><rect x="985.3" y="199" width="161.7" height="15.0" fill="rgb(0,0,0)" rx="2" ry="2" />
<text  x="988.30" y="209.5" >MatResidual</text>
</g>
<g >
<title>Parloop_Cells_wrap_slate_loopy_knl_9 (85,200,849 us, 12.92%)</title><rect x="26.7" y="215" width="152.4" height="15.0" fill="rgb(0,0,0)" rx="2" ry="2" />
<text  x="29.67" y="225.5" >Parloop_Cells_wra..</text>
</g>
<g >
<title>PCApply (2,298,211 us, 0.35%)</title><rect x="981.2" y="215" width="4.1" height="15.0" fill="rgb(0,0,0)" rx="2" ry="2" />
<text  x="984.19" y="225.5" ></text>
</g>
<g >
<title>Parloop_Cells_wrap_slate_loopy_knl_9 (448,159,891 us, 67.96%)</title><rect x="179.3" y="263" width="801.9" height="15.0" fill="rgb(0,0,0)" rx="2" ry="2" />
<text  x="182.26" y="273.5" >Parloop_Cells_wrap_slate_loopy_knl_9</text>
</g>
<g >
<title>firedrake.variational_solver.NonlinearVariationalSolver.solve (656,920,903 us, 99.62%)</title><rect x="14.5" y="71" width="1175.5" height="15.0" fill="rgb(0,0,0)" rx="2" ry="2" />
<text  x="17.53" y="81.5" >firedrake.variational_solver.NonlinearVariationalSolver.solve</text>
</g>
<g >
<title>SCBackSub (3,272,979 us, 0.50%)</title><rect x="14.7" y="135" width="5.8" height="15.0" fill="rgb(0,0,0)" rx="2" ry="2" />
<text  x="17.65" y="145.5" ></text>
</g>
<g >
<title>Log_Event_subkernel14_interior_facet_vert_to__exterior_facet_vert_integral_otherwise (513,005 us, 0.08%)</title><rect x="980.3" y="295" width="0.9" height="15.0" fill="rgb(0,0,0)" rx="2" ry="2" />
<text  x="983.27" y="305.5" ></text>
</g>
<g >
<title>KSPSolve (656,678,960 us, 99.58%)</title><rect x="14.5" y="103" width="1175.1" height="15.0" fill="rgb(0,0,0)" rx="2" ry="2" />
<text  x="17.53" y="113.5" >KSPSolve</text>
</g>
<g >
<title>Log_Event_subkernel35_cell_to__cell_integral_otherwise (118,904 us, 0.02%)</title><rect x="20.1" y="247" width="0.2" height="15.0" fill="rgb(0,0,0)" rx="2" ry="2" />
<text  x="23.09" y="257.5" ></text>
</g>
<g >
<title>Log_Event_slate_loopy_knl_41 (79,482 us, 0.01%)</title><rect x="14.9" y="183" width="0.1" height="15.0" fill="rgb(0,0,0)" rx="2" ry="2" />
<text  x="17.86" y="193.5" ></text>
</g>
<g >
<title>Parloop_Cells_wrap_wrap_slate_loopy_knl_5 (3,223,988 us, 0.49%)</title><rect x="1183.3" y="247" width="5.8" height="15.0" fill="rgb(0,0,0)" rx="2" ry="2" />
<text  x="1186.33" y="257.5" ></text>
</g>
<g >
<title>firedrake.matrix_free.operators.ImplicitMatrixContext.mult (85,200,849 us, 12.92%)</title><rect x="26.7" y="183" width="152.4" height="15.0" fill="rgb(0,0,0)" rx="2" ry="2" />
<text  x="29.67" y="193.5" >firedrake.matrix_..</text>
</g>
<g >
<title>firedrake.matrix_free.operators.ImplicitMatrixContext.mult (90,359,515 us, 13.70%)</title><rect x="985.3" y="231" width="161.7" height="15.0" fill="rgb(0,0,0)" rx="2" ry="2" />
<text  x="988.30" y="241.5" >firedrake.matrix_fr..</text>
</g>
<g >
<title>Log_Event_subkernel39_cell_to__cell_integral_otherwise (113,221 us, 0.02%)</title><rect x="20.3" y="247" width="0.2" height="15.0" fill="rgb(0,0,0)" rx="2" ry="2" />
<text  x="23.31" y="257.5" ></text>
</g>
<g >
<title>MatMultTranspose (69,871 us, 0.01%)</title><rect x="982.7" y="263" width="0.1" height="15.0" fill="rgb(0,0,0)" rx="2" ry="2" />
<text  x="985.70" y="273.5" ></text>
</g>
<g >
<title>Log_Event_subkernel10_interior_facet_vert_to__exterior_facet_vert_integral_otherwise (187,906 us, 0.03%)</title><rect x="1146.5" y="295" width="0.3" height="15.0" fill="rgb(0,0,0)" rx="2" ry="2" />
<text  x="1149.47" y="305.5" ></text>
</g>
<g >
<title>firedrake.pointquery_utils.to_reference_coordinates (446,066 us, 0.07%)</title><rect x="983.7" y="311" width="0.8" height="15.0" fill="rgb(0,0,0)" rx="2" ry="2" />
<text  x="986.71" y="321.5" ></text>
</g>
<g >
<title>Log_Event_subkernel38_cell_to__cell_integral_otherwise (2,092,674 us, 0.32%)</title><rect x="16.3" y="263" width="3.8" height="15.0" fill="rgb(0,0,0)" rx="2" ry="2" />
<text  x="19.35" y="273.5" ></text>
</g>
<g >
<title>Log_Event_subkernel31_cell_to__cell_integral_otherwise (78,425 us, 0.01%)</title><rect x="15.9" y="263" width="0.2" height="15.0" fill="rgb(0,0,0)" rx="2" ry="2" />
<text  x="18.94" y="273.5" ></text>
</g>
<g >
<title>Parloop_Cells_wrap_slate_loopy_knl_0 (3,256,263 us, 0.49%)</title><rect x="20.8" y="183" width="5.9" height="15.0" fill="rgb(0,0,0)" rx="2" ry="2" />
<text  x="23.84" y="193.5" ></text>
</g>
<g >
<title>SCSolve (649,891,954 us, 98.55%)</title><rect x="26.7" y="135" width="1162.9" height="15.0" fill="rgb(0,0,0)" rx="2" ry="2" />
<text  x="29.67" y="145.5" >SCSolve</text>
</g>
<g >
<title>Log_Event_mtf_solve_29 (78,425 us, 0.01%)</title><rect x="15.9" y="247" width="0.2" height="15.0" fill="rgb(0,0,0)" rx="2" ry="2" />
<text  x="18.94" y="257.5" ></text>
</g>
<g >
<title>firedrake.assemble.allocate_matrix (101,271 us, 0.02%)</title><rect x="1189.1" y="231" width="0.2" height="15.0" fill="rgb(0,0,0)" rx="2" ry="2" />
<text  x="1192.10" y="241.5" ></text>
</g>
<g >
<title>KSPSolve (649,730,057 us, 98.53%)</title><rect x="26.7" y="151" width="1162.6" height="15.0" fill="rgb(0,0,0)" rx="2" ry="2" />
<text  x="29.67" y="161.5" >KSPSolve</text>
</g>
<g >
<title>Log_Event_slate_loopy_knl_5 (2,705,083 us, 0.41%)</title><rect x="1183.6" y="263" width="4.9" height="15.0" fill="rgb(0,0,0)" rx="2" ry="2" />
<text  x="1186.62" y="273.5" ></text>
</g>
<g >
<title>ParLoopExecute (75,323 us, 0.01%)</title><rect x="1189.3" y="167" width="0.1" height="15.0" fill="rgb(0,0,0)" rx="2" ry="2" />
<text  x="1192.28" y="177.5" ></text>
</g>
<g >
<title>ParLoopExecute (3,256,263 us, 0.49%)</title><rect x="20.8" y="167" width="5.9" height="15.0" fill="rgb(0,0,0)" rx="2" ry="2" />
<text  x="23.84" y="177.5" ></text>
</g>
<g >
<title>Log_Event_slate_loopy_knl_0 (3,256,263 us, 0.49%)</title><rect x="20.8" y="199" width="5.9" height="15.0" fill="rgb(0,0,0)" rx="2" ry="2" />
<text  x="23.84" y="209.5" ></text>
</g>
<g >
<title>firedrake.extrusion_utils.make_extruded_coords (70,005 us, 0.01%)</title><rect x="11.7" y="87" width="0.1" height="15.0" fill="rgb(0,0,0)" rx="2" ry="2" />
<text  x="14.66" y="97.5" ></text>
</g>
<g >
<title>firedrake.interpolation.make_interpolator (71,929 us, 0.01%)</title><rect x="1189.7" y="135" width="0.2" height="15.0" fill="rgb(0,0,0)" rx="2" ry="2" />
<text  x="1192.73" y="145.5" ></text>
</g>
<g >
<title>PCSetUp (161,897 us, 0.02%)</title><rect x="1189.3" y="151" width="0.3" height="15.0" fill="rgb(0,0,0)" rx="2" ry="2" />
<text  x="1192.28" y="161.5" ></text>
</g>
<g >
<title>SCForwardElim (3,442,848 us, 0.52%)</title><rect x="20.5" y="135" width="6.2" height="15.0" fill="rgb(0,0,0)" rx="2" ry="2" />
<text  x="23.51" y="145.5" ></text>
</g>
<g >
<title>PCApply (656,607,781 us, 99.57%)</title><rect x="14.7" y="119" width="1174.9" height="15.0" fill="rgb(0,0,0)" rx="2" ry="2" />
<text  x="17.65" y="129.5" >PCApply</text>
</g>
<g >
<title>MatMult (766,751 us, 0.12%)</title><rect x="981.3" y="263" width="1.4" height="15.0" fill="rgb(0,0,0)" rx="2" ry="2" />
<text  x="984.32" y="273.5" ></text>
</g>
<g >
<title>firedrake.matrix_free.operators.ImplicitMatrixContext.mult (71,179 us, 0.01%)</title><rect x="14.5" y="135" width="0.2" height="15.0" fill="rgb(0,0,0)" rx="2" ry="2" />
<text  x="17.53" y="145.5" ></text>
</g>
<g >
<title>ParLoopExecute (19,927,421 us, 3.02%)</title><rect x="1147.5" y="263" width="35.6" height="15.0" fill="rgb(0,0,0)" rx="2" ry="2" />
<text  x="1150.47" y="273.5" >Pa..</text>
</g>
<g >
<title>Log_Event_subkernel14_interior_facet_vert_to__exterior_facet_vert_integral_otherwise (102,480 us, 0.02%)</title><rect x="1146.8" y="295" width="0.2" height="15.0" fill="rgb(0,0,0)" rx="2" ry="2" />
<text  x="1149.80" y="305.5" ></text>
</g>
<g >
<title>KSPSetUp (23,633,853 us, 3.58%)</title><rect x="1147.0" y="199" width="42.3" height="15.0" fill="rgb(0,0,0)" rx="2" ry="2" />
<text  x="1149.99" y="209.5" >KSP..</text>
</g>
<g >
<title>Log_Event_slate_loopy_knl_9 (90,359,515 us, 13.70%)</title><rect x="985.3" y="279" width="161.7" height="15.0" fill="rgb(0,0,0)" rx="2" ry="2" />
<text  x="988.30" y="289.5" >Log_Event_slate_loo..</text>
</g>
<g >
<title>Log_Event_mtf_solve_11 (84,535,508 us, 12.82%)</title><rect x="27.4" y="247" width="151.2" height="15.0" fill="rgb(0,0,0)" rx="2" ry="2" />
<text  x="30.36" y="257.5" >Log_Event_mtf_sol..</text>
</g>
<g >
<title>Log_Event_slate_loopy_knl_9 (85,200,849 us, 12.92%)</title><rect x="26.7" y="231" width="152.4" height="15.0" fill="rgb(0,0,0)" rx="2" ry="2" />
<text  x="29.67" y="241.5" >Log_Event_slate_l..</text>
</g>
<g >
<title>Log_Event_mtf_solve_17 (66,659 us, 0.01%)</title><rect x="15.8" y="215" width="0.1" height="15.0" fill="rgb(0,0,0)" rx="2" ry="2" />
<text  x="18.82" y="225.5" ></text>
</g>
<g >
<title>Log_Event_subkernel3_cell_to__cell_integral_otherwise (3,187,092 us, 0.48%)</title><rect x="21.0" y="231" width="5.7" height="15.0" fill="rgb(0,0,0)" rx="2" ry="2" />
<text  x="23.97" y="241.5" ></text>
</g>
<g >
<title>SNESSolve (656,920,903 us, 99.62%)</title><rect x="14.5" y="87" width="1175.5" height="15.0" fill="rgb(0,0,0)" rx="2" ry="2" />
<text  x="17.53" y="97.5" >SNESSolve</text>
</g>
<g >
<title>Log_Event_subkernel10_interior_facet_vert_to__exterior_facet_vert_integral_otherwise (180,043 us, 0.03%)</title><rect x="178.6" y="247" width="0.4" height="15.0" fill="rgb(0,0,0)" rx="2" ry="2" />
<text  x="181.63" y="257.5" ></text>
</g>
<g >
<title>firedrake.interpolation.interpolate (74,373 us, 0.01%)</title><rect x="983.6" y="311" width="0.1" height="15.0" fill="rgb(0,0,0)" rx="2" ry="2" />
<text  x="986.58" y="321.5" ></text>
</g>
<g >
<title>firedrake.mg.embedded.TransferManager.op (875,119 us, 0.13%)</title><rect x="982.9" y="279" width="1.6" height="15.0" fill="rgb(0,0,0)" rx="2" ry="2" />
<text  x="985.94" y="289.5" ></text>
</g>
<g >
<title>ParLoopExecute (448,159,891 us, 67.96%)</title><rect x="179.3" y="247" width="801.9" height="15.0" fill="rgb(0,0,0)" rx="2" ry="2" />
<text  x="182.26" y="257.5" >ParLoopExecute</text>
</g>
<g >
<title>KSPSolve (450,535,840 us, 68.32%)</title><rect x="179.1" y="199" width="806.2" height="15.0" fill="rgb(0,0,0)" rx="2" ry="2" />
<text  x="182.13" y="209.5" >KSPSolve</text>
</g>
<g >
<title>firedrake.pointquery_utils.to_reference_coordinates (443,930 us, 0.07%)</title><rect x="981.9" y="311" width="0.8" height="15.0" fill="rgb(0,0,0)" rx="2" ry="2" />
<text  x="984.90" y="321.5" ></text>
</g>
<g >
<title>firedrake.matrix_free.operators.ImplicitMatrixContext.mult (20,194,540 us, 3.06%)</title><rect x="1147.0" y="247" width="36.1" height="15.0" fill="rgb(0,0,0)" rx="2" ry="2" />
<text  x="1149.99" y="257.5" >fi..</text>
</g>
<g >
<title>firedrake.mg.embedded.TransferManager.op (766,751 us, 0.12%)</title><rect x="981.3" y="279" width="1.4" height="15.0" fill="rgb(0,0,0)" rx="2" ry="2" />
<text  x="984.32" y="289.5" ></text>
</g>
<g >
<title>HybridInit (161,828 us, 0.02%)</title><rect x="1189.6" y="119" width="0.3" height="15.0" fill="rgb(0,0,0)" rx="2" ry="2" />
<text  x="1192.57" y="129.5" ></text>
</g>
<g >
<title>firedrake.pointquery_utils.to_reference_coordinates (443,549 us, 0.07%)</title><rect x="984.5" y="279" width="0.8" height="15.0" fill="rgb(0,0,0)" rx="2" ry="2" />
<text  x="987.51" y="289.5" ></text>
</g>
<g >
<title>MGInterp Level 1 (836,622 us, 0.13%)</title><rect x="981.3" y="247" width="1.5" height="15.0" fill="rgb(0,0,0)" rx="2" ry="2" />
<text  x="984.32" y="257.5" ></text>
</g>
<g >
<title>Log_Event_mtf_solve_11 (89,665,703 us, 13.60%)</title><rect x="986.0" y="295" width="160.5" height="15.0" fill="rgb(0,0,0)" rx="2" ry="2" />
<text  x="989.02" y="305.5" >Log_Event_mtf_solv..</text>
</g>
<g >
<title>Log_Event_slate_loopy_knl_9 (19,927,421 us, 3.02%)</title><rect x="1147.5" y="295" width="35.6" height="15.0" fill="rgb(0,0,0)" rx="2" ry="2" />
<text  x="1150.47" y="305.5" >Lo..</text>
</g>
<g >
<title>Log_Event_slate_loopy_knl_15 (2,686,429 us, 0.41%)</title><rect x="15.7" y="199" width="4.8" height="15.0" fill="rgb(0,0,0)" rx="2" ry="2" />
<text  x="18.70" y="209.5" ></text>
</g>
<g >
<title>Log_Event_subkernel46_cell_to__cell_integral_otherwise (79,482 us, 0.01%)</title><rect x="14.9" y="215" width="0.1" height="15.0" fill="rgb(0,0,0)" rx="2" ry="2" />
<text  x="17.86" y="225.5" ></text>
</g>
<g >
<title>DMCoarsen (875,119 us, 0.13%)</title><rect x="982.9" y="247" width="1.6" height="15.0" fill="rgb(0,0,0)" rx="2" ry="2" />
<text  x="985.94" y="257.5" ></text>
</g>
</g>
</svg>
