<?xml version="1.0" standalone="no"?>
<!DOCTYPE svg PUBLIC "-//W3C//DTD SVG 1.1//EN" "http://www.w3.org/Graphics/SVG/1.1/DTD/svg11.dtd">
<svg version="1.1" width="1200" height="379" onload="init(evt)" viewBox="0 0 1200 379" xmlns="http://www.w3.org/2000/svg" xmlns:xlink="http://www.w3.org/1999/xlink">
<!-- Flame graph stack visualization. See https://github.com/brendangregg/FlameGraph for latest version, and http://www.brendangregg.com/flamegraphs.html for examples. -->
<!-- NOTES:  -->
<defs>
	<linearGradient id="background" y1="0" y2="1" x1="0" x2="0" >
		<stop stop-color="#eeeeee" offset="5%" />
		<stop stop-color="#eeeeb0" offset="95%" />
	</linearGradient>
</defs>
<style type="text/css">
	text { font-family:Verdana; font-size:13px; fill:rgb(0,0,0); }
	#search, #ignorecase { opacity:0.1; cursor:pointer; }
	#search:hover, #search.show, #ignorecase:hover, #ignorecase.show { opacity:1; }
	#subtitle { text-anchor:middle; font-color:rgb(160,160,160); }
	#title { text-anchor:middle; font-size:18px}
	#unzoom { cursor:pointer; }
	#frames > *:hover { stroke:black; stroke-width:0.5; cursor:pointer; }
	.hide { display:none; }
	.parent { opacity:0.5; }
</style>
<script type="text/ecmascript">
<![CDATA[
	"use strict";
	var details, searchbtn, unzoombtn, matchedtxt, svg, searching, currentSearchTerm, ignorecase, ignorecaseBtn;
	function init(evt) {
		details = document.getElementById("details").firstChild;
		searchbtn = document.getElementById("search");
		ignorecaseBtn = document.getElementById("ignorecase");
		unzoombtn = document.getElementById("unzoom");
		matchedtxt = document.getElementById("matched");
		svg = document.getElementsByTagName("svg")[0];
		searching = 0;
		currentSearchTerm = null;

		// use GET parameters to restore a flamegraphs state.
		var params = get_params();
		if (params.x && params.y)
			zoom(find_group(document.querySelector('[x="' + params.x + '"][y="' + params.y + '"]')));
                if (params.s) search(params.s);
	}

	// event listeners
	window.addEventListener("click", function(e) {
		var target = find_group(e.target);
		if (target) {
			if (target.nodeName == "a") {
				if (e.ctrlKey === false) return;
				e.preventDefault();
			}
			if (target.classList.contains("parent")) unzoom();
			zoom(target);
			if (!document.querySelector('.parent')) {
				clearzoom();
				return;
			}

			// set parameters for zoom state
			var el = target.querySelector("rect");
			if (el && el.attributes && el.attributes.y && el.attributes._orig_x) {
				var params = get_params()
				params.x = el.attributes._orig_x.value;
				params.y = el.attributes.y.value;
				history.replaceState(null, null, parse_params(params));
			}
		}
		else if (e.target.id == "unzoom") clearzoom();
		else if (e.target.id == "search") search_prompt();
		else if (e.target.id == "ignorecase") toggle_ignorecase();
	}, false)

	// mouse-over for info
	// show
	window.addEventListener("mouseover", function(e) {
		var target = find_group(e.target);
		if (target) details.nodeValue = "Function: " + g_to_text(target);
	}, false)

	// clear
	window.addEventListener("mouseout", function(e) {
		var target = find_group(e.target);
		if (target) details.nodeValue = ' ';
	}, false)

	// ctrl-F for search
	// ctrl-I to toggle case-sensitive search
	window.addEventListener("keydown",function (e) {
		if (e.keyCode === 114 || (e.ctrlKey && e.keyCode === 70)) {
			e.preventDefault();
			search_prompt();
		}
		else if (e.ctrlKey && e.keyCode === 73) {
			e.preventDefault();
			toggle_ignorecase();
		}
	}, false)

	// functions
	function get_params() {
		var params = {};
		var paramsarr = window.location.search.substr(1).split('&');
		for (var i = 0; i < paramsarr.length; ++i) {
			var tmp = paramsarr[i].split("=");
			if (!tmp[0] || !tmp[1]) continue;
			params[tmp[0]]  = decodeURIComponent(tmp[1]);
		}
		return params;
	}
	function parse_params(params) {
		var uri = "?";
		for (var key in params) {
			uri += key + '=' + encodeURIComponent(params[key]) + '&';
		}
		if (uri.slice(-1) == "&")
			uri = uri.substring(0, uri.length - 1);
		if (uri == '?')
			uri = window.location.href.split('?')[0];
		return uri;
	}
	function find_child(node, selector) {
		var children = node.querySelectorAll(selector);
		if (children.length) return children[0];
	}
	function find_group(node) {
		var parent = node.parentElement;
		if (!parent) return;
		if (parent.id == "frames") return node;
		return find_group(parent);
	}
	function orig_save(e, attr, val) {
		if (e.attributes["_orig_" + attr] != undefined) return;
		if (e.attributes[attr] == undefined) return;
		if (val == undefined) val = e.attributes[attr].value;
		e.setAttribute("_orig_" + attr, val);
	}
	function orig_load(e, attr) {
		if (e.attributes["_orig_"+attr] == undefined) return;
		e.attributes[attr].value = e.attributes["_orig_" + attr].value;
		e.removeAttribute("_orig_"+attr);
	}
	function g_to_text(e) {
		var text = find_child(e, "title").firstChild.nodeValue;
		return (text)
	}
	function g_to_func(e) {
		var func = g_to_text(e);
		// if there's any manipulation we want to do to the function
		// name before it's searched, do it here before returning.
		return (func);
	}
	function update_text(e) {
		var r = find_child(e, "rect");
		var t = find_child(e, "text");
		var w = parseFloat(r.attributes.width.value) -3;
		var txt = find_child(e, "title").textContent.replace(/\([^(]*\)$/,"");
		t.attributes.x.value = parseFloat(r.attributes.x.value) + 3;

		// Smaller than this size won't fit anything
		if (w < 2 * 13 * 0.59) {
			t.textContent = "";
			return;
		}

		t.textContent = txt;
		// Fit in full text width
		if (/^ *$/.test(txt) || t.getSubStringLength(0, txt.length) < w)
			return;

		for (var x = txt.length - 2; x > 0; x--) {
			if (t.getSubStringLength(0, x + 2) <= w) {
				t.textContent = txt.substring(0, x) + "..";
				return;
			}
		}
		t.textContent = "";
	}

	// zoom
	function zoom_reset(e) {
		if (e.attributes != undefined) {
			orig_load(e, "x");
			orig_load(e, "width");
		}
		if (e.childNodes == undefined) return;
		for (var i = 0, c = e.childNodes; i < c.length; i++) {
			zoom_reset(c[i]);
		}
	}
	function zoom_child(e, x, ratio) {
		if (e.attributes != undefined) {
			if (e.attributes.x != undefined) {
				orig_save(e, "x");
				e.attributes.x.value = (parseFloat(e.attributes.x.value) - x - 10) * ratio + 10;
				if (e.tagName == "text")
					e.attributes.x.value = find_child(e.parentNode, "rect[x]").attributes.x.value + 3;
			}
			if (e.attributes.width != undefined) {
				orig_save(e, "width");
				e.attributes.width.value = parseFloat(e.attributes.width.value) * ratio;
			}
		}

		if (e.childNodes == undefined) return;
		for (var i = 0, c = e.childNodes; i < c.length; i++) {
			zoom_child(c[i], x - 10, ratio);
		}
	}
	function zoom_parent(e) {
		if (e.attributes) {
			if (e.attributes.x != undefined) {
				orig_save(e, "x");
				e.attributes.x.value = 10;
			}
			if (e.attributes.width != undefined) {
				orig_save(e, "width");
				e.attributes.width.value = parseInt(svg.width.baseVal.value) - (10 * 2);
			}
		}
		if (e.childNodes == undefined) return;
		for (var i = 0, c = e.childNodes; i < c.length; i++) {
			zoom_parent(c[i]);
		}
	}
	function zoom(node) {
		var attr = find_child(node, "rect").attributes;
		var width = parseFloat(attr.width.value);
		var xmin = parseFloat(attr.x.value);
		var xmax = parseFloat(xmin + width);
		var ymin = parseFloat(attr.y.value);
		var ratio = (svg.width.baseVal.value - 2 * 10) / width;

		// XXX: Workaround for JavaScript float issues (fix me)
		var fudge = 0.0001;

		unzoombtn.classList.remove("hide");

		var el = document.getElementById("frames").children;
		for (var i = 0; i < el.length; i++) {
			var e = el[i];
			var a = find_child(e, "rect").attributes;
			var ex = parseFloat(a.x.value);
			var ew = parseFloat(a.width.value);
			var upstack;
			// Is it an ancestor
			if (1 == 0) {
				upstack = parseFloat(a.y.value) > ymin;
			} else {
				upstack = parseFloat(a.y.value) < ymin;
			}
			if (upstack) {
				// Direct ancestor
				if (ex <= xmin && (ex+ew+fudge) >= xmax) {
					e.classList.add("parent");
					zoom_parent(e);
					update_text(e);
				}
				// not in current path
				else
					e.classList.add("hide");
			}
			// Children maybe
			else {
				// no common path
				if (ex < xmin || ex + fudge >= xmax) {
					e.classList.add("hide");
				}
				else {
					zoom_child(e, xmin, ratio);
					update_text(e);
				}
			}
		}
		search();
	}
	function unzoom() {
		unzoombtn.classList.add("hide");
		var el = document.getElementById("frames").children;
		for(var i = 0; i < el.length; i++) {
			el[i].classList.remove("parent");
			el[i].classList.remove("hide");
			zoom_reset(el[i]);
			update_text(el[i]);
		}
		search();
	}
	function clearzoom() {
		unzoom();

		// remove zoom state
		var params = get_params();
		if (params.x) delete params.x;
		if (params.y) delete params.y;
		history.replaceState(null, null, parse_params(params));
	}

	// search
	function toggle_ignorecase() {
		ignorecase = !ignorecase;
		if (ignorecase) {
			ignorecaseBtn.classList.add("show");
		} else {
			ignorecaseBtn.classList.remove("show");
		}
		reset_search();
		search();
	}
	function reset_search() {
		var el = document.querySelectorAll("#frames rect");
		for (var i = 0; i < el.length; i++) {
			orig_load(el[i], "fill")
		}
		var params = get_params();
		delete params.s;
		history.replaceState(null, null, parse_params(params));
	}
	function search_prompt() {
		if (!searching) {
			var term = prompt("Enter a search term (regexp " +
			    "allowed, eg: ^ext4_)"
			    + (ignorecase ? ", ignoring case" : "")
			    + "\nPress Ctrl-i to toggle case sensitivity", "");
			if (term != null) search(term);
		} else {
			reset_search();
			searching = 0;
			currentSearchTerm = null;
			searchbtn.classList.remove("show");
			searchbtn.firstChild.nodeValue = "Search"
			matchedtxt.classList.add("hide");
			matchedtxt.firstChild.nodeValue = ""
		}
	}
	function search(term) {
		if (term) currentSearchTerm = term;

		var re = new RegExp(currentSearchTerm, ignorecase ? 'i' : '');
		var el = document.getElementById("frames").children;
		var matches = new Object();
		var maxwidth = 0;
		for (var i = 0; i < el.length; i++) {
			var e = el[i];
			var func = g_to_func(e);
			var rect = find_child(e, "rect");
			if (func == null || rect == null)
				continue;

			// Save max width. Only works as we have a root frame
			var w = parseFloat(rect.attributes.width.value);
			if (w > maxwidth)
				maxwidth = w;

			if (func.match(re)) {
				// highlight
				var x = parseFloat(rect.attributes.x.value);
				orig_save(rect, "fill");
				rect.attributes.fill.value = "rgb(230,0,230)";

				// remember matches
				if (matches[x] == undefined) {
					matches[x] = w;
				} else {
					if (w > matches[x]) {
						// overwrite with parent
						matches[x] = w;
					}
				}
				searching = 1;
			}
		}
		if (!searching)
			return;
		var params = get_params();
		params.s = currentSearchTerm;
		history.replaceState(null, null, parse_params(params));

		searchbtn.classList.add("show");
		searchbtn.firstChild.nodeValue = "Reset Search";

		// calculate percent matched, excluding vertical overlap
		var count = 0;
		var lastx = -1;
		var lastw = 0;
		var keys = Array();
		for (k in matches) {
			if (matches.hasOwnProperty(k))
				keys.push(k);
		}
		// sort the matched frames by their x location
		// ascending, then width descending
		keys.sort(function(a, b){
			return a - b;
		});
		// Step through frames saving only the biggest bottom-up frames
		// thanks to the sort order. This relies on the tree property
		// where children are always smaller than their parents.
		var fudge = 0.0001;	// JavaScript floating point
		for (var k in keys) {
			var x = parseFloat(keys[k]);
			var w = matches[keys[k]];
			if (x >= lastx + lastw - fudge) {
				count += w;
				lastx = x;
				lastw = w;
			}
		}
		// display matched percent
		matchedtxt.classList.remove("hide");
		var pct = 100 * count / maxwidth;
		if (pct != 100) pct = pct.toFixed(1)
		matchedtxt.firstChild.nodeValue = "Matched: " + pct + "%";
	}
]]>
</script>
<rect x="0.0" y="0" width="1200.0" height="379.0" fill="url(#background)"  />
<text id="title" x="600.00" y="26" >Firedrake example</text>
<text id="details" x="10.00" y="361" > </text>
<text id="unzoom" x="10.00" y="26" class="hide">Reset Zoom</text>
<text id="search" x="1090.00" y="26" >Search</text>
<text id="ignorecase" x="1174.00" y="26" >ic</text>
<text id="matched" x="1090.00" y="361" > </text>
<g id="frames">
<g >
<title>CreateSparsity (107,062 us, 0.01%)</title><rect x="1189.2" y="247" width="0.2" height="15.0" fill="rgb(0,0,0)" rx="2" ry="2" />
<text  x="1192.20" y="257.5" ></text>
</g>
<g >
<title>Log_Event_mtf_solve_1 (3,783,402 us, 0.48%)</title><rect x="19.3" y="215" width="5.6" height="15.0" fill="rgb(0,0,0)" rx="2" ry="2" />
<text  x="22.28" y="225.5" ></text>
</g>
<g >
<title>DMCoarsen (842,146 us, 0.11%)</title><rect x="985.0" y="247" width="1.3" height="15.0" fill="rgb(0,0,0)" rx="2" ry="2" />
<text  x="988.05" y="257.5" ></text>
</g>
<g >
<title>Log_Event_slate_loopy_knl_41 (82,190 us, 0.01%)</title><rect x="14.2" y="183" width="0.1" height="15.0" fill="rgb(0,0,0)" rx="2" ry="2" />
<text  x="17.15" y="193.5" ></text>
</g>
<g >
<title>Parloop_Cells_wrap_slate_loopy_knl_9 (108,777,221 us, 13.78%)</title><rect x="986.9" y="263" width="162.6" height="15.0" fill="rgb(0,0,0)" rx="2" ry="2" />
<text  x="989.94" y="273.5" >Parloop_Cells_wrap_..</text>
</g>
<g >
<title>MatMult (729,479 us, 0.09%)</title><rect x="983.8" y="263" width="1.1" height="15.0" fill="rgb(0,0,0)" rx="2" ry="2" />
<text  x="986.78" y="273.5" ></text>
</g>
<g >
<title>PCApply (786,709,846 us, 99.63%)</title><rect x="14.0" y="119" width="1175.6" height="15.0" fill="rgb(0,0,0)" rx="2" ry="2" />
<text  x="16.98" y="129.5" >PCApply</text>
</g>
<g >
<title>Log_Event_subkernel14_interior_facet_vert_to__exterior_facet_vert_integral_otherwise (108,693 us, 0.01%)</title><rect x="1149.3" y="295" width="0.2" height="15.0" fill="rgb(0,0,0)" rx="2" ry="2" />
<text  x="1152.33" y="305.5" ></text>
</g>
<g >
<title>firedrake.dmhooks.coarsen (842,146 us, 0.11%)</title><rect x="985.0" y="263" width="1.3" height="15.0" fill="rgb(0,0,0)" rx="2" ry="2" />
<text  x="988.05" y="273.5" ></text>
</g>
<g >
<title>Log_Event_mtf_solve_11 (534,780,690 us, 67.73%)</title><rect x="182.0" y="295" width="799.1" height="15.0" fill="rgb(0,0,0)" rx="2" ry="2" />
<text  x="184.96" y="305.5" >Log_Event_mtf_solve_11</text>
</g>
<g >
<title>Log_Event_slate_loopy_knl_0 (3,783,402 us, 0.48%)</title><rect x="19.3" y="199" width="5.6" height="15.0" fill="rgb(0,0,0)" rx="2" ry="2" />
<text  x="22.28" y="209.5" ></text>
</g>
<g >
<title>PCApply (2,321,720 us, 0.29%)</title><rect x="983.5" y="215" width="3.4" height="15.0" fill="rgb(0,0,0)" rx="2" ry="2" />
<text  x="986.47" y="225.5" ></text>
</g>
<g >
<title>Log_Event_subkernel12_cell_to__cell_integral_otherwise (154,200 us, 0.02%)</title><rect x="990.7" y="311" width="0.3" height="15.0" fill="rgb(0,0,0)" rx="2" ry="2" />
<text  x="993.74" y="321.5" ></text>
</g>
<g >
<title>PCSetUp (186,915 us, 0.02%)</title><rect x="1189.4" y="151" width="0.2" height="15.0" fill="rgb(0,0,0)" rx="2" ry="2" />
<text  x="1192.36" y="161.5" ></text>
</g>
<g >
<title>PCSetUp (157,813 us, 0.02%)</title><rect x="1189.6" y="103" width="0.3" height="15.0" fill="rgb(0,0,0)" rx="2" ry="2" />
<text  x="1192.64" y="113.5" ></text>
</g>
<g >
<title>Log_Event_subkernel39_cell_to__cell_integral_otherwise (111,869 us, 0.01%)</title><rect x="18.8" y="247" width="0.2" height="15.0" fill="rgb(0,0,0)" rx="2" ry="2" />
<text  x="21.83" y="257.5" ></text>
</g>
<g >
<title>inv_getrf (315,506 us, 0.04%)</title><rect x="1185.9" y="279" width="0.4" height="15.0" fill="rgb(0,0,0)" rx="2" ry="2" />
<text  x="1188.88" y="289.5" ></text>
</g>
<g >
<title>Parloop_Cells_wrap_wrap_slate_loopy_knl_5 (3,257,494 us, 0.41%)</title><rect x="1184.3" y="247" width="4.9" height="15.0" fill="rgb(0,0,0)" rx="2" ry="2" />
<text  x="1187.33" y="257.5" ></text>
</g>
<g >
<title>firedrake.__init__ (1,575,550 us, 0.20%)</title><rect x="11.5" y="71" width="2.3" height="15.0" fill="rgb(0,0,0)" rx="2" ry="2" />
<text  x="14.46" y="81.5" ></text>
</g>
<g >
<title>Log_Event_mtf_solve_11 (108,028,692 us, 13.68%)</title><rect x="987.6" y="295" width="161.4" height="15.0" fill="rgb(0,0,0)" rx="2" ry="2" />
<text  x="990.59" y="305.5" >Log_Event_mtf_solve..</text>
</g>
<g >
<title>firedrake.mg.interface.restrict (421,050 us, 0.05%)</title><rect x="986.3" y="263" width="0.6" height="15.0" fill="rgb(0,0,0)" rx="2" ry="2" />
<text  x="989.31" y="273.5" ></text>
</g>
<g >
<title>Log_Event_tensorshell_knl_27 (81,307 us, 0.01%)</title><rect x="15.1" y="231" width="0.1" height="15.0" fill="rgb(0,0,0)" rx="2" ry="2" />
<text  x="18.09" y="241.5" ></text>
</g>
<g >
<title>firedrake.assemble.allocate_matrix (107,062 us, 0.01%)</title><rect x="1189.2" y="231" width="0.2" height="15.0" fill="rgb(0,0,0)" rx="2" ry="2" />
<text  x="1192.20" y="241.5" ></text>
</g>
<g >
<title>MatMultTranspose (421,050 us, 0.05%)</title><rect x="986.3" y="247" width="0.6" height="15.0" fill="rgb(0,0,0)" rx="2" ry="2" />
<text  x="989.31" y="257.5" ></text>
</g>
<g >
<title>MatMult (111,800 us, 0.01%)</title><rect x="13.8" y="119" width="0.2" height="15.0" fill="rgb(0,0,0)" rx="2" ry="2" />
<text  x="16.81" y="129.5" ></text>
</g>
<g >
<title>MatMult (23,192,624 us, 2.94%)</title><rect x="1149.5" y="231" width="34.7" height="15.0" fill="rgb(0,0,0)" rx="2" ry="2" />
<text  x="1152.49" y="241.5" >Ma..</text>
</g>
<g >
<title>Log_Event_subkernel12_cell_to__cell_integral_otherwise (147,719 us, 0.02%)</title><rect x="28.5" y="263" width="0.2" height="15.0" fill="rgb(0,0,0)" rx="2" ry="2" />
<text  x="31.51" y="273.5" ></text>
</g>
<g >
<title>Log_Event_subkernel10_interior_facet_vert_to__exterior_facet_vert_integral_otherwise (192,721 us, 0.02%)</title><rect x="178.1" y="247" width="0.3" height="15.0" fill="rgb(0,0,0)" rx="2" ry="2" />
<text  x="181.12" y="257.5" ></text>
</g>
<g >
<title>Log_Event_subkernel13_cell_to__cell_integral_otherwise (22,281,860 us, 2.82%)</title><rect x="1150.9" y="327" width="33.3" height="15.0" fill="rgb(0,0,0)" rx="2" ry="2" />
<text  x="1153.86" y="337.5" >Lo..</text>
</g>
<g >
<title>KSPSolve (779,191,047 us, 98.68%)</title><rect x="24.9" y="151" width="1164.5" height="15.0" fill="rgb(0,0,0)" rx="2" ry="2" />
<text  x="27.93" y="161.5" >KSPSolve</text>
</g>
<g >
<title>Log_Event_subkernel6_interior_facet_vert_to__exterior_facet_vert_integral_otherwise (85,508 us, 0.01%)</title><rect x="1188.7" y="263" width="0.1" height="15.0" fill="rgb(0,0,0)" rx="2" ry="2" />
<text  x="1191.66" y="273.5" ></text>
</g>
<g >
<title>Log_Event_subkernel3_cell_to__cell_integral_otherwise (3,703,734 us, 0.47%)</title><rect x="19.4" y="231" width="5.5" height="15.0" fill="rgb(0,0,0)" rx="2" ry="2" />
<text  x="22.40" y="241.5" ></text>
</g>
<g >
<title>ParLoopExecute (102,802,195 us, 13.02%)</title><rect x="24.9" y="199" width="153.7" height="15.0" fill="rgb(0,0,0)" rx="2" ry="2" />
<text  x="27.93" y="209.5" >ParLoopExecute</text>
</g>
<g >
<title>Log_Event_slate_loopy_knl_9 (102,802,195 us, 13.02%)</title><rect x="24.9" y="231" width="153.7" height="15.0" fill="rgb(0,0,0)" rx="2" ry="2" />
<text  x="27.93" y="241.5" >Log_Event_slate_lo..</text>
</g>
<g >
<title>Log_Event_subkernel14_interior_facet_vert_to__exterior_facet_vert_integral_otherwise (554,141 us, 0.07%)</title><rect x="982.6" y="295" width="0.9" height="15.0" fill="rgb(0,0,0)" rx="2" ry="2" />
<text  x="985.64" y="305.5" ></text>
</g>
<g >
<title>Log_Event_slate_loopy_knl_5 (2,730,773 us, 0.35%)</title><rect x="1184.6" y="263" width="4.1" height="15.0" fill="rgb(0,0,0)" rx="2" ry="2" />
<text  x="1187.58" y="273.5" ></text>
</g>
<g >
<title>PCApply (649,710,508 us, 82.28%)</title><rect x="178.6" y="183" width="970.9" height="15.0" fill="rgb(0,0,0)" rx="2" ry="2" />
<text  x="181.56" y="193.5" >PCApply</text>
</g>
<g >
<title>MGInterp Level (122,866 us, 0.02%; +0.02%)</title><rect x="983.6" y="247" width="0.2" height="15.0" fill="rgb(255,0,0)" rx="2" ry="2" />
<text  x="986.59" y="257.5" ></text>
</g>
<g >
<title>firedrake.mg.interface.prolong (729,479 us, 0.09%)</title><rect x="983.8" y="295" width="1.1" height="15.0" fill="rgb(0,0,0)" rx="2" ry="2" />
<text  x="986.78" y="305.5" ></text>
</g>
<g >
<title>HybridRHS (3,971,084 us, 0.50%)</title><rect x="19.0" y="151" width="5.9" height="15.0" fill="rgb(0,0,0)" rx="2" ry="2" />
<text  x="22.00" y="161.5" ></text>
</g>
<g >
<title>firedrake (789,611,144 us, 100.00%)</title><rect x="10.0" y="55" width="1180.0" height="15.0" fill="rgb(0,0,0)" rx="2" ry="2" />
<text  x="13.00" y="65.5" >firedrake</text>
</g>
<g >
<title>ParLoopExecute (538,529,329 us, 68.20%)</title><rect x="178.7" y="247" width="804.8" height="15.0" fill="rgb(0,0,0)" rx="2" ry="2" />
<text  x="181.69" y="257.5" >ParLoopExecute</text>
</g>
<g >
<title>MGInterp Level 1 (729,479 us, 0.09%)</title><rect x="983.8" y="247" width="1.1" height="15.0" fill="rgb(0,0,0)" rx="2" ry="2" />
<text  x="986.78" y="257.5" ></text>
</g>
<g >
<title>firedrake.matrix_free.operators.ImplicitMatrixContext.mult (102,802,195 us, 13.02%)</title><rect x="24.9" y="183" width="153.7" height="15.0" fill="rgb(0,0,0)" rx="2" ry="2" />
<text  x="27.93" y="193.5" >firedrake.matrix_f..</text>
</g>
<g >
<title>MGInterp Level (123,086 us, 0.02%; +0.02%)</title><rect x="984.9" y="247" width="0.1" height="15.0" fill="rgb(255,0,0)" rx="2" ry="2" />
<text  x="987.87" y="257.5" ></text>
</g>
<g >
<title>ParLoopExecute (82,190 us, 0.01%)</title><rect x="14.2" y="151" width="0.1" height="15.0" fill="rgb(0,0,0)" rx="2" ry="2" />
<text  x="17.15" y="161.5" ></text>
</g>
<g >
<title>Log_Event_subkernel7_cell_to__cell_integral_otherwise (274,948 us, 0.03%)</title><rect x="1188.8" y="263" width="0.4" height="15.0" fill="rgb(0,0,0)" rx="2" ry="2" />
<text  x="1191.79" y="273.5" ></text>
</g>
<g >
<title>firedrake.matrix_free.operators.ImplicitMatrixContext.mult (23,192,624 us, 2.94%)</title><rect x="1149.5" y="247" width="34.7" height="15.0" fill="rgb(0,0,0)" rx="2" ry="2" />
<text  x="1152.49" y="257.5" >fi..</text>
</g>
<g >
<title>Parloop_Cells_wrap_slate_loopy_knl_9 (102,802,195 us, 13.02%)</title><rect x="24.9" y="215" width="153.7" height="15.0" fill="rgb(0,0,0)" rx="2" ry="2" />
<text  x="27.93" y="225.5" >Parloop_Cells_wrap..</text>
</g>
<g >
<title>firedrake.interpolation.make_interpolator (80,719 us, 0.01%)</title><rect x="1189.5" y="167" width="0.1" height="15.0" fill="rgb(0,0,0)" rx="2" ry="2" />
<text  x="1192.52" y="177.5" ></text>
</g>
<g >
<title>KSPSetUp (26,678,344 us, 3.38%)</title><rect x="1149.5" y="199" width="39.9" height="15.0" fill="rgb(0,0,0)" rx="2" ry="2" />
<text  x="1152.49" y="209.5" >KSP..</text>
</g>
<g >
<title>MatMult (108,777,221 us, 13.78%)</title><rect x="986.9" y="215" width="162.6" height="15.0" fill="rgb(0,0,0)" rx="2" ry="2" />
<text  x="989.94" y="225.5" >MatMult</text>
</g>
<g >
<title>SCSolve (779,377,962 us, 98.70%)</title><rect x="24.9" y="135" width="1164.7" height="15.0" fill="rgb(0,0,0)" rx="2" ry="2" />
<text  x="27.93" y="145.5" >SCSolve</text>
</g>
<g >
<title>firedrake.variational_solver.NonlinearVariationalSolver.solve (787,061,224 us, 99.68%)</title><rect x="13.8" y="71" width="1176.2" height="15.0" fill="rgb(0,0,0)" rx="2" ry="2" />
<text  x="16.81" y="81.5" >firedrake.variational_solver.NonlinearVariationalSolver.solve</text>
</g>
<g >
<title>Log_Event_subkernel10_interior_facet_vert_to__exterior_facet_vert_integral_otherwise (1,000,147 us, 0.13%)</title><rect x="981.1" y="295" width="1.5" height="15.0" fill="rgb(0,0,0)" rx="2" ry="2" />
<text  x="984.14" y="305.5" ></text>
</g>
<g >
<title>ParLoopExecute (108,777,221 us, 13.78%)</title><rect x="986.9" y="247" width="162.6" height="15.0" fill="rgb(0,0,0)" rx="2" ry="2" />
<text  x="989.94" y="257.5" >ParLoopExecute</text>
</g>
<g >
<title>Log_Event_slate_loopy_knl_9 (22,906,462 us, 2.90%)</title><rect x="1149.9" y="295" width="34.3" height="15.0" fill="rgb(0,0,0)" rx="2" ry="2" />
<text  x="1152.92" y="305.5" >Lo..</text>
</g>
<g >
<title>Log_Event_slate_loopy_knl_9 (108,777,221 us, 13.78%)</title><rect x="986.9" y="279" width="162.6" height="15.0" fill="rgb(0,0,0)" rx="2" ry="2" />
<text  x="989.94" y="289.5" >Log_Event_slate_loo..</text>
</g>
<g >
<title>RecoverFirstElim (3,160,124 us, 0.40%)</title><rect x="14.3" y="151" width="4.7" height="15.0" fill="rgb(0,0,0)" rx="2" ry="2" />
<text  x="17.28" y="161.5" ></text>
</g>
<g >
<title>SCForwardElim (3,971,084 us, 0.50%)</title><rect x="19.0" y="135" width="5.9" height="15.0" fill="rgb(0,0,0)" rx="2" ry="2" />
<text  x="22.00" y="145.5" ></text>
</g>
<g >
<title>Log_Event_subkernel13_cell_to__cell_integral_otherwise (99,964,609 us, 12.66%)</title><rect x="28.7" y="263" width="149.4" height="15.0" fill="rgb(0,0,0)" rx="2" ry="2" />
<text  x="31.73" y="273.5" >Log_Event_subkern..</text>
</g>
<g >
<title>MatResidual (108,777,221 us, 13.78%)</title><rect x="986.9" y="199" width="162.6" height="15.0" fill="rgb(0,0,0)" rx="2" ry="2" />
<text  x="989.94" y="209.5" >MatResidual</text>
</g>
<g >
<title>inv_getri (1,549,569 us, 0.20%)</title><rect x="1186.3" y="279" width="2.4" height="15.0" fill="rgb(0,0,0)" rx="2" ry="2" />
<text  x="1189.35" y="289.5" ></text>
</g>
<g >
<title>Log_Event_subkernel46_cell_to__cell_integral_otherwise (82,190 us, 0.01%)</title><rect x="14.2" y="215" width="0.1" height="15.0" fill="rgb(0,0,0)" rx="2" ry="2" />
<text  x="17.15" y="225.5" ></text>
</g>
<g >
<title>Parloop_Cells_wrap_slate_loopy_knl_9 (22,906,462 us, 2.90%)</title><rect x="1149.9" y="279" width="34.3" height="15.0" fill="rgb(0,0,0)" rx="2" ry="2" />
<text  x="1152.92" y="289.5" >Pa..</text>
</g>
<g >
<title>Log_Event_subkernel12_cell_to__cell_integral_otherwise (771,822 us, 0.10%)</title><rect x="197.4" y="311" width="1.1" height="15.0" fill="rgb(0,0,0)" rx="2" ry="2" />
<text  x="200.35" y="321.5" ></text>
</g>
<g >
<title>ParLoopExecute (3,257,494 us, 0.41%)</title><rect x="1184.3" y="231" width="4.9" height="15.0" fill="rgb(0,0,0)" rx="2" ry="2" />
<text  x="1187.33" y="241.5" ></text>
</g>
<g >
<title>KSPSolve (540,933,287 us, 68.51%)</title><rect x="178.6" y="199" width="808.3" height="15.0" fill="rgb(0,0,0)" rx="2" ry="2" />
<text  x="181.56" y="209.5" >KSPSolve</text>
</g>
<g >
<title>KSPSolve (786,821,646 us, 99.65%)</title><rect x="13.8" y="103" width="1175.8" height="15.0" fill="rgb(0,0,0)" rx="2" ry="2" />
<text  x="16.81" y="113.5" >KSPSolve</text>
</g>
<g >
<title>Log_Event_mtf_solve_11 (102,076,826 us, 12.93%)</title><rect x="25.6" y="247" width="152.5" height="15.0" fill="rgb(0,0,0)" rx="2" ry="2" />
<text  x="28.57" y="257.5" >Log_Event_mtf_sol..</text>
</g>
<g >
<title>Log_Event_subkernel38_cell_to__cell_integral_otherwise (2,153,706 us, 0.27%)</title><rect x="15.4" y="263" width="3.3" height="15.0" fill="rgb(0,0,0)" rx="2" ry="2" />
<text  x="18.44" y="273.5" ></text>
</g>
<g >
<title>firedrake.matrix_free.operators.ImplicitMatrixContext.mult (538,611,567 us, 68.21%)</title><rect x="178.6" y="231" width="804.9" height="15.0" fill="rgb(0,0,0)" rx="2" ry="2" />
<text  x="181.56" y="241.5" >firedrake.matrix_free.operators.ImplicitMatrixContext.mult</text>
</g>
<g >
<title>SCBackSub (3,360,800 us, 0.43%)</title><rect x="14.0" y="135" width="5.0" height="15.0" fill="rgb(0,0,0)" rx="2" ry="2" />
<text  x="16.98" y="145.5" ></text>
</g>
<g >
<title>Parloop_Cells_wrap_slate_loopy_knl_15 (2,750,596 us, 0.35%)</title><rect x="14.9" y="183" width="4.1" height="15.0" fill="rgb(0,0,0)" rx="2" ry="2" />
<text  x="17.89" y="193.5" ></text>
</g>
<g >
<title>KSPSolve (23,192,624 us, 2.94%)</title><rect x="1149.5" y="215" width="34.7" height="15.0" fill="rgb(0,0,0)" rx="2" ry="2" />
<text  x="1152.49" y="225.5" >KS..</text>
</g>
<g >
<title>firedrake.mg.embedded.TransferManager.op (729,479 us, 0.09%)</title><rect x="983.8" y="279" width="1.1" height="15.0" fill="rgb(0,0,0)" rx="2" ry="2" />
<text  x="986.78" y="289.5" ></text>
</g>
<g >
<title>Log_Event_subkernel14_interior_facet_vert_to__exterior_facet_vert_integral_otherwise (104,439 us, 0.01%)</title><rect x="178.4" y="247" width="0.2" height="15.0" fill="rgb(0,0,0)" rx="2" ry="2" />
<text  x="181.41" y="257.5" ></text>
</g>
<g >
<title>HybridInit (157,813 us, 0.02%)</title><rect x="1189.6" y="119" width="0.3" height="15.0" fill="rgb(0,0,0)" rx="2" ry="2" />
<text  x="1192.64" y="129.5" ></text>
</g>
<g >
<title>ParLoopExecute (3,783,402 us, 0.48%)</title><rect x="19.3" y="167" width="5.6" height="15.0" fill="rgb(0,0,0)" rx="2" ry="2" />
<text  x="22.28" y="177.5" ></text>
</g>
<g >
<title>Log_Event_mtf_solve_44 (82,190 us, 0.01%)</title><rect x="14.2" y="199" width="0.1" height="15.0" fill="rgb(0,0,0)" rx="2" ry="2" />
<text  x="17.15" y="209.5" ></text>
</g>
<g >
<title>firedrake.matrix_free.operators.ImplicitMatrixContext.mult (111,800 us, 0.01%)</title><rect x="13.8" y="135" width="0.2" height="15.0" fill="rgb(0,0,0)" rx="2" ry="2" />
<text  x="16.81" y="145.5" ></text>
</g>
<g >
<title>MatMult (102,802,195 us, 13.02%)</title><rect x="24.9" y="167" width="153.7" height="15.0" fill="rgb(0,0,0)" rx="2" ry="2" />
<text  x="27.93" y="177.5" >MatMult</text>
</g>
<g >
<title>MatMult (538,611,567 us, 68.21%)</title><rect x="178.6" y="215" width="804.9" height="15.0" fill="rgb(0,0,0)" rx="2" ry="2" />
<text  x="181.56" y="225.5" >MatMult</text>
</g>
<g >
<title>PCSetUp (1,263,196 us, 0.16%)</title><rect x="985.0" y="231" width="1.9" height="15.0" fill="rgb(0,0,0)" rx="2" ry="2" />
<text  x="988.05" y="241.5" ></text>
</g>
<g >
<title>firedrake.matrix_free.operators.ImplicitMatrixContext.mult (108,777,221 us, 13.78%)</title><rect x="986.9" y="231" width="162.6" height="15.0" fill="rgb(0,0,0)" rx="2" ry="2" />
<text  x="989.94" y="241.5" >firedrake.matrix_fr..</text>
</g>
<g >
<title>ParLoopExecute (22,906,462 us, 2.90%)</title><rect x="1149.9" y="263" width="34.3" height="15.0" fill="rgb(0,0,0)" rx="2" ry="2" />
<text  x="1152.92" y="273.5" >Pa..</text>
</g>
<g >
<title>CreateExtMesh (80,023 us, 0.01%)</title><rect x="11.3" y="71" width="0.2" height="15.0" fill="rgb(0,0,0)" rx="2" ry="2" />
<text  x="14.34" y="81.5" ></text>
</g>
<g >
<title>firedrake.mg.interface.inject (842,146 us, 0.11%)</title><rect x="985.0" y="295" width="1.3" height="15.0" fill="rgb(0,0,0)" rx="2" ry="2" />
<text  x="988.05" y="305.5" ></text>
</g>
<g >
<title>Log_Event_mtf_solve_29 (81,307 us, 0.01%)</title><rect x="15.1" y="247" width="0.1" height="15.0" fill="rgb(0,0,0)" rx="2" ry="2" />
<text  x="18.09" y="257.5" ></text>
</g>
<g >
<title>Parloop_Cells_wrap_slate_loopy_knl_41 (82,190 us, 0.01%)</title><rect x="14.2" y="167" width="0.1" height="15.0" fill="rgb(0,0,0)" rx="2" ry="2" />
<text  x="17.15" y="177.5" ></text>
</g>
<g >
<title>firedrake.mg.embedded.TransferManager.op (842,146 us, 0.11%)</title><rect x="985.0" y="279" width="1.3" height="15.0" fill="rgb(0,0,0)" rx="2" ry="2" />
<text  x="988.05" y="289.5" ></text>
</g>
<g >
<title>Log_Event_slate_loopy_knl_9 (538,529,329 us, 68.20%)</title><rect x="178.7" y="279" width="804.8" height="15.0" fill="rgb(0,0,0)" rx="2" ry="2" />
<text  x="181.69" y="289.5" >Log_Event_slate_loopy_knl_9</text>
</g>
<g >
<title>PCApply (676,388,852 us, 85.66%)</title><rect x="178.6" y="167" width="1010.8" height="15.0" fill="rgb(0,0,0)" rx="2" ry="2" />
<text  x="181.56" y="177.5" >PCApply</text>
</g>
<g >
<title>Log_Event_mtf_solve_36 (2,305,500 us, 0.29%)</title><rect x="15.2" y="247" width="3.5" height="15.0" fill="rgb(0,0,0)" rx="2" ry="2" />
<text  x="18.22" y="257.5" ></text>
</g>
<g >
<title>Log_Event_subkernel13_cell_to__cell_integral_otherwise (105,770,422 us, 13.40%)</title><rect x="991.0" y="311" width="158.0" height="15.0" fill="rgb(0,0,0)" rx="2" ry="2" />
<text  x="993.97" y="321.5" >Log_Event_subkerne..</text>
</g>
<g >
<title>Log_Event_slate_loopy_knl_15 (2,750,596 us, 0.35%)</title><rect x="14.9" y="199" width="4.1" height="15.0" fill="rgb(0,0,0)" rx="2" ry="2" />
<text  x="17.89" y="209.5" ></text>
</g>
<g >
<title>firedrake.pointquery_utils.to_reference_coordinates (421,050 us, 0.05%)</title><rect x="986.3" y="279" width="0.6" height="15.0" fill="rgb(0,0,0)" rx="2" ry="2" />
<text  x="989.31" y="289.5" ></text>
</g>
<g >
<title>Parloop_Cells_wrap_slate_loopy_knl_9 (538,529,329 us, 68.20%)</title><rect x="178.7" y="263" width="804.8" height="15.0" fill="rgb(0,0,0)" rx="2" ry="2" />
<text  x="181.69" y="273.5" >Parloop_Cells_wrap_slate_loopy_knl_9</text>
</g>
<g >
<title>PCSetUp (26,678,344 us, 3.38%)</title><rect x="1149.5" y="183" width="39.9" height="15.0" fill="rgb(0,0,0)" rx="2" ry="2" />
<text  x="1152.49" y="193.5" >PCS..</text>
</g>
<g >
<title>Log_Event_subkernel35_cell_to__cell_integral_otherwise (115,241 us, 0.01%)</title><rect x="18.7" y="247" width="0.1" height="15.0" fill="rgb(0,0,0)" rx="2" ry="2" />
<text  x="21.66" y="257.5" ></text>
</g>
<g >
<title>Log_Event_mtf_solve_11 (22,752,776 us, 2.88%)</title><rect x="1150.2" y="311" width="34.0" height="15.0" fill="rgb(0,0,0)" rx="2" ry="2" />
<text  x="1153.15" y="321.5" >Lo..</text>
</g>
<g >
<title>Log_Event_subkernel13_cell_to__cell_integral_otherwise (523,711,530 us, 66.33%)</title><rect x="198.5" y="311" width="782.6" height="15.0" fill="rgb(0,0,0)" rx="2" ry="2" />
<text  x="201.51" y="321.5" >Log_Event_subkernel13_cell_to__cell_integral_otherwise</text>
</g>
<g >
<title>PCSetUp (3,485,720 us, 0.44%)</title><rect x="1184.2" y="215" width="5.2" height="15.0" fill="rgb(0,0,0)" rx="2" ry="2" />
<text  x="1187.15" y="225.5" ></text>
</g>
<g >
<title>SNESSolve (787,061,224 us, 99.68%)</title><rect x="13.8" y="87" width="1176.2" height="15.0" fill="rgb(0,0,0)" rx="2" ry="2" />
<text  x="16.81" y="97.5" >SNESSolve</text>
</g>
<g >
<title>Log_Event_mtf_solve_26 (2,613,917 us, 0.33%)</title><rect x="15.1" y="215" width="3.9" height="15.0" fill="rgb(0,0,0)" rx="2" ry="2" />
<text  x="18.09" y="225.5" ></text>
</g>
<g >
<title>ParLoopExecute (2,750,596 us, 0.35%)</title><rect x="14.9" y="167" width="4.1" height="15.0" fill="rgb(0,0,0)" rx="2" ry="2" />
<text  x="17.89" y="177.5" ></text>
</g>
<g >
<title>SNESFunctionEval (81,765 us, 0.01%)</title><rect x="1189.9" y="103" width="0.1" height="15.0" fill="rgb(0,0,0)" rx="2" ry="2" />
<text  x="1192.88" y="113.5" ></text>
</g>
<g >
<title>ParLoopExecute (81,765 us, 0.01%)</title><rect x="1189.9" y="119" width="0.1" height="15.0" fill="rgb(0,0,0)" rx="2" ry="2" />
<text  x="1192.88" y="129.5" ></text>
</g>
<g >
<title>Log_Event_tensorshell_knl_34 (2,532,610 us, 0.32%)</title><rect x="15.2" y="231" width="3.8" height="15.0" fill="rgb(0,0,0)" rx="2" ry="2" />
<text  x="18.22" y="241.5" ></text>
</g>
<g >
<title>all (789,611,144 us, 100%)</title><rect x="10.0" y="39" width="1180.0" height="15.0" fill="rgb(0,0,0)" rx="2" ry="2" />
<text  x="13.00" y="49.5" ></text>
</g>
<g >
<title>Log_Event_subkernel10_interior_facet_vert_to__exterior_facet_vert_integral_otherwise (200,008 us, 0.03%)</title><rect x="1149.0" y="295" width="0.3" height="15.0" fill="rgb(0,0,0)" rx="2" ry="2" />
<text  x="1152.03" y="305.5" ></text>
</g>
<g >
<title>firedrake.pointquery_utils.to_reference_coordinates (430,320 us, 0.05%)</title><rect x="985.7" y="311" width="0.6" height="15.0" fill="rgb(0,0,0)" rx="2" ry="2" />
<text  x="988.66" y="321.5" ></text>
</g>
<g >
<title>PCApply (1,058,524 us, 0.13%)</title><rect x="983.5" y="231" width="1.5" height="15.0" fill="rgb(0,0,0)" rx="2" ry="2" />
<text  x="986.47" y="241.5" ></text>
</g>
<g >
<title>Parloop_Cells_wrap_slate_loopy_knl_0 (3,783,402 us, 0.48%)</title><rect x="19.3" y="183" width="5.6" height="15.0" fill="rgb(0,0,0)" rx="2" ry="2" />
<text  x="22.28" y="193.5" ></text>
</g>
<g >
<title>Log_Event_subkernel31_cell_to__cell_integral_otherwise (81,307 us, 0.01%)</title><rect x="15.1" y="263" width="0.1" height="15.0" fill="rgb(0,0,0)" rx="2" ry="2" />
<text  x="18.09" y="273.5" ></text>
</g>
<g >
<title>firedrake.pointquery_utils.to_reference_coordinates (419,355 us, 0.05%)</title><rect x="984.2" y="311" width="0.7" height="15.0" fill="rgb(0,0,0)" rx="2" ry="2" />
<text  x="987.24" y="321.5" ></text>
</g>
</g>
</svg>
