<?xml version="1.0" standalone="no"?>
<!DOCTYPE svg PUBLIC "-//W3C//DTD SVG 1.1//EN" "http://www.w3.org/Graphics/SVG/1.1/DTD/svg11.dtd">
<svg version="1.1" width="1200" height="427" onload="init(evt)" viewBox="0 0 1200 427" xmlns="http://www.w3.org/2000/svg" xmlns:xlink="http://www.w3.org/1999/xlink">
<!-- Flame graph stack visualization. See https://github.com/brendangregg/FlameGraph for latest version, and http://www.brendangregg.com/flamegraphs.html for examples. -->
<!-- NOTES:  -->
<defs>
	<linearGradient id="background" y1="0" y2="1" x1="0" x2="0" >
		<stop stop-color="#eeeeee" offset="5%" />
		<stop stop-color="#eeeeb0" offset="95%" />
	</linearGradient>
</defs>
<style type="text/css">
	text { font-family:Verdana; font-size:13px; fill:rgb(0,0,0); }
	#search, #ignorecase { opacity:0.1; cursor:pointer; }
	#search:hover, #search.show, #ignorecase:hover, #ignorecase.show { opacity:1; }
	#subtitle { text-anchor:middle; font-color:rgb(160,160,160); }
	#title { text-anchor:middle; font-size:18px}
	#unzoom { cursor:pointer; }
	#frames > *:hover { stroke:black; stroke-width:0.5; cursor:pointer; }
	.hide { display:none; }
	.parent { opacity:0.5; }
</style>
<script type="text/ecmascript">
<![CDATA[
	"use strict";
	var details, searchbtn, unzoombtn, matchedtxt, svg, searching, currentSearchTerm, ignorecase, ignorecaseBtn;
	function init(evt) {
		details = document.getElementById("details").firstChild;
		searchbtn = document.getElementById("search");
		ignorecaseBtn = document.getElementById("ignorecase");
		unzoombtn = document.getElementById("unzoom");
		matchedtxt = document.getElementById("matched");
		svg = document.getElementsByTagName("svg")[0];
		searching = 0;
		currentSearchTerm = null;

		// use GET parameters to restore a flamegraphs state.
		var params = get_params();
		if (params.x && params.y)
			zoom(find_group(document.querySelector('[x="' + params.x + '"][y="' + params.y + '"]')));
                if (params.s) search(params.s);
	}

	// event listeners
	window.addEventListener("click", function(e) {
		var target = find_group(e.target);
		if (target) {
			if (target.nodeName == "a") {
				if (e.ctrlKey === false) return;
				e.preventDefault();
			}
			if (target.classList.contains("parent")) unzoom();
			zoom(target);
			if (!document.querySelector('.parent')) {
				clearzoom();
				return;
			}

			// set parameters for zoom state
			var el = target.querySelector("rect");
			if (el && el.attributes && el.attributes.y && el.attributes._orig_x) {
				var params = get_params()
				params.x = el.attributes._orig_x.value;
				params.y = el.attributes.y.value;
				history.replaceState(null, null, parse_params(params));
			}
		}
		else if (e.target.id == "unzoom") clearzoom();
		else if (e.target.id == "search") search_prompt();
		else if (e.target.id == "ignorecase") toggle_ignorecase();
	}, false)

	// mouse-over for info
	// show
	window.addEventListener("mouseover", function(e) {
		var target = find_group(e.target);
		if (target) details.nodeValue = "Function: " + g_to_text(target);
	}, false)

	// clear
	window.addEventListener("mouseout", function(e) {
		var target = find_group(e.target);
		if (target) details.nodeValue = ' ';
	}, false)

	// ctrl-F for search
	// ctrl-I to toggle case-sensitive search
	window.addEventListener("keydown",function (e) {
		if (e.keyCode === 114 || (e.ctrlKey && e.keyCode === 70)) {
			e.preventDefault();
			search_prompt();
		}
		else if (e.ctrlKey && e.keyCode === 73) {
			e.preventDefault();
			toggle_ignorecase();
		}
	}, false)

	// functions
	function get_params() {
		var params = {};
		var paramsarr = window.location.search.substr(1).split('&');
		for (var i = 0; i < paramsarr.length; ++i) {
			var tmp = paramsarr[i].split("=");
			if (!tmp[0] || !tmp[1]) continue;
			params[tmp[0]]  = decodeURIComponent(tmp[1]);
		}
		return params;
	}
	function parse_params(params) {
		var uri = "?";
		for (var key in params) {
			uri += key + '=' + encodeURIComponent(params[key]) + '&';
		}
		if (uri.slice(-1) == "&")
			uri = uri.substring(0, uri.length - 1);
		if (uri == '?')
			uri = window.location.href.split('?')[0];
		return uri;
	}
	function find_child(node, selector) {
		var children = node.querySelectorAll(selector);
		if (children.length) return children[0];
	}
	function find_group(node) {
		var parent = node.parentElement;
		if (!parent) return;
		if (parent.id == "frames") return node;
		return find_group(parent);
	}
	function orig_save(e, attr, val) {
		if (e.attributes["_orig_" + attr] != undefined) return;
		if (e.attributes[attr] == undefined) return;
		if (val == undefined) val = e.attributes[attr].value;
		e.setAttribute("_orig_" + attr, val);
	}
	function orig_load(e, attr) {
		if (e.attributes["_orig_"+attr] == undefined) return;
		e.attributes[attr].value = e.attributes["_orig_" + attr].value;
		e.removeAttribute("_orig_"+attr);
	}
	function g_to_text(e) {
		var text = find_child(e, "title").firstChild.nodeValue;
		return (text)
	}
	function g_to_func(e) {
		var func = g_to_text(e);
		// if there's any manipulation we want to do to the function
		// name before it's searched, do it here before returning.
		return (func);
	}
	function update_text(e) {
		var r = find_child(e, "rect");
		var t = find_child(e, "text");
		var w = parseFloat(r.attributes.width.value) -3;
		var txt = find_child(e, "title").textContent.replace(/\([^(]*\)$/,"");
		t.attributes.x.value = parseFloat(r.attributes.x.value) + 3;

		// Smaller than this size won't fit anything
		if (w < 2 * 13 * 0.59) {
			t.textContent = "";
			return;
		}

		t.textContent = txt;
		// Fit in full text width
		if (/^ *$/.test(txt) || t.getSubStringLength(0, txt.length) < w)
			return;

		for (var x = txt.length - 2; x > 0; x--) {
			if (t.getSubStringLength(0, x + 2) <= w) {
				t.textContent = txt.substring(0, x) + "..";
				return;
			}
		}
		t.textContent = "";
	}

	// zoom
	function zoom_reset(e) {
		if (e.attributes != undefined) {
			orig_load(e, "x");
			orig_load(e, "width");
		}
		if (e.childNodes == undefined) return;
		for (var i = 0, c = e.childNodes; i < c.length; i++) {
			zoom_reset(c[i]);
		}
	}
	function zoom_child(e, x, ratio) {
		if (e.attributes != undefined) {
			if (e.attributes.x != undefined) {
				orig_save(e, "x");
				e.attributes.x.value = (parseFloat(e.attributes.x.value) - x - 10) * ratio + 10;
				if (e.tagName == "text")
					e.attributes.x.value = find_child(e.parentNode, "rect[x]").attributes.x.value + 3;
			}
			if (e.attributes.width != undefined) {
				orig_save(e, "width");
				e.attributes.width.value = parseFloat(e.attributes.width.value) * ratio;
			}
		}

		if (e.childNodes == undefined) return;
		for (var i = 0, c = e.childNodes; i < c.length; i++) {
			zoom_child(c[i], x - 10, ratio);
		}
	}
	function zoom_parent(e) {
		if (e.attributes) {
			if (e.attributes.x != undefined) {
				orig_save(e, "x");
				e.attributes.x.value = 10;
			}
			if (e.attributes.width != undefined) {
				orig_save(e, "width");
				e.attributes.width.value = parseInt(svg.width.baseVal.value) - (10 * 2);
			}
		}
		if (e.childNodes == undefined) return;
		for (var i = 0, c = e.childNodes; i < c.length; i++) {
			zoom_parent(c[i]);
		}
	}
	function zoom(node) {
		var attr = find_child(node, "rect").attributes;
		var width = parseFloat(attr.width.value);
		var xmin = parseFloat(attr.x.value);
		var xmax = parseFloat(xmin + width);
		var ymin = parseFloat(attr.y.value);
		var ratio = (svg.width.baseVal.value - 2 * 10) / width;

		// XXX: Workaround for JavaScript float issues (fix me)
		var fudge = 0.0001;

		unzoombtn.classList.remove("hide");

		var el = document.getElementById("frames").children;
		for (var i = 0; i < el.length; i++) {
			var e = el[i];
			var a = find_child(e, "rect").attributes;
			var ex = parseFloat(a.x.value);
			var ew = parseFloat(a.width.value);
			var upstack;
			// Is it an ancestor
			if (1 == 0) {
				upstack = parseFloat(a.y.value) > ymin;
			} else {
				upstack = parseFloat(a.y.value) < ymin;
			}
			if (upstack) {
				// Direct ancestor
				if (ex <= xmin && (ex+ew+fudge) >= xmax) {
					e.classList.add("parent");
					zoom_parent(e);
					update_text(e);
				}
				// not in current path
				else
					e.classList.add("hide");
			}
			// Children maybe
			else {
				// no common path
				if (ex < xmin || ex + fudge >= xmax) {
					e.classList.add("hide");
				}
				else {
					zoom_child(e, xmin, ratio);
					update_text(e);
				}
			}
		}
		search();
	}
	function unzoom() {
		unzoombtn.classList.add("hide");
		var el = document.getElementById("frames").children;
		for(var i = 0; i < el.length; i++) {
			el[i].classList.remove("parent");
			el[i].classList.remove("hide");
			zoom_reset(el[i]);
			update_text(el[i]);
		}
		search();
	}
	function clearzoom() {
		unzoom();

		// remove zoom state
		var params = get_params();
		if (params.x) delete params.x;
		if (params.y) delete params.y;
		history.replaceState(null, null, parse_params(params));
	}

	// search
	function toggle_ignorecase() {
		ignorecase = !ignorecase;
		if (ignorecase) {
			ignorecaseBtn.classList.add("show");
		} else {
			ignorecaseBtn.classList.remove("show");
		}
		reset_search();
		search();
	}
	function reset_search() {
		var el = document.querySelectorAll("#frames rect");
		for (var i = 0; i < el.length; i++) {
			orig_load(el[i], "fill")
		}
		var params = get_params();
		delete params.s;
		history.replaceState(null, null, parse_params(params));
	}
	function search_prompt() {
		if (!searching) {
			var term = prompt("Enter a search term (regexp " +
			    "allowed, eg: ^ext4_)"
			    + (ignorecase ? ", ignoring case" : "")
			    + "\nPress Ctrl-i to toggle case sensitivity", "");
			if (term != null) search(term);
		} else {
			reset_search();
			searching = 0;
			currentSearchTerm = null;
			searchbtn.classList.remove("show");
			searchbtn.firstChild.nodeValue = "Search"
			matchedtxt.classList.add("hide");
			matchedtxt.firstChild.nodeValue = ""
		}
	}
	function search(term) {
		if (term) currentSearchTerm = term;

		var re = new RegExp(currentSearchTerm, ignorecase ? 'i' : '');
		var el = document.getElementById("frames").children;
		var matches = new Object();
		var maxwidth = 0;
		for (var i = 0; i < el.length; i++) {
			var e = el[i];
			var func = g_to_func(e);
			var rect = find_child(e, "rect");
			if (func == null || rect == null)
				continue;

			// Save max width. Only works as we have a root frame
			var w = parseFloat(rect.attributes.width.value);
			if (w > maxwidth)
				maxwidth = w;

			if (func.match(re)) {
				// highlight
				var x = parseFloat(rect.attributes.x.value);
				orig_save(rect, "fill");
				rect.attributes.fill.value = "rgb(230,0,230)";

				// remember matches
				if (matches[x] == undefined) {
					matches[x] = w;
				} else {
					if (w > matches[x]) {
						// overwrite with parent
						matches[x] = w;
					}
				}
				searching = 1;
			}
		}
		if (!searching)
			return;
		var params = get_params();
		params.s = currentSearchTerm;
		history.replaceState(null, null, parse_params(params));

		searchbtn.classList.add("show");
		searchbtn.firstChild.nodeValue = "Reset Search";

		// calculate percent matched, excluding vertical overlap
		var count = 0;
		var lastx = -1;
		var lastw = 0;
		var keys = Array();
		for (k in matches) {
			if (matches.hasOwnProperty(k))
				keys.push(k);
		}
		// sort the matched frames by their x location
		// ascending, then width descending
		keys.sort(function(a, b){
			return a - b;
		});
		// Step through frames saving only the biggest bottom-up frames
		// thanks to the sort order. This relies on the tree property
		// where children are always smaller than their parents.
		var fudge = 0.0001;	// JavaScript floating point
		for (var k in keys) {
			var x = parseFloat(keys[k]);
			var w = matches[keys[k]];
			if (x >= lastx + lastw - fudge) {
				count += w;
				lastx = x;
				lastw = w;
			}
		}
		// display matched percent
		matchedtxt.classList.remove("hide");
		var pct = 100 * count / maxwidth;
		if (pct != 100) pct = pct.toFixed(1)
		matchedtxt.firstChild.nodeValue = "Matched: " + pct + "%";
	}
]]>
</script>
<rect x="0.0" y="0" width="1200.0" height="427.0" fill="url(#background)"  />
<text id="title" x="600.00" y="26" >Firedrake example</text>
<text id="details" x="10.00" y="409" > </text>
<text id="unzoom" x="10.00" y="26" class="hide">Reset Zoom</text>
<text id="search" x="1090.00" y="26" >Search</text>
<text id="ignorecase" x="1174.00" y="26" >ic</text>
<text id="matched" x="1090.00" y="409" > </text>
<g id="frames">
<g >
<title>pyop2.global_kernel.GlobalKernel.compile (20,723,172 us, 2.02%)</title><rect x="126.0" y="199" width="23.8" height="15.0" fill="rgb(0,0,0)" rx="2" ry="2" />
<text  x="128.98" y="209.5" >p..</text>
</g>
<g >
<title>ParLoopExecute (861,578 us, 0.08%)</title><rect x="119.7" y="183" width="1.0" height="15.0" fill="rgb(0,0,0)" rx="2" ry="2" />
<text  x="122.72" y="193.5" ></text>
</g>
<g >
<title>firedrake.variational_solver.NonlinearVariationalSolver.solve (1,022,384,009 us, 99.67%)</title><rect x="13.8" y="71" width="1176.2" height="15.0" fill="rgb(0,0,0)" rx="2" ry="2" />
<text  x="16.84" y="81.5" >firedrake.variational_solver.NonlinearVariationalSolver.solve</text>
</g>
<g >
<title>KSPSolve (1,012,387,421 us, 98.70%)</title><rect x="13.8" y="103" width="1164.7" height="15.0" fill="rgb(0,0,0)" rx="2" ry="2" />
<text  x="16.84" y="113.5" >KSPSolve</text>
</g>
<g >
<title>Log_Event_subkernel13_cell_to__cell_integral_otherwise (527,026,358 us, 51.38%)</title><rect x="288.4" y="311" width="606.3" height="15.0" fill="rgb(0,0,0)" rx="2" ry="2" />
<text  x="291.43" y="321.5" >Log_Event_subkernel13_cell_to__cell_integral_otherwise</text>
</g>
<g >
<title>pyop2.global_kernel.GlobalKernel.compile (42,150,812 us, 4.11%)</title><rect x="55.6" y="199" width="48.5" height="15.0" fill="rgb(0,0,0)" rx="2" ry="2" />
<text  x="58.65" y="209.5" >pyop..</text>
</g>
<g >
<title>Log_Event_slate_loopy_knl_0 (3,744,509 us, 0.37%)</title><rect x="121.7" y="199" width="4.3" height="15.0" fill="rgb(0,0,0)" rx="2" ry="2" />
<text  x="124.67" y="209.5" ></text>
</g>
<g >
<title>Log_Event_subkernel39_cell_to__cell_integral_otherwise (112,433 us, 0.01%)</title><rect x="55.5" y="247" width="0.1" height="15.0" fill="rgb(0,0,0)" rx="2" ry="2" />
<text  x="58.52" y="257.5" ></text>
</g>
<g >
<title>Log_Event_mtf_solve_11 (22,633,670 us, 2.21%)</title><rect x="1029.9" y="311" width="26.0" height="15.0" fill="rgb(0,0,0)" rx="2" ry="2" />
<text  x="1032.86" y="321.5" >L..</text>
</g>
<g >
<title>Log_Event_subkernel13_cell_to__cell_integral_otherwise (22,164,499 us, 2.16%)</title><rect x="1030.4" y="327" width="25.5" height="15.0" fill="rgb(0,0,0)" rx="2" ry="2" />
<text  x="1033.40" y="337.5" >L..</text>
</g>
<g >
<title>Log_Event_mtf_solve_11 (102,693,149 us, 10.01%)</title><rect x="154.6" y="247" width="118.1" height="15.0" fill="rgb(0,0,0)" rx="2" ry="2" />
<text  x="157.56" y="257.5" >Log_Event_mtf..</text>
</g>
<g >
<title>firedrake.pointquery_utils.to_reference_coordinates (408,059 us, 0.04%)</title><rect x="897.6" y="311" width="0.5" height="15.0" fill="rgb(0,0,0)" rx="2" ry="2" />
<text  x="900.60" y="321.5" ></text>
</g>
<g >
<title>firedrake.matrix_free.operators.ImplicitMatrixContext.mult (108,932,265 us, 10.62%)</title><rect x="902.9" y="231" width="125.4" height="15.0" fill="rgb(0,0,0)" rx="2" ry="2" />
<text  x="905.94" y="241.5" >firedrake.matr..</text>
</g>
<g >
<title>SNESFunctionEval (9,191,526 us, 0.90%)</title><rect x="1179.4" y="103" width="10.6" height="15.0" fill="rgb(0,0,0)" rx="2" ry="2" />
<text  x="1182.43" y="113.5" ></text>
</g>
<g >
<title>firedrake.tsfc_interface.compile_form (6,050,554 us, 0.59%)</title><rect x="1093.1" y="263" width="7.0" height="15.0" fill="rgb(0,0,0)" rx="2" ry="2" />
<text  x="1096.15" y="273.5" ></text>
</g>
<g >
<title>Log_Event_mtf_solve_26 (2,529,436 us, 0.25%)</title><rect x="52.7" y="215" width="2.9" height="15.0" fill="rgb(0,0,0)" rx="2" ry="2" />
<text  x="55.74" y="225.5" ></text>
</g>
<g >
<title>Log_Event_subkernel12_cell_to__cell_integral_otherwise (154,265 us, 0.02%)</title><rect x="905.8" y="311" width="0.2" height="15.0" fill="rgb(0,0,0)" rx="2" ry="2" />
<text  x="908.82" y="321.5" ></text>
</g>
<g >
<title>ParLoopExecute (7,456,748 us, 0.73%)</title><rect x="13.8" y="151" width="8.6" height="15.0" fill="rgb(0,0,0)" rx="2" ry="2" />
<text  x="16.84" y="161.5" ></text>
</g>
<g >
<title>Parloop_Cells_wrap_slate_loopy_knl_9 (55,169,941 us, 5.38%)</title><rect x="1029.7" y="279" width="63.4" height="15.0" fill="rgb(0,0,0)" rx="2" ry="2" />
<text  x="1032.68" y="289.5" >Parloo..</text>
</g>
<g >
<title>Log_Event_subkernel3_cell_to__cell_integral_otherwise (3,744,509 us, 0.37%)</title><rect x="121.7" y="231" width="4.3" height="15.0" fill="rgb(0,0,0)" rx="2" ry="2" />
<text  x="124.67" y="241.5" ></text>
</g>
<g >
<title>ParLoopExecute (44,817,943 us, 4.37%)</title><rect x="52.6" y="167" width="51.5" height="15.0" fill="rgb(0,0,0)" rx="2" ry="2" />
<text  x="55.58" y="177.5" >ParL..</text>
</g>
<g >
<title>HybridRHS (29,004,741 us, 2.83%)</title><rect x="120.7" y="151" width="33.4" height="15.0" fill="rgb(0,0,0)" rx="2" ry="2" />
<text  x="123.71" y="161.5" >Hy..</text>
</g>
<g >
<title>firedrake.mg.interface.inject (2,568,699 us, 0.25%)</title><rect x="898.2" y="295" width="3.0" height="15.0" fill="rgb(0,0,0)" rx="2" ry="2" />
<text  x="901.21" y="305.5" ></text>
</g>
<g >
<title>KSPSolve (62,457,214 us, 6.09%)</title><rect x="1028.3" y="215" width="71.8" height="15.0" fill="rgb(0,0,0)" rx="2" ry="2" />
<text  x="1031.26" y="225.5" >KSPSolve</text>
</g>
<g >
<title>ParLoopExecute (566,243 us, 0.06%)</title><rect x="896.9" y="311" width="0.7" height="15.0" fill="rgb(0,0,0)" rx="2" ry="2" />
<text  x="899.95" y="321.5" ></text>
</g>
<g >
<title>Log_Event_subkernel13_cell_to__cell_integral_otherwise (100,564,714 us, 9.80%)</title><rect x="157.0" y="263" width="115.7" height="15.0" fill="rgb(0,0,0)" rx="2" ry="2" />
<text  x="160.01" y="273.5" >Log_Event_sub..</text>
</g>
<g >
<title>Parloop_Cells_wrap_form00_cell_integral_otherwise (5,258,347 us, 0.51%)</title><rect x="1172.1" y="183" width="6.0" height="15.0" fill="rgb(0,0,0)" rx="2" ry="2" />
<text  x="1175.06" y="193.5" ></text>
</g>
<g >
<title>firedrake.matrix_free.operators.ImplicitMatrixContext.mult (8,549,631 us, 0.83%)</title><rect x="13.8" y="135" width="9.9" height="15.0" fill="rgb(0,0,0)" rx="2" ry="2" />
<text  x="16.84" y="145.5" ></text>
</g>
<g >
<title>Log_Event_subkernel38_cell_to__cell_integral_otherwise (2,147,444 us, 0.21%)</title><rect x="52.9" y="263" width="2.5" height="15.0" fill="rgb(0,0,0)" rx="2" ry="2" />
<text  x="55.91" y="273.5" ></text>
</g>
<g >
<title>PCSetUp (123,249,392 us, 12.02%)</title><rect x="1028.3" y="183" width="141.7" height="15.0" fill="rgb(0,0,0)" rx="2" ry="2" />
<text  x="1031.26" y="193.5" >PCSetUp</text>
</g>
<g >
<title>firedrake.tsfc_interface.compile_form (1,092,883 us, 0.11%)</title><rect x="22.4" y="151" width="1.3" height="15.0" fill="rgb(0,0,0)" rx="2" ry="2" />
<text  x="25.42" y="161.5" ></text>
</g>
<g >
<title>firedrake.dmhooks.coarsen (2,568,699 us, 0.25%)</title><rect x="898.2" y="263" width="3.0" height="15.0" fill="rgb(0,0,0)" rx="2" ry="2" />
<text  x="901.21" y="273.5" ></text>
</g>
<g >
<title>firedrake.parloops.par_loop (1,018,111 us, 0.10%)</title><rect x="24.7" y="167" width="1.1" height="15.0" fill="rgb(0,0,0)" rx="2" ry="2" />
<text  x="27.67" y="177.5" ></text>
</g>
<g >
<title>pyop2.global_kernel.GlobalKernel.compile (3,191,028 us, 0.31%)</title><rect x="18.7" y="183" width="3.7" height="15.0" fill="rgb(0,0,0)" rx="2" ry="2" />
<text  x="21.75" y="193.5" ></text>
</g>
<g >
<title>firedrake.parloops.par_loop (861,578 us, 0.08%)</title><rect x="119.7" y="167" width="1.0" height="15.0" fill="rgb(0,0,0)" rx="2" ry="2" />
<text  x="122.72" y="177.5" ></text>
</g>
<g >
<title>Parloop_set_#x7f4e8a709d50_wrap_pyop2_kernel_inject (614,870 us, 0.06%)</title><rect x="898.6" y="327" width="0.7" height="15.0" fill="rgb(0,0,0)" rx="2" ry="2" />
<text  x="901.58" y="337.5" ></text>
</g>
<g >
<title>Log_Event_mtf_solve_1 (3,744,509 us, 0.37%)</title><rect x="121.7" y="215" width="4.3" height="15.0" fill="rgb(0,0,0)" rx="2" ry="2" />
<text  x="124.67" y="225.5" ></text>
</g>
<g >
<title>Log_Event_mtf_solve_36 (2,300,614 us, 0.22%)</title><rect x="52.7" y="247" width="2.7" height="15.0" fill="rgb(0,0,0)" rx="2" ry="2" />
<text  x="55.74" y="257.5" ></text>
</g>
<g >
<title>ParLoopExecute (1,181,168 us, 0.12%)</title><rect x="899.3" y="343" width="1.3" height="15.0" fill="rgb(0,0,0)" rx="2" ry="2" />
<text  x="902.29" y="353.5" ></text>
</g>
<g >
<title>Log_Event_subkernel12_cell_to__cell_integral_otherwise (148,715 us, 0.01%)</title><rect x="156.8" y="263" width="0.2" height="15.0" fill="rgb(0,0,0)" rx="2" ry="2" />
<text  x="159.84" y="273.5" ></text>
</g>
<g >
<title>firedrake (1,025,720,881 us, 100.00%)</title><rect x="10.0" y="55" width="1180.0" height="15.0" fill="rgb(0,0,0)" rx="2" ry="2" />
<text  x="13.00" y="65.5" >firedrake</text>
</g>
<g >
<title>Parloop_Cells_wrap_par_loop_kernel (1,018,111 us, 0.10%)</title><rect x="24.7" y="199" width="1.1" height="15.0" fill="rgb(0,0,0)" rx="2" ry="2" />
<text  x="27.67" y="209.5" ></text>
</g>
<g >
<title>HybridInit (805,062 us, 0.08%)</title><rect x="1178.5" y="119" width="0.9" height="15.0" fill="rgb(0,0,0)" rx="2" ry="2" />
<text  x="1181.50" y="129.5" ></text>
</g>
<g >
<title>ParLoopExecute (7,012,902 us, 0.68%)</title><rect x="1170.0" y="167" width="8.1" height="15.0" fill="rgb(0,0,0)" rx="2" ry="2" />
<text  x="1173.04" y="177.5" ></text>
</g>
<g >
<title>KSPSolve (883,133,327 us, 86.10%)</title><rect x="154.1" y="151" width="1015.9" height="15.0" fill="rgb(0,0,0)" rx="2" ry="2" />
<text  x="157.08" y="161.5" >KSPSolve</text>
</g>
<g >
<title>all (1,025,720,881 us, 100%)</title><rect x="10.0" y="39" width="1180.0" height="15.0" fill="rgb(0,0,0)" rx="2" ry="2" />
<text  x="13.00" y="49.5" ></text>
</g>
<g >
<title>MatMult (103,411,778 us, 10.08%)</title><rect x="154.1" y="167" width="118.9" height="15.0" fill="rgb(0,0,0)" rx="2" ry="2" />
<text  x="157.08" y="177.5" >MatMult</text>
</g>
<g >
<title>DMCoarsen (2,568,699 us, 0.25%)</title><rect x="898.2" y="247" width="3.0" height="15.0" fill="rgb(0,0,0)" rx="2" ry="2" />
<text  x="901.21" y="257.5" ></text>
</g>
<g >
<title>ParLoopExecute (103,411,778 us, 10.08%)</title><rect x="154.1" y="199" width="118.9" height="15.0" fill="rgb(0,0,0)" rx="2" ry="2" />
<text  x="157.08" y="209.5" >ParLoopExecute</text>
</g>
<g >
<title>ParLoopExecute (55,169,941 us, 5.38%)</title><rect x="1029.7" y="263" width="63.4" height="15.0" fill="rgb(0,0,0)" rx="2" ry="2" />
<text  x="1032.68" y="273.5" >ParLoo..</text>
</g>
<g >
<title>Parloop_Cells_wrap_expression_kernel (1,754,555 us, 0.17%)</title><rect x="1170.0" y="183" width="2.1" height="15.0" fill="rgb(0,0,0)" rx="2" ry="2" />
<text  x="1173.04" y="193.5" ></text>
</g>
<g >
<title>Log_Event_tensorshell_knl_34 (2,529,436 us, 0.25%)</title><rect x="52.7" y="231" width="2.9" height="15.0" fill="rgb(0,0,0)" rx="2" ry="2" />
<text  x="55.74" y="241.5" ></text>
</g>
<g >
<title>Parloop_Cells_wrap_slate_loopy_knl_0 (24,467,681 us, 2.39%)</title><rect x="121.7" y="183" width="28.1" height="15.0" fill="rgb(0,0,0)" rx="2" ry="2" />
<text  x="124.67" y="193.5" >P..</text>
</g>
<g >
<title>pyop2.global_kernel.GlobalKernel.compile (566,243 us, 0.06%)</title><rect x="896.9" y="343" width="0.7" height="15.0" fill="rgb(0,0,0)" rx="2" ry="2" />
<text  x="899.95" y="353.5" ></text>
</g>
<g >
<title>firedrake.tsfc_interface.compile_form (369,466 us, 0.04%)</title><rect x="1169.6" y="215" width="0.4" height="15.0" fill="rgb(0,0,0)" rx="2" ry="2" />
<text  x="1172.62" y="225.5" ></text>
</g>
<g >
<title>firedrake.mg.interface.prolong (1,231,858 us, 0.12%)</title><rect x="896.7" y="295" width="1.4" height="15.0" fill="rgb(0,0,0)" rx="2" ry="2" />
<text  x="899.65" y="305.5" ></text>
</g>
<g >
<title>Log_Event_subkernel12_cell_to__cell_integral_otherwise (771,005 us, 0.08%)</title><rect x="287.5" y="311" width="0.9" height="15.0" fill="rgb(0,0,0)" rx="2" ry="2" />
<text  x="290.54" y="321.5" ></text>
</g>
<g >
<title>Parloop_Cells_wrap_slate_loopy_knl_9 (108,932,265 us, 10.62%)</title><rect x="902.9" y="263" width="125.4" height="15.0" fill="rgb(0,0,0)" rx="2" ry="2" />
<text  x="905.94" y="273.5" >Parloop_Cells_..</text>
</g>
<g >
<title>inv_getri (1,548,777 us, 0.15%)</title><rect x="1103.8" y="279" width="1.8" height="15.0" fill="rgb(0,0,0)" rx="2" ry="2" />
<text  x="1106.84" y="289.5" ></text>
</g>
<g >
<title>firedrake.matrix_free.operators.ImplicitMatrixContext.mult (62,457,214 us, 6.09%)</title><rect x="1028.3" y="247" width="71.8" height="15.0" fill="rgb(0,0,0)" rx="2" ry="2" />
<text  x="1031.26" y="257.5" >firedra..</text>
</g>
<g >
<title>Parloop_Cells_wrap_slate_loopy_knl_9 (541,948,927 us, 52.84%)</title><rect x="273.0" y="263" width="623.5" height="15.0" fill="rgb(0,0,0)" rx="2" ry="2" />
<text  x="276.04" y="273.5" >Parloop_Cells_wrap_slate_loopy_knl_9</text>
</g>
<g >
<title>PCSetUp (369,466 us, 0.04%)</title><rect x="1169.6" y="199" width="0.4" height="15.0" fill="rgb(0,0,0)" rx="2" ry="2" />
<text  x="1172.62" y="209.5" ></text>
</g>
<g >
<title>MatMult (541,948,927 us, 52.84%)</title><rect x="273.0" y="215" width="623.5" height="15.0" fill="rgb(0,0,0)" rx="2" ry="2" />
<text  x="276.04" y="225.5" >MatMult</text>
</g>
<g >
<title>firedrake.parloops.par_loop (686,268 us, 0.07%)</title><rect x="1178.6" y="135" width="0.8" height="15.0" fill="rgb(0,0,0)" rx="2" ry="2" />
<text  x="1181.64" y="145.5" ></text>
</g>
<g >
<title>firedrake.tsfc_interface.compile_form (5,604,360 us, 0.55%)</title><rect x="1163.2" y="231" width="6.4" height="15.0" fill="rgb(0,0,0)" rx="2" ry="2" />
<text  x="1166.17" y="241.5" ></text>
</g>
<g >
<title>PCApply (779,721,549 us, 76.02%)</title><rect x="273.0" y="167" width="897.0" height="15.0" fill="rgb(0,0,0)" rx="2" ry="2" />
<text  x="276.04" y="177.5" >PCApply</text>
</g>
<g >
<title>firedrake.tsfc_interface.compile_form (338,237 us, 0.03%)</title><rect x="1178.1" y="167" width="0.4" height="15.0" fill="rgb(0,0,0)" rx="2" ry="2" />
<text  x="1181.11" y="177.5" ></text>
</g>
<g >
<title>Log_Event_slate_loopy_knl_9 (22,787,556 us, 2.22%)</title><rect x="1029.7" y="295" width="26.2" height="15.0" fill="rgb(0,0,0)" rx="2" ry="2" />
<text  x="1032.68" y="305.5" >L..</text>
</g>
<g >
<title>PCApply (656,472,157 us, 64.00%)</title><rect x="273.0" y="183" width="755.3" height="15.0" fill="rgb(0,0,0)" rx="2" ry="2" />
<text  x="276.04" y="193.5" >PCApply</text>
</g>
<g >
<title>Parloop_Cells_wrap_pyop2_kernel_uniform_extrusion (890,641 us, 0.09%)</title><rect x="11.1" y="119" width="1.0" height="15.0" fill="rgb(0,0,0)" rx="2" ry="2" />
<text  x="14.07" y="129.5" ></text>
</g>
<g >
<title>Parloop_Cells_wrap_slate_loopy_knl_15 (44,817,943 us, 4.37%)</title><rect x="52.6" y="183" width="51.5" height="15.0" fill="rgb(0,0,0)" rx="2" ry="2" />
<text  x="55.58" y="193.5" >Parl..</text>
</g>
<g >
<title>Log_Event_subkernel35_cell_to__cell_integral_otherwise (116,389 us, 0.01%)</title><rect x="55.4" y="247" width="0.1" height="15.0" fill="rgb(0,0,0)" rx="2" ry="2" />
<text  x="58.38" y="257.5" ></text>
</g>
<g >
<title>MatMult (62,457,214 us, 6.09%)</title><rect x="1028.3" y="231" width="71.8" height="15.0" fill="rgb(0,0,0)" rx="2" ry="2" />
<text  x="1031.26" y="241.5" >MatMult</text>
</g>
<g >
<title>PCSetUp (60,422,712 us, 5.89%)</title><rect x="1100.1" y="215" width="69.5" height="15.0" fill="rgb(0,0,0)" rx="2" ry="2" />
<text  x="1103.11" y="225.5" >PCSetUp</text>
</g>
<g >
<title>pyop2.global_kernel.GlobalKernel.compile (686,268 us, 0.07%)</title><rect x="1178.6" y="183" width="0.8" height="15.0" fill="rgb(0,0,0)" rx="2" ry="2" />
<text  x="1181.64" y="193.5" ></text>
</g>
<g >
<title>Parloop_Cells_wrap_slate_loopy_knl_9 (103,411,778 us, 10.08%)</title><rect x="154.1" y="215" width="118.9" height="15.0" fill="rgb(0,0,0)" rx="2" ry="2" />
<text  x="157.08" y="225.5" >Parloop_Cells..</text>
</g>
<g >
<title>Parloop_Cells_wrap_expression_kernel (1,181,168 us, 0.12%)</title><rect x="899.3" y="359" width="1.3" height="15.0" fill="rgb(0,0,0)" rx="2" ry="2" />
<text  x="902.29" y="369.5" ></text>
</g>
<g >
<title>MGInterp Level (125,996 us, 0.01%; +0.01%)</title><rect x="896.5" y="247" width="0.2" height="15.0" fill="rgb(255,0,0)" rx="2" ry="2" />
<text  x="899.51" y="257.5" ></text>
</g>
<g >
<title>firedrake.interpolation.interpolate (1,181,168 us, 0.12%)</title><rect x="899.3" y="311" width="1.3" height="15.0" fill="rgb(0,0,0)" rx="2" ry="2" />
<text  x="902.29" y="321.5" ></text>
</g>
<g >
<title>firedrake.mg.interface.restrict (1,538,434 us, 0.15%)</title><rect x="901.2" y="263" width="1.7" height="15.0" fill="rgb(0,0,0)" rx="2" ry="2" />
<text  x="904.17" y="273.5" ></text>
</g>
<g >
<title>pyop2.global_kernel.GlobalKernel.compile (19,730,548 us, 1.92%)</title><rect x="26.0" y="183" width="22.7" height="15.0" fill="rgb(0,0,0)" rx="2" ry="2" />
<text  x="28.96" y="193.5" ></text>
</g>
<g >
<title>MatMult (8,549,631 us, 0.83%)</title><rect x="13.8" y="119" width="9.9" height="15.0" fill="rgb(0,0,0)" rx="2" ry="2" />
<text  x="16.84" y="129.5" ></text>
</g>
<g >
<title>Log_Event_mtf_solve_44 (102,911 us, 0.01%)</title><rect x="25.8" y="199" width="0.2" height="15.0" fill="rgb(0,0,0)" rx="2" ry="2" />
<text  x="28.84" y="209.5" ></text>
</g>
<g >
<title>firedrake.tsfc_interface.compile_form (1,259,535 us, 0.12%)</title><rect x="1188.6" y="119" width="1.4" height="15.0" fill="rgb(0,0,0)" rx="2" ry="2" />
<text  x="1191.55" y="129.5" ></text>
</g>
<g >
<title>firedrake.pointquery_utils.to_reference_coordinates (451,944 us, 0.04%)</title><rect x="900.6" y="311" width="0.6" height="15.0" fill="rgb(0,0,0)" rx="2" ry="2" />
<text  x="903.65" y="321.5" ></text>
</g>
<g >
<title>firedrake.interpolation.Interpolator.interpolate (1,181,168 us, 0.12%)</title><rect x="899.3" y="327" width="1.3" height="15.0" fill="rgb(0,0,0)" rx="2" ry="2" />
<text  x="902.29" y="337.5" ></text>
</g>
<g >
<title>MatMult (108,932,265 us, 10.62%)</title><rect x="902.9" y="215" width="125.4" height="15.0" fill="rgb(0,0,0)" rx="2" ry="2" />
<text  x="905.94" y="225.5" >MatMult</text>
</g>
<g >
<title>firedrake.__init__ (1,517,742 us, 0.15%)</title><rect x="12.1" y="71" width="1.7" height="15.0" fill="rgb(0,0,0)" rx="2" ry="2" />
<text  x="15.09" y="81.5" ></text>
</g>
<g >
<title>pyop2.global_kernel.GlobalKernel.compile (890,641 us, 0.09%)</title><rect x="11.1" y="135" width="1.0" height="15.0" fill="rgb(0,0,0)" rx="2" ry="2" />
<text  x="14.07" y="145.5" ></text>
</g>
<g >
<title>ParLoopExecute (686,268 us, 0.07%)</title><rect x="1178.6" y="151" width="0.8" height="15.0" fill="rgb(0,0,0)" rx="2" ry="2" />
<text  x="1181.64" y="161.5" ></text>
</g>
<g >
<title>Parloop_Cells_wrap_form1_cell_integral_otherwise (3,627,581 us, 0.35%)</title><rect x="1184.4" y="135" width="4.2" height="15.0" fill="rgb(0,0,0)" rx="2" ry="2" />
<text  x="1187.38" y="145.5" ></text>
</g>
<g >
<title>ParLoopExecute (19,833,459 us, 1.93%)</title><rect x="25.8" y="151" width="22.9" height="15.0" fill="rgb(0,0,0)" rx="2" ry="2" />
<text  x="28.84" y="161.5" ></text>
</g>
<g >
<title>Log_Event_mtf_solve_11 (538,182,456 us, 52.47%)</title><rect x="275.6" y="295" width="619.1" height="15.0" fill="rgb(0,0,0)" rx="2" ry="2" />
<text  x="278.60" y="305.5" >Log_Event_mtf_solve_11</text>
</g>
<g >
<title>Log_Event_subkernel10_interior_facet_vert_to__exterior_facet_vert_integral_otherwise (1,004,932 us, 0.10%)</title><rect x="894.7" y="295" width="1.2" height="15.0" fill="rgb(0,0,0)" rx="2" ry="2" />
<text  x="897.73" y="305.5" ></text>
</g>
<g >
<title>pyop2.global_kernel.GlobalKernel.compile (1,754,555 us, 0.17%)</title><rect x="1170.0" y="199" width="2.1" height="15.0" fill="rgb(0,0,0)" rx="2" ry="2" />
<text  x="1173.04" y="209.5" ></text>
</g>
<g >
<title>Parloop_Cells_wrap_form1_cell_integral_otherwise (3,191,028 us, 0.31%)</title><rect x="18.7" y="167" width="3.7" height="15.0" fill="rgb(0,0,0)" rx="2" ry="2" />
<text  x="21.75" y="177.5" ></text>
</g>
<g >
<title>pyop2.global_kernel.GlobalKernel.compile (710,515 us, 0.07%)</title><rect x="901.2" y="311" width="0.8" height="15.0" fill="rgb(0,0,0)" rx="2" ry="2" />
<text  x="904.17" y="321.5" ></text>
</g>
<g >
<title>firedrake.pointquery_utils.to_reference_coordinates (827,919 us, 0.08%)</title><rect x="902.0" y="279" width="0.9" height="15.0" fill="rgb(0,0,0)" rx="2" ry="2" />
<text  x="904.99" y="289.5" ></text>
</g>
<g >
<title>pyop2.global_kernel.GlobalKernel.compile (4,265,720 us, 0.42%)</title><rect x="13.8" y="183" width="4.9" height="15.0" fill="rgb(0,0,0)" rx="2" ry="2" />
<text  x="16.84" y="193.5" ></text>
</g>
<g >
<title>SCBackSub (83,487,005 us, 8.14%)</title><rect x="23.7" y="135" width="96.0" height="15.0" fill="rgb(0,0,0)" rx="2" ry="2" />
<text  x="26.67" y="145.5" >SCBackSub</text>
</g>
<g >
<title>PCApply (1,483,832 us, 0.14%; 0.00%)</title><rect x="896.5" y="231" width="1.7" height="15.0" fill="rgb(255,255,255)" rx="2" ry="2" />
<text  x="899.51" y="241.5" ></text>
</g>
<g >
<title>SCSolve (890,484,466 us, 86.82%)</title><rect x="154.1" y="135" width="1024.4" height="15.0" fill="rgb(0,0,0)" rx="2" ry="2" />
<text  x="157.08" y="145.5" >SCSolve</text>
</g>
<g >
<title>Log_Event_slate_loopy_knl_9 (108,932,265 us, 10.62%)</title><rect x="902.9" y="279" width="125.4" height="15.0" fill="rgb(0,0,0)" rx="2" ry="2" />
<text  x="905.94" y="289.5" >Log_Event_slat..</text>
</g>
<g >
<title>Log_Event_slate_loopy_knl_9 (103,411,778 us, 10.08%)</title><rect x="154.1" y="231" width="118.9" height="15.0" fill="rgb(0,0,0)" rx="2" ry="2" />
<text  x="157.08" y="241.5" >Log_Event_sla..</text>
</g>
<g >
<title>Log_Event_slate_loopy_knl_15 (2,667,131 us, 0.26%)</title><rect x="52.6" y="199" width="3.0" height="15.0" fill="rgb(0,0,0)" rx="2" ry="2" />
<text  x="55.58" y="209.5" ></text>
</g>
<g >
<title>firedrake.tsfc_interface.compile_form (3,698,960 us, 0.36%)</title><rect x="149.8" y="167" width="4.3" height="15.0" fill="rgb(0,0,0)" rx="2" ry="2" />
<text  x="152.82" y="177.5" ></text>
</g>
<g >
<title>Log_Event_subkernel7_cell_to__cell_integral_otherwise (276,689 us, 0.03%)</title><rect x="1105.6" y="263" width="0.3" height="15.0" fill="rgb(0,0,0)" rx="2" ry="2" />
<text  x="1108.62" y="273.5" ></text>
</g>
<g >
<title>pyop2.global_kernel.GlobalKernel.compile (49,642,964 us, 4.84%)</title><rect x="1105.9" y="263" width="57.1" height="15.0" fill="rgb(0,0,0)" rx="2" ry="2" />
<text  x="1108.94" y="273.5" >pyop2..</text>
</g>
<g >
<title>Log_Event_slate_loopy_knl_41 (102,911 us, 0.01%)</title><rect x="25.8" y="183" width="0.2" height="15.0" fill="rgb(0,0,0)" rx="2" ry="2" />
<text  x="28.84" y="193.5" ></text>
</g>
<g >
<title>pyop2.global_kernel.GlobalKernel.compile (861,578 us, 0.08%)</title><rect x="119.7" y="215" width="1.0" height="15.0" fill="rgb(0,0,0)" rx="2" ry="2" />
<text  x="122.72" y="225.5" ></text>
</g>
<g >
<title>Parloop_Cells_wrap_form0_cell_integral_otherwise (4,265,720 us, 0.42%)</title><rect x="13.8" y="167" width="4.9" height="15.0" fill="rgb(0,0,0)" rx="2" ry="2" />
<text  x="16.84" y="177.5" ></text>
</g>
<g >
<title>Parloop_Cells_wrap_par_loop_kernel (861,578 us, 0.08%)</title><rect x="119.7" y="199" width="1.0" height="15.0" fill="rgb(0,0,0)" rx="2" ry="2" />
<text  x="122.72" y="209.5" ></text>
</g>
<g >
<title>ParLoopExecute (7,931,991 us, 0.77%)</title><rect x="1179.4" y="119" width="9.2" height="15.0" fill="rgb(0,0,0)" rx="2" ry="2" />
<text  x="1182.43" y="129.5" ></text>
</g>
<g >
<title>Log_Event_subkernel14_interior_facet_vert_to__exterior_facet_vert_integral_otherwise (109,704 us, 0.01%)</title><rect x="1028.1" y="295" width="0.2" height="15.0" fill="rgb(0,0,0)" rx="2" ry="2" />
<text  x="1031.13" y="305.5" ></text>
</g>
<g >
<title>PCSetUp (7,351,139 us, 0.72%)</title><rect x="1170.0" y="151" width="8.5" height="15.0" fill="rgb(0,0,0)" rx="2" ry="2" />
<text  x="1173.04" y="161.5" ></text>
</g>
<g >
<title>PCApply (1,003,837,790 us, 97.87%)</title><rect x="23.7" y="119" width="1154.8" height="15.0" fill="rgb(0,0,0)" rx="2" ry="2" />
<text  x="26.67" y="129.5" >PCApply</text>
</g>
<g >
<title>inv_getrf (312,432 us, 0.03%)</title><rect x="1103.5" y="279" width="0.3" height="15.0" fill="rgb(0,0,0)" rx="2" ry="2" />
<text  x="1106.48" y="289.5" ></text>
</g>
<g >
<title>pyop2.global_kernel.GlobalKernel.compile (614,870 us, 0.06%)</title><rect x="898.6" y="343" width="0.7" height="15.0" fill="rgb(0,0,0)" rx="2" ry="2" />
<text  x="901.58" y="353.5" ></text>
</g>
<g >
<title>Log_Event_subkernel10_interior_facet_vert_to__exterior_facet_vert_integral_otherwise (201,656 us, 0.02%)</title><rect x="1027.9" y="295" width="0.2" height="15.0" fill="rgb(0,0,0)" rx="2" ry="2" />
<text  x="1030.90" y="305.5" ></text>
</g>
<g >
<title>pyop2.global_kernel.GlobalKernel.compile (5,258,347 us, 0.51%)</title><rect x="1172.1" y="199" width="6.0" height="15.0" fill="rgb(0,0,0)" rx="2" ry="2" />
<text  x="1175.06" y="209.5" ></text>
</g>
<g >
<title>firedrake.matrix_free.operators.ImplicitMatrixContext.mult (541,948,927 us, 52.84%)</title><rect x="273.0" y="231" width="623.5" height="15.0" fill="rgb(0,0,0)" rx="2" ry="2" />
<text  x="276.04" y="241.5" >firedrake.matrix_free.operators.ImplicitMatrixContext.mult</text>
</g>
<g >
<title>Parloop_Cells_wrap_slate_loopy_knl_41 (19,833,459 us, 1.93%)</title><rect x="25.8" y="167" width="22.9" height="15.0" fill="rgb(0,0,0)" rx="2" ry="2" />
<text  x="28.84" y="177.5" ></text>
</g>
<g >
<title>pyop2.global_kernel.GlobalKernel.compile (3,627,581 us, 0.35%)</title><rect x="1184.4" y="151" width="4.2" height="15.0" fill="rgb(0,0,0)" rx="2" ry="2" />
<text  x="1187.38" y="161.5" ></text>
</g>
<g >
<title>SCForwardElim (29,866,319 us, 2.91%)</title><rect x="119.7" y="135" width="34.4" height="15.0" fill="rgb(0,0,0)" rx="2" ry="2" />
<text  x="122.72" y="145.5" >SC..</text>
</g>
<g >
<title>firedrake.extrusion_utils.make_extruded_coords (890,641 us, 0.09%)</title><rect x="11.1" y="87" width="1.0" height="15.0" fill="rgb(0,0,0)" rx="2" ry="2" />
<text  x="14.07" y="97.5" ></text>
</g>
<g >
<title>pyop2.global_kernel.GlobalKernel.compile (4,304,410 us, 0.42%)</title><rect x="1179.4" y="151" width="5.0" height="15.0" fill="rgb(0,0,0)" rx="2" ry="2" />
<text  x="1182.43" y="161.5" ></text>
</g>
<g >
<title>Parloop_set_#x7f4e8a709d50_wrap_pyop2_kernel_prolong (566,243 us, 0.06%)</title><rect x="896.9" y="327" width="0.7" height="15.0" fill="rgb(0,0,0)" rx="2" ry="2" />
<text  x="899.95" y="337.5" ></text>
</g>
<g >
<title>MatMult (1,231,858 us, 0.12%)</title><rect x="896.7" y="263" width="1.4" height="15.0" fill="rgb(0,0,0)" rx="2" ry="2" />
<text  x="899.65" y="273.5" ></text>
</g>
<g >
<title>firedrake.matrix_free.operators.ImplicitMatrixContext.mult (103,411,778 us, 10.08%)</title><rect x="154.1" y="183" width="118.9" height="15.0" fill="rgb(0,0,0)" rx="2" ry="2" />
<text  x="157.08" y="193.5" >firedrake.mat..</text>
</g>
<g >
<title>firedrake.assemble.allocate_matrix (106,786 us, 0.01%)</title><rect x="1163.0" y="231" width="0.2" height="15.0" fill="rgb(0,0,0)" rx="2" ry="2" />
<text  x="1166.05" y="241.5" ></text>
</g>
<g >
<title>Log_Event_slate_loopy_knl_5 (2,725,202 us, 0.27%)</title><rect x="1102.5" y="263" width="3.1" height="15.0" fill="rgb(0,0,0)" rx="2" ry="2" />
<text  x="1105.48" y="273.5" ></text>
</g>
<g >
<title>firedrake.mg.embedded.TransferManager.op (1,231,858 us, 0.12%)</title><rect x="896.7" y="279" width="1.4" height="15.0" fill="rgb(0,0,0)" rx="2" ry="2" />
<text  x="899.65" y="289.5" ></text>
</g>
<g >
<title>ParLoopExecute (541,948,927 us, 52.84%)</title><rect x="273.0" y="247" width="623.5" height="15.0" fill="rgb(0,0,0)" rx="2" ry="2" />
<text  x="276.04" y="257.5" >ParLoopExecute</text>
</g>
<g >
<title>ParLoopExecute (52,858,853 us, 5.15%)</title><rect x="1102.2" y="231" width="60.8" height="15.0" fill="rgb(0,0,0)" rx="2" ry="2" />
<text  x="1105.24" y="241.5" >ParLo..</text>
</g>
<g >
<title>Log_Event_mtf_solve_11 (108,180,827 us, 10.55%)</title><rect x="903.4" y="295" width="124.5" height="15.0" fill="rgb(0,0,0)" rx="2" ry="2" />
<text  x="906.45" y="305.5" >Log_Event_mtf_..</text>
</g>
<g >
<title>MatResidual (108,932,265 us, 10.62%)</title><rect x="902.9" y="199" width="125.4" height="15.0" fill="rgb(0,0,0)" rx="2" ry="2" />
<text  x="905.94" y="209.5" >MatResidual</text>
</g>
<g >
<title>PCApply (5,590,965 us, 0.55%; 0.00%)</title><rect x="896.5" y="215" width="6.4" height="15.0" fill="rgb(255,255,255)" rx="2" ry="2" />
<text  x="899.51" y="225.5" ></text>
</g>
<g >
<title>firedrake.tsfc_interface.compile_form (3,691,351 us, 0.36%)</title><rect x="115.5" y="151" width="4.2" height="15.0" fill="rgb(0,0,0)" rx="2" ry="2" />
<text  x="118.47" y="161.5" ></text>
</g>
<g >
<title>SNESSolve (1,022,384,009 us, 99.67%)</title><rect x="13.8" y="87" width="1176.2" height="15.0" fill="rgb(0,0,0)" rx="2" ry="2" />
<text  x="16.84" y="97.5" >SNESSolve</text>
</g>
<g >
<title>HybridProject (1,018,111 us, 0.10%)</title><rect x="24.7" y="151" width="1.1" height="15.0" fill="rgb(0,0,0)" rx="2" ry="2" />
<text  x="27.67" y="161.5" ></text>
</g>
<g >
<title>Log_Event_slate_loopy_knl_9 (541,948,927 us, 52.84%)</title><rect x="273.0" y="279" width="623.5" height="15.0" fill="rgb(0,0,0)" rx="2" ry="2" />
<text  x="276.04" y="289.5" >Log_Event_slate_loopy_knl_9</text>
</g>
<g >
<title>Parloop_Cells_wrap_par_loop_kernel (686,268 us, 0.07%)</title><rect x="1178.6" y="167" width="0.8" height="15.0" fill="rgb(0,0,0)" rx="2" ry="2" />
<text  x="1181.64" y="177.5" ></text>
</g>
<g >
<title>pyop2.global_kernel.GlobalKernel.compile (1,018,111 us, 0.10%)</title><rect x="24.7" y="215" width="1.1" height="15.0" fill="rgb(0,0,0)" rx="2" ry="2" />
<text  x="27.67" y="225.5" ></text>
</g>
<g >
<title>ParLoopExecute (614,870 us, 0.06%)</title><rect x="898.6" y="311" width="0.7" height="15.0" fill="rgb(0,0,0)" rx="2" ry="2" />
<text  x="901.58" y="321.5" ></text>
</g>
<g >
<title>MGInterp Level 1 (1,231,858 us, 0.12%)</title><rect x="896.7" y="247" width="1.4" height="15.0" fill="rgb(0,0,0)" rx="2" ry="2" />
<text  x="899.65" y="257.5" ></text>
</g>
<g >
<title>firedrake.tsfc_interface.compile_form (9,852,712 us, 0.96%)</title><rect x="104.1" y="167" width="11.4" height="15.0" fill="rgb(0,0,0)" rx="2" ry="2" />
<text  x="107.14" y="177.5" ></text>
</g>
<g >
<title>HybridBreak (861,578 us, 0.08%)</title><rect x="119.7" y="151" width="1.0" height="15.0" fill="rgb(0,0,0)" rx="2" ry="2" />
<text  x="122.72" y="161.5" ></text>
</g>
<g >
<title>ParLoopExecute (710,515 us, 0.07%)</title><rect x="901.2" y="279" width="0.8" height="15.0" fill="rgb(0,0,0)" rx="2" ry="2" />
<text  x="904.17" y="289.5" ></text>
</g>
<g >
<title>pyop2.global_kernel.GlobalKernel.compile (1,181,168 us, 0.12%)</title><rect x="899.3" y="375" width="1.3" height="15.0" fill="rgb(0,0,0)" rx="2" ry="2" />
<text  x="902.29" y="385.5" ></text>
</g>
<g >
<title>RecoverFirstElim (58,076,281 us, 5.66%)</title><rect x="48.7" y="151" width="66.8" height="15.0" fill="rgb(0,0,0)" rx="2" ry="2" />
<text  x="51.66" y="161.5" >Recove..</text>
</g>
<g >
<title>ParLoopExecute (24,467,681 us, 2.39%)</title><rect x="121.7" y="167" width="28.1" height="15.0" fill="rgb(0,0,0)" rx="2" ry="2" />
<text  x="124.67" y="177.5" >P..</text>
</g>
<g >
<title>KSPSolve (547,539,892 us, 53.38%)</title><rect x="273.0" y="199" width="629.9" height="15.0" fill="rgb(0,0,0)" rx="2" ry="2" />
<text  x="276.04" y="209.5" >KSPSolve</text>
</g>
<g >
<title>Log_Event_subkernel14_interior_facet_vert_to__exterior_facet_vert_integral_otherwise (542,083 us, 0.05%)</title><rect x="895.9" y="295" width="0.6" height="15.0" fill="rgb(0,0,0)" rx="2" ry="2" />
<text  x="898.88" y="305.5" ></text>
</g>
<g >
<title>MatMultTranspose (1,538,434 us, 0.15%)</title><rect x="901.2" y="247" width="1.7" height="15.0" fill="rgb(0,0,0)" rx="2" ry="2" />
<text  x="904.17" y="257.5" ></text>
</g>
<g >
<title>ParLoopExecute (1,018,111 us, 0.10%)</title><rect x="24.7" y="183" width="1.1" height="15.0" fill="rgb(0,0,0)" rx="2" ry="2" />
<text  x="27.67" y="193.5" ></text>
</g>
<g >
<title>PCSetUp (805,062 us, 0.08%)</title><rect x="1178.5" y="103" width="0.9" height="15.0" fill="rgb(0,0,0)" rx="2" ry="2" />
<text  x="1181.50" y="113.5" ></text>
</g>
<g >
<title>MGInterp Level (125,978 us, 0.01%; +0.01%)</title><rect x="898.1" y="247" width="0.1" height="15.0" fill="rgb(255,0,0)" rx="2" ry="2" />
<text  x="901.07" y="257.5" ></text>
</g>
<g >
<title>CreateSparsity (106,786 us, 0.01%)</title><rect x="1163.0" y="247" width="0.2" height="15.0" fill="rgb(0,0,0)" rx="2" ry="2" />
<text  x="1166.05" y="257.5" ></text>
</g>
<g >
<title>PCSetUp (4,107,133 us, 0.40%)</title><rect x="898.2" y="231" width="4.7" height="15.0" fill="rgb(0,0,0)" rx="2" ry="2" />
<text  x="901.21" y="241.5" ></text>
</g>
<g >
<title>Parloop_Cells_wrap_wrap_slate_loopy_knl_5 (52,858,853 us, 5.15%)</title><rect x="1102.2" y="247" width="60.8" height="15.0" fill="rgb(0,0,0)" rx="2" ry="2" />
<text  x="1105.24" y="257.5" >Parlo..</text>
</g>
<g >
<title>ParLoopExecute (108,932,265 us, 10.62%)</title><rect x="902.9" y="247" width="125.4" height="15.0" fill="rgb(0,0,0)" rx="2" ry="2" />
<text  x="905.94" y="257.5" >ParLoopExecute</text>
</g>
<g >
<title>firedrake.mg.embedded.TransferManager.op (2,568,699 us, 0.25%)</title><rect x="898.2" y="279" width="3.0" height="15.0" fill="rgb(0,0,0)" rx="2" ry="2" />
<text  x="901.21" y="289.5" ></text>
</g>
<g >
<title>Log_Event_subkernel10_interior_facet_vert_to__exterior_facet_vert_integral_otherwise (192,701 us, 0.02%)</title><rect x="272.7" y="247" width="0.2" height="15.0" fill="rgb(0,0,0)" rx="2" ry="2" />
<text  x="275.70" y="257.5" ></text>
</g>
<g >
<title>KSPSetUp (122,879,926 us, 11.98%)</title><rect x="1028.3" y="199" width="141.3" height="15.0" fill="rgb(0,0,0)" rx="2" ry="2" />
<text  x="1031.26" y="209.5" >KSPSetUp</text>
</g>
<g >
<title>CreateExtMesh (890,641 us, 0.09%)</title><rect x="11.1" y="71" width="1.0" height="15.0" fill="rgb(0,0,0)" rx="2" ry="2" />
<text  x="14.07" y="81.5" ></text>
</g>
<g >
<title>Log_Event_subkernel14_interior_facet_vert_to__exterior_facet_vert_integral_otherwise (104,710 us, 0.01%)</title><rect x="272.9" y="247" width="0.1" height="15.0" fill="rgb(0,0,0)" rx="2" ry="2" />
<text  x="275.92" y="257.5" ></text>
</g>
<g >
<title>ParLoopExecute (890,641 us, 0.09%)</title><rect x="11.1" y="103" width="1.0" height="15.0" fill="rgb(0,0,0)" rx="2" ry="2" />
<text  x="14.07" y="113.5" ></text>
</g>
<g >
<title>Log_Event_subkernel13_cell_to__cell_integral_otherwise (105,959,836 us, 10.33%)</title><rect x="906.0" y="311" width="121.9" height="15.0" fill="rgb(0,0,0)" rx="2" ry="2" />
<text  x="909.00" y="321.5" >Log_Event_sub..</text>
</g>
<g >
<title>pyop2.global_kernel.GlobalKernel.compile (32,382,385 us, 3.16%)</title><rect x="1055.9" y="295" width="37.2" height="15.0" fill="rgb(0,0,0)" rx="2" ry="2" />
<text  x="1058.89" y="305.5" >py..</text>
</g>
<g >
<title>Parloop_Cells_wrap_form0_cell_integral_otherwise (4,304,410 us, 0.42%)</title><rect x="1179.4" y="135" width="5.0" height="15.0" fill="rgb(0,0,0)" rx="2" ry="2" />
<text  x="1182.43" y="145.5" ></text>
</g>
<g >
<title>Parloop_set_#x7f4e8a70a710_wrap_pyop2_kernel_restrict (710,515 us, 0.07%)</title><rect x="901.2" y="295" width="0.8" height="15.0" fill="rgb(0,0,0)" rx="2" ry="2" />
<text  x="904.17" y="305.5" ></text>
</g>
</g>
</svg>
