<?xml version="1.0" standalone="no"?>
<!DOCTYPE svg PUBLIC "-//W3C//DTD SVG 1.1//EN" "http://www.w3.org/Graphics/SVG/1.1/DTD/svg11.dtd">
<svg version="1.1" width="1200" height="347" onload="init(evt)" viewBox="0 0 1200 347" xmlns="http://www.w3.org/2000/svg" xmlns:xlink="http://www.w3.org/1999/xlink">
<!-- Flame graph stack visualization. See https://github.com/brendangregg/FlameGraph for latest version, and http://www.brendangregg.com/flamegraphs.html for examples. -->
<!-- NOTES:  -->
<defs>
	<linearGradient id="background" y1="0" y2="1" x1="0" x2="0" >
		<stop stop-color="#eeeeee" offset="5%" />
		<stop stop-color="#eeeeb0" offset="95%" />
	</linearGradient>
</defs>
<style type="text/css">
	text { font-family:Verdana; font-size:13px; fill:rgb(0,0,0); }
	#search, #ignorecase { opacity:0.1; cursor:pointer; }
	#search:hover, #search.show, #ignorecase:hover, #ignorecase.show { opacity:1; }
	#subtitle { text-anchor:middle; font-color:rgb(160,160,160); }
	#title { text-anchor:middle; font-size:18px}
	#unzoom { cursor:pointer; }
	#frames > *:hover { stroke:black; stroke-width:0.5; cursor:pointer; }
	.hide { display:none; }
	.parent { opacity:0.5; }
</style>
<script type="text/ecmascript">
<![CDATA[
	"use strict";
	var details, searchbtn, unzoombtn, matchedtxt, svg, searching, currentSearchTerm, ignorecase, ignorecaseBtn;
	function init(evt) {
		details = document.getElementById("details").firstChild;
		searchbtn = document.getElementById("search");
		ignorecaseBtn = document.getElementById("ignorecase");
		unzoombtn = document.getElementById("unzoom");
		matchedtxt = document.getElementById("matched");
		svg = document.getElementsByTagName("svg")[0];
		searching = 0;
		currentSearchTerm = null;

		// use GET parameters to restore a flamegraphs state.
		var params = get_params();
		if (params.x && params.y)
			zoom(find_group(document.querySelector('[x="' + params.x + '"][y="' + params.y + '"]')));
                if (params.s) search(params.s);
	}

	// event listeners
	window.addEventListener("click", function(e) {
		var target = find_group(e.target);
		if (target) {
			if (target.nodeName == "a") {
				if (e.ctrlKey === false) return;
				e.preventDefault();
			}
			if (target.classList.contains("parent")) unzoom();
			zoom(target);
			if (!document.querySelector('.parent')) {
				clearzoom();
				return;
			}

			// set parameters for zoom state
			var el = target.querySelector("rect");
			if (el && el.attributes && el.attributes.y && el.attributes._orig_x) {
				var params = get_params()
				params.x = el.attributes._orig_x.value;
				params.y = el.attributes.y.value;
				history.replaceState(null, null, parse_params(params));
			}
		}
		else if (e.target.id == "unzoom") clearzoom();
		else if (e.target.id == "search") search_prompt();
		else if (e.target.id == "ignorecase") toggle_ignorecase();
	}, false)

	// mouse-over for info
	// show
	window.addEventListener("mouseover", function(e) {
		var target = find_group(e.target);
		if (target) details.nodeValue = "Function: " + g_to_text(target);
	}, false)

	// clear
	window.addEventListener("mouseout", function(e) {
		var target = find_group(e.target);
		if (target) details.nodeValue = ' ';
	}, false)

	// ctrl-F for search
	// ctrl-I to toggle case-sensitive search
	window.addEventListener("keydown",function (e) {
		if (e.keyCode === 114 || (e.ctrlKey && e.keyCode === 70)) {
			e.preventDefault();
			search_prompt();
		}
		else if (e.ctrlKey && e.keyCode === 73) {
			e.preventDefault();
			toggle_ignorecase();
		}
	}, false)

	// functions
	function get_params() {
		var params = {};
		var paramsarr = window.location.search.substr(1).split('&');
		for (var i = 0; i < paramsarr.length; ++i) {
			var tmp = paramsarr[i].split("=");
			if (!tmp[0] || !tmp[1]) continue;
			params[tmp[0]]  = decodeURIComponent(tmp[1]);
		}
		return params;
	}
	function parse_params(params) {
		var uri = "?";
		for (var key in params) {
			uri += key + '=' + encodeURIComponent(params[key]) + '&';
		}
		if (uri.slice(-1) == "&")
			uri = uri.substring(0, uri.length - 1);
		if (uri == '?')
			uri = window.location.href.split('?')[0];
		return uri;
	}
	function find_child(node, selector) {
		var children = node.querySelectorAll(selector);
		if (children.length) return children[0];
	}
	function find_group(node) {
		var parent = node.parentElement;
		if (!parent) return;
		if (parent.id == "frames") return node;
		return find_group(parent);
	}
	function orig_save(e, attr, val) {
		if (e.attributes["_orig_" + attr] != undefined) return;
		if (e.attributes[attr] == undefined) return;
		if (val == undefined) val = e.attributes[attr].value;
		e.setAttribute("_orig_" + attr, val);
	}
	function orig_load(e, attr) {
		if (e.attributes["_orig_"+attr] == undefined) return;
		e.attributes[attr].value = e.attributes["_orig_" + attr].value;
		e.removeAttribute("_orig_"+attr);
	}
	function g_to_text(e) {
		var text = find_child(e, "title").firstChild.nodeValue;
		return (text)
	}
	function g_to_func(e) {
		var func = g_to_text(e);
		// if there's any manipulation we want to do to the function
		// name before it's searched, do it here before returning.
		return (func);
	}
	function update_text(e) {
		var r = find_child(e, "rect");
		var t = find_child(e, "text");
		var w = parseFloat(r.attributes.width.value) -3;
		var txt = find_child(e, "title").textContent.replace(/\([^(]*\)$/,"");
		t.attributes.x.value = parseFloat(r.attributes.x.value) + 3;

		// Smaller than this size won't fit anything
		if (w < 2 * 13 * 0.59) {
			t.textContent = "";
			return;
		}

		t.textContent = txt;
		// Fit in full text width
		if (/^ *$/.test(txt) || t.getSubStringLength(0, txt.length) < w)
			return;

		for (var x = txt.length - 2; x > 0; x--) {
			if (t.getSubStringLength(0, x + 2) <= w) {
				t.textContent = txt.substring(0, x) + "..";
				return;
			}
		}
		t.textContent = "";
	}

	// zoom
	function zoom_reset(e) {
		if (e.attributes != undefined) {
			orig_load(e, "x");
			orig_load(e, "width");
		}
		if (e.childNodes == undefined) return;
		for (var i = 0, c = e.childNodes; i < c.length; i++) {
			zoom_reset(c[i]);
		}
	}
	function zoom_child(e, x, ratio) {
		if (e.attributes != undefined) {
			if (e.attributes.x != undefined) {
				orig_save(e, "x");
				e.attributes.x.value = (parseFloat(e.attributes.x.value) - x - 10) * ratio + 10;
				if (e.tagName == "text")
					e.attributes.x.value = find_child(e.parentNode, "rect[x]").attributes.x.value + 3;
			}
			if (e.attributes.width != undefined) {
				orig_save(e, "width");
				e.attributes.width.value = parseFloat(e.attributes.width.value) * ratio;
			}
		}

		if (e.childNodes == undefined) return;
		for (var i = 0, c = e.childNodes; i < c.length; i++) {
			zoom_child(c[i], x - 10, ratio);
		}
	}
	function zoom_parent(e) {
		if (e.attributes) {
			if (e.attributes.x != undefined) {
				orig_save(e, "x");
				e.attributes.x.value = 10;
			}
			if (e.attributes.width != undefined) {
				orig_save(e, "width");
				e.attributes.width.value = parseInt(svg.width.baseVal.value) - (10 * 2);
			}
		}
		if (e.childNodes == undefined) return;
		for (var i = 0, c = e.childNodes; i < c.length; i++) {
			zoom_parent(c[i]);
		}
	}
	function zoom(node) {
		var attr = find_child(node, "rect").attributes;
		var width = parseFloat(attr.width.value);
		var xmin = parseFloat(attr.x.value);
		var xmax = parseFloat(xmin + width);
		var ymin = parseFloat(attr.y.value);
		var ratio = (svg.width.baseVal.value - 2 * 10) / width;

		// XXX: Workaround for JavaScript float issues (fix me)
		var fudge = 0.0001;

		unzoombtn.classList.remove("hide");

		var el = document.getElementById("frames").children;
		for (var i = 0; i < el.length; i++) {
			var e = el[i];
			var a = find_child(e, "rect").attributes;
			var ex = parseFloat(a.x.value);
			var ew = parseFloat(a.width.value);
			var upstack;
			// Is it an ancestor
			if (1 == 0) {
				upstack = parseFloat(a.y.value) > ymin;
			} else {
				upstack = parseFloat(a.y.value) < ymin;
			}
			if (upstack) {
				// Direct ancestor
				if (ex <= xmin && (ex+ew+fudge) >= xmax) {
					e.classList.add("parent");
					zoom_parent(e);
					update_text(e);
				}
				// not in current path
				else
					e.classList.add("hide");
			}
			// Children maybe
			else {
				// no common path
				if (ex < xmin || ex + fudge >= xmax) {
					e.classList.add("hide");
				}
				else {
					zoom_child(e, xmin, ratio);
					update_text(e);
				}
			}
		}
		search();
	}
	function unzoom() {
		unzoombtn.classList.add("hide");
		var el = document.getElementById("frames").children;
		for(var i = 0; i < el.length; i++) {
			el[i].classList.remove("parent");
			el[i].classList.remove("hide");
			zoom_reset(el[i]);
			update_text(el[i]);
		}
		search();
	}
	function clearzoom() {
		unzoom();

		// remove zoom state
		var params = get_params();
		if (params.x) delete params.x;
		if (params.y) delete params.y;
		history.replaceState(null, null, parse_params(params));
	}

	// search
	function toggle_ignorecase() {
		ignorecase = !ignorecase;
		if (ignorecase) {
			ignorecaseBtn.classList.add("show");
		} else {
			ignorecaseBtn.classList.remove("show");
		}
		reset_search();
		search();
	}
	function reset_search() {
		var el = document.querySelectorAll("#frames rect");
		for (var i = 0; i < el.length; i++) {
			orig_load(el[i], "fill")
		}
		var params = get_params();
		delete params.s;
		history.replaceState(null, null, parse_params(params));
	}
	function search_prompt() {
		if (!searching) {
			var term = prompt("Enter a search term (regexp " +
			    "allowed, eg: ^ext4_)"
			    + (ignorecase ? ", ignoring case" : "")
			    + "\nPress Ctrl-i to toggle case sensitivity", "");
			if (term != null) search(term);
		} else {
			reset_search();
			searching = 0;
			currentSearchTerm = null;
			searchbtn.classList.remove("show");
			searchbtn.firstChild.nodeValue = "Search"
			matchedtxt.classList.add("hide");
			matchedtxt.firstChild.nodeValue = ""
		}
	}
	function search(term) {
		if (term) currentSearchTerm = term;

		var re = new RegExp(currentSearchTerm, ignorecase ? 'i' : '');
		var el = document.getElementById("frames").children;
		var matches = new Object();
		var maxwidth = 0;
		for (var i = 0; i < el.length; i++) {
			var e = el[i];
			var func = g_to_func(e);
			var rect = find_child(e, "rect");
			if (func == null || rect == null)
				continue;

			// Save max width. Only works as we have a root frame
			var w = parseFloat(rect.attributes.width.value);
			if (w > maxwidth)
				maxwidth = w;

			if (func.match(re)) {
				// highlight
				var x = parseFloat(rect.attributes.x.value);
				orig_save(rect, "fill");
				rect.attributes.fill.value = "rgb(230,0,230)";

				// remember matches
				if (matches[x] == undefined) {
					matches[x] = w;
				} else {
					if (w > matches[x]) {
						// overwrite with parent
						matches[x] = w;
					}
				}
				searching = 1;
			}
		}
		if (!searching)
			return;
		var params = get_params();
		params.s = currentSearchTerm;
		history.replaceState(null, null, parse_params(params));

		searchbtn.classList.add("show");
		searchbtn.firstChild.nodeValue = "Reset Search";

		// calculate percent matched, excluding vertical overlap
		var count = 0;
		var lastx = -1;
		var lastw = 0;
		var keys = Array();
		for (k in matches) {
			if (matches.hasOwnProperty(k))
				keys.push(k);
		}
		// sort the matched frames by their x location
		// ascending, then width descending
		keys.sort(function(a, b){
			return a - b;
		});
		// Step through frames saving only the biggest bottom-up frames
		// thanks to the sort order. This relies on the tree property
		// where children are always smaller than their parents.
		var fudge = 0.0001;	// JavaScript floating point
		for (var k in keys) {
			var x = parseFloat(keys[k]);
			var w = matches[keys[k]];
			if (x >= lastx + lastw - fudge) {
				count += w;
				lastx = x;
				lastw = w;
			}
		}
		// display matched percent
		matchedtxt.classList.remove("hide");
		var pct = 100 * count / maxwidth;
		if (pct != 100) pct = pct.toFixed(1)
		matchedtxt.firstChild.nodeValue = "Matched: " + pct + "%";
	}
]]>
</script>
<rect x="0.0" y="0" width="1200.0" height="347.0" fill="url(#background)"  />
<text id="title" x="600.00" y="26" >Firedrake example</text>
<text id="details" x="10.00" y="329" > </text>
<text id="unzoom" x="10.00" y="26" class="hide">Reset Zoom</text>
<text id="search" x="1090.00" y="26" >Search</text>
<text id="ignorecase" x="1174.00" y="26" >ic</text>
<text id="matched" x="1090.00" y="329" > </text>
<g id="frames">
<g >
<title>firedrake.__init__ (1,525,144 us, 17.10%)</title><rect x="170.3" y="71" width="201.7" height="15.0" fill="rgb(0,0,0)" rx="2" ry="2" />
<text  x="173.27" y="81.5" >firedrake.__init__</text>
</g>
<g >
<title>Log_Event_subkernel116_cell_to__cell_integral_otherwise (9,622 us, 0.11%)</title><rect x="585.0" y="263" width="1.3" height="15.0" fill="rgb(0,0,0)" rx="2" ry="2" />
<text  x="588.05" y="273.5" ></text>
</g>
<g >
<title>Log_Event_subkernel83_cell_to__cell_integral_otherwise (13,104 us, 0.15%)</title><rect x="694.4" y="279" width="1.7" height="15.0" fill="rgb(0,0,0)" rx="2" ry="2" />
<text  x="697.42" y="289.5" ></text>
</g>
<g >
<title>inv_getrf (33,077 us, 0.37%)</title><rect x="1106.0" y="279" width="4.4" height="15.0" fill="rgb(0,0,0)" rx="2" ry="2" />
<text  x="1109.04" y="289.5" ></text>
</g>
<g >
<title>Log_Event_tensorshell_knl_134 (7,184 us, 0.08%)</title><rect x="640.1" y="295" width="1.0" height="15.0" fill="rgb(0,0,0)" rx="2" ry="2" />
<text  x="643.15" y="305.5" ></text>
</g>
<g >
<title>Log_Event_tensorshell_knl_130 (743,631 us, 8.34%)</title><rect x="591.5" y="263" width="98.4" height="15.0" fill="rgb(0,0,0)" rx="2" ry="2" />
<text  x="594.53" y="273.5" >Log_Event_..</text>
</g>
<g >
<title>ParLoopExecute (72,924 us, 0.82%)</title><rect x="1154.3" y="167" width="9.6" height="15.0" fill="rgb(0,0,0)" rx="2" ry="2" />
<text  x="1157.30" y="177.5" ></text>
</g>
<g >
<title>Log_Event_mtf_solve_38 (6,794 us, 0.08%)</title><rect x="562.8" y="215" width="0.9" height="15.0" fill="rgb(0,0,0)" rx="2" ry="2" />
<text  x="565.78" y="225.5" ></text>
</g>
<g >
<title>Log_Event_subkernel136_cell_to__cell_integral_otherwise (178,929 us, 2.01%)</title><rect x="616.5" y="295" width="23.6" height="15.0" fill="rgb(0,0,0)" rx="2" ry="2" />
<text  x="619.48" y="305.5" >L..</text>
</g>
<g >
<title>Log_Event_mtf_solve_132 (383,085 us, 4.29%)</title><rect x="592.3" y="279" width="50.7" height="15.0" fill="rgb(0,0,0)" rx="2" ry="2" />
<text  x="595.28" y="289.5" >Log_..</text>
</g>
<g >
<title>Log_Event_tensorshell_knl_2 (3,947 us, 0.04%)</title><rect x="562.3" y="231" width="0.5" height="15.0" fill="rgb(0,0,0)" rx="2" ry="2" />
<text  x="565.26" y="241.5" ></text>
</g>
<g >
<title>pyop2.global_kernel.GlobalKernel.compile (33,397 us, 0.37%)</title><rect x="381.1" y="183" width="4.5" height="15.0" fill="rgb(0,0,0)" rx="2" ry="2" />
<text  x="384.14" y="193.5" ></text>
</g>
<g >
<title>Log_Event_subkernel135_cell_to__cell_integral_otherwise (65,516 us, 0.73%)</title><rect x="607.8" y="295" width="8.7" height="15.0" fill="rgb(0,0,0)" rx="2" ry="2" />
<text  x="610.81" y="305.5" ></text>
</g>
<g >
<title>Log_Event_subkernel103_cell_to__cell_integral_otherwise (13,051 us, 0.15%)</title><rect x="701.4" y="247" width="1.7" height="15.0" fill="rgb(0,0,0)" rx="2" ry="2" />
<text  x="704.42" y="257.5" ></text>
</g>
<g >
<title>Log_Event_subkernel113_cell_to__cell_integral_otherwise (4,910 us, 0.06%)</title><rect x="583.9" y="263" width="0.7" height="15.0" fill="rgb(0,0,0)" rx="2" ry="2" />
<text  x="586.93" y="273.5" ></text>
</g>
<g >
<title>SCForwardElim (1,045,111 us, 11.72%)</title><rect x="430.3" y="135" width="138.3" height="15.0" fill="rgb(0,0,0)" rx="2" ry="2" />
<text  x="433.32" y="145.5" >SCForwardElim</text>
</g>
<g >
<title>Log_Event_subkernel107_cell_to__cell_integral_otherwise (3,498 us, 0.04%)</title><rect x="582.5" y="263" width="0.5" height="15.0" fill="rgb(0,0,0)" rx="2" ry="2" />
<text  x="585.50" y="273.5" ></text>
</g>
<g >
<title>Log_Event_subkernel18_cell_to__cell_integral_otherwise (17,470 us, 0.20%)</title><rect x="555.4" y="263" width="2.3" height="15.0" fill="rgb(0,0,0)" rx="2" ry="2" />
<text  x="558.39" y="273.5" ></text>
</g>
<g >
<title>firedrake.formmanipulation.split_form (3,498 us, 0.04%)</title><rect x="429.9" y="167" width="0.4" height="15.0" fill="rgb(0,0,0)" rx="2" ry="2" />
<text  x="432.86" y="177.5" ></text>
</g>
<g >
<title>Log_Event_mtf_solve_14 (37,019 us, 0.42%)</title><rect x="552.8" y="247" width="4.9" height="15.0" fill="rgb(0,0,0)" rx="2" ry="2" />
<text  x="555.80" y="257.5" ></text>
</g>
<g >
<title>firedrake.variational_solver.LinearVariationalProblem.__init__ (17,116 us, 0.19%)</title><rect x="372.0" y="71" width="2.3" height="15.0" fill="rgb(0,0,0)" rx="2" ry="2" />
<text  x="375.04" y="81.5" ></text>
</g>
<g >
<title>Log_Event_tensorshell_knl_137 (14,083 us, 0.16%)</title><rect x="641.1" y="295" width="1.9" height="15.0" fill="rgb(0,0,0)" rx="2" ry="2" />
<text  x="644.10" y="305.5" ></text>
</g>
<g >
<title>firedrake.matrix_free.operators.ImplicitMatrixContext.mult (1,092,974 us, 12.25%)</title><rect x="568.6" y="183" width="144.6" height="15.0" fill="rgb(0,0,0)" rx="2" ry="2" />
<text  x="571.58" y="193.5" >firedrake.matrix..</text>
</g>
<g >
<title>Log_Event_subkernel71_interior_facet_horiz_top_to__exterior_facet_top_integral_otherwise (2,588 us, 0.03%)</title><rect x="1127.5" y="263" width="0.3" height="15.0" fill="rgb(0,0,0)" rx="2" ry="2" />
<text  x="1130.49" y="273.5" ></text>
</g>
<g >
<title>Parloop_Cells_wrap_slate_loopy_knl_79 (1,077,551 us, 12.08%)</title><rect x="570.6" y="215" width="142.6" height="15.0" fill="rgb(0,0,0)" rx="2" ry="2" />
<text  x="573.62" y="225.5" >Parloop_Cells_wr..</text>
</g>
<g >
<title>CreateFunctionSpace (22,541 us, 0.25%)</title><rect x="167.3" y="71" width="3.0" height="15.0" fill="rgb(0,0,0)" rx="2" ry="2" />
<text  x="170.29" y="81.5" ></text>
</g>
<g >
<title>Log_Event_subkernel148_interior_facet_vert_to__exterior_facet_vert_integral_otherwise (11,947 us, 0.13%)</title><rect x="710.0" y="247" width="1.6" height="15.0" fill="rgb(0,0,0)" rx="2" ry="2" />
<text  x="713.02" y="257.5" ></text>
</g>
<g >
<title>Log_Event_subkernel115_cell_to__cell_integral_otherwise (3,508 us, 0.04%)</title><rect x="584.6" y="263" width="0.4" height="15.0" fill="rgb(0,0,0)" rx="2" ry="2" />
<text  x="587.58" y="273.5" ></text>
</g>
<g >
<title>firedrake.assemble.allocate_matrix (57,939 us, 0.65%)</title><rect x="1142.7" y="231" width="7.7" height="15.0" fill="rgb(0,0,0)" rx="2" ry="2" />
<text  x="1145.70" y="241.5" ></text>
</g>
<g >
<title>ParLoopExecute (70,586 us, 0.79%)</title><rect x="376.2" y="151" width="9.4" height="15.0" fill="rgb(0,0,0)" rx="2" ry="2" />
<text  x="379.22" y="161.5" ></text>
</g>
<g >
<title>firedrake.matrix_free.operators.ImplicitMatrixContext.mult (929,634 us, 10.42%)</title><rect x="713.2" y="247" width="123.0" height="15.0" fill="rgb(0,0,0)" rx="2" ry="2" />
<text  x="716.17" y="257.5" >firedrake.matr..</text>
</g>
<g >
<title>Log_Event_mtf_solve_94 (13,279 us, 0.15%)</title><rect x="696.9" y="279" width="1.8" height="15.0" fill="rgb(0,0,0)" rx="2" ry="2" />
<text  x="699.90" y="289.5" ></text>
</g>
<g >
<title>HybridInit (135,799 us, 1.52%)</title><rect x="1172.0" y="119" width="18.0" height="15.0" fill="rgb(0,0,0)" rx="2" ry="2" />
<text  x="1175.03" y="129.5" ></text>
</g>
<g >
<title>CreateFunctionSpace (7,158 us, 0.08%)</title><rect x="1177.3" y="183" width="0.9" height="15.0" fill="rgb(0,0,0)" rx="2" ry="2" />
<text  x="1180.28" y="193.5" ></text>
</g>
<g >
<title>Log_Event_slate_loopy_knl_70 (2,025,922 us, 22.71%)</title><rect x="859.1" y="263" width="268.1" height="15.0" fill="rgb(0,0,0)" rx="2" ry="2" />
<text  x="862.14" y="273.5" >Log_Event_slate_loopy_knl_70</text>
</g>
<g >
<title>ParLoopExecute (2,165,744 us, 24.28%)</title><rect x="856.2" y="231" width="286.5" height="15.0" fill="rgb(0,0,0)" rx="2" ry="2" />
<text  x="859.19" y="241.5" >ParLoopExecute</text>
</g>
<g >
<title>firedrake.extrusion_utils.make_extruded_coords (66,105 us, 0.74%)</title><rect x="157.7" y="87" width="8.8" height="15.0" fill="rgb(0,0,0)" rx="2" ry="2" />
<text  x="160.73" y="97.5" ></text>
</g>
<g >
<title>Log_Event_subkernel138_cell_to__cell_integral_otherwise (104,691 us, 1.17%)</title><rect x="676.1" y="279" width="13.8" height="15.0" fill="rgb(0,0,0)" rx="2" ry="2" />
<text  x="679.05" y="289.5" ></text>
</g>
<g >
<title>PCApply (3,325,803 us, 37.29%)</title><rect x="713.2" y="167" width="440.0" height="15.0" fill="rgb(0,0,0)" rx="2" ry="2" />
<text  x="716.17" y="177.5" >PCApply</text>
</g>
<g >
<title>firedrake.ufl_expr.adjoint (11,860 us, 0.13%)</title><rect x="372.7" y="103" width="1.6" height="15.0" fill="rgb(0,0,0)" rx="2" ry="2" />
<text  x="375.73" y="113.5" ></text>
</g>
<g >
<title>CreateSparsity (2,977 us, 0.03%)</title><rect x="1169.7" y="183" width="0.3" height="15.0" fill="rgb(0,0,0)" rx="2" ry="2" />
<text  x="1172.65" y="193.5" ></text>
</g>
<g >
<title>Log_Event_subkernel131_cell_to__cell_integral_otherwise (250,120 us, 2.80%)</title><rect x="643.0" y="279" width="33.1" height="15.0" fill="rgb(0,0,0)" rx="2" ry="2" />
<text  x="645.96" y="289.5" >Lo..</text>
</g>
<g >
<title>Log_Event_subkernel146_cell_to__cell_integral_otherwise (9,581 us, 0.11%)</title><rect x="691.4" y="263" width="1.3" height="15.0" fill="rgb(0,0,0)" rx="2" ry="2" />
<text  x="694.39" y="273.5" ></text>
</g>
<g >
<title>Log_Event_mtf_solve_84 (13,313 us, 0.15%)</title><rect x="692.7" y="279" width="1.7" height="15.0" fill="rgb(0,0,0)" rx="2" ry="2" />
<text  x="695.65" y="289.5" ></text>
</g>
<g >
<title>KSPSetUp (3,304,739 us, 37.05%)</title><rect x="713.2" y="199" width="437.2" height="15.0" fill="rgb(0,0,0)" rx="2" ry="2" />
<text  x="716.17" y="209.5" >KSPSetUp</text>
</g>
<g >
<title>ParLoopExecute (35,953 us, 0.40%)</title><rect x="431.1" y="183" width="4.7" height="15.0" fill="rgb(0,0,0)" rx="2" ry="2" />
<text  x="434.07" y="193.5" ></text>
</g>
<g >
<title>Log_Event_subkernel95_cell_to__cell_integral_otherwise (5,053 us, 0.06%)</title><rect x="696.9" y="295" width="0.7" height="15.0" fill="rgb(0,0,0)" rx="2" ry="2" />
<text  x="699.90" y="305.5" ></text>
</g>
<g >
<title>Log_Event_mtf_solve_1 (75,452 us, 0.85%)</title><rect x="552.8" y="215" width="10.0" height="15.0" fill="rgb(0,0,0)" rx="2" ry="2" />
<text  x="555.80" y="225.5" ></text>
</g>
<g >
<title>firedrake.tsfc_interface.compile_form (15,288 us, 0.17%)</title><rect x="1151.1" y="215" width="2.1" height="15.0" fill="rgb(0,0,0)" rx="2" ry="2" />
<text  x="1154.13" y="225.5" ></text>
</g>
<g >
<title>Log_Event_subkernel141_cell_to__cell_integral_otherwise (13,163 us, 0.15%)</title><rect x="708.3" y="247" width="1.7" height="15.0" fill="rgb(0,0,0)" rx="2" ry="2" />
<text  x="711.28" y="257.5" ></text>
</g>
<g >
<title>Log_Event_subkernel133_cell_to__cell_integral_otherwise (96,686 us, 1.08%)</title><rect x="595.0" y="295" width="12.8" height="15.0" fill="rgb(0,0,0)" rx="2" ry="2" />
<text  x="598.02" y="305.5" ></text>
</g>
<g >
<title>firedrake.tsfc_interface.compile_form (15,036 us, 0.17%)</title><rect x="1170.0" y="167" width="2.0" height="15.0" fill="rgb(0,0,0)" rx="2" ry="2" />
<text  x="1173.05" y="177.5" ></text>
</g>
<g >
<title>Log_Event_subkernel108_cell_to__cell_integral_otherwise (4,892 us, 0.05%)</title><rect x="583.0" y="263" width="0.6" height="15.0" fill="rgb(0,0,0)" rx="2" ry="2" />
<text  x="585.96" y="273.5" ></text>
</g>
<g >
<title>Log_Event_subkernel143_cell_to__cell_integral_otherwise (4,979 us, 0.06%)</title><rect x="690.3" y="263" width="0.6" height="15.0" fill="rgb(0,0,0)" rx="2" ry="2" />
<text  x="693.27" y="273.5" ></text>
</g>
<g >
<title>Log_Event_subkernel87_cell_to__cell_integral_otherwise (3,516 us, 0.04%)</title><rect x="693.3" y="295" width="0.5" height="15.0" fill="rgb(0,0,0)" rx="2" ry="2" />
<text  x="696.32" y="305.5" ></text>
</g>
<g >
<title>PCSetUp (135,799 us, 1.52%)</title><rect x="1172.0" y="103" width="18.0" height="15.0" fill="rgb(0,0,0)" rx="2" ry="2" />
<text  x="1175.03" y="113.5" ></text>
</g>
<g >
<title>Log_Event_subkernel71_interior_facet_vert_to__exterior_facet_vert_integral_otherwise (19,457 us, 0.22%)</title><rect x="1127.8" y="263" width="2.6" height="15.0" fill="rgb(0,0,0)" rx="2" ry="2" />
<text  x="1130.84" y="273.5" ></text>
</g>
<g >
<title>Log_Event_subkernel72_cell_to__cell_integral_otherwise (20,298 us, 0.23%)</title><rect x="1130.4" y="263" width="2.7" height="15.0" fill="rgb(0,0,0)" rx="2" ry="2" />
<text  x="1133.41" y="273.5" ></text>
</g>
<g >
<title>KSPSolve (929,634 us, 10.42%)</title><rect x="713.2" y="215" width="123.0" height="15.0" fill="rgb(0,0,0)" rx="2" ry="2" />
<text  x="716.17" y="225.5" >KSPSolve</text>
</g>
<g >
<title>firedrake.functionspaceimpl.FunctionSpace.__init__ (22,541 us, 0.25%)</title><rect x="167.3" y="87" width="3.0" height="15.0" fill="rgb(0,0,0)" rx="2" ry="2" />
<text  x="170.29" y="97.5" ></text>
</g>
<g >
<title>firedrake.interpolation.make_interpolator (46,116 us, 0.52%)</title><rect x="1163.9" y="167" width="6.1" height="15.0" fill="rgb(0,0,0)" rx="2" ry="2" />
<text  x="1166.94" y="177.5" ></text>
</g>
<g >
<title>MatMult (1,092,974 us, 12.25%)</title><rect x="568.6" y="167" width="144.6" height="15.0" fill="rgb(0,0,0)" rx="2" ry="2" />
<text  x="571.58" y="177.5" >MatMult</text>
</g>
<g >
<title>firedrake.functionspaceimpl.FunctionSpace.__init__ (6,150 us, 0.07%)</title><rect x="166.5" y="119" width="0.8" height="15.0" fill="rgb(0,0,0)" rx="2" ry="2" />
<text  x="169.47" y="129.5" ></text>
</g>
<g >
<title>Log_Event_subkernel13_cell_to__cell_integral_otherwise (24,119 us, 0.27%)</title><rect x="557.7" y="247" width="3.2" height="15.0" fill="rgb(0,0,0)" rx="2" ry="2" />
<text  x="560.70" y="257.5" ></text>
</g>
<g >
<title>firedrake.ufl_expr.adjoint (3,130 us, 0.04%)</title><rect x="374.9" y="119" width="0.4" height="15.0" fill="rgb(0,0,0)" rx="2" ry="2" />
<text  x="377.85" y="129.5" ></text>
</g>
<g >
<title>CreateFunctionSpace (12,248 us, 0.14%)</title><rect x="1174.8" y="135" width="1.6" height="15.0" fill="rgb(0,0,0)" rx="2" ry="2" />
<text  x="1177.77" y="145.5" ></text>
</g>
<g >
<title>Log_Event_mtf_solve_142 (20,805 us, 0.23%)</title><rect x="689.9" y="247" width="2.8" height="15.0" fill="rgb(0,0,0)" rx="2" ry="2" />
<text  x="692.90" y="257.5" ></text>
</g>
<g >
<title>all (8,919,605 us, 100%)</title><rect x="10.0" y="39" width="1180.0" height="15.0" fill="rgb(0,0,0)" rx="2" ry="2" />
<text  x="13.00" y="49.5" ></text>
</g>
<g >
<title>firedrake.functionspacedata.FunctionSpaceData.__init__ (3,358 us, 0.04%)</title><rect x="1177.8" y="231" width="0.4" height="15.0" fill="rgb(0,0,0)" rx="2" ry="2" />
<text  x="1180.78" y="241.5" ></text>
</g>
<g >
<title>Log_Event_subkernel105_cell_to__cell_integral_otherwise (4,925 us, 0.06%)</title><rect x="581.8" y="263" width="0.7" height="15.0" fill="rgb(0,0,0)" rx="2" ry="2" />
<text  x="584.85" y="273.5" ></text>
</g>
<g >
<title>KSPSolve (4,418,777 us, 49.54%)</title><rect x="568.6" y="151" width="584.6" height="15.0" fill="rgb(0,0,0)" rx="2" ry="2" />
<text  x="571.58" y="161.5" >KSPSolve</text>
</g>
<g >
<title>Log_Event_subkernel98_cell_to__cell_integral_otherwise (4,705 us, 0.05%)</title><rect x="698.0" y="295" width="0.7" height="15.0" fill="rgb(0,0,0)" rx="2" ry="2" />
<text  x="701.04" y="305.5" ></text>
</g>
<g >
<title>pyop2.global_kernel.GlobalKernel.compile (33,074 us, 0.37%)</title><rect x="1185.3" y="183" width="4.4" height="15.0" fill="rgb(0,0,0)" rx="2" ry="2" />
<text  x="1188.29" y="193.5" ></text>
</g>
<g >
<title>Log_Event_subkernel20_cell_to__cell_integral_otherwise (10,367 us, 0.12%)</title><rect x="560.9" y="247" width="1.4" height="15.0" fill="rgb(0,0,0)" rx="2" ry="2" />
<text  x="563.89" y="257.5" ></text>
</g>
<g >
<title>KSPSolve (6,019,872 us, 67.49%)</title><rect x="375.6" y="103" width="796.4" height="15.0" fill="rgb(0,0,0)" rx="2" ry="2" />
<text  x="378.65" y="113.5" >KSPSolve</text>
</g>
<g >
<title>Log_Event_tensorshell_knl_92 (34,129 us, 0.38%)</title><rect x="696.9" y="263" width="4.5" height="15.0" fill="rgb(0,0,0)" rx="2" ry="2" />
<text  x="699.90" y="273.5" ></text>
</g>
<g >
<title>Log_Event_subkernel15_cell_to__cell_integral_otherwise (9,050 us, 0.10%)</title><rect x="553.3" y="263" width="1.2" height="15.0" fill="rgb(0,0,0)" rx="2" ry="2" />
<text  x="556.34" y="273.5" ></text>
</g>
<g >
<title>Log_Event_tensorshell_knl_120 (36,616 us, 0.41%)</title><rect x="586.7" y="263" width="4.8" height="15.0" fill="rgb(0,0,0)" rx="2" ry="2" />
<text  x="589.68" y="273.5" ></text>
</g>
<g >
<title>firedrake.functionspaceimpl.FunctionSpace.__init__ (3,358 us, 0.04%)</title><rect x="1177.8" y="199" width="0.4" height="15.0" fill="rgb(0,0,0)" rx="2" ry="2" />
<text  x="1180.78" y="209.5" ></text>
</g>
<g >
<title>Log_Event_subkernel149_interior_facet_vert_to__exterior_facet_vert_integral_otherwise (11,912 us, 0.13%)</title><rect x="711.6" y="247" width="1.6" height="15.0" fill="rgb(0,0,0)" rx="2" ry="2" />
<text  x="714.60" y="257.5" ></text>
</g>
<g >
<title>firedrake.functionspacedata.FunctionSpaceData.__init__ (8,522 us, 0.10%)</title><rect x="1175.3" y="183" width="1.1" height="15.0" fill="rgb(0,0,0)" rx="2" ry="2" />
<text  x="1178.27" y="193.5" ></text>
</g>
<g >
<title>Parloop_Cells_wrap_par_loop_kernel (35,953 us, 0.40%)</title><rect x="431.1" y="199" width="4.7" height="15.0" fill="rgb(0,0,0)" rx="2" ry="2" />
<text  x="434.07" y="209.5" ></text>
</g>
<g >
<title>firedrake.ufl_expr.action (4,171 us, 0.05%)</title><rect x="374.3" y="119" width="0.6" height="15.0" fill="rgb(0,0,0)" rx="2" ry="2" />
<text  x="377.30" y="129.5" ></text>
</g>
<g >
<title>Log_Event_subkernel123_cell_to__cell_integral_otherwise (5,065 us, 0.06%)</title><rect x="586.7" y="295" width="0.7" height="15.0" fill="rgb(0,0,0)" rx="2" ry="2" />
<text  x="589.68" y="305.5" ></text>
</g>
<g >
<title>Log_Event_mtf_solve_112 (20,495 us, 0.23%)</title><rect x="583.6" y="247" width="2.7" height="15.0" fill="rgb(0,0,0)" rx="2" ry="2" />
<text  x="586.61" y="257.5" ></text>
</g>
<g >
<title>firedrake.formmanipulation.ExtractSubBlock.split (3,498 us, 0.04%)</title><rect x="429.9" y="183" width="0.4" height="15.0" fill="rgb(0,0,0)" rx="2" ry="2" />
<text  x="432.86" y="193.5" ></text>
</g>
<g >
<title>HybridBreak (41,593 us, 0.47%)</title><rect x="430.3" y="151" width="5.5" height="15.0" fill="rgb(0,0,0)" rx="2" ry="2" />
<text  x="433.32" y="161.5" ></text>
</g>
<g >
<title>firedrake.formmanipulation.ExtractSubBlock.split (13,809 us, 0.15%)</title><rect x="1176.4" y="151" width="1.8" height="15.0" fill="rgb(0,0,0)" rx="2" ry="2" />
<text  x="1179.40" y="161.5" ></text>
</g>
<g >
<title>Log_Event_subkernel118_cell_to__cell_integral_otherwise (5,729 us, 0.06%)</title><rect x="707.5" y="247" width="0.8" height="15.0" fill="rgb(0,0,0)" rx="2" ry="2" />
<text  x="710.52" y="257.5" ></text>
</g>
<g >
<title>firedrake.variational_solver.NonlinearVariationalSolver.solve (6,158,561 us, 69.05%)</title><rect x="375.3" y="71" width="814.7" height="15.0" fill="rgb(0,0,0)" rx="2" ry="2" />
<text  x="378.27" y="81.5" >firedrake.variational_solver.NonlinearVariationalSolver.solve</text>
</g>
<g >
<title>inv_getri (126,538 us, 1.42%)</title><rect x="1110.4" y="279" width="16.8" height="15.0" fill="rgb(0,0,0)" rx="2" ry="2" />
<text  x="1113.42" y="289.5" ></text>
</g>
<g >
<title>firedrake.interpolation.make_interpolator (48,434 us, 0.54%)</title><rect x="1178.2" y="135" width="6.4" height="15.0" fill="rgb(0,0,0)" rx="2" ry="2" />
<text  x="1181.22" y="145.5" ></text>
</g>
<g >
<title>FunctionSpaceData: CreateElement (8,522 us, 0.10%)</title><rect x="1175.3" y="199" width="1.1" height="15.0" fill="rgb(0,0,0)" rx="2" ry="2" />
<text  x="1178.27" y="209.5" ></text>
</g>
<g >
<title>firedrake.functionspaceimpl.FunctionSpace.__init__ (8,522 us, 0.10%)</title><rect x="1175.3" y="151" width="1.1" height="15.0" fill="rgb(0,0,0)" rx="2" ry="2" />
<text  x="1178.27" y="161.5" ></text>
</g>
<g >
<title>Log_Event_subkernel17_cell_to__cell_integral_otherwise (6,435 us, 0.07%)</title><rect x="554.5" y="263" width="0.9" height="15.0" fill="rgb(0,0,0)" rx="2" ry="2" />
<text  x="557.54" y="273.5" ></text>
</g>
<g >
<title>firedrake.functionspace.VectorFunctionSpace (6,150 us, 0.07%)</title><rect x="166.5" y="87" width="0.8" height="15.0" fill="rgb(0,0,0)" rx="2" ry="2" />
<text  x="169.47" y="97.5" ></text>
</g>
<g >
<title>Parloop_Cells_wrap_form00_cell_integral_otherwise (35,601 us, 0.40%)</title><rect x="1159.2" y="183" width="4.7" height="15.0" fill="rgb(0,0,0)" rx="2" ry="2" />
<text  x="1162.24" y="193.5" ></text>
</g>
<g >
<title>Log_Event_subkernel76_cell_to__cell_integral_otherwise (5,514 us, 0.06%)</title><rect x="1134.7" y="263" width="0.7" height="15.0" fill="rgb(0,0,0)" rx="2" ry="2" />
<text  x="1137.67" y="273.5" ></text>
</g>
<g >
<title>firedrake.ufl_expr.adjoint (2,514 us, 0.03%)</title><rect x="1189.7" y="135" width="0.3" height="15.0" fill="rgb(0,0,0)" rx="2" ry="2" />
<text  x="1192.67" y="145.5" ></text>
</g>
<g >
<title>Log_Event_tensorshell_knl_49 (3,382 us, 0.04%)</title><rect x="563.2" y="231" width="0.5" height="15.0" fill="rgb(0,0,0)" rx="2" ry="2" />
<text  x="566.23" y="241.5" ></text>
</g>
<g >
<title>ParLoopExecute (33,074 us, 0.37%)</title><rect x="1185.3" y="151" width="4.4" height="15.0" fill="rgb(0,0,0)" rx="2" ry="2" />
<text  x="1188.29" y="161.5" ></text>
</g>
<g >
<title>Log_Event_subkernel110_interior_facet_vert_to__exterior_facet_vert_integral_otherwise (11,875 us, 0.13%)</title><rect x="703.1" y="247" width="1.6" height="15.0" fill="rgb(0,0,0)" rx="2" ry="2" />
<text  x="706.14" y="257.5" ></text>
</g>
<g >
<title>pyop2.global_kernel.GlobalKernel.compile (37,189 us, 0.42%)</title><rect x="376.2" y="183" width="4.9" height="15.0" fill="rgb(0,0,0)" rx="2" ry="2" />
<text  x="379.22" y="193.5" ></text>
</g>
<g >
<title>Log_Event_subkernel71_interior_facet_horiz_bottom_to__exterior_facet_bottom_integral_otherwise (2,549 us, 0.03%)</title><rect x="1127.2" y="263" width="0.3" height="15.0" fill="rgb(0,0,0)" rx="2" ry="2" />
<text  x="1130.16" y="273.5" ></text>
</g>
<g >
<title>Parloop_Cells_wrap_form0_cell_integral_otherwise (37,189 us, 0.42%)</title><rect x="376.2" y="167" width="4.9" height="15.0" fill="rgb(0,0,0)" rx="2" ry="2" />
<text  x="379.22" y="177.5" ></text>
</g>
<g >
<title>Parloop_Cells_wrap_expression_kernel (37,323 us, 0.42%)</title><rect x="1154.3" y="183" width="4.9" height="15.0" fill="rgb(0,0,0)" rx="2" ry="2" />
<text  x="1157.30" y="193.5" ></text>
</g>
<g >
<title>pyop2.global_kernel.GlobalKernel.compile (37,323 us, 0.42%)</title><rect x="1154.3" y="199" width="4.9" height="15.0" fill="rgb(0,0,0)" rx="2" ry="2" />
<text  x="1157.30" y="209.5" ></text>
</g>
<g >
<title>Parloop_Cells_wrap_pyop2_kernel_uniform_extrusion (36,393 us, 0.41%)</title><rect x="161.7" y="119" width="4.8" height="15.0" fill="rgb(0,0,0)" rx="2" ry="2" />
<text  x="164.66" y="129.5" ></text>
</g>
<g >
<title>firedrake.functionspacedata.get_shared_data (6,150 us, 0.07%)</title><rect x="166.5" y="135" width="0.8" height="15.0" fill="rgb(0,0,0)" rx="2" ry="2" />
<text  x="169.47" y="145.5" ></text>
</g>
<g >
<title>firedrake.tsfc_interface.compile_form (338,377 us, 3.79%)</title><rect x="385.6" y="151" width="44.7" height="15.0" fill="rgb(0,0,0)" rx="2" ry="2" />
<text  x="388.56" y="161.5" >fir..</text>
</g>
<g >
<title>pyop2.global_kernel.GlobalKernel.compile (35,601 us, 0.40%)</title><rect x="1159.2" y="199" width="4.7" height="15.0" fill="rgb(0,0,0)" rx="2" ry="2" />
<text  x="1162.24" y="209.5" ></text>
</g>
<g >
<title>Log_Event_subkernel93_cell_to__cell_integral_otherwise (13,036 us, 0.15%)</title><rect x="699.7" y="279" width="1.7" height="15.0" fill="rgb(0,0,0)" rx="2" ry="2" />
<text  x="702.69" y="289.5" ></text>
</g>
<g >
<title>Log_Event_subkernel111_interior_facet_vert_to__exterior_facet_vert_integral_otherwise (21,194 us, 0.24%)</title><rect x="704.7" y="247" width="2.8" height="15.0" fill="rgb(0,0,0)" rx="2" ry="2" />
<text  x="707.72" y="257.5" ></text>
</g>
<g >
<title>Parloop_Cells_wrap_par_loop_kernel (33,074 us, 0.37%)</title><rect x="1185.3" y="167" width="4.4" height="15.0" fill="rgb(0,0,0)" rx="2" ry="2" />
<text  x="1188.29" y="177.5" ></text>
</g>
<g >
<title>Log_Event_mtf_solve_122 (17,887 us, 0.20%)</title><rect x="586.7" y="279" width="2.3" height="15.0" fill="rgb(0,0,0)" rx="2" ry="2" />
<text  x="589.68" y="289.5" ></text>
</g>
<g >
<title>firedrake.functionspacedata.FunctionSpaceData.__init__ (22,541 us, 0.25%)</title><rect x="167.3" y="119" width="3.0" height="15.0" fill="rgb(0,0,0)" rx="2" ry="2" />
<text  x="170.29" y="129.5" ></text>
</g>
<g >
<title>CreateSparsity (42,277 us, 0.47%)</title><rect x="1142.7" y="247" width="5.6" height="15.0" fill="rgb(0,0,0)" rx="2" ry="2" />
<text  x="1145.70" y="257.5" ></text>
</g>
<g >
<title>firedrake.assemble.allocate_matrix (7,301 us, 0.08%)</title><rect x="374.3" y="87" width="1.0" height="15.0" fill="rgb(0,0,0)" rx="2" ry="2" />
<text  x="377.30" y="97.5" ></text>
</g>
<g >
<title>Log_Event_tensorshell_knl_39 (3,412 us, 0.04%)</title><rect x="562.8" y="231" width="0.4" height="15.0" fill="rgb(0,0,0)" rx="2" ry="2" />
<text  x="565.78" y="241.5" ></text>
</g>
<g >
<title>Log_Event_subkernel145_cell_to__cell_integral_otherwise (3,489 us, 0.04%)</title><rect x="690.9" y="263" width="0.5" height="15.0" fill="rgb(0,0,0)" rx="2" ry="2" />
<text  x="693.93" y="273.5" ></text>
</g>
<g >
<title>MatMult (929,634 us, 10.42%)</title><rect x="713.2" y="231" width="123.0" height="15.0" fill="rgb(0,0,0)" rx="2" ry="2" />
<text  x="716.17" y="241.5" >MatMult</text>
</g>
<g >
<title>firedrake.functionspacedata.get_shared_data (8,522 us, 0.10%)</title><rect x="1175.3" y="167" width="1.1" height="15.0" fill="rgb(0,0,0)" rx="2" ry="2" />
<text  x="1178.27" y="177.5" ></text>
</g>
<g >
<title>firedrake.variational_solver.NonlinearVariationalProblem.__init__ (11,860 us, 0.13%)</title><rect x="372.7" y="87" width="1.6" height="15.0" fill="rgb(0,0,0)" rx="2" ry="2" />
<text  x="375.73" y="97.5" ></text>
</g>
<g >
<title>ParLoopExecute (137,399 us, 1.54%)</title><rect x="550.4" y="167" width="18.2" height="15.0" fill="rgb(0,0,0)" rx="2" ry="2" />
<text  x="553.41" y="177.5" ></text>
</g>
<g >
<title>firedrake.formmanipulation.ExtractSubBlock.argument (10,088 us, 0.11%)</title><rect x="1176.9" y="167" width="1.3" height="15.0" fill="rgb(0,0,0)" rx="2" ry="2" />
<text  x="1179.89" y="177.5" ></text>
</g>
<g >
<title>ParLoopExecute (1,077,551 us, 12.08%)</title><rect x="570.6" y="199" width="142.6" height="15.0" fill="rgb(0,0,0)" rx="2" ry="2" />
<text  x="573.62" y="209.5" >ParLoopExecute</text>
</g>
<g >
<title>firedrake.functionspacedata.get_shared_data (22,541 us, 0.25%)</title><rect x="167.3" y="103" width="3.0" height="15.0" fill="rgb(0,0,0)" rx="2" ry="2" />
<text  x="170.29" y="113.5" ></text>
</g>
<g >
<title>Log_Event_mtf_solve_104 (13,315 us, 0.15%)</title><rect x="581.8" y="247" width="1.8" height="15.0" fill="rgb(0,0,0)" rx="2" ry="2" />
<text  x="584.85" y="257.5" ></text>
</g>
<g >
<title>Log_Event_mtf_solve_119 (782,985 us, 8.78%)</title><rect x="586.3" y="247" width="103.6" height="15.0" fill="rgb(0,0,0)" rx="2" ry="2" />
<text  x="589.32" y="257.5" >Log_Event_m..</text>
</g>
<g >
<title>Log_Event_subkernel100_cell_to__cell_integral_otherwise (7,814 us, 0.09%)</title><rect x="698.7" y="279" width="1.0" height="15.0" fill="rgb(0,0,0)" rx="2" ry="2" />
<text  x="701.66" y="289.5" ></text>
</g>
<g >
<title>PCSetUp (142,715 us, 1.60%)</title><rect x="1153.2" y="151" width="18.8" height="15.0" fill="rgb(0,0,0)" rx="2" ry="2" />
<text  x="1156.15" y="161.5" ></text>
</g>
<g >
<title>firedrake.functionspacedata.FunctionSpaceData.__init__ (6,150 us, 0.07%)</title><rect x="166.5" y="151" width="0.8" height="15.0" fill="rgb(0,0,0)" rx="2" ry="2" />
<text  x="169.47" y="161.5" ></text>
</g>
<g >
<title>PCSetUp (2,375,105 us, 26.63%)</title><rect x="836.2" y="215" width="314.2" height="15.0" fill="rgb(0,0,0)" rx="2" ry="2" />
<text  x="839.16" y="225.5" >PCSetUp</text>
</g>
<g >
<title>SNESSolve (6,158,561 us, 69.05%)</title><rect x="375.3" y="87" width="814.7" height="15.0" fill="rgb(0,0,0)" rx="2" ry="2" />
<text  x="378.27" y="97.5" >SNESSolve</text>
</g>
<g >
<title>Log_Event_subkernel121_cell_to__cell_integral_otherwise (13,044 us, 0.15%)</title><rect x="589.0" y="279" width="1.8" height="15.0" fill="rgb(0,0,0)" rx="2" ry="2" />
<text  x="592.05" y="289.5" ></text>
</g>
<g >
<title>MatZeroInitial (15,662 us, 0.18%)</title><rect x="1148.3" y="247" width="2.1" height="15.0" fill="rgb(0,0,0)" rx="2" ry="2" />
<text  x="1151.30" y="257.5" ></text>
</g>
<g >
<title>ParLoopExecute (36,393 us, 0.41%)</title><rect x="161.7" y="103" width="4.8" height="15.0" fill="rgb(0,0,0)" rx="2" ry="2" />
<text  x="164.66" y="113.5" ></text>
</g>
<g >
<title>firedrake.functionspacedata.get_shared_data (3,358 us, 0.04%)</title><rect x="1177.8" y="215" width="0.4" height="15.0" fill="rgb(0,0,0)" rx="2" ry="2" />
<text  x="1180.78" y="225.5" ></text>
</g>
<g >
<title>pyop2.global_kernel.GlobalKernel.compile (35,953 us, 0.40%)</title><rect x="431.1" y="215" width="4.7" height="15.0" fill="rgb(0,0,0)" rx="2" ry="2" />
<text  x="434.07" y="225.5" ></text>
</g>
<g >
<title>Parloop_Cells_wrap_form1_cell_integral_otherwise (33,397 us, 0.37%)</title><rect x="381.1" y="167" width="4.5" height="15.0" fill="rgb(0,0,0)" rx="2" ry="2" />
<text  x="384.14" y="177.5" ></text>
</g>
<g >
<title>Log_Event_subkernel88_cell_to__cell_integral_otherwise (4,733 us, 0.05%)</title><rect x="693.8" y="295" width="0.6" height="15.0" fill="rgb(0,0,0)" rx="2" ry="2" />
<text  x="696.79" y="305.5" ></text>
</g>
<g >
<title>Log_Event_subkernel97_cell_to__cell_integral_otherwise (3,521 us, 0.04%)</title><rect x="697.6" y="295" width="0.4" height="15.0" fill="rgb(0,0,0)" rx="2" ry="2" />
<text  x="700.57" y="305.5" ></text>
</g>
<g >
<title>Log_Event_subkernel85_cell_to__cell_integral_otherwise (5,064 us, 0.06%)</title><rect x="692.7" y="295" width="0.6" height="15.0" fill="rgb(0,0,0)" rx="2" ry="2" />
<text  x="695.65" y="305.5" ></text>
</g>
<g >
<title>SCSolve (4,561,492 us, 51.14%)</title><rect x="568.6" y="135" width="603.4" height="15.0" fill="rgb(0,0,0)" rx="2" ry="2" />
<text  x="571.58" y="145.5" >SCSolve</text>
</g>
<g >
<title>firedrake.formmanipulation.split_form (13,809 us, 0.15%)</title><rect x="1176.4" y="135" width="1.8" height="15.0" fill="rgb(0,0,0)" rx="2" ry="2" />
<text  x="1179.40" y="145.5" ></text>
</g>
<g >
<title>CreateExtMesh (72,255 us, 0.81%)</title><rect x="157.7" y="71" width="9.6" height="15.0" fill="rgb(0,0,0)" rx="2" ry="2" />
<text  x="160.73" y="81.5" ></text>
</g>
<g >
<title>firedrake.matrix_free.operators.ImplicitMatrixContext.__init__ (7,301 us, 0.08%)</title><rect x="374.3" y="103" width="1.0" height="15.0" fill="rgb(0,0,0)" rx="2" ry="2" />
<text  x="377.30" y="113.5" ></text>
</g>
<g >
<title>pyop2.global_kernel.GlobalKernel.compile (37,662 us, 0.42%)</title><rect x="1137.7" y="263" width="5.0" height="15.0" fill="rgb(0,0,0)" rx="2" ry="2" />
<text  x="1140.72" y="273.5" ></text>
</g>
<g >
<title>MatMult (413,269 us, 4.63%)</title><rect x="375.6" y="119" width="54.7" height="15.0" fill="rgb(0,0,0)" rx="2" ry="2" />
<text  x="378.65" y="129.5" >MatMult</text>
</g>
<g >
<title>Log_Event_slate_loopy_knl_0 (100,363 us, 1.13%)</title><rect x="550.4" y="199" width="13.3" height="15.0" fill="rgb(0,0,0)" rx="2" ry="2" />
<text  x="553.41" y="209.5" ></text>
</g>
<g >
<title>Parloop_Cells_wrap_wrap_slate_loopy_knl_70 (2,165,744 us, 24.28%)</title><rect x="856.2" y="247" width="286.5" height="15.0" fill="rgb(0,0,0)" rx="2" ry="2" />
<text  x="859.19" y="257.5" >Parloop_Cells_wrap_wrap_slate_loopy..</text>
</g>
<g >
<title>PCApply (5,606,603 us, 62.86%)</title><rect x="430.3" y="119" width="741.7" height="15.0" fill="rgb(0,0,0)" rx="2" ry="2" />
<text  x="433.32" y="129.5" >PCApply</text>
</g>
<g >
<title>Log_Event_inits_wrap_slate_loopy_knl_70 (3,893 us, 0.04%)</title><rect x="858.6" y="263" width="0.5" height="15.0" fill="rgb(0,0,0)" rx="2" ry="2" />
<text  x="861.63" y="273.5" ></text>
</g>
<g >
<title>Log_Event_subkernel90_cell_to__cell_integral_otherwise (5,693 us, 0.06%)</title><rect x="696.1" y="279" width="0.8" height="15.0" fill="rgb(0,0,0)" rx="2" ry="2" />
<text  x="699.15" y="289.5" ></text>
</g>
<g >
<title>Log_Event_subkernel128_cell_to__cell_integral_otherwise (5,685 us, 0.06%)</title><rect x="590.8" y="279" width="0.7" height="15.0" fill="rgb(0,0,0)" rx="2" ry="2" />
<text  x="593.77" y="289.5" ></text>
</g>
<g >
<title>firedrake.variational_solver.NonlinearVariationalSolver.__init__ (7,301 us, 0.08%)</title><rect x="374.3" y="71" width="1.0" height="15.0" fill="rgb(0,0,0)" rx="2" ry="2" />
<text  x="377.30" y="81.5" ></text>
</g>
<g >
<title>firedrake.ufl_expr.action (5,256 us, 0.06%)</title><rect x="372.0" y="87" width="0.7" height="15.0" fill="rgb(0,0,0)" rx="2" ry="2" />
<text  x="375.04" y="97.5" ></text>
</g>
<g >
<title>Log_Event_subkernel77_interior_facet_vert_to__exterior_facet_vert_integral_otherwise (17,580 us, 0.20%)</title><rect x="1135.4" y="263" width="2.3" height="15.0" fill="rgb(0,0,0)" rx="2" ry="2" />
<text  x="1138.39" y="273.5" ></text>
</g>
<g >
<title>Log_Event_tensorshell_knl_12 (71,505 us, 0.80%)</title><rect x="552.8" y="231" width="9.5" height="15.0" fill="rgb(0,0,0)" rx="2" ry="2" />
<text  x="555.80" y="241.5" ></text>
</g>
<g >
<title>Log_Event_subkernel125_cell_to__cell_integral_otherwise (3,535 us, 0.04%)</title><rect x="587.4" y="295" width="0.4" height="15.0" fill="rgb(0,0,0)" rx="2" ry="2" />
<text  x="590.35" y="305.5" ></text>
</g>
<g >
<title>Parloop_Cells_wrap_slate_loopy_knl_0 (137,399 us, 1.54%)</title><rect x="550.4" y="183" width="18.2" height="15.0" fill="rgb(0,0,0)" rx="2" ry="2" />
<text  x="553.41" y="193.5" ></text>
</g>
<g >
<title>PCSetUp (21,064 us, 0.24%)</title><rect x="1150.4" y="199" width="2.8" height="15.0" fill="rgb(0,0,0)" rx="2" ry="2" />
<text  x="1153.37" y="209.5" ></text>
</g>
<g >
<title>FunctionSpaceData: CreateElement (10,507 us, 0.12%)</title><rect x="168.9" y="135" width="1.4" height="15.0" fill="rgb(0,0,0)" rx="2" ry="2" />
<text  x="171.88" y="145.5" ></text>
</g>
<g >
<title>pyop2.global_kernel.GlobalKernel.compile (36,393 us, 0.41%)</title><rect x="161.7" y="135" width="4.8" height="15.0" fill="rgb(0,0,0)" rx="2" ry="2" />
<text  x="164.66" y="145.5" ></text>
</g>
<g >
<title>PCSetUp (3,325,803 us, 37.29%)</title><rect x="713.2" y="183" width="440.0" height="15.0" fill="rgb(0,0,0)" rx="2" ry="2" />
<text  x="716.17" y="193.5" >PCSetUp</text>
</g>
<g >
<title>firedrake.functionspace.MixedFunctionSpace (3,726 us, 0.04%)</title><rect x="1174.8" y="151" width="0.5" height="15.0" fill="rgb(0,0,0)" rx="2" ry="2" />
<text  x="1177.77" y="161.5" ></text>
</g>
<g >
<title>Log_Event_subkernel73_cell_to__cell_integral_otherwise (11,862 us, 0.13%)</title><rect x="1133.1" y="263" width="1.6" height="15.0" fill="rgb(0,0,0)" rx="2" ry="2" />
<text  x="1136.10" y="273.5" ></text>
</g>
<g >
<title>Log_Event_slate_loopy_knl_79 (1,073,153 us, 12.03%)</title><rect x="571.2" y="231" width="142.0" height="15.0" fill="rgb(0,0,0)" rx="2" ry="2" />
<text  x="574.20" y="241.5" >Log_Event_slate_..</text>
</g>
<g >
<title>Log_Event_tensorshell_knl_82 (32,110 us, 0.36%)</title><rect x="692.7" y="263" width="4.2" height="15.0" fill="rgb(0,0,0)" rx="2" ry="2" />
<text  x="695.65" y="273.5" ></text>
</g>
<g >
<title>firedrake.parloops.par_loop (41,593 us, 0.47%)</title><rect x="430.3" y="167" width="5.5" height="15.0" fill="rgb(0,0,0)" rx="2" ry="2" />
<text  x="433.32" y="177.5" ></text>
</g>
<g >
<title>CreateFunctionSpace (6,150 us, 0.07%)</title><rect x="166.5" y="103" width="0.8" height="15.0" fill="rgb(0,0,0)" rx="2" ry="2" />
<text  x="169.47" y="113.5" ></text>
</g>
<g >
<title>Log_Event_subkernel126_cell_to__cell_integral_otherwise (9,287 us, 0.10%)</title><rect x="587.8" y="295" width="1.2" height="15.0" fill="rgb(0,0,0)" rx="2" ry="2" />
<text  x="590.82" y="305.5" ></text>
</g>
<g >
<title>pyop2.global_kernel.GlobalKernel.compile (37,036 us, 0.42%)</title><rect x="563.7" y="199" width="4.9" height="15.0" fill="rgb(0,0,0)" rx="2" ry="2" />
<text  x="566.68" y="209.5" ></text>
</g>
<g >
<title>HybridRHS (1,003,518 us, 11.25%)</title><rect x="435.8" y="151" width="132.8" height="15.0" fill="rgb(0,0,0)" rx="2" ry="2" />
<text  x="438.82" y="161.5" >HybridRHS</text>
</g>
<g >
<title>Log_Event_mtf_solve_81 (66,239 us, 0.74%)</title><rect x="692.7" y="247" width="8.7" height="15.0" fill="rgb(0,0,0)" rx="2" ry="2" />
<text  x="695.65" y="257.5" ></text>
</g>
<g >
<title>firedrake.parloops.par_loop (38,081 us, 0.43%)</title><rect x="1184.6" y="135" width="5.1" height="15.0" fill="rgb(0,0,0)" rx="2" ry="2" />
<text  x="1187.63" y="145.5" ></text>
</g>
<g >
<title>firedrake (8,919,605 us, 100.00%)</title><rect x="10.0" y="55" width="1180.0" height="15.0" fill="rgb(0,0,0)" rx="2" ry="2" />
<text  x="13.00" y="65.5" >firedrake</text>
</g>
<g >
<title>firedrake.matrix_free.operators.ImplicitMatrixContext.mult (413,269 us, 4.63%)</title><rect x="375.6" y="135" width="54.7" height="15.0" fill="rgb(0,0,0)" rx="2" ry="2" />
<text  x="378.65" y="145.5" >fired..</text>
</g>
</g>
</svg>
