<?xml version="1.0" standalone="no"?>
<!DOCTYPE svg PUBLIC "-//W3C//DTD SVG 1.1//EN" "http://www.w3.org/Graphics/SVG/1.1/DTD/svg11.dtd">
<svg version="1.1" width="1200" height="347" onload="init(evt)" viewBox="0 0 1200 347" xmlns="http://www.w3.org/2000/svg" xmlns:xlink="http://www.w3.org/1999/xlink">
<!-- Flame graph stack visualization. See https://github.com/brendangregg/FlameGraph for latest version, and http://www.brendangregg.com/flamegraphs.html for examples. -->
<!-- NOTES:  -->
<defs>
	<linearGradient id="background" y1="0" y2="1" x1="0" x2="0" >
		<stop stop-color="#eeeeee" offset="5%" />
		<stop stop-color="#eeeeb0" offset="95%" />
	</linearGradient>
</defs>
<style type="text/css">
	text { font-family:Verdana; font-size:13px; fill:rgb(0,0,0); }
	#search, #ignorecase { opacity:0.1; cursor:pointer; }
	#search:hover, #search.show, #ignorecase:hover, #ignorecase.show { opacity:1; }
	#subtitle { text-anchor:middle; font-color:rgb(160,160,160); }
	#title { text-anchor:middle; font-size:18px}
	#unzoom { cursor:pointer; }
	#frames > *:hover { stroke:black; stroke-width:0.5; cursor:pointer; }
	.hide { display:none; }
	.parent { opacity:0.5; }
</style>
<script type="text/ecmascript">
<![CDATA[
	"use strict";
	var details, searchbtn, unzoombtn, matchedtxt, svg, searching, currentSearchTerm, ignorecase, ignorecaseBtn;
	function init(evt) {
		details = document.getElementById("details").firstChild;
		searchbtn = document.getElementById("search");
		ignorecaseBtn = document.getElementById("ignorecase");
		unzoombtn = document.getElementById("unzoom");
		matchedtxt = document.getElementById("matched");
		svg = document.getElementsByTagName("svg")[0];
		searching = 0;
		currentSearchTerm = null;

		// use GET parameters to restore a flamegraphs state.
		var params = get_params();
		if (params.x && params.y)
			zoom(find_group(document.querySelector('[x="' + params.x + '"][y="' + params.y + '"]')));
                if (params.s) search(params.s);
	}

	// event listeners
	window.addEventListener("click", function(e) {
		var target = find_group(e.target);
		if (target) {
			if (target.nodeName == "a") {
				if (e.ctrlKey === false) return;
				e.preventDefault();
			}
			if (target.classList.contains("parent")) unzoom();
			zoom(target);
			if (!document.querySelector('.parent')) {
				clearzoom();
				return;
			}

			// set parameters for zoom state
			var el = target.querySelector("rect");
			if (el && el.attributes && el.attributes.y && el.attributes._orig_x) {
				var params = get_params()
				params.x = el.attributes._orig_x.value;
				params.y = el.attributes.y.value;
				history.replaceState(null, null, parse_params(params));
			}
		}
		else if (e.target.id == "unzoom") clearzoom();
		else if (e.target.id == "search") search_prompt();
		else if (e.target.id == "ignorecase") toggle_ignorecase();
	}, false)

	// mouse-over for info
	// show
	window.addEventListener("mouseover", function(e) {
		var target = find_group(e.target);
		if (target) details.nodeValue = "Function: " + g_to_text(target);
	}, false)

	// clear
	window.addEventListener("mouseout", function(e) {
		var target = find_group(e.target);
		if (target) details.nodeValue = ' ';
	}, false)

	// ctrl-F for search
	// ctrl-I to toggle case-sensitive search
	window.addEventListener("keydown",function (e) {
		if (e.keyCode === 114 || (e.ctrlKey && e.keyCode === 70)) {
			e.preventDefault();
			search_prompt();
		}
		else if (e.ctrlKey && e.keyCode === 73) {
			e.preventDefault();
			toggle_ignorecase();
		}
	}, false)

	// functions
	function get_params() {
		var params = {};
		var paramsarr = window.location.search.substr(1).split('&');
		for (var i = 0; i < paramsarr.length; ++i) {
			var tmp = paramsarr[i].split("=");
			if (!tmp[0] || !tmp[1]) continue;
			params[tmp[0]]  = decodeURIComponent(tmp[1]);
		}
		return params;
	}
	function parse_params(params) {
		var uri = "?";
		for (var key in params) {
			uri += key + '=' + encodeURIComponent(params[key]) + '&';
		}
		if (uri.slice(-1) == "&")
			uri = uri.substring(0, uri.length - 1);
		if (uri == '?')
			uri = window.location.href.split('?')[0];
		return uri;
	}
	function find_child(node, selector) {
		var children = node.querySelectorAll(selector);
		if (children.length) return children[0];
	}
	function find_group(node) {
		var parent = node.parentElement;
		if (!parent) return;
		if (parent.id == "frames") return node;
		return find_group(parent);
	}
	function orig_save(e, attr, val) {
		if (e.attributes["_orig_" + attr] != undefined) return;
		if (e.attributes[attr] == undefined) return;
		if (val == undefined) val = e.attributes[attr].value;
		e.setAttribute("_orig_" + attr, val);
	}
	function orig_load(e, attr) {
		if (e.attributes["_orig_"+attr] == undefined) return;
		e.attributes[attr].value = e.attributes["_orig_" + attr].value;
		e.removeAttribute("_orig_"+attr);
	}
	function g_to_text(e) {
		var text = find_child(e, "title").firstChild.nodeValue;
		return (text)
	}
	function g_to_func(e) {
		var func = g_to_text(e);
		// if there's any manipulation we want to do to the function
		// name before it's searched, do it here before returning.
		return (func);
	}
	function update_text(e) {
		var r = find_child(e, "rect");
		var t = find_child(e, "text");
		var w = parseFloat(r.attributes.width.value) -3;
		var txt = find_child(e, "title").textContent.replace(/\([^(]*\)$/,"");
		t.attributes.x.value = parseFloat(r.attributes.x.value) + 3;

		// Smaller than this size won't fit anything
		if (w < 2 * 13 * 0.59) {
			t.textContent = "";
			return;
		}

		t.textContent = txt;
		// Fit in full text width
		if (/^ *$/.test(txt) || t.getSubStringLength(0, txt.length) < w)
			return;

		for (var x = txt.length - 2; x > 0; x--) {
			if (t.getSubStringLength(0, x + 2) <= w) {
				t.textContent = txt.substring(0, x) + "..";
				return;
			}
		}
		t.textContent = "";
	}

	// zoom
	function zoom_reset(e) {
		if (e.attributes != undefined) {
			orig_load(e, "x");
			orig_load(e, "width");
		}
		if (e.childNodes == undefined) return;
		for (var i = 0, c = e.childNodes; i < c.length; i++) {
			zoom_reset(c[i]);
		}
	}
	function zoom_child(e, x, ratio) {
		if (e.attributes != undefined) {
			if (e.attributes.x != undefined) {
				orig_save(e, "x");
				e.attributes.x.value = (parseFloat(e.attributes.x.value) - x - 10) * ratio + 10;
				if (e.tagName == "text")
					e.attributes.x.value = find_child(e.parentNode, "rect[x]").attributes.x.value + 3;
			}
			if (e.attributes.width != undefined) {
				orig_save(e, "width");
				e.attributes.width.value = parseFloat(e.attributes.width.value) * ratio;
			}
		}

		if (e.childNodes == undefined) return;
		for (var i = 0, c = e.childNodes; i < c.length; i++) {
			zoom_child(c[i], x - 10, ratio);
		}
	}
	function zoom_parent(e) {
		if (e.attributes) {
			if (e.attributes.x != undefined) {
				orig_save(e, "x");
				e.attributes.x.value = 10;
			}
			if (e.attributes.width != undefined) {
				orig_save(e, "width");
				e.attributes.width.value = parseInt(svg.width.baseVal.value) - (10 * 2);
			}
		}
		if (e.childNodes == undefined) return;
		for (var i = 0, c = e.childNodes; i < c.length; i++) {
			zoom_parent(c[i]);
		}
	}
	function zoom(node) {
		var attr = find_child(node, "rect").attributes;
		var width = parseFloat(attr.width.value);
		var xmin = parseFloat(attr.x.value);
		var xmax = parseFloat(xmin + width);
		var ymin = parseFloat(attr.y.value);
		var ratio = (svg.width.baseVal.value - 2 * 10) / width;

		// XXX: Workaround for JavaScript float issues (fix me)
		var fudge = 0.0001;

		unzoombtn.classList.remove("hide");

		var el = document.getElementById("frames").children;
		for (var i = 0; i < el.length; i++) {
			var e = el[i];
			var a = find_child(e, "rect").attributes;
			var ex = parseFloat(a.x.value);
			var ew = parseFloat(a.width.value);
			var upstack;
			// Is it an ancestor
			if (1 == 0) {
				upstack = parseFloat(a.y.value) > ymin;
			} else {
				upstack = parseFloat(a.y.value) < ymin;
			}
			if (upstack) {
				// Direct ancestor
				if (ex <= xmin && (ex+ew+fudge) >= xmax) {
					e.classList.add("parent");
					zoom_parent(e);
					update_text(e);
				}
				// not in current path
				else
					e.classList.add("hide");
			}
			// Children maybe
			else {
				// no common path
				if (ex < xmin || ex + fudge >= xmax) {
					e.classList.add("hide");
				}
				else {
					zoom_child(e, xmin, ratio);
					update_text(e);
				}
			}
		}
		search();
	}
	function unzoom() {
		unzoombtn.classList.add("hide");
		var el = document.getElementById("frames").children;
		for(var i = 0; i < el.length; i++) {
			el[i].classList.remove("parent");
			el[i].classList.remove("hide");
			zoom_reset(el[i]);
			update_text(el[i]);
		}
		search();
	}
	function clearzoom() {
		unzoom();

		// remove zoom state
		var params = get_params();
		if (params.x) delete params.x;
		if (params.y) delete params.y;
		history.replaceState(null, null, parse_params(params));
	}

	// search
	function toggle_ignorecase() {
		ignorecase = !ignorecase;
		if (ignorecase) {
			ignorecaseBtn.classList.add("show");
		} else {
			ignorecaseBtn.classList.remove("show");
		}
		reset_search();
		search();
	}
	function reset_search() {
		var el = document.querySelectorAll("#frames rect");
		for (var i = 0; i < el.length; i++) {
			orig_load(el[i], "fill")
		}
		var params = get_params();
		delete params.s;
		history.replaceState(null, null, parse_params(params));
	}
	function search_prompt() {
		if (!searching) {
			var term = prompt("Enter a search term (regexp " +
			    "allowed, eg: ^ext4_)"
			    + (ignorecase ? ", ignoring case" : "")
			    + "\nPress Ctrl-i to toggle case sensitivity", "");
			if (term != null) search(term);
		} else {
			reset_search();
			searching = 0;
			currentSearchTerm = null;
			searchbtn.classList.remove("show");
			searchbtn.firstChild.nodeValue = "Search"
			matchedtxt.classList.add("hide");
			matchedtxt.firstChild.nodeValue = ""
		}
	}
	function search(term) {
		if (term) currentSearchTerm = term;

		var re = new RegExp(currentSearchTerm, ignorecase ? 'i' : '');
		var el = document.getElementById("frames").children;
		var matches = new Object();
		var maxwidth = 0;
		for (var i = 0; i < el.length; i++) {
			var e = el[i];
			var func = g_to_func(e);
			var rect = find_child(e, "rect");
			if (func == null || rect == null)
				continue;

			// Save max width. Only works as we have a root frame
			var w = parseFloat(rect.attributes.width.value);
			if (w > maxwidth)
				maxwidth = w;

			if (func.match(re)) {
				// highlight
				var x = parseFloat(rect.attributes.x.value);
				orig_save(rect, "fill");
				rect.attributes.fill.value = "rgb(230,0,230)";

				// remember matches
				if (matches[x] == undefined) {
					matches[x] = w;
				} else {
					if (w > matches[x]) {
						// overwrite with parent
						matches[x] = w;
					}
				}
				searching = 1;
			}
		}
		if (!searching)
			return;
		var params = get_params();
		params.s = currentSearchTerm;
		history.replaceState(null, null, parse_params(params));

		searchbtn.classList.add("show");
		searchbtn.firstChild.nodeValue = "Reset Search";

		// calculate percent matched, excluding vertical overlap
		var count = 0;
		var lastx = -1;
		var lastw = 0;
		var keys = Array();
		for (k in matches) {
			if (matches.hasOwnProperty(k))
				keys.push(k);
		}
		// sort the matched frames by their x location
		// ascending, then width descending
		keys.sort(function(a, b){
			return a - b;
		});
		// Step through frames saving only the biggest bottom-up frames
		// thanks to the sort order. This relies on the tree property
		// where children are always smaller than their parents.
		var fudge = 0.0001;	// JavaScript floating point
		for (var k in keys) {
			var x = parseFloat(keys[k]);
			var w = matches[keys[k]];
			if (x >= lastx + lastw - fudge) {
				count += w;
				lastx = x;
				lastw = w;
			}
		}
		// display matched percent
		matchedtxt.classList.remove("hide");
		var pct = 100 * count / maxwidth;
		if (pct != 100) pct = pct.toFixed(1)
		matchedtxt.firstChild.nodeValue = "Matched: " + pct + "%";
	}
]]>
</script>
<rect x="0.0" y="0" width="1200.0" height="347.0" fill="url(#background)"  />
<text id="title" x="600.00" y="26" >Firedrake example</text>
<text id="details" x="10.00" y="329" > </text>
<text id="unzoom" x="10.00" y="26" class="hide">Reset Zoom</text>
<text id="search" x="1090.00" y="26" >Search</text>
<text id="ignorecase" x="1174.00" y="26" >ic</text>
<text id="matched" x="1090.00" y="329" > </text>
<g id="frames">
<g >
<title>Log_Event_subkernel108_cell_to__cell_integral_otherwise (9,471 us, 0.09%)</title><rect x="508.3" y="263" width="1.1" height="15.0" fill="rgb(0,0,0)" rx="2" ry="2" />
<text  x="511.29" y="273.5" ></text>
</g>
<g >
<title>pyop2.global_kernel.GlobalKernel.compile (32,257 us, 0.31%)</title><rect x="1186.3" y="183" width="3.7" height="15.0" fill="rgb(0,0,0)" rx="2" ry="2" />
<text  x="1189.34" y="193.5" ></text>
</g>
<g >
<title>firedrake.assemble.allocate_matrix (58,772 us, 0.57%)</title><rect x="1150.7" y="231" width="6.6" height="15.0" fill="rgb(0,0,0)" rx="2" ry="2" />
<text  x="1153.67" y="241.5" ></text>
</g>
<g >
<title>ParLoopExecute (36,505 us, 0.35%)</title><rect x="363.8" y="183" width="4.1" height="15.0" fill="rgb(0,0,0)" rx="2" ry="2" />
<text  x="366.79" y="193.5" ></text>
</g>
<g >
<title>firedrake.parloops.par_loop (37,293 us, 0.36%)</title><rect x="1185.8" y="135" width="4.2" height="15.0" fill="rgb(0,0,0)" rx="2" ry="2" />
<text  x="1188.77" y="145.5" ></text>
</g>
<g >
<title>firedrake.matrix_free.operators.ImplicitMatrixContext.mult (2,511,275 us, 24.15%)</title><rect x="486.3" y="183" width="285.0" height="15.0" fill="rgb(0,0,0)" rx="2" ry="2" />
<text  x="489.35" y="193.5" >firedrake.matrix_free.operators.Imp..</text>
</g>
<g >
<title>Log_Event_subkernel133_cell_to__cell_integral_otherwise (235,326 us, 2.26%)</title><rect x="530.3" y="295" width="26.7" height="15.0" fill="rgb(0,0,0)" rx="2" ry="2" />
<text  x="533.28" y="305.5" >L..</text>
</g>
<g >
<title>Log_Event_tensorshell_knl_49 (3,532 us, 0.03%)</title><rect x="480.9" y="231" width="0.4" height="15.0" fill="rgb(0,0,0)" rx="2" ry="2" />
<text  x="483.94" y="241.5" ></text>
</g>
<g >
<title>Log_Event_mtf_solve_142 (39,660 us, 0.38%)</title><rect x="733.6" y="247" width="4.5" height="15.0" fill="rgb(0,0,0)" rx="2" ry="2" />
<text  x="736.64" y="257.5" ></text>
</g>
<g >
<title>FunctionSpaceData: CreateElement (11,135 us, 0.11%)</title><rect x="145.6" y="135" width="1.2" height="15.0" fill="rgb(0,0,0)" rx="2" ry="2" />
<text  x="148.58" y="145.5" ></text>
</g>
<g >
<title>CreateFunctionSpace (12,547 us, 0.12%)</title><rect x="1178.8" y="135" width="1.4" height="15.0" fill="rgb(0,0,0)" rx="2" ry="2" />
<text  x="1181.75" y="145.5" ></text>
</g>
<g >
<title>firedrake.tsfc_interface.compile_form (16,779 us, 0.16%)</title><rect x="1174.4" y="167" width="1.9" height="15.0" fill="rgb(0,0,0)" rx="2" ry="2" />
<text  x="1177.43" y="177.5" ></text>
</g>
<g >
<title>firedrake.matrix_free.operators.ImplicitMatrixContext.mult (957,001 us, 9.20%)</title><rect x="771.3" y="247" width="108.6" height="15.0" fill="rgb(0,0,0)" rx="2" ry="2" />
<text  x="774.30" y="257.5" >firedrake.ma..</text>
</g>
<g >
<title>PCApply (7,166,578 us, 68.91%)</title><rect x="363.1" y="119" width="813.2" height="15.0" fill="rgb(0,0,0)" rx="2" ry="2" />
<text  x="366.15" y="129.5" >PCApply</text>
</g>
<g >
<title>ParLoopExecute (73,207 us, 0.70%)</title><rect x="321.1" y="151" width="8.3" height="15.0" fill="rgb(0,0,0)" rx="2" ry="2" />
<text  x="324.11" y="161.5" ></text>
</g>
<g >
<title>Log_Event_subkernel77_interior_facet_vert_to__exterior_facet_vert_integral_otherwise (18,588 us, 0.18%)</title><rect x="1144.4" y="263" width="2.1" height="15.0" fill="rgb(0,0,0)" rx="2" ry="2" />
<text  x="1147.44" y="273.5" ></text>
</g>
<g >
<title>Log_Event_tensorshell_knl_12 (95,334 us, 0.92%)</title><rect x="469.2" y="231" width="10.9" height="15.0" fill="rgb(0,0,0)" rx="2" ry="2" />
<text  x="472.24" y="241.5" ></text>
</g>
<g >
<title>Log_Event_subkernel118_cell_to__cell_integral_otherwise (10,938 us, 0.11%)</title><rect x="762.1" y="247" width="1.2" height="15.0" fill="rgb(0,0,0)" rx="2" ry="2" />
<text  x="765.09" y="257.5" ></text>
</g>
<g >
<title>firedrake.tsfc_interface.compile_form (297,301 us, 2.86%)</title><rect x="329.4" y="151" width="33.7" height="15.0" fill="rgb(0,0,0)" rx="2" ry="2" />
<text  x="332.41" y="161.5" >fi..</text>
</g>
<g >
<title>CreateFunctionSpace (7,962 us, 0.08%)</title><rect x="1180.6" y="183" width="0.9" height="15.0" fill="rgb(0,0,0)" rx="2" ry="2" />
<text  x="1183.58" y="193.5" ></text>
</g>
<g >
<title>CreateExtMesh (74,227 us, 0.71%)</title><rect x="135.7" y="71" width="8.4" height="15.0" fill="rgb(0,0,0)" rx="2" ry="2" />
<text  x="138.72" y="81.5" ></text>
</g>
<g >
<title>firedrake.functionspaceimpl.FunctionSpace.__init__ (4,268 us, 0.04%)</title><rect x="1181.0" y="199" width="0.5" height="15.0" fill="rgb(0,0,0)" rx="2" ry="2" />
<text  x="1184.00" y="209.5" ></text>
</g>
<g >
<title>Log_Event_tensorshell_knl_120 (74,169 us, 0.71%)</title><rect x="514.5" y="263" width="8.4" height="15.0" fill="rgb(0,0,0)" rx="2" ry="2" />
<text  x="517.52" y="273.5" ></text>
</g>
<g >
<title>firedrake.functionspaceimpl.FunctionSpace.__init__ (6,207 us, 0.06%)</title><rect x="143.4" y="119" width="0.7" height="15.0" fill="rgb(0,0,0)" rx="2" ry="2" />
<text  x="146.44" y="129.5" ></text>
</g>
<g >
<title>Log_Event_subkernel73_cell_to__cell_integral_otherwise (11,910 us, 0.11%)</title><rect x="1142.4" y="263" width="1.4" height="15.0" fill="rgb(0,0,0)" rx="2" ry="2" />
<text  x="1145.43" y="273.5" ></text>
</g>
<g >
<title>ParLoopExecute (2,490,614 us, 23.95%)</title><rect x="488.7" y="199" width="282.6" height="15.0" fill="rgb(0,0,0)" rx="2" ry="2" />
<text  x="491.69" y="209.5" >ParLoopExecute</text>
</g>
<g >
<title>Log_Event_subkernel125_cell_to__cell_integral_otherwise (6,765 us, 0.07%)</title><rect x="516.1" y="295" width="0.8" height="15.0" fill="rgb(0,0,0)" rx="2" ry="2" />
<text  x="519.10" y="305.5" ></text>
</g>
<g >
<title>pyop2.global_kernel.GlobalKernel.compile (37,891 us, 0.36%)</title><rect x="139.1" y="135" width="4.3" height="15.0" fill="rgb(0,0,0)" rx="2" ry="2" />
<text  x="142.14" y="145.5" ></text>
</g>
<g >
<title>firedrake.functionspacedata.get_shared_data (8,802 us, 0.08%)</title><rect x="1179.2" y="167" width="1.0" height="15.0" fill="rgb(0,0,0)" rx="2" ry="2" />
<text  x="1182.18" y="177.5" ></text>
</g>
<g >
<title>ParLoopExecute (2,224,189 us, 21.39%)</title><rect x="898.3" y="231" width="252.4" height="15.0" fill="rgb(0,0,0)" rx="2" ry="2" />
<text  x="901.29" y="241.5" >ParLoopExecute</text>
</g>
<g >
<title>Log_Event_subkernel135_cell_to__cell_integral_otherwise (164,348 us, 1.58%)</title><rect x="557.0" y="295" width="18.6" height="15.0" fill="rgb(0,0,0)" rx="2" ry="2" />
<text  x="559.98" y="305.5" ></text>
</g>
<g >
<title>ParLoopExecute (32,257 us, 0.31%)</title><rect x="1186.3" y="151" width="3.7" height="15.0" fill="rgb(0,0,0)" rx="2" ry="2" />
<text  x="1189.34" y="161.5" ></text>
</g>
<g >
<title>Log_Event_subkernel18_cell_to__cell_integral_otherwise (22,993 us, 0.22%)</title><rect x="472.2" y="263" width="2.6" height="15.0" fill="rgb(0,0,0)" rx="2" ry="2" />
<text  x="475.20" y="273.5" ></text>
</g>
<g >
<title>firedrake.variational_solver.NonlinearVariationalProblem.__init__ (11,825 us, 0.11%)</title><rect x="318.4" y="87" width="1.4" height="15.0" fill="rgb(0,0,0)" rx="2" ry="2" />
<text  x="321.41" y="97.5" ></text>
</g>
<g >
<title>Parloop_Cells_wrap_slate_loopy_knl_79 (2,490,614 us, 23.95%)</title><rect x="488.7" y="215" width="282.6" height="15.0" fill="rgb(0,0,0)" rx="2" ry="2" />
<text  x="491.69" y="225.5" >Parloop_Cells_wrap_slate_loopy_knl..</text>
</g>
<g >
<title>ParLoopExecute (37,891 us, 0.36%)</title><rect x="139.1" y="103" width="4.3" height="15.0" fill="rgb(0,0,0)" rx="2" ry="2" />
<text  x="142.14" y="113.5" ></text>
</g>
<g >
<title>MatMult (374,758 us, 3.60%)</title><rect x="320.6" y="119" width="42.5" height="15.0" fill="rgb(0,0,0)" rx="2" ry="2" />
<text  x="323.63" y="129.5" >Mat..</text>
</g>
<g >
<title>Log_Event_subkernel131_cell_to__cell_integral_otherwise (628,498 us, 6.04%)</title><rect x="632.5" y="279" width="71.3" height="15.0" fill="rgb(0,0,0)" rx="2" ry="2" />
<text  x="635.52" y="289.5" >Log_Eve..</text>
</g>
<g >
<title>Parloop_Cells_wrap_form00_cell_integral_otherwise (36,983 us, 0.36%)</title><rect x="1164.6" y="183" width="4.2" height="15.0" fill="rgb(0,0,0)" rx="2" ry="2" />
<text  x="1167.63" y="193.5" ></text>
</g>
<g >
<title>Log_Event_mtf_solve_38 (7,158 us, 0.07%)</title><rect x="480.5" y="215" width="0.8" height="15.0" fill="rgb(0,0,0)" rx="2" ry="2" />
<text  x="483.53" y="225.5" ></text>
</g>
<g >
<title>Log_Event_subkernel111_interior_facet_vert_to__exterior_facet_vert_integral_otherwise (40,546 us, 0.39%)</title><rect x="757.5" y="247" width="4.6" height="15.0" fill="rgb(0,0,0)" rx="2" ry="2" />
<text  x="760.49" y="257.5" ></text>
</g>
<g >
<title>firedrake.ufl_expr.adjoint (11,825 us, 0.11%)</title><rect x="318.4" y="103" width="1.4" height="15.0" fill="rgb(0,0,0)" rx="2" ry="2" />
<text  x="321.41" y="113.5" ></text>
</g>
<g >
<title>firedrake.functionspace.VectorFunctionSpace (6,207 us, 0.06%)</title><rect x="143.4" y="87" width="0.7" height="15.0" fill="rgb(0,0,0)" rx="2" ry="2" />
<text  x="146.44" y="97.5" ></text>
</g>
<g >
<title>KSPSolve (957,001 us, 9.20%)</title><rect x="771.3" y="215" width="108.6" height="15.0" fill="rgb(0,0,0)" rx="2" ry="2" />
<text  x="774.30" y="225.5" >KSPSolve</text>
</g>
<g >
<title>firedrake.formmanipulation.ExtractSubBlock.split (11,515 us, 0.11%)</title><rect x="1180.2" y="151" width="1.3" height="15.0" fill="rgb(0,0,0)" rx="2" ry="2" />
<text  x="1183.18" y="161.5" ></text>
</g>
<g >
<title>firedrake.functionspaceimpl.FunctionSpace.__init__ (23,786 us, 0.23%)</title><rect x="144.1" y="87" width="2.7" height="15.0" fill="rgb(0,0,0)" rx="2" ry="2" />
<text  x="147.14" y="97.5" ></text>
</g>
<g >
<title>Parloop_Cells_wrap_form0_cell_integral_otherwise (39,979 us, 0.38%)</title><rect x="321.1" y="167" width="4.5" height="15.0" fill="rgb(0,0,0)" rx="2" ry="2" />
<text  x="324.11" y="177.5" ></text>
</g>
<g >
<title>Log_Event_tensorshell_knl_39 (3,626 us, 0.03%)</title><rect x="480.5" y="231" width="0.4" height="15.0" fill="rgb(0,0,0)" rx="2" ry="2" />
<text  x="483.53" y="241.5" ></text>
</g>
<g >
<title>PCApply (3,423,613 us, 32.92%)</title><rect x="771.3" y="167" width="388.5" height="15.0" fill="rgb(0,0,0)" rx="2" ry="2" />
<text  x="774.30" y="177.5" >PCApply</text>
</g>
<g >
<title>firedrake.ufl_expr.action (4,180 us, 0.04%)</title><rect x="320.2" y="119" width="0.4" height="15.0" fill="rgb(0,0,0)" rx="2" ry="2" />
<text  x="323.15" y="129.5" ></text>
</g>
<g >
<title>all (10,399,270 us, 100%)</title><rect x="10.0" y="39" width="1180.0" height="15.0" fill="rgb(0,0,0)" rx="2" ry="2" />
<text  x="13.00" y="49.5" ></text>
</g>
<g >
<title>Log_Event_subkernel17_cell_to__cell_integral_otherwise (8,496 us, 0.08%)</title><rect x="471.2" y="263" width="1.0" height="15.0" fill="rgb(0,0,0)" rx="2" ry="2" />
<text  x="474.23" y="273.5" ></text>
</g>
<g >
<title>Log_Event_subkernel113_cell_to__cell_integral_otherwise (9,371 us, 0.09%)</title><rect x="509.9" y="263" width="1.1" height="15.0" fill="rgb(0,0,0)" rx="2" ry="2" />
<text  x="512.90" y="273.5" ></text>
</g>
<g >
<title>Log_Event_subkernel116_cell_to__cell_integral_otherwise (18,362 us, 0.18%)</title><rect x="511.7" y="263" width="2.1" height="15.0" fill="rgb(0,0,0)" rx="2" ry="2" />
<text  x="514.72" y="273.5" ></text>
</g>
<g >
<title>firedrake.variational_solver.LinearVariationalProblem.__init__ (16,945 us, 0.16%)</title><rect x="317.8" y="71" width="2.0" height="15.0" fill="rgb(0,0,0)" rx="2" ry="2" />
<text  x="320.83" y="81.5" ></text>
</g>
<g >
<title>pyop2.global_kernel.GlobalKernel.compile (36,983 us, 0.36%)</title><rect x="1164.6" y="199" width="4.2" height="15.0" fill="rgb(0,0,0)" rx="2" ry="2" />
<text  x="1167.63" y="209.5" ></text>
</g>
<g >
<title>firedrake.formmanipulation.split_form (11,515 us, 0.11%)</title><rect x="1180.2" y="135" width="1.3" height="15.0" fill="rgb(0,0,0)" rx="2" ry="2" />
<text  x="1183.18" y="145.5" ></text>
</g>
<g >
<title>Log_Event_subkernel138_cell_to__cell_integral_otherwise (262,737 us, 2.53%)</title><rect x="703.8" y="279" width="29.8" height="15.0" fill="rgb(0,0,0)" rx="2" ry="2" />
<text  x="706.83" y="289.5" >L..</text>
</g>
<g >
<title>Log_Event_subkernel13_cell_to__cell_integral_otherwise (32,623 us, 0.31%)</title><rect x="474.8" y="247" width="3.7" height="15.0" fill="rgb(0,0,0)" rx="2" ry="2" />
<text  x="477.81" y="257.5" ></text>
</g>
<g >
<title>Parloop_Cells_wrap_wrap_slate_loopy_knl_70 (2,224,189 us, 21.39%)</title><rect x="898.3" y="247" width="252.4" height="15.0" fill="rgb(0,0,0)" rx="2" ry="2" />
<text  x="901.29" y="257.5" >Parloop_Cells_wrap_wrap_slate_..</text>
</g>
<g >
<title>Parloop_Cells_wrap_par_loop_kernel (36,505 us, 0.35%)</title><rect x="363.8" y="199" width="4.1" height="15.0" fill="rgb(0,0,0)" rx="2" ry="2" />
<text  x="366.79" y="209.5" ></text>
</g>
<g >
<title>pyop2.global_kernel.GlobalKernel.compile (44,106 us, 0.42%)</title><rect x="481.3" y="199" width="5.0" height="15.0" fill="rgb(0,0,0)" rx="2" ry="2" />
<text  x="484.34" y="209.5" ></text>
</g>
<g >
<title>firedrake (10,399,270 us, 100.00%)</title><rect x="10.0" y="55" width="1180.0" height="15.0" fill="rgb(0,0,0)" rx="2" ry="2" />
<text  x="13.00" y="65.5" >firedrake</text>
</g>
<g >
<title>pyop2.global_kernel.GlobalKernel.compile (39,979 us, 0.38%)</title><rect x="321.1" y="183" width="4.5" height="15.0" fill="rgb(0,0,0)" rx="2" ry="2" />
<text  x="324.11" y="193.5" ></text>
</g>
<g >
<title>SCSolve (6,080,829 us, 58.47%)</title><rect x="486.3" y="135" width="690.0" height="15.0" fill="rgb(0,0,0)" rx="2" ry="2" />
<text  x="489.35" y="145.5" >SCSolve</text>
</g>
<g >
<title>firedrake.functionspacedata.get_shared_data (6,207 us, 0.06%)</title><rect x="143.4" y="135" width="0.7" height="15.0" fill="rgb(0,0,0)" rx="2" ry="2" />
<text  x="146.44" y="145.5" ></text>
</g>
<g >
<title>Log_Event_subkernel107_cell_to__cell_integral_otherwise (6,637 us, 0.06%)</title><rect x="507.5" y="263" width="0.8" height="15.0" fill="rgb(0,0,0)" rx="2" ry="2" />
<text  x="510.54" y="273.5" ></text>
</g>
<g >
<title>firedrake.__init__ (1,506,915 us, 14.49%)</title><rect x="146.8" y="71" width="171.0" height="15.0" fill="rgb(0,0,0)" rx="2" ry="2" />
<text  x="149.84" y="81.5" >firedrake.__init__</text>
</g>
<g >
<title>Log_Event_subkernel98_cell_to__cell_integral_otherwise (9,018 us, 0.09%)</title><rect x="747.0" y="295" width="1.0" height="15.0" fill="rgb(0,0,0)" rx="2" ry="2" />
<text  x="749.96" y="305.5" ></text>
</g>
<g >
<title>Log_Event_subkernel136_cell_to__cell_integral_otherwise (448,394 us, 4.31%)</title><rect x="575.6" y="295" width="50.9" height="15.0" fill="rgb(0,0,0)" rx="2" ry="2" />
<text  x="578.63" y="305.5" >Log_..</text>
</g>
<g >
<title>Log_Event_subkernel100_cell_to__cell_integral_otherwise (10,944 us, 0.11%)</title><rect x="748.0" y="279" width="1.2" height="15.0" fill="rgb(0,0,0)" rx="2" ry="2" />
<text  x="750.98" y="289.5" ></text>
</g>
<g >
<title>Log_Event_mtf_solve_104 (25,623 us, 0.25%)</title><rect x="506.5" y="247" width="2.9" height="15.0" fill="rgb(0,0,0)" rx="2" ry="2" />
<text  x="509.46" y="257.5" ></text>
</g>
<g >
<title>Parloop_Cells_wrap_slate_loopy_knl_0 (170,045 us, 1.64%)</title><rect x="467.1" y="183" width="19.2" height="15.0" fill="rgb(0,0,0)" rx="2" ry="2" />
<text  x="470.05" y="193.5" ></text>
</g>
<g >
<title>MatZeroInitial (15,856 us, 0.15%)</title><rect x="1155.5" y="247" width="1.8" height="15.0" fill="rgb(0,0,0)" rx="2" ry="2" />
<text  x="1158.54" y="257.5" ></text>
</g>
<g >
<title>firedrake.matrix_free.operators.ImplicitMatrixContext.mult (374,758 us, 3.60%)</title><rect x="320.6" y="135" width="42.5" height="15.0" fill="rgb(0,0,0)" rx="2" ry="2" />
<text  x="323.63" y="145.5" >fir..</text>
</g>
<g >
<title>Log_Event_subkernel90_cell_to__cell_integral_otherwise (10,948 us, 0.11%)</title><rect x="743.9" y="279" width="1.2" height="15.0" fill="rgb(0,0,0)" rx="2" ry="2" />
<text  x="746.88" y="289.5" ></text>
</g>
<g >
<title>Log_Event_slate_loopy_knl_70 (2,079,140 us, 19.99%)</title><rect x="901.9" y="263" width="235.9" height="15.0" fill="rgb(0,0,0)" rx="2" ry="2" />
<text  x="904.86" y="273.5" >Log_Event_slate_loopy_knl_70</text>
</g>
<g >
<title>Log_Event_subkernel105_cell_to__cell_integral_otherwise (9,515 us, 0.09%)</title><rect x="506.5" y="263" width="1.0" height="15.0" fill="rgb(0,0,0)" rx="2" ry="2" />
<text  x="509.46" y="273.5" ></text>
</g>
<g >
<title>Log_Event_subkernel88_cell_to__cell_integral_otherwise (9,056 us, 0.09%)</title><rect x="740.0" y="295" width="1.1" height="15.0" fill="rgb(0,0,0)" rx="2" ry="2" />
<text  x="743.02" y="305.5" ></text>
</g>
<g >
<title>Log_Event_subkernel146_cell_to__cell_integral_otherwise (18,413 us, 0.18%)</title><rect x="736.1" y="263" width="2.0" height="15.0" fill="rgb(0,0,0)" rx="2" ry="2" />
<text  x="739.05" y="273.5" ></text>
</g>
<g >
<title>PCSetUp (120,408 us, 1.16%)</title><rect x="1176.3" y="103" width="13.7" height="15.0" fill="rgb(0,0,0)" rx="2" ry="2" />
<text  x="1179.34" y="113.5" ></text>
</g>
<g >
<title>PCSetUp (21,508 us, 0.21%)</title><rect x="1157.3" y="199" width="2.5" height="15.0" fill="rgb(0,0,0)" rx="2" ry="2" />
<text  x="1160.34" y="209.5" ></text>
</g>
<g >
<title>firedrake.functionspacedata.get_shared_data (23,786 us, 0.23%)</title><rect x="144.1" y="103" width="2.7" height="15.0" fill="rgb(0,0,0)" rx="2" ry="2" />
<text  x="147.14" y="113.5" ></text>
</g>
<g >
<title>inv_getrf (33,553 us, 0.32%)</title><rect x="1119.4" y="279" width="3.9" height="15.0" fill="rgb(0,0,0)" rx="2" ry="2" />
<text  x="1122.44" y="289.5" ></text>
</g>
<g >
<title>Parloop_Cells_wrap_pyop2_kernel_uniform_extrusion (37,891 us, 0.36%)</title><rect x="139.1" y="119" width="4.3" height="15.0" fill="rgb(0,0,0)" rx="2" ry="2" />
<text  x="142.14" y="129.5" ></text>
</g>
<g >
<title>inv_getri (128,008 us, 1.23%)</title><rect x="1123.3" y="279" width="14.5" height="15.0" fill="rgb(0,0,0)" rx="2" ry="2" />
<text  x="1126.25" y="289.5" ></text>
</g>
<g >
<title>Log_Event_tensorshell_knl_92 (61,106 us, 0.59%)</title><rect x="745.1" y="263" width="7.0" height="15.0" fill="rgb(0,0,0)" rx="2" ry="2" />
<text  x="748.12" y="273.5" ></text>
</g>
<g >
<title>Log_Event_subkernel128_cell_to__cell_integral_otherwise (10,862 us, 0.10%)</title><rect x="521.7" y="279" width="1.2" height="15.0" fill="rgb(0,0,0)" rx="2" ry="2" />
<text  x="524.70" y="289.5" ></text>
</g>
<g >
<title>pyop2.global_kernel.GlobalKernel.compile (36,316 us, 0.35%)</title><rect x="1146.5" y="263" width="4.2" height="15.0" fill="rgb(0,0,0)" rx="2" ry="2" />
<text  x="1149.55" y="273.5" ></text>
</g>
<g >
<title>firedrake.interpolation.make_interpolator (37,768 us, 0.36%)</title><rect x="1181.5" y="135" width="4.3" height="15.0" fill="rgb(0,0,0)" rx="2" ry="2" />
<text  x="1184.48" y="145.5" ></text>
</g>
<g >
<title>KSPSolve (7,541,336 us, 72.52%)</title><rect x="320.6" y="103" width="855.7" height="15.0" fill="rgb(0,0,0)" rx="2" ry="2" />
<text  x="323.63" y="113.5" >KSPSolve</text>
</g>
<g >
<title>CreateFunctionSpace (23,786 us, 0.23%)</title><rect x="144.1" y="71" width="2.7" height="15.0" fill="rgb(0,0,0)" rx="2" ry="2" />
<text  x="147.14" y="81.5" ></text>
</g>
<g >
<title>Log_Event_subkernel143_cell_to__cell_integral_otherwise (9,419 us, 0.09%)</title><rect x="734.2" y="263" width="1.1" height="15.0" fill="rgb(0,0,0)" rx="2" ry="2" />
<text  x="737.22" y="273.5" ></text>
</g>
<g >
<title>Log_Event_subkernel72_cell_to__cell_integral_otherwise (20,697 us, 0.20%)</title><rect x="1140.1" y="263" width="2.3" height="15.0" fill="rgb(0,0,0)" rx="2" ry="2" />
<text  x="1143.08" y="273.5" ></text>
</g>
<g >
<title>SCForwardElim (1,085,749 us, 10.44%)</title><rect x="363.1" y="135" width="123.2" height="15.0" fill="rgb(0,0,0)" rx="2" ry="2" />
<text  x="366.15" y="145.5" >SCForwardElim</text>
</g>
<g >
<title>firedrake.assemble.allocate_matrix (7,695 us, 0.07%)</title><rect x="319.8" y="87" width="0.8" height="15.0" fill="rgb(0,0,0)" rx="2" ry="2" />
<text  x="322.75" y="97.5" ></text>
</g>
<g >
<title>FunctionSpaceData: CreateElement (8,802 us, 0.08%)</title><rect x="1179.2" y="199" width="1.0" height="15.0" fill="rgb(0,0,0)" rx="2" ry="2" />
<text  x="1182.18" y="209.5" ></text>
</g>
<g >
<title>firedrake.interpolation.make_interpolator (49,438 us, 0.48%)</title><rect x="1168.8" y="167" width="5.6" height="15.0" fill="rgb(0,0,0)" rx="2" ry="2" />
<text  x="1171.82" y="177.5" ></text>
</g>
<g >
<title>firedrake.formmanipulation.split_form (268,400 us, 2.58%)</title><rect x="332.7" y="167" width="30.4" height="15.0" fill="rgb(0,0,0)" rx="2" ry="2" />
<text  x="335.69" y="177.5" >f..</text>
</g>
<g >
<title>pyop2.global_kernel.GlobalKernel.compile (32,720 us, 0.31%)</title><rect x="1160.9" y="199" width="3.7" height="15.0" fill="rgb(0,0,0)" rx="2" ry="2" />
<text  x="1163.91" y="209.5" ></text>
</g>
<g >
<title>firedrake.functionspacedata.FunctionSpaceData.__init__ (8,802 us, 0.08%)</title><rect x="1179.2" y="183" width="1.0" height="15.0" fill="rgb(0,0,0)" rx="2" ry="2" />
<text  x="1182.18" y="193.5" ></text>
</g>
<g >
<title>Log_Event_slate_loopy_knl_0 (125,939 us, 1.21%)</title><rect x="467.1" y="199" width="14.2" height="15.0" fill="rgb(0,0,0)" rx="2" ry="2" />
<text  x="470.05" y="209.5" ></text>
</g>
<g >
<title>SNESSolve (7,661,744 us, 73.68%)</title><rect x="320.6" y="87" width="869.4" height="15.0" fill="rgb(0,0,0)" rx="2" ry="2" />
<text  x="323.63" y="97.5" >SNESSolve</text>
</g>
<g >
<title>KSPSolve (5,934,888 us, 57.07%)</title><rect x="486.3" y="151" width="673.5" height="15.0" fill="rgb(0,0,0)" rx="2" ry="2" />
<text  x="489.35" y="161.5" >KSPSolve</text>
</g>
<g >
<title>Log_Event_subkernel93_cell_to__cell_integral_otherwise (24,944 us, 0.24%)</title><rect x="749.2" y="279" width="2.9" height="15.0" fill="rgb(0,0,0)" rx="2" ry="2" />
<text  x="752.22" y="289.5" ></text>
</g>
<g >
<title>MatMult (2,511,275 us, 24.15%)</title><rect x="486.3" y="167" width="285.0" height="15.0" fill="rgb(0,0,0)" rx="2" ry="2" />
<text  x="489.35" y="177.5" >MatMult</text>
</g>
<g >
<title>firedrake.functionspaceimpl.FunctionSpace.__init__ (8,802 us, 0.08%)</title><rect x="1179.2" y="151" width="1.0" height="15.0" fill="rgb(0,0,0)" rx="2" ry="2" />
<text  x="1182.18" y="161.5" ></text>
</g>
<g >
<title>Log_Event_subkernel95_cell_to__cell_integral_otherwise (9,405 us, 0.09%)</title><rect x="745.1" y="295" width="1.1" height="15.0" fill="rgb(0,0,0)" rx="2" ry="2" />
<text  x="748.12" y="305.5" ></text>
</g>
<g >
<title>Log_Event_subkernel123_cell_to__cell_integral_otherwise (9,471 us, 0.09%)</title><rect x="515.0" y="295" width="1.1" height="15.0" fill="rgb(0,0,0)" rx="2" ry="2" />
<text  x="518.02" y="305.5" ></text>
</g>
<g >
<title>firedrake.variational_solver.NonlinearVariationalSolver.solve (7,661,744 us, 73.68%)</title><rect x="320.6" y="71" width="869.4" height="15.0" fill="rgb(0,0,0)" rx="2" ry="2" />
<text  x="323.63" y="81.5" >firedrake.variational_solver.NonlinearVariationalSolver.solve</text>
</g>
<g >
<title>Log_Event_slate_loopy_knl_79 (2,482,117 us, 23.87%)</title><rect x="489.7" y="231" width="281.6" height="15.0" fill="rgb(0,0,0)" rx="2" ry="2" />
<text  x="492.66" y="241.5" >Log_Event_slate_loopy_knl_79</text>
</g>
<g >
<title>firedrake.parloops.par_loop (42,187 us, 0.41%)</title><rect x="363.1" y="167" width="4.8" height="15.0" fill="rgb(0,0,0)" rx="2" ry="2" />
<text  x="366.15" y="177.5" ></text>
</g>
<g >
<title>Log_Event_subkernel148_interior_facet_vert_to__exterior_facet_vert_integral_otherwise (22,807 us, 0.22%)</title><rect x="766.1" y="247" width="2.6" height="15.0" fill="rgb(0,0,0)" rx="2" ry="2" />
<text  x="769.15" y="257.5" ></text>
</g>
<g >
<title>HybridBreak (42,187 us, 0.41%)</title><rect x="363.1" y="151" width="4.8" height="15.0" fill="rgb(0,0,0)" rx="2" ry="2" />
<text  x="366.15" y="161.5" ></text>
</g>
<g >
<title>KSPSetUp (3,402,105 us, 32.71%)</title><rect x="771.3" y="199" width="386.0" height="15.0" fill="rgb(0,0,0)" rx="2" ry="2" />
<text  x="774.30" y="209.5" >KSPSetUp</text>
</g>
<g >
<title>firedrake.functionspace.MixedFunctionSpace (3,745 us, 0.04%)</title><rect x="1178.8" y="151" width="0.4" height="15.0" fill="rgb(0,0,0)" rx="2" ry="2" />
<text  x="1181.75" y="161.5" ></text>
</g>
<g >
<title>Log_Event_mtf_solve_81 (122,600 us, 1.18%)</title><rect x="738.1" y="247" width="14.0" height="15.0" fill="rgb(0,0,0)" rx="2" ry="2" />
<text  x="741.14" y="257.5" ></text>
</g>
<g >
<title>Log_Event_tensorshell_knl_2 (4,163 us, 0.04%)</title><rect x="480.1" y="231" width="0.4" height="15.0" fill="rgb(0,0,0)" rx="2" ry="2" />
<text  x="483.06" y="241.5" ></text>
</g>
<g >
<title>Log_Event_inits_wrap_slate_loopy_knl_70 (3,884 us, 0.04%)</title><rect x="901.4" y="263" width="0.5" height="15.0" fill="rgb(0,0,0)" rx="2" ry="2" />
<text  x="904.42" y="273.5" ></text>
</g>
<g >
<title>firedrake.formmanipulation.ExtractSubBlock.argument (7,962 us, 0.08%)</title><rect x="1180.6" y="167" width="0.9" height="15.0" fill="rgb(0,0,0)" rx="2" ry="2" />
<text  x="1183.58" y="177.5" ></text>
</g>
<g >
<title>Log_Event_subkernel87_cell_to__cell_integral_otherwise (6,777 us, 0.07%)</title><rect x="739.3" y="295" width="0.7" height="15.0" fill="rgb(0,0,0)" rx="2" ry="2" />
<text  x="742.25" y="305.5" ></text>
</g>
<g >
<title>Log_Event_subkernel110_interior_facet_vert_to__exterior_facet_vert_integral_otherwise (23,000 us, 0.22%)</title><rect x="754.9" y="247" width="2.6" height="15.0" fill="rgb(0,0,0)" rx="2" ry="2" />
<text  x="757.88" y="257.5" ></text>
</g>
<g >
<title>Log_Event_mtf_solve_1 (99,497 us, 0.96%)</title><rect x="469.2" y="215" width="11.3" height="15.0" fill="rgb(0,0,0)" rx="2" ry="2" />
<text  x="472.24" y="225.5" ></text>
</g>
<g >
<title>firedrake.functionspacedata.FunctionSpaceData.__init__ (6,207 us, 0.06%)</title><rect x="143.4" y="151" width="0.7" height="15.0" fill="rgb(0,0,0)" rx="2" ry="2" />
<text  x="146.44" y="161.5" ></text>
</g>
<g >
<title>Log_Event_tensorshell_knl_137 (35,331 us, 0.34%)</title><rect x="628.5" y="295" width="4.0" height="15.0" fill="rgb(0,0,0)" rx="2" ry="2" />
<text  x="631.51" y="305.5" ></text>
</g>
<g >
<title>Log_Event_subkernel97_cell_to__cell_integral_otherwise (6,795 us, 0.07%)</title><rect x="746.2" y="295" width="0.8" height="15.0" fill="rgb(0,0,0)" rx="2" ry="2" />
<text  x="749.19" y="305.5" ></text>
</g>
<g >
<title>Log_Event_mtf_solve_84 (25,621 us, 0.25%)</title><rect x="738.1" y="279" width="3.0" height="15.0" fill="rgb(0,0,0)" rx="2" ry="2" />
<text  x="741.14" y="289.5" ></text>
</g>
<g >
<title>Log_Event_mtf_solve_132 (951,694 us, 9.15%)</title><rect x="524.5" y="279" width="108.0" height="15.0" fill="rgb(0,0,0)" rx="2" ry="2" />
<text  x="527.53" y="289.5" >Log_Event_mt..</text>
</g>
<g >
<title>pyop2.global_kernel.GlobalKernel.compile (33,228 us, 0.32%)</title><rect x="325.6" y="183" width="3.8" height="15.0" fill="rgb(0,0,0)" rx="2" ry="2" />
<text  x="328.64" y="193.5" ></text>
</g>
<g >
<title>pyop2.global_kernel.GlobalKernel.compile (36,505 us, 0.35%)</title><rect x="363.8" y="215" width="4.1" height="15.0" fill="rgb(0,0,0)" rx="2" ry="2" />
<text  x="366.79" y="225.5" ></text>
</g>
<g >
<title>Log_Event_subkernel85_cell_to__cell_integral_otherwise (9,788 us, 0.09%)</title><rect x="738.1" y="295" width="1.2" height="15.0" fill="rgb(0,0,0)" rx="2" ry="2" />
<text  x="741.14" y="305.5" ></text>
</g>
<g >
<title>Log_Event_tensorshell_knl_134 (17,577 us, 0.17%)</title><rect x="626.5" y="295" width="2.0" height="15.0" fill="rgb(0,0,0)" rx="2" ry="2" />
<text  x="629.51" y="305.5" ></text>
</g>
<g >
<title>Log_Event_subkernel115_cell_to__cell_integral_otherwise (6,677 us, 0.06%)</title><rect x="511.0" y="263" width="0.7" height="15.0" fill="rgb(0,0,0)" rx="2" ry="2" />
<text  x="513.96" y="273.5" ></text>
</g>
<g >
<title>Log_Event_mtf_solve_122 (38,394 us, 0.37%)</title><rect x="514.5" y="279" width="4.4" height="15.0" fill="rgb(0,0,0)" rx="2" ry="2" />
<text  x="517.52" y="289.5" ></text>
</g>
<g >
<title>Log_Event_subkernel76_cell_to__cell_integral_otherwise (5,783 us, 0.06%)</title><rect x="1143.8" y="263" width="0.6" height="15.0" fill="rgb(0,0,0)" rx="2" ry="2" />
<text  x="1146.78" y="273.5" ></text>
</g>
<g >
<title>firedrake.tsfc_interface.compile_form (15,533 us, 0.15%)</title><rect x="1158.0" y="215" width="1.8" height="15.0" fill="rgb(0,0,0)" rx="2" ry="2" />
<text  x="1161.01" y="225.5" ></text>
</g>
<g >
<title>HybridInit (120,408 us, 1.16%)</title><rect x="1176.3" y="119" width="13.7" height="15.0" fill="rgb(0,0,0)" rx="2" ry="2" />
<text  x="1179.34" y="129.5" ></text>
</g>
<g >
<title>Log_Event_subkernel126_cell_to__cell_integral_otherwise (17,694 us, 0.17%)</title><rect x="516.9" y="295" width="2.0" height="15.0" fill="rgb(0,0,0)" rx="2" ry="2" />
<text  x="519.86" y="305.5" ></text>
</g>
<g >
<title>Log_Event_subkernel145_cell_to__cell_integral_otherwise (6,714 us, 0.06%)</title><rect x="735.3" y="263" width="0.8" height="15.0" fill="rgb(0,0,0)" rx="2" ry="2" />
<text  x="738.29" y="273.5" ></text>
</g>
<g >
<title>firedrake.formmanipulation.ExtractSubBlock.split (3,777 us, 0.04%)</title><rect x="362.7" y="183" width="0.4" height="15.0" fill="rgb(0,0,0)" rx="2" ry="2" />
<text  x="365.72" y="193.5" ></text>
</g>
<g >
<title>ParLoopExecute (170,045 us, 1.64%)</title><rect x="467.1" y="167" width="19.2" height="15.0" fill="rgb(0,0,0)" rx="2" ry="2" />
<text  x="470.05" y="177.5" ></text>
</g>
<g >
<title>Log_Event_subkernel149_interior_facet_vert_to__exterior_facet_vert_integral_otherwise (22,615 us, 0.22%)</title><rect x="768.7" y="247" width="2.6" height="15.0" fill="rgb(0,0,0)" rx="2" ry="2" />
<text  x="771.74" y="257.5" ></text>
</g>
<g >
<title>Log_Event_subkernel20_cell_to__cell_integral_otherwise (13,658 us, 0.13%)</title><rect x="478.5" y="247" width="1.6" height="15.0" fill="rgb(0,0,0)" rx="2" ry="2" />
<text  x="481.51" y="257.5" ></text>
</g>
<g >
<title>Log_Event_subkernel71_interior_facet_vert_to__exterior_facet_vert_integral_otherwise (20,321 us, 0.20%)</title><rect x="1137.8" y="263" width="2.3" height="15.0" fill="rgb(0,0,0)" rx="2" ry="2" />
<text  x="1140.78" y="273.5" ></text>
</g>
<g >
<title>Log_Event_mtf_solve_119 (1,937,436 us, 18.63%)</title><rect x="513.8" y="247" width="219.8" height="15.0" fill="rgb(0,0,0)" rx="2" ry="2" />
<text  x="516.80" y="257.5" >Log_Event_mtf_solve_119</text>
</g>
<g >
<title>PCSetUp (145,941 us, 1.40%)</title><rect x="1159.8" y="151" width="16.5" height="15.0" fill="rgb(0,0,0)" rx="2" ry="2" />
<text  x="1162.78" y="161.5" ></text>
</g>
<g >
<title>firedrake.extrusion_utils.make_extruded_coords (68,020 us, 0.65%)</title><rect x="135.7" y="87" width="7.7" height="15.0" fill="rgb(0,0,0)" rx="2" ry="2" />
<text  x="138.72" y="97.5" ></text>
</g>
<g >
<title>firedrake.ufl_expr.action (5,120 us, 0.05%)</title><rect x="317.8" y="87" width="0.6" height="15.0" fill="rgb(0,0,0)" rx="2" ry="2" />
<text  x="320.83" y="97.5" ></text>
</g>
<g >
<title>firedrake.matrix_free.operators.ImplicitMatrixContext.__init__ (7,695 us, 0.07%)</title><rect x="319.8" y="103" width="0.8" height="15.0" fill="rgb(0,0,0)" rx="2" ry="2" />
<text  x="322.75" y="113.5" ></text>
</g>
<g >
<title>Log_Event_tensorshell_knl_82 (61,494 us, 0.59%)</title><rect x="738.1" y="263" width="7.0" height="15.0" fill="rgb(0,0,0)" rx="2" ry="2" />
<text  x="741.14" y="273.5" ></text>
</g>
<g >
<title>HybridRHS (1,043,562 us, 10.03%)</title><rect x="367.9" y="151" width="118.4" height="15.0" fill="rgb(0,0,0)" rx="2" ry="2" />
<text  x="370.94" y="161.5" >HybridRHS</text>
</g>
<g >
<title>Parloop_Cells_wrap_par_loop_kernel (32,257 us, 0.31%)</title><rect x="1186.3" y="167" width="3.7" height="15.0" fill="rgb(0,0,0)" rx="2" ry="2" />
<text  x="1189.34" y="177.5" ></text>
</g>
<g >
<title>PCSetUp (3,423,613 us, 32.92%)</title><rect x="771.3" y="183" width="388.5" height="15.0" fill="rgb(0,0,0)" rx="2" ry="2" />
<text  x="774.30" y="193.5" >PCSetUp</text>
</g>
<g >
<title>Log_Event_subkernel15_cell_to__cell_integral_otherwise (12,164 us, 0.12%)</title><rect x="469.9" y="263" width="1.3" height="15.0" fill="rgb(0,0,0)" rx="2" ry="2" />
<text  x="472.85" y="273.5" ></text>
</g>
<g >
<title>Log_Event_subkernel83_cell_to__cell_integral_otherwise (24,925 us, 0.24%)</title><rect x="741.1" y="279" width="2.8" height="15.0" fill="rgb(0,0,0)" rx="2" ry="2" />
<text  x="744.05" y="289.5" ></text>
</g>
<g >
<title>firedrake.functionspacedata.FunctionSpaceData.__init__ (23,786 us, 0.23%)</title><rect x="144.1" y="119" width="2.7" height="15.0" fill="rgb(0,0,0)" rx="2" ry="2" />
<text  x="147.14" y="129.5" ></text>
</g>
<g >
<title>PCSetUp (2,445,104 us, 23.51%)</title><rect x="879.9" y="215" width="277.4" height="15.0" fill="rgb(0,0,0)" rx="2" ry="2" />
<text  x="882.89" y="225.5" >PCSetUp</text>
</g>
<g >
<title>Log_Event_subkernel121_cell_to__cell_integral_otherwise (24,913 us, 0.24%)</title><rect x="518.9" y="279" width="2.8" height="15.0" fill="rgb(0,0,0)" rx="2" ry="2" />
<text  x="521.87" y="289.5" ></text>
</g>
<g >
<title>MatMult (957,001 us, 9.20%)</title><rect x="771.3" y="231" width="108.6" height="15.0" fill="rgb(0,0,0)" rx="2" ry="2" />
<text  x="774.30" y="241.5" >MatMult</text>
</g>
<g >
<title>Log_Event_tensorshell_knl_130 (1,856,991 us, 17.86%)</title><rect x="522.9" y="263" width="210.7" height="15.0" fill="rgb(0,0,0)" rx="2" ry="2" />
<text  x="525.93" y="273.5" >Log_Event_tensorshell_knl..</text>
</g>
<g >
<title>Parloop_Cells_wrap_expression_kernel (32,720 us, 0.31%)</title><rect x="1160.9" y="183" width="3.7" height="15.0" fill="rgb(0,0,0)" rx="2" ry="2" />
<text  x="1163.91" y="193.5" ></text>
</g>
<g >
<title>CreateFunctionSpace (6,207 us, 0.06%)</title><rect x="143.4" y="103" width="0.7" height="15.0" fill="rgb(0,0,0)" rx="2" ry="2" />
<text  x="146.44" y="113.5" ></text>
</g>
<g >
<title>Log_Event_subkernel141_cell_to__cell_integral_otherwise (24,861 us, 0.24%)</title><rect x="763.3" y="247" width="2.8" height="15.0" fill="rgb(0,0,0)" rx="2" ry="2" />
<text  x="766.33" y="257.5" ></text>
</g>
<g >
<title>CreateSparsity (42,916 us, 0.41%)</title><rect x="1150.7" y="247" width="4.8" height="15.0" fill="rgb(0,0,0)" rx="2" ry="2" />
<text  x="1153.67" y="257.5" ></text>
</g>
<g >
<title>Log_Event_mtf_solve_112 (39,123 us, 0.38%)</title><rect x="509.4" y="247" width="4.4" height="15.0" fill="rgb(0,0,0)" rx="2" ry="2" />
<text  x="512.36" y="257.5" ></text>
</g>
<g >
<title>firedrake.variational_solver.NonlinearVariationalSolver.__init__ (7,695 us, 0.07%)</title><rect x="319.8" y="71" width="0.8" height="15.0" fill="rgb(0,0,0)" rx="2" ry="2" />
<text  x="322.75" y="81.5" ></text>
</g>
<g >
<title>Parloop_Cells_wrap_form1_cell_integral_otherwise (33,228 us, 0.32%)</title><rect x="325.6" y="167" width="3.8" height="15.0" fill="rgb(0,0,0)" rx="2" ry="2" />
<text  x="328.64" y="177.5" ></text>
</g>
<g >
<title>Log_Event_subkernel103_cell_to__cell_integral_otherwise (24,856 us, 0.24%)</title><rect x="752.1" y="247" width="2.8" height="15.0" fill="rgb(0,0,0)" rx="2" ry="2" />
<text  x="755.05" y="257.5" ></text>
</g>
<g >
<title>Log_Event_mtf_solve_94 (25,218 us, 0.24%)</title><rect x="745.1" y="279" width="2.9" height="15.0" fill="rgb(0,0,0)" rx="2" ry="2" />
<text  x="748.12" y="289.5" ></text>
</g>
<g >
<title>ParLoopExecute (69,703 us, 0.67%)</title><rect x="1160.9" y="167" width="7.9" height="15.0" fill="rgb(0,0,0)" rx="2" ry="2" />
<text  x="1163.91" y="177.5" ></text>
</g>
<g >
<title>Log_Event_mtf_solve_14 (49,053 us, 0.47%)</title><rect x="469.2" y="247" width="5.6" height="15.0" fill="rgb(0,0,0)" rx="2" ry="2" />
<text  x="472.24" y="257.5" ></text>
</g>
</g>
</svg>
