<?xml version="1.0" standalone="no"?>
<!DOCTYPE svg PUBLIC "-//W3C//DTD SVG 1.1//EN" "http://www.w3.org/Graphics/SVG/1.1/DTD/svg11.dtd">
<svg version="1.1" width="1200" height="347" onload="init(evt)" viewBox="0 0 1200 347" xmlns="http://www.w3.org/2000/svg" xmlns:xlink="http://www.w3.org/1999/xlink">
<!-- Flame graph stack visualization. See https://github.com/brendangregg/FlameGraph for latest version, and http://www.brendangregg.com/flamegraphs.html for examples. -->
<!-- NOTES:  -->
<defs>
	<linearGradient id="background" y1="0" y2="1" x1="0" x2="0" >
		<stop stop-color="#eeeeee" offset="5%" />
		<stop stop-color="#eeeeb0" offset="95%" />
	</linearGradient>
</defs>
<style type="text/css">
	text { font-family:Verdana; font-size:13px; fill:rgb(0,0,0); }
	#search, #ignorecase { opacity:0.1; cursor:pointer; }
	#search:hover, #search.show, #ignorecase:hover, #ignorecase.show { opacity:1; }
	#subtitle { text-anchor:middle; font-color:rgb(160,160,160); }
	#title { text-anchor:middle; font-size:18px}
	#unzoom { cursor:pointer; }
	#frames > *:hover { stroke:black; stroke-width:0.5; cursor:pointer; }
	.hide { display:none; }
	.parent { opacity:0.5; }
</style>
<script type="text/ecmascript">
<![CDATA[
	"use strict";
	var details, searchbtn, unzoombtn, matchedtxt, svg, searching, currentSearchTerm, ignorecase, ignorecaseBtn;
	function init(evt) {
		details = document.getElementById("details").firstChild;
		searchbtn = document.getElementById("search");
		ignorecaseBtn = document.getElementById("ignorecase");
		unzoombtn = document.getElementById("unzoom");
		matchedtxt = document.getElementById("matched");
		svg = document.getElementsByTagName("svg")[0];
		searching = 0;
		currentSearchTerm = null;

		// use GET parameters to restore a flamegraphs state.
		var params = get_params();
		if (params.x && params.y)
			zoom(find_group(document.querySelector('[x="' + params.x + '"][y="' + params.y + '"]')));
                if (params.s) search(params.s);
	}

	// event listeners
	window.addEventListener("click", function(e) {
		var target = find_group(e.target);
		if (target) {
			if (target.nodeName == "a") {
				if (e.ctrlKey === false) return;
				e.preventDefault();
			}
			if (target.classList.contains("parent")) unzoom();
			zoom(target);
			if (!document.querySelector('.parent')) {
				clearzoom();
				return;
			}

			// set parameters for zoom state
			var el = target.querySelector("rect");
			if (el && el.attributes && el.attributes.y && el.attributes._orig_x) {
				var params = get_params()
				params.x = el.attributes._orig_x.value;
				params.y = el.attributes.y.value;
				history.replaceState(null, null, parse_params(params));
			}
		}
		else if (e.target.id == "unzoom") clearzoom();
		else if (e.target.id == "search") search_prompt();
		else if (e.target.id == "ignorecase") toggle_ignorecase();
	}, false)

	// mouse-over for info
	// show
	window.addEventListener("mouseover", function(e) {
		var target = find_group(e.target);
		if (target) details.nodeValue = "Function: " + g_to_text(target);
	}, false)

	// clear
	window.addEventListener("mouseout", function(e) {
		var target = find_group(e.target);
		if (target) details.nodeValue = ' ';
	}, false)

	// ctrl-F for search
	// ctrl-I to toggle case-sensitive search
	window.addEventListener("keydown",function (e) {
		if (e.keyCode === 114 || (e.ctrlKey && e.keyCode === 70)) {
			e.preventDefault();
			search_prompt();
		}
		else if (e.ctrlKey && e.keyCode === 73) {
			e.preventDefault();
			toggle_ignorecase();
		}
	}, false)

	// functions
	function get_params() {
		var params = {};
		var paramsarr = window.location.search.substr(1).split('&');
		for (var i = 0; i < paramsarr.length; ++i) {
			var tmp = paramsarr[i].split("=");
			if (!tmp[0] || !tmp[1]) continue;
			params[tmp[0]]  = decodeURIComponent(tmp[1]);
		}
		return params;
	}
	function parse_params(params) {
		var uri = "?";
		for (var key in params) {
			uri += key + '=' + encodeURIComponent(params[key]) + '&';
		}
		if (uri.slice(-1) == "&")
			uri = uri.substring(0, uri.length - 1);
		if (uri == '?')
			uri = window.location.href.split('?')[0];
		return uri;
	}
	function find_child(node, selector) {
		var children = node.querySelectorAll(selector);
		if (children.length) return children[0];
	}
	function find_group(node) {
		var parent = node.parentElement;
		if (!parent) return;
		if (parent.id == "frames") return node;
		return find_group(parent);
	}
	function orig_save(e, attr, val) {
		if (e.attributes["_orig_" + attr] != undefined) return;
		if (e.attributes[attr] == undefined) return;
		if (val == undefined) val = e.attributes[attr].value;
		e.setAttribute("_orig_" + attr, val);
	}
	function orig_load(e, attr) {
		if (e.attributes["_orig_"+attr] == undefined) return;
		e.attributes[attr].value = e.attributes["_orig_" + attr].value;
		e.removeAttribute("_orig_"+attr);
	}
	function g_to_text(e) {
		var text = find_child(e, "title").firstChild.nodeValue;
		return (text)
	}
	function g_to_func(e) {
		var func = g_to_text(e);
		// if there's any manipulation we want to do to the function
		// name before it's searched, do it here before returning.
		return (func);
	}
	function update_text(e) {
		var r = find_child(e, "rect");
		var t = find_child(e, "text");
		var w = parseFloat(r.attributes.width.value) -3;
		var txt = find_child(e, "title").textContent.replace(/\([^(]*\)$/,"");
		t.attributes.x.value = parseFloat(r.attributes.x.value) + 3;

		// Smaller than this size won't fit anything
		if (w < 2 * 13 * 0.59) {
			t.textContent = "";
			return;
		}

		t.textContent = txt;
		// Fit in full text width
		if (/^ *$/.test(txt) || t.getSubStringLength(0, txt.length) < w)
			return;

		for (var x = txt.length - 2; x > 0; x--) {
			if (t.getSubStringLength(0, x + 2) <= w) {
				t.textContent = txt.substring(0, x) + "..";
				return;
			}
		}
		t.textContent = "";
	}

	// zoom
	function zoom_reset(e) {
		if (e.attributes != undefined) {
			orig_load(e, "x");
			orig_load(e, "width");
		}
		if (e.childNodes == undefined) return;
		for (var i = 0, c = e.childNodes; i < c.length; i++) {
			zoom_reset(c[i]);
		}
	}
	function zoom_child(e, x, ratio) {
		if (e.attributes != undefined) {
			if (e.attributes.x != undefined) {
				orig_save(e, "x");
				e.attributes.x.value = (parseFloat(e.attributes.x.value) - x - 10) * ratio + 10;
				if (e.tagName == "text")
					e.attributes.x.value = find_child(e.parentNode, "rect[x]").attributes.x.value + 3;
			}
			if (e.attributes.width != undefined) {
				orig_save(e, "width");
				e.attributes.width.value = parseFloat(e.attributes.width.value) * ratio;
			}
		}

		if (e.childNodes == undefined) return;
		for (var i = 0, c = e.childNodes; i < c.length; i++) {
			zoom_child(c[i], x - 10, ratio);
		}
	}
	function zoom_parent(e) {
		if (e.attributes) {
			if (e.attributes.x != undefined) {
				orig_save(e, "x");
				e.attributes.x.value = 10;
			}
			if (e.attributes.width != undefined) {
				orig_save(e, "width");
				e.attributes.width.value = parseInt(svg.width.baseVal.value) - (10 * 2);
			}
		}
		if (e.childNodes == undefined) return;
		for (var i = 0, c = e.childNodes; i < c.length; i++) {
			zoom_parent(c[i]);
		}
	}
	function zoom(node) {
		var attr = find_child(node, "rect").attributes;
		var width = parseFloat(attr.width.value);
		var xmin = parseFloat(attr.x.value);
		var xmax = parseFloat(xmin + width);
		var ymin = parseFloat(attr.y.value);
		var ratio = (svg.width.baseVal.value - 2 * 10) / width;

		// XXX: Workaround for JavaScript float issues (fix me)
		var fudge = 0.0001;

		unzoombtn.classList.remove("hide");

		var el = document.getElementById("frames").children;
		for (var i = 0; i < el.length; i++) {
			var e = el[i];
			var a = find_child(e, "rect").attributes;
			var ex = parseFloat(a.x.value);
			var ew = parseFloat(a.width.value);
			var upstack;
			// Is it an ancestor
			if (1 == 0) {
				upstack = parseFloat(a.y.value) > ymin;
			} else {
				upstack = parseFloat(a.y.value) < ymin;
			}
			if (upstack) {
				// Direct ancestor
				if (ex <= xmin && (ex+ew+fudge) >= xmax) {
					e.classList.add("parent");
					zoom_parent(e);
					update_text(e);
				}
				// not in current path
				else
					e.classList.add("hide");
			}
			// Children maybe
			else {
				// no common path
				if (ex < xmin || ex + fudge >= xmax) {
					e.classList.add("hide");
				}
				else {
					zoom_child(e, xmin, ratio);
					update_text(e);
				}
			}
		}
		search();
	}
	function unzoom() {
		unzoombtn.classList.add("hide");
		var el = document.getElementById("frames").children;
		for(var i = 0; i < el.length; i++) {
			el[i].classList.remove("parent");
			el[i].classList.remove("hide");
			zoom_reset(el[i]);
			update_text(el[i]);
		}
		search();
	}
	function clearzoom() {
		unzoom();

		// remove zoom state
		var params = get_params();
		if (params.x) delete params.x;
		if (params.y) delete params.y;
		history.replaceState(null, null, parse_params(params));
	}

	// search
	function toggle_ignorecase() {
		ignorecase = !ignorecase;
		if (ignorecase) {
			ignorecaseBtn.classList.add("show");
		} else {
			ignorecaseBtn.classList.remove("show");
		}
		reset_search();
		search();
	}
	function reset_search() {
		var el = document.querySelectorAll("#frames rect");
		for (var i = 0; i < el.length; i++) {
			orig_load(el[i], "fill")
		}
		var params = get_params();
		delete params.s;
		history.replaceState(null, null, parse_params(params));
	}
	function search_prompt() {
		if (!searching) {
			var term = prompt("Enter a search term (regexp " +
			    "allowed, eg: ^ext4_)"
			    + (ignorecase ? ", ignoring case" : "")
			    + "\nPress Ctrl-i to toggle case sensitivity", "");
			if (term != null) search(term);
		} else {
			reset_search();
			searching = 0;
			currentSearchTerm = null;
			searchbtn.classList.remove("show");
			searchbtn.firstChild.nodeValue = "Search"
			matchedtxt.classList.add("hide");
			matchedtxt.firstChild.nodeValue = ""
		}
	}
	function search(term) {
		if (term) currentSearchTerm = term;

		var re = new RegExp(currentSearchTerm, ignorecase ? 'i' : '');
		var el = document.getElementById("frames").children;
		var matches = new Object();
		var maxwidth = 0;
		for (var i = 0; i < el.length; i++) {
			var e = el[i];
			var func = g_to_func(e);
			var rect = find_child(e, "rect");
			if (func == null || rect == null)
				continue;

			// Save max width. Only works as we have a root frame
			var w = parseFloat(rect.attributes.width.value);
			if (w > maxwidth)
				maxwidth = w;

			if (func.match(re)) {
				// highlight
				var x = parseFloat(rect.attributes.x.value);
				orig_save(rect, "fill");
				rect.attributes.fill.value = "rgb(230,0,230)";

				// remember matches
				if (matches[x] == undefined) {
					matches[x] = w;
				} else {
					if (w > matches[x]) {
						// overwrite with parent
						matches[x] = w;
					}
				}
				searching = 1;
			}
		}
		if (!searching)
			return;
		var params = get_params();
		params.s = currentSearchTerm;
		history.replaceState(null, null, parse_params(params));

		searchbtn.classList.add("show");
		searchbtn.firstChild.nodeValue = "Reset Search";

		// calculate percent matched, excluding vertical overlap
		var count = 0;
		var lastx = -1;
		var lastw = 0;
		var keys = Array();
		for (k in matches) {
			if (matches.hasOwnProperty(k))
				keys.push(k);
		}
		// sort the matched frames by their x location
		// ascending, then width descending
		keys.sort(function(a, b){
			return a - b;
		});
		// Step through frames saving only the biggest bottom-up frames
		// thanks to the sort order. This relies on the tree property
		// where children are always smaller than their parents.
		var fudge = 0.0001;	// JavaScript floating point
		for (var k in keys) {
			var x = parseFloat(keys[k]);
			var w = matches[keys[k]];
			if (x >= lastx + lastw - fudge) {
				count += w;
				lastx = x;
				lastw = w;
			}
		}
		// display matched percent
		matchedtxt.classList.remove("hide");
		var pct = 100 * count / maxwidth;
		if (pct != 100) pct = pct.toFixed(1)
		matchedtxt.firstChild.nodeValue = "Matched: " + pct + "%";
	}
]]>
</script>
<rect x="0.0" y="0" width="1200.0" height="347.0" fill="url(#background)"  />
<text id="title" x="600.00" y="26" >Firedrake example</text>
<text id="details" x="10.00" y="329" > </text>
<text id="unzoom" x="10.00" y="26" class="hide">Reset Zoom</text>
<text id="search" x="1090.00" y="26" >Search</text>
<text id="ignorecase" x="1174.00" y="26" >ic</text>
<text id="matched" x="1090.00" y="329" > </text>
<g id="frames">
<g >
<title>firedrake.tsfc_interface.compile_form (337,419 us, 3.27%)</title><rect x="331.6" y="151" width="38.6" height="15.0" fill="rgb(0,0,0)" rx="2" ry="2" />
<text  x="334.60" y="161.5" >fir..</text>
</g>
<g >
<title>firedrake.matrix_free.operators.ImplicitMatrixContext.mult (408,015 us, 3.96%)</title><rect x="323.5" y="135" width="46.7" height="15.0" fill="rgb(0,0,0)" rx="2" ry="2" />
<text  x="326.52" y="145.5" >fire..</text>
</g>
<g >
<title>Parloop_Cells_wrap_slate_loopy_knl_0 (160,491 us, 1.56%)</title><rect x="474.0" y="183" width="18.3" height="15.0" fill="rgb(0,0,0)" rx="2" ry="2" />
<text  x="476.97" y="193.5" ></text>
</g>
<g >
<title>Log_Event_tensorshell_knl_12 (93,899 us, 0.91%)</title><rect x="476.0" y="231" width="10.8" height="15.0" fill="rgb(0,0,0)" rx="2" ry="2" />
<text  x="479.03" y="241.5" ></text>
</g>
<g >
<title>Log_Event_subkernel20_cell_to__cell_integral_otherwise (13,389 us, 0.13%)</title><rect x="485.2" y="247" width="1.6" height="15.0" fill="rgb(0,0,0)" rx="2" ry="2" />
<text  x="488.24" y="257.5" ></text>
</g>
<g >
<title>Log_Event_mtf_solve_84 (25,080 us, 0.24%)</title><rect x="746.1" y="279" width="2.9" height="15.0" fill="rgb(0,0,0)" rx="2" ry="2" />
<text  x="749.15" y="289.5" ></text>
</g>
<g >
<title>HybridInit (118,712 us, 1.15%)</title><rect x="1176.4" y="119" width="13.6" height="15.0" fill="rgb(0,0,0)" rx="2" ry="2" />
<text  x="1179.42" y="129.5" ></text>
</g>
<g >
<title>ParLoopExecute (34,801 us, 0.34%)</title><rect x="139.6" y="103" width="4.0" height="15.0" fill="rgb(0,0,0)" rx="2" ry="2" />
<text  x="142.61" y="113.5" ></text>
</g>
<g >
<title>PCSetUp (118,712 us, 1.15%)</title><rect x="1176.4" y="103" width="13.6" height="15.0" fill="rgb(0,0,0)" rx="2" ry="2" />
<text  x="1179.42" y="113.5" ></text>
</g>
<g >
<title>Log_Event_subkernel118_cell_to__cell_integral_otherwise (10,883 us, 0.11%)</title><rect x="770.2" y="247" width="1.2" height="15.0" fill="rgb(0,0,0)" rx="2" ry="2" />
<text  x="773.20" y="257.5" ></text>
</g>
<g >
<title>PCSetUp (3,332,857 us, 32.31%)</title><rect x="779.5" y="183" width="381.2" height="15.0" fill="rgb(0,0,0)" rx="2" ry="2" />
<text  x="782.49" y="193.5" >PCSetUp</text>
</g>
<g >
<title>Log_Event_tensorshell_knl_92 (60,962 us, 0.59%)</title><rect x="753.1" y="263" width="7.0" height="15.0" fill="rgb(0,0,0)" rx="2" ry="2" />
<text  x="756.12" y="273.5" ></text>
</g>
<g >
<title>firedrake.formmanipulation.split_form (3,534 us, 0.03%)</title><rect x="369.8" y="167" width="0.4" height="15.0" fill="rgb(0,0,0)" rx="2" ry="2" />
<text  x="372.79" y="177.5" ></text>
</g>
<g >
<title>Log_Event_subkernel100_cell_to__cell_integral_otherwise (10,958 us, 0.11%)</title><rect x="756.0" y="279" width="1.2" height="15.0" fill="rgb(0,0,0)" rx="2" ry="2" />
<text  x="758.99" y="289.5" ></text>
</g>
<g >
<title>Log_Event_mtf_solve_94 (25,118 us, 0.24%)</title><rect x="753.1" y="279" width="2.9" height="15.0" fill="rgb(0,0,0)" rx="2" ry="2" />
<text  x="756.12" y="289.5" ></text>
</g>
<g >
<title>Parloop_Cells_wrap_par_loop_kernel (34,536 us, 0.33%)</title><rect x="370.9" y="199" width="3.9" height="15.0" fill="rgb(0,0,0)" rx="2" ry="2" />
<text  x="373.87" y="209.5" ></text>
</g>
<g >
<title>firedrake.functionspacedata.FunctionSpaceData.__init__ (23,484 us, 0.23%)</title><rect x="144.3" y="119" width="2.7" height="15.0" fill="rgb(0,0,0)" rx="2" ry="2" />
<text  x="147.29" y="129.5" ></text>
</g>
<g >
<title>firedrake.tsfc_interface.compile_form (15,114 us, 0.15%)</title><rect x="1159.0" y="215" width="1.7" height="15.0" fill="rgb(0,0,0)" rx="2" ry="2" />
<text  x="1162.01" y="225.5" ></text>
</g>
<g >
<title>Log_Event_subkernel85_cell_to__cell_integral_otherwise (9,400 us, 0.09%)</title><rect x="746.1" y="295" width="1.1" height="15.0" fill="rgb(0,0,0)" rx="2" ry="2" />
<text  x="749.15" y="305.5" ></text>
</g>
<g >
<title>Log_Event_subkernel15_cell_to__cell_integral_otherwise (11,954 us, 0.12%)</title><rect x="476.6" y="263" width="1.4" height="15.0" fill="rgb(0,0,0)" rx="2" ry="2" />
<text  x="479.63" y="273.5" ></text>
</g>
<g >
<title>Parloop_Cells_wrap_pyop2_kernel_uniform_extrusion (34,801 us, 0.34%)</title><rect x="139.6" y="119" width="4.0" height="15.0" fill="rgb(0,0,0)" rx="2" ry="2" />
<text  x="142.61" y="129.5" ></text>
</g>
<g >
<title>Log_Event_subkernel126_cell_to__cell_integral_otherwise (17,713 us, 0.17%)</title><rect x="522.5" y="295" width="2.0" height="15.0" fill="rgb(0,0,0)" rx="2" ry="2" />
<text  x="525.46" y="305.5" ></text>
</g>
<g >
<title>firedrake.formmanipulation.ExtractSubBlock.argument (7,983 us, 0.08%)</title><rect x="1180.7" y="167" width="0.9" height="15.0" fill="rgb(0,0,0)" rx="2" ry="2" />
<text  x="1183.66" y="177.5" ></text>
</g>
<g >
<title>Log_Event_mtf_solve_119 (1,942,745 us, 18.83%)</title><rect x="519.4" y="247" width="222.3" height="15.0" fill="rgb(0,0,0)" rx="2" ry="2" />
<text  x="522.44" y="257.5" >Log_Event_mtf_solve_119</text>
</g>
<g >
<title>ParLoopExecute (34,536 us, 0.33%)</title><rect x="370.9" y="183" width="3.9" height="15.0" fill="rgb(0,0,0)" rx="2" ry="2" />
<text  x="373.87" y="193.5" ></text>
</g>
<g >
<title>MatZeroInitial (15,889 us, 0.15%)</title><rect x="1156.5" y="247" width="1.8" height="15.0" fill="rgb(0,0,0)" rx="2" ry="2" />
<text  x="1159.53" y="257.5" ></text>
</g>
<g >
<title>Log_Event_subkernel93_cell_to__cell_integral_otherwise (24,886 us, 0.24%)</title><rect x="757.2" y="279" width="2.9" height="15.0" fill="rgb(0,0,0)" rx="2" ry="2" />
<text  x="760.24" y="289.5" ></text>
</g>
<g >
<title>Log_Event_subkernel111_interior_facet_vert_to__exterior_facet_vert_integral_otherwise (40,508 us, 0.39%)</title><rect x="765.6" y="247" width="4.6" height="15.0" fill="rgb(0,0,0)" rx="2" ry="2" />
<text  x="768.57" y="257.5" ></text>
</g>
<g >
<title>Log_Event_subkernel95_cell_to__cell_integral_otherwise (9,381 us, 0.09%)</title><rect x="753.1" y="295" width="1.1" height="15.0" fill="rgb(0,0,0)" rx="2" ry="2" />
<text  x="756.12" y="305.5" ></text>
</g>
<g >
<title>Log_Event_subkernel103_cell_to__cell_integral_otherwise (25,183 us, 0.24%)</title><rect x="760.1" y="247" width="2.9" height="15.0" fill="rgb(0,0,0)" rx="2" ry="2" />
<text  x="763.09" y="257.5" ></text>
</g>
<g >
<title>Log_Event_tensorshell_knl_120 (74,075 us, 0.72%)</title><rect x="520.1" y="263" width="8.5" height="15.0" fill="rgb(0,0,0)" rx="2" ry="2" />
<text  x="523.11" y="273.5" ></text>
</g>
<g >
<title>firedrake.tsfc_interface.compile_form (15,136 us, 0.15%)</title><rect x="1174.7" y="167" width="1.7" height="15.0" fill="rgb(0,0,0)" rx="2" ry="2" />
<text  x="1177.69" y="177.5" ></text>
</g>
<g >
<title>Log_Event_subkernel97_cell_to__cell_integral_otherwise (6,715 us, 0.07%)</title><rect x="754.2" y="295" width="0.8" height="15.0" fill="rgb(0,0,0)" rx="2" ry="2" />
<text  x="757.19" y="305.5" ></text>
</g>
<g >
<title>Log_Event_tensorshell_knl_82 (60,903 us, 0.59%)</title><rect x="746.1" y="263" width="7.0" height="15.0" fill="rgb(0,0,0)" rx="2" ry="2" />
<text  x="749.15" y="273.5" ></text>
</g>
<g >
<title>Log_Event_tensorshell_knl_137 (35,319 us, 0.34%)</title><rect x="635.5" y="295" width="4.0" height="15.0" fill="rgb(0,0,0)" rx="2" ry="2" />
<text  x="638.50" y="305.5" ></text>
</g>
<g >
<title>firedrake.matrix_free.operators.ImplicitMatrixContext.mult (931,843 us, 9.03%)</title><rect x="779.5" y="247" width="106.6" height="15.0" fill="rgb(0,0,0)" rx="2" ry="2" />
<text  x="782.49" y="257.5" >firedrake.m..</text>
</g>
<g >
<title>pyop2.global_kernel.GlobalKernel.compile (37,696 us, 0.37%)</title><rect x="324.0" y="183" width="4.3" height="15.0" fill="rgb(0,0,0)" rx="2" ry="2" />
<text  x="327.02" y="193.5" ></text>
</g>
<g >
<title>Parloop_Cells_wrap_form1_cell_integral_otherwise (28,536 us, 0.28%)</title><rect x="328.3" y="167" width="3.3" height="15.0" fill="rgb(0,0,0)" rx="2" ry="2" />
<text  x="331.33" y="177.5" ></text>
</g>
<g >
<title>SNESSolve (7,574,630 us, 73.43%)</title><rect x="323.5" y="87" width="866.5" height="15.0" fill="rgb(0,0,0)" rx="2" ry="2" />
<text  x="326.52" y="97.5" >SNESSolve</text>
</g>
<g >
<title>Parloop_Cells_wrap_wrap_slate_loopy_knl_70 (2,169,666 us, 21.03%)</title><rect x="903.4" y="247" width="248.2" height="15.0" fill="rgb(0,0,0)" rx="2" ry="2" />
<text  x="906.42" y="257.5" >Parloop_Cells_wrap_wrap_slate_..</text>
</g>
<g >
<title>ParLoopExecute (65,678 us, 0.64%)</title><rect x="1161.7" y="167" width="7.5" height="15.0" fill="rgb(0,0,0)" rx="2" ry="2" />
<text  x="1164.74" y="177.5" ></text>
</g>
<g >
<title>firedrake.__init__ (1,518,610 us, 14.72%)</title><rect x="147.0" y="71" width="173.7" height="15.0" fill="rgb(0,0,0)" rx="2" ry="2" />
<text  x="149.98" y="81.5" >firedrake.__init__</text>
</g>
<g >
<title>firedrake.variational_solver.LinearVariationalProblem.__init__ (17,072 us, 0.17%)</title><rect x="320.7" y="71" width="1.9" height="15.0" fill="rgb(0,0,0)" rx="2" ry="2" />
<text  x="323.69" y="81.5" ></text>
</g>
<g >
<title>Log_Event_mtf_solve_112 (38,961 us, 0.38%)</title><rect x="515.0" y="247" width="4.4" height="15.0" fill="rgb(0,0,0)" rx="2" ry="2" />
<text  x="517.98" y="257.5" ></text>
</g>
<g >
<title>firedrake.functionspace.MixedFunctionSpace (3,673 us, 0.04%)</title><rect x="1178.9" y="151" width="0.4" height="15.0" fill="rgb(0,0,0)" rx="2" ry="2" />
<text  x="1181.86" y="161.5" ></text>
</g>
<g >
<title>firedrake.functionspacedata.FunctionSpaceData.__init__ (6,157 us, 0.06%)</title><rect x="143.6" y="151" width="0.7" height="15.0" fill="rgb(0,0,0)" rx="2" ry="2" />
<text  x="146.59" y="161.5" ></text>
</g>
<g >
<title>firedrake.functionspace.VectorFunctionSpace (6,157 us, 0.06%)</title><rect x="143.6" y="87" width="0.7" height="15.0" fill="rgb(0,0,0)" rx="2" ry="2" />
<text  x="146.59" y="97.5" ></text>
</g>
<g >
<title>CreateExtMesh (71,371 us, 0.69%)</title><rect x="136.1" y="71" width="8.2" height="15.0" fill="rgb(0,0,0)" rx="2" ry="2" />
<text  x="139.13" y="81.5" ></text>
</g>
<g >
<title>ParLoopExecute (31,921 us, 0.31%)</title><rect x="1186.3" y="151" width="3.7" height="15.0" fill="rgb(0,0,0)" rx="2" ry="2" />
<text  x="1189.35" y="161.5" ></text>
</g>
<g >
<title>Log_Event_mtf_solve_142 (39,126 us, 0.38%)</title><rect x="741.7" y="247" width="4.4" height="15.0" fill="rgb(0,0,0)" rx="2" ry="2" />
<text  x="744.67" y="257.5" ></text>
</g>
<g >
<title>Log_Event_subkernel18_cell_to__cell_integral_otherwise (22,934 us, 0.22%)</title><rect x="479.0" y="263" width="2.6" height="15.0" fill="rgb(0,0,0)" rx="2" ry="2" />
<text  x="481.96" y="273.5" ></text>
</g>
<g >
<title>firedrake.variational_solver.NonlinearVariationalProblem.__init__ (11,820 us, 0.11%)</title><rect x="321.3" y="87" width="1.3" height="15.0" fill="rgb(0,0,0)" rx="2" ry="2" />
<text  x="324.30" y="97.5" ></text>
</g>
<g >
<title>HybridBreak (40,414 us, 0.39%)</title><rect x="370.2" y="151" width="4.6" height="15.0" fill="rgb(0,0,0)" rx="2" ry="2" />
<text  x="373.20" y="161.5" ></text>
</g>
<g >
<title>inv_getrf (33,203 us, 0.32%)</title><rect x="1121.1" y="279" width="3.8" height="15.0" fill="rgb(0,0,0)" rx="2" ry="2" />
<text  x="1124.07" y="289.5" ></text>
</g>
<g >
<title>Log_Event_subkernel108_cell_to__cell_integral_otherwise (9,367 us, 0.09%)</title><rect x="513.9" y="263" width="1.1" height="15.0" fill="rgb(0,0,0)" rx="2" ry="2" />
<text  x="516.91" y="273.5" ></text>
</g>
<g >
<title>Log_Event_subkernel141_cell_to__cell_integral_otherwise (24,870 us, 0.24%)</title><rect x="771.4" y="247" width="2.9" height="15.0" fill="rgb(0,0,0)" rx="2" ry="2" />
<text  x="774.44" y="257.5" ></text>
</g>
<g >
<title>Log_Event_subkernel110_interior_facet_vert_to__exterior_facet_vert_integral_otherwise (22,686 us, 0.22%)</title><rect x="763.0" y="247" width="2.6" height="15.0" fill="rgb(0,0,0)" rx="2" ry="2" />
<text  x="765.97" y="257.5" ></text>
</g>
<g >
<title>Log_Event_tensorshell_knl_2 (4,008 us, 0.04%)</title><rect x="486.8" y="231" width="0.4" height="15.0" fill="rgb(0,0,0)" rx="2" ry="2" />
<text  x="489.78" y="241.5" ></text>
</g>
<g >
<title>Log_Event_subkernel87_cell_to__cell_integral_otherwise (6,705 us, 0.06%)</title><rect x="747.2" y="295" width="0.8" height="15.0" fill="rgb(0,0,0)" rx="2" ry="2" />
<text  x="750.22" y="305.5" ></text>
</g>
<g >
<title>Log_Event_subkernel73_cell_to__cell_integral_otherwise (11,838 us, 0.11%)</title><rect x="1143.6" y="263" width="1.4" height="15.0" fill="rgb(0,0,0)" rx="2" ry="2" />
<text  x="1146.61" y="273.5" ></text>
</g>
<g >
<title>firedrake.matrix_free.operators.ImplicitMatrixContext.__init__ (7,646 us, 0.07%)</title><rect x="322.6" y="103" width="0.9" height="15.0" fill="rgb(0,0,0)" rx="2" ry="2" />
<text  x="325.65" y="113.5" ></text>
</g>
<g >
<title>SCForwardElim (1,067,712 us, 10.35%)</title><rect x="370.2" y="135" width="122.1" height="15.0" fill="rgb(0,0,0)" rx="2" ry="2" />
<text  x="373.20" y="145.5" >SCForwardElim</text>
</g>
<g >
<title>Log_Event_subkernel98_cell_to__cell_integral_otherwise (9,022 us, 0.09%)</title><rect x="755.0" y="295" width="1.0" height="15.0" fill="rgb(0,0,0)" rx="2" ry="2" />
<text  x="757.96" y="305.5" ></text>
</g>
<g >
<title>Parloop_Cells_wrap_form0_cell_integral_otherwise (37,696 us, 0.37%)</title><rect x="324.0" y="167" width="4.3" height="15.0" fill="rgb(0,0,0)" rx="2" ry="2" />
<text  x="327.02" y="177.5" ></text>
</g>
<g >
<title>pyop2.global_kernel.GlobalKernel.compile (30,794 us, 0.30%)</title><rect x="1161.7" y="199" width="3.6" height="15.0" fill="rgb(0,0,0)" rx="2" ry="2" />
<text  x="1164.74" y="209.5" ></text>
</g>
<g >
<title>PCApply (7,047,903 us, 68.32%)</title><rect x="370.2" y="119" width="806.2" height="15.0" fill="rgb(0,0,0)" rx="2" ry="2" />
<text  x="373.20" y="129.5" >PCApply</text>
</g>
<g >
<title>pyop2.global_kernel.GlobalKernel.compile (37,625 us, 0.36%)</title><rect x="488.0" y="199" width="4.3" height="15.0" fill="rgb(0,0,0)" rx="2" ry="2" />
<text  x="491.03" y="209.5" ></text>
</g>
<g >
<title>inv_getri (123,660 us, 1.20%)</title><rect x="1124.9" y="279" width="14.1" height="15.0" fill="rgb(0,0,0)" rx="2" ry="2" />
<text  x="1127.86" y="289.5" ></text>
</g>
<g >
<title>Log_Event_subkernel88_cell_to__cell_integral_otherwise (8,975 us, 0.09%)</title><rect x="748.0" y="295" width="1.0" height="15.0" fill="rgb(0,0,0)" rx="2" ry="2" />
<text  x="750.99" y="305.5" ></text>
</g>
<g >
<title>Log_Event_subkernel83_cell_to__cell_integral_otherwise (24,943 us, 0.24%)</title><rect x="749.0" y="279" width="2.9" height="15.0" fill="rgb(0,0,0)" rx="2" ry="2" />
<text  x="752.02" y="289.5" ></text>
</g>
<g >
<title>Log_Event_mtf_solve_104 (25,295 us, 0.25%)</title><rect x="512.1" y="247" width="2.9" height="15.0" fill="rgb(0,0,0)" rx="2" ry="2" />
<text  x="515.09" y="257.5" ></text>
</g>
<g >
<title>Log_Event_subkernel125_cell_to__cell_integral_otherwise (6,772 us, 0.07%)</title><rect x="521.7" y="295" width="0.8" height="15.0" fill="rgb(0,0,0)" rx="2" ry="2" />
<text  x="524.69" y="305.5" ></text>
</g>
<g >
<title>Log_Event_slate_loopy_knl_0 (122,866 us, 1.19%)</title><rect x="474.0" y="199" width="14.0" height="15.0" fill="rgb(0,0,0)" rx="2" ry="2" />
<text  x="476.97" y="209.5" ></text>
</g>
<g >
<title>firedrake.ufl_expr.adjoint (11,820 us, 0.11%)</title><rect x="321.3" y="103" width="1.3" height="15.0" fill="rgb(0,0,0)" rx="2" ry="2" />
<text  x="324.30" y="113.5" ></text>
</g>
<g >
<title>Log_Event_subkernel107_cell_to__cell_integral_otherwise (6,512 us, 0.06%)</title><rect x="513.2" y="263" width="0.7" height="15.0" fill="rgb(0,0,0)" rx="2" ry="2" />
<text  x="516.17" y="273.5" ></text>
</g>
<g >
<title>Log_Event_subkernel105_cell_to__cell_integral_otherwise (9,416 us, 0.09%)</title><rect x="512.1" y="263" width="1.1" height="15.0" fill="rgb(0,0,0)" rx="2" ry="2" />
<text  x="515.09" y="273.5" ></text>
</g>
<g >
<title>MatMult (931,843 us, 9.03%)</title><rect x="779.5" y="231" width="106.6" height="15.0" fill="rgb(0,0,0)" rx="2" ry="2" />
<text  x="782.49" y="241.5" >MatMult</text>
</g>
<g >
<title>Log_Event_mtf_solve_122 (38,269 us, 0.37%)</title><rect x="520.1" y="279" width="4.4" height="15.0" fill="rgb(0,0,0)" rx="2" ry="2" />
<text  x="523.11" y="289.5" ></text>
</g>
<g >
<title>Log_Event_subkernel121_cell_to__cell_integral_otherwise (24,944 us, 0.24%)</title><rect x="524.5" y="279" width="2.8" height="15.0" fill="rgb(0,0,0)" rx="2" ry="2" />
<text  x="527.49" y="289.5" ></text>
</g>
<g >
<title>Log_Event_subkernel146_cell_to__cell_integral_otherwise (18,328 us, 0.18%)</title><rect x="744.1" y="263" width="2.0" height="15.0" fill="rgb(0,0,0)" rx="2" ry="2" />
<text  x="747.05" y="273.5" ></text>
</g>
<g >
<title>Log_Event_subkernel145_cell_to__cell_integral_otherwise (6,555 us, 0.06%)</title><rect x="743.3" y="263" width="0.8" height="15.0" fill="rgb(0,0,0)" rx="2" ry="2" />
<text  x="746.30" y="273.5" ></text>
</g>
<g >
<title>MatMult (408,015 us, 3.96%)</title><rect x="323.5" y="119" width="46.7" height="15.0" fill="rgb(0,0,0)" rx="2" ry="2" />
<text  x="326.52" y="129.5" >MatM..</text>
</g>
<g >
<title>KSPSolve (931,843 us, 9.03%)</title><rect x="779.5" y="215" width="106.6" height="15.0" fill="rgb(0,0,0)" rx="2" ry="2" />
<text  x="782.49" y="225.5" >KSPSolve</text>
</g>
<g >
<title>firedrake.assemble.allocate_matrix (58,843 us, 0.57%)</title><rect x="1151.6" y="231" width="6.7" height="15.0" fill="rgb(0,0,0)" rx="2" ry="2" />
<text  x="1154.62" y="241.5" ></text>
</g>
<g >
<title>Parloop_Cells_wrap_expression_kernel (30,794 us, 0.30%)</title><rect x="1161.7" y="183" width="3.6" height="15.0" fill="rgb(0,0,0)" rx="2" ry="2" />
<text  x="1164.74" y="193.5" ></text>
</g>
<g >
<title>ParLoopExecute (2,492,342 us, 24.16%)</title><rect x="494.4" y="199" width="285.1" height="15.0" fill="rgb(0,0,0)" rx="2" ry="2" />
<text  x="497.38" y="209.5" >ParLoopExecute</text>
</g>
<g >
<title>pyop2.global_kernel.GlobalKernel.compile (34,761 us, 0.34%)</title><rect x="1147.6" y="263" width="4.0" height="15.0" fill="rgb(0,0,0)" rx="2" ry="2" />
<text  x="1150.64" y="273.5" ></text>
</g>
<g >
<title>firedrake.functionspacedata.FunctionSpaceData.__init__ (8,563 us, 0.08%)</title><rect x="1179.3" y="183" width="1.0" height="15.0" fill="rgb(0,0,0)" rx="2" ry="2" />
<text  x="1182.28" y="193.5" ></text>
</g>
<g >
<title>Parloop_Cells_wrap_form00_cell_integral_otherwise (34,884 us, 0.34%)</title><rect x="1165.3" y="183" width="3.9" height="15.0" fill="rgb(0,0,0)" rx="2" ry="2" />
<text  x="1168.26" y="193.5" ></text>
</g>
<g >
<title>firedrake.interpolation.make_interpolator (47,550 us, 0.46%)</title><rect x="1169.2" y="167" width="5.5" height="15.0" fill="rgb(0,0,0)" rx="2" ry="2" />
<text  x="1172.25" y="177.5" ></text>
</g>
<g >
<title>ParLoopExecute (66,232 us, 0.64%)</title><rect x="324.0" y="151" width="7.6" height="15.0" fill="rgb(0,0,0)" rx="2" ry="2" />
<text  x="327.02" y="161.5" ></text>
</g>
<g >
<title>Log_Event_subkernel13_cell_to__cell_integral_otherwise (31,997 us, 0.31%)</title><rect x="481.6" y="247" width="3.6" height="15.0" fill="rgb(0,0,0)" rx="2" ry="2" />
<text  x="484.58" y="257.5" ></text>
</g>
<g >
<title>firedrake.functionspaceimpl.FunctionSpace.__init__ (6,157 us, 0.06%)</title><rect x="143.6" y="119" width="0.7" height="15.0" fill="rgb(0,0,0)" rx="2" ry="2" />
<text  x="146.59" y="129.5" ></text>
</g>
<g >
<title>Log_Event_subkernel115_cell_to__cell_integral_otherwise (6,579 us, 0.06%)</title><rect x="516.6" y="263" width="0.7" height="15.0" fill="rgb(0,0,0)" rx="2" ry="2" />
<text  x="519.59" y="273.5" ></text>
</g>
<g >
<title>FunctionSpaceData: CreateElement (11,114 us, 0.11%)</title><rect x="145.7" y="135" width="1.3" height="15.0" fill="rgb(0,0,0)" rx="2" ry="2" />
<text  x="148.71" y="145.5" ></text>
</g>
<g >
<title>Log_Event_subkernel113_cell_to__cell_integral_otherwise (9,400 us, 0.09%)</title><rect x="515.5" y="263" width="1.1" height="15.0" fill="rgb(0,0,0)" rx="2" ry="2" />
<text  x="518.51" y="273.5" ></text>
</g>
<g >
<title>Log_Event_mtf_solve_1 (97,907 us, 0.95%)</title><rect x="476.0" y="215" width="11.2" height="15.0" fill="rgb(0,0,0)" rx="2" ry="2" />
<text  x="479.03" y="225.5" ></text>
</g>
<g >
<title>Log_Event_subkernel72_cell_to__cell_integral_otherwise (20,345 us, 0.20%)</title><rect x="1141.3" y="263" width="2.3" height="15.0" fill="rgb(0,0,0)" rx="2" ry="2" />
<text  x="1144.29" y="273.5" ></text>
</g>
<g >
<title>KSPSetUp (3,311,934 us, 32.11%)</title><rect x="779.5" y="199" width="378.8" height="15.0" fill="rgb(0,0,0)" rx="2" ry="2" />
<text  x="782.49" y="209.5" >KSPSetUp</text>
</g>
<g >
<title>PCSetUp (20,923 us, 0.20%)</title><rect x="1158.3" y="199" width="2.4" height="15.0" fill="rgb(0,0,0)" rx="2" ry="2" />
<text  x="1161.35" y="209.5" ></text>
</g>
<g >
<title>CreateSparsity (42,954 us, 0.42%)</title><rect x="1151.6" y="247" width="4.9" height="15.0" fill="rgb(0,0,0)" rx="2" ry="2" />
<text  x="1154.62" y="257.5" ></text>
</g>
<g >
<title>CreateFunctionSpace (6,157 us, 0.06%)</title><rect x="143.6" y="103" width="0.7" height="15.0" fill="rgb(0,0,0)" rx="2" ry="2" />
<text  x="146.59" y="113.5" ></text>
</g>
<g >
<title>Parloop_Cells_wrap_slate_loopy_knl_79 (2,492,342 us, 24.16%)</title><rect x="494.4" y="215" width="285.1" height="15.0" fill="rgb(0,0,0)" rx="2" ry="2" />
<text  x="497.38" y="225.5" >Parloop_Cells_wrap_slate_loopy_knl_79</text>
</g>
<g >
<title>firedrake.formmanipulation.ExtractSubBlock.split (3,534 us, 0.03%)</title><rect x="369.8" y="183" width="0.4" height="15.0" fill="rgb(0,0,0)" rx="2" ry="2" />
<text  x="372.79" y="193.5" ></text>
</g>
<g >
<title>Log_Event_subkernel135_cell_to__cell_integral_otherwise (164,479 us, 1.59%)</title><rect x="563.2" y="295" width="18.8" height="15.0" fill="rgb(0,0,0)" rx="2" ry="2" />
<text  x="566.19" y="305.5" ></text>
</g>
<g >
<title>firedrake.ufl_expr.action (4,169 us, 0.04%)</title><rect x="323.0" y="119" width="0.5" height="15.0" fill="rgb(0,0,0)" rx="2" ry="2" />
<text  x="326.05" y="129.5" ></text>
</g>
<g >
<title>Log_Event_subkernel76_cell_to__cell_integral_otherwise (5,668 us, 0.05%)</title><rect x="1145.0" y="263" width="0.6" height="15.0" fill="rgb(0,0,0)" rx="2" ry="2" />
<text  x="1147.97" y="273.5" ></text>
</g>
<g >
<title>Log_Event_slate_loopy_knl_70 (2,032,062 us, 19.70%)</title><rect x="906.6" y="263" width="232.4" height="15.0" fill="rgb(0,0,0)" rx="2" ry="2" />
<text  x="909.56" y="273.5" >Log_Event_slate_loopy_knl_70</text>
</g>
<g >
<title>CreateFunctionSpace (7,983 us, 0.08%)</title><rect x="1180.7" y="183" width="0.9" height="15.0" fill="rgb(0,0,0)" rx="2" ry="2" />
<text  x="1183.66" y="193.5" ></text>
</g>
<g >
<title>Log_Event_tensorshell_knl_130 (1,862,775 us, 18.06%)</title><rect x="528.6" y="263" width="213.1" height="15.0" fill="rgb(0,0,0)" rx="2" ry="2" />
<text  x="531.59" y="273.5" >Log_Event_tensorshell_knl..</text>
</g>
<g >
<title>Log_Event_tensorshell_knl_39 (3,490 us, 0.03%)</title><rect x="487.6" y="231" width="0.4" height="15.0" fill="rgb(0,0,0)" rx="2" ry="2" />
<text  x="490.63" y="241.5" ></text>
</g>
<g >
<title>all (10,315,397 us, 100%)</title><rect x="10.0" y="39" width="1180.0" height="15.0" fill="rgb(0,0,0)" rx="2" ry="2" />
<text  x="13.00" y="49.5" ></text>
</g>
<g >
<title>SCSolve (5,980,191 us, 57.97%)</title><rect x="492.3" y="135" width="684.1" height="15.0" fill="rgb(0,0,0)" rx="2" ry="2" />
<text  x="495.33" y="145.5" >SCSolve</text>
</g>
<g >
<title>CreateFunctionSpace (12,236 us, 0.12%)</title><rect x="1178.9" y="135" width="1.4" height="15.0" fill="rgb(0,0,0)" rx="2" ry="2" />
<text  x="1181.86" y="145.5" ></text>
</g>
<g >
<title>firedrake.extrusion_utils.make_extruded_coords (65,214 us, 0.63%)</title><rect x="136.1" y="87" width="7.5" height="15.0" fill="rgb(0,0,0)" rx="2" ry="2" />
<text  x="139.13" y="97.5" ></text>
</g>
<g >
<title>Log_Event_subkernel143_cell_to__cell_integral_otherwise (9,360 us, 0.09%)</title><rect x="742.2" y="263" width="1.1" height="15.0" fill="rgb(0,0,0)" rx="2" ry="2" />
<text  x="745.23" y="273.5" ></text>
</g>
<g >
<title>PCSetUp (2,380,091 us, 23.07%)</title><rect x="886.1" y="215" width="272.2" height="15.0" fill="rgb(0,0,0)" rx="2" ry="2" />
<text  x="889.08" y="225.5" >PCSetUp</text>
</g>
<g >
<title>firedrake.functionspaceimpl.FunctionSpace.__init__ (23,484 us, 0.23%)</title><rect x="144.3" y="87" width="2.7" height="15.0" fill="rgb(0,0,0)" rx="2" ry="2" />
<text  x="147.29" y="97.5" ></text>
</g>
<g >
<title>PCApply (3,332,857 us, 32.31%)</title><rect x="779.5" y="167" width="381.2" height="15.0" fill="rgb(0,0,0)" rx="2" ry="2" />
<text  x="782.49" y="177.5" >PCApply</text>
</g>
<g >
<title>Log_Event_subkernel128_cell_to__cell_integral_otherwise (10,862 us, 0.11%)</title><rect x="527.3" y="279" width="1.3" height="15.0" fill="rgb(0,0,0)" rx="2" ry="2" />
<text  x="530.34" y="289.5" ></text>
</g>
<g >
<title>Log_Event_subkernel77_interior_facet_vert_to__exterior_facet_vert_integral_otherwise (17,686 us, 0.17%)</title><rect x="1145.6" y="263" width="2.0" height="15.0" fill="rgb(0,0,0)" rx="2" ry="2" />
<text  x="1148.62" y="273.5" ></text>
</g>
<g >
<title>Log_Event_subkernel138_cell_to__cell_integral_otherwise (263,922 us, 2.56%)</title><rect x="711.5" y="279" width="30.2" height="15.0" fill="rgb(0,0,0)" rx="2" ry="2" />
<text  x="714.48" y="289.5" >L..</text>
</g>
<g >
<title>ParLoopExecute (2,169,666 us, 21.03%)</title><rect x="903.4" y="231" width="248.2" height="15.0" fill="rgb(0,0,0)" rx="2" ry="2" />
<text  x="906.42" y="241.5" >ParLoopExecute</text>
</g>
<g >
<title>firedrake.matrix_free.operators.ImplicitMatrixContext.mult (2,510,264 us, 24.34%)</title><rect x="492.3" y="183" width="287.2" height="15.0" fill="rgb(0,0,0)" rx="2" ry="2" />
<text  x="495.33" y="193.5" >firedrake.matrix_free.operators.Imp..</text>
</g>
<g >
<title>firedrake.functionspacedata.get_shared_data (23,484 us, 0.23%)</title><rect x="144.3" y="103" width="2.7" height="15.0" fill="rgb(0,0,0)" rx="2" ry="2" />
<text  x="147.29" y="113.5" ></text>
</g>
<g >
<title>Log_Event_subkernel90_cell_to__cell_integral_otherwise (10,880 us, 0.11%)</title><rect x="751.9" y="279" width="1.2" height="15.0" fill="rgb(0,0,0)" rx="2" ry="2" />
<text  x="754.87" y="289.5" ></text>
</g>
<g >
<title>ParLoopExecute (160,491 us, 1.56%)</title><rect x="474.0" y="167" width="18.3" height="15.0" fill="rgb(0,0,0)" rx="2" ry="2" />
<text  x="476.97" y="177.5" ></text>
</g>
<g >
<title>Log_Event_subkernel116_cell_to__cell_integral_otherwise (18,330 us, 0.18%)</title><rect x="517.3" y="263" width="2.1" height="15.0" fill="rgb(0,0,0)" rx="2" ry="2" />
<text  x="520.34" y="273.5" ></text>
</g>
<g >
<title>KSPSolve (5,843,121 us, 56.64%)</title><rect x="492.3" y="151" width="668.4" height="15.0" fill="rgb(0,0,0)" rx="2" ry="2" />
<text  x="495.33" y="161.5" >KSPSolve</text>
</g>
<g >
<title>Log_Event_mtf_solve_38 (6,954 us, 0.07%)</title><rect x="487.2" y="215" width="0.8" height="15.0" fill="rgb(0,0,0)" rx="2" ry="2" />
<text  x="490.23" y="225.5" ></text>
</g>
<g >
<title>Log_Event_subkernel148_interior_facet_vert_to__exterior_facet_vert_integral_otherwise (22,790 us, 0.22%)</title><rect x="774.3" y="247" width="2.6" height="15.0" fill="rgb(0,0,0)" rx="2" ry="2" />
<text  x="777.29" y="257.5" ></text>
</g>
<g >
<title>FunctionSpaceData: CreateElement (8,563 us, 0.08%)</title><rect x="1179.3" y="199" width="1.0" height="15.0" fill="rgb(0,0,0)" rx="2" ry="2" />
<text  x="1182.28" y="209.5" ></text>
</g>
<g >
<title>Log_Event_subkernel71_interior_facet_vert_to__exterior_facet_vert_integral_otherwise (19,901 us, 0.19%)</title><rect x="1139.0" y="263" width="2.3" height="15.0" fill="rgb(0,0,0)" rx="2" ry="2" />
<text  x="1142.01" y="273.5" ></text>
</g>
<g >
<title>firedrake.interpolation.make_interpolator (36,794 us, 0.36%)</title><rect x="1181.6" y="135" width="4.2" height="15.0" fill="rgb(0,0,0)" rx="2" ry="2" />
<text  x="1184.58" y="145.5" ></text>
</g>
<g >
<title>pyop2.global_kernel.GlobalKernel.compile (28,536 us, 0.28%)</title><rect x="328.3" y="183" width="3.3" height="15.0" fill="rgb(0,0,0)" rx="2" ry="2" />
<text  x="331.33" y="193.5" ></text>
</g>
<g >
<title>PCSetUp (137,070 us, 1.33%)</title><rect x="1160.7" y="151" width="15.7" height="15.0" fill="rgb(0,0,0)" rx="2" ry="2" />
<text  x="1163.74" y="161.5" ></text>
</g>
<g >
<title>Log_Event_slate_loopy_knl_79 (2,484,263 us, 24.08%)</title><rect x="495.3" y="231" width="284.2" height="15.0" fill="rgb(0,0,0)" rx="2" ry="2" />
<text  x="498.31" y="241.5" >Log_Event_slate_loopy_knl_79</text>
</g>
<g >
<title>firedrake.assemble.allocate_matrix (7,646 us, 0.07%)</title><rect x="322.6" y="87" width="0.9" height="15.0" fill="rgb(0,0,0)" rx="2" ry="2" />
<text  x="325.65" y="97.5" ></text>
</g>
<g >
<title>pyop2.global_kernel.GlobalKernel.compile (31,921 us, 0.31%)</title><rect x="1186.3" y="183" width="3.7" height="15.0" fill="rgb(0,0,0)" rx="2" ry="2" />
<text  x="1189.35" y="193.5" ></text>
</g>
<g >
<title>Log_Event_subkernel131_cell_to__cell_integral_otherwise (628,890 us, 6.10%)</title><rect x="639.5" y="279" width="72.0" height="15.0" fill="rgb(0,0,0)" rx="2" ry="2" />
<text  x="642.54" y="289.5" >Log_Eve..</text>
</g>
<g >
<title>firedrake.functionspaceimpl.FunctionSpace.__init__ (8,563 us, 0.08%)</title><rect x="1179.3" y="151" width="1.0" height="15.0" fill="rgb(0,0,0)" rx="2" ry="2" />
<text  x="1182.28" y="161.5" ></text>
</g>
<g >
<title>firedrake.formmanipulation.split_form (11,541 us, 0.11%)</title><rect x="1180.3" y="135" width="1.3" height="15.0" fill="rgb(0,0,0)" rx="2" ry="2" />
<text  x="1183.26" y="145.5" ></text>
</g>
<g >
<title>firedrake.parloops.par_loop (40,414 us, 0.39%)</title><rect x="370.2" y="167" width="4.6" height="15.0" fill="rgb(0,0,0)" rx="2" ry="2" />
<text  x="373.20" y="177.5" ></text>
</g>
<g >
<title>pyop2.global_kernel.GlobalKernel.compile (34,536 us, 0.33%)</title><rect x="370.9" y="215" width="3.9" height="15.0" fill="rgb(0,0,0)" rx="2" ry="2" />
<text  x="373.87" y="225.5" ></text>
</g>
<g >
<title>Log_Event_inits_wrap_slate_loopy_knl_70 (3,806 us, 0.04%)</title><rect x="906.1" y="263" width="0.5" height="15.0" fill="rgb(0,0,0)" rx="2" ry="2" />
<text  x="909.12" y="273.5" ></text>
</g>
<g >
<title>firedrake.ufl_expr.action (5,252 us, 0.05%)</title><rect x="320.7" y="87" width="0.6" height="15.0" fill="rgb(0,0,0)" rx="2" ry="2" />
<text  x="323.69" y="97.5" ></text>
</g>
<g >
<title>Log_Event_mtf_solve_132 (955,626 us, 9.26%)</title><rect x="530.2" y="279" width="109.3" height="15.0" fill="rgb(0,0,0)" rx="2" ry="2" />
<text  x="533.23" y="289.5" >Log_Event_mt..</text>
</g>
<g >
<title>CreateFunctionSpace (23,484 us, 0.23%)</title><rect x="144.3" y="71" width="2.7" height="15.0" fill="rgb(0,0,0)" rx="2" ry="2" />
<text  x="147.29" y="81.5" ></text>
</g>
<g >
<title>Log_Event_subkernel123_cell_to__cell_integral_otherwise (9,378 us, 0.09%)</title><rect x="520.6" y="295" width="1.1" height="15.0" fill="rgb(0,0,0)" rx="2" ry="2" />
<text  x="523.62" y="305.5" ></text>
</g>
<g >
<title>pyop2.global_kernel.GlobalKernel.compile (34,801 us, 0.34%)</title><rect x="139.6" y="135" width="4.0" height="15.0" fill="rgb(0,0,0)" rx="2" ry="2" />
<text  x="142.61" y="145.5" ></text>
</g>
<g >
<title>Log_Event_tensorshell_knl_134 (17,742 us, 0.17%)</title><rect x="633.5" y="295" width="2.0" height="15.0" fill="rgb(0,0,0)" rx="2" ry="2" />
<text  x="636.47" y="305.5" ></text>
</g>
<g >
<title>KSPSolve (7,455,918 us, 72.28%)</title><rect x="323.5" y="103" width="852.9" height="15.0" fill="rgb(0,0,0)" rx="2" ry="2" />
<text  x="326.52" y="113.5" >KSPSolve</text>
</g>
<g >
<title>firedrake (10,315,397 us, 100.00%)</title><rect x="10.0" y="55" width="1180.0" height="15.0" fill="rgb(0,0,0)" rx="2" ry="2" />
<text  x="13.00" y="65.5" >firedrake</text>
</g>
<g >
<title>firedrake.functionspaceimpl.FunctionSpace.__init__ (4,351 us, 0.04%)</title><rect x="1181.1" y="199" width="0.5" height="15.0" fill="rgb(0,0,0)" rx="2" ry="2" />
<text  x="1184.08" y="209.5" ></text>
</g>
<g >
<title>Log_Event_subkernel136_cell_to__cell_integral_otherwise (449,893 us, 4.36%)</title><rect x="582.0" y="295" width="51.5" height="15.0" fill="rgb(0,0,0)" rx="2" ry="2" />
<text  x="585.01" y="305.5" >Log_..</text>
</g>
<g >
<title>Log_Event_mtf_solve_81 (121,865 us, 1.18%)</title><rect x="746.1" y="247" width="14.0" height="15.0" fill="rgb(0,0,0)" rx="2" ry="2" />
<text  x="749.15" y="257.5" ></text>
</g>
<g >
<title>Log_Event_mtf_solve_14 (48,513 us, 0.47%)</title><rect x="476.0" y="247" width="5.6" height="15.0" fill="rgb(0,0,0)" rx="2" ry="2" />
<text  x="479.03" y="257.5" ></text>
</g>
<g >
<title>firedrake.functionspacedata.get_shared_data (8,563 us, 0.08%)</title><rect x="1179.3" y="167" width="1.0" height="15.0" fill="rgb(0,0,0)" rx="2" ry="2" />
<text  x="1182.28" y="177.5" ></text>
</g>
<g >
<title>firedrake.formmanipulation.ExtractSubBlock.split (11,541 us, 0.11%)</title><rect x="1180.3" y="151" width="1.3" height="15.0" fill="rgb(0,0,0)" rx="2" ry="2" />
<text  x="1183.26" y="161.5" ></text>
</g>
<g >
<title>pyop2.global_kernel.GlobalKernel.compile (34,884 us, 0.34%)</title><rect x="1165.3" y="199" width="3.9" height="15.0" fill="rgb(0,0,0)" rx="2" ry="2" />
<text  x="1168.26" y="209.5" ></text>
</g>
<g >
<title>MatMult (2,510,264 us, 24.34%)</title><rect x="492.3" y="167" width="287.2" height="15.0" fill="rgb(0,0,0)" rx="2" ry="2" />
<text  x="495.33" y="177.5" >MatMult</text>
</g>
<g >
<title>firedrake.parloops.par_loop (36,842 us, 0.36%)</title><rect x="1185.8" y="135" width="4.2" height="15.0" fill="rgb(0,0,0)" rx="2" ry="2" />
<text  x="1188.79" y="145.5" ></text>
</g>
<g >
<title>Parloop_Cells_wrap_par_loop_kernel (31,921 us, 0.31%)</title><rect x="1186.3" y="167" width="3.7" height="15.0" fill="rgb(0,0,0)" rx="2" ry="2" />
<text  x="1189.35" y="177.5" ></text>
</g>
<g >
<title>firedrake.functionspacedata.get_shared_data (6,157 us, 0.06%)</title><rect x="143.6" y="135" width="0.7" height="15.0" fill="rgb(0,0,0)" rx="2" ry="2" />
<text  x="146.59" y="145.5" ></text>
</g>
<g >
<title>Log_Event_subkernel133_cell_to__cell_integral_otherwise (236,372 us, 2.29%)</title><rect x="536.2" y="295" width="27.0" height="15.0" fill="rgb(0,0,0)" rx="2" ry="2" />
<text  x="539.15" y="305.5" >L..</text>
</g>
<g >
<title>Log_Event_subkernel149_interior_facet_vert_to__exterior_facet_vert_integral_otherwise (22,658 us, 0.22%)</title><rect x="776.9" y="247" width="2.6" height="15.0" fill="rgb(0,0,0)" rx="2" ry="2" />
<text  x="779.90" y="257.5" ></text>
</g>
<g >
<title>firedrake.variational_solver.NonlinearVariationalSolver.__init__ (7,646 us, 0.07%)</title><rect x="322.6" y="71" width="0.9" height="15.0" fill="rgb(0,0,0)" rx="2" ry="2" />
<text  x="325.65" y="81.5" ></text>
</g>
<g >
<title>HybridRHS (1,027,298 us, 9.96%)</title><rect x="374.8" y="151" width="117.5" height="15.0" fill="rgb(0,0,0)" rx="2" ry="2" />
<text  x="377.82" y="161.5" >HybridRHS</text>
</g>
<g >
<title>firedrake.variational_solver.NonlinearVariationalSolver.solve (7,574,630 us, 73.43%)</title><rect x="323.5" y="71" width="866.5" height="15.0" fill="rgb(0,0,0)" rx="2" ry="2" />
<text  x="326.52" y="81.5" >firedrake.variational_solver.NonlinearVariationalSolver.solve</text>
</g>
<g >
<title>Log_Event_subkernel17_cell_to__cell_integral_otherwise (8,387 us, 0.08%)</title><rect x="478.0" y="263" width="1.0" height="15.0" fill="rgb(0,0,0)" rx="2" ry="2" />
<text  x="481.00" y="273.5" ></text>
</g>
</g>
</svg>
