<?xml version="1.0" standalone="no"?>
<!DOCTYPE svg PUBLIC "-//W3C//DTD SVG 1.1//EN" "http://www.w3.org/Graphics/SVG/1.1/DTD/svg11.dtd">
<svg version="1.1" width="1200" height="395" onload="init(evt)" viewBox="0 0 1200 395" xmlns="http://www.w3.org/2000/svg" xmlns:xlink="http://www.w3.org/1999/xlink">
<!-- Flame graph stack visualization. See https://github.com/brendangregg/FlameGraph for latest version, and http://www.brendangregg.com/flamegraphs.html for examples. -->
<!-- NOTES:  -->
<defs>
	<linearGradient id="background" y1="0" y2="1" x1="0" x2="0" >
		<stop stop-color="#eeeeee" offset="5%" />
		<stop stop-color="#eeeeb0" offset="95%" />
	</linearGradient>
</defs>
<style type="text/css">
	text { font-family:Verdana; font-size:13px; fill:rgb(0,0,0); }
	#search, #ignorecase { opacity:0.1; cursor:pointer; }
	#search:hover, #search.show, #ignorecase:hover, #ignorecase.show { opacity:1; }
	#subtitle { text-anchor:middle; font-color:rgb(160,160,160); }
	#title { text-anchor:middle; font-size:18px}
	#unzoom { cursor:pointer; }
	#frames > *:hover { stroke:black; stroke-width:0.5; cursor:pointer; }
	.hide { display:none; }
	.parent { opacity:0.5; }
</style>
<script type="text/ecmascript">
<![CDATA[
	"use strict";
	var details, searchbtn, unzoombtn, matchedtxt, svg, searching, currentSearchTerm, ignorecase, ignorecaseBtn;
	function init(evt) {
		details = document.getElementById("details").firstChild;
		searchbtn = document.getElementById("search");
		ignorecaseBtn = document.getElementById("ignorecase");
		unzoombtn = document.getElementById("unzoom");
		matchedtxt = document.getElementById("matched");
		svg = document.getElementsByTagName("svg")[0];
		searching = 0;
		currentSearchTerm = null;

		// use GET parameters to restore a flamegraphs state.
		var params = get_params();
		if (params.x && params.y)
			zoom(find_group(document.querySelector('[x="' + params.x + '"][y="' + params.y + '"]')));
                if (params.s) search(params.s);
	}

	// event listeners
	window.addEventListener("click", function(e) {
		var target = find_group(e.target);
		if (target) {
			if (target.nodeName == "a") {
				if (e.ctrlKey === false) return;
				e.preventDefault();
			}
			if (target.classList.contains("parent")) unzoom();
			zoom(target);
			if (!document.querySelector('.parent')) {
				clearzoom();
				return;
			}

			// set parameters for zoom state
			var el = target.querySelector("rect");
			if (el && el.attributes && el.attributes.y && el.attributes._orig_x) {
				var params = get_params()
				params.x = el.attributes._orig_x.value;
				params.y = el.attributes.y.value;
				history.replaceState(null, null, parse_params(params));
			}
		}
		else if (e.target.id == "unzoom") clearzoom();
		else if (e.target.id == "search") search_prompt();
		else if (e.target.id == "ignorecase") toggle_ignorecase();
	}, false)

	// mouse-over for info
	// show
	window.addEventListener("mouseover", function(e) {
		var target = find_group(e.target);
		if (target) details.nodeValue = "Function: " + g_to_text(target);
	}, false)

	// clear
	window.addEventListener("mouseout", function(e) {
		var target = find_group(e.target);
		if (target) details.nodeValue = ' ';
	}, false)

	// ctrl-F for search
	// ctrl-I to toggle case-sensitive search
	window.addEventListener("keydown",function (e) {
		if (e.keyCode === 114 || (e.ctrlKey && e.keyCode === 70)) {
			e.preventDefault();
			search_prompt();
		}
		else if (e.ctrlKey && e.keyCode === 73) {
			e.preventDefault();
			toggle_ignorecase();
		}
	}, false)

	// functions
	function get_params() {
		var params = {};
		var paramsarr = window.location.search.substr(1).split('&');
		for (var i = 0; i < paramsarr.length; ++i) {
			var tmp = paramsarr[i].split("=");
			if (!tmp[0] || !tmp[1]) continue;
			params[tmp[0]]  = decodeURIComponent(tmp[1]);
		}
		return params;
	}
	function parse_params(params) {
		var uri = "?";
		for (var key in params) {
			uri += key + '=' + encodeURIComponent(params[key]) + '&';
		}
		if (uri.slice(-1) == "&")
			uri = uri.substring(0, uri.length - 1);
		if (uri == '?')
			uri = window.location.href.split('?')[0];
		return uri;
	}
	function find_child(node, selector) {
		var children = node.querySelectorAll(selector);
		if (children.length) return children[0];
	}
	function find_group(node) {
		var parent = node.parentElement;
		if (!parent) return;
		if (parent.id == "frames") return node;
		return find_group(parent);
	}
	function orig_save(e, attr, val) {
		if (e.attributes["_orig_" + attr] != undefined) return;
		if (e.attributes[attr] == undefined) return;
		if (val == undefined) val = e.attributes[attr].value;
		e.setAttribute("_orig_" + attr, val);
	}
	function orig_load(e, attr) {
		if (e.attributes["_orig_"+attr] == undefined) return;
		e.attributes[attr].value = e.attributes["_orig_" + attr].value;
		e.removeAttribute("_orig_"+attr);
	}
	function g_to_text(e) {
		var text = find_child(e, "title").firstChild.nodeValue;
		return (text)
	}
	function g_to_func(e) {
		var func = g_to_text(e);
		// if there's any manipulation we want to do to the function
		// name before it's searched, do it here before returning.
		return (func);
	}
	function update_text(e) {
		var r = find_child(e, "rect");
		var t = find_child(e, "text");
		var w = parseFloat(r.attributes.width.value) -3;
		var txt = find_child(e, "title").textContent.replace(/\([^(]*\)$/,"");
		t.attributes.x.value = parseFloat(r.attributes.x.value) + 3;

		// Smaller than this size won't fit anything
		if (w < 2 * 13 * 0.59) {
			t.textContent = "";
			return;
		}

		t.textContent = txt;
		// Fit in full text width
		if (/^ *$/.test(txt) || t.getSubStringLength(0, txt.length) < w)
			return;

		for (var x = txt.length - 2; x > 0; x--) {
			if (t.getSubStringLength(0, x + 2) <= w) {
				t.textContent = txt.substring(0, x) + "..";
				return;
			}
		}
		t.textContent = "";
	}

	// zoom
	function zoom_reset(e) {
		if (e.attributes != undefined) {
			orig_load(e, "x");
			orig_load(e, "width");
		}
		if (e.childNodes == undefined) return;
		for (var i = 0, c = e.childNodes; i < c.length; i++) {
			zoom_reset(c[i]);
		}
	}
	function zoom_child(e, x, ratio) {
		if (e.attributes != undefined) {
			if (e.attributes.x != undefined) {
				orig_save(e, "x");
				e.attributes.x.value = (parseFloat(e.attributes.x.value) - x - 10) * ratio + 10;
				if (e.tagName == "text")
					e.attributes.x.value = find_child(e.parentNode, "rect[x]").attributes.x.value + 3;
			}
			if (e.attributes.width != undefined) {
				orig_save(e, "width");
				e.attributes.width.value = parseFloat(e.attributes.width.value) * ratio;
			}
		}

		if (e.childNodes == undefined) return;
		for (var i = 0, c = e.childNodes; i < c.length; i++) {
			zoom_child(c[i], x - 10, ratio);
		}
	}
	function zoom_parent(e) {
		if (e.attributes) {
			if (e.attributes.x != undefined) {
				orig_save(e, "x");
				e.attributes.x.value = 10;
			}
			if (e.attributes.width != undefined) {
				orig_save(e, "width");
				e.attributes.width.value = parseInt(svg.width.baseVal.value) - (10 * 2);
			}
		}
		if (e.childNodes == undefined) return;
		for (var i = 0, c = e.childNodes; i < c.length; i++) {
			zoom_parent(c[i]);
		}
	}
	function zoom(node) {
		var attr = find_child(node, "rect").attributes;
		var width = parseFloat(attr.width.value);
		var xmin = parseFloat(attr.x.value);
		var xmax = parseFloat(xmin + width);
		var ymin = parseFloat(attr.y.value);
		var ratio = (svg.width.baseVal.value - 2 * 10) / width;

		// XXX: Workaround for JavaScript float issues (fix me)
		var fudge = 0.0001;

		unzoombtn.classList.remove("hide");

		var el = document.getElementById("frames").children;
		for (var i = 0; i < el.length; i++) {
			var e = el[i];
			var a = find_child(e, "rect").attributes;
			var ex = parseFloat(a.x.value);
			var ew = parseFloat(a.width.value);
			var upstack;
			// Is it an ancestor
			if (1 == 0) {
				upstack = parseFloat(a.y.value) > ymin;
			} else {
				upstack = parseFloat(a.y.value) < ymin;
			}
			if (upstack) {
				// Direct ancestor
				if (ex <= xmin && (ex+ew+fudge) >= xmax) {
					e.classList.add("parent");
					zoom_parent(e);
					update_text(e);
				}
				// not in current path
				else
					e.classList.add("hide");
			}
			// Children maybe
			else {
				// no common path
				if (ex < xmin || ex + fudge >= xmax) {
					e.classList.add("hide");
				}
				else {
					zoom_child(e, xmin, ratio);
					update_text(e);
				}
			}
		}
		search();
	}
	function unzoom() {
		unzoombtn.classList.add("hide");
		var el = document.getElementById("frames").children;
		for(var i = 0; i < el.length; i++) {
			el[i].classList.remove("parent");
			el[i].classList.remove("hide");
			zoom_reset(el[i]);
			update_text(el[i]);
		}
		search();
	}
	function clearzoom() {
		unzoom();

		// remove zoom state
		var params = get_params();
		if (params.x) delete params.x;
		if (params.y) delete params.y;
		history.replaceState(null, null, parse_params(params));
	}

	// search
	function toggle_ignorecase() {
		ignorecase = !ignorecase;
		if (ignorecase) {
			ignorecaseBtn.classList.add("show");
		} else {
			ignorecaseBtn.classList.remove("show");
		}
		reset_search();
		search();
	}
	function reset_search() {
		var el = document.querySelectorAll("#frames rect");
		for (var i = 0; i < el.length; i++) {
			orig_load(el[i], "fill")
		}
		var params = get_params();
		delete params.s;
		history.replaceState(null, null, parse_params(params));
	}
	function search_prompt() {
		if (!searching) {
			var term = prompt("Enter a search term (regexp " +
			    "allowed, eg: ^ext4_)"
			    + (ignorecase ? ", ignoring case" : "")
			    + "\nPress Ctrl-i to toggle case sensitivity", "");
			if (term != null) search(term);
		} else {
			reset_search();
			searching = 0;
			currentSearchTerm = null;
			searchbtn.classList.remove("show");
			searchbtn.firstChild.nodeValue = "Search"
			matchedtxt.classList.add("hide");
			matchedtxt.firstChild.nodeValue = ""
		}
	}
	function search(term) {
		if (term) currentSearchTerm = term;

		var re = new RegExp(currentSearchTerm, ignorecase ? 'i' : '');
		var el = document.getElementById("frames").children;
		var matches = new Object();
		var maxwidth = 0;
		for (var i = 0; i < el.length; i++) {
			var e = el[i];
			var func = g_to_func(e);
			var rect = find_child(e, "rect");
			if (func == null || rect == null)
				continue;

			// Save max width. Only works as we have a root frame
			var w = parseFloat(rect.attributes.width.value);
			if (w > maxwidth)
				maxwidth = w;

			if (func.match(re)) {
				// highlight
				var x = parseFloat(rect.attributes.x.value);
				orig_save(rect, "fill");
				rect.attributes.fill.value = "rgb(230,0,230)";

				// remember matches
				if (matches[x] == undefined) {
					matches[x] = w;
				} else {
					if (w > matches[x]) {
						// overwrite with parent
						matches[x] = w;
					}
				}
				searching = 1;
			}
		}
		if (!searching)
			return;
		var params = get_params();
		params.s = currentSearchTerm;
		history.replaceState(null, null, parse_params(params));

		searchbtn.classList.add("show");
		searchbtn.firstChild.nodeValue = "Reset Search";

		// calculate percent matched, excluding vertical overlap
		var count = 0;
		var lastx = -1;
		var lastw = 0;
		var keys = Array();
		for (k in matches) {
			if (matches.hasOwnProperty(k))
				keys.push(k);
		}
		// sort the matched frames by their x location
		// ascending, then width descending
		keys.sort(function(a, b){
			return a - b;
		});
		// Step through frames saving only the biggest bottom-up frames
		// thanks to the sort order. This relies on the tree property
		// where children are always smaller than their parents.
		var fudge = 0.0001;	// JavaScript floating point
		for (var k in keys) {
			var x = parseFloat(keys[k]);
			var w = matches[keys[k]];
			if (x >= lastx + lastw - fudge) {
				count += w;
				lastx = x;
				lastw = w;
			}
		}
		// display matched percent
		matchedtxt.classList.remove("hide");
		var pct = 100 * count / maxwidth;
		if (pct != 100) pct = pct.toFixed(1)
		matchedtxt.firstChild.nodeValue = "Matched: " + pct + "%";
	}
]]>
</script>
<rect x="0.0" y="0" width="1200.0" height="395.0" fill="url(#background)"  />
<text id="title" x="600.00" y="26" >Firedrake example</text>
<text id="details" x="10.00" y="377" > </text>
<text id="unzoom" x="10.00" y="26" class="hide">Reset Zoom</text>
<text id="search" x="1090.00" y="26" >Search</text>
<text id="ignorecase" x="1174.00" y="26" >ic</text>
<text id="matched" x="1090.00" y="377" > </text>
<g id="frames">
<g >
<title>pyop2.global_kernel.GlobalKernel.compile (11,069,008 us, 4.78%)</title><rect x="292.4" y="151" width="56.3" height="15.0" fill="rgb(0,0,0)" rx="2" ry="2" />
<text  x="295.38" y="161.5" >pyop2..</text>
</g>
<g >
<title>Parloop_Cells_wrap_expression_kernel (1,077,207 us, 0.46%)</title><rect x="869.6" y="327" width="5.5" height="15.0" fill="rgb(0,0,0)" rx="2" ry="2" />
<text  x="872.61" y="337.5" ></text>
</g>
<g >
<title>pyop2.global_kernel.GlobalKernel.compile (4,431,309 us, 1.91%)</title><rect x="1160.1" y="151" width="22.5" height="15.0" fill="rgb(0,0,0)" rx="2" ry="2" />
<text  x="1163.08" y="161.5" ></text>
</g>
<g >
<title>Parloop_IntFacets_wrap_form0_interior_facet_vert_integral_otherwise (2,475,463 us, 1.07%)</title><rect x="136.0" y="119" width="12.6" height="15.0" fill="rgb(0,0,0)" rx="2" ry="2" />
<text  x="139.03" y="129.5" ></text>
</g>
<g >
<title>pyop2.global_kernel.GlobalKernel.compile (2,208,950 us, 0.95%)</title><rect x="48.2" y="119" width="11.3" height="15.0" fill="rgb(0,0,0)" rx="2" ry="2" />
<text  x="51.21" y="129.5" ></text>
</g>
<g >
<title>Parloop_Cells_wrap_form_exterior_facet_top_integral_otherwise (1,322,661 us, 0.57%)</title><rect x="34.5" y="103" width="6.8" height="15.0" fill="rgb(0,0,0)" rx="2" ry="2" />
<text  x="37.52" y="113.5" ></text>
</g>
<g >
<title>pyop2.global_kernel.GlobalKernel.compile (2,475,463 us, 1.07%)</title><rect x="136.0" y="135" width="12.6" height="15.0" fill="rgb(0,0,0)" rx="2" ry="2" />
<text  x="139.03" y="145.5" ></text>
</g>
<g >
<title>firedrake.mg.embedded.TransferManager.op (2,404,098 us, 1.04%)</title><rect x="865.1" y="247" width="12.2" height="15.0" fill="rgb(0,0,0)" rx="2" ry="2" />
<text  x="868.09" y="257.5" ></text>
</g>
<g >
<title>firedrake (231,770,596 us, 100.00%)</title><rect x="10.0" y="55" width="1180.0" height="15.0" fill="rgb(0,0,0)" rx="2" ry="2" />
<text  x="13.00" y="65.5" >firedrake</text>
</g>
<g >
<title>pyop2.global_kernel.GlobalKernel.compile (602,951 us, 0.26%)</title><rect x="859.8" y="311" width="3.0" height="15.0" fill="rgb(0,0,0)" rx="2" ry="2" />
<text  x="862.78" y="321.5" ></text>
</g>
<g >
<title>firedrake.assemble.assemble (26,653,081 us, 11.50%)</title><rect x="148.6" y="103" width="135.7" height="15.0" fill="rgb(0,0,0)" rx="2" ry="2" />
<text  x="151.63" y="113.5" >firedrake.assem..</text>
</g>
<g >
<title>firedrake.assemble_expressions.assemble_expression (781,547 us, 0.34%)</title><rect x="69.7" y="87" width="4.0" height="15.0" fill="rgb(0,0,0)" rx="2" ry="2" />
<text  x="72.71" y="97.5" ></text>
</g>
<g >
<title>firedrake.projection.project (41,742,045 us, 18.01%)</title><rect x="79.9" y="87" width="212.5" height="15.0" fill="rgb(0,0,0)" rx="2" ry="2" />
<text  x="82.86" y="97.5" >firedrake.projection.proj..</text>
</g>
<g >
<title>firedrake.tsfc_interface.compile_form (1,580,401 us, 0.68%)</title><rect x="284.3" y="103" width="8.1" height="15.0" fill="rgb(0,0,0)" rx="2" ry="2" />
<text  x="287.33" y="113.5" ></text>
</g>
<g >
<title>Parloop_Cells_wrap_form00_cell_integral_otherwise (14,544,628 us, 6.28%)</title><rect x="148.6" y="135" width="74.1" height="15.0" fill="rgb(0,0,0)" rx="2" ry="2" />
<text  x="151.63" y="145.5" >Parloop..</text>
</g>
<g >
<title>pyop2.global_kernel.GlobalKernel.compile (917,314 us, 0.40%)</title><rect x="411.4" y="215" width="4.7" height="15.0" fill="rgb(0,0,0)" rx="2" ry="2" />
<text  x="414.39" y="225.5" ></text>
</g>
<g >
<title>ParLoopExecute (691,104 us, 0.30%)</title><rect x="1133.1" y="151" width="3.5" height="15.0" fill="rgb(0,0,0)" rx="2" ry="2" />
<text  x="1136.06" y="161.5" ></text>
</g>
<g >
<title>pyop2.global_kernel.GlobalKernel.compile (25,325,499 us, 10.93%)</title><rect x="518.3" y="199" width="128.9" height="15.0" fill="rgb(0,0,0)" rx="2" ry="2" />
<text  x="521.26" y="209.5" >pyop2.global_k..</text>
</g>
<g >
<title>PCApply (1,326,871 us, 0.57%)</title><rect x="858.3" y="183" width="6.8" height="15.0" fill="rgb(0,0,0)" rx="2" ry="2" />
<text  x="861.34" y="193.5" ></text>
</g>
<g >
<title>pyop2.global_kernel.GlobalKernel.compile (5,433,413 us, 2.34%)</title><rect x="889.9" y="199" width="27.7" height="15.0" fill="rgb(0,0,0)" rx="2" ry="2" />
<text  x="892.90" y="209.5" >p..</text>
</g>
<g >
<title>PCSetUp (3,496,464 us, 1.51%)</title><rect x="865.1" y="183" width="17.8" height="15.0" fill="rgb(0,0,0)" rx="2" ry="2" />
<text  x="868.09" y="193.5" ></text>
</g>
<g >
<title>HybridRHS (35,575,058 us, 15.35%)</title><rect x="677.2" y="151" width="181.1" height="15.0" fill="rgb(0,0,0)" rx="2" ry="2" />
<text  x="680.22" y="161.5" >HybridRHS</text>
</g>
<g >
<title>firedrake.tsfc_interface.compile_form (2,353,085 us, 1.02%)</title><rect x="846.4" y="167" width="11.9" height="15.0" fill="rgb(0,0,0)" rx="2" ry="2" />
<text  x="849.36" y="177.5" ></text>
</g>
<g >
<title>ParLoopExecute (8,190,454 us, 3.53%)</title><rect x="28.0" y="87" width="41.7" height="15.0" fill="rgb(0,0,0)" rx="2" ry="2" />
<text  x="31.01" y="97.5" >Par..</text>
</g>
<g >
<title>ParLoopExecute (1,077,207 us, 0.46%)</title><rect x="869.6" y="311" width="5.5" height="15.0" fill="rgb(0,0,0)" rx="2" ry="2" />
<text  x="872.61" y="321.5" ></text>
</g>
<g >
<title>ParLoopExecute (11,069,008 us, 4.78%)</title><rect x="292.4" y="119" width="56.3" height="15.0" fill="rgb(0,0,0)" rx="2" ry="2" />
<text  x="295.38" y="129.5" >ParLo..</text>
</g>
<g >
<title>firedrake.norms.norm (12,483,899 us, 5.39%)</title><rect x="292.4" y="87" width="63.5" height="15.0" fill="rgb(0,0,0)" rx="2" ry="2" />
<text  x="295.38" y="97.5" >firedr..</text>
</g>
<g >
<title>firedrake.assemble.assemble (12,483,899 us, 5.39%)</title><rect x="292.4" y="103" width="63.5" height="15.0" fill="rgb(0,0,0)" rx="2" ry="2" />
<text  x="295.38" y="113.5" >firedr..</text>
</g>
<g >
<title>Parloop_Cells_wrap_form00_cell_integral_otherwise (5,433,413 us, 2.34%)</title><rect x="889.9" y="183" width="27.7" height="15.0" fill="rgb(0,0,0)" rx="2" ry="2" />
<text  x="892.90" y="193.5" >P..</text>
</g>
<g >
<title>ParLoopExecute (31,981,110 us, 13.80%)</title><rect x="683.5" y="167" width="162.9" height="15.0" fill="rgb(0,0,0)" rx="2" ry="2" />
<text  x="686.53" y="177.5" >ParLoopExecute</text>
</g>
<g >
<title>pyop2.global_kernel.GlobalKernel.compile (893,126 us, 0.39%)</title><rect x="15.7" y="135" width="4.6" height="15.0" fill="rgb(0,0,0)" rx="2" ry="2" />
<text  x="18.73" y="145.5" ></text>
</g>
<g >
<title>firedrake.interpolation.Interpolator.interpolate (1,077,207 us, 0.46%)</title><rect x="869.6" y="295" width="5.5" height="15.0" fill="rgb(0,0,0)" rx="2" ry="2" />
<text  x="872.61" y="305.5" ></text>
</g>
<g >
<title>firedrake.pointquery_utils.to_reference_coordinates (404,850 us, 0.17%)</title><rect x="875.3" y="279" width="2.0" height="15.0" fill="rgb(0,0,0)" rx="2" ry="2" />
<text  x="878.27" y="289.5" ></text>
</g>
<g >
<title>PCSetUp (7,190,828 us, 3.10%)</title><rect x="882.9" y="151" width="36.6" height="15.0" fill="rgb(0,0,0)" rx="2" ry="2" />
<text  x="885.89" y="161.5" >PC..</text>
</g>
<g >
<title>pyop2.global_kernel.GlobalKernel.compile (1,319,406 us, 0.57%)</title><rect x="101.8" y="135" width="6.8" height="15.0" fill="rgb(0,0,0)" rx="2" ry="2" />
<text  x="104.84" y="145.5" ></text>
</g>
<g >
<title>HybridInit (42,636,370 us, 18.40%)</title><rect x="919.5" y="119" width="217.1" height="15.0" fill="rgb(0,0,0)" rx="2" ry="2" />
<text  x="922.50" y="129.5" >HybridInit</text>
</g>
<g >
<title>pyop2.global_kernel.GlobalKernel.compile (1,690,696 us, 0.73%)</title><rect x="222.7" y="151" width="8.6" height="15.0" fill="rgb(0,0,0)" rx="2" ry="2" />
<text  x="225.68" y="161.5" ></text>
</g>
<g >
<title>Parloop_Cells_wrap_par_loop_kernel (920,867 us, 0.40%)</title><rect x="672.5" y="199" width="4.7" height="15.0" fill="rgb(0,0,0)" rx="2" ry="2" />
<text  x="675.53" y="209.5" ></text>
</g>
<g >
<title>firedrake.pointquery_utils.to_reference_coordinates (414,702 us, 0.18%)</title><rect x="862.8" y="279" width="2.2" height="15.0" fill="rgb(0,0,0)" rx="2" ry="2" />
<text  x="865.85" y="289.5" ></text>
</g>
<g >
<title>Parloop_Cells_wrap_form_interior_facet_horiz_integral_otherwise (1,365,597 us, 0.59%)</title><rect x="41.3" y="103" width="6.9" height="15.0" fill="rgb(0,0,0)" rx="2" ry="2" />
<text  x="44.26" y="113.5" ></text>
</g>
<g >
<title>firedrake.tsfc_interface.compile_form (1,445,819 us, 0.62%)</title><rect x="1182.6" y="119" width="7.4" height="15.0" fill="rgb(0,0,0)" rx="2" ry="2" />
<text  x="1185.64" y="129.5" ></text>
</g>
<g >
<title>Parloop_Cells_wrap_form0_interior_facet_horiz_integral_otherwise (1,592,580 us, 0.69%)</title><rect x="115.3" y="119" width="8.1" height="15.0" fill="rgb(0,0,0)" rx="2" ry="2" />
<text  x="118.33" y="129.5" ></text>
</g>
<g >
<title>Parloop_Cells_wrap_wrap_slate_loopy_knl_4 (31,981,110 us, 13.80%)</title><rect x="683.5" y="183" width="162.9" height="15.0" fill="rgb(0,0,0)" rx="2" ry="2" />
<text  x="686.53" y="193.5" >Parloop_Cells_wrap_..</text>
</g>
<g >
<title>ParLoopExecute (591,773 us, 0.26%)</title><rect x="866.6" y="279" width="3.0" height="15.0" fill="rgb(0,0,0)" rx="2" ry="2" />
<text  x="869.60" y="289.5" ></text>
</g>
<g >
<title>firedrake.mg.embedded.TransferManager.op (1,265,862 us, 0.55%)</title><rect x="858.5" y="247" width="6.5" height="15.0" fill="rgb(0,0,0)" rx="2" ry="2" />
<text  x="861.52" y="257.5" ></text>
</g>
<g >
<title>firedrake.interpolation.interpolate (1,111,562 us, 0.48%)</title><rect x="869.6" y="279" width="5.7" height="15.0" fill="rgb(0,0,0)" rx="2" ry="2" />
<text  x="872.61" y="289.5" ></text>
</g>
<g >
<title>firedrake.interpolation.make_interpolator (34,355 us, 0.01%)</title><rect x="875.1" y="295" width="0.2" height="15.0" fill="rgb(0,0,0)" rx="2" ry="2" />
<text  x="878.10" y="305.5" ></text>
</g>
<g >
<title>pyop2.global_kernel.GlobalKernel.compile (36,813,144 us, 15.88%)</title><rect x="929.1" y="183" width="187.5" height="15.0" fill="rgb(0,0,0)" rx="2" ry="2" />
<text  x="932.13" y="193.5" >pyop2.global_kernel.Gl..</text>
</g>
<g >
<title>firedrake.tsfc_interface.compile_form (2,016,523 us, 0.87%)</title><rect x="274.1" y="119" width="10.2" height="15.0" fill="rgb(0,0,0)" rx="2" ry="2" />
<text  x="277.06" y="129.5" ></text>
</g>
<g >
<title>ParLoopExecute (781,547 us, 0.34%)</title><rect x="69.7" y="119" width="4.0" height="15.0" fill="rgb(0,0,0)" rx="2" ry="2" />
<text  x="72.71" y="129.5" ></text>
</g>
<g >
<title>firedrake.mg.interface.prolong (1,265,862 us, 0.55%)</title><rect x="858.5" y="263" width="6.5" height="15.0" fill="rgb(0,0,0)" rx="2" ry="2" />
<text  x="861.52" y="273.5" ></text>
</g>
<g >
<title>SCBackSub (52,540,643 us, 22.67%)</title><rect x="405.0" y="135" width="267.5" height="15.0" fill="rgb(0,0,0)" rx="2" ry="2" />
<text  x="408.03" y="145.5" >SCBackSub</text>
</g>
<g >
<title>firedrake.assemble.allocate_matrix (36,327 us, 0.02%)</title><rect x="273.9" y="119" width="0.2" height="15.0" fill="rgb(0,0,0)" rx="2" ry="2" />
<text  x="276.88" y="129.5" ></text>
</g>
<g >
<title>Parloop_set_#x7f0d32758850_wrap_expression_kernel (401,554 us, 0.17%)</title><rect x="69.7" y="135" width="2.1" height="15.0" fill="rgb(0,0,0)" rx="2" ry="2" />
<text  x="72.71" y="145.5" ></text>
</g>
<g >
<title>PCApply (101,050,731 us, 43.60%)</title><rect x="405.0" y="119" width="514.5" height="15.0" fill="rgb(0,0,0)" rx="2" ry="2" />
<text  x="408.03" y="129.5" >PCApply</text>
</g>
<g >
<title>firedrake.dmhooks.coarsen (2,404,098 us, 1.04%)</title><rect x="865.1" y="231" width="12.2" height="15.0" fill="rgb(0,0,0)" rx="2" ry="2" />
<text  x="868.09" y="241.5" ></text>
</g>
<g >
<title>ParLoopExecute (9,047,490 us, 3.90%)</title><rect x="1136.6" y="119" width="46.0" height="15.0" fill="rgb(0,0,0)" rx="2" ry="2" />
<text  x="1139.58" y="129.5" >ParL..</text>
</g>
<g >
<title>firedrake.extrusion_utils.make_extruded_coords (925,141 us, 0.40%)</title><rect x="15.6" y="87" width="4.7" height="15.0" fill="rgb(0,0,0)" rx="2" ry="2" />
<text  x="18.57" y="97.5" ></text>
</g>
<g >
<title>pyop2.global_kernel.GlobalKernel.compile (1,278,221 us, 0.55%)</title><rect x="28.0" y="119" width="6.5" height="15.0" fill="rgb(0,0,0)" rx="2" ry="2" />
<text  x="31.01" y="129.5" ></text>
</g>
<g >
<title>pyop2.global_kernel.GlobalKernel.compile (4,318,326 us, 1.86%)</title><rect x="79.9" y="135" width="21.9" height="15.0" fill="rgb(0,0,0)" rx="2" ry="2" />
<text  x="82.86" y="145.5" ></text>
</g>
<g >
<title>pyop2.global_kernel.GlobalKernel.compile (591,773 us, 0.26%)</title><rect x="866.6" y="311" width="3.0" height="15.0" fill="rgb(0,0,0)" rx="2" ry="2" />
<text  x="869.60" y="321.5" ></text>
</g>
<g >
<title>pyop2.global_kernel.GlobalKernel.compile (691,104 us, 0.30%)</title><rect x="1133.1" y="183" width="3.5" height="15.0" fill="rgb(0,0,0)" rx="2" ry="2" />
<text  x="1136.06" y="193.5" ></text>
</g>
<g >
<title>Parloop_Cells_wrap_wrap_slate_loopy_knl_7 (25,325,499 us, 10.93%)</title><rect x="518.3" y="183" width="128.9" height="15.0" fill="rgb(0,0,0)" rx="2" ry="2" />
<text  x="521.26" y="193.5" >Parloop_Cells_..</text>
</g>
<g >
<title>Parloop_Cells_wrap_form1_cell_integral_otherwise (3,482,135 us, 1.50%)</title><rect x="379.4" y="167" width="17.7" height="15.0" fill="rgb(0,0,0)" rx="2" ry="2" />
<text  x="382.42" y="177.5" ></text>
</g>
<g >
<title>firedrake.norms.errornorm (12,483,899 us, 5.39%)</title><rect x="292.4" y="71" width="63.5" height="15.0" fill="rgb(0,0,0)" rx="2" ry="2" />
<text  x="295.38" y="81.5" >firedr..</text>
</g>
<g >
<title>Parloop_Cells_wrap_par_loop_kernel (917,314 us, 0.40%)</title><rect x="411.4" y="199" width="4.7" height="15.0" fill="rgb(0,0,0)" rx="2" ry="2" />
<text  x="414.39" y="209.5" ></text>
</g>
<g >
<title>pyop2.global_kernel.GlobalKernel.compile (2,015,025 us, 0.87%)</title><rect x="59.5" y="119" width="10.2" height="15.0" fill="rgb(0,0,0)" rx="2" ry="2" />
<text  x="62.45" y="129.5" ></text>
</g>
<g >
<title>SNESSolve (163,823,405 us, 70.68%)</title><rect x="355.9" y="87" width="834.1" height="15.0" fill="rgb(0,0,0)" rx="2" ry="2" />
<text  x="358.94" y="97.5" >SNESSolve</text>
</g>
<g >
<title>ParLoopExecute (24,600,231 us, 10.61%)</title><rect x="148.6" y="119" width="125.3" height="15.0" fill="rgb(0,0,0)" rx="2" ry="2" />
<text  x="151.63" y="129.5" >ParLoopExecute</text>
</g>
<g >
<title>Parloop_Cells_wrap_form0_cell_integral_otherwise (4,616,181 us, 1.99%)</title><rect x="1136.6" y="135" width="23.5" height="15.0" fill="rgb(0,0,0)" rx="2" ry="2" />
<text  x="1139.58" y="145.5" >P..</text>
</g>
<g >
<title>ParLoopExecute (13,508,563 us, 5.83%)</title><rect x="79.9" y="103" width="68.7" height="15.0" fill="rgb(0,0,0)" rx="2" ry="2" />
<text  x="82.86" y="113.5" >ParLoo..</text>
</g>
<g >
<title>KSPSolve (110,693,726 us, 47.76%)</title><rect x="355.9" y="103" width="563.6" height="15.0" fill="rgb(0,0,0)" rx="2" ry="2" />
<text  x="358.94" y="113.5" >KSPSolve</text>
</g>
<g >
<title>Parloop_set_#x7f0d326c75e0_wrap_pyop2_kernel_inject (591,773 us, 0.26%)</title><rect x="866.6" y="295" width="3.0" height="15.0" fill="rgb(0,0,0)" rx="2" ry="2" />
<text  x="869.60" y="305.5" ></text>
</g>
<g >
<title>firedrake.interpolation.make_interpolator (26,611 us, 0.01%)</title><rect x="917.6" y="167" width="0.1" height="15.0" fill="rgb(0,0,0)" rx="2" ry="2" />
<text  x="920.57" y="177.5" ></text>
</g>
<g >
<title>pyop2.global_kernel.GlobalKernel.compile (18,435,529 us, 7.95%)</title><rect x="416.1" y="183" width="93.8" height="15.0" fill="rgb(0,0,0)" rx="2" ry="2" />
<text  x="419.06" y="193.5" >pyop2.glob..</text>
</g>
<g >
<title>pyop2.global_kernel.GlobalKernel.compile (1,329,832 us, 0.57%)</title><rect x="108.6" y="135" width="6.7" height="15.0" fill="rgb(0,0,0)" rx="2" ry="2" />
<text  x="111.56" y="145.5" ></text>
</g>
<g >
<title>pyop2.global_kernel.GlobalKernel.compile (1,722,208 us, 0.74%)</title><rect x="240.0" y="151" width="8.7" height="15.0" fill="rgb(0,0,0)" rx="2" ry="2" />
<text  x="242.97" y="161.5" ></text>
</g>
<g >
<title>pyop2.global_kernel.GlobalKernel.compile (1,592,580 us, 0.69%)</title><rect x="115.3" y="135" width="8.1" height="15.0" fill="rgb(0,0,0)" rx="2" ry="2" />
<text  x="118.33" y="145.5" ></text>
</g>
<g >
<title>MatMultTranspose (1,092,366 us, 0.47%)</title><rect x="877.3" y="215" width="5.6" height="15.0" fill="rgb(0,0,0)" rx="2" ry="2" />
<text  x="880.33" y="225.5" ></text>
</g>
<g >
<title>ParLoopExecute (18,435,529 us, 7.95%)</title><rect x="416.1" y="151" width="93.8" height="15.0" fill="rgb(0,0,0)" rx="2" ry="2" />
<text  x="419.06" y="161.5" >ParLoopExe..</text>
</g>
<g >
<title>Parloop_Cells_wrap_form0_exterior_facet_bottom_integral_otherwise (1,319,406 us, 0.57%)</title><rect x="101.8" y="119" width="6.8" height="15.0" fill="rgb(0,0,0)" rx="2" ry="2" />
<text  x="104.84" y="129.5" ></text>
</g>
<g >
<title>pyop2.global_kernel.GlobalKernel.compile (31,981,110 us, 13.80%)</title><rect x="683.5" y="199" width="162.9" height="15.0" fill="rgb(0,0,0)" rx="2" ry="2" />
<text  x="686.53" y="209.5" >pyop2.global_kernel..</text>
</g>
<g >
<title>pyop2.global_kernel.GlobalKernel.compile (14,544,628 us, 6.28%)</title><rect x="148.6" y="151" width="74.1" height="15.0" fill="rgb(0,0,0)" rx="2" ry="2" />
<text  x="151.63" y="161.5" >pyop2.g..</text>
</g>
<g >
<title>PCSetUp (42,636,370 us, 18.40%)</title><rect x="919.5" y="103" width="217.1" height="15.0" fill="rgb(0,0,0)" rx="2" ry="2" />
<text  x="922.50" y="113.5" >PCSetUp</text>
</g>
<g >
<title>Parloop_IntFacets_wrap_form_interior_facet_vert_integral_otherwise (2,015,025 us, 0.87%)</title><rect x="59.5" y="103" width="10.2" height="15.0" fill="rgb(0,0,0)" rx="2" ry="2" />
<text  x="62.45" y="113.5" ></text>
</g>
<g >
<title>DMCoarsen (2,404,098 us, 1.04%)</title><rect x="865.1" y="215" width="12.2" height="15.0" fill="rgb(0,0,0)" rx="2" ry="2" />
<text  x="868.09" y="225.5" ></text>
</g>
<g >
<title>MatMult (9,642,995 us, 4.16%)</title><rect x="355.9" y="119" width="49.1" height="15.0" fill="rgb(0,0,0)" rx="2" ry="2" />
<text  x="358.94" y="129.5" >MatM..</text>
</g>
<g >
<title>MatMultTranspose (25,936 us, 0.01%)</title><rect x="865.0" y="231" width="0.1" height="15.0" fill="rgb(0,0,0)" rx="2" ry="2" />
<text  x="867.96" y="241.5" ></text>
</g>
<g >
<title>pyop2.global_kernel.GlobalKernel.compile (2,469,744 us, 1.07%)</title><rect x="248.7" y="151" width="12.6" height="15.0" fill="rgb(0,0,0)" rx="2" ry="2" />
<text  x="251.74" y="161.5" ></text>
</g>
<g >
<title>firedrake.parloops.par_loop (917,314 us, 0.40%)</title><rect x="411.4" y="167" width="4.7" height="15.0" fill="rgb(0,0,0)" rx="2" ry="2" />
<text  x="414.39" y="177.5" ></text>
</g>
<g >
<title>Parloop_Cells_wrap_form0_cell_integral_otherwise (4,318,326 us, 1.86%)</title><rect x="79.9" y="119" width="21.9" height="15.0" fill="rgb(0,0,0)" rx="2" ry="2" />
<text  x="82.86" y="129.5" ></text>
</g>
<g >
<title>pyop2.global_kernel.GlobalKernel.compile (2,472,956 us, 1.07%)</title><rect x="123.4" y="135" width="12.6" height="15.0" fill="rgb(0,0,0)" rx="2" ry="2" />
<text  x="126.44" y="145.5" ></text>
</g>
<g >
<title>firedrake.assemble_expressions.evaluate_expression (781,547 us, 0.34%)</title><rect x="69.7" y="103" width="4.0" height="15.0" fill="rgb(0,0,0)" rx="2" ry="2" />
<text  x="72.71" y="113.5" ></text>
</g>
<g >
<title>CreateFunctionSpace (24,794 us, 0.01%)</title><rect x="20.3" y="71" width="0.1" height="15.0" fill="rgb(0,0,0)" rx="2" ry="2" />
<text  x="23.28" y="81.5" ></text>
</g>
<g >
<title>pyop2.global_kernel.GlobalKernel.compile (1,704,745 us, 0.74%)</title><rect x="231.3" y="151" width="8.7" height="15.0" fill="rgb(0,0,0)" rx="2" ry="2" />
<text  x="234.29" y="161.5" ></text>
</g>
<g >
<title>ParLoopExecute (602,951 us, 0.26%)</title><rect x="859.8" y="279" width="3.0" height="15.0" fill="rgb(0,0,0)" rx="2" ry="2" />
<text  x="862.78" y="289.5" ></text>
</g>
<g >
<title>Parloop_set_#x7f0d327adcc0_wrap_expression_kernel (379,993 us, 0.16%)</title><rect x="71.8" y="135" width="1.9" height="15.0" fill="rgb(0,0,0)" rx="2" ry="2" />
<text  x="74.76" y="145.5" ></text>
</g>
<g >
<title>pyop2.global_kernel.GlobalKernel.compile (920,867 us, 0.40%)</title><rect x="672.5" y="215" width="4.7" height="15.0" fill="rgb(0,0,0)" rx="2" ry="2" />
<text  x="675.53" y="225.5" ></text>
</g>
<g >
<title>firedrake.mg.interface.restrict (1,092,366 us, 0.47%)</title><rect x="877.3" y="231" width="5.6" height="15.0" fill="rgb(0,0,0)" rx="2" ry="2" />
<text  x="880.33" y="241.5" ></text>
</g>
<g >
<title>pyop2.global_kernel.GlobalKernel.compile (685,391 us, 0.30%)</title><rect x="877.3" y="279" width="3.5" height="15.0" fill="rgb(0,0,0)" rx="2" ry="2" />
<text  x="880.33" y="289.5" ></text>
</g>
<g >
<title>pyop2.global_kernel.GlobalKernel.compile (4,612,514 us, 1.99%)</title><rect x="355.9" y="183" width="23.5" height="15.0" fill="rgb(0,0,0)" rx="2" ry="2" />
<text  x="358.94" y="193.5" >p..</text>
</g>
<g >
<title>PCSetUp (3,496,464 us, 1.51%)</title><rect x="865.1" y="199" width="17.8" height="15.0" fill="rgb(0,0,0)" rx="2" ry="2" />
<text  x="868.09" y="209.5" ></text>
</g>
<g >
<title>HybridOperatorAssembly (41,865,140 us, 18.06%)</title><rect x="919.9" y="135" width="213.2" height="15.0" fill="rgb(0,0,0)" rx="2" ry="2" />
<text  x="922.91" y="145.5" >HybridOperatorAssembly</text>
</g>
<g >
<title>firedrake.tsfc_interface.compile_form (1,548,346 us, 0.67%)</title><rect x="397.1" y="151" width="7.9" height="15.0" fill="rgb(0,0,0)" rx="2" ry="2" />
<text  x="400.15" y="161.5" ></text>
</g>
<g >
<title>MatMult (1,265,862 us, 0.55%)</title><rect x="858.5" y="231" width="6.5" height="15.0" fill="rgb(0,0,0)" rx="2" ry="2" />
<text  x="861.52" y="241.5" ></text>
</g>
<g >
<title>ParLoopExecute (36,813,144 us, 15.88%)</title><rect x="929.1" y="151" width="187.5" height="15.0" fill="rgb(0,0,0)" rx="2" ry="2" />
<text  x="932.13" y="161.5" >ParLoopExecute</text>
</g>
<g >
<title>firedrake.variational_solver.NonlinearVariationalSolver.solve (163,823,405 us, 70.68%)</title><rect x="355.9" y="71" width="834.1" height="15.0" fill="rgb(0,0,0)" rx="2" ry="2" />
<text  x="358.94" y="81.5" >firedrake.variational_solver.NonlinearVariationalSolver.solve</text>
</g>
<g >
<title>firedrake.tsfc_interface.compile_form (3,241,656 us, 1.40%)</title><rect x="1116.6" y="151" width="16.5" height="15.0" fill="rgb(0,0,0)" rx="2" ry="2" />
<text  x="1119.55" y="161.5" ></text>
</g>
<g >
<title>Parloop_ExtFacets_wrap_form_exterior_facet_vert_integral_otherwise (2,208,950 us, 0.95%)</title><rect x="48.2" y="103" width="11.3" height="15.0" fill="rgb(0,0,0)" rx="2" ry="2" />
<text  x="51.21" y="113.5" ></text>
</g>
<g >
<title>firedrake.function.Function.project (41,742,045 us, 18.01%)</title><rect x="79.9" y="71" width="212.5" height="15.0" fill="rgb(0,0,0)" rx="2" ry="2" />
<text  x="82.86" y="81.5" >firedrake.function.Functi..</text>
</g>
<g >
<title>Parloop_Cells_wrap_form0_cell_integral_otherwise (4,612,514 us, 1.99%)</title><rect x="355.9" y="167" width="23.5" height="15.0" fill="rgb(0,0,0)" rx="2" ry="2" />
<text  x="358.94" y="177.5" >P..</text>
</g>
<g >
<title>Parloop_Cells_wrap_form1_cell_integral_otherwise (4,431,309 us, 1.91%)</title><rect x="1160.1" y="135" width="22.5" height="15.0" fill="rgb(0,0,0)" rx="2" ry="2" />
<text  x="1163.08" y="145.5" ></text>
</g>
<g >
<title>pyop2.global_kernel.GlobalKernel.compile (1,322,661 us, 0.57%)</title><rect x="34.5" y="119" width="6.8" height="15.0" fill="rgb(0,0,0)" rx="2" ry="2" />
<text  x="37.52" y="129.5" ></text>
</g>
<g >
<title>firedrake.tsfc_interface.compile_form (354,148 us, 0.15%)</title><rect x="917.7" y="167" width="1.8" height="15.0" fill="rgb(0,0,0)" rx="2" ry="2" />
<text  x="920.70" y="177.5" ></text>
</g>
<g >
<title>Parloop_set_#x7f0d326c75e0_wrap_pyop2_kernel_prolong (602,951 us, 0.26%)</title><rect x="859.8" y="295" width="3.0" height="15.0" fill="rgb(0,0,0)" rx="2" ry="2" />
<text  x="862.78" y="305.5" ></text>
</g>
<g >
<title>SNESFunctionEval (10,493,309 us, 4.53%)</title><rect x="1136.6" y="103" width="53.4" height="15.0" fill="rgb(0,0,0)" rx="2" ry="2" />
<text  x="1139.58" y="113.5" >SNES..</text>
</g>
<g >
<title>firedrake.tsfc_interface.compile_form (3,060,648 us, 1.32%)</title><rect x="647.2" y="167" width="15.6" height="15.0" fill="rgb(0,0,0)" rx="2" ry="2" />
<text  x="650.20" y="177.5" ></text>
</g>
<g >
<title>ParLoopExecute (917,314 us, 0.40%)</title><rect x="411.4" y="183" width="4.7" height="15.0" fill="rgb(0,0,0)" rx="2" ry="2" />
<text  x="414.39" y="193.5" ></text>
</g>
<g >
<title>firedrake.mg.interface.restrict (25,936 us, 0.01%)</title><rect x="865.0" y="247" width="0.1" height="15.0" fill="rgb(0,0,0)" rx="2" ry="2" />
<text  x="867.96" y="257.5" ></text>
</g>
<g >
<title>Parloop_set_#x7f0d327053f0_wrap_pyop2_kernel_restrict (685,391 us, 0.30%)</title><rect x="877.3" y="263" width="3.5" height="15.0" fill="rgb(0,0,0)" rx="2" ry="2" />
<text  x="880.33" y="273.5" ></text>
</g>
<g >
<title>firedrake.parloops.par_loop (920,867 us, 0.40%)</title><rect x="672.5" y="167" width="4.7" height="15.0" fill="rgb(0,0,0)" rx="2" ry="2" />
<text  x="675.53" y="177.5" ></text>
</g>
<g >
<title>pyop2.global_kernel.GlobalKernel.compile (2,468,210 us, 1.06%)</title><rect x="261.3" y="151" width="12.6" height="15.0" fill="rgb(0,0,0)" rx="2" ry="2" />
<text  x="264.31" y="161.5" ></text>
</g>
<g >
<title>Parloop_Cells_wrap_form0_exterior_facet_top_integral_otherwise (1,329,832 us, 0.57%)</title><rect x="108.6" y="119" width="6.7" height="15.0" fill="rgb(0,0,0)" rx="2" ry="2" />
<text  x="111.56" y="129.5" ></text>
</g>
<g >
<title>ParLoopExecute (685,391 us, 0.30%)</title><rect x="877.3" y="247" width="3.5" height="15.0" fill="rgb(0,0,0)" rx="2" ry="2" />
<text  x="880.33" y="257.5" ></text>
</g>
<g >
<title>Parloop_Cells_wrap_form00_exterior_facet_bottom_integral_otherwise (1,690,696 us, 0.73%)</title><rect x="222.7" y="135" width="8.6" height="15.0" fill="rgb(0,0,0)" rx="2" ry="2" />
<text  x="225.68" y="145.5" ></text>
</g>
<g >
<title>Parloop_Cells_wrap_wrap_slate_loopy_knl_14 (18,435,529 us, 7.95%)</title><rect x="416.1" y="167" width="93.8" height="15.0" fill="rgb(0,0,0)" rx="2" ry="2" />
<text  x="419.06" y="177.5" >Parloop_Ce..</text>
</g>
<g >
<title>ParLoopExecute (6,810,069 us, 2.94%)</title><rect x="882.9" y="167" width="34.7" height="15.0" fill="rgb(0,0,0)" rx="2" ry="2" />
<text  x="885.89" y="177.5" >Pa..</text>
</g>
<g >
<title>firedrake.matrix_free.operators.ImplicitMatrixContext.mult (9,642,995 us, 4.16%)</title><rect x="355.9" y="135" width="49.1" height="15.0" fill="rgb(0,0,0)" rx="2" ry="2" />
<text  x="358.94" y="145.5" >fire..</text>
</g>
<g >
<title>Parloop_Cells_wrap_pyop2_kernel_uniform_extrusion (893,126 us, 0.39%)</title><rect x="15.7" y="119" width="4.6" height="15.0" fill="rgb(0,0,0)" rx="2" ry="2" />
<text  x="18.73" y="129.5" ></text>
</g>
<g >
<title>firedrake.__init__ (1,494,021 us, 0.64%)</title><rect x="20.4" y="71" width="7.6" height="15.0" fill="rgb(0,0,0)" rx="2" ry="2" />
<text  x="23.41" y="81.5" ></text>
</g>
<g >
<title>firedrake.parloops.par_loop (691,104 us, 0.30%)</title><rect x="1133.1" y="135" width="3.5" height="15.0" fill="rgb(0,0,0)" rx="2" ry="2" />
<text  x="1136.06" y="145.5" ></text>
</g>
<g >
<title>KSPSolve (1,326,871 us, 0.57%)</title><rect x="858.3" y="199" width="6.8" height="15.0" fill="rgb(0,0,0)" rx="2" ry="2" />
<text  x="861.34" y="209.5" ></text>
</g>
<g >
<title>Parloop_Cells_wrap_par_loop_kernel (691,104 us, 0.30%)</title><rect x="1133.1" y="167" width="3.5" height="15.0" fill="rgb(0,0,0)" rx="2" ry="2" />
<text  x="1136.06" y="177.5" ></text>
</g>
<g >
<title>firedrake.tsfc_interface.compile_form (1,913,828 us, 0.83%)</title><rect x="662.8" y="151" width="9.7" height="15.0" fill="rgb(0,0,0)" rx="2" ry="2" />
<text  x="665.78" y="161.5" ></text>
</g>
<g >
<title>pyop2.global_kernel.GlobalKernel.compile (3,482,135 us, 1.50%)</title><rect x="379.4" y="183" width="17.7" height="15.0" fill="rgb(0,0,0)" rx="2" ry="2" />
<text  x="382.42" y="193.5" ></text>
</g>
<g >
<title>firedrake.mg.interface.inject (2,404,098 us, 1.04%)</title><rect x="865.1" y="263" width="12.2" height="15.0" fill="rgb(0,0,0)" rx="2" ry="2" />
<text  x="868.09" y="273.5" ></text>
</g>
<g >
<title>ParLoopExecute (25,325,499 us, 10.93%)</title><rect x="518.3" y="167" width="128.9" height="15.0" fill="rgb(0,0,0)" rx="2" ry="2" />
<text  x="521.26" y="177.5" >ParLoopExecute</text>
</g>
<g >
<title>Parloop_ExtFacets_wrap_form0_exterior_facet_vert_integral_otherwise (2,472,956 us, 1.07%)</title><rect x="123.4" y="119" width="12.6" height="15.0" fill="rgb(0,0,0)" rx="2" ry="2" />
<text  x="126.44" y="129.5" ></text>
</g>
<g >
<title>pyop2.global_kernel.GlobalKernel.compile (379,993 us, 0.16%)</title><rect x="71.8" y="151" width="1.9" height="15.0" fill="rgb(0,0,0)" rx="2" ry="2" />
<text  x="74.76" y="161.5" ></text>
</g>
<g >
<title>Parloop_ExtFacets_wrap_form00_exterior_facet_vert_integral_otherwise (2,469,744 us, 1.07%)</title><rect x="248.7" y="135" width="12.6" height="15.0" fill="rgb(0,0,0)" rx="2" ry="2" />
<text  x="251.74" y="145.5" ></text>
</g>
<g >
<title>Parloop_Cells_wrap_form00_exterior_facet_top_integral_otherwise (1,704,745 us, 0.74%)</title><rect x="231.3" y="135" width="8.7" height="15.0" fill="rgb(0,0,0)" rx="2" ry="2" />
<text  x="234.29" y="145.5" ></text>
</g>
<g >
<title>Parloop_IntFacets_wrap_form00_interior_facet_vert_integral_otherwise (2,468,210 us, 1.06%)</title><rect x="261.3" y="135" width="12.6" height="15.0" fill="rgb(0,0,0)" rx="2" ry="2" />
<text  x="264.31" y="145.5" ></text>
</g>
<g >
<title>pyop2.global_kernel.GlobalKernel.compile (401,554 us, 0.17%)</title><rect x="69.7" y="151" width="2.1" height="15.0" fill="rgb(0,0,0)" rx="2" ry="2" />
<text  x="72.71" y="161.5" ></text>
</g>
<g >
<title>RecoverFirstElim (30,024,413 us, 12.95%)</title><rect x="509.9" y="151" width="152.9" height="15.0" fill="rgb(0,0,0)" rx="2" ry="2" />
<text  x="512.92" y="161.5" >RecoverFirstElim</text>
</g>
<g >
<title>pyop2.global_kernel.GlobalKernel.compile (1,077,207 us, 0.46%)</title><rect x="869.6" y="343" width="5.5" height="15.0" fill="rgb(0,0,0)" rx="2" ry="2" />
<text  x="872.61" y="353.5" ></text>
</g>
<g >
<title>CreateExtMesh (925,141 us, 0.40%)</title><rect x="15.6" y="71" width="4.7" height="15.0" fill="rgb(0,0,0)" rx="2" ry="2" />
<text  x="18.57" y="81.5" ></text>
</g>
<g >
<title>all (231,770,596 us, 100%)</title><rect x="10.0" y="39" width="1180.0" height="15.0" fill="rgb(0,0,0)" rx="2" ry="2" />
<text  x="13.00" y="49.5" ></text>
</g>
<g >
<title>ParLoopExecute (893,126 us, 0.39%)</title><rect x="15.7" y="103" width="4.6" height="15.0" fill="rgb(0,0,0)" rx="2" ry="2" />
<text  x="18.73" y="113.5" ></text>
</g>
<g >
<title>firedrake.tsfc_interface.compile_form (1,211,094 us, 0.52%)</title><rect x="73.7" y="87" width="6.2" height="15.0" fill="rgb(0,0,0)" rx="2" ry="2" />
<text  x="76.69" y="97.5" ></text>
</g>
<g >
<title>pyop2.global_kernel.GlobalKernel.compile (4,616,181 us, 1.99%)</title><rect x="1136.6" y="151" width="23.5" height="15.0" fill="rgb(0,0,0)" rx="2" ry="2" />
<text  x="1139.58" y="161.5" >p..</text>
</g>
<g >
<title>SCSolve (12,014,163 us, 5.18%)</title><rect x="858.3" y="135" width="61.2" height="15.0" fill="rgb(0,0,0)" rx="2" ry="2" />
<text  x="861.34" y="145.5" >SCSolve</text>
</g>
<g >
<title>Parloop_Cells_wrap_form00_interior_facet_horiz_integral_otherwise (1,722,208 us, 0.74%)</title><rect x="240.0" y="135" width="8.7" height="15.0" fill="rgb(0,0,0)" rx="2" ry="2" />
<text  x="242.97" y="145.5" ></text>
</g>
<g >
<title>SCForwardElim (36,495,925 us, 15.75%)</title><rect x="672.5" y="135" width="185.8" height="15.0" fill="rgb(0,0,0)" rx="2" ry="2" />
<text  x="675.53" y="145.5" >SCForwardElim</text>
</g>
<g >
<title>Parloop_Cells_wrap_wrap_slate_loopy_knl_0 (36,813,144 us, 15.88%)</title><rect x="929.1" y="167" width="187.5" height="15.0" fill="rgb(0,0,0)" rx="2" ry="2" />
<text  x="932.13" y="177.5" >Parloop_Cells_wrap_wra..</text>
</g>
<g >
<title>firedrake.assemble.assemble (10,183,095 us, 4.39%)</title><rect x="28.0" y="71" width="51.9" height="15.0" fill="rgb(0,0,0)" rx="2" ry="2" />
<text  x="31.01" y="81.5" >fire..</text>
</g>
<g >
<title>HybridProject (917,314 us, 0.40%)</title><rect x="411.4" y="151" width="4.7" height="15.0" fill="rgb(0,0,0)" rx="2" ry="2" />
<text  x="414.39" y="161.5" ></text>
</g>
<g >
<title>Parloop_Cells_wrap_form_cell_integral_otherwise (11,069,008 us, 4.78%)</title><rect x="292.4" y="135" width="56.3" height="15.0" fill="rgb(0,0,0)" rx="2" ry="2" />
<text  x="295.38" y="145.5" >Parlo..</text>
</g>
<g >
<title>PCApply (4,823,335 us, 2.08%)</title><rect x="858.3" y="167" width="24.6" height="15.0" fill="rgb(0,0,0)" rx="2" ry="2" />
<text  x="861.34" y="177.5" >P..</text>
</g>
<g >
<title>firedrake.pointquery_utils.to_reference_coordinates (406,975 us, 0.18%)</title><rect x="880.8" y="247" width="2.1" height="15.0" fill="rgb(0,0,0)" rx="2" ry="2" />
<text  x="883.82" y="257.5" ></text>
</g>
<g >
<title>KSPSolve (4,823,335 us, 2.08%)</title><rect x="858.3" y="151" width="24.6" height="15.0" fill="rgb(0,0,0)" rx="2" ry="2" />
<text  x="861.34" y="161.5" >K..</text>
</g>
<g >
<title>HybridBreak (920,867 us, 0.40%)</title><rect x="672.5" y="151" width="4.7" height="15.0" fill="rgb(0,0,0)" rx="2" ry="2" />
<text  x="675.53" y="161.5" ></text>
</g>
<g >
<title>ParLoopExecute (8,094,649 us, 3.49%)</title><rect x="355.9" y="151" width="41.2" height="15.0" fill="rgb(0,0,0)" rx="2" ry="2" />
<text  x="358.94" y="161.5" >Par..</text>
</g>
<g >
<title>firedrake.tsfc_interface.compile_form (1,414,891 us, 0.61%)</title><rect x="348.7" y="119" width="7.2" height="15.0" fill="rgb(0,0,0)" rx="2" ry="2" />
<text  x="351.73" y="129.5" ></text>
</g>
<g >
<title>Parloop_Cells_wrap_form_exterior_facet_bottom_integral_otherwise (1,278,221 us, 0.55%)</title><rect x="28.0" y="103" width="6.5" height="15.0" fill="rgb(0,0,0)" rx="2" ry="2" />
<text  x="31.01" y="113.5" ></text>
</g>
<g >
<title>pyop2.global_kernel.GlobalKernel.compile (1,365,597 us, 0.59%)</title><rect x="41.3" y="119" width="6.9" height="15.0" fill="rgb(0,0,0)" rx="2" ry="2" />
<text  x="44.26" y="129.5" ></text>
</g>
<g >
<title>pyop2.global_kernel.GlobalKernel.compile (1,376,656 us, 0.59%)</title><rect x="882.9" y="199" width="7.0" height="15.0" fill="rgb(0,0,0)" rx="2" ry="2" />
<text  x="885.89" y="209.5" ></text>
</g>
<g >
<title>ParLoopExecute (920,867 us, 0.40%)</title><rect x="672.5" y="183" width="4.7" height="15.0" fill="rgb(0,0,0)" rx="2" ry="2" />
<text  x="675.53" y="193.5" ></text>
</g>
<g >
<title>Parloop_Cells_wrap_expression_kernel (1,376,656 us, 0.59%)</title><rect x="882.9" y="183" width="7.0" height="15.0" fill="rgb(0,0,0)" rx="2" ry="2" />
<text  x="885.89" y="193.5" ></text>
</g>
<g >
<title>PCApply (1,326,871 us, 0.57%)</title><rect x="858.3" y="215" width="6.8" height="15.0" fill="rgb(0,0,0)" rx="2" ry="2" />
<text  x="861.34" y="225.5" ></text>
</g>
</g>
</svg>
