<?xml version="1.0" standalone="no"?>
<!DOCTYPE svg PUBLIC "-//W3C//DTD SVG 1.1//EN" "http://www.w3.org/Graphics/SVG/1.1/DTD/svg11.dtd">
<svg version="1.1" width="1200" height="331" onload="init(evt)" viewBox="0 0 1200 331" xmlns="http://www.w3.org/2000/svg" xmlns:xlink="http://www.w3.org/1999/xlink">
<!-- Flame graph stack visualization. See https://github.com/brendangregg/FlameGraph for latest version, and http://www.brendangregg.com/flamegraphs.html for examples. -->
<!-- NOTES:  -->
<defs>
	<linearGradient id="background" y1="0" y2="1" x1="0" x2="0" >
		<stop stop-color="#eeeeee" offset="5%" />
		<stop stop-color="#eeeeb0" offset="95%" />
	</linearGradient>
</defs>
<style type="text/css">
	text { font-family:Verdana; font-size:13px; fill:rgb(0,0,0); }
	#search, #ignorecase { opacity:0.1; cursor:pointer; }
	#search:hover, #search.show, #ignorecase:hover, #ignorecase.show { opacity:1; }
	#subtitle { text-anchor:middle; font-color:rgb(160,160,160); }
	#title { text-anchor:middle; font-size:18px}
	#unzoom { cursor:pointer; }
	#frames > *:hover { stroke:black; stroke-width:0.5; cursor:pointer; }
	.hide { display:none; }
	.parent { opacity:0.5; }
</style>
<script type="text/ecmascript">
<![CDATA[
	"use strict";
	var details, searchbtn, unzoombtn, matchedtxt, svg, searching, currentSearchTerm, ignorecase, ignorecaseBtn;
	function init(evt) {
		details = document.getElementById("details").firstChild;
		searchbtn = document.getElementById("search");
		ignorecaseBtn = document.getElementById("ignorecase");
		unzoombtn = document.getElementById("unzoom");
		matchedtxt = document.getElementById("matched");
		svg = document.getElementsByTagName("svg")[0];
		searching = 0;
		currentSearchTerm = null;

		// use GET parameters to restore a flamegraphs state.
		var params = get_params();
		if (params.x && params.y)
			zoom(find_group(document.querySelector('[x="' + params.x + '"][y="' + params.y + '"]')));
                if (params.s) search(params.s);
	}

	// event listeners
	window.addEventListener("click", function(e) {
		var target = find_group(e.target);
		if (target) {
			if (target.nodeName == "a") {
				if (e.ctrlKey === false) return;
				e.preventDefault();
			}
			if (target.classList.contains("parent")) unzoom();
			zoom(target);
			if (!document.querySelector('.parent')) {
				clearzoom();
				return;
			}

			// set parameters for zoom state
			var el = target.querySelector("rect");
			if (el && el.attributes && el.attributes.y && el.attributes._orig_x) {
				var params = get_params()
				params.x = el.attributes._orig_x.value;
				params.y = el.attributes.y.value;
				history.replaceState(null, null, parse_params(params));
			}
		}
		else if (e.target.id == "unzoom") clearzoom();
		else if (e.target.id == "search") search_prompt();
		else if (e.target.id == "ignorecase") toggle_ignorecase();
	}, false)

	// mouse-over for info
	// show
	window.addEventListener("mouseover", function(e) {
		var target = find_group(e.target);
		if (target) details.nodeValue = "Function: " + g_to_text(target);
	}, false)

	// clear
	window.addEventListener("mouseout", function(e) {
		var target = find_group(e.target);
		if (target) details.nodeValue = ' ';
	}, false)

	// ctrl-F for search
	// ctrl-I to toggle case-sensitive search
	window.addEventListener("keydown",function (e) {
		if (e.keyCode === 114 || (e.ctrlKey && e.keyCode === 70)) {
			e.preventDefault();
			search_prompt();
		}
		else if (e.ctrlKey && e.keyCode === 73) {
			e.preventDefault();
			toggle_ignorecase();
		}
	}, false)

	// functions
	function get_params() {
		var params = {};
		var paramsarr = window.location.search.substr(1).split('&');
		for (var i = 0; i < paramsarr.length; ++i) {
			var tmp = paramsarr[i].split("=");
			if (!tmp[0] || !tmp[1]) continue;
			params[tmp[0]]  = decodeURIComponent(tmp[1]);
		}
		return params;
	}
	function parse_params(params) {
		var uri = "?";
		for (var key in params) {
			uri += key + '=' + encodeURIComponent(params[key]) + '&';
		}
		if (uri.slice(-1) == "&")
			uri = uri.substring(0, uri.length - 1);
		if (uri == '?')
			uri = window.location.href.split('?')[0];
		return uri;
	}
	function find_child(node, selector) {
		var children = node.querySelectorAll(selector);
		if (children.length) return children[0];
	}
	function find_group(node) {
		var parent = node.parentElement;
		if (!parent) return;
		if (parent.id == "frames") return node;
		return find_group(parent);
	}
	function orig_save(e, attr, val) {
		if (e.attributes["_orig_" + attr] != undefined) return;
		if (e.attributes[attr] == undefined) return;
		if (val == undefined) val = e.attributes[attr].value;
		e.setAttribute("_orig_" + attr, val);
	}
	function orig_load(e, attr) {
		if (e.attributes["_orig_"+attr] == undefined) return;
		e.attributes[attr].value = e.attributes["_orig_" + attr].value;
		e.removeAttribute("_orig_"+attr);
	}
	function g_to_text(e) {
		var text = find_child(e, "title").firstChild.nodeValue;
		return (text)
	}
	function g_to_func(e) {
		var func = g_to_text(e);
		// if there's any manipulation we want to do to the function
		// name before it's searched, do it here before returning.
		return (func);
	}
	function update_text(e) {
		var r = find_child(e, "rect");
		var t = find_child(e, "text");
		var w = parseFloat(r.attributes.width.value) -3;
		var txt = find_child(e, "title").textContent.replace(/\([^(]*\)$/,"");
		t.attributes.x.value = parseFloat(r.attributes.x.value) + 3;

		// Smaller than this size won't fit anything
		if (w < 2 * 13 * 0.59) {
			t.textContent = "";
			return;
		}

		t.textContent = txt;
		// Fit in full text width
		if (/^ *$/.test(txt) || t.getSubStringLength(0, txt.length) < w)
			return;

		for (var x = txt.length - 2; x > 0; x--) {
			if (t.getSubStringLength(0, x + 2) <= w) {
				t.textContent = txt.substring(0, x) + "..";
				return;
			}
		}
		t.textContent = "";
	}

	// zoom
	function zoom_reset(e) {
		if (e.attributes != undefined) {
			orig_load(e, "x");
			orig_load(e, "width");
		}
		if (e.childNodes == undefined) return;
		for (var i = 0, c = e.childNodes; i < c.length; i++) {
			zoom_reset(c[i]);
		}
	}
	function zoom_child(e, x, ratio) {
		if (e.attributes != undefined) {
			if (e.attributes.x != undefined) {
				orig_save(e, "x");
				e.attributes.x.value = (parseFloat(e.attributes.x.value) - x - 10) * ratio + 10;
				if (e.tagName == "text")
					e.attributes.x.value = find_child(e.parentNode, "rect[x]").attributes.x.value + 3;
			}
			if (e.attributes.width != undefined) {
				orig_save(e, "width");
				e.attributes.width.value = parseFloat(e.attributes.width.value) * ratio;
			}
		}

		if (e.childNodes == undefined) return;
		for (var i = 0, c = e.childNodes; i < c.length; i++) {
			zoom_child(c[i], x - 10, ratio);
		}
	}
	function zoom_parent(e) {
		if (e.attributes) {
			if (e.attributes.x != undefined) {
				orig_save(e, "x");
				e.attributes.x.value = 10;
			}
			if (e.attributes.width != undefined) {
				orig_save(e, "width");
				e.attributes.width.value = parseInt(svg.width.baseVal.value) - (10 * 2);
			}
		}
		if (e.childNodes == undefined) return;
		for (var i = 0, c = e.childNodes; i < c.length; i++) {
			zoom_parent(c[i]);
		}
	}
	function zoom(node) {
		var attr = find_child(node, "rect").attributes;
		var width = parseFloat(attr.width.value);
		var xmin = parseFloat(attr.x.value);
		var xmax = parseFloat(xmin + width);
		var ymin = parseFloat(attr.y.value);
		var ratio = (svg.width.baseVal.value - 2 * 10) / width;

		// XXX: Workaround for JavaScript float issues (fix me)
		var fudge = 0.0001;

		unzoombtn.classList.remove("hide");

		var el = document.getElementById("frames").children;
		for (var i = 0; i < el.length; i++) {
			var e = el[i];
			var a = find_child(e, "rect").attributes;
			var ex = parseFloat(a.x.value);
			var ew = parseFloat(a.width.value);
			var upstack;
			// Is it an ancestor
			if (1 == 0) {
				upstack = parseFloat(a.y.value) > ymin;
			} else {
				upstack = parseFloat(a.y.value) < ymin;
			}
			if (upstack) {
				// Direct ancestor
				if (ex <= xmin && (ex+ew+fudge) >= xmax) {
					e.classList.add("parent");
					zoom_parent(e);
					update_text(e);
				}
				// not in current path
				else
					e.classList.add("hide");
			}
			// Children maybe
			else {
				// no common path
				if (ex < xmin || ex + fudge >= xmax) {
					e.classList.add("hide");
				}
				else {
					zoom_child(e, xmin, ratio);
					update_text(e);
				}
			}
		}
		search();
	}
	function unzoom() {
		unzoombtn.classList.add("hide");
		var el = document.getElementById("frames").children;
		for(var i = 0; i < el.length; i++) {
			el[i].classList.remove("parent");
			el[i].classList.remove("hide");
			zoom_reset(el[i]);
			update_text(el[i]);
		}
		search();
	}
	function clearzoom() {
		unzoom();

		// remove zoom state
		var params = get_params();
		if (params.x) delete params.x;
		if (params.y) delete params.y;
		history.replaceState(null, null, parse_params(params));
	}

	// search
	function toggle_ignorecase() {
		ignorecase = !ignorecase;
		if (ignorecase) {
			ignorecaseBtn.classList.add("show");
		} else {
			ignorecaseBtn.classList.remove("show");
		}
		reset_search();
		search();
	}
	function reset_search() {
		var el = document.querySelectorAll("#frames rect");
		for (var i = 0; i < el.length; i++) {
			orig_load(el[i], "fill")
		}
		var params = get_params();
		delete params.s;
		history.replaceState(null, null, parse_params(params));
	}
	function search_prompt() {
		if (!searching) {
			var term = prompt("Enter a search term (regexp " +
			    "allowed, eg: ^ext4_)"
			    + (ignorecase ? ", ignoring case" : "")
			    + "\nPress Ctrl-i to toggle case sensitivity", "");
			if (term != null) search(term);
		} else {
			reset_search();
			searching = 0;
			currentSearchTerm = null;
			searchbtn.classList.remove("show");
			searchbtn.firstChild.nodeValue = "Search"
			matchedtxt.classList.add("hide");
			matchedtxt.firstChild.nodeValue = ""
		}
	}
	function search(term) {
		if (term) currentSearchTerm = term;

		var re = new RegExp(currentSearchTerm, ignorecase ? 'i' : '');
		var el = document.getElementById("frames").children;
		var matches = new Object();
		var maxwidth = 0;
		for (var i = 0; i < el.length; i++) {
			var e = el[i];
			var func = g_to_func(e);
			var rect = find_child(e, "rect");
			if (func == null || rect == null)
				continue;

			// Save max width. Only works as we have a root frame
			var w = parseFloat(rect.attributes.width.value);
			if (w > maxwidth)
				maxwidth = w;

			if (func.match(re)) {
				// highlight
				var x = parseFloat(rect.attributes.x.value);
				orig_save(rect, "fill");
				rect.attributes.fill.value = "rgb(230,0,230)";

				// remember matches
				if (matches[x] == undefined) {
					matches[x] = w;
				} else {
					if (w > matches[x]) {
						// overwrite with parent
						matches[x] = w;
					}
				}
				searching = 1;
			}
		}
		if (!searching)
			return;
		var params = get_params();
		params.s = currentSearchTerm;
		history.replaceState(null, null, parse_params(params));

		searchbtn.classList.add("show");
		searchbtn.firstChild.nodeValue = "Reset Search";

		// calculate percent matched, excluding vertical overlap
		var count = 0;
		var lastx = -1;
		var lastw = 0;
		var keys = Array();
		for (k in matches) {
			if (matches.hasOwnProperty(k))
				keys.push(k);
		}
		// sort the matched frames by their x location
		// ascending, then width descending
		keys.sort(function(a, b){
			return a - b;
		});
		// Step through frames saving only the biggest bottom-up frames
		// thanks to the sort order. This relies on the tree property
		// where children are always smaller than their parents.
		var fudge = 0.0001;	// JavaScript floating point
		for (var k in keys) {
			var x = parseFloat(keys[k]);
			var w = matches[keys[k]];
			if (x >= lastx + lastw - fudge) {
				count += w;
				lastx = x;
				lastw = w;
			}
		}
		// display matched percent
		matchedtxt.classList.remove("hide");
		var pct = 100 * count / maxwidth;
		if (pct != 100) pct = pct.toFixed(1)
		matchedtxt.firstChild.nodeValue = "Matched: " + pct + "%";
	}
]]>
</script>
<rect x="0.0" y="0" width="1200.0" height="331.0" fill="url(#background)"  />
<text id="title" x="600.00" y="26" >Firedrake example</text>
<text id="details" x="10.00" y="313" > </text>
<text id="unzoom" x="10.00" y="26" class="hide">Reset Zoom</text>
<text id="search" x="1090.00" y="26" >Search</text>
<text id="ignorecase" x="1174.00" y="26" >ic</text>
<text id="matched" x="1090.00" y="313" > </text>
<g id="frames">
<g >
<title>ParLoopExecute (9,116,838 us, 0.82%)</title><rect x="21.6" y="119" width="9.7" height="15.0" fill="rgb(0,0,0)" rx="2" ry="2" />
<text  x="24.62" y="129.5" ></text>
</g>
<g >
<title>PCSetUpOnBlocks (33,561,255 us, 3.02%)</title><rect x="101.1" y="119" width="35.7" height="15.0" fill="rgb(0,0,0)" rx="2" ry="2" />
<text  x="104.12" y="129.5" >PC..</text>
</g>
<g >
<title>MatMult (14,951,038 us, 1.35%)</title><rect x="989.2" y="183" width="15.9" height="15.0" fill="rgb(0,0,0)" rx="2" ry="2" />
<text  x="992.20" y="193.5" ></text>
</g>
<g >
<title>Parloop_Cells_wrap_form10_cell_integral_otherwise (11,132,264 us, 1.00%)</title><rect x="1176.4" y="135" width="11.8" height="15.0" fill="rgb(0,0,0)" rx="2" ry="2" />
<text  x="1179.36" y="145.5" ></text>
</g>
<g >
<title>MatSolve (1,691,599 us, 0.15%)</title><rect x="99.3" y="183" width="1.8" height="15.0" fill="rgb(0,0,0)" rx="2" ry="2" />
<text  x="102.33" y="193.5" ></text>
</g>
<g >
<title>firedrake.assemble.assemble (11,143,933 us, 1.00%)</title><rect x="137.3" y="103" width="11.8" height="15.0" fill="rgb(0,0,0)" rx="2" ry="2" />
<text  x="140.28" y="113.5" ></text>
</g>
<g >
<title>pyop2.global_kernel.GlobalKernel.compile (4,274,798 us, 0.39%)</title><rect x="1134.2" y="151" width="4.5" height="15.0" fill="rgb(0,0,0)" rx="2" ry="2" />
<text  x="1137.16" y="161.5" ></text>
</g>
<g >
<title>MatAXPY (4,219,728 us, 0.38%)</title><rect x="1085.4" y="119" width="4.5" height="15.0" fill="rgb(0,0,0)" rx="2" ry="2" />
<text  x="1088.38" y="129.5" ></text>
</g>
<g >
<title>MatSOR (79,130,027 us, 7.13%)</title><rect x="611.4" y="247" width="84.1" height="15.0" fill="rgb(0,0,0)" rx="2" ry="2" />
<text  x="614.42" y="257.5" >MatSOR</text>
</g>
<g >
<title>MatCoarsen (129,303 us, 0.01%)</title><rect x="717.6" y="215" width="0.1" height="15.0" fill="rgb(0,0,0)" rx="2" ry="2" />
<text  x="720.56" y="225.5" ></text>
</g>
<g >
<title>MatMatMultNum (943,617 us, 0.09%)</title><rect x="759.6" y="231" width="1.0" height="15.0" fill="rgb(0,0,0)" rx="2" ry="2" />
<text  x="762.56" y="241.5" ></text>
</g>
<g >
<title>SNESJacobianEval (43,527,122 us, 3.92%)</title><rect x="1143.7" y="103" width="46.3" height="15.0" fill="rgb(0,0,0)" rx="2" ry="2" />
<text  x="1146.73" y="113.5" >SNES..</text>
</g>
<g >
<title>KSPSolve_FS_Low (253,772,127 us, 22.86%)</title><rect x="505.8" y="135" width="269.8" height="15.0" fill="rgb(0,0,0)" rx="2" ry="2" />
<text  x="508.84" y="145.5" >KSPSolve_FS_Low</text>
</g>
<g >
<title>firedrake.tsfc_interface.compile_form (1,699,552 us, 0.15%)</title><rect x="1188.2" y="119" width="1.8" height="15.0" fill="rgb(0,0,0)" rx="2" ry="2" />
<text  x="1191.19" y="129.5" ></text>
</g>
<g >
<title>PCGAMGGraph_AGG (13,522,356 us, 1.22%)</title><rect x="745.0" y="183" width="14.4" height="15.0" fill="rgb(0,0,0)" rx="2" ry="2" />
<text  x="748.01" y="193.5" ></text>
</g>
<g >
<title>VecMDot (304,161 us, 0.03%)</title><rect x="258.7" y="135" width="0.4" height="15.0" fill="rgb(0,0,0)" rx="2" ry="2" />
<text  x="261.73" y="145.5" ></text>
</g>
<g >
<title>firedrake.tsfc_interface.compile_form (1,367,871 us, 0.12%)</title><rect x="147.7" y="119" width="1.4" height="15.0" fill="rgb(0,0,0)" rx="2" ry="2" />
<text  x="150.67" y="129.5" ></text>
</g>
<g >
<title>MatMult (3,271,619 us, 0.29%)</title><rect x="769.5" y="199" width="3.5" height="15.0" fill="rgb(0,0,0)" rx="2" ry="2" />
<text  x="772.55" y="209.5" ></text>
</g>
<g >
<title>MatResidual (19,820,027 us, 1.79%)</title><rect x="968.1" y="215" width="21.1" height="15.0" fill="rgb(0,0,0)" rx="2" ry="2" />
<text  x="971.13" y="225.5" ></text>
</g>
<g >
<title>PCApply (78,659,053 us, 7.09%)</title><rect x="400.5" y="231" width="83.6" height="15.0" fill="rgb(0,0,0)" rx="2" ry="2" />
<text  x="403.50" y="241.5" >PCApply</text>
</g>
<g >
<title>PCGAMGCoarse_AGG (26,029,054 us, 2.35%)</title><rect x="717.3" y="183" width="27.7" height="15.0" fill="rgb(0,0,0)" rx="2" ry="2" />
<text  x="720.34" y="193.5" >P..</text>
</g>
<g >
<title>Parloop_set_#x7fc8e85c8c10_wrap_expression_kernel (383,560 us, 0.03%)</title><rect x="14.4" y="135" width="0.4" height="15.0" fill="rgb(0,0,0)" rx="2" ry="2" />
<text  x="17.37" y="145.5" ></text>
</g>
<g >
<title>firedrake.variational_solver.NonlinearVariationalSolver.solve (876,205,086 us, 78.94%)</title><rect x="258.5" y="71" width="931.5" height="15.0" fill="rgb(0,0,0)" rx="2" ry="2" />
<text  x="261.51" y="81.5" >firedrake.variational_solver.NonlinearVariationalSolver.solve</text>
</g>
<g >
<title>PCGAMG Gal l00 (3,564,450 us, 0.32%)</title><rect x="765.8" y="183" width="3.7" height="15.0" fill="rgb(0,0,0)" rx="2" ry="2" />
<text  x="768.76" y="193.5" ></text>
</g>
<g >
<title>KSPSetUp (5,716,770 us, 0.52%)</title><rect x="769.5" y="167" width="6.1" height="15.0" fill="rgb(0,0,0)" rx="2" ry="2" />
<text  x="772.55" y="177.5" ></text>
</g>
<g >
<title>KSPSolve (2,445,151 us, 0.22%)</title><rect x="773.0" y="215" width="2.6" height="15.0" fill="rgb(0,0,0)" rx="2" ry="2" />
<text  x="776.03" y="225.5" ></text>
</g>
<g >
<title>firedrake.linear_solver.LinearSolver.solve (36,376,470 us, 3.28%)</title><rect x="98.1" y="103" width="38.7" height="15.0" fill="rgb(0,0,0)" rx="2" ry="2" />
<text  x="101.13" y="113.5" >fir..</text>
</g>
<g >
<title>PCSetUpOnBlocks (42,722,420 us, 3.85%)</title><rect x="1023.8" y="151" width="45.4" height="15.0" fill="rgb(0,0,0)" rx="2" ry="2" />
<text  x="1026.82" y="161.5" >PCS..</text>
</g>
<g >
<title>MatSOR (81,083,473 us, 7.31%)</title><rect x="881.3" y="279" width="86.2" height="15.0" fill="rgb(0,0,0)" rx="2" ry="2" />
<text  x="884.29" y="289.5" >MatSOR</text>
</g>
<g >
<title>Parloop_Cells_wrap_form_cell_integral_otherwise (9,776,062 us, 0.88%)</title><rect x="137.3" y="135" width="10.4" height="15.0" fill="rgb(0,0,0)" rx="2" ry="2" />
<text  x="140.28" y="145.5" ></text>
</g>
<g >
<title>firedrake.function.Function.project (115,232,139 us, 10.38%)</title><rect x="14.8" y="71" width="122.5" height="15.0" fill="rgb(0,0,0)" rx="2" ry="2" />
<text  x="17.78" y="81.5" >firedrake.fun..</text>
</g>
<g >
<title>VecAXPBYCZ (135,069 us, 0.01%)</title><rect x="695.7" y="199" width="0.1" height="15.0" fill="rgb(0,0,0)" rx="2" ry="2" />
<text  x="698.70" y="209.5" ></text>
</g>
<g >
<title>MatAssemblyEnd (341,343 us, 0.03%)</title><rect x="230.1" y="103" width="0.3" height="15.0" fill="rgb(0,0,0)" rx="2" ry="2" />
<text  x="233.05" y="113.5" ></text>
</g>
<g >
<title>KSPSolve (4,107,766 us, 0.37%)</title><rect x="761.4" y="199" width="4.4" height="15.0" fill="rgb(0,0,0)" rx="2" ry="2" />
<text  x="764.39" y="209.5" ></text>
</g>
<g >
<title>KSPSolve (233,466,480 us, 21.03%)</title><rect x="775.6" y="151" width="248.2" height="15.0" fill="rgb(0,0,0)" rx="2" ry="2" />
<text  x="778.63" y="161.5" >KSPSolve</text>
</g>
<g >
<title>Parloop_Cells_wrap_form1_cell_integral_otherwise (3,425,433 us, 0.31%)</title><rect x="1138.7" y="135" width="3.6" height="15.0" fill="rgb(0,0,0)" rx="2" ry="2" />
<text  x="1141.70" y="145.5" ></text>
</g>
<g >
<title>firedrake.extrusion_utils.make_extruded_coords (901,132 us, 0.08%)</title><rect x="11.4" y="87" width="0.9" height="15.0" fill="rgb(0,0,0)" rx="2" ry="2" />
<text  x="14.37" y="97.5" ></text>
</g>
<g >
<title>MatMultAdd (2,482,287 us, 0.22%)</title><rect x="1005.1" y="183" width="2.6" height="15.0" fill="rgb(0,0,0)" rx="2" ry="2" />
<text  x="1008.09" y="193.5" ></text>
</g>
<g >
<title>VecAYPX (181,210 us, 0.02%)</title><rect x="695.8" y="199" width="0.2" height="15.0" fill="rgb(0,0,0)" rx="2" ry="2" />
<text  x="698.84" y="209.5" ></text>
</g>
<g >
<title>VecAXPBYCZ (133,355 us, 0.01%)</title><rect x="967.6" y="231" width="0.2" height="15.0" fill="rgb(0,0,0)" rx="2" ry="2" />
<text  x="970.65" y="241.5" ></text>
</g>
<g >
<title>Parloop_Cells_wrap_form00_cell_integral_otherwise (9,116,838 us, 0.82%)</title><rect x="21.6" y="135" width="9.7" height="15.0" fill="rgb(0,0,0)" rx="2" ry="2" />
<text  x="24.62" y="145.5" ></text>
</g>
<g >
<title>pyop2.global_kernel.GlobalKernel.compile (13,833,416 us, 1.25%)</title><rect x="1150.9" y="151" width="14.7" height="15.0" fill="rgb(0,0,0)" rx="2" ry="2" />
<text  x="1153.90" y="161.5" ></text>
</g>
<g >
<title>MatMult (1,123,616 us, 0.10%)</title><rect x="98.1" y="135" width="1.2" height="15.0" fill="rgb(0,0,0)" rx="2" ry="2" />
<text  x="101.13" y="145.5" ></text>
</g>
<g >
<title>PCApply (2,445,151 us, 0.22%)</title><rect x="773.0" y="199" width="2.6" height="15.0" fill="rgb(0,0,0)" rx="2" ry="2" />
<text  x="776.03" y="209.5" ></text>
</g>
<g >
<title>MatICCFactorSym (265,838 us, 0.02%)</title><rect x="136.5" y="151" width="0.3" height="15.0" fill="rgb(0,0,0)" rx="2" ry="2" />
<text  x="139.52" y="161.5" ></text>
</g>
<g >
<title>KSPSolve (5,716,770 us, 0.52%)</title><rect x="769.5" y="183" width="6.1" height="15.0" fill="rgb(0,0,0)" rx="2" ry="2" />
<text  x="772.55" y="193.5" ></text>
</g>
<g >
<title>MatLUFactorNum (41,417,363 us, 3.73%)</title><rect x="1025.2" y="183" width="44.0" height="15.0" fill="rgb(0,0,0)" rx="2" ry="2" />
<text  x="1028.21" y="193.5" >Mat..</text>
</g>
<g >
<title>MatConvert (2,774,010 us, 0.25%)</title><rect x="754.8" y="215" width="3.0" height="15.0" fill="rgb(0,0,0)" rx="2" ry="2" />
<text  x="757.82" y="225.5" ></text>
</g>
<g >
<title>Parloop_Cells_wrap_form0_cell_integral_otherwise (6,440,762 us, 0.58%)</title><rect x="14.8" y="119" width="6.8" height="15.0" fill="rgb(0,0,0)" rx="2" ry="2" />
<text  x="17.78" y="129.5" ></text>
</g>
<g >
<title>GAMG: partLevel (3,564,450 us, 0.32%)</title><rect x="765.8" y="167" width="3.7" height="15.0" fill="rgb(0,0,0)" rx="2" ry="2" />
<text  x="768.76" y="177.5" ></text>
</g>
<g >
<title>PCApply (1,691,599 us, 0.15%)</title><rect x="99.3" y="167" width="1.8" height="15.0" fill="rgb(0,0,0)" rx="2" ry="2" />
<text  x="102.33" y="177.5" ></text>
</g>
<g >
<title>MatZeroInitial (17,896,502 us, 1.61%)</title><rect x="77.9" y="135" width="19.1" height="15.0" fill="rgb(0,0,0)" rx="2" ry="2" />
<text  x="80.94" y="145.5" ></text>
</g>
<g >
<title>firedrake.assemble_expressions.evaluate_expression (781,200 us, 0.07%)</title><rect x="13.9" y="103" width="0.9" height="15.0" fill="rgb(0,0,0)" rx="2" ry="2" />
<text  x="16.95" y="113.5" ></text>
</g>
<g >
<title>KSPSolve (180,675,035 us, 16.28%)</title><rect x="775.9" y="215" width="192.1" height="15.0" fill="rgb(0,0,0)" rx="2" ry="2" />
<text  x="778.90" y="225.5" >KSPSolve</text>
</g>
<g >
<title>MatMultTranspose (141,031 us, 0.01%)</title><rect x="968.0" y="215" width="0.1" height="15.0" fill="rgb(0,0,0)" rx="2" ry="2" />
<text  x="970.98" y="225.5" ></text>
</g>
<g >
<title>MatAssemblyEnd (239,882 us, 0.02%)</title><rect x="77.7" y="135" width="0.2" height="15.0" fill="rgb(0,0,0)" rx="2" ry="2" />
<text  x="80.68" y="145.5" ></text>
</g>
<g >
<title>MatSOR (2,445,151 us, 0.22%)</title><rect x="773.0" y="247" width="2.6" height="15.0" fill="rgb(0,0,0)" rx="2" ry="2" />
<text  x="776.03" y="257.5" ></text>
</g>
<g >
<title>PCSetUp (46,140,496 us, 4.16%)</title><rect x="1085.1" y="103" width="49.1" height="15.0" fill="rgb(0,0,0)" rx="2" ry="2" />
<text  x="1088.10" y="113.5" >PCSe..</text>
</g>
<g >
<title>pyop2.global_kernel.GlobalKernel.compile (7,102,968 us, 0.64%)</title><rect x="1168.8" y="151" width="7.6" height="15.0" fill="rgb(0,0,0)" rx="2" ry="2" />
<text  x="1171.81" y="161.5" ></text>
</g>
<g >
<title>pyop2.global_kernel.GlobalKernel.compile (383,560 us, 0.03%)</title><rect x="14.4" y="151" width="0.4" height="15.0" fill="rgb(0,0,0)" rx="2" ry="2" />
<text  x="17.37" y="161.5" ></text>
</g>
<g >
<title>firedrake.tsfc_interface.compile_form (447,959 us, 0.04%)</title><rect x="136.8" y="103" width="0.5" height="15.0" fill="rgb(0,0,0)" rx="2" ry="2" />
<text  x="139.80" y="113.5" ></text>
</g>
<g >
<title>VecAYPX (177,109 us, 0.02%)</title><rect x="967.8" y="231" width="0.2" height="15.0" fill="rgb(0,0,0)" rx="2" ry="2" />
<text  x="970.79" y="241.5" ></text>
</g>
<g >
<title>PCSetUp (54,828,120 us, 4.94%)</title><rect x="717.3" y="151" width="58.3" height="15.0" fill="rgb(0,0,0)" rx="2" ry="2" />
<text  x="720.34" y="161.5" >PCSetUp</text>
</g>
<g >
<title>PCGAMG Opt l00 (1,723,481 us, 0.16%)</title><rect x="759.6" y="215" width="1.8" height="15.0" fill="rgb(0,0,0)" rx="2" ry="2" />
<text  x="762.56" y="225.5" ></text>
</g>
<g >
<title>pyop2.global_kernel.GlobalKernel.compile (2,950,588 us, 0.27%)</title><rect x="28.2" y="151" width="3.1" height="15.0" fill="rgb(0,0,0)" rx="2" ry="2" />
<text  x="31.18" y="161.5" ></text>
</g>
<g >
<title>MatResidual (19,922,090 us, 1.79%)</title><rect x="696.2" y="183" width="21.1" height="15.0" fill="rgb(0,0,0)" rx="2" ry="2" />
<text  x="699.16" y="193.5" ></text>
</g>
<g >
<title>pyop2.global_kernel.GlobalKernel.compile (3,425,433 us, 0.31%)</title><rect x="1138.7" y="151" width="3.6" height="15.0" fill="rgb(0,0,0)" rx="2" ry="2" />
<text  x="1141.70" y="161.5" ></text>
</g>
<g >
<title>MatMult (218,069,418 us, 19.65%)</title><rect x="775.9" y="167" width="231.8" height="15.0" fill="rgb(0,0,0)" rx="2" ry="2" />
<text  x="778.90" y="177.5" >MatMult</text>
</g>
<g >
<title>KSPSolve (198,035,861 us, 17.84%)</title><rect x="295.3" y="151" width="210.5" height="15.0" fill="rgb(0,0,0)" rx="2" ry="2" />
<text  x="298.31" y="161.5" >KSPSolve</text>
</g>
<g >
<title>MatMultTranspose (122,185 us, 0.01%)</title><rect x="484.6" y="183" width="0.1" height="15.0" fill="rgb(0,0,0)" rx="2" ry="2" />
<text  x="487.62" y="193.5" ></text>
</g>
<g >
<title>MatMult (98,942,277 us, 8.91%)</title><rect x="295.3" y="199" width="105.2" height="15.0" fill="rgb(0,0,0)" rx="2" ry="2" />
<text  x="298.31" y="209.5" >MatMult</text>
</g>
<g >
<title>VecSet (148,833 us, 0.01%)</title><rect x="484.1" y="231" width="0.2" height="15.0" fill="rgb(0,0,0)" rx="2" ry="2" />
<text  x="487.12" y="241.5" ></text>
</g>
<g >
<title>KSPSolve (178,069,177 us, 16.04%)</title><rect x="295.3" y="183" width="189.3" height="15.0" fill="rgb(0,0,0)" rx="2" ry="2" />
<text  x="298.31" y="193.5" >KSPSolve</text>
</g>
<g >
<title>firedrake.norms.norm (11,143,933 us, 1.00%)</title><rect x="137.3" y="87" width="11.8" height="15.0" fill="rgb(0,0,0)" rx="2" ry="2" />
<text  x="140.28" y="97.5" ></text>
</g>
<g >
<title>MatResidual (19,844,499 us, 1.79%)</title><rect x="484.7" y="183" width="21.1" height="15.0" fill="rgb(0,0,0)" rx="2" ry="2" />
<text  x="487.75" y="193.5" ></text>
</g>
<g >
<title>firedrake.variational_solver.NonlinearVariationalSolver.__init__ (102,895,100 us, 9.27%)</title><rect x="149.1" y="71" width="109.4" height="15.0" fill="rgb(0,0,0)" rx="2" ry="2" />
<text  x="152.13" y="81.5" >firedrake.va..</text>
</g>
<g >
<title>MatMult (19,820,027 us, 1.79%)</title><rect x="968.1" y="231" width="21.1" height="15.0" fill="rgb(0,0,0)" rx="2" ry="2" />
<text  x="971.13" y="241.5" ></text>
</g>
<g >
<title>all (1,109,968,754 us, 100%)</title><rect x="10.0" y="39" width="1180.0" height="15.0" fill="rgb(0,0,0)" rx="2" ry="2" />
<text  x="13.00" y="49.5" ></text>
</g>
<g >
<title>Log_Event_form01_cell_integral_otherwise (441,202 us, 0.04%)</title><rect x="1168.3" y="151" width="0.5" height="15.0" fill="rgb(0,0,0)" rx="2" ry="2" />
<text  x="1171.34" y="161.5" ></text>
</g>
<g >
<title>VecAXPBYCZ (137,051 us, 0.01%)</title><rect x="484.3" y="199" width="0.1" height="15.0" fill="rgb(0,0,0)" rx="2" ry="2" />
<text  x="487.28" y="209.5" ></text>
</g>
<g >
<title>PCApply (385,190 us, 0.03%)</title><rect x="765.4" y="215" width="0.4" height="15.0" fill="rgb(0,0,0)" rx="2" ry="2" />
<text  x="768.35" y="225.5" ></text>
</g>
<g >
<title>KSPSolve (198,944,007 us, 17.92%)</title><rect x="505.8" y="151" width="211.5" height="15.0" fill="rgb(0,0,0)" rx="2" ry="2" />
<text  x="508.84" y="161.5" >KSPSolve</text>
</g>
<g >
<title>SNESFunctionEval (9,002,687 us, 0.81%)</title><rect x="1134.2" y="103" width="9.5" height="15.0" fill="rgb(0,0,0)" rx="2" ry="2" />
<text  x="1137.16" y="113.5" ></text>
</g>
<g >
<title>SNESSolve (876,205,086 us, 78.94%)</title><rect x="258.5" y="87" width="931.5" height="15.0" fill="rgb(0,0,0)" rx="2" ry="2" />
<text  x="261.51" y="97.5" >SNESSolve</text>
</g>
<g >
<title>pyop2.global_kernel.GlobalKernel.compile (7,306,060 us, 0.66%)</title><rect x="1180.4" y="151" width="7.8" height="15.0" fill="rgb(0,0,0)" rx="2" ry="2" />
<text  x="1183.43" y="161.5" ></text>
</g>
<g >
<title>firedrake.projection.project (115,232,139 us, 10.38%)</title><rect x="14.8" y="87" width="122.5" height="15.0" fill="rgb(0,0,0)" rx="2" ry="2" />
<text  x="17.78" y="97.5" >firedrake.pro..</text>
</g>
<g >
<title>PCApply (78,807,886 us, 7.10%)</title><rect x="400.5" y="199" width="83.8" height="15.0" fill="rgb(0,0,0)" rx="2" ry="2" />
<text  x="403.50" y="209.5" >PCApply</text>
</g>
<g >
<title>VecAYPX (181,963 us, 0.02%)</title><rect x="484.4" y="199" width="0.2" height="15.0" fill="rgb(0,0,0)" rx="2" ry="2" />
<text  x="487.42" y="209.5" ></text>
</g>
<g >
<title>MatMult (14,921,648 us, 1.34%)</title><rect x="1069.2" y="135" width="15.9" height="15.0" fill="rgb(0,0,0)" rx="2" ry="2" />
<text  x="1072.24" y="145.5" ></text>
</g>
<g >
<title>MatSOR (78,659,053 us, 7.09%)</title><rect x="400.5" y="247" width="83.6" height="15.0" fill="rgb(0,0,0)" rx="2" ry="2" />
<text  x="403.50" y="257.5" >MatSOR</text>
</g>
<g >
<title>MatMult (3,722,576 us, 0.34%)</title><rect x="761.4" y="215" width="4.0" height="15.0" fill="rgb(0,0,0)" rx="2" ry="2" />
<text  x="764.39" y="225.5" ></text>
</g>
<g >
<title>  Graph (13,522,356 us, 1.22%)</title><rect x="745.0" y="199" width="14.4" height="15.0" fill="rgb(0,0,0)" rx="2" ry="2" />
<text  x="748.01" y="209.5" ></text>
</g>
<g >
<title>KSPSolve (1,691,599 us, 0.15%)</title><rect x="99.3" y="151" width="1.8" height="15.0" fill="rgb(0,0,0)" rx="2" ry="2" />
<text  x="102.33" y="161.5" ></text>
</g>
<g >
<title>PCApply (2,445,151 us, 0.22%)</title><rect x="773.0" y="231" width="2.6" height="15.0" fill="rgb(0,0,0)" rx="2" ry="2" />
<text  x="776.03" y="241.5" ></text>
</g>
<g >
<title>KSPSolve (200,636,093 us, 18.08%)</title><rect x="775.9" y="183" width="213.3" height="15.0" fill="rgb(0,0,0)" rx="2" ry="2" />
<text  x="778.90" y="193.5" >KSPSolve</text>
</g>
<g >
<title>PCApply (200,636,093 us, 18.08%)</title><rect x="775.9" y="199" width="213.3" height="15.0" fill="rgb(0,0,0)" rx="2" ry="2" />
<text  x="778.90" y="209.5" >PCApply</text>
</g>
<g >
<title>MatILUFactorSym (1,305,057 us, 0.12%)</title><rect x="1023.8" y="183" width="1.4" height="15.0" fill="rgb(0,0,0)" rx="2" ry="2" />
<text  x="1026.82" y="193.5" ></text>
</g>
<g >
<title>PCApply (15,137,486 us, 1.36%)</title><rect x="1007.7" y="199" width="16.1" height="15.0" fill="rgb(0,0,0)" rx="2" ry="2" />
<text  x="1010.73" y="209.5" ></text>
</g>
<g >
<title>KSPSolve (15,137,486 us, 1.36%)</title><rect x="1007.7" y="183" width="16.1" height="15.0" fill="rgb(0,0,0)" rx="2" ry="2" />
<text  x="1010.73" y="193.5" ></text>
</g>
<g >
<title>PCGAMGPOpt_AGG (5,995,490 us, 0.54%)</title><rect x="759.4" y="183" width="6.4" height="15.0" fill="rgb(0,0,0)" rx="2" ry="2" />
<text  x="762.39" y="193.5" ></text>
</g>
<g >
<title>  SA: smooth (1,887,724 us, 0.17%)</title><rect x="759.4" y="199" width="2.0" height="15.0" fill="rgb(0,0,0)" rx="2" ry="2" />
<text  x="762.39" y="209.5" ></text>
</g>
<g >
<title>MatAssemblyEnd (193,807 us, 0.02%)</title><rect x="1089.7" y="135" width="0.2" height="15.0" fill="rgb(0,0,0)" rx="2" ry="2" />
<text  x="1092.66" y="145.5" ></text>
</g>
<g >
<title>CreateExtMesh (901,132 us, 0.08%)</title><rect x="11.4" y="71" width="0.9" height="15.0" fill="rgb(0,0,0)" rx="2" ry="2" />
<text  x="14.37" y="81.5" ></text>
</g>
<g >
<title>Log_Event_form10_cell_integral_otherwise (643,262 us, 0.06%)</title><rect x="1179.7" y="151" width="0.7" height="15.0" fill="rgb(0,0,0)" rx="2" ry="2" />
<text  x="1182.74" y="161.5" ></text>
</g>
<g >
<title>KSPSolve (2,815,215 us, 0.25%)</title><rect x="98.1" y="119" width="3.0" height="15.0" fill="rgb(0,0,0)" rx="2" ry="2" />
<text  x="101.13" y="129.5" ></text>
</g>
<g >
<title>ParLoopExecute (781,200 us, 0.07%)</title><rect x="13.9" y="119" width="0.9" height="15.0" fill="rgb(0,0,0)" rx="2" ry="2" />
<text  x="16.95" y="129.5" ></text>
</g>
<g >
<title>MatMatMultSym (779,864 us, 0.07%)</title><rect x="760.6" y="231" width="0.8" height="15.0" fill="rgb(0,0,0)" rx="2" ry="2" />
<text  x="763.56" y="241.5" ></text>
</g>
<g >
<title>MatMatMultNum (16,919,155 us, 1.52%)</title><rect x="1097.3" y="119" width="18.0" height="15.0" fill="rgb(0,0,0)" rx="2" ry="2" />
<text  x="1100.26" y="129.5" ></text>
</g>
<g >
<title>MatPtAPSymbolic (980,391 us, 0.09%)</title><rect x="768.5" y="199" width="1.0" height="15.0" fill="rgb(0,0,0)" rx="2" ry="2" />
<text  x="771.51" y="209.5" ></text>
</g>
<g >
<title>MatMultTranspose (115,616 us, 0.01%)</title><rect x="696.0" y="183" width="0.2" height="15.0" fill="rgb(0,0,0)" rx="2" ry="2" />
<text  x="699.04" y="193.5" ></text>
</g>
<g >
<title>KSPSolve (81,232,308 us, 7.32%)</title><rect x="881.3" y="247" width="86.3" height="15.0" fill="rgb(0,0,0)" rx="2" ry="2" />
<text  x="884.29" y="257.5" >KSPSolve</text>
</g>
<g >
<title>MatCreateSubMats (6,057,741 us, 0.55%)</title><rect x="1090.8" y="119" width="6.5" height="15.0" fill="rgb(0,0,0)" rx="2" ry="2" />
<text  x="1093.82" y="129.5" ></text>
</g>
<g >
<title>MatMult (99,311,963 us, 8.95%)</title><rect x="505.8" y="199" width="105.6" height="15.0" fill="rgb(0,0,0)" rx="2" ry="2" />
<text  x="508.84" y="209.5" >MatMult</text>
</g>
<g >
<title>PCGAMG Squ l00 (25,695,195 us, 2.31%)</title><rect x="717.7" y="199" width="27.3" height="15.0" fill="rgb(0,0,0)" rx="2" ry="2" />
<text  x="720.69" y="209.5" >P..</text>
</g>
<g >
<title>CreateSparsity (76,123,675 us, 6.86%)</title><rect x="149.1" y="103" width="81.0" height="15.0" fill="rgb(0,0,0)" rx="2" ry="2" />
<text  x="152.13" y="113.5" >CreateSp..</text>
</g>
<g >
<title>firedrake (1,109,968,754 us, 100.00%)</title><rect x="10.0" y="55" width="1180.0" height="15.0" fill="rgb(0,0,0)" rx="2" ry="2" />
<text  x="13.00" y="65.5" >firedrake</text>
</g>
<g >
<title>ParLoopExecute (41,206,931 us, 3.71%)</title><rect x="1144.4" y="119" width="43.8" height="15.0" fill="rgb(0,0,0)" rx="2" ry="2" />
<text  x="1147.39" y="129.5" >Par..</text>
</g>
<g >
<title>PCApply (81,083,473 us, 7.31%)</title><rect x="881.3" y="263" width="86.2" height="15.0" fill="rgb(0,0,0)" rx="2" ry="2" />
<text  x="884.29" y="273.5" >PCApply</text>
</g>
<g >
<title>PCApply (79,278,059 us, 7.14%)</title><rect x="611.4" y="199" width="84.3" height="15.0" fill="rgb(0,0,0)" rx="2" ry="2" />
<text  x="614.42" y="209.5" >PCApply</text>
</g>
<g >
<title>firedrake.assemble.allocate_matrix (102,895,100 us, 9.27%)</title><rect x="149.1" y="87" width="109.4" height="15.0" fill="rgb(0,0,0)" rx="2" ry="2" />
<text  x="152.13" y="97.5" >firedrake.as..</text>
</g>
<g >
<title>ParLoopExecute (9,776,062 us, 0.88%)</title><rect x="137.3" y="119" width="10.4" height="15.0" fill="rgb(0,0,0)" rx="2" ry="2" />
<text  x="140.28" y="129.5" ></text>
</g>
<g >
<title>PCApply (198,035,861 us, 17.84%)</title><rect x="295.3" y="167" width="210.5" height="15.0" fill="rgb(0,0,0)" rx="2" ry="2" />
<text  x="298.31" y="177.5" >PCApply</text>
</g>
<g >
<title>MatAssemblyEnd (798,057 us, 0.07%)</title><rect x="754.0" y="215" width="0.8" height="15.0" fill="rgb(0,0,0)" rx="2" ry="2" />
<text  x="756.97" y="225.5" ></text>
</g>
<g >
<title>Parloop_set_#x7fc8e8586440_wrap_expression_kernel (397,640 us, 0.04%)</title><rect x="13.9" y="135" width="0.5" height="15.0" fill="rgb(0,0,0)" rx="2" ry="2" />
<text  x="16.95" y="145.5" ></text>
</g>
<g >
<title>MatMult (33,977,582 us, 3.06%)</title><rect x="259.1" y="119" width="36.1" height="15.0" fill="rgb(0,0,0)" rx="2" ry="2" />
<text  x="262.06" y="129.5" >Ma..</text>
</g>
<g >
<title>MatScale (515,007 us, 0.05%)</title><rect x="1133.6" y="119" width="0.6" height="15.0" fill="rgb(0,0,0)" rx="2" ry="2" />
<text  x="1136.61" y="129.5" ></text>
</g>
<g >
<title>KSPSolve_FS_Schu (276,188,900 us, 24.88%)</title><rect x="775.6" y="135" width="293.6" height="15.0" fill="rgb(0,0,0)" rx="2" ry="2" />
<text  x="778.63" y="145.5" >KSPSolve_FS_Schu</text>
</g>
<g >
<title>VecMAXPY (208,895 us, 0.02%)</title><rect x="258.5" y="135" width="0.2" height="15.0" fill="rgb(0,0,0)" rx="2" ry="2" />
<text  x="261.51" y="145.5" ></text>
</g>
<g >
<title>firedrake.linear_solver.LinearSolver.__init__ (115,127 us, 0.01%)</title><rect x="98.0" y="103" width="0.1" height="15.0" fill="rgb(0,0,0)" rx="2" ry="2" />
<text  x="101.01" y="113.5" ></text>
</g>
<g >
<title>pyop2.global_kernel.GlobalKernel.compile (9,776,062 us, 0.88%)</title><rect x="137.3" y="151" width="10.4" height="15.0" fill="rgb(0,0,0)" rx="2" ry="2" />
<text  x="140.28" y="161.5" ></text>
</g>
<g >
<title>MatMatMultSym (17,267,994 us, 1.56%)</title><rect x="1115.3" y="119" width="18.3" height="15.0" fill="rgb(0,0,0)" rx="2" ry="2" />
<text  x="1118.25" y="129.5" ></text>
</g>
<g >
<title>  MIS/Agg (129,303 us, 0.01%)</title><rect x="717.6" y="199" width="0.1" height="15.0" fill="rgb(0,0,0)" rx="2" ry="2" />
<text  x="720.56" y="209.5" ></text>
</g>
<g >
<title>pyop2.global_kernel.GlobalKernel.compile (6,440,762 us, 0.58%)</title><rect x="14.8" y="135" width="6.8" height="15.0" fill="rgb(0,0,0)" rx="2" ry="2" />
<text  x="17.78" y="145.5" ></text>
</g>
<g >
<title>Parloop_Cells_wrap_form0_cell_integral_otherwise (4,274,798 us, 0.39%)</title><rect x="1134.2" y="135" width="4.5" height="15.0" fill="rgb(0,0,0)" rx="2" ry="2" />
<text  x="1137.16" y="145.5" ></text>
</g>
<g >
<title>pyop2.global_kernel.GlobalKernel.compile (901,132 us, 0.08%)</title><rect x="11.4" y="135" width="0.9" height="15.0" fill="rgb(0,0,0)" rx="2" ry="2" />
<text  x="14.37" y="145.5" ></text>
</g>
<g >
<title>MatAssemblyEnd (146,573 us, 0.01%)</title><rect x="744.9" y="231" width="0.1" height="15.0" fill="rgb(0,0,0)" rx="2" ry="2" />
<text  x="747.85" y="241.5" ></text>
</g>
<g >
<title>Log_Event_form00_cell_integral_otherwise (1,302,215 us, 0.12%)</title><rect x="1149.5" y="151" width="1.4" height="15.0" fill="rgb(0,0,0)" rx="2" ry="2" />
<text  x="1152.51" y="161.5" ></text>
</g>
<g >
<title>Parloop_Cells_wrap_form01_cell_integral_otherwise (10,117,509 us, 0.91%)</title><rect x="1165.6" y="135" width="10.8" height="15.0" fill="rgb(0,0,0)" rx="2" ry="2" />
<text  x="1168.60" y="145.5" ></text>
</g>
<g >
<title>PCApply (15,137,486 us, 1.36%)</title><rect x="1007.7" y="167" width="16.1" height="15.0" fill="rgb(0,0,0)" rx="2" ry="2" />
<text  x="1010.73" y="177.5" ></text>
</g>
<g >
<title>KSPSolve_FS_0 (198,035,861 us, 17.84%)</title><rect x="295.3" y="135" width="210.5" height="15.0" fill="rgb(0,0,0)" rx="2" ry="2" />
<text  x="298.31" y="145.5" >KSPSolve_FS_0</text>
</g>
<g >
<title>PCApply (81,232,308 us, 7.32%)</title><rect x="881.3" y="231" width="86.3" height="15.0" fill="rgb(0,0,0)" rx="2" ry="2" />
<text  x="884.29" y="241.5" >PCApply</text>
</g>
<g >
<title>MatCholFctrNum (33,295,417 us, 3.00%)</title><rect x="101.1" y="151" width="35.4" height="15.0" fill="rgb(0,0,0)" rx="2" ry="2" />
<text  x="104.12" y="161.5" >Ma..</text>
</g>
<g >
<title>firedrake.norms.errornorm (11,143,933 us, 1.00%)</title><rect x="137.3" y="71" width="11.8" height="15.0" fill="rgb(0,0,0)" rx="2" ry="2" />
<text  x="140.28" y="81.5" ></text>
</g>
<g >
<title>firedrake.assemble.assemble (781,200 us, 0.07%)</title><rect x="13.9" y="71" width="0.9" height="15.0" fill="rgb(0,0,0)" rx="2" ry="2" />
<text  x="16.95" y="81.5" ></text>
</g>
<g >
<title>VecSet (148,032 us, 0.01%)</title><rect x="695.5" y="231" width="0.2" height="15.0" fill="rgb(0,0,0)" rx="2" ry="2" />
<text  x="698.54" y="241.5" ></text>
</g>
<g >
<title>MatScale (1,523,245 us, 0.14%)</title><rect x="757.8" y="215" width="1.6" height="15.0" fill="rgb(0,0,0)" rx="2" ry="2" />
<text  x="760.77" y="225.5" ></text>
</g>
<g >
<title>PCApply (198,944,007 us, 17.92%)</title><rect x="505.8" y="167" width="211.5" height="15.0" fill="rgb(0,0,0)" rx="2" ry="2" />
<text  x="508.84" y="177.5" >PCApply</text>
</g>
<g >
<title>PCApply (79,130,027 us, 7.13%)</title><rect x="611.4" y="231" width="84.1" height="15.0" fill="rgb(0,0,0)" rx="2" ry="2" />
<text  x="614.42" y="241.5" >PCApply</text>
</g>
<g >
<title>MatTrnMatMultSym (25,695,195 us, 2.31%)</title><rect x="717.7" y="215" width="27.3" height="15.0" fill="rgb(0,0,0)" rx="2" ry="2" />
<text  x="720.69" y="225.5" >M..</text>
</g>
<g >
<title>GAMG: createProl (45,546,900 us, 4.10%)</title><rect x="717.3" y="167" width="48.5" height="15.0" fill="rgb(0,0,0)" rx="2" ry="2" />
<text  x="720.34" y="177.5" >GAMG..</text>
</g>
<g >
<title>PCApply (1,691,599 us, 0.15%)</title><rect x="99.3" y="135" width="1.8" height="15.0" fill="rgb(0,0,0)" rx="2" ry="2" />
<text  x="102.33" y="145.5" ></text>
</g>
<g >
<title>Log_Event_form00_cell_integral_otherwise (1,367,253 us, 0.12%)</title><rect x="26.7" y="151" width="1.5" height="15.0" fill="rgb(0,0,0)" rx="2" ry="2" />
<text  x="29.72" y="161.5" ></text>
</g>
<g >
<title>MatZeroInitial (26,430,082 us, 2.38%)</title><rect x="230.4" y="103" width="28.1" height="15.0" fill="rgb(0,0,0)" rx="2" ry="2" />
<text  x="233.41" y="113.5" >M..</text>
</g>
<g >
<title>pyop2.global_kernel.GlobalKernel.compile (397,640 us, 0.04%)</title><rect x="13.9" y="151" width="0.5" height="15.0" fill="rgb(0,0,0)" rx="2" ry="2" />
<text  x="16.95" y="161.5" ></text>
</g>
<g >
<title>KSPSolve (178,906,301 us, 16.12%)</title><rect x="505.8" y="183" width="190.2" height="15.0" fill="rgb(0,0,0)" rx="2" ry="2" />
<text  x="508.84" y="193.5" >KSPSolve</text>
</g>
<g >
<title>KSPSolve (777,534,781 us, 70.05%)</title><rect x="258.5" y="103" width="826.6" height="15.0" fill="rgb(0,0,0)" rx="2" ry="2" />
<text  x="261.51" y="113.5" >KSPSolve</text>
</g>
<g >
<title>ParLoopExecute (6,440,762 us, 0.58%)</title><rect x="14.8" y="103" width="6.8" height="15.0" fill="rgb(0,0,0)" rx="2" ry="2" />
<text  x="17.78" y="113.5" ></text>
</g>
<g >
<title>KSPGMRESOrthog (513,056 us, 0.05%)</title><rect x="258.5" y="119" width="0.6" height="15.0" fill="rgb(0,0,0)" rx="2" ry="2" />
<text  x="261.51" y="129.5" ></text>
</g>
<g >
<title>MatZeroEntries (620,639 us, 0.06%)</title><rect x="1143.7" y="119" width="0.7" height="15.0" fill="rgb(0,0,0)" rx="2" ry="2" />
<text  x="1146.73" y="129.5" ></text>
</g>
<g >
<title>ParLoopExecute (901,132 us, 0.08%)</title><rect x="11.4" y="103" width="0.9" height="15.0" fill="rgb(0,0,0)" rx="2" ry="2" />
<text  x="14.37" y="113.5" ></text>
</g>
<g >
<title>firedrake.assemble.allocate_matrix (61,752,612 us, 5.56%)</title><rect x="31.3" y="119" width="65.7" height="15.0" fill="rgb(0,0,0)" rx="2" ry="2" />
<text  x="34.32" y="129.5" >firedr..</text>
</g>
<g >
<title>CreateSparsity (43,616,228 us, 3.93%)</title><rect x="31.3" y="135" width="46.4" height="15.0" fill="rgb(0,0,0)" rx="2" ry="2" />
<text  x="34.32" y="145.5" >Crea..</text>
</g>
<g >
<title>firedrake.tsfc_interface.compile_form (982,371 us, 0.09%)</title><rect x="97.0" y="119" width="1.0" height="15.0" fill="rgb(0,0,0)" rx="2" ry="2" />
<text  x="99.96" y="129.5" ></text>
</g>
<g >
<title>Parloop_Cells_wrap_pyop2_kernel_uniform_extrusion (901,132 us, 0.08%)</title><rect x="11.4" y="119" width="0.9" height="15.0" fill="rgb(0,0,0)" rx="2" ry="2" />
<text  x="14.37" y="129.5" ></text>
</g>
<g >
<title>PCSetUp (42,722,420 us, 3.85%)</title><rect x="1023.8" y="167" width="45.4" height="15.0" fill="rgb(0,0,0)" rx="2" ry="2" />
<text  x="1026.82" y="177.5" >PCS..</text>
</g>
<g >
<title>firedrake.assemble_expressions.assemble_expression (781,200 us, 0.07%)</title><rect x="13.9" y="87" width="0.9" height="15.0" fill="rgb(0,0,0)" rx="2" ry="2" />
<text  x="16.95" y="97.5" ></text>
</g>
<g >
<title>MatMult (19,844,499 us, 1.79%)</title><rect x="484.7" y="199" width="21.1" height="15.0" fill="rgb(0,0,0)" rx="2" ry="2" />
<text  x="487.75" y="209.5" ></text>
</g>
<g >
<title>PCApply (743,044,143 us, 66.94%)</title><rect x="295.2" y="119" width="789.9" height="15.0" fill="rgb(0,0,0)" rx="2" ry="2" />
<text  x="298.18" y="129.5" >PCApply</text>
</g>
<g >
<title>MatMult (99,132,263 us, 8.93%)</title><rect x="775.9" y="231" width="105.4" height="15.0" fill="rgb(0,0,0)" rx="2" ry="2" />
<text  x="778.90" y="241.5" >MatMult</text>
</g>
<g >
<title>ParLoopExecute (7,700,231 us, 0.69%)</title><rect x="1134.2" y="119" width="8.1" height="15.0" fill="rgb(0,0,0)" rx="2" ry="2" />
<text  x="1137.16" y="129.5" ></text>
</g>
<g >
<title>PCSetUp (33,561,255 us, 3.02%)</title><rect x="101.1" y="135" width="35.7" height="15.0" fill="rgb(0,0,0)" rx="2" ry="2" />
<text  x="104.12" y="145.5" >PC..</text>
</g>
<g >
<title>KSPSolve (78,807,886 us, 7.10%)</title><rect x="400.5" y="215" width="83.8" height="15.0" fill="rgb(0,0,0)" rx="2" ry="2" />
<text  x="403.50" y="225.5" >KSPSolve</text>
</g>
<g >
<title>firedrake.tsfc_interface.compile_form (1,302,456 us, 0.12%)</title><rect x="1142.3" y="119" width="1.4" height="15.0" fill="rgb(0,0,0)" rx="2" ry="2" />
<text  x="1145.34" y="129.5" ></text>
</g>
<g >
<title>MatConvert (897,911 us, 0.08%)</title><rect x="1089.9" y="119" width="0.9" height="15.0" fill="rgb(0,0,0)" rx="2" ry="2" />
<text  x="1092.87" y="129.5" ></text>
</g>
<g >
<title>firedrake.assemble.assemble (71,851,821 us, 6.47%)</title><rect x="21.6" y="103" width="76.4" height="15.0" fill="rgb(0,0,0)" rx="2" ry="2" />
<text  x="24.62" y="113.5" >firedra..</text>
</g>
<g >
<title>MatAssemblyEnd (192,297 us, 0.02%)</title><rect x="1115.0" y="135" width="0.3" height="15.0" fill="rgb(0,0,0)" rx="2" ry="2" />
<text  x="1118.05" y="145.5" ></text>
</g>
<g >
<title>firedrake.__init__ (1,523,717 us, 0.14%)</title><rect x="12.3" y="71" width="1.6" height="15.0" fill="rgb(0,0,0)" rx="2" ry="2" />
<text  x="15.33" y="81.5" ></text>
</g>
<g >
<title>MatMult (19,922,090 us, 1.79%)</title><rect x="696.2" y="199" width="21.1" height="15.0" fill="rgb(0,0,0)" rx="2" ry="2" />
<text  x="699.16" y="209.5" ></text>
</g>
<g >
<title>MatSolve (15,137,486 us, 1.36%)</title><rect x="1007.7" y="215" width="16.1" height="15.0" fill="rgb(0,0,0)" rx="2" ry="2" />
<text  x="1010.73" y="225.5" ></text>
</g>
<g >
<title>MatPtAPNumeric (2,584,059 us, 0.23%)</title><rect x="765.8" y="199" width="2.7" height="15.0" fill="rgb(0,0,0)" rx="2" ry="2" />
<text  x="768.76" y="209.5" ></text>
</g>
<g >
<title>MatAssemblyEnd (482,410 us, 0.04%)</title><rect x="1096.8" y="135" width="0.5" height="15.0" fill="rgb(0,0,0)" rx="2" ry="2" />
<text  x="1099.75" y="145.5" ></text>
</g>
<g >
<title>KSPSolve (79,278,059 us, 7.14%)</title><rect x="611.4" y="215" width="84.3" height="15.0" fill="rgb(0,0,0)" rx="2" ry="2" />
<text  x="614.42" y="225.5" >KSPSolve</text>
</g>
<g >
<title>Parloop_Cells_wrap_form00_cell_integral_otherwise (19,957,158 us, 1.80%)</title><rect x="1144.4" y="135" width="21.2" height="15.0" fill="rgb(0,0,0)" rx="2" ry="2" />
<text  x="1147.39" y="145.5" ></text>
</g>
<g >
<title>VecSet (148,835 us, 0.01%)</title><rect x="967.5" y="263" width="0.1" height="15.0" fill="rgb(0,0,0)" rx="2" ry="2" />
<text  x="970.49" y="273.5" ></text>
</g>
</g>
</svg>
