<?xml version="1.0" standalone="no"?>
<!DOCTYPE svg PUBLIC "-//W3C//DTD SVG 1.1//EN" "http://www.w3.org/Graphics/SVG/1.1/DTD/svg11.dtd">
<svg version="1.1" width="1200" height="299" onload="init(evt)" viewBox="0 0 1200 299" xmlns="http://www.w3.org/2000/svg" xmlns:xlink="http://www.w3.org/1999/xlink">
<!-- Flame graph stack visualization. See https://github.com/brendangregg/FlameGraph for latest version, and http://www.brendangregg.com/flamegraphs.html for examples. -->
<!-- NOTES:  -->
<defs>
	<linearGradient id="background" y1="0" y2="1" x1="0" x2="0" >
		<stop stop-color="#eeeeee" offset="5%" />
		<stop stop-color="#eeeeb0" offset="95%" />
	</linearGradient>
</defs>
<style type="text/css">
	text { font-family:Verdana; font-size:13px; fill:rgb(0,0,0); }
	#search, #ignorecase { opacity:0.1; cursor:pointer; }
	#search:hover, #search.show, #ignorecase:hover, #ignorecase.show { opacity:1; }
	#subtitle { text-anchor:middle; font-color:rgb(160,160,160); }
	#title { text-anchor:middle; font-size:18px}
	#unzoom { cursor:pointer; }
	#frames > *:hover { stroke:black; stroke-width:0.5; cursor:pointer; }
	.hide { display:none; }
	.parent { opacity:0.5; }
</style>
<script type="text/ecmascript">
<![CDATA[
	"use strict";
	var details, searchbtn, unzoombtn, matchedtxt, svg, searching, currentSearchTerm, ignorecase, ignorecaseBtn;
	function init(evt) {
		details = document.getElementById("details").firstChild;
		searchbtn = document.getElementById("search");
		ignorecaseBtn = document.getElementById("ignorecase");
		unzoombtn = document.getElementById("unzoom");
		matchedtxt = document.getElementById("matched");
		svg = document.getElementsByTagName("svg")[0];
		searching = 0;
		currentSearchTerm = null;

		// use GET parameters to restore a flamegraphs state.
		var params = get_params();
		if (params.x && params.y)
			zoom(find_group(document.querySelector('[x="' + params.x + '"][y="' + params.y + '"]')));
                if (params.s) search(params.s);
	}

	// event listeners
	window.addEventListener("click", function(e) {
		var target = find_group(e.target);
		if (target) {
			if (target.nodeName == "a") {
				if (e.ctrlKey === false) return;
				e.preventDefault();
			}
			if (target.classList.contains("parent")) unzoom();
			zoom(target);
			if (!document.querySelector('.parent')) {
				clearzoom();
				return;
			}

			// set parameters for zoom state
			var el = target.querySelector("rect");
			if (el && el.attributes && el.attributes.y && el.attributes._orig_x) {
				var params = get_params()
				params.x = el.attributes._orig_x.value;
				params.y = el.attributes.y.value;
				history.replaceState(null, null, parse_params(params));
			}
		}
		else if (e.target.id == "unzoom") clearzoom();
		else if (e.target.id == "search") search_prompt();
		else if (e.target.id == "ignorecase") toggle_ignorecase();
	}, false)

	// mouse-over for info
	// show
	window.addEventListener("mouseover", function(e) {
		var target = find_group(e.target);
		if (target) details.nodeValue = "Function: " + g_to_text(target);
	}, false)

	// clear
	window.addEventListener("mouseout", function(e) {
		var target = find_group(e.target);
		if (target) details.nodeValue = ' ';
	}, false)

	// ctrl-F for search
	// ctrl-I to toggle case-sensitive search
	window.addEventListener("keydown",function (e) {
		if (e.keyCode === 114 || (e.ctrlKey && e.keyCode === 70)) {
			e.preventDefault();
			search_prompt();
		}
		else if (e.ctrlKey && e.keyCode === 73) {
			e.preventDefault();
			toggle_ignorecase();
		}
	}, false)

	// functions
	function get_params() {
		var params = {};
		var paramsarr = window.location.search.substr(1).split('&');
		for (var i = 0; i < paramsarr.length; ++i) {
			var tmp = paramsarr[i].split("=");
			if (!tmp[0] || !tmp[1]) continue;
			params[tmp[0]]  = decodeURIComponent(tmp[1]);
		}
		return params;
	}
	function parse_params(params) {
		var uri = "?";
		for (var key in params) {
			uri += key + '=' + encodeURIComponent(params[key]) + '&';
		}
		if (uri.slice(-1) == "&")
			uri = uri.substring(0, uri.length - 1);
		if (uri == '?')
			uri = window.location.href.split('?')[0];
		return uri;
	}
	function find_child(node, selector) {
		var children = node.querySelectorAll(selector);
		if (children.length) return children[0];
	}
	function find_group(node) {
		var parent = node.parentElement;
		if (!parent) return;
		if (parent.id == "frames") return node;
		return find_group(parent);
	}
	function orig_save(e, attr, val) {
		if (e.attributes["_orig_" + attr] != undefined) return;
		if (e.attributes[attr] == undefined) return;
		if (val == undefined) val = e.attributes[attr].value;
		e.setAttribute("_orig_" + attr, val);
	}
	function orig_load(e, attr) {
		if (e.attributes["_orig_"+attr] == undefined) return;
		e.attributes[attr].value = e.attributes["_orig_" + attr].value;
		e.removeAttribute("_orig_"+attr);
	}
	function g_to_text(e) {
		var text = find_child(e, "title").firstChild.nodeValue;
		return (text)
	}
	function g_to_func(e) {
		var func = g_to_text(e);
		// if there's any manipulation we want to do to the function
		// name before it's searched, do it here before returning.
		return (func);
	}
	function update_text(e) {
		var r = find_child(e, "rect");
		var t = find_child(e, "text");
		var w = parseFloat(r.attributes.width.value) -3;
		var txt = find_child(e, "title").textContent.replace(/\([^(]*\)$/,"");
		t.attributes.x.value = parseFloat(r.attributes.x.value) + 3;

		// Smaller than this size won't fit anything
		if (w < 2 * 13 * 0.59) {
			t.textContent = "";
			return;
		}

		t.textContent = txt;
		// Fit in full text width
		if (/^ *$/.test(txt) || t.getSubStringLength(0, txt.length) < w)
			return;

		for (var x = txt.length - 2; x > 0; x--) {
			if (t.getSubStringLength(0, x + 2) <= w) {
				t.textContent = txt.substring(0, x) + "..";
				return;
			}
		}
		t.textContent = "";
	}

	// zoom
	function zoom_reset(e) {
		if (e.attributes != undefined) {
			orig_load(e, "x");
			orig_load(e, "width");
		}
		if (e.childNodes == undefined) return;
		for (var i = 0, c = e.childNodes; i < c.length; i++) {
			zoom_reset(c[i]);
		}
	}
	function zoom_child(e, x, ratio) {
		if (e.attributes != undefined) {
			if (e.attributes.x != undefined) {
				orig_save(e, "x");
				e.attributes.x.value = (parseFloat(e.attributes.x.value) - x - 10) * ratio + 10;
				if (e.tagName == "text")
					e.attributes.x.value = find_child(e.parentNode, "rect[x]").attributes.x.value + 3;
			}
			if (e.attributes.width != undefined) {
				orig_save(e, "width");
				e.attributes.width.value = parseFloat(e.attributes.width.value) * ratio;
			}
		}

		if (e.childNodes == undefined) return;
		for (var i = 0, c = e.childNodes; i < c.length; i++) {
			zoom_child(c[i], x - 10, ratio);
		}
	}
	function zoom_parent(e) {
		if (e.attributes) {
			if (e.attributes.x != undefined) {
				orig_save(e, "x");
				e.attributes.x.value = 10;
			}
			if (e.attributes.width != undefined) {
				orig_save(e, "width");
				e.attributes.width.value = parseInt(svg.width.baseVal.value) - (10 * 2);
			}
		}
		if (e.childNodes == undefined) return;
		for (var i = 0, c = e.childNodes; i < c.length; i++) {
			zoom_parent(c[i]);
		}
	}
	function zoom(node) {
		var attr = find_child(node, "rect").attributes;
		var width = parseFloat(attr.width.value);
		var xmin = parseFloat(attr.x.value);
		var xmax = parseFloat(xmin + width);
		var ymin = parseFloat(attr.y.value);
		var ratio = (svg.width.baseVal.value - 2 * 10) / width;

		// XXX: Workaround for JavaScript float issues (fix me)
		var fudge = 0.0001;

		unzoombtn.classList.remove("hide");

		var el = document.getElementById("frames").children;
		for (var i = 0; i < el.length; i++) {
			var e = el[i];
			var a = find_child(e, "rect").attributes;
			var ex = parseFloat(a.x.value);
			var ew = parseFloat(a.width.value);
			var upstack;
			// Is it an ancestor
			if (1 == 0) {
				upstack = parseFloat(a.y.value) > ymin;
			} else {
				upstack = parseFloat(a.y.value) < ymin;
			}
			if (upstack) {
				// Direct ancestor
				if (ex <= xmin && (ex+ew+fudge) >= xmax) {
					e.classList.add("parent");
					zoom_parent(e);
					update_text(e);
				}
				// not in current path
				else
					e.classList.add("hide");
			}
			// Children maybe
			else {
				// no common path
				if (ex < xmin || ex + fudge >= xmax) {
					e.classList.add("hide");
				}
				else {
					zoom_child(e, xmin, ratio);
					update_text(e);
				}
			}
		}
		search();
	}
	function unzoom() {
		unzoombtn.classList.add("hide");
		var el = document.getElementById("frames").children;
		for(var i = 0; i < el.length; i++) {
			el[i].classList.remove("parent");
			el[i].classList.remove("hide");
			zoom_reset(el[i]);
			update_text(el[i]);
		}
		search();
	}
	function clearzoom() {
		unzoom();

		// remove zoom state
		var params = get_params();
		if (params.x) delete params.x;
		if (params.y) delete params.y;
		history.replaceState(null, null, parse_params(params));
	}

	// search
	function toggle_ignorecase() {
		ignorecase = !ignorecase;
		if (ignorecase) {
			ignorecaseBtn.classList.add("show");
		} else {
			ignorecaseBtn.classList.remove("show");
		}
		reset_search();
		search();
	}
	function reset_search() {
		var el = document.querySelectorAll("#frames rect");
		for (var i = 0; i < el.length; i++) {
			orig_load(el[i], "fill")
		}
		var params = get_params();
		delete params.s;
		history.replaceState(null, null, parse_params(params));
	}
	function search_prompt() {
		if (!searching) {
			var term = prompt("Enter a search term (regexp " +
			    "allowed, eg: ^ext4_)"
			    + (ignorecase ? ", ignoring case" : "")
			    + "\nPress Ctrl-i to toggle case sensitivity", "");
			if (term != null) search(term);
		} else {
			reset_search();
			searching = 0;
			currentSearchTerm = null;
			searchbtn.classList.remove("show");
			searchbtn.firstChild.nodeValue = "Search"
			matchedtxt.classList.add("hide");
			matchedtxt.firstChild.nodeValue = ""
		}
	}
	function search(term) {
		if (term) currentSearchTerm = term;

		var re = new RegExp(currentSearchTerm, ignorecase ? 'i' : '');
		var el = document.getElementById("frames").children;
		var matches = new Object();
		var maxwidth = 0;
		for (var i = 0; i < el.length; i++) {
			var e = el[i];
			var func = g_to_func(e);
			var rect = find_child(e, "rect");
			if (func == null || rect == null)
				continue;

			// Save max width. Only works as we have a root frame
			var w = parseFloat(rect.attributes.width.value);
			if (w > maxwidth)
				maxwidth = w;

			if (func.match(re)) {
				// highlight
				var x = parseFloat(rect.attributes.x.value);
				orig_save(rect, "fill");
				rect.attributes.fill.value = "rgb(230,0,230)";

				// remember matches
				if (matches[x] == undefined) {
					matches[x] = w;
				} else {
					if (w > matches[x]) {
						// overwrite with parent
						matches[x] = w;
					}
				}
				searching = 1;
			}
		}
		if (!searching)
			return;
		var params = get_params();
		params.s = currentSearchTerm;
		history.replaceState(null, null, parse_params(params));

		searchbtn.classList.add("show");
		searchbtn.firstChild.nodeValue = "Reset Search";

		// calculate percent matched, excluding vertical overlap
		var count = 0;
		var lastx = -1;
		var lastw = 0;
		var keys = Array();
		for (k in matches) {
			if (matches.hasOwnProperty(k))
				keys.push(k);
		}
		// sort the matched frames by their x location
		// ascending, then width descending
		keys.sort(function(a, b){
			return a - b;
		});
		// Step through frames saving only the biggest bottom-up frames
		// thanks to the sort order. This relies on the tree property
		// where children are always smaller than their parents.
		var fudge = 0.0001;	// JavaScript floating point
		for (var k in keys) {
			var x = parseFloat(keys[k]);
			var w = matches[keys[k]];
			if (x >= lastx + lastw - fudge) {
				count += w;
				lastx = x;
				lastw = w;
			}
		}
		// display matched percent
		matchedtxt.classList.remove("hide");
		var pct = 100 * count / maxwidth;
		if (pct != 100) pct = pct.toFixed(1)
		matchedtxt.firstChild.nodeValue = "Matched: " + pct + "%";
	}
]]>
</script>
<rect x="0.0" y="0" width="1200.0" height="299.0" fill="url(#background)"  />
<text id="title" x="600.00" y="26" >Firedrake example</text>
<text id="details" x="10.00" y="281" > </text>
<text id="unzoom" x="10.00" y="26" class="hide">Reset Zoom</text>
<text id="search" x="1090.00" y="26" >Search</text>
<text id="ignorecase" x="1174.00" y="26" >ic</text>
<text id="matched" x="1090.00" y="281" > </text>
<g id="frames">
<g >
<title>MatMatMultNum (16,908,897 us, 3.29%)</title><rect x="992.1" y="119" width="38.9" height="15.0" fill="rgb(0,0,0)" rx="2" ry="2" />
<text  x="995.13" y="129.5" >Mat..</text>
</g>
<g >
<title>MatAXPY (4,215,480 us, 0.82%)</title><rect x="967.5" y="119" width="9.7" height="15.0" fill="rgb(0,0,0)" rx="2" ry="2" />
<text  x="970.48" y="129.5" ></text>
</g>
<g >
<title>PCGAMG Opt l00 (1,730,488 us, 0.34%)</title><rect x="798.3" y="215" width="3.9" height="15.0" fill="rgb(0,0,0)" rx="2" ry="2" />
<text  x="801.25" y="225.5" ></text>
</g>
<g >
<title>GAMG: partLevel (3,652,003 us, 0.71%)</title><rect x="811.1" y="167" width="8.4" height="15.0" fill="rgb(0,0,0)" rx="2" ry="2" />
<text  x="814.11" y="177.5" ></text>
</g>
<g >
<title>ParLoopExecute (7,564,918 us, 1.47%)</title><rect x="1071.5" y="119" width="17.4" height="15.0" fill="rgb(0,0,0)" rx="2" ry="2" />
<text  x="1074.53" y="129.5" ></text>
</g>
<g >
<title>  SA: smooth (1,890,266 us, 0.37%)</title><rect x="797.9" y="199" width="4.3" height="15.0" fill="rgb(0,0,0)" rx="2" ry="2" />
<text  x="800.88" y="209.5" ></text>
</g>
<g >
<title>MatMult (8,989,832 us, 1.75%)</title><rect x="686.7" y="199" width="20.6" height="15.0" fill="rgb(0,0,0)" rx="2" ry="2" />
<text  x="689.66" y="209.5" ></text>
</g>
<g >
<title>  Graph (13,493,619 us, 2.63%)</title><rect x="766.9" y="199" width="31.0" height="15.0" fill="rgb(0,0,0)" rx="2" ry="2" />
<text  x="769.89" y="209.5" >  ..</text>
</g>
<g >
<title>MatScale (498,743 us, 0.10%)</title><rect x="1070.4" y="119" width="1.1" height="15.0" fill="rgb(0,0,0)" rx="2" ry="2" />
<text  x="1073.38" y="129.5" ></text>
</g>
<g >
<title>MatMultTranspose (63,656 us, 0.01%)</title><rect x="686.5" y="183" width="0.2" height="15.0" fill="rgb(0,0,0)" rx="2" ry="2" />
<text  x="689.51" y="193.5" ></text>
</g>
<g >
<title>PCApply (7,038,856 us, 1.37%)</title><rect x="832.7" y="199" width="16.1" height="15.0" fill="rgb(0,0,0)" rx="2" ry="2" />
<text  x="835.65" y="209.5" ></text>
</g>
<g >
<title>KSPSolve (310,979,798 us, 60.52%)</title><rect x="252.9" y="103" width="714.2" height="15.0" fill="rgb(0,0,0)" rx="2" ry="2" />
<text  x="255.86" y="113.5" >KSPSolve</text>
</g>
<g >
<title>MatCreateSubMats (5,661,709 us, 1.10%)</title><rect x="979.1" y="119" width="13.0" height="15.0" fill="rgb(0,0,0)" rx="2" ry="2" />
<text  x="982.13" y="129.5" ></text>
</g>
<g >
<title>PCApply (189,957 us, 0.04%)</title><rect x="810.7" y="215" width="0.4" height="15.0" fill="rgb(0,0,0)" rx="2" ry="2" />
<text  x="813.68" y="225.5" ></text>
</g>
<g >
<title>Parloop_Cells_wrap_form1_cell_integral_otherwise (3,529,181 us, 0.69%)</title><rect x="1080.8" y="135" width="8.1" height="15.0" fill="rgb(0,0,0)" rx="2" ry="2" />
<text  x="1083.80" y="145.5" ></text>
</g>
<g >
<title>MatMult (44,829,951 us, 8.73%)</title><rect x="501.6" y="199" width="103.0" height="15.0" fill="rgb(0,0,0)" rx="2" ry="2" />
<text  x="504.62" y="209.5" >MatMult</text>
</g>
<g >
<title>SNESJacobianEval (42,746,579 us, 8.32%)</title><rect x="1091.8" y="103" width="98.2" height="15.0" fill="rgb(0,0,0)" rx="2" ry="2" />
<text  x="1094.83" y="113.5" >SNESJacobi..</text>
</g>
<g >
<title>MatMatMultSym (17,164,161 us, 3.34%)</title><rect x="1031.0" y="119" width="39.4" height="15.0" fill="rgb(0,0,0)" rx="2" ry="2" />
<text  x="1033.96" y="129.5" >Mat..</text>
</g>
<g >
<title>firedrake.__init__ (1,511,034 us, 0.29%)</title><rect x="14.1" y="71" width="3.5" height="15.0" fill="rgb(0,0,0)" rx="2" ry="2" />
<text  x="17.11" y="81.5" ></text>
</g>
<g >
<title>Parloop_Cells_wrap_form0_cell_integral_otherwise (4,035,737 us, 0.79%)</title><rect x="1071.5" y="135" width="9.3" height="15.0" fill="rgb(0,0,0)" rx="2" ry="2" />
<text  x="1074.53" y="145.5" ></text>
</g>
<g >
<title>PCApply (89,561,603 us, 17.43%)</title><rect x="501.6" y="167" width="205.7" height="15.0" fill="rgb(0,0,0)" rx="2" ry="2" />
<text  x="504.62" y="177.5" >PCApply</text>
</g>
<g >
<title>KSPSolve (5,726,395 us, 1.11%)</title><rect x="819.5" y="183" width="13.2" height="15.0" fill="rgb(0,0,0)" rx="2" ry="2" />
<text  x="822.50" y="193.5" ></text>
</g>
<g >
<title>MatMatMultSym (781,653 us, 0.15%)</title><rect x="800.4" y="231" width="1.8" height="15.0" fill="rgb(0,0,0)" rx="2" ry="2" />
<text  x="803.43" y="241.5" ></text>
</g>
<g >
<title>KSPSolve (37,183,697 us, 7.24%)</title><rect x="395.1" y="215" width="85.4" height="15.0" fill="rgb(0,0,0)" rx="2" ry="2" />
<text  x="398.14" y="225.5" >KSPSolve</text>
</g>
<g >
<title>ParLoopExecute (40,443,153 us, 7.87%)</title><rect x="1093.3" y="119" width="92.8" height="15.0" fill="rgb(0,0,0)" rx="2" ry="2" />
<text  x="1096.26" y="129.5" >ParLoopExe..</text>
</g>
<g >
<title>MatPtAPSymbolic (996,620 us, 0.19%)</title><rect x="817.2" y="199" width="2.3" height="15.0" fill="rgb(0,0,0)" rx="2" ry="2" />
<text  x="820.21" y="209.5" ></text>
</g>
<g >
<title>KSPSolve (82,224,677 us, 16.00%)</title><rect x="292.0" y="183" width="188.9" height="15.0" fill="rgb(0,0,0)" rx="2" ry="2" />
<text  x="295.02" y="193.5" >KSPSolve</text>
</g>
<g >
<title>PCSetUp (45,491,561 us, 8.85%)</title><rect x="967.1" y="103" width="104.4" height="15.0" fill="rgb(0,0,0)" rx="2" ry="2" />
<text  x="970.05" y="113.5" >PCSetUp</text>
</g>
<g >
<title>KSPSolve (3,870,969 us, 0.75%)</title><rect x="802.2" y="199" width="8.9" height="15.0" fill="rgb(0,0,0)" rx="2" ry="2" />
<text  x="805.22" y="209.5" ></text>
</g>
<g >
<title>PCApply (91,263,462 us, 17.76%)</title><rect x="292.0" y="167" width="209.6" height="15.0" fill="rgb(0,0,0)" rx="2" ry="2" />
<text  x="295.02" y="177.5" >PCApply</text>
</g>
<g >
<title>pyop2.global_kernel.GlobalKernel.compile (3,529,181 us, 0.69%)</title><rect x="1080.8" y="151" width="8.1" height="15.0" fill="rgb(0,0,0)" rx="2" ry="2" />
<text  x="1083.80" y="161.5" ></text>
</g>
<g >
<title>MatAssemblyEnd (193,953 us, 0.04%)</title><rect x="976.7" y="135" width="0.5" height="15.0" fill="rgb(0,0,0)" rx="2" ry="2" />
<text  x="979.72" y="145.5" ></text>
</g>
<g >
<title>KSPSolve (80,508,115 us, 15.67%)</title><rect x="501.6" y="183" width="184.9" height="15.0" fill="rgb(0,0,0)" rx="2" ry="2" />
<text  x="504.62" y="193.5" >KSPSolve</text>
</g>
<g >
<title>firedrake.extrusion_utils.make_extruded_coords (870,303 us, 0.17%)</title><rect x="12.1" y="87" width="2.0" height="15.0" fill="rgb(0,0,0)" rx="2" ry="2" />
<text  x="15.11" y="97.5" ></text>
</g>
<g >
<title>SNESFunctionEval (8,839,210 us, 1.72%)</title><rect x="1071.5" y="103" width="20.3" height="15.0" fill="rgb(0,0,0)" rx="2" ry="2" />
<text  x="1074.53" y="113.5" ></text>
</g>
<g >
<title>MatSOR (35,461,073 us, 6.90%)</title><rect x="604.6" y="247" width="81.4" height="15.0" fill="rgb(0,0,0)" rx="2" ry="2" />
<text  x="607.57" y="257.5" >MatSOR</text>
</g>
<g >
<title>Parloop_Cells_wrap_form10_cell_integral_otherwise (11,013,798 us, 2.14%)</title><rect x="1160.8" y="135" width="25.3" height="15.0" fill="rgb(0,0,0)" rx="2" ry="2" />
<text  x="1163.84" y="145.5" >P..</text>
</g>
<g >
<title>PCSetUp (42,907,412 us, 8.35%)</title><rect x="848.8" y="167" width="98.6" height="15.0" fill="rgb(0,0,0)" rx="2" ry="2" />
<text  x="851.82" y="177.5" >PCSetUp</text>
</g>
<g >
<title>firedrake.tsfc_interface.compile_form (1,274,292 us, 0.25%)</title><rect x="1088.9" y="119" width="2.9" height="15.0" fill="rgb(0,0,0)" rx="2" ry="2" />
<text  x="1091.90" y="129.5" ></text>
</g>
<g >
<title>MatConvert (2,772,005 us, 0.54%)</title><rect x="788.1" y="215" width="6.3" height="15.0" fill="rgb(0,0,0)" rx="2" ry="2" />
<text  x="791.05" y="225.5" ></text>
</g>
<g >
<title>MatZeroInitial (26,110,673 us, 5.08%)</title><rect x="192.9" y="103" width="60.0" height="15.0" fill="rgb(0,0,0)" rx="2" ry="2" />
<text  x="195.90" y="113.5" >MatZe..</text>
</g>
<g >
<title>KSPSolve (89,561,603 us, 17.43%)</title><rect x="501.6" y="151" width="205.7" height="15.0" fill="rgb(0,0,0)" rx="2" ry="2" />
<text  x="504.62" y="161.5" >KSPSolve</text>
</g>
<g >
<title>CreateSparsity (75,998,936 us, 14.79%)</title><rect x="17.6" y="103" width="174.5" height="15.0" fill="rgb(0,0,0)" rx="2" ry="2" />
<text  x="20.58" y="113.5" >CreateSparsity</text>
</g>
<g >
<title>firedrake.assemble.allocate_matrix (102,448,975 us, 19.94%)</title><rect x="17.6" y="87" width="235.3" height="15.0" fill="rgb(0,0,0)" rx="2" ry="2" />
<text  x="20.58" y="97.5" >firedrake.assemble.allocate_..</text>
</g>
<g >
<title>firedrake.tsfc_interface.compile_form (1,682,258 us, 0.33%)</title><rect x="1186.1" y="119" width="3.9" height="15.0" fill="rgb(0,0,0)" rx="2" ry="2" />
<text  x="1189.14" y="129.5" ></text>
</g>
<g >
<title>Parloop_Cells_wrap_form00_cell_integral_otherwise (19,518,864 us, 3.80%)</title><rect x="1093.3" y="135" width="44.8" height="15.0" fill="rgb(0,0,0)" rx="2" ry="2" />
<text  x="1096.26" y="145.5" >Par..</text>
</g>
<g >
<title>PCGAMGGraph_AGG (13,601,278 us, 2.65%)</title><rect x="766.6" y="183" width="31.3" height="15.0" fill="rgb(0,0,0)" rx="2" ry="2" />
<text  x="769.65" y="193.5" >PC..</text>
</g>
<g >
<title>MatSOR (2,418,462 us, 0.47%)</title><rect x="827.1" y="247" width="5.6" height="15.0" fill="rgb(0,0,0)" rx="2" ry="2" />
<text  x="830.10" y="257.5" ></text>
</g>
<g >
<title>Log_Event_form00_cell_integral_otherwise (1,354,397 us, 0.26%)</title><rect x="1104.3" y="151" width="3.1" height="15.0" fill="rgb(0,0,0)" rx="2" ry="2" />
<text  x="1107.29" y="161.5" ></text>
</g>
<g >
<title>KSPSolve_FS_Low (144,142,694 us, 28.05%)</title><rect x="501.6" y="135" width="331.1" height="15.0" fill="rgb(0,0,0)" rx="2" ry="2" />
<text  x="504.62" y="145.5" >KSPSolve_FS_Low</text>
</g>
<g >
<title>MatAssemblyEnd (185,628 us, 0.04%)</title><rect x="1030.5" y="135" width="0.5" height="15.0" fill="rgb(0,0,0)" rx="2" ry="2" />
<text  x="1033.54" y="145.5" ></text>
</g>
<g >
<title>MatMult (16,617,223 us, 3.23%)</title><rect x="253.7" y="119" width="38.2" height="15.0" fill="rgb(0,0,0)" rx="2" ry="2" />
<text  x="256.71" y="129.5" >Ma..</text>
</g>
<g >
<title>KSPSolve (7,038,856 us, 1.37%)</title><rect x="832.7" y="151" width="16.1" height="15.0" fill="rgb(0,0,0)" rx="2" ry="2" />
<text  x="835.65" y="161.5" ></text>
</g>
<g >
<title>MatZeroEntries (621,168 us, 0.12%)</title><rect x="1091.8" y="119" width="1.5" height="15.0" fill="rgb(0,0,0)" rx="2" ry="2" />
<text  x="1094.83" y="129.5" ></text>
</g>
<g >
<title>MatMatMultNum (948,835 us, 0.18%)</title><rect x="798.3" y="231" width="2.1" height="15.0" fill="rgb(0,0,0)" rx="2" ry="2" />
<text  x="801.25" y="241.5" ></text>
</g>
<g >
<title>MatResidual (8,976,948 us, 1.75%)</title><rect x="481.0" y="183" width="20.6" height="15.0" fill="rgb(0,0,0)" rx="2" ry="2" />
<text  x="484.00" y="193.5" ></text>
</g>
<g >
<title>VecAXPBYCZ (61,444 us, 0.01%)</title><rect x="480.5" y="199" width="0.2" height="15.0" fill="rgb(0,0,0)" rx="2" ry="2" />
<text  x="483.53" y="209.5" ></text>
</g>
<g >
<title>MatCoarsen (128,674 us, 0.03%)</title><rect x="707.9" y="215" width="0.3" height="15.0" fill="rgb(0,0,0)" rx="2" ry="2" />
<text  x="710.91" y="225.5" ></text>
</g>
<g >
<title>MatMult (44,898,437 us, 8.74%)</title><rect x="292.0" y="199" width="103.1" height="15.0" fill="rgb(0,0,0)" rx="2" ry="2" />
<text  x="295.02" y="209.5" >MatMult</text>
</g>
<g >
<title>MatAssemblyEnd (798,753 us, 0.16%)</title><rect x="786.2" y="215" width="1.9" height="15.0" fill="rgb(0,0,0)" rx="2" ry="2" />
<text  x="789.22" y="225.5" ></text>
</g>
<g >
<title>MatLUFactorNum (41,601,953 us, 8.10%)</title><rect x="851.8" y="183" width="95.6" height="15.0" fill="rgb(0,0,0)" rx="2" ry="2" />
<text  x="854.82" y="193.5" >MatLUFacto..</text>
</g>
<g >
<title>PCGAMGPOpt_AGG (5,761,235 us, 1.12%)</title><rect x="797.9" y="183" width="13.2" height="15.0" fill="rgb(0,0,0)" rx="2" ry="2" />
<text  x="800.88" y="193.5" ></text>
</g>
<g >
<title>SNESSolve (408,057,148 us, 79.42%)</title><rect x="252.9" y="87" width="937.1" height="15.0" fill="rgb(0,0,0)" rx="2" ry="2" />
<text  x="255.86" y="97.5" >SNESSolve</text>
</g>
<g >
<title>VecMDot (179,396 us, 0.03%)</title><rect x="253.3" y="135" width="0.4" height="15.0" fill="rgb(0,0,0)" rx="2" ry="2" />
<text  x="256.29" y="145.5" ></text>
</g>
<g >
<title>pyop2.global_kernel.GlobalKernel.compile (13,358,181 us, 2.60%)</title><rect x="1107.4" y="151" width="30.7" height="15.0" fill="rgb(0,0,0)" rx="2" ry="2" />
<text  x="1110.40" y="161.5" >p..</text>
</g>
<g >
<title>KSPGMRESOrthog (292,366 us, 0.06%)</title><rect x="253.0" y="119" width="0.7" height="15.0" fill="rgb(0,0,0)" rx="2" ry="2" />
<text  x="256.04" y="129.5" ></text>
</g>
<g >
<title>VecAXPBYCZ (62,900 us, 0.01%)</title><rect x="686.2" y="199" width="0.1" height="15.0" fill="rgb(0,0,0)" rx="2" ry="2" />
<text  x="689.18" y="209.5" ></text>
</g>
<g >
<title>MatMultTranspose (61,837 us, 0.01%)</title><rect x="480.9" y="183" width="0.1" height="15.0" fill="rgb(0,0,0)" rx="2" ry="2" />
<text  x="483.86" y="193.5" ></text>
</g>
<g >
<title>PCApply (37,115,485 us, 7.22%)</title><rect x="395.1" y="231" width="85.3" height="15.0" fill="rgb(0,0,0)" rx="2" ry="2" />
<text  x="398.14" y="241.5" >PCApply</text>
</g>
<g >
<title>VecSet (68,212 us, 0.01%)</title><rect x="480.4" y="231" width="0.1" height="15.0" fill="rgb(0,0,0)" rx="2" ry="2" />
<text  x="483.38" y="241.5" ></text>
</g>
<g >
<title>PCGAMGCoarse_AGG (25,784,991 us, 5.02%)</title><rect x="707.4" y="183" width="59.2" height="15.0" fill="rgb(0,0,0)" rx="2" ry="2" />
<text  x="710.43" y="193.5" >PCGAM..</text>
</g>
<g >
<title>MatAssemblyEnd (339,366 us, 0.07%)</title><rect x="192.1" y="103" width="0.8" height="15.0" fill="rgb(0,0,0)" rx="2" ry="2" />
<text  x="195.12" y="113.5" ></text>
</g>
<g >
<title>KSPSolve (7,038,856 us, 1.37%)</title><rect x="832.7" y="183" width="16.1" height="15.0" fill="rgb(0,0,0)" rx="2" ry="2" />
<text  x="835.65" y="193.5" ></text>
</g>
<g >
<title>ParLoopExecute (870,303 us, 0.17%)</title><rect x="12.1" y="103" width="2.0" height="15.0" fill="rgb(0,0,0)" rx="2" ry="2" />
<text  x="15.11" y="113.5" ></text>
</g>
<g >
<title>KSPSetUp (5,726,395 us, 1.11%)</title><rect x="819.5" y="167" width="13.2" height="15.0" fill="rgb(0,0,0)" rx="2" ry="2" />
<text  x="822.50" y="177.5" ></text>
</g>
<g >
<title>KSPSolve_FS_Schu (49,946,268 us, 9.72%)</title><rect x="832.7" y="135" width="114.7" height="15.0" fill="rgb(0,0,0)" rx="2" ry="2" />
<text  x="835.65" y="145.5" >KSPSolve_FS_..</text>
</g>
<g >
<title>Parloop_Cells_wrap_form01_cell_integral_otherwise (9,910,491 us, 1.93%)</title><rect x="1138.1" y="135" width="22.7" height="15.0" fill="rgb(0,0,0)" rx="2" ry="2" />
<text  x="1141.08" y="145.5" ></text>
</g>
<g >
<title>KSPSolve (2,418,462 us, 0.47%)</title><rect x="827.1" y="215" width="5.6" height="15.0" fill="rgb(0,0,0)" rx="2" ry="2" />
<text  x="830.10" y="225.5" ></text>
</g>
<g >
<title>PCApply (2,418,462 us, 0.47%)</title><rect x="827.1" y="199" width="5.6" height="15.0" fill="rgb(0,0,0)" rx="2" ry="2" />
<text  x="830.10" y="209.5" ></text>
</g>
<g >
<title>MatConvert (857,037 us, 0.17%)</title><rect x="977.2" y="119" width="1.9" height="15.0" fill="rgb(0,0,0)" rx="2" ry="2" />
<text  x="980.16" y="129.5" ></text>
</g>
<g >
<title>CreateExtMesh (870,303 us, 0.17%)</title><rect x="12.1" y="71" width="2.0" height="15.0" fill="rgb(0,0,0)" rx="2" ry="2" />
<text  x="15.11" y="81.5" ></text>
</g>
<g >
<title>MatPtAPNumeric (2,590,168 us, 0.50%)</title><rect x="811.3" y="199" width="5.9" height="15.0" fill="rgb(0,0,0)" rx="2" ry="2" />
<text  x="814.26" y="209.5" ></text>
</g>
<g >
<title>Log_Event_form01_cell_integral_otherwise (441,150 us, 0.09%)</title><rect x="1144.0" y="151" width="1.0" height="15.0" fill="rgb(0,0,0)" rx="2" ry="2" />
<text  x="1146.96" y="161.5" ></text>
</g>
<g >
<title>MatMult (8,976,948 us, 1.75%)</title><rect x="481.0" y="199" width="20.6" height="15.0" fill="rgb(0,0,0)" rx="2" ry="2" />
<text  x="484.00" y="209.5" ></text>
</g>
<g >
<title>PCSetUp (54,581,091 us, 10.62%)</title><rect x="707.3" y="151" width="125.4" height="15.0" fill="rgb(0,0,0)" rx="2" ry="2" />
<text  x="710.30" y="161.5" >PCSetUp</text>
</g>
<g >
<title>PCApply (37,183,697 us, 7.24%)</title><rect x="395.1" y="199" width="85.4" height="15.0" fill="rgb(0,0,0)" rx="2" ry="2" />
<text  x="398.14" y="209.5" >PCApply</text>
</g>
<g >
<title>MatResidual (8,989,832 us, 1.75%)</title><rect x="686.7" y="183" width="20.6" height="15.0" fill="rgb(0,0,0)" rx="2" ry="2" />
<text  x="689.66" y="193.5" ></text>
</g>
<g >
<title>Log_Event_form10_cell_integral_otherwise (703,813 us, 0.14%)</title><rect x="1168.2" y="151" width="1.6" height="15.0" fill="rgb(0,0,0)" rx="2" ry="2" />
<text  x="1171.19" y="161.5" ></text>
</g>
<g >
<title>Parloop_Cells_wrap_pyop2_kernel_uniform_extrusion (870,303 us, 0.17%)</title><rect x="12.1" y="119" width="2.0" height="15.0" fill="rgb(0,0,0)" rx="2" ry="2" />
<text  x="15.11" y="129.5" ></text>
</g>
<g >
<title>firedrake.variational_solver.NonlinearVariationalSolver.__init__ (102,448,975 us, 19.94%)</title><rect x="17.6" y="71" width="235.3" height="15.0" fill="rgb(0,0,0)" rx="2" ry="2" />
<text  x="20.58" y="81.5" >firedrake.variational_solver..</text>
</g>
<g >
<title>pyop2.global_kernel.GlobalKernel.compile (6,910,321 us, 1.34%)</title><rect x="1145.0" y="151" width="15.8" height="15.0" fill="rgb(0,0,0)" rx="2" ry="2" />
<text  x="1147.97" y="161.5" ></text>
</g>
<g >
<title>PCApply (293,995,963 us, 57.22%)</title><rect x="291.9" y="119" width="675.2" height="15.0" fill="rgb(0,0,0)" rx="2" ry="2" />
<text  x="294.87" y="129.5" >PCApply</text>
</g>
<g >
<title>firedrake (513,807,768 us, 100.00%)</title><rect x="10.0" y="55" width="1180.0" height="15.0" fill="rgb(0,0,0)" rx="2" ry="2" />
<text  x="13.00" y="65.5" >firedrake</text>
</g>
<g >
<title>MatMult (3,243,209 us, 0.63%)</title><rect x="819.7" y="199" width="7.4" height="15.0" fill="rgb(0,0,0)" rx="2" ry="2" />
<text  x="822.65" y="209.5" ></text>
</g>
<g >
<title>MatILUFactorSym (1,305,459 us, 0.25%)</title><rect x="848.8" y="183" width="3.0" height="15.0" fill="rgb(0,0,0)" rx="2" ry="2" />
<text  x="851.82" y="193.5" ></text>
</g>
<g >
<title>MatTrnMatMultSym (25,448,407 us, 4.95%)</title><rect x="708.2" y="215" width="58.4" height="15.0" fill="rgb(0,0,0)" rx="2" ry="2" />
<text  x="711.20" y="225.5" >MatTr..</text>
</g>
<g >
<title>KSPSolve_FS_0 (91,263,462 us, 17.76%)</title><rect x="292.0" y="135" width="209.6" height="15.0" fill="rgb(0,0,0)" rx="2" ry="2" />
<text  x="295.02" y="145.5" >KSPSolve_FS_0</text>
</g>
<g >
<title>MatSOR (37,115,485 us, 7.22%)</title><rect x="395.1" y="247" width="85.3" height="15.0" fill="rgb(0,0,0)" rx="2" ry="2" />
<text  x="398.14" y="257.5" >MatSOR</text>
</g>
<g >
<title>MatAssemblyEnd (143,087 us, 0.03%)</title><rect x="766.3" y="231" width="0.3" height="15.0" fill="rgb(0,0,0)" rx="2" ry="2" />
<text  x="769.32" y="241.5" ></text>
</g>
<g >
<title>GAMG: createProl (45,202,693 us, 8.80%)</title><rect x="707.3" y="167" width="103.8" height="15.0" fill="rgb(0,0,0)" rx="2" ry="2" />
<text  x="710.30" y="177.5" >GAMG: creat..</text>
</g>
<g >
<title>KSPSolve (35,532,507 us, 6.92%)</title><rect x="604.6" y="215" width="81.6" height="15.0" fill="rgb(0,0,0)" rx="2" ry="2" />
<text  x="607.57" y="225.5" >KSPSolve</text>
</g>
<g >
<title>PCApply (35,461,073 us, 6.90%)</title><rect x="604.6" y="231" width="81.4" height="15.0" fill="rgb(0,0,0)" rx="2" ry="2" />
<text  x="607.57" y="241.5" >PCApply</text>
</g>
<g >
<title>pyop2.global_kernel.GlobalKernel.compile (870,303 us, 0.17%)</title><rect x="12.1" y="135" width="2.0" height="15.0" fill="rgb(0,0,0)" rx="2" ry="2" />
<text  x="15.11" y="145.5" ></text>
</g>
<g >
<title>  MIS/Agg (128,674 us, 0.03%)</title><rect x="707.9" y="199" width="0.3" height="15.0" fill="rgb(0,0,0)" rx="2" ry="2" />
<text  x="710.91" y="209.5" ></text>
</g>
<g >
<title>MatMult (8,576,051 us, 1.67%)</title><rect x="947.4" y="135" width="19.7" height="15.0" fill="rgb(0,0,0)" rx="2" ry="2" />
<text  x="950.36" y="145.5" ></text>
</g>
<g >
<title>MatSolve (7,038,856 us, 1.37%)</title><rect x="832.7" y="215" width="16.1" height="15.0" fill="rgb(0,0,0)" rx="2" ry="2" />
<text  x="835.65" y="225.5" ></text>
</g>
<g >
<title>VecMAXPY (112,970 us, 0.02%)</title><rect x="253.0" y="135" width="0.3" height="15.0" fill="rgb(0,0,0)" rx="2" ry="2" />
<text  x="256.04" y="145.5" ></text>
</g>
<g >
<title>VecSet (71,434 us, 0.01%)</title><rect x="686.0" y="231" width="0.2" height="15.0" fill="rgb(0,0,0)" rx="2" ry="2" />
<text  x="689.01" y="241.5" ></text>
</g>
<g >
<title>KSPSolve (91,263,462 us, 17.76%)</title><rect x="292.0" y="151" width="209.6" height="15.0" fill="rgb(0,0,0)" rx="2" ry="2" />
<text  x="295.02" y="161.5" >KSPSolve</text>
</g>
<g >
<title>firedrake.variational_solver.NonlinearVariationalSolver.solve (408,057,148 us, 79.42%)</title><rect x="252.9" y="71" width="937.1" height="15.0" fill="rgb(0,0,0)" rx="2" ry="2" />
<text  x="255.86" y="81.5" >firedrake.variational_solver.NonlinearVariationalSolver.solve</text>
</g>
<g >
<title>VecAYPX (82,757 us, 0.02%)</title><rect x="686.3" y="199" width="0.2" height="15.0" fill="rgb(0,0,0)" rx="2" ry="2" />
<text  x="689.32" y="209.5" ></text>
</g>
<g >
<title>VecAYPX (81,099 us, 0.02%)</title><rect x="480.7" y="199" width="0.2" height="15.0" fill="rgb(0,0,0)" rx="2" ry="2" />
<text  x="483.67" y="209.5" ></text>
</g>
<g >
<title>pyop2.global_kernel.GlobalKernel.compile (4,035,737 us, 0.79%)</title><rect x="1071.5" y="151" width="9.3" height="15.0" fill="rgb(0,0,0)" rx="2" ry="2" />
<text  x="1074.53" y="161.5" ></text>
</g>
<g >
<title>MatAssemblyEnd (451,483 us, 0.09%)</title><rect x="991.1" y="135" width="1.0" height="15.0" fill="rgb(0,0,0)" rx="2" ry="2" />
<text  x="994.10" y="145.5" ></text>
</g>
<g >
<title>PCGAMG Gal l00 (3,586,788 us, 0.70%)</title><rect x="811.3" y="183" width="8.2" height="15.0" fill="rgb(0,0,0)" rx="2" ry="2" />
<text  x="814.26" y="193.5" ></text>
</g>
<g >
<title>pyop2.global_kernel.GlobalKernel.compile (7,108,914 us, 1.38%)</title><rect x="1169.8" y="151" width="16.3" height="15.0" fill="rgb(0,0,0)" rx="2" ry="2" />
<text  x="1172.81" y="161.5" ></text>
</g>
<g >
<title>MatScale (1,509,187 us, 0.29%)</title><rect x="794.4" y="215" width="3.5" height="15.0" fill="rgb(0,0,0)" rx="2" ry="2" />
<text  x="797.42" y="225.5" ></text>
</g>
<g >
<title>MatMult (3,610,795 us, 0.70%)</title><rect x="802.4" y="215" width="8.3" height="15.0" fill="rgb(0,0,0)" rx="2" ry="2" />
<text  x="805.39" y="225.5" ></text>
</g>
<g >
<title>PCApply (35,532,507 us, 6.92%)</title><rect x="604.6" y="199" width="81.6" height="15.0" fill="rgb(0,0,0)" rx="2" ry="2" />
<text  x="607.57" y="209.5" >PCApply</text>
</g>
<g >
<title>all (513,807,768 us, 100%)</title><rect x="10.0" y="39" width="1180.0" height="15.0" fill="rgb(0,0,0)" rx="2" ry="2" />
<text  x="13.00" y="49.5" ></text>
</g>
<g >
<title>PCGAMG Squ l00 (25,448,407 us, 4.95%)</title><rect x="708.2" y="199" width="58.4" height="15.0" fill="rgb(0,0,0)" rx="2" ry="2" />
<text  x="711.20" y="209.5" >PCGAM..</text>
</g>
<g >
<title>PCSetUpOnBlocks (42,907,412 us, 8.35%)</title><rect x="848.8" y="151" width="98.6" height="15.0" fill="rgb(0,0,0)" rx="2" ry="2" />
<text  x="851.82" y="161.5" >PCSetUpOnB..</text>
</g>
<g >
<title>PCApply (7,038,856 us, 1.37%)</title><rect x="832.7" y="167" width="16.1" height="15.0" fill="rgb(0,0,0)" rx="2" ry="2" />
<text  x="835.65" y="177.5" ></text>
</g>
<g >
<title>PCApply (2,418,462 us, 0.47%)</title><rect x="827.1" y="231" width="5.6" height="15.0" fill="rgb(0,0,0)" rx="2" ry="2" />
<text  x="830.10" y="241.5" ></text>
</g>
</g>
</svg>
