<?xml version="1.0" standalone="no"?>
<!DOCTYPE svg PUBLIC "-//W3C//DTD SVG 1.1//EN" "http://www.w3.org/Graphics/SVG/1.1/DTD/svg11.dtd">
<svg version="1.1" width="1200" height="347" onload="init(evt)" viewBox="0 0 1200 347" xmlns="http://www.w3.org/2000/svg" xmlns:xlink="http://www.w3.org/1999/xlink">
<!-- Flame graph stack visualization. See https://github.com/brendangregg/FlameGraph for latest version, and http://www.brendangregg.com/flamegraphs.html for examples. -->
<!-- NOTES:  -->
<defs>
	<linearGradient id="background" y1="0" y2="1" x1="0" x2="0" >
		<stop stop-color="#eeeeee" offset="5%" />
		<stop stop-color="#eeeeb0" offset="95%" />
	</linearGradient>
</defs>
<style type="text/css">
	text { font-family:Verdana; font-size:13px; fill:rgb(0,0,0); }
	#search, #ignorecase { opacity:0.1; cursor:pointer; }
	#search:hover, #search.show, #ignorecase:hover, #ignorecase.show { opacity:1; }
	#subtitle { text-anchor:middle; font-color:rgb(160,160,160); }
	#title { text-anchor:middle; font-size:18px}
	#unzoom { cursor:pointer; }
	#frames > *:hover { stroke:black; stroke-width:0.5; cursor:pointer; }
	.hide { display:none; }
	.parent { opacity:0.5; }
</style>
<script type="text/ecmascript">
<![CDATA[
	"use strict";
	var details, searchbtn, unzoombtn, matchedtxt, svg, searching, currentSearchTerm, ignorecase, ignorecaseBtn;
	function init(evt) {
		details = document.getElementById("details").firstChild;
		searchbtn = document.getElementById("search");
		ignorecaseBtn = document.getElementById("ignorecase");
		unzoombtn = document.getElementById("unzoom");
		matchedtxt = document.getElementById("matched");
		svg = document.getElementsByTagName("svg")[0];
		searching = 0;
		currentSearchTerm = null;

		// use GET parameters to restore a flamegraphs state.
		var params = get_params();
		if (params.x && params.y)
			zoom(find_group(document.querySelector('[x="' + params.x + '"][y="' + params.y + '"]')));
                if (params.s) search(params.s);
	}

	// event listeners
	window.addEventListener("click", function(e) {
		var target = find_group(e.target);
		if (target) {
			if (target.nodeName == "a") {
				if (e.ctrlKey === false) return;
				e.preventDefault();
			}
			if (target.classList.contains("parent")) unzoom();
			zoom(target);
			if (!document.querySelector('.parent')) {
				clearzoom();
				return;
			}

			// set parameters for zoom state
			var el = target.querySelector("rect");
			if (el && el.attributes && el.attributes.y && el.attributes._orig_x) {
				var params = get_params()
				params.x = el.attributes._orig_x.value;
				params.y = el.attributes.y.value;
				history.replaceState(null, null, parse_params(params));
			}
		}
		else if (e.target.id == "unzoom") clearzoom();
		else if (e.target.id == "search") search_prompt();
		else if (e.target.id == "ignorecase") toggle_ignorecase();
	}, false)

	// mouse-over for info
	// show
	window.addEventListener("mouseover", function(e) {
		var target = find_group(e.target);
		if (target) details.nodeValue = "Function: " + g_to_text(target);
	}, false)

	// clear
	window.addEventListener("mouseout", function(e) {
		var target = find_group(e.target);
		if (target) details.nodeValue = ' ';
	}, false)

	// ctrl-F for search
	// ctrl-I to toggle case-sensitive search
	window.addEventListener("keydown",function (e) {
		if (e.keyCode === 114 || (e.ctrlKey && e.keyCode === 70)) {
			e.preventDefault();
			search_prompt();
		}
		else if (e.ctrlKey && e.keyCode === 73) {
			e.preventDefault();
			toggle_ignorecase();
		}
	}, false)

	// functions
	function get_params() {
		var params = {};
		var paramsarr = window.location.search.substr(1).split('&');
		for (var i = 0; i < paramsarr.length; ++i) {
			var tmp = paramsarr[i].split("=");
			if (!tmp[0] || !tmp[1]) continue;
			params[tmp[0]]  = decodeURIComponent(tmp[1]);
		}
		return params;
	}
	function parse_params(params) {
		var uri = "?";
		for (var key in params) {
			uri += key + '=' + encodeURIComponent(params[key]) + '&';
		}
		if (uri.slice(-1) == "&")
			uri = uri.substring(0, uri.length - 1);
		if (uri == '?')
			uri = window.location.href.split('?')[0];
		return uri;
	}
	function find_child(node, selector) {
		var children = node.querySelectorAll(selector);
		if (children.length) return children[0];
	}
	function find_group(node) {
		var parent = node.parentElement;
		if (!parent) return;
		if (parent.id == "frames") return node;
		return find_group(parent);
	}
	function orig_save(e, attr, val) {
		if (e.attributes["_orig_" + attr] != undefined) return;
		if (e.attributes[attr] == undefined) return;
		if (val == undefined) val = e.attributes[attr].value;
		e.setAttribute("_orig_" + attr, val);
	}
	function orig_load(e, attr) {
		if (e.attributes["_orig_"+attr] == undefined) return;
		e.attributes[attr].value = e.attributes["_orig_" + attr].value;
		e.removeAttribute("_orig_"+attr);
	}
	function g_to_text(e) {
		var text = find_child(e, "title").firstChild.nodeValue;
		return (text)
	}
	function g_to_func(e) {
		var func = g_to_text(e);
		// if there's any manipulation we want to do to the function
		// name before it's searched, do it here before returning.
		return (func);
	}
	function update_text(e) {
		var r = find_child(e, "rect");
		var t = find_child(e, "text");
		var w = parseFloat(r.attributes.width.value) -3;
		var txt = find_child(e, "title").textContent.replace(/\([^(]*\)$/,"");
		t.attributes.x.value = parseFloat(r.attributes.x.value) + 3;

		// Smaller than this size won't fit anything
		if (w < 2 * 13 * 0.59) {
			t.textContent = "";
			return;
		}

		t.textContent = txt;
		// Fit in full text width
		if (/^ *$/.test(txt) || t.getSubStringLength(0, txt.length) < w)
			return;

		for (var x = txt.length - 2; x > 0; x--) {
			if (t.getSubStringLength(0, x + 2) <= w) {
				t.textContent = txt.substring(0, x) + "..";
				return;
			}
		}
		t.textContent = "";
	}

	// zoom
	function zoom_reset(e) {
		if (e.attributes != undefined) {
			orig_load(e, "x");
			orig_load(e, "width");
		}
		if (e.childNodes == undefined) return;
		for (var i = 0, c = e.childNodes; i < c.length; i++) {
			zoom_reset(c[i]);
		}
	}
	function zoom_child(e, x, ratio) {
		if (e.attributes != undefined) {
			if (e.attributes.x != undefined) {
				orig_save(e, "x");
				e.attributes.x.value = (parseFloat(e.attributes.x.value) - x - 10) * ratio + 10;
				if (e.tagName == "text")
					e.attributes.x.value = find_child(e.parentNode, "rect[x]").attributes.x.value + 3;
			}
			if (e.attributes.width != undefined) {
				orig_save(e, "width");
				e.attributes.width.value = parseFloat(e.attributes.width.value) * ratio;
			}
		}

		if (e.childNodes == undefined) return;
		for (var i = 0, c = e.childNodes; i < c.length; i++) {
			zoom_child(c[i], x - 10, ratio);
		}
	}
	function zoom_parent(e) {
		if (e.attributes) {
			if (e.attributes.x != undefined) {
				orig_save(e, "x");
				e.attributes.x.value = 10;
			}
			if (e.attributes.width != undefined) {
				orig_save(e, "width");
				e.attributes.width.value = parseInt(svg.width.baseVal.value) - (10 * 2);
			}
		}
		if (e.childNodes == undefined) return;
		for (var i = 0, c = e.childNodes; i < c.length; i++) {
			zoom_parent(c[i]);
		}
	}
	function zoom(node) {
		var attr = find_child(node, "rect").attributes;
		var width = parseFloat(attr.width.value);
		var xmin = parseFloat(attr.x.value);
		var xmax = parseFloat(xmin + width);
		var ymin = parseFloat(attr.y.value);
		var ratio = (svg.width.baseVal.value - 2 * 10) / width;

		// XXX: Workaround for JavaScript float issues (fix me)
		var fudge = 0.0001;

		unzoombtn.classList.remove("hide");

		var el = document.getElementById("frames").children;
		for (var i = 0; i < el.length; i++) {
			var e = el[i];
			var a = find_child(e, "rect").attributes;
			var ex = parseFloat(a.x.value);
			var ew = parseFloat(a.width.value);
			var upstack;
			// Is it an ancestor
			if (1 == 0) {
				upstack = parseFloat(a.y.value) > ymin;
			} else {
				upstack = parseFloat(a.y.value) < ymin;
			}
			if (upstack) {
				// Direct ancestor
				if (ex <= xmin && (ex+ew+fudge) >= xmax) {
					e.classList.add("parent");
					zoom_parent(e);
					update_text(e);
				}
				// not in current path
				else
					e.classList.add("hide");
			}
			// Children maybe
			else {
				// no common path
				if (ex < xmin || ex + fudge >= xmax) {
					e.classList.add("hide");
				}
				else {
					zoom_child(e, xmin, ratio);
					update_text(e);
				}
			}
		}
		search();
	}
	function unzoom() {
		unzoombtn.classList.add("hide");
		var el = document.getElementById("frames").children;
		for(var i = 0; i < el.length; i++) {
			el[i].classList.remove("parent");
			el[i].classList.remove("hide");
			zoom_reset(el[i]);
			update_text(el[i]);
		}
		search();
	}
	function clearzoom() {
		unzoom();

		// remove zoom state
		var params = get_params();
		if (params.x) delete params.x;
		if (params.y) delete params.y;
		history.replaceState(null, null, parse_params(params));
	}

	// search
	function toggle_ignorecase() {
		ignorecase = !ignorecase;
		if (ignorecase) {
			ignorecaseBtn.classList.add("show");
		} else {
			ignorecaseBtn.classList.remove("show");
		}
		reset_search();
		search();
	}
	function reset_search() {
		var el = document.querySelectorAll("#frames rect");
		for (var i = 0; i < el.length; i++) {
			orig_load(el[i], "fill")
		}
		var params = get_params();
		delete params.s;
		history.replaceState(null, null, parse_params(params));
	}
	function search_prompt() {
		if (!searching) {
			var term = prompt("Enter a search term (regexp " +
			    "allowed, eg: ^ext4_)"
			    + (ignorecase ? ", ignoring case" : "")
			    + "\nPress Ctrl-i to toggle case sensitivity", "");
			if (term != null) search(term);
		} else {
			reset_search();
			searching = 0;
			currentSearchTerm = null;
			searchbtn.classList.remove("show");
			searchbtn.firstChild.nodeValue = "Search"
			matchedtxt.classList.add("hide");
			matchedtxt.firstChild.nodeValue = ""
		}
	}
	function search(term) {
		if (term) currentSearchTerm = term;

		var re = new RegExp(currentSearchTerm, ignorecase ? 'i' : '');
		var el = document.getElementById("frames").children;
		var matches = new Object();
		var maxwidth = 0;
		for (var i = 0; i < el.length; i++) {
			var e = el[i];
			var func = g_to_func(e);
			var rect = find_child(e, "rect");
			if (func == null || rect == null)
				continue;

			// Save max width. Only works as we have a root frame
			var w = parseFloat(rect.attributes.width.value);
			if (w > maxwidth)
				maxwidth = w;

			if (func.match(re)) {
				// highlight
				var x = parseFloat(rect.attributes.x.value);
				orig_save(rect, "fill");
				rect.attributes.fill.value = "rgb(230,0,230)";

				// remember matches
				if (matches[x] == undefined) {
					matches[x] = w;
				} else {
					if (w > matches[x]) {
						// overwrite with parent
						matches[x] = w;
					}
				}
				searching = 1;
			}
		}
		if (!searching)
			return;
		var params = get_params();
		params.s = currentSearchTerm;
		history.replaceState(null, null, parse_params(params));

		searchbtn.classList.add("show");
		searchbtn.firstChild.nodeValue = "Reset Search";

		// calculate percent matched, excluding vertical overlap
		var count = 0;
		var lastx = -1;
		var lastw = 0;
		var keys = Array();
		for (k in matches) {
			if (matches.hasOwnProperty(k))
				keys.push(k);
		}
		// sort the matched frames by their x location
		// ascending, then width descending
		keys.sort(function(a, b){
			return a - b;
		});
		// Step through frames saving only the biggest bottom-up frames
		// thanks to the sort order. This relies on the tree property
		// where children are always smaller than their parents.
		var fudge = 0.0001;	// JavaScript floating point
		for (var k in keys) {
			var x = parseFloat(keys[k]);
			var w = matches[keys[k]];
			if (x >= lastx + lastw - fudge) {
				count += w;
				lastx = x;
				lastw = w;
			}
		}
		// display matched percent
		matchedtxt.classList.remove("hide");
		var pct = 100 * count / maxwidth;
		if (pct != 100) pct = pct.toFixed(1)
		matchedtxt.firstChild.nodeValue = "Matched: " + pct + "%";
	}
]]>
</script>
<rect x="0.0" y="0" width="1200.0" height="347.0" fill="url(#background)"  />
<text id="title" x="600.00" y="26" >Firedrake example</text>
<text id="details" x="10.00" y="329" > </text>
<text id="unzoom" x="10.00" y="26" class="hide">Reset Zoom</text>
<text id="search" x="1090.00" y="26" >Search</text>
<text id="ignorecase" x="1174.00" y="26" >ic</text>
<text id="matched" x="1090.00" y="329" > </text>
<g id="frames">
<g >
<title>Log_Event_subkernel163_interior_facet_horiz_bottom_to__exterior_facet_bottom_integral_otherwise (173,884 us, 0.06%)</title><rect x="562.8" y="247" width="0.7" height="15.0" fill="rgb(0,0,0)" rx="2" ry="2" />
<text  x="565.75" y="257.5" ></text>
</g>
<g >
<title>Log_Event_subkernel78_interior_facet_horiz_top_to__exterior_facet_top_integral_otherwise (208,377 us, 0.07%)</title><rect x="1136.8" y="263" width="0.8" height="15.0" fill="rgb(0,0,0)" rx="2" ry="2" />
<text  x="1139.79" y="273.5" ></text>
</g>
<g >
<title>Log_Event_subkernel144_cell_to__cell_integral_otherwise (27,644,351 us, 9.71%)</title><rect x="321.5" y="279" width="114.6" height="15.0" fill="rgb(0,0,0)" rx="2" ry="2" />
<text  x="324.51" y="289.5" >Log_Event_su..</text>
</g>
<g >
<title>Log_Event_subkernel82_cell_to__cell_integral_otherwise (271,723 us, 0.10%)</title><rect x="1153.1" y="263" width="1.2" height="15.0" fill="rgb(0,0,0)" rx="2" ry="2" />
<text  x="1156.15" y="273.5" ></text>
</g>
<g >
<title>HybridRHS (8,652,115 us, 3.04%)</title><rect x="32.2" y="151" width="35.9" height="15.0" fill="rgb(0,0,0)" rx="2" ry="2" />
<text  x="35.22" y="161.5" >Hy..</text>
</g>
<g >
<title>PCSetUp (395,319 us, 0.14%)</title><rect x="1187.7" y="151" width="1.7" height="15.0" fill="rgb(0,0,0)" rx="2" ry="2" />
<text  x="1190.75" y="161.5" ></text>
</g>
<g >
<title>Log_Event_mtf_solve_133 (1,924,806 us, 0.68%)</title><rect x="128.9" y="279" width="8.0" height="15.0" fill="rgb(0,0,0)" rx="2" ry="2" />
<text  x="131.91" y="289.5" ></text>
</g>
<g >
<title>Log_Event_subkernel151_cell_to__cell_integral_otherwise (11,614,654 us, 4.08%)</title><rect x="436.1" y="279" width="48.1" height="15.0" fill="rgb(0,0,0)" rx="2" ry="2" />
<text  x="439.07" y="289.5" >Log_..</text>
</g>
<g >
<title>ParLoopExecute (121,152,237 us, 42.55%)</title><rect x="68.1" y="199" width="502.1" height="15.0" fill="rgb(0,0,0)" rx="2" ry="2" />
<text  x="71.08" y="209.5" >ParLoopExecute</text>
</g>
<g >
<title>firedrake.interpolation.make_interpolator (252,204 us, 0.09%)</title><rect x="1188.3" y="167" width="1.1" height="15.0" fill="rgb(0,0,0)" rx="2" ry="2" />
<text  x="1191.34" y="177.5" ></text>
</g>
<g >
<title>Log_Event_subkernel85_interior_facet_vert_to__exterior_facet_vert_integral_otherwise (1,469,653 us, 0.52%)</title><rect x="1157.1" y="263" width="6.1" height="15.0" fill="rgb(0,0,0)" rx="2" ry="2" />
<text  x="1160.10" y="273.5" ></text>
</g>
<g >
<title>Log_Event_subkernel93_cell_to__cell_integral_otherwise (472,516 us, 0.17%)</title><rect x="510.4" y="295" width="2.0" height="15.0" fill="rgb(0,0,0)" rx="2" ry="2" />
<text  x="513.41" y="305.5" ></text>
</g>
<g >
<title>firedrake.__init__ (2,832,478 us, 0.99%)</title><rect x="19.7" y="71" width="11.7" height="15.0" fill="rgb(0,0,0)" rx="2" ry="2" />
<text  x="22.65" y="81.5" ></text>
</g>
<g >
<title>MatZeroInitial (1,196,545 us, 0.42%)</title><rect x="1182.8" y="247" width="4.9" height="15.0" fill="rgb(0,0,0)" rx="2" ry="2" />
<text  x="1185.79" y="257.5" ></text>
</g>
<g >
<title>Log_Event_subkernel162_interior_facet_vert_to__exterior_facet_vert_integral_otherwise (1,434,112 us, 0.50%)</title><rect x="556.8" y="247" width="6.0" height="15.0" fill="rgb(0,0,0)" rx="2" ry="2" />
<text  x="559.81" y="257.5" ></text>
</g>
<g >
<title>Log_Event_subkernel146_cell_to__cell_integral_otherwise (10,396,601 us, 3.65%)</title><rect x="156.7" y="295" width="43.1" height="15.0" fill="rgb(0,0,0)" rx="2" ry="2" />
<text  x="159.72" y="305.5" >Log..</text>
</g>
<g >
<title>Log_Event_subkernel137_cell_to__cell_integral_otherwise (891,112 us, 0.31%)</title><rect x="133.2" y="295" width="3.7" height="15.0" fill="rgb(0,0,0)" rx="2" ry="2" />
<text  x="136.19" y="305.5" ></text>
</g>
<g >
<title>Log_Event_tensorshell_knl_131 (3,727,373 us, 1.31%)</title><rect x="128.9" y="263" width="15.5" height="15.0" fill="rgb(0,0,0)" rx="2" ry="2" />
<text  x="131.91" y="273.5" ></text>
</g>
<g >
<title>ParLoopExecute (7,325,853 us, 2.57%)</title><rect x="37.7" y="167" width="30.4" height="15.0" fill="rgb(0,0,0)" rx="2" ry="2" />
<text  x="40.72" y="177.5" >P..</text>
</g>
<g >
<title>SNESSolve (279,564,950 us, 98.19%)</title><rect x="31.4" y="87" width="1158.6" height="15.0" fill="rgb(0,0,0)" rx="2" ry="2" />
<text  x="34.39" y="97.5" >SNESSolve</text>
</g>
<g >
<title>Log_Event_subkernel162_interior_facet_horiz_top_to__exterior_facet_top_integral_otherwise (173,223 us, 0.06%)</title><rect x="556.1" y="247" width="0.7" height="15.0" fill="rgb(0,0,0)" rx="2" ry="2" />
<text  x="559.09" y="257.5" ></text>
</g>
<g >
<title>Parloop_Cells_wrap_wrap_slate_loopy_knl_77 (140,787,267 us, 49.45%)</title><rect x="579.7" y="247" width="583.5" height="15.0" fill="rgb(0,0,0)" rx="2" ry="2" />
<text  x="582.72" y="257.5" >Parloop_Cells_wrap_wrap_slate_loopy_knl_77</text>
</g>
<g >
<title>Log_Event_mtf_solve_145 (42,097,906 us, 14.79%)</title><rect x="147.0" y="279" width="174.5" height="15.0" fill="rgb(0,0,0)" rx="2" ry="2" />
<text  x="150.04" y="289.5" >Log_Event_mtf_solve_..</text>
</g>
<g >
<title>KSPSolve (1,722,264 us, 0.60%)</title><rect x="570.2" y="215" width="7.1" height="15.0" fill="rgb(0,0,0)" rx="2" ry="2" />
<text  x="573.17" y="225.5" ></text>
</g>
<g >
<title>inv_getri (9,316,984 us, 3.27%)</title><rect x="1097.3" y="279" width="38.7" height="15.0" fill="rgb(0,0,0)" rx="2" ry="2" />
<text  x="1100.35" y="289.5" >inv..</text>
</g>
<g >
<title>SCForwardElim (8,652,115 us, 3.04%)</title><rect x="32.2" y="135" width="35.9" height="15.0" fill="rgb(0,0,0)" rx="2" ry="2" />
<text  x="35.22" y="145.5" >SC..</text>
</g>
<g >
<title>Log_Event_mtf_solve_92 (1,271,413 us, 0.45%)</title><rect x="510.4" y="279" width="5.3" height="15.0" fill="rgb(0,0,0)" rx="2" ry="2" />
<text  x="513.41" y="289.5" ></text>
</g>
<g >
<title>firedrake.extrusion_utils.make_extruded_coords (387,270 us, 0.14%)</title><rect x="18.0" y="87" width="1.7" height="15.0" fill="rgb(0,0,0)" rx="2" ry="2" />
<text  x="21.05" y="97.5" ></text>
</g>
<g >
<title>Log_Event_subkernel95_cell_to__cell_integral_otherwise (343,461 us, 0.12%)</title><rect x="512.4" y="295" width="1.4" height="15.0" fill="rgb(0,0,0)" rx="2" ry="2" />
<text  x="515.37" y="305.5" ></text>
</g>
<g >
<title>Log_Event_subkernel101_cell_to__cell_integral_otherwise (515,882 us, 0.18%)</title><rect x="493.8" y="263" width="2.1" height="15.0" fill="rgb(0,0,0)" rx="2" ry="2" />
<text  x="496.79" y="273.5" ></text>
</g>
<g >
<title>KSPSetUp (149,017,475 us, 52.34%)</title><rect x="570.2" y="199" width="617.5" height="15.0" fill="rgb(0,0,0)" rx="2" ry="2" />
<text  x="573.17" y="209.5" >KSPSetUp</text>
</g>
<g >
<title>Log_Event_tensorshell_knl_54 (212,796 us, 0.07%)</title><rect x="67.2" y="231" width="0.9" height="15.0" fill="rgb(0,0,0)" rx="2" ry="2" />
<text  x="70.19" y="241.5" ></text>
</g>
<g >
<title>Log_Event_subkernel19_cell_to__cell_integral_otherwise (463,560 us, 0.16%)</title><rect x="47.6" y="263" width="1.9" height="15.0" fill="rgb(0,0,0)" rx="2" ry="2" />
<text  x="50.60" y="273.5" ></text>
</g>
<g >
<title>CreateSparsity (4,729,830 us, 1.66%)</title><rect x="1163.2" y="247" width="19.6" height="15.0" fill="rgb(0,0,0)" rx="2" ry="2" />
<text  x="1166.19" y="257.5" ></text>
</g>
<g >
<title>MatMult (1,578,827 us, 0.55%)</title><rect x="570.8" y="231" width="6.5" height="15.0" fill="rgb(0,0,0)" rx="2" ry="2" />
<text  x="573.77" y="241.5" ></text>
</g>
<g >
<title>Log_Event_subkernel149_cell_to__cell_integral_otherwise (19,750,124 us, 6.94%)</title><rect x="229.8" y="295" width="81.9" height="15.0" fill="rgb(0,0,0)" rx="2" ry="2" />
<text  x="232.84" y="305.5" >Log_Even..</text>
</g>
<g >
<title>Log_Event_subkernel155_cell_to__cell_integral_otherwise (1,254,450 us, 0.44%)</title><rect x="550.2" y="247" width="5.2" height="15.0" fill="rgb(0,0,0)" rx="2" ry="2" />
<text  x="553.15" y="257.5" ></text>
</g>
<g >
<title>Log_Event_subkernel15_cell_to__cell_integral_otherwise (1,775,081 us, 0.62%)</title><rect x="54.8" y="247" width="7.3" height="15.0" fill="rgb(0,0,0)" rx="2" ry="2" />
<text  x="57.78" y="257.5" ></text>
</g>
<g >
<title>Log_Event_mtf_solve_104 (1,264,321 us, 0.44%)</title><rect x="497.7" y="279" width="5.3" height="15.0" fill="rgb(0,0,0)" rx="2" ry="2" />
<text  x="500.72" y="289.5" ></text>
</g>
<g >
<title>Log_Event_subkernel121_interior_facet_horiz_top_to__exterior_facet_top_integral_otherwise (172,684 us, 0.06%)</title><rect x="529.1" y="247" width="0.7" height="15.0" fill="rgb(0,0,0)" rx="2" ry="2" />
<text  x="532.07" y="257.5" ></text>
</g>
<g >
<title>Log_Event_subkernel96_cell_to__cell_integral_otherwise (455,436 us, 0.16%)</title><rect x="513.8" y="295" width="1.9" height="15.0" fill="rgb(0,0,0)" rx="2" ry="2" />
<text  x="516.79" y="305.5" ></text>
</g>
<g >
<title>CreateSparsity (252,204 us, 0.09%)</title><rect x="1188.3" y="183" width="1.1" height="15.0" fill="rgb(0,0,0)" rx="2" ry="2" />
<text  x="1191.34" y="193.5" ></text>
</g>
<g >
<title>HybridInit (148,302 us, 0.05%)</title><rect x="1189.4" y="119" width="0.6" height="15.0" fill="rgb(0,0,0)" rx="2" ry="2" />
<text  x="1192.39" y="129.5" ></text>
</g>
<g >
<title>PCSetUp (147,295,211 us, 51.73%)</title><rect x="577.3" y="215" width="610.4" height="15.0" fill="rgb(0,0,0)" rx="2" ry="2" />
<text  x="580.31" y="225.5" >PCSetUp</text>
</g>
<g >
<title>firedrake (284,726,939 us, 100.00%)</title><rect x="10.0" y="55" width="1180.0" height="15.0" fill="rgb(0,0,0)" rx="2" ry="2" />
<text  x="13.00" y="65.5" >firedrake</text>
</g>
<g >
<title>Log_Event_subkernel122_interior_facet_vert_to__exterior_facet_vert_integral_otherwise (2,539,580 us, 0.89%)</title><rect x="537.4" y="247" width="10.5" height="15.0" fill="rgb(0,0,0)" rx="2" ry="2" />
<text  x="540.35" y="257.5" ></text>
</g>
<g >
<title>Log_Event_subkernel157_cell_to__cell_integral_otherwise (472,284 us, 0.17%)</title><rect x="485.1" y="263" width="2.0" height="15.0" fill="rgb(0,0,0)" rx="2" ry="2" />
<text  x="488.14" y="273.5" ></text>
</g>
<g >
<title>Log_Event_tensorshell_knl_102 (3,062,596 us, 1.08%)</title><rect x="497.7" y="263" width="12.7" height="15.0" fill="rgb(0,0,0)" rx="2" ry="2" />
<text  x="500.72" y="273.5" ></text>
</g>
<g >
<title>Log_Event_subkernel139_cell_to__cell_integral_otherwise (547,184 us, 0.19%)</title><rect x="142.1" y="279" width="2.3" height="15.0" fill="rgb(0,0,0)" rx="2" ry="2" />
<text  x="145.09" y="289.5" ></text>
</g>
<g >
<title>Log_Event_subkernel129_cell_to__cell_integral_otherwise (549,674 us, 0.19%)</title><rect x="547.9" y="247" width="2.3" height="15.0" fill="rgb(0,0,0)" rx="2" ry="2" />
<text  x="550.88" y="257.5" ></text>
</g>
<g >
<title>firedrake.variational_solver.NonlinearVariationalSolver.solve (279,564,950 us, 98.19%)</title><rect x="31.4" y="71" width="1158.6" height="15.0" fill="rgb(0,0,0)" rx="2" ry="2" />
<text  x="34.39" y="81.5" >firedrake.variational_solver.NonlinearVariationalSolver.solve</text>
</g>
<g >
<title>Log_Event_slate_loopy_knl_87 (119,568,595 us, 41.99%)</title><rect x="74.6" y="231" width="495.6" height="15.0" fill="rgb(0,0,0)" rx="2" ry="2" />
<text  x="77.64" y="241.5" >Log_Event_slate_loopy_knl_87</text>
</g>
<g >
<title>CreateExtMesh (387,270 us, 0.14%)</title><rect x="18.0" y="71" width="1.7" height="15.0" fill="rgb(0,0,0)" rx="2" ry="2" />
<text  x="21.05" y="81.5" ></text>
</g>
<g >
<title>Log_Event_subkernel160_cell_to__cell_integral_otherwise (923,904 us, 0.32%)</title><rect x="488.5" y="263" width="3.8" height="15.0" fill="rgb(0,0,0)" rx="2" ry="2" />
<text  x="491.50" y="273.5" ></text>
</g>
<g >
<title>ParLoopExecute (143,115 us, 0.05%)</title><rect x="1187.7" y="167" width="0.6" height="15.0" fill="rgb(0,0,0)" rx="2" ry="2" />
<text  x="1190.75" y="177.5" ></text>
</g>
<g >
<title>ParLoopExecute (140,787,267 us, 49.45%)</title><rect x="579.7" y="231" width="583.5" height="15.0" fill="rgb(0,0,0)" rx="2" ry="2" />
<text  x="582.72" y="241.5" >ParLoopExecute</text>
</g>
<g >
<title>Log_Event_slate_loopy_knl_0 (7,162,856 us, 2.52%)</title><rect x="38.4" y="199" width="29.7" height="15.0" fill="rgb(0,0,0)" rx="2" ry="2" />
<text  x="41.39" y="209.5" >L..</text>
</g>
<g >
<title>Log_Event_tensorshell_knl_14 (5,212,975 us, 1.83%)</title><rect x="43.6" y="231" width="21.6" height="15.0" fill="rgb(0,0,0)" rx="2" ry="2" />
<text  x="46.63" y="241.5" ></text>
</g>
<g >
<title>Log_Event_subkernel101_interior_facet_vert_to__exterior_facet_vert_integral_otherwise (433,163 us, 0.15%)</title><rect x="495.9" y="263" width="1.8" height="15.0" fill="rgb(0,0,0)" rx="2" ry="2" />
<text  x="498.92" y="273.5" ></text>
</g>
<g >
<title>MatMult (121,152,237 us, 42.55%)</title><rect x="68.1" y="167" width="502.1" height="15.0" fill="rgb(0,0,0)" rx="2" ry="2" />
<text  x="71.08" y="177.5" >MatMult</text>
</g>
<g >
<title>firedrake.matrix_free.operators.ImplicitMatrixContext.mult (121,152,237 us, 42.55%)</title><rect x="68.1" y="183" width="502.1" height="15.0" fill="rgb(0,0,0)" rx="2" ry="2" />
<text  x="71.08" y="193.5" >firedrake.matrix_free.operators.ImplicitMatrixContext.mult</text>
</g>
<g >
<title>Log_Event_subkernel78_interior_facet_horiz_bottom_to__exterior_facet_bottom_integral_otherwise (199,880 us, 0.07%)</title><rect x="1136.0" y="263" width="0.8" height="15.0" fill="rgb(0,0,0)" rx="2" ry="2" />
<text  x="1138.96" y="273.5" ></text>
</g>
<g >
<title>PCApply (279,217,146 us, 98.06%)</title><rect x="32.2" y="119" width="1157.2" height="15.0" fill="rgb(0,0,0)" rx="2" ry="2" />
<text  x="35.22" y="129.5" >PCApply</text>
</g>
<g >
<title>Log_Event_subkernel91_cell_to__cell_integral_otherwise (1,256,929 us, 0.44%)</title><rect x="515.7" y="279" width="5.2" height="15.0" fill="rgb(0,0,0)" rx="2" ry="2" />
<text  x="518.68" y="289.5" ></text>
</g>
<g >
<title>Log_Event_subkernel79_cell_to__cell_integral_otherwise (1,321,505 us, 0.46%)</title><rect x="1144.5" y="263" width="5.5" height="15.0" fill="rgb(0,0,0)" rx="2" ry="2" />
<text  x="1147.49" y="273.5" ></text>
</g>
<g >
<title>firedrake.matrix_free.operators.ImplicitMatrixContext.mult (199,502 us, 0.07%)</title><rect x="31.4" y="135" width="0.8" height="15.0" fill="rgb(0,0,0)" rx="2" ry="2" />
<text  x="34.39" y="145.5" ></text>
</g>
<g >
<title>Log_Event_slate_loopy_knl_77 (132,497,176 us, 46.53%)</title><rect x="586.8" y="263" width="549.2" height="15.0" fill="rgb(0,0,0)" rx="2" ry="2" />
<text  x="589.85" y="273.5" >Log_Event_slate_loopy_knl_77</text>
</g>
<g >
<title>Log_Event_subkernel84_cell_to__cell_integral_otherwise (358,711 us, 0.13%)</title><rect x="1155.0" y="263" width="1.5" height="15.0" fill="rgb(0,0,0)" rx="2" ry="2" />
<text  x="1158.05" y="273.5" ></text>
</g>
<g >
<title>PCApply (149,017,475 us, 52.34%)</title><rect x="570.2" y="167" width="617.5" height="15.0" fill="rgb(0,0,0)" rx="2" ry="2" />
<text  x="573.17" y="177.5" >PCApply</text>
</g>
<g >
<title>Log_Event_subkernel80_cell_to__cell_integral_otherwise (767,117 us, 0.27%)</title><rect x="1150.0" y="263" width="3.1" height="15.0" fill="rgb(0,0,0)" rx="2" ry="2" />
<text  x="1152.97" y="273.5" ></text>
</g>
<g >
<title>Log_Event_tensorshell_knl_143 (82,004,893 us, 28.80%)</title><rect x="144.4" y="263" width="339.8" height="15.0" fill="rgb(0,0,0)" rx="2" ry="2" />
<text  x="147.35" y="273.5" >Log_Event_tensorshell_knl_143</text>
</g>
<g >
<title>MatMult (199,502 us, 0.07%)</title><rect x="31.4" y="119" width="0.8" height="15.0" fill="rgb(0,0,0)" rx="2" ry="2" />
<text  x="34.39" y="129.5" ></text>
</g>
<g >
<title>Log_Event_subkernel142_interior_facet_vert_to__exterior_facet_vert_integral_otherwise (433,999 us, 0.15%)</title><rect x="127.1" y="263" width="1.8" height="15.0" fill="rgb(0,0,0)" rx="2" ry="2" />
<text  x="130.11" y="273.5" ></text>
</g>
<g >
<title>Log_Event_subkernel119_cell_to__cell_integral_otherwise (471,345 us, 0.17%)</title><rect x="111.1" y="263" width="2.0" height="15.0" fill="rgb(0,0,0)" rx="2" ry="2" />
<text  x="114.12" y="273.5" ></text>
</g>
<g >
<title>Log_Event_subkernel122_interior_facet_horiz_top_to__exterior_facet_top_integral_otherwise (196,146 us, 0.07%)</title><rect x="536.5" y="247" width="0.9" height="15.0" fill="rgb(0,0,0)" rx="2" ry="2" />
<text  x="539.54" y="257.5" ></text>
</g>
<g >
<title>Log_Event_subkernel85_interior_facet_horiz_top_to__exterior_facet_top_integral_otherwise (135,543 us, 0.05%)</title><rect x="1156.5" y="263" width="0.6" height="15.0" fill="rgb(0,0,0)" rx="2" ry="2" />
<text  x="1159.53" y="273.5" ></text>
</g>
<g >
<title>Log_Event_mtf_solve_156 (1,958,726 us, 0.69%)</title><rect x="484.2" y="247" width="8.1" height="15.0" fill="rgb(0,0,0)" rx="2" ry="2" />
<text  x="487.21" y="257.5" ></text>
</g>
<g >
<title>Log_Event_subkernel132_cell_to__cell_integral_otherwise (1,255,383 us, 0.44%)</title><rect x="136.9" y="279" width="5.2" height="15.0" fill="rgb(0,0,0)" rx="2" ry="2" />
<text  x="139.88" y="289.5" ></text>
</g>
<g >
<title>Log_Event_subkernel108_cell_to__cell_integral_otherwise (454,874 us, 0.16%)</title><rect x="501.1" y="295" width="1.9" height="15.0" fill="rgb(0,0,0)" rx="2" ry="2" />
<text  x="504.07" y="305.5" ></text>
</g>
<g >
<title>PCSetUp (149,017,475 us, 52.34%)</title><rect x="570.2" y="183" width="617.5" height="15.0" fill="rgb(0,0,0)" rx="2" ry="2" />
<text  x="573.17" y="193.5" >PCSetUp</text>
</g>
<g >
<title>KSPSolve (279,416,648 us, 98.13%)</title><rect x="31.4" y="103" width="1158.0" height="15.0" fill="rgb(0,0,0)" rx="2" ry="2" />
<text  x="34.39" y="113.5" >KSPSolve</text>
</g>
<g >
<title>Log_Event_subkernel134_cell_to__cell_integral_otherwise (475,336 us, 0.17%)</title><rect x="129.8" y="295" width="2.0" height="15.0" fill="rgb(0,0,0)" rx="2" ry="2" />
<text  x="132.81" y="305.5" ></text>
</g>
<g >
<title>Log_Event_subkernel136_cell_to__cell_integral_otherwise (339,841 us, 0.12%)</title><rect x="131.8" y="295" width="1.4" height="15.0" fill="rgb(0,0,0)" rx="2" ry="2" />
<text  x="134.78" y="305.5" ></text>
</g>
<g >
<title>Log_Event_subkernel22_cell_to__cell_integral_otherwise (747,355 us, 0.26%)</title><rect x="62.1" y="247" width="3.1" height="15.0" fill="rgb(0,0,0)" rx="2" ry="2" />
<text  x="65.13" y="257.5" ></text>
</g>
<g >
<title>Log_Event_subkernel114_cell_to__cell_integral_otherwise (1,248,655 us, 0.44%)</title><rect x="523.2" y="247" width="5.1" height="15.0" fill="rgb(0,0,0)" rx="2" ry="2" />
<text  x="526.17" y="257.5" ></text>
</g>
<g >
<title>Log_Event_subkernel121_interior_facet_vert_to__exterior_facet_vert_integral_otherwise (1,432,948 us, 0.50%)</title><rect x="529.8" y="247" width="5.9" height="15.0" fill="rgb(0,0,0)" rx="2" ry="2" />
<text  x="532.78" y="257.5" ></text>
</g>
<g >
<title>Log_Event_subkernel103_cell_to__cell_integral_otherwise (1,250,706 us, 0.44%)</title><rect x="503.0" y="279" width="5.1" height="15.0" fill="rgb(0,0,0)" rx="2" ry="2" />
<text  x="505.96" y="289.5" ></text>
</g>
<g >
<title>SCSolve (270,565,031 us, 95.03%)</title><rect x="68.1" y="135" width="1121.3" height="15.0" fill="rgb(0,0,0)" rx="2" ry="2" />
<text  x="71.08" y="145.5" >SCSolve</text>
</g>
<g >
<title>Log_Event_mtf_solve_16 (2,690,539 us, 0.94%)</title><rect x="43.6" y="247" width="11.2" height="15.0" fill="rgb(0,0,0)" rx="2" ry="2" />
<text  x="46.63" y="257.5" ></text>
</g>
<g >
<title>Log_Event_subkernel118_cell_to__cell_integral_otherwise (335,107 us, 0.12%)</title><rect x="109.7" y="263" width="1.4" height="15.0" fill="rgb(0,0,0)" rx="2" ry="2" />
<text  x="112.73" y="273.5" ></text>
</g>
<g >
<title>Log_Event_subkernel98_cell_to__cell_integral_otherwise (550,837 us, 0.19%)</title><rect x="520.9" y="279" width="2.3" height="15.0" fill="rgb(0,0,0)" rx="2" ry="2" />
<text  x="523.89" y="289.5" ></text>
</g>
<g >
<title>Log_Event_mtf_solve_115 (1,279,611 us, 0.45%)</title><rect x="107.8" y="247" width="5.3" height="15.0" fill="rgb(0,0,0)" rx="2" ry="2" />
<text  x="110.77" y="257.5" ></text>
</g>
<g >
<title>firedrake.assemble.allocate_matrix (5,926,375 us, 2.08%)</title><rect x="1163.2" y="231" width="24.5" height="15.0" fill="rgb(0,0,0)" rx="2" ry="2" />
<text  x="1166.19" y="241.5" >f..</text>
</g>
<g >
<title>Log_Event_inits_wrap_slate_loopy_knl_77 (176,262 us, 0.06%)</title><rect x="586.1" y="263" width="0.7" height="15.0" fill="rgb(0,0,0)" rx="2" ry="2" />
<text  x="589.12" y="273.5" ></text>
</g>
<g >
<title>Log_Event_tensorshell_knl_42 (213,702 us, 0.08%)</title><rect x="66.3" y="231" width="0.9" height="15.0" fill="rgb(0,0,0)" rx="2" ry="2" />
<text  x="69.31" y="241.5" ></text>
</g>
<g >
<title>Log_Event_subkernel163_interior_facet_horiz_top_to__exterior_facet_top_integral_otherwise (176,384 us, 0.06%)</title><rect x="563.5" y="247" width="0.7" height="15.0" fill="rgb(0,0,0)" rx="2" ry="2" />
<text  x="566.47" y="257.5" ></text>
</g>
<g >
<title>Parloop_Cells_wrap_slate_loopy_knl_87 (121,152,237 us, 42.55%)</title><rect x="68.1" y="215" width="502.1" height="15.0" fill="rgb(0,0,0)" rx="2" ry="2" />
<text  x="71.08" y="225.5" >Parloop_Cells_wrap_slate_loopy_knl_87</text>
</g>
<g >
<title>Log_Event_subkernel148_cell_to__cell_integral_otherwise (7,246,294 us, 2.54%)</title><rect x="199.8" y="295" width="30.0" height="15.0" fill="rgb(0,0,0)" rx="2" ry="2" />
<text  x="202.81" y="305.5" >L..</text>
</g>
<g >
<title>Log_Event_subkernel78_interior_facet_vert_to__exterior_facet_vert_integral_otherwise (1,650,869 us, 0.58%)</title><rect x="1137.6" y="263" width="6.9" height="15.0" fill="rgb(0,0,0)" rx="2" ry="2" />
<text  x="1140.65" y="273.5" ></text>
</g>
<g >
<title>Log_Event_subkernel126_cell_to__cell_integral_otherwise (350,549 us, 0.12%)</title><rect x="116.0" y="263" width="1.5" height="15.0" fill="rgb(0,0,0)" rx="2" ry="2" />
<text  x="119.00" y="273.5" ></text>
</g>
<g >
<title>Log_Event_subkernel107_cell_to__cell_integral_otherwise (338,703 us, 0.12%)</title><rect x="499.7" y="295" width="1.4" height="15.0" fill="rgb(0,0,0)" rx="2" ry="2" />
<text  x="502.67" y="305.5" ></text>
</g>
<g >
<title>Log_Event_mtf_solve_123 (1,982,312 us, 0.70%)</title><rect x="113.1" y="247" width="8.2" height="15.0" fill="rgb(0,0,0)" rx="2" ry="2" />
<text  x="116.07" y="257.5" ></text>
</g>
<g >
<title>PCSetUp (148,302 us, 0.05%)</title><rect x="1189.4" y="103" width="0.6" height="15.0" fill="rgb(0,0,0)" rx="2" ry="2" />
<text  x="1192.39" y="113.5" ></text>
</g>
<g >
<title>Log_Event_subkernel124_cell_to__cell_integral_otherwise (473,978 us, 0.17%)</title><rect x="114.0" y="263" width="2.0" height="15.0" fill="rgb(0,0,0)" rx="2" ry="2" />
<text  x="117.04" y="273.5" ></text>
</g>
<g >
<title>Log_Event_tensorshell_knl_90 (3,079,179 us, 1.08%)</title><rect x="510.4" y="263" width="12.8" height="15.0" fill="rgb(0,0,0)" rx="2" ry="2" />
<text  x="513.41" y="273.5" ></text>
</g>
<g >
<title>inv_getrf (2,128,194 us, 0.75%)</title><rect x="1088.5" y="279" width="8.8" height="15.0" fill="rgb(0,0,0)" rx="2" ry="2" />
<text  x="1091.53" y="289.5" ></text>
</g>
<g >
<title>Log_Event_subkernel159_cell_to__cell_integral_otherwise (336,856 us, 0.12%)</title><rect x="487.1" y="263" width="1.4" height="15.0" fill="rgb(0,0,0)" rx="2" ry="2" />
<text  x="490.10" y="273.5" ></text>
</g>
<g >
<title>Log_Event_mtf_solve_89 (7,443,094 us, 2.61%)</title><rect x="492.3" y="247" width="30.9" height="15.0" fill="rgb(0,0,0)" rx="2" ry="2" />
<text  x="495.33" y="257.5" >Lo..</text>
</g>
<g >
<title>Parloop_Cells_wrap_slate_loopy_knl_0 (7,325,853 us, 2.57%)</title><rect x="37.7" y="183" width="30.4" height="15.0" fill="rgb(0,0,0)" rx="2" ry="2" />
<text  x="40.72" y="193.5" >P..</text>
</g>
<g >
<title>Log_Event_subkernel142_cell_to__cell_integral_otherwise (530,250 us, 0.19%)</title><rect x="124.9" y="263" width="2.2" height="15.0" fill="rgb(0,0,0)" rx="2" ry="2" />
<text  x="127.91" y="273.5" ></text>
</g>
<g >
<title>Log_Event_mtf_solve_1 (5,473,333 us, 1.92%)</title><rect x="43.6" y="215" width="22.7" height="15.0" fill="rgb(0,0,0)" rx="2" ry="2" />
<text  x="46.63" y="225.5" ></text>
</g>
<g >
<title>Log_Event_mtf_solve_41 (426,498 us, 0.15%)</title><rect x="66.3" y="215" width="1.8" height="15.0" fill="rgb(0,0,0)" rx="2" ry="2" />
<text  x="69.31" y="225.5" ></text>
</g>
<g >
<title>all (284,726,939 us, 100%)</title><rect x="10.0" y="39" width="1180.0" height="15.0" fill="rgb(0,0,0)" rx="2" ry="2" />
<text  x="13.00" y="49.5" ></text>
</g>
<g >
<title>Log_Event_subkernel162_interior_facet_horiz_bottom_to__exterior_facet_bottom_integral_otherwise (178,119 us, 0.06%)</title><rect x="555.4" y="247" width="0.7" height="15.0" fill="rgb(0,0,0)" rx="2" ry="2" />
<text  x="558.35" y="257.5" ></text>
</g>
<g >
<title>Log_Event_tensorshell_knl_147 (788,434 us, 0.28%)</title><rect x="311.7" y="295" width="3.3" height="15.0" fill="rgb(0,0,0)" rx="2" ry="2" />
<text  x="314.69" y="305.5" ></text>
</g>
<g >
<title>Log_Event_subkernel122_interior_facet_horiz_bottom_to__exterior_facet_bottom_integral_otherwise (196,705 us, 0.07%)</title><rect x="535.7" y="247" width="0.8" height="15.0" fill="rgb(0,0,0)" rx="2" ry="2" />
<text  x="538.72" y="257.5" ></text>
</g>
<g >
<title>Log_Event_subkernel82_interior_facet_vert_to__exterior_facet_vert_integral_otherwise (186,658 us, 0.07%)</title><rect x="1154.3" y="263" width="0.7" height="15.0" fill="rgb(0,0,0)" rx="2" ry="2" />
<text  x="1157.27" y="273.5" ></text>
</g>
<g >
<title>Log_Event_subkernel116_cell_to__cell_integral_otherwise (473,159 us, 0.17%)</title><rect x="107.8" y="263" width="1.9" height="15.0" fill="rgb(0,0,0)" rx="2" ry="2" />
<text  x="110.77" y="273.5" ></text>
</g>
<g >
<title>Log_Event_subkernel20_cell_to__cell_integral_otherwise (1,268,604 us, 0.45%)</title><rect x="49.5" y="263" width="5.3" height="15.0" fill="rgb(0,0,0)" rx="2" ry="2" />
<text  x="52.52" y="273.5" ></text>
</g>
<g >
<title>Log_Event_tensorshell_knl_2 (260,358 us, 0.09%)</title><rect x="65.2" y="231" width="1.1" height="15.0" fill="rgb(0,0,0)" rx="2" ry="2" />
<text  x="68.23" y="241.5" ></text>
</g>
<g >
<title>Log_Event_subkernel105_cell_to__cell_integral_otherwise (470,744 us, 0.17%)</title><rect x="497.7" y="295" width="2.0" height="15.0" fill="rgb(0,0,0)" rx="2" ry="2" />
<text  x="500.72" y="305.5" ></text>
</g>
<g >
<title>Log_Event_tensorshell_knl_150 (1,581,086 us, 0.56%)</title><rect x="315.0" y="295" width="6.5" height="15.0" fill="rgb(0,0,0)" rx="2" ry="2" />
<text  x="317.95" y="305.5" ></text>
</g>
<g >
<title>Log_Event_subkernel110_cell_to__cell_integral_otherwise (547,569 us, 0.19%)</title><rect x="508.1" y="279" width="2.3" height="15.0" fill="rgb(0,0,0)" rx="2" ry="2" />
<text  x="511.14" y="289.5" ></text>
</g>
<g >
<title>KSPSolve (270,169,712 us, 94.89%)</title><rect x="68.1" y="151" width="1119.6" height="15.0" fill="rgb(0,0,0)" rx="2" ry="2" />
<text  x="71.08" y="161.5" >KSPSolve</text>
</g>
<g >
<title>Log_Event_mtf_solve_130 (87,570,392 us, 30.76%)</title><rect x="121.3" y="247" width="362.9" height="15.0" fill="rgb(0,0,0)" rx="2" ry="2" />
<text  x="124.29" y="257.5" >Log_Event_mtf_solve_130</text>
</g>
<g >
<title>Log_Event_subkernel121_interior_facet_horiz_bottom_to__exterior_facet_bottom_integral_otherwise (173,754 us, 0.06%)</title><rect x="528.3" y="247" width="0.8" height="15.0" fill="rgb(0,0,0)" rx="2" ry="2" />
<text  x="531.35" y="257.5" ></text>
</g>
<g >
<title>firedrake.matrix_free.operators.ImplicitMatrixContext.mult (1,578,827 us, 0.55%)</title><rect x="570.8" y="247" width="6.5" height="15.0" fill="rgb(0,0,0)" rx="2" ry="2" />
<text  x="573.77" y="257.5" ></text>
</g>
<g >
<title>Log_Event_subkernel17_cell_to__cell_integral_otherwise (661,308 us, 0.23%)</title><rect x="44.9" y="263" width="2.7" height="15.0" fill="rgb(0,0,0)" rx="2" ry="2" />
<text  x="47.86" y="273.5" ></text>
</g>
<g >
<title>Log_Event_subkernel163_interior_facet_vert_to__exterior_facet_vert_integral_otherwise (1,439,881 us, 0.51%)</title><rect x="564.2" y="247" width="6.0" height="15.0" fill="rgb(0,0,0)" rx="2" ry="2" />
<text  x="567.20" y="257.5" ></text>
</g>
<g >
<title>ParLoopExecute (199,502 us, 0.07%)</title><rect x="31.4" y="151" width="0.8" height="15.0" fill="rgb(0,0,0)" rx="2" ry="2" />
<text  x="34.39" y="161.5" ></text>
</g>
<g >
<title>Log_Event_subkernel127_cell_to__cell_integral_otherwise (925,057 us, 0.32%)</title><rect x="117.5" y="263" width="3.8" height="15.0" fill="rgb(0,0,0)" rx="2" ry="2" />
<text  x="120.46" y="273.5" ></text>
</g>
</g>
</svg>
