<?xml version="1.0" standalone="no"?>
<!DOCTYPE svg PUBLIC "-//W3C//DTD SVG 1.1//EN" "http://www.w3.org/Graphics/SVG/1.1/DTD/svg11.dtd">
<svg version="1.1" width="1200" height="347" onload="init(evt)" viewBox="0 0 1200 347" xmlns="http://www.w3.org/2000/svg" xmlns:xlink="http://www.w3.org/1999/xlink">
<!-- Flame graph stack visualization. See https://github.com/brendangregg/FlameGraph for latest version, and http://www.brendangregg.com/flamegraphs.html for examples. -->
<!-- NOTES:  -->
<defs>
	<linearGradient id="background" y1="0" y2="1" x1="0" x2="0" >
		<stop stop-color="#eeeeee" offset="5%" />
		<stop stop-color="#eeeeb0" offset="95%" />
	</linearGradient>
</defs>
<style type="text/css">
	text { font-family:Verdana; font-size:13px; fill:rgb(0,0,0); }
	#search, #ignorecase { opacity:0.1; cursor:pointer; }
	#search:hover, #search.show, #ignorecase:hover, #ignorecase.show { opacity:1; }
	#subtitle { text-anchor:middle; font-color:rgb(160,160,160); }
	#title { text-anchor:middle; font-size:18px}
	#unzoom { cursor:pointer; }
	#frames > *:hover { stroke:black; stroke-width:0.5; cursor:pointer; }
	.hide { display:none; }
	.parent { opacity:0.5; }
</style>
<script type="text/ecmascript">
<![CDATA[
	"use strict";
	var details, searchbtn, unzoombtn, matchedtxt, svg, searching, currentSearchTerm, ignorecase, ignorecaseBtn;
	function init(evt) {
		details = document.getElementById("details").firstChild;
		searchbtn = document.getElementById("search");
		ignorecaseBtn = document.getElementById("ignorecase");
		unzoombtn = document.getElementById("unzoom");
		matchedtxt = document.getElementById("matched");
		svg = document.getElementsByTagName("svg")[0];
		searching = 0;
		currentSearchTerm = null;

		// use GET parameters to restore a flamegraphs state.
		var params = get_params();
		if (params.x && params.y)
			zoom(find_group(document.querySelector('[x="' + params.x + '"][y="' + params.y + '"]')));
                if (params.s) search(params.s);
	}

	// event listeners
	window.addEventListener("click", function(e) {
		var target = find_group(e.target);
		if (target) {
			if (target.nodeName == "a") {
				if (e.ctrlKey === false) return;
				e.preventDefault();
			}
			if (target.classList.contains("parent")) unzoom();
			zoom(target);
			if (!document.querySelector('.parent')) {
				clearzoom();
				return;
			}

			// set parameters for zoom state
			var el = target.querySelector("rect");
			if (el && el.attributes && el.attributes.y && el.attributes._orig_x) {
				var params = get_params()
				params.x = el.attributes._orig_x.value;
				params.y = el.attributes.y.value;
				history.replaceState(null, null, parse_params(params));
			}
		}
		else if (e.target.id == "unzoom") clearzoom();
		else if (e.target.id == "search") search_prompt();
		else if (e.target.id == "ignorecase") toggle_ignorecase();
	}, false)

	// mouse-over for info
	// show
	window.addEventListener("mouseover", function(e) {
		var target = find_group(e.target);
		if (target) details.nodeValue = "Function: " + g_to_text(target);
	}, false)

	// clear
	window.addEventListener("mouseout", function(e) {
		var target = find_group(e.target);
		if (target) details.nodeValue = ' ';
	}, false)

	// ctrl-F for search
	// ctrl-I to toggle case-sensitive search
	window.addEventListener("keydown",function (e) {
		if (e.keyCode === 114 || (e.ctrlKey && e.keyCode === 70)) {
			e.preventDefault();
			search_prompt();
		}
		else if (e.ctrlKey && e.keyCode === 73) {
			e.preventDefault();
			toggle_ignorecase();
		}
	}, false)

	// functions
	function get_params() {
		var params = {};
		var paramsarr = window.location.search.substr(1).split('&');
		for (var i = 0; i < paramsarr.length; ++i) {
			var tmp = paramsarr[i].split("=");
			if (!tmp[0] || !tmp[1]) continue;
			params[tmp[0]]  = decodeURIComponent(tmp[1]);
		}
		return params;
	}
	function parse_params(params) {
		var uri = "?";
		for (var key in params) {
			uri += key + '=' + encodeURIComponent(params[key]) + '&';
		}
		if (uri.slice(-1) == "&")
			uri = uri.substring(0, uri.length - 1);
		if (uri == '?')
			uri = window.location.href.split('?')[0];
		return uri;
	}
	function find_child(node, selector) {
		var children = node.querySelectorAll(selector);
		if (children.length) return children[0];
	}
	function find_group(node) {
		var parent = node.parentElement;
		if (!parent) return;
		if (parent.id == "frames") return node;
		return find_group(parent);
	}
	function orig_save(e, attr, val) {
		if (e.attributes["_orig_" + attr] != undefined) return;
		if (e.attributes[attr] == undefined) return;
		if (val == undefined) val = e.attributes[attr].value;
		e.setAttribute("_orig_" + attr, val);
	}
	function orig_load(e, attr) {
		if (e.attributes["_orig_"+attr] == undefined) return;
		e.attributes[attr].value = e.attributes["_orig_" + attr].value;
		e.removeAttribute("_orig_"+attr);
	}
	function g_to_text(e) {
		var text = find_child(e, "title").firstChild.nodeValue;
		return (text)
	}
	function g_to_func(e) {
		var func = g_to_text(e);
		// if there's any manipulation we want to do to the function
		// name before it's searched, do it here before returning.
		return (func);
	}
	function update_text(e) {
		var r = find_child(e, "rect");
		var t = find_child(e, "text");
		var w = parseFloat(r.attributes.width.value) -3;
		var txt = find_child(e, "title").textContent.replace(/\([^(]*\)$/,"");
		t.attributes.x.value = parseFloat(r.attributes.x.value) + 3;

		// Smaller than this size won't fit anything
		if (w < 2 * 13 * 0.59) {
			t.textContent = "";
			return;
		}

		t.textContent = txt;
		// Fit in full text width
		if (/^ *$/.test(txt) || t.getSubStringLength(0, txt.length) < w)
			return;

		for (var x = txt.length - 2; x > 0; x--) {
			if (t.getSubStringLength(0, x + 2) <= w) {
				t.textContent = txt.substring(0, x) + "..";
				return;
			}
		}
		t.textContent = "";
	}

	// zoom
	function zoom_reset(e) {
		if (e.attributes != undefined) {
			orig_load(e, "x");
			orig_load(e, "width");
		}
		if (e.childNodes == undefined) return;
		for (var i = 0, c = e.childNodes; i < c.length; i++) {
			zoom_reset(c[i]);
		}
	}
	function zoom_child(e, x, ratio) {
		if (e.attributes != undefined) {
			if (e.attributes.x != undefined) {
				orig_save(e, "x");
				e.attributes.x.value = (parseFloat(e.attributes.x.value) - x - 10) * ratio + 10;
				if (e.tagName == "text")
					e.attributes.x.value = find_child(e.parentNode, "rect[x]").attributes.x.value + 3;
			}
			if (e.attributes.width != undefined) {
				orig_save(e, "width");
				e.attributes.width.value = parseFloat(e.attributes.width.value) * ratio;
			}
		}

		if (e.childNodes == undefined) return;
		for (var i = 0, c = e.childNodes; i < c.length; i++) {
			zoom_child(c[i], x - 10, ratio);
		}
	}
	function zoom_parent(e) {
		if (e.attributes) {
			if (e.attributes.x != undefined) {
				orig_save(e, "x");
				e.attributes.x.value = 10;
			}
			if (e.attributes.width != undefined) {
				orig_save(e, "width");
				e.attributes.width.value = parseInt(svg.width.baseVal.value) - (10 * 2);
			}
		}
		if (e.childNodes == undefined) return;
		for (var i = 0, c = e.childNodes; i < c.length; i++) {
			zoom_parent(c[i]);
		}
	}
	function zoom(node) {
		var attr = find_child(node, "rect").attributes;
		var width = parseFloat(attr.width.value);
		var xmin = parseFloat(attr.x.value);
		var xmax = parseFloat(xmin + width);
		var ymin = parseFloat(attr.y.value);
		var ratio = (svg.width.baseVal.value - 2 * 10) / width;

		// XXX: Workaround for JavaScript float issues (fix me)
		var fudge = 0.0001;

		unzoombtn.classList.remove("hide");

		var el = document.getElementById("frames").children;
		for (var i = 0; i < el.length; i++) {
			var e = el[i];
			var a = find_child(e, "rect").attributes;
			var ex = parseFloat(a.x.value);
			var ew = parseFloat(a.width.value);
			var upstack;
			// Is it an ancestor
			if (1 == 0) {
				upstack = parseFloat(a.y.value) > ymin;
			} else {
				upstack = parseFloat(a.y.value) < ymin;
			}
			if (upstack) {
				// Direct ancestor
				if (ex <= xmin && (ex+ew+fudge) >= xmax) {
					e.classList.add("parent");
					zoom_parent(e);
					update_text(e);
				}
				// not in current path
				else
					e.classList.add("hide");
			}
			// Children maybe
			else {
				// no common path
				if (ex < xmin || ex + fudge >= xmax) {
					e.classList.add("hide");
				}
				else {
					zoom_child(e, xmin, ratio);
					update_text(e);
				}
			}
		}
		search();
	}
	function unzoom() {
		unzoombtn.classList.add("hide");
		var el = document.getElementById("frames").children;
		for(var i = 0; i < el.length; i++) {
			el[i].classList.remove("parent");
			el[i].classList.remove("hide");
			zoom_reset(el[i]);
			update_text(el[i]);
		}
		search();
	}
	function clearzoom() {
		unzoom();

		// remove zoom state
		var params = get_params();
		if (params.x) delete params.x;
		if (params.y) delete params.y;
		history.replaceState(null, null, parse_params(params));
	}

	// search
	function toggle_ignorecase() {
		ignorecase = !ignorecase;
		if (ignorecase) {
			ignorecaseBtn.classList.add("show");
		} else {
			ignorecaseBtn.classList.remove("show");
		}
		reset_search();
		search();
	}
	function reset_search() {
		var el = document.querySelectorAll("#frames rect");
		for (var i = 0; i < el.length; i++) {
			orig_load(el[i], "fill")
		}
		var params = get_params();
		delete params.s;
		history.replaceState(null, null, parse_params(params));
	}
	function search_prompt() {
		if (!searching) {
			var term = prompt("Enter a search term (regexp " +
			    "allowed, eg: ^ext4_)"
			    + (ignorecase ? ", ignoring case" : "")
			    + "\nPress Ctrl-i to toggle case sensitivity", "");
			if (term != null) search(term);
		} else {
			reset_search();
			searching = 0;
			currentSearchTerm = null;
			searchbtn.classList.remove("show");
			searchbtn.firstChild.nodeValue = "Search"
			matchedtxt.classList.add("hide");
			matchedtxt.firstChild.nodeValue = ""
		}
	}
	function search(term) {
		if (term) currentSearchTerm = term;

		var re = new RegExp(currentSearchTerm, ignorecase ? 'i' : '');
		var el = document.getElementById("frames").children;
		var matches = new Object();
		var maxwidth = 0;
		for (var i = 0; i < el.length; i++) {
			var e = el[i];
			var func = g_to_func(e);
			var rect = find_child(e, "rect");
			if (func == null || rect == null)
				continue;

			// Save max width. Only works as we have a root frame
			var w = parseFloat(rect.attributes.width.value);
			if (w > maxwidth)
				maxwidth = w;

			if (func.match(re)) {
				// highlight
				var x = parseFloat(rect.attributes.x.value);
				orig_save(rect, "fill");
				rect.attributes.fill.value = "rgb(230,0,230)";

				// remember matches
				if (matches[x] == undefined) {
					matches[x] = w;
				} else {
					if (w > matches[x]) {
						// overwrite with parent
						matches[x] = w;
					}
				}
				searching = 1;
			}
		}
		if (!searching)
			return;
		var params = get_params();
		params.s = currentSearchTerm;
		history.replaceState(null, null, parse_params(params));

		searchbtn.classList.add("show");
		searchbtn.firstChild.nodeValue = "Reset Search";

		// calculate percent matched, excluding vertical overlap
		var count = 0;
		var lastx = -1;
		var lastw = 0;
		var keys = Array();
		for (k in matches) {
			if (matches.hasOwnProperty(k))
				keys.push(k);
		}
		// sort the matched frames by their x location
		// ascending, then width descending
		keys.sort(function(a, b){
			return a - b;
		});
		// Step through frames saving only the biggest bottom-up frames
		// thanks to the sort order. This relies on the tree property
		// where children are always smaller than their parents.
		var fudge = 0.0001;	// JavaScript floating point
		for (var k in keys) {
			var x = parseFloat(keys[k]);
			var w = matches[keys[k]];
			if (x >= lastx + lastw - fudge) {
				count += w;
				lastx = x;
				lastw = w;
			}
		}
		// display matched percent
		matchedtxt.classList.remove("hide");
		var pct = 100 * count / maxwidth;
		if (pct != 100) pct = pct.toFixed(1)
		matchedtxt.firstChild.nodeValue = "Matched: " + pct + "%";
	}
]]>
</script>
<rect x="0.0" y="0" width="1200.0" height="347.0" fill="url(#background)"  />
<text id="title" x="600.00" y="26" >Firedrake example</text>
<text id="details" x="10.00" y="329" > </text>
<text id="unzoom" x="10.00" y="26" class="hide">Reset Zoom</text>
<text id="search" x="1090.00" y="26" >Search</text>
<text id="ignorecase" x="1174.00" y="26" >ic</text>
<text id="matched" x="1090.00" y="329" > </text>
<g id="frames">
<g >
<title>Log_Event_tensorshell_knl_42 (216,723 us, 0.08%)</title><rect x="63.1" y="231" width="0.9" height="15.0" fill="rgb(0,0,0)" rx="2" ry="2" />
<text  x="66.06" y="241.5" ></text>
</g>
<g >
<title>KSPSolve (1,332,917 us, 0.47%)</title><rect x="573.4" y="215" width="5.5" height="15.0" fill="rgb(0,0,0)" rx="2" ry="2" />
<text  x="576.39" y="225.5" ></text>
</g>
<g >
<title>Log_Event_mtf_solve_156 (1,973,608 us, 0.70%)</title><rect x="486.1" y="247" width="8.2" height="15.0" fill="rgb(0,0,0)" rx="2" ry="2" />
<text  x="489.06" y="257.5" ></text>
</g>
<g >
<title>inv_getri (9,148,357 us, 3.23%)</title><rect x="1098.8" y="279" width="38.1" height="15.0" fill="rgb(0,0,0)" rx="2" ry="2" />
<text  x="1101.77" y="289.5" >in..</text>
</g>
<g >
<title>Log_Event_subkernel121_interior_facet_horiz_top_to__exterior_facet_top_integral_otherwise (174,613 us, 0.06%)</title><rect x="531.6" y="247" width="0.7" height="15.0" fill="rgb(0,0,0)" rx="2" ry="2" />
<text  x="534.61" y="257.5" ></text>
</g>
<g >
<title>Log_Event_subkernel85_interior_facet_horiz_bottom_to__exterior_facet_bottom_integral_otherwise (131,917 us, 0.05%)</title><rect x="1158.0" y="263" width="0.5" height="15.0" fill="rgb(0,0,0)" rx="2" ry="2" />
<text  x="1160.99" y="273.5" ></text>
</g>
<g >
<title>SCSolve (269,580,038 us, 95.30%)</title><rect x="64.9" y="135" width="1124.5" height="15.0" fill="rgb(0,0,0)" rx="2" ry="2" />
<text  x="67.87" y="145.5" >SCSolve</text>
</g>
<g >
<title>Log_Event_subkernel162_interior_facet_horiz_top_to__exterior_facet_top_integral_otherwise (175,607 us, 0.06%)</title><rect x="559.1" y="247" width="0.7" height="15.0" fill="rgb(0,0,0)" rx="2" ry="2" />
<text  x="562.10" y="257.5" ></text>
</g>
<g >
<title>PCSetUp (147,293,538 us, 52.07%)</title><rect x="573.4" y="183" width="614.4" height="15.0" fill="rgb(0,0,0)" rx="2" ry="2" />
<text  x="576.39" y="193.5" >PCSetUp</text>
</g>
<g >
<title>Log_Event_subkernel122_interior_facet_horiz_bottom_to__exterior_facet_bottom_integral_otherwise (200,810 us, 0.07%)</title><rect x="538.4" y="247" width="0.8" height="15.0" fill="rgb(0,0,0)" rx="2" ry="2" />
<text  x="541.36" y="257.5" ></text>
</g>
<g >
<title>Log_Event_mtf_solve_115 (1,289,391 us, 0.46%)</title><rect x="103.7" y="247" width="5.4" height="15.0" fill="rgb(0,0,0)" rx="2" ry="2" />
<text  x="106.69" y="257.5" ></text>
</g>
<g >
<title>Log_Event_subkernel149_cell_to__cell_integral_otherwise (19,982,334 us, 7.06%)</title><rect x="227.5" y="295" width="83.4" height="15.0" fill="rgb(0,0,0)" rx="2" ry="2" />
<text  x="230.54" y="305.5" >Log_Even..</text>
</g>
<g >
<title>Log_Event_subkernel19_cell_to__cell_integral_otherwise (469,256 us, 0.17%)</title><rect x="44.1" y="263" width="1.9" height="15.0" fill="rgb(0,0,0)" rx="2" ry="2" />
<text  x="47.08" y="273.5" ></text>
</g>
<g >
<title>Log_Event_subkernel103_cell_to__cell_integral_otherwise (1,263,214 us, 0.45%)</title><rect x="505.1" y="279" width="5.3" height="15.0" fill="rgb(0,0,0)" rx="2" ry="2" />
<text  x="508.10" y="289.5" ></text>
</g>
<g >
<title>KSPSolve (278,954,998 us, 98.61%)</title><rect x="25.8" y="103" width="1163.6" height="15.0" fill="rgb(0,0,0)" rx="2" ry="2" />
<text  x="28.76" y="113.5" >KSPSolve</text>
</g>
<g >
<title>Log_Event_subkernel110_cell_to__cell_integral_otherwise (554,731 us, 0.20%)</title><rect x="510.4" y="279" width="2.3" height="15.0" fill="rgb(0,0,0)" rx="2" ry="2" />
<text  x="513.37" y="289.5" ></text>
</g>
<g >
<title>Log_Event_tensorshell_knl_147 (787,495 us, 0.28%)</title><rect x="310.9" y="295" width="3.3" height="15.0" fill="rgb(0,0,0)" rx="2" ry="2" />
<text  x="313.89" y="305.5" ></text>
</g>
<g >
<title>Log_Event_subkernel96_cell_to__cell_integral_otherwise (458,454 us, 0.16%)</title><rect x="516.1" y="295" width="1.9" height="15.0" fill="rgb(0,0,0)" rx="2" ry="2" />
<text  x="519.11" y="305.5" ></text>
</g>
<g >
<title>Log_Event_subkernel142_interior_facet_vert_to__exterior_facet_vert_integral_otherwise (443,047 us, 0.16%)</title><rect x="123.3" y="263" width="1.8" height="15.0" fill="rgb(0,0,0)" rx="2" ry="2" />
<text  x="126.26" y="273.5" ></text>
</g>
<g >
<title>firedrake.matrix_free.operators.ImplicitMatrixContext.mult (206,188 us, 0.07%)</title><rect x="25.8" y="135" width="0.8" height="15.0" fill="rgb(0,0,0)" rx="2" ry="2" />
<text  x="28.76" y="145.5" ></text>
</g>
<g >
<title>MatMult (206,188 us, 0.07%)</title><rect x="25.8" y="119" width="0.8" height="15.0" fill="rgb(0,0,0)" rx="2" ry="2" />
<text  x="28.76" y="129.5" ></text>
</g>
<g >
<title>Log_Event_tensorshell_knl_143 (82,767,183 us, 29.26%)</title><rect x="140.8" y="263" width="345.3" height="15.0" fill="rgb(0,0,0)" rx="2" ry="2" />
<text  x="143.82" y="273.5" >Log_Event_tensorshell_knl_143</text>
</g>
<g >
<title>Log_Event_slate_loopy_knl_87 (120,307,582 us, 42.53%)</title><rect x="71.6" y="231" width="501.8" height="15.0" fill="rgb(0,0,0)" rx="2" ry="2" />
<text  x="74.55" y="241.5" >Log_Event_slate_loopy_knl_87</text>
</g>
<g >
<title>PCSetUp (376,690 us, 0.13%)</title><rect x="1187.8" y="151" width="1.6" height="15.0" fill="rgb(0,0,0)" rx="2" ry="2" />
<text  x="1190.79" y="161.5" ></text>
</g>
<g >
<title>Log_Event_subkernel151_cell_to__cell_integral_otherwise (11,688,420 us, 4.13%)</title><rect x="437.3" y="279" width="48.8" height="15.0" fill="rgb(0,0,0)" rx="2" ry="2" />
<text  x="440.31" y="289.5" >Log_..</text>
</g>
<g >
<title>firedrake (282,886,271 us, 100.00%)</title><rect x="10.0" y="55" width="1180.0" height="15.0" fill="rgb(0,0,0)" rx="2" ry="2" />
<text  x="13.00" y="65.5" >firedrake</text>
</g>
<g >
<title>Log_Event_subkernel146_cell_to__cell_integral_otherwise (10,517,498 us, 3.72%)</title><rect x="153.1" y="295" width="43.9" height="15.0" fill="rgb(0,0,0)" rx="2" ry="2" />
<text  x="156.13" y="305.5" >Log..</text>
</g>
<g >
<title>Log_Event_tensorshell_knl_2 (255,100 us, 0.09%)</title><rect x="62.0" y="231" width="1.1" height="15.0" fill="rgb(0,0,0)" rx="2" ry="2" />
<text  x="65.00" y="241.5" ></text>
</g>
<g >
<title>firedrake.interpolation.make_interpolator (233,675 us, 0.08%)</title><rect x="1188.4" y="167" width="1.0" height="15.0" fill="rgb(0,0,0)" rx="2" ry="2" />
<text  x="1191.39" y="177.5" ></text>
</g>
<g >
<title>Log_Event_subkernel163_interior_facet_horiz_bottom_to__exterior_facet_bottom_integral_otherwise (176,639 us, 0.06%)</title><rect x="565.9" y="247" width="0.7" height="15.0" fill="rgb(0,0,0)" rx="2" ry="2" />
<text  x="568.86" y="257.5" ></text>
</g>
<g >
<title>KSPSetUp (147,293,538 us, 52.07%)</title><rect x="573.4" y="199" width="614.4" height="15.0" fill="rgb(0,0,0)" rx="2" ry="2" />
<text  x="576.39" y="209.5" >KSPSetUp</text>
</g>
<g >
<title>Log_Event_subkernel160_cell_to__cell_integral_otherwise (933,682 us, 0.33%)</title><rect x="490.4" y="263" width="3.9" height="15.0" fill="rgb(0,0,0)" rx="2" ry="2" />
<text  x="493.40" y="273.5" ></text>
</g>
<g >
<title>Log_Event_mtf_solve_145 (42,499,992 us, 15.02%)</title><rect x="143.5" y="279" width="177.2" height="15.0" fill="rgb(0,0,0)" rx="2" ry="2" />
<text  x="146.46" y="289.5" >Log_Event_mtf_solve_145</text>
</g>
<g >
<title>Log_Event_tensorshell_knl_150 (1,574,932 us, 0.56%)</title><rect x="314.2" y="295" width="6.5" height="15.0" fill="rgb(0,0,0)" rx="2" ry="2" />
<text  x="317.17" y="305.5" ></text>
</g>
<g >
<title>Log_Event_subkernel82_cell_to__cell_integral_otherwise (278,200 us, 0.10%)</title><rect x="1154.5" y="263" width="1.2" height="15.0" fill="rgb(0,0,0)" rx="2" ry="2" />
<text  x="1157.52" y="273.5" ></text>
</g>
<g >
<title>inv_getrf (2,141,527 us, 0.76%)</title><rect x="1089.8" y="279" width="9.0" height="15.0" fill="rgb(0,0,0)" rx="2" ry="2" />
<text  x="1092.84" y="289.5" ></text>
</g>
<g >
<title>MatZeroInitial (1,122,191 us, 0.40%)</title><rect x="1183.1" y="247" width="4.7" height="15.0" fill="rgb(0,0,0)" rx="2" ry="2" />
<text  x="1186.11" y="257.5" ></text>
</g>
<g >
<title>Log_Event_subkernel91_cell_to__cell_integral_otherwise (1,267,054 us, 0.45%)</title><rect x="518.0" y="279" width="5.3" height="15.0" fill="rgb(0,0,0)" rx="2" ry="2" />
<text  x="521.02" y="289.5" ></text>
</g>
<g >
<title>Log_Event_subkernel101_interior_facet_vert_to__exterior_facet_vert_integral_otherwise (438,988 us, 0.16%)</title><rect x="497.9" y="263" width="1.9" height="15.0" fill="rgb(0,0,0)" rx="2" ry="2" />
<text  x="500.94" y="273.5" ></text>
</g>
<g >
<title>Log_Event_tensorshell_knl_90 (3,097,803 us, 1.10%)</title><rect x="512.7" y="263" width="12.9" height="15.0" fill="rgb(0,0,0)" rx="2" ry="2" />
<text  x="515.69" y="273.5" ></text>
</g>
<g >
<title>Log_Event_subkernel80_cell_to__cell_integral_otherwise (774,453 us, 0.27%)</title><rect x="1151.3" y="263" width="3.2" height="15.0" fill="rgb(0,0,0)" rx="2" ry="2" />
<text  x="1154.29" y="273.5" ></text>
</g>
<g >
<title>SCForwardElim (9,168,772 us, 3.24%)</title><rect x="26.6" y="135" width="38.3" height="15.0" fill="rgb(0,0,0)" rx="2" ry="2" />
<text  x="29.62" y="145.5" >SC..</text>
</g>
<g >
<title>all (282,886,271 us, 100%)</title><rect x="10.0" y="39" width="1180.0" height="15.0" fill="rgb(0,0,0)" rx="2" ry="2" />
<text  x="13.00" y="49.5" ></text>
</g>
<g >
<title>Log_Event_subkernel20_cell_to__cell_integral_otherwise (1,282,234 us, 0.45%)</title><rect x="46.0" y="263" width="5.4" height="15.0" fill="rgb(0,0,0)" rx="2" ry="2" />
<text  x="49.04" y="273.5" ></text>
</g>
<g >
<title>Log_Event_subkernel132_cell_to__cell_integral_otherwise (1,265,852 us, 0.45%)</title><rect x="133.2" y="279" width="5.3" height="15.0" fill="rgb(0,0,0)" rx="2" ry="2" />
<text  x="136.23" y="289.5" ></text>
</g>
<g >
<title>ParLoopExecute (121,909,810 us, 43.09%)</title><rect x="64.9" y="199" width="508.5" height="15.0" fill="rgb(0,0,0)" rx="2" ry="2" />
<text  x="67.87" y="209.5" >ParLoopExecute</text>
</g>
<g >
<title>Log_Event_subkernel129_cell_to__cell_integral_otherwise (558,891 us, 0.20%)</title><rect x="550.8" y="247" width="2.3" height="15.0" fill="rgb(0,0,0)" rx="2" ry="2" />
<text  x="553.76" y="257.5" ></text>
</g>
<g >
<title>Log_Event_tensorshell_knl_102 (3,096,893 us, 1.09%)</title><rect x="499.8" y="263" width="12.9" height="15.0" fill="rgb(0,0,0)" rx="2" ry="2" />
<text  x="502.77" y="273.5" ></text>
</g>
<g >
<title>Log_Event_subkernel114_cell_to__cell_integral_otherwise (1,261,581 us, 0.45%)</title><rect x="525.6" y="247" width="5.3" height="15.0" fill="rgb(0,0,0)" rx="2" ry="2" />
<text  x="528.61" y="257.5" ></text>
</g>
<g >
<title>Parloop_Cells_wrap_wrap_slate_loopy_knl_77 (139,994,878 us, 49.49%)</title><rect x="581.3" y="247" width="584.0" height="15.0" fill="rgb(0,0,0)" rx="2" ry="2" />
<text  x="584.33" y="257.5" >Parloop_Cells_wrap_wrap_slate_loopy_knl_77</text>
</g>
<g >
<title>Log_Event_subkernel144_cell_to__cell_integral_otherwise (27,944,774 us, 9.88%)</title><rect x="320.7" y="279" width="116.6" height="15.0" fill="rgb(0,0,0)" rx="2" ry="2" />
<text  x="323.74" y="289.5" >Log_Event_sub..</text>
</g>
<g >
<title>Log_Event_slate_loopy_knl_0 (7,251,819 us, 2.56%)</title><rect x="34.6" y="199" width="30.3" height="15.0" fill="rgb(0,0,0)" rx="2" ry="2" />
<text  x="37.62" y="209.5" >L..</text>
</g>
<g >
<title>ParLoopExecute (143,015 us, 0.05%)</title><rect x="1187.8" y="167" width="0.6" height="15.0" fill="rgb(0,0,0)" rx="2" ry="2" />
<text  x="1190.79" y="177.5" ></text>
</g>
<g >
<title>Log_Event_mtf_solve_1 (5,518,481 us, 1.95%)</title><rect x="40.0" y="215" width="23.1" height="15.0" fill="rgb(0,0,0)" rx="2" ry="2" />
<text  x="43.04" y="225.5" >L..</text>
</g>
<g >
<title>Log_Event_tensorshell_knl_54 (216,383 us, 0.08%)</title><rect x="64.0" y="231" width="0.9" height="15.0" fill="rgb(0,0,0)" rx="2" ry="2" />
<text  x="66.97" y="241.5" ></text>
</g>
<g >
<title>Log_Event_subkernel155_cell_to__cell_integral_otherwise (1,264,495 us, 0.45%)</title><rect x="553.1" y="247" width="5.3" height="15.0" fill="rgb(0,0,0)" rx="2" ry="2" />
<text  x="556.09" y="257.5" ></text>
</g>
<g >
<title>Log_Event_subkernel82_interior_facet_vert_to__exterior_facet_vert_integral_otherwise (190,356 us, 0.07%)</title><rect x="1155.7" y="263" width="0.8" height="15.0" fill="rgb(0,0,0)" rx="2" ry="2" />
<text  x="1158.68" y="273.5" ></text>
</g>
<g >
<title>Log_Event_subkernel22_cell_to__cell_integral_otherwise (752,285 us, 0.27%)</title><rect x="58.9" y="247" width="3.1" height="15.0" fill="rgb(0,0,0)" rx="2" ry="2" />
<text  x="61.86" y="257.5" ></text>
</g>
<g >
<title>HybridRHS (9,168,772 us, 3.24%)</title><rect x="26.6" y="151" width="38.3" height="15.0" fill="rgb(0,0,0)" rx="2" ry="2" />
<text  x="29.62" y="161.5" >Hy..</text>
</g>
<g >
<title>Log_Event_subkernel78_interior_facet_vert_to__exterior_facet_vert_integral_otherwise (1,695,110 us, 0.60%)</title><rect x="1138.7" y="263" width="7.0" height="15.0" fill="rgb(0,0,0)" rx="2" ry="2" />
<text  x="1141.65" y="273.5" ></text>
</g>
<g >
<title>Log_Event_subkernel121_interior_facet_horiz_bottom_to__exterior_facet_bottom_integral_otherwise (175,679 us, 0.06%)</title><rect x="530.9" y="247" width="0.7" height="15.0" fill="rgb(0,0,0)" rx="2" ry="2" />
<text  x="533.87" y="257.5" ></text>
</g>
<g >
<title>Log_Event_subkernel116_cell_to__cell_integral_otherwise (476,578 us, 0.17%)</title><rect x="103.7" y="263" width="2.0" height="15.0" fill="rgb(0,0,0)" rx="2" ry="2" />
<text  x="106.69" y="273.5" ></text>
</g>
<g >
<title>Log_Event_subkernel134_cell_to__cell_integral_otherwise (481,943 us, 0.17%)</title><rect x="126.0" y="295" width="2.0" height="15.0" fill="rgb(0,0,0)" rx="2" ry="2" />
<text  x="129.02" y="305.5" ></text>
</g>
<g >
<title>ParLoopExecute (206,188 us, 0.07%)</title><rect x="25.8" y="151" width="0.8" height="15.0" fill="rgb(0,0,0)" rx="2" ry="2" />
<text  x="28.76" y="161.5" ></text>
</g>
<g >
<title>Log_Event_subkernel93_cell_to__cell_integral_otherwise (477,323 us, 0.17%)</title><rect x="512.7" y="295" width="2.0" height="15.0" fill="rgb(0,0,0)" rx="2" ry="2" />
<text  x="515.69" y="305.5" ></text>
</g>
<g >
<title>Log_Event_subkernel124_cell_to__cell_integral_otherwise (478,892 us, 0.17%)</title><rect x="110.1" y="263" width="1.9" height="15.0" fill="rgb(0,0,0)" rx="2" ry="2" />
<text  x="113.05" y="273.5" ></text>
</g>
<g >
<title>Log_Event_subkernel142_cell_to__cell_integral_otherwise (526,361 us, 0.19%)</title><rect x="121.1" y="263" width="2.2" height="15.0" fill="rgb(0,0,0)" rx="2" ry="2" />
<text  x="124.06" y="273.5" ></text>
</g>
<g >
<title>Log_Event_subkernel15_cell_to__cell_integral_otherwise (1,791,130 us, 0.63%)</title><rect x="51.4" y="247" width="7.5" height="15.0" fill="rgb(0,0,0)" rx="2" ry="2" />
<text  x="54.39" y="257.5" ></text>
</g>
<g >
<title>Log_Event_subkernel78_interior_facet_horiz_top_to__exterior_facet_top_integral_otherwise (209,779 us, 0.07%)</title><rect x="1137.8" y="263" width="0.9" height="15.0" fill="rgb(0,0,0)" rx="2" ry="2" />
<text  x="1140.78" y="273.5" ></text>
</g>
<g >
<title>Log_Event_subkernel107_cell_to__cell_integral_otherwise (341,691 us, 0.12%)</title><rect x="501.8" y="295" width="1.4" height="15.0" fill="rgb(0,0,0)" rx="2" ry="2" />
<text  x="504.76" y="305.5" ></text>
</g>
<g >
<title>HybridInit (152,520 us, 0.05%)</title><rect x="1189.4" y="119" width="0.6" height="15.0" fill="rgb(0,0,0)" rx="2" ry="2" />
<text  x="1192.36" y="129.5" ></text>
</g>
<g >
<title>Log_Event_slate_loopy_knl_77 (131,686,192 us, 46.55%)</title><rect x="587.6" y="263" width="549.3" height="15.0" fill="rgb(0,0,0)" rx="2" ry="2" />
<text  x="590.63" y="273.5" >Log_Event_slate_loopy_knl_77</text>
</g>
<g >
<title>Log_Event_mtf_solve_92 (1,278,615 us, 0.45%)</title><rect x="512.7" y="279" width="5.3" height="15.0" fill="rgb(0,0,0)" rx="2" ry="2" />
<text  x="515.69" y="289.5" ></text>
</g>
<g >
<title>Log_Event_subkernel17_cell_to__cell_integral_otherwise (669,698 us, 0.24%)</title><rect x="41.3" y="263" width="2.8" height="15.0" fill="rgb(0,0,0)" rx="2" ry="2" />
<text  x="44.29" y="273.5" ></text>
</g>
<g >
<title>Log_Event_tensorshell_knl_131 (3,766,803 us, 1.33%)</title><rect x="125.1" y="263" width="15.7" height="15.0" fill="rgb(0,0,0)" rx="2" ry="2" />
<text  x="128.11" y="273.5" ></text>
</g>
<g >
<title>Log_Event_mtf_solve_123 (1,995,586 us, 0.71%)</title><rect x="109.1" y="247" width="8.3" height="15.0" fill="rgb(0,0,0)" rx="2" ry="2" />
<text  x="112.07" y="257.5" ></text>
</g>
<g >
<title>Log_Event_subkernel101_cell_to__cell_integral_otherwise (524,392 us, 0.19%)</title><rect x="495.8" y="263" width="2.1" height="15.0" fill="rgb(0,0,0)" rx="2" ry="2" />
<text  x="498.75" y="273.5" ></text>
</g>
<g >
<title>Log_Event_subkernel163_interior_facet_horiz_top_to__exterior_facet_top_integral_otherwise (181,712 us, 0.06%)</title><rect x="566.6" y="247" width="0.8" height="15.0" fill="rgb(0,0,0)" rx="2" ry="2" />
<text  x="569.60" y="257.5" ></text>
</g>
<g >
<title>Log_Event_subkernel118_cell_to__cell_integral_otherwise (338,551 us, 0.12%)</title><rect x="105.7" y="263" width="1.4" height="15.0" fill="rgb(0,0,0)" rx="2" ry="2" />
<text  x="108.68" y="273.5" ></text>
</g>
<g >
<title>Log_Event_mtf_solve_130 (88,382,119 us, 31.24%)</title><rect x="117.4" y="247" width="368.7" height="15.0" fill="rgb(0,0,0)" rx="2" ry="2" />
<text  x="120.40" y="257.5" >Log_Event_mtf_solve_130</text>
</g>
<g >
<title>Log_Event_subkernel137_cell_to__cell_integral_otherwise (900,603 us, 0.32%)</title><rect x="129.5" y="295" width="3.7" height="15.0" fill="rgb(0,0,0)" rx="2" ry="2" />
<text  x="132.47" y="305.5" ></text>
</g>
<g >
<title>Log_Event_subkernel127_cell_to__cell_integral_otherwise (940,990 us, 0.33%)</title><rect x="113.5" y="263" width="3.9" height="15.0" fill="rgb(0,0,0)" rx="2" ry="2" />
<text  x="116.47" y="273.5" ></text>
</g>
<g >
<title>Log_Event_mtf_solve_89 (7,506,944 us, 2.65%)</title><rect x="494.3" y="247" width="31.3" height="15.0" fill="rgb(0,0,0)" rx="2" ry="2" />
<text  x="497.30" y="257.5" >Lo..</text>
</g>
<g >
<title>SNESSolve (279,107,518 us, 98.66%)</title><rect x="25.8" y="87" width="1164.2" height="15.0" fill="rgb(0,0,0)" rx="2" ry="2" />
<text  x="28.76" y="97.5" >SNESSolve</text>
</g>
<g >
<title>firedrake.__init__ (1,629,698 us, 0.58%)</title><rect x="19.0" y="71" width="6.8" height="15.0" fill="rgb(0,0,0)" rx="2" ry="2" />
<text  x="21.96" y="81.5" ></text>
</g>
<g >
<title>Log_Event_mtf_solve_133 (1,946,587 us, 0.69%)</title><rect x="125.1" y="279" width="8.1" height="15.0" fill="rgb(0,0,0)" rx="2" ry="2" />
<text  x="128.11" y="289.5" ></text>
</g>
<g >
<title>Log_Event_subkernel126_cell_to__cell_integral_otherwise (340,927 us, 0.12%)</title><rect x="112.0" y="263" width="1.5" height="15.0" fill="rgb(0,0,0)" rx="2" ry="2" />
<text  x="115.05" y="273.5" ></text>
</g>
<g >
<title>Log_Event_subkernel98_cell_to__cell_integral_otherwise (552,134 us, 0.20%)</title><rect x="523.3" y="279" width="2.3" height="15.0" fill="rgb(0,0,0)" rx="2" ry="2" />
<text  x="526.31" y="289.5" ></text>
</g>
<g >
<title>Log_Event_subkernel105_cell_to__cell_integral_otherwise (476,366 us, 0.17%)</title><rect x="499.8" y="295" width="2.0" height="15.0" fill="rgb(0,0,0)" rx="2" ry="2" />
<text  x="502.77" y="305.5" ></text>
</g>
<g >
<title>Log_Event_subkernel79_cell_to__cell_integral_otherwise (1,334,370 us, 0.47%)</title><rect x="1145.7" y="263" width="5.6" height="15.0" fill="rgb(0,0,0)" rx="2" ry="2" />
<text  x="1148.72" y="273.5" ></text>
</g>
<g >
<title>Log_Event_subkernel139_cell_to__cell_integral_otherwise (554,364 us, 0.20%)</title><rect x="138.5" y="279" width="2.3" height="15.0" fill="rgb(0,0,0)" rx="2" ry="2" />
<text  x="141.51" y="289.5" ></text>
</g>
<g >
<title>Log_Event_subkernel162_interior_facet_vert_to__exterior_facet_vert_integral_otherwise (1,443,746 us, 0.51%)</title><rect x="559.8" y="247" width="6.1" height="15.0" fill="rgb(0,0,0)" rx="2" ry="2" />
<text  x="562.84" y="257.5" ></text>
</g>
<g >
<title>Log_Event_subkernel85_interior_facet_vert_to__exterior_facet_vert_integral_otherwise (1,482,994 us, 0.52%)</title><rect x="1159.1" y="263" width="6.2" height="15.0" fill="rgb(0,0,0)" rx="2" ry="2" />
<text  x="1162.11" y="273.5" ></text>
</g>
<g >
<title>MatMult (1,332,917 us, 0.47%)</title><rect x="573.4" y="231" width="5.5" height="15.0" fill="rgb(0,0,0)" rx="2" ry="2" />
<text  x="576.39" y="241.5" ></text>
</g>
<g >
<title>Log_Event_subkernel85_interior_facet_horiz_top_to__exterior_facet_top_integral_otherwise (136,580 us, 0.05%)</title><rect x="1158.5" y="263" width="0.6" height="15.0" fill="rgb(0,0,0)" rx="2" ry="2" />
<text  x="1161.54" y="273.5" ></text>
</g>
<g >
<title>firedrake.variational_solver.NonlinearVariationalSolver.solve (279,107,518 us, 98.66%)</title><rect x="25.8" y="71" width="1164.2" height="15.0" fill="rgb(0,0,0)" rx="2" ry="2" />
<text  x="28.76" y="81.5" >firedrake.variational_solver.NonlinearVariationalSolver.solve</text>
</g>
<g >
<title>Log_Event_subkernel122_interior_facet_vert_to__exterior_facet_vert_integral_otherwise (2,570,702 us, 0.91%)</title><rect x="540.0" y="247" width="10.8" height="15.0" fill="rgb(0,0,0)" rx="2" ry="2" />
<text  x="543.04" y="257.5" ></text>
</g>
<g >
<title>Parloop_Cells_wrap_slate_loopy_knl_0 (7,417,359 us, 2.62%)</title><rect x="33.9" y="183" width="31.0" height="15.0" fill="rgb(0,0,0)" rx="2" ry="2" />
<text  x="36.93" y="193.5" >Pa..</text>
</g>
<g >
<title>MatMult (121,909,810 us, 43.09%)</title><rect x="64.9" y="167" width="508.5" height="15.0" fill="rgb(0,0,0)" rx="2" ry="2" />
<text  x="67.87" y="177.5" >MatMult</text>
</g>
<g >
<title>Log_Event_subkernel136_cell_to__cell_integral_otherwise (344,290 us, 0.12%)</title><rect x="128.0" y="295" width="1.5" height="15.0" fill="rgb(0,0,0)" rx="2" ry="2" />
<text  x="131.03" y="305.5" ></text>
</g>
<g >
<title>Log_Event_mtf_solve_41 (433,106 us, 0.15%)</title><rect x="63.1" y="215" width="1.8" height="15.0" fill="rgb(0,0,0)" rx="2" ry="2" />
<text  x="66.06" y="225.5" ></text>
</g>
<g >
<title>ParLoopExecute (7,417,359 us, 2.62%)</title><rect x="33.9" y="167" width="31.0" height="15.0" fill="rgb(0,0,0)" rx="2" ry="2" />
<text  x="36.93" y="177.5" >Pa..</text>
</g>
<g >
<title>PCApply (147,293,538 us, 52.07%)</title><rect x="573.4" y="167" width="614.4" height="15.0" fill="rgb(0,0,0)" rx="2" ry="2" />
<text  x="576.39" y="177.5" >PCApply</text>
</g>
<g >
<title>firedrake.matrix_free.operators.ImplicitMatrixContext.mult (121,909,810 us, 43.09%)</title><rect x="64.9" y="183" width="508.5" height="15.0" fill="rgb(0,0,0)" rx="2" ry="2" />
<text  x="67.87" y="193.5" >firedrake.matrix_free.operators.ImplicitMatrixContext.mult</text>
</g>
<g >
<title>Log_Event_subkernel157_cell_to__cell_integral_otherwise (476,550 us, 0.17%)</title><rect x="487.0" y="263" width="2.0" height="15.0" fill="rgb(0,0,0)" rx="2" ry="2" />
<text  x="490.00" y="273.5" ></text>
</g>
<g >
<title>Log_Event_mtf_solve_104 (1,278,948 us, 0.45%)</title><rect x="499.8" y="279" width="5.3" height="15.0" fill="rgb(0,0,0)" rx="2" ry="2" />
<text  x="502.77" y="289.5" ></text>
</g>
<g >
<title>CreateSparsity (4,271,590 us, 1.51%)</title><rect x="1165.3" y="247" width="17.8" height="15.0" fill="rgb(0,0,0)" rx="2" ry="2" />
<text  x="1168.29" y="257.5" ></text>
</g>
<g >
<title>firedrake.assemble.allocate_matrix (5,393,781 us, 1.91%)</title><rect x="1165.3" y="231" width="22.5" height="15.0" fill="rgb(0,0,0)" rx="2" ry="2" />
<text  x="1168.29" y="241.5" ></text>
</g>
<g >
<title>Log_Event_subkernel162_interior_facet_horiz_bottom_to__exterior_facet_bottom_integral_otherwise (177,370 us, 0.06%)</title><rect x="558.4" y="247" width="0.7" height="15.0" fill="rgb(0,0,0)" rx="2" ry="2" />
<text  x="561.36" y="257.5" ></text>
</g>
<g >
<title>Log_Event_tensorshell_knl_14 (5,263,381 us, 1.86%)</title><rect x="40.0" y="231" width="22.0" height="15.0" fill="rgb(0,0,0)" rx="2" ry="2" />
<text  x="43.04" y="241.5" ></text>
</g>
<g >
<title>Log_Event_subkernel84_cell_to__cell_integral_otherwise (362,408 us, 0.13%)</title><rect x="1156.5" y="263" width="1.5" height="15.0" fill="rgb(0,0,0)" rx="2" ry="2" />
<text  x="1159.48" y="273.5" ></text>
</g>
<g >
<title>Log_Event_subkernel163_interior_facet_vert_to__exterior_facet_vert_integral_otherwise (1,446,748 us, 0.51%)</title><rect x="567.4" y="247" width="6.0" height="15.0" fill="rgb(0,0,0)" rx="2" ry="2" />
<text  x="570.35" y="257.5" ></text>
</g>
<g >
<title>Log_Event_subkernel119_cell_to__cell_integral_otherwise (474,262 us, 0.17%)</title><rect x="107.1" y="263" width="2.0" height="15.0" fill="rgb(0,0,0)" rx="2" ry="2" />
<text  x="110.09" y="273.5" ></text>
</g>
<g >
<title>ParLoopExecute (139,994,878 us, 49.49%)</title><rect x="581.3" y="231" width="584.0" height="15.0" fill="rgb(0,0,0)" rx="2" ry="2" />
<text  x="584.33" y="241.5" >ParLoopExecute</text>
</g>
<g >
<title>Log_Event_subkernel95_cell_to__cell_integral_otherwise (342,838 us, 0.12%)</title><rect x="514.7" y="295" width="1.4" height="15.0" fill="rgb(0,0,0)" rx="2" ry="2" />
<text  x="517.68" y="305.5" ></text>
</g>
<g >
<title>Log_Event_subkernel122_interior_facet_horiz_top_to__exterior_facet_top_integral_otherwise (200,331 us, 0.07%)</title><rect x="539.2" y="247" width="0.8" height="15.0" fill="rgb(0,0,0)" rx="2" ry="2" />
<text  x="542.20" y="257.5" ></text>
</g>
<g >
<title>CreateSparsity (233,675 us, 0.08%)</title><rect x="1188.4" y="183" width="1.0" height="15.0" fill="rgb(0,0,0)" rx="2" ry="2" />
<text  x="1191.39" y="193.5" ></text>
</g>
<g >
<title>Log_Event_subkernel121_interior_facet_vert_to__exterior_facet_vert_integral_otherwise (1,445,302 us, 0.51%)</title><rect x="532.3" y="247" width="6.1" height="15.0" fill="rgb(0,0,0)" rx="2" ry="2" />
<text  x="535.33" y="257.5" ></text>
</g>
<g >
<title>Log_Event_inits_wrap_slate_loopy_knl_77 (176,981 us, 0.06%)</title><rect x="586.9" y="263" width="0.7" height="15.0" fill="rgb(0,0,0)" rx="2" ry="2" />
<text  x="589.89" y="273.5" ></text>
</g>
<g >
<title>Log_Event_subkernel108_cell_to__cell_integral_otherwise (460,891 us, 0.16%)</title><rect x="503.2" y="295" width="1.9" height="15.0" fill="rgb(0,0,0)" rx="2" ry="2" />
<text  x="506.18" y="305.5" ></text>
</g>
<g >
<title>Log_Event_subkernel148_cell_to__cell_integral_otherwise (7,320,598 us, 2.59%)</title><rect x="197.0" y="295" width="30.5" height="15.0" fill="rgb(0,0,0)" rx="2" ry="2" />
<text  x="200.00" y="305.5" >L..</text>
</g>
<g >
<title>PCApply (278,748,810 us, 98.54%)</title><rect x="26.6" y="119" width="1162.8" height="15.0" fill="rgb(0,0,0)" rx="2" ry="2" />
<text  x="29.62" y="129.5" >PCApply</text>
</g>
<g >
<title>PCSetUp (145,960,621 us, 51.60%)</title><rect x="578.9" y="215" width="608.9" height="15.0" fill="rgb(0,0,0)" rx="2" ry="2" />
<text  x="581.95" y="225.5" >PCSetUp</text>
</g>
<g >
<title>Log_Event_mtf_solve_16 (2,719,966 us, 0.96%)</title><rect x="40.0" y="247" width="11.4" height="15.0" fill="rgb(0,0,0)" rx="2" ry="2" />
<text  x="43.04" y="257.5" ></text>
</g>
<g >
<title>firedrake.matrix_free.operators.ImplicitMatrixContext.mult (1,332,917 us, 0.47%)</title><rect x="573.4" y="247" width="5.5" height="15.0" fill="rgb(0,0,0)" rx="2" ry="2" />
<text  x="576.39" y="257.5" ></text>
</g>
<g >
<title>KSPSolve (269,203,348 us, 95.16%)</title><rect x="64.9" y="151" width="1122.9" height="15.0" fill="rgb(0,0,0)" rx="2" ry="2" />
<text  x="67.87" y="161.5" >KSPSolve</text>
</g>
<g >
<title>Parloop_Cells_wrap_slate_loopy_knl_87 (121,909,810 us, 43.09%)</title><rect x="64.9" y="215" width="508.5" height="15.0" fill="rgb(0,0,0)" rx="2" ry="2" />
<text  x="67.87" y="225.5" >Parloop_Cells_wrap_slate_loopy_knl_87</text>
</g>
<g >
<title>PCSetUp (152,520 us, 0.05%)</title><rect x="1189.4" y="103" width="0.6" height="15.0" fill="rgb(0,0,0)" rx="2" ry="2" />
<text  x="1192.36" y="113.5" ></text>
</g>
<g >
<title>Log_Event_subkernel78_interior_facet_horiz_bottom_to__exterior_facet_bottom_integral_otherwise (202,942 us, 0.07%)</title><rect x="1136.9" y="263" width="0.9" height="15.0" fill="rgb(0,0,0)" rx="2" ry="2" />
<text  x="1139.93" y="273.5" ></text>
</g>
<g >
<title>Log_Event_subkernel159_cell_to__cell_integral_otherwise (339,968 us, 0.12%)</title><rect x="489.0" y="263" width="1.4" height="15.0" fill="rgb(0,0,0)" rx="2" ry="2" />
<text  x="491.98" y="273.5" ></text>
</g>
</g>
</svg>
