<?xml version="1.0" standalone="no"?>
<!DOCTYPE svg PUBLIC "-//W3C//DTD SVG 1.1//EN" "http://www.w3.org/Graphics/SVG/1.1/DTD/svg11.dtd">
<svg version="1.1" width="1200" height="395" onload="init(evt)" viewBox="0 0 1200 395" xmlns="http://www.w3.org/2000/svg" xmlns:xlink="http://www.w3.org/1999/xlink">
<!-- Flame graph stack visualization. See https://github.com/brendangregg/FlameGraph for latest version, and http://www.brendangregg.com/flamegraphs.html for examples. -->
<!-- NOTES:  -->
<defs>
	<linearGradient id="background" y1="0" y2="1" x1="0" x2="0" >
		<stop stop-color="#eeeeee" offset="5%" />
		<stop stop-color="#eeeeb0" offset="95%" />
	</linearGradient>
</defs>
<style type="text/css">
	text { font-family:Verdana; font-size:13px; fill:rgb(0,0,0); }
	#search, #ignorecase { opacity:0.1; cursor:pointer; }
	#search:hover, #search.show, #ignorecase:hover, #ignorecase.show { opacity:1; }
	#subtitle { text-anchor:middle; font-color:rgb(160,160,160); }
	#title { text-anchor:middle; font-size:18px}
	#unzoom { cursor:pointer; }
	#frames > *:hover { stroke:black; stroke-width:0.5; cursor:pointer; }
	.hide { display:none; }
	.parent { opacity:0.5; }
</style>
<script type="text/ecmascript">
<![CDATA[
	"use strict";
	var details, searchbtn, unzoombtn, matchedtxt, svg, searching, currentSearchTerm, ignorecase, ignorecaseBtn;
	function init(evt) {
		details = document.getElementById("details").firstChild;
		searchbtn = document.getElementById("search");
		ignorecaseBtn = document.getElementById("ignorecase");
		unzoombtn = document.getElementById("unzoom");
		matchedtxt = document.getElementById("matched");
		svg = document.getElementsByTagName("svg")[0];
		searching = 0;
		currentSearchTerm = null;

		// use GET parameters to restore a flamegraphs state.
		var params = get_params();
		if (params.x && params.y)
			zoom(find_group(document.querySelector('[x="' + params.x + '"][y="' + params.y + '"]')));
                if (params.s) search(params.s);
	}

	// event listeners
	window.addEventListener("click", function(e) {
		var target = find_group(e.target);
		if (target) {
			if (target.nodeName == "a") {
				if (e.ctrlKey === false) return;
				e.preventDefault();
			}
			if (target.classList.contains("parent")) unzoom();
			zoom(target);
			if (!document.querySelector('.parent')) {
				clearzoom();
				return;
			}

			// set parameters for zoom state
			var el = target.querySelector("rect");
			if (el && el.attributes && el.attributes.y && el.attributes._orig_x) {
				var params = get_params()
				params.x = el.attributes._orig_x.value;
				params.y = el.attributes.y.value;
				history.replaceState(null, null, parse_params(params));
			}
		}
		else if (e.target.id == "unzoom") clearzoom();
		else if (e.target.id == "search") search_prompt();
		else if (e.target.id == "ignorecase") toggle_ignorecase();
	}, false)

	// mouse-over for info
	// show
	window.addEventListener("mouseover", function(e) {
		var target = find_group(e.target);
		if (target) details.nodeValue = "Function: " + g_to_text(target);
	}, false)

	// clear
	window.addEventListener("mouseout", function(e) {
		var target = find_group(e.target);
		if (target) details.nodeValue = ' ';
	}, false)

	// ctrl-F for search
	// ctrl-I to toggle case-sensitive search
	window.addEventListener("keydown",function (e) {
		if (e.keyCode === 114 || (e.ctrlKey && e.keyCode === 70)) {
			e.preventDefault();
			search_prompt();
		}
		else if (e.ctrlKey && e.keyCode === 73) {
			e.preventDefault();
			toggle_ignorecase();
		}
	}, false)

	// functions
	function get_params() {
		var params = {};
		var paramsarr = window.location.search.substr(1).split('&');
		for (var i = 0; i < paramsarr.length; ++i) {
			var tmp = paramsarr[i].split("=");
			if (!tmp[0] || !tmp[1]) continue;
			params[tmp[0]]  = decodeURIComponent(tmp[1]);
		}
		return params;
	}
	function parse_params(params) {
		var uri = "?";
		for (var key in params) {
			uri += key + '=' + encodeURIComponent(params[key]) + '&';
		}
		if (uri.slice(-1) == "&")
			uri = uri.substring(0, uri.length - 1);
		if (uri == '?')
			uri = window.location.href.split('?')[0];
		return uri;
	}
	function find_child(node, selector) {
		var children = node.querySelectorAll(selector);
		if (children.length) return children[0];
	}
	function find_group(node) {
		var parent = node.parentElement;
		if (!parent) return;
		if (parent.id == "frames") return node;
		return find_group(parent);
	}
	function orig_save(e, attr, val) {
		if (e.attributes["_orig_" + attr] != undefined) return;
		if (e.attributes[attr] == undefined) return;
		if (val == undefined) val = e.attributes[attr].value;
		e.setAttribute("_orig_" + attr, val);
	}
	function orig_load(e, attr) {
		if (e.attributes["_orig_"+attr] == undefined) return;
		e.attributes[attr].value = e.attributes["_orig_" + attr].value;
		e.removeAttribute("_orig_"+attr);
	}
	function g_to_text(e) {
		var text = find_child(e, "title").firstChild.nodeValue;
		return (text)
	}
	function g_to_func(e) {
		var func = g_to_text(e);
		// if there's any manipulation we want to do to the function
		// name before it's searched, do it here before returning.
		return (func);
	}
	function update_text(e) {
		var r = find_child(e, "rect");
		var t = find_child(e, "text");
		var w = parseFloat(r.attributes.width.value) -3;
		var txt = find_child(e, "title").textContent.replace(/\([^(]*\)$/,"");
		t.attributes.x.value = parseFloat(r.attributes.x.value) + 3;

		// Smaller than this size won't fit anything
		if (w < 2 * 13 * 0.59) {
			t.textContent = "";
			return;
		}

		t.textContent = txt;
		// Fit in full text width
		if (/^ *$/.test(txt) || t.getSubStringLength(0, txt.length) < w)
			return;

		for (var x = txt.length - 2; x > 0; x--) {
			if (t.getSubStringLength(0, x + 2) <= w) {
				t.textContent = txt.substring(0, x) + "..";
				return;
			}
		}
		t.textContent = "";
	}

	// zoom
	function zoom_reset(e) {
		if (e.attributes != undefined) {
			orig_load(e, "x");
			orig_load(e, "width");
		}
		if (e.childNodes == undefined) return;
		for (var i = 0, c = e.childNodes; i < c.length; i++) {
			zoom_reset(c[i]);
		}
	}
	function zoom_child(e, x, ratio) {
		if (e.attributes != undefined) {
			if (e.attributes.x != undefined) {
				orig_save(e, "x");
				e.attributes.x.value = (parseFloat(e.attributes.x.value) - x - 10) * ratio + 10;
				if (e.tagName == "text")
					e.attributes.x.value = find_child(e.parentNode, "rect[x]").attributes.x.value + 3;
			}
			if (e.attributes.width != undefined) {
				orig_save(e, "width");
				e.attributes.width.value = parseFloat(e.attributes.width.value) * ratio;
			}
		}

		if (e.childNodes == undefined) return;
		for (var i = 0, c = e.childNodes; i < c.length; i++) {
			zoom_child(c[i], x - 10, ratio);
		}
	}
	function zoom_parent(e) {
		if (e.attributes) {
			if (e.attributes.x != undefined) {
				orig_save(e, "x");
				e.attributes.x.value = 10;
			}
			if (e.attributes.width != undefined) {
				orig_save(e, "width");
				e.attributes.width.value = parseInt(svg.width.baseVal.value) - (10 * 2);
			}
		}
		if (e.childNodes == undefined) return;
		for (var i = 0, c = e.childNodes; i < c.length; i++) {
			zoom_parent(c[i]);
		}
	}
	function zoom(node) {
		var attr = find_child(node, "rect").attributes;
		var width = parseFloat(attr.width.value);
		var xmin = parseFloat(attr.x.value);
		var xmax = parseFloat(xmin + width);
		var ymin = parseFloat(attr.y.value);
		var ratio = (svg.width.baseVal.value - 2 * 10) / width;

		// XXX: Workaround for JavaScript float issues (fix me)
		var fudge = 0.0001;

		unzoombtn.classList.remove("hide");

		var el = document.getElementById("frames").children;
		for (var i = 0; i < el.length; i++) {
			var e = el[i];
			var a = find_child(e, "rect").attributes;
			var ex = parseFloat(a.x.value);
			var ew = parseFloat(a.width.value);
			var upstack;
			// Is it an ancestor
			if (1 == 0) {
				upstack = parseFloat(a.y.value) > ymin;
			} else {
				upstack = parseFloat(a.y.value) < ymin;
			}
			if (upstack) {
				// Direct ancestor
				if (ex <= xmin && (ex+ew+fudge) >= xmax) {
					e.classList.add("parent");
					zoom_parent(e);
					update_text(e);
				}
				// not in current path
				else
					e.classList.add("hide");
			}
			// Children maybe
			else {
				// no common path
				if (ex < xmin || ex + fudge >= xmax) {
					e.classList.add("hide");
				}
				else {
					zoom_child(e, xmin, ratio);
					update_text(e);
				}
			}
		}
		search();
	}
	function unzoom() {
		unzoombtn.classList.add("hide");
		var el = document.getElementById("frames").children;
		for(var i = 0; i < el.length; i++) {
			el[i].classList.remove("parent");
			el[i].classList.remove("hide");
			zoom_reset(el[i]);
			update_text(el[i]);
		}
		search();
	}
	function clearzoom() {
		unzoom();

		// remove zoom state
		var params = get_params();
		if (params.x) delete params.x;
		if (params.y) delete params.y;
		history.replaceState(null, null, parse_params(params));
	}

	// search
	function toggle_ignorecase() {
		ignorecase = !ignorecase;
		if (ignorecase) {
			ignorecaseBtn.classList.add("show");
		} else {
			ignorecaseBtn.classList.remove("show");
		}
		reset_search();
		search();
	}
	function reset_search() {
		var el = document.querySelectorAll("#frames rect");
		for (var i = 0; i < el.length; i++) {
			orig_load(el[i], "fill")
		}
		var params = get_params();
		delete params.s;
		history.replaceState(null, null, parse_params(params));
	}
	function search_prompt() {
		if (!searching) {
			var term = prompt("Enter a search term (regexp " +
			    "allowed, eg: ^ext4_)"
			    + (ignorecase ? ", ignoring case" : "")
			    + "\nPress Ctrl-i to toggle case sensitivity", "");
			if (term != null) search(term);
		} else {
			reset_search();
			searching = 0;
			currentSearchTerm = null;
			searchbtn.classList.remove("show");
			searchbtn.firstChild.nodeValue = "Search"
			matchedtxt.classList.add("hide");
			matchedtxt.firstChild.nodeValue = ""
		}
	}
	function search(term) {
		if (term) currentSearchTerm = term;

		var re = new RegExp(currentSearchTerm, ignorecase ? 'i' : '');
		var el = document.getElementById("frames").children;
		var matches = new Object();
		var maxwidth = 0;
		for (var i = 0; i < el.length; i++) {
			var e = el[i];
			var func = g_to_func(e);
			var rect = find_child(e, "rect");
			if (func == null || rect == null)
				continue;

			// Save max width. Only works as we have a root frame
			var w = parseFloat(rect.attributes.width.value);
			if (w > maxwidth)
				maxwidth = w;

			if (func.match(re)) {
				// highlight
				var x = parseFloat(rect.attributes.x.value);
				orig_save(rect, "fill");
				rect.attributes.fill.value = "rgb(230,0,230)";

				// remember matches
				if (matches[x] == undefined) {
					matches[x] = w;
				} else {
					if (w > matches[x]) {
						// overwrite with parent
						matches[x] = w;
					}
				}
				searching = 1;
			}
		}
		if (!searching)
			return;
		var params = get_params();
		params.s = currentSearchTerm;
		history.replaceState(null, null, parse_params(params));

		searchbtn.classList.add("show");
		searchbtn.firstChild.nodeValue = "Reset Search";

		// calculate percent matched, excluding vertical overlap
		var count = 0;
		var lastx = -1;
		var lastw = 0;
		var keys = Array();
		for (k in matches) {
			if (matches.hasOwnProperty(k))
				keys.push(k);
		}
		// sort the matched frames by their x location
		// ascending, then width descending
		keys.sort(function(a, b){
			return a - b;
		});
		// Step through frames saving only the biggest bottom-up frames
		// thanks to the sort order. This relies on the tree property
		// where children are always smaller than their parents.
		var fudge = 0.0001;	// JavaScript floating point
		for (var k in keys) {
			var x = parseFloat(keys[k]);
			var w = matches[keys[k]];
			if (x >= lastx + lastw - fudge) {
				count += w;
				lastx = x;
				lastw = w;
			}
		}
		// display matched percent
		matchedtxt.classList.remove("hide");
		var pct = 100 * count / maxwidth;
		if (pct != 100) pct = pct.toFixed(1)
		matchedtxt.firstChild.nodeValue = "Matched: " + pct + "%";
	}
]]>
</script>
<rect x="0.0" y="0" width="1200.0" height="395.0" fill="url(#background)"  />
<text id="title" x="600.00" y="26" >Firedrake example</text>
<text id="details" x="10.00" y="377" > </text>
<text id="unzoom" x="10.00" y="26" class="hide">Reset Zoom</text>
<text id="search" x="1090.00" y="26" >Search</text>
<text id="ignorecase" x="1174.00" y="26" >ic</text>
<text id="matched" x="1090.00" y="377" > </text>
<g id="frames">
<g >
<title>pyop2.global_kernel.GlobalKernel.compile (930,570 us, 0.61%)</title><rect x="515.1" y="215" width="7.2" height="15.0" fill="rgb(0,0,0)" rx="2" ry="2" />
<text  x="518.10" y="225.5" ></text>
</g>
<g >
<title>firedrake.interpolation.make_interpolator (30,185 us, 0.02%)</title><rect x="966.3" y="167" width="0.2" height="15.0" fill="rgb(0,0,0)" rx="2" ry="2" />
<text  x="969.27" y="177.5" ></text>
</g>
<g >
<title>SCForwardElim (15,326,234 us, 10.07%)</title><rect x="759.3" y="135" width="118.9" height="15.0" fill="rgb(0,0,0)" rx="2" ry="2" />
<text  x="762.32" y="145.5" >SCForwardElim</text>
</g>
<g >
<title>SNESSolve (94,994,713 us, 62.43%)</title><rect x="453.3" y="87" width="736.7" height="15.0" fill="rgb(0,0,0)" rx="2" ry="2" />
<text  x="456.29" y="97.5" >SNESSolve</text>
</g>
<g >
<title>pyop2.global_kernel.GlobalKernel.compile (1,534,490 us, 1.01%)</title><rect x="168.3" y="135" width="11.9" height="15.0" fill="rgb(0,0,0)" rx="2" ry="2" />
<text  x="171.28" y="145.5" ></text>
</g>
<g >
<title>SCSolve (11,730,393 us, 7.71%)</title><rect x="878.2" y="135" width="91.0" height="15.0" fill="rgb(0,0,0)" rx="2" ry="2" />
<text  x="881.18" y="145.5" >SCSolve</text>
</g>
<g >
<title>Parloop_ExtFacets_wrap_form0_exterior_facet_vert_integral_otherwise (1,894,718 us, 1.25%)</title><rect x="180.2" y="119" width="14.7" height="15.0" fill="rgb(0,0,0)" rx="2" ry="2" />
<text  x="183.18" y="129.5" ></text>
</g>
<g >
<title>Parloop_ExtFacets_wrap_form00_exterior_facet_vert_integral_otherwise (2,056,957 us, 1.35%)</title><rect x="348.6" y="135" width="16.0" height="15.0" fill="rgb(0,0,0)" rx="2" ry="2" />
<text  x="351.64" y="145.5" ></text>
</g>
<g >
<title>firedrake.pointquery_utils.to_reference_coordinates (419,797 us, 0.28%)</title><rect x="885.0" y="279" width="3.2" height="15.0" fill="rgb(0,0,0)" rx="2" ry="2" />
<text  x="887.99" y="289.5" ></text>
</g>
<g >
<title>Parloop_Cells_wrap_wrap_slate_loopy_knl_4 (11,446,190 us, 7.52%)</title><rect x="775.7" y="183" width="88.8" height="15.0" fill="rgb(0,0,0)" rx="2" ry="2" />
<text  x="778.72" y="193.5" >Parloop_C..</text>
</g>
<g >
<title>ParLoopExecute (7,731,587 us, 5.08%)</title><rect x="40.2" y="87" width="60.0" height="15.0" fill="rgb(0,0,0)" rx="2" ry="2" />
<text  x="43.24" y="97.5" >ParLo..</text>
</g>
<g >
<title>ParLoopExecute (5,584,231 us, 3.67%)</title><rect x="400.4" y="119" width="43.3" height="15.0" fill="rgb(0,0,0)" rx="2" ry="2" />
<text  x="403.36" y="129.5" >Par..</text>
</g>
<g >
<title>Parloop_Cells_wrap_form0_exterior_facet_top_integral_otherwise (1,320,571 us, 0.87%)</title><rect x="158.0" y="119" width="10.3" height="15.0" fill="rgb(0,0,0)" rx="2" ry="2" />
<text  x="161.03" y="129.5" ></text>
</g>
<g >
<title>firedrake.assemble_expressions.assemble_expression (824,681 us, 0.54%)</title><rect x="100.2" y="87" width="6.4" height="15.0" fill="rgb(0,0,0)" rx="2" ry="2" />
<text  x="103.20" y="97.5" ></text>
</g>
<g >
<title>firedrake.mg.embedded.TransferManager.op (1,261,583 us, 0.83%)</title><rect x="878.5" y="247" width="9.7" height="15.0" fill="rgb(0,0,0)" rx="2" ry="2" />
<text  x="881.46" y="257.5" ></text>
</g>
<g >
<title>Parloop_Cells_wrap_form0_interior_facet_horiz_integral_otherwise (1,534,490 us, 1.01%)</title><rect x="168.3" y="119" width="11.9" height="15.0" fill="rgb(0,0,0)" rx="2" ry="2" />
<text  x="171.28" y="129.5" ></text>
</g>
<g >
<title>firedrake.__init__ (1,500,645 us, 0.99%)</title><rect x="28.6" y="71" width="11.6" height="15.0" fill="rgb(0,0,0)" rx="2" ry="2" />
<text  x="31.60" y="81.5" ></text>
</g>
<g >
<title>Parloop_set_#x7f2f5c226590_wrap_expression_kernel (422,459 us, 0.28%)</title><rect x="100.2" y="135" width="3.3" height="15.0" fill="rgb(0,0,0)" rx="2" ry="2" />
<text  x="103.20" y="145.5" ></text>
</g>
<g >
<title>ParLoopExecute (12,705,165 us, 8.35%)</title><rect x="113.9" y="103" width="98.6" height="15.0" fill="rgb(0,0,0)" rx="2" ry="2" />
<text  x="116.93" y="113.5" >ParLoopExe..</text>
</g>
<g >
<title>Parloop_Cells_wrap_form00_cell_integral_otherwise (5,234,288 us, 3.44%)</title><rect x="925.7" y="183" width="40.6" height="15.0" fill="rgb(0,0,0)" rx="2" ry="2" />
<text  x="928.68" y="193.5" >Par..</text>
</g>
<g >
<title>firedrake.tsfc_interface.compile_form (2,472,206 us, 1.62%)</title><rect x="727.8" y="167" width="19.2" height="15.0" fill="rgb(0,0,0)" rx="2" ry="2" />
<text  x="730.82" y="177.5" ></text>
</g>
<g >
<title>MatMultTranspose (22,118 us, 0.01%)</title><rect x="888.2" y="231" width="0.2" height="15.0" fill="rgb(0,0,0)" rx="2" ry="2" />
<text  x="891.24" y="241.5" ></text>
</g>
<g >
<title>ParLoopExecute (678,447 us, 0.45%)</title><rect x="907.4" y="247" width="5.2" height="15.0" fill="rgb(0,0,0)" rx="2" ry="2" />
<text  x="910.38" y="257.5" ></text>
</g>
<g >
<title>pyop2.global_kernel.GlobalKernel.compile (1,633,170 us, 1.07%)</title><rect x="322.7" y="151" width="12.7" height="15.0" fill="rgb(0,0,0)" rx="2" ry="2" />
<text  x="325.72" y="161.5" ></text>
</g>
<g >
<title>pyop2.global_kernel.GlobalKernel.compile (4,389,466 us, 2.88%)</title><rect x="113.9" y="135" width="34.1" height="15.0" fill="rgb(0,0,0)" rx="2" ry="2" />
<text  x="116.93" y="145.5" >py..</text>
</g>
<g >
<title>HybridRHS (14,404,245 us, 9.47%)</title><rect x="766.5" y="151" width="111.7" height="15.0" fill="rgb(0,0,0)" rx="2" ry="2" />
<text  x="769.47" y="161.5" >HybridRHS</text>
</g>
<g >
<title>ParLoopExecute (921,989 us, 0.61%)</title><rect x="759.3" y="183" width="7.2" height="15.0" fill="rgb(0,0,0)" rx="2" ry="2" />
<text  x="762.32" y="193.5" ></text>
</g>
<g >
<title>pyop2.global_kernel.GlobalKernel.compile (5,584,231 us, 3.67%)</title><rect x="400.4" y="151" width="43.3" height="15.0" fill="rgb(0,0,0)" rx="2" ry="2" />
<text  x="403.36" y="161.5" >pyo..</text>
</g>
<g >
<title>firedrake.tsfc_interface.compile_form (1,765,841 us, 1.16%)</title><rect x="864.5" y="167" width="13.7" height="15.0" fill="rgb(0,0,0)" rx="2" ry="2" />
<text  x="867.48" y="177.5" ></text>
</g>
<g >
<title>firedrake.functionspaceimpl.FunctionSpace.__init__ (19,128 us, 0.01%)</title><rect x="28.5" y="87" width="0.1" height="15.0" fill="rgb(0,0,0)" rx="2" ry="2" />
<text  x="31.46" y="97.5" ></text>
</g>
<g >
<title>firedrake.assemble.assemble (22,977,110 us, 15.10%)</title><rect x="212.5" y="103" width="178.2" height="15.0" fill="rgb(0,0,0)" rx="2" ry="2" />
<text  x="215.47" y="113.5" >firedrake.assemble.as..</text>
</g>
<g >
<title>Parloop_Cells_wrap_form00_exterior_facet_bottom_integral_otherwise (1,969,460 us, 1.29%)</title><rect x="307.4" y="135" width="15.3" height="15.0" fill="rgb(0,0,0)" rx="2" ry="2" />
<text  x="310.44" y="145.5" ></text>
</g>
<g >
<title>firedrake.extrusion_utils.make_extruded_coords (927,825 us, 0.61%)</title><rect x="21.3" y="87" width="7.2" height="15.0" fill="rgb(0,0,0)" rx="2" ry="2" />
<text  x="24.26" y="97.5" ></text>
</g>
<g >
<title>Parloop_ExtFacets_wrap_form_exterior_facet_vert_integral_otherwise (2,041,519 us, 1.34%)</title><rect x="69.4" y="103" width="15.9" height="15.0" fill="rgb(0,0,0)" rx="2" ry="2" />
<text  x="72.43" y="113.5" ></text>
</g>
<g >
<title>ParLoopExecute (10,569,996 us, 6.95%)</title><rect x="522.3" y="151" width="82.0" height="15.0" fill="rgb(0,0,0)" rx="2" ry="2" />
<text  x="525.32" y="161.5" >ParLoopE..</text>
</g>
<g >
<title>firedrake.tsfc_interface.compile_form (1,221,570 us, 0.80%)</title><rect x="443.7" y="119" width="9.4" height="15.0" fill="rgb(0,0,0)" rx="2" ry="2" />
<text  x="446.67" y="129.5" ></text>
</g>
<g >
<title>pyop2.global_kernel.GlobalKernel.compile (2,056,957 us, 1.35%)</title><rect x="348.6" y="151" width="16.0" height="15.0" fill="rgb(0,0,0)" rx="2" ry="2" />
<text  x="351.64" y="161.5" ></text>
</g>
<g >
<title>ParLoopExecute (6,113,568 us, 4.02%)</title><rect x="1134.0" y="119" width="47.4" height="15.0" fill="rgb(0,0,0)" rx="2" ry="2" />
<text  x="1136.99" y="129.5" >ParL..</text>
</g>
<g >
<title>DMCoarsen (2,423,939 us, 1.59%)</title><rect x="888.4" y="215" width="18.8" height="15.0" fill="rgb(0,0,0)" rx="2" ry="2" />
<text  x="891.42" y="225.5" ></text>
</g>
<g >
<title>Parloop_Cells_wrap_expression_kernel (1,101,893 us, 0.72%)</title><rect x="895.2" y="327" width="8.6" height="15.0" fill="rgb(0,0,0)" rx="2" ry="2" />
<text  x="898.22" y="337.5" ></text>
</g>
<g >
<title>firedrake.parloops.par_loop (921,989 us, 0.61%)</title><rect x="759.3" y="167" width="7.2" height="15.0" fill="rgb(0,0,0)" rx="2" ry="2" />
<text  x="762.32" y="177.5" ></text>
</g>
<g >
<title>MatZeroInitial (17,276 us, 0.01%)</title><rect x="381.6" y="135" width="0.2" height="15.0" fill="rgb(0,0,0)" rx="2" ry="2" />
<text  x="384.64" y="145.5" ></text>
</g>
<g >
<title>pyop2.global_kernel.GlobalKernel.compile (5,234,288 us, 3.44%)</title><rect x="925.7" y="199" width="40.6" height="15.0" fill="rgb(0,0,0)" rx="2" ry="2" />
<text  x="928.68" y="209.5" >pyo..</text>
</g>
<g >
<title>pyop2.global_kernel.GlobalKernel.compile (1,709,435 us, 1.12%)</title><rect x="335.4" y="151" width="13.2" height="15.0" fill="rgb(0,0,0)" rx="2" ry="2" />
<text  x="338.38" y="161.5" ></text>
</g>
<g >
<title>pyop2.global_kernel.GlobalKernel.compile (16,188,298 us, 10.64%)</title><rect x="983.5" y="183" width="125.5" height="15.0" fill="rgb(0,0,0)" rx="2" ry="2" />
<text  x="986.48" y="193.5" >pyop2.global_k..</text>
</g>
<g >
<title>MatMultTranspose (1,114,487 us, 0.73%)</title><rect x="907.2" y="215" width="8.7" height="15.0" fill="rgb(0,0,0)" rx="2" ry="2" />
<text  x="910.21" y="225.5" ></text>
</g>
<g >
<title>pyop2.global_kernel.GlobalKernel.compile (552,297 us, 0.36%)</title><rect x="890.9" y="311" width="4.3" height="15.0" fill="rgb(0,0,0)" rx="2" ry="2" />
<text  x="893.93" y="321.5" ></text>
</g>
<g >
<title>Parloop_IntFacets_wrap_form0_interior_facet_vert_integral_otherwise (2,268,911 us, 1.49%)</title><rect x="194.9" y="119" width="17.6" height="15.0" fill="rgb(0,0,0)" rx="2" ry="2" />
<text  x="197.87" y="129.5" ></text>
</g>
<g >
<title>PCApply (1,319,923 us, 0.87%)</title><rect x="878.2" y="183" width="10.2" height="15.0" fill="rgb(0,0,0)" rx="2" ry="2" />
<text  x="881.18" y="193.5" ></text>
</g>
<g >
<title>PCSetUp (21,255,498 us, 13.97%)</title><rect x="969.2" y="103" width="164.8" height="15.0" fill="rgb(0,0,0)" rx="2" ry="2" />
<text  x="972.15" y="113.5" >PCSetUp</text>
</g>
<g >
<title>pyop2.global_kernel.GlobalKernel.compile (1,320,571 us, 0.87%)</title><rect x="158.0" y="135" width="10.3" height="15.0" fill="rgb(0,0,0)" rx="2" ry="2" />
<text  x="161.03" y="145.5" ></text>
</g>
<g >
<title>pyop2.global_kernel.GlobalKernel.compile (921,989 us, 0.61%)</title><rect x="759.3" y="215" width="7.2" height="15.0" fill="rgb(0,0,0)" rx="2" ry="2" />
<text  x="762.32" y="225.5" ></text>
</g>
<g >
<title>pyop2.global_kernel.GlobalKernel.compile (1,894,718 us, 1.25%)</title><rect x="180.2" y="135" width="14.7" height="15.0" fill="rgb(0,0,0)" rx="2" ry="2" />
<text  x="183.18" y="145.5" ></text>
</g>
<g >
<title>Parloop_set_#x7f2f5db1ac20_wrap_pyop2_kernel_prolong (586,556 us, 0.39%)</title><rect x="880.4" y="295" width="4.6" height="15.0" fill="rgb(0,0,0)" rx="2" ry="2" />
<text  x="883.44" y="305.5" ></text>
</g>
<g >
<title>Parloop_Cells_wrap_form1_cell_integral_otherwise (2,333,759 us, 1.53%)</title><rect x="480.9" y="167" width="18.1" height="15.0" fill="rgb(0,0,0)" rx="2" ry="2" />
<text  x="483.88" y="177.5" ></text>
</g>
<g >
<title>Log_Event_form1_cell_integral_otherwise (18,960 us, 0.01%)</title><rect x="1159.4" y="151" width="0.1" height="15.0" fill="rgb(0,0,0)" rx="2" ry="2" />
<text  x="1162.35" y="161.5" ></text>
</g>
<g >
<title>Parloop_Cells_wrap_form_cell_integral_otherwise (5,584,231 us, 3.67%)</title><rect x="400.4" y="135" width="43.3" height="15.0" fill="rgb(0,0,0)" rx="2" ry="2" />
<text  x="403.36" y="145.5" >Par..</text>
</g>
<g >
<title>Parloop_Cells_wrap_form00_cell_integral_otherwise (12,246,648 us, 8.05%)</title><rect x="212.5" y="135" width="94.9" height="15.0" fill="rgb(0,0,0)" rx="2" ry="2" />
<text  x="215.47" y="145.5" >Parloop_Ce..</text>
</g>
<g >
<title>PCSetUp (3,538,426 us, 2.33%)</title><rect x="888.4" y="183" width="27.5" height="15.0" fill="rgb(0,0,0)" rx="2" ry="2" />
<text  x="891.42" y="193.5" >P..</text>
</g>
<g >
<title>pyop2.global_kernel.GlobalKernel.compile (3,556,966 us, 2.34%)</title><rect x="453.3" y="183" width="27.6" height="15.0" fill="rgb(0,0,0)" rx="2" ry="2" />
<text  x="456.29" y="193.5" >p..</text>
</g>
<g >
<title>ParLoopExecute (930,570 us, 0.61%)</title><rect x="515.1" y="183" width="7.2" height="15.0" fill="rgb(0,0,0)" rx="2" ry="2" />
<text  x="518.10" y="193.5" ></text>
</g>
<g >
<title>pyop2.global_kernel.GlobalKernel.compile (1,101,893 us, 0.72%)</title><rect x="895.2" y="343" width="8.6" height="15.0" fill="rgb(0,0,0)" rx="2" ry="2" />
<text  x="898.22" y="353.5" ></text>
</g>
<g >
<title>pyop2.global_kernel.GlobalKernel.compile (678,447 us, 0.45%)</title><rect x="907.4" y="279" width="5.2" height="15.0" fill="rgb(0,0,0)" rx="2" ry="2" />
<text  x="910.38" y="289.5" ></text>
</g>
<g >
<title>Parloop_Cells_wrap_form0_cell_integral_otherwise (3,270,087 us, 2.15%)</title><rect x="1134.0" y="135" width="25.4" height="15.0" fill="rgb(0,0,0)" rx="2" ry="2" />
<text  x="1136.99" y="145.5" >P..</text>
</g>
<g >
<title>firedrake (152,154,889 us, 100.00%)</title><rect x="10.0" y="55" width="1180.0" height="15.0" fill="rgb(0,0,0)" rx="2" ry="2" />
<text  x="13.00" y="65.5" >firedrake</text>
</g>
<g >
<title>firedrake.matrix_free.operators.ImplicitMatrixContext.mult (6,768,776 us, 4.45%)</title><rect x="453.3" y="135" width="52.5" height="15.0" fill="rgb(0,0,0)" rx="2" ry="2" />
<text  x="456.29" y="145.5" >fire..</text>
</g>
<g >
<title>Log_Event_form0_cell_integral_otherwise (21,391 us, 0.01%)</title><rect x="1134.0" y="151" width="0.2" height="15.0" fill="rgb(0,0,0)" rx="2" ry="2" />
<text  x="1136.99" y="161.5" ></text>
</g>
<g >
<title>ParLoopExecute (1,101,893 us, 0.72%)</title><rect x="895.2" y="311" width="8.6" height="15.0" fill="rgb(0,0,0)" rx="2" ry="2" />
<text  x="898.22" y="321.5" ></text>
</g>
<g >
<title>Parloop_IntFacets_wrap_form00_interior_facet_vert_integral_otherwise (2,155,280 us, 1.42%)</title><rect x="364.6" y="135" width="16.7" height="15.0" fill="rgb(0,0,0)" rx="2" ry="2" />
<text  x="367.59" y="145.5" ></text>
</g>
<g >
<title>Parloop_Cells_wrap_form00_interior_facet_horiz_integral_otherwise (1,709,435 us, 1.12%)</title><rect x="335.4" y="135" width="13.2" height="15.0" fill="rgb(0,0,0)" rx="2" ry="2" />
<text  x="338.38" y="145.5" ></text>
</g>
<g >
<title>ParLoopExecute (11,446,190 us, 7.52%)</title><rect x="775.7" y="167" width="88.8" height="15.0" fill="rgb(0,0,0)" rx="2" ry="2" />
<text  x="778.72" y="177.5" >ParLoopEx..</text>
</g>
<g >
<title>firedrake.mg.interface.restrict (1,114,487 us, 0.73%)</title><rect x="907.2" y="231" width="8.7" height="15.0" fill="rgb(0,0,0)" rx="2" ry="2" />
<text  x="910.21" y="241.5" ></text>
</g>
<g >
<title>ParLoopExecute (6,477,909 us, 4.26%)</title><rect x="916.0" y="167" width="50.3" height="15.0" fill="rgb(0,0,0)" rx="2" ry="2" />
<text  x="919.03" y="177.5" >ParL..</text>
</g>
<g >
<title>pyop2.global_kernel.GlobalKernel.compile (2,824,521 us, 1.86%)</title><rect x="1159.5" y="151" width="21.9" height="15.0" fill="rgb(0,0,0)" rx="2" ry="2" />
<text  x="1162.50" y="161.5" ></text>
</g>
<g >
<title>Parloop_Cells_wrap_pyop2_kernel_uniform_extrusion (895,373 us, 0.59%)</title><rect x="21.5" y="119" width="7.0" height="15.0" fill="rgb(0,0,0)" rx="2" ry="2" />
<text  x="24.51" y="129.5" ></text>
</g>
<g >
<title>firedrake.tsfc_interface.compile_form (2,556,048 us, 1.68%)</title><rect x="1109.0" y="151" width="19.8" height="15.0" fill="rgb(0,0,0)" rx="2" ry="2" />
<text  x="1112.03" y="161.5" ></text>
</g>
<g >
<title>SCBackSub (32,692,012 us, 21.49%)</title><rect x="505.8" y="135" width="253.5" height="15.0" fill="rgb(0,0,0)" rx="2" ry="2" />
<text  x="508.79" y="145.5" >SCBackSub</text>
</g>
<g >
<title>firedrake.parloops.par_loop (663,185 us, 0.44%)</title><rect x="1128.8" y="135" width="5.2" height="15.0" fill="rgb(0,0,0)" rx="2" ry="2" />
<text  x="1131.85" y="145.5" ></text>
</g>
<g >
<title>firedrake.tsfc_interface.compile_form (1,108,232 us, 0.73%)</title><rect x="1181.4" y="119" width="8.6" height="15.0" fill="rgb(0,0,0)" rx="2" ry="2" />
<text  x="1184.41" y="129.5" ></text>
</g>
<g >
<title>pyop2.global_kernel.GlobalKernel.compile (663,185 us, 0.44%)</title><rect x="1128.8" y="183" width="5.2" height="15.0" fill="rgb(0,0,0)" rx="2" ry="2" />
<text  x="1131.85" y="193.5" ></text>
</g>
<g >
<title>PCApply (59,748,639 us, 39.27%)</title><rect x="505.8" y="119" width="463.4" height="15.0" fill="rgb(0,0,0)" rx="2" ry="2" />
<text  x="508.79" y="129.5" >PCApply</text>
</g>
<g >
<title>Parloop_Cells_wrap_wrap_slate_loopy_knl_7 (14,132,315 us, 9.29%)</title><rect x="618.2" y="183" width="109.6" height="15.0" fill="rgb(0,0,0)" rx="2" ry="2" />
<text  x="621.22" y="193.5" >Parloop_Cell..</text>
</g>
<g >
<title>RecoverFirstElim (18,401,377 us, 12.09%)</title><rect x="604.3" y="151" width="142.7" height="15.0" fill="rgb(0,0,0)" rx="2" ry="2" />
<text  x="607.29" y="161.5" >RecoverFirstElim</text>
</g>
<g >
<title>firedrake.projection.project (36,956,304 us, 24.29%)</title><rect x="113.8" y="87" width="286.6" height="15.0" fill="rgb(0,0,0)" rx="2" ry="2" />
<text  x="116.75" y="97.5" >firedrake.projection.project</text>
</g>
<g >
<title>Parloop_set_#x7f2f5dbaac20_wrap_expression_kernel (383,367 us, 0.25%)</title><rect x="103.5" y="135" width="3.0" height="15.0" fill="rgb(0,0,0)" rx="2" ry="2" />
<text  x="106.48" y="145.5" ></text>
</g>
<g >
<title>SNESFunctionEval (7,221,800 us, 4.75%)</title><rect x="1134.0" y="103" width="56.0" height="15.0" fill="rgb(0,0,0)" rx="2" ry="2" />
<text  x="1136.99" y="113.5" >SNESF..</text>
</g>
<g >
<title>Parloop_Cells_wrap_form1_cell_integral_otherwise (2,843,481 us, 1.87%)</title><rect x="1159.4" y="135" width="22.0" height="15.0" fill="rgb(0,0,0)" rx="2" ry="2" />
<text  x="1162.35" y="145.5" ></text>
</g>
<g >
<title>pyop2.global_kernel.GlobalKernel.compile (12,246,648 us, 8.05%)</title><rect x="212.5" y="151" width="94.9" height="15.0" fill="rgb(0,0,0)" rx="2" ry="2" />
<text  x="215.47" y="161.5" >pyop2.glob..</text>
</g>
<g >
<title>firedrake.mg.interface.restrict (22,118 us, 0.01%)</title><rect x="888.2" y="247" width="0.2" height="15.0" fill="rgb(0,0,0)" rx="2" ry="2" />
<text  x="891.24" y="257.5" ></text>
</g>
<g >
<title>firedrake.tsfc_interface.compile_form (878,051 us, 0.58%)</title><rect x="499.0" y="151" width="6.8" height="15.0" fill="rgb(0,0,0)" rx="2" ry="2" />
<text  x="501.98" y="161.5" ></text>
</g>
<g >
<title>firedrake.norms.norm (6,805,801 us, 4.47%)</title><rect x="400.4" y="87" width="52.7" height="15.0" fill="rgb(0,0,0)" rx="2" ry="2" />
<text  x="403.36" y="97.5" >fire..</text>
</g>
<g >
<title>pyop2.global_kernel.GlobalKernel.compile (1,243,713 us, 0.82%)</title><rect x="40.2" y="119" width="9.7" height="15.0" fill="rgb(0,0,0)" rx="2" ry="2" />
<text  x="43.24" y="129.5" ></text>
</g>
<g >
<title>HybridInit (21,255,498 us, 13.97%)</title><rect x="969.2" y="119" width="164.8" height="15.0" fill="rgb(0,0,0)" rx="2" ry="2" />
<text  x="972.15" y="129.5" >HybridInit</text>
</g>
<g >
<title>firedrake.pointquery_utils.to_reference_coordinates (414,688 us, 0.27%)</title><rect x="912.6" y="247" width="3.3" height="15.0" fill="rgb(0,0,0)" rx="2" ry="2" />
<text  x="915.64" y="257.5" ></text>
</g>
<g >
<title>PCSetUp (6,872,044 us, 4.52%)</title><rect x="915.9" y="151" width="53.3" height="15.0" fill="rgb(0,0,0)" rx="2" ry="2" />
<text  x="918.86" y="161.5" >PCSe..</text>
</g>
<g >
<title>PCSetUp (3,538,426 us, 2.33%)</title><rect x="888.4" y="199" width="27.5" height="15.0" fill="rgb(0,0,0)" rx="2" ry="2" />
<text  x="891.42" y="209.5" >P..</text>
</g>
<g >
<title>MatMult (1,261,583 us, 0.83%)</title><rect x="878.5" y="231" width="9.7" height="15.0" fill="rgb(0,0,0)" rx="2" ry="2" />
<text  x="881.46" y="241.5" ></text>
</g>
<g >
<title>ParLoopExecute (663,185 us, 0.44%)</title><rect x="1128.8" y="151" width="5.2" height="15.0" fill="rgb(0,0,0)" rx="2" ry="2" />
<text  x="1131.85" y="161.5" ></text>
</g>
<g >
<title>ParLoopExecute (21,770,950 us, 14.31%)</title><rect x="212.5" y="119" width="168.8" height="15.0" fill="rgb(0,0,0)" rx="2" ry="2" />
<text  x="215.47" y="129.5" >ParLoopExecute</text>
</g>
<g >
<title>firedrake.interpolation.interpolate (1,136,491 us, 0.75%)</title><rect x="895.2" y="279" width="8.8" height="15.0" fill="rgb(0,0,0)" rx="2" ry="2" />
<text  x="898.22" y="289.5" ></text>
</g>
<g >
<title>firedrake.tsfc_interface.compile_form (1,250,896 us, 0.82%)</title><rect x="390.7" y="103" width="9.7" height="15.0" fill="rgb(0,0,0)" rx="2" ry="2" />
<text  x="393.66" y="113.5" ></text>
</g>
<g >
<title>firedrake.variational_solver.NonlinearVariationalSolver.solve (94,994,713 us, 62.43%)</title><rect x="453.3" y="71" width="736.7" height="15.0" fill="rgb(0,0,0)" rx="2" ry="2" />
<text  x="456.29" y="81.5" >firedrake.variational_solver.NonlinearVariationalSolver.solve</text>
</g>
<g >
<title>CreateExtMesh (927,825 us, 0.61%)</title><rect x="21.3" y="71" width="7.2" height="15.0" fill="rgb(0,0,0)" rx="2" ry="2" />
<text  x="24.26" y="81.5" ></text>
</g>
<g >
<title>pyop2.global_kernel.GlobalKernel.compile (11,430,508 us, 7.51%)</title><rect x="775.8" y="199" width="88.7" height="15.0" fill="rgb(0,0,0)" rx="2" ry="2" />
<text  x="778.84" y="209.5" >pyop2.glo..</text>
</g>
<g >
<title>CreateFunctionSpace (19,128 us, 0.01%)</title><rect x="28.5" y="71" width="0.1" height="15.0" fill="rgb(0,0,0)" rx="2" ry="2" />
<text  x="31.46" y="81.5" ></text>
</g>
<g >
<title>pyop2.global_kernel.GlobalKernel.compile (14,110,326 us, 9.27%)</title><rect x="618.4" y="199" width="109.4" height="15.0" fill="rgb(0,0,0)" rx="2" ry="2" />
<text  x="621.40" y="209.5" >pyop2.global..</text>
</g>
<g >
<title>pyop2.global_kernel.GlobalKernel.compile (1,269,734 us, 0.83%)</title><rect x="59.6" y="119" width="9.8" height="15.0" fill="rgb(0,0,0)" rx="2" ry="2" />
<text  x="62.59" y="129.5" ></text>
</g>
<g >
<title>Parloop_Cells_wrap_wrap_slate_loopy_knl_0 (16,215,937 us, 10.66%)</title><rect x="983.3" y="167" width="125.7" height="15.0" fill="rgb(0,0,0)" rx="2" ry="2" />
<text  x="986.27" y="177.5" >Parloop_Cells_..</text>
</g>
<g >
<title>firedrake.parloops.par_loop (930,570 us, 0.61%)</title><rect x="515.1" y="167" width="7.2" height="15.0" fill="rgb(0,0,0)" rx="2" ry="2" />
<text  x="518.10" y="177.5" ></text>
</g>
<g >
<title>Parloop_set_#x7f2f5db1ac20_wrap_pyop2_kernel_inject (552,297 us, 0.36%)</title><rect x="890.9" y="295" width="4.3" height="15.0" fill="rgb(0,0,0)" rx="2" ry="2" />
<text  x="893.93" y="305.5" ></text>
</g>
<g >
<title>Parloop_Cells_wrap_form_exterior_facet_bottom_integral_otherwise (1,243,713 us, 0.82%)</title><rect x="40.2" y="103" width="9.7" height="15.0" fill="rgb(0,0,0)" rx="2" ry="2" />
<text  x="43.24" y="113.5" ></text>
</g>
<g >
<title>ParLoopExecute (805,826 us, 0.53%)</title><rect x="100.2" y="119" width="6.3" height="15.0" fill="rgb(0,0,0)" rx="2" ry="2" />
<text  x="103.20" y="129.5" ></text>
</g>
<g >
<title>Parloop_Cells_wrap_par_loop_kernel (921,989 us, 0.61%)</title><rect x="759.3" y="199" width="7.2" height="15.0" fill="rgb(0,0,0)" rx="2" ry="2" />
<text  x="762.32" y="209.5" ></text>
</g>
<g >
<title>Parloop_Cells_wrap_wrap_slate_loopy_knl_14 (10,569,996 us, 6.95%)</title><rect x="522.3" y="167" width="82.0" height="15.0" fill="rgb(0,0,0)" rx="2" ry="2" />
<text  x="525.32" y="177.5" >Parloop_..</text>
</g>
<g >
<title>ParLoopExecute (5,890,725 us, 3.87%)</title><rect x="453.3" y="151" width="45.7" height="15.0" fill="rgb(0,0,0)" rx="2" ry="2" />
<text  x="456.29" y="161.5" >Par..</text>
</g>
<g >
<title>ParLoopExecute (586,556 us, 0.39%)</title><rect x="880.4" y="279" width="4.6" height="15.0" fill="rgb(0,0,0)" rx="2" ry="2" />
<text  x="883.44" y="289.5" ></text>
</g>
<g >
<title>Parloop_Cells_wrap_form_interior_facet_horiz_integral_otherwise (1,269,734 us, 0.83%)</title><rect x="59.6" y="103" width="9.8" height="15.0" fill="rgb(0,0,0)" rx="2" ry="2" />
<text  x="62.59" y="113.5" ></text>
</g>
<g >
<title>pyop2.caching.disk_cached.&lt;locals&gt;.decorator.&lt;locals&gt;.wrapper (18,855 us, 0.01%)</title><rect x="106.5" y="119" width="0.1" height="15.0" fill="rgb(0,0,0)" rx="2" ry="2" />
<text  x="109.45" y="129.5" ></text>
</g>
<g >
<title>Parloop_Cells_wrap_form_exterior_facet_top_integral_otherwise (1,250,868 us, 0.82%)</title><rect x="49.9" y="103" width="9.7" height="15.0" fill="rgb(0,0,0)" rx="2" ry="2" />
<text  x="52.89" y="113.5" ></text>
</g>
<g >
<title>pyop2.global_kernel.GlobalKernel.compile (3,248,696 us, 2.14%)</title><rect x="1134.2" y="151" width="25.2" height="15.0" fill="rgb(0,0,0)" rx="2" ry="2" />
<text  x="1137.16" y="161.5" >p..</text>
</g>
<g >
<title>firedrake.interpolation.Interpolator.interpolate (1,101,893 us, 0.72%)</title><rect x="895.2" y="295" width="8.6" height="15.0" fill="rgb(0,0,0)" rx="2" ry="2" />
<text  x="898.22" y="305.5" ></text>
</g>
<g >
<title>pyop2.global_kernel.GlobalKernel.compile (2,041,519 us, 1.34%)</title><rect x="69.4" y="119" width="15.9" height="15.0" fill="rgb(0,0,0)" rx="2" ry="2" />
<text  x="72.43" y="129.5" ></text>
</g>
<g >
<title>pyop2.global_kernel.GlobalKernel.compile (10,553,902 us, 6.94%)</title><rect x="522.4" y="183" width="81.9" height="15.0" fill="rgb(0,0,0)" rx="2" ry="2" />
<text  x="525.44" y="193.5" >pyop2.gl..</text>
</g>
<g >
<title>firedrake.assemble.assemble (6,805,801 us, 4.47%)</title><rect x="400.4" y="103" width="52.7" height="15.0" fill="rgb(0,0,0)" rx="2" ry="2" />
<text  x="403.36" y="113.5" >fire..</text>
</g>
<g >
<title>Parloop_Cells_wrap_par_loop_kernel (930,570 us, 0.61%)</title><rect x="515.1" y="199" width="7.2" height="15.0" fill="rgb(0,0,0)" rx="2" ry="2" />
<text  x="518.10" y="209.5" ></text>
</g>
<g >
<title>ParLoopExecute (16,215,937 us, 10.66%)</title><rect x="983.3" y="151" width="125.7" height="15.0" fill="rgb(0,0,0)" rx="2" ry="2" />
<text  x="986.27" y="161.5" >ParLoopExecute</text>
</g>
<g >
<title>pyop2.global_kernel.GlobalKernel.compile (586,556 us, 0.39%)</title><rect x="880.4" y="311" width="4.6" height="15.0" fill="rgb(0,0,0)" rx="2" ry="2" />
<text  x="883.44" y="321.5" ></text>
</g>
<g >
<title>ParLoopExecute (14,132,315 us, 9.29%)</title><rect x="618.2" y="167" width="109.6" height="15.0" fill="rgb(0,0,0)" rx="2" ry="2" />
<text  x="621.22" y="177.5" >ParLoopExecute</text>
</g>
<g >
<title>firedrake.functionspacedata.FunctionSpaceData.__init__ (19,128 us, 0.01%)</title><rect x="28.5" y="119" width="0.1" height="15.0" fill="rgb(0,0,0)" rx="2" ry="2" />
<text  x="31.46" y="129.5" ></text>
</g>
<g >
<title>firedrake.variational_solver.LinearVariationalProblem.__init__ (19,491 us, 0.01%)</title><rect x="453.1" y="71" width="0.2" height="15.0" fill="rgb(0,0,0)" rx="2" ry="2" />
<text  x="456.14" y="81.5" ></text>
</g>
<g >
<title>firedrake.tsfc_interface.compile_form (922,846 us, 0.61%)</title><rect x="106.6" y="87" width="7.2" height="15.0" fill="rgb(0,0,0)" rx="2" ry="2" />
<text  x="109.60" y="97.5" ></text>
</g>
<g >
<title>firedrake.mg.interface.prolong (1,261,583 us, 0.83%)</title><rect x="878.5" y="263" width="9.7" height="15.0" fill="rgb(0,0,0)" rx="2" ry="2" />
<text  x="881.46" y="273.5" ></text>
</g>
<g >
<title>KSPSolve (4,858,349 us, 3.19%)</title><rect x="878.2" y="151" width="37.7" height="15.0" fill="rgb(0,0,0)" rx="2" ry="2" />
<text  x="881.18" y="161.5" >KS..</text>
</g>
<g >
<title>pyop2.global_kernel.GlobalKernel.compile (1,969,460 us, 1.29%)</title><rect x="307.4" y="151" width="15.3" height="15.0" fill="rgb(0,0,0)" rx="2" ry="2" />
<text  x="310.44" y="161.5" ></text>
</g>
<g >
<title>firedrake.pointquery_utils.to_reference_coordinates (410,313 us, 0.27%)</title><rect x="904.0" y="279" width="3.2" height="15.0" fill="rgb(0,0,0)" rx="2" ry="2" />
<text  x="907.03" y="289.5" ></text>
</g>
<g >
<title>CreateSparsity (43,235 us, 0.03%)</title><rect x="381.3" y="135" width="0.3" height="15.0" fill="rgb(0,0,0)" rx="2" ry="2" />
<text  x="384.30" y="145.5" ></text>
</g>
<g >
<title>firedrake.mg.embedded.TransferManager.op (2,404,415 us, 1.58%)</title><rect x="888.6" y="247" width="18.6" height="15.0" fill="rgb(0,0,0)" rx="2" ry="2" />
<text  x="891.57" y="257.5" ></text>
</g>
<g >
<title>firedrake.interpolation.make_interpolator (34,598 us, 0.02%)</title><rect x="903.8" y="295" width="0.2" height="15.0" fill="rgb(0,0,0)" rx="2" ry="2" />
<text  x="906.76" y="305.5" ></text>
</g>
<g >
<title>firedrake.tsfc_interface.compile_form (1,588,995 us, 1.04%)</title><rect x="747.0" y="151" width="12.3" height="15.0" fill="rgb(0,0,0)" rx="2" ry="2" />
<text  x="750.00" y="161.5" ></text>
</g>
<g >
<title>KSPSolve (66,517,415 us, 43.72%)</title><rect x="453.3" y="103" width="515.9" height="15.0" fill="rgb(0,0,0)" rx="2" ry="2" />
<text  x="456.29" y="113.5" >KSPSolve</text>
</g>
<g >
<title>HybridProject (930,570 us, 0.61%)</title><rect x="515.1" y="151" width="7.2" height="15.0" fill="rgb(0,0,0)" rx="2" ry="2" />
<text  x="518.10" y="161.5" ></text>
</g>
<g >
<title>ParLoopExecute (895,373 us, 0.59%)</title><rect x="21.5" y="103" width="7.0" height="15.0" fill="rgb(0,0,0)" rx="2" ry="2" />
<text  x="24.51" y="113.5" ></text>
</g>
<g >
<title>KSPSolve (1,319,923 us, 0.87%)</title><rect x="878.2" y="199" width="10.2" height="15.0" fill="rgb(0,0,0)" rx="2" ry="2" />
<text  x="881.18" y="209.5" ></text>
</g>
<g >
<title>firedrake.tsfc_interface.compile_form (1,145,649 us, 0.75%)</title><rect x="381.8" y="119" width="8.9" height="15.0" fill="rgb(0,0,0)" rx="2" ry="2" />
<text  x="384.77" y="129.5" ></text>
</g>
<g >
<title>Parloop_IntFacets_wrap_form_interior_facet_vert_integral_otherwise (1,925,753 us, 1.27%)</title><rect x="85.3" y="103" width="14.9" height="15.0" fill="rgb(0,0,0)" rx="2" ry="2" />
<text  x="88.27" y="113.5" ></text>
</g>
<g >
<title>Parloop_Cells_wrap_form0_cell_integral_otherwise (3,556,966 us, 2.34%)</title><rect x="453.3" y="167" width="27.6" height="15.0" fill="rgb(0,0,0)" rx="2" ry="2" />
<text  x="456.29" y="177.5" >P..</text>
</g>
<g >
<title>pyop2.global_kernel.GlobalKernel.compile (2,333,759 us, 1.53%)</title><rect x="480.9" y="183" width="18.1" height="15.0" fill="rgb(0,0,0)" rx="2" ry="2" />
<text  x="483.88" y="193.5" ></text>
</g>
<g >
<title>ParLoopExecute (552,297 us, 0.36%)</title><rect x="890.9" y="279" width="4.3" height="15.0" fill="rgb(0,0,0)" rx="2" ry="2" />
<text  x="893.93" y="289.5" ></text>
</g>
<g >
<title>pyop2.global_kernel.GlobalKernel.compile (895,373 us, 0.59%)</title><rect x="21.5" y="135" width="7.0" height="15.0" fill="rgb(0,0,0)" rx="2" ry="2" />
<text  x="24.51" y="145.5" ></text>
</g>
<g >
<title>PCApply (1,319,923 us, 0.87%)</title><rect x="878.2" y="215" width="10.2" height="15.0" fill="rgb(0,0,0)" rx="2" ry="2" />
<text  x="881.18" y="225.5" ></text>
</g>
<g >
<title>firedrake.function.Function.project (36,956,304 us, 24.29%)</title><rect x="113.8" y="71" width="286.6" height="15.0" fill="rgb(0,0,0)" rx="2" ry="2" />
<text  x="116.75" y="81.5" >firedrake.function.Function.project</text>
</g>
<g >
<title>pyop2.global_kernel.GlobalKernel.compile (2,155,280 us, 1.42%)</title><rect x="364.6" y="151" width="16.7" height="15.0" fill="rgb(0,0,0)" rx="2" ry="2" />
<text  x="367.59" y="161.5" ></text>
</g>
<g >
<title>MatMult (6,768,776 us, 4.45%)</title><rect x="453.3" y="119" width="52.5" height="15.0" fill="rgb(0,0,0)" rx="2" ry="2" />
<text  x="456.29" y="129.5" >MatM..</text>
</g>
<g >
<title>firedrake.tsfc_interface.compile_form (341,121 us, 0.22%)</title><rect x="966.5" y="167" width="2.7" height="15.0" fill="rgb(0,0,0)" rx="2" ry="2" />
<text  x="969.51" y="177.5" ></text>
</g>
<g >
<title>firedrake.norms.errornorm (6,805,801 us, 4.47%)</title><rect x="400.4" y="71" width="52.7" height="15.0" fill="rgb(0,0,0)" rx="2" ry="2" />
<text  x="403.36" y="81.5" >fire..</text>
</g>
<g >
<title>HybridOperatorAssembly (20,522,572 us, 13.49%)</title><rect x="969.7" y="135" width="159.1" height="15.0" fill="rgb(0,0,0)" rx="2" ry="2" />
<text  x="972.69" y="145.5" >HybridOperatorAsse..</text>
</g>
<g >
<title>Parloop_Cells_wrap_form0_cell_integral_otherwise (4,389,466 us, 2.88%)</title><rect x="113.9" y="119" width="34.1" height="15.0" fill="rgb(0,0,0)" rx="2" ry="2" />
<text  x="116.93" y="129.5" >Pa..</text>
</g>
<g >
<title>firedrake.assemble.assemble (9,479,114 us, 6.23%)</title><rect x="40.2" y="71" width="73.6" height="15.0" fill="rgb(0,0,0)" rx="2" ry="2" />
<text  x="43.24" y="81.5" >firedra..</text>
</g>
<g >
<title>Parloop_Cells_wrap_par_loop_kernel (663,185 us, 0.44%)</title><rect x="1128.8" y="167" width="5.2" height="15.0" fill="rgb(0,0,0)" rx="2" ry="2" />
<text  x="1131.85" y="177.5" ></text>
</g>
<g >
<title>pyop2.global_kernel.GlobalKernel.compile (383,367 us, 0.25%)</title><rect x="103.5" y="151" width="3.0" height="15.0" fill="rgb(0,0,0)" rx="2" ry="2" />
<text  x="106.48" y="161.5" ></text>
</g>
<g >
<title>pyop2.global_kernel.GlobalKernel.compile (1,250,868 us, 0.82%)</title><rect x="49.9" y="119" width="9.7" height="15.0" fill="rgb(0,0,0)" rx="2" ry="2" />
<text  x="52.89" y="129.5" ></text>
</g>
<g >
<title>HybridBreak (921,989 us, 0.61%)</title><rect x="759.3" y="151" width="7.2" height="15.0" fill="rgb(0,0,0)" rx="2" ry="2" />
<text  x="762.32" y="161.5" ></text>
</g>
<g >
<title>PCApply (4,858,349 us, 3.19%)</title><rect x="878.2" y="167" width="37.7" height="15.0" fill="rgb(0,0,0)" rx="2" ry="2" />
<text  x="881.18" y="177.5" >PC..</text>
</g>
<g >
<title>firedrake.functionspacedata.get_shared_data (19,128 us, 0.01%)</title><rect x="28.5" y="103" width="0.1" height="15.0" fill="rgb(0,0,0)" rx="2" ry="2" />
<text  x="31.46" y="113.5" ></text>
</g>
<g >
<title>Parloop_Cells_wrap_form00_exterior_facet_top_integral_otherwise (1,633,170 us, 1.07%)</title><rect x="322.7" y="135" width="12.7" height="15.0" fill="rgb(0,0,0)" rx="2" ry="2" />
<text  x="325.72" y="145.5" ></text>
</g>
<g >
<title>firedrake.mg.interface.inject (2,404,415 us, 1.58%)</title><rect x="888.6" y="263" width="18.6" height="15.0" fill="rgb(0,0,0)" rx="2" ry="2" />
<text  x="891.57" y="273.5" ></text>
</g>
<g >
<title>pyop2.global_kernel.GlobalKernel.compile (1,297,009 us, 0.85%)</title><rect x="148.0" y="135" width="10.0" height="15.0" fill="rgb(0,0,0)" rx="2" ry="2" />
<text  x="150.98" y="145.5" ></text>
</g>
<g >
<title>pyop2.global_kernel.GlobalKernel.compile (2,268,911 us, 1.49%)</title><rect x="194.9" y="135" width="17.6" height="15.0" fill="rgb(0,0,0)" rx="2" ry="2" />
<text  x="197.87" y="145.5" ></text>
</g>
<g >
<title>firedrake.dmhooks.coarsen (2,423,939 us, 1.59%)</title><rect x="888.4" y="231" width="18.8" height="15.0" fill="rgb(0,0,0)" rx="2" ry="2" />
<text  x="891.42" y="241.5" ></text>
</g>
<g >
<title>firedrake.assemble_expressions.evaluate_expression (824,681 us, 0.54%)</title><rect x="100.2" y="103" width="6.4" height="15.0" fill="rgb(0,0,0)" rx="2" ry="2" />
<text  x="103.20" y="113.5" ></text>
</g>
<g >
<title>pyop2.global_kernel.GlobalKernel.compile (1,243,621 us, 0.82%)</title><rect x="916.0" y="199" width="9.7" height="15.0" fill="rgb(0,0,0)" rx="2" ry="2" />
<text  x="919.03" y="209.5" ></text>
</g>
<g >
<title>all (152,154,889 us, 100%)</title><rect x="10.0" y="39" width="1180.0" height="15.0" fill="rgb(0,0,0)" rx="2" ry="2" />
<text  x="13.00" y="49.5" ></text>
</g>
<g >
<title>Parloop_set_#x7f2f5db58f70_wrap_pyop2_kernel_restrict (678,447 us, 0.45%)</title><rect x="907.4" y="263" width="5.2" height="15.0" fill="rgb(0,0,0)" rx="2" ry="2" />
<text  x="910.38" y="273.5" ></text>
</g>
<g >
<title>firedrake.assemble.allocate_matrix (60,511 us, 0.04%)</title><rect x="381.3" y="119" width="0.5" height="15.0" fill="rgb(0,0,0)" rx="2" ry="2" />
<text  x="384.30" y="129.5" ></text>
</g>
<g >
<title>Parloop_Cells_wrap_expression_kernel (1,243,621 us, 0.82%)</title><rect x="916.0" y="183" width="9.7" height="15.0" fill="rgb(0,0,0)" rx="2" ry="2" />
<text  x="919.03" y="193.5" ></text>
</g>
<g >
<title>pyop2.global_kernel.GlobalKernel.compile (1,925,753 us, 1.27%)</title><rect x="85.3" y="119" width="14.9" height="15.0" fill="rgb(0,0,0)" rx="2" ry="2" />
<text  x="88.27" y="129.5" ></text>
</g>
<g >
<title>Parloop_Cells_wrap_form0_exterior_facet_bottom_integral_otherwise (1,297,009 us, 0.85%)</title><rect x="148.0" y="119" width="10.0" height="15.0" fill="rgb(0,0,0)" rx="2" ry="2" />
<text  x="150.98" y="129.5" ></text>
</g>
<g >
<title>pyop2.global_kernel.GlobalKernel.compile (422,459 us, 0.28%)</title><rect x="100.2" y="151" width="3.3" height="15.0" fill="rgb(0,0,0)" rx="2" ry="2" />
<text  x="103.20" y="161.5" ></text>
</g>
<g >
<title>KSPSolve (20,497 us, 0.01%)</title><rect x="878.3" y="231" width="0.2" height="15.0" fill="rgb(0,0,0)" rx="2" ry="2" />
<text  x="881.30" y="241.5" ></text>
</g>
</g>
</svg>
