<?xml version="1.0" standalone="no"?>
<!DOCTYPE svg PUBLIC "-//W3C//DTD SVG 1.1//EN" "http://www.w3.org/Graphics/SVG/1.1/DTD/svg11.dtd">
<svg version="1.1" width="1200" height="395" onload="init(evt)" viewBox="0 0 1200 395" xmlns="http://www.w3.org/2000/svg" xmlns:xlink="http://www.w3.org/1999/xlink">
<!-- Flame graph stack visualization. See https://github.com/brendangregg/FlameGraph for latest version, and http://www.brendangregg.com/flamegraphs.html for examples. -->
<!-- NOTES:  -->
<defs>
	<linearGradient id="background" y1="0" y2="1" x1="0" x2="0" >
		<stop stop-color="#eeeeee" offset="5%" />
		<stop stop-color="#eeeeb0" offset="95%" />
	</linearGradient>
</defs>
<style type="text/css">
	text { font-family:Verdana; font-size:13px; fill:rgb(0,0,0); }
	#search, #ignorecase { opacity:0.1; cursor:pointer; }
	#search:hover, #search.show, #ignorecase:hover, #ignorecase.show { opacity:1; }
	#subtitle { text-anchor:middle; font-color:rgb(160,160,160); }
	#title { text-anchor:middle; font-size:18px}
	#unzoom { cursor:pointer; }
	#frames > *:hover { stroke:black; stroke-width:0.5; cursor:pointer; }
	.hide { display:none; }
	.parent { opacity:0.5; }
</style>
<script type="text/ecmascript">
<![CDATA[
	"use strict";
	var details, searchbtn, unzoombtn, matchedtxt, svg, searching, currentSearchTerm, ignorecase, ignorecaseBtn;
	function init(evt) {
		details = document.getElementById("details").firstChild;
		searchbtn = document.getElementById("search");
		ignorecaseBtn = document.getElementById("ignorecase");
		unzoombtn = document.getElementById("unzoom");
		matchedtxt = document.getElementById("matched");
		svg = document.getElementsByTagName("svg")[0];
		searching = 0;
		currentSearchTerm = null;

		// use GET parameters to restore a flamegraphs state.
		var params = get_params();
		if (params.x && params.y)
			zoom(find_group(document.querySelector('[x="' + params.x + '"][y="' + params.y + '"]')));
                if (params.s) search(params.s);
	}

	// event listeners
	window.addEventListener("click", function(e) {
		var target = find_group(e.target);
		if (target) {
			if (target.nodeName == "a") {
				if (e.ctrlKey === false) return;
				e.preventDefault();
			}
			if (target.classList.contains("parent")) unzoom();
			zoom(target);
			if (!document.querySelector('.parent')) {
				clearzoom();
				return;
			}

			// set parameters for zoom state
			var el = target.querySelector("rect");
			if (el && el.attributes && el.attributes.y && el.attributes._orig_x) {
				var params = get_params()
				params.x = el.attributes._orig_x.value;
				params.y = el.attributes.y.value;
				history.replaceState(null, null, parse_params(params));
			}
		}
		else if (e.target.id == "unzoom") clearzoom();
		else if (e.target.id == "search") search_prompt();
		else if (e.target.id == "ignorecase") toggle_ignorecase();
	}, false)

	// mouse-over for info
	// show
	window.addEventListener("mouseover", function(e) {
		var target = find_group(e.target);
		if (target) details.nodeValue = "Function: " + g_to_text(target);
	}, false)

	// clear
	window.addEventListener("mouseout", function(e) {
		var target = find_group(e.target);
		if (target) details.nodeValue = ' ';
	}, false)

	// ctrl-F for search
	// ctrl-I to toggle case-sensitive search
	window.addEventListener("keydown",function (e) {
		if (e.keyCode === 114 || (e.ctrlKey && e.keyCode === 70)) {
			e.preventDefault();
			search_prompt();
		}
		else if (e.ctrlKey && e.keyCode === 73) {
			e.preventDefault();
			toggle_ignorecase();
		}
	}, false)

	// functions
	function get_params() {
		var params = {};
		var paramsarr = window.location.search.substr(1).split('&');
		for (var i = 0; i < paramsarr.length; ++i) {
			var tmp = paramsarr[i].split("=");
			if (!tmp[0] || !tmp[1]) continue;
			params[tmp[0]]  = decodeURIComponent(tmp[1]);
		}
		return params;
	}
	function parse_params(params) {
		var uri = "?";
		for (var key in params) {
			uri += key + '=' + encodeURIComponent(params[key]) + '&';
		}
		if (uri.slice(-1) == "&")
			uri = uri.substring(0, uri.length - 1);
		if (uri == '?')
			uri = window.location.href.split('?')[0];
		return uri;
	}
	function find_child(node, selector) {
		var children = node.querySelectorAll(selector);
		if (children.length) return children[0];
	}
	function find_group(node) {
		var parent = node.parentElement;
		if (!parent) return;
		if (parent.id == "frames") return node;
		return find_group(parent);
	}
	function orig_save(e, attr, val) {
		if (e.attributes["_orig_" + attr] != undefined) return;
		if (e.attributes[attr] == undefined) return;
		if (val == undefined) val = e.attributes[attr].value;
		e.setAttribute("_orig_" + attr, val);
	}
	function orig_load(e, attr) {
		if (e.attributes["_orig_"+attr] == undefined) return;
		e.attributes[attr].value = e.attributes["_orig_" + attr].value;
		e.removeAttribute("_orig_"+attr);
	}
	function g_to_text(e) {
		var text = find_child(e, "title").firstChild.nodeValue;
		return (text)
	}
	function g_to_func(e) {
		var func = g_to_text(e);
		// if there's any manipulation we want to do to the function
		// name before it's searched, do it here before returning.
		return (func);
	}
	function update_text(e) {
		var r = find_child(e, "rect");
		var t = find_child(e, "text");
		var w = parseFloat(r.attributes.width.value) -3;
		var txt = find_child(e, "title").textContent.replace(/\([^(]*\)$/,"");
		t.attributes.x.value = parseFloat(r.attributes.x.value) + 3;

		// Smaller than this size won't fit anything
		if (w < 2 * 13 * 0.59) {
			t.textContent = "";
			return;
		}

		t.textContent = txt;
		// Fit in full text width
		if (/^ *$/.test(txt) || t.getSubStringLength(0, txt.length) < w)
			return;

		for (var x = txt.length - 2; x > 0; x--) {
			if (t.getSubStringLength(0, x + 2) <= w) {
				t.textContent = txt.substring(0, x) + "..";
				return;
			}
		}
		t.textContent = "";
	}

	// zoom
	function zoom_reset(e) {
		if (e.attributes != undefined) {
			orig_load(e, "x");
			orig_load(e, "width");
		}
		if (e.childNodes == undefined) return;
		for (var i = 0, c = e.childNodes; i < c.length; i++) {
			zoom_reset(c[i]);
		}
	}
	function zoom_child(e, x, ratio) {
		if (e.attributes != undefined) {
			if (e.attributes.x != undefined) {
				orig_save(e, "x");
				e.attributes.x.value = (parseFloat(e.attributes.x.value) - x - 10) * ratio + 10;
				if (e.tagName == "text")
					e.attributes.x.value = find_child(e.parentNode, "rect[x]").attributes.x.value + 3;
			}
			if (e.attributes.width != undefined) {
				orig_save(e, "width");
				e.attributes.width.value = parseFloat(e.attributes.width.value) * ratio;
			}
		}

		if (e.childNodes == undefined) return;
		for (var i = 0, c = e.childNodes; i < c.length; i++) {
			zoom_child(c[i], x - 10, ratio);
		}
	}
	function zoom_parent(e) {
		if (e.attributes) {
			if (e.attributes.x != undefined) {
				orig_save(e, "x");
				e.attributes.x.value = 10;
			}
			if (e.attributes.width != undefined) {
				orig_save(e, "width");
				e.attributes.width.value = parseInt(svg.width.baseVal.value) - (10 * 2);
			}
		}
		if (e.childNodes == undefined) return;
		for (var i = 0, c = e.childNodes; i < c.length; i++) {
			zoom_parent(c[i]);
		}
	}
	function zoom(node) {
		var attr = find_child(node, "rect").attributes;
		var width = parseFloat(attr.width.value);
		var xmin = parseFloat(attr.x.value);
		var xmax = parseFloat(xmin + width);
		var ymin = parseFloat(attr.y.value);
		var ratio = (svg.width.baseVal.value - 2 * 10) / width;

		// XXX: Workaround for JavaScript float issues (fix me)
		var fudge = 0.0001;

		unzoombtn.classList.remove("hide");

		var el = document.getElementById("frames").children;
		for (var i = 0; i < el.length; i++) {
			var e = el[i];
			var a = find_child(e, "rect").attributes;
			var ex = parseFloat(a.x.value);
			var ew = parseFloat(a.width.value);
			var upstack;
			// Is it an ancestor
			if (1 == 0) {
				upstack = parseFloat(a.y.value) > ymin;
			} else {
				upstack = parseFloat(a.y.value) < ymin;
			}
			if (upstack) {
				// Direct ancestor
				if (ex <= xmin && (ex+ew+fudge) >= xmax) {
					e.classList.add("parent");
					zoom_parent(e);
					update_text(e);
				}
				// not in current path
				else
					e.classList.add("hide");
			}
			// Children maybe
			else {
				// no common path
				if (ex < xmin || ex + fudge >= xmax) {
					e.classList.add("hide");
				}
				else {
					zoom_child(e, xmin, ratio);
					update_text(e);
				}
			}
		}
		search();
	}
	function unzoom() {
		unzoombtn.classList.add("hide");
		var el = document.getElementById("frames").children;
		for(var i = 0; i < el.length; i++) {
			el[i].classList.remove("parent");
			el[i].classList.remove("hide");
			zoom_reset(el[i]);
			update_text(el[i]);
		}
		search();
	}
	function clearzoom() {
		unzoom();

		// remove zoom state
		var params = get_params();
		if (params.x) delete params.x;
		if (params.y) delete params.y;
		history.replaceState(null, null, parse_params(params));
	}

	// search
	function toggle_ignorecase() {
		ignorecase = !ignorecase;
		if (ignorecase) {
			ignorecaseBtn.classList.add("show");
		} else {
			ignorecaseBtn.classList.remove("show");
		}
		reset_search();
		search();
	}
	function reset_search() {
		var el = document.querySelectorAll("#frames rect");
		for (var i = 0; i < el.length; i++) {
			orig_load(el[i], "fill")
		}
		var params = get_params();
		delete params.s;
		history.replaceState(null, null, parse_params(params));
	}
	function search_prompt() {
		if (!searching) {
			var term = prompt("Enter a search term (regexp " +
			    "allowed, eg: ^ext4_)"
			    + (ignorecase ? ", ignoring case" : "")
			    + "\nPress Ctrl-i to toggle case sensitivity", "");
			if (term != null) search(term);
		} else {
			reset_search();
			searching = 0;
			currentSearchTerm = null;
			searchbtn.classList.remove("show");
			searchbtn.firstChild.nodeValue = "Search"
			matchedtxt.classList.add("hide");
			matchedtxt.firstChild.nodeValue = ""
		}
	}
	function search(term) {
		if (term) currentSearchTerm = term;

		var re = new RegExp(currentSearchTerm, ignorecase ? 'i' : '');
		var el = document.getElementById("frames").children;
		var matches = new Object();
		var maxwidth = 0;
		for (var i = 0; i < el.length; i++) {
			var e = el[i];
			var func = g_to_func(e);
			var rect = find_child(e, "rect");
			if (func == null || rect == null)
				continue;

			// Save max width. Only works as we have a root frame
			var w = parseFloat(rect.attributes.width.value);
			if (w > maxwidth)
				maxwidth = w;

			if (func.match(re)) {
				// highlight
				var x = parseFloat(rect.attributes.x.value);
				orig_save(rect, "fill");
				rect.attributes.fill.value = "rgb(230,0,230)";

				// remember matches
				if (matches[x] == undefined) {
					matches[x] = w;
				} else {
					if (w > matches[x]) {
						// overwrite with parent
						matches[x] = w;
					}
				}
				searching = 1;
			}
		}
		if (!searching)
			return;
		var params = get_params();
		params.s = currentSearchTerm;
		history.replaceState(null, null, parse_params(params));

		searchbtn.classList.add("show");
		searchbtn.firstChild.nodeValue = "Reset Search";

		// calculate percent matched, excluding vertical overlap
		var count = 0;
		var lastx = -1;
		var lastw = 0;
		var keys = Array();
		for (k in matches) {
			if (matches.hasOwnProperty(k))
				keys.push(k);
		}
		// sort the matched frames by their x location
		// ascending, then width descending
		keys.sort(function(a, b){
			return a - b;
		});
		// Step through frames saving only the biggest bottom-up frames
		// thanks to the sort order. This relies on the tree property
		// where children are always smaller than their parents.
		var fudge = 0.0001;	// JavaScript floating point
		for (var k in keys) {
			var x = parseFloat(keys[k]);
			var w = matches[keys[k]];
			if (x >= lastx + lastw - fudge) {
				count += w;
				lastx = x;
				lastw = w;
			}
		}
		// display matched percent
		matchedtxt.classList.remove("hide");
		var pct = 100 * count / maxwidth;
		if (pct != 100) pct = pct.toFixed(1)
		matchedtxt.firstChild.nodeValue = "Matched: " + pct + "%";
	}
]]>
</script>
<rect x="0.0" y="0" width="1200.0" height="395.0" fill="url(#background)"  />
<text id="title" x="600.00" y="26" >Firedrake example</text>
<text id="details" x="10.00" y="377" > </text>
<text id="unzoom" x="10.00" y="26" class="hide">Reset Zoom</text>
<text id="search" x="1090.00" y="26" >Search</text>
<text id="ignorecase" x="1174.00" y="26" >ic</text>
<text id="matched" x="1090.00" y="377" > </text>
<g id="frames">
<g >
<title>pyop2.global_kernel.GlobalKernel.compile (928,473 us, 0.62%)</title><rect x="511.0" y="215" width="7.2" height="15.0" fill="rgb(0,0,0)" rx="2" ry="2" />
<text  x="513.95" y="225.5" ></text>
</g>
<g >
<title>pyop2.global_kernel.GlobalKernel.compile (366,757 us, 0.24%)</title><rect x="98.5" y="151" width="2.9" height="15.0" fill="rgb(0,0,0)" rx="2" ry="2" />
<text  x="101.48" y="161.5" ></text>
</g>
<g >
<title>Parloop_Cells_wrap_form1_cell_integral_otherwise (2,819,285 us, 1.87%)</title><rect x="1159.2" y="135" width="22.0" height="15.0" fill="rgb(0,0,0)" rx="2" ry="2" />
<text  x="1162.18" y="145.5" ></text>
</g>
<g >
<title>Parloop_Cells_wrap_wrap_slate_loopy_knl_0 (16,218,975 us, 10.75%)</title><rect x="981.3" y="167" width="126.9" height="15.0" fill="rgb(0,0,0)" rx="2" ry="2" />
<text  x="984.34" y="177.5" >Parloop_Cells_..</text>
</g>
<g >
<title>firedrake.mg.embedded.TransferManager.op (1,306,080 us, 0.87%)</title><rect x="876.1" y="247" width="10.2" height="15.0" fill="rgb(0,0,0)" rx="2" ry="2" />
<text  x="879.10" y="257.5" ></text>
</g>
<g >
<title>MatMultTranspose (1,144,117 us, 0.76%)</title><rect x="905.3" y="215" width="9.0" height="15.0" fill="rgb(0,0,0)" rx="2" ry="2" />
<text  x="908.32" y="225.5" ></text>
</g>
<g >
<title>pyop2.global_kernel.GlobalKernel.compile (3,230,597 us, 2.14%)</title><rect x="1133.9" y="151" width="25.3" height="15.0" fill="rgb(0,0,0)" rx="2" ry="2" />
<text  x="1136.90" y="161.5" >p..</text>
</g>
<g >
<title>firedrake.tsfc_interface.compile_form (888,632 us, 0.59%)</title><rect x="494.7" y="151" width="7.0" height="15.0" fill="rgb(0,0,0)" rx="2" ry="2" />
<text  x="497.71" y="161.5" ></text>
</g>
<g >
<title>firedrake.pointquery_utils.to_reference_coordinates (429,206 us, 0.28%)</title><rect x="902.0" y="279" width="3.3" height="15.0" fill="rgb(0,0,0)" rx="2" ry="2" />
<text  x="904.96" y="289.5" ></text>
</g>
<g >
<title>firedrake.tsfc_interface.compile_form (1,120,128 us, 0.74%)</title><rect x="1181.2" y="119" width="8.8" height="15.0" fill="rgb(0,0,0)" rx="2" ry="2" />
<text  x="1184.24" y="129.5" ></text>
</g>
<g >
<title>firedrake.matrix_free.operators.ImplicitMatrixContext.mult (6,686,583 us, 4.43%)</title><rect x="449.4" y="135" width="52.3" height="15.0" fill="rgb(0,0,0)" rx="2" ry="2" />
<text  x="452.35" y="145.5" >fire..</text>
</g>
<g >
<title>pyop2.global_kernel.GlobalKernel.compile (3,511,992 us, 2.33%)</title><rect x="449.4" y="183" width="27.4" height="15.0" fill="rgb(0,0,0)" rx="2" ry="2" />
<text  x="452.35" y="193.5" >p..</text>
</g>
<g >
<title>SCSolve (11,709,095 us, 7.76%)</title><rect x="875.8" y="135" width="91.6" height="15.0" fill="rgb(0,0,0)" rx="2" ry="2" />
<text  x="878.81" y="145.5" >SCSolve</text>
</g>
<g >
<title>MatMultTranspose (22,709 us, 0.02%)</title><rect x="886.3" y="231" width="0.2" height="15.0" fill="rgb(0,0,0)" rx="2" ry="2" />
<text  x="889.32" y="241.5" ></text>
</g>
<g >
<title>firedrake.function.Function.project (36,365,636 us, 24.11%)</title><rect x="111.8" y="71" width="284.5" height="15.0" fill="rgb(0,0,0)" rx="2" ry="2" />
<text  x="114.82" y="81.5" >firedrake.function.Function.project</text>
</g>
<g >
<title>firedrake.parloops.par_loop (928,473 us, 0.62%)</title><rect x="511.0" y="167" width="7.2" height="15.0" fill="rgb(0,0,0)" rx="2" ry="2" />
<text  x="513.95" y="177.5" ></text>
</g>
<g >
<title>firedrake.assemble.allocate_matrix (60,311 us, 0.04%)</title><rect x="376.8" y="119" width="0.5" height="15.0" fill="rgb(0,0,0)" rx="2" ry="2" />
<text  x="379.84" y="129.5" ></text>
</g>
<g >
<title>ParLoopExecute (21,030,391 us, 13.94%)</title><rect x="212.3" y="119" width="164.5" height="15.0" fill="rgb(0,0,0)" rx="2" ry="2" />
<text  x="215.29" y="129.5" >ParLoopExecute</text>
</g>
<g >
<title>Parloop_ExtFacets_wrap_form_exterior_facet_vert_integral_otherwise (1,844,765 us, 1.22%)</title><rect x="69.0" y="103" width="14.4" height="15.0" fill="rgb(0,0,0)" rx="2" ry="2" />
<text  x="72.00" y="113.5" ></text>
</g>
<g >
<title>ParLoopExecute (545,093 us, 0.36%)</title><rect x="889.1" y="279" width="4.3" height="15.0" fill="rgb(0,0,0)" rx="2" ry="2" />
<text  x="892.09" y="289.5" ></text>
</g>
<g >
<title>firedrake.functionspacedata.FunctionSpaceData.__init__ (20,424 us, 0.01%)</title><rect x="25.6" y="119" width="0.2" height="15.0" fill="rgb(0,0,0)" rx="2" ry="2" />
<text  x="28.64" y="129.5" ></text>
</g>
<g >
<title>HybridBreak (1,016,073 us, 0.67%)</title><rect x="755.6" y="151" width="7.9" height="15.0" fill="rgb(0,0,0)" rx="2" ry="2" />
<text  x="758.56" y="161.5" ></text>
</g>
<g >
<title>firedrake.assemble_expressions.evaluate_expression (778,631 us, 0.52%)</title><rect x="98.5" y="103" width="6.1" height="15.0" fill="rgb(0,0,0)" rx="2" ry="2" />
<text  x="101.48" y="113.5" ></text>
</g>
<g >
<title>CreateFunctionSpace (20,424 us, 0.01%)</title><rect x="25.6" y="71" width="0.2" height="15.0" fill="rgb(0,0,0)" rx="2" ry="2" />
<text  x="28.64" y="81.5" ></text>
</g>
<g >
<title>KSPSolve (20,344 us, 0.01%)</title><rect x="875.9" y="231" width="0.2" height="15.0" fill="rgb(0,0,0)" rx="2" ry="2" />
<text  x="878.94" y="241.5" ></text>
</g>
<g >
<title>Parloop_Cells_wrap_par_loop_kernel (928,473 us, 0.62%)</title><rect x="511.0" y="199" width="7.2" height="15.0" fill="rgb(0,0,0)" rx="2" ry="2" />
<text  x="513.95" y="209.5" ></text>
</g>
<g >
<title>MatMult (6,686,583 us, 4.43%)</title><rect x="449.4" y="119" width="52.3" height="15.0" fill="rgb(0,0,0)" rx="2" ry="2" />
<text  x="452.35" y="129.5" >MatM..</text>
</g>
<g >
<title>Parloop_Cells_wrap_form0_exterior_facet_bottom_integral_otherwise (1,275,646 us, 0.85%)</title><rect x="148.6" y="119" width="10.0" height="15.0" fill="rgb(0,0,0)" rx="2" ry="2" />
<text  x="151.63" y="129.5" ></text>
</g>
<g >
<title>firedrake.variational_solver.NonlinearVariationalSolver.solve (94,662,192 us, 62.77%)</title><rect x="449.4" y="71" width="740.6" height="15.0" fill="rgb(0,0,0)" rx="2" ry="2" />
<text  x="452.35" y="81.5" >firedrake.variational_solver.NonlinearVariationalSolver.solve</text>
</g>
<g >
<title>firedrake.interpolation.make_interpolator (34,780 us, 0.02%)</title><rect x="901.7" y="295" width="0.3" height="15.0" fill="rgb(0,0,0)" rx="2" ry="2" />
<text  x="904.69" y="305.5" ></text>
</g>
<g >
<title>Parloop_Cells_wrap_form00_exterior_facet_bottom_integral_otherwise (1,574,429 us, 1.04%)</title><rect x="306.4" y="135" width="12.3" height="15.0" fill="rgb(0,0,0)" rx="2" ry="2" />
<text  x="309.41" y="145.5" ></text>
</g>
<g >
<title>firedrake.functionspacedata.get_shared_data (20,424 us, 0.01%)</title><rect x="25.6" y="103" width="0.2" height="15.0" fill="rgb(0,0,0)" rx="2" ry="2" />
<text  x="28.64" y="113.5" ></text>
</g>
<g >
<title>pyop2.global_kernel.GlobalKernel.compile (2,069,192 us, 1.37%)</title><rect x="344.0" y="151" width="16.2" height="15.0" fill="rgb(0,0,0)" rx="2" ry="2" />
<text  x="346.97" y="161.5" ></text>
</g>
<g >
<title>ParLoopExecute (928,473 us, 0.62%)</title><rect x="511.0" y="183" width="7.2" height="15.0" fill="rgb(0,0,0)" rx="2" ry="2" />
<text  x="513.95" y="193.5" ></text>
</g>
<g >
<title>pyop2.global_kernel.GlobalKernel.compile (392,791 us, 0.26%)</title><rect x="101.4" y="151" width="3.0" height="15.0" fill="rgb(0,0,0)" rx="2" ry="2" />
<text  x="104.35" y="161.5" ></text>
</g>
<g >
<title>pyop2.global_kernel.GlobalKernel.compile (595,677 us, 0.39%)</title><rect x="878.2" y="311" width="4.7" height="15.0" fill="rgb(0,0,0)" rx="2" ry="2" />
<text  x="881.21" y="321.5" ></text>
</g>
<g >
<title>Parloop_set_#x7f48c9f21a80_wrap_expression_kernel (392,791 us, 0.26%)</title><rect x="101.4" y="135" width="3.0" height="15.0" fill="rgb(0,0,0)" rx="2" ry="2" />
<text  x="104.35" y="145.5" ></text>
</g>
<g >
<title>pyop2.global_kernel.GlobalKernel.compile (1,065,222 us, 0.71%)</title><rect x="893.4" y="343" width="8.3" height="15.0" fill="rgb(0,0,0)" rx="2" ry="2" />
<text  x="896.35" y="353.5" ></text>
</g>
<g >
<title>ParLoopExecute (7,774,059 us, 5.15%)</title><rect x="37.7" y="87" width="60.8" height="15.0" fill="rgb(0,0,0)" rx="2" ry="2" />
<text  x="40.66" y="97.5" >ParLo..</text>
</g>
<g >
<title>Parloop_Cells_wrap_form_cell_integral_otherwise (5,886,690 us, 3.90%)</title><rect x="396.3" y="135" width="46.1" height="15.0" fill="rgb(0,0,0)" rx="2" ry="2" />
<text  x="399.35" y="145.5" >Parl..</text>
</g>
<g >
<title>KSPSolve (4,915,081 us, 3.26%)</title><rect x="875.8" y="151" width="38.5" height="15.0" fill="rgb(0,0,0)" rx="2" ry="2" />
<text  x="878.81" y="161.5" >KSP..</text>
</g>
<g >
<title>PCSetUp (21,255,766 us, 14.09%)</title><rect x="967.4" y="103" width="166.3" height="15.0" fill="rgb(0,0,0)" rx="2" ry="2" />
<text  x="970.43" y="113.5" >PCSetUp</text>
</g>
<g >
<title>firedrake.tsfc_interface.compile_form (1,172,096 us, 0.78%)</title><rect x="377.3" y="119" width="9.2" height="15.0" fill="rgb(0,0,0)" rx="2" ry="2" />
<text  x="380.31" y="129.5" ></text>
</g>
<g >
<title>ParLoopExecute (1,065,222 us, 0.71%)</title><rect x="893.4" y="311" width="8.3" height="15.0" fill="rgb(0,0,0)" rx="2" ry="2" />
<text  x="896.35" y="321.5" ></text>
</g>
<g >
<title>firedrake.pointquery_utils.to_reference_coordinates (434,872 us, 0.29%)</title><rect x="910.9" y="247" width="3.4" height="15.0" fill="rgb(0,0,0)" rx="2" ry="2" />
<text  x="913.87" y="257.5" ></text>
</g>
<g >
<title>pyop2.global_kernel.GlobalKernel.compile (1,923,562 us, 1.28%)</title><rect x="83.4" y="119" width="15.1" height="15.0" fill="rgb(0,0,0)" rx="2" ry="2" />
<text  x="86.43" y="129.5" ></text>
</g>
<g >
<title>ParLoopExecute (14,037,350 us, 9.31%)</title><rect x="611.9" y="167" width="109.8" height="15.0" fill="rgb(0,0,0)" rx="2" ry="2" />
<text  x="614.89" y="177.5" >ParLoopExecute</text>
</g>
<g >
<title>ParLoopExecute (6,071,022 us, 4.03%)</title><rect x="1133.7" y="119" width="47.5" height="15.0" fill="rgb(0,0,0)" rx="2" ry="2" />
<text  x="1136.74" y="129.5" >ParL..</text>
</g>
<g >
<title>pyop2.global_kernel.GlobalKernel.compile (545,093 us, 0.36%)</title><rect x="889.1" y="311" width="4.3" height="15.0" fill="rgb(0,0,0)" rx="2" ry="2" />
<text  x="892.09" y="321.5" ></text>
</g>
<g >
<title>PCApply (59,528,693 us, 39.47%)</title><rect x="501.7" y="119" width="465.7" height="15.0" fill="rgb(0,0,0)" rx="2" ry="2" />
<text  x="504.67" y="129.5" >PCApply</text>
</g>
<g >
<title>Parloop_Cells_wrap_form0_interior_facet_horiz_integral_otherwise (1,469,252 us, 0.97%)</title><rect x="168.8" y="119" width="11.5" height="15.0" fill="rgb(0,0,0)" rx="2" ry="2" />
<text  x="171.80" y="129.5" ></text>
</g>
<g >
<title>MatZeroInitial (17,675 us, 0.01%)</title><rect x="377.2" y="135" width="0.1" height="15.0" fill="rgb(0,0,0)" rx="2" ry="2" />
<text  x="380.17" y="145.5" ></text>
</g>
<g >
<title>Parloop_IntFacets_wrap_form00_interior_facet_vert_integral_otherwise (2,131,241 us, 1.41%)</title><rect x="360.2" y="135" width="16.6" height="15.0" fill="rgb(0,0,0)" rx="2" ry="2" />
<text  x="363.16" y="145.5" ></text>
</g>
<g >
<title>SNESFunctionEval (7,191,150 us, 4.77%)</title><rect x="1133.7" y="103" width="56.3" height="15.0" fill="rgb(0,0,0)" rx="2" ry="2" />
<text  x="1136.74" y="113.5" >SNESF..</text>
</g>
<g >
<title>MatMult (1,306,080 us, 0.87%)</title><rect x="876.1" y="231" width="10.2" height="15.0" fill="rgb(0,0,0)" rx="2" ry="2" />
<text  x="879.10" y="241.5" ></text>
</g>
<g >
<title>Parloop_Cells_wrap_form_interior_facet_horiz_integral_otherwise (1,229,443 us, 0.82%)</title><rect x="59.4" y="103" width="9.6" height="15.0" fill="rgb(0,0,0)" rx="2" ry="2" />
<text  x="62.38" y="113.5" ></text>
</g>
<g >
<title>ParLoopExecute (873,828 us, 0.58%)</title><rect x="18.8" y="103" width="6.8" height="15.0" fill="rgb(0,0,0)" rx="2" ry="2" />
<text  x="21.81" y="113.5" ></text>
</g>
<g >
<title>pyop2.global_kernel.GlobalKernel.compile (16,191,353 us, 10.74%)</title><rect x="981.6" y="183" width="126.6" height="15.0" fill="rgb(0,0,0)" rx="2" ry="2" />
<text  x="984.56" y="193.5" >pyop2.global_k..</text>
</g>
<g >
<title>HybridProject (928,473 us, 0.62%)</title><rect x="511.0" y="151" width="7.2" height="15.0" fill="rgb(0,0,0)" rx="2" ry="2" />
<text  x="513.95" y="161.5" ></text>
</g>
<g >
<title>Parloop_IntFacets_wrap_form_interior_facet_vert_integral_otherwise (1,923,562 us, 1.28%)</title><rect x="83.4" y="103" width="15.1" height="15.0" fill="rgb(0,0,0)" rx="2" ry="2" />
<text  x="86.43" y="113.5" ></text>
</g>
<g >
<title>ParLoopExecute (11,390,970 us, 7.55%)</title><rect x="772.7" y="167" width="89.1" height="15.0" fill="rgb(0,0,0)" rx="2" ry="2" />
<text  x="775.69" y="177.5" >ParLoopEx..</text>
</g>
<g >
<title>ParLoopExecute (5,886,690 us, 3.90%)</title><rect x="396.3" y="119" width="46.1" height="15.0" fill="rgb(0,0,0)" rx="2" ry="2" />
<text  x="399.35" y="129.5" >ParL..</text>
</g>
<g >
<title>SCForwardElim (15,369,462 us, 10.19%)</title><rect x="755.6" y="135" width="120.2" height="15.0" fill="rgb(0,0,0)" rx="2" ry="2" />
<text  x="758.56" y="145.5" >SCForwardElim</text>
</g>
<g >
<title>pyop2.global_kernel.GlobalKernel.compile (1,564,153 us, 1.04%)</title><rect x="47.1" y="119" width="12.3" height="15.0" fill="rgb(0,0,0)" rx="2" ry="2" />
<text  x="50.14" y="129.5" ></text>
</g>
<g >
<title>firedrake.pointquery_utils.to_reference_coordinates (440,899 us, 0.29%)</title><rect x="882.9" y="279" width="3.4" height="15.0" fill="rgb(0,0,0)" rx="2" ry="2" />
<text  x="885.87" y="289.5" ></text>
</g>
<g >
<title>pyop2.global_kernel.GlobalKernel.compile (5,886,690 us, 3.90%)</title><rect x="396.3" y="151" width="46.1" height="15.0" fill="rgb(0,0,0)" rx="2" ry="2" />
<text  x="399.35" y="161.5" >pyop..</text>
</g>
<g >
<title>HybridRHS (14,353,389 us, 9.52%)</title><rect x="763.5" y="151" width="112.3" height="15.0" fill="rgb(0,0,0)" rx="2" ry="2" />
<text  x="766.51" y="161.5" >HybridRHS</text>
</g>
<g >
<title>pyop2.global_kernel.GlobalKernel.compile (14,011,977 us, 9.29%)</title><rect x="612.1" y="199" width="109.6" height="15.0" fill="rgb(0,0,0)" rx="2" ry="2" />
<text  x="615.08" y="209.5" >pyop2.global..</text>
</g>
<g >
<title>DMCoarsen (2,405,808 us, 1.60%)</title><rect x="886.5" y="215" width="18.8" height="15.0" fill="rgb(0,0,0)" rx="2" ry="2" />
<text  x="889.50" y="225.5" ></text>
</g>
<g >
<title>pyop2.global_kernel.GlobalKernel.compile (1,016,073 us, 0.67%)</title><rect x="755.6" y="215" width="7.9" height="15.0" fill="rgb(0,0,0)" rx="2" ry="2" />
<text  x="758.56" y="225.5" ></text>
</g>
<g >
<title>Parloop_ExtFacets_wrap_form00_exterior_facet_vert_integral_otherwise (2,069,192 us, 1.37%)</title><rect x="344.0" y="135" width="16.2" height="15.0" fill="rgb(0,0,0)" rx="2" ry="2" />
<text  x="346.97" y="145.5" ></text>
</g>
<g >
<title>pyop2.global_kernel.GlobalKernel.compile (1,844,765 us, 1.22%)</title><rect x="69.0" y="119" width="14.4" height="15.0" fill="rgb(0,0,0)" rx="2" ry="2" />
<text  x="72.00" y="129.5" ></text>
</g>
<g >
<title>Parloop_Cells_wrap_par_loop_kernel (1,016,073 us, 0.67%)</title><rect x="755.6" y="199" width="7.9" height="15.0" fill="rgb(0,0,0)" rx="2" ry="2" />
<text  x="758.56" y="209.5" ></text>
</g>
<g >
<title>pyop2.global_kernel.GlobalKernel.compile (1,667,011 us, 1.11%)</title><rect x="330.9" y="151" width="13.1" height="15.0" fill="rgb(0,0,0)" rx="2" ry="2" />
<text  x="333.93" y="161.5" ></text>
</g>
<g >
<title>firedrake.interpolation.make_interpolator (29,806 us, 0.02%)</title><rect x="964.5" y="167" width="0.3" height="15.0" fill="rgb(0,0,0)" rx="2" ry="2" />
<text  x="967.52" y="177.5" ></text>
</g>
<g >
<title>firedrake.tsfc_interface.compile_form (1,621,804 us, 1.08%)</title><rect x="742.9" y="151" width="12.7" height="15.0" fill="rgb(0,0,0)" rx="2" ry="2" />
<text  x="745.87" y="161.5" ></text>
</g>
<g >
<title>firedrake.extrusion_utils.make_extruded_coords (905,619 us, 0.60%)</title><rect x="18.6" y="87" width="7.0" height="15.0" fill="rgb(0,0,0)" rx="2" ry="2" />
<text  x="21.56" y="97.5" ></text>
</g>
<g >
<title>pyop2.caching.disk_cached.&lt;locals&gt;.decorator.&lt;locals&gt;.wrapper (19,083 us, 0.01%)</title><rect x="104.4" y="119" width="0.2" height="15.0" fill="rgb(0,0,0)" rx="2" ry="2" />
<text  x="107.43" y="129.5" ></text>
</g>
<g >
<title>KSPSolve (66,215,276 us, 43.90%)</title><rect x="449.4" y="103" width="518.0" height="15.0" fill="rgb(0,0,0)" rx="2" ry="2" />
<text  x="452.35" y="113.5" >KSPSolve</text>
</g>
<g >
<title>firedrake.mg.interface.prolong (1,306,080 us, 0.87%)</title><rect x="876.1" y="263" width="10.2" height="15.0" fill="rgb(0,0,0)" rx="2" ry="2" />
<text  x="879.10" y="273.5" ></text>
</g>
<g >
<title>CreateExtMesh (905,619 us, 0.60%)</title><rect x="18.6" y="71" width="7.0" height="15.0" fill="rgb(0,0,0)" rx="2" ry="2" />
<text  x="21.56" y="81.5" ></text>
</g>
<g >
<title>Parloop_set_#x7f48c9ec7250_wrap_expression_kernel (366,757 us, 0.24%)</title><rect x="98.5" y="135" width="2.9" height="15.0" fill="rgb(0,0,0)" rx="2" ry="2" />
<text  x="101.48" y="145.5" ></text>
</g>
<g >
<title>ParLoopExecute (687,845 us, 0.46%)</title><rect x="905.5" y="247" width="5.4" height="15.0" fill="rgb(0,0,0)" rx="2" ry="2" />
<text  x="908.49" y="257.5" ></text>
</g>
<g >
<title>all (150,815,381 us, 100%)</title><rect x="10.0" y="39" width="1180.0" height="15.0" fill="rgb(0,0,0)" rx="2" ry="2" />
<text  x="13.00" y="49.5" ></text>
</g>
<g >
<title>pyop2.global_kernel.GlobalKernel.compile (1,301,817 us, 0.86%)</title><rect x="158.6" y="135" width="10.2" height="15.0" fill="rgb(0,0,0)" rx="2" ry="2" />
<text  x="161.61" y="145.5" ></text>
</g>
<g >
<title>Parloop_set_#x7f48c9e78520_wrap_pyop2_kernel_restrict (687,845 us, 0.46%)</title><rect x="905.5" y="263" width="5.4" height="15.0" fill="rgb(0,0,0)" rx="2" ry="2" />
<text  x="908.49" y="273.5" ></text>
</g>
<g >
<title>Log_Event_form0_cell_integral_otherwise (21,140 us, 0.01%)</title><rect x="1133.7" y="151" width="0.2" height="15.0" fill="rgb(0,0,0)" rx="2" ry="2" />
<text  x="1136.74" y="161.5" ></text>
</g>
<g >
<title>Parloop_Cells_wrap_form00_cell_integral_otherwise (12,029,373 us, 7.98%)</title><rect x="212.3" y="135" width="94.1" height="15.0" fill="rgb(0,0,0)" rx="2" ry="2" />
<text  x="215.29" y="145.5" >Parloop_Ce..</text>
</g>
<g >
<title>ParLoopExecute (5,797,951 us, 3.84%)</title><rect x="449.4" y="151" width="45.3" height="15.0" fill="rgb(0,0,0)" rx="2" ry="2" />
<text  x="452.35" y="161.5" >Par..</text>
</g>
<g >
<title>ParLoopExecute (595,677 us, 0.39%)</title><rect x="878.2" y="279" width="4.7" height="15.0" fill="rgb(0,0,0)" rx="2" ry="2" />
<text  x="881.21" y="289.5" ></text>
</g>
<g >
<title>HybridOperatorAssembly (20,511,894 us, 13.60%)</title><rect x="967.9" y="135" width="160.4" height="15.0" fill="rgb(0,0,0)" rx="2" ry="2" />
<text  x="970.85" y="145.5" >HybridOperatorAsse..</text>
</g>
<g >
<title>Parloop_Cells_wrap_form0_cell_integral_otherwise (3,511,992 us, 2.33%)</title><rect x="449.4" y="167" width="27.4" height="15.0" fill="rgb(0,0,0)" rx="2" ry="2" />
<text  x="452.35" y="177.5" >P..</text>
</g>
<g >
<title>PCApply (4,915,081 us, 3.26%)</title><rect x="875.8" y="167" width="38.5" height="15.0" fill="rgb(0,0,0)" rx="2" ry="2" />
<text  x="878.81" y="177.5" >PCA..</text>
</g>
<g >
<title>firedrake.norms.norm (6,754,504 us, 4.48%)</title><rect x="396.3" y="87" width="52.9" height="15.0" fill="rgb(0,0,0)" rx="2" ry="2" />
<text  x="399.35" y="97.5" >fire..</text>
</g>
<g >
<title>ParLoopExecute (1,016,073 us, 0.67%)</title><rect x="755.6" y="183" width="7.9" height="15.0" fill="rgb(0,0,0)" rx="2" ry="2" />
<text  x="758.56" y="193.5" ></text>
</g>
<g >
<title>Parloop_ExtFacets_wrap_form0_exterior_facet_vert_integral_otherwise (1,831,842 us, 1.21%)</title><rect x="180.3" y="119" width="14.3" height="15.0" fill="rgb(0,0,0)" rx="2" ry="2" />
<text  x="183.29" y="129.5" ></text>
</g>
<g >
<title>ParLoopExecute (10,429,420 us, 6.92%)</title><rect x="518.2" y="151" width="81.6" height="15.0" fill="rgb(0,0,0)" rx="2" ry="2" />
<text  x="521.22" y="161.5" >ParLoopE..</text>
</g>
<g >
<title>pyop2.global_kernel.GlobalKernel.compile (1,234,031 us, 0.82%)</title><rect x="914.4" y="199" width="9.7" height="15.0" fill="rgb(0,0,0)" rx="2" ry="2" />
<text  x="917.43" y="209.5" ></text>
</g>
<g >
<title>firedrake.tsfc_interface.compile_form (867,814 us, 0.58%)</title><rect x="442.4" y="119" width="6.8" height="15.0" fill="rgb(0,0,0)" rx="2" ry="2" />
<text  x="445.41" y="129.5" ></text>
</g>
<g >
<title>RecoverFirstElim (18,283,491 us, 12.12%)</title><rect x="599.8" y="151" width="143.1" height="15.0" fill="rgb(0,0,0)" rx="2" ry="2" />
<text  x="602.82" y="161.5" >RecoverFirstElim</text>
</g>
<g >
<title>PCSetUp (3,549,925 us, 2.35%)</title><rect x="886.5" y="183" width="27.8" height="15.0" fill="rgb(0,0,0)" rx="2" ry="2" />
<text  x="889.50" y="193.5" >P..</text>
</g>
<g >
<title>firedrake.mg.interface.inject (2,386,677 us, 1.58%)</title><rect x="886.6" y="263" width="18.7" height="15.0" fill="rgb(0,0,0)" rx="2" ry="2" />
<text  x="889.64" y="273.5" ></text>
</g>
<g >
<title>pyop2.global_kernel.GlobalKernel.compile (1,574,429 us, 1.04%)</title><rect x="306.4" y="151" width="12.3" height="15.0" fill="rgb(0,0,0)" rx="2" ry="2" />
<text  x="309.41" y="161.5" ></text>
</g>
<g >
<title>firedrake.variational_solver.LinearVariationalProblem.__init__ (19,520 us, 0.01%)</title><rect x="449.2" y="71" width="0.2" height="15.0" fill="rgb(0,0,0)" rx="2" ry="2" />
<text  x="452.20" y="81.5" ></text>
</g>
<g >
<title>firedrake.formmanipulation.split_form (15,388 us, 0.01%)</title><rect x="1128.3" y="135" width="0.2" height="15.0" fill="rgb(0,0,0)" rx="2" ry="2" />
<text  x="1131.34" y="145.5" ></text>
</g>
<g >
<title>CreateSparsity (42,636 us, 0.03%)</title><rect x="376.8" y="135" width="0.4" height="15.0" fill="rgb(0,0,0)" rx="2" ry="2" />
<text  x="379.84" y="145.5" ></text>
</g>
<g >
<title>Parloop_set_#x7f48c9e3b610_wrap_pyop2_kernel_inject (545,093 us, 0.36%)</title><rect x="889.1" y="295" width="4.3" height="15.0" fill="rgb(0,0,0)" rx="2" ry="2" />
<text  x="892.09" y="305.5" ></text>
</g>
<g >
<title>pyop2.global_kernel.GlobalKernel.compile (1,275,646 us, 0.85%)</title><rect x="148.6" y="135" width="10.0" height="15.0" fill="rgb(0,0,0)" rx="2" ry="2" />
<text  x="151.63" y="145.5" ></text>
</g>
<g >
<title>Parloop_Cells_wrap_form1_cell_integral_otherwise (2,285,959 us, 1.52%)</title><rect x="476.8" y="167" width="17.9" height="15.0" fill="rgb(0,0,0)" rx="2" ry="2" />
<text  x="479.83" y="177.5" ></text>
</g>
<g >
<title>ParLoopExecute (759,548 us, 0.50%)</title><rect x="98.5" y="119" width="5.9" height="15.0" fill="rgb(0,0,0)" rx="2" ry="2" />
<text  x="101.48" y="129.5" ></text>
</g>
<g >
<title>pyop2.global_kernel.GlobalKernel.compile (1,559,145 us, 1.03%)</title><rect x="318.7" y="151" width="12.2" height="15.0" fill="rgb(0,0,0)" rx="2" ry="2" />
<text  x="321.73" y="161.5" ></text>
</g>
<g >
<title>Parloop_Cells_wrap_wrap_slate_loopy_knl_4 (11,390,970 us, 7.55%)</title><rect x="772.7" y="183" width="89.1" height="15.0" fill="rgb(0,0,0)" rx="2" ry="2" />
<text  x="775.69" y="193.5" >Parloop_C..</text>
</g>
<g >
<title>ParLoopExecute (16,218,975 us, 10.75%)</title><rect x="981.3" y="151" width="126.9" height="15.0" fill="rgb(0,0,0)" rx="2" ry="2" />
<text  x="984.34" y="161.5" >ParLoopExecute</text>
</g>
<g >
<title>Parloop_Cells_wrap_par_loop_kernel (673,993 us, 0.45%)</title><rect x="1128.5" y="167" width="5.2" height="15.0" fill="rgb(0,0,0)" rx="2" ry="2" />
<text  x="1131.46" y="177.5" ></text>
</g>
<g >
<title>pyop2.global_kernel.GlobalKernel.compile (873,828 us, 0.58%)</title><rect x="18.8" y="135" width="6.8" height="15.0" fill="rgb(0,0,0)" rx="2" ry="2" />
<text  x="21.81" y="145.5" ></text>
</g>
<g >
<title>pyop2.global_kernel.GlobalKernel.compile (5,168,109 us, 3.43%)</title><rect x="924.1" y="199" width="40.4" height="15.0" fill="rgb(0,0,0)" rx="2" ry="2" />
<text  x="927.08" y="209.5" >pyo..</text>
</g>
<g >
<title>firedrake.assemble.assemble (9,478,523 us, 6.28%)</title><rect x="37.7" y="71" width="74.1" height="15.0" fill="rgb(0,0,0)" rx="2" ry="2" />
<text  x="40.66" y="81.5" >firedra..</text>
</g>
<g >
<title>firedrake.mg.embedded.TransferManager.op (2,386,677 us, 1.58%)</title><rect x="886.6" y="247" width="18.7" height="15.0" fill="rgb(0,0,0)" rx="2" ry="2" />
<text  x="889.64" y="257.5" ></text>
</g>
<g >
<title>firedrake.tsfc_interface.compile_form (2,704,041 us, 1.79%)</title><rect x="721.7" y="167" width="21.2" height="15.0" fill="rgb(0,0,0)" rx="2" ry="2" />
<text  x="724.72" y="177.5" ></text>
</g>
<g >
<title>ParLoopExecute (6,402,140 us, 4.25%)</title><rect x="914.4" y="167" width="50.1" height="15.0" fill="rgb(0,0,0)" rx="2" ry="2" />
<text  x="917.43" y="177.5" >ParL..</text>
</g>
<g >
<title>firedrake.mg.interface.restrict (1,144,117 us, 0.76%)</title><rect x="905.3" y="231" width="9.0" height="15.0" fill="rgb(0,0,0)" rx="2" ry="2" />
<text  x="908.32" y="241.5" ></text>
</g>
<g >
<title>Parloop_Cells_wrap_expression_kernel (1,065,222 us, 0.71%)</title><rect x="893.4" y="327" width="8.3" height="15.0" fill="rgb(0,0,0)" rx="2" ry="2" />
<text  x="896.35" y="337.5" ></text>
</g>
<g >
<title>Parloop_Cells_wrap_form_exterior_facet_top_integral_otherwise (1,564,153 us, 1.04%)</title><rect x="47.1" y="103" width="12.3" height="15.0" fill="rgb(0,0,0)" rx="2" ry="2" />
<text  x="50.14" y="113.5" ></text>
</g>
<g >
<title>firedrake.projection.project (36,365,636 us, 24.11%)</title><rect x="111.8" y="87" width="284.5" height="15.0" fill="rgb(0,0,0)" rx="2" ry="2" />
<text  x="114.82" y="97.5" >firedrake.projection.project</text>
</g>
<g >
<title>firedrake.norms.errornorm (6,754,504 us, 4.48%)</title><rect x="396.3" y="71" width="52.9" height="15.0" fill="rgb(0,0,0)" rx="2" ry="2" />
<text  x="399.35" y="81.5" >fire..</text>
</g>
<g >
<title>firedrake.interpolation.Interpolator.interpolate (1,065,222 us, 0.71%)</title><rect x="893.4" y="295" width="8.3" height="15.0" fill="rgb(0,0,0)" rx="2" ry="2" />
<text  x="896.35" y="305.5" ></text>
</g>
<g >
<title>PCApply (1,365,156 us, 0.91%)</title><rect x="875.8" y="215" width="10.7" height="15.0" fill="rgb(0,0,0)" rx="2" ry="2" />
<text  x="878.81" y="225.5" ></text>
</g>
<g >
<title>pyop2.global_kernel.GlobalKernel.compile (1,831,842 us, 1.21%)</title><rect x="180.3" y="135" width="14.3" height="15.0" fill="rgb(0,0,0)" rx="2" ry="2" />
<text  x="183.29" y="145.5" ></text>
</g>
<g >
<title>Parloop_Cells_wrap_form0_cell_integral_otherwise (4,680,327 us, 3.10%)</title><rect x="112.0" y="119" width="36.6" height="15.0" fill="rgb(0,0,0)" rx="2" ry="2" />
<text  x="115.01" y="129.5" >Pa..</text>
</g>
<g >
<title>pyop2.global_kernel.GlobalKernel.compile (2,131,241 us, 1.41%)</title><rect x="360.2" y="151" width="16.6" height="15.0" fill="rgb(0,0,0)" rx="2" ry="2" />
<text  x="363.16" y="161.5" ></text>
</g>
<g >
<title>pyop2.global_kernel.GlobalKernel.compile (1,212,136 us, 0.80%)</title><rect x="37.7" y="119" width="9.4" height="15.0" fill="rgb(0,0,0)" rx="2" ry="2" />
<text  x="40.66" y="129.5" ></text>
</g>
<g >
<title>Parloop_set_#x7f48c9e3b610_wrap_pyop2_kernel_prolong (595,677 us, 0.39%)</title><rect x="878.2" y="295" width="4.7" height="15.0" fill="rgb(0,0,0)" rx="2" ry="2" />
<text  x="881.21" y="305.5" ></text>
</g>
<g >
<title>pyop2.global_kernel.GlobalKernel.compile (673,993 us, 0.45%)</title><rect x="1128.5" y="183" width="5.2" height="15.0" fill="rgb(0,0,0)" rx="2" ry="2" />
<text  x="1131.46" y="193.5" ></text>
</g>
<g >
<title>pyop2.global_kernel.GlobalKernel.compile (1,469,252 us, 0.97%)</title><rect x="168.8" y="135" width="11.5" height="15.0" fill="rgb(0,0,0)" rx="2" ry="2" />
<text  x="171.80" y="145.5" ></text>
</g>
<g >
<title>Parloop_IntFacets_wrap_form0_interior_facet_vert_integral_otherwise (2,258,084 us, 1.50%)</title><rect x="194.6" y="119" width="17.7" height="15.0" fill="rgb(0,0,0)" rx="2" ry="2" />
<text  x="197.62" y="129.5" ></text>
</g>
<g >
<title>pyop2.global_kernel.GlobalKernel.compile (2,258,084 us, 1.50%)</title><rect x="194.6" y="135" width="17.7" height="15.0" fill="rgb(0,0,0)" rx="2" ry="2" />
<text  x="197.62" y="145.5" ></text>
</g>
<g >
<title>firedrake.functionspaceimpl.FunctionSpace.__init__ (20,424 us, 0.01%)</title><rect x="25.6" y="87" width="0.2" height="15.0" fill="rgb(0,0,0)" rx="2" ry="2" />
<text  x="28.64" y="97.5" ></text>
</g>
<g >
<title>firedrake.tsfc_interface.compile_form (1,261,622 us, 0.84%)</title><rect x="386.5" y="103" width="9.8" height="15.0" fill="rgb(0,0,0)" rx="2" ry="2" />
<text  x="389.48" y="113.5" ></text>
</g>
<g >
<title>Parloop_Cells_wrap_pyop2_kernel_uniform_extrusion (873,828 us, 0.58%)</title><rect x="18.8" y="119" width="6.8" height="15.0" fill="rgb(0,0,0)" rx="2" ry="2" />
<text  x="21.81" y="129.5" ></text>
</g>
<g >
<title>pyop2.global_kernel.GlobalKernel.compile (10,413,550 us, 6.90%)</title><rect x="518.3" y="183" width="81.5" height="15.0" fill="rgb(0,0,0)" rx="2" ry="2" />
<text  x="521.34" y="193.5" >pyop2.gl..</text>
</g>
<g >
<title>PCSetUp (3,549,925 us, 2.35%)</title><rect x="886.5" y="199" width="27.8" height="15.0" fill="rgb(0,0,0)" rx="2" ry="2" />
<text  x="889.50" y="209.5" >P..</text>
</g>
<g >
<title>Parloop_Cells_wrap_form0_cell_integral_otherwise (3,251,737 us, 2.16%)</title><rect x="1133.7" y="135" width="25.5" height="15.0" fill="rgb(0,0,0)" rx="2" ry="2" />
<text  x="1136.74" y="145.5" >P..</text>
</g>
<g >
<title>firedrake.tsfc_interface.compile_form (2,569,221 us, 1.70%)</title><rect x="1108.2" y="151" width="20.1" height="15.0" fill="rgb(0,0,0)" rx="2" ry="2" />
<text  x="1111.24" y="161.5" ></text>
</g>
<g >
<title>firedrake.parloops.par_loop (673,993 us, 0.45%)</title><rect x="1128.5" y="135" width="5.2" height="15.0" fill="rgb(0,0,0)" rx="2" ry="2" />
<text  x="1131.46" y="145.5" ></text>
</g>
<g >
<title>firedrake.__init__ (1,515,017 us, 1.00%)</title><rect x="25.8" y="71" width="11.9" height="15.0" fill="rgb(0,0,0)" rx="2" ry="2" />
<text  x="28.80" y="81.5" ></text>
</g>
<g >
<title>PCApply (1,365,156 us, 0.91%)</title><rect x="875.8" y="183" width="10.7" height="15.0" fill="rgb(0,0,0)" rx="2" ry="2" />
<text  x="878.81" y="193.5" ></text>
</g>
<g >
<title>Parloop_Cells_wrap_form00_exterior_facet_top_integral_otherwise (1,559,145 us, 1.03%)</title><rect x="318.7" y="135" width="12.2" height="15.0" fill="rgb(0,0,0)" rx="2" ry="2" />
<text  x="321.73" y="145.5" ></text>
</g>
<g >
<title>Parloop_Cells_wrap_form00_interior_facet_horiz_integral_otherwise (1,667,011 us, 1.11%)</title><rect x="330.9" y="135" width="13.1" height="15.0" fill="rgb(0,0,0)" rx="2" ry="2" />
<text  x="333.93" y="145.5" ></text>
</g>
<g >
<title>SNESSolve (94,662,192 us, 62.77%)</title><rect x="449.4" y="87" width="740.6" height="15.0" fill="rgb(0,0,0)" rx="2" ry="2" />
<text  x="452.35" y="97.5" >SNESSolve</text>
</g>
<g >
<title>firedrake.assemble.assemble (6,754,504 us, 4.48%)</title><rect x="396.3" y="103" width="52.9" height="15.0" fill="rgb(0,0,0)" rx="2" ry="2" />
<text  x="399.35" y="113.5" >fire..</text>
</g>
<g >
<title>PCSetUp (6,794,014 us, 4.50%)</title><rect x="914.3" y="151" width="53.1" height="15.0" fill="rgb(0,0,0)" rx="2" ry="2" />
<text  x="917.27" y="161.5" >PCSe..</text>
</g>
<g >
<title>firedrake.mg.interface.restrict (22,709 us, 0.02%)</title><rect x="886.3" y="247" width="0.2" height="15.0" fill="rgb(0,0,0)" rx="2" ry="2" />
<text  x="889.32" y="257.5" ></text>
</g>
<g >
<title>HybridInit (21,255,766 us, 14.09%)</title><rect x="967.4" y="119" width="166.3" height="15.0" fill="rgb(0,0,0)" rx="2" ry="2" />
<text  x="970.43" y="129.5" >HybridInit</text>
</g>
<g >
<title>Parloop_Cells_wrap_wrap_slate_loopy_knl_7 (14,037,350 us, 9.31%)</title><rect x="611.9" y="183" width="109.8" height="15.0" fill="rgb(0,0,0)" rx="2" ry="2" />
<text  x="614.89" y="193.5" >Parloop_Cell..</text>
</g>
<g >
<title>Parloop_Cells_wrap_wrap_slate_loopy_knl_14 (10,429,420 us, 6.92%)</title><rect x="518.2" y="167" width="81.6" height="15.0" fill="rgb(0,0,0)" rx="2" ry="2" />
<text  x="521.22" y="177.5" >Parloop_..</text>
</g>
<g >
<title>Parloop_Cells_wrap_expression_kernel (1,234,031 us, 0.82%)</title><rect x="914.4" y="183" width="9.7" height="15.0" fill="rgb(0,0,0)" rx="2" ry="2" />
<text  x="917.43" y="193.5" ></text>
</g>
<g >
<title>KSPSolve (1,365,156 us, 0.91%)</title><rect x="875.8" y="199" width="10.7" height="15.0" fill="rgb(0,0,0)" rx="2" ry="2" />
<text  x="878.81" y="209.5" ></text>
</g>
<g >
<title>firedrake.tsfc_interface.compile_form (1,789,231 us, 1.19%)</title><rect x="861.8" y="167" width="14.0" height="15.0" fill="rgb(0,0,0)" rx="2" ry="2" />
<text  x="864.81" y="177.5" ></text>
</g>
<g >
<title>Parloop_Cells_wrap_form00_cell_integral_otherwise (5,168,109 us, 3.43%)</title><rect x="924.1" y="183" width="40.4" height="15.0" fill="rgb(0,0,0)" rx="2" ry="2" />
<text  x="927.08" y="193.5" >Par..</text>
</g>
<g >
<title>Parloop_Cells_wrap_form_exterior_facet_bottom_integral_otherwise (1,212,136 us, 0.80%)</title><rect x="37.7" y="103" width="9.4" height="15.0" fill="rgb(0,0,0)" rx="2" ry="2" />
<text  x="40.66" y="113.5" ></text>
</g>
<g >
<title>pyop2.global_kernel.GlobalKernel.compile (1,229,443 us, 0.82%)</title><rect x="59.4" y="119" width="9.6" height="15.0" fill="rgb(0,0,0)" rx="2" ry="2" />
<text  x="62.38" y="129.5" ></text>
</g>
<g >
<title>pyop2.global_kernel.GlobalKernel.compile (4,680,327 us, 3.10%)</title><rect x="112.0" y="135" width="36.6" height="15.0" fill="rgb(0,0,0)" rx="2" ry="2" />
<text  x="115.01" y="145.5" >py..</text>
</g>
<g >
<title>firedrake.assemble_expressions.assemble_expression (778,631 us, 0.52%)</title><rect x="98.5" y="87" width="6.1" height="15.0" fill="rgb(0,0,0)" rx="2" ry="2" />
<text  x="101.48" y="97.5" ></text>
</g>
<g >
<title>Parloop_Cells_wrap_form0_exterior_facet_top_integral_otherwise (1,301,817 us, 0.86%)</title><rect x="158.6" y="119" width="10.2" height="15.0" fill="rgb(0,0,0)" rx="2" ry="2" />
<text  x="161.61" y="129.5" ></text>
</g>
<g >
<title>pyop2.global_kernel.GlobalKernel.compile (2,285,959 us, 1.52%)</title><rect x="476.8" y="183" width="17.9" height="15.0" fill="rgb(0,0,0)" rx="2" ry="2" />
<text  x="479.83" y="193.5" ></text>
</g>
<g >
<title>pyop2.global_kernel.GlobalKernel.compile (11,390,970 us, 7.55%)</title><rect x="772.7" y="199" width="89.1" height="15.0" fill="rgb(0,0,0)" rx="2" ry="2" />
<text  x="775.69" y="209.5" >pyop2.glo..</text>
</g>
<g >
<title>ParLoopExecute (673,993 us, 0.45%)</title><rect x="1128.5" y="151" width="5.2" height="15.0" fill="rgb(0,0,0)" rx="2" ry="2" />
<text  x="1131.46" y="161.5" ></text>
</g>
<g >
<title>ParLoopExecute (12,816,968 us, 8.50%)</title><rect x="112.0" y="103" width="100.3" height="15.0" fill="rgb(0,0,0)" rx="2" ry="2" />
<text  x="115.01" y="113.5" >ParLoopExec..</text>
</g>
<g >
<title>firedrake.dmhooks.coarsen (2,405,808 us, 1.60%)</title><rect x="886.5" y="231" width="18.8" height="15.0" fill="rgb(0,0,0)" rx="2" ry="2" />
<text  x="889.50" y="241.5" ></text>
</g>
<g >
<title>SCBackSub (32,450,136 us, 21.52%)</title><rect x="501.7" y="135" width="253.9" height="15.0" fill="rgb(0,0,0)" rx="2" ry="2" />
<text  x="504.67" y="145.5" >SCBackSub</text>
</g>
<g >
<title>firedrake.tsfc_interface.compile_form (925,833 us, 0.61%)</title><rect x="104.6" y="87" width="7.2" height="15.0" fill="rgb(0,0,0)" rx="2" ry="2" />
<text  x="107.58" y="97.5" ></text>
</g>
<g >
<title>pyop2.global_kernel.GlobalKernel.compile (12,029,373 us, 7.98%)</title><rect x="212.3" y="151" width="94.1" height="15.0" fill="rgb(0,0,0)" rx="2" ry="2" />
<text  x="215.29" y="161.5" >pyop2.glob..</text>
</g>
<g >
<title>firedrake (150,815,381 us, 100.00%)</title><rect x="10.0" y="55" width="1180.0" height="15.0" fill="rgb(0,0,0)" rx="2" ry="2" />
<text  x="13.00" y="65.5" >firedrake</text>
</g>
<g >
<title>pyop2.global_kernel.GlobalKernel.compile (2,800,882 us, 1.86%)</title><rect x="1159.3" y="151" width="21.9" height="15.0" fill="rgb(0,0,0)" rx="2" ry="2" />
<text  x="1162.32" y="161.5" ></text>
</g>
<g >
<title>firedrake.tsfc_interface.compile_form (341,883 us, 0.23%)</title><rect x="964.8" y="167" width="2.6" height="15.0" fill="rgb(0,0,0)" rx="2" ry="2" />
<text  x="967.75" y="177.5" ></text>
</g>
<g >
<title>Log_Event_form1_cell_integral_otherwise (18,403 us, 0.01%)</title><rect x="1159.2" y="151" width="0.1" height="15.0" fill="rgb(0,0,0)" rx="2" ry="2" />
<text  x="1162.18" y="161.5" ></text>
</g>
<g >
<title>firedrake.assemble.assemble (22,262,798 us, 14.76%)</title><rect x="212.3" y="103" width="174.2" height="15.0" fill="rgb(0,0,0)" rx="2" ry="2" />
<text  x="215.29" y="113.5" >firedrake.assemble.a..</text>
</g>
<g >
<title>firedrake.parloops.par_loop (1,016,073 us, 0.67%)</title><rect x="755.6" y="167" width="7.9" height="15.0" fill="rgb(0,0,0)" rx="2" ry="2" />
<text  x="758.56" y="177.5" ></text>
</g>
<g >
<title>pyop2.global_kernel.GlobalKernel.compile (687,845 us, 0.46%)</title><rect x="905.5" y="279" width="5.4" height="15.0" fill="rgb(0,0,0)" rx="2" ry="2" />
<text  x="908.49" y="289.5" ></text>
</g>
<g >
<title>firedrake.interpolation.interpolate (1,100,002 us, 0.73%)</title><rect x="893.4" y="279" width="8.6" height="15.0" fill="rgb(0,0,0)" rx="2" ry="2" />
<text  x="896.35" y="289.5" ></text>
</g>
</g>
</svg>
