<?xml version="1.0" standalone="no"?>
<!DOCTYPE svg PUBLIC "-//W3C//DTD SVG 1.1//EN" "http://www.w3.org/Graphics/SVG/1.1/DTD/svg11.dtd">
<svg version="1.1" width="1200" height="331" onload="init(evt)" viewBox="0 0 1200 331" xmlns="http://www.w3.org/2000/svg" xmlns:xlink="http://www.w3.org/1999/xlink">
<!-- Flame graph stack visualization. See https://github.com/brendangregg/FlameGraph for latest version, and http://www.brendangregg.com/flamegraphs.html for examples. -->
<!-- NOTES:  -->
<defs>
	<linearGradient id="background" y1="0" y2="1" x1="0" x2="0" >
		<stop stop-color="#eeeeee" offset="5%" />
		<stop stop-color="#eeeeb0" offset="95%" />
	</linearGradient>
</defs>
<style type="text/css">
	text { font-family:Verdana; font-size:13px; fill:rgb(0,0,0); }
	#search, #ignorecase { opacity:0.1; cursor:pointer; }
	#search:hover, #search.show, #ignorecase:hover, #ignorecase.show { opacity:1; }
	#subtitle { text-anchor:middle; font-color:rgb(160,160,160); }
	#title { text-anchor:middle; font-size:18px}
	#unzoom { cursor:pointer; }
	#frames > *:hover { stroke:black; stroke-width:0.5; cursor:pointer; }
	.hide { display:none; }
	.parent { opacity:0.5; }
</style>
<script type="text/ecmascript">
<![CDATA[
	"use strict";
	var details, searchbtn, unzoombtn, matchedtxt, svg, searching, currentSearchTerm, ignorecase, ignorecaseBtn;
	function init(evt) {
		details = document.getElementById("details").firstChild;
		searchbtn = document.getElementById("search");
		ignorecaseBtn = document.getElementById("ignorecase");
		unzoombtn = document.getElementById("unzoom");
		matchedtxt = document.getElementById("matched");
		svg = document.getElementsByTagName("svg")[0];
		searching = 0;
		currentSearchTerm = null;

		// use GET parameters to restore a flamegraphs state.
		var params = get_params();
		if (params.x && params.y)
			zoom(find_group(document.querySelector('[x="' + params.x + '"][y="' + params.y + '"]')));
                if (params.s) search(params.s);
	}

	// event listeners
	window.addEventListener("click", function(e) {
		var target = find_group(e.target);
		if (target) {
			if (target.nodeName == "a") {
				if (e.ctrlKey === false) return;
				e.preventDefault();
			}
			if (target.classList.contains("parent")) unzoom();
			zoom(target);
			if (!document.querySelector('.parent')) {
				clearzoom();
				return;
			}

			// set parameters for zoom state
			var el = target.querySelector("rect");
			if (el && el.attributes && el.attributes.y && el.attributes._orig_x) {
				var params = get_params()
				params.x = el.attributes._orig_x.value;
				params.y = el.attributes.y.value;
				history.replaceState(null, null, parse_params(params));
			}
		}
		else if (e.target.id == "unzoom") clearzoom();
		else if (e.target.id == "search") search_prompt();
		else if (e.target.id == "ignorecase") toggle_ignorecase();
	}, false)

	// mouse-over for info
	// show
	window.addEventListener("mouseover", function(e) {
		var target = find_group(e.target);
		if (target) details.nodeValue = "Function: " + g_to_text(target);
	}, false)

	// clear
	window.addEventListener("mouseout", function(e) {
		var target = find_group(e.target);
		if (target) details.nodeValue = ' ';
	}, false)

	// ctrl-F for search
	// ctrl-I to toggle case-sensitive search
	window.addEventListener("keydown",function (e) {
		if (e.keyCode === 114 || (e.ctrlKey && e.keyCode === 70)) {
			e.preventDefault();
			search_prompt();
		}
		else if (e.ctrlKey && e.keyCode === 73) {
			e.preventDefault();
			toggle_ignorecase();
		}
	}, false)

	// functions
	function get_params() {
		var params = {};
		var paramsarr = window.location.search.substr(1).split('&');
		for (var i = 0; i < paramsarr.length; ++i) {
			var tmp = paramsarr[i].split("=");
			if (!tmp[0] || !tmp[1]) continue;
			params[tmp[0]]  = decodeURIComponent(tmp[1]);
		}
		return params;
	}
	function parse_params(params) {
		var uri = "?";
		for (var key in params) {
			uri += key + '=' + encodeURIComponent(params[key]) + '&';
		}
		if (uri.slice(-1) == "&")
			uri = uri.substring(0, uri.length - 1);
		if (uri == '?')
			uri = window.location.href.split('?')[0];
		return uri;
	}
	function find_child(node, selector) {
		var children = node.querySelectorAll(selector);
		if (children.length) return children[0];
	}
	function find_group(node) {
		var parent = node.parentElement;
		if (!parent) return;
		if (parent.id == "frames") return node;
		return find_group(parent);
	}
	function orig_save(e, attr, val) {
		if (e.attributes["_orig_" + attr] != undefined) return;
		if (e.attributes[attr] == undefined) return;
		if (val == undefined) val = e.attributes[attr].value;
		e.setAttribute("_orig_" + attr, val);
	}
	function orig_load(e, attr) {
		if (e.attributes["_orig_"+attr] == undefined) return;
		e.attributes[attr].value = e.attributes["_orig_" + attr].value;
		e.removeAttribute("_orig_"+attr);
	}
	function g_to_text(e) {
		var text = find_child(e, "title").firstChild.nodeValue;
		return (text)
	}
	function g_to_func(e) {
		var func = g_to_text(e);
		// if there's any manipulation we want to do to the function
		// name before it's searched, do it here before returning.
		return (func);
	}
	function update_text(e) {
		var r = find_child(e, "rect");
		var t = find_child(e, "text");
		var w = parseFloat(r.attributes.width.value) -3;
		var txt = find_child(e, "title").textContent.replace(/\([^(]*\)$/,"");
		t.attributes.x.value = parseFloat(r.attributes.x.value) + 3;

		// Smaller than this size won't fit anything
		if (w < 2 * 13 * 0.59) {
			t.textContent = "";
			return;
		}

		t.textContent = txt;
		// Fit in full text width
		if (/^ *$/.test(txt) || t.getSubStringLength(0, txt.length) < w)
			return;

		for (var x = txt.length - 2; x > 0; x--) {
			if (t.getSubStringLength(0, x + 2) <= w) {
				t.textContent = txt.substring(0, x) + "..";
				return;
			}
		}
		t.textContent = "";
	}

	// zoom
	function zoom_reset(e) {
		if (e.attributes != undefined) {
			orig_load(e, "x");
			orig_load(e, "width");
		}
		if (e.childNodes == undefined) return;
		for (var i = 0, c = e.childNodes; i < c.length; i++) {
			zoom_reset(c[i]);
		}
	}
	function zoom_child(e, x, ratio) {
		if (e.attributes != undefined) {
			if (e.attributes.x != undefined) {
				orig_save(e, "x");
				e.attributes.x.value = (parseFloat(e.attributes.x.value) - x - 10) * ratio + 10;
				if (e.tagName == "text")
					e.attributes.x.value = find_child(e.parentNode, "rect[x]").attributes.x.value + 3;
			}
			if (e.attributes.width != undefined) {
				orig_save(e, "width");
				e.attributes.width.value = parseFloat(e.attributes.width.value) * ratio;
			}
		}

		if (e.childNodes == undefined) return;
		for (var i = 0, c = e.childNodes; i < c.length; i++) {
			zoom_child(c[i], x - 10, ratio);
		}
	}
	function zoom_parent(e) {
		if (e.attributes) {
			if (e.attributes.x != undefined) {
				orig_save(e, "x");
				e.attributes.x.value = 10;
			}
			if (e.attributes.width != undefined) {
				orig_save(e, "width");
				e.attributes.width.value = parseInt(svg.width.baseVal.value) - (10 * 2);
			}
		}
		if (e.childNodes == undefined) return;
		for (var i = 0, c = e.childNodes; i < c.length; i++) {
			zoom_parent(c[i]);
		}
	}
	function zoom(node) {
		var attr = find_child(node, "rect").attributes;
		var width = parseFloat(attr.width.value);
		var xmin = parseFloat(attr.x.value);
		var xmax = parseFloat(xmin + width);
		var ymin = parseFloat(attr.y.value);
		var ratio = (svg.width.baseVal.value - 2 * 10) / width;

		// XXX: Workaround for JavaScript float issues (fix me)
		var fudge = 0.0001;

		unzoombtn.classList.remove("hide");

		var el = document.getElementById("frames").children;
		for (var i = 0; i < el.length; i++) {
			var e = el[i];
			var a = find_child(e, "rect").attributes;
			var ex = parseFloat(a.x.value);
			var ew = parseFloat(a.width.value);
			var upstack;
			// Is it an ancestor
			if (1 == 0) {
				upstack = parseFloat(a.y.value) > ymin;
			} else {
				upstack = parseFloat(a.y.value) < ymin;
			}
			if (upstack) {
				// Direct ancestor
				if (ex <= xmin && (ex+ew+fudge) >= xmax) {
					e.classList.add("parent");
					zoom_parent(e);
					update_text(e);
				}
				// not in current path
				else
					e.classList.add("hide");
			}
			// Children maybe
			else {
				// no common path
				if (ex < xmin || ex + fudge >= xmax) {
					e.classList.add("hide");
				}
				else {
					zoom_child(e, xmin, ratio);
					update_text(e);
				}
			}
		}
		search();
	}
	function unzoom() {
		unzoombtn.classList.add("hide");
		var el = document.getElementById("frames").children;
		for(var i = 0; i < el.length; i++) {
			el[i].classList.remove("parent");
			el[i].classList.remove("hide");
			zoom_reset(el[i]);
			update_text(el[i]);
		}
		search();
	}
	function clearzoom() {
		unzoom();

		// remove zoom state
		var params = get_params();
		if (params.x) delete params.x;
		if (params.y) delete params.y;
		history.replaceState(null, null, parse_params(params));
	}

	// search
	function toggle_ignorecase() {
		ignorecase = !ignorecase;
		if (ignorecase) {
			ignorecaseBtn.classList.add("show");
		} else {
			ignorecaseBtn.classList.remove("show");
		}
		reset_search();
		search();
	}
	function reset_search() {
		var el = document.querySelectorAll("#frames rect");
		for (var i = 0; i < el.length; i++) {
			orig_load(el[i], "fill")
		}
		var params = get_params();
		delete params.s;
		history.replaceState(null, null, parse_params(params));
	}
	function search_prompt() {
		if (!searching) {
			var term = prompt("Enter a search term (regexp " +
			    "allowed, eg: ^ext4_)"
			    + (ignorecase ? ", ignoring case" : "")
			    + "\nPress Ctrl-i to toggle case sensitivity", "");
			if (term != null) search(term);
		} else {
			reset_search();
			searching = 0;
			currentSearchTerm = null;
			searchbtn.classList.remove("show");
			searchbtn.firstChild.nodeValue = "Search"
			matchedtxt.classList.add("hide");
			matchedtxt.firstChild.nodeValue = ""
		}
	}
	function search(term) {
		if (term) currentSearchTerm = term;

		var re = new RegExp(currentSearchTerm, ignorecase ? 'i' : '');
		var el = document.getElementById("frames").children;
		var matches = new Object();
		var maxwidth = 0;
		for (var i = 0; i < el.length; i++) {
			var e = el[i];
			var func = g_to_func(e);
			var rect = find_child(e, "rect");
			if (func == null || rect == null)
				continue;

			// Save max width. Only works as we have a root frame
			var w = parseFloat(rect.attributes.width.value);
			if (w > maxwidth)
				maxwidth = w;

			if (func.match(re)) {
				// highlight
				var x = parseFloat(rect.attributes.x.value);
				orig_save(rect, "fill");
				rect.attributes.fill.value = "rgb(230,0,230)";

				// remember matches
				if (matches[x] == undefined) {
					matches[x] = w;
				} else {
					if (w > matches[x]) {
						// overwrite with parent
						matches[x] = w;
					}
				}
				searching = 1;
			}
		}
		if (!searching)
			return;
		var params = get_params();
		params.s = currentSearchTerm;
		history.replaceState(null, null, parse_params(params));

		searchbtn.classList.add("show");
		searchbtn.firstChild.nodeValue = "Reset Search";

		// calculate percent matched, excluding vertical overlap
		var count = 0;
		var lastx = -1;
		var lastw = 0;
		var keys = Array();
		for (k in matches) {
			if (matches.hasOwnProperty(k))
				keys.push(k);
		}
		// sort the matched frames by their x location
		// ascending, then width descending
		keys.sort(function(a, b){
			return a - b;
		});
		// Step through frames saving only the biggest bottom-up frames
		// thanks to the sort order. This relies on the tree property
		// where children are always smaller than their parents.
		var fudge = 0.0001;	// JavaScript floating point
		for (var k in keys) {
			var x = parseFloat(keys[k]);
			var w = matches[keys[k]];
			if (x >= lastx + lastw - fudge) {
				count += w;
				lastx = x;
				lastw = w;
			}
		}
		// display matched percent
		matchedtxt.classList.remove("hide");
		var pct = 100 * count / maxwidth;
		if (pct != 100) pct = pct.toFixed(1)
		matchedtxt.firstChild.nodeValue = "Matched: " + pct + "%";
	}
]]>
</script>
<rect x="0.0" y="0" width="1200.0" height="331.0" fill="url(#background)"  />
<text id="title" x="600.00" y="26" >Firedrake example</text>
<text id="details" x="10.00" y="313" > </text>
<text id="unzoom" x="10.00" y="26" class="hide">Reset Zoom</text>
<text id="search" x="1090.00" y="26" >Search</text>
<text id="ignorecase" x="1174.00" y="26" >ic</text>
<text id="matched" x="1090.00" y="313" > </text>
<g id="frames">
<g >
<title>Parloop_Cells_wrap_pyop2_kernel_uniform_extrusion (895,291 us, 0.98%)</title><rect x="22.1" y="119" width="11.5" height="15.0" fill="rgb(0,0,0)" rx="2" ry="2" />
<text  x="25.06" y="129.5" ></text>
</g>
<g >
<title>KSPGMRESOrthog (40,797 us, 0.04%)</title><rect x="502.0" y="119" width="0.5" height="15.0" fill="rgb(0,0,0)" rx="2" ry="2" />
<text  x="504.96" y="129.5" ></text>
</g>
<g >
<title>pyop2.global_kernel.GlobalKernel.compile (4,421,622 us, 4.84%)</title><rect x="674.2" y="151" width="57.1" height="15.0" fill="rgb(0,0,0)" rx="2" ry="2" />
<text  x="677.17" y="161.5" >pyop2..</text>
</g>
<g >
<title>firedrake.variational_solver.NonlinearVariationalSolver.solve (53,279,580 us, 58.32%)</title><rect x="501.8" y="71" width="688.2" height="15.0" fill="rgb(0,0,0)" rx="2" ry="2" />
<text  x="504.81" y="81.5" >firedrake.variational_solver.NonlinearVariationalSolver.solve</text>
</g>
<g >
<title>MatResidual (139,907 us, 0.15%)</title><rect x="535.8" y="183" width="1.8" height="15.0" fill="rgb(0,0,0)" rx="2" ry="2" />
<text  x="538.79" y="193.5" ></text>
</g>
<g >
<title>firedrake.assemble_expressions.evaluate_expression (748,777 us, 0.82%)</title><rect x="53.6" y="103" width="9.7" height="15.0" fill="rgb(0,0,0)" rx="2" ry="2" />
<text  x="56.58" y="113.5" ></text>
</g>
<g >
<title>firedrake.norms.norm (12,913,066 us, 14.13%)</title><rect x="329.4" y="87" width="166.8" height="15.0" fill="rgb(0,0,0)" rx="2" ry="2" />
<text  x="332.41" y="97.5" >firedrake.norms.norm</text>
</g>
<g >
<title>Log_Event_form00_cell_integral_otherwise (25,146 us, 0.03%)</title><rect x="121.7" y="151" width="0.3" height="15.0" fill="rgb(0,0,0)" rx="2" ry="2" />
<text  x="124.67" y="161.5" ></text>
</g>
<g >
<title>MatSOR (1,493,758 us, 1.64%)</title><rect x="515.2" y="247" width="19.3" height="15.0" fill="rgb(0,0,0)" rx="2" ry="2" />
<text  x="518.21" y="257.5" ></text>
</g>
<g >
<title>MatMult (2,559,479 us, 2.80%)</title><rect x="578.5" y="167" width="33.0" height="15.0" fill="rgb(0,0,0)" rx="2" ry="2" />
<text  x="581.48" y="177.5" >Ma..</text>
</g>
<g >
<title>MatPtAPSymbolic (32,714 us, 0.04%)</title><rect x="573.3" y="199" width="0.4" height="15.0" fill="rgb(0,0,0)" rx="2" ry="2" />
<text  x="576.25" y="209.5" ></text>
</g>
<g >
<title>KSPSolve (1,524,373 us, 1.67%)</title><rect x="588.1" y="247" width="19.7" height="15.0" fill="rgb(0,0,0)" rx="2" ry="2" />
<text  x="591.14" y="257.5" ></text>
</g>
<g >
<title>KSPSolve_FS_Low (3,152,667 us, 3.45%)</title><rect x="537.6" y="135" width="40.7" height="15.0" fill="rgb(0,0,0)" rx="2" ry="2" />
<text  x="540.59" y="145.5" >KSP..</text>
</g>
<g >
<title>firedrake.dmhooks.create_field_decomposition (34,010 us, 0.04%)</title><rect x="614.3" y="119" width="0.5" height="15.0" fill="rgb(0,0,0)" rx="2" ry="2" />
<text  x="617.31" y="129.5" ></text>
</g>
<g >
<title>firedrake.assemble.allocate_matrix (261,677 us, 0.29%)</title><rect x="312.2" y="119" width="3.3" height="15.0" fill="rgb(0,0,0)" rx="2" ry="2" />
<text  x="315.16" y="129.5" ></text>
</g>
<g >
<title>PCApply (40,992 us, 0.04%)</title><rect x="611.5" y="167" width="0.6" height="15.0" fill="rgb(0,0,0)" rx="2" ry="2" />
<text  x="614.54" y="177.5" ></text>
</g>
<g >
<title>PCApply (2,494,025 us, 2.73%)</title><rect x="578.5" y="199" width="32.2" height="15.0" fill="rgb(0,0,0)" rx="2" ry="2" />
<text  x="581.48" y="209.5" >PC..</text>
</g>
<g >
<title>firedrake.assemble_expressions.assemble_expression (748,777 us, 0.82%)</title><rect x="53.6" y="87" width="9.7" height="15.0" fill="rgb(0,0,0)" rx="2" ry="2" />
<text  x="56.58" y="97.5" ></text>
</g>
<g >
<title>KSPSolve (2,613,342 us, 2.86%)</title><rect x="578.3" y="151" width="33.8" height="15.0" fill="rgb(0,0,0)" rx="2" ry="2" />
<text  x="581.32" y="161.5" >KS..</text>
</g>
<g >
<title>pyop2.global_kernel.GlobalKernel.compile (367,357 us, 0.40%)</title><rect x="53.6" y="151" width="4.7" height="15.0" fill="rgb(0,0,0)" rx="2" ry="2" />
<text  x="56.58" y="161.5" ></text>
</g>
<g >
<title>MatLUFactorNum (9,272 us, 0.01%)</title><rect x="612.1" y="183" width="0.1" height="15.0" fill="rgb(0,0,0)" rx="2" ry="2" />
<text  x="615.07" y="193.5" ></text>
</g>
<g >
<title>pyop2.global_kernel.GlobalKernel.compile (10,749,637 us, 11.77%)</title><rect x="900.3" y="151" width="138.8" height="15.0" fill="rgb(0,0,0)" rx="2" ry="2" />
<text  x="903.29" y="161.5" >pyop2.global_ker..</text>
</g>
<g >
<title>firedrake.functionspaceimpl.FunctionSpace.__init__ (24,839 us, 0.03%)</title><rect x="33.6" y="87" width="0.3" height="15.0" fill="rgb(0,0,0)" rx="2" ry="2" />
<text  x="36.62" y="97.5" ></text>
</g>
<g >
<title>ParLoopExecute (11,271,673 us, 12.34%)</title><rect x="329.4" y="119" width="145.6" height="15.0" fill="rgb(0,0,0)" rx="2" ry="2" />
<text  x="332.41" y="129.5" >ParLoopExecute</text>
</g>
<g >
<title>firedrake.variational_solver.NonlinearVariationalProblem.__init__ (12,430 us, 0.01%)</title><rect x="496.2" y="87" width="0.2" height="15.0" fill="rgb(0,0,0)" rx="2" ry="2" />
<text  x="499.20" y="97.5" ></text>
</g>
<g >
<title>MatMultAdd (21,933 us, 0.02%)</title><rect x="567.4" y="183" width="0.3" height="15.0" fill="rgb(0,0,0)" rx="2" ry="2" />
<text  x="570.43" y="193.5" ></text>
</g>
<g >
<title>CreateSparsity (200,555 us, 0.22%)</title><rect x="312.2" y="135" width="2.5" height="15.0" fill="rgb(0,0,0)" rx="2" ry="2" />
<text  x="315.16" y="145.5" ></text>
</g>
<g >
<title>PCApply (46,827 us, 0.05%)</title><rect x="577.7" y="199" width="0.6" height="15.0" fill="rgb(0,0,0)" rx="2" ry="2" />
<text  x="580.71" y="209.5" ></text>
</g>
<g >
<title>PCApply (1,493,758 us, 1.64%)</title><rect x="515.2" y="231" width="19.3" height="15.0" fill="rgb(0,0,0)" rx="2" ry="2" />
<text  x="518.21" y="241.5" ></text>
</g>
<g >
<title>CreateFunctionSpace (24,839 us, 0.03%)</title><rect x="33.6" y="71" width="0.3" height="15.0" fill="rgb(0,0,0)" rx="2" ry="2" />
<text  x="36.62" y="81.5" ></text>
</g>
<g >
<title>KSPSolve (2,305,090 us, 2.52%)</title><rect x="505.4" y="183" width="29.8" height="15.0" fill="rgb(0,0,0)" rx="2" ry="2" />
<text  x="508.38" y="193.5" >K..</text>
</g>
<g >
<title>MatMult (224,213 us, 0.25%)</title><rect x="502.5" y="119" width="2.9" height="15.0" fill="rgb(0,0,0)" rx="2" ry="2" />
<text  x="505.49" y="129.5" ></text>
</g>
<g >
<title>MatSOR (1,494,285 us, 1.64%)</title><rect x="588.3" y="279" width="19.3" height="15.0" fill="rgb(0,0,0)" rx="2" ry="2" />
<text  x="591.30" y="289.5" ></text>
</g>
<g >
<title>all (91,355,845 us, 100%)</title><rect x="10.0" y="39" width="1180.0" height="15.0" fill="rgb(0,0,0)" rx="2" ry="2" />
<text  x="13.00" y="49.5" ></text>
</g>
<g >
<title>MatPtAPNumeric (93,433 us, 0.10%)</title><rect x="573.7" y="199" width="1.2" height="15.0" fill="rgb(0,0,0)" rx="2" ry="2" />
<text  x="576.68" y="209.5" ></text>
</g>
<g >
<title>VecAYPX (18,986 us, 0.02%)</title><rect x="534.9" y="199" width="0.3" height="15.0" fill="rgb(0,0,0)" rx="2" ry="2" />
<text  x="537.91" y="209.5" ></text>
</g>
<g >
<title>KSPSolve (2,498,385 us, 2.73%)</title><rect x="537.6" y="151" width="32.3" height="15.0" fill="rgb(0,0,0)" rx="2" ry="2" />
<text  x="540.59" y="161.5" >KS..</text>
</g>
<g >
<title>MatSOR (1,496,809 us, 1.64%)</title><rect x="547.4" y="247" width="19.3" height="15.0" fill="rgb(0,0,0)" rx="2" ry="2" />
<text  x="550.41" y="257.5" ></text>
</g>
<g >
<title>Parloop_Cells_wrap_form_cell_integral_otherwise (11,271,673 us, 12.34%)</title><rect x="329.4" y="135" width="145.6" height="15.0" fill="rgb(0,0,0)" rx="2" ry="2" />
<text  x="332.41" y="145.5" >Parloop_Cells_wr..</text>
</g>
<g >
<title>MatAXPY (16,481 us, 0.02%)</title><rect x="613.4" y="119" width="0.2" height="15.0" fill="rgb(0,0,0)" rx="2" ry="2" />
<text  x="616.42" y="129.5" ></text>
</g>
<g >
<title>KSPSolve (2,305,499 us, 2.52%)</title><rect x="578.5" y="215" width="29.8" height="15.0" fill="rgb(0,0,0)" rx="2" ry="2" />
<text  x="581.48" y="225.5" >K..</text>
</g>
<g >
<title>MatMult (139,907 us, 0.15%)</title><rect x="535.8" y="199" width="1.8" height="15.0" fill="rgb(0,0,0)" rx="2" ry="2" />
<text  x="538.79" y="209.5" ></text>
</g>
<g >
<title>PCApply (2,498,385 us, 2.73%)</title><rect x="537.6" y="167" width="32.3" height="15.0" fill="rgb(0,0,0)" rx="2" ry="2" />
<text  x="540.59" y="177.5" >PC..</text>
</g>
<g >
<title>firedrake.norms.errornorm (12,913,066 us, 14.13%)</title><rect x="329.4" y="71" width="166.8" height="15.0" fill="rgb(0,0,0)" rx="2" ry="2" />
<text  x="332.41" y="81.5" >firedrake.norms.err..</text>
</g>
<g >
<title>MatPtAPNumeric (58,303 us, 0.06%)</title><rect x="572.5" y="199" width="0.8" height="15.0" fill="rgb(0,0,0)" rx="2" ry="2" />
<text  x="575.50" y="209.5" ></text>
</g>
<g >
<title>MatTrnMatMultSym (68,852 us, 0.08%)</title><rect x="569.9" y="215" width="0.9" height="15.0" fill="rgb(0,0,0)" rx="2" ry="2" />
<text  x="572.86" y="225.5" ></text>
</g>
<g >
<title>MatMult (738,340 us, 0.81%)</title><rect x="505.5" y="199" width="9.5" height="15.0" fill="rgb(0,0,0)" rx="2" ry="2" />
<text  x="508.51" y="209.5" ></text>
</g>
<g >
<title>MatSOR (46,827 us, 0.05%)</title><rect x="577.7" y="247" width="0.6" height="15.0" fill="rgb(0,0,0)" rx="2" ry="2" />
<text  x="580.71" y="257.5" ></text>
</g>
<g >
<title>firedrake.solving_utils._SNESContext.split (34,010 us, 0.04%)</title><rect x="614.3" y="135" width="0.5" height="15.0" fill="rgb(0,0,0)" rx="2" ry="2" />
<text  x="617.31" y="145.5" ></text>
</g>
<g >
<title>VecSet (17,633 us, 0.02%)</title><rect x="607.6" y="263" width="0.2" height="15.0" fill="rgb(0,0,0)" rx="2" ry="2" />
<text  x="610.60" y="273.5" ></text>
</g>
<g >
<title>MatResidual (139,981 us, 0.15%)</title><rect x="608.9" y="215" width="1.8" height="15.0" fill="rgb(0,0,0)" rx="2" ry="2" />
<text  x="611.89" y="225.5" ></text>
</g>
<g >
<title>Parloop_Cells_wrap_form1_cell_integral_otherwise (4,445,545 us, 4.87%)</title><rect x="673.9" y="135" width="57.4" height="15.0" fill="rgb(0,0,0)" rx="2" ry="2" />
<text  x="676.86" y="145.5" >Parlo..</text>
</g>
<g >
<title>firedrake.functionspacedata.FunctionSpaceData.__init__ (24,839 us, 0.03%)</title><rect x="33.6" y="119" width="0.3" height="15.0" fill="rgb(0,0,0)" rx="2" ry="2" />
<text  x="36.62" y="129.5" ></text>
</g>
<g >
<title>PCGAMGCoarse_AGG (68,852 us, 0.08%)</title><rect x="569.9" y="183" width="0.9" height="15.0" fill="rgb(0,0,0)" rx="2" ry="2" />
<text  x="572.86" y="193.5" ></text>
</g>
<g >
<title>Log_Event_form00_cell_integral_otherwise (10,069 us, 0.01%)</title><rect x="750.7" y="151" width="0.1" height="15.0" fill="rgb(0,0,0)" rx="2" ry="2" />
<text  x="753.70" y="161.5" ></text>
</g>
<g >
<title>ParLoopExecute (31,899,678 us, 34.92%)</title><rect x="750.3" y="119" width="412.0" height="15.0" fill="rgb(0,0,0)" rx="2" ry="2" />
<text  x="753.30" y="129.5" >ParLoopExecute</text>
</g>
<g >
<title>firedrake.tsfc_interface.compile_form (580,371 us, 0.64%)</title><rect x="315.5" y="119" width="7.5" height="15.0" fill="rgb(0,0,0)" rx="2" ry="2" />
<text  x="318.54" y="129.5" ></text>
</g>
<g >
<title>KSPSolve (2,309,694 us, 2.53%)</title><rect x="537.6" y="183" width="29.8" height="15.0" fill="rgb(0,0,0)" rx="2" ry="2" />
<text  x="540.59" y="193.5" >K..</text>
</g>
<g >
<title>PCSetUp (654,282 us, 0.72%)</title><rect x="569.9" y="151" width="8.4" height="15.0" fill="rgb(0,0,0)" rx="2" ry="2" />
<text  x="572.86" y="161.5" ></text>
</g>
<g >
<title>VecSet (18,129 us, 0.02%)</title><rect x="566.7" y="231" width="0.3" height="15.0" fill="rgb(0,0,0)" rx="2" ry="2" />
<text  x="569.75" y="241.5" ></text>
</g>
<g >
<title>PCApply (46,827 us, 0.05%)</title><rect x="577.7" y="231" width="0.6" height="15.0" fill="rgb(0,0,0)" rx="2" ry="2" />
<text  x="580.71" y="241.5" ></text>
</g>
<g >
<title>PCGAMGGraph_AGG (82,163 us, 0.09%)</title><rect x="570.8" y="183" width="1.0" height="15.0" fill="rgb(0,0,0)" rx="2" ry="2" />
<text  x="573.75" y="193.5" ></text>
</g>
<g >
<title>GAMG: createProl (204,061 us, 0.22%)</title><rect x="569.9" y="167" width="2.6" height="15.0" fill="rgb(0,0,0)" rx="2" ry="2" />
<text  x="572.86" y="177.5" ></text>
</g>
<g >
<title>VecAYPX (19,060 us, 0.02%)</title><rect x="567.2" y="199" width="0.2" height="15.0" fill="rgb(0,0,0)" rx="2" ry="2" />
<text  x="570.18" y="209.5" ></text>
</g>
<g >
<title>Log_Event_form01_cell_integral_otherwise (13,234 us, 0.01%)</title><rect x="900.1" y="151" width="0.2" height="15.0" fill="rgb(0,0,0)" rx="2" ry="2" />
<text  x="903.12" y="161.5" ></text>
</g>
<g >
<title>pyop2.global_kernel.GlobalKernel.compile (11,261,808 us, 12.33%)</title><rect x="329.5" y="151" width="145.5" height="15.0" fill="rgb(0,0,0)" rx="2" ry="2" />
<text  x="332.54" y="161.5" >pyop2.global_ker..</text>
</g>
<g >
<title>KSPSolve (8,623,372 us, 9.44%)</title><rect x="501.8" y="103" width="111.4" height="15.0" fill="rgb(0,0,0)" rx="2" ry="2" />
<text  x="504.81" y="113.5" >KSPSolve</text>
</g>
<g >
<title>ParLoopExecute (728,147 us, 0.80%)</title><rect x="53.6" y="119" width="9.4" height="15.0" fill="rgb(0,0,0)" rx="2" ry="2" />
<text  x="56.58" y="129.5" ></text>
</g>
<g >
<title>Log_Event_form1_cell_integral_otherwise (23,923 us, 0.03%)</title><rect x="673.9" y="151" width="0.3" height="15.0" fill="rgb(0,0,0)" rx="2" ry="2" />
<text  x="676.86" y="161.5" ></text>
</g>
<g >
<title>  SA: smooth (24,426 us, 0.03%)</title><rect x="571.8" y="199" width="0.3" height="15.0" fill="rgb(0,0,0)" rx="2" ry="2" />
<text  x="574.82" y="209.5" ></text>
</g>
<g >
<title>Parloop_Cells_wrap_form10_cell_integral_otherwise (9,537,718 us, 10.44%)</title><rect x="1039.1" y="135" width="123.2" height="15.0" fill="rgb(0,0,0)" rx="2" ry="2" />
<text  x="1042.14" y="145.5" >Parloop_Cells_..</text>
</g>
<g >
<title>firedrake.__init__ (1,520,381 us, 1.66%)</title><rect x="33.9" y="71" width="19.7" height="15.0" fill="rgb(0,0,0)" rx="2" ry="2" />
<text  x="36.94" y="81.5" ></text>
</g>
<g >
<title>SNESJacobianEval (34,051,372 us, 37.27%)</title><rect x="750.2" y="103" width="439.8" height="15.0" fill="rgb(0,0,0)" rx="2" ry="2" />
<text  x="753.17" y="113.5" >SNESJacobianEval</text>
</g>
<g >
<title>MatResidual (140,003 us, 0.15%)</title><rect x="568.1" y="183" width="1.8" height="15.0" fill="rgb(0,0,0)" rx="2" ry="2" />
<text  x="571.06" y="193.5" ></text>
</g>
<g >
<title>MatCholFctrNum (27,821 us, 0.03%)</title><rect x="323.3" y="151" width="0.3" height="15.0" fill="rgb(0,0,0)" rx="2" ry="2" />
<text  x="326.28" y="161.5" ></text>
</g>
<g >
<title>MatPtAPSymbolic (67,504 us, 0.07%)</title><rect x="574.9" y="199" width="0.9" height="15.0" fill="rgb(0,0,0)" rx="2" ry="2" />
<text  x="577.88" y="209.5" ></text>
</g>
<g >
<title>Parloop_set_#x7f6825f5cc10_wrap_expression_kernel (360,790 us, 0.39%)</title><rect x="58.3" y="135" width="4.7" height="15.0" fill="rgb(0,0,0)" rx="2" ry="2" />
<text  x="61.33" y="145.5" ></text>
</g>
<g >
<title>MatMult (140,003 us, 0.15%)</title><rect x="568.1" y="199" width="1.8" height="15.0" fill="rgb(0,0,0)" rx="2" ry="2" />
<text  x="571.06" y="209.5" ></text>
</g>
<g >
<title>VecScatterBegin (11,727 us, 0.01%)</title><rect x="613.0" y="135" width="0.2" height="15.0" fill="rgb(0,0,0)" rx="2" ry="2" />
<text  x="616.05" y="145.5" ></text>
</g>
<g >
<title>MatCreateSubMats (36,192 us, 0.04%)</title><rect x="613.6" y="119" width="0.5" height="15.0" fill="rgb(0,0,0)" rx="2" ry="2" />
<text  x="616.63" y="129.5" ></text>
</g>
<g >
<title>MatSolve (40,992 us, 0.04%)</title><rect x="611.5" y="215" width="0.6" height="15.0" fill="rgb(0,0,0)" rx="2" ry="2" />
<text  x="614.54" y="225.5" ></text>
</g>
<g >
<title>SNESFunctionEval (10,484,391 us, 11.48%)</title><rect x="614.8" y="103" width="135.4" height="15.0" fill="rgb(0,0,0)" rx="2" ry="2" />
<text  x="617.75" y="113.5" >SNESFunctionEval</text>
</g>
<g >
<title>MatZeroInitial (91,184 us, 0.10%)</title><rect x="500.6" y="103" width="1.2" height="15.0" fill="rgb(0,0,0)" rx="2" ry="2" />
<text  x="503.64" y="113.5" ></text>
</g>
<g >
<title>Parloop_Cells_wrap_form0_cell_integral_otherwise (4,576,263 us, 5.01%)</title><rect x="614.8" y="135" width="59.1" height="15.0" fill="rgb(0,0,0)" rx="2" ry="2" />
<text  x="617.75" y="145.5" >Parlo..</text>
</g>
<g >
<title>PCGAMGPOpt_AGG (53,046 us, 0.06%)</title><rect x="571.8" y="183" width="0.7" height="15.0" fill="rgb(0,0,0)" rx="2" ry="2" />
<text  x="574.82" y="193.5" ></text>
</g>
<g >
<title>firedrake.function.Function.project (20,606,048 us, 22.56%)</title><rect x="63.3" y="71" width="266.1" height="15.0" fill="rgb(0,0,0)" rx="2" ry="2" />
<text  x="66.25" y="81.5" >firedrake.function.Function.proj..</text>
</g>
<g >
<title>VecAYPX (18,595 us, 0.02%)</title><rect x="608.0" y="231" width="0.3" height="15.0" fill="rgb(0,0,0)" rx="2" ry="2" />
<text  x="611.02" y="241.5" ></text>
</g>
<g >
<title>firedrake.projection.project (20,606,048 us, 22.56%)</title><rect x="63.3" y="87" width="266.1" height="15.0" fill="rgb(0,0,0)" rx="2" ry="2" />
<text  x="66.25" y="97.5" >firedrake.projection.project</text>
</g>
<g >
<title>ParLoopExecute (14,775,552 us, 16.17%)</title><rect x="121.3" y="119" width="190.9" height="15.0" fill="rgb(0,0,0)" rx="2" ry="2" />
<text  x="124.31" y="129.5" >ParLoopExecute</text>
</g>
<g >
<title>pyop2.global_kernel.GlobalKernel.compile (360,790 us, 0.39%)</title><rect x="58.3" y="151" width="4.7" height="15.0" fill="rgb(0,0,0)" rx="2" ry="2" />
<text  x="61.33" y="161.5" ></text>
</g>
<g >
<title>CreateSparsity (330,641 us, 0.36%)</title><rect x="496.4" y="103" width="4.2" height="15.0" fill="rgb(0,0,0)" rx="2" ry="2" />
<text  x="499.36" y="113.5" ></text>
</g>
<g >
<title>KSPSolve (40,992 us, 0.04%)</title><rect x="611.5" y="183" width="0.6" height="15.0" fill="rgb(0,0,0)" rx="2" ry="2" />
<text  x="614.54" y="193.5" ></text>
</g>
<g >
<title>KSPSolve (2,493,799 us, 2.73%)</title><rect x="505.4" y="151" width="32.2" height="15.0" fill="rgb(0,0,0)" rx="2" ry="2" />
<text  x="508.38" y="161.5" >KS..</text>
</g>
<g >
<title>MatConvert (10,757 us, 0.01%)</title><rect x="571.7" y="215" width="0.1" height="15.0" fill="rgb(0,0,0)" rx="2" ry="2" />
<text  x="574.68" y="225.5" ></text>
</g>
<g >
<title>pyop2.global_kernel.GlobalKernel.compile (895,291 us, 0.98%)</title><rect x="22.1" y="135" width="11.5" height="15.0" fill="rgb(0,0,0)" rx="2" ry="2" />
<text  x="25.06" y="145.5" ></text>
</g>
<g >
<title>firedrake.assemble.assemble (12,913,066 us, 14.13%)</title><rect x="329.4" y="103" width="166.8" height="15.0" fill="rgb(0,0,0)" rx="2" ry="2" />
<text  x="332.41" y="113.5" >firedrake.assemble...</text>
</g>
<g >
<title>MatMultAdd (21,867 us, 0.02%)</title><rect x="608.3" y="215" width="0.2" height="15.0" fill="rgb(0,0,0)" rx="2" ry="2" />
<text  x="611.26" y="225.5" ></text>
</g>
<g >
<title>MatMult (139,981 us, 0.15%)</title><rect x="608.9" y="231" width="1.8" height="15.0" fill="rgb(0,0,0)" rx="2" ry="2" />
<text  x="611.89" y="241.5" ></text>
</g>
<g >
<title>PCGAMG Squ l00 (68,852 us, 0.08%)</title><rect x="569.9" y="199" width="0.9" height="15.0" fill="rgb(0,0,0)" rx="2" ry="2" />
<text  x="572.86" y="209.5" ></text>
</g>
<g >
<title>Parloop_set_#x7f68245d86d0_wrap_expression_kernel (367,357 us, 0.40%)</title><rect x="53.6" y="135" width="4.7" height="15.0" fill="rgb(0,0,0)" rx="2" ry="2" />
<text  x="56.58" y="145.5" ></text>
</g>
<g >
<title>firedrake.variational_solver.LinearVariationalProblem.__init__ (12,430 us, 0.01%)</title><rect x="496.2" y="71" width="0.2" height="15.0" fill="rgb(0,0,0)" rx="2" ry="2" />
<text  x="499.20" y="81.5" ></text>
</g>
<g >
<title>MatMultTranspose (26,755 us, 0.03%)</title><rect x="567.7" y="183" width="0.4" height="15.0" fill="rgb(0,0,0)" rx="2" ry="2" />
<text  x="570.71" y="193.5" ></text>
</g>
<g >
<title>firedrake.functionspacedata.get_shared_data (24,839 us, 0.03%)</title><rect x="33.6" y="103" width="0.3" height="15.0" fill="rgb(0,0,0)" rx="2" ry="2" />
<text  x="36.62" y="113.5" ></text>
</g>
<g >
<title>SNESSolve (53,279,580 us, 58.32%)</title><rect x="501.8" y="87" width="688.2" height="15.0" fill="rgb(0,0,0)" rx="2" ry="2" />
<text  x="504.81" y="97.5" >SNESSolve</text>
</g>
<g >
<title>MatMult (28,620 us, 0.03%)</title><rect x="572.1" y="215" width="0.4" height="15.0" fill="rgb(0,0,0)" rx="2" ry="2" />
<text  x="575.13" y="225.5" ></text>
</g>
<g >
<title>PCApply (40,992 us, 0.04%)</title><rect x="611.5" y="199" width="0.6" height="15.0" fill="rgb(0,0,0)" rx="2" ry="2" />
<text  x="614.54" y="209.5" ></text>
</g>
<g >
<title>firedrake.assemble.assemble (15,617,600 us, 17.10%)</title><rect x="121.3" y="103" width="201.7" height="15.0" fill="rgb(0,0,0)" rx="2" ry="2" />
<text  x="124.31" y="113.5" >firedrake.assemble.assem..</text>
</g>
<g >
<title>PCSetUpOnBlocks (27,821 us, 0.03%)</title><rect x="323.3" y="119" width="0.3" height="15.0" fill="rgb(0,0,0)" rx="2" ry="2" />
<text  x="326.28" y="129.5" ></text>
</g>
<g >
<title>FunctionSpaceData: CreateElement (11,471 us, 0.01%)</title><rect x="33.8" y="135" width="0.1" height="15.0" fill="rgb(0,0,0)" rx="2" ry="2" />
<text  x="36.80" y="145.5" ></text>
</g>
<g >
<title>MatSolve (9,694 us, 0.01%)</title><rect x="323.2" y="183" width="0.1" height="15.0" fill="rgb(0,0,0)" rx="2" ry="2" />
<text  x="326.15" y="193.5" ></text>
</g>
<g >
<title>PCApply (8,346,970 us, 9.14%)</title><rect x="505.4" y="119" width="107.8" height="15.0" fill="rgb(0,0,0)" rx="2" ry="2" />
<text  x="508.38" y="129.5" >PCApply</text>
</g>
<g >
<title>MatMatMultSym (9,809 us, 0.01%)</title><rect x="572.0" y="231" width="0.1" height="15.0" fill="rgb(0,0,0)" rx="2" ry="2" />
<text  x="575.00" y="241.5" ></text>
</g>
<g >
<title>PCApply (9,694 us, 0.01%)</title><rect x="323.2" y="135" width="0.1" height="15.0" fill="rgb(0,0,0)" rx="2" ry="2" />
<text  x="326.15" y="145.5" ></text>
</g>
<g >
<title>firedrake.formmanipulation.ExtractSubBlock.split (9,488 us, 0.01%)</title><rect x="1189.9" y="151" width="0.1" height="15.0" fill="rgb(0,0,0)" rx="2" ry="2" />
<text  x="1192.88" y="161.5" ></text>
</g>
<g >
<title>firedrake (91,355,845 us, 100.00%)</title><rect x="10.0" y="55" width="1180.0" height="15.0" fill="rgb(0,0,0)" rx="2" ry="2" />
<text  x="13.00" y="65.5" >firedrake</text>
</g>
<g >
<title>PCGAMG Gal l02 (128,003 us, 0.14%)</title><rect x="575.8" y="183" width="1.6" height="15.0" fill="rgb(0,0,0)" rx="2" ry="2" />
<text  x="578.75" y="193.5" ></text>
</g>
<g >
<title>MatMult (66,163 us, 0.07%)</title><rect x="612.2" y="135" width="0.8" height="15.0" fill="rgb(0,0,0)" rx="2" ry="2" />
<text  x="615.19" y="145.5" ></text>
</g>
<g >
<title>firedrake.extrusion_utils.make_extruded_coords (927,968 us, 1.02%)</title><rect x="21.6" y="87" width="12.0" height="15.0" fill="rgb(0,0,0)" rx="2" ry="2" />
<text  x="24.64" y="97.5" ></text>
</g>
<g >
<title>PCGAMG Gal l01 (160,937 us, 0.18%)</title><rect x="573.7" y="183" width="2.1" height="15.0" fill="rgb(0,0,0)" rx="2" ry="2" />
<text  x="576.68" y="193.5" ></text>
</g>
<g >
<title>firedrake.assemble.assemble (748,777 us, 0.82%)</title><rect x="53.6" y="71" width="9.7" height="15.0" fill="rgb(0,0,0)" rx="2" ry="2" />
<text  x="56.58" y="81.5" ></text>
</g>
<g >
<title>PCSetUpOnBlocks (9,272 us, 0.01%)</title><rect x="612.1" y="151" width="0.1" height="15.0" fill="rgb(0,0,0)" rx="2" ry="2" />
<text  x="615.07" y="161.5" ></text>
</g>
<g >
<title>pyop2.global_kernel.GlobalKernel.compile (4,542,081 us, 4.97%)</title><rect x="615.2" y="151" width="58.7" height="15.0" fill="rgb(0,0,0)" rx="2" ry="2" />
<text  x="618.19" y="161.5" >pyop2..</text>
</g>
<g >
<title>KSPSolve (9,694 us, 0.01%)</title><rect x="323.2" y="151" width="0.1" height="15.0" fill="rgb(0,0,0)" rx="2" ry="2" />
<text  x="326.15" y="161.5" ></text>
</g>
<g >
<title>MatMultTranspose (26,678 us, 0.03%)</title><rect x="608.5" y="215" width="0.4" height="15.0" fill="rgb(0,0,0)" rx="2" ry="2" />
<text  x="611.54" y="225.5" ></text>
</g>
<g >
<title>pyop2.global_kernel.GlobalKernel.compile (4,475,814 us, 4.90%)</title><rect x="63.5" y="135" width="57.8" height="15.0" fill="rgb(0,0,0)" rx="2" ry="2" />
<text  x="66.50" y="145.5" >pyop2..</text>
</g>
<g >
<title>KSPSolve (1,527,729 us, 1.67%)</title><rect x="547.2" y="215" width="19.8" height="15.0" fill="rgb(0,0,0)" rx="2" ry="2" />
<text  x="550.25" y="225.5" ></text>
</g>
<g >
<title>PCGAMG Gal l00 (91,017 us, 0.10%)</title><rect x="572.5" y="183" width="1.2" height="15.0" fill="rgb(0,0,0)" rx="2" ry="2" />
<text  x="575.50" y="193.5" ></text>
</g>
<g >
<title>VecSet (16,424 us, 0.02%)</title><rect x="534.5" y="231" width="0.2" height="15.0" fill="rgb(0,0,0)" rx="2" ry="2" />
<text  x="537.50" y="241.5" ></text>
</g>
<g >
<title>KSPSolve (1,522,703 us, 1.67%)</title><rect x="515.0" y="215" width="19.7" height="15.0" fill="rgb(0,0,0)" rx="2" ry="2" />
<text  x="518.04" y="225.5" ></text>
</g>
<g >
<title>MatMult (23,437 us, 0.03%)</title><rect x="577.4" y="199" width="0.3" height="15.0" fill="rgb(0,0,0)" rx="2" ry="2" />
<text  x="580.41" y="209.5" ></text>
</g>
<g >
<title>VecMAXPY (12,831 us, 0.01%)</title><rect x="502.0" y="135" width="0.1" height="15.0" fill="rgb(0,0,0)" rx="2" ry="2" />
<text  x="504.96" y="145.5" ></text>
</g>
<g >
<title>PCApply (1,522,703 us, 1.67%)</title><rect x="515.0" y="199" width="19.7" height="15.0" fill="rgb(0,0,0)" rx="2" ry="2" />
<text  x="518.04" y="209.5" ></text>
</g>
<g >
<title>MatMultTranspose (26,827 us, 0.03%)</title><rect x="535.4" y="183" width="0.4" height="15.0" fill="rgb(0,0,0)" rx="2" ry="2" />
<text  x="538.44" y="193.5" ></text>
</g>
<g >
<title>PCApply (1,524,373 us, 1.67%)</title><rect x="588.1" y="231" width="19.7" height="15.0" fill="rgb(0,0,0)" rx="2" ry="2" />
<text  x="591.14" y="241.5" ></text>
</g>
<g >
<title>firedrake.tsfc_interface.compile_form (447,136 us, 0.49%)</title><rect x="323.6" y="103" width="5.8" height="15.0" fill="rgb(0,0,0)" rx="2" ry="2" />
<text  x="326.64" y="113.5" ></text>
</g>
<g >
<title>PCSetUp (9,272 us, 0.01%)</title><rect x="612.1" y="167" width="0.1" height="15.0" fill="rgb(0,0,0)" rx="2" ry="2" />
<text  x="615.07" y="177.5" ></text>
</g>
<g >
<title>KSPSolve_FS_0 (2,493,799 us, 2.73%)</title><rect x="505.4" y="135" width="32.2" height="15.0" fill="rgb(0,0,0)" rx="2" ry="2" />
<text  x="508.38" y="145.5" >KS..</text>
</g>
<g >
<title>PCApply (1,494,285 us, 1.64%)</title><rect x="588.3" y="263" width="19.3" height="15.0" fill="rgb(0,0,0)" rx="2" ry="2" />
<text  x="591.30" y="273.5" ></text>
</g>
<g >
<title>CreateExtMesh (938,608 us, 1.03%)</title><rect x="21.5" y="71" width="12.1" height="15.0" fill="rgb(0,0,0)" rx="2" ry="2" />
<text  x="24.50" y="81.5" ></text>
</g>
<g >
<title>ParLoopExecute (4,485,262 us, 4.91%)</title><rect x="63.4" y="103" width="57.9" height="15.0" fill="rgb(0,0,0)" rx="2" ry="2" />
<text  x="66.37" y="113.5" >ParLo..</text>
</g>
<g >
<title>KSPSolve_FS_Schu (2,622,614 us, 2.87%)</title><rect x="578.3" y="135" width="33.9" height="15.0" fill="rgb(0,0,0)" rx="2" ry="2" />
<text  x="581.32" y="145.5" >KS..</text>
</g>
<g >
<title>PCGAMG Opt l00 (9,809 us, 0.01%)</title><rect x="572.0" y="215" width="0.1" height="15.0" fill="rgb(0,0,0)" rx="2" ry="2" />
<text  x="575.00" y="225.5" ></text>
</g>
<g >
<title>MatMult (737,908 us, 0.81%)</title><rect x="578.6" y="231" width="9.5" height="15.0" fill="rgb(0,0,0)" rx="2" ry="2" />
<text  x="581.60" y="241.5" ></text>
</g>
<g >
<title>PCApply (2,493,799 us, 2.73%)</title><rect x="505.4" y="167" width="32.2" height="15.0" fill="rgb(0,0,0)" rx="2" ry="2" />
<text  x="508.38" y="177.5" >PC..</text>
</g>
<g >
<title>firedrake.tsfc_interface.compile_form (1,462,583 us, 1.60%)</title><rect x="731.3" y="119" width="18.9" height="15.0" fill="rgb(0,0,0)" rx="2" ry="2" />
<text  x="734.28" y="129.5" ></text>
</g>
<g >
<title>firedrake.assemble.allocate_matrix (421,825 us, 0.46%)</title><rect x="496.4" y="87" width="5.4" height="15.0" fill="rgb(0,0,0)" rx="2" ry="2" />
<text  x="499.36" y="97.5" ></text>
</g>
<g >
<title>pyop2.global_kernel.GlobalKernel.compile (11,542,024 us, 12.63%)</title><rect x="750.8" y="151" width="149.1" height="15.0" fill="rgb(0,0,0)" rx="2" ry="2" />
<text  x="753.83" y="161.5" >pyop2.global_kern..</text>
</g>
<g >
<title>pyop2.global_kernel.GlobalKernel.compile (9,519,112 us, 10.42%)</title><rect x="1039.4" y="151" width="122.9" height="15.0" fill="rgb(0,0,0)" rx="2" ry="2" />
<text  x="1042.38" y="161.5" >pyop2.global_k..</text>
</g>
<g >
<title>Parloop_Cells_wrap_form00_cell_integral_otherwise (11,582,648 us, 12.68%)</title><rect x="750.3" y="135" width="149.6" height="15.0" fill="rgb(0,0,0)" rx="2" ry="2" />
<text  x="753.30" y="145.5" >Parloop_Cells_wra..</text>
</g>
<g >
<title>MatMatMultSym (16,536 us, 0.02%)</title><rect x="614.1" y="119" width="0.2" height="15.0" fill="rgb(0,0,0)" rx="2" ry="2" />
<text  x="617.10" y="129.5" ></text>
</g>
<g >
<title>ParLoopExecute (895,291 us, 0.98%)</title><rect x="22.1" y="103" width="11.5" height="15.0" fill="rgb(0,0,0)" rx="2" ry="2" />
<text  x="25.06" y="113.5" ></text>
</g>
<g >
<title>MatMult (737,806 us, 0.81%)</title><rect x="537.7" y="199" width="9.5" height="15.0" fill="rgb(0,0,0)" rx="2" ry="2" />
<text  x="540.72" y="209.5" ></text>
</g>
<g >
<title>Parloop_Cells_wrap_form0_cell_integral_otherwise (4,485,262 us, 4.91%)</title><rect x="63.4" y="119" width="57.9" height="15.0" fill="rgb(0,0,0)" rx="2" ry="2" />
<text  x="66.37" y="129.5" >Parlo..</text>
</g>
<g >
<title>Parloop_Cells_wrap_form00_cell_integral_otherwise (14,775,552 us, 16.17%)</title><rect x="121.3" y="135" width="190.9" height="15.0" fill="rgb(0,0,0)" rx="2" ry="2" />
<text  x="124.31" y="145.5" >Parloop_Cells_wrap_for..</text>
</g>
<g >
<title>firedrake.tsfc_interface.compile_form (1,641,393 us, 1.80%)</title><rect x="475.0" y="119" width="21.2" height="15.0" fill="rgb(0,0,0)" rx="2" ry="2" />
<text  x="478.00" y="129.5" ></text>
</g>
<g >
<title>KSPSetUp (70,264 us, 0.08%)</title><rect x="577.4" y="167" width="0.9" height="15.0" fill="rgb(0,0,0)" rx="2" ry="2" />
<text  x="580.41" y="177.5" ></text>
</g>
<g >
<title>firedrake.tsfc_interface.compile_form (2,141,865 us, 2.34%)</title><rect x="1162.3" y="119" width="27.7" height="15.0" fill="rgb(0,0,0)" rx="2" ry="2" />
<text  x="1165.33" y="129.5" >f..</text>
</g>
<g >
<title>KSPSolve (2,494,025 us, 2.73%)</title><rect x="578.5" y="183" width="32.2" height="15.0" fill="rgb(0,0,0)" rx="2" ry="2" />
<text  x="581.48" y="193.5" >KS..</text>
</g>
<g >
<title>MatPtAPSymbolic (55,824 us, 0.06%)</title><rect x="576.7" y="199" width="0.7" height="15.0" fill="rgb(0,0,0)" rx="2" ry="2" />
<text  x="579.69" y="209.5" ></text>
</g>
<g >
<title>MatPtAPNumeric (72,179 us, 0.08%)</title><rect x="575.8" y="199" width="0.9" height="15.0" fill="rgb(0,0,0)" rx="2" ry="2" />
<text  x="578.75" y="209.5" ></text>
</g>
<g >
<title>pyop2.global_kernel.GlobalKernel.compile (14,721,973 us, 16.11%)</title><rect x="122.0" y="151" width="190.2" height="15.0" fill="rgb(0,0,0)" rx="2" ry="2" />
<text  x="125.00" y="161.5" >pyop2.global_kernel.Gl..</text>
</g>
<g >
<title>  Graph (82,163 us, 0.09%)</title><rect x="570.8" y="199" width="1.0" height="15.0" fill="rgb(0,0,0)" rx="2" ry="2" />
<text  x="573.75" y="209.5" ></text>
</g>
<g >
<title>PCSetUp (27,821 us, 0.03%)</title><rect x="323.3" y="135" width="0.3" height="15.0" fill="rgb(0,0,0)" rx="2" ry="2" />
<text  x="326.28" y="145.5" ></text>
</g>
<g >
<title>MatZeroInitial (61,122 us, 0.07%)</title><rect x="314.7" y="135" width="0.8" height="15.0" fill="rgb(0,0,0)" rx="2" ry="2" />
<text  x="317.75" y="145.5" ></text>
</g>
<g >
<title>VecMDot (27,966 us, 0.03%)</title><rect x="502.1" y="135" width="0.4" height="15.0" fill="rgb(0,0,0)" rx="2" ry="2" />
<text  x="505.13" y="145.5" ></text>
</g>
<g >
<title>VecAXPBYCZ (15,504 us, 0.02%)</title><rect x="567.0" y="199" width="0.2" height="15.0" fill="rgb(0,0,0)" rx="2" ry="2" />
<text  x="569.98" y="209.5" ></text>
</g>
<g >
<title>KSPSolve (46,827 us, 0.05%)</title><rect x="577.7" y="215" width="0.6" height="15.0" fill="rgb(0,0,0)" rx="2" ry="2" />
<text  x="580.71" y="225.5" ></text>
</g>
<g >
<title>PCApply (1,527,729 us, 1.67%)</title><rect x="547.2" y="199" width="19.8" height="15.0" fill="rgb(0,0,0)" rx="2" ry="2" />
<text  x="550.25" y="209.5" ></text>
</g>
<g >
<title>Log_Event_form0_cell_integral_otherwise (9,448 us, 0.01%)</title><rect x="63.4" y="135" width="0.1" height="15.0" fill="rgb(0,0,0)" rx="2" ry="2" />
<text  x="66.37" y="145.5" ></text>
</g>
<g >
<title>KSPSolve (70,264 us, 0.08%)</title><rect x="577.4" y="183" width="0.9" height="15.0" fill="rgb(0,0,0)" rx="2" ry="2" />
<text  x="580.41" y="193.5" ></text>
</g>
<g >
<title>firedrake.ufl_expr.adjoint (12,430 us, 0.01%)</title><rect x="496.2" y="103" width="0.2" height="15.0" fill="rgb(0,0,0)" rx="2" ry="2" />
<text  x="499.20" y="113.5" ></text>
</g>
<g >
<title>PCApply (9,694 us, 0.01%)</title><rect x="323.2" y="167" width="0.1" height="15.0" fill="rgb(0,0,0)" rx="2" ry="2" />
<text  x="326.15" y="177.5" ></text>
</g>
<g >
<title>PCApply (1,496,809 us, 1.64%)</title><rect x="547.4" y="231" width="19.3" height="15.0" fill="rgb(0,0,0)" rx="2" ry="2" />
<text  x="550.41" y="241.5" ></text>
</g>
<g >
<title>PCSetUp (120,445 us, 0.13%)</title><rect x="613.2" y="103" width="1.6" height="15.0" fill="rgb(0,0,0)" rx="2" ry="2" />
<text  x="616.20" y="113.5" ></text>
</g>
<g >
<title>Log_Event_form0_cell_integral_otherwise (34,182 us, 0.04%)</title><rect x="614.8" y="151" width="0.4" height="15.0" fill="rgb(0,0,0)" rx="2" ry="2" />
<text  x="617.75" y="161.5" ></text>
</g>
<g >
<title>KSPSolve (18,953 us, 0.02%)</title><rect x="323.0" y="119" width="0.3" height="15.0" fill="rgb(0,0,0)" rx="2" ry="2" />
<text  x="326.03" y="129.5" ></text>
</g>
<g >
<title>firedrake.ufl_expr.adjoint (21,564 us, 0.02%)</title><rect x="614.5" y="167" width="0.3" height="15.0" fill="rgb(0,0,0)" rx="2" ry="2" />
<text  x="617.47" y="177.5" ></text>
</g>
<g >
<title>firedrake.variational_solver.NonlinearVariationalProblem.__init__ (21,564 us, 0.02%)</title><rect x="614.5" y="151" width="0.3" height="15.0" fill="rgb(0,0,0)" rx="2" ry="2" />
<text  x="617.47" y="161.5" ></text>
</g>
<g >
<title>MatMultAdd (21,975 us, 0.02%)</title><rect x="535.2" y="183" width="0.2" height="15.0" fill="rgb(0,0,0)" rx="2" ry="2" />
<text  x="538.16" y="193.5" ></text>
</g>
<g >
<title>MatMult (65,454 us, 0.07%)</title><rect x="610.7" y="183" width="0.8" height="15.0" fill="rgb(0,0,0)" rx="2" ry="2" />
<text  x="613.70" y="193.5" ></text>
</g>
<g >
<title>GAMG: partLevel (379,957 us, 0.42%)</title><rect x="572.5" y="167" width="4.9" height="15.0" fill="rgb(0,0,0)" rx="2" ry="2" />
<text  x="575.50" y="177.5" ></text>
</g>
<g >
<title>KSPSolve (28,620 us, 0.03%)</title><rect x="572.1" y="199" width="0.4" height="15.0" fill="rgb(0,0,0)" rx="2" ry="2" />
<text  x="575.13" y="209.5" ></text>
</g>
<g >
<title>firedrake.variational_solver.NonlinearVariationalSolver.__init__ (421,825 us, 0.46%)</title><rect x="496.4" y="71" width="5.4" height="15.0" fill="rgb(0,0,0)" rx="2" ry="2" />
<text  x="499.36" y="81.5" ></text>
</g>
<g >
<title>Parloop_Cells_wrap_form01_cell_integral_otherwise (10,779,312 us, 11.80%)</title><rect x="899.9" y="135" width="139.2" height="15.0" fill="rgb(0,0,0)" rx="2" ry="2" />
<text  x="902.91" y="145.5" >Parloop_Cells_wr..</text>
</g>
<g >
<title>firedrake.linear_solver.LinearSolver.solve (46,774 us, 0.05%)</title><rect x="323.0" y="103" width="0.6" height="15.0" fill="rgb(0,0,0)" rx="2" ry="2" />
<text  x="326.03" y="113.5" ></text>
</g>
<g >
<title>pyop2.caching.disk_cached.&lt;locals&gt;.decorator.&lt;locals&gt;.wrapper (20,630 us, 0.02%)</title><rect x="63.0" y="119" width="0.3" height="15.0" fill="rgb(0,0,0)" rx="2" ry="2" />
<text  x="65.99" y="129.5" ></text>
</g>
<g >
<title>firedrake.formmanipulation.split_form (9,488 us, 0.01%)</title><rect x="1189.9" y="135" width="0.1" height="15.0" fill="rgb(0,0,0)" rx="2" ry="2" />
<text  x="1192.88" y="145.5" ></text>
</g>
<g >
<title>VecAXPBYCZ (15,480 us, 0.02%)</title><rect x="534.7" y="199" width="0.2" height="15.0" fill="rgb(0,0,0)" rx="2" ry="2" />
<text  x="537.71" y="209.5" ></text>
</g>
<g >
<title>ParLoopExecute (9,021,808 us, 9.88%)</title><rect x="614.8" y="119" width="116.5" height="15.0" fill="rgb(0,0,0)" rx="2" ry="2" />
<text  x="617.75" y="129.5" >ParLoopExecute</text>
</g>
<g >
<title>VecAXPBYCZ (15,113 us, 0.02%)</title><rect x="607.8" y="231" width="0.2" height="15.0" fill="rgb(0,0,0)" rx="2" ry="2" />
<text  x="610.83" y="241.5" ></text>
</g>
</g>
</svg>
