<?xml version="1.0" standalone="no"?>
<!DOCTYPE svg PUBLIC "-//W3C//DTD SVG 1.1//EN" "http://www.w3.org/Graphics/SVG/1.1/DTD/svg11.dtd">
<svg version="1.1" width="1200" height="363" onload="init(evt)" viewBox="0 0 1200 363" xmlns="http://www.w3.org/2000/svg" xmlns:xlink="http://www.w3.org/1999/xlink">
<!-- Flame graph stack visualization. See https://github.com/brendangregg/FlameGraph for latest version, and http://www.brendangregg.com/flamegraphs.html for examples. -->
<!-- NOTES:  -->
<defs>
	<linearGradient id="background" y1="0" y2="1" x1="0" x2="0" >
		<stop stop-color="#eeeeee" offset="5%" />
		<stop stop-color="#eeeeb0" offset="95%" />
	</linearGradient>
</defs>
<style type="text/css">
	text { font-family:Verdana; font-size:13px; fill:rgb(0,0,0); }
	#search, #ignorecase { opacity:0.1; cursor:pointer; }
	#search:hover, #search.show, #ignorecase:hover, #ignorecase.show { opacity:1; }
	#subtitle { text-anchor:middle; font-color:rgb(160,160,160); }
	#title { text-anchor:middle; font-size:18px}
	#unzoom { cursor:pointer; }
	#frames > *:hover { stroke:black; stroke-width:0.5; cursor:pointer; }
	.hide { display:none; }
	.parent { opacity:0.5; }
</style>
<script type="text/ecmascript">
<![CDATA[
	"use strict";
	var details, searchbtn, unzoombtn, matchedtxt, svg, searching, currentSearchTerm, ignorecase, ignorecaseBtn;
	function init(evt) {
		details = document.getElementById("details").firstChild;
		searchbtn = document.getElementById("search");
		ignorecaseBtn = document.getElementById("ignorecase");
		unzoombtn = document.getElementById("unzoom");
		matchedtxt = document.getElementById("matched");
		svg = document.getElementsByTagName("svg")[0];
		searching = 0;
		currentSearchTerm = null;

		// use GET parameters to restore a flamegraphs state.
		var params = get_params();
		if (params.x && params.y)
			zoom(find_group(document.querySelector('[x="' + params.x + '"][y="' + params.y + '"]')));
                if (params.s) search(params.s);
	}

	// event listeners
	window.addEventListener("click", function(e) {
		var target = find_group(e.target);
		if (target) {
			if (target.nodeName == "a") {
				if (e.ctrlKey === false) return;
				e.preventDefault();
			}
			if (target.classList.contains("parent")) unzoom();
			zoom(target);
			if (!document.querySelector('.parent')) {
				clearzoom();
				return;
			}

			// set parameters for zoom state
			var el = target.querySelector("rect");
			if (el && el.attributes && el.attributes.y && el.attributes._orig_x) {
				var params = get_params()
				params.x = el.attributes._orig_x.value;
				params.y = el.attributes.y.value;
				history.replaceState(null, null, parse_params(params));
			}
		}
		else if (e.target.id == "unzoom") clearzoom();
		else if (e.target.id == "search") search_prompt();
		else if (e.target.id == "ignorecase") toggle_ignorecase();
	}, false)

	// mouse-over for info
	// show
	window.addEventListener("mouseover", function(e) {
		var target = find_group(e.target);
		if (target) details.nodeValue = "Function: " + g_to_text(target);
	}, false)

	// clear
	window.addEventListener("mouseout", function(e) {
		var target = find_group(e.target);
		if (target) details.nodeValue = ' ';
	}, false)

	// ctrl-F for search
	// ctrl-I to toggle case-sensitive search
	window.addEventListener("keydown",function (e) {
		if (e.keyCode === 114 || (e.ctrlKey && e.keyCode === 70)) {
			e.preventDefault();
			search_prompt();
		}
		else if (e.ctrlKey && e.keyCode === 73) {
			e.preventDefault();
			toggle_ignorecase();
		}
	}, false)

	// functions
	function get_params() {
		var params = {};
		var paramsarr = window.location.search.substr(1).split('&');
		for (var i = 0; i < paramsarr.length; ++i) {
			var tmp = paramsarr[i].split("=");
			if (!tmp[0] || !tmp[1]) continue;
			params[tmp[0]]  = decodeURIComponent(tmp[1]);
		}
		return params;
	}
	function parse_params(params) {
		var uri = "?";
		for (var key in params) {
			uri += key + '=' + encodeURIComponent(params[key]) + '&';
		}
		if (uri.slice(-1) == "&")
			uri = uri.substring(0, uri.length - 1);
		if (uri == '?')
			uri = window.location.href.split('?')[0];
		return uri;
	}
	function find_child(node, selector) {
		var children = node.querySelectorAll(selector);
		if (children.length) return children[0];
	}
	function find_group(node) {
		var parent = node.parentElement;
		if (!parent) return;
		if (parent.id == "frames") return node;
		return find_group(parent);
	}
	function orig_save(e, attr, val) {
		if (e.attributes["_orig_" + attr] != undefined) return;
		if (e.attributes[attr] == undefined) return;
		if (val == undefined) val = e.attributes[attr].value;
		e.setAttribute("_orig_" + attr, val);
	}
	function orig_load(e, attr) {
		if (e.attributes["_orig_"+attr] == undefined) return;
		e.attributes[attr].value = e.attributes["_orig_" + attr].value;
		e.removeAttribute("_orig_"+attr);
	}
	function g_to_text(e) {
		var text = find_child(e, "title").firstChild.nodeValue;
		return (text)
	}
	function g_to_func(e) {
		var func = g_to_text(e);
		// if there's any manipulation we want to do to the function
		// name before it's searched, do it here before returning.
		return (func);
	}
	function update_text(e) {
		var r = find_child(e, "rect");
		var t = find_child(e, "text");
		var w = parseFloat(r.attributes.width.value) -3;
		var txt = find_child(e, "title").textContent.replace(/\([^(]*\)$/,"");
		t.attributes.x.value = parseFloat(r.attributes.x.value) + 3;

		// Smaller than this size won't fit anything
		if (w < 2 * 13 * 0.59) {
			t.textContent = "";
			return;
		}

		t.textContent = txt;
		// Fit in full text width
		if (/^ *$/.test(txt) || t.getSubStringLength(0, txt.length) < w)
			return;

		for (var x = txt.length - 2; x > 0; x--) {
			if (t.getSubStringLength(0, x + 2) <= w) {
				t.textContent = txt.substring(0, x) + "..";
				return;
			}
		}
		t.textContent = "";
	}

	// zoom
	function zoom_reset(e) {
		if (e.attributes != undefined) {
			orig_load(e, "x");
			orig_load(e, "width");
		}
		if (e.childNodes == undefined) return;
		for (var i = 0, c = e.childNodes; i < c.length; i++) {
			zoom_reset(c[i]);
		}
	}
	function zoom_child(e, x, ratio) {
		if (e.attributes != undefined) {
			if (e.attributes.x != undefined) {
				orig_save(e, "x");
				e.attributes.x.value = (parseFloat(e.attributes.x.value) - x - 10) * ratio + 10;
				if (e.tagName == "text")
					e.attributes.x.value = find_child(e.parentNode, "rect[x]").attributes.x.value + 3;
			}
			if (e.attributes.width != undefined) {
				orig_save(e, "width");
				e.attributes.width.value = parseFloat(e.attributes.width.value) * ratio;
			}
		}

		if (e.childNodes == undefined) return;
		for (var i = 0, c = e.childNodes; i < c.length; i++) {
			zoom_child(c[i], x - 10, ratio);
		}
	}
	function zoom_parent(e) {
		if (e.attributes) {
			if (e.attributes.x != undefined) {
				orig_save(e, "x");
				e.attributes.x.value = 10;
			}
			if (e.attributes.width != undefined) {
				orig_save(e, "width");
				e.attributes.width.value = parseInt(svg.width.baseVal.value) - (10 * 2);
			}
		}
		if (e.childNodes == undefined) return;
		for (var i = 0, c = e.childNodes; i < c.length; i++) {
			zoom_parent(c[i]);
		}
	}
	function zoom(node) {
		var attr = find_child(node, "rect").attributes;
		var width = parseFloat(attr.width.value);
		var xmin = parseFloat(attr.x.value);
		var xmax = parseFloat(xmin + width);
		var ymin = parseFloat(attr.y.value);
		var ratio = (svg.width.baseVal.value - 2 * 10) / width;

		// XXX: Workaround for JavaScript float issues (fix me)
		var fudge = 0.0001;

		unzoombtn.classList.remove("hide");

		var el = document.getElementById("frames").children;
		for (var i = 0; i < el.length; i++) {
			var e = el[i];
			var a = find_child(e, "rect").attributes;
			var ex = parseFloat(a.x.value);
			var ew = parseFloat(a.width.value);
			var upstack;
			// Is it an ancestor
			if (1 == 0) {
				upstack = parseFloat(a.y.value) > ymin;
			} else {
				upstack = parseFloat(a.y.value) < ymin;
			}
			if (upstack) {
				// Direct ancestor
				if (ex <= xmin && (ex+ew+fudge) >= xmax) {
					e.classList.add("parent");
					zoom_parent(e);
					update_text(e);
				}
				// not in current path
				else
					e.classList.add("hide");
			}
			// Children maybe
			else {
				// no common path
				if (ex < xmin || ex + fudge >= xmax) {
					e.classList.add("hide");
				}
				else {
					zoom_child(e, xmin, ratio);
					update_text(e);
				}
			}
		}
		search();
	}
	function unzoom() {
		unzoombtn.classList.add("hide");
		var el = document.getElementById("frames").children;
		for(var i = 0; i < el.length; i++) {
			el[i].classList.remove("parent");
			el[i].classList.remove("hide");
			zoom_reset(el[i]);
			update_text(el[i]);
		}
		search();
	}
	function clearzoom() {
		unzoom();

		// remove zoom state
		var params = get_params();
		if (params.x) delete params.x;
		if (params.y) delete params.y;
		history.replaceState(null, null, parse_params(params));
	}

	// search
	function toggle_ignorecase() {
		ignorecase = !ignorecase;
		if (ignorecase) {
			ignorecaseBtn.classList.add("show");
		} else {
			ignorecaseBtn.classList.remove("show");
		}
		reset_search();
		search();
	}
	function reset_search() {
		var el = document.querySelectorAll("#frames rect");
		for (var i = 0; i < el.length; i++) {
			orig_load(el[i], "fill")
		}
		var params = get_params();
		delete params.s;
		history.replaceState(null, null, parse_params(params));
	}
	function search_prompt() {
		if (!searching) {
			var term = prompt("Enter a search term (regexp " +
			    "allowed, eg: ^ext4_)"
			    + (ignorecase ? ", ignoring case" : "")
			    + "\nPress Ctrl-i to toggle case sensitivity", "");
			if (term != null) search(term);
		} else {
			reset_search();
			searching = 0;
			currentSearchTerm = null;
			searchbtn.classList.remove("show");
			searchbtn.firstChild.nodeValue = "Search"
			matchedtxt.classList.add("hide");
			matchedtxt.firstChild.nodeValue = ""
		}
	}
	function search(term) {
		if (term) currentSearchTerm = term;

		var re = new RegExp(currentSearchTerm, ignorecase ? 'i' : '');
		var el = document.getElementById("frames").children;
		var matches = new Object();
		var maxwidth = 0;
		for (var i = 0; i < el.length; i++) {
			var e = el[i];
			var func = g_to_func(e);
			var rect = find_child(e, "rect");
			if (func == null || rect == null)
				continue;

			// Save max width. Only works as we have a root frame
			var w = parseFloat(rect.attributes.width.value);
			if (w > maxwidth)
				maxwidth = w;

			if (func.match(re)) {
				// highlight
				var x = parseFloat(rect.attributes.x.value);
				orig_save(rect, "fill");
				rect.attributes.fill.value = "rgb(230,0,230)";

				// remember matches
				if (matches[x] == undefined) {
					matches[x] = w;
				} else {
					if (w > matches[x]) {
						// overwrite with parent
						matches[x] = w;
					}
				}
				searching = 1;
			}
		}
		if (!searching)
			return;
		var params = get_params();
		params.s = currentSearchTerm;
		history.replaceState(null, null, parse_params(params));

		searchbtn.classList.add("show");
		searchbtn.firstChild.nodeValue = "Reset Search";

		// calculate percent matched, excluding vertical overlap
		var count = 0;
		var lastx = -1;
		var lastw = 0;
		var keys = Array();
		for (k in matches) {
			if (matches.hasOwnProperty(k))
				keys.push(k);
		}
		// sort the matched frames by their x location
		// ascending, then width descending
		keys.sort(function(a, b){
			return a - b;
		});
		// Step through frames saving only the biggest bottom-up frames
		// thanks to the sort order. This relies on the tree property
		// where children are always smaller than their parents.
		var fudge = 0.0001;	// JavaScript floating point
		for (var k in keys) {
			var x = parseFloat(keys[k]);
			var w = matches[keys[k]];
			if (x >= lastx + lastw - fudge) {
				count += w;
				lastx = x;
				lastw = w;
			}
		}
		// display matched percent
		matchedtxt.classList.remove("hide");
		var pct = 100 * count / maxwidth;
		if (pct != 100) pct = pct.toFixed(1)
		matchedtxt.firstChild.nodeValue = "Matched: " + pct + "%";
	}
]]>
</script>
<rect x="0.0" y="0" width="1200.0" height="363.0" fill="url(#background)"  />
<text id="title" x="600.00" y="26" >Firedrake example</text>
<text id="details" x="10.00" y="345" > </text>
<text id="unzoom" x="10.00" y="26" class="hide">Reset Zoom</text>
<text id="search" x="1090.00" y="26" >Search</text>
<text id="ignorecase" x="1174.00" y="26" >ic</text>
<text id="matched" x="1090.00" y="345" > </text>
<g id="frames">
<g >
<title>Log_Event_subkernel8_interior_facet_vert_to__exterior_facet_vert_integral_otherwise (8,744,877 us, 1.39%)</title><rect x="135.2" y="231" width="16.4" height="15.0" fill="rgb(0,0,0)" rx="2" ry="2" />
<text  x="138.21" y="241.5" ></text>
</g>
<g >
<title>firedrake.pointquery_utils.to_reference_coordinates (415,750 us, 0.07%)</title><rect x="876.5" y="311" width="0.8" height="15.0" fill="rgb(0,0,0)" rx="2" ry="2" />
<text  x="879.49" y="321.5" ></text>
</g>
<g >
<title>inv_getri (5,832,237 us, 0.93%)</title><rect x="30.9" y="215" width="11.0" height="15.0" fill="rgb(0,0,0)" rx="2" ry="2" />
<text  x="33.95" y="225.5" ></text>
</g>
<g >
<title>Log_Event_subkernel8_interior_facet_vert_to__exterior_facet_vert_integral_otherwise (7,954,392 us, 1.26%)</title><rect x="1081.2" y="295" width="14.9" height="15.0" fill="rgb(0,0,0)" rx="2" ry="2" />
<text  x="1084.16" y="305.5" ></text>
</g>
<g >
<title>SCBackSub (18,656,151 us, 2.96%)</title><rect x="15.2" y="135" width="35.0" height="15.0" fill="rgb(0,0,0)" rx="2" ry="2" />
<text  x="18.22" y="145.5" >SC..</text>
</g>
<g >
<title>Log_Event_subkernel8_interior_facet_horiz_bottom_to__exterior_facet_bottom_integral_otherwise (2,586,687 us, 0.41%)</title><rect x="555.6" y="279" width="4.8" height="15.0" fill="rgb(0,0,0)" rx="2" ry="2" />
<text  x="558.59" y="289.5" ></text>
</g>
<g >
<title>solve_getrf (2,501,389 us, 0.40%)</title><rect x="50.9" y="215" width="4.7" height="15.0" fill="rgb(0,0,0)" rx="2" ry="2" />
<text  x="53.94" y="225.5" ></text>
</g>
<g >
<title>Log_Event_subkernel8_interior_facet_horiz_top_to__exterior_facet_top_integral_otherwise (504,917 us, 0.08%)</title><rect x="134.3" y="231" width="0.9" height="15.0" fill="rgb(0,0,0)" rx="2" ry="2" />
<text  x="137.26" y="241.5" ></text>
</g>
<g >
<title>solve_memcpy (76,999 us, 0.01%)</title><rect x="18.2" y="199" width="0.1" height="15.0" fill="rgb(0,0,0)" rx="2" ry="2" />
<text  x="21.17" y="209.5" ></text>
</g>
<g >
<title>MatMultTranspose (407,187 us, 0.06%)</title><rect x="877.3" y="247" width="0.7" height="15.0" fill="rgb(0,0,0)" rx="2" ry="2" />
<text  x="880.27" y="257.5" ></text>
</g>
<g >
<title>ParLoopExecute (2,950,207 us, 0.47%)</title><rect x="15.5" y="151" width="5.5" height="15.0" fill="rgb(0,0,0)" rx="2" ry="2" />
<text  x="18.46" y="161.5" ></text>
</g>
<g >
<title>CreateExtMesh (70,112 us, 0.01%)</title><rect x="11.7" y="71" width="0.2" height="15.0" fill="rgb(0,0,0)" rx="2" ry="2" />
<text  x="14.75" y="81.5" ></text>
</g>
<g >
<title>firedrake.pointquery_utils.to_reference_coordinates (407,187 us, 0.06%)</title><rect x="877.3" y="279" width="0.7" height="15.0" fill="rgb(0,0,0)" rx="2" ry="2" />
<text  x="880.27" y="289.5" ></text>
</g>
<g >
<title>Log_Event_subkernel9_cell_to__cell_integral_otherwise (121,325,417 us, 19.26%)</title><rect x="647.0" y="279" width="227.3" height="15.0" fill="rgb(0,0,0)" rx="2" ry="2" />
<text  x="649.98" y="289.5" >Log_Event_subkernel9_cell_t..</text>
</g>
<g >
<title>Log_Event_subkernel1_interior_facet_vert_to__exterior_facet_vert_integral_otherwise (809,023 us, 0.13%)</title><rect x="55.9" y="199" width="1.5" height="15.0" fill="rgb(0,0,0)" rx="2" ry="2" />
<text  x="58.87" y="209.5" ></text>
</g>
<g >
<title>MatZeroInitial (406,780 us, 0.06%)</title><rect x="1188.0" y="247" width="0.8" height="15.0" fill="rgb(0,0,0)" rx="2" ry="2" />
<text  x="1191.01" y="257.5" ></text>
</g>
<g >
<title>firedrake.matrix_free.operators.ImplicitMatrixContext.mult (72,238,172 us, 11.47%)</title><rect x="878.0" y="231" width="135.4" height="15.0" fill="rgb(0,0,0)" rx="2" ry="2" />
<text  x="881.03" y="241.5" >firedrake.matri..</text>
</g>
<g >
<title>solve_getrf (2,480,619 us, 0.39%)</title><rect x="42.0" y="215" width="4.7" height="15.0" fill="rgb(0,0,0)" rx="2" ry="2" />
<text  x="45.01" y="225.5" ></text>
</g>
<g >
<title>KSPSolve (66,232,039 us, 10.52%)</title><rect x="1013.4" y="215" width="124.1" height="15.0" fill="rgb(0,0,0)" rx="2" ry="2" />
<text  x="1016.37" y="225.5" >KSPSolve</text>
</g>
<g >
<title>Log_Event_inits_wrap_slate_loopy_knl_7 (3,893,815 us, 0.62%)</title><rect x="206.7" y="279" width="7.3" height="15.0" fill="rgb(0,0,0)" rx="2" ry="2" />
<text  x="209.75" y="289.5" ></text>
</g>
<g >
<title>CreateSparsity (1,055,112 us, 0.17%)</title><rect x="1186.0" y="247" width="2.0" height="15.0" fill="rgb(0,0,0)" rx="2" ry="2" />
<text  x="1189.03" y="257.5" ></text>
</g>
<g >
<title>PCSetUp (27,385,217 us, 4.35%)</title><rect x="1137.5" y="215" width="51.3" height="15.0" fill="rgb(0,0,0)" rx="2" ry="2" />
<text  x="1140.46" y="225.5" >PCSe..</text>
</g>
<g >
<title>solve_getrf (26,886,744 us, 4.27%)</title><rect x="65.6" y="247" width="50.4" height="15.0" fill="rgb(0,0,0)" rx="2" ry="2" />
<text  x="68.60" y="257.5" >solv..</text>
</g>
<g >
<title>firedrake.pointquery_utils.to_reference_coordinates (413,707 us, 0.07%)</title><rect x="874.9" y="311" width="0.8" height="15.0" fill="rgb(0,0,0)" rx="2" ry="2" />
<text  x="877.95" y="321.5" ></text>
</g>
<g >
<title>Log_Event_subkernel2_cell_to__cell_integral_otherwise (2,241,765 us, 0.36%)</title><rect x="57.4" y="199" width="4.2" height="15.0" fill="rgb(0,0,0)" rx="2" ry="2" />
<text  x="60.39" y="209.5" ></text>
</g>
<g >
<title>ParLoopExecute (15,475,765 us, 2.46%)</title><rect x="21.2" y="167" width="29.0" height="15.0" fill="rgb(0,0,0)" rx="2" ry="2" />
<text  x="24.18" y="177.5" >P..</text>
</g>
<g >
<title>firedrake.mg.embedded.TransferManager.op (825,024 us, 0.13%)</title><rect x="875.7" y="279" width="1.6" height="15.0" fill="rgb(0,0,0)" rx="2" ry="2" />
<text  x="878.72" y="289.5" ></text>
</g>
<g >
<title>PCApply (529,350,583 us, 84.05%)</title><rect x="197.0" y="167" width="991.8" height="15.0" fill="rgb(0,0,0)" rx="2" ry="2" />
<text  x="200.01" y="177.5" >PCApply</text>
</g>
<g >
<title>solve_getrs (69,124 us, 0.01%)</title><rect x="46.7" y="215" width="0.1" height="15.0" fill="rgb(0,0,0)" rx="2" ry="2" />
<text  x="49.66" y="225.5" ></text>
</g>
<g >
<title>Log_Event_subkernel6_interior_facet_vert_to__exterior_facet_vert_integral_otherwise (578,178 us, 0.09%)</title><rect x="1184.9" y="263" width="1.1" height="15.0" fill="rgb(0,0,0)" rx="2" ry="2" />
<text  x="1187.95" y="273.5" ></text>
</g>
<g >
<title>DMCoarsen (825,024 us, 0.13%)</title><rect x="875.7" y="247" width="1.6" height="15.0" fill="rgb(0,0,0)" rx="2" ry="2" />
<text  x="878.72" y="257.5" ></text>
</g>
<g >
<title>firedrake.__init__ (1,524,156 us, 0.24%)</title><rect x="11.9" y="71" width="2.8" height="15.0" fill="rgb(0,0,0)" rx="2" ry="2" />
<text  x="14.88" y="81.5" ></text>
</g>
<g >
<title>Log_Event_slate_loopy_knl_7 (145,614,864 us, 23.12%)</title><rect x="214.0" y="279" width="272.9" height="15.0" fill="rgb(0,0,0)" rx="2" ry="2" />
<text  x="217.04" y="289.5" >Log_Event_slate_loopy_knl_7</text>
</g>
<g >
<title>PCApply (626,773,590 us, 99.52%)</title><rect x="15.2" y="119" width="1174.3" height="15.0" fill="rgb(0,0,0)" rx="2" ry="2" />
<text  x="18.22" y="129.5" >PCApply</text>
</g>
<g >
<title>firedrake.mg.embedded.TransferManager.op (699,173 us, 0.11%)</title><rect x="874.4" y="279" width="1.3" height="15.0" fill="rgb(0,0,0)" rx="2" ry="2" />
<text  x="877.41" y="289.5" ></text>
</g>
<g >
<title>solve_getrf (26,895,727 us, 4.27%)</title><rect x="882.0" y="295" width="50.4" height="15.0" fill="rgb(0,0,0)" rx="2" ry="2" />
<text  x="885.03" y="305.5" >solv..</text>
</g>
<g >
<title>MatMult (66,232,039 us, 10.52%)</title><rect x="1013.4" y="231" width="124.1" height="15.0" fill="rgb(0,0,0)" rx="2" ry="2" />
<text  x="1016.37" y="241.5" >MatMult</text>
</g>
<g >
<title>SCForwardElim (6,090,915 us, 0.97%)</title><rect x="50.2" y="135" width="11.4" height="15.0" fill="rgb(0,0,0)" rx="2" ry="2" />
<text  x="53.17" y="145.5" ></text>
</g>
<g >
<title>Log_Event_subkernel8_interior_facet_vert_to__exterior_facet_vert_integral_otherwise (8,757,768 us, 1.39%)</title><rect x="951.7" y="279" width="16.4" height="15.0" fill="rgb(0,0,0)" rx="2" ry="2" />
<text  x="954.66" y="289.5" ></text>
</g>
<g >
<title>firedrake.assemble.allocate_matrix (1,461,892 us, 0.23%)</title><rect x="1186.0" y="231" width="2.8" height="15.0" fill="rgb(0,0,0)" rx="2" ry="2" />
<text  x="1189.03" y="241.5" ></text>
</g>
<g >
<title>solve_memcpy (1,229,366 us, 0.20%)</title><rect x="1064.6" y="311" width="2.3" height="15.0" fill="rgb(0,0,0)" rx="2" ry="2" />
<text  x="1067.56" y="321.5" ></text>
</g>
<g >
<title>KSPSetUp (93,617,256 us, 14.86%)</title><rect x="1013.4" y="199" width="175.4" height="15.0" fill="rgb(0,0,0)" rx="2" ry="2" />
<text  x="1016.37" y="209.5" >KSPSetUp</text>
</g>
<g >
<title>Log_Event_subkernel8_interior_facet_horiz_top_to__exterior_facet_top_integral_otherwise (504,800 us, 0.08%)</title><rect x="950.7" y="279" width="1.0" height="15.0" fill="rgb(0,0,0)" rx="2" ry="2" />
<text  x="953.72" y="289.5" ></text>
</g>
<g >
<title>Log_Event_slate_loopy_knl_0 (2,698,072 us, 0.43%)</title><rect x="50.8" y="199" width="5.1" height="15.0" fill="rgb(0,0,0)" rx="2" ry="2" />
<text  x="53.81" y="209.5" ></text>
</g>
<g >
<title>Log_Event_slate_loopy_knl_11 (13,568,873 us, 2.15%)</title><rect x="21.7" y="199" width="25.4" height="15.0" fill="rgb(0,0,0)" rx="2" ry="2" />
<text  x="24.65" y="209.5" >L..</text>
</g>
<g >
<title>firedrake.tsfc_interface.compile_form (159,766 us, 0.03%)</title><rect x="1189.2" y="167" width="0.3" height="15.0" fill="rgb(0,0,0)" rx="2" ry="2" />
<text  x="1192.21" y="177.5" ></text>
</g>
<g >
<title>Log_Event_subkernel10_interior_facet_horiz_top_to__exterior_facet_top_integral_otherwise (2,480,360 us, 0.39%)</title><rect x="491.5" y="279" width="4.7" height="15.0" fill="rgb(0,0,0)" rx="2" ry="2" />
<text  x="494.51" y="289.5" ></text>
</g>
<g >
<title>Log_Event_subkernel10_interior_facet_horiz_top_to__exterior_facet_top_integral_otherwise (498,585 us, 0.08%)</title><rect x="936.9" y="279" width="0.9" height="15.0" fill="rgb(0,0,0)" rx="2" ry="2" />
<text  x="939.90" y="289.5" ></text>
</g>
<g >
<title>firedrake.mg.interface.restrict (407,187 us, 0.06%)</title><rect x="877.3" y="263" width="0.7" height="15.0" fill="rgb(0,0,0)" rx="2" ry="2" />
<text  x="880.27" y="273.5" ></text>
</g>
<g >
<title>solve_getrs (554,211 us, 0.09%)</title><rect x="116.0" y="247" width="1.0" height="15.0" fill="rgb(0,0,0)" rx="2" ry="2" />
<text  x="118.97" y="257.5" ></text>
</g>
<g >
<title>Log_Event_subkernel5_cell_to__cell_integral_otherwise (2,211,379 us, 0.35%)</title><rect x="1180.8" y="263" width="4.1" height="15.0" fill="rgb(0,0,0)" rx="2" ry="2" />
<text  x="1183.80" y="273.5" ></text>
</g>
<g >
<title>firedrake.interpolation.interpolate (77,236 us, 0.01%)</title><rect x="876.3" y="311" width="0.2" height="15.0" fill="rgb(0,0,0)" rx="2" ry="2" />
<text  x="879.35" y="321.5" ></text>
</g>
<g >
<title>solve_getrf (1,210,944 us, 0.19%)</title><rect x="15.9" y="199" width="2.3" height="15.0" fill="rgb(0,0,0)" rx="2" ry="2" />
<text  x="18.90" y="209.5" ></text>
</g>
<g >
<title>MGInterp Level 1 (699,173 us, 0.11%)</title><rect x="874.4" y="247" width="1.3" height="15.0" fill="rgb(0,0,0)" rx="2" ry="2" />
<text  x="877.41" y="257.5" ></text>
</g>
<g >
<title>solve_memcpy (1,339,340 us, 0.21%)</title><rect x="933.5" y="295" width="2.5" height="15.0" fill="rgb(0,0,0)" rx="2" ry="2" />
<text  x="936.46" y="305.5" ></text>
</g>
<g >
<title>Log_Event_inits_wrap_slate_loopy_knl_3 (73,411 us, 0.01%)</title><rect x="1138.7" y="263" width="0.2" height="15.0" fill="rgb(0,0,0)" rx="2" ry="2" />
<text  x="1141.73" y="273.5" ></text>
</g>
<g >
<title>Log_Event_slate_loopy_knl_3 (21,584,975 us, 3.43%)</title><rect x="1138.9" y="263" width="40.4" height="15.0" fill="rgb(0,0,0)" rx="2" ry="2" />
<text  x="1141.87" y="273.5" >Log..</text>
</g>
<g >
<title>Log_Event_subkernel4_interior_facet_vert_to__exterior_facet_vert_integral_otherwise (796,711 us, 0.13%)</title><rect x="1179.3" y="263" width="1.5" height="15.0" fill="rgb(0,0,0)" rx="2" ry="2" />
<text  x="1182.31" y="273.5" ></text>
</g>
<g >
<title>solve_memcpy (1,337,713 us, 0.21%)</title><rect x="117.0" y="247" width="2.5" height="15.0" fill="rgb(0,0,0)" rx="2" ry="2" />
<text  x="120.01" y="257.5" ></text>
</g>
<g >
<title>inv_getrf (2,454,896 us, 0.39%)</title><rect x="1151.5" y="279" width="4.6" height="15.0" fill="rgb(0,0,0)" rx="2" ry="2" />
<text  x="1154.54" y="289.5" ></text>
</g>
<g >
<title>inv_getrf (1,209,706 us, 0.19%)</title><rect x="28.7" y="215" width="2.2" height="15.0" fill="rgb(0,0,0)" rx="2" ry="2" />
<text  x="31.68" y="225.5" ></text>
</g>
<g >
<title>Log_Event_subkernel9_cell_to__cell_integral_otherwise (24,180,168 us, 3.84%)</title><rect x="968.1" y="279" width="45.3" height="15.0" fill="rgb(0,0,0)" rx="2" ry="2" />
<text  x="971.07" y="289.5" >Log..</text>
</g>
<g >
<title>Log_Event_inits_wrap_slate_loopy_knl_7 (711,324 us, 0.11%)</title><rect x="1015.7" y="295" width="1.4" height="15.0" fill="rgb(0,0,0)" rx="2" ry="2" />
<text  x="1018.74" y="305.5" ></text>
</g>
<g >
<title>ParLoopExecute (79,158 us, 0.01%)</title><rect x="14.7" y="151" width="0.2" height="15.0" fill="rgb(0,0,0)" rx="2" ry="2" />
<text  x="17.73" y="161.5" ></text>
</g>
<g >
<title>ParLoopExecute (25,795,093 us, 4.10%)</title><rect x="1137.7" y="231" width="48.3" height="15.0" fill="rgb(0,0,0)" rx="2" ry="2" />
<text  x="1140.70" y="241.5" >ParL..</text>
</g>
<g >
<title>Log_Event_subkernel17_interior_facet_vert_to__exterior_facet_vert_integral_otherwise (771,684 us, 0.12%)</title><rect x="48.7" y="199" width="1.5" height="15.0" fill="rgb(0,0,0)" rx="2" ry="2" />
<text  x="51.73" y="209.5" ></text>
</g>
<g >
<title>PCSetUp (1,232,211 us, 0.20%)</title><rect x="875.7" y="231" width="2.3" height="15.0" fill="rgb(0,0,0)" rx="2" ry="2" />
<text  x="878.72" y="241.5" ></text>
</g>
<g >
<title>RecoverFirstElim (15,579,262 us, 2.47%)</title><rect x="21.0" y="151" width="29.2" height="15.0" fill="rgb(0,0,0)" rx="2" ry="2" />
<text  x="23.99" y="161.5" >R..</text>
</g>
<g >
<title>Log_Event_subkernel8_interior_facet_vert_to__exterior_facet_vert_integral_otherwise (43,665,093 us, 6.93%)</title><rect x="565.2" y="279" width="81.8" height="15.0" fill="rgb(0,0,0)" rx="2" ry="2" />
<text  x="568.17" y="289.5" >Log_Even..</text>
</g>
<g >
<title>Log_Event_subkernel10_interior_facet_horiz_bottom_to__exterior_facet_bottom_integral_otherwise (455,842 us, 0.07%)</title><rect x="1066.9" y="295" width="0.8" height="15.0" fill="rgb(0,0,0)" rx="2" ry="2" />
<text  x="1069.87" y="305.5" ></text>
</g>
<g >
<title>Log_Event_subkernel10_interior_facet_vert_to__exterior_facet_vert_integral_otherwise (6,362,001 us, 1.01%)</title><rect x="121.4" y="231" width="11.9" height="15.0" fill="rgb(0,0,0)" rx="2" ry="2" />
<text  x="124.38" y="241.5" ></text>
</g>
<g >
<title>ParLoopExecute (72,238,172 us, 11.47%)</title><rect x="878.0" y="247" width="135.4" height="15.0" fill="rgb(0,0,0)" rx="2" ry="2" />
<text  x="881.03" y="257.5" >ParLoopExecute</text>
</g>
<g >
<title>SCSolve (602,026,524 us, 95.59%)</title><rect x="61.6" y="135" width="1127.9" height="15.0" fill="rgb(0,0,0)" rx="2" ry="2" />
<text  x="64.59" y="145.5" >SCSolve</text>
</g>
<g >
<title>Log_Event_inits_wrap_slate_loopy_knl_7 (779,373 us, 0.12%)</title><rect x="63.5" y="231" width="1.5" height="15.0" fill="rgb(0,0,0)" rx="2" ry="2" />
<text  x="66.53" y="241.5" ></text>
</g>
<g >
<title>solve_memcpy (152,224 us, 0.02%)</title><rect x="46.8" y="215" width="0.3" height="15.0" fill="rgb(0,0,0)" rx="2" ry="2" />
<text  x="49.79" y="225.5" ></text>
</g>
<g >
<title>solve_memcpy (6,745,054 us, 1.07%)</title><rect x="474.2" y="295" width="12.7" height="15.0" fill="rgb(0,0,0)" rx="2" ry="2" />
<text  x="477.22" y="305.5" ></text>
</g>
<g >
<title>firedrake.formmanipulation.split_form (181,319 us, 0.03%)</title><rect x="14.9" y="167" width="0.3" height="15.0" fill="rgb(0,0,0)" rx="2" ry="2" />
<text  x="17.88" y="177.5" ></text>
</g>
<g >
<title>PCApply (1,999,350 us, 0.32%)</title><rect x="874.3" y="215" width="3.7" height="15.0" fill="rgb(0,0,0)" rx="2" ry="2" />
<text  x="877.29" y="225.5" ></text>
</g>
<g >
<title>KSPSolve (627,034,067 us, 99.56%)</title><rect x="14.7" y="103" width="1174.8" height="15.0" fill="rgb(0,0,0)" rx="2" ry="2" />
<text  x="17.73" y="113.5" >KSPSolve</text>
</g>
<g >
<title>firedrake.dmhooks.coarsen (825,024 us, 0.13%)</title><rect x="875.7" y="263" width="1.6" height="15.0" fill="rgb(0,0,0)" rx="2" ry="2" />
<text  x="878.72" y="273.5" ></text>
</g>
<g >
<title>Log_Event_subkernel10_interior_facet_horiz_top_to__exterior_facet_top_integral_otherwise (457,953 us, 0.07%)</title><rect x="1067.7" y="295" width="0.9" height="15.0" fill="rgb(0,0,0)" rx="2" ry="2" />
<text  x="1070.72" y="305.5" ></text>
</g>
<g >
<title>SNESSolve (627,298,593 us, 99.60%)</title><rect x="14.7" y="87" width="1175.3" height="15.0" fill="rgb(0,0,0)" rx="2" ry="2" />
<text  x="17.73" y="97.5" >SNESSolve</text>
</g>
<g >
<title>PCApply (435,733,327 us, 69.18%)</title><rect x="197.0" y="183" width="816.4" height="15.0" fill="rgb(0,0,0)" rx="2" ry="2" />
<text  x="200.01" y="193.5" >PCApply</text>
</g>
<g >
<title>Log_Event_subkernel8_interior_facet_horiz_bottom_to__exterior_facet_bottom_integral_otherwise (476,540 us, 0.08%)</title><rect x="1079.4" y="295" width="0.9" height="15.0" fill="rgb(0,0,0)" rx="2" ry="2" />
<text  x="1082.40" y="305.5" ></text>
</g>
<g >
<title>Parloop_Cells_wrap_wrap_slate_loopy_knl_11 (15,475,765 us, 2.46%)</title><rect x="21.2" y="183" width="29.0" height="15.0" fill="rgb(0,0,0)" rx="2" ry="2" />
<text  x="24.18" y="193.5" >P..</text>
</g>
<g >
<title>Log_Event_subkernel10_interior_facet_vert_to__exterior_facet_vert_integral_otherwise (31,720,359 us, 5.04%)</title><rect x="496.2" y="279" width="59.4" height="15.0" fill="rgb(0,0,0)" rx="2" ry="2" />
<text  x="499.16" y="289.5" >Log_E..</text>
</g>
<g >
<title>firedrake.mg.interface.inject (825,024 us, 0.13%)</title><rect x="875.7" y="295" width="1.6" height="15.0" fill="rgb(0,0,0)" rx="2" ry="2" />
<text  x="878.72" y="305.5" ></text>
</g>
<g >
<title>KSPSolve (601,634,389 us, 95.52%)</title><rect x="61.6" y="151" width="1127.2" height="15.0" fill="rgb(0,0,0)" rx="2" ry="2" />
<text  x="64.59" y="161.5" >KSPSolve</text>
</g>
<g >
<title>SNESFunctionEval (67,164 us, 0.01%)</title><rect x="1189.9" y="103" width="0.1" height="15.0" fill="rgb(0,0,0)" rx="2" ry="2" />
<text  x="1192.87" y="113.5" ></text>
</g>
<g >
<title>solve_getrf (134,480,581 us, 21.35%)</title><rect x="217.1" y="295" width="251.9" height="15.0" fill="rgb(0,0,0)" rx="2" ry="2" />
<text  x="220.07" y="305.5" >solve_getrf</text>
</g>
<g >
<title>Log_Event_subkernel8_interior_facet_horiz_top_to__exterior_facet_top_integral_otherwise (2,527,825 us, 0.40%)</title><rect x="560.4" y="279" width="4.8" height="15.0" fill="rgb(0,0,0)" rx="2" ry="2" />
<text  x="563.44" y="289.5" ></text>
</g>
<g >
<title>firedrake.interpolation.make_interpolator (129,791 us, 0.02%)</title><rect x="1189.0" y="167" width="0.2" height="15.0" fill="rgb(0,0,0)" rx="2" ry="2" />
<text  x="1191.96" y="177.5" ></text>
</g>
<g >
<title>inv_memcpy (125,184 us, 0.02%)</title><rect x="1179.1" y="279" width="0.2" height="15.0" fill="rgb(0,0,0)" rx="2" ry="2" />
<text  x="1182.08" y="289.5" ></text>
</g>
<g >
<title>Log_Event_subkernel8_interior_facet_horiz_bottom_to__exterior_facet_bottom_integral_otherwise (518,605 us, 0.08%)</title><rect x="949.7" y="279" width="1.0" height="15.0" fill="rgb(0,0,0)" rx="2" ry="2" />
<text  x="952.75" y="289.5" ></text>
</g>
<g >
<title>Log_Event_subkernel19_cell_to__cell_integral_otherwise (462,084 us, 0.07%)</title><rect x="18.3" y="183" width="0.9" height="15.0" fill="rgb(0,0,0)" rx="2" ry="2" />
<text  x="21.32" y="193.5" ></text>
</g>
<g >
<title>firedrake (629,824,644 us, 100.00%)</title><rect x="10.0" y="55" width="1180.0" height="15.0" fill="rgb(0,0,0)" rx="2" ry="2" />
<text  x="13.00" y="65.5" >firedrake</text>
</g>
<g >
<title>Parloop_Cells_wrap_form0_cell_integral_otherwise (67,164 us, 0.01%)</title><rect x="1189.9" y="135" width="0.1" height="15.0" fill="rgb(0,0,0)" rx="2" ry="2" />
<text  x="1192.87" y="145.5" ></text>
</g>
<g >
<title>firedrake.tsfc_interface.compile_form (181,319 us, 0.03%)</title><rect x="14.9" y="151" width="0.3" height="15.0" fill="rgb(0,0,0)" rx="2" ry="2" />
<text  x="17.88" y="161.5" ></text>
</g>
<g >
<title>firedrake.extrusion_utils.make_extruded_coords (70,112 us, 0.01%)</title><rect x="11.7" y="87" width="0.2" height="15.0" fill="rgb(0,0,0)" rx="2" ry="2" />
<text  x="14.75" y="97.5" ></text>
</g>
<g >
<title>ParLoopExecute (361,495,805 us, 57.40%)</title><rect x="197.0" y="247" width="677.3" height="15.0" fill="rgb(0,0,0)" rx="2" ry="2" />
<text  x="200.01" y="257.5" >ParLoopExecute</text>
</g>
<g >
<title>Log_Event_subkernel10_interior_facet_vert_to__exterior_facet_vert_integral_otherwise (5,777,453 us, 0.92%)</title><rect x="1068.6" y="295" width="10.8" height="15.0" fill="rgb(0,0,0)" rx="2" ry="2" />
<text  x="1071.58" y="305.5" ></text>
</g>
<g >
<title>ParLoopExecute (65,949,182 us, 10.47%)</title><rect x="1013.9" y="263" width="123.6" height="15.0" fill="rgb(0,0,0)" rx="2" ry="2" />
<text  x="1016.90" y="273.5" >ParLoopExecute</text>
</g>
<g >
<title>Parloop_Cells_wrap_wrap_slate_loopy_knl_0 (5,995,288 us, 0.95%)</title><rect x="50.4" y="183" width="11.2" height="15.0" fill="rgb(0,0,0)" rx="2" ry="2" />
<text  x="53.35" y="193.5" ></text>
</g>
<g >
<title>ParLoopExecute (102,578 us, 0.02%)</title><rect x="1188.8" y="167" width="0.2" height="15.0" fill="rgb(0,0,0)" rx="2" ry="2" />
<text  x="1191.77" y="177.5" ></text>
</g>
<g >
<title>Log_Event_subkernel15_cell_to__cell_integral_otherwise (191,734 us, 0.03%)</title><rect x="48.4" y="199" width="0.3" height="15.0" fill="rgb(0,0,0)" rx="2" ry="2" />
<text  x="51.37" y="209.5" ></text>
</g>
<g >
<title>MatMult (699,173 us, 0.11%)</title><rect x="874.4" y="263" width="1.3" height="15.0" fill="rgb(0,0,0)" rx="2" ry="2" />
<text  x="877.41" y="273.5" ></text>
</g>
<g >
<title>Log_Event_subkernel8_interior_facet_horiz_bottom_to__exterior_facet_bottom_integral_otherwise (516,772 us, 0.08%)</title><rect x="133.3" y="231" width="1.0" height="15.0" fill="rgb(0,0,0)" rx="2" ry="2" />
<text  x="136.29" y="241.5" ></text>
</g>
<g >
<title>Parloop_Cells_wrap_wrap_slate_loopy_knl_7 (65,949,182 us, 10.47%)</title><rect x="1013.9" y="279" width="123.6" height="15.0" fill="rgb(0,0,0)" rx="2" ry="2" />
<text  x="1016.90" y="289.5" >Parloop_Cells_..</text>
</g>
<g >
<title>Log_Event_subkernel10_interior_facet_vert_to__exterior_facet_vert_integral_otherwise (6,359,206 us, 1.01%)</title><rect x="937.8" y="279" width="11.9" height="15.0" fill="rgb(0,0,0)" rx="2" ry="2" />
<text  x="940.83" y="289.5" ></text>
</g>
<g >
<title>Log_Event_subkernel8_interior_facet_horiz_top_to__exterior_facet_top_integral_otherwise (463,834 us, 0.07%)</title><rect x="1080.3" y="295" width="0.9" height="15.0" fill="rgb(0,0,0)" rx="2" ry="2" />
<text  x="1083.29" y="305.5" ></text>
</g>
<g >
<title>MatResidual (72,238,172 us, 11.47%)</title><rect x="878.0" y="199" width="135.4" height="15.0" fill="rgb(0,0,0)" rx="2" ry="2" />
<text  x="881.03" y="209.5" >MatResidual</text>
</g>
<g >
<title>HybridInit (197,362 us, 0.03%)</title><rect x="1189.5" y="119" width="0.4" height="15.0" fill="rgb(0,0,0)" rx="2" ry="2" />
<text  x="1192.50" y="129.5" ></text>
</g>
<g >
<title>Log_Event_subkernel10_interior_facet_horiz_bottom_to__exterior_facet_bottom_integral_otherwise (497,610 us, 0.08%)</title><rect x="936.0" y="279" width="0.9" height="15.0" fill="rgb(0,0,0)" rx="2" ry="2" />
<text  x="938.97" y="289.5" ></text>
</g>
<g >
<title>MatMult (361,495,805 us, 57.40%)</title><rect x="197.0" y="215" width="677.3" height="15.0" fill="rgb(0,0,0)" rx="2" ry="2" />
<text  x="200.01" y="225.5" >MatMult</text>
</g>
<g >
<title>MatMult (260,477 us, 0.04%)</title><rect x="14.7" y="119" width="0.5" height="15.0" fill="rgb(0,0,0)" rx="2" ry="2" />
<text  x="17.73" y="129.5" ></text>
</g>
<g >
<title>Log_Event_subkernel9_cell_to__cell_integral_otherwise (24,242,271 us, 3.85%)</title><rect x="151.6" y="231" width="45.4" height="15.0" fill="rgb(0,0,0)" rx="2" ry="2" />
<text  x="154.59" y="241.5" >Log..</text>
</g>
<g >
<title>Parloop_Cells_wrap_wrap_slate_loopy_knl_18 (2,950,207 us, 0.47%)</title><rect x="15.5" y="167" width="5.5" height="15.0" fill="rgb(0,0,0)" rx="2" ry="2" />
<text  x="18.46" y="177.5" ></text>
</g>
<g >
<title>Log_Event_subkernel21_interior_facet_vert_to__exterior_facet_vert_integral_otherwise (771,584 us, 0.12%)</title><rect x="19.5" y="183" width="1.5" height="15.0" fill="rgb(0,0,0)" rx="2" ry="2" />
<text  x="22.54" y="193.5" ></text>
</g>
<g >
<title>solve_getrs (2,775,895 us, 0.44%)</title><rect x="469.0" y="295" width="5.2" height="15.0" fill="rgb(0,0,0)" rx="2" ry="2" />
<text  x="472.02" y="305.5" ></text>
</g>
<g >
<title>PCSetUp (93,617,256 us, 14.86%)</title><rect x="1013.4" y="183" width="175.4" height="15.0" fill="rgb(0,0,0)" rx="2" ry="2" />
<text  x="1016.37" y="193.5" >PCSetUp</text>
</g>
<g >
<title>ParLoopExecute (5,995,288 us, 0.95%)</title><rect x="50.4" y="167" width="11.2" height="15.0" fill="rgb(0,0,0)" rx="2" ry="2" />
<text  x="53.35" y="177.5" ></text>
</g>
<g >
<title>Log_Event_subkernel13_cell_to__cell_integral_otherwise (225,260 us, 0.04%)</title><rect x="47.1" y="199" width="0.4" height="15.0" fill="rgb(0,0,0)" rx="2" ry="2" />
<text  x="50.08" y="209.5" ></text>
</g>
<g >
<title>Log_Event_slate_loopy_knl_7 (29,103,683 us, 4.62%)</title><rect x="65.0" y="231" width="54.5" height="15.0" fill="rgb(0,0,0)" rx="2" ry="2" />
<text  x="67.99" y="241.5" >Log_E..</text>
</g>
<g >
<title>Log_Event_slate_loopy_knl_7 (29,112,503 us, 4.62%)</title><rect x="881.4" y="279" width="54.6" height="15.0" fill="rgb(0,0,0)" rx="2" ry="2" />
<text  x="884.42" y="289.5" >Log_E..</text>
</g>
<g >
<title>Log_Event_subkernel14_cell_to__cell_integral_otherwise (464,544 us, 0.07%)</title><rect x="47.5" y="199" width="0.9" height="15.0" fill="rgb(0,0,0)" rx="2" ry="2" />
<text  x="50.50" y="209.5" ></text>
</g>
<g >
<title>inv_getri (12,245,623 us, 1.94%)</title><rect x="1156.1" y="279" width="23.0" height="15.0" fill="rgb(0,0,0)" rx="2" ry="2" />
<text  x="1159.13" y="289.5" ></text>
</g>
<g >
<title>Log_Event_subkernel9_cell_to__cell_integral_otherwise (22,095,052 us, 3.51%)</title><rect x="1096.1" y="295" width="41.4" height="15.0" fill="rgb(0,0,0)" rx="2" ry="2" />
<text  x="1099.07" y="305.5" >Log..</text>
</g>
<g >
<title>MatMult (72,238,172 us, 11.47%)</title><rect x="878.0" y="215" width="135.4" height="15.0" fill="rgb(0,0,0)" rx="2" ry="2" />
<text  x="881.03" y="225.5" >MatMult</text>
</g>
<g >
<title>Log_Event_slate_loopy_knl_18 (1,287,943 us, 0.20%)</title><rect x="15.9" y="183" width="2.4" height="15.0" fill="rgb(0,0,0)" rx="2" ry="2" />
<text  x="18.90" y="193.5" ></text>
</g>
<g >
<title>ParLoopExecute (72,283,806 us, 11.48%)</title><rect x="61.6" y="199" width="135.4" height="15.0" fill="rgb(0,0,0)" rx="2" ry="2" />
<text  x="64.59" y="209.5" >ParLoopExecute</text>
</g>
<g >
<title>firedrake.variational_solver.NonlinearVariationalSolver.solve (627,298,593 us, 99.60%)</title><rect x="14.7" y="71" width="1175.3" height="15.0" fill="rgb(0,0,0)" rx="2" ry="2" />
<text  x="17.73" y="81.5" >firedrake.variational_solver.NonlinearVariationalSolver.solve</text>
</g>
<g >
<title>PCSetUp (392,135 us, 0.06%)</title><rect x="1188.8" y="151" width="0.7" height="15.0" fill="rgb(0,0,0)" rx="2" ry="2" />
<text  x="1191.77" y="161.5" ></text>
</g>
<g >
<title>MatMult (72,283,806 us, 11.48%)</title><rect x="61.6" y="167" width="135.4" height="15.0" fill="rgb(0,0,0)" rx="2" ry="2" />
<text  x="64.59" y="177.5" >MatMult</text>
</g>
<g >
<title>PCApply (767,139 us, 0.12%)</title><rect x="874.3" y="231" width="1.4" height="15.0" fill="rgb(0,0,0)" rx="2" ry="2" />
<text  x="877.29" y="241.5" ></text>
</g>
<g >
<title>firedrake.matrix_free.operators.ImplicitMatrixContext.mult (260,477 us, 0.04%)</title><rect x="14.7" y="135" width="0.5" height="15.0" fill="rgb(0,0,0)" rx="2" ry="2" />
<text  x="17.73" y="145.5" ></text>
</g>
<g >
<title>all (629,824,644 us, 100%)</title><rect x="10.0" y="39" width="1180.0" height="15.0" fill="rgb(0,0,0)" rx="2" ry="2" />
<text  x="13.00" y="49.5" ></text>
</g>
<g >
<title>KSPSolve (363,495,155 us, 57.71%)</title><rect x="197.0" y="199" width="681.0" height="15.0" fill="rgb(0,0,0)" rx="2" ry="2" />
<text  x="200.01" y="209.5" >KSPSolve</text>
</g>
<g >
<title>firedrake.matrix_free.operators.ImplicitMatrixContext.mult (66,232,039 us, 10.52%)</title><rect x="1013.4" y="247" width="124.1" height="15.0" fill="rgb(0,0,0)" rx="2" ry="2" />
<text  x="1016.37" y="257.5" >firedrake.matr..</text>
</g>
<g >
<title>Log_Event_subkernel10_interior_facet_horiz_bottom_to__exterior_facet_bottom_integral_otherwise (2,484,653 us, 0.39%)</title><rect x="486.9" y="279" width="4.6" height="15.0" fill="rgb(0,0,0)" rx="2" ry="2" />
<text  x="489.86" y="289.5" ></text>
</g>
<g >
<title>Log_Event_inits_wrap_slate_loopy_knl_7 (776,604 us, 0.12%)</title><rect x="880.0" y="279" width="1.4" height="15.0" fill="rgb(0,0,0)" rx="2" ry="2" />
<text  x="882.97" y="289.5" ></text>
</g>
<g >
<title>firedrake.matrix_free.operators.ImplicitMatrixContext.mult (72,283,806 us, 11.48%)</title><rect x="61.6" y="183" width="135.4" height="15.0" fill="rgb(0,0,0)" rx="2" ry="2" />
<text  x="64.59" y="193.5" >firedrake.matri..</text>
</g>
<g >
<title>firedrake.interpolation.make_interpolator (85,254 us, 0.01%)</title><rect x="1189.7" y="135" width="0.2" height="15.0" fill="rgb(0,0,0)" rx="2" ry="2" />
<text  x="1192.71" y="145.5" ></text>
</g>
<g >
<title>firedrake.mg.interface.prolong (699,173 us, 0.11%)</title><rect x="874.4" y="295" width="1.3" height="15.0" fill="rgb(0,0,0)" rx="2" ry="2" />
<text  x="877.41" y="305.5" ></text>
</g>
<g >
<title>Parloop_Cells_wrap_wrap_slate_loopy_knl_3 (25,795,093 us, 4.10%)</title><rect x="1137.7" y="247" width="48.3" height="15.0" fill="rgb(0,0,0)" rx="2" ry="2" />
<text  x="1140.70" y="257.5" >Parl..</text>
</g>
<g >
<title>solve_getrf (24,536,912 us, 3.90%)</title><rect x="1017.6" y="311" width="46.0" height="15.0" fill="rgb(0,0,0)" rx="2" ry="2" />
<text  x="1020.63" y="321.5" >sol..</text>
</g>
<g >
<title>solve_memcpy (127,838 us, 0.02%)</title><rect x="55.6" y="215" width="0.3" height="15.0" fill="rgb(0,0,0)" rx="2" ry="2" />
<text  x="58.63" y="225.5" ></text>
</g>
<g >
<title>PCSetUp (197,362 us, 0.03%)</title><rect x="1189.5" y="103" width="0.4" height="15.0" fill="rgb(0,0,0)" rx="2" ry="2" />
<text  x="1192.50" y="113.5" ></text>
</g>
<g >
<title>Log_Event_subkernel20_cell_to__cell_integral_otherwise (190,179 us, 0.03%)</title><rect x="19.2" y="183" width="0.3" height="15.0" fill="rgb(0,0,0)" rx="2" ry="2" />
<text  x="22.18" y="193.5" ></text>
</g>
<g >
<title>inv_memcpy (73,628 us, 0.01%)</title><rect x="41.9" y="215" width="0.1" height="15.0" fill="rgb(0,0,0)" rx="2" ry="2" />
<text  x="44.88" y="225.5" ></text>
</g>
<g >
<title>Parloop_Cells_wrap_wrap_slate_loopy_knl_7 (361,495,805 us, 57.40%)</title><rect x="197.0" y="263" width="677.3" height="15.0" fill="rgb(0,0,0)" rx="2" ry="2" />
<text  x="200.01" y="273.5" >Parloop_Cells_wrap_wrap_slate_loopy_knl_7</text>
</g>
<g >
<title>firedrake.matrix_free.operators.ImplicitMatrixContext.mult (361,495,805 us, 57.40%)</title><rect x="197.0" y="231" width="677.3" height="15.0" fill="rgb(0,0,0)" rx="2" ry="2" />
<text  x="200.01" y="241.5" >firedrake.matrix_free.operators.ImplicitMatrixContext.mult</text>
</g>
<g >
<title>Log_Event_slate_loopy_knl_7 (26,574,678 us, 4.22%)</title><rect x="1017.1" y="295" width="49.8" height="15.0" fill="rgb(0,0,0)" rx="2" ry="2" />
<text  x="1020.08" y="305.5" >Log_..</text>
</g>
<g >
<title>HybridRHS (6,090,915 us, 0.97%)</title><rect x="50.2" y="151" width="11.4" height="15.0" fill="rgb(0,0,0)" rx="2" ry="2" />
<text  x="53.17" y="161.5" ></text>
</g>
<g >
<title>Parloop_Cells_wrap_wrap_slate_loopy_knl_7 (72,238,172 us, 11.47%)</title><rect x="878.0" y="263" width="135.4" height="15.0" fill="rgb(0,0,0)" rx="2" ry="2" />
<text  x="881.03" y="273.5" >Parloop_Cells_w..</text>
</g>
<g >
<title>Parloop_Cells_wrap_wrap_slate_loopy_knl_7 (72,283,806 us, 11.48%)</title><rect x="61.6" y="215" width="135.4" height="15.0" fill="rgb(0,0,0)" rx="2" ry="2" />
<text  x="64.59" y="225.5" >Parloop_Cells_w..</text>
</g>
<g >
<title>solve_getrs (512,954 us, 0.08%)</title><rect x="1063.6" y="311" width="1.0" height="15.0" fill="rgb(0,0,0)" rx="2" ry="2" />
<text  x="1066.60" y="321.5" ></text>
</g>
<g >
<title>ParLoopExecute (67,164 us, 0.01%)</title><rect x="1189.9" y="119" width="0.1" height="15.0" fill="rgb(0,0,0)" rx="2" ry="2" />
<text  x="1192.87" y="129.5" ></text>
</g>
<g >
<title>solve_getrs (554,368 us, 0.09%)</title><rect x="932.4" y="295" width="1.1" height="15.0" fill="rgb(0,0,0)" rx="2" ry="2" />
<text  x="935.42" y="305.5" ></text>
</g>
<g >
<title>Log_Event_subkernel10_interior_facet_horiz_top_to__exterior_facet_top_integral_otherwise (496,794 us, 0.08%)</title><rect x="120.4" y="231" width="1.0" height="15.0" fill="rgb(0,0,0)" rx="2" ry="2" />
<text  x="123.44" y="241.5" ></text>
</g>
<g >
<title>Log_Event_subkernel10_interior_facet_horiz_bottom_to__exterior_facet_bottom_integral_otherwise (497,230 us, 0.08%)</title><rect x="119.5" y="231" width="0.9" height="15.0" fill="rgb(0,0,0)" rx="2" ry="2" />
<text  x="122.51" y="241.5" ></text>
</g>
</g>
</svg>
