<?xml version="1.0" standalone="no"?>
<!DOCTYPE svg PUBLIC "-//W3C//DTD SVG 1.1//EN" "http://www.w3.org/Graphics/SVG/1.1/DTD/svg11.dtd">
<svg version="1.1" width="1200" height="347" onload="init(evt)" viewBox="0 0 1200 347" xmlns="http://www.w3.org/2000/svg" xmlns:xlink="http://www.w3.org/1999/xlink">
<!-- Flame graph stack visualization. See https://github.com/brendangregg/FlameGraph for latest version, and http://www.brendangregg.com/flamegraphs.html for examples. -->
<!-- NOTES:  -->
<defs>
	<linearGradient id="background" y1="0" y2="1" x1="0" x2="0" >
		<stop stop-color="#eeeeee" offset="5%" />
		<stop stop-color="#eeeeb0" offset="95%" />
	</linearGradient>
</defs>
<style type="text/css">
	text { font-family:Verdana; font-size:13px; fill:rgb(0,0,0); }
	#search, #ignorecase { opacity:0.1; cursor:pointer; }
	#search:hover, #search.show, #ignorecase:hover, #ignorecase.show { opacity:1; }
	#subtitle { text-anchor:middle; font-color:rgb(160,160,160); }
	#title { text-anchor:middle; font-size:18px}
	#unzoom { cursor:pointer; }
	#frames > *:hover { stroke:black; stroke-width:0.5; cursor:pointer; }
	.hide { display:none; }
	.parent { opacity:0.5; }
</style>
<script type="text/ecmascript">
<![CDATA[
	"use strict";
	var details, searchbtn, unzoombtn, matchedtxt, svg, searching, currentSearchTerm, ignorecase, ignorecaseBtn;
	function init(evt) {
		details = document.getElementById("details").firstChild;
		searchbtn = document.getElementById("search");
		ignorecaseBtn = document.getElementById("ignorecase");
		unzoombtn = document.getElementById("unzoom");
		matchedtxt = document.getElementById("matched");
		svg = document.getElementsByTagName("svg")[0];
		searching = 0;
		currentSearchTerm = null;

		// use GET parameters to restore a flamegraphs state.
		var params = get_params();
		if (params.x && params.y)
			zoom(find_group(document.querySelector('[x="' + params.x + '"][y="' + params.y + '"]')));
                if (params.s) search(params.s);
	}

	// event listeners
	window.addEventListener("click", function(e) {
		var target = find_group(e.target);
		if (target) {
			if (target.nodeName == "a") {
				if (e.ctrlKey === false) return;
				e.preventDefault();
			}
			if (target.classList.contains("parent")) unzoom();
			zoom(target);
			if (!document.querySelector('.parent')) {
				clearzoom();
				return;
			}

			// set parameters for zoom state
			var el = target.querySelector("rect");
			if (el && el.attributes && el.attributes.y && el.attributes._orig_x) {
				var params = get_params()
				params.x = el.attributes._orig_x.value;
				params.y = el.attributes.y.value;
				history.replaceState(null, null, parse_params(params));
			}
		}
		else if (e.target.id == "unzoom") clearzoom();
		else if (e.target.id == "search") search_prompt();
		else if (e.target.id == "ignorecase") toggle_ignorecase();
	}, false)

	// mouse-over for info
	// show
	window.addEventListener("mouseover", function(e) {
		var target = find_group(e.target);
		if (target) details.nodeValue = "Function: " + g_to_text(target);
	}, false)

	// clear
	window.addEventListener("mouseout", function(e) {
		var target = find_group(e.target);
		if (target) details.nodeValue = ' ';
	}, false)

	// ctrl-F for search
	// ctrl-I to toggle case-sensitive search
	window.addEventListener("keydown",function (e) {
		if (e.keyCode === 114 || (e.ctrlKey && e.keyCode === 70)) {
			e.preventDefault();
			search_prompt();
		}
		else if (e.ctrlKey && e.keyCode === 73) {
			e.preventDefault();
			toggle_ignorecase();
		}
	}, false)

	// functions
	function get_params() {
		var params = {};
		var paramsarr = window.location.search.substr(1).split('&');
		for (var i = 0; i < paramsarr.length; ++i) {
			var tmp = paramsarr[i].split("=");
			if (!tmp[0] || !tmp[1]) continue;
			params[tmp[0]]  = decodeURIComponent(tmp[1]);
		}
		return params;
	}
	function parse_params(params) {
		var uri = "?";
		for (var key in params) {
			uri += key + '=' + encodeURIComponent(params[key]) + '&';
		}
		if (uri.slice(-1) == "&")
			uri = uri.substring(0, uri.length - 1);
		if (uri == '?')
			uri = window.location.href.split('?')[0];
		return uri;
	}
	function find_child(node, selector) {
		var children = node.querySelectorAll(selector);
		if (children.length) return children[0];
	}
	function find_group(node) {
		var parent = node.parentElement;
		if (!parent) return;
		if (parent.id == "frames") return node;
		return find_group(parent);
	}
	function orig_save(e, attr, val) {
		if (e.attributes["_orig_" + attr] != undefined) return;
		if (e.attributes[attr] == undefined) return;
		if (val == undefined) val = e.attributes[attr].value;
		e.setAttribute("_orig_" + attr, val);
	}
	function orig_load(e, attr) {
		if (e.attributes["_orig_"+attr] == undefined) return;
		e.attributes[attr].value = e.attributes["_orig_" + attr].value;
		e.removeAttribute("_orig_"+attr);
	}
	function g_to_text(e) {
		var text = find_child(e, "title").firstChild.nodeValue;
		return (text)
	}
	function g_to_func(e) {
		var func = g_to_text(e);
		// if there's any manipulation we want to do to the function
		// name before it's searched, do it here before returning.
		return (func);
	}
	function update_text(e) {
		var r = find_child(e, "rect");
		var t = find_child(e, "text");
		var w = parseFloat(r.attributes.width.value) -3;
		var txt = find_child(e, "title").textContent.replace(/\([^(]*\)$/,"");
		t.attributes.x.value = parseFloat(r.attributes.x.value) + 3;

		// Smaller than this size won't fit anything
		if (w < 2 * 13 * 0.59) {
			t.textContent = "";
			return;
		}

		t.textContent = txt;
		// Fit in full text width
		if (/^ *$/.test(txt) || t.getSubStringLength(0, txt.length) < w)
			return;

		for (var x = txt.length - 2; x > 0; x--) {
			if (t.getSubStringLength(0, x + 2) <= w) {
				t.textContent = txt.substring(0, x) + "..";
				return;
			}
		}
		t.textContent = "";
	}

	// zoom
	function zoom_reset(e) {
		if (e.attributes != undefined) {
			orig_load(e, "x");
			orig_load(e, "width");
		}
		if (e.childNodes == undefined) return;
		for (var i = 0, c = e.childNodes; i < c.length; i++) {
			zoom_reset(c[i]);
		}
	}
	function zoom_child(e, x, ratio) {
		if (e.attributes != undefined) {
			if (e.attributes.x != undefined) {
				orig_save(e, "x");
				e.attributes.x.value = (parseFloat(e.attributes.x.value) - x - 10) * ratio + 10;
				if (e.tagName == "text")
					e.attributes.x.value = find_child(e.parentNode, "rect[x]").attributes.x.value + 3;
			}
			if (e.attributes.width != undefined) {
				orig_save(e, "width");
				e.attributes.width.value = parseFloat(e.attributes.width.value) * ratio;
			}
		}

		if (e.childNodes == undefined) return;
		for (var i = 0, c = e.childNodes; i < c.length; i++) {
			zoom_child(c[i], x - 10, ratio);
		}
	}
	function zoom_parent(e) {
		if (e.attributes) {
			if (e.attributes.x != undefined) {
				orig_save(e, "x");
				e.attributes.x.value = 10;
			}
			if (e.attributes.width != undefined) {
				orig_save(e, "width");
				e.attributes.width.value = parseInt(svg.width.baseVal.value) - (10 * 2);
			}
		}
		if (e.childNodes == undefined) return;
		for (var i = 0, c = e.childNodes; i < c.length; i++) {
			zoom_parent(c[i]);
		}
	}
	function zoom(node) {
		var attr = find_child(node, "rect").attributes;
		var width = parseFloat(attr.width.value);
		var xmin = parseFloat(attr.x.value);
		var xmax = parseFloat(xmin + width);
		var ymin = parseFloat(attr.y.value);
		var ratio = (svg.width.baseVal.value - 2 * 10) / width;

		// XXX: Workaround for JavaScript float issues (fix me)
		var fudge = 0.0001;

		unzoombtn.classList.remove("hide");

		var el = document.getElementById("frames").children;
		for (var i = 0; i < el.length; i++) {
			var e = el[i];
			var a = find_child(e, "rect").attributes;
			var ex = parseFloat(a.x.value);
			var ew = parseFloat(a.width.value);
			var upstack;
			// Is it an ancestor
			if (1 == 0) {
				upstack = parseFloat(a.y.value) > ymin;
			} else {
				upstack = parseFloat(a.y.value) < ymin;
			}
			if (upstack) {
				// Direct ancestor
				if (ex <= xmin && (ex+ew+fudge) >= xmax) {
					e.classList.add("parent");
					zoom_parent(e);
					update_text(e);
				}
				// not in current path
				else
					e.classList.add("hide");
			}
			// Children maybe
			else {
				// no common path
				if (ex < xmin || ex + fudge >= xmax) {
					e.classList.add("hide");
				}
				else {
					zoom_child(e, xmin, ratio);
					update_text(e);
				}
			}
		}
		search();
	}
	function unzoom() {
		unzoombtn.classList.add("hide");
		var el = document.getElementById("frames").children;
		for(var i = 0; i < el.length; i++) {
			el[i].classList.remove("parent");
			el[i].classList.remove("hide");
			zoom_reset(el[i]);
			update_text(el[i]);
		}
		search();
	}
	function clearzoom() {
		unzoom();

		// remove zoom state
		var params = get_params();
		if (params.x) delete params.x;
		if (params.y) delete params.y;
		history.replaceState(null, null, parse_params(params));
	}

	// search
	function toggle_ignorecase() {
		ignorecase = !ignorecase;
		if (ignorecase) {
			ignorecaseBtn.classList.add("show");
		} else {
			ignorecaseBtn.classList.remove("show");
		}
		reset_search();
		search();
	}
	function reset_search() {
		var el = document.querySelectorAll("#frames rect");
		for (var i = 0; i < el.length; i++) {
			orig_load(el[i], "fill")
		}
		var params = get_params();
		delete params.s;
		history.replaceState(null, null, parse_params(params));
	}
	function search_prompt() {
		if (!searching) {
			var term = prompt("Enter a search term (regexp " +
			    "allowed, eg: ^ext4_)"
			    + (ignorecase ? ", ignoring case" : "")
			    + "\nPress Ctrl-i to toggle case sensitivity", "");
			if (term != null) search(term);
		} else {
			reset_search();
			searching = 0;
			currentSearchTerm = null;
			searchbtn.classList.remove("show");
			searchbtn.firstChild.nodeValue = "Search"
			matchedtxt.classList.add("hide");
			matchedtxt.firstChild.nodeValue = ""
		}
	}
	function search(term) {
		if (term) currentSearchTerm = term;

		var re = new RegExp(currentSearchTerm, ignorecase ? 'i' : '');
		var el = document.getElementById("frames").children;
		var matches = new Object();
		var maxwidth = 0;
		for (var i = 0; i < el.length; i++) {
			var e = el[i];
			var func = g_to_func(e);
			var rect = find_child(e, "rect");
			if (func == null || rect == null)
				continue;

			// Save max width. Only works as we have a root frame
			var w = parseFloat(rect.attributes.width.value);
			if (w > maxwidth)
				maxwidth = w;

			if (func.match(re)) {
				// highlight
				var x = parseFloat(rect.attributes.x.value);
				orig_save(rect, "fill");
				rect.attributes.fill.value = "rgb(230,0,230)";

				// remember matches
				if (matches[x] == undefined) {
					matches[x] = w;
				} else {
					if (w > matches[x]) {
						// overwrite with parent
						matches[x] = w;
					}
				}
				searching = 1;
			}
		}
		if (!searching)
			return;
		var params = get_params();
		params.s = currentSearchTerm;
		history.replaceState(null, null, parse_params(params));

		searchbtn.classList.add("show");
		searchbtn.firstChild.nodeValue = "Reset Search";

		// calculate percent matched, excluding vertical overlap
		var count = 0;
		var lastx = -1;
		var lastw = 0;
		var keys = Array();
		for (k in matches) {
			if (matches.hasOwnProperty(k))
				keys.push(k);
		}
		// sort the matched frames by their x location
		// ascending, then width descending
		keys.sort(function(a, b){
			return a - b;
		});
		// Step through frames saving only the biggest bottom-up frames
		// thanks to the sort order. This relies on the tree property
		// where children are always smaller than their parents.
		var fudge = 0.0001;	// JavaScript floating point
		for (var k in keys) {
			var x = parseFloat(keys[k]);
			var w = matches[keys[k]];
			if (x >= lastx + lastw - fudge) {
				count += w;
				lastx = x;
				lastw = w;
			}
		}
		// display matched percent
		matchedtxt.classList.remove("hide");
		var pct = 100 * count / maxwidth;
		if (pct != 100) pct = pct.toFixed(1)
		matchedtxt.firstChild.nodeValue = "Matched: " + pct + "%";
	}
]]>
</script>
<rect x="0.0" y="0" width="1200.0" height="347.0" fill="url(#background)"  />
<text id="title" x="600.00" y="26" >Firedrake example</text>
<text id="details" x="10.00" y="329" > </text>
<text id="unzoom" x="10.00" y="26" class="hide">Reset Zoom</text>
<text id="search" x="1090.00" y="26" >Search</text>
<text id="ignorecase" x="1174.00" y="26" >ic</text>
<text id="matched" x="1090.00" y="329" > </text>
<g id="frames">
<g >
<title>ParLoopExecute (36,874 us, 0.32%)</title><rect x="307.0" y="183" width="3.8" height="15.0" fill="rgb(0,0,0)" rx="2" ry="2" />
<text  x="310.02" y="193.5" ></text>
</g>
<g >
<title>firedrake.formmanipulation.split_form (4,203 us, 0.04%)</title><rect x="1181.7" y="135" width="0.4" height="15.0" fill="rgb(0,0,0)" rx="2" ry="2" />
<text  x="1184.67" y="145.5" ></text>
</g>
<g >
<title>pyop2.global_kernel.GlobalKernel.compile (32,531 us, 0.28%)</title><rect x="299.6" y="183" width="3.3" height="15.0" fill="rgb(0,0,0)" rx="2" ry="2" />
<text  x="302.58" y="193.5" ></text>
</g>
<g >
<title>Log_Event_subkernel101_cell_to__cell_integral_otherwise (10,795 us, 0.09%)</title><rect x="706.7" y="263" width="1.1" height="15.0" fill="rgb(0,0,0)" rx="2" ry="2" />
<text  x="709.70" y="273.5" ></text>
</g>
<g >
<title>Log_Event_subkernel160_cell_to__cell_integral_otherwise (19,272 us, 0.17%)</title><rect x="703.7" y="263" width="2.0" height="15.0" fill="rgb(0,0,0)" rx="2" ry="2" />
<text  x="706.72" y="273.5" ></text>
</g>
<g >
<title>Log_Event_subkernel107_cell_to__cell_integral_otherwise (7,061 us, 0.06%)</title><rect x="709.6" y="295" width="0.7" height="15.0" fill="rgb(0,0,0)" rx="2" ry="2" />
<text  x="712.57" y="305.5" ></text>
</g>
<g >
<title>Log_Event_subkernel118_cell_to__cell_integral_otherwise (6,966 us, 0.06%)</title><rect x="481.6" y="263" width="0.7" height="15.0" fill="rgb(0,0,0)" rx="2" ry="2" />
<text  x="484.62" y="273.5" ></text>
</g>
<g >
<title>inv_getri (143,764 us, 1.26%)</title><rect x="1125.8" y="279" width="14.8" height="15.0" fill="rgb(0,0,0)" rx="2" ry="2" />
<text  x="1128.75" y="289.5" ></text>
</g>
<g >
<title>Log_Event_tensorshell_knl_102 (63,951 us, 0.56%)</title><rect x="708.6" y="263" width="6.6" height="15.0" fill="rgb(0,0,0)" rx="2" ry="2" />
<text  x="711.56" y="273.5" ></text>
</g>
<g >
<title>Log_Event_subkernel155_cell_to__cell_integral_otherwise (26,115 us, 0.23%)</title><rect x="732.5" y="247" width="2.7" height="15.0" fill="rgb(0,0,0)" rx="2" ry="2" />
<text  x="735.52" y="257.5" ></text>
</g>
<g >
<title>Log_Event_mtf_solve_41 (8,216 us, 0.07%)</title><rect x="453.2" y="215" width="0.9" height="15.0" fill="rgb(0,0,0)" rx="2" ry="2" />
<text  x="456.22" y="225.5" ></text>
</g>
<g >
<title>firedrake.variational_solver.NonlinearVariationalSolver.solve (8,661,873 us, 75.81%)</title><rect x="295.5" y="71" width="894.5" height="15.0" fill="rgb(0,0,0)" rx="2" ry="2" />
<text  x="298.49" y="81.5" >firedrake.variational_solver.NonlinearVariationalSolver.solve</text>
</g>
<g >
<title>pyop2.global_kernel.GlobalKernel.compile (35,035 us, 0.31%)</title><rect x="1162.5" y="199" width="3.6" height="15.0" fill="rgb(0,0,0)" rx="2" ry="2" />
<text  x="1165.47" y="209.5" ></text>
</g>
<g >
<title>Log_Event_subkernel101_interior_facet_vert_to__exterior_facet_vert_integral_otherwise (7,255 us, 0.06%)</title><rect x="707.8" y="263" width="0.8" height="15.0" fill="rgb(0,0,0)" rx="2" ry="2" />
<text  x="710.81" y="273.5" ></text>
</g>
<g >
<title>Log_Event_mtf_solve_1 (102,946 us, 0.90%)</title><rect x="442.6" y="215" width="10.6" height="15.0" fill="rgb(0,0,0)" rx="2" ry="2" />
<text  x="445.58" y="225.5" ></text>
</g>
<g >
<title>pyop2.global_kernel.GlobalKernel.compile (37,845 us, 0.33%)</title><rect x="1166.1" y="199" width="3.9" height="15.0" fill="rgb(0,0,0)" rx="2" ry="2" />
<text  x="1169.09" y="209.5" ></text>
</g>
<g >
<title>firedrake (11,426,369 us, 100.00%)</title><rect x="10.0" y="55" width="1180.0" height="15.0" fill="rgb(0,0,0)" rx="2" ry="2" />
<text  x="13.00" y="65.5" >firedrake</text>
</g>
<g >
<title>Parloop_Cells_wrap_par_loop_kernel (33,511 us, 0.29%)</title><rect x="1186.5" y="167" width="3.5" height="15.0" fill="rgb(0,0,0)" rx="2" ry="2" />
<text  x="1189.54" y="177.5" ></text>
</g>
<g >
<title>firedrake.formmanipulation.ExtractSubBlock.split (4,203 us, 0.04%)</title><rect x="1181.7" y="151" width="0.4" height="15.0" fill="rgb(0,0,0)" rx="2" ry="2" />
<text  x="1184.67" y="161.5" ></text>
</g>
<g >
<title>Log_Event_mtf_solve_130 (2,071,233 us, 18.13%)</title><rect x="487.6" y="247" width="213.9" height="15.0" fill="rgb(0,0,0)" rx="2" ry="2" />
<text  x="490.60" y="257.5" >Log_Event_mtf_solve_130</text>
</g>
<g >
<title>Log_Event_subkernel108_cell_to__cell_integral_otherwise (9,475 us, 0.08%)</title><rect x="710.3" y="295" width="1.0" height="15.0" fill="rgb(0,0,0)" rx="2" ry="2" />
<text  x="713.30" y="305.5" ></text>
</g>
<g >
<title>Log_Event_mtf_solve_133 (40,207 us, 0.35%)</title><rect x="491.7" y="279" width="4.2" height="15.0" fill="rgb(0,0,0)" rx="2" ry="2" />
<text  x="494.71" y="289.5" ></text>
</g>
<g >
<title>Parloop_Cells_wrap_par_loop_kernel (36,874 us, 0.32%)</title><rect x="307.0" y="199" width="3.8" height="15.0" fill="rgb(0,0,0)" rx="2" ry="2" />
<text  x="310.02" y="209.5" ></text>
</g>
<g >
<title>Log_Event_subkernel84_cell_to__cell_integral_otherwise (5,686 us, 0.05%)</title><rect x="1146.6" y="263" width="0.6" height="15.0" fill="rgb(0,0,0)" rx="2" ry="2" />
<text  x="1149.63" y="273.5" ></text>
</g>
<g >
<title>Log_Event_subkernel127_cell_to__cell_integral_otherwise (19,289 us, 0.17%)</title><rect x="485.6" y="263" width="2.0" height="15.0" fill="rgb(0,0,0)" rx="2" ry="2" />
<text  x="488.61" y="273.5" ></text>
</g>
<g >
<title>Log_Event_subkernel91_cell_to__cell_integral_otherwise (26,266 us, 0.23%)</title><rect x="717.9" y="279" width="2.7" height="15.0" fill="rgb(0,0,0)" rx="2" ry="2" />
<text  x="720.89" y="289.5" ></text>
</g>
<g >
<title>Log_Event_subkernel119_cell_to__cell_integral_otherwise (9,805 us, 0.09%)</title><rect x="482.3" y="263" width="1.1" height="15.0" fill="rgb(0,0,0)" rx="2" ry="2" />
<text  x="485.34" y="273.5" ></text>
</g>
<g >
<title>Log_Event_subkernel116_cell_to__cell_integral_otherwise (9,811 us, 0.09%)</title><rect x="480.6" y="263" width="1.0" height="15.0" fill="rgb(0,0,0)" rx="2" ry="2" />
<text  x="483.61" y="273.5" ></text>
</g>
<g >
<title>firedrake.functionspace.VectorFunctionSpace (6,763 us, 0.06%)</title><rect x="133.4" y="87" width="0.7" height="15.0" fill="rgb(0,0,0)" rx="2" ry="2" />
<text  x="136.44" y="97.5" ></text>
</g>
<g >
<title>firedrake.ufl_expr.action (4,197 us, 0.04%)</title><rect x="295.1" y="119" width="0.4" height="15.0" fill="rgb(0,0,0)" rx="2" ry="2" />
<text  x="298.06" y="129.5" ></text>
</g>
<g >
<title>KSPSetUp (4,057,432 us, 35.51%)</title><rect x="740.2" y="199" width="419.0" height="15.0" fill="rgb(0,0,0)" rx="2" ry="2" />
<text  x="743.24" y="209.5" >KSPSetUp</text>
</g>
<g >
<title>firedrake.matrix_free.operators.ImplicitMatrixContext.mult (1,265,740 us, 11.08%)</title><rect x="740.2" y="247" width="130.8" height="15.0" fill="rgb(0,0,0)" rx="2" ry="2" />
<text  x="743.24" y="257.5" >firedrake.matri..</text>
</g>
<g >
<title>Log_Event_subkernel162_interior_facet_vert_to__exterior_facet_vert_integral_otherwise (24,066 us, 0.21%)</title><rect x="735.2" y="247" width="2.5" height="15.0" fill="rgb(0,0,0)" rx="2" ry="2" />
<text  x="738.22" y="257.5" ></text>
</g>
<g >
<title>Log_Event_subkernel79_cell_to__cell_integral_otherwise (20,601 us, 0.18%)</title><rect x="1142.8" y="263" width="2.1" height="15.0" fill="rgb(0,0,0)" rx="2" ry="2" />
<text  x="1145.81" y="273.5" ></text>
</g>
<g >
<title>Log_Event_subkernel136_cell_to__cell_integral_otherwise (7,099 us, 0.06%)</title><rect x="493.2" y="295" width="0.8" height="15.0" fill="rgb(0,0,0)" rx="2" ry="2" />
<text  x="496.22" y="305.5" ></text>
</g>
<g >
<title>Log_Event_mtf_solve_89 (155,627 us, 1.36%)</title><rect x="705.7" y="247" width="16.1" height="15.0" fill="rgb(0,0,0)" rx="2" ry="2" />
<text  x="708.71" y="257.5" ></text>
</g>
<g >
<title>Log_Event_subkernel96_cell_to__cell_integral_otherwise (9,474 us, 0.08%)</title><rect x="716.9" y="295" width="1.0" height="15.0" fill="rgb(0,0,0)" rx="2" ry="2" />
<text  x="719.91" y="305.5" ></text>
</g>
<g >
<title>Log_Event_subkernel105_cell_to__cell_integral_otherwise (9,817 us, 0.09%)</title><rect x="708.6" y="295" width="1.0" height="15.0" fill="rgb(0,0,0)" rx="2" ry="2" />
<text  x="711.56" y="305.5" ></text>
</g>
<g >
<title>PCSetUp (4,078,453 us, 35.69%)</title><rect x="740.2" y="183" width="421.2" height="15.0" fill="rgb(0,0,0)" rx="2" ry="2" />
<text  x="743.24" y="193.5" >PCSetUp</text>
</g>
<g >
<title>Log_Event_subkernel148_cell_to__cell_integral_otherwise (172,533 us, 1.51%)</title><rect x="532.5" y="295" width="17.9" height="15.0" fill="rgb(0,0,0)" rx="2" ry="2" />
<text  x="535.54" y="305.5" ></text>
</g>
<g >
<title>firedrake.formmanipulation.ExtractSubBlock.argument (4,203 us, 0.04%)</title><rect x="1181.7" y="167" width="0.4" height="15.0" fill="rgb(0,0,0)" rx="2" ry="2" />
<text  x="1184.67" y="177.5" ></text>
</g>
<g >
<title>ParLoopExecute (2,232,821 us, 19.54%)</title><rect x="922.6" y="231" width="230.6" height="15.0" fill="rgb(0,0,0)" rx="2" ry="2" />
<text  x="925.63" y="241.5" >ParLoopExecute</text>
</g>
<g >
<title>Log_Event_subkernel98_cell_to__cell_integral_otherwise (11,419 us, 0.10%)</title><rect x="720.6" y="279" width="1.2" height="15.0" fill="rgb(0,0,0)" rx="2" ry="2" />
<text  x="723.60" y="289.5" ></text>
</g>
<g >
<title>Log_Event_slate_loopy_knl_87 (2,676,024 us, 23.42%)</title><rect x="463.9" y="231" width="276.3" height="15.0" fill="rgb(0,0,0)" rx="2" ry="2" />
<text  x="466.89" y="241.5" >Log_Event_slate_loopy_knl_87</text>
</g>
<g >
<title>firedrake.tsfc_interface.compile_form (33,756 us, 0.30%)</title><rect x="302.9" y="151" width="3.5" height="15.0" fill="rgb(0,0,0)" rx="2" ry="2" />
<text  x="305.94" y="161.5" ></text>
</g>
<g >
<title>Log_Event_subkernel17_cell_to__cell_integral_otherwise (12,332 us, 0.11%)</title><rect x="443.2" y="263" width="1.2" height="15.0" fill="rgb(0,0,0)" rx="2" ry="2" />
<text  x="446.15" y="273.5" ></text>
</g>
<g >
<title>ParLoopExecute (39,042 us, 0.34%)</title><rect x="129.4" y="103" width="4.0" height="15.0" fill="rgb(0,0,0)" rx="2" ry="2" />
<text  x="132.40" y="113.5" ></text>
</g>
<g >
<title>Parloop_Cells_wrap_expression_kernel (35,035 us, 0.31%)</title><rect x="1162.5" y="183" width="3.6" height="15.0" fill="rgb(0,0,0)" rx="2" ry="2" />
<text  x="1165.47" y="193.5" ></text>
</g>
<g >
<title>firedrake.variational_solver.NonlinearVariationalProblem.__init__ (11,808 us, 0.10%)</title><rect x="293.8" y="87" width="1.3" height="15.0" fill="rgb(0,0,0)" rx="2" ry="2" />
<text  x="296.84" y="97.5" ></text>
</g>
<g >
<title>Log_Event_tensorshell_knl_90 (64,064 us, 0.56%)</title><rect x="715.2" y="263" width="6.6" height="15.0" fill="rgb(0,0,0)" rx="2" ry="2" />
<text  x="718.16" y="273.5" ></text>
</g>
<g >
<title>PCSetUp (21,021 us, 0.18%)</title><rect x="1159.2" y="199" width="2.2" height="15.0" fill="rgb(0,0,0)" rx="2" ry="2" />
<text  x="1162.25" y="209.5" ></text>
</g>
<g >
<title>Log_Event_tensorshell_knl_147 (18,479 us, 0.16%)</title><rect x="598.9" y="295" width="1.9" height="15.0" fill="rgb(0,0,0)" rx="2" ry="2" />
<text  x="601.88" y="305.5" ></text>
</g>
<g >
<title>pyop2.global_kernel.GlobalKernel.compile (38,956 us, 0.34%)</title><rect x="1149.2" y="263" width="4.0" height="15.0" fill="rgb(0,0,0)" rx="2" ry="2" />
<text  x="1152.19" y="273.5" ></text>
</g>
<g >
<title>Log_Event_mtf_solve_104 (26,353 us, 0.23%)</title><rect x="708.6" y="279" width="2.7" height="15.0" fill="rgb(0,0,0)" rx="2" ry="2" />
<text  x="711.56" y="289.5" ></text>
</g>
<g >
<title>Log_Event_subkernel146_cell_to__cell_integral_otherwise (247,758 us, 2.17%)</title><rect x="507.0" y="295" width="25.5" height="15.0" fill="rgb(0,0,0)" rx="2" ry="2" />
<text  x="509.95" y="305.5" >L..</text>
</g>
<g >
<title>HybridRHS (1,426,744 us, 12.49%)</title><rect x="310.8" y="151" width="147.4" height="15.0" fill="rgb(0,0,0)" rx="2" ry="2" />
<text  x="313.82" y="161.5" >HybridRHS</text>
</g>
<g >
<title>Log_Event_tensorshell_knl_2 (6,030 us, 0.05%)</title><rect x="452.6" y="231" width="0.6" height="15.0" fill="rgb(0,0,0)" rx="2" ry="2" />
<text  x="455.59" y="241.5" ></text>
</g>
<g >
<title>Log_Event_subkernel149_cell_to__cell_integral_otherwise (469,905 us, 4.11%)</title><rect x="550.4" y="295" width="48.5" height="15.0" fill="rgb(0,0,0)" rx="2" ry="2" />
<text  x="553.36" y="305.5" >Log_..</text>
</g>
<g >
<title>ParLoopExecute (168,804 us, 1.48%)</title><rect x="440.7" y="167" width="17.5" height="15.0" fill="rgb(0,0,0)" rx="2" ry="2" />
<text  x="443.73" y="177.5" ></text>
</g>
<g >
<title>CreateSparsity (42,623 us, 0.37%)</title><rect x="1153.2" y="247" width="4.4" height="15.0" fill="rgb(0,0,0)" rx="2" ry="2" />
<text  x="1156.21" y="257.5" ></text>
</g>
<g >
<title>Log_Event_subkernel114_cell_to__cell_integral_otherwise (26,181 us, 0.23%)</title><rect x="721.8" y="247" width="2.7" height="15.0" fill="rgb(0,0,0)" rx="2" ry="2" />
<text  x="724.78" y="257.5" ></text>
</g>
<g >
<title>Log_Event_subkernel85_interior_facet_vert_to__exterior_facet_vert_integral_otherwise (19,088 us, 0.17%)</title><rect x="1147.2" y="263" width="2.0" height="15.0" fill="rgb(0,0,0)" rx="2" ry="2" />
<text  x="1150.22" y="273.5" ></text>
</g>
<g >
<title>PCApply (4,078,453 us, 35.69%)</title><rect x="740.2" y="167" width="421.2" height="15.0" fill="rgb(0,0,0)" rx="2" ry="2" />
<text  x="743.24" y="177.5" >PCApply</text>
</g>
<g >
<title>Log_Event_subkernel19_cell_to__cell_integral_otherwise (8,731 us, 0.08%)</title><rect x="444.4" y="263" width="0.9" height="15.0" fill="rgb(0,0,0)" rx="2" ry="2" />
<text  x="447.43" y="273.5" ></text>
</g>
<g >
<title>Log_Event_subkernel144_cell_to__cell_integral_otherwise (661,438 us, 5.79%)</title><rect x="604.6" y="279" width="68.3" height="15.0" fill="rgb(0,0,0)" rx="2" ry="2" />
<text  x="607.63" y="289.5" >Log_Ev..</text>
</g>
<g >
<title>Log_Event_subkernel142_cell_to__cell_integral_otherwise (10,919 us, 0.10%)</title><rect x="489.8" y="263" width="1.2" height="15.0" fill="rgb(0,0,0)" rx="2" ry="2" />
<text  x="492.83" y="273.5" ></text>
</g>
<g >
<title>CreateFunctionSpace (24,868 us, 0.22%)</title><rect x="134.1" y="71" width="2.6" height="15.0" fill="rgb(0,0,0)" rx="2" ry="2" />
<text  x="137.13" y="81.5" ></text>
</g>
<g >
<title>PCApply (8,430,276 us, 73.78%)</title><rect x="306.4" y="119" width="870.6" height="15.0" fill="rgb(0,0,0)" rx="2" ry="2" />
<text  x="309.42" y="129.5" >PCApply</text>
</g>
<g >
<title>firedrake.functionspaceimpl.FunctionSpace.__init__ (9,228 us, 0.08%)</title><rect x="1180.7" y="151" width="1.0" height="15.0" fill="rgb(0,0,0)" rx="2" ry="2" />
<text  x="1183.72" y="161.5" ></text>
</g>
<g >
<title>Parloop_Cells_wrap_slate_loopy_knl_87 (2,709,939 us, 23.72%)</title><rect x="460.4" y="215" width="279.8" height="15.0" fill="rgb(0,0,0)" rx="2" ry="2" />
<text  x="463.38" y="225.5" >Parloop_Cells_wrap_slate_loopy_knl..</text>
</g>
<g >
<title>firedrake.assemble.allocate_matrix (58,479 us, 0.51%)</title><rect x="1153.2" y="231" width="6.0" height="15.0" fill="rgb(0,0,0)" rx="2" ry="2" />
<text  x="1156.21" y="241.5" ></text>
</g>
<g >
<title>firedrake.functionspacedata.get_shared_data (9,228 us, 0.08%)</title><rect x="1180.7" y="167" width="1.0" height="15.0" fill="rgb(0,0,0)" rx="2" ry="2" />
<text  x="1183.72" y="177.5" ></text>
</g>
<g >
<title>Log_Event_subkernel132_cell_to__cell_integral_otherwise (26,218 us, 0.23%)</title><rect x="495.9" y="279" width="2.7" height="15.0" fill="rgb(0,0,0)" rx="2" ry="2" />
<text  x="498.87" y="289.5" ></text>
</g>
<g >
<title>Log_Event_mtf_solve_92 (26,379 us, 0.23%)</title><rect x="715.2" y="279" width="2.7" height="15.0" fill="rgb(0,0,0)" rx="2" ry="2" />
<text  x="718.16" y="289.5" ></text>
</g>
<g >
<title>Log_Event_subkernel20_cell_to__cell_integral_otherwise (23,693 us, 0.21%)</title><rect x="445.3" y="263" width="2.5" height="15.0" fill="rgb(0,0,0)" rx="2" ry="2" />
<text  x="448.33" y="273.5" ></text>
</g>
<g >
<title>Log_Event_tensorshell_knl_150 (37,196 us, 0.33%)</title><rect x="600.8" y="295" width="3.8" height="15.0" fill="rgb(0,0,0)" rx="2" ry="2" />
<text  x="603.79" y="305.5" ></text>
</g>
<g >
<title>Log_Event_subkernel126_cell_to__cell_integral_otherwise (7,027 us, 0.06%)</title><rect x="484.9" y="263" width="0.7" height="15.0" fill="rgb(0,0,0)" rx="2" ry="2" />
<text  x="487.88" y="273.5" ></text>
</g>
<g >
<title>Log_Event_tensorshell_knl_131 (77,914 us, 0.68%)</title><rect x="491.7" y="263" width="8.1" height="15.0" fill="rgb(0,0,0)" rx="2" ry="2" />
<text  x="494.71" y="273.5" ></text>
</g>
<g >
<title>ParLoopExecute (72,880 us, 0.64%)</title><rect x="1162.5" y="167" width="7.5" height="15.0" fill="rgb(0,0,0)" rx="2" ry="2" />
<text  x="1165.47" y="177.5" ></text>
</g>
<g >
<title>firedrake.__init__ (1,516,405 us, 13.27%)</title><rect x="136.7" y="71" width="156.6" height="15.0" fill="rgb(0,0,0)" rx="2" ry="2" />
<text  x="139.70" y="81.5" >firedrake.__init__</text>
</g>
<g >
<title>firedrake.variational_solver.NonlinearVariationalSolver.__init__ (4,197 us, 0.04%)</title><rect x="295.1" y="71" width="0.4" height="15.0" fill="rgb(0,0,0)" rx="2" ry="2" />
<text  x="298.06" y="81.5" ></text>
</g>
<g >
<title>Parloop_Cells_wrap_form0_cell_integral_otherwise (35,315 us, 0.31%)</title><rect x="295.9" y="167" width="3.7" height="15.0" fill="rgb(0,0,0)" rx="2" ry="2" />
<text  x="298.93" y="177.5" ></text>
</g>
<g >
<title>Log_Event_subkernel137_cell_to__cell_integral_otherwise (18,524 us, 0.16%)</title><rect x="494.0" y="295" width="1.9" height="15.0" fill="rgb(0,0,0)" rx="2" ry="2" />
<text  x="496.95" y="305.5" ></text>
</g>
<g >
<title>Log_Event_slate_loopy_knl_77 (2,079,726 us, 18.20%)</title><rect x="925.8" y="263" width="214.8" height="15.0" fill="rgb(0,0,0)" rx="2" ry="2" />
<text  x="928.83" y="273.5" >Log_Event_slate_loopy_knl_77</text>
</g>
<g >
<title>firedrake.interpolation.make_interpolator (48,738 us, 0.43%)</title><rect x="1170.0" y="167" width="5.0" height="15.0" fill="rgb(0,0,0)" rx="2" ry="2" />
<text  x="1173.00" y="177.5" ></text>
</g>
<g >
<title>Log_Event_subkernel121_interior_facet_vert_to__exterior_facet_vert_integral_otherwise (23,927 us, 0.21%)</title><rect x="724.5" y="247" width="2.5" height="15.0" fill="rgb(0,0,0)" rx="2" ry="2" />
<text  x="727.48" y="257.5" ></text>
</g>
<g >
<title>CreateFunctionSpace (4,203 us, 0.04%)</title><rect x="1181.7" y="183" width="0.4" height="15.0" fill="rgb(0,0,0)" rx="2" ry="2" />
<text  x="1184.67" y="193.5" ></text>
</g>
<g >
<title>firedrake.functionspacedata.get_shared_data (24,868 us, 0.22%)</title><rect x="134.1" y="103" width="2.6" height="15.0" fill="rgb(0,0,0)" rx="2" ry="2" />
<text  x="137.13" y="113.5" ></text>
</g>
<g >
<title>Parloop_Cells_wrap_form1_cell_integral_otherwise (32,531 us, 0.28%)</title><rect x="299.6" y="167" width="3.3" height="15.0" fill="rgb(0,0,0)" rx="2" ry="2" />
<text  x="302.58" y="177.5" ></text>
</g>
<g >
<title>Parloop_Cells_wrap_wrap_slate_loopy_knl_77 (2,232,821 us, 19.54%)</title><rect x="922.6" y="247" width="230.6" height="15.0" fill="rgb(0,0,0)" rx="2" ry="2" />
<text  x="925.63" y="257.5" >Parloop_Cells_wrap_wrap_slat..</text>
</g>
<g >
<title>CreateExtMesh (76,348 us, 0.67%)</title><rect x="126.2" y="71" width="7.9" height="15.0" fill="rgb(0,0,0)" rx="2" ry="2" />
<text  x="129.25" y="81.5" ></text>
</g>
<g >
<title>Log_Event_subkernel22_cell_to__cell_integral_otherwise (13,745 us, 0.12%)</title><rect x="451.2" y="247" width="1.4" height="15.0" fill="rgb(0,0,0)" rx="2" ry="2" />
<text  x="454.17" y="257.5" ></text>
</g>
<g >
<title>Log_Event_subkernel122_interior_facet_vert_to__exterior_facet_vert_integral_otherwise (42,361 us, 0.37%)</title><rect x="727.0" y="247" width="4.3" height="15.0" fill="rgb(0,0,0)" rx="2" ry="2" />
<text  x="729.96" y="257.5" ></text>
</g>
<g >
<title>SCForwardElim (1,469,374 us, 12.86%)</title><rect x="306.4" y="135" width="151.8" height="15.0" fill="rgb(0,0,0)" rx="2" ry="2" />
<text  x="309.42" y="145.5" >SCForwardElim</text>
</g>
<g >
<title>PCSetUp (125,727 us, 1.10%)</title><rect x="1177.0" y="103" width="13.0" height="15.0" fill="rgb(0,0,0)" rx="2" ry="2" />
<text  x="1180.02" y="113.5" ></text>
</g>
<g >
<title>firedrake.tsfc_interface.compile_form (15,170 us, 0.13%)</title><rect x="1159.9" y="215" width="1.5" height="15.0" fill="rgb(0,0,0)" rx="2" ry="2" />
<text  x="1162.85" y="225.5" ></text>
</g>
<g >
<title>ParLoopExecute (33,511 us, 0.29%)</title><rect x="1186.5" y="151" width="3.5" height="15.0" fill="rgb(0,0,0)" rx="2" ry="2" />
<text  x="1189.54" y="161.5" ></text>
</g>
<g >
<title>firedrake.ufl_expr.adjoint (11,808 us, 0.10%)</title><rect x="293.8" y="103" width="1.3" height="15.0" fill="rgb(0,0,0)" rx="2" ry="2" />
<text  x="296.84" y="113.5" ></text>
</g>
<g >
<title>Log_Event_mtf_solve_16 (50,279 us, 0.44%)</title><rect x="442.6" y="247" width="5.2" height="15.0" fill="rgb(0,0,0)" rx="2" ry="2" />
<text  x="445.58" y="257.5" ></text>
</g>
<g >
<title>firedrake.formmanipulation.split_form (4,672 us, 0.04%)</title><rect x="305.9" y="167" width="0.5" height="15.0" fill="rgb(0,0,0)" rx="2" ry="2" />
<text  x="308.94" y="177.5" ></text>
</g>
<g >
<title>Log_Event_subkernel95_cell_to__cell_integral_otherwise (7,038 us, 0.06%)</title><rect x="716.2" y="295" width="0.7" height="15.0" fill="rgb(0,0,0)" rx="2" ry="2" />
<text  x="719.18" y="305.5" ></text>
</g>
<g >
<title>Parloop_Cells_wrap_pyop2_kernel_uniform_extrusion (39,042 us, 0.34%)</title><rect x="129.4" y="119" width="4.0" height="15.0" fill="rgb(0,0,0)" rx="2" ry="2" />
<text  x="132.40" y="129.5" ></text>
</g>
<g >
<title>FunctionSpaceData: CreateElement (9,228 us, 0.08%)</title><rect x="1180.7" y="199" width="1.0" height="15.0" fill="rgb(0,0,0)" rx="2" ry="2" />
<text  x="1183.72" y="209.5" ></text>
</g>
<g >
<title>MatMult (1,265,740 us, 11.08%)</title><rect x="740.2" y="231" width="130.8" height="15.0" fill="rgb(0,0,0)" rx="2" ry="2" />
<text  x="743.24" y="241.5" >MatMult</text>
</g>
<g >
<title>firedrake.extrusion_utils.make_extruded_coords (69,585 us, 0.61%)</title><rect x="126.2" y="87" width="7.2" height="15.0" fill="rgb(0,0,0)" rx="2" ry="2" />
<text  x="129.25" y="97.5" ></text>
</g>
<g >
<title>Log_Event_tensorshell_knl_14 (96,916 us, 0.85%)</title><rect x="442.6" y="231" width="10.0" height="15.0" fill="rgb(0,0,0)" rx="2" ry="2" />
<text  x="445.58" y="241.5" ></text>
</g>
<g >
<title>FunctionSpaceData: CreateElement (11,701 us, 0.10%)</title><rect x="135.5" y="135" width="1.2" height="15.0" fill="rgb(0,0,0)" rx="2" ry="2" />
<text  x="138.49" y="145.5" ></text>
</g>
<g >
<title>firedrake.assemble.allocate_matrix (4,197 us, 0.04%)</title><rect x="295.1" y="87" width="0.4" height="15.0" fill="rgb(0,0,0)" rx="2" ry="2" />
<text  x="298.06" y="97.5" ></text>
</g>
<g >
<title>Log_Event_subkernel139_cell_to__cell_integral_otherwise (11,489 us, 0.10%)</title><rect x="498.6" y="279" width="1.2" height="15.0" fill="rgb(0,0,0)" rx="2" ry="2" />
<text  x="501.57" y="289.5" ></text>
</g>
<g >
<title>firedrake.matrix_free.operators.ImplicitMatrixContext.__init__ (4,197 us, 0.04%)</title><rect x="295.1" y="103" width="0.4" height="15.0" fill="rgb(0,0,0)" rx="2" ry="2" />
<text  x="298.06" y="113.5" ></text>
</g>
<g >
<title>pyop2.global_kernel.GlobalKernel.compile (35,315 us, 0.31%)</title><rect x="295.9" y="183" width="3.7" height="15.0" fill="rgb(0,0,0)" rx="2" ry="2" />
<text  x="298.93" y="193.5" ></text>
</g>
<g >
<title>firedrake.ufl_expr.action (5,182 us, 0.05%)</title><rect x="293.3" y="87" width="0.5" height="15.0" fill="rgb(0,0,0)" rx="2" ry="2" />
<text  x="296.30" y="97.5" ></text>
</g>
<g >
<title>firedrake.tsfc_interface.compile_form (19,197 us, 0.17%)</title><rect x="1175.0" y="167" width="2.0" height="15.0" fill="rgb(0,0,0)" rx="2" ry="2" />
<text  x="1178.03" y="177.5" ></text>
</g>
<g >
<title>firedrake.functionspaceimpl.FunctionSpace.__init__ (24,868 us, 0.22%)</title><rect x="134.1" y="87" width="2.6" height="15.0" fill="rgb(0,0,0)" rx="2" ry="2" />
<text  x="137.13" y="97.5" ></text>
</g>
<g >
<title>firedrake.matrix_free.operators.ImplicitMatrixContext.mult (105,870 us, 0.93%)</title><rect x="295.5" y="135" width="10.9" height="15.0" fill="rgb(0,0,0)" rx="2" ry="2" />
<text  x="298.49" y="145.5" ></text>
</g>
<g >
<title>Log_Event_slate_loopy_knl_0 (129,097 us, 1.13%)</title><rect x="440.7" y="199" width="13.4" height="15.0" fill="rgb(0,0,0)" rx="2" ry="2" />
<text  x="443.73" y="209.5" ></text>
</g>
<g >
<title>firedrake.functionspacedata.FunctionSpaceData.__init__ (9,228 us, 0.08%)</title><rect x="1180.7" y="183" width="1.0" height="15.0" fill="rgb(0,0,0)" rx="2" ry="2" />
<text  x="1183.72" y="193.5" ></text>
</g>
<g >
<title>Log_Event_subkernel7_cell_to__cell_integral_otherwise (6,030 us, 0.05%)</title><rect x="452.6" y="263" width="0.6" height="15.0" fill="rgb(0,0,0)" rx="2" ry="2" />
<text  x="455.59" y="273.5" ></text>
</g>
<g >
<title>Log_Event_subkernel15_cell_to__cell_integral_otherwise (32,892 us, 0.29%)</title><rect x="447.8" y="247" width="3.4" height="15.0" fill="rgb(0,0,0)" rx="2" ry="2" />
<text  x="450.78" y="257.5" ></text>
</g>
<g >
<title>Log_Event_subkernel93_cell_to__cell_integral_otherwise (9,867 us, 0.09%)</title><rect x="715.2" y="295" width="1.0" height="15.0" fill="rgb(0,0,0)" rx="2" ry="2" />
<text  x="718.16" y="305.5" ></text>
</g>
<g >
<title>firedrake.functionspacedata.FunctionSpaceData.__init__ (24,868 us, 0.22%)</title><rect x="134.1" y="119" width="2.6" height="15.0" fill="rgb(0,0,0)" rx="2" ry="2" />
<text  x="137.13" y="129.5" ></text>
</g>
<g >
<title>Log_Event_subkernel110_cell_to__cell_integral_otherwise (11,393 us, 0.10%)</title><rect x="714.0" y="279" width="1.2" height="15.0" fill="rgb(0,0,0)" rx="2" ry="2" />
<text  x="716.99" y="289.5" ></text>
</g>
<g >
<title>Log_Event_subkernel129_cell_to__cell_integral_otherwise (11,545 us, 0.10%)</title><rect x="731.3" y="247" width="1.2" height="15.0" fill="rgb(0,0,0)" rx="2" ry="2" />
<text  x="734.33" y="257.5" ></text>
</g>
<g >
<title>Log_Event_mtf_solve_4 (6,030 us, 0.05%)</title><rect x="452.6" y="247" width="0.6" height="15.0" fill="rgb(0,0,0)" rx="2" ry="2" />
<text  x="455.59" y="257.5" ></text>
</g>
<g >
<title>MatMult (105,870 us, 0.93%)</title><rect x="295.5" y="119" width="10.9" height="15.0" fill="rgb(0,0,0)" rx="2" ry="2" />
<text  x="298.49" y="129.5" ></text>
</g>
<g >
<title>MatMult (2,731,422 us, 23.90%)</title><rect x="458.2" y="167" width="282.0" height="15.0" fill="rgb(0,0,0)" rx="2" ry="2" />
<text  x="461.16" y="177.5" >MatMult</text>
</g>
<g >
<title>ParLoopExecute (2,709,939 us, 23.72%)</title><rect x="460.4" y="199" width="279.8" height="15.0" fill="rgb(0,0,0)" rx="2" ry="2" />
<text  x="463.38" y="209.5" >ParLoopExecute</text>
</g>
<g >
<title>Log_Event_subkernel142_interior_facet_vert_to__exterior_facet_vert_integral_otherwise (7,293 us, 0.06%)</title><rect x="491.0" y="263" width="0.7" height="15.0" fill="rgb(0,0,0)" rx="2" ry="2" />
<text  x="493.96" y="273.5" ></text>
</g>
<g >
<title>pyop2.global_kernel.GlobalKernel.compile (39,042 us, 0.34%)</title><rect x="129.4" y="135" width="4.0" height="15.0" fill="rgb(0,0,0)" rx="2" ry="2" />
<text  x="132.40" y="145.5" ></text>
</g>
<g >
<title>firedrake.functionspacedata.FunctionSpaceData.__init__ (6,763 us, 0.06%)</title><rect x="133.4" y="151" width="0.7" height="15.0" fill="rgb(0,0,0)" rx="2" ry="2" />
<text  x="136.44" y="161.5" ></text>
</g>
<g >
<title>all (11,426,369 us, 100%)</title><rect x="10.0" y="39" width="1180.0" height="15.0" fill="rgb(0,0,0)" rx="2" ry="2" />
<text  x="13.00" y="49.5" ></text>
</g>
<g >
<title>pyop2.global_kernel.GlobalKernel.compile (33,511 us, 0.29%)</title><rect x="1186.5" y="183" width="3.5" height="15.0" fill="rgb(0,0,0)" rx="2" ry="2" />
<text  x="1189.54" y="193.5" ></text>
</g>
<g >
<title>Log_Event_subkernel78_interior_facet_vert_to__exterior_facet_vert_integral_otherwise (21,371 us, 0.19%)</title><rect x="1140.6" y="263" width="2.2" height="15.0" fill="rgb(0,0,0)" rx="2" ry="2" />
<text  x="1143.60" y="273.5" ></text>
</g>
<g >
<title>Log_Event_subkernel134_cell_to__cell_integral_otherwise (9,868 us, 0.09%)</title><rect x="492.2" y="295" width="1.0" height="15.0" fill="rgb(0,0,0)" rx="2" ry="2" />
<text  x="495.20" y="305.5" ></text>
</g>
<g >
<title>Parloop_Cells_wrap_slate_loopy_knl_0 (168,804 us, 1.48%)</title><rect x="440.7" y="183" width="17.5" height="15.0" fill="rgb(0,0,0)" rx="2" ry="2" />
<text  x="443.73" y="193.5" ></text>
</g>
<g >
<title>KSPSolve (8,536,146 us, 74.71%)</title><rect x="295.5" y="103" width="881.5" height="15.0" fill="rgb(0,0,0)" rx="2" ry="2" />
<text  x="298.49" y="113.5" >KSPSolve</text>
</g>
<g >
<title>Log_Event_subkernel151_cell_to__cell_integral_otherwise (276,491 us, 2.42%)</title><rect x="672.9" y="279" width="28.6" height="15.0" fill="rgb(0,0,0)" rx="2" ry="2" />
<text  x="675.94" y="289.5" >L..</text>
</g>
<g >
<title>HybridInit (125,727 us, 1.10%)</title><rect x="1177.0" y="119" width="13.0" height="15.0" fill="rgb(0,0,0)" rx="2" ry="2" />
<text  x="1180.02" y="129.5" ></text>
</g>
<g >
<title>firedrake.functionspaceimpl.FunctionSpace.__init__ (4,203 us, 0.04%)</title><rect x="1181.7" y="199" width="0.4" height="15.0" fill="rgb(0,0,0)" rx="2" ry="2" />
<text  x="1184.67" y="209.5" ></text>
</g>
<g >
<title>firedrake.variational_solver.LinearVariationalProblem.__init__ (16,990 us, 0.15%)</title><rect x="293.3" y="71" width="1.8" height="15.0" fill="rgb(0,0,0)" rx="2" ry="2" />
<text  x="296.30" y="81.5" ></text>
</g>
<g >
<title>firedrake.interpolation.make_interpolator (37,830 us, 0.33%)</title><rect x="1182.1" y="135" width="3.9" height="15.0" fill="rgb(0,0,0)" rx="2" ry="2" />
<text  x="1185.11" y="145.5" ></text>
</g>
<g >
<title>Log_Event_subkernel159_cell_to__cell_integral_otherwise (6,999 us, 0.06%)</title><rect x="703.0" y="263" width="0.7" height="15.0" fill="rgb(0,0,0)" rx="2" ry="2" />
<text  x="706.00" y="273.5" ></text>
</g>
<g >
<title>Log_Event_subkernel82_cell_to__cell_integral_otherwise (4,362 us, 0.04%)</title><rect x="1146.2" y="263" width="0.4" height="15.0" fill="rgb(0,0,0)" rx="2" ry="2" />
<text  x="1149.18" y="273.5" ></text>
</g>
<g >
<title>firedrake.matrix_free.operators.ImplicitMatrixContext.mult (2,731,422 us, 23.90%)</title><rect x="458.2" y="183" width="282.0" height="15.0" fill="rgb(0,0,0)" rx="2" ry="2" />
<text  x="461.16" y="193.5" >firedrake.matrix_free.operators.Im..</text>
</g>
<g >
<title>Log_Event_subkernel163_interior_facet_vert_to__exterior_facet_vert_integral_otherwise (24,535 us, 0.21%)</title><rect x="737.7" y="247" width="2.5" height="15.0" fill="rgb(0,0,0)" rx="2" ry="2" />
<text  x="740.70" y="257.5" ></text>
</g>
<g >
<title>Log_Event_subkernel103_cell_to__cell_integral_otherwise (26,205 us, 0.23%)</title><rect x="711.3" y="279" width="2.7" height="15.0" fill="rgb(0,0,0)" rx="2" ry="2" />
<text  x="714.28" y="289.5" ></text>
</g>
<g >
<title>PCSetUp (2,791,692 us, 24.43%)</title><rect x="871.0" y="215" width="288.2" height="15.0" fill="rgb(0,0,0)" rx="2" ry="2" />
<text  x="873.95" y="225.5" >PCSetUp</text>
</g>
<g >
<title>SNESSolve (8,661,873 us, 75.81%)</title><rect x="295.5" y="87" width="894.5" height="15.0" fill="rgb(0,0,0)" rx="2" ry="2" />
<text  x="298.49" y="97.5" >SNESSolve</text>
</g>
<g >
<title>firedrake.parloops.par_loop (38,605 us, 0.34%)</title><rect x="1186.0" y="135" width="4.0" height="15.0" fill="rgb(0,0,0)" rx="2" ry="2" />
<text  x="1189.01" y="145.5" ></text>
</g>
<g >
<title>KSPSolve (1,265,740 us, 11.08%)</title><rect x="740.2" y="215" width="130.8" height="15.0" fill="rgb(0,0,0)" rx="2" ry="2" />
<text  x="743.24" y="225.5" >KSPSolve</text>
</g>
<g >
<title>HybridBreak (42,630 us, 0.37%)</title><rect x="306.4" y="151" width="4.4" height="15.0" fill="rgb(0,0,0)" rx="2" ry="2" />
<text  x="309.42" y="161.5" ></text>
</g>
<g >
<title>SCSolve (6,960,902 us, 60.92%)</title><rect x="458.2" y="135" width="718.8" height="15.0" fill="rgb(0,0,0)" rx="2" ry="2" />
<text  x="461.16" y="145.5" >SCSolve</text>
</g>
<g >
<title>pyop2.global_kernel.GlobalKernel.compile (36,874 us, 0.32%)</title><rect x="307.0" y="215" width="3.8" height="15.0" fill="rgb(0,0,0)" rx="2" ry="2" />
<text  x="310.02" y="225.5" ></text>
</g>
<g >
<title>inv_getrf (33,429 us, 0.29%)</title><rect x="1122.3" y="279" width="3.5" height="15.0" fill="rgb(0,0,0)" rx="2" ry="2" />
<text  x="1125.30" y="289.5" ></text>
</g>
<g >
<title>firedrake.functionspacedata.get_shared_data (6,763 us, 0.06%)</title><rect x="133.4" y="135" width="0.7" height="15.0" fill="rgb(0,0,0)" rx="2" ry="2" />
<text  x="136.44" y="145.5" ></text>
</g>
<g >
<title>Log_Event_mtf_solve_123 (41,075 us, 0.36%)</title><rect x="483.4" y="247" width="4.2" height="15.0" fill="rgb(0,0,0)" rx="2" ry="2" />
<text  x="486.36" y="257.5" ></text>
</g>
<g >
<title>Log_Event_mtf_solve_145 (1,000,384 us, 8.76%)</title><rect x="501.3" y="279" width="103.3" height="15.0" fill="rgb(0,0,0)" rx="2" ry="2" />
<text  x="504.32" y="289.5" >Log_Event_m..</text>
</g>
<g >
<title>ParLoopExecute (67,846 us, 0.59%)</title><rect x="295.9" y="151" width="7.0" height="15.0" fill="rgb(0,0,0)" rx="2" ry="2" />
<text  x="298.93" y="161.5" ></text>
</g>
<g >
<title>Log_Event_subkernel157_cell_to__cell_integral_otherwise (9,804 us, 0.09%)</title><rect x="702.0" y="263" width="1.0" height="15.0" fill="rgb(0,0,0)" rx="2" ry="2" />
<text  x="704.98" y="273.5" ></text>
</g>
<g >
<title>firedrake.functionspaceimpl.FunctionSpace.__init__ (6,763 us, 0.06%)</title><rect x="133.4" y="119" width="0.7" height="15.0" fill="rgb(0,0,0)" rx="2" ry="2" />
<text  x="136.44" y="129.5" ></text>
</g>
<g >
<title>MatZeroInitial (15,856 us, 0.14%)</title><rect x="1157.6" y="247" width="1.6" height="15.0" fill="rgb(0,0,0)" rx="2" ry="2" />
<text  x="1160.61" y="257.5" ></text>
</g>
<g >
<title>CreateFunctionSpace (13,085 us, 0.11%)</title><rect x="1180.3" y="135" width="1.4" height="15.0" fill="rgb(0,0,0)" rx="2" ry="2" />
<text  x="1183.32" y="145.5" ></text>
</g>
<g >
<title>firedrake.functionspace.MixedFunctionSpace (3,857 us, 0.03%)</title><rect x="1180.3" y="151" width="0.4" height="15.0" fill="rgb(0,0,0)" rx="2" ry="2" />
<text  x="1183.32" y="161.5" ></text>
</g>
<g >
<title>PCSetUp (151,027 us, 1.32%)</title><rect x="1161.4" y="151" width="15.6" height="15.0" fill="rgb(0,0,0)" rx="2" ry="2" />
<text  x="1164.42" y="161.5" ></text>
</g>
<g >
<title>Log_Event_mtf_solve_156 (40,820 us, 0.36%)</title><rect x="701.5" y="247" width="4.2" height="15.0" fill="rgb(0,0,0)" rx="2" ry="2" />
<text  x="704.49" y="257.5" ></text>
</g>
<g >
<title>Log_Event_tensorshell_knl_143 (1,953,469 us, 17.10%)</title><rect x="499.8" y="263" width="201.7" height="15.0" fill="rgb(0,0,0)" rx="2" ry="2" />
<text  x="502.76" y="273.5" >Log_Event_tensorshell_kn..</text>
</g>
<g >
<title>Parloop_Cells_wrap_form00_cell_integral_otherwise (37,845 us, 0.33%)</title><rect x="1166.1" y="183" width="3.9" height="15.0" fill="rgb(0,0,0)" rx="2" ry="2" />
<text  x="1169.09" y="193.5" ></text>
</g>
<g >
<title>Log_Event_mtf_solve_115 (26,582 us, 0.23%)</title><rect x="480.6" y="247" width="2.8" height="15.0" fill="rgb(0,0,0)" rx="2" ry="2" />
<text  x="483.61" y="257.5" ></text>
</g>
<g >
<title>CreateFunctionSpace (6,763 us, 0.06%)</title><rect x="133.4" y="103" width="0.7" height="15.0" fill="rgb(0,0,0)" rx="2" ry="2" />
<text  x="136.44" y="113.5" ></text>
</g>
<g >
<title>firedrake.parloops.par_loop (42,630 us, 0.37%)</title><rect x="306.4" y="167" width="4.4" height="15.0" fill="rgb(0,0,0)" rx="2" ry="2" />
<text  x="309.42" y="177.5" ></text>
</g>
<g >
<title>Log_Event_subkernel80_cell_to__cell_integral_otherwise (12,053 us, 0.11%)</title><rect x="1144.9" y="263" width="1.3" height="15.0" fill="rgb(0,0,0)" rx="2" ry="2" />
<text  x="1147.93" y="273.5" ></text>
</g>
<g >
<title>KSPSolve (6,809,875 us, 59.60%)</title><rect x="458.2" y="151" width="703.2" height="15.0" fill="rgb(0,0,0)" rx="2" ry="2" />
<text  x="461.16" y="161.5" >KSPSolve</text>
</g>
<g >
<title>pyop2.global_kernel.GlobalKernel.compile (39,707 us, 0.35%)</title><rect x="454.1" y="199" width="4.1" height="15.0" fill="rgb(0,0,0)" rx="2" ry="2" />
<text  x="457.06" y="209.5" ></text>
</g>
<g >
<title>Log_Event_subkernel124_cell_to__cell_integral_otherwise (9,896 us, 0.09%)</title><rect x="483.9" y="263" width="1.0" height="15.0" fill="rgb(0,0,0)" rx="2" ry="2" />
<text  x="486.86" y="273.5" ></text>
</g>
</g>
</svg>
