<?xml version="1.0" standalone="no"?>
<!DOCTYPE svg PUBLIC "-//W3C//DTD SVG 1.1//EN" "http://www.w3.org/Graphics/SVG/1.1/DTD/svg11.dtd">
<svg version="1.1" width="1200" height="347" onload="init(evt)" viewBox="0 0 1200 347" xmlns="http://www.w3.org/2000/svg" xmlns:xlink="http://www.w3.org/1999/xlink">
<!-- Flame graph stack visualization. See https://github.com/brendangregg/FlameGraph for latest version, and http://www.brendangregg.com/flamegraphs.html for examples. -->
<!-- NOTES:  -->
<defs>
	<linearGradient id="background" y1="0" y2="1" x1="0" x2="0" >
		<stop stop-color="#eeeeee" offset="5%" />
		<stop stop-color="#eeeeb0" offset="95%" />
	</linearGradient>
</defs>
<style type="text/css">
	text { font-family:Verdana; font-size:13px; fill:rgb(0,0,0); }
	#search, #ignorecase { opacity:0.1; cursor:pointer; }
	#search:hover, #search.show, #ignorecase:hover, #ignorecase.show { opacity:1; }
	#subtitle { text-anchor:middle; font-color:rgb(160,160,160); }
	#title { text-anchor:middle; font-size:18px}
	#unzoom { cursor:pointer; }
	#frames > *:hover { stroke:black; stroke-width:0.5; cursor:pointer; }
	.hide { display:none; }
	.parent { opacity:0.5; }
</style>
<script type="text/ecmascript">
<![CDATA[
	"use strict";
	var details, searchbtn, unzoombtn, matchedtxt, svg, searching, currentSearchTerm, ignorecase, ignorecaseBtn;
	function init(evt) {
		details = document.getElementById("details").firstChild;
		searchbtn = document.getElementById("search");
		ignorecaseBtn = document.getElementById("ignorecase");
		unzoombtn = document.getElementById("unzoom");
		matchedtxt = document.getElementById("matched");
		svg = document.getElementsByTagName("svg")[0];
		searching = 0;
		currentSearchTerm = null;

		// use GET parameters to restore a flamegraphs state.
		var params = get_params();
		if (params.x && params.y)
			zoom(find_group(document.querySelector('[x="' + params.x + '"][y="' + params.y + '"]')));
                if (params.s) search(params.s);
	}

	// event listeners
	window.addEventListener("click", function(e) {
		var target = find_group(e.target);
		if (target) {
			if (target.nodeName == "a") {
				if (e.ctrlKey === false) return;
				e.preventDefault();
			}
			if (target.classList.contains("parent")) unzoom();
			zoom(target);
			if (!document.querySelector('.parent')) {
				clearzoom();
				return;
			}

			// set parameters for zoom state
			var el = target.querySelector("rect");
			if (el && el.attributes && el.attributes.y && el.attributes._orig_x) {
				var params = get_params()
				params.x = el.attributes._orig_x.value;
				params.y = el.attributes.y.value;
				history.replaceState(null, null, parse_params(params));
			}
		}
		else if (e.target.id == "unzoom") clearzoom();
		else if (e.target.id == "search") search_prompt();
		else if (e.target.id == "ignorecase") toggle_ignorecase();
	}, false)

	// mouse-over for info
	// show
	window.addEventListener("mouseover", function(e) {
		var target = find_group(e.target);
		if (target) details.nodeValue = "Function: " + g_to_text(target);
	}, false)

	// clear
	window.addEventListener("mouseout", function(e) {
		var target = find_group(e.target);
		if (target) details.nodeValue = ' ';
	}, false)

	// ctrl-F for search
	// ctrl-I to toggle case-sensitive search
	window.addEventListener("keydown",function (e) {
		if (e.keyCode === 114 || (e.ctrlKey && e.keyCode === 70)) {
			e.preventDefault();
			search_prompt();
		}
		else if (e.ctrlKey && e.keyCode === 73) {
			e.preventDefault();
			toggle_ignorecase();
		}
	}, false)

	// functions
	function get_params() {
		var params = {};
		var paramsarr = window.location.search.substr(1).split('&');
		for (var i = 0; i < paramsarr.length; ++i) {
			var tmp = paramsarr[i].split("=");
			if (!tmp[0] || !tmp[1]) continue;
			params[tmp[0]]  = decodeURIComponent(tmp[1]);
		}
		return params;
	}
	function parse_params(params) {
		var uri = "?";
		for (var key in params) {
			uri += key + '=' + encodeURIComponent(params[key]) + '&';
		}
		if (uri.slice(-1) == "&")
			uri = uri.substring(0, uri.length - 1);
		if (uri == '?')
			uri = window.location.href.split('?')[0];
		return uri;
	}
	function find_child(node, selector) {
		var children = node.querySelectorAll(selector);
		if (children.length) return children[0];
	}
	function find_group(node) {
		var parent = node.parentElement;
		if (!parent) return;
		if (parent.id == "frames") return node;
		return find_group(parent);
	}
	function orig_save(e, attr, val) {
		if (e.attributes["_orig_" + attr] != undefined) return;
		if (e.attributes[attr] == undefined) return;
		if (val == undefined) val = e.attributes[attr].value;
		e.setAttribute("_orig_" + attr, val);
	}
	function orig_load(e, attr) {
		if (e.attributes["_orig_"+attr] == undefined) return;
		e.attributes[attr].value = e.attributes["_orig_" + attr].value;
		e.removeAttribute("_orig_"+attr);
	}
	function g_to_text(e) {
		var text = find_child(e, "title").firstChild.nodeValue;
		return (text)
	}
	function g_to_func(e) {
		var func = g_to_text(e);
		// if there's any manipulation we want to do to the function
		// name before it's searched, do it here before returning.
		return (func);
	}
	function update_text(e) {
		var r = find_child(e, "rect");
		var t = find_child(e, "text");
		var w = parseFloat(r.attributes.width.value) -3;
		var txt = find_child(e, "title").textContent.replace(/\([^(]*\)$/,"");
		t.attributes.x.value = parseFloat(r.attributes.x.value) + 3;

		// Smaller than this size won't fit anything
		if (w < 2 * 13 * 0.59) {
			t.textContent = "";
			return;
		}

		t.textContent = txt;
		// Fit in full text width
		if (/^ *$/.test(txt) || t.getSubStringLength(0, txt.length) < w)
			return;

		for (var x = txt.length - 2; x > 0; x--) {
			if (t.getSubStringLength(0, x + 2) <= w) {
				t.textContent = txt.substring(0, x) + "..";
				return;
			}
		}
		t.textContent = "";
	}

	// zoom
	function zoom_reset(e) {
		if (e.attributes != undefined) {
			orig_load(e, "x");
			orig_load(e, "width");
		}
		if (e.childNodes == undefined) return;
		for (var i = 0, c = e.childNodes; i < c.length; i++) {
			zoom_reset(c[i]);
		}
	}
	function zoom_child(e, x, ratio) {
		if (e.attributes != undefined) {
			if (e.attributes.x != undefined) {
				orig_save(e, "x");
				e.attributes.x.value = (parseFloat(e.attributes.x.value) - x - 10) * ratio + 10;
				if (e.tagName == "text")
					e.attributes.x.value = find_child(e.parentNode, "rect[x]").attributes.x.value + 3;
			}
			if (e.attributes.width != undefined) {
				orig_save(e, "width");
				e.attributes.width.value = parseFloat(e.attributes.width.value) * ratio;
			}
		}

		if (e.childNodes == undefined) return;
		for (var i = 0, c = e.childNodes; i < c.length; i++) {
			zoom_child(c[i], x - 10, ratio);
		}
	}
	function zoom_parent(e) {
		if (e.attributes) {
			if (e.attributes.x != undefined) {
				orig_save(e, "x");
				e.attributes.x.value = 10;
			}
			if (e.attributes.width != undefined) {
				orig_save(e, "width");
				e.attributes.width.value = parseInt(svg.width.baseVal.value) - (10 * 2);
			}
		}
		if (e.childNodes == undefined) return;
		for (var i = 0, c = e.childNodes; i < c.length; i++) {
			zoom_parent(c[i]);
		}
	}
	function zoom(node) {
		var attr = find_child(node, "rect").attributes;
		var width = parseFloat(attr.width.value);
		var xmin = parseFloat(attr.x.value);
		var xmax = parseFloat(xmin + width);
		var ymin = parseFloat(attr.y.value);
		var ratio = (svg.width.baseVal.value - 2 * 10) / width;

		// XXX: Workaround for JavaScript float issues (fix me)
		var fudge = 0.0001;

		unzoombtn.classList.remove("hide");

		var el = document.getElementById("frames").children;
		for (var i = 0; i < el.length; i++) {
			var e = el[i];
			var a = find_child(e, "rect").attributes;
			var ex = parseFloat(a.x.value);
			var ew = parseFloat(a.width.value);
			var upstack;
			// Is it an ancestor
			if (1 == 0) {
				upstack = parseFloat(a.y.value) > ymin;
			} else {
				upstack = parseFloat(a.y.value) < ymin;
			}
			if (upstack) {
				// Direct ancestor
				if (ex <= xmin && (ex+ew+fudge) >= xmax) {
					e.classList.add("parent");
					zoom_parent(e);
					update_text(e);
				}
				// not in current path
				else
					e.classList.add("hide");
			}
			// Children maybe
			else {
				// no common path
				if (ex < xmin || ex + fudge >= xmax) {
					e.classList.add("hide");
				}
				else {
					zoom_child(e, xmin, ratio);
					update_text(e);
				}
			}
		}
		search();
	}
	function unzoom() {
		unzoombtn.classList.add("hide");
		var el = document.getElementById("frames").children;
		for(var i = 0; i < el.length; i++) {
			el[i].classList.remove("parent");
			el[i].classList.remove("hide");
			zoom_reset(el[i]);
			update_text(el[i]);
		}
		search();
	}
	function clearzoom() {
		unzoom();

		// remove zoom state
		var params = get_params();
		if (params.x) delete params.x;
		if (params.y) delete params.y;
		history.replaceState(null, null, parse_params(params));
	}

	// search
	function toggle_ignorecase() {
		ignorecase = !ignorecase;
		if (ignorecase) {
			ignorecaseBtn.classList.add("show");
		} else {
			ignorecaseBtn.classList.remove("show");
		}
		reset_search();
		search();
	}
	function reset_search() {
		var el = document.querySelectorAll("#frames rect");
		for (var i = 0; i < el.length; i++) {
			orig_load(el[i], "fill")
		}
		var params = get_params();
		delete params.s;
		history.replaceState(null, null, parse_params(params));
	}
	function search_prompt() {
		if (!searching) {
			var term = prompt("Enter a search term (regexp " +
			    "allowed, eg: ^ext4_)"
			    + (ignorecase ? ", ignoring case" : "")
			    + "\nPress Ctrl-i to toggle case sensitivity", "");
			if (term != null) search(term);
		} else {
			reset_search();
			searching = 0;
			currentSearchTerm = null;
			searchbtn.classList.remove("show");
			searchbtn.firstChild.nodeValue = "Search"
			matchedtxt.classList.add("hide");
			matchedtxt.firstChild.nodeValue = ""
		}
	}
	function search(term) {
		if (term) currentSearchTerm = term;

		var re = new RegExp(currentSearchTerm, ignorecase ? 'i' : '');
		var el = document.getElementById("frames").children;
		var matches = new Object();
		var maxwidth = 0;
		for (var i = 0; i < el.length; i++) {
			var e = el[i];
			var func = g_to_func(e);
			var rect = find_child(e, "rect");
			if (func == null || rect == null)
				continue;

			// Save max width. Only works as we have a root frame
			var w = parseFloat(rect.attributes.width.value);
			if (w > maxwidth)
				maxwidth = w;

			if (func.match(re)) {
				// highlight
				var x = parseFloat(rect.attributes.x.value);
				orig_save(rect, "fill");
				rect.attributes.fill.value = "rgb(230,0,230)";

				// remember matches
				if (matches[x] == undefined) {
					matches[x] = w;
				} else {
					if (w > matches[x]) {
						// overwrite with parent
						matches[x] = w;
					}
				}
				searching = 1;
			}
		}
		if (!searching)
			return;
		var params = get_params();
		params.s = currentSearchTerm;
		history.replaceState(null, null, parse_params(params));

		searchbtn.classList.add("show");
		searchbtn.firstChild.nodeValue = "Reset Search";

		// calculate percent matched, excluding vertical overlap
		var count = 0;
		var lastx = -1;
		var lastw = 0;
		var keys = Array();
		for (k in matches) {
			if (matches.hasOwnProperty(k))
				keys.push(k);
		}
		// sort the matched frames by their x location
		// ascending, then width descending
		keys.sort(function(a, b){
			return a - b;
		});
		// Step through frames saving only the biggest bottom-up frames
		// thanks to the sort order. This relies on the tree property
		// where children are always smaller than their parents.
		var fudge = 0.0001;	// JavaScript floating point
		for (var k in keys) {
			var x = parseFloat(keys[k]);
			var w = matches[keys[k]];
			if (x >= lastx + lastw - fudge) {
				count += w;
				lastx = x;
				lastw = w;
			}
		}
		// display matched percent
		matchedtxt.classList.remove("hide");
		var pct = 100 * count / maxwidth;
		if (pct != 100) pct = pct.toFixed(1)
		matchedtxt.firstChild.nodeValue = "Matched: " + pct + "%";
	}
]]>
</script>
<rect x="0.0" y="0" width="1200.0" height="347.0" fill="url(#background)"  />
<text id="title" x="600.00" y="26" >Firedrake example</text>
<text id="details" x="10.00" y="329" > </text>
<text id="unzoom" x="10.00" y="26" class="hide">Reset Zoom</text>
<text id="search" x="1090.00" y="26" >Search</text>
<text id="ignorecase" x="1174.00" y="26" >ic</text>
<text id="matched" x="1090.00" y="329" > </text>
<g id="frames">
<g >
<title>Parloop_Cells_wrap_form1_cell_integral_otherwise (35,072 us, 0.31%)</title><rect x="301.5" y="167" width="3.7" height="15.0" fill="rgb(0,0,0)" rx="2" ry="2" />
<text  x="304.55" y="177.5" ></text>
</g>
<g >
<title>inv_getrf (33,468 us, 0.29%)</title><rect x="1121.9" y="279" width="3.5" height="15.0" fill="rgb(0,0,0)" rx="2" ry="2" />
<text  x="1124.92" y="289.5" ></text>
</g>
<g >
<title>Log_Event_slate_loopy_knl_77 (2,066,637 us, 18.11%)</title><rect x="926.5" y="263" width="213.6" height="15.0" fill="rgb(0,0,0)" rx="2" ry="2" />
<text  x="929.48" y="273.5" >Log_Event_slate_loopy_knl..</text>
</g>
<g >
<title>Log_Event_mtf_solve_41 (8,213 us, 0.07%)</title><rect x="454.9" y="215" width="0.8" height="15.0" fill="rgb(0,0,0)" rx="2" ry="2" />
<text  x="457.85" y="225.5" ></text>
</g>
<g >
<title>firedrake.functionspaceimpl.FunctionSpace.__init__ (23,726 us, 0.21%)</title><rect x="134.0" y="87" width="2.4" height="15.0" fill="rgb(0,0,0)" rx="2" ry="2" />
<text  x="137.00" y="97.5" ></text>
</g>
<g >
<title>Parloop_Cells_wrap_slate_loopy_knl_0 (172,321 us, 1.51%)</title><rect x="441.9" y="183" width="17.9" height="15.0" fill="rgb(0,0,0)" rx="2" ry="2" />
<text  x="444.94" y="193.5" ></text>
</g>
<g >
<title>ParLoopExecute (172,321 us, 1.51%)</title><rect x="441.9" y="167" width="17.9" height="15.0" fill="rgb(0,0,0)" rx="2" ry="2" />
<text  x="444.94" y="177.5" ></text>
</g>
<g >
<title>firedrake.functionspacedata.FunctionSpaceData.__init__ (6,370 us, 0.06%)</title><rect x="133.3" y="151" width="0.7" height="15.0" fill="rgb(0,0,0)" rx="2" ry="2" />
<text  x="136.34" y="161.5" ></text>
</g>
<g >
<title>Log_Event_subkernel159_cell_to__cell_integral_otherwise (6,883 us, 0.06%)</title><rect x="704.3" y="263" width="0.7" height="15.0" fill="rgb(0,0,0)" rx="2" ry="2" />
<text  x="707.30" y="273.5" ></text>
</g>
<g >
<title>Log_Event_subkernel134_cell_to__cell_integral_otherwise (9,806 us, 0.09%)</title><rect x="494.0" y="295" width="1.0" height="15.0" fill="rgb(0,0,0)" rx="2" ry="2" />
<text  x="497.01" y="305.5" ></text>
</g>
<g >
<title>HybridRHS (1,418,902 us, 12.43%)</title><rect x="313.1" y="151" width="146.7" height="15.0" fill="rgb(0,0,0)" rx="2" ry="2" />
<text  x="316.07" y="161.5" >HybridRHS</text>
</g>
<g >
<title>Log_Event_subkernel22_cell_to__cell_integral_otherwise (19,539 us, 0.17%)</title><rect x="452.4" y="247" width="2.0" height="15.0" fill="rgb(0,0,0)" rx="2" ry="2" />
<text  x="455.42" y="257.5" ></text>
</g>
<g >
<title>Parloop_Cells_wrap_expression_kernel (36,796 us, 0.32%)</title><rect x="1162.4" y="183" width="3.8" height="15.0" fill="rgb(0,0,0)" rx="2" ry="2" />
<text  x="1165.42" y="193.5" ></text>
</g>
<g >
<title>pyop2.global_kernel.GlobalKernel.compile (34,062 us, 0.30%)</title><rect x="1186.5" y="183" width="3.5" height="15.0" fill="rgb(0,0,0)" rx="2" ry="2" />
<text  x="1189.48" y="193.5" ></text>
</g>
<g >
<title>KSPSetUp (4,037,871 us, 35.38%)</title><rect x="741.3" y="199" width="417.5" height="15.0" fill="rgb(0,0,0)" rx="2" ry="2" />
<text  x="744.34" y="209.5" >KSPSetUp</text>
</g>
<g >
<title>Log_Event_tensorshell_knl_147 (18,514 us, 0.16%)</title><rect x="600.9" y="295" width="1.9" height="15.0" fill="rgb(0,0,0)" rx="2" ry="2" />
<text  x="603.92" y="305.5" ></text>
</g>
<g >
<title>Log_Event_subkernel116_cell_to__cell_integral_otherwise (9,845 us, 0.09%)</title><rect x="482.3" y="263" width="1.0" height="15.0" fill="rgb(0,0,0)" rx="2" ry="2" />
<text  x="485.28" y="273.5" ></text>
</g>
<g >
<title>PCSetUp (2,778,838 us, 24.35%)</title><rect x="871.5" y="215" width="287.3" height="15.0" fill="rgb(0,0,0)" rx="2" ry="2" />
<text  x="874.50" y="225.5" >PCSetUp</text>
</g>
<g >
<title>Log_Event_subkernel98_cell_to__cell_integral_otherwise (11,350 us, 0.10%)</title><rect x="721.9" y="279" width="1.2" height="15.0" fill="rgb(0,0,0)" rx="2" ry="2" />
<text  x="724.88" y="289.5" ></text>
</g>
<g >
<title>firedrake.interpolation.make_interpolator (37,743 us, 0.33%)</title><rect x="1182.1" y="135" width="3.9" height="15.0" fill="rgb(0,0,0)" rx="2" ry="2" />
<text  x="1185.05" y="145.5" ></text>
</g>
<g >
<title>Parloop_Cells_wrap_par_loop_kernel (34,062 us, 0.30%)</title><rect x="1186.5" y="167" width="3.5" height="15.0" fill="rgb(0,0,0)" rx="2" ry="2" />
<text  x="1189.48" y="177.5" ></text>
</g>
<g >
<title>Log_Event_subkernel108_cell_to__cell_integral_otherwise (9,507 us, 0.08%)</title><rect x="711.7" y="295" width="0.9" height="15.0" fill="rgb(0,0,0)" rx="2" ry="2" />
<text  x="714.66" y="305.5" ></text>
</g>
<g >
<title>PCSetUp (125,474 us, 1.10%)</title><rect x="1177.0" y="103" width="13.0" height="15.0" fill="rgb(0,0,0)" rx="2" ry="2" />
<text  x="1180.03" y="113.5" ></text>
</g>
<g >
<title>pyop2.global_kernel.GlobalKernel.compile (35,123 us, 0.31%)</title><rect x="297.9" y="183" width="3.6" height="15.0" fill="rgb(0,0,0)" rx="2" ry="2" />
<text  x="300.92" y="193.5" ></text>
</g>
<g >
<title>ParLoopExecute (70,195 us, 0.61%)</title><rect x="297.9" y="151" width="7.3" height="15.0" fill="rgb(0,0,0)" rx="2" ry="2" />
<text  x="300.92" y="161.5" ></text>
</g>
<g >
<title>Parloop_Cells_wrap_slate_loopy_knl_87 (2,702,538 us, 23.68%)</title><rect x="461.9" y="215" width="279.4" height="15.0" fill="rgb(0,0,0)" rx="2" ry="2" />
<text  x="464.94" y="225.5" >Parloop_Cells_wrap_slate_loopy_knl..</text>
</g>
<g >
<title>firedrake.variational_solver.NonlinearVariationalSolver.solve (8,633,282 us, 75.64%)</title><rect x="297.5" y="71" width="892.5" height="15.0" fill="rgb(0,0,0)" rx="2" ry="2" />
<text  x="300.47" y="81.5" >firedrake.variational_solver.NonlinearVariationalSolver.solve</text>
</g>
<g >
<title>firedrake.functionspaceimpl.FunctionSpace.__init__ (8,894 us, 0.08%)</title><rect x="1180.7" y="151" width="0.9" height="15.0" fill="rgb(0,0,0)" rx="2" ry="2" />
<text  x="1183.70" y="161.5" ></text>
</g>
<g >
<title>firedrake.extrusion_utils.make_extruded_coords (68,561 us, 0.60%)</title><rect x="126.2" y="87" width="7.1" height="15.0" fill="rgb(0,0,0)" rx="2" ry="2" />
<text  x="129.25" y="97.5" ></text>
</g>
<g >
<title>firedrake.ufl_expr.action (5,225 us, 0.05%)</title><rect x="295.3" y="87" width="0.5" height="15.0" fill="rgb(0,0,0)" rx="2" ry="2" />
<text  x="298.27" y="97.5" ></text>
</g>
<g >
<title>Log_Event_subkernel137_cell_to__cell_integral_otherwise (18,495 us, 0.16%)</title><rect x="495.8" y="295" width="1.9" height="15.0" fill="rgb(0,0,0)" rx="2" ry="2" />
<text  x="498.75" y="305.5" ></text>
</g>
<g >
<title>ParLoopExecute (37,111 us, 0.33%)</title><rect x="309.2" y="183" width="3.9" height="15.0" fill="rgb(0,0,0)" rx="2" ry="2" />
<text  x="312.23" y="193.5" ></text>
</g>
<g >
<title>PCApply (8,399,788 us, 73.59%)</title><rect x="308.6" y="119" width="868.4" height="15.0" fill="rgb(0,0,0)" rx="2" ry="2" />
<text  x="311.64" y="129.5" >PCApply</text>
</g>
<g >
<title>Log_Event_tensorshell_knl_102 (63,997 us, 0.56%)</title><rect x="709.9" y="263" width="6.6" height="15.0" fill="rgb(0,0,0)" rx="2" ry="2" />
<text  x="712.87" y="273.5" ></text>
</g>
<g >
<title>Log_Event_tensorshell_knl_2 (3,978 us, 0.03%)</title><rect x="454.4" y="231" width="0.5" height="15.0" fill="rgb(0,0,0)" rx="2" ry="2" />
<text  x="457.44" y="241.5" ></text>
</g>
<g >
<title>Log_Event_subkernel110_cell_to__cell_integral_otherwise (11,406 us, 0.10%)</title><rect x="715.3" y="279" width="1.2" height="15.0" fill="rgb(0,0,0)" rx="2" ry="2" />
<text  x="718.31" y="289.5" ></text>
</g>
<g >
<title>Log_Event_subkernel149_cell_to__cell_integral_otherwise (470,793 us, 4.12%)</title><rect x="552.3" y="295" width="48.6" height="15.0" fill="rgb(0,0,0)" rx="2" ry="2" />
<text  x="555.25" y="305.5" >Log_..</text>
</g>
<g >
<title>firedrake.variational_solver.NonlinearVariationalProblem.__init__ (11,813 us, 0.10%)</title><rect x="295.8" y="87" width="1.2" height="15.0" fill="rgb(0,0,0)" rx="2" ry="2" />
<text  x="298.81" y="97.5" ></text>
</g>
<g >
<title>Log_Event_subkernel162_interior_facet_vert_to__exterior_facet_vert_integral_otherwise (23,744 us, 0.21%)</title><rect x="736.4" y="247" width="2.5" height="15.0" fill="rgb(0,0,0)" rx="2" ry="2" />
<text  x="739.41" y="257.5" ></text>
</g>
<g >
<title>KSPSolve (8,507,808 us, 74.54%)</title><rect x="297.5" y="103" width="879.5" height="15.0" fill="rgb(0,0,0)" rx="2" ry="2" />
<text  x="300.47" y="113.5" >KSPSolve</text>
</g>
<g >
<title>ParLoopExecute (37,701 us, 0.33%)</title><rect x="129.4" y="103" width="3.9" height="15.0" fill="rgb(0,0,0)" rx="2" ry="2" />
<text  x="132.44" y="113.5" ></text>
</g>
<g >
<title>Log_Event_subkernel157_cell_to__cell_integral_otherwise (9,806 us, 0.09%)</title><rect x="703.3" y="263" width="1.0" height="15.0" fill="rgb(0,0,0)" rx="2" ry="2" />
<text  x="706.29" y="273.5" ></text>
</g>
<g >
<title>CreateFunctionSpace (4,152 us, 0.04%)</title><rect x="1181.6" y="183" width="0.5" height="15.0" fill="rgb(0,0,0)" rx="2" ry="2" />
<text  x="1184.62" y="193.5" ></text>
</g>
<g >
<title>Log_Event_mtf_solve_156 (40,753 us, 0.36%)</title><rect x="702.8" y="247" width="4.2" height="15.0" fill="rgb(0,0,0)" rx="2" ry="2" />
<text  x="705.80" y="257.5" ></text>
</g>
<g >
<title>Log_Event_subkernel151_cell_to__cell_integral_otherwise (274,570 us, 2.41%)</title><rect x="674.4" y="279" width="28.4" height="15.0" fill="rgb(0,0,0)" rx="2" ry="2" />
<text  x="677.41" y="289.5" >L..</text>
</g>
<g >
<title>Log_Event_mtf_solve_92 (26,305 us, 0.23%)</title><rect x="716.5" y="279" width="2.7" height="15.0" fill="rgb(0,0,0)" rx="2" ry="2" />
<text  x="719.49" y="289.5" ></text>
</g>
<g >
<title>firedrake.parloops.par_loop (39,141 us, 0.34%)</title><rect x="1186.0" y="135" width="4.0" height="15.0" fill="rgb(0,0,0)" rx="2" ry="2" />
<text  x="1188.95" y="145.5" ></text>
</g>
<g >
<title>Log_Event_subkernel142_interior_facet_vert_to__exterior_facet_vert_integral_otherwise (7,452 us, 0.07%)</title><rect x="492.8" y="263" width="0.7" height="15.0" fill="rgb(0,0,0)" rx="2" ry="2" />
<text  x="495.76" y="273.5" ></text>
</g>
<g >
<title>Log_Event_tensorshell_knl_131 (77,192 us, 0.68%)</title><rect x="493.5" y="263" width="8.0" height="15.0" fill="rgb(0,0,0)" rx="2" ry="2" />
<text  x="496.53" y="273.5" ></text>
</g>
<g >
<title>Log_Event_subkernel17_cell_to__cell_integral_otherwise (12,369 us, 0.11%)</title><rect x="444.4" y="263" width="1.2" height="15.0" fill="rgb(0,0,0)" rx="2" ry="2" />
<text  x="447.36" y="273.5" ></text>
</g>
<g >
<title>Log_Event_subkernel119_cell_to__cell_integral_otherwise (9,801 us, 0.09%)</title><rect x="484.0" y="263" width="1.0" height="15.0" fill="rgb(0,0,0)" rx="2" ry="2" />
<text  x="487.01" y="273.5" ></text>
</g>
<g >
<title>firedrake.functionspacedata.FunctionSpaceData.__init__ (23,726 us, 0.21%)</title><rect x="134.0" y="119" width="2.4" height="15.0" fill="rgb(0,0,0)" rx="2" ry="2" />
<text  x="137.00" y="129.5" ></text>
</g>
<g >
<title>pyop2.global_kernel.GlobalKernel.compile (37,478 us, 0.33%)</title><rect x="1166.2" y="199" width="3.9" height="15.0" fill="rgb(0,0,0)" rx="2" ry="2" />
<text  x="1169.23" y="209.5" ></text>
</g>
<g >
<title>Log_Event_mtf_solve_133 (40,000 us, 0.35%)</title><rect x="493.5" y="279" width="4.2" height="15.0" fill="rgb(0,0,0)" rx="2" ry="2" />
<text  x="496.53" y="289.5" ></text>
</g>
<g >
<title>MatMult (108,020 us, 0.95%)</title><rect x="297.5" y="119" width="11.1" height="15.0" fill="rgb(0,0,0)" rx="2" ry="2" />
<text  x="300.47" y="129.5" ></text>
</g>
<g >
<title>Log_Event_subkernel118_cell_to__cell_integral_otherwise (6,868 us, 0.06%)</title><rect x="483.3" y="263" width="0.7" height="15.0" fill="rgb(0,0,0)" rx="2" ry="2" />
<text  x="486.30" y="273.5" ></text>
</g>
<g >
<title>Parloop_Cells_wrap_par_loop_kernel (37,111 us, 0.33%)</title><rect x="309.2" y="199" width="3.9" height="15.0" fill="rgb(0,0,0)" rx="2" ry="2" />
<text  x="312.23" y="209.5" ></text>
</g>
<g >
<title>all (11,413,916 us, 100%)</title><rect x="10.0" y="39" width="1180.0" height="15.0" fill="rgb(0,0,0)" rx="2" ry="2" />
<text  x="13.00" y="49.5" ></text>
</g>
<g >
<title>firedrake.functionspacedata.FunctionSpaceData.__init__ (8,894 us, 0.08%)</title><rect x="1180.7" y="183" width="0.9" height="15.0" fill="rgb(0,0,0)" rx="2" ry="2" />
<text  x="1183.70" y="193.5" ></text>
</g>
<g >
<title>MatMult (1,259,033 us, 11.03%)</title><rect x="741.3" y="231" width="130.2" height="15.0" fill="rgb(0,0,0)" rx="2" ry="2" />
<text  x="744.34" y="241.5" >MatMult</text>
</g>
<g >
<title>firedrake.formmanipulation.ExtractSubBlock.split (4,152 us, 0.04%)</title><rect x="1181.6" y="151" width="0.5" height="15.0" fill="rgb(0,0,0)" rx="2" ry="2" />
<text  x="1184.62" y="161.5" ></text>
</g>
<g >
<title>firedrake.functionspaceimpl.FunctionSpace.__init__ (6,370 us, 0.06%)</title><rect x="133.3" y="119" width="0.7" height="15.0" fill="rgb(0,0,0)" rx="2" ry="2" />
<text  x="136.34" y="129.5" ></text>
</g>
<g >
<title>MatZeroInitial (15,887 us, 0.14%)</title><rect x="1157.1" y="247" width="1.7" height="15.0" fill="rgb(0,0,0)" rx="2" ry="2" />
<text  x="1160.14" y="257.5" ></text>
</g>
<g >
<title>Log_Event_mtf_solve_130 (2,065,174 us, 18.09%)</title><rect x="489.3" y="247" width="213.5" height="15.0" fill="rgb(0,0,0)" rx="2" ry="2" />
<text  x="492.29" y="257.5" >Log_Event_mtf_solve_130</text>
</g>
<g >
<title>Log_Event_subkernel78_interior_facet_vert_to__exterior_facet_vert_integral_otherwise (21,453 us, 0.19%)</title><rect x="1140.1" y="263" width="2.2" height="15.0" fill="rgb(0,0,0)" rx="2" ry="2" />
<text  x="1143.13" y="273.5" ></text>
</g>
<g >
<title>Log_Event_subkernel132_cell_to__cell_integral_otherwise (25,887 us, 0.23%)</title><rect x="497.7" y="279" width="2.6" height="15.0" fill="rgb(0,0,0)" rx="2" ry="2" />
<text  x="500.66" y="289.5" ></text>
</g>
<g >
<title>HybridBreak (42,851 us, 0.38%)</title><rect x="308.6" y="151" width="4.5" height="15.0" fill="rgb(0,0,0)" rx="2" ry="2" />
<text  x="311.64" y="161.5" ></text>
</g>
<g >
<title>firedrake.ufl_expr.adjoint (11,813 us, 0.10%)</title><rect x="295.8" y="103" width="1.2" height="15.0" fill="rgb(0,0,0)" rx="2" ry="2" />
<text  x="298.81" y="113.5" ></text>
</g>
<g >
<title>firedrake.matrix_free.operators.ImplicitMatrixContext.mult (2,723,659 us, 23.86%)</title><rect x="459.8" y="183" width="281.5" height="15.0" fill="rgb(0,0,0)" rx="2" ry="2" />
<text  x="462.76" y="193.5" >firedrake.matrix_free.operators.Im..</text>
</g>
<g >
<title>Log_Event_subkernel114_cell_to__cell_integral_otherwise (25,832 us, 0.23%)</title><rect x="723.1" y="247" width="2.6" height="15.0" fill="rgb(0,0,0)" rx="2" ry="2" />
<text  x="726.06" y="257.5" ></text>
</g>
<g >
<title>pyop2.global_kernel.GlobalKernel.compile (39,240 us, 0.34%)</title><rect x="455.7" y="199" width="4.1" height="15.0" fill="rgb(0,0,0)" rx="2" ry="2" />
<text  x="458.70" y="209.5" ></text>
</g>
<g >
<title>ParLoopExecute (74,274 us, 0.65%)</title><rect x="1162.4" y="167" width="7.7" height="15.0" fill="rgb(0,0,0)" rx="2" ry="2" />
<text  x="1165.42" y="177.5" ></text>
</g>
<g >
<title>Log_Event_subkernel155_cell_to__cell_integral_otherwise (25,909 us, 0.23%)</title><rect x="733.7" y="247" width="2.7" height="15.0" fill="rgb(0,0,0)" rx="2" ry="2" />
<text  x="736.73" y="257.5" ></text>
</g>
<g >
<title>PCSetUp (25,022 us, 0.22%)</title><rect x="1158.8" y="199" width="2.6" height="15.0" fill="rgb(0,0,0)" rx="2" ry="2" />
<text  x="1161.78" y="209.5" ></text>
</g>
<g >
<title>pyop2.global_kernel.GlobalKernel.compile (37,111 us, 0.33%)</title><rect x="309.2" y="215" width="3.9" height="15.0" fill="rgb(0,0,0)" rx="2" ry="2" />
<text  x="312.23" y="225.5" ></text>
</g>
<g >
<title>FunctionSpaceData: CreateElement (8,894 us, 0.08%)</title><rect x="1180.7" y="199" width="0.9" height="15.0" fill="rgb(0,0,0)" rx="2" ry="2" />
<text  x="1183.70" y="209.5" ></text>
</g>
<g >
<title>firedrake.matrix_free.operators.ImplicitMatrixContext.mult (1,259,033 us, 11.03%)</title><rect x="741.3" y="247" width="130.2" height="15.0" fill="rgb(0,0,0)" rx="2" ry="2" />
<text  x="744.34" y="257.5" >firedrake.matr..</text>
</g>
<g >
<title>firedrake.parloops.par_loop (42,851 us, 0.38%)</title><rect x="308.6" y="167" width="4.5" height="15.0" fill="rgb(0,0,0)" rx="2" ry="2" />
<text  x="311.64" y="177.5" ></text>
</g>
<g >
<title>Log_Event_subkernel139_cell_to__cell_integral_otherwise (11,305 us, 0.10%)</title><rect x="500.3" y="279" width="1.2" height="15.0" fill="rgb(0,0,0)" rx="2" ry="2" />
<text  x="503.34" y="289.5" ></text>
</g>
<g >
<title>firedrake.interpolation.make_interpolator (47,934 us, 0.42%)</title><rect x="1170.1" y="167" width="5.0" height="15.0" fill="rgb(0,0,0)" rx="2" ry="2" />
<text  x="1173.10" y="177.5" ></text>
</g>
<g >
<title>Log_Event_mtf_solve_16 (50,175 us, 0.44%)</title><rect x="443.8" y="247" width="5.2" height="15.0" fill="rgb(0,0,0)" rx="2" ry="2" />
<text  x="446.79" y="257.5" ></text>
</g>
<g >
<title>Log_Event_tensorshell_knl_143 (1,947,021 us, 17.06%)</title><rect x="501.5" y="263" width="201.3" height="15.0" fill="rgb(0,0,0)" rx="2" ry="2" />
<text  x="504.51" y="273.5" >Log_Event_tensorshell_kn..</text>
</g>
<g >
<title>firedrake.formmanipulation.ExtractSubBlock.argument (4,152 us, 0.04%)</title><rect x="1181.6" y="167" width="0.5" height="15.0" fill="rgb(0,0,0)" rx="2" ry="2" />
<text  x="1184.62" y="177.5" ></text>
</g>
<g >
<title>Log_Event_subkernel79_cell_to__cell_integral_otherwise (20,746 us, 0.18%)</title><rect x="1142.3" y="263" width="2.2" height="15.0" fill="rgb(0,0,0)" rx="2" ry="2" />
<text  x="1145.35" y="273.5" ></text>
</g>
<g >
<title>Log_Event_subkernel107_cell_to__cell_integral_otherwise (7,483 us, 0.07%)</title><rect x="710.9" y="295" width="0.8" height="15.0" fill="rgb(0,0,0)" rx="2" ry="2" />
<text  x="713.88" y="305.5" ></text>
</g>
<g >
<title>Log_Event_slate_loopy_knl_0 (133,081 us, 1.17%)</title><rect x="441.9" y="199" width="13.8" height="15.0" fill="rgb(0,0,0)" rx="2" ry="2" />
<text  x="444.94" y="209.5" ></text>
</g>
<g >
<title>firedrake.functionspaceimpl.FunctionSpace.__init__ (4,152 us, 0.04%)</title><rect x="1181.6" y="199" width="0.5" height="15.0" fill="rgb(0,0,0)" rx="2" ry="2" />
<text  x="1184.62" y="209.5" ></text>
</g>
<g >
<title>Log_Event_subkernel144_cell_to__cell_integral_otherwise (655,055 us, 5.74%)</title><rect x="606.7" y="279" width="67.7" height="15.0" fill="rgb(0,0,0)" rx="2" ry="2" />
<text  x="609.69" y="289.5" >Log_Ev..</text>
</g>
<g >
<title>Parloop_Cells_wrap_pyop2_kernel_uniform_extrusion (37,701 us, 0.33%)</title><rect x="129.4" y="119" width="3.9" height="15.0" fill="rgb(0,0,0)" rx="2" ry="2" />
<text  x="132.44" y="129.5" ></text>
</g>
<g >
<title>Log_Event_subkernel160_cell_to__cell_integral_otherwise (19,322 us, 0.17%)</title><rect x="705.0" y="263" width="2.0" height="15.0" fill="rgb(0,0,0)" rx="2" ry="2" />
<text  x="708.01" y="273.5" ></text>
</g>
<g >
<title>pyop2.global_kernel.GlobalKernel.compile (35,072 us, 0.31%)</title><rect x="301.5" y="183" width="3.7" height="15.0" fill="rgb(0,0,0)" rx="2" ry="2" />
<text  x="304.55" y="193.5" ></text>
</g>
<g >
<title>firedrake.tsfc_interface.compile_form (19,073 us, 0.17%)</title><rect x="1175.1" y="167" width="1.9" height="15.0" fill="rgb(0,0,0)" rx="2" ry="2" />
<text  x="1178.06" y="177.5" ></text>
</g>
<g >
<title>CreateFunctionSpace (23,726 us, 0.21%)</title><rect x="134.0" y="71" width="2.4" height="15.0" fill="rgb(0,0,0)" rx="2" ry="2" />
<text  x="137.00" y="81.5" ></text>
</g>
<g >
<title>KSPSolve (6,786,552 us, 59.46%)</title><rect x="459.8" y="151" width="701.6" height="15.0" fill="rgb(0,0,0)" rx="2" ry="2" />
<text  x="462.76" y="161.5" >KSPSolve</text>
</g>
<g >
<title>Log_Event_subkernel122_interior_facet_vert_to__exterior_facet_vert_integral_otherwise (42,194 us, 0.37%)</title><rect x="728.2" y="247" width="4.4" height="15.0" fill="rgb(0,0,0)" rx="2" ry="2" />
<text  x="731.19" y="257.5" ></text>
</g>
<g >
<title>inv_getri (142,729 us, 1.25%)</title><rect x="1125.4" y="279" width="14.7" height="15.0" fill="rgb(0,0,0)" rx="2" ry="2" />
<text  x="1128.38" y="289.5" ></text>
</g>
<g >
<title>Log_Event_tensorshell_knl_90 (63,535 us, 0.56%)</title><rect x="716.5" y="263" width="6.6" height="15.0" fill="rgb(0,0,0)" rx="2" ry="2" />
<text  x="719.49" y="273.5" ></text>
</g>
<g >
<title>Log_Event_subkernel127_cell_to__cell_integral_otherwise (19,341 us, 0.17%)</title><rect x="487.3" y="263" width="2.0" height="15.0" fill="rgb(0,0,0)" rx="2" ry="2" />
<text  x="490.29" y="273.5" ></text>
</g>
<g >
<title>pyop2.global_kernel.GlobalKernel.compile (38,551 us, 0.34%)</title><rect x="1148.7" y="263" width="4.0" height="15.0" fill="rgb(0,0,0)" rx="2" ry="2" />
<text  x="1151.74" y="273.5" ></text>
</g>
<g >
<title>ParLoopExecute (2,702,538 us, 23.68%)</title><rect x="461.9" y="199" width="279.4" height="15.0" fill="rgb(0,0,0)" rx="2" ry="2" />
<text  x="464.94" y="209.5" >ParLoopExecute</text>
</g>
<g >
<title>Log_Event_subkernel126_cell_to__cell_integral_otherwise (6,971 us, 0.06%)</title><rect x="486.6" y="263" width="0.7" height="15.0" fill="rgb(0,0,0)" rx="2" ry="2" />
<text  x="489.57" y="273.5" ></text>
</g>
<g >
<title>Log_Event_subkernel163_interior_facet_vert_to__exterior_facet_vert_integral_otherwise (23,919 us, 0.21%)</title><rect x="738.9" y="247" width="2.4" height="15.0" fill="rgb(0,0,0)" rx="2" ry="2" />
<text  x="741.86" y="257.5" ></text>
</g>
<g >
<title>Log_Event_tensorshell_knl_14 (103,051 us, 0.90%)</title><rect x="443.8" y="231" width="10.6" height="15.0" fill="rgb(0,0,0)" rx="2" ry="2" />
<text  x="446.79" y="241.5" ></text>
</g>
<g >
<title>firedrake.functionspacedata.get_shared_data (23,726 us, 0.21%)</title><rect x="134.0" y="103" width="2.4" height="15.0" fill="rgb(0,0,0)" rx="2" ry="2" />
<text  x="137.00" y="113.5" ></text>
</g>
<g >
<title>firedrake.matrix_free.operators.ImplicitMatrixContext.mult (108,020 us, 0.95%)</title><rect x="297.5" y="135" width="11.1" height="15.0" fill="rgb(0,0,0)" rx="2" ry="2" />
<text  x="300.47" y="145.5" ></text>
</g>
<g >
<title>Log_Event_mtf_solve_1 (107,029 us, 0.94%)</title><rect x="443.8" y="215" width="11.1" height="15.0" fill="rgb(0,0,0)" rx="2" ry="2" />
<text  x="446.79" y="225.5" ></text>
</g>
<g >
<title>Log_Event_subkernel124_cell_to__cell_integral_otherwise (9,901 us, 0.09%)</title><rect x="485.5" y="263" width="1.1" height="15.0" fill="rgb(0,0,0)" rx="2" ry="2" />
<text  x="488.55" y="273.5" ></text>
</g>
<g >
<title>Log_Event_mtf_solve_145 (1,002,104 us, 8.78%)</title><rect x="503.1" y="279" width="103.6" height="15.0" fill="rgb(0,0,0)" rx="2" ry="2" />
<text  x="506.09" y="289.5" >Log_Event_m..</text>
</g>
<g >
<title>firedrake.functionspacedata.get_shared_data (8,894 us, 0.08%)</title><rect x="1180.7" y="167" width="0.9" height="15.0" fill="rgb(0,0,0)" rx="2" ry="2" />
<text  x="1183.70" y="177.5" ></text>
</g>
<g >
<title>ParLoopExecute (2,219,961 us, 19.45%)</title><rect x="923.2" y="231" width="229.5" height="15.0" fill="rgb(0,0,0)" rx="2" ry="2" />
<text  x="926.22" y="241.5" >ParLoopExecute</text>
</g>
<g >
<title>Log_Event_subkernel82_cell_to__cell_integral_otherwise (4,345 us, 0.04%)</title><rect x="1145.7" y="263" width="0.5" height="15.0" fill="rgb(0,0,0)" rx="2" ry="2" />
<text  x="1148.74" y="273.5" ></text>
</g>
<g >
<title>Log_Event_tensorshell_knl_150 (37,267 us, 0.33%)</title><rect x="602.8" y="295" width="3.9" height="15.0" fill="rgb(0,0,0)" rx="2" ry="2" />
<text  x="605.84" y="305.5" ></text>
</g>
<g >
<title>PCApply (4,062,893 us, 35.60%)</title><rect x="741.3" y="167" width="420.1" height="15.0" fill="rgb(0,0,0)" rx="2" ry="2" />
<text  x="744.34" y="177.5" >PCApply</text>
</g>
<g >
<title>Log_Event_subkernel20_cell_to__cell_integral_otherwise (23,634 us, 0.21%)</title><rect x="446.5" y="263" width="2.5" height="15.0" fill="rgb(0,0,0)" rx="2" ry="2" />
<text  x="449.53" y="273.5" ></text>
</g>
<g >
<title>firedrake.ufl_expr.action (4,195 us, 0.04%)</title><rect x="297.0" y="119" width="0.5" height="15.0" fill="rgb(0,0,0)" rx="2" ry="2" />
<text  x="300.04" y="129.5" ></text>
</g>
<g >
<title>firedrake.tsfc_interface.compile_form (18,156 us, 0.16%)</title><rect x="1159.5" y="215" width="1.9" height="15.0" fill="rgb(0,0,0)" rx="2" ry="2" />
<text  x="1162.49" y="225.5" ></text>
</g>
<g >
<title>CreateExtMesh (74,931 us, 0.66%)</title><rect x="126.2" y="71" width="7.8" height="15.0" fill="rgb(0,0,0)" rx="2" ry="2" />
<text  x="129.25" y="81.5" ></text>
</g>
<g >
<title>SCForwardElim (1,461,753 us, 12.81%)</title><rect x="308.6" y="135" width="151.2" height="15.0" fill="rgb(0,0,0)" rx="2" ry="2" />
<text  x="311.64" y="145.5" >SCForwardElim</text>
</g>
<g >
<title>Log_Event_subkernel142_cell_to__cell_integral_otherwise (10,785 us, 0.09%)</title><rect x="491.6" y="263" width="1.2" height="15.0" fill="rgb(0,0,0)" rx="2" ry="2" />
<text  x="494.64" y="273.5" ></text>
</g>
<g >
<title>Parloop_Cells_wrap_form00_cell_integral_otherwise (37,478 us, 0.33%)</title><rect x="1166.2" y="183" width="3.9" height="15.0" fill="rgb(0,0,0)" rx="2" ry="2" />
<text  x="1169.23" y="193.5" ></text>
</g>
<g >
<title>CreateSparsity (42,682 us, 0.37%)</title><rect x="1152.7" y="247" width="4.4" height="15.0" fill="rgb(0,0,0)" rx="2" ry="2" />
<text  x="1155.73" y="257.5" ></text>
</g>
<g >
<title>ParLoopExecute (34,062 us, 0.30%)</title><rect x="1186.5" y="151" width="3.5" height="15.0" fill="rgb(0,0,0)" rx="2" ry="2" />
<text  x="1189.48" y="161.5" ></text>
</g>
<g >
<title>Log_Event_mtf_solve_104 (26,765 us, 0.23%)</title><rect x="709.9" y="279" width="2.7" height="15.0" fill="rgb(0,0,0)" rx="2" ry="2" />
<text  x="712.87" y="289.5" ></text>
</g>
<g >
<title>Log_Event_subkernel15_cell_to__cell_integral_otherwise (33,337 us, 0.29%)</title><rect x="449.0" y="247" width="3.4" height="15.0" fill="rgb(0,0,0)" rx="2" ry="2" />
<text  x="451.97" y="257.5" ></text>
</g>
<g >
<title>Log_Event_subkernel101_cell_to__cell_integral_otherwise (10,734 us, 0.09%)</title><rect x="708.0" y="263" width="1.1" height="15.0" fill="rgb(0,0,0)" rx="2" ry="2" />
<text  x="711.00" y="273.5" ></text>
</g>
<g >
<title>Parloop_Cells_wrap_wrap_slate_loopy_knl_77 (2,219,961 us, 19.45%)</title><rect x="923.2" y="247" width="229.5" height="15.0" fill="rgb(0,0,0)" rx="2" ry="2" />
<text  x="926.22" y="257.5" >Parloop_Cells_wrap_wrap_sla..</text>
</g>
<g >
<title>CreateFunctionSpace (6,370 us, 0.06%)</title><rect x="133.3" y="103" width="0.7" height="15.0" fill="rgb(0,0,0)" rx="2" ry="2" />
<text  x="136.34" y="113.5" ></text>
</g>
<g >
<title>Log_Event_mtf_solve_123 (41,308 us, 0.36%)</title><rect x="485.0" y="247" width="4.3" height="15.0" fill="rgb(0,0,0)" rx="2" ry="2" />
<text  x="488.02" y="257.5" ></text>
</g>
<g >
<title>Log_Event_subkernel93_cell_to__cell_integral_otherwise (9,787 us, 0.09%)</title><rect x="716.5" y="295" width="1.0" height="15.0" fill="rgb(0,0,0)" rx="2" ry="2" />
<text  x="719.49" y="305.5" ></text>
</g>
<g >
<title>SCSolve (6,938,035 us, 60.79%)</title><rect x="459.8" y="135" width="717.2" height="15.0" fill="rgb(0,0,0)" rx="2" ry="2" />
<text  x="462.76" y="145.5" >SCSolve</text>
</g>
<g >
<title>firedrake (11,413,916 us, 100.00%)</title><rect x="10.0" y="55" width="1180.0" height="15.0" fill="rgb(0,0,0)" rx="2" ry="2" />
<text  x="13.00" y="65.5" >firedrake</text>
</g>
<g >
<title>Log_Event_subkernel91_cell_to__cell_integral_otherwise (25,880 us, 0.23%)</title><rect x="719.2" y="279" width="2.7" height="15.0" fill="rgb(0,0,0)" rx="2" ry="2" />
<text  x="722.21" y="289.5" ></text>
</g>
<g >
<title>pyop2.global_kernel.GlobalKernel.compile (37,701 us, 0.33%)</title><rect x="129.4" y="135" width="3.9" height="15.0" fill="rgb(0,0,0)" rx="2" ry="2" />
<text  x="132.44" y="145.5" ></text>
</g>
<g >
<title>Log_Event_subkernel129_cell_to__cell_integral_otherwise (11,360 us, 0.10%)</title><rect x="732.6" y="247" width="1.1" height="15.0" fill="rgb(0,0,0)" rx="2" ry="2" />
<text  x="735.55" y="257.5" ></text>
</g>
<g >
<title>firedrake.matrix_free.operators.ImplicitMatrixContext.__init__ (4,195 us, 0.04%)</title><rect x="297.0" y="103" width="0.5" height="15.0" fill="rgb(0,0,0)" rx="2" ry="2" />
<text  x="300.04" y="113.5" ></text>
</g>
<g >
<title>firedrake.formmanipulation.split_form (3,917 us, 0.03%)</title><rect x="308.2" y="167" width="0.4" height="15.0" fill="rgb(0,0,0)" rx="2" ry="2" />
<text  x="311.23" y="177.5" ></text>
</g>
<g >
<title>Log_Event_mtf_solve_89 (155,231 us, 1.36%)</title><rect x="707.0" y="247" width="16.1" height="15.0" fill="rgb(0,0,0)" rx="2" ry="2" />
<text  x="710.01" y="257.5" ></text>
</g>
<g >
<title>firedrake.functionspacedata.get_shared_data (6,370 us, 0.06%)</title><rect x="133.3" y="135" width="0.7" height="15.0" fill="rgb(0,0,0)" rx="2" ry="2" />
<text  x="136.34" y="145.5" ></text>
</g>
<g >
<title>firedrake.functionspace.VectorFunctionSpace (6,370 us, 0.06%)</title><rect x="133.3" y="87" width="0.7" height="15.0" fill="rgb(0,0,0)" rx="2" ry="2" />
<text  x="136.34" y="97.5" ></text>
</g>
<g >
<title>Log_Event_subkernel80_cell_to__cell_integral_otherwise (12,042 us, 0.11%)</title><rect x="1144.5" y="263" width="1.2" height="15.0" fill="rgb(0,0,0)" rx="2" ry="2" />
<text  x="1147.49" y="273.5" ></text>
</g>
<g >
<title>CreateFunctionSpace (12,684 us, 0.11%)</title><rect x="1180.3" y="135" width="1.3" height="15.0" fill="rgb(0,0,0)" rx="2" ry="2" />
<text  x="1183.31" y="145.5" ></text>
</g>
<g >
<title>FunctionSpaceData: CreateElement (11,206 us, 0.10%)</title><rect x="135.3" y="135" width="1.1" height="15.0" fill="rgb(0,0,0)" rx="2" ry="2" />
<text  x="138.29" y="145.5" ></text>
</g>
<g >
<title>KSPSolve (1,259,033 us, 11.03%)</title><rect x="741.3" y="215" width="130.2" height="15.0" fill="rgb(0,0,0)" rx="2" ry="2" />
<text  x="744.34" y="225.5" >KSPSolve</text>
</g>
<g >
<title>PCSetUp (4,062,893 us, 35.60%)</title><rect x="741.3" y="183" width="420.1" height="15.0" fill="rgb(0,0,0)" rx="2" ry="2" />
<text  x="744.34" y="193.5" >PCSetUp</text>
</g>
<g >
<title>firedrake.variational_solver.NonlinearVariationalSolver.__init__ (4,195 us, 0.04%)</title><rect x="297.0" y="71" width="0.5" height="15.0" fill="rgb(0,0,0)" rx="2" ry="2" />
<text  x="300.04" y="81.5" ></text>
</g>
<g >
<title>Log_Event_subkernel103_cell_to__cell_integral_otherwise (25,826 us, 0.23%)</title><rect x="712.6" y="279" width="2.7" height="15.0" fill="rgb(0,0,0)" rx="2" ry="2" />
<text  x="715.64" y="289.5" ></text>
</g>
<g >
<title>Log_Event_subkernel85_interior_facet_vert_to__exterior_facet_vert_integral_otherwise (18,987 us, 0.17%)</title><rect x="1146.8" y="263" width="1.9" height="15.0" fill="rgb(0,0,0)" rx="2" ry="2" />
<text  x="1149.78" y="273.5" ></text>
</g>
<g >
<title>pyop2.global_kernel.GlobalKernel.compile (36,796 us, 0.32%)</title><rect x="1162.4" y="199" width="3.8" height="15.0" fill="rgb(0,0,0)" rx="2" ry="2" />
<text  x="1165.42" y="209.5" ></text>
</g>
<g >
<title>Log_Event_mtf_solve_115 (26,514 us, 0.23%)</title><rect x="482.3" y="247" width="2.7" height="15.0" fill="rgb(0,0,0)" rx="2" ry="2" />
<text  x="485.28" y="257.5" ></text>
</g>
<g >
<title>firedrake.assemble.allocate_matrix (58,569 us, 0.51%)</title><rect x="1152.7" y="231" width="6.1" height="15.0" fill="rgb(0,0,0)" rx="2" ry="2" />
<text  x="1155.73" y="241.5" ></text>
</g>
<g >
<title>Parloop_Cells_wrap_form0_cell_integral_otherwise (35,123 us, 0.31%)</title><rect x="297.9" y="167" width="3.6" height="15.0" fill="rgb(0,0,0)" rx="2" ry="2" />
<text  x="300.92" y="177.5" ></text>
</g>
<g >
<title>firedrake.formmanipulation.split_form (4,152 us, 0.04%)</title><rect x="1181.6" y="135" width="0.5" height="15.0" fill="rgb(0,0,0)" rx="2" ry="2" />
<text  x="1184.62" y="145.5" ></text>
</g>
<g >
<title>PCSetUp (151,483 us, 1.33%)</title><rect x="1161.4" y="151" width="15.6" height="15.0" fill="rgb(0,0,0)" rx="2" ry="2" />
<text  x="1164.37" y="161.5" ></text>
</g>
<g >
<title>Log_Event_subkernel19_cell_to__cell_integral_otherwise (8,617 us, 0.08%)</title><rect x="445.6" y="263" width="0.9" height="15.0" fill="rgb(0,0,0)" rx="2" ry="2" />
<text  x="448.64" y="273.5" ></text>
</g>
<g >
<title>MatMult (2,723,659 us, 23.86%)</title><rect x="459.8" y="167" width="281.5" height="15.0" fill="rgb(0,0,0)" rx="2" ry="2" />
<text  x="462.76" y="177.5" >MatMult</text>
</g>
<g >
<title>firedrake.__init__ (1,536,283 us, 13.46%)</title><rect x="136.4" y="71" width="158.9" height="15.0" fill="rgb(0,0,0)" rx="2" ry="2" />
<text  x="139.45" y="81.5" >firedrake.__init__</text>
</g>
<g >
<title>Log_Event_slate_loopy_knl_87 (2,668,618 us, 23.38%)</title><rect x="465.4" y="231" width="275.9" height="15.0" fill="rgb(0,0,0)" rx="2" ry="2" />
<text  x="468.45" y="241.5" >Log_Event_slate_loopy_knl_87</text>
</g>
<g >
<title>firedrake.assemble.allocate_matrix (4,195 us, 0.04%)</title><rect x="297.0" y="87" width="0.5" height="15.0" fill="rgb(0,0,0)" rx="2" ry="2" />
<text  x="300.04" y="97.5" ></text>
</g>
<g >
<title>firedrake.functionspace.MixedFunctionSpace (3,790 us, 0.03%)</title><rect x="1180.3" y="151" width="0.4" height="15.0" fill="rgb(0,0,0)" rx="2" ry="2" />
<text  x="1183.31" y="161.5" ></text>
</g>
<g >
<title>firedrake.variational_solver.LinearVariationalProblem.__init__ (17,038 us, 0.15%)</title><rect x="295.3" y="71" width="1.7" height="15.0" fill="rgb(0,0,0)" rx="2" ry="2" />
<text  x="298.27" y="81.5" ></text>
</g>
<g >
<title>Log_Event_subkernel101_interior_facet_vert_to__exterior_facet_vert_integral_otherwise (7,350 us, 0.06%)</title><rect x="709.1" y="263" width="0.8" height="15.0" fill="rgb(0,0,0)" rx="2" ry="2" />
<text  x="712.11" y="273.5" ></text>
</g>
<g >
<title>Log_Event_subkernel84_cell_to__cell_integral_otherwise (5,701 us, 0.05%)</title><rect x="1146.2" y="263" width="0.6" height="15.0" fill="rgb(0,0,0)" rx="2" ry="2" />
<text  x="1149.19" y="273.5" ></text>
</g>
<g >
<title>Log_Event_subkernel95_cell_to__cell_integral_otherwise (7,098 us, 0.06%)</title><rect x="717.5" y="295" width="0.7" height="15.0" fill="rgb(0,0,0)" rx="2" ry="2" />
<text  x="720.50" y="305.5" ></text>
</g>
<g >
<title>HybridInit (125,474 us, 1.10%)</title><rect x="1177.0" y="119" width="13.0" height="15.0" fill="rgb(0,0,0)" rx="2" ry="2" />
<text  x="1180.03" y="129.5" ></text>
</g>
<g >
<title>Log_Event_subkernel146_cell_to__cell_integral_otherwise (247,061 us, 2.16%)</title><rect x="508.8" y="295" width="25.6" height="15.0" fill="rgb(0,0,0)" rx="2" ry="2" />
<text  x="511.83" y="305.5" >L..</text>
</g>
<g >
<title>Log_Event_subkernel148_cell_to__cell_integral_otherwise (172,951 us, 1.52%)</title><rect x="534.4" y="295" width="17.9" height="15.0" fill="rgb(0,0,0)" rx="2" ry="2" />
<text  x="537.37" y="305.5" ></text>
</g>
<g >
<title>Log_Event_subkernel105_cell_to__cell_integral_otherwise (9,775 us, 0.09%)</title><rect x="709.9" y="295" width="1.0" height="15.0" fill="rgb(0,0,0)" rx="2" ry="2" />
<text  x="712.87" y="305.5" ></text>
</g>
<g >
<title>Log_Event_subkernel121_interior_facet_vert_to__exterior_facet_vert_integral_otherwise (23,841 us, 0.21%)</title><rect x="725.7" y="247" width="2.5" height="15.0" fill="rgb(0,0,0)" rx="2" ry="2" />
<text  x="728.73" y="257.5" ></text>
</g>
<g >
<title>Log_Event_subkernel136_cell_to__cell_integral_otherwise (7,037 us, 0.06%)</title><rect x="495.0" y="295" width="0.8" height="15.0" fill="rgb(0,0,0)" rx="2" ry="2" />
<text  x="498.02" y="305.5" ></text>
</g>
<g >
<title>Log_Event_subkernel96_cell_to__cell_integral_otherwise (9,420 us, 0.08%)</title><rect x="718.2" y="295" width="1.0" height="15.0" fill="rgb(0,0,0)" rx="2" ry="2" />
<text  x="721.23" y="305.5" ></text>
</g>
<g >
<title>firedrake.tsfc_interface.compile_form (33,508 us, 0.29%)</title><rect x="305.2" y="151" width="3.4" height="15.0" fill="rgb(0,0,0)" rx="2" ry="2" />
<text  x="308.17" y="161.5" ></text>
</g>
<g >
<title>SNESSolve (8,633,282 us, 75.64%)</title><rect x="297.5" y="87" width="892.5" height="15.0" fill="rgb(0,0,0)" rx="2" ry="2" />
<text  x="300.47" y="97.5" >SNESSolve</text>
</g>
</g>
</svg>
