<?xml version="1.0" standalone="no"?>
<!DOCTYPE svg PUBLIC "-//W3C//DTD SVG 1.1//EN" "http://www.w3.org/Graphics/SVG/1.1/DTD/svg11.dtd">
<svg version="1.1" width="1200" height="267" onload="init(evt)" viewBox="0 0 1200 267" xmlns="http://www.w3.org/2000/svg" xmlns:xlink="http://www.w3.org/1999/xlink">
<!-- Flame graph stack visualization. See https://github.com/brendangregg/FlameGraph for latest version, and http://www.brendangregg.com/flamegraphs.html for examples. -->
<!-- NOTES:  -->
<defs>
	<linearGradient id="background" y1="0" y2="1" x1="0" x2="0" >
		<stop stop-color="#eeeeee" offset="5%" />
		<stop stop-color="#eeeeb0" offset="95%" />
	</linearGradient>
</defs>
<style type="text/css">
	text { font-family:Verdana; font-size:13px; fill:rgb(0,0,0); }
	#search, #ignorecase { opacity:0.1; cursor:pointer; }
	#search:hover, #search.show, #ignorecase:hover, #ignorecase.show { opacity:1; }
	#subtitle { text-anchor:middle; font-color:rgb(160,160,160); }
	#title { text-anchor:middle; font-size:18px}
	#unzoom { cursor:pointer; }
	#frames > *:hover { stroke:black; stroke-width:0.5; cursor:pointer; }
	.hide { display:none; }
	.parent { opacity:0.5; }
</style>
<script type="text/ecmascript">
<![CDATA[
	"use strict";
	var details, searchbtn, unzoombtn, matchedtxt, svg, searching, currentSearchTerm, ignorecase, ignorecaseBtn;
	function init(evt) {
		details = document.getElementById("details").firstChild;
		searchbtn = document.getElementById("search");
		ignorecaseBtn = document.getElementById("ignorecase");
		unzoombtn = document.getElementById("unzoom");
		matchedtxt = document.getElementById("matched");
		svg = document.getElementsByTagName("svg")[0];
		searching = 0;
		currentSearchTerm = null;

		// use GET parameters to restore a flamegraphs state.
		var params = get_params();
		if (params.x && params.y)
			zoom(find_group(document.querySelector('[x="' + params.x + '"][y="' + params.y + '"]')));
                if (params.s) search(params.s);
	}

	// event listeners
	window.addEventListener("click", function(e) {
		var target = find_group(e.target);
		if (target) {
			if (target.nodeName == "a") {
				if (e.ctrlKey === false) return;
				e.preventDefault();
			}
			if (target.classList.contains("parent")) unzoom();
			zoom(target);
			if (!document.querySelector('.parent')) {
				clearzoom();
				return;
			}

			// set parameters for zoom state
			var el = target.querySelector("rect");
			if (el && el.attributes && el.attributes.y && el.attributes._orig_x) {
				var params = get_params()
				params.x = el.attributes._orig_x.value;
				params.y = el.attributes.y.value;
				history.replaceState(null, null, parse_params(params));
			}
		}
		else if (e.target.id == "unzoom") clearzoom();
		else if (e.target.id == "search") search_prompt();
		else if (e.target.id == "ignorecase") toggle_ignorecase();
	}, false)

	// mouse-over for info
	// show
	window.addEventListener("mouseover", function(e) {
		var target = find_group(e.target);
		if (target) details.nodeValue = "Function: " + g_to_text(target);
	}, false)

	// clear
	window.addEventListener("mouseout", function(e) {
		var target = find_group(e.target);
		if (target) details.nodeValue = ' ';
	}, false)

	// ctrl-F for search
	// ctrl-I to toggle case-sensitive search
	window.addEventListener("keydown",function (e) {
		if (e.keyCode === 114 || (e.ctrlKey && e.keyCode === 70)) {
			e.preventDefault();
			search_prompt();
		}
		else if (e.ctrlKey && e.keyCode === 73) {
			e.preventDefault();
			toggle_ignorecase();
		}
	}, false)

	// functions
	function get_params() {
		var params = {};
		var paramsarr = window.location.search.substr(1).split('&');
		for (var i = 0; i < paramsarr.length; ++i) {
			var tmp = paramsarr[i].split("=");
			if (!tmp[0] || !tmp[1]) continue;
			params[tmp[0]]  = decodeURIComponent(tmp[1]);
		}
		return params;
	}
	function parse_params(params) {
		var uri = "?";
		for (var key in params) {
			uri += key + '=' + encodeURIComponent(params[key]) + '&';
		}
		if (uri.slice(-1) == "&")
			uri = uri.substring(0, uri.length - 1);
		if (uri == '?')
			uri = window.location.href.split('?')[0];
		return uri;
	}
	function find_child(node, selector) {
		var children = node.querySelectorAll(selector);
		if (children.length) return children[0];
	}
	function find_group(node) {
		var parent = node.parentElement;
		if (!parent) return;
		if (parent.id == "frames") return node;
		return find_group(parent);
	}
	function orig_save(e, attr, val) {
		if (e.attributes["_orig_" + attr] != undefined) return;
		if (e.attributes[attr] == undefined) return;
		if (val == undefined) val = e.attributes[attr].value;
		e.setAttribute("_orig_" + attr, val);
	}
	function orig_load(e, attr) {
		if (e.attributes["_orig_"+attr] == undefined) return;
		e.attributes[attr].value = e.attributes["_orig_" + attr].value;
		e.removeAttribute("_orig_"+attr);
	}
	function g_to_text(e) {
		var text = find_child(e, "title").firstChild.nodeValue;
		return (text)
	}
	function g_to_func(e) {
		var func = g_to_text(e);
		// if there's any manipulation we want to do to the function
		// name before it's searched, do it here before returning.
		return (func);
	}
	function update_text(e) {
		var r = find_child(e, "rect");
		var t = find_child(e, "text");
		var w = parseFloat(r.attributes.width.value) -3;
		var txt = find_child(e, "title").textContent.replace(/\([^(]*\)$/,"");
		t.attributes.x.value = parseFloat(r.attributes.x.value) + 3;

		// Smaller than this size won't fit anything
		if (w < 2 * 13 * 0.59) {
			t.textContent = "";
			return;
		}

		t.textContent = txt;
		// Fit in full text width
		if (/^ *$/.test(txt) || t.getSubStringLength(0, txt.length) < w)
			return;

		for (var x = txt.length - 2; x > 0; x--) {
			if (t.getSubStringLength(0, x + 2) <= w) {
				t.textContent = txt.substring(0, x) + "..";
				return;
			}
		}
		t.textContent = "";
	}

	// zoom
	function zoom_reset(e) {
		if (e.attributes != undefined) {
			orig_load(e, "x");
			orig_load(e, "width");
		}
		if (e.childNodes == undefined) return;
		for (var i = 0, c = e.childNodes; i < c.length; i++) {
			zoom_reset(c[i]);
		}
	}
	function zoom_child(e, x, ratio) {
		if (e.attributes != undefined) {
			if (e.attributes.x != undefined) {
				orig_save(e, "x");
				e.attributes.x.value = (parseFloat(e.attributes.x.value) - x - 10) * ratio + 10;
				if (e.tagName == "text")
					e.attributes.x.value = find_child(e.parentNode, "rect[x]").attributes.x.value + 3;
			}
			if (e.attributes.width != undefined) {
				orig_save(e, "width");
				e.attributes.width.value = parseFloat(e.attributes.width.value) * ratio;
			}
		}

		if (e.childNodes == undefined) return;
		for (var i = 0, c = e.childNodes; i < c.length; i++) {
			zoom_child(c[i], x - 10, ratio);
		}
	}
	function zoom_parent(e) {
		if (e.attributes) {
			if (e.attributes.x != undefined) {
				orig_save(e, "x");
				e.attributes.x.value = 10;
			}
			if (e.attributes.width != undefined) {
				orig_save(e, "width");
				e.attributes.width.value = parseInt(svg.width.baseVal.value) - (10 * 2);
			}
		}
		if (e.childNodes == undefined) return;
		for (var i = 0, c = e.childNodes; i < c.length; i++) {
			zoom_parent(c[i]);
		}
	}
	function zoom(node) {
		var attr = find_child(node, "rect").attributes;
		var width = parseFloat(attr.width.value);
		var xmin = parseFloat(attr.x.value);
		var xmax = parseFloat(xmin + width);
		var ymin = parseFloat(attr.y.value);
		var ratio = (svg.width.baseVal.value - 2 * 10) / width;

		// XXX: Workaround for JavaScript float issues (fix me)
		var fudge = 0.0001;

		unzoombtn.classList.remove("hide");

		var el = document.getElementById("frames").children;
		for (var i = 0; i < el.length; i++) {
			var e = el[i];
			var a = find_child(e, "rect").attributes;
			var ex = parseFloat(a.x.value);
			var ew = parseFloat(a.width.value);
			var upstack;
			// Is it an ancestor
			if (1 == 0) {
				upstack = parseFloat(a.y.value) > ymin;
			} else {
				upstack = parseFloat(a.y.value) < ymin;
			}
			if (upstack) {
				// Direct ancestor
				if (ex <= xmin && (ex+ew+fudge) >= xmax) {
					e.classList.add("parent");
					zoom_parent(e);
					update_text(e);
				}
				// not in current path
				else
					e.classList.add("hide");
			}
			// Children maybe
			else {
				// no common path
				if (ex < xmin || ex + fudge >= xmax) {
					e.classList.add("hide");
				}
				else {
					zoom_child(e, xmin, ratio);
					update_text(e);
				}
			}
		}
		search();
	}
	function unzoom() {
		unzoombtn.classList.add("hide");
		var el = document.getElementById("frames").children;
		for(var i = 0; i < el.length; i++) {
			el[i].classList.remove("parent");
			el[i].classList.remove("hide");
			zoom_reset(el[i]);
			update_text(el[i]);
		}
		search();
	}
	function clearzoom() {
		unzoom();

		// remove zoom state
		var params = get_params();
		if (params.x) delete params.x;
		if (params.y) delete params.y;
		history.replaceState(null, null, parse_params(params));
	}

	// search
	function toggle_ignorecase() {
		ignorecase = !ignorecase;
		if (ignorecase) {
			ignorecaseBtn.classList.add("show");
		} else {
			ignorecaseBtn.classList.remove("show");
		}
		reset_search();
		search();
	}
	function reset_search() {
		var el = document.querySelectorAll("#frames rect");
		for (var i = 0; i < el.length; i++) {
			orig_load(el[i], "fill")
		}
		var params = get_params();
		delete params.s;
		history.replaceState(null, null, parse_params(params));
	}
	function search_prompt() {
		if (!searching) {
			var term = prompt("Enter a search term (regexp " +
			    "allowed, eg: ^ext4_)"
			    + (ignorecase ? ", ignoring case" : "")
			    + "\nPress Ctrl-i to toggle case sensitivity", "");
			if (term != null) search(term);
		} else {
			reset_search();
			searching = 0;
			currentSearchTerm = null;
			searchbtn.classList.remove("show");
			searchbtn.firstChild.nodeValue = "Search"
			matchedtxt.classList.add("hide");
			matchedtxt.firstChild.nodeValue = ""
		}
	}
	function search(term) {
		if (term) currentSearchTerm = term;

		var re = new RegExp(currentSearchTerm, ignorecase ? 'i' : '');
		var el = document.getElementById("frames").children;
		var matches = new Object();
		var maxwidth = 0;
		for (var i = 0; i < el.length; i++) {
			var e = el[i];
			var func = g_to_func(e);
			var rect = find_child(e, "rect");
			if (func == null || rect == null)
				continue;

			// Save max width. Only works as we have a root frame
			var w = parseFloat(rect.attributes.width.value);
			if (w > maxwidth)
				maxwidth = w;

			if (func.match(re)) {
				// highlight
				var x = parseFloat(rect.attributes.x.value);
				orig_save(rect, "fill");
				rect.attributes.fill.value = "rgb(230,0,230)";

				// remember matches
				if (matches[x] == undefined) {
					matches[x] = w;
				} else {
					if (w > matches[x]) {
						// overwrite with parent
						matches[x] = w;
					}
				}
				searching = 1;
			}
		}
		if (!searching)
			return;
		var params = get_params();
		params.s = currentSearchTerm;
		history.replaceState(null, null, parse_params(params));

		searchbtn.classList.add("show");
		searchbtn.firstChild.nodeValue = "Reset Search";

		// calculate percent matched, excluding vertical overlap
		var count = 0;
		var lastx = -1;
		var lastw = 0;
		var keys = Array();
		for (k in matches) {
			if (matches.hasOwnProperty(k))
				keys.push(k);
		}
		// sort the matched frames by their x location
		// ascending, then width descending
		keys.sort(function(a, b){
			return a - b;
		});
		// Step through frames saving only the biggest bottom-up frames
		// thanks to the sort order. This relies on the tree property
		// where children are always smaller than their parents.
		var fudge = 0.0001;	// JavaScript floating point
		for (var k in keys) {
			var x = parseFloat(keys[k]);
			var w = matches[keys[k]];
			if (x >= lastx + lastw - fudge) {
				count += w;
				lastx = x;
				lastw = w;
			}
		}
		// display matched percent
		matchedtxt.classList.remove("hide");
		var pct = 100 * count / maxwidth;
		if (pct != 100) pct = pct.toFixed(1)
		matchedtxt.firstChild.nodeValue = "Matched: " + pct + "%";
	}
]]>
</script>
<rect x="0.0" y="0" width="1200.0" height="267.0" fill="url(#background)"  />
<text id="title" x="600.00" y="26" >Firedrake example</text>
<text id="details" x="10.00" y="249" > </text>
<text id="unzoom" x="10.00" y="26" class="hide">Reset Zoom</text>
<text id="search" x="1090.00" y="26" >Search</text>
<text id="ignorecase" x="1174.00" y="26" >ic</text>
<text id="matched" x="1090.00" y="249" > </text>
<g id="frames">
<g >
<title>firedrake.formmanipulation.ExtractSubBlock.split (7,185 us, 0.01%)</title><rect x="1184.2" y="151" width="0.2" height="15.0" fill="rgb(0,0,0)" rx="2" ry="2" />
<text  x="1187.23" y="161.5" ></text>
</g>
<g >
<title>firedrake.functionspacedata.FunctionSpaceData.__init__ (25,001 us, 0.04%)</title><rect x="30.1" y="119" width="0.5" height="15.0" fill="rgb(0,0,0)" rx="2" ry="2" />
<text  x="33.08" y="129.5" ></text>
</g>
<g >
<title>firedrake.extrusion_utils.make_extruded_coords (67,245 us, 0.12%)</title><rect x="28.5" y="87" width="1.4" height="15.0" fill="rgb(0,0,0)" rx="2" ry="2" />
<text  x="31.53" y="97.5" ></text>
</g>
<g >
<title>Log_Event_subkernel3_interior_facet_horiz_bottom_to__exterior_facet_bottom_integral_otherwise (45,890 us, 0.08%)</title><rect x="1138.8" y="183" width="1.0" height="15.0" fill="rgb(0,0,0)" rx="2" ry="2" />
<text  x="1141.79" y="193.5" ></text>
</g>
<g >
<title>Log_Event_subkernel11_cell_to__cell_integral_otherwise (191,652 us, 0.34%)</title><rect x="433.5" y="199" width="4.0" height="15.0" fill="rgb(0,0,0)" rx="2" ry="2" />
<text  x="436.46" y="209.5" ></text>
</g>
<g >
<title>MatAssemblyEnd (9,610 us, 0.02%)</title><rect x="1175.6" y="151" width="0.2" height="15.0" fill="rgb(0,0,0)" rx="2" ry="2" />
<text  x="1178.61" y="161.5" ></text>
</g>
<g >
<title>firedrake.functionspace.VectorFunctionSpace (6,172 us, 0.01%)</title><rect x="29.9" y="87" width="0.2" height="15.0" fill="rgb(0,0,0)" rx="2" ry="2" />
<text  x="32.95" y="97.5" ></text>
</g>
<g >
<title>inv_getrf (2,446,014 us, 4.35%)</title><rect x="762.1" y="199" width="51.4" height="15.0" fill="rgb(0,0,0)" rx="2" ry="2" />
<text  x="765.11" y="209.5" >inv_..</text>
</g>
<g >
<title>pyop2.global_kernel.GlobalKernel.compile (33,775 us, 0.06%)</title><rect x="1188.5" y="151" width="0.7" height="15.0" fill="rgb(0,0,0)" rx="2" ry="2" />
<text  x="1191.54" y="161.5" ></text>
</g>
<g >
<title>PCApply (25,829,929 us, 45.97%)</title><rect x="63.3" y="119" width="542.4" height="15.0" fill="rgb(0,0,0)" rx="2" ry="2" />
<text  x="66.28" y="129.5" >PCApply</text>
</g>
<g >
<title>firedrake.formmanipulation.split_form (7,185 us, 0.01%)</title><rect x="1184.2" y="135" width="0.2" height="15.0" fill="rgb(0,0,0)" rx="2" ry="2" />
<text  x="1187.23" y="145.5" ></text>
</g>
<g >
<title>SCForwardElim (5,943,365 us, 10.58%)</title><rect x="460.5" y="135" width="124.8" height="15.0" fill="rgb(0,0,0)" rx="2" ry="2" />
<text  x="463.50" y="145.5" >SCForwardElim</text>
</g>
<g >
<title>firedrake.functionspacedata.get_shared_data (25,001 us, 0.04%)</title><rect x="30.1" y="103" width="0.5" height="15.0" fill="rgb(0,0,0)" rx="2" ry="2" />
<text  x="33.08" y="113.5" ></text>
</g>
<g >
<title>inv_memcpy (74,320 us, 0.13%)</title><rect x="364.9" y="215" width="1.5" height="15.0" fill="rgb(0,0,0)" rx="2" ry="2" />
<text  x="367.86" y="225.5" ></text>
</g>
<g >
<title>firedrake.functionspacedata.FunctionSpaceData.__init__ (11,511 us, 0.02%)</title><rect x="606.2" y="183" width="0.3" height="15.0" fill="rgb(0,0,0)" rx="2" ry="2" />
<text  x="609.22" y="193.5" ></text>
</g>
<g >
<title>firedrake.parloops.par_loop (50,338 us, 0.09%)</title><rect x="460.5" y="167" width="1.1" height="15.0" fill="rgb(0,0,0)" rx="2" ry="2" />
<text  x="463.50" y="177.5" ></text>
</g>
<g >
<title>solve_memcpy (75,219 us, 0.13%)</title><rect x="98.1" y="199" width="1.6" height="15.0" fill="rgb(0,0,0)" rx="2" ry="2" />
<text  x="101.11" y="209.5" ></text>
</g>
<g >
<title>solve_getrf (2,450,702 us, 4.36%)</title><rect x="465.8" y="215" width="51.5" height="15.0" fill="rgb(0,0,0)" rx="2" ry="2" />
<text  x="468.80" y="225.5" >solv..</text>
</g>
<g >
<title>Log_Event_form0_cell_integral_otherwise (20,416 us, 0.04%)</title><rect x="1186.8" y="151" width="0.5" height="15.0" fill="rgb(0,0,0)" rx="2" ry="2" />
<text  x="1189.83" y="161.5" ></text>
</g>
<g >
<title>solve_getrs (51,294 us, 0.09%)</title><rect x="517.3" y="215" width="1.0" height="15.0" fill="rgb(0,0,0)" rx="2" ry="2" />
<text  x="520.27" y="225.5" ></text>
</g>
<g >
<title>SCSolve (972,157 us, 1.73%)</title><rect x="585.3" y="135" width="20.4" height="15.0" fill="rgb(0,0,0)" rx="2" ry="2" />
<text  x="588.31" y="145.5" ></text>
</g>
<g >
<title>pyop2.global_kernel.GlobalKernel.compile (41,786 us, 0.07%)</title><rect x="460.7" y="215" width="0.9" height="15.0" fill="rgb(0,0,0)" rx="2" ry="2" />
<text  x="463.67" y="225.5" ></text>
</g>
<g >
<title>Log_Event_subkernel5_interior_facet_horiz_top_to__exterior_facet_top_integral_otherwise (46,477 us, 0.08%)</title><rect x="522.0" y="199" width="1.0" height="15.0" fill="rgb(0,0,0)" rx="2" ry="2" />
<text  x="524.97" y="209.5" ></text>
</g>
<g >
<title>ParLoopExecute (36,532 us, 0.07%)</title><rect x="29.2" y="103" width="0.7" height="15.0" fill="rgb(0,0,0)" rx="2" ry="2" />
<text  x="32.18" y="113.5" ></text>
</g>
<g >
<title>pyop2.global_kernel.GlobalKernel.compile (38,984 us, 0.07%)</title><rect x="131.2" y="183" width="0.8" height="15.0" fill="rgb(0,0,0)" rx="2" ry="2" />
<text  x="134.21" y="193.5" ></text>
</g>
<g >
<title>firedrake.variational_solver.LinearVariationalProblem.__init__ (10,751 us, 0.02%)</title><rect x="62.7" y="71" width="0.3" height="15.0" fill="rgb(0,0,0)" rx="2" ry="2" />
<text  x="65.75" y="81.5" ></text>
</g>
<g >
<title>solve_getrs (32,533 us, 0.06%)</title><rect x="97.4" y="199" width="0.7" height="15.0" fill="rgb(0,0,0)" rx="2" ry="2" />
<text  x="100.43" y="209.5" ></text>
</g>
<g >
<title>Parloop_Cells_wrap_pyop2_kernel_uniform_extrusion (36,532 us, 0.07%)</title><rect x="29.2" y="119" width="0.7" height="15.0" fill="rgb(0,0,0)" rx="2" ry="2" />
<text  x="32.18" y="129.5" ></text>
</g>
<g >
<title>Log_Event_subkernel17_interior_facet_horiz_top_to__exterior_facet_top_integral_otherwise (51,336 us, 0.09%)</title><rect x="114.5" y="183" width="1.1" height="15.0" fill="rgb(0,0,0)" rx="2" ry="2" />
<text  x="117.53" y="193.5" ></text>
</g>
<g >
<title>Parloop_Cells_wrap_par_loop_kernel (37,807 us, 0.07%)</title><rect x="68.6" y="199" width="0.8" height="15.0" fill="rgb(0,0,0)" rx="2" ry="2" />
<text  x="71.60" y="209.5" ></text>
</g>
<g >
<title>SNESSolve (53,651,308 us, 95.49%)</title><rect x="63.3" y="87" width="1126.7" height="15.0" fill="rgb(0,0,0)" rx="2" ry="2" />
<text  x="66.28" y="97.5" >SNESSolve</text>
</g>
<g >
<title>FunctionSpaceData: CreateElement (11,511 us, 0.02%)</title><rect x="606.2" y="199" width="0.3" height="15.0" fill="rgb(0,0,0)" rx="2" ry="2" />
<text  x="609.22" y="209.5" ></text>
</g>
<g >
<title>inv_getri (5,864,924 us, 10.44%)</title><rect x="241.7" y="215" width="123.2" height="15.0" fill="rgb(0,0,0)" rx="2" ry="2" />
<text  x="244.69" y="225.5" >inv_getri</text>
</g>
<g >
<title>HybridBreak (50,338 us, 0.09%)</title><rect x="460.5" y="151" width="1.1" height="15.0" fill="rgb(0,0,0)" rx="2" ry="2" />
<text  x="463.50" y="161.5" ></text>
</g>
<g >
<title>Log_Event_subkernel1_interior_facet_horiz_bottom_to__exterior_facet_bottom_integral_otherwise (45,386 us, 0.08%)</title><rect x="1074.3" y="183" width="1.0" height="15.0" fill="rgb(0,0,0)" rx="2" ry="2" />
<text  x="1077.32" y="193.5" ></text>
</g>
<g >
<title>Log_Event_subkernel17_interior_facet_vert_to__exterior_facet_vert_integral_otherwise (742,703 us, 1.32%)</title><rect x="115.6" y="183" width="15.6" height="15.0" fill="rgb(0,0,0)" rx="2" ry="2" />
<text  x="118.61" y="193.5" ></text>
</g>
<g >
<title>PCSetUp (27,664,474 us, 49.24%)</title><rect x="605.7" y="103" width="581.0" height="15.0" fill="rgb(0,0,0)" rx="2" ry="2" />
<text  x="608.73" y="113.5" >PCSetUp</text>
</g>
<g >
<title>Log_Event_subkernel3_interior_facet_horiz_top_to__exterior_facet_top_integral_otherwise (47,048 us, 0.08%)</title><rect x="1139.8" y="183" width="0.9" height="15.0" fill="rgb(0,0,0)" rx="2" ry="2" />
<text  x="1142.75" y="193.5" ></text>
</g>
<g >
<title>pyop2.global_kernel.GlobalKernel.compile (36,532 us, 0.07%)</title><rect x="29.2" y="135" width="0.7" height="15.0" fill="rgb(0,0,0)" rx="2" ry="2" />
<text  x="32.18" y="145.5" ></text>
</g>
<g >
<title>Log_Event_subkernel1_interior_facet_vert_to__exterior_facet_vert_integral_otherwise (795,069 us, 1.42%)</title><rect x="1076.3" y="183" width="16.7" height="15.0" fill="rgb(0,0,0)" rx="2" ry="2" />
<text  x="1079.26" y="193.5" ></text>
</g>
<g >
<title>inv_getri (12,295,914 us, 21.88%)</title><rect x="813.5" y="199" width="258.2" height="15.0" fill="rgb(0,0,0)" rx="2" ry="2" />
<text  x="816.48" y="209.5" >inv_getri</text>
</g>
<g >
<title>Log_Event_inits_wrap_slate_loopy_knl_7 (61,123 us, 0.11%)</title><rect x="135.2" y="199" width="1.3" height="15.0" fill="rgb(0,0,0)" rx="2" ry="2" />
<text  x="138.21" y="209.5" ></text>
</g>
<g >
<title>CreateFunctionSpace (25,001 us, 0.04%)</title><rect x="30.1" y="71" width="0.5" height="15.0" fill="rgb(0,0,0)" rx="2" ry="2" />
<text  x="33.08" y="81.5" ></text>
</g>
<g >
<title>CreateFunctionSpace (6,172 us, 0.01%)</title><rect x="29.9" y="103" width="0.2" height="15.0" fill="rgb(0,0,0)" rx="2" ry="2" />
<text  x="32.95" y="113.5" ></text>
</g>
<g >
<title>solve_getrf (2,503,015 us, 4.45%)</title><rect x="366.4" y="215" width="52.6" height="15.0" fill="rgb(0,0,0)" rx="2" ry="2" />
<text  x="369.42" y="225.5" >solv..</text>
</g>
<g >
<title>ParLoopExecute (36,789 us, 0.07%)</title><rect x="1185.9" y="151" width="0.8" height="15.0" fill="rgb(0,0,0)" rx="2" ry="2" />
<text  x="1188.93" y="161.5" ></text>
</g>
<g >
<title>SCBackSub (18,914,407 us, 33.66%)</title><rect x="63.3" y="135" width="397.2" height="15.0" fill="rgb(0,0,0)" rx="2" ry="2" />
<text  x="66.28" y="145.5" >SCBackSub</text>
</g>
<g >
<title>HybridRHS (5,893,027 us, 10.49%)</title><rect x="461.6" y="151" width="123.7" height="15.0" fill="rgb(0,0,0)" rx="2" ry="2" />
<text  x="464.55" y="161.5" >HybridRHS</text>
</g>
<g >
<title>Log_Event_subkernel2_cell_to__cell_integral_otherwise (2,182,350 us, 3.88%)</title><rect x="1093.0" y="183" width="45.8" height="15.0" fill="rgb(0,0,0)" rx="2" ry="2" />
<text  x="1095.96" y="193.5" >Log..</text>
</g>
<g >
<title>firedrake.tsfc_interface.compile_form (35,860 us, 0.06%)</title><rect x="1189.2" y="119" width="0.8" height="15.0" fill="rgb(0,0,0)" rx="2" ry="2" />
<text  x="1192.25" y="129.5" ></text>
</g>
<g >
<title>Log_Event_subkernel10_cell_to__cell_integral_otherwise (465,834 us, 0.83%)</title><rect x="423.7" y="199" width="9.8" height="15.0" fill="rgb(0,0,0)" rx="2" ry="2" />
<text  x="426.68" y="209.5" ></text>
</g>
<g >
<title>firedrake.interpolation.make_interpolator (73,878 us, 0.13%)</title><rect x="1184.4" y="135" width="1.5" height="15.0" fill="rgb(0,0,0)" rx="2" ry="2" />
<text  x="1187.38" y="145.5" ></text>
</g>
<g >
<title>RecoverFirstElim (15,640,635 us, 27.84%)</title><rect x="132.0" y="151" width="328.5" height="15.0" fill="rgb(0,0,0)" rx="2" ry="2" />
<text  x="135.03" y="161.5" >RecoverFirstElim</text>
</g>
<g >
<title>firedrake.variational_solver.NonlinearVariationalSolver.__init__ (14,330 us, 0.03%)</title><rect x="63.0" y="71" width="0.3" height="15.0" fill="rgb(0,0,0)" rx="2" ry="2" />
<text  x="65.98" y="81.5" ></text>
</g>
<g >
<title>Log_Event_inits_wrap_slate_loopy_knl_4 (58,450 us, 0.10%)</title><rect x="464.2" y="199" width="1.3" height="15.0" fill="rgb(0,0,0)" rx="2" ry="2" />
<text  x="467.23" y="209.5" ></text>
</g>
<g >
<title>Parloop_Cells_wrap_wrap_slate_loopy_knl_14 (2,982,450 us, 5.31%)</title><rect x="69.4" y="167" width="62.6" height="15.0" fill="rgb(0,0,0)" rx="2" ry="2" />
<text  x="72.39" y="177.5" >Parloo..</text>
</g>
<g >
<title>inv_getrf (1,219,858 us, 2.17%)</title><rect x="216.1" y="215" width="25.6" height="15.0" fill="rgb(0,0,0)" rx="2" ry="2" />
<text  x="219.07" y="225.5" >i..</text>
</g>
<g >
<title>ParLoopExecute (41,786 us, 0.07%)</title><rect x="460.7" y="183" width="0.9" height="15.0" fill="rgb(0,0,0)" rx="2" ry="2" />
<text  x="463.67" y="193.5" ></text>
</g>
<g >
<title>Log_Event_subkernel5_interior_facet_vert_to__exterior_facet_vert_integral_otherwise (739,350 us, 1.32%)</title><rect x="523.0" y="199" width="15.5" height="15.0" fill="rgb(0,0,0)" rx="2" ry="2" />
<text  x="525.95" y="209.5" ></text>
</g>
<g >
<title>firedrake.functionspacedata.FunctionSpaceData.__init__ (6,172 us, 0.01%)</title><rect x="29.9" y="151" width="0.2" height="15.0" fill="rgb(0,0,0)" rx="2" ry="2" />
<text  x="32.95" y="161.5" ></text>
</g>
<g >
<title>ParLoopExecute (37,807 us, 0.07%)</title><rect x="68.6" y="183" width="0.8" height="15.0" fill="rgb(0,0,0)" rx="2" ry="2" />
<text  x="71.60" y="193.5" ></text>
</g>
<g >
<title>CreateSparsity (1,043,537 us, 1.86%)</title><rect x="1153.7" y="151" width="21.9" height="15.0" fill="rgb(0,0,0)" rx="2" ry="2" />
<text  x="1156.70" y="161.5" ></text>
</g>
<g >
<title>firedrake.variational_solver.NonlinearVariationalProblem.__init__ (10,751 us, 0.02%)</title><rect x="62.7" y="87" width="0.3" height="15.0" fill="rgb(0,0,0)" rx="2" ry="2" />
<text  x="65.75" y="97.5" ></text>
</g>
<g >
<title>CreateFunctionSpace (7,185 us, 0.01%)</title><rect x="1184.2" y="183" width="0.2" height="15.0" fill="rgb(0,0,0)" rx="2" ry="2" />
<text  x="1187.23" y="193.5" ></text>
</g>
<g >
<title>CreateExtMesh (73,417 us, 0.13%)</title><rect x="28.5" y="71" width="1.6" height="15.0" fill="rgb(0,0,0)" rx="2" ry="2" />
<text  x="31.53" y="81.5" ></text>
</g>
<g >
<title>firedrake.functionspacedata.get_shared_data (11,511 us, 0.02%)</title><rect x="606.2" y="167" width="0.3" height="15.0" fill="rgb(0,0,0)" rx="2" ry="2" />
<text  x="609.22" y="177.5" ></text>
</g>
<g >
<title>Log_Event_slate_loopy_knl_14 (1,347,340 us, 2.40%)</title><rect x="71.4" y="183" width="28.3" height="15.0" fill="rgb(0,0,0)" rx="2" ry="2" />
<text  x="74.39" y="193.5" >L..</text>
</g>
<g >
<title>firedrake.functionspaceimpl.FunctionSpace.__init__ (25,001 us, 0.04%)</title><rect x="30.1" y="87" width="0.5" height="15.0" fill="rgb(0,0,0)" rx="2" ry="2" />
<text  x="33.08" y="97.5" ></text>
</g>
<g >
<title>Log_Event_subkernel13_interior_facet_horiz_top_to__exterior_facet_top_integral_otherwise (52,200 us, 0.09%)</title><rect x="438.6" y="199" width="1.1" height="15.0" fill="rgb(0,0,0)" rx="2" ry="2" />
<text  x="441.58" y="209.5" ></text>
</g>
<g >
<title>MatMult (943,560 us, 1.68%)</title><rect x="585.5" y="167" width="19.8" height="15.0" fill="rgb(0,0,0)" rx="2" ry="2" />
<text  x="588.53" y="177.5" ></text>
</g>
<g >
<title>Log_Event_subkernel13_interior_facet_horiz_bottom_to__exterior_facet_bottom_integral_otherwise (52,018 us, 0.09%)</title><rect x="437.5" y="199" width="1.1" height="15.0" fill="rgb(0,0,0)" rx="2" ry="2" />
<text  x="440.49" y="209.5" ></text>
</g>
<g >
<title>MatZeroEntries (13,757 us, 0.02%)</title><rect x="611.5" y="151" width="0.2" height="15.0" fill="rgb(0,0,0)" rx="2" ry="2" />
<text  x="614.46" y="161.5" ></text>
</g>
<g >
<title>firedrake.ufl_expr.adjoint (10,751 us, 0.02%)</title><rect x="62.7" y="103" width="0.3" height="15.0" fill="rgb(0,0,0)" rx="2" ry="2" />
<text  x="65.75" y="113.5" ></text>
</g>
<g >
<title>inv_memcpy (124,606 us, 0.22%)</title><rect x="1071.7" y="199" width="2.6" height="15.0" fill="rgb(0,0,0)" rx="2" ry="2" />
<text  x="1074.70" y="209.5" ></text>
</g>
<g >
<title>Log_Event_subkernel13_interior_facet_vert_to__exterior_facet_vert_integral_otherwise (744,520 us, 1.33%)</title><rect x="439.7" y="199" width="15.6" height="15.0" fill="rgb(0,0,0)" rx="2" ry="2" />
<text  x="442.68" y="209.5" ></text>
</g>
<g >
<title>ParLoopExecute (2,982,450 us, 5.31%)</title><rect x="69.4" y="151" width="62.6" height="15.0" fill="rgb(0,0,0)" rx="2" ry="2" />
<text  x="72.39" y="161.5" >ParLoo..</text>
</g>
<g >
<title>FunctionSpaceData: CreateElement (11,538 us, 0.02%)</title><rect x="30.4" y="135" width="0.2" height="15.0" fill="rgb(0,0,0)" rx="2" ry="2" />
<text  x="33.36" y="145.5" ></text>
</g>
<g >
<title>all (56,188,187 us, 100%)</title><rect x="10.0" y="39" width="1180.0" height="15.0" fill="rgb(0,0,0)" rx="2" ry="2" />
<text  x="13.00" y="49.5" ></text>
</g>
<g >
<title>ParLoopExecute (5,814,016 us, 10.35%)</title><rect x="463.2" y="167" width="122.1" height="15.0" fill="rgb(0,0,0)" rx="2" ry="2" />
<text  x="466.21" y="177.5" >ParLoopExecute</text>
</g>
<g >
<title>Parloop_Cells_wrap_form1_cell_integral_otherwise (56,194 us, 0.10%)</title><rect x="1188.1" y="135" width="1.1" height="15.0" fill="rgb(0,0,0)" rx="2" ry="2" />
<text  x="1191.07" y="145.5" ></text>
</g>
<g >
<title>pyop2.global_kernel.GlobalKernel.compile (40,460 us, 0.07%)</title><rect x="459.6" y="199" width="0.9" height="15.0" fill="rgb(0,0,0)" rx="2" ry="2" />
<text  x="462.65" y="209.5" ></text>
</g>
<g >
<title>Parloop_Cells_wrap_wrap_slate_loopy_knl_4 (5,814,016 us, 10.35%)</title><rect x="463.2" y="183" width="122.1" height="15.0" fill="rgb(0,0,0)" rx="2" ry="2" />
<text  x="466.21" y="193.5" >Parloop_Cells..</text>
</g>
<g >
<title>solve_getrs (69,879 us, 0.12%)</title><rect x="419.0" y="215" width="1.4" height="15.0" fill="rgb(0,0,0)" rx="2" ry="2" />
<text  x="421.98" y="225.5" ></text>
</g>
<g >
<title>firedrake.functionspaceimpl.FunctionSpace.__init__ (6,172 us, 0.01%)</title><rect x="29.9" y="119" width="0.2" height="15.0" fill="rgb(0,0,0)" rx="2" ry="2" />
<text  x="32.95" y="129.5" ></text>
</g>
<g >
<title>firedrake.parloops.par_loop (36,789 us, 0.07%)</title><rect x="1185.9" y="135" width="0.8" height="15.0" fill="rgb(0,0,0)" rx="2" ry="2" />
<text  x="1188.93" y="145.5" ></text>
</g>
<g >
<title>firedrake.functionspacedata.get_shared_data (6,172 us, 0.01%)</title><rect x="29.9" y="135" width="0.2" height="15.0" fill="rgb(0,0,0)" rx="2" ry="2" />
<text  x="32.95" y="145.5" ></text>
</g>
<g >
<title>HybridInit (27,664,474 us, 49.24%)</title><rect x="605.7" y="119" width="581.0" height="15.0" fill="rgb(0,0,0)" rx="2" ry="2" />
<text  x="608.73" y="129.5" >HybridInit</text>
</g>
<g >
<title>pyop2.global_kernel.GlobalKernel.compile (36,614 us, 0.07%)</title><rect x="584.5" y="199" width="0.8" height="15.0" fill="rgb(0,0,0)" rx="2" ry="2" />
<text  x="587.54" y="209.5" ></text>
</g>
<g >
<title>Log_Event_subkernel3_interior_facet_vert_to__exterior_facet_vert_integral_otherwise (577,162 us, 1.03%)</title><rect x="1140.7" y="183" width="12.2" height="15.0" fill="rgb(0,0,0)" rx="2" ry="2" />
<text  x="1143.74" y="193.5" ></text>
</g>
<g >
<title>Log_Event_subkernel15_cell_to__cell_integral_otherwise (464,299 us, 0.83%)</title><rect x="99.7" y="183" width="9.7" height="15.0" fill="rgb(0,0,0)" rx="2" ry="2" />
<text  x="102.69" y="193.5" ></text>
</g>
<g >
<title>pyop2.global_kernel.GlobalKernel.compile (36,789 us, 0.07%)</title><rect x="1185.9" y="183" width="0.8" height="15.0" fill="rgb(0,0,0)" rx="2" ry="2" />
<text  x="1188.93" y="193.5" ></text>
</g>
<g >
<title>ParLoopExecute (114,971 us, 0.20%)</title><rect x="1186.8" y="119" width="2.4" height="15.0" fill="rgb(0,0,0)" rx="2" ry="2" />
<text  x="1189.83" y="129.5" ></text>
</g>
<g >
<title>solve_memcpy (125,199 us, 0.22%)</title><rect x="518.3" y="215" width="2.7" height="15.0" fill="rgb(0,0,0)" rx="2" ry="2" />
<text  x="521.35" y="225.5" ></text>
</g>
<g >
<title>Log_Event_subkernel9_cell_to__cell_integral_otherwise (206,304 us, 0.37%)</title><rect x="455.3" y="199" width="4.3" height="15.0" fill="rgb(0,0,0)" rx="2" ry="2" />
<text  x="458.31" y="209.5" ></text>
</g>
<g >
<title>Log_Event_inits_wrap_slate_loopy_knl_0 (72,340 us, 0.13%)</title><rect x="618.6" y="183" width="1.5" height="15.0" fill="rgb(0,0,0)" rx="2" ry="2" />
<text  x="621.55" y="193.5" ></text>
</g>
<g >
<title>firedrake.formmanipulation.ExtractSubBlock.argument (7,185 us, 0.01%)</title><rect x="1184.2" y="167" width="0.2" height="15.0" fill="rgb(0,0,0)" rx="2" ry="2" />
<text  x="1187.23" y="177.5" ></text>
</g>
<g >
<title>ParLoopExecute (15,538,476 us, 27.65%)</title><rect x="134.2" y="167" width="326.3" height="15.0" fill="rgb(0,0,0)" rx="2" ry="2" />
<text  x="137.17" y="177.5" >ParLoopExecute</text>
</g>
<g >
<title>firedrake.assemble.allocate_matrix (7,808 us, 0.01%)</title><rect x="63.1" y="87" width="0.2" height="15.0" fill="rgb(0,0,0)" rx="2" ry="2" />
<text  x="66.11" y="97.5" ></text>
</g>
<g >
<title>firedrake.__init__ (1,530,799 us, 2.72%)</title><rect x="30.6" y="71" width="32.1" height="15.0" fill="rgb(0,0,0)" rx="2" ry="2" />
<text  x="33.60" y="81.5" >fi..</text>
</g>
<g >
<title>Log_Event_slate_loopy_knl_7 (13,675,220 us, 24.34%)</title><rect x="136.5" y="199" width="287.2" height="15.0" fill="rgb(0,0,0)" rx="2" ry="2" />
<text  x="139.49" y="209.5" >Log_Event_slate_loopy_knl_7</text>
</g>
<g >
<title>pyop2.global_kernel.GlobalKernel.compile (39,864 us, 0.07%)</title><rect x="1152.9" y="183" width="0.8" height="15.0" fill="rgb(0,0,0)" rx="2" ry="2" />
<text  x="1155.86" y="193.5" ></text>
</g>
<g >
<title>ParLoopExecute (25,805,975 us, 45.93%)</title><rect x="611.7" y="151" width="542.0" height="15.0" fill="rgb(0,0,0)" rx="2" ry="2" />
<text  x="614.75" y="161.5" >ParLoopExecute</text>
</g>
<g >
<title>pyop2.global_kernel.GlobalKernel.compile (37,807 us, 0.07%)</title><rect x="68.6" y="215" width="0.8" height="15.0" fill="rgb(0,0,0)" rx="2" ry="2" />
<text  x="71.60" y="225.5" ></text>
</g>
<g >
<title>HybridProject (44,680 us, 0.08%)</title><rect x="68.5" y="151" width="0.9" height="15.0" fill="rgb(0,0,0)" rx="2" ry="2" />
<text  x="71.46" y="161.5" ></text>
</g>
<g >
<title>VecAXPY (6,457 us, 0.01%)</title><rect x="605.6" y="167" width="0.1" height="15.0" fill="rgb(0,0,0)" rx="2" ry="2" />
<text  x="608.59" y="177.5" ></text>
</g>
<g >
<title>Parloop_Cells_wrap_par_loop_kernel (41,786 us, 0.07%)</title><rect x="460.7" y="199" width="0.9" height="15.0" fill="rgb(0,0,0)" rx="2" ry="2" />
<text  x="463.67" y="209.5" ></text>
</g>
<g >
<title>solve_getrf (1,213,959 us, 2.16%)</title><rect x="71.9" y="199" width="25.5" height="15.0" fill="rgb(0,0,0)" rx="2" ry="2" />
<text  x="74.93" y="209.5" >s..</text>
</g>
<g >
<title>firedrake.parloops.par_loop (44,680 us, 0.08%)</title><rect x="68.5" y="167" width="0.9" height="15.0" fill="rgb(0,0,0)" rx="2" ry="2" />
<text  x="71.46" y="177.5" ></text>
</g>
<g >
<title>Log_Event_slate_loopy_knl_0 (21,629,871 us, 38.50%)</title><rect x="620.1" y="183" width="454.2" height="15.0" fill="rgb(0,0,0)" rx="2" ry="2" />
<text  x="623.07" y="193.5" >Log_Event_slate_loopy_knl_0</text>
</g>
<g >
<title>firedrake.formmanipulation.split_form (7,028 us, 0.01%)</title><rect x="1189.9" y="135" width="0.1" height="15.0" fill="rgb(0,0,0)" rx="2" ry="2" />
<text  x="1192.85" y="145.5" ></text>
</g>
<g >
<title>Log_Event_subkernel1_interior_facet_horiz_top_to__exterior_facet_top_integral_otherwise (47,099 us, 0.08%)</title><rect x="1075.3" y="183" width="1.0" height="15.0" fill="rgb(0,0,0)" rx="2" ry="2" />
<text  x="1078.27" y="193.5" ></text>
</g>
<g >
<title>Log_Event_inits_wrap_slate_loopy_knl_14 (46,379 us, 0.08%)</title><rect x="70.4" y="183" width="1.0" height="15.0" fill="rgb(0,0,0)" rx="2" ry="2" />
<text  x="73.42" y="193.5" ></text>
</g>
<g >
<title>Log_Event_slate_loopy_knl_4 (2,643,492 us, 4.70%)</title><rect x="465.5" y="199" width="55.5" height="15.0" fill="rgb(0,0,0)" rx="2" ry="2" />
<text  x="468.46" y="209.5" >Log_E..</text>
</g>
<g >
<title>Parloop_Cells_wrap_par_loop_kernel (36,789 us, 0.07%)</title><rect x="1185.9" y="167" width="0.8" height="15.0" fill="rgb(0,0,0)" rx="2" ry="2" />
<text  x="1188.93" y="177.5" ></text>
</g>
<g >
<title>Parloop_Cells_wrap_wrap_slate_loopy_knl_7 (15,538,476 us, 27.65%)</title><rect x="134.2" y="183" width="326.3" height="15.0" fill="rgb(0,0,0)" rx="2" ry="2" />
<text  x="137.17" y="193.5" >Parloop_Cells_wrap_wrap_slate_loopy_knl_7</text>
</g>
<g >
<title>Log_Event_form1_cell_integral_otherwise (22,419 us, 0.04%)</title><rect x="1188.1" y="151" width="0.4" height="15.0" fill="rgb(0,0,0)" rx="2" ry="2" />
<text  x="1191.07" y="161.5" ></text>
</g>
<g >
<title>PCApply (11,579 us, 0.02%)</title><rect x="605.3" y="167" width="0.3" height="15.0" fill="rgb(0,0,0)" rx="2" ry="2" />
<text  x="608.35" y="177.5" ></text>
</g>
<g >
<title>KSPSolve (972,157 us, 1.73%)</title><rect x="585.3" y="151" width="20.4" height="15.0" fill="rgb(0,0,0)" rx="2" ry="2" />
<text  x="588.31" y="161.5" ></text>
</g>
<g >
<title>HybridOperatorAssembly (26,057,801 us, 46.38%)</title><rect x="606.5" y="135" width="547.2" height="15.0" fill="rgb(0,0,0)" rx="2" ry="2" />
<text  x="609.46" y="145.5" >HybridOperatorAssembly</text>
</g>
<g >
<title>Parloop_Cells_wrap_wrap_slate_loopy_knl_0 (25,805,975 us, 45.93%)</title><rect x="611.7" y="167" width="542.0" height="15.0" fill="rgb(0,0,0)" rx="2" ry="2" />
<text  x="614.75" y="177.5" >Parloop_Cells_wrap_wrap_slate_loopy_knl_0</text>
</g>
<g >
<title>firedrake.variational_solver.NonlinearVariationalSolver.solve (53,651,308 us, 95.49%)</title><rect x="63.3" y="71" width="1126.7" height="15.0" fill="rgb(0,0,0)" rx="2" ry="2" />
<text  x="66.28" y="81.5" >firedrake.variational_solver.NonlinearVariationalSolver.solve</text>
</g>
<g >
<title>pyop2.global_kernel.GlobalKernel.compile (38,361 us, 0.07%)</title><rect x="1187.3" y="151" width="0.8" height="15.0" fill="rgb(0,0,0)" rx="2" ry="2" />
<text  x="1190.26" y="161.5" ></text>
</g>
<g >
<title>Log_Event_subkernel6_cell_to__cell_integral_otherwise (2,193,460 us, 3.90%)</title><rect x="538.5" y="199" width="46.0" height="15.0" fill="rgb(0,0,0)" rx="2" ry="2" />
<text  x="541.48" y="209.5" >Log_..</text>
</g>
<g >
<title>Log_Event_subkernel17_interior_facet_horiz_bottom_to__exterior_facet_bottom_integral_otherwise (52,137 us, 0.09%)</title><rect x="113.4" y="183" width="1.1" height="15.0" fill="rgb(0,0,0)" rx="2" ry="2" />
<text  x="116.44" y="193.5" ></text>
</g>
<g >
<title>firedrake.functionspaceimpl.FunctionSpace.__init__ (11,511 us, 0.02%)</title><rect x="606.2" y="151" width="0.3" height="15.0" fill="rgb(0,0,0)" rx="2" ry="2" />
<text  x="609.22" y="161.5" ></text>
</g>
<g >
<title>solve_memcpy (153,913 us, 0.27%)</title><rect x="420.4" y="215" width="3.3" height="15.0" fill="rgb(0,0,0)" rx="2" ry="2" />
<text  x="423.45" y="225.5" ></text>
</g>
<g >
<title>Parloop_Cells_wrap_form0_cell_integral_otherwise (58,777 us, 0.10%)</title><rect x="1186.8" y="135" width="1.3" height="15.0" fill="rgb(0,0,0)" rx="2" ry="2" />
<text  x="1189.83" y="145.5" ></text>
</g>
<g >
<title>SNESFunctionEval (156,905 us, 0.28%)</title><rect x="1186.7" y="103" width="3.3" height="15.0" fill="rgb(0,0,0)" rx="2" ry="2" />
<text  x="1189.70" y="113.5" ></text>
</g>
<g >
<title>KSPSolve (25,829,929 us, 45.97%)</title><rect x="63.3" y="103" width="542.4" height="15.0" fill="rgb(0,0,0)" rx="2" ry="2" />
<text  x="66.28" y="113.5" >KSPSolve</text>
</g>
<g >
<title>MatZeroInitial (400,717 us, 0.71%)</title><rect x="1175.8" y="151" width="8.4" height="15.0" fill="rgb(0,0,0)" rx="2" ry="2" />
<text  x="1178.81" y="161.5" ></text>
</g>
<g >
<title>CreateFunctionSpace (11,511 us, 0.02%)</title><rect x="606.2" y="135" width="0.3" height="15.0" fill="rgb(0,0,0)" rx="2" ry="2" />
<text  x="609.22" y="145.5" ></text>
</g>
<g >
<title>firedrake (56,188,187 us, 100.00%)</title><rect x="10.0" y="55" width="1180.0" height="15.0" fill="rgb(0,0,0)" rx="2" ry="2" />
<text  x="13.00" y="65.5" >firedrake</text>
</g>
<g >
<title>firedrake.matrix_free.operators.ImplicitMatrixContext.__init__ (7,808 us, 0.01%)</title><rect x="63.1" y="103" width="0.2" height="15.0" fill="rgb(0,0,0)" rx="2" ry="2" />
<text  x="66.11" y="113.5" ></text>
</g>
<g >
<title>firedrake.assemble.allocate_matrix (1,453,864 us, 2.59%)</title><rect x="1153.7" y="135" width="30.5" height="15.0" fill="rgb(0,0,0)" rx="2" ry="2" />
<text  x="1156.70" y="145.5" >f..</text>
</g>
<g >
<title>Log_Event_subkernel5_interior_facet_horiz_bottom_to__exterior_facet_bottom_integral_otherwise (47,587 us, 0.08%)</title><rect x="521.0" y="199" width="1.0" height="15.0" fill="rgb(0,0,0)" rx="2" ry="2" />
<text  x="523.98" y="209.5" ></text>
</g>
<g >
<title>Log_Event_subkernel16_cell_to__cell_integral_otherwise (190,498 us, 0.34%)</title><rect x="109.4" y="183" width="4.0" height="15.0" fill="rgb(0,0,0)" rx="2" ry="2" />
<text  x="112.44" y="193.5" ></text>
</g>
</g>
</svg>
