<?xml version="1.0" standalone="no"?>
<!DOCTYPE svg PUBLIC "-//W3C//DTD SVG 1.1//EN" "http://www.w3.org/Graphics/SVG/1.1/DTD/svg11.dtd">
<svg version="1.1" width="1200" height="299" onload="init(evt)" viewBox="0 0 1200 299" xmlns="http://www.w3.org/2000/svg" xmlns:xlink="http://www.w3.org/1999/xlink">
<!-- Flame graph stack visualization. See https://github.com/brendangregg/FlameGraph for latest version, and http://www.brendangregg.com/flamegraphs.html for examples. -->
<!-- NOTES:  -->
<defs>
	<linearGradient id="background" y1="0" y2="1" x1="0" x2="0" >
		<stop stop-color="#eeeeee" offset="5%" />
		<stop stop-color="#eeeeb0" offset="95%" />
	</linearGradient>
</defs>
<style type="text/css">
	text { font-family:Verdana; font-size:13px; fill:rgb(0,0,0); }
	#search, #ignorecase { opacity:0.1; cursor:pointer; }
	#search:hover, #search.show, #ignorecase:hover, #ignorecase.show { opacity:1; }
	#subtitle { text-anchor:middle; font-color:rgb(160,160,160); }
	#title { text-anchor:middle; font-size:18px}
	#unzoom { cursor:pointer; }
	#frames > *:hover { stroke:black; stroke-width:0.5; cursor:pointer; }
	.hide { display:none; }
	.parent { opacity:0.5; }
</style>
<script type="text/ecmascript">
<![CDATA[
	"use strict";
	var details, searchbtn, unzoombtn, matchedtxt, svg, searching, currentSearchTerm, ignorecase, ignorecaseBtn;
	function init(evt) {
		details = document.getElementById("details").firstChild;
		searchbtn = document.getElementById("search");
		ignorecaseBtn = document.getElementById("ignorecase");
		unzoombtn = document.getElementById("unzoom");
		matchedtxt = document.getElementById("matched");
		svg = document.getElementsByTagName("svg")[0];
		searching = 0;
		currentSearchTerm = null;

		// use GET parameters to restore a flamegraphs state.
		var params = get_params();
		if (params.x && params.y)
			zoom(find_group(document.querySelector('[x="' + params.x + '"][y="' + params.y + '"]')));
                if (params.s) search(params.s);
	}

	// event listeners
	window.addEventListener("click", function(e) {
		var target = find_group(e.target);
		if (target) {
			if (target.nodeName == "a") {
				if (e.ctrlKey === false) return;
				e.preventDefault();
			}
			if (target.classList.contains("parent")) unzoom();
			zoom(target);
			if (!document.querySelector('.parent')) {
				clearzoom();
				return;
			}

			// set parameters for zoom state
			var el = target.querySelector("rect");
			if (el && el.attributes && el.attributes.y && el.attributes._orig_x) {
				var params = get_params()
				params.x = el.attributes._orig_x.value;
				params.y = el.attributes.y.value;
				history.replaceState(null, null, parse_params(params));
			}
		}
		else if (e.target.id == "unzoom") clearzoom();
		else if (e.target.id == "search") search_prompt();
		else if (e.target.id == "ignorecase") toggle_ignorecase();
	}, false)

	// mouse-over for info
	// show
	window.addEventListener("mouseover", function(e) {
		var target = find_group(e.target);
		if (target) details.nodeValue = "Function: " + g_to_text(target);
	}, false)

	// clear
	window.addEventListener("mouseout", function(e) {
		var target = find_group(e.target);
		if (target) details.nodeValue = ' ';
	}, false)

	// ctrl-F for search
	// ctrl-I to toggle case-sensitive search
	window.addEventListener("keydown",function (e) {
		if (e.keyCode === 114 || (e.ctrlKey && e.keyCode === 70)) {
			e.preventDefault();
			search_prompt();
		}
		else if (e.ctrlKey && e.keyCode === 73) {
			e.preventDefault();
			toggle_ignorecase();
		}
	}, false)

	// functions
	function get_params() {
		var params = {};
		var paramsarr = window.location.search.substr(1).split('&');
		for (var i = 0; i < paramsarr.length; ++i) {
			var tmp = paramsarr[i].split("=");
			if (!tmp[0] || !tmp[1]) continue;
			params[tmp[0]]  = decodeURIComponent(tmp[1]);
		}
		return params;
	}
	function parse_params(params) {
		var uri = "?";
		for (var key in params) {
			uri += key + '=' + encodeURIComponent(params[key]) + '&';
		}
		if (uri.slice(-1) == "&")
			uri = uri.substring(0, uri.length - 1);
		if (uri == '?')
			uri = window.location.href.split('?')[0];
		return uri;
	}
	function find_child(node, selector) {
		var children = node.querySelectorAll(selector);
		if (children.length) return children[0];
	}
	function find_group(node) {
		var parent = node.parentElement;
		if (!parent) return;
		if (parent.id == "frames") return node;
		return find_group(parent);
	}
	function orig_save(e, attr, val) {
		if (e.attributes["_orig_" + attr] != undefined) return;
		if (e.attributes[attr] == undefined) return;
		if (val == undefined) val = e.attributes[attr].value;
		e.setAttribute("_orig_" + attr, val);
	}
	function orig_load(e, attr) {
		if (e.attributes["_orig_"+attr] == undefined) return;
		e.attributes[attr].value = e.attributes["_orig_" + attr].value;
		e.removeAttribute("_orig_"+attr);
	}
	function g_to_text(e) {
		var text = find_child(e, "title").firstChild.nodeValue;
		return (text)
	}
	function g_to_func(e) {
		var func = g_to_text(e);
		// if there's any manipulation we want to do to the function
		// name before it's searched, do it here before returning.
		return (func);
	}
	function update_text(e) {
		var r = find_child(e, "rect");
		var t = find_child(e, "text");
		var w = parseFloat(r.attributes.width.value) -3;
		var txt = find_child(e, "title").textContent.replace(/\([^(]*\)$/,"");
		t.attributes.x.value = parseFloat(r.attributes.x.value) + 3;

		// Smaller than this size won't fit anything
		if (w < 2 * 13 * 0.59) {
			t.textContent = "";
			return;
		}

		t.textContent = txt;
		// Fit in full text width
		if (/^ *$/.test(txt) || t.getSubStringLength(0, txt.length) < w)
			return;

		for (var x = txt.length - 2; x > 0; x--) {
			if (t.getSubStringLength(0, x + 2) <= w) {
				t.textContent = txt.substring(0, x) + "..";
				return;
			}
		}
		t.textContent = "";
	}

	// zoom
	function zoom_reset(e) {
		if (e.attributes != undefined) {
			orig_load(e, "x");
			orig_load(e, "width");
		}
		if (e.childNodes == undefined) return;
		for (var i = 0, c = e.childNodes; i < c.length; i++) {
			zoom_reset(c[i]);
		}
	}
	function zoom_child(e, x, ratio) {
		if (e.attributes != undefined) {
			if (e.attributes.x != undefined) {
				orig_save(e, "x");
				e.attributes.x.value = (parseFloat(e.attributes.x.value) - x - 10) * ratio + 10;
				if (e.tagName == "text")
					e.attributes.x.value = find_child(e.parentNode, "rect[x]").attributes.x.value + 3;
			}
			if (e.attributes.width != undefined) {
				orig_save(e, "width");
				e.attributes.width.value = parseFloat(e.attributes.width.value) * ratio;
			}
		}

		if (e.childNodes == undefined) return;
		for (var i = 0, c = e.childNodes; i < c.length; i++) {
			zoom_child(c[i], x - 10, ratio);
		}
	}
	function zoom_parent(e) {
		if (e.attributes) {
			if (e.attributes.x != undefined) {
				orig_save(e, "x");
				e.attributes.x.value = 10;
			}
			if (e.attributes.width != undefined) {
				orig_save(e, "width");
				e.attributes.width.value = parseInt(svg.width.baseVal.value) - (10 * 2);
			}
		}
		if (e.childNodes == undefined) return;
		for (var i = 0, c = e.childNodes; i < c.length; i++) {
			zoom_parent(c[i]);
		}
	}
	function zoom(node) {
		var attr = find_child(node, "rect").attributes;
		var width = parseFloat(attr.width.value);
		var xmin = parseFloat(attr.x.value);
		var xmax = parseFloat(xmin + width);
		var ymin = parseFloat(attr.y.value);
		var ratio = (svg.width.baseVal.value - 2 * 10) / width;

		// XXX: Workaround for JavaScript float issues (fix me)
		var fudge = 0.0001;

		unzoombtn.classList.remove("hide");

		var el = document.getElementById("frames").children;
		for (var i = 0; i < el.length; i++) {
			var e = el[i];
			var a = find_child(e, "rect").attributes;
			var ex = parseFloat(a.x.value);
			var ew = parseFloat(a.width.value);
			var upstack;
			// Is it an ancestor
			if (1 == 0) {
				upstack = parseFloat(a.y.value) > ymin;
			} else {
				upstack = parseFloat(a.y.value) < ymin;
			}
			if (upstack) {
				// Direct ancestor
				if (ex <= xmin && (ex+ew+fudge) >= xmax) {
					e.classList.add("parent");
					zoom_parent(e);
					update_text(e);
				}
				// not in current path
				else
					e.classList.add("hide");
			}
			// Children maybe
			else {
				// no common path
				if (ex < xmin || ex + fudge >= xmax) {
					e.classList.add("hide");
				}
				else {
					zoom_child(e, xmin, ratio);
					update_text(e);
				}
			}
		}
		search();
	}
	function unzoom() {
		unzoombtn.classList.add("hide");
		var el = document.getElementById("frames").children;
		for(var i = 0; i < el.length; i++) {
			el[i].classList.remove("parent");
			el[i].classList.remove("hide");
			zoom_reset(el[i]);
			update_text(el[i]);
		}
		search();
	}
	function clearzoom() {
		unzoom();

		// remove zoom state
		var params = get_params();
		if (params.x) delete params.x;
		if (params.y) delete params.y;
		history.replaceState(null, null, parse_params(params));
	}

	// search
	function toggle_ignorecase() {
		ignorecase = !ignorecase;
		if (ignorecase) {
			ignorecaseBtn.classList.add("show");
		} else {
			ignorecaseBtn.classList.remove("show");
		}
		reset_search();
		search();
	}
	function reset_search() {
		var el = document.querySelectorAll("#frames rect");
		for (var i = 0; i < el.length; i++) {
			orig_load(el[i], "fill")
		}
		var params = get_params();
		delete params.s;
		history.replaceState(null, null, parse_params(params));
	}
	function search_prompt() {
		if (!searching) {
			var term = prompt("Enter a search term (regexp " +
			    "allowed, eg: ^ext4_)"
			    + (ignorecase ? ", ignoring case" : "")
			    + "\nPress Ctrl-i to toggle case sensitivity", "");
			if (term != null) search(term);
		} else {
			reset_search();
			searching = 0;
			currentSearchTerm = null;
			searchbtn.classList.remove("show");
			searchbtn.firstChild.nodeValue = "Search"
			matchedtxt.classList.add("hide");
			matchedtxt.firstChild.nodeValue = ""
		}
	}
	function search(term) {
		if (term) currentSearchTerm = term;

		var re = new RegExp(currentSearchTerm, ignorecase ? 'i' : '');
		var el = document.getElementById("frames").children;
		var matches = new Object();
		var maxwidth = 0;
		for (var i = 0; i < el.length; i++) {
			var e = el[i];
			var func = g_to_func(e);
			var rect = find_child(e, "rect");
			if (func == null || rect == null)
				continue;

			// Save max width. Only works as we have a root frame
			var w = parseFloat(rect.attributes.width.value);
			if (w > maxwidth)
				maxwidth = w;

			if (func.match(re)) {
				// highlight
				var x = parseFloat(rect.attributes.x.value);
				orig_save(rect, "fill");
				rect.attributes.fill.value = "rgb(230,0,230)";

				// remember matches
				if (matches[x] == undefined) {
					matches[x] = w;
				} else {
					if (w > matches[x]) {
						// overwrite with parent
						matches[x] = w;
					}
				}
				searching = 1;
			}
		}
		if (!searching)
			return;
		var params = get_params();
		params.s = currentSearchTerm;
		history.replaceState(null, null, parse_params(params));

		searchbtn.classList.add("show");
		searchbtn.firstChild.nodeValue = "Reset Search";

		// calculate percent matched, excluding vertical overlap
		var count = 0;
		var lastx = -1;
		var lastw = 0;
		var keys = Array();
		for (k in matches) {
			if (matches.hasOwnProperty(k))
				keys.push(k);
		}
		// sort the matched frames by their x location
		// ascending, then width descending
		keys.sort(function(a, b){
			return a - b;
		});
		// Step through frames saving only the biggest bottom-up frames
		// thanks to the sort order. This relies on the tree property
		// where children are always smaller than their parents.
		var fudge = 0.0001;	// JavaScript floating point
		for (var k in keys) {
			var x = parseFloat(keys[k]);
			var w = matches[keys[k]];
			if (x >= lastx + lastw - fudge) {
				count += w;
				lastx = x;
				lastw = w;
			}
		}
		// display matched percent
		matchedtxt.classList.remove("hide");
		var pct = 100 * count / maxwidth;
		if (pct != 100) pct = pct.toFixed(1)
		matchedtxt.firstChild.nodeValue = "Matched: " + pct + "%";
	}
]]>
</script>
<rect x="0.0" y="0" width="1200.0" height="299.0" fill="url(#background)"  />
<text id="title" x="600.00" y="26" >Firedrake example</text>
<text id="details" x="10.00" y="281" > </text>
<text id="unzoom" x="10.00" y="26" class="hide">Reset Zoom</text>
<text id="search" x="1090.00" y="26" >Search</text>
<text id="ignorecase" x="1174.00" y="26" >ic</text>
<text id="matched" x="1090.00" y="281" > </text>
<g id="frames">
<g >
<title>solve_memcpy (11,653,311 us, 1.30%)</title><rect x="531.2" y="247" width="15.3" height="15.0" fill="rgb(0,0,0)" rx="2" ry="2" />
<text  x="534.23" y="257.5" ></text>
</g>
<g >
<title>inv_getri (5,925,054 us, 0.66%)</title><rect x="74.5" y="215" width="7.7" height="15.0" fill="rgb(0,0,0)" rx="2" ry="2" />
<text  x="77.46" y="225.5" ></text>
</g>
<g >
<title>Parloop_Cells_wrap_par_loop_kernel (904,805 us, 0.10%)</title><rect x="144.4" y="199" width="1.2" height="15.0" fill="rgb(0,0,0)" rx="2" ry="2" />
<text  x="147.39" y="209.5" ></text>
</g>
<g >
<title>HybridInit (815,643 us, 0.09%)</title><rect x="1177.0" y="119" width="1.0" height="15.0" fill="rgb(0,0,0)" rx="2" ry="2" />
<text  x="1179.98" y="129.5" ></text>
</g>
<g >
<title>Log_Event_subkernel2_cell_to__cell_integral_otherwise (2,199,711 us, 0.24%)</title><rect x="152.0" y="199" width="2.9" height="15.0" fill="rgb(0,0,0)" rx="2" ry="2" />
<text  x="155.01" y="209.5" ></text>
</g>
<g >
<title>Parloop_Cells_wrap_wrap_slate_loopy_knl_11 (49,962,434 us, 5.55%)</title><rect x="67.3" y="183" width="65.6" height="15.0" fill="rgb(0,0,0)" rx="2" ry="2" />
<text  x="70.34" y="193.5" >Parloo..</text>
</g>
<g >
<title>firedrake.tsfc_interface.compile_form (5,784,601 us, 0.64%)</title><rect x="1169.4" y="167" width="7.6" height="15.0" fill="rgb(0,0,0)" rx="2" ry="2" />
<text  x="1172.39" y="177.5" ></text>
</g>
<g >
<title>Parloop_Cells_wrap_form0_cell_integral_otherwise (4,236,190 us, 0.47%)</title><rect x="1178.0" y="135" width="5.6" height="15.0" fill="rgb(0,0,0)" rx="2" ry="2" />
<text  x="1181.05" y="145.5" ></text>
</g>
<g >
<title>ParLoopExecute (697,409 us, 0.08%)</title><rect x="1177.1" y="151" width="0.9" height="15.0" fill="rgb(0,0,0)" rx="2" ry="2" />
<text  x="1180.14" y="161.5" ></text>
</g>
<g >
<title>Parloop_Cells_wrap_wrap_slate_loopy_knl_3 (74,568,511 us, 8.29%)</title><rect x="1069.7" y="183" width="97.8" height="15.0" fill="rgb(0,0,0)" rx="2" ry="2" />
<text  x="1072.69" y="193.5" >Parloop_Ce..</text>
</g>
<g >
<title>Log_Event_slate_loopy_knl_3 (21,491,795 us, 2.39%)</title><rect x="1070.5" y="199" width="28.2" height="15.0" fill="rgb(0,0,0)" rx="2" ry="2" />
<text  x="1073.46" y="209.5" >L..</text>
</g>
<g >
<title>SCBackSub (94,866,875 us, 10.55%)</title><rect x="20.0" y="135" width="124.4" height="15.0" fill="rgb(0,0,0)" rx="2" ry="2" />
<text  x="22.96" y="145.5" >SCBackSub</text>
</g>
<g >
<title>pyop2.global_kernel.GlobalKernel.compile (34,306,431 us, 3.81%)</title><rect x="87.9" y="199" width="45.0" height="15.0" fill="rgb(0,0,0)" rx="2" ry="2" />
<text  x="90.88" y="209.5" >pyo..</text>
</g>
<g >
<title>Parloop_Cells_wrap_wrap_slate_loopy_knl_7 (647,970,511 us, 72.03%)</title><rect x="209.7" y="215" width="849.9" height="15.0" fill="rgb(0,0,0)" rx="2" ry="2" />
<text  x="212.70" y="225.5" >Parloop_Cells_wrap_wrap_slate_loopy_knl_7</text>
</g>
<g >
<title>firedrake.extrusion_utils.make_extruded_coords (891,401 us, 0.10%)</title><rect x="11.2" y="87" width="1.2" height="15.0" fill="rgb(0,0,0)" rx="2" ry="2" />
<text  x="14.24" y="97.5" ></text>
</g>
<g >
<title>Log_Event_subkernel8_interior_facet_vert_to__exterior_facet_vert_integral_otherwise (72,386,822 us, 8.05%)</title><rect x="637.3" y="231" width="94.9" height="15.0" fill="rgb(0,0,0)" rx="2" ry="2" />
<text  x="640.28" y="241.5" >Log_Event_..</text>
</g>
<g >
<title>pyop2.global_kernel.GlobalKernel.compile (908,331 us, 0.10%)</title><rect x="22.1" y="215" width="1.2" height="15.0" fill="rgb(0,0,0)" rx="2" ry="2" />
<text  x="25.10" y="225.5" ></text>
</g>
<g >
<title>pyop2.global_kernel.GlobalKernel.compile (891,401 us, 0.10%)</title><rect x="11.2" y="135" width="1.2" height="15.0" fill="rgb(0,0,0)" rx="2" ry="2" />
<text  x="14.24" y="145.5" ></text>
</g>
<g >
<title>Log_Event_slate_loopy_knl_7 (241,793,113 us, 26.88%)</title><rect x="229.4" y="231" width="317.1" height="15.0" fill="rgb(0,0,0)" rx="2" ry="2" />
<text  x="232.36" y="241.5" >Log_Event_slate_loopy_knl_7</text>
</g>
<g >
<title>MatMult (4,235,061 us, 0.47%)</title><rect x="14.4" y="119" width="5.6" height="15.0" fill="rgb(0,0,0)" rx="2" ry="2" />
<text  x="17.41" y="129.5" ></text>
</g>
<g >
<title>Log_Event_subkernel9_cell_to__cell_integral_otherwise (200,733,551 us, 22.31%)</title><rect x="732.2" y="231" width="263.3" height="15.0" fill="rgb(0,0,0)" rx="2" ry="2" />
<text  x="735.23" y="241.5" >Log_Event_subkernel9_cell_to__ce..</text>
</g>
<g >
<title>solve_getrf (2,523,822 us, 0.28%)</title><rect x="82.2" y="215" width="3.3" height="15.0" fill="rgb(0,0,0)" rx="2" ry="2" />
<text  x="85.23" y="225.5" ></text>
</g>
<g >
<title>Log_Event_subkernel5_cell_to__cell_integral_otherwise (2,205,751 us, 0.25%)</title><rect x="1099.7" y="199" width="2.9" height="15.0" fill="rgb(0,0,0)" rx="2" ry="2" />
<text  x="1102.69" y="209.5" ></text>
</g>
<g >
<title>HybridBreak (904,805 us, 0.10%)</title><rect x="144.4" y="151" width="1.2" height="15.0" fill="rgb(0,0,0)" rx="2" ry="2" />
<text  x="147.39" y="161.5" ></text>
</g>
<g >
<title>firedrake.tsfc_interface.compile_form (3,448,962 us, 0.38%)</title><rect x="139.9" y="151" width="4.5" height="15.0" fill="rgb(0,0,0)" rx="2" ry="2" />
<text  x="142.87" y="161.5" ></text>
</g>
<g >
<title>PCSetUp (815,643 us, 0.09%)</title><rect x="1177.0" y="103" width="1.0" height="15.0" fill="rgb(0,0,0)" rx="2" ry="2" />
<text  x="1179.98" y="113.5" ></text>
</g>
<g >
<title>Log_Event_slate_loopy_knl_0 (2,574,920 us, 0.29%)</title><rect x="147.7" y="199" width="3.3" height="15.0" fill="rgb(0,0,0)" rx="2" ry="2" />
<text  x="150.66" y="209.5" ></text>
</g>
<g >
<title>firedrake.tsfc_interface.compile_form (1,259,801 us, 0.14%)</title><rect x="1188.3" y="119" width="1.7" height="15.0" fill="rgb(0,0,0)" rx="2" ry="2" />
<text  x="1191.35" y="129.5" ></text>
</g>
<g >
<title>pyop2.global_kernel.GlobalKernel.compile (48,908,545 us, 5.44%)</title><rect x="1103.4" y="199" width="64.1" height="15.0" fill="rgb(0,0,0)" rx="2" ry="2" />
<text  x="1106.35" y="209.5" >pyop2...</text>
</g>
<g >
<title>firedrake.parloops.par_loop (904,805 us, 0.10%)</title><rect x="144.4" y="167" width="1.2" height="15.0" fill="rgb(0,0,0)" rx="2" ry="2" />
<text  x="147.39" y="177.5" ></text>
</g>
<g >
<title>inv_getrf (1,230,567 us, 0.14%)</title><rect x="72.8" y="215" width="1.7" height="15.0" fill="rgb(0,0,0)" rx="2" ry="2" />
<text  x="75.85" y="225.5" ></text>
</g>
<g >
<title>Parloop_Cells_wrap_par_loop_kernel (908,331 us, 0.10%)</title><rect x="22.1" y="199" width="1.2" height="15.0" fill="rgb(0,0,0)" rx="2" ry="2" />
<text  x="25.10" y="209.5" ></text>
</g>
<g >
<title>CreateExtMesh (891,401 us, 0.10%)</title><rect x="11.2" y="71" width="1.2" height="15.0" fill="rgb(0,0,0)" rx="2" ry="2" />
<text  x="14.24" y="81.5" ></text>
</g>
<g >
<title>ParLoopExecute (42,284,276 us, 4.70%)</title><rect x="147.4" y="167" width="55.5" height="15.0" fill="rgb(0,0,0)" rx="2" ry="2" />
<text  x="150.40" y="177.5" >ParLo..</text>
</g>
<g >
<title>HybridRHS (46,994,442 us, 5.22%)</title><rect x="145.6" y="151" width="61.6" height="15.0" fill="rgb(0,0,0)" rx="2" ry="2" />
<text  x="148.58" y="161.5" >Hybrid..</text>
</g>
<g >
<title>firedrake.parloops.par_loop (697,409 us, 0.08%)</title><rect x="1177.1" y="135" width="0.9" height="15.0" fill="rgb(0,0,0)" rx="2" ry="2" />
<text  x="1180.14" y="145.5" ></text>
</g>
<g >
<title>SNESSolve (896,262,151 us, 99.63%)</title><rect x="14.4" y="87" width="1175.6" height="15.0" fill="rgb(0,0,0)" rx="2" ry="2" />
<text  x="17.41" y="97.5" >SNESSolve</text>
</g>
<g >
<title>Log_Event_subkernel19_cell_to__cell_integral_otherwise (465,130 us, 0.05%)</title><rect x="25.3" y="183" width="0.6" height="15.0" fill="rgb(0,0,0)" rx="2" ry="2" />
<text  x="28.33" y="193.5" ></text>
</g>
<g >
<title>firedrake.tsfc_interface.compile_form (3,325,679 us, 0.37%)</title><rect x="202.9" y="167" width="4.3" height="15.0" fill="rgb(0,0,0)" rx="2" ry="2" />
<text  x="205.86" y="177.5" ></text>
</g>
<g >
<title>ParLoopExecute (904,805 us, 0.10%)</title><rect x="144.4" y="183" width="1.2" height="15.0" fill="rgb(0,0,0)" rx="2" ry="2" />
<text  x="147.39" y="193.5" ></text>
</g>
<g >
<title>Parloop_Cells_wrap_wrap_slate_loopy_knl_0 (42,284,276 us, 4.70%)</title><rect x="147.4" y="183" width="55.5" height="15.0" fill="rgb(0,0,0)" rx="2" ry="2" />
<text  x="150.40" y="193.5" >Parlo..</text>
</g>
<g >
<title>RecoverFirstElim (56,904,340 us, 6.33%)</title><rect x="65.2" y="151" width="74.7" height="15.0" fill="rgb(0,0,0)" rx="2" ry="2" />
<text  x="68.23" y="161.5" >Recover..</text>
</g>
<g >
<title>Log_Event_subkernel20_cell_to__cell_integral_otherwise (190,131 us, 0.02%)</title><rect x="25.9" y="183" width="0.3" height="15.0" fill="rgb(0,0,0)" rx="2" ry="2" />
<text  x="28.94" y="193.5" ></text>
</g>
<g >
<title>firedrake.__init__ (1,521,946 us, 0.17%)</title><rect x="12.4" y="71" width="2.0" height="15.0" fill="rgb(0,0,0)" rx="2" ry="2" />
<text  x="15.41" y="81.5" ></text>
</g>
<g >
<title>Parloop_Cells_wrap_form1_cell_integral_otherwise (3,614,754 us, 0.40%)</title><rect x="1183.6" y="135" width="4.7" height="15.0" fill="rgb(0,0,0)" rx="2" ry="2" />
<text  x="1186.61" y="145.5" ></text>
</g>
<g >
<title>Log_Event_subkernel15_cell_to__cell_integral_otherwise (192,647 us, 0.02%)</title><rect x="86.6" y="199" width="0.3" height="15.0" fill="rgb(0,0,0)" rx="2" ry="2" />
<text  x="89.64" y="209.5" ></text>
</g>
<g >
<title>MatMult (655,703,087 us, 72.89%)</title><rect x="207.2" y="167" width="860.1" height="15.0" fill="rgb(0,0,0)" rx="2" ry="2" />
<text  x="210.22" y="177.5" >MatMult</text>
</g>
<g >
<title>SCSolve (739,334,580 us, 82.18%)</title><rect x="207.2" y="135" width="969.8" height="15.0" fill="rgb(0,0,0)" rx="2" ry="2" />
<text  x="210.22" y="145.5" >SCSolve</text>
</g>
<g >
<title>KSPSolve (886,335,763 us, 98.52%)</title><rect x="14.4" y="103" width="1162.6" height="15.0" fill="rgb(0,0,0)" rx="2" ry="2" />
<text  x="17.41" y="113.5" >KSPSolve</text>
</g>
<g >
<title>Log_Event_subkernel10_interior_facet_horiz_top_to__exterior_facet_top_integral_otherwise (4,080,653 us, 0.45%)</title><rect x="551.9" y="231" width="5.3" height="15.0" fill="rgb(0,0,0)" rx="2" ry="2" />
<text  x="554.87" y="241.5" ></text>
</g>
<g >
<title>Log_Event_subkernel8_interior_facet_horiz_bottom_to__exterior_facet_bottom_integral_otherwise (4,270,683 us, 0.47%)</title><rect x="626.2" y="231" width="5.6" height="15.0" fill="rgb(0,0,0)" rx="2" ry="2" />
<text  x="629.22" y="241.5" ></text>
</g>
<g >
<title>HybridProject (908,331 us, 0.10%)</title><rect x="22.1" y="151" width="1.2" height="15.0" fill="rgb(0,0,0)" rx="2" ry="2" />
<text  x="25.10" y="161.5" ></text>
</g>
<g >
<title>solve_getrs (4,639,859 us, 0.52%)</title><rect x="525.1" y="247" width="6.1" height="15.0" fill="rgb(0,0,0)" rx="2" ry="2" />
<text  x="528.14" y="257.5" ></text>
</g>
<g >
<title>SNESFunctionEval (9,110,745 us, 1.01%)</title><rect x="1178.0" y="103" width="12.0" height="15.0" fill="rgb(0,0,0)" rx="2" ry="2" />
<text  x="1181.05" y="113.5" ></text>
</g>
<g >
<title>ParLoopExecute (7,850,944 us, 0.87%)</title><rect x="1178.0" y="119" width="10.3" height="15.0" fill="rgb(0,0,0)" rx="2" ry="2" />
<text  x="1181.05" y="129.5" ></text>
</g>
<g >
<title>Log_Event_slate_loopy_knl_11 (13,816,356 us, 1.54%)</title><rect x="67.6" y="199" width="18.1" height="15.0" fill="rgb(0,0,0)" rx="2" ry="2" />
<text  x="70.63" y="209.5" ></text>
</g>
<g >
<title>pyop2.global_kernel.GlobalKernel.compile (3,614,754 us, 0.40%)</title><rect x="1183.6" y="151" width="4.7" height="15.0" fill="rgb(0,0,0)" rx="2" ry="2" />
<text  x="1186.61" y="161.5" ></text>
</g>
<g >
<title>firedrake.tsfc_interface.compile_form (5,842,507 us, 0.65%)</title><rect x="1059.6" y="199" width="7.7" height="15.0" fill="rgb(0,0,0)" rx="2" ry="2" />
<text  x="1062.62" y="209.5" ></text>
</g>
<g >
<title>solve_getrf (222,819,290 us, 24.77%)</title><rect x="232.9" y="247" width="292.2" height="15.0" fill="rgb(0,0,0)" rx="2" ry="2" />
<text  x="235.88" y="257.5" >solve_getrf</text>
</g>
<g >
<title>firedrake.matrix_free.operators.ImplicitMatrixContext.mult (655,703,087 us, 72.89%)</title><rect x="207.2" y="183" width="860.1" height="15.0" fill="rgb(0,0,0)" rx="2" ry="2" />
<text  x="210.22" y="193.5" >firedrake.matrix_free.operators.ImplicitMatrixContext.mult</text>
</g>
<g >
<title>inv_getri (12,152,747 us, 1.35%)</title><rect x="1082.5" y="215" width="16.0" height="15.0" fill="rgb(0,0,0)" rx="2" ry="2" />
<text  x="1085.55" y="225.5" ></text>
</g>
<g >
<title>Log_Event_subkernel6_interior_facet_vert_to__exterior_facet_vert_integral_otherwise (583,440 us, 0.06%)</title><rect x="1102.6" y="199" width="0.8" height="15.0" fill="rgb(0,0,0)" rx="2" ry="2" />
<text  x="1105.59" y="209.5" ></text>
</g>
<g >
<title>Log_Event_subkernel10_interior_facet_horiz_bottom_to__exterior_facet_bottom_integral_otherwise (4,086,932 us, 0.45%)</title><rect x="546.5" y="231" width="5.4" height="15.0" fill="rgb(0,0,0)" rx="2" ry="2" />
<text  x="549.51" y="241.5" ></text>
</g>
<g >
<title>Parloop_Cells_wrap_par_loop_kernel (697,409 us, 0.08%)</title><rect x="1177.1" y="167" width="0.9" height="15.0" fill="rgb(0,0,0)" rx="2" ry="2" />
<text  x="1180.14" y="177.5" ></text>
</g>
<g >
<title>ParLoopExecute (891,401 us, 0.10%)</title><rect x="11.2" y="103" width="1.2" height="15.0" fill="rgb(0,0,0)" rx="2" ry="2" />
<text  x="14.24" y="113.5" ></text>
</g>
<g >
<title>PCApply (882,100,702 us, 98.05%)</title><rect x="20.0" y="119" width="1157.0" height="15.0" fill="rgb(0,0,0)" rx="2" ry="2" />
<text  x="22.96" y="129.5" >PCApply</text>
</g>
<g >
<title>inv_getrf (2,449,717 us, 0.27%)</title><rect x="1079.3" y="215" width="3.2" height="15.0" fill="rgb(0,0,0)" rx="2" ry="2" />
<text  x="1082.33" y="225.5" ></text>
</g>
<g >
<title>Log_Event_subkernel8_interior_facet_horiz_top_to__exterior_facet_top_integral_otherwise (4,159,404 us, 0.46%)</title><rect x="631.8" y="231" width="5.5" height="15.0" fill="rgb(0,0,0)" rx="2" ry="2" />
<text  x="634.82" y="241.5" ></text>
</g>
<g >
<title>pyop2.global_kernel.GlobalKernel.compile (904,805 us, 0.10%)</title><rect x="144.4" y="215" width="1.2" height="15.0" fill="rgb(0,0,0)" rx="2" ry="2" />
<text  x="147.39" y="225.5" ></text>
</g>
<g >
<title>firedrake.tsfc_interface.compile_form (5,331,908 us, 0.59%)</title><rect x="132.9" y="167" width="7.0" height="15.0" fill="rgb(0,0,0)" rx="2" ry="2" />
<text  x="135.88" y="177.5" ></text>
</g>
<g >
<title>firedrake.assemble.allocate_matrix (1,440,921 us, 0.16%)</title><rect x="1167.5" y="167" width="1.9" height="15.0" fill="rgb(0,0,0)" rx="2" ry="2" />
<text  x="1170.50" y="177.5" ></text>
</g>
<g >
<title>pyop2.global_kernel.GlobalKernel.compile (697,409 us, 0.08%)</title><rect x="1177.1" y="183" width="0.9" height="15.0" fill="rgb(0,0,0)" rx="2" ry="2" />
<text  x="1180.14" y="193.5" ></text>
</g>
<g >
<title>pyop2.global_kernel.GlobalKernel.compile (48,867,613 us, 5.43%)</title><rect x="995.5" y="231" width="64.1" height="15.0" fill="rgb(0,0,0)" rx="2" ry="2" />
<text  x="998.52" y="241.5" >pyop2...</text>
</g>
<g >
<title>MatZeroInitial (400,864 us, 0.04%)</title><rect x="1168.9" y="183" width="0.5" height="15.0" fill="rgb(0,0,0)" rx="2" ry="2" />
<text  x="1171.87" y="193.5" ></text>
</g>
<g >
<title>inv_memcpy (124,384 us, 0.01%)</title><rect x="1098.5" y="215" width="0.2" height="15.0" fill="rgb(0,0,0)" rx="2" ry="2" />
<text  x="1101.49" y="225.5" ></text>
</g>
<g >
<title>firedrake.matrix_free.operators.ImplicitMatrixContext.mult (4,235,061 us, 0.47%)</title><rect x="14.4" y="135" width="5.6" height="15.0" fill="rgb(0,0,0)" rx="2" ry="2" />
<text  x="17.41" y="145.5" ></text>
</g>
<g >
<title>solve_getrf (2,449,761 us, 0.27%)</title><rect x="147.7" y="215" width="3.2" height="15.0" fill="rgb(0,0,0)" rx="2" ry="2" />
<text  x="150.66" y="225.5" ></text>
</g>
<g >
<title>Parloop_Cells_wrap_wrap_slate_loopy_knl_18 (31,971,835 us, 3.55%)</title><rect x="23.3" y="167" width="41.9" height="15.0" fill="rgb(0,0,0)" rx="2" ry="2" />
<text  x="26.29" y="177.5" >Par..</text>
</g>
<g >
<title>Log_Event_subkernel17_interior_facet_vert_to__exterior_facet_vert_integral_otherwise (750,723 us, 0.08%)</title><rect x="86.9" y="199" width="1.0" height="15.0" fill="rgb(0,0,0)" rx="2" ry="2" />
<text  x="89.89" y="209.5" ></text>
</g>
<g >
<title>PCSetUp (83,631,493 us, 9.30%)</title><rect x="1067.3" y="151" width="109.7" height="15.0" fill="rgb(0,0,0)" rx="2" ry="2" />
<text  x="1070.28" y="161.5" >PCSetUp</text>
</g>
<g >
<title>Log_Event_subkernel1_interior_facet_vert_to__exterior_facet_vert_integral_otherwise (740,284 us, 0.08%)</title><rect x="151.0" y="199" width="1.0" height="15.0" fill="rgb(0,0,0)" rx="2" ry="2" />
<text  x="154.04" y="209.5" ></text>
</g>
<g >
<title>firedrake.parloops.par_loop (908,331 us, 0.10%)</title><rect x="22.1" y="167" width="1.2" height="15.0" fill="rgb(0,0,0)" rx="2" ry="2" />
<text  x="25.10" y="177.5" ></text>
</g>
<g >
<title>CreateSparsity (1,040,057 us, 0.12%)</title><rect x="1167.5" y="183" width="1.4" height="15.0" fill="rgb(0,0,0)" rx="2" ry="2" />
<text  x="1170.50" y="193.5" ></text>
</g>
<g >
<title>Log_Event_subkernel10_interior_facet_vert_to__exterior_facet_vert_integral_otherwise (52,602,037 us, 5.85%)</title><rect x="557.2" y="231" width="69.0" height="15.0" fill="rgb(0,0,0)" rx="2" ry="2" />
<text  x="560.23" y="241.5" >Log_Ev..</text>
</g>
<g >
<title>KSPSolve (655,703,087 us, 72.89%)</title><rect x="207.2" y="151" width="860.1" height="15.0" fill="rgb(0,0,0)" rx="2" ry="2" />
<text  x="210.22" y="161.5" >KSPSolve</text>
</g>
<g >
<title>pyop2.global_kernel.GlobalKernel.compile (36,565,979 us, 4.06%)</title><rect x="154.9" y="199" width="48.0" height="15.0" fill="rgb(0,0,0)" rx="2" ry="2" />
<text  x="157.90" y="209.5" >pyop..</text>
</g>
<g >
<title>ParLoopExecute (908,331 us, 0.10%)</title><rect x="22.1" y="183" width="1.2" height="15.0" fill="rgb(0,0,0)" rx="2" ry="2" />
<text  x="25.10" y="193.5" ></text>
</g>
<g >
<title>Log_Event_subkernel21_interior_facet_vert_to__exterior_facet_vert_integral_otherwise (740,943 us, 0.08%)</title><rect x="26.2" y="183" width="1.0" height="15.0" fill="rgb(0,0,0)" rx="2" ry="2" />
<text  x="29.19" y="193.5" ></text>
</g>
<g >
<title>all (899,620,873 us, 100%)</title><rect x="10.0" y="39" width="1180.0" height="15.0" fill="rgb(0,0,0)" rx="2" ry="2" />
<text  x="13.00" y="49.5" ></text>
</g>
<g >
<title>ParLoopExecute (31,971,835 us, 3.55%)</title><rect x="23.3" y="151" width="41.9" height="15.0" fill="rgb(0,0,0)" rx="2" ry="2" />
<text  x="26.29" y="161.5" >Par..</text>
</g>
<g >
<title>SCForwardElim (47,899,247 us, 5.32%)</title><rect x="144.4" y="135" width="62.8" height="15.0" fill="rgb(0,0,0)" rx="2" ry="2" />
<text  x="147.39" y="145.5" >SCForw..</text>
</g>
<g >
<title>ParLoopExecute (74,568,511 us, 8.29%)</title><rect x="1069.7" y="167" width="97.8" height="15.0" fill="rgb(0,0,0)" rx="2" ry="2" />
<text  x="1072.69" y="177.5" >ParLoopExe..</text>
</g>
<g >
<title>pyop2.global_kernel.GlobalKernel.compile (29,026,971 us, 3.23%)</title><rect x="27.2" y="183" width="38.0" height="15.0" fill="rgb(0,0,0)" rx="2" ry="2" />
<text  x="30.16" y="193.5" >py..</text>
</g>
<g >
<title>Log_Event_subkernel13_cell_to__cell_integral_otherwise (206,806 us, 0.02%)</title><rect x="85.7" y="199" width="0.3" height="15.0" fill="rgb(0,0,0)" rx="2" ry="2" />
<text  x="88.75" y="209.5" ></text>
</g>
<g >
<title>ParLoopExecute (647,970,511 us, 72.03%)</title><rect x="209.7" y="199" width="849.9" height="15.0" fill="rgb(0,0,0)" rx="2" ry="2" />
<text  x="212.70" y="209.5" >ParLoopExecute</text>
</g>
<g >
<title>Log_Event_subkernel14_cell_to__cell_integral_otherwise (472,589 us, 0.05%)</title><rect x="86.0" y="199" width="0.6" height="15.0" fill="rgb(0,0,0)" rx="2" ry="2" />
<text  x="89.02" y="209.5" ></text>
</g>
<g >
<title>solve_getrf (1,214,826 us, 0.14%)</title><rect x="23.7" y="199" width="1.6" height="15.0" fill="rgb(0,0,0)" rx="2" ry="2" />
<text  x="26.73" y="209.5" ></text>
</g>
<g >
<title>pyop2.global_kernel.GlobalKernel.compile (3,180,243 us, 0.35%)</title><rect x="14.4" y="183" width="4.2" height="15.0" fill="rgb(0,0,0)" rx="2" ry="2" />
<text  x="17.41" y="193.5" ></text>
</g>
<g >
<title>Parloop_Cells_wrap_pyop2_kernel_uniform_extrusion (891,401 us, 0.10%)</title><rect x="11.2" y="119" width="1.2" height="15.0" fill="rgb(0,0,0)" rx="2" ry="2" />
<text  x="14.24" y="129.5" ></text>
</g>
<g >
<title>solve_memcpy (158,201 us, 0.02%)</title><rect x="85.5" y="215" width="0.2" height="15.0" fill="rgb(0,0,0)" rx="2" ry="2" />
<text  x="88.54" y="225.5" ></text>
</g>
<g >
<title>firedrake (899,620,873 us, 100.00%)</title><rect x="10.0" y="55" width="1180.0" height="15.0" fill="rgb(0,0,0)" rx="2" ry="2" />
<text  x="13.00" y="65.5" >firedrake</text>
</g>
<g >
<title>pyop2.global_kernel.GlobalKernel.compile (4,236,190 us, 0.47%)</title><rect x="1178.0" y="151" width="5.6" height="15.0" fill="rgb(0,0,0)" rx="2" ry="2" />
<text  x="1181.05" y="161.5" ></text>
</g>
<g >
<title>Parloop_Cells_wrap_form1_cell_integral_otherwise (3,180,243 us, 0.35%)</title><rect x="14.4" y="167" width="4.2" height="15.0" fill="rgb(0,0,0)" rx="2" ry="2" />
<text  x="17.41" y="177.5" ></text>
</g>
<g >
<title>Log_Event_subkernel4_interior_facet_vert_to__exterior_facet_vert_integral_otherwise (793,722 us, 0.09%)</title><rect x="1098.7" y="199" width="1.0" height="15.0" fill="rgb(0,0,0)" rx="2" ry="2" />
<text  x="1101.65" y="209.5" ></text>
</g>
<g >
<title>Log_Event_slate_loopy_knl_18 (1,349,698 us, 0.15%)</title><rect x="23.6" y="183" width="1.7" height="15.0" fill="rgb(0,0,0)" rx="2" ry="2" />
<text  x="26.56" y="193.5" ></text>
</g>
<g >
<title>ParLoopExecute (49,962,434 us, 5.55%)</title><rect x="67.3" y="167" width="65.6" height="15.0" fill="rgb(0,0,0)" rx="2" ry="2" />
<text  x="70.34" y="177.5" >ParLoo..</text>
</g>
<g >
<title>firedrake.variational_solver.NonlinearVariationalSolver.solve (896,262,151 us, 99.63%)</title><rect x="14.4" y="71" width="1175.6" height="15.0" fill="rgb(0,0,0)" rx="2" ry="2" />
<text  x="17.41" y="81.5" >firedrake.variational_solver.NonlinearVariationalSolver.solve</text>
</g>
<g >
<title>solve_memcpy (125,159 us, 0.01%)</title><rect x="150.9" y="215" width="0.1" height="15.0" fill="rgb(0,0,0)" rx="2" ry="2" />
<text  x="153.88" y="225.5" ></text>
</g>
<g >
<title>firedrake.tsfc_interface.compile_form (1,054,818 us, 0.12%)</title><rect x="18.6" y="151" width="1.4" height="15.0" fill="rgb(0,0,0)" rx="2" ry="2" />
<text  x="21.58" y="161.5" ></text>
</g>
<g >
<title>Log_Event_inits_wrap_slate_loopy_knl_7 (6,378,886 us, 0.71%)</title><rect x="221.0" y="231" width="8.4" height="15.0" fill="rgb(0,0,0)" rx="2" ry="2" />
<text  x="224.00" y="241.5" ></text>
</g>
<g >
<title>ParLoopExecute (3,180,243 us, 0.35%)</title><rect x="14.4" y="151" width="4.2" height="15.0" fill="rgb(0,0,0)" rx="2" ry="2" />
<text  x="17.41" y="161.5" ></text>
</g>
</g>
</svg>
