<?xml version="1.0" standalone="no"?>
<!DOCTYPE svg PUBLIC "-//W3C//DTD SVG 1.1//EN" "http://www.w3.org/Graphics/SVG/1.1/DTD/svg11.dtd">
<svg version="1.1" width="1200" height="267" onload="init(evt)" viewBox="0 0 1200 267" xmlns="http://www.w3.org/2000/svg" xmlns:xlink="http://www.w3.org/1999/xlink">
<!-- Flame graph stack visualization. See https://github.com/brendangregg/FlameGraph for latest version, and http://www.brendangregg.com/flamegraphs.html for examples. -->
<!-- NOTES:  -->
<defs>
	<linearGradient id="background" y1="0" y2="1" x1="0" x2="0" >
		<stop stop-color="#eeeeee" offset="5%" />
		<stop stop-color="#eeeeb0" offset="95%" />
	</linearGradient>
</defs>
<style type="text/css">
	text { font-family:Verdana; font-size:13px; fill:rgb(0,0,0); }
	#search, #ignorecase { opacity:0.1; cursor:pointer; }
	#search:hover, #search.show, #ignorecase:hover, #ignorecase.show { opacity:1; }
	#subtitle { text-anchor:middle; font-color:rgb(160,160,160); }
	#title { text-anchor:middle; font-size:18px}
	#unzoom { cursor:pointer; }
	#frames > *:hover { stroke:black; stroke-width:0.5; cursor:pointer; }
	.hide { display:none; }
	.parent { opacity:0.5; }
</style>
<script type="text/ecmascript">
<![CDATA[
	"use strict";
	var details, searchbtn, unzoombtn, matchedtxt, svg, searching, currentSearchTerm, ignorecase, ignorecaseBtn;
	function init(evt) {
		details = document.getElementById("details").firstChild;
		searchbtn = document.getElementById("search");
		ignorecaseBtn = document.getElementById("ignorecase");
		unzoombtn = document.getElementById("unzoom");
		matchedtxt = document.getElementById("matched");
		svg = document.getElementsByTagName("svg")[0];
		searching = 0;
		currentSearchTerm = null;

		// use GET parameters to restore a flamegraphs state.
		var params = get_params();
		if (params.x && params.y)
			zoom(find_group(document.querySelector('[x="' + params.x + '"][y="' + params.y + '"]')));
                if (params.s) search(params.s);
	}

	// event listeners
	window.addEventListener("click", function(e) {
		var target = find_group(e.target);
		if (target) {
			if (target.nodeName == "a") {
				if (e.ctrlKey === false) return;
				e.preventDefault();
			}
			if (target.classList.contains("parent")) unzoom();
			zoom(target);
			if (!document.querySelector('.parent')) {
				clearzoom();
				return;
			}

			// set parameters for zoom state
			var el = target.querySelector("rect");
			if (el && el.attributes && el.attributes.y && el.attributes._orig_x) {
				var params = get_params()
				params.x = el.attributes._orig_x.value;
				params.y = el.attributes.y.value;
				history.replaceState(null, null, parse_params(params));
			}
		}
		else if (e.target.id == "unzoom") clearzoom();
		else if (e.target.id == "search") search_prompt();
		else if (e.target.id == "ignorecase") toggle_ignorecase();
	}, false)

	// mouse-over for info
	// show
	window.addEventListener("mouseover", function(e) {
		var target = find_group(e.target);
		if (target) details.nodeValue = "Function: " + g_to_text(target);
	}, false)

	// clear
	window.addEventListener("mouseout", function(e) {
		var target = find_group(e.target);
		if (target) details.nodeValue = ' ';
	}, false)

	// ctrl-F for search
	// ctrl-I to toggle case-sensitive search
	window.addEventListener("keydown",function (e) {
		if (e.keyCode === 114 || (e.ctrlKey && e.keyCode === 70)) {
			e.preventDefault();
			search_prompt();
		}
		else if (e.ctrlKey && e.keyCode === 73) {
			e.preventDefault();
			toggle_ignorecase();
		}
	}, false)

	// functions
	function get_params() {
		var params = {};
		var paramsarr = window.location.search.substr(1).split('&');
		for (var i = 0; i < paramsarr.length; ++i) {
			var tmp = paramsarr[i].split("=");
			if (!tmp[0] || !tmp[1]) continue;
			params[tmp[0]]  = decodeURIComponent(tmp[1]);
		}
		return params;
	}
	function parse_params(params) {
		var uri = "?";
		for (var key in params) {
			uri += key + '=' + encodeURIComponent(params[key]) + '&';
		}
		if (uri.slice(-1) == "&")
			uri = uri.substring(0, uri.length - 1);
		if (uri == '?')
			uri = window.location.href.split('?')[0];
		return uri;
	}
	function find_child(node, selector) {
		var children = node.querySelectorAll(selector);
		if (children.length) return children[0];
	}
	function find_group(node) {
		var parent = node.parentElement;
		if (!parent) return;
		if (parent.id == "frames") return node;
		return find_group(parent);
	}
	function orig_save(e, attr, val) {
		if (e.attributes["_orig_" + attr] != undefined) return;
		if (e.attributes[attr] == undefined) return;
		if (val == undefined) val = e.attributes[attr].value;
		e.setAttribute("_orig_" + attr, val);
	}
	function orig_load(e, attr) {
		if (e.attributes["_orig_"+attr] == undefined) return;
		e.attributes[attr].value = e.attributes["_orig_" + attr].value;
		e.removeAttribute("_orig_"+attr);
	}
	function g_to_text(e) {
		var text = find_child(e, "title").firstChild.nodeValue;
		return (text)
	}
	function g_to_func(e) {
		var func = g_to_text(e);
		// if there's any manipulation we want to do to the function
		// name before it's searched, do it here before returning.
		return (func);
	}
	function update_text(e) {
		var r = find_child(e, "rect");
		var t = find_child(e, "text");
		var w = parseFloat(r.attributes.width.value) -3;
		var txt = find_child(e, "title").textContent.replace(/\([^(]*\)$/,"");
		t.attributes.x.value = parseFloat(r.attributes.x.value) + 3;

		// Smaller than this size won't fit anything
		if (w < 2 * 13 * 0.59) {
			t.textContent = "";
			return;
		}

		t.textContent = txt;
		// Fit in full text width
		if (/^ *$/.test(txt) || t.getSubStringLength(0, txt.length) < w)
			return;

		for (var x = txt.length - 2; x > 0; x--) {
			if (t.getSubStringLength(0, x + 2) <= w) {
				t.textContent = txt.substring(0, x) + "..";
				return;
			}
		}
		t.textContent = "";
	}

	// zoom
	function zoom_reset(e) {
		if (e.attributes != undefined) {
			orig_load(e, "x");
			orig_load(e, "width");
		}
		if (e.childNodes == undefined) return;
		for (var i = 0, c = e.childNodes; i < c.length; i++) {
			zoom_reset(c[i]);
		}
	}
	function zoom_child(e, x, ratio) {
		if (e.attributes != undefined) {
			if (e.attributes.x != undefined) {
				orig_save(e, "x");
				e.attributes.x.value = (parseFloat(e.attributes.x.value) - x - 10) * ratio + 10;
				if (e.tagName == "text")
					e.attributes.x.value = find_child(e.parentNode, "rect[x]").attributes.x.value + 3;
			}
			if (e.attributes.width != undefined) {
				orig_save(e, "width");
				e.attributes.width.value = parseFloat(e.attributes.width.value) * ratio;
			}
		}

		if (e.childNodes == undefined) return;
		for (var i = 0, c = e.childNodes; i < c.length; i++) {
			zoom_child(c[i], x - 10, ratio);
		}
	}
	function zoom_parent(e) {
		if (e.attributes) {
			if (e.attributes.x != undefined) {
				orig_save(e, "x");
				e.attributes.x.value = 10;
			}
			if (e.attributes.width != undefined) {
				orig_save(e, "width");
				e.attributes.width.value = parseInt(svg.width.baseVal.value) - (10 * 2);
			}
		}
		if (e.childNodes == undefined) return;
		for (var i = 0, c = e.childNodes; i < c.length; i++) {
			zoom_parent(c[i]);
		}
	}
	function zoom(node) {
		var attr = find_child(node, "rect").attributes;
		var width = parseFloat(attr.width.value);
		var xmin = parseFloat(attr.x.value);
		var xmax = parseFloat(xmin + width);
		var ymin = parseFloat(attr.y.value);
		var ratio = (svg.width.baseVal.value - 2 * 10) / width;

		// XXX: Workaround for JavaScript float issues (fix me)
		var fudge = 0.0001;

		unzoombtn.classList.remove("hide");

		var el = document.getElementById("frames").children;
		for (var i = 0; i < el.length; i++) {
			var e = el[i];
			var a = find_child(e, "rect").attributes;
			var ex = parseFloat(a.x.value);
			var ew = parseFloat(a.width.value);
			var upstack;
			// Is it an ancestor
			if (1 == 0) {
				upstack = parseFloat(a.y.value) > ymin;
			} else {
				upstack = parseFloat(a.y.value) < ymin;
			}
			if (upstack) {
				// Direct ancestor
				if (ex <= xmin && (ex+ew+fudge) >= xmax) {
					e.classList.add("parent");
					zoom_parent(e);
					update_text(e);
				}
				// not in current path
				else
					e.classList.add("hide");
			}
			// Children maybe
			else {
				// no common path
				if (ex < xmin || ex + fudge >= xmax) {
					e.classList.add("hide");
				}
				else {
					zoom_child(e, xmin, ratio);
					update_text(e);
				}
			}
		}
		search();
	}
	function unzoom() {
		unzoombtn.classList.add("hide");
		var el = document.getElementById("frames").children;
		for(var i = 0; i < el.length; i++) {
			el[i].classList.remove("parent");
			el[i].classList.remove("hide");
			zoom_reset(el[i]);
			update_text(el[i]);
		}
		search();
	}
	function clearzoom() {
		unzoom();

		// remove zoom state
		var params = get_params();
		if (params.x) delete params.x;
		if (params.y) delete params.y;
		history.replaceState(null, null, parse_params(params));
	}

	// search
	function toggle_ignorecase() {
		ignorecase = !ignorecase;
		if (ignorecase) {
			ignorecaseBtn.classList.add("show");
		} else {
			ignorecaseBtn.classList.remove("show");
		}
		reset_search();
		search();
	}
	function reset_search() {
		var el = document.querySelectorAll("#frames rect");
		for (var i = 0; i < el.length; i++) {
			orig_load(el[i], "fill")
		}
		var params = get_params();
		delete params.s;
		history.replaceState(null, null, parse_params(params));
	}
	function search_prompt() {
		if (!searching) {
			var term = prompt("Enter a search term (regexp " +
			    "allowed, eg: ^ext4_)"
			    + (ignorecase ? ", ignoring case" : "")
			    + "\nPress Ctrl-i to toggle case sensitivity", "");
			if (term != null) search(term);
		} else {
			reset_search();
			searching = 0;
			currentSearchTerm = null;
			searchbtn.classList.remove("show");
			searchbtn.firstChild.nodeValue = "Search"
			matchedtxt.classList.add("hide");
			matchedtxt.firstChild.nodeValue = ""
		}
	}
	function search(term) {
		if (term) currentSearchTerm = term;

		var re = new RegExp(currentSearchTerm, ignorecase ? 'i' : '');
		var el = document.getElementById("frames").children;
		var matches = new Object();
		var maxwidth = 0;
		for (var i = 0; i < el.length; i++) {
			var e = el[i];
			var func = g_to_func(e);
			var rect = find_child(e, "rect");
			if (func == null || rect == null)
				continue;

			// Save max width. Only works as we have a root frame
			var w = parseFloat(rect.attributes.width.value);
			if (w > maxwidth)
				maxwidth = w;

			if (func.match(re)) {
				// highlight
				var x = parseFloat(rect.attributes.x.value);
				orig_save(rect, "fill");
				rect.attributes.fill.value = "rgb(230,0,230)";

				// remember matches
				if (matches[x] == undefined) {
					matches[x] = w;
				} else {
					if (w > matches[x]) {
						// overwrite with parent
						matches[x] = w;
					}
				}
				searching = 1;
			}
		}
		if (!searching)
			return;
		var params = get_params();
		params.s = currentSearchTerm;
		history.replaceState(null, null, parse_params(params));

		searchbtn.classList.add("show");
		searchbtn.firstChild.nodeValue = "Reset Search";

		// calculate percent matched, excluding vertical overlap
		var count = 0;
		var lastx = -1;
		var lastw = 0;
		var keys = Array();
		for (k in matches) {
			if (matches.hasOwnProperty(k))
				keys.push(k);
		}
		// sort the matched frames by their x location
		// ascending, then width descending
		keys.sort(function(a, b){
			return a - b;
		});
		// Step through frames saving only the biggest bottom-up frames
		// thanks to the sort order. This relies on the tree property
		// where children are always smaller than their parents.
		var fudge = 0.0001;	// JavaScript floating point
		for (var k in keys) {
			var x = parseFloat(keys[k]);
			var w = matches[keys[k]];
			if (x >= lastx + lastw - fudge) {
				count += w;
				lastx = x;
				lastw = w;
			}
		}
		// display matched percent
		matchedtxt.classList.remove("hide");
		var pct = 100 * count / maxwidth;
		if (pct != 100) pct = pct.toFixed(1)
		matchedtxt.firstChild.nodeValue = "Matched: " + pct + "%";
	}
]]>
</script>
<rect x="0.0" y="0" width="1200.0" height="267.0" fill="url(#background)"  />
<text id="title" x="600.00" y="26" >Firedrake example</text>
<text id="details" x="10.00" y="249" > </text>
<text id="unzoom" x="10.00" y="26" class="hide">Reset Zoom</text>
<text id="search" x="1090.00" y="26" >Search</text>
<text id="ignorecase" x="1174.00" y="26" >ic</text>
<text id="matched" x="1090.00" y="249" > </text>
<g id="frames">
<g >
<title>Log_Event_subkernel5_interior_facet_vert_to__exterior_facet_vert_integral_otherwise (742,315 us, 0.31%)</title><rect x="513.6" y="199" width="3.7" height="15.0" fill="rgb(0,0,0)" rx="2" ry="2" />
<text  x="516.63" y="209.5" ></text>
</g>
<g >
<title>firedrake.functionspacedata.get_shared_data (25,605 us, 0.01%)</title><rect x="19.0" y="103" width="0.2" height="15.0" fill="rgb(0,0,0)" rx="2" ry="2" />
<text  x="22.05" y="113.5" ></text>
</g>
<g >
<title>pyop2.global_kernel.GlobalKernel.compile (4,209,655 us, 1.77%)</title><rect x="1145.3" y="151" width="20.9" height="15.0" fill="rgb(0,0,0)" rx="2" ry="2" />
<text  x="1148.31" y="161.5" ></text>
</g>
<g >
<title>ParLoopExecute (886,875 us, 0.37%)</title><rect x="14.7" y="103" width="4.3" height="15.0" fill="rgb(0,0,0)" rx="2" ry="2" />
<text  x="17.66" y="113.5" ></text>
</g>
<g >
<title>firedrake (238,361,945 us, 100.00%)</title><rect x="10.0" y="55" width="1180.0" height="15.0" fill="rgb(0,0,0)" rx="2" ry="2" />
<text  x="13.00" y="65.5" >firedrake</text>
</g>
<g >
<title>firedrake.variational_solver.NonlinearVariationalSolver.solve (234,974,872 us, 98.58%)</title><rect x="26.8" y="71" width="1163.2" height="15.0" fill="rgb(0,0,0)" rx="2" ry="2" />
<text  x="29.77" y="81.5" >firedrake.variational_solver.NonlinearVariationalSolver.solve</text>
</g>
<g >
<title>Log_Event_inits_wrap_slate_loopy_knl_7 (60,117 us, 0.03%)</title><rect x="203.1" y="199" width="0.3" height="15.0" fill="rgb(0,0,0)" rx="2" ry="2" />
<text  x="206.11" y="209.5" ></text>
</g>
<g >
<title>pyop2.global_kernel.GlobalKernel.compile (890,241 us, 0.37%)</title><rect x="32.9" y="215" width="4.4" height="15.0" fill="rgb(0,0,0)" rx="2" ry="2" />
<text  x="35.87" y="225.5" ></text>
</g>
<g >
<title>Log_Event_slate_loopy_knl_0 (21,628,661 us, 9.07%)</title><rect x="741.5" y="183" width="107.1" height="15.0" fill="rgb(0,0,0)" rx="2" ry="2" />
<text  x="744.54" y="193.5" >Log_Event_s..</text>
</g>
<g >
<title>RecoverFirstElim (56,335,028 us, 23.63%)</title><rect x="194.1" y="151" width="278.9" height="15.0" fill="rgb(0,0,0)" rx="2" ry="2" />
<text  x="197.13" y="161.5" >RecoverFirstElim</text>
</g>
<g >
<title>ParLoopExecute (907,043 us, 0.38%)</title><rect x="489.2" y="183" width="4.5" height="15.0" fill="rgb(0,0,0)" rx="2" ry="2" />
<text  x="492.18" y="193.5" ></text>
</g>
<g >
<title>Log_Event_subkernel13_interior_facet_horiz_bottom_to__exterior_facet_bottom_integral_otherwise (51,646 us, 0.02%)</title><rect x="274.1" y="199" width="0.2" height="15.0" fill="rgb(0,0,0)" rx="2" ry="2" />
<text  x="277.06" y="209.5" ></text>
</g>
<g >
<title>firedrake.tsfc_interface.compile_form (4,805,427 us, 2.02%)</title><rect x="449.2" y="167" width="23.8" height="15.0" fill="rgb(0,0,0)" rx="2" ry="2" />
<text  x="452.23" y="177.5" >f..</text>
</g>
<g >
<title>ParLoopExecute (49,764,328 us, 20.88%)</title><rect x="202.9" y="167" width="246.3" height="15.0" fill="rgb(0,0,0)" rx="2" ry="2" />
<text  x="205.87" y="177.5" >ParLoopExecute</text>
</g>
<g >
<title>pyop2.global_kernel.GlobalKernel.compile (34,310,293 us, 14.39%)</title><rect x="279.4" y="199" width="169.8" height="15.0" fill="rgb(0,0,0)" rx="2" ry="2" />
<text  x="282.37" y="209.5" >pyop2.global_kernel...</text>
</g>
<g >
<title>firedrake.parloops.par_loop (907,043 us, 0.38%)</title><rect x="489.2" y="167" width="4.5" height="15.0" fill="rgb(0,0,0)" rx="2" ry="2" />
<text  x="492.18" y="177.5" ></text>
</g>
<g >
<title>Log_Event_subkernel1_interior_facet_horiz_bottom_to__exterior_facet_bottom_integral_otherwise (45,385 us, 0.02%)</title><rect x="848.6" y="183" width="0.2" height="15.0" fill="rgb(0,0,0)" rx="2" ry="2" />
<text  x="851.61" y="193.5" ></text>
</g>
<g >
<title>Log_Event_subkernel1_interior_facet_horiz_top_to__exterior_facet_top_integral_otherwise (47,131 us, 0.02%)</title><rect x="848.8" y="183" width="0.3" height="15.0" fill="rgb(0,0,0)" rx="2" ry="2" />
<text  x="851.84" y="193.5" ></text>
</g>
<g >
<title>inv_getri (12,281,909 us, 5.15%)</title><rect x="787.2" y="199" width="60.8" height="15.0" fill="rgb(0,0,0)" rx="2" ry="2" />
<text  x="790.19" y="209.5" >inv_g..</text>
</g>
<g >
<title>firedrake.functionspacedata.FunctionSpaceData.__init__ (25,605 us, 0.01%)</title><rect x="19.0" y="119" width="0.2" height="15.0" fill="rgb(0,0,0)" rx="2" ry="2" />
<text  x="22.05" y="129.5" ></text>
</g>
<g >
<title>pyop2.global_kernel.GlobalKernel.compile (907,043 us, 0.38%)</title><rect x="489.2" y="215" width="4.5" height="15.0" fill="rgb(0,0,0)" rx="2" ry="2" />
<text  x="492.18" y="225.5" ></text>
</g>
<g >
<title>firedrake.tsfc_interface.compile_form (3,265,564 us, 1.37%)</title><rect x="473.0" y="151" width="16.2" height="15.0" fill="rgb(0,0,0)" rx="2" ry="2" />
<text  x="476.01" y="161.5" ></text>
</g>
<g >
<title>solve_memcpy (156,512 us, 0.07%)</title><rect x="270.1" y="215" width="0.7" height="15.0" fill="rgb(0,0,0)" rx="2" ry="2" />
<text  x="273.06" y="225.5" ></text>
</g>
<g >
<title>solve_getrf (2,488,999 us, 1.04%)</title><rect x="257.4" y="215" width="12.3" height="15.0" fill="rgb(0,0,0)" rx="2" ry="2" />
<text  x="260.39" y="225.5" ></text>
</g>
<g >
<title>SCForwardElim (47,620,534 us, 19.98%)</title><rect x="489.2" y="135" width="235.7" height="15.0" fill="rgb(0,0,0)" rx="2" ry="2" />
<text  x="492.18" y="145.5" >SCForwardElim</text>
</g>
<g >
<title>Log_Event_slate_loopy_knl_14 (1,343,956 us, 0.56%)</title><rect x="37.8" y="183" width="6.6" height="15.0" fill="rgb(0,0,0)" rx="2" ry="2" />
<text  x="40.75" y="193.5" ></text>
</g>
<g >
<title>Log_Event_slate_loopy_knl_4 (2,629,264 us, 1.10%)</title><rect x="500.2" y="199" width="13.0" height="15.0" fill="rgb(0,0,0)" rx="2" ry="2" />
<text  x="503.16" y="209.5" ></text>
</g>
<g >
<title>Log_Event_subkernel5_interior_facet_horiz_bottom_to__exterior_facet_bottom_integral_otherwise (47,202 us, 0.02%)</title><rect x="513.2" y="199" width="0.2" height="15.0" fill="rgb(0,0,0)" rx="2" ry="2" />
<text  x="516.17" y="209.5" ></text>
</g>
<g >
<title>Log_Event_inits_wrap_slate_loopy_knl_0 (72,020 us, 0.03%)</title><rect x="741.2" y="183" width="0.3" height="15.0" fill="rgb(0,0,0)" rx="2" ry="2" />
<text  x="744.19" y="193.5" ></text>
</g>
<g >
<title>solve_memcpy (124,331 us, 0.05%)</title><rect x="512.6" y="215" width="0.6" height="15.0" fill="rgb(0,0,0)" rx="2" ry="2" />
<text  x="515.56" y="225.5" ></text>
</g>
<g >
<title>pyop2.global_kernel.GlobalKernel.compile (48,558,452 us, 20.37%)</title><rect x="867.2" y="183" width="240.4" height="15.0" fill="rgb(0,0,0)" rx="2" ry="2" />
<text  x="870.19" y="193.5" >pyop2.global_kernel.GlobalKer..</text>
</g>
<g >
<title>Parloop_Cells_wrap_wrap_slate_loopy_knl_0 (74,335,206 us, 31.19%)</title><rect x="739.6" y="167" width="368.0" height="15.0" fill="rgb(0,0,0)" rx="2" ry="2" />
<text  x="742.58" y="177.5" >Parloop_Cells_wrap_wrap_slate_loopy_knl_0</text>
</g>
<g >
<title>solve_getrf (2,454,190 us, 1.03%)</title><rect x="500.2" y="215" width="12.1" height="15.0" fill="rgb(0,0,0)" rx="2" ry="2" />
<text  x="503.16" y="225.5" ></text>
</g>
<g >
<title>inv_memcpy (74,167 us, 0.03%)</title><rect x="257.0" y="215" width="0.4" height="15.0" fill="rgb(0,0,0)" rx="2" ry="2" />
<text  x="260.03" y="225.5" ></text>
</g>
<g >
<title>CreateExtMesh (918,867 us, 0.39%)</title><rect x="14.5" y="71" width="4.5" height="15.0" fill="rgb(0,0,0)" rx="2" ry="2" />
<text  x="17.50" y="81.5" ></text>
</g>
<g >
<title>Log_Event_subkernel13_interior_facet_horiz_top_to__exterior_facet_top_integral_otherwise (52,044 us, 0.02%)</title><rect x="274.3" y="199" width="0.3" height="15.0" fill="rgb(0,0,0)" rx="2" ry="2" />
<text  x="277.32" y="209.5" ></text>
</g>
<g >
<title>Log_Event_subkernel1_interior_facet_vert_to__exterior_facet_vert_integral_otherwise (789,843 us, 0.33%)</title><rect x="849.1" y="183" width="3.9" height="15.0" fill="rgb(0,0,0)" rx="2" ry="2" />
<text  x="852.07" y="193.5" ></text>
</g>
<g >
<title>firedrake.tsfc_interface.compile_form (3,257,892 us, 1.37%)</title><rect x="708.8" y="167" width="16.1" height="15.0" fill="rgb(0,0,0)" rx="2" ry="2" />
<text  x="711.80" y="177.5" ></text>
</g>
<g >
<title>SCSolve (971,887 us, 0.41%)</title><rect x="724.9" y="135" width="4.8" height="15.0" fill="rgb(0,0,0)" rx="2" ry="2" />
<text  x="727.92" y="145.5" ></text>
</g>
<g >
<title>Log_Event_subkernel3_interior_facet_horiz_top_to__exterior_facet_top_integral_otherwise (46,983 us, 0.02%)</title><rect x="864.1" y="183" width="0.2" height="15.0" fill="rgb(0,0,0)" rx="2" ry="2" />
<text  x="867.09" y="193.5" ></text>
</g>
<g >
<title>Log_Event_inits_wrap_slate_loopy_knl_14 (46,355 us, 0.02%)</title><rect x="37.5" y="183" width="0.3" height="15.0" fill="rgb(0,0,0)" rx="2" ry="2" />
<text  x="40.52" y="193.5" ></text>
</g>
<g >
<title>SCBackSub (93,408,099 us, 39.19%)</title><rect x="26.8" y="135" width="462.4" height="15.0" fill="rgb(0,0,0)" rx="2" ry="2" />
<text  x="29.77" y="145.5" >SCBackSub</text>
</g>
<g >
<title>Log_Event_subkernel3_interior_facet_horiz_bottom_to__exterior_facet_bottom_integral_otherwise (45,946 us, 0.02%)</title><rect x="863.9" y="183" width="0.2" height="15.0" fill="rgb(0,0,0)" rx="2" ry="2" />
<text  x="866.86" y="193.5" ></text>
</g>
<g >
<title>HybridRHS (46,713,491 us, 19.60%)</title><rect x="493.7" y="151" width="231.2" height="15.0" fill="rgb(0,0,0)" rx="2" ry="2" />
<text  x="496.67" y="161.5" >HybridRHS</text>
</g>
<g >
<title>pyop2.global_kernel.GlobalKernel.compile (36,476,945 us, 15.30%)</title><rect x="528.2" y="199" width="180.6" height="15.0" fill="rgb(0,0,0)" rx="2" ry="2" />
<text  x="531.22" y="209.5" >pyop2.global_kernel.G..</text>
</g>
<g >
<title>Log_Event_subkernel6_cell_to__cell_integral_otherwise (2,203,521 us, 0.92%)</title><rect x="517.3" y="199" width="10.9" height="15.0" fill="rgb(0,0,0)" rx="2" ry="2" />
<text  x="520.31" y="209.5" ></text>
</g>
<g >
<title>inv_memcpy (125,721 us, 0.05%)</title><rect x="848.0" y="199" width="0.6" height="15.0" fill="rgb(0,0,0)" rx="2" ry="2" />
<text  x="850.99" y="209.5" ></text>
</g>
<g >
<title>ParLoopExecute (31,683,696 us, 13.29%)</title><rect x="37.3" y="151" width="156.8" height="15.0" fill="rgb(0,0,0)" rx="2" ry="2" />
<text  x="40.28" y="161.5" >ParLoopExecute</text>
</g>
<g >
<title>Parloop_Cells_wrap_form0_cell_integral_otherwise (4,209,655 us, 1.77%)</title><rect x="1145.3" y="135" width="20.9" height="15.0" fill="rgb(0,0,0)" rx="2" ry="2" />
<text  x="1148.31" y="145.5" ></text>
</g>
<g >
<title>ParLoopExecute (696,555 us, 0.29%)</title><rect x="1141.9" y="151" width="3.4" height="15.0" fill="rgb(0,0,0)" rx="2" ry="2" />
<text  x="1144.86" y="161.5" ></text>
</g>
<g >
<title>inv_getrf (2,459,535 us, 1.03%)</title><rect x="775.0" y="199" width="12.2" height="15.0" fill="rgb(0,0,0)" rx="2" ry="2" />
<text  x="778.01" y="209.5" ></text>
</g>
<g >
<title>Log_Event_subkernel2_cell_to__cell_integral_otherwise (2,197,493 us, 0.92%)</title><rect x="853.0" y="183" width="10.9" height="15.0" fill="rgb(0,0,0)" rx="2" ry="2" />
<text  x="855.98" y="193.5" ></text>
</g>
<g >
<title>Parloop_Cells_wrap_form1_cell_integral_otherwise (3,574,351 us, 1.50%)</title><rect x="1166.2" y="135" width="17.6" height="15.0" fill="rgb(0,0,0)" rx="2" ry="2" />
<text  x="1169.15" y="145.5" ></text>
</g>
<g >
<title>PCApply (142,000,520 us, 59.57%)</title><rect x="26.8" y="119" width="702.9" height="15.0" fill="rgb(0,0,0)" rx="2" ry="2" />
<text  x="29.77" y="129.5" >PCApply</text>
</g>
<g >
<title>Log_Event_slate_loopy_knl_7 (13,619,928 us, 5.71%)</title><rect x="203.4" y="199" width="67.4" height="15.0" fill="rgb(0,0,0)" rx="2" ry="2" />
<text  x="206.41" y="209.5" >Log_Ev..</text>
</g>
<g >
<title>Log_Event_subkernel5_interior_facet_horiz_top_to__exterior_facet_top_integral_otherwise (46,337 us, 0.02%)</title><rect x="513.4" y="199" width="0.2" height="15.0" fill="rgb(0,0,0)" rx="2" ry="2" />
<text  x="516.41" y="209.5" ></text>
</g>
<g >
<title>PCSetUp (83,947,398 us, 35.22%)</title><rect x="729.7" y="103" width="415.6" height="15.0" fill="rgb(0,0,0)" rx="2" ry="2" />
<text  x="732.73" y="113.5" >PCSetUp</text>
</g>
<g >
<title>CreateSparsity (1,045,746 us, 0.44%)</title><rect x="1134.4" y="151" width="5.2" height="15.0" fill="rgb(0,0,0)" rx="2" ry="2" />
<text  x="1137.39" y="161.5" ></text>
</g>
<g >
<title>firedrake.__init__ (1,533,753 us, 0.64%)</title><rect x="19.2" y="71" width="7.6" height="15.0" fill="rgb(0,0,0)" rx="2" ry="2" />
<text  x="22.17" y="81.5" ></text>
</g>
<g >
<title>HybridProject (890,241 us, 0.37%)</title><rect x="32.9" y="151" width="4.4" height="15.0" fill="rgb(0,0,0)" rx="2" ry="2" />
<text  x="35.87" y="161.5" ></text>
</g>
<g >
<title>Parloop_Cells_wrap_par_loop_kernel (890,241 us, 0.37%)</title><rect x="32.9" y="199" width="4.4" height="15.0" fill="rgb(0,0,0)" rx="2" ry="2" />
<text  x="35.87" y="209.5" ></text>
</g>
<g >
<title>inv_getri (5,857,580 us, 2.46%)</title><rect x="228.0" y="215" width="29.0" height="15.0" fill="rgb(0,0,0)" rx="2" ry="2" />
<text  x="231.03" y="225.5" >i..</text>
</g>
<g >
<title>Log_Event_subkernel3_interior_facet_vert_to__exterior_facet_vert_integral_otherwise (579,429 us, 0.24%)</title><rect x="864.3" y="183" width="2.9" height="15.0" fill="rgb(0,0,0)" rx="2" ry="2" />
<text  x="867.32" y="193.5" ></text>
</g>
<g >
<title>SNESSolve (234,974,872 us, 98.58%)</title><rect x="26.8" y="87" width="1163.2" height="15.0" fill="rgb(0,0,0)" rx="2" ry="2" />
<text  x="29.77" y="97.5" >SNESSolve</text>
</g>
<g >
<title>Log_Event_subkernel9_cell_to__cell_integral_otherwise (205,671 us, 0.09%)</title><rect x="278.4" y="199" width="1.0" height="15.0" fill="rgb(0,0,0)" rx="2" ry="2" />
<text  x="281.36" y="209.5" ></text>
</g>
<g >
<title>Parloop_Cells_wrap_pyop2_kernel_uniform_extrusion (886,875 us, 0.37%)</title><rect x="14.7" y="119" width="4.3" height="15.0" fill="rgb(0,0,0)" rx="2" ry="2" />
<text  x="17.66" y="129.5" ></text>
</g>
<g >
<title>Log_Event_subkernel17_interior_facet_horiz_top_to__exterior_facet_top_integral_otherwise (51,043 us, 0.02%)</title><rect x="47.9" y="183" width="0.2" height="15.0" fill="rgb(0,0,0)" rx="2" ry="2" />
<text  x="50.89" y="193.5" ></text>
</g>
<g >
<title>CreateFunctionSpace (25,605 us, 0.01%)</title><rect x="19.0" y="71" width="0.2" height="15.0" fill="rgb(0,0,0)" rx="2" ry="2" />
<text  x="22.05" y="81.5" ></text>
</g>
<g >
<title>ParLoopExecute (74,335,206 us, 31.19%)</title><rect x="739.6" y="151" width="368.0" height="15.0" fill="rgb(0,0,0)" rx="2" ry="2" />
<text  x="742.58" y="161.5" >ParLoopExecute</text>
</g>
<g >
<title>pyop2.global_kernel.GlobalKernel.compile (3,574,351 us, 1.50%)</title><rect x="1166.2" y="151" width="17.6" height="15.0" fill="rgb(0,0,0)" rx="2" ry="2" />
<text  x="1169.15" y="161.5" ></text>
</g>
<g >
<title>firedrake.assemble.allocate_matrix (1,447,010 us, 0.61%)</title><rect x="1134.4" y="135" width="7.2" height="15.0" fill="rgb(0,0,0)" rx="2" ry="2" />
<text  x="1137.39" y="145.5" ></text>
</g>
<g >
<title>ParLoopExecute (890,241 us, 0.37%)</title><rect x="32.9" y="183" width="4.4" height="15.0" fill="rgb(0,0,0)" rx="2" ry="2" />
<text  x="35.87" y="193.5" ></text>
</g>
<g >
<title>firedrake.tsfc_interface.compile_form (5,416,362 us, 2.27%)</title><rect x="1107.6" y="151" width="26.8" height="15.0" fill="rgb(0,0,0)" rx="2" ry="2" />
<text  x="1110.57" y="161.5" >f..</text>
</g>
<g >
<title>HybridInit (83,947,398 us, 35.22%)</title><rect x="729.7" y="119" width="415.6" height="15.0" fill="rgb(0,0,0)" rx="2" ry="2" />
<text  x="732.73" y="129.5" >HybridInit</text>
</g>
<g >
<title>all (238,361,945 us, 100%)</title><rect x="10.0" y="39" width="1180.0" height="15.0" fill="rgb(0,0,0)" rx="2" ry="2" />
<text  x="13.00" y="49.5" ></text>
</g>
<g >
<title>Log_Event_subkernel10_cell_to__cell_integral_otherwise (460,851 us, 0.19%)</title><rect x="270.8" y="199" width="2.3" height="15.0" fill="rgb(0,0,0)" rx="2" ry="2" />
<text  x="273.84" y="209.5" ></text>
</g>
<g >
<title>pyop2.global_kernel.GlobalKernel.compile (28,727,660 us, 12.05%)</title><rect x="51.9" y="183" width="142.2" height="15.0" fill="rgb(0,0,0)" rx="2" ry="2" />
<text  x="54.92" y="193.5" >pyop2.global_ker..</text>
</g>
<g >
<title>firedrake.parloops.par_loop (696,555 us, 0.29%)</title><rect x="1141.9" y="135" width="3.4" height="15.0" fill="rgb(0,0,0)" rx="2" ry="2" />
<text  x="1144.86" y="145.5" ></text>
</g>
<g >
<title>firedrake.functionspaceimpl.FunctionSpace.__init__ (25,605 us, 0.01%)</title><rect x="19.0" y="87" width="0.2" height="15.0" fill="rgb(0,0,0)" rx="2" ry="2" />
<text  x="22.05" y="97.5" ></text>
</g>
<g >
<title>solve_getrs (70,365 us, 0.03%)</title><rect x="269.7" y="215" width="0.4" height="15.0" fill="rgb(0,0,0)" rx="2" ry="2" />
<text  x="272.71" y="225.5" ></text>
</g>
<g >
<title>Parloop_Cells_wrap_wrap_slate_loopy_knl_14 (31,683,696 us, 13.29%)</title><rect x="37.3" y="167" width="156.8" height="15.0" fill="rgb(0,0,0)" rx="2" ry="2" />
<text  x="40.28" y="177.5" >Parloop_Cells_wrap..</text>
</g>
<g >
<title>KSPSolve (971,887 us, 0.41%)</title><rect x="724.9" y="151" width="4.8" height="15.0" fill="rgb(0,0,0)" rx="2" ry="2" />
<text  x="727.92" y="161.5" ></text>
</g>
<g >
<title>firedrake.interpolation.make_interpolator (63,109 us, 0.03%)</title><rect x="1141.6" y="135" width="0.3" height="15.0" fill="rgb(0,0,0)" rx="2" ry="2" />
<text  x="1144.55" y="145.5" ></text>
</g>
<g >
<title>Parloop_Cells_wrap_wrap_slate_loopy_knl_4 (42,254,319 us, 17.73%)</title><rect x="499.6" y="183" width="209.2" height="15.0" fill="rgb(0,0,0)" rx="2" ry="2" />
<text  x="502.62" y="193.5" >Parloop_Cells_wrap_wrap_s..</text>
</g>
<g >
<title>Log_Event_subkernel17_interior_facet_vert_to__exterior_facet_vert_integral_otherwise (762,762 us, 0.32%)</title><rect x="48.1" y="183" width="3.8" height="15.0" fill="rgb(0,0,0)" rx="2" ry="2" />
<text  x="51.14" y="193.5" ></text>
</g>
<g >
<title>pyop2.global_kernel.GlobalKernel.compile (696,555 us, 0.29%)</title><rect x="1141.9" y="183" width="3.4" height="15.0" fill="rgb(0,0,0)" rx="2" ry="2" />
<text  x="1144.86" y="193.5" ></text>
</g>
<g >
<title>Log_Event_subkernel16_cell_to__cell_integral_otherwise (189,232 us, 0.08%)</title><rect x="46.7" y="183" width="0.9" height="15.0" fill="rgb(0,0,0)" rx="2" ry="2" />
<text  x="49.69" y="193.5" ></text>
</g>
<g >
<title>Log_Event_inits_wrap_slate_loopy_knl_4 (59,853 us, 0.03%)</title><rect x="499.9" y="199" width="0.3" height="15.0" fill="rgb(0,0,0)" rx="2" ry="2" />
<text  x="502.86" y="209.5" ></text>
</g>
<g >
<title>MatMult (943,345 us, 0.40%)</title><rect x="725.1" y="167" width="4.6" height="15.0" fill="rgb(0,0,0)" rx="2" ry="2" />
<text  x="728.06" y="177.5" ></text>
</g>
<g >
<title>firedrake.tsfc_interface.compile_form (1,242,948 us, 0.52%)</title><rect x="1183.8" y="119" width="6.2" height="15.0" fill="rgb(0,0,0)" rx="2" ry="2" />
<text  x="1186.85" y="129.5" ></text>
</g>
<g >
<title>solve_getrs (50,743 us, 0.02%)</title><rect x="512.3" y="215" width="0.3" height="15.0" fill="rgb(0,0,0)" rx="2" ry="2" />
<text  x="515.30" y="225.5" ></text>
</g>
<g >
<title>solve_memcpy (74,861 us, 0.03%)</title><rect x="44.0" y="199" width="0.4" height="15.0" fill="rgb(0,0,0)" rx="2" ry="2" />
<text  x="47.03" y="209.5" ></text>
</g>
<g >
<title>HybridOperatorAssembly (81,687,493 us, 34.27%)</title><rect x="730.0" y="135" width="404.4" height="15.0" fill="rgb(0,0,0)" rx="2" ry="2" />
<text  x="733.00" y="145.5" >HybridOperatorAssembly</text>
</g>
<g >
<title>Log_Event_subkernel15_cell_to__cell_integral_otherwise (462,358 us, 0.19%)</title><rect x="44.4" y="183" width="2.3" height="15.0" fill="rgb(0,0,0)" rx="2" ry="2" />
<text  x="47.40" y="193.5" ></text>
</g>
<g >
<title>KSPSolve (142,000,520 us, 59.57%)</title><rect x="26.8" y="103" width="702.9" height="15.0" fill="rgb(0,0,0)" rx="2" ry="2" />
<text  x="29.77" y="113.5" >KSPSolve</text>
</g>
<g >
<title>solve_getrf (1,209,346 us, 0.51%)</title><rect x="37.9" y="199" width="6.0" height="15.0" fill="rgb(0,0,0)" rx="2" ry="2" />
<text  x="40.89" y="209.5" ></text>
</g>
<g >
<title>ParLoopExecute (7,784,006 us, 3.27%)</title><rect x="1145.3" y="119" width="38.5" height="15.0" fill="rgb(0,0,0)" rx="2" ry="2" />
<text  x="1148.31" y="129.5" >Par..</text>
</g>
<g >
<title>pyop2.global_kernel.GlobalKernel.compile (886,875 us, 0.37%)</title><rect x="14.7" y="135" width="4.3" height="15.0" fill="rgb(0,0,0)" rx="2" ry="2" />
<text  x="17.66" y="145.5" ></text>
</g>
<g >
<title>Parloop_Cells_wrap_par_loop_kernel (696,555 us, 0.29%)</title><rect x="1141.9" y="167" width="3.4" height="15.0" fill="rgb(0,0,0)" rx="2" ry="2" />
<text  x="1144.86" y="177.5" ></text>
</g>
<g >
<title>SNESFunctionEval (9,026,954 us, 3.79%)</title><rect x="1145.3" y="103" width="44.7" height="15.0" fill="rgb(0,0,0)" rx="2" ry="2" />
<text  x="1148.31" y="113.5" >SNE..</text>
</g>
<g >
<title>firedrake.parloops.par_loop (890,241 us, 0.37%)</title><rect x="32.9" y="167" width="4.4" height="15.0" fill="rgb(0,0,0)" rx="2" ry="2" />
<text  x="35.87" y="177.5" ></text>
</g>
<g >
<title>Log_Event_subkernel17_interior_facet_horiz_bottom_to__exterior_facet_bottom_integral_otherwise (51,664 us, 0.02%)</title><rect x="47.6" y="183" width="0.3" height="15.0" fill="rgb(0,0,0)" rx="2" ry="2" />
<text  x="50.63" y="193.5" ></text>
</g>
<g >
<title>Log_Event_subkernel13_interior_facet_vert_to__exterior_facet_vert_integral_otherwise (763,892 us, 0.32%)</title><rect x="274.6" y="199" width="3.8" height="15.0" fill="rgb(0,0,0)" rx="2" ry="2" />
<text  x="277.57" y="209.5" ></text>
</g>
<g >
<title>firedrake.extrusion_utils.make_extruded_coords (918,867 us, 0.39%)</title><rect x="14.5" y="87" width="4.5" height="15.0" fill="rgb(0,0,0)" rx="2" ry="2" />
<text  x="17.50" y="97.5" ></text>
</g>
<g >
<title>ParLoopExecute (42,254,319 us, 17.73%)</title><rect x="499.6" y="167" width="209.2" height="15.0" fill="rgb(0,0,0)" rx="2" ry="2" />
<text  x="502.62" y="177.5" >ParLoopExecute</text>
</g>
<g >
<title>Parloop_Cells_wrap_wrap_slate_loopy_knl_7 (49,764,328 us, 20.88%)</title><rect x="202.9" y="183" width="246.3" height="15.0" fill="rgb(0,0,0)" rx="2" ry="2" />
<text  x="205.87" y="193.5" >Parloop_Cells_wrap_wrap_slate_..</text>
</g>
<g >
<title>MatZeroInitial (401,264 us, 0.17%)</title><rect x="1139.6" y="151" width="2.0" height="15.0" fill="rgb(0,0,0)" rx="2" ry="2" />
<text  x="1142.57" y="161.5" ></text>
</g>
<g >
<title>Log_Event_subkernel11_cell_to__cell_integral_otherwise (190,276 us, 0.08%)</title><rect x="273.1" y="199" width="1.0" height="15.0" fill="rgb(0,0,0)" rx="2" ry="2" />
<text  x="276.12" y="209.5" ></text>
</g>
<g >
<title>inv_getrf (1,212,550 us, 0.51%)</title><rect x="222.0" y="215" width="6.0" height="15.0" fill="rgb(0,0,0)" rx="2" ry="2" />
<text  x="225.02" y="225.5" ></text>
</g>
<g >
<title>HybridBreak (907,043 us, 0.38%)</title><rect x="489.2" y="151" width="4.5" height="15.0" fill="rgb(0,0,0)" rx="2" ry="2" />
<text  x="492.18" y="161.5" ></text>
</g>
<g >
<title>Parloop_Cells_wrap_par_loop_kernel (907,043 us, 0.38%)</title><rect x="489.2" y="199" width="4.5" height="15.0" fill="rgb(0,0,0)" rx="2" ry="2" />
<text  x="492.18" y="209.5" ></text>
</g>
<g >
<title>solve_getrs (32,731 us, 0.01%)</title><rect x="43.9" y="199" width="0.1" height="15.0" fill="rgb(0,0,0)" rx="2" ry="2" />
<text  x="46.87" y="209.5" ></text>
</g>
</g>
</svg>
