<?xml version="1.0" standalone="no"?>
<!DOCTYPE svg PUBLIC "-//W3C//DTD SVG 1.1//EN" "http://www.w3.org/Graphics/SVG/1.1/DTD/svg11.dtd">
<svg version="1.1" width="1200" height="363" onload="init(evt)" viewBox="0 0 1200 363" xmlns="http://www.w3.org/2000/svg" xmlns:xlink="http://www.w3.org/1999/xlink">
<!-- Flame graph stack visualization. See https://github.com/brendangregg/FlameGraph for latest version, and http://www.brendangregg.com/flamegraphs.html for examples. -->
<!-- NOTES:  -->
<defs>
	<linearGradient id="background" y1="0" y2="1" x1="0" x2="0" >
		<stop stop-color="#eeeeee" offset="5%" />
		<stop stop-color="#eeeeb0" offset="95%" />
	</linearGradient>
</defs>
<style type="text/css">
	text { font-family:Verdana; font-size:13px; fill:rgb(0,0,0); }
	#search, #ignorecase { opacity:0.1; cursor:pointer; }
	#search:hover, #search.show, #ignorecase:hover, #ignorecase.show { opacity:1; }
	#subtitle { text-anchor:middle; font-color:rgb(160,160,160); }
	#title { text-anchor:middle; font-size:18px}
	#unzoom { cursor:pointer; }
	#frames > *:hover { stroke:black; stroke-width:0.5; cursor:pointer; }
	.hide { display:none; }
	.parent { opacity:0.5; }
</style>
<script type="text/ecmascript">
<![CDATA[
	"use strict";
	var details, searchbtn, unzoombtn, matchedtxt, svg, searching, currentSearchTerm, ignorecase, ignorecaseBtn;
	function init(evt) {
		details = document.getElementById("details").firstChild;
		searchbtn = document.getElementById("search");
		ignorecaseBtn = document.getElementById("ignorecase");
		unzoombtn = document.getElementById("unzoom");
		matchedtxt = document.getElementById("matched");
		svg = document.getElementsByTagName("svg")[0];
		searching = 0;
		currentSearchTerm = null;

		// use GET parameters to restore a flamegraphs state.
		var params = get_params();
		if (params.x && params.y)
			zoom(find_group(document.querySelector('[x="' + params.x + '"][y="' + params.y + '"]')));
                if (params.s) search(params.s);
	}

	// event listeners
	window.addEventListener("click", function(e) {
		var target = find_group(e.target);
		if (target) {
			if (target.nodeName == "a") {
				if (e.ctrlKey === false) return;
				e.preventDefault();
			}
			if (target.classList.contains("parent")) unzoom();
			zoom(target);
			if (!document.querySelector('.parent')) {
				clearzoom();
				return;
			}

			// set parameters for zoom state
			var el = target.querySelector("rect");
			if (el && el.attributes && el.attributes.y && el.attributes._orig_x) {
				var params = get_params()
				params.x = el.attributes._orig_x.value;
				params.y = el.attributes.y.value;
				history.replaceState(null, null, parse_params(params));
			}
		}
		else if (e.target.id == "unzoom") clearzoom();
		else if (e.target.id == "search") search_prompt();
		else if (e.target.id == "ignorecase") toggle_ignorecase();
	}, false)

	// mouse-over for info
	// show
	window.addEventListener("mouseover", function(e) {
		var target = find_group(e.target);
		if (target) details.nodeValue = "Function: " + g_to_text(target);
	}, false)

	// clear
	window.addEventListener("mouseout", function(e) {
		var target = find_group(e.target);
		if (target) details.nodeValue = ' ';
	}, false)

	// ctrl-F for search
	// ctrl-I to toggle case-sensitive search
	window.addEventListener("keydown",function (e) {
		if (e.keyCode === 114 || (e.ctrlKey && e.keyCode === 70)) {
			e.preventDefault();
			search_prompt();
		}
		else if (e.ctrlKey && e.keyCode === 73) {
			e.preventDefault();
			toggle_ignorecase();
		}
	}, false)

	// functions
	function get_params() {
		var params = {};
		var paramsarr = window.location.search.substr(1).split('&');
		for (var i = 0; i < paramsarr.length; ++i) {
			var tmp = paramsarr[i].split("=");
			if (!tmp[0] || !tmp[1]) continue;
			params[tmp[0]]  = decodeURIComponent(tmp[1]);
		}
		return params;
	}
	function parse_params(params) {
		var uri = "?";
		for (var key in params) {
			uri += key + '=' + encodeURIComponent(params[key]) + '&';
		}
		if (uri.slice(-1) == "&")
			uri = uri.substring(0, uri.length - 1);
		if (uri == '?')
			uri = window.location.href.split('?')[0];
		return uri;
	}
	function find_child(node, selector) {
		var children = node.querySelectorAll(selector);
		if (children.length) return children[0];
	}
	function find_group(node) {
		var parent = node.parentElement;
		if (!parent) return;
		if (parent.id == "frames") return node;
		return find_group(parent);
	}
	function orig_save(e, attr, val) {
		if (e.attributes["_orig_" + attr] != undefined) return;
		if (e.attributes[attr] == undefined) return;
		if (val == undefined) val = e.attributes[attr].value;
		e.setAttribute("_orig_" + attr, val);
	}
	function orig_load(e, attr) {
		if (e.attributes["_orig_"+attr] == undefined) return;
		e.attributes[attr].value = e.attributes["_orig_" + attr].value;
		e.removeAttribute("_orig_"+attr);
	}
	function g_to_text(e) {
		var text = find_child(e, "title").firstChild.nodeValue;
		return (text)
	}
	function g_to_func(e) {
		var func = g_to_text(e);
		// if there's any manipulation we want to do to the function
		// name before it's searched, do it here before returning.
		return (func);
	}
	function update_text(e) {
		var r = find_child(e, "rect");
		var t = find_child(e, "text");
		var w = parseFloat(r.attributes.width.value) -3;
		var txt = find_child(e, "title").textContent.replace(/\([^(]*\)$/,"");
		t.attributes.x.value = parseFloat(r.attributes.x.value) + 3;

		// Smaller than this size won't fit anything
		if (w < 2 * 13 * 0.59) {
			t.textContent = "";
			return;
		}

		t.textContent = txt;
		// Fit in full text width
		if (/^ *$/.test(txt) || t.getSubStringLength(0, txt.length) < w)
			return;

		for (var x = txt.length - 2; x > 0; x--) {
			if (t.getSubStringLength(0, x + 2) <= w) {
				t.textContent = txt.substring(0, x) + "..";
				return;
			}
		}
		t.textContent = "";
	}

	// zoom
	function zoom_reset(e) {
		if (e.attributes != undefined) {
			orig_load(e, "x");
			orig_load(e, "width");
		}
		if (e.childNodes == undefined) return;
		for (var i = 0, c = e.childNodes; i < c.length; i++) {
			zoom_reset(c[i]);
		}
	}
	function zoom_child(e, x, ratio) {
		if (e.attributes != undefined) {
			if (e.attributes.x != undefined) {
				orig_save(e, "x");
				e.attributes.x.value = (parseFloat(e.attributes.x.value) - x - 10) * ratio + 10;
				if (e.tagName == "text")
					e.attributes.x.value = find_child(e.parentNode, "rect[x]").attributes.x.value + 3;
			}
			if (e.attributes.width != undefined) {
				orig_save(e, "width");
				e.attributes.width.value = parseFloat(e.attributes.width.value) * ratio;
			}
		}

		if (e.childNodes == undefined) return;
		for (var i = 0, c = e.childNodes; i < c.length; i++) {
			zoom_child(c[i], x - 10, ratio);
		}
	}
	function zoom_parent(e) {
		if (e.attributes) {
			if (e.attributes.x != undefined) {
				orig_save(e, "x");
				e.attributes.x.value = 10;
			}
			if (e.attributes.width != undefined) {
				orig_save(e, "width");
				e.attributes.width.value = parseInt(svg.width.baseVal.value) - (10 * 2);
			}
		}
		if (e.childNodes == undefined) return;
		for (var i = 0, c = e.childNodes; i < c.length; i++) {
			zoom_parent(c[i]);
		}
	}
	function zoom(node) {
		var attr = find_child(node, "rect").attributes;
		var width = parseFloat(attr.width.value);
		var xmin = parseFloat(attr.x.value);
		var xmax = parseFloat(xmin + width);
		var ymin = parseFloat(attr.y.value);
		var ratio = (svg.width.baseVal.value - 2 * 10) / width;

		// XXX: Workaround for JavaScript float issues (fix me)
		var fudge = 0.0001;

		unzoombtn.classList.remove("hide");

		var el = document.getElementById("frames").children;
		for (var i = 0; i < el.length; i++) {
			var e = el[i];
			var a = find_child(e, "rect").attributes;
			var ex = parseFloat(a.x.value);
			var ew = parseFloat(a.width.value);
			var upstack;
			// Is it an ancestor
			if (1 == 0) {
				upstack = parseFloat(a.y.value) > ymin;
			} else {
				upstack = parseFloat(a.y.value) < ymin;
			}
			if (upstack) {
				// Direct ancestor
				if (ex <= xmin && (ex+ew+fudge) >= xmax) {
					e.classList.add("parent");
					zoom_parent(e);
					update_text(e);
				}
				// not in current path
				else
					e.classList.add("hide");
			}
			// Children maybe
			else {
				// no common path
				if (ex < xmin || ex + fudge >= xmax) {
					e.classList.add("hide");
				}
				else {
					zoom_child(e, xmin, ratio);
					update_text(e);
				}
			}
		}
		search();
	}
	function unzoom() {
		unzoombtn.classList.add("hide");
		var el = document.getElementById("frames").children;
		for(var i = 0; i < el.length; i++) {
			el[i].classList.remove("parent");
			el[i].classList.remove("hide");
			zoom_reset(el[i]);
			update_text(el[i]);
		}
		search();
	}
	function clearzoom() {
		unzoom();

		// remove zoom state
		var params = get_params();
		if (params.x) delete params.x;
		if (params.y) delete params.y;
		history.replaceState(null, null, parse_params(params));
	}

	// search
	function toggle_ignorecase() {
		ignorecase = !ignorecase;
		if (ignorecase) {
			ignorecaseBtn.classList.add("show");
		} else {
			ignorecaseBtn.classList.remove("show");
		}
		reset_search();
		search();
	}
	function reset_search() {
		var el = document.querySelectorAll("#frames rect");
		for (var i = 0; i < el.length; i++) {
			orig_load(el[i], "fill")
		}
		var params = get_params();
		delete params.s;
		history.replaceState(null, null, parse_params(params));
	}
	function search_prompt() {
		if (!searching) {
			var term = prompt("Enter a search term (regexp " +
			    "allowed, eg: ^ext4_)"
			    + (ignorecase ? ", ignoring case" : "")
			    + "\nPress Ctrl-i to toggle case sensitivity", "");
			if (term != null) search(term);
		} else {
			reset_search();
			searching = 0;
			currentSearchTerm = null;
			searchbtn.classList.remove("show");
			searchbtn.firstChild.nodeValue = "Search"
			matchedtxt.classList.add("hide");
			matchedtxt.firstChild.nodeValue = ""
		}
	}
	function search(term) {
		if (term) currentSearchTerm = term;

		var re = new RegExp(currentSearchTerm, ignorecase ? 'i' : '');
		var el = document.getElementById("frames").children;
		var matches = new Object();
		var maxwidth = 0;
		for (var i = 0; i < el.length; i++) {
			var e = el[i];
			var func = g_to_func(e);
			var rect = find_child(e, "rect");
			if (func == null || rect == null)
				continue;

			// Save max width. Only works as we have a root frame
			var w = parseFloat(rect.attributes.width.value);
			if (w > maxwidth)
				maxwidth = w;

			if (func.match(re)) {
				// highlight
				var x = parseFloat(rect.attributes.x.value);
				orig_save(rect, "fill");
				rect.attributes.fill.value = "rgb(230,0,230)";

				// remember matches
				if (matches[x] == undefined) {
					matches[x] = w;
				} else {
					if (w > matches[x]) {
						// overwrite with parent
						matches[x] = w;
					}
				}
				searching = 1;
			}
		}
		if (!searching)
			return;
		var params = get_params();
		params.s = currentSearchTerm;
		history.replaceState(null, null, parse_params(params));

		searchbtn.classList.add("show");
		searchbtn.firstChild.nodeValue = "Reset Search";

		// calculate percent matched, excluding vertical overlap
		var count = 0;
		var lastx = -1;
		var lastw = 0;
		var keys = Array();
		for (k in matches) {
			if (matches.hasOwnProperty(k))
				keys.push(k);
		}
		// sort the matched frames by their x location
		// ascending, then width descending
		keys.sort(function(a, b){
			return a - b;
		});
		// Step through frames saving only the biggest bottom-up frames
		// thanks to the sort order. This relies on the tree property
		// where children are always smaller than their parents.
		var fudge = 0.0001;	// JavaScript floating point
		for (var k in keys) {
			var x = parseFloat(keys[k]);
			var w = matches[keys[k]];
			if (x >= lastx + lastw - fudge) {
				count += w;
				lastx = x;
				lastw = w;
			}
		}
		// display matched percent
		matchedtxt.classList.remove("hide");
		var pct = 100 * count / maxwidth;
		if (pct != 100) pct = pct.toFixed(1)
		matchedtxt.firstChild.nodeValue = "Matched: " + pct + "%";
	}
]]>
</script>
<rect x="0.0" y="0" width="1200.0" height="363.0" fill="url(#background)"  />
<text id="title" x="600.00" y="26" >Firedrake example</text>
<text id="details" x="10.00" y="345" > </text>
<text id="unzoom" x="10.00" y="26" class="hide">Reset Zoom</text>
<text id="search" x="1090.00" y="26" >Search</text>
<text id="ignorecase" x="1174.00" y="26" >ic</text>
<text id="matched" x="1090.00" y="345" > </text>
<g id="frames">
<g >
<title>firedrake.functionspaceimpl.FunctionSpace.__init__ (6,527 us, 0.02%)</title><rect x="119.5" y="103" width="0.2" height="15.0" fill="rgb(154.706258513509,154.706258513509,142.038022027005)" rx="2" ry="2" />
<text  x="122.46" y="113.5" ></text>
</g>
<g >
<title>firedrake.functionspacedata.FunctionSpaceData.__init__ (9,531 us, 0.03%)</title><rect x="690.3" y="199" width="0.3" height="15.0" fill="rgb(136.751922082207,152.49123905835,152.49123905835)" rx="2" ry="2" />
<text  x="693.30" y="209.5" ></text>
</g>
<g >
<title>firedrake.tsfc_interface.compile_form (20,935 us, 0.06%)</title><rect x="682.8" y="215" width="0.7" height="15.0" fill="rgb(123.944290746919,163.543952669106,123.944290746919)" rx="2" ry="2" />
<text  x="685.80" y="225.5" ></text>
</g>
<g >
<title>MatMult (694,595 us, 1.87%)</title><rect x="595.7" y="231" width="22.1" height="15.0" fill="rgb(146.657618210232,159.846434244846,146.657618210232)" rx="2" ry="2" />
<text  x="598.75" y="241.5" ></text>
</g>
<g >
<title>KSPSetUp (153,724 us, 0.41%)</title><rect x="643.7" y="215" width="4.9" height="15.0" fill="rgb(146.329446607547,154.974300972327,154.974300972327)" rx="2" ry="2" />
<text  x="646.66" y="225.5" ></text>
</g>
<g >
<title>firedrake.assemble.assemble_form (110,510 us, 0.30%)</title><rect x="1186.3" y="151" width="3.5" height="15.0" fill="rgb(154.987942811691,134.907561556299,134.907561556299)" rx="2" ry="2" />
<text  x="1189.30" y="161.5" ></text>
</g>
<g >
<title>firedrake.variational_solver.LinearVariationalProblem.__init__ (28,706 us, 0.08%)</title><rect x="119.7" y="71" width="0.9" height="15.0" fill="rgb(153.922736213183,126.740977634402,126.740977634402)" rx="2" ry="2" />
<text  x="122.67" y="81.5" ></text>
</g>
<g >
<title>firedrake.assemble.assemble (2,010,303 us, 5.42%)</title><rect x="397.1" y="167" width="63.9" height="15.0" fill="rgb(133.690568585499,151.697554818463,151.697554818463)" rx="2" ry="2" />
<text  x="400.06" y="177.5" >firedr..</text>
</g>
<g >
<title>RecoverFirstElim (8,653,607 us, 23.32%)</title><rect x="121.8" y="167" width="275.3" height="15.0" fill="rgb(145.418040269614,160.048226002621,145.418040269614)" rx="2" ry="2" />
<text  x="124.85" y="177.5" >RecoverFirstElim</text>
</g>
<g >
<title>MatMult (136,927 us, 0.37%)</title><rect x="639.3" y="231" width="4.4" height="15.0" fill="rgb(147.77973529106,147.77973529106,108.471024872059)" rx="2" ry="2" />
<text  x="642.31" y="241.5" ></text>
</g>
<g >
<title>firedrake.assemble.assemble_form (8,653,607 us, 23.32%)</title><rect x="121.8" y="199" width="275.3" height="15.0" fill="rgb(124.174208204859,163.506524245721,124.174208204859)" rx="2" ry="2" />
<text  x="124.85" y="209.5" >firedrake.assemble.assemble_form</text>
</g>
<g >
<title>ParLoopExecute (9,510 us, 0.03%)</title><rect x="637.8" y="279" width="0.3" height="15.0" fill="rgb(135.598513777172,135.598513777172,153.664228473001)" rx="2" ry="2" />
<text  x="640.76" y="289.5" ></text>
</g>
<g >
<title>KSPSolve (3,817 us, 0.01%)</title><rect x="617.8" y="247" width="0.2" height="15.0" fill="rgb(135.760030196594,135.760030196594,153.69548971547)" rx="2" ry="2" />
<text  x="620.84" y="257.5" ></text>
</g>
<g >
<title>MatZeroInitial (20,688 us, 0.06%)</title><rect x="688.7" y="199" width="0.7" height="15.0" fill="rgb(154.754422470668,133.11723894179,133.11723894179)" rx="2" ry="2" />
<text  x="691.70" y="209.5" ></text>
</g>
<g >
<title>DMCoarsen (673,877 us, 1.82%)</title><rect x="648.8" y="231" width="21.5" height="15.0" fill="rgb(152.507929759232,152.507929759232,131.384582679353)" rx="2" ry="2" />
<text  x="651.84" y="241.5" ></text>
</g>
<g >
<title>firedrake.functionspacedata.get_shared_data (20,369 us, 0.05%)</title><rect x="26.2" y="103" width="0.6" height="15.0" fill="rgb(144.34119934057,122.999323310211,144.34119934057)" rx="2" ry="2" />
<text  x="29.17" y="113.5" ></text>
</g>
<g >
<title>firedrake.parloops.par_loop (10,890 us, 0.03%)</title><rect x="121.5" y="183" width="0.3" height="15.0" fill="rgb(148.721134880652,159.510512926405,148.721134880652)" rx="2" ry="2" />
<text  x="124.50" y="193.5" ></text>
</g>
<g >
<title>HybridInit (15,616,409 us, 42.09%)</title><rect x="689.6" y="135" width="496.7" height="15.0" fill="rgb(113.91922686976,113.91922686976,149.468237458663)" rx="2" ry="2" />
<text  x="692.64" y="145.5" >HybridInit</text>
</g>
<g >
<title>MatResidual (136,927 us, 0.37%)</title><rect x="639.3" y="215" width="4.4" height="15.0" fill="rgb(155.372264854815,155.372264854815,145.265591219486)" rx="2" ry="2" />
<text  x="642.31" y="225.5" ></text>
</g>
<g >
<title>firedrake.formmanipulation.ExtractSubBlock.split (5,728 us, 0.02%)</title><rect x="1182.3" y="167" width="0.2" height="15.0" fill="rgb(132.025546516625,132.025546516625,152.972686422573)" rx="2" ry="2" />
<text  x="1185.29" y="177.5" ></text>
</g>
<g >
<title>firedrake.mg.interface.prolong (10,943 us, 0.03%)</title><rect x="636.9" y="279" width="0.3" height="15.0" fill="rgb(125.322975486848,125.322975486848,151.675414610358)" rx="2" ry="2" />
<text  x="639.89" y="289.5" ></text>
</g>
<g >
<title>firedrake.formmanipulation.ExtractSubBlock.argument (5,728 us, 0.02%)</title><rect x="1182.3" y="183" width="0.2" height="15.0" fill="rgb(141.839301506265,141.839301506265,154.87212287218)" rx="2" ry="2" />
<text  x="1185.29" y="193.5" ></text>
</g>
<g >
<title>SNESFunctionEval (110,510 us, 0.30%)</title><rect x="1186.3" y="119" width="3.5" height="15.0" fill="rgb(144.613409233051,144.613409233051,155.409046948332)" rx="2" ry="2" />
<text  x="1189.30" y="129.5" ></text>
</g>
<g >
<title>SCBackSub (10,674,800 us, 28.77%)</title><rect x="121.5" y="151" width="339.5" height="15.0" fill="rgb(115.071032287186,146.870267630011,146.870267630011)" rx="2" ry="2" />
<text  x="124.50" y="161.5" >SCBackSub</text>
</g>
<g >
<title>firedrake.assemble.allocate_matrix (7,796 us, 0.02%)</title><rect x="682.4" y="183" width="0.2" height="15.0" fill="rgb(152.950520877454,119.287326727151,119.287326727151)" rx="2" ry="2" />
<text  x="685.40" y="193.5" ></text>
</g>
<g >
<title>firedrake.pointquery_utils.to_reference_coordinates (390,491 us, 1.05%)</title><rect x="624.5" y="295" width="12.4" height="15.0" fill="rgb(123.177387051233,148.971915161431,148.971915161431)" rx="2" ry="2" />
<text  x="627.47" y="305.5" ></text>
</g>
<g >
<title>firedrake.functionspace.VectorFunctionSpace (6,527 us, 0.02%)</title><rect x="119.5" y="71" width="0.2" height="15.0" fill="rgb(150.095715753698,150.095715753698,119.69462249869)" rx="2" ry="2" />
<text  x="122.46" y="81.5" ></text>
</g>
<g >
<title>firedrake.ufl_expr.action (12,510 us, 0.03%)</title><rect x="119.7" y="87" width="0.4" height="15.0" fill="rgb(152.539415873414,152.539415873414,131.537169232701)" rx="2" ry="2" />
<text  x="122.67" y="97.5" ></text>
</g>
<g >
<title>firedrake.interpolation.interpolate (25,106 us, 0.07%)</title><rect x="671.1" y="263" width="0.8" height="15.0" fill="rgb(129.603271508402,129.603271508402,152.503859001626)" rx="2" ry="2" />
<text  x="674.11" y="273.5" ></text>
</g>
<g >
<title>firedrake.assemble.assemble_form (25,726 us, 0.07%)</title><rect x="682.6" y="199" width="0.9" height="15.0" fill="rgb(129.870136556487,150.707072440571,150.707072440571)" rx="2" ry="2" />
<text  x="685.65" y="209.5" ></text>
</g>
<g >
<title>VecPointwiseMult (6,381 us, 0.02%)</title><rect x="638.1" y="247" width="0.2" height="15.0" fill="rgb(128.293911522933,128.293911522933,152.25043448831)" rx="2" ry="2" />
<text  x="641.06" y="257.5" ></text>
</g>
<g >
<title>KSPSolve (153,724 us, 0.41%)</title><rect x="643.7" y="231" width="4.9" height="15.0" fill="rgb(152.583393716323,116.472685158477,116.472685158477)" rx="2" ry="2" />
<text  x="646.66" y="241.5" ></text>
</g>
<g >
<title>MatMult (129,097 us, 0.35%)</title><rect x="644.0" y="247" width="4.1" height="15.0" fill="rgb(152.863519912734,118.620319330959,118.620319330959)" rx="2" ry="2" />
<text  x="646.97" y="257.5" ></text>
</g>
<g >
<title>CreateExtMesh (118,080 us, 0.32%)</title><rect x="22.4" y="71" width="3.8" height="15.0" fill="rgb(124.007669533976,124.007669533976,151.42083926464)" rx="2" ry="2" />
<text  x="25.42" y="81.5" ></text>
</g>
<g >
<title>firedrake.ufl_expr.adjoint (16,196 us, 0.04%)</title><rect x="120.1" y="103" width="0.5" height="15.0" fill="rgb(152.857010742742,152.857010742742,133.076282830213)" rx="2" ry="2" />
<text  x="123.07" y="113.5" ></text>
</g>
<g >
<title>PCApply (17,855,224 us, 48.12%)</title><rect x="121.5" y="135" width="567.9" height="15.0" fill="rgb(124.607181644462,163.436040197413,124.607181644462)" rx="2" ry="2" />
<text  x="124.50" y="145.5" >PCApply</text>
</g>
<g >
<title>ParLoopExecute (8,533,570 us, 23.00%)</title><rect x="125.7" y="215" width="271.4" height="15.0" fill="rgb(128.306688488299,162.833794897254,128.306688488299)" rx="2" ry="2" />
<text  x="128.66" y="225.5" >ParLoopExecute</text>
</g>
<g >
<title>firedrake.interpolation.make_interpolator (52,743 us, 0.14%)</title><rect x="658.6" y="311" width="1.6" height="15.0" fill="rgb(154.040885432824,154.040885432824,138.813521712914)" rx="2" ry="2" />
<text  x="661.56" y="321.5" ></text>
</g>
<g >
<title>firedrake.variational_solver.NonlinearVariationalSolver.solve (33,601,304 us, 90.56%)</title><rect x="121.4" y="87" width="1068.6" height="15.0" fill="rgb(126.764830619495,163.084795015431,126.764830619495)" rx="2" ry="2" />
<text  x="124.36" y="97.5" >firedrake.variational_solver.NonlinearVariationalSolver.solve</text>
</g>
<g >
<title>ParLoopExecute (63,728 us, 0.17%)</title><rect x="1186.3" y="167" width="2.0" height="15.0" fill="rgb(139.793307527158,160.963880169997,139.793307527158)" rx="2" ry="2" />
<text  x="1189.30" y="177.5" ></text>
</g>
<g >
<title>firedrake.dmhooks.coarsen (673,877 us, 1.82%)</title><rect x="648.8" y="247" width="21.5" height="15.0" fill="rgb(155.279961881371,137.146374423844,137.146374423844)" rx="2" ry="2" />
<text  x="651.84" y="257.5" ></text>
</g>
<g >
<title>KSPGMRESOrthog (4,904 us, 0.01%)</title><rect x="643.8" y="247" width="0.2" height="15.0" fill="rgb(149.198514637811,159.432799942682,149.198514637811)" rx="2" ry="2" />
<text  x="646.81" y="257.5" ></text>
</g>
<g >
<title>VecAXPBYCZ (4,082 us, 0.01%)</title><rect x="638.3" y="231" width="0.1" height="15.0" fill="rgb(136.652467642482,103.29694833386,136.652467642482)" rx="2" ry="2" />
<text  x="641.27" y="241.5" ></text>
</g>
<g >
<title>firedrake.pointquery_utils.to_reference_coordinates (303,108 us, 0.82%)</title><rect x="671.9" y="263" width="9.7" height="15.0" fill="rgb(128.527987338091,162.797769503102,128.527987338091)" rx="2" ry="2" />
<text  x="674.91" y="273.5" ></text>
</g>
<g >
<title>firedrake.mg.interface.inject (660,982 us, 1.78%)</title><rect x="649.3" y="279" width="21.0" height="15.0" fill="rgb(156.353732502095,145.378615849394,145.378615849394)" rx="2" ry="2" />
<text  x="652.25" y="289.5" ></text>
</g>
<g >
<title>firedrake.functionspacedata.FunctionSpaceData.__init__ (6,751 us, 0.02%)</title><rect x="26.0" y="151" width="0.2" height="15.0" fill="rgb(147.776812258099,147.776812258099,108.456859404634)" rx="2" ry="2" />
<text  x="28.96" y="161.5" ></text>
</g>
<g >
<title>firedrake.formmanipulation.split_form (10,496 us, 0.03%)</title><rect x="1189.5" y="183" width="0.3" height="15.0" fill="rgb(122.775990621777,148.867849420461,148.867849420461)" rx="2" ry="2" />
<text  x="1192.48" y="193.5" ></text>
</g>
<g >
<title>firedrake.functionspaceimpl.FunctionSpace.__init__ (6,751 us, 0.02%)</title><rect x="26.0" y="119" width="0.2" height="15.0" fill="rgb(135.256684324562,135.256684324562,153.598067933786)" rx="2" ry="2" />
<text  x="28.96" y="129.5" ></text>
</g>
<g >
<title>MatMultTranspose (12,568 us, 0.03%)</title><rect x="638.9" y="215" width="0.4" height="15.0" fill="rgb(149.049747465824,149.049747465824,114.625699257455)" rx="2" ry="2" />
<text  x="641.91" y="225.5" ></text>
</g>
<g >
<title>KSPSolve (2,827,182 us, 7.62%)</title><rect x="591.6" y="167" width="90.0" height="15.0" fill="rgb(147.387798123873,159.727567747276,147.387798123873)" rx="2" ry="2" />
<text  x="594.64" y="177.5" >KSPSolve</text>
</g>
<g >
<title>HybridBreak (17,117 us, 0.05%)</title><rect x="461.0" y="167" width="0.5" height="15.0" fill="rgb(147.913592886114,147.913592886114,109.119719371167)" rx="2" ry="2" />
<text  x="464.00" y="177.5" ></text>
</g>
<g >
<title>ParLoopExecute (4,034 us, 0.01%)</title><rect x="461.4" y="199" width="0.1" height="15.0" fill="rgb(149.387799222875,159.40198617302,149.387799222875)" rx="2" ry="2" />
<text  x="464.41" y="209.5" ></text>
</g>
<g >
<title>firedrake.formmanipulation.split_form (5,728 us, 0.02%)</title><rect x="1182.3" y="151" width="0.2" height="15.0" fill="rgb(137.02535002837,161.414477902358,137.02535002837)" rx="2" ry="2" />
<text  x="1185.29" y="161.5" ></text>
</g>
<g >
<title>firedrake.functionspacedata.get_shared_data (9,531 us, 0.03%)</title><rect x="690.3" y="183" width="0.3" height="15.0" fill="rgb(122.510133232454,148.798923430636,148.798923430636)" rx="2" ry="2" />
<text  x="693.30" y="193.5" ></text>
</g>
<g >
<title>PCApply (642,369 us, 1.73%)</title><rect x="617.8" y="231" width="20.5" height="15.0" fill="rgb(127.706544695324,162.931492724017,127.706544695324)" rx="2" ry="2" />
<text  x="620.84" y="241.5" ></text>
</g>
<g >
<title>ParLoop_Cells_wrap_wrap_slate_loopy_knl_7 (8,533,570 us, 23.00%)</title><rect x="125.7" y="231" width="271.4" height="15.0" fill="rgb(124.602913654806,149.341496132728,149.341496132728)" rx="2" ry="2" />
<text  x="128.66" y="241.5" >ParLoop_Cells_wrap_wrap_slate_loo..</text>
</g>
<g >
<title>CreateFunctionSpace (20,369 us, 0.05%)</title><rect x="26.2" y="71" width="0.6" height="15.0" fill="rgb(149.007996304863,149.007996304863,114.423366708183)" rx="2" ry="2" />
<text  x="29.17" y="81.5" ></text>
</g>
<g >
<title>ParLoop_Cells_wrap_expression_kernel (20,062 us, 0.05%)</title><rect x="681.8" y="199" width="0.6" height="15.0" fill="rgb(154.488572436687,154.488572436687,140.98308180856)" rx="2" ry="2" />
<text  x="684.76" y="209.5" ></text>
</g>
<g >
<title>ParLoopExecute (1,912,333 us, 5.15%)</title><rect x="400.2" y="199" width="60.8" height="15.0" fill="rgb(121.502608622414,121.502608622414,150.935988765629)" rx="2" ry="2" />
<text  x="403.18" y="209.5" >ParLo..</text>
</g>
<g >
<title>firedrake.assemble.assemble_form (4,082,764 us, 11.00%)</title><rect x="461.5" y="199" width="129.9" height="15.0" fill="rgb(106.269323136004,144.58834303526,144.58834303526)" rx="2" ry="2" />
<text  x="464.54" y="209.5" >firedrake.asse..</text>
</g>
<g >
<title>HybridProject (10,890 us, 0.03%)</title><rect x="121.5" y="167" width="0.3" height="15.0" fill="rgb(153.200905854248,121.206944882571,121.206944882571)" rx="2" ry="2" />
<text  x="124.50" y="177.5" ></text>
</g>
<g >
<title>MatMultAdd (10,943 us, 0.03%)</title><rect x="636.9" y="247" width="0.3" height="15.0" fill="rgb(130.77742933763,162.431581270618,130.77742933763)" rx="2" ry="2" />
<text  x="639.89" y="257.5" ></text>
</g>
<g >
<title>PCSetUp (1,191,348 us, 3.21%)</title><rect x="643.7" y="199" width="37.9" height="15.0" fill="rgb(148.395822348758,148.395822348758,111.456677536286)" rx="2" ry="2" />
<text  x="646.66" y="209.5" >PC..</text>
</g>
<g >
<title>firedrake.ufl_expr.adjoint (6,245 us, 0.02%)</title><rect x="121.2" y="119" width="0.2" height="15.0" fill="rgb(156.725002372056,148.225018185762,148.225018185762)" rx="2" ry="2" />
<text  x="124.16" y="129.5" ></text>
</g>
<g >
<title>firedrake.assemble.assemble (12,598,074 us, 33.95%)</title><rect x="690.6" y="167" width="400.7" height="15.0" fill="rgb(149.094934762891,149.094934762891,114.844683850933)" rx="2" ry="2" />
<text  x="693.60" y="177.5" >firedrake.assemble.assemble</text>
</g>
<g >
<title>MatZeroInitial (402,497 us, 1.08%)</title><rect x="1169.5" y="167" width="12.8" height="15.0" fill="rgb(155.732877503651,140.618727527995,140.618727527995)" rx="2" ry="2" />
<text  x="1172.49" y="177.5" ></text>
</g>
<g >
<title>SCSolve (3,080,543 us, 8.30%)</title><rect x="591.4" y="151" width="98.0" height="15.0" fill="rgb(148.429270509173,148.429270509173,111.618772467531)" rx="2" ry="2" />
<text  x="594.39" y="161.5" >SCSolve</text>
</g>
<g >
<title>HybridOperatorAssembly (12,598,074 us, 33.95%)</title><rect x="690.6" y="151" width="400.7" height="15.0" fill="rgb(133.489097197413,161.990146967863,133.489097197413)" rx="2" ry="2" />
<text  x="693.60" y="161.5" >HybridOperatorAssembly</text>
</g>
<g >
<title>PCApply (2,698,047 us, 7.27%)</title><rect x="595.7" y="183" width="85.9" height="15.0" fill="rgb(109.460846679955,145.415775065173,145.415775065173)" rx="2" ry="2" />
<text  x="598.75" y="193.5" >PCApply</text>
</g>
<g >
<title>firedrake.assemble.allocate_matrix (2,862,191 us, 7.71%)</title><rect x="1091.3" y="151" width="91.0" height="15.0" fill="rgb(153.976974898513,127.156807555263,127.156807555263)" rx="2" ry="2" />
<text  x="1094.27" y="161.5" >firedrake..</text>
</g>
<g >
<title>firedrake.assemble.assemble_form (2,010,303 us, 5.42%)</title><rect x="397.1" y="183" width="63.9" height="15.0" fill="rgb(155.012202706823,135.09355408564,135.09355408564)" rx="2" ry="2" />
<text  x="400.06" y="193.5" >firedr..</text>
</g>
<g >
<title>ParLoop_Cells_wrap_form0_cell_integral_otherwise (29,880 us, 0.08%)</title><rect x="1186.3" y="183" width="0.9" height="15.0" fill="rgb(140.927013017047,114.250470856184,140.927013017047)" rx="2" ry="2" />
<text  x="1189.30" y="193.5" ></text>
</g>
<g >
<title>CreateSparsity (7,796 us, 0.02%)</title><rect x="682.4" y="199" width="0.2" height="15.0" fill="rgb(135.924827201485,101.432369703805,135.924827201485)" rx="2" ry="2" />
<text  x="685.40" y="209.5" ></text>
</g>
<g >
<title>CreateSparsity (2,448,491 us, 6.60%)</title><rect x="1091.3" y="167" width="77.8" height="15.0" fill="rgb(119.366394056136,119.366394056136,150.522527881833)" rx="2" ry="2" />
<text  x="1094.27" y="177.5" >CreateSp..</text>
</g>
<g >
<title>SNESSolve (33,590,922 us, 90.53%)</title><rect x="121.5" y="103" width="1068.3" height="15.0" fill="rgb(155.301734456425,155.301734456425,144.923790058059)" rx="2" ry="2" />
<text  x="124.50" y="113.5" >SNESSolve</text>
</g>
<g >
<title>firedrake.formmanipulation.ExtractSubBlock.split (5,901 us, 0.02%)</title><rect x="1189.6" y="199" width="0.2" height="15.0" fill="rgb(155.166549157051,136.276876870727,136.276876870727)" rx="2" ry="2" />
<text  x="1192.62" y="209.5" ></text>
</g>
<g >
<title>firedrake.assemble.assemble (110,510 us, 0.30%)</title><rect x="1186.3" y="135" width="3.5" height="15.0" fill="rgb(124.694994232876,124.694994232876,151.553869851524)" rx="2" ry="2" />
<text  x="1189.30" y="145.5" ></text>
</g>
<g >
<title>PCSetUp (15,616,409 us, 42.09%)</title><rect x="689.6" y="119" width="496.7" height="15.0" fill="rgb(147.904379802355,147.904379802355,109.075071349873)" rx="2" ry="2" />
<text  x="692.64" y="129.5" >PCSetUp</text>
</g>
<g >
<title>PCApply (1,506,699 us, 4.06%)</title><rect x="595.7" y="199" width="48.0" height="15.0" fill="rgb(154.495992881558,131.135945425275,131.135945425275)" rx="2" ry="2" />
<text  x="598.75" y="209.5" >PCAp..</text>
</g>
<g >
<title>firedrake.functionspace.VectorFunctionSpace (6,751 us, 0.02%)</title><rect x="26.0" y="87" width="0.2" height="15.0" fill="rgb(130.099429194585,150.766518680078,150.766518680078)" rx="2" ry="2" />
<text  x="28.96" y="97.5" ></text>
</g>
<g >
<title>firedrake.interpolation.make_interpolator (112,252 us, 0.30%)</title><rect x="1182.5" y="151" width="3.5" height="15.0" fill="rgb(153.16243851621,120.91202862428,120.91202862428)" rx="2" ry="2" />
<text  x="1185.48" y="161.5" ></text>
</g>
<g >
<title>VecSet (8,779 us, 0.02%)</title><rect x="689.4" y="135" width="0.2" height="15.0" fill="rgb(146.340685476489,159.898027945688,146.340685476489)" rx="2" ry="2" />
<text  x="692.36" y="145.5" ></text>
</g>
<g >
<title>firedrake.mg.embedded.TransferManager.op (660,982 us, 1.78%)</title><rect x="649.3" y="263" width="21.0" height="15.0" fill="rgb(139.304657924448,153.153059461894,153.153059461894)" rx="2" ry="2" />
<text  x="652.25" y="273.5" ></text>
</g>
<g >
<title>firedrake.mg.interface.restrict (21,646 us, 0.06%)</title><rect x="637.4" y="263" width="0.7" height="15.0" fill="rgb(126.747008816222,149.897372656058,149.897372656058)" rx="2" ry="2" />
<text  x="640.37" y="273.5" ></text>
</g>
<g >
<title>firedrake.extrusion_utils.make_extruded_coords (111,329 us, 0.30%)</title><rect x="22.4" y="87" width="3.6" height="15.0" fill="rgb(151.051961238876,151.051961238876,124.328735234554)" rx="2" ry="2" />
<text  x="25.42" y="97.5" ></text>
</g>
<g >
<title>firedrake.assemble.assemble (25,726 us, 0.07%)</title><rect x="682.6" y="183" width="0.9" height="15.0" fill="rgb(137.714668844327,152.740840070751,152.740840070751)" rx="2" ry="2" />
<text  x="685.65" y="193.5" ></text>
</g>
<g >
<title>VecAYPX (5,720 us, 0.02%)</title><rect x="638.4" y="231" width="0.2" height="15.0" fill="rgb(155.233943381773,136.793565926923,136.793565926923)" rx="2" ry="2" />
<text  x="641.40" y="241.5" ></text>
</g>
<g >
<title>firedrake.assemble.allocate_matrix (12,340 us, 0.03%)</title><rect x="121.0" y="87" width="0.4" height="15.0" fill="rgb(145.447156004451,145.447156004451,155.570417291184)" rx="2" ry="2" />
<text  x="123.96" y="97.5" ></text>
</g>
<g >
<title>firedrake.assemble.assemble_form (12,598,074 us, 33.95%)</title><rect x="690.6" y="183" width="400.7" height="15.0" fill="rgb(155.081859460156,135.627589194526,135.627589194526)" rx="2" ry="2" />
<text  x="693.60" y="193.5" >firedrake.assemble.assemble_form</text>
</g>
<g >
<title>CreateFunctionSpace (6,527 us, 0.02%)</title><rect x="119.5" y="87" width="0.2" height="15.0" fill="rgb(137.141496906144,152.59223993863,152.59223993863)" rx="2" ry="2" />
<text  x="122.46" y="97.5" ></text>
</g>
<g >
<title>MatMult (595,383 us, 1.60%)</title><rect x="618.0" y="247" width="18.9" height="15.0" fill="rgb(152.790845197202,118.063146511885,118.063146511885)" rx="2" ry="2" />
<text  x="620.96" y="257.5" ></text>
</g>
<g >
<title>PCSetUp (1,037,624 us, 2.80%)</title><rect x="648.6" y="215" width="33.0" height="15.0" fill="rgb(152.150230824316,143.009966487311,152.150230824316)" rx="2" ry="2" />
<text  x="651.55" y="225.5" >PC..</text>
</g>
<g >
<title>perfsolve (33,601,304 us, 90.56%)</title><rect x="121.4" y="71" width="1068.6" height="15.0" fill="rgb(114.076346333968,114.076346333968,149.498647677542)" rx="2" ry="2" />
<text  x="124.36" y="81.5" >perfsolve</text>
</g>
<g >
<title>firedrake.functionspacedata.get_shared_data (6,527 us, 0.02%)</title><rect x="119.5" y="119" width="0.2" height="15.0" fill="rgb(127.161651291141,163.020196301442,127.161651291141)" rx="2" ry="2" />
<text  x="122.46" y="129.5" ></text>
</g>
<g >
<title>firedrake.__init__ (2,912,882 us, 7.85%)</title><rect x="26.8" y="71" width="92.7" height="15.0" fill="rgb(153.436525492604,153.436525492604,135.884700464158)" rx="2" ry="2" />
<text  x="29.82" y="81.5" >firedrake...</text>
</g>
<g >
<title>firedrake.functionspacedata.FunctionSpaceData.__init__ (6,527 us, 0.02%)</title><rect x="119.5" y="135" width="0.2" height="15.0" fill="rgb(145.477969169535,145.477969169535,155.576381129587)" rx="2" ry="2" />
<text  x="122.46" y="145.5" ></text>
</g>
<g >
<title>PCSetUp (245,481 us, 0.66%)</title><rect x="681.6" y="167" width="7.8" height="15.0" fill="rgb(156.098837577792,143.424421429739,143.424421429739)" rx="2" ry="2" />
<text  x="684.55" y="177.5" ></text>
</g>
<g >
<title>firedrake.variational_solver.NonlinearVariationalProblem.__init__ (16,196 us, 0.04%)</title><rect x="120.1" y="87" width="0.5" height="15.0" fill="rgb(149.348285655692,149.348285655692,116.072461254507)" rx="2" ry="2" />
<text  x="123.07" y="97.5" ></text>
</g>
<g >
<title>pyop2.parloop.JITModule.compile (72,829 us, 0.20%)</title><rect x="23.6" y="119" width="2.4" height="15.0" fill="rgb(131.582493746326,162.300524273854,131.582493746326)" rx="2" ry="2" />
<text  x="26.64" y="129.5" ></text>
</g>
<g >
<title>all (37,102,695 us, 100%)</title><rect x="10.0" y="39" width="1180.0" height="15.0" fill="rgb(151.67662914838,151.67662914838,127.355972026766)" rx="2" ry="2" />
<text  x="13.00" y="49.5" ></text>
</g>
<g >
<title>CreateFunctionSpace (13,626 us, 0.04%)</title><rect x="690.2" y="151" width="0.4" height="15.0" fill="rgb(154.574226946376,131.735739922213,131.735739922213)" rx="2" ry="2" />
<text  x="693.17" y="161.5" ></text>
</g>
<g >
<title>firedrake.interpolation.make_interpolator (25,106 us, 0.07%)</title><rect x="671.1" y="279" width="0.8" height="15.0" fill="rgb(150.226614331874,150.226614331874,120.328977146772)" rx="2" ry="2" />
<text  x="674.11" y="289.5" ></text>
</g>
<g >
<title>VecSet (7,452 us, 0.02%)</title><rect x="120.7" y="87" width="0.3" height="15.0" fill="rgb(146.9750075055,129.748456732843,146.9750075055)" rx="2" ry="2" />
<text  x="123.73" y="97.5" ></text>
</g>
<g >
<title>ParLoopExecute (20,062 us, 0.05%)</title><rect x="681.8" y="183" width="0.6" height="15.0" fill="rgb(148.565603451777,159.535831996222,148.565603451777)" rx="2" ry="2" />
<text  x="684.76" y="193.5" ></text>
</g>
<g >
<title>MatMultAdd (10,438 us, 0.03%)</title><rect x="638.6" y="215" width="0.3" height="15.0" fill="rgb(145.720822637557,145.720822637557,155.623385026624)" rx="2" ry="2" />
<text  x="641.58" y="225.5" ></text>
</g>
<g >
<title>firedrake.ufl_expr.action (6,095 us, 0.02%)</title><rect x="121.0" y="119" width="0.2" height="15.0" fill="rgb(108.89948654981,145.270237253654,145.270237253654)" rx="2" ry="2" />
<text  x="123.96" y="129.5" ></text>
</g>
<g >
<title>SCForwardElim (4,099,881 us, 11.05%)</title><rect x="461.0" y="151" width="130.4" height="15.0" fill="rgb(138.133188650369,161.234132080173,138.133188650369)" rx="2" ry="2" />
<text  x="464.00" y="161.5" >SCForwardElim</text>
</g>
<g >
<title>firedrake.interpolation.make_interpolator (185,387 us, 0.50%)</title><rect x="683.5" y="183" width="5.9" height="15.0" fill="rgb(149.383608532292,149.383608532292,116.243641348801)" rx="2" ry="2" />
<text  x="686.46" y="193.5" ></text>
</g>
<g >
<title>ParLoopExecute (72,829 us, 0.20%)</title><rect x="23.6" y="103" width="2.4" height="15.0" fill="rgb(109.156763221848,109.156763221848,148.546470301003)" rx="2" ry="2" />
<text  x="26.64" y="113.5" ></text>
</g>
<g >
<title>MatAssemblyEnd (11,203 us, 0.03%)</title><rect x="1169.1" y="167" width="0.4" height="15.0" fill="rgb(127.223859327369,127.223859327369,152.043327611749)" rx="2" ry="2" />
<text  x="1172.14" y="177.5" ></text>
</g>
<g >
<title>firedrake (37,102,695 us, 100.00%)</title><rect x="10.0" y="55" width="1180.0" height="15.0" fill="rgb(148.972246317947,159.469634320334,148.972246317947)" rx="2" ry="2" />
<text  x="13.00" y="65.5" >firedrake</text>
</g>
<g >
<title>firedrake.functionspaceimpl.FunctionSpace.__init__ (20,369 us, 0.05%)</title><rect x="26.2" y="87" width="0.6" height="15.0" fill="rgb(147.81952182815,147.81952182815,108.663836551802)" rx="2" ry="2" />
<text  x="29.17" y="97.5" ></text>
</g>
<g >
<title>MatMultTranspose (354,567 us, 0.96%)</title><rect x="670.3" y="231" width="11.3" height="15.0" fill="rgb(141.447202991717,153.708534108964,153.708534108964)" rx="2" ry="2" />
<text  x="673.28" y="241.5" ></text>
</g>
<g >
<title>MatMult (3,817 us, 0.01%)</title><rect x="617.8" y="263" width="0.2" height="15.0" fill="rgb(130.563978763177,130.563978763177,152.68980234126)" rx="2" ry="2" />
<text  x="620.84" y="273.5" ></text>
</g>
<g >
<title>ParLoop_Cells_wrap_wrap_slate_loopy_knl_4 (3,987,160 us, 10.75%)</title><rect x="464.6" y="231" width="126.8" height="15.0" fill="rgb(107.150673272894,144.816841218898,144.816841218898)" rx="2" ry="2" />
<text  x="467.58" y="241.5" >ParLoop_Cells_..</text>
</g>
<g >
<title>ParLoopExecute (12,267,633 us, 33.06%)</title><rect x="701.1" y="199" width="390.2" height="15.0" fill="rgb(145.814633978109,145.814633978109,155.641542060279)" rx="2" ry="2" />
<text  x="704.11" y="209.5" >ParLoopExecute</text>
</g>
<g >
<title>firedrake.interpolation.interpolate (52,743 us, 0.14%)</title><rect x="658.6" y="295" width="1.6" height="15.0" fill="rgb(137.493459960762,105.451991149451,137.493459960762)" rx="2" ry="2" />
<text  x="661.56" y="305.5" ></text>
</g>
<g >
<title>ParLoopExecute (4,655 us, 0.01%)</title><rect x="624.3" y="295" width="0.2" height="15.0" fill="rgb(155.592157088364,155.592157088364,146.331222812841)" rx="2" ry="2" />
<text  x="627.33" y="305.5" ></text>
</g>
<g >
<title>ParLoop_Cells_wrap_wrap_slate_loopy_knl_14 (1,912,333 us, 5.15%)</title><rect x="400.2" y="215" width="60.8" height="15.0" fill="rgb(156.244236744763,144.539148376516,144.539148376516)" rx="2" ry="2" />
<text  x="403.18" y="225.5" >ParLo..</text>
</g>
<g >
<title>MatMult (125,249 us, 0.34%)</title><rect x="591.8" y="183" width="3.9" height="15.0" fill="rgb(132.088965936741,151.282324502118,151.282324502118)" rx="2" ry="2" />
<text  x="594.76" y="193.5" ></text>
</g>
<g >
<title>KSPSolve (1,346,766 us, 3.63%)</title><rect x="595.7" y="215" width="42.9" height="15.0" fill="rgb(116.067101237035,116.067101237035,149.883955078136)" rx="2" ry="2" />
<text  x="598.75" y="225.5" >KSP..</text>
</g>
<g >
<title>ParLoopExecute (3,987,160 us, 10.75%)</title><rect x="464.6" y="215" width="126.8" height="15.0" fill="rgb(143.729939773837,143.729939773837,155.238052859452)" rx="2" ry="2" />
<text  x="467.58" y="225.5" >ParLoopExecute</text>
</g>
<g >
<title>ParLoopExecute (4,388 us, 0.01%)</title><rect x="637.1" y="295" width="0.1" height="15.0" fill="rgb(146.670254719538,159.84437713868,146.670254719538)" rx="2" ry="2" />
<text  x="640.10" y="305.5" ></text>
</g>
<g >
<title>HybridRHS (4,082,764 us, 11.00%)</title><rect x="461.5" y="167" width="129.9" height="15.0" fill="rgb(155.049334948356,155.049334948356,143.700623211262)" rx="2" ry="2" />
<text  x="464.54" y="177.5" >HybridRHS</text>
</g>
<g >
<title>ParLoop_Cells_wrap_wrap_slate_loopy_knl_0 (12,267,633 us, 33.06%)</title><rect x="701.1" y="215" width="390.2" height="15.0" fill="rgb(148.227992550388,159.590791910402,148.227992550388)" rx="2" ry="2" />
<text  x="704.11" y="225.5" >ParLoop_Cells_wrap_wrap_slate_loopy_knl_0</text>
</g>
<g >
<title>firedrake.functionspaceimpl.FunctionSpace.__init__ (9,531 us, 0.03%)</title><rect x="690.3" y="167" width="0.3" height="15.0" fill="rgb(106.556688930624,144.66284527831,144.66284527831)" rx="2" ry="2" />
<text  x="693.30" y="177.5" ></text>
</g>
<g >
<title>firedrake.mg.embedded.TransferManager.op (10,943 us, 0.03%)</title><rect x="636.9" y="263" width="0.3" height="15.0" fill="rgb(145.924367378624,154.869280431495,154.869280431495)" rx="2" ry="2" />
<text  x="639.89" y="273.5" ></text>
</g>
<g >
<title>CreateSparsity (121,094 us, 0.33%)</title><rect x="684.9" y="199" width="3.8" height="15.0" fill="rgb(121.908353817365,121.908353817365,151.014520093684)" rx="2" ry="2" />
<text  x="687.85" y="209.5" ></text>
</g>
<g >
<title>ParLoop_Cells_wrap_form1_cell_integral_otherwise (33,848 us, 0.09%)</title><rect x="1187.2" y="183" width="1.1" height="15.0" fill="rgb(154.287832376749,129.540048221742,129.540048221742)" rx="2" ry="2" />
<text  x="1190.25" y="193.5" ></text>
</g>
<g >
<title>firedrake.assemble.assemble (4,082,764 us, 11.00%)</title><rect x="461.5" y="183" width="129.9" height="15.0" fill="rgb(112.642192763787,146.240568494315,146.240568494315)" rx="2" ry="2" />
<text  x="464.54" y="193.5" >firedrake.asse..</text>
</g>
<g >
<title>CreateFunctionSpace (6,751 us, 0.02%)</title><rect x="26.0" y="103" width="0.2" height="15.0" fill="rgb(153.668393610006,124.791017676711,124.791017676711)" rx="2" ry="2" />
<text  x="28.96" y="113.5" ></text>
</g>
<g >
<title>firedrake.mg.interface.prolong (595,383 us, 1.60%)</title><rect x="618.0" y="279" width="18.9" height="15.0" fill="rgb(148.818838939482,159.494607614503,148.818838939482)" rx="2" ry="2" />
<text  x="620.96" y="289.5" ></text>
</g>
<g >
<title>PCApply (15,109 us, 0.04%)</title><rect x="648.1" y="247" width="0.5" height="15.0" fill="rgb(154.767385431903,133.216621644588,133.216621644588)" rx="2" ry="2" />
<text  x="651.07" y="257.5" ></text>
</g>
<g >
<title>KSPSolve (17,864,003 us, 48.15%)</title><rect x="121.5" y="119" width="568.1" height="15.0" fill="rgb(155.978796478272,142.504106333421,142.504106333421)" rx="2" ry="2" />
<text  x="124.50" y="129.5" >KSPSolve</text>
</g>
<g >
<title>firedrake.functionspacedata.get_shared_data (6,751 us, 0.02%)</title><rect x="26.0" y="135" width="0.2" height="15.0" fill="rgb(119.55595499295,119.55595499295,150.55921709541)" rx="2" ry="2" />
<text  x="28.96" y="145.5" ></text>
</g>
<g >
<title>ParLoop_Cells_wrap_par_loop_kernel (4,034 us, 0.01%)</title><rect x="461.4" y="215" width="0.1" height="15.0" fill="rgb(142.195920710135,160.572757093699,142.195920710135)" rx="2" ry="2" />
<text  x="464.41" y="225.5" ></text>
</g>
<g >
<title>VecSet (5,897 us, 0.02%)</title><rect x="1189.8" y="103" width="0.2" height="15.0" fill="rgb(108.706581062011,145.220224719781,145.220224719781)" rx="2" ry="2" />
<text  x="1192.81" y="113.5" ></text>
</g>
<g >
<title>MatMultTranspose (25,845 us, 0.07%)</title><rect x="637.2" y="247" width="0.9" height="15.0" fill="rgb(155.152923747916,136.172415400689,136.172415400689)" rx="2" ry="2" />
<text  x="640.24" y="257.5" ></text>
</g>
<g >
<title>ParLoop_set_#x12d2f3550_wrap_pyop2_kernel_restrict (3,971 us, 0.01%)</title><rect x="637.9" y="295" width="0.2" height="15.0" fill="rgb(154.236990961029,154.236990961029,139.76387927268)" rx="2" ry="2" />
<text  x="640.94" y="305.5" ></text>
</g>
<g >
<title>firedrake.functionspacedata.FunctionSpaceData.__init__ (20,369 us, 0.05%)</title><rect x="26.2" y="119" width="0.6" height="15.0" fill="rgb(146.420960414784,146.420960414784,155.758895564152)" rx="2" ry="2" />
<text  x="29.17" y="129.5" ></text>
</g>
<g >
<title>firedrake.matrix_free.operators.ImplicitMatrixContext.__init__ (12,340 us, 0.03%)</title><rect x="121.0" y="103" width="0.4" height="15.0" fill="rgb(127.408828962956,162.979958075798,127.408828962956)" rx="2" ry="2" />
<text  x="123.96" y="113.5" ></text>
</g>
<g >
<title>firedrake.parloops.par_loop (10,471 us, 0.03%)</title><rect x="461.2" y="183" width="0.3" height="15.0" fill="rgb(150.409990793845,150.409990793845,121.21764769325)" rx="2" ry="2" />
<text  x="464.21" y="193.5" ></text>
</g>
<g >
<title>firedrake.tsfc_interface.compile_form (46,782 us, 0.13%)</title><rect x="1188.3" y="167" width="1.5" height="15.0" fill="rgb(133.401172691789,133.401172691789,153.238936650024)" rx="2" ry="2" />
<text  x="1191.32" y="177.5" ></text>
</g>
<g >
<title>firedrake.mg.embedded.TransferManager.op (595,383 us, 1.60%)</title><rect x="618.0" y="263" width="18.9" height="15.0" fill="rgb(152.477174120341,115.658334922611,115.658334922611)" rx="2" ry="2" />
<text  x="620.96" y="273.5" ></text>
</g>
<g >
<title>firedrake.parloops.par_loop (7,889 us, 0.02%)</title><rect x="1186.0" y="151" width="0.3" height="15.0" fill="rgb(149.442181834475,149.442181834475,116.527496582454)" rx="2" ry="2" />
<text  x="1189.05" y="161.5" ></text>
</g>
<g >
<title>firedrake.pointquery_utils.to_reference_coordinates (315,669 us, 0.85%)</title><rect x="660.2" y="295" width="10.1" height="15.0" fill="rgb(137.134986852445,104.533403809391,137.134986852445)" rx="2" ry="2" />
<text  x="663.24" y="305.5" ></text>
</g>
<g >
<title>firedrake.assemble.assemble (8,653,607 us, 23.32%)</title><rect x="121.8" y="183" width="275.3" height="15.0" fill="rgb(148.786110625096,148.786110625096,113.348074567773)" rx="2" ry="2" />
<text  x="124.85" y="193.5" >firedrake.assemble.assemble</text>
</g>
<g >
<title>firedrake.mg.interface.restrict (354,567 us, 0.96%)</title><rect x="670.3" y="247" width="11.3" height="15.0" fill="rgb(105.677824988975,144.434991663808,144.434991663808)" rx="2" ry="2" />
<text  x="673.28" y="257.5" ></text>
</g>
<g >
<title>CreateFunctionSpace (5,728 us, 0.02%)</title><rect x="1182.3" y="199" width="0.2" height="15.0" fill="rgb(145.790369995992,154.834540369331,154.834540369331)" rx="2" ry="2" />
<text  x="1185.29" y="209.5" ></text>
</g>
<g >
<title>firedrake.variational_solver.NonlinearVariationalSolver.__init__ (24,342 us, 0.07%)</title><rect x="120.6" y="71" width="0.8" height="15.0" fill="rgb(148.153825823043,148.153825823043,110.283925142438)" rx="2" ry="2" />
<text  x="123.58" y="81.5" ></text>
</g>
</g>
</svg>
