<?xml version="1.0" standalone="no"?>
<!DOCTYPE svg PUBLIC "-//W3C//DTD SVG 1.1//EN" "http://www.w3.org/Graphics/SVG/1.1/DTD/svg11.dtd">
<svg version="1.1" width="1200" height="395" onload="init(evt)" viewBox="0 0 1200 395" xmlns="http://www.w3.org/2000/svg" xmlns:xlink="http://www.w3.org/1999/xlink">
<!-- Flame graph stack visualization. See https://github.com/brendangregg/FlameGraph for latest version, and http://www.brendangregg.com/flamegraphs.html for examples. -->
<!-- NOTES:  -->
<defs>
	<linearGradient id="background" y1="0" y2="1" x1="0" x2="0" >
		<stop stop-color="#eeeeee" offset="5%" />
		<stop stop-color="#eeeeb0" offset="95%" />
	</linearGradient>
</defs>
<style type="text/css">
	text { font-family:Verdana; font-size:13px; fill:rgb(0,0,0); }
	#search, #ignorecase { opacity:0.1; cursor:pointer; }
	#search:hover, #search.show, #ignorecase:hover, #ignorecase.show { opacity:1; }
	#subtitle { text-anchor:middle; font-color:rgb(160,160,160); }
	#title { text-anchor:middle; font-size:18px}
	#unzoom { cursor:pointer; }
	#frames > *:hover { stroke:black; stroke-width:0.5; cursor:pointer; }
	.hide { display:none; }
	.parent { opacity:0.5; }
</style>
<script type="text/ecmascript">
<![CDATA[
	"use strict";
	var details, searchbtn, unzoombtn, matchedtxt, svg, searching, currentSearchTerm, ignorecase, ignorecaseBtn;
	function init(evt) {
		details = document.getElementById("details").firstChild;
		searchbtn = document.getElementById("search");
		ignorecaseBtn = document.getElementById("ignorecase");
		unzoombtn = document.getElementById("unzoom");
		matchedtxt = document.getElementById("matched");
		svg = document.getElementsByTagName("svg")[0];
		searching = 0;
		currentSearchTerm = null;

		// use GET parameters to restore a flamegraphs state.
		var params = get_params();
		if (params.x && params.y)
			zoom(find_group(document.querySelector('[x="' + params.x + '"][y="' + params.y + '"]')));
                if (params.s) search(params.s);
	}

	// event listeners
	window.addEventListener("click", function(e) {
		var target = find_group(e.target);
		if (target) {
			if (target.nodeName == "a") {
				if (e.ctrlKey === false) return;
				e.preventDefault();
			}
			if (target.classList.contains("parent")) unzoom();
			zoom(target);
			if (!document.querySelector('.parent')) {
				clearzoom();
				return;
			}

			// set parameters for zoom state
			var el = target.querySelector("rect");
			if (el && el.attributes && el.attributes.y && el.attributes._orig_x) {
				var params = get_params()
				params.x = el.attributes._orig_x.value;
				params.y = el.attributes.y.value;
				history.replaceState(null, null, parse_params(params));
			}
		}
		else if (e.target.id == "unzoom") clearzoom();
		else if (e.target.id == "search") search_prompt();
		else if (e.target.id == "ignorecase") toggle_ignorecase();
	}, false)

	// mouse-over for info
	// show
	window.addEventListener("mouseover", function(e) {
		var target = find_group(e.target);
		if (target) details.nodeValue = "Function: " + g_to_text(target);
	}, false)

	// clear
	window.addEventListener("mouseout", function(e) {
		var target = find_group(e.target);
		if (target) details.nodeValue = ' ';
	}, false)

	// ctrl-F for search
	// ctrl-I to toggle case-sensitive search
	window.addEventListener("keydown",function (e) {
		if (e.keyCode === 114 || (e.ctrlKey && e.keyCode === 70)) {
			e.preventDefault();
			search_prompt();
		}
		else if (e.ctrlKey && e.keyCode === 73) {
			e.preventDefault();
			toggle_ignorecase();
		}
	}, false)

	// functions
	function get_params() {
		var params = {};
		var paramsarr = window.location.search.substr(1).split('&');
		for (var i = 0; i < paramsarr.length; ++i) {
			var tmp = paramsarr[i].split("=");
			if (!tmp[0] || !tmp[1]) continue;
			params[tmp[0]]  = decodeURIComponent(tmp[1]);
		}
		return params;
	}
	function parse_params(params) {
		var uri = "?";
		for (var key in params) {
			uri += key + '=' + encodeURIComponent(params[key]) + '&';
		}
		if (uri.slice(-1) == "&")
			uri = uri.substring(0, uri.length - 1);
		if (uri == '?')
			uri = window.location.href.split('?')[0];
		return uri;
	}
	function find_child(node, selector) {
		var children = node.querySelectorAll(selector);
		if (children.length) return children[0];
	}
	function find_group(node) {
		var parent = node.parentElement;
		if (!parent) return;
		if (parent.id == "frames") return node;
		return find_group(parent);
	}
	function orig_save(e, attr, val) {
		if (e.attributes["_orig_" + attr] != undefined) return;
		if (e.attributes[attr] == undefined) return;
		if (val == undefined) val = e.attributes[attr].value;
		e.setAttribute("_orig_" + attr, val);
	}
	function orig_load(e, attr) {
		if (e.attributes["_orig_"+attr] == undefined) return;
		e.attributes[attr].value = e.attributes["_orig_" + attr].value;
		e.removeAttribute("_orig_"+attr);
	}
	function g_to_text(e) {
		var text = find_child(e, "title").firstChild.nodeValue;
		return (text)
	}
	function g_to_func(e) {
		var func = g_to_text(e);
		// if there's any manipulation we want to do to the function
		// name before it's searched, do it here before returning.
		return (func);
	}
	function update_text(e) {
		var r = find_child(e, "rect");
		var t = find_child(e, "text");
		var w = parseFloat(r.attributes.width.value) -3;
		var txt = find_child(e, "title").textContent.replace(/\([^(]*\)$/,"");
		t.attributes.x.value = parseFloat(r.attributes.x.value) + 3;

		// Smaller than this size won't fit anything
		if (w < 2 * 13 * 0.59) {
			t.textContent = "";
			return;
		}

		t.textContent = txt;
		// Fit in full text width
		if (/^ *$/.test(txt) || t.getSubStringLength(0, txt.length) < w)
			return;

		for (var x = txt.length - 2; x > 0; x--) {
			if (t.getSubStringLength(0, x + 2) <= w) {
				t.textContent = txt.substring(0, x) + "..";
				return;
			}
		}
		t.textContent = "";
	}

	// zoom
	function zoom_reset(e) {
		if (e.attributes != undefined) {
			orig_load(e, "x");
			orig_load(e, "width");
		}
		if (e.childNodes == undefined) return;
		for (var i = 0, c = e.childNodes; i < c.length; i++) {
			zoom_reset(c[i]);
		}
	}
	function zoom_child(e, x, ratio) {
		if (e.attributes != undefined) {
			if (e.attributes.x != undefined) {
				orig_save(e, "x");
				e.attributes.x.value = (parseFloat(e.attributes.x.value) - x - 10) * ratio + 10;
				if (e.tagName == "text")
					e.attributes.x.value = find_child(e.parentNode, "rect[x]").attributes.x.value + 3;
			}
			if (e.attributes.width != undefined) {
				orig_save(e, "width");
				e.attributes.width.value = parseFloat(e.attributes.width.value) * ratio;
			}
		}

		if (e.childNodes == undefined) return;
		for (var i = 0, c = e.childNodes; i < c.length; i++) {
			zoom_child(c[i], x - 10, ratio);
		}
	}
	function zoom_parent(e) {
		if (e.attributes) {
			if (e.attributes.x != undefined) {
				orig_save(e, "x");
				e.attributes.x.value = 10;
			}
			if (e.attributes.width != undefined) {
				orig_save(e, "width");
				e.attributes.width.value = parseInt(svg.width.baseVal.value) - (10 * 2);
			}
		}
		if (e.childNodes == undefined) return;
		for (var i = 0, c = e.childNodes; i < c.length; i++) {
			zoom_parent(c[i]);
		}
	}
	function zoom(node) {
		var attr = find_child(node, "rect").attributes;
		var width = parseFloat(attr.width.value);
		var xmin = parseFloat(attr.x.value);
		var xmax = parseFloat(xmin + width);
		var ymin = parseFloat(attr.y.value);
		var ratio = (svg.width.baseVal.value - 2 * 10) / width;

		// XXX: Workaround for JavaScript float issues (fix me)
		var fudge = 0.0001;

		unzoombtn.classList.remove("hide");

		var el = document.getElementById("frames").children;
		for (var i = 0; i < el.length; i++) {
			var e = el[i];
			var a = find_child(e, "rect").attributes;
			var ex = parseFloat(a.x.value);
			var ew = parseFloat(a.width.value);
			var upstack;
			// Is it an ancestor
			if (1 == 0) {
				upstack = parseFloat(a.y.value) > ymin;
			} else {
				upstack = parseFloat(a.y.value) < ymin;
			}
			if (upstack) {
				// Direct ancestor
				if (ex <= xmin && (ex+ew+fudge) >= xmax) {
					e.classList.add("parent");
					zoom_parent(e);
					update_text(e);
				}
				// not in current path
				else
					e.classList.add("hide");
			}
			// Children maybe
			else {
				// no common path
				if (ex < xmin || ex + fudge >= xmax) {
					e.classList.add("hide");
				}
				else {
					zoom_child(e, xmin, ratio);
					update_text(e);
				}
			}
		}
		search();
	}
	function unzoom() {
		unzoombtn.classList.add("hide");
		var el = document.getElementById("frames").children;
		for(var i = 0; i < el.length; i++) {
			el[i].classList.remove("parent");
			el[i].classList.remove("hide");
			zoom_reset(el[i]);
			update_text(el[i]);
		}
		search();
	}
	function clearzoom() {
		unzoom();

		// remove zoom state
		var params = get_params();
		if (params.x) delete params.x;
		if (params.y) delete params.y;
		history.replaceState(null, null, parse_params(params));
	}

	// search
	function toggle_ignorecase() {
		ignorecase = !ignorecase;
		if (ignorecase) {
			ignorecaseBtn.classList.add("show");
		} else {
			ignorecaseBtn.classList.remove("show");
		}
		reset_search();
		search();
	}
	function reset_search() {
		var el = document.querySelectorAll("#frames rect");
		for (var i = 0; i < el.length; i++) {
			orig_load(el[i], "fill")
		}
		var params = get_params();
		delete params.s;
		history.replaceState(null, null, parse_params(params));
	}
	function search_prompt() {
		if (!searching) {
			var term = prompt("Enter a search term (regexp " +
			    "allowed, eg: ^ext4_)"
			    + (ignorecase ? ", ignoring case" : "")
			    + "\nPress Ctrl-i to toggle case sensitivity", "");
			if (term != null) search(term);
		} else {
			reset_search();
			searching = 0;
			currentSearchTerm = null;
			searchbtn.classList.remove("show");
			searchbtn.firstChild.nodeValue = "Search"
			matchedtxt.classList.add("hide");
			matchedtxt.firstChild.nodeValue = ""
		}
	}
	function search(term) {
		if (term) currentSearchTerm = term;

		var re = new RegExp(currentSearchTerm, ignorecase ? 'i' : '');
		var el = document.getElementById("frames").children;
		var matches = new Object();
		var maxwidth = 0;
		for (var i = 0; i < el.length; i++) {
			var e = el[i];
			var func = g_to_func(e);
			var rect = find_child(e, "rect");
			if (func == null || rect == null)
				continue;

			// Save max width. Only works as we have a root frame
			var w = parseFloat(rect.attributes.width.value);
			if (w > maxwidth)
				maxwidth = w;

			if (func.match(re)) {
				// highlight
				var x = parseFloat(rect.attributes.x.value);
				orig_save(rect, "fill");
				rect.attributes.fill.value = "rgb(230,0,230)";

				// remember matches
				if (matches[x] == undefined) {
					matches[x] = w;
				} else {
					if (w > matches[x]) {
						// overwrite with parent
						matches[x] = w;
					}
				}
				searching = 1;
			}
		}
		if (!searching)
			return;
		var params = get_params();
		params.s = currentSearchTerm;
		history.replaceState(null, null, parse_params(params));

		searchbtn.classList.add("show");
		searchbtn.firstChild.nodeValue = "Reset Search";

		// calculate percent matched, excluding vertical overlap
		var count = 0;
		var lastx = -1;
		var lastw = 0;
		var keys = Array();
		for (k in matches) {
			if (matches.hasOwnProperty(k))
				keys.push(k);
		}
		// sort the matched frames by their x location
		// ascending, then width descending
		keys.sort(function(a, b){
			return a - b;
		});
		// Step through frames saving only the biggest bottom-up frames
		// thanks to the sort order. This relies on the tree property
		// where children are always smaller than their parents.
		var fudge = 0.0001;	// JavaScript floating point
		for (var k in keys) {
			var x = parseFloat(keys[k]);
			var w = matches[keys[k]];
			if (x >= lastx + lastw - fudge) {
				count += w;
				lastx = x;
				lastw = w;
			}
		}
		// display matched percent
		matchedtxt.classList.remove("hide");
		var pct = 100 * count / maxwidth;
		if (pct != 100) pct = pct.toFixed(1)
		matchedtxt.firstChild.nodeValue = "Matched: " + pct + "%";
	}
]]>
</script>
<rect x="0.0" y="0" width="1200.0" height="395.0" fill="url(#background)"  />
<text id="title" x="600.00" y="26" >Firedrake example</text>
<text id="details" x="10.00" y="377" > </text>
<text id="unzoom" x="10.00" y="26" class="hide">Reset Zoom</text>
<text id="search" x="1090.00" y="26" >Search</text>
<text id="ignorecase" x="1174.00" y="26" >ic</text>
<text id="matched" x="1090.00" y="377" > </text>
<g id="frames">
<g >
<title>ParLoopExecute (6,681 us, 0.14%)</title><rect x="949.1" y="247" width="1.6" height="15.0" fill="rgb(0,0,0)" rx="2" ry="2" />
<text  x="952.06" y="257.5" ></text>
</g>
<g >
<title>all (4,752,785 us, 100%)</title><rect x="10.0" y="39" width="1180.0" height="15.0" fill="rgb(0,0,0)" rx="2" ry="2" />
<text  x="13.00" y="49.5" ></text>
</g>
<g >
<title>Log_Event_mtf_solve_85 (1,375 us, 0.03%)</title><rect x="947.0" y="279" width="0.3" height="15.0" fill="rgb(0,0,0)" rx="2" ry="2" />
<text  x="949.98" y="289.5" ></text>
</g>
<g >
<title>KSPSetUp (705,002 us, 14.83%)</title><rect x="957.9" y="199" width="175.1" height="15.0" fill="rgb(0,0,0)" rx="2" ry="2" />
<text  x="960.93" y="209.5" >KSPSetUp</text>
</g>
<g >
<title>firedrake.functionspacedata.get_shared_data (1,477 us, 0.03%)</title><rect x="1171.3" y="199" width="0.4" height="15.0" fill="rgb(0,0,0)" rx="2" ry="2" />
<text  x="1174.31" y="209.5" ></text>
</g>
<g >
<title>firedrake.tsfc_interface.compile_form (15,644 us, 0.33%)</title><rect x="1161.5" y="167" width="3.9" height="15.0" fill="rgb(0,0,0)" rx="2" ry="2" />
<text  x="1164.54" y="177.5" ></text>
</g>
<g >
<title>firedrake.matrix_free.operators.ImplicitMatrixContext.__init__ (7,419 us, 0.16%)</title><rect x="694.7" y="103" width="1.8" height="15.0" fill="rgb(0,0,0)" rx="2" ry="2" />
<text  x="697.69" y="113.5" ></text>
</g>
<g >
<title>Log_Event_tensorshell_knl_83 (4,090 us, 0.09%)</title><rect x="1117.7" y="327" width="1.0" height="15.0" fill="rgb(0,0,0)" rx="2" ry="2" />
<text  x="1120.69" y="337.5" ></text>
</g>
<g >
<title>firedrake.variational_solver.NonlinearVariationalProblem.__init__ (1,258 us, 0.03%)</title><rect x="1165.9" y="167" width="0.3" height="15.0" fill="rgb(0,0,0)" rx="2" ry="2" />
<text  x="1168.88" y="177.5" ></text>
</g>
<g >
<title>ParLoopExecute (44,178 us, 0.93%)</title><rect x="927.0" y="167" width="10.9" height="15.0" fill="rgb(0,0,0)" rx="2" ry="2" />
<text  x="929.96" y="177.5" ></text>
</g>
<g >
<title>firedrake.functionspaceimpl.FunctionSpace.__init__ (2,218 us, 0.05%)</title><rect x="1175.4" y="199" width="0.6" height="15.0" fill="rgb(0,0,0)" rx="2" ry="2" />
<text  x="1178.42" y="209.5" ></text>
</g>
<g >
<title>MatMult (10,218 us, 0.21%)</title><rect x="948.2" y="215" width="2.5" height="15.0" fill="rgb(0,0,0)" rx="2" ry="2" />
<text  x="951.18" y="225.5" ></text>
</g>
<g >
<title>Log_Event_mtf_solve_110 (7,499 us, 0.16%)</title><rect x="1114.3" y="311" width="1.9" height="15.0" fill="rgb(0,0,0)" rx="2" ry="2" />
<text  x="1117.30" y="321.5" ></text>
</g>
<g >
<title>Log_Event_mtf_solve_85 (1,538 us, 0.03%)</title><rect x="957.2" y="327" width="0.3" height="15.0" fill="rgb(0,0,0)" rx="2" ry="2" />
<text  x="960.17" y="337.5" ></text>
</g>
<g >
<title>Log_Event_mtf_solve_110 (6,732 us, 0.14%)</title><rect x="953.8" y="295" width="1.7" height="15.0" fill="rgb(0,0,0)" rx="2" ry="2" />
<text  x="956.84" y="305.5" ></text>
</g>
<g >
<title>firedrake.functionspacedata.FunctionSpaceData.__init__ (2,218 us, 0.05%)</title><rect x="1175.4" y="231" width="0.6" height="15.0" fill="rgb(0,0,0)" rx="2" ry="2" />
<text  x="1178.42" y="241.5" ></text>
</g>
<g >
<title>pyop2.global_kernel.GlobalKernel.compile (31,599 us, 0.66%)</title><rect x="1139.9" y="199" width="7.8" height="15.0" fill="rgb(0,0,0)" rx="2" ry="2" />
<text  x="1142.86" y="209.5" ></text>
</g>
<g >
<title>Log_Event_slate_loopy_knl_70 (27,164 us, 0.57%)</title><rect x="951.2" y="279" width="6.7" height="15.0" fill="rgb(0,0,0)" rx="2" ry="2" />
<text  x="954.19" y="289.5" ></text>
</g>
<g >
<title>Log_Event_mtf_solve_133 (1,989 us, 0.04%)</title><rect x="1116.2" y="311" width="0.5" height="15.0" fill="rgb(0,0,0)" rx="2" ry="2" />
<text  x="1119.16" y="321.5" ></text>
</g>
<g >
<title>firedrake.functionspaceimpl.FunctionSpace.__init__ (17,867 us, 0.38%)</title><rect x="309.9" y="87" width="4.4" height="15.0" fill="rgb(0,0,0)" rx="2" ry="2" />
<text  x="312.85" y="97.5" ></text>
</g>
<g >
<title>SCSolve (919,384 us, 19.34%)</title><rect x="937.9" y="135" width="228.3" height="15.0" fill="rgb(0,0,0)" rx="2" ry="2" />
<text  x="940.93" y="145.5" >SCSolve</text>
</g>
<g >
<title>Parloop_Cells_wrap_slate_loopy_knl_70 (80,673 us, 1.70%)</title><rect x="1112.4" y="279" width="20.0" height="15.0" fill="rgb(0,0,0)" rx="2" ry="2" />
<text  x="1115.39" y="289.5" ></text>
</g>
<g >
<title>firedrake.bcs.BCBase.set (1,038 us, 0.02%)</title><rect x="1132.4" y="263" width="0.3" height="15.0" fill="rgb(0,0,0)" rx="2" ry="2" />
<text  x="1135.42" y="273.5" ></text>
</g>
<g >
<title>Log_Event_mtf_solve_133 (1,593 us, 0.03%)</title><rect x="955.5" y="295" width="0.4" height="15.0" fill="rgb(0,0,0)" rx="2" ry="2" />
<text  x="958.51" y="305.5" ></text>
</g>
<g >
<title>firedrake.ufl_expr.adjoint (11,891 us, 0.25%)</title><rect x="691.1" y="103" width="2.9" height="15.0" fill="rgb(0,0,0)" rx="2" ry="2" />
<text  x="694.08" y="113.5" ></text>
</g>
<g >
<title>firedrake.tsfc_interface.compile_form (17,438 us, 0.37%)</title><rect x="1134.1" y="215" width="4.4" height="15.0" fill="rgb(0,0,0)" rx="2" ry="2" />
<text  x="1137.13" y="225.5" ></text>
</g>
<g >
<title>Log_Event_tensorshell_knl_121 (3,339 us, 0.07%)</title><rect x="954.7" y="311" width="0.8" height="15.0" fill="rgb(0,0,0)" rx="2" ry="2" />
<text  x="957.68" y="321.5" ></text>
</g>
<g >
<title>firedrake.utility_meshes.RectangleMesh (1,708 us, 0.04%)</title><rect x="689.4" y="87" width="0.4" height="15.0" fill="rgb(0,0,0)" rx="2" ry="2" />
<text  x="692.39" y="97.5" ></text>
</g>
<g >
<title>PCSetUp (23,489 us, 0.49%)</title><rect x="1133.0" y="199" width="5.8" height="15.0" fill="rgb(0,0,0)" rx="2" ry="2" />
<text  x="1135.96" y="209.5" ></text>
</g>
<g >
<title>firedrake.ufl_expr.adjoint (2,317 us, 0.05%)</title><rect x="1189.4" y="135" width="0.6" height="15.0" fill="rgb(0,0,0)" rx="2" ry="2" />
<text  x="1192.42" y="145.5" ></text>
</g>
<g >
<title>firedrake.formmanipulation.ExtractSubBlock.argument (1,573 us, 0.03%)</title><rect x="720.9" y="199" width="0.4" height="15.0" fill="rgb(0,0,0)" rx="2" ry="2" />
<text  x="723.89" y="209.5" ></text>
</g>
<g >
<title>pyop2.global_kernel.GlobalKernel.compile (32,649 us, 0.69%)</title><rect x="1181.3" y="183" width="8.1" height="15.0" fill="rgb(0,0,0)" rx="2" ry="2" />
<text  x="1184.32" y="193.5" ></text>
</g>
<g >
<title>firedrake.functionspaceimpl.FunctionSpace.__init__ (6,219 us, 0.13%)</title><rect x="307.9" y="119" width="1.6" height="15.0" fill="rgb(0,0,0)" rx="2" ry="2" />
<text  x="310.94" y="129.5" ></text>
</g>
<g >
<title>Log_Event_tensorshell_knl_121 (3,247 us, 0.07%)</title><rect x="1115.4" y="327" width="0.8" height="15.0" fill="rgb(0,0,0)" rx="2" ry="2" />
<text  x="1118.35" y="337.5" ></text>
</g>
<g >
<title>firedrake.ufl_expr.action (4,255 us, 0.09%)</title><rect x="694.7" y="119" width="1.0" height="15.0" fill="rgb(0,0,0)" rx="2" ry="2" />
<text  x="697.69" y="129.5" ></text>
</g>
<g >
<title>Parloop_Cells_wrap_slate_loopy_knl_70 (27,164 us, 0.57%)</title><rect x="951.2" y="263" width="6.7" height="15.0" fill="rgb(0,0,0)" rx="2" ry="2" />
<text  x="954.19" y="273.5" ></text>
</g>
<g >
<title>HybridRHS (832,795 us, 17.52%)</title><rect x="731.2" y="151" width="206.7" height="15.0" fill="rgb(0,0,0)" rx="2" ry="2" />
<text  x="734.17" y="161.5" >HybridRHS</text>
</g>
<g >
<title>Parloop_Cells_wrap_form0_cell_integral_otherwise (33,009 us, 0.69%)</title><rect x="698.1" y="167" width="8.2" height="15.0" fill="rgb(0,0,0)" rx="2" ry="2" />
<text  x="701.07" y="177.5" ></text>
</g>
<g >
<title>Log_Event_tensorshell_knl_111 (3,393 us, 0.07%)</title><rect x="953.8" y="311" width="0.9" height="15.0" fill="rgb(0,0,0)" rx="2" ry="2" />
<text  x="956.84" y="321.5" ></text>
</g>
<g >
<title>ParLoopExecute (32,649 us, 0.69%)</title><rect x="1181.3" y="151" width="8.1" height="15.0" fill="rgb(0,0,0)" rx="2" ry="2" />
<text  x="1184.32" y="161.5" ></text>
</g>
<g >
<title>SCForwardElim (872,607 us, 18.36%)</title><rect x="721.3" y="135" width="216.6" height="15.0" fill="rgb(0,0,0)" rx="2" ry="2" />
<text  x="724.28" y="145.5" >SCForwardElim</text>
</g>
<g >
<title>firedrake.bcs.BCBase.zero (1,155 us, 0.02%)</title><rect x="1132.7" y="263" width="0.3" height="15.0" fill="rgb(0,0,0)" rx="2" ry="2" />
<text  x="1135.68" y="273.5" ></text>
</g>
<g >
<title>firedrake.parloops.par_loop (39,812 us, 0.84%)</title><rect x="721.3" y="167" width="9.9" height="15.0" fill="rgb(0,0,0)" rx="2" ry="2" />
<text  x="724.28" y="177.5" ></text>
</g>
<g >
<title>firedrake.variational_solver.NonlinearVariationalSolver.solve (1,987,580 us, 41.82%)</title><rect x="696.5" y="71" width="493.5" height="15.0" fill="rgb(0,0,0)" rx="2" ry="2" />
<text  x="699.53" y="81.5" >firedrake.variational_solver.NonlinearVariationalSolver.solve</text>
</g>
<g >
<title>firedrake.functionspacedata.FunctionSpaceData.__init__ (6,219 us, 0.13%)</title><rect x="307.9" y="151" width="1.6" height="15.0" fill="rgb(0,0,0)" rx="2" ry="2" />
<text  x="310.94" y="161.5" ></text>
</g>
<g >
<title>HybridBreak (39,812 us, 0.84%)</title><rect x="721.3" y="151" width="9.9" height="15.0" fill="rgb(0,0,0)" rx="2" ry="2" />
<text  x="724.28" y="161.5" ></text>
</g>
<g >
<title>Log_Event_mtf_solve_123 (2,038 us, 0.04%)</title><rect x="1115.4" y="343" width="0.5" height="15.0" fill="rgb(0,0,0)" rx="2" ry="2" />
<text  x="1118.35" y="353.5" ></text>
</g>
<g >
<title>firedrake.functionspacedata.FunctionSpaceData.__init__ (4,816 us, 0.10%)</title><rect x="1171.7" y="183" width="1.2" height="15.0" fill="rgb(0,0,0)" rx="2" ry="2" />
<text  x="1174.67" y="193.5" ></text>
</g>
<g >
<title>firedrake.functionspace.VectorFunctionSpace (6,219 us, 0.13%)</title><rect x="307.9" y="87" width="1.6" height="15.0" fill="rgb(0,0,0)" rx="2" ry="2" />
<text  x="310.94" y="97.5" ></text>
</g>
<g >
<title>MatResidual (29,047 us, 0.61%)</title><rect x="950.7" y="199" width="7.2" height="15.0" fill="rgb(0,0,0)" rx="2" ry="2" />
<text  x="953.72" y="209.5" ></text>
</g>
<g >
<title>Parloop_Cells_wrap_pyop2_kernel_uniform_extrusion (39,618 us, 0.83%)</title><rect x="298.1" y="119" width="9.8" height="15.0" fill="rgb(0,0,0)" rx="2" ry="2" />
<text  x="301.10" y="129.5" ></text>
</g>
<g >
<title>Log_Event_subkernel132_cell_to__cell_integral_otherwise (1,204 us, 0.03%)</title><rect x="1119.7" y="311" width="0.3" height="15.0" fill="rgb(0,0,0)" rx="2" ry="2" />
<text  x="1122.74" y="321.5" ></text>
</g>
<g >
<title>Log_Event_mtf_solve_72 (6,612 us, 0.14%)</title><rect x="955.9" y="295" width="1.6" height="15.0" fill="rgb(0,0,0)" rx="2" ry="2" />
<text  x="958.91" y="305.5" ></text>
</g>
<g >
<title>PCApply (769,816 us, 16.20%)</title><rect x="947.7" y="167" width="191.1" height="15.0" fill="rgb(0,0,0)" rx="2" ry="2" />
<text  x="950.67" y="177.5" >PCApply</text>
</g>
<g >
<title>firedrake.matrix_free.operators.ImplicitMatrixContext.mult (39,220 us, 0.83%)</title><rect x="937.9" y="183" width="9.8" height="15.0" fill="rgb(0,0,0)" rx="2" ry="2" />
<text  x="940.93" y="193.5" ></text>
</g>
<g >
<title>MatMult (97,276 us, 2.05%)</title><rect x="697.1" y="119" width="24.2" height="15.0" fill="rgb(0,0,0)" rx="2" ry="2" />
<text  x="700.13" y="129.5" >M..</text>
</g>
<g >
<title>firedrake.assemble.allocate_matrix (1,796 us, 0.04%)</title><rect x="1156.0" y="167" width="0.5" height="15.0" fill="rgb(0,0,0)" rx="2" ry="2" />
<text  x="1159.05" y="177.5" ></text>
</g>
<g >
<title>FunctionSpaceData: CreateElement (4,816 us, 0.10%)</title><rect x="1171.7" y="199" width="1.2" height="15.0" fill="rgb(0,0,0)" rx="2" ry="2" />
<text  x="1174.67" y="209.5" ></text>
</g>
<g >
<title>PCApply (41,325 us, 0.87%)</title><rect x="947.7" y="183" width="10.2" height="15.0" fill="rgb(0,0,0)" rx="2" ry="2" />
<text  x="950.67" y="193.5" ></text>
</g>
<g >
<title>KSPSolve (12,278 us, 0.26%)</title><rect x="947.7" y="199" width="3.0" height="15.0" fill="rgb(0,0,0)" rx="2" ry="2" />
<text  x="950.67" y="209.5" ></text>
</g>
<g >
<title>pyop2.global_kernel.GlobalKernel.compile (33,913 us, 0.71%)</title><rect x="722.7" y="215" width="8.5" height="15.0" fill="rgb(0,0,0)" rx="2" ry="2" />
<text  x="725.75" y="225.5" ></text>
</g>
<g >
<title>Log_Event_mtf_solve_75 (1,521 us, 0.03%)</title><rect x="956.4" y="327" width="0.3" height="15.0" fill="rgb(0,0,0)" rx="2" ry="2" />
<text  x="959.35" y="337.5" ></text>
</g>
<g >
<title>firedrake.extrusion_utils.make_extruded_coords (70,793 us, 1.49%)</title><rect x="290.4" y="87" width="17.5" height="15.0" fill="rgb(0,0,0)" rx="2" ry="2" />
<text  x="293.36" y="97.5" ></text>
</g>
<g >
<title>CreateFunctionSpace (19,347 us, 0.41%)</title><rect x="309.5" y="71" width="4.8" height="15.0" fill="rgb(0,0,0)" rx="2" ry="2" />
<text  x="312.48" y="81.5" ></text>
</g>
<g >
<title>firedrake.tsfc_interface.compile_form (28,142 us, 0.59%)</title><rect x="714.3" y="151" width="7.0" height="15.0" fill="rgb(0,0,0)" rx="2" ry="2" />
<text  x="717.30" y="161.5" ></text>
</g>
<g >
<title>Log_Event_mtf_solve_113 (2,046 us, 0.04%)</title><rect x="1114.6" y="343" width="0.5" height="15.0" fill="rgb(0,0,0)" rx="2" ry="2" />
<text  x="1117.56" y="353.5" ></text>
</g>
<g >
<title>firedrake.mesh.MeshTopology._facets (2,268 us, 0.05%)</title><rect x="313.7" y="135" width="0.6" height="15.0" fill="rgb(0,0,0)" rx="2" ry="2" />
<text  x="316.72" y="145.5" ></text>
</g>
<g >
<title>CreateFunctionSpace (7,495 us, 0.16%)</title><rect x="1171.0" y="135" width="1.9" height="15.0" fill="rgb(0,0,0)" rx="2" ry="2" />
<text  x="1174.01" y="145.5" ></text>
</g>
<g >
<title>CreateMesh (1,477 us, 0.03%)</title><rect x="314.3" y="71" width="0.4" height="15.0" fill="rgb(0,0,0)" rx="2" ry="2" />
<text  x="317.29" y="81.5" ></text>
</g>
<g >
<title>firedrake.formmanipulation.ExtractSubBlock.split (12,486 us, 0.26%)</title><rect x="1172.9" y="151" width="3.1" height="15.0" fill="rgb(0,0,0)" rx="2" ry="2" />
<text  x="1175.87" y="161.5" ></text>
</g>
<g >
<title>CreateFunctionSpace (5,840 us, 0.12%)</title><rect x="1174.5" y="183" width="1.5" height="15.0" fill="rgb(0,0,0)" rx="2" ry="2" />
<text  x="1177.52" y="193.5" ></text>
</g>
<g >
<title>PCSetUp (728,491 us, 15.33%)</title><rect x="957.9" y="183" width="180.9" height="15.0" fill="rgb(0,0,0)" rx="2" ry="2" />
<text  x="960.93" y="193.5" >PCSetUp</text>
</g>
<g >
<title>Log_Event_mtf_solve_123 (1,451 us, 0.03%)</title><rect x="945.1" y="279" width="0.4" height="15.0" fill="rgb(0,0,0)" rx="2" ry="2" />
<text  x="948.13" y="289.5" ></text>
</g>
<g >
<title>Log_Event_subkernel140_interior_facet_vert_to__exterior_facet_vert_integral_otherwise (1,043 us, 0.02%)</title><rect x="1120.3" y="311" width="0.3" height="15.0" fill="rgb(0,0,0)" rx="2" ry="2" />
<text  x="1123.31" y="321.5" ></text>
</g>
<g >
<title>KSPSolve (809,036 us, 17.02%)</title><rect x="937.9" y="151" width="200.9" height="15.0" fill="rgb(0,0,0)" rx="2" ry="2" />
<text  x="940.93" y="161.5" >KSPSolve</text>
</g>
<g >
<title>PCApply (1,791,991 us, 37.70%)</title><rect x="721.3" y="119" width="444.9" height="15.0" fill="rgb(0,0,0)" rx="2" ry="2" />
<text  x="724.28" y="129.5" >PCApply</text>
</g>
<g >
<title>CreateFunctionSpace (1,477 us, 0.03%)</title><rect x="1171.3" y="167" width="0.4" height="15.0" fill="rgb(0,0,0)" rx="2" ry="2" />
<text  x="1174.31" y="177.5" ></text>
</g>
<g >
<title>Parloop_Cells_wrap_slate_loopy_knl_70 (2,932 us, 0.06%)</title><rect x="950.0" y="263" width="0.7" height="15.0" fill="rgb(0,0,0)" rx="2" ry="2" />
<text  x="952.99" y="273.5" ></text>
</g>
<g >
<title>Parloop_Cells_wrap_form00_cell_integral_otherwise (33,598 us, 0.71%)</title><rect x="1147.7" y="183" width="8.3" height="15.0" fill="rgb(0,0,0)" rx="2" ry="2" />
<text  x="1150.71" y="193.5" ></text>
</g>
<g >
<title>KSPSolve (1,889,267 us, 39.75%)</title><rect x="697.1" y="103" width="469.1" height="15.0" fill="rgb(0,0,0)" rx="2" ry="2" />
<text  x="700.13" y="113.5" >KSPSolve</text>
</g>
<g >
<title>firedrake (4,752,785 us, 100.00%)</title><rect x="10.0" y="55" width="1180.0" height="15.0" fill="rgb(0,0,0)" rx="2" ry="2" />
<text  x="13.00" y="65.5" >firedrake</text>
</g>
<g >
<title>Log_Event_mtf_solve_95 (1,382 us, 0.03%)</title><rect x="947.3" y="247" width="0.4" height="15.0" fill="rgb(0,0,0)" rx="2" ry="2" />
<text  x="950.33" y="257.5" ></text>
</g>
<g >
<title>KSPSolve (705,002 us, 14.83%)</title><rect x="957.9" y="215" width="175.1" height="15.0" fill="rgb(0,0,0)" rx="2" ry="2" />
<text  x="960.93" y="225.5" >KSPSolve</text>
</g>
<g >
<title>firedrake.ufl_expr.adjoint (3,164 us, 0.07%)</title><rect x="695.7" y="119" width="0.8" height="15.0" fill="rgb(0,0,0)" rx="2" ry="2" />
<text  x="698.75" y="129.5" ></text>
</g>
<g >
<title>Parloop_Cells_wrap_slate_loopy_knl_70 (24,394 us, 0.51%)</title><rect x="941.6" y="215" width="6.1" height="15.0" fill="rgb(0,0,0)" rx="2" ry="2" />
<text  x="944.61" y="225.5" ></text>
</g>
<g >
<title>Log_Event_slate_loopy_knl_70 (33,059 us, 0.70%)</title><rect x="1112.6" y="295" width="8.3" height="15.0" fill="rgb(0,0,0)" rx="2" ry="2" />
<text  x="1115.65" y="305.5" ></text>
</g>
<g >
<title>firedrake.utility_meshes.SquareMesh (1,708 us, 0.04%)</title><rect x="689.4" y="71" width="0.4" height="15.0" fill="rgb(0,0,0)" rx="2" ry="2" />
<text  x="692.39" y="81.5" ></text>
</g>
<g >
<title>firedrake.functionspacedata.get_shared_data (17,867 us, 0.38%)</title><rect x="309.9" y="103" width="4.4" height="15.0" fill="rgb(0,0,0)" rx="2" ry="2" />
<text  x="312.85" y="113.5" ></text>
</g>
<g >
<title>Log_Event_subkernel112_cell_to__cell_integral_otherwise (1,135 us, 0.02%)</title><rect x="1115.1" y="343" width="0.3" height="15.0" fill="rgb(0,0,0)" rx="2" ry="2" />
<text  x="1118.07" y="353.5" ></text>
</g>
<g >
<title>MatMult (705,002 us, 14.83%)</title><rect x="957.9" y="231" width="175.1" height="15.0" fill="rgb(0,0,0)" rx="2" ry="2" />
<text  x="960.93" y="241.5" >MatMult</text>
</g>
<g >
<title>pyop2.global_kernel.GlobalKernel.compile (39,618 us, 0.83%)</title><rect x="298.1" y="135" width="9.8" height="15.0" fill="rgb(0,0,0)" rx="2" ry="2" />
<text  x="301.10" y="145.5" ></text>
</g>
<g >
<title>pyop2.global_kernel.GlobalKernel.compile (32,345 us, 0.68%)</title><rect x="706.3" y="183" width="8.0" height="15.0" fill="rgb(0,0,0)" rx="2" ry="2" />
<text  x="709.27" y="193.5" ></text>
</g>
<g >
<title>firedrake.ufl_expr.adjoint (1,258 us, 0.03%)</title><rect x="1165.9" y="183" width="0.3" height="15.0" fill="rgb(0,0,0)" rx="2" ry="2" />
<text  x="1168.88" y="193.5" ></text>
</g>
<g >
<title>Log_Event_mtf_solve_85 (1,863 us, 0.04%)</title><rect x="1118.0" y="343" width="0.4" height="15.0" fill="rgb(0,0,0)" rx="2" ry="2" />
<text  x="1120.96" y="353.5" ></text>
</g>
<g >
<title>firedrake.interpolation.make_interpolator (16,482 us, 0.35%)</title><rect x="1176.0" y="135" width="4.1" height="15.0" fill="rgb(0,0,0)" rx="2" ry="2" />
<text  x="1178.97" y="145.5" ></text>
</g>
<g >
<title>Log_Event_mtf_solve_103 (2,359 us, 0.05%)</title><rect x="1113.7" y="311" width="0.6" height="15.0" fill="rgb(0,0,0)" rx="2" ry="2" />
<text  x="1116.71" y="321.5" ></text>
</g>
<g >
<title>firedrake.matrix_free.operators.ImplicitMatrixContext.mult (97,276 us, 2.05%)</title><rect x="697.1" y="135" width="24.2" height="15.0" fill="rgb(0,0,0)" rx="2" ry="2" />
<text  x="700.13" y="145.5" >f..</text>
</g>
<g >
<title>firedrake.variational_solver.LinearVariationalProblem.__init__ (18,393 us, 0.39%)</title><rect x="689.8" y="71" width="4.6" height="15.0" fill="rgb(0,0,0)" rx="2" ry="2" />
<text  x="692.81" y="81.5" ></text>
</g>
<g >
<title>Log_Event_slate_loopy_knl_70 (24,394 us, 0.51%)</title><rect x="941.6" y="231" width="6.1" height="15.0" fill="rgb(0,0,0)" rx="2" ry="2" />
<text  x="944.61" y="241.5" ></text>
</g>
<g >
<title>Log_Event_subkernel94_cell_to__cell_integral_otherwise (1,152 us, 0.02%)</title><rect x="1120.6" y="311" width="0.3" height="15.0" fill="rgb(0,0,0)" rx="2" ry="2" />
<text  x="1123.57" y="321.5" ></text>
</g>
<g >
<title>Log_Event_tensorshell_knl_83 (3,289 us, 0.07%)</title><rect x="956.7" y="311" width="0.8" height="15.0" fill="rgb(0,0,0)" rx="2" ry="2" />
<text  x="959.73" y="321.5" ></text>
</g>
<g >
<title>firedrake.functionspace.make_scalar_element (1,693 us, 0.04%)</title><rect x="1175.0" y="199" width="0.4" height="15.0" fill="rgb(0,0,0)" rx="2" ry="2" />
<text  x="1178.00" y="209.5" ></text>
</g>
<g >
<title>pyop2.global_kernel.GlobalKernel.compile (46,578 us, 0.98%)</title><rect x="1120.9" y="295" width="11.5" height="15.0" fill="rgb(0,0,0)" rx="2" ry="2" />
<text  x="1123.86" y="305.5" ></text>
</g>
<g >
<title>firedrake.functionspace.MixedFunctionSpace (1,269 us, 0.03%)</title><rect x="689.1" y="71" width="0.3" height="15.0" fill="rgb(0,0,0)" rx="2" ry="2" />
<text  x="692.07" y="81.5" ></text>
</g>
<g >
<title>Log_Event_mtf_solve_113 (1,459 us, 0.03%)</title><rect x="944.4" y="279" width="0.4" height="15.0" fill="rgb(0,0,0)" rx="2" ry="2" />
<text  x="947.39" y="289.5" ></text>
</g>
<g >
<title>Parloop_Cells_wrap_par_loop_kernel (32,649 us, 0.69%)</title><rect x="1181.3" y="167" width="8.1" height="15.0" fill="rgb(0,0,0)" rx="2" ry="2" />
<text  x="1184.32" y="177.5" ></text>
</g>
<g >
<title>firedrake.variational_solver.NonlinearVariationalProblem.__init__ (1,367 us, 0.03%)</title><rect x="1138.5" y="215" width="0.3" height="15.0" fill="rgb(0,0,0)" rx="2" ry="2" />
<text  x="1141.46" y="225.5" ></text>
</g>
<g >
<title>SNESSolve (1,987,580 us, 41.82%)</title><rect x="696.5" y="87" width="493.5" height="15.0" fill="rgb(0,0,0)" rx="2" ry="2" />
<text  x="699.53" y="97.5" >SNESSolve</text>
</g>
<g >
<title>firedrake.functionspacedata.get_shared_data (6,219 us, 0.13%)</title><rect x="307.9" y="135" width="1.6" height="15.0" fill="rgb(0,0,0)" rx="2" ry="2" />
<text  x="310.94" y="145.5" ></text>
</g>
<g >
<title>Log_Event_mtf_solve_110 (5,985 us, 0.13%)</title><rect x="944.0" y="247" width="1.5" height="15.0" fill="rgb(0,0,0)" rx="2" ry="2" />
<text  x="947.00" y="257.5" ></text>
</g>
<g >
<title>firedrake.functionspacedata.FunctionSpaceData.__init__ (1,477 us, 0.03%)</title><rect x="1171.3" y="215" width="0.4" height="15.0" fill="rgb(0,0,0)" rx="2" ry="2" />
<text  x="1174.31" y="225.5" ></text>
</g>
<g >
<title>Log_Event_tensorshell_knl_83 (2,980 us, 0.06%)</title><rect x="946.6" y="263" width="0.7" height="15.0" fill="rgb(0,0,0)" rx="2" ry="2" />
<text  x="949.59" y="273.5" ></text>
</g>
<g >
<title>firedrake.formmanipulation.ExtractSubBlock.split (3,130 us, 0.07%)</title><rect x="720.5" y="183" width="0.8" height="15.0" fill="rgb(0,0,0)" rx="2" ry="2" />
<text  x="723.51" y="193.5" ></text>
</g>
<g >
<title>firedrake.ufl_expr.derivative (1,372 us, 0.03%)</title><rect x="694.0" y="103" width="0.4" height="15.0" fill="rgb(0,0,0)" rx="2" ry="2" />
<text  x="697.04" y="113.5" ></text>
</g>
<g >
<title>FunctionSpaceData: CreateElement (6,766 us, 0.14%)</title><rect x="312.0" y="135" width="1.7" height="15.0" fill="rgb(0,0,0)" rx="2" ry="2" />
<text  x="315.04" y="145.5" ></text>
</g>
<g >
<title>firedrake.variational_solver.NonlinearVariationalSolver.__init__ (8,685 us, 0.18%)</title><rect x="694.4" y="71" width="2.1" height="15.0" fill="rgb(0,0,0)" rx="2" ry="2" />
<text  x="697.38" y="81.5" ></text>
</g>
<g >
<title>PCSetUp (95,892 us, 2.02%)</title><rect x="1166.2" y="103" width="23.8" height="15.0" fill="rgb(0,0,0)" rx="2" ry="2" />
<text  x="1169.19" y="113.5" >P..</text>
</g>
<g >
<title>Log_Event_slate_loopy_knl_0 (3,283 us, 0.07%)</title><rect x="927.0" y="199" width="0.8" height="15.0" fill="rgb(0,0,0)" rx="2" ry="2" />
<text  x="929.96" y="209.5" ></text>
</g>
<g >
<title>ParLoopExecute (40,771 us, 0.86%)</title><rect x="297.8" y="103" width="10.1" height="15.0" fill="rgb(0,0,0)" rx="2" ry="2" />
<text  x="300.82" y="113.5" ></text>
</g>
<g >
<title>Log_Event_subkernel139_interior_facet_vert_to__exterior_facet_vert_integral_otherwise (1,093 us, 0.02%)</title><rect x="1120.0" y="311" width="0.3" height="15.0" fill="rgb(0,0,0)" rx="2" ry="2" />
<text  x="1123.04" y="321.5" ></text>
</g>
<g >
<title>Log_Event_tensorshell_knl_73 (4,173 us, 0.09%)</title><rect x="1116.7" y="327" width="1.0" height="15.0" fill="rgb(0,0,0)" rx="2" ry="2" />
<text  x="1119.65" y="337.5" ></text>
</g>
<g >
<title>firedrake.ufl_expr.adjoint (1,367 us, 0.03%)</title><rect x="1138.5" y="231" width="0.3" height="15.0" fill="rgb(0,0,0)" rx="2" ry="2" />
<text  x="1141.46" y="241.5" ></text>
</g>
<g >
<title>ParLoopExecute (33,913 us, 0.71%)</title><rect x="722.7" y="183" width="8.5" height="15.0" fill="rgb(0,0,0)" rx="2" ry="2" />
<text  x="725.75" y="193.5" ></text>
</g>
<g >
<title>CreateFunctionSpace (1,573 us, 0.03%)</title><rect x="720.9" y="215" width="0.4" height="15.0" fill="rgb(0,0,0)" rx="2" ry="2" />
<text  x="723.89" y="225.5" ></text>
</g>
<g >
<title>firedrake.ufl_expr.action (5,130 us, 0.11%)</title><rect x="689.8" y="87" width="1.3" height="15.0" fill="rgb(0,0,0)" rx="2" ry="2" />
<text  x="692.81" y="97.5" ></text>
</g>
<g >
<title>CreateFunctionSpace (6,219 us, 0.13%)</title><rect x="307.9" y="103" width="1.6" height="15.0" fill="rgb(0,0,0)" rx="2" ry="2" />
<text  x="310.94" y="113.5" ></text>
</g>
<g >
<title>Log_Event_mtf_solve_95 (1,922 us, 0.04%)</title><rect x="1118.7" y="311" width="0.5" height="15.0" fill="rgb(0,0,0)" rx="2" ry="2" />
<text  x="1121.70" y="321.5" ></text>
</g>
<g >
<title>ParLoopExecute (24,394 us, 0.51%)</title><rect x="941.6" y="199" width="6.1" height="15.0" fill="rgb(0,0,0)" rx="2" ry="2" />
<text  x="944.61" y="209.5" ></text>
</g>
<g >
<title>firedrake.functionspacedata.get_shared_data (2,218 us, 0.05%)</title><rect x="1175.4" y="215" width="0.6" height="15.0" fill="rgb(0,0,0)" rx="2" ry="2" />
<text  x="1178.42" y="225.5" ></text>
</g>
<g >
<title>ParLoopExecute (81,727 us, 1.72%)</title><rect x="1112.1" y="263" width="20.3" height="15.0" fill="rgb(0,0,0)" rx="2" ry="2" />
<text  x="1115.13" y="273.5" ></text>
</g>
<g >
<title>MatMult (39,220 us, 0.83%)</title><rect x="937.9" y="167" width="9.8" height="15.0" fill="rgb(0,0,0)" rx="2" ry="2" />
<text  x="940.93" y="177.5" ></text>
</g>
<g >
<title>firedrake.functionspace.MixedFunctionSpace (2,679 us, 0.06%)</title><rect x="1171.0" y="151" width="0.7" height="15.0" fill="rgb(0,0,0)" rx="2" ry="2" />
<text  x="1174.01" y="161.5" ></text>
</g>
<g >
<title>Log_Event_mtf_solve_72 (8,263 us, 0.17%)</title><rect x="1116.7" y="311" width="2.0" height="15.0" fill="rgb(0,0,0)" rx="2" ry="2" />
<text  x="1119.65" y="321.5" ></text>
</g>
<g >
<title>MatMult (29,047 us, 0.61%)</title><rect x="950.7" y="215" width="7.2" height="15.0" fill="rgb(0,0,0)" rx="2" ry="2" />
<text  x="953.72" y="225.5" ></text>
</g>
<g >
<title>Log_Event_mtf_solve_133 (1,454 us, 0.03%)</title><rect x="945.5" y="247" width="0.4" height="15.0" fill="rgb(0,0,0)" rx="2" ry="2" />
<text  x="948.49" y="257.5" ></text>
</g>
<g >
<title>Log_Event_subkernel102_interior_facet_vert_to__exterior_facet_vert_integral_otherwise (1,211 us, 0.03%)</title><rect x="1119.4" y="311" width="0.3" height="15.0" fill="rgb(0,0,0)" rx="2" ry="2" />
<text  x="1122.44" y="321.5" ></text>
</g>
<g >
<title>Log_Event_tensorshell_knl_111 (3,024 us, 0.06%)</title><rect x="944.0" y="263" width="0.8" height="15.0" fill="rgb(0,0,0)" rx="2" ry="2" />
<text  x="947.00" y="273.5" ></text>
</g>
<g >
<title>ParLoopExecute (65,354 us, 1.38%)</title><rect x="698.1" y="151" width="16.2" height="15.0" fill="rgb(0,0,0)" rx="2" ry="2" />
<text  x="701.07" y="161.5" ></text>
</g>
<g >
<title>Log_Event_mtf_solve_75 (1,350 us, 0.03%)</title><rect x="946.3" y="279" width="0.3" height="15.0" fill="rgb(0,0,0)" rx="2" ry="2" />
<text  x="949.25" y="289.5" ></text>
</g>
<g >
<title>firedrake.parloops.par_loop (37,714 us, 0.79%)</title><rect x="1180.1" y="135" width="9.3" height="15.0" fill="rgb(0,0,0)" rx="2" ry="2" />
<text  x="1183.06" y="145.5" ></text>
</g>
<g >
<title>Log_Event_subkernel74_cell_to__cell_integral_otherwise (1,160 us, 0.02%)</title><rect x="1117.4" y="343" width="0.3" height="15.0" fill="rgb(0,0,0)" rx="2" ry="2" />
<text  x="1120.40" y="353.5" ></text>
</g>
<g >
<title>Log_Event_subkernel101_interior_facet_vert_to__exterior_facet_vert_integral_otherwise (1,041 us, 0.02%)</title><rect x="1119.2" y="311" width="0.2" height="15.0" fill="rgb(0,0,0)" rx="2" ry="2" />
<text  x="1122.18" y="321.5" ></text>
</g>
<g >
<title>PCSetUp (110,348 us, 2.32%)</title><rect x="1138.8" y="151" width="27.4" height="15.0" fill="rgb(0,0,0)" rx="2" ry="2" />
<text  x="1141.80" y="161.5" >P..</text>
</g>
<g >
<title>firedrake.interpolation.make_interpolator (20,303 us, 0.43%)</title><rect x="1156.5" y="167" width="5.0" height="15.0" fill="rgb(0,0,0)" rx="2" ry="2" />
<text  x="1159.49" y="177.5" ></text>
</g>
<g >
<title>Parloop_Cells_wrap_expression_kernel (31,599 us, 0.66%)</title><rect x="1139.9" y="183" width="7.8" height="15.0" fill="rgb(0,0,0)" rx="2" ry="2" />
<text  x="1142.86" y="193.5" ></text>
</g>
<g >
<title>Log_Event_subkernel84_cell_to__cell_integral_otherwise (1,130 us, 0.02%)</title><rect x="1118.4" y="343" width="0.3" height="15.0" fill="rgb(0,0,0)" rx="2" ry="2" />
<text  x="1121.42" y="353.5" ></text>
</g>
<g >
<title>firedrake.matrix_free.operators.ImplicitMatrixContext.mult (10,218 us, 0.21%)</title><rect x="948.2" y="231" width="2.5" height="15.0" fill="rgb(0,0,0)" rx="2" ry="2" />
<text  x="951.18" y="241.5" ></text>
</g>
<g >
<title>ParLoopExecute (65,197 us, 1.37%)</title><rect x="1139.9" y="167" width="16.1" height="15.0" fill="rgb(0,0,0)" rx="2" ry="2" />
<text  x="1142.86" y="177.5" ></text>
</g>
<g >
<title>Log_Event_mtf_solve_75 (1,902 us, 0.04%)</title><rect x="1116.9" y="343" width="0.5" height="15.0" fill="rgb(0,0,0)" rx="2" ry="2" />
<text  x="1119.93" y="353.5" ></text>
</g>
<g >
<title>firedrake.formmanipulation.split_form (12,486 us, 0.26%)</title><rect x="1172.9" y="135" width="3.1" height="15.0" fill="rgb(0,0,0)" rx="2" ry="2" />
<text  x="1175.87" y="145.5" ></text>
</g>
<g >
<title>firedrake.ufl_expr.action (1,855 us, 0.04%)</title><rect x="1165.4" y="167" width="0.5" height="15.0" fill="rgb(0,0,0)" rx="2" ry="2" />
<text  x="1168.42" y="177.5" ></text>
</g>
<g >
<title>firedrake.matrix_free.operators.ImplicitMatrixContext.mult (29,047 us, 0.61%)</title><rect x="950.7" y="231" width="7.2" height="15.0" fill="rgb(0,0,0)" rx="2" ry="2" />
<text  x="953.72" y="241.5" ></text>
</g>
<g >
<title>firedrake.formmanipulation.ExtractSubBlock.argument (8,637 us, 0.18%)</title><rect x="1173.8" y="167" width="2.2" height="15.0" fill="rgb(0,0,0)" rx="2" ry="2" />
<text  x="1176.82" y="177.5" ></text>
</g>
<g >
<title>Log_Event_subkernel122_cell_to__cell_integral_otherwise (1,209 us, 0.03%)</title><rect x="1115.9" y="343" width="0.3" height="15.0" fill="rgb(0,0,0)" rx="2" ry="2" />
<text  x="1118.86" y="353.5" ></text>
</g>
<g >
<title>Log_Event_tensorshell_knl_73 (2,958 us, 0.06%)</title><rect x="945.9" y="263" width="0.7" height="15.0" fill="rgb(0,0,0)" rx="2" ry="2" />
<text  x="948.85" y="273.5" ></text>
</g>
<g >
<title>firedrake.formmanipulation.split_form (3,130 us, 0.07%)</title><rect x="720.5" y="167" width="0.8" height="15.0" fill="rgb(0,0,0)" rx="2" ry="2" />
<text  x="723.51" y="177.5" ></text>
</g>
<g >
<title>Parloop_Cells_wrap_par_loop_kernel (33,913 us, 0.71%)</title><rect x="722.7" y="199" width="8.5" height="15.0" fill="rgb(0,0,0)" rx="2" ry="2" />
<text  x="725.75" y="209.5" ></text>
</g>
<g >
<title>Parloop_Cells_wrap_slate_loopy_knl_0 (44,178 us, 0.93%)</title><rect x="927.0" y="183" width="10.9" height="15.0" fill="rgb(0,0,0)" rx="2" ry="2" />
<text  x="929.96" y="193.5" ></text>
</g>
<g >
<title>Log_Event_mtf_solve_72 (5,938 us, 0.12%)</title><rect x="945.9" y="247" width="1.4" height="15.0" fill="rgb(0,0,0)" rx="2" ry="2" />
<text  x="948.85" y="257.5" ></text>
</g>
<g >
<title>Log_Event_mtf_solve_95 (1,532 us, 0.03%)</title><rect x="957.5" y="295" width="0.4" height="15.0" fill="rgb(0,0,0)" rx="2" ry="2" />
<text  x="960.55" y="305.5" ></text>
</g>
<g >
<title>Parloop_Cells_wrap_form1_cell_integral_otherwise (32,345 us, 0.68%)</title><rect x="706.3" y="167" width="8.0" height="15.0" fill="rgb(0,0,0)" rx="2" ry="2" />
<text  x="709.27" y="177.5" ></text>
</g>
<g >
<title>firedrake.function.Function.assign (1,038 us, 0.02%)</title><rect x="1132.4" y="279" width="0.3" height="15.0" fill="rgb(0,0,0)" rx="2" ry="2" />
<text  x="1135.42" y="289.5" ></text>
</g>
<g >
<title>Log_Event_mtf_solve_103 (1,944 us, 0.04%)</title><rect x="953.4" y="295" width="0.4" height="15.0" fill="rgb(0,0,0)" rx="2" ry="2" />
<text  x="956.36" y="305.5" ></text>
</g>
<g >
<title>firedrake.functionspaceimpl.FunctionSpace.__init__ (1,477 us, 0.03%)</title><rect x="1171.3" y="183" width="0.4" height="15.0" fill="rgb(0,0,0)" rx="2" ry="2" />
<text  x="1174.31" y="193.5" ></text>
</g>
<g >
<title>Log_Event_mtf_solve_103 (1,775 us, 0.04%)</title><rect x="943.6" y="247" width="0.4" height="15.0" fill="rgb(0,0,0)" rx="2" ry="2" />
<text  x="946.56" y="257.5" ></text>
</g>
<g >
<title>Log_Event_mtf_solve_123 (1,620 us, 0.03%)</title><rect x="955.1" y="327" width="0.4" height="15.0" fill="rgb(0,0,0)" rx="2" ry="2" />
<text  x="958.11" y="337.5" ></text>
</g>
<g >
<title>pyop2.global_kernel.GlobalKernel.compile (40,895 us, 0.86%)</title><rect x="927.8" y="199" width="10.1" height="15.0" fill="rgb(0,0,0)" rx="2" ry="2" />
<text  x="930.78" y="209.5" ></text>
</g>
<g >
<title>pyop2.global_kernel.GlobalKernel.compile (33,598 us, 0.71%)</title><rect x="1147.7" y="199" width="8.3" height="15.0" fill="rgb(0,0,0)" rx="2" ry="2" />
<text  x="1150.71" y="209.5" ></text>
</g>
<g >
<title>pyop2.global_kernel.GlobalKernel.compile (33,009 us, 0.69%)</title><rect x="698.1" y="183" width="8.2" height="15.0" fill="rgb(0,0,0)" rx="2" ry="2" />
<text  x="701.07" y="193.5" ></text>
</g>
<g >
<title>Log_Event_tensorshell_knl_121 (2,961 us, 0.06%)</title><rect x="944.8" y="263" width="0.7" height="15.0" fill="rgb(0,0,0)" rx="2" ry="2" />
<text  x="947.76" y="273.5" ></text>
</g>
<g >
<title>firedrake.matrix_free.operators.ImplicitMatrixContext.mult (705,002 us, 14.83%)</title><rect x="957.9" y="247" width="175.1" height="15.0" fill="rgb(0,0,0)" rx="2" ry="2" />
<text  x="960.93" y="257.5" >firedrake.matrix_fre..</text>
</g>
<g >
<title>HybridInit (95,892 us, 2.02%)</title><rect x="1166.2" y="119" width="23.8" height="15.0" fill="rgb(0,0,0)" rx="2" ry="2" />
<text  x="1169.19" y="129.5" >H..</text>
</g>
<g >
<title>CreateExtMesh (78,930 us, 1.66%)</title><rect x="289.9" y="71" width="19.6" height="15.0" fill="rgb(0,0,0)" rx="2" ry="2" />
<text  x="292.89" y="81.5" ></text>
</g>
<g >
<title>ParLoopExecute (27,164 us, 0.57%)</title><rect x="951.2" y="247" width="6.7" height="15.0" fill="rgb(0,0,0)" rx="2" ry="2" />
<text  x="954.19" y="257.5" ></text>
</g>
<g >
<title>Log_Event_mtf_solve_113 (1,614 us, 0.03%)</title><rect x="954.3" y="327" width="0.4" height="15.0" fill="rgb(0,0,0)" rx="2" ry="2" />
<text  x="957.28" y="337.5" ></text>
</g>
<g >
<title>firedrake.variational_solver.NonlinearVariationalProblem.__init__ (13,263 us, 0.28%)</title><rect x="691.1" y="87" width="3.3" height="15.0" fill="rgb(0,0,0)" rx="2" ry="2" />
<text  x="694.08" y="97.5" ></text>
</g>
<g >
<title>firedrake.functionspaceimpl.FunctionSpace.__init__ (4,816 us, 0.10%)</title><rect x="1171.7" y="151" width="1.2" height="15.0" fill="rgb(0,0,0)" rx="2" ry="2" />
<text  x="1174.67" y="161.5" ></text>
</g>
<g >
<title>firedrake.assemble.allocate_matrix (7,419 us, 0.16%)</title><rect x="694.7" y="87" width="1.8" height="15.0" fill="rgb(0,0,0)" rx="2" ry="2" />
<text  x="697.69" y="97.5" ></text>
</g>
<g >
<title>firedrake.functionspacedata.FunctionSpaceData.__init__ (17,867 us, 0.38%)</title><rect x="309.9" y="119" width="4.4" height="15.0" fill="rgb(0,0,0)" rx="2" ry="2" />
<text  x="312.85" y="129.5" ></text>
</g>
<g >
<title>firedrake.__init__ (1,508,074 us, 31.73%)</title><rect x="314.7" y="71" width="374.4" height="15.0" fill="rgb(0,0,0)" rx="2" ry="2" />
<text  x="317.65" y="81.5" >firedrake.__init__</text>
</g>
<g >
<title>Log_Event_tensorshell_knl_111 (4,252 us, 0.09%)</title><rect x="1114.3" y="327" width="1.1" height="15.0" fill="rgb(0,0,0)" rx="2" ry="2" />
<text  x="1117.30" y="337.5" ></text>
</g>
<g >
<title>firedrake.functionspacedata.get_shared_data (4,816 us, 0.10%)</title><rect x="1171.7" y="167" width="1.2" height="15.0" fill="rgb(0,0,0)" rx="2" ry="2" />
<text  x="1174.67" y="177.5" ></text>
</g>
<g >
<title>Log_Event_tensorshell_knl_73 (3,323 us, 0.07%)</title><rect x="955.9" y="311" width="0.8" height="15.0" fill="rgb(0,0,0)" rx="2" ry="2" />
<text  x="958.91" y="321.5" ></text>
</g>
</g>
</svg>
