<?xml version="1.0" standalone="no"?>
<!DOCTYPE svg PUBLIC "-//W3C//DTD SVG 1.1//EN" "http://www.w3.org/Graphics/SVG/1.1/DTD/svg11.dtd">
<svg version="1.1" width="1200" height="267" onload="init(evt)" viewBox="0 0 1200 267" xmlns="http://www.w3.org/2000/svg" xmlns:xlink="http://www.w3.org/1999/xlink">
<!-- Flame graph stack visualization. See https://github.com/brendangregg/FlameGraph for latest version, and http://www.brendangregg.com/flamegraphs.html for examples. -->
<!-- NOTES:  -->
<defs>
	<linearGradient id="background" y1="0" y2="1" x1="0" x2="0" >
		<stop stop-color="#eeeeee" offset="5%" />
		<stop stop-color="#eeeeb0" offset="95%" />
	</linearGradient>
</defs>
<style type="text/css">
	text { font-family:Verdana; font-size:13px; fill:rgb(0,0,0); }
	#search, #ignorecase { opacity:0.1; cursor:pointer; }
	#search:hover, #search.show, #ignorecase:hover, #ignorecase.show { opacity:1; }
	#subtitle { text-anchor:middle; font-color:rgb(160,160,160); }
	#title { text-anchor:middle; font-size:18px}
	#unzoom { cursor:pointer; }
	#frames > *:hover { stroke:black; stroke-width:0.5; cursor:pointer; }
	.hide { display:none; }
	.parent { opacity:0.5; }
</style>
<script type="text/ecmascript">
<![CDATA[
	"use strict";
	var details, searchbtn, unzoombtn, matchedtxt, svg, searching, currentSearchTerm, ignorecase, ignorecaseBtn;
	function init(evt) {
		details = document.getElementById("details").firstChild;
		searchbtn = document.getElementById("search");
		ignorecaseBtn = document.getElementById("ignorecase");
		unzoombtn = document.getElementById("unzoom");
		matchedtxt = document.getElementById("matched");
		svg = document.getElementsByTagName("svg")[0];
		searching = 0;
		currentSearchTerm = null;

		// use GET parameters to restore a flamegraphs state.
		var params = get_params();
		if (params.x && params.y)
			zoom(find_group(document.querySelector('[x="' + params.x + '"][y="' + params.y + '"]')));
                if (params.s) search(params.s);
	}

	// event listeners
	window.addEventListener("click", function(e) {
		var target = find_group(e.target);
		if (target) {
			if (target.nodeName == "a") {
				if (e.ctrlKey === false) return;
				e.preventDefault();
			}
			if (target.classList.contains("parent")) unzoom();
			zoom(target);
			if (!document.querySelector('.parent')) {
				clearzoom();
				return;
			}

			// set parameters for zoom state
			var el = target.querySelector("rect");
			if (el && el.attributes && el.attributes.y && el.attributes._orig_x) {
				var params = get_params()
				params.x = el.attributes._orig_x.value;
				params.y = el.attributes.y.value;
				history.replaceState(null, null, parse_params(params));
			}
		}
		else if (e.target.id == "unzoom") clearzoom();
		else if (e.target.id == "search") search_prompt();
		else if (e.target.id == "ignorecase") toggle_ignorecase();
	}, false)

	// mouse-over for info
	// show
	window.addEventListener("mouseover", function(e) {
		var target = find_group(e.target);
		if (target) details.nodeValue = "Function: " + g_to_text(target);
	}, false)

	// clear
	window.addEventListener("mouseout", function(e) {
		var target = find_group(e.target);
		if (target) details.nodeValue = ' ';
	}, false)

	// ctrl-F for search
	// ctrl-I to toggle case-sensitive search
	window.addEventListener("keydown",function (e) {
		if (e.keyCode === 114 || (e.ctrlKey && e.keyCode === 70)) {
			e.preventDefault();
			search_prompt();
		}
		else if (e.ctrlKey && e.keyCode === 73) {
			e.preventDefault();
			toggle_ignorecase();
		}
	}, false)

	// functions
	function get_params() {
		var params = {};
		var paramsarr = window.location.search.substr(1).split('&');
		for (var i = 0; i < paramsarr.length; ++i) {
			var tmp = paramsarr[i].split("=");
			if (!tmp[0] || !tmp[1]) continue;
			params[tmp[0]]  = decodeURIComponent(tmp[1]);
		}
		return params;
	}
	function parse_params(params) {
		var uri = "?";
		for (var key in params) {
			uri += key + '=' + encodeURIComponent(params[key]) + '&';
		}
		if (uri.slice(-1) == "&")
			uri = uri.substring(0, uri.length - 1);
		if (uri == '?')
			uri = window.location.href.split('?')[0];
		return uri;
	}
	function find_child(node, selector) {
		var children = node.querySelectorAll(selector);
		if (children.length) return children[0];
	}
	function find_group(node) {
		var parent = node.parentElement;
		if (!parent) return;
		if (parent.id == "frames") return node;
		return find_group(parent);
	}
	function orig_save(e, attr, val) {
		if (e.attributes["_orig_" + attr] != undefined) return;
		if (e.attributes[attr] == undefined) return;
		if (val == undefined) val = e.attributes[attr].value;
		e.setAttribute("_orig_" + attr, val);
	}
	function orig_load(e, attr) {
		if (e.attributes["_orig_"+attr] == undefined) return;
		e.attributes[attr].value = e.attributes["_orig_" + attr].value;
		e.removeAttribute("_orig_"+attr);
	}
	function g_to_text(e) {
		var text = find_child(e, "title").firstChild.nodeValue;
		return (text)
	}
	function g_to_func(e) {
		var func = g_to_text(e);
		// if there's any manipulation we want to do to the function
		// name before it's searched, do it here before returning.
		return (func);
	}
	function update_text(e) {
		var r = find_child(e, "rect");
		var t = find_child(e, "text");
		var w = parseFloat(r.attributes.width.value) -3;
		var txt = find_child(e, "title").textContent.replace(/\([^(]*\)$/,"");
		t.attributes.x.value = parseFloat(r.attributes.x.value) + 3;

		// Smaller than this size won't fit anything
		if (w < 2 * 13 * 0.59) {
			t.textContent = "";
			return;
		}

		t.textContent = txt;
		// Fit in full text width
		if (/^ *$/.test(txt) || t.getSubStringLength(0, txt.length) < w)
			return;

		for (var x = txt.length - 2; x > 0; x--) {
			if (t.getSubStringLength(0, x + 2) <= w) {
				t.textContent = txt.substring(0, x) + "..";
				return;
			}
		}
		t.textContent = "";
	}

	// zoom
	function zoom_reset(e) {
		if (e.attributes != undefined) {
			orig_load(e, "x");
			orig_load(e, "width");
		}
		if (e.childNodes == undefined) return;
		for (var i = 0, c = e.childNodes; i < c.length; i++) {
			zoom_reset(c[i]);
		}
	}
	function zoom_child(e, x, ratio) {
		if (e.attributes != undefined) {
			if (e.attributes.x != undefined) {
				orig_save(e, "x");
				e.attributes.x.value = (parseFloat(e.attributes.x.value) - x - 10) * ratio + 10;
				if (e.tagName == "text")
					e.attributes.x.value = find_child(e.parentNode, "rect[x]").attributes.x.value + 3;
			}
			if (e.attributes.width != undefined) {
				orig_save(e, "width");
				e.attributes.width.value = parseFloat(e.attributes.width.value) * ratio;
			}
		}

		if (e.childNodes == undefined) return;
		for (var i = 0, c = e.childNodes; i < c.length; i++) {
			zoom_child(c[i], x - 10, ratio);
		}
	}
	function zoom_parent(e) {
		if (e.attributes) {
			if (e.attributes.x != undefined) {
				orig_save(e, "x");
				e.attributes.x.value = 10;
			}
			if (e.attributes.width != undefined) {
				orig_save(e, "width");
				e.attributes.width.value = parseInt(svg.width.baseVal.value) - (10 * 2);
			}
		}
		if (e.childNodes == undefined) return;
		for (var i = 0, c = e.childNodes; i < c.length; i++) {
			zoom_parent(c[i]);
		}
	}
	function zoom(node) {
		var attr = find_child(node, "rect").attributes;
		var width = parseFloat(attr.width.value);
		var xmin = parseFloat(attr.x.value);
		var xmax = parseFloat(xmin + width);
		var ymin = parseFloat(attr.y.value);
		var ratio = (svg.width.baseVal.value - 2 * 10) / width;

		// XXX: Workaround for JavaScript float issues (fix me)
		var fudge = 0.0001;

		unzoombtn.classList.remove("hide");

		var el = document.getElementById("frames").children;
		for (var i = 0; i < el.length; i++) {
			var e = el[i];
			var a = find_child(e, "rect").attributes;
			var ex = parseFloat(a.x.value);
			var ew = parseFloat(a.width.value);
			var upstack;
			// Is it an ancestor
			if (1 == 0) {
				upstack = parseFloat(a.y.value) > ymin;
			} else {
				upstack = parseFloat(a.y.value) < ymin;
			}
			if (upstack) {
				// Direct ancestor
				if (ex <= xmin && (ex+ew+fudge) >= xmax) {
					e.classList.add("parent");
					zoom_parent(e);
					update_text(e);
				}
				// not in current path
				else
					e.classList.add("hide");
			}
			// Children maybe
			else {
				// no common path
				if (ex < xmin || ex + fudge >= xmax) {
					e.classList.add("hide");
				}
				else {
					zoom_child(e, xmin, ratio);
					update_text(e);
				}
			}
		}
		search();
	}
	function unzoom() {
		unzoombtn.classList.add("hide");
		var el = document.getElementById("frames").children;
		for(var i = 0; i < el.length; i++) {
			el[i].classList.remove("parent");
			el[i].classList.remove("hide");
			zoom_reset(el[i]);
			update_text(el[i]);
		}
		search();
	}
	function clearzoom() {
		unzoom();

		// remove zoom state
		var params = get_params();
		if (params.x) delete params.x;
		if (params.y) delete params.y;
		history.replaceState(null, null, parse_params(params));
	}

	// search
	function toggle_ignorecase() {
		ignorecase = !ignorecase;
		if (ignorecase) {
			ignorecaseBtn.classList.add("show");
		} else {
			ignorecaseBtn.classList.remove("show");
		}
		reset_search();
		search();
	}
	function reset_search() {
		var el = document.querySelectorAll("#frames rect");
		for (var i = 0; i < el.length; i++) {
			orig_load(el[i], "fill")
		}
		var params = get_params();
		delete params.s;
		history.replaceState(null, null, parse_params(params));
	}
	function search_prompt() {
		if (!searching) {
			var term = prompt("Enter a search term (regexp " +
			    "allowed, eg: ^ext4_)"
			    + (ignorecase ? ", ignoring case" : "")
			    + "\nPress Ctrl-i to toggle case sensitivity", "");
			if (term != null) search(term);
		} else {
			reset_search();
			searching = 0;
			currentSearchTerm = null;
			searchbtn.classList.remove("show");
			searchbtn.firstChild.nodeValue = "Search"
			matchedtxt.classList.add("hide");
			matchedtxt.firstChild.nodeValue = ""
		}
	}
	function search(term) {
		if (term) currentSearchTerm = term;

		var re = new RegExp(currentSearchTerm, ignorecase ? 'i' : '');
		var el = document.getElementById("frames").children;
		var matches = new Object();
		var maxwidth = 0;
		for (var i = 0; i < el.length; i++) {
			var e = el[i];
			var func = g_to_func(e);
			var rect = find_child(e, "rect");
			if (func == null || rect == null)
				continue;

			// Save max width. Only works as we have a root frame
			var w = parseFloat(rect.attributes.width.value);
			if (w > maxwidth)
				maxwidth = w;

			if (func.match(re)) {
				// highlight
				var x = parseFloat(rect.attributes.x.value);
				orig_save(rect, "fill");
				rect.attributes.fill.value = "rgb(230,0,230)";

				// remember matches
				if (matches[x] == undefined) {
					matches[x] = w;
				} else {
					if (w > matches[x]) {
						// overwrite with parent
						matches[x] = w;
					}
				}
				searching = 1;
			}
		}
		if (!searching)
			return;
		var params = get_params();
		params.s = currentSearchTerm;
		history.replaceState(null, null, parse_params(params));

		searchbtn.classList.add("show");
		searchbtn.firstChild.nodeValue = "Reset Search";

		// calculate percent matched, excluding vertical overlap
		var count = 0;
		var lastx = -1;
		var lastw = 0;
		var keys = Array();
		for (k in matches) {
			if (matches.hasOwnProperty(k))
				keys.push(k);
		}
		// sort the matched frames by their x location
		// ascending, then width descending
		keys.sort(function(a, b){
			return a - b;
		});
		// Step through frames saving only the biggest bottom-up frames
		// thanks to the sort order. This relies on the tree property
		// where children are always smaller than their parents.
		var fudge = 0.0001;	// JavaScript floating point
		for (var k in keys) {
			var x = parseFloat(keys[k]);
			var w = matches[keys[k]];
			if (x >= lastx + lastw - fudge) {
				count += w;
				lastx = x;
				lastw = w;
			}
		}
		// display matched percent
		matchedtxt.classList.remove("hide");
		var pct = 100 * count / maxwidth;
		if (pct != 100) pct = pct.toFixed(1)
		matchedtxt.firstChild.nodeValue = "Matched: " + pct + "%";
	}
]]>
</script>
<rect x="0.0" y="0" width="1200.0" height="267.0" fill="url(#background)"  />
<text id="title" x="600.00" y="26" >Firedrake example</text>
<text id="details" x="10.00" y="249" > </text>
<text id="unzoom" x="10.00" y="26" class="hide">Reset Zoom</text>
<text id="search" x="1090.00" y="26" >Search</text>
<text id="ignorecase" x="1174.00" y="26" >ic</text>
<text id="matched" x="1090.00" y="249" > </text>
<g id="frames">
<g >
<title>firedrake.tsfc_interface.compile_form (1,931,050 us, 0.87%)</title><rect x="695.1" y="151" width="10.3" height="15.0" fill="rgb(0,0,0)" rx="2" ry="2" />
<text  x="698.12" y="161.5" ></text>
</g>
<g >
<title>HybridProject (1,236,176 us, 0.56%)</title><rect x="432.3" y="151" width="6.6" height="15.0" fill="rgb(0,0,0)" rx="2" ry="2" />
<text  x="435.33" y="161.5" ></text>
</g>
<g >
<title>ParLoopExecute (11,001,035 us, 4.97%)</title><rect x="308.1" y="119" width="58.7" height="15.0" fill="rgb(0,0,0)" rx="2" ry="2" />
<text  x="311.10" y="129.5" >ParLo..</text>
</g>
<g >
<title>Parloop_IntFacets_wrap_form0_interior_facet_vert_integral_otherwise (2,505,989 us, 1.13%)</title><rect x="143.0" y="119" width="13.3" height="15.0" fill="rgb(0,0,0)" rx="2" ry="2" />
<text  x="145.98" y="129.5" ></text>
</g>
<g >
<title>firedrake.tsfc_interface.compile_form (1,623,207 us, 0.73%)</title><rect x="77.2" y="87" width="8.6" height="15.0" fill="rgb(0,0,0)" rx="2" ry="2" />
<text  x="80.18" y="97.5" ></text>
</g>
<g >
<title>pyop2.global_kernel.GlobalKernel.compile (2,800,478 us, 1.27%)</title><rect x="260.5" y="151" width="14.9" height="15.0" fill="rgb(0,0,0)" rx="2" ry="2" />
<text  x="263.50" y="161.5" ></text>
</g>
<g >
<title>ParLoopExecute (759,238 us, 0.34%)</title><rect x="73.1" y="119" width="4.1" height="15.0" fill="rgb(0,0,0)" rx="2" ry="2" />
<text  x="76.13" y="129.5" ></text>
</g>
<g >
<title>Parloop_Cells_wrap_form1_cell_integral_otherwise (4,579,784 us, 2.07%)</title><rect x="1156.9" y="135" width="24.4" height="15.0" fill="rgb(0,0,0)" rx="2" ry="2" />
<text  x="1159.86" y="145.5" >P..</text>
</g>
<g >
<title>SNESSolve (152,982,496 us, 69.12%)</title><rect x="374.4" y="87" width="815.6" height="15.0" fill="rgb(0,0,0)" rx="2" ry="2" />
<text  x="377.41" y="97.5" >SNESSolve</text>
</g>
<g >
<title>pyop2.global_kernel.GlobalKernel.compile (396,365 us, 0.18%)</title><rect x="73.1" y="151" width="2.1" height="15.0" fill="rgb(0,0,0)" rx="2" ry="2" />
<text  x="76.13" y="161.5" ></text>
</g>
<g >
<title>Parloop_Cells_wrap_form00_interior_facet_horiz_integral_otherwise (1,755,278 us, 0.79%)</title><rect x="251.1" y="135" width="9.4" height="15.0" fill="rgb(0,0,0)" rx="2" ry="2" />
<text  x="254.14" y="145.5" ></text>
</g>
<g >
<title>firedrake.parloops.par_loop (665,468 us, 0.30%)</title><rect x="1126.5" y="135" width="3.6" height="15.0" fill="rgb(0,0,0)" rx="2" ry="2" />
<text  x="1129.51" y="145.5" ></text>
</g>
<g >
<title>firedrake.assemble.assemble (12,436,955 us, 5.62%)</title><rect x="308.1" y="103" width="66.3" height="15.0" fill="rgb(0,0,0)" rx="2" ry="2" />
<text  x="311.10" y="113.5" >firedr..</text>
</g>
<g >
<title>CreateExtMesh (1,012,317 us, 0.46%)</title><rect x="16.7" y="71" width="5.4" height="15.0" fill="rgb(0,0,0)" rx="2" ry="2" />
<text  x="19.69" y="81.5" ></text>
</g>
<g >
<title>Parloop_Cells_wrap_form0_cell_integral_otherwise (4,591,260 us, 2.07%)</title><rect x="374.4" y="167" width="24.5" height="15.0" fill="rgb(0,0,0)" rx="2" ry="2" />
<text  x="377.41" y="177.5" >P..</text>
</g>
<g >
<title>pyop2.global_kernel.GlobalKernel.compile (4,579,784 us, 2.07%)</title><rect x="1156.9" y="151" width="24.4" height="15.0" fill="rgb(0,0,0)" rx="2" ry="2" />
<text  x="1159.86" y="161.5" >p..</text>
</g>
<g >
<title>firedrake.assemble.allocate_matrix (22,583 us, 0.01%)</title><rect x="288.4" y="119" width="0.1" height="15.0" fill="rgb(0,0,0)" rx="2" ry="2" />
<text  x="291.40" y="129.5" ></text>
</g>
<g >
<title>Parloop_set_#x7f839ceccd30_wrap_expression_kernel (396,365 us, 0.18%)</title><rect x="73.1" y="135" width="2.1" height="15.0" fill="rgb(0,0,0)" rx="2" ry="2" />
<text  x="76.13" y="145.5" ></text>
</g>
<g >
<title>Parloop_Cells_wrap_form_interior_facet_horiz_integral_otherwise (1,363,339 us, 0.62%)</title><rect x="44.5" y="103" width="7.3" height="15.0" fill="rgb(0,0,0)" rx="2" ry="2" />
<text  x="47.49" y="113.5" ></text>
</g>
<g >
<title>ParLoopExecute (13,201,606 us, 5.96%)</title><rect x="86.0" y="103" width="70.3" height="15.0" fill="rgb(0,0,0)" rx="2" ry="2" />
<text  x="88.96" y="113.5" >ParLoop..</text>
</g>
<g >
<title>firedrake.parloops.par_loop (1,236,176 us, 0.56%)</title><rect x="432.3" y="167" width="6.6" height="15.0" fill="rgb(0,0,0)" rx="2" ry="2" />
<text  x="435.33" y="177.5" ></text>
</g>
<g >
<title>Parloop_Cells_wrap_form0_cell_integral_otherwise (5,027,303 us, 2.27%)</title><rect x="1130.1" y="135" width="26.8" height="15.0" fill="rgb(0,0,0)" rx="2" ry="2" />
<text  x="1133.05" y="145.5" >P..</text>
</g>
<g >
<title>SNESFunctionEval (11,244,073 us, 5.08%)</title><rect x="1130.1" y="103" width="59.9" height="15.0" fill="rgb(0,0,0)" rx="2" ry="2" />
<text  x="1133.05" y="113.5" >SNESF..</text>
</g>
<g >
<title>RecoverFirstElim (30,033,003 us, 13.57%)</title><rect x="535.0" y="151" width="160.1" height="15.0" fill="rgb(0,0,0)" rx="2" ry="2" />
<text  x="538.01" y="161.5" >RecoverFirstElim</text>
</g>
<g >
<title>Parloop_Cells_wrap_wrap_slate_loopy_knl_0 (37,009,244 us, 16.72%)</title><rect x="911.2" y="167" width="197.3" height="15.0" fill="rgb(0,0,0)" rx="2" ry="2" />
<text  x="914.21" y="177.5" >Parloop_Cells_wrap_wrap..</text>
</g>
<g >
<title>pyop2.global_kernel.GlobalKernel.compile (5,027,303 us, 2.27%)</title><rect x="1130.1" y="151" width="26.8" height="15.0" fill="rgb(0,0,0)" rx="2" ry="2" />
<text  x="1133.05" y="161.5" >p..</text>
</g>
<g >
<title>Parloop_Cells_wrap_form1_cell_integral_otherwise (3,461,631 us, 1.56%)</title><rect x="398.9" y="167" width="18.4" height="15.0" fill="rgb(0,0,0)" rx="2" ry="2" />
<text  x="401.88" y="177.5" ></text>
</g>
<g >
<title>firedrake (221,334,804 us, 100.00%)</title><rect x="10.0" y="55" width="1180.0" height="15.0" fill="rgb(0,0,0)" rx="2" ry="2" />
<text  x="13.00" y="65.5" >firedrake</text>
</g>
<g >
<title>pyop2.global_kernel.GlobalKernel.compile (2,505,989 us, 1.13%)</title><rect x="143.0" y="135" width="13.3" height="15.0" fill="rgb(0,0,0)" rx="2" ry="2" />
<text  x="145.98" y="145.5" ></text>
</g>
<g >
<title>HybridBreak (902,573 us, 0.41%)</title><rect x="705.4" y="151" width="4.8" height="15.0" fill="rgb(0,0,0)" rx="2" ry="2" />
<text  x="708.42" y="161.5" ></text>
</g>
<g >
<title>MatMult (9,273,454 us, 4.19%)</title><rect x="374.4" y="119" width="49.4" height="15.0" fill="rgb(0,0,0)" rx="2" ry="2" />
<text  x="377.41" y="129.5" >MatM..</text>
</g>
<g >
<title>ParLoopExecute (8,004,006 us, 3.62%)</title><rect x="30.5" y="87" width="42.6" height="15.0" fill="rgb(0,0,0)" rx="2" ry="2" />
<text  x="33.46" y="97.5" >Par..</text>
</g>
<g >
<title>Parloop_Cells_wrap_form_exterior_facet_bottom_integral_otherwise (1,313,009 us, 0.59%)</title><rect x="30.5" y="103" width="7.0" height="15.0" fill="rgb(0,0,0)" rx="2" ry="2" />
<text  x="33.46" y="113.5" ></text>
</g>
<g >
<title>pyop2.global_kernel.GlobalKernel.compile (18,023,663 us, 8.14%)</title><rect x="438.9" y="183" width="96.1" height="15.0" fill="rgb(0,0,0)" rx="2" ry="2" />
<text  x="441.92" y="193.5" >pyop2.glob..</text>
</g>
<g >
<title>Parloop_Cells_wrap_form00_exterior_facet_top_integral_otherwise (1,695,792 us, 0.77%)</title><rect x="242.1" y="135" width="9.0" height="15.0" fill="rgb(0,0,0)" rx="2" ry="2" />
<text  x="245.10" y="145.5" ></text>
</g>
<g >
<title>Parloop_Cells_wrap_wrap_slate_loopy_knl_7 (24,997,814 us, 11.29%)</title><rect x="544.9" y="183" width="133.3" height="15.0" fill="rgb(0,0,0)" rx="2" ry="2" />
<text  x="547.94" y="193.5" >Parloop_Cells_w..</text>
</g>
<g >
<title>pyop2.global_kernel.GlobalKernel.compile (1,313,009 us, 0.59%)</title><rect x="30.5" y="119" width="7.0" height="15.0" fill="rgb(0,0,0)" rx="2" ry="2" />
<text  x="33.46" y="129.5" ></text>
</g>
<g >
<title>firedrake.projection.project (41,691,048 us, 18.84%)</title><rect x="85.8" y="87" width="222.3" height="15.0" fill="rgb(0,0,0)" rx="2" ry="2" />
<text  x="88.83" y="97.5" >firedrake.projection.project</text>
</g>
<g >
<title>Parloop_set_#x7f839cf27340_wrap_expression_kernel (362,873 us, 0.16%)</title><rect x="75.2" y="135" width="2.0" height="15.0" fill="rgb(0,0,0)" rx="2" ry="2" />
<text  x="78.25" y="145.5" ></text>
</g>
<g >
<title>firedrake.norms.errornorm (12,436,955 us, 5.62%)</title><rect x="308.1" y="71" width="66.3" height="15.0" fill="rgb(0,0,0)" rx="2" ry="2" />
<text  x="311.10" y="81.5" >firedr..</text>
</g>
<g >
<title>firedrake.tsfc_interface.compile_form (1,636,986 us, 0.74%)</title><rect x="1181.3" y="119" width="8.7" height="15.0" fill="rgb(0,0,0)" rx="2" ry="2" />
<text  x="1184.27" y="129.5" ></text>
</g>
<g >
<title>pyop2.global_kernel.GlobalKernel.compile (24,997,814 us, 11.29%)</title><rect x="544.9" y="199" width="133.3" height="15.0" fill="rgb(0,0,0)" rx="2" ry="2" />
<text  x="547.94" y="209.5" >pyop2.global_ke..</text>
</g>
<g >
<title>pyop2.global_kernel.GlobalKernel.compile (1,695,792 us, 0.77%)</title><rect x="242.1" y="151" width="9.0" height="15.0" fill="rgb(0,0,0)" rx="2" ry="2" />
<text  x="245.10" y="161.5" ></text>
</g>
<g >
<title>ParLoopExecute (9,607,087 us, 4.34%)</title><rect x="1130.1" y="119" width="51.2" height="15.0" fill="rgb(0,0,0)" rx="2" ry="2" />
<text  x="1133.05" y="129.5" >ParL..</text>
</g>
<g >
<title>Parloop_Cells_wrap_par_loop_kernel (1,236,176 us, 0.56%)</title><rect x="432.3" y="199" width="6.6" height="15.0" fill="rgb(0,0,0)" rx="2" ry="2" />
<text  x="435.33" y="209.5" ></text>
</g>
<g >
<title>KSPSolve (98,790,246 us, 44.63%)</title><rect x="374.4" y="103" width="526.7" height="15.0" fill="rgb(0,0,0)" rx="2" ry="2" />
<text  x="377.41" y="113.5" >KSPSolve</text>
</g>
<g >
<title>Parloop_IntFacets_wrap_form00_interior_facet_vert_integral_otherwise (2,432,531 us, 1.10%)</title><rect x="275.4" y="135" width="13.0" height="15.0" fill="rgb(0,0,0)" rx="2" ry="2" />
<text  x="278.43" y="145.5" ></text>
</g>
<g >
<title>SCBackSub (52,815,229 us, 23.86%)</title><rect x="423.8" y="135" width="281.6" height="15.0" fill="rgb(0,0,0)" rx="2" ry="2" />
<text  x="426.85" y="145.5" >SCBackSub</text>
</g>
<g >
<title>pyop2.global_kernel.GlobalKernel.compile (2,114,613 us, 0.96%)</title><rect x="131.7" y="135" width="11.3" height="15.0" fill="rgb(0,0,0)" rx="2" ry="2" />
<text  x="134.71" y="145.5" ></text>
</g>
<g >
<title>firedrake.functionspacedata.FunctionSpaceData.__init__ (24,396 us, 0.01%)</title><rect x="22.1" y="119" width="0.1" height="15.0" fill="rgb(0,0,0)" rx="2" ry="2" />
<text  x="25.09" y="129.5" ></text>
</g>
<g >
<title>firedrake.assemble.assemble (26,819,027 us, 12.12%)</title><rect x="156.3" y="103" width="143.0" height="15.0" fill="rgb(0,0,0)" rx="2" ry="2" />
<text  x="159.34" y="113.5" >firedrake.assemb..</text>
</g>
<g >
<title>ParLoopExecute (32,184,702 us, 14.54%)</title><rect x="717.0" y="167" width="171.5" height="15.0" fill="rgb(0,0,0)" rx="2" ry="2" />
<text  x="719.96" y="177.5" >ParLoopExecute</text>
</g>
<g >
<title>ParLoopExecute (24,997,814 us, 11.29%)</title><rect x="544.9" y="167" width="133.3" height="15.0" fill="rgb(0,0,0)" rx="2" ry="2" />
<text  x="547.94" y="177.5" >ParLoopExecute</text>
</g>
<g >
<title>Parloop_ExtFacets_wrap_form0_exterior_facet_vert_integral_otherwise (2,114,613 us, 0.96%)</title><rect x="131.7" y="119" width="11.3" height="15.0" fill="rgb(0,0,0)" rx="2" ry="2" />
<text  x="134.71" y="129.5" ></text>
</g>
<g >
<title>firedrake.norms.norm (12,436,955 us, 5.62%)</title><rect x="308.1" y="87" width="66.3" height="15.0" fill="rgb(0,0,0)" rx="2" ry="2" />
<text  x="311.10" y="97.5" >firedr..</text>
</g>
<g >
<title>SCForwardElim (36,701,563 us, 16.58%)</title><rect x="705.4" y="135" width="195.7" height="15.0" fill="rgb(0,0,0)" rx="2" ry="2" />
<text  x="708.42" y="145.5" >SCForwardElim</text>
</g>
<g >
<title>firedrake.tsfc_interface.compile_form (1,220,563 us, 0.55%)</title><rect x="417.3" y="151" width="6.5" height="15.0" fill="rgb(0,0,0)" rx="2" ry="2" />
<text  x="420.34" y="161.5" ></text>
</g>
<g >
<title>firedrake.tsfc_interface.compile_form (2,026,613 us, 0.92%)</title><rect x="288.5" y="119" width="10.8" height="15.0" fill="rgb(0,0,0)" rx="2" ry="2" />
<text  x="291.52" y="129.5" ></text>
</g>
<g >
<title>ParLoopExecute (24,769,831 us, 11.19%)</title><rect x="156.3" y="119" width="132.1" height="15.0" fill="rgb(0,0,0)" rx="2" ry="2" />
<text  x="159.34" y="129.5" >ParLoopExecute</text>
</g>
<g >
<title>pyop2.global_kernel.GlobalKernel.compile (1,308,216 us, 0.59%)</title><rect x="109.0" y="135" width="7.0" height="15.0" fill="rgb(0,0,0)" rx="2" ry="2" />
<text  x="111.99" y="145.5" ></text>
</g>
<g >
<title>Parloop_ExtFacets_wrap_form00_exterior_facet_vert_integral_otherwise (2,800,478 us, 1.27%)</title><rect x="260.5" y="135" width="14.9" height="15.0" fill="rgb(0,0,0)" rx="2" ry="2" />
<text  x="263.50" y="145.5" ></text>
</g>
<g >
<title>pyop2.global_kernel.GlobalKernel.compile (1,353,144 us, 0.61%)</title><rect x="116.0" y="135" width="7.2" height="15.0" fill="rgb(0,0,0)" rx="2" ry="2" />
<text  x="118.96" y="145.5" ></text>
</g>
<g >
<title>Parloop_ExtFacets_wrap_form_exterior_facet_vert_integral_otherwise (1,968,328 us, 0.89%)</title><rect x="51.8" y="103" width="10.5" height="15.0" fill="rgb(0,0,0)" rx="2" ry="2" />
<text  x="54.76" y="113.5" ></text>
</g>
<g >
<title>Parloop_Cells_wrap_pyop2_kernel_uniform_extrusion (976,252 us, 0.44%)</title><rect x="16.9" y="119" width="5.2" height="15.0" fill="rgb(0,0,0)" rx="2" ry="2" />
<text  x="19.88" y="129.5" ></text>
</g>
<g >
<title>Parloop_Cells_wrap_form0_exterior_facet_top_integral_otherwise (1,353,144 us, 0.61%)</title><rect x="116.0" y="119" width="7.2" height="15.0" fill="rgb(0,0,0)" rx="2" ry="2" />
<text  x="118.96" y="129.5" ></text>
</g>
<g >
<title>ParLoopExecute (37,009,244 us, 16.72%)</title><rect x="911.2" y="151" width="197.3" height="15.0" fill="rgb(0,0,0)" rx="2" ry="2" />
<text  x="914.21" y="161.5" >ParLoopExecute</text>
</g>
<g >
<title>firedrake.variational_solver.NonlinearVariationalSolver.solve (152,982,496 us, 69.12%)</title><rect x="374.4" y="71" width="815.6" height="15.0" fill="rgb(0,0,0)" rx="2" ry="2" />
<text  x="377.41" y="81.5" >firedrake.variational_solver.NonlinearVariationalSolver.solve</text>
</g>
<g >
<title>pyop2.global_kernel.GlobalKernel.compile (1,600,037 us, 0.72%)</title><rect x="123.2" y="135" width="8.5" height="15.0" fill="rgb(0,0,0)" rx="2" ry="2" />
<text  x="126.18" y="145.5" ></text>
</g>
<g >
<title>firedrake.tsfc_interface.compile_form (3,373,509 us, 1.52%)</title><rect x="1108.5" y="151" width="18.0" height="15.0" fill="rgb(0,0,0)" rx="2" ry="2" />
<text  x="1111.52" y="161.5" ></text>
</g>
<g >
<title>Parloop_Cells_wrap_wrap_slate_loopy_knl_4 (32,184,702 us, 14.54%)</title><rect x="717.0" y="183" width="171.5" height="15.0" fill="rgb(0,0,0)" rx="2" ry="2" />
<text  x="719.96" y="193.5" >Parloop_Cells_wrap_w..</text>
</g>
<g >
<title>ParLoopExecute (8,052,891 us, 3.64%)</title><rect x="374.4" y="151" width="42.9" height="15.0" fill="rgb(0,0,0)" rx="2" ry="2" />
<text  x="377.41" y="161.5" >Par..</text>
</g>
<g >
<title>ParLoopExecute (665,468 us, 0.30%)</title><rect x="1126.5" y="151" width="3.6" height="15.0" fill="rgb(0,0,0)" rx="2" ry="2" />
<text  x="1129.51" y="161.5" ></text>
</g>
<g >
<title>pyop2.global_kernel.GlobalKernel.compile (665,468 us, 0.30%)</title><rect x="1126.5" y="183" width="3.6" height="15.0" fill="rgb(0,0,0)" rx="2" ry="2" />
<text  x="1129.51" y="193.5" ></text>
</g>
<g >
<title>Parloop_Cells_wrap_form00_exterior_facet_bottom_integral_otherwise (1,653,210 us, 0.75%)</title><rect x="233.3" y="135" width="8.8" height="15.0" fill="rgb(0,0,0)" rx="2" ry="2" />
<text  x="236.29" y="145.5" ></text>
</g>
<g >
<title>firedrake.parloops.par_loop (902,573 us, 0.41%)</title><rect x="705.4" y="167" width="4.8" height="15.0" fill="rgb(0,0,0)" rx="2" ry="2" />
<text  x="708.42" y="177.5" ></text>
</g>
<g >
<title>pyop2.global_kernel.GlobalKernel.compile (1,755,278 us, 0.79%)</title><rect x="251.1" y="151" width="9.4" height="15.0" fill="rgb(0,0,0)" rx="2" ry="2" />
<text  x="254.14" y="161.5" ></text>
</g>
<g >
<title>firedrake.matrix_free.operators.ImplicitMatrixContext.mult (9,273,454 us, 4.19%)</title><rect x="374.4" y="135" width="49.4" height="15.0" fill="rgb(0,0,0)" rx="2" ry="2" />
<text  x="377.41" y="145.5" >fire..</text>
</g>
<g >
<title>ParLoopExecute (18,023,663 us, 8.14%)</title><rect x="438.9" y="151" width="96.1" height="15.0" fill="rgb(0,0,0)" rx="2" ry="2" />
<text  x="441.92" y="161.5" >ParLoopExe..</text>
</g>
<g >
<title>HybridOperatorAssembly (42,209,795 us, 19.07%)</title><rect x="901.5" y="135" width="225.0" height="15.0" fill="rgb(0,0,0)" rx="2" ry="2" />
<text  x="904.47" y="145.5" >HybridOperatorAssembly</text>
</g>
<g >
<title>ParLoopExecute (1,236,176 us, 0.56%)</title><rect x="432.3" y="183" width="6.6" height="15.0" fill="rgb(0,0,0)" rx="2" ry="2" />
<text  x="435.33" y="193.5" ></text>
</g>
<g >
<title>pyop2.global_kernel.GlobalKernel.compile (14,432,542 us, 6.52%)</title><rect x="156.3" y="151" width="77.0" height="15.0" fill="rgb(0,0,0)" rx="2" ry="2" />
<text  x="159.34" y="161.5" >pyop2.gl..</text>
</g>
<g >
<title>Parloop_Cells_wrap_wrap_slate_loopy_knl_14 (18,023,663 us, 8.14%)</title><rect x="438.9" y="167" width="96.1" height="15.0" fill="rgb(0,0,0)" rx="2" ry="2" />
<text  x="441.92" y="177.5" >Parloop_Ce..</text>
</g>
<g >
<title>firedrake.assemble_expressions.evaluate_expression (759,238 us, 0.34%)</title><rect x="73.1" y="103" width="4.1" height="15.0" fill="rgb(0,0,0)" rx="2" ry="2" />
<text  x="76.13" y="113.5" ></text>
</g>
<g >
<title>pyop2.global_kernel.GlobalKernel.compile (976,252 us, 0.44%)</title><rect x="16.9" y="135" width="5.2" height="15.0" fill="rgb(0,0,0)" rx="2" ry="2" />
<text  x="19.88" y="145.5" ></text>
</g>
<g >
<title>firedrake.tsfc_interface.compile_form (1,646,677 us, 0.74%)</title><rect x="299.3" y="103" width="8.8" height="15.0" fill="rgb(0,0,0)" rx="2" ry="2" />
<text  x="302.32" y="113.5" ></text>
</g>
<g >
<title>pyop2.global_kernel.GlobalKernel.compile (4,591,260 us, 2.07%)</title><rect x="374.4" y="183" width="24.5" height="15.0" fill="rgb(0,0,0)" rx="2" ry="2" />
<text  x="377.41" y="193.5" >p..</text>
</g>
<g >
<title>HybridInit (42,948,177 us, 19.40%)</title><rect x="901.1" y="119" width="229.0" height="15.0" fill="rgb(0,0,0)" rx="2" ry="2" />
<text  x="904.09" y="129.5" >HybridInit</text>
</g>
<g >
<title>all (221,334,804 us, 100%)</title><rect x="10.0" y="39" width="1180.0" height="15.0" fill="rgb(0,0,0)" rx="2" ry="2" />
<text  x="13.00" y="49.5" ></text>
</g>
<g >
<title>firedrake.extrusion_utils.make_extruded_coords (1,012,317 us, 0.46%)</title><rect x="16.7" y="87" width="5.4" height="15.0" fill="rgb(0,0,0)" rx="2" ry="2" />
<text  x="19.69" y="97.5" ></text>
</g>
<g >
<title>HybridRHS (35,798,990 us, 16.17%)</title><rect x="710.2" y="151" width="190.9" height="15.0" fill="rgb(0,0,0)" rx="2" ry="2" />
<text  x="713.23" y="161.5" >HybridRHS</text>
</g>
<g >
<title>Parloop_Cells_wrap_form_exterior_facet_top_integral_otherwise (1,319,184 us, 0.60%)</title><rect x="37.5" y="103" width="7.0" height="15.0" fill="rgb(0,0,0)" rx="2" ry="2" />
<text  x="40.46" y="113.5" ></text>
</g>
<g >
<title>CreateSparsity (22,583 us, 0.01%)</title><rect x="288.4" y="135" width="0.1" height="15.0" fill="rgb(0,0,0)" rx="2" ry="2" />
<text  x="291.40" y="145.5" ></text>
</g>
<g >
<title>Parloop_Cells_wrap_form0_exterior_facet_bottom_integral_otherwise (1,308,216 us, 0.59%)</title><rect x="109.0" y="119" width="7.0" height="15.0" fill="rgb(0,0,0)" rx="2" ry="2" />
<text  x="111.99" y="129.5" ></text>
</g>
<g >
<title>Parloop_Cells_wrap_form_cell_integral_otherwise (11,001,035 us, 4.97%)</title><rect x="308.1" y="135" width="58.7" height="15.0" fill="rgb(0,0,0)" rx="2" ry="2" />
<text  x="311.10" y="145.5" >Parlo..</text>
</g>
<g >
<title>pyop2.global_kernel.GlobalKernel.compile (1,319,184 us, 0.60%)</title><rect x="37.5" y="119" width="7.0" height="15.0" fill="rgb(0,0,0)" rx="2" ry="2" />
<text  x="40.46" y="129.5" ></text>
</g>
<g >
<title>Parloop_Cells_wrap_form0_cell_integral_otherwise (4,319,607 us, 1.95%)</title><rect x="86.0" y="119" width="23.0" height="15.0" fill="rgb(0,0,0)" rx="2" ry="2" />
<text  x="88.96" y="129.5" >P..</text>
</g>
<g >
<title>firedrake.assemble_expressions.assemble_expression (759,238 us, 0.34%)</title><rect x="73.1" y="87" width="4.1" height="15.0" fill="rgb(0,0,0)" rx="2" ry="2" />
<text  x="76.13" y="97.5" ></text>
</g>
<g >
<title>ParLoopExecute (902,573 us, 0.41%)</title><rect x="705.4" y="183" width="4.8" height="15.0" fill="rgb(0,0,0)" rx="2" ry="2" />
<text  x="708.42" y="193.5" ></text>
</g>
<g >
<title>ParLoopExecute (976,252 us, 0.44%)</title><rect x="16.9" y="103" width="5.2" height="15.0" fill="rgb(0,0,0)" rx="2" ry="2" />
<text  x="19.88" y="113.5" ></text>
</g>
<g >
<title>pyop2.global_kernel.GlobalKernel.compile (2,432,531 us, 1.10%)</title><rect x="275.4" y="151" width="13.0" height="15.0" fill="rgb(0,0,0)" rx="2" ry="2" />
<text  x="278.43" y="161.5" ></text>
</g>
<g >
<title>firedrake.functionspacedata.get_shared_data (24,396 us, 0.01%)</title><rect x="22.1" y="103" width="0.1" height="15.0" fill="rgb(0,0,0)" rx="2" ry="2" />
<text  x="25.09" y="113.5" ></text>
</g>
<g >
<title>pyop2.global_kernel.GlobalKernel.compile (3,461,631 us, 1.56%)</title><rect x="398.9" y="183" width="18.4" height="15.0" fill="rgb(0,0,0)" rx="2" ry="2" />
<text  x="401.88" y="193.5" ></text>
</g>
<g >
<title>pyop2.global_kernel.GlobalKernel.compile (32,184,702 us, 14.54%)</title><rect x="717.0" y="199" width="171.5" height="15.0" fill="rgb(0,0,0)" rx="2" ry="2" />
<text  x="719.96" y="209.5" >pyop2.global_kernel...</text>
</g>
<g >
<title>firedrake.tsfc_interface.compile_form (2,351,340 us, 1.06%)</title><rect x="888.5" y="167" width="12.6" height="15.0" fill="rgb(0,0,0)" rx="2" ry="2" />
<text  x="891.55" y="177.5" ></text>
</g>
<g >
<title>Parloop_Cells_wrap_form0_interior_facet_horiz_integral_otherwise (1,600,037 us, 0.72%)</title><rect x="123.2" y="119" width="8.5" height="15.0" fill="rgb(0,0,0)" rx="2" ry="2" />
<text  x="126.18" y="129.5" ></text>
</g>
<g >
<title>firedrake.assemble.assemble (10,386,451 us, 4.69%)</title><rect x="30.5" y="71" width="55.3" height="15.0" fill="rgb(0,0,0)" rx="2" ry="2" />
<text  x="33.46" y="81.5" >fired..</text>
</g>
<g >
<title>pyop2.global_kernel.GlobalKernel.compile (37,009,244 us, 16.72%)</title><rect x="911.2" y="183" width="197.3" height="15.0" fill="rgb(0,0,0)" rx="2" ry="2" />
<text  x="914.21" y="193.5" >pyop2.global_kernel.Glo..</text>
</g>
<g >
<title>firedrake.functionspaceimpl.FunctionSpace.__init__ (24,396 us, 0.01%)</title><rect x="22.1" y="87" width="0.1" height="15.0" fill="rgb(0,0,0)" rx="2" ry="2" />
<text  x="25.09" y="97.5" ></text>
</g>
<g >
<title>firedrake.function.Function.project (41,691,048 us, 18.84%)</title><rect x="85.8" y="71" width="222.3" height="15.0" fill="rgb(0,0,0)" rx="2" ry="2" />
<text  x="88.83" y="81.5" >firedrake.function.Functio..</text>
</g>
<g >
<title>pyop2.global_kernel.GlobalKernel.compile (4,319,607 us, 1.95%)</title><rect x="86.0" y="135" width="23.0" height="15.0" fill="rgb(0,0,0)" rx="2" ry="2" />
<text  x="88.96" y="145.5" >p..</text>
</g>
<g >
<title>PCApply (89,516,792 us, 40.44%)</title><rect x="423.8" y="119" width="477.3" height="15.0" fill="rgb(0,0,0)" rx="2" ry="2" />
<text  x="426.85" y="129.5" >PCApply</text>
</g>
<g >
<title>pyop2.global_kernel.GlobalKernel.compile (362,873 us, 0.16%)</title><rect x="75.2" y="151" width="2.0" height="15.0" fill="rgb(0,0,0)" rx="2" ry="2" />
<text  x="78.25" y="161.5" ></text>
</g>
<g >
<title>pyop2.global_kernel.GlobalKernel.compile (1,363,339 us, 0.62%)</title><rect x="44.5" y="119" width="7.3" height="15.0" fill="rgb(0,0,0)" rx="2" ry="2" />
<text  x="47.49" y="129.5" ></text>
</g>
<g >
<title>firedrake.__init__ (1,546,582 us, 0.70%)</title><rect x="22.2" y="71" width="8.3" height="15.0" fill="rgb(0,0,0)" rx="2" ry="2" />
<text  x="25.22" y="81.5" ></text>
</g>
<g >
<title>firedrake.tsfc_interface.compile_form (3,171,550 us, 1.43%)</title><rect x="678.2" y="167" width="16.9" height="15.0" fill="rgb(0,0,0)" rx="2" ry="2" />
<text  x="681.22" y="177.5" ></text>
</g>
<g >
<title>pyop2.global_kernel.GlobalKernel.compile (11,001,035 us, 4.97%)</title><rect x="308.1" y="151" width="58.7" height="15.0" fill="rgb(0,0,0)" rx="2" ry="2" />
<text  x="311.10" y="161.5" >pyop2..</text>
</g>
<g >
<title>Parloop_Cells_wrap_par_loop_kernel (665,468 us, 0.30%)</title><rect x="1126.5" y="167" width="3.6" height="15.0" fill="rgb(0,0,0)" rx="2" ry="2" />
<text  x="1129.51" y="177.5" ></text>
</g>
<g >
<title>CreateFunctionSpace (24,396 us, 0.01%)</title><rect x="22.1" y="71" width="0.1" height="15.0" fill="rgb(0,0,0)" rx="2" ry="2" />
<text  x="25.09" y="81.5" ></text>
</g>
<g >
<title>pyop2.global_kernel.GlobalKernel.compile (1,968,328 us, 0.89%)</title><rect x="51.8" y="119" width="10.5" height="15.0" fill="rgb(0,0,0)" rx="2" ry="2" />
<text  x="54.76" y="129.5" ></text>
</g>
<g >
<title>pyop2.global_kernel.GlobalKernel.compile (902,573 us, 0.41%)</title><rect x="705.4" y="215" width="4.8" height="15.0" fill="rgb(0,0,0)" rx="2" ry="2" />
<text  x="708.42" y="225.5" ></text>
</g>
<g >
<title>PCSetUp (42,948,177 us, 19.40%)</title><rect x="901.1" y="103" width="229.0" height="15.0" fill="rgb(0,0,0)" rx="2" ry="2" />
<text  x="904.09" y="113.5" >PCSetUp</text>
</g>
<g >
<title>pyop2.global_kernel.GlobalKernel.compile (1,236,176 us, 0.56%)</title><rect x="432.3" y="215" width="6.6" height="15.0" fill="rgb(0,0,0)" rx="2" ry="2" />
<text  x="435.33" y="225.5" ></text>
</g>
<g >
<title>Parloop_Cells_wrap_form00_cell_integral_otherwise (14,432,542 us, 6.52%)</title><rect x="156.3" y="135" width="77.0" height="15.0" fill="rgb(0,0,0)" rx="2" ry="2" />
<text  x="159.34" y="145.5" >Parloop_..</text>
</g>
<g >
<title>firedrake.tsfc_interface.compile_form (1,435,920 us, 0.65%)</title><rect x="366.8" y="119" width="7.6" height="15.0" fill="rgb(0,0,0)" rx="2" ry="2" />
<text  x="369.75" y="129.5" ></text>
</g>
<g >
<title>pyop2.global_kernel.GlobalKernel.compile (1,653,210 us, 0.75%)</title><rect x="233.3" y="151" width="8.8" height="15.0" fill="rgb(0,0,0)" rx="2" ry="2" />
<text  x="236.29" y="161.5" ></text>
</g>
<g >
<title>Parloop_IntFacets_wrap_form_interior_facet_vert_integral_otherwise (2,040,146 us, 0.92%)</title><rect x="62.3" y="103" width="10.8" height="15.0" fill="rgb(0,0,0)" rx="2" ry="2" />
<text  x="65.26" y="113.5" ></text>
</g>
<g >
<title>Parloop_Cells_wrap_par_loop_kernel (902,573 us, 0.41%)</title><rect x="705.4" y="199" width="4.8" height="15.0" fill="rgb(0,0,0)" rx="2" ry="2" />
<text  x="708.42" y="209.5" ></text>
</g>
<g >
<title>pyop2.global_kernel.GlobalKernel.compile (2,040,146 us, 0.92%)</title><rect x="62.3" y="119" width="10.8" height="15.0" fill="rgb(0,0,0)" rx="2" ry="2" />
<text  x="65.26" y="129.5" ></text>
</g>
</g>
</svg>
