<?xml version="1.0" standalone="no"?>
<!DOCTYPE svg PUBLIC "-//W3C//DTD SVG 1.1//EN" "http://www.w3.org/Graphics/SVG/1.1/DTD/svg11.dtd">
<svg version="1.1" width="1200" height="427" onload="init(evt)" viewBox="0 0 1200 427" xmlns="http://www.w3.org/2000/svg" xmlns:xlink="http://www.w3.org/1999/xlink">
<!-- Flame graph stack visualization. See https://github.com/brendangregg/FlameGraph for latest version, and http://www.brendangregg.com/flamegraphs.html for examples. -->
<!-- NOTES:  -->
<defs>
	<linearGradient id="background" y1="0" y2="1" x1="0" x2="0" >
		<stop stop-color="#eeeeee" offset="5%" />
		<stop stop-color="#eeeeb0" offset="95%" />
	</linearGradient>
</defs>
<style type="text/css">
	text { font-family:Verdana; font-size:13px; fill:rgb(0,0,0); }
	#search, #ignorecase { opacity:0.1; cursor:pointer; }
	#search:hover, #search.show, #ignorecase:hover, #ignorecase.show { opacity:1; }
	#subtitle { text-anchor:middle; font-color:rgb(160,160,160); }
	#title { text-anchor:middle; font-size:18px}
	#unzoom { cursor:pointer; }
	#frames > *:hover { stroke:black; stroke-width:0.5; cursor:pointer; }
	.hide { display:none; }
	.parent { opacity:0.5; }
</style>
<script type="text/ecmascript">
<![CDATA[
	"use strict";
	var details, searchbtn, unzoombtn, matchedtxt, svg, searching, currentSearchTerm, ignorecase, ignorecaseBtn;
	function init(evt) {
		details = document.getElementById("details").firstChild;
		searchbtn = document.getElementById("search");
		ignorecaseBtn = document.getElementById("ignorecase");
		unzoombtn = document.getElementById("unzoom");
		matchedtxt = document.getElementById("matched");
		svg = document.getElementsByTagName("svg")[0];
		searching = 0;
		currentSearchTerm = null;

		// use GET parameters to restore a flamegraphs state.
		var params = get_params();
		if (params.x && params.y)
			zoom(find_group(document.querySelector('[x="' + params.x + '"][y="' + params.y + '"]')));
                if (params.s) search(params.s);
	}

	// event listeners
	window.addEventListener("click", function(e) {
		var target = find_group(e.target);
		if (target) {
			if (target.nodeName == "a") {
				if (e.ctrlKey === false) return;
				e.preventDefault();
			}
			if (target.classList.contains("parent")) unzoom();
			zoom(target);
			if (!document.querySelector('.parent')) {
				clearzoom();
				return;
			}

			// set parameters for zoom state
			var el = target.querySelector("rect");
			if (el && el.attributes && el.attributes.y && el.attributes._orig_x) {
				var params = get_params()
				params.x = el.attributes._orig_x.value;
				params.y = el.attributes.y.value;
				history.replaceState(null, null, parse_params(params));
			}
		}
		else if (e.target.id == "unzoom") clearzoom();
		else if (e.target.id == "search") search_prompt();
		else if (e.target.id == "ignorecase") toggle_ignorecase();
	}, false)

	// mouse-over for info
	// show
	window.addEventListener("mouseover", function(e) {
		var target = find_group(e.target);
		if (target) details.nodeValue = "Function: " + g_to_text(target);
	}, false)

	// clear
	window.addEventListener("mouseout", function(e) {
		var target = find_group(e.target);
		if (target) details.nodeValue = ' ';
	}, false)

	// ctrl-F for search
	// ctrl-I to toggle case-sensitive search
	window.addEventListener("keydown",function (e) {
		if (e.keyCode === 114 || (e.ctrlKey && e.keyCode === 70)) {
			e.preventDefault();
			search_prompt();
		}
		else if (e.ctrlKey && e.keyCode === 73) {
			e.preventDefault();
			toggle_ignorecase();
		}
	}, false)

	// functions
	function get_params() {
		var params = {};
		var paramsarr = window.location.search.substr(1).split('&');
		for (var i = 0; i < paramsarr.length; ++i) {
			var tmp = paramsarr[i].split("=");
			if (!tmp[0] || !tmp[1]) continue;
			params[tmp[0]]  = decodeURIComponent(tmp[1]);
		}
		return params;
	}
	function parse_params(params) {
		var uri = "?";
		for (var key in params) {
			uri += key + '=' + encodeURIComponent(params[key]) + '&';
		}
		if (uri.slice(-1) == "&")
			uri = uri.substring(0, uri.length - 1);
		if (uri == '?')
			uri = window.location.href.split('?')[0];
		return uri;
	}
	function find_child(node, selector) {
		var children = node.querySelectorAll(selector);
		if (children.length) return children[0];
	}
	function find_group(node) {
		var parent = node.parentElement;
		if (!parent) return;
		if (parent.id == "frames") return node;
		return find_group(parent);
	}
	function orig_save(e, attr, val) {
		if (e.attributes["_orig_" + attr] != undefined) return;
		if (e.attributes[attr] == undefined) return;
		if (val == undefined) val = e.attributes[attr].value;
		e.setAttribute("_orig_" + attr, val);
	}
	function orig_load(e, attr) {
		if (e.attributes["_orig_"+attr] == undefined) return;
		e.attributes[attr].value = e.attributes["_orig_" + attr].value;
		e.removeAttribute("_orig_"+attr);
	}
	function g_to_text(e) {
		var text = find_child(e, "title").firstChild.nodeValue;
		return (text)
	}
	function g_to_func(e) {
		var func = g_to_text(e);
		// if there's any manipulation we want to do to the function
		// name before it's searched, do it here before returning.
		return (func);
	}
	function update_text(e) {
		var r = find_child(e, "rect");
		var t = find_child(e, "text");
		var w = parseFloat(r.attributes.width.value) -3;
		var txt = find_child(e, "title").textContent.replace(/\([^(]*\)$/,"");
		t.attributes.x.value = parseFloat(r.attributes.x.value) + 3;

		// Smaller than this size won't fit anything
		if (w < 2 * 13 * 0.59) {
			t.textContent = "";
			return;
		}

		t.textContent = txt;
		// Fit in full text width
		if (/^ *$/.test(txt) || t.getSubStringLength(0, txt.length) < w)
			return;

		for (var x = txt.length - 2; x > 0; x--) {
			if (t.getSubStringLength(0, x + 2) <= w) {
				t.textContent = txt.substring(0, x) + "..";
				return;
			}
		}
		t.textContent = "";
	}

	// zoom
	function zoom_reset(e) {
		if (e.attributes != undefined) {
			orig_load(e, "x");
			orig_load(e, "width");
		}
		if (e.childNodes == undefined) return;
		for (var i = 0, c = e.childNodes; i < c.length; i++) {
			zoom_reset(c[i]);
		}
	}
	function zoom_child(e, x, ratio) {
		if (e.attributes != undefined) {
			if (e.attributes.x != undefined) {
				orig_save(e, "x");
				e.attributes.x.value = (parseFloat(e.attributes.x.value) - x - 10) * ratio + 10;
				if (e.tagName == "text")
					e.attributes.x.value = find_child(e.parentNode, "rect[x]").attributes.x.value + 3;
			}
			if (e.attributes.width != undefined) {
				orig_save(e, "width");
				e.attributes.width.value = parseFloat(e.attributes.width.value) * ratio;
			}
		}

		if (e.childNodes == undefined) return;
		for (var i = 0, c = e.childNodes; i < c.length; i++) {
			zoom_child(c[i], x - 10, ratio);
		}
	}
	function zoom_parent(e) {
		if (e.attributes) {
			if (e.attributes.x != undefined) {
				orig_save(e, "x");
				e.attributes.x.value = 10;
			}
			if (e.attributes.width != undefined) {
				orig_save(e, "width");
				e.attributes.width.value = parseInt(svg.width.baseVal.value) - (10 * 2);
			}
		}
		if (e.childNodes == undefined) return;
		for (var i = 0, c = e.childNodes; i < c.length; i++) {
			zoom_parent(c[i]);
		}
	}
	function zoom(node) {
		var attr = find_child(node, "rect").attributes;
		var width = parseFloat(attr.width.value);
		var xmin = parseFloat(attr.x.value);
		var xmax = parseFloat(xmin + width);
		var ymin = parseFloat(attr.y.value);
		var ratio = (svg.width.baseVal.value - 2 * 10) / width;

		// XXX: Workaround for JavaScript float issues (fix me)
		var fudge = 0.0001;

		unzoombtn.classList.remove("hide");

		var el = document.getElementById("frames").children;
		for (var i = 0; i < el.length; i++) {
			var e = el[i];
			var a = find_child(e, "rect").attributes;
			var ex = parseFloat(a.x.value);
			var ew = parseFloat(a.width.value);
			var upstack;
			// Is it an ancestor
			if (1 == 0) {
				upstack = parseFloat(a.y.value) > ymin;
			} else {
				upstack = parseFloat(a.y.value) < ymin;
			}
			if (upstack) {
				// Direct ancestor
				if (ex <= xmin && (ex+ew+fudge) >= xmax) {
					e.classList.add("parent");
					zoom_parent(e);
					update_text(e);
				}
				// not in current path
				else
					e.classList.add("hide");
			}
			// Children maybe
			else {
				// no common path
				if (ex < xmin || ex + fudge >= xmax) {
					e.classList.add("hide");
				}
				else {
					zoom_child(e, xmin, ratio);
					update_text(e);
				}
			}
		}
		search();
	}
	function unzoom() {
		unzoombtn.classList.add("hide");
		var el = document.getElementById("frames").children;
		for(var i = 0; i < el.length; i++) {
			el[i].classList.remove("parent");
			el[i].classList.remove("hide");
			zoom_reset(el[i]);
			update_text(el[i]);
		}
		search();
	}
	function clearzoom() {
		unzoom();

		// remove zoom state
		var params = get_params();
		if (params.x) delete params.x;
		if (params.y) delete params.y;
		history.replaceState(null, null, parse_params(params));
	}

	// search
	function toggle_ignorecase() {
		ignorecase = !ignorecase;
		if (ignorecase) {
			ignorecaseBtn.classList.add("show");
		} else {
			ignorecaseBtn.classList.remove("show");
		}
		reset_search();
		search();
	}
	function reset_search() {
		var el = document.querySelectorAll("#frames rect");
		for (var i = 0; i < el.length; i++) {
			orig_load(el[i], "fill")
		}
		var params = get_params();
		delete params.s;
		history.replaceState(null, null, parse_params(params));
	}
	function search_prompt() {
		if (!searching) {
			var term = prompt("Enter a search term (regexp " +
			    "allowed, eg: ^ext4_)"
			    + (ignorecase ? ", ignoring case" : "")
			    + "\nPress Ctrl-i to toggle case sensitivity", "");
			if (term != null) search(term);
		} else {
			reset_search();
			searching = 0;
			currentSearchTerm = null;
			searchbtn.classList.remove("show");
			searchbtn.firstChild.nodeValue = "Search"
			matchedtxt.classList.add("hide");
			matchedtxt.firstChild.nodeValue = ""
		}
	}
	function search(term) {
		if (term) currentSearchTerm = term;

		var re = new RegExp(currentSearchTerm, ignorecase ? 'i' : '');
		var el = document.getElementById("frames").children;
		var matches = new Object();
		var maxwidth = 0;
		for (var i = 0; i < el.length; i++) {
			var e = el[i];
			var func = g_to_func(e);
			var rect = find_child(e, "rect");
			if (func == null || rect == null)
				continue;

			// Save max width. Only works as we have a root frame
			var w = parseFloat(rect.attributes.width.value);
			if (w > maxwidth)
				maxwidth = w;

			if (func.match(re)) {
				// highlight
				var x = parseFloat(rect.attributes.x.value);
				orig_save(rect, "fill");
				rect.attributes.fill.value = "rgb(230,0,230)";

				// remember matches
				if (matches[x] == undefined) {
					matches[x] = w;
				} else {
					if (w > matches[x]) {
						// overwrite with parent
						matches[x] = w;
					}
				}
				searching = 1;
			}
		}
		if (!searching)
			return;
		var params = get_params();
		params.s = currentSearchTerm;
		history.replaceState(null, null, parse_params(params));

		searchbtn.classList.add("show");
		searchbtn.firstChild.nodeValue = "Reset Search";

		// calculate percent matched, excluding vertical overlap
		var count = 0;
		var lastx = -1;
		var lastw = 0;
		var keys = Array();
		for (k in matches) {
			if (matches.hasOwnProperty(k))
				keys.push(k);
		}
		// sort the matched frames by their x location
		// ascending, then width descending
		keys.sort(function(a, b){
			return a - b;
		});
		// Step through frames saving only the biggest bottom-up frames
		// thanks to the sort order. This relies on the tree property
		// where children are always smaller than their parents.
		var fudge = 0.0001;	// JavaScript floating point
		for (var k in keys) {
			var x = parseFloat(keys[k]);
			var w = matches[keys[k]];
			if (x >= lastx + lastw - fudge) {
				count += w;
				lastx = x;
				lastw = w;
			}
		}
		// display matched percent
		matchedtxt.classList.remove("hide");
		var pct = 100 * count / maxwidth;
		if (pct != 100) pct = pct.toFixed(1)
		matchedtxt.firstChild.nodeValue = "Matched: " + pct + "%";
	}
]]>
</script>
<rect x="0.0" y="0" width="1200.0" height="427.0" fill="url(#background)"  />
<text id="title" x="600.00" y="26" >Firedrake example</text>
<text id="details" x="10.00" y="409" > </text>
<text id="unzoom" x="10.00" y="26" class="hide">Reset Zoom</text>
<text id="search" x="1090.00" y="26" >Search</text>
<text id="ignorecase" x="1174.00" y="26" >ic</text>
<text id="matched" x="1090.00" y="409" > </text>
<g id="frames">
<g >
<title>firedrake.parloops.par_loop (656,736 us, 0.25%)</title><rect x="1157.9" y="135" width="2.9" height="15.0" fill="rgb(0,0,0)" rx="2" ry="2" />
<text  x="1160.92" y="145.5" ></text>
</g>
<g >
<title>SCForwardElim (78,722,703 us, 29.37%)</title><rect x="296.8" y="135" width="346.6" height="15.0" fill="rgb(0,0,0)" rx="2" ry="2" />
<text  x="299.83" y="145.5" >SCForwardElim</text>
</g>
<g >
<title>Parloop_Cells_wrap_slate_loopy_knl_0 (55,469,217 us, 20.70%)</title><rect x="337.4" y="183" width="244.2" height="15.0" fill="rgb(0,0,0)" rx="2" ry="2" />
<text  x="340.42" y="193.5" >Parloop_Cells_wrap_slate_loop..</text>
</g>
<g >
<title>firedrake.tsfc_interface.compile_form (3,626,972 us, 1.35%)</title><rect x="1110.6" y="231" width="16.0" height="15.0" fill="rgb(0,0,0)" rx="2" ry="2" />
<text  x="1113.64" y="241.5" ></text>
</g>
<g >
<title>Parloop_Cells_wrap_expression_kernel (1,066,294 us, 0.40%)</title><rect x="655.6" y="359" width="4.7" height="15.0" fill="rgb(0,0,0)" rx="2" ry="2" />
<text  x="658.64" y="369.5" ></text>
</g>
<g >
<title>firedrake.extrusion_utils.make_extruded_coords (924,021 us, 0.34%)</title><rect x="14.1" y="87" width="4.1" height="15.0" fill="rgb(0,0,0)" rx="2" ry="2" />
<text  x="17.12" y="97.5" ></text>
</g>
<g >
<title>pyop2.global_kernel.GlobalKernel.compile (16,612,742 us, 6.20%)</title><rect x="1037.5" y="263" width="73.1" height="15.0" fill="rgb(0,0,0)" rx="2" ry="2" />
<text  x="1040.51" y="273.5" >pyop2.g..</text>
</g>
<g >
<title>PCSetUp (719,203 us, 0.27%)</title><rect x="1157.6" y="103" width="3.2" height="15.0" fill="rgb(0,0,0)" rx="2" ry="2" />
<text  x="1160.64" y="113.5" ></text>
</g>
<g >
<title>PCSetUp (3,529,769 us, 1.32%)</title><rect x="651.7" y="231" width="15.6" height="15.0" fill="rgb(0,0,0)" rx="2" ry="2" />
<text  x="654.73" y="241.5" ></text>
</g>
<g >
<title>ParLoopExecute (5,542,411 us, 2.07%)</title><rect x="1160.8" y="119" width="24.4" height="15.0" fill="rgb(0,0,0)" rx="2" ry="2" />
<text  x="1163.81" y="129.5" >P..</text>
</g>
<g >
<title>pyop2.global_kernel.GlobalKernel.compile (55,437,040 us, 20.68%)</title><rect x="337.6" y="199" width="244.0" height="15.0" fill="rgb(0,0,0)" rx="2" ry="2" />
<text  x="340.57" y="209.5" >pyop2.global_kernel.GlobalKer..</text>
</g>
<g >
<title>MatMult (110,329 us, 0.04%)</title><rect x="643.4" y="167" width="0.5" height="15.0" fill="rgb(0,0,0)" rx="2" ry="2" />
<text  x="646.41" y="177.5" ></text>
</g>
<g >
<title>Parloop_set_#x7f4584699810_wrap_pyop2_kernel_inject (579,886 us, 0.22%)</title><rect x="653.1" y="327" width="2.5" height="15.0" fill="rgb(0,0,0)" rx="2" ry="2" />
<text  x="656.09" y="337.5" ></text>
</g>
<g >
<title>pyop2.global_kernel.GlobalKernel.compile (891,994 us, 0.33%)</title><rect x="14.3" y="135" width="3.9" height="15.0" fill="rgb(0,0,0)" rx="2" ry="2" />
<text  x="17.26" y="145.5" ></text>
</g>
<g >
<title>DMCoarsen (2,414,836 us, 0.90%)</title><rect x="651.7" y="247" width="10.7" height="15.0" fill="rgb(0,0,0)" rx="2" ry="2" />
<text  x="654.73" y="257.5" ></text>
</g>
<g >
<title>Log_Event_tensorshell_knl_92 (64,566 us, 0.02%)</title><rect x="646.0" y="311" width="0.3" height="15.0" fill="rgb(0,0,0)" rx="2" ry="2" />
<text  x="648.97" y="321.5" ></text>
</g>
<g >
<title>SCBackSub (55,372,234 us, 20.66%)</title><rect x="53.1" y="135" width="243.7" height="15.0" fill="rgb(0,0,0)" rx="2" ry="2" />
<text  x="56.06" y="145.5" >SCBackSub</text>
</g>
<g >
<title>Parloop_Cells_wrap_slate_loopy_knl_79 (110,216 us, 0.04%)</title><rect x="667.3" y="263" width="0.5" height="15.0" fill="rgb(0,0,0)" rx="2" ry="2" />
<text  x="670.27" y="273.5" ></text>
</g>
<g >
<title>Parloop_Cells_wrap_wrap_slate_loopy_knl_70 (16,612,742 us, 6.20%)</title><rect x="1037.5" y="247" width="73.1" height="15.0" fill="rgb(0,0,0)" rx="2" ry="2" />
<text  x="1040.51" y="257.5" >Parloop..</text>
</g>
<g >
<title>HybridProject (891,882 us, 0.33%)</title><rect x="57.9" y="151" width="3.9" height="15.0" fill="rgb(0,0,0)" rx="2" ry="2" />
<text  x="60.91" y="161.5" ></text>
</g>
<g >
<title>PCSetUp (22,327,136 us, 8.33%)</title><rect x="1028.3" y="215" width="98.3" height="15.0" fill="rgb(0,0,0)" rx="2" ry="2" />
<text  x="1031.32" y="225.5" >PCSetUp</text>
</g>
<g >
<title>Log_Event_tensorshell_knl_130 (65,811 us, 0.02%)</title><rect x="645.3" y="311" width="0.3" height="15.0" fill="rgb(0,0,0)" rx="2" ry="2" />
<text  x="648.28" y="321.5" ></text>
</g>
<g >
<title>ParLoopExecute (6,333,864 us, 2.36%)</title><rect x="1128.3" y="167" width="27.9" height="15.0" fill="rgb(0,0,0)" rx="2" ry="2" />
<text  x="1131.27" y="177.5" >P..</text>
</g>
<g >
<title>Log_Event_tensorshell_knl_120 (65,569 us, 0.02%)</title><rect x="645.0" y="311" width="0.3" height="15.0" fill="rgb(0,0,0)" rx="2" ry="2" />
<text  x="647.99" y="321.5" ></text>
</g>
<g >
<title>Parloop_Cells_wrap_slate_loopy_knl_79 (57,798,185 us, 21.56%)</title><rect x="706.2" y="279" width="254.5" height="15.0" fill="rgb(0,0,0)" rx="2" ry="2" />
<text  x="709.20" y="289.5" >Parloop_Cells_wrap_slate_loopy_..</text>
</g>
<g >
<title>Log_Event_mtf_solve_81 (129,057 us, 0.05%)</title><rect x="645.7" y="295" width="0.6" height="15.0" fill="rgb(0,0,0)" rx="2" ry="2" />
<text  x="648.69" y="305.5" ></text>
</g>
<g >
<title>Log_Event_mtf_solve_142 (27,713 us, 0.01%)</title><rect x="645.6" y="295" width="0.1" height="15.0" fill="rgb(0,0,0)" rx="2" ry="2" />
<text  x="648.57" y="305.5" ></text>
</g>
<g >
<title>firedrake.dmhooks.coarsen (2,414,836 us, 0.90%)</title><rect x="651.7" y="263" width="10.7" height="15.0" fill="rgb(0,0,0)" rx="2" ry="2" />
<text  x="654.73" y="273.5" ></text>
</g>
<g >
<title>Log_Event_mtf_solve_81 (70,044 us, 0.03%)</title><rect x="707.1" y="311" width="0.4" height="15.0" fill="rgb(0,0,0)" rx="2" ry="2" />
<text  x="710.15" y="321.5" ></text>
</g>
<g >
<title>ParLoopExecute (5,501,388 us, 2.05%)</title><rect x="24.9" y="151" width="24.2" height="15.0" fill="rgb(0,0,0)" rx="2" ry="2" />
<text  x="27.92" y="161.5" >P..</text>
</g>
<g >
<title>Parloop_Cells_wrap_form00_cell_integral_otherwise (5,123,508 us, 1.91%)</title><rect x="1133.6" y="183" width="22.6" height="15.0" fill="rgb(0,0,0)" rx="2" ry="2" />
<text  x="1136.60" y="193.5" ></text>
</g>
<g >
<title>KSPSolve (257,292,355 us, 95.99%)</title><rect x="24.9" y="103" width="1132.7" height="15.0" fill="rgb(0,0,0)" rx="2" ry="2" />
<text  x="27.92" y="113.5" >KSPSolve</text>
</g>
<g >
<title>Log_Event_tensorshell_knl_92 (35,011 us, 0.01%)</title><rect x="707.3" y="327" width="0.2" height="15.0" fill="rgb(0,0,0)" rx="2" ry="2" />
<text  x="710.30" y="337.5" ></text>
</g>
<g >
<title>ParLoopExecute (16,612,742 us, 6.20%)</title><rect x="1037.5" y="231" width="73.1" height="15.0" fill="rgb(0,0,0)" rx="2" ry="2" />
<text  x="1040.51" y="241.5" >ParLoop..</text>
</g>
<g >
<title>ParLoopExecute (680,943 us, 0.25%)</title><rect x="662.4" y="279" width="3.0" height="15.0" fill="rgb(0,0,0)" rx="2" ry="2" />
<text  x="665.36" y="289.5" ></text>
</g>
<g >
<title>firedrake.matrix_free.operators.ImplicitMatrixContext.mult (81,900,862 us, 30.56%)</title><rect x="667.8" y="247" width="360.5" height="15.0" fill="rgb(0,0,0)" rx="2" ry="2" />
<text  x="670.75" y="257.5" >firedrake.matrix_free.operators.ImplicitMatri..</text>
</g>
<g >
<title>PCSetUp (104,565,973 us, 39.01%)</title><rect x="667.8" y="183" width="460.3" height="15.0" fill="rgb(0,0,0)" rx="2" ry="2" />
<text  x="670.75" y="193.5" >PCSetUp</text>
</g>
<g >
<title>MatMult (81,900,862 us, 30.56%)</title><rect x="667.8" y="231" width="360.5" height="15.0" fill="rgb(0,0,0)" rx="2" ry="2" />
<text  x="670.75" y="241.5" >MatMult</text>
</g>
<g >
<title>Log_Event_mtf_solve_112 (35,626 us, 0.01%)</title><rect x="644.8" y="295" width="0.2" height="15.0" fill="rgb(0,0,0)" rx="2" ry="2" />
<text  x="647.83" y="305.5" ></text>
</g>
<g >
<title>ParLoopExecute (55,469,217 us, 20.70%)</title><rect x="337.4" y="167" width="244.2" height="15.0" fill="rgb(0,0,0)" rx="2" ry="2" />
<text  x="340.42" y="177.5" >ParLoopExecute</text>
</g>
<g >
<title>firedrake.matrix_free.operators.ImplicitMatrixContext.mult (6,391,390 us, 2.38%)</title><rect x="24.9" y="135" width="28.2" height="15.0" fill="rgb(0,0,0)" rx="2" ry="2" />
<text  x="27.92" y="145.5" >f..</text>
</g>
<g >
<title>PCSetUp (337,975 us, 0.13%)</title><rect x="1126.6" y="199" width="1.5" height="15.0" fill="rgb(0,0,0)" rx="2" ry="2" />
<text  x="1129.61" y="209.5" ></text>
</g>
<g >
<title>Log_Event_mtf_solve_119 (131,380 us, 0.05%)</title><rect x="645.0" y="295" width="0.6" height="15.0" fill="rgb(0,0,0)" rx="2" ry="2" />
<text  x="647.99" y="305.5" ></text>
</g>
<g >
<title>Log_Event_slate_loopy_knl_79 (536,513 us, 0.20%)</title><rect x="643.9" y="279" width="2.4" height="15.0" fill="rgb(0,0,0)" rx="2" ry="2" />
<text  x="646.89" y="289.5" ></text>
</g>
<g >
<title>pyop2.global_kernel.GlobalKernel.compile (2,437,128 us, 0.91%)</title><rect x="1174.5" y="151" width="10.7" height="15.0" fill="rgb(0,0,0)" rx="2" ry="2" />
<text  x="1177.48" y="161.5" ></text>
</g>
<g >
<title>PCApply (250,900,965 us, 93.61%)</title><rect x="53.1" y="119" width="1104.5" height="15.0" fill="rgb(0,0,0)" rx="2" ry="2" />
<text  x="56.06" y="129.5" >PCApply</text>
</g>
<g >
<title>firedrake.matrix_free.operators.ImplicitMatrixContext.mult (110,329 us, 0.04%)</title><rect x="643.4" y="183" width="0.5" height="15.0" fill="rgb(0,0,0)" rx="2" ry="2" />
<text  x="646.41" y="193.5" ></text>
</g>
<g >
<title>firedrake.tsfc_interface.compile_form (337,975 us, 0.13%)</title><rect x="1126.6" y="215" width="1.5" height="15.0" fill="rgb(0,0,0)" rx="2" ry="2" />
<text  x="1129.61" y="225.5" ></text>
</g>
<g >
<title>ParLoopExecute (110,329 us, 0.04%)</title><rect x="643.4" y="199" width="0.5" height="15.0" fill="rgb(0,0,0)" rx="2" ry="2" />
<text  x="646.41" y="209.5" ></text>
</g>
<g >
<title>pyop2.global_kernel.GlobalKernel.compile (3,222,567 us, 1.20%)</title><rect x="24.9" y="183" width="14.2" height="15.0" fill="rgb(0,0,0)" rx="2" ry="2" />
<text  x="27.92" y="193.5" ></text>
</g>
<g >
<title>Log_Event_slate_loopy_knl_79 (110,329 us, 0.04%)</title><rect x="643.4" y="231" width="0.5" height="15.0" fill="rgb(0,0,0)" rx="2" ry="2" />
<text  x="646.41" y="241.5" ></text>
</g>
<g >
<title>Parloop_Cells_wrap_par_loop_kernel (1,045,656 us, 0.39%)</title><rect x="296.8" y="199" width="4.6" height="15.0" fill="rgb(0,0,0)" rx="2" ry="2" />
<text  x="299.83" y="209.5" ></text>
</g>
<g >
<title>Log_Event_mtf_solve_119 (27,985 us, 0.01%)</title><rect x="643.8" y="247" width="0.1" height="15.0" fill="rgb(0,0,0)" rx="2" ry="2" />
<text  x="646.77" y="257.5" ></text>
</g>
<g >
<title>ParLoopExecute (558,756 us, 0.21%)</title><rect x="647.4" y="311" width="2.4" height="15.0" fill="rgb(0,0,0)" rx="2" ry="2" />
<text  x="650.37" y="321.5" ></text>
</g>
<g >
<title>pyop2.global_kernel.GlobalKernel.compile (28,626,058 us, 10.68%)</title><rect x="123.8" y="199" width="126.0" height="15.0" fill="rgb(0,0,0)" rx="2" ry="2" />
<text  x="126.77" y="209.5" >pyop2.global_k..</text>
</g>
<g >
<title>MatMult (110,216 us, 0.04%)</title><rect x="667.3" y="215" width="0.5" height="15.0" fill="rgb(0,0,0)" rx="2" ry="2" />
<text  x="670.27" y="225.5" ></text>
</g>
<g >
<title>Parloop_Cells_wrap_slate_loopy_knl_79 (536,513 us, 0.20%)</title><rect x="643.9" y="263" width="2.4" height="15.0" fill="rgb(0,0,0)" rx="2" ry="2" />
<text  x="646.89" y="273.5" ></text>
</g>
<g >
<title>SNESFunctionEval (6,630,643 us, 2.47%)</title><rect x="1160.8" y="103" width="29.2" height="15.0" fill="rgb(0,0,0)" rx="2" ry="2" />
<text  x="1163.81" y="113.5" >S..</text>
</g>
<g >
<title>Log_Event_mtf_solve_132 (30,992 us, 0.01%)</title><rect x="645.4" y="327" width="0.2" height="15.0" fill="rgb(0,0,0)" rx="2" ry="2" />
<text  x="648.43" y="337.5" ></text>
</g>
<g >
<title>Parloop_Cells_wrap_pyop2_kernel_uniform_extrusion (891,994 us, 0.33%)</title><rect x="14.3" y="119" width="3.9" height="15.0" fill="rgb(0,0,0)" rx="2" ry="2" />
<text  x="17.26" y="129.5" ></text>
</g>
<g >
<title>pyop2.global_kernel.GlobalKernel.compile (1,066,294 us, 0.40%)</title><rect x="655.6" y="375" width="4.7" height="15.0" fill="rgb(0,0,0)" rx="2" ry="2" />
<text  x="658.64" y="385.5" ></text>
</g>
<g >
<title>firedrake.interpolation.Interpolator.interpolate (1,066,294 us, 0.40%)</title><rect x="655.6" y="327" width="4.7" height="15.0" fill="rgb(0,0,0)" rx="2" ry="2" />
<text  x="658.64" y="337.5" ></text>
</g>
<g >
<title>pyop2.global_kernel.GlobalKernel.compile (1,045,656 us, 0.39%)</title><rect x="296.8" y="215" width="4.6" height="15.0" fill="rgb(0,0,0)" rx="2" ry="2" />
<text  x="299.83" y="225.5" ></text>
</g>
<g >
<title>Parloop_Cells_wrap_form0_cell_integral_otherwise (3,105,283 us, 1.16%)</title><rect x="1160.8" y="135" width="13.7" height="15.0" fill="rgb(0,0,0)" rx="2" ry="2" />
<text  x="1163.81" y="145.5" ></text>
</g>
<g >
<title>Log_Event_tensorshell_knl_82 (64,491 us, 0.02%)</title><rect x="645.7" y="311" width="0.3" height="15.0" fill="rgb(0,0,0)" rx="2" ry="2" />
<text  x="648.69" y="321.5" ></text>
</g>
<g >
<title>HybridRHS (77,677,047 us, 28.98%)</title><rect x="301.4" y="151" width="342.0" height="15.0" fill="rgb(0,0,0)" rx="2" ry="2" />
<text  x="304.44" y="161.5" >HybridRHS</text>
</g>
<g >
<title>HybridBreak (1,045,656 us, 0.39%)</title><rect x="296.8" y="151" width="4.6" height="15.0" fill="rgb(0,0,0)" rx="2" ry="2" />
<text  x="299.83" y="161.5" ></text>
</g>
<g >
<title>ParLoopExecute (28,626,058 us, 10.68%)</title><rect x="123.8" y="167" width="126.0" height="15.0" fill="rgb(0,0,0)" rx="2" ry="2" />
<text  x="126.77" y="177.5" >ParLoopExecute</text>
</g>
<g >
<title>Parloop_Cells_wrap_slate_loopy_knl_151 (28,626,058 us, 10.68%)</title><rect x="123.8" y="183" width="126.0" height="15.0" fill="rgb(0,0,0)" rx="2" ry="2" />
<text  x="126.77" y="193.5" >Parloop_Cells_..</text>
</g>
<g >
<title>firedrake.matrix_free.operators.ImplicitMatrixContext.mult (536,513 us, 0.20%)</title><rect x="643.9" y="231" width="2.4" height="15.0" fill="rgb(0,0,0)" rx="2" ry="2" />
<text  x="646.89" y="241.5" ></text>
</g>
<g >
<title>firedrake.tsfc_interface.compile_form (337,406 us, 0.13%)</title><rect x="1156.2" y="167" width="1.4" height="15.0" fill="rgb(0,0,0)" rx="2" ry="2" />
<text  x="1159.16" y="177.5" ></text>
</g>
<g >
<title>firedrake.tsfc_interface.compile_form (8,410,566 us, 3.14%)</title><rect x="249.8" y="167" width="37.0" height="15.0" fill="rgb(0,0,0)" rx="2" ry="2" />
<text  x="252.79" y="177.5" >fi..</text>
</g>
<g >
<title>PCApply (4,772,453 us, 1.78%)</title><rect x="646.3" y="215" width="21.0" height="15.0" fill="rgb(0,0,0)" rx="2" ry="2" />
<text  x="649.26" y="225.5" ></text>
</g>
<g >
<title>firedrake.slate.slac.optimise.optimise (31,095 us, 0.01%)</title><rect x="960.7" y="263" width="0.1" height="15.0" fill="rgb(0,0,0)" rx="2" ry="2" />
<text  x="963.65" y="273.5" ></text>
</g>
<g >
<title>PCApply (5,419,182 us, 2.02%)</title><rect x="643.9" y="183" width="23.9" height="15.0" fill="rgb(0,0,0)" rx="2" ry="2" />
<text  x="646.89" y="193.5" >P..</text>
</g>
<g >
<title>firedrake.matrix_free.operators.ImplicitMatrixContext.mult (110,216 us, 0.04%)</title><rect x="667.3" y="231" width="0.5" height="15.0" fill="rgb(0,0,0)" rx="2" ry="2" />
<text  x="670.27" y="241.5" ></text>
</g>
<g >
<title>KSPSolve (110,095,484 us, 41.08%)</title><rect x="643.4" y="151" width="484.7" height="15.0" fill="rgb(0,0,0)" rx="2" ry="2" />
<text  x="646.41" y="161.5" >KSPSolve</text>
</g>
<g >
<title>KSPSolve (81,900,862 us, 30.56%)</title><rect x="667.8" y="215" width="360.5" height="15.0" fill="rgb(0,0,0)" rx="2" ry="2" />
<text  x="670.75" y="225.5" >KSPSolve</text>
</g>
<g >
<title>Parloop_Cells_wrap_slate_loopy_knl_190 (10,510,751 us, 3.92%)</title><rect x="61.8" y="167" width="46.3" height="15.0" fill="rgb(0,0,0)" rx="2" ry="2" />
<text  x="64.84" y="177.5" >Parl..</text>
</g>
<g >
<title>HybridInit (719,203 us, 0.27%)</title><rect x="1157.6" y="119" width="3.2" height="15.0" fill="rgb(0,0,0)" rx="2" ry="2" />
<text  x="1160.64" y="129.5" ></text>
</g>
<g >
<title>pyop2.global_kernel.GlobalKernel.compile (656,736 us, 0.25%)</title><rect x="1157.9" y="183" width="2.9" height="15.0" fill="rgb(0,0,0)" rx="2" ry="2" />
<text  x="1160.92" y="193.5" ></text>
</g>
<g >
<title>Log_Event_tensorshell_knl_130 (35,910 us, 0.01%)</title><rect x="707.0" y="327" width="0.1" height="15.0" fill="rgb(0,0,0)" rx="2" ry="2" />
<text  x="709.99" y="337.5" ></text>
</g>
<g >
<title>firedrake.pointquery_utils.to_reference_coordinates (430,067 us, 0.16%)</title><rect x="649.8" y="311" width="1.9" height="15.0" fill="rgb(0,0,0)" rx="2" ry="2" />
<text  x="652.83" y="321.5" ></text>
</g>
<g >
<title>all (268,031,472 us, 100%)</title><rect x="10.0" y="39" width="1180.0" height="15.0" fill="rgb(0,0,0)" rx="2" ry="2" />
<text  x="13.00" y="49.5" ></text>
</g>
<g >
<title>MGInterp Level 1 (1,242,684 us, 0.46%)</title><rect x="646.3" y="247" width="5.4" height="15.0" fill="rgb(0,0,0)" rx="2" ry="2" />
<text  x="649.26" y="257.5" ></text>
</g>
<g >
<title>MatMult (1,242,684 us, 0.46%)</title><rect x="646.3" y="263" width="5.4" height="15.0" fill="rgb(0,0,0)" rx="2" ry="2" />
<text  x="649.26" y="273.5" ></text>
</g>
<g >
<title>firedrake.tsfc_interface.compile_form (1,088,232 us, 0.41%)</title><rect x="1185.2" y="119" width="4.8" height="15.0" fill="rgb(0,0,0)" rx="2" ry="2" />
<text  x="1188.21" y="129.5" ></text>
</g>
<g >
<title>MatMultTranspose (1,114,933 us, 0.42%)</title><rect x="662.4" y="247" width="4.9" height="15.0" fill="rgb(0,0,0)" rx="2" ry="2" />
<text  x="665.36" y="257.5" ></text>
</g>
<g >
<title>ParLoopExecute (1,045,656 us, 0.39%)</title><rect x="296.8" y="183" width="4.6" height="15.0" fill="rgb(0,0,0)" rx="2" ry="2" />
<text  x="299.83" y="193.5" ></text>
</g>
<g >
<title>firedrake.mg.interface.prolong (1,242,684 us, 0.46%)</title><rect x="646.3" y="295" width="5.4" height="15.0" fill="rgb(0,0,0)" rx="2" ry="2" />
<text  x="649.26" y="305.5" ></text>
</g>
<g >
<title>Log_Event_mtf_solve_122 (30,809 us, 0.01%)</title><rect x="645.1" y="327" width="0.2" height="15.0" fill="rgb(0,0,0)" rx="2" ry="2" />
<text  x="648.14" y="337.5" ></text>
</g>
<g >
<title>pyop2.global_kernel.GlobalKernel.compile (891,882 us, 0.33%)</title><rect x="57.9" y="215" width="3.9" height="15.0" fill="rgb(0,0,0)" rx="2" ry="2" />
<text  x="60.91" y="225.5" ></text>
</g>
<g >
<title>Parloop_Cells_wrap_form1_cell_integral_otherwise (2,278,821 us, 0.85%)</title><rect x="39.1" y="167" width="10.0" height="15.0" fill="rgb(0,0,0)" rx="2" ry="2" />
<text  x="42.11" y="177.5" ></text>
</g>
<g >
<title>pyop2.global_kernel.GlobalKernel.compile (1,210,356 us, 0.45%)</title><rect x="1128.3" y="199" width="5.3" height="15.0" fill="rgb(0,0,0)" rx="2" ry="2" />
<text  x="1131.27" y="209.5" ></text>
</g>
<g >
<title>Parloop_set_#x7f45846996f0_wrap_pyop2_kernel_restrict (680,943 us, 0.25%)</title><rect x="662.4" y="295" width="3.0" height="15.0" fill="rgb(0,0,0)" rx="2" ry="2" />
<text  x="665.36" y="305.5" ></text>
</g>
<g >
<title>firedrake.interpolation.make_interpolator (34,749 us, 0.01%)</title><rect x="660.3" y="327" width="0.2" height="15.0" fill="rgb(0,0,0)" rx="2" ry="2" />
<text  x="663.33" y="337.5" ></text>
</g>
<g >
<title>KSPSetUp (104,227,998 us, 38.89%)</title><rect x="667.8" y="199" width="458.8" height="15.0" fill="rgb(0,0,0)" rx="2" ry="2" />
<text  x="670.75" y="209.5" >KSPSetUp</text>
</g>
<g >
<title>SCSolve (116,806,028 us, 43.58%)</title><rect x="643.4" y="135" width="514.2" height="15.0" fill="rgb(0,0,0)" rx="2" ry="2" />
<text  x="646.41" y="145.5" >SCSolve</text>
</g>
<g >
<title>pyop2.global_kernel.GlobalKernel.compile (57,512,246 us, 21.46%)</title><rect x="707.5" y="295" width="253.2" height="15.0" fill="rgb(0,0,0)" rx="2" ry="2" />
<text  x="710.46" y="305.5" >pyop2.global_kernel.GlobalKerne..</text>
</g>
<g >
<title>ParLoopExecute (656,736 us, 0.25%)</title><rect x="1157.9" y="151" width="2.9" height="15.0" fill="rgb(0,0,0)" rx="2" ry="2" />
<text  x="1160.92" y="161.5" ></text>
</g>
<g >
<title>PCApply (1,242,684 us, 0.46%)</title><rect x="646.3" y="231" width="5.4" height="15.0" fill="rgb(0,0,0)" rx="2" ry="2" />
<text  x="649.26" y="241.5" ></text>
</g>
<g >
<title>ParLoopExecute (110,216 us, 0.04%)</title><rect x="667.3" y="247" width="0.5" height="15.0" fill="rgb(0,0,0)" rx="2" ry="2" />
<text  x="670.27" y="257.5" ></text>
</g>
<g >
<title>pyop2.global_kernel.GlobalKernel.compile (558,756 us, 0.21%)</title><rect x="647.4" y="343" width="2.4" height="15.0" fill="rgb(0,0,0)" rx="2" ry="2" />
<text  x="650.37" y="353.5" ></text>
</g>
<g >
<title>PCSetUp (6,710,544 us, 2.50%)</title><rect x="1128.1" y="151" width="29.5" height="15.0" fill="rgb(0,0,0)" rx="2" ry="2" />
<text  x="1131.10" y="161.5" >P..</text>
</g>
<g >
<title>firedrake.variational_solver.NonlinearVariationalSolver.solve (264,642,201 us, 98.74%)</title><rect x="24.9" y="71" width="1165.1" height="15.0" fill="rgb(0,0,0)" rx="2" ry="2" />
<text  x="27.92" y="81.5" >firedrake.variational_solver.NonlinearVariationalSolver.solve</text>
</g>
<g >
<title>firedrake.tsfc_interface.compile_form (14,006,074 us, 5.23%)</title><rect x="581.7" y="167" width="61.7" height="15.0" fill="rgb(0,0,0)" rx="2" ry="2" />
<text  x="584.75" y="177.5" >firedr..</text>
</g>
<g >
<title>Parloop_Cells_wrap_form1_cell_integral_otherwise (2,437,128 us, 0.91%)</title><rect x="1174.5" y="135" width="10.7" height="15.0" fill="rgb(0,0,0)" rx="2" ry="2" />
<text  x="1177.48" y="145.5" ></text>
</g>
<g >
<title>firedrake.parloops.par_loop (891,882 us, 0.33%)</title><rect x="57.9" y="167" width="3.9" height="15.0" fill="rgb(0,0,0)" rx="2" ry="2" />
<text  x="60.91" y="177.5" ></text>
</g>
<g >
<title>ParLoopExecute (1,066,294 us, 0.40%)</title><rect x="655.6" y="343" width="4.7" height="15.0" fill="rgb(0,0,0)" rx="2" ry="2" />
<text  x="658.64" y="353.5" ></text>
</g>
<g >
<title>firedrake.tsfc_interface.compile_form (15,338,922 us, 5.72%)</title><rect x="960.8" y="263" width="67.5" height="15.0" fill="rgb(0,0,0)" rx="2" ry="2" />
<text  x="963.79" y="273.5" >firedr..</text>
</g>
<g >
<title>CreateExtMesh (924,021 us, 0.34%)</title><rect x="14.1" y="71" width="4.1" height="15.0" fill="rgb(0,0,0)" rx="2" ry="2" />
<text  x="17.12" y="81.5" ></text>
</g>
<g >
<title>ParLoopExecute (536,513 us, 0.20%)</title><rect x="643.9" y="247" width="2.4" height="15.0" fill="rgb(0,0,0)" rx="2" ry="2" />
<text  x="646.89" y="257.5" ></text>
</g>
<g >
<title>Parloop_Cells_wrap_slate_loopy_knl_79 (110,329 us, 0.04%)</title><rect x="643.4" y="215" width="0.5" height="15.0" fill="rgb(0,0,0)" rx="2" ry="2" />
<text  x="646.41" y="225.5" ></text>
</g>
<g >
<title>RecoverFirstElim (40,592,029 us, 15.14%)</title><rect x="108.1" y="151" width="178.7" height="15.0" fill="rgb(0,0,0)" rx="2" ry="2" />
<text  x="111.11" y="161.5" >RecoverFirstElim</text>
</g>
<g >
<title>firedrake.slate.slac.optimise.optimise (27,456 us, 0.01%)</title><rect x="581.6" y="167" width="0.1" height="15.0" fill="rgb(0,0,0)" rx="2" ry="2" />
<text  x="584.63" y="177.5" ></text>
</g>
<g >
<title>PCApply (109,985,155 us, 41.03%)</title><rect x="643.9" y="167" width="484.2" height="15.0" fill="rgb(0,0,0)" rx="2" ry="2" />
<text  x="646.89" y="177.5" >PCApply</text>
</g>
<g >
<title>ParLoopExecute (891,994 us, 0.33%)</title><rect x="14.3" y="103" width="3.9" height="15.0" fill="rgb(0,0,0)" rx="2" ry="2" />
<text  x="17.26" y="113.5" ></text>
</g>
<g >
<title>firedrake.interpolation.interpolate (1,101,043 us, 0.41%)</title><rect x="655.6" y="311" width="4.9" height="15.0" fill="rgb(0,0,0)" rx="2" ry="2" />
<text  x="658.64" y="321.5" ></text>
</g>
<g >
<title>MatResidual (110,216 us, 0.04%)</title><rect x="667.3" y="199" width="0.5" height="15.0" fill="rgb(0,0,0)" rx="2" ry="2" />
<text  x="670.27" y="209.5" ></text>
</g>
<g >
<title>pyop2.global_kernel.GlobalKernel.compile (5,123,508 us, 1.91%)</title><rect x="1133.6" y="199" width="22.6" height="15.0" fill="rgb(0,0,0)" rx="2" ry="2" />
<text  x="1136.60" y="209.5" ></text>
</g>
<g >
<title>Log_Event_slate_loopy_knl_0 (32,177 us, 0.01%)</title><rect x="337.4" y="199" width="0.2" height="15.0" fill="rgb(0,0,0)" rx="2" ry="2" />
<text  x="340.42" y="209.5" ></text>
</g>
<g >
<title>MatMult (6,391,390 us, 2.38%)</title><rect x="24.9" y="119" width="28.2" height="15.0" fill="rgb(0,0,0)" rx="2" ry="2" />
<text  x="27.92" y="129.5" >M..</text>
</g>
<g >
<title>firedrake (268,031,472 us, 100.00%)</title><rect x="10.0" y="55" width="1180.0" height="15.0" fill="rgb(0,0,0)" rx="2" ry="2" />
<text  x="13.00" y="65.5" >firedrake</text>
</g>
<g >
<title>Parloop_Cells_wrap_expression_kernel (1,210,356 us, 0.45%)</title><rect x="1128.3" y="183" width="5.3" height="15.0" fill="rgb(0,0,0)" rx="2" ry="2" />
<text  x="1131.27" y="193.5" ></text>
</g>
<g >
<title>firedrake.mg.embedded.TransferManager.op (1,242,684 us, 0.46%)</title><rect x="646.3" y="279" width="5.4" height="15.0" fill="rgb(0,0,0)" rx="2" ry="2" />
<text  x="649.26" y="289.5" ></text>
</g>
<g >
<title>Log_Event_mtf_solve_84 (29,479 us, 0.01%)</title><rect x="645.8" y="327" width="0.2" height="15.0" fill="rgb(0,0,0)" rx="2" ry="2" />
<text  x="648.84" y="337.5" ></text>
</g>
<g >
<title>ParLoopExecute (891,882 us, 0.33%)</title><rect x="57.9" y="183" width="3.9" height="15.0" fill="rgb(0,0,0)" rx="2" ry="2" />
<text  x="60.91" y="193.5" ></text>
</g>
<g >
<title>pyop2.global_kernel.GlobalKernel.compile (579,886 us, 0.22%)</title><rect x="653.1" y="343" width="2.5" height="15.0" fill="rgb(0,0,0)" rx="2" ry="2" />
<text  x="656.09" y="353.5" ></text>
</g>
<g >
<title>Log_Event_tensorshell_knl_120 (35,589 us, 0.01%)</title><rect x="706.8" y="327" width="0.2" height="15.0" fill="rgb(0,0,0)" rx="2" ry="2" />
<text  x="709.83" y="337.5" ></text>
</g>
<g >
<title>Log_Event_slate_loopy_knl_79 (285,939 us, 0.11%)</title><rect x="706.2" y="295" width="1.3" height="15.0" fill="rgb(0,0,0)" rx="2" ry="2" />
<text  x="709.20" y="305.5" ></text>
</g>
<g >
<title>firedrake.tsfc_interface.compile_form (890,002 us, 0.33%)</title><rect x="49.1" y="151" width="4.0" height="15.0" fill="rgb(0,0,0)" rx="2" ry="2" />
<text  x="52.14" y="161.5" ></text>
</g>
<g >
<title>Parloop_Cells_wrap_par_loop_kernel (891,882 us, 0.33%)</title><rect x="57.9" y="199" width="3.9" height="15.0" fill="rgb(0,0,0)" rx="2" ry="2" />
<text  x="60.91" y="209.5" ></text>
</g>
<g >
<title>pyop2.global_kernel.GlobalKernel.compile (2,278,821 us, 0.85%)</title><rect x="39.1" y="183" width="10.0" height="15.0" fill="rgb(0,0,0)" rx="2" ry="2" />
<text  x="42.11" y="193.5" ></text>
</g>
<g >
<title>pyop2.global_kernel.GlobalKernel.compile (10,510,751 us, 3.92%)</title><rect x="61.8" y="183" width="46.3" height="15.0" fill="rgb(0,0,0)" rx="2" ry="2" />
<text  x="64.84" y="193.5" >pyop..</text>
</g>
<g >
<title>Parloop_Cells_wrap_par_loop_kernel (656,736 us, 0.25%)</title><rect x="1157.9" y="167" width="2.9" height="15.0" fill="rgb(0,0,0)" rx="2" ry="2" />
<text  x="1160.92" y="177.5" ></text>
</g>
<g >
<title>ParLoopExecute (10,510,751 us, 3.92%)</title><rect x="61.8" y="151" width="46.3" height="15.0" fill="rgb(0,0,0)" rx="2" ry="2" />
<text  x="64.84" y="161.5" >ParL..</text>
</g>
<g >
<title>ParLoopExecute (57,798,185 us, 21.56%)</title><rect x="706.2" y="263" width="254.5" height="15.0" fill="rgb(0,0,0)" rx="2" ry="2" />
<text  x="709.20" y="273.5" >ParLoopExecute</text>
</g>
<g >
<title>SNESSolve (264,642,201 us, 98.74%)</title><rect x="24.9" y="87" width="1165.1" height="15.0" fill="rgb(0,0,0)" rx="2" ry="2" />
<text  x="27.92" y="97.5" >SNESSolve</text>
</g>
<g >
<title>firedrake.__init__ (1,530,100 us, 0.57%)</title><rect x="18.2" y="71" width="6.7" height="15.0" fill="rgb(0,0,0)" rx="2" ry="2" />
<text  x="21.18" y="81.5" ></text>
</g>
<g >
<title>firedrake.mg.interface.inject (2,414,836 us, 0.90%)</title><rect x="651.7" y="295" width="10.7" height="15.0" fill="rgb(0,0,0)" rx="2" ry="2" />
<text  x="654.73" y="305.5" ></text>
</g>
<g >
<title>Log_Event_tensorshell_knl_82 (35,033 us, 0.01%)</title><rect x="707.1" y="327" width="0.2" height="15.0" fill="rgb(0,0,0)" rx="2" ry="2" />
<text  x="710.15" y="337.5" ></text>
</g>
<g >
<title>pyop2.global_kernel.GlobalKernel.compile (680,943 us, 0.25%)</title><rect x="662.4" y="311" width="3.0" height="15.0" fill="rgb(0,0,0)" rx="2" ry="2" />
<text  x="665.36" y="321.5" ></text>
</g>
<g >
<title>Log_Event_mtf_solve_94 (29,551 us, 0.01%)</title><rect x="646.1" y="327" width="0.2" height="15.0" fill="rgb(0,0,0)" rx="2" ry="2" />
<text  x="649.13" y="337.5" ></text>
</g>
<g >
<title>MatMult (536,513 us, 0.20%)</title><rect x="643.9" y="215" width="2.4" height="15.0" fill="rgb(0,0,0)" rx="2" ry="2" />
<text  x="646.89" y="225.5" ></text>
</g>
<g >
<title>firedrake.mg.interface.restrict (1,114,933 us, 0.42%)</title><rect x="662.4" y="263" width="4.9" height="15.0" fill="rgb(0,0,0)" rx="2" ry="2" />
<text  x="665.36" y="273.5" ></text>
</g>
<g >
<title>firedrake.parloops.par_loop (1,045,656 us, 0.39%)</title><rect x="296.8" y="167" width="4.6" height="15.0" fill="rgb(0,0,0)" rx="2" ry="2" />
<text  x="299.83" y="177.5" ></text>
</g>
<g >
<title>Parloop_set_#x7f4584699810_wrap_pyop2_kernel_prolong (558,756 us, 0.21%)</title><rect x="647.4" y="327" width="2.4" height="15.0" fill="rgb(0,0,0)" rx="2" ry="2" />
<text  x="650.37" y="337.5" ></text>
</g>
<g >
<title>pyop2.global_kernel.GlobalKernel.compile (3,105,283 us, 1.16%)</title><rect x="1160.8" y="151" width="13.7" height="15.0" fill="rgb(0,0,0)" rx="2" ry="2" />
<text  x="1163.81" y="161.5" ></text>
</g>
<g >
<title>firedrake.mg.embedded.TransferManager.op (2,414,836 us, 0.90%)</title><rect x="651.7" y="279" width="10.7" height="15.0" fill="rgb(0,0,0)" rx="2" ry="2" />
<text  x="654.73" y="289.5" ></text>
</g>
<g >
<title>Parloop_Cells_wrap_form0_cell_integral_otherwise (3,222,567 us, 1.20%)</title><rect x="24.9" y="167" width="14.2" height="15.0" fill="rgb(0,0,0)" rx="2" ry="2" />
<text  x="27.92" y="177.5" ></text>
</g>
<g >
<title>Log_Event_slate_loopy_knl_79 (110,216 us, 0.04%)</title><rect x="667.3" y="279" width="0.5" height="15.0" fill="rgb(0,0,0)" rx="2" ry="2" />
<text  x="670.27" y="289.5" ></text>
</g>
<g >
<title>Log_Event_mtf_solve_119 (71,499 us, 0.03%)</title><rect x="706.8" y="311" width="0.3" height="15.0" fill="rgb(0,0,0)" rx="2" ry="2" />
<text  x="709.83" y="321.5" ></text>
</g>
<g >
<title>KSPSolve (5,308,966 us, 1.98%)</title><rect x="643.9" y="199" width="23.4" height="15.0" fill="rgb(0,0,0)" rx="2" ry="2" />
<text  x="646.89" y="209.5" >K..</text>
</g>
<g >
<title>firedrake.pointquery_utils.to_reference_coordinates (433,990 us, 0.16%)</title><rect x="665.4" y="279" width="1.9" height="15.0" fill="rgb(0,0,0)" rx="2" ry="2" />
<text  x="668.36" y="289.5" ></text>
</g>
<g >
<title>firedrake.pointquery_utils.to_reference_coordinates (424,957 us, 0.16%)</title><rect x="660.5" y="311" width="1.9" height="15.0" fill="rgb(0,0,0)" rx="2" ry="2" />
<text  x="663.49" y="321.5" ></text>
</g>
<g >
<title>firedrake.tsfc_interface.compile_form (2,275,067 us, 0.85%)</title><rect x="286.8" y="151" width="10.0" height="15.0" fill="rgb(0,0,0)" rx="2" ry="2" />
<text  x="289.82" y="161.5" ></text>
</g>
<g >
<title>ParLoopExecute (579,886 us, 0.22%)</title><rect x="653.1" y="311" width="2.5" height="15.0" fill="rgb(0,0,0)" rx="2" ry="2" />
<text  x="656.09" y="321.5" ></text>
</g>
</g>
</svg>
