<?xml version="1.0" standalone="no"?>
<!DOCTYPE svg PUBLIC "-//W3C//DTD SVG 1.1//EN" "http://www.w3.org/Graphics/SVG/1.1/DTD/svg11.dtd">
<svg version="1.1" width="1200" height="363" onload="init(evt)" viewBox="0 0 1200 363" xmlns="http://www.w3.org/2000/svg" xmlns:xlink="http://www.w3.org/1999/xlink">
<!-- Flame graph stack visualization. See https://github.com/brendangregg/FlameGraph for latest version, and http://www.brendangregg.com/flamegraphs.html for examples. -->
<!-- NOTES:  -->
<defs>
	<linearGradient id="background" y1="0" y2="1" x1="0" x2="0" >
		<stop stop-color="#eeeeee" offset="5%" />
		<stop stop-color="#eeeeb0" offset="95%" />
	</linearGradient>
</defs>
<style type="text/css">
	text { font-family:Verdana; font-size:13px; fill:rgb(0,0,0); }
	#search, #ignorecase { opacity:0.1; cursor:pointer; }
	#search:hover, #search.show, #ignorecase:hover, #ignorecase.show { opacity:1; }
	#subtitle { text-anchor:middle; font-color:rgb(160,160,160); }
	#title { text-anchor:middle; font-size:18px}
	#unzoom { cursor:pointer; }
	#frames > *:hover { stroke:black; stroke-width:0.5; cursor:pointer; }
	.hide { display:none; }
	.parent { opacity:0.5; }
</style>
<script type="text/ecmascript">
<![CDATA[
	"use strict";
	var details, searchbtn, unzoombtn, matchedtxt, svg, searching, currentSearchTerm, ignorecase, ignorecaseBtn;
	function init(evt) {
		details = document.getElementById("details").firstChild;
		searchbtn = document.getElementById("search");
		ignorecaseBtn = document.getElementById("ignorecase");
		unzoombtn = document.getElementById("unzoom");
		matchedtxt = document.getElementById("matched");
		svg = document.getElementsByTagName("svg")[0];
		searching = 0;
		currentSearchTerm = null;

		// use GET parameters to restore a flamegraphs state.
		var params = get_params();
		if (params.x && params.y)
			zoom(find_group(document.querySelector('[x="' + params.x + '"][y="' + params.y + '"]')));
                if (params.s) search(params.s);
	}

	// event listeners
	window.addEventListener("click", function(e) {
		var target = find_group(e.target);
		if (target) {
			if (target.nodeName == "a") {
				if (e.ctrlKey === false) return;
				e.preventDefault();
			}
			if (target.classList.contains("parent")) unzoom();
			zoom(target);
			if (!document.querySelector('.parent')) {
				clearzoom();
				return;
			}

			// set parameters for zoom state
			var el = target.querySelector("rect");
			if (el && el.attributes && el.attributes.y && el.attributes._orig_x) {
				var params = get_params()
				params.x = el.attributes._orig_x.value;
				params.y = el.attributes.y.value;
				history.replaceState(null, null, parse_params(params));
			}
		}
		else if (e.target.id == "unzoom") clearzoom();
		else if (e.target.id == "search") search_prompt();
		else if (e.target.id == "ignorecase") toggle_ignorecase();
	}, false)

	// mouse-over for info
	// show
	window.addEventListener("mouseover", function(e) {
		var target = find_group(e.target);
		if (target) details.nodeValue = "Function: " + g_to_text(target);
	}, false)

	// clear
	window.addEventListener("mouseout", function(e) {
		var target = find_group(e.target);
		if (target) details.nodeValue = ' ';
	}, false)

	// ctrl-F for search
	// ctrl-I to toggle case-sensitive search
	window.addEventListener("keydown",function (e) {
		if (e.keyCode === 114 || (e.ctrlKey && e.keyCode === 70)) {
			e.preventDefault();
			search_prompt();
		}
		else if (e.ctrlKey && e.keyCode === 73) {
			e.preventDefault();
			toggle_ignorecase();
		}
	}, false)

	// functions
	function get_params() {
		var params = {};
		var paramsarr = window.location.search.substr(1).split('&');
		for (var i = 0; i < paramsarr.length; ++i) {
			var tmp = paramsarr[i].split("=");
			if (!tmp[0] || !tmp[1]) continue;
			params[tmp[0]]  = decodeURIComponent(tmp[1]);
		}
		return params;
	}
	function parse_params(params) {
		var uri = "?";
		for (var key in params) {
			uri += key + '=' + encodeURIComponent(params[key]) + '&';
		}
		if (uri.slice(-1) == "&")
			uri = uri.substring(0, uri.length - 1);
		if (uri == '?')
			uri = window.location.href.split('?')[0];
		return uri;
	}
	function find_child(node, selector) {
		var children = node.querySelectorAll(selector);
		if (children.length) return children[0];
	}
	function find_group(node) {
		var parent = node.parentElement;
		if (!parent) return;
		if (parent.id == "frames") return node;
		return find_group(parent);
	}
	function orig_save(e, attr, val) {
		if (e.attributes["_orig_" + attr] != undefined) return;
		if (e.attributes[attr] == undefined) return;
		if (val == undefined) val = e.attributes[attr].value;
		e.setAttribute("_orig_" + attr, val);
	}
	function orig_load(e, attr) {
		if (e.attributes["_orig_"+attr] == undefined) return;
		e.attributes[attr].value = e.attributes["_orig_" + attr].value;
		e.removeAttribute("_orig_"+attr);
	}
	function g_to_text(e) {
		var text = find_child(e, "title").firstChild.nodeValue;
		return (text)
	}
	function g_to_func(e) {
		var func = g_to_text(e);
		// if there's any manipulation we want to do to the function
		// name before it's searched, do it here before returning.
		return (func);
	}
	function update_text(e) {
		var r = find_child(e, "rect");
		var t = find_child(e, "text");
		var w = parseFloat(r.attributes.width.value) -3;
		var txt = find_child(e, "title").textContent.replace(/\([^(]*\)$/,"");
		t.attributes.x.value = parseFloat(r.attributes.x.value) + 3;

		// Smaller than this size won't fit anything
		if (w < 2 * 13 * 0.59) {
			t.textContent = "";
			return;
		}

		t.textContent = txt;
		// Fit in full text width
		if (/^ *$/.test(txt) || t.getSubStringLength(0, txt.length) < w)
			return;

		for (var x = txt.length - 2; x > 0; x--) {
			if (t.getSubStringLength(0, x + 2) <= w) {
				t.textContent = txt.substring(0, x) + "..";
				return;
			}
		}
		t.textContent = "";
	}

	// zoom
	function zoom_reset(e) {
		if (e.attributes != undefined) {
			orig_load(e, "x");
			orig_load(e, "width");
		}
		if (e.childNodes == undefined) return;
		for (var i = 0, c = e.childNodes; i < c.length; i++) {
			zoom_reset(c[i]);
		}
	}
	function zoom_child(e, x, ratio) {
		if (e.attributes != undefined) {
			if (e.attributes.x != undefined) {
				orig_save(e, "x");
				e.attributes.x.value = (parseFloat(e.attributes.x.value) - x - 10) * ratio + 10;
				if (e.tagName == "text")
					e.attributes.x.value = find_child(e.parentNode, "rect[x]").attributes.x.value + 3;
			}
			if (e.attributes.width != undefined) {
				orig_save(e, "width");
				e.attributes.width.value = parseFloat(e.attributes.width.value) * ratio;
			}
		}

		if (e.childNodes == undefined) return;
		for (var i = 0, c = e.childNodes; i < c.length; i++) {
			zoom_child(c[i], x - 10, ratio);
		}
	}
	function zoom_parent(e) {
		if (e.attributes) {
			if (e.attributes.x != undefined) {
				orig_save(e, "x");
				e.attributes.x.value = 10;
			}
			if (e.attributes.width != undefined) {
				orig_save(e, "width");
				e.attributes.width.value = parseInt(svg.width.baseVal.value) - (10 * 2);
			}
		}
		if (e.childNodes == undefined) return;
		for (var i = 0, c = e.childNodes; i < c.length; i++) {
			zoom_parent(c[i]);
		}
	}
	function zoom(node) {
		var attr = find_child(node, "rect").attributes;
		var width = parseFloat(attr.width.value);
		var xmin = parseFloat(attr.x.value);
		var xmax = parseFloat(xmin + width);
		var ymin = parseFloat(attr.y.value);
		var ratio = (svg.width.baseVal.value - 2 * 10) / width;

		// XXX: Workaround for JavaScript float issues (fix me)
		var fudge = 0.0001;

		unzoombtn.classList.remove("hide");

		var el = document.getElementById("frames").children;
		for (var i = 0; i < el.length; i++) {
			var e = el[i];
			var a = find_child(e, "rect").attributes;
			var ex = parseFloat(a.x.value);
			var ew = parseFloat(a.width.value);
			var upstack;
			// Is it an ancestor
			if (1 == 0) {
				upstack = parseFloat(a.y.value) > ymin;
			} else {
				upstack = parseFloat(a.y.value) < ymin;
			}
			if (upstack) {
				// Direct ancestor
				if (ex <= xmin && (ex+ew+fudge) >= xmax) {
					e.classList.add("parent");
					zoom_parent(e);
					update_text(e);
				}
				// not in current path
				else
					e.classList.add("hide");
			}
			// Children maybe
			else {
				// no common path
				if (ex < xmin || ex + fudge >= xmax) {
					e.classList.add("hide");
				}
				else {
					zoom_child(e, xmin, ratio);
					update_text(e);
				}
			}
		}
		search();
	}
	function unzoom() {
		unzoombtn.classList.add("hide");
		var el = document.getElementById("frames").children;
		for(var i = 0; i < el.length; i++) {
			el[i].classList.remove("parent");
			el[i].classList.remove("hide");
			zoom_reset(el[i]);
			update_text(el[i]);
		}
		search();
	}
	function clearzoom() {
		unzoom();

		// remove zoom state
		var params = get_params();
		if (params.x) delete params.x;
		if (params.y) delete params.y;
		history.replaceState(null, null, parse_params(params));
	}

	// search
	function toggle_ignorecase() {
		ignorecase = !ignorecase;
		if (ignorecase) {
			ignorecaseBtn.classList.add("show");
		} else {
			ignorecaseBtn.classList.remove("show");
		}
		reset_search();
		search();
	}
	function reset_search() {
		var el = document.querySelectorAll("#frames rect");
		for (var i = 0; i < el.length; i++) {
			orig_load(el[i], "fill")
		}
		var params = get_params();
		delete params.s;
		history.replaceState(null, null, parse_params(params));
	}
	function search_prompt() {
		if (!searching) {
			var term = prompt("Enter a search term (regexp " +
			    "allowed, eg: ^ext4_)"
			    + (ignorecase ? ", ignoring case" : "")
			    + "\nPress Ctrl-i to toggle case sensitivity", "");
			if (term != null) search(term);
		} else {
			reset_search();
			searching = 0;
			currentSearchTerm = null;
			searchbtn.classList.remove("show");
			searchbtn.firstChild.nodeValue = "Search"
			matchedtxt.classList.add("hide");
			matchedtxt.firstChild.nodeValue = ""
		}
	}
	function search(term) {
		if (term) currentSearchTerm = term;

		var re = new RegExp(currentSearchTerm, ignorecase ? 'i' : '');
		var el = document.getElementById("frames").children;
		var matches = new Object();
		var maxwidth = 0;
		for (var i = 0; i < el.length; i++) {
			var e = el[i];
			var func = g_to_func(e);
			var rect = find_child(e, "rect");
			if (func == null || rect == null)
				continue;

			// Save max width. Only works as we have a root frame
			var w = parseFloat(rect.attributes.width.value);
			if (w > maxwidth)
				maxwidth = w;

			if (func.match(re)) {
				// highlight
				var x = parseFloat(rect.attributes.x.value);
				orig_save(rect, "fill");
				rect.attributes.fill.value = "rgb(230,0,230)";

				// remember matches
				if (matches[x] == undefined) {
					matches[x] = w;
				} else {
					if (w > matches[x]) {
						// overwrite with parent
						matches[x] = w;
					}
				}
				searching = 1;
			}
		}
		if (!searching)
			return;
		var params = get_params();
		params.s = currentSearchTerm;
		history.replaceState(null, null, parse_params(params));

		searchbtn.classList.add("show");
		searchbtn.firstChild.nodeValue = "Reset Search";

		// calculate percent matched, excluding vertical overlap
		var count = 0;
		var lastx = -1;
		var lastw = 0;
		var keys = Array();
		for (k in matches) {
			if (matches.hasOwnProperty(k))
				keys.push(k);
		}
		// sort the matched frames by their x location
		// ascending, then width descending
		keys.sort(function(a, b){
			return a - b;
		});
		// Step through frames saving only the biggest bottom-up frames
		// thanks to the sort order. This relies on the tree property
		// where children are always smaller than their parents.
		var fudge = 0.0001;	// JavaScript floating point
		for (var k in keys) {
			var x = parseFloat(keys[k]);
			var w = matches[keys[k]];
			if (x >= lastx + lastw - fudge) {
				count += w;
				lastx = x;
				lastw = w;
			}
		}
		// display matched percent
		matchedtxt.classList.remove("hide");
		var pct = 100 * count / maxwidth;
		if (pct != 100) pct = pct.toFixed(1)
		matchedtxt.firstChild.nodeValue = "Matched: " + pct + "%";
	}
]]>
</script>
<rect x="0.0" y="0" width="1200.0" height="363.0" fill="url(#background)"  />
<text id="title" x="600.00" y="26" >Firedrake example</text>
<text id="details" x="10.00" y="345" > </text>
<text id="unzoom" x="10.00" y="26" class="hide">Reset Zoom</text>
<text id="search" x="1090.00" y="26" >Search</text>
<text id="ignorecase" x="1174.00" y="26" >ic</text>
<text id="matched" x="1090.00" y="345" > </text>
<g id="frames">
<g >
<title>solve_memcpy (1,355,096 us, 0.22%)</title><rect x="933.7" y="295" width="2.5" height="15.0" fill="rgb(0,0,0)" rx="2" ry="2" />
<text  x="936.69" y="305.5" ></text>
</g>
<g >
<title>Log_Event_subkernel17_interior_facet_vert_to__exterior_facet_vert_integral_otherwise (742,244 us, 0.12%)</title><rect x="48.9" y="199" width="1.4" height="15.0" fill="rgb(0,0,0)" rx="2" ry="2" />
<text  x="51.90" y="209.5" ></text>
</g>
<g >
<title>firedrake.extrusion_utils.make_extruded_coords (72,591 us, 0.01%)</title><rect x="11.8" y="87" width="0.1" height="15.0" fill="rgb(0,0,0)" rx="2" ry="2" />
<text  x="14.77" y="97.5" ></text>
</g>
<g >
<title>solve_memcpy (125,789 us, 0.02%)</title><rect x="55.6" y="215" width="0.2" height="15.0" fill="rgb(0,0,0)" rx="2" ry="2" />
<text  x="58.59" y="225.5" ></text>
</g>
<g >
<title>solve_memcpy (74,669 us, 0.01%)</title><rect x="18.2" y="199" width="0.1" height="15.0" fill="rgb(0,0,0)" rx="2" ry="2" />
<text  x="21.21" y="209.5" ></text>
</g>
<g >
<title>firedrake.variational_solver.NonlinearVariationalSolver.solve (627,273,584 us, 99.60%)</title><rect x="14.8" y="71" width="1175.2" height="15.0" fill="rgb(0,0,0)" rx="2" ry="2" />
<text  x="17.76" y="81.5" >firedrake.variational_solver.NonlinearVariationalSolver.solve</text>
</g>
<g >
<title>PCSetUp (156,384 us, 0.02%)</title><rect x="1189.5" y="103" width="0.3" height="15.0" fill="rgb(0,0,0)" rx="2" ry="2" />
<text  x="1192.50" y="113.5" ></text>
</g>
<g >
<title>firedrake.mg.interface.prolong (683,247 us, 0.11%)</title><rect x="874.7" y="295" width="1.3" height="15.0" fill="rgb(0,0,0)" rx="2" ry="2" />
<text  x="877.69" y="305.5" ></text>
</g>
<g >
<title>solve_memcpy (154,096 us, 0.02%)</title><rect x="47.0" y="215" width="0.3" height="15.0" fill="rgb(0,0,0)" rx="2" ry="2" />
<text  x="49.99" y="225.5" ></text>
</g>
<g >
<title>firedrake.tsfc_interface.compile_form (182,830 us, 0.03%)</title><rect x="1189.2" y="167" width="0.3" height="15.0" fill="rgb(0,0,0)" rx="2" ry="2" />
<text  x="1192.16" y="177.5" ></text>
</g>
<g >
<title>KSPSolve (66,060,856 us, 10.49%)</title><rect x="1013.6" y="215" width="123.8" height="15.0" fill="rgb(0,0,0)" rx="2" ry="2" />
<text  x="1016.65" y="225.5" >KSPSolve</text>
</g>
<g >
<title>Log_Event_subkernel9_cell_to__cell_integral_otherwise (24,325,691 us, 3.86%)</title><rect x="151.3" y="231" width="45.6" height="15.0" fill="rgb(0,0,0)" rx="2" ry="2" />
<text  x="154.30" y="241.5" >Log..</text>
</g>
<g >
<title>Parloop_Cells_wrap_wrap_slate_loopy_knl_7 (361,707,853 us, 57.43%)</title><rect x="196.9" y="263" width="677.7" height="15.0" fill="rgb(0,0,0)" rx="2" ry="2" />
<text  x="199.88" y="273.5" >Parloop_Cells_wrap_wrap_slate_loopy_knl_7</text>
</g>
<g >
<title>Log_Event_subkernel8_interior_facet_horiz_top_to__exterior_facet_top_integral_otherwise (511,154 us, 0.08%)</title><rect x="134.1" y="231" width="1.0" height="15.0" fill="rgb(0,0,0)" rx="2" ry="2" />
<text  x="137.12" y="241.5" ></text>
</g>
<g >
<title>solve_getrf (134,569,906 us, 21.37%)</title><rect x="216.8" y="295" width="252.2" height="15.0" fill="rgb(0,0,0)" rx="2" ry="2" />
<text  x="219.84" y="305.5" >solve_getrf</text>
</g>
<g >
<title>KSPSolve (627,007,562 us, 99.55%)</title><rect x="14.8" y="103" width="1174.7" height="15.0" fill="rgb(0,0,0)" rx="2" ry="2" />
<text  x="17.76" y="113.5" >KSPSolve</text>
</g>
<g >
<title>Log_Event_subkernel9_cell_to__cell_integral_otherwise (121,718,955 us, 19.33%)</title><rect x="646.5" y="279" width="228.1" height="15.0" fill="rgb(0,0,0)" rx="2" ry="2" />
<text  x="649.51" y="289.5" >Log_Event_subkernel9_cell_t..</text>
</g>
<g >
<title>Parloop_Cells_wrap_wrap_slate_loopy_knl_7 (72,338,386 us, 11.49%)</title><rect x="61.3" y="215" width="135.6" height="15.0" fill="rgb(0,0,0)" rx="2" ry="2" />
<text  x="64.35" y="225.5" >Parloop_Cells_w..</text>
</g>
<g >
<title>ParLoopExecute (75,260 us, 0.01%)</title><rect x="14.8" y="151" width="0.1" height="15.0" fill="rgb(0,0,0)" rx="2" ry="2" />
<text  x="17.76" y="161.5" ></text>
</g>
<g >
<title>PCApply (529,390,332 us, 84.05%)</title><rect x="196.9" y="167" width="991.8" height="15.0" fill="rgb(0,0,0)" rx="2" ry="2" />
<text  x="199.88" y="177.5" >PCApply</text>
</g>
<g >
<title>solve_getrs (2,798,366 us, 0.44%)</title><rect x="469.0" y="295" width="5.2" height="15.0" fill="rgb(0,0,0)" rx="2" ry="2" />
<text  x="471.96" y="305.5" ></text>
</g>
<g >
<title>SNESFunctionEval (109,638 us, 0.02%)</title><rect x="1189.8" y="103" width="0.2" height="15.0" fill="rgb(0,0,0)" rx="2" ry="2" />
<text  x="1192.79" y="113.5" ></text>
</g>
<g >
<title>Log_Event_subkernel13_cell_to__cell_integral_otherwise (204,564 us, 0.03%)</title><rect x="47.3" y="199" width="0.4" height="15.0" fill="rgb(0,0,0)" rx="2" ry="2" />
<text  x="50.28" y="209.5" ></text>
</g>
<g >
<title>Log_Event_slate_loopy_knl_0 (2,642,113 us, 0.42%)</title><rect x="50.9" y="199" width="4.9" height="15.0" fill="rgb(0,0,0)" rx="2" ry="2" />
<text  x="53.87" y="209.5" ></text>
</g>
<g >
<title>Log_Event_subkernel10_interior_facet_horiz_bottom_to__exterior_facet_bottom_integral_otherwise (2,512,970 us, 0.40%)</title><rect x="486.8" y="279" width="4.7" height="15.0" fill="rgb(0,0,0)" rx="2" ry="2" />
<text  x="489.84" y="289.5" ></text>
</g>
<g >
<title>Log_Event_subkernel8_interior_facet_horiz_top_to__exterior_facet_top_integral_otherwise (458,777 us, 0.07%)</title><rect x="1080.4" y="295" width="0.9" height="15.0" fill="rgb(0,0,0)" rx="2" ry="2" />
<text  x="1083.44" y="305.5" ></text>
</g>
<g >
<title>Log_Event_slate_loopy_knl_7 (29,143,359 us, 4.63%)</title><rect x="881.6" y="279" width="54.6" height="15.0" fill="rgb(0,0,0)" rx="2" ry="2" />
<text  x="884.62" y="289.5" >Log_E..</text>
</g>
<g >
<title>firedrake.assemble.allocate_matrix (1,442,184 us, 0.23%)</title><rect x="1186.0" y="231" width="2.7" height="15.0" fill="rgb(0,0,0)" rx="2" ry="2" />
<text  x="1189.02" y="241.5" ></text>
</g>
<g >
<title>firedrake (629,816,477 us, 100.00%)</title><rect x="10.0" y="55" width="1180.0" height="15.0" fill="rgb(0,0,0)" rx="2" ry="2" />
<text  x="13.00" y="65.5" >firedrake</text>
</g>
<g >
<title>MGInterp Level 1 (683,247 us, 0.11%)</title><rect x="874.7" y="247" width="1.3" height="15.0" fill="rgb(0,0,0)" rx="2" ry="2" />
<text  x="877.69" y="257.5" ></text>
</g>
<g >
<title>SCSolve (602,144,746 us, 95.61%)</title><rect x="61.3" y="135" width="1128.2" height="15.0" fill="rgb(0,0,0)" rx="2" ry="2" />
<text  x="64.35" y="145.5" >SCSolve</text>
</g>
<g >
<title>Log_Event_inits_wrap_slate_loopy_knl_7 (3,842,997 us, 0.61%)</title><rect x="206.6" y="279" width="7.2" height="15.0" fill="rgb(0,0,0)" rx="2" ry="2" />
<text  x="209.61" y="289.5" ></text>
</g>
<g >
<title>Log_Event_subkernel10_interior_facet_horiz_top_to__exterior_facet_top_integral_otherwise (504,114 us, 0.08%)</title><rect x="120.3" y="231" width="0.9" height="15.0" fill="rgb(0,0,0)" rx="2" ry="2" />
<text  x="123.28" y="241.5" ></text>
</g>
<g >
<title>Log_Event_subkernel1_interior_facet_vert_to__exterior_facet_vert_integral_otherwise (738,468 us, 0.12%)</title><rect x="55.8" y="199" width="1.4" height="15.0" fill="rgb(0,0,0)" rx="2" ry="2" />
<text  x="58.82" y="209.5" ></text>
</g>
<g >
<title>solve_getrf (2,492,687 us, 0.40%)</title><rect x="42.2" y="215" width="4.7" height="15.0" fill="rgb(0,0,0)" rx="2" ry="2" />
<text  x="45.19" y="225.5" ></text>
</g>
<g >
<title>Log_Event_subkernel15_cell_to__cell_integral_otherwise (190,555 us, 0.03%)</title><rect x="48.5" y="199" width="0.4" height="15.0" fill="rgb(0,0,0)" rx="2" ry="2" />
<text  x="51.54" y="209.5" ></text>
</g>
<g >
<title>Log_Event_subkernel8_interior_facet_horiz_bottom_to__exterior_facet_bottom_integral_otherwise (524,918 us, 0.08%)</title><rect x="133.1" y="231" width="1.0" height="15.0" fill="rgb(0,0,0)" rx="2" ry="2" />
<text  x="136.14" y="241.5" ></text>
</g>
<g >
<title>MatMult (361,707,853 us, 57.43%)</title><rect x="196.9" y="215" width="677.7" height="15.0" fill="rgb(0,0,0)" rx="2" ry="2" />
<text  x="199.88" y="225.5" >MatMult</text>
</g>
<g >
<title>HybridInit (156,384 us, 0.02%)</title><rect x="1189.5" y="119" width="0.3" height="15.0" fill="rgb(0,0,0)" rx="2" ry="2" />
<text  x="1192.50" y="129.5" ></text>
</g>
<g >
<title>PCSetUp (93,445,287 us, 14.84%)</title><rect x="1013.6" y="183" width="175.1" height="15.0" fill="rgb(0,0,0)" rx="2" ry="2" />
<text  x="1016.65" y="193.5" >PCSetUp</text>
</g>
<g >
<title>inv_memcpy (124,396 us, 0.02%)</title><rect x="1179.1" y="279" width="0.2" height="15.0" fill="rgb(0,0,0)" rx="2" ry="2" />
<text  x="1182.09" y="289.5" ></text>
</g>
<g >
<title>Log_Event_subkernel8_interior_facet_horiz_bottom_to__exterior_facet_bottom_integral_otherwise (519,038 us, 0.08%)</title><rect x="950.0" y="279" width="1.0" height="15.0" fill="rgb(0,0,0)" rx="2" ry="2" />
<text  x="953.00" y="289.5" ></text>
</g>
<g >
<title>RecoverFirstElim (15,649,444 us, 2.48%)</title><rect x="21.0" y="151" width="29.3" height="15.0" fill="rgb(0,0,0)" rx="2" ry="2" />
<text  x="23.97" y="161.5" >R..</text>
</g>
<g >
<title>ParLoopExecute (102,625 us, 0.02%)</title><rect x="1188.7" y="167" width="0.2" height="15.0" fill="rgb(0,0,0)" rx="2" ry="2" />
<text  x="1191.72" y="177.5" ></text>
</g>
<g >
<title>PCApply (750,995 us, 0.12%)</title><rect x="874.6" y="231" width="1.4" height="15.0" fill="rgb(0,0,0)" rx="2" ry="2" />
<text  x="877.56" y="241.5" ></text>
</g>
<g >
<title>firedrake.interpolation.interpolate (74,610 us, 0.01%)</title><rect x="876.6" y="311" width="0.1" height="15.0" fill="rgb(0,0,0)" rx="2" ry="2" />
<text  x="879.58" y="321.5" ></text>
</g>
<g >
<title>firedrake.dmhooks.coarsen (812,531 us, 0.13%)</title><rect x="876.0" y="263" width="1.5" height="15.0" fill="rgb(0,0,0)" rx="2" ry="2" />
<text  x="878.97" y="273.5" ></text>
</g>
<g >
<title>Log_Event_inits_wrap_slate_loopy_knl_7 (767,886 us, 0.12%)</title><rect x="63.3" y="231" width="1.4" height="15.0" fill="rgb(0,0,0)" rx="2" ry="2" />
<text  x="66.30" y="241.5" ></text>
</g>
<g >
<title>PCApply (435,945,045 us, 69.22%)</title><rect x="196.9" y="183" width="816.7" height="15.0" fill="rgb(0,0,0)" rx="2" ry="2" />
<text  x="199.88" y="193.5" >PCApply</text>
</g>
<g >
<title>solve_memcpy (1,264,930 us, 0.20%)</title><rect x="1064.7" y="311" width="2.4" height="15.0" fill="rgb(0,0,0)" rx="2" ry="2" />
<text  x="1067.70" y="321.5" ></text>
</g>
<g >
<title>MatMult (72,338,386 us, 11.49%)</title><rect x="61.3" y="167" width="135.6" height="15.0" fill="rgb(0,0,0)" rx="2" ry="2" />
<text  x="64.35" y="177.5" >MatMult</text>
</g>
<g >
<title>KSPSetUp (93,445,287 us, 14.84%)</title><rect x="1013.6" y="199" width="175.1" height="15.0" fill="rgb(0,0,0)" rx="2" ry="2" />
<text  x="1016.65" y="209.5" >KSPSetUp</text>
</g>
<g >
<title>ParLoopExecute (25,812,327 us, 4.10%)</title><rect x="1137.7" y="231" width="48.3" height="15.0" fill="rgb(0,0,0)" rx="2" ry="2" />
<text  x="1140.66" y="241.5" >ParL..</text>
</g>
<g >
<title>solve_getrf (2,448,674 us, 0.39%)</title><rect x="51.0" y="215" width="4.6" height="15.0" fill="rgb(0,0,0)" rx="2" ry="2" />
<text  x="54.00" y="225.5" ></text>
</g>
<g >
<title>Log_Event_subkernel2_cell_to__cell_integral_otherwise (2,208,895 us, 0.35%)</title><rect x="57.2" y="199" width="4.1" height="15.0" fill="rgb(0,0,0)" rx="2" ry="2" />
<text  x="60.21" y="209.5" ></text>
</g>
<g >
<title>firedrake.matrix_free.operators.ImplicitMatrixContext.mult (75,260 us, 0.01%)</title><rect x="14.8" y="135" width="0.1" height="15.0" fill="rgb(0,0,0)" rx="2" ry="2" />
<text  x="17.76" y="145.5" ></text>
</g>
<g >
<title>PCSetUp (1,215,340 us, 0.19%)</title><rect x="876.0" y="231" width="2.2" height="15.0" fill="rgb(0,0,0)" rx="2" ry="2" />
<text  x="878.97" y="241.5" ></text>
</g>
<g >
<title>Parloop_Cells_wrap_wrap_slate_loopy_knl_7 (72,270,857 us, 11.47%)</title><rect x="878.2" y="263" width="135.4" height="15.0" fill="rgb(0,0,0)" rx="2" ry="2" />
<text  x="881.24" y="273.5" >Parloop_Cells_w..</text>
</g>
<g >
<title>solve_getrf (1,213,569 us, 0.19%)</title><rect x="15.9" y="199" width="2.3" height="15.0" fill="rgb(0,0,0)" rx="2" ry="2" />
<text  x="18.93" y="209.5" ></text>
</g>
<g >
<title>SCBackSub (18,884,344 us, 3.00%)</title><rect x="14.9" y="135" width="35.4" height="15.0" fill="rgb(0,0,0)" rx="2" ry="2" />
<text  x="17.91" y="145.5" >SC..</text>
</g>
<g >
<title>Log_Event_subkernel10_interior_facet_horiz_top_to__exterior_facet_top_integral_otherwise (2,517,740 us, 0.40%)</title><rect x="491.5" y="279" width="4.8" height="15.0" fill="rgb(0,0,0)" rx="2" ry="2" />
<text  x="494.55" y="289.5" ></text>
</g>
<g >
<title>firedrake.mg.interface.inject (812,531 us, 0.13%)</title><rect x="876.0" y="295" width="1.5" height="15.0" fill="rgb(0,0,0)" rx="2" ry="2" />
<text  x="878.97" y="305.5" ></text>
</g>
<g >
<title>firedrake.matrix_free.operators.ImplicitMatrixContext.mult (361,707,853 us, 57.43%)</title><rect x="196.9" y="231" width="677.7" height="15.0" fill="rgb(0,0,0)" rx="2" ry="2" />
<text  x="199.88" y="241.5" >firedrake.matrix_free.operators.ImplicitMatrixContext.mult</text>
</g>
<g >
<title>firedrake.interpolation.make_interpolator (66,468 us, 0.01%)</title><rect x="1189.7" y="135" width="0.1" height="15.0" fill="rgb(0,0,0)" rx="2" ry="2" />
<text  x="1192.67" y="145.5" ></text>
</g>
<g >
<title>Log_Event_slate_loopy_knl_3 (21,613,625 us, 3.43%)</title><rect x="1138.8" y="263" width="40.5" height="15.0" fill="rgb(0,0,0)" rx="2" ry="2" />
<text  x="1141.83" y="273.5" >Log..</text>
</g>
<g >
<title>firedrake.matrix_free.operators.ImplicitMatrixContext.mult (72,338,386 us, 11.49%)</title><rect x="61.3" y="183" width="135.6" height="15.0" fill="rgb(0,0,0)" rx="2" ry="2" />
<text  x="64.35" y="193.5" >firedrake.matri..</text>
</g>
<g >
<title>Parloop_Cells_wrap_wrap_slate_loopy_knl_3 (25,812,327 us, 4.10%)</title><rect x="1137.7" y="247" width="48.3" height="15.0" fill="rgb(0,0,0)" rx="2" ry="2" />
<text  x="1140.66" y="257.5" >Parl..</text>
</g>
<g >
<title>ParLoopExecute (361,707,853 us, 57.43%)</title><rect x="196.9" y="247" width="677.7" height="15.0" fill="rgb(0,0,0)" rx="2" ry="2" />
<text  x="199.88" y="257.5" >ParLoopExecute</text>
</g>
<g >
<title>DMCoarsen (812,531 us, 0.13%)</title><rect x="876.0" y="247" width="1.5" height="15.0" fill="rgb(0,0,0)" rx="2" ry="2" />
<text  x="878.97" y="257.5" ></text>
</g>
<g >
<title>solve_getrs (69,801 us, 0.01%)</title><rect x="46.9" y="215" width="0.1" height="15.0" fill="rgb(0,0,0)" rx="2" ry="2" />
<text  x="49.86" y="225.5" ></text>
</g>
<g >
<title>SNESSolve (627,273,584 us, 99.60%)</title><rect x="14.8" y="87" width="1175.2" height="15.0" fill="rgb(0,0,0)" rx="2" ry="2" />
<text  x="17.76" y="97.5" >SNESSolve</text>
</g>
<g >
<title>firedrake.matrix_free.operators.ImplicitMatrixContext.mult (72,270,857 us, 11.47%)</title><rect x="878.2" y="231" width="135.4" height="15.0" fill="rgb(0,0,0)" rx="2" ry="2" />
<text  x="881.24" y="241.5" >firedrake.matri..</text>
</g>
<g >
<title>Log_Event_subkernel10_interior_facet_vert_to__exterior_facet_vert_integral_otherwise (31,758,252 us, 5.04%)</title><rect x="496.3" y="279" width="59.5" height="15.0" fill="rgb(0,0,0)" rx="2" ry="2" />
<text  x="499.27" y="289.5" >Log_E..</text>
</g>
<g >
<title>Log_Event_subkernel8_interior_facet_horiz_bottom_to__exterior_facet_bottom_integral_otherwise (471,689 us, 0.07%)</title><rect x="1079.6" y="295" width="0.8" height="15.0" fill="rgb(0,0,0)" rx="2" ry="2" />
<text  x="1082.55" y="305.5" ></text>
</g>
<g >
<title>ParLoopExecute (65,776,961 us, 10.44%)</title><rect x="1014.2" y="263" width="123.2" height="15.0" fill="rgb(0,0,0)" rx="2" ry="2" />
<text  x="1017.18" y="273.5" >ParLoopExecute</text>
</g>
<g >
<title>solve_getrs (558,814 us, 0.09%)</title><rect x="932.6" y="295" width="1.1" height="15.0" fill="rgb(0,0,0)" rx="2" ry="2" />
<text  x="935.64" y="305.5" ></text>
</g>
<g >
<title>Log_Event_subkernel19_cell_to__cell_integral_otherwise (463,279 us, 0.07%)</title><rect x="18.3" y="183" width="0.9" height="15.0" fill="rgb(0,0,0)" rx="2" ry="2" />
<text  x="21.35" y="193.5" ></text>
</g>
<g >
<title>inv_getri (5,904,912 us, 0.94%)</title><rect x="31.0" y="215" width="11.1" height="15.0" fill="rgb(0,0,0)" rx="2" ry="2" />
<text  x="33.99" y="225.5" ></text>
</g>
<g >
<title>inv_getrf (1,214,096 us, 0.19%)</title><rect x="28.7" y="215" width="2.3" height="15.0" fill="rgb(0,0,0)" rx="2" ry="2" />
<text  x="31.71" y="225.5" ></text>
</g>
<g >
<title>Log_Event_subkernel8_interior_facet_vert_to__exterior_facet_vert_integral_otherwise (43,261,888 us, 6.87%)</title><rect x="565.5" y="279" width="81.0" height="15.0" fill="rgb(0,0,0)" rx="2" ry="2" />
<text  x="568.46" y="289.5" >Log_Even..</text>
</g>
<g >
<title>ParLoopExecute (2,923,907 us, 0.46%)</title><rect x="15.5" y="151" width="5.5" height="15.0" fill="rgb(0,0,0)" rx="2" ry="2" />
<text  x="18.49" y="161.5" ></text>
</g>
<g >
<title>Log_Event_subkernel10_interior_facet_vert_to__exterior_facet_vert_integral_otherwise (6,354,950 us, 1.01%)</title><rect x="938.1" y="279" width="11.9" height="15.0" fill="rgb(0,0,0)" rx="2" ry="2" />
<text  x="941.09" y="289.5" ></text>
</g>
<g >
<title>MatZeroInitial (402,153 us, 0.06%)</title><rect x="1188.0" y="247" width="0.7" height="15.0" fill="rgb(0,0,0)" rx="2" ry="2" />
<text  x="1190.97" y="257.5" ></text>
</g>
<g >
<title>MatMult (75,260 us, 0.01%)</title><rect x="14.8" y="119" width="0.1" height="15.0" fill="rgb(0,0,0)" rx="2" ry="2" />
<text  x="17.76" y="129.5" ></text>
</g>
<g >
<title>PCSetUp (27,384,431 us, 4.35%)</title><rect x="1137.4" y="215" width="51.3" height="15.0" fill="rgb(0,0,0)" rx="2" ry="2" />
<text  x="1140.42" y="225.5" >PCSe..</text>
</g>
<g >
<title>MatResidual (72,270,857 us, 11.47%)</title><rect x="878.2" y="199" width="135.4" height="15.0" fill="rgb(0,0,0)" rx="2" ry="2" />
<text  x="881.24" y="209.5" >MatResidual</text>
</g>
<g >
<title>firedrake.matrix_free.operators.ImplicitMatrixContext.mult (66,060,856 us, 10.49%)</title><rect x="1013.6" y="247" width="123.8" height="15.0" fill="rgb(0,0,0)" rx="2" ry="2" />
<text  x="1016.65" y="257.5" >firedrake.matr..</text>
</g>
<g >
<title>Log_Event_subkernel10_interior_facet_horiz_top_to__exterior_facet_top_integral_otherwise (497,561 us, 0.08%)</title><rect x="937.2" y="279" width="0.9" height="15.0" fill="rgb(0,0,0)" rx="2" ry="2" />
<text  x="940.16" y="289.5" ></text>
</g>
<g >
<title>Log_Event_subkernel10_interior_facet_horiz_bottom_to__exterior_facet_bottom_integral_otherwise (502,370 us, 0.08%)</title><rect x="119.3" y="231" width="1.0" height="15.0" fill="rgb(0,0,0)" rx="2" ry="2" />
<text  x="122.34" y="241.5" ></text>
</g>
<g >
<title>MatMult (72,270,857 us, 11.47%)</title><rect x="878.2" y="215" width="135.4" height="15.0" fill="rgb(0,0,0)" rx="2" ry="2" />
<text  x="881.24" y="225.5" >MatMult</text>
</g>
<g >
<title>Log_Event_subkernel9_cell_to__cell_integral_otherwise (24,262,642 us, 3.85%)</title><rect x="968.2" y="279" width="45.4" height="15.0" fill="rgb(0,0,0)" rx="2" ry="2" />
<text  x="971.19" y="289.5" >Log..</text>
</g>
<g >
<title>Log_Event_inits_wrap_slate_loopy_knl_3 (75,636 us, 0.01%)</title><rect x="1138.7" y="263" width="0.1" height="15.0" fill="rgb(0,0,0)" rx="2" ry="2" />
<text  x="1141.69" y="273.5" ></text>
</g>
<g >
<title>CreateExtMesh (72,591 us, 0.01%)</title><rect x="11.8" y="71" width="0.1" height="15.0" fill="rgb(0,0,0)" rx="2" ry="2" />
<text  x="14.77" y="81.5" ></text>
</g>
<g >
<title>Log_Event_subkernel10_interior_facet_vert_to__exterior_facet_vert_integral_otherwise (6,357,977 us, 1.01%)</title><rect x="121.2" y="231" width="11.9" height="15.0" fill="rgb(0,0,0)" rx="2" ry="2" />
<text  x="124.23" y="241.5" ></text>
</g>
<g >
<title>Log_Event_subkernel8_interior_facet_horiz_top_to__exterior_facet_top_integral_otherwise (506,722 us, 0.08%)</title><rect x="951.0" y="279" width="0.9" height="15.0" fill="rgb(0,0,0)" rx="2" ry="2" />
<text  x="953.97" y="289.5" ></text>
</g>
<g >
<title>SCForwardElim (5,903,212 us, 0.94%)</title><rect x="50.3" y="135" width="11.0" height="15.0" fill="rgb(0,0,0)" rx="2" ry="2" />
<text  x="53.29" y="145.5" ></text>
</g>
<g >
<title>solve_memcpy (1,342,701 us, 0.21%)</title><rect x="116.8" y="247" width="2.5" height="15.0" fill="rgb(0,0,0)" rx="2" ry="2" />
<text  x="119.83" y="257.5" ></text>
</g>
<g >
<title>firedrake.mg.embedded.TransferManager.op (683,247 us, 0.11%)</title><rect x="874.7" y="279" width="1.3" height="15.0" fill="rgb(0,0,0)" rx="2" ry="2" />
<text  x="877.69" y="289.5" ></text>
</g>
<g >
<title>Log_Event_subkernel10_interior_facet_horiz_bottom_to__exterior_facet_bottom_integral_otherwise (450,694 us, 0.07%)</title><rect x="1067.1" y="295" width="0.8" height="15.0" fill="rgb(0,0,0)" rx="2" ry="2" />
<text  x="1070.07" y="305.5" ></text>
</g>
<g >
<title>firedrake.pointquery_utils.to_reference_coordinates (408,456 us, 0.06%)</title><rect x="876.7" y="311" width="0.8" height="15.0" fill="rgb(0,0,0)" rx="2" ry="2" />
<text  x="879.72" y="321.5" ></text>
</g>
<g >
<title>firedrake.mg.embedded.TransferManager.op (812,531 us, 0.13%)</title><rect x="876.0" y="279" width="1.5" height="15.0" fill="rgb(0,0,0)" rx="2" ry="2" />
<text  x="878.97" y="289.5" ></text>
</g>
<g >
<title>Log_Event_subkernel14_cell_to__cell_integral_otherwise (465,572 us, 0.07%)</title><rect x="47.7" y="199" width="0.8" height="15.0" fill="rgb(0,0,0)" rx="2" ry="2" />
<text  x="50.67" y="209.5" ></text>
</g>
<g >
<title>Log_Event_subkernel10_interior_facet_vert_to__exterior_facet_vert_integral_otherwise (5,762,786 us, 0.91%)</title><rect x="1068.8" y="295" width="10.8" height="15.0" fill="rgb(0,0,0)" rx="2" ry="2" />
<text  x="1071.76" y="305.5" ></text>
</g>
<g >
<title>inv_getri (12,278,351 us, 1.95%)</title><rect x="1156.1" y="279" width="23.0" height="15.0" fill="rgb(0,0,0)" rx="2" ry="2" />
<text  x="1159.08" y="289.5" ></text>
</g>
<g >
<title>solve_memcpy (6,745,210 us, 1.07%)</title><rect x="474.2" y="295" width="12.6" height="15.0" fill="rgb(0,0,0)" rx="2" ry="2" />
<text  x="477.20" y="305.5" ></text>
</g>
<g >
<title>KSPSolve (601,728,718 us, 95.54%)</title><rect x="61.3" y="151" width="1127.4" height="15.0" fill="rgb(0,0,0)" rx="2" ry="2" />
<text  x="64.35" y="161.5" >KSPSolve</text>
</g>
<g >
<title>PCApply (1,966,335 us, 0.31%)</title><rect x="874.6" y="215" width="3.6" height="15.0" fill="rgb(0,0,0)" rx="2" ry="2" />
<text  x="877.56" y="225.5" ></text>
</g>
<g >
<title>solve_getrs (511,839 us, 0.08%)</title><rect x="1063.7" y="311" width="1.0" height="15.0" fill="rgb(0,0,0)" rx="2" ry="2" />
<text  x="1066.74" y="321.5" ></text>
</g>
<g >
<title>Parloop_Cells_wrap_wrap_slate_loopy_knl_7 (65,776,961 us, 10.44%)</title><rect x="1014.2" y="279" width="123.2" height="15.0" fill="rgb(0,0,0)" rx="2" ry="2" />
<text  x="1017.18" y="289.5" >Parloop_Cells_..</text>
</g>
<g >
<title>firedrake.mg.interface.restrict (402,809 us, 0.06%)</title><rect x="877.5" y="263" width="0.7" height="15.0" fill="rgb(0,0,0)" rx="2" ry="2" />
<text  x="880.49" y="273.5" ></text>
</g>
<g >
<title>Log_Event_subkernel6_interior_facet_vert_to__exterior_facet_vert_integral_otherwise (577,202 us, 0.09%)</title><rect x="1184.9" y="263" width="1.1" height="15.0" fill="rgb(0,0,0)" rx="2" ry="2" />
<text  x="1187.94" y="273.5" ></text>
</g>
<g >
<title>Parloop_Cells_wrap_wrap_slate_loopy_knl_0 (5,828,395 us, 0.93%)</title><rect x="50.4" y="183" width="10.9" height="15.0" fill="rgb(0,0,0)" rx="2" ry="2" />
<text  x="53.43" y="193.5" ></text>
</g>
<g >
<title>solve_getrf (26,914,789 us, 4.27%)</title><rect x="65.3" y="247" width="50.5" height="15.0" fill="rgb(0,0,0)" rx="2" ry="2" />
<text  x="68.34" y="257.5" >solv..</text>
</g>
<g >
<title>Log_Event_subkernel9_cell_to__cell_integral_otherwise (22,094,646 us, 3.51%)</title><rect x="1096.0" y="295" width="41.4" height="15.0" fill="rgb(0,0,0)" rx="2" ry="2" />
<text  x="1099.02" y="305.5" >Log..</text>
</g>
<g >
<title>firedrake.pointquery_utils.to_reference_coordinates (402,809 us, 0.06%)</title><rect x="877.5" y="279" width="0.7" height="15.0" fill="rgb(0,0,0)" rx="2" ry="2" />
<text  x="880.49" y="289.5" ></text>
</g>
<g >
<title>Log_Event_subkernel8_interior_facet_vert_to__exterior_facet_vert_integral_otherwise (8,657,121 us, 1.37%)</title><rect x="135.1" y="231" width="16.2" height="15.0" fill="rgb(0,0,0)" rx="2" ry="2" />
<text  x="138.08" y="241.5" ></text>
</g>
<g >
<title>Parloop_Cells_wrap_wrap_slate_loopy_knl_18 (2,923,907 us, 0.46%)</title><rect x="15.5" y="167" width="5.5" height="15.0" fill="rgb(0,0,0)" rx="2" ry="2" />
<text  x="18.49" y="177.5" ></text>
</g>
<g >
<title>HybridRHS (5,903,212 us, 0.94%)</title><rect x="50.3" y="151" width="11.0" height="15.0" fill="rgb(0,0,0)" rx="2" ry="2" />
<text  x="53.29" y="161.5" ></text>
</g>
<g >
<title>Log_Event_slate_loopy_knl_7 (145,730,990 us, 23.14%)</title><rect x="213.8" y="279" width="273.0" height="15.0" fill="rgb(0,0,0)" rx="2" ry="2" />
<text  x="216.81" y="289.5" >Log_Event_slate_loopy_knl_7</text>
</g>
<g >
<title>KSPSolve (363,674,188 us, 57.74%)</title><rect x="196.9" y="199" width="681.3" height="15.0" fill="rgb(0,0,0)" rx="2" ry="2" />
<text  x="199.88" y="209.5" >KSPSolve</text>
</g>
<g >
<title>PCApply (626,932,302 us, 99.54%)</title><rect x="14.9" y="119" width="1174.6" height="15.0" fill="rgb(0,0,0)" rx="2" ry="2" />
<text  x="17.91" y="129.5" >PCApply</text>
</g>
<g >
<title>firedrake.pointquery_utils.to_reference_coordinates (402,430 us, 0.06%)</title><rect x="875.2" y="311" width="0.8" height="15.0" fill="rgb(0,0,0)" rx="2" ry="2" />
<text  x="878.21" y="321.5" ></text>
</g>
<g >
<title>inv_memcpy (75,061 us, 0.01%)</title><rect x="42.1" y="215" width="0.1" height="15.0" fill="rgb(0,0,0)" rx="2" ry="2" />
<text  x="45.05" y="225.5" ></text>
</g>
<g >
<title>Log_Event_subkernel5_cell_to__cell_integral_otherwise (2,202,781 us, 0.35%)</title><rect x="1180.8" y="263" width="4.1" height="15.0" fill="rgb(0,0,0)" rx="2" ry="2" />
<text  x="1183.81" y="273.5" ></text>
</g>
<g >
<title>Log_Event_subkernel8_interior_facet_vert_to__exterior_facet_vert_integral_otherwise (7,858,541 us, 1.25%)</title><rect x="1081.3" y="295" width="14.7" height="15.0" fill="rgb(0,0,0)" rx="2" ry="2" />
<text  x="1084.30" y="305.5" ></text>
</g>
<g >
<title>Log_Event_inits_wrap_slate_loopy_knl_7 (768,702 us, 0.12%)</title><rect x="880.2" y="279" width="1.4" height="15.0" fill="rgb(0,0,0)" rx="2" ry="2" />
<text  x="883.18" y="289.5" ></text>
</g>
<g >
<title>firedrake.__init__ (1,527,463 us, 0.24%)</title><rect x="11.9" y="71" width="2.9" height="15.0" fill="rgb(0,0,0)" rx="2" ry="2" />
<text  x="14.90" y="81.5" ></text>
</g>
<g >
<title>solve_getrf (26,906,876 us, 4.27%)</title><rect x="882.2" y="295" width="50.4" height="15.0" fill="rgb(0,0,0)" rx="2" ry="2" />
<text  x="885.23" y="305.5" >solv..</text>
</g>
<g >
<title>inv_getrf (2,444,462 us, 0.39%)</title><rect x="1151.5" y="279" width="4.6" height="15.0" fill="rgb(0,0,0)" rx="2" ry="2" />
<text  x="1154.50" y="289.5" ></text>
</g>
<g >
<title>Log_Event_slate_loopy_knl_7 (29,147,041 us, 4.63%)</title><rect x="64.7" y="231" width="54.6" height="15.0" fill="rgb(0,0,0)" rx="2" ry="2" />
<text  x="67.73" y="241.5" >Log_E..</text>
</g>
<g >
<title>MatMult (683,247 us, 0.11%)</title><rect x="874.7" y="263" width="1.3" height="15.0" fill="rgb(0,0,0)" rx="2" ry="2" />
<text  x="877.69" y="273.5" ></text>
</g>
<g >
<title>Log_Event_slate_loopy_knl_18 (1,288,238 us, 0.20%)</title><rect x="15.9" y="183" width="2.4" height="15.0" fill="rgb(0,0,0)" rx="2" ry="2" />
<text  x="18.93" y="193.5" ></text>
</g>
<g >
<title>all (629,816,477 us, 100%)</title><rect x="10.0" y="39" width="1180.0" height="15.0" fill="rgb(0,0,0)" rx="2" ry="2" />
<text  x="13.00" y="49.5" ></text>
</g>
<g >
<title>Log_Event_subkernel20_cell_to__cell_integral_otherwise (190,595 us, 0.03%)</title><rect x="19.2" y="183" width="0.4" height="15.0" fill="rgb(0,0,0)" rx="2" ry="2" />
<text  x="22.22" y="193.5" ></text>
</g>
<g >
<title>firedrake.interpolation.make_interpolator (130,573 us, 0.02%)</title><rect x="1188.9" y="167" width="0.3" height="15.0" fill="rgb(0,0,0)" rx="2" ry="2" />
<text  x="1191.91" y="177.5" ></text>
</g>
<g >
<title>Log_Event_subkernel8_interior_facet_horiz_bottom_to__exterior_facet_bottom_integral_otherwise (2,619,119 us, 0.42%)</title><rect x="555.8" y="279" width="4.9" height="15.0" fill="rgb(0,0,0)" rx="2" ry="2" />
<text  x="558.77" y="289.5" ></text>
</g>
<g >
<title>CreateSparsity (1,040,031 us, 0.17%)</title><rect x="1186.0" y="247" width="2.0" height="15.0" fill="rgb(0,0,0)" rx="2" ry="2" />
<text  x="1189.02" y="257.5" ></text>
</g>
<g >
<title>ParLoopExecute (109,638 us, 0.02%)</title><rect x="1189.8" y="119" width="0.2" height="15.0" fill="rgb(0,0,0)" rx="2" ry="2" />
<text  x="1192.79" y="129.5" ></text>
</g>
<g >
<title>Log_Event_subkernel21_interior_facet_vert_to__exterior_facet_vert_integral_otherwise (743,634 us, 0.12%)</title><rect x="19.6" y="183" width="1.4" height="15.0" fill="rgb(0,0,0)" rx="2" ry="2" />
<text  x="22.57" y="193.5" ></text>
</g>
<g >
<title>Log_Event_slate_loopy_knl_7 (26,547,007 us, 4.22%)</title><rect x="1017.3" y="295" width="49.8" height="15.0" fill="rgb(0,0,0)" rx="2" ry="2" />
<text  x="1020.33" y="305.5" >Log_..</text>
</g>
<g >
<title>Log_Event_subkernel10_interior_facet_horiz_bottom_to__exterior_facet_bottom_integral_otherwise (498,987 us, 0.08%)</title><rect x="936.2" y="279" width="1.0" height="15.0" fill="rgb(0,0,0)" rx="2" ry="2" />
<text  x="939.22" y="289.5" ></text>
</g>
<g >
<title>Log_Event_subkernel8_interior_facet_horiz_top_to__exterior_facet_top_integral_otherwise (2,552,279 us, 0.41%)</title><rect x="560.7" y="279" width="4.8" height="15.0" fill="rgb(0,0,0)" rx="2" ry="2" />
<text  x="563.68" y="289.5" ></text>
</g>
<g >
<title>PCSetUp (416,028 us, 0.07%)</title><rect x="1188.7" y="151" width="0.8" height="15.0" fill="rgb(0,0,0)" rx="2" ry="2" />
<text  x="1191.72" y="161.5" ></text>
</g>
<g >
<title>Log_Event_subkernel4_interior_facet_vert_to__exterior_facet_vert_integral_otherwise (795,235 us, 0.13%)</title><rect x="1179.3" y="263" width="1.5" height="15.0" fill="rgb(0,0,0)" rx="2" ry="2" />
<text  x="1182.32" y="273.5" ></text>
</g>
<g >
<title>ParLoopExecute (5,828,395 us, 0.93%)</title><rect x="50.4" y="167" width="10.9" height="15.0" fill="rgb(0,0,0)" rx="2" ry="2" />
<text  x="53.43" y="177.5" ></text>
</g>
<g >
<title>Parloop_Cells_wrap_wrap_slate_loopy_knl_11 (15,546,185 us, 2.47%)</title><rect x="21.2" y="183" width="29.1" height="15.0" fill="rgb(0,0,0)" rx="2" ry="2" />
<text  x="24.16" y="193.5" >P..</text>
</g>
<g >
<title>Log_Event_subkernel8_interior_facet_vert_to__exterior_facet_vert_integral_otherwise (8,683,740 us, 1.38%)</title><rect x="951.9" y="279" width="16.3" height="15.0" fill="rgb(0,0,0)" rx="2" ry="2" />
<text  x="954.92" y="289.5" ></text>
</g>
<g >
<title>solve_getrf (24,477,595 us, 3.89%)</title><rect x="1017.9" y="311" width="45.8" height="15.0" fill="rgb(0,0,0)" rx="2" ry="2" />
<text  x="1020.88" y="321.5" >sol..</text>
</g>
<g >
<title>MatMult (66,060,856 us, 10.49%)</title><rect x="1013.6" y="231" width="123.8" height="15.0" fill="rgb(0,0,0)" rx="2" ry="2" />
<text  x="1016.65" y="241.5" >MatMult</text>
</g>
<g >
<title>ParLoopExecute (72,270,857 us, 11.47%)</title><rect x="878.2" y="247" width="135.4" height="15.0" fill="rgb(0,0,0)" rx="2" ry="2" />
<text  x="881.24" y="257.5" >ParLoopExecute</text>
</g>
<g >
<title>ParLoopExecute (15,546,185 us, 2.47%)</title><rect x="21.2" y="167" width="29.1" height="15.0" fill="rgb(0,0,0)" rx="2" ry="2" />
<text  x="24.16" y="177.5" >P..</text>
</g>
<g >
<title>ParLoopExecute (72,338,386 us, 11.49%)</title><rect x="61.3" y="199" width="135.6" height="15.0" fill="rgb(0,0,0)" rx="2" ry="2" />
<text  x="64.35" y="209.5" >ParLoopExecute</text>
</g>
<g >
<title>Log_Event_slate_loopy_knl_11 (13,690,921 us, 2.17%)</title><rect x="21.6" y="199" width="25.7" height="15.0" fill="rgb(0,0,0)" rx="2" ry="2" />
<text  x="24.63" y="209.5" >L..</text>
</g>
<g >
<title>solve_getrs (565,572 us, 0.09%)</title><rect x="115.8" y="247" width="1.0" height="15.0" fill="rgb(0,0,0)" rx="2" ry="2" />
<text  x="118.77" y="257.5" ></text>
</g>
<g >
<title>Log_Event_subkernel10_interior_facet_horiz_top_to__exterior_facet_top_integral_otherwise (451,201 us, 0.07%)</title><rect x="1067.9" y="295" width="0.9" height="15.0" fill="rgb(0,0,0)" rx="2" ry="2" />
<text  x="1070.91" y="305.5" ></text>
</g>
<g >
<title>Log_Event_inits_wrap_slate_loopy_knl_7 (698,729 us, 0.11%)</title><rect x="1016.0" y="295" width="1.3" height="15.0" fill="rgb(0,0,0)" rx="2" ry="2" />
<text  x="1019.02" y="305.5" ></text>
</g>
<g >
<title>MatMultTranspose (402,809 us, 0.06%)</title><rect x="877.5" y="247" width="0.7" height="15.0" fill="rgb(0,0,0)" rx="2" ry="2" />
<text  x="880.49" y="257.5" ></text>
</g>
</g>
</svg>
