<?xml version="1.0" standalone="no"?>
<!DOCTYPE svg PUBLIC "-//W3C//DTD SVG 1.1//EN" "http://www.w3.org/Graphics/SVG/1.1/DTD/svg11.dtd">
<svg version="1.1" width="1200" height="315" onload="init(evt)" viewBox="0 0 1200 315" xmlns="http://www.w3.org/2000/svg" xmlns:xlink="http://www.w3.org/1999/xlink">
<!-- Flame graph stack visualization. See https://github.com/brendangregg/FlameGraph for latest version, and http://www.brendangregg.com/flamegraphs.html for examples. -->
<!-- NOTES:  -->
<defs>
	<linearGradient id="background" y1="0" y2="1" x1="0" x2="0" >
		<stop stop-color="#eeeeee" offset="5%" />
		<stop stop-color="#eeeeb0" offset="95%" />
	</linearGradient>
</defs>
<style type="text/css">
	text { font-family:Verdana; font-size:13px; fill:rgb(0,0,0); }
	#search, #ignorecase { opacity:0.1; cursor:pointer; }
	#search:hover, #search.show, #ignorecase:hover, #ignorecase.show { opacity:1; }
	#subtitle { text-anchor:middle; font-color:rgb(160,160,160); }
	#title { text-anchor:middle; font-size:18px}
	#unzoom { cursor:pointer; }
	#frames > *:hover { stroke:black; stroke-width:0.5; cursor:pointer; }
	.hide { display:none; }
	.parent { opacity:0.5; }
</style>
<script type="text/ecmascript">
<![CDATA[
	"use strict";
	var details, searchbtn, unzoombtn, matchedtxt, svg, searching, currentSearchTerm, ignorecase, ignorecaseBtn;
	function init(evt) {
		details = document.getElementById("details").firstChild;
		searchbtn = document.getElementById("search");
		ignorecaseBtn = document.getElementById("ignorecase");
		unzoombtn = document.getElementById("unzoom");
		matchedtxt = document.getElementById("matched");
		svg = document.getElementsByTagName("svg")[0];
		searching = 0;
		currentSearchTerm = null;

		// use GET parameters to restore a flamegraphs state.
		var params = get_params();
		if (params.x && params.y)
			zoom(find_group(document.querySelector('[x="' + params.x + '"][y="' + params.y + '"]')));
                if (params.s) search(params.s);
	}

	// event listeners
	window.addEventListener("click", function(e) {
		var target = find_group(e.target);
		if (target) {
			if (target.nodeName == "a") {
				if (e.ctrlKey === false) return;
				e.preventDefault();
			}
			if (target.classList.contains("parent")) unzoom();
			zoom(target);
			if (!document.querySelector('.parent')) {
				clearzoom();
				return;
			}

			// set parameters for zoom state
			var el = target.querySelector("rect");
			if (el && el.attributes && el.attributes.y && el.attributes._orig_x) {
				var params = get_params()
				params.x = el.attributes._orig_x.value;
				params.y = el.attributes.y.value;
				history.replaceState(null, null, parse_params(params));
			}
		}
		else if (e.target.id == "unzoom") clearzoom();
		else if (e.target.id == "search") search_prompt();
		else if (e.target.id == "ignorecase") toggle_ignorecase();
	}, false)

	// mouse-over for info
	// show
	window.addEventListener("mouseover", function(e) {
		var target = find_group(e.target);
		if (target) details.nodeValue = "Function: " + g_to_text(target);
	}, false)

	// clear
	window.addEventListener("mouseout", function(e) {
		var target = find_group(e.target);
		if (target) details.nodeValue = ' ';
	}, false)

	// ctrl-F for search
	// ctrl-I to toggle case-sensitive search
	window.addEventListener("keydown",function (e) {
		if (e.keyCode === 114 || (e.ctrlKey && e.keyCode === 70)) {
			e.preventDefault();
			search_prompt();
		}
		else if (e.ctrlKey && e.keyCode === 73) {
			e.preventDefault();
			toggle_ignorecase();
		}
	}, false)

	// functions
	function get_params() {
		var params = {};
		var paramsarr = window.location.search.substr(1).split('&');
		for (var i = 0; i < paramsarr.length; ++i) {
			var tmp = paramsarr[i].split("=");
			if (!tmp[0] || !tmp[1]) continue;
			params[tmp[0]]  = decodeURIComponent(tmp[1]);
		}
		return params;
	}
	function parse_params(params) {
		var uri = "?";
		for (var key in params) {
			uri += key + '=' + encodeURIComponent(params[key]) + '&';
		}
		if (uri.slice(-1) == "&")
			uri = uri.substring(0, uri.length - 1);
		if (uri == '?')
			uri = window.location.href.split('?')[0];
		return uri;
	}
	function find_child(node, selector) {
		var children = node.querySelectorAll(selector);
		if (children.length) return children[0];
	}
	function find_group(node) {
		var parent = node.parentElement;
		if (!parent) return;
		if (parent.id == "frames") return node;
		return find_group(parent);
	}
	function orig_save(e, attr, val) {
		if (e.attributes["_orig_" + attr] != undefined) return;
		if (e.attributes[attr] == undefined) return;
		if (val == undefined) val = e.attributes[attr].value;
		e.setAttribute("_orig_" + attr, val);
	}
	function orig_load(e, attr) {
		if (e.attributes["_orig_"+attr] == undefined) return;
		e.attributes[attr].value = e.attributes["_orig_" + attr].value;
		e.removeAttribute("_orig_"+attr);
	}
	function g_to_text(e) {
		var text = find_child(e, "title").firstChild.nodeValue;
		return (text)
	}
	function g_to_func(e) {
		var func = g_to_text(e);
		// if there's any manipulation we want to do to the function
		// name before it's searched, do it here before returning.
		return (func);
	}
	function update_text(e) {
		var r = find_child(e, "rect");
		var t = find_child(e, "text");
		var w = parseFloat(r.attributes.width.value) -3;
		var txt = find_child(e, "title").textContent.replace(/\([^(]*\)$/,"");
		t.attributes.x.value = parseFloat(r.attributes.x.value) + 3;

		// Smaller than this size won't fit anything
		if (w < 2 * 13 * 0.59) {
			t.textContent = "";
			return;
		}

		t.textContent = txt;
		// Fit in full text width
		if (/^ *$/.test(txt) || t.getSubStringLength(0, txt.length) < w)
			return;

		for (var x = txt.length - 2; x > 0; x--) {
			if (t.getSubStringLength(0, x + 2) <= w) {
				t.textContent = txt.substring(0, x) + "..";
				return;
			}
		}
		t.textContent = "";
	}

	// zoom
	function zoom_reset(e) {
		if (e.attributes != undefined) {
			orig_load(e, "x");
			orig_load(e, "width");
		}
		if (e.childNodes == undefined) return;
		for (var i = 0, c = e.childNodes; i < c.length; i++) {
			zoom_reset(c[i]);
		}
	}
	function zoom_child(e, x, ratio) {
		if (e.attributes != undefined) {
			if (e.attributes.x != undefined) {
				orig_save(e, "x");
				e.attributes.x.value = (parseFloat(e.attributes.x.value) - x - 10) * ratio + 10;
				if (e.tagName == "text")
					e.attributes.x.value = find_child(e.parentNode, "rect[x]").attributes.x.value + 3;
			}
			if (e.attributes.width != undefined) {
				orig_save(e, "width");
				e.attributes.width.value = parseFloat(e.attributes.width.value) * ratio;
			}
		}

		if (e.childNodes == undefined) return;
		for (var i = 0, c = e.childNodes; i < c.length; i++) {
			zoom_child(c[i], x - 10, ratio);
		}
	}
	function zoom_parent(e) {
		if (e.attributes) {
			if (e.attributes.x != undefined) {
				orig_save(e, "x");
				e.attributes.x.value = 10;
			}
			if (e.attributes.width != undefined) {
				orig_save(e, "width");
				e.attributes.width.value = parseInt(svg.width.baseVal.value) - (10 * 2);
			}
		}
		if (e.childNodes == undefined) return;
		for (var i = 0, c = e.childNodes; i < c.length; i++) {
			zoom_parent(c[i]);
		}
	}
	function zoom(node) {
		var attr = find_child(node, "rect").attributes;
		var width = parseFloat(attr.width.value);
		var xmin = parseFloat(attr.x.value);
		var xmax = parseFloat(xmin + width);
		var ymin = parseFloat(attr.y.value);
		var ratio = (svg.width.baseVal.value - 2 * 10) / width;

		// XXX: Workaround for JavaScript float issues (fix me)
		var fudge = 0.0001;

		unzoombtn.classList.remove("hide");

		var el = document.getElementById("frames").children;
		for (var i = 0; i < el.length; i++) {
			var e = el[i];
			var a = find_child(e, "rect").attributes;
			var ex = parseFloat(a.x.value);
			var ew = parseFloat(a.width.value);
			var upstack;
			// Is it an ancestor
			if (1 == 0) {
				upstack = parseFloat(a.y.value) > ymin;
			} else {
				upstack = parseFloat(a.y.value) < ymin;
			}
			if (upstack) {
				// Direct ancestor
				if (ex <= xmin && (ex+ew+fudge) >= xmax) {
					e.classList.add("parent");
					zoom_parent(e);
					update_text(e);
				}
				// not in current path
				else
					e.classList.add("hide");
			}
			// Children maybe
			else {
				// no common path
				if (ex < xmin || ex + fudge >= xmax) {
					e.classList.add("hide");
				}
				else {
					zoom_child(e, xmin, ratio);
					update_text(e);
				}
			}
		}
		search();
	}
	function unzoom() {
		unzoombtn.classList.add("hide");
		var el = document.getElementById("frames").children;
		for(var i = 0; i < el.length; i++) {
			el[i].classList.remove("parent");
			el[i].classList.remove("hide");
			zoom_reset(el[i]);
			update_text(el[i]);
		}
		search();
	}
	function clearzoom() {
		unzoom();

		// remove zoom state
		var params = get_params();
		if (params.x) delete params.x;
		if (params.y) delete params.y;
		history.replaceState(null, null, parse_params(params));
	}

	// search
	function toggle_ignorecase() {
		ignorecase = !ignorecase;
		if (ignorecase) {
			ignorecaseBtn.classList.add("show");
		} else {
			ignorecaseBtn.classList.remove("show");
		}
		reset_search();
		search();
	}
	function reset_search() {
		var el = document.querySelectorAll("#frames rect");
		for (var i = 0; i < el.length; i++) {
			orig_load(el[i], "fill")
		}
		var params = get_params();
		delete params.s;
		history.replaceState(null, null, parse_params(params));
	}
	function search_prompt() {
		if (!searching) {
			var term = prompt("Enter a search term (regexp " +
			    "allowed, eg: ^ext4_)"
			    + (ignorecase ? ", ignoring case" : "")
			    + "\nPress Ctrl-i to toggle case sensitivity", "");
			if (term != null) search(term);
		} else {
			reset_search();
			searching = 0;
			currentSearchTerm = null;
			searchbtn.classList.remove("show");
			searchbtn.firstChild.nodeValue = "Search"
			matchedtxt.classList.add("hide");
			matchedtxt.firstChild.nodeValue = ""
		}
	}
	function search(term) {
		if (term) currentSearchTerm = term;

		var re = new RegExp(currentSearchTerm, ignorecase ? 'i' : '');
		var el = document.getElementById("frames").children;
		var matches = new Object();
		var maxwidth = 0;
		for (var i = 0; i < el.length; i++) {
			var e = el[i];
			var func = g_to_func(e);
			var rect = find_child(e, "rect");
			if (func == null || rect == null)
				continue;

			// Save max width. Only works as we have a root frame
			var w = parseFloat(rect.attributes.width.value);
			if (w > maxwidth)
				maxwidth = w;

			if (func.match(re)) {
				// highlight
				var x = parseFloat(rect.attributes.x.value);
				orig_save(rect, "fill");
				rect.attributes.fill.value = "rgb(230,0,230)";

				// remember matches
				if (matches[x] == undefined) {
					matches[x] = w;
				} else {
					if (w > matches[x]) {
						// overwrite with parent
						matches[x] = w;
					}
				}
				searching = 1;
			}
		}
		if (!searching)
			return;
		var params = get_params();
		params.s = currentSearchTerm;
		history.replaceState(null, null, parse_params(params));

		searchbtn.classList.add("show");
		searchbtn.firstChild.nodeValue = "Reset Search";

		// calculate percent matched, excluding vertical overlap
		var count = 0;
		var lastx = -1;
		var lastw = 0;
		var keys = Array();
		for (k in matches) {
			if (matches.hasOwnProperty(k))
				keys.push(k);
		}
		// sort the matched frames by their x location
		// ascending, then width descending
		keys.sort(function(a, b){
			return a - b;
		});
		// Step through frames saving only the biggest bottom-up frames
		// thanks to the sort order. This relies on the tree property
		// where children are always smaller than their parents.
		var fudge = 0.0001;	// JavaScript floating point
		for (var k in keys) {
			var x = parseFloat(keys[k]);
			var w = matches[keys[k]];
			if (x >= lastx + lastw - fudge) {
				count += w;
				lastx = x;
				lastw = w;
			}
		}
		// display matched percent
		matchedtxt.classList.remove("hide");
		var pct = 100 * count / maxwidth;
		if (pct != 100) pct = pct.toFixed(1)
		matchedtxt.firstChild.nodeValue = "Matched: " + pct + "%";
	}
]]>
</script>
<rect x="0.0" y="0" width="1200.0" height="315.0" fill="url(#background)"  />
<text id="title" x="600.00" y="26" >Firedrake example</text>
<text id="details" x="10.00" y="297" > </text>
<text id="unzoom" x="10.00" y="26" class="hide">Reset Zoom</text>
<text id="search" x="1090.00" y="26" >Search</text>
<text id="ignorecase" x="1174.00" y="26" >ic</text>
<text id="matched" x="1090.00" y="297" > </text>
<g id="frames">
<g >
<title>Log_Event_subkernel53_interior_facet_vert_to__exterior_facet_vert_integral_otherwise (10,264 us, 0.13%)</title><rect x="808.9" y="231" width="1.5" height="15.0" fill="rgb(0,0,0)" rx="2" ry="2" />
<text  x="811.91" y="241.5" ></text>
</g>
<g >
<title>firedrake.formmanipulation.ExtractSubBlock.argument (8,617 us, 0.11%)</title><rect x="1179.0" y="167" width="1.2" height="15.0" fill="rgb(0,0,0)" rx="2" ry="2" />
<text  x="1181.95" y="177.5" ></text>
</g>
<g >
<title>Log_Event_subkernel68_cell_to__cell_integral_otherwise (5,861 us, 0.07%)</title><rect x="912.2" y="231" width="0.9" height="15.0" fill="rgb(0,0,0)" rx="2" ry="2" />
<text  x="915.18" y="241.5" ></text>
</g>
<g >
<title>Log_Event_tensorshell_knl_21 (16,419 us, 0.21%)</title><rect x="741.5" y="263" width="2.5" height="15.0" fill="rgb(0,0,0)" rx="2" ry="2" />
<text  x="744.52" y="273.5" ></text>
</g>
<g >
<title>PCSetUp (118,679 us, 1.51%)</title><rect x="1172.2" y="103" width="17.8" height="15.0" fill="rgb(0,0,0)" rx="2" ry="2" />
<text  x="1175.24" y="113.5" ></text>
</g>
<g >
<title>Log_Event_subkernel22_cell_to__cell_integral_otherwise (140,846 us, 1.79%)</title><rect x="768.4" y="247" width="21.1" height="15.0" fill="rgb(0,0,0)" rx="2" ry="2" />
<text  x="771.38" y="257.5" ></text>
</g>
<g >
<title>Log_Event_subkernel31_cell_to__cell_integral_otherwise (10,844 us, 0.14%)</title><rect x="799.1" y="231" width="1.6" height="15.0" fill="rgb(0,0,0)" rx="2" ry="2" />
<text  x="802.06" y="241.5" ></text>
</g>
<g >
<title>firedrake.functionspacedata.FunctionSpaceData.__init__ (7,501 us, 0.10%)</title><rect x="1177.3" y="183" width="1.1" height="15.0" fill="rgb(0,0,0)" rx="2" ry="2" />
<text  x="1180.28" y="193.5" ></text>
</g>
<g >
<title>Log_Event_tensorshell_knl_18 (8,343 us, 0.11%)</title><rect x="740.3" y="263" width="1.2" height="15.0" fill="rgb(0,0,0)" rx="2" ry="2" />
<text  x="743.28" y="273.5" ></text>
</g>
<g >
<title>Log_Event_subkernel37_cell_to__cell_integral_otherwise (4,511 us, 0.06%)</title><rect x="802.2" y="231" width="0.7" height="15.0" fill="rgb(0,0,0)" rx="2" ry="2" />
<text  x="805.19" y="241.5" ></text>
</g>
<g >
<title>firedrake.functionspaceimpl.FunctionSpace.__init__ (6,332 us, 0.08%)</title><rect x="205.1" y="119" width="1.0" height="15.0" fill="rgb(0,0,0)" rx="2" ry="2" />
<text  x="208.12" y="129.5" ></text>
</g>
<g >
<title>Log_Event_subkernel33_interior_facet_horiz_bottom_to__exterior_facet_bottom_integral_otherwise (2,901 us, 0.04%)</title><rect x="917.1" y="215" width="0.4" height="15.0" fill="rgb(0,0,0)" rx="2" ry="2" />
<text  x="920.10" y="225.5" ></text>
</g>
<g >
<title>firedrake.functionspacedata.FunctionSpaceData.__init__ (2,417 us, 0.03%)</title><rect x="1179.9" y="231" width="0.3" height="15.0" fill="rgb(0,0,0)" rx="2" ry="2" />
<text  x="1182.88" y="241.5" ></text>
</g>
<g >
<title>Log_Event_subkernel62_cell_to__cell_integral_otherwise (134,704 us, 1.71%)</title><rect x="891.1" y="247" width="20.2" height="15.0" fill="rgb(0,0,0)" rx="2" ry="2" />
<text  x="894.13" y="257.5" ></text>
</g>
<g >
<title>firedrake.functionspaceimpl.FunctionSpace.__init__ (22,269 us, 0.28%)</title><rect x="206.1" y="87" width="3.3" height="15.0" fill="rgb(0,0,0)" rx="2" ry="2" />
<text  x="209.07" y="97.5" ></text>
</g>
<g >
<title>firedrake.functionspacedata.get_shared_data (2,417 us, 0.03%)</title><rect x="1179.9" y="215" width="0.3" height="15.0" fill="rgb(0,0,0)" rx="2" ry="2" />
<text  x="1182.88" y="225.5" ></text>
</g>
<g >
<title>pyop2.global_kernel.GlobalKernel.compile (37,425 us, 0.47%)</title><rect x="469.4" y="215" width="5.6" height="15.0" fill="rgb(0,0,0)" rx="2" ry="2" />
<text  x="472.39" y="225.5" ></text>
</g>
<g >
<title>Log_Event_subkernel45_cell_to__cell_integral_otherwise (6,419 us, 0.08%)</title><rect x="811.1" y="263" width="1.0" height="15.0" fill="rgb(0,0,0)" rx="2" ry="2" />
<text  x="814.09" y="273.5" ></text>
</g>
<g >
<title>MatMult (140,111 us, 1.78%)</title><rect x="443.2" y="119" width="21.0" height="15.0" fill="rgb(0,0,0)" rx="2" ry="2" />
<text  x="446.20" y="129.5" ></text>
</g>
<g >
<title>CreateFunctionSpace (1,707 us, 0.02%)</title><rect x="463.9" y="215" width="0.3" height="15.0" fill="rgb(0,0,0)" rx="2" ry="2" />
<text  x="466.92" y="225.5" ></text>
</g>
<g >
<title>Parloop_Cells_wrap_slate_loopy_knl_0 (1,811,403 us, 22.97%)</title><rect x="668.1" y="183" width="271.1" height="15.0" fill="rgb(0,0,0)" rx="2" ry="2" />
<text  x="671.13" y="193.5" >Parloop_Cells_wrap_slate_loopy_kn..</text>
</g>
<g >
<title>firedrake.formmanipulation.ExtractSubBlock.split (12,273 us, 0.16%)</title><rect x="1178.4" y="151" width="1.8" height="15.0" fill="rgb(0,0,0)" rx="2" ry="2" />
<text  x="1181.40" y="161.5" ></text>
</g>
<g >
<title>firedrake.variational_solver.LinearVariationalProblem.__init__ (19,309 us, 0.24%)</title><rect x="438.8" y="71" width="2.8" height="15.0" fill="rgb(0,0,0)" rx="2" ry="2" />
<text  x="441.76" y="81.5" ></text>
</g>
<g >
<title>Log_Event_subkernel13_exterior_facet_vert_to__exterior_facet_vert_integral_otherwise (3,463 us, 0.04%)</title><rect x="688.5" y="231" width="0.5" height="15.0" fill="rgb(0,0,0)" rx="2" ry="2" />
<text  x="691.49" y="241.5" ></text>
</g>
<g >
<title>Log_Event_subkernel57_cell_to__cell_integral_otherwise (72,610 us, 0.92%)</title><rect x="823.4" y="263" width="10.9" height="15.0" fill="rgb(0,0,0)" rx="2" ry="2" />
<text  x="826.40" y="273.5" ></text>
</g>
<g >
<title>Log_Event_subkernel3_cell_to__cell_integral_otherwise (12,045 us, 0.15%)</title><rect x="795.1" y="247" width="1.8" height="15.0" fill="rgb(0,0,0)" rx="2" ry="2" />
<text  x="798.10" y="257.5" ></text>
</g>
<g >
<title>Log_Event_subkernel70_cell_to__cell_integral_otherwise (4,461 us, 0.06%)</title><rect x="913.1" y="231" width="0.6" height="15.0" fill="rgb(0,0,0)" rx="2" ry="2" />
<text  x="916.06" y="241.5" ></text>
</g>
<g >
<title>firedrake.mesh.MeshTopology._facets (2,342 us, 0.03%)</title><rect x="209.1" y="135" width="0.3" height="15.0" fill="rgb(0,0,0)" rx="2" ry="2" />
<text  x="212.05" y="145.5" ></text>
</g>
<g >
<title>Log_Event_subkernel73_interior_facet_horiz_top_to__exterior_facet_top_integral_otherwise (2,953 us, 0.04%)</title><rect x="925.2" y="215" width="0.4" height="15.0" fill="rgb(0,0,0)" rx="2" ry="2" />
<text  x="928.21" y="225.5" ></text>
</g>
<g >
<title>HybridInit (118,679 us, 1.51%)</title><rect x="1172.2" y="119" width="17.8" height="15.0" fill="rgb(0,0,0)" rx="2" ry="2" />
<text  x="1175.24" y="129.5" ></text>
</g>
<g >
<title>SCForwardElim (3,174,182 us, 40.26%)</title><rect x="464.2" y="135" width="475.0" height="15.0" fill="rgb(0,0,0)" rx="2" ry="2" />
<text  x="467.17" y="145.5" >SCForwardElim</text>
</g>
<g >
<title>Log_Event_mtf_solve_1 (746,702 us, 9.47%)</title><rect x="685.1" y="215" width="111.8" height="15.0" fill="rgb(0,0,0)" rx="2" ry="2" />
<text  x="688.15" y="225.5" >Log_Event_mt..</text>
</g>
<g >
<title>Log_Event_mtf_solve_34 (25,215 us, 0.32%)</title><rect x="800.7" y="215" width="3.8" height="15.0" fill="rgb(0,0,0)" rx="2" ry="2" />
<text  x="803.68" y="225.5" ></text>
</g>
<g >
<title>KSPSolve (4,874,060 us, 61.82%)</title><rect x="442.8" y="103" width="729.4" height="15.0" fill="rgb(0,0,0)" rx="2" ry="2" />
<text  x="445.76" y="113.5" >KSPSolve</text>
</g>
<g >
<title>ParLoopExecute (43,986 us, 0.56%)</title><rect x="468.4" y="183" width="6.6" height="15.0" fill="rgb(0,0,0)" rx="2" ry="2" />
<text  x="471.41" y="193.5" ></text>
</g>
<g >
<title>ParLoopExecute (32,967 us, 0.42%)</title><rect x="1184.7" y="151" width="5.0" height="15.0" fill="rgb(0,0,0)" rx="2" ry="2" />
<text  x="1187.73" y="161.5" ></text>
</g>
<g >
<title>HybridBreak (72,294 us, 0.92%)</title><rect x="464.2" y="151" width="10.8" height="15.0" fill="rgb(0,0,0)" rx="2" ry="2" />
<text  x="467.17" y="161.5" ></text>
</g>
<g >
<title>Log_Event_subkernel17_cell_to__cell_integral_otherwise (76,261 us, 0.97%)</title><rect x="697.2" y="263" width="11.4" height="15.0" fill="rgb(0,0,0)" rx="2" ry="2" />
<text  x="700.18" y="273.5" ></text>
</g>
<g >
<title>pyop2.global_kernel.GlobalKernel.compile (36,101 us, 0.46%)</title><rect x="199.7" y="135" width="5.4" height="15.0" fill="rgb(0,0,0)" rx="2" ry="2" />
<text  x="202.72" y="145.5" ></text>
</g>
<g >
<title>Log_Event_subkernel40_cell_to__cell_integral_otherwise (10,628 us, 0.13%)</title><rect x="921.4" y="215" width="1.6" height="15.0" fill="rgb(0,0,0)" rx="2" ry="2" />
<text  x="924.41" y="225.5" ></text>
</g>
<g >
<title>Log_Event_subkernel13_interior_facet_horiz_bottom_to__exterior_facet_bottom_integral_otherwise (1,984 us, 0.03%)</title><rect x="689.0" y="231" width="0.3" height="15.0" fill="rgb(0,0,0)" rx="2" ry="2" />
<text  x="692.01" y="241.5" ></text>
</g>
<g >
<title>Parloop_Cells_wrap_form0_cell_integral_otherwise (49,854 us, 0.63%)</title><rect x="444.8" y="167" width="7.5" height="15.0" fill="rgb(0,0,0)" rx="2" ry="2" />
<text  x="447.79" y="177.5" ></text>
</g>
<g >
<title>firedrake.functionspacedata.FunctionSpaceData.__init__ (22,269 us, 0.28%)</title><rect x="206.1" y="119" width="3.3" height="15.0" fill="rgb(0,0,0)" rx="2" ry="2" />
<text  x="209.07" y="129.5" ></text>
</g>
<g >
<title>Log_Event_subkernel19_cell_to__cell_integral_otherwise (59,539 us, 0.76%)</title><rect x="708.6" y="263" width="8.9" height="15.0" fill="rgb(0,0,0)" rx="2" ry="2" />
<text  x="711.59" y="273.5" ></text>
</g>
<g >
<title>Log_Event_mtf_solve_27 (25,258 us, 0.32%)</title><rect x="796.9" y="215" width="3.8" height="15.0" fill="rgb(0,0,0)" rx="2" ry="2" />
<text  x="799.90" y="225.5" ></text>
</g>
<g >
<title>Log_Event_subkernel28_cell_to__cell_integral_otherwise (5,834 us, 0.07%)</title><rect x="797.5" y="231" width="0.9" height="15.0" fill="rgb(0,0,0)" rx="2" ry="2" />
<text  x="800.51" y="241.5" ></text>
</g>
<g >
<title>Log_Event_subkernel10_cell_to__cell_integral_otherwise (10,235 us, 0.13%)</title><rect x="793.6" y="247" width="1.5" height="15.0" fill="rgb(0,0,0)" rx="2" ry="2" />
<text  x="796.57" y="257.5" ></text>
</g>
<g >
<title>Log_Event_tensorshell_knl_24 (2,061 us, 0.03%)</title><rect x="789.5" y="231" width="0.3" height="15.0" fill="rgb(0,0,0)" rx="2" ry="2" />
<text  x="792.46" y="241.5" ></text>
</g>
<g >
<title>firedrake.functionspacedata.get_shared_data (7,501 us, 0.10%)</title><rect x="1177.3" y="167" width="1.1" height="15.0" fill="rgb(0,0,0)" rx="2" ry="2" />
<text  x="1180.28" y="177.5" ></text>
</g>
<g >
<title>pyop2.global_kernel.GlobalKernel.compile (35,815 us, 0.45%)</title><rect x="446.9" y="183" width="5.4" height="15.0" fill="rgb(0,0,0)" rx="2" ry="2" />
<text  x="449.89" y="193.5" ></text>
</g>
<g >
<title>ParLoopExecute (36,101 us, 0.46%)</title><rect x="199.7" y="103" width="5.4" height="15.0" fill="rgb(0,0,0)" rx="2" ry="2" />
<text  x="202.72" y="113.5" ></text>
</g>
<g >
<title>SNESSolve (4,992,739 us, 63.33%)</title><rect x="442.8" y="87" width="747.2" height="15.0" fill="rgb(0,0,0)" rx="2" ry="2" />
<text  x="445.76" y="97.5" >SNESSolve</text>
</g>
<g >
<title>ParLoopExecute (95,754 us, 1.21%)</title><rect x="444.2" y="151" width="14.4" height="15.0" fill="rgb(0,0,0)" rx="2" ry="2" />
<text  x="447.23" y="161.5" ></text>
</g>
<g >
<title>firedrake.variational_solver.NonlinearVariationalProblem.__init__ (13,830 us, 0.18%)</title><rect x="439.6" y="87" width="2.0" height="15.0" fill="rgb(0,0,0)" rx="2" ry="2" />
<text  x="442.58" y="97.5" ></text>
</g>
<g >
<title>firedrake.functionspaceimpl.FunctionSpace.__init__ (7,501 us, 0.10%)</title><rect x="1177.3" y="151" width="1.1" height="15.0" fill="rgb(0,0,0)" rx="2" ry="2" />
<text  x="1180.28" y="161.5" ></text>
</g>
<g >
<title>firedrake.functionspacedata.get_shared_data (6,332 us, 0.08%)</title><rect x="205.1" y="135" width="1.0" height="15.0" fill="rgb(0,0,0)" rx="2" ry="2" />
<text  x="208.12" y="145.5" ></text>
</g>
<g >
<title>firedrake.parloops.par_loop (37,914 us, 0.48%)</title><rect x="1184.0" y="135" width="5.7" height="15.0" fill="rgb(0,0,0)" rx="2" ry="2" />
<text  x="1186.99" y="145.5" ></text>
</g>
<g >
<title>firedrake.parloops.par_loop (68,614 us, 0.87%)</title><rect x="464.7" y="167" width="10.3" height="15.0" fill="rgb(0,0,0)" rx="2" ry="2" />
<text  x="467.72" y="177.5" ></text>
</g>
<g >
<title>pyop2.global_kernel.GlobalKernel.compile (32,967 us, 0.42%)</title><rect x="1184.7" y="183" width="5.0" height="15.0" fill="rgb(0,0,0)" rx="2" ry="2" />
<text  x="1187.73" y="193.5" ></text>
</g>
<g >
<title>Log_Event_subkernel53_exterior_facet_vert_to__exterior_facet_vert_integral_otherwise (3,502 us, 0.04%)</title><rect x="807.8" y="231" width="0.5" height="15.0" fill="rgb(0,0,0)" rx="2" ry="2" />
<text  x="810.80" y="241.5" ></text>
</g>
<g >
<title>Log_Event_subkernel73_interior_facet_vert_to__exterior_facet_vert_integral_otherwise (22,823 us, 0.29%)</title><rect x="925.6" y="215" width="3.5" height="15.0" fill="rgb(0,0,0)" rx="2" ry="2" />
<text  x="928.65" y="225.5" ></text>
</g>
<g >
<title>Log_Event_mtf_solve_4 (25,411 us, 0.32%)</title><rect x="789.8" y="247" width="3.8" height="15.0" fill="rgb(0,0,0)" rx="2" ry="2" />
<text  x="792.77" y="257.5" ></text>
</g>
<g >
<title>firedrake.utility_meshes.RectangleMesh (1,724 us, 0.02%)</title><rect x="438.5" y="87" width="0.3" height="15.0" fill="rgb(0,0,0)" rx="2" ry="2" />
<text  x="441.50" y="97.5" ></text>
</g>
<g >
<title>SCSolve (1,556,818 us, 19.75%)</title><rect x="939.2" y="135" width="233.0" height="15.0" fill="rgb(0,0,0)" rx="2" ry="2" />
<text  x="942.24" y="145.5" >SCSolve</text>
</g>
<g >
<title>firedrake.functionspace.make_scalar_element (1,642 us, 0.02%)</title><rect x="1179.6" y="199" width="0.3" height="15.0" fill="rgb(0,0,0)" rx="2" ry="2" />
<text  x="1182.63" y="209.5" ></text>
</g>
<g >
<title>Log_Event_slate_loopy_knl_0 (1,732,804 us, 21.98%)</title><rect x="674.0" y="199" width="259.3" height="15.0" fill="rgb(0,0,0)" rx="2" ry="2" />
<text  x="676.97" y="209.5" >Log_Event_slate_loopy_knl_0</text>
</g>
<g >
<title>Log_Event_subkernel13_interior_facet_vert_to__exterior_facet_vert_integral_otherwise (10,299 us, 0.13%)</title><rect x="689.6" y="231" width="1.5" height="15.0" fill="rgb(0,0,0)" rx="2" ry="2" />
<text  x="692.60" y="241.5" ></text>
</g>
<g >
<title>Log_Event_subkernel71_cell_to__cell_integral_otherwise (10,736 us, 0.14%)</title><rect x="913.7" y="231" width="1.6" height="15.0" fill="rgb(0,0,0)" rx="2" ry="2" />
<text  x="916.73" y="241.5" ></text>
</g>
<g >
<title>firedrake.variational_solver.NonlinearVariationalSolver.__init__ (7,449 us, 0.09%)</title><rect x="441.6" y="71" width="1.2" height="15.0" fill="rgb(0,0,0)" rx="2" ry="2" />
<text  x="444.65" y="81.5" ></text>
</g>
<g >
<title>firedrake.functionspaceimpl.FunctionSpace.__init__ (2,417 us, 0.03%)</title><rect x="1179.9" y="199" width="0.3" height="15.0" fill="rgb(0,0,0)" rx="2" ry="2" />
<text  x="1182.88" y="209.5" ></text>
</g>
<g >
<title>Log_Event_tensorshell_knl_42 (48,439 us, 0.61%)</title><rect x="810.4" y="231" width="7.3" height="15.0" fill="rgb(0,0,0)" rx="2" ry="2" />
<text  x="813.45" y="241.5" ></text>
</g>
<g >
<title>Parloop_Cells_wrap_form1_cell_integral_otherwise (42,161 us, 0.53%)</title><rect x="452.3" y="167" width="6.3" height="15.0" fill="rgb(0,0,0)" rx="2" ry="2" />
<text  x="455.25" y="177.5" ></text>
</g>
<g >
<title>firedrake.variational_solver.NonlinearVariationalSolver.solve (4,992,739 us, 63.33%)</title><rect x="442.8" y="71" width="747.2" height="15.0" fill="rgb(0,0,0)" rx="2" ry="2" />
<text  x="445.76" y="81.5" >firedrake.variational_solver.NonlinearVariationalSolver.solve</text>
</g>
<g >
<title>firedrake.tsfc_interface.compile_form (37,473 us, 0.48%)</title><rect x="458.6" y="151" width="5.6" height="15.0" fill="rgb(0,0,0)" rx="2" ry="2" />
<text  x="461.56" y="161.5" ></text>
</g>
<g >
<title>firedrake.matrix_free.operators.ImplicitMatrixContext.mult (1,554,719 us, 19.72%)</title><rect x="939.6" y="183" width="232.6" height="15.0" fill="rgb(0,0,0)" rx="2" ry="2" />
<text  x="942.55" y="193.5" >firedrake.matrix_free.operat..</text>
</g>
<g >
<title>Log_Event_form0_cell_integral_otherwise (12,310 us, 0.16%)</title><rect x="445.0" y="183" width="1.9" height="15.0" fill="rgb(0,0,0)" rx="2" ry="2" />
<text  x="448.05" y="193.5" ></text>
</g>
<g >
<title>firedrake.functionspaceimpl.FunctionSpace.__init__ (1,678 us, 0.02%)</title><rect x="1177.0" y="183" width="0.3" height="15.0" fill="rgb(0,0,0)" rx="2" ry="2" />
<text  x="1180.03" y="193.5" ></text>
</g>
<g >
<title>Log_Event_subkernel53_cell_to__cell_integral_otherwise (11,586 us, 0.15%)</title><rect x="806.1" y="231" width="1.7" height="15.0" fill="rgb(0,0,0)" rx="2" ry="2" />
<text  x="809.07" y="241.5" ></text>
</g>
<g >
<title>ParLoopExecute (1,813,992 us, 23.01%)</title><rect x="667.7" y="167" width="271.5" height="15.0" fill="rgb(0,0,0)" rx="2" ry="2" />
<text  x="670.74" y="177.5" >ParLoopExecute</text>
</g>
<g >
<title>Parloop_Cells_wrap_pyop2_kernel_uniform_extrusion (36,101 us, 0.46%)</title><rect x="199.7" y="119" width="5.4" height="15.0" fill="rgb(0,0,0)" rx="2" ry="2" />
<text  x="202.72" y="129.5" ></text>
</g>
<g >
<title>Log_Event_mtf_solve_67 (24,988 us, 0.32%)</title><rect x="911.6" y="215" width="3.7" height="15.0" fill="rgb(0,0,0)" rx="2" ry="2" />
<text  x="914.59" y="225.5" ></text>
</g>
<g >
<title>Log_Event_subkernel20_cell_to__cell_integral_otherwise (152,151 us, 1.93%)</title><rect x="717.5" y="263" width="22.8" height="15.0" fill="rgb(0,0,0)" rx="2" ry="2" />
<text  x="720.50" y="273.5" ></text>
</g>
<g >
<title>Log_Event_subkernel47_cell_to__cell_integral_otherwise (4,511 us, 0.06%)</title><rect x="812.1" y="263" width="0.6" height="15.0" fill="rgb(0,0,0)" rx="2" ry="2" />
<text  x="815.05" y="273.5" ></text>
</g>
<g >
<title>firedrake.ufl_expr.action (4,256 us, 0.05%)</title><rect x="441.6" y="119" width="0.7" height="15.0" fill="rgb(0,0,0)" rx="2" ry="2" />
<text  x="444.65" y="129.5" ></text>
</g>
<g >
<title>FunctionSpaceData: CreateElement (7,501 us, 0.10%)</title><rect x="1177.3" y="199" width="1.1" height="15.0" fill="rgb(0,0,0)" rx="2" ry="2" />
<text  x="1180.28" y="209.5" ></text>
</g>
<g >
<title>Log_Event_subkernel73_interior_facet_horiz_bottom_to__exterior_facet_bottom_integral_otherwise (2,882 us, 0.04%)</title><rect x="924.8" y="215" width="0.4" height="15.0" fill="rgb(0,0,0)" rx="2" ry="2" />
<text  x="927.78" y="225.5" ></text>
</g>
<g >
<title>Log_Event_subkernel26_cell_to__cell_integral_otherwise (11,818 us, 0.15%)</title><rect x="915.3" y="215" width="1.8" height="15.0" fill="rgb(0,0,0)" rx="2" ry="2" />
<text  x="918.33" y="225.5" ></text>
</g>
<g >
<title>CreateExtMesh (74,918 us, 0.95%)</title><rect x="194.9" y="71" width="11.2" height="15.0" fill="rgb(0,0,0)" rx="2" ry="2" />
<text  x="197.86" y="81.5" ></text>
</g>
<g >
<title>firedrake.assemble.allocate_matrix (7,449 us, 0.09%)</title><rect x="441.6" y="87" width="1.2" height="15.0" fill="rgb(0,0,0)" rx="2" ry="2" />
<text  x="444.65" y="97.5" ></text>
</g>
<g >
<title>Log_Event_subkernel7_cell_to__cell_integral_otherwise (4,470 us, 0.06%)</title><rect x="791.3" y="263" width="0.6" height="15.0" fill="rgb(0,0,0)" rx="2" ry="2" />
<text  x="794.26" y="273.5" ></text>
</g>
<g >
<title>Log_Event_mtf_solve_56 (325,424 us, 4.13%)</title><rect x="819.1" y="247" width="48.7" height="15.0" fill="rgb(0,0,0)" rx="2" ry="2" />
<text  x="822.14" y="257.5" >Log_..</text>
</g>
<g >
<title>Log_Event_tensorshell_knl_14 (656,916 us, 8.33%)</title><rect x="691.1" y="231" width="98.4" height="15.0" fill="rgb(0,0,0)" rx="2" ry="2" />
<text  x="694.14" y="241.5" >Log_Event_..</text>
</g>
<g >
<title>firedrake.formmanipulation.ExtractSubBlock.argument (1,707 us, 0.02%)</title><rect x="463.9" y="199" width="0.3" height="15.0" fill="rgb(0,0,0)" rx="2" ry="2" />
<text  x="466.92" y="209.5" ></text>
</g>
<g >
<title>Log_Event_subkernel53_interior_facet_horiz_top_to__exterior_facet_top_integral_otherwise (1,981 us, 0.03%)</title><rect x="808.6" y="231" width="0.3" height="15.0" fill="rgb(0,0,0)" rx="2" ry="2" />
<text  x="811.61" y="241.5" ></text>
</g>
<g >
<title>KSPSolve (1,556,818 us, 19.75%)</title><rect x="939.2" y="151" width="233.0" height="15.0" fill="rgb(0,0,0)" rx="2" ry="2" />
<text  x="942.24" y="161.5" >KSPSolve</text>
</g>
<g >
<title>Parloop_Cells_wrap_par_loop_kernel (32,967 us, 0.42%)</title><rect x="1184.7" y="167" width="5.0" height="15.0" fill="rgb(0,0,0)" rx="2" ry="2" />
<text  x="1187.73" y="177.5" ></text>
</g>
<g >
<title>firedrake.formmanipulation.ExtractSubBlock.split (3,283 us, 0.04%)</title><rect x="463.7" y="183" width="0.5" height="15.0" fill="rgb(0,0,0)" rx="2" ry="2" />
<text  x="466.68" y="193.5" ></text>
</g>
<g >
<title>firedrake.ufl_expr.action (5,479 us, 0.07%)</title><rect x="438.8" y="87" width="0.8" height="15.0" fill="rgb(0,0,0)" rx="2" ry="2" />
<text  x="441.76" y="97.5" ></text>
</g>
<g >
<title>Log_Event_subkernel33_interior_facet_vert_to__exterior_facet_vert_integral_otherwise (22,893 us, 0.29%)</title><rect x="918.0" y="215" width="3.4" height="15.0" fill="rgb(0,0,0)" rx="2" ry="2" />
<text  x="920.98" y="225.5" ></text>
</g>
<g >
<title>pyop2.global_kernel.GlobalKernel.compile (32,464 us, 0.41%)</title><rect x="453.7" y="183" width="4.9" height="15.0" fill="rgb(0,0,0)" rx="2" ry="2" />
<text  x="456.70" y="193.5" ></text>
</g>
<g >
<title>Log_Event_subkernel8_cell_to__cell_integral_otherwise (10,993 us, 0.14%)</title><rect x="791.9" y="263" width="1.7" height="15.0" fill="rgb(0,0,0)" rx="2" ry="2" />
<text  x="794.92" y="273.5" ></text>
</g>
<g >
<title>PCApply (4,731,000 us, 60.01%)</title><rect x="464.2" y="119" width="708.0" height="15.0" fill="rgb(0,0,0)" rx="2" ry="2" />
<text  x="467.17" y="129.5" >PCApply</text>
</g>
<g >
<title>CreateFunctionSpace (6,332 us, 0.08%)</title><rect x="205.1" y="103" width="1.0" height="15.0" fill="rgb(0,0,0)" rx="2" ry="2" />
<text  x="208.12" y="113.5" ></text>
</g>
<g >
<title>firedrake.ufl_expr.adjoint (3,193 us, 0.04%)</title><rect x="442.3" y="119" width="0.5" height="15.0" fill="rgb(0,0,0)" rx="2" ry="2" />
<text  x="445.28" y="129.5" ></text>
</g>
<g >
<title>CreateFunctionSpace (1,678 us, 0.02%)</title><rect x="1177.0" y="167" width="0.3" height="15.0" fill="rgb(0,0,0)" rx="2" ry="2" />
<text  x="1180.03" y="177.5" ></text>
</g>
<g >
<title>Log_Event_subkernel5_cell_to__cell_integral_otherwise (5,884 us, 0.07%)</title><rect x="790.4" y="263" width="0.9" height="15.0" fill="rgb(0,0,0)" rx="2" ry="2" />
<text  x="793.38" y="273.5" ></text>
</g>
<g >
<title>Log_Event_subkernel48_cell_to__cell_integral_otherwise (10,890 us, 0.14%)</title><rect x="812.7" y="263" width="1.7" height="15.0" fill="rgb(0,0,0)" rx="2" ry="2" />
<text  x="815.73" y="273.5" ></text>
</g>
<g >
<title>Log_Event_subkernel38_cell_to__cell_integral_otherwise (10,670 us, 0.14%)</title><rect x="802.9" y="231" width="1.6" height="15.0" fill="rgb(0,0,0)" rx="2" ry="2" />
<text  x="805.86" y="241.5" ></text>
</g>
<g >
<title>Log_Event_subkernel35_cell_to__cell_integral_otherwise (5,873 us, 0.07%)</title><rect x="801.3" y="231" width="0.9" height="15.0" fill="rgb(0,0,0)" rx="2" ry="2" />
<text  x="804.31" y="241.5" ></text>
</g>
<g >
<title>firedrake.functionspace.VectorFunctionSpace (6,332 us, 0.08%)</title><rect x="205.1" y="87" width="1.0" height="15.0" fill="rgb(0,0,0)" rx="2" ry="2" />
<text  x="208.12" y="97.5" ></text>
</g>
<g >
<title>Parloop_Cells_wrap_slate_loopy_knl_77 (4,417 us, 0.06%)</title><rect x="1171.6" y="215" width="0.6" height="15.0" fill="rgb(0,0,0)" rx="2" ry="2" />
<text  x="1174.58" y="225.5" ></text>
</g>
<g >
<title>Log_Event_subkernel30_cell_to__cell_integral_otherwise (4,532 us, 0.06%)</title><rect x="798.4" y="231" width="0.7" height="15.0" fill="rgb(0,0,0)" rx="2" ry="2" />
<text  x="801.38" y="241.5" ></text>
</g>
<g >
<title>Log_Event_subkernel13_cell_to__cell_integral_otherwise (11,615 us, 0.15%)</title><rect x="686.8" y="231" width="1.7" height="15.0" fill="rgb(0,0,0)" rx="2" ry="2" />
<text  x="689.75" y="241.5" ></text>
</g>
<g >
<title>firedrake.ufl_expr.adjoint (2,228 us, 0.03%)</title><rect x="1189.7" y="135" width="0.3" height="15.0" fill="rgb(0,0,0)" rx="2" ry="2" />
<text  x="1192.67" y="145.5" ></text>
</g>
<g >
<title>MatMult (1,554,719 us, 19.72%)</title><rect x="939.6" y="167" width="232.6" height="15.0" fill="rgb(0,0,0)" rx="2" ry="2" />
<text  x="942.55" y="177.5" >MatMult</text>
</g>
<g >
<title>Log_Event_tensorshell_knl_54 (625,386 us, 7.93%)</title><rect x="817.7" y="231" width="93.6" height="15.0" fill="rgb(0,0,0)" rx="2" ry="2" />
<text  x="820.69" y="241.5" >Log_Event_..</text>
</g>
<g >
<title>Log_Event_subkernel43_cell_to__cell_integral_otherwise (11,954 us, 0.15%)</title><rect x="814.4" y="247" width="1.7" height="15.0" fill="rgb(0,0,0)" rx="2" ry="2" />
<text  x="817.36" y="257.5" ></text>
</g>
<g >
<title>Log_Event_subkernel74_interior_facet_horiz_top_to__exterior_facet_top_integral_otherwise (2,891 us, 0.04%)</title><rect x="929.5" y="215" width="0.4" height="15.0" fill="rgb(0,0,0)" rx="2" ry="2" />
<text  x="932.49" y="225.5" ></text>
</g>
<g >
<title>HybridRHS (3,101,888 us, 39.34%)</title><rect x="475.0" y="151" width="464.2" height="15.0" fill="rgb(0,0,0)" rx="2" ry="2" />
<text  x="477.99" y="161.5" >HybridRHS</text>
</g>
<g >
<title>firedrake.formmanipulation.split_form (3,283 us, 0.04%)</title><rect x="463.7" y="167" width="0.5" height="15.0" fill="rgb(0,0,0)" rx="2" ry="2" />
<text  x="466.68" y="177.5" ></text>
</g>
<g >
<title>firedrake.functionspacedata.FunctionSpaceData.__init__ (1,678 us, 0.02%)</title><rect x="1177.0" y="215" width="0.3" height="15.0" fill="rgb(0,0,0)" rx="2" ry="2" />
<text  x="1180.03" y="225.5" ></text>
</g>
<g >
<title>firedrake.matrix_free.operators.ImplicitMatrixContext.__init__ (7,449 us, 0.09%)</title><rect x="441.6" y="103" width="1.2" height="15.0" fill="rgb(0,0,0)" rx="2" ry="2" />
<text  x="444.65" y="113.5" ></text>
</g>
<g >
<title>Log_Event_tensorshell_knl_61 (15,121 us, 0.19%)</title><rect x="865.6" y="263" width="2.2" height="15.0" fill="rgb(0,0,0)" rx="2" ry="2" />
<text  x="868.58" y="273.5" ></text>
</g>
<g >
<title>firedrake.functionspacedata.FunctionSpaceData.__init__ (6,332 us, 0.08%)</title><rect x="205.1" y="151" width="1.0" height="15.0" fill="rgb(0,0,0)" rx="2" ry="2" />
<text  x="208.12" y="161.5" ></text>
</g>
<g >
<title>CreateFunctionSpace (22,269 us, 0.28%)</title><rect x="206.1" y="71" width="3.3" height="15.0" fill="rgb(0,0,0)" rx="2" ry="2" />
<text  x="209.07" y="81.5" ></text>
</g>
<g >
<title>CreateMesh (1,508 us, 0.02%)</title><rect x="209.4" y="71" width="0.2" height="15.0" fill="rgb(0,0,0)" rx="2" ry="2" />
<text  x="212.41" y="81.5" ></text>
</g>
<g >
<title>pyop2.global_kernel.GlobalKernel.compile (39,606 us, 0.50%)</title><rect x="933.3" y="199" width="5.9" height="15.0" fill="rgb(0,0,0)" rx="2" ry="2" />
<text  x="936.31" y="209.5" ></text>
</g>
<g >
<title>firedrake.functionspace.MixedFunctionSpace (1,678 us, 0.02%)</title><rect x="1177.0" y="151" width="0.3" height="15.0" fill="rgb(0,0,0)" rx="2" ry="2" />
<text  x="1180.03" y="161.5" ></text>
</g>
<g >
<title>Log_Event_subkernel66_cell_to__cell_integral_otherwise (11,895 us, 0.15%)</title><rect x="923.0" y="215" width="1.8" height="15.0" fill="rgb(0,0,0)" rx="2" ry="2" />
<text  x="926.00" y="225.5" ></text>
</g>
<g >
<title>firedrake.functionspacedata.get_shared_data (1,678 us, 0.02%)</title><rect x="1177.0" y="199" width="0.3" height="15.0" fill="rgb(0,0,0)" rx="2" ry="2" />
<text  x="1180.03" y="209.5" ></text>
</g>
<g >
<title>firedrake.__init__ (1,529,185 us, 19.40%)</title><rect x="209.6" y="71" width="228.9" height="15.0" fill="rgb(0,0,0)" rx="2" ry="2" />
<text  x="212.63" y="81.5" >firedrake.__init__</text>
</g>
<g >
<title>firedrake.functionspacedata.get_shared_data (22,269 us, 0.28%)</title><rect x="206.1" y="103" width="3.3" height="15.0" fill="rgb(0,0,0)" rx="2" ry="2" />
<text  x="209.07" y="113.5" ></text>
</g>
<g >
<title>Log_Event_subkernel33_interior_facet_horiz_top_to__exterior_facet_top_integral_otherwise (2,956 us, 0.04%)</title><rect x="917.5" y="215" width="0.5" height="15.0" fill="rgb(0,0,0)" rx="2" ry="2" />
<text  x="920.54" y="225.5" ></text>
</g>
<g >
<title>Log_Event_subkernel60_cell_to__cell_integral_otherwise (144,532 us, 1.83%)</title><rect x="842.8" y="263" width="21.6" height="15.0" fill="rgb(0,0,0)" rx="2" ry="2" />
<text  x="845.77" y="273.5" ></text>
</g>
<g >
<title>Log_Event_subkernel74_interior_facet_vert_to__exterior_facet_vert_integral_otherwise (22,597 us, 0.29%)</title><rect x="929.9" y="215" width="3.4" height="15.0" fill="rgb(0,0,0)" rx="2" ry="2" />
<text  x="932.93" y="225.5" ></text>
</g>
<g >
<title>Log_Event_mtf_solve_16 (342,843 us, 4.35%)</title><rect x="692.7" y="247" width="51.3" height="15.0" fill="rgb(0,0,0)" rx="2" ry="2" />
<text  x="695.67" y="257.5" >Log_..</text>
</g>
<g >
<title>Log_Event_tensorshell_knl_64 (2,004 us, 0.03%)</title><rect x="911.3" y="231" width="0.3" height="15.0" fill="rgb(0,0,0)" rx="2" ry="2" />
<text  x="914.29" y="241.5" ></text>
</g>
<g >
<title>Log_Event_subkernel53_interior_facet_horiz_bottom_to__exterior_facet_bottom_integral_otherwise (1,927 us, 0.02%)</title><rect x="808.3" y="231" width="0.3" height="15.0" fill="rgb(0,0,0)" rx="2" ry="2" />
<text  x="811.32" y="241.5" ></text>
</g>
<g >
<title>FunctionSpaceData: CreateElement (10,156 us, 0.13%)</title><rect x="207.5" y="135" width="1.6" height="15.0" fill="rgb(0,0,0)" rx="2" ry="2" />
<text  x="210.53" y="145.5" ></text>
</g>
<g >
<title>firedrake.utility_meshes.SquareMesh (1,724 us, 0.02%)</title><rect x="438.5" y="71" width="0.3" height="15.0" fill="rgb(0,0,0)" rx="2" ry="2" />
<text  x="441.50" y="81.5" ></text>
</g>
<g >
<title>Log_Event_subkernel50_cell_to__cell_integral_otherwise (10,350 us, 0.13%)</title><rect x="816.1" y="247" width="1.6" height="15.0" fill="rgb(0,0,0)" rx="2" ry="2" />
<text  x="819.15" y="257.5" ></text>
</g>
<g >
<title>ParLoopExecute (6,861 us, 0.09%)</title><rect x="1171.2" y="199" width="1.0" height="15.0" fill="rgb(0,0,0)" rx="2" ry="2" />
<text  x="1174.21" y="209.5" ></text>
</g>
<g >
<title>firedrake (7,884,256 us, 100.00%)</title><rect x="10.0" y="55" width="1180.0" height="15.0" fill="rgb(0,0,0)" rx="2" ry="2" />
<text  x="13.00" y="65.5" >firedrake</text>
</g>
<g >
<title>firedrake.interpolation.make_interpolator (25,068 us, 0.32%)</title><rect x="1180.2" y="135" width="3.8" height="15.0" fill="rgb(0,0,0)" rx="2" ry="2" />
<text  x="1183.24" y="145.5" ></text>
</g>
<g >
<title>Log_Event_tensorshell_knl_2 (47,691 us, 0.60%)</title><rect x="789.8" y="231" width="7.1" height="15.0" fill="rgb(0,0,0)" rx="2" ry="2" />
<text  x="792.77" y="241.5" ></text>
</g>
<g >
<title>Log_Event_subkernel74_interior_facet_horiz_bottom_to__exterior_facet_bottom_integral_otherwise (2,865 us, 0.04%)</title><rect x="929.1" y="215" width="0.4" height="15.0" fill="rgb(0,0,0)" rx="2" ry="2" />
<text  x="932.07" y="225.5" ></text>
</g>
<g >
<title>Log_Event_mtf_solve_44 (26,135 us, 0.33%)</title><rect x="810.4" y="247" width="4.0" height="15.0" fill="rgb(0,0,0)" rx="2" ry="2" />
<text  x="813.45" y="257.5" ></text>
</g>
<g >
<title>firedrake.ufl_expr.adjoint (12,052 us, 0.15%)</title><rect x="439.8" y="103" width="1.8" height="15.0" fill="rgb(0,0,0)" rx="2" ry="2" />
<text  x="442.84" y="113.5" ></text>
</g>
<g >
<title>Parloop_Cells_wrap_par_loop_kernel (40,192 us, 0.51%)</title><rect x="469.0" y="199" width="6.0" height="15.0" fill="rgb(0,0,0)" rx="2" ry="2" />
<text  x="471.98" y="209.5" ></text>
</g>
<g >
<title>Log_Event_mtf_solve_41 (715,830 us, 9.08%)</title><rect x="804.5" y="215" width="107.1" height="15.0" fill="rgb(0,0,0)" rx="2" ry="2" />
<text  x="807.46" y="225.5" >Log_Event_m..</text>
</g>
<g >
<title>Log_Event_tensorshell_knl_58 (7,886 us, 0.10%)</title><rect x="864.4" y="263" width="1.2" height="15.0" fill="rgb(0,0,0)" rx="2" ry="2" />
<text  x="867.40" y="273.5" ></text>
</g>
<g >
<title>Log_Event_subkernel13_interior_facet_horiz_top_to__exterior_facet_top_integral_otherwise (1,973 us, 0.03%)</title><rect x="689.3" y="231" width="0.3" height="15.0" fill="rgb(0,0,0)" rx="2" ry="2" />
<text  x="692.30" y="241.5" ></text>
</g>
<g >
<title>CreateFunctionSpace (5,946 us, 0.08%)</title><rect x="1179.4" y="183" width="0.8" height="15.0" fill="rgb(0,0,0)" rx="2" ry="2" />
<text  x="1182.35" y="193.5" ></text>
</g>
<g >
<title>Log_Event_subkernel15_cell_to__cell_integral_otherwise (163,008 us, 2.07%)</title><rect x="744.0" y="247" width="24.4" height="15.0" fill="rgb(0,0,0)" rx="2" ry="2" />
<text  x="746.98" y="257.5" >L..</text>
</g>
<g >
<title>Log_Event_subkernel55_cell_to__cell_integral_otherwise (155,591 us, 1.97%)</title><rect x="867.8" y="247" width="23.3" height="15.0" fill="rgb(0,0,0)" rx="2" ry="2" />
<text  x="870.85" y="257.5" >L..</text>
</g>
<g >
<title>Log_Event_subkernel59_cell_to__cell_integral_otherwise (56,811 us, 0.72%)</title><rect x="834.3" y="263" width="8.5" height="15.0" fill="rgb(0,0,0)" rx="2" ry="2" />
<text  x="837.27" y="273.5" ></text>
</g>
<g >
<title>all (7,884,256 us, 100%)</title><rect x="10.0" y="39" width="1180.0" height="15.0" fill="rgb(0,0,0)" rx="2" ry="2" />
<text  x="13.00" y="49.5" ></text>
</g>
<g >
<title>firedrake.matrix_free.operators.ImplicitMatrixContext.mult (140,111 us, 1.78%)</title><rect x="443.2" y="135" width="21.0" height="15.0" fill="rgb(0,0,0)" rx="2" ry="2" />
<text  x="446.20" y="145.5" ></text>
</g>
<g >
<title>firedrake.extrusion_utils.make_extruded_coords (66,537 us, 0.84%)</title><rect x="195.2" y="87" width="9.9" height="15.0" fill="rgb(0,0,0)" rx="2" ry="2" />
<text  x="198.17" y="97.5" ></text>
</g>
<g >
<title>Log_Event_form1_cell_integral_otherwise (9,697 us, 0.12%)</title><rect x="452.3" y="183" width="1.4" height="15.0" fill="rgb(0,0,0)" rx="2" ry="2" />
<text  x="455.25" y="193.5" ></text>
</g>
<g >
<title>CreateFunctionSpace (9,179 us, 0.12%)</title><rect x="1177.0" y="135" width="1.4" height="15.0" fill="rgb(0,0,0)" rx="2" ry="2" />
<text  x="1180.03" y="145.5" ></text>
</g>
<g >
<title>firedrake.formmanipulation.split_form (12,273 us, 0.16%)</title><rect x="1178.4" y="135" width="1.8" height="15.0" fill="rgb(0,0,0)" rx="2" ry="2" />
<text  x="1181.40" y="145.5" ></text>
</g>
</g>
</svg>
