<?xml version="1.0" standalone="no"?>
<!DOCTYPE svg PUBLIC "-//W3C//DTD SVG 1.1//EN" "http://www.w3.org/Graphics/SVG/1.1/DTD/svg11.dtd">
<svg version="1.1" width="1200" height="347" onload="init(evt)" viewBox="0 0 1200 347" xmlns="http://www.w3.org/2000/svg" xmlns:xlink="http://www.w3.org/1999/xlink">
<!-- Flame graph stack visualization. See https://github.com/brendangregg/FlameGraph for latest version, and http://www.brendangregg.com/flamegraphs.html for examples. -->
<!-- NOTES:  -->
<defs>
	<linearGradient id="background" y1="0" y2="1" x1="0" x2="0" >
		<stop stop-color="#eeeeee" offset="5%" />
		<stop stop-color="#eeeeb0" offset="95%" />
	</linearGradient>
</defs>
<style type="text/css">
	text { font-family:Verdana; font-size:13px; fill:rgb(0,0,0); }
	#search, #ignorecase { opacity:0.1; cursor:pointer; }
	#search:hover, #search.show, #ignorecase:hover, #ignorecase.show { opacity:1; }
	#subtitle { text-anchor:middle; font-color:rgb(160,160,160); }
	#title { text-anchor:middle; font-size:18px}
	#unzoom { cursor:pointer; }
	#frames > *:hover { stroke:black; stroke-width:0.5; cursor:pointer; }
	.hide { display:none; }
	.parent { opacity:0.5; }
</style>
<script type="text/ecmascript">
<![CDATA[
	"use strict";
	var details, searchbtn, unzoombtn, matchedtxt, svg, searching, currentSearchTerm, ignorecase, ignorecaseBtn;
	function init(evt) {
		details = document.getElementById("details").firstChild;
		searchbtn = document.getElementById("search");
		ignorecaseBtn = document.getElementById("ignorecase");
		unzoombtn = document.getElementById("unzoom");
		matchedtxt = document.getElementById("matched");
		svg = document.getElementsByTagName("svg")[0];
		searching = 0;
		currentSearchTerm = null;

		// use GET parameters to restore a flamegraphs state.
		var params = get_params();
		if (params.x && params.y)
			zoom(find_group(document.querySelector('[x="' + params.x + '"][y="' + params.y + '"]')));
                if (params.s) search(params.s);
	}

	// event listeners
	window.addEventListener("click", function(e) {
		var target = find_group(e.target);
		if (target) {
			if (target.nodeName == "a") {
				if (e.ctrlKey === false) return;
				e.preventDefault();
			}
			if (target.classList.contains("parent")) unzoom();
			zoom(target);
			if (!document.querySelector('.parent')) {
				clearzoom();
				return;
			}

			// set parameters for zoom state
			var el = target.querySelector("rect");
			if (el && el.attributes && el.attributes.y && el.attributes._orig_x) {
				var params = get_params()
				params.x = el.attributes._orig_x.value;
				params.y = el.attributes.y.value;
				history.replaceState(null, null, parse_params(params));
			}
		}
		else if (e.target.id == "unzoom") clearzoom();
		else if (e.target.id == "search") search_prompt();
		else if (e.target.id == "ignorecase") toggle_ignorecase();
	}, false)

	// mouse-over for info
	// show
	window.addEventListener("mouseover", function(e) {
		var target = find_group(e.target);
		if (target) details.nodeValue = "Function: " + g_to_text(target);
	}, false)

	// clear
	window.addEventListener("mouseout", function(e) {
		var target = find_group(e.target);
		if (target) details.nodeValue = ' ';
	}, false)

	// ctrl-F for search
	// ctrl-I to toggle case-sensitive search
	window.addEventListener("keydown",function (e) {
		if (e.keyCode === 114 || (e.ctrlKey && e.keyCode === 70)) {
			e.preventDefault();
			search_prompt();
		}
		else if (e.ctrlKey && e.keyCode === 73) {
			e.preventDefault();
			toggle_ignorecase();
		}
	}, false)

	// functions
	function get_params() {
		var params = {};
		var paramsarr = window.location.search.substr(1).split('&');
		for (var i = 0; i < paramsarr.length; ++i) {
			var tmp = paramsarr[i].split("=");
			if (!tmp[0] || !tmp[1]) continue;
			params[tmp[0]]  = decodeURIComponent(tmp[1]);
		}
		return params;
	}
	function parse_params(params) {
		var uri = "?";
		for (var key in params) {
			uri += key + '=' + encodeURIComponent(params[key]) + '&';
		}
		if (uri.slice(-1) == "&")
			uri = uri.substring(0, uri.length - 1);
		if (uri == '?')
			uri = window.location.href.split('?')[0];
		return uri;
	}
	function find_child(node, selector) {
		var children = node.querySelectorAll(selector);
		if (children.length) return children[0];
	}
	function find_group(node) {
		var parent = node.parentElement;
		if (!parent) return;
		if (parent.id == "frames") return node;
		return find_group(parent);
	}
	function orig_save(e, attr, val) {
		if (e.attributes["_orig_" + attr] != undefined) return;
		if (e.attributes[attr] == undefined) return;
		if (val == undefined) val = e.attributes[attr].value;
		e.setAttribute("_orig_" + attr, val);
	}
	function orig_load(e, attr) {
		if (e.attributes["_orig_"+attr] == undefined) return;
		e.attributes[attr].value = e.attributes["_orig_" + attr].value;
		e.removeAttribute("_orig_"+attr);
	}
	function g_to_text(e) {
		var text = find_child(e, "title").firstChild.nodeValue;
		return (text)
	}
	function g_to_func(e) {
		var func = g_to_text(e);
		// if there's any manipulation we want to do to the function
		// name before it's searched, do it here before returning.
		return (func);
	}
	function update_text(e) {
		var r = find_child(e, "rect");
		var t = find_child(e, "text");
		var w = parseFloat(r.attributes.width.value) -3;
		var txt = find_child(e, "title").textContent.replace(/\([^(]*\)$/,"");
		t.attributes.x.value = parseFloat(r.attributes.x.value) + 3;

		// Smaller than this size won't fit anything
		if (w < 2 * 13 * 0.59) {
			t.textContent = "";
			return;
		}

		t.textContent = txt;
		// Fit in full text width
		if (/^ *$/.test(txt) || t.getSubStringLength(0, txt.length) < w)
			return;

		for (var x = txt.length - 2; x > 0; x--) {
			if (t.getSubStringLength(0, x + 2) <= w) {
				t.textContent = txt.substring(0, x) + "..";
				return;
			}
		}
		t.textContent = "";
	}

	// zoom
	function zoom_reset(e) {
		if (e.attributes != undefined) {
			orig_load(e, "x");
			orig_load(e, "width");
		}
		if (e.childNodes == undefined) return;
		for (var i = 0, c = e.childNodes; i < c.length; i++) {
			zoom_reset(c[i]);
		}
	}
	function zoom_child(e, x, ratio) {
		if (e.attributes != undefined) {
			if (e.attributes.x != undefined) {
				orig_save(e, "x");
				e.attributes.x.value = (parseFloat(e.attributes.x.value) - x - 10) * ratio + 10;
				if (e.tagName == "text")
					e.attributes.x.value = find_child(e.parentNode, "rect[x]").attributes.x.value + 3;
			}
			if (e.attributes.width != undefined) {
				orig_save(e, "width");
				e.attributes.width.value = parseFloat(e.attributes.width.value) * ratio;
			}
		}

		if (e.childNodes == undefined) return;
		for (var i = 0, c = e.childNodes; i < c.length; i++) {
			zoom_child(c[i], x - 10, ratio);
		}
	}
	function zoom_parent(e) {
		if (e.attributes) {
			if (e.attributes.x != undefined) {
				orig_save(e, "x");
				e.attributes.x.value = 10;
			}
			if (e.attributes.width != undefined) {
				orig_save(e, "width");
				e.attributes.width.value = parseInt(svg.width.baseVal.value) - (10 * 2);
			}
		}
		if (e.childNodes == undefined) return;
		for (var i = 0, c = e.childNodes; i < c.length; i++) {
			zoom_parent(c[i]);
		}
	}
	function zoom(node) {
		var attr = find_child(node, "rect").attributes;
		var width = parseFloat(attr.width.value);
		var xmin = parseFloat(attr.x.value);
		var xmax = parseFloat(xmin + width);
		var ymin = parseFloat(attr.y.value);
		var ratio = (svg.width.baseVal.value - 2 * 10) / width;

		// XXX: Workaround for JavaScript float issues (fix me)
		var fudge = 0.0001;

		unzoombtn.classList.remove("hide");

		var el = document.getElementById("frames").children;
		for (var i = 0; i < el.length; i++) {
			var e = el[i];
			var a = find_child(e, "rect").attributes;
			var ex = parseFloat(a.x.value);
			var ew = parseFloat(a.width.value);
			var upstack;
			// Is it an ancestor
			if (1 == 0) {
				upstack = parseFloat(a.y.value) > ymin;
			} else {
				upstack = parseFloat(a.y.value) < ymin;
			}
			if (upstack) {
				// Direct ancestor
				if (ex <= xmin && (ex+ew+fudge) >= xmax) {
					e.classList.add("parent");
					zoom_parent(e);
					update_text(e);
				}
				// not in current path
				else
					e.classList.add("hide");
			}
			// Children maybe
			else {
				// no common path
				if (ex < xmin || ex + fudge >= xmax) {
					e.classList.add("hide");
				}
				else {
					zoom_child(e, xmin, ratio);
					update_text(e);
				}
			}
		}
		search();
	}
	function unzoom() {
		unzoombtn.classList.add("hide");
		var el = document.getElementById("frames").children;
		for(var i = 0; i < el.length; i++) {
			el[i].classList.remove("parent");
			el[i].classList.remove("hide");
			zoom_reset(el[i]);
			update_text(el[i]);
		}
		search();
	}
	function clearzoom() {
		unzoom();

		// remove zoom state
		var params = get_params();
		if (params.x) delete params.x;
		if (params.y) delete params.y;
		history.replaceState(null, null, parse_params(params));
	}

	// search
	function toggle_ignorecase() {
		ignorecase = !ignorecase;
		if (ignorecase) {
			ignorecaseBtn.classList.add("show");
		} else {
			ignorecaseBtn.classList.remove("show");
		}
		reset_search();
		search();
	}
	function reset_search() {
		var el = document.querySelectorAll("#frames rect");
		for (var i = 0; i < el.length; i++) {
			orig_load(el[i], "fill")
		}
		var params = get_params();
		delete params.s;
		history.replaceState(null, null, parse_params(params));
	}
	function search_prompt() {
		if (!searching) {
			var term = prompt("Enter a search term (regexp " +
			    "allowed, eg: ^ext4_)"
			    + (ignorecase ? ", ignoring case" : "")
			    + "\nPress Ctrl-i to toggle case sensitivity", "");
			if (term != null) search(term);
		} else {
			reset_search();
			searching = 0;
			currentSearchTerm = null;
			searchbtn.classList.remove("show");
			searchbtn.firstChild.nodeValue = "Search"
			matchedtxt.classList.add("hide");
			matchedtxt.firstChild.nodeValue = ""
		}
	}
	function search(term) {
		if (term) currentSearchTerm = term;

		var re = new RegExp(currentSearchTerm, ignorecase ? 'i' : '');
		var el = document.getElementById("frames").children;
		var matches = new Object();
		var maxwidth = 0;
		for (var i = 0; i < el.length; i++) {
			var e = el[i];
			var func = g_to_func(e);
			var rect = find_child(e, "rect");
			if (func == null || rect == null)
				continue;

			// Save max width. Only works as we have a root frame
			var w = parseFloat(rect.attributes.width.value);
			if (w > maxwidth)
				maxwidth = w;

			if (func.match(re)) {
				// highlight
				var x = parseFloat(rect.attributes.x.value);
				orig_save(rect, "fill");
				rect.attributes.fill.value = "rgb(230,0,230)";

				// remember matches
				if (matches[x] == undefined) {
					matches[x] = w;
				} else {
					if (w > matches[x]) {
						// overwrite with parent
						matches[x] = w;
					}
				}
				searching = 1;
			}
		}
		if (!searching)
			return;
		var params = get_params();
		params.s = currentSearchTerm;
		history.replaceState(null, null, parse_params(params));

		searchbtn.classList.add("show");
		searchbtn.firstChild.nodeValue = "Reset Search";

		// calculate percent matched, excluding vertical overlap
		var count = 0;
		var lastx = -1;
		var lastw = 0;
		var keys = Array();
		for (k in matches) {
			if (matches.hasOwnProperty(k))
				keys.push(k);
		}
		// sort the matched frames by their x location
		// ascending, then width descending
		keys.sort(function(a, b){
			return a - b;
		});
		// Step through frames saving only the biggest bottom-up frames
		// thanks to the sort order. This relies on the tree property
		// where children are always smaller than their parents.
		var fudge = 0.0001;	// JavaScript floating point
		for (var k in keys) {
			var x = parseFloat(keys[k]);
			var w = matches[keys[k]];
			if (x >= lastx + lastw - fudge) {
				count += w;
				lastx = x;
				lastw = w;
			}
		}
		// display matched percent
		matchedtxt.classList.remove("hide");
		var pct = 100 * count / maxwidth;
		if (pct != 100) pct = pct.toFixed(1)
		matchedtxt.firstChild.nodeValue = "Matched: " + pct + "%";
	}
]]>
</script>
<rect x="0.0" y="0" width="1200.0" height="347.0" fill="url(#background)"  />
<text id="title" x="600.00" y="26" >Firedrake example</text>
<text id="details" x="10.00" y="329" > </text>
<text id="unzoom" x="10.00" y="26" class="hide">Reset Zoom</text>
<text id="search" x="1090.00" y="26" >Search</text>
<text id="ignorecase" x="1174.00" y="26" >ic</text>
<text id="matched" x="1090.00" y="329" > </text>
<g id="frames">
<g >
<title>Log_Event_slate_loopy_knl_77 (1,109,647 us, 0.21%)</title><rect x="834.2" y="231" width="2.5" height="15.0" fill="rgb(0,0,0)" rx="2" ry="2" />
<text  x="837.22" y="241.5" ></text>
</g>
<g >
<title>pyop2.global_kernel.GlobalKernel.compile (896,692 us, 0.17%)</title><rect x="445.1" y="215" width="2.0" height="15.0" fill="rgb(0,0,0)" rx="2" ry="2" />
<text  x="448.10" y="225.5" ></text>
</g>
<g >
<title>Parloop_Cells_wrap_form_cell_integral_otherwise (13,796,632 us, 2.65%)</title><rect x="157.5" y="135" width="31.3" height="15.0" fill="rgb(0,0,0)" rx="2" ry="2" />
<text  x="160.52" y="145.5" >Pa..</text>
</g>
<g >
<title>pyop2.global_kernel.GlobalKernel.compile (398,552 us, 0.08%)</title><rect x="44.1" y="151" width="0.9" height="15.0" fill="rgb(0,0,0)" rx="2" ry="2" />
<text  x="47.14" y="161.5" ></text>
</g>
<g >
<title>Log_Event_subkernel15_cell_to__cell_integral_otherwise (160,002 us, 0.03%)</title><rect x="485.5" y="247" width="0.4" height="15.0" fill="rgb(0,0,0)" rx="2" ry="2" />
<text  x="488.49" y="257.5" ></text>
</g>
<g >
<title>firedrake.tsfc_interface.compile_form (1,506,154 us, 0.29%)</title><rect x="188.8" y="119" width="3.4" height="15.0" fill="rgb(0,0,0)" rx="2" ry="2" />
<text  x="191.80" y="129.5" ></text>
</g>
<g >
<title>ParLoopExecute (13,454,012 us, 2.58%)</title><rect x="221.0" y="151" width="30.5" height="15.0" fill="rgb(0,0,0)" rx="2" ry="2" />
<text  x="224.02" y="161.5" >P..</text>
</g>
<g >
<title>pyop2.global_kernel.GlobalKernel.compile (3,970,221 us, 0.76%)</title><rect x="1177.5" y="151" width="9.0" height="15.0" fill="rgb(0,0,0)" rx="2" ry="2" />
<text  x="1180.55" y="161.5" ></text>
</g>
<g >
<title>Parloop_Cells_wrap_slate_loopy_knl_0 (110,144,326 us, 21.16%)</title><rect x="483.9" y="183" width="249.7" height="15.0" fill="rgb(0,0,0)" rx="2" ry="2" />
<text  x="486.92" y="193.5" >Parloop_Cells_wrap_slate_loopy..</text>
</g>
<g >
<title>pyop2.global_kernel.GlobalKernel.compile (5,108,724 us, 0.98%)</title><rect x="202.1" y="183" width="11.6" height="15.0" fill="rgb(0,0,0)" rx="2" ry="2" />
<text  x="205.15" y="193.5" ></text>
</g>
<g >
<title>Log_Event_subkernel189_cell_to__cell_integral_otherwise (75,842 us, 0.01%)</title><rect x="271.5" y="263" width="0.1" height="15.0" fill="rgb(0,0,0)" rx="2" ry="2" />
<text  x="274.46" y="273.5" ></text>
</g>
<g >
<title>ParLoopExecute (115,912,319 us, 22.27%)</title><rect x="834.2" y="199" width="262.8" height="15.0" fill="rgb(0,0,0)" rx="2" ry="2" />
<text  x="837.22" y="209.5" >ParLoopExecute</text>
</g>
<g >
<title>Parloop_Cells_wrap_form00_cell_integral_otherwise (16,038,151 us, 3.08%)</title><rect x="83.7" y="135" width="36.4" height="15.0" fill="rgb(0,0,0)" rx="2" ry="2" />
<text  x="86.70" y="145.5" >Pa..</text>
</g>
<g >
<title>firedrake.tsfc_interface.compile_form (28,154,376 us, 5.41%)</title><rect x="733.6" y="167" width="63.9" height="15.0" fill="rgb(0,0,0)" rx="2" ry="2" />
<text  x="736.63" y="177.5" >firedr..</text>
</g>
<g >
<title>pyop2.global_kernel.GlobalKernel.compile (3,113,980 us, 0.60%)</title><rect x="76.6" y="135" width="7.1" height="15.0" fill="rgb(0,0,0)" rx="2" ry="2" />
<text  x="79.64" y="145.5" ></text>
</g>
<g >
<title>Parloop_Cells_wrap_form0_exterior_facet_bottom_integral_otherwise (1,411,928 us, 0.27%)</title><rect x="59.6" y="119" width="3.2" height="15.0" fill="rgb(0,0,0)" rx="2" ry="2" />
<text  x="62.63" y="129.5" ></text>
</g>
<g >
<title>CreateSparsity (134,564 us, 0.03%)</title><rect x="147.4" y="135" width="0.3" height="15.0" fill="rgb(0,0,0)" rx="2" ry="2" />
<text  x="150.38" y="145.5" ></text>
</g>
<g >
<title>MatCholFctrNum (61,633 us, 0.01%)</title><rect x="152.8" y="151" width="0.1" height="15.0" fill="rgb(0,0,0)" rx="2" ry="2" />
<text  x="155.79" y="161.5" ></text>
</g>
<g >
<title>pyop2.global_kernel.GlobalKernel.compile (3,300,588 us, 0.63%)</title><rect x="132.4" y="151" width="7.5" height="15.0" fill="rgb(0,0,0)" rx="2" ry="2" />
<text  x="135.40" y="161.5" ></text>
</g>
<g >
<title>pyop2.global_kernel.GlobalKernel.compile (4,379,525 us, 0.84%)</title><rect x="192.2" y="183" width="9.9" height="15.0" fill="rgb(0,0,0)" rx="2" ry="2" />
<text  x="195.22" y="193.5" ></text>
</g>
<g >
<title>pyop2.global_kernel.GlobalKernel.compile (57,748,480 us, 11.10%)</title><rect x="272.8" y="199" width="130.9" height="15.0" fill="rgb(0,0,0)" rx="2" ry="2" />
<text  x="275.78" y="209.5" >pyop2.global_ke..</text>
</g>
<g >
<title>ParLoopExecute (58,608,266 us, 11.26%)</title><rect x="270.8" y="167" width="132.9" height="15.0" fill="rgb(0,0,0)" rx="2" ry="2" />
<text  x="273.83" y="177.5" >ParLoopExecute</text>
</g>
<g >
<title>firedrake.parloops.par_loop (659,971 us, 0.13%)</title><rect x="1166.3" y="135" width="1.5" height="15.0" fill="rgb(0,0,0)" rx="2" ry="2" />
<text  x="1169.33" y="145.5" ></text>
</g>
<g >
<title>Log_Event_subkernel138_cell_to__cell_integral_otherwise (57,181 us, 0.01%)</title><rect x="835.3" y="295" width="0.1" height="15.0" fill="rgb(0,0,0)" rx="2" ry="2" />
<text  x="838.32" y="305.5" ></text>
</g>
<g >
<title>Log_Event_mtf_solve_56 (270,441 us, 0.05%)</title><rect x="486.4" y="247" width="0.6" height="15.0" fill="rgb(0,0,0)" rx="2" ry="2" />
<text  x="489.42" y="257.5" ></text>
</g>
<g >
<title>Log_Event_slate_loopy_knl_156 (859,786 us, 0.17%)</title><rect x="270.8" y="199" width="2.0" height="15.0" fill="rgb(0,0,0)" rx="2" ry="2" />
<text  x="273.83" y="209.5" ></text>
</g>
<g >
<title>ParLoopExecute (659,971 us, 0.13%)</title><rect x="1166.3" y="151" width="1.5" height="15.0" fill="rgb(0,0,0)" rx="2" ry="2" />
<text  x="1169.33" y="161.5" ></text>
</g>
<g >
<title>pyop2.global_kernel.GlobalKernel.compile (659,971 us, 0.13%)</title><rect x="1166.3" y="183" width="1.5" height="15.0" fill="rgb(0,0,0)" rx="2" ry="2" />
<text  x="1169.33" y="193.5" ></text>
</g>
<g >
<title>Parloop_ExtFacets_wrap_form00_exterior_facet_vert_integral_otherwise (3,300,588 us, 0.63%)</title><rect x="132.4" y="135" width="7.5" height="15.0" fill="rgb(0,0,0)" rx="2" ry="2" />
<text  x="135.40" y="145.5" ></text>
</g>
<g >
<title>Parloop_Cells_wrap_slate_loopy_knl_199 (13,454,012 us, 2.58%)</title><rect x="221.0" y="167" width="30.5" height="15.0" fill="rgb(0,0,0)" rx="2" ry="2" />
<text  x="224.02" y="177.5" >P..</text>
</g>
<g >
<title>Log_Event_subkernel62_cell_to__cell_integral_otherwise (152,131 us, 0.03%)</title><rect x="487.4" y="247" width="0.3" height="15.0" fill="rgb(0,0,0)" rx="2" ry="2" />
<text  x="490.38" y="257.5" ></text>
</g>
<g >
<title>Log_Event_slate_loopy_knl_199 (94,542 us, 0.02%)</title><rect x="221.0" y="183" width="0.2" height="15.0" fill="rgb(0,0,0)" rx="2" ry="2" />
<text  x="224.02" y="193.5" ></text>
</g>
<g >
<title>HybridBreak (896,692 us, 0.17%)</title><rect x="445.1" y="151" width="2.0" height="15.0" fill="rgb(0,0,0)" rx="2" ry="2" />
<text  x="448.10" y="161.5" ></text>
</g>
<g >
<title>firedrake.assemble.assemble (15,302,786 us, 2.94%)</title><rect x="157.5" y="103" width="34.7" height="15.0" fill="rgb(0,0,0)" rx="2" ry="2" />
<text  x="160.52" y="113.5" >fi..</text>
</g>
<g >
<title>pyop2.global_kernel.GlobalKernel.compile (2,788,022 us, 0.54%)</title><rect x="37.0" y="119" width="6.3" height="15.0" fill="rgb(0,0,0)" rx="2" ry="2" />
<text  x="39.99" y="129.5" ></text>
</g>
<g >
<title>Parloop_IntFacets_wrap_form0_interior_facet_vert_integral_otherwise (3,113,980 us, 0.60%)</title><rect x="76.6" y="119" width="7.1" height="15.0" fill="rgb(0,0,0)" rx="2" ry="2" />
<text  x="79.64" y="129.5" ></text>
</g>
<g >
<title>Log_Event_subkernel57_cell_to__cell_integral_otherwise (72,216 us, 0.01%)</title><rect x="486.4" y="263" width="0.2" height="15.0" fill="rgb(0,0,0)" rx="2" ry="2" />
<text  x="489.42" y="273.5" ></text>
</g>
<g >
<title>pyop2.global_kernel.GlobalKernel.compile (1,776,561 us, 0.34%)</title><rect x="120.1" y="151" width="4.0" height="15.0" fill="rgb(0,0,0)" rx="2" ry="2" />
<text  x="123.06" y="161.5" ></text>
</g>
<g >
<title>Log_Event_tensorshell_knl_186 (635,786 us, 0.12%)</title><rect x="271.3" y="231" width="1.5" height="15.0" fill="rgb(0,0,0)" rx="2" ry="2" />
<text  x="274.34" y="241.5" ></text>
</g>
<g >
<title>Log_Event_subkernel191_cell_to__cell_integral_otherwise (62,014 us, 0.01%)</title><rect x="271.6" y="263" width="0.2" height="15.0" fill="rgb(0,0,0)" rx="2" ry="2" />
<text  x="274.63" y="273.5" ></text>
</g>
<g >
<title>pyop2.global_kernel.GlobalKernel.compile (1,510,524 us, 0.29%)</title><rect x="27.4" y="119" width="3.4" height="15.0" fill="rgb(0,0,0)" rx="2" ry="2" />
<text  x="30.36" y="129.5" ></text>
</g>
<g >
<title>pyop2.global_kernel.GlobalKernel.compile (364,643 us, 0.07%)</title><rect x="43.3" y="151" width="0.8" height="15.0" fill="rgb(0,0,0)" rx="2" ry="2" />
<text  x="46.31" y="161.5" ></text>
</g>
<g >
<title>Parloop_Cells_wrap_form1_cell_integral_otherwise (5,108,724 us, 0.98%)</title><rect x="202.1" y="167" width="11.6" height="15.0" fill="rgb(0,0,0)" rx="2" ry="2" />
<text  x="205.15" y="177.5" ></text>
</g>
<g >
<title>firedrake.tsfc_interface.compile_form (1,170,032 us, 0.22%)</title><rect x="213.7" y="151" width="2.7" height="15.0" fill="rgb(0,0,0)" rx="2" ry="2" />
<text  x="216.73" y="161.5" ></text>
</g>
<g >
<title>Log_Event_mtf_solve_173 (726,096 us, 0.14%)</title><rect x="271.1" y="215" width="1.7" height="15.0" fill="rgb(0,0,0)" rx="2" ry="2" />
<text  x="274.13" y="225.5" ></text>
</g>
<g >
<title>firedrake.tsfc_interface.compile_form (15,566,230 us, 2.99%)</title><rect x="403.7" y="167" width="35.3" height="15.0" fill="rgb(0,0,0)" rx="2" ry="2" />
<text  x="406.70" y="177.5" >fi..</text>
</g>
<g >
<title>firedrake.tsfc_interface.compile_form (30,489,583 us, 5.86%)</title><rect x="1097.0" y="199" width="69.1" height="15.0" fill="rgb(0,0,0)" rx="2" ry="2" />
<text  x="1100.01" y="209.5" >firedra..</text>
</g>
<g >
<title>ParLoopExecute (13,796,632 us, 2.65%)</title><rect x="157.5" y="119" width="31.3" height="15.0" fill="rgb(0,0,0)" rx="2" ry="2" />
<text  x="160.52" y="129.5" >Pa..</text>
</g>
<g >
<title>firedrake.tsfc_interface.compile_form (2,691,621 us, 0.52%)</title><rect x="439.0" y="151" width="6.1" height="15.0" fill="rgb(0,0,0)" rx="2" ry="2" />
<text  x="441.99" y="161.5" ></text>
</g>
<g >
<title>pyop2.global_kernel.GlobalKernel.compile (2,734,388 us, 0.53%)</title><rect x="30.8" y="119" width="6.2" height="15.0" fill="rgb(0,0,0)" rx="2" ry="2" />
<text  x="33.79" y="129.5" ></text>
</g>
<g >
<title>firedrake.extrusion_utils.make_extruded_coords (934,843 us, 0.18%)</title><rect x="14.1" y="87" width="2.1" height="15.0" fill="rgb(0,0,0)" rx="2" ry="2" />
<text  x="17.06" y="97.5" ></text>
</g>
<g >
<title>Log_Event_subkernel139_cell_to__cell_integral_otherwise (151,142 us, 0.03%)</title><rect x="835.4" y="295" width="0.4" height="15.0" fill="rgb(0,0,0)" rx="2" ry="2" />
<text  x="838.45" y="305.5" ></text>
</g>
<g >
<title>firedrake.linear_solver.LinearSolver.solve (61,633 us, 0.01%)</title><rect x="152.8" y="103" width="0.1" height="15.0" fill="rgb(0,0,0)" rx="2" ry="2" />
<text  x="155.79" y="113.5" ></text>
</g>
<g >
<title>Parloop_Cells_wrap_form00_exterior_facet_bottom_integral_otherwise (1,776,561 us, 0.34%)</title><rect x="120.1" y="135" width="4.0" height="15.0" fill="rgb(0,0,0)" rx="2" ry="2" />
<text  x="123.06" y="145.5" ></text>
</g>
<g >
<title>firedrake (520,480,623 us, 100.00%)</title><rect x="10.0" y="55" width="1180.0" height="15.0" fill="rgb(0,0,0)" rx="2" ry="2" />
<text  x="13.00" y="65.5" >firedrake</text>
</g>
<g >
<title>Log_Event_mtf_solve_41 (664,742 us, 0.13%)</title><rect x="486.2" y="215" width="1.5" height="15.0" fill="rgb(0,0,0)" rx="2" ry="2" />
<text  x="489.22" y="225.5" ></text>
</g>
<g >
<title>pyop2.global_kernel.GlobalKernel.compile (1,411,928 us, 0.27%)</title><rect x="59.6" y="135" width="3.2" height="15.0" fill="rgb(0,0,0)" rx="2" ry="2" />
<text  x="62.63" y="145.5" ></text>
</g>
<g >
<title>Parloop_Cells_wrap_form0_cell_integral_otherwise (4,379,525 us, 0.84%)</title><rect x="192.2" y="167" width="9.9" height="15.0" fill="rgb(0,0,0)" rx="2" ry="2" />
<text  x="195.22" y="177.5" ></text>
</g>
<g >
<title>Log_Event_mtf_solve_79 (114,826 us, 0.02%)</title><rect x="836.5" y="247" width="0.2" height="15.0" fill="rgb(0,0,0)" rx="2" ry="2" />
<text  x="839.47" y="257.5" ></text>
</g>
<g >
<title>ParLoopExecute (15,199,400 us, 2.92%)</title><rect x="49.2" y="103" width="34.5" height="15.0" fill="rgb(0,0,0)" rx="2" ry="2" />
<text  x="52.24" y="113.5" >Pa..</text>
</g>
<g >
<title>ParLoopExecute (110,144,326 us, 21.16%)</title><rect x="483.9" y="167" width="249.7" height="15.0" fill="rgb(0,0,0)" rx="2" ry="2" />
<text  x="486.92" y="177.5" >ParLoopExecute</text>
</g>
<g >
<title>Parloop_set_#x7face3846ce0_wrap_expression_kernel (398,552 us, 0.08%)</title><rect x="44.1" y="135" width="0.9" height="15.0" fill="rgb(0,0,0)" rx="2" ry="2" />
<text  x="47.14" y="145.5" ></text>
</g>
<g >
<title>Parloop_Cells_wrap_form0_cell_integral_otherwise (4,582,933 us, 0.88%)</title><rect x="49.2" y="119" width="10.4" height="15.0" fill="rgb(0,0,0)" rx="2" ry="2" />
<text  x="52.24" y="129.5" ></text>
</g>
<g >
<title>pyop2.global_kernel.GlobalKernel.compile (1,404,327 us, 0.27%)</title><rect x="62.8" y="135" width="3.2" height="15.0" fill="rgb(0,0,0)" rx="2" ry="2" />
<text  x="65.83" y="145.5" ></text>
</g>
<g >
<title>firedrake.norms.norm (15,302,786 us, 2.94%)</title><rect x="157.5" y="87" width="34.7" height="15.0" fill="rgb(0,0,0)" rx="2" ry="2" />
<text  x="160.52" y="97.5" >fi..</text>
</g>
<g >
<title>Parloop_Cells_wrap_slate_loopy_knl_156 (58,608,266 us, 11.26%)</title><rect x="270.8" y="183" width="132.9" height="15.0" fill="rgb(0,0,0)" rx="2" ry="2" />
<text  x="273.83" y="193.5" >Parloop_Cells_w..</text>
</g>
<g >
<title>pyop2.global_kernel.GlobalKernel.compile (2,685,050 us, 0.52%)</title><rect x="70.6" y="135" width="6.0" height="15.0" fill="rgb(0,0,0)" rx="2" ry="2" />
<text  x="73.55" y="145.5" ></text>
</g>
<g >
<title>pyop2.global_kernel.GlobalKernel.compile (4,286,920 us, 0.82%)</title><rect x="1167.8" y="151" width="9.7" height="15.0" fill="rgb(0,0,0)" rx="2" ry="2" />
<text  x="1170.83" y="161.5" ></text>
</g>
<g >
<title>Log_Event_tensorshell_knl_54 (575,001 us, 0.11%)</title><rect x="486.4" y="231" width="1.3" height="15.0" fill="rgb(0,0,0)" rx="2" ry="2" />
<text  x="489.42" y="241.5" ></text>
</g>
<g >
<title>HybridProject (859,582 us, 0.17%)</title><rect x="219.1" y="151" width="1.9" height="15.0" fill="rgb(0,0,0)" rx="2" ry="2" />
<text  x="222.07" y="161.5" ></text>
</g>
<g >
<title>pyop2.global_kernel.GlobalKernel.compile (934,843 us, 0.18%)</title><rect x="14.1" y="135" width="2.1" height="15.0" fill="rgb(0,0,0)" rx="2" ry="2" />
<text  x="17.06" y="145.5" ></text>
</g>
<g >
<title>Log_Event_subkernel22_cell_to__cell_integral_otherwise (159,667 us, 0.03%)</title><rect x="485.9" y="247" width="0.3" height="15.0" fill="rgb(0,0,0)" rx="2" ry="2" />
<text  x="488.86" y="257.5" ></text>
</g>
<g >
<title>Parloop_Cells_wrap_form_exterior_facet_top_integral_otherwise (1,438,723 us, 0.28%)</title><rect x="24.1" y="103" width="3.3" height="15.0" fill="rgb(0,0,0)" rx="2" ry="2" />
<text  x="27.10" y="113.5" ></text>
</g>
<g >
<title>Log_Event_subkernel136_cell_to__cell_integral_otherwise (80,453 us, 0.02%)</title><rect x="835.1" y="295" width="0.2" height="15.0" fill="rgb(0,0,0)" rx="2" ry="2" />
<text  x="838.14" y="305.5" ></text>
</g>
<g >
<title>Parloop_IntFacets_wrap_form_interior_facet_vert_integral_otherwise (2,788,022 us, 0.54%)</title><rect x="37.0" y="103" width="6.3" height="15.0" fill="rgb(0,0,0)" rx="2" ry="2" />
<text  x="39.99" y="113.5" ></text>
</g>
<g >
<title>Log_Event_subkernel55_cell_to__cell_integral_otherwise (152,429 us, 0.03%)</title><rect x="487.0" y="247" width="0.4" height="15.0" fill="rgb(0,0,0)" rx="2" ry="2" />
<text  x="490.03" y="257.5" ></text>
</g>
<g >
<title>firedrake.assemble.allocate_matrix (213,009 us, 0.04%)</title><rect x="147.4" y="119" width="0.5" height="15.0" fill="rgb(0,0,0)" rx="2" ry="2" />
<text  x="150.38" y="129.5" ></text>
</g>
<g >
<title>firedrake.tsfc_interface.compile_form (1,522,942 us, 0.29%)</title><rect x="1186.5" y="119" width="3.5" height="15.0" fill="rgb(0,0,0)" rx="2" ry="2" />
<text  x="1189.55" y="129.5" ></text>
</g>
<g >
<title>pyop2.global_kernel.GlobalKernel.compile (114,802,672 us, 22.06%)</title><rect x="836.7" y="231" width="260.3" height="15.0" fill="rgb(0,0,0)" rx="2" ry="2" />
<text  x="839.73" y="241.5" >pyop2.global_kernel.GlobalKerne..</text>
</g>
<g >
<title>PCApply (418,919,966 us, 80.49%)</title><rect x="216.4" y="119" width="949.7" height="15.0" fill="rgb(0,0,0)" rx="2" ry="2" />
<text  x="219.38" y="129.5" >PCApply</text>
</g>
<g >
<title>pyop2.global_kernel.GlobalKernel.compile (1,438,723 us, 0.28%)</title><rect x="24.1" y="119" width="3.3" height="15.0" fill="rgb(0,0,0)" rx="2" ry="2" />
<text  x="27.10" y="129.5" ></text>
</g>
<g >
<title>MatMult (10,658,281 us, 2.05%)</title><rect x="192.2" y="119" width="24.2" height="15.0" fill="rgb(0,0,0)" rx="2" ry="2" />
<text  x="195.22" y="129.5" >M..</text>
</g>
<g >
<title>Parloop_set_#x7face37fb520_wrap_expression_kernel (364,643 us, 0.07%)</title><rect x="43.3" y="135" width="0.8" height="15.0" fill="rgb(0,0,0)" rx="2" ry="2" />
<text  x="46.31" y="145.5" ></text>
</g>
<g >
<title>firedrake.assemble.assemble (30,475,792 us, 5.86%)</title><rect x="83.7" y="103" width="69.1" height="15.0" fill="rgb(0,0,0)" rx="2" ry="2" />
<text  x="86.70" y="113.5" >firedra..</text>
</g>
<g >
<title>Log_Event_subkernel134_cell_to__cell_integral_otherwise (162,947 us, 0.03%)</title><rect x="835.8" y="279" width="0.4" height="15.0" fill="rgb(0,0,0)" rx="2" ry="2" />
<text  x="838.79" y="289.5" ></text>
</g>
<g >
<title>Parloop_Cells_wrap_form_interior_facet_horiz_integral_otherwise (1,510,524 us, 0.29%)</title><rect x="27.4" y="103" width="3.4" height="15.0" fill="rgb(0,0,0)" rx="2" ry="2" />
<text  x="30.36" y="113.5" ></text>
</g>
<g >
<title>Parloop_Cells_wrap_form0_interior_facet_horiz_integral_otherwise (2,001,182 us, 0.38%)</title><rect x="66.0" y="119" width="4.6" height="15.0" fill="rgb(0,0,0)" rx="2" ry="2" />
<text  x="69.02" y="129.5" ></text>
</g>
<g >
<title>SNESFunctionEval (9,780,083 us, 1.88%)</title><rect x="1167.8" y="103" width="22.2" height="15.0" fill="rgb(0,0,0)" rx="2" ry="2" />
<text  x="1170.83" y="113.5" ></text>
</g>
<g >
<title>firedrake.tsfc_interface.compile_form (1,853,929 us, 0.36%)</title><rect x="45.0" y="87" width="4.2" height="15.0" fill="rgb(0,0,0)" rx="2" ry="2" />
<text  x="48.04" y="97.5" ></text>
</g>
<g >
<title>Log_Event_tensorshell_knl_133 (589,728 us, 0.11%)</title><rect x="835.1" y="263" width="1.4" height="15.0" fill="rgb(0,0,0)" rx="2" ry="2" />
<text  x="838.14" y="273.5" ></text>
</g>
<g >
<title>ParLoopExecute (896,692 us, 0.17%)</title><rect x="445.1" y="183" width="2.0" height="15.0" fill="rgb(0,0,0)" rx="2" ry="2" />
<text  x="448.10" y="193.5" ></text>
</g>
<g >
<title>Log_Event_mtf_solve_188 (339,282 us, 0.07%)</title><rect x="271.3" y="247" width="0.8" height="15.0" fill="rgb(0,0,0)" rx="2" ry="2" />
<text  x="274.34" y="257.5" ></text>
</g>
<g >
<title>Parloop_Cells_wrap_form00_exterior_facet_top_integral_otherwise (1,771,465 us, 0.34%)</title><rect x="124.1" y="135" width="4.0" height="15.0" fill="rgb(0,0,0)" rx="2" ry="2" />
<text  x="127.09" y="145.5" ></text>
</g>
<g >
<title>Log_Event_subkernel187_cell_to__cell_integral_otherwise (158,706 us, 0.03%)</title><rect x="272.1" y="247" width="0.4" height="15.0" fill="rgb(0,0,0)" rx="2" ry="2" />
<text  x="275.11" y="257.5" ></text>
</g>
<g >
<title>Log_Event_mtf_solve_1 (747,102 us, 0.14%)</title><rect x="484.5" y="215" width="1.7" height="15.0" fill="rgb(0,0,0)" rx="2" ry="2" />
<text  x="487.52" y="225.5" ></text>
</g>
<g >
<title>SNESSolve (440,106,999 us, 84.56%)</title><rect x="192.2" y="87" width="997.8" height="15.0" fill="rgb(0,0,0)" rx="2" ry="2" />
<text  x="195.22" y="97.5" >SNESSolve</text>
</g>
<g >
<title>pyop2.global_kernel.GlobalKernel.compile (2,001,182 us, 0.38%)</title><rect x="66.0" y="135" width="4.6" height="15.0" fill="rgb(0,0,0)" rx="2" ry="2" />
<text  x="69.02" y="145.5" ></text>
</g>
<g >
<title>Parloop_ExtFacets_wrap_form_exterior_facet_vert_integral_otherwise (2,734,388 us, 0.53%)</title><rect x="30.8" y="103" width="6.2" height="15.0" fill="rgb(0,0,0)" rx="2" ry="2" />
<text  x="33.79" y="113.5" ></text>
</g>
<g >
<title>pyop2.global_kernel.GlobalKernel.compile (1,403,272 us, 0.27%)</title><rect x="20.9" y="119" width="3.2" height="15.0" fill="rgb(0,0,0)" rx="2" ry="2" />
<text  x="23.92" y="129.5" ></text>
</g>
<g >
<title>Parloop_Cells_wrap_form0_exterior_facet_top_integral_otherwise (1,404,327 us, 0.27%)</title><rect x="62.8" y="119" width="3.2" height="15.0" fill="rgb(0,0,0)" rx="2" ry="2" />
<text  x="65.83" y="129.5" ></text>
</g>
<g >
<title>pyop2.global_kernel.GlobalKernel.compile (1,895,958 us, 0.36%)</title><rect x="128.1" y="151" width="4.3" height="15.0" fill="rgb(0,0,0)" rx="2" ry="2" />
<text  x="131.11" y="161.5" ></text>
</g>
<g >
<title>firedrake.matrix_free.operators.ImplicitMatrixContext.mult (10,658,281 us, 2.05%)</title><rect x="192.2" y="135" width="24.2" height="15.0" fill="rgb(0,0,0)" rx="2" ry="2" />
<text  x="195.22" y="145.5" >f..</text>
</g>
<g >
<title>PCSetUpOnBlocks (61,633 us, 0.01%)</title><rect x="152.8" y="119" width="0.1" height="15.0" fill="rgb(0,0,0)" rx="2" ry="2" />
<text  x="155.79" y="129.5" ></text>
</g>
<g >
<title>Parloop_Cells_wrap_par_loop_kernel (896,692 us, 0.17%)</title><rect x="445.1" y="199" width="2.0" height="15.0" fill="rgb(0,0,0)" rx="2" ry="2" />
<text  x="448.10" y="209.5" ></text>
</g>
<g >
<title>SCBackSub (100,883,007 us, 19.38%)</title><rect x="216.4" y="135" width="228.7" height="15.0" fill="rgb(0,0,0)" rx="2" ry="2" />
<text  x="219.38" y="145.5" >SCBackSub</text>
</g>
<g >
<title>Parloop_Cells_wrap_par_loop_kernel (859,582 us, 0.17%)</title><rect x="219.1" y="199" width="1.9" height="15.0" fill="rgb(0,0,0)" rx="2" ry="2" />
<text  x="222.07" y="209.5" ></text>
</g>
<g >
<title>firedrake.parloops.par_loop (859,582 us, 0.17%)</title><rect x="219.1" y="167" width="1.9" height="15.0" fill="rgb(0,0,0)" rx="2" ry="2" />
<text  x="222.07" y="177.5" ></text>
</g>
<g >
<title>firedrake.__init__ (2,093,523 us, 0.40%)</title><rect x="16.2" y="71" width="4.7" height="15.0" fill="rgb(0,0,0)" rx="2" ry="2" />
<text  x="19.17" y="81.5" ></text>
</g>
<g >
<title>Parloop_IntFacets_wrap_form00_interior_facet_vert_integral_otherwise (3,306,550 us, 0.64%)</title><rect x="139.9" y="135" width="7.5" height="15.0" fill="rgb(0,0,0)" rx="2" ry="2" />
<text  x="142.89" y="145.5" ></text>
</g>
<g >
<title>Parloop_Cells_wrap_form00_interior_facet_horiz_integral_otherwise (1,895,958 us, 0.36%)</title><rect x="128.1" y="135" width="4.3" height="15.0" fill="rgb(0,0,0)" rx="2" ry="2" />
<text  x="131.11" y="145.5" ></text>
</g>
<g >
<title>Log_Event_mtf_solve_120 (678,840 us, 0.13%)</title><rect x="834.9" y="247" width="1.6" height="15.0" fill="rgb(0,0,0)" rx="2" ry="2" />
<text  x="837.93" y="257.5" ></text>
</g>
<g >
<title>firedrake.function.Function.project (47,761,790 us, 9.18%)</title><rect x="49.2" y="71" width="108.3" height="15.0" fill="rgb(0,0,0)" rx="2" ry="2" />
<text  x="52.24" y="81.5" >firedrake.fu..</text>
</g>
<g >
<title>SCSolve (162,615,000 us, 31.24%)</title><rect x="797.5" y="135" width="368.6" height="15.0" fill="rgb(0,0,0)" rx="2" ry="2" />
<text  x="800.46" y="145.5" >SCSolve</text>
</g>
<g >
<title>firedrake.tsfc_interface.compile_form (2,173,510 us, 0.42%)</title><rect x="147.9" y="119" width="4.9" height="15.0" fill="rgb(0,0,0)" rx="2" ry="2" />
<text  x="150.87" y="129.5" ></text>
</g>
<g >
<title>Log_Event_mtf_solve_135 (288,776 us, 0.06%)</title><rect x="835.1" y="279" width="0.7" height="15.0" fill="rgb(0,0,0)" rx="2" ry="2" />
<text  x="838.14" y="289.5" ></text>
</g>
<g >
<title>MatMult (162,615,000 us, 31.24%)</title><rect x="797.5" y="167" width="368.6" height="15.0" fill="rgb(0,0,0)" rx="2" ry="2" />
<text  x="800.46" y="177.5" >MatMult</text>
</g>
<g >
<title>pyop2.global_kernel.GlobalKernel.compile (859,582 us, 0.17%)</title><rect x="219.1" y="215" width="1.9" height="15.0" fill="rgb(0,0,0)" rx="2" ry="2" />
<text  x="222.07" y="225.5" ></text>
</g>
<g >
<title>CreateExtMesh (934,843 us, 0.18%)</title><rect x="14.1" y="71" width="2.1" height="15.0" fill="rgb(0,0,0)" rx="2" ry="2" />
<text  x="17.06" y="81.5" ></text>
</g>
<g >
<title>ParLoopExecute (8,257,141 us, 1.59%)</title><rect x="1167.8" y="119" width="18.7" height="15.0" fill="rgb(0,0,0)" rx="2" ry="2" />
<text  x="1170.83" y="129.5" ></text>
</g>
<g >
<title>Log_Event_subkernel17_cell_to__cell_integral_otherwise (75,154 us, 0.01%)</title><rect x="484.9" y="263" width="0.1" height="15.0" fill="rgb(0,0,0)" rx="2" ry="2" />
<text  x="487.85" y="273.5" ></text>
</g>
<g >
<title>ParLoopExecute (763,195 us, 0.15%)</title><rect x="43.3" y="119" width="1.7" height="15.0" fill="rgb(0,0,0)" rx="2" ry="2" />
<text  x="46.31" y="129.5" ></text>
</g>
<g >
<title>Log_Event_subkernel20_cell_to__cell_integral_otherwise (149,836 us, 0.03%)</title><rect x="485.2" y="263" width="0.3" height="15.0" fill="rgb(0,0,0)" rx="2" ry="2" />
<text  x="488.15" y="273.5" ></text>
</g>
<g >
<title>Parloop_Cells_wrap_par_loop_kernel (659,971 us, 0.13%)</title><rect x="1166.3" y="167" width="1.5" height="15.0" fill="rgb(0,0,0)" rx="2" ry="2" />
<text  x="1169.33" y="177.5" ></text>
</g>
<g >
<title>firedrake.matrix_free.operators.ImplicitMatrixContext.mult (162,615,000 us, 31.24%)</title><rect x="797.5" y="183" width="368.6" height="15.0" fill="rgb(0,0,0)" rx="2" ry="2" />
<text  x="800.46" y="193.5" >firedrake.matrix_free.operators.ImplicitMatrix..</text>
</g>
<g >
<title>Log_Event_subkernel194_cell_to__cell_integral_otherwise (137,798 us, 0.03%)</title><rect x="272.5" y="247" width="0.3" height="15.0" fill="rgb(0,0,0)" rx="2" ry="2" />
<text  x="275.47" y="257.5" ></text>
</g>
<g >
<title>Log_Event_subkernel192_cell_to__cell_integral_otherwise (148,627 us, 0.03%)</title><rect x="271.8" y="263" width="0.3" height="15.0" fill="rgb(0,0,0)" rx="2" ry="2" />
<text  x="274.77" y="273.5" ></text>
</g>
<g >
<title>KSPSolve (162,615,000 us, 31.24%)</title><rect x="797.5" y="151" width="368.6" height="15.0" fill="rgb(0,0,0)" rx="2" ry="2" />
<text  x="800.46" y="161.5" >KSPSolve</text>
</g>
<g >
<title>HybridRHS (154,525,267 us, 29.69%)</title><rect x="447.1" y="151" width="350.4" height="15.0" fill="rgb(0,0,0)" rx="2" ry="2" />
<text  x="450.13" y="161.5" >HybridRHS</text>
</g>
<g >
<title>firedrake.parloops.par_loop (896,692 us, 0.17%)</title><rect x="445.1" y="167" width="2.0" height="15.0" fill="rgb(0,0,0)" rx="2" ry="2" />
<text  x="448.10" y="177.5" ></text>
</g>
<g >
<title>Log_Event_slate_loopy_knl_0 (1,679,337 us, 0.32%)</title><rect x="483.9" y="199" width="3.8" height="15.0" fill="rgb(0,0,0)" rx="2" ry="2" />
<text  x="486.92" y="209.5" ></text>
</g>
<g >
<title>Parloop_Cells_wrap_pyop2_kernel_uniform_extrusion (934,843 us, 0.18%)</title><rect x="14.1" y="119" width="2.1" height="15.0" fill="rgb(0,0,0)" rx="2" ry="2" />
<text  x="17.06" y="129.5" ></text>
</g>
<g >
<title>firedrake.variational_solver.NonlinearVariationalSolver.solve (440,106,999 us, 84.56%)</title><rect x="192.2" y="71" width="997.8" height="15.0" fill="rgb(0,0,0)" rx="2" ry="2" />
<text  x="195.22" y="81.5" >firedrake.variational_solver.NonlinearVariationalSolver.solve</text>
</g>
<g >
<title>ParLoopExecute (934,843 us, 0.18%)</title><rect x="14.1" y="103" width="2.1" height="15.0" fill="rgb(0,0,0)" rx="2" ry="2" />
<text  x="17.06" y="113.5" ></text>
</g>
<g >
<title>ParLoopExecute (28,089,273 us, 5.40%)</title><rect x="83.7" y="119" width="63.7" height="15.0" fill="rgb(0,0,0)" rx="2" ry="2" />
<text  x="86.70" y="129.5" >ParLoo..</text>
</g>
<g >
<title>KSPSolve (429,578,247 us, 82.53%)</title><rect x="192.2" y="103" width="973.9" height="15.0" fill="rgb(0,0,0)" rx="2" ry="2" />
<text  x="195.22" y="113.5" >KSPSolve</text>
</g>
<g >
<title>Log_Event_subkernel19_cell_to__cell_integral_otherwise (58,665 us, 0.01%)</title><rect x="485.0" y="263" width="0.2" height="15.0" fill="rgb(0,0,0)" rx="2" ry="2" />
<text  x="488.02" y="273.5" ></text>
</g>
<g >
<title>all (520,480,623 us, 100%)</title><rect x="10.0" y="39" width="1180.0" height="15.0" fill="rgb(0,0,0)" rx="2" ry="2" />
<text  x="13.00" y="49.5" ></text>
</g>
<g >
<title>RecoverFirstElim (82,692,267 us, 15.89%)</title><rect x="251.5" y="151" width="187.5" height="15.0" fill="rgb(0,0,0)" rx="2" ry="2" />
<text  x="254.52" y="161.5" >RecoverFirstElim</text>
</g>
<g >
<title>firedrake.assemble.assemble (12,492,053 us, 2.40%)</title><rect x="20.9" y="71" width="28.3" height="15.0" fill="rgb(0,0,0)" rx="2" ry="2" />
<text  x="23.92" y="81.5" >f..</text>
</g>
<g >
<title>Parloop_Cells_wrap_form1_cell_integral_otherwise (3,970,221 us, 0.76%)</title><rect x="1177.5" y="135" width="9.0" height="15.0" fill="rgb(0,0,0)" rx="2" ry="2" />
<text  x="1180.55" y="145.5" ></text>
</g>
<g >
<title>MatZeroInitial (78,445 us, 0.02%)</title><rect x="147.7" y="135" width="0.2" height="15.0" fill="rgb(0,0,0)" rx="2" ry="2" />
<text  x="150.69" y="145.5" ></text>
</g>
<g >
<title>HybridInit (748,669 us, 0.14%)</title><rect x="1166.1" y="119" width="1.7" height="15.0" fill="rgb(0,0,0)" rx="2" ry="2" />
<text  x="1169.13" y="129.5" ></text>
</g>
<g >
<title>pyop2.global_kernel.GlobalKernel.compile (3,306,550 us, 0.64%)</title><rect x="139.9" y="151" width="7.5" height="15.0" fill="rgb(0,0,0)" rx="2" ry="2" />
<text  x="142.89" y="161.5" ></text>
</g>
<g >
<title>PCSetUp (61,633 us, 0.01%)</title><rect x="152.8" y="135" width="0.1" height="15.0" fill="rgb(0,0,0)" rx="2" ry="2" />
<text  x="155.79" y="145.5" ></text>
</g>
<g >
<title>pyop2.global_kernel.GlobalKernel.compile (13,796,632 us, 2.65%)</title><rect x="157.5" y="151" width="31.3" height="15.0" fill="rgb(0,0,0)" rx="2" ry="2" />
<text  x="160.52" y="161.5" >py..</text>
</g>
<g >
<title>ParLoopExecute (9,488,249 us, 1.82%)</title><rect x="192.2" y="151" width="21.5" height="15.0" fill="rgb(0,0,0)" rx="2" ry="2" />
<text  x="195.22" y="161.5" ></text>
</g>
<g >
<title>Log_Event_tensorshell_knl_14 (656,880 us, 0.13%)</title><rect x="484.7" y="231" width="1.5" height="15.0" fill="rgb(0,0,0)" rx="2" ry="2" />
<text  x="487.73" y="241.5" ></text>
</g>
<g >
<title>firedrake.assemble_expressions.evaluate_expression (763,195 us, 0.15%)</title><rect x="43.3" y="103" width="1.7" height="15.0" fill="rgb(0,0,0)" rx="2" ry="2" />
<text  x="46.31" y="113.5" ></text>
</g>
<g >
<title>Parloop_Cells_wrap_form0_cell_integral_otherwise (4,286,920 us, 0.82%)</title><rect x="1167.8" y="135" width="9.7" height="15.0" fill="rgb(0,0,0)" rx="2" ry="2" />
<text  x="1170.83" y="145.5" ></text>
</g>
<g >
<title>pyop2.global_kernel.GlobalKernel.compile (108,464,989 us, 20.84%)</title><rect x="487.7" y="199" width="245.9" height="15.0" fill="rgb(0,0,0)" rx="2" ry="2" />
<text  x="490.73" y="209.5" >pyop2.global_kernel.GlobalKern..</text>
</g>
<g >
<title>PCSetUp (748,669 us, 0.14%)</title><rect x="1166.1" y="103" width="1.7" height="15.0" fill="rgb(0,0,0)" rx="2" ry="2" />
<text  x="1169.13" y="113.5" ></text>
</g>
<g >
<title>Parloop_ExtFacets_wrap_form0_exterior_facet_vert_integral_otherwise (2,685,050 us, 0.52%)</title><rect x="70.6" y="119" width="6.0" height="15.0" fill="rgb(0,0,0)" rx="2" ry="2" />
<text  x="73.55" y="129.5" ></text>
</g>
<g >
<title>firedrake.projection.project (47,761,790 us, 9.18%)</title><rect x="49.2" y="87" width="108.3" height="15.0" fill="rgb(0,0,0)" rx="2" ry="2" />
<text  x="52.24" y="97.5" >firedrake.pr..</text>
</g>
<g >
<title>SCForwardElim (155,421,959 us, 29.86%)</title><rect x="445.1" y="135" width="352.4" height="15.0" fill="rgb(0,0,0)" rx="2" ry="2" />
<text  x="448.10" y="145.5" >SCForwardElim</text>
</g>
<g >
<title>Log_Event_subkernel60_cell_to__cell_integral_otherwise (142,435 us, 0.03%)</title><rect x="486.7" y="263" width="0.3" height="15.0" fill="rgb(0,0,0)" rx="2" ry="2" />
<text  x="489.71" y="273.5" ></text>
</g>
<g >
<title>Parloop_Cells_wrap_form_exterior_facet_bottom_integral_otherwise (1,403,272 us, 0.27%)</title><rect x="20.9" y="103" width="3.2" height="15.0" fill="rgb(0,0,0)" rx="2" ry="2" />
<text  x="23.92" y="113.5" ></text>
</g>
<g >
<title>pyop2.global_kernel.GlobalKernel.compile (13,359,470 us, 2.57%)</title><rect x="221.2" y="183" width="30.3" height="15.0" fill="rgb(0,0,0)" rx="2" ry="2" />
<text  x="224.23" y="193.5" >p..</text>
</g>
<g >
<title>pyop2.global_kernel.GlobalKernel.compile (4,582,933 us, 0.88%)</title><rect x="49.2" y="135" width="10.4" height="15.0" fill="rgb(0,0,0)" rx="2" ry="2" />
<text  x="52.24" y="145.5" ></text>
</g>
<g >
<title>firedrake.norms.errornorm (15,302,786 us, 2.94%)</title><rect x="157.5" y="71" width="34.7" height="15.0" fill="rgb(0,0,0)" rx="2" ry="2" />
<text  x="160.52" y="81.5" >fi..</text>
</g>
<g >
<title>ParLoopExecute (9,874,929 us, 1.90%)</title><rect x="20.9" y="87" width="22.4" height="15.0" fill="rgb(0,0,0)" rx="2" ry="2" />
<text  x="23.92" y="97.5" ></text>
</g>
<g >
<title>Log_Event_subkernel141_cell_to__cell_integral_otherwise (138,005 us, 0.03%)</title><rect x="836.2" y="279" width="0.3" height="15.0" fill="rgb(0,0,0)" rx="2" ry="2" />
<text  x="839.16" y="289.5" ></text>
</g>
<g >
<title>ParLoopExecute (859,582 us, 0.17%)</title><rect x="219.1" y="183" width="1.9" height="15.0" fill="rgb(0,0,0)" rx="2" ry="2" />
<text  x="222.07" y="193.5" ></text>
</g>
<g >
<title>Log_Event_mtf_solve_16 (337,211 us, 0.06%)</title><rect x="484.7" y="247" width="0.8" height="15.0" fill="rgb(0,0,0)" rx="2" ry="2" />
<text  x="487.73" y="257.5" ></text>
</g>
<g >
<title>pyop2.global_kernel.GlobalKernel.compile (16,038,151 us, 3.08%)</title><rect x="83.7" y="151" width="36.4" height="15.0" fill="rgb(0,0,0)" rx="2" ry="2" />
<text  x="86.70" y="161.5" >py..</text>
</g>
<g >
<title>pyop2.global_kernel.GlobalKernel.compile (1,771,465 us, 0.34%)</title><rect x="124.1" y="151" width="4.0" height="15.0" fill="rgb(0,0,0)" rx="2" ry="2" />
<text  x="127.09" y="161.5" ></text>
</g>
<g >
<title>firedrake.assemble_expressions.assemble_expression (763,195 us, 0.15%)</title><rect x="43.3" y="87" width="1.7" height="15.0" fill="rgb(0,0,0)" rx="2" ry="2" />
<text  x="46.31" y="97.5" ></text>
</g>
<g >
<title>Parloop_Cells_wrap_slate_loopy_knl_77 (115,912,319 us, 22.27%)</title><rect x="834.2" y="215" width="262.8" height="15.0" fill="rgb(0,0,0)" rx="2" ry="2" />
<text  x="837.22" y="225.5" >Parloop_Cells_wrap_slate_loopy_k..</text>
</g>
<g >
<title>Log_Event_subkernel59_cell_to__cell_integral_otherwise (55,790 us, 0.01%)</title><rect x="486.6" y="263" width="0.1" height="15.0" fill="rgb(0,0,0)" rx="2" ry="2" />
<text  x="489.59" y="273.5" ></text>
</g>
<g >
<title>firedrake.tsfc_interface.compile_form (2,024,965 us, 0.39%)</title><rect x="152.9" y="103" width="4.6" height="15.0" fill="rgb(0,0,0)" rx="2" ry="2" />
<text  x="155.93" y="113.5" ></text>
</g>
</g>
</svg>
