<?xml version="1.0" standalone="no"?>
<!DOCTYPE svg PUBLIC "-//W3C//DTD SVG 1.1//EN" "http://www.w3.org/Graphics/SVG/1.1/DTD/svg11.dtd">
<svg version="1.1" width="1200" height="267" onload="init(evt)" viewBox="0 0 1200 267" xmlns="http://www.w3.org/2000/svg" xmlns:xlink="http://www.w3.org/1999/xlink">
<!-- Flame graph stack visualization. See https://github.com/brendangregg/FlameGraph for latest version, and http://www.brendangregg.com/flamegraphs.html for examples. -->
<!-- NOTES:  -->
<defs>
	<linearGradient id="background" y1="0" y2="1" x1="0" x2="0" >
		<stop stop-color="#eeeeee" offset="5%" />
		<stop stop-color="#eeeeb0" offset="95%" />
	</linearGradient>
</defs>
<style type="text/css">
	text { font-family:Verdana; font-size:13px; fill:rgb(0,0,0); }
	#search, #ignorecase { opacity:0.1; cursor:pointer; }
	#search:hover, #search.show, #ignorecase:hover, #ignorecase.show { opacity:1; }
	#subtitle { text-anchor:middle; font-color:rgb(160,160,160); }
	#title { text-anchor:middle; font-size:18px}
	#unzoom { cursor:pointer; }
	#frames > *:hover { stroke:black; stroke-width:0.5; cursor:pointer; }
	.hide { display:none; }
	.parent { opacity:0.5; }
</style>
<script type="text/ecmascript">
<![CDATA[
	"use strict";
	var details, searchbtn, unzoombtn, matchedtxt, svg, searching, currentSearchTerm, ignorecase, ignorecaseBtn;
	function init(evt) {
		details = document.getElementById("details").firstChild;
		searchbtn = document.getElementById("search");
		ignorecaseBtn = document.getElementById("ignorecase");
		unzoombtn = document.getElementById("unzoom");
		matchedtxt = document.getElementById("matched");
		svg = document.getElementsByTagName("svg")[0];
		searching = 0;
		currentSearchTerm = null;

		// use GET parameters to restore a flamegraphs state.
		var params = get_params();
		if (params.x && params.y)
			zoom(find_group(document.querySelector('[x="' + params.x + '"][y="' + params.y + '"]')));
                if (params.s) search(params.s);
	}

	// event listeners
	window.addEventListener("click", function(e) {
		var target = find_group(e.target);
		if (target) {
			if (target.nodeName == "a") {
				if (e.ctrlKey === false) return;
				e.preventDefault();
			}
			if (target.classList.contains("parent")) unzoom();
			zoom(target);
			if (!document.querySelector('.parent')) {
				clearzoom();
				return;
			}

			// set parameters for zoom state
			var el = target.querySelector("rect");
			if (el && el.attributes && el.attributes.y && el.attributes._orig_x) {
				var params = get_params()
				params.x = el.attributes._orig_x.value;
				params.y = el.attributes.y.value;
				history.replaceState(null, null, parse_params(params));
			}
		}
		else if (e.target.id == "unzoom") clearzoom();
		else if (e.target.id == "search") search_prompt();
		else if (e.target.id == "ignorecase") toggle_ignorecase();
	}, false)

	// mouse-over for info
	// show
	window.addEventListener("mouseover", function(e) {
		var target = find_group(e.target);
		if (target) details.nodeValue = "Function: " + g_to_text(target);
	}, false)

	// clear
	window.addEventListener("mouseout", function(e) {
		var target = find_group(e.target);
		if (target) details.nodeValue = ' ';
	}, false)

	// ctrl-F for search
	// ctrl-I to toggle case-sensitive search
	window.addEventListener("keydown",function (e) {
		if (e.keyCode === 114 || (e.ctrlKey && e.keyCode === 70)) {
			e.preventDefault();
			search_prompt();
		}
		else if (e.ctrlKey && e.keyCode === 73) {
			e.preventDefault();
			toggle_ignorecase();
		}
	}, false)

	// functions
	function get_params() {
		var params = {};
		var paramsarr = window.location.search.substr(1).split('&');
		for (var i = 0; i < paramsarr.length; ++i) {
			var tmp = paramsarr[i].split("=");
			if (!tmp[0] || !tmp[1]) continue;
			params[tmp[0]]  = decodeURIComponent(tmp[1]);
		}
		return params;
	}
	function parse_params(params) {
		var uri = "?";
		for (var key in params) {
			uri += key + '=' + encodeURIComponent(params[key]) + '&';
		}
		if (uri.slice(-1) == "&")
			uri = uri.substring(0, uri.length - 1);
		if (uri == '?')
			uri = window.location.href.split('?')[0];
		return uri;
	}
	function find_child(node, selector) {
		var children = node.querySelectorAll(selector);
		if (children.length) return children[0];
	}
	function find_group(node) {
		var parent = node.parentElement;
		if (!parent) return;
		if (parent.id == "frames") return node;
		return find_group(parent);
	}
	function orig_save(e, attr, val) {
		if (e.attributes["_orig_" + attr] != undefined) return;
		if (e.attributes[attr] == undefined) return;
		if (val == undefined) val = e.attributes[attr].value;
		e.setAttribute("_orig_" + attr, val);
	}
	function orig_load(e, attr) {
		if (e.attributes["_orig_"+attr] == undefined) return;
		e.attributes[attr].value = e.attributes["_orig_" + attr].value;
		e.removeAttribute("_orig_"+attr);
	}
	function g_to_text(e) {
		var text = find_child(e, "title").firstChild.nodeValue;
		return (text)
	}
	function g_to_func(e) {
		var func = g_to_text(e);
		// if there's any manipulation we want to do to the function
		// name before it's searched, do it here before returning.
		return (func);
	}
	function update_text(e) {
		var r = find_child(e, "rect");
		var t = find_child(e, "text");
		var w = parseFloat(r.attributes.width.value) -3;
		var txt = find_child(e, "title").textContent.replace(/\([^(]*\)$/,"");
		t.attributes.x.value = parseFloat(r.attributes.x.value) + 3;

		// Smaller than this size won't fit anything
		if (w < 2 * 13 * 0.59) {
			t.textContent = "";
			return;
		}

		t.textContent = txt;
		// Fit in full text width
		if (/^ *$/.test(txt) || t.getSubStringLength(0, txt.length) < w)
			return;

		for (var x = txt.length - 2; x > 0; x--) {
			if (t.getSubStringLength(0, x + 2) <= w) {
				t.textContent = txt.substring(0, x) + "..";
				return;
			}
		}
		t.textContent = "";
	}

	// zoom
	function zoom_reset(e) {
		if (e.attributes != undefined) {
			orig_load(e, "x");
			orig_load(e, "width");
		}
		if (e.childNodes == undefined) return;
		for (var i = 0, c = e.childNodes; i < c.length; i++) {
			zoom_reset(c[i]);
		}
	}
	function zoom_child(e, x, ratio) {
		if (e.attributes != undefined) {
			if (e.attributes.x != undefined) {
				orig_save(e, "x");
				e.attributes.x.value = (parseFloat(e.attributes.x.value) - x - 10) * ratio + 10;
				if (e.tagName == "text")
					e.attributes.x.value = find_child(e.parentNode, "rect[x]").attributes.x.value + 3;
			}
			if (e.attributes.width != undefined) {
				orig_save(e, "width");
				e.attributes.width.value = parseFloat(e.attributes.width.value) * ratio;
			}
		}

		if (e.childNodes == undefined) return;
		for (var i = 0, c = e.childNodes; i < c.length; i++) {
			zoom_child(c[i], x - 10, ratio);
		}
	}
	function zoom_parent(e) {
		if (e.attributes) {
			if (e.attributes.x != undefined) {
				orig_save(e, "x");
				e.attributes.x.value = 10;
			}
			if (e.attributes.width != undefined) {
				orig_save(e, "width");
				e.attributes.width.value = parseInt(svg.width.baseVal.value) - (10 * 2);
			}
		}
		if (e.childNodes == undefined) return;
		for (var i = 0, c = e.childNodes; i < c.length; i++) {
			zoom_parent(c[i]);
		}
	}
	function zoom(node) {
		var attr = find_child(node, "rect").attributes;
		var width = parseFloat(attr.width.value);
		var xmin = parseFloat(attr.x.value);
		var xmax = parseFloat(xmin + width);
		var ymin = parseFloat(attr.y.value);
		var ratio = (svg.width.baseVal.value - 2 * 10) / width;

		// XXX: Workaround for JavaScript float issues (fix me)
		var fudge = 0.0001;

		unzoombtn.classList.remove("hide");

		var el = document.getElementById("frames").children;
		for (var i = 0; i < el.length; i++) {
			var e = el[i];
			var a = find_child(e, "rect").attributes;
			var ex = parseFloat(a.x.value);
			var ew = parseFloat(a.width.value);
			var upstack;
			// Is it an ancestor
			if (1 == 0) {
				upstack = parseFloat(a.y.value) > ymin;
			} else {
				upstack = parseFloat(a.y.value) < ymin;
			}
			if (upstack) {
				// Direct ancestor
				if (ex <= xmin && (ex+ew+fudge) >= xmax) {
					e.classList.add("parent");
					zoom_parent(e);
					update_text(e);
				}
				// not in current path
				else
					e.classList.add("hide");
			}
			// Children maybe
			else {
				// no common path
				if (ex < xmin || ex + fudge >= xmax) {
					e.classList.add("hide");
				}
				else {
					zoom_child(e, xmin, ratio);
					update_text(e);
				}
			}
		}
		search();
	}
	function unzoom() {
		unzoombtn.classList.add("hide");
		var el = document.getElementById("frames").children;
		for(var i = 0; i < el.length; i++) {
			el[i].classList.remove("parent");
			el[i].classList.remove("hide");
			zoom_reset(el[i]);
			update_text(el[i]);
		}
		search();
	}
	function clearzoom() {
		unzoom();

		// remove zoom state
		var params = get_params();
		if (params.x) delete params.x;
		if (params.y) delete params.y;
		history.replaceState(null, null, parse_params(params));
	}

	// search
	function toggle_ignorecase() {
		ignorecase = !ignorecase;
		if (ignorecase) {
			ignorecaseBtn.classList.add("show");
		} else {
			ignorecaseBtn.classList.remove("show");
		}
		reset_search();
		search();
	}
	function reset_search() {
		var el = document.querySelectorAll("#frames rect");
		for (var i = 0; i < el.length; i++) {
			orig_load(el[i], "fill")
		}
		var params = get_params();
		delete params.s;
		history.replaceState(null, null, parse_params(params));
	}
	function search_prompt() {
		if (!searching) {
			var term = prompt("Enter a search term (regexp " +
			    "allowed, eg: ^ext4_)"
			    + (ignorecase ? ", ignoring case" : "")
			    + "\nPress Ctrl-i to toggle case sensitivity", "");
			if (term != null) search(term);
		} else {
			reset_search();
			searching = 0;
			currentSearchTerm = null;
			searchbtn.classList.remove("show");
			searchbtn.firstChild.nodeValue = "Search"
			matchedtxt.classList.add("hide");
			matchedtxt.firstChild.nodeValue = ""
		}
	}
	function search(term) {
		if (term) currentSearchTerm = term;

		var re = new RegExp(currentSearchTerm, ignorecase ? 'i' : '');
		var el = document.getElementById("frames").children;
		var matches = new Object();
		var maxwidth = 0;
		for (var i = 0; i < el.length; i++) {
			var e = el[i];
			var func = g_to_func(e);
			var rect = find_child(e, "rect");
			if (func == null || rect == null)
				continue;

			// Save max width. Only works as we have a root frame
			var w = parseFloat(rect.attributes.width.value);
			if (w > maxwidth)
				maxwidth = w;

			if (func.match(re)) {
				// highlight
				var x = parseFloat(rect.attributes.x.value);
				orig_save(rect, "fill");
				rect.attributes.fill.value = "rgb(230,0,230)";

				// remember matches
				if (matches[x] == undefined) {
					matches[x] = w;
				} else {
					if (w > matches[x]) {
						// overwrite with parent
						matches[x] = w;
					}
				}
				searching = 1;
			}
		}
		if (!searching)
			return;
		var params = get_params();
		params.s = currentSearchTerm;
		history.replaceState(null, null, parse_params(params));

		searchbtn.classList.add("show");
		searchbtn.firstChild.nodeValue = "Reset Search";

		// calculate percent matched, excluding vertical overlap
		var count = 0;
		var lastx = -1;
		var lastw = 0;
		var keys = Array();
		for (k in matches) {
			if (matches.hasOwnProperty(k))
				keys.push(k);
		}
		// sort the matched frames by their x location
		// ascending, then width descending
		keys.sort(function(a, b){
			return a - b;
		});
		// Step through frames saving only the biggest bottom-up frames
		// thanks to the sort order. This relies on the tree property
		// where children are always smaller than their parents.
		var fudge = 0.0001;	// JavaScript floating point
		for (var k in keys) {
			var x = parseFloat(keys[k]);
			var w = matches[keys[k]];
			if (x >= lastx + lastw - fudge) {
				count += w;
				lastx = x;
				lastw = w;
			}
		}
		// display matched percent
		matchedtxt.classList.remove("hide");
		var pct = 100 * count / maxwidth;
		if (pct != 100) pct = pct.toFixed(1)
		matchedtxt.firstChild.nodeValue = "Matched: " + pct + "%";
	}
]]>
</script>
<rect x="0.0" y="0" width="1200.0" height="267.0" fill="url(#background)"  />
<text id="title" x="600.00" y="26" >Firedrake example</text>
<text id="details" x="10.00" y="249" > </text>
<text id="unzoom" x="10.00" y="26" class="hide">Reset Zoom</text>
<text id="search" x="1090.00" y="26" >Search</text>
<text id="ignorecase" x="1174.00" y="26" >ic</text>
<text id="matched" x="1090.00" y="249" > </text>
<g id="frames">
<g >
<title>ParLoopExecute (676,268 us, 0.27%)</title><rect x="1144.5" y="151" width="3.2" height="15.0" fill="rgb(0,0,0)" rx="2" ry="2" />
<text  x="1147.46" y="161.5" ></text>
</g>
<g >
<title>Parloop_Cells_wrap_form0_interior_facet_horiz_integral_otherwise (2,797,367 us, 1.13%)</title><rect x="155.3" y="119" width="13.4" height="15.0" fill="rgb(0,0,0)" rx="2" ry="2" />
<text  x="158.35" y="129.5" ></text>
</g>
<g >
<title>firedrake.tsfc_interface.compile_form (1,135,384 us, 0.46%)</title><rect x="469.4" y="119" width="5.4" height="15.0" fill="rgb(0,0,0)" rx="2" ry="2" />
<text  x="472.42" y="129.5" ></text>
</g>
<g >
<title>pyop2.global_kernel.GlobalKernel.compile (3,634,821 us, 1.47%)</title><rect x="1166.7" y="151" width="17.3" height="15.0" fill="rgb(0,0,0)" rx="2" ry="2" />
<text  x="1169.75" y="161.5" ></text>
</g>
<g >
<title>Parloop_Cells_wrap_form0_cell_integral_otherwise (4,082,985 us, 1.65%)</title><rect x="474.8" y="167" width="19.5" height="15.0" fill="rgb(0,0,0)" rx="2" ry="2" />
<text  x="477.83" y="177.5" ></text>
</g>
<g >
<title>firedrake.assemble.assemble (40,570,609 us, 16.36%)</title><rect x="210.7" y="103" width="193.1" height="15.0" fill="rgb(0,0,0)" rx="2" ry="2" />
<text  x="213.70" y="113.5" >firedrake.assemble.asse..</text>
</g>
<g >
<title>pyop2.global_kernel.GlobalKernel.compile (1,803,429 us, 0.73%)</title><rect x="35.8" y="119" width="8.5" height="15.0" fill="rgb(0,0,0)" rx="2" ry="2" />
<text  x="38.77" y="129.5" ></text>
</g>
<g >
<title>PCApply (90,482,309 us, 36.49%)</title><rect x="517.6" y="119" width="430.6" height="15.0" fill="rgb(0,0,0)" rx="2" ry="2" />
<text  x="520.63" y="129.5" >PCApply</text>
</g>
<g >
<title>KSPSolve (41,704 us, 0.02%)</title><rect x="403.8" y="119" width="0.2" height="15.0" fill="rgb(0,0,0)" rx="2" ry="2" />
<text  x="406.75" y="129.5" ></text>
</g>
<g >
<title>firedrake.assemble_expressions.assemble_expression (761,502 us, 0.31%)</title><rect x="94.7" y="87" width="3.6" height="15.0" fill="rgb(0,0,0)" rx="2" ry="2" />
<text  x="97.70" y="97.5" ></text>
</g>
<g >
<title>pyop2.global_kernel.GlobalKernel.compile (4,902,703 us, 1.98%)</title><rect x="115.2" y="135" width="23.3" height="15.0" fill="rgb(0,0,0)" rx="2" ry="2" />
<text  x="118.17" y="145.5" >p..</text>
</g>
<g >
<title>firedrake.parloops.par_loop (863,297 us, 0.35%)</title><rect x="799.4" y="167" width="4.2" height="15.0" fill="rgb(0,0,0)" rx="2" ry="2" />
<text  x="802.45" y="177.5" ></text>
</g>
<g >
<title>pyop2.global_kernel.GlobalKernel.compile (4,259,076 us, 1.72%)</title><rect x="168.7" y="135" width="20.2" height="15.0" fill="rgb(0,0,0)" rx="2" ry="2" />
<text  x="171.66" y="145.5" ></text>
</g>
<g >
<title>Parloop_Cells_wrap_pyop2_kernel_uniform_extrusion (878,775 us, 0.35%)</title><rect x="15.7" y="119" width="4.1" height="15.0" fill="rgb(0,0,0)" rx="2" ry="2" />
<text  x="18.66" y="129.5" ></text>
</g>
<g >
<title>pyop2.global_kernel.GlobalKernel.compile (4,266,222 us, 1.72%)</title><rect x="53.9" y="119" width="20.3" height="15.0" fill="rgb(0,0,0)" rx="2" ry="2" />
<text  x="56.91" y="129.5" ></text>
</g>
<g >
<title>firedrake.variational_solver.NonlinearVariationalSolver.solve (150,297,229 us, 60.61%)</title><rect x="474.8" y="71" width="715.2" height="15.0" fill="rgb(0,0,0)" rx="2" ry="2" />
<text  x="477.83" y="81.5" >firedrake.variational_solver.NonlinearVariationalSolver.solve</text>
</g>
<g >
<title>inv_getri (248,493 us, 0.10%)</title><rect x="958.0" y="199" width="1.2" height="15.0" fill="rgb(0,0,0)" rx="2" ry="2" />
<text  x="961.01" y="209.5" ></text>
</g>
<g >
<title>SNESSolve (150,297,229 us, 60.61%)</title><rect x="474.8" y="87" width="715.2" height="15.0" fill="rgb(0,0,0)" rx="2" ry="2" />
<text  x="477.83" y="97.5" >SNESSolve</text>
</g>
<g >
<title>pyop2.global_kernel.GlobalKernel.compile (379,747 us, 0.15%)</title><rect x="94.7" y="151" width="1.8" height="15.0" fill="rgb(0,0,0)" rx="2" ry="2" />
<text  x="97.70" y="161.5" ></text>
</g>
<g >
<title>HybridBreak (863,297 us, 0.35%)</title><rect x="799.4" y="151" width="4.2" height="15.0" fill="rgb(0,0,0)" rx="2" ry="2" />
<text  x="802.45" y="161.5" ></text>
</g>
<g >
<title>PCSetUp (41,925,218 us, 16.91%)</title><rect x="948.2" y="103" width="199.5" height="15.0" fill="rgb(0,0,0)" rx="2" ry="2" />
<text  x="951.18" y="113.5" >PCSetUp</text>
</g>
<g >
<title>Parloop_Cells_wrap_form_cell_integral_otherwise (9,979,011 us, 4.02%)</title><rect x="421.9" y="135" width="47.5" height="15.0" fill="rgb(0,0,0)" rx="2" ry="2" />
<text  x="424.94" y="145.5" >Parl..</text>
</g>
<g >
<title>Log_Event_subkernel10_cell_to__cell_integral_otherwise (25,911 us, 0.01%)</title><rect x="640.4" y="199" width="0.1" height="15.0" fill="rgb(0,0,0)" rx="2" ry="2" />
<text  x="643.36" y="209.5" ></text>
</g>
<g >
<title>firedrake.norms.errornorm (11,114,395 us, 4.48%)</title><rect x="421.9" y="71" width="52.9" height="15.0" fill="rgb(0,0,0)" rx="2" ry="2" />
<text  x="424.94" y="81.5" >fire..</text>
</g>
<g >
<title>Parloop_Cells_wrap_par_loop_kernel (676,268 us, 0.27%)</title><rect x="1144.5" y="167" width="3.2" height="15.0" fill="rgb(0,0,0)" rx="2" ry="2" />
<text  x="1147.46" y="177.5" ></text>
</g>
<g >
<title>pyop2.global_kernel.GlobalKernel.compile (2,009,813 us, 0.81%)</title><rect x="44.3" y="119" width="9.6" height="15.0" fill="rgb(0,0,0)" rx="2" ry="2" />
<text  x="47.35" y="129.5" ></text>
</g>
<g >
<title>Parloop_set_#x7f2a904cc610_wrap_expression_kernel (381,755 us, 0.15%)</title><rect x="96.5" y="135" width="1.8" height="15.0" fill="rgb(0,0,0)" rx="2" ry="2" />
<text  x="99.50" y="145.5" ></text>
</g>
<g >
<title>firedrake.assemble.allocate_matrix (1,031,305 us, 0.42%)</title><rect x="381.7" y="119" width="5.0" height="15.0" fill="rgb(0,0,0)" rx="2" ry="2" />
<text  x="384.74" y="129.5" ></text>
</g>
<g >
<title>firedrake.tsfc_interface.compile_form (4,055,764 us, 1.64%)</title><rect x="1124.8" y="151" width="19.3" height="15.0" fill="rgb(0,0,0)" rx="2" ry="2" />
<text  x="1127.80" y="161.5" ></text>
</g>
<g >
<title>firedrake.tsfc_interface.compile_form (2,616,361 us, 1.06%)</title><rect x="787.0" y="151" width="12.4" height="15.0" fill="rgb(0,0,0)" rx="2" ry="2" />
<text  x="790.00" y="161.5" ></text>
</g>
<g >
<title>Log_Event_form00_exterior_facet_vert_integral_otherwise (25,442 us, 0.01%)</title><rect x="329.5" y="151" width="0.1" height="15.0" fill="rgb(0,0,0)" rx="2" ry="2" />
<text  x="332.53" y="161.5" ></text>
</g>
<g >
<title>firedrake.tsfc_interface.compile_form (2,356,330 us, 0.95%)</title><rect x="936.9" y="167" width="11.2" height="15.0" fill="rgb(0,0,0)" rx="2" ry="2" />
<text  x="939.85" y="177.5" ></text>
</g>
<g >
<title>CreateExtMesh (910,499 us, 0.37%)</title><rect x="15.5" y="71" width="4.3" height="15.0" fill="rgb(0,0,0)" rx="2" ry="2" />
<text  x="18.51" y="81.5" ></text>
</g>
<g >
<title>Log_Event_slate_loopy_knl_4 (58,130 us, 0.02%)</title><rect x="810.1" y="199" width="0.3" height="15.0" fill="rgb(0,0,0)" rx="2" ry="2" />
<text  x="813.09" y="209.5" ></text>
</g>
<g >
<title>firedrake.parloops.par_loop (676,268 us, 0.27%)</title><rect x="1144.5" y="135" width="3.2" height="15.0" fill="rgb(0,0,0)" rx="2" ry="2" />
<text  x="1147.46" y="145.5" ></text>
</g>
<g >
<title>Parloop_Cells_wrap_wrap_slate_loopy_knl_14 (21,826,789 us, 8.80%)</title><rect x="527.6" y="167" width="103.8" height="15.0" fill="rgb(0,0,0)" rx="2" ry="2" />
<text  x="530.59" y="177.5" >Parloop_Cel..</text>
</g>
<g >
<title>pyop2.global_kernel.GlobalKernel.compile (17,769,652 us, 7.17%)</title><rect x="211.1" y="151" width="84.6" height="15.0" fill="rgb(0,0,0)" rx="2" ry="2" />
<text  x="214.12" y="161.5" >pyop2.glo..</text>
</g>
<g >
<title>firedrake.assemble.allocate_matrix (42,745 us, 0.02%)</title><rect x="1144.1" y="135" width="0.2" height="15.0" fill="rgb(0,0,0)" rx="2" ry="2" />
<text  x="1147.10" y="145.5" ></text>
</g>
<g >
<title>pyop2.global_kernel.GlobalKernel.compile (2,475,875 us, 1.00%)</title><rect x="317.7" y="151" width="11.8" height="15.0" fill="rgb(0,0,0)" rx="2" ry="2" />
<text  x="320.74" y="161.5" ></text>
</g>
<g >
<title>Log_Event_form00_cell_integral_otherwise (31,273 us, 0.01%)</title><rect x="211.0" y="151" width="0.1" height="15.0" fill="rgb(0,0,0)" rx="2" ry="2" />
<text  x="213.97" y="161.5" ></text>
</g>
<g >
<title>Log_Event_slate_loopy_knl_7 (295,255 us, 0.12%)</title><rect x="639.0" y="199" width="1.4" height="15.0" fill="rgb(0,0,0)" rx="2" ry="2" />
<text  x="641.96" y="209.5" ></text>
</g>
<g >
<title>Parloop_ExtFacets_wrap_form0_exterior_facet_vert_integral_otherwise (4,259,076 us, 1.72%)</title><rect x="168.7" y="119" width="20.2" height="15.0" fill="rgb(0,0,0)" rx="2" ry="2" />
<text  x="171.66" y="129.5" ></text>
</g>
<g >
<title>ParLoopExecute (35,944,765 us, 14.49%)</title><rect x="210.7" y="119" width="171.0" height="15.0" fill="rgb(0,0,0)" rx="2" ry="2" />
<text  x="213.70" y="129.5" >ParLoopExecute</text>
</g>
<g >
<title>Log_Event_subkernel5_interior_facet_vert_to__exterior_facet_vert_integral_otherwise (25,957 us, 0.01%)</title><rect x="810.4" y="199" width="0.1" height="15.0" fill="rgb(0,0,0)" rx="2" ry="2" />
<text  x="813.36" y="209.5" ></text>
</g>
<g >
<title>SCBackSub (59,224,650 us, 23.88%)</title><rect x="517.6" y="135" width="281.8" height="15.0" fill="rgb(0,0,0)" rx="2" ry="2" />
<text  x="520.63" y="145.5" >SCBackSub</text>
</g>
<g >
<title>HybridInit (41,925,218 us, 16.91%)</title><rect x="948.2" y="119" width="199.5" height="15.0" fill="rgb(0,0,0)" rx="2" ry="2" />
<text  x="951.18" y="129.5" >HybridInit</text>
</g>
<g >
<title>PCSetUpOnBlocks (337,420 us, 0.14%)</title><rect x="404.0" y="119" width="1.6" height="15.0" fill="rgb(0,0,0)" rx="2" ry="2" />
<text  x="406.95" y="129.5" ></text>
</g>
<g >
<title>Parloop_IntFacets_wrap_form0_interior_facet_vert_integral_otherwise (4,577,429 us, 1.85%)</title><rect x="188.9" y="119" width="21.8" height="15.0" fill="rgb(0,0,0)" rx="2" ry="2" />
<text  x="191.92" y="129.5" ></text>
</g>
<g >
<title>pyop2.global_kernel.GlobalKernel.compile (885,136 us, 0.36%)</title><rect x="523.4" y="215" width="4.2" height="15.0" fill="rgb(0,0,0)" rx="2" ry="2" />
<text  x="526.38" y="225.5" ></text>
</g>
<g >
<title>firedrake.matrix_free.operators.ImplicitMatrixContext.mult (8,995,900 us, 3.63%)</title><rect x="474.8" y="135" width="42.8" height="15.0" fill="rgb(0,0,0)" rx="2" ry="2" />
<text  x="477.83" y="145.5" >fir..</text>
</g>
<g >
<title>pyop2.global_kernel.GlobalKernel.compile (1,789,843 us, 0.72%)</title><rect x="27.2" y="119" width="8.6" height="15.0" fill="rgb(0,0,0)" rx="2" ry="2" />
<text  x="30.25" y="129.5" ></text>
</g>
<g >
<title>Log_Event_slate_loopy_knl_14 (31,694 us, 0.01%)</title><rect x="527.9" y="183" width="0.2" height="15.0" fill="rgb(0,0,0)" rx="2" ry="2" />
<text  x="530.90" y="193.5" ></text>
</g>
<g >
<title>PCSetUp (337,420 us, 0.14%)</title><rect x="404.0" y="135" width="1.6" height="15.0" fill="rgb(0,0,0)" rx="2" ry="2" />
<text  x="406.95" y="145.5" ></text>
</g>
<g >
<title>firedrake (247,983,119 us, 100.00%)</title><rect x="10.0" y="55" width="1180.0" height="15.0" fill="rgb(0,0,0)" rx="2" ry="2" />
<text  x="13.00" y="65.5" >firedrake</text>
</g>
<g >
<title>firedrake.tsfc_interface.compile_form (3,540,693 us, 1.43%)</title><rect x="98.3" y="87" width="16.9" height="15.0" fill="rgb(0,0,0)" rx="2" ry="2" />
<text  x="101.32" y="97.5" ></text>
</g>
<g >
<title>firedrake.norms.norm (11,114,395 us, 4.48%)</title><rect x="421.9" y="87" width="52.9" height="15.0" fill="rgb(0,0,0)" rx="2" ry="2" />
<text  x="424.94" y="97.5" >fire..</text>
</g>
<g >
<title>inv_getrf (57,332 us, 0.02%)</title><rect x="957.7" y="199" width="0.3" height="15.0" fill="rgb(0,0,0)" rx="2" ry="2" />
<text  x="960.74" y="209.5" ></text>
</g>
<g >
<title>firedrake.tsfc_interface.compile_form (1,306,901 us, 0.53%)</title><rect x="511.4" y="151" width="6.2" height="15.0" fill="rgb(0,0,0)" rx="2" ry="2" />
<text  x="514.41" y="161.5" ></text>
</g>
<g >
<title>firedrake.assemble.assemble (11,114,395 us, 4.48%)</title><rect x="421.9" y="103" width="52.9" height="15.0" fill="rgb(0,0,0)" rx="2" ry="2" />
<text  x="424.94" y="113.5" >fire..</text>
</g>
<g >
<title>Log_Event_form00_interior_facet_vert_integral_otherwise (32,790 us, 0.01%)</title><rect x="356.4" y="151" width="0.2" height="15.0" fill="rgb(0,0,0)" rx="2" ry="2" />
<text  x="359.43" y="161.5" ></text>
</g>
<g >
<title>ParLoopExecute (863,297 us, 0.35%)</title><rect x="799.4" y="183" width="4.2" height="15.0" fill="rgb(0,0,0)" rx="2" ry="2" />
<text  x="802.45" y="193.5" ></text>
</g>
<g >
<title>Parloop_Cells_wrap_par_loop_kernel (885,136 us, 0.36%)</title><rect x="523.4" y="199" width="4.2" height="15.0" fill="rgb(0,0,0)" rx="2" ry="2" />
<text  x="526.38" y="209.5" ></text>
</g>
<g >
<title>pyop2.global_kernel.GlobalKernel.compile (5,628,463 us, 2.27%)</title><rect x="329.6" y="151" width="26.8" height="15.0" fill="rgb(0,0,0)" rx="2" ry="2" />
<text  x="332.65" y="161.5" >p..</text>
</g>
<g >
<title>pyop2.global_kernel.GlobalKernel.compile (21,729,058 us, 8.76%)</title><rect x="528.1" y="183" width="103.3" height="15.0" fill="rgb(0,0,0)" rx="2" ry="2" />
<text  x="531.05" y="193.5" >pyop2.globa..</text>
</g>
<g >
<title>MatCholFctrNum (337,420 us, 0.14%)</title><rect x="404.0" y="151" width="1.6" height="15.0" fill="rgb(0,0,0)" rx="2" ry="2" />
<text  x="406.95" y="161.5" ></text>
</g>
<g >
<title>pyop2.global_kernel.GlobalKernel.compile (676,268 us, 0.27%)</title><rect x="1144.5" y="183" width="3.2" height="15.0" fill="rgb(0,0,0)" rx="2" ry="2" />
<text  x="1147.46" y="193.5" ></text>
</g>
<g >
<title>pyop2.global_kernel.GlobalKernel.compile (4,007,250 us, 1.62%)</title><rect x="1147.7" y="151" width="19.0" height="15.0" fill="rgb(0,0,0)" rx="2" ry="2" />
<text  x="1150.68" y="161.5" ></text>
</g>
<g >
<title>firedrake.extrusion_utils.make_extruded_coords (910,499 us, 0.37%)</title><rect x="15.5" y="87" width="4.3" height="15.0" fill="rgb(0,0,0)" rx="2" ry="2" />
<text  x="18.51" y="97.5" ></text>
</g>
<g >
<title>ParLoopExecute (21,826,789 us, 8.80%)</title><rect x="527.6" y="151" width="103.8" height="15.0" fill="rgb(0,0,0)" rx="2" ry="2" />
<text  x="530.59" y="161.5" >ParLoopExec..</text>
</g>
<g >
<title>pyop2.global_kernel.GlobalKernel.compile (26,883,116 us, 10.84%)</title><rect x="640.5" y="199" width="127.9" height="15.0" fill="rgb(0,0,0)" rx="2" ry="2" />
<text  x="643.48" y="209.5" >pyop2.global_k..</text>
</g>
<g >
<title>pyop2.global_kernel.GlobalKernel.compile (2,797,367 us, 1.13%)</title><rect x="155.3" y="135" width="13.4" height="15.0" fill="rgb(0,0,0)" rx="2" ry="2" />
<text  x="158.35" y="145.5" ></text>
</g>
<g >
<title>firedrake.function.Function.project (64,470,163 us, 26.00%)</title><rect x="115.2" y="71" width="306.7" height="15.0" fill="rgb(0,0,0)" rx="2" ry="2" />
<text  x="118.17" y="81.5" >firedrake.function.Function.project</text>
</g>
<g >
<title>ParLoopExecute (35,337,951 us, 14.25%)</title><rect x="956.6" y="151" width="168.2" height="15.0" fill="rgb(0,0,0)" rx="2" ry="2" />
<text  x="959.65" y="161.5" >ParLoopExecute</text>
</g>
<g >
<title>firedrake.projection.project (64,470,163 us, 26.00%)</title><rect x="115.2" y="87" width="306.7" height="15.0" fill="rgb(0,0,0)" rx="2" ry="2" />
<text  x="118.17" y="97.5" >firedrake.projection.project</text>
</g>
<g >
<title>ParLoopExecute (27,254,044 us, 10.99%)</title><rect x="638.7" y="167" width="129.7" height="15.0" fill="rgb(0,0,0)" rx="2" ry="2" />
<text  x="641.72" y="177.5" >ParLoopExecute</text>
</g>
<g >
<title>pyop2.global_kernel.GlobalKernel.compile (878,775 us, 0.35%)</title><rect x="15.7" y="135" width="4.1" height="15.0" fill="rgb(0,0,0)" rx="2" ry="2" />
<text  x="18.66" y="145.5" ></text>
</g>
<g >
<title>ParLoopExecute (7,688,999 us, 3.10%)</title><rect x="474.8" y="151" width="36.6" height="15.0" fill="rgb(0,0,0)" rx="2" ry="2" />
<text  x="477.83" y="161.5" >Pa..</text>
</g>
<g >
<title>firedrake.linear_solver.LinearSolver.solve (379,124 us, 0.15%)</title><rect x="403.8" y="103" width="1.8" height="15.0" fill="rgb(0,0,0)" rx="2" ry="2" />
<text  x="406.75" y="113.5" ></text>
</g>
<g >
<title>Parloop_IntFacets_wrap_form_interior_facet_vert_integral_otherwise (4,305,004 us, 1.74%)</title><rect x="74.2" y="103" width="20.5" height="15.0" fill="rgb(0,0,0)" rx="2" ry="2" />
<text  x="77.21" y="113.5" ></text>
</g>
<g >
<title>ParLoopExecute (26,640,298 us, 10.74%)</title><rect x="810.1" y="167" width="126.8" height="15.0" fill="rgb(0,0,0)" rx="2" ry="2" />
<text  x="813.09" y="177.5" >ParLoopExecute</text>
</g>
<g >
<title>Parloop_Cells_wrap_form0_cell_integral_otherwise (4,007,250 us, 1.62%)</title><rect x="1147.7" y="135" width="19.0" height="15.0" fill="rgb(0,0,0)" rx="2" ry="2" />
<text  x="1150.68" y="145.5" ></text>
</g>
<g >
<title>firedrake.assemble_expressions.evaluate_expression (761,502 us, 0.31%)</title><rect x="94.7" y="103" width="3.6" height="15.0" fill="rgb(0,0,0)" rx="2" ry="2" />
<text  x="97.70" y="113.5" ></text>
</g>
<g >
<title>firedrake.tsfc_interface.compile_form (3,907,533 us, 1.58%)</title><rect x="768.4" y="167" width="18.6" height="15.0" fill="rgb(0,0,0)" rx="2" ry="2" />
<text  x="771.40" y="177.5" ></text>
</g>
<g >
<title>Parloop_Cells_wrap_wrap_slate_loopy_knl_0 (35,337,951 us, 14.25%)</title><rect x="956.6" y="167" width="168.2" height="15.0" fill="rgb(0,0,0)" rx="2" ry="2" />
<text  x="959.65" y="177.5" >Parloop_Cells_wrap_..</text>
</g>
<g >
<title>Parloop_Cells_wrap_form1_cell_integral_otherwise (3,606,014 us, 1.45%)</title><rect x="494.3" y="167" width="17.1" height="15.0" fill="rgb(0,0,0)" rx="2" ry="2" />
<text  x="497.26" y="177.5" ></text>
</g>
<g >
<title>ParLoopExecute (885,136 us, 0.36%)</title><rect x="523.4" y="183" width="4.2" height="15.0" fill="rgb(0,0,0)" rx="2" ry="2" />
<text  x="526.38" y="193.5" ></text>
</g>
<g >
<title>Parloop_Cells_wrap_form0_exterior_facet_bottom_integral_otherwise (1,788,694 us, 0.72%)</title><rect x="138.5" y="119" width="8.5" height="15.0" fill="rgb(0,0,0)" rx="2" ry="2" />
<text  x="141.50" y="129.5" ></text>
</g>
<g >
<title>pyop2.global_kernel.GlobalKernel.compile (9,979,011 us, 4.02%)</title><rect x="421.9" y="151" width="47.5" height="15.0" fill="rgb(0,0,0)" rx="2" ry="2" />
<text  x="424.94" y="161.5" >pyop..</text>
</g>
<g >
<title>pyop2.global_kernel.GlobalKernel.compile (863,297 us, 0.35%)</title><rect x="799.4" y="215" width="4.2" height="15.0" fill="rgb(0,0,0)" rx="2" ry="2" />
<text  x="802.45" y="225.5" ></text>
</g>
<g >
<title>Parloop_Cells_wrap_form00_cell_integral_otherwise (17,856,723 us, 7.20%)</title><rect x="210.7" y="135" width="85.0" height="15.0" fill="rgb(0,0,0)" rx="2" ry="2" />
<text  x="213.70" y="145.5" >Parloop_C..</text>
</g>
<g >
<title>ParLoopExecute (878,775 us, 0.35%)</title><rect x="15.7" y="103" width="4.1" height="15.0" fill="rgb(0,0,0)" rx="2" ry="2" />
<text  x="18.66" y="113.5" ></text>
</g>
<g >
<title>pyop2.global_kernel.GlobalKernel.compile (1,788,694 us, 0.72%)</title><rect x="138.5" y="135" width="8.5" height="15.0" fill="rgb(0,0,0)" rx="2" ry="2" />
<text  x="141.50" y="145.5" ></text>
</g>
<g >
<title>solve_getrf (31,694 us, 0.01%)</title><rect x="527.9" y="199" width="0.2" height="15.0" fill="rgb(0,0,0)" rx="2" ry="2" />
<text  x="530.90" y="209.5" ></text>
</g>
<g >
<title>Log_Event_subkernel6_cell_to__cell_integral_otherwise (75,494 us, 0.03%)</title><rect x="810.5" y="199" width="0.3" height="15.0" fill="rgb(0,0,0)" rx="2" ry="2" />
<text  x="813.49" y="209.5" ></text>
</g>
<g >
<title>pyop2.global_kernel.GlobalKernel.compile (3,606,014 us, 1.45%)</title><rect x="494.3" y="183" width="17.1" height="15.0" fill="rgb(0,0,0)" rx="2" ry="2" />
<text  x="497.26" y="193.5" ></text>
</g>
<g >
<title>Parloop_Cells_wrap_wrap_slate_loopy_knl_4 (26,640,298 us, 10.74%)</title><rect x="810.1" y="183" width="126.8" height="15.0" fill="rgb(0,0,0)" rx="2" ry="2" />
<text  x="813.09" y="193.5" >Parloop_Cells_..</text>
</g>
<g >
<title>pyop2.global_kernel.GlobalKernel.compile (2,443,414 us, 0.99%)</title><rect x="295.7" y="151" width="11.6" height="15.0" fill="rgb(0,0,0)" rx="2" ry="2" />
<text  x="298.67" y="161.5" ></text>
</g>
<g >
<title>firedrake.interpolation.make_interpolator (33,600 us, 0.01%)</title><rect x="1144.3" y="135" width="0.2" height="15.0" fill="rgb(0,0,0)" rx="2" ry="2" />
<text  x="1147.30" y="145.5" ></text>
</g>
<g >
<title>Parloop_Cells_wrap_form_exterior_facet_top_integral_otherwise (1,803,429 us, 0.73%)</title><rect x="35.8" y="103" width="8.5" height="15.0" fill="rgb(0,0,0)" rx="2" ry="2" />
<text  x="38.77" y="113.5" ></text>
</g>
<g >
<title>Log_Event_slate_loopy_knl_0 (468,917 us, 0.19%)</title><rect x="957.0" y="183" width="2.2" height="15.0" fill="rgb(0,0,0)" rx="2" ry="2" />
<text  x="959.96" y="193.5" ></text>
</g>
<g >
<title>pyop2.global_kernel.GlobalKernel.compile (1,752,317 us, 0.71%)</title><rect x="147.0" y="135" width="8.3" height="15.0" fill="rgb(0,0,0)" rx="2" ry="2" />
<text  x="150.01" y="145.5" ></text>
</g>
<g >
<title>Log_Event_subkernel2_cell_to__cell_integral_otherwise (73,547 us, 0.03%)</title><rect x="959.2" y="183" width="0.3" height="15.0" fill="rgb(0,0,0)" rx="2" ry="2" />
<text  x="962.19" y="193.5" ></text>
</g>
<g >
<title>Parloop_Cells_wrap_form1_cell_integral_otherwise (3,634,821 us, 1.47%)</title><rect x="1166.7" y="135" width="17.3" height="15.0" fill="rgb(0,0,0)" rx="2" ry="2" />
<text  x="1169.75" y="145.5" ></text>
</g>
<g >
<title>SCForwardElim (31,232,309 us, 12.59%)</title><rect x="799.4" y="135" width="148.7" height="15.0" fill="rgb(0,0,0)" rx="2" ry="2" />
<text  x="802.45" y="145.5" >SCForwardElim</text>
</g>
<g >
<title>Parloop_Cells_wrap_form_interior_facet_horiz_integral_otherwise (2,009,813 us, 0.81%)</title><rect x="44.3" y="103" width="9.6" height="15.0" fill="rgb(0,0,0)" rx="2" ry="2" />
<text  x="47.35" y="113.5" ></text>
</g>
<g >
<title>Parloop_Cells_wrap_form0_cell_integral_otherwise (4,902,703 us, 1.98%)</title><rect x="115.2" y="119" width="23.3" height="15.0" fill="rgb(0,0,0)" rx="2" ry="2" />
<text  x="118.17" y="129.5" >P..</text>
</g>
<g >
<title>Parloop_Cells_wrap_form00_exterior_facet_bottom_integral_otherwise (2,443,414 us, 0.99%)</title><rect x="295.7" y="135" width="11.6" height="15.0" fill="rgb(0,0,0)" rx="2" ry="2" />
<text  x="298.67" y="145.5" ></text>
</g>
<g >
<title>pyop2.global_kernel.GlobalKernel.compile (26,480,717 us, 10.68%)</title><rect x="810.8" y="199" width="126.1" height="15.0" fill="rgb(0,0,0)" rx="2" ry="2" />
<text  x="813.84" y="209.5" >pyop2.global_k..</text>
</g>
<g >
<title>Parloop_ExtFacets_wrap_form_exterior_facet_vert_integral_otherwise (4,266,222 us, 1.72%)</title><rect x="53.9" y="103" width="20.3" height="15.0" fill="rgb(0,0,0)" rx="2" ry="2" />
<text  x="56.91" y="113.5" ></text>
</g>
<g >
<title>HybridRHS (30,369,012 us, 12.25%)</title><rect x="803.6" y="151" width="144.5" height="15.0" fill="rgb(0,0,0)" rx="2" ry="2" />
<text  x="806.56" y="161.5" >HybridRHS</text>
</g>
<g >
<title>ParLoopExecute (9,979,011 us, 4.02%)</title><rect x="421.9" y="119" width="47.5" height="15.0" fill="rgb(0,0,0)" rx="2" ry="2" />
<text  x="424.94" y="129.5" >ParL..</text>
</g>
<g >
<title>Parloop_Cells_wrap_form00_exterior_facet_top_integral_otherwise (2,195,114 us, 0.89%)</title><rect x="307.3" y="135" width="10.4" height="15.0" fill="rgb(0,0,0)" rx="2" ry="2" />
<text  x="310.30" y="145.5" ></text>
</g>
<g >
<title>firedrake.parloops.par_loop (885,136 us, 0.36%)</title><rect x="523.4" y="167" width="4.2" height="15.0" fill="rgb(0,0,0)" rx="2" ry="2" />
<text  x="526.38" y="177.5" ></text>
</g>
<g >
<title>solve_getrf (64,532 us, 0.03%)</title><rect x="640.1" y="215" width="0.3" height="15.0" fill="rgb(0,0,0)" rx="2" ry="2" />
<text  x="643.05" y="225.5" ></text>
</g>
<g >
<title>ParLoopExecute (20,077,586 us, 8.10%)</title><rect x="115.2" y="103" width="95.5" height="15.0" fill="rgb(0,0,0)" rx="2" ry="2" />
<text  x="118.17" y="113.5" >ParLoopExe..</text>
</g>
<g >
<title>pyop2.global_kernel.GlobalKernel.compile (34,729,863 us, 14.00%)</title><rect x="959.5" y="183" width="165.3" height="15.0" fill="rgb(0,0,0)" rx="2" ry="2" />
<text  x="962.54" y="193.5" >pyop2.global_kernel..</text>
</g>
<g >
<title>HybridProject (885,136 us, 0.36%)</title><rect x="523.4" y="151" width="4.2" height="15.0" fill="rgb(0,0,0)" rx="2" ry="2" />
<text  x="526.38" y="161.5" ></text>
</g>
<g >
<title>ParLoopExecute (761,502 us, 0.31%)</title><rect x="94.7" y="119" width="3.6" height="15.0" fill="rgb(0,0,0)" rx="2" ry="2" />
<text  x="97.70" y="129.5" ></text>
</g>
<g >
<title>firedrake.tsfc_interface.compile_form (1,251,731 us, 0.50%)</title><rect x="1184.0" y="119" width="6.0" height="15.0" fill="rgb(0,0,0)" rx="2" ry="2" />
<text  x="1187.04" y="129.5" ></text>
</g>
<g >
<title>CreateSparsity (42,745 us, 0.02%)</title><rect x="1144.1" y="151" width="0.2" height="15.0" fill="rgb(0,0,0)" rx="2" ry="2" />
<text  x="1147.10" y="161.5" ></text>
</g>
<g >
<title>firedrake.assemble.assemble (18,476,506 us, 7.45%)</title><rect x="27.2" y="71" width="88.0" height="15.0" fill="rgb(0,0,0)" rx="2" ry="2" />
<text  x="30.25" y="81.5" >firedrake..</text>
</g>
<g >
<title>SNESFunctionEval (8,893,802 us, 3.59%)</title><rect x="1147.7" y="103" width="42.3" height="15.0" fill="rgb(0,0,0)" rx="2" ry="2" />
<text  x="1150.68" y="113.5" >SNE..</text>
</g>
<g >
<title>pyop2.global_kernel.GlobalKernel.compile (381,755 us, 0.15%)</title><rect x="96.5" y="151" width="1.8" height="15.0" fill="rgb(0,0,0)" rx="2" ry="2" />
<text  x="99.50" y="161.5" ></text>
</g>
<g >
<title>pyop2.global_kernel.GlobalKernel.compile (4,305,004 us, 1.74%)</title><rect x="74.2" y="119" width="20.5" height="15.0" fill="rgb(0,0,0)" rx="2" ry="2" />
<text  x="77.21" y="129.5" ></text>
</g>
<g >
<title>Parloop_Cells_wrap_wrap_slate_loopy_knl_7 (27,254,044 us, 10.99%)</title><rect x="638.7" y="183" width="129.7" height="15.0" fill="rgb(0,0,0)" rx="2" ry="2" />
<text  x="641.72" y="193.5" >Parloop_Cells_..</text>
</g>
<g >
<title>all (247,983,119 us, 100%)</title><rect x="10.0" y="39" width="1180.0" height="15.0" fill="rgb(0,0,0)" rx="2" ry="2" />
<text  x="13.00" y="49.5" ></text>
</g>
<g >
<title>Parloop_Cells_wrap_form00_interior_facet_horiz_integral_otherwise (2,475,875 us, 1.00%)</title><rect x="317.7" y="135" width="11.8" height="15.0" fill="rgb(0,0,0)" rx="2" ry="2" />
<text  x="320.74" y="145.5" ></text>
</g>
<g >
<title>Parloop_Cells_wrap_form0_exterior_facet_top_integral_otherwise (1,752,317 us, 0.71%)</title><rect x="147.0" y="119" width="8.3" height="15.0" fill="rgb(0,0,0)" rx="2" ry="2" />
<text  x="150.01" y="129.5" ></text>
</g>
<g >
<title>Parloop_IntFacets_wrap_form00_interior_facet_vert_integral_otherwise (5,319,734 us, 2.15%)</title><rect x="356.4" y="135" width="25.3" height="15.0" fill="rgb(0,0,0)" rx="2" ry="2" />
<text  x="359.43" y="145.5" >P..</text>
</g>
<g >
<title>Parloop_Cells_wrap_form_exterior_facet_bottom_integral_otherwise (1,789,843 us, 0.72%)</title><rect x="27.2" y="103" width="8.6" height="15.0" fill="rgb(0,0,0)" rx="2" ry="2" />
<text  x="30.25" y="113.5" ></text>
</g>
<g >
<title>solve_getrf (58,130 us, 0.02%)</title><rect x="810.1" y="215" width="0.3" height="15.0" fill="rgb(0,0,0)" rx="2" ry="2" />
<text  x="813.09" y="225.5" ></text>
</g>
<g >
<title>pyop2.global_kernel.GlobalKernel.compile (5,286,944 us, 2.13%)</title><rect x="356.6" y="151" width="25.1" height="15.0" fill="rgb(0,0,0)" rx="2" ry="2" />
<text  x="359.59" y="161.5" >p..</text>
</g>
<g >
<title>pyop2.global_kernel.GlobalKernel.compile (2,195,114 us, 0.89%)</title><rect x="307.3" y="151" width="10.4" height="15.0" fill="rgb(0,0,0)" rx="2" ry="2" />
<text  x="310.30" y="161.5" ></text>
</g>
<g >
<title>pyop2.global_kernel.GlobalKernel.compile (4,082,985 us, 1.65%)</title><rect x="474.8" y="183" width="19.5" height="15.0" fill="rgb(0,0,0)" rx="2" ry="2" />
<text  x="477.83" y="193.5" ></text>
</g>
<g >
<title>inv_getri (125,184 us, 0.05%)</title><rect x="639.5" y="215" width="0.6" height="15.0" fill="rgb(0,0,0)" rx="2" ry="2" />
<text  x="642.46" y="225.5" ></text>
</g>
<g >
<title>pyop2.global_kernel.GlobalKernel.compile (4,577,429 us, 1.85%)</title><rect x="188.9" y="135" width="21.8" height="15.0" fill="rgb(0,0,0)" rx="2" ry="2" />
<text  x="191.92" y="145.5" ></text>
</g>
<g >
<title>firedrake.__init__ (1,531,213 us, 0.62%)</title><rect x="20.0" y="71" width="7.2" height="15.0" fill="rgb(0,0,0)" rx="2" ry="2" />
<text  x="22.96" y="81.5" ></text>
</g>
<g >
<title>Parloop_Cells_wrap_par_loop_kernel (863,297 us, 0.35%)</title><rect x="799.4" y="199" width="4.2" height="15.0" fill="rgb(0,0,0)" rx="2" ry="2" />
<text  x="802.45" y="209.5" ></text>
</g>
<g >
<title>ParLoopExecute (14,174,311 us, 5.72%)</title><rect x="27.2" y="87" width="67.5" height="15.0" fill="rgb(0,0,0)" rx="2" ry="2" />
<text  x="30.25" y="97.5" >ParLoo..</text>
</g>
<g >
<title>KSPSolve (25,350 us, 0.01%)</title><rect x="948.1" y="151" width="0.1" height="15.0" fill="rgb(0,0,0)" rx="2" ry="2" />
<text  x="951.06" y="161.5" ></text>
</g>
<g >
<title>KSPSolve (99,478,209 us, 40.11%)</title><rect x="474.8" y="103" width="473.4" height="15.0" fill="rgb(0,0,0)" rx="2" ry="2" />
<text  x="477.83" y="113.5" >KSPSolve</text>
</g>
<g >
<title>MatZeroInitial (371,354 us, 0.15%)</title><rect x="384.9" y="135" width="1.8" height="15.0" fill="rgb(0,0,0)" rx="2" ry="2" />
<text  x="387.88" y="145.5" ></text>
</g>
<g >
<title>firedrake.tsfc_interface.compile_form (3,442,844 us, 1.39%)</title><rect x="405.6" y="103" width="16.3" height="15.0" fill="rgb(0,0,0)" rx="2" ry="2" />
<text  x="408.56" y="113.5" ></text>
</g>
<g >
<title>CreateSparsity (659,951 us, 0.27%)</title><rect x="381.7" y="135" width="3.2" height="15.0" fill="rgb(0,0,0)" rx="2" ry="2" />
<text  x="384.74" y="145.5" ></text>
</g>
<g >
<title>Parloop_set_#x7f2a904925c0_wrap_expression_kernel (379,747 us, 0.15%)</title><rect x="94.7" y="135" width="1.8" height="15.0" fill="rgb(0,0,0)" rx="2" ry="2" />
<text  x="97.70" y="145.5" ></text>
</g>
<g >
<title>inv_getrf (30,867 us, 0.01%)</title><rect x="639.3" y="215" width="0.2" height="15.0" fill="rgb(0,0,0)" rx="2" ry="2" />
<text  x="642.31" y="225.5" ></text>
</g>
<g >
<title>RecoverFirstElim (32,689,493 us, 13.18%)</title><rect x="631.4" y="151" width="155.6" height="15.0" fill="rgb(0,0,0)" rx="2" ry="2" />
<text  x="634.45" y="161.5" >RecoverFirstElim</text>
</g>
<g >
<title>HybridOperatorAssembly (41,121,608 us, 16.58%)</title><rect x="948.4" y="135" width="195.7" height="15.0" fill="rgb(0,0,0)" rx="2" ry="2" />
<text  x="951.43" y="145.5" >HybridOperatorAssembly</text>
</g>
<g >
<title>ParLoopExecute (7,642,071 us, 3.08%)</title><rect x="1147.7" y="119" width="36.3" height="15.0" fill="rgb(0,0,0)" rx="2" ry="2" />
<text  x="1150.68" y="129.5" >Pa..</text>
</g>
<g >
<title>Parloop_ExtFacets_wrap_form00_exterior_facet_vert_integral_otherwise (5,653,905 us, 2.28%)</title><rect x="329.5" y="135" width="26.9" height="15.0" fill="rgb(0,0,0)" rx="2" ry="2" />
<text  x="332.53" y="145.5" >P..</text>
</g>
<g >
<title>MatMult (8,995,900 us, 3.63%)</title><rect x="474.8" y="119" width="42.8" height="15.0" fill="rgb(0,0,0)" rx="2" ry="2" />
<text  x="477.83" y="129.5" >Mat..</text>
</g>
<g >
<title>firedrake.tsfc_interface.compile_form (3,594,539 us, 1.45%)</title><rect x="386.7" y="119" width="17.1" height="15.0" fill="rgb(0,0,0)" rx="2" ry="2" />
<text  x="389.65" y="129.5" ></text>
</g>
<g >
<title>CreateFunctionSpace (25,926 us, 0.01%)</title><rect x="19.8" y="71" width="0.2" height="15.0" fill="rgb(0,0,0)" rx="2" ry="2" />
<text  x="22.84" y="81.5" ></text>
</g>
<g >
<title>SCSolve (25,350 us, 0.01%)</title><rect x="948.1" y="135" width="0.1" height="15.0" fill="rgb(0,0,0)" rx="2" ry="2" />
<text  x="951.06" y="145.5" ></text>
</g>
</g>
</svg>
