<?xml version="1.0" standalone="no"?>
<!DOCTYPE svg PUBLIC "-//W3C//DTD SVG 1.1//EN" "http://www.w3.org/Graphics/SVG/1.1/DTD/svg11.dtd">
<svg version="1.1" width="1200" height="427" onload="init(evt)" viewBox="0 0 1200 427" xmlns="http://www.w3.org/2000/svg" xmlns:xlink="http://www.w3.org/1999/xlink">
<!-- Flame graph stack visualization. See https://github.com/brendangregg/FlameGraph for latest version, and http://www.brendangregg.com/flamegraphs.html for examples. -->
<!-- NOTES:  -->
<defs>
	<linearGradient id="background" y1="0" y2="1" x1="0" x2="0" >
		<stop stop-color="#eeeeee" offset="5%" />
		<stop stop-color="#eeeeb0" offset="95%" />
	</linearGradient>
</defs>
<style type="text/css">
	text { font-family:Verdana; font-size:13px; fill:rgb(0,0,0); }
	#search, #ignorecase { opacity:0.1; cursor:pointer; }
	#search:hover, #search.show, #ignorecase:hover, #ignorecase.show { opacity:1; }
	#subtitle { text-anchor:middle; font-color:rgb(160,160,160); }
	#title { text-anchor:middle; font-size:18px}
	#unzoom { cursor:pointer; }
	#frames > *:hover { stroke:black; stroke-width:0.5; cursor:pointer; }
	.hide { display:none; }
	.parent { opacity:0.5; }
</style>
<script type="text/ecmascript">
<![CDATA[
	"use strict";
	var details, searchbtn, unzoombtn, matchedtxt, svg, searching, currentSearchTerm, ignorecase, ignorecaseBtn;
	function init(evt) {
		details = document.getElementById("details").firstChild;
		searchbtn = document.getElementById("search");
		ignorecaseBtn = document.getElementById("ignorecase");
		unzoombtn = document.getElementById("unzoom");
		matchedtxt = document.getElementById("matched");
		svg = document.getElementsByTagName("svg")[0];
		searching = 0;
		currentSearchTerm = null;

		// use GET parameters to restore a flamegraphs state.
		var params = get_params();
		if (params.x && params.y)
			zoom(find_group(document.querySelector('[x="' + params.x + '"][y="' + params.y + '"]')));
                if (params.s) search(params.s);
	}

	// event listeners
	window.addEventListener("click", function(e) {
		var target = find_group(e.target);
		if (target) {
			if (target.nodeName == "a") {
				if (e.ctrlKey === false) return;
				e.preventDefault();
			}
			if (target.classList.contains("parent")) unzoom();
			zoom(target);
			if (!document.querySelector('.parent')) {
				clearzoom();
				return;
			}

			// set parameters for zoom state
			var el = target.querySelector("rect");
			if (el && el.attributes && el.attributes.y && el.attributes._orig_x) {
				var params = get_params()
				params.x = el.attributes._orig_x.value;
				params.y = el.attributes.y.value;
				history.replaceState(null, null, parse_params(params));
			}
		}
		else if (e.target.id == "unzoom") clearzoom();
		else if (e.target.id == "search") search_prompt();
		else if (e.target.id == "ignorecase") toggle_ignorecase();
	}, false)

	// mouse-over for info
	// show
	window.addEventListener("mouseover", function(e) {
		var target = find_group(e.target);
		if (target) details.nodeValue = "Function: " + g_to_text(target);
	}, false)

	// clear
	window.addEventListener("mouseout", function(e) {
		var target = find_group(e.target);
		if (target) details.nodeValue = ' ';
	}, false)

	// ctrl-F for search
	// ctrl-I to toggle case-sensitive search
	window.addEventListener("keydown",function (e) {
		if (e.keyCode === 114 || (e.ctrlKey && e.keyCode === 70)) {
			e.preventDefault();
			search_prompt();
		}
		else if (e.ctrlKey && e.keyCode === 73) {
			e.preventDefault();
			toggle_ignorecase();
		}
	}, false)

	// functions
	function get_params() {
		var params = {};
		var paramsarr = window.location.search.substr(1).split('&');
		for (var i = 0; i < paramsarr.length; ++i) {
			var tmp = paramsarr[i].split("=");
			if (!tmp[0] || !tmp[1]) continue;
			params[tmp[0]]  = decodeURIComponent(tmp[1]);
		}
		return params;
	}
	function parse_params(params) {
		var uri = "?";
		for (var key in params) {
			uri += key + '=' + encodeURIComponent(params[key]) + '&';
		}
		if (uri.slice(-1) == "&")
			uri = uri.substring(0, uri.length - 1);
		if (uri == '?')
			uri = window.location.href.split('?')[0];
		return uri;
	}
	function find_child(node, selector) {
		var children = node.querySelectorAll(selector);
		if (children.length) return children[0];
	}
	function find_group(node) {
		var parent = node.parentElement;
		if (!parent) return;
		if (parent.id == "frames") return node;
		return find_group(parent);
	}
	function orig_save(e, attr, val) {
		if (e.attributes["_orig_" + attr] != undefined) return;
		if (e.attributes[attr] == undefined) return;
		if (val == undefined) val = e.attributes[attr].value;
		e.setAttribute("_orig_" + attr, val);
	}
	function orig_load(e, attr) {
		if (e.attributes["_orig_"+attr] == undefined) return;
		e.attributes[attr].value = e.attributes["_orig_" + attr].value;
		e.removeAttribute("_orig_"+attr);
	}
	function g_to_text(e) {
		var text = find_child(e, "title").firstChild.nodeValue;
		return (text)
	}
	function g_to_func(e) {
		var func = g_to_text(e);
		// if there's any manipulation we want to do to the function
		// name before it's searched, do it here before returning.
		return (func);
	}
	function update_text(e) {
		var r = find_child(e, "rect");
		var t = find_child(e, "text");
		var w = parseFloat(r.attributes.width.value) -3;
		var txt = find_child(e, "title").textContent.replace(/\([^(]*\)$/,"");
		t.attributes.x.value = parseFloat(r.attributes.x.value) + 3;

		// Smaller than this size won't fit anything
		if (w < 2 * 13 * 0.59) {
			t.textContent = "";
			return;
		}

		t.textContent = txt;
		// Fit in full text width
		if (/^ *$/.test(txt) || t.getSubStringLength(0, txt.length) < w)
			return;

		for (var x = txt.length - 2; x > 0; x--) {
			if (t.getSubStringLength(0, x + 2) <= w) {
				t.textContent = txt.substring(0, x) + "..";
				return;
			}
		}
		t.textContent = "";
	}

	// zoom
	function zoom_reset(e) {
		if (e.attributes != undefined) {
			orig_load(e, "x");
			orig_load(e, "width");
		}
		if (e.childNodes == undefined) return;
		for (var i = 0, c = e.childNodes; i < c.length; i++) {
			zoom_reset(c[i]);
		}
	}
	function zoom_child(e, x, ratio) {
		if (e.attributes != undefined) {
			if (e.attributes.x != undefined) {
				orig_save(e, "x");
				e.attributes.x.value = (parseFloat(e.attributes.x.value) - x - 10) * ratio + 10;
				if (e.tagName == "text")
					e.attributes.x.value = find_child(e.parentNode, "rect[x]").attributes.x.value + 3;
			}
			if (e.attributes.width != undefined) {
				orig_save(e, "width");
				e.attributes.width.value = parseFloat(e.attributes.width.value) * ratio;
			}
		}

		if (e.childNodes == undefined) return;
		for (var i = 0, c = e.childNodes; i < c.length; i++) {
			zoom_child(c[i], x - 10, ratio);
		}
	}
	function zoom_parent(e) {
		if (e.attributes) {
			if (e.attributes.x != undefined) {
				orig_save(e, "x");
				e.attributes.x.value = 10;
			}
			if (e.attributes.width != undefined) {
				orig_save(e, "width");
				e.attributes.width.value = parseInt(svg.width.baseVal.value) - (10 * 2);
			}
		}
		if (e.childNodes == undefined) return;
		for (var i = 0, c = e.childNodes; i < c.length; i++) {
			zoom_parent(c[i]);
		}
	}
	function zoom(node) {
		var attr = find_child(node, "rect").attributes;
		var width = parseFloat(attr.width.value);
		var xmin = parseFloat(attr.x.value);
		var xmax = parseFloat(xmin + width);
		var ymin = parseFloat(attr.y.value);
		var ratio = (svg.width.baseVal.value - 2 * 10) / width;

		// XXX: Workaround for JavaScript float issues (fix me)
		var fudge = 0.0001;

		unzoombtn.classList.remove("hide");

		var el = document.getElementById("frames").children;
		for (var i = 0; i < el.length; i++) {
			var e = el[i];
			var a = find_child(e, "rect").attributes;
			var ex = parseFloat(a.x.value);
			var ew = parseFloat(a.width.value);
			var upstack;
			// Is it an ancestor
			if (1 == 0) {
				upstack = parseFloat(a.y.value) > ymin;
			} else {
				upstack = parseFloat(a.y.value) < ymin;
			}
			if (upstack) {
				// Direct ancestor
				if (ex <= xmin && (ex+ew+fudge) >= xmax) {
					e.classList.add("parent");
					zoom_parent(e);
					update_text(e);
				}
				// not in current path
				else
					e.classList.add("hide");
			}
			// Children maybe
			else {
				// no common path
				if (ex < xmin || ex + fudge >= xmax) {
					e.classList.add("hide");
				}
				else {
					zoom_child(e, xmin, ratio);
					update_text(e);
				}
			}
		}
		search();
	}
	function unzoom() {
		unzoombtn.classList.add("hide");
		var el = document.getElementById("frames").children;
		for(var i = 0; i < el.length; i++) {
			el[i].classList.remove("parent");
			el[i].classList.remove("hide");
			zoom_reset(el[i]);
			update_text(el[i]);
		}
		search();
	}
	function clearzoom() {
		unzoom();

		// remove zoom state
		var params = get_params();
		if (params.x) delete params.x;
		if (params.y) delete params.y;
		history.replaceState(null, null, parse_params(params));
	}

	// search
	function toggle_ignorecase() {
		ignorecase = !ignorecase;
		if (ignorecase) {
			ignorecaseBtn.classList.add("show");
		} else {
			ignorecaseBtn.classList.remove("show");
		}
		reset_search();
		search();
	}
	function reset_search() {
		var el = document.querySelectorAll("#frames rect");
		for (var i = 0; i < el.length; i++) {
			orig_load(el[i], "fill")
		}
		var params = get_params();
		delete params.s;
		history.replaceState(null, null, parse_params(params));
	}
	function search_prompt() {
		if (!searching) {
			var term = prompt("Enter a search term (regexp " +
			    "allowed, eg: ^ext4_)"
			    + (ignorecase ? ", ignoring case" : "")
			    + "\nPress Ctrl-i to toggle case sensitivity", "");
			if (term != null) search(term);
		} else {
			reset_search();
			searching = 0;
			currentSearchTerm = null;
			searchbtn.classList.remove("show");
			searchbtn.firstChild.nodeValue = "Search"
			matchedtxt.classList.add("hide");
			matchedtxt.firstChild.nodeValue = ""
		}
	}
	function search(term) {
		if (term) currentSearchTerm = term;

		var re = new RegExp(currentSearchTerm, ignorecase ? 'i' : '');
		var el = document.getElementById("frames").children;
		var matches = new Object();
		var maxwidth = 0;
		for (var i = 0; i < el.length; i++) {
			var e = el[i];
			var func = g_to_func(e);
			var rect = find_child(e, "rect");
			if (func == null || rect == null)
				continue;

			// Save max width. Only works as we have a root frame
			var w = parseFloat(rect.attributes.width.value);
			if (w > maxwidth)
				maxwidth = w;

			if (func.match(re)) {
				// highlight
				var x = parseFloat(rect.attributes.x.value);
				orig_save(rect, "fill");
				rect.attributes.fill.value = "rgb(230,0,230)";

				// remember matches
				if (matches[x] == undefined) {
					matches[x] = w;
				} else {
					if (w > matches[x]) {
						// overwrite with parent
						matches[x] = w;
					}
				}
				searching = 1;
			}
		}
		if (!searching)
			return;
		var params = get_params();
		params.s = currentSearchTerm;
		history.replaceState(null, null, parse_params(params));

		searchbtn.classList.add("show");
		searchbtn.firstChild.nodeValue = "Reset Search";

		// calculate percent matched, excluding vertical overlap
		var count = 0;
		var lastx = -1;
		var lastw = 0;
		var keys = Array();
		for (k in matches) {
			if (matches.hasOwnProperty(k))
				keys.push(k);
		}
		// sort the matched frames by their x location
		// ascending, then width descending
		keys.sort(function(a, b){
			return a - b;
		});
		// Step through frames saving only the biggest bottom-up frames
		// thanks to the sort order. This relies on the tree property
		// where children are always smaller than their parents.
		var fudge = 0.0001;	// JavaScript floating point
		for (var k in keys) {
			var x = parseFloat(keys[k]);
			var w = matches[keys[k]];
			if (x >= lastx + lastw - fudge) {
				count += w;
				lastx = x;
				lastw = w;
			}
		}
		// display matched percent
		matchedtxt.classList.remove("hide");
		var pct = 100 * count / maxwidth;
		if (pct != 100) pct = pct.toFixed(1)
		matchedtxt.firstChild.nodeValue = "Matched: " + pct + "%";
	}
]]>
</script>
<rect x="0.0" y="0" width="1200.0" height="427.0" fill="url(#background)"  />
<text id="title" x="600.00" y="26" >Firedrake example</text>
<text id="details" x="10.00" y="409" > </text>
<text id="unzoom" x="10.00" y="26" class="hide">Reset Zoom</text>
<text id="search" x="1090.00" y="26" >Search</text>
<text id="ignorecase" x="1174.00" y="26" >ic</text>
<text id="matched" x="1090.00" y="409" > </text>
<g id="frames">
<g >
<title>firedrake.tsfc_interface.compile_form (1,978,571 us, 1.21%)</title><rect x="459.1" y="151" width="14.3" height="15.0" fill="rgb(0,0,0)" rx="2" ry="2" />
<text  x="462.15" y="161.5" ></text>
</g>
<g >
<title>Parloop_set_#x7f344c426680_wrap_pyop2_kernel_restrict (670,533 us, 0.41%)</title><rect x="615.4" y="295" width="4.9" height="15.0" fill="rgb(0,0,0)" rx="2" ry="2" />
<text  x="618.44" y="305.5" ></text>
</g>
<g >
<title>ParLoopExecute (625,878 us, 0.38%)</title><rect x="1110.3" y="151" width="4.5" height="15.0" fill="rgb(0,0,0)" rx="2" ry="2" />
<text  x="1113.29" y="161.5" ></text>
</g>
<g >
<title>Log_Event_slate_loopy_knl_9 (44,014 us, 0.03%)</title><rect x="623.2" y="279" width="0.3" height="15.0" fill="rgb(0,0,0)" rx="2" ry="2" />
<text  x="626.19" y="289.5" ></text>
</g>
<g >
<title>Parloop_Cells_wrap_slate_loopy_knl_15 (27,118,398 us, 16.56%)</title><rect x="205.8" y="183" width="195.4" height="15.0" fill="rgb(0,0,0)" rx="2" ry="2" />
<text  x="208.84" y="193.5" >Parloop_Cells_wrap_slat..</text>
</g>
<g >
<title>HybridInit (692,703 us, 0.42%)</title><rect x="1109.8" y="119" width="5.0" height="15.0" fill="rgb(0,0,0)" rx="2" ry="2" />
<text  x="1112.81" y="129.5" ></text>
</g>
<g >
<title>Parloop_Cells_wrap_slate_loopy_knl_0 (10,965,813 us, 6.70%)</title><rect x="487.7" y="183" width="79.0" height="15.0" fill="rgb(0,0,0)" rx="2" ry="2" />
<text  x="490.67" y="193.5" >Parloop_..</text>
</g>
<g >
<title>ParLoopExecute (13,404,058 us, 8.18%)</title><rect x="636.2" y="263" width="96.6" height="15.0" fill="rgb(0,0,0)" rx="2" ry="2" />
<text  x="639.20" y="273.5" >ParLoopExe..</text>
</g>
<g >
<title>SNESSolve (160,442,044 us, 97.97%)</title><rect x="34.0" y="87" width="1156.0" height="15.0" fill="rgb(0,0,0)" rx="2" ry="2" />
<text  x="36.99" y="97.5" >SNESSolve</text>
</g>
<g >
<title>firedrake.tsfc_interface.compile_form (3,197,247 us, 1.95%)</title><rect x="1035.3" y="231" width="23.0" height="15.0" fill="rgb(0,0,0)" rx="2" ry="2" />
<text  x="1038.30" y="241.5" >f..</text>
</g>
<g >
<title>firedrake.functionspacedata.FunctionSpaceData.__init__ (21,494 us, 0.01%)</title><rect x="22.8" y="119" width="0.2" height="15.0" fill="rgb(0,0,0)" rx="2" ry="2" />
<text  x="25.84" y="129.5" ></text>
</g>
<g >
<title>pyop2.global_kernel.GlobalKernel.compile (625,878 us, 0.38%)</title><rect x="1110.3" y="183" width="4.5" height="15.0" fill="rgb(0,0,0)" rx="2" ry="2" />
<text  x="1113.29" y="193.5" ></text>
</g>
<g >
<title>firedrake (163,772,265 us, 100.00%)</title><rect x="10.0" y="55" width="1180.0" height="15.0" fill="rgb(0,0,0)" rx="2" ry="2" />
<text  x="13.00" y="65.5" >firedrake</text>
</g>
<g >
<title>firedrake.mg.embedded.TransferManager.op (2,329,303 us, 1.42%)</title><rect x="598.5" y="279" width="16.8" height="15.0" fill="rgb(0,0,0)" rx="2" ry="2" />
<text  x="601.50" y="289.5" ></text>
</g>
<g >
<title>firedrake.parloops.par_loop (846,041 us, 0.52%)</title><rect x="473.4" y="167" width="6.1" height="15.0" fill="rgb(0,0,0)" rx="2" ry="2" />
<text  x="476.40" y="177.5" ></text>
</g>
<g >
<title>ParLoopExecute (10,965,813 us, 6.70%)</title><rect x="487.7" y="167" width="79.0" height="15.0" fill="rgb(0,0,0)" rx="2" ry="2" />
<text  x="490.67" y="177.5" >ParLoopE..</text>
</g>
<g >
<title>firedrake.mg.embedded.TransferManager.op (1,183,706 us, 0.72%)</title><rect x="589.5" y="279" width="8.6" height="15.0" fill="rgb(0,0,0)" rx="2" ry="2" />
<text  x="592.53" y="289.5" ></text>
</g>
<g >
<title>firedrake.mg.interface.prolong (1,183,706 us, 0.72%)</title><rect x="589.5" y="295" width="8.6" height="15.0" fill="rgb(0,0,0)" rx="2" ry="2" />
<text  x="592.53" y="305.5" ></text>
</g>
<g >
<title>ParLoopExecute (524,867 us, 0.32%)</title><rect x="591.3" y="311" width="3.8" height="15.0" fill="rgb(0,0,0)" rx="2" ry="2" />
<text  x="594.28" y="321.5" ></text>
</g>
<g >
<title>Parloop_Cells_wrap_expression_kernel (1,271,989 us, 0.78%)</title><rect x="1060.8" y="183" width="9.1" height="15.0" fill="rgb(0,0,0)" rx="2" ry="2" />
<text  x="1063.75" y="193.5" ></text>
</g>
<g >
<title>SCSolve (72,587,026 us, 44.32%)</title><rect x="586.8" y="135" width="523.0" height="15.0" fill="rgb(0,0,0)" rx="2" ry="2" />
<text  x="589.81" y="145.5" >SCSolve</text>
</g>
<g >
<title>firedrake.interpolation.Interpolator.interpolate (1,064,510 us, 0.65%)</title><rect x="604.5" y="327" width="7.6" height="15.0" fill="rgb(0,0,0)" rx="2" ry="2" />
<text  x="607.47" y="337.5" ></text>
</g>
<g >
<title>firedrake.tsfc_interface.compile_form (8,037,338 us, 4.91%)</title><rect x="401.2" y="167" width="57.9" height="15.0" fill="rgb(0,0,0)" rx="2" ry="2" />
<text  x="404.24" y="177.5" >fired..</text>
</g>
<g >
<title>HybridProject (886,627 us, 0.54%)</title><rect x="106.4" y="151" width="6.3" height="15.0" fill="rgb(0,0,0)" rx="2" ry="2" />
<text  x="109.36" y="161.5" ></text>
</g>
<g >
<title>DMCoarsen (2,347,132 us, 1.43%)</title><rect x="598.4" y="247" width="16.9" height="15.0" fill="rgb(0,0,0)" rx="2" ry="2" />
<text  x="601.37" y="257.5" ></text>
</g>
<g >
<title>pyop2.global_kernel.GlobalKernel.compile (1,064,510 us, 0.65%)</title><rect x="604.5" y="375" width="7.6" height="15.0" fill="rgb(0,0,0)" rx="2" ry="2" />
<text  x="607.47" y="385.5" ></text>
</g>
<g >
<title>Parloop_Cells_wrap_par_loop_kernel (886,627 us, 0.54%)</title><rect x="106.4" y="199" width="6.3" height="15.0" fill="rgb(0,0,0)" rx="2" ry="2" />
<text  x="109.36" y="209.5" ></text>
</g>
<g >
<title>pyop2.global_kernel.GlobalKernel.compile (1,271,989 us, 0.78%)</title><rect x="1060.8" y="199" width="9.1" height="15.0" fill="rgb(0,0,0)" rx="2" ry="2" />
<text  x="1063.75" y="209.5" ></text>
</g>
<g >
<title>ParLoopExecute (1,064,510 us, 0.65%)</title><rect x="604.5" y="343" width="7.6" height="15.0" fill="rgb(0,0,0)" rx="2" ry="2" />
<text  x="607.47" y="353.5" ></text>
</g>
<g >
<title>ParLoopExecute (7,959,552 us, 4.86%)</title><rect x="34.0" y="151" width="57.3" height="15.0" fill="rgb(0,0,0)" rx="2" ry="2" />
<text  x="36.99" y="161.5" >ParLo..</text>
</g>
<g >
<title>Parloop_Cells_wrap_expression_kernel (1,064,510 us, 0.65%)</title><rect x="604.5" y="359" width="7.6" height="15.0" fill="rgb(0,0,0)" rx="2" ry="2" />
<text  x="607.47" y="369.5" ></text>
</g>
<g >
<title>Parloop_Cells_wrap_form1_cell_integral_otherwise (4,411,738 us, 2.69%)</title><rect x="1147.8" y="135" width="31.8" height="15.0" fill="rgb(0,0,0)" rx="2" ry="2" />
<text  x="1150.77" y="145.5" >Pa..</text>
</g>
<g >
<title>Log_Event_slate_loopy_knl_9 (45,593 us, 0.03%)</title><rect x="636.2" y="295" width="0.3" height="15.0" fill="rgb(0,0,0)" rx="2" ry="2" />
<text  x="639.20" y="305.5" ></text>
</g>
<g >
<title>firedrake.mg.interface.restrict (1,098,421 us, 0.67%)</title><rect x="615.3" y="263" width="7.9" height="15.0" fill="rgb(0,0,0)" rx="2" ry="2" />
<text  x="618.28" y="273.5" ></text>
</g>
<g >
<title>KSPSetUp (60,349,831 us, 36.85%)</title><rect x="623.5" y="199" width="434.8" height="15.0" fill="rgb(0,0,0)" rx="2" ry="2" />
<text  x="626.51" y="209.5" >KSPSetUp</text>
</g>
<g >
<title>KSPSolve (5,009,406 us, 3.06%)</title><rect x="587.1" y="199" width="36.1" height="15.0" fill="rgb(0,0,0)" rx="2" ry="2" />
<text  x="590.10" y="209.5" >KS..</text>
</g>
<g >
<title>Log_Event_subkernel13_cell_to__cell_integral_otherwise (40,555 us, 0.02%)</title><rect x="586.8" y="263" width="0.3" height="15.0" fill="rgb(0,0,0)" rx="2" ry="2" />
<text  x="589.81" y="273.5" ></text>
</g>
<g >
<title>pyop2.global_kernel.GlobalKernel.compile (10,965,813 us, 6.70%)</title><rect x="487.7" y="199" width="79.0" height="15.0" fill="rgb(0,0,0)" rx="2" ry="2" />
<text  x="490.67" y="209.5" >pyop2.gl..</text>
</g>
<g >
<title>firedrake.functionspacedata.get_shared_data (21,494 us, 0.01%)</title><rect x="22.8" y="103" width="0.2" height="15.0" fill="rgb(0,0,0)" rx="2" ry="2" />
<text  x="25.84" y="113.5" ></text>
</g>
<g >
<title>ParLoopExecute (36,445,289 us, 22.25%)</title><rect x="772.7" y="231" width="262.6" height="15.0" fill="rgb(0,0,0)" rx="2" ry="2" />
<text  x="775.71" y="241.5" >ParLoopExecute</text>
</g>
<g >
<title>firedrake.matrix_free.operators.ImplicitMatrixContext.mult (18,707,476 us, 11.42%)</title><rect x="623.5" y="247" width="134.8" height="15.0" fill="rgb(0,0,0)" rx="2" ry="2" />
<text  x="626.51" y="257.5" >firedrake.matri..</text>
</g>
<g >
<title>firedrake.mg.interface.inject (2,329,303 us, 1.42%)</title><rect x="598.5" y="295" width="16.8" height="15.0" fill="rgb(0,0,0)" rx="2" ry="2" />
<text  x="601.50" y="305.5" ></text>
</g>
<g >
<title>firedrake.pointquery_utils.to_reference_coordinates (402,883 us, 0.25%)</title><rect x="612.4" y="311" width="2.9" height="15.0" fill="rgb(0,0,0)" rx="2" ry="2" />
<text  x="615.38" y="321.5" ></text>
</g>
<g >
<title>ParLoopExecute (846,041 us, 0.52%)</title><rect x="473.4" y="183" width="6.1" height="15.0" fill="rgb(0,0,0)" rx="2" ry="2" />
<text  x="476.40" y="193.5" ></text>
</g>
<g >
<title>firedrake.matrix_free.operators.ImplicitMatrixContext.mult (40,555 us, 0.02%)</title><rect x="586.8" y="183" width="0.3" height="15.0" fill="rgb(0,0,0)" rx="2" ry="2" />
<text  x="589.81" y="193.5" ></text>
</g>
<g >
<title>PCSetUp (692,703 us, 0.42%)</title><rect x="1109.8" y="103" width="5.0" height="15.0" fill="rgb(0,0,0)" rx="2" ry="2" />
<text  x="1112.81" y="113.5" ></text>
</g>
<g >
<title>CreateExtMesh (908,078 us, 0.55%)</title><rect x="16.3" y="71" width="6.5" height="15.0" fill="rgb(0,0,0)" rx="2" ry="2" />
<text  x="19.30" y="81.5" ></text>
</g>
<g >
<title>firedrake.tsfc_interface.compile_form (3,542,843 us, 2.16%)</title><rect x="732.8" y="263" width="25.5" height="15.0" fill="rgb(0,0,0)" rx="2" ry="2" />
<text  x="735.77" y="273.5" >f..</text>
</g>
<g >
<title>firedrake.extrusion_utils.make_extruded_coords (908,078 us, 0.55%)</title><rect x="16.3" y="87" width="6.5" height="15.0" fill="rgb(0,0,0)" rx="2" ry="2" />
<text  x="19.30" y="97.5" ></text>
</g>
<g >
<title>firedrake.functionspaceimpl.FunctionSpace.__init__ (21,494 us, 0.01%)</title><rect x="22.8" y="87" width="0.2" height="15.0" fill="rgb(0,0,0)" rx="2" ry="2" />
<text  x="25.84" y="97.5" ></text>
</g>
<g >
<title>Log_Event_subkernel13_cell_to__cell_integral_otherwise (219,654 us, 0.13%)</title><rect x="587.5" y="311" width="1.6" height="15.0" fill="rgb(0,0,0)" rx="2" ry="2" />
<text  x="590.51" y="321.5" ></text>
</g>
<g >
<title>Log_Event_subkernel13_cell_to__cell_integral_otherwise (45,593 us, 0.03%)</title><rect x="636.2" y="327" width="0.3" height="15.0" fill="rgb(0,0,0)" rx="2" ry="2" />
<text  x="639.20" y="337.5" ></text>
</g>
<g >
<title>Parloop_Cells_wrap_pyop2_kernel_uniform_extrusion (876,928 us, 0.54%)</title><rect x="16.5" y="119" width="6.3" height="15.0" fill="rgb(0,0,0)" rx="2" ry="2" />
<text  x="19.52" y="129.5" ></text>
</g>
<g >
<title>SCBackSub (51,813,708 us, 31.64%)</title><rect x="100.1" y="135" width="373.3" height="15.0" fill="rgb(0,0,0)" rx="2" ry="2" />
<text  x="103.08" y="145.5" >SCBackSub</text>
</g>
<g >
<title>Parloop_Cells_wrap_par_loop_kernel (625,878 us, 0.38%)</title><rect x="1110.3" y="167" width="4.5" height="15.0" fill="rgb(0,0,0)" rx="2" ry="2" />
<text  x="1113.29" y="177.5" ></text>
</g>
<g >
<title>MatMult (9,171,630 us, 5.60%)</title><rect x="34.0" y="119" width="66.1" height="15.0" fill="rgb(0,0,0)" rx="2" ry="2" />
<text  x="36.99" y="129.5" >MatMult</text>
</g>
<g >
<title>MatMult (1,183,706 us, 0.72%)</title><rect x="589.5" y="263" width="8.6" height="15.0" fill="rgb(0,0,0)" rx="2" ry="2" />
<text  x="592.53" y="273.5" ></text>
</g>
<g >
<title>pyop2.global_kernel.GlobalKernel.compile (886,627 us, 0.54%)</title><rect x="106.4" y="215" width="6.3" height="15.0" fill="rgb(0,0,0)" rx="2" ry="2" />
<text  x="109.36" y="225.5" ></text>
</g>
<g >
<title>Log_Event_mtf_solve_11 (40,555 us, 0.02%)</title><rect x="586.8" y="247" width="0.3" height="15.0" fill="rgb(0,0,0)" rx="2" ry="2" />
<text  x="589.81" y="257.5" ></text>
</g>
<g >
<title>Parloop_Cells_wrap_slate_loopy_knl_9 (44,014 us, 0.03%)</title><rect x="623.2" y="263" width="0.3" height="15.0" fill="rgb(0,0,0)" rx="2" ry="2" />
<text  x="626.19" y="273.5" ></text>
</g>
<g >
<title>firedrake.tsfc_interface.compile_form (2,793,549 us, 1.71%)</title><rect x="566.7" y="167" width="20.1" height="15.0" fill="rgb(0,0,0)" rx="2" ry="2" />
<text  x="569.68" y="177.5" ></text>
</g>
<g >
<title>PCSetUp (334,616 us, 0.20%)</title><rect x="1058.3" y="199" width="2.5" height="15.0" fill="rgb(0,0,0)" rx="2" ry="2" />
<text  x="1061.34" y="209.5" ></text>
</g>
<g >
<title>ParLoopExecute (8,987,355 us, 5.49%)</title><rect x="1114.8" y="119" width="64.8" height="15.0" fill="rgb(0,0,0)" rx="2" ry="2" />
<text  x="1117.80" y="129.5" >ParLoo..</text>
</g>
<g >
<title>PCSetUp (60,684,447 us, 37.05%)</title><rect x="623.5" y="183" width="437.3" height="15.0" fill="rgb(0,0,0)" rx="2" ry="2" />
<text  x="626.51" y="193.5" >PCSetUp</text>
</g>
<g >
<title>ParLoopExecute (6,431,210 us, 3.93%)</title><rect x="1060.8" y="167" width="46.3" height="15.0" fill="rgb(0,0,0)" rx="2" ry="2" />
<text  x="1063.75" y="177.5" >ParL..</text>
</g>
<g >
<title>firedrake.tsfc_interface.compile_form (1,449,816 us, 0.89%)</title><rect x="1179.6" y="119" width="10.4" height="15.0" fill="rgb(0,0,0)" rx="2" ry="2" />
<text  x="1182.55" y="129.5" ></text>
</g>
<g >
<title>MatMult (44,014 us, 0.03%)</title><rect x="623.2" y="215" width="0.3" height="15.0" fill="rgb(0,0,0)" rx="2" ry="2" />
<text  x="626.19" y="225.5" ></text>
</g>
<g >
<title>PCApply (1,245,239 us, 0.76%)</title><rect x="589.4" y="231" width="9.0" height="15.0" fill="rgb(0,0,0)" rx="2" ry="2" />
<text  x="592.40" y="241.5" ></text>
</g>
<g >
<title>SCForwardElim (15,739,806 us, 9.61%)</title><rect x="473.4" y="135" width="113.4" height="15.0" fill="rgb(0,0,0)" rx="2" ry="2" />
<text  x="476.40" y="145.5" >SCForwardElim</text>
</g>
<g >
<title>firedrake.__init__ (1,506,940 us, 0.92%)</title><rect x="23.0" y="71" width="10.9" height="15.0" fill="rgb(0,0,0)" rx="2" ry="2" />
<text  x="26.00" y="81.5" ></text>
</g>
<g >
<title>pyop2.global_kernel.GlobalKernel.compile (532,157 us, 0.32%)</title><rect x="600.6" y="343" width="3.9" height="15.0" fill="rgb(0,0,0)" rx="2" ry="2" />
<text  x="603.63" y="353.5" ></text>
</g>
<g >
<title>Log_Event_mtf_solve_11 (242,900 us, 0.15%)</title><rect x="587.3" y="295" width="1.8" height="15.0" fill="rgb(0,0,0)" rx="2" ry="2" />
<text  x="590.34" y="305.5" ></text>
</g>
<g >
<title>ParLoopExecute (27,118,398 us, 16.56%)</title><rect x="205.8" y="167" width="195.4" height="15.0" fill="rgb(0,0,0)" rx="2" ry="2" />
<text  x="208.84" y="177.5" >ParLoopExecute</text>
</g>
<g >
<title>RecoverFirstElim (38,539,844 us, 23.53%)</title><rect x="181.5" y="151" width="277.6" height="15.0" fill="rgb(0,0,0)" rx="2" ry="2" />
<text  x="184.46" y="161.5" >RecoverFirstElim</text>
</g>
<g >
<title>ParLoopExecute (532,157 us, 0.32%)</title><rect x="600.6" y="311" width="3.9" height="15.0" fill="rgb(0,0,0)" rx="2" ry="2" />
<text  x="603.63" y="321.5" ></text>
</g>
<g >
<title>pyop2.global_kernel.GlobalKernel.compile (3,406,470 us, 2.08%)</title><rect x="66.8" y="183" width="24.5" height="15.0" fill="rgb(0,0,0)" rx="2" ry="2" />
<text  x="69.80" y="193.5" >p..</text>
</g>
<g >
<title>firedrake.parloops.par_loop (625,878 us, 0.38%)</title><rect x="1110.3" y="135" width="4.5" height="15.0" fill="rgb(0,0,0)" rx="2" ry="2" />
<text  x="1113.29" y="145.5" ></text>
</g>
<g >
<title>ParLoopExecute (40,555 us, 0.02%)</title><rect x="586.8" y="199" width="0.3" height="15.0" fill="rgb(0,0,0)" rx="2" ry="2" />
<text  x="589.81" y="209.5" ></text>
</g>
<g >
<title>firedrake.variational_solver.NonlinearVariationalSolver.solve (160,442,044 us, 97.97%)</title><rect x="34.0" y="71" width="1156.0" height="15.0" fill="rgb(0,0,0)" rx="2" ry="2" />
<text  x="36.99" y="81.5" >firedrake.variational_solver.NonlinearVariationalSolver.solve</text>
</g>
<g >
<title>pyop2.global_kernel.GlobalKernel.compile (524,867 us, 0.32%)</title><rect x="591.3" y="343" width="3.8" height="15.0" fill="rgb(0,0,0)" rx="2" ry="2" />
<text  x="594.28" y="353.5" ></text>
</g>
<g >
<title>ParLoopExecute (9,536,674 us, 5.82%)</title><rect x="112.7" y="151" width="68.8" height="15.0" fill="rgb(0,0,0)" rx="2" ry="2" />
<text  x="115.75" y="161.5" >ParLoo..</text>
</g>
<g >
<title>KSPSolve (18,707,476 us, 11.42%)</title><rect x="623.5" y="215" width="134.8" height="15.0" fill="rgb(0,0,0)" rx="2" ry="2" />
<text  x="626.51" y="225.5" >KSPSolve</text>
</g>
<g >
<title>KSPSolve (65,778,422 us, 40.16%)</title><rect x="586.8" y="151" width="474.0" height="15.0" fill="rgb(0,0,0)" rx="2" ry="2" />
<text  x="589.81" y="161.5" >KSPSolve</text>
</g>
<g >
<title>pyop2.global_kernel.GlobalKernel.compile (4,553,082 us, 2.78%)</title><rect x="34.0" y="183" width="32.8" height="15.0" fill="rgb(0,0,0)" rx="2" ry="2" />
<text  x="36.99" y="193.5" >py..</text>
</g>
<g >
<title>Parloop_Cells_wrap_form0_cell_integral_otherwise (4,575,617 us, 2.79%)</title><rect x="1114.8" y="135" width="33.0" height="15.0" fill="rgb(0,0,0)" rx="2" ry="2" />
<text  x="1117.80" y="145.5" >Pa..</text>
</g>
<g >
<title>firedrake.tsfc_interface.compile_form (334,616 us, 0.20%)</title><rect x="1058.3" y="215" width="2.5" height="15.0" fill="rgb(0,0,0)" rx="2" ry="2" />
<text  x="1061.34" y="225.5" ></text>
</g>
<g >
<title>firedrake.matrix_free.operators.ImplicitMatrixContext.mult (318,614 us, 0.19%)</title><rect x="587.1" y="231" width="2.3" height="15.0" fill="rgb(0,0,0)" rx="2" ry="2" />
<text  x="590.10" y="241.5" ></text>
</g>
<g >
<title>Parloop_Cells_wrap_form00_cell_integral_otherwise (5,159,221 us, 3.15%)</title><rect x="1069.9" y="183" width="37.2" height="15.0" fill="rgb(0,0,0)" rx="2" ry="2" />
<text  x="1072.92" y="193.5" >Pa..</text>
</g>
<g >
<title>Parloop_Cells_wrap_form1_cell_integral_otherwise (3,406,470 us, 2.08%)</title><rect x="66.8" y="167" width="24.5" height="15.0" fill="rgb(0,0,0)" rx="2" ry="2" />
<text  x="69.80" y="177.5" >P..</text>
</g>
<g >
<title>pyop2.global_kernel.GlobalKernel.compile (9,536,674 us, 5.82%)</title><rect x="112.7" y="183" width="68.8" height="15.0" fill="rgb(0,0,0)" rx="2" ry="2" />
<text  x="115.75" y="193.5" >pyop2...</text>
</g>
<g >
<title>MatResidual (44,014 us, 0.03%)</title><rect x="623.2" y="199" width="0.3" height="15.0" fill="rgb(0,0,0)" rx="2" ry="2" />
<text  x="626.19" y="209.5" ></text>
</g>
<g >
<title>ParLoopExecute (318,614 us, 0.19%)</title><rect x="587.1" y="247" width="2.3" height="15.0" fill="rgb(0,0,0)" rx="2" ry="2" />
<text  x="590.10" y="257.5" ></text>
</g>
<g >
<title>firedrake.pointquery_utils.to_reference_coordinates (406,118 us, 0.25%)</title><rect x="620.3" y="279" width="2.9" height="15.0" fill="rgb(0,0,0)" rx="2" ry="2" />
<text  x="623.27" y="289.5" ></text>
</g>
<g >
<title>pyop2.global_kernel.GlobalKernel.compile (876,928 us, 0.54%)</title><rect x="16.5" y="135" width="6.3" height="15.0" fill="rgb(0,0,0)" rx="2" ry="2" />
<text  x="19.52" y="145.5" ></text>
</g>
<g >
<title>Log_Event_slate_loopy_knl_9 (40,555 us, 0.02%)</title><rect x="586.8" y="231" width="0.3" height="15.0" fill="rgb(0,0,0)" rx="2" ry="2" />
<text  x="589.81" y="241.5" ></text>
</g>
<g >
<title>pyop2.global_kernel.GlobalKernel.compile (13,358,465 us, 8.16%)</title><rect x="636.5" y="295" width="96.3" height="15.0" fill="rgb(0,0,0)" rx="2" ry="2" />
<text  x="639.53" y="305.5" >pyop2.glob..</text>
</g>
<g >
<title>pyop2.global_kernel.GlobalKernel.compile (36,445,289 us, 22.25%)</title><rect x="772.7" y="263" width="262.6" height="15.0" fill="rgb(0,0,0)" rx="2" ry="2" />
<text  x="775.71" y="273.5" >pyop2.global_kernel.GlobalKernel..</text>
</g>
<g >
<title>Parloop_set_#x7f344c425c90_wrap_pyop2_kernel_inject (532,157 us, 0.32%)</title><rect x="600.6" y="327" width="3.9" height="15.0" fill="rgb(0,0,0)" rx="2" ry="2" />
<text  x="603.63" y="337.5" ></text>
</g>
<g >
<title>firedrake.matrix_free.operators.ImplicitMatrixContext.mult (9,171,630 us, 5.60%)</title><rect x="34.0" y="135" width="66.1" height="15.0" fill="rgb(0,0,0)" rx="2" ry="2" />
<text  x="36.99" y="145.5" >firedr..</text>
</g>
<g >
<title>MatMult (18,707,476 us, 11.42%)</title><rect x="623.5" y="231" width="134.8" height="15.0" fill="rgb(0,0,0)" rx="2" ry="2" />
<text  x="626.51" y="241.5" >MatMult</text>
</g>
<g >
<title>HybridRHS (14,893,765 us, 9.09%)</title><rect x="479.5" y="151" width="107.3" height="15.0" fill="rgb(0,0,0)" rx="2" ry="2" />
<text  x="482.50" y="161.5" >HybridRHS</text>
</g>
<g >
<title>pyop2.global_kernel.GlobalKernel.compile (4,575,617 us, 2.79%)</title><rect x="1114.8" y="151" width="33.0" height="15.0" fill="rgb(0,0,0)" rx="2" ry="2" />
<text  x="1117.80" y="161.5" >py..</text>
</g>
<g >
<title>PCApply (4,690,792 us, 2.86%)</title><rect x="589.4" y="215" width="33.8" height="15.0" fill="rgb(0,0,0)" rx="2" ry="2" />
<text  x="592.40" y="225.5" >PC..</text>
</g>
<g >
<title>MatMultTranspose (1,098,421 us, 0.67%)</title><rect x="615.3" y="247" width="7.9" height="15.0" fill="rgb(0,0,0)" rx="2" ry="2" />
<text  x="618.28" y="257.5" ></text>
</g>
<g >
<title>firedrake.interpolation.make_interpolator (28,625 us, 0.02%)</title><rect x="1107.1" y="167" width="0.2" height="15.0" fill="rgb(0,0,0)" rx="2" ry="2" />
<text  x="1110.09" y="177.5" ></text>
</g>
<g >
<title>ParLoopExecute (670,533 us, 0.41%)</title><rect x="615.4" y="279" width="4.9" height="15.0" fill="rgb(0,0,0)" rx="2" ry="2" />
<text  x="618.44" y="289.5" ></text>
</g>
<g >
<title>CreateFunctionSpace (21,494 us, 0.01%)</title><rect x="22.8" y="71" width="0.2" height="15.0" fill="rgb(0,0,0)" rx="2" ry="2" />
<text  x="25.84" y="81.5" ></text>
</g>
<g >
<title>pyop2.global_kernel.GlobalKernel.compile (670,533 us, 0.41%)</title><rect x="615.4" y="311" width="4.9" height="15.0" fill="rgb(0,0,0)" rx="2" ry="2" />
<text  x="618.44" y="321.5" ></text>
</g>
<g >
<title>Parloop_set_#x7f344c425c90_wrap_pyop2_kernel_prolong (524,867 us, 0.32%)</title><rect x="591.3" y="327" width="3.8" height="15.0" fill="rgb(0,0,0)" rx="2" ry="2" />
<text  x="594.28" y="337.5" ></text>
</g>
<g >
<title>ParLoopExecute (876,928 us, 0.54%)</title><rect x="16.5" y="103" width="6.3" height="15.0" fill="rgb(0,0,0)" rx="2" ry="2" />
<text  x="19.52" y="113.5" ></text>
</g>
<g >
<title>MGInterp Level 1 (1,201,801 us, 0.73%)</title><rect x="589.5" y="247" width="8.7" height="15.0" fill="rgb(0,0,0)" rx="2" ry="2" />
<text  x="592.53" y="257.5" ></text>
</g>
<g >
<title>firedrake.variational_solver.LinearVariationalProblem.__init__ (19,300 us, 0.01%)</title><rect x="33.9" y="71" width="0.1" height="15.0" fill="rgb(0,0,0)" rx="2" ry="2" />
<text  x="36.86" y="81.5" ></text>
</g>
<g >
<title>firedrake.interpolation.make_interpolator (33,375 us, 0.02%)</title><rect x="612.1" y="327" width="0.3" height="15.0" fill="rgb(0,0,0)" rx="2" ry="2" />
<text  x="615.14" y="337.5" ></text>
</g>
<g >
<title>MatMult (40,555 us, 0.02%)</title><rect x="586.8" y="167" width="0.3" height="15.0" fill="rgb(0,0,0)" rx="2" ry="2" />
<text  x="589.81" y="177.5" ></text>
</g>
<g >
<title>Parloop_Cells_wrap_slate_loopy_knl_9 (13,404,058 us, 8.18%)</title><rect x="636.2" y="279" width="96.6" height="15.0" fill="rgb(0,0,0)" rx="2" ry="2" />
<text  x="639.20" y="289.5" >Parloop_Ce..</text>
</g>
<g >
<title>Parloop_Cells_wrap_slate_loopy_knl_9 (318,614 us, 0.19%)</title><rect x="587.1" y="263" width="2.3" height="15.0" fill="rgb(0,0,0)" rx="2" ry="2" />
<text  x="590.10" y="273.5" ></text>
</g>
<g >
<title>Log_Event_subkernel13_cell_to__cell_integral_otherwise (44,014 us, 0.03%)</title><rect x="623.2" y="311" width="0.3" height="15.0" fill="rgb(0,0,0)" rx="2" ry="2" />
<text  x="626.19" y="321.5" ></text>
</g>
<g >
<title>PCApply (140,140,540 us, 85.57%)</title><rect x="100.1" y="119" width="1009.7" height="15.0" fill="rgb(0,0,0)" rx="2" ry="2" />
<text  x="103.08" y="129.5" >PCApply</text>
</g>
<g >
<title>Log_Event_mtf_solve_11 (44,014 us, 0.03%)</title><rect x="623.2" y="295" width="0.3" height="15.0" fill="rgb(0,0,0)" rx="2" ry="2" />
<text  x="626.19" y="305.5" ></text>
</g>
<g >
<title>all (163,772,265 us, 100%)</title><rect x="10.0" y="39" width="1180.0" height="15.0" fill="rgb(0,0,0)" rx="2" ry="2" />
<text  x="13.00" y="49.5" ></text>
</g>
<g >
<title>KSPSolve (149,312,170 us, 91.17%)</title><rect x="34.0" y="103" width="1075.8" height="15.0" fill="rgb(0,0,0)" rx="2" ry="2" />
<text  x="36.99" y="113.5" >KSPSolve</text>
</g>
<g >
<title>pyop2.global_kernel.GlobalKernel.compile (4,411,738 us, 2.69%)</title><rect x="1147.8" y="151" width="31.8" height="15.0" fill="rgb(0,0,0)" rx="2" ry="2" />
<text  x="1150.77" y="161.5" >py..</text>
</g>
<g >
<title>ParLoopExecute (886,627 us, 0.54%)</title><rect x="106.4" y="183" width="6.3" height="15.0" fill="rgb(0,0,0)" rx="2" ry="2" />
<text  x="109.36" y="193.5" ></text>
</g>
<g >
<title>PCSetUp (3,445,553 us, 2.10%)</title><rect x="598.4" y="231" width="24.8" height="15.0" fill="rgb(0,0,0)" rx="2" ry="2" />
<text  x="601.37" y="241.5" >P..</text>
</g>
<g >
<title>firedrake.matrix_free.operators.ImplicitMatrixContext.mult (44,014 us, 0.03%)</title><rect x="623.2" y="231" width="0.3" height="15.0" fill="rgb(0,0,0)" rx="2" ry="2" />
<text  x="626.19" y="241.5" ></text>
</g>
<g >
<title>Log_Event_mtf_solve_11 (45,593 us, 0.03%)</title><rect x="636.2" y="311" width="0.3" height="15.0" fill="rgb(0,0,0)" rx="2" ry="2" />
<text  x="639.20" y="321.5" ></text>
</g>
<g >
<title>Parloop_Cells_wrap_wrap_slate_loopy_knl_5 (36,445,289 us, 22.25%)</title><rect x="772.7" y="247" width="262.6" height="15.0" fill="rgb(0,0,0)" rx="2" ry="2" />
<text  x="775.71" y="257.5" >Parloop_Cells_wrap_wrap_slate_lo..</text>
</g>
<g >
<title>ParLoopExecute (44,014 us, 0.03%)</title><rect x="623.2" y="247" width="0.3" height="15.0" fill="rgb(0,0,0)" rx="2" ry="2" />
<text  x="626.19" y="257.5" ></text>
</g>
<g >
<title>pyop2.global_kernel.GlobalKernel.compile (27,118,398 us, 16.56%)</title><rect x="205.8" y="199" width="195.4" height="15.0" fill="rgb(0,0,0)" rx="2" ry="2" />
<text  x="208.84" y="209.5" >pyop2.global_kernel.Glo..</text>
</g>
<g >
<title>MatMult (318,614 us, 0.19%)</title><rect x="587.1" y="215" width="2.3" height="15.0" fill="rgb(0,0,0)" rx="2" ry="2" />
<text  x="590.10" y="225.5" ></text>
</g>
<g >
<title>firedrake.tsfc_interface.compile_form (1,212,078 us, 0.74%)</title><rect x="91.3" y="151" width="8.8" height="15.0" fill="rgb(0,0,0)" rx="2" ry="2" />
<text  x="94.34" y="161.5" ></text>
</g>
<g >
<title>Log_Event_subkernel14_interior_facet_vert_to__exterior_facet_vert_integral_otherwise (20,313 us, 0.01%)</title><rect x="589.3" y="295" width="0.1" height="15.0" fill="rgb(0,0,0)" rx="2" ry="2" />
<text  x="592.25" y="305.5" ></text>
</g>
<g >
<title>Parloop_Cells_wrap_slate_loopy_knl_9 (40,555 us, 0.02%)</title><rect x="586.8" y="215" width="0.3" height="15.0" fill="rgb(0,0,0)" rx="2" ry="2" />
<text  x="589.81" y="225.5" ></text>
</g>
<g >
<title>SNESFunctionEval (10,437,171 us, 6.37%)</title><rect x="1114.8" y="103" width="75.2" height="15.0" fill="rgb(0,0,0)" rx="2" ry="2" />
<text  x="1117.80" y="113.5" >SNESFun..</text>
</g>
<g >
<title>Log_Event_slate_loopy_knl_9 (318,614 us, 0.19%)</title><rect x="587.1" y="279" width="2.3" height="15.0" fill="rgb(0,0,0)" rx="2" ry="2" />
<text  x="590.10" y="289.5" ></text>
</g>
<g >
<title>PCApply (65,737,867 us, 40.14%)</title><rect x="587.1" y="167" width="473.7" height="15.0" fill="rgb(0,0,0)" rx="2" ry="2" />
<text  x="590.10" y="177.5" >PCApply</text>
</g>
<g >
<title>firedrake.interpolation.interpolate (1,097,885 us, 0.67%)</title><rect x="604.5" y="311" width="7.9" height="15.0" fill="rgb(0,0,0)" rx="2" ry="2" />
<text  x="607.47" y="321.5" ></text>
</g>
<g >
<title>Parloop_Cells_wrap_slate_loopy_knl_41 (9,536,674 us, 5.82%)</title><rect x="112.7" y="167" width="68.8" height="15.0" fill="rgb(0,0,0)" rx="2" ry="2" />
<text  x="115.75" y="177.5" >Parloo..</text>
</g>
<g >
<title>MatMultTranspose (18,095 us, 0.01%)</title><rect x="598.1" y="263" width="0.1" height="15.0" fill="rgb(0,0,0)" rx="2" ry="2" />
<text  x="601.06" y="273.5" ></text>
</g>
<g >
<title>PCSetUp (41,642,355 us, 25.43%)</title><rect x="758.3" y="215" width="300.0" height="15.0" fill="rgb(0,0,0)" rx="2" ry="2" />
<text  x="761.30" y="225.5" >PCSetUp</text>
</g>
<g >
<title>firedrake.parloops.par_loop (886,627 us, 0.54%)</title><rect x="106.4" y="167" width="6.3" height="15.0" fill="rgb(0,0,0)" rx="2" ry="2" />
<text  x="109.36" y="177.5" ></text>
</g>
<g >
<title>PCApply (5,053,420 us, 3.09%)</title><rect x="587.1" y="183" width="36.4" height="15.0" fill="rgb(0,0,0)" rx="2" ry="2" />
<text  x="590.10" y="193.5" >PC..</text>
</g>
<g >
<title>MGInterp Level (24,977 us, 0.02%; +0.02%)</title><rect x="598.2" y="247" width="0.2" height="15.0" fill="rgb(255,0,0)" rx="2" ry="2" />
<text  x="601.19" y="257.5" ></text>
</g>
<g >
<title>Log_Event_subkernel10_interior_facet_vert_to__exterior_facet_vert_integral_otherwise (21,948 us, 0.01%)</title><rect x="589.1" y="295" width="0.2" height="15.0" fill="rgb(0,0,0)" rx="2" ry="2" />
<text  x="592.09" y="305.5" ></text>
</g>
<g >
<title>firedrake.pointquery_utils.to_reference_coordinates (415,399 us, 0.25%)</title><rect x="595.1" y="311" width="3.0" height="15.0" fill="rgb(0,0,0)" rx="2" ry="2" />
<text  x="598.07" y="321.5" ></text>
</g>
<g >
<title>PCSetUp (6,808,604 us, 4.16%)</title><rect x="1060.8" y="151" width="49.0" height="15.0" fill="rgb(0,0,0)" rx="2" ry="2" />
<text  x="1063.75" y="161.5" >PCSe..</text>
</g>
<g >
<title>Parloop_Cells_wrap_form0_cell_integral_otherwise (4,553,082 us, 2.78%)</title><rect x="34.0" y="167" width="32.8" height="15.0" fill="rgb(0,0,0)" rx="2" ry="2" />
<text  x="36.99" y="177.5" >Pa..</text>
</g>
<g >
<title>Parloop_Cells_wrap_par_loop_kernel (846,041 us, 0.52%)</title><rect x="473.4" y="199" width="6.1" height="15.0" fill="rgb(0,0,0)" rx="2" ry="2" />
<text  x="476.40" y="209.5" ></text>
</g>
<g >
<title>pyop2.global_kernel.GlobalKernel.compile (846,041 us, 0.52%)</title><rect x="473.4" y="215" width="6.1" height="15.0" fill="rgb(0,0,0)" rx="2" ry="2" />
<text  x="476.40" y="225.5" ></text>
</g>
<g >
<title>firedrake.dmhooks.coarsen (2,347,132 us, 1.43%)</title><rect x="598.4" y="263" width="16.9" height="15.0" fill="rgb(0,0,0)" rx="2" ry="2" />
<text  x="601.37" y="273.5" ></text>
</g>
<g >
<title>HybridBreak (846,041 us, 0.52%)</title><rect x="473.4" y="151" width="6.1" height="15.0" fill="rgb(0,0,0)" rx="2" ry="2" />
<text  x="476.40" y="161.5" ></text>
</g>
<g >
<title>pyop2.global_kernel.GlobalKernel.compile (5,159,221 us, 3.15%)</title><rect x="1069.9" y="199" width="37.2" height="15.0" fill="rgb(0,0,0)" rx="2" ry="2" />
<text  x="1072.92" y="209.5" >py..</text>
</g>
<g >
<title>firedrake.tsfc_interface.compile_form (348,769 us, 0.21%)</title><rect x="1107.3" y="167" width="2.5" height="15.0" fill="rgb(0,0,0)" rx="2" ry="2" />
<text  x="1110.29" y="177.5" ></text>
</g>
</g>
</svg>
