<?xml version="1.0" standalone="no"?>
<!DOCTYPE svg PUBLIC "-//W3C//DTD SVG 1.1//EN" "http://www.w3.org/Graphics/SVG/1.1/DTD/svg11.dtd">
<svg version="1.1" width="1200" height="427" onload="init(evt)" viewBox="0 0 1200 427" xmlns="http://www.w3.org/2000/svg" xmlns:xlink="http://www.w3.org/1999/xlink">
<!-- Flame graph stack visualization. See https://github.com/brendangregg/FlameGraph for latest version, and http://www.brendangregg.com/flamegraphs.html for examples. -->
<!-- NOTES:  -->
<defs>
	<linearGradient id="background" y1="0" y2="1" x1="0" x2="0" >
		<stop stop-color="#eeeeee" offset="5%" />
		<stop stop-color="#eeeeb0" offset="95%" />
	</linearGradient>
</defs>
<style type="text/css">
	text { font-family:Verdana; font-size:13px; fill:rgb(0,0,0); }
	#search, #ignorecase { opacity:0.1; cursor:pointer; }
	#search:hover, #search.show, #ignorecase:hover, #ignorecase.show { opacity:1; }
	#subtitle { text-anchor:middle; font-color:rgb(160,160,160); }
	#title { text-anchor:middle; font-size:18px}
	#unzoom { cursor:pointer; }
	#frames > *:hover { stroke:black; stroke-width:0.5; cursor:pointer; }
	.hide { display:none; }
	.parent { opacity:0.5; }
</style>
<script type="text/ecmascript">
<![CDATA[
	"use strict";
	var details, searchbtn, unzoombtn, matchedtxt, svg, searching, currentSearchTerm, ignorecase, ignorecaseBtn;
	function init(evt) {
		details = document.getElementById("details").firstChild;
		searchbtn = document.getElementById("search");
		ignorecaseBtn = document.getElementById("ignorecase");
		unzoombtn = document.getElementById("unzoom");
		matchedtxt = document.getElementById("matched");
		svg = document.getElementsByTagName("svg")[0];
		searching = 0;
		currentSearchTerm = null;

		// use GET parameters to restore a flamegraphs state.
		var params = get_params();
		if (params.x && params.y)
			zoom(find_group(document.querySelector('[x="' + params.x + '"][y="' + params.y + '"]')));
                if (params.s) search(params.s);
	}

	// event listeners
	window.addEventListener("click", function(e) {
		var target = find_group(e.target);
		if (target) {
			if (target.nodeName == "a") {
				if (e.ctrlKey === false) return;
				e.preventDefault();
			}
			if (target.classList.contains("parent")) unzoom();
			zoom(target);
			if (!document.querySelector('.parent')) {
				clearzoom();
				return;
			}

			// set parameters for zoom state
			var el = target.querySelector("rect");
			if (el && el.attributes && el.attributes.y && el.attributes._orig_x) {
				var params = get_params()
				params.x = el.attributes._orig_x.value;
				params.y = el.attributes.y.value;
				history.replaceState(null, null, parse_params(params));
			}
		}
		else if (e.target.id == "unzoom") clearzoom();
		else if (e.target.id == "search") search_prompt();
		else if (e.target.id == "ignorecase") toggle_ignorecase();
	}, false)

	// mouse-over for info
	// show
	window.addEventListener("mouseover", function(e) {
		var target = find_group(e.target);
		if (target) details.nodeValue = "Function: " + g_to_text(target);
	}, false)

	// clear
	window.addEventListener("mouseout", function(e) {
		var target = find_group(e.target);
		if (target) details.nodeValue = ' ';
	}, false)

	// ctrl-F for search
	// ctrl-I to toggle case-sensitive search
	window.addEventListener("keydown",function (e) {
		if (e.keyCode === 114 || (e.ctrlKey && e.keyCode === 70)) {
			e.preventDefault();
			search_prompt();
		}
		else if (e.ctrlKey && e.keyCode === 73) {
			e.preventDefault();
			toggle_ignorecase();
		}
	}, false)

	// functions
	function get_params() {
		var params = {};
		var paramsarr = window.location.search.substr(1).split('&');
		for (var i = 0; i < paramsarr.length; ++i) {
			var tmp = paramsarr[i].split("=");
			if (!tmp[0] || !tmp[1]) continue;
			params[tmp[0]]  = decodeURIComponent(tmp[1]);
		}
		return params;
	}
	function parse_params(params) {
		var uri = "?";
		for (var key in params) {
			uri += key + '=' + encodeURIComponent(params[key]) + '&';
		}
		if (uri.slice(-1) == "&")
			uri = uri.substring(0, uri.length - 1);
		if (uri == '?')
			uri = window.location.href.split('?')[0];
		return uri;
	}
	function find_child(node, selector) {
		var children = node.querySelectorAll(selector);
		if (children.length) return children[0];
	}
	function find_group(node) {
		var parent = node.parentElement;
		if (!parent) return;
		if (parent.id == "frames") return node;
		return find_group(parent);
	}
	function orig_save(e, attr, val) {
		if (e.attributes["_orig_" + attr] != undefined) return;
		if (e.attributes[attr] == undefined) return;
		if (val == undefined) val = e.attributes[attr].value;
		e.setAttribute("_orig_" + attr, val);
	}
	function orig_load(e, attr) {
		if (e.attributes["_orig_"+attr] == undefined) return;
		e.attributes[attr].value = e.attributes["_orig_" + attr].value;
		e.removeAttribute("_orig_"+attr);
	}
	function g_to_text(e) {
		var text = find_child(e, "title").firstChild.nodeValue;
		return (text)
	}
	function g_to_func(e) {
		var func = g_to_text(e);
		// if there's any manipulation we want to do to the function
		// name before it's searched, do it here before returning.
		return (func);
	}
	function update_text(e) {
		var r = find_child(e, "rect");
		var t = find_child(e, "text");
		var w = parseFloat(r.attributes.width.value) -3;
		var txt = find_child(e, "title").textContent.replace(/\([^(]*\)$/,"");
		t.attributes.x.value = parseFloat(r.attributes.x.value) + 3;

		// Smaller than this size won't fit anything
		if (w < 2 * 13 * 0.59) {
			t.textContent = "";
			return;
		}

		t.textContent = txt;
		// Fit in full text width
		if (/^ *$/.test(txt) || t.getSubStringLength(0, txt.length) < w)
			return;

		for (var x = txt.length - 2; x > 0; x--) {
			if (t.getSubStringLength(0, x + 2) <= w) {
				t.textContent = txt.substring(0, x) + "..";
				return;
			}
		}
		t.textContent = "";
	}

	// zoom
	function zoom_reset(e) {
		if (e.attributes != undefined) {
			orig_load(e, "x");
			orig_load(e, "width");
		}
		if (e.childNodes == undefined) return;
		for (var i = 0, c = e.childNodes; i < c.length; i++) {
			zoom_reset(c[i]);
		}
	}
	function zoom_child(e, x, ratio) {
		if (e.attributes != undefined) {
			if (e.attributes.x != undefined) {
				orig_save(e, "x");
				e.attributes.x.value = (parseFloat(e.attributes.x.value) - x - 10) * ratio + 10;
				if (e.tagName == "text")
					e.attributes.x.value = find_child(e.parentNode, "rect[x]").attributes.x.value + 3;
			}
			if (e.attributes.width != undefined) {
				orig_save(e, "width");
				e.attributes.width.value = parseFloat(e.attributes.width.value) * ratio;
			}
		}

		if (e.childNodes == undefined) return;
		for (var i = 0, c = e.childNodes; i < c.length; i++) {
			zoom_child(c[i], x - 10, ratio);
		}
	}
	function zoom_parent(e) {
		if (e.attributes) {
			if (e.attributes.x != undefined) {
				orig_save(e, "x");
				e.attributes.x.value = 10;
			}
			if (e.attributes.width != undefined) {
				orig_save(e, "width");
				e.attributes.width.value = parseInt(svg.width.baseVal.value) - (10 * 2);
			}
		}
		if (e.childNodes == undefined) return;
		for (var i = 0, c = e.childNodes; i < c.length; i++) {
			zoom_parent(c[i]);
		}
	}
	function zoom(node) {
		var attr = find_child(node, "rect").attributes;
		var width = parseFloat(attr.width.value);
		var xmin = parseFloat(attr.x.value);
		var xmax = parseFloat(xmin + width);
		var ymin = parseFloat(attr.y.value);
		var ratio = (svg.width.baseVal.value - 2 * 10) / width;

		// XXX: Workaround for JavaScript float issues (fix me)
		var fudge = 0.0001;

		unzoombtn.classList.remove("hide");

		var el = document.getElementById("frames").children;
		for (var i = 0; i < el.length; i++) {
			var e = el[i];
			var a = find_child(e, "rect").attributes;
			var ex = parseFloat(a.x.value);
			var ew = parseFloat(a.width.value);
			var upstack;
			// Is it an ancestor
			if (1 == 0) {
				upstack = parseFloat(a.y.value) > ymin;
			} else {
				upstack = parseFloat(a.y.value) < ymin;
			}
			if (upstack) {
				// Direct ancestor
				if (ex <= xmin && (ex+ew+fudge) >= xmax) {
					e.classList.add("parent");
					zoom_parent(e);
					update_text(e);
				}
				// not in current path
				else
					e.classList.add("hide");
			}
			// Children maybe
			else {
				// no common path
				if (ex < xmin || ex + fudge >= xmax) {
					e.classList.add("hide");
				}
				else {
					zoom_child(e, xmin, ratio);
					update_text(e);
				}
			}
		}
		search();
	}
	function unzoom() {
		unzoombtn.classList.add("hide");
		var el = document.getElementById("frames").children;
		for(var i = 0; i < el.length; i++) {
			el[i].classList.remove("parent");
			el[i].classList.remove("hide");
			zoom_reset(el[i]);
			update_text(el[i]);
		}
		search();
	}
	function clearzoom() {
		unzoom();

		// remove zoom state
		var params = get_params();
		if (params.x) delete params.x;
		if (params.y) delete params.y;
		history.replaceState(null, null, parse_params(params));
	}

	// search
	function toggle_ignorecase() {
		ignorecase = !ignorecase;
		if (ignorecase) {
			ignorecaseBtn.classList.add("show");
		} else {
			ignorecaseBtn.classList.remove("show");
		}
		reset_search();
		search();
	}
	function reset_search() {
		var el = document.querySelectorAll("#frames rect");
		for (var i = 0; i < el.length; i++) {
			orig_load(el[i], "fill")
		}
		var params = get_params();
		delete params.s;
		history.replaceState(null, null, parse_params(params));
	}
	function search_prompt() {
		if (!searching) {
			var term = prompt("Enter a search term (regexp " +
			    "allowed, eg: ^ext4_)"
			    + (ignorecase ? ", ignoring case" : "")
			    + "\nPress Ctrl-i to toggle case sensitivity", "");
			if (term != null) search(term);
		} else {
			reset_search();
			searching = 0;
			currentSearchTerm = null;
			searchbtn.classList.remove("show");
			searchbtn.firstChild.nodeValue = "Search"
			matchedtxt.classList.add("hide");
			matchedtxt.firstChild.nodeValue = ""
		}
	}
	function search(term) {
		if (term) currentSearchTerm = term;

		var re = new RegExp(currentSearchTerm, ignorecase ? 'i' : '');
		var el = document.getElementById("frames").children;
		var matches = new Object();
		var maxwidth = 0;
		for (var i = 0; i < el.length; i++) {
			var e = el[i];
			var func = g_to_func(e);
			var rect = find_child(e, "rect");
			if (func == null || rect == null)
				continue;

			// Save max width. Only works as we have a root frame
			var w = parseFloat(rect.attributes.width.value);
			if (w > maxwidth)
				maxwidth = w;

			if (func.match(re)) {
				// highlight
				var x = parseFloat(rect.attributes.x.value);
				orig_save(rect, "fill");
				rect.attributes.fill.value = "rgb(230,0,230)";

				// remember matches
				if (matches[x] == undefined) {
					matches[x] = w;
				} else {
					if (w > matches[x]) {
						// overwrite with parent
						matches[x] = w;
					}
				}
				searching = 1;
			}
		}
		if (!searching)
			return;
		var params = get_params();
		params.s = currentSearchTerm;
		history.replaceState(null, null, parse_params(params));

		searchbtn.classList.add("show");
		searchbtn.firstChild.nodeValue = "Reset Search";

		// calculate percent matched, excluding vertical overlap
		var count = 0;
		var lastx = -1;
		var lastw = 0;
		var keys = Array();
		for (k in matches) {
			if (matches.hasOwnProperty(k))
				keys.push(k);
		}
		// sort the matched frames by their x location
		// ascending, then width descending
		keys.sort(function(a, b){
			return a - b;
		});
		// Step through frames saving only the biggest bottom-up frames
		// thanks to the sort order. This relies on the tree property
		// where children are always smaller than their parents.
		var fudge = 0.0001;	// JavaScript floating point
		for (var k in keys) {
			var x = parseFloat(keys[k]);
			var w = matches[keys[k]];
			if (x >= lastx + lastw - fudge) {
				count += w;
				lastx = x;
				lastw = w;
			}
		}
		// display matched percent
		matchedtxt.classList.remove("hide");
		var pct = 100 * count / maxwidth;
		if (pct != 100) pct = pct.toFixed(1)
		matchedtxt.firstChild.nodeValue = "Matched: " + pct + "%";
	}
]]>
</script>
<rect x="0.0" y="0" width="1200.0" height="427.0" fill="url(#background)"  />
<text id="title" x="600.00" y="26" >Firedrake example</text>
<text id="details" x="10.00" y="409" > </text>
<text id="unzoom" x="10.00" y="26" class="hide">Reset Zoom</text>
<text id="search" x="1090.00" y="26" >Search</text>
<text id="ignorecase" x="1174.00" y="26" >ic</text>
<text id="matched" x="1090.00" y="409" > </text>
<g id="frames">
<g >
<title>ParLoopExecute (1,202,356 us, 0.13%)</title><rect x="940.0" y="359" width="1.5" height="15.0" fill="rgb(146.994626691179,146.994626691179,155.86992774668)" rx="2" ry="2" />
<text  x="943.00" y="369.5" ></text>
</g>
<g >
<title>firedrake.pointquery_utils.to_reference_coordinates (295,753 us, 0.03%)</title><rect x="942.6" y="295" width="0.4" height="15.0" fill="rgb(130.692524470267,162.445402993212,130.692524470267)" rx="2" ry="2" />
<text  x="945.64" y="305.5" ></text>
</g>
<g >
<title>KSPSolve (56,367,418 us, 5.86%)</title><rect x="996.0" y="231" width="69.2" height="15.0" fill="rgb(156.317931986491,145.104145229766,145.104145229766)" rx="2" ry="2" />
<text  x="999.00" y="241.5" >KSPSolve</text>
</g>
<g >
<title>PCSetUp (890,715 us, 0.09%)</title><rect x="1180.0" y="119" width="1.1" height="15.0" fill="rgb(118.651496984715,147.798536255297,147.798536255297)" rx="2" ry="2" />
<text  x="1183.03" y="129.5" ></text>
</g>
<g >
<title>firedrake.mg.interface.restrict (917,223 us, 0.10%)</title><rect x="941.9" y="279" width="1.1" height="15.0" fill="rgb(148.939926076455,148.939926076455,114.093487908975)" rx="2" ry="2" />
<text  x="944.88" y="289.5" ></text>
</g>
<g >
<title>pyop2.parloop.JITModule.compile (556,080 us, 0.06%)</title><rect x="937.9" y="327" width="0.6" height="15.0" fill="rgb(128.25125310561,150.287361916269,150.287361916269)" rx="2" ry="2" />
<text  x="940.86" y="337.5" ></text>
</g>
<g >
<title>firedrake.interpolation.interpolate (1,202,356 us, 0.13%)</title><rect x="940.0" y="327" width="1.5" height="15.0" fill="rgb(129.680650506062,129.680650506062,152.518835581818)" rx="2" ry="2" />
<text  x="943.00" y="337.5" ></text>
</g>
<g >
<title>KSPSolve (949,301,216 us, 98.72%)</title><rect x="15.1" y="119" width="1164.9" height="15.0" fill="rgb(155.837455289419,141.42049055221,141.42049055221)" rx="2" ry="2" />
<text  x="18.14" y="129.5" >KSPSolve</text>
</g>
<g >
<title>firedrake.pointquery_utils.to_reference_coordinates (333,361 us, 0.03%)</title><rect x="938.5" y="311" width="0.5" height="15.0" fill="rgb(118.596976614108,118.596976614108,150.373608376924)" rx="2" ry="2" />
<text  x="941.54" y="321.5" ></text>
</g>
<g >
<title>PyOP2SolveCallable_getrf (1,581,240 us, 0.16%)</title><rect x="26.3" y="247" width="1.9" height="15.0" fill="rgb(145.245346651526,145.245346651526,155.531357416424)" rx="2" ry="2" />
<text  x="29.30" y="257.5" ></text>
</g>
<g >
<title>pyop2.parloop.JITModule.compile (15,884,847 us, 1.65%)</title><rect x="1042.5" y="327" width="19.5" height="15.0" fill="rgb(142.048503387137,142.048503387137,154.912613558801)" rx="2" ry="2" />
<text  x="1045.54" y="337.5" ></text>
</g>
<g >
<title>PCSetUp (3,302,752 us, 0.34%)</title><rect x="939.0" y="247" width="4.0" height="15.0" fill="rgb(113.475186834251,113.475186834251,149.382294225984)" rx="2" ry="2" />
<text  x="941.95" y="257.5" ></text>
</g>
<g >
<title>KSPSetUp (143,926,179 us, 14.97%)</title><rect x="996.0" y="215" width="176.6" height="15.0" fill="rgb(152.281366173074,143.346000818502,152.281366173074)" rx="2" ry="2" />
<text  x="999.00" y="225.5" >KSPSetUp</text>
</g>
<g >
<title>firedrake.tsfc_interface.compile_form (2,553,873 us, 0.27%)</title><rect x="1062.0" y="311" width="3.2" height="15.0" fill="rgb(156.392004674414,145.672035837175,145.672035837175)" rx="2" ry="2" />
<text  x="1065.03" y="321.5" ></text>
</g>
<g >
<title>PyOP2InverseCallable_getrf (1,468,019 us, 0.15%)</title><rect x="1077.5" y="311" width="1.8" height="15.0" fill="rgb(156.218421157617,144.341228875065,144.341228875065)" rx="2" ry="2" />
<text  x="1080.49" y="321.5" ></text>
</g>
<g >
<title>firedrake.parloops.par_loop (893,848 us, 0.09%)</title><rect x="79.0" y="183" width="1.1" height="15.0" fill="rgb(119.926246878616,119.926246878616,150.630886492635)" rx="2" ry="2" />
<text  x="81.98" y="193.5" ></text>
</g>
<g >
<title>PCSetUp (143,926,179 us, 14.97%)</title><rect x="996.0" y="199" width="176.6" height="15.0" fill="rgb(150.106033875072,150.106033875072,119.74462570227)" rx="2" ry="2" />
<text  x="999.00" y="209.5" >PCSetUp</text>
</g>
<g >
<title>firedrake.mg.interface.prolong (1,105,374 us, 0.11%)</title><rect x="937.6" y="295" width="1.4" height="15.0" fill="rgb(140.940902664854,160.777062356884,140.940902664854)" rx="2" ry="2" />
<text  x="940.60" y="305.5" ></text>
</g>
<g >
<title>KSPSolve (867,099,614 us, 90.17%)</title><rect x="108.6" y="167" width="1064.0" height="15.0" fill="rgb(126.803557633692,149.912033460587,149.912033460587)" rx="2" ry="2" />
<text  x="111.59" y="177.5" >KSPSolve</text>
</g>
<g >
<title>PyOP2SolveCallable_gerts (525,945 us, 0.05%)</title><rect x="1023.4" y="343" width="0.6" height="15.0" fill="rgb(135.975953876447,152.290062116116,152.290062116116)" rx="2" ry="2" />
<text  x="1026.35" y="353.5" ></text>
</g>
<g >
<title>PyOP2SolveCallable_getrf (814,325 us, 0.08%)</title><rect x="58.2" y="231" width="1.0" height="15.0" fill="rgb(110.157175076465,145.596304649454,145.596304649454)" rx="2" ry="2" />
<text  x="61.19" y="241.5" ></text>
</g>
<g >
<title>PCApply (683,786,224 us, 71.11%)</title><rect x="156.9" y="199" width="839.1" height="15.0" fill="rgb(151.357771089208,151.357771089208,125.810736816933)" rx="2" ry="2" />
<text  x="159.92" y="209.5" >PCApply</text>
</g>
<g >
<title>PyOP2InverseCallable_getrf (761,449 us, 0.08%)</title><rect x="22.6" y="247" width="1.0" height="15.0" fill="rgb(115.590122353404,147.004846536068,147.004846536068)" rx="2" ry="2" />
<text  x="25.62" y="257.5" ></text>
</g>
<g >
<title>pyop2.parloop.JITModule.compile (6,119,105 us, 0.64%)</title><rect x="1181.1" y="183" width="7.5" height="15.0" fill="rgb(126.035264585258,163.203561579144,126.035264585258)" rx="2" ry="2" />
<text  x="1184.12" y="193.5" ></text>
</g>
<g >
<title>perfsolve (957,424,969 us, 99.56%)</title><rect x="15.1" y="71" width="1174.9" height="15.0" fill="rgb(155.702189217593,140.383450668216,140.383450668216)" rx="2" ry="2" />
<text  x="18.14" y="81.5" >perfsolve</text>
</g>
<g >
<title>PyOP2InverseCallable_getri (4,579,909 us, 0.48%)</title><rect x="1079.3" y="311" width="5.6" height="15.0" fill="rgb(155.990967738126,142.597419325633,142.597419325633)" rx="2" ry="2" />
<text  x="1082.29" y="321.5" ></text>
</g>
<g >
<title>firedrake.assemble.assemble_form (4,571,184 us, 0.48%)</title><rect x="1174.3" y="199" width="5.6" height="15.0" fill="rgb(155.418234731179,138.206466272371,138.206466272371)" rx="2" ry="2" />
<text  x="1177.27" y="209.5" ></text>
</g>
<g >
<title>PyOP2SolveCallable_getrf (15,432,938 us, 1.60%)</title><rect x="137.0" y="279" width="19.0" height="15.0" fill="rgb(155.491257036118,138.766303943575,138.766303943575)" rx="2" ry="2" />
<text  x="140.03" y="289.5" ></text>
</g>
<g >
<title>MatZeroInitial (382,366 us, 0.04%)</title><rect x="1067.8" y="263" width="0.5" height="15.0" fill="rgb(152.770166916002,152.770166916002,132.655424285239)" rx="2" ry="2" />
<text  x="1070.81" y="273.5" ></text>
</g>
<g >
<title>firedrake.mg.interface.inject (2,385,529 us, 0.25%)</title><rect x="939.0" y="311" width="2.9" height="15.0" fill="rgb(122.57348148181,148.81534705084,148.81534705084)" rx="2" ry="2" />
<text  x="941.95" y="321.5" ></text>
</g>
<g >
<title>firedrake.assemble.assemble (56,367,418 us, 5.86%)</title><rect x="996.0" y="279" width="69.2" height="15.0" fill="rgb(153.264715403906,121.696151429948,121.696151429948)" rx="2" ry="2" />
<text  x="999.00" y="289.5" >firedra..</text>
</g>
<g >
<title>pyop2.parloop.JITModule.compile (893,848 us, 0.09%)</title><rect x="79.0" y="215" width="1.1" height="15.0" fill="rgb(126.589383954933,126.589383954933,151.920525926761)" rx="2" ry="2" />
<text  x="81.98" y="225.5" ></text>
</g>
<g >
<title>firedrake.assemble.assemble (19,555,872 us, 2.03%)</title><rect x="55.0" y="167" width="24.0" height="15.0" fill="rgb(154.398787841805,154.398787841805,140.547971848749)" rx="2" ry="2" />
<text  x="57.99" y="177.5" >f..</text>
</g>
<g >
<title>firedrake.assemble.assemble (7,233,038 us, 0.75%)</title><rect x="1181.1" y="135" width="8.9" height="15.0" fill="rgb(154.690755970621,132.629129108097,132.629129108097)" rx="2" ry="2" />
<text  x="1184.12" y="145.5" ></text>
</g>
<g >
<title>ParLoopExecute (1,349,392 us, 0.14%)</title><rect x="1172.6" y="183" width="1.7" height="15.0" fill="rgb(154.671212546459,132.479296189523,132.479296189523)" rx="2" ry="2" />
<text  x="1175.61" y="193.5" ></text>
</g>
<g >
<title>pyop2.parloop.JITModule.compile (14,030,579 us, 1.46%)</title><rect x="59.2" y="215" width="17.2" height="15.0" fill="rgb(154.76371603587,133.188489608333,133.188489608333)" rx="2" ry="2" />
<text  x="62.19" y="225.5" ></text>
</g>
<g >
<title>ParLoopExecute (1,108,621 us, 0.12%)</title><rect x="10.6" y="103" width="1.4" height="15.0" fill="rgb(152.583039722544,116.469971206172,116.469971206172)" rx="2" ry="2" />
<text  x="13.64" y="113.5" ></text>
</g>
<g >
<title>CreateSparsity (125,829 us, 0.01%)</title><rect x="1179.9" y="199" width="0.1" height="15.0" fill="rgb(144.717421197054,160.162280270247,144.717421197054)" rx="2" ry="2" />
<text  x="1182.88" y="209.5" ></text>
</g>
<g >
<title>firedrake.matrix_free.operators.ImplicitMatrixContext.mult (39,387,211 us, 4.10%)</title><rect x="108.6" y="199" width="48.3" height="15.0" fill="rgb(155.823060521867,155.823060521867,147.450216375202)" rx="2" ry="2" />
<text  x="111.59" y="209.5" >fire..</text>
</g>
<g >
<title>firedrake.extrusion_utils.make_extruded_coords (1,108,621 us, 0.12%)</title><rect x="10.6" y="87" width="1.4" height="15.0" fill="rgb(149.688197202616,149.688197202616,117.719724904983)" rx="2" ry="2" />
<text  x="13.64" y="97.5" ></text>
</g>
<g >
<title>ParLoopExecute (39,387,211 us, 4.10%)</title><rect x="108.6" y="247" width="48.3" height="15.0" fill="rgb(118.954684437571,118.954684437571,150.442842149207)" rx="2" ry="2" />
<text  x="111.59" y="257.5" >ParL..</text>
</g>
<g >
<title>PyOP2SolveCallable_memcpy (500,822 us, 0.05%)</title><rect x="1041.9" y="343" width="0.6" height="15.0" fill="rgb(147.696806863195,131.598067586938,147.696806863195)" rx="2" ry="2" />
<text  x="1044.93" y="353.5" ></text>
</g>
<g >
<title>firedrake.dmhooks.coarsen (2,385,529 us, 0.25%)</title><rect x="939.0" y="279" width="2.9" height="15.0" fill="rgb(107.754560746882,144.973404638081,144.973404638081)" rx="2" ry="2" />
<text  x="941.95" y="289.5" ></text>
</g>
<g >
<title>all (961,611,585 us, 100%)</title><rect x="10.0" y="39" width="1180.0" height="15.0" fill="rgb(108.19070305137,145.086478568874,145.086478568874)" rx="2" ry="2" />
<text  x="13.00" y="49.5" ></text>
</g>
<g >
<title>PyOP2SolveCallable_gerts (530,059 us, 0.06%)</title><rect x="136.4" y="279" width="0.6" height="15.0" fill="rgb(123.470777075447,123.470777075447,151.316924595248)" rx="2" ry="2" />
<text  x="139.38" y="289.5" ></text>
</g>
<g >
<title>RecoverFirstElim (31,540,863 us, 3.28%)</title><rect x="16.3" y="167" width="38.7" height="15.0" fill="rgb(141.843400394668,141.843400394668,154.87291620542)" rx="2" ry="2" />
<text  x="19.28" y="177.5" >Rec..</text>
</g>
<g >
<title>PyOP2SolveCallable_getrf (16,978,393 us, 1.77%)</title><rect x="974.2" y="327" width="20.8" height="15.0" fill="rgb(143.609287703035,160.342674094855,143.609287703035)" rx="2" ry="2" />
<text  x="977.15" y="337.5" ></text>
</g>
<g >
<title>firedrake.tsfc_interface.compile_form (2,319,475 us, 0.24%)</title><rect x="105.7" y="215" width="2.9" height="15.0" fill="rgb(151.652635972308,151.652635972308,127.239697404264)" rx="2" ry="2" />
<text  x="108.74" y="225.5" ></text>
</g>
<g >
<title>firedrake.assemble.assemble_form (43,185,323 us, 4.49%)</title><rect x="943.0" y="279" width="53.0" height="15.0" fill="rgb(152.280976158853,114.154150551209,114.154150551209)" rx="2" ry="2" />
<text  x="946.01" y="289.5" >fire..</text>
</g>
<g >
<title>firedrake.assemble.assemble (85,021,631 us, 8.84%)</title><rect x="1068.3" y="247" width="104.3" height="15.0" fill="rgb(144.018610105586,154.375195212559,154.375195212559)" rx="2" ry="2" />
<text  x="1071.28" y="257.5" >firedrake.a..</text>
</g>
<g >
<title>pyop2.parloop.JITModule.compile (1,349,392 us, 0.14%)</title><rect x="1172.6" y="199" width="1.7" height="15.0" fill="rgb(146.165235591538,154.931727745954,154.931727745954)" rx="2" ry="2" />
<text  x="1175.61" y="209.5" ></text>
</g>
<g >
<title>pyop2.parloop.JITModule.compile (584,929 us, 0.06%)</title><rect x="939.3" y="343" width="0.7" height="15.0" fill="rgb(135.08799572548,135.08799572548,153.565418527512)" rx="2" ry="2" />
<text  x="942.28" y="353.5" ></text>
</g>
<g >
<title>firedrake.assemble.assemble (4,571,184 us, 0.48%)</title><rect x="1174.3" y="183" width="5.6" height="15.0" fill="rgb(143.083234078409,143.083234078409,155.112884015176)" rx="2" ry="2" />
<text  x="1177.27" y="193.5" ></text>
</g>
<g >
<title>PCApply (827,712,403 us, 86.08%)</title><rect x="156.9" y="183" width="1015.7" height="15.0" fill="rgb(155.152968145607,136.172755782984,136.172755782984)" rx="2" ry="2" />
<text  x="159.92" y="193.5" >PCApply</text>
</g>
<g >
<title>firedrake.assemble.assemble (39,387,211 us, 4.10%)</title><rect x="108.6" y="215" width="48.3" height="15.0" fill="rgb(118.5068359884,118.5068359884,150.356161804206)" rx="2" ry="2" />
<text  x="111.59" y="225.5" >fire..</text>
</g>
<g >
<title>firedrake.assemble.assemble_form (635,971,537 us, 66.14%)</title><rect x="157.1" y="279" width="780.4" height="15.0" fill="rgb(121.147455044406,121.147455044406,150.867249363433)" rx="2" ry="2" />
<text  x="160.05" y="289.5" >firedrake.assemble.assemble_form</text>
</g>
<g >
<title>firedrake.assemble.assemble (635,971,537 us, 66.14%)</title><rect x="157.1" y="263" width="780.4" height="15.0" fill="rgb(155.779989920027,155.779989920027,147.241489612436)" rx="2" ry="2" />
<text  x="160.05" y="273.5" >firedrake.assemble.assemble</text>
</g>
<g >
<title>firedrake.interpolation.Interpolator.interpolate (1,202,356 us, 0.13%)</title><rect x="940.0" y="343" width="1.5" height="15.0" fill="rgb(153.936757039908,153.936757039908,138.308899501092)" rx="2" ry="2" />
<text  x="943.00" y="353.5" ></text>
</g>
<g >
<title>ParLoopExecute (26,552,076 us, 2.76%)</title><rect x="17.9" y="215" width="32.6" height="15.0" fill="rgb(110.257182614904,145.62223252979,145.62223252979)" rx="2" ry="2" />
<text  x="20.95" y="225.5" >Pa..</text>
</g>
<g >
<title>MatMultTranspose (917,223 us, 0.10%)</title><rect x="941.9" y="263" width="1.1" height="15.0" fill="rgb(156.2727088324,144.757434381733,144.757434381733)" rx="2" ry="2" />
<text  x="944.88" y="273.5" ></text>
</g>
<g >
<title>DMCoarsen (2,385,529 us, 0.25%)</title><rect x="939.0" y="263" width="2.9" height="15.0" fill="rgb(154.674917171144,132.507698312103,132.507698312103)" rx="2" ry="2" />
<text  x="941.95" y="273.5" ></text>
</g>
<g >
<title>ParLoopExecute (767,357 us, 0.08%)</title><rect x="1180.2" y="167" width="0.9" height="15.0" fill="rgb(122.383834887943,148.766179415393,148.766179415393)" rx="2" ry="2" />
<text  x="1183.18" y="177.5" ></text>
</g>
<g >
<title>MatMult (1,105,374 us, 0.11%)</title><rect x="937.6" y="263" width="1.4" height="15.0" fill="rgb(153.816757336623,125.928472914113,125.928472914113)" rx="2" ry="2" />
<text  x="940.60" y="273.5" ></text>
</g>
<g >
<title>firedrake.assemble.assemble_form (31,540,863 us, 3.28%)</title><rect x="16.3" y="199" width="38.7" height="15.0" fill="rgb(142.844570580329,160.467162928784,142.844570580329)" rx="2" ry="2" />
<text  x="19.28" y="209.5" >fir..</text>
</g>
<g >
<title>ParLoopExecute (893,848 us, 0.09%)</title><rect x="79.0" y="199" width="1.1" height="15.0" fill="rgb(116.963288847751,116.963288847751,150.057410744726)" rx="2" ry="2" />
<text  x="81.98" y="209.5" ></text>
</g>
<g >
<title>firedrake.__init__ (2,553,582 us, 0.27%)</title><rect x="12.0" y="71" width="3.1" height="15.0" fill="rgb(155.72896278916,140.588714716893,140.588714716893)" rx="2" ry="2" />
<text  x="15.00" y="81.5" ></text>
</g>
<g >
<title>SNESFunctionEval (7,233,038 us, 0.75%)</title><rect x="1181.1" y="119" width="8.9" height="15.0" fill="rgb(152.782503315399,117.999192084727,117.999192084727)" rx="2" ry="2" />
<text  x="1184.12" y="129.5" ></text>
</g>
<g >
<title>firedrake.assemble.assemble_form (23,231,302 us, 2.42%)</title><rect x="80.1" y="199" width="28.5" height="15.0" fill="rgb(148.30034321793,148.30034321793,110.9939709792)" rx="2" ry="2" />
<text  x="83.08" y="209.5" >f..</text>
</g>
<g >
<title>firedrake.matrix_free.operators.ImplicitMatrixContext.mult (636,078,374 us, 66.15%)</title><rect x="156.9" y="247" width="780.6" height="15.0" fill="rgb(155.608369025965,155.608369025965,146.409788356601)" rx="2" ry="2" />
<text  x="159.92" y="257.5" >firedrake.matrix_free.operators.ImplicitMatrixContext.mult</text>
</g>
<g >
<title>pyop2.parloop.JITModule.compile (767,357 us, 0.08%)</title><rect x="1180.2" y="183" width="0.9" height="15.0" fill="rgb(134.246092693776,161.866915142874,134.246092693776)" rx="2" ry="2" />
<text  x="1183.18" y="193.5" ></text>
</g>
<g >
<title>HybridProject (933,312 us, 0.10%)</title><rect x="15.1" y="167" width="1.2" height="15.0" fill="rgb(124.524187901182,163.449550806784,124.524187901182)" rx="2" ry="2" />
<text  x="18.14" y="177.5" ></text>
</g>
<g >
<title>firedrake.assemble.assemble (31,540,863 us, 3.28%)</title><rect x="16.3" y="183" width="38.7" height="15.0" fill="rgb(153.395889871784,153.395889871784,135.687773994031)" rx="2" ry="2" />
<text  x="19.28" y="193.5" >fir..</text>
</g>
<g >
<title>ParLoopExecute (621,470 us, 0.06%)</title><rect x="941.9" y="295" width="0.7" height="15.0" fill="rgb(147.873139313693,159.648558716376,147.873139313693)" rx="2" ry="2" />
<text  x="944.88" y="305.5" ></text>
</g>
<g >
<title>PyOP2SolveCallable_getrf (1,399,444 us, 0.15%)</title><rect x="84.1" y="247" width="1.7" height="15.0" fill="rgb(152.319413166511,114.448834276582,114.448834276582)" rx="2" ry="2" />
<text  x="87.07" y="257.5" ></text>
</g>
<g >
<title>firedrake.assemble.allocate_matrix (2,537,130 us, 0.26%)</title><rect x="1065.2" y="247" width="3.1" height="15.0" fill="rgb(150.522293105726,150.522293105726,121.761881973904)" rx="2" ry="2" />
<text  x="1068.17" y="257.5" ></text>
</g>
<g >
<title>pyop2.parloop.JITModule.compile (621,470 us, 0.06%)</title><rect x="941.9" y="311" width="0.7" height="15.0" fill="rgb(150.712920422244,139.326858582001,150.712920422244)" rx="2" ry="2" />
<text  x="944.88" y="321.5" ></text>
</g>
<g >
<title>ParLoop_Cells_wrap_wrap_slate_loopy_knl_7 (36,733,743 us, 3.82%)</title><rect x="997.5" y="327" width="45.0" height="15.0" fill="rgb(152.248936579197,152.248936579197,130.1294618838)" rx="2" ry="2" />
<text  x="1000.47" y="337.5" >Par..</text>
</g>
<g >
<title>firedrake.variational_solver.NonlinearVariationalSolver.solve (957,424,969 us, 99.56%)</title><rect x="15.1" y="87" width="1174.9" height="15.0" fill="rgb(133.662109602435,95.6341558562406,133.662109602435)" rx="2" ry="2" />
<text  x="18.14" y="97.5" >firedrake.variational_solver.NonlinearVariationalSolver.solve</text>
</g>
<g >
<title>firedrake.assemble.assemble (23,231,302 us, 2.42%)</title><rect x="80.1" y="183" width="28.5" height="15.0" fill="rgb(117.499061034608,147.499756564528,147.499756564528)" rx="2" ry="2" />
<text  x="83.08" y="193.5" >f..</text>
</g>
<g >
<title>firedrake.assemble.assemble_form (39,387,211 us, 4.10%)</title><rect x="108.6" y="231" width="48.3" height="15.0" fill="rgb(152.331364369894,114.540460169187,114.540460169187)" rx="2" ry="2" />
<text  x="111.59" y="241.5" >fire..</text>
</g>
<g >
<title>firedrake.assemble.assemble_form (85,021,631 us, 8.84%)</title><rect x="1068.3" y="263" width="104.3" height="15.0" fill="rgb(132.924381872351,93.7437285478985,132.924381872351)" rx="2" ry="2" />
<text  x="1071.28" y="273.5" >firedrake.a..</text>
</g>
<g >
<title>firedrake.mg.embedded.TransferManager.op (1,105,374 us, 0.11%)</title><rect x="937.6" y="279" width="1.4" height="15.0" fill="rgb(140.049839019459,112.002712487365,140.049839019459)" rx="2" ry="2" />
<text  x="940.60" y="289.5" ></text>
</g>
<g >
<title>MatMult (39,387,211 us, 4.10%)</title><rect x="108.6" y="183" width="48.3" height="15.0" fill="rgb(152.915211926265,119.016624768035,119.016624768035)" rx="2" ry="2" />
<text  x="111.59" y="193.5" >MatM..</text>
</g>
<g >
<title>pyop2.parloop.JITModule.compile (933,312 us, 0.10%)</title><rect x="15.1" y="215" width="1.2" height="15.0" fill="rgb(137.297729397308,137.297729397308,153.993108915608)" rx="2" ry="2" />
<text  x="18.14" y="225.5" ></text>
</g>
<g >
<title>MatMult (56,367,418 us, 5.86%)</title><rect x="996.0" y="247" width="69.2" height="15.0" fill="rgb(155.592984248892,155.592984248892,146.335231360013)" rx="2" ry="2" />
<text  x="999.00" y="257.5" >MatMult</text>
</g>
<g >
<title>PyOP2SolveCallable_getrf (14,609,664 us, 1.52%)</title><rect x="1024.0" y="343" width="17.9" height="15.0" fill="rgb(124.847906463432,124.847906463432,151.583465767116)" rx="2" ry="2" />
<text  x="1027.00" y="353.5" ></text>
</g>
<g >
<title>pyop2.parloop.JITModule.compile (67,931,068 us, 7.06%)</title><rect x="1084.9" y="295" width="83.4" height="15.0" fill="rgb(154.446814912724,154.446814912724,140.780718423203)" rx="2" ry="2" />
<text  x="1087.91" y="305.5" >pyop2.pa..</text>
</g>
<g >
<title>firedrake (961,611,585 us, 100.00%)</title><rect x="10.0" y="55" width="1180.0" height="15.0" fill="rgb(136.890414256641,152.527144436907,152.527144436907)" rx="2" ry="2" />
<text  x="13.00" y="65.5" >firedrake</text>
</g>
<g >
<title>PyOP2SolveCallable_getrf (252,219,712 us, 26.23%)</title><rect x="615.7" y="327" width="309.5" height="15.0" fill="rgb(139.854472680327,111.502086243337,139.854472680327)" rx="2" ry="2" />
<text  x="618.72" y="337.5" >PyOP2SolveCallable_getrf</text>
</g>
<g >
<title>SNESSolve (957,424,969 us, 99.56%)</title><rect x="15.1" y="103" width="1174.9" height="15.0" fill="rgb(131.406143056886,151.105296348082,151.105296348082)" rx="2" ry="2" />
<text  x="18.14" y="113.5" >SNESSolve</text>
</g>
<g >
<title>pyop2.parloop.JITModule.compile (1,108,621 us, 0.12%)</title><rect x="10.6" y="119" width="1.4" height="15.0" fill="rgb(142.693638911674,142.693638911674,155.037478499034)" rx="2" ry="2" />
<text  x="13.64" y="129.5" ></text>
</g>
<g >
<title>HybridBreak (893,848 us, 0.09%)</title><rect x="79.0" y="167" width="1.1" height="15.0" fill="rgb(139.142251879376,153.110954190949,153.110954190949)" rx="2" ry="2" />
<text  x="81.98" y="177.5" ></text>
</g>
<g >
<title>ParLoopExecute (4,284,687 us, 0.45%)</title><rect x="1174.3" y="215" width="5.2" height="15.0" fill="rgb(142.879398297323,142.879398297323,155.073431928514)" rx="2" ry="2" />
<text  x="1177.27" y="225.5" ></text>
</g>
<g >
<title>ParLoop_Cells_wrap_wrap_slate_loopy_knl_3 (12,030,088 us, 1.25%)</title><rect x="1070.1" y="295" width="14.8" height="15.0" fill="rgb(139.018021339884,161.090089549321,139.018021339884)" rx="2" ry="2" />
<text  x="1073.15" y="305.5" ></text>
</g>
<g >
<title>ParLoop_Cells_wrap_wrap_slate_loopy_knl_10 (8,386,872 us, 0.87%)</title><rect x="17.9" y="231" width="10.3" height="15.0" fill="rgb(144.637708080156,123.759126955401,144.637708080156)" rx="2" ry="2" />
<text  x="20.95" y="241.5" ></text>
</g>
<g >
<title>PCSetUp (6,046,405 us, 0.63%)</title><rect x="1172.6" y="167" width="7.4" height="15.0" fill="rgb(144.7149100965,154.555717432426,154.555717432426)" rx="2" ry="2" />
<text  x="1175.61" y="177.5" ></text>
</g>
<g >
<title>MatMult (636,078,374 us, 66.15%)</title><rect x="156.9" y="231" width="780.6" height="15.0" fill="rgb(156.245252564045,144.546936324343,144.546936324343)" rx="2" ry="2" />
<text  x="159.92" y="241.5" >MatMult</text>
</g>
<g >
<title>firedrake.assemble.assemble_form (56,367,418 us, 5.86%)</title><rect x="996.0" y="295" width="69.2" height="15.0" fill="rgb(124.825631771159,163.400478548881,124.825631771159)" rx="2" ry="2" />
<text  x="999.00" y="305.5" >firedra..</text>
</g>
<g >
<title>PyOP2SolveCallable_memcpy (9,975,060 us, 1.04%)</title><rect x="925.2" y="327" width="12.3" height="15.0" fill="rgb(125.193974394567,125.193974394567,151.650446657013)" rx="2" ry="2" />
<text  x="928.22" y="337.5" ></text>
</g>
<g >
<title>ParLoopExecute (79,961,156 us, 8.32%)</title><rect x="1070.1" y="279" width="98.2" height="15.0" fill="rgb(133.573220626605,151.667131273564,151.667131273564)" rx="2" ry="2" />
<text  x="1073.15" y="289.5" >ParLoopExe..</text>
</g>
<g >
<title>PCApply (1,219,775 us, 0.13%)</title><rect x="937.5" y="247" width="1.5" height="15.0" fill="rgb(154.604063238957,131.964484832002,131.964484832002)" rx="2" ry="2" />
<text  x="940.46" y="257.5" ></text>
</g>
<g >
<title>ParLoopExecute (43,185,323 us, 4.49%)</title><rect x="943.0" y="295" width="53.0" height="15.0" fill="rgb(126.994773245493,126.994773245493,151.998988370095)" rx="2" ry="2" />
<text  x="946.01" y="305.5" >ParL..</text>
</g>
<g >
<title>PyOP2SolveCallable_gerts (8,627,132 us, 0.90%)</title><rect x="605.1" y="327" width="10.6" height="15.0" fill="rgb(114.422139748011,146.702036230966,146.702036230966)" rx="2" ry="2" />
<text  x="608.13" y="337.5" ></text>
</g>
<g >
<title>KSPSolve (640,600,901 us, 66.62%)</title><rect x="156.9" y="215" width="786.1" height="15.0" fill="rgb(152.511217530306,115.919334399012,115.919334399012)" rx="2" ry="2" />
<text  x="159.92" y="225.5" >KSPSolve</text>
</g>
<g >
<title>ParLoopExecute (52,618,590 us, 5.47%)</title><rect x="997.5" y="311" width="64.5" height="15.0" fill="rgb(149.246312175974,149.246312175974,115.578282083564)" rx="2" ry="2" />
<text  x="1000.47" y="321.5" >ParLoo..</text>
</g>
<g >
<title>firedrake.parloops.par_loop (767,357 us, 0.08%)</title><rect x="1180.2" y="151" width="0.9" height="15.0" fill="rgb(155.712116742936,155.712116742936,146.912565754229)" rx="2" ry="2" />
<text  x="1183.18" y="161.5" ></text>
</g>
<g >
<title>SCForwardElim (24,125,150 us, 2.51%)</title><rect x="79.0" y="151" width="29.6" height="15.0" fill="rgb(140.948046067969,140.948046067969,154.699621819607)" rx="2" ry="2" />
<text  x="81.98" y="161.5" >S..</text>
</g>
<g >
<title>firedrake.matrix_free.operators.ImplicitMatrixContext.mult (56,367,418 us, 5.86%)</title><rect x="996.0" y="263" width="69.2" height="15.0" fill="rgb(117.702906268539,147.55260532888,147.55260532888)" rx="2" ry="2" />
<text  x="999.00" y="273.5" >firedra..</text>
</g>
<g >
<title>ParLoop_Cells_wrap_wrap_slate_loopy_knl_0 (3,527,342 us, 0.37%)</title><rect x="81.5" y="231" width="4.3" height="15.0" fill="rgb(135.30481410384,99.8435861410908,135.30481410384)" rx="2" ry="2" />
<text  x="84.46" y="241.5" ></text>
</g>
<g >
<title>pyop2.parloop.JITModule.compile (16,261,909 us, 1.69%)</title><rect x="85.8" y="231" width="19.9" height="15.0" fill="rgb(121.413180746502,121.413180746502,150.918680144484)" rx="2" ry="2" />
<text  x="88.79" y="241.5" ></text>
</g>
<g >
<title>firedrake.assemble.assemble_form (7,233,038 us, 0.75%)</title><rect x="1181.1" y="151" width="8.9" height="15.0" fill="rgb(155.707292177843,140.422573363462,140.422573363462)" rx="2" ry="2" />
<text  x="1184.12" y="161.5" ></text>
</g>
<g >
<title>firedrake.mg.embedded.TransferManager.op (2,385,529 us, 0.25%)</title><rect x="939.0" y="295" width="2.9" height="15.0" fill="rgb(134.848177151561,161.768901393932,134.848177151561)" rx="2" ry="2" />
<text  x="941.95" y="305.5" ></text>
</g>
<g >
<title>ParLoopExecute (584,929 us, 0.06%)</title><rect x="939.3" y="327" width="0.7" height="15.0" fill="rgb(150.917908168873,159.152898670183,150.917908168873)" rx="2" ry="2" />
<text  x="942.28" y="337.5" ></text>
</g>
<g >
<title>PCSetUp (87,558,761 us, 9.11%)</title><rect x="1065.2" y="231" width="107.4" height="15.0" fill="rgb(133.535411627843,133.535411627843,153.264918379582)" rx="2" ry="2" />
<text  x="1068.17" y="241.5" >PCSetUp</text>
</g>
<g >
<title>PyOP2SolveCallable_gerts (587,668 us, 0.06%)</title><rect x="973.4" y="327" width="0.8" height="15.0" fill="rgb(150.958402020379,159.146306647845,150.958402020379)" rx="2" ry="2" />
<text  x="976.43" y="337.5" ></text>
</g>
<g >
<title>PyOP2InverseCallable_getri (2,234,886 us, 0.23%)</title><rect x="23.6" y="247" width="2.7" height="15.0" fill="rgb(132.727216230135,132.727216230135,153.108493463897)" rx="2" ry="2" />
<text  x="26.55" y="257.5" ></text>
</g>
<g >
<title>firedrake.tsfc_interface.compile_form (2,096,896 us, 0.22%)</title><rect x="76.4" y="199" width="2.6" height="15.0" fill="rgb(155.081765991044,155.081765991044,143.857789033521)" rx="2" ry="2" />
<text  x="79.41" y="209.5" ></text>
</g>
<g >
<title>firedrake.parloops.par_loop (933,312 us, 0.10%)</title><rect x="15.1" y="183" width="1.2" height="15.0" fill="rgb(131.466782999996,162.319360906977,131.466782999996)" rx="2" ry="2" />
<text  x="18.14" y="193.5" ></text>
</g>
<g >
<title>ParLoop_Cells_wrap_wrap_slate_loopy_knl_7 (43,185,323 us, 4.49%)</title><rect x="943.0" y="311" width="53.0" height="15.0" fill="rgb(154.535175055374,154.535175055374,141.208925268352)" rx="2" ry="2" />
<text  x="946.01" y="321.5" >ParL..</text>
</g>
<g >
<title>firedrake.pointquery_utils.to_reference_coordinates (329,600 us, 0.03%)</title><rect x="941.5" y="327" width="0.4" height="15.0" fill="rgb(147.159859825774,130.222140803547,147.159859825774)" rx="2" ry="2" />
<text  x="944.48" y="337.5" ></text>
</g>
<g >
<title>ParLoopExecute (556,080 us, 0.06%)</title><rect x="937.9" y="311" width="0.6" height="15.0" fill="rgb(146.70393238747,159.838894727621,146.70393238747)" rx="2" ry="2" />
<text  x="940.86" y="321.5" ></text>
</g>
<g >
<title>ParLoop_Cells_wrap_wrap_slate_loopy_knl_7 (635,971,537 us, 66.14%)</title><rect x="157.1" y="311" width="780.4" height="15.0" fill="rgb(133.992014038039,161.908276784505,133.992014038039)" rx="2" ry="2" />
<text  x="160.05" y="321.5" >ParLoop_Cells_wrap_wrap_slate_loopy_knl_7</text>
</g>
<g >
<title>HybridRHS (23,231,302 us, 2.42%)</title><rect x="80.1" y="167" width="28.5" height="15.0" fill="rgb(146.315361472088,159.902150458032,146.315361472088)" rx="2" ry="2" />
<text  x="83.08" y="177.5" >H..</text>
</g>
<g >
<title>ParLoopExecute (635,971,537 us, 66.14%)</title><rect x="157.1" y="295" width="780.4" height="15.0" fill="rgb(120.824746491443,148.361971312596,148.361971312596)" rx="2" ry="2" />
<text  x="160.05" y="305.5" >ParLoopExecute</text>
</g>
<g >
<title>firedrake.tsfc_interface.compile_form (3,633,387 us, 0.38%)</title><rect x="50.5" y="215" width="4.5" height="15.0" fill="rgb(149.64690804119,149.64690804119,117.519631276536)" rx="2" ry="2" />
<text  x="53.53" y="225.5" ></text>
</g>
<g >
<title>firedrake.tsfc_interface.compile_form (286,497 us, 0.03%)</title><rect x="1179.5" y="215" width="0.4" height="15.0" fill="rgb(151.458756522329,151.458756522329,126.300127762057)" rx="2" ry="2" />
<text  x="1182.53" y="225.5" ></text>
</g>
<g >
<title>PyOP2SolveCallable_memcpy (825,240 us, 0.09%)</title><rect x="995.0" y="327" width="1.0" height="15.0" fill="rgb(135.884983311622,152.266477154865,152.266477154865)" rx="2" ry="2" />
<text  x="997.99" y="337.5" ></text>
</g>
<g >
<title>ParLoopExecute (19,789,251 us, 2.06%)</title><rect x="81.5" y="215" width="24.2" height="15.0" fill="rgb(106.415607452863,144.62626859889,144.62626859889)" rx="2" ry="2" />
<text  x="84.46" y="225.5" >P..</text>
</g>
<g >
<title>firedrake.tsfc_interface.compile_form (1,113,933 us, 0.12%)</title><rect x="1188.6" y="167" width="1.4" height="15.0" fill="rgb(136.366650733918,136.366650733918,153.812900142049)" rx="2" ry="2" />
<text  x="1191.63" y="177.5" ></text>
</g>
<g >
<title>MatResidual (43,185,323 us, 4.49%)</title><rect x="943.0" y="215" width="53.0" height="15.0" fill="rgb(150.880562447973,150.880562447973,123.498110324794)" rx="2" ry="2" />
<text  x="946.01" y="225.5" >MatR..</text>
</g>
<g >
<title>ParLoop_Cells_wrap_wrap_slate_loopy_knl_7 (39,387,211 us, 4.10%)</title><rect x="108.6" y="263" width="48.3" height="15.0" fill="rgb(149.918411716341,149.918411716341,118.835379856114)" rx="2" ry="2" />
<text  x="111.59" y="273.5" >ParL..</text>
</g>
<g >
<title>HybridInit (890,715 us, 0.09%)</title><rect x="1180.0" y="135" width="1.1" height="15.0" fill="rgb(149.30792642635,149.30792642635,115.876874220004)" rx="2" ry="2" />
<text  x="1183.03" y="145.5" ></text>
</g>
<g >
<title>CreateSparsity (2,154,764 us, 0.22%)</title><rect x="1065.2" y="263" width="2.6" height="15.0" fill="rgb(156.179404890759,144.042104162483,144.042104162483)" rx="2" ry="2" />
<text  x="1068.17" y="273.5" ></text>
</g>
<g >
<title>firedrake.matrix_free.operators.ImplicitMatrixContext.mult (43,185,323 us, 4.49%)</title><rect x="943.0" y="247" width="53.0" height="15.0" fill="rgb(129.176070411556,150.527129365959,150.527129365959)" rx="2" ry="2" />
<text  x="946.01" y="257.5" >fire..</text>
</g>
<g >
<title>ParLoop_Cells_wrap_wrap_slate_loopy_knl_17 (2,065,576 us, 0.21%)</title><rect x="56.7" y="215" width="2.5" height="15.0" fill="rgb(135.48875740042,100.314940838577,135.48875740042)" rx="2" ry="2" />
<text  x="59.66" y="225.5" ></text>
</g>
<g >
<title>CreateExtMesh (1,108,621 us, 0.12%)</title><rect x="10.6" y="71" width="1.4" height="15.0" fill="rgb(136.672709504402,136.672709504402,153.872137323433)" rx="2" ry="2" />
<text  x="13.64" y="81.5" ></text>
</g>
<g >
<title>firedrake.tsfc_interface.compile_form (3,539,530 us, 0.37%)</title><rect x="1168.3" y="279" width="4.3" height="15.0" fill="rgb(144.446032556049,144.446032556049,155.376651462461)" rx="2" ry="2" />
<text  x="1171.27" y="289.5" ></text>
</g>
<g >
<title>firedrake.assemble.assemble (43,185,323 us, 4.49%)</title><rect x="943.0" y="263" width="53.0" height="15.0" fill="rgb(152.455360844849,143.791862164927,152.455360844849)" rx="2" ry="2" />
<text  x="946.01" y="273.5" >fire..</text>
</g>
<g >
<title>PCApply (949,301,216 us, 98.72%)</title><rect x="15.1" y="135" width="1164.9" height="15.0" fill="rgb(115.115990401316,146.881923437378,146.881923437378)" rx="2" ry="2" />
<text  x="18.14" y="145.5" >PCApply</text>
</g>
<g >
<title>pyop2.parloop.JITModule.compile (1,202,356 us, 0.13%)</title><rect x="940.0" y="375" width="1.5" height="15.0" fill="rgb(139.560322266409,153.21934280981,153.21934280981)" rx="2" ry="2" />
<text  x="943.00" y="385.5" ></text>
</g>
<g >
<title>SCSolve (873,146,019 us, 90.80%)</title><rect x="108.6" y="151" width="1071.4" height="15.0" fill="rgb(140.070515608872,160.918753272974,140.070515608872)" rx="2" ry="2" />
<text  x="111.59" y="161.5" >SCSolve</text>
</g>
<g >
<title>pyop2.parloop.JITModule.compile (4,284,687 us, 0.45%)</title><rect x="1174.3" y="231" width="5.2" height="15.0" fill="rgb(130.541387598483,162.470006670014,130.541387598483)" rx="2" ry="2" />
<text  x="1177.27" y="241.5" ></text>
</g>
<g >
<title>ParLoopExecute (6,119,105 us, 0.64%)</title><rect x="1181.1" y="167" width="7.5" height="15.0" fill="rgb(123.397317108144,149.028934065074,149.028934065074)" rx="2" ry="2" />
<text  x="1184.12" y="177.5" ></text>
</g>
<g >
<title>MatMult (43,185,323 us, 4.49%)</title><rect x="943.0" y="231" width="53.0" height="15.0" fill="rgb(152.989158251482,152.989158251482,133.716689987949)" rx="2" ry="2" />
<text  x="946.01" y="241.5" >MatM..</text>
</g>
<g >
<title>PyOP2SolveCallable_memcpy (778,436 us, 0.08%)</title><rect x="156.0" y="279" width="0.9" height="15.0" fill="rgb(111.731937032699,111.731937032699,149.044891038587)" rx="2" ry="2" />
<text  x="158.97" y="289.5" ></text>
</g>
<g >
<title>firedrake.assemble.assemble_form (19,555,872 us, 2.03%)</title><rect x="55.0" y="183" width="24.0" height="15.0" fill="rgb(122.402811505048,122.402811505048,151.110221581622)" rx="2" ry="2" />
<text  x="57.99" y="193.5" >f..</text>
</g>
<g >
<title>pyop2.parloop.JITModule.compile (18,165,204 us, 1.89%)</title><rect x="28.2" y="231" width="22.3" height="15.0" fill="rgb(110.076919164766,145.575497561236,145.575497561236)" rx="2" ry="2" />
<text  x="31.24" y="241.5" ></text>
</g>
<g >
<title>ParLoopExecute (16,096,155 us, 1.67%)</title><rect x="56.7" y="199" width="19.7" height="15.0" fill="rgb(147.72990998992,147.72990998992,108.229563797302)" rx="2" ry="2" />
<text  x="59.66" y="209.5" ></text>
</g>
<g >
<title>PCApply (4,522,527 us, 0.47%)</title><rect x="937.5" y="231" width="5.5" height="15.0" fill="rgb(147.902668168991,147.902668168991,109.066776511262)" rx="2" ry="2" />
<text  x="940.46" y="241.5" ></text>
</g>
<g >
<title>SCBackSub (52,030,047 us, 5.41%)</title><rect x="15.1" y="151" width="63.9" height="15.0" fill="rgb(152.097936253522,152.097936253522,129.39769107476)" rx="2" ry="2" />
<text  x="18.14" y="161.5" >SCBack..</text>
</g>
<g >
<title>ParLoopExecute (933,312 us, 0.10%)</title><rect x="15.1" y="199" width="1.2" height="15.0" fill="rgb(152.871247717564,152.871247717564,133.145277400501)" rx="2" ry="2" />
<text  x="18.14" y="209.5" ></text>
</g>
<g >
<title>firedrake.interpolation.make_interpolator (125,829 us, 0.01%)</title><rect x="1179.9" y="183" width="0.1" height="15.0" fill="rgb(144.097156627447,160.263253572276,144.097156627447)" rx="2" ry="2" />
<text  x="1182.88" y="193.5" ></text>
</g>
</g>
</svg>
