<?xml version="1.0" standalone="no"?>
<!DOCTYPE svg PUBLIC "-//W3C//DTD SVG 1.1//EN" "http://www.w3.org/Graphics/SVG/1.1/DTD/svg11.dtd">
<svg version="1.1" width="1200" height="347" onload="init(evt)" viewBox="0 0 1200 347" xmlns="http://www.w3.org/2000/svg" xmlns:xlink="http://www.w3.org/1999/xlink">
<!-- Flame graph stack visualization. See https://github.com/brendangregg/FlameGraph for latest version, and http://www.brendangregg.com/flamegraphs.html for examples. -->
<!-- NOTES:  -->
<defs>
	<linearGradient id="background" y1="0" y2="1" x1="0" x2="0" >
		<stop stop-color="#eeeeee" offset="5%" />
		<stop stop-color="#eeeeb0" offset="95%" />
	</linearGradient>
</defs>
<style type="text/css">
	text { font-family:Verdana; font-size:13px; fill:rgb(0,0,0); }
	#search, #ignorecase { opacity:0.1; cursor:pointer; }
	#search:hover, #search.show, #ignorecase:hover, #ignorecase.show { opacity:1; }
	#subtitle { text-anchor:middle; font-color:rgb(160,160,160); }
	#title { text-anchor:middle; font-size:18px}
	#unzoom { cursor:pointer; }
	#frames > *:hover { stroke:black; stroke-width:0.5; cursor:pointer; }
	.hide { display:none; }
	.parent { opacity:0.5; }
</style>
<script type="text/ecmascript">
<![CDATA[
	"use strict";
	var details, searchbtn, unzoombtn, matchedtxt, svg, searching, currentSearchTerm, ignorecase, ignorecaseBtn;
	function init(evt) {
		details = document.getElementById("details").firstChild;
		searchbtn = document.getElementById("search");
		ignorecaseBtn = document.getElementById("ignorecase");
		unzoombtn = document.getElementById("unzoom");
		matchedtxt = document.getElementById("matched");
		svg = document.getElementsByTagName("svg")[0];
		searching = 0;
		currentSearchTerm = null;

		// use GET parameters to restore a flamegraphs state.
		var params = get_params();
		if (params.x && params.y)
			zoom(find_group(document.querySelector('[x="' + params.x + '"][y="' + params.y + '"]')));
                if (params.s) search(params.s);
	}

	// event listeners
	window.addEventListener("click", function(e) {
		var target = find_group(e.target);
		if (target) {
			if (target.nodeName == "a") {
				if (e.ctrlKey === false) return;
				e.preventDefault();
			}
			if (target.classList.contains("parent")) unzoom();
			zoom(target);
			if (!document.querySelector('.parent')) {
				clearzoom();
				return;
			}

			// set parameters for zoom state
			var el = target.querySelector("rect");
			if (el && el.attributes && el.attributes.y && el.attributes._orig_x) {
				var params = get_params()
				params.x = el.attributes._orig_x.value;
				params.y = el.attributes.y.value;
				history.replaceState(null, null, parse_params(params));
			}
		}
		else if (e.target.id == "unzoom") clearzoom();
		else if (e.target.id == "search") search_prompt();
		else if (e.target.id == "ignorecase") toggle_ignorecase();
	}, false)

	// mouse-over for info
	// show
	window.addEventListener("mouseover", function(e) {
		var target = find_group(e.target);
		if (target) details.nodeValue = "Function: " + g_to_text(target);
	}, false)

	// clear
	window.addEventListener("mouseout", function(e) {
		var target = find_group(e.target);
		if (target) details.nodeValue = ' ';
	}, false)

	// ctrl-F for search
	// ctrl-I to toggle case-sensitive search
	window.addEventListener("keydown",function (e) {
		if (e.keyCode === 114 || (e.ctrlKey && e.keyCode === 70)) {
			e.preventDefault();
			search_prompt();
		}
		else if (e.ctrlKey && e.keyCode === 73) {
			e.preventDefault();
			toggle_ignorecase();
		}
	}, false)

	// functions
	function get_params() {
		var params = {};
		var paramsarr = window.location.search.substr(1).split('&');
		for (var i = 0; i < paramsarr.length; ++i) {
			var tmp = paramsarr[i].split("=");
			if (!tmp[0] || !tmp[1]) continue;
			params[tmp[0]]  = decodeURIComponent(tmp[1]);
		}
		return params;
	}
	function parse_params(params) {
		var uri = "?";
		for (var key in params) {
			uri += key + '=' + encodeURIComponent(params[key]) + '&';
		}
		if (uri.slice(-1) == "&")
			uri = uri.substring(0, uri.length - 1);
		if (uri == '?')
			uri = window.location.href.split('?')[0];
		return uri;
	}
	function find_child(node, selector) {
		var children = node.querySelectorAll(selector);
		if (children.length) return children[0];
	}
	function find_group(node) {
		var parent = node.parentElement;
		if (!parent) return;
		if (parent.id == "frames") return node;
		return find_group(parent);
	}
	function orig_save(e, attr, val) {
		if (e.attributes["_orig_" + attr] != undefined) return;
		if (e.attributes[attr] == undefined) return;
		if (val == undefined) val = e.attributes[attr].value;
		e.setAttribute("_orig_" + attr, val);
	}
	function orig_load(e, attr) {
		if (e.attributes["_orig_"+attr] == undefined) return;
		e.attributes[attr].value = e.attributes["_orig_" + attr].value;
		e.removeAttribute("_orig_"+attr);
	}
	function g_to_text(e) {
		var text = find_child(e, "title").firstChild.nodeValue;
		return (text)
	}
	function g_to_func(e) {
		var func = g_to_text(e);
		// if there's any manipulation we want to do to the function
		// name before it's searched, do it here before returning.
		return (func);
	}
	function update_text(e) {
		var r = find_child(e, "rect");
		var t = find_child(e, "text");
		var w = parseFloat(r.attributes.width.value) -3;
		var txt = find_child(e, "title").textContent.replace(/\([^(]*\)$/,"");
		t.attributes.x.value = parseFloat(r.attributes.x.value) + 3;

		// Smaller than this size won't fit anything
		if (w < 2 * 13 * 0.59) {
			t.textContent = "";
			return;
		}

		t.textContent = txt;
		// Fit in full text width
		if (/^ *$/.test(txt) || t.getSubStringLength(0, txt.length) < w)
			return;

		for (var x = txt.length - 2; x > 0; x--) {
			if (t.getSubStringLength(0, x + 2) <= w) {
				t.textContent = txt.substring(0, x) + "..";
				return;
			}
		}
		t.textContent = "";
	}

	// zoom
	function zoom_reset(e) {
		if (e.attributes != undefined) {
			orig_load(e, "x");
			orig_load(e, "width");
		}
		if (e.childNodes == undefined) return;
		for (var i = 0, c = e.childNodes; i < c.length; i++) {
			zoom_reset(c[i]);
		}
	}
	function zoom_child(e, x, ratio) {
		if (e.attributes != undefined) {
			if (e.attributes.x != undefined) {
				orig_save(e, "x");
				e.attributes.x.value = (parseFloat(e.attributes.x.value) - x - 10) * ratio + 10;
				if (e.tagName == "text")
					e.attributes.x.value = find_child(e.parentNode, "rect[x]").attributes.x.value + 3;
			}
			if (e.attributes.width != undefined) {
				orig_save(e, "width");
				e.attributes.width.value = parseFloat(e.attributes.width.value) * ratio;
			}
		}

		if (e.childNodes == undefined) return;
		for (var i = 0, c = e.childNodes; i < c.length; i++) {
			zoom_child(c[i], x - 10, ratio);
		}
	}
	function zoom_parent(e) {
		if (e.attributes) {
			if (e.attributes.x != undefined) {
				orig_save(e, "x");
				e.attributes.x.value = 10;
			}
			if (e.attributes.width != undefined) {
				orig_save(e, "width");
				e.attributes.width.value = parseInt(svg.width.baseVal.value) - (10 * 2);
			}
		}
		if (e.childNodes == undefined) return;
		for (var i = 0, c = e.childNodes; i < c.length; i++) {
			zoom_parent(c[i]);
		}
	}
	function zoom(node) {
		var attr = find_child(node, "rect").attributes;
		var width = parseFloat(attr.width.value);
		var xmin = parseFloat(attr.x.value);
		var xmax = parseFloat(xmin + width);
		var ymin = parseFloat(attr.y.value);
		var ratio = (svg.width.baseVal.value - 2 * 10) / width;

		// XXX: Workaround for JavaScript float issues (fix me)
		var fudge = 0.0001;

		unzoombtn.classList.remove("hide");

		var el = document.getElementById("frames").children;
		for (var i = 0; i < el.length; i++) {
			var e = el[i];
			var a = find_child(e, "rect").attributes;
			var ex = parseFloat(a.x.value);
			var ew = parseFloat(a.width.value);
			var upstack;
			// Is it an ancestor
			if (1 == 0) {
				upstack = parseFloat(a.y.value) > ymin;
			} else {
				upstack = parseFloat(a.y.value) < ymin;
			}
			if (upstack) {
				// Direct ancestor
				if (ex <= xmin && (ex+ew+fudge) >= xmax) {
					e.classList.add("parent");
					zoom_parent(e);
					update_text(e);
				}
				// not in current path
				else
					e.classList.add("hide");
			}
			// Children maybe
			else {
				// no common path
				if (ex < xmin || ex + fudge >= xmax) {
					e.classList.add("hide");
				}
				else {
					zoom_child(e, xmin, ratio);
					update_text(e);
				}
			}
		}
		search();
	}
	function unzoom() {
		unzoombtn.classList.add("hide");
		var el = document.getElementById("frames").children;
		for(var i = 0; i < el.length; i++) {
			el[i].classList.remove("parent");
			el[i].classList.remove("hide");
			zoom_reset(el[i]);
			update_text(el[i]);
		}
		search();
	}
	function clearzoom() {
		unzoom();

		// remove zoom state
		var params = get_params();
		if (params.x) delete params.x;
		if (params.y) delete params.y;
		history.replaceState(null, null, parse_params(params));
	}

	// search
	function toggle_ignorecase() {
		ignorecase = !ignorecase;
		if (ignorecase) {
			ignorecaseBtn.classList.add("show");
		} else {
			ignorecaseBtn.classList.remove("show");
		}
		reset_search();
		search();
	}
	function reset_search() {
		var el = document.querySelectorAll("#frames rect");
		for (var i = 0; i < el.length; i++) {
			orig_load(el[i], "fill")
		}
		var params = get_params();
		delete params.s;
		history.replaceState(null, null, parse_params(params));
	}
	function search_prompt() {
		if (!searching) {
			var term = prompt("Enter a search term (regexp " +
			    "allowed, eg: ^ext4_)"
			    + (ignorecase ? ", ignoring case" : "")
			    + "\nPress Ctrl-i to toggle case sensitivity", "");
			if (term != null) search(term);
		} else {
			reset_search();
			searching = 0;
			currentSearchTerm = null;
			searchbtn.classList.remove("show");
			searchbtn.firstChild.nodeValue = "Search"
			matchedtxt.classList.add("hide");
			matchedtxt.firstChild.nodeValue = ""
		}
	}
	function search(term) {
		if (term) currentSearchTerm = term;

		var re = new RegExp(currentSearchTerm, ignorecase ? 'i' : '');
		var el = document.getElementById("frames").children;
		var matches = new Object();
		var maxwidth = 0;
		for (var i = 0; i < el.length; i++) {
			var e = el[i];
			var func = g_to_func(e);
			var rect = find_child(e, "rect");
			if (func == null || rect == null)
				continue;

			// Save max width. Only works as we have a root frame
			var w = parseFloat(rect.attributes.width.value);
			if (w > maxwidth)
				maxwidth = w;

			if (func.match(re)) {
				// highlight
				var x = parseFloat(rect.attributes.x.value);
				orig_save(rect, "fill");
				rect.attributes.fill.value = "rgb(230,0,230)";

				// remember matches
				if (matches[x] == undefined) {
					matches[x] = w;
				} else {
					if (w > matches[x]) {
						// overwrite with parent
						matches[x] = w;
					}
				}
				searching = 1;
			}
		}
		if (!searching)
			return;
		var params = get_params();
		params.s = currentSearchTerm;
		history.replaceState(null, null, parse_params(params));

		searchbtn.classList.add("show");
		searchbtn.firstChild.nodeValue = "Reset Search";

		// calculate percent matched, excluding vertical overlap
		var count = 0;
		var lastx = -1;
		var lastw = 0;
		var keys = Array();
		for (k in matches) {
			if (matches.hasOwnProperty(k))
				keys.push(k);
		}
		// sort the matched frames by their x location
		// ascending, then width descending
		keys.sort(function(a, b){
			return a - b;
		});
		// Step through frames saving only the biggest bottom-up frames
		// thanks to the sort order. This relies on the tree property
		// where children are always smaller than their parents.
		var fudge = 0.0001;	// JavaScript floating point
		for (var k in keys) {
			var x = parseFloat(keys[k]);
			var w = matches[keys[k]];
			if (x >= lastx + lastw - fudge) {
				count += w;
				lastx = x;
				lastw = w;
			}
		}
		// display matched percent
		matchedtxt.classList.remove("hide");
		var pct = 100 * count / maxwidth;
		if (pct != 100) pct = pct.toFixed(1)
		matchedtxt.firstChild.nodeValue = "Matched: " + pct + "%";
	}
]]>
</script>
<rect x="0.0" y="0" width="1200.0" height="347.0" fill="url(#background)"  />
<text id="title" x="600.00" y="26" >Firedrake example</text>
<text id="details" x="10.00" y="329" > </text>
<text id="unzoom" x="10.00" y="26" class="hide">Reset Zoom</text>
<text id="search" x="1090.00" y="26" >Search</text>
<text id="ignorecase" x="1174.00" y="26" >ic</text>
<text id="matched" x="1090.00" y="329" > </text>
<g id="frames">
<g >
<title>Log_Event_subkernel111_interior_facet_horiz_bottom_to__exterior_facet_bottom_integral_otherwise (47,335 us, 0.18%)</title><rect x="778.1" y="247" width="2.2" height="15.0" fill="rgb(0,0,0)" rx="2" ry="2" />
<text  x="781.15" y="257.5" ></text>
</g>
<g >
<title>Parloop_Cells_wrap_form00_cell_integral_otherwise (39,804 us, 0.15%)</title><rect x="1177.5" y="183" width="1.8" height="15.0" fill="rgb(0,0,0)" rx="2" ry="2" />
<text  x="1180.46" y="193.5" ></text>
</g>
<g >
<title>Parloop_Cells_wrap_wrap_slate_loopy_knl_70 (5,008,286 us, 19.39%)</title><rect x="918.8" y="247" width="228.8" height="15.0" fill="rgb(0,0,0)" rx="2" ry="2" />
<text  x="921.83" y="257.5" >Parloop_Cells_wrap_wrap_sla..</text>
</g>
<g >
<title>firedrake.tsfc_interface.compile_form (36,546 us, 0.14%)</title><rect x="148.7" y="151" width="1.6" height="15.0" fill="rgb(0,0,0)" rx="2" ry="2" />
<text  x="151.66" y="161.5" ></text>
</g>
<g >
<title>firedrake.functionspacedata.get_shared_data (25,321 us, 0.10%)</title><rect x="73.9" y="103" width="1.1" height="15.0" fill="rgb(0,0,0)" rx="2" ry="2" />
<text  x="76.85" y="113.5" ></text>
</g>
<g >
<title>MatMult (120,094 us, 0.46%)</title><rect x="144.8" y="119" width="5.5" height="15.0" fill="rgb(0,0,0)" rx="2" ry="2" />
<text  x="147.85" y="129.5" ></text>
</g>
<g >
<title>ParLoopExecute (13,631,072 us, 52.77%)</title><rect x="235.5" y="199" width="622.7" height="15.0" fill="rgb(0,0,0)" rx="2" ry="2" />
<text  x="238.50" y="209.5" >ParLoopExecute</text>
</g>
<g >
<title>Log_Event_subkernel115_cell_to__cell_integral_otherwise (57,985 us, 0.22%)</title><rect x="319.2" y="263" width="2.7" height="15.0" fill="rgb(0,0,0)" rx="2" ry="2" />
<text  x="322.24" y="273.5" ></text>
</g>
<g >
<title>SNESSolve (22,879,400 us, 88.57%)</title><rect x="144.8" y="87" width="1045.2" height="15.0" fill="rgb(0,0,0)" rx="2" ry="2" />
<text  x="147.85" y="97.5" >SNESSolve</text>
</g>
<g >
<title>Log_Event_subkernel90_cell_to__cell_integral_otherwise (128,591 us, 0.50%)</title><rect x="721.4" y="279" width="5.9" height="15.0" fill="rgb(0,0,0)" rx="2" ry="2" />
<text  x="724.41" y="289.5" ></text>
</g>
<g >
<title>firedrake.functionspaceimpl.FunctionSpace.__init__ (25,321 us, 0.10%)</title><rect x="73.9" y="87" width="1.1" height="15.0" fill="rgb(0,0,0)" rx="2" ry="2" />
<text  x="76.85" y="97.5" ></text>
</g>
<g >
<title>Log_Event_subkernel105_cell_to__cell_integral_otherwise (75,064 us, 0.29%)</title><rect x="304.0" y="263" width="3.4" height="15.0" fill="rgb(0,0,0)" rx="2" ry="2" />
<text  x="307.00" y="273.5" ></text>
</g>
<g >
<title>Log_Event_subkernel71_interior_facet_vert_to__exterior_facet_vert_integral_otherwise (189,660 us, 0.73%)</title><rect x="1120.7" y="263" width="8.7" height="15.0" fill="rgb(0,0,0)" rx="2" ry="2" />
<text  x="1123.73" y="273.5" ></text>
</g>
<g >
<title>Log_Event_subkernel72_cell_to__cell_integral_otherwise (69,255 us, 0.27%)</title><rect x="1129.4" y="263" width="3.2" height="15.0" fill="rgb(0,0,0)" rx="2" ry="2" />
<text  x="1132.40" y="273.5" ></text>
</g>
<g >
<title>Log_Event_subkernel13_cell_to__cell_integral_otherwise (127,400 us, 0.49%)</title><rect x="210.2" y="247" width="5.8" height="15.0" fill="rgb(0,0,0)" rx="2" ry="2" />
<text  x="213.20" y="257.5" ></text>
</g>
<g >
<title>Log_Event_mtf_solve_84 (232,017 us, 0.90%)</title><rect x="704.0" y="279" width="10.6" height="15.0" fill="rgb(0,0,0)" rx="2" ry="2" />
<text  x="707.02" y="289.5" ></text>
</g>
<g >
<title>Log_Event_subkernel125_cell_to__cell_integral_otherwise (57,282 us, 0.22%)</title><rect x="336.1" y="295" width="2.6" height="15.0" fill="rgb(0,0,0)" rx="2" ry="2" />
<text  x="339.13" y="305.5" ></text>
</g>
<g >
<title>MatMult (13,654,306 us, 52.86%)</title><rect x="234.4" y="167" width="623.8" height="15.0" fill="rgb(0,0,0)" rx="2" ry="2" />
<text  x="237.44" y="177.5" >MatMult</text>
</g>
<g >
<title>Log_Event_subkernel121_cell_to__cell_integral_otherwise (147,611 us, 0.57%)</title><rect x="345.2" y="279" width="6.7" height="15.0" fill="rgb(0,0,0)" rx="2" ry="2" />
<text  x="348.17" y="289.5" ></text>
</g>
<g >
<title>Log_Event_subkernel149_interior_facet_horiz_bottom_to__exterior_facet_bottom_integral_otherwise (45,918 us, 0.18%)</title><rect x="837.4" y="247" width="2.1" height="15.0" fill="rgb(0,0,0)" rx="2" ry="2" />
<text  x="840.41" y="257.5" ></text>
</g>
<g >
<title>MatMult (979,924 us, 3.79%)</title><rect x="858.2" y="231" width="44.7" height="15.0" fill="rgb(0,0,0)" rx="2" ry="2" />
<text  x="861.18" y="241.5" >Mat..</text>
</g>
<g >
<title>KSPSolve (22,756,375 us, 88.10%)</title><rect x="144.8" y="103" width="1039.6" height="15.0" fill="rgb(0,0,0)" rx="2" ry="2" />
<text  x="147.85" y="113.5" >KSPSolve</text>
</g>
<g >
<title>KSPSetUp (6,897,335 us, 26.70%)</title><rect x="858.2" y="199" width="315.1" height="15.0" fill="rgb(0,0,0)" rx="2" ry="2" />
<text  x="861.18" y="209.5" >KSPSetUp</text>
</g>
<g >
<title>Log_Event_tensorshell_knl_120 (598,105 us, 2.32%)</title><rect x="330.5" y="263" width="27.3" height="15.0" fill="rgb(0,0,0)" rx="2" ry="2" />
<text  x="333.48" y="273.5" >L..</text>
</g>
<g >
<title>firedrake.matrix_free.operators.ImplicitMatrixContext.mult (120,094 us, 0.46%)</title><rect x="144.8" y="135" width="5.5" height="15.0" fill="rgb(0,0,0)" rx="2" ry="2" />
<text  x="147.85" y="145.5" ></text>
</g>
<g >
<title>Log_Event_subkernel20_cell_to__cell_integral_otherwise (109,332 us, 0.42%)</title><rect x="216.0" y="247" width="5.0" height="15.0" fill="rgb(0,0,0)" rx="2" ry="2" />
<text  x="219.02" y="257.5" ></text>
</g>
<g >
<title>Log_Event_subkernel123_cell_to__cell_integral_otherwise (75,017 us, 0.29%)</title><rect x="332.7" y="295" width="3.4" height="15.0" fill="rgb(0,0,0)" rx="2" ry="2" />
<text  x="335.70" y="305.5" ></text>
</g>
<g >
<title>firedrake.interpolation.make_interpolator (93,229 us, 0.36%)</title><rect x="1179.3" y="167" width="4.2" height="15.0" fill="rgb(0,0,0)" rx="2" ry="2" />
<text  x="1182.28" y="177.5" ></text>
</g>
<g >
<title>Parloop_Cells_wrap_form1_cell_integral_otherwise (34,032 us, 0.13%)</title><rect x="147.1" y="167" width="1.6" height="15.0" fill="rgb(0,0,0)" rx="2" ry="2" />
<text  x="150.11" y="177.5" ></text>
</g>
<g >
<title>PCSetUp (5,917,411 us, 22.91%)</title><rect x="902.9" y="215" width="270.4" height="15.0" fill="rgb(0,0,0)" rx="2" ry="2" />
<text  x="905.95" y="225.5" >PCSetUp</text>
</g>
<g >
<title>Log_Event_slate_loopy_knl_79 (13,565,247 us, 52.51%)</title><rect x="238.5" y="231" width="619.7" height="15.0" fill="rgb(0,0,0)" rx="2" ry="2" />
<text  x="241.51" y="241.5" >Log_Event_slate_loopy_knl_79</text>
</g>
<g >
<title>Log_Event_subkernel15_cell_to__cell_integral_otherwise (61,128 us, 0.24%)</title><rect x="199.7" y="263" width="2.8" height="15.0" fill="rgb(0,0,0)" rx="2" ry="2" />
<text  x="202.70" y="273.5" ></text>
</g>
<g >
<title>Log_Event_subkernel68_interior_facet_vert_to__exterior_facet_vert_integral_otherwise (25,605 us, 0.10%)</title><rect x="231.6" y="215" width="1.1" height="15.0" fill="rgb(0,0,0)" rx="2" ry="2" />
<text  x="234.56" y="225.5" ></text>
</g>
<g >
<title>PCSetUp (34,580 us, 0.13%)</title><rect x="1173.3" y="199" width="1.5" height="15.0" fill="rgb(0,0,0)" rx="2" ry="2" />
<text  x="1176.26" y="209.5" ></text>
</g>
<g >
<title>Log_Event_subkernel111_interior_facet_vert_to__exterior_facet_vert_integral_otherwise (471,585 us, 1.83%)</title><rect x="782.4" y="247" width="21.6" height="15.0" fill="rgb(0,0,0)" rx="2" ry="2" />
<text  x="785.42" y="257.5" ></text>
</g>
<g >
<title>Log_Event_mtf_solve_14 (270,510 us, 1.05%)</title><rect x="197.8" y="247" width="12.4" height="15.0" fill="rgb(0,0,0)" rx="2" ry="2" />
<text  x="200.84" y="257.5" ></text>
</g>
<g >
<title>Log_Event_mtf_solve_1 (550,761 us, 2.13%)</title><rect x="197.8" y="215" width="25.2" height="15.0" fill="rgb(0,0,0)" rx="2" ry="2" />
<text  x="200.84" y="225.5" >L..</text>
</g>
<g >
<title>Log_Event_mtf_solve_4 (22,942 us, 0.09%)</title><rect x="222.0" y="247" width="1.0" height="15.0" fill="rgb(0,0,0)" rx="2" ry="2" />
<text  x="224.95" y="257.5" ></text>
</g>
<g >
<title>Parloop_Cells_wrap_slate_loopy_knl_0 (928,199 us, 3.59%)</title><rect x="192.0" y="183" width="42.4" height="15.0" fill="rgb(0,0,0)" rx="2" ry="2" />
<text  x="195.04" y="193.5" >Par..</text>
</g>
<g >
<title>Log_Event_subkernel93_cell_to__cell_integral_otherwise (147,941 us, 0.57%)</title><rect x="743.8" y="279" width="6.7" height="15.0" fill="rgb(0,0,0)" rx="2" ry="2" />
<text  x="746.76" y="289.5" ></text>
</g>
<g >
<title>Log_Event_slate_loopy_knl_70 (4,202,251 us, 16.27%)</title><rect x="926.7" y="263" width="191.9" height="15.0" fill="rgb(0,0,0)" rx="2" ry="2" />
<text  x="929.66" y="273.5" >Log_Event_slate_loopy_k..</text>
</g>
<g >
<title>PCSetUp (123,025 us, 0.48%)</title><rect x="1184.4" y="103" width="5.6" height="15.0" fill="rgb(0,0,0)" rx="2" ry="2" />
<text  x="1187.38" y="113.5" ></text>
</g>
<g >
<title>CreateSparsity (430,841 us, 1.67%)</title><rect x="1147.6" y="247" width="19.7" height="15.0" fill="rgb(0,0,0)" rx="2" ry="2" />
<text  x="1150.62" y="257.5" ></text>
</g>
<g >
<title>Log_Event_subkernel110_interior_facet_horiz_top_to__exterior_facet_top_integral_otherwise (47,040 us, 0.18%)</title><rect x="759.4" y="247" width="2.1" height="15.0" fill="rgb(0,0,0)" rx="2" ry="2" />
<text  x="762.37" y="257.5" ></text>
</g>
<g >
<title>HybridInit (123,025 us, 0.48%)</title><rect x="1184.4" y="119" width="5.6" height="15.0" fill="rgb(0,0,0)" rx="2" ry="2" />
<text  x="1187.38" y="129.5" ></text>
</g>
<g >
<title>firedrake.interpolation.make_interpolator (28,274 us, 0.11%)</title><rect x="1187.0" y="135" width="1.3" height="15.0" fill="rgb(0,0,0)" rx="2" ry="2" />
<text  x="1189.98" y="145.5" ></text>
</g>
<g >
<title>Log_Event_tensorshell_knl_134 (88,836 us, 0.34%)</title><rect x="525.7" y="295" width="4.1" height="15.0" fill="rgb(0,0,0)" rx="2" ry="2" />
<text  x="528.72" y="305.5" ></text>
</g>
<g >
<title>pyop2.global_kernel.GlobalKernel.compile (34,032 us, 0.13%)</title><rect x="147.1" y="183" width="1.6" height="15.0" fill="rgb(0,0,0)" rx="2" ry="2" />
<text  x="150.11" y="193.5" ></text>
</g>
<g >
<title>firedrake.parloops.par_loop (36,892 us, 0.14%)</title><rect x="150.3" y="167" width="1.7" height="15.0" fill="rgb(0,0,0)" rx="2" ry="2" />
<text  x="153.33" y="177.5" ></text>
</g>
<g >
<title>Log_Event_subkernel87_cell_to__cell_integral_otherwise (57,281 us, 0.22%)</title><rect x="708.5" y="295" width="2.7" height="15.0" fill="rgb(0,0,0)" rx="2" ry="2" />
<text  x="711.54" y="305.5" ></text>
</g>
<g >
<title>HybridRHS (1,804,291 us, 6.98%)</title><rect x="152.0" y="151" width="82.4" height="15.0" fill="rgb(0,0,0)" rx="2" ry="2" />
<text  x="155.02" y="161.5" >HybridRHS</text>
</g>
<g >
<title>KSPSolve (979,924 us, 3.79%)</title><rect x="858.2" y="215" width="44.7" height="15.0" fill="rgb(0,0,0)" rx="2" ry="2" />
<text  x="861.18" y="225.5" >KSP..</text>
</g>
<g >
<title>firedrake.tsfc_interface.compile_form (19,651 us, 0.08%)</title><rect x="1173.9" y="215" width="0.9" height="15.0" fill="rgb(0,0,0)" rx="2" ry="2" />
<text  x="1176.94" y="225.5" ></text>
</g>
<g >
<title>ParLoopExecute (83,548 us, 0.32%)</title><rect x="144.8" y="151" width="3.9" height="15.0" fill="rgb(0,0,0)" rx="2" ry="2" />
<text  x="147.85" y="161.5" ></text>
</g>
<g >
<title>PCApply (22,636,281 us, 87.63%)</title><rect x="150.3" y="119" width="1034.1" height="15.0" fill="rgb(0,0,0)" rx="2" ry="2" />
<text  x="153.33" y="129.5" >PCApply</text>
</g>
<g >
<title>Log_Event_mtf_solve_38 (74,242 us, 0.29%)</title><rect x="224.8" y="215" width="3.4" height="15.0" fill="rgb(0,0,0)" rx="2" ry="2" />
<text  x="227.81" y="225.5" ></text>
</g>
<g >
<title>Log_Event_subkernel17_cell_to__cell_integral_otherwise (47,749 us, 0.18%)</title><rect x="202.5" y="263" width="2.2" height="15.0" fill="rgb(0,0,0)" rx="2" ry="2" />
<text  x="205.49" y="273.5" ></text>
</g>
<g >
<title>Log_Event_mtf_solve_61 (16,571 us, 0.06%)</title><rect x="228.2" y="215" width="0.8" height="15.0" fill="rgb(0,0,0)" rx="2" ry="2" />
<text  x="231.20" y="225.5" ></text>
</g>
<g >
<title>Log_Event_mtf_solve_24 (22,884 us, 0.09%)</title><rect x="223.0" y="215" width="1.0" height="15.0" fill="rgb(0,0,0)" rx="2" ry="2" />
<text  x="226.00" y="225.5" ></text>
</g>
<g >
<title>Log_Event_subkernel146_cell_to__cell_integral_otherwise (138,890 us, 0.54%)</title><rect x="697.7" y="263" width="6.3" height="15.0" fill="rgb(0,0,0)" rx="2" ry="2" />
<text  x="700.68" y="273.5" ></text>
</g>
<g >
<title>Parloop_Cells_wrap_par_loop_kernel (36,892 us, 0.14%)</title><rect x="150.3" y="199" width="1.7" height="15.0" fill="rgb(0,0,0)" rx="2" ry="2" />
<text  x="153.33" y="209.5" ></text>
</g>
<g >
<title>pyop2.global_kernel.GlobalKernel.compile (36,892 us, 0.14%)</title><rect x="150.3" y="215" width="1.7" height="15.0" fill="rgb(0,0,0)" rx="2" ry="2" />
<text  x="153.33" y="225.5" ></text>
</g>
<g >
<title>Log_Event_subkernel67_interior_facet_vert_to__exterior_facet_vert_integral_otherwise (25,735 us, 0.10%)</title><rect x="230.4" y="215" width="1.2" height="15.0" fill="rgb(0,0,0)" rx="2" ry="2" />
<text  x="233.38" y="225.5" ></text>
</g>
<g >
<title>PCSetUp (208,877 us, 0.81%)</title><rect x="1174.8" y="151" width="9.6" height="15.0" fill="rgb(0,0,0)" rx="2" ry="2" />
<text  x="1177.84" y="161.5" ></text>
</g>
<g >
<title>ParLoopExecute (928,199 us, 3.59%)</title><rect x="192.0" y="167" width="42.4" height="15.0" fill="rgb(0,0,0)" rx="2" ry="2" />
<text  x="195.04" y="177.5" >Par..</text>
</g>
<g >
<title>firedrake.__init__ (1,509,646 us, 5.84%)</title><rect x="75.0" y="71" width="69.0" height="15.0" fill="rgb(0,0,0)" rx="2" ry="2" />
<text  x="78.01" y="81.5" >firedr..</text>
</g>
<g >
<title>Log_Event_tensorshell_knl_39 (37,087 us, 0.14%)</title><rect x="224.8" y="231" width="1.7" height="15.0" fill="rgb(0,0,0)" rx="2" ry="2" />
<text  x="227.81" y="241.5" ></text>
</g>
<g >
<title>Log_Event_mtf_solve_94 (231,715 us, 0.90%)</title><rect x="727.3" y="279" width="10.6" height="15.0" fill="rgb(0,0,0)" rx="2" ry="2" />
<text  x="730.28" y="289.5" ></text>
</g>
<g >
<title>Log_Event_tensorshell_knl_137 (179,905 us, 0.70%)</title><rect x="529.8" y="295" width="8.2" height="15.0" fill="rgb(0,0,0)" rx="2" ry="2" />
<text  x="532.77" y="305.5" ></text>
</g>
<g >
<title>Log_Event_tensorshell_knl_12 (507,242 us, 1.96%)</title><rect x="197.8" y="231" width="23.2" height="15.0" fill="rgb(0,0,0)" rx="2" ry="2" />
<text  x="200.84" y="241.5" >L..</text>
</g>
<g >
<title>PCApply (6,931,915 us, 26.84%)</title><rect x="858.2" y="167" width="316.6" height="15.0" fill="rgb(0,0,0)" rx="2" ry="2" />
<text  x="861.18" y="177.5" >PCApply</text>
</g>
<g >
<title>pyop2.global_kernel.GlobalKernel.compile (38,829 us, 0.15%)</title><rect x="1175.7" y="199" width="1.8" height="15.0" fill="rgb(0,0,0)" rx="2" ry="2" />
<text  x="1178.68" y="209.5" ></text>
</g>
<g >
<title>Parloop_Cells_wrap_par_loop_kernel (37,746 us, 0.15%)</title><rect x="1188.3" y="167" width="1.7" height="15.0" fill="rgb(0,0,0)" rx="2" ry="2" />
<text  x="1191.28" y="177.5" ></text>
</g>
<g >
<title>firedrake.tsfc_interface.compile_form (18,490 us, 0.07%)</title><rect x="1183.5" y="167" width="0.9" height="15.0" fill="rgb(0,0,0)" rx="2" ry="2" />
<text  x="1186.54" y="177.5" ></text>
</g>
<g >
<title>Log_Event_mtf_solve_81 (1,017,730 us, 3.94%)</title><rect x="704.0" y="247" width="46.5" height="15.0" fill="rgb(0,0,0)" rx="2" ry="2" />
<text  x="707.02" y="257.5" >Log_..</text>
</g>
<g >
<title>Log_Event_subkernel100_cell_to__cell_integral_otherwise (128,869 us, 0.50%)</title><rect x="737.9" y="279" width="5.9" height="15.0" fill="rgb(0,0,0)" rx="2" ry="2" />
<text  x="740.87" y="289.5" ></text>
</g>
<g >
<title>Log_Event_subkernel88_cell_to__cell_integral_otherwise (75,860 us, 0.29%)</title><rect x="711.2" y="295" width="3.4" height="15.0" fill="rgb(0,0,0)" rx="2" ry="2" />
<text  x="714.16" y="305.5" ></text>
</g>
<g >
<title>Log_Event_slate_loopy_knl_0 (890,720 us, 3.45%)</title><rect x="192.0" y="199" width="40.7" height="15.0" fill="rgb(0,0,0)" rx="2" ry="2" />
<text  x="195.04" y="209.5" >Log..</text>
</g>
<g >
<title>ParLoopExecute (36,892 us, 0.14%)</title><rect x="150.3" y="183" width="1.7" height="15.0" fill="rgb(0,0,0)" rx="2" ry="2" />
<text  x="153.33" y="193.5" ></text>
</g>
<g >
<title>firedrake.parloops.par_loop (37,746 us, 0.15%)</title><rect x="1188.3" y="135" width="1.7" height="15.0" fill="rgb(0,0,0)" rx="2" ry="2" />
<text  x="1191.28" y="145.5" ></text>
</g>
<g >
<title>Log_Event_subkernel98_cell_to__cell_integral_otherwise (75,910 us, 0.29%)</title><rect x="734.4" y="295" width="3.5" height="15.0" fill="rgb(0,0,0)" rx="2" ry="2" />
<text  x="737.40" y="305.5" ></text>
</g>
<g >
<title>Log_Event_subkernel131_cell_to__cell_integral_otherwise (1,772,109 us, 6.86%)</title><rect x="538.0" y="279" width="80.9" height="15.0" fill="rgb(0,0,0)" rx="2" ry="2" />
<text  x="540.99" y="289.5" >Log_Even..</text>
</g>
<g >
<title>Log_Event_tensorshell_knl_92 (508,525 us, 1.97%)</title><rect x="727.3" y="263" width="23.2" height="15.0" fill="rgb(0,0,0)" rx="2" ry="2" />
<text  x="730.28" y="273.5" >L..</text>
</g>
<g >
<title>pyop2.global_kernel.GlobalKernel.compile (37,746 us, 0.15%)</title><rect x="1188.3" y="183" width="1.7" height="15.0" fill="rgb(0,0,0)" rx="2" ry="2" />
<text  x="1191.28" y="193.5" ></text>
</g>
<g >
<title>CreateFunctionSpace (17,053 us, 0.07%)</title><rect x="1185.5" y="135" width="0.8" height="15.0" fill="rgb(0,0,0)" rx="2" ry="2" />
<text  x="1188.53" y="145.5" ></text>
</g>
<g >
<title>Log_Event_subkernel149_interior_facet_horiz_top_to__exterior_facet_top_integral_otherwise (45,738 us, 0.18%)</title><rect x="839.5" y="247" width="2.1" height="15.0" fill="rgb(0,0,0)" rx="2" ry="2" />
<text  x="842.51" y="257.5" ></text>
</g>
<g >
<title>Log_Event_subkernel143_cell_to__cell_integral_otherwise (75,142 us, 0.29%)</title><rect x="691.6" y="263" width="3.4" height="15.0" fill="rgb(0,0,0)" rx="2" ry="2" />
<text  x="694.61" y="273.5" ></text>
</g>
<g >
<title>Log_Event_tensorshell_knl_2 (43,519 us, 0.17%)</title><rect x="221.0" y="231" width="2.0" height="15.0" fill="rgb(0,0,0)" rx="2" ry="2" />
<text  x="224.01" y="241.5" ></text>
</g>
<g >
<title>Log_Event_subkernel145_cell_to__cell_integral_otherwise (57,611 us, 0.22%)</title><rect x="695.0" y="263" width="2.7" height="15.0" fill="rgb(0,0,0)" rx="2" ry="2" />
<text  x="698.05" y="273.5" ></text>
</g>
<g >
<title>Log_Event_tensorshell_knl_130 (7,255,108 us, 28.09%)</title><rect x="357.8" y="263" width="331.4" height="15.0" fill="rgb(0,0,0)" rx="2" ry="2" />
<text  x="360.80" y="273.5" >Log_Event_tensorshell_knl_130</text>
</g>
<g >
<title>all (25,831,330 us, 100%)</title><rect x="10.0" y="39" width="1180.0" height="15.0" fill="rgb(0,0,0)" rx="2" ry="2" />
<text  x="13.00" y="49.5" ></text>
</g>
<g >
<title>Log_Event_mtf_solve_51 (16,575 us, 0.06%)</title><rect x="227.4" y="247" width="0.8" height="15.0" fill="rgb(0,0,0)" rx="2" ry="2" />
<text  x="230.44" y="257.5" ></text>
</g>
<g >
<title>Log_Event_subkernel71_interior_facet_horiz_bottom_to__exterior_facet_bottom_integral_otherwise (22,677 us, 0.09%)</title><rect x="1118.6" y="263" width="1.1" height="15.0" fill="rgb(0,0,0)" rx="2" ry="2" />
<text  x="1121.62" y="273.5" ></text>
</g>
<g >
<title>Log_Event_subkernel136_cell_to__cell_integral_otherwise (1,704,004 us, 6.60%)</title><rect x="447.9" y="295" width="77.8" height="15.0" fill="rgb(0,0,0)" rx="2" ry="2" />
<text  x="450.88" y="305.5" >Log_Even..</text>
</g>
<g >
<title>Log_Event_subkernel133_cell_to__cell_integral_otherwise (859,611 us, 3.33%)</title><rect x="378.0" y="295" width="39.2" height="15.0" fill="rgb(0,0,0)" rx="2" ry="2" />
<text  x="380.96" y="305.5" >Log..</text>
</g>
<g >
<title>Log_Event_tensorshell_knl_82 (509,205 us, 1.97%)</title><rect x="704.0" y="263" width="23.3" height="15.0" fill="rgb(0,0,0)" rx="2" ry="2" />
<text  x="707.02" y="273.5" >L..</text>
</g>
<g >
<title>HybridBreak (36,892 us, 0.14%)</title><rect x="150.3" y="151" width="1.7" height="15.0" fill="rgb(0,0,0)" rx="2" ry="2" />
<text  x="153.33" y="161.5" ></text>
</g>
<g >
<title>Log_Event_mtf_solve_122 (321,680 us, 1.25%)</title><rect x="330.5" y="279" width="14.7" height="15.0" fill="rgb(0,0,0)" rx="2" ry="2" />
<text  x="333.48" y="289.5" ></text>
</g>
<g >
<title>Log_Event_subkernel108_cell_to__cell_integral_otherwise (74,833 us, 0.29%)</title><rect x="310.1" y="263" width="3.4" height="15.0" fill="rgb(0,0,0)" rx="2" ry="2" />
<text  x="313.06" y="273.5" ></text>
</g>
<g >
<title>Log_Event_mtf_solve_104 (232,533 us, 0.90%)</title><rect x="302.9" y="247" width="10.6" height="15.0" fill="rgb(0,0,0)" rx="2" ry="2" />
<text  x="305.86" y="257.5" ></text>
</g>
<g >
<title>Log_Event_tensorshell_knl_49 (37,155 us, 0.14%)</title><rect x="226.5" y="231" width="1.7" height="15.0" fill="rgb(0,0,0)" rx="2" ry="2" />
<text  x="229.50" y="241.5" ></text>
</g>
<g >
<title>Log_Event_subkernel135_cell_to__cell_integral_otherwise (670,828 us, 2.60%)</title><rect x="417.2" y="295" width="30.7" height="15.0" fill="rgb(0,0,0)" rx="2" ry="2" />
<text  x="420.23" y="305.5" >L..</text>
</g>
<g >
<title>Log_Event_subkernel76_cell_to__cell_integral_otherwise (39,448 us, 0.15%)</title><rect x="1134.5" y="263" width="1.8" height="15.0" fill="rgb(0,0,0)" rx="2" ry="2" />
<text  x="1137.52" y="273.5" ></text>
</g>
<g >
<title>Log_Event_subkernel148_interior_facet_horiz_top_to__exterior_facet_top_integral_otherwise (46,844 us, 0.18%)</title><rect x="818.7" y="247" width="2.1" height="15.0" fill="rgb(0,0,0)" rx="2" ry="2" />
<text  x="821.67" y="257.5" ></text>
</g>
<g >
<title>Log_Event_subkernel148_interior_facet_horiz_bottom_to__exterior_facet_bottom_integral_otherwise (45,786 us, 0.18%)</title><rect x="816.6" y="247" width="2.1" height="15.0" fill="rgb(0,0,0)" rx="2" ry="2" />
<text  x="819.58" y="257.5" ></text>
</g>
<g >
<title>CreateFunctionSpace (25,321 us, 0.10%)</title><rect x="73.9" y="71" width="1.1" height="15.0" fill="rgb(0,0,0)" rx="2" ry="2" />
<text  x="76.85" y="81.5" ></text>
</g>
<g >
<title>ParLoopExecute (37,635 us, 0.15%)</title><rect x="72.1" y="103" width="1.8" height="15.0" fill="rgb(0,0,0)" rx="2" ry="2" />
<text  x="75.13" y="113.5" ></text>
</g>
<g >
<title>firedrake (25,831,330 us, 100.00%)</title><rect x="10.0" y="55" width="1180.0" height="15.0" fill="rgb(0,0,0)" rx="2" ry="2" />
<text  x="13.00" y="65.5" >firedrake</text>
</g>
<g >
<title>Log_Event_subkernel113_cell_to__cell_integral_otherwise (74,728 us, 0.29%)</title><rect x="315.8" y="263" width="3.4" height="15.0" fill="rgb(0,0,0)" rx="2" ry="2" />
<text  x="318.83" y="273.5" ></text>
</g>
<g >
<title>firedrake.formmanipulation.split_form (14,859 us, 0.06%)</title><rect x="1186.3" y="135" width="0.7" height="15.0" fill="rgb(0,0,0)" rx="2" ry="2" />
<text  x="1189.31" y="145.5" ></text>
</g>
<g >
<title>pyop2.global_kernel.GlobalKernel.compile (39,804 us, 0.15%)</title><rect x="1177.5" y="199" width="1.8" height="15.0" fill="rgb(0,0,0)" rx="2" ry="2" />
<text  x="1180.46" y="209.5" ></text>
</g>
<g >
<title>Log_Event_mtf_solve_142 (324,083 us, 1.25%)</title><rect x="689.2" y="247" width="14.8" height="15.0" fill="rgb(0,0,0)" rx="2" ry="2" />
<text  x="692.22" y="257.5" ></text>
</g>
<g >
<title>Parloop_Cells_wrap_form0_cell_integral_otherwise (49,516 us, 0.19%)</title><rect x="144.8" y="167" width="2.3" height="15.0" fill="rgb(0,0,0)" rx="2" ry="2" />
<text  x="147.85" y="177.5" ></text>
</g>
<g >
<title>Log_Event_mtf_solve_31 (16,613 us, 0.06%)</title><rect x="224.0" y="215" width="0.8" height="15.0" fill="rgb(0,0,0)" rx="2" ry="2" />
<text  x="227.05" y="225.5" ></text>
</g>
<g >
<title>Log_Event_mtf_solve_41 (16,550 us, 0.06%)</title><rect x="225.7" y="247" width="0.8" height="15.0" fill="rgb(0,0,0)" rx="2" ry="2" />
<text  x="228.74" y="257.5" ></text>
</g>
<g >
<title>Log_Event_subkernel110_interior_facet_horiz_bottom_to__exterior_facet_bottom_integral_otherwise (45,996 us, 0.18%)</title><rect x="757.3" y="247" width="2.1" height="15.0" fill="rgb(0,0,0)" rx="2" ry="2" />
<text  x="760.27" y="257.5" ></text>
</g>
<g >
<title>Log_Event_mtf_solve_119 (7,902,354 us, 30.59%)</title><rect x="328.2" y="247" width="361.0" height="15.0" fill="rgb(0,0,0)" rx="2" ry="2" />
<text  x="331.23" y="257.5" >Log_Event_mtf_solve_119</text>
</g>
<g >
<title>Log_Event_subkernel95_cell_to__cell_integral_otherwise (75,409 us, 0.29%)</title><rect x="728.3" y="295" width="3.5" height="15.0" fill="rgb(0,0,0)" rx="2" ry="2" />
<text  x="731.34" y="305.5" ></text>
</g>
<g >
<title>Log_Event_subkernel128_cell_to__cell_integral_otherwise (128,814 us, 0.50%)</title><rect x="351.9" y="279" width="5.9" height="15.0" fill="rgb(0,0,0)" rx="2" ry="2" />
<text  x="354.91" y="289.5" ></text>
</g>
<g >
<title>inv_getri (356,616 us, 1.38%)</title><rect x="1102.3" y="279" width="16.3" height="15.0" fill="rgb(0,0,0)" rx="2" ry="2" />
<text  x="1105.33" y="289.5" ></text>
</g>
<g >
<title>Log_Event_subkernel126_cell_to__cell_integral_otherwise (140,729 us, 0.54%)</title><rect x="338.7" y="295" width="6.5" height="15.0" fill="rgb(0,0,0)" rx="2" ry="2" />
<text  x="341.74" y="305.5" ></text>
</g>
<g >
<title>Log_Event_subkernel111_interior_facet_horiz_top_to__exterior_facet_top_integral_otherwise (46,197 us, 0.18%)</title><rect x="780.3" y="247" width="2.1" height="15.0" fill="rgb(0,0,0)" rx="2" ry="2" />
<text  x="783.31" y="257.5" ></text>
</g>
<g >
<title>Log_Event_subkernel110_interior_facet_vert_to__exterior_facet_vert_integral_otherwise (363,972 us, 1.41%)</title><rect x="761.5" y="247" width="16.6" height="15.0" fill="rgb(0,0,0)" rx="2" ry="2" />
<text  x="764.52" y="257.5" ></text>
</g>
<g >
<title>firedrake.assemble.allocate_matrix (561,356 us, 2.17%)</title><rect x="1147.6" y="231" width="25.7" height="15.0" fill="rgb(0,0,0)" rx="2" ry="2" />
<text  x="1150.62" y="241.5" >f..</text>
</g>
<g >
<title>Log_Event_inits_wrap_slate_loopy_knl_70 (15,375 us, 0.06%)</title><rect x="926.0" y="263" width="0.7" height="15.0" fill="rgb(0,0,0)" rx="2" ry="2" />
<text  x="928.96" y="273.5" ></text>
</g>
<g >
<title>firedrake.formmanipulation.ExtractSubBlock.split (14,859 us, 0.06%)</title><rect x="1186.3" y="151" width="0.7" height="15.0" fill="rgb(0,0,0)" rx="2" ry="2" />
<text  x="1189.31" y="161.5" ></text>
</g>
<g >
<title>ParLoopExecute (78,633 us, 0.30%)</title><rect x="1175.7" y="167" width="3.6" height="15.0" fill="rgb(0,0,0)" rx="2" ry="2" />
<text  x="1178.68" y="177.5" ></text>
</g>
<g >
<title>Log_Event_subkernel148_interior_facet_vert_to__exterior_facet_vert_integral_otherwise (363,393 us, 1.41%)</title><rect x="820.8" y="247" width="16.6" height="15.0" fill="rgb(0,0,0)" rx="2" ry="2" />
<text  x="823.81" y="257.5" ></text>
</g>
<g >
<title>Parloop_Cells_wrap_slate_loopy_knl_79 (13,631,072 us, 52.77%)</title><rect x="235.5" y="215" width="622.7" height="15.0" fill="rgb(0,0,0)" rx="2" ry="2" />
<text  x="238.50" y="225.5" >Parloop_Cells_wrap_slate_loopy_knl_79</text>
</g>
<g >
<title>Parloop_Cells_wrap_pyop2_kernel_uniform_extrusion (37,635 us, 0.15%)</title><rect x="72.1" y="119" width="1.8" height="15.0" fill="rgb(0,0,0)" rx="2" ry="2" />
<text  x="75.13" y="129.5" ></text>
</g>
<g >
<title>firedrake.extrusion_utils.make_extruded_coords (67,766 us, 0.26%)</title><rect x="70.8" y="87" width="3.1" height="15.0" fill="rgb(0,0,0)" rx="2" ry="2" />
<text  x="73.76" y="97.5" ></text>
</g>
<g >
<title>firedrake.functionspacedata.FunctionSpaceData.__init__ (25,321 us, 0.10%)</title><rect x="73.9" y="119" width="1.1" height="15.0" fill="rgb(0,0,0)" rx="2" ry="2" />
<text  x="76.85" y="129.5" ></text>
</g>
<g >
<title>Log_Event_subkernel77_interior_facet_vert_to__exterior_facet_vert_integral_otherwise (173,680 us, 0.67%)</title><rect x="1137.8" y="263" width="7.9" height="15.0" fill="rgb(0,0,0)" rx="2" ry="2" />
<text  x="1140.80" y="273.5" ></text>
</g>
<g >
<title>Log_Event_subkernel85_cell_to__cell_integral_otherwise (74,850 us, 0.29%)</title><rect x="705.1" y="295" width="3.4" height="15.0" fill="rgb(0,0,0)" rx="2" ry="2" />
<text  x="708.12" y="305.5" ></text>
</g>
<g >
<title>Log_Event_mtf_solve_132 (3,828,058 us, 14.82%)</title><rect x="363.1" y="279" width="174.9" height="15.0" fill="rgb(0,0,0)" rx="2" ry="2" />
<text  x="366.12" y="289.5" >Log_Event_mtf_solve_..</text>
</g>
<g >
<title>Log_Event_subkernel30_interior_facet_vert_to__exterior_facet_vert_integral_otherwise (31,251 us, 0.12%)</title><rect x="229.0" y="215" width="1.4" height="15.0" fill="rgb(0,0,0)" rx="2" ry="2" />
<text  x="231.96" y="225.5" ></text>
</g>
<g >
<title>firedrake.matrix_free.operators.ImplicitMatrixContext.mult (13,654,306 us, 52.86%)</title><rect x="234.4" y="183" width="623.8" height="15.0" fill="rgb(0,0,0)" rx="2" ry="2" />
<text  x="237.44" y="193.5" >firedrake.matrix_free.operators.ImplicitMatrixContext.mult</text>
</g>
<g >
<title>pyop2.global_kernel.GlobalKernel.compile (37,479 us, 0.15%)</title><rect x="232.7" y="199" width="1.7" height="15.0" fill="rgb(0,0,0)" rx="2" ry="2" />
<text  x="235.73" y="209.5" ></text>
</g>
<g >
<title>SCSolve (20,795,098 us, 80.50%)</title><rect x="234.4" y="135" width="950.0" height="15.0" fill="rgb(0,0,0)" rx="2" ry="2" />
<text  x="237.44" y="145.5" >SCSolve</text>
</g>
<g >
<title>Log_Event_subkernel18_cell_to__cell_integral_otherwise (121,069 us, 0.47%)</title><rect x="204.7" y="263" width="5.5" height="15.0" fill="rgb(0,0,0)" rx="2" ry="2" />
<text  x="207.67" y="273.5" ></text>
</g>
<g >
<title>Log_Event_subkernel83_cell_to__cell_integral_otherwise (148,597 us, 0.58%)</title><rect x="714.6" y="279" width="6.8" height="15.0" fill="rgb(0,0,0)" rx="2" ry="2" />
<text  x="717.62" y="289.5" ></text>
</g>
<g >
<title>ParLoopExecute (37,746 us, 0.15%)</title><rect x="1188.3" y="151" width="1.7" height="15.0" fill="rgb(0,0,0)" rx="2" ry="2" />
<text  x="1191.28" y="161.5" ></text>
</g>
<g >
<title>Log_Event_subkernel107_cell_to__cell_integral_otherwise (57,570 us, 0.22%)</title><rect x="307.4" y="263" width="2.7" height="15.0" fill="rgb(0,0,0)" rx="2" ry="2" />
<text  x="310.43" y="273.5" ></text>
</g>
<g >
<title>Log_Event_subkernel116_cell_to__cell_integral_otherwise (138,767 us, 0.54%)</title><rect x="321.9" y="263" width="6.3" height="15.0" fill="rgb(0,0,0)" rx="2" ry="2" />
<text  x="324.89" y="273.5" ></text>
</g>
<g >
<title>Log_Event_subkernel73_cell_to__cell_integral_otherwise (42,774 us, 0.17%)</title><rect x="1132.6" y="263" width="1.9" height="15.0" fill="rgb(0,0,0)" rx="2" ry="2" />
<text  x="1135.56" y="273.5" ></text>
</g>
<g >
<title>firedrake.matrix_free.operators.ImplicitMatrixContext.mult (979,924 us, 3.79%)</title><rect x="858.2" y="247" width="44.7" height="15.0" fill="rgb(0,0,0)" rx="2" ry="2" />
<text  x="861.18" y="257.5" >fir..</text>
</g>
<g >
<title>SCForwardElim (1,841,183 us, 7.13%)</title><rect x="150.3" y="135" width="84.1" height="15.0" fill="rgb(0,0,0)" rx="2" ry="2" />
<text  x="153.33" y="145.5" >SCForwar..</text>
</g>
<g >
<title>Log_Event_subkernel141_cell_to__cell_integral_otherwise (147,508 us, 0.57%)</title><rect x="809.8" y="247" width="6.8" height="15.0" fill="rgb(0,0,0)" rx="2" ry="2" />
<text  x="812.84" y="257.5" ></text>
</g>
<g >
<title>Log_Event_subkernel77_interior_facet_horiz_bottom_to__exterior_facet_bottom_integral_otherwise (15,602 us, 0.06%)</title><rect x="1136.3" y="263" width="0.7" height="15.0" fill="rgb(0,0,0)" rx="2" ry="2" />
<text  x="1139.32" y="273.5" ></text>
</g>
<g >
<title>Log_Event_subkernel138_cell_to__cell_integral_otherwise (1,538,381 us, 5.96%)</title><rect x="618.9" y="279" width="70.3" height="15.0" fill="rgb(0,0,0)" rx="2" ry="2" />
<text  x="621.94" y="289.5" >Log_Eve..</text>
</g>
<g >
<title>CreateExtMesh (67,766 us, 0.26%)</title><rect x="70.8" y="71" width="3.1" height="15.0" fill="rgb(0,0,0)" rx="2" ry="2" />
<text  x="73.76" y="81.5" ></text>
</g>
<g >
<title>Log_Event_subkernel77_interior_facet_horiz_top_to__exterior_facet_top_integral_otherwise (16,954 us, 0.07%)</title><rect x="1137.0" y="263" width="0.8" height="15.0" fill="rgb(0,0,0)" rx="2" ry="2" />
<text  x="1140.03" y="273.5" ></text>
</g>
<g >
<title>Log_Event_subkernel149_interior_facet_vert_to__exterior_facet_vert_integral_otherwise (363,093 us, 1.41%)</title><rect x="841.6" y="247" width="16.6" height="15.0" fill="rgb(0,0,0)" rx="2" ry="2" />
<text  x="844.60" y="257.5" ></text>
</g>
<g >
<title>KSPSolve (20,586,221 us, 79.69%)</title><rect x="234.4" y="151" width="940.4" height="15.0" fill="rgb(0,0,0)" rx="2" ry="2" />
<text  x="237.44" y="161.5" >KSPSolve</text>
</g>
<g >
<title>Log_Event_subkernel97_cell_to__cell_integral_otherwise (57,363 us, 0.22%)</title><rect x="731.8" y="295" width="2.6" height="15.0" fill="rgb(0,0,0)" rx="2" ry="2" />
<text  x="734.78" y="305.5" ></text>
</g>
<g >
<title>inv_getrf (160,333 us, 0.62%)</title><rect x="1095.0" y="279" width="7.3" height="15.0" fill="rgb(0,0,0)" rx="2" ry="2" />
<text  x="1098.01" y="289.5" ></text>
</g>
<g >
<title>Log_Event_subkernel71_interior_facet_horiz_top_to__exterior_facet_top_integral_otherwise (23,518 us, 0.09%)</title><rect x="1119.7" y="263" width="1.0" height="15.0" fill="rgb(0,0,0)" rx="2" ry="2" />
<text  x="1122.66" y="273.5" ></text>
</g>
<g >
<title>Log_Event_mtf_solve_112 (322,983 us, 1.25%)</title><rect x="313.5" y="247" width="14.7" height="15.0" fill="rgb(0,0,0)" rx="2" ry="2" />
<text  x="316.48" y="257.5" ></text>
</g>
<g >
<title>firedrake.variational_solver.NonlinearVariationalSolver.solve (22,879,400 us, 88.57%)</title><rect x="144.8" y="71" width="1045.2" height="15.0" fill="rgb(0,0,0)" rx="2" ry="2" />
<text  x="147.85" y="81.5" >firedrake.variational_solver.NonlinearVariationalSolver.solve</text>
</g>
<g >
<title>MatZeroInitial (130,515 us, 0.51%)</title><rect x="1167.3" y="247" width="6.0" height="15.0" fill="rgb(0,0,0)" rx="2" ry="2" />
<text  x="1170.30" y="257.5" ></text>
</g>
<g >
<title>ParLoopExecute (5,008,286 us, 19.39%)</title><rect x="918.8" y="231" width="228.8" height="15.0" fill="rgb(0,0,0)" rx="2" ry="2" />
<text  x="921.83" y="241.5" >ParLoopExecute</text>
</g>
<g >
<title>firedrake.variational_solver.LinearVariationalProblem.__init__ (19,169 us, 0.07%)</title><rect x="144.0" y="71" width="0.8" height="15.0" fill="rgb(0,0,0)" rx="2" ry="2" />
<text  x="146.97" y="81.5" ></text>
</g>
<g >
<title>pyop2.global_kernel.GlobalKernel.compile (41,088 us, 0.16%)</title><rect x="1145.7" y="263" width="1.9" height="15.0" fill="rgb(0,0,0)" rx="2" ry="2" />
<text  x="1148.74" y="273.5" ></text>
</g>
<g >
<title>PCSetUp (6,931,915 us, 26.84%)</title><rect x="858.2" y="183" width="316.6" height="15.0" fill="rgb(0,0,0)" rx="2" ry="2" />
<text  x="861.18" y="193.5" >PCSetUp</text>
</g>
<g >
<title>Log_Event_subkernel103_cell_to__cell_integral_otherwise (147,860 us, 0.57%)</title><rect x="750.5" y="247" width="6.8" height="15.0" fill="rgb(0,0,0)" rx="2" ry="2" />
<text  x="753.51" y="257.5" ></text>
</g>
<g >
<title>Log_Event_subkernel118_cell_to__cell_integral_otherwise (128,681 us, 0.50%)</title><rect x="804.0" y="247" width="5.8" height="15.0" fill="rgb(0,0,0)" rx="2" ry="2" />
<text  x="806.96" y="257.5" ></text>
</g>
<g >
<title>pyop2.global_kernel.GlobalKernel.compile (37,635 us, 0.15%)</title><rect x="72.1" y="135" width="1.8" height="15.0" fill="rgb(0,0,0)" rx="2" ry="2" />
<text  x="75.13" y="145.5" ></text>
</g>
<g >
<title>CreateSparsity (50,116 us, 0.19%)</title><rect x="1181.2" y="183" width="2.3" height="15.0" fill="rgb(0,0,0)" rx="2" ry="2" />
<text  x="1184.25" y="193.5" ></text>
</g>
<g >
<title>pyop2.global_kernel.GlobalKernel.compile (34,849 us, 0.13%)</title><rect x="145.5" y="183" width="1.6" height="15.0" fill="rgb(0,0,0)" rx="2" ry="2" />
<text  x="148.52" y="193.5" ></text>
</g>
<g >
<title>Parloop_Cells_wrap_expression_kernel (38,829 us, 0.15%)</title><rect x="1175.7" y="183" width="1.8" height="15.0" fill="rgb(0,0,0)" rx="2" ry="2" />
<text  x="1178.68" y="193.5" ></text>
</g>
</g>
</svg>
