<?xml version="1.0" standalone="no"?>
<!DOCTYPE svg PUBLIC "-//W3C//DTD SVG 1.1//EN" "http://www.w3.org/Graphics/SVG/1.1/DTD/svg11.dtd">
<svg version="1.1" width="1200" height="347" onload="init(evt)" viewBox="0 0 1200 347" xmlns="http://www.w3.org/2000/svg" xmlns:xlink="http://www.w3.org/1999/xlink">
<!-- Flame graph stack visualization. See https://github.com/brendangregg/FlameGraph for latest version, and http://www.brendangregg.com/flamegraphs.html for examples. -->
<!-- NOTES:  -->
<defs>
	<linearGradient id="background" y1="0" y2="1" x1="0" x2="0" >
		<stop stop-color="#eeeeee" offset="5%" />
		<stop stop-color="#eeeeb0" offset="95%" />
	</linearGradient>
</defs>
<style type="text/css">
	text { font-family:Verdana; font-size:13px; fill:rgb(0,0,0); }
	#search, #ignorecase { opacity:0.1; cursor:pointer; }
	#search:hover, #search.show, #ignorecase:hover, #ignorecase.show { opacity:1; }
	#subtitle { text-anchor:middle; font-color:rgb(160,160,160); }
	#title { text-anchor:middle; font-size:18px}
	#unzoom { cursor:pointer; }
	#frames > *:hover { stroke:black; stroke-width:0.5; cursor:pointer; }
	.hide { display:none; }
	.parent { opacity:0.5; }
</style>
<script type="text/ecmascript">
<![CDATA[
	"use strict";
	var details, searchbtn, unzoombtn, matchedtxt, svg, searching, currentSearchTerm, ignorecase, ignorecaseBtn;
	function init(evt) {
		details = document.getElementById("details").firstChild;
		searchbtn = document.getElementById("search");
		ignorecaseBtn = document.getElementById("ignorecase");
		unzoombtn = document.getElementById("unzoom");
		matchedtxt = document.getElementById("matched");
		svg = document.getElementsByTagName("svg")[0];
		searching = 0;
		currentSearchTerm = null;

		// use GET parameters to restore a flamegraphs state.
		var params = get_params();
		if (params.x && params.y)
			zoom(find_group(document.querySelector('[x="' + params.x + '"][y="' + params.y + '"]')));
                if (params.s) search(params.s);
	}

	// event listeners
	window.addEventListener("click", function(e) {
		var target = find_group(e.target);
		if (target) {
			if (target.nodeName == "a") {
				if (e.ctrlKey === false) return;
				e.preventDefault();
			}
			if (target.classList.contains("parent")) unzoom();
			zoom(target);
			if (!document.querySelector('.parent')) {
				clearzoom();
				return;
			}

			// set parameters for zoom state
			var el = target.querySelector("rect");
			if (el && el.attributes && el.attributes.y && el.attributes._orig_x) {
				var params = get_params()
				params.x = el.attributes._orig_x.value;
				params.y = el.attributes.y.value;
				history.replaceState(null, null, parse_params(params));
			}
		}
		else if (e.target.id == "unzoom") clearzoom();
		else if (e.target.id == "search") search_prompt();
		else if (e.target.id == "ignorecase") toggle_ignorecase();
	}, false)

	// mouse-over for info
	// show
	window.addEventListener("mouseover", function(e) {
		var target = find_group(e.target);
		if (target) details.nodeValue = "Function: " + g_to_text(target);
	}, false)

	// clear
	window.addEventListener("mouseout", function(e) {
		var target = find_group(e.target);
		if (target) details.nodeValue = ' ';
	}, false)

	// ctrl-F for search
	// ctrl-I to toggle case-sensitive search
	window.addEventListener("keydown",function (e) {
		if (e.keyCode === 114 || (e.ctrlKey && e.keyCode === 70)) {
			e.preventDefault();
			search_prompt();
		}
		else if (e.ctrlKey && e.keyCode === 73) {
			e.preventDefault();
			toggle_ignorecase();
		}
	}, false)

	// functions
	function get_params() {
		var params = {};
		var paramsarr = window.location.search.substr(1).split('&');
		for (var i = 0; i < paramsarr.length; ++i) {
			var tmp = paramsarr[i].split("=");
			if (!tmp[0] || !tmp[1]) continue;
			params[tmp[0]]  = decodeURIComponent(tmp[1]);
		}
		return params;
	}
	function parse_params(params) {
		var uri = "?";
		for (var key in params) {
			uri += key + '=' + encodeURIComponent(params[key]) + '&';
		}
		if (uri.slice(-1) == "&")
			uri = uri.substring(0, uri.length - 1);
		if (uri == '?')
			uri = window.location.href.split('?')[0];
		return uri;
	}
	function find_child(node, selector) {
		var children = node.querySelectorAll(selector);
		if (children.length) return children[0];
	}
	function find_group(node) {
		var parent = node.parentElement;
		if (!parent) return;
		if (parent.id == "frames") return node;
		return find_group(parent);
	}
	function orig_save(e, attr, val) {
		if (e.attributes["_orig_" + attr] != undefined) return;
		if (e.attributes[attr] == undefined) return;
		if (val == undefined) val = e.attributes[attr].value;
		e.setAttribute("_orig_" + attr, val);
	}
	function orig_load(e, attr) {
		if (e.attributes["_orig_"+attr] == undefined) return;
		e.attributes[attr].value = e.attributes["_orig_" + attr].value;
		e.removeAttribute("_orig_"+attr);
	}
	function g_to_text(e) {
		var text = find_child(e, "title").firstChild.nodeValue;
		return (text)
	}
	function g_to_func(e) {
		var func = g_to_text(e);
		// if there's any manipulation we want to do to the function
		// name before it's searched, do it here before returning.
		return (func);
	}
	function update_text(e) {
		var r = find_child(e, "rect");
		var t = find_child(e, "text");
		var w = parseFloat(r.attributes.width.value) -3;
		var txt = find_child(e, "title").textContent.replace(/\([^(]*\)$/,"");
		t.attributes.x.value = parseFloat(r.attributes.x.value) + 3;

		// Smaller than this size won't fit anything
		if (w < 2 * 13 * 0.59) {
			t.textContent = "";
			return;
		}

		t.textContent = txt;
		// Fit in full text width
		if (/^ *$/.test(txt) || t.getSubStringLength(0, txt.length) < w)
			return;

		for (var x = txt.length - 2; x > 0; x--) {
			if (t.getSubStringLength(0, x + 2) <= w) {
				t.textContent = txt.substring(0, x) + "..";
				return;
			}
		}
		t.textContent = "";
	}

	// zoom
	function zoom_reset(e) {
		if (e.attributes != undefined) {
			orig_load(e, "x");
			orig_load(e, "width");
		}
		if (e.childNodes == undefined) return;
		for (var i = 0, c = e.childNodes; i < c.length; i++) {
			zoom_reset(c[i]);
		}
	}
	function zoom_child(e, x, ratio) {
		if (e.attributes != undefined) {
			if (e.attributes.x != undefined) {
				orig_save(e, "x");
				e.attributes.x.value = (parseFloat(e.attributes.x.value) - x - 10) * ratio + 10;
				if (e.tagName == "text")
					e.attributes.x.value = find_child(e.parentNode, "rect[x]").attributes.x.value + 3;
			}
			if (e.attributes.width != undefined) {
				orig_save(e, "width");
				e.attributes.width.value = parseFloat(e.attributes.width.value) * ratio;
			}
		}

		if (e.childNodes == undefined) return;
		for (var i = 0, c = e.childNodes; i < c.length; i++) {
			zoom_child(c[i], x - 10, ratio);
		}
	}
	function zoom_parent(e) {
		if (e.attributes) {
			if (e.attributes.x != undefined) {
				orig_save(e, "x");
				e.attributes.x.value = 10;
			}
			if (e.attributes.width != undefined) {
				orig_save(e, "width");
				e.attributes.width.value = parseInt(svg.width.baseVal.value) - (10 * 2);
			}
		}
		if (e.childNodes == undefined) return;
		for (var i = 0, c = e.childNodes; i < c.length; i++) {
			zoom_parent(c[i]);
		}
	}
	function zoom(node) {
		var attr = find_child(node, "rect").attributes;
		var width = parseFloat(attr.width.value);
		var xmin = parseFloat(attr.x.value);
		var xmax = parseFloat(xmin + width);
		var ymin = parseFloat(attr.y.value);
		var ratio = (svg.width.baseVal.value - 2 * 10) / width;

		// XXX: Workaround for JavaScript float issues (fix me)
		var fudge = 0.0001;

		unzoombtn.classList.remove("hide");

		var el = document.getElementById("frames").children;
		for (var i = 0; i < el.length; i++) {
			var e = el[i];
			var a = find_child(e, "rect").attributes;
			var ex = parseFloat(a.x.value);
			var ew = parseFloat(a.width.value);
			var upstack;
			// Is it an ancestor
			if (1 == 0) {
				upstack = parseFloat(a.y.value) > ymin;
			} else {
				upstack = parseFloat(a.y.value) < ymin;
			}
			if (upstack) {
				// Direct ancestor
				if (ex <= xmin && (ex+ew+fudge) >= xmax) {
					e.classList.add("parent");
					zoom_parent(e);
					update_text(e);
				}
				// not in current path
				else
					e.classList.add("hide");
			}
			// Children maybe
			else {
				// no common path
				if (ex < xmin || ex + fudge >= xmax) {
					e.classList.add("hide");
				}
				else {
					zoom_child(e, xmin, ratio);
					update_text(e);
				}
			}
		}
		search();
	}
	function unzoom() {
		unzoombtn.classList.add("hide");
		var el = document.getElementById("frames").children;
		for(var i = 0; i < el.length; i++) {
			el[i].classList.remove("parent");
			el[i].classList.remove("hide");
			zoom_reset(el[i]);
			update_text(el[i]);
		}
		search();
	}
	function clearzoom() {
		unzoom();

		// remove zoom state
		var params = get_params();
		if (params.x) delete params.x;
		if (params.y) delete params.y;
		history.replaceState(null, null, parse_params(params));
	}

	// search
	function toggle_ignorecase() {
		ignorecase = !ignorecase;
		if (ignorecase) {
			ignorecaseBtn.classList.add("show");
		} else {
			ignorecaseBtn.classList.remove("show");
		}
		reset_search();
		search();
	}
	function reset_search() {
		var el = document.querySelectorAll("#frames rect");
		for (var i = 0; i < el.length; i++) {
			orig_load(el[i], "fill")
		}
		var params = get_params();
		delete params.s;
		history.replaceState(null, null, parse_params(params));
	}
	function search_prompt() {
		if (!searching) {
			var term = prompt("Enter a search term (regexp " +
			    "allowed, eg: ^ext4_)"
			    + (ignorecase ? ", ignoring case" : "")
			    + "\nPress Ctrl-i to toggle case sensitivity", "");
			if (term != null) search(term);
		} else {
			reset_search();
			searching = 0;
			currentSearchTerm = null;
			searchbtn.classList.remove("show");
			searchbtn.firstChild.nodeValue = "Search"
			matchedtxt.classList.add("hide");
			matchedtxt.firstChild.nodeValue = ""
		}
	}
	function search(term) {
		if (term) currentSearchTerm = term;

		var re = new RegExp(currentSearchTerm, ignorecase ? 'i' : '');
		var el = document.getElementById("frames").children;
		var matches = new Object();
		var maxwidth = 0;
		for (var i = 0; i < el.length; i++) {
			var e = el[i];
			var func = g_to_func(e);
			var rect = find_child(e, "rect");
			if (func == null || rect == null)
				continue;

			// Save max width. Only works as we have a root frame
			var w = parseFloat(rect.attributes.width.value);
			if (w > maxwidth)
				maxwidth = w;

			if (func.match(re)) {
				// highlight
				var x = parseFloat(rect.attributes.x.value);
				orig_save(rect, "fill");
				rect.attributes.fill.value = "rgb(230,0,230)";

				// remember matches
				if (matches[x] == undefined) {
					matches[x] = w;
				} else {
					if (w > matches[x]) {
						// overwrite with parent
						matches[x] = w;
					}
				}
				searching = 1;
			}
		}
		if (!searching)
			return;
		var params = get_params();
		params.s = currentSearchTerm;
		history.replaceState(null, null, parse_params(params));

		searchbtn.classList.add("show");
		searchbtn.firstChild.nodeValue = "Reset Search";

		// calculate percent matched, excluding vertical overlap
		var count = 0;
		var lastx = -1;
		var lastw = 0;
		var keys = Array();
		for (k in matches) {
			if (matches.hasOwnProperty(k))
				keys.push(k);
		}
		// sort the matched frames by their x location
		// ascending, then width descending
		keys.sort(function(a, b){
			return a - b;
		});
		// Step through frames saving only the biggest bottom-up frames
		// thanks to the sort order. This relies on the tree property
		// where children are always smaller than their parents.
		var fudge = 0.0001;	// JavaScript floating point
		for (var k in keys) {
			var x = parseFloat(keys[k]);
			var w = matches[keys[k]];
			if (x >= lastx + lastw - fudge) {
				count += w;
				lastx = x;
				lastw = w;
			}
		}
		// display matched percent
		matchedtxt.classList.remove("hide");
		var pct = 100 * count / maxwidth;
		if (pct != 100) pct = pct.toFixed(1)
		matchedtxt.firstChild.nodeValue = "Matched: " + pct + "%";
	}
]]>
</script>
<rect x="0.0" y="0" width="1200.0" height="347.0" fill="url(#background)"  />
<text id="title" x="600.00" y="26" >Firedrake example</text>
<text id="details" x="10.00" y="329" > </text>
<text id="unzoom" x="10.00" y="26" class="hide">Reset Zoom</text>
<text id="search" x="1090.00" y="26" >Search</text>
<text id="ignorecase" x="1174.00" y="26" >ic</text>
<text id="matched" x="1090.00" y="329" > </text>
<g id="frames">
<g >
<title>firedrake.functionspaceimpl.FunctionSpace.__init__ (23,391 us, 0.09%)</title><rect x="73.8" y="87" width="1.0" height="15.0" fill="rgb(0,0,0)" rx="2" ry="2" />
<text  x="76.75" y="97.5" ></text>
</g>
<g >
<title>Parloop_Cells_wrap_wrap_slate_loopy_knl_70 (4,965,187 us, 19.26%)</title><rect x="921.0" y="247" width="227.3" height="15.0" fill="rgb(0,0,0)" rx="2" ry="2" />
<text  x="924.03" y="257.5" >Parloop_Cells_wrap_wrap_sla..</text>
</g>
<g >
<title>Log_Event_subkernel98_cell_to__cell_integral_otherwise (76,974 us, 0.30%)</title><rect x="735.6" y="295" width="3.5" height="15.0" fill="rgb(0,0,0)" rx="2" ry="2" />
<text  x="738.55" y="305.5" ></text>
</g>
<g >
<title>KSPSolve (985,191 us, 3.82%)</title><rect x="860.0" y="215" width="45.1" height="15.0" fill="rgb(0,0,0)" rx="2" ry="2" />
<text  x="862.99" y="225.5" >KSP..</text>
</g>
<g >
<title>pyop2.global_kernel.GlobalKernel.compile (33,988 us, 0.13%)</title><rect x="1176.6" y="199" width="1.5" height="15.0" fill="rgb(0,0,0)" rx="2" ry="2" />
<text  x="1179.58" y="209.5" ></text>
</g>
<g >
<title>Log_Event_slate_loopy_knl_79 (13,594,605 us, 52.74%)</title><rect x="237.7" y="231" width="622.3" height="15.0" fill="rgb(0,0,0)" rx="2" ry="2" />
<text  x="240.69" y="241.5" >Log_Event_slate_loopy_knl_79</text>
</g>
<g >
<title>KSPSolve (22,724,717 us, 88.16%)</title><rect x="144.8" y="103" width="1040.3" height="15.0" fill="rgb(0,0,0)" rx="2" ry="2" />
<text  x="147.82" y="113.5" >KSPSolve</text>
</g>
<g >
<title>Log_Event_subkernel76_cell_to__cell_integral_otherwise (40,247 us, 0.16%)</title><rect x="1135.3" y="263" width="1.8" height="15.0" fill="rgb(0,0,0)" rx="2" ry="2" />
<text  x="1138.27" y="273.5" ></text>
</g>
<g >
<title>Log_Event_tensorshell_knl_120 (600,470 us, 2.33%)</title><rect x="329.8" y="263" width="27.5" height="15.0" fill="rgb(0,0,0)" rx="2" ry="2" />
<text  x="332.79" y="273.5" >L..</text>
</g>
<g >
<title>KSPSolve (20,582,768 us, 79.85%)</title><rect x="233.6" y="151" width="942.1" height="15.0" fill="rgb(0,0,0)" rx="2" ry="2" />
<text  x="236.56" y="161.5" >KSPSolve</text>
</g>
<g >
<title>Log_Event_subkernel77_interior_facet_horiz_bottom_to__exterior_facet_bottom_integral_otherwise (16,979 us, 0.07%)</title><rect x="1137.1" y="263" width="0.8" height="15.0" fill="rgb(0,0,0)" rx="2" ry="2" />
<text  x="1140.11" y="273.5" ></text>
</g>
<g >
<title>pyop2.global_kernel.GlobalKernel.compile (39,677 us, 0.15%)</title><rect x="231.7" y="199" width="1.9" height="15.0" fill="rgb(0,0,0)" rx="2" ry="2" />
<text  x="234.74" y="209.5" ></text>
</g>
<g >
<title>Log_Event_mtf_solve_51 (16,623 us, 0.06%)</title><rect x="225.9" y="247" width="0.8" height="15.0" fill="rgb(0,0,0)" rx="2" ry="2" />
<text  x="228.94" y="257.5" ></text>
</g>
<g >
<title>Log_Event_subkernel149_interior_facet_horiz_bottom_to__exterior_facet_bottom_integral_otherwise (45,731 us, 0.18%)</title><rect x="839.1" y="247" width="2.1" height="15.0" fill="rgb(0,0,0)" rx="2" ry="2" />
<text  x="842.14" y="257.5" ></text>
</g>
<g >
<title>Log_Event_subkernel72_cell_to__cell_integral_otherwise (69,241 us, 0.27%)</title><rect x="1130.1" y="263" width="3.2" height="15.0" fill="rgb(0,0,0)" rx="2" ry="2" />
<text  x="1133.14" y="273.5" ></text>
</g>
<g >
<title>Log_Event_subkernel71_interior_facet_horiz_top_to__exterior_facet_top_integral_otherwise (22,416 us, 0.09%)</title><rect x="1120.4" y="263" width="1.0" height="15.0" fill="rgb(0,0,0)" rx="2" ry="2" />
<text  x="1123.41" y="273.5" ></text>
</g>
<g >
<title>Log_Event_subkernel133_cell_to__cell_integral_otherwise (868,867 us, 3.37%)</title><rect x="377.3" y="295" width="39.8" height="15.0" fill="rgb(0,0,0)" rx="2" ry="2" />
<text  x="380.29" y="305.5" >Log..</text>
</g>
<g >
<title>firedrake.variational_solver.LinearVariationalProblem.__init__ (18,889 us, 0.07%)</title><rect x="144.0" y="71" width="0.8" height="15.0" fill="rgb(0,0,0)" rx="2" ry="2" />
<text  x="146.96" y="81.5" ></text>
</g>
<g >
<title>firedrake.assemble.allocate_matrix (564,500 us, 2.19%)</title><rect x="1148.3" y="231" width="25.9" height="15.0" fill="rgb(0,0,0)" rx="2" ry="2" />
<text  x="1151.31" y="241.5" >f..</text>
</g>
<g >
<title>firedrake.tsfc_interface.compile_form (37,483 us, 0.15%)</title><rect x="147.8" y="151" width="1.8" height="15.0" fill="rgb(0,0,0)" rx="2" ry="2" />
<text  x="150.84" y="161.5" ></text>
</g>
<g >
<title>Log_Event_mtf_solve_112 (323,165 us, 1.25%)</title><rect x="312.8" y="247" width="14.8" height="15.0" fill="rgb(0,0,0)" rx="2" ry="2" />
<text  x="315.77" y="257.5" ></text>
</g>
<g >
<title>firedrake (25,778,050 us, 100.00%)</title><rect x="10.0" y="55" width="1180.0" height="15.0" fill="rgb(0,0,0)" rx="2" ry="2" />
<text  x="13.00" y="65.5" >firedrake</text>
</g>
<g >
<title>Log_Event_subkernel107_cell_to__cell_integral_otherwise (57,728 us, 0.22%)</title><rect x="306.7" y="263" width="2.6" height="15.0" fill="rgb(0,0,0)" rx="2" ry="2" />
<text  x="309.71" y="273.5" ></text>
</g>
<g >
<title>Log_Event_subkernel121_cell_to__cell_integral_otherwise (148,189 us, 0.57%)</title><rect x="344.6" y="279" width="6.8" height="15.0" fill="rgb(0,0,0)" rx="2" ry="2" />
<text  x="347.59" y="289.5" ></text>
</g>
<g >
<title>Log_Event_subkernel115_cell_to__cell_integral_otherwise (57,683 us, 0.22%)</title><rect x="318.6" y="263" width="2.6" height="15.0" fill="rgb(0,0,0)" rx="2" ry="2" />
<text  x="321.56" y="273.5" ></text>
</g>
<g >
<title>Log_Event_subkernel111_interior_facet_vert_to__exterior_facet_vert_integral_otherwise (473,746 us, 1.84%)</title><rect x="783.9" y="247" width="21.7" height="15.0" fill="rgb(0,0,0)" rx="2" ry="2" />
<text  x="786.87" y="257.5" ></text>
</g>
<g >
<title>firedrake.__init__ (1,510,341 us, 5.86%)</title><rect x="74.8" y="71" width="69.2" height="15.0" fill="rgb(0,0,0)" rx="2" ry="2" />
<text  x="77.82" y="81.5" >firedra..</text>
</g>
<g >
<title>Log_Event_subkernel108_cell_to__cell_integral_otherwise (74,687 us, 0.29%)</title><rect x="309.3" y="263" width="3.5" height="15.0" fill="rgb(0,0,0)" rx="2" ry="2" />
<text  x="312.35" y="273.5" ></text>
</g>
<g >
<title>Log_Event_subkernel15_cell_to__cell_integral_otherwise (61,121 us, 0.24%)</title><rect x="199.1" y="263" width="2.8" height="15.0" fill="rgb(0,0,0)" rx="2" ry="2" />
<text  x="202.06" y="273.5" ></text>
</g>
<g >
<title>Log_Event_mtf_solve_94 (234,475 us, 0.91%)</title><rect x="728.3" y="279" width="10.8" height="15.0" fill="rgb(0,0,0)" rx="2" ry="2" />
<text  x="731.34" y="289.5" ></text>
</g>
<g >
<title>Log_Event_subkernel145_cell_to__cell_integral_otherwise (57,979 us, 0.22%)</title><rect x="695.9" y="263" width="2.6" height="15.0" fill="rgb(0,0,0)" rx="2" ry="2" />
<text  x="698.85" y="273.5" ></text>
</g>
<g >
<title>HybridInit (108,016 us, 0.42%)</title><rect x="1185.1" y="119" width="4.9" height="15.0" fill="rgb(0,0,0)" rx="2" ry="2" />
<text  x="1188.06" y="129.5" ></text>
</g>
<g >
<title>firedrake.parloops.par_loop (35,192 us, 0.14%)</title><rect x="149.6" y="167" width="1.6" height="15.0" fill="rgb(0,0,0)" rx="2" ry="2" />
<text  x="152.55" y="177.5" ></text>
</g>
<g >
<title>Log_Event_slate_loopy_knl_70 (4,164,472 us, 16.16%)</title><rect x="928.8" y="263" width="190.6" height="15.0" fill="rgb(0,0,0)" rx="2" ry="2" />
<text  x="931.80" y="273.5" >Log_Event_slate_loopy_..</text>
</g>
<g >
<title>inv_getrf (160,678 us, 0.62%)</title><rect x="1095.8" y="279" width="7.4" height="15.0" fill="rgb(0,0,0)" rx="2" ry="2" />
<text  x="1098.80" y="289.5" ></text>
</g>
<g >
<title>Log_Event_subkernel50_cell_to__cell_integral_otherwise (16,225 us, 0.06%)</title><rect x="226.7" y="247" width="0.7" height="15.0" fill="rgb(0,0,0)" rx="2" ry="2" />
<text  x="229.70" y="257.5" ></text>
</g>
<g >
<title>Log_Event_subkernel113_cell_to__cell_integral_otherwise (75,015 us, 0.29%)</title><rect x="315.1" y="263" width="3.5" height="15.0" fill="rgb(0,0,0)" rx="2" ry="2" />
<text  x="318.13" y="273.5" ></text>
</g>
<g >
<title>Log_Event_subkernel17_cell_to__cell_integral_otherwise (47,749 us, 0.19%)</title><rect x="201.9" y="263" width="2.1" height="15.0" fill="rgb(0,0,0)" rx="2" ry="2" />
<text  x="204.86" y="273.5" ></text>
</g>
<g >
<title>firedrake.functionspacedata.FunctionSpaceData.__init__ (23,391 us, 0.09%)</title><rect x="73.8" y="119" width="1.0" height="15.0" fill="rgb(0,0,0)" rx="2" ry="2" />
<text  x="76.75" y="129.5" ></text>
</g>
<g >
<title>Log_Event_mtf_solve_61 (16,718 us, 0.06%)</title><rect x="227.4" y="215" width="0.8" height="15.0" fill="rgb(0,0,0)" rx="2" ry="2" />
<text  x="230.44" y="225.5" ></text>
</g>
<g >
<title>Parloop_Cells_wrap_par_loop_kernel (35,192 us, 0.14%)</title><rect x="149.6" y="199" width="1.6" height="15.0" fill="rgb(0,0,0)" rx="2" ry="2" />
<text  x="152.55" y="209.5" ></text>
</g>
<g >
<title>SNESSolve (22,832,733 us, 88.57%)</title><rect x="144.8" y="87" width="1045.2" height="15.0" fill="rgb(0,0,0)" rx="2" ry="2" />
<text  x="147.82" y="97.5" >SNESSolve</text>
</g>
<g >
<title>Log_Event_subkernel105_cell_to__cell_integral_otherwise (75,226 us, 0.29%)</title><rect x="303.3" y="263" width="3.4" height="15.0" fill="rgb(0,0,0)" rx="2" ry="2" />
<text  x="306.26" y="273.5" ></text>
</g>
<g >
<title>Log_Event_mtf_solve_119 (7,918,390 us, 30.72%)</title><rect x="327.6" y="247" width="362.4" height="15.0" fill="rgb(0,0,0)" rx="2" ry="2" />
<text  x="330.56" y="257.5" >Log_Event_mtf_solve_119</text>
</g>
<g >
<title>Log_Event_subkernel88_cell_to__cell_integral_otherwise (76,334 us, 0.30%)</title><rect x="712.1" y="295" width="3.5" height="15.0" fill="rgb(0,0,0)" rx="2" ry="2" />
<text  x="715.13" y="305.5" ></text>
</g>
<g >
<title>Log_Event_tensorshell_knl_137 (179,679 us, 0.70%)</title><rect x="529.7" y="295" width="8.2" height="15.0" fill="rgb(0,0,0)" rx="2" ry="2" />
<text  x="532.66" y="305.5" ></text>
</g>
<g >
<title>firedrake.matrix_free.operators.ImplicitMatrixContext.mult (985,191 us, 3.82%)</title><rect x="860.0" y="247" width="45.1" height="15.0" fill="rgb(0,0,0)" rx="2" ry="2" />
<text  x="862.99" y="257.5" >fir..</text>
</g>
<g >
<title>Parloop_Cells_wrap_slate_loopy_knl_79 (13,661,628 us, 53.00%)</title><rect x="234.6" y="215" width="625.4" height="15.0" fill="rgb(0,0,0)" rx="2" ry="2" />
<text  x="237.62" y="225.5" >Parloop_Cells_wrap_slate_loopy_knl_79</text>
</g>
<g >
<title>Log_Event_subkernel111_interior_facet_horiz_top_to__exterior_facet_top_integral_otherwise (46,792 us, 0.18%)</title><rect x="781.7" y="247" width="2.2" height="15.0" fill="rgb(0,0,0)" rx="2" ry="2" />
<text  x="784.73" y="257.5" ></text>
</g>
<g >
<title>firedrake.matrix_free.operators.ImplicitMatrixContext.mult (103,313 us, 0.40%)</title><rect x="144.8" y="135" width="4.8" height="15.0" fill="rgb(0,0,0)" rx="2" ry="2" />
<text  x="147.82" y="145.5" ></text>
</g>
<g >
<title>HybridBreak (35,192 us, 0.14%)</title><rect x="149.6" y="151" width="1.6" height="15.0" fill="rgb(0,0,0)" rx="2" ry="2" />
<text  x="152.55" y="161.5" ></text>
</g>
<g >
<title>ParLoopExecute (4,965,187 us, 19.26%)</title><rect x="921.0" y="231" width="227.3" height="15.0" fill="rgb(0,0,0)" rx="2" ry="2" />
<text  x="924.03" y="241.5" >ParLoopExecute</text>
</g>
<g >
<title>Log_Event_tensorshell_knl_2 (43,542 us, 0.17%)</title><rect x="220.4" y="231" width="2.0" height="15.0" fill="rgb(0,0,0)" rx="2" ry="2" />
<text  x="223.44" y="241.5" ></text>
</g>
<g >
<title>Log_Event_subkernel73_cell_to__cell_integral_otherwise (42,872 us, 0.17%)</title><rect x="1133.3" y="263" width="2.0" height="15.0" fill="rgb(0,0,0)" rx="2" ry="2" />
<text  x="1136.30" y="273.5" ></text>
</g>
<g >
<title>Log_Event_mtf_solve_14 (271,603 us, 1.05%)</title><rect x="197.2" y="247" width="12.4" height="15.0" fill="rgb(0,0,0)" rx="2" ry="2" />
<text  x="200.18" y="257.5" ></text>
</g>
<g >
<title>Parloop_Cells_wrap_form00_cell_integral_otherwise (36,943 us, 0.14%)</title><rect x="1178.1" y="183" width="1.7" height="15.0" fill="rgb(0,0,0)" rx="2" ry="2" />
<text  x="1181.14" y="193.5" ></text>
</g>
<g >
<title>Log_Event_subkernel95_cell_to__cell_integral_otherwise (75,427 us, 0.29%)</title><rect x="729.4" y="295" width="3.5" height="15.0" fill="rgb(0,0,0)" rx="2" ry="2" />
<text  x="732.44" y="305.5" ></text>
</g>
<g >
<title>CreateFunctionSpace (23,391 us, 0.09%)</title><rect x="73.8" y="71" width="1.0" height="15.0" fill="rgb(0,0,0)" rx="2" ry="2" />
<text  x="76.75" y="81.5" ></text>
</g>
<g >
<title>Parloop_Cells_wrap_form0_cell_integral_otherwise (33,638 us, 0.13%)</title><rect x="144.8" y="167" width="1.6" height="15.0" fill="rgb(0,0,0)" rx="2" ry="2" />
<text  x="147.82" y="177.5" ></text>
</g>
<g >
<title>Parloop_Cells_wrap_slate_loopy_knl_0 (921,490 us, 3.57%)</title><rect x="191.4" y="183" width="42.2" height="15.0" fill="rgb(0,0,0)" rx="2" ry="2" />
<text  x="194.37" y="193.5" >Par..</text>
</g>
<g >
<title>pyop2.global_kernel.GlobalKernel.compile (36,943 us, 0.14%)</title><rect x="1178.1" y="199" width="1.7" height="15.0" fill="rgb(0,0,0)" rx="2" ry="2" />
<text  x="1181.14" y="209.5" ></text>
</g>
<g >
<title>Log_Event_mtf_solve_38 (69,975 us, 0.27%)</title><rect x="224.2" y="215" width="3.2" height="15.0" fill="rgb(0,0,0)" rx="2" ry="2" />
<text  x="227.24" y="225.5" ></text>
</g>
<g >
<title>Log_Event_subkernel136_cell_to__cell_integral_otherwise (1,701,116 us, 6.60%)</title><rect x="447.7" y="295" width="77.9" height="15.0" fill="rgb(0,0,0)" rx="2" ry="2" />
<text  x="450.69" y="305.5" >Log_Even..</text>
</g>
<g >
<title>Log_Event_subkernel135_cell_to__cell_integral_otherwise (668,981 us, 2.60%)</title><rect x="417.1" y="295" width="30.6" height="15.0" fill="rgb(0,0,0)" rx="2" ry="2" />
<text  x="420.07" y="305.5" >L..</text>
</g>
<g >
<title>Log_Event_subkernel71_interior_facet_vert_to__exterior_facet_vert_integral_otherwise (190,018 us, 0.74%)</title><rect x="1121.4" y="263" width="8.7" height="15.0" fill="rgb(0,0,0)" rx="2" ry="2" />
<text  x="1124.44" y="273.5" ></text>
</g>
<g >
<title>SCSolve (20,786,280 us, 80.64%)</title><rect x="233.6" y="135" width="951.5" height="15.0" fill="rgb(0,0,0)" rx="2" ry="2" />
<text  x="236.56" y="145.5" >SCSolve</text>
</g>
<g >
<title>pyop2.global_kernel.GlobalKernel.compile (36,242 us, 0.14%)</title><rect x="72.1" y="135" width="1.7" height="15.0" fill="rgb(0,0,0)" rx="2" ry="2" />
<text  x="75.09" y="145.5" ></text>
</g>
<g >
<title>Log_Event_subkernel146_cell_to__cell_integral_otherwise (139,225 us, 0.54%)</title><rect x="698.5" y="263" width="6.4" height="15.0" fill="rgb(0,0,0)" rx="2" ry="2" />
<text  x="701.51" y="273.5" ></text>
</g>
<g >
<title>Log_Event_tensorshell_knl_92 (512,904 us, 1.99%)</title><rect x="728.3" y="263" width="23.5" height="15.0" fill="rgb(0,0,0)" rx="2" ry="2" />
<text  x="731.34" y="273.5" >L..</text>
</g>
<g >
<title>firedrake.interpolation.make_interpolator (95,612 us, 0.37%)</title><rect x="1179.8" y="167" width="4.4" height="15.0" fill="rgb(0,0,0)" rx="2" ry="2" />
<text  x="1182.83" y="177.5" ></text>
</g>
<g >
<title>Log_Event_tensorshell_knl_49 (32,848 us, 0.13%)</title><rect x="225.9" y="231" width="1.5" height="15.0" fill="rgb(0,0,0)" rx="2" ry="2" />
<text  x="228.94" y="241.5" ></text>
</g>
<g >
<title>Log_Event_subkernel103_cell_to__cell_integral_otherwise (148,747 us, 0.58%)</title><rect x="751.8" y="247" width="6.8" height="15.0" fill="rgb(0,0,0)" rx="2" ry="2" />
<text  x="754.82" y="257.5" ></text>
</g>
<g >
<title>Log_Event_subkernel148_interior_facet_vert_to__exterior_facet_vert_integral_otherwise (363,746 us, 1.41%)</title><rect x="822.5" y="247" width="16.6" height="15.0" fill="rgb(0,0,0)" rx="2" ry="2" />
<text  x="825.49" y="257.5" ></text>
</g>
<g >
<title>MatMult (13,684,939 us, 53.09%)</title><rect x="233.6" y="167" width="626.4" height="15.0" fill="rgb(0,0,0)" rx="2" ry="2" />
<text  x="236.56" y="177.5" >MatMult</text>
</g>
<g >
<title>PCSetUp (108,016 us, 0.42%)</title><rect x="1185.1" y="103" width="4.9" height="15.0" fill="rgb(0,0,0)" rx="2" ry="2" />
<text  x="1188.06" y="113.5" ></text>
</g>
<g >
<title>PCSetUp (203,512 us, 0.79%)</title><rect x="1175.7" y="151" width="9.4" height="15.0" fill="rgb(0,0,0)" rx="2" ry="2" />
<text  x="1178.74" y="161.5" ></text>
</g>
<g >
<title>Parloop_Cells_wrap_expression_kernel (33,988 us, 0.13%)</title><rect x="1176.6" y="183" width="1.5" height="15.0" fill="rgb(0,0,0)" rx="2" ry="2" />
<text  x="1179.58" y="193.5" ></text>
</g>
<g >
<title>PCSetUp (34,682 us, 0.13%)</title><rect x="1174.2" y="199" width="1.5" height="15.0" fill="rgb(0,0,0)" rx="2" ry="2" />
<text  x="1177.15" y="209.5" ></text>
</g>
<g >
<title>Log_Event_subkernel125_cell_to__cell_integral_otherwise (58,005 us, 0.23%)</title><rect x="335.5" y="295" width="2.6" height="15.0" fill="rgb(0,0,0)" rx="2" ry="2" />
<text  x="338.47" y="305.5" ></text>
</g>
<g >
<title>Log_Event_subkernel13_cell_to__cell_integral_otherwise (127,008 us, 0.49%)</title><rect x="209.6" y="247" width="5.8" height="15.0" fill="rgb(0,0,0)" rx="2" ry="2" />
<text  x="212.62" y="257.5" ></text>
</g>
<g >
<title>HybridRHS (1,799,932 us, 6.98%)</title><rect x="151.2" y="151" width="82.4" height="15.0" fill="rgb(0,0,0)" rx="2" ry="2" />
<text  x="154.16" y="161.5" >HybridRHS</text>
</g>
<g >
<title>Log_Event_subkernel97_cell_to__cell_integral_otherwise (58,051 us, 0.23%)</title><rect x="732.9" y="295" width="2.7" height="15.0" fill="rgb(0,0,0)" rx="2" ry="2" />
<text  x="735.90" y="305.5" ></text>
</g>
<g >
<title>PCApply (22,621,404 us, 87.75%)</title><rect x="149.6" y="119" width="1035.5" height="15.0" fill="rgb(0,0,0)" rx="2" ry="2" />
<text  x="152.55" y="129.5" >PCApply</text>
</g>
<g >
<title>Log_Event_subkernel138_cell_to__cell_integral_otherwise (1,543,668 us, 5.99%)</title><rect x="619.4" y="279" width="70.6" height="15.0" fill="rgb(0,0,0)" rx="2" ry="2" />
<text  x="622.37" y="289.5" >Log_Eve..</text>
</g>
<g >
<title>pyop2.global_kernel.GlobalKernel.compile (38,139 us, 0.15%)</title><rect x="1146.6" y="263" width="1.7" height="15.0" fill="rgb(0,0,0)" rx="2" ry="2" />
<text  x="1149.57" y="273.5" ></text>
</g>
<g >
<title>ParLoopExecute (13,661,628 us, 53.00%)</title><rect x="234.6" y="199" width="625.4" height="15.0" fill="rgb(0,0,0)" rx="2" ry="2" />
<text  x="237.62" y="209.5" >ParLoopExecute</text>
</g>
<g >
<title>Log_Event_subkernel87_cell_to__cell_integral_otherwise (59,277 us, 0.23%)</title><rect x="709.4" y="295" width="2.7" height="15.0" fill="rgb(0,0,0)" rx="2" ry="2" />
<text  x="712.42" y="305.5" ></text>
</g>
<g >
<title>ParLoopExecute (921,490 us, 3.57%)</title><rect x="191.4" y="167" width="42.2" height="15.0" fill="rgb(0,0,0)" rx="2" ry="2" />
<text  x="194.37" y="177.5" >Par..</text>
</g>
<g >
<title>pyop2.global_kernel.GlobalKernel.compile (35,192 us, 0.14%)</title><rect x="149.6" y="215" width="1.6" height="15.0" fill="rgb(0,0,0)" rx="2" ry="2" />
<text  x="152.55" y="225.5" ></text>
</g>
<g >
<title>Log_Event_tensorshell_knl_134 (89,670 us, 0.35%)</title><rect x="525.6" y="295" width="4.1" height="15.0" fill="rgb(0,0,0)" rx="2" ry="2" />
<text  x="528.56" y="305.5" ></text>
</g>
<g >
<title>Parloop_Cells_wrap_form1_cell_integral_otherwise (32,192 us, 0.12%)</title><rect x="146.4" y="167" width="1.4" height="15.0" fill="rgb(0,0,0)" rx="2" ry="2" />
<text  x="149.36" y="177.5" ></text>
</g>
<g >
<title>PCApply (6,897,829 us, 26.76%)</title><rect x="860.0" y="167" width="315.7" height="15.0" fill="rgb(0,0,0)" rx="2" ry="2" />
<text  x="862.99" y="177.5" >PCApply</text>
</g>
<g >
<title>Log_Event_subkernel116_cell_to__cell_integral_otherwise (138,902 us, 0.54%)</title><rect x="321.2" y="263" width="6.4" height="15.0" fill="rgb(0,0,0)" rx="2" ry="2" />
<text  x="324.20" y="273.5" ></text>
</g>
<g >
<title>Log_Event_mtf_solve_122 (323,223 us, 1.25%)</title><rect x="329.8" y="279" width="14.8" height="15.0" fill="rgb(0,0,0)" rx="2" ry="2" />
<text  x="332.79" y="289.5" ></text>
</g>
<g >
<title>pyop2.global_kernel.GlobalKernel.compile (33,638 us, 0.13%)</title><rect x="144.8" y="183" width="1.6" height="15.0" fill="rgb(0,0,0)" rx="2" ry="2" />
<text  x="147.82" y="193.5" ></text>
</g>
<g >
<title>ParLoopExecute (70,931 us, 0.28%)</title><rect x="1176.6" y="167" width="3.2" height="15.0" fill="rgb(0,0,0)" rx="2" ry="2" />
<text  x="1179.58" y="177.5" ></text>
</g>
<g >
<title>Parloop_Cells_wrap_par_loop_kernel (33,038 us, 0.13%)</title><rect x="1188.5" y="167" width="1.5" height="15.0" fill="rgb(0,0,0)" rx="2" ry="2" />
<text  x="1191.49" y="177.5" ></text>
</g>
<g >
<title>Log_Event_subkernel71_interior_facet_horiz_bottom_to__exterior_facet_bottom_integral_otherwise (21,470 us, 0.08%)</title><rect x="1119.4" y="263" width="1.0" height="15.0" fill="rgb(0,0,0)" rx="2" ry="2" />
<text  x="1122.43" y="273.5" ></text>
</g>
<g >
<title>firedrake.matrix_free.operators.ImplicitMatrixContext.mult (13,684,939 us, 53.09%)</title><rect x="233.6" y="183" width="626.4" height="15.0" fill="rgb(0,0,0)" rx="2" ry="2" />
<text  x="236.56" y="193.5" >firedrake.matrix_free.operators.ImplicitMatrixContext.mult</text>
</g>
<g >
<title>Log_Event_subkernel126_cell_to__cell_integral_otherwise (141,135 us, 0.55%)</title><rect x="338.1" y="295" width="6.5" height="15.0" fill="rgb(0,0,0)" rx="2" ry="2" />
<text  x="341.13" y="305.5" ></text>
</g>
<g >
<title>firedrake.extrusion_utils.make_extruded_coords (66,097 us, 0.26%)</title><rect x="70.7" y="87" width="3.1" height="15.0" fill="rgb(0,0,0)" rx="2" ry="2" />
<text  x="73.73" y="97.5" ></text>
</g>
<g >
<title>Log_Event_tensorshell_knl_39 (37,127 us, 0.14%)</title><rect x="224.2" y="231" width="1.7" height="15.0" fill="rgb(0,0,0)" rx="2" ry="2" />
<text  x="227.24" y="241.5" ></text>
</g>
<g >
<title>Log_Event_subkernel67_interior_facet_vert_to__exterior_facet_vert_integral_otherwise (25,800 us, 0.10%)</title><rect x="229.4" y="215" width="1.2" height="15.0" fill="rgb(0,0,0)" rx="2" ry="2" />
<text  x="232.38" y="225.5" ></text>
</g>
<g >
<title>Log_Event_subkernel110_interior_facet_vert_to__exterior_facet_vert_integral_otherwise (364,123 us, 1.41%)</title><rect x="762.9" y="247" width="16.6" height="15.0" fill="rgb(0,0,0)" rx="2" ry="2" />
<text  x="765.86" y="257.5" ></text>
</g>
<g >
<title>PCSetUp (5,877,956 us, 22.80%)</title><rect x="905.1" y="215" width="269.1" height="15.0" fill="rgb(0,0,0)" rx="2" ry="2" />
<text  x="908.09" y="225.5" >PCSetUp</text>
</g>
<g >
<title>pyop2.global_kernel.GlobalKernel.compile (32,192 us, 0.12%)</title><rect x="146.4" y="183" width="1.4" height="15.0" fill="rgb(0,0,0)" rx="2" ry="2" />
<text  x="149.36" y="193.5" ></text>
</g>
<g >
<title>ParLoopExecute (36,242 us, 0.14%)</title><rect x="72.1" y="103" width="1.7" height="15.0" fill="rgb(0,0,0)" rx="2" ry="2" />
<text  x="75.09" y="113.5" ></text>
</g>
<g >
<title>ParLoopExecute (65,830 us, 0.26%)</title><rect x="144.8" y="151" width="3.0" height="15.0" fill="rgb(0,0,0)" rx="2" ry="2" />
<text  x="147.82" y="161.5" ></text>
</g>
<g >
<title>ParLoopExecute (35,192 us, 0.14%)</title><rect x="149.6" y="183" width="1.6" height="15.0" fill="rgb(0,0,0)" rx="2" ry="2" />
<text  x="152.55" y="193.5" ></text>
</g>
<g >
<title>Log_Event_mtf_solve_24 (22,963 us, 0.09%)</title><rect x="222.4" y="215" width="1.1" height="15.0" fill="rgb(0,0,0)" rx="2" ry="2" />
<text  x="225.43" y="225.5" ></text>
</g>
<g >
<title>firedrake.variational_solver.NonlinearVariationalSolver.solve (22,832,733 us, 88.57%)</title><rect x="144.8" y="71" width="1045.2" height="15.0" fill="rgb(0,0,0)" rx="2" ry="2" />
<text  x="147.82" y="81.5" >firedrake.variational_solver.NonlinearVariationalSolver.solve</text>
</g>
<g >
<title>Log_Event_mtf_solve_132 (3,831,827 us, 14.86%)</title><rect x="362.5" y="279" width="175.4" height="15.0" fill="rgb(0,0,0)" rx="2" ry="2" />
<text  x="365.48" y="289.5" >Log_Event_mtf_solve_..</text>
</g>
<g >
<title>firedrake.interpolation.make_interpolator (25,177 us, 0.10%)</title><rect x="1187.3" y="135" width="1.2" height="15.0" fill="rgb(0,0,0)" rx="2" ry="2" />
<text  x="1190.34" y="145.5" ></text>
</g>
<g >
<title>Log_Event_subkernel93_cell_to__cell_integral_otherwise (149,444 us, 0.58%)</title><rect x="745.0" y="279" width="6.8" height="15.0" fill="rgb(0,0,0)" rx="2" ry="2" />
<text  x="747.98" y="289.5" ></text>
</g>
<g >
<title>Log_Event_subkernel90_cell_to__cell_integral_otherwise (128,662 us, 0.50%)</title><rect x="722.5" y="279" width="5.8" height="15.0" fill="rgb(0,0,0)" rx="2" ry="2" />
<text  x="725.46" y="289.5" ></text>
</g>
<g >
<title>MatMult (985,191 us, 3.82%)</title><rect x="860.0" y="231" width="45.1" height="15.0" fill="rgb(0,0,0)" rx="2" ry="2" />
<text  x="862.99" y="241.5" >Mat..</text>
</g>
<g >
<title>Log_Event_mtf_solve_4 (22,919 us, 0.09%)</title><rect x="221.4" y="247" width="1.0" height="15.0" fill="rgb(0,0,0)" rx="2" ry="2" />
<text  x="224.38" y="257.5" ></text>
</g>
<g >
<title>SCForwardElim (1,835,124 us, 7.12%)</title><rect x="149.6" y="135" width="84.0" height="15.0" fill="rgb(0,0,0)" rx="2" ry="2" />
<text  x="152.55" y="145.5" >SCForwar..</text>
</g>
<g >
<title>Log_Event_mtf_solve_1 (551,503 us, 2.14%)</title><rect x="197.2" y="215" width="25.2" height="15.0" fill="rgb(0,0,0)" rx="2" ry="2" />
<text  x="200.18" y="225.5" >L..</text>
</g>
<g >
<title>Log_Event_subkernel123_cell_to__cell_integral_otherwise (75,319 us, 0.29%)</title><rect x="332.0" y="295" width="3.5" height="15.0" fill="rgb(0,0,0)" rx="2" ry="2" />
<text  x="335.03" y="305.5" ></text>
</g>
<g >
<title>Log_Event_mtf_solve_142 (324,450 us, 1.26%)</title><rect x="690.0" y="247" width="14.9" height="15.0" fill="rgb(0,0,0)" rx="2" ry="2" />
<text  x="693.03" y="257.5" ></text>
</g>
<g >
<title>firedrake.tsfc_interface.compile_form (19,968 us, 0.08%)</title><rect x="1174.8" y="215" width="0.9" height="15.0" fill="rgb(0,0,0)" rx="2" ry="2" />
<text  x="1177.83" y="225.5" ></text>
</g>
<g >
<title>Log_Event_subkernel148_interior_facet_horiz_bottom_to__exterior_facet_bottom_integral_otherwise (45,577 us, 0.18%)</title><rect x="818.3" y="247" width="2.1" height="15.0" fill="rgb(0,0,0)" rx="2" ry="2" />
<text  x="821.27" y="257.5" ></text>
</g>
<g >
<title>Log_Event_subkernel148_interior_facet_horiz_top_to__exterior_facet_top_integral_otherwise (46,491 us, 0.18%)</title><rect x="820.4" y="247" width="2.1" height="15.0" fill="rgb(0,0,0)" rx="2" ry="2" />
<text  x="823.36" y="257.5" ></text>
</g>
<g >
<title>Log_Event_subkernel68_interior_facet_vert_to__exterior_facet_vert_integral_otherwise (25,676 us, 0.10%)</title><rect x="230.6" y="215" width="1.1" height="15.0" fill="rgb(0,0,0)" rx="2" ry="2" />
<text  x="233.56" y="225.5" ></text>
</g>
<g >
<title>Log_Event_subkernel77_interior_facet_vert_to__exterior_facet_vert_integral_otherwise (171,631 us, 0.67%)</title><rect x="1138.7" y="263" width="7.9" height="15.0" fill="rgb(0,0,0)" rx="2" ry="2" />
<text  x="1141.71" y="273.5" ></text>
</g>
<g >
<title>Log_Event_subkernel128_cell_to__cell_integral_otherwise (129,058 us, 0.50%)</title><rect x="351.4" y="279" width="5.9" height="15.0" fill="rgb(0,0,0)" rx="2" ry="2" />
<text  x="354.37" y="289.5" ></text>
</g>
<g >
<title>Log_Event_inits_wrap_slate_loopy_knl_70 (15,361 us, 0.06%)</title><rect x="928.1" y="263" width="0.7" height="15.0" fill="rgb(0,0,0)" rx="2" ry="2" />
<text  x="931.09" y="273.5" ></text>
</g>
<g >
<title>Log_Event_subkernel118_cell_to__cell_integral_otherwise (129,352 us, 0.50%)</title><rect x="805.6" y="247" width="5.9" height="15.0" fill="rgb(0,0,0)" rx="2" ry="2" />
<text  x="808.56" y="257.5" ></text>
</g>
<g >
<title>Log_Event_subkernel111_interior_facet_horiz_bottom_to__exterior_facet_bottom_integral_otherwise (48,220 us, 0.19%)</title><rect x="779.5" y="247" width="2.2" height="15.0" fill="rgb(0,0,0)" rx="2" ry="2" />
<text  x="782.52" y="257.5" ></text>
</g>
<g >
<title>Log_Event_mtf_solve_104 (231,820 us, 0.90%)</title><rect x="302.2" y="247" width="10.6" height="15.0" fill="rgb(0,0,0)" rx="2" ry="2" />
<text  x="305.16" y="257.5" ></text>
</g>
<g >
<title>Log_Event_subkernel141_cell_to__cell_integral_otherwise (148,393 us, 0.58%)</title><rect x="811.5" y="247" width="6.8" height="15.0" fill="rgb(0,0,0)" rx="2" ry="2" />
<text  x="814.48" y="257.5" ></text>
</g>
<g >
<title>CreateExtMesh (66,097 us, 0.26%)</title><rect x="70.7" y="71" width="3.1" height="15.0" fill="rgb(0,0,0)" rx="2" ry="2" />
<text  x="73.73" y="81.5" ></text>
</g>
<g >
<title>Log_Event_subkernel85_cell_to__cell_integral_otherwise (75,541 us, 0.29%)</title><rect x="706.0" y="295" width="3.4" height="15.0" fill="rgb(0,0,0)" rx="2" ry="2" />
<text  x="708.96" y="305.5" ></text>
</g>
<g >
<title>firedrake.parloops.par_loop (33,038 us, 0.13%)</title><rect x="1188.5" y="135" width="1.5" height="15.0" fill="rgb(0,0,0)" rx="2" ry="2" />
<text  x="1191.49" y="145.5" ></text>
</g>
<g >
<title>all (25,778,050 us, 100%)</title><rect x="10.0" y="39" width="1180.0" height="15.0" fill="rgb(0,0,0)" rx="2" ry="2" />
<text  x="13.00" y="49.5" ></text>
</g>
<g >
<title>Log_Event_subkernel131_cell_to__cell_integral_otherwise (1,779,998 us, 6.91%)</title><rect x="537.9" y="279" width="81.5" height="15.0" fill="rgb(0,0,0)" rx="2" ry="2" />
<text  x="540.89" y="289.5" >Log_Even..</text>
</g>
<g >
<title>Log_Event_subkernel149_interior_facet_vert_to__exterior_facet_vert_integral_otherwise (363,743 us, 1.41%)</title><rect x="843.3" y="247" width="16.7" height="15.0" fill="rgb(0,0,0)" rx="2" ry="2" />
<text  x="846.34" y="257.5" ></text>
</g>
<g >
<title>KSPSetUp (6,863,147 us, 26.62%)</title><rect x="860.0" y="199" width="314.2" height="15.0" fill="rgb(0,0,0)" rx="2" ry="2" />
<text  x="862.99" y="209.5" >KSPSetUp</text>
</g>
<g >
<title>firedrake.tsfc_interface.compile_form (18,607 us, 0.07%)</title><rect x="1184.2" y="167" width="0.9" height="15.0" fill="rgb(0,0,0)" rx="2" ry="2" />
<text  x="1187.20" y="177.5" ></text>
</g>
<g >
<title>Parloop_Cells_wrap_pyop2_kernel_uniform_extrusion (36,242 us, 0.14%)</title><rect x="72.1" y="119" width="1.7" height="15.0" fill="rgb(0,0,0)" rx="2" ry="2" />
<text  x="75.09" y="129.5" ></text>
</g>
<g >
<title>Log_Event_subkernel20_cell_to__cell_integral_otherwise (109,350 us, 0.42%)</title><rect x="215.4" y="247" width="5.0" height="15.0" fill="rgb(0,0,0)" rx="2" ry="2" />
<text  x="218.43" y="257.5" ></text>
</g>
<g >
<title>Log_Event_subkernel30_interior_facet_vert_to__exterior_facet_vert_integral_otherwise (25,645 us, 0.10%)</title><rect x="228.2" y="215" width="1.2" height="15.0" fill="rgb(0,0,0)" rx="2" ry="2" />
<text  x="231.21" y="225.5" ></text>
</g>
<g >
<title>Log_Event_mtf_solve_81 (1,025,492 us, 3.98%)</title><rect x="704.9" y="247" width="46.9" height="15.0" fill="rgb(0,0,0)" rx="2" ry="2" />
<text  x="707.88" y="257.5" >Log_..</text>
</g>
<g >
<title>Log_Event_slate_loopy_knl_0 (881,813 us, 3.42%)</title><rect x="191.4" y="199" width="40.3" height="15.0" fill="rgb(0,0,0)" rx="2" ry="2" />
<text  x="194.37" y="209.5" >Log..</text>
</g>
<g >
<title>MatZeroInitial (130,576 us, 0.51%)</title><rect x="1168.2" y="247" width="6.0" height="15.0" fill="rgb(0,0,0)" rx="2" ry="2" />
<text  x="1171.17" y="257.5" ></text>
</g>
<g >
<title>CreateSparsity (433,924 us, 1.68%)</title><rect x="1148.3" y="247" width="19.9" height="15.0" fill="rgb(0,0,0)" rx="2" ry="2" />
<text  x="1151.31" y="257.5" ></text>
</g>
<g >
<title>Log_Event_subkernel143_cell_to__cell_integral_otherwise (75,111 us, 0.29%)</title><rect x="692.4" y="263" width="3.5" height="15.0" fill="rgb(0,0,0)" rx="2" ry="2" />
<text  x="695.42" y="273.5" ></text>
</g>
<g >
<title>Log_Event_subkernel110_interior_facet_horiz_top_to__exterior_facet_top_integral_otherwise (46,298 us, 0.18%)</title><rect x="760.7" y="247" width="2.2" height="15.0" fill="rgb(0,0,0)" rx="2" ry="2" />
<text  x="763.74" y="257.5" ></text>
</g>
<g >
<title>Log_Event_mtf_solve_84 (234,787 us, 0.91%)</title><rect x="704.9" y="279" width="10.7" height="15.0" fill="rgb(0,0,0)" rx="2" ry="2" />
<text  x="707.88" y="289.5" ></text>
</g>
<g >
<title>Log_Event_subkernel110_interior_facet_horiz_bottom_to__exterior_facet_bottom_integral_otherwise (45,979 us, 0.18%)</title><rect x="758.6" y="247" width="2.1" height="15.0" fill="rgb(0,0,0)" rx="2" ry="2" />
<text  x="761.63" y="257.5" ></text>
</g>
<g >
<title>Log_Event_mtf_solve_41 (16,566 us, 0.06%)</title><rect x="225.2" y="247" width="0.7" height="15.0" fill="rgb(0,0,0)" rx="2" ry="2" />
<text  x="228.18" y="257.5" ></text>
</g>
<g >
<title>ParLoopExecute (33,038 us, 0.13%)</title><rect x="1188.5" y="151" width="1.5" height="15.0" fill="rgb(0,0,0)" rx="2" ry="2" />
<text  x="1191.49" y="161.5" ></text>
</g>
<g >
<title>Log_Event_subkernel149_interior_facet_horiz_top_to__exterior_facet_top_integral_otherwise (46,034 us, 0.18%)</title><rect x="841.2" y="247" width="2.1" height="15.0" fill="rgb(0,0,0)" rx="2" ry="2" />
<text  x="844.23" y="257.5" ></text>
</g>
<g >
<title>Log_Event_tensorshell_knl_82 (512,588 us, 1.99%)</title><rect x="704.9" y="263" width="23.4" height="15.0" fill="rgb(0,0,0)" rx="2" ry="2" />
<text  x="707.88" y="273.5" >L..</text>
</g>
<g >
<title>PCSetUp (6,897,829 us, 26.76%)</title><rect x="860.0" y="183" width="315.7" height="15.0" fill="rgb(0,0,0)" rx="2" ry="2" />
<text  x="862.99" y="193.5" >PCSetUp</text>
</g>
<g >
<title>Log_Event_subkernel77_interior_facet_horiz_top_to__exterior_facet_top_integral_otherwise (17,978 us, 0.07%)</title><rect x="1137.9" y="263" width="0.8" height="15.0" fill="rgb(0,0,0)" rx="2" ry="2" />
<text  x="1140.89" y="273.5" ></text>
</g>
<g >
<title>pyop2.global_kernel.GlobalKernel.compile (33,038 us, 0.13%)</title><rect x="1188.5" y="183" width="1.5" height="15.0" fill="rgb(0,0,0)" rx="2" ry="2" />
<text  x="1191.49" y="193.5" ></text>
</g>
<g >
<title>Log_Event_mtf_solve_31 (16,591 us, 0.06%)</title><rect x="223.5" y="215" width="0.7" height="15.0" fill="rgb(0,0,0)" rx="2" ry="2" />
<text  x="226.48" y="225.5" ></text>
</g>
<g >
<title>firedrake.functionspacedata.get_shared_data (23,391 us, 0.09%)</title><rect x="73.8" y="103" width="1.0" height="15.0" fill="rgb(0,0,0)" rx="2" ry="2" />
<text  x="76.75" y="113.5" ></text>
</g>
<g >
<title>Log_Event_subkernel83_cell_to__cell_integral_otherwise (149,139 us, 0.58%)</title><rect x="715.6" y="279" width="6.9" height="15.0" fill="rgb(0,0,0)" rx="2" ry="2" />
<text  x="718.63" y="289.5" ></text>
</g>
<g >
<title>CreateSparsity (51,612 us, 0.20%)</title><rect x="1181.8" y="183" width="2.4" height="15.0" fill="rgb(0,0,0)" rx="2" ry="2" />
<text  x="1184.84" y="193.5" ></text>
</g>
<g >
<title>Log_Event_tensorshell_knl_12 (507,961 us, 1.97%)</title><rect x="197.2" y="231" width="23.2" height="15.0" fill="rgb(0,0,0)" rx="2" ry="2" />
<text  x="200.18" y="241.5" >L..</text>
</g>
<g >
<title>inv_getri (355,399 us, 1.38%)</title><rect x="1103.2" y="279" width="16.2" height="15.0" fill="rgb(0,0,0)" rx="2" ry="2" />
<text  x="1106.16" y="289.5" ></text>
</g>
<g >
<title>Log_Event_tensorshell_knl_130 (7,269,136 us, 28.20%)</title><rect x="357.3" y="263" width="332.7" height="15.0" fill="rgb(0,0,0)" rx="2" ry="2" />
<text  x="360.28" y="273.5" >Log_Event_tensorshell_knl_130</text>
</g>
<g >
<title>Log_Event_subkernel100_cell_to__cell_integral_otherwise (128,985 us, 0.50%)</title><rect x="739.1" y="279" width="5.9" height="15.0" fill="rgb(0,0,0)" rx="2" ry="2" />
<text  x="742.08" y="289.5" ></text>
</g>
<g >
<title>Log_Event_subkernel18_cell_to__cell_integral_otherwise (121,682 us, 0.47%)</title><rect x="204.0" y="263" width="5.6" height="15.0" fill="rgb(0,0,0)" rx="2" ry="2" />
<text  x="207.05" y="273.5" ></text>
</g>
<g >
<title>MatMult (103,313 us, 0.40%)</title><rect x="144.8" y="119" width="4.8" height="15.0" fill="rgb(0,0,0)" rx="2" ry="2" />
<text  x="147.82" y="129.5" ></text>
</g>
</g>
</svg>
