<?xml version="1.0" standalone="no"?>
<!DOCTYPE svg PUBLIC "-//W3C//DTD SVG 1.1//EN" "http://www.w3.org/Graphics/SVG/1.1/DTD/svg11.dtd">
<svg version="1.1" width="1200" height="331" onload="init(evt)" viewBox="0 0 1200 331" xmlns="http://www.w3.org/2000/svg" xmlns:xlink="http://www.w3.org/1999/xlink">
<!-- Flame graph stack visualization. See https://github.com/brendangregg/FlameGraph for latest version, and http://www.brendangregg.com/flamegraphs.html for examples. -->
<!-- NOTES:  -->
<defs>
	<linearGradient id="background" y1="0" y2="1" x1="0" x2="0" >
		<stop stop-color="#eeeeee" offset="5%" />
		<stop stop-color="#eeeeb0" offset="95%" />
	</linearGradient>
</defs>
<style type="text/css">
	text { font-family:Verdana; font-size:13px; fill:rgb(0,0,0); }
	#search, #ignorecase { opacity:0.1; cursor:pointer; }
	#search:hover, #search.show, #ignorecase:hover, #ignorecase.show { opacity:1; }
	#subtitle { text-anchor:middle; font-color:rgb(160,160,160); }
	#title { text-anchor:middle; font-size:18px}
	#unzoom { cursor:pointer; }
	#frames > *:hover { stroke:black; stroke-width:0.5; cursor:pointer; }
	.hide { display:none; }
	.parent { opacity:0.5; }
</style>
<script type="text/ecmascript">
<![CDATA[
	"use strict";
	var details, searchbtn, unzoombtn, matchedtxt, svg, searching, currentSearchTerm, ignorecase, ignorecaseBtn;
	function init(evt) {
		details = document.getElementById("details").firstChild;
		searchbtn = document.getElementById("search");
		ignorecaseBtn = document.getElementById("ignorecase");
		unzoombtn = document.getElementById("unzoom");
		matchedtxt = document.getElementById("matched");
		svg = document.getElementsByTagName("svg")[0];
		searching = 0;
		currentSearchTerm = null;

		// use GET parameters to restore a flamegraphs state.
		var params = get_params();
		if (params.x && params.y)
			zoom(find_group(document.querySelector('[x="' + params.x + '"][y="' + params.y + '"]')));
                if (params.s) search(params.s);
	}

	// event listeners
	window.addEventListener("click", function(e) {
		var target = find_group(e.target);
		if (target) {
			if (target.nodeName == "a") {
				if (e.ctrlKey === false) return;
				e.preventDefault();
			}
			if (target.classList.contains("parent")) unzoom();
			zoom(target);
			if (!document.querySelector('.parent')) {
				clearzoom();
				return;
			}

			// set parameters for zoom state
			var el = target.querySelector("rect");
			if (el && el.attributes && el.attributes.y && el.attributes._orig_x) {
				var params = get_params()
				params.x = el.attributes._orig_x.value;
				params.y = el.attributes.y.value;
				history.replaceState(null, null, parse_params(params));
			}
		}
		else if (e.target.id == "unzoom") clearzoom();
		else if (e.target.id == "search") search_prompt();
		else if (e.target.id == "ignorecase") toggle_ignorecase();
	}, false)

	// mouse-over for info
	// show
	window.addEventListener("mouseover", function(e) {
		var target = find_group(e.target);
		if (target) details.nodeValue = "Function: " + g_to_text(target);
	}, false)

	// clear
	window.addEventListener("mouseout", function(e) {
		var target = find_group(e.target);
		if (target) details.nodeValue = ' ';
	}, false)

	// ctrl-F for search
	// ctrl-I to toggle case-sensitive search
	window.addEventListener("keydown",function (e) {
		if (e.keyCode === 114 || (e.ctrlKey && e.keyCode === 70)) {
			e.preventDefault();
			search_prompt();
		}
		else if (e.ctrlKey && e.keyCode === 73) {
			e.preventDefault();
			toggle_ignorecase();
		}
	}, false)

	// functions
	function get_params() {
		var params = {};
		var paramsarr = window.location.search.substr(1).split('&');
		for (var i = 0; i < paramsarr.length; ++i) {
			var tmp = paramsarr[i].split("=");
			if (!tmp[0] || !tmp[1]) continue;
			params[tmp[0]]  = decodeURIComponent(tmp[1]);
		}
		return params;
	}
	function parse_params(params) {
		var uri = "?";
		for (var key in params) {
			uri += key + '=' + encodeURIComponent(params[key]) + '&';
		}
		if (uri.slice(-1) == "&")
			uri = uri.substring(0, uri.length - 1);
		if (uri == '?')
			uri = window.location.href.split('?')[0];
		return uri;
	}
	function find_child(node, selector) {
		var children = node.querySelectorAll(selector);
		if (children.length) return children[0];
	}
	function find_group(node) {
		var parent = node.parentElement;
		if (!parent) return;
		if (parent.id == "frames") return node;
		return find_group(parent);
	}
	function orig_save(e, attr, val) {
		if (e.attributes["_orig_" + attr] != undefined) return;
		if (e.attributes[attr] == undefined) return;
		if (val == undefined) val = e.attributes[attr].value;
		e.setAttribute("_orig_" + attr, val);
	}
	function orig_load(e, attr) {
		if (e.attributes["_orig_"+attr] == undefined) return;
		e.attributes[attr].value = e.attributes["_orig_" + attr].value;
		e.removeAttribute("_orig_"+attr);
	}
	function g_to_text(e) {
		var text = find_child(e, "title").firstChild.nodeValue;
		return (text)
	}
	function g_to_func(e) {
		var func = g_to_text(e);
		// if there's any manipulation we want to do to the function
		// name before it's searched, do it here before returning.
		return (func);
	}
	function update_text(e) {
		var r = find_child(e, "rect");
		var t = find_child(e, "text");
		var w = parseFloat(r.attributes.width.value) -3;
		var txt = find_child(e, "title").textContent.replace(/\([^(]*\)$/,"");
		t.attributes.x.value = parseFloat(r.attributes.x.value) + 3;

		// Smaller than this size won't fit anything
		if (w < 2 * 13 * 0.59) {
			t.textContent = "";
			return;
		}

		t.textContent = txt;
		// Fit in full text width
		if (/^ *$/.test(txt) || t.getSubStringLength(0, txt.length) < w)
			return;

		for (var x = txt.length - 2; x > 0; x--) {
			if (t.getSubStringLength(0, x + 2) <= w) {
				t.textContent = txt.substring(0, x) + "..";
				return;
			}
		}
		t.textContent = "";
	}

	// zoom
	function zoom_reset(e) {
		if (e.attributes != undefined) {
			orig_load(e, "x");
			orig_load(e, "width");
		}
		if (e.childNodes == undefined) return;
		for (var i = 0, c = e.childNodes; i < c.length; i++) {
			zoom_reset(c[i]);
		}
	}
	function zoom_child(e, x, ratio) {
		if (e.attributes != undefined) {
			if (e.attributes.x != undefined) {
				orig_save(e, "x");
				e.attributes.x.value = (parseFloat(e.attributes.x.value) - x - 10) * ratio + 10;
				if (e.tagName == "text")
					e.attributes.x.value = find_child(e.parentNode, "rect[x]").attributes.x.value + 3;
			}
			if (e.attributes.width != undefined) {
				orig_save(e, "width");
				e.attributes.width.value = parseFloat(e.attributes.width.value) * ratio;
			}
		}

		if (e.childNodes == undefined) return;
		for (var i = 0, c = e.childNodes; i < c.length; i++) {
			zoom_child(c[i], x - 10, ratio);
		}
	}
	function zoom_parent(e) {
		if (e.attributes) {
			if (e.attributes.x != undefined) {
				orig_save(e, "x");
				e.attributes.x.value = 10;
			}
			if (e.attributes.width != undefined) {
				orig_save(e, "width");
				e.attributes.width.value = parseInt(svg.width.baseVal.value) - (10 * 2);
			}
		}
		if (e.childNodes == undefined) return;
		for (var i = 0, c = e.childNodes; i < c.length; i++) {
			zoom_parent(c[i]);
		}
	}
	function zoom(node) {
		var attr = find_child(node, "rect").attributes;
		var width = parseFloat(attr.width.value);
		var xmin = parseFloat(attr.x.value);
		var xmax = parseFloat(xmin + width);
		var ymin = parseFloat(attr.y.value);
		var ratio = (svg.width.baseVal.value - 2 * 10) / width;

		// XXX: Workaround for JavaScript float issues (fix me)
		var fudge = 0.0001;

		unzoombtn.classList.remove("hide");

		var el = document.getElementById("frames").children;
		for (var i = 0; i < el.length; i++) {
			var e = el[i];
			var a = find_child(e, "rect").attributes;
			var ex = parseFloat(a.x.value);
			var ew = parseFloat(a.width.value);
			var upstack;
			// Is it an ancestor
			if (1 == 0) {
				upstack = parseFloat(a.y.value) > ymin;
			} else {
				upstack = parseFloat(a.y.value) < ymin;
			}
			if (upstack) {
				// Direct ancestor
				if (ex <= xmin && (ex+ew+fudge) >= xmax) {
					e.classList.add("parent");
					zoom_parent(e);
					update_text(e);
				}
				// not in current path
				else
					e.classList.add("hide");
			}
			// Children maybe
			else {
				// no common path
				if (ex < xmin || ex + fudge >= xmax) {
					e.classList.add("hide");
				}
				else {
					zoom_child(e, xmin, ratio);
					update_text(e);
				}
			}
		}
		search();
	}
	function unzoom() {
		unzoombtn.classList.add("hide");
		var el = document.getElementById("frames").children;
		for(var i = 0; i < el.length; i++) {
			el[i].classList.remove("parent");
			el[i].classList.remove("hide");
			zoom_reset(el[i]);
			update_text(el[i]);
		}
		search();
	}
	function clearzoom() {
		unzoom();

		// remove zoom state
		var params = get_params();
		if (params.x) delete params.x;
		if (params.y) delete params.y;
		history.replaceState(null, null, parse_params(params));
	}

	// search
	function toggle_ignorecase() {
		ignorecase = !ignorecase;
		if (ignorecase) {
			ignorecaseBtn.classList.add("show");
		} else {
			ignorecaseBtn.classList.remove("show");
		}
		reset_search();
		search();
	}
	function reset_search() {
		var el = document.querySelectorAll("#frames rect");
		for (var i = 0; i < el.length; i++) {
			orig_load(el[i], "fill")
		}
		var params = get_params();
		delete params.s;
		history.replaceState(null, null, parse_params(params));
	}
	function search_prompt() {
		if (!searching) {
			var term = prompt("Enter a search term (regexp " +
			    "allowed, eg: ^ext4_)"
			    + (ignorecase ? ", ignoring case" : "")
			    + "\nPress Ctrl-i to toggle case sensitivity", "");
			if (term != null) search(term);
		} else {
			reset_search();
			searching = 0;
			currentSearchTerm = null;
			searchbtn.classList.remove("show");
			searchbtn.firstChild.nodeValue = "Search"
			matchedtxt.classList.add("hide");
			matchedtxt.firstChild.nodeValue = ""
		}
	}
	function search(term) {
		if (term) currentSearchTerm = term;

		var re = new RegExp(currentSearchTerm, ignorecase ? 'i' : '');
		var el = document.getElementById("frames").children;
		var matches = new Object();
		var maxwidth = 0;
		for (var i = 0; i < el.length; i++) {
			var e = el[i];
			var func = g_to_func(e);
			var rect = find_child(e, "rect");
			if (func == null || rect == null)
				continue;

			// Save max width. Only works as we have a root frame
			var w = parseFloat(rect.attributes.width.value);
			if (w > maxwidth)
				maxwidth = w;

			if (func.match(re)) {
				// highlight
				var x = parseFloat(rect.attributes.x.value);
				orig_save(rect, "fill");
				rect.attributes.fill.value = "rgb(230,0,230)";

				// remember matches
				if (matches[x] == undefined) {
					matches[x] = w;
				} else {
					if (w > matches[x]) {
						// overwrite with parent
						matches[x] = w;
					}
				}
				searching = 1;
			}
		}
		if (!searching)
			return;
		var params = get_params();
		params.s = currentSearchTerm;
		history.replaceState(null, null, parse_params(params));

		searchbtn.classList.add("show");
		searchbtn.firstChild.nodeValue = "Reset Search";

		// calculate percent matched, excluding vertical overlap
		var count = 0;
		var lastx = -1;
		var lastw = 0;
		var keys = Array();
		for (k in matches) {
			if (matches.hasOwnProperty(k))
				keys.push(k);
		}
		// sort the matched frames by their x location
		// ascending, then width descending
		keys.sort(function(a, b){
			return a - b;
		});
		// Step through frames saving only the biggest bottom-up frames
		// thanks to the sort order. This relies on the tree property
		// where children are always smaller than their parents.
		var fudge = 0.0001;	// JavaScript floating point
		for (var k in keys) {
			var x = parseFloat(keys[k]);
			var w = matches[keys[k]];
			if (x >= lastx + lastw - fudge) {
				count += w;
				lastx = x;
				lastw = w;
			}
		}
		// display matched percent
		matchedtxt.classList.remove("hide");
		var pct = 100 * count / maxwidth;
		if (pct != 100) pct = pct.toFixed(1)
		matchedtxt.firstChild.nodeValue = "Matched: " + pct + "%";
	}
]]>
</script>
<rect x="0.0" y="0" width="1200.0" height="331.0" fill="url(#background)"  />
<text id="title" x="600.00" y="26" >Firedrake example</text>
<text id="details" x="10.00" y="313" > </text>
<text id="unzoom" x="10.00" y="26" class="hide">Reset Zoom</text>
<text id="search" x="1090.00" y="26" >Search</text>
<text id="ignorecase" x="1174.00" y="26" >ic</text>
<text id="matched" x="1090.00" y="313" > </text>
<g id="frames">
<g >
<title>Log_Event_subkernel132_cell_to__cell_integral_otherwise (48,045 us, 0.01%)</title><rect x="779.5" y="263" width="0.1" height="15.0" fill="rgb(0,0,0)" rx="2" ry="2" />
<text  x="782.51" y="273.5" ></text>
</g>
<g >
<title>Log_Event_mtf_solve_123 (46,757 us, 0.01%)</title><rect x="779.9" y="279" width="0.2" height="15.0" fill="rgb(0,0,0)" rx="2" ry="2" />
<text  x="782.92" y="289.5" ></text>
</g>
<g >
<title>pyop2.global_kernel.GlobalKernel.compile (871,539 us, 0.21%)</title><rect x="12.7" y="135" width="2.5" height="15.0" fill="rgb(0,0,0)" rx="2" ry="2" />
<text  x="15.71" y="145.5" ></text>
</g>
<g >
<title>all (408,894,691 us, 100%)</title><rect x="10.0" y="39" width="1180.0" height="15.0" fill="rgb(0,0,0)" rx="2" ry="2" />
<text  x="13.00" y="49.5" ></text>
</g>
<g >
<title>Log_Event_subkernel53_cell_to__cell_integral_otherwise (49,928 us, 0.01%)</title><rect x="368.3" y="231" width="0.2" height="15.0" fill="rgb(0,0,0)" rx="2" ry="2" />
<text  x="371.34" y="241.5" ></text>
</g>
<g >
<title>Log_Event_subkernel152_interior_facet_vert_to__exterior_facet_vert_integral_otherwise (58,357 us, 0.01%)</title><rect x="781.7" y="247" width="0.1" height="15.0" fill="rgb(0,0,0)" rx="2" ry="2" />
<text  x="784.67" y="257.5" ></text>
</g>
<g >
<title>firedrake.variational_solver.NonlinearVariationalSolver.solve (405,554,689 us, 99.18%)</title><rect x="19.6" y="71" width="1170.4" height="15.0" fill="rgb(0,0,0)" rx="2" ry="2" />
<text  x="22.64" y="81.5" >firedrake.variational_solver.NonlinearVariationalSolver.solve</text>
</g>
<g >
<title>pyop2.global_kernel.GlobalKernel.compile (101,752,562 us, 24.88%)</title><rect x="782.0" y="231" width="293.6" height="15.0" fill="rgb(0,0,0)" rx="2" ry="2" />
<text  x="785.00" y="241.5" >pyop2.global_kernel.GlobalKernel.com..</text>
</g>
<g >
<title>Log_Event_mtf_solve_16 (46,744 us, 0.01%)</title><rect x="367.5" y="247" width="0.2" height="15.0" fill="rgb(0,0,0)" rx="2" ry="2" />
<text  x="370.54" y="257.5" ></text>
</g>
<g >
<title>RecoverFirstElim (76,925,540 us, 18.81%)</title><rect x="87.5" y="151" width="222.0" height="15.0" fill="rgb(0,0,0)" rx="2" ry="2" />
<text  x="90.54" y="161.5" >RecoverFirstElim</text>
</g>
<g >
<title>HybridBreak (875,398 us, 0.21%)</title><rect x="316.9" y="151" width="2.6" height="15.0" fill="rgb(0,0,0)" rx="2" ry="2" />
<text  x="319.94" y="161.5" ></text>
</g>
<g >
<title>pyop2.global_kernel.GlobalKernel.compile (4,608,969 us, 1.13%)</title><rect x="1161.1" y="151" width="13.3" height="15.0" fill="rgb(0,0,0)" rx="2" ry="2" />
<text  x="1164.07" y="161.5" ></text>
</g>
<g >
<title>Log_Event_mtf_solve_113 (47,355 us, 0.01%)</title><rect x="779.2" y="247" width="0.2" height="15.0" fill="rgb(0,0,0)" rx="2" ry="2" />
<text  x="782.24" y="257.5" ></text>
</g>
<g >
<title>firedrake.matrix_free.operators.ImplicitMatrixContext.mult (10,337,388 us, 2.53%)</title><rect x="19.6" y="135" width="29.9" height="15.0" fill="rgb(0,0,0)" rx="2" ry="2" />
<text  x="22.64" y="145.5" >f..</text>
</g>
<g >
<title>Log_Event_mtf_solve_79 (296,925 us, 0.07%)</title><rect x="780.5" y="247" width="0.8" height="15.0" fill="rgb(0,0,0)" rx="2" ry="2" />
<text  x="783.45" y="257.5" ></text>
</g>
<g >
<title>Log_Event_mtf_solve_120 (324,846 us, 0.08%)</title><rect x="779.4" y="247" width="0.9" height="15.0" fill="rgb(0,0,0)" rx="2" ry="2" />
<text  x="782.38" y="257.5" ></text>
</g>
<g >
<title>Log_Event_mtf_solve_44 (46,130 us, 0.01%)</title><rect x="368.8" y="247" width="0.1" height="15.0" fill="rgb(0,0,0)" rx="2" ry="2" />
<text  x="371.75" y="257.5" ></text>
</g>
<g >
<title>firedrake.tsfc_interface.compile_form (27,123,235 us, 6.63%)</title><rect x="652.2" y="167" width="78.2" height="15.0" fill="rgb(0,0,0)" rx="2" ry="2" />
<text  x="655.18" y="177.5" >firedrak..</text>
</g>
<g >
<title>pyop2.global_kernel.GlobalKernel.compile (5,731,936 us, 1.40%)</title><rect x="19.6" y="183" width="16.6" height="15.0" fill="rgb(0,0,0)" rx="2" ry="2" />
<text  x="22.64" y="193.5" ></text>
</g>
<g >
<title>firedrake.parloops.par_loop (656,899 us, 0.16%)</title><rect x="1159.2" y="135" width="1.9" height="15.0" fill="rgb(0,0,0)" rx="2" ry="2" />
<text  x="1162.18" y="145.5" ></text>
</g>
<g >
<title>SNESFunctionEval (10,023,325 us, 2.45%)</title><rect x="1161.1" y="103" width="28.9" height="15.0" fill="rgb(0,0,0)" rx="2" ry="2" />
<text  x="1164.07" y="113.5" >S..</text>
</g>
<g >
<title>Log_Event_tensorshell_knl_2 (91,019 us, 0.02%)</title><rect x="367.7" y="231" width="0.2" height="15.0" fill="rgb(0,0,0)" rx="2" ry="2" />
<text  x="370.68" y="241.5" ></text>
</g>
<g >
<title>Parloop_Cells_wrap_form1_cell_integral_otherwise (3,986,474 us, 0.97%)</title><rect x="1174.4" y="135" width="11.5" height="15.0" fill="rgb(0,0,0)" rx="2" ry="2" />
<text  x="1177.38" y="145.5" ></text>
</g>
<g >
<title>Log_Event_mtf_solve_158 (46,843 us, 0.01%)</title><rect x="112.8" y="215" width="0.1" height="15.0" fill="rgb(0,0,0)" rx="2" ry="2" />
<text  x="115.75" y="225.5" ></text>
</g>
<g >
<title>Log_Event_subkernel157_interior_facet_vert_to__exterior_facet_vert_integral_otherwise (65,927 us, 0.02%)</title><rect x="113.9" y="215" width="0.2" height="15.0" fill="rgb(0,0,0)" rx="2" ry="2" />
<text  x="116.95" y="225.5" ></text>
</g>
<g >
<title>pyop2.global_kernel.GlobalKernel.compile (3,374,085 us, 0.83%)</title><rect x="36.2" y="183" width="9.7" height="15.0" fill="rgb(0,0,0)" rx="2" ry="2" />
<text  x="39.18" y="193.5" ></text>
</g>
<g >
<title>Log_Event_subkernel13_cell_to__cell_integral_otherwise (49,682 us, 0.01%)</title><rect x="367.1" y="231" width="0.2" height="15.0" fill="rgb(0,0,0)" rx="2" ry="2" />
<text  x="370.13" y="241.5" ></text>
</g>
<g >
<title>Parloop_Cells_wrap_form0_cell_integral_otherwise (5,731,936 us, 1.40%)</title><rect x="19.6" y="167" width="16.6" height="15.0" fill="rgb(0,0,0)" rx="2" ry="2" />
<text  x="22.64" y="177.5" ></text>
</g>
<g >
<title>Log_Event_mtf_solve_202 (44,421 us, 0.01%)</title><rect x="55.6" y="199" width="0.1" height="15.0" fill="rgb(0,0,0)" rx="2" ry="2" />
<text  x="58.56" y="209.5" ></text>
</g>
<g >
<title>Log_Event_subkernel91_cell_to__cell_integral_otherwise (48,357 us, 0.01%)</title><rect x="780.6" y="263" width="0.1" height="15.0" fill="rgb(0,0,0)" rx="2" ry="2" />
<text  x="783.57" y="273.5" ></text>
</g>
<g >
<title>Log_Event_slate_loopy_knl_77 (1,243,420 us, 0.30%)</title><rect x="778.4" y="231" width="3.6" height="15.0" fill="rgb(0,0,0)" rx="2" ry="2" />
<text  x="781.41" y="241.5" ></text>
</g>
<g >
<title>Parloop_Cells_wrap_par_loop_kernel (889,960 us, 0.22%)</title><rect x="52.8" y="199" width="2.6" height="15.0" fill="rgb(0,0,0)" rx="2" ry="2" />
<text  x="55.81" y="209.5" ></text>
</g>
<g >
<title>Log_Event_subkernel185_interior_facet_vert_to__exterior_facet_vert_integral_otherwise (51,748 us, 0.01%)</title><rect x="113.3" y="231" width="0.1" height="15.0" fill="rgb(0,0,0)" rx="2" ry="2" />
<text  x="116.28" y="241.5" ></text>
</g>
<g >
<title>Parloop_Cells_wrap_form1_cell_integral_otherwise (3,374,085 us, 0.83%)</title><rect x="36.2" y="167" width="9.7" height="15.0" fill="rgb(0,0,0)" rx="2" ry="2" />
<text  x="39.18" y="177.5" ></text>
</g>
<g >
<title>ParLoopExecute (8,595,443 us, 2.10%)</title><rect x="1161.1" y="119" width="24.8" height="15.0" fill="rgb(0,0,0)" rx="2" ry="2" />
<text  x="1164.07" y="129.5" >P..</text>
</g>
<g >
<title>Log_Event_subkernel53_interior_facet_vert_to__exterior_facet_vert_integral_otherwise (51,234 us, 0.01%)</title><rect x="368.5" y="231" width="0.1" height="15.0" fill="rgb(0,0,0)" rx="2" ry="2" />
<text  x="371.48" y="241.5" ></text>
</g>
<g >
<title>Log_Event_tensorshell_knl_14 (90,197 us, 0.02%)</title><rect x="367.4" y="231" width="0.3" height="15.0" fill="rgb(0,0,0)" rx="2" ry="2" />
<text  x="370.42" y="241.5" ></text>
</g>
<g >
<title>Log_Event_subkernel33_interior_facet_vert_to__exterior_facet_vert_integral_otherwise (57,659 us, 0.01%)</title><rect x="369.3" y="215" width="0.1" height="15.0" fill="rgb(0,0,0)" rx="2" ry="2" />
<text  x="372.28" y="225.5" ></text>
</g>
<g >
<title>Log_Event_subkernel185_cell_to__cell_integral_otherwise (45,935 us, 0.01%)</title><rect x="113.1" y="231" width="0.2" height="15.0" fill="rgb(0,0,0)" rx="2" ry="2" />
<text  x="116.14" y="241.5" ></text>
</g>
<g >
<title>firedrake.tsfc_interface.compile_form (1,231,367 us, 0.30%)</title><rect x="45.9" y="151" width="3.6" height="15.0" fill="rgb(0,0,0)" rx="2" ry="2" />
<text  x="48.92" y="161.5" ></text>
</g>
<g >
<title>Parloop_Cells_wrap_slate_loopy_knl_199 (11,145,435 us, 2.73%)</title><rect x="55.4" y="167" width="32.1" height="15.0" fill="rgb(0,0,0)" rx="2" ry="2" />
<text  x="58.37" y="177.5" >Pa..</text>
</g>
<g >
<title>firedrake.matrix_free.operators.ImplicitMatrixContext.mult (148,486,158 us, 36.31%)</title><rect x="730.4" y="183" width="428.6" height="15.0" fill="rgb(0,0,0)" rx="2" ry="2" />
<text  x="733.45" y="193.5" >firedrake.matrix_free.operators.ImplicitMatrixContext..</text>
</g>
<g >
<title>HybridInit (734,405 us, 0.18%)</title><rect x="1159.0" y="119" width="2.1" height="15.0" fill="rgb(0,0,0)" rx="2" ry="2" />
<text  x="1161.96" y="129.5" ></text>
</g>
<g >
<title>Log_Event_slate_loopy_knl_0 (1,170,423 us, 0.29%)</title><rect x="366.4" y="199" width="3.4" height="15.0" fill="rgb(0,0,0)" rx="2" ry="2" />
<text  x="369.40" y="209.5" ></text>
</g>
<g >
<title>ParLoopExecute (871,539 us, 0.21%)</title><rect x="12.7" y="103" width="2.5" height="15.0" fill="rgb(0,0,0)" rx="2" ry="2" />
<text  x="15.71" y="113.5" ></text>
</g>
<g >
<title>Log_Event_subkernel132_interior_facet_vert_to__exterior_facet_vert_integral_otherwise (51,698 us, 0.01%)</title><rect x="779.6" y="263" width="0.2" height="15.0" fill="rgb(0,0,0)" rx="2" ry="2" />
<text  x="782.64" y="273.5" ></text>
</g>
<g >
<title>MatMult (148,486,158 us, 36.31%)</title><rect x="730.4" y="167" width="428.6" height="15.0" fill="rgb(0,0,0)" rx="2" ry="2" />
<text  x="733.45" y="177.5" >MatMult</text>
</g>
<g >
<title>SCSolve (148,486,158 us, 36.31%)</title><rect x="730.4" y="135" width="428.6" height="15.0" fill="rgb(0,0,0)" rx="2" ry="2" />
<text  x="733.45" y="145.5" >SCSolve</text>
</g>
<g >
<title>Log_Event_subkernel91_interior_facet_vert_to__exterior_facet_vert_integral_otherwise (51,574 us, 0.01%)</title><rect x="780.7" y="263" width="0.2" height="15.0" fill="rgb(0,0,0)" rx="2" ry="2" />
<text  x="783.71" y="273.5" ></text>
</g>
<g >
<title>Log_Event_tensorshell_knl_54 (90,023 us, 0.02%)</title><rect x="368.9" y="231" width="0.2" height="15.0" fill="rgb(0,0,0)" rx="2" ry="2" />
<text  x="371.89" y="241.5" ></text>
</g>
<g >
<title>firedrake.tsfc_interface.compile_form (2,565,631 us, 0.63%)</title><rect x="309.5" y="151" width="7.4" height="15.0" fill="rgb(0,0,0)" rx="2" ry="2" />
<text  x="312.53" y="161.5" ></text>
</g>
<g >
<title>HybridProject (889,960 us, 0.22%)</title><rect x="52.8" y="151" width="2.6" height="15.0" fill="rgb(0,0,0)" rx="2" ry="2" />
<text  x="55.81" y="161.5" ></text>
</g>
<g >
<title>Log_Event_mtf_solve_176 (46,995 us, 0.01%)</title><rect x="113.6" y="247" width="0.1" height="15.0" fill="rgb(0,0,0)" rx="2" ry="2" />
<text  x="116.55" y="257.5" ></text>
</g>
<g >
<title>pyop2.global_kernel.GlobalKernel.compile (50,659,852 us, 12.39%)</title><rect x="114.1" y="199" width="146.2" height="15.0" fill="rgb(0,0,0)" rx="2" ry="2" />
<text  x="117.14" y="209.5" >pyop2.global_kern..</text>
</g>
<g >
<title>Log_Event_mtf_solve_166 (45,445 us, 0.01%)</title><rect x="112.9" y="215" width="0.1" height="15.0" fill="rgb(0,0,0)" rx="2" ry="2" />
<text  x="115.89" y="225.5" ></text>
</g>
<g >
<title>pyop2.global_kernel.GlobalKernel.compile (3,986,474 us, 0.97%)</title><rect x="1174.4" y="151" width="11.5" height="15.0" fill="rgb(0,0,0)" rx="2" ry="2" />
<text  x="1177.38" y="161.5" ></text>
</g>
<g >
<title>pyop2.global_kernel.GlobalKernel.compile (889,960 us, 0.22%)</title><rect x="52.8" y="215" width="2.6" height="15.0" fill="rgb(0,0,0)" rx="2" ry="2" />
<text  x="55.81" y="225.5" ></text>
</g>
<g >
<title>Parloop_Cells_wrap_slate_loopy_knl_156 (51,365,549 us, 12.56%)</title><rect x="112.1" y="183" width="148.2" height="15.0" fill="rgb(0,0,0)" rx="2" ry="2" />
<text  x="115.10" y="193.5" >Parloop_Cells_wra..</text>
</g>
<g >
<title>Log_Event_slate_loopy_knl_199 (176,569 us, 0.04%)</title><rect x="55.4" y="183" width="0.5" height="15.0" fill="rgb(0,0,0)" rx="2" ry="2" />
<text  x="58.37" y="193.5" ></text>
</g>
<g >
<title>Log_Event_subkernel13_interior_facet_vert_to__exterior_facet_vert_integral_otherwise (51,331 us, 0.01%)</title><rect x="367.3" y="231" width="0.1" height="15.0" fill="rgb(0,0,0)" rx="2" ry="2" />
<text  x="370.27" y="241.5" ></text>
</g>
<g >
<title>ParLoopExecute (9,106,021 us, 2.23%)</title><rect x="19.6" y="151" width="26.3" height="15.0" fill="rgb(0,0,0)" rx="2" ry="2" />
<text  x="22.64" y="161.5" >P..</text>
</g>
<g >
<title>Log_Event_mtf_solve_41 (325,244 us, 0.08%)</title><rect x="368.2" y="215" width="0.9" height="15.0" fill="rgb(0,0,0)" rx="2" ry="2" />
<text  x="371.21" y="225.5" ></text>
</g>
<g >
<title>Log_Event_slate_loopy_knl_156 (565,651 us, 0.14%)</title><rect x="112.5" y="199" width="1.6" height="15.0" fill="rgb(0,0,0)" rx="2" ry="2" />
<text  x="115.50" y="209.5" ></text>
</g>
<g >
<title>Log_Event_mtf_solve_135 (46,645 us, 0.01%)</title><rect x="780.2" y="279" width="0.1" height="15.0" fill="rgb(0,0,0)" rx="2" ry="2" />
<text  x="783.18" y="289.5" ></text>
</g>
<g >
<title>SNESSolve (405,554,689 us, 99.18%)</title><rect x="19.6" y="87" width="1170.4" height="15.0" fill="rgb(0,0,0)" rx="2" ry="2" />
<text  x="22.64" y="97.5" >SNESSolve</text>
</g>
<g >
<title>pyop2.global_kernel.GlobalKernel.compile (10,968,866 us, 2.68%)</title><rect x="55.9" y="183" width="31.6" height="15.0" fill="rgb(0,0,0)" rx="2" ry="2" />
<text  x="58.88" y="193.5" >py..</text>
</g>
<g >
<title>Log_Event_mtf_solve_1 (327,045 us, 0.08%)</title><rect x="367.0" y="215" width="0.9" height="15.0" fill="rgb(0,0,0)" rx="2" ry="2" />
<text  x="370.00" y="225.5" ></text>
</g>
<g >
<title>ParLoopExecute (889,960 us, 0.22%)</title><rect x="52.8" y="183" width="2.6" height="15.0" fill="rgb(0,0,0)" rx="2" ry="2" />
<text  x="55.81" y="193.5" ></text>
</g>
<g >
<title>Log_Event_mtf_solve_146 (47,350 us, 0.01%)</title><rect x="780.3" y="247" width="0.2" height="15.0" fill="rgb(0,0,0)" rx="2" ry="2" />
<text  x="783.31" y="257.5" ></text>
</g>
<g >
<title>MatMult (10,337,388 us, 2.53%)</title><rect x="19.6" y="119" width="29.9" height="15.0" fill="rgb(0,0,0)" rx="2" ry="2" />
<text  x="22.64" y="129.5" >M..</text>
</g>
<g >
<title>Log_Event_tensorshell_knl_121 (90,548 us, 0.02%)</title><rect x="779.8" y="263" width="0.3" height="15.0" fill="rgb(0,0,0)" rx="2" ry="2" />
<text  x="782.79" y="273.5" ></text>
</g>
<g >
<title>Parloop_Cells_wrap_par_loop_kernel (875,398 us, 0.21%)</title><rect x="316.9" y="199" width="2.6" height="15.0" fill="rgb(0,0,0)" rx="2" ry="2" />
<text  x="319.94" y="209.5" ></text>
</g>
<g >
<title>Parloop_Cells_wrap_slate_loopy_knl_77 (103,137,571 us, 25.22%)</title><rect x="778.0" y="215" width="297.6" height="15.0" fill="rgb(0,0,0)" rx="2" ry="2" />
<text  x="781.01" y="225.5" >Parloop_Cells_wrap_slate_loopy_knl_77</text>
</g>
<g >
<title>CreateExtMesh (871,539 us, 0.21%)</title><rect x="12.7" y="71" width="2.5" height="15.0" fill="rgb(0,0,0)" rx="2" ry="2" />
<text  x="15.71" y="81.5" ></text>
</g>
<g >
<title>firedrake.tsfc_interface.compile_form (28,869,107 us, 7.06%)</title><rect x="1075.6" y="199" width="83.4" height="15.0" fill="rgb(0,0,0)" rx="2" ry="2" />
<text  x="1078.64" y="209.5" >firedrak..</text>
</g>
<g >
<title>ParLoopExecute (656,899 us, 0.16%)</title><rect x="1159.2" y="151" width="1.9" height="15.0" fill="rgb(0,0,0)" rx="2" ry="2" />
<text  x="1162.18" y="161.5" ></text>
</g>
<g >
<title>Parloop_Cells_wrap_form0_cell_integral_otherwise (4,608,969 us, 1.13%)</title><rect x="1161.1" y="135" width="13.3" height="15.0" fill="rgb(0,0,0)" rx="2" ry="2" />
<text  x="1164.07" y="145.5" ></text>
</g>
<g >
<title>firedrake (408,894,691 us, 100.00%)</title><rect x="10.0" y="55" width="1180.0" height="15.0" fill="rgb(0,0,0)" rx="2" ry="2" />
<text  x="13.00" y="65.5" >firedrake</text>
</g>
<g >
<title>firedrake.parloops.par_loop (889,960 us, 0.22%)</title><rect x="52.8" y="167" width="2.6" height="15.0" fill="rgb(0,0,0)" rx="2" ry="2" />
<text  x="55.81" y="177.5" ></text>
</g>
<g >
<title>PCSetUp (734,405 us, 0.18%)</title><rect x="1159.0" y="103" width="2.1" height="15.0" fill="rgb(0,0,0)" rx="2" ry="2" />
<text  x="1161.96" y="113.5" ></text>
</g>
<g >
<title>SCBackSub (92,682,324 us, 22.67%)</title><rect x="49.5" y="135" width="267.4" height="15.0" fill="rgb(0,0,0)" rx="2" ry="2" />
<text  x="52.47" y="145.5" >SCBackSub</text>
</g>
<g >
<title>Log_Event_subkernel200_interior_facet_vert_to__exterior_facet_vert_integral_otherwise (66,252 us, 0.02%)</title><rect x="55.7" y="199" width="0.2" height="15.0" fill="rgb(0,0,0)" rx="2" ry="2" />
<text  x="58.69" y="209.5" ></text>
</g>
<g >
<title>Log_Event_tensorshell_knl_174 (90,563 us, 0.02%)</title><rect x="113.4" y="231" width="0.3" height="15.0" fill="rgb(0,0,0)" rx="2" ry="2" />
<text  x="116.42" y="241.5" ></text>
</g>
<g >
<title>KSPSolve (148,486,158 us, 36.31%)</title><rect x="730.4" y="151" width="428.6" height="15.0" fill="rgb(0,0,0)" rx="2" ry="2" />
<text  x="733.45" y="161.5" >KSPSolve</text>
</g>
<g >
<title>Log_Event_subkernel153_interior_facet_vert_to__exterior_facet_vert_integral_otherwise (57,864 us, 0.01%)</title><rect x="781.8" y="247" width="0.2" height="15.0" fill="rgb(0,0,0)" rx="2" ry="2" />
<text  x="784.84" y="257.5" ></text>
</g>
<g >
<title>Log_Event_tensorshell_knl_133 (90,051 us, 0.02%)</title><rect x="780.1" y="263" width="0.2" height="15.0" fill="rgb(0,0,0)" rx="2" ry="2" />
<text  x="783.05" y="273.5" ></text>
</g>
<g >
<title>firedrake.parloops.par_loop (875,398 us, 0.21%)</title><rect x="316.9" y="167" width="2.6" height="15.0" fill="rgb(0,0,0)" rx="2" ry="2" />
<text  x="319.94" y="177.5" ></text>
</g>
<g >
<title>Log_Event_mtf_solve_173 (322,271 us, 0.08%)</title><rect x="113.0" y="215" width="0.9" height="15.0" fill="rgb(0,0,0)" rx="2" ry="2" />
<text  x="116.02" y="225.5" ></text>
</g>
<g >
<title>Log_Event_tensorshell_knl_42 (89,725 us, 0.02%)</title><rect x="368.6" y="231" width="0.3" height="15.0" fill="rgb(0,0,0)" rx="2" ry="2" />
<text  x="371.63" y="241.5" ></text>
</g>
<g >
<title>pyop2.global_kernel.GlobalKernel.compile (875,398 us, 0.21%)</title><rect x="316.9" y="215" width="2.6" height="15.0" fill="rgb(0,0,0)" rx="2" ry="2" />
<text  x="319.94" y="225.5" ></text>
</g>
<g >
<title>Log_Event_mtf_solve_56 (46,196 us, 0.01%)</title><rect x="369.0" y="247" width="0.1" height="15.0" fill="rgb(0,0,0)" rx="2" ry="2" />
<text  x="372.01" y="257.5" ></text>
</g>
<g >
<title>SCForwardElim (143,291,089 us, 35.04%)</title><rect x="316.9" y="135" width="413.5" height="15.0" fill="rgb(0,0,0)" rx="2" ry="2" />
<text  x="319.94" y="145.5" >SCForwardElim</text>
</g>
<g >
<title>pyop2.global_kernel.GlobalKernel.compile (656,899 us, 0.16%)</title><rect x="1159.2" y="183" width="1.9" height="15.0" fill="rgb(0,0,0)" rx="2" ry="2" />
<text  x="1162.18" y="193.5" ></text>
</g>
<g >
<title>ParLoopExecute (875,398 us, 0.21%)</title><rect x="316.9" y="183" width="2.6" height="15.0" fill="rgb(0,0,0)" rx="2" ry="2" />
<text  x="319.94" y="193.5" ></text>
</g>
<g >
<title>Log_Event_mtf_solve_34 (46,025 us, 0.01%)</title><rect x="368.1" y="215" width="0.1" height="15.0" fill="rgb(0,0,0)" rx="2" ry="2" />
<text  x="371.07" y="225.5" ></text>
</g>
<g >
<title>Log_Event_subkernel112_interior_facet_vert_to__exterior_facet_vert_integral_otherwise (66,139 us, 0.02%)</title><rect x="781.5" y="247" width="0.2" height="15.0" fill="rgb(0,0,0)" rx="2" ry="2" />
<text  x="784.48" y="257.5" ></text>
</g>
<g >
<title>Log_Event_subkernel74_interior_facet_vert_to__exterior_facet_vert_integral_otherwise (57,780 us, 0.01%)</title><rect x="369.6" y="215" width="0.2" height="15.0" fill="rgb(0,0,0)" rx="2" ry="2" />
<text  x="372.61" y="225.5" ></text>
</g>
<g >
<title>Log_Event_mtf_solve_4 (46,966 us, 0.01%)</title><rect x="367.8" y="247" width="0.1" height="15.0" fill="rgb(0,0,0)" rx="2" ry="2" />
<text  x="370.81" y="257.5" ></text>
</g>
<g >
<title>ParLoopExecute (99,171,032 us, 24.25%)</title><rect x="366.0" y="167" width="286.2" height="15.0" fill="rgb(0,0,0)" rx="2" ry="2" />
<text  x="368.99" y="177.5" >ParLoopExecute</text>
</g>
<g >
<title>PCApply (384,459,571 us, 94.02%)</title><rect x="49.5" y="119" width="1109.5" height="15.0" fill="rgb(0,0,0)" rx="2" ry="2" />
<text  x="52.47" y="129.5" >PCApply</text>
</g>
<g >
<title>Log_Event_mtf_solve_188 (47,126 us, 0.01%)</title><rect x="113.8" y="247" width="0.1" height="15.0" fill="rgb(0,0,0)" rx="2" ry="2" />
<text  x="116.81" y="257.5" ></text>
</g>
<g >
<title>firedrake.tsfc_interface.compile_form (1,427,882 us, 0.35%)</title><rect x="1185.9" y="119" width="4.1" height="15.0" fill="rgb(0,0,0)" rx="2" ry="2" />
<text  x="1188.88" y="129.5" ></text>
</g>
<g >
<title>pyop2.global_kernel.GlobalKernel.compile (97,856,985 us, 23.93%)</title><rect x="369.8" y="199" width="282.4" height="15.0" fill="rgb(0,0,0)" rx="2" ry="2" />
<text  x="372.78" y="209.5" >pyop2.global_kernel.GlobalKernel.c..</text>
</g>
<g >
<title>ParLoopExecute (11,145,435 us, 2.73%)</title><rect x="55.4" y="151" width="32.1" height="15.0" fill="rgb(0,0,0)" rx="2" ry="2" />
<text  x="58.37" y="161.5" >Pa..</text>
</g>
<g >
<title>Log_Event_mtf_solve_27 (46,570 us, 0.01%)</title><rect x="367.9" y="215" width="0.2" height="15.0" fill="rgb(0,0,0)" rx="2" ry="2" />
<text  x="370.94" y="225.5" ></text>
</g>
<g >
<title>Log_Event_tensorshell_knl_186 (90,182 us, 0.02%)</title><rect x="113.7" y="231" width="0.2" height="15.0" fill="rgb(0,0,0)" rx="2" ry="2" />
<text  x="116.69" y="241.5" ></text>
</g>
<g >
<title>firedrake.extrusion_utils.make_extruded_coords (871,539 us, 0.21%)</title><rect x="12.7" y="87" width="2.5" height="15.0" fill="rgb(0,0,0)" rx="2" ry="2" />
<text  x="15.71" y="97.5" ></text>
</g>
<g >
<title>firedrake.tsfc_interface.compile_form (17,048,652 us, 4.17%)</title><rect x="260.3" y="167" width="49.2" height="15.0" fill="rgb(0,0,0)" rx="2" ry="2" />
<text  x="263.33" y="177.5" >fire..</text>
</g>
<g >
<title>KSPSolve (394,796,959 us, 96.55%)</title><rect x="19.6" y="103" width="1139.4" height="15.0" fill="rgb(0,0,0)" rx="2" ry="2" />
<text  x="22.64" y="113.5" >KSPSolve</text>
</g>
<g >
<title>Log_Event_subkernel73_interior_facet_vert_to__exterior_facet_vert_integral_otherwise (57,375 us, 0.01%)</title><rect x="369.4" y="215" width="0.2" height="15.0" fill="rgb(0,0,0)" rx="2" ry="2" />
<text  x="372.45" y="225.5" ></text>
</g>
<g >
<title>Log_Event_tensorshell_knl_80 (77,017 us, 0.02%)</title><rect x="780.9" y="263" width="0.2" height="15.0" fill="rgb(0,0,0)" rx="2" ry="2" />
<text  x="783.86" y="273.5" ></text>
</g>
<g >
<title>Log_Event_mtf_solve_67 (46,037 us, 0.01%)</title><rect x="369.1" y="215" width="0.2" height="15.0" fill="rgb(0,0,0)" rx="2" ry="2" />
<text  x="372.15" y="225.5" ></text>
</g>
<g >
<title>firedrake.__init__ (1,529,864 us, 0.37%)</title><rect x="15.2" y="71" width="4.4" height="15.0" fill="rgb(0,0,0)" rx="2" ry="2" />
<text  x="18.22" y="81.5" ></text>
</g>
<g >
<title>Parloop_Cells_wrap_par_loop_kernel (656,899 us, 0.16%)</title><rect x="1159.2" y="167" width="1.9" height="15.0" fill="rgb(0,0,0)" rx="2" ry="2" />
<text  x="1162.18" y="177.5" ></text>
</g>
<g >
<title>ParLoopExecute (51,365,549 us, 12.56%)</title><rect x="112.1" y="167" width="148.2" height="15.0" fill="rgb(0,0,0)" rx="2" ry="2" />
<text  x="115.10" y="177.5" >ParLoopExecute</text>
</g>
<g >
<title>Log_Event_tensorshell_knl_92 (77,117 us, 0.02%)</title><rect x="781.1" y="263" width="0.2" height="15.0" fill="rgb(0,0,0)" rx="2" ry="2" />
<text  x="784.09" y="273.5" ></text>
</g>
<g >
<title>Log_Event_subkernel111_interior_facet_vert_to__exterior_facet_vert_integral_otherwise (58,652 us, 0.01%)</title><rect x="781.3" y="247" width="0.2" height="15.0" fill="rgb(0,0,0)" rx="2" ry="2" />
<text  x="784.31" y="257.5" ></text>
</g>
<g >
<title>Parloop_Cells_wrap_pyop2_kernel_uniform_extrusion (871,539 us, 0.21%)</title><rect x="12.7" y="119" width="2.5" height="15.0" fill="rgb(0,0,0)" rx="2" ry="2" />
<text  x="15.71" y="129.5" ></text>
</g>
<g >
<title>Parloop_Cells_wrap_slate_loopy_knl_0 (99,171,032 us, 24.25%)</title><rect x="366.0" y="183" width="286.2" height="15.0" fill="rgb(0,0,0)" rx="2" ry="2" />
<text  x="368.99" y="193.5" >Parloop_Cells_wrap_slate_loopy_knl_0</text>
</g>
<g >
<title>ParLoopExecute (103,137,571 us, 25.22%)</title><rect x="778.0" y="199" width="297.6" height="15.0" fill="rgb(0,0,0)" rx="2" ry="2" />
<text  x="781.01" y="209.5" >ParLoopExecute</text>
</g>
<g >
<title>HybridRHS (142,415,691 us, 34.83%)</title><rect x="319.5" y="151" width="410.9" height="15.0" fill="rgb(0,0,0)" rx="2" ry="2" />
<text  x="322.46" y="161.5" >HybridRHS</text>
</g>
</g>
</svg>
