<?xml version="1.0" standalone="no"?>
<!DOCTYPE svg PUBLIC "-//W3C//DTD SVG 1.1//EN" "http://www.w3.org/Graphics/SVG/1.1/DTD/svg11.dtd">
<svg version="1.1" width="1200" height="427" onload="init(evt)" viewBox="0 0 1200 427" xmlns="http://www.w3.org/2000/svg" xmlns:xlink="http://www.w3.org/1999/xlink">
<!-- Flame graph stack visualization. See https://github.com/brendangregg/FlameGraph for latest version, and http://www.brendangregg.com/flamegraphs.html for examples. -->
<!-- NOTES:  -->
<defs>
	<linearGradient id="background" y1="0" y2="1" x1="0" x2="0" >
		<stop stop-color="#eeeeee" offset="5%" />
		<stop stop-color="#eeeeb0" offset="95%" />
	</linearGradient>
</defs>
<style type="text/css">
	text { font-family:Verdana; font-size:13px; fill:rgb(0,0,0); }
	#search, #ignorecase { opacity:0.1; cursor:pointer; }
	#search:hover, #search.show, #ignorecase:hover, #ignorecase.show { opacity:1; }
	#subtitle { text-anchor:middle; font-color:rgb(160,160,160); }
	#title { text-anchor:middle; font-size:18px}
	#unzoom { cursor:pointer; }
	#frames > *:hover { stroke:black; stroke-width:0.5; cursor:pointer; }
	.hide { display:none; }
	.parent { opacity:0.5; }
</style>
<script type="text/ecmascript">
<![CDATA[
	"use strict";
	var details, searchbtn, unzoombtn, matchedtxt, svg, searching, currentSearchTerm, ignorecase, ignorecaseBtn;
	function init(evt) {
		details = document.getElementById("details").firstChild;
		searchbtn = document.getElementById("search");
		ignorecaseBtn = document.getElementById("ignorecase");
		unzoombtn = document.getElementById("unzoom");
		matchedtxt = document.getElementById("matched");
		svg = document.getElementsByTagName("svg")[0];
		searching = 0;
		currentSearchTerm = null;

		// use GET parameters to restore a flamegraphs state.
		var params = get_params();
		if (params.x && params.y)
			zoom(find_group(document.querySelector('[x="' + params.x + '"][y="' + params.y + '"]')));
                if (params.s) search(params.s);
	}

	// event listeners
	window.addEventListener("click", function(e) {
		var target = find_group(e.target);
		if (target) {
			if (target.nodeName == "a") {
				if (e.ctrlKey === false) return;
				e.preventDefault();
			}
			if (target.classList.contains("parent")) unzoom();
			zoom(target);
			if (!document.querySelector('.parent')) {
				clearzoom();
				return;
			}

			// set parameters for zoom state
			var el = target.querySelector("rect");
			if (el && el.attributes && el.attributes.y && el.attributes._orig_x) {
				var params = get_params()
				params.x = el.attributes._orig_x.value;
				params.y = el.attributes.y.value;
				history.replaceState(null, null, parse_params(params));
			}
		}
		else if (e.target.id == "unzoom") clearzoom();
		else if (e.target.id == "search") search_prompt();
		else if (e.target.id == "ignorecase") toggle_ignorecase();
	}, false)

	// mouse-over for info
	// show
	window.addEventListener("mouseover", function(e) {
		var target = find_group(e.target);
		if (target) details.nodeValue = "Function: " + g_to_text(target);
	}, false)

	// clear
	window.addEventListener("mouseout", function(e) {
		var target = find_group(e.target);
		if (target) details.nodeValue = ' ';
	}, false)

	// ctrl-F for search
	// ctrl-I to toggle case-sensitive search
	window.addEventListener("keydown",function (e) {
		if (e.keyCode === 114 || (e.ctrlKey && e.keyCode === 70)) {
			e.preventDefault();
			search_prompt();
		}
		else if (e.ctrlKey && e.keyCode === 73) {
			e.preventDefault();
			toggle_ignorecase();
		}
	}, false)

	// functions
	function get_params() {
		var params = {};
		var paramsarr = window.location.search.substr(1).split('&');
		for (var i = 0; i < paramsarr.length; ++i) {
			var tmp = paramsarr[i].split("=");
			if (!tmp[0] || !tmp[1]) continue;
			params[tmp[0]]  = decodeURIComponent(tmp[1]);
		}
		return params;
	}
	function parse_params(params) {
		var uri = "?";
		for (var key in params) {
			uri += key + '=' + encodeURIComponent(params[key]) + '&';
		}
		if (uri.slice(-1) == "&")
			uri = uri.substring(0, uri.length - 1);
		if (uri == '?')
			uri = window.location.href.split('?')[0];
		return uri;
	}
	function find_child(node, selector) {
		var children = node.querySelectorAll(selector);
		if (children.length) return children[0];
	}
	function find_group(node) {
		var parent = node.parentElement;
		if (!parent) return;
		if (parent.id == "frames") return node;
		return find_group(parent);
	}
	function orig_save(e, attr, val) {
		if (e.attributes["_orig_" + attr] != undefined) return;
		if (e.attributes[attr] == undefined) return;
		if (val == undefined) val = e.attributes[attr].value;
		e.setAttribute("_orig_" + attr, val);
	}
	function orig_load(e, attr) {
		if (e.attributes["_orig_"+attr] == undefined) return;
		e.attributes[attr].value = e.attributes["_orig_" + attr].value;
		e.removeAttribute("_orig_"+attr);
	}
	function g_to_text(e) {
		var text = find_child(e, "title").firstChild.nodeValue;
		return (text)
	}
	function g_to_func(e) {
		var func = g_to_text(e);
		// if there's any manipulation we want to do to the function
		// name before it's searched, do it here before returning.
		return (func);
	}
	function update_text(e) {
		var r = find_child(e, "rect");
		var t = find_child(e, "text");
		var w = parseFloat(r.attributes.width.value) -3;
		var txt = find_child(e, "title").textContent.replace(/\([^(]*\)$/,"");
		t.attributes.x.value = parseFloat(r.attributes.x.value) + 3;

		// Smaller than this size won't fit anything
		if (w < 2 * 13 * 0.59) {
			t.textContent = "";
			return;
		}

		t.textContent = txt;
		// Fit in full text width
		if (/^ *$/.test(txt) || t.getSubStringLength(0, txt.length) < w)
			return;

		for (var x = txt.length - 2; x > 0; x--) {
			if (t.getSubStringLength(0, x + 2) <= w) {
				t.textContent = txt.substring(0, x) + "..";
				return;
			}
		}
		t.textContent = "";
	}

	// zoom
	function zoom_reset(e) {
		if (e.attributes != undefined) {
			orig_load(e, "x");
			orig_load(e, "width");
		}
		if (e.childNodes == undefined) return;
		for (var i = 0, c = e.childNodes; i < c.length; i++) {
			zoom_reset(c[i]);
		}
	}
	function zoom_child(e, x, ratio) {
		if (e.attributes != undefined) {
			if (e.attributes.x != undefined) {
				orig_save(e, "x");
				e.attributes.x.value = (parseFloat(e.attributes.x.value) - x - 10) * ratio + 10;
				if (e.tagName == "text")
					e.attributes.x.value = find_child(e.parentNode, "rect[x]").attributes.x.value + 3;
			}
			if (e.attributes.width != undefined) {
				orig_save(e, "width");
				e.attributes.width.value = parseFloat(e.attributes.width.value) * ratio;
			}
		}

		if (e.childNodes == undefined) return;
		for (var i = 0, c = e.childNodes; i < c.length; i++) {
			zoom_child(c[i], x - 10, ratio);
		}
	}
	function zoom_parent(e) {
		if (e.attributes) {
			if (e.attributes.x != undefined) {
				orig_save(e, "x");
				e.attributes.x.value = 10;
			}
			if (e.attributes.width != undefined) {
				orig_save(e, "width");
				e.attributes.width.value = parseInt(svg.width.baseVal.value) - (10 * 2);
			}
		}
		if (e.childNodes == undefined) return;
		for (var i = 0, c = e.childNodes; i < c.length; i++) {
			zoom_parent(c[i]);
		}
	}
	function zoom(node) {
		var attr = find_child(node, "rect").attributes;
		var width = parseFloat(attr.width.value);
		var xmin = parseFloat(attr.x.value);
		var xmax = parseFloat(xmin + width);
		var ymin = parseFloat(attr.y.value);
		var ratio = (svg.width.baseVal.value - 2 * 10) / width;

		// XXX: Workaround for JavaScript float issues (fix me)
		var fudge = 0.0001;

		unzoombtn.classList.remove("hide");

		var el = document.getElementById("frames").children;
		for (var i = 0; i < el.length; i++) {
			var e = el[i];
			var a = find_child(e, "rect").attributes;
			var ex = parseFloat(a.x.value);
			var ew = parseFloat(a.width.value);
			var upstack;
			// Is it an ancestor
			if (1 == 0) {
				upstack = parseFloat(a.y.value) > ymin;
			} else {
				upstack = parseFloat(a.y.value) < ymin;
			}
			if (upstack) {
				// Direct ancestor
				if (ex <= xmin && (ex+ew+fudge) >= xmax) {
					e.classList.add("parent");
					zoom_parent(e);
					update_text(e);
				}
				// not in current path
				else
					e.classList.add("hide");
			}
			// Children maybe
			else {
				// no common path
				if (ex < xmin || ex + fudge >= xmax) {
					e.classList.add("hide");
				}
				else {
					zoom_child(e, xmin, ratio);
					update_text(e);
				}
			}
		}
		search();
	}
	function unzoom() {
		unzoombtn.classList.add("hide");
		var el = document.getElementById("frames").children;
		for(var i = 0; i < el.length; i++) {
			el[i].classList.remove("parent");
			el[i].classList.remove("hide");
			zoom_reset(el[i]);
			update_text(el[i]);
		}
		search();
	}
	function clearzoom() {
		unzoom();

		// remove zoom state
		var params = get_params();
		if (params.x) delete params.x;
		if (params.y) delete params.y;
		history.replaceState(null, null, parse_params(params));
	}

	// search
	function toggle_ignorecase() {
		ignorecase = !ignorecase;
		if (ignorecase) {
			ignorecaseBtn.classList.add("show");
		} else {
			ignorecaseBtn.classList.remove("show");
		}
		reset_search();
		search();
	}
	function reset_search() {
		var el = document.querySelectorAll("#frames rect");
		for (var i = 0; i < el.length; i++) {
			orig_load(el[i], "fill")
		}
		var params = get_params();
		delete params.s;
		history.replaceState(null, null, parse_params(params));
	}
	function search_prompt() {
		if (!searching) {
			var term = prompt("Enter a search term (regexp " +
			    "allowed, eg: ^ext4_)"
			    + (ignorecase ? ", ignoring case" : "")
			    + "\nPress Ctrl-i to toggle case sensitivity", "");
			if (term != null) search(term);
		} else {
			reset_search();
			searching = 0;
			currentSearchTerm = null;
			searchbtn.classList.remove("show");
			searchbtn.firstChild.nodeValue = "Search"
			matchedtxt.classList.add("hide");
			matchedtxt.firstChild.nodeValue = ""
		}
	}
	function search(term) {
		if (term) currentSearchTerm = term;

		var re = new RegExp(currentSearchTerm, ignorecase ? 'i' : '');
		var el = document.getElementById("frames").children;
		var matches = new Object();
		var maxwidth = 0;
		for (var i = 0; i < el.length; i++) {
			var e = el[i];
			var func = g_to_func(e);
			var rect = find_child(e, "rect");
			if (func == null || rect == null)
				continue;

			// Save max width. Only works as we have a root frame
			var w = parseFloat(rect.attributes.width.value);
			if (w > maxwidth)
				maxwidth = w;

			if (func.match(re)) {
				// highlight
				var x = parseFloat(rect.attributes.x.value);
				orig_save(rect, "fill");
				rect.attributes.fill.value = "rgb(230,0,230)";

				// remember matches
				if (matches[x] == undefined) {
					matches[x] = w;
				} else {
					if (w > matches[x]) {
						// overwrite with parent
						matches[x] = w;
					}
				}
				searching = 1;
			}
		}
		if (!searching)
			return;
		var params = get_params();
		params.s = currentSearchTerm;
		history.replaceState(null, null, parse_params(params));

		searchbtn.classList.add("show");
		searchbtn.firstChild.nodeValue = "Reset Search";

		// calculate percent matched, excluding vertical overlap
		var count = 0;
		var lastx = -1;
		var lastw = 0;
		var keys = Array();
		for (k in matches) {
			if (matches.hasOwnProperty(k))
				keys.push(k);
		}
		// sort the matched frames by their x location
		// ascending, then width descending
		keys.sort(function(a, b){
			return a - b;
		});
		// Step through frames saving only the biggest bottom-up frames
		// thanks to the sort order. This relies on the tree property
		// where children are always smaller than their parents.
		var fudge = 0.0001;	// JavaScript floating point
		for (var k in keys) {
			var x = parseFloat(keys[k]);
			var w = matches[keys[k]];
			if (x >= lastx + lastw - fudge) {
				count += w;
				lastx = x;
				lastw = w;
			}
		}
		// display matched percent
		matchedtxt.classList.remove("hide");
		var pct = 100 * count / maxwidth;
		if (pct != 100) pct = pct.toFixed(1)
		matchedtxt.firstChild.nodeValue = "Matched: " + pct + "%";
	}
]]>
</script>
<rect x="0.0" y="0" width="1200.0" height="427.0" fill="url(#background)"  />
<text id="title" x="600.00" y="26" >Firedrake example</text>
<text id="details" x="10.00" y="409" > </text>
<text id="unzoom" x="10.00" y="26" class="hide">Reset Zoom</text>
<text id="search" x="1090.00" y="26" >Search</text>
<text id="ignorecase" x="1174.00" y="26" >ic</text>
<text id="matched" x="1090.00" y="409" > </text>
<g id="frames">
<g >
<title>PCApply (97,078,461 us, 84.79%)</title><rect x="113.4" y="119" width="1000.5" height="15.0" fill="rgb(0,0,0)" rx="2" ry="2" />
<text  x="116.39" y="129.5" >PCApply</text>
</g>
<g >
<title>Parloop_Cells_wrap_par_loop_kernel (982,825 us, 0.86%)</title><rect x="430.7" y="199" width="10.1" height="15.0" fill="rgb(0,0,0)" rx="2" ry="2" />
<text  x="433.67" y="209.5" ></text>
</g>
<g >
<title>Log_Event_subkernel8_interior_facet_vert_to__exterior_facet_vert_integral_otherwise (11,783 us, 0.01%)</title><rect x="657.1" y="295" width="0.2" height="15.0" fill="rgb(0,0,0)" rx="2" ry="2" />
<text  x="660.14" y="305.5" ></text>
</g>
<g >
<title>SNESSolve (111,114,675 us, 97.05%)</title><rect x="44.8" y="87" width="1145.2" height="15.0" fill="rgb(0,0,0)" rx="2" ry="2" />
<text  x="47.83" y="97.5" >SNESSolve</text>
</g>
<g >
<title>Parloop_Cells_wrap_wrap_slate_loopy_knl_7 (100,853 us, 0.09%)</title><rect x="586.0" y="263" width="1.0" height="15.0" fill="rgb(0,0,0)" rx="2" ry="2" />
<text  x="588.96" y="273.5" ></text>
</g>
<g >
<title>ParLoopExecute (14,694,530 us, 12.83%)</title><rect x="656.7" y="263" width="151.4" height="15.0" fill="rgb(0,0,0)" rx="2" ry="2" />
<text  x="659.67" y="273.5" >ParLoopExecute</text>
</g>
<g >
<title>PCApply (1,287,699 us, 1.12%)</title><rect x="587.0" y="231" width="13.3" height="15.0" fill="rgb(0,0,0)" rx="2" ry="2" />
<text  x="590.00" y="241.5" ></text>
</g>
<g >
<title>firedrake.interpolation.make_interpolator (34,034 us, 0.03%)</title><rect x="620.6" y="327" width="0.3" height="15.0" fill="rgb(0,0,0)" rx="2" ry="2" />
<text  x="623.59" y="337.5" ></text>
</g>
<g >
<title>firedrake.mg.interface.prolong (1,269,413 us, 1.11%)</title><rect x="587.2" y="295" width="13.1" height="15.0" fill="rgb(0,0,0)" rx="2" ry="2" />
<text  x="590.19" y="305.5" ></text>
</g>
<g >
<title>firedrake.matrix_free.operators.ImplicitMatrixContext.mult (6,652,355 us, 5.81%)</title><rect x="44.8" y="135" width="68.6" height="15.0" fill="rgb(0,0,0)" rx="2" ry="2" />
<text  x="47.83" y="145.5" >firedr..</text>
</g>
<g >
<title>firedrake.extrusion_utils.make_extruded_coords (929,662 us, 0.81%)</title><rect x="19.1" y="87" width="9.6" height="15.0" fill="rgb(0,0,0)" rx="2" ry="2" />
<text  x="22.09" y="97.5" ></text>
</g>
<g >
<title>pyop2.global_kernel.GlobalKernel.compile (14,637,371 us, 12.78%)</title><rect x="657.3" y="295" width="150.8" height="15.0" fill="rgb(0,0,0)" rx="2" ry="2" />
<text  x="660.26" y="305.5" >pyop2.global_kern..</text>
</g>
<g >
<title>firedrake.functionspaceimpl.FunctionSpace.__init__ (19,352 us, 0.02%)</title><rect x="28.7" y="87" width="0.2" height="15.0" fill="rgb(0,0,0)" rx="2" ry="2" />
<text  x="31.68" y="97.5" ></text>
</g>
<g >
<title>PCApply (4,854,692 us, 4.24%)</title><rect x="587.0" y="215" width="50.0" height="15.0" fill="rgb(0,0,0)" rx="2" ry="2" />
<text  x="590.00" y="225.5" >PCAp..</text>
</g>
<g >
<title>pyop2.global_kernel.GlobalKernel.compile (2,275,946 us, 1.99%)</title><rect x="77.6" y="183" width="23.5" height="15.0" fill="rgb(0,0,0)" rx="2" ry="2" />
<text  x="80.64" y="193.5" >p..</text>
</g>
<g >
<title>pyop2.global_kernel.GlobalKernel.compile (897,935 us, 0.78%)</title><rect x="19.4" y="135" width="9.3" height="15.0" fill="rgb(0,0,0)" rx="2" ry="2" />
<text  x="22.42" y="145.5" ></text>
</g>
<g >
<title>ParLoopExecute (11,191,025 us, 9.77%)</title><rect x="452.6" y="167" width="115.4" height="15.0" fill="rgb(0,0,0)" rx="2" ry="2" />
<text  x="455.62" y="177.5" >ParLoopExecute</text>
</g>
<g >
<title>Parloop_Cells_wrap_wrap_slate_loopy_knl_7 (20,559 us, 0.02%)</title><rect x="637.0" y="263" width="0.2" height="15.0" fill="rgb(0,0,0)" rx="2" ry="2" />
<text  x="640.04" y="273.5" ></text>
</g>
<g >
<title>firedrake.tsfc_interface.compile_form (1,192,884 us, 1.04%)</title><rect x="101.1" y="151" width="12.3" height="15.0" fill="rgb(0,0,0)" rx="2" ry="2" />
<text  x="104.10" y="161.5" ></text>
</g>
<g >
<title>ParLoopExecute (5,559,574 us, 4.86%)</title><rect x="1121.3" y="119" width="57.3" height="15.0" fill="rgb(0,0,0)" rx="2" ry="2" />
<text  x="1124.33" y="129.5" >ParLo..</text>
</g>
<g >
<title>firedrake.tsfc_interface.compile_form (2,525,957 us, 2.21%)</title><rect x="808.1" y="263" width="26.1" height="15.0" fill="rgb(0,0,0)" rx="2" ry="2" />
<text  x="811.12" y="273.5" >f..</text>
</g>
<g >
<title>pyop2.global_kernel.GlobalKernel.compile (5,298,992 us, 4.63%)</title><rect x="1055.1" y="199" width="54.6" height="15.0" fill="rgb(0,0,0)" rx="2" ry="2" />
<text  x="1058.08" y="209.5" >pyop2..</text>
</g>
<g >
<title>firedrake.mg.embedded.TransferManager.op (1,269,413 us, 1.11%)</title><rect x="587.2" y="279" width="13.1" height="15.0" fill="rgb(0,0,0)" rx="2" ry="2" />
<text  x="590.19" y="289.5" ></text>
</g>
<g >
<title>firedrake.tsfc_interface.compile_form (2,521,657 us, 2.20%)</title><rect x="388.2" y="167" width="26.0" height="15.0" fill="rgb(0,0,0)" rx="2" ry="2" />
<text  x="391.23" y="177.5" >f..</text>
</g>
<g >
<title>Parloop_Cells_wrap_form0_cell_integral_otherwise (3,183,525 us, 2.78%)</title><rect x="44.8" y="167" width="32.8" height="15.0" fill="rgb(0,0,0)" rx="2" ry="2" />
<text  x="47.83" y="177.5" >Pa..</text>
</g>
<g >
<title>MatMult (19,105,234 us, 16.69%)</title><rect x="637.2" y="231" width="197.0" height="15.0" fill="rgb(0,0,0)" rx="2" ry="2" />
<text  x="640.25" y="241.5" >MatMult</text>
</g>
<g >
<title>pyop2.global_kernel.GlobalKernel.compile (662,219 us, 0.58%)</title><rect x="1114.5" y="183" width="6.8" height="15.0" fill="rgb(0,0,0)" rx="2" ry="2" />
<text  x="1117.51" y="193.5" ></text>
</g>
<g >
<title>Parloop_Cells_wrap_par_loop_kernel (662,219 us, 0.58%)</title><rect x="1114.5" y="167" width="6.8" height="15.0" fill="rgb(0,0,0)" rx="2" ry="2" />
<text  x="1117.51" y="177.5" ></text>
</g>
<g >
<title>firedrake.interpolation.Interpolator.interpolate (1,064,716 us, 0.93%)</title><rect x="609.6" y="327" width="11.0" height="15.0" fill="rgb(0,0,0)" rx="2" ry="2" />
<text  x="612.62" y="337.5" ></text>
</g>
<g >
<title>HybridBreak (982,825 us, 0.86%)</title><rect x="430.7" y="151" width="10.1" height="15.0" fill="rgb(0,0,0)" rx="2" ry="2" />
<text  x="433.67" y="161.5" ></text>
</g>
<g >
<title>ParLoopExecute (6,508,571 us, 5.68%)</title><rect x="1042.6" y="167" width="67.1" height="15.0" fill="rgb(0,0,0)" rx="2" ry="2" />
<text  x="1045.61" y="177.5" >ParLoo..</text>
</g>
<g >
<title>Log_Event_subkernel8_interior_facet_vert_to__exterior_facet_vert_integral_otherwise (20,797 us, 0.02%)</title><rect x="586.6" y="279" width="0.2" height="15.0" fill="rgb(0,0,0)" rx="2" ry="2" />
<text  x="589.61" y="289.5" ></text>
</g>
<g >
<title>pyop2.global_kernel.GlobalKernel.compile (1,064,716 us, 0.93%)</title><rect x="609.6" y="375" width="11.0" height="15.0" fill="rgb(0,0,0)" rx="2" ry="2" />
<text  x="612.62" y="385.5" ></text>
</g>
<g >
<title>SNESFunctionEval (6,662,642 us, 5.82%)</title><rect x="1121.3" y="103" width="68.7" height="15.0" fill="rgb(0,0,0)" rx="2" ry="2" />
<text  x="1124.33" y="113.5" >SNESFu..</text>
</g>
<g >
<title>pyop2.global_kernel.GlobalKernel.compile (15,701,295 us, 13.71%)</title><rect x="851.6" y="263" width="161.9" height="15.0" fill="rgb(0,0,0)" rx="2" ry="2" />
<text  x="854.64" y="273.5" >pyop2.global_kernel..</text>
</g>
<g >
<title>firedrake.mg.interface.inject (2,404,486 us, 2.10%)</title><rect x="600.5" y="295" width="24.8" height="15.0" fill="rgb(0,0,0)" rx="2" ry="2" />
<text  x="603.48" y="305.5" >f..</text>
</g>
<g >
<title>Parloop_Cells_wrap_par_loop_kernel (893,474 us, 0.78%)</title><rect x="128.6" y="199" width="9.2" height="15.0" fill="rgb(0,0,0)" rx="2" ry="2" />
<text  x="131.63" y="209.5" ></text>
</g>
<g >
<title>PCSetUp (340,054 us, 0.30%)</title><rect x="1038.9" y="199" width="3.5" height="15.0" fill="rgb(0,0,0)" rx="2" ry="2" />
<text  x="1041.94" y="209.5" ></text>
</g>
<g >
<title>Parloop_set_#x7ff3bc16a5f0_wrap_pyop2_kernel_restrict (695,585 us, 0.61%)</title><rect x="625.5" y="295" width="7.2" height="15.0" fill="rgb(0,0,0)" rx="2" ry="2" />
<text  x="628.52" y="305.5" ></text>
</g>
<g >
<title>all (114,494,177 us, 100%)</title><rect x="10.0" y="39" width="1180.0" height="15.0" fill="rgb(0,0,0)" rx="2" ry="2" />
<text  x="13.00" y="49.5" ></text>
</g>
<g >
<title>KSPSolve (19,105,234 us, 16.69%)</title><rect x="637.2" y="215" width="197.0" height="15.0" fill="rgb(0,0,0)" rx="2" ry="2" />
<text  x="640.25" y="225.5" >KSPSolve</text>
</g>
<g >
<title>firedrake.pointquery_utils.to_reference_coordinates (423,969 us, 0.37%)</title><rect x="595.9" y="311" width="4.4" height="15.0" fill="rgb(0,0,0)" rx="2" ry="2" />
<text  x="598.90" y="321.5" ></text>
</g>
<g >
<title>pyop2.global_kernel.GlobalKernel.compile (1,209,579 us, 1.06%)</title><rect x="1042.6" y="199" width="12.5" height="15.0" fill="rgb(0,0,0)" rx="2" ry="2" />
<text  x="1045.61" y="209.5" ></text>
</g>
<g >
<title>ParLoopExecute (586,026 us, 0.51%)</title><rect x="603.6" y="311" width="6.0" height="15.0" fill="rgb(0,0,0)" rx="2" ry="2" />
<text  x="606.58" y="321.5" ></text>
</g>
<g >
<title>firedrake.variational_solver.NonlinearVariationalProblem.__init__ (12,750 us, 0.01%)</title><rect x="44.7" y="87" width="0.1" height="15.0" fill="rgb(0,0,0)" rx="2" ry="2" />
<text  x="47.70" y="97.5" ></text>
</g>
<g >
<title>ParLoopExecute (893,474 us, 0.78%)</title><rect x="128.6" y="183" width="9.2" height="15.0" fill="rgb(0,0,0)" rx="2" ry="2" />
<text  x="131.63" y="193.5" ></text>
</g>
<g >
<title>HybridProject (893,474 us, 0.78%)</title><rect x="128.6" y="151" width="9.2" height="15.0" fill="rgb(0,0,0)" rx="2" ry="2" />
<text  x="131.63" y="161.5" ></text>
</g>
<g >
<title>pyop2.global_kernel.GlobalKernel.compile (893,474 us, 0.78%)</title><rect x="128.6" y="215" width="9.2" height="15.0" fill="rgb(0,0,0)" rx="2" ry="2" />
<text  x="131.63" y="225.5" ></text>
</g>
<g >
<title>Log_Event_subkernel10_interior_facet_vert_to__exterior_facet_vert_integral_otherwise (11,645 us, 0.01%)</title><rect x="657.0" y="295" width="0.1" height="15.0" fill="rgb(0,0,0)" rx="2" ry="2" />
<text  x="660.02" y="305.5" ></text>
</g>
<g >
<title>Parloop_Cells_wrap_wrap_slate_loopy_knl_11 (12,778,555 us, 11.16%)</title><rect x="256.5" y="183" width="131.7" height="15.0" fill="rgb(0,0,0)" rx="2" ry="2" />
<text  x="259.53" y="193.5" >Parloop_Cells_w..</text>
</g>
<g >
<title>firedrake.variational_solver.NonlinearVariationalSolver.solve (111,114,675 us, 97.05%)</title><rect x="44.8" y="71" width="1145.2" height="15.0" fill="rgb(0,0,0)" rx="2" ry="2" />
<text  x="47.83" y="81.5" >firedrake.variational_solver.NonlinearVariationalSolver.solve</text>
</g>
<g >
<title>ParLoopExecute (15,701,295 us, 13.71%)</title><rect x="851.6" y="231" width="161.9" height="15.0" fill="rgb(0,0,0)" rx="2" ry="2" />
<text  x="854.64" y="241.5" >ParLoopExecute</text>
</g>
<g >
<title>firedrake.formmanipulation.split_form (13,589 us, 0.01%)</title><rect x="1114.2" y="135" width="0.2" height="15.0" fill="rgb(0,0,0)" rx="2" ry="2" />
<text  x="1117.25" y="145.5" ></text>
</g>
<g >
<title>ParLoopExecute (10,022,950 us, 8.75%)</title><rect x="137.8" y="151" width="103.3" height="15.0" fill="rgb(0,0,0)" rx="2" ry="2" />
<text  x="140.84" y="161.5" >ParLoopExec..</text>
</g>
<g >
<title>MatResidual (20,559 us, 0.02%)</title><rect x="637.0" y="199" width="0.2" height="15.0" fill="rgb(0,0,0)" rx="2" ry="2" />
<text  x="640.04" y="209.5" ></text>
</g>
<g >
<title>Log_Event_slate_loopy_knl_7 (13,307 us, 0.01%)</title><rect x="586.3" y="279" width="0.1" height="15.0" fill="rgb(0,0,0)" rx="2" ry="2" />
<text  x="589.26" y="289.5" ></text>
</g>
<g >
<title>firedrake.matrix_free.operators.ImplicitMatrixContext.mult (100,853 us, 0.09%)</title><rect x="586.0" y="231" width="1.0" height="15.0" fill="rgb(0,0,0)" rx="2" ry="2" />
<text  x="588.96" y="241.5" ></text>
</g>
<g >
<title>firedrake.parloops.par_loop (893,474 us, 0.78%)</title><rect x="128.6" y="167" width="9.2" height="15.0" fill="rgb(0,0,0)" rx="2" ry="2" />
<text  x="131.63" y="177.5" ></text>
</g>
<g >
<title>KSPSetUp (38,975,795 us, 34.04%)</title><rect x="637.2" y="199" width="401.7" height="15.0" fill="rgb(0,0,0)" rx="2" ry="2" />
<text  x="640.25" y="209.5" >KSPSetUp</text>
</g>
<g >
<title>MatMult (20,559 us, 0.02%)</title><rect x="637.0" y="215" width="0.2" height="15.0" fill="rgb(0,0,0)" rx="2" ry="2" />
<text  x="640.04" y="225.5" ></text>
</g>
<g >
<title>MatMult (100,853 us, 0.09%)</title><rect x="586.0" y="215" width="1.0" height="15.0" fill="rgb(0,0,0)" rx="2" ry="2" />
<text  x="588.96" y="225.5" ></text>
</g>
<g >
<title>firedrake.tsfc_interface.compile_form (1,103,068 us, 0.96%)</title><rect x="1178.6" y="119" width="11.4" height="15.0" fill="rgb(0,0,0)" rx="2" ry="2" />
<text  x="1181.63" y="129.5" ></text>
</g>
<g >
<title>firedrake (114,494,177 us, 100.00%)</title><rect x="10.0" y="55" width="1180.0" height="15.0" fill="rgb(0,0,0)" rx="2" ry="2" />
<text  x="13.00" y="65.5" >firedrake</text>
</g>
<g >
<title>ParLoopExecute (662,219 us, 0.58%)</title><rect x="1114.5" y="151" width="6.8" height="15.0" fill="rgb(0,0,0)" rx="2" ry="2" />
<text  x="1117.51" y="161.5" ></text>
</g>
<g >
<title>PCSetUp (19,870,561 us, 17.36%)</title><rect x="834.2" y="215" width="204.7" height="15.0" fill="rgb(0,0,0)" rx="2" ry="2" />
<text  x="837.15" y="225.5" >PCSetUp</text>
</g>
<g >
<title>firedrake.parloops.par_loop (662,219 us, 0.58%)</title><rect x="1114.5" y="135" width="6.8" height="15.0" fill="rgb(0,0,0)" rx="2" ry="2" />
<text  x="1117.51" y="145.5" ></text>
</g>
<g >
<title>PCSetUp (721,217 us, 0.63%)</title><rect x="1113.9" y="103" width="7.4" height="15.0" fill="rgb(0,0,0)" rx="2" ry="2" />
<text  x="1116.90" y="113.5" ></text>
</g>
<g >
<title>firedrake.tsfc_interface.compile_form (2,472,176 us, 2.16%)</title><rect x="1013.5" y="231" width="25.4" height="15.0" fill="rgb(0,0,0)" rx="2" ry="2" />
<text  x="1016.46" y="241.5" >f..</text>
</g>
<g >
<title>ParLoopExecute (592,921 us, 0.52%)</title><rect x="589.8" y="311" width="6.1" height="15.0" fill="rgb(0,0,0)" rx="2" ry="2" />
<text  x="592.79" y="321.5" ></text>
</g>
<g >
<title>firedrake.pointquery_utils.to_reference_coordinates (418,589 us, 0.37%)</title><rect x="620.9" y="311" width="4.4" height="15.0" fill="rgb(0,0,0)" rx="2" ry="2" />
<text  x="623.94" y="321.5" ></text>
</g>
<g >
<title>firedrake.interpolation.make_interpolator (11,864 us, 0.01%)</title><rect x="1114.4" y="135" width="0.1" height="15.0" fill="rgb(0,0,0)" rx="2" ry="2" />
<text  x="1117.39" y="145.5" ></text>
</g>
<g >
<title>Parloop_Cells_wrap_expression_kernel (1,064,716 us, 0.93%)</title><rect x="609.6" y="359" width="11.0" height="15.0" fill="rgb(0,0,0)" rx="2" ry="2" />
<text  x="612.62" y="369.5" ></text>
</g>
<g >
<title>pyop2.global_kernel.GlobalKernel.compile (592,921 us, 0.52%)</title><rect x="589.8" y="343" width="6.1" height="15.0" fill="rgb(0,0,0)" rx="2" ry="2" />
<text  x="592.79" y="353.5" ></text>
</g>
<g >
<title>Parloop_set_#x7ff3bc169c00_wrap_pyop2_kernel_prolong (592,921 us, 0.52%)</title><rect x="589.8" y="327" width="6.1" height="15.0" fill="rgb(0,0,0)" rx="2" ry="2" />
<text  x="592.79" y="337.5" ></text>
</g>
<g >
<title>firedrake.tsfc_interface.compile_form (1,726,561 us, 1.51%)</title><rect x="568.0" y="167" width="17.7" height="15.0" fill="rgb(0,0,0)" rx="2" ry="2" />
<text  x="570.96" y="177.5" ></text>
</g>
<g >
<title>pyop2.global_kernel.GlobalKernel.compile (586,026 us, 0.51%)</title><rect x="603.6" y="343" width="6.0" height="15.0" fill="rgb(0,0,0)" rx="2" ry="2" />
<text  x="606.58" y="353.5" ></text>
</g>
<g >
<title>ParLoopExecute (5,459,471 us, 4.77%)</title><rect x="44.8" y="151" width="56.3" height="15.0" fill="rgb(0,0,0)" rx="2" ry="2" />
<text  x="47.83" y="161.5" >ParLo..</text>
</g>
<g >
<title>firedrake.tsfc_interface.compile_form (1,596,849 us, 1.39%)</title><rect x="414.2" y="151" width="16.5" height="15.0" fill="rgb(0,0,0)" rx="2" ry="2" />
<text  x="417.21" y="161.5" ></text>
</g>
<g >
<title>Log_Event_subkernel10_interior_facet_vert_to__exterior_facet_vert_integral_otherwise (20,512 us, 0.02%)</title><rect x="586.4" y="279" width="0.2" height="15.0" fill="rgb(0,0,0)" rx="2" ry="2" />
<text  x="589.39" y="289.5" ></text>
</g>
<g >
<title>MGInterp Level 1 (1,269,413 us, 1.11%)</title><rect x="587.2" y="247" width="13.1" height="15.0" fill="rgb(0,0,0)" rx="2" ry="2" />
<text  x="590.19" y="257.5" ></text>
</g>
<g >
<title>firedrake.tsfc_interface.compile_form (340,054 us, 0.30%)</title><rect x="1038.9" y="215" width="3.5" height="15.0" fill="rgb(0,0,0)" rx="2" ry="2" />
<text  x="1041.94" y="225.5" ></text>
</g>
<g >
<title>firedrake.matrix_free.operators.ImplicitMatrixContext.mult (20,762 us, 0.02%)</title><rect x="585.7" y="183" width="0.3" height="15.0" fill="rgb(0,0,0)" rx="2" ry="2" />
<text  x="588.75" y="193.5" ></text>
</g>
<g >
<title>Parloop_Cells_wrap_form1_cell_integral_otherwise (2,426,035 us, 2.12%)</title><rect x="1153.6" y="135" width="25.0" height="15.0" fill="rgb(0,0,0)" rx="2" ry="2" />
<text  x="1156.63" y="145.5" >P..</text>
</g>
<g >
<title>firedrake.matrix_free.operators.ImplicitMatrixContext.mult (19,105,234 us, 16.69%)</title><rect x="637.2" y="247" width="197.0" height="15.0" fill="rgb(0,0,0)" rx="2" ry="2" />
<text  x="640.25" y="257.5" >firedrake.matrix_free.o..</text>
</g>
<g >
<title>CreateFunctionSpace (19,352 us, 0.02%)</title><rect x="28.7" y="71" width="0.2" height="15.0" fill="rgb(0,0,0)" rx="2" ry="2" />
<text  x="31.68" y="81.5" ></text>
</g>
<g >
<title>firedrake.mg.interface.restrict (1,142,776 us, 1.00%)</title><rect x="625.3" y="263" width="11.7" height="15.0" fill="rgb(0,0,0)" rx="2" ry="2" />
<text  x="628.26" y="273.5" ></text>
</g>
<g >
<title>RecoverFirstElim (16,793,666 us, 14.67%)</title><rect x="241.1" y="151" width="173.1" height="15.0" fill="rgb(0,0,0)" rx="2" ry="2" />
<text  x="244.14" y="161.5" >RecoverFirstElim</text>
</g>
<g >
<title>firedrake.interpolation.interpolate (1,098,750 us, 0.96%)</title><rect x="609.6" y="311" width="11.3" height="15.0" fill="rgb(0,0,0)" rx="2" ry="2" />
<text  x="612.62" y="321.5" ></text>
</g>
<g >
<title>MatMult (20,762 us, 0.02%)</title><rect x="585.7" y="167" width="0.3" height="15.0" fill="rgb(0,0,0)" rx="2" ry="2" />
<text  x="588.75" y="177.5" ></text>
</g>
<g >
<title>PCSetUp (3,566,993 us, 3.12%)</title><rect x="600.3" y="231" width="36.7" height="15.0" fill="rgb(0,0,0)" rx="2" ry="2" />
<text  x="603.27" y="241.5" >PC..</text>
</g>
<g >
<title>Parloop_Cells_wrap_pyop2_kernel_uniform_extrusion (897,935 us, 0.78%)</title><rect x="19.4" y="119" width="9.3" height="15.0" fill="rgb(0,0,0)" rx="2" ry="2" />
<text  x="22.42" y="129.5" ></text>
</g>
<g >
<title>pyop2.global_kernel.GlobalKernel.compile (2,426,035 us, 2.12%)</title><rect x="1153.6" y="151" width="25.0" height="15.0" fill="rgb(0,0,0)" rx="2" ry="2" />
<text  x="1156.63" y="161.5" >p..</text>
</g>
<g >
<title>MatMult (1,269,413 us, 1.11%)</title><rect x="587.2" y="263" width="13.1" height="15.0" fill="rgb(0,0,0)" rx="2" ry="2" />
<text  x="590.19" y="273.5" ></text>
</g>
<g >
<title>KSPSolve (103,730,816 us, 90.60%)</title><rect x="44.8" y="103" width="1069.1" height="15.0" fill="rgb(0,0,0)" rx="2" ry="2" />
<text  x="47.83" y="113.5" >KSPSolve</text>
</g>
<g >
<title>pyop2.global_kernel.GlobalKernel.compile (982,825 us, 0.86%)</title><rect x="430.7" y="215" width="10.1" height="15.0" fill="rgb(0,0,0)" rx="2" ry="2" />
<text  x="433.67" y="225.5" ></text>
</g>
<g >
<title>SCSolve (51,245,952 us, 44.76%)</title><rect x="585.7" y="135" width="528.2" height="15.0" fill="rgb(0,0,0)" rx="2" ry="2" />
<text  x="588.75" y="145.5" >SCSolve</text>
</g>
<g >
<title>ParLoopExecute (982,825 us, 0.86%)</title><rect x="430.7" y="183" width="10.1" height="15.0" fill="rgb(0,0,0)" rx="2" ry="2" />
<text  x="433.67" y="193.5" ></text>
</g>
<g >
<title>Parloop_Cells_wrap_wrap_slate_loopy_knl_18 (10,022,950 us, 8.75%)</title><rect x="137.8" y="167" width="103.3" height="15.0" fill="rgb(0,0,0)" rx="2" ry="2" />
<text  x="140.84" y="177.5" >Parloop_Cel..</text>
</g>
<g >
<title>Parloop_Cells_wrap_wrap_slate_loopy_knl_7 (14,694,530 us, 12.83%)</title><rect x="656.7" y="279" width="151.4" height="15.0" fill="rgb(0,0,0)" rx="2" ry="2" />
<text  x="659.67" y="289.5" >Parloop_Cells_wra..</text>
</g>
<g >
<title>ParLoopExecute (897,935 us, 0.78%)</title><rect x="19.4" y="103" width="9.3" height="15.0" fill="rgb(0,0,0)" rx="2" ry="2" />
<text  x="22.42" y="113.5" ></text>
</g>
<g >
<title>firedrake.pointquery_utils.to_reference_coordinates (421,643 us, 0.37%)</title><rect x="632.7" y="279" width="4.3" height="15.0" fill="rgb(0,0,0)" rx="2" ry="2" />
<text  x="635.69" y="289.5" ></text>
</g>
<g >
<title>Parloop_Cells_wrap_form0_cell_integral_otherwise (3,133,539 us, 2.74%)</title><rect x="1121.3" y="135" width="32.3" height="15.0" fill="rgb(0,0,0)" rx="2" ry="2" />
<text  x="1124.33" y="145.5" >Pa..</text>
</g>
<g >
<title>firedrake.dmhooks.coarsen (2,424,217 us, 2.12%)</title><rect x="600.3" y="263" width="25.0" height="15.0" fill="rgb(0,0,0)" rx="2" ry="2" />
<text  x="603.27" y="273.5" >f..</text>
</g>
<g >
<title>ParLoopExecute (20,762 us, 0.02%)</title><rect x="585.7" y="199" width="0.3" height="15.0" fill="rgb(0,0,0)" rx="2" ry="2" />
<text  x="588.75" y="209.5" ></text>
</g>
<g >
<title>firedrake.interpolation.make_interpolator (24,492 us, 0.02%)</title><rect x="1109.7" y="167" width="0.2" height="15.0" fill="rgb(0,0,0)" rx="2" ry="2" />
<text  x="1112.69" y="177.5" ></text>
</g>
<g >
<title>CreateExtMesh (929,662 us, 0.81%)</title><rect x="19.1" y="71" width="9.6" height="15.0" fill="rgb(0,0,0)" rx="2" ry="2" />
<text  x="22.09" y="81.5" ></text>
</g>
<g >
<title>firedrake.matrix_free.operators.ImplicitMatrixContext.mult (20,559 us, 0.02%)</title><rect x="637.0" y="231" width="0.2" height="15.0" fill="rgb(0,0,0)" rx="2" ry="2" />
<text  x="640.04" y="241.5" ></text>
</g>
<g >
<title>Parloop_Cells_wrap_wrap_slate_loopy_knl_7 (20,762 us, 0.02%)</title><rect x="585.7" y="215" width="0.3" height="15.0" fill="rgb(0,0,0)" rx="2" ry="2" />
<text  x="588.75" y="225.5" ></text>
</g>
<g >
<title>pyop2.global_kernel.GlobalKernel.compile (695,585 us, 0.61%)</title><rect x="625.5" y="311" width="7.2" height="15.0" fill="rgb(0,0,0)" rx="2" ry="2" />
<text  x="628.52" y="321.5" ></text>
</g>
<g >
<title>SCForwardElim (15,046,959 us, 13.14%)</title><rect x="430.7" y="135" width="155.0" height="15.0" fill="rgb(0,0,0)" rx="2" ry="2" />
<text  x="433.67" y="145.5" >SCForwardElim</text>
</g>
<g >
<title>PCApply (44,291,953 us, 38.68%)</title><rect x="586.0" y="167" width="456.4" height="15.0" fill="rgb(0,0,0)" rx="2" ry="2" />
<text  x="588.96" y="177.5" >PCApply</text>
</g>
<g >
<title>firedrake.tsfc_interface.compile_form (383,914 us, 0.34%)</title><rect x="1109.9" y="167" width="4.0" height="15.0" fill="rgb(0,0,0)" rx="2" ry="2" />
<text  x="1112.94" y="177.5" ></text>
</g>
<g >
<title>firedrake.parloops.par_loop (982,825 us, 0.86%)</title><rect x="430.7" y="167" width="10.1" height="15.0" fill="rgb(0,0,0)" rx="2" ry="2" />
<text  x="433.67" y="177.5" ></text>
</g>
<g >
<title>pyop2.global_kernel.GlobalKernel.compile (3,133,539 us, 2.74%)</title><rect x="1121.3" y="151" width="32.3" height="15.0" fill="rgb(0,0,0)" rx="2" ry="2" />
<text  x="1124.33" y="161.5" >py..</text>
</g>
<g >
<title>Parloop_Cells_wrap_form1_cell_integral_otherwise (2,275,946 us, 1.99%)</title><rect x="77.6" y="167" width="23.5" height="15.0" fill="rgb(0,0,0)" rx="2" ry="2" />
<text  x="80.64" y="177.5" >P..</text>
</g>
<g >
<title>Log_Event_subkernel9_cell_to__cell_integral_otherwise (17,713 us, 0.02%)</title><rect x="586.8" y="279" width="0.2" height="15.0" fill="rgb(0,0,0)" rx="2" ry="2" />
<text  x="589.82" y="289.5" ></text>
</g>
<g >
<title>firedrake.formmanipulation.ExtractSubBlock.split (13,589 us, 0.01%)</title><rect x="1114.2" y="151" width="0.2" height="15.0" fill="rgb(0,0,0)" rx="2" ry="2" />
<text  x="1117.25" y="161.5" ></text>
</g>
<g >
<title>PCSetUp (39,315,849 us, 34.34%)</title><rect x="637.2" y="183" width="405.2" height="15.0" fill="rgb(0,0,0)" rx="2" ry="2" />
<text  x="640.25" y="193.5" >PCSetUp</text>
</g>
<g >
<title>firedrake.functionspacedata.get_shared_data (19,352 us, 0.02%)</title><rect x="28.7" y="103" width="0.2" height="15.0" fill="rgb(0,0,0)" rx="2" ry="2" />
<text  x="31.68" y="113.5" ></text>
</g>
<g >
<title>HybridRHS (14,064,134 us, 12.28%)</title><rect x="440.8" y="151" width="144.9" height="15.0" fill="rgb(0,0,0)" rx="2" ry="2" />
<text  x="443.80" y="161.5" >HybridRHS</text>
</g>
<g >
<title>DMCoarsen (2,424,217 us, 2.12%)</title><rect x="600.3" y="247" width="25.0" height="15.0" fill="rgb(0,0,0)" rx="2" ry="2" />
<text  x="603.27" y="257.5" >D..</text>
</g>
<g >
<title>Parloop_Cells_wrap_wrap_slate_loopy_knl_0 (11,191,025 us, 9.77%)</title><rect x="452.6" y="183" width="115.4" height="15.0" fill="rgb(0,0,0)" rx="2" ry="2" />
<text  x="455.62" y="193.5" >Parloop_Cells..</text>
</g>
<g >
<title>HybridInit (721,217 us, 0.63%)</title><rect x="1113.9" y="119" width="7.4" height="15.0" fill="rgb(0,0,0)" rx="2" ry="2" />
<text  x="1116.90" y="129.5" ></text>
</g>
<g >
<title>pyop2.global_kernel.GlobalKernel.compile (10,022,950 us, 8.75%)</title><rect x="137.8" y="183" width="103.3" height="15.0" fill="rgb(0,0,0)" rx="2" ry="2" />
<text  x="140.84" y="193.5" >pyop2.globa..</text>
</g>
<g >
<title>pyop2.global_kernel.GlobalKernel.compile (11,191,025 us, 9.77%)</title><rect x="452.6" y="199" width="115.4" height="15.0" fill="rgb(0,0,0)" rx="2" ry="2" />
<text  x="455.62" y="209.5" >pyop2.global_..</text>
</g>
<g >
<title>firedrake.__init__ (1,535,266 us, 1.34%)</title><rect x="28.9" y="71" width="15.8" height="15.0" fill="rgb(0,0,0)" rx="2" ry="2" />
<text  x="31.88" y="81.5" ></text>
</g>
<g >
<title>ParLoopExecute (12,778,555 us, 11.16%)</title><rect x="256.5" y="167" width="131.7" height="15.0" fill="rgb(0,0,0)" rx="2" ry="2" />
<text  x="259.53" y="177.5" >ParLoopExecute</text>
</g>
<g >
<title>Parloop_Cells_wrap_expression_kernel (1,209,579 us, 1.06%)</title><rect x="1042.6" y="183" width="12.5" height="15.0" fill="rgb(0,0,0)" rx="2" ry="2" />
<text  x="1045.61" y="193.5" ></text>
</g>
<g >
<title>ParLoopExecute (100,853 us, 0.09%)</title><rect x="586.0" y="247" width="1.0" height="15.0" fill="rgb(0,0,0)" rx="2" ry="2" />
<text  x="588.96" y="257.5" ></text>
</g>
<g >
<title>ParLoopExecute (1,064,716 us, 0.93%)</title><rect x="609.6" y="343" width="11.0" height="15.0" fill="rgb(0,0,0)" rx="2" ry="2" />
<text  x="612.62" y="353.5" ></text>
</g>
<g >
<title>MatMult (6,652,355 us, 5.81%)</title><rect x="44.8" y="119" width="68.6" height="15.0" fill="rgb(0,0,0)" rx="2" ry="2" />
<text  x="47.83" y="129.5" >MatMult</text>
</g>
<g >
<title>SCBackSub (30,785,550 us, 26.89%)</title><rect x="113.4" y="135" width="317.3" height="15.0" fill="rgb(0,0,0)" rx="2" ry="2" />
<text  x="116.39" y="145.5" >SCBackSub</text>
</g>
<g >
<title>pyop2.global_kernel.GlobalKernel.compile (12,778,555 us, 11.16%)</title><rect x="256.5" y="199" width="131.7" height="15.0" fill="rgb(0,0,0)" rx="2" ry="2" />
<text  x="259.53" y="209.5" >pyop2.global_ke..</text>
</g>
<g >
<title>firedrake.functionspacedata.FunctionSpaceData.__init__ (19,352 us, 0.02%)</title><rect x="28.7" y="119" width="0.2" height="15.0" fill="rgb(0,0,0)" rx="2" ry="2" />
<text  x="31.68" y="129.5" ></text>
</g>
<g >
<title>PCSetUp (6,933,237 us, 6.06%)</title><rect x="1042.4" y="151" width="71.5" height="15.0" fill="rgb(0,0,0)" rx="2" ry="2" />
<text  x="1045.45" y="161.5" >PCSetUp</text>
</g>
<g >
<title>KSPSolve (4,955,545 us, 4.33%)</title><rect x="586.0" y="199" width="51.0" height="15.0" fill="rgb(0,0,0)" rx="2" ry="2" />
<text  x="588.96" y="209.5" >KSPS..</text>
</g>
<g >
<title>Parloop_Cells_wrap_form00_cell_integral_otherwise (5,298,992 us, 4.63%)</title><rect x="1055.1" y="183" width="54.6" height="15.0" fill="rgb(0,0,0)" rx="2" ry="2" />
<text  x="1058.08" y="193.5" >Parlo..</text>
</g>
<g >
<title>PCApply (4,976,104 us, 4.35%)</title><rect x="586.0" y="183" width="51.2" height="15.0" fill="rgb(0,0,0)" rx="2" ry="2" />
<text  x="588.96" y="193.5" >PCAp..</text>
</g>
<g >
<title>Parloop_set_#x7ff3bc169c00_wrap_pyop2_kernel_inject (586,026 us, 0.51%)</title><rect x="603.6" y="327" width="6.0" height="15.0" fill="rgb(0,0,0)" rx="2" ry="2" />
<text  x="606.58" y="337.5" ></text>
</g>
<g >
<title>firedrake.variational_solver.LinearVariationalProblem.__init__ (12,750 us, 0.01%)</title><rect x="44.7" y="71" width="0.1" height="15.0" fill="rgb(0,0,0)" rx="2" ry="2" />
<text  x="47.70" y="81.5" ></text>
</g>
<g >
<title>Parloop_Cells_wrap_wrap_slate_loopy_knl_3 (15,701,295 us, 13.71%)</title><rect x="851.6" y="247" width="161.9" height="15.0" fill="rgb(0,0,0)" rx="2" ry="2" />
<text  x="854.64" y="257.5" >Parloop_Cells_wrap_..</text>
</g>
<g >
<title>pyop2.global_kernel.GlobalKernel.compile (3,183,525 us, 2.78%)</title><rect x="44.8" y="183" width="32.8" height="15.0" fill="rgb(0,0,0)" rx="2" ry="2" />
<text  x="47.83" y="193.5" >py..</text>
</g>
<g >
<title>ParLoopExecute (695,585 us, 0.61%)</title><rect x="625.5" y="279" width="7.2" height="15.0" fill="rgb(0,0,0)" rx="2" ry="2" />
<text  x="628.52" y="289.5" ></text>
</g>
<g >
<title>ParLoopExecute (20,559 us, 0.02%)</title><rect x="637.0" y="247" width="0.2" height="15.0" fill="rgb(0,0,0)" rx="2" ry="2" />
<text  x="640.04" y="257.5" ></text>
</g>
<g >
<title>KSPSolve (44,312,715 us, 38.70%)</title><rect x="585.7" y="151" width="456.7" height="15.0" fill="rgb(0,0,0)" rx="2" ry="2" />
<text  x="588.75" y="161.5" >KSPSolve</text>
</g>
<g >
<title>firedrake.mg.embedded.TransferManager.op (2,404,486 us, 2.10%)</title><rect x="600.5" y="279" width="24.8" height="15.0" fill="rgb(0,0,0)" rx="2" ry="2" />
<text  x="603.48" y="289.5" >f..</text>
</g>
<g >
<title>MatMultTranspose (1,142,776 us, 1.00%)</title><rect x="625.3" y="247" width="11.7" height="15.0" fill="rgb(0,0,0)" rx="2" ry="2" />
<text  x="628.26" y="257.5" ></text>
</g>
</g>
</svg>
