<?xml version="1.0" standalone="no"?>
<!DOCTYPE svg PUBLIC "-//W3C//DTD SVG 1.1//EN" "http://www.w3.org/Graphics/SVG/1.1/DTD/svg11.dtd">
<svg version="1.1" width="1200" height="331" onload="init(evt)" viewBox="0 0 1200 331" xmlns="http://www.w3.org/2000/svg" xmlns:xlink="http://www.w3.org/1999/xlink">
<!-- Flame graph stack visualization. See https://github.com/brendangregg/FlameGraph for latest version, and http://www.brendangregg.com/flamegraphs.html for examples. -->
<!-- NOTES:  -->
<defs>
	<linearGradient id="background" y1="0" y2="1" x1="0" x2="0" >
		<stop stop-color="#eeeeee" offset="5%" />
		<stop stop-color="#eeeeb0" offset="95%" />
	</linearGradient>
</defs>
<style type="text/css">
	text { font-family:Verdana; font-size:13px; fill:rgb(0,0,0); }
	#search, #ignorecase { opacity:0.1; cursor:pointer; }
	#search:hover, #search.show, #ignorecase:hover, #ignorecase.show { opacity:1; }
	#subtitle { text-anchor:middle; font-color:rgb(160,160,160); }
	#title { text-anchor:middle; font-size:18px}
	#unzoom { cursor:pointer; }
	#frames > *:hover { stroke:black; stroke-width:0.5; cursor:pointer; }
	.hide { display:none; }
	.parent { opacity:0.5; }
</style>
<script type="text/ecmascript">
<![CDATA[
	"use strict";
	var details, searchbtn, unzoombtn, matchedtxt, svg, searching, currentSearchTerm, ignorecase, ignorecaseBtn;
	function init(evt) {
		details = document.getElementById("details").firstChild;
		searchbtn = document.getElementById("search");
		ignorecaseBtn = document.getElementById("ignorecase");
		unzoombtn = document.getElementById("unzoom");
		matchedtxt = document.getElementById("matched");
		svg = document.getElementsByTagName("svg")[0];
		searching = 0;
		currentSearchTerm = null;

		// use GET parameters to restore a flamegraphs state.
		var params = get_params();
		if (params.x && params.y)
			zoom(find_group(document.querySelector('[x="' + params.x + '"][y="' + params.y + '"]')));
                if (params.s) search(params.s);
	}

	// event listeners
	window.addEventListener("click", function(e) {
		var target = find_group(e.target);
		if (target) {
			if (target.nodeName == "a") {
				if (e.ctrlKey === false) return;
				e.preventDefault();
			}
			if (target.classList.contains("parent")) unzoom();
			zoom(target);
			if (!document.querySelector('.parent')) {
				clearzoom();
				return;
			}

			// set parameters for zoom state
			var el = target.querySelector("rect");
			if (el && el.attributes && el.attributes.y && el.attributes._orig_x) {
				var params = get_params()
				params.x = el.attributes._orig_x.value;
				params.y = el.attributes.y.value;
				history.replaceState(null, null, parse_params(params));
			}
		}
		else if (e.target.id == "unzoom") clearzoom();
		else if (e.target.id == "search") search_prompt();
		else if (e.target.id == "ignorecase") toggle_ignorecase();
	}, false)

	// mouse-over for info
	// show
	window.addEventListener("mouseover", function(e) {
		var target = find_group(e.target);
		if (target) details.nodeValue = "Function: " + g_to_text(target);
	}, false)

	// clear
	window.addEventListener("mouseout", function(e) {
		var target = find_group(e.target);
		if (target) details.nodeValue = ' ';
	}, false)

	// ctrl-F for search
	// ctrl-I to toggle case-sensitive search
	window.addEventListener("keydown",function (e) {
		if (e.keyCode === 114 || (e.ctrlKey && e.keyCode === 70)) {
			e.preventDefault();
			search_prompt();
		}
		else if (e.ctrlKey && e.keyCode === 73) {
			e.preventDefault();
			toggle_ignorecase();
		}
	}, false)

	// functions
	function get_params() {
		var params = {};
		var paramsarr = window.location.search.substr(1).split('&');
		for (var i = 0; i < paramsarr.length; ++i) {
			var tmp = paramsarr[i].split("=");
			if (!tmp[0] || !tmp[1]) continue;
			params[tmp[0]]  = decodeURIComponent(tmp[1]);
		}
		return params;
	}
	function parse_params(params) {
		var uri = "?";
		for (var key in params) {
			uri += key + '=' + encodeURIComponent(params[key]) + '&';
		}
		if (uri.slice(-1) == "&")
			uri = uri.substring(0, uri.length - 1);
		if (uri == '?')
			uri = window.location.href.split('?')[0];
		return uri;
	}
	function find_child(node, selector) {
		var children = node.querySelectorAll(selector);
		if (children.length) return children[0];
	}
	function find_group(node) {
		var parent = node.parentElement;
		if (!parent) return;
		if (parent.id == "frames") return node;
		return find_group(parent);
	}
	function orig_save(e, attr, val) {
		if (e.attributes["_orig_" + attr] != undefined) return;
		if (e.attributes[attr] == undefined) return;
		if (val == undefined) val = e.attributes[attr].value;
		e.setAttribute("_orig_" + attr, val);
	}
	function orig_load(e, attr) {
		if (e.attributes["_orig_"+attr] == undefined) return;
		e.attributes[attr].value = e.attributes["_orig_" + attr].value;
		e.removeAttribute("_orig_"+attr);
	}
	function g_to_text(e) {
		var text = find_child(e, "title").firstChild.nodeValue;
		return (text)
	}
	function g_to_func(e) {
		var func = g_to_text(e);
		// if there's any manipulation we want to do to the function
		// name before it's searched, do it here before returning.
		return (func);
	}
	function update_text(e) {
		var r = find_child(e, "rect");
		var t = find_child(e, "text");
		var w = parseFloat(r.attributes.width.value) -3;
		var txt = find_child(e, "title").textContent.replace(/\([^(]*\)$/,"");
		t.attributes.x.value = parseFloat(r.attributes.x.value) + 3;

		// Smaller than this size won't fit anything
		if (w < 2 * 13 * 0.59) {
			t.textContent = "";
			return;
		}

		t.textContent = txt;
		// Fit in full text width
		if (/^ *$/.test(txt) || t.getSubStringLength(0, txt.length) < w)
			return;

		for (var x = txt.length - 2; x > 0; x--) {
			if (t.getSubStringLength(0, x + 2) <= w) {
				t.textContent = txt.substring(0, x) + "..";
				return;
			}
		}
		t.textContent = "";
	}

	// zoom
	function zoom_reset(e) {
		if (e.attributes != undefined) {
			orig_load(e, "x");
			orig_load(e, "width");
		}
		if (e.childNodes == undefined) return;
		for (var i = 0, c = e.childNodes; i < c.length; i++) {
			zoom_reset(c[i]);
		}
	}
	function zoom_child(e, x, ratio) {
		if (e.attributes != undefined) {
			if (e.attributes.x != undefined) {
				orig_save(e, "x");
				e.attributes.x.value = (parseFloat(e.attributes.x.value) - x - 10) * ratio + 10;
				if (e.tagName == "text")
					e.attributes.x.value = find_child(e.parentNode, "rect[x]").attributes.x.value + 3;
			}
			if (e.attributes.width != undefined) {
				orig_save(e, "width");
				e.attributes.width.value = parseFloat(e.attributes.width.value) * ratio;
			}
		}

		if (e.childNodes == undefined) return;
		for (var i = 0, c = e.childNodes; i < c.length; i++) {
			zoom_child(c[i], x - 10, ratio);
		}
	}
	function zoom_parent(e) {
		if (e.attributes) {
			if (e.attributes.x != undefined) {
				orig_save(e, "x");
				e.attributes.x.value = 10;
			}
			if (e.attributes.width != undefined) {
				orig_save(e, "width");
				e.attributes.width.value = parseInt(svg.width.baseVal.value) - (10 * 2);
			}
		}
		if (e.childNodes == undefined) return;
		for (var i = 0, c = e.childNodes; i < c.length; i++) {
			zoom_parent(c[i]);
		}
	}
	function zoom(node) {
		var attr = find_child(node, "rect").attributes;
		var width = parseFloat(attr.width.value);
		var xmin = parseFloat(attr.x.value);
		var xmax = parseFloat(xmin + width);
		var ymin = parseFloat(attr.y.value);
		var ratio = (svg.width.baseVal.value - 2 * 10) / width;

		// XXX: Workaround for JavaScript float issues (fix me)
		var fudge = 0.0001;

		unzoombtn.classList.remove("hide");

		var el = document.getElementById("frames").children;
		for (var i = 0; i < el.length; i++) {
			var e = el[i];
			var a = find_child(e, "rect").attributes;
			var ex = parseFloat(a.x.value);
			var ew = parseFloat(a.width.value);
			var upstack;
			// Is it an ancestor
			if (1 == 0) {
				upstack = parseFloat(a.y.value) > ymin;
			} else {
				upstack = parseFloat(a.y.value) < ymin;
			}
			if (upstack) {
				// Direct ancestor
				if (ex <= xmin && (ex+ew+fudge) >= xmax) {
					e.classList.add("parent");
					zoom_parent(e);
					update_text(e);
				}
				// not in current path
				else
					e.classList.add("hide");
			}
			// Children maybe
			else {
				// no common path
				if (ex < xmin || ex + fudge >= xmax) {
					e.classList.add("hide");
				}
				else {
					zoom_child(e, xmin, ratio);
					update_text(e);
				}
			}
		}
		search();
	}
	function unzoom() {
		unzoombtn.classList.add("hide");
		var el = document.getElementById("frames").children;
		for(var i = 0; i < el.length; i++) {
			el[i].classList.remove("parent");
			el[i].classList.remove("hide");
			zoom_reset(el[i]);
			update_text(el[i]);
		}
		search();
	}
	function clearzoom() {
		unzoom();

		// remove zoom state
		var params = get_params();
		if (params.x) delete params.x;
		if (params.y) delete params.y;
		history.replaceState(null, null, parse_params(params));
	}

	// search
	function toggle_ignorecase() {
		ignorecase = !ignorecase;
		if (ignorecase) {
			ignorecaseBtn.classList.add("show");
		} else {
			ignorecaseBtn.classList.remove("show");
		}
		reset_search();
		search();
	}
	function reset_search() {
		var el = document.querySelectorAll("#frames rect");
		for (var i = 0; i < el.length; i++) {
			orig_load(el[i], "fill")
		}
		var params = get_params();
		delete params.s;
		history.replaceState(null, null, parse_params(params));
	}
	function search_prompt() {
		if (!searching) {
			var term = prompt("Enter a search term (regexp " +
			    "allowed, eg: ^ext4_)"
			    + (ignorecase ? ", ignoring case" : "")
			    + "\nPress Ctrl-i to toggle case sensitivity", "");
			if (term != null) search(term);
		} else {
			reset_search();
			searching = 0;
			currentSearchTerm = null;
			searchbtn.classList.remove("show");
			searchbtn.firstChild.nodeValue = "Search"
			matchedtxt.classList.add("hide");
			matchedtxt.firstChild.nodeValue = ""
		}
	}
	function search(term) {
		if (term) currentSearchTerm = term;

		var re = new RegExp(currentSearchTerm, ignorecase ? 'i' : '');
		var el = document.getElementById("frames").children;
		var matches = new Object();
		var maxwidth = 0;
		for (var i = 0; i < el.length; i++) {
			var e = el[i];
			var func = g_to_func(e);
			var rect = find_child(e, "rect");
			if (func == null || rect == null)
				continue;

			// Save max width. Only works as we have a root frame
			var w = parseFloat(rect.attributes.width.value);
			if (w > maxwidth)
				maxwidth = w;

			if (func.match(re)) {
				// highlight
				var x = parseFloat(rect.attributes.x.value);
				orig_save(rect, "fill");
				rect.attributes.fill.value = "rgb(230,0,230)";

				// remember matches
				if (matches[x] == undefined) {
					matches[x] = w;
				} else {
					if (w > matches[x]) {
						// overwrite with parent
						matches[x] = w;
					}
				}
				searching = 1;
			}
		}
		if (!searching)
			return;
		var params = get_params();
		params.s = currentSearchTerm;
		history.replaceState(null, null, parse_params(params));

		searchbtn.classList.add("show");
		searchbtn.firstChild.nodeValue = "Reset Search";

		// calculate percent matched, excluding vertical overlap
		var count = 0;
		var lastx = -1;
		var lastw = 0;
		var keys = Array();
		for (k in matches) {
			if (matches.hasOwnProperty(k))
				keys.push(k);
		}
		// sort the matched frames by their x location
		// ascending, then width descending
		keys.sort(function(a, b){
			return a - b;
		});
		// Step through frames saving only the biggest bottom-up frames
		// thanks to the sort order. This relies on the tree property
		// where children are always smaller than their parents.
		var fudge = 0.0001;	// JavaScript floating point
		for (var k in keys) {
			var x = parseFloat(keys[k]);
			var w = matches[keys[k]];
			if (x >= lastx + lastw - fudge) {
				count += w;
				lastx = x;
				lastw = w;
			}
		}
		// display matched percent
		matchedtxt.classList.remove("hide");
		var pct = 100 * count / maxwidth;
		if (pct != 100) pct = pct.toFixed(1)
		matchedtxt.firstChild.nodeValue = "Matched: " + pct + "%";
	}
]]>
</script>
<rect x="0.0" y="0" width="1200.0" height="331.0" fill="url(#background)"  />
<text id="title" x="600.00" y="26" >Firedrake example</text>
<text id="details" x="10.00" y="313" > </text>
<text id="unzoom" x="10.00" y="26" class="hide">Reset Zoom</text>
<text id="search" x="1090.00" y="26" >Search</text>
<text id="ignorecase" x="1174.00" y="26" >ic</text>
<text id="matched" x="1090.00" y="313" > </text>
<g id="frames">
<g >
<title>ParLoopExecute (5,930,798 us, 10.25%)</title><rect x="456.9" y="119" width="121.0" height="15.0" fill="rgb(0,0,0)" rx="2" ry="2" />
<text  x="459.90" y="129.5" >ParLoopExecute</text>
</g>
<g >
<title>Parloop_set_#x7fef64da6620_wrap_expression_kernel (371,847 us, 0.64%)</title><rect x="86.1" y="135" width="7.6" height="15.0" fill="rgb(0,0,0)" rx="2" ry="2" />
<text  x="89.12" y="145.5" ></text>
</g>
<g >
<title>firedrake.assemble.allocate_matrix (13,794 us, 0.02%)</title><rect x="435.6" y="119" width="0.3" height="15.0" fill="rgb(0,0,0)" rx="2" ry="2" />
<text  x="438.63" y="129.5" ></text>
</g>
<g >
<title>pyop2.global_kernel.GlobalKernel.compile (885,622 us, 1.53%)</title><rect x="28.3" y="135" width="18.1" height="15.0" fill="rgb(0,0,0)" rx="2" ry="2" />
<text  x="31.31" y="145.5" ></text>
</g>
<g >
<title>pyop2.global_kernel.GlobalKernel.compile (3,219,835 us, 5.57%)</title><rect x="603.7" y="151" width="65.6" height="15.0" fill="rgb(0,0,0)" rx="2" ry="2" />
<text  x="606.68" y="161.5" >pyop2...</text>
</g>
<g >
<title>Parloop_Cells_wrap_form10_cell_integral_otherwise (5,198,999 us, 8.99%)</title><rect x="1051.6" y="135" width="106.1" height="15.0" fill="rgb(0,0,0)" rx="2" ry="2" />
<text  x="1054.61" y="145.5" >Parloop_Cel..</text>
</g>
<g >
<title>pyop2.global_kernel.GlobalKernel.compile (4,770,960 us, 8.25%)</title><rect x="954.3" y="151" width="97.3" height="15.0" fill="rgb(0,0,0)" rx="2" ry="2" />
<text  x="957.30" y="161.5" >pyop2.glob..</text>
</g>
<g >
<title>firedrake.functionspacedata.get_shared_data (6,704 us, 0.01%)</title><rect x="46.4" y="135" width="0.1" height="15.0" fill="rgb(0,0,0)" rx="2" ry="2" />
<text  x="49.37" y="145.5" ></text>
</g>
<g >
<title>firedrake (57,853,678 us, 100.00%)</title><rect x="10.0" y="55" width="1180.0" height="15.0" fill="rgb(0,0,0)" rx="2" ry="2" />
<text  x="13.00" y="65.5" >firedrake</text>
</g>
<g >
<title>firedrake.ufl_expr.adjoint (12,494 us, 0.02%)</title><rect x="600.3" y="103" width="0.2" height="15.0" fill="rgb(0,0,0)" rx="2" ry="2" />
<text  x="603.27" y="113.5" ></text>
</g>
<g >
<title>firedrake.norms.norm (7,036,748 us, 12.16%)</title><rect x="456.8" y="87" width="143.5" height="15.0" fill="rgb(0,0,0)" rx="2" ry="2" />
<text  x="459.75" y="97.5" >firedrake.norms...</text>
</g>
<g >
<title>Parloop_Cells_wrap_form00_cell_integral_otherwise (9,900,117 us, 17.11%)</title><rect x="752.2" y="135" width="201.9" height="15.0" fill="rgb(0,0,0)" rx="2" ry="2" />
<text  x="755.22" y="145.5" >Parloop_Cells_wrap_form0..</text>
</g>
<g >
<title>firedrake.norms.errornorm (7,036,748 us, 12.16%)</title><rect x="456.8" y="71" width="143.5" height="15.0" fill="rgb(0,0,0)" rx="2" ry="2" />
<text  x="459.75" y="81.5" >firedrake.norms...</text>
</g>
<g >
<title>firedrake.variational_solver.NonlinearVariationalProblem.__init__ (12,494 us, 0.02%)</title><rect x="600.3" y="87" width="0.2" height="15.0" fill="rgb(0,0,0)" rx="2" ry="2" />
<text  x="603.27" y="97.5" ></text>
</g>
<g >
<title>CreateExtMesh (923,872 us, 1.60%)</title><rect x="27.7" y="71" width="18.8" height="15.0" fill="rgb(0,0,0)" rx="2" ry="2" />
<text  x="30.66" y="81.5" ></text>
</g>
<g >
<title>Log_Event_form1_cell_integral_otherwise (45,591 us, 0.08%)</title><rect x="669.3" y="151" width="1.0" height="15.0" fill="rgb(0,0,0)" rx="2" ry="2" />
<text  x="672.35" y="161.5" ></text>
</g>
<g >
<title>firedrake.tsfc_interface.compile_form (1,098,616 us, 1.90%)</title><rect x="577.9" y="119" width="22.4" height="15.0" fill="rgb(0,0,0)" rx="2" ry="2" />
<text  x="580.87" y="129.5" ></text>
</g>
<g >
<title>SNESJacobianEval (21,463,699 us, 37.10%)</title><rect x="752.2" y="103" width="437.8" height="15.0" fill="rgb(0,0,0)" rx="2" ry="2" />
<text  x="755.22" y="113.5" >SNESJacobianEval</text>
</g>
<g >
<title>KSPSolve (14,240 us, 0.02%)</title><rect x="601.2" y="215" width="0.3" height="15.0" fill="rgb(0,0,0)" rx="2" ry="2" />
<text  x="604.19" y="225.5" ></text>
</g>
<g >
<title>GAMG: createProl (8,269 us, 0.01%)</title><rect x="601.5" y="167" width="0.1" height="15.0" fill="rgb(0,0,0)" rx="2" ry="2" />
<text  x="604.48" y="177.5" ></text>
</g>
<g >
<title>ParLoopExecute (788,405 us, 1.36%)</title><rect x="77.6" y="119" width="16.1" height="15.0" fill="rgb(0,0,0)" rx="2" ry="2" />
<text  x="80.63" y="129.5" ></text>
</g>
<g >
<title>firedrake.assemble.assemble (807,576 us, 1.40%)</title><rect x="77.6" y="71" width="16.5" height="15.0" fill="rgb(0,0,0)" rx="2" ry="2" />
<text  x="80.63" y="81.5" ></text>
</g>
<g >
<title>firedrake.functionspaceimpl.FunctionSpace.__init__ (6,704 us, 0.01%)</title><rect x="46.4" y="119" width="0.1" height="15.0" fill="rgb(0,0,0)" rx="2" ry="2" />
<text  x="49.37" y="129.5" ></text>
</g>
<g >
<title>KSPSetUp (6,022 us, 0.01%)</title><rect x="601.6" y="167" width="0.2" height="15.0" fill="rgb(0,0,0)" rx="2" ry="2" />
<text  x="604.65" y="177.5" ></text>
</g>
<g >
<title>SNESSolve (28,877,848 us, 49.92%)</title><rect x="601.0" y="87" width="589.0" height="15.0" fill="rgb(0,0,0)" rx="2" ry="2" />
<text  x="604.00" y="97.5" >SNESSolve</text>
</g>
<g >
<title>MatMult (14,240 us, 0.02%)</title><rect x="601.2" y="199" width="0.3" height="15.0" fill="rgb(0,0,0)" rx="2" ry="2" />
<text  x="604.19" y="209.5" ></text>
</g>
<g >
<title>firedrake.function.Function.project (17,780,309 us, 30.73%)</title><rect x="94.1" y="71" width="362.7" height="15.0" fill="rgb(0,0,0)" rx="2" ry="2" />
<text  x="97.10" y="81.5" >firedrake.function.Function.project</text>
</g>
<g >
<title>firedrake.assemble_expressions.assemble_expression (807,576 us, 1.40%)</title><rect x="77.6" y="87" width="16.5" height="15.0" fill="rgb(0,0,0)" rx="2" ry="2" />
<text  x="80.63" y="97.5" ></text>
</g>
<g >
<title>firedrake.tsfc_interface.compile_form (455,787 us, 0.79%)</title><rect x="447.5" y="103" width="9.3" height="15.0" fill="rgb(0,0,0)" rx="2" ry="2" />
<text  x="450.45" y="113.5" ></text>
</g>
<g >
<title>firedrake.formmanipulation.ExtractSubBlock.split (8,263 us, 0.01%)</title><rect x="602.0" y="151" width="0.2" height="15.0" fill="rgb(0,0,0)" rx="2" ry="2" />
<text  x="605.04" y="161.5" ></text>
</g>
<g >
<title>firedrake.__init__ (1,504,928 us, 2.60%)</title><rect x="46.9" y="71" width="30.7" height="15.0" fill="rgb(0,0,0)" rx="2" ry="2" />
<text  x="49.93" y="81.5" >fi..</text>
</g>
<g >
<title>CreateSparsity (13,794 us, 0.02%)</title><rect x="435.6" y="135" width="0.3" height="15.0" fill="rgb(0,0,0)" rx="2" ry="2" />
<text  x="438.63" y="145.5" ></text>
</g>
<g >
<title>pyop2.global_kernel.GlobalKernel.compile (5,921,238 us, 10.23%)</title><rect x="457.1" y="151" width="120.8" height="15.0" fill="rgb(0,0,0)" rx="2" ry="2" />
<text  x="460.10" y="161.5" >pyop2.global_..</text>
</g>
<g >
<title>firedrake.variational_solver.NonlinearVariationalProblem.__init__ (21,916 us, 0.04%)</title><rect x="602.2" y="151" width="0.5" height="15.0" fill="rgb(0,0,0)" rx="2" ry="2" />
<text  x="605.21" y="161.5" ></text>
</g>
<g >
<title>pyop2.global_kernel.GlobalKernel.compile (416,558 us, 0.72%)</title><rect x="77.6" y="151" width="8.5" height="15.0" fill="rgb(0,0,0)" rx="2" ry="2" />
<text  x="80.63" y="161.5" ></text>
</g>
<g >
<title>firedrake.assemble_expressions.evaluate_expression (807,576 us, 1.40%)</title><rect x="77.6" y="103" width="16.5" height="15.0" fill="rgb(0,0,0)" rx="2" ry="2" />
<text  x="80.63" y="113.5" ></text>
</g>
<g >
<title>firedrake.formmanipulation.ExtractSubBlock.split (6,777 us, 0.01%)</title><rect x="1189.9" y="151" width="0.1" height="15.0" fill="rgb(0,0,0)" rx="2" ry="2" />
<text  x="1192.86" y="161.5" ></text>
</g>
<g >
<title>CreateSparsity (16,876 us, 0.03%)</title><rect x="600.5" y="103" width="0.4" height="15.0" fill="rgb(0,0,0)" rx="2" ry="2" />
<text  x="603.53" y="113.5" ></text>
</g>
<g >
<title>ParLoopExecute (4,673,323 us, 8.08%)</title><rect x="94.4" y="103" width="95.3" height="15.0" fill="rgb(0,0,0)" rx="2" ry="2" />
<text  x="97.36" y="113.5" >ParLoopExe..</text>
</g>
<g >
<title>firedrake.solving_utils._SNESContext.split (30,179 us, 0.05%)</title><rect x="602.0" y="135" width="0.7" height="15.0" fill="rgb(0,0,0)" rx="2" ry="2" />
<text  x="605.04" y="145.5" ></text>
</g>
<g >
<title>Parloop_Cells_wrap_form01_cell_integral_otherwise (4,778,715 us, 8.26%)</title><rect x="954.1" y="135" width="97.5" height="15.0" fill="rgb(0,0,0)" rx="2" ry="2" />
<text  x="957.15" y="145.5" >Parloop_Ce..</text>
</g>
<g >
<title>firedrake.projection.project (17,780,309 us, 30.73%)</title><rect x="94.1" y="87" width="362.7" height="15.0" fill="rgb(0,0,0)" rx="2" ry="2" />
<text  x="97.10" y="97.5" >firedrake.projection.project</text>
</g>
<g >
<title>firedrake.dmhooks.create_field_decomposition (36,882 us, 0.06%)</title><rect x="601.9" y="119" width="0.8" height="15.0" fill="rgb(0,0,0)" rx="2" ry="2" />
<text  x="604.90" y="129.5" ></text>
</g>
<g >
<title>KSPSolve (14,240 us, 0.02%)</title><rect x="601.2" y="183" width="0.3" height="15.0" fill="rgb(0,0,0)" rx="2" ry="2" />
<text  x="604.19" y="193.5" ></text>
</g>
<g >
<title>CreateFunctionSpace (20,934 us, 0.04%)</title><rect x="46.5" y="71" width="0.4" height="15.0" fill="rgb(0,0,0)" rx="2" ry="2" />
<text  x="49.51" y="81.5" ></text>
</g>
<g >
<title>MatZeroInitial (6,159 us, 0.01%)</title><rect x="600.9" y="103" width="0.1" height="15.0" fill="rgb(0,0,0)" rx="2" ry="2" />
<text  x="603.87" y="113.5" ></text>
</g>
<g >
<title>KSPSolve (14,240 us, 0.02%)</title><rect x="601.2" y="151" width="0.3" height="15.0" fill="rgb(0,0,0)" rx="2" ry="2" />
<text  x="604.19" y="161.5" ></text>
</g>
<g >
<title>Log_Event_form00_cell_integral_otherwise (12,515 us, 0.02%)</title><rect x="189.7" y="151" width="0.2" height="15.0" fill="rgb(0,0,0)" rx="2" ry="2" />
<text  x="192.68" y="161.5" ></text>
</g>
<g >
<title>ParLoopExecute (19,877,831 us, 34.36%)</title><rect x="752.2" y="119" width="405.5" height="15.0" fill="rgb(0,0,0)" rx="2" ry="2" />
<text  x="755.22" y="129.5" >ParLoopExecute</text>
</g>
<g >
<title>KSPSolve_FS_Schu (28,531 us, 0.05%)</title><rect x="601.2" y="135" width="0.6" height="15.0" fill="rgb(0,0,0)" rx="2" ry="2" />
<text  x="604.19" y="145.5" ></text>
</g>
<g >
<title>KSPSolve (37,831 us, 0.07%)</title><rect x="601.0" y="103" width="0.8" height="15.0" fill="rgb(0,0,0)" rx="2" ry="2" />
<text  x="604.00" y="113.5" ></text>
</g>
<g >
<title>KSPSolve (6,599 us, 0.01%)</title><rect x="601.3" y="247" width="0.2" height="15.0" fill="rgb(0,0,0)" rx="2" ry="2" />
<text  x="604.34" y="257.5" ></text>
</g>
<g >
<title>firedrake.extrusion_utils.make_extruded_coords (917,168 us, 1.59%)</title><rect x="27.7" y="87" width="18.7" height="15.0" fill="rgb(0,0,0)" rx="2" ry="2" />
<text  x="30.66" y="97.5" ></text>
</g>
<g >
<title>firedrake.assemble.assemble (7,036,748 us, 12.16%)</title><rect x="456.8" y="103" width="143.5" height="15.0" fill="rgb(0,0,0)" rx="2" ry="2" />
<text  x="459.75" y="113.5" >firedrake.assemb..</text>
</g>
<g >
<title>firedrake.variational_solver.NonlinearVariationalSolver.__init__ (23,035 us, 0.04%)</title><rect x="600.5" y="71" width="0.5" height="15.0" fill="rgb(0,0,0)" rx="2" ry="2" />
<text  x="603.53" y="81.5" ></text>
</g>
<g >
<title>pyop2.global_kernel.GlobalKernel.compile (371,847 us, 0.64%)</title><rect x="86.1" y="151" width="7.6" height="15.0" fill="rgb(0,0,0)" rx="2" ry="2" />
<text  x="89.12" y="161.5" ></text>
</g>
<g >
<title>Parloop_set_#x7fef64d4c9a0_wrap_expression_kernel (416,558 us, 0.72%)</title><rect x="77.6" y="135" width="8.5" height="15.0" fill="rgb(0,0,0)" rx="2" ry="2" />
<text  x="80.63" y="145.5" ></text>
</g>
<g >
<title>firedrake.assemble.allocate_matrix (23,035 us, 0.04%)</title><rect x="600.5" y="87" width="0.5" height="15.0" fill="rgb(0,0,0)" rx="2" ry="2" />
<text  x="603.53" y="97.5" ></text>
</g>
<g >
<title>CreateFunctionSpace (6,704 us, 0.01%)</title><rect x="46.4" y="103" width="0.1" height="15.0" fill="rgb(0,0,0)" rx="2" ry="2" />
<text  x="49.37" y="113.5" ></text>
</g>
<g >
<title>pyop2.caching.disk_cached.&lt;locals&gt;.decorator.&lt;locals&gt;.wrapper (19,171 us, 0.03%)</title><rect x="93.7" y="119" width="0.4" height="15.0" fill="rgb(0,0,0)" rx="2" ry="2" />
<text  x="96.71" y="129.5" ></text>
</g>
<g >
<title>firedrake.functionspace.VectorFunctionSpace (6,704 us, 0.01%)</title><rect x="46.4" y="87" width="0.1" height="15.0" fill="rgb(0,0,0)" rx="2" ry="2" />
<text  x="49.37" y="97.5" ></text>
</g>
<g >
<title>MatSolve (6,599 us, 0.01%)</title><rect x="601.3" y="279" width="0.2" height="15.0" fill="rgb(0,0,0)" rx="2" ry="2" />
<text  x="604.34" y="289.5" ></text>
</g>
<g >
<title>firedrake.variational_solver.LinearVariationalProblem.__init__ (12,494 us, 0.02%)</title><rect x="600.3" y="71" width="0.2" height="15.0" fill="rgb(0,0,0)" rx="2" ry="2" />
<text  x="603.27" y="81.5" ></text>
</g>
<g >
<title>ParLoopExecute (885,622 us, 1.53%)</title><rect x="28.3" y="103" width="18.1" height="15.0" fill="rgb(0,0,0)" rx="2" ry="2" />
<text  x="31.31" y="113.5" ></text>
</g>
<g >
<title>firedrake.ufl_expr.adjoint (21,916 us, 0.04%)</title><rect x="602.2" y="167" width="0.5" height="15.0" fill="rgb(0,0,0)" rx="2" ry="2" />
<text  x="605.21" y="177.5" ></text>
</g>
<g >
<title>PCApply (37,831 us, 0.07%)</title><rect x="601.0" y="119" width="0.8" height="15.0" fill="rgb(0,0,0)" rx="2" ry="2" />
<text  x="604.00" y="129.5" ></text>
</g>
<g >
<title>pyop2.global_kernel.GlobalKernel.compile (12,045,709 us, 20.82%)</title><rect x="189.9" y="151" width="245.7" height="15.0" fill="rgb(0,0,0)" rx="2" ry="2" />
<text  x="192.94" y="161.5" >pyop2.global_kernel.GlobalKern..</text>
</g>
<g >
<title>firedrake.tsfc_interface.compile_form (1,121,686 us, 1.94%)</title><rect x="729.3" y="119" width="22.9" height="15.0" fill="rgb(0,0,0)" rx="2" ry="2" />
<text  x="732.34" y="129.5" ></text>
</g>
<g >
<title>ParLoopExecute (6,211,268 us, 10.74%)</title><rect x="602.7" y="119" width="126.6" height="15.0" fill="rgb(0,0,0)" rx="2" ry="2" />
<text  x="605.66" y="129.5" >ParLoopExecute</text>
</g>
<g >
<title>firedrake.functionspacedata.get_shared_data (20,934 us, 0.04%)</title><rect x="46.5" y="103" width="0.4" height="15.0" fill="rgb(0,0,0)" rx="2" ry="2" />
<text  x="49.51" y="113.5" ></text>
</g>
<g >
<title>pyop2.global_kernel.GlobalKernel.compile (5,192,495 us, 8.98%)</title><rect x="1051.7" y="151" width="106.0" height="15.0" fill="rgb(0,0,0)" rx="2" ry="2" />
<text  x="1054.75" y="161.5" >pyop2.globa..</text>
</g>
<g >
<title>PCApply (6,599 us, 0.01%)</title><rect x="601.3" y="263" width="0.2" height="15.0" fill="rgb(0,0,0)" rx="2" ry="2" />
<text  x="604.34" y="273.5" ></text>
</g>
<g >
<title>Parloop_Cells_wrap_form1_cell_integral_otherwise (2,941,330 us, 5.08%)</title><rect x="669.3" y="135" width="60.0" height="15.0" fill="rgb(0,0,0)" rx="2" ry="2" />
<text  x="672.35" y="145.5" >Parlo..</text>
</g>
<g >
<title>Parloop_Cells_wrap_form_cell_integral_otherwise (5,930,798 us, 10.25%)</title><rect x="456.9" y="135" width="121.0" height="15.0" fill="rgb(0,0,0)" rx="2" ry="2" />
<text  x="459.90" y="145.5" >Parloop_Cells..</text>
</g>
<g >
<title>pyop2.global_kernel.GlobalKernel.compile (4,654,654 us, 8.05%)</title><rect x="94.7" y="135" width="95.0" height="15.0" fill="rgb(0,0,0)" rx="2" ry="2" />
<text  x="97.75" y="145.5" >pyop2.glob..</text>
</g>
<g >
<title>FunctionSpaceData: CreateElement (7,844 us, 0.01%)</title><rect x="46.8" y="135" width="0.1" height="15.0" fill="rgb(0,0,0)" rx="2" ry="2" />
<text  x="49.77" y="145.5" ></text>
</g>
<g >
<title>ParLoopExecute (12,058,224 us, 20.84%)</title><rect x="189.7" y="119" width="245.9" height="15.0" fill="rgb(0,0,0)" rx="2" ry="2" />
<text  x="192.68" y="129.5" >ParLoopExecute</text>
</g>
<g >
<title>SNESFunctionEval (7,332,954 us, 12.68%)</title><rect x="602.7" y="103" width="149.5" height="15.0" fill="rgb(0,0,0)" rx="2" ry="2" />
<text  x="605.66" y="113.5" >SNESFunctionEval</text>
</g>
<g >
<title>PCSetUp (14,291 us, 0.02%)</title><rect x="601.5" y="151" width="0.3" height="15.0" fill="rgb(0,0,0)" rx="2" ry="2" />
<text  x="604.48" y="161.5" ></text>
</g>
<g >
<title>firedrake.formmanipulation.split_form (6,680 us, 0.01%)</title><rect x="752.1" y="135" width="0.1" height="15.0" fill="rgb(0,0,0)" rx="2" ry="2" />
<text  x="755.08" y="145.5" ></text>
</g>
<g >
<title>firedrake.tsfc_interface.compile_form (1,585,868 us, 2.74%)</title><rect x="1157.7" y="119" width="32.3" height="15.0" fill="rgb(0,0,0)" rx="2" ry="2" />
<text  x="1160.65" y="129.5" >fi..</text>
</g>
<g >
<title>Parloop_Cells_wrap_form0_cell_integral_otherwise (3,269,938 us, 5.65%)</title><rect x="602.7" y="135" width="66.6" height="15.0" fill="rgb(0,0,0)" rx="2" ry="2" />
<text  x="605.66" y="145.5" >Parloo..</text>
</g>
<g >
<title>firedrake.assemble.assemble (12,638,159 us, 21.85%)</title><rect x="189.7" y="103" width="257.8" height="15.0" fill="rgb(0,0,0)" rx="2" ry="2" />
<text  x="192.68" y="113.5" >firedrake.assemble.assemble</text>
</g>
<g >
<title>Log_Event_form0_cell_integral_otherwise (50,103 us, 0.09%)</title><rect x="602.7" y="151" width="1.0" height="15.0" fill="rgb(0,0,0)" rx="2" ry="2" />
<text  x="605.66" y="161.5" ></text>
</g>
<g >
<title>Parloop_Cells_wrap_form0_cell_integral_otherwise (4,673,323 us, 8.08%)</title><rect x="94.4" y="119" width="95.3" height="15.0" fill="rgb(0,0,0)" rx="2" ry="2" />
<text  x="97.36" y="129.5" >Parloop_Ce..</text>
</g>
<g >
<title>Parloop_Cells_wrap_pyop2_kernel_uniform_extrusion (885,622 us, 1.53%)</title><rect x="28.3" y="119" width="18.1" height="15.0" fill="rgb(0,0,0)" rx="2" ry="2" />
<text  x="31.31" y="129.5" ></text>
</g>
<g >
<title>firedrake.formmanipulation.ExtractSubBlock.argument (6,777 us, 0.01%)</title><rect x="1189.9" y="167" width="0.1" height="15.0" fill="rgb(0,0,0)" rx="2" ry="2" />
<text  x="1192.86" y="177.5" ></text>
</g>
<g >
<title>Log_Event_form_cell_integral_otherwise (9,560 us, 0.02%)</title><rect x="456.9" y="151" width="0.2" height="15.0" fill="rgb(0,0,0)" rx="2" ry="2" />
<text  x="459.90" y="161.5" ></text>
</g>
<g >
<title>all (57,853,678 us, 100%)</title><rect x="10.0" y="39" width="1180.0" height="15.0" fill="rgb(0,0,0)" rx="2" ry="2" />
<text  x="13.00" y="49.5" ></text>
</g>
<g >
<title>firedrake.formmanipulation.split_form (6,777 us, 0.01%)</title><rect x="1189.9" y="135" width="0.1" height="15.0" fill="rgb(0,0,0)" rx="2" ry="2" />
<text  x="1192.86" y="145.5" ></text>
</g>
<g >
<title>Log_Event_form0_cell_integral_otherwise (18,669 us, 0.03%)</title><rect x="94.4" y="135" width="0.3" height="15.0" fill="rgb(0,0,0)" rx="2" ry="2" />
<text  x="97.36" y="145.5" ></text>
</g>
<g >
<title>PCApply (14,240 us, 0.02%)</title><rect x="601.2" y="167" width="0.3" height="15.0" fill="rgb(0,0,0)" rx="2" ry="2" />
<text  x="604.19" y="177.5" ></text>
</g>
<g >
<title>pyop2.global_kernel.GlobalKernel.compile (2,895,739 us, 5.01%)</title><rect x="670.3" y="151" width="59.0" height="15.0" fill="rgb(0,0,0)" rx="2" ry="2" />
<text  x="673.28" y="161.5" >pyop2..</text>
</g>
<g >
<title>PCSetUp (43,364 us, 0.07%)</title><rect x="601.8" y="103" width="0.9" height="15.0" fill="rgb(0,0,0)" rx="2" ry="2" />
<text  x="604.77" y="113.5" ></text>
</g>
<g >
<title>PCApply (6,599 us, 0.01%)</title><rect x="601.3" y="231" width="0.2" height="15.0" fill="rgb(0,0,0)" rx="2" ry="2" />
<text  x="604.34" y="241.5" ></text>
</g>
<g >
<title>firedrake.tsfc_interface.compile_form (566,141 us, 0.98%)</title><rect x="435.9" y="119" width="11.6" height="15.0" fill="rgb(0,0,0)" rx="2" ry="2" />
<text  x="438.91" y="129.5" ></text>
</g>
<g >
<title>firedrake.functionspacedata.FunctionSpaceData.__init__ (20,934 us, 0.04%)</title><rect x="46.5" y="119" width="0.4" height="15.0" fill="rgb(0,0,0)" rx="2" ry="2" />
<text  x="49.51" y="129.5" ></text>
</g>
<g >
<title>firedrake.functionspaceimpl.FunctionSpace.__init__ (20,934 us, 0.04%)</title><rect x="46.5" y="87" width="0.4" height="15.0" fill="rgb(0,0,0)" rx="2" ry="2" />
<text  x="49.51" y="97.5" ></text>
</g>
<g >
<title>firedrake.functionspacedata.FunctionSpaceData.__init__ (6,704 us, 0.01%)</title><rect x="46.4" y="151" width="0.1" height="15.0" fill="rgb(0,0,0)" rx="2" ry="2" />
<text  x="49.37" y="161.5" ></text>
</g>
<g >
<title>pyop2.global_kernel.GlobalKernel.compile (9,900,117 us, 17.11%)</title><rect x="752.2" y="151" width="201.9" height="15.0" fill="rgb(0,0,0)" rx="2" ry="2" />
<text  x="755.22" y="161.5" >pyop2.global_kernel.Glob..</text>
</g>
<g >
<title>Parloop_Cells_wrap_form00_cell_integral_otherwise (12,058,224 us, 20.84%)</title><rect x="189.7" y="135" width="245.9" height="15.0" fill="rgb(0,0,0)" rx="2" ry="2" />
<text  x="192.68" y="145.5" >Parloop_Cells_wrap_form00_cell..</text>
</g>
<g >
<title>firedrake.variational_solver.NonlinearVariationalSolver.solve (28,877,848 us, 49.92%)</title><rect x="601.0" y="71" width="589.0" height="15.0" fill="rgb(0,0,0)" rx="2" ry="2" />
<text  x="604.00" y="81.5" >firedrake.variational_solver.NonlinearVariationalSolver.solve</text>
</g>
</g>
</svg>
