<?xml version="1.0" standalone="no"?>
<!DOCTYPE svg PUBLIC "-//W3C//DTD SVG 1.1//EN" "http://www.w3.org/Graphics/SVG/1.1/DTD/svg11.dtd">
<svg version="1.1" width="1200" height="331" onload="init(evt)" viewBox="0 0 1200 331" xmlns="http://www.w3.org/2000/svg" xmlns:xlink="http://www.w3.org/1999/xlink">
<!-- Flame graph stack visualization. See https://github.com/brendangregg/FlameGraph for latest version, and http://www.brendangregg.com/flamegraphs.html for examples. -->
<!-- NOTES:  -->
<defs>
	<linearGradient id="background" y1="0" y2="1" x1="0" x2="0" >
		<stop stop-color="#eeeeee" offset="5%" />
		<stop stop-color="#eeeeb0" offset="95%" />
	</linearGradient>
</defs>
<style type="text/css">
	text { font-family:Verdana; font-size:13px; fill:rgb(0,0,0); }
	#search, #ignorecase { opacity:0.1; cursor:pointer; }
	#search:hover, #search.show, #ignorecase:hover, #ignorecase.show { opacity:1; }
	#subtitle { text-anchor:middle; font-color:rgb(160,160,160); }
	#title { text-anchor:middle; font-size:18px}
	#unzoom { cursor:pointer; }
	#frames > *:hover { stroke:black; stroke-width:0.5; cursor:pointer; }
	.hide { display:none; }
	.parent { opacity:0.5; }
</style>
<script type="text/ecmascript">
<![CDATA[
	"use strict";
	var details, searchbtn, unzoombtn, matchedtxt, svg, searching, currentSearchTerm, ignorecase, ignorecaseBtn;
	function init(evt) {
		details = document.getElementById("details").firstChild;
		searchbtn = document.getElementById("search");
		ignorecaseBtn = document.getElementById("ignorecase");
		unzoombtn = document.getElementById("unzoom");
		matchedtxt = document.getElementById("matched");
		svg = document.getElementsByTagName("svg")[0];
		searching = 0;
		currentSearchTerm = null;

		// use GET parameters to restore a flamegraphs state.
		var params = get_params();
		if (params.x && params.y)
			zoom(find_group(document.querySelector('[x="' + params.x + '"][y="' + params.y + '"]')));
                if (params.s) search(params.s);
	}

	// event listeners
	window.addEventListener("click", function(e) {
		var target = find_group(e.target);
		if (target) {
			if (target.nodeName == "a") {
				if (e.ctrlKey === false) return;
				e.preventDefault();
			}
			if (target.classList.contains("parent")) unzoom();
			zoom(target);
			if (!document.querySelector('.parent')) {
				clearzoom();
				return;
			}

			// set parameters for zoom state
			var el = target.querySelector("rect");
			if (el && el.attributes && el.attributes.y && el.attributes._orig_x) {
				var params = get_params()
				params.x = el.attributes._orig_x.value;
				params.y = el.attributes.y.value;
				history.replaceState(null, null, parse_params(params));
			}
		}
		else if (e.target.id == "unzoom") clearzoom();
		else if (e.target.id == "search") search_prompt();
		else if (e.target.id == "ignorecase") toggle_ignorecase();
	}, false)

	// mouse-over for info
	// show
	window.addEventListener("mouseover", function(e) {
		var target = find_group(e.target);
		if (target) details.nodeValue = "Function: " + g_to_text(target);
	}, false)

	// clear
	window.addEventListener("mouseout", function(e) {
		var target = find_group(e.target);
		if (target) details.nodeValue = ' ';
	}, false)

	// ctrl-F for search
	// ctrl-I to toggle case-sensitive search
	window.addEventListener("keydown",function (e) {
		if (e.keyCode === 114 || (e.ctrlKey && e.keyCode === 70)) {
			e.preventDefault();
			search_prompt();
		}
		else if (e.ctrlKey && e.keyCode === 73) {
			e.preventDefault();
			toggle_ignorecase();
		}
	}, false)

	// functions
	function get_params() {
		var params = {};
		var paramsarr = window.location.search.substr(1).split('&');
		for (var i = 0; i < paramsarr.length; ++i) {
			var tmp = paramsarr[i].split("=");
			if (!tmp[0] || !tmp[1]) continue;
			params[tmp[0]]  = decodeURIComponent(tmp[1]);
		}
		return params;
	}
	function parse_params(params) {
		var uri = "?";
		for (var key in params) {
			uri += key + '=' + encodeURIComponent(params[key]) + '&';
		}
		if (uri.slice(-1) == "&")
			uri = uri.substring(0, uri.length - 1);
		if (uri == '?')
			uri = window.location.href.split('?')[0];
		return uri;
	}
	function find_child(node, selector) {
		var children = node.querySelectorAll(selector);
		if (children.length) return children[0];
	}
	function find_group(node) {
		var parent = node.parentElement;
		if (!parent) return;
		if (parent.id == "frames") return node;
		return find_group(parent);
	}
	function orig_save(e, attr, val) {
		if (e.attributes["_orig_" + attr] != undefined) return;
		if (e.attributes[attr] == undefined) return;
		if (val == undefined) val = e.attributes[attr].value;
		e.setAttribute("_orig_" + attr, val);
	}
	function orig_load(e, attr) {
		if (e.attributes["_orig_"+attr] == undefined) return;
		e.attributes[attr].value = e.attributes["_orig_" + attr].value;
		e.removeAttribute("_orig_"+attr);
	}
	function g_to_text(e) {
		var text = find_child(e, "title").firstChild.nodeValue;
		return (text)
	}
	function g_to_func(e) {
		var func = g_to_text(e);
		// if there's any manipulation we want to do to the function
		// name before it's searched, do it here before returning.
		return (func);
	}
	function update_text(e) {
		var r = find_child(e, "rect");
		var t = find_child(e, "text");
		var w = parseFloat(r.attributes.width.value) -3;
		var txt = find_child(e, "title").textContent.replace(/\([^(]*\)$/,"");
		t.attributes.x.value = parseFloat(r.attributes.x.value) + 3;

		// Smaller than this size won't fit anything
		if (w < 2 * 13 * 0.59) {
			t.textContent = "";
			return;
		}

		t.textContent = txt;
		// Fit in full text width
		if (/^ *$/.test(txt) || t.getSubStringLength(0, txt.length) < w)
			return;

		for (var x = txt.length - 2; x > 0; x--) {
			if (t.getSubStringLength(0, x + 2) <= w) {
				t.textContent = txt.substring(0, x) + "..";
				return;
			}
		}
		t.textContent = "";
	}

	// zoom
	function zoom_reset(e) {
		if (e.attributes != undefined) {
			orig_load(e, "x");
			orig_load(e, "width");
		}
		if (e.childNodes == undefined) return;
		for (var i = 0, c = e.childNodes; i < c.length; i++) {
			zoom_reset(c[i]);
		}
	}
	function zoom_child(e, x, ratio) {
		if (e.attributes != undefined) {
			if (e.attributes.x != undefined) {
				orig_save(e, "x");
				e.attributes.x.value = (parseFloat(e.attributes.x.value) - x - 10) * ratio + 10;
				if (e.tagName == "text")
					e.attributes.x.value = find_child(e.parentNode, "rect[x]").attributes.x.value + 3;
			}
			if (e.attributes.width != undefined) {
				orig_save(e, "width");
				e.attributes.width.value = parseFloat(e.attributes.width.value) * ratio;
			}
		}

		if (e.childNodes == undefined) return;
		for (var i = 0, c = e.childNodes; i < c.length; i++) {
			zoom_child(c[i], x - 10, ratio);
		}
	}
	function zoom_parent(e) {
		if (e.attributes) {
			if (e.attributes.x != undefined) {
				orig_save(e, "x");
				e.attributes.x.value = 10;
			}
			if (e.attributes.width != undefined) {
				orig_save(e, "width");
				e.attributes.width.value = parseInt(svg.width.baseVal.value) - (10 * 2);
			}
		}
		if (e.childNodes == undefined) return;
		for (var i = 0, c = e.childNodes; i < c.length; i++) {
			zoom_parent(c[i]);
		}
	}
	function zoom(node) {
		var attr = find_child(node, "rect").attributes;
		var width = parseFloat(attr.width.value);
		var xmin = parseFloat(attr.x.value);
		var xmax = parseFloat(xmin + width);
		var ymin = parseFloat(attr.y.value);
		var ratio = (svg.width.baseVal.value - 2 * 10) / width;

		// XXX: Workaround for JavaScript float issues (fix me)
		var fudge = 0.0001;

		unzoombtn.classList.remove("hide");

		var el = document.getElementById("frames").children;
		for (var i = 0; i < el.length; i++) {
			var e = el[i];
			var a = find_child(e, "rect").attributes;
			var ex = parseFloat(a.x.value);
			var ew = parseFloat(a.width.value);
			var upstack;
			// Is it an ancestor
			if (1 == 0) {
				upstack = parseFloat(a.y.value) > ymin;
			} else {
				upstack = parseFloat(a.y.value) < ymin;
			}
			if (upstack) {
				// Direct ancestor
				if (ex <= xmin && (ex+ew+fudge) >= xmax) {
					e.classList.add("parent");
					zoom_parent(e);
					update_text(e);
				}
				// not in current path
				else
					e.classList.add("hide");
			}
			// Children maybe
			else {
				// no common path
				if (ex < xmin || ex + fudge >= xmax) {
					e.classList.add("hide");
				}
				else {
					zoom_child(e, xmin, ratio);
					update_text(e);
				}
			}
		}
		search();
	}
	function unzoom() {
		unzoombtn.classList.add("hide");
		var el = document.getElementById("frames").children;
		for(var i = 0; i < el.length; i++) {
			el[i].classList.remove("parent");
			el[i].classList.remove("hide");
			zoom_reset(el[i]);
			update_text(el[i]);
		}
		search();
	}
	function clearzoom() {
		unzoom();

		// remove zoom state
		var params = get_params();
		if (params.x) delete params.x;
		if (params.y) delete params.y;
		history.replaceState(null, null, parse_params(params));
	}

	// search
	function toggle_ignorecase() {
		ignorecase = !ignorecase;
		if (ignorecase) {
			ignorecaseBtn.classList.add("show");
		} else {
			ignorecaseBtn.classList.remove("show");
		}
		reset_search();
		search();
	}
	function reset_search() {
		var el = document.querySelectorAll("#frames rect");
		for (var i = 0; i < el.length; i++) {
			orig_load(el[i], "fill")
		}
		var params = get_params();
		delete params.s;
		history.replaceState(null, null, parse_params(params));
	}
	function search_prompt() {
		if (!searching) {
			var term = prompt("Enter a search term (regexp " +
			    "allowed, eg: ^ext4_)"
			    + (ignorecase ? ", ignoring case" : "")
			    + "\nPress Ctrl-i to toggle case sensitivity", "");
			if (term != null) search(term);
		} else {
			reset_search();
			searching = 0;
			currentSearchTerm = null;
			searchbtn.classList.remove("show");
			searchbtn.firstChild.nodeValue = "Search"
			matchedtxt.classList.add("hide");
			matchedtxt.firstChild.nodeValue = ""
		}
	}
	function search(term) {
		if (term) currentSearchTerm = term;

		var re = new RegExp(currentSearchTerm, ignorecase ? 'i' : '');
		var el = document.getElementById("frames").children;
		var matches = new Object();
		var maxwidth = 0;
		for (var i = 0; i < el.length; i++) {
			var e = el[i];
			var func = g_to_func(e);
			var rect = find_child(e, "rect");
			if (func == null || rect == null)
				continue;

			// Save max width. Only works as we have a root frame
			var w = parseFloat(rect.attributes.width.value);
			if (w > maxwidth)
				maxwidth = w;

			if (func.match(re)) {
				// highlight
				var x = parseFloat(rect.attributes.x.value);
				orig_save(rect, "fill");
				rect.attributes.fill.value = "rgb(230,0,230)";

				// remember matches
				if (matches[x] == undefined) {
					matches[x] = w;
				} else {
					if (w > matches[x]) {
						// overwrite with parent
						matches[x] = w;
					}
				}
				searching = 1;
			}
		}
		if (!searching)
			return;
		var params = get_params();
		params.s = currentSearchTerm;
		history.replaceState(null, null, parse_params(params));

		searchbtn.classList.add("show");
		searchbtn.firstChild.nodeValue = "Reset Search";

		// calculate percent matched, excluding vertical overlap
		var count = 0;
		var lastx = -1;
		var lastw = 0;
		var keys = Array();
		for (k in matches) {
			if (matches.hasOwnProperty(k))
				keys.push(k);
		}
		// sort the matched frames by their x location
		// ascending, then width descending
		keys.sort(function(a, b){
			return a - b;
		});
		// Step through frames saving only the biggest bottom-up frames
		// thanks to the sort order. This relies on the tree property
		// where children are always smaller than their parents.
		var fudge = 0.0001;	// JavaScript floating point
		for (var k in keys) {
			var x = parseFloat(keys[k]);
			var w = matches[keys[k]];
			if (x >= lastx + lastw - fudge) {
				count += w;
				lastx = x;
				lastw = w;
			}
		}
		// display matched percent
		matchedtxt.classList.remove("hide");
		var pct = 100 * count / maxwidth;
		if (pct != 100) pct = pct.toFixed(1)
		matchedtxt.firstChild.nodeValue = "Matched: " + pct + "%";
	}
]]>
</script>
<rect x="0.0" y="0" width="1200.0" height="331.0" fill="url(#background)"  />
<text id="title" x="600.00" y="26" >Firedrake example</text>
<text id="details" x="10.00" y="313" > </text>
<text id="unzoom" x="10.00" y="26" class="hide">Reset Zoom</text>
<text id="search" x="1090.00" y="26" >Search</text>
<text id="ignorecase" x="1174.00" y="26" >ic</text>
<text id="matched" x="1090.00" y="313" > </text>
<g id="frames">
<g >
<title>Parloop_Cells_wrap_form1_cell_integral_otherwise (3,113,227 us, 4.20%)</title><rect x="785.0" y="135" width="49.6" height="15.0" fill="rgb(0,0,0)" rx="2" ry="2" />
<text  x="787.96" y="145.5" >Parl..</text>
</g>
<g >
<title>firedrake.tsfc_interface.compile_form (1,109,333 us, 1.50%)</title><rect x="834.6" y="119" width="17.7" height="15.0" fill="rgb(0,0,0)" rx="2" ry="2" />
<text  x="837.57" y="129.5" ></text>
</g>
<g >
<title>firedrake.extrusion_utils.make_extruded_coords (927,665 us, 1.25%)</title><rect x="24.2" y="87" width="14.8" height="15.0" fill="rgb(0,0,0)" rx="2" ry="2" />
<text  x="27.20" y="97.5" ></text>
</g>
<g >
<title>MatMult (1,123,881 us, 1.52%)</title><rect x="456.7" y="199" width="17.9" height="15.0" fill="rgb(0,0,0)" rx="2" ry="2" />
<text  x="459.67" y="209.5" ></text>
</g>
<g >
<title>MatPtAPSymbolic (1,010,210 us, 1.36%)</title><rect x="571.6" y="199" width="16.1" height="15.0" fill="rgb(0,0,0)" rx="2" ry="2" />
<text  x="574.61" y="209.5" ></text>
</g>
<g >
<title>PCGAMG Gal l01 (1,998,225 us, 2.70%)</title><rect x="555.9" y="183" width="31.8" height="15.0" fill="rgb(0,0,0)" rx="2" ry="2" />
<text  x="558.87" y="193.5" >PC..</text>
</g>
<g >
<title>pyop2.global_kernel.GlobalKernel.compile (4,422,995 us, 5.97%)</title><rect x="77.9" y="135" width="70.5" height="15.0" fill="rgb(0,0,0)" rx="2" ry="2" />
<text  x="80.93" y="145.5" >pyop2.g..</text>
</g>
<g >
<title>MatMultAdd (122,429 us, 0.17%)</title><rect x="544.5" y="183" width="2.0" height="15.0" fill="rgb(0,0,0)" rx="2" ry="2" />
<text  x="547.55" y="193.5" ></text>
</g>
<g >
<title>MatResidual (221,936 us, 0.30%)</title><rect x="500.3" y="183" width="3.5" height="15.0" fill="rgb(0,0,0)" rx="2" ry="2" />
<text  x="503.30" y="193.5" ></text>
</g>
<g >
<title>firedrake.assemble.allocate_matrix (16,615 us, 0.02%)</title><rect x="455.7" y="87" width="0.3" height="15.0" fill="rgb(0,0,0)" rx="2" ry="2" />
<text  x="458.69" y="97.5" ></text>
</g>
<g >
<title>firedrake.variational_solver.NonlinearVariationalSolver.__init__ (16,615 us, 0.02%)</title><rect x="455.7" y="71" width="0.3" height="15.0" fill="rgb(0,0,0)" rx="2" ry="2" />
<text  x="458.69" y="81.5" ></text>
</g>
<g >
<title>MatMult (50,280 us, 0.07%)</title><rect x="683.7" y="199" width="0.8" height="15.0" fill="rgb(0,0,0)" rx="2" ry="2" />
<text  x="686.69" y="209.5" ></text>
</g>
<g >
<title>KSPSolve (2,551,110 us, 3.45%)</title><rect x="685.6" y="215" width="40.7" height="15.0" fill="rgb(0,0,0)" rx="2" ry="2" />
<text  x="688.61" y="225.5" >KSP..</text>
</g>
<g >
<title>MatMult (1,124,236 us, 1.52%)</title><rect x="685.8" y="231" width="18.0" height="15.0" fill="rgb(0,0,0)" rx="2" ry="2" />
<text  x="688.85" y="241.5" ></text>
</g>
<g >
<title>SNESJacobianEval (21,193,924 us, 28.62%)</title><rect x="852.3" y="103" width="337.7" height="15.0" fill="rgb(0,0,0)" rx="2" ry="2" />
<text  x="855.25" y="113.5" >SNESJacobianEval</text>
</g>
<g >
<title>MatMultAdd (122,618 us, 0.17%)</title><rect x="726.3" y="215" width="1.9" height="15.0" fill="rgb(0,0,0)" rx="2" ry="2" />
<text  x="729.27" y="225.5" ></text>
</g>
<g >
<title>firedrake.__init__ (1,531,253 us, 2.07%)</title><rect x="39.4" y="71" width="24.4" height="15.0" fill="rgb(0,0,0)" rx="2" ry="2" />
<text  x="42.43" y="81.5" >f..</text>
</g>
<g >
<title>SNESFunctionEval (7,447,433 us, 10.06%)</title><rect x="733.6" y="103" width="118.7" height="15.0" fill="rgb(0,0,0)" rx="2" ry="2" />
<text  x="736.57" y="113.5" >SNESFunctionE..</text>
</g>
<g >
<title>Log_Event_form_cell_integral_otherwise (8,874 us, 0.01%)</title><rect x="352.5" y="151" width="0.1" height="15.0" fill="rgb(0,0,0)" rx="2" ry="2" />
<text  x="355.47" y="161.5" ></text>
</g>
<g >
<title>firedrake.tsfc_interface.compile_form (454,987 us, 0.61%)</title><rect x="345.2" y="103" width="7.3" height="15.0" fill="rgb(0,0,0)" rx="2" ry="2" />
<text  x="348.22" y="113.5" ></text>
</g>
<g >
<title>pyop2.global_kernel.GlobalKernel.compile (3,067,818 us, 4.14%)</title><rect x="785.7" y="151" width="48.9" height="15.0" fill="rgb(0,0,0)" rx="2" ry="2" />
<text  x="788.68" y="161.5" >pyop..</text>
</g>
<g >
<title>firedrake.variational_solver.NonlinearVariationalProblem.__init__ (12,300 us, 0.02%)</title><rect x="455.5" y="87" width="0.2" height="15.0" fill="rgb(0,0,0)" rx="2" ry="2" />
<text  x="458.50" y="97.5" ></text>
</g>
<g >
<title>MatMultAdd (122,866 us, 0.17%)</title><rect x="497.0" y="183" width="2.0" height="15.0" fill="rgb(0,0,0)" rx="2" ry="2" />
<text  x="500.04" y="193.5" ></text>
</g>
<g >
<title>KSPSolve (2,974,792 us, 4.02%)</title><rect x="456.4" y="151" width="47.4" height="15.0" fill="rgb(0,0,0)" rx="2" ry="2" />
<text  x="459.43" y="161.5" >KSPS..</text>
</g>
<g >
<title>FunctionSpaceData: CreateElement (7,792 us, 0.01%)</title><rect x="39.3" y="135" width="0.1" height="15.0" fill="rgb(0,0,0)" rx="2" ry="2" />
<text  x="42.31" y="145.5" ></text>
</g>
<g >
<title>KSPSolve_FS_Schu (2,989,827 us, 4.04%)</title><rect x="685.4" y="135" width="47.7" height="15.0" fill="rgb(0,0,0)" rx="2" ry="2" />
<text  x="688.45" y="145.5" >KSPS..</text>
</g>
<g >
<title>firedrake.functionspace.VectorFunctionSpace (7,609 us, 0.01%)</title><rect x="39.0" y="87" width="0.1" height="15.0" fill="rgb(0,0,0)" rx="2" ry="2" />
<text  x="41.98" y="97.5" ></text>
</g>
<g >
<title>CreateFunctionSpace (20,522 us, 0.03%)</title><rect x="39.1" y="71" width="0.3" height="15.0" fill="rgb(0,0,0)" rx="2" ry="2" />
<text  x="42.10" y="81.5" ></text>
</g>
<g >
<title>ParLoopExecute (19,566,641 us, 26.43%)</title><rect x="852.3" y="119" width="311.8" height="15.0" fill="rgb(0,0,0)" rx="2" ry="2" />
<text  x="855.25" y="129.5" >ParLoopExecute</text>
</g>
<g >
<title>PCGAMG Opt l02 (79,056 us, 0.11%)</title><rect x="552.7" y="215" width="1.2" height="15.0" fill="rgb(0,0,0)" rx="2" ry="2" />
<text  x="555.67" y="225.5" ></text>
</g>
<g >
<title>firedrake.tsfc_interface.compile_form (565,854 us, 0.76%)</title><rect x="336.2" y="119" width="9.0" height="15.0" fill="rgb(0,0,0)" rx="2" ry="2" />
<text  x="339.20" y="129.5" ></text>
</g>
<g >
<title>firedrake.projection.project (17,258,971 us, 23.31%)</title><rect x="77.4" y="87" width="275.1" height="15.0" fill="rgb(0,0,0)" rx="2" ry="2" />
<text  x="80.43" y="97.5" >firedrake.projection.project</text>
</g>
<g >
<title>GAMG: partLevel (8,090,276 us, 10.93%)</title><rect x="554.8" y="167" width="128.9" height="15.0" fill="rgb(0,0,0)" rx="2" ry="2" />
<text  x="557.76" y="177.5" >GAMG: partLevel</text>
</g>
<g >
<title>firedrake.norms.errornorm (6,465,232 us, 8.73%)</title><rect x="352.5" y="71" width="103.0" height="15.0" fill="rgb(0,0,0)" rx="2" ry="2" />
<text  x="355.47" y="81.5" >firedrake.n..</text>
</g>
<g >
<title>Parloop_Cells_wrap_form_cell_integral_otherwise (5,416,946 us, 7.32%)</title><rect x="352.5" y="135" width="86.3" height="15.0" fill="rgb(0,0,0)" rx="2" ry="2" />
<text  x="355.47" y="145.5" >Parloop_C..</text>
</g>
<g >
<title>Parloop_Cells_wrap_form00_cell_integral_otherwise (9,707,333 us, 13.11%)</title><rect x="852.3" y="135" width="154.6" height="15.0" fill="rgb(0,0,0)" rx="2" ry="2" />
<text  x="855.25" y="145.5" >Parloop_Cells_wrap..</text>
</g>
<g >
<title>firedrake.function.Function.project (17,258,971 us, 23.31%)</title><rect x="77.4" y="71" width="275.1" height="15.0" fill="rgb(0,0,0)" rx="2" ry="2" />
<text  x="80.43" y="81.5" >firedrake.function.Function.project</text>
</g>
<g >
<title>CreateSparsity (16,615 us, 0.02%)</title><rect x="455.7" y="103" width="0.3" height="15.0" fill="rgb(0,0,0)" rx="2" ry="2" />
<text  x="458.69" y="113.5" ></text>
</g>
<g >
<title>MatPtAPNumeric (34,775 us, 0.05%)</title><rect x="554.8" y="199" width="0.5" height="15.0" fill="rgb(0,0,0)" rx="2" ry="2" />
<text  x="557.76" y="209.5" ></text>
</g>
<g >
<title>pyop2.global_kernel.GlobalKernel.compile (895,533 us, 1.21%)</title><rect x="24.7" y="135" width="14.3" height="15.0" fill="rgb(0,0,0)" rx="2" ry="2" />
<text  x="27.71" y="145.5" ></text>
</g>
<g >
<title>firedrake.assemble.allocate_matrix (13,525 us, 0.02%)</title><rect x="336.0" y="119" width="0.2" height="15.0" fill="rgb(0,0,0)" rx="2" ry="2" />
<text  x="338.98" y="129.5" ></text>
</g>
<g >
<title>pyop2.global_kernel.GlobalKernel.compile (9,707,333 us, 13.11%)</title><rect x="852.3" y="151" width="154.6" height="15.0" fill="rgb(0,0,0)" rx="2" ry="2" />
<text  x="855.25" y="161.5" >pyop2.global_kerne..</text>
</g>
<g >
<title>firedrake.tsfc_interface.compile_form (1,048,286 us, 1.42%)</title><rect x="438.8" y="119" width="16.7" height="15.0" fill="rgb(0,0,0)" rx="2" ry="2" />
<text  x="441.79" y="129.5" ></text>
</g>
<g >
<title>  Graph (50,055 us, 0.07%)</title><rect x="551.5" y="199" width="0.8" height="15.0" fill="rgb(0,0,0)" rx="2" ry="2" />
<text  x="554.48" y="209.5" ></text>
</g>
<g >
<title>MatMultTranspose (83,373 us, 0.11%)</title><rect x="546.5" y="183" width="1.3" height="15.0" fill="rgb(0,0,0)" rx="2" ry="2" />
<text  x="549.50" y="193.5" ></text>
</g>
<g >
<title>firedrake.functionspacedata.get_shared_data (20,522 us, 0.03%)</title><rect x="39.1" y="103" width="0.3" height="15.0" fill="rgb(0,0,0)" rx="2" ry="2" />
<text  x="42.10" y="113.5" ></text>
</g>
<g >
<title>MatPtAPSymbolic (64,176 us, 0.09%)</title><rect x="682.7" y="199" width="1.0" height="15.0" fill="rgb(0,0,0)" rx="2" ry="2" />
<text  x="685.67" y="209.5" ></text>
</g>
<g >
<title>KSPSolve (1,411,999 us, 1.91%)</title><rect x="703.8" y="247" width="22.5" height="15.0" fill="rgb(0,0,0)" rx="2" ry="2" />
<text  x="706.76" y="257.5" ></text>
</g>
<g >
<title>firedrake.assemble.assemble (6,465,232 us, 8.73%)</title><rect x="352.5" y="103" width="103.0" height="15.0" fill="rgb(0,0,0)" rx="2" ry="2" />
<text  x="355.47" y="113.5" >firedrake.a..</text>
</g>
<g >
<title>pyop2.global_kernel.GlobalKernel.compile (5,408,072 us, 7.30%)</title><rect x="352.6" y="151" width="86.2" height="15.0" fill="rgb(0,0,0)" rx="2" ry="2" />
<text  x="355.61" y="161.5" >pyop2.glo..</text>
</g>
<g >
<title>MatMult (2,979,706 us, 4.02%)</title><rect x="685.6" y="167" width="47.5" height="15.0" fill="rgb(0,0,0)" rx="2" ry="2" />
<text  x="688.61" y="177.5" >MatM..</text>
</g>
<g >
<title>firedrake.variational_solver.LinearVariationalProblem.__init__ (12,300 us, 0.02%)</title><rect x="455.5" y="71" width="0.2" height="15.0" fill="rgb(0,0,0)" rx="2" ry="2" />
<text  x="458.50" y="81.5" ></text>
</g>
<g >
<title>pyop2.global_kernel.GlobalKernel.compile (412,600 us, 0.56%)</title><rect x="70.5" y="151" width="6.6" height="15.0" fill="rgb(0,0,0)" rx="2" ry="2" />
<text  x="73.55" y="161.5" ></text>
</g>
<g >
<title>PCApply (1,409,320 us, 1.90%)</title><rect x="474.6" y="199" width="22.4" height="15.0" fill="rgb(0,0,0)" rx="2" ry="2" />
<text  x="477.58" y="209.5" ></text>
</g>
<g >
<title>MatMult (1,125,981 us, 1.52%)</title><rect x="504.1" y="199" width="17.9" height="15.0" fill="rgb(0,0,0)" rx="2" ry="2" />
<text  x="507.08" y="209.5" ></text>
</g>
<g >
<title>ParLoopExecute (834,084 us, 1.13%)</title><rect x="63.8" y="119" width="13.3" height="15.0" fill="rgb(0,0,0)" rx="2" ry="2" />
<text  x="66.83" y="129.5" ></text>
</g>
<g >
<title>PCApply (60,093 us, 0.08%)</title><rect x="684.5" y="199" width="0.9" height="15.0" fill="rgb(0,0,0)" rx="2" ry="2" />
<text  x="687.49" y="209.5" ></text>
</g>
<g >
<title>PCGAMG Opt l01 (11,461 us, 0.02%)</title><rect x="552.5" y="215" width="0.2" height="15.0" fill="rgb(0,0,0)" rx="2" ry="2" />
<text  x="555.48" y="225.5" ></text>
</g>
<g >
<title>firedrake.assemble_expressions.evaluate_expression (853,137 us, 1.15%)</title><rect x="63.8" y="103" width="13.6" height="15.0" fill="rgb(0,0,0)" rx="2" ry="2" />
<text  x="66.83" y="113.5" ></text>
</g>
<g >
<title>KSPSolve_FS_Low (11,396,304 us, 15.39%)</title><rect x="503.8" y="135" width="181.6" height="15.0" fill="rgb(0,0,0)" rx="2" ry="2" />
<text  x="506.84" y="145.5" >KSPSolve_FS_Low</text>
</g>
<g >
<title>KSPSolve (52,476 us, 0.07%)</title><rect x="553.9" y="199" width="0.9" height="15.0" fill="rgb(0,0,0)" rx="2" ry="2" />
<text  x="556.93" y="209.5" ></text>
</g>
<g >
<title>PCGAMG Gal l00 (69,407 us, 0.09%)</title><rect x="554.8" y="183" width="1.1" height="15.0" fill="rgb(0,0,0)" rx="2" ry="2" />
<text  x="557.76" y="193.5" ></text>
</g>
<g >
<title>firedrake.functionspaceimpl.FunctionSpace.__init__ (20,522 us, 0.03%)</title><rect x="39.1" y="87" width="0.3" height="15.0" fill="rgb(0,0,0)" rx="2" ry="2" />
<text  x="42.10" y="97.5" ></text>
</g>
<g >
<title>GAMG: createProl (214,114 us, 0.29%)</title><rect x="551.4" y="167" width="3.4" height="15.0" fill="rgb(0,0,0)" rx="2" ry="2" />
<text  x="554.35" y="177.5" ></text>
</g>
<g >
<title>PCApply (1,413,663 us, 1.91%)</title><rect x="522.0" y="199" width="22.5" height="15.0" fill="rgb(0,0,0)" rx="2" ry="2" />
<text  x="525.02" y="209.5" ></text>
</g>
<g >
<title>KSPSolve (17,390,540 us, 23.49%)</title><rect x="456.0" y="103" width="277.1" height="15.0" fill="rgb(0,0,0)" rx="2" ry="2" />
<text  x="458.96" y="113.5" >KSPSolve</text>
</g>
<g >
<title>MatMult (221,042 us, 0.30%)</title><rect x="547.8" y="199" width="3.6" height="15.0" fill="rgb(0,0,0)" rx="2" ry="2" />
<text  x="550.83" y="209.5" ></text>
</g>
<g >
<title>MatSOR (1,397,061 us, 1.89%)</title><rect x="704.0" y="279" width="22.3" height="15.0" fill="rgb(0,0,0)" rx="2" ry="2" />
<text  x="707.00" y="289.5" ></text>
</g>
<g >
<title>KSPSolve (60,093 us, 0.08%)</title><rect x="684.5" y="215" width="0.9" height="15.0" fill="rgb(0,0,0)" rx="2" ry="2" />
<text  x="687.49" y="225.5" ></text>
</g>
<g >
<title>PCApply (2,979,706 us, 4.02%)</title><rect x="685.6" y="199" width="47.5" height="15.0" fill="rgb(0,0,0)" rx="2" ry="2" />
<text  x="688.61" y="209.5" >PCAp..</text>
</g>
<g >
<title>firedrake.ufl_expr.adjoint (12,300 us, 0.02%)</title><rect x="455.5" y="103" width="0.2" height="15.0" fill="rgb(0,0,0)" rx="2" ry="2" />
<text  x="458.50" y="113.5" ></text>
</g>
<g >
<title>Parloop_set_#x7f3d60601d80_wrap_expression_kernel (421,484 us, 0.57%)</title><rect x="63.8" y="135" width="6.7" height="15.0" fill="rgb(0,0,0)" rx="2" ry="2" />
<text  x="66.83" y="145.5" ></text>
</g>
<g >
<title>firedrake.formmanipulation.ExtractSubBlock.split (8,094 us, 0.01%)</title><rect x="733.1" y="151" width="0.1" height="15.0" fill="rgb(0,0,0)" rx="2" ry="2" />
<text  x="736.10" y="161.5" ></text>
</g>
<g >
<title>KSPGMRESOrthog (10,066 us, 0.01%)</title><rect x="456.0" y="119" width="0.1" height="15.0" fill="rgb(0,0,0)" rx="2" ry="2" />
<text  x="458.96" y="129.5" ></text>
</g>
<g >
<title>pyop2.global_kernel.GlobalKernel.compile (11,758,019 us, 15.88%)</title><rect x="148.6" y="151" width="187.4" height="15.0" fill="rgb(0,0,0)" rx="2" ry="2" />
<text  x="151.61" y="161.5" >pyop2.global_kernel.Gl..</text>
</g>
<g >
<title>PCGAMG Gal l02 (5,856,429 us, 7.91%)</title><rect x="587.7" y="183" width="93.3" height="15.0" fill="rgb(0,0,0)" rx="2" ry="2" />
<text  x="590.71" y="193.5" >PCGAMG Gal..</text>
</g>
<g >
<title>PCGAMGGraph_AGG (50,055 us, 0.07%)</title><rect x="551.5" y="183" width="0.8" height="15.0" fill="rgb(0,0,0)" rx="2" ry="2" />
<text  x="554.48" y="193.5" ></text>
</g>
<g >
<title>MatResidual (221,042 us, 0.30%)</title><rect x="547.8" y="183" width="3.6" height="15.0" fill="rgb(0,0,0)" rx="2" ry="2" />
<text  x="550.83" y="193.5" ></text>
</g>
<g >
<title>KSPSetUp (110,373 us, 0.15%)</title><rect x="683.7" y="167" width="1.7" height="15.0" fill="rgb(0,0,0)" rx="2" ry="2" />
<text  x="686.69" y="177.5" ></text>
</g>
<g >
<title>Log_Event_form0_cell_integral_otherwise (17,926 us, 0.02%)</title><rect x="77.6" y="135" width="0.3" height="15.0" fill="rgb(0,0,0)" rx="2" ry="2" />
<text  x="80.65" y="145.5" ></text>
</g>
<g >
<title>firedrake.variational_solver.NonlinearVariationalSolver.solve (46,061,571 us, 62.21%)</title><rect x="456.0" y="71" width="734.0" height="15.0" fill="rgb(0,0,0)" rx="2" ry="2" />
<text  x="458.96" y="81.5" >firedrake.variational_solver.NonlinearVariationalSolver.solve</text>
</g>
<g >
<title>pyop2.caching.disk_cached.&lt;locals&gt;.decorator.&lt;locals&gt;.wrapper (19,053 us, 0.03%)</title><rect x="77.1" y="119" width="0.3" height="15.0" fill="rgb(0,0,0)" rx="2" ry="2" />
<text  x="80.12" y="129.5" ></text>
</g>
<g >
<title>MatPtAPSymbolic (34,632 us, 0.05%)</title><rect x="555.3" y="199" width="0.6" height="15.0" fill="rgb(0,0,0)" rx="2" ry="2" />
<text  x="558.32" y="209.5" ></text>
</g>
<g >
<title>CreateFunctionSpace (7,609 us, 0.01%)</title><rect x="39.0" y="103" width="0.1" height="15.0" fill="rgb(0,0,0)" rx="2" ry="2" />
<text  x="41.98" y="113.5" ></text>
</g>
<g >
<title>PCApply (2,974,792 us, 4.02%)</title><rect x="456.4" y="167" width="47.4" height="15.0" fill="rgb(0,0,0)" rx="2" ry="2" />
<text  x="459.43" y="177.5" >PCAp..</text>
</g>
<g >
<title>firedrake.formmanipulation.split_form (9,049 us, 0.01%)</title><rect x="1189.9" y="135" width="0.1" height="15.0" fill="rgb(0,0,0)" rx="2" ry="2" />
<text  x="1192.86" y="145.5" ></text>
</g>
<g >
<title>MatConvert (18,512 us, 0.03%)</title><rect x="552.0" y="215" width="0.3" height="15.0" fill="rgb(0,0,0)" rx="2" ry="2" />
<text  x="554.98" y="225.5" ></text>
</g>
<g >
<title>Log_Event_form0_cell_integral_otherwise (59,091 us, 0.08%)</title><rect x="733.6" y="151" width="0.9" height="15.0" fill="rgb(0,0,0)" rx="2" ry="2" />
<text  x="736.57" y="161.5" ></text>
</g>
<g >
<title>KSPSolve (2,554,697 us, 3.45%)</title><rect x="503.8" y="183" width="40.7" height="15.0" fill="rgb(0,0,0)" rx="2" ry="2" />
<text  x="506.84" y="193.5" >KSP..</text>
</g>
<g >
<title>MatSOR (1,398,693 us, 1.89%)</title><rect x="522.3" y="247" width="22.2" height="15.0" fill="rgb(0,0,0)" rx="2" ry="2" />
<text  x="525.26" y="257.5" ></text>
</g>
<g >
<title>PCApply (2,981,541 us, 4.03%)</title><rect x="503.8" y="167" width="47.6" height="15.0" fill="rgb(0,0,0)" rx="2" ry="2" />
<text  x="506.84" y="177.5" >PCAp..</text>
</g>
<g >
<title>firedrake (74,045,796 us, 100.00%)</title><rect x="10.0" y="55" width="1180.0" height="15.0" fill="rgb(0,0,0)" rx="2" ry="2" />
<text  x="13.00" y="65.5" >firedrake</text>
</g>
<g >
<title>firedrake.functionspacedata.FunctionSpaceData.__init__ (20,522 us, 0.03%)</title><rect x="39.1" y="119" width="0.3" height="15.0" fill="rgb(0,0,0)" rx="2" ry="2" />
<text  x="42.10" y="129.5" ></text>
</g>
<g >
<title>pyop2.global_kernel.GlobalKernel.compile (421,484 us, 0.57%)</title><rect x="63.8" y="151" width="6.7" height="15.0" fill="rgb(0,0,0)" rx="2" ry="2" />
<text  x="66.83" y="161.5" ></text>
</g>
<g >
<title>KSPSolve (2,979,706 us, 4.02%)</title><rect x="685.6" y="183" width="47.5" height="15.0" fill="rgb(0,0,0)" rx="2" ry="2" />
<text  x="688.61" y="193.5" >KSPS..</text>
</g>
<g >
<title>MatPtAPNumeric (102,039 us, 0.14%)</title><rect x="681.0" y="199" width="1.7" height="15.0" fill="rgb(0,0,0)" rx="2" ry="2" />
<text  x="684.04" y="209.5" ></text>
</g>
<g >
<title>firedrake.formmanipulation.ExtractSubBlock.split (9,049 us, 0.01%)</title><rect x="1189.9" y="151" width="0.1" height="15.0" fill="rgb(0,0,0)" rx="2" ry="2" />
<text  x="1192.86" y="161.5" ></text>
</g>
<g >
<title>PCApply (60,093 us, 0.08%)</title><rect x="684.5" y="231" width="0.9" height="15.0" fill="rgb(0,0,0)" rx="2" ry="2" />
<text  x="687.49" y="241.5" ></text>
</g>
<g >
<title>PCApply (17,369,554 us, 23.46%)</title><rect x="456.3" y="119" width="276.8" height="15.0" fill="rgb(0,0,0)" rx="2" ry="2" />
<text  x="459.29" y="129.5" >PCApply</text>
</g>
<g >
<title>firedrake.variational_solver.NonlinearVariationalProblem.__init__ (21,580 us, 0.03%)</title><rect x="733.2" y="151" width="0.4" height="15.0" fill="rgb(0,0,0)" rx="2" ry="2" />
<text  x="736.23" y="161.5" ></text>
</g>
<g >
<title>PCApply (1,394,322 us, 1.88%)</title><rect x="474.8" y="231" width="22.2" height="15.0" fill="rgb(0,0,0)" rx="2" ry="2" />
<text  x="477.82" y="241.5" ></text>
</g>
<g >
<title>PCGAMGPOpt_AGG (156,144 us, 0.21%)</title><rect x="552.3" y="183" width="2.5" height="15.0" fill="rgb(0,0,0)" rx="2" ry="2" />
<text  x="555.28" y="193.5" ></text>
</g>
<g >
<title>MatMult (10,920 us, 0.01%)</title><rect x="456.1" y="119" width="0.2" height="15.0" fill="rgb(0,0,0)" rx="2" ry="2" />
<text  x="459.12" y="129.5" ></text>
</g>
<g >
<title>PCSetUp (8,414,763 us, 11.36%)</title><rect x="551.4" y="151" width="134.0" height="15.0" fill="rgb(0,0,0)" rx="2" ry="2" />
<text  x="554.35" y="161.5" >PCSetUp</text>
</g>
<g >
<title>PCApply (1,397,061 us, 1.89%)</title><rect x="704.0" y="263" width="22.3" height="15.0" fill="rgb(0,0,0)" rx="2" ry="2" />
<text  x="707.00" y="273.5" ></text>
</g>
<g >
<title>ParLoopExecute (895,533 us, 1.21%)</title><rect x="24.7" y="103" width="14.3" height="15.0" fill="rgb(0,0,0)" rx="2" ry="2" />
<text  x="27.71" y="113.5" ></text>
</g>
<g >
<title>CreateExtMesh (935,274 us, 1.26%)</title><rect x="24.2" y="71" width="14.9" height="15.0" fill="rgb(0,0,0)" rx="2" ry="2" />
<text  x="27.20" y="81.5" ></text>
</g>
<g >
<title>MatResidual (222,381 us, 0.30%)</title><rect x="729.6" y="215" width="3.5" height="15.0" fill="rgb(0,0,0)" rx="2" ry="2" />
<text  x="732.55" y="225.5" ></text>
</g>
<g >
<title>firedrake.assemble_expressions.assemble_expression (853,137 us, 1.15%)</title><rect x="63.8" y="87" width="13.6" height="15.0" fill="rgb(0,0,0)" rx="2" ry="2" />
<text  x="66.83" y="97.5" ></text>
</g>
<g >
<title>  SA: smooth (103,668 us, 0.14%)</title><rect x="552.3" y="199" width="1.6" height="15.0" fill="rgb(0,0,0)" rx="2" ry="2" />
<text  x="555.28" y="209.5" ></text>
</g>
<g >
<title>PCSetUp (29,674 us, 0.04%)</title><rect x="733.1" y="103" width="0.5" height="15.0" fill="rgb(0,0,0)" rx="2" ry="2" />
<text  x="736.10" y="113.5" ></text>
</g>
<g >
<title>Log_Event_form00_cell_integral_otherwise (11,879 us, 0.02%)</title><rect x="148.4" y="151" width="0.2" height="15.0" fill="rgb(0,0,0)" rx="2" ry="2" />
<text  x="151.42" y="161.5" ></text>
</g>
<g >
<title>MatSOR (60,093 us, 0.08%)</title><rect x="684.5" y="247" width="0.9" height="15.0" fill="rgb(0,0,0)" rx="2" ry="2" />
<text  x="687.49" y="257.5" ></text>
</g>
<g >
<title>PCApply (1,398,693 us, 1.89%)</title><rect x="522.3" y="231" width="22.2" height="15.0" fill="rgb(0,0,0)" rx="2" ry="2" />
<text  x="525.26" y="241.5" ></text>
</g>
<g >
<title>KSPSolve (2,981,541 us, 4.03%)</title><rect x="503.8" y="151" width="47.6" height="15.0" fill="rgb(0,0,0)" rx="2" ry="2" />
<text  x="506.84" y="161.5" >KSPS..</text>
</g>
<g >
<title>firedrake.assemble.assemble (12,349,277 us, 16.68%)</title><rect x="148.4" y="103" width="196.8" height="15.0" fill="rgb(0,0,0)" rx="2" ry="2" />
<text  x="151.42" y="113.5" >firedrake.assemble.asse..</text>
</g>
<g >
<title>KSPSolve_FS_0 (2,974,792 us, 4.02%)</title><rect x="456.4" y="135" width="47.4" height="15.0" fill="rgb(0,0,0)" rx="2" ry="2" />
<text  x="459.43" y="145.5" >KSPS..</text>
</g>
<g >
<title>MatPtAPNumeric (988,015 us, 1.33%)</title><rect x="555.9" y="199" width="15.7" height="15.0" fill="rgb(0,0,0)" rx="2" ry="2" />
<text  x="558.87" y="209.5" ></text>
</g>
<g >
<title>MatMultTranspose (81,988 us, 0.11%)</title><rect x="499.0" y="183" width="1.3" height="15.0" fill="rgb(0,0,0)" rx="2" ry="2" />
<text  x="501.99" y="193.5" ></text>
</g>
<g >
<title>CreateSparsity (13,525 us, 0.02%)</title><rect x="336.0" y="135" width="0.2" height="15.0" fill="rgb(0,0,0)" rx="2" ry="2" />
<text  x="338.98" y="145.5" ></text>
</g>
<g >
<title>Parloop_Cells_wrap_form0_cell_integral_otherwise (3,224,873 us, 4.36%)</title><rect x="733.6" y="135" width="51.4" height="15.0" fill="rgb(0,0,0)" rx="2" ry="2" />
<text  x="736.57" y="145.5" >Parl..</text>
</g>
<g >
<title>KSPSolve (2,548,002 us, 3.44%)</title><rect x="456.4" y="183" width="40.6" height="15.0" fill="rgb(0,0,0)" rx="2" ry="2" />
<text  x="459.43" y="193.5" >KSP..</text>
</g>
<g >
<title>Parloop_Cells_wrap_form10_cell_integral_otherwise (5,131,142 us, 6.93%)</title><rect x="1082.3" y="135" width="81.8" height="15.0" fill="rgb(0,0,0)" rx="2" ry="2" />
<text  x="1085.30" y="145.5" >Parloop_..</text>
</g>
<g >
<title>Log_Event_form1_cell_integral_otherwise (45,409 us, 0.06%)</title><rect x="785.0" y="151" width="0.7" height="15.0" fill="rgb(0,0,0)" rx="2" ry="2" />
<text  x="787.96" y="161.5" ></text>
</g>
<g >
<title>Parloop_Cells_wrap_pyop2_kernel_uniform_extrusion (895,533 us, 1.21%)</title><rect x="24.7" y="119" width="14.3" height="15.0" fill="rgb(0,0,0)" rx="2" ry="2" />
<text  x="27.71" y="129.5" ></text>
</g>
<g >
<title>Parloop_Cells_wrap_form0_cell_integral_otherwise (4,440,921 us, 6.00%)</title><rect x="77.6" y="119" width="70.8" height="15.0" fill="rgb(0,0,0)" rx="2" ry="2" />
<text  x="80.65" y="129.5" >Parloop..</text>
</g>
<g >
<title>MatMatMultSym (11,461 us, 0.02%)</title><rect x="552.5" y="231" width="0.2" height="15.0" fill="rgb(0,0,0)" rx="2" ry="2" />
<text  x="555.48" y="241.5" ></text>
</g>
<g >
<title>firedrake.assemble.assemble (853,137 us, 1.15%)</title><rect x="63.8" y="71" width="13.6" height="15.0" fill="rgb(0,0,0)" rx="2" ry="2" />
<text  x="66.83" y="81.5" ></text>
</g>
<g >
<title>ParLoopExecute (6,338,100 us, 8.56%)</title><rect x="733.6" y="119" width="101.0" height="15.0" fill="rgb(0,0,0)" rx="2" ry="2" />
<text  x="736.57" y="129.5" >ParLoopExec..</text>
</g>
<g >
<title>KSPSolve (110,373 us, 0.15%)</title><rect x="683.7" y="183" width="1.7" height="15.0" fill="rgb(0,0,0)" rx="2" ry="2" />
<text  x="686.69" y="193.5" ></text>
</g>
<g >
<title>ParLoopExecute (4,440,921 us, 6.00%)</title><rect x="77.6" y="103" width="70.8" height="15.0" fill="rgb(0,0,0)" rx="2" ry="2" />
<text  x="80.65" y="113.5" >ParLoop..</text>
</g>
<g >
<title>PCGAMG Gal l03 (166,215 us, 0.22%)</title><rect x="681.0" y="183" width="2.7" height="15.0" fill="rgb(0,0,0)" rx="2" ry="2" />
<text  x="684.04" y="193.5" ></text>
</g>
<g >
<title>MatMatMultNum (10,586 us, 0.01%)</title><rect x="552.7" y="231" width="0.1" height="15.0" fill="rgb(0,0,0)" rx="2" ry="2" />
<text  x="555.67" y="241.5" ></text>
</g>
<g >
<title>firedrake.ufl_expr.adjoint (21,580 us, 0.03%)</title><rect x="733.2" y="167" width="0.4" height="15.0" fill="rgb(0,0,0)" rx="2" ry="2" />
<text  x="736.23" y="177.5" ></text>
</g>
<g >
<title>MatGetSymTrans (9,785 us, 0.01%)</title><rect x="680.9" y="215" width="0.1" height="15.0" fill="rgb(0,0,0)" rx="2" ry="2" />
<text  x="683.89" y="225.5" ></text>
</g>
<g >
<title>PCApply (1,411,999 us, 1.91%)</title><rect x="703.8" y="231" width="22.5" height="15.0" fill="rgb(0,0,0)" rx="2" ry="2" />
<text  x="706.76" y="241.5" ></text>
</g>
<g >
<title>ParLoopExecute (5,416,946 us, 7.32%)</title><rect x="352.5" y="119" width="86.3" height="15.0" fill="rgb(0,0,0)" rx="2" ry="2" />
<text  x="355.47" y="129.5" >ParLoopEx..</text>
</g>
<g >
<title>all (74,045,796 us, 100%)</title><rect x="10.0" y="39" width="1180.0" height="15.0" fill="rgb(0,0,0)" rx="2" ry="2" />
<text  x="13.00" y="49.5" ></text>
</g>
<g >
<title>ParLoopExecute (11,769,898 us, 15.90%)</title><rect x="148.4" y="119" width="187.6" height="15.0" fill="rgb(0,0,0)" rx="2" ry="2" />
<text  x="151.42" y="129.5" >ParLoopExecute</text>
</g>
<g >
<title>MatMult (221,936 us, 0.30%)</title><rect x="500.3" y="199" width="3.5" height="15.0" fill="rgb(0,0,0)" rx="2" ry="2" />
<text  x="503.30" y="209.5" ></text>
</g>
<g >
<title>Parloop_Cells_wrap_form01_cell_integral_otherwise (4,728,166 us, 6.39%)</title><rect x="1006.9" y="135" width="75.4" height="15.0" fill="rgb(0,0,0)" rx="2" ry="2" />
<text  x="1009.95" y="145.5" >Parloop..</text>
</g>
<g >
<title>MatPtAPNumeric (3,256,994 us, 4.40%)</title><rect x="587.7" y="199" width="51.9" height="15.0" fill="rgb(0,0,0)" rx="2" ry="2" />
<text  x="590.71" y="209.5" >MatP..</text>
</g>
<g >
<title>pyop2.global_kernel.GlobalKernel.compile (5,131,142 us, 6.93%)</title><rect x="1082.3" y="151" width="81.8" height="15.0" fill="rgb(0,0,0)" rx="2" ry="2" />
<text  x="1085.30" y="161.5" >pyop2.gl..</text>
</g>
<g >
<title>Parloop_Cells_wrap_form00_cell_integral_otherwise (11,769,898 us, 15.90%)</title><rect x="148.4" y="135" width="187.6" height="15.0" fill="rgb(0,0,0)" rx="2" ry="2" />
<text  x="151.42" y="145.5" >Parloop_Cells_wrap_for..</text>
</g>
<g >
<title>SNESSolve (46,061,571 us, 62.21%)</title><rect x="456.0" y="87" width="734.0" height="15.0" fill="rgb(0,0,0)" rx="2" ry="2" />
<text  x="458.96" y="97.5" >SNESSolve</text>
</g>
<g >
<title>firedrake.dmhooks.create_field_decomposition (29,674 us, 0.04%)</title><rect x="733.1" y="119" width="0.5" height="15.0" fill="rgb(0,0,0)" rx="2" ry="2" />
<text  x="736.10" y="129.5" ></text>
</g>
<g >
<title>MatMult (222,381 us, 0.30%)</title><rect x="729.6" y="231" width="3.5" height="15.0" fill="rgb(0,0,0)" rx="2" ry="2" />
<text  x="732.55" y="241.5" ></text>
</g>
<g >
<title>KSPSolve (2,989,827 us, 4.04%)</title><rect x="685.4" y="151" width="47.7" height="15.0" fill="rgb(0,0,0)" rx="2" ry="2" />
<text  x="688.45" y="161.5" >KSPS..</text>
</g>
<g >
<title>firedrake.solving_utils._SNESContext.split (29,674 us, 0.04%)</title><rect x="733.1" y="135" width="0.5" height="15.0" fill="rgb(0,0,0)" rx="2" ry="2" />
<text  x="736.10" y="145.5" ></text>
</g>
<g >
<title>MatMatMultSym (68,470 us, 0.09%)</title><rect x="552.8" y="231" width="1.1" height="15.0" fill="rgb(0,0,0)" rx="2" ry="2" />
<text  x="555.84" y="241.5" ></text>
</g>
<g >
<title>KSPSolve (1,413,663 us, 1.91%)</title><rect x="522.0" y="215" width="22.5" height="15.0" fill="rgb(0,0,0)" rx="2" ry="2" />
<text  x="525.02" y="225.5" ></text>
</g>
<g >
<title>MatMultTranspose (83,597 us, 0.11%)</title><rect x="728.2" y="215" width="1.4" height="15.0" fill="rgb(0,0,0)" rx="2" ry="2" />
<text  x="731.22" y="225.5" ></text>
</g>
<g >
<title>pyop2.global_kernel.GlobalKernel.compile (4,720,457 us, 6.38%)</title><rect x="1007.1" y="151" width="75.2" height="15.0" fill="rgb(0,0,0)" rx="2" ry="2" />
<text  x="1010.07" y="161.5" >pyop2.g..</text>
</g>
<g >
<title>KSPSolve (1,409,320 us, 1.90%)</title><rect x="474.6" y="215" width="22.4" height="15.0" fill="rgb(0,0,0)" rx="2" ry="2" />
<text  x="477.58" y="225.5" ></text>
</g>
<g >
<title>firedrake.tsfc_interface.compile_form (1,627,283 us, 2.20%)</title><rect x="1164.1" y="119" width="25.9" height="15.0" fill="rgb(0,0,0)" rx="2" ry="2" />
<text  x="1167.07" y="129.5" >f..</text>
</g>
<g >
<title>MatSOR (1,394,322 us, 1.88%)</title><rect x="474.8" y="247" width="22.2" height="15.0" fill="rgb(0,0,0)" rx="2" ry="2" />
<text  x="477.82" y="257.5" ></text>
</g>
<g >
<title>MatPtAPSymbolic (2,599,435 us, 3.51%)</title><rect x="639.6" y="199" width="41.4" height="15.0" fill="rgb(0,0,0)" rx="2" ry="2" />
<text  x="642.62" y="209.5" >Mat..</text>
</g>
<g >
<title>pyop2.global_kernel.GlobalKernel.compile (3,165,782 us, 4.28%)</title><rect x="734.5" y="151" width="50.5" height="15.0" fill="rgb(0,0,0)" rx="2" ry="2" />
<text  x="737.51" y="161.5" >pyop..</text>
</g>
<g >
<title>Parloop_set_#x7f3d606033a0_wrap_expression_kernel (412,600 us, 0.56%)</title><rect x="70.5" y="135" width="6.6" height="15.0" fill="rgb(0,0,0)" rx="2" ry="2" />
<text  x="73.55" y="145.5" ></text>
</g>
<g >
<title>MatMult (52,476 us, 0.07%)</title><rect x="553.9" y="215" width="0.9" height="15.0" fill="rgb(0,0,0)" rx="2" ry="2" />
<text  x="556.93" y="225.5" ></text>
</g>
<g >
<title>firedrake.norms.norm (6,465,232 us, 8.73%)</title><rect x="352.5" y="87" width="103.0" height="15.0" fill="rgb(0,0,0)" rx="2" ry="2" />
<text  x="355.47" y="97.5" >firedrake.n..</text>
</g>
</g>
</svg>
