<?xml version="1.0" standalone="no"?>
<!DOCTYPE svg PUBLIC "-//W3C//DTD SVG 1.1//EN" "http://www.w3.org/Graphics/SVG/1.1/DTD/svg11.dtd">
<svg version="1.1" width="1200" height="331" onload="init(evt)" viewBox="0 0 1200 331" xmlns="http://www.w3.org/2000/svg" xmlns:xlink="http://www.w3.org/1999/xlink">
<!-- Flame graph stack visualization. See https://github.com/brendangregg/FlameGraph for latest version, and http://www.brendangregg.com/flamegraphs.html for examples. -->
<!-- NOTES:  -->
<defs>
	<linearGradient id="background" y1="0" y2="1" x1="0" x2="0" >
		<stop stop-color="#eeeeee" offset="5%" />
		<stop stop-color="#eeeeb0" offset="95%" />
	</linearGradient>
</defs>
<style type="text/css">
	text { font-family:Verdana; font-size:13px; fill:rgb(0,0,0); }
	#search, #ignorecase { opacity:0.1; cursor:pointer; }
	#search:hover, #search.show, #ignorecase:hover, #ignorecase.show { opacity:1; }
	#subtitle { text-anchor:middle; font-color:rgb(160,160,160); }
	#title { text-anchor:middle; font-size:18px}
	#unzoom { cursor:pointer; }
	#frames > *:hover { stroke:black; stroke-width:0.5; cursor:pointer; }
	.hide { display:none; }
	.parent { opacity:0.5; }
</style>
<script type="text/ecmascript">
<![CDATA[
	"use strict";
	var details, searchbtn, unzoombtn, matchedtxt, svg, searching, currentSearchTerm, ignorecase, ignorecaseBtn;
	function init(evt) {
		details = document.getElementById("details").firstChild;
		searchbtn = document.getElementById("search");
		ignorecaseBtn = document.getElementById("ignorecase");
		unzoombtn = document.getElementById("unzoom");
		matchedtxt = document.getElementById("matched");
		svg = document.getElementsByTagName("svg")[0];
		searching = 0;
		currentSearchTerm = null;

		// use GET parameters to restore a flamegraphs state.
		var params = get_params();
		if (params.x && params.y)
			zoom(find_group(document.querySelector('[x="' + params.x + '"][y="' + params.y + '"]')));
                if (params.s) search(params.s);
	}

	// event listeners
	window.addEventListener("click", function(e) {
		var target = find_group(e.target);
		if (target) {
			if (target.nodeName == "a") {
				if (e.ctrlKey === false) return;
				e.preventDefault();
			}
			if (target.classList.contains("parent")) unzoom();
			zoom(target);
			if (!document.querySelector('.parent')) {
				clearzoom();
				return;
			}

			// set parameters for zoom state
			var el = target.querySelector("rect");
			if (el && el.attributes && el.attributes.y && el.attributes._orig_x) {
				var params = get_params()
				params.x = el.attributes._orig_x.value;
				params.y = el.attributes.y.value;
				history.replaceState(null, null, parse_params(params));
			}
		}
		else if (e.target.id == "unzoom") clearzoom();
		else if (e.target.id == "search") search_prompt();
		else if (e.target.id == "ignorecase") toggle_ignorecase();
	}, false)

	// mouse-over for info
	// show
	window.addEventListener("mouseover", function(e) {
		var target = find_group(e.target);
		if (target) details.nodeValue = "Function: " + g_to_text(target);
	}, false)

	// clear
	window.addEventListener("mouseout", function(e) {
		var target = find_group(e.target);
		if (target) details.nodeValue = ' ';
	}, false)

	// ctrl-F for search
	// ctrl-I to toggle case-sensitive search
	window.addEventListener("keydown",function (e) {
		if (e.keyCode === 114 || (e.ctrlKey && e.keyCode === 70)) {
			e.preventDefault();
			search_prompt();
		}
		else if (e.ctrlKey && e.keyCode === 73) {
			e.preventDefault();
			toggle_ignorecase();
		}
	}, false)

	// functions
	function get_params() {
		var params = {};
		var paramsarr = window.location.search.substr(1).split('&');
		for (var i = 0; i < paramsarr.length; ++i) {
			var tmp = paramsarr[i].split("=");
			if (!tmp[0] || !tmp[1]) continue;
			params[tmp[0]]  = decodeURIComponent(tmp[1]);
		}
		return params;
	}
	function parse_params(params) {
		var uri = "?";
		for (var key in params) {
			uri += key + '=' + encodeURIComponent(params[key]) + '&';
		}
		if (uri.slice(-1) == "&")
			uri = uri.substring(0, uri.length - 1);
		if (uri == '?')
			uri = window.location.href.split('?')[0];
		return uri;
	}
	function find_child(node, selector) {
		var children = node.querySelectorAll(selector);
		if (children.length) return children[0];
	}
	function find_group(node) {
		var parent = node.parentElement;
		if (!parent) return;
		if (parent.id == "frames") return node;
		return find_group(parent);
	}
	function orig_save(e, attr, val) {
		if (e.attributes["_orig_" + attr] != undefined) return;
		if (e.attributes[attr] == undefined) return;
		if (val == undefined) val = e.attributes[attr].value;
		e.setAttribute("_orig_" + attr, val);
	}
	function orig_load(e, attr) {
		if (e.attributes["_orig_"+attr] == undefined) return;
		e.attributes[attr].value = e.attributes["_orig_" + attr].value;
		e.removeAttribute("_orig_"+attr);
	}
	function g_to_text(e) {
		var text = find_child(e, "title").firstChild.nodeValue;
		return (text)
	}
	function g_to_func(e) {
		var func = g_to_text(e);
		// if there's any manipulation we want to do to the function
		// name before it's searched, do it here before returning.
		return (func);
	}
	function update_text(e) {
		var r = find_child(e, "rect");
		var t = find_child(e, "text");
		var w = parseFloat(r.attributes.width.value) -3;
		var txt = find_child(e, "title").textContent.replace(/\([^(]*\)$/,"");
		t.attributes.x.value = parseFloat(r.attributes.x.value) + 3;

		// Smaller than this size won't fit anything
		if (w < 2 * 13 * 0.59) {
			t.textContent = "";
			return;
		}

		t.textContent = txt;
		// Fit in full text width
		if (/^ *$/.test(txt) || t.getSubStringLength(0, txt.length) < w)
			return;

		for (var x = txt.length - 2; x > 0; x--) {
			if (t.getSubStringLength(0, x + 2) <= w) {
				t.textContent = txt.substring(0, x) + "..";
				return;
			}
		}
		t.textContent = "";
	}

	// zoom
	function zoom_reset(e) {
		if (e.attributes != undefined) {
			orig_load(e, "x");
			orig_load(e, "width");
		}
		if (e.childNodes == undefined) return;
		for (var i = 0, c = e.childNodes; i < c.length; i++) {
			zoom_reset(c[i]);
		}
	}
	function zoom_child(e, x, ratio) {
		if (e.attributes != undefined) {
			if (e.attributes.x != undefined) {
				orig_save(e, "x");
				e.attributes.x.value = (parseFloat(e.attributes.x.value) - x - 10) * ratio + 10;
				if (e.tagName == "text")
					e.attributes.x.value = find_child(e.parentNode, "rect[x]").attributes.x.value + 3;
			}
			if (e.attributes.width != undefined) {
				orig_save(e, "width");
				e.attributes.width.value = parseFloat(e.attributes.width.value) * ratio;
			}
		}

		if (e.childNodes == undefined) return;
		for (var i = 0, c = e.childNodes; i < c.length; i++) {
			zoom_child(c[i], x - 10, ratio);
		}
	}
	function zoom_parent(e) {
		if (e.attributes) {
			if (e.attributes.x != undefined) {
				orig_save(e, "x");
				e.attributes.x.value = 10;
			}
			if (e.attributes.width != undefined) {
				orig_save(e, "width");
				e.attributes.width.value = parseInt(svg.width.baseVal.value) - (10 * 2);
			}
		}
		if (e.childNodes == undefined) return;
		for (var i = 0, c = e.childNodes; i < c.length; i++) {
			zoom_parent(c[i]);
		}
	}
	function zoom(node) {
		var attr = find_child(node, "rect").attributes;
		var width = parseFloat(attr.width.value);
		var xmin = parseFloat(attr.x.value);
		var xmax = parseFloat(xmin + width);
		var ymin = parseFloat(attr.y.value);
		var ratio = (svg.width.baseVal.value - 2 * 10) / width;

		// XXX: Workaround for JavaScript float issues (fix me)
		var fudge = 0.0001;

		unzoombtn.classList.remove("hide");

		var el = document.getElementById("frames").children;
		for (var i = 0; i < el.length; i++) {
			var e = el[i];
			var a = find_child(e, "rect").attributes;
			var ex = parseFloat(a.x.value);
			var ew = parseFloat(a.width.value);
			var upstack;
			// Is it an ancestor
			if (1 == 0) {
				upstack = parseFloat(a.y.value) > ymin;
			} else {
				upstack = parseFloat(a.y.value) < ymin;
			}
			if (upstack) {
				// Direct ancestor
				if (ex <= xmin && (ex+ew+fudge) >= xmax) {
					e.classList.add("parent");
					zoom_parent(e);
					update_text(e);
				}
				// not in current path
				else
					e.classList.add("hide");
			}
			// Children maybe
			else {
				// no common path
				if (ex < xmin || ex + fudge >= xmax) {
					e.classList.add("hide");
				}
				else {
					zoom_child(e, xmin, ratio);
					update_text(e);
				}
			}
		}
		search();
	}
	function unzoom() {
		unzoombtn.classList.add("hide");
		var el = document.getElementById("frames").children;
		for(var i = 0; i < el.length; i++) {
			el[i].classList.remove("parent");
			el[i].classList.remove("hide");
			zoom_reset(el[i]);
			update_text(el[i]);
		}
		search();
	}
	function clearzoom() {
		unzoom();

		// remove zoom state
		var params = get_params();
		if (params.x) delete params.x;
		if (params.y) delete params.y;
		history.replaceState(null, null, parse_params(params));
	}

	// search
	function toggle_ignorecase() {
		ignorecase = !ignorecase;
		if (ignorecase) {
			ignorecaseBtn.classList.add("show");
		} else {
			ignorecaseBtn.classList.remove("show");
		}
		reset_search();
		search();
	}
	function reset_search() {
		var el = document.querySelectorAll("#frames rect");
		for (var i = 0; i < el.length; i++) {
			orig_load(el[i], "fill")
		}
		var params = get_params();
		delete params.s;
		history.replaceState(null, null, parse_params(params));
	}
	function search_prompt() {
		if (!searching) {
			var term = prompt("Enter a search term (regexp " +
			    "allowed, eg: ^ext4_)"
			    + (ignorecase ? ", ignoring case" : "")
			    + "\nPress Ctrl-i to toggle case sensitivity", "");
			if (term != null) search(term);
		} else {
			reset_search();
			searching = 0;
			currentSearchTerm = null;
			searchbtn.classList.remove("show");
			searchbtn.firstChild.nodeValue = "Search"
			matchedtxt.classList.add("hide");
			matchedtxt.firstChild.nodeValue = ""
		}
	}
	function search(term) {
		if (term) currentSearchTerm = term;

		var re = new RegExp(currentSearchTerm, ignorecase ? 'i' : '');
		var el = document.getElementById("frames").children;
		var matches = new Object();
		var maxwidth = 0;
		for (var i = 0; i < el.length; i++) {
			var e = el[i];
			var func = g_to_func(e);
			var rect = find_child(e, "rect");
			if (func == null || rect == null)
				continue;

			// Save max width. Only works as we have a root frame
			var w = parseFloat(rect.attributes.width.value);
			if (w > maxwidth)
				maxwidth = w;

			if (func.match(re)) {
				// highlight
				var x = parseFloat(rect.attributes.x.value);
				orig_save(rect, "fill");
				rect.attributes.fill.value = "rgb(230,0,230)";

				// remember matches
				if (matches[x] == undefined) {
					matches[x] = w;
				} else {
					if (w > matches[x]) {
						// overwrite with parent
						matches[x] = w;
					}
				}
				searching = 1;
			}
		}
		if (!searching)
			return;
		var params = get_params();
		params.s = currentSearchTerm;
		history.replaceState(null, null, parse_params(params));

		searchbtn.classList.add("show");
		searchbtn.firstChild.nodeValue = "Reset Search";

		// calculate percent matched, excluding vertical overlap
		var count = 0;
		var lastx = -1;
		var lastw = 0;
		var keys = Array();
		for (k in matches) {
			if (matches.hasOwnProperty(k))
				keys.push(k);
		}
		// sort the matched frames by their x location
		// ascending, then width descending
		keys.sort(function(a, b){
			return a - b;
		});
		// Step through frames saving only the biggest bottom-up frames
		// thanks to the sort order. This relies on the tree property
		// where children are always smaller than their parents.
		var fudge = 0.0001;	// JavaScript floating point
		for (var k in keys) {
			var x = parseFloat(keys[k]);
			var w = matches[keys[k]];
			if (x >= lastx + lastw - fudge) {
				count += w;
				lastx = x;
				lastw = w;
			}
		}
		// display matched percent
		matchedtxt.classList.remove("hide");
		var pct = 100 * count / maxwidth;
		if (pct != 100) pct = pct.toFixed(1)
		matchedtxt.firstChild.nodeValue = "Matched: " + pct + "%";
	}
]]>
</script>
<rect x="0.0" y="0" width="1200.0" height="331.0" fill="url(#background)"  />
<text id="title" x="600.00" y="26" >Firedrake example</text>
<text id="details" x="10.00" y="313" > </text>
<text id="unzoom" x="10.00" y="26" class="hide">Reset Zoom</text>
<text id="search" x="1090.00" y="26" >Search</text>
<text id="ignorecase" x="1174.00" y="26" >ic</text>
<text id="matched" x="1090.00" y="313" > </text>
<g id="frames">
<g >
<title>CreateExtMesh (952,456 us, 1.25%)</title><rect x="23.8" y="71" width="14.8" height="15.0" fill="rgb(0,0,0)" rx="2" ry="2" />
<text  x="26.79" y="81.5" ></text>
</g>
<g >
<title>MatMatMultSym (11,538 us, 0.02%)</title><rect x="558.0" y="231" width="0.1" height="15.0" fill="rgb(0,0,0)" rx="2" ry="2" />
<text  x="560.95" y="241.5" ></text>
</g>
<g >
<title>PCApply (1,422,260 us, 1.87%)</title><rect x="528.2" y="199" width="22.1" height="15.0" fill="rgb(0,0,0)" rx="2" ry="2" />
<text  x="531.24" y="209.5" ></text>
</g>
<g >
<title>pyop2.global_kernel.GlobalKernel.compile (5,740,977 us, 7.55%)</title><rect x="357.7" y="151" width="89.1" height="15.0" fill="rgb(0,0,0)" rx="2" ry="2" />
<text  x="360.70" y="161.5" >pyop2.glo..</text>
</g>
<g >
<title>MatMult (50,865 us, 0.07%)</title><rect x="685.8" y="199" width="0.8" height="15.0" fill="rgb(0,0,0)" rx="2" ry="2" />
<text  x="688.84" y="209.5" ></text>
</g>
<g >
<title>firedrake.formmanipulation.ExtractSubBlock.split (8,494 us, 0.01%)</title><rect x="1189.9" y="151" width="0.1" height="15.0" fill="rgb(0,0,0)" rx="2" ry="2" />
<text  x="1192.87" y="161.5" ></text>
</g>
<g >
<title>firedrake.assemble_expressions.evaluate_expression (782,177 us, 1.03%)</title><rect x="62.5" y="103" width="12.1" height="15.0" fill="rgb(0,0,0)" rx="2" ry="2" />
<text  x="65.45" y="113.5" ></text>
</g>
<g >
<title>MatSOR (1,407,668 us, 1.85%)</title><rect x="528.5" y="247" width="21.8" height="15.0" fill="rgb(0,0,0)" rx="2" ry="2" />
<text  x="531.47" y="257.5" ></text>
</g>
<g >
<title>firedrake.extrusion_utils.make_extruded_coords (944,738 us, 1.24%)</title><rect x="23.8" y="87" width="14.6" height="15.0" fill="rgb(0,0,0)" rx="2" ry="2" />
<text  x="26.79" y="97.5" ></text>
</g>
<g >
<title>Parloop_Cells_wrap_form_cell_integral_otherwise (5,750,031 us, 7.56%)</title><rect x="357.6" y="135" width="89.2" height="15.0" fill="rgb(0,0,0)" rx="2" ry="2" />
<text  x="360.55" y="145.5" >Parloop_C..</text>
</g>
<g >
<title>Log_Event_form00_cell_integral_otherwise (15,815 us, 0.02%)</title><rect x="148.8" y="151" width="0.2" height="15.0" fill="rgb(0,0,0)" rx="2" ry="2" />
<text  x="151.79" y="161.5" ></text>
</g>
<g >
<title>PCApply (1,407,202 us, 1.85%)</title><rect x="481.9" y="231" width="21.8" height="15.0" fill="rgb(0,0,0)" rx="2" ry="2" />
<text  x="484.86" y="241.5" ></text>
</g>
<g >
<title>firedrake.ufl_expr.adjoint (12,340 us, 0.02%)</title><rect x="462.9" y="103" width="0.2" height="15.0" fill="rgb(0,0,0)" rx="2" ry="2" />
<text  x="465.87" y="113.5" ></text>
</g>
<g >
<title>KSPSetUp (109,814 us, 0.14%)</title><rect x="685.8" y="167" width="1.7" height="15.0" fill="rgb(0,0,0)" rx="2" ry="2" />
<text  x="688.84" y="177.5" ></text>
</g>
<g >
<title>MatMult (10,239 us, 0.01%)</title><rect x="463.5" y="119" width="0.1" height="15.0" fill="rgb(0,0,0)" rx="2" ry="2" />
<text  x="466.48" y="129.5" ></text>
</g>
<g >
<title>firedrake.assemble.assemble (12,996,043 us, 17.08%)</title><rect x="148.8" y="103" width="201.6" height="15.0" fill="rgb(0,0,0)" rx="2" ry="2" />
<text  x="151.79" y="113.5" >firedrake.assemble.assem..</text>
</g>
<g >
<title>Log_Event_form1_cell_integral_otherwise (45,174 us, 0.06%)</title><rect x="785.6" y="151" width="0.7" height="15.0" fill="rgb(0,0,0)" rx="2" ry="2" />
<text  x="788.64" y="161.5" ></text>
</g>
<g >
<title>KSPSolve (52,401 us, 0.07%)</title><rect x="559.4" y="199" width="0.8" height="15.0" fill="rgb(0,0,0)" rx="2" ry="2" />
<text  x="562.36" y="209.5" ></text>
</g>
<g >
<title>firedrake.dmhooks.create_field_decomposition (29,545 us, 0.04%)</title><rect x="734.3" y="119" width="0.5" height="15.0" fill="rgb(0,0,0)" rx="2" ry="2" />
<text  x="737.30" y="129.5" ></text>
</g>
<g >
<title>pyop2.global_kernel.GlobalKernel.compile (10,149,535 us, 13.34%)</title><rect x="849.8" y="151" width="157.4" height="15.0" fill="rgb(0,0,0)" rx="2" ry="2" />
<text  x="852.79" y="161.5" >pyop2.global_kerne..</text>
</g>
<g >
<title>firedrake.functionspace.VectorFunctionSpace (7,718 us, 0.01%)</title><rect x="38.4" y="87" width="0.2" height="15.0" fill="rgb(0,0,0)" rx="2" ry="2" />
<text  x="41.45" y="97.5" ></text>
</g>
<g >
<title>all (76,068,318 us, 100%)</title><rect x="10.0" y="39" width="1180.0" height="15.0" fill="rgb(0,0,0)" rx="2" ry="2" />
<text  x="13.00" y="49.5" ></text>
</g>
<g >
<title>MatMult (3,003,000 us, 3.95%)</title><rect x="687.7" y="167" width="46.6" height="15.0" fill="rgb(0,0,0)" rx="2" ry="2" />
<text  x="690.71" y="177.5" >MatM..</text>
</g>
<g >
<title>MatResidual (224,080 us, 0.29%)</title><rect x="553.5" y="183" width="3.5" height="15.0" fill="rgb(0,0,0)" rx="2" ry="2" />
<text  x="556.51" y="193.5" ></text>
</g>
<g >
<title>KSPSolve_FS_0 (3,002,136 us, 3.95%)</title><rect x="463.8" y="135" width="46.6" height="15.0" fill="rgb(0,0,0)" rx="2" ry="2" />
<text  x="466.78" y="145.5" >KSPS..</text>
</g>
<g >
<title>firedrake.projection.project (18,241,598 us, 23.98%)</title><rect x="74.6" y="87" width="283.0" height="15.0" fill="rgb(0,0,0)" rx="2" ry="2" />
<text  x="77.58" y="97.5" >firedrake.projection.project</text>
</g>
<g >
<title>MatPtAPSymbolic (64,105 us, 0.08%)</title><rect x="684.8" y="199" width="1.0" height="15.0" fill="rgb(0,0,0)" rx="2" ry="2" />
<text  x="687.84" y="209.5" ></text>
</g>
<g >
<title>KSPSolve (109,814 us, 0.14%)</title><rect x="685.8" y="183" width="1.7" height="15.0" fill="rgb(0,0,0)" rx="2" ry="2" />
<text  x="688.84" y="193.5" ></text>
</g>
<g >
<title>MatPtAPNumeric (34,605 us, 0.05%)</title><rect x="560.2" y="199" width="0.5" height="15.0" fill="rgb(0,0,0)" rx="2" ry="2" />
<text  x="563.17" y="209.5" ></text>
</g>
<g >
<title>firedrake.function.Function.project (18,241,598 us, 23.98%)</title><rect x="74.6" y="71" width="283.0" height="15.0" fill="rgb(0,0,0)" rx="2" ry="2" />
<text  x="77.58" y="81.5" >firedrake.function.Function.project</text>
</g>
<g >
<title>MatMult (1,136,966 us, 1.49%)</title><rect x="464.0" y="199" width="17.6" height="15.0" fill="rgb(0,0,0)" rx="2" ry="2" />
<text  x="467.00" y="209.5" ></text>
</g>
<g >
<title>PCApply (3,002,136 us, 3.95%)</title><rect x="463.8" y="167" width="46.6" height="15.0" fill="rgb(0,0,0)" rx="2" ry="2" />
<text  x="466.78" y="177.5" >PCAp..</text>
</g>
<g >
<title>pyop2.global_kernel.GlobalKernel.compile (2,985,930 us, 3.93%)</title><rect x="786.3" y="151" width="46.4" height="15.0" fill="rgb(0,0,0)" rx="2" ry="2" />
<text  x="789.34" y="161.5" >pyop..</text>
</g>
<g >
<title>pyop2.global_kernel.GlobalKernel.compile (5,301,255 us, 6.97%)</title><rect x="1083.3" y="151" width="82.2" height="15.0" fill="rgb(0,0,0)" rx="2" ry="2" />
<text  x="1086.29" y="161.5" >pyop2.gl..</text>
</g>
<g >
<title>PCApply (58,949 us, 0.08%)</title><rect x="686.6" y="231" width="0.9" height="15.0" fill="rgb(0,0,0)" rx="2" ry="2" />
<text  x="689.62" y="241.5" ></text>
</g>
<g >
<title>PCGAMG Gal l02 (5,876,159 us, 7.72%)</title><rect x="592.1" y="183" width="91.1" height="15.0" fill="rgb(0,0,0)" rx="2" ry="2" />
<text  x="595.08" y="193.5" >PCGAMG Ga..</text>
</g>
<g >
<title>MatMult (224,209 us, 0.29%)</title><rect x="506.9" y="199" width="3.5" height="15.0" fill="rgb(0,0,0)" rx="2" ry="2" />
<text  x="509.87" y="209.5" ></text>
</g>
<g >
<title>MatConvert (18,424 us, 0.02%)</title><rect x="557.5" y="215" width="0.2" height="15.0" fill="rgb(0,0,0)" rx="2" ry="2" />
<text  x="560.46" y="225.5" ></text>
</g>
<g >
<title>KSPSolve (17,467,883 us, 22.96%)</title><rect x="463.3" y="103" width="271.0" height="15.0" fill="rgb(0,0,0)" rx="2" ry="2" />
<text  x="466.33" y="113.5" >KSPSolve</text>
</g>
<g >
<title>Log_Event_form_cell_integral_otherwise (9,054 us, 0.01%)</title><rect x="357.6" y="151" width="0.1" height="15.0" fill="rgb(0,0,0)" rx="2" ry="2" />
<text  x="360.55" y="161.5" ></text>
</g>
<g >
<title>KSPSolve (2,573,910 us, 3.38%)</title><rect x="687.7" y="215" width="39.9" height="15.0" fill="rgb(0,0,0)" rx="2" ry="2" />
<text  x="690.71" y="225.5" >KSP..</text>
</g>
<g >
<title>MatPtAPSymbolic (34,913 us, 0.05%)</title><rect x="560.7" y="199" width="0.5" height="15.0" fill="rgb(0,0,0)" rx="2" ry="2" />
<text  x="563.71" y="209.5" ></text>
</g>
<g >
<title>KSPSolve (3,014,305 us, 3.96%)</title><rect x="687.5" y="151" width="46.8" height="15.0" fill="rgb(0,0,0)" rx="2" ry="2" />
<text  x="690.54" y="161.5" >KSPS..</text>
</g>
<g >
<title>SNESJacobianEval (21,931,337 us, 28.83%)</title><rect x="849.8" y="103" width="340.2" height="15.0" fill="rgb(0,0,0)" rx="2" ry="2" />
<text  x="852.79" y="113.5" >SNESJacobianEval</text>
</g>
<g >
<title>Parloop_set_#x7f08321babf0_wrap_expression_kernel (373,001 us, 0.49%)</title><rect x="68.5" y="135" width="5.8" height="15.0" fill="rgb(0,0,0)" rx="2" ry="2" />
<text  x="71.50" y="145.5" ></text>
</g>
<g >
<title>PCGAMG Opt l01 (11,538 us, 0.02%)</title><rect x="558.0" y="215" width="0.1" height="15.0" fill="rgb(0,0,0)" rx="2" ry="2" />
<text  x="560.95" y="225.5" ></text>
</g>
<g >
<title>Parloop_Cells_wrap_form00_cell_integral_otherwise (12,408,893 us, 16.31%)</title><rect x="148.8" y="135" width="192.5" height="15.0" fill="rgb(0,0,0)" rx="2" ry="2" />
<text  x="151.79" y="145.5" >Parloop_Cells_wrap_form..</text>
</g>
<g >
<title>KSPSolve (1,421,599 us, 1.87%)</title><rect x="481.6" y="215" width="22.1" height="15.0" fill="rgb(0,0,0)" rx="2" ry="2" />
<text  x="484.63" y="225.5" ></text>
</g>
<g >
<title>Parloop_Cells_wrap_form00_cell_integral_otherwise (10,149,535 us, 13.34%)</title><rect x="849.8" y="135" width="157.4" height="15.0" fill="rgb(0,0,0)" rx="2" ry="2" />
<text  x="852.79" y="145.5" >Parloop_Cells_wrap..</text>
</g>
<g >
<title>  Graph (49,356 us, 0.06%)</title><rect x="557.0" y="199" width="0.7" height="15.0" fill="rgb(0,0,0)" rx="2" ry="2" />
<text  x="559.98" y="209.5" ></text>
</g>
<g >
<title>ParLoopExecute (6,311,562 us, 8.30%)</title><rect x="734.8" y="119" width="97.9" height="15.0" fill="rgb(0,0,0)" rx="2" ry="2" />
<text  x="737.76" y="129.5" >ParLoopExe..</text>
</g>
<g >
<title>pyop2.global_kernel.GlobalKernel.compile (389,916 us, 0.51%)</title><rect x="62.5" y="151" width="6.0" height="15.0" fill="rgb(0,0,0)" rx="2" ry="2" />
<text  x="65.45" y="161.5" ></text>
</g>
<g >
<title>MatSOR (58,949 us, 0.08%)</title><rect x="686.6" y="247" width="0.9" height="15.0" fill="rgb(0,0,0)" rx="2" ry="2" />
<text  x="689.62" y="257.5" ></text>
</g>
<g >
<title>KSPSolve (2,572,484 us, 3.38%)</title><rect x="463.8" y="183" width="39.9" height="15.0" fill="rgb(0,0,0)" rx="2" ry="2" />
<text  x="466.78" y="193.5" >KSP..</text>
</g>
<g >
<title>MatPtAPNumeric (3,263,892 us, 4.29%)</title><rect x="592.1" y="199" width="50.6" height="15.0" fill="rgb(0,0,0)" rx="2" ry="2" />
<text  x="595.08" y="209.5" >MatP..</text>
</g>
<g >
<title>MatMult (52,401 us, 0.07%)</title><rect x="559.4" y="215" width="0.8" height="15.0" fill="rgb(0,0,0)" rx="2" ry="2" />
<text  x="562.36" y="225.5" ></text>
</g>
<g >
<title>KSPSolve_FS_Schu (3,014,305 us, 3.96%)</title><rect x="687.5" y="135" width="46.8" height="15.0" fill="rgb(0,0,0)" rx="2" ry="2" />
<text  x="690.54" y="145.5" >KSPS..</text>
</g>
<g >
<title>MatMultTranspose (82,427 us, 0.11%)</title><rect x="729.5" y="215" width="1.3" height="15.0" fill="rgb(0,0,0)" rx="2" ry="2" />
<text  x="732.54" y="225.5" ></text>
</g>
<g >
<title>firedrake.tsfc_interface.compile_form (1,104,264 us, 1.45%)</title><rect x="832.7" y="119" width="17.1" height="15.0" fill="rgb(0,0,0)" rx="2" ry="2" />
<text  x="835.66" y="129.5" ></text>
</g>
<g >
<title>Parloop_Cells_wrap_form0_cell_integral_otherwise (4,769,303 us, 6.27%)</title><rect x="74.8" y="119" width="74.0" height="15.0" fill="rgb(0,0,0)" rx="2" ry="2" />
<text  x="77.80" y="129.5" >Parloop..</text>
</g>
<g >
<title>firedrake.ufl_expr.adjoint (21,438 us, 0.03%)</title><rect x="734.4" y="167" width="0.4" height="15.0" fill="rgb(0,0,0)" rx="2" ry="2" />
<text  x="737.42" y="177.5" ></text>
</g>
<g >
<title>firedrake.tsfc_interface.compile_form (573,750 us, 0.75%)</title><rect x="341.5" y="119" width="8.9" height="15.0" fill="rgb(0,0,0)" rx="2" ry="2" />
<text  x="344.49" y="129.5" ></text>
</g>
<g >
<title>firedrake (76,068,318 us, 100.00%)</title><rect x="10.0" y="55" width="1180.0" height="15.0" fill="rgb(0,0,0)" rx="2" ry="2" />
<text  x="13.00" y="65.5" >firedrake</text>
</g>
<g >
<title>Parloop_Cells_wrap_form10_cell_integral_otherwise (5,301,255 us, 6.97%)</title><rect x="1083.3" y="135" width="82.2" height="15.0" fill="rgb(0,0,0)" rx="2" ry="2" />
<text  x="1086.29" y="145.5" >Parloop_..</text>
</g>
<g >
<title>KSPSolve (3,002,136 us, 3.95%)</title><rect x="463.8" y="151" width="46.6" height="15.0" fill="rgb(0,0,0)" rx="2" ry="2" />
<text  x="466.78" y="161.5" >KSPS..</text>
</g>
<g >
<title>KSPGMRESOrthog (9,992 us, 0.01%)</title><rect x="463.3" y="119" width="0.2" height="15.0" fill="rgb(0,0,0)" rx="2" ry="2" />
<text  x="466.33" y="129.5" ></text>
</g>
<g >
<title>PCApply (3,003,000 us, 3.95%)</title><rect x="687.7" y="199" width="46.6" height="15.0" fill="rgb(0,0,0)" rx="2" ry="2" />
<text  x="690.71" y="209.5" >PCAp..</text>
</g>
<g >
<title>pyop2.global_kernel.GlobalKernel.compile (3,229,538 us, 4.25%)</title><rect x="735.5" y="151" width="50.1" height="15.0" fill="rgb(0,0,0)" rx="2" ry="2" />
<text  x="738.55" y="161.5" >pyop..</text>
</g>
<g >
<title>PCGAMG Gal l00 (69,518 us, 0.09%)</title><rect x="560.2" y="183" width="1.0" height="15.0" fill="rgb(0,0,0)" rx="2" ry="2" />
<text  x="563.17" y="193.5" ></text>
</g>
<g >
<title>Log_Event_form0_cell_integral_otherwise (18,031 us, 0.02%)</title><rect x="74.8" y="135" width="0.3" height="15.0" fill="rgb(0,0,0)" rx="2" ry="2" />
<text  x="77.80" y="145.5" ></text>
</g>
<g >
<title>SNESSolve (46,844,591 us, 61.58%)</title><rect x="463.3" y="87" width="726.7" height="15.0" fill="rgb(0,0,0)" rx="2" ry="2" />
<text  x="466.33" y="97.5" >SNESSolve</text>
</g>
<g >
<title>firedrake.tsfc_interface.compile_form (462,063 us, 0.61%)</title><rect x="350.4" y="103" width="7.2" height="15.0" fill="rgb(0,0,0)" rx="2" ry="2" />
<text  x="353.39" y="113.5" ></text>
</g>
<g >
<title>firedrake.variational_solver.NonlinearVariationalProblem.__init__ (21,438 us, 0.03%)</title><rect x="734.4" y="151" width="0.4" height="15.0" fill="rgb(0,0,0)" rx="2" ry="2" />
<text  x="737.42" y="161.5" ></text>
</g>
<g >
<title>KSPSolve_FS_Low (11,422,351 us, 15.02%)</title><rect x="510.4" y="135" width="177.1" height="15.0" fill="rgb(0,0,0)" rx="2" ry="2" />
<text  x="513.35" y="145.5" >KSPSolve_FS_Low</text>
</g>
<g >
<title>MatPtAPNumeric (997,209 us, 1.31%)</title><rect x="561.2" y="199" width="15.5" height="15.0" fill="rgb(0,0,0)" rx="2" ry="2" />
<text  x="564.25" y="209.5" ></text>
</g>
<g >
<title>Parloop_Cells_wrap_form01_cell_integral_otherwise (4,903,073 us, 6.45%)</title><rect x="1007.2" y="135" width="76.1" height="15.0" fill="rgb(0,0,0)" rx="2" ry="2" />
<text  x="1010.24" y="145.5" >Parloop..</text>
</g>
<g >
<title>pyop2.global_kernel.GlobalKernel.compile (4,895,184 us, 6.44%)</title><rect x="1007.4" y="151" width="75.9" height="15.0" fill="rgb(0,0,0)" rx="2" ry="2" />
<text  x="1010.36" y="161.5" >pyop2.g..</text>
</g>
<g >
<title>KSPSolve (1,422,260 us, 1.87%)</title><rect x="528.2" y="215" width="22.1" height="15.0" fill="rgb(0,0,0)" rx="2" ry="2" />
<text  x="531.24" y="225.5" ></text>
</g>
<g >
<title>KSPSolve (3,003,000 us, 3.95%)</title><rect x="687.7" y="183" width="46.6" height="15.0" fill="rgb(0,0,0)" rx="2" ry="2" />
<text  x="690.71" y="193.5" >KSPS..</text>
</g>
<g >
<title>firedrake.functionspacedata.get_shared_data (20,513 us, 0.03%)</title><rect x="38.6" y="103" width="0.3" height="15.0" fill="rgb(0,0,0)" rx="2" ry="2" />
<text  x="41.56" y="113.5" ></text>
</g>
<g >
<title>ParLoopExecute (911,826 us, 1.20%)</title><rect x="24.3" y="103" width="14.1" height="15.0" fill="rgb(0,0,0)" rx="2" ry="2" />
<text  x="27.30" y="113.5" ></text>
</g>
<g >
<title>CreateSparsity (16,996 us, 0.02%)</title><rect x="463.1" y="103" width="0.2" height="15.0" fill="rgb(0,0,0)" rx="2" ry="2" />
<text  x="466.07" y="113.5" ></text>
</g>
<g >
<title>MatMult (1,139,351 us, 1.50%)</title><rect x="510.6" y="199" width="17.6" height="15.0" fill="rgb(0,0,0)" rx="2" ry="2" />
<text  x="513.57" y="209.5" ></text>
</g>
<g >
<title>MatMultTranspose (81,986 us, 0.11%)</title><rect x="552.2" y="183" width="1.3" height="15.0" fill="rgb(0,0,0)" rx="2" ry="2" />
<text  x="555.24" y="193.5" ></text>
</g>
<g >
<title>MatSOR (1,407,202 us, 1.85%)</title><rect x="481.9" y="247" width="21.8" height="15.0" fill="rgb(0,0,0)" rx="2" ry="2" />
<text  x="484.86" y="257.5" ></text>
</g>
<g >
<title>ParLoopExecute (20,353,863 us, 26.76%)</title><rect x="849.8" y="119" width="315.7" height="15.0" fill="rgb(0,0,0)" rx="2" ry="2" />
<text  x="852.79" y="129.5" >ParLoopExecute</text>
</g>
<g >
<title>  SA: smooth (103,647 us, 0.14%)</title><rect x="557.7" y="199" width="1.7" height="15.0" fill="rgb(0,0,0)" rx="2" ry="2" />
<text  x="560.75" y="209.5" ></text>
</g>
<g >
<title>PCGAMGGraph_AGG (49,356 us, 0.06%)</title><rect x="557.0" y="183" width="0.7" height="15.0" fill="rgb(0,0,0)" rx="2" ry="2" />
<text  x="559.98" y="193.5" ></text>
</g>
<g >
<title>PCApply (1,407,668 us, 1.85%)</title><rect x="528.5" y="231" width="21.8" height="15.0" fill="rgb(0,0,0)" rx="2" ry="2" />
<text  x="531.47" y="241.5" ></text>
</g>
<g >
<title>firedrake.formmanipulation.split_form (8,494 us, 0.01%)</title><rect x="1189.9" y="135" width="0.1" height="15.0" fill="rgb(0,0,0)" rx="2" ry="2" />
<text  x="1192.87" y="145.5" ></text>
</g>
<g >
<title>pyop2.global_kernel.GlobalKernel.compile (4,751,272 us, 6.25%)</title><rect x="75.1" y="135" width="73.7" height="15.0" fill="rgb(0,0,0)" rx="2" ry="2" />
<text  x="78.08" y="145.5" >pyop2.g..</text>
</g>
<g >
<title>ParLoopExecute (762,917 us, 1.00%)</title><rect x="62.5" y="119" width="11.8" height="15.0" fill="rgb(0,0,0)" rx="2" ry="2" />
<text  x="65.45" y="129.5" ></text>
</g>
<g >
<title>MatMult (224,080 us, 0.29%)</title><rect x="553.5" y="199" width="3.5" height="15.0" fill="rgb(0,0,0)" rx="2" ry="2" />
<text  x="556.51" y="209.5" ></text>
</g>
<g >
<title>PCApply (1,421,599 us, 1.87%)</title><rect x="481.6" y="199" width="22.1" height="15.0" fill="rgb(0,0,0)" rx="2" ry="2" />
<text  x="484.63" y="209.5" ></text>
</g>
<g >
<title>PCApply (1,422,142 us, 1.87%)</title><rect x="705.6" y="231" width="22.0" height="15.0" fill="rgb(0,0,0)" rx="2" ry="2" />
<text  x="708.58" y="241.5" ></text>
</g>
<g >
<title>MatMultAdd (122,439 us, 0.16%)</title><rect x="727.6" y="215" width="1.9" height="15.0" fill="rgb(0,0,0)" rx="2" ry="2" />
<text  x="730.64" y="225.5" ></text>
</g>
<g >
<title>GAMG: createProl (205,404 us, 0.27%)</title><rect x="557.0" y="167" width="3.2" height="15.0" fill="rgb(0,0,0)" rx="2" ry="2" />
<text  x="559.98" y="177.5" ></text>
</g>
<g >
<title>PCSetUp (8,416,153 us, 11.06%)</title><rect x="557.0" y="151" width="130.5" height="15.0" fill="rgb(0,0,0)" rx="2" ry="2" />
<text  x="559.98" y="161.5" >PCSetUp</text>
</g>
<g >
<title>GAMG: partLevel (8,100,935 us, 10.65%)</title><rect x="560.2" y="167" width="125.6" height="15.0" fill="rgb(0,0,0)" rx="2" ry="2" />
<text  x="563.17" y="177.5" >GAMG: partLevel</text>
</g>
<g >
<title>KSPSolve (58,949 us, 0.08%)</title><rect x="686.6" y="215" width="0.9" height="15.0" fill="rgb(0,0,0)" rx="2" ry="2" />
<text  x="689.62" y="225.5" ></text>
</g>
<g >
<title>Log_Event_form0_cell_integral_otherwise (50,920 us, 0.07%)</title><rect x="734.8" y="151" width="0.7" height="15.0" fill="rgb(0,0,0)" rx="2" ry="2" />
<text  x="737.76" y="161.5" ></text>
</g>
<g >
<title>firedrake.norms.norm (6,789,381 us, 8.93%)</title><rect x="357.6" y="87" width="105.3" height="15.0" fill="rgb(0,0,0)" rx="2" ry="2" />
<text  x="360.55" y="97.5" >firedrake.n..</text>
</g>
<g >
<title>pyop2.global_kernel.GlobalKernel.compile (911,826 us, 1.20%)</title><rect x="24.3" y="135" width="14.1" height="15.0" fill="rgb(0,0,0)" rx="2" ry="2" />
<text  x="27.30" y="145.5" ></text>
</g>
<g >
<title>KSPSolve (3,006,198 us, 3.95%)</title><rect x="510.4" y="151" width="46.6" height="15.0" fill="rgb(0,0,0)" rx="2" ry="2" />
<text  x="513.35" y="161.5" >KSPS..</text>
</g>
<g >
<title>MatGetSymTrans (10,243 us, 0.01%)</title><rect x="683.1" y="215" width="0.1" height="15.0" fill="rgb(0,0,0)" rx="2" ry="2" />
<text  x="686.08" y="225.5" ></text>
</g>
<g >
<title>firedrake.norms.errornorm (6,789,381 us, 8.93%)</title><rect x="357.6" y="71" width="105.3" height="15.0" fill="rgb(0,0,0)" rx="2" ry="2" />
<text  x="360.55" y="81.5" >firedrake.n..</text>
</g>
<g >
<title>MatPtAPSymbolic (990,549 us, 1.30%)</title><rect x="576.7" y="199" width="15.4" height="15.0" fill="rgb(0,0,0)" rx="2" ry="2" />
<text  x="579.72" y="209.5" ></text>
</g>
<g >
<title>ParLoopExecute (4,769,303 us, 6.27%)</title><rect x="74.8" y="103" width="74.0" height="15.0" fill="rgb(0,0,0)" rx="2" ry="2" />
<text  x="77.80" y="113.5" >ParLoop..</text>
</g>
<g >
<title>MatMultTranspose (81,312 us, 0.11%)</title><rect x="505.6" y="183" width="1.3" height="15.0" fill="rgb(0,0,0)" rx="2" ry="2" />
<text  x="508.61" y="193.5" ></text>
</g>
<g >
<title>MatMatMultSym (69,334 us, 0.09%)</title><rect x="558.3" y="231" width="1.1" height="15.0" fill="rgb(0,0,0)" rx="2" ry="2" />
<text  x="561.28" y="241.5" ></text>
</g>
<g >
<title>PCApply (3,006,198 us, 3.95%)</title><rect x="510.4" y="167" width="46.6" height="15.0" fill="rgb(0,0,0)" rx="2" ry="2" />
<text  x="513.35" y="177.5" >PCAp..</text>
</g>
<g >
<title>firedrake.__init__ (1,519,294 us, 2.00%)</title><rect x="38.9" y="71" width="23.6" height="15.0" fill="rgb(0,0,0)" rx="2" ry="2" />
<text  x="41.88" y="81.5" >f..</text>
</g>
<g >
<title>firedrake.assemble.allocate_matrix (13,400 us, 0.02%)</title><rect x="341.3" y="119" width="0.2" height="15.0" fill="rgb(0,0,0)" rx="2" ry="2" />
<text  x="344.28" y="129.5" ></text>
</g>
<g >
<title>SNESFunctionEval (7,415,826 us, 9.75%)</title><rect x="734.8" y="103" width="115.0" height="15.0" fill="rgb(0,0,0)" rx="2" ry="2" />
<text  x="737.76" y="113.5" >SNESFunction..</text>
</g>
<g >
<title>firedrake.tsfc_interface.compile_form (1,577,474 us, 2.07%)</title><rect x="1165.5" y="119" width="24.5" height="15.0" fill="rgb(0,0,0)" rx="2" ry="2" />
<text  x="1168.53" y="129.5" >f..</text>
</g>
<g >
<title>ParLoopExecute (12,408,893 us, 16.31%)</title><rect x="148.8" y="119" width="192.5" height="15.0" fill="rgb(0,0,0)" rx="2" ry="2" />
<text  x="151.79" y="129.5" >ParLoopExecute</text>
</g>
<g >
<title>pyop2.global_kernel.GlobalKernel.compile (373,001 us, 0.49%)</title><rect x="68.5" y="151" width="5.8" height="15.0" fill="rgb(0,0,0)" rx="2" ry="2" />
<text  x="71.50" y="161.5" ></text>
</g>
<g >
<title>MatPtAPSymbolic (2,612,267 us, 3.43%)</title><rect x="642.7" y="199" width="40.5" height="15.0" fill="rgb(0,0,0)" rx="2" ry="2" />
<text  x="645.71" y="209.5" >Mat..</text>
</g>
<g >
<title>firedrake.variational_solver.LinearVariationalProblem.__init__ (12,340 us, 0.02%)</title><rect x="462.9" y="71" width="0.2" height="15.0" fill="rgb(0,0,0)" rx="2" ry="2" />
<text  x="465.87" y="81.5" ></text>
</g>
<g >
<title>firedrake.variational_solver.NonlinearVariationalProblem.__init__ (12,340 us, 0.02%)</title><rect x="462.9" y="87" width="0.2" height="15.0" fill="rgb(0,0,0)" rx="2" ry="2" />
<text  x="465.87" y="97.5" ></text>
</g>
<g >
<title>CreateFunctionSpace (20,513 us, 0.03%)</title><rect x="38.6" y="71" width="0.3" height="15.0" fill="rgb(0,0,0)" rx="2" ry="2" />
<text  x="41.56" y="81.5" ></text>
</g>
<g >
<title>MatMultAdd (124,131 us, 0.16%)</title><rect x="503.7" y="183" width="1.9" height="15.0" fill="rgb(0,0,0)" rx="2" ry="2" />
<text  x="506.69" y="193.5" ></text>
</g>
<g >
<title>PCApply (17,447,652 us, 22.94%)</title><rect x="463.6" y="119" width="270.7" height="15.0" fill="rgb(0,0,0)" rx="2" ry="2" />
<text  x="466.64" y="129.5" >PCApply</text>
</g>
<g >
<title>pyop2.caching.disk_cached.&lt;locals&gt;.decorator.&lt;locals&gt;.wrapper (19,260 us, 0.03%)</title><rect x="74.3" y="119" width="0.3" height="15.0" fill="rgb(0,0,0)" rx="2" ry="2" />
<text  x="77.29" y="129.5" ></text>
</g>
<g >
<title>firedrake.formmanipulation.ExtractSubBlock.split (8,107 us, 0.01%)</title><rect x="734.3" y="151" width="0.1" height="15.0" fill="rgb(0,0,0)" rx="2" ry="2" />
<text  x="737.30" y="161.5" ></text>
</g>
<g >
<title>PCGAMG Opt l02 (78,966 us, 0.10%)</title><rect x="558.1" y="215" width="1.3" height="15.0" fill="rgb(0,0,0)" rx="2" ry="2" />
<text  x="561.13" y="225.5" ></text>
</g>
<g >
<title>firedrake.variational_solver.NonlinearVariationalSolver.__init__ (16,996 us, 0.02%)</title><rect x="463.1" y="71" width="0.2" height="15.0" fill="rgb(0,0,0)" rx="2" ry="2" />
<text  x="466.07" y="81.5" ></text>
</g>
<g >
<title>firedrake.assemble.assemble (782,177 us, 1.03%)</title><rect x="62.5" y="71" width="12.1" height="15.0" fill="rgb(0,0,0)" rx="2" ry="2" />
<text  x="65.45" y="81.5" ></text>
</g>
<g >
<title>firedrake.variational_solver.NonlinearVariationalSolver.solve (46,844,591 us, 61.58%)</title><rect x="463.3" y="71" width="726.7" height="15.0" fill="rgb(0,0,0)" rx="2" ry="2" />
<text  x="466.33" y="81.5" >firedrake.variational_solver.NonlinearVariationalSolver.solve</text>
</g>
<g >
<title>firedrake.tsfc_interface.compile_form (1,039,350 us, 1.37%)</title><rect x="446.8" y="119" width="16.1" height="15.0" fill="rgb(0,0,0)" rx="2" ry="2" />
<text  x="449.75" y="129.5" ></text>
</g>
<g >
<title>Parloop_Cells_wrap_pyop2_kernel_uniform_extrusion (911,826 us, 1.20%)</title><rect x="24.3" y="119" width="14.1" height="15.0" fill="rgb(0,0,0)" rx="2" ry="2" />
<text  x="27.30" y="129.5" ></text>
</g>
<g >
<title>firedrake.solving_utils._SNESContext.split (29,545 us, 0.04%)</title><rect x="734.3" y="135" width="0.5" height="15.0" fill="rgb(0,0,0)" rx="2" ry="2" />
<text  x="737.30" y="145.5" ></text>
</g>
<g >
<title>KSPSolve (1,422,142 us, 1.87%)</title><rect x="705.6" y="247" width="22.0" height="15.0" fill="rgb(0,0,0)" rx="2" ry="2" />
<text  x="708.58" y="257.5" ></text>
</g>
<g >
<title>firedrake.assemble_expressions.assemble_expression (782,177 us, 1.03%)</title><rect x="62.5" y="87" width="12.1" height="15.0" fill="rgb(0,0,0)" rx="2" ry="2" />
<text  x="65.45" y="97.5" ></text>
</g>
<g >
<title>MatSOR (1,407,630 us, 1.85%)</title><rect x="705.8" y="279" width="21.8" height="15.0" fill="rgb(0,0,0)" rx="2" ry="2" />
<text  x="708.81" y="289.5" ></text>
</g>
<g >
<title>PCApply (58,949 us, 0.08%)</title><rect x="686.6" y="199" width="0.9" height="15.0" fill="rgb(0,0,0)" rx="2" ry="2" />
<text  x="689.62" y="209.5" ></text>
</g>
<g >
<title>FunctionSpaceData: CreateElement (7,787 us, 0.01%)</title><rect x="38.8" y="135" width="0.1" height="15.0" fill="rgb(0,0,0)" rx="2" ry="2" />
<text  x="41.76" y="145.5" ></text>
</g>
<g >
<title>PCSetUp (29,545 us, 0.04%)</title><rect x="734.3" y="103" width="0.5" height="15.0" fill="rgb(0,0,0)" rx="2" ry="2" />
<text  x="737.30" y="113.5" ></text>
</g>
<g >
<title>MatMultAdd (124,336 us, 0.16%)</title><rect x="550.3" y="183" width="1.9" height="15.0" fill="rgb(0,0,0)" rx="2" ry="2" />
<text  x="553.31" y="193.5" ></text>
</g>
<g >
<title>MatMatMultNum (9,632 us, 0.01%)</title><rect x="558.1" y="231" width="0.2" height="15.0" fill="rgb(0,0,0)" rx="2" ry="2" />
<text  x="561.13" y="241.5" ></text>
</g>
<g >
<title>MatResidual (224,224 us, 0.29%)</title><rect x="730.8" y="215" width="3.5" height="15.0" fill="rgb(0,0,0)" rx="2" ry="2" />
<text  x="733.82" y="225.5" ></text>
</g>
<g >
<title>MatPtAPNumeric (103,395 us, 0.14%)</title><rect x="683.2" y="199" width="1.6" height="15.0" fill="rgb(0,0,0)" rx="2" ry="2" />
<text  x="686.24" y="209.5" ></text>
</g>
<g >
<title>firedrake.assemble.assemble (6,789,381 us, 8.93%)</title><rect x="357.6" y="103" width="105.3" height="15.0" fill="rgb(0,0,0)" rx="2" ry="2" />
<text  x="360.55" y="113.5" >firedrake.a..</text>
</g>
<g >
<title>pyop2.global_kernel.GlobalKernel.compile (12,393,078 us, 16.29%)</title><rect x="149.0" y="151" width="192.3" height="15.0" fill="rgb(0,0,0)" rx="2" ry="2" />
<text  x="152.03" y="161.5" >pyop2.global_kernel.Glo..</text>
</g>
<g >
<title>MatResidual (224,209 us, 0.29%)</title><rect x="506.9" y="183" width="3.5" height="15.0" fill="rgb(0,0,0)" rx="2" ry="2" />
<text  x="509.87" y="193.5" ></text>
</g>
<g >
<title>firedrake.functionspacedata.FunctionSpaceData.__init__ (20,513 us, 0.03%)</title><rect x="38.6" y="119" width="0.3" height="15.0" fill="rgb(0,0,0)" rx="2" ry="2" />
<text  x="41.56" y="129.5" ></text>
</g>
<g >
<title>Parloop_Cells_wrap_form0_cell_integral_otherwise (3,280,458 us, 4.31%)</title><rect x="734.8" y="135" width="50.8" height="15.0" fill="rgb(0,0,0)" rx="2" ry="2" />
<text  x="737.76" y="145.5" >Parl..</text>
</g>
<g >
<title>PCGAMG Gal l01 (1,987,758 us, 2.61%)</title><rect x="561.2" y="183" width="30.9" height="15.0" fill="rgb(0,0,0)" rx="2" ry="2" />
<text  x="564.25" y="193.5" >PC..</text>
</g>
<g >
<title>PCGAMG Gal l03 (167,500 us, 0.22%)</title><rect x="683.2" y="183" width="2.6" height="15.0" fill="rgb(0,0,0)" rx="2" ry="2" />
<text  x="686.24" y="193.5" ></text>
</g>
<g >
<title>PCApply (1,407,630 us, 1.85%)</title><rect x="705.8" y="263" width="21.8" height="15.0" fill="rgb(0,0,0)" rx="2" ry="2" />
<text  x="708.81" y="273.5" ></text>
</g>
<g >
<title>Parloop_Cells_wrap_form1_cell_integral_otherwise (3,031,104 us, 3.98%)</title><rect x="785.6" y="135" width="47.1" height="15.0" fill="rgb(0,0,0)" rx="2" ry="2" />
<text  x="788.64" y="145.5" >Parl..</text>
</g>
<g >
<title>MatMult (224,224 us, 0.29%)</title><rect x="730.8" y="231" width="3.5" height="15.0" fill="rgb(0,0,0)" rx="2" ry="2" />
<text  x="733.82" y="241.5" ></text>
</g>
<g >
<title>CreateSparsity (13,400 us, 0.02%)</title><rect x="341.3" y="135" width="0.2" height="15.0" fill="rgb(0,0,0)" rx="2" ry="2" />
<text  x="344.28" y="145.5" ></text>
</g>
<g >
<title>firedrake.assemble.allocate_matrix (16,996 us, 0.02%)</title><rect x="463.1" y="87" width="0.2" height="15.0" fill="rgb(0,0,0)" rx="2" ry="2" />
<text  x="466.07" y="97.5" ></text>
</g>
<g >
<title>PCGAMGPOpt_AGG (156,048 us, 0.21%)</title><rect x="557.7" y="183" width="2.5" height="15.0" fill="rgb(0,0,0)" rx="2" ry="2" />
<text  x="560.75" y="193.5" ></text>
</g>
<g >
<title>ParLoopExecute (5,750,031 us, 7.56%)</title><rect x="357.6" y="119" width="89.2" height="15.0" fill="rgb(0,0,0)" rx="2" ry="2" />
<text  x="360.55" y="129.5" >ParLoopEx..</text>
</g>
<g >
<title>MatMult (1,137,648 us, 1.50%)</title><rect x="687.9" y="231" width="17.7" height="15.0" fill="rgb(0,0,0)" rx="2" ry="2" />
<text  x="690.93" y="241.5" ></text>
</g>
<g >
<title>Parloop_set_#x7f083216b5b0_wrap_expression_kernel (389,916 us, 0.51%)</title><rect x="62.5" y="135" width="6.0" height="15.0" fill="rgb(0,0,0)" rx="2" ry="2" />
<text  x="65.45" y="145.5" ></text>
</g>
<g >
<title>firedrake.functionspaceimpl.FunctionSpace.__init__ (20,513 us, 0.03%)</title><rect x="38.6" y="87" width="0.3" height="15.0" fill="rgb(0,0,0)" rx="2" ry="2" />
<text  x="41.56" y="97.5" ></text>
</g>
<g >
<title>KSPSolve (2,575,796 us, 3.39%)</title><rect x="510.4" y="183" width="39.9" height="15.0" fill="rgb(0,0,0)" rx="2" ry="2" />
<text  x="513.35" y="193.5" >KSP..</text>
</g>
</g>
</svg>
