<?xml version="1.0" standalone="no"?>
<!DOCTYPE svg PUBLIC "-//W3C//DTD SVG 1.1//EN" "http://www.w3.org/Graphics/SVG/1.1/DTD/svg11.dtd">
<svg version="1.1" width="1200" height="395" onload="init(evt)" viewBox="0 0 1200 395" xmlns="http://www.w3.org/2000/svg" xmlns:xlink="http://www.w3.org/1999/xlink">
<!-- Flame graph stack visualization. See https://github.com/brendangregg/FlameGraph for latest version, and http://www.brendangregg.com/flamegraphs.html for examples. -->
<!-- NOTES:  -->
<defs>
	<linearGradient id="background" y1="0" y2="1" x1="0" x2="0" >
		<stop stop-color="#eeeeee" offset="5%" />
		<stop stop-color="#eeeeb0" offset="95%" />
	</linearGradient>
</defs>
<style type="text/css">
	text { font-family:Verdana; font-size:13px; fill:rgb(0,0,0); }
	#search, #ignorecase { opacity:0.1; cursor:pointer; }
	#search:hover, #search.show, #ignorecase:hover, #ignorecase.show { opacity:1; }
	#subtitle { text-anchor:middle; font-color:rgb(160,160,160); }
	#title { text-anchor:middle; font-size:18px}
	#unzoom { cursor:pointer; }
	#frames > *:hover { stroke:black; stroke-width:0.5; cursor:pointer; }
	.hide { display:none; }
	.parent { opacity:0.5; }
</style>
<script type="text/ecmascript">
<![CDATA[
	"use strict";
	var details, searchbtn, unzoombtn, matchedtxt, svg, searching, currentSearchTerm, ignorecase, ignorecaseBtn;
	function init(evt) {
		details = document.getElementById("details").firstChild;
		searchbtn = document.getElementById("search");
		ignorecaseBtn = document.getElementById("ignorecase");
		unzoombtn = document.getElementById("unzoom");
		matchedtxt = document.getElementById("matched");
		svg = document.getElementsByTagName("svg")[0];
		searching = 0;
		currentSearchTerm = null;

		// use GET parameters to restore a flamegraphs state.
		var params = get_params();
		if (params.x && params.y)
			zoom(find_group(document.querySelector('[x="' + params.x + '"][y="' + params.y + '"]')));
                if (params.s) search(params.s);
	}

	// event listeners
	window.addEventListener("click", function(e) {
		var target = find_group(e.target);
		if (target) {
			if (target.nodeName == "a") {
				if (e.ctrlKey === false) return;
				e.preventDefault();
			}
			if (target.classList.contains("parent")) unzoom();
			zoom(target);
			if (!document.querySelector('.parent')) {
				clearzoom();
				return;
			}

			// set parameters for zoom state
			var el = target.querySelector("rect");
			if (el && el.attributes && el.attributes.y && el.attributes._orig_x) {
				var params = get_params()
				params.x = el.attributes._orig_x.value;
				params.y = el.attributes.y.value;
				history.replaceState(null, null, parse_params(params));
			}
		}
		else if (e.target.id == "unzoom") clearzoom();
		else if (e.target.id == "search") search_prompt();
		else if (e.target.id == "ignorecase") toggle_ignorecase();
	}, false)

	// mouse-over for info
	// show
	window.addEventListener("mouseover", function(e) {
		var target = find_group(e.target);
		if (target) details.nodeValue = "Function: " + g_to_text(target);
	}, false)

	// clear
	window.addEventListener("mouseout", function(e) {
		var target = find_group(e.target);
		if (target) details.nodeValue = ' ';
	}, false)

	// ctrl-F for search
	// ctrl-I to toggle case-sensitive search
	window.addEventListener("keydown",function (e) {
		if (e.keyCode === 114 || (e.ctrlKey && e.keyCode === 70)) {
			e.preventDefault();
			search_prompt();
		}
		else if (e.ctrlKey && e.keyCode === 73) {
			e.preventDefault();
			toggle_ignorecase();
		}
	}, false)

	// functions
	function get_params() {
		var params = {};
		var paramsarr = window.location.search.substr(1).split('&');
		for (var i = 0; i < paramsarr.length; ++i) {
			var tmp = paramsarr[i].split("=");
			if (!tmp[0] || !tmp[1]) continue;
			params[tmp[0]]  = decodeURIComponent(tmp[1]);
		}
		return params;
	}
	function parse_params(params) {
		var uri = "?";
		for (var key in params) {
			uri += key + '=' + encodeURIComponent(params[key]) + '&';
		}
		if (uri.slice(-1) == "&")
			uri = uri.substring(0, uri.length - 1);
		if (uri == '?')
			uri = window.location.href.split('?')[0];
		return uri;
	}
	function find_child(node, selector) {
		var children = node.querySelectorAll(selector);
		if (children.length) return children[0];
	}
	function find_group(node) {
		var parent = node.parentElement;
		if (!parent) return;
		if (parent.id == "frames") return node;
		return find_group(parent);
	}
	function orig_save(e, attr, val) {
		if (e.attributes["_orig_" + attr] != undefined) return;
		if (e.attributes[attr] == undefined) return;
		if (val == undefined) val = e.attributes[attr].value;
		e.setAttribute("_orig_" + attr, val);
	}
	function orig_load(e, attr) {
		if (e.attributes["_orig_"+attr] == undefined) return;
		e.attributes[attr].value = e.attributes["_orig_" + attr].value;
		e.removeAttribute("_orig_"+attr);
	}
	function g_to_text(e) {
		var text = find_child(e, "title").firstChild.nodeValue;
		return (text)
	}
	function g_to_func(e) {
		var func = g_to_text(e);
		// if there's any manipulation we want to do to the function
		// name before it's searched, do it here before returning.
		return (func);
	}
	function update_text(e) {
		var r = find_child(e, "rect");
		var t = find_child(e, "text");
		var w = parseFloat(r.attributes.width.value) -3;
		var txt = find_child(e, "title").textContent.replace(/\([^(]*\)$/,"");
		t.attributes.x.value = parseFloat(r.attributes.x.value) + 3;

		// Smaller than this size won't fit anything
		if (w < 2 * 13 * 0.59) {
			t.textContent = "";
			return;
		}

		t.textContent = txt;
		// Fit in full text width
		if (/^ *$/.test(txt) || t.getSubStringLength(0, txt.length) < w)
			return;

		for (var x = txt.length - 2; x > 0; x--) {
			if (t.getSubStringLength(0, x + 2) <= w) {
				t.textContent = txt.substring(0, x) + "..";
				return;
			}
		}
		t.textContent = "";
	}

	// zoom
	function zoom_reset(e) {
		if (e.attributes != undefined) {
			orig_load(e, "x");
			orig_load(e, "width");
		}
		if (e.childNodes == undefined) return;
		for (var i = 0, c = e.childNodes; i < c.length; i++) {
			zoom_reset(c[i]);
		}
	}
	function zoom_child(e, x, ratio) {
		if (e.attributes != undefined) {
			if (e.attributes.x != undefined) {
				orig_save(e, "x");
				e.attributes.x.value = (parseFloat(e.attributes.x.value) - x - 10) * ratio + 10;
				if (e.tagName == "text")
					e.attributes.x.value = find_child(e.parentNode, "rect[x]").attributes.x.value + 3;
			}
			if (e.attributes.width != undefined) {
				orig_save(e, "width");
				e.attributes.width.value = parseFloat(e.attributes.width.value) * ratio;
			}
		}

		if (e.childNodes == undefined) return;
		for (var i = 0, c = e.childNodes; i < c.length; i++) {
			zoom_child(c[i], x - 10, ratio);
		}
	}
	function zoom_parent(e) {
		if (e.attributes) {
			if (e.attributes.x != undefined) {
				orig_save(e, "x");
				e.attributes.x.value = 10;
			}
			if (e.attributes.width != undefined) {
				orig_save(e, "width");
				e.attributes.width.value = parseInt(svg.width.baseVal.value) - (10 * 2);
			}
		}
		if (e.childNodes == undefined) return;
		for (var i = 0, c = e.childNodes; i < c.length; i++) {
			zoom_parent(c[i]);
		}
	}
	function zoom(node) {
		var attr = find_child(node, "rect").attributes;
		var width = parseFloat(attr.width.value);
		var xmin = parseFloat(attr.x.value);
		var xmax = parseFloat(xmin + width);
		var ymin = parseFloat(attr.y.value);
		var ratio = (svg.width.baseVal.value - 2 * 10) / width;

		// XXX: Workaround for JavaScript float issues (fix me)
		var fudge = 0.0001;

		unzoombtn.classList.remove("hide");

		var el = document.getElementById("frames").children;
		for (var i = 0; i < el.length; i++) {
			var e = el[i];
			var a = find_child(e, "rect").attributes;
			var ex = parseFloat(a.x.value);
			var ew = parseFloat(a.width.value);
			var upstack;
			// Is it an ancestor
			if (1 == 0) {
				upstack = parseFloat(a.y.value) > ymin;
			} else {
				upstack = parseFloat(a.y.value) < ymin;
			}
			if (upstack) {
				// Direct ancestor
				if (ex <= xmin && (ex+ew+fudge) >= xmax) {
					e.classList.add("parent");
					zoom_parent(e);
					update_text(e);
				}
				// not in current path
				else
					e.classList.add("hide");
			}
			// Children maybe
			else {
				// no common path
				if (ex < xmin || ex + fudge >= xmax) {
					e.classList.add("hide");
				}
				else {
					zoom_child(e, xmin, ratio);
					update_text(e);
				}
			}
		}
		search();
	}
	function unzoom() {
		unzoombtn.classList.add("hide");
		var el = document.getElementById("frames").children;
		for(var i = 0; i < el.length; i++) {
			el[i].classList.remove("parent");
			el[i].classList.remove("hide");
			zoom_reset(el[i]);
			update_text(el[i]);
		}
		search();
	}
	function clearzoom() {
		unzoom();

		// remove zoom state
		var params = get_params();
		if (params.x) delete params.x;
		if (params.y) delete params.y;
		history.replaceState(null, null, parse_params(params));
	}

	// search
	function toggle_ignorecase() {
		ignorecase = !ignorecase;
		if (ignorecase) {
			ignorecaseBtn.classList.add("show");
		} else {
			ignorecaseBtn.classList.remove("show");
		}
		reset_search();
		search();
	}
	function reset_search() {
		var el = document.querySelectorAll("#frames rect");
		for (var i = 0; i < el.length; i++) {
			orig_load(el[i], "fill")
		}
		var params = get_params();
		delete params.s;
		history.replaceState(null, null, parse_params(params));
	}
	function search_prompt() {
		if (!searching) {
			var term = prompt("Enter a search term (regexp " +
			    "allowed, eg: ^ext4_)"
			    + (ignorecase ? ", ignoring case" : "")
			    + "\nPress Ctrl-i to toggle case sensitivity", "");
			if (term != null) search(term);
		} else {
			reset_search();
			searching = 0;
			currentSearchTerm = null;
			searchbtn.classList.remove("show");
			searchbtn.firstChild.nodeValue = "Search"
			matchedtxt.classList.add("hide");
			matchedtxt.firstChild.nodeValue = ""
		}
	}
	function search(term) {
		if (term) currentSearchTerm = term;

		var re = new RegExp(currentSearchTerm, ignorecase ? 'i' : '');
		var el = document.getElementById("frames").children;
		var matches = new Object();
		var maxwidth = 0;
		for (var i = 0; i < el.length; i++) {
			var e = el[i];
			var func = g_to_func(e);
			var rect = find_child(e, "rect");
			if (func == null || rect == null)
				continue;

			// Save max width. Only works as we have a root frame
			var w = parseFloat(rect.attributes.width.value);
			if (w > maxwidth)
				maxwidth = w;

			if (func.match(re)) {
				// highlight
				var x = parseFloat(rect.attributes.x.value);
				orig_save(rect, "fill");
				rect.attributes.fill.value = "rgb(230,0,230)";

				// remember matches
				if (matches[x] == undefined) {
					matches[x] = w;
				} else {
					if (w > matches[x]) {
						// overwrite with parent
						matches[x] = w;
					}
				}
				searching = 1;
			}
		}
		if (!searching)
			return;
		var params = get_params();
		params.s = currentSearchTerm;
		history.replaceState(null, null, parse_params(params));

		searchbtn.classList.add("show");
		searchbtn.firstChild.nodeValue = "Reset Search";

		// calculate percent matched, excluding vertical overlap
		var count = 0;
		var lastx = -1;
		var lastw = 0;
		var keys = Array();
		for (k in matches) {
			if (matches.hasOwnProperty(k))
				keys.push(k);
		}
		// sort the matched frames by their x location
		// ascending, then width descending
		keys.sort(function(a, b){
			return a - b;
		});
		// Step through frames saving only the biggest bottom-up frames
		// thanks to the sort order. This relies on the tree property
		// where children are always smaller than their parents.
		var fudge = 0.0001;	// JavaScript floating point
		for (var k in keys) {
			var x = parseFloat(keys[k]);
			var w = matches[keys[k]];
			if (x >= lastx + lastw - fudge) {
				count += w;
				lastx = x;
				lastw = w;
			}
		}
		// display matched percent
		matchedtxt.classList.remove("hide");
		var pct = 100 * count / maxwidth;
		if (pct != 100) pct = pct.toFixed(1)
		matchedtxt.firstChild.nodeValue = "Matched: " + pct + "%";
	}
]]>
</script>
<rect x="0.0" y="0" width="1200.0" height="395.0" fill="url(#background)"  />
<text id="title" x="600.00" y="26" >Firedrake example</text>
<text id="details" x="10.00" y="377" > </text>
<text id="unzoom" x="10.00" y="26" class="hide">Reset Zoom</text>
<text id="search" x="1090.00" y="26" >Search</text>
<text id="ignorecase" x="1174.00" y="26" >ic</text>
<text id="matched" x="1090.00" y="377" > </text>
<g id="frames">
<g >
<title>pyop2.global_kernel.GlobalKernel.compile (671,670 us, 0.70%)</title><rect x="1100.2" y="183" width="8.3" height="15.0" fill="rgb(0,0,0)" rx="2" ry="2" />
<text  x="1103.25" y="193.5" ></text>
</g>
<g >
<title>PCApply (58,494,259 us, 60.91%)</title><rect x="132.9" y="119" width="718.8" height="15.0" fill="rgb(0,0,0)" rx="2" ry="2" />
<text  x="135.94" y="129.5" >PCApply</text>
</g>
<g >
<title>pyop2.global_kernel.GlobalKernel.compile (3,192,804 us, 3.32%)</title><rect x="51.8" y="183" width="39.3" height="15.0" fill="rgb(0,0,0)" rx="2" ry="2" />
<text  x="54.83" y="193.5" >pyo..</text>
</g>
<g >
<title>MatMultTranspose (10,096 us, 0.01%)</title><rect x="725.4" y="231" width="0.1" height="15.0" fill="rgb(0,0,0)" rx="2" ry="2" />
<text  x="728.40" y="241.5" ></text>
</g>
<g >
<title>ParLoopExecute (671,670 us, 0.70%)</title><rect x="1100.2" y="151" width="8.3" height="15.0" fill="rgb(0,0,0)" rx="2" ry="2" />
<text  x="1103.25" y="161.5" ></text>
</g>
<g >
<title>ParLoopExecute (553,232 us, 0.58%)</title><rect x="713.3" y="279" width="6.8" height="15.0" fill="rgb(0,0,0)" rx="2" ry="2" />
<text  x="716.30" y="289.5" ></text>
</g>
<g >
<title>firedrake.formmanipulation.ExtractSubBlock.argument (10,754 us, 0.01%)</title><rect x="1100.0" y="167" width="0.1" height="15.0" fill="rgb(0,0,0)" rx="2" ry="2" />
<text  x="1102.97" y="177.5" ></text>
</g>
<g >
<title>firedrake.mg.interface.restrict (1,114,698 us, 1.16%)</title><rect x="755.6" y="231" width="13.7" height="15.0" fill="rgb(0,0,0)" rx="2" ry="2" />
<text  x="758.62" y="241.5" ></text>
</g>
<g >
<title>firedrake.extrusion_utils.make_extruded_coords (929,890 us, 0.97%)</title><rect x="21.2" y="87" width="11.4" height="15.0" fill="rgb(0,0,0)" rx="2" ry="2" />
<text  x="24.17" y="97.5" ></text>
</g>
<g >
<title>firedrake.__init__ (1,534,196 us, 1.60%)</title><rect x="32.8" y="71" width="18.9" height="15.0" fill="rgb(0,0,0)" rx="2" ry="2" />
<text  x="35.84" y="81.5" ></text>
</g>
<g >
<title>firedrake.mg.interface.restrict (10,096 us, 0.01%)</title><rect x="725.4" y="247" width="0.1" height="15.0" fill="rgb(0,0,0)" rx="2" ry="2" />
<text  x="728.40" y="257.5" ></text>
</g>
<g >
<title>firedrake.mg.embedded.TransferManager.op (2,418,531 us, 2.52%)</title><rect x="725.9" y="247" width="29.7" height="15.0" fill="rgb(0,0,0)" rx="2" ry="2" />
<text  x="728.90" y="257.5" >f..</text>
</g>
<g >
<title>Parloop_Cells_wrap_wrap_slate_loopy_knl_7 (13,735,581 us, 14.30%)</title><rect x="301.9" y="183" width="168.8" height="15.0" fill="rgb(0,0,0)" rx="2" ry="2" />
<text  x="304.90" y="193.5" >Parloop_Cells_wrap_w..</text>
</g>
<g >
<title>SCBackSub (31,681,756 us, 32.99%)</title><rect x="132.9" y="135" width="389.3" height="15.0" fill="rgb(0,0,0)" rx="2" ry="2" />
<text  x="135.94" y="145.5" >SCBackSub</text>
</g>
<g >
<title>firedrake.interpolation.make_interpolator (12,126 us, 0.01%)</title><rect x="1100.1" y="135" width="0.1" height="15.0" fill="rgb(0,0,0)" rx="2" ry="2" />
<text  x="1103.10" y="145.5" ></text>
</g>
<g >
<title>ParLoopExecute (5,434,471 us, 5.66%)</title><rect x="51.8" y="151" width="66.8" height="15.0" fill="rgb(0,0,0)" rx="2" ry="2" />
<text  x="54.83" y="161.5" >ParLoo..</text>
</g>
<g >
<title>PCApply (1,514,255 us, 1.58%)</title><rect x="706.9" y="183" width="18.6" height="15.0" fill="rgb(0,0,0)" rx="2" ry="2" />
<text  x="709.92" y="193.5" ></text>
</g>
<g >
<title>firedrake.tsfc_interface.compile_form (2,610,103 us, 2.72%)</title><rect x="1067.9" y="151" width="32.1" height="15.0" fill="rgb(0,0,0)" rx="2" ry="2" />
<text  x="1070.90" y="161.5" >fi..</text>
</g>
<g >
<title>SCSolve (11,781,168 us, 12.27%)</title><rect x="706.9" y="135" width="144.8" height="15.0" fill="rgb(0,0,0)" rx="2" ry="2" />
<text  x="709.92" y="145.5" >SCSolve</text>
</g>
<g >
<title>pyop2.global_kernel.GlobalKernel.compile (2,433,199 us, 2.53%)</title><rect x="1146.6" y="151" width="29.9" height="15.0" fill="rgb(0,0,0)" rx="2" ry="2" />
<text  x="1149.59" y="161.5" >p..</text>
</g>
<g >
<title>Parloop_Cells_wrap_par_loop_kernel (879,832 us, 0.92%)</title><rect x="522.2" y="199" width="10.8" height="15.0" fill="rgb(0,0,0)" rx="2" ry="2" />
<text  x="525.22" y="209.5" ></text>
</g>
<g >
<title>Parloop_Cells_wrap_form0_cell_integral_otherwise (3,099,783 us, 3.23%)</title><rect x="1108.5" y="135" width="38.1" height="15.0" fill="rgb(0,0,0)" rx="2" ry="2" />
<text  x="1111.50" y="145.5" >Pa..</text>
</g>
<g >
<title>Parloop_Cells_wrap_wrap_slate_loopy_knl_14 (9,908,627 us, 10.32%)</title><rect x="161.5" y="167" width="121.8" height="15.0" fill="rgb(0,0,0)" rx="2" ry="2" />
<text  x="164.54" y="177.5" >Parloop_Cells..</text>
</g>
<g >
<title>KSPSolve (5,078,224 us, 5.29%)</title><rect x="706.9" y="151" width="62.4" height="15.0" fill="rgb(0,0,0)" rx="2" ry="2" />
<text  x="709.92" y="161.5" >KSPSolve</text>
</g>
<g >
<title>Parloop_set_#x7f00ced09210_wrap_pyop2_kernel_inject (586,754 us, 0.61%)</title><rect x="729.7" y="295" width="7.2" height="15.0" fill="rgb(0,0,0)" rx="2" ry="2" />
<text  x="732.71" y="305.5" ></text>
</g>
<g >
<title>SNESSolve (92,629,421 us, 96.46%)</title><rect x="51.8" y="87" width="1138.2" height="15.0" fill="rgb(0,0,0)" rx="2" ry="2" />
<text  x="54.83" y="97.5" >SNESSolve</text>
</g>
<g >
<title>firedrake.mg.interface.prolong (1,489,586 us, 1.55%)</title><rect x="707.1" y="263" width="18.3" height="15.0" fill="rgb(0,0,0)" rx="2" ry="2" />
<text  x="710.10" y="273.5" ></text>
</g>
<g >
<title>HybridProject (854,758 us, 0.89%)</title><rect x="151.0" y="151" width="10.5" height="15.0" fill="rgb(0,0,0)" rx="2" ry="2" />
<text  x="154.04" y="161.5" ></text>
</g>
<g >
<title>Parloop_Cells_wrap_form0_cell_integral_otherwise (3,192,804 us, 3.32%)</title><rect x="51.8" y="167" width="39.3" height="15.0" fill="rgb(0,0,0)" rx="2" ry="2" />
<text  x="54.83" y="177.5" >Par..</text>
</g>
<g >
<title>CreateExtMesh (939,731 us, 0.98%)</title><rect x="21.1" y="71" width="11.5" height="15.0" fill="rgb(0,0,0)" rx="2" ry="2" />
<text  x="24.05" y="81.5" ></text>
</g>
<g >
<title>firedrake.ufl_expr.adjoint (11,222 us, 0.01%)</title><rect x="51.7" y="103" width="0.1" height="15.0" fill="rgb(0,0,0)" rx="2" ry="2" />
<text  x="54.69" y="113.5" ></text>
</g>
<g >
<title>Parloop_Cells_wrap_par_loop_kernel (671,670 us, 0.70%)</title><rect x="1100.2" y="167" width="8.3" height="15.0" fill="rgb(0,0,0)" rx="2" ry="2" />
<text  x="1103.25" y="177.5" ></text>
</g>
<g >
<title>ParLoopExecute (5,532,982 us, 5.76%)</title><rect x="1108.5" y="119" width="68.0" height="15.0" fill="rgb(0,0,0)" rx="2" ry="2" />
<text  x="1111.50" y="129.5" >ParLoo..</text>
</g>
<g >
<title>ParLoopExecute (586,754 us, 0.61%)</title><rect x="729.7" y="279" width="7.2" height="15.0" fill="rgb(0,0,0)" rx="2" ry="2" />
<text  x="732.71" y="289.5" ></text>
</g>
<g >
<title>firedrake.formmanipulation.split_form (10,754 us, 0.01%)</title><rect x="1100.0" y="135" width="0.1" height="15.0" fill="rgb(0,0,0)" rx="2" ry="2" />
<text  x="1102.97" y="145.5" ></text>
</g>
<g >
<title>PCSetUp (20,901,390 us, 21.76%)</title><rect x="851.7" y="103" width="256.8" height="15.0" fill="rgb(0,0,0)" rx="2" ry="2" />
<text  x="854.68" y="113.5" >PCSetUp</text>
</g>
<g >
<title>ParLoopExecute (15,839,080 us, 16.49%)</title><rect x="873.3" y="151" width="194.6" height="15.0" fill="rgb(0,0,0)" rx="2" ry="2" />
<text  x="876.27" y="161.5" >ParLoopExecute</text>
</g>
<g >
<title>pyop2.global_kernel.GlobalKernel.compile (5,087,238 us, 5.30%)</title><rect x="784.3" y="199" width="62.5" height="15.0" fill="rgb(0,0,0)" rx="2" ry="2" />
<text  x="787.29" y="209.5" >pyop2...</text>
</g>
<g >
<title>PCApply (5,078,224 us, 5.29%)</title><rect x="706.9" y="167" width="62.4" height="15.0" fill="rgb(0,0,0)" rx="2" ry="2" />
<text  x="709.92" y="177.5" >PCApply</text>
</g>
<g >
<title>firedrake.interpolation.make_interpolator (25,231 us, 0.03%)</title><rect x="846.8" y="167" width="0.3" height="15.0" fill="rgb(0,0,0)" rx="2" ry="2" />
<text  x="849.80" y="177.5" ></text>
</g>
<g >
<title>pyop2.global_kernel.GlobalKernel.compile (879,832 us, 0.92%)</title><rect x="522.2" y="215" width="10.8" height="15.0" fill="rgb(0,0,0)" rx="2" ry="2" />
<text  x="525.22" y="225.5" ></text>
</g>
<g >
<title>pyop2.global_kernel.GlobalKernel.compile (3,099,783 us, 3.23%)</title><rect x="1108.5" y="151" width="38.1" height="15.0" fill="rgb(0,0,0)" rx="2" ry="2" />
<text  x="1111.50" y="161.5" >py..</text>
</g>
<g >
<title>Parloop_set_#x7f00ced09060_wrap_pyop2_kernel_restrict (663,943 us, 0.69%)</title><rect x="755.9" y="263" width="8.1" height="15.0" fill="rgb(0,0,0)" rx="2" ry="2" />
<text  x="758.89" y="273.5" ></text>
</g>
<g >
<title>ParLoopExecute (1,063,669 us, 1.11%)</title><rect x="736.9" y="311" width="13.1" height="15.0" fill="rgb(0,0,0)" rx="2" ry="2" />
<text  x="739.92" y="321.5" ></text>
</g>
<g >
<title>firedrake.dmhooks.coarsen (2,438,927 us, 2.54%)</title><rect x="725.7" y="231" width="29.9" height="15.0" fill="rgb(0,0,0)" rx="2" ry="2" />
<text  x="728.65" y="241.5" >f..</text>
</g>
<g >
<title>pyop2.global_kernel.GlobalKernel.compile (898,135 us, 0.94%)</title><rect x="21.6" y="135" width="11.0" height="15.0" fill="rgb(0,0,0)" rx="2" ry="2" />
<text  x="24.56" y="145.5" ></text>
</g>
<g >
<title>firedrake.parloops.par_loop (854,758 us, 0.89%)</title><rect x="151.0" y="167" width="10.5" height="15.0" fill="rgb(0,0,0)" rx="2" ry="2" />
<text  x="154.04" y="177.5" ></text>
</g>
<g >
<title>pyop2.global_kernel.GlobalKernel.compile (13,735,581 us, 14.30%)</title><rect x="301.9" y="199" width="168.8" height="15.0" fill="rgb(0,0,0)" rx="2" ry="2" />
<text  x="304.90" y="209.5" >pyop2.global_kernel...</text>
</g>
<g >
<title>ParLoopExecute (11,156,701 us, 11.62%)</title><rect x="547.4" y="167" width="137.1" height="15.0" fill="rgb(0,0,0)" rx="2" ry="2" />
<text  x="550.39" y="177.5" >ParLoopExecute</text>
</g>
<g >
<title>pyop2.global_kernel.GlobalKernel.compile (1,203,678 us, 1.25%)</title><rect x="769.5" y="199" width="14.8" height="15.0" fill="rgb(0,0,0)" rx="2" ry="2" />
<text  x="772.50" y="209.5" ></text>
</g>
<g >
<title>PCSetUp (6,702,944 us, 6.98%)</title><rect x="769.3" y="151" width="82.4" height="15.0" fill="rgb(0,0,0)" rx="2" ry="2" />
<text  x="772.32" y="161.5" >PCSetUp</text>
</g>
<g >
<title>firedrake.functionspacedata.get_shared_data (19,370 us, 0.02%)</title><rect x="32.6" y="103" width="0.2" height="15.0" fill="rgb(0,0,0)" rx="2" ry="2" />
<text  x="35.60" y="113.5" ></text>
</g>
<g >
<title>firedrake.interpolation.interpolate (1,098,335 us, 1.14%)</title><rect x="736.9" y="279" width="13.5" height="15.0" fill="rgb(0,0,0)" rx="2" ry="2" />
<text  x="739.92" y="289.5" ></text>
</g>
<g >
<title>Parloop_Cells_wrap_wrap_slate_loopy_knl_4 (11,156,701 us, 11.62%)</title><rect x="547.4" y="183" width="137.1" height="15.0" fill="rgb(0,0,0)" rx="2" ry="2" />
<text  x="550.39" y="193.5" >Parloop_Cells_w..</text>
</g>
<g >
<title>firedrake.parloops.par_loop (879,832 us, 0.92%)</title><rect x="522.2" y="167" width="10.8" height="15.0" fill="rgb(0,0,0)" rx="2" ry="2" />
<text  x="525.22" y="177.5" ></text>
</g>
<g >
<title>firedrake.pointquery_utils.to_reference_coordinates (431,285 us, 0.45%)</title><rect x="720.1" y="279" width="5.3" height="15.0" fill="rgb(0,0,0)" rx="2" ry="2" />
<text  x="723.10" y="289.5" ></text>
</g>
<g >
<title>HybridOperatorAssembly (20,167,347 us, 21.00%)</title><rect x="852.2" y="135" width="247.8" height="15.0" fill="rgb(0,0,0)" rx="2" ry="2" />
<text  x="855.16" y="145.5" >HybridOperatorAssembly</text>
</g>
<g >
<title>DMCoarsen (2,438,927 us, 2.54%)</title><rect x="725.7" y="215" width="29.9" height="15.0" fill="rgb(0,0,0)" rx="2" ry="2" />
<text  x="728.65" y="225.5" >D..</text>
</g>
<g >
<title>pyop2.global_kernel.GlobalKernel.compile (15,839,080 us, 16.49%)</title><rect x="873.3" y="183" width="194.6" height="15.0" fill="rgb(0,0,0)" rx="2" ry="2" />
<text  x="876.27" y="193.5" >pyop2.global_kernel.Glo..</text>
</g>
<g >
<title>Parloop_Cells_wrap_expression_kernel (1,203,678 us, 1.25%)</title><rect x="769.5" y="183" width="14.8" height="15.0" fill="rgb(0,0,0)" rx="2" ry="2" />
<text  x="772.50" y="193.5" ></text>
</g>
<g >
<title>RecoverFirstElim (17,781,237 us, 18.52%)</title><rect x="283.3" y="151" width="218.5" height="15.0" fill="rgb(0,0,0)" rx="2" ry="2" />
<text  x="286.29" y="161.5" >RecoverFirstElim</text>
</g>
<g >
<title>Parloop_Cells_wrap_expression_kernel (1,063,669 us, 1.11%)</title><rect x="736.9" y="327" width="13.1" height="15.0" fill="rgb(0,0,0)" rx="2" ry="2" />
<text  x="739.92" y="337.5" ></text>
</g>
<g >
<title>firedrake.variational_solver.NonlinearVariationalProblem.__init__ (11,222 us, 0.01%)</title><rect x="51.7" y="87" width="0.1" height="15.0" fill="rgb(0,0,0)" rx="2" ry="2" />
<text  x="54.69" y="97.5" ></text>
</g>
<g >
<title>firedrake.tsfc_interface.compile_form (2,531,513 us, 2.64%)</title><rect x="470.7" y="167" width="31.1" height="15.0" fill="rgb(0,0,0)" rx="2" ry="2" />
<text  x="473.67" y="177.5" >fi..</text>
</g>
<g >
<title>Parloop_Cells_wrap_form1_cell_integral_otherwise (2,433,199 us, 2.53%)</title><rect x="1146.6" y="135" width="29.9" height="15.0" fill="rgb(0,0,0)" rx="2" ry="2" />
<text  x="1149.59" y="145.5" >P..</text>
</g>
<g >
<title>firedrake.tsfc_interface.compile_form (1,663,658 us, 1.73%)</title><rect x="501.8" y="151" width="20.4" height="15.0" fill="rgb(0,0,0)" rx="2" ry="2" />
<text  x="504.78" y="161.5" ></text>
</g>
<g >
<title>firedrake.interpolation.make_interpolator (34,666 us, 0.04%)</title><rect x="750.0" y="295" width="0.4" height="15.0" fill="rgb(0,0,0)" rx="2" ry="2" />
<text  x="752.99" y="305.5" ></text>
</g>
<g >
<title>firedrake.tsfc_interface.compile_form (371,742 us, 0.39%)</title><rect x="847.1" y="167" width="4.6" height="15.0" fill="rgb(0,0,0)" rx="2" ry="2" />
<text  x="850.11" y="177.5" ></text>
</g>
<g >
<title>CreateFunctionSpace (19,370 us, 0.02%)</title><rect x="32.6" y="71" width="0.2" height="15.0" fill="rgb(0,0,0)" rx="2" ry="2" />
<text  x="35.60" y="81.5" ></text>
</g>
<g >
<title>SCForwardElim (15,031,335 us, 15.65%)</title><rect x="522.2" y="135" width="184.7" height="15.0" fill="rgb(0,0,0)" rx="2" ry="2" />
<text  x="525.22" y="145.5" >SCForwardElim</text>
</g>
<g >
<title>firedrake.functionspaceimpl.FunctionSpace.__init__ (19,370 us, 0.02%)</title><rect x="32.6" y="87" width="0.2" height="15.0" fill="rgb(0,0,0)" rx="2" ry="2" />
<text  x="35.60" y="97.5" ></text>
</g>
<g >
<title>firedrake.mg.interface.inject (2,418,531 us, 2.52%)</title><rect x="725.9" y="263" width="29.7" height="15.0" fill="rgb(0,0,0)" rx="2" ry="2" />
<text  x="728.90" y="273.5" >f..</text>
</g>
<g >
<title>PCSetUp (3,563,969 us, 3.71%)</title><rect x="725.5" y="183" width="43.8" height="15.0" fill="rgb(0,0,0)" rx="2" ry="2" />
<text  x="728.52" y="193.5" >PCS..</text>
</g>
<g >
<title>MatMult (6,601,049 us, 6.87%)</title><rect x="51.8" y="119" width="81.1" height="15.0" fill="rgb(0,0,0)" rx="2" ry="2" />
<text  x="54.83" y="129.5" >MatMult</text>
</g>
<g >
<title>firedrake.matrix_free.operators.ImplicitMatrixContext.mult (6,601,049 us, 6.87%)</title><rect x="51.8" y="135" width="81.1" height="15.0" fill="rgb(0,0,0)" rx="2" ry="2" />
<text  x="54.83" y="145.5" >firedrak..</text>
</g>
<g >
<title>PCApply (1,514,255 us, 1.58%)</title><rect x="706.9" y="215" width="18.6" height="15.0" fill="rgb(0,0,0)" rx="2" ry="2" />
<text  x="709.92" y="225.5" ></text>
</g>
<g >
<title>KSPSolve (1,514,255 us, 1.58%)</title><rect x="706.9" y="199" width="18.6" height="15.0" fill="rgb(0,0,0)" rx="2" ry="2" />
<text  x="709.92" y="209.5" ></text>
</g>
<g >
<title>firedrake.variational_solver.LinearVariationalProblem.__init__ (11,222 us, 0.01%)</title><rect x="51.7" y="71" width="0.1" height="15.0" fill="rgb(0,0,0)" rx="2" ry="2" />
<text  x="54.69" y="81.5" ></text>
</g>
<g >
<title>CreateFunctionSpace (10,938 us, 0.01%)</title><rect x="852.0" y="135" width="0.2" height="15.0" fill="rgb(0,0,0)" rx="2" ry="2" />
<text  x="855.03" y="145.5" ></text>
</g>
<g >
<title>firedrake.pointquery_utils.to_reference_coordinates (423,439 us, 0.44%)</title><rect x="750.4" y="279" width="5.2" height="15.0" fill="rgb(0,0,0)" rx="2" ry="2" />
<text  x="753.42" y="289.5" ></text>
</g>
<g >
<title>ParLoopExecute (9,908,627 us, 10.32%)</title><rect x="161.5" y="151" width="121.8" height="15.0" fill="rgb(0,0,0)" rx="2" ry="2" />
<text  x="164.54" y="161.5" >ParLoopExecute</text>
</g>
<g >
<title>Parloop_Cells_wrap_par_loop_kernel (854,758 us, 0.89%)</title><rect x="151.0" y="199" width="10.5" height="15.0" fill="rgb(0,0,0)" rx="2" ry="2" />
<text  x="154.04" y="209.5" ></text>
</g>
<g >
<title>firedrake.tsfc_interface.compile_form (1,099,741 us, 1.15%)</title><rect x="1176.5" y="119" width="13.5" height="15.0" fill="rgb(0,0,0)" rx="2" ry="2" />
<text  x="1179.49" y="129.5" ></text>
</g>
<g >
<title>SNESFunctionEval (6,632,723 us, 6.91%)</title><rect x="1108.5" y="103" width="81.5" height="15.0" fill="rgb(0,0,0)" rx="2" ry="2" />
<text  x="1111.50" y="113.5" >SNESFunc..</text>
</g>
<g >
<title>pyop2.global_kernel.GlobalKernel.compile (663,943 us, 0.69%)</title><rect x="755.9" y="279" width="8.1" height="15.0" fill="rgb(0,0,0)" rx="2" ry="2" />
<text  x="758.89" y="289.5" ></text>
</g>
<g >
<title>pyop2.global_kernel.GlobalKernel.compile (586,754 us, 0.61%)</title><rect x="729.7" y="311" width="7.2" height="15.0" fill="rgb(0,0,0)" rx="2" ry="2" />
<text  x="732.71" y="321.5" ></text>
</g>
<g >
<title>Parloop_Cells_wrap_form1_cell_integral_otherwise (2,241,667 us, 2.33%)</title><rect x="91.1" y="167" width="27.5" height="15.0" fill="rgb(0,0,0)" rx="2" ry="2" />
<text  x="94.06" y="177.5" >P..</text>
</g>
<g >
<title>ParLoopExecute (854,758 us, 0.89%)</title><rect x="151.0" y="183" width="10.5" height="15.0" fill="rgb(0,0,0)" rx="2" ry="2" />
<text  x="154.04" y="193.5" ></text>
</g>
<g >
<title>firedrake.formmanipulation.ExtractSubBlock.split (10,754 us, 0.01%)</title><rect x="1100.0" y="151" width="0.1" height="15.0" fill="rgb(0,0,0)" rx="2" ry="2" />
<text  x="1102.97" y="161.5" ></text>
</g>
<g >
<title>firedrake.tsfc_interface.compile_form (1,826,226 us, 1.90%)</title><rect x="684.5" y="167" width="22.4" height="15.0" fill="rgb(0,0,0)" rx="2" ry="2" />
<text  x="687.48" y="177.5" ></text>
</g>
<g >
<title>Parloop_Cells_wrap_form00_cell_integral_otherwise (5,087,238 us, 5.30%)</title><rect x="784.3" y="183" width="62.5" height="15.0" fill="rgb(0,0,0)" rx="2" ry="2" />
<text  x="787.29" y="193.5" >Parloo..</text>
</g>
<g >
<title>firedrake.tsfc_interface.compile_form (1,166,578 us, 1.21%)</title><rect x="118.6" y="151" width="14.3" height="15.0" fill="rgb(0,0,0)" rx="2" ry="2" />
<text  x="121.60" y="161.5" ></text>
</g>
<g >
<title>Parloop_Cells_wrap_wrap_slate_loopy_knl_0 (15,839,080 us, 16.49%)</title><rect x="873.3" y="167" width="194.6" height="15.0" fill="rgb(0,0,0)" rx="2" ry="2" />
<text  x="876.27" y="177.5" >Parloop_Cells_wrap_wrap..</text>
</g>
<g >
<title>pyop2.global_kernel.GlobalKernel.compile (11,156,701 us, 11.62%)</title><rect x="547.4" y="199" width="137.1" height="15.0" fill="rgb(0,0,0)" rx="2" ry="2" />
<text  x="550.39" y="209.5" >pyop2.global_ke..</text>
</g>
<g >
<title>HybridInit (20,901,390 us, 21.76%)</title><rect x="851.7" y="119" width="256.8" height="15.0" fill="rgb(0,0,0)" rx="2" ry="2" />
<text  x="854.68" y="129.5" >HybridInit</text>
</g>
<g >
<title>firedrake (96,033,345 us, 100.00%)</title><rect x="10.0" y="55" width="1180.0" height="15.0" fill="rgb(0,0,0)" rx="2" ry="2" />
<text  x="13.00" y="65.5" >firedrake</text>
</g>
<g >
<title>ParLoopExecute (6,290,916 us, 6.55%)</title><rect x="769.5" y="167" width="77.3" height="15.0" fill="rgb(0,0,0)" rx="2" ry="2" />
<text  x="772.50" y="177.5" >ParLoopE..</text>
</g>
<g >
<title>ParLoopExecute (13,735,581 us, 14.30%)</title><rect x="301.9" y="167" width="168.8" height="15.0" fill="rgb(0,0,0)" rx="2" ry="2" />
<text  x="304.90" y="177.5" >ParLoopExecute</text>
</g>
<g >
<title>firedrake.mg.embedded.TransferManager.op (1,489,586 us, 1.55%)</title><rect x="707.1" y="247" width="18.3" height="15.0" fill="rgb(0,0,0)" rx="2" ry="2" />
<text  x="710.10" y="257.5" ></text>
</g>
<g >
<title>pyop2.global_kernel.GlobalKernel.compile (854,758 us, 0.89%)</title><rect x="151.0" y="215" width="10.5" height="15.0" fill="rgb(0,0,0)" rx="2" ry="2" />
<text  x="154.04" y="225.5" ></text>
</g>
<g >
<title>Parloop_set_#x7f00ced09210_wrap_pyop2_kernel_prolong (553,232 us, 0.58%)</title><rect x="713.3" y="295" width="6.8" height="15.0" fill="rgb(0,0,0)" rx="2" ry="2" />
<text  x="716.30" y="305.5" ></text>
</g>
<g >
<title>firedrake.interpolation.Interpolator.interpolate (1,063,669 us, 1.11%)</title><rect x="736.9" y="295" width="13.1" height="15.0" fill="rgb(0,0,0)" rx="2" ry="2" />
<text  x="739.92" y="305.5" ></text>
</g>
<g >
<title>all (96,033,345 us, 100%)</title><rect x="10.0" y="39" width="1180.0" height="15.0" fill="rgb(0,0,0)" rx="2" ry="2" />
<text  x="13.00" y="49.5" ></text>
</g>
<g >
<title>HybridRHS (14,151,503 us, 14.74%)</title><rect x="533.0" y="151" width="173.9" height="15.0" fill="rgb(0,0,0)" rx="2" ry="2" />
<text  x="536.03" y="161.5" >HybridRHS</text>
</g>
<g >
<title>pyop2.global_kernel.GlobalKernel.compile (1,063,669 us, 1.11%)</title><rect x="736.9" y="343" width="13.1" height="15.0" fill="rgb(0,0,0)" rx="2" ry="2" />
<text  x="739.92" y="353.5" ></text>
</g>
<g >
<title>Parloop_Cells_wrap_pyop2_kernel_uniform_extrusion (898,135 us, 0.94%)</title><rect x="21.6" y="119" width="11.0" height="15.0" fill="rgb(0,0,0)" rx="2" ry="2" />
<text  x="24.56" y="129.5" ></text>
</g>
<g >
<title>PCSetUp (3,563,969 us, 3.71%)</title><rect x="725.5" y="199" width="43.8" height="15.0" fill="rgb(0,0,0)" rx="2" ry="2" />
<text  x="728.52" y="209.5" >PCS..</text>
</g>
<g >
<title>firedrake.variational_solver.NonlinearVariationalSolver.solve (92,629,421 us, 96.46%)</title><rect x="51.8" y="71" width="1138.2" height="15.0" fill="rgb(0,0,0)" rx="2" ry="2" />
<text  x="54.83" y="81.5" >firedrake.variational_solver.NonlinearVariationalSolver.solve</text>
</g>
<g >
<title>HybridBreak (879,832 us, 0.92%)</title><rect x="522.2" y="151" width="10.8" height="15.0" fill="rgb(0,0,0)" rx="2" ry="2" />
<text  x="525.22" y="161.5" ></text>
</g>
<g >
<title>pyop2.global_kernel.GlobalKernel.compile (9,908,627 us, 10.32%)</title><rect x="161.5" y="183" width="121.8" height="15.0" fill="rgb(0,0,0)" rx="2" ry="2" />
<text  x="164.54" y="193.5" >pyop2.global_..</text>
</g>
<g >
<title>ParLoopExecute (663,943 us, 0.69%)</title><rect x="755.9" y="247" width="8.1" height="15.0" fill="rgb(0,0,0)" rx="2" ry="2" />
<text  x="758.89" y="257.5" ></text>
</g>
<g >
<title>pyop2.global_kernel.GlobalKernel.compile (553,232 us, 0.58%)</title><rect x="713.3" y="311" width="6.8" height="15.0" fill="rgb(0,0,0)" rx="2" ry="2" />
<text  x="716.30" y="321.5" ></text>
</g>
<g >
<title>firedrake.functionspacedata.FunctionSpaceData.__init__ (19,370 us, 0.02%)</title><rect x="32.6" y="119" width="0.2" height="15.0" fill="rgb(0,0,0)" rx="2" ry="2" />
<text  x="35.60" y="129.5" ></text>
</g>
<g >
<title>MatMult (1,489,586 us, 1.55%)</title><rect x="707.1" y="231" width="18.3" height="15.0" fill="rgb(0,0,0)" rx="2" ry="2" />
<text  x="710.10" y="241.5" ></text>
</g>
<g >
<title>KSPSolve (65,095,308 us, 67.78%)</title><rect x="51.8" y="103" width="799.9" height="15.0" fill="rgb(0,0,0)" rx="2" ry="2" />
<text  x="54.83" y="113.5" >KSPSolve</text>
</g>
<g >
<title>firedrake.pointquery_utils.to_reference_coordinates (428,770 us, 0.45%)</title><rect x="764.0" y="247" width="5.3" height="15.0" fill="rgb(0,0,0)" rx="2" ry="2" />
<text  x="767.05" y="257.5" ></text>
</g>
<g >
<title>pyop2.global_kernel.GlobalKernel.compile (2,241,667 us, 2.33%)</title><rect x="91.1" y="183" width="27.5" height="15.0" fill="rgb(0,0,0)" rx="2" ry="2" />
<text  x="94.06" y="193.5" >p..</text>
</g>
<g >
<title>ParLoopExecute (898,135 us, 0.94%)</title><rect x="21.6" y="103" width="11.0" height="15.0" fill="rgb(0,0,0)" rx="2" ry="2" />
<text  x="24.56" y="113.5" ></text>
</g>
<g >
<title>ParLoopExecute (879,832 us, 0.92%)</title><rect x="522.2" y="183" width="10.8" height="15.0" fill="rgb(0,0,0)" rx="2" ry="2" />
<text  x="525.22" y="193.5" ></text>
</g>
<g >
<title>MatMultTranspose (1,114,698 us, 1.16%)</title><rect x="755.6" y="215" width="13.7" height="15.0" fill="rgb(0,0,0)" rx="2" ry="2" />
<text  x="758.62" y="225.5" ></text>
</g>
<g >
<title>firedrake.parloops.par_loop (671,670 us, 0.70%)</title><rect x="1100.2" y="135" width="8.3" height="15.0" fill="rgb(0,0,0)" rx="2" ry="2" />
<text  x="1103.25" y="145.5" ></text>
</g>
</g>
</svg>
