<?xml version="1.0" standalone="no"?>
<!DOCTYPE svg PUBLIC "-//W3C//DTD SVG 1.1//EN" "http://www.w3.org/Graphics/SVG/1.1/DTD/svg11.dtd">
<svg version="1.1" width="1200" height="283" onload="init(evt)" viewBox="0 0 1200 283" xmlns="http://www.w3.org/2000/svg" xmlns:xlink="http://www.w3.org/1999/xlink">
<!-- Flame graph stack visualization. See https://github.com/brendangregg/FlameGraph for latest version, and http://www.brendangregg.com/flamegraphs.html for examples. -->
<!-- NOTES:  -->
<defs>
	<linearGradient id="background" y1="0" y2="1" x1="0" x2="0" >
		<stop stop-color="#eeeeee" offset="5%" />
		<stop stop-color="#eeeeb0" offset="95%" />
	</linearGradient>
</defs>
<style type="text/css">
	text { font-family:Verdana; font-size:13px; fill:rgb(0,0,0); }
	#search, #ignorecase { opacity:0.1; cursor:pointer; }
	#search:hover, #search.show, #ignorecase:hover, #ignorecase.show { opacity:1; }
	#subtitle { text-anchor:middle; font-color:rgb(160,160,160); }
	#title { text-anchor:middle; font-size:18px}
	#unzoom { cursor:pointer; }
	#frames > *:hover { stroke:black; stroke-width:0.5; cursor:pointer; }
	.hide { display:none; }
	.parent { opacity:0.5; }
</style>
<script type="text/ecmascript">
<![CDATA[
	"use strict";
	var details, searchbtn, unzoombtn, matchedtxt, svg, searching, currentSearchTerm, ignorecase, ignorecaseBtn;
	function init(evt) {
		details = document.getElementById("details").firstChild;
		searchbtn = document.getElementById("search");
		ignorecaseBtn = document.getElementById("ignorecase");
		unzoombtn = document.getElementById("unzoom");
		matchedtxt = document.getElementById("matched");
		svg = document.getElementsByTagName("svg")[0];
		searching = 0;
		currentSearchTerm = null;

		// use GET parameters to restore a flamegraphs state.
		var params = get_params();
		if (params.x && params.y)
			zoom(find_group(document.querySelector('[x="' + params.x + '"][y="' + params.y + '"]')));
                if (params.s) search(params.s);
	}

	// event listeners
	window.addEventListener("click", function(e) {
		var target = find_group(e.target);
		if (target) {
			if (target.nodeName == "a") {
				if (e.ctrlKey === false) return;
				e.preventDefault();
			}
			if (target.classList.contains("parent")) unzoom();
			zoom(target);
			if (!document.querySelector('.parent')) {
				clearzoom();
				return;
			}

			// set parameters for zoom state
			var el = target.querySelector("rect");
			if (el && el.attributes && el.attributes.y && el.attributes._orig_x) {
				var params = get_params()
				params.x = el.attributes._orig_x.value;
				params.y = el.attributes.y.value;
				history.replaceState(null, null, parse_params(params));
			}
		}
		else if (e.target.id == "unzoom") clearzoom();
		else if (e.target.id == "search") search_prompt();
		else if (e.target.id == "ignorecase") toggle_ignorecase();
	}, false)

	// mouse-over for info
	// show
	window.addEventListener("mouseover", function(e) {
		var target = find_group(e.target);
		if (target) details.nodeValue = "Function: " + g_to_text(target);
	}, false)

	// clear
	window.addEventListener("mouseout", function(e) {
		var target = find_group(e.target);
		if (target) details.nodeValue = ' ';
	}, false)

	// ctrl-F for search
	// ctrl-I to toggle case-sensitive search
	window.addEventListener("keydown",function (e) {
		if (e.keyCode === 114 || (e.ctrlKey && e.keyCode === 70)) {
			e.preventDefault();
			search_prompt();
		}
		else if (e.ctrlKey && e.keyCode === 73) {
			e.preventDefault();
			toggle_ignorecase();
		}
	}, false)

	// functions
	function get_params() {
		var params = {};
		var paramsarr = window.location.search.substr(1).split('&');
		for (var i = 0; i < paramsarr.length; ++i) {
			var tmp = paramsarr[i].split("=");
			if (!tmp[0] || !tmp[1]) continue;
			params[tmp[0]]  = decodeURIComponent(tmp[1]);
		}
		return params;
	}
	function parse_params(params) {
		var uri = "?";
		for (var key in params) {
			uri += key + '=' + encodeURIComponent(params[key]) + '&';
		}
		if (uri.slice(-1) == "&")
			uri = uri.substring(0, uri.length - 1);
		if (uri == '?')
			uri = window.location.href.split('?')[0];
		return uri;
	}
	function find_child(node, selector) {
		var children = node.querySelectorAll(selector);
		if (children.length) return children[0];
	}
	function find_group(node) {
		var parent = node.parentElement;
		if (!parent) return;
		if (parent.id == "frames") return node;
		return find_group(parent);
	}
	function orig_save(e, attr, val) {
		if (e.attributes["_orig_" + attr] != undefined) return;
		if (e.attributes[attr] == undefined) return;
		if (val == undefined) val = e.attributes[attr].value;
		e.setAttribute("_orig_" + attr, val);
	}
	function orig_load(e, attr) {
		if (e.attributes["_orig_"+attr] == undefined) return;
		e.attributes[attr].value = e.attributes["_orig_" + attr].value;
		e.removeAttribute("_orig_"+attr);
	}
	function g_to_text(e) {
		var text = find_child(e, "title").firstChild.nodeValue;
		return (text)
	}
	function g_to_func(e) {
		var func = g_to_text(e);
		// if there's any manipulation we want to do to the function
		// name before it's searched, do it here before returning.
		return (func);
	}
	function update_text(e) {
		var r = find_child(e, "rect");
		var t = find_child(e, "text");
		var w = parseFloat(r.attributes.width.value) -3;
		var txt = find_child(e, "title").textContent.replace(/\([^(]*\)$/,"");
		t.attributes.x.value = parseFloat(r.attributes.x.value) + 3;

		// Smaller than this size won't fit anything
		if (w < 2 * 13 * 0.59) {
			t.textContent = "";
			return;
		}

		t.textContent = txt;
		// Fit in full text width
		if (/^ *$/.test(txt) || t.getSubStringLength(0, txt.length) < w)
			return;

		for (var x = txt.length - 2; x > 0; x--) {
			if (t.getSubStringLength(0, x + 2) <= w) {
				t.textContent = txt.substring(0, x) + "..";
				return;
			}
		}
		t.textContent = "";
	}

	// zoom
	function zoom_reset(e) {
		if (e.attributes != undefined) {
			orig_load(e, "x");
			orig_load(e, "width");
		}
		if (e.childNodes == undefined) return;
		for (var i = 0, c = e.childNodes; i < c.length; i++) {
			zoom_reset(c[i]);
		}
	}
	function zoom_child(e, x, ratio) {
		if (e.attributes != undefined) {
			if (e.attributes.x != undefined) {
				orig_save(e, "x");
				e.attributes.x.value = (parseFloat(e.attributes.x.value) - x - 10) * ratio + 10;
				if (e.tagName == "text")
					e.attributes.x.value = find_child(e.parentNode, "rect[x]").attributes.x.value + 3;
			}
			if (e.attributes.width != undefined) {
				orig_save(e, "width");
				e.attributes.width.value = parseFloat(e.attributes.width.value) * ratio;
			}
		}

		if (e.childNodes == undefined) return;
		for (var i = 0, c = e.childNodes; i < c.length; i++) {
			zoom_child(c[i], x - 10, ratio);
		}
	}
	function zoom_parent(e) {
		if (e.attributes) {
			if (e.attributes.x != undefined) {
				orig_save(e, "x");
				e.attributes.x.value = 10;
			}
			if (e.attributes.width != undefined) {
				orig_save(e, "width");
				e.attributes.width.value = parseInt(svg.width.baseVal.value) - (10 * 2);
			}
		}
		if (e.childNodes == undefined) return;
		for (var i = 0, c = e.childNodes; i < c.length; i++) {
			zoom_parent(c[i]);
		}
	}
	function zoom(node) {
		var attr = find_child(node, "rect").attributes;
		var width = parseFloat(attr.width.value);
		var xmin = parseFloat(attr.x.value);
		var xmax = parseFloat(xmin + width);
		var ymin = parseFloat(attr.y.value);
		var ratio = (svg.width.baseVal.value - 2 * 10) / width;

		// XXX: Workaround for JavaScript float issues (fix me)
		var fudge = 0.0001;

		unzoombtn.classList.remove("hide");

		var el = document.getElementById("frames").children;
		for (var i = 0; i < el.length; i++) {
			var e = el[i];
			var a = find_child(e, "rect").attributes;
			var ex = parseFloat(a.x.value);
			var ew = parseFloat(a.width.value);
			var upstack;
			// Is it an ancestor
			if (1 == 0) {
				upstack = parseFloat(a.y.value) > ymin;
			} else {
				upstack = parseFloat(a.y.value) < ymin;
			}
			if (upstack) {
				// Direct ancestor
				if (ex <= xmin && (ex+ew+fudge) >= xmax) {
					e.classList.add("parent");
					zoom_parent(e);
					update_text(e);
				}
				// not in current path
				else
					e.classList.add("hide");
			}
			// Children maybe
			else {
				// no common path
				if (ex < xmin || ex + fudge >= xmax) {
					e.classList.add("hide");
				}
				else {
					zoom_child(e, xmin, ratio);
					update_text(e);
				}
			}
		}
		search();
	}
	function unzoom() {
		unzoombtn.classList.add("hide");
		var el = document.getElementById("frames").children;
		for(var i = 0; i < el.length; i++) {
			el[i].classList.remove("parent");
			el[i].classList.remove("hide");
			zoom_reset(el[i]);
			update_text(el[i]);
		}
		search();
	}
	function clearzoom() {
		unzoom();

		// remove zoom state
		var params = get_params();
		if (params.x) delete params.x;
		if (params.y) delete params.y;
		history.replaceState(null, null, parse_params(params));
	}

	// search
	function toggle_ignorecase() {
		ignorecase = !ignorecase;
		if (ignorecase) {
			ignorecaseBtn.classList.add("show");
		} else {
			ignorecaseBtn.classList.remove("show");
		}
		reset_search();
		search();
	}
	function reset_search() {
		var el = document.querySelectorAll("#frames rect");
		for (var i = 0; i < el.length; i++) {
			orig_load(el[i], "fill")
		}
		var params = get_params();
		delete params.s;
		history.replaceState(null, null, parse_params(params));
	}
	function search_prompt() {
		if (!searching) {
			var term = prompt("Enter a search term (regexp " +
			    "allowed, eg: ^ext4_)"
			    + (ignorecase ? ", ignoring case" : "")
			    + "\nPress Ctrl-i to toggle case sensitivity", "");
			if (term != null) search(term);
		} else {
			reset_search();
			searching = 0;
			currentSearchTerm = null;
			searchbtn.classList.remove("show");
			searchbtn.firstChild.nodeValue = "Search"
			matchedtxt.classList.add("hide");
			matchedtxt.firstChild.nodeValue = ""
		}
	}
	function search(term) {
		if (term) currentSearchTerm = term;

		var re = new RegExp(currentSearchTerm, ignorecase ? 'i' : '');
		var el = document.getElementById("frames").children;
		var matches = new Object();
		var maxwidth = 0;
		for (var i = 0; i < el.length; i++) {
			var e = el[i];
			var func = g_to_func(e);
			var rect = find_child(e, "rect");
			if (func == null || rect == null)
				continue;

			// Save max width. Only works as we have a root frame
			var w = parseFloat(rect.attributes.width.value);
			if (w > maxwidth)
				maxwidth = w;

			if (func.match(re)) {
				// highlight
				var x = parseFloat(rect.attributes.x.value);
				orig_save(rect, "fill");
				rect.attributes.fill.value = "rgb(230,0,230)";

				// remember matches
				if (matches[x] == undefined) {
					matches[x] = w;
				} else {
					if (w > matches[x]) {
						// overwrite with parent
						matches[x] = w;
					}
				}
				searching = 1;
			}
		}
		if (!searching)
			return;
		var params = get_params();
		params.s = currentSearchTerm;
		history.replaceState(null, null, parse_params(params));

		searchbtn.classList.add("show");
		searchbtn.firstChild.nodeValue = "Reset Search";

		// calculate percent matched, excluding vertical overlap
		var count = 0;
		var lastx = -1;
		var lastw = 0;
		var keys = Array();
		for (k in matches) {
			if (matches.hasOwnProperty(k))
				keys.push(k);
		}
		// sort the matched frames by their x location
		// ascending, then width descending
		keys.sort(function(a, b){
			return a - b;
		});
		// Step through frames saving only the biggest bottom-up frames
		// thanks to the sort order. This relies on the tree property
		// where children are always smaller than their parents.
		var fudge = 0.0001;	// JavaScript floating point
		for (var k in keys) {
			var x = parseFloat(keys[k]);
			var w = matches[keys[k]];
			if (x >= lastx + lastw - fudge) {
				count += w;
				lastx = x;
				lastw = w;
			}
		}
		// display matched percent
		matchedtxt.classList.remove("hide");
		var pct = 100 * count / maxwidth;
		if (pct != 100) pct = pct.toFixed(1)
		matchedtxt.firstChild.nodeValue = "Matched: " + pct + "%";
	}
]]>
</script>
<rect x="0.0" y="0" width="1200.0" height="283.0" fill="url(#background)"  />
<text id="title" x="600.00" y="26" >Firedrake example</text>
<text id="details" x="10.00" y="265" > </text>
<text id="unzoom" x="10.00" y="26" class="hide">Reset Zoom</text>
<text id="search" x="1090.00" y="26" >Search</text>
<text id="ignorecase" x="1174.00" y="26" >ic</text>
<text id="matched" x="1090.00" y="265" > </text>
<g id="frames">
<g >
<title>Parloop_Cells_wrap_wrap_slate_loopy_knl_7 (42,612 us, 1.21%)</title><rect x="985.9" y="183" width="14.3" height="15.0" fill="rgb(0,0,0)" rx="2" ry="2" />
<text  x="988.93" y="193.5" ></text>
</g>
<g >
<title>Log_Event_subkernel11_cell_to__cell_integral_otherwise (658 us, 0.02%)</title><rect x="987.1" y="199" width="0.2" height="15.0" fill="rgb(0,0,0)" rx="2" ry="2" />
<text  x="990.13" y="209.5" ></text>
</g>
<g >
<title>Parloop_Cells_wrap_form0_cell_integral_otherwise (42,195 us, 1.20%)</title><rect x="1155.4" y="135" width="14.1" height="15.0" fill="rgb(0,0,0)" rx="2" ry="2" />
<text  x="1158.36" y="145.5" ></text>
</g>
<g >
<title>firedrake.variational_solver.NonlinearVariationalSolver.solve (951,253 us, 26.96%)</title><rect x="871.9" y="71" width="318.1" height="15.0" fill="rgb(0,0,0)" rx="2" ry="2" />
<text  x="874.91" y="81.5" >firedrake.variational_solver.NonlinearV..</text>
</g>
<g >
<title>Log_Event_slate_loopy_knl_0 (928 us, 0.03%)</title><rect x="1116.1" y="183" width="0.3" height="15.0" fill="rgb(0,0,0)" rx="2" ry="2" />
<text  x="1119.10" y="193.5" ></text>
</g>
<g >
<title>Parloop_Cells_wrap_par_loop_kernel (31,348 us, 0.89%)</title><rect x="1142.7" y="167" width="10.5" height="15.0" fill="rgb(0,0,0)" rx="2" ry="2" />
<text  x="1145.73" y="177.5" ></text>
</g>
<g >
<title>CreateFunctionSpace (7,148 us, 0.20%)</title><rect x="330.2" y="103" width="2.4" height="15.0" fill="rgb(0,0,0)" rx="2" ry="2" />
<text  x="333.22" y="113.5" ></text>
</g>
<g >
<title>Parloop_Cells_wrap_wrap_slate_loopy_knl_14 (41,480 us, 1.18%)</title><rect x="946.1" y="167" width="13.9" height="15.0" fill="rgb(0,0,0)" rx="2" ry="2" />
<text  x="949.11" y="177.5" ></text>
</g>
<g >
<title>firedrake.functionspace.VectorFunctionSpace (7,148 us, 0.20%)</title><rect x="330.2" y="87" width="2.4" height="15.0" fill="rgb(0,0,0)" rx="2" ry="2" />
<text  x="333.22" y="97.5" ></text>
</g>
<g >
<title>firedrake.functionspaceimpl.FunctionSpace.__init__ (4,566 us, 0.13%)</title><rect x="1054.5" y="151" width="1.5" height="15.0" fill="rgb(0,0,0)" rx="2" ry="2" />
<text  x="1057.47" y="161.5" ></text>
</g>
<g >
<title>MatLUFactor (9,472 us, 0.27%)</title><rect x="1043.8" y="167" width="3.2" height="15.0" fill="rgb(0,0,0)" rx="2" ry="2" />
<text  x="1046.81" y="177.5" ></text>
</g>
<g >
<title>ParLoopExecute (31,348 us, 0.89%)</title><rect x="1142.7" y="151" width="10.5" height="15.0" fill="rgb(0,0,0)" rx="2" ry="2" />
<text  x="1145.73" y="161.5" ></text>
</g>
<g >
<title>firedrake.functionspacedata.FunctionSpaceData.__init__ (448 us, 0.01%)</title><rect x="862.8" y="119" width="0.1" height="15.0" fill="rgb(0,0,0)" rx="2" ry="2" />
<text  x="865.78" y="129.5" ></text>
</g>
<g >
<title>firedrake.ufl_expr.action (5,133 us, 0.15%)</title><rect x="863.5" y="87" width="1.7" height="15.0" fill="rgb(0,0,0)" rx="2" ry="2" />
<text  x="866.46" y="97.5" ></text>
</g>
<g >
<title>pyop2.global_kernel.GlobalKernel.compile (36,441 us, 1.03%)</title><rect x="1117.4" y="183" width="12.2" height="15.0" fill="rgb(0,0,0)" rx="2" ry="2" />
<text  x="1120.43" y="193.5" ></text>
</g>
<g >
<title>solve_getrf (586 us, 0.02%)</title><rect x="986.9" y="215" width="0.2" height="15.0" fill="rgb(0,0,0)" rx="2" ry="2" />
<text  x="989.93" y="225.5" ></text>
</g>
<g >
<title>pyop2.global_kernel.GlobalKernel.compile (36,607 us, 1.04%)</title><rect x="987.9" y="199" width="12.3" height="15.0" fill="rgb(0,0,0)" rx="2" ry="2" />
<text  x="990.94" y="209.5" ></text>
</g>
<g >
<title>firedrake.functionspacedata.get_shared_data (20,019 us, 0.57%)</title><rect x="333.9" y="103" width="6.7" height="15.0" fill="rgb(0,0,0)" rx="2" ry="2" />
<text  x="336.87" y="113.5" ></text>
</g>
<g >
<title>RecoverFirstElim (120,666 us, 3.42%)</title><rect x="960.0" y="151" width="40.3" height="15.0" fill="rgb(0,0,0)" rx="2" ry="2" />
<text  x="962.98" y="161.5" >Rec..</text>
</g>
<g >
<title>firedrake.formmanipulation.split_form (14,134 us, 0.40%)</title><rect x="1130.5" y="135" width="4.7" height="15.0" fill="rgb(0,0,0)" rx="2" ry="2" />
<text  x="1133.51" y="145.5" ></text>
</g>
<g >
<title>Log_Event_subkernel2_cell_to__cell_integral_otherwise (954 us, 0.03%)</title><rect x="1116.8" y="183" width="0.3" height="15.0" fill="rgb(0,0,0)" rx="2" ry="2" />
<text  x="1119.76" y="193.5" ></text>
</g>
<g >
<title>firedrake.functionspaceimpl.FunctionSpace.__init__ (6,722 us, 0.19%)</title><rect x="330.4" y="119" width="2.2" height="15.0" fill="rgb(0,0,0)" rx="2" ry="2" />
<text  x="333.36" y="129.5" ></text>
</g>
<g >
<title>Log_Event_slate_loopy_knl_14 (622 us, 0.02%)</title><rect x="946.6" y="183" width="0.2" height="15.0" fill="rgb(0,0,0)" rx="2" ry="2" />
<text  x="949.56" y="193.5" ></text>
</g>
<g >
<title>pyop2.global_kernel.GlobalKernel.compile (37,792 us, 1.07%)</title><rect x="947.3" y="183" width="12.7" height="15.0" fill="rgb(0,0,0)" rx="2" ry="2" />
<text  x="950.34" y="193.5" ></text>
</g>
<g >
<title>firedrake.ufl_expr.adjoint (10,748 us, 0.30%)</title><rect x="865.2" y="103" width="3.6" height="15.0" fill="rgb(0,0,0)" rx="2" ry="2" />
<text  x="868.17" y="113.5" ></text>
</g>
<g >
<title>Log_Event_form0_cell_integral_otherwise (2,070 us, 0.06%)</title><rect x="1155.4" y="151" width="0.7" height="15.0" fill="rgb(0,0,0)" rx="2" ry="2" />
<text  x="1158.36" y="161.5" ></text>
</g>
<g >
<title>firedrake.formmanipulation.ExtractSubBlock.split (3,135 us, 0.09%)</title><rect x="1189.0" y="151" width="1.0" height="15.0" fill="rgb(0,0,0)" rx="2" ry="2" />
<text  x="1191.95" y="161.5" ></text>
</g>
<g >
<title>PCSetUp (319,907 us, 9.07%)</title><rect x="1047.0" y="103" width="107.0" height="15.0" fill="rgb(0,0,0)" rx="2" ry="2" />
<text  x="1049.98" y="113.5" >PCSetUp</text>
</g>
<g >
<title>firedrake.functionspacedata.FunctionSpaceData.__init__ (4,566 us, 0.13%)</title><rect x="1054.5" y="183" width="1.5" height="15.0" fill="rgb(0,0,0)" rx="2" ry="2" />
<text  x="1057.47" y="193.5" ></text>
</g>
<g >
<title>CreateFunctionSpace (1,028 us, 0.03%)</title><rect x="1189.7" y="183" width="0.3" height="15.0" fill="rgb(0,0,0)" rx="2" ry="2" />
<text  x="1192.66" y="193.5" ></text>
</g>
<g >
<title>pyop2.global_kernel.GlobalKernel.compile (38,265 us, 1.08%)</title><rect x="317.4" y="135" width="12.8" height="15.0" fill="rgb(0,0,0)" rx="2" ry="2" />
<text  x="320.43" y="145.5" ></text>
</g>
<g >
<title>CreateSparsity (1,714 us, 0.05%)</title><rect x="1129.8" y="151" width="0.5" height="15.0" fill="rgb(0,0,0)" rx="2" ry="2" />
<text  x="1132.76" y="161.5" ></text>
</g>
<g >
<title>firedrake.functionspaceimpl.WithGeometry.split (845 us, 0.02%)</title><rect x="1135.0" y="183" width="0.2" height="15.0" fill="rgb(0,0,0)" rx="2" ry="2" />
<text  x="1137.96" y="193.5" ></text>
</g>
<g >
<title>SNESFunctionEval (107,800 us, 3.05%)</title><rect x="1154.0" y="103" width="36.0" height="15.0" fill="rgb(0,0,0)" rx="2" ry="2" />
<text  x="1156.95" y="113.5" >SN..</text>
</g>
<g >
<title>SCForwardElim (129,543 us, 3.67%)</title><rect x="1000.3" y="135" width="43.3" height="15.0" fill="rgb(0,0,0)" rx="2" ry="2" />
<text  x="1003.32" y="145.5" >SCF..</text>
</g>
<g >
<title>firedrake.functionspacedata.FunctionSpaceData.__init__ (474 us, 0.01%)</title><rect x="1053.9" y="199" width="0.2" height="15.0" fill="rgb(0,0,0)" rx="2" ry="2" />
<text  x="1056.93" y="209.5" ></text>
</g>
<g >
<title>SCBackSub (383,428 us, 10.87%)</title><rect x="872.1" y="135" width="128.2" height="15.0" fill="rgb(0,0,0)" rx="2" ry="2" />
<text  x="875.11" y="145.5" >SCBackSub</text>
</g>
<g >
<title>firedrake.tsfc_interface.compile_form (29,600 us, 0.84%)</title><rect x="1180.1" y="119" width="9.9" height="15.0" fill="rgb(0,0,0)" rx="2" ry="2" />
<text  x="1183.10" y="129.5" ></text>
</g>
<g >
<title>Parloop_Cells_wrap_pyop2_kernel_uniform_extrusion (38,678 us, 1.10%)</title><rect x="317.3" y="119" width="12.9" height="15.0" fill="rgb(0,0,0)" rx="2" ry="2" />
<text  x="320.29" y="129.5" ></text>
</g>
<g >
<title>firedrake.functionspace.MixedFunctionSpace (1,240 us, 0.04%)</title><rect x="862.5" y="71" width="0.4" height="15.0" fill="rgb(0,0,0)" rx="2" ry="2" />
<text  x="865.52" y="81.5" ></text>
</g>
<g >
<title>firedrake.functionspaceimpl.FunctionSpace.__init__ (1,532 us, 0.04%)</title><rect x="1053.4" y="183" width="0.5" height="15.0" fill="rgb(0,0,0)" rx="2" ry="2" />
<text  x="1056.42" y="193.5" ></text>
</g>
<g >
<title>firedrake.functionspace.make_scalar_element (859 us, 0.02%)</title><rect x="333.3" y="87" width="0.3" height="15.0" fill="rgb(0,0,0)" rx="2" ry="2" />
<text  x="336.29" y="97.5" ></text>
</g>
<g >
<title>FunctionSpaceData: CreateElement (764 us, 0.02%)</title><rect x="332.1" y="167" width="0.3" height="15.0" fill="rgb(0,0,0)" rx="2" ry="2" />
<text  x="335.15" y="177.5" ></text>
</g>
<g >
<title>Log_Event_subkernel13_interior_facet_vert_to__exterior_facet_vert_integral_otherwise (1,101 us, 0.03%)</title><rect x="987.3" y="199" width="0.4" height="15.0" fill="rgb(0,0,0)" rx="2" ry="2" />
<text  x="990.35" y="209.5" ></text>
</g>
<g >
<title>firedrake.functionspaceimpl.FunctionSpace.__init__ (448 us, 0.01%)</title><rect x="862.8" y="87" width="0.1" height="15.0" fill="rgb(0,0,0)" rx="2" ry="2" />
<text  x="865.78" y="97.5" ></text>
</g>
<g >
<title>Log_Event_subkernel16_cell_to__cell_integral_otherwise (639 us, 0.02%)</title><rect x="946.8" y="183" width="0.2" height="15.0" fill="rgb(0,0,0)" rx="2" ry="2" />
<text  x="949.77" y="193.5" ></text>
</g>
<g >
<title>firedrake.functionspacedata.FunctionSpaceData.__init__ (1,532 us, 0.04%)</title><rect x="1053.4" y="215" width="0.5" height="15.0" fill="rgb(0,0,0)" rx="2" ry="2" />
<text  x="1056.42" y="225.5" ></text>
</g>
<g >
<title>pyop2.global_kernel.GlobalKernel.compile (34,548 us, 0.98%)</title><rect x="1032.1" y="199" width="11.5" height="15.0" fill="rgb(0,0,0)" rx="2" ry="2" />
<text  x="1035.09" y="209.5" ></text>
</g>
<g >
<title>ParLoopExecute (32,529 us, 0.92%)</title><rect x="935.2" y="183" width="10.9" height="15.0" fill="rgb(0,0,0)" rx="2" ry="2" />
<text  x="938.23" y="193.5" ></text>
</g>
<g >
<title>Log_Event_subkernel5_interior_facet_vert_to__exterior_facet_vert_integral_otherwise (1,082 us, 0.03%)</title><rect x="1031.4" y="199" width="0.4" height="15.0" fill="rgb(0,0,0)" rx="2" ry="2" />
<text  x="1034.41" y="209.5" ></text>
</g>
<g >
<title>ParLoopExecute (38,220 us, 1.08%)</title><rect x="1030.9" y="167" width="12.7" height="15.0" fill="rgb(0,0,0)" rx="2" ry="2" />
<text  x="1033.86" y="177.5" ></text>
</g>
<g >
<title>Parloop_Cells_wrap_par_loop_kernel (32,179 us, 0.91%)</title><rect x="1002.6" y="199" width="10.8" height="15.0" fill="rgb(0,0,0)" rx="2" ry="2" />
<text  x="1005.63" y="209.5" ></text>
</g>
<g >
<title>pyop2.global_kernel.GlobalKernel.compile (31,103 us, 0.88%)</title><rect x="1169.7" y="151" width="10.4" height="15.0" fill="rgb(0,0,0)" rx="2" ry="2" />
<text  x="1172.70" y="161.5" ></text>
</g>
<g >
<title>Parloop_Cells_wrap_form1_cell_integral_otherwise (31,792 us, 0.90%)</title><rect x="1169.5" y="135" width="10.6" height="15.0" fill="rgb(0,0,0)" rx="2" ry="2" />
<text  x="1172.47" y="145.5" ></text>
</g>
<g >
<title>firedrake.functionspace.make_scalar_element (1,144 us, 0.03%)</title><rect x="1054.1" y="151" width="0.4" height="15.0" fill="rgb(0,0,0)" rx="2" ry="2" />
<text  x="1057.09" y="161.5" ></text>
</g>
<g >
<title>firedrake.functionspacedata.get_shared_data (1,532 us, 0.04%)</title><rect x="1053.4" y="199" width="0.5" height="15.0" fill="rgb(0,0,0)" rx="2" ry="2" />
<text  x="1056.42" y="209.5" ></text>
</g>
<g >
<title>firedrake.functionspacedata.get_shared_data (417 us, 0.01%)</title><rect x="1189.9" y="215" width="0.1" height="15.0" fill="rgb(0,0,0)" rx="2" ry="2" />
<text  x="1192.86" y="225.5" ></text>
</g>
<g >
<title>CreateMesh (415 us, 0.01%)</title><rect x="863.2" y="119" width="0.1" height="15.0" fill="rgb(0,0,0)" rx="2" ry="2" />
<text  x="866.16" y="129.5" ></text>
</g>
<g >
<title>firedrake.extrusion_utils.make_extruded_coords (69,850 us, 1.98%)</title><rect x="306.9" y="87" width="23.3" height="15.0" fill="rgb(0,0,0)" rx="2" ry="2" />
<text  x="309.86" y="97.5" >f..</text>
</g>
<g >
<title>firedrake.mesh.make_mesh_from_coordinates (583 us, 0.02%)</title><rect x="332.9" y="87" width="0.2" height="15.0" fill="rgb(0,0,0)" rx="2" ry="2" />
<text  x="335.86" y="97.5" ></text>
</g>
<g >
<title>firedrake.functionspaceimpl.FunctionSpace.__init__ (20,869 us, 0.59%)</title><rect x="333.6" y="87" width="7.0" height="15.0" fill="rgb(0,0,0)" rx="2" ry="2" />
<text  x="336.58" y="97.5" ></text>
</g>
<g >
<title>firedrake.function.Function.split (947 us, 0.03%)</title><rect x="868.8" y="119" width="0.3" height="15.0" fill="rgb(0,0,0)" rx="2" ry="2" />
<text  x="871.77" y="129.5" ></text>
</g>
<g >
<title>CreateFunctionSpace (22,451 us, 0.64%)</title><rect x="333.1" y="71" width="7.5" height="15.0" fill="rgb(0,0,0)" rx="2" ry="2" />
<text  x="336.05" y="81.5" ></text>
</g>
<g >
<title>Parloop_Cells_wrap_wrap_slate_loopy_knl_0 (42,272 us, 1.20%)</title><rect x="1115.5" y="167" width="14.1" height="15.0" fill="rgb(0,0,0)" rx="2" ry="2" />
<text  x="1118.48" y="177.5" ></text>
</g>
<g >
<title>firedrake.formmanipulation.split_form (6,036 us, 0.17%)</title><rect x="1188.0" y="135" width="2.0" height="15.0" fill="rgb(0,0,0)" rx="2" ry="2" />
<text  x="1190.98" y="145.5" ></text>
</g>
<g >
<title>firedrake.functionspaceimpl.FunctionSpace.__init__ (417 us, 0.01%)</title><rect x="1189.9" y="199" width="0.1" height="15.0" fill="rgb(0,0,0)" rx="2" ry="2" />
<text  x="1192.86" y="209.5" ></text>
</g>
<g >
<title>firedrake.mesh._Facets.__init__ (814 us, 0.02%)</title><rect x="340.3" y="151" width="0.3" height="15.0" fill="rgb(0,0,0)" rx="2" ry="2" />
<text  x="343.29" y="161.5" ></text>
</g>
<g >
<title>firedrake.functionspaceimpl.FunctionSpace.local_to_global_map (429 us, 0.01%)</title><rect x="1129.6" y="151" width="0.2" height="15.0" fill="rgb(0,0,0)" rx="2" ry="2" />
<text  x="1132.61" y="161.5" ></text>
</g>
<g >
<title>firedrake.parloops.par_loop (39,106 us, 1.11%)</title><rect x="933.0" y="167" width="13.1" height="15.0" fill="rgb(0,0,0)" rx="2" ry="2" />
<text  x="936.03" y="177.5" ></text>
</g>
<g >
<title>firedrake.functionspacedata.FunctionSpaceData.__init__ (2,308 us, 0.07%)</title><rect x="1134.2" y="231" width="0.8" height="15.0" fill="rgb(0,0,0)" rx="2" ry="2" />
<text  x="1137.18" y="241.5" ></text>
</g>
<g >
<title>CreateFunctionSpace (7,053 us, 0.20%)</title><rect x="1132.6" y="183" width="2.4" height="15.0" fill="rgb(0,0,0)" rx="2" ry="2" />
<text  x="1135.60" y="193.5" ></text>
</g>
<g >
<title>firedrake.functionspacedata.FunctionSpaceData.__init__ (20,019 us, 0.57%)</title><rect x="333.9" y="119" width="6.7" height="15.0" fill="rgb(0,0,0)" rx="2" ry="2" />
<text  x="336.87" y="129.5" ></text>
</g>
<g >
<title>HybridBreak (39,063 us, 1.11%)</title><rect x="1000.3" y="151" width="13.1" height="15.0" fill="rgb(0,0,0)" rx="2" ry="2" />
<text  x="1003.32" y="161.5" ></text>
</g>
<g >
<title>CreateMesh (1,800 us, 0.05%)</title><rect x="340.6" y="71" width="0.6" height="15.0" fill="rgb(0,0,0)" rx="2" ry="2" />
<text  x="343.56" y="81.5" ></text>
</g>
<g >
<title>firedrake.formmanipulation.ExtractSubBlock.argument (1,028 us, 0.03%)</title><rect x="1189.7" y="167" width="0.3" height="15.0" fill="rgb(0,0,0)" rx="2" ry="2" />
<text  x="1192.66" y="177.5" ></text>
</g>
<g >
<title>Log_Event_slate_loopy_knl_7 (2,189 us, 0.06%)</title><rect x="986.4" y="199" width="0.7" height="15.0" fill="rgb(0,0,0)" rx="2" ry="2" />
<text  x="989.40" y="209.5" ></text>
</g>
<g >
<title>KSPSolve (513 us, 0.01%)</title><rect x="1043.6" y="151" width="0.2" height="15.0" fill="rgb(0,0,0)" rx="2" ry="2" />
<text  x="1046.64" y="161.5" ></text>
</g>
<g >
<title>CreateMesh (468 us, 0.01%)</title><rect x="340.8" y="87" width="0.1" height="15.0" fill="rgb(0,0,0)" rx="2" ry="2" />
<text  x="343.75" y="97.5" ></text>
</g>
<g >
<title>firedrake.ufl_expr.adjoint (3,167 us, 0.09%)</title><rect x="870.9" y="119" width="1.0" height="15.0" fill="rgb(0,0,0)" rx="2" ry="2" />
<text  x="873.86" y="129.5" ></text>
</g>
<g >
<title>pyop2.global_kernel.GlobalKernel.compile (32,179 us, 0.91%)</title><rect x="1002.6" y="215" width="10.8" height="15.0" fill="rgb(0,0,0)" rx="2" ry="2" />
<text  x="1005.63" y="225.5" ></text>
</g>
<g >
<title>Log_Event_form1_cell_integral_otherwise (689 us, 0.02%)</title><rect x="1169.5" y="151" width="0.2" height="15.0" fill="rgb(0,0,0)" rx="2" ry="2" />
<text  x="1172.47" y="161.5" ></text>
</g>
<g >
<title>firedrake.variational_solver.NonlinearVariationalProblem.__init__ (11,695 us, 0.33%)</title><rect x="865.2" y="87" width="3.9" height="15.0" fill="rgb(0,0,0)" rx="2" ry="2" />
<text  x="868.17" y="97.5" ></text>
</g>
<g >
<title>pyop2.global_kernel.GlobalKernel.compile (32,529 us, 0.92%)</title><rect x="935.2" y="215" width="10.9" height="15.0" fill="rgb(0,0,0)" rx="2" ry="2" />
<text  x="938.23" y="225.5" ></text>
</g>
<g >
<title>firedrake.functionspacedata.get_shared_data (448 us, 0.01%)</title><rect x="862.8" y="103" width="0.1" height="15.0" fill="rgb(0,0,0)" rx="2" ry="2" />
<text  x="865.78" y="113.5" ></text>
</g>
<g >
<title>PCSetUp (9,472 us, 0.27%)</title><rect x="1043.8" y="151" width="3.2" height="15.0" fill="rgb(0,0,0)" rx="2" ry="2" />
<text  x="1046.81" y="161.5" ></text>
</g>
<g >
<title>ParLoopExecute (32,179 us, 0.91%)</title><rect x="1002.6" y="183" width="10.8" height="15.0" fill="rgb(0,0,0)" rx="2" ry="2" />
<text  x="1005.63" y="193.5" ></text>
</g>
<g >
<title>firedrake.functionspaceimpl.FunctionSpace.__init__ (474 us, 0.01%)</title><rect x="1053.9" y="167" width="0.2" height="15.0" fill="rgb(0,0,0)" rx="2" ry="2" />
<text  x="1056.93" y="177.5" ></text>
</g>
<g >
<title>SNESSolve (951,253 us, 26.96%)</title><rect x="871.9" y="87" width="318.1" height="15.0" fill="rgb(0,0,0)" rx="2" ry="2" />
<text  x="874.91" y="97.5" >SNESSolve</text>
</g>
<g >
<title>FunctionSpaceData: CreateElement (7,819 us, 0.22%)</title><rect x="337.1" y="135" width="2.6" height="15.0" fill="rgb(0,0,0)" rx="2" ry="2" />
<text  x="340.10" y="145.5" ></text>
</g>
<g >
<title>ParLoopExecute (74,434 us, 2.11%)</title><rect x="1155.2" y="119" width="24.9" height="15.0" fill="rgb(0,0,0)" rx="2" ry="2" />
<text  x="1158.21" y="129.5" >P..</text>
</g>
<g >
<title>firedrake.assemble.allocate_matrix (7,426 us, 0.21%)</title><rect x="869.4" y="87" width="2.5" height="15.0" fill="rgb(0,0,0)" rx="2" ry="2" />
<text  x="872.43" y="97.5" ></text>
</g>
<g >
<title>PCApply (522,956 us, 14.82%)</title><rect x="872.1" y="119" width="174.9" height="15.0" fill="rgb(0,0,0)" rx="2" ry="2" />
<text  x="875.11" y="129.5" >PCApply</text>
</g>
<g >
<title>firedrake.functionspacedata.get_shared_data (474 us, 0.01%)</title><rect x="1053.9" y="183" width="0.2" height="15.0" fill="rgb(0,0,0)" rx="2" ry="2" />
<text  x="1056.93" y="193.5" ></text>
</g>
<g >
<title>CreateExtMesh (78,896 us, 2.24%)</title><rect x="306.7" y="71" width="26.4" height="15.0" fill="rgb(0,0,0)" rx="2" ry="2" />
<text  x="309.67" y="81.5" >C..</text>
</g>
<g >
<title>KSPSolve (522,956 us, 14.82%)</title><rect x="872.1" y="103" width="174.9" height="15.0" fill="rgb(0,0,0)" rx="2" ry="2" />
<text  x="875.11" y="113.5" >KSPSolve</text>
</g>
<g >
<title>firedrake.functionspacedata.get_shared_data (2,308 us, 0.07%)</title><rect x="1134.2" y="215" width="0.8" height="15.0" fill="rgb(0,0,0)" rx="2" ry="2" />
<text  x="1137.18" y="225.5" ></text>
</g>
<g >
<title>firedrake.utility_meshes.RectangleMesh (1,563 us, 0.04%)</title><rect x="862.9" y="87" width="0.6" height="15.0" fill="rgb(0,0,0)" rx="2" ry="2" />
<text  x="865.93" y="97.5" ></text>
</g>
<g >
<title>firedrake.ufl_expr.derivative (947 us, 0.03%)</title><rect x="868.8" y="103" width="0.3" height="15.0" fill="rgb(0,0,0)" rx="2" ry="2" />
<text  x="871.77" y="113.5" ></text>
</g>
<g >
<title>CreateMesh (415 us, 0.01%)</title><rect x="863.2" y="103" width="0.1" height="15.0" fill="rgb(0,0,0)" rx="2" ry="2" />
<text  x="866.16" y="113.5" ></text>
</g>
<g >
<title>FunctionSpaceData: CreateElement (4,566 us, 0.13%)</title><rect x="1054.5" y="199" width="1.5" height="15.0" fill="rgb(0,0,0)" rx="2" ry="2" />
<text  x="1057.47" y="209.5" ></text>
</g>
<g >
<title>firedrake.ufl_expr.action (4,259 us, 0.12%)</title><rect x="869.4" y="119" width="1.5" height="15.0" fill="rgb(0,0,0)" rx="2" ry="2" />
<text  x="872.43" y="129.5" ></text>
</g>
<g >
<title>MatZeroInitial (549 us, 0.02%)</title><rect x="1130.3" y="151" width="0.2" height="15.0" fill="rgb(0,0,0)" rx="2" ry="2" />
<text  x="1133.33" y="161.5" ></text>
</g>
<g >
<title>Log_Event_subkernel9_cell_to__cell_integral_otherwise (676 us, 0.02%)</title><rect x="987.7" y="199" width="0.2" height="15.0" fill="rgb(0,0,0)" rx="2" ry="2" />
<text  x="990.72" y="209.5" ></text>
</g>
<g >
<title>firedrake.functionspace.MixedFunctionSpace (3,334 us, 0.09%)</title><rect x="1053.0" y="151" width="1.1" height="15.0" fill="rgb(0,0,0)" rx="2" ry="2" />
<text  x="1055.97" y="161.5" ></text>
</g>
<g >
<title>pyop2.global_kernel.GlobalKernel.compile (31,348 us, 0.89%)</title><rect x="1142.7" y="183" width="10.5" height="15.0" fill="rgb(0,0,0)" rx="2" ry="2" />
<text  x="1145.73" y="193.5" ></text>
</g>
<g >
<title>Parloop_Cells_wrap_wrap_slate_loopy_knl_4 (38,220 us, 1.08%)</title><rect x="1030.9" y="183" width="12.7" height="15.0" fill="rgb(0,0,0)" rx="2" ry="2" />
<text  x="1033.86" y="193.5" ></text>
</g>
<g >
<title>HybridInit (319,907 us, 9.07%)</title><rect x="1047.0" y="119" width="107.0" height="15.0" fill="rgb(0,0,0)" rx="2" ry="2" />
<text  x="1049.98" y="129.5" >HybridInit</text>
</g>
<g >
<title>firedrake.functionspacedata.FunctionSpaceData.__init__ (417 us, 0.01%)</title><rect x="1189.9" y="231" width="0.1" height="15.0" fill="rgb(0,0,0)" rx="2" ry="2" />
<text  x="1192.86" y="241.5" ></text>
</g>
<g >
<title>firedrake.function.Function.split (425 us, 0.01%)</title><rect x="1000.2" y="167" width="0.1" height="15.0" fill="rgb(0,0,0)" rx="2" ry="2" />
<text  x="1003.18" y="177.5" ></text>
</g>
<g >
<title>ParLoopExecute (41,480 us, 1.18%)</title><rect x="946.1" y="151" width="13.9" height="15.0" fill="rgb(0,0,0)" rx="2" ry="2" />
<text  x="949.11" y="161.5" ></text>
</g>
<g >
<title>Log_Event_subkernel1_interior_facet_vert_to__exterior_facet_vert_integral_otherwise (1,039 us, 0.03%)</title><rect x="1116.4" y="183" width="0.4" height="15.0" fill="rgb(0,0,0)" rx="2" ry="2" />
<text  x="1119.41" y="193.5" ></text>
</g>
<g >
<title>CreateFunctionSpace (2,139 us, 0.06%)</title><rect x="1053.2" y="167" width="0.7" height="15.0" fill="rgb(0,0,0)" rx="2" ry="2" />
<text  x="1056.21" y="177.5" ></text>
</g>
<g >
<title>firedrake.functionspacedata.get_shared_data (6,722 us, 0.19%)</title><rect x="330.4" y="135" width="2.2" height="15.0" fill="rgb(0,0,0)" rx="2" ry="2" />
<text  x="333.36" y="145.5" ></text>
</g>
<g >
<title>PetscBarrier (669 us, 0.02%)</title><rect x="341.2" y="71" width="0.2" height="15.0" fill="rgb(0,0,0)" rx="2" ry="2" />
<text  x="344.16" y="81.5" ></text>
</g>
<g >
<title>firedrake.function.Function.__init__ (993 us, 0.03%)</title><rect x="1135.2" y="135" width="0.4" height="15.0" fill="rgb(0,0,0)" rx="2" ry="2" />
<text  x="1138.24" y="145.5" ></text>
</g>
<g >
<title>firedrake.functionspacedata.get_shared_data (4,566 us, 0.13%)</title><rect x="1054.5" y="167" width="1.5" height="15.0" fill="rgb(0,0,0)" rx="2" ry="2" />
<text  x="1057.47" y="177.5" ></text>
</g>
<g >
<title>firedrake.__init__ (1,558,483 us, 44.16%)</title><rect x="341.4" y="71" width="521.1" height="15.0" fill="rgb(0,0,0)" rx="2" ry="2" />
<text  x="344.39" y="81.5" >firedrake.__init__</text>
</g>
<g >
<title>firedrake.mesh._Facets.__init__ (620 us, 0.02%)</title><rect x="332.4" y="167" width="0.2" height="15.0" fill="rgb(0,0,0)" rx="2" ry="2" />
<text  x="335.40" y="177.5" ></text>
</g>
<g >
<title>ParLoopExecute (42,612 us, 1.21%)</title><rect x="985.9" y="167" width="14.3" height="15.0" fill="rgb(0,0,0)" rx="2" ry="2" />
<text  x="988.93" y="177.5" ></text>
</g>
<g >
<title>CreateFunctionSpace (9,044 us, 0.26%)</title><rect x="1053.0" y="135" width="3.0" height="15.0" fill="rgb(0,0,0)" rx="2" ry="2" />
<text  x="1055.97" y="145.5" ></text>
</g>
<g >
<title>firedrake.variational_solver.LinearVariationalProblem.__init__ (16,828 us, 0.48%)</title><rect x="863.5" y="71" width="5.6" height="15.0" fill="rgb(0,0,0)" rx="2" ry="2" />
<text  x="866.46" y="81.5" ></text>
</g>
<g >
<title>firedrake.interpolation.make_interpolator (16,505 us, 0.47%)</title><rect x="1135.6" y="135" width="5.5" height="15.0" fill="rgb(0,0,0)" rx="2" ry="2" />
<text  x="1138.57" y="145.5" ></text>
</g>
<g >
<title>firedrake.functionspacedata.FunctionSpaceData.__init__ (6,722 us, 0.19%)</title><rect x="330.4" y="151" width="2.2" height="15.0" fill="rgb(0,0,0)" rx="2" ry="2" />
<text  x="333.36" y="161.5" ></text>
</g>
<g >
<title>firedrake.functionspaceimpl.FunctionSpace.__init__ (3,238 us, 0.09%)</title><rect x="1133.9" y="199" width="1.1" height="15.0" fill="rgb(0,0,0)" rx="2" ry="2" />
<text  x="1136.87" y="209.5" ></text>
</g>
<g >
<title>firedrake.parloops.par_loop (38,521 us, 1.09%)</title><rect x="1000.5" y="167" width="12.9" height="15.0" fill="rgb(0,0,0)" rx="2" ry="2" />
<text  x="1003.51" y="177.5" ></text>
</g>
<g >
<title>firedrake.variational_solver.NonlinearVariationalSolver.__init__ (8,465 us, 0.24%)</title><rect x="869.1" y="71" width="2.8" height="15.0" fill="rgb(0,0,0)" rx="2" ry="2" />
<text  x="872.08" y="81.5" ></text>
</g>
<g >
<title>HybridProject (39,106 us, 1.11%)</title><rect x="933.0" y="151" width="13.1" height="15.0" fill="rgb(0,0,0)" rx="2" ry="2" />
<text  x="936.03" y="161.5" ></text>
</g>
<g >
<title>firedrake.ufl_expr.adjoint (2,201 us, 0.06%)</title><rect x="1153.2" y="135" width="0.8" height="15.0" fill="rgb(0,0,0)" rx="2" ry="2" />
<text  x="1156.22" y="145.5" ></text>
</g>
<g >
<title>firedrake.functionspace.make_scalar_element (1,773 us, 0.05%)</title><rect x="1133.3" y="199" width="0.6" height="15.0" fill="rgb(0,0,0)" rx="2" ry="2" />
<text  x="1136.28" y="209.5" ></text>
</g>
<g >
<title>Log_Event_subkernel6_cell_to__cell_integral_otherwise (964 us, 0.03%)</title><rect x="1031.8" y="199" width="0.3" height="15.0" fill="rgb(0,0,0)" rx="2" ry="2" />
<text  x="1034.77" y="209.5" ></text>
</g>
<g >
<title>ParLoopExecute (42,272 us, 1.20%)</title><rect x="1115.5" y="151" width="14.1" height="15.0" fill="rgb(0,0,0)" rx="2" ry="2" />
<text  x="1118.48" y="161.5" ></text>
</g>
<g >
<title>Mesh: numbering (751 us, 0.02%)</title><rect x="340.9" y="87" width="0.3" height="15.0" fill="rgb(0,0,0)" rx="2" ry="2" />
<text  x="343.91" y="97.5" ></text>
</g>
<g >
<title>firedrake.parloops.par_loop (36,270 us, 1.03%)</title><rect x="1141.1" y="135" width="12.1" height="15.0" fill="rgb(0,0,0)" rx="2" ry="2" />
<text  x="1144.09" y="145.5" ></text>
</g>
<g >
<title>Log_Event_subkernel17_interior_facet_vert_to__exterior_facet_vert_integral_otherwise (1,064 us, 0.03%)</title><rect x="947.0" y="183" width="0.3" height="15.0" fill="rgb(0,0,0)" rx="2" ry="2" />
<text  x="949.98" y="193.5" ></text>
</g>
<g >
<title>firedrake (3,528,860 us, 100.00%)</title><rect x="10.0" y="55" width="1180.0" height="15.0" fill="rgb(0,0,0)" rx="2" ry="2" />
<text  x="13.00" y="65.5" >firedrake</text>
</g>
<g >
<title>Log_Event_subkernel3_interior_facet_vert_to__exterior_facet_vert_integral_otherwise (1,032 us, 0.03%)</title><rect x="1117.1" y="183" width="0.3" height="15.0" fill="rgb(0,0,0)" rx="2" ry="2" />
<text  x="1120.08" y="193.5" ></text>
</g>
<g >
<title>firedrake.mesh._from_cell_list (476 us, 0.01%)</title><rect x="863.3" y="103" width="0.2" height="15.0" fill="rgb(0,0,0)" rx="2" ry="2" />
<text  x="866.30" y="113.5" ></text>
</g>
<g >
<title>firedrake.formmanipulation.ExtractSubBlock.split (13,456 us, 0.38%)</title><rect x="1130.7" y="151" width="4.5" height="15.0" fill="rgb(0,0,0)" rx="2" ry="2" />
<text  x="1133.74" y="161.5" ></text>
</g>
<g >
<title>HybridRHS (90,480 us, 2.56%)</title><rect x="1013.4" y="151" width="30.2" height="15.0" fill="rgb(0,0,0)" rx="2" ry="2" />
<text  x="1016.39" y="161.5" >H..</text>
</g>
<g >
<title>firedrake.mesh.MeshTopology._facets (2,515 us, 0.07%)</title><rect x="339.7" y="135" width="0.9" height="15.0" fill="rgb(0,0,0)" rx="2" ry="2" />
<text  x="342.72" y="145.5" ></text>
</g>
<g >
<title>ParLoopExecute (39,841 us, 1.13%)</title><rect x="316.9" y="103" width="13.3" height="15.0" fill="rgb(0,0,0)" rx="2" ry="2" />
<text  x="319.90" y="113.5" ></text>
</g>
<g >
<title>Log_Event_slate_loopy_knl_4 (651 us, 0.02%)</title><rect x="1031.2" y="199" width="0.2" height="15.0" fill="rgb(0,0,0)" rx="2" ry="2" />
<text  x="1034.19" y="209.5" ></text>
</g>
<g >
<title>Parloop_Cells_wrap_par_loop_kernel (32,529 us, 0.92%)</title><rect x="935.2" y="199" width="10.9" height="15.0" fill="rgb(0,0,0)" rx="2" ry="2" />
<text  x="938.23" y="209.5" ></text>
</g>
<g >
<title>pyop2.global_kernel.GlobalKernel.compile (40,125 us, 1.14%)</title><rect x="1156.1" y="151" width="13.4" height="15.0" fill="rgb(0,0,0)" rx="2" ry="2" />
<text  x="1159.05" y="161.5" ></text>
</g>
<g >
<title>firedrake.mesh.ExtrudedMeshTopology.__init__ (736 us, 0.02%)</title><rect x="332.6" y="87" width="0.3" height="15.0" fill="rgb(0,0,0)" rx="2" ry="2" />
<text  x="335.61" y="97.5" ></text>
</g>
<g >
<title>firedrake.assemble.allocate_matrix (2,263 us, 0.06%)</title><rect x="1129.8" y="135" width="0.7" height="15.0" fill="rgb(0,0,0)" rx="2" ry="2" />
<text  x="1132.76" y="145.5" ></text>
</g>
<g >
<title>all (3,528,860 us, 100%)</title><rect x="10.0" y="39" width="1180.0" height="15.0" fill="rgb(0,0,0)" rx="2" ry="2" />
<text  x="13.00" y="49.5" ></text>
</g>
<g >
<title>firedrake.formmanipulation.ExtractSubBlock.argument (9,739 us, 0.28%)</title><rect x="1132.0" y="167" width="3.2" height="15.0" fill="rgb(0,0,0)" rx="2" ry="2" />
<text  x="1134.98" y="177.5" ></text>
</g>
<g >
<title>SCSolve (9,985 us, 0.28%)</title><rect x="1043.6" y="135" width="3.4" height="15.0" fill="rgb(0,0,0)" rx="2" ry="2" />
<text  x="1046.64" y="145.5" ></text>
</g>
<g >
<title>HybridOperatorAssembly (220,582 us, 6.25%)</title><rect x="1056.0" y="135" width="73.8" height="15.0" fill="rgb(0,0,0)" rx="2" ry="2" />
<text  x="1059.00" y="145.5" >HybridO..</text>
</g>
<g >
<title>firedrake.utility_meshes.SquareMesh (1,563 us, 0.04%)</title><rect x="862.9" y="71" width="0.6" height="15.0" fill="rgb(0,0,0)" rx="2" ry="2" />
<text  x="865.93" y="81.5" ></text>
</g>
<g >
<title>firedrake.functionspacedata.FunctionSpaceData.boundary_nodes (429 us, 0.01%)</title><rect x="1129.6" y="167" width="0.2" height="15.0" fill="rgb(0,0,0)" rx="2" ry="2" />
<text  x="1132.61" y="177.5" ></text>
</g>
<g >
<title>firedrake.matrix_free.operators.ImplicitMatrixContext.__init__ (7,426 us, 0.21%)</title><rect x="869.4" y="103" width="2.5" height="15.0" fill="rgb(0,0,0)" rx="2" ry="2" />
<text  x="872.43" y="113.5" ></text>
</g>
</g>
</svg>
