<?xml version="1.0" standalone="no"?>
<!DOCTYPE svg PUBLIC "-//W3C//DTD SVG 1.1//EN" "http://www.w3.org/Graphics/SVG/1.1/DTD/svg11.dtd">
<svg version="1.1" width="1200" height="299" onload="init(evt)" viewBox="0 0 1200 299" xmlns="http://www.w3.org/2000/svg" xmlns:xlink="http://www.w3.org/1999/xlink">
<!-- Flame graph stack visualization. See https://github.com/brendangregg/FlameGraph for latest version, and http://www.brendangregg.com/flamegraphs.html for examples. -->
<!-- NOTES:  -->
<defs>
	<linearGradient id="background" y1="0" y2="1" x1="0" x2="0" >
		<stop stop-color="#eeeeee" offset="5%" />
		<stop stop-color="#eeeeb0" offset="95%" />
	</linearGradient>
</defs>
<style type="text/css">
	text { font-family:Verdana; font-size:13px; fill:rgb(0,0,0); }
	#search, #ignorecase { opacity:0.1; cursor:pointer; }
	#search:hover, #search.show, #ignorecase:hover, #ignorecase.show { opacity:1; }
	#subtitle { text-anchor:middle; font-color:rgb(160,160,160); }
	#title { text-anchor:middle; font-size:18px}
	#unzoom { cursor:pointer; }
	#frames > *:hover { stroke:black; stroke-width:0.5; cursor:pointer; }
	.hide { display:none; }
	.parent { opacity:0.5; }
</style>
<script type="text/ecmascript">
<![CDATA[
	"use strict";
	var details, searchbtn, unzoombtn, matchedtxt, svg, searching, currentSearchTerm, ignorecase, ignorecaseBtn;
	function init(evt) {
		details = document.getElementById("details").firstChild;
		searchbtn = document.getElementById("search");
		ignorecaseBtn = document.getElementById("ignorecase");
		unzoombtn = document.getElementById("unzoom");
		matchedtxt = document.getElementById("matched");
		svg = document.getElementsByTagName("svg")[0];
		searching = 0;
		currentSearchTerm = null;

		// use GET parameters to restore a flamegraphs state.
		var params = get_params();
		if (params.x && params.y)
			zoom(find_group(document.querySelector('[x="' + params.x + '"][y="' + params.y + '"]')));
                if (params.s) search(params.s);
	}

	// event listeners
	window.addEventListener("click", function(e) {
		var target = find_group(e.target);
		if (target) {
			if (target.nodeName == "a") {
				if (e.ctrlKey === false) return;
				e.preventDefault();
			}
			if (target.classList.contains("parent")) unzoom();
			zoom(target);
			if (!document.querySelector('.parent')) {
				clearzoom();
				return;
			}

			// set parameters for zoom state
			var el = target.querySelector("rect");
			if (el && el.attributes && el.attributes.y && el.attributes._orig_x) {
				var params = get_params()
				params.x = el.attributes._orig_x.value;
				params.y = el.attributes.y.value;
				history.replaceState(null, null, parse_params(params));
			}
		}
		else if (e.target.id == "unzoom") clearzoom();
		else if (e.target.id == "search") search_prompt();
		else if (e.target.id == "ignorecase") toggle_ignorecase();
	}, false)

	// mouse-over for info
	// show
	window.addEventListener("mouseover", function(e) {
		var target = find_group(e.target);
		if (target) details.nodeValue = "Function: " + g_to_text(target);
	}, false)

	// clear
	window.addEventListener("mouseout", function(e) {
		var target = find_group(e.target);
		if (target) details.nodeValue = ' ';
	}, false)

	// ctrl-F for search
	// ctrl-I to toggle case-sensitive search
	window.addEventListener("keydown",function (e) {
		if (e.keyCode === 114 || (e.ctrlKey && e.keyCode === 70)) {
			e.preventDefault();
			search_prompt();
		}
		else if (e.ctrlKey && e.keyCode === 73) {
			e.preventDefault();
			toggle_ignorecase();
		}
	}, false)

	// functions
	function get_params() {
		var params = {};
		var paramsarr = window.location.search.substr(1).split('&');
		for (var i = 0; i < paramsarr.length; ++i) {
			var tmp = paramsarr[i].split("=");
			if (!tmp[0] || !tmp[1]) continue;
			params[tmp[0]]  = decodeURIComponent(tmp[1]);
		}
		return params;
	}
	function parse_params(params) {
		var uri = "?";
		for (var key in params) {
			uri += key + '=' + encodeURIComponent(params[key]) + '&';
		}
		if (uri.slice(-1) == "&")
			uri = uri.substring(0, uri.length - 1);
		if (uri == '?')
			uri = window.location.href.split('?')[0];
		return uri;
	}
	function find_child(node, selector) {
		var children = node.querySelectorAll(selector);
		if (children.length) return children[0];
	}
	function find_group(node) {
		var parent = node.parentElement;
		if (!parent) return;
		if (parent.id == "frames") return node;
		return find_group(parent);
	}
	function orig_save(e, attr, val) {
		if (e.attributes["_orig_" + attr] != undefined) return;
		if (e.attributes[attr] == undefined) return;
		if (val == undefined) val = e.attributes[attr].value;
		e.setAttribute("_orig_" + attr, val);
	}
	function orig_load(e, attr) {
		if (e.attributes["_orig_"+attr] == undefined) return;
		e.attributes[attr].value = e.attributes["_orig_" + attr].value;
		e.removeAttribute("_orig_"+attr);
	}
	function g_to_text(e) {
		var text = find_child(e, "title").firstChild.nodeValue;
		return (text)
	}
	function g_to_func(e) {
		var func = g_to_text(e);
		// if there's any manipulation we want to do to the function
		// name before it's searched, do it here before returning.
		return (func);
	}
	function update_text(e) {
		var r = find_child(e, "rect");
		var t = find_child(e, "text");
		var w = parseFloat(r.attributes.width.value) -3;
		var txt = find_child(e, "title").textContent.replace(/\([^(]*\)$/,"");
		t.attributes.x.value = parseFloat(r.attributes.x.value) + 3;

		// Smaller than this size won't fit anything
		if (w < 2 * 13 * 0.59) {
			t.textContent = "";
			return;
		}

		t.textContent = txt;
		// Fit in full text width
		if (/^ *$/.test(txt) || t.getSubStringLength(0, txt.length) < w)
			return;

		for (var x = txt.length - 2; x > 0; x--) {
			if (t.getSubStringLength(0, x + 2) <= w) {
				t.textContent = txt.substring(0, x) + "..";
				return;
			}
		}
		t.textContent = "";
	}

	// zoom
	function zoom_reset(e) {
		if (e.attributes != undefined) {
			orig_load(e, "x");
			orig_load(e, "width");
		}
		if (e.childNodes == undefined) return;
		for (var i = 0, c = e.childNodes; i < c.length; i++) {
			zoom_reset(c[i]);
		}
	}
	function zoom_child(e, x, ratio) {
		if (e.attributes != undefined) {
			if (e.attributes.x != undefined) {
				orig_save(e, "x");
				e.attributes.x.value = (parseFloat(e.attributes.x.value) - x - 10) * ratio + 10;
				if (e.tagName == "text")
					e.attributes.x.value = find_child(e.parentNode, "rect[x]").attributes.x.value + 3;
			}
			if (e.attributes.width != undefined) {
				orig_save(e, "width");
				e.attributes.width.value = parseFloat(e.attributes.width.value) * ratio;
			}
		}

		if (e.childNodes == undefined) return;
		for (var i = 0, c = e.childNodes; i < c.length; i++) {
			zoom_child(c[i], x - 10, ratio);
		}
	}
	function zoom_parent(e) {
		if (e.attributes) {
			if (e.attributes.x != undefined) {
				orig_save(e, "x");
				e.attributes.x.value = 10;
			}
			if (e.attributes.width != undefined) {
				orig_save(e, "width");
				e.attributes.width.value = parseInt(svg.width.baseVal.value) - (10 * 2);
			}
		}
		if (e.childNodes == undefined) return;
		for (var i = 0, c = e.childNodes; i < c.length; i++) {
			zoom_parent(c[i]);
		}
	}
	function zoom(node) {
		var attr = find_child(node, "rect").attributes;
		var width = parseFloat(attr.width.value);
		var xmin = parseFloat(attr.x.value);
		var xmax = parseFloat(xmin + width);
		var ymin = parseFloat(attr.y.value);
		var ratio = (svg.width.baseVal.value - 2 * 10) / width;

		// XXX: Workaround for JavaScript float issues (fix me)
		var fudge = 0.0001;

		unzoombtn.classList.remove("hide");

		var el = document.getElementById("frames").children;
		for (var i = 0; i < el.length; i++) {
			var e = el[i];
			var a = find_child(e, "rect").attributes;
			var ex = parseFloat(a.x.value);
			var ew = parseFloat(a.width.value);
			var upstack;
			// Is it an ancestor
			if (1 == 0) {
				upstack = parseFloat(a.y.value) > ymin;
			} else {
				upstack = parseFloat(a.y.value) < ymin;
			}
			if (upstack) {
				// Direct ancestor
				if (ex <= xmin && (ex+ew+fudge) >= xmax) {
					e.classList.add("parent");
					zoom_parent(e);
					update_text(e);
				}
				// not in current path
				else
					e.classList.add("hide");
			}
			// Children maybe
			else {
				// no common path
				if (ex < xmin || ex + fudge >= xmax) {
					e.classList.add("hide");
				}
				else {
					zoom_child(e, xmin, ratio);
					update_text(e);
				}
			}
		}
		search();
	}
	function unzoom() {
		unzoombtn.classList.add("hide");
		var el = document.getElementById("frames").children;
		for(var i = 0; i < el.length; i++) {
			el[i].classList.remove("parent");
			el[i].classList.remove("hide");
			zoom_reset(el[i]);
			update_text(el[i]);
		}
		search();
	}
	function clearzoom() {
		unzoom();

		// remove zoom state
		var params = get_params();
		if (params.x) delete params.x;
		if (params.y) delete params.y;
		history.replaceState(null, null, parse_params(params));
	}

	// search
	function toggle_ignorecase() {
		ignorecase = !ignorecase;
		if (ignorecase) {
			ignorecaseBtn.classList.add("show");
		} else {
			ignorecaseBtn.classList.remove("show");
		}
		reset_search();
		search();
	}
	function reset_search() {
		var el = document.querySelectorAll("#frames rect");
		for (var i = 0; i < el.length; i++) {
			orig_load(el[i], "fill")
		}
		var params = get_params();
		delete params.s;
		history.replaceState(null, null, parse_params(params));
	}
	function search_prompt() {
		if (!searching) {
			var term = prompt("Enter a search term (regexp " +
			    "allowed, eg: ^ext4_)"
			    + (ignorecase ? ", ignoring case" : "")
			    + "\nPress Ctrl-i to toggle case sensitivity", "");
			if (term != null) search(term);
		} else {
			reset_search();
			searching = 0;
			currentSearchTerm = null;
			searchbtn.classList.remove("show");
			searchbtn.firstChild.nodeValue = "Search"
			matchedtxt.classList.add("hide");
			matchedtxt.firstChild.nodeValue = ""
		}
	}
	function search(term) {
		if (term) currentSearchTerm = term;

		var re = new RegExp(currentSearchTerm, ignorecase ? 'i' : '');
		var el = document.getElementById("frames").children;
		var matches = new Object();
		var maxwidth = 0;
		for (var i = 0; i < el.length; i++) {
			var e = el[i];
			var func = g_to_func(e);
			var rect = find_child(e, "rect");
			if (func == null || rect == null)
				continue;

			// Save max width. Only works as we have a root frame
			var w = parseFloat(rect.attributes.width.value);
			if (w > maxwidth)
				maxwidth = w;

			if (func.match(re)) {
				// highlight
				var x = parseFloat(rect.attributes.x.value);
				orig_save(rect, "fill");
				rect.attributes.fill.value = "rgb(230,0,230)";

				// remember matches
				if (matches[x] == undefined) {
					matches[x] = w;
				} else {
					if (w > matches[x]) {
						// overwrite with parent
						matches[x] = w;
					}
				}
				searching = 1;
			}
		}
		if (!searching)
			return;
		var params = get_params();
		params.s = currentSearchTerm;
		history.replaceState(null, null, parse_params(params));

		searchbtn.classList.add("show");
		searchbtn.firstChild.nodeValue = "Reset Search";

		// calculate percent matched, excluding vertical overlap
		var count = 0;
		var lastx = -1;
		var lastw = 0;
		var keys = Array();
		for (k in matches) {
			if (matches.hasOwnProperty(k))
				keys.push(k);
		}
		// sort the matched frames by their x location
		// ascending, then width descending
		keys.sort(function(a, b){
			return a - b;
		});
		// Step through frames saving only the biggest bottom-up frames
		// thanks to the sort order. This relies on the tree property
		// where children are always smaller than their parents.
		var fudge = 0.0001;	// JavaScript floating point
		for (var k in keys) {
			var x = parseFloat(keys[k]);
			var w = matches[keys[k]];
			if (x >= lastx + lastw - fudge) {
				count += w;
				lastx = x;
				lastw = w;
			}
		}
		// display matched percent
		matchedtxt.classList.remove("hide");
		var pct = 100 * count / maxwidth;
		if (pct != 100) pct = pct.toFixed(1)
		matchedtxt.firstChild.nodeValue = "Matched: " + pct + "%";
	}
]]>
</script>
<rect x="0.0" y="0" width="1200.0" height="299.0" fill="url(#background)"  />
<text id="title" x="600.00" y="26" >Firedrake example</text>
<text id="details" x="10.00" y="281" > </text>
<text id="unzoom" x="10.00" y="26" class="hide">Reset Zoom</text>
<text id="search" x="1090.00" y="26" >Search</text>
<text id="ignorecase" x="1174.00" y="26" >ic</text>
<text id="matched" x="1090.00" y="281" > </text>
<g id="frames">
<g >
<title>ParLoopExecute (9,861,617 us, 6.45%)</title><rect x="499.9" y="151" width="76.1" height="15.0" fill="rgb(0,0,0)" rx="2" ry="2" />
<text  x="502.91" y="161.5" >ParLoop..</text>
</g>
<g >
<title>HybridProject (882,066 us, 0.58%)</title><rect x="493.1" y="151" width="6.8" height="15.0" fill="rgb(0,0,0)" rx="2" ry="2" />
<text  x="496.11" y="161.5" ></text>
</g>
<g >
<title>firedrake.norms.norm (6,164,552 us, 4.03%)</title><rect x="385.4" y="87" width="47.5" height="15.0" fill="rgb(0,0,0)" rx="2" ry="2" />
<text  x="388.36" y="97.5" >fire..</text>
</g>
<g >
<title>firedrake.assemble_expressions.assemble_expression (802,161 us, 0.52%)</title><rect x="94.5" y="87" width="6.2" height="15.0" fill="rgb(0,0,0)" rx="2" ry="2" />
<text  x="97.53" y="97.5" ></text>
</g>
<g >
<title>Parloop_Cells_wrap_form00_interior_facet_horiz_integral_otherwise (1,628,195 us, 1.06%)</title><rect x="317.6" y="135" width="12.6" height="15.0" fill="rgb(0,0,0)" rx="2" ry="2" />
<text  x="320.62" y="145.5" ></text>
</g>
<g >
<title>firedrake.norms.errornorm (6,164,552 us, 4.03%)</title><rect x="385.4" y="71" width="47.5" height="15.0" fill="rgb(0,0,0)" rx="2" ry="2" />
<text  x="388.36" y="81.5" >fire..</text>
</g>
<g >
<title>pyop2.global_kernel.GlobalKernel.compile (1,239,876 us, 0.81%)</title><rect x="143.0" y="135" width="9.6" height="15.0" fill="rgb(0,0,0)" rx="2" ry="2" />
<text  x="146.03" y="145.5" ></text>
</g>
<g >
<title>PCSetUp (19,925,657 us, 13.03%)</title><rect x="976.7" y="151" width="153.8" height="15.0" fill="rgb(0,0,0)" rx="2" ry="2" />
<text  x="979.75" y="161.5" >PCSetUp</text>
</g>
<g >
<title>firedrake.tsfc_interface.compile_form (2,437,709 us, 1.59%)</title><rect x="1111.7" y="167" width="18.8" height="15.0" fill="rgb(0,0,0)" rx="2" ry="2" />
<text  x="1114.69" y="177.5" ></text>
</g>
<g >
<title>ParLoopExecute (20,434,038 us, 13.36%)</title><rect x="204.0" y="119" width="157.7" height="15.0" fill="rgb(0,0,0)" rx="2" ry="2" />
<text  x="207.04" y="129.5" >ParLoopExecute</text>
</g>
<g >
<title>SCSolve (38,612,510 us, 25.25%)</title><rect x="832.6" y="135" width="297.9" height="15.0" fill="rgb(0,0,0)" rx="2" ry="2" />
<text  x="835.55" y="145.5" >SCSolve</text>
</g>
<g >
<title>SCBackSub (30,281,899 us, 19.80%)</title><rect x="484.0" y="135" width="233.6" height="15.0" fill="rgb(0,0,0)" rx="2" ry="2" />
<text  x="486.97" y="145.5" >SCBackSub</text>
</g>
<g >
<title>firedrake.functionspaceimpl.FunctionSpace.__init__ (18,591 us, 0.01%)</title><rect x="25.4" y="87" width="0.1" height="15.0" fill="rgb(0,0,0)" rx="2" ry="2" />
<text  x="28.36" y="97.5" ></text>
</g>
<g >
<title>ParLoopExecute (882,064 us, 0.58%)</title><rect x="18.5" y="103" width="6.9" height="15.0" fill="rgb(0,0,0)" rx="2" ry="2" />
<text  x="21.55" y="113.5" ></text>
</g>
<g >
<title>pyop2.global_kernel.GlobalKernel.compile (5,309,251 us, 3.47%)</title><rect x="385.4" y="151" width="40.9" height="15.0" fill="rgb(0,0,0)" rx="2" ry="2" />
<text  x="388.36" y="161.5" >pyo..</text>
</g>
<g >
<title>Parloop_ExtFacets_wrap_form00_exterior_facet_vert_integral_otherwise (2,015,013 us, 1.32%)</title><rect x="330.2" y="135" width="15.5" height="15.0" fill="rgb(0,0,0)" rx="2" ry="2" />
<text  x="333.18" y="145.5" ></text>
</g>
<g >
<title>ParLoopExecute (7,439,689 us, 4.86%)</title><rect x="37.1" y="87" width="57.4" height="15.0" fill="rgb(0,0,0)" rx="2" ry="2" />
<text  x="40.12" y="97.5" >ParLo..</text>
</g>
<g >
<title>Parloop_Cells_wrap_par_loop_kernel (683,977 us, 0.45%)</title><rect x="1131.0" y="167" width="5.2" height="15.0" fill="rgb(0,0,0)" rx="2" ry="2" />
<text  x="1133.96" y="177.5" ></text>
</g>
<g >
<title>firedrake.projection.project (35,620,966 us, 23.29%)</title><rect x="110.5" y="87" width="274.9" height="15.0" fill="rgb(0,0,0)" rx="2" ry="2" />
<text  x="113.50" y="97.5" >firedrake.projection.project</text>
</g>
<g >
<title>Parloop_Cells_wrap_wrap_slate_loopy_knl_18 (9,861,617 us, 6.45%)</title><rect x="499.9" y="167" width="76.1" height="15.0" fill="rgb(0,0,0)" rx="2" ry="2" />
<text  x="502.91" y="177.5" >Parloop..</text>
</g>
<g >
<title>pyop2.global_kernel.GlobalKernel.compile (2,071,655 us, 1.35%)</title><rect x="345.7" y="151" width="16.0" height="15.0" fill="rgb(0,0,0)" rx="2" ry="2" />
<text  x="348.73" y="161.5" ></text>
</g>
<g >
<title>ParLoopExecute (12,582,919 us, 8.23%)</title><rect x="587.4" y="167" width="97.1" height="15.0" fill="rgb(0,0,0)" rx="2" ry="2" />
<text  x="590.40" y="177.5" >ParLoopExe..</text>
</g>
<g >
<title>firedrake.tsfc_interface.compile_form (1,207,682 us, 0.79%)</title><rect x="474.7" y="151" width="9.3" height="15.0" fill="rgb(0,0,0)" rx="2" ry="2" />
<text  x="477.66" y="161.5" ></text>
</g>
<g >
<title>firedrake.tsfc_interface.compile_form (2,455,540 us, 1.61%)</title><rect x="957.8" y="199" width="18.9" height="15.0" fill="rgb(0,0,0)" rx="2" ry="2" />
<text  x="960.80" y="209.5" ></text>
</g>
<g >
<title>Parloop_Cells_wrap_form1_cell_integral_otherwise (2,220,136 us, 1.45%)</title><rect x="457.5" y="167" width="17.2" height="15.0" fill="rgb(0,0,0)" rx="2" ry="2" />
<text  x="460.52" y="177.5" ></text>
</g>
<g >
<title>Log_Event_slate_loopy_knl_7 (33,519 us, 0.02%)</title><rect x="846.1" y="231" width="0.2" height="15.0" fill="rgb(0,0,0)" rx="2" ry="2" />
<text  x="849.09" y="241.5" ></text>
</g>
<g >
<title>MatMult (18,686,853 us, 12.22%)</title><rect x="832.6" y="167" width="144.1" height="15.0" fill="rgb(0,0,0)" rx="2" ry="2" />
<text  x="835.55" y="177.5" >MatMult</text>
</g>
<g >
<title>Parloop_Cells_wrap_pyop2_kernel_uniform_extrusion (882,064 us, 0.58%)</title><rect x="18.5" y="119" width="6.9" height="15.0" fill="rgb(0,0,0)" rx="2" ry="2" />
<text  x="21.55" y="129.5" ></text>
</g>
<g >
<title>pyop2.global_kernel.GlobalKernel.compile (2,737,481 us, 1.79%)</title><rect x="1160.4" y="151" width="21.1" height="15.0" fill="rgb(0,0,0)" rx="2" ry="2" />
<text  x="1163.41" y="161.5" ></text>
</g>
<g >
<title>KSPSolve (18,686,853 us, 12.22%)</title><rect x="832.6" y="151" width="144.1" height="15.0" fill="rgb(0,0,0)" rx="2" ry="2" />
<text  x="835.55" y="161.5" >KSPSolve</text>
</g>
<g >
<title>Parloop_Cells_wrap_wrap_slate_loopy_knl_7 (14,549,432 us, 9.51%)</title><rect x="845.5" y="215" width="112.3" height="15.0" fill="rgb(0,0,0)" rx="2" ry="2" />
<text  x="848.53" y="225.5" >Parloop_Cell..</text>
</g>
<g >
<title>firedrake.assemble.assemble (9,509,682 us, 6.22%)</title><rect x="37.1" y="71" width="73.4" height="15.0" fill="rgb(0,0,0)" rx="2" ry="2" />
<text  x="40.12" y="81.5" >firedra..</text>
</g>
<g >
<title>pyop2.global_kernel.GlobalKernel.compile (1,833,884 us, 1.20%)</title><rect x="65.1" y="119" width="14.2" height="15.0" fill="rgb(0,0,0)" rx="2" ry="2" />
<text  x="68.11" y="129.5" ></text>
</g>
<g >
<title>KSPSolve (90,383,787 us, 59.10%)</title><rect x="433.1" y="103" width="697.4" height="15.0" fill="rgb(0,0,0)" rx="2" ry="2" />
<text  x="436.08" y="113.5" >KSPSolve</text>
</g>
<g >
<title>MatMult (6,596,276 us, 4.31%)</title><rect x="433.1" y="119" width="50.9" height="15.0" fill="rgb(0,0,0)" rx="2" ry="2" />
<text  x="436.08" y="129.5" >MatM..</text>
</g>
<g >
<title>Parloop_set_#x7f4e077b2b60_wrap_expression_kernel (367,242 us, 0.24%)</title><rect x="97.7" y="135" width="2.9" height="15.0" fill="rgb(0,0,0)" rx="2" ry="2" />
<text  x="100.74" y="145.5" ></text>
</g>
<g >
<title>ParLoopExecute (5,388,594 us, 3.52%)</title><rect x="433.1" y="151" width="41.6" height="15.0" fill="rgb(0,0,0)" rx="2" ry="2" />
<text  x="436.08" y="161.5" >Par..</text>
</g>
<g >
<title>Log_Event_subkernel8_interior_facet_vert_to__exterior_facet_vert_integral_otherwise (53,454 us, 0.03%)</title><rect x="846.8" y="231" width="0.4" height="15.0" fill="rgb(0,0,0)" rx="2" ry="2" />
<text  x="849.76" y="241.5" ></text>
</g>
<g >
<title>firedrake.parloops.par_loop (683,977 us, 0.45%)</title><rect x="1131.0" y="135" width="5.2" height="15.0" fill="rgb(0,0,0)" rx="2" ry="2" />
<text  x="1133.96" y="145.5" ></text>
</g>
<g >
<title>Parloop_Cells_wrap_form0_cell_integral_otherwise (4,196,097 us, 2.74%)</title><rect x="110.7" y="119" width="32.3" height="15.0" fill="rgb(0,0,0)" rx="2" ry="2" />
<text  x="113.65" y="129.5" >Pa..</text>
</g>
<g >
<title>ParLoopExecute (5,309,251 us, 3.47%)</title><rect x="385.4" y="119" width="40.9" height="15.0" fill="rgb(0,0,0)" rx="2" ry="2" />
<text  x="388.36" y="129.5" >Par..</text>
</g>
<g >
<title>Parloop_Cells_wrap_form_exterior_facet_bottom_integral_otherwise (1,195,122 us, 0.78%)</title><rect x="37.1" y="103" width="9.2" height="15.0" fill="rgb(0,0,0)" rx="2" ry="2" />
<text  x="40.12" y="113.5" ></text>
</g>
<g >
<title>pyop2.caching.disk_cached.&lt;locals&gt;.decorator.&lt;locals&gt;.wrapper (18,615 us, 0.01%)</title><rect x="100.6" y="119" width="0.1" height="15.0" fill="rgb(0,0,0)" rx="2" ry="2" />
<text  x="103.57" y="129.5" ></text>
</g>
<g >
<title>pyop2.global_kernel.GlobalKernel.compile (1,529,856 us, 1.00%)</title><rect x="305.8" y="151" width="11.8" height="15.0" fill="rgb(0,0,0)" rx="2" ry="2" />
<text  x="308.81" y="161.5" ></text>
</g>
<g >
<title>pyop2.global_kernel.GlobalKernel.compile (1,011,952 us, 0.66%)</title><rect x="717.6" y="215" width="7.8" height="15.0" fill="rgb(0,0,0)" rx="2" ry="2" />
<text  x="720.64" y="225.5" ></text>
</g>
<g >
<title>Parloop_Cells_wrap_par_loop_kernel (882,066 us, 0.58%)</title><rect x="493.1" y="199" width="6.8" height="15.0" fill="rgb(0,0,0)" rx="2" ry="2" />
<text  x="496.11" y="209.5" ></text>
</g>
<g >
<title>Log_Event_subkernel9_cell_to__cell_integral_otherwise (45,391 us, 0.03%)</title><rect x="847.2" y="231" width="0.3" height="15.0" fill="rgb(0,0,0)" rx="2" ry="2" />
<text  x="850.17" y="241.5" ></text>
</g>
<g >
<title>PCSetUp (744,430 us, 0.49%)</title><rect x="1130.5" y="103" width="5.7" height="15.0" fill="rgb(0,0,0)" rx="2" ry="2" />
<text  x="1133.50" y="113.5" ></text>
</g>
<g >
<title>firedrake.tsfc_interface.compile_form (1,684,482 us, 1.10%)</title><rect x="819.6" y="167" width="13.0" height="15.0" fill="rgb(0,0,0)" rx="2" ry="2" />
<text  x="822.56" y="177.5" ></text>
</g>
<g >
<title>firedrake.__init__ (1,506,284 us, 0.98%)</title><rect x="25.5" y="71" width="11.6" height="15.0" fill="rgb(0,0,0)" rx="2" ry="2" />
<text  x="28.50" y="81.5" ></text>
</g>
<g >
<title>pyop2.global_kernel.GlobalKernel.compile (1,236,211 us, 0.81%)</title><rect x="55.6" y="119" width="9.5" height="15.0" fill="rgb(0,0,0)" rx="2" ry="2" />
<text  x="58.57" y="129.5" ></text>
</g>
<g >
<title>ParLoopExecute (14,549,432 us, 9.51%)</title><rect x="845.5" y="199" width="112.3" height="15.0" fill="rgb(0,0,0)" rx="2" ry="2" />
<text  x="848.53" y="209.5" >ParLoopExecute</text>
</g>
<g >
<title>pyop2.global_kernel.GlobalKernel.compile (1,539,434 us, 1.01%)</title><rect x="293.9" y="151" width="11.9" height="15.0" fill="rgb(0,0,0)" rx="2" ry="2" />
<text  x="296.93" y="161.5" ></text>
</g>
<g >
<title>firedrake.function.Function.project (35,620,966 us, 23.29%)</title><rect x="110.5" y="71" width="274.9" height="15.0" fill="rgb(0,0,0)" rx="2" ry="2" />
<text  x="113.50" y="81.5" >firedrake.function.Function.project</text>
</g>
<g >
<title>firedrake.assemble.assemble (6,164,552 us, 4.03%)</title><rect x="385.4" y="103" width="47.5" height="15.0" fill="rgb(0,0,0)" rx="2" ry="2" />
<text  x="388.36" y="113.5" >fire..</text>
</g>
<g >
<title>pyop2.global_kernel.GlobalKernel.compile (12,582,919 us, 8.23%)</title><rect x="587.4" y="199" width="97.1" height="15.0" fill="rgb(0,0,0)" rx="2" ry="2" />
<text  x="590.40" y="209.5" >pyop2.glob..</text>
</g>
<g >
<title>firedrake.tsfc_interface.compile_form (1,267,832 us, 0.83%)</title><rect x="100.7" y="87" width="9.8" height="15.0" fill="rgb(0,0,0)" rx="2" ry="2" />
<text  x="103.72" y="97.5" ></text>
</g>
<g >
<title>pyop2.global_kernel.GlobalKernel.compile (2,188,597 us, 1.43%)</title><rect x="187.2" y="135" width="16.8" height="15.0" fill="rgb(0,0,0)" rx="2" ry="2" />
<text  x="190.15" y="145.5" ></text>
</g>
<g >
<title>all (152,924,633 us, 100%)</title><rect x="10.0" y="39" width="1180.0" height="15.0" fill="rgb(0,0,0)" rx="2" ry="2" />
<text  x="13.00" y="49.5" ></text>
</g>
<g >
<title>pyop2.global_kernel.GlobalKernel.compile (1,978,757 us, 1.29%)</title><rect x="79.3" y="119" width="15.2" height="15.0" fill="rgb(0,0,0)" rx="2" ry="2" />
<text  x="82.26" y="129.5" ></text>
</g>
<g >
<title>firedrake.variational_solver.NonlinearVariationalSolver.solve (98,095,242 us, 64.15%)</title><rect x="433.1" y="71" width="756.9" height="15.0" fill="rgb(0,0,0)" rx="2" ry="2" />
<text  x="436.08" y="81.5" >firedrake.variational_solver.NonlinearVariationalSolver.solve</text>
</g>
<g >
<title>pyop2.global_kernel.GlobalKernel.compile (9,861,617 us, 6.45%)</title><rect x="499.9" y="183" width="76.1" height="15.0" fill="rgb(0,0,0)" rx="2" ry="2" />
<text  x="502.91" y="193.5" >pyop2.g..</text>
</g>
<g >
<title>firedrake.variational_solver.LinearVariationalProblem.__init__ (19,246 us, 0.01%)</title><rect x="432.9" y="71" width="0.2" height="15.0" fill="rgb(0,0,0)" rx="2" ry="2" />
<text  x="435.93" y="81.5" ></text>
</g>
<g >
<title>Parloop_Cells_wrap_form00_exterior_facet_top_integral_otherwise (1,529,856 us, 1.00%)</title><rect x="305.8" y="135" width="11.8" height="15.0" fill="rgb(0,0,0)" rx="2" ry="2" />
<text  x="308.81" y="145.5" ></text>
</g>
<g >
<title>SCForwardElim (14,893,102 us, 9.74%)</title><rect x="717.6" y="135" width="115.0" height="15.0" fill="rgb(0,0,0)" rx="2" ry="2" />
<text  x="720.64" y="145.5" >SCForwardElim</text>
</g>
<g >
<title>firedrake.tsfc_interface.compile_form (1,097,626 us, 0.72%)</title><rect x="1181.5" y="119" width="8.5" height="15.0" fill="rgb(0,0,0)" rx="2" ry="2" />
<text  x="1184.53" y="129.5" ></text>
</g>
<g >
<title>pyop2.global_kernel.GlobalKernel.compile (1,195,122 us, 0.78%)</title><rect x="37.1" y="119" width="9.2" height="15.0" fill="rgb(0,0,0)" rx="2" ry="2" />
<text  x="40.12" y="129.5" ></text>
</g>
<g >
<title>Parloop_ExtFacets_wrap_form_exterior_facet_vert_integral_otherwise (1,833,884 us, 1.20%)</title><rect x="65.1" y="103" width="14.2" height="15.0" fill="rgb(0,0,0)" rx="2" ry="2" />
<text  x="68.11" y="113.5" ></text>
</g>
<g >
<title>firedrake.parloops.par_loop (882,066 us, 0.58%)</title><rect x="493.1" y="167" width="6.8" height="15.0" fill="rgb(0,0,0)" rx="2" ry="2" />
<text  x="496.11" y="177.5" ></text>
</g>
<g >
<title>Parloop_set_#x7f4e07762dd0_wrap_expression_kernel (416,304 us, 0.27%)</title><rect x="94.5" y="135" width="3.2" height="15.0" fill="rgb(0,0,0)" rx="2" ry="2" />
<text  x="97.53" y="145.5" ></text>
</g>
<g >
<title>pyop2.global_kernel.GlobalKernel.compile (11,050,186 us, 7.23%)</title><rect x="734.3" y="199" width="85.3" height="15.0" fill="rgb(0,0,0)" rx="2" ry="2" />
<text  x="737.29" y="209.5" >pyop2.glo..</text>
</g>
<g >
<title>pyop2.global_kernel.GlobalKernel.compile (1,392,793 us, 0.91%)</title><rect x="162.4" y="135" width="10.7" height="15.0" fill="rgb(0,0,0)" rx="2" ry="2" />
<text  x="165.39" y="145.5" ></text>
</g>
<g >
<title>Parloop_Cells_wrap_par_loop_kernel (1,011,952 us, 0.66%)</title><rect x="717.6" y="199" width="7.8" height="15.0" fill="rgb(0,0,0)" rx="2" ry="2" />
<text  x="720.64" y="209.5" ></text>
</g>
<g >
<title>pyop2.global_kernel.GlobalKernel.compile (11,649,885 us, 7.62%)</title><rect x="204.0" y="151" width="89.9" height="15.0" fill="rgb(0,0,0)" rx="2" ry="2" />
<text  x="207.04" y="161.5" >pyop2.glo..</text>
</g>
<g >
<title>pyop2.global_kernel.GlobalKernel.compile (15,621,804 us, 10.22%)</title><rect x="991.1" y="199" width="120.6" height="15.0" fill="rgb(0,0,0)" rx="2" ry="2" />
<text  x="994.15" y="209.5" >pyop2.global_..</text>
</g>
<g >
<title>firedrake.functionspacedata.get_shared_data (18,591 us, 0.01%)</title><rect x="25.4" y="103" width="0.1" height="15.0" fill="rgb(0,0,0)" rx="2" ry="2" />
<text  x="28.36" y="113.5" ></text>
</g>
<g >
<title>Parloop_Cells_wrap_form0_exterior_facet_bottom_integral_otherwise (1,239,876 us, 0.81%)</title><rect x="143.0" y="119" width="9.6" height="15.0" fill="rgb(0,0,0)" rx="2" ry="2" />
<text  x="146.03" y="129.5" ></text>
</g>
<g >
<title>pyop2.global_kernel.GlobalKernel.compile (2,015,013 us, 1.32%)</title><rect x="330.2" y="151" width="15.5" height="15.0" fill="rgb(0,0,0)" rx="2" ry="2" />
<text  x="333.18" y="161.5" ></text>
</g>
<g >
<title>pyop2.global_kernel.GlobalKernel.compile (1,268,856 us, 0.83%)</title><rect x="152.6" y="135" width="9.8" height="15.0" fill="rgb(0,0,0)" rx="2" ry="2" />
<text  x="155.60" y="145.5" ></text>
</g>
<g >
<title>CreateFunctionSpace (18,591 us, 0.01%)</title><rect x="25.4" y="71" width="0.1" height="15.0" fill="rgb(0,0,0)" rx="2" ry="2" />
<text  x="28.36" y="81.5" ></text>
</g>
<g >
<title>Parloop_Cells_wrap_form1_cell_integral_otherwise (2,737,481 us, 1.79%)</title><rect x="1160.4" y="135" width="21.1" height="15.0" fill="rgb(0,0,0)" rx="2" ry="2" />
<text  x="1163.41" y="145.5" ></text>
</g>
<g >
<title>ParLoopExecute (5,869,399 us, 3.84%)</title><rect x="1136.2" y="119" width="45.3" height="15.0" fill="rgb(0,0,0)" rx="2" ry="2" />
<text  x="1139.24" y="129.5" >Par..</text>
</g>
<g >
<title>solve_getrf (16,048 us, 0.01%)</title><rect x="846.2" y="247" width="0.1" height="15.0" fill="rgb(0,0,0)" rx="2" ry="2" />
<text  x="849.22" y="257.5" ></text>
</g>
<g >
<title>Parloop_IntFacets_wrap_form_interior_facet_vert_integral_otherwise (1,978,757 us, 1.29%)</title><rect x="79.3" y="103" width="15.2" height="15.0" fill="rgb(0,0,0)" rx="2" ry="2" />
<text  x="82.26" y="113.5" ></text>
</g>
<g >
<title>Parloop_Cells_wrap_form_exterior_facet_top_integral_otherwise (1,195,715 us, 0.78%)</title><rect x="46.3" y="103" width="9.3" height="15.0" fill="rgb(0,0,0)" rx="2" ry="2" />
<text  x="49.34" y="113.5" ></text>
</g>
<g >
<title>Parloop_Cells_wrap_form_cell_integral_otherwise (5,309,251 us, 3.47%)</title><rect x="385.4" y="135" width="40.9" height="15.0" fill="rgb(0,0,0)" rx="2" ry="2" />
<text  x="388.36" y="145.5" >Par..</text>
</g>
<g >
<title>pyop2.global_kernel.GlobalKernel.compile (4,196,097 us, 2.74%)</title><rect x="110.7" y="135" width="32.3" height="15.0" fill="rgb(0,0,0)" rx="2" ry="2" />
<text  x="113.65" y="145.5" >py..</text>
</g>
<g >
<title>HybridInit (744,430 us, 0.49%)</title><rect x="1130.5" y="119" width="5.7" height="15.0" fill="rgb(0,0,0)" rx="2" ry="2" />
<text  x="1133.50" y="129.5" ></text>
</g>
<g >
<title>ParLoopExecute (882,066 us, 0.58%)</title><rect x="493.1" y="183" width="6.8" height="15.0" fill="rgb(0,0,0)" rx="2" ry="2" />
<text  x="496.11" y="193.5" ></text>
</g>
<g >
<title>HybridBreak (1,011,952 us, 0.66%)</title><rect x="717.6" y="151" width="7.8" height="15.0" fill="rgb(0,0,0)" rx="2" ry="2" />
<text  x="720.64" y="161.5" ></text>
</g>
<g >
<title>Parloop_Cells_wrap_form0_exterior_facet_top_integral_otherwise (1,268,856 us, 0.83%)</title><rect x="152.6" y="119" width="9.8" height="15.0" fill="rgb(0,0,0)" rx="2" ry="2" />
<text  x="155.60" y="129.5" ></text>
</g>
<g >
<title>firedrake.tsfc_interface.compile_form (2,461,674 us, 1.61%)</title><rect x="684.5" y="167" width="19.0" height="15.0" fill="rgb(0,0,0)" rx="2" ry="2" />
<text  x="687.49" y="177.5" ></text>
</g>
<g >
<title>Parloop_IntFacets_wrap_form00_interior_facet_vert_integral_otherwise (2,071,655 us, 1.35%)</title><rect x="345.7" y="135" width="16.0" height="15.0" fill="rgb(0,0,0)" rx="2" ry="2" />
<text  x="348.73" y="145.5" ></text>
</g>
<g >
<title>pyop2.global_kernel.GlobalKernel.compile (14,291,579 us, 9.35%)</title><rect x="847.5" y="231" width="110.3" height="15.0" fill="rgb(0,0,0)" rx="2" ry="2" />
<text  x="850.52" y="241.5" >pyop2.global..</text>
</g>
<g >
<title>Parloop_Cells_wrap_wrap_slate_loopy_knl_11 (12,582,919 us, 8.23%)</title><rect x="587.4" y="183" width="97.1" height="15.0" fill="rgb(0,0,0)" rx="2" ry="2" />
<text  x="590.40" y="193.5" >Parloop_Ce..</text>
</g>
<g >
<title>Parloop_Cells_wrap_form0_interior_facet_horiz_integral_otherwise (1,392,793 us, 0.91%)</title><rect x="162.4" y="119" width="10.7" height="15.0" fill="rgb(0,0,0)" rx="2" ry="2" />
<text  x="165.39" y="129.5" ></text>
</g>
<g >
<title>firedrake (152,924,633 us, 100.00%)</title><rect x="10.0" y="55" width="1180.0" height="15.0" fill="rgb(0,0,0)" rx="2" ry="2" />
<text  x="13.00" y="65.5" >firedrake</text>
</g>
<g >
<title>Parloop_Cells_wrap_wrap_slate_loopy_knl_3 (15,621,804 us, 10.22%)</title><rect x="991.1" y="183" width="120.6" height="15.0" fill="rgb(0,0,0)" rx="2" ry="2" />
<text  x="994.15" y="193.5" >Parloop_Cells..</text>
</g>
<g >
<title>HybridRHS (13,881,150 us, 9.08%)</title><rect x="725.4" y="151" width="107.2" height="15.0" fill="rgb(0,0,0)" rx="2" ry="2" />
<text  x="728.44" y="161.5" >HybridRHS</text>
</g>
<g >
<title>Parloop_IntFacets_wrap_form0_interior_facet_vert_integral_otherwise (2,188,597 us, 1.43%)</title><rect x="187.2" y="119" width="16.8" height="15.0" fill="rgb(0,0,0)" rx="2" ry="2" />
<text  x="190.15" y="129.5" ></text>
</g>
<g >
<title>pyop2.global_kernel.GlobalKernel.compile (367,242 us, 0.24%)</title><rect x="97.7" y="151" width="2.9" height="15.0" fill="rgb(0,0,0)" rx="2" ry="2" />
<text  x="100.74" y="161.5" ></text>
</g>
<g >
<title>Parloop_ExtFacets_wrap_form0_exterior_facet_vert_integral_otherwise (1,816,712 us, 1.19%)</title><rect x="173.1" y="119" width="14.1" height="15.0" fill="rgb(0,0,0)" rx="2" ry="2" />
<text  x="176.14" y="129.5" ></text>
</g>
<g >
<title>firedrake.tsfc_interface.compile_form (1,916,894 us, 1.25%)</title><rect x="370.6" y="103" width="14.8" height="15.0" fill="rgb(0,0,0)" rx="2" ry="2" />
<text  x="373.57" y="113.5" ></text>
</g>
<g >
<title>firedrake.tsfc_interface.compile_form (855,301 us, 0.56%)</title><rect x="426.3" y="119" width="6.6" height="15.0" fill="rgb(0,0,0)" rx="2" ry="2" />
<text  x="429.33" y="129.5" ></text>
</g>
<g >
<title>ParLoopExecute (783,546 us, 0.51%)</title><rect x="94.5" y="119" width="6.1" height="15.0" fill="rgb(0,0,0)" rx="2" ry="2" />
<text  x="97.53" y="129.5" ></text>
</g>
<g >
<title>pyop2.global_kernel.GlobalKernel.compile (1,628,195 us, 1.06%)</title><rect x="317.6" y="151" width="12.6" height="15.0" fill="rgb(0,0,0)" rx="2" ry="2" />
<text  x="320.62" y="161.5" ></text>
</g>
<g >
<title>firedrake.matrix_free.operators.ImplicitMatrixContext.mult (18,686,853 us, 12.22%)</title><rect x="832.6" y="183" width="144.1" height="15.0" fill="rgb(0,0,0)" rx="2" ry="2" />
<text  x="835.55" y="193.5" >firedrake.matrix..</text>
</g>
<g >
<title>ParLoopExecute (1,011,952 us, 0.66%)</title><rect x="717.6" y="183" width="7.8" height="15.0" fill="rgb(0,0,0)" rx="2" ry="2" />
<text  x="720.64" y="193.5" ></text>
</g>
<g >
<title>ParLoopExecute (12,102,931 us, 7.91%)</title><rect x="110.7" y="103" width="93.3" height="15.0" fill="rgb(0,0,0)" rx="2" ry="2" />
<text  x="113.65" y="113.5" >ParLoopExe..</text>
</g>
<g >
<title>Parloop_Cells_wrap_form_interior_facet_horiz_integral_otherwise (1,236,211 us, 0.81%)</title><rect x="55.6" y="103" width="9.5" height="15.0" fill="rgb(0,0,0)" rx="2" ry="2" />
<text  x="58.57" y="113.5" ></text>
</g>
<g >
<title>Parloop_Cells_wrap_form00_exterior_facet_bottom_integral_otherwise (1,539,434 us, 1.01%)</title><rect x="293.9" y="135" width="11.9" height="15.0" fill="rgb(0,0,0)" rx="2" ry="2" />
<text  x="296.93" y="145.5" ></text>
</g>
<g >
<title>firedrake.tsfc_interface.compile_form (1,833,377 us, 1.20%)</title><rect x="703.5" y="151" width="14.1" height="15.0" fill="rgb(0,0,0)" rx="2" ry="2" />
<text  x="706.49" y="161.5" ></text>
</g>
<g >
<title>CreateExtMesh (912,852 us, 0.60%)</title><rect x="18.3" y="71" width="7.1" height="15.0" fill="rgb(0,0,0)" rx="2" ry="2" />
<text  x="21.31" y="81.5" ></text>
</g>
<g >
<title>firedrake.extrusion_utils.make_extruded_coords (912,852 us, 0.60%)</title><rect x="18.3" y="87" width="7.1" height="15.0" fill="rgb(0,0,0)" rx="2" ry="2" />
<text  x="21.31" y="97.5" ></text>
</g>
<g >
<title>SNESSolve (98,095,242 us, 64.15%)</title><rect x="433.1" y="87" width="756.9" height="15.0" fill="rgb(0,0,0)" rx="2" ry="2" />
<text  x="436.08" y="97.5" >SNESSolve</text>
</g>
<g >
<title>pyop2.global_kernel.GlobalKernel.compile (683,977 us, 0.45%)</title><rect x="1131.0" y="183" width="5.2" height="15.0" fill="rgb(0,0,0)" rx="2" ry="2" />
<text  x="1133.96" y="193.5" ></text>
</g>
<g >
<title>firedrake.assemble.assemble (21,581,506 us, 14.11%)</title><rect x="204.0" y="103" width="166.6" height="15.0" fill="rgb(0,0,0)" rx="2" ry="2" />
<text  x="207.04" y="113.5" >firedrake.assemble...</text>
</g>
<g >
<title>pyop2.global_kernel.GlobalKernel.compile (416,304 us, 0.27%)</title><rect x="94.5" y="151" width="3.2" height="15.0" fill="rgb(0,0,0)" rx="2" ry="2" />
<text  x="97.53" y="161.5" ></text>
</g>
<g >
<title>firedrake.parloops.par_loop (1,011,952 us, 0.66%)</title><rect x="717.6" y="167" width="7.8" height="15.0" fill="rgb(0,0,0)" rx="2" ry="2" />
<text  x="720.64" y="177.5" ></text>
</g>
<g >
<title>Parloop_Cells_wrap_form0_cell_integral_otherwise (3,168,458 us, 2.07%)</title><rect x="433.1" y="167" width="24.4" height="15.0" fill="rgb(0,0,0)" rx="2" ry="2" />
<text  x="436.08" y="177.5" >P..</text>
</g>
<g >
<title>firedrake.matrix_free.operators.ImplicitMatrixContext.mult (6,596,276 us, 4.31%)</title><rect x="433.1" y="135" width="50.9" height="15.0" fill="rgb(0,0,0)" rx="2" ry="2" />
<text  x="436.08" y="145.5" >fire..</text>
</g>
<g >
<title>ParLoopExecute (15,621,804 us, 10.22%)</title><rect x="991.1" y="167" width="120.6" height="15.0" fill="rgb(0,0,0)" rx="2" ry="2" />
<text  x="994.15" y="177.5" >ParLoopExecute</text>
</g>
<g >
<title>pyop2.global_kernel.GlobalKernel.compile (882,064 us, 0.58%)</title><rect x="18.5" y="135" width="6.9" height="15.0" fill="rgb(0,0,0)" rx="2" ry="2" />
<text  x="21.55" y="145.5" ></text>
</g>
<g >
<title>ParLoopExecute (683,977 us, 0.45%)</title><rect x="1131.0" y="151" width="5.2" height="15.0" fill="rgb(0,0,0)" rx="2" ry="2" />
<text  x="1133.96" y="161.5" ></text>
</g>
<g >
<title>PCApply (83,787,511 us, 54.79%)</title><rect x="484.0" y="119" width="646.5" height="15.0" fill="rgb(0,0,0)" rx="2" ry="2" />
<text  x="486.97" y="129.5" >PCApply</text>
</g>
<g >
<title>Parloop_Cells_wrap_wrap_slate_loopy_knl_0 (11,050,186 us, 7.23%)</title><rect x="734.3" y="183" width="85.3" height="15.0" fill="rgb(0,0,0)" rx="2" ry="2" />
<text  x="737.29" y="193.5" >Parloop_C..</text>
</g>
<g >
<title>firedrake.functionspacedata.FunctionSpaceData.__init__ (18,591 us, 0.01%)</title><rect x="25.4" y="119" width="0.1" height="15.0" fill="rgb(0,0,0)" rx="2" ry="2" />
<text  x="28.36" y="129.5" ></text>
</g>
<g >
<title>Parloop_Cells_wrap_form00_cell_integral_otherwise (11,649,885 us, 7.62%)</title><rect x="204.0" y="135" width="89.9" height="15.0" fill="rgb(0,0,0)" rx="2" ry="2" />
<text  x="207.04" y="145.5" >Parloop_C..</text>
</g>
<g >
<title>pyop2.global_kernel.GlobalKernel.compile (2,220,136 us, 1.45%)</title><rect x="457.5" y="183" width="17.2" height="15.0" fill="rgb(0,0,0)" rx="2" ry="2" />
<text  x="460.52" y="193.5" ></text>
</g>
<g >
<title>pyop2.global_kernel.GlobalKernel.compile (3,131,918 us, 2.05%)</title><rect x="1136.2" y="151" width="24.2" height="15.0" fill="rgb(0,0,0)" rx="2" ry="2" />
<text  x="1139.24" y="161.5" >p..</text>
</g>
<g >
<title>SNESFunctionEval (6,967,025 us, 4.56%)</title><rect x="1136.2" y="103" width="53.8" height="15.0" fill="rgb(0,0,0)" rx="2" ry="2" />
<text  x="1139.24" y="113.5" >SNESF..</text>
</g>
<g >
<title>pyop2.global_kernel.GlobalKernel.compile (1,816,712 us, 1.19%)</title><rect x="173.1" y="135" width="14.1" height="15.0" fill="rgb(0,0,0)" rx="2" ry="2" />
<text  x="176.14" y="145.5" ></text>
</g>
<g >
<title>pyop2.global_kernel.GlobalKernel.compile (3,168,458 us, 2.07%)</title><rect x="433.1" y="183" width="24.4" height="15.0" fill="rgb(0,0,0)" rx="2" ry="2" />
<text  x="436.08" y="193.5" >p..</text>
</g>
<g >
<title>firedrake.assemble_expressions.evaluate_expression (802,161 us, 0.52%)</title><rect x="94.5" y="103" width="6.2" height="15.0" fill="rgb(0,0,0)" rx="2" ry="2" />
<text  x="97.53" y="113.5" ></text>
</g>
<g >
<title>pyop2.global_kernel.GlobalKernel.compile (1,195,715 us, 0.78%)</title><rect x="46.3" y="119" width="9.3" height="15.0" fill="rgb(0,0,0)" rx="2" ry="2" />
<text  x="49.34" y="129.5" ></text>
</g>
<g >
<title>firedrake.tsfc_interface.compile_form (1,128,109 us, 0.74%)</title><rect x="361.9" y="119" width="8.7" height="15.0" fill="rgb(0,0,0)" rx="2" ry="2" />
<text  x="364.86" y="129.5" ></text>
</g>
<g >
<title>pyop2.global_kernel.GlobalKernel.compile (882,066 us, 0.58%)</title><rect x="493.1" y="215" width="6.8" height="15.0" fill="rgb(0,0,0)" rx="2" ry="2" />
<text  x="496.11" y="225.5" ></text>
</g>
<g >
<title>firedrake.assemble.allocate_matrix (19,359 us, 0.01%)</title><rect x="361.7" y="119" width="0.2" height="15.0" fill="rgb(0,0,0)" rx="2" ry="2" />
<text  x="364.71" y="129.5" ></text>
</g>
<g >
<title>ParLoopExecute (11,050,186 us, 7.23%)</title><rect x="734.3" y="167" width="85.3" height="15.0" fill="rgb(0,0,0)" rx="2" ry="2" />
<text  x="737.29" y="177.5" >ParLoopEx..</text>
</g>
<g >
<title>RecoverFirstElim (16,521,182 us, 10.80%)</title><rect x="576.0" y="151" width="127.5" height="15.0" fill="rgb(0,0,0)" rx="2" ry="2" />
<text  x="579.01" y="161.5" >RecoverFirstElim</text>
</g>
<g >
<title>Parloop_Cells_wrap_form0_cell_integral_otherwise (3,131,918 us, 2.05%)</title><rect x="1136.2" y="135" width="24.2" height="15.0" fill="rgb(0,0,0)" rx="2" ry="2" />
<text  x="1139.24" y="145.5" >P..</text>
</g>
<g >
<title>Log_Event_subkernel10_interior_facet_vert_to__exterior_facet_vert_integral_otherwise (53,233 us, 0.03%)</title><rect x="846.3" y="231" width="0.5" height="15.0" fill="rgb(0,0,0)" rx="2" ry="2" />
<text  x="849.35" y="241.5" ></text>
</g>
</g>
</svg>
