<?xml version="1.0" standalone="no"?>
<!DOCTYPE svg PUBLIC "-//W3C//DTD SVG 1.1//EN" "http://www.w3.org/Graphics/SVG/1.1/DTD/svg11.dtd">
<svg version="1.1" width="1200" height="299" onload="init(evt)" viewBox="0 0 1200 299" xmlns="http://www.w3.org/2000/svg" xmlns:xlink="http://www.w3.org/1999/xlink">
<!-- Flame graph stack visualization. See https://github.com/brendangregg/FlameGraph for latest version, and http://www.brendangregg.com/flamegraphs.html for examples. -->
<!-- NOTES:  -->
<defs>
	<linearGradient id="background" y1="0" y2="1" x1="0" x2="0" >
		<stop stop-color="#eeeeee" offset="5%" />
		<stop stop-color="#eeeeb0" offset="95%" />
	</linearGradient>
</defs>
<style type="text/css">
	text { font-family:Verdana; font-size:13px; fill:rgb(0,0,0); }
	#search, #ignorecase { opacity:0.1; cursor:pointer; }
	#search:hover, #search.show, #ignorecase:hover, #ignorecase.show { opacity:1; }
	#subtitle { text-anchor:middle; font-color:rgb(160,160,160); }
	#title { text-anchor:middle; font-size:18px}
	#unzoom { cursor:pointer; }
	#frames > *:hover { stroke:black; stroke-width:0.5; cursor:pointer; }
	.hide { display:none; }
	.parent { opacity:0.5; }
</style>
<script type="text/ecmascript">
<![CDATA[
	"use strict";
	var details, searchbtn, unzoombtn, matchedtxt, svg, searching, currentSearchTerm, ignorecase, ignorecaseBtn;
	function init(evt) {
		details = document.getElementById("details").firstChild;
		searchbtn = document.getElementById("search");
		ignorecaseBtn = document.getElementById("ignorecase");
		unzoombtn = document.getElementById("unzoom");
		matchedtxt = document.getElementById("matched");
		svg = document.getElementsByTagName("svg")[0];
		searching = 0;
		currentSearchTerm = null;

		// use GET parameters to restore a flamegraphs state.
		var params = get_params();
		if (params.x && params.y)
			zoom(find_group(document.querySelector('[x="' + params.x + '"][y="' + params.y + '"]')));
                if (params.s) search(params.s);
	}

	// event listeners
	window.addEventListener("click", function(e) {
		var target = find_group(e.target);
		if (target) {
			if (target.nodeName == "a") {
				if (e.ctrlKey === false) return;
				e.preventDefault();
			}
			if (target.classList.contains("parent")) unzoom();
			zoom(target);
			if (!document.querySelector('.parent')) {
				clearzoom();
				return;
			}

			// set parameters for zoom state
			var el = target.querySelector("rect");
			if (el && el.attributes && el.attributes.y && el.attributes._orig_x) {
				var params = get_params()
				params.x = el.attributes._orig_x.value;
				params.y = el.attributes.y.value;
				history.replaceState(null, null, parse_params(params));
			}
		}
		else if (e.target.id == "unzoom") clearzoom();
		else if (e.target.id == "search") search_prompt();
		else if (e.target.id == "ignorecase") toggle_ignorecase();
	}, false)

	// mouse-over for info
	// show
	window.addEventListener("mouseover", function(e) {
		var target = find_group(e.target);
		if (target) details.nodeValue = "Function: " + g_to_text(target);
	}, false)

	// clear
	window.addEventListener("mouseout", function(e) {
		var target = find_group(e.target);
		if (target) details.nodeValue = ' ';
	}, false)

	// ctrl-F for search
	// ctrl-I to toggle case-sensitive search
	window.addEventListener("keydown",function (e) {
		if (e.keyCode === 114 || (e.ctrlKey && e.keyCode === 70)) {
			e.preventDefault();
			search_prompt();
		}
		else if (e.ctrlKey && e.keyCode === 73) {
			e.preventDefault();
			toggle_ignorecase();
		}
	}, false)

	// functions
	function get_params() {
		var params = {};
		var paramsarr = window.location.search.substr(1).split('&');
		for (var i = 0; i < paramsarr.length; ++i) {
			var tmp = paramsarr[i].split("=");
			if (!tmp[0] || !tmp[1]) continue;
			params[tmp[0]]  = decodeURIComponent(tmp[1]);
		}
		return params;
	}
	function parse_params(params) {
		var uri = "?";
		for (var key in params) {
			uri += key + '=' + encodeURIComponent(params[key]) + '&';
		}
		if (uri.slice(-1) == "&")
			uri = uri.substring(0, uri.length - 1);
		if (uri == '?')
			uri = window.location.href.split('?')[0];
		return uri;
	}
	function find_child(node, selector) {
		var children = node.querySelectorAll(selector);
		if (children.length) return children[0];
	}
	function find_group(node) {
		var parent = node.parentElement;
		if (!parent) return;
		if (parent.id == "frames") return node;
		return find_group(parent);
	}
	function orig_save(e, attr, val) {
		if (e.attributes["_orig_" + attr] != undefined) return;
		if (e.attributes[attr] == undefined) return;
		if (val == undefined) val = e.attributes[attr].value;
		e.setAttribute("_orig_" + attr, val);
	}
	function orig_load(e, attr) {
		if (e.attributes["_orig_"+attr] == undefined) return;
		e.attributes[attr].value = e.attributes["_orig_" + attr].value;
		e.removeAttribute("_orig_"+attr);
	}
	function g_to_text(e) {
		var text = find_child(e, "title").firstChild.nodeValue;
		return (text)
	}
	function g_to_func(e) {
		var func = g_to_text(e);
		// if there's any manipulation we want to do to the function
		// name before it's searched, do it here before returning.
		return (func);
	}
	function update_text(e) {
		var r = find_child(e, "rect");
		var t = find_child(e, "text");
		var w = parseFloat(r.attributes.width.value) -3;
		var txt = find_child(e, "title").textContent.replace(/\([^(]*\)$/,"");
		t.attributes.x.value = parseFloat(r.attributes.x.value) + 3;

		// Smaller than this size won't fit anything
		if (w < 2 * 13 * 0.59) {
			t.textContent = "";
			return;
		}

		t.textContent = txt;
		// Fit in full text width
		if (/^ *$/.test(txt) || t.getSubStringLength(0, txt.length) < w)
			return;

		for (var x = txt.length - 2; x > 0; x--) {
			if (t.getSubStringLength(0, x + 2) <= w) {
				t.textContent = txt.substring(0, x) + "..";
				return;
			}
		}
		t.textContent = "";
	}

	// zoom
	function zoom_reset(e) {
		if (e.attributes != undefined) {
			orig_load(e, "x");
			orig_load(e, "width");
		}
		if (e.childNodes == undefined) return;
		for (var i = 0, c = e.childNodes; i < c.length; i++) {
			zoom_reset(c[i]);
		}
	}
	function zoom_child(e, x, ratio) {
		if (e.attributes != undefined) {
			if (e.attributes.x != undefined) {
				orig_save(e, "x");
				e.attributes.x.value = (parseFloat(e.attributes.x.value) - x - 10) * ratio + 10;
				if (e.tagName == "text")
					e.attributes.x.value = find_child(e.parentNode, "rect[x]").attributes.x.value + 3;
			}
			if (e.attributes.width != undefined) {
				orig_save(e, "width");
				e.attributes.width.value = parseFloat(e.attributes.width.value) * ratio;
			}
		}

		if (e.childNodes == undefined) return;
		for (var i = 0, c = e.childNodes; i < c.length; i++) {
			zoom_child(c[i], x - 10, ratio);
		}
	}
	function zoom_parent(e) {
		if (e.attributes) {
			if (e.attributes.x != undefined) {
				orig_save(e, "x");
				e.attributes.x.value = 10;
			}
			if (e.attributes.width != undefined) {
				orig_save(e, "width");
				e.attributes.width.value = parseInt(svg.width.baseVal.value) - (10 * 2);
			}
		}
		if (e.childNodes == undefined) return;
		for (var i = 0, c = e.childNodes; i < c.length; i++) {
			zoom_parent(c[i]);
		}
	}
	function zoom(node) {
		var attr = find_child(node, "rect").attributes;
		var width = parseFloat(attr.width.value);
		var xmin = parseFloat(attr.x.value);
		var xmax = parseFloat(xmin + width);
		var ymin = parseFloat(attr.y.value);
		var ratio = (svg.width.baseVal.value - 2 * 10) / width;

		// XXX: Workaround for JavaScript float issues (fix me)
		var fudge = 0.0001;

		unzoombtn.classList.remove("hide");

		var el = document.getElementById("frames").children;
		for (var i = 0; i < el.length; i++) {
			var e = el[i];
			var a = find_child(e, "rect").attributes;
			var ex = parseFloat(a.x.value);
			var ew = parseFloat(a.width.value);
			var upstack;
			// Is it an ancestor
			if (1 == 0) {
				upstack = parseFloat(a.y.value) > ymin;
			} else {
				upstack = parseFloat(a.y.value) < ymin;
			}
			if (upstack) {
				// Direct ancestor
				if (ex <= xmin && (ex+ew+fudge) >= xmax) {
					e.classList.add("parent");
					zoom_parent(e);
					update_text(e);
				}
				// not in current path
				else
					e.classList.add("hide");
			}
			// Children maybe
			else {
				// no common path
				if (ex < xmin || ex + fudge >= xmax) {
					e.classList.add("hide");
				}
				else {
					zoom_child(e, xmin, ratio);
					update_text(e);
				}
			}
		}
		search();
	}
	function unzoom() {
		unzoombtn.classList.add("hide");
		var el = document.getElementById("frames").children;
		for(var i = 0; i < el.length; i++) {
			el[i].classList.remove("parent");
			el[i].classList.remove("hide");
			zoom_reset(el[i]);
			update_text(el[i]);
		}
		search();
	}
	function clearzoom() {
		unzoom();

		// remove zoom state
		var params = get_params();
		if (params.x) delete params.x;
		if (params.y) delete params.y;
		history.replaceState(null, null, parse_params(params));
	}

	// search
	function toggle_ignorecase() {
		ignorecase = !ignorecase;
		if (ignorecase) {
			ignorecaseBtn.classList.add("show");
		} else {
			ignorecaseBtn.classList.remove("show");
		}
		reset_search();
		search();
	}
	function reset_search() {
		var el = document.querySelectorAll("#frames rect");
		for (var i = 0; i < el.length; i++) {
			orig_load(el[i], "fill")
		}
		var params = get_params();
		delete params.s;
		history.replaceState(null, null, parse_params(params));
	}
	function search_prompt() {
		if (!searching) {
			var term = prompt("Enter a search term (regexp " +
			    "allowed, eg: ^ext4_)"
			    + (ignorecase ? ", ignoring case" : "")
			    + "\nPress Ctrl-i to toggle case sensitivity", "");
			if (term != null) search(term);
		} else {
			reset_search();
			searching = 0;
			currentSearchTerm = null;
			searchbtn.classList.remove("show");
			searchbtn.firstChild.nodeValue = "Search"
			matchedtxt.classList.add("hide");
			matchedtxt.firstChild.nodeValue = ""
		}
	}
	function search(term) {
		if (term) currentSearchTerm = term;

		var re = new RegExp(currentSearchTerm, ignorecase ? 'i' : '');
		var el = document.getElementById("frames").children;
		var matches = new Object();
		var maxwidth = 0;
		for (var i = 0; i < el.length; i++) {
			var e = el[i];
			var func = g_to_func(e);
			var rect = find_child(e, "rect");
			if (func == null || rect == null)
				continue;

			// Save max width. Only works as we have a root frame
			var w = parseFloat(rect.attributes.width.value);
			if (w > maxwidth)
				maxwidth = w;

			if (func.match(re)) {
				// highlight
				var x = parseFloat(rect.attributes.x.value);
				orig_save(rect, "fill");
				rect.attributes.fill.value = "rgb(230,0,230)";

				// remember matches
				if (matches[x] == undefined) {
					matches[x] = w;
				} else {
					if (w > matches[x]) {
						// overwrite with parent
						matches[x] = w;
					}
				}
				searching = 1;
			}
		}
		if (!searching)
			return;
		var params = get_params();
		params.s = currentSearchTerm;
		history.replaceState(null, null, parse_params(params));

		searchbtn.classList.add("show");
		searchbtn.firstChild.nodeValue = "Reset Search";

		// calculate percent matched, excluding vertical overlap
		var count = 0;
		var lastx = -1;
		var lastw = 0;
		var keys = Array();
		for (k in matches) {
			if (matches.hasOwnProperty(k))
				keys.push(k);
		}
		// sort the matched frames by their x location
		// ascending, then width descending
		keys.sort(function(a, b){
			return a - b;
		});
		// Step through frames saving only the biggest bottom-up frames
		// thanks to the sort order. This relies on the tree property
		// where children are always smaller than their parents.
		var fudge = 0.0001;	// JavaScript floating point
		for (var k in keys) {
			var x = parseFloat(keys[k]);
			var w = matches[keys[k]];
			if (x >= lastx + lastw - fudge) {
				count += w;
				lastx = x;
				lastw = w;
			}
		}
		// display matched percent
		matchedtxt.classList.remove("hide");
		var pct = 100 * count / maxwidth;
		if (pct != 100) pct = pct.toFixed(1)
		matchedtxt.firstChild.nodeValue = "Matched: " + pct + "%";
	}
]]>
</script>
<rect x="0.0" y="0" width="1200.0" height="299.0" fill="url(#background)"  />
<text id="title" x="600.00" y="26" >Firedrake example</text>
<text id="details" x="10.00" y="281" > </text>
<text id="unzoom" x="10.00" y="26" class="hide">Reset Zoom</text>
<text id="search" x="1090.00" y="26" >Search</text>
<text id="ignorecase" x="1174.00" y="26" >ic</text>
<text id="matched" x="1090.00" y="281" > </text>
<g id="frames">
<g >
<title>CreateFunctionSpace (6,319 us, 0.16%)</title><rect x="350.5" y="103" width="1.9" height="15.0" fill="rgb(0,0,0)" rx="2" ry="2" />
<text  x="353.55" y="113.5" ></text>
</g>
<g >
<title>Log_Event_mtf_solve_51 (4,975 us, 0.12%)</title><rect x="1098.5" y="247" width="1.5" height="15.0" fill="rgb(0,0,0)" rx="2" ry="2" />
<text  x="1101.55" y="257.5" ></text>
</g>
<g >
<title>Parloop_Cells_wrap_form0_cell_integral_otherwise (34,134 us, 0.84%)</title><rect x="813.8" y="167" width="9.9" height="15.0" fill="rgb(0,0,0)" rx="2" ry="2" />
<text  x="816.76" y="177.5" ></text>
</g>
<g >
<title>Log_Event_subkernel47_cell_to__cell_integral_otherwise (2,288 us, 0.06%)</title><rect x="1097.9" y="247" width="0.6" height="15.0" fill="rgb(0,0,0)" rx="2" ry="2" />
<text  x="1100.88" y="257.5" ></text>
</g>
<g >
<title>KSPSolve (1,199,788 us, 29.66%)</title><rect x="812.7" y="103" width="350.0" height="15.0" fill="rgb(0,0,0)" rx="2" ry="2" />
<text  x="815.65" y="113.5" >KSPSolve</text>
</g>
<g >
<title>MatMult (97,706 us, 2.42%)</title><rect x="812.7" y="119" width="28.5" height="15.0" fill="rgb(0,0,0)" rx="2" ry="2" />
<text  x="815.65" y="129.5" >M..</text>
</g>
<g >
<title>Log_Event_tensorshell_knl_12 (10,236 us, 0.25%)</title><rect x="1086.7" y="231" width="3.0" height="15.0" fill="rgb(0,0,0)" rx="2" ry="2" />
<text  x="1089.75" y="241.5" ></text>
</g>
<g >
<title>pyop2.global_kernel.GlobalKernel.compile (36,902 us, 0.91%)</title><rect x="339.8" y="135" width="10.7" height="15.0" fill="rgb(0,0,0)" rx="2" ry="2" />
<text  x="342.78" y="145.5" ></text>
</g>
<g >
<title>Log_Event_mtf_solve_31 (4,858 us, 0.12%)</title><rect x="1094.1" y="215" width="1.4" height="15.0" fill="rgb(0,0,0)" rx="2" ry="2" />
<text  x="1097.13" y="225.5" ></text>
</g>
<g >
<title>Log_Event_subkernel68_interior_facet_vert_to__exterior_facet_vert_integral_otherwise (3,542 us, 0.09%)</title><rect x="1107.4" y="215" width="1.0" height="15.0" fill="rgb(0,0,0)" rx="2" ry="2" />
<text  x="1110.41" y="225.5" ></text>
</g>
<g >
<title>firedrake.interpolation.make_interpolator (27,692 us, 0.68%)</title><rect x="1149.6" y="167" width="8.0" height="15.0" fill="rgb(0,0,0)" rx="2" ry="2" />
<text  x="1152.56" y="177.5" ></text>
</g>
<g >
<title>firedrake.matrix_free.operators.ImplicitMatrixContext.__init__ (7,402 us, 0.18%)</title><rect x="809.7" y="103" width="2.2" height="15.0" fill="rgb(0,0,0)" rx="2" ry="2" />
<text  x="812.71" y="113.5" ></text>
</g>
<g >
<title>HybridInit (93,597 us, 2.31%)</title><rect x="1162.7" y="119" width="27.3" height="15.0" fill="rgb(0,0,0)" rx="2" ry="2" />
<text  x="1165.69" y="129.5" >H..</text>
</g>
<g >
<title>Log_Event_subkernel20_cell_to__cell_integral_otherwise (2,063 us, 0.05%)</title><rect x="1089.1" y="247" width="0.6" height="15.0" fill="rgb(0,0,0)" rx="2" ry="2" />
<text  x="1092.13" y="257.5" ></text>
</g>
<g >
<title>firedrake.formmanipulation.split_form (1,925 us, 0.05%)</title><rect x="840.6" y="167" width="0.6" height="15.0" fill="rgb(0,0,0)" rx="2" ry="2" />
<text  x="843.60" y="177.5" ></text>
</g>
<g >
<title>Log_Event_subkernel10_cell_to__cell_integral_otherwise (2,309 us, 0.06%)</title><rect x="1091.2" y="247" width="0.7" height="15.0" fill="rgb(0,0,0)" rx="2" ry="2" />
<text  x="1094.24" y="257.5" ></text>
</g>
<g >
<title>firedrake.utility_meshes.RectangleMesh (1,902 us, 0.05%)</title><rect x="804.2" y="87" width="0.5" height="15.0" fill="rgb(0,0,0)" rx="2" ry="2" />
<text  x="807.19" y="97.5" ></text>
</g>
<g >
<title>ParLoopExecute (31,827 us, 0.79%)</title><rect x="1180.0" y="151" width="9.3" height="15.0" fill="rgb(0,0,0)" rx="2" ry="2" />
<text  x="1183.04" y="161.5" ></text>
</g>
<g >
<title>ParLoopExecute (67,755 us, 1.68%)</title><rect x="813.8" y="151" width="19.7" height="15.0" fill="rgb(0,0,0)" rx="2" ry="2" />
<text  x="816.76" y="161.5" ></text>
</g>
<g >
<title>firedrake.ufl_expr.action (1,947 us, 0.05%)</title><rect x="1162.1" y="167" width="0.6" height="15.0" fill="rgb(0,0,0)" rx="2" ry="2" />
<text  x="1165.13" y="177.5" ></text>
</g>
<g >
<title>Parloop_Cells_wrap_par_loop_kernel (32,510 us, 0.80%)</title><rect x="842.9" y="199" width="9.5" height="15.0" fill="rgb(0,0,0)" rx="2" ry="2" />
<text  x="845.87" y="209.5" ></text>
</g>
<g >
<title>Log_Event_subkernel13_cell_to__cell_integral_otherwise (2,984 us, 0.07%)</title><rect x="1088.3" y="247" width="0.8" height="15.0" fill="rgb(0,0,0)" rx="2" ry="2" />
<text  x="1091.26" y="257.5" ></text>
</g>
<g >
<title>firedrake.functionspacedata.get_shared_data (4,688 us, 0.12%)</title><rect x="1169.0" y="167" width="1.4" height="15.0" fill="rgb(0,0,0)" rx="2" ry="2" />
<text  x="1172.05" y="177.5" ></text>
</g>
<g >
<title>HybridRHS (915,723 us, 22.64%)</title><rect x="852.4" y="151" width="267.1" height="15.0" fill="rgb(0,0,0)" rx="2" ry="2" />
<text  x="855.36" y="161.5" >HybridRHS</text>
</g>
<g >
<title>firedrake.tsfc_interface.compile_form (15,370 us, 0.38%)</title><rect x="1157.6" y="167" width="4.5" height="15.0" fill="rgb(0,0,0)" rx="2" ry="2" />
<text  x="1160.64" y="177.5" ></text>
</g>
<g >
<title>Log_Event_subkernel30_interior_facet_vert_to__exterior_facet_vert_integral_otherwise (3,516 us, 0.09%)</title><rect x="1103.8" y="215" width="1.0" height="15.0" fill="rgb(0,0,0)" rx="2" ry="2" />
<text  x="1106.82" y="225.5" ></text>
</g>
<g >
<title>firedrake.formmanipulation.ExtractSubBlock.split (1,925 us, 0.05%)</title><rect x="840.6" y="183" width="0.6" height="15.0" fill="rgb(0,0,0)" rx="2" ry="2" />
<text  x="843.60" y="193.5" ></text>
</g>
<g >
<title>MatZeroInitial (1,942 us, 0.05%)</title><rect x="1149.0" y="183" width="0.6" height="15.0" fill="rgb(0,0,0)" rx="2" ry="2" />
<text  x="1152.00" y="193.5" ></text>
</g>
<g >
<title>pyop2.global_kernel.GlobalKernel.compile (31,827 us, 0.79%)</title><rect x="1180.0" y="183" width="9.3" height="15.0" fill="rgb(0,0,0)" rx="2" ry="2" />
<text  x="1183.04" y="193.5" ></text>
</g>
<g >
<title>PCApply (1,102,082 us, 27.25%)</title><rect x="841.2" y="119" width="321.5" height="15.0" fill="rgb(0,0,0)" rx="2" ry="2" />
<text  x="844.16" y="129.5" >PCApply</text>
</g>
<g >
<title>SNESSolve (1,296,081 us, 32.05%)</title><rect x="811.9" y="87" width="378.1" height="15.0" fill="rgb(0,0,0)" rx="2" ry="2" />
<text  x="814.87" y="97.5" >SNESSolve</text>
</g>
<g >
<title>firedrake.formmanipulation.ExtractSubBlock.split (12,274 us, 0.30%)</title><rect x="1170.4" y="151" width="3.6" height="15.0" fill="rgb(0,0,0)" rx="2" ry="2" />
<text  x="1173.41" y="161.5" ></text>
</g>
<g >
<title>ParLoopExecute (70,063 us, 1.73%)</title><rect x="1126.6" y="167" width="20.5" height="15.0" fill="rgb(0,0,0)" rx="2" ry="2" />
<text  x="1129.65" y="177.5" ></text>
</g>
<g >
<title>Parloop_Cells_wrap_slate_loopy_knl_0 (120,366 us, 2.98%)</title><rect x="1084.4" y="183" width="35.1" height="15.0" fill="rgb(0,0,0)" rx="2" ry="2" />
<text  x="1087.40" y="193.5" >Pa..</text>
</g>
<g >
<title>firedrake.formmanipulation.split_form (12,274 us, 0.30%)</title><rect x="1170.4" y="135" width="3.6" height="15.0" fill="rgb(0,0,0)" rx="2" ry="2" />
<text  x="1173.41" y="145.5" ></text>
</g>
<g >
<title>firedrake.ufl_expr.adjoint (2,318 us, 0.06%)</title><rect x="1189.3" y="135" width="0.7" height="15.0" fill="rgb(0,0,0)" rx="2" ry="2" />
<text  x="1192.32" y="145.5" ></text>
</g>
<g >
<title>Parloop_Cells_wrap_form1_cell_integral_otherwise (33,621 us, 0.83%)</title><rect x="823.7" y="167" width="9.8" height="15.0" fill="rgb(0,0,0)" rx="2" ry="2" />
<text  x="826.72" y="177.5" ></text>
</g>
<g >
<title>SCForwardElim (954,097 us, 23.59%)</title><rect x="841.2" y="135" width="278.3" height="15.0" fill="rgb(0,0,0)" rx="2" ry="2" />
<text  x="844.16" y="145.5" >SCForwardElim</text>
</g>
<g >
<title>pyop2.global_kernel.GlobalKernel.compile (35,795 us, 0.89%)</title><rect x="1136.6" y="199" width="10.5" height="15.0" fill="rgb(0,0,0)" rx="2" ry="2" />
<text  x="1139.65" y="209.5" ></text>
</g>
<g >
<title>Log_Event_subkernel3_cell_to__cell_integral_otherwise (2,993 us, 0.07%)</title><rect x="1091.9" y="247" width="0.9" height="15.0" fill="rgb(0,0,0)" rx="2" ry="2" />
<text  x="1094.92" y="257.5" ></text>
</g>
<g >
<title>Log_Event_form00_cell_integral_otherwise (2,105 us, 0.05%)</title><rect x="1136.0" y="199" width="0.6" height="15.0" fill="rgb(0,0,0)" rx="2" ry="2" />
<text  x="1139.03" y="209.5" ></text>
</g>
<g >
<title>firedrake.functionspacedata.FunctionSpaceData.__init__ (6,319 us, 0.16%)</title><rect x="350.5" y="151" width="1.9" height="15.0" fill="rgb(0,0,0)" rx="2" ry="2" />
<text  x="353.55" y="161.5" ></text>
</g>
<g >
<title>CreateMesh (2,118 us, 0.05%)</title><rect x="357.9" y="71" width="0.6" height="15.0" fill="rgb(0,0,0)" rx="2" ry="2" />
<text  x="360.85" y="81.5" ></text>
</g>
<g >
<title>firedrake.ufl_expr.adjoint (11,855 us, 0.29%)</title><rect x="806.3" y="103" width="3.4" height="15.0" fill="rgb(0,0,0)" rx="2" ry="2" />
<text  x="809.25" y="113.5" ></text>
</g>
<g >
<title>firedrake.tsfc_interface.compile_form (26,164 us, 0.65%)</title><rect x="833.5" y="151" width="7.7" height="15.0" fill="rgb(0,0,0)" rx="2" ry="2" />
<text  x="836.53" y="161.5" ></text>
</g>
<g >
<title>firedrake.ufl_expr.action (4,230 us, 0.10%)</title><rect x="809.7" y="119" width="1.2" height="15.0" fill="rgb(0,0,0)" rx="2" ry="2" />
<text  x="812.71" y="129.5" ></text>
</g>
<g >
<title>all (4,044,558 us, 100%)</title><rect x="10.0" y="39" width="1180.0" height="15.0" fill="rgb(0,0,0)" rx="2" ry="2" />
<text  x="13.00" y="49.5" ></text>
</g>
<g >
<title>firedrake.variational_solver.LinearVariationalProblem.__init__ (17,027 us, 0.42%)</title><rect x="804.7" y="71" width="5.0" height="15.0" fill="rgb(0,0,0)" rx="2" ry="2" />
<text  x="807.74" y="81.5" ></text>
</g>
<g >
<title>ParLoopExecute (36,902 us, 0.91%)</title><rect x="339.8" y="103" width="10.7" height="15.0" fill="rgb(0,0,0)" rx="2" ry="2" />
<text  x="342.78" y="113.5" ></text>
</g>
<g >
<title>firedrake.formmanipulation.ExtractSubBlock.argument (8,665 us, 0.21%)</title><rect x="1171.5" y="167" width="2.5" height="15.0" fill="rgb(0,0,0)" rx="2" ry="2" />
<text  x="1174.47" y="177.5" ></text>
</g>
<g >
<title>firedrake.matrix_free.operators.ImplicitMatrixContext.mult (18,364 us, 0.45%)</title><rect x="1119.5" y="183" width="5.4" height="15.0" fill="rgb(0,0,0)" rx="2" ry="2" />
<text  x="1122.52" y="193.5" ></text>
</g>
<g >
<title>Parloop_Cells_wrap_pyop2_kernel_uniform_extrusion (36,902 us, 0.91%)</title><rect x="339.8" y="119" width="10.7" height="15.0" fill="rgb(0,0,0)" rx="2" ry="2" />
<text  x="342.78" y="129.5" ></text>
</g>
<g >
<title>pyop2.global_kernel.GlobalKernel.compile (31,550 us, 0.78%)</title><rect x="814.5" y="183" width="9.2" height="15.0" fill="rgb(0,0,0)" rx="2" ry="2" />
<text  x="817.51" y="193.5" ></text>
</g>
<g >
<title>SCSolve (147,985 us, 3.66%)</title><rect x="1119.5" y="135" width="43.2" height="15.0" fill="rgb(0,0,0)" rx="2" ry="2" />
<text  x="1122.52" y="145.5" >SCS..</text>
</g>
<g >
<title>Log_Event_slate_loopy_knl_0 (82,413 us, 2.04%)</title><rect x="1084.4" y="199" width="24.0" height="15.0" fill="rgb(0,0,0)" rx="2" ry="2" />
<text  x="1087.40" y="209.5" >L..</text>
</g>
<g >
<title>ParLoopExecute (120,366 us, 2.98%)</title><rect x="1084.4" y="167" width="35.1" height="15.0" fill="rgb(0,0,0)" rx="2" ry="2" />
<text  x="1087.40" y="177.5" >Pa..</text>
</g>
<g >
<title>CreateFunctionSpace (5,998 us, 0.15%)</title><rect x="1172.2" y="183" width="1.8" height="15.0" fill="rgb(0,0,0)" rx="2" ry="2" />
<text  x="1175.24" y="193.5" ></text>
</g>
<g >
<title>CreateSparsity (6,528 us, 0.16%)</title><rect x="1147.1" y="183" width="1.9" height="15.0" fill="rgb(0,0,0)" rx="2" ry="2" />
<text  x="1150.09" y="193.5" ></text>
</g>
<g >
<title>Parloop_Cells_wrap_slate_loopy_knl_70 (3,704 us, 0.09%)</title><rect x="1123.8" y="215" width="1.1" height="15.0" fill="rgb(0,0,0)" rx="2" ry="2" />
<text  x="1126.80" y="225.5" ></text>
</g>
<g >
<title>Log_Event_subkernel40_cell_to__cell_integral_otherwise (3,051 us, 0.08%)</title><rect x="1097.0" y="247" width="0.9" height="15.0" fill="rgb(0,0,0)" rx="2" ry="2" />
<text  x="1099.99" y="257.5" ></text>
</g>
<g >
<title>ParLoopExecute (3,704 us, 0.09%)</title><rect x="1123.8" y="199" width="1.1" height="15.0" fill="rgb(0,0,0)" rx="2" ry="2" />
<text  x="1126.80" y="209.5" ></text>
</g>
<g >
<title>Log_Event_mtf_solve_38 (20,488 us, 0.51%)</title><rect x="1095.5" y="215" width="6.0" height="15.0" fill="rgb(0,0,0)" rx="2" ry="2" />
<text  x="1098.55" y="225.5" ></text>
</g>
<g >
<title>firedrake.functionspacedata.FunctionSpaceData.__init__ (4,688 us, 0.12%)</title><rect x="1169.0" y="183" width="1.4" height="15.0" fill="rgb(0,0,0)" rx="2" ry="2" />
<text  x="1172.05" y="193.5" ></text>
</g>
<g >
<title>firedrake.functionspaceimpl.FunctionSpace.__init__ (4,688 us, 0.12%)</title><rect x="1169.0" y="151" width="1.4" height="15.0" fill="rgb(0,0,0)" rx="2" ry="2" />
<text  x="1172.05" y="161.5" ></text>
</g>
<g >
<title>Log_Event_mtf_solve_41 (4,956 us, 0.12%)</title><rect x="1095.5" y="247" width="1.5" height="15.0" fill="rgb(0,0,0)" rx="2" ry="2" />
<text  x="1098.55" y="257.5" ></text>
</g>
<g >
<title>PCSetUp (129,621 us, 3.20%)</title><rect x="1124.9" y="151" width="37.8" height="15.0" fill="rgb(0,0,0)" rx="2" ry="2" />
<text  x="1127.88" y="161.5" >PC..</text>
</g>
<g >
<title>firedrake.parloops.par_loop (36,697 us, 0.91%)</title><rect x="1178.6" y="135" width="10.7" height="15.0" fill="rgb(0,0,0)" rx="2" ry="2" />
<text  x="1181.62" y="145.5" ></text>
</g>
<g >
<title>firedrake.functionspaceimpl.FunctionSpace.__init__ (18,725 us, 0.46%)</title><rect x="352.4" y="87" width="5.5" height="15.0" fill="rgb(0,0,0)" rx="2" ry="2" />
<text  x="355.39" y="97.5" ></text>
</g>
<g >
<title>Log_Event_tensorshell_knl_39 (10,295 us, 0.25%)</title><rect x="1095.5" y="231" width="3.0" height="15.0" fill="rgb(0,0,0)" rx="2" ry="2" />
<text  x="1098.55" y="241.5" ></text>
</g>
<g >
<title>Log_Event_tensorshell_knl_49 (10,193 us, 0.25%)</title><rect x="1098.5" y="231" width="3.0" height="15.0" fill="rgb(0,0,0)" rx="2" ry="2" />
<text  x="1101.55" y="241.5" ></text>
</g>
<g >
<title>MatMult (18,364 us, 0.45%)</title><rect x="1119.5" y="167" width="5.4" height="15.0" fill="rgb(0,0,0)" rx="2" ry="2" />
<text  x="1122.52" y="177.5" ></text>
</g>
<g >
<title>Parloop_Cells_wrap_expression_kernel (32,163 us, 0.80%)</title><rect x="1126.6" y="183" width="9.4" height="15.0" fill="rgb(0,0,0)" rx="2" ry="2" />
<text  x="1129.65" y="193.5" ></text>
</g>
<g >
<title>firedrake.functionspacedata.get_shared_data (6,319 us, 0.16%)</title><rect x="350.5" y="135" width="1.9" height="15.0" fill="rgb(0,0,0)" rx="2" ry="2" />
<text  x="353.55" y="145.5" ></text>
</g>
<g >
<title>Log_Event_mtf_solve_24 (4,585 us, 0.11%)</title><rect x="1092.8" y="215" width="1.3" height="15.0" fill="rgb(0,0,0)" rx="2" ry="2" />
<text  x="1095.79" y="225.5" ></text>
</g>
<g >
<title>firedrake.ufl_expr.adjoint (3,172 us, 0.08%)</title><rect x="810.9" y="119" width="1.0" height="15.0" fill="rgb(0,0,0)" rx="2" ry="2" />
<text  x="813.94" y="129.5" ></text>
</g>
<g >
<title>CreateFunctionSpace (7,030 us, 0.17%)</title><rect x="1168.4" y="135" width="2.0" height="15.0" fill="rgb(0,0,0)" rx="2" ry="2" />
<text  x="1171.36" y="145.5" ></text>
</g>
<g >
<title>Log_Event_mtf_solve_61 (4,979 us, 0.12%)</title><rect x="1101.5" y="215" width="1.5" height="15.0" fill="rgb(0,0,0)" rx="2" ry="2" />
<text  x="1104.52" y="225.5" ></text>
</g>
<g >
<title>ParLoopExecute (32,510 us, 0.80%)</title><rect x="842.9" y="183" width="9.5" height="15.0" fill="rgb(0,0,0)" rx="2" ry="2" />
<text  x="845.87" y="193.5" ></text>
</g>
<g >
<title>firedrake.variational_solver.NonlinearVariationalSolver.__init__ (7,402 us, 0.18%)</title><rect x="809.7" y="71" width="2.2" height="15.0" fill="rgb(0,0,0)" rx="2" ry="2" />
<text  x="812.71" y="81.5" ></text>
</g>
<g >
<title>firedrake.variational_solver.NonlinearVariationalSolver.solve (1,296,081 us, 32.05%)</title><rect x="811.9" y="71" width="378.1" height="15.0" fill="rgb(0,0,0)" rx="2" ry="2" />
<text  x="814.87" y="81.5" >firedrake.variational_solver.NonlinearVariation..</text>
</g>
<g >
<title>Log_Event_subkernel50_cell_to__cell_integral_otherwise (2,984 us, 0.07%)</title><rect x="1100.0" y="247" width="0.9" height="15.0" fill="rgb(0,0,0)" rx="2" ry="2" />
<text  x="1103.00" y="257.5" ></text>
</g>
<g >
<title>firedrake (4,044,558 us, 100.00%)</title><rect x="10.0" y="55" width="1180.0" height="15.0" fill="rgb(0,0,0)" rx="2" ry="2" />
<text  x="13.00" y="65.5" >firedrake</text>
</g>
<g >
<title>Parloop_Cells_wrap_form00_cell_integral_otherwise (37,900 us, 0.94%)</title><rect x="1136.0" y="183" width="11.1" height="15.0" fill="rgb(0,0,0)" rx="2" ry="2" />
<text  x="1139.03" y="193.5" ></text>
</g>
<g >
<title>Log_Event_subkernel37_cell_to__cell_integral_otherwise (2,305 us, 0.06%)</title><rect x="1104.8" y="215" width="0.7" height="15.0" fill="rgb(0,0,0)" rx="2" ry="2" />
<text  x="1107.85" y="225.5" ></text>
</g>
<g >
<title>CreateExtMesh (74,178 us, 1.83%)</title><rect x="330.8" y="71" width="21.6" height="15.0" fill="rgb(0,0,0)" rx="2" ry="2" />
<text  x="333.75" y="81.5" ></text>
</g>
<g >
<title>CreateFunctionSpace (18,725 us, 0.46%)</title><rect x="352.4" y="71" width="5.5" height="15.0" fill="rgb(0,0,0)" rx="2" ry="2" />
<text  x="355.39" y="81.5" ></text>
</g>
<g >
<title>Log_Event_tensorshell_knl_2 (10,475 us, 0.26%)</title><rect x="1089.7" y="231" width="3.1" height="15.0" fill="rgb(0,0,0)" rx="2" ry="2" />
<text  x="1092.73" y="241.5" ></text>
</g>
<g >
<title>pyop2.global_kernel.GlobalKernel.compile (37,953 us, 0.94%)</title><rect x="1108.4" y="199" width="11.1" height="15.0" fill="rgb(0,0,0)" rx="2" ry="2" />
<text  x="1111.45" y="209.5" ></text>
</g>
<g >
<title>firedrake.functionspace.VectorFunctionSpace (6,319 us, 0.16%)</title><rect x="350.5" y="87" width="1.9" height="15.0" fill="rgb(0,0,0)" rx="2" ry="2" />
<text  x="353.55" y="97.5" ></text>
</g>
<g >
<title>firedrake.formmanipulation.ExtractSubBlock.argument (1,925 us, 0.05%)</title><rect x="840.6" y="199" width="0.6" height="15.0" fill="rgb(0,0,0)" rx="2" ry="2" />
<text  x="843.60" y="209.5" ></text>
</g>
<g >
<title>firedrake.functionspaceimpl.FunctionSpace.__init__ (6,319 us, 0.16%)</title><rect x="350.5" y="119" width="1.9" height="15.0" fill="rgb(0,0,0)" rx="2" ry="2" />
<text  x="353.55" y="129.5" ></text>
</g>
<g >
<title>Log_Event_mtf_solve_14 (5,189 us, 0.13%)</title><rect x="1086.7" y="247" width="1.6" height="15.0" fill="rgb(0,0,0)" rx="2" ry="2" />
<text  x="1089.75" y="257.5" ></text>
</g>
<g >
<title>firedrake.assemble.allocate_matrix (8,470 us, 0.21%)</title><rect x="1147.1" y="167" width="2.5" height="15.0" fill="rgb(0,0,0)" rx="2" ry="2" />
<text  x="1150.09" y="177.5" ></text>
</g>
<g >
<title>firedrake.ufl_expr.action (5,172 us, 0.13%)</title><rect x="804.7" y="87" width="1.6" height="15.0" fill="rgb(0,0,0)" rx="2" ry="2" />
<text  x="807.74" y="97.5" ></text>
</g>
<g >
<title>firedrake.mesh.MeshTopology._facets (2,740 us, 0.07%)</title><rect x="357.1" y="135" width="0.8" height="15.0" fill="rgb(0,0,0)" rx="2" ry="2" />
<text  x="360.06" y="145.5" ></text>
</g>
<g >
<title>pyop2.global_kernel.GlobalKernel.compile (31,650 us, 0.78%)</title><rect x="824.3" y="183" width="9.2" height="15.0" fill="rgb(0,0,0)" rx="2" ry="2" />
<text  x="827.29" y="193.5" ></text>
</g>
<g >
<title>firedrake.functionspacedata.get_shared_data (18,725 us, 0.46%)</title><rect x="352.4" y="103" width="5.5" height="15.0" fill="rgb(0,0,0)" rx="2" ry="2" />
<text  x="355.39" y="113.5" ></text>
</g>
<g >
<title>pyop2.global_kernel.GlobalKernel.compile (32,163 us, 0.80%)</title><rect x="1126.6" y="199" width="9.4" height="15.0" fill="rgb(0,0,0)" rx="2" ry="2" />
<text  x="1129.65" y="209.5" ></text>
</g>
<g >
<title>firedrake.interpolation.make_interpolator (15,847 us, 0.39%)</title><rect x="1174.0" y="135" width="4.6" height="15.0" fill="rgb(0,0,0)" rx="2" ry="2" />
<text  x="1176.99" y="145.5" ></text>
</g>
<g >
<title>pyop2.global_kernel.GlobalKernel.compile (32,510 us, 0.80%)</title><rect x="842.9" y="215" width="9.5" height="15.0" fill="rgb(0,0,0)" rx="2" ry="2" />
<text  x="845.87" y="225.5" ></text>
</g>
<g >
<title>firedrake.assemble.allocate_matrix (7,402 us, 0.18%)</title><rect x="809.7" y="87" width="2.2" height="15.0" fill="rgb(0,0,0)" rx="2" ry="2" />
<text  x="812.71" y="97.5" ></text>
</g>
<g >
<title>firedrake.functionspaceimpl.FunctionSpace.__init__ (2,290 us, 0.06%)</title><rect x="1173.3" y="199" width="0.7" height="15.0" fill="rgb(0,0,0)" rx="2" ry="2" />
<text  x="1176.33" y="209.5" ></text>
</g>
<g >
<title>FunctionSpaceData: CreateElement (6,917 us, 0.17%)</title><rect x="355.0" y="135" width="2.1" height="15.0" fill="rgb(0,0,0)" rx="2" ry="2" />
<text  x="358.04" y="145.5" ></text>
</g>
<g >
<title>firedrake.functionspacedata.FunctionSpaceData.__init__ (18,725 us, 0.46%)</title><rect x="352.4" y="119" width="5.5" height="15.0" fill="rgb(0,0,0)" rx="2" ry="2" />
<text  x="355.39" y="129.5" ></text>
</g>
<g >
<title>CreateFunctionSpace (2,342 us, 0.06%)</title><rect x="1168.4" y="167" width="0.6" height="15.0" fill="rgb(0,0,0)" rx="2" ry="2" />
<text  x="1171.36" y="177.5" ></text>
</g>
<g >
<title>firedrake.extrusion_utils.make_extruded_coords (67,859 us, 1.68%)</title><rect x="330.8" y="87" width="19.7" height="15.0" fill="rgb(0,0,0)" rx="2" ry="2" />
<text  x="333.75" y="97.5" ></text>
</g>
<g >
<title>Log_Event_mtf_solve_4 (5,173 us, 0.13%)</title><rect x="1089.7" y="247" width="1.5" height="15.0" fill="rgb(0,0,0)" rx="2" ry="2" />
<text  x="1092.73" y="257.5" ></text>
</g>
<g >
<title>CreateSparsity (5,396 us, 0.13%)</title><rect x="1156.1" y="183" width="1.5" height="15.0" fill="rgb(0,0,0)" rx="2" ry="2" />
<text  x="1159.07" y="193.5" ></text>
</g>
<g >
<title>firedrake.variational_solver.NonlinearVariationalProblem.__init__ (11,855 us, 0.29%)</title><rect x="806.3" y="87" width="3.4" height="15.0" fill="rgb(0,0,0)" rx="2" ry="2" />
<text  x="809.25" y="97.5" ></text>
</g>
<g >
<title>firedrake.__init__ (1,527,725 us, 37.77%)</title><rect x="358.5" y="71" width="445.7" height="15.0" fill="rgb(0,0,0)" rx="2" ry="2" />
<text  x="361.47" y="81.5" >firedrake.__init__</text>
</g>
<g >
<title>firedrake.functionspacedata.FunctionSpaceData.__init__ (2,290 us, 0.06%)</title><rect x="1173.3" y="231" width="0.7" height="15.0" fill="rgb(0,0,0)" rx="2" ry="2" />
<text  x="1176.33" y="241.5" ></text>
</g>
<g >
<title>firedrake.parloops.par_loop (38,374 us, 0.95%)</title><rect x="841.2" y="167" width="11.2" height="15.0" fill="rgb(0,0,0)" rx="2" ry="2" />
<text  x="844.16" y="177.5" ></text>
</g>
<g >
<title>HybridBreak (38,374 us, 0.95%)</title><rect x="841.2" y="151" width="11.2" height="15.0" fill="rgb(0,0,0)" rx="2" ry="2" />
<text  x="844.16" y="161.5" ></text>
</g>
<g >
<title>Parloop_Cells_wrap_par_loop_kernel (31,827 us, 0.79%)</title><rect x="1180.0" y="167" width="9.3" height="15.0" fill="rgb(0,0,0)" rx="2" ry="2" />
<text  x="1183.04" y="177.5" ></text>
</g>
<g >
<title>Log_Event_subkernel57_cell_to__cell_integral_otherwise (2,234 us, 0.06%)</title><rect x="1100.9" y="247" width="0.6" height="15.0" fill="rgb(0,0,0)" rx="2" ry="2" />
<text  x="1103.87" y="257.5" ></text>
</g>
<g >
<title>Log_Event_mtf_solve_1 (20,711 us, 0.51%)</title><rect x="1086.7" y="215" width="6.1" height="15.0" fill="rgb(0,0,0)" rx="2" ry="2" />
<text  x="1089.75" y="225.5" ></text>
</g>
<g >
<title>Log_Event_subkernel60_cell_to__cell_integral_otherwise (2,964 us, 0.07%)</title><rect x="1105.5" y="215" width="0.9" height="15.0" fill="rgb(0,0,0)" rx="2" ry="2" />
<text  x="1108.52" y="225.5" ></text>
</g>
<g >
<title>Log_Event_subkernel23_cell_to__cell_integral_otherwise (2,900 us, 0.07%)</title><rect x="1103.0" y="215" width="0.8" height="15.0" fill="rgb(0,0,0)" rx="2" ry="2" />
<text  x="1105.98" y="225.5" ></text>
</g>
<g >
<title>KSPSolve (18,364 us, 0.45%)</title><rect x="1119.5" y="151" width="5.4" height="15.0" fill="rgb(0,0,0)" rx="2" ry="2" />
<text  x="1122.52" y="161.5" ></text>
</g>
<g >
<title>firedrake.functionspacedata.get_shared_data (2,290 us, 0.06%)</title><rect x="1173.3" y="215" width="0.7" height="15.0" fill="rgb(0,0,0)" rx="2" ry="2" />
<text  x="1176.33" y="225.5" ></text>
</g>
<g >
<title>firedrake.matrix_free.operators.ImplicitMatrixContext.mult (97,706 us, 2.42%)</title><rect x="812.7" y="135" width="28.5" height="15.0" fill="rgb(0,0,0)" rx="2" ry="2" />
<text  x="815.65" y="145.5" >f..</text>
</g>
<g >
<title>firedrake.utility_meshes.SquareMesh (1,902 us, 0.05%)</title><rect x="804.2" y="71" width="0.5" height="15.0" fill="rgb(0,0,0)" rx="2" ry="2" />
<text  x="807.19" y="81.5" ></text>
</g>
<g >
<title>FunctionSpaceData: CreateElement (4,688 us, 0.12%)</title><rect x="1169.0" y="199" width="1.4" height="15.0" fill="rgb(0,0,0)" rx="2" ry="2" />
<text  x="1172.05" y="209.5" ></text>
</g>
<g >
<title>Log_Event_form1_cell_integral_otherwise (1,971 us, 0.05%)</title><rect x="823.7" y="183" width="0.6" height="15.0" fill="rgb(0,0,0)" rx="2" ry="2" />
<text  x="826.72" y="193.5" ></text>
</g>
<g >
<title>Log_Event_subkernel67_interior_facet_vert_to__exterior_facet_vert_integral_otherwise (3,521 us, 0.09%)</title><rect x="1106.4" y="215" width="1.0" height="15.0" fill="rgb(0,0,0)" rx="2" ry="2" />
<text  x="1109.39" y="225.5" ></text>
</g>
<g >
<title>firedrake.functionspace.MixedFunctionSpace (2,342 us, 0.06%)</title><rect x="1168.4" y="151" width="0.6" height="15.0" fill="rgb(0,0,0)" rx="2" ry="2" />
<text  x="1171.36" y="161.5" ></text>
</g>
<g >
<title>Log_Event_form0_cell_integral_otherwise (2,584 us, 0.06%)</title><rect x="813.8" y="183" width="0.7" height="15.0" fill="rgb(0,0,0)" rx="2" ry="2" />
<text  x="816.76" y="193.5" ></text>
</g>
<g >
<title>PCSetUp (93,597 us, 2.31%)</title><rect x="1162.7" y="103" width="27.3" height="15.0" fill="rgb(0,0,0)" rx="2" ry="2" />
<text  x="1165.69" y="113.5" >P..</text>
</g>
</g>
</svg>
