<?xml version="1.0" standalone="no"?>
<!DOCTYPE svg PUBLIC "-//W3C//DTD SVG 1.1//EN" "http://www.w3.org/Graphics/SVG/1.1/DTD/svg11.dtd">
<svg version="1.1" width="1200" height="267" onload="init(evt)" viewBox="0 0 1200 267" xmlns="http://www.w3.org/2000/svg" xmlns:xlink="http://www.w3.org/1999/xlink">
<!-- Flame graph stack visualization. See https://github.com/brendangregg/FlameGraph for latest version, and http://www.brendangregg.com/flamegraphs.html for examples. -->
<!-- NOTES:  -->
<defs>
	<linearGradient id="background" y1="0" y2="1" x1="0" x2="0" >
		<stop stop-color="#eeeeee" offset="5%" />
		<stop stop-color="#eeeeb0" offset="95%" />
	</linearGradient>
</defs>
<style type="text/css">
	text { font-family:Verdana; font-size:13px; fill:rgb(0,0,0); }
	#search, #ignorecase { opacity:0.1; cursor:pointer; }
	#search:hover, #search.show, #ignorecase:hover, #ignorecase.show { opacity:1; }
	#subtitle { text-anchor:middle; font-color:rgb(160,160,160); }
	#title { text-anchor:middle; font-size:18px}
	#unzoom { cursor:pointer; }
	#frames > *:hover { stroke:black; stroke-width:0.5; cursor:pointer; }
	.hide { display:none; }
	.parent { opacity:0.5; }
</style>
<script type="text/ecmascript">
<![CDATA[
	"use strict";
	var details, searchbtn, unzoombtn, matchedtxt, svg, searching, currentSearchTerm, ignorecase, ignorecaseBtn;
	function init(evt) {
		details = document.getElementById("details").firstChild;
		searchbtn = document.getElementById("search");
		ignorecaseBtn = document.getElementById("ignorecase");
		unzoombtn = document.getElementById("unzoom");
		matchedtxt = document.getElementById("matched");
		svg = document.getElementsByTagName("svg")[0];
		searching = 0;
		currentSearchTerm = null;

		// use GET parameters to restore a flamegraphs state.
		var params = get_params();
		if (params.x && params.y)
			zoom(find_group(document.querySelector('[x="' + params.x + '"][y="' + params.y + '"]')));
                if (params.s) search(params.s);
	}

	// event listeners
	window.addEventListener("click", function(e) {
		var target = find_group(e.target);
		if (target) {
			if (target.nodeName == "a") {
				if (e.ctrlKey === false) return;
				e.preventDefault();
			}
			if (target.classList.contains("parent")) unzoom();
			zoom(target);
			if (!document.querySelector('.parent')) {
				clearzoom();
				return;
			}

			// set parameters for zoom state
			var el = target.querySelector("rect");
			if (el && el.attributes && el.attributes.y && el.attributes._orig_x) {
				var params = get_params()
				params.x = el.attributes._orig_x.value;
				params.y = el.attributes.y.value;
				history.replaceState(null, null, parse_params(params));
			}
		}
		else if (e.target.id == "unzoom") clearzoom();
		else if (e.target.id == "search") search_prompt();
		else if (e.target.id == "ignorecase") toggle_ignorecase();
	}, false)

	// mouse-over for info
	// show
	window.addEventListener("mouseover", function(e) {
		var target = find_group(e.target);
		if (target) details.nodeValue = "Function: " + g_to_text(target);
	}, false)

	// clear
	window.addEventListener("mouseout", function(e) {
		var target = find_group(e.target);
		if (target) details.nodeValue = ' ';
	}, false)

	// ctrl-F for search
	// ctrl-I to toggle case-sensitive search
	window.addEventListener("keydown",function (e) {
		if (e.keyCode === 114 || (e.ctrlKey && e.keyCode === 70)) {
			e.preventDefault();
			search_prompt();
		}
		else if (e.ctrlKey && e.keyCode === 73) {
			e.preventDefault();
			toggle_ignorecase();
		}
	}, false)

	// functions
	function get_params() {
		var params = {};
		var paramsarr = window.location.search.substr(1).split('&');
		for (var i = 0; i < paramsarr.length; ++i) {
			var tmp = paramsarr[i].split("=");
			if (!tmp[0] || !tmp[1]) continue;
			params[tmp[0]]  = decodeURIComponent(tmp[1]);
		}
		return params;
	}
	function parse_params(params) {
		var uri = "?";
		for (var key in params) {
			uri += key + '=' + encodeURIComponent(params[key]) + '&';
		}
		if (uri.slice(-1) == "&")
			uri = uri.substring(0, uri.length - 1);
		if (uri == '?')
			uri = window.location.href.split('?')[0];
		return uri;
	}
	function find_child(node, selector) {
		var children = node.querySelectorAll(selector);
		if (children.length) return children[0];
	}
	function find_group(node) {
		var parent = node.parentElement;
		if (!parent) return;
		if (parent.id == "frames") return node;
		return find_group(parent);
	}
	function orig_save(e, attr, val) {
		if (e.attributes["_orig_" + attr] != undefined) return;
		if (e.attributes[attr] == undefined) return;
		if (val == undefined) val = e.attributes[attr].value;
		e.setAttribute("_orig_" + attr, val);
	}
	function orig_load(e, attr) {
		if (e.attributes["_orig_"+attr] == undefined) return;
		e.attributes[attr].value = e.attributes["_orig_" + attr].value;
		e.removeAttribute("_orig_"+attr);
	}
	function g_to_text(e) {
		var text = find_child(e, "title").firstChild.nodeValue;
		return (text)
	}
	function g_to_func(e) {
		var func = g_to_text(e);
		// if there's any manipulation we want to do to the function
		// name before it's searched, do it here before returning.
		return (func);
	}
	function update_text(e) {
		var r = find_child(e, "rect");
		var t = find_child(e, "text");
		var w = parseFloat(r.attributes.width.value) -3;
		var txt = find_child(e, "title").textContent.replace(/\([^(]*\)$/,"");
		t.attributes.x.value = parseFloat(r.attributes.x.value) + 3;

		// Smaller than this size won't fit anything
		if (w < 2 * 13 * 0.59) {
			t.textContent = "";
			return;
		}

		t.textContent = txt;
		// Fit in full text width
		if (/^ *$/.test(txt) || t.getSubStringLength(0, txt.length) < w)
			return;

		for (var x = txt.length - 2; x > 0; x--) {
			if (t.getSubStringLength(0, x + 2) <= w) {
				t.textContent = txt.substring(0, x) + "..";
				return;
			}
		}
		t.textContent = "";
	}

	// zoom
	function zoom_reset(e) {
		if (e.attributes != undefined) {
			orig_load(e, "x");
			orig_load(e, "width");
		}
		if (e.childNodes == undefined) return;
		for (var i = 0, c = e.childNodes; i < c.length; i++) {
			zoom_reset(c[i]);
		}
	}
	function zoom_child(e, x, ratio) {
		if (e.attributes != undefined) {
			if (e.attributes.x != undefined) {
				orig_save(e, "x");
				e.attributes.x.value = (parseFloat(e.attributes.x.value) - x - 10) * ratio + 10;
				if (e.tagName == "text")
					e.attributes.x.value = find_child(e.parentNode, "rect[x]").attributes.x.value + 3;
			}
			if (e.attributes.width != undefined) {
				orig_save(e, "width");
				e.attributes.width.value = parseFloat(e.attributes.width.value) * ratio;
			}
		}

		if (e.childNodes == undefined) return;
		for (var i = 0, c = e.childNodes; i < c.length; i++) {
			zoom_child(c[i], x - 10, ratio);
		}
	}
	function zoom_parent(e) {
		if (e.attributes) {
			if (e.attributes.x != undefined) {
				orig_save(e, "x");
				e.attributes.x.value = 10;
			}
			if (e.attributes.width != undefined) {
				orig_save(e, "width");
				e.attributes.width.value = parseInt(svg.width.baseVal.value) - (10 * 2);
			}
		}
		if (e.childNodes == undefined) return;
		for (var i = 0, c = e.childNodes; i < c.length; i++) {
			zoom_parent(c[i]);
		}
	}
	function zoom(node) {
		var attr = find_child(node, "rect").attributes;
		var width = parseFloat(attr.width.value);
		var xmin = parseFloat(attr.x.value);
		var xmax = parseFloat(xmin + width);
		var ymin = parseFloat(attr.y.value);
		var ratio = (svg.width.baseVal.value - 2 * 10) / width;

		// XXX: Workaround for JavaScript float issues (fix me)
		var fudge = 0.0001;

		unzoombtn.classList.remove("hide");

		var el = document.getElementById("frames").children;
		for (var i = 0; i < el.length; i++) {
			var e = el[i];
			var a = find_child(e, "rect").attributes;
			var ex = parseFloat(a.x.value);
			var ew = parseFloat(a.width.value);
			var upstack;
			// Is it an ancestor
			if (1 == 0) {
				upstack = parseFloat(a.y.value) > ymin;
			} else {
				upstack = parseFloat(a.y.value) < ymin;
			}
			if (upstack) {
				// Direct ancestor
				if (ex <= xmin && (ex+ew+fudge) >= xmax) {
					e.classList.add("parent");
					zoom_parent(e);
					update_text(e);
				}
				// not in current path
				else
					e.classList.add("hide");
			}
			// Children maybe
			else {
				// no common path
				if (ex < xmin || ex + fudge >= xmax) {
					e.classList.add("hide");
				}
				else {
					zoom_child(e, xmin, ratio);
					update_text(e);
				}
			}
		}
		search();
	}
	function unzoom() {
		unzoombtn.classList.add("hide");
		var el = document.getElementById("frames").children;
		for(var i = 0; i < el.length; i++) {
			el[i].classList.remove("parent");
			el[i].classList.remove("hide");
			zoom_reset(el[i]);
			update_text(el[i]);
		}
		search();
	}
	function clearzoom() {
		unzoom();

		// remove zoom state
		var params = get_params();
		if (params.x) delete params.x;
		if (params.y) delete params.y;
		history.replaceState(null, null, parse_params(params));
	}

	// search
	function toggle_ignorecase() {
		ignorecase = !ignorecase;
		if (ignorecase) {
			ignorecaseBtn.classList.add("show");
		} else {
			ignorecaseBtn.classList.remove("show");
		}
		reset_search();
		search();
	}
	function reset_search() {
		var el = document.querySelectorAll("#frames rect");
		for (var i = 0; i < el.length; i++) {
			orig_load(el[i], "fill")
		}
		var params = get_params();
		delete params.s;
		history.replaceState(null, null, parse_params(params));
	}
	function search_prompt() {
		if (!searching) {
			var term = prompt("Enter a search term (regexp " +
			    "allowed, eg: ^ext4_)"
			    + (ignorecase ? ", ignoring case" : "")
			    + "\nPress Ctrl-i to toggle case sensitivity", "");
			if (term != null) search(term);
		} else {
			reset_search();
			searching = 0;
			currentSearchTerm = null;
			searchbtn.classList.remove("show");
			searchbtn.firstChild.nodeValue = "Search"
			matchedtxt.classList.add("hide");
			matchedtxt.firstChild.nodeValue = ""
		}
	}
	function search(term) {
		if (term) currentSearchTerm = term;

		var re = new RegExp(currentSearchTerm, ignorecase ? 'i' : '');
		var el = document.getElementById("frames").children;
		var matches = new Object();
		var maxwidth = 0;
		for (var i = 0; i < el.length; i++) {
			var e = el[i];
			var func = g_to_func(e);
			var rect = find_child(e, "rect");
			if (func == null || rect == null)
				continue;

			// Save max width. Only works as we have a root frame
			var w = parseFloat(rect.attributes.width.value);
			if (w > maxwidth)
				maxwidth = w;

			if (func.match(re)) {
				// highlight
				var x = parseFloat(rect.attributes.x.value);
				orig_save(rect, "fill");
				rect.attributes.fill.value = "rgb(230,0,230)";

				// remember matches
				if (matches[x] == undefined) {
					matches[x] = w;
				} else {
					if (w > matches[x]) {
						// overwrite with parent
						matches[x] = w;
					}
				}
				searching = 1;
			}
		}
		if (!searching)
			return;
		var params = get_params();
		params.s = currentSearchTerm;
		history.replaceState(null, null, parse_params(params));

		searchbtn.classList.add("show");
		searchbtn.firstChild.nodeValue = "Reset Search";

		// calculate percent matched, excluding vertical overlap
		var count = 0;
		var lastx = -1;
		var lastw = 0;
		var keys = Array();
		for (k in matches) {
			if (matches.hasOwnProperty(k))
				keys.push(k);
		}
		// sort the matched frames by their x location
		// ascending, then width descending
		keys.sort(function(a, b){
			return a - b;
		});
		// Step through frames saving only the biggest bottom-up frames
		// thanks to the sort order. This relies on the tree property
		// where children are always smaller than their parents.
		var fudge = 0.0001;	// JavaScript floating point
		for (var k in keys) {
			var x = parseFloat(keys[k]);
			var w = matches[keys[k]];
			if (x >= lastx + lastw - fudge) {
				count += w;
				lastx = x;
				lastw = w;
			}
		}
		// display matched percent
		matchedtxt.classList.remove("hide");
		var pct = 100 * count / maxwidth;
		if (pct != 100) pct = pct.toFixed(1)
		matchedtxt.firstChild.nodeValue = "Matched: " + pct + "%";
	}
]]>
</script>
<rect x="0.0" y="0" width="1200.0" height="267.0" fill="url(#background)"  />
<text id="title" x="600.00" y="26" >Firedrake example</text>
<text id="details" x="10.00" y="249" > </text>
<text id="unzoom" x="10.00" y="26" class="hide">Reset Zoom</text>
<text id="search" x="1090.00" y="26" >Search</text>
<text id="ignorecase" x="1174.00" y="26" >ic</text>
<text id="matched" x="1090.00" y="249" > </text>
<g id="frames">
<g >
<title>pyop2.global_kernel.GlobalKernel.compile (2,391,911 us, 1.77%)</title><rect x="387.9" y="151" width="20.9" height="15.0" fill="rgb(0,0,0)" rx="2" ry="2" />
<text  x="390.90" y="161.5" ></text>
</g>
<g >
<title>Parloop_Cells_wrap_par_loop_kernel (842,441 us, 0.62%)</title><rect x="551.7" y="199" width="7.4" height="15.0" fill="rgb(0,0,0)" rx="2" ry="2" />
<text  x="554.70" y="209.5" ></text>
</g>
<g >
<title>Parloop_IntFacets_wrap_form00_interior_facet_vert_integral_otherwise (2,391,911 us, 1.77%)</title><rect x="387.9" y="135" width="20.9" height="15.0" fill="rgb(0,0,0)" rx="2" ry="2" />
<text  x="390.90" y="145.5" ></text>
</g>
<g >
<title>ParLoopExecute (5,713,179 us, 4.23%)</title><rect x="429.7" y="119" width="49.8" height="15.0" fill="rgb(0,0,0)" rx="2" ry="2" />
<text  x="432.65" y="129.5" >ParL..</text>
</g>
<g >
<title>HybridProject (842,441 us, 0.62%)</title><rect x="551.7" y="151" width="7.4" height="15.0" fill="rgb(0,0,0)" rx="2" ry="2" />
<text  x="554.70" y="161.5" ></text>
</g>
<g >
<title>pyop2.global_kernel.GlobalKernel.compile (1,230,856 us, 0.91%)</title><rect x="61.5" y="119" width="10.7" height="15.0" fill="rgb(0,0,0)" rx="2" ry="2" />
<text  x="64.47" y="129.5" ></text>
</g>
<g >
<title>firedrake.assemble.assemble (8,931,537 us, 6.61%)</title><rect x="40.8" y="71" width="78.0" height="15.0" fill="rgb(0,0,0)" rx="2" ry="2" />
<text  x="43.78" y="81.5" >firedrak..</text>
</g>
<g >
<title>firedrake.tsfc_interface.compile_form (1,144,558 us, 0.85%)</title><rect x="408.8" y="119" width="10.0" height="15.0" fill="rgb(0,0,0)" rx="2" ry="2" />
<text  x="411.78" y="129.5" ></text>
</g>
<g >
<title>pyop2.global_kernel.GlobalKernel.compile (1,527,822 us, 1.13%)</title><rect x="328.5" y="151" width="13.3" height="15.0" fill="rgb(0,0,0)" rx="2" ry="2" />
<text  x="331.47" y="161.5" ></text>
</g>
<g >
<title>Parloop_Cells_wrap_wrap_slate_loopy_knl_7 (13,546,029 us, 10.02%)</title><rect x="660.5" y="183" width="118.3" height="15.0" fill="rgb(0,0,0)" rx="2" ry="2" />
<text  x="663.55" y="193.5" >Parloop_Cells..</text>
</g>
<g >
<title>pyop2.global_kernel.GlobalKernel.compile (15,823,701 us, 11.71%)</title><rect x="961.4" y="183" width="138.2" height="15.0" fill="rgb(0,0,0)" rx="2" ry="2" />
<text  x="964.41" y="193.5" >pyop2.global_ker..</text>
</g>
<g >
<title>Parloop_Cells_wrap_form00_exterior_facet_top_integral_otherwise (1,588,850 us, 1.18%)</title><rect x="341.8" y="135" width="13.9" height="15.0" fill="rgb(0,0,0)" rx="2" ry="2" />
<text  x="344.81" y="145.5" ></text>
</g>
<g >
<title>firedrake.functionspacedata.get_shared_data (18,555 us, 0.01%)</title><rect x="27.3" y="103" width="0.1" height="15.0" fill="rgb(0,0,0)" rx="2" ry="2" />
<text  x="30.26" y="113.5" ></text>
</g>
<g >
<title>SCBackSub (31,527,540 us, 23.33%)</title><rect x="541.5" y="135" width="275.3" height="15.0" fill="rgb(0,0,0)" rx="2" ry="2" />
<text  x="544.49" y="145.5" >SCBackSub</text>
</g>
<g >
<title>firedrake.extrusion_utils.make_extruded_coords (880,777 us, 0.65%)</title><rect x="19.6" y="87" width="7.7" height="15.0" fill="rgb(0,0,0)" rx="2" ry="2" />
<text  x="22.57" y="97.5" ></text>
</g>
<g >
<title>firedrake.tsfc_interface.compile_form (1,870,097 us, 1.38%)</title><rect x="800.4" y="151" width="16.4" height="15.0" fill="rgb(0,0,0)" rx="2" ry="2" />
<text  x="803.45" y="161.5" ></text>
</g>
<g >
<title>pyop2.global_kernel.GlobalKernel.compile (1,411,509 us, 1.04%)</title><rect x="177.3" y="135" width="12.3" height="15.0" fill="rgb(0,0,0)" rx="2" ry="2" />
<text  x="180.26" y="145.5" ></text>
</g>
<g >
<title>ParLoopExecute (13,546,029 us, 10.02%)</title><rect x="660.5" y="167" width="118.3" height="15.0" fill="rgb(0,0,0)" rx="2" ry="2" />
<text  x="663.55" y="177.5" >ParLoopExecute</text>
</g>
<g >
<title>firedrake.tsfc_interface.compile_form (875,966 us, 0.65%)</title><rect x="533.8" y="151" width="7.7" height="15.0" fill="rgb(0,0,0)" rx="2" ry="2" />
<text  x="536.84" y="161.5" ></text>
</g>
<g >
<title>firedrake.tsfc_interface.compile_form (2,571,389 us, 1.90%)</title><rect x="1099.6" y="151" width="22.4" height="15.0" fill="rgb(0,0,0)" rx="2" ry="2" />
<text  x="1102.58" y="161.5" ></text>
</g>
<g >
<title>pyop2.global_kernel.GlobalKernel.compile (1,793,942 us, 1.33%)</title><rect x="189.6" y="135" width="15.6" height="15.0" fill="rgb(0,0,0)" rx="2" ry="2" />
<text  x="192.59" y="145.5" ></text>
</g>
<g >
<title>ParLoopExecute (773,647 us, 0.57%)</title><rect x="103.9" y="119" width="6.7" height="15.0" fill="rgb(0,0,0)" rx="2" ry="2" />
<text  x="106.87" y="129.5" ></text>
</g>
<g >
<title>Parloop_Cells_wrap_form_interior_facet_horiz_integral_otherwise (1,230,856 us, 0.91%)</title><rect x="61.5" y="103" width="10.7" height="15.0" fill="rgb(0,0,0)" rx="2" ry="2" />
<text  x="64.47" y="113.5" ></text>
</g>
<g >
<title>pyop2.global_kernel.GlobalKernel.compile (864,533 us, 0.64%)</title><rect x="816.8" y="215" width="7.5" height="15.0" fill="rgb(0,0,0)" rx="2" ry="2" />
<text  x="819.78" y="225.5" ></text>
</g>
<g >
<title>firedrake (135,141,048 us, 100.00%)</title><rect x="10.0" y="55" width="1180.0" height="15.0" fill="rgb(0,0,0)" rx="2" ry="2" />
<text  x="13.00" y="65.5" >firedrake</text>
</g>
<g >
<title>firedrake.assemble_expressions.assemble_expression (792,629 us, 0.59%)</title><rect x="103.9" y="87" width="6.9" height="15.0" fill="rgb(0,0,0)" rx="2" ry="2" />
<text  x="106.87" y="97.5" ></text>
</g>
<g >
<title>CreateFunctionSpace (18,555 us, 0.01%)</title><rect x="27.3" y="71" width="0.1" height="15.0" fill="rgb(0,0,0)" rx="2" ry="2" />
<text  x="30.26" y="81.5" ></text>
</g>
<g >
<title>ParLoopExecute (864,533 us, 0.64%)</title><rect x="816.8" y="183" width="7.5" height="15.0" fill="rgb(0,0,0)" rx="2" ry="2" />
<text  x="819.78" y="193.5" ></text>
</g>
<g >
<title>HybridInit (20,822,242 us, 15.41%)</title><rect x="946.3" y="119" width="181.8" height="15.0" fill="rgb(0,0,0)" rx="2" ry="2" />
<text  x="949.28" y="129.5" >HybridInit</text>
</g>
<g >
<title>Parloop_set_#x7f650ca70ca0_wrap_expression_kernel (400,998 us, 0.30%)</title><rect x="103.9" y="135" width="3.5" height="15.0" fill="rgb(0,0,0)" rx="2" ry="2" />
<text  x="106.87" y="145.5" ></text>
</g>
<g >
<title>Parloop_Cells_wrap_form0_interior_facet_horiz_integral_otherwise (1,411,509 us, 1.04%)</title><rect x="177.3" y="119" width="12.3" height="15.0" fill="rgb(0,0,0)" rx="2" ry="2" />
<text  x="180.26" y="129.5" ></text>
</g>
<g >
<title>Parloop_IntFacets_wrap_form_interior_facet_vert_integral_otherwise (1,806,574 us, 1.34%)</title><rect x="88.1" y="103" width="15.8" height="15.0" fill="rgb(0,0,0)" rx="2" ry="2" />
<text  x="91.10" y="113.5" ></text>
</g>
<g >
<title>ParLoopExecute (21,130,810 us, 15.64%)</title><rect x="224.3" y="119" width="184.5" height="15.0" fill="rgb(0,0,0)" rx="2" ry="2" />
<text  x="227.28" y="129.5" >ParLoopExecute</text>
</g>
<g >
<title>MatMult (6,230,355 us, 4.61%)</title><rect x="487.1" y="119" width="54.4" height="15.0" fill="rgb(0,0,0)" rx="2" ry="2" />
<text  x="490.09" y="129.5" >MatMult</text>
</g>
<g >
<title>Parloop_Cells_wrap_form_cell_integral_otherwise (5,713,179 us, 4.23%)</title><rect x="429.7" y="135" width="49.8" height="15.0" fill="rgb(0,0,0)" rx="2" ry="2" />
<text  x="432.65" y="145.5" >Parl..</text>
</g>
<g >
<title>pyop2.global_kernel.GlobalKernel.compile (400,998 us, 0.30%)</title><rect x="103.9" y="151" width="3.5" height="15.0" fill="rgb(0,0,0)" rx="2" ry="2" />
<text  x="106.87" y="161.5" ></text>
</g>
<g >
<title>ParLoopExecute (679,894 us, 0.50%)</title><rect x="1122.2" y="151" width="5.9" height="15.0" fill="rgb(0,0,0)" rx="2" ry="2" />
<text  x="1125.16" y="161.5" ></text>
</g>
<g >
<title>firedrake.functionspacedata.FunctionSpaceData.__init__ (18,555 us, 0.01%)</title><rect x="27.3" y="119" width="0.1" height="15.0" fill="rgb(0,0,0)" rx="2" ry="2" />
<text  x="30.26" y="129.5" ></text>
</g>
<g >
<title>firedrake.norms.norm (6,564,486 us, 4.86%)</title><rect x="429.7" y="87" width="57.3" height="15.0" fill="rgb(0,0,0)" rx="2" ry="2" />
<text  x="432.65" y="97.5" >fired..</text>
</g>
<g >
<title>ParLoopExecute (842,441 us, 0.62%)</title><rect x="551.7" y="183" width="7.4" height="15.0" fill="rgb(0,0,0)" rx="2" ry="2" />
<text  x="554.70" y="193.5" ></text>
</g>
<g >
<title>firedrake.variational_solver.LinearVariationalProblem.__init__ (13,814 us, 0.01%)</title><rect x="487.0" y="71" width="0.1" height="15.0" fill="rgb(0,0,0)" rx="2" ry="2" />
<text  x="489.97" y="81.5" ></text>
</g>
<g >
<title>ParLoopExecute (7,225,808 us, 5.35%)</title><rect x="40.8" y="87" width="63.1" height="15.0" fill="rgb(0,0,0)" rx="2" ry="2" />
<text  x="43.78" y="97.5" >ParLoo..</text>
</g>
<g >
<title>firedrake.formmanipulation.split_form (14,483 us, 0.01%)</title><rect x="1122.0" y="135" width="0.2" height="15.0" fill="rgb(0,0,0)" rx="2" ry="2" />
<text  x="1125.03" y="145.5" ></text>
</g>
<g >
<title>pyop2.global_kernel.GlobalKernel.compile (3,154,854 us, 2.33%)</title><rect x="487.1" y="183" width="27.5" height="15.0" fill="rgb(0,0,0)" rx="2" ry="2" />
<text  x="490.09" y="193.5" >p..</text>
</g>
<g >
<title>firedrake.function.Function.project (35,604,649 us, 26.35%)</title><rect x="118.8" y="71" width="310.9" height="15.0" fill="rgb(0,0,0)" rx="2" ry="2" />
<text  x="121.77" y="81.5" >firedrake.function.Function.project</text>
</g>
<g >
<title>ParLoopExecute (11,033,109 us, 8.16%)</title><rect x="834.5" y="167" width="96.3" height="15.0" fill="rgb(0,0,0)" rx="2" ry="2" />
<text  x="837.45" y="177.5" >ParLoopExe..</text>
</g>
<g >
<title>firedrake.assemble_expressions.evaluate_expression (792,629 us, 0.59%)</title><rect x="103.9" y="103" width="6.9" height="15.0" fill="rgb(0,0,0)" rx="2" ry="2" />
<text  x="106.87" y="113.5" ></text>
</g>
<g >
<title>firedrake.tsfc_interface.compile_form (1,774,204 us, 1.31%)</title><rect x="930.8" y="167" width="15.5" height="15.0" fill="rgb(0,0,0)" rx="2" ry="2" />
<text  x="933.79" y="177.5" ></text>
</g>
<g >
<title>pyop2.global_kernel.GlobalKernel.compile (11,033,109 us, 8.16%)</title><rect x="834.5" y="199" width="96.3" height="15.0" fill="rgb(0,0,0)" rx="2" ry="2" />
<text  x="837.45" y="209.5" >pyop2.glob..</text>
</g>
<g >
<title>firedrake.matrix_free.operators.ImplicitMatrixContext.mult (6,230,355 us, 4.61%)</title><rect x="487.1" y="135" width="54.4" height="15.0" fill="rgb(0,0,0)" rx="2" ry="2" />
<text  x="490.09" y="145.5" >fired..</text>
</g>
<g >
<title>firedrake.tsfc_interface.compile_form (2,476,223 us, 1.83%)</title><rect x="778.8" y="167" width="21.6" height="15.0" fill="rgb(0,0,0)" rx="2" ry="2" />
<text  x="781.83" y="177.5" ></text>
</g>
<g >
<title>Parloop_Cells_wrap_form1_cell_integral_otherwise (2,738,409 us, 2.03%)</title><rect x="1155.8" y="135" width="23.9" height="15.0" fill="rgb(0,0,0)" rx="2" ry="2" />
<text  x="1158.76" y="145.5" >P..</text>
</g>
<g >
<title>firedrake.parloops.par_loop (864,533 us, 0.64%)</title><rect x="816.8" y="167" width="7.5" height="15.0" fill="rgb(0,0,0)" rx="2" ry="2" />
<text  x="819.78" y="177.5" ></text>
</g>
<g >
<title>Parloop_ExtFacets_wrap_form00_exterior_facet_vert_integral_otherwise (2,003,910 us, 1.48%)</title><rect x="370.4" y="135" width="17.5" height="15.0" fill="rgb(0,0,0)" rx="2" ry="2" />
<text  x="373.40" y="145.5" ></text>
</g>
<g >
<title>Parloop_Cells_wrap_par_loop_kernel (864,533 us, 0.64%)</title><rect x="816.8" y="199" width="7.5" height="15.0" fill="rgb(0,0,0)" rx="2" ry="2" />
<text  x="819.78" y="209.5" ></text>
</g>
<g >
<title>HybridRHS (13,966,893 us, 10.34%)</title><rect x="824.3" y="151" width="122.0" height="15.0" fill="rgb(0,0,0)" rx="2" ry="2" />
<text  x="827.33" y="161.5" >HybridRHS</text>
</g>
<g >
<title>pyop2.global_kernel.GlobalKernel.compile (842,441 us, 0.62%)</title><rect x="551.7" y="215" width="7.4" height="15.0" fill="rgb(0,0,0)" rx="2" ry="2" />
<text  x="554.70" y="225.5" ></text>
</g>
<g >
<title>pyop2.global_kernel.GlobalKernel.compile (1,181,885 us, 0.87%)</title><rect x="40.8" y="119" width="10.3" height="15.0" fill="rgb(0,0,0)" rx="2" ry="2" />
<text  x="43.78" y="129.5" ></text>
</g>
<g >
<title>pyop2.global_kernel.GlobalKernel.compile (2,003,910 us, 1.48%)</title><rect x="370.4" y="151" width="17.5" height="15.0" fill="rgb(0,0,0)" rx="2" ry="2" />
<text  x="373.40" y="161.5" ></text>
</g>
<g >
<title>firedrake.projection.project (35,604,649 us, 26.35%)</title><rect x="118.8" y="87" width="310.9" height="15.0" fill="rgb(0,0,0)" rx="2" ry="2" />
<text  x="121.77" y="97.5" >firedrake.projection.project</text>
</g>
<g >
<title>firedrake.__init__ (1,529,993 us, 1.13%)</title><rect x="27.4" y="71" width="13.4" height="15.0" fill="rgb(0,0,0)" rx="2" ry="2" />
<text  x="30.42" y="81.5" ></text>
</g>
<g >
<title>Parloop_Cells_wrap_wrap_slate_loopy_knl_4 (11,033,109 us, 8.16%)</title><rect x="834.5" y="183" width="96.3" height="15.0" fill="rgb(0,0,0)" rx="2" ry="2" />
<text  x="837.45" y="193.5" >Parloop_Ce..</text>
</g>
<g >
<title>pyop2.global_kernel.GlobalKernel.compile (13,546,029 us, 10.02%)</title><rect x="660.5" y="199" width="118.3" height="15.0" fill="rgb(0,0,0)" rx="2" ry="2" />
<text  x="663.55" y="209.5" >pyop2.global_..</text>
</g>
<g >
<title>pyop2.global_kernel.GlobalKernel.compile (1,685,070 us, 1.25%)</title><rect x="355.7" y="151" width="14.7" height="15.0" fill="rgb(0,0,0)" rx="2" ry="2" />
<text  x="358.69" y="161.5" ></text>
</g>
<g >
<title>pyop2.global_kernel.GlobalKernel.compile (1,234,001 us, 0.91%)</title><rect x="155.5" y="135" width="10.7" height="15.0" fill="rgb(0,0,0)" rx="2" ry="2" />
<text  x="158.46" y="145.5" ></text>
</g>
<g >
<title>pyop2.global_kernel.GlobalKernel.compile (1,806,574 us, 1.34%)</title><rect x="88.1" y="119" width="15.8" height="15.0" fill="rgb(0,0,0)" rx="2" ry="2" />
<text  x="91.10" y="129.5" ></text>
</g>
<g >
<title>HybridOperatorAssembly (20,075,578 us, 14.86%)</title><rect x="946.7" y="135" width="175.3" height="15.0" fill="rgb(0,0,0)" rx="2" ry="2" />
<text  x="949.74" y="145.5" >HybridOperatorAssembly</text>
</g>
<g >
<title>Parloop_Cells_wrap_form00_cell_integral_otherwise (11,933,247 us, 8.83%)</title><rect x="224.3" y="135" width="104.2" height="15.0" fill="rgb(0,0,0)" rx="2" ry="2" />
<text  x="227.28" y="145.5" >Parloop_Cel..</text>
</g>
<g >
<title>Parloop_Cells_wrap_form_exterior_facet_bottom_integral_otherwise (1,181,885 us, 0.87%)</title><rect x="40.8" y="103" width="10.3" height="15.0" fill="rgb(0,0,0)" rx="2" ry="2" />
<text  x="43.78" y="113.5" ></text>
</g>
<g >
<title>pyop2.caching.disk_cached.&lt;locals&gt;.decorator.&lt;locals&gt;.wrapper (18,982 us, 0.01%)</title><rect x="110.6" y="119" width="0.2" height="15.0" fill="rgb(0,0,0)" rx="2" ry="2" />
<text  x="113.63" y="129.5" ></text>
</g>
<g >
<title>pyop2.global_kernel.GlobalKernel.compile (2,738,409 us, 2.03%)</title><rect x="1155.8" y="151" width="23.9" height="15.0" fill="rgb(0,0,0)" rx="2" ry="2" />
<text  x="1158.76" y="161.5" >p..</text>
</g>
<g >
<title>pyop2.global_kernel.GlobalKernel.compile (11,933,247 us, 8.83%)</title><rect x="224.3" y="151" width="104.2" height="15.0" fill="rgb(0,0,0)" rx="2" ry="2" />
<text  x="227.28" y="161.5" >pyop2.globa..</text>
</g>
<g >
<title>HybridBreak (864,533 us, 0.64%)</title><rect x="816.8" y="151" width="7.5" height="15.0" fill="rgb(0,0,0)" rx="2" ry="2" />
<text  x="819.78" y="161.5" ></text>
</g>
<g >
<title>Parloop_Cells_wrap_form0_cell_integral_otherwise (3,154,854 us, 2.33%)</title><rect x="487.1" y="167" width="27.5" height="15.0" fill="rgb(0,0,0)" rx="2" ry="2" />
<text  x="490.09" y="177.5" >P..</text>
</g>
<g >
<title>SCForwardElim (14,831,426 us, 10.97%)</title><rect x="816.8" y="135" width="129.5" height="15.0" fill="rgb(0,0,0)" rx="2" ry="2" />
<text  x="819.78" y="145.5" >SCForwardElim</text>
</g>
<g >
<title>firedrake.norms.errornorm (6,564,486 us, 4.86%)</title><rect x="429.7" y="71" width="57.3" height="15.0" fill="rgb(0,0,0)" rx="2" ry="2" />
<text  x="432.65" y="81.5" >fired..</text>
</g>
<g >
<title>firedrake.assemble.assemble (22,275,368 us, 16.48%)</title><rect x="224.3" y="103" width="194.5" height="15.0" fill="rgb(0,0,0)" rx="2" ry="2" />
<text  x="227.28" y="113.5" >firedrake.assemble.asse..</text>
</g>
<g >
<title>ParLoopExecute (5,907,213 us, 4.37%)</title><rect x="1128.1" y="119" width="51.6" height="15.0" fill="rgb(0,0,0)" rx="2" ry="2" />
<text  x="1131.09" y="129.5" >ParL..</text>
</g>
<g >
<title>RecoverFirstElim (17,511,058 us, 12.96%)</title><rect x="647.5" y="151" width="152.9" height="15.0" fill="rgb(0,0,0)" rx="2" ry="2" />
<text  x="650.55" y="161.5" >RecoverFirstElim</text>
</g>
<g >
<title>firedrake.variational_solver.NonlinearVariationalSolver.solve (80,501,544 us, 59.57%)</title><rect x="487.1" y="71" width="702.9" height="15.0" fill="rgb(0,0,0)" rx="2" ry="2" />
<text  x="490.09" y="81.5" >firedrake.variational_solver.NonlinearVariationalSolver.solve</text>
</g>
<g >
<title>firedrake.tsfc_interface.compile_form (1,245,589 us, 0.92%)</title><rect x="418.8" y="103" width="10.9" height="15.0" fill="rgb(0,0,0)" rx="2" ry="2" />
<text  x="421.78" y="113.5" ></text>
</g>
<g >
<title>ParLoopExecute (15,823,701 us, 11.71%)</title><rect x="961.4" y="151" width="138.2" height="15.0" fill="rgb(0,0,0)" rx="2" ry="2" />
<text  x="964.41" y="161.5" >ParLoopExecute</text>
</g>
<g >
<title>Parloop_ExtFacets_wrap_form0_exterior_facet_vert_integral_otherwise (1,793,942 us, 1.33%)</title><rect x="189.6" y="119" width="15.6" height="15.0" fill="rgb(0,0,0)" rx="2" ry="2" />
<text  x="192.59" y="129.5" ></text>
</g>
<g >
<title>pyop2.global_kernel.GlobalKernel.compile (5,713,179 us, 4.23%)</title><rect x="429.7" y="151" width="49.8" height="15.0" fill="rgb(0,0,0)" rx="2" ry="2" />
<text  x="432.65" y="161.5" >pyop..</text>
</g>
<g >
<title>Parloop_set_#x7f650caca950_wrap_expression_kernel (372,649 us, 0.28%)</title><rect x="107.4" y="135" width="3.2" height="15.0" fill="rgb(0,0,0)" rx="2" ry="2" />
<text  x="110.37" y="145.5" ></text>
</g>
<g >
<title>pyop2.global_kernel.GlobalKernel.compile (10,135,342 us, 7.50%)</title><rect x="559.1" y="183" width="88.4" height="15.0" fill="rgb(0,0,0)" rx="2" ry="2" />
<text  x="562.05" y="193.5" >pyop2.glo..</text>
</g>
<g >
<title>ParLoopExecute (5,354,389 us, 3.96%)</title><rect x="487.1" y="151" width="46.7" height="15.0" fill="rgb(0,0,0)" rx="2" ry="2" />
<text  x="490.09" y="161.5" >ParL..</text>
</g>
<g >
<title>pyop2.global_kernel.GlobalKernel.compile (1,819,241 us, 1.35%)</title><rect x="72.2" y="119" width="15.9" height="15.0" fill="rgb(0,0,0)" rx="2" ry="2" />
<text  x="75.21" y="129.5" ></text>
</g>
<g >
<title>Parloop_Cells_wrap_form0_exterior_facet_bottom_integral_otherwise (1,234,001 us, 0.91%)</title><rect x="155.5" y="119" width="10.7" height="15.0" fill="rgb(0,0,0)" rx="2" ry="2" />
<text  x="158.46" y="129.5" ></text>
</g>
<g >
<title>ParLoopExecute (10,135,342 us, 7.50%)</title><rect x="559.1" y="151" width="88.4" height="15.0" fill="rgb(0,0,0)" rx="2" ry="2" />
<text  x="562.05" y="161.5" >ParLoopEx..</text>
</g>
<g >
<title>SNESSolve (80,501,544 us, 59.57%)</title><rect x="487.1" y="87" width="702.9" height="15.0" fill="rgb(0,0,0)" rx="2" ry="2" />
<text  x="490.09" y="97.5" >SNESSolve</text>
</g>
<g >
<title>Parloop_Cells_wrap_pyop2_kernel_uniform_extrusion (850,074 us, 0.63%)</title><rect x="19.8" y="119" width="7.5" height="15.0" fill="rgb(0,0,0)" rx="2" ry="2" />
<text  x="22.84" y="129.5" ></text>
</g>
<g >
<title>CreateExtMesh (880,777 us, 0.65%)</title><rect x="19.6" y="71" width="7.7" height="15.0" fill="rgb(0,0,0)" rx="2" ry="2" />
<text  x="22.57" y="81.5" ></text>
</g>
<g >
<title>firedrake.formmanipulation.ExtractSubBlock.split (14,483 us, 0.01%)</title><rect x="1122.0" y="151" width="0.2" height="15.0" fill="rgb(0,0,0)" rx="2" ry="2" />
<text  x="1125.03" y="161.5" ></text>
</g>
<g >
<title>Parloop_Cells_wrap_form0_cell_integral_otherwise (4,183,989 us, 3.10%)</title><rect x="118.9" y="119" width="36.6" height="15.0" fill="rgb(0,0,0)" rx="2" ry="2" />
<text  x="121.92" y="129.5" >Pa..</text>
</g>
<g >
<title>firedrake.functionspaceimpl.FunctionSpace.__init__ (18,555 us, 0.01%)</title><rect x="27.3" y="87" width="0.1" height="15.0" fill="rgb(0,0,0)" rx="2" ry="2" />
<text  x="30.26" y="97.5" ></text>
</g>
<g >
<title>firedrake.parloops.par_loop (679,894 us, 0.50%)</title><rect x="1122.2" y="135" width="5.9" height="15.0" fill="rgb(0,0,0)" rx="2" ry="2" />
<text  x="1125.16" y="145.5" ></text>
</g>
<g >
<title>SNESFunctionEval (7,089,981 us, 5.25%)</title><rect x="1128.1" y="103" width="61.9" height="15.0" fill="rgb(0,0,0)" rx="2" ry="2" />
<text  x="1131.09" y="113.5" >SNESFu..</text>
</g>
<g >
<title>Parloop_Cells_wrap_form00_exterior_facet_bottom_integral_otherwise (1,527,822 us, 1.13%)</title><rect x="328.5" y="135" width="13.3" height="15.0" fill="rgb(0,0,0)" rx="2" ry="2" />
<text  x="331.47" y="145.5" ></text>
</g>
<g >
<title>Parloop_ExtFacets_wrap_form_exterior_facet_vert_integral_otherwise (1,819,241 us, 1.35%)</title><rect x="72.2" y="103" width="15.9" height="15.0" fill="rgb(0,0,0)" rx="2" ry="2" />
<text  x="75.21" y="113.5" ></text>
</g>
<g >
<title>firedrake.ufl_expr.adjoint (13,814 us, 0.01%)</title><rect x="487.0" y="103" width="0.1" height="15.0" fill="rgb(0,0,0)" rx="2" ry="2" />
<text  x="489.97" y="113.5" ></text>
</g>
<g >
<title>pyop2.global_kernel.GlobalKernel.compile (3,168,804 us, 2.34%)</title><rect x="1128.1" y="151" width="27.7" height="15.0" fill="rgb(0,0,0)" rx="2" ry="2" />
<text  x="1131.09" y="161.5" >p..</text>
</g>
<g >
<title>firedrake.tsfc_interface.compile_form (1,182,768 us, 0.88%)</title><rect x="1179.7" y="119" width="10.3" height="15.0" fill="rgb(0,0,0)" rx="2" ry="2" />
<text  x="1182.67" y="129.5" ></text>
</g>
<g >
<title>pyop2.global_kernel.GlobalKernel.compile (1,588,850 us, 1.18%)</title><rect x="341.8" y="151" width="13.9" height="15.0" fill="rgb(0,0,0)" rx="2" ry="2" />
<text  x="344.81" y="161.5" ></text>
</g>
<g >
<title>Parloop_Cells_wrap_wrap_slate_loopy_knl_0 (15,823,701 us, 11.71%)</title><rect x="961.4" y="167" width="138.2" height="15.0" fill="rgb(0,0,0)" rx="2" ry="2" />
<text  x="964.41" y="177.5" >Parloop_Cells_wr..</text>
</g>
<g >
<title>pyop2.global_kernel.GlobalKernel.compile (1,187,252 us, 0.88%)</title><rect x="51.1" y="119" width="10.4" height="15.0" fill="rgb(0,0,0)" rx="2" ry="2" />
<text  x="54.10" y="129.5" ></text>
</g>
<g >
<title>PCApply (46,358,966 us, 34.30%)</title><rect x="541.5" y="119" width="404.8" height="15.0" fill="rgb(0,0,0)" rx="2" ry="2" />
<text  x="544.49" y="129.5" >PCApply</text>
</g>
<g >
<title>firedrake.variational_solver.NonlinearVariationalProblem.__init__ (13,814 us, 0.01%)</title><rect x="487.0" y="87" width="0.1" height="15.0" fill="rgb(0,0,0)" rx="2" ry="2" />
<text  x="489.97" y="97.5" ></text>
</g>
<g >
<title>pyop2.global_kernel.GlobalKernel.compile (2,179,013 us, 1.61%)</title><rect x="205.2" y="135" width="19.1" height="15.0" fill="rgb(0,0,0)" rx="2" ry="2" />
<text  x="208.25" y="145.5" ></text>
</g>
<g >
<title>pyop2.global_kernel.GlobalKernel.compile (2,199,535 us, 1.63%)</title><rect x="514.6" y="183" width="19.2" height="15.0" fill="rgb(0,0,0)" rx="2" ry="2" />
<text  x="517.64" y="193.5" ></text>
</g>
<g >
<title>PCSetUp (20,822,242 us, 15.41%)</title><rect x="946.3" y="103" width="181.8" height="15.0" fill="rgb(0,0,0)" rx="2" ry="2" />
<text  x="949.28" y="113.5" >PCSetUp</text>
</g>
<g >
<title>firedrake.parloops.par_loop (842,441 us, 0.62%)</title><rect x="551.7" y="167" width="7.4" height="15.0" fill="rgb(0,0,0)" rx="2" ry="2" />
<text  x="554.70" y="177.5" ></text>
</g>
<g >
<title>Parloop_Cells_wrap_form00_interior_facet_horiz_integral_otherwise (1,685,070 us, 1.25%)</title><rect x="355.7" y="135" width="14.7" height="15.0" fill="rgb(0,0,0)" rx="2" ry="2" />
<text  x="358.69" y="145.5" ></text>
</g>
<g >
<title>pyop2.global_kernel.GlobalKernel.compile (1,263,216 us, 0.93%)</title><rect x="166.2" y="135" width="11.1" height="15.0" fill="rgb(0,0,0)" rx="2" ry="2" />
<text  x="169.23" y="145.5" ></text>
</g>
<g >
<title>firedrake.tsfc_interface.compile_form (851,307 us, 0.63%)</title><rect x="479.5" y="119" width="7.5" height="15.0" fill="rgb(0,0,0)" rx="2" ry="2" />
<text  x="482.54" y="129.5" ></text>
</g>
<g >
<title>Parloop_IntFacets_wrap_form0_interior_facet_vert_integral_otherwise (2,179,013 us, 1.61%)</title><rect x="205.2" y="119" width="19.1" height="15.0" fill="rgb(0,0,0)" rx="2" ry="2" />
<text  x="208.25" y="129.5" ></text>
</g>
<g >
<title>KSPSolve (52,589,321 us, 38.91%)</title><rect x="487.1" y="103" width="459.2" height="15.0" fill="rgb(0,0,0)" rx="2" ry="2" />
<text  x="490.09" y="113.5" >KSPSolve</text>
</g>
<g >
<title>Parloop_Cells_wrap_form0_exterior_facet_top_integral_otherwise (1,263,216 us, 0.93%)</title><rect x="166.2" y="119" width="11.1" height="15.0" fill="rgb(0,0,0)" rx="2" ry="2" />
<text  x="169.23" y="129.5" ></text>
</g>
<g >
<title>Parloop_Cells_wrap_wrap_slate_loopy_knl_14 (10,135,342 us, 7.50%)</title><rect x="559.1" y="167" width="88.4" height="15.0" fill="rgb(0,0,0)" rx="2" ry="2" />
<text  x="562.05" y="177.5" >Parloop_C..</text>
</g>
<g >
<title>Parloop_Cells_wrap_form0_cell_integral_otherwise (3,168,804 us, 2.34%)</title><rect x="1128.1" y="135" width="27.7" height="15.0" fill="rgb(0,0,0)" rx="2" ry="2" />
<text  x="1131.09" y="145.5" >P..</text>
</g>
<g >
<title>pyop2.global_kernel.GlobalKernel.compile (4,183,989 us, 3.10%)</title><rect x="118.9" y="135" width="36.6" height="15.0" fill="rgb(0,0,0)" rx="2" ry="2" />
<text  x="121.92" y="145.5" >py..</text>
</g>
<g >
<title>ParLoopExecute (12,065,670 us, 8.93%)</title><rect x="118.9" y="103" width="105.4" height="15.0" fill="rgb(0,0,0)" rx="2" ry="2" />
<text  x="121.92" y="113.5" >ParLoopExec..</text>
</g>
<g >
<title>firedrake.tsfc_interface.compile_form (913,100 us, 0.68%)</title><rect x="110.8" y="87" width="8.0" height="15.0" fill="rgb(0,0,0)" rx="2" ry="2" />
<text  x="113.79" y="97.5" ></text>
</g>
<g >
<title>ParLoopExecute (850,074 us, 0.63%)</title><rect x="19.8" y="103" width="7.5" height="15.0" fill="rgb(0,0,0)" rx="2" ry="2" />
<text  x="22.84" y="113.5" ></text>
</g>
<g >
<title>pyop2.global_kernel.GlobalKernel.compile (850,074 us, 0.63%)</title><rect x="19.8" y="135" width="7.5" height="15.0" fill="rgb(0,0,0)" rx="2" ry="2" />
<text  x="22.84" y="145.5" ></text>
</g>
<g >
<title>all (135,141,048 us, 100%)</title><rect x="10.0" y="39" width="1180.0" height="15.0" fill="rgb(0,0,0)" rx="2" ry="2" />
<text  x="13.00" y="49.5" ></text>
</g>
<g >
<title>pyop2.global_kernel.GlobalKernel.compile (679,894 us, 0.50%)</title><rect x="1122.2" y="183" width="5.9" height="15.0" fill="rgb(0,0,0)" rx="2" ry="2" />
<text  x="1125.16" y="193.5" ></text>
</g>
<g >
<title>pyop2.global_kernel.GlobalKernel.compile (372,649 us, 0.28%)</title><rect x="107.4" y="151" width="3.2" height="15.0" fill="rgb(0,0,0)" rx="2" ry="2" />
<text  x="110.37" y="161.5" ></text>
</g>
<g >
<title>Parloop_Cells_wrap_par_loop_kernel (679,894 us, 0.50%)</title><rect x="1122.2" y="167" width="5.9" height="15.0" fill="rgb(0,0,0)" rx="2" ry="2" />
<text  x="1125.16" y="177.5" ></text>
</g>
<g >
<title>Parloop_Cells_wrap_form1_cell_integral_otherwise (2,199,535 us, 1.63%)</title><rect x="514.6" y="167" width="19.2" height="15.0" fill="rgb(0,0,0)" rx="2" ry="2" />
<text  x="517.64" y="177.5" ></text>
</g>
<g >
<title>firedrake.assemble.assemble (6,564,486 us, 4.86%)</title><rect x="429.7" y="103" width="57.3" height="15.0" fill="rgb(0,0,0)" rx="2" ry="2" />
<text  x="432.65" y="113.5" >fired..</text>
</g>
<g >
<title>Parloop_Cells_wrap_form_exterior_facet_top_integral_otherwise (1,187,252 us, 0.88%)</title><rect x="51.1" y="103" width="10.4" height="15.0" fill="rgb(0,0,0)" rx="2" ry="2" />
<text  x="54.10" y="113.5" ></text>
</g>
</g>
</svg>
