<?xml version="1.0" standalone="no"?>
<!DOCTYPE svg PUBLIC "-//W3C//DTD SVG 1.1//EN" "http://www.w3.org/Graphics/SVG/1.1/DTD/svg11.dtd">
<svg version="1.1" width="1200" height="267" onload="init(evt)" viewBox="0 0 1200 267" xmlns="http://www.w3.org/2000/svg" xmlns:xlink="http://www.w3.org/1999/xlink">
<!-- Flame graph stack visualization. See https://github.com/brendangregg/FlameGraph for latest version, and http://www.brendangregg.com/flamegraphs.html for examples. -->
<!-- NOTES:  -->
<defs>
	<linearGradient id="background" y1="0" y2="1" x1="0" x2="0" >
		<stop stop-color="#eeeeee" offset="5%" />
		<stop stop-color="#eeeeb0" offset="95%" />
	</linearGradient>
</defs>
<style type="text/css">
	text { font-family:Verdana; font-size:13px; fill:rgb(0,0,0); }
	#search, #ignorecase { opacity:0.1; cursor:pointer; }
	#search:hover, #search.show, #ignorecase:hover, #ignorecase.show { opacity:1; }
	#subtitle { text-anchor:middle; font-color:rgb(160,160,160); }
	#title { text-anchor:middle; font-size:18px}
	#unzoom { cursor:pointer; }
	#frames > *:hover { stroke:black; stroke-width:0.5; cursor:pointer; }
	.hide { display:none; }
	.parent { opacity:0.5; }
</style>
<script type="text/ecmascript">
<![CDATA[
	"use strict";
	var details, searchbtn, unzoombtn, matchedtxt, svg, searching, currentSearchTerm, ignorecase, ignorecaseBtn;
	function init(evt) {
		details = document.getElementById("details").firstChild;
		searchbtn = document.getElementById("search");
		ignorecaseBtn = document.getElementById("ignorecase");
		unzoombtn = document.getElementById("unzoom");
		matchedtxt = document.getElementById("matched");
		svg = document.getElementsByTagName("svg")[0];
		searching = 0;
		currentSearchTerm = null;

		// use GET parameters to restore a flamegraphs state.
		var params = get_params();
		if (params.x && params.y)
			zoom(find_group(document.querySelector('[x="' + params.x + '"][y="' + params.y + '"]')));
                if (params.s) search(params.s);
	}

	// event listeners
	window.addEventListener("click", function(e) {
		var target = find_group(e.target);
		if (target) {
			if (target.nodeName == "a") {
				if (e.ctrlKey === false) return;
				e.preventDefault();
			}
			if (target.classList.contains("parent")) unzoom();
			zoom(target);
			if (!document.querySelector('.parent')) {
				clearzoom();
				return;
			}

			// set parameters for zoom state
			var el = target.querySelector("rect");
			if (el && el.attributes && el.attributes.y && el.attributes._orig_x) {
				var params = get_params()
				params.x = el.attributes._orig_x.value;
				params.y = el.attributes.y.value;
				history.replaceState(null, null, parse_params(params));
			}
		}
		else if (e.target.id == "unzoom") clearzoom();
		else if (e.target.id == "search") search_prompt();
		else if (e.target.id == "ignorecase") toggle_ignorecase();
	}, false)

	// mouse-over for info
	// show
	window.addEventListener("mouseover", function(e) {
		var target = find_group(e.target);
		if (target) details.nodeValue = "Function: " + g_to_text(target);
	}, false)

	// clear
	window.addEventListener("mouseout", function(e) {
		var target = find_group(e.target);
		if (target) details.nodeValue = ' ';
	}, false)

	// ctrl-F for search
	// ctrl-I to toggle case-sensitive search
	window.addEventListener("keydown",function (e) {
		if (e.keyCode === 114 || (e.ctrlKey && e.keyCode === 70)) {
			e.preventDefault();
			search_prompt();
		}
		else if (e.ctrlKey && e.keyCode === 73) {
			e.preventDefault();
			toggle_ignorecase();
		}
	}, false)

	// functions
	function get_params() {
		var params = {};
		var paramsarr = window.location.search.substr(1).split('&');
		for (var i = 0; i < paramsarr.length; ++i) {
			var tmp = paramsarr[i].split("=");
			if (!tmp[0] || !tmp[1]) continue;
			params[tmp[0]]  = decodeURIComponent(tmp[1]);
		}
		return params;
	}
	function parse_params(params) {
		var uri = "?";
		for (var key in params) {
			uri += key + '=' + encodeURIComponent(params[key]) + '&';
		}
		if (uri.slice(-1) == "&")
			uri = uri.substring(0, uri.length - 1);
		if (uri == '?')
			uri = window.location.href.split('?')[0];
		return uri;
	}
	function find_child(node, selector) {
		var children = node.querySelectorAll(selector);
		if (children.length) return children[0];
	}
	function find_group(node) {
		var parent = node.parentElement;
		if (!parent) return;
		if (parent.id == "frames") return node;
		return find_group(parent);
	}
	function orig_save(e, attr, val) {
		if (e.attributes["_orig_" + attr] != undefined) return;
		if (e.attributes[attr] == undefined) return;
		if (val == undefined) val = e.attributes[attr].value;
		e.setAttribute("_orig_" + attr, val);
	}
	function orig_load(e, attr) {
		if (e.attributes["_orig_"+attr] == undefined) return;
		e.attributes[attr].value = e.attributes["_orig_" + attr].value;
		e.removeAttribute("_orig_"+attr);
	}
	function g_to_text(e) {
		var text = find_child(e, "title").firstChild.nodeValue;
		return (text)
	}
	function g_to_func(e) {
		var func = g_to_text(e);
		// if there's any manipulation we want to do to the function
		// name before it's searched, do it here before returning.
		return (func);
	}
	function update_text(e) {
		var r = find_child(e, "rect");
		var t = find_child(e, "text");
		var w = parseFloat(r.attributes.width.value) -3;
		var txt = find_child(e, "title").textContent.replace(/\([^(]*\)$/,"");
		t.attributes.x.value = parseFloat(r.attributes.x.value) + 3;

		// Smaller than this size won't fit anything
		if (w < 2 * 13 * 0.59) {
			t.textContent = "";
			return;
		}

		t.textContent = txt;
		// Fit in full text width
		if (/^ *$/.test(txt) || t.getSubStringLength(0, txt.length) < w)
			return;

		for (var x = txt.length - 2; x > 0; x--) {
			if (t.getSubStringLength(0, x + 2) <= w) {
				t.textContent = txt.substring(0, x) + "..";
				return;
			}
		}
		t.textContent = "";
	}

	// zoom
	function zoom_reset(e) {
		if (e.attributes != undefined) {
			orig_load(e, "x");
			orig_load(e, "width");
		}
		if (e.childNodes == undefined) return;
		for (var i = 0, c = e.childNodes; i < c.length; i++) {
			zoom_reset(c[i]);
		}
	}
	function zoom_child(e, x, ratio) {
		if (e.attributes != undefined) {
			if (e.attributes.x != undefined) {
				orig_save(e, "x");
				e.attributes.x.value = (parseFloat(e.attributes.x.value) - x - 10) * ratio + 10;
				if (e.tagName == "text")
					e.attributes.x.value = find_child(e.parentNode, "rect[x]").attributes.x.value + 3;
			}
			if (e.attributes.width != undefined) {
				orig_save(e, "width");
				e.attributes.width.value = parseFloat(e.attributes.width.value) * ratio;
			}
		}

		if (e.childNodes == undefined) return;
		for (var i = 0, c = e.childNodes; i < c.length; i++) {
			zoom_child(c[i], x - 10, ratio);
		}
	}
	function zoom_parent(e) {
		if (e.attributes) {
			if (e.attributes.x != undefined) {
				orig_save(e, "x");
				e.attributes.x.value = 10;
			}
			if (e.attributes.width != undefined) {
				orig_save(e, "width");
				e.attributes.width.value = parseInt(svg.width.baseVal.value) - (10 * 2);
			}
		}
		if (e.childNodes == undefined) return;
		for (var i = 0, c = e.childNodes; i < c.length; i++) {
			zoom_parent(c[i]);
		}
	}
	function zoom(node) {
		var attr = find_child(node, "rect").attributes;
		var width = parseFloat(attr.width.value);
		var xmin = parseFloat(attr.x.value);
		var xmax = parseFloat(xmin + width);
		var ymin = parseFloat(attr.y.value);
		var ratio = (svg.width.baseVal.value - 2 * 10) / width;

		// XXX: Workaround for JavaScript float issues (fix me)
		var fudge = 0.0001;

		unzoombtn.classList.remove("hide");

		var el = document.getElementById("frames").children;
		for (var i = 0; i < el.length; i++) {
			var e = el[i];
			var a = find_child(e, "rect").attributes;
			var ex = parseFloat(a.x.value);
			var ew = parseFloat(a.width.value);
			var upstack;
			// Is it an ancestor
			if (1 == 0) {
				upstack = parseFloat(a.y.value) > ymin;
			} else {
				upstack = parseFloat(a.y.value) < ymin;
			}
			if (upstack) {
				// Direct ancestor
				if (ex <= xmin && (ex+ew+fudge) >= xmax) {
					e.classList.add("parent");
					zoom_parent(e);
					update_text(e);
				}
				// not in current path
				else
					e.classList.add("hide");
			}
			// Children maybe
			else {
				// no common path
				if (ex < xmin || ex + fudge >= xmax) {
					e.classList.add("hide");
				}
				else {
					zoom_child(e, xmin, ratio);
					update_text(e);
				}
			}
		}
		search();
	}
	function unzoom() {
		unzoombtn.classList.add("hide");
		var el = document.getElementById("frames").children;
		for(var i = 0; i < el.length; i++) {
			el[i].classList.remove("parent");
			el[i].classList.remove("hide");
			zoom_reset(el[i]);
			update_text(el[i]);
		}
		search();
	}
	function clearzoom() {
		unzoom();

		// remove zoom state
		var params = get_params();
		if (params.x) delete params.x;
		if (params.y) delete params.y;
		history.replaceState(null, null, parse_params(params));
	}

	// search
	function toggle_ignorecase() {
		ignorecase = !ignorecase;
		if (ignorecase) {
			ignorecaseBtn.classList.add("show");
		} else {
			ignorecaseBtn.classList.remove("show");
		}
		reset_search();
		search();
	}
	function reset_search() {
		var el = document.querySelectorAll("#frames rect");
		for (var i = 0; i < el.length; i++) {
			orig_load(el[i], "fill")
		}
		var params = get_params();
		delete params.s;
		history.replaceState(null, null, parse_params(params));
	}
	function search_prompt() {
		if (!searching) {
			var term = prompt("Enter a search term (regexp " +
			    "allowed, eg: ^ext4_)"
			    + (ignorecase ? ", ignoring case" : "")
			    + "\nPress Ctrl-i to toggle case sensitivity", "");
			if (term != null) search(term);
		} else {
			reset_search();
			searching = 0;
			currentSearchTerm = null;
			searchbtn.classList.remove("show");
			searchbtn.firstChild.nodeValue = "Search"
			matchedtxt.classList.add("hide");
			matchedtxt.firstChild.nodeValue = ""
		}
	}
	function search(term) {
		if (term) currentSearchTerm = term;

		var re = new RegExp(currentSearchTerm, ignorecase ? 'i' : '');
		var el = document.getElementById("frames").children;
		var matches = new Object();
		var maxwidth = 0;
		for (var i = 0; i < el.length; i++) {
			var e = el[i];
			var func = g_to_func(e);
			var rect = find_child(e, "rect");
			if (func == null || rect == null)
				continue;

			// Save max width. Only works as we have a root frame
			var w = parseFloat(rect.attributes.width.value);
			if (w > maxwidth)
				maxwidth = w;

			if (func.match(re)) {
				// highlight
				var x = parseFloat(rect.attributes.x.value);
				orig_save(rect, "fill");
				rect.attributes.fill.value = "rgb(230,0,230)";

				// remember matches
				if (matches[x] == undefined) {
					matches[x] = w;
				} else {
					if (w > matches[x]) {
						// overwrite with parent
						matches[x] = w;
					}
				}
				searching = 1;
			}
		}
		if (!searching)
			return;
		var params = get_params();
		params.s = currentSearchTerm;
		history.replaceState(null, null, parse_params(params));

		searchbtn.classList.add("show");
		searchbtn.firstChild.nodeValue = "Reset Search";

		// calculate percent matched, excluding vertical overlap
		var count = 0;
		var lastx = -1;
		var lastw = 0;
		var keys = Array();
		for (k in matches) {
			if (matches.hasOwnProperty(k))
				keys.push(k);
		}
		// sort the matched frames by their x location
		// ascending, then width descending
		keys.sort(function(a, b){
			return a - b;
		});
		// Step through frames saving only the biggest bottom-up frames
		// thanks to the sort order. This relies on the tree property
		// where children are always smaller than their parents.
		var fudge = 0.0001;	// JavaScript floating point
		for (var k in keys) {
			var x = parseFloat(keys[k]);
			var w = matches[keys[k]];
			if (x >= lastx + lastw - fudge) {
				count += w;
				lastx = x;
				lastw = w;
			}
		}
		// display matched percent
		matchedtxt.classList.remove("hide");
		var pct = 100 * count / maxwidth;
		if (pct != 100) pct = pct.toFixed(1)
		matchedtxt.firstChild.nodeValue = "Matched: " + pct + "%";
	}
]]>
</script>
<rect x="0.0" y="0" width="1200.0" height="267.0" fill="url(#background)"  />
<text id="title" x="600.00" y="26" >Firedrake example</text>
<text id="details" x="10.00" y="249" > </text>
<text id="unzoom" x="10.00" y="26" class="hide">Reset Zoom</text>
<text id="search" x="1090.00" y="26" >Search</text>
<text id="ignorecase" x="1174.00" y="26" >ic</text>
<text id="matched" x="1090.00" y="249" > </text>
<g id="frames">
<g >
<title>SCBackSub (34,471,205 us, 23.88%)</title><rect x="545.6" y="135" width="281.8" height="15.0" fill="rgb(0,0,0)" rx="2" ry="2" />
<text  x="548.63" y="145.5" >SCBackSub</text>
</g>
<g >
<title>firedrake.parloops.par_loop (954,465 us, 0.66%)</title><rect x="556.1" y="167" width="7.8" height="15.0" fill="rgb(0,0,0)" rx="2" ry="2" />
<text  x="559.15" y="177.5" ></text>
</g>
<g >
<title>Parloop_Cells_wrap_form00_exterior_facet_bottom_integral_otherwise (2,023,970 us, 1.40%)</title><rect x="327.0" y="135" width="16.6" height="15.0" fill="rgb(0,0,0)" rx="2" ry="2" />
<text  x="330.03" y="145.5" ></text>
</g>
<g >
<title>firedrake.tsfc_interface.compile_form (1,308,224 us, 0.91%)</title><rect x="421.1" y="103" width="10.7" height="15.0" fill="rgb(0,0,0)" rx="2" ry="2" />
<text  x="424.07" y="113.5" ></text>
</g>
<g >
<title>pyop2.global_kernel.GlobalKernel.compile (1,341,353 us, 0.93%)</title><rect x="156.9" y="135" width="10.9" height="15.0" fill="rgb(0,0,0)" rx="2" ry="2" />
<text  x="159.88" y="145.5" ></text>
</g>
<g >
<title>Parloop_ExtFacets_wrap_form00_exterior_facet_vert_integral_otherwise (2,212,833 us, 1.53%)</title><rect x="372.3" y="135" width="18.1" height="15.0" fill="rgb(0,0,0)" rx="2" ry="2" />
<text  x="375.27" y="145.5" ></text>
</g>
<g >
<title>firedrake.functionspacedata.get_shared_data (19,656 us, 0.01%)</title><rect x="26.7" y="103" width="0.2" height="15.0" fill="rgb(0,0,0)" rx="2" ry="2" />
<text  x="29.75" y="113.5" ></text>
</g>
<g >
<title>firedrake.tsfc_interface.compile_form (924,036 us, 0.64%)</title><rect x="538.1" y="151" width="7.5" height="15.0" fill="rgb(0,0,0)" rx="2" ry="2" />
<text  x="541.07" y="161.5" ></text>
</g>
<g >
<title>pyop2.global_kernel.GlobalKernel.compile (11,170,382 us, 7.74%)</title><rect x="563.9" y="183" width="91.4" height="15.0" fill="rgb(0,0,0)" rx="2" ry="2" />
<text  x="566.95" y="193.5" >pyop2.glo..</text>
</g>
<g >
<title>pyop2.global_kernel.GlobalKernel.compile (4,637,644 us, 3.21%)</title><rect x="119.0" y="135" width="37.9" height="15.0" fill="rgb(0,0,0)" rx="2" ry="2" />
<text  x="121.98" y="145.5" >py..</text>
</g>
<g >
<title>pyop2.global_kernel.GlobalKernel.compile (954,465 us, 0.66%)</title><rect x="556.1" y="215" width="7.8" height="15.0" fill="rgb(0,0,0)" rx="2" ry="2" />
<text  x="559.15" y="225.5" ></text>
</g>
<g >
<title>ParLoopExecute (5,883,307 us, 4.08%)</title><rect x="490.0" y="151" width="48.1" height="15.0" fill="rgb(0,0,0)" rx="2" ry="2" />
<text  x="492.98" y="161.5" >ParL..</text>
</g>
<g >
<title>pyop2.global_kernel.GlobalKernel.compile (1,779,817 us, 1.23%)</title><rect x="357.7" y="151" width="14.6" height="15.0" fill="rgb(0,0,0)" rx="2" ry="2" />
<text  x="360.72" y="161.5" ></text>
</g>
<g >
<title>ParLoopExecute (902,444 us, 0.63%)</title><rect x="19.4" y="103" width="7.3" height="15.0" fill="rgb(0,0,0)" rx="2" ry="2" />
<text  x="22.37" y="113.5" ></text>
</g>
<g >
<title>pyop2.global_kernel.GlobalKernel.compile (1,730,109 us, 1.20%)</title><rect x="343.6" y="151" width="14.1" height="15.0" fill="rgb(0,0,0)" rx="2" ry="2" />
<text  x="346.58" y="161.5" ></text>
</g>
<g >
<title>HybridBreak (935,796 us, 0.65%)</title><rect x="827.4" y="151" width="7.6" height="15.0" fill="rgb(0,0,0)" rx="2" ry="2" />
<text  x="830.39" y="161.5" ></text>
</g>
<g >
<title>pyop2.global_kernel.GlobalKernel.compile (628,432 us, 0.44%)</title><rect x="1124.9" y="183" width="5.2" height="15.0" fill="rgb(0,0,0)" rx="2" ry="2" />
<text  x="1127.94" y="193.5" ></text>
</g>
<g >
<title>Parloop_Cells_wrap_wrap_slate_loopy_knl_4 (11,926,170 us, 8.26%)</title><rect x="844.8" y="183" width="97.5" height="15.0" fill="rgb(0,0,0)" rx="2" ry="2" />
<text  x="847.80" y="193.5" >Parloop_Ce..</text>
</g>
<g >
<title>pyop2.global_kernel.GlobalKernel.compile (16,250,192 us, 11.26%)</title><rect x="972.0" y="183" width="132.8" height="15.0" fill="rgb(0,0,0)" rx="2" ry="2" />
<text  x="974.97" y="193.5" >pyop2.global_ke..</text>
</g>
<g >
<title>firedrake.function.Function.project (38,286,810 us, 26.52%)</title><rect x="118.8" y="71" width="313.0" height="15.0" fill="rgb(0,0,0)" rx="2" ry="2" />
<text  x="121.82" y="81.5" >firedrake.function.Function.project</text>
</g>
<g >
<title>pyop2.global_kernel.GlobalKernel.compile (3,444,886 us, 2.39%)</title><rect x="490.0" y="183" width="28.1" height="15.0" fill="rgb(0,0,0)" rx="2" ry="2" />
<text  x="492.98" y="193.5" >p..</text>
</g>
<g >
<title>pyop2.global_kernel.GlobalKernel.compile (1,465,637 us, 1.02%)</title><rect x="179.3" y="135" width="12.0" height="15.0" fill="rgb(0,0,0)" rx="2" ry="2" />
<text  x="182.31" y="145.5" ></text>
</g>
<g >
<title>Parloop_Cells_wrap_form0_exterior_facet_bottom_integral_otherwise (1,341,353 us, 0.93%)</title><rect x="156.9" y="119" width="10.9" height="15.0" fill="rgb(0,0,0)" rx="2" ry="2" />
<text  x="159.88" y="129.5" ></text>
</g>
<g >
<title>ParLoopExecute (628,432 us, 0.44%)</title><rect x="1124.9" y="151" width="5.2" height="15.0" fill="rgb(0,0,0)" rx="2" ry="2" />
<text  x="1127.94" y="161.5" ></text>
</g>
<g >
<title>firedrake.parloops.par_loop (935,796 us, 0.65%)</title><rect x="827.4" y="167" width="7.6" height="15.0" fill="rgb(0,0,0)" rx="2" ry="2" />
<text  x="830.39" y="177.5" ></text>
</g>
<g >
<title>pyop2.global_kernel.GlobalKernel.compile (1,287,770 us, 0.89%)</title><rect x="39.6" y="119" width="10.5" height="15.0" fill="rgb(0,0,0)" rx="2" ry="2" />
<text  x="42.59" y="129.5" ></text>
</g>
<g >
<title>pyop2.global_kernel.GlobalKernel.compile (2,438,421 us, 1.69%)</title><rect x="518.1" y="183" width="20.0" height="15.0" fill="rgb(0,0,0)" rx="2" ry="2" />
<text  x="521.14" y="193.5" ></text>
</g>
<g >
<title>Parloop_Cells_wrap_form0_cell_integral_otherwise (3,246,599 us, 2.25%)</title><rect x="1130.1" y="135" width="26.5" height="15.0" fill="rgb(0,0,0)" rx="2" ry="2" />
<text  x="1133.08" y="145.5" >P..</text>
</g>
<g >
<title>pyop2.global_kernel.GlobalKernel.compile (1,917,911 us, 1.33%)</title><rect x="70.2" y="119" width="15.7" height="15.0" fill="rgb(0,0,0)" rx="2" ry="2" />
<text  x="73.24" y="129.5" ></text>
</g>
<g >
<title>Parloop_set_#x7f1bc415bb20_wrap_expression_kernel (426,722 us, 0.30%)</title><rect x="107.3" y="135" width="3.4" height="15.0" fill="rgb(0,0,0)" rx="2" ry="2" />
<text  x="110.26" y="145.5" ></text>
</g>
<g >
<title>pyop2.global_kernel.GlobalKernel.compile (3,246,599 us, 2.25%)</title><rect x="1130.1" y="151" width="26.5" height="15.0" fill="rgb(0,0,0)" rx="2" ry="2" />
<text  x="1133.08" y="161.5" >p..</text>
</g>
<g >
<title>all (144,364,338 us, 100%)</title><rect x="10.0" y="39" width="1180.0" height="15.0" fill="rgb(0,0,0)" rx="2" ry="2" />
<text  x="13.00" y="49.5" ></text>
</g>
<g >
<title>Parloop_IntFacets_wrap_form_interior_facet_vert_integral_otherwise (2,231,336 us, 1.55%)</title><rect x="85.9" y="103" width="18.3" height="15.0" fill="rgb(0,0,0)" rx="2" ry="2" />
<text  x="88.92" y="113.5" ></text>
</g>
<g >
<title>firedrake.functionspaceimpl.FunctionSpace.__init__ (19,656 us, 0.01%)</title><rect x="26.7" y="87" width="0.2" height="15.0" fill="rgb(0,0,0)" rx="2" ry="2" />
<text  x="29.75" y="97.5" ></text>
</g>
<g >
<title>Parloop_Cells_wrap_form0_cell_integral_otherwise (4,637,644 us, 3.21%)</title><rect x="119.0" y="119" width="37.9" height="15.0" fill="rgb(0,0,0)" rx="2" ry="2" />
<text  x="121.98" y="129.5" >Pa..</text>
</g>
<g >
<title>pyop2.global_kernel.GlobalKernel.compile (935,796 us, 0.65%)</title><rect x="827.4" y="215" width="7.6" height="15.0" fill="rgb(0,0,0)" rx="2" ry="2" />
<text  x="830.39" y="225.5" ></text>
</g>
<g >
<title>firedrake.matrix_free.operators.ImplicitMatrixContext.mult (6,807,343 us, 4.72%)</title><rect x="490.0" y="135" width="55.6" height="15.0" fill="rgb(0,0,0)" rx="2" ry="2" />
<text  x="492.98" y="145.5" >fired..</text>
</g>
<g >
<title>SNESFunctionEval (7,330,686 us, 5.08%)</title><rect x="1130.1" y="103" width="59.9" height="15.0" fill="rgb(0,0,0)" rx="2" ry="2" />
<text  x="1133.08" y="113.5" >SNESF..</text>
</g>
<g >
<title>firedrake.variational_solver.LinearVariationalProblem.__init__ (19,734 us, 0.01%)</title><rect x="489.8" y="71" width="0.2" height="15.0" fill="rgb(0,0,0)" rx="2" ry="2" />
<text  x="492.82" y="81.5" ></text>
</g>
<g >
<title>firedrake.__init__ (1,551,712 us, 1.07%)</title><rect x="26.9" y="71" width="12.7" height="15.0" fill="rgb(0,0,0)" rx="2" ry="2" />
<text  x="29.91" y="81.5" ></text>
</g>
<g >
<title>firedrake.projection.project (38,286,810 us, 26.52%)</title><rect x="118.8" y="87" width="313.0" height="15.0" fill="rgb(0,0,0)" rx="2" ry="2" />
<text  x="121.82" y="97.5" >firedrake.projection.project</text>
</g>
<g >
<title>Parloop_Cells_wrap_form00_interior_facet_horiz_integral_otherwise (1,779,817 us, 1.23%)</title><rect x="357.7" y="135" width="14.6" height="15.0" fill="rgb(0,0,0)" rx="2" ry="2" />
<text  x="360.72" y="145.5" ></text>
</g>
<g >
<title>pyop2.global_kernel.GlobalKernel.compile (426,722 us, 0.30%)</title><rect x="107.3" y="151" width="3.4" height="15.0" fill="rgb(0,0,0)" rx="2" ry="2" />
<text  x="110.26" y="161.5" ></text>
</g>
<g >
<title>Parloop_Cells_wrap_form_exterior_facet_top_integral_otherwise (1,232,460 us, 0.85%)</title><rect x="50.1" y="103" width="10.1" height="15.0" fill="rgb(0,0,0)" rx="2" ry="2" />
<text  x="53.12" y="113.5" ></text>
</g>
<g >
<title>pyop2.global_kernel.GlobalKernel.compile (2,212,833 us, 1.53%)</title><rect x="372.3" y="151" width="18.1" height="15.0" fill="rgb(0,0,0)" rx="2" ry="2" />
<text  x="375.27" y="161.5" ></text>
</g>
<g >
<title>ParLoopExecute (22,281,149 us, 15.43%)</title><rect x="226.8" y="119" width="182.1" height="15.0" fill="rgb(0,0,0)" rx="2" ry="2" />
<text  x="229.82" y="129.5" >ParLoopExecute</text>
</g>
<g >
<title>pyop2.global_kernel.GlobalKernel.compile (1,232,460 us, 0.85%)</title><rect x="50.1" y="119" width="10.1" height="15.0" fill="rgb(0,0,0)" rx="2" ry="2" />
<text  x="53.12" y="129.5" ></text>
</g>
<g >
<title>firedrake.tsfc_interface.compile_form (1,484,555 us, 1.03%)</title><rect x="408.9" y="119" width="12.2" height="15.0" fill="rgb(0,0,0)" rx="2" ry="2" />
<text  x="411.94" y="129.5" ></text>
</g>
<g >
<title>PCSetUp (21,161,140 us, 14.66%)</title><rect x="957.1" y="103" width="173.0" height="15.0" fill="rgb(0,0,0)" rx="2" ry="2" />
<text  x="960.11" y="113.5" >PCSetUp</text>
</g>
<g >
<title>HybridOperatorAssembly (20,471,113 us, 14.18%)</title><rect x="957.6" y="135" width="167.3" height="15.0" fill="rgb(0,0,0)" rx="2" ry="2" />
<text  x="960.62" y="145.5" >HybridOperatorAssem..</text>
</g>
<g >
<title>pyop2.global_kernel.GlobalKernel.compile (1,877,770 us, 1.30%)</title><rect x="191.3" y="135" width="15.3" height="15.0" fill="rgb(0,0,0)" rx="2" ry="2" />
<text  x="194.29" y="145.5" ></text>
</g>
<g >
<title>pyop2.global_kernel.GlobalKernel.compile (12,260,798 us, 8.49%)</title><rect x="226.8" y="151" width="100.2" height="15.0" fill="rgb(0,0,0)" rx="2" ry="2" />
<text  x="229.82" y="161.5" >pyop2.globa..</text>
</g>
<g >
<title>Parloop_Cells_wrap_form1_cell_integral_otherwise (2,438,421 us, 1.69%)</title><rect x="518.1" y="167" width="20.0" height="15.0" fill="rgb(0,0,0)" rx="2" ry="2" />
<text  x="521.14" y="177.5" ></text>
</g>
<g >
<title>pyop2.global_kernel.GlobalKernel.compile (2,023,970 us, 1.40%)</title><rect x="327.0" y="151" width="16.6" height="15.0" fill="rgb(0,0,0)" rx="2" ry="2" />
<text  x="330.03" y="161.5" ></text>
</g>
<g >
<title>pyop2.global_kernel.GlobalKernel.compile (378,898 us, 0.26%)</title><rect x="104.2" y="151" width="3.1" height="15.0" fill="rgb(0,0,0)" rx="2" ry="2" />
<text  x="107.16" y="161.5" ></text>
</g>
<g >
<title>firedrake.extrusion_utils.make_extruded_coords (934,660 us, 0.65%)</title><rect x="19.1" y="87" width="7.6" height="15.0" fill="rgb(0,0,0)" rx="2" ry="2" />
<text  x="22.11" y="97.5" ></text>
</g>
<g >
<title>firedrake.assemble_expressions.evaluate_expression (825,864 us, 0.57%)</title><rect x="104.2" y="103" width="6.7" height="15.0" fill="rgb(0,0,0)" rx="2" ry="2" />
<text  x="107.16" y="113.5" ></text>
</g>
<g >
<title>pyop2.global_kernel.GlobalKernel.compile (2,956,006 us, 2.05%)</title><rect x="1156.6" y="151" width="24.2" height="15.0" fill="rgb(0,0,0)" rx="2" ry="2" />
<text  x="1159.62" y="161.5" >p..</text>
</g>
<g >
<title>ParLoopExecute (16,250,192 us, 11.26%)</title><rect x="972.0" y="151" width="132.8" height="15.0" fill="rgb(0,0,0)" rx="2" ry="2" />
<text  x="974.97" y="161.5" >ParLoopExecute</text>
</g>
<g >
<title>firedrake.norms.errornorm (7,103,061 us, 4.92%)</title><rect x="431.8" y="71" width="58.0" height="15.0" fill="rgb(0,0,0)" rx="2" ry="2" />
<text  x="434.76" y="81.5" >fired..</text>
</g>
<g >
<title>pyop2.global_kernel.GlobalKernel.compile (14,865,286 us, 10.30%)</title><rect x="668.8" y="199" width="121.5" height="15.0" fill="rgb(0,0,0)" rx="2" ry="2" />
<text  x="671.77" y="209.5" >pyop2.global_..</text>
</g>
<g >
<title>pyop2.global_kernel.GlobalKernel.compile (2,231,336 us, 1.55%)</title><rect x="85.9" y="119" width="18.3" height="15.0" fill="rgb(0,0,0)" rx="2" ry="2" />
<text  x="88.92" y="129.5" ></text>
</g>
<g >
<title>Parloop_Cells_wrap_wrap_slate_loopy_knl_14 (11,170,382 us, 7.74%)</title><rect x="563.9" y="167" width="91.4" height="15.0" fill="rgb(0,0,0)" rx="2" ry="2" />
<text  x="566.95" y="177.5" >Parloop_C..</text>
</g>
<g >
<title>Parloop_ExtFacets_wrap_form_exterior_facet_vert_integral_otherwise (1,917,911 us, 1.33%)</title><rect x="70.2" y="103" width="15.7" height="15.0" fill="rgb(0,0,0)" rx="2" ry="2" />
<text  x="73.24" y="113.5" ></text>
</g>
<g >
<title>pyop2.global_kernel.GlobalKernel.compile (1,229,678 us, 0.85%)</title><rect x="60.2" y="119" width="10.0" height="15.0" fill="rgb(0,0,0)" rx="2" ry="2" />
<text  x="63.19" y="129.5" ></text>
</g>
<g >
<title>Parloop_Cells_wrap_form_interior_facet_horiz_integral_otherwise (1,229,678 us, 0.85%)</title><rect x="60.2" y="103" width="10.0" height="15.0" fill="rgb(0,0,0)" rx="2" ry="2" />
<text  x="63.19" y="113.5" ></text>
</g>
<g >
<title>pyop2.global_kernel.GlobalKernel.compile (902,444 us, 0.63%)</title><rect x="19.4" y="135" width="7.3" height="15.0" fill="rgb(0,0,0)" rx="2" ry="2" />
<text  x="22.37" y="145.5" ></text>
</g>
<g >
<title>CreateFunctionSpace (19,656 us, 0.01%)</title><rect x="26.7" y="71" width="0.2" height="15.0" fill="rgb(0,0,0)" rx="2" ry="2" />
<text  x="29.75" y="81.5" ></text>
</g>
<g >
<title>ParLoopExecute (6,202,605 us, 4.30%)</title><rect x="1130.1" y="119" width="50.7" height="15.0" fill="rgb(0,0,0)" rx="2" ry="2" />
<text  x="1133.08" y="129.5" >ParL..</text>
</g>
<g >
<title>ParLoopExecute (805,620 us, 0.56%)</title><rect x="104.2" y="119" width="6.5" height="15.0" fill="rgb(0,0,0)" rx="2" ry="2" />
<text  x="107.16" y="129.5" ></text>
</g>
<g >
<title>firedrake.variational_solver.NonlinearVariationalSolver.solve (85,641,711 us, 59.32%)</title><rect x="490.0" y="71" width="700.0" height="15.0" fill="rgb(0,0,0)" rx="2" ry="2" />
<text  x="492.98" y="81.5" >firedrake.variational_solver.NonlinearVariationalSolver.solve</text>
</g>
<g >
<title>firedrake.tsfc_interface.compile_form (967,437 us, 0.67%)</title><rect x="110.9" y="87" width="7.9" height="15.0" fill="rgb(0,0,0)" rx="2" ry="2" />
<text  x="113.91" y="97.5" ></text>
</g>
<g >
<title>SNESSolve (85,641,711 us, 59.32%)</title><rect x="490.0" y="87" width="700.0" height="15.0" fill="rgb(0,0,0)" rx="2" ry="2" />
<text  x="492.98" y="97.5" >SNESSolve</text>
</g>
<g >
<title>RecoverFirstElim (19,109,340 us, 13.24%)</title><rect x="655.3" y="151" width="156.1" height="15.0" fill="rgb(0,0,0)" rx="2" ry="2" />
<text  x="658.25" y="161.5" >RecoverFirstElim</text>
</g>
<g >
<title>pyop2.global_kernel.GlobalKernel.compile (2,469,081 us, 1.71%)</title><rect x="206.6" y="135" width="20.2" height="15.0" fill="rgb(0,0,0)" rx="2" ry="2" />
<text  x="209.63" y="145.5" ></text>
</g>
<g >
<title>PCApply (50,342,542 us, 34.87%)</title><rect x="545.6" y="119" width="411.5" height="15.0" fill="rgb(0,0,0)" rx="2" ry="2" />
<text  x="548.63" y="129.5" >PCApply</text>
</g>
<g >
<title>Parloop_Cells_wrap_form_exterior_facet_bottom_integral_otherwise (1,287,770 us, 0.89%)</title><rect x="39.6" y="103" width="10.5" height="15.0" fill="rgb(0,0,0)" rx="2" ry="2" />
<text  x="42.59" y="113.5" ></text>
</g>
<g >
<title>Parloop_IntFacets_wrap_form0_interior_facet_vert_integral_otherwise (2,469,081 us, 1.71%)</title><rect x="206.6" y="119" width="20.2" height="15.0" fill="rgb(0,0,0)" rx="2" ry="2" />
<text  x="209.63" y="129.5" ></text>
</g>
<g >
<title>ParLoopExecute (935,796 us, 0.65%)</title><rect x="827.4" y="183" width="7.6" height="15.0" fill="rgb(0,0,0)" rx="2" ry="2" />
<text  x="830.39" y="193.5" ></text>
</g>
<g >
<title>Parloop_Cells_wrap_form0_exterior_facet_top_integral_otherwise (1,401,901 us, 0.97%)</title><rect x="167.8" y="119" width="11.5" height="15.0" fill="rgb(0,0,0)" rx="2" ry="2" />
<text  x="170.85" y="129.5" ></text>
</g>
<g >
<title>firedrake.tsfc_interface.compile_form (1,128,081 us, 0.78%)</title><rect x="1180.8" y="119" width="9.2" height="15.0" fill="rgb(0,0,0)" rx="2" ry="2" />
<text  x="1183.78" y="129.5" ></text>
</g>
<g >
<title>firedrake.assemble_expressions.assemble_expression (825,864 us, 0.57%)</title><rect x="104.2" y="87" width="6.7" height="15.0" fill="rgb(0,0,0)" rx="2" ry="2" />
<text  x="107.16" y="97.5" ></text>
</g>
<g >
<title>Parloop_Cells_wrap_form1_cell_integral_otherwise (2,956,006 us, 2.05%)</title><rect x="1156.6" y="135" width="24.2" height="15.0" fill="rgb(0,0,0)" rx="2" ry="2" />
<text  x="1159.62" y="145.5" >P..</text>
</g>
<g >
<title>CreateExtMesh (934,660 us, 0.65%)</title><rect x="19.1" y="71" width="7.6" height="15.0" fill="rgb(0,0,0)" rx="2" ry="2" />
<text  x="22.11" y="81.5" ></text>
</g>
<g >
<title>pyop2.global_kernel.GlobalKernel.compile (2,273,622 us, 1.57%)</title><rect x="390.4" y="151" width="18.5" height="15.0" fill="rgb(0,0,0)" rx="2" ry="2" />
<text  x="393.35" y="161.5" ></text>
</g>
<g >
<title>Parloop_Cells_wrap_par_loop_kernel (954,465 us, 0.66%)</title><rect x="556.1" y="199" width="7.8" height="15.0" fill="rgb(0,0,0)" rx="2" ry="2" />
<text  x="559.15" y="209.5" ></text>
</g>
<g >
<title>MatMult (6,807,343 us, 4.72%)</title><rect x="490.0" y="119" width="55.6" height="15.0" fill="rgb(0,0,0)" rx="2" ry="2" />
<text  x="492.98" y="129.5" >MatMult</text>
</g>
<g >
<title>Parloop_IntFacets_wrap_form00_interior_facet_vert_integral_otherwise (2,273,622 us, 1.57%)</title><rect x="390.4" y="135" width="18.5" height="15.0" fill="rgb(0,0,0)" rx="2" ry="2" />
<text  x="393.35" y="145.5" ></text>
</g>
<g >
<title>firedrake.norms.norm (7,103,061 us, 4.92%)</title><rect x="431.8" y="87" width="58.0" height="15.0" fill="rgb(0,0,0)" rx="2" ry="2" />
<text  x="434.76" y="97.5" >fired..</text>
</g>
<g >
<title>ParLoopExecute (14,865,286 us, 10.30%)</title><rect x="668.8" y="167" width="121.5" height="15.0" fill="rgb(0,0,0)" rx="2" ry="2" />
<text  x="671.77" y="177.5" >ParLoopExecute</text>
</g>
<g >
<title>pyop2.global_kernel.GlobalKernel.compile (1,401,901 us, 0.97%)</title><rect x="167.8" y="135" width="11.5" height="15.0" fill="rgb(0,0,0)" rx="2" ry="2" />
<text  x="170.85" y="145.5" ></text>
</g>
<g >
<title>HybridRHS (14,935,541 us, 10.35%)</title><rect x="835.0" y="151" width="122.1" height="15.0" fill="rgb(0,0,0)" rx="2" ry="2" />
<text  x="838.03" y="161.5" >HybridRHS</text>
</g>
<g >
<title>firedrake.tsfc_interface.compile_form (2,464,861 us, 1.71%)</title><rect x="1104.8" y="151" width="20.1" height="15.0" fill="rgb(0,0,0)" rx="2" ry="2" />
<text  x="1107.80" y="161.5" ></text>
</g>
<g >
<title>firedrake.tsfc_interface.compile_form (1,814,998 us, 1.26%)</title><rect x="942.3" y="167" width="14.8" height="15.0" fill="rgb(0,0,0)" rx="2" ry="2" />
<text  x="945.28" y="177.5" ></text>
</g>
<g >
<title>Parloop_Cells_wrap_wrap_slate_loopy_knl_0 (16,250,192 us, 11.26%)</title><rect x="972.0" y="167" width="132.8" height="15.0" fill="rgb(0,0,0)" rx="2" ry="2" />
<text  x="974.97" y="177.5" >Parloop_Cells_w..</text>
</g>
<g >
<title>Parloop_Cells_wrap_form0_interior_facet_horiz_integral_otherwise (1,465,637 us, 1.02%)</title><rect x="179.3" y="119" width="12.0" height="15.0" fill="rgb(0,0,0)" rx="2" ry="2" />
<text  x="182.31" y="129.5" ></text>
</g>
<g >
<title>firedrake.tsfc_interface.compile_form (2,590,027 us, 1.79%)</title><rect x="790.3" y="167" width="21.1" height="15.0" fill="rgb(0,0,0)" rx="2" ry="2" />
<text  x="793.28" y="177.5" ></text>
</g>
<g >
<title>ParLoopExecute (11,170,382 us, 7.74%)</title><rect x="563.9" y="151" width="91.4" height="15.0" fill="rgb(0,0,0)" rx="2" ry="2" />
<text  x="566.95" y="161.5" >ParLoopEx..</text>
</g>
<g >
<title>firedrake.tsfc_interface.compile_form (1,273,354 us, 0.88%)</title><rect x="479.4" y="119" width="10.4" height="15.0" fill="rgb(0,0,0)" rx="2" ry="2" />
<text  x="482.42" y="129.5" ></text>
</g>
<g >
<title>firedrake.functionspacedata.FunctionSpaceData.__init__ (19,656 us, 0.01%)</title><rect x="26.7" y="119" width="0.2" height="15.0" fill="rgb(0,0,0)" rx="2" ry="2" />
<text  x="29.75" y="129.5" ></text>
</g>
<g >
<title>ParLoopExecute (13,193,386 us, 9.14%)</title><rect x="119.0" y="103" width="107.8" height="15.0" fill="rgb(0,0,0)" rx="2" ry="2" />
<text  x="121.98" y="113.5" >ParLoopExecute</text>
</g>
<g >
<title>pyop2.global_kernel.GlobalKernel.compile (5,829,707 us, 4.04%)</title><rect x="431.8" y="151" width="47.6" height="15.0" fill="rgb(0,0,0)" rx="2" ry="2" />
<text  x="434.76" y="161.5" >pyop..</text>
</g>
<g >
<title>ParLoopExecute (11,926,170 us, 8.26%)</title><rect x="844.8" y="167" width="97.5" height="15.0" fill="rgb(0,0,0)" rx="2" ry="2" />
<text  x="847.80" y="177.5" >ParLoopExe..</text>
</g>
<g >
<title>Parloop_ExtFacets_wrap_form0_exterior_facet_vert_integral_otherwise (1,877,770 us, 1.30%)</title><rect x="191.3" y="119" width="15.3" height="15.0" fill="rgb(0,0,0)" rx="2" ry="2" />
<text  x="194.29" y="129.5" ></text>
</g>
<g >
<title>Parloop_Cells_wrap_wrap_slate_loopy_knl_7 (14,865,286 us, 10.30%)</title><rect x="668.8" y="183" width="121.5" height="15.0" fill="rgb(0,0,0)" rx="2" ry="2" />
<text  x="671.77" y="193.5" >Parloop_Cells..</text>
</g>
<g >
<title>firedrake.assemble.assemble (9,692,456 us, 6.71%)</title><rect x="39.6" y="71" width="79.2" height="15.0" fill="rgb(0,0,0)" rx="2" ry="2" />
<text  x="42.59" y="81.5" >firedrak..</text>
</g>
<g >
<title>pyop2.global_kernel.GlobalKernel.compile (11,926,170 us, 8.26%)</title><rect x="844.8" y="199" width="97.5" height="15.0" fill="rgb(0,0,0)" rx="2" ry="2" />
<text  x="847.80" y="209.5" >pyop2.glob..</text>
</g>
<g >
<title>SCForwardElim (15,871,337 us, 10.99%)</title><rect x="827.4" y="135" width="129.7" height="15.0" fill="rgb(0,0,0)" rx="2" ry="2" />
<text  x="830.39" y="145.5" >SCForwardElim</text>
</g>
<g >
<title>Parloop_Cells_wrap_form0_cell_integral_otherwise (3,444,886 us, 2.39%)</title><rect x="490.0" y="167" width="28.1" height="15.0" fill="rgb(0,0,0)" rx="2" ry="2" />
<text  x="492.98" y="177.5" >P..</text>
</g>
<g >
<title>KSPSolve (57,149,885 us, 39.59%)</title><rect x="490.0" y="103" width="467.1" height="15.0" fill="rgb(0,0,0)" rx="2" ry="2" />
<text  x="492.98" y="113.5" >KSPSolve</text>
</g>
<g >
<title>firedrake.assemble.assemble (23,765,704 us, 16.46%)</title><rect x="226.8" y="103" width="194.3" height="15.0" fill="rgb(0,0,0)" rx="2" ry="2" />
<text  x="229.82" y="113.5" >firedrake.assemble.asse..</text>
</g>
<g >
<title>ParLoopExecute (954,465 us, 0.66%)</title><rect x="556.1" y="183" width="7.8" height="15.0" fill="rgb(0,0,0)" rx="2" ry="2" />
<text  x="559.15" y="193.5" ></text>
</g>
<g >
<title>Parloop_Cells_wrap_par_loop_kernel (935,796 us, 0.65%)</title><rect x="827.4" y="199" width="7.6" height="15.0" fill="rgb(0,0,0)" rx="2" ry="2" />
<text  x="830.39" y="209.5" ></text>
</g>
<g >
<title>ParLoopExecute (7,899,155 us, 5.47%)</title><rect x="39.6" y="87" width="64.6" height="15.0" fill="rgb(0,0,0)" rx="2" ry="2" />
<text  x="42.59" y="97.5" >ParLoo..</text>
</g>
<g >
<title>ParLoopExecute (5,829,707 us, 4.04%)</title><rect x="431.8" y="119" width="47.6" height="15.0" fill="rgb(0,0,0)" rx="2" ry="2" />
<text  x="434.76" y="129.5" >ParL..</text>
</g>
<g >
<title>Parloop_Cells_wrap_par_loop_kernel (628,432 us, 0.44%)</title><rect x="1124.9" y="167" width="5.2" height="15.0" fill="rgb(0,0,0)" rx="2" ry="2" />
<text  x="1127.94" y="177.5" ></text>
</g>
<g >
<title>firedrake.assemble.assemble (7,103,061 us, 4.92%)</title><rect x="431.8" y="103" width="58.0" height="15.0" fill="rgb(0,0,0)" rx="2" ry="2" />
<text  x="434.76" y="113.5" >fired..</text>
</g>
<g >
<title>pyop2.caching.disk_cached.&lt;locals&gt;.decorator.&lt;locals&gt;.wrapper (20,244 us, 0.01%)</title><rect x="110.7" y="119" width="0.2" height="15.0" fill="rgb(0,0,0)" rx="2" ry="2" />
<text  x="113.74" y="129.5" ></text>
</g>
<g >
<title>HybridProject (954,465 us, 0.66%)</title><rect x="556.1" y="151" width="7.8" height="15.0" fill="rgb(0,0,0)" rx="2" ry="2" />
<text  x="559.15" y="161.5" ></text>
</g>
<g >
<title>Parloop_Cells_wrap_form_cell_integral_otherwise (5,829,707 us, 4.04%)</title><rect x="431.8" y="135" width="47.6" height="15.0" fill="rgb(0,0,0)" rx="2" ry="2" />
<text  x="434.76" y="145.5" >Parl..</text>
</g>
<g >
<title>Parloop_Cells_wrap_form00_cell_integral_otherwise (12,260,798 us, 8.49%)</title><rect x="226.8" y="135" width="100.2" height="15.0" fill="rgb(0,0,0)" rx="2" ry="2" />
<text  x="229.82" y="145.5" >Parloop_Cel..</text>
</g>
<g >
<title>Parloop_Cells_wrap_pyop2_kernel_uniform_extrusion (902,444 us, 0.63%)</title><rect x="19.4" y="119" width="7.3" height="15.0" fill="rgb(0,0,0)" rx="2" ry="2" />
<text  x="22.37" y="129.5" ></text>
</g>
<g >
<title>firedrake (144,364,338 us, 100.00%)</title><rect x="10.0" y="55" width="1180.0" height="15.0" fill="rgb(0,0,0)" rx="2" ry="2" />
<text  x="13.00" y="65.5" >firedrake</text>
</g>
<g >
<title>firedrake.parloops.par_loop (628,432 us, 0.44%)</title><rect x="1124.9" y="135" width="5.2" height="15.0" fill="rgb(0,0,0)" rx="2" ry="2" />
<text  x="1127.94" y="145.5" ></text>
</g>
<g >
<title>HybridInit (21,161,140 us, 14.66%)</title><rect x="957.1" y="119" width="173.0" height="15.0" fill="rgb(0,0,0)" rx="2" ry="2" />
<text  x="960.11" y="129.5" >HybridInit</text>
</g>
<g >
<title>Parloop_set_#x7f1bc415a4d0_wrap_expression_kernel (378,898 us, 0.26%)</title><rect x="104.2" y="135" width="3.1" height="15.0" fill="rgb(0,0,0)" rx="2" ry="2" />
<text  x="107.16" y="145.5" ></text>
</g>
<g >
<title>Parloop_Cells_wrap_form00_exterior_facet_top_integral_otherwise (1,730,109 us, 1.20%)</title><rect x="343.6" y="135" width="14.1" height="15.0" fill="rgb(0,0,0)" rx="2" ry="2" />
<text  x="346.58" y="145.5" ></text>
</g>
<g >
<title>firedrake.tsfc_interface.compile_form (1,949,892 us, 1.35%)</title><rect x="811.4" y="151" width="16.0" height="15.0" fill="rgb(0,0,0)" rx="2" ry="2" />
<text  x="814.45" y="161.5" ></text>
</g>
</g>
</svg>
