<?xml version="1.0" standalone="no"?>
<!DOCTYPE svg PUBLIC "-//W3C//DTD SVG 1.1//EN" "http://www.w3.org/Graphics/SVG/1.1/DTD/svg11.dtd">
<svg version="1.1" width="1200" height="347" onload="init(evt)" viewBox="0 0 1200 347" xmlns="http://www.w3.org/2000/svg" xmlns:xlink="http://www.w3.org/1999/xlink">
<!-- Flame graph stack visualization. See https://github.com/brendangregg/FlameGraph for latest version, and http://www.brendangregg.com/flamegraphs.html for examples. -->
<!-- NOTES:  -->
<defs>
	<linearGradient id="background" y1="0" y2="1" x1="0" x2="0" >
		<stop stop-color="#eeeeee" offset="5%" />
		<stop stop-color="#eeeeb0" offset="95%" />
	</linearGradient>
</defs>
<style type="text/css">
	text { font-family:Verdana; font-size:13px; fill:rgb(0,0,0); }
	#search, #ignorecase { opacity:0.1; cursor:pointer; }
	#search:hover, #search.show, #ignorecase:hover, #ignorecase.show { opacity:1; }
	#subtitle { text-anchor:middle; font-color:rgb(160,160,160); }
	#title { text-anchor:middle; font-size:18px}
	#unzoom { cursor:pointer; }
	#frames > *:hover { stroke:black; stroke-width:0.5; cursor:pointer; }
	.hide { display:none; }
	.parent { opacity:0.5; }
</style>
<script type="text/ecmascript">
<![CDATA[
	"use strict";
	var details, searchbtn, unzoombtn, matchedtxt, svg, searching, currentSearchTerm, ignorecase, ignorecaseBtn;
	function init(evt) {
		details = document.getElementById("details").firstChild;
		searchbtn = document.getElementById("search");
		ignorecaseBtn = document.getElementById("ignorecase");
		unzoombtn = document.getElementById("unzoom");
		matchedtxt = document.getElementById("matched");
		svg = document.getElementsByTagName("svg")[0];
		searching = 0;
		currentSearchTerm = null;

		// use GET parameters to restore a flamegraphs state.
		var params = get_params();
		if (params.x && params.y)
			zoom(find_group(document.querySelector('[x="' + params.x + '"][y="' + params.y + '"]')));
                if (params.s) search(params.s);
	}

	// event listeners
	window.addEventListener("click", function(e) {
		var target = find_group(e.target);
		if (target) {
			if (target.nodeName == "a") {
				if (e.ctrlKey === false) return;
				e.preventDefault();
			}
			if (target.classList.contains("parent")) unzoom();
			zoom(target);
			if (!document.querySelector('.parent')) {
				clearzoom();
				return;
			}

			// set parameters for zoom state
			var el = target.querySelector("rect");
			if (el && el.attributes && el.attributes.y && el.attributes._orig_x) {
				var params = get_params()
				params.x = el.attributes._orig_x.value;
				params.y = el.attributes.y.value;
				history.replaceState(null, null, parse_params(params));
			}
		}
		else if (e.target.id == "unzoom") clearzoom();
		else if (e.target.id == "search") search_prompt();
		else if (e.target.id == "ignorecase") toggle_ignorecase();
	}, false)

	// mouse-over for info
	// show
	window.addEventListener("mouseover", function(e) {
		var target = find_group(e.target);
		if (target) details.nodeValue = "Function: " + g_to_text(target);
	}, false)

	// clear
	window.addEventListener("mouseout", function(e) {
		var target = find_group(e.target);
		if (target) details.nodeValue = ' ';
	}, false)

	// ctrl-F for search
	// ctrl-I to toggle case-sensitive search
	window.addEventListener("keydown",function (e) {
		if (e.keyCode === 114 || (e.ctrlKey && e.keyCode === 70)) {
			e.preventDefault();
			search_prompt();
		}
		else if (e.ctrlKey && e.keyCode === 73) {
			e.preventDefault();
			toggle_ignorecase();
		}
	}, false)

	// functions
	function get_params() {
		var params = {};
		var paramsarr = window.location.search.substr(1).split('&');
		for (var i = 0; i < paramsarr.length; ++i) {
			var tmp = paramsarr[i].split("=");
			if (!tmp[0] || !tmp[1]) continue;
			params[tmp[0]]  = decodeURIComponent(tmp[1]);
		}
		return params;
	}
	function parse_params(params) {
		var uri = "?";
		for (var key in params) {
			uri += key + '=' + encodeURIComponent(params[key]) + '&';
		}
		if (uri.slice(-1) == "&")
			uri = uri.substring(0, uri.length - 1);
		if (uri == '?')
			uri = window.location.href.split('?')[0];
		return uri;
	}
	function find_child(node, selector) {
		var children = node.querySelectorAll(selector);
		if (children.length) return children[0];
	}
	function find_group(node) {
		var parent = node.parentElement;
		if (!parent) return;
		if (parent.id == "frames") return node;
		return find_group(parent);
	}
	function orig_save(e, attr, val) {
		if (e.attributes["_orig_" + attr] != undefined) return;
		if (e.attributes[attr] == undefined) return;
		if (val == undefined) val = e.attributes[attr].value;
		e.setAttribute("_orig_" + attr, val);
	}
	function orig_load(e, attr) {
		if (e.attributes["_orig_"+attr] == undefined) return;
		e.attributes[attr].value = e.attributes["_orig_" + attr].value;
		e.removeAttribute("_orig_"+attr);
	}
	function g_to_text(e) {
		var text = find_child(e, "title").firstChild.nodeValue;
		return (text)
	}
	function g_to_func(e) {
		var func = g_to_text(e);
		// if there's any manipulation we want to do to the function
		// name before it's searched, do it here before returning.
		return (func);
	}
	function update_text(e) {
		var r = find_child(e, "rect");
		var t = find_child(e, "text");
		var w = parseFloat(r.attributes.width.value) -3;
		var txt = find_child(e, "title").textContent.replace(/\([^(]*\)$/,"");
		t.attributes.x.value = parseFloat(r.attributes.x.value) + 3;

		// Smaller than this size won't fit anything
		if (w < 2 * 13 * 0.59) {
			t.textContent = "";
			return;
		}

		t.textContent = txt;
		// Fit in full text width
		if (/^ *$/.test(txt) || t.getSubStringLength(0, txt.length) < w)
			return;

		for (var x = txt.length - 2; x > 0; x--) {
			if (t.getSubStringLength(0, x + 2) <= w) {
				t.textContent = txt.substring(0, x) + "..";
				return;
			}
		}
		t.textContent = "";
	}

	// zoom
	function zoom_reset(e) {
		if (e.attributes != undefined) {
			orig_load(e, "x");
			orig_load(e, "width");
		}
		if (e.childNodes == undefined) return;
		for (var i = 0, c = e.childNodes; i < c.length; i++) {
			zoom_reset(c[i]);
		}
	}
	function zoom_child(e, x, ratio) {
		if (e.attributes != undefined) {
			if (e.attributes.x != undefined) {
				orig_save(e, "x");
				e.attributes.x.value = (parseFloat(e.attributes.x.value) - x - 10) * ratio + 10;
				if (e.tagName == "text")
					e.attributes.x.value = find_child(e.parentNode, "rect[x]").attributes.x.value + 3;
			}
			if (e.attributes.width != undefined) {
				orig_save(e, "width");
				e.attributes.width.value = parseFloat(e.attributes.width.value) * ratio;
			}
		}

		if (e.childNodes == undefined) return;
		for (var i = 0, c = e.childNodes; i < c.length; i++) {
			zoom_child(c[i], x - 10, ratio);
		}
	}
	function zoom_parent(e) {
		if (e.attributes) {
			if (e.attributes.x != undefined) {
				orig_save(e, "x");
				e.attributes.x.value = 10;
			}
			if (e.attributes.width != undefined) {
				orig_save(e, "width");
				e.attributes.width.value = parseInt(svg.width.baseVal.value) - (10 * 2);
			}
		}
		if (e.childNodes == undefined) return;
		for (var i = 0, c = e.childNodes; i < c.length; i++) {
			zoom_parent(c[i]);
		}
	}
	function zoom(node) {
		var attr = find_child(node, "rect").attributes;
		var width = parseFloat(attr.width.value);
		var xmin = parseFloat(attr.x.value);
		var xmax = parseFloat(xmin + width);
		var ymin = parseFloat(attr.y.value);
		var ratio = (svg.width.baseVal.value - 2 * 10) / width;

		// XXX: Workaround for JavaScript float issues (fix me)
		var fudge = 0.0001;

		unzoombtn.classList.remove("hide");

		var el = document.getElementById("frames").children;
		for (var i = 0; i < el.length; i++) {
			var e = el[i];
			var a = find_child(e, "rect").attributes;
			var ex = parseFloat(a.x.value);
			var ew = parseFloat(a.width.value);
			var upstack;
			// Is it an ancestor
			if (1 == 0) {
				upstack = parseFloat(a.y.value) > ymin;
			} else {
				upstack = parseFloat(a.y.value) < ymin;
			}
			if (upstack) {
				// Direct ancestor
				if (ex <= xmin && (ex+ew+fudge) >= xmax) {
					e.classList.add("parent");
					zoom_parent(e);
					update_text(e);
				}
				// not in current path
				else
					e.classList.add("hide");
			}
			// Children maybe
			else {
				// no common path
				if (ex < xmin || ex + fudge >= xmax) {
					e.classList.add("hide");
				}
				else {
					zoom_child(e, xmin, ratio);
					update_text(e);
				}
			}
		}
		search();
	}
	function unzoom() {
		unzoombtn.classList.add("hide");
		var el = document.getElementById("frames").children;
		for(var i = 0; i < el.length; i++) {
			el[i].classList.remove("parent");
			el[i].classList.remove("hide");
			zoom_reset(el[i]);
			update_text(el[i]);
		}
		search();
	}
	function clearzoom() {
		unzoom();

		// remove zoom state
		var params = get_params();
		if (params.x) delete params.x;
		if (params.y) delete params.y;
		history.replaceState(null, null, parse_params(params));
	}

	// search
	function toggle_ignorecase() {
		ignorecase = !ignorecase;
		if (ignorecase) {
			ignorecaseBtn.classList.add("show");
		} else {
			ignorecaseBtn.classList.remove("show");
		}
		reset_search();
		search();
	}
	function reset_search() {
		var el = document.querySelectorAll("#frames rect");
		for (var i = 0; i < el.length; i++) {
			orig_load(el[i], "fill")
		}
		var params = get_params();
		delete params.s;
		history.replaceState(null, null, parse_params(params));
	}
	function search_prompt() {
		if (!searching) {
			var term = prompt("Enter a search term (regexp " +
			    "allowed, eg: ^ext4_)"
			    + (ignorecase ? ", ignoring case" : "")
			    + "\nPress Ctrl-i to toggle case sensitivity", "");
			if (term != null) search(term);
		} else {
			reset_search();
			searching = 0;
			currentSearchTerm = null;
			searchbtn.classList.remove("show");
			searchbtn.firstChild.nodeValue = "Search"
			matchedtxt.classList.add("hide");
			matchedtxt.firstChild.nodeValue = ""
		}
	}
	function search(term) {
		if (term) currentSearchTerm = term;

		var re = new RegExp(currentSearchTerm, ignorecase ? 'i' : '');
		var el = document.getElementById("frames").children;
		var matches = new Object();
		var maxwidth = 0;
		for (var i = 0; i < el.length; i++) {
			var e = el[i];
			var func = g_to_func(e);
			var rect = find_child(e, "rect");
			if (func == null || rect == null)
				continue;

			// Save max width. Only works as we have a root frame
			var w = parseFloat(rect.attributes.width.value);
			if (w > maxwidth)
				maxwidth = w;

			if (func.match(re)) {
				// highlight
				var x = parseFloat(rect.attributes.x.value);
				orig_save(rect, "fill");
				rect.attributes.fill.value = "rgb(230,0,230)";

				// remember matches
				if (matches[x] == undefined) {
					matches[x] = w;
				} else {
					if (w > matches[x]) {
						// overwrite with parent
						matches[x] = w;
					}
				}
				searching = 1;
			}
		}
		if (!searching)
			return;
		var params = get_params();
		params.s = currentSearchTerm;
		history.replaceState(null, null, parse_params(params));

		searchbtn.classList.add("show");
		searchbtn.firstChild.nodeValue = "Reset Search";

		// calculate percent matched, excluding vertical overlap
		var count = 0;
		var lastx = -1;
		var lastw = 0;
		var keys = Array();
		for (k in matches) {
			if (matches.hasOwnProperty(k))
				keys.push(k);
		}
		// sort the matched frames by their x location
		// ascending, then width descending
		keys.sort(function(a, b){
			return a - b;
		});
		// Step through frames saving only the biggest bottom-up frames
		// thanks to the sort order. This relies on the tree property
		// where children are always smaller than their parents.
		var fudge = 0.0001;	// JavaScript floating point
		for (var k in keys) {
			var x = parseFloat(keys[k]);
			var w = matches[keys[k]];
			if (x >= lastx + lastw - fudge) {
				count += w;
				lastx = x;
				lastw = w;
			}
		}
		// display matched percent
		matchedtxt.classList.remove("hide");
		var pct = 100 * count / maxwidth;
		if (pct != 100) pct = pct.toFixed(1)
		matchedtxt.firstChild.nodeValue = "Matched: " + pct + "%";
	}
]]>
</script>
<rect x="0.0" y="0" width="1200.0" height="347.0" fill="url(#background)"  />
<text id="title" x="600.00" y="26" >Firedrake example</text>
<text id="details" x="10.00" y="329" > </text>
<text id="unzoom" x="10.00" y="26" class="hide">Reset Zoom</text>
<text id="search" x="1090.00" y="26" >Search</text>
<text id="ignorecase" x="1174.00" y="26" >ic</text>
<text id="matched" x="1090.00" y="329" > </text>
<g id="frames">
<g >
<title>Log_Event_subkernel18_cell_to__cell_integral_otherwise (161,481 us, 0.38%)</title><rect x="135.2" y="263" width="4.4" height="15.0" fill="rgb(0,0,0)" rx="2" ry="2" />
<text  x="138.21" y="273.5" ></text>
</g>
<g >
<title>Log_Event_mtf_solve_119 (14,533,694 us, 33.81%)</title><rect x="199.3" y="247" width="398.9" height="15.0" fill="rgb(0,0,0)" rx="2" ry="2" />
<text  x="202.26" y="257.5" >Log_Event_mtf_solve_119</text>
</g>
<g >
<title>Log_Event_subkernel76_cell_to__cell_integral_otherwise (44,287 us, 0.10%)</title><rect x="1158.9" y="263" width="1.2" height="15.0" fill="rgb(0,0,0)" rx="2" ry="2" />
<text  x="1161.91" y="273.5" ></text>
</g>
<g >
<title>ParLoopExecute (34,246 us, 0.08%)</title><rect x="46.5" y="103" width="0.9" height="15.0" fill="rgb(0,0,0)" rx="2" ry="2" />
<text  x="49.47" y="113.5" ></text>
</g>
<g >
<title>Log_Event_tensorshell_knl_130 (13,926,320 us, 32.39%)</title><rect x="215.9" y="263" width="382.3" height="15.0" fill="rgb(0,0,0)" rx="2" ry="2" />
<text  x="218.94" y="273.5" >Log_Event_tensorshell_knl_130</text>
</g>
<g >
<title>firedrake.matrix_free.operators.ImplicitMatrixContext.mult (19,105,733 us, 44.44%)</title><rect x="152.0" y="183" width="524.5" height="15.0" fill="rgb(0,0,0)" rx="2" ry="2" />
<text  x="155.05" y="193.5" >firedrake.matrix_free.operators.ImplicitMatrixContext.mult</text>
</g>
<g >
<title>Log_Event_subkernel148_interior_facet_vert_to__exterior_facet_vert_integral_otherwise (201,915 us, 0.47%)</title><rect x="664.0" y="247" width="5.5" height="15.0" fill="rgb(0,0,0)" rx="2" ry="2" />
<text  x="667.00" y="257.5" ></text>
</g>
<g >
<title>Parloop_Cells_wrap_form0_cell_integral_otherwise (36,369 us, 0.08%)</title><rect x="89.9" y="167" width="1.0" height="15.0" fill="rgb(0,0,0)" rx="2" ry="2" />
<text  x="92.86" y="177.5" ></text>
</g>
<g >
<title>all (42,990,004 us, 100%)</title><rect x="10.0" y="39" width="1180.0" height="15.0" fill="rgb(0,0,0)" rx="2" ry="2" />
<text  x="13.00" y="49.5" ></text>
</g>
<g >
<title>CreateSparsity (412,398 us, 0.96%)</title><rect x="1165.7" y="247" width="11.3" height="15.0" fill="rgb(0,0,0)" rx="2" ry="2" />
<text  x="1168.73" y="257.5" ></text>
</g>
<g >
<title>HybridInit (122,978 us, 0.29%)</title><rect x="1186.6" y="119" width="3.4" height="15.0" fill="rgb(0,0,0)" rx="2" ry="2" />
<text  x="1189.62" y="129.5" ></text>
</g>
<g >
<title>Log_Event_subkernel71_interior_facet_vert_to__exterior_facet_vert_integral_otherwise (182,301 us, 0.42%)</title><rect x="1146.9" y="263" width="5.0" height="15.0" fill="rgb(0,0,0)" rx="2" ry="2" />
<text  x="1149.87" y="273.5" ></text>
</g>
<g >
<title>Parloop_Cells_wrap_par_loop_kernel (34,091 us, 0.08%)</title><rect x="101.2" y="199" width="0.9" height="15.0" fill="rgb(0,0,0)" rx="2" ry="2" />
<text  x="104.17" y="209.5" ></text>
</g>
<g >
<title>Log_Event_subkernel133_cell_to__cell_integral_otherwise (1,763,086 us, 4.10%)</title><rect x="229.6" y="295" width="48.4" height="15.0" fill="rgb(0,0,0)" rx="2" ry="2" />
<text  x="232.62" y="305.5" >Log_..</text>
</g>
<g >
<title>CreateExtMesh (64,792 us, 0.15%)</title><rect x="45.6" y="71" width="1.8" height="15.0" fill="rgb(0,0,0)" rx="2" ry="2" />
<text  x="48.64" y="81.5" ></text>
</g>
<g >
<title>Log_Event_subkernel149_interior_facet_vert_to__exterior_facet_vert_integral_otherwise (201,853 us, 0.47%)</title><rect x="670.9" y="247" width="5.6" height="15.0" fill="rgb(0,0,0)" rx="2" ry="2" />
<text  x="673.92" y="257.5" ></text>
</g>
<g >
<title>MatMult (412,042 us, 0.96%)</title><rect x="89.9" y="119" width="11.3" height="15.0" fill="rgb(0,0,0)" rx="2" ry="2" />
<text  x="92.86" y="129.5" ></text>
</g>
<g >
<title>firedrake.functionspacedata.FunctionSpaceData.__init__ (23,902 us, 0.06%)</title><rect x="47.4" y="119" width="0.7" height="15.0" fill="rgb(0,0,0)" rx="2" ry="2" />
<text  x="50.41" y="129.5" ></text>
</g>
<g >
<title>pyop2.global_kernel.GlobalKernel.compile (34,091 us, 0.08%)</title><rect x="101.2" y="215" width="0.9" height="15.0" fill="rgb(0,0,0)" rx="2" ry="2" />
<text  x="104.17" y="225.5" ></text>
</g>
<g >
<title>Log_Event_subkernel136_cell_to__cell_integral_otherwise (3,369,779 us, 7.84%)</title><rect x="312.0" y="295" width="92.5" height="15.0" fill="rgb(0,0,0)" rx="2" ry="2" />
<text  x="315.02" y="305.5" >Log_Event_..</text>
</g>
<g >
<title>pyop2.global_kernel.GlobalKernel.compile (31,735 us, 0.07%)</title><rect x="90.9" y="183" width="0.8" height="15.0" fill="rgb(0,0,0)" rx="2" ry="2" />
<text  x="93.86" y="193.5" ></text>
</g>
<g >
<title>Parloop_Cells_wrap_pyop2_kernel_uniform_extrusion (34,246 us, 0.08%)</title><rect x="46.5" y="119" width="0.9" height="15.0" fill="rgb(0,0,0)" rx="2" ry="2" />
<text  x="49.47" y="129.5" ></text>
</g>
<g >
<title>Parloop_Cells_wrap_form00_cell_integral_otherwise (38,323 us, 0.09%)</title><rect x="1183.4" y="183" width="1.1" height="15.0" fill="rgb(0,0,0)" rx="2" ry="2" />
<text  x="1186.43" y="193.5" ></text>
</g>
<g >
<title>PCSetUp (17,436,484 us, 40.56%)</title><rect x="702.2" y="215" width="478.6" height="15.0" fill="rgb(0,0,0)" rx="2" ry="2" />
<text  x="705.24" y="225.5" >PCSetUp</text>
</g>
<g >
<title>firedrake.variational_solver.NonlinearVariationalSolver.solve (40,080,353 us, 93.23%)</title><rect x="89.9" y="71" width="1100.1" height="15.0" fill="rgb(0,0,0)" rx="2" ry="2" />
<text  x="92.86" y="81.5" >firedrake.variational_solver.NonlinearVariationalSolver.solve</text>
</g>
<g >
<title>Log_Event_subkernel83_cell_to__cell_integral_otherwise (188,910 us, 0.44%)</title><rect x="611.6" y="279" width="5.2" height="15.0" fill="rgb(0,0,0)" rx="2" ry="2" />
<text  x="614.59" y="289.5" ></text>
</g>
<g >
<title>Log_Event_subkernel113_cell_to__cell_integral_otherwise (71,499 us, 0.17%)</title><rect x="192.1" y="263" width="1.9" height="15.0" fill="rgb(0,0,0)" rx="2" ry="2" />
<text  x="195.08" y="273.5" ></text>
</g>
<g >
<title>MatZeroInitial (138,255 us, 0.32%)</title><rect x="1177.0" y="247" width="3.8" height="15.0" fill="rgb(0,0,0)" rx="2" ry="2" />
<text  x="1180.05" y="257.5" ></text>
</g>
<g >
<title>inv_getri (1,015,195 us, 2.36%)</title><rect x="1117.7" y="279" width="27.9" height="15.0" fill="rgb(0,0,0)" rx="2" ry="2" />
<text  x="1120.71" y="289.5" >i..</text>
</g>
<g >
<title>Log_Event_tensorshell_knl_82 (464,635 us, 1.08%)</title><rect x="606.3" y="263" width="12.8" height="15.0" fill="rgb(0,0,0)" rx="2" ry="2" />
<text  x="609.30" y="273.5" ></text>
</g>
<g >
<title>Log_Event_inits_wrap_slate_loopy_knl_70 (22,005 us, 0.05%)</title><rect x="711.3" y="263" width="0.6" height="15.0" fill="rgb(0,0,0)" rx="2" ry="2" />
<text  x="714.28" y="273.5" ></text>
</g>
<g >
<title>Log_Event_subkernel146_cell_to__cell_integral_otherwise (139,875 us, 0.33%)</title><rect x="602.5" y="263" width="3.8" height="15.0" fill="rgb(0,0,0)" rx="2" ry="2" />
<text  x="605.46" y="273.5" ></text>
</g>
<g >
<title>Parloop_Cells_wrap_wrap_slate_loopy_knl_70 (16,720,908 us, 38.89%)</title><rect x="706.8" y="247" width="458.9" height="15.0" fill="rgb(0,0,0)" rx="2" ry="2" />
<text  x="709.77" y="257.5" >Parloop_Cells_wrap_wrap_slate_loopy_knl_70</text>
</g>
<g >
<title>ParLoopExecute (19,082,524 us, 44.39%)</title><rect x="152.7" y="199" width="523.8" height="15.0" fill="rgb(0,0,0)" rx="2" ry="2" />
<text  x="155.68" y="209.5" >ParLoopExecute</text>
</g>
<g >
<title>HybridRHS (1,819,259 us, 4.23%)</title><rect x="102.1" y="151" width="49.9" height="15.0" fill="rgb(0,0,0)" rx="2" ry="2" />
<text  x="105.11" y="161.5" >Hybr..</text>
</g>
<g >
<title>firedrake.functionspaceimpl.FunctionSpace.__init__ (23,902 us, 0.06%)</title><rect x="47.4" y="87" width="0.7" height="15.0" fill="rgb(0,0,0)" rx="2" ry="2" />
<text  x="50.41" y="97.5" ></text>
</g>
<g >
<title>SCForwardElim (1,853,350 us, 4.31%)</title><rect x="101.2" y="135" width="50.8" height="15.0" fill="rgb(0,0,0)" rx="2" ry="2" />
<text  x="104.17" y="145.5" >SCFo..</text>
</g>
<g >
<title>Log_Event_subkernel110_interior_facet_horiz_top_to__exterior_facet_top_integral_otherwise (24,983 us, 0.06%)</title><rect x="637.7" y="247" width="0.6" height="15.0" fill="rgb(0,0,0)" rx="2" ry="2" />
<text  x="640.65" y="257.5" ></text>
</g>
<g >
<title>Log_Event_mtf_solve_81 (928,220 us, 2.16%)</title><rect x="606.3" y="247" width="25.5" height="15.0" fill="rgb(0,0,0)" rx="2" ry="2" />
<text  x="609.30" y="257.5" >L..</text>
</g>
<g >
<title>Log_Event_subkernel108_cell_to__cell_integral_otherwise (71,705 us, 0.17%)</title><rect x="189.2" y="263" width="1.9" height="15.0" fill="rgb(0,0,0)" rx="2" ry="2" />
<text  x="192.16" y="273.5" ></text>
</g>
<g >
<title>Log_Event_subkernel15_cell_to__cell_integral_otherwise (84,581 us, 0.20%)</title><rect x="131.3" y="263" width="2.3" height="15.0" fill="rgb(0,0,0)" rx="2" ry="2" />
<text  x="134.27" y="273.5" ></text>
</g>
<g >
<title>Log_Event_slate_loopy_knl_79 (19,026,466 us, 44.26%)</title><rect x="154.2" y="231" width="522.3" height="15.0" fill="rgb(0,0,0)" rx="2" ry="2" />
<text  x="157.22" y="241.5" >Log_Event_slate_loopy_knl_79</text>
</g>
<g >
<title>Parloop_Cells_wrap_expression_kernel (34,867 us, 0.08%)</title><rect x="1182.5" y="183" width="0.9" height="15.0" fill="rgb(0,0,0)" rx="2" ry="2" />
<text  x="1185.47" y="193.5" ></text>
</g>
<g >
<title>Log_Event_subkernel115_cell_to__cell_integral_otherwise (50,209 us, 0.12%)</title><rect x="194.0" y="263" width="1.4" height="15.0" fill="rgb(0,0,0)" rx="2" ry="2" />
<text  x="197.04" y="273.5" ></text>
</g>
<g >
<title>Log_Event_subkernel121_cell_to__cell_integral_otherwise (188,500 us, 0.44%)</title><rect x="208.5" y="279" width="5.2" height="15.0" fill="rgb(0,0,0)" rx="2" ry="2" />
<text  x="211.49" y="289.5" ></text>
</g>
<g >
<title>Log_Event_subkernel90_cell_to__cell_integral_otherwise (83,268 us, 0.19%)</title><rect x="616.8" y="279" width="2.3" height="15.0" fill="rgb(0,0,0)" rx="2" ry="2" />
<text  x="619.77" y="289.5" ></text>
</g>
<g >
<title>MatMult (939,036 us, 2.18%)</title><rect x="676.5" y="231" width="25.7" height="15.0" fill="rgb(0,0,0)" rx="2" ry="2" />
<text  x="679.46" y="241.5" >M..</text>
</g>
<g >
<title>Log_Event_subkernel103_cell_to__cell_integral_otherwise (188,792 us, 0.44%)</title><rect x="631.8" y="247" width="5.2" height="15.0" fill="rgb(0,0,0)" rx="2" ry="2" />
<text  x="634.78" y="257.5" ></text>
</g>
<g >
<title>Log_Event_subkernel111_interior_facet_vert_to__exterior_facet_vert_integral_otherwise (357,254 us, 0.83%)</title><rect x="645.4" y="247" width="9.8" height="15.0" fill="rgb(0,0,0)" rx="2" ry="2" />
<text  x="648.39" y="257.5" ></text>
</g>
<g >
<title>Log_Event_subkernel100_cell_to__cell_integral_otherwise (83,016 us, 0.19%)</title><rect x="624.3" y="279" width="2.3" height="15.0" fill="rgb(0,0,0)" rx="2" ry="2" />
<text  x="627.32" y="289.5" ></text>
</g>
<g >
<title>Log_Event_mtf_solve_112 (296,495 us, 0.69%)</title><rect x="191.1" y="247" width="8.2" height="15.0" fill="rgb(0,0,0)" rx="2" ry="2" />
<text  x="194.13" y="257.5" ></text>
</g>
<g >
<title>Log_Event_mtf_solve_132 (7,162,398 us, 16.66%)</title><rect x="219.0" y="279" width="196.6" height="15.0" fill="rgb(0,0,0)" rx="2" ry="2" />
<text  x="221.96" y="289.5" >Log_Event_mtf_solve_132</text>
</g>
<g >
<title>Log_Event_mtf_solve_38 (53,499 us, 0.12%)</title><rect x="149.5" y="215" width="1.5" height="15.0" fill="rgb(0,0,0)" rx="2" ry="2" />
<text  x="152.52" y="225.5" ></text>
</g>
<g >
<title>Log_Event_tensorshell_knl_49 (26,705 us, 0.06%)</title><rect x="150.3" y="231" width="0.7" height="15.0" fill="rgb(0,0,0)" rx="2" ry="2" />
<text  x="153.25" y="241.5" ></text>
</g>
<g >
<title>Log_Event_subkernel116_cell_to__cell_integral_otherwise (140,080 us, 0.33%)</title><rect x="195.4" y="263" width="3.9" height="15.0" fill="rgb(0,0,0)" rx="2" ry="2" />
<text  x="198.42" y="273.5" ></text>
</g>
<g >
<title>Log_Event_tensorshell_knl_120 (562,590 us, 1.31%)</title><rect x="200.5" y="263" width="15.4" height="15.0" fill="rgb(0,0,0)" rx="2" ry="2" />
<text  x="203.49" y="273.5" ></text>
</g>
<g >
<title>Log_Event_mtf_solve_14 (342,854 us, 0.80%)</title><rect x="130.2" y="247" width="9.4" height="15.0" fill="rgb(0,0,0)" rx="2" ry="2" />
<text  x="133.23" y="257.5" ></text>
</g>
<g >
<title>Log_Event_tensorshell_knl_134 (133,728 us, 0.31%)</title><rect x="404.5" y="295" width="3.7" height="15.0" fill="rgb(0,0,0)" rx="2" ry="2" />
<text  x="407.51" y="305.5" ></text>
</g>
<g >
<title>KSPSolve (39,957,375 us, 92.95%)</title><rect x="89.9" y="103" width="1096.7" height="15.0" fill="rgb(0,0,0)" rx="2" ry="2" />
<text  x="92.86" y="113.5" >KSPSolve</text>
</g>
<g >
<title>Log_Event_subkernel85_cell_to__cell_integral_otherwise (71,816 us, 0.17%)</title><rect x="606.3" y="295" width="2.0" height="15.0" fill="rgb(0,0,0)" rx="2" ry="2" />
<text  x="609.30" y="305.5" ></text>
</g>
<g >
<title>SCSolve (37,691,983 us, 87.68%)</title><rect x="152.0" y="135" width="1034.6" height="15.0" fill="rgb(0,0,0)" rx="2" ry="2" />
<text  x="155.05" y="145.5" >SCSolve</text>
</g>
<g >
<title>KSPSetUp (18,375,520 us, 42.74%)</title><rect x="676.5" y="199" width="504.3" height="15.0" fill="rgb(0,0,0)" rx="2" ry="2" />
<text  x="679.46" y="209.5" >KSPSetUp</text>
</g>
<g >
<title>PCSetUp (28,485 us, 0.07%)</title><rect x="1180.8" y="199" width="0.8" height="15.0" fill="rgb(0,0,0)" rx="2" ry="2" />
<text  x="1183.84" y="209.5" ></text>
</g>
<g >
<title>Log_Event_subkernel118_cell_to__cell_integral_otherwise (82,949 us, 0.19%)</title><rect x="655.2" y="247" width="2.3" height="15.0" fill="rgb(0,0,0)" rx="2" ry="2" />
<text  x="658.19" y="257.5" ></text>
</g>
<g >
<title>Log_Event_subkernel128_cell_to__cell_integral_otherwise (82,631 us, 0.19%)</title><rect x="213.7" y="279" width="2.2" height="15.0" fill="rgb(0,0,0)" rx="2" ry="2" />
<text  x="216.67" y="289.5" ></text>
</g>
<g >
<title>Log_Event_tensorshell_knl_39 (26,794 us, 0.06%)</title><rect x="149.5" y="231" width="0.8" height="15.0" fill="rgb(0,0,0)" rx="2" ry="2" />
<text  x="152.52" y="241.5" ></text>
</g>
<g >
<title>Log_Event_subkernel111_interior_facet_horiz_top_to__exterior_facet_top_integral_otherwise (27,805 us, 0.06%)</title><rect x="644.6" y="247" width="0.8" height="15.0" fill="rgb(0,0,0)" rx="2" ry="2" />
<text  x="647.62" y="257.5" ></text>
</g>
<g >
<title>ParLoopExecute (73,190 us, 0.17%)</title><rect x="1182.5" y="167" width="2.0" height="15.0" fill="rgb(0,0,0)" rx="2" ry="2" />
<text  x="1185.47" y="177.5" ></text>
</g>
<g >
<title>MatMult (19,105,733 us, 44.44%)</title><rect x="152.0" y="167" width="524.5" height="15.0" fill="rgb(0,0,0)" rx="2" ry="2" />
<text  x="155.05" y="177.5" >MatMult</text>
</g>
<g >
<title>Log_Event_subkernel93_cell_to__cell_integral_otherwise (188,773 us, 0.44%)</title><rect x="626.6" y="279" width="5.2" height="15.0" fill="rgb(0,0,0)" rx="2" ry="2" />
<text  x="629.60" y="289.5" ></text>
</g>
<g >
<title>Log_Event_subkernel131_cell_to__cell_integral_otherwise (4,686,961 us, 10.90%)</title><rect x="415.6" y="279" width="128.6" height="15.0" fill="rgb(0,0,0)" rx="2" ry="2" />
<text  x="418.56" y="289.5" >Log_Event_subk..</text>
</g>
<g >
<title>Log_Event_subkernel73_cell_to__cell_integral_otherwise (94,881 us, 0.22%)</title><rect x="1156.3" y="263" width="2.6" height="15.0" fill="rgb(0,0,0)" rx="2" ry="2" />
<text  x="1159.30" y="273.5" ></text>
</g>
<g >
<title>pyop2.global_kernel.GlobalKernel.compile (38,323 us, 0.09%)</title><rect x="1183.4" y="199" width="1.1" height="15.0" fill="rgb(0,0,0)" rx="2" ry="2" />
<text  x="1186.43" y="209.5" ></text>
</g>
<g >
<title>Log_Event_subkernel17_cell_to__cell_integral_otherwise (59,159 us, 0.14%)</title><rect x="133.6" y="263" width="1.6" height="15.0" fill="rgb(0,0,0)" rx="2" ry="2" />
<text  x="136.59" y="273.5" ></text>
</g>
<g >
<title>Log_Event_subkernel105_cell_to__cell_integral_otherwise (72,657 us, 0.17%)</title><rect x="185.8" y="263" width="2.0" height="15.0" fill="rgb(0,0,0)" rx="2" ry="2" />
<text  x="188.79" y="273.5" ></text>
</g>
<g >
<title>firedrake.functionspacedata.get_shared_data (23,902 us, 0.06%)</title><rect x="47.4" y="103" width="0.7" height="15.0" fill="rgb(0,0,0)" rx="2" ry="2" />
<text  x="50.41" y="113.5" ></text>
</g>
<g >
<title>pyop2.global_kernel.GlobalKernel.compile (34,478 us, 0.08%)</title><rect x="1189.1" y="183" width="0.9" height="15.0" fill="rgb(0,0,0)" rx="2" ry="2" />
<text  x="1192.05" y="193.5" ></text>
</g>
<g >
<title>Log_Event_mtf_solve_1 (702,470 us, 1.63%)</title><rect x="130.2" y="215" width="19.3" height="15.0" fill="rgb(0,0,0)" rx="2" ry="2" />
<text  x="133.23" y="225.5" ></text>
</g>
<g >
<title>firedrake.matrix_free.operators.ImplicitMatrixContext.mult (939,036 us, 2.18%)</title><rect x="676.5" y="247" width="25.7" height="15.0" fill="rgb(0,0,0)" rx="2" ry="2" />
<text  x="679.46" y="257.5" >f..</text>
</g>
<g >
<title>firedrake.tsfc_interface.compile_form (343,938 us, 0.80%)</title><rect x="91.7" y="151" width="9.5" height="15.0" fill="rgb(0,0,0)" rx="2" ry="2" />
<text  x="94.73" y="161.5" ></text>
</g>
<g >
<title>KSPSolve (939,036 us, 2.18%)</title><rect x="676.5" y="215" width="25.7" height="15.0" fill="rgb(0,0,0)" rx="2" ry="2" />
<text  x="679.46" y="225.5" >K..</text>
</g>
<g >
<title>CreateSparsity (26,246 us, 0.06%)</title><rect x="1185.9" y="183" width="0.7" height="15.0" fill="rgb(0,0,0)" rx="2" ry="2" />
<text  x="1188.90" y="193.5" ></text>
</g>
<g >
<title>Log_Event_subkernel123_cell_to__cell_integral_otherwise (72,113 us, 0.17%)</title><rect x="201.4" y="295" width="2.0" height="15.0" fill="rgb(0,0,0)" rx="2" ry="2" />
<text  x="204.40" y="305.5" ></text>
</g>
<g >
<title>Log_Event_subkernel141_cell_to__cell_integral_otherwise (188,244 us, 0.44%)</title><rect x="657.5" y="247" width="5.1" height="15.0" fill="rgb(0,0,0)" rx="2" ry="2" />
<text  x="660.47" y="257.5" ></text>
</g>
<g >
<title>pyop2.global_kernel.GlobalKernel.compile (39,064 us, 0.09%)</title><rect x="1164.7" y="263" width="1.0" height="15.0" fill="rgb(0,0,0)" rx="2" ry="2" />
<text  x="1167.65" y="273.5" ></text>
</g>
<g >
<title>Log_Event_subkernel71_interior_facet_horiz_top_to__exterior_facet_top_integral_otherwise (24,009 us, 0.06%)</title><rect x="1146.2" y="263" width="0.7" height="15.0" fill="rgb(0,0,0)" rx="2" ry="2" />
<text  x="1149.21" y="273.5" ></text>
</g>
<g >
<title>ParLoopExecute (34,091 us, 0.08%)</title><rect x="101.2" y="183" width="0.9" height="15.0" fill="rgb(0,0,0)" rx="2" ry="2" />
<text  x="104.17" y="193.5" ></text>
</g>
<g >
<title>Log_Event_subkernel148_interior_facet_horiz_bottom_to__exterior_facet_bottom_integral_otherwise (24,943 us, 0.06%)</title><rect x="662.6" y="247" width="0.7" height="15.0" fill="rgb(0,0,0)" rx="2" ry="2" />
<text  x="665.64" y="257.5" ></text>
</g>
<g >
<title>Log_Event_tensorshell_knl_137 (268,667 us, 0.62%)</title><rect x="408.2" y="295" width="7.4" height="15.0" fill="rgb(0,0,0)" rx="2" ry="2" />
<text  x="411.18" y="305.5" ></text>
</g>
<g >
<title>Log_Event_subkernel111_interior_facet_horiz_bottom_to__exterior_facet_bottom_integral_otherwise (27,880 us, 0.06%)</title><rect x="643.9" y="247" width="0.7" height="15.0" fill="rgb(0,0,0)" rx="2" ry="2" />
<text  x="646.86" y="257.5" ></text>
</g>
<g >
<title>Log_Event_mtf_solve_142 (295,601 us, 0.69%)</title><rect x="598.2" y="247" width="8.1" height="15.0" fill="rgb(0,0,0)" rx="2" ry="2" />
<text  x="601.19" y="257.5" ></text>
</g>
<g >
<title>Log_Event_mtf_solve_94 (191,796 us, 0.45%)</title><rect x="619.1" y="279" width="5.2" height="15.0" fill="rgb(0,0,0)" rx="2" ry="2" />
<text  x="622.06" y="289.5" ></text>
</g>
<g >
<title>pyop2.global_kernel.GlobalKernel.compile (34,867 us, 0.08%)</title><rect x="1182.5" y="199" width="0.9" height="15.0" fill="rgb(0,0,0)" rx="2" ry="2" />
<text  x="1185.47" y="209.5" ></text>
</g>
<g >
<title>Log_Event_subkernel107_cell_to__cell_integral_otherwise (50,084 us, 0.12%)</title><rect x="187.8" y="263" width="1.4" height="15.0" fill="rgb(0,0,0)" rx="2" ry="2" />
<text  x="190.78" y="273.5" ></text>
</g>
<g >
<title>Log_Event_subkernel110_interior_facet_vert_to__exterior_facet_vert_integral_otherwise (201,109 us, 0.47%)</title><rect x="638.3" y="247" width="5.6" height="15.0" fill="rgb(0,0,0)" rx="2" ry="2" />
<text  x="641.34" y="257.5" ></text>
</g>
<g >
<title>Log_Event_subkernel72_cell_to__cell_integral_otherwise (161,301 us, 0.38%)</title><rect x="1151.9" y="263" width="4.4" height="15.0" fill="rgb(0,0,0)" rx="2" ry="2" />
<text  x="1154.88" y="273.5" ></text>
</g>
<g >
<title>Log_Event_subkernel135_cell_to__cell_integral_otherwise (1,238,849 us, 2.88%)</title><rect x="278.0" y="295" width="34.0" height="15.0" fill="rgb(0,0,0)" rx="2" ry="2" />
<text  x="281.01" y="305.5" >Lo..</text>
</g>
<g >
<title>Log_Event_tensorshell_knl_92 (463,585 us, 1.08%)</title><rect x="619.1" y="263" width="12.7" height="15.0" fill="rgb(0,0,0)" rx="2" ry="2" />
<text  x="622.06" y="273.5" ></text>
</g>
<g >
<title>pyop2.global_kernel.GlobalKernel.compile (36,369 us, 0.08%)</title><rect x="89.9" y="183" width="1.0" height="15.0" fill="rgb(0,0,0)" rx="2" ry="2" />
<text  x="92.86" y="193.5" ></text>
</g>
<g >
<title>firedrake.interpolation.make_interpolator (37,435 us, 0.09%)</title><rect x="1188.0" y="135" width="1.1" height="15.0" fill="rgb(0,0,0)" rx="2" ry="2" />
<text  x="1191.03" y="145.5" ></text>
</g>
<g >
<title>KSPSolve (37,509,738 us, 87.25%)</title><rect x="152.0" y="151" width="1029.6" height="15.0" fill="rgb(0,0,0)" rx="2" ry="2" />
<text  x="155.05" y="161.5" >KSPSolve</text>
</g>
<g >
<title>Log_Event_tensorshell_knl_12 (665,076 us, 1.55%)</title><rect x="130.2" y="231" width="18.3" height="15.0" fill="rgb(0,0,0)" rx="2" ry="2" />
<text  x="133.23" y="241.5" ></text>
</g>
<g >
<title>Log_Event_mtf_solve_84 (192,457 us, 0.45%)</title><rect x="606.3" y="279" width="5.3" height="15.0" fill="rgb(0,0,0)" rx="2" ry="2" />
<text  x="609.30" y="289.5" ></text>
</g>
<g >
<title>PCSetUp (122,978 us, 0.29%)</title><rect x="1186.6" y="103" width="3.4" height="15.0" fill="rgb(0,0,0)" rx="2" ry="2" />
<text  x="1189.62" y="113.5" ></text>
</g>
<g >
<title>pyop2.global_kernel.GlobalKernel.compile (38,700 us, 0.09%)</title><rect x="151.0" y="199" width="1.0" height="15.0" fill="rgb(0,0,0)" rx="2" ry="2" />
<text  x="153.98" y="209.5" ></text>
</g>
<g >
<title>Log_Event_tensorshell_knl_2 (37,394 us, 0.09%)</title><rect x="148.5" y="231" width="1.0" height="15.0" fill="rgb(0,0,0)" rx="2" ry="2" />
<text  x="151.49" y="241.5" ></text>
</g>
<g >
<title>Log_Event_subkernel143_cell_to__cell_integral_otherwise (71,684 us, 0.17%)</title><rect x="599.1" y="263" width="2.0" height="15.0" fill="rgb(0,0,0)" rx="2" ry="2" />
<text  x="602.12" y="273.5" ></text>
</g>
<g >
<title>Log_Event_subkernel88_cell_to__cell_integral_otherwise (68,874 us, 0.16%)</title><rect x="609.7" y="295" width="1.9" height="15.0" fill="rgb(0,0,0)" rx="2" ry="2" />
<text  x="612.69" y="305.5" ></text>
</g>
<g >
<title>Log_Event_slate_loopy_knl_0 (911,428 us, 2.12%)</title><rect x="126.0" y="199" width="25.0" height="15.0" fill="rgb(0,0,0)" rx="2" ry="2" />
<text  x="128.97" y="209.5" >L..</text>
</g>
<g >
<title>HybridBreak (34,091 us, 0.08%)</title><rect x="101.2" y="151" width="0.9" height="15.0" fill="rgb(0,0,0)" rx="2" ry="2" />
<text  x="104.17" y="161.5" ></text>
</g>
<g >
<title>firedrake.extrusion_utils.make_extruded_coords (64,792 us, 0.15%)</title><rect x="45.6" y="87" width="1.8" height="15.0" fill="rgb(0,0,0)" rx="2" ry="2" />
<text  x="48.64" y="97.5" ></text>
</g>
<g >
<title>pyop2.global_kernel.GlobalKernel.compile (34,246 us, 0.08%)</title><rect x="46.5" y="135" width="0.9" height="15.0" fill="rgb(0,0,0)" rx="2" ry="2" />
<text  x="49.47" y="145.5" ></text>
</g>
<g >
<title>PCApply (39,545,333 us, 91.99%)</title><rect x="101.2" y="119" width="1085.4" height="15.0" fill="rgb(0,0,0)" rx="2" ry="2" />
<text  x="104.17" y="129.5" >PCApply</text>
</g>
<g >
<title>PCApply (18,404,005 us, 42.81%)</title><rect x="676.5" y="167" width="505.1" height="15.0" fill="rgb(0,0,0)" rx="2" ry="2" />
<text  x="679.46" y="177.5" >PCApply</text>
</g>
<g >
<title>Parloop_Cells_wrap_slate_loopy_knl_0 (950,128 us, 2.21%)</title><rect x="126.0" y="183" width="26.0" height="15.0" fill="rgb(0,0,0)" rx="2" ry="2" />
<text  x="128.97" y="193.5" >P..</text>
</g>
<g >
<title>Log_Event_subkernel95_cell_to__cell_integral_otherwise (71,461 us, 0.17%)</title><rect x="619.1" y="295" width="1.9" height="15.0" fill="rgb(0,0,0)" rx="2" ry="2" />
<text  x="622.06" y="305.5" ></text>
</g>
<g >
<title>firedrake.__init__ (1,522,640 us, 3.54%)</title><rect x="48.1" y="71" width="41.8" height="15.0" fill="rgb(0,0,0)" rx="2" ry="2" />
<text  x="51.07" y="81.5" >fir..</text>
</g>
<g >
<title>CreateFunctionSpace (23,902 us, 0.06%)</title><rect x="47.4" y="71" width="0.7" height="15.0" fill="rgb(0,0,0)" rx="2" ry="2" />
<text  x="50.41" y="81.5" ></text>
</g>
<g >
<title>Log_Event_subkernel87_cell_to__cell_integral_otherwise (51,767 us, 0.12%)</title><rect x="608.3" y="295" width="1.4" height="15.0" fill="rgb(0,0,0)" rx="2" ry="2" />
<text  x="611.27" y="305.5" ></text>
</g>
<g >
<title>ParLoopExecute (68,104 us, 0.16%)</title><rect x="89.9" y="151" width="1.8" height="15.0" fill="rgb(0,0,0)" rx="2" ry="2" />
<text  x="92.86" y="161.5" ></text>
</g>
<g >
<title>Log_Event_subkernel145_cell_to__cell_integral_otherwise (50,015 us, 0.12%)</title><rect x="601.1" y="263" width="1.4" height="15.0" fill="rgb(0,0,0)" rx="2" ry="2" />
<text  x="604.09" y="273.5" ></text>
</g>
<g >
<title>Log_Event_mtf_solve_122 (291,459 us, 0.68%)</title><rect x="200.5" y="279" width="8.0" height="15.0" fill="rgb(0,0,0)" rx="2" ry="2" />
<text  x="203.49" y="289.5" ></text>
</g>
<g >
<title>Log_Event_subkernel126_cell_to__cell_integral_otherwise (134,611 us, 0.31%)</title><rect x="204.8" y="295" width="3.7" height="15.0" fill="rgb(0,0,0)" rx="2" ry="2" />
<text  x="207.80" y="305.5" ></text>
</g>
<g >
<title>Log_Event_subkernel110_interior_facet_horiz_bottom_to__exterior_facet_bottom_integral_otherwise (25,134 us, 0.06%)</title><rect x="637.0" y="247" width="0.7" height="15.0" fill="rgb(0,0,0)" rx="2" ry="2" />
<text  x="639.96" y="257.5" ></text>
</g>
<g >
<title>firedrake.parloops.par_loop (34,091 us, 0.08%)</title><rect x="101.2" y="167" width="0.9" height="15.0" fill="rgb(0,0,0)" rx="2" ry="2" />
<text  x="104.17" y="177.5" ></text>
</g>
<g >
<title>Parloop_Cells_wrap_slate_loopy_knl_79 (19,082,524 us, 44.39%)</title><rect x="152.7" y="215" width="523.8" height="15.0" fill="rgb(0,0,0)" rx="2" ry="2" />
<text  x="155.68" y="225.5" >Parloop_Cells_wrap_slate_loopy_knl_79</text>
</g>
<g >
<title>ParLoopExecute (34,478 us, 0.08%)</title><rect x="1189.1" y="151" width="0.9" height="15.0" fill="rgb(0,0,0)" rx="2" ry="2" />
<text  x="1192.05" y="161.5" ></text>
</g>
<g >
<title>inv_getrf (263,206 us, 0.61%)</title><rect x="1110.5" y="279" width="7.2" height="15.0" fill="rgb(0,0,0)" rx="2" ry="2" />
<text  x="1113.48" y="289.5" ></text>
</g>
<g >
<title>Log_Event_mtf_solve_104 (194,446 us, 0.45%)</title><rect x="185.8" y="247" width="5.3" height="15.0" fill="rgb(0,0,0)" rx="2" ry="2" />
<text  x="188.79" y="257.5" ></text>
</g>
<g >
<title>Log_Event_subkernel13_cell_to__cell_integral_otherwise (227,502 us, 0.53%)</title><rect x="139.6" y="247" width="6.3" height="15.0" fill="rgb(0,0,0)" rx="2" ry="2" />
<text  x="142.64" y="257.5" ></text>
</g>
<g >
<title>PCSetUp (18,404,005 us, 42.81%)</title><rect x="676.5" y="183" width="505.1" height="15.0" fill="rgb(0,0,0)" rx="2" ry="2" />
<text  x="679.46" y="193.5" >PCSetUp</text>
</g>
<g >
<title>firedrake.assemble.allocate_matrix (550,653 us, 1.28%)</title><rect x="1165.7" y="231" width="15.1" height="15.0" fill="rgb(0,0,0)" rx="2" ry="2" />
<text  x="1168.73" y="241.5" ></text>
</g>
<g >
<title>SNESSolve (40,080,353 us, 93.23%)</title><rect x="89.9" y="87" width="1100.1" height="15.0" fill="rgb(0,0,0)" rx="2" ry="2" />
<text  x="92.86" y="97.5" >SNESSolve</text>
</g>
<g >
<title>Parloop_Cells_wrap_par_loop_kernel (34,478 us, 0.08%)</title><rect x="1189.1" y="167" width="0.9" height="15.0" fill="rgb(0,0,0)" rx="2" ry="2" />
<text  x="1192.05" y="177.5" ></text>
</g>
<g >
<title>Log_Event_subkernel149_interior_facet_horiz_top_to__exterior_facet_top_integral_otherwise (25,040 us, 0.06%)</title><rect x="670.2" y="247" width="0.7" height="15.0" fill="rgb(0,0,0)" rx="2" ry="2" />
<text  x="673.24" y="257.5" ></text>
</g>
<g >
<title>firedrake.matrix_free.operators.ImplicitMatrixContext.mult (412,042 us, 0.96%)</title><rect x="89.9" y="135" width="11.3" height="15.0" fill="rgb(0,0,0)" rx="2" ry="2" />
<text  x="92.86" y="145.5" ></text>
</g>
<g >
<title>Log_Event_subkernel20_cell_to__cell_integral_otherwise (94,720 us, 0.22%)</title><rect x="145.9" y="247" width="2.6" height="15.0" fill="rgb(0,0,0)" rx="2" ry="2" />
<text  x="148.89" y="257.5" ></text>
</g>
<g >
<title>Log_Event_subkernel138_cell_to__cell_integral_otherwise (1,966,693 us, 4.57%)</title><rect x="544.2" y="279" width="54.0" height="15.0" fill="rgb(0,0,0)" rx="2" ry="2" />
<text  x="547.21" y="289.5" >Log_E..</text>
</g>
<g >
<title>Log_Event_subkernel149_interior_facet_horiz_bottom_to__exterior_facet_bottom_integral_otherwise (25,139 us, 0.06%)</title><rect x="669.5" y="247" width="0.7" height="15.0" fill="rgb(0,0,0)" rx="2" ry="2" />
<text  x="672.55" y="257.5" ></text>
</g>
<g >
<title>Log_Event_subkernel77_interior_facet_vert_to__exterior_facet_vert_integral_otherwise (165,025 us, 0.38%)</title><rect x="1160.1" y="263" width="4.6" height="15.0" fill="rgb(0,0,0)" rx="2" ry="2" />
<text  x="1163.12" y="273.5" ></text>
</g>
<g >
<title>ParLoopExecute (950,128 us, 2.21%)</title><rect x="126.0" y="167" width="26.0" height="15.0" fill="rgb(0,0,0)" rx="2" ry="2" />
<text  x="128.97" y="177.5" >P..</text>
</g>
<g >
<title>Log_Event_subkernel148_interior_facet_horiz_top_to__exterior_facet_top_integral_otherwise (24,888 us, 0.06%)</title><rect x="663.3" y="247" width="0.7" height="15.0" fill="rgb(0,0,0)" rx="2" ry="2" />
<text  x="666.32" y="257.5" ></text>
</g>
<g >
<title>Log_Event_subkernel97_cell_to__cell_integral_otherwise (51,836 us, 0.12%)</title><rect x="621.0" y="295" width="1.4" height="15.0" fill="rgb(0,0,0)" rx="2" ry="2" />
<text  x="624.02" y="305.5" ></text>
</g>
<g >
<title>Parloop_Cells_wrap_form1_cell_integral_otherwise (31,735 us, 0.07%)</title><rect x="90.9" y="167" width="0.8" height="15.0" fill="rgb(0,0,0)" rx="2" ry="2" />
<text  x="93.86" y="177.5" ></text>
</g>
<g >
<title>Log_Event_subkernel98_cell_to__cell_integral_otherwise (68,499 us, 0.16%)</title><rect x="622.4" y="295" width="1.9" height="15.0" fill="rgb(0,0,0)" rx="2" ry="2" />
<text  x="625.44" y="305.5" ></text>
</g>
<g >
<title>PCSetUp (182,245 us, 0.42%)</title><rect x="1181.6" y="151" width="5.0" height="15.0" fill="rgb(0,0,0)" rx="2" ry="2" />
<text  x="1184.62" y="161.5" ></text>
</g>
<g >
<title>firedrake.parloops.par_loop (34,478 us, 0.08%)</title><rect x="1189.1" y="135" width="0.9" height="15.0" fill="rgb(0,0,0)" rx="2" ry="2" />
<text  x="1192.05" y="145.5" ></text>
</g>
<g >
<title>Log_Event_subkernel125_cell_to__cell_integral_otherwise (51,570 us, 0.12%)</title><rect x="203.4" y="295" width="1.4" height="15.0" fill="rgb(0,0,0)" rx="2" ry="2" />
<text  x="206.38" y="305.5" ></text>
</g>
<g >
<title>Log_Event_subkernel71_interior_facet_horiz_bottom_to__exterior_facet_bottom_integral_otherwise (23,364 us, 0.05%)</title><rect x="1145.6" y="263" width="0.6" height="15.0" fill="rgb(0,0,0)" rx="2" ry="2" />
<text  x="1148.57" y="273.5" ></text>
</g>
<g >
<title>Log_Event_slate_loopy_knl_70 (15,800,061 us, 36.75%)</title><rect x="711.9" y="263" width="433.7" height="15.0" fill="rgb(0,0,0)" rx="2" ry="2" />
<text  x="714.89" y="273.5" >Log_Event_slate_loopy_knl_70</text>
</g>
<g >
<title>firedrake (42,990,004 us, 100.00%)</title><rect x="10.0" y="55" width="1180.0" height="15.0" fill="rgb(0,0,0)" rx="2" ry="2" />
<text  x="13.00" y="65.5" >firedrake</text>
</g>
<g >
<title>firedrake.interpolation.make_interpolator (78,130 us, 0.18%)</title><rect x="1184.5" y="167" width="2.1" height="15.0" fill="rgb(0,0,0)" rx="2" ry="2" />
<text  x="1187.48" y="177.5" ></text>
</g>
<g >
<title>ParLoopExecute (16,720,908 us, 38.89%)</title><rect x="706.8" y="231" width="458.9" height="15.0" fill="rgb(0,0,0)" rx="2" ry="2" />
<text  x="709.77" y="241.5" >ParLoopExecute</text>
</g>
</g>
</svg>
