<?xml version="1.0" standalone="no"?>
<!DOCTYPE svg PUBLIC "-//W3C//DTD SVG 1.1//EN" "http://www.w3.org/Graphics/SVG/1.1/DTD/svg11.dtd">
<svg version="1.1" width="1200" height="347" onload="init(evt)" viewBox="0 0 1200 347" xmlns="http://www.w3.org/2000/svg" xmlns:xlink="http://www.w3.org/1999/xlink">
<!-- Flame graph stack visualization. See https://github.com/brendangregg/FlameGraph for latest version, and http://www.brendangregg.com/flamegraphs.html for examples. -->
<!-- NOTES:  -->
<defs>
	<linearGradient id="background" y1="0" y2="1" x1="0" x2="0" >
		<stop stop-color="#eeeeee" offset="5%" />
		<stop stop-color="#eeeeb0" offset="95%" />
	</linearGradient>
</defs>
<style type="text/css">
	text { font-family:Verdana; font-size:13px; fill:rgb(0,0,0); }
	#search, #ignorecase { opacity:0.1; cursor:pointer; }
	#search:hover, #search.show, #ignorecase:hover, #ignorecase.show { opacity:1; }
	#subtitle { text-anchor:middle; font-color:rgb(160,160,160); }
	#title { text-anchor:middle; font-size:18px}
	#unzoom { cursor:pointer; }
	#frames > *:hover { stroke:black; stroke-width:0.5; cursor:pointer; }
	.hide { display:none; }
	.parent { opacity:0.5; }
</style>
<script type="text/ecmascript">
<![CDATA[
	"use strict";
	var details, searchbtn, unzoombtn, matchedtxt, svg, searching, currentSearchTerm, ignorecase, ignorecaseBtn;
	function init(evt) {
		details = document.getElementById("details").firstChild;
		searchbtn = document.getElementById("search");
		ignorecaseBtn = document.getElementById("ignorecase");
		unzoombtn = document.getElementById("unzoom");
		matchedtxt = document.getElementById("matched");
		svg = document.getElementsByTagName("svg")[0];
		searching = 0;
		currentSearchTerm = null;

		// use GET parameters to restore a flamegraphs state.
		var params = get_params();
		if (params.x && params.y)
			zoom(find_group(document.querySelector('[x="' + params.x + '"][y="' + params.y + '"]')));
                if (params.s) search(params.s);
	}

	// event listeners
	window.addEventListener("click", function(e) {
		var target = find_group(e.target);
		if (target) {
			if (target.nodeName == "a") {
				if (e.ctrlKey === false) return;
				e.preventDefault();
			}
			if (target.classList.contains("parent")) unzoom();
			zoom(target);
			if (!document.querySelector('.parent')) {
				clearzoom();
				return;
			}

			// set parameters for zoom state
			var el = target.querySelector("rect");
			if (el && el.attributes && el.attributes.y && el.attributes._orig_x) {
				var params = get_params()
				params.x = el.attributes._orig_x.value;
				params.y = el.attributes.y.value;
				history.replaceState(null, null, parse_params(params));
			}
		}
		else if (e.target.id == "unzoom") clearzoom();
		else if (e.target.id == "search") search_prompt();
		else if (e.target.id == "ignorecase") toggle_ignorecase();
	}, false)

	// mouse-over for info
	// show
	window.addEventListener("mouseover", function(e) {
		var target = find_group(e.target);
		if (target) details.nodeValue = "Function: " + g_to_text(target);
	}, false)

	// clear
	window.addEventListener("mouseout", function(e) {
		var target = find_group(e.target);
		if (target) details.nodeValue = ' ';
	}, false)

	// ctrl-F for search
	// ctrl-I to toggle case-sensitive search
	window.addEventListener("keydown",function (e) {
		if (e.keyCode === 114 || (e.ctrlKey && e.keyCode === 70)) {
			e.preventDefault();
			search_prompt();
		}
		else if (e.ctrlKey && e.keyCode === 73) {
			e.preventDefault();
			toggle_ignorecase();
		}
	}, false)

	// functions
	function get_params() {
		var params = {};
		var paramsarr = window.location.search.substr(1).split('&');
		for (var i = 0; i < paramsarr.length; ++i) {
			var tmp = paramsarr[i].split("=");
			if (!tmp[0] || !tmp[1]) continue;
			params[tmp[0]]  = decodeURIComponent(tmp[1]);
		}
		return params;
	}
	function parse_params(params) {
		var uri = "?";
		for (var key in params) {
			uri += key + '=' + encodeURIComponent(params[key]) + '&';
		}
		if (uri.slice(-1) == "&")
			uri = uri.substring(0, uri.length - 1);
		if (uri == '?')
			uri = window.location.href.split('?')[0];
		return uri;
	}
	function find_child(node, selector) {
		var children = node.querySelectorAll(selector);
		if (children.length) return children[0];
	}
	function find_group(node) {
		var parent = node.parentElement;
		if (!parent) return;
		if (parent.id == "frames") return node;
		return find_group(parent);
	}
	function orig_save(e, attr, val) {
		if (e.attributes["_orig_" + attr] != undefined) return;
		if (e.attributes[attr] == undefined) return;
		if (val == undefined) val = e.attributes[attr].value;
		e.setAttribute("_orig_" + attr, val);
	}
	function orig_load(e, attr) {
		if (e.attributes["_orig_"+attr] == undefined) return;
		e.attributes[attr].value = e.attributes["_orig_" + attr].value;
		e.removeAttribute("_orig_"+attr);
	}
	function g_to_text(e) {
		var text = find_child(e, "title").firstChild.nodeValue;
		return (text)
	}
	function g_to_func(e) {
		var func = g_to_text(e);
		// if there's any manipulation we want to do to the function
		// name before it's searched, do it here before returning.
		return (func);
	}
	function update_text(e) {
		var r = find_child(e, "rect");
		var t = find_child(e, "text");
		var w = parseFloat(r.attributes.width.value) -3;
		var txt = find_child(e, "title").textContent.replace(/\([^(]*\)$/,"");
		t.attributes.x.value = parseFloat(r.attributes.x.value) + 3;

		// Smaller than this size won't fit anything
		if (w < 2 * 13 * 0.59) {
			t.textContent = "";
			return;
		}

		t.textContent = txt;
		// Fit in full text width
		if (/^ *$/.test(txt) || t.getSubStringLength(0, txt.length) < w)
			return;

		for (var x = txt.length - 2; x > 0; x--) {
			if (t.getSubStringLength(0, x + 2) <= w) {
				t.textContent = txt.substring(0, x) + "..";
				return;
			}
		}
		t.textContent = "";
	}

	// zoom
	function zoom_reset(e) {
		if (e.attributes != undefined) {
			orig_load(e, "x");
			orig_load(e, "width");
		}
		if (e.childNodes == undefined) return;
		for (var i = 0, c = e.childNodes; i < c.length; i++) {
			zoom_reset(c[i]);
		}
	}
	function zoom_child(e, x, ratio) {
		if (e.attributes != undefined) {
			if (e.attributes.x != undefined) {
				orig_save(e, "x");
				e.attributes.x.value = (parseFloat(e.attributes.x.value) - x - 10) * ratio + 10;
				if (e.tagName == "text")
					e.attributes.x.value = find_child(e.parentNode, "rect[x]").attributes.x.value + 3;
			}
			if (e.attributes.width != undefined) {
				orig_save(e, "width");
				e.attributes.width.value = parseFloat(e.attributes.width.value) * ratio;
			}
		}

		if (e.childNodes == undefined) return;
		for (var i = 0, c = e.childNodes; i < c.length; i++) {
			zoom_child(c[i], x - 10, ratio);
		}
	}
	function zoom_parent(e) {
		if (e.attributes) {
			if (e.attributes.x != undefined) {
				orig_save(e, "x");
				e.attributes.x.value = 10;
			}
			if (e.attributes.width != undefined) {
				orig_save(e, "width");
				e.attributes.width.value = parseInt(svg.width.baseVal.value) - (10 * 2);
			}
		}
		if (e.childNodes == undefined) return;
		for (var i = 0, c = e.childNodes; i < c.length; i++) {
			zoom_parent(c[i]);
		}
	}
	function zoom(node) {
		var attr = find_child(node, "rect").attributes;
		var width = parseFloat(attr.width.value);
		var xmin = parseFloat(attr.x.value);
		var xmax = parseFloat(xmin + width);
		var ymin = parseFloat(attr.y.value);
		var ratio = (svg.width.baseVal.value - 2 * 10) / width;

		// XXX: Workaround for JavaScript float issues (fix me)
		var fudge = 0.0001;

		unzoombtn.classList.remove("hide");

		var el = document.getElementById("frames").children;
		for (var i = 0; i < el.length; i++) {
			var e = el[i];
			var a = find_child(e, "rect").attributes;
			var ex = parseFloat(a.x.value);
			var ew = parseFloat(a.width.value);
			var upstack;
			// Is it an ancestor
			if (1 == 0) {
				upstack = parseFloat(a.y.value) > ymin;
			} else {
				upstack = parseFloat(a.y.value) < ymin;
			}
			if (upstack) {
				// Direct ancestor
				if (ex <= xmin && (ex+ew+fudge) >= xmax) {
					e.classList.add("parent");
					zoom_parent(e);
					update_text(e);
				}
				// not in current path
				else
					e.classList.add("hide");
			}
			// Children maybe
			else {
				// no common path
				if (ex < xmin || ex + fudge >= xmax) {
					e.classList.add("hide");
				}
				else {
					zoom_child(e, xmin, ratio);
					update_text(e);
				}
			}
		}
		search();
	}
	function unzoom() {
		unzoombtn.classList.add("hide");
		var el = document.getElementById("frames").children;
		for(var i = 0; i < el.length; i++) {
			el[i].classList.remove("parent");
			el[i].classList.remove("hide");
			zoom_reset(el[i]);
			update_text(el[i]);
		}
		search();
	}
	function clearzoom() {
		unzoom();

		// remove zoom state
		var params = get_params();
		if (params.x) delete params.x;
		if (params.y) delete params.y;
		history.replaceState(null, null, parse_params(params));
	}

	// search
	function toggle_ignorecase() {
		ignorecase = !ignorecase;
		if (ignorecase) {
			ignorecaseBtn.classList.add("show");
		} else {
			ignorecaseBtn.classList.remove("show");
		}
		reset_search();
		search();
	}
	function reset_search() {
		var el = document.querySelectorAll("#frames rect");
		for (var i = 0; i < el.length; i++) {
			orig_load(el[i], "fill")
		}
		var params = get_params();
		delete params.s;
		history.replaceState(null, null, parse_params(params));
	}
	function search_prompt() {
		if (!searching) {
			var term = prompt("Enter a search term (regexp " +
			    "allowed, eg: ^ext4_)"
			    + (ignorecase ? ", ignoring case" : "")
			    + "\nPress Ctrl-i to toggle case sensitivity", "");
			if (term != null) search(term);
		} else {
			reset_search();
			searching = 0;
			currentSearchTerm = null;
			searchbtn.classList.remove("show");
			searchbtn.firstChild.nodeValue = "Search"
			matchedtxt.classList.add("hide");
			matchedtxt.firstChild.nodeValue = ""
		}
	}
	function search(term) {
		if (term) currentSearchTerm = term;

		var re = new RegExp(currentSearchTerm, ignorecase ? 'i' : '');
		var el = document.getElementById("frames").children;
		var matches = new Object();
		var maxwidth = 0;
		for (var i = 0; i < el.length; i++) {
			var e = el[i];
			var func = g_to_func(e);
			var rect = find_child(e, "rect");
			if (func == null || rect == null)
				continue;

			// Save max width. Only works as we have a root frame
			var w = parseFloat(rect.attributes.width.value);
			if (w > maxwidth)
				maxwidth = w;

			if (func.match(re)) {
				// highlight
				var x = parseFloat(rect.attributes.x.value);
				orig_save(rect, "fill");
				rect.attributes.fill.value = "rgb(230,0,230)";

				// remember matches
				if (matches[x] == undefined) {
					matches[x] = w;
				} else {
					if (w > matches[x]) {
						// overwrite with parent
						matches[x] = w;
					}
				}
				searching = 1;
			}
		}
		if (!searching)
			return;
		var params = get_params();
		params.s = currentSearchTerm;
		history.replaceState(null, null, parse_params(params));

		searchbtn.classList.add("show");
		searchbtn.firstChild.nodeValue = "Reset Search";

		// calculate percent matched, excluding vertical overlap
		var count = 0;
		var lastx = -1;
		var lastw = 0;
		var keys = Array();
		for (k in matches) {
			if (matches.hasOwnProperty(k))
				keys.push(k);
		}
		// sort the matched frames by their x location
		// ascending, then width descending
		keys.sort(function(a, b){
			return a - b;
		});
		// Step through frames saving only the biggest bottom-up frames
		// thanks to the sort order. This relies on the tree property
		// where children are always smaller than their parents.
		var fudge = 0.0001;	// JavaScript floating point
		for (var k in keys) {
			var x = parseFloat(keys[k]);
			var w = matches[keys[k]];
			if (x >= lastx + lastw - fudge) {
				count += w;
				lastx = x;
				lastw = w;
			}
		}
		// display matched percent
		matchedtxt.classList.remove("hide");
		var pct = 100 * count / maxwidth;
		if (pct != 100) pct = pct.toFixed(1)
		matchedtxt.firstChild.nodeValue = "Matched: " + pct + "%";
	}
]]>
</script>
<rect x="0.0" y="0" width="1200.0" height="347.0" fill="url(#background)"  />
<text id="title" x="600.00" y="26" >Firedrake example</text>
<text id="details" x="10.00" y="329" > </text>
<text id="unzoom" x="10.00" y="26" class="hide">Reset Zoom</text>
<text id="search" x="1090.00" y="26" >Search</text>
<text id="ignorecase" x="1174.00" y="26" >ic</text>
<text id="matched" x="1090.00" y="329" > </text>
<g id="frames">
<g >
<title>Log_Event_subkernel141_cell_to__cell_integral_otherwise (188,663 us, 0.44%)</title><rect x="651.0" y="247" width="5.1" height="15.0" fill="rgb(0,0,0)" rx="2" ry="2" />
<text  x="653.98" y="257.5" ></text>
</g>
<g >
<title>Log_Event_subkernel17_cell_to__cell_integral_otherwise (59,005 us, 0.14%)</title><rect x="132.6" y="263" width="1.6" height="15.0" fill="rgb(0,0,0)" rx="2" ry="2" />
<text  x="135.56" y="273.5" ></text>
</g>
<g >
<title>pyop2.global_kernel.GlobalKernel.compile (36,396 us, 0.08%)</title><rect x="1182.5" y="199" width="1.0" height="15.0" fill="rgb(0,0,0)" rx="2" ry="2" />
<text  x="1185.48" y="209.5" ></text>
</g>
<g >
<title>firedrake.functionspaceimpl.FunctionSpace.__init__ (23,660 us, 0.05%)</title><rect x="49.2" y="87" width="0.7" height="15.0" fill="rgb(0,0,0)" rx="2" ry="2" />
<text  x="52.21" y="97.5" ></text>
</g>
<g >
<title>firedrake.parloops.par_loop (36,768 us, 0.08%)</title><rect x="100.6" y="167" width="1.0" height="15.0" fill="rgb(0,0,0)" rx="2" ry="2" />
<text  x="103.59" y="177.5" ></text>
</g>
<g >
<title>Log_Event_tensorshell_knl_39 (26,720 us, 0.06%)</title><rect x="148.3" y="231" width="0.7" height="15.0" fill="rgb(0,0,0)" rx="2" ry="2" />
<text  x="151.30" y="241.5" ></text>
</g>
<g >
<title>firedrake.tsfc_interface.compile_form (289,436 us, 0.67%)</title><rect x="92.7" y="151" width="7.9" height="15.0" fill="rgb(0,0,0)" rx="2" ry="2" />
<text  x="95.71" y="161.5" ></text>
</g>
<g >
<title>Log_Event_subkernel72_cell_to__cell_integral_otherwise (161,478 us, 0.37%)</title><rect x="1152.2" y="263" width="4.4" height="15.0" fill="rgb(0,0,0)" rx="2" ry="2" />
<text  x="1155.24" y="273.5" ></text>
</g>
<g >
<title>firedrake.parloops.par_loop (35,609 us, 0.08%)</title><rect x="1189.0" y="135" width="1.0" height="15.0" fill="rgb(0,0,0)" rx="2" ry="2" />
<text  x="1192.03" y="145.5" ></text>
</g>
<g >
<title>PCApply (39,883,330 us, 92.04%)</title><rect x="100.6" y="119" width="1086.0" height="15.0" fill="rgb(0,0,0)" rx="2" ry="2" />
<text  x="103.59" y="129.5" >PCApply</text>
</g>
<g >
<title>Parloop_Cells_wrap_form0_cell_integral_otherwise (37,505 us, 0.09%)</title><rect x="90.8" y="167" width="1.0" height="15.0" fill="rgb(0,0,0)" rx="2" ry="2" />
<text  x="93.82" y="177.5" ></text>
</g>
<g >
<title>ParLoopExecute (35,609 us, 0.08%)</title><rect x="1189.0" y="151" width="1.0" height="15.0" fill="rgb(0,0,0)" rx="2" ry="2" />
<text  x="1192.03" y="161.5" ></text>
</g>
<g >
<title>Log_Event_subkernel100_cell_to__cell_integral_otherwise (82,024 us, 0.19%)</title><rect x="618.2" y="279" width="2.2" height="15.0" fill="rgb(0,0,0)" rx="2" ry="2" />
<text  x="621.16" y="289.5" ></text>
</g>
<g >
<title>Log_Event_mtf_solve_119 (14,494,600 us, 33.45%)</title><rect x="197.8" y="247" width="394.7" height="15.0" fill="rgb(0,0,0)" rx="2" ry="2" />
<text  x="200.79" y="257.5" >Log_Event_mtf_solve_119</text>
</g>
<g >
<title>ParLoopExecute (37,247 us, 0.09%)</title><rect x="48.2" y="103" width="1.0" height="15.0" fill="rgb(0,0,0)" rx="2" ry="2" />
<text  x="51.19" y="113.5" ></text>
</g>
<g >
<title>firedrake.variational_solver.NonlinearVariationalSolver.solve (40,366,779 us, 93.15%)</title><rect x="90.8" y="71" width="1099.2" height="15.0" fill="rgb(0,0,0)" rx="2" ry="2" />
<text  x="93.82" y="81.5" >firedrake.variational_solver.NonlinearVariationalSolver.solve</text>
</g>
<g >
<title>Log_Event_tensorshell_knl_137 (263,145 us, 0.61%)</title><rect x="403.7" y="295" width="7.2" height="15.0" fill="rgb(0,0,0)" rx="2" ry="2" />
<text  x="406.73" y="305.5" ></text>
</g>
<g >
<title>MatZeroInitial (138,791 us, 0.32%)</title><rect x="1177.1" y="247" width="3.8" height="15.0" fill="rgb(0,0,0)" rx="2" ry="2" />
<text  x="1180.11" y="257.5" ></text>
</g>
<g >
<title>Log_Event_subkernel146_cell_to__cell_integral_otherwise (138,520 us, 0.32%)</title><rect x="596.7" y="263" width="3.7" height="15.0" fill="rgb(0,0,0)" rx="2" ry="2" />
<text  x="599.67" y="273.5" ></text>
</g>
<g >
<title>Log_Event_slate_loopy_knl_70 (16,209,641 us, 37.41%)</title><rect x="704.5" y="263" width="441.4" height="15.0" fill="rgb(0,0,0)" rx="2" ry="2" />
<text  x="707.51" y="273.5" >Log_Event_slate_loopy_knl_70</text>
</g>
<g >
<title>Log_Event_subkernel71_interior_facet_horiz_top_to__exterior_facet_top_integral_otherwise (24,167 us, 0.06%)</title><rect x="1146.5" y="263" width="0.7" height="15.0" fill="rgb(0,0,0)" rx="2" ry="2" />
<text  x="1149.54" y="273.5" ></text>
</g>
<g >
<title>MatMult (19,054,493 us, 43.97%)</title><rect x="150.8" y="167" width="518.9" height="15.0" fill="rgb(0,0,0)" rx="2" ry="2" />
<text  x="153.84" y="177.5" >MatMult</text>
</g>
<g >
<title>Log_Event_subkernel143_cell_to__cell_integral_otherwise (70,953 us, 0.16%)</title><rect x="593.4" y="263" width="1.9" height="15.0" fill="rgb(0,0,0)" rx="2" ry="2" />
<text  x="596.39" y="273.5" ></text>
</g>
<g >
<title>ParLoopExecute (17,136,068 us, 39.54%)</title><rect x="699.5" y="231" width="466.6" height="15.0" fill="rgb(0,0,0)" rx="2" ry="2" />
<text  x="702.46" y="241.5" >ParLoopExecute</text>
</g>
<g >
<title>Log_Event_subkernel20_cell_to__cell_integral_otherwise (94,347 us, 0.22%)</title><rect x="144.9" y="247" width="2.5" height="15.0" fill="rgb(0,0,0)" rx="2" ry="2" />
<text  x="147.87" y="257.5" ></text>
</g>
<g >
<title>Log_Event_subkernel113_cell_to__cell_integral_otherwise (70,598 us, 0.16%)</title><rect x="190.7" y="263" width="1.9" height="15.0" fill="rgb(0,0,0)" rx="2" ry="2" />
<text  x="193.73" y="273.5" ></text>
</g>
<g >
<title>Log_Event_subkernel71_interior_facet_horiz_bottom_to__exterior_facet_bottom_integral_otherwise (23,435 us, 0.05%)</title><rect x="1145.9" y="263" width="0.6" height="15.0" fill="rgb(0,0,0)" rx="2" ry="2" />
<text  x="1148.90" y="273.5" ></text>
</g>
<g >
<title>Parloop_Cells_wrap_par_loop_kernel (36,768 us, 0.08%)</title><rect x="100.6" y="199" width="1.0" height="15.0" fill="rgb(0,0,0)" rx="2" ry="2" />
<text  x="103.59" y="209.5" ></text>
</g>
<g >
<title>Log_Event_mtf_solve_142 (292,603 us, 0.68%)</title><rect x="592.5" y="247" width="7.9" height="15.0" fill="rgb(0,0,0)" rx="2" ry="2" />
<text  x="595.47" y="257.5" ></text>
</g>
<g >
<title>Log_Event_subkernel83_cell_to__cell_integral_otherwise (188,850 us, 0.44%)</title><rect x="605.6" y="279" width="5.2" height="15.0" fill="rgb(0,0,0)" rx="2" ry="2" />
<text  x="608.61" y="289.5" ></text>
</g>
<g >
<title>MatMult (927,843 us, 2.14%)</title><rect x="669.7" y="231" width="25.3" height="15.0" fill="rgb(0,0,0)" rx="2" ry="2" />
<text  x="672.69" y="241.5" >M..</text>
</g>
<g >
<title>Log_Event_mtf_solve_38 (53,433 us, 0.12%)</title><rect x="148.3" y="215" width="1.5" height="15.0" fill="rgb(0,0,0)" rx="2" ry="2" />
<text  x="151.30" y="225.5" ></text>
</g>
<g >
<title>pyop2.global_kernel.GlobalKernel.compile (39,852 us, 0.09%)</title><rect x="149.8" y="199" width="1.0" height="15.0" fill="rgb(0,0,0)" rx="2" ry="2" />
<text  x="152.75" y="209.5" ></text>
</g>
<g >
<title>firedrake.functionspacedata.get_shared_data (23,660 us, 0.05%)</title><rect x="49.2" y="103" width="0.7" height="15.0" fill="rgb(0,0,0)" rx="2" ry="2" />
<text  x="52.21" y="113.5" ></text>
</g>
<g >
<title>Log_Event_subkernel71_interior_facet_vert_to__exterior_facet_vert_integral_otherwise (185,254 us, 0.43%)</title><rect x="1147.2" y="263" width="5.0" height="15.0" fill="rgb(0,0,0)" rx="2" ry="2" />
<text  x="1150.19" y="273.5" ></text>
</g>
<g >
<title>Log_Event_subkernel135_cell_to__cell_integral_otherwise (1,226,782 us, 2.83%)</title><rect x="275.4" y="295" width="33.4" height="15.0" fill="rgb(0,0,0)" rx="2" ry="2" />
<text  x="278.44" y="305.5" >Lo..</text>
</g>
<g >
<title>Log_Event_subkernel145_cell_to__cell_integral_otherwise (49,637 us, 0.11%)</title><rect x="595.3" y="263" width="1.4" height="15.0" fill="rgb(0,0,0)" rx="2" ry="2" />
<text  x="598.32" y="273.5" ></text>
</g>
<g >
<title>pyop2.global_kernel.GlobalKernel.compile (37,247 us, 0.09%)</title><rect x="48.2" y="135" width="1.0" height="15.0" fill="rgb(0,0,0)" rx="2" ry="2" />
<text  x="51.19" y="145.5" ></text>
</g>
<g >
<title>firedrake.interpolation.make_interpolator (38,511 us, 0.09%)</title><rect x="1188.0" y="135" width="1.0" height="15.0" fill="rgb(0,0,0)" rx="2" ry="2" />
<text  x="1190.98" y="145.5" ></text>
</g>
<g >
<title>firedrake.__init__ (1,504,426 us, 3.47%)</title><rect x="49.9" y="71" width="40.9" height="15.0" fill="rgb(0,0,0)" rx="2" ry="2" />
<text  x="52.85" y="81.5" >fir..</text>
</g>
<g >
<title>Log_Event_subkernel110_interior_facet_horiz_bottom_to__exterior_facet_bottom_integral_otherwise (24,513 us, 0.06%)</title><rect x="630.6" y="247" width="0.7" height="15.0" fill="rgb(0,0,0)" rx="2" ry="2" />
<text  x="633.65" y="257.5" ></text>
</g>
<g >
<title>Log_Event_tensorshell_knl_134 (131,211 us, 0.30%)</title><rect x="400.2" y="295" width="3.5" height="15.0" fill="rgb(0,0,0)" rx="2" ry="2" />
<text  x="403.16" y="305.5" ></text>
</g>
<g >
<title>Parloop_Cells_wrap_par_loop_kernel (35,609 us, 0.08%)</title><rect x="1189.0" y="167" width="1.0" height="15.0" fill="rgb(0,0,0)" rx="2" ry="2" />
<text  x="1192.03" y="177.5" ></text>
</g>
<g >
<title>Log_Event_subkernel126_cell_to__cell_integral_otherwise (133,523 us, 0.31%)</title><rect x="203.2" y="295" width="3.6" height="15.0" fill="rgb(0,0,0)" rx="2" ry="2" />
<text  x="206.21" y="305.5" ></text>
</g>
<g >
<title>SCSolve (38,038,138 us, 87.78%)</title><rect x="150.8" y="135" width="1035.8" height="15.0" fill="rgb(0,0,0)" rx="2" ry="2" />
<text  x="153.84" y="145.5" >SCSolve</text>
</g>
<g >
<title>Log_Event_subkernel88_cell_to__cell_integral_otherwise (68,092 us, 0.16%)</title><rect x="603.8" y="295" width="1.8" height="15.0" fill="rgb(0,0,0)" rx="2" ry="2" />
<text  x="606.75" y="305.5" ></text>
</g>
<g >
<title>KSPSolve (40,242,414 us, 92.86%)</title><rect x="90.8" y="103" width="1095.8" height="15.0" fill="rgb(0,0,0)" rx="2" ry="2" />
<text  x="93.82" y="113.5" >KSPSolve</text>
</g>
<g >
<title>all (43,334,733 us, 100%)</title><rect x="10.0" y="39" width="1180.0" height="15.0" fill="rgb(0,0,0)" rx="2" ry="2" />
<text  x="13.00" y="49.5" ></text>
</g>
<g >
<title>inv_getrf (262,823 us, 0.61%)</title><rect x="1111.7" y="279" width="7.1" height="15.0" fill="rgb(0,0,0)" rx="2" ry="2" />
<text  x="1114.66" y="289.5" ></text>
</g>
<g >
<title>Parloop_Cells_wrap_expression_kernel (36,396 us, 0.08%)</title><rect x="1182.5" y="183" width="1.0" height="15.0" fill="rgb(0,0,0)" rx="2" ry="2" />
<text  x="1185.48" y="193.5" ></text>
</g>
<g >
<title>Log_Event_slate_loopy_knl_79 (18,978,442 us, 43.79%)</title><rect x="152.9" y="231" width="516.8" height="15.0" fill="rgb(0,0,0)" rx="2" ry="2" />
<text  x="155.91" y="241.5" >Log_Event_slate_loopy_knl_79</text>
</g>
<g >
<title>Log_Event_subkernel148_interior_facet_vert_to__exterior_facet_vert_integral_otherwise (200,412 us, 0.46%)</title><rect x="657.4" y="247" width="5.5" height="15.0" fill="rgb(0,0,0)" rx="2" ry="2" />
<text  x="660.44" y="257.5" ></text>
</g>
<g >
<title>ParLoopExecute (19,033,136 us, 43.92%)</title><rect x="151.4" y="199" width="518.3" height="15.0" fill="rgb(0,0,0)" rx="2" ry="2" />
<text  x="154.42" y="209.5" >ParLoopExecute</text>
</g>
<g >
<title>Log_Event_subkernel133_cell_to__cell_integral_otherwise (1,764,006 us, 4.07%)</title><rect x="227.4" y="295" width="48.0" height="15.0" fill="rgb(0,0,0)" rx="2" ry="2" />
<text  x="230.41" y="305.5" >Log_..</text>
</g>
<g >
<title>SCForwardElim (1,845,192 us, 4.26%)</title><rect x="100.6" y="135" width="50.2" height="15.0" fill="rgb(0,0,0)" rx="2" ry="2" />
<text  x="103.59" y="145.5" >SCFo..</text>
</g>
<g >
<title>Log_Event_subkernel149_interior_facet_horiz_bottom_to__exterior_facet_bottom_integral_otherwise (24,485 us, 0.06%)</title><rect x="662.9" y="247" width="0.7" height="15.0" fill="rgb(0,0,0)" rx="2" ry="2" />
<text  x="665.90" y="257.5" ></text>
</g>
<g >
<title>firedrake (43,334,733 us, 100.00%)</title><rect x="10.0" y="55" width="1180.0" height="15.0" fill="rgb(0,0,0)" rx="2" ry="2" />
<text  x="13.00" y="65.5" >firedrake</text>
</g>
<g >
<title>PCSetUp (17,845,584 us, 41.18%)</title><rect x="695.0" y="215" width="485.9" height="15.0" fill="rgb(0,0,0)" rx="2" ry="2" />
<text  x="697.96" y="225.5" >PCSetUp</text>
</g>
<g >
<title>Log_Event_subkernel138_cell_to__cell_integral_otherwise (1,962,869 us, 4.53%)</title><rect x="539.0" y="279" width="53.5" height="15.0" fill="rgb(0,0,0)" rx="2" ry="2" />
<text  x="542.03" y="289.5" >Log_..</text>
</g>
<g >
<title>Log_Event_subkernel128_cell_to__cell_integral_otherwise (81,833 us, 0.19%)</title><rect x="212.0" y="279" width="2.2" height="15.0" fill="rgb(0,0,0)" rx="2" ry="2" />
<text  x="214.98" y="289.5" ></text>
</g>
<g >
<title>Log_Event_mtf_solve_81 (921,051 us, 2.13%)</title><rect x="600.4" y="247" width="25.1" height="15.0" fill="rgb(0,0,0)" rx="2" ry="2" />
<text  x="603.44" y="257.5" >L..</text>
</g>
<g >
<title>firedrake.functionspacedata.FunctionSpaceData.__init__ (23,660 us, 0.05%)</title><rect x="49.2" y="119" width="0.7" height="15.0" fill="rgb(0,0,0)" rx="2" ry="2" />
<text  x="52.21" y="129.5" ></text>
</g>
<g >
<title>Log_Event_subkernel149_interior_facet_vert_to__exterior_facet_vert_integral_otherwise (200,538 us, 0.46%)</title><rect x="664.2" y="247" width="5.5" height="15.0" fill="rgb(0,0,0)" rx="2" ry="2" />
<text  x="667.23" y="257.5" ></text>
</g>
<g >
<title>firedrake.interpolation.make_interpolator (77,644 us, 0.18%)</title><rect x="1184.5" y="167" width="2.1" height="15.0" fill="rgb(0,0,0)" rx="2" ry="2" />
<text  x="1187.50" y="177.5" ></text>
</g>
<g >
<title>Log_Event_tensorshell_knl_2 (31,476 us, 0.07%)</title><rect x="147.4" y="231" width="0.9" height="15.0" fill="rgb(0,0,0)" rx="2" ry="2" />
<text  x="150.44" y="241.5" ></text>
</g>
<g >
<title>Log_Event_subkernel103_cell_to__cell_integral_otherwise (188,215 us, 0.43%)</title><rect x="625.5" y="247" width="5.1" height="15.0" fill="rgb(0,0,0)" rx="2" ry="2" />
<text  x="628.52" y="257.5" ></text>
</g>
<g >
<title>firedrake.extrusion_utils.make_extruded_coords (67,226 us, 0.16%)</title><rect x="47.4" y="87" width="1.8" height="15.0" fill="rgb(0,0,0)" rx="2" ry="2" />
<text  x="50.38" y="97.5" ></text>
</g>
<g >
<title>pyop2.global_kernel.GlobalKernel.compile (32,143 us, 0.07%)</title><rect x="91.8" y="183" width="0.9" height="15.0" fill="rgb(0,0,0)" rx="2" ry="2" />
<text  x="94.84" y="193.5" ></text>
</g>
<g >
<title>ParLoopExecute (74,007 us, 0.17%)</title><rect x="1182.5" y="167" width="2.0" height="15.0" fill="rgb(0,0,0)" rx="2" ry="2" />
<text  x="1185.48" y="177.5" ></text>
</g>
<g >
<title>Log_Event_inits_wrap_slate_loopy_knl_70 (22,610 us, 0.05%)</title><rect x="703.9" y="263" width="0.6" height="15.0" fill="rgb(0,0,0)" rx="2" ry="2" />
<text  x="706.90" y="273.5" ></text>
</g>
<g >
<title>Log_Event_tensorshell_knl_92 (460,057 us, 1.06%)</title><rect x="613.0" y="263" width="12.5" height="15.0" fill="rgb(0,0,0)" rx="2" ry="2" />
<text  x="615.99" y="273.5" ></text>
</g>
<g >
<title>Log_Event_subkernel73_cell_to__cell_integral_otherwise (94,614 us, 0.22%)</title><rect x="1156.6" y="263" width="2.6" height="15.0" fill="rgb(0,0,0)" rx="2" ry="2" />
<text  x="1159.64" y="273.5" ></text>
</g>
<g >
<title>Parloop_Cells_wrap_slate_loopy_knl_0 (949,116 us, 2.19%)</title><rect x="125.0" y="183" width="25.8" height="15.0" fill="rgb(0,0,0)" rx="2" ry="2" />
<text  x="127.99" y="193.5" >P..</text>
</g>
<g >
<title>Log_Event_subkernel111_interior_facet_vert_to__exterior_facet_vert_integral_otherwise (356,992 us, 0.82%)</title><rect x="639.0" y="247" width="9.7" height="15.0" fill="rgb(0,0,0)" rx="2" ry="2" />
<text  x="642.01" y="257.5" ></text>
</g>
<g >
<title>firedrake.matrix_free.operators.ImplicitMatrixContext.mult (927,843 us, 2.14%)</title><rect x="669.7" y="247" width="25.3" height="15.0" fill="rgb(0,0,0)" rx="2" ry="2" />
<text  x="672.69" y="257.5" >f..</text>
</g>
<g >
<title>CreateExtMesh (67,226 us, 0.16%)</title><rect x="47.4" y="71" width="1.8" height="15.0" fill="rgb(0,0,0)" rx="2" ry="2" />
<text  x="50.38" y="81.5" ></text>
</g>
<g >
<title>pyop2.global_kernel.GlobalKernel.compile (38,676 us, 0.09%)</title><rect x="1165.0" y="263" width="1.1" height="15.0" fill="rgb(0,0,0)" rx="2" ry="2" />
<text  x="1168.02" y="273.5" ></text>
</g>
<g >
<title>MatMult (359,084 us, 0.83%)</title><rect x="90.8" y="119" width="9.8" height="15.0" fill="rgb(0,0,0)" rx="2" ry="2" />
<text  x="93.82" y="129.5" ></text>
</g>
<g >
<title>Log_Event_subkernel77_interior_facet_vert_to__exterior_facet_vert_integral_otherwise (169,051 us, 0.39%)</title><rect x="1160.4" y="263" width="4.6" height="15.0" fill="rgb(0,0,0)" rx="2" ry="2" />
<text  x="1163.41" y="273.5" ></text>
</g>
<g >
<title>Log_Event_subkernel118_cell_to__cell_integral_otherwise (82,818 us, 0.19%)</title><rect x="648.7" y="247" width="2.3" height="15.0" fill="rgb(0,0,0)" rx="2" ry="2" />
<text  x="651.73" y="257.5" ></text>
</g>
<g >
<title>Log_Event_subkernel105_cell_to__cell_integral_otherwise (71,127 us, 0.16%)</title><rect x="184.6" y="263" width="1.9" height="15.0" fill="rgb(0,0,0)" rx="2" ry="2" />
<text  x="187.59" y="273.5" ></text>
</g>
<g >
<title>Log_Event_subkernel97_cell_to__cell_integral_otherwise (50,948 us, 0.12%)</title><rect x="614.9" y="295" width="1.4" height="15.0" fill="rgb(0,0,0)" rx="2" ry="2" />
<text  x="617.92" y="305.5" ></text>
</g>
<g >
<title>PCSetUp (18,801,507 us, 43.39%)</title><rect x="669.7" y="183" width="512.0" height="15.0" fill="rgb(0,0,0)" rx="2" ry="2" />
<text  x="672.69" y="193.5" >PCSetUp</text>
</g>
<g >
<title>Log_Event_tensorshell_knl_120 (558,051 us, 1.29%)</title><rect x="199.0" y="263" width="15.2" height="15.0" fill="rgb(0,0,0)" rx="2" ry="2" />
<text  x="202.01" y="273.5" ></text>
</g>
<g >
<title>Parloop_Cells_wrap_wrap_slate_loopy_knl_70 (17,136,068 us, 39.54%)</title><rect x="699.5" y="247" width="466.6" height="15.0" fill="rgb(0,0,0)" rx="2" ry="2" />
<text  x="702.46" y="257.5" >Parloop_Cells_wrap_wrap_slate_loopy_knl_70</text>
</g>
<g >
<title>pyop2.global_kernel.GlobalKernel.compile (37,505 us, 0.09%)</title><rect x="90.8" y="183" width="1.0" height="15.0" fill="rgb(0,0,0)" rx="2" ry="2" />
<text  x="93.82" y="193.5" ></text>
</g>
<g >
<title>Log_Event_subkernel148_interior_facet_horiz_top_to__exterior_facet_top_integral_otherwise (24,282 us, 0.06%)</title><rect x="656.8" y="247" width="0.6" height="15.0" fill="rgb(0,0,0)" rx="2" ry="2" />
<text  x="659.78" y="257.5" ></text>
</g>
<g >
<title>Log_Event_subkernel13_cell_to__cell_integral_otherwise (225,746 us, 0.52%)</title><rect x="138.7" y="247" width="6.2" height="15.0" fill="rgb(0,0,0)" rx="2" ry="2" />
<text  x="141.73" y="257.5" ></text>
</g>
<g >
<title>Parloop_Cells_wrap_form00_cell_integral_otherwise (37,611 us, 0.09%)</title><rect x="1183.5" y="183" width="1.0" height="15.0" fill="rgb(0,0,0)" rx="2" ry="2" />
<text  x="1186.48" y="193.5" ></text>
</g>
<g >
<title>Log_Event_subkernel115_cell_to__cell_integral_otherwise (49,873 us, 0.12%)</title><rect x="192.6" y="263" width="1.4" height="15.0" fill="rgb(0,0,0)" rx="2" ry="2" />
<text  x="195.65" y="273.5" ></text>
</g>
<g >
<title>pyop2.global_kernel.GlobalKernel.compile (37,611 us, 0.09%)</title><rect x="1183.5" y="199" width="1.0" height="15.0" fill="rgb(0,0,0)" rx="2" ry="2" />
<text  x="1186.48" y="209.5" ></text>
</g>
<g >
<title>Log_Event_subkernel123_cell_to__cell_integral_otherwise (70,873 us, 0.16%)</title><rect x="199.9" y="295" width="1.9" height="15.0" fill="rgb(0,0,0)" rx="2" ry="2" />
<text  x="202.90" y="305.5" ></text>
</g>
<g >
<title>pyop2.global_kernel.GlobalKernel.compile (36,768 us, 0.08%)</title><rect x="100.6" y="215" width="1.0" height="15.0" fill="rgb(0,0,0)" rx="2" ry="2" />
<text  x="103.59" y="225.5" ></text>
</g>
<g >
<title>firedrake.matrix_free.operators.ImplicitMatrixContext.mult (19,054,493 us, 43.97%)</title><rect x="150.8" y="183" width="518.9" height="15.0" fill="rgb(0,0,0)" rx="2" ry="2" />
<text  x="153.84" y="193.5" >firedrake.matrix_free.operators.ImplicitMatrixContext.mult</text>
</g>
<g >
<title>HybridRHS (1,808,424 us, 4.17%)</title><rect x="101.6" y="151" width="49.2" height="15.0" fill="rgb(0,0,0)" rx="2" ry="2" />
<text  x="104.60" y="161.5" >Hybr..</text>
</g>
<g >
<title>Log_Event_tensorshell_knl_82 (460,994 us, 1.06%)</title><rect x="600.4" y="263" width="12.6" height="15.0" fill="rgb(0,0,0)" rx="2" ry="2" />
<text  x="603.44" y="273.5" ></text>
</g>
<g >
<title>KSPSolve (37,856,000 us, 87.36%)</title><rect x="150.8" y="151" width="1030.9" height="15.0" fill="rgb(0,0,0)" rx="2" ry="2" />
<text  x="153.84" y="161.5" >KSPSolve</text>
</g>
<g >
<title>Log_Event_subkernel107_cell_to__cell_integral_otherwise (49,663 us, 0.11%)</title><rect x="186.5" y="263" width="1.4" height="15.0" fill="rgb(0,0,0)" rx="2" ry="2" />
<text  x="189.53" y="273.5" ></text>
</g>
<g >
<title>Log_Event_subkernel18_cell_to__cell_integral_otherwise (167,334 us, 0.39%)</title><rect x="134.2" y="263" width="4.5" height="15.0" fill="rgb(0,0,0)" rx="2" ry="2" />
<text  x="137.17" y="273.5" ></text>
</g>
<g >
<title>Log_Event_subkernel149_interior_facet_horiz_top_to__exterior_facet_top_integral_otherwise (24,359 us, 0.06%)</title><rect x="663.6" y="247" width="0.6" height="15.0" fill="rgb(0,0,0)" rx="2" ry="2" />
<text  x="666.57" y="257.5" ></text>
</g>
<g >
<title>Log_Event_subkernel95_cell_to__cell_integral_otherwise (70,757 us, 0.16%)</title><rect x="613.0" y="295" width="1.9" height="15.0" fill="rgb(0,0,0)" rx="2" ry="2" />
<text  x="615.99" y="305.5" ></text>
</g>
<g >
<title>PCSetUp (182,138 us, 0.42%)</title><rect x="1181.7" y="151" width="4.9" height="15.0" fill="rgb(0,0,0)" rx="2" ry="2" />
<text  x="1184.65" y="161.5" ></text>
</g>
<g >
<title>firedrake.matrix_free.operators.ImplicitMatrixContext.mult (359,084 us, 0.83%)</title><rect x="90.8" y="135" width="9.8" height="15.0" fill="rgb(0,0,0)" rx="2" ry="2" />
<text  x="93.82" y="145.5" ></text>
</g>
<g >
<title>CreateSparsity (26,302 us, 0.06%)</title><rect x="1185.9" y="183" width="0.7" height="15.0" fill="rgb(0,0,0)" rx="2" ry="2" />
<text  x="1188.90" y="193.5" ></text>
</g>
<g >
<title>Log_Event_mtf_solve_84 (189,744 us, 0.44%)</title><rect x="600.4" y="279" width="5.2" height="15.0" fill="rgb(0,0,0)" rx="2" ry="2" />
<text  x="603.44" y="289.5" ></text>
</g>
<g >
<title>Log_Event_subkernel93_cell_to__cell_integral_otherwise (188,261 us, 0.43%)</title><rect x="620.4" y="279" width="5.1" height="15.0" fill="rgb(0,0,0)" rx="2" ry="2" />
<text  x="623.40" y="289.5" ></text>
</g>
<g >
<title>Log_Event_subkernel15_cell_to__cell_integral_otherwise (84,744 us, 0.20%)</title><rect x="130.3" y="263" width="2.3" height="15.0" fill="rgb(0,0,0)" rx="2" ry="2" />
<text  x="133.26" y="273.5" ></text>
</g>
<g >
<title>Log_Event_mtf_solve_112 (292,971 us, 0.68%)</title><rect x="189.8" y="247" width="8.0" height="15.0" fill="rgb(0,0,0)" rx="2" ry="2" />
<text  x="192.81" y="257.5" ></text>
</g>
<g >
<title>Log_Event_mtf_solve_94 (189,772 us, 0.44%)</title><rect x="613.0" y="279" width="5.2" height="15.0" fill="rgb(0,0,0)" rx="2" ry="2" />
<text  x="615.99" y="289.5" ></text>
</g>
<g >
<title>PCSetUp (124,365 us, 0.29%)</title><rect x="1186.6" y="103" width="3.4" height="15.0" fill="rgb(0,0,0)" rx="2" ry="2" />
<text  x="1189.61" y="113.5" ></text>
</g>
<g >
<title>ParLoopExecute (36,768 us, 0.08%)</title><rect x="100.6" y="183" width="1.0" height="15.0" fill="rgb(0,0,0)" rx="2" ry="2" />
<text  x="103.59" y="193.5" ></text>
</g>
<g >
<title>SNESSolve (40,366,779 us, 93.15%)</title><rect x="90.8" y="87" width="1099.2" height="15.0" fill="rgb(0,0,0)" rx="2" ry="2" />
<text  x="93.82" y="97.5" >SNESSolve</text>
</g>
<g >
<title>KSPSetUp (18,773,427 us, 43.32%)</title><rect x="669.7" y="199" width="511.2" height="15.0" fill="rgb(0,0,0)" rx="2" ry="2" />
<text  x="672.69" y="209.5" >KSPSetUp</text>
</g>
<g >
<title>Log_Event_subkernel110_interior_facet_vert_to__exterior_facet_vert_integral_otherwise (202,466 us, 0.47%)</title><rect x="632.0" y="247" width="5.5" height="15.0" fill="rgb(0,0,0)" rx="2" ry="2" />
<text  x="634.97" y="257.5" ></text>
</g>
<g >
<title>Log_Event_subkernel98_cell_to__cell_integral_otherwise (68,067 us, 0.16%)</title><rect x="616.3" y="295" width="1.9" height="15.0" fill="rgb(0,0,0)" rx="2" ry="2" />
<text  x="619.31" y="305.5" ></text>
</g>
<g >
<title>firedrake.assemble.allocate_matrix (544,259 us, 1.26%)</title><rect x="1166.1" y="231" width="14.8" height="15.0" fill="rgb(0,0,0)" rx="2" ry="2" />
<text  x="1169.07" y="241.5" ></text>
</g>
<g >
<title>Log_Event_subkernel136_cell_to__cell_integral_otherwise (3,353,260 us, 7.74%)</title><rect x="308.8" y="295" width="91.4" height="15.0" fill="rgb(0,0,0)" rx="2" ry="2" />
<text  x="311.85" y="305.5" >Log_Event..</text>
</g>
<g >
<title>Log_Event_subkernel121_cell_to__cell_integral_otherwise (188,579 us, 0.44%)</title><rect x="206.8" y="279" width="5.2" height="15.0" fill="rgb(0,0,0)" rx="2" ry="2" />
<text  x="209.84" y="289.5" ></text>
</g>
<g >
<title>Log_Event_tensorshell_knl_130 (13,891,701 us, 32.06%)</title><rect x="214.2" y="263" width="378.3" height="15.0" fill="rgb(0,0,0)" rx="2" ry="2" />
<text  x="217.20" y="273.5" >Log_Event_tensorshell_knl_130</text>
</g>
<g >
<title>Log_Event_slate_loopy_knl_0 (909,264 us, 2.10%)</title><rect x="125.0" y="199" width="24.8" height="15.0" fill="rgb(0,0,0)" rx="2" ry="2" />
<text  x="127.99" y="209.5" >L..</text>
</g>
<g >
<title>Log_Event_subkernel108_cell_to__cell_integral_otherwise (70,921 us, 0.16%)</title><rect x="187.9" y="263" width="1.9" height="15.0" fill="rgb(0,0,0)" rx="2" ry="2" />
<text  x="190.88" y="273.5" ></text>
</g>
<g >
<title>Log_Event_subkernel110_interior_facet_horiz_top_to__exterior_facet_top_integral_otherwise (24,170 us, 0.06%)</title><rect x="631.3" y="247" width="0.7" height="15.0" fill="rgb(0,0,0)" rx="2" ry="2" />
<text  x="634.31" y="257.5" ></text>
</g>
<g >
<title>HybridInit (124,365 us, 0.29%)</title><rect x="1186.6" y="119" width="3.4" height="15.0" fill="rgb(0,0,0)" rx="2" ry="2" />
<text  x="1189.61" y="129.5" ></text>
</g>
<g >
<title>Log_Event_mtf_solve_1 (700,040 us, 1.62%)</title><rect x="129.2" y="215" width="19.1" height="15.0" fill="rgb(0,0,0)" rx="2" ry="2" />
<text  x="132.24" y="225.5" ></text>
</g>
<g >
<title>Log_Event_subkernel90_cell_to__cell_integral_otherwise (82,400 us, 0.19%)</title><rect x="610.8" y="279" width="2.2" height="15.0" fill="rgb(0,0,0)" rx="2" ry="2" />
<text  x="613.75" y="289.5" ></text>
</g>
<g >
<title>KSPSolve (927,843 us, 2.14%)</title><rect x="669.7" y="215" width="25.3" height="15.0" fill="rgb(0,0,0)" rx="2" ry="2" />
<text  x="672.69" y="225.5" >K..</text>
</g>
<g >
<title>PCSetUp (28,080 us, 0.06%)</title><rect x="1180.9" y="199" width="0.8" height="15.0" fill="rgb(0,0,0)" rx="2" ry="2" />
<text  x="1183.89" y="209.5" ></text>
</g>
<g >
<title>ParLoopExecute (949,116 us, 2.19%)</title><rect x="125.0" y="167" width="25.8" height="15.0" fill="rgb(0,0,0)" rx="2" ry="2" />
<text  x="127.99" y="177.5" >P..</text>
</g>
<g >
<title>Log_Event_subkernel111_interior_facet_horiz_top_to__exterior_facet_top_integral_otherwise (27,829 us, 0.06%)</title><rect x="638.2" y="247" width="0.8" height="15.0" fill="rgb(0,0,0)" rx="2" ry="2" />
<text  x="641.25" y="257.5" ></text>
</g>
<g >
<title>Log_Event_tensorshell_knl_12 (668,564 us, 1.54%)</title><rect x="129.2" y="231" width="18.2" height="15.0" fill="rgb(0,0,0)" rx="2" ry="2" />
<text  x="132.24" y="241.5" ></text>
</g>
<g >
<title>Log_Event_tensorshell_knl_49 (26,713 us, 0.06%)</title><rect x="149.0" y="231" width="0.8" height="15.0" fill="rgb(0,0,0)" rx="2" ry="2" />
<text  x="152.03" y="241.5" ></text>
</g>
<g >
<title>Log_Event_subkernel125_cell_to__cell_integral_otherwise (50,635 us, 0.12%)</title><rect x="201.8" y="295" width="1.4" height="15.0" fill="rgb(0,0,0)" rx="2" ry="2" />
<text  x="204.83" y="305.5" ></text>
</g>
<g >
<title>inv_getri (994,620 us, 2.30%)</title><rect x="1118.8" y="279" width="27.1" height="15.0" fill="rgb(0,0,0)" rx="2" ry="2" />
<text  x="1121.81" y="289.5" >i..</text>
</g>
<g >
<title>Log_Event_mtf_solve_132 (7,119,304 us, 16.43%)</title><rect x="217.0" y="279" width="193.9" height="15.0" fill="rgb(0,0,0)" rx="2" ry="2" />
<text  x="220.04" y="289.5" >Log_Event_mtf_solve_132</text>
</g>
<g >
<title>Log_Event_mtf_solve_122 (287,639 us, 0.66%)</title><rect x="199.0" y="279" width="7.8" height="15.0" fill="rgb(0,0,0)" rx="2" ry="2" />
<text  x="202.01" y="289.5" ></text>
</g>
<g >
<title>Log_Event_subkernel116_cell_to__cell_integral_otherwise (138,884 us, 0.32%)</title><rect x="194.0" y="263" width="3.8" height="15.0" fill="rgb(0,0,0)" rx="2" ry="2" />
<text  x="197.01" y="273.5" ></text>
</g>
<g >
<title>Log_Event_subkernel87_cell_to__cell_integral_otherwise (50,926 us, 0.12%)</title><rect x="602.4" y="295" width="1.4" height="15.0" fill="rgb(0,0,0)" rx="2" ry="2" />
<text  x="605.37" y="305.5" ></text>
</g>
<g >
<title>Log_Event_mtf_solve_104 (191,711 us, 0.44%)</title><rect x="184.6" y="247" width="5.2" height="15.0" fill="rgb(0,0,0)" rx="2" ry="2" />
<text  x="187.59" y="257.5" ></text>
</g>
<g >
<title>Log_Event_subkernel131_cell_to__cell_integral_otherwise (4,705,487 us, 10.86%)</title><rect x="410.9" y="279" width="128.1" height="15.0" fill="rgb(0,0,0)" rx="2" ry="2" />
<text  x="413.90" y="289.5" >Log_Event_subk..</text>
</g>
<g >
<title>CreateFunctionSpace (23,660 us, 0.05%)</title><rect x="49.2" y="71" width="0.7" height="15.0" fill="rgb(0,0,0)" rx="2" ry="2" />
<text  x="52.21" y="81.5" ></text>
</g>
<g >
<title>Parloop_Cells_wrap_slate_loopy_knl_79 (19,033,136 us, 43.92%)</title><rect x="151.4" y="215" width="518.3" height="15.0" fill="rgb(0,0,0)" rx="2" ry="2" />
<text  x="154.42" y="225.5" >Parloop_Cells_wrap_slate_loopy_knl_79</text>
</g>
<g >
<title>CreateSparsity (405,468 us, 0.94%)</title><rect x="1166.1" y="247" width="11.0" height="15.0" fill="rgb(0,0,0)" rx="2" ry="2" />
<text  x="1169.07" y="257.5" ></text>
</g>
<g >
<title>pyop2.global_kernel.GlobalKernel.compile (35,609 us, 0.08%)</title><rect x="1189.0" y="183" width="1.0" height="15.0" fill="rgb(0,0,0)" rx="2" ry="2" />
<text  x="1192.03" y="193.5" ></text>
</g>
<g >
<title>Parloop_Cells_wrap_form1_cell_integral_otherwise (32,143 us, 0.07%)</title><rect x="91.8" y="167" width="0.9" height="15.0" fill="rgb(0,0,0)" rx="2" ry="2" />
<text  x="94.84" y="177.5" ></text>
</g>
<g >
<title>Log_Event_subkernel76_cell_to__cell_integral_otherwise (44,104 us, 0.10%)</title><rect x="1159.2" y="263" width="1.2" height="15.0" fill="rgb(0,0,0)" rx="2" ry="2" />
<text  x="1162.21" y="273.5" ></text>
</g>
<g >
<title>PCApply (18,801,507 us, 43.39%)</title><rect x="669.7" y="167" width="512.0" height="15.0" fill="rgb(0,0,0)" rx="2" ry="2" />
<text  x="672.69" y="177.5" >PCApply</text>
</g>
<g >
<title>Log_Event_subkernel148_interior_facet_horiz_bottom_to__exterior_facet_bottom_integral_otherwise (24,282 us, 0.06%)</title><rect x="656.1" y="247" width="0.7" height="15.0" fill="rgb(0,0,0)" rx="2" ry="2" />
<text  x="659.12" y="257.5" ></text>
</g>
<g >
<title>Log_Event_subkernel111_interior_facet_horiz_bottom_to__exterior_facet_bottom_integral_otherwise (28,067 us, 0.06%)</title><rect x="637.5" y="247" width="0.7" height="15.0" fill="rgb(0,0,0)" rx="2" ry="2" />
<text  x="640.49" y="257.5" ></text>
</g>
<g >
<title>ParLoopExecute (69,648 us, 0.16%)</title><rect x="90.8" y="151" width="1.9" height="15.0" fill="rgb(0,0,0)" rx="2" ry="2" />
<text  x="93.82" y="161.5" ></text>
</g>
<g >
<title>HybridBreak (36,768 us, 0.08%)</title><rect x="100.6" y="151" width="1.0" height="15.0" fill="rgb(0,0,0)" rx="2" ry="2" />
<text  x="103.59" y="161.5" ></text>
</g>
<g >
<title>Log_Event_subkernel85_cell_to__cell_integral_otherwise (70,726 us, 0.16%)</title><rect x="600.4" y="295" width="2.0" height="15.0" fill="rgb(0,0,0)" rx="2" ry="2" />
<text  x="603.44" y="305.5" ></text>
</g>
<g >
<title>Parloop_Cells_wrap_pyop2_kernel_uniform_extrusion (37,247 us, 0.09%)</title><rect x="48.2" y="119" width="1.0" height="15.0" fill="rgb(0,0,0)" rx="2" ry="2" />
<text  x="51.19" y="129.5" ></text>
</g>
<g >
<title>Log_Event_mtf_solve_14 (348,471 us, 0.80%)</title><rect x="129.2" y="247" width="9.5" height="15.0" fill="rgb(0,0,0)" rx="2" ry="2" />
<text  x="132.24" y="257.5" ></text>
</g>
</g>
</svg>
