<?xml version="1.0" standalone="no"?>
<!DOCTYPE svg PUBLIC "-//W3C//DTD SVG 1.1//EN" "http://www.w3.org/Graphics/SVG/1.1/DTD/svg11.dtd">
<svg version="1.1" width="1200" height="411" onload="init(evt)" viewBox="0 0 1200 411" xmlns="http://www.w3.org/2000/svg" xmlns:xlink="http://www.w3.org/1999/xlink">
<!-- Flame graph stack visualization. See https://github.com/brendangregg/FlameGraph for latest version, and http://www.brendangregg.com/flamegraphs.html for examples. -->
<!-- NOTES:  -->
<defs>
	<linearGradient id="background" y1="0" y2="1" x1="0" x2="0" >
		<stop stop-color="#eeeeee" offset="5%" />
		<stop stop-color="#eeeeb0" offset="95%" />
	</linearGradient>
</defs>
<style type="text/css">
	text { font-family:Verdana; font-size:13px; fill:rgb(0,0,0); }
	#search, #ignorecase { opacity:0.1; cursor:pointer; }
	#search:hover, #search.show, #ignorecase:hover, #ignorecase.show { opacity:1; }
	#subtitle { text-anchor:middle; font-color:rgb(160,160,160); }
	#title { text-anchor:middle; font-size:18px}
	#unzoom { cursor:pointer; }
	#frames > *:hover { stroke:black; stroke-width:0.5; cursor:pointer; }
	.hide { display:none; }
	.parent { opacity:0.5; }
</style>
<script type="text/ecmascript">
<![CDATA[
	"use strict";
	var details, searchbtn, unzoombtn, matchedtxt, svg, searching, currentSearchTerm, ignorecase, ignorecaseBtn;
	function init(evt) {
		details = document.getElementById("details").firstChild;
		searchbtn = document.getElementById("search");
		ignorecaseBtn = document.getElementById("ignorecase");
		unzoombtn = document.getElementById("unzoom");
		matchedtxt = document.getElementById("matched");
		svg = document.getElementsByTagName("svg")[0];
		searching = 0;
		currentSearchTerm = null;

		// use GET parameters to restore a flamegraphs state.
		var params = get_params();
		if (params.x && params.y)
			zoom(find_group(document.querySelector('[x="' + params.x + '"][y="' + params.y + '"]')));
                if (params.s) search(params.s);
	}

	// event listeners
	window.addEventListener("click", function(e) {
		var target = find_group(e.target);
		if (target) {
			if (target.nodeName == "a") {
				if (e.ctrlKey === false) return;
				e.preventDefault();
			}
			if (target.classList.contains("parent")) unzoom();
			zoom(target);
			if (!document.querySelector('.parent')) {
				clearzoom();
				return;
			}

			// set parameters for zoom state
			var el = target.querySelector("rect");
			if (el && el.attributes && el.attributes.y && el.attributes._orig_x) {
				var params = get_params()
				params.x = el.attributes._orig_x.value;
				params.y = el.attributes.y.value;
				history.replaceState(null, null, parse_params(params));
			}
		}
		else if (e.target.id == "unzoom") clearzoom();
		else if (e.target.id == "search") search_prompt();
		else if (e.target.id == "ignorecase") toggle_ignorecase();
	}, false)

	// mouse-over for info
	// show
	window.addEventListener("mouseover", function(e) {
		var target = find_group(e.target);
		if (target) details.nodeValue = "Function: " + g_to_text(target);
	}, false)

	// clear
	window.addEventListener("mouseout", function(e) {
		var target = find_group(e.target);
		if (target) details.nodeValue = ' ';
	}, false)

	// ctrl-F for search
	// ctrl-I to toggle case-sensitive search
	window.addEventListener("keydown",function (e) {
		if (e.keyCode === 114 || (e.ctrlKey && e.keyCode === 70)) {
			e.preventDefault();
			search_prompt();
		}
		else if (e.ctrlKey && e.keyCode === 73) {
			e.preventDefault();
			toggle_ignorecase();
		}
	}, false)

	// functions
	function get_params() {
		var params = {};
		var paramsarr = window.location.search.substr(1).split('&');
		for (var i = 0; i < paramsarr.length; ++i) {
			var tmp = paramsarr[i].split("=");
			if (!tmp[0] || !tmp[1]) continue;
			params[tmp[0]]  = decodeURIComponent(tmp[1]);
		}
		return params;
	}
	function parse_params(params) {
		var uri = "?";
		for (var key in params) {
			uri += key + '=' + encodeURIComponent(params[key]) + '&';
		}
		if (uri.slice(-1) == "&")
			uri = uri.substring(0, uri.length - 1);
		if (uri == '?')
			uri = window.location.href.split('?')[0];
		return uri;
	}
	function find_child(node, selector) {
		var children = node.querySelectorAll(selector);
		if (children.length) return children[0];
	}
	function find_group(node) {
		var parent = node.parentElement;
		if (!parent) return;
		if (parent.id == "frames") return node;
		return find_group(parent);
	}
	function orig_save(e, attr, val) {
		if (e.attributes["_orig_" + attr] != undefined) return;
		if (e.attributes[attr] == undefined) return;
		if (val == undefined) val = e.attributes[attr].value;
		e.setAttribute("_orig_" + attr, val);
	}
	function orig_load(e, attr) {
		if (e.attributes["_orig_"+attr] == undefined) return;
		e.attributes[attr].value = e.attributes["_orig_" + attr].value;
		e.removeAttribute("_orig_"+attr);
	}
	function g_to_text(e) {
		var text = find_child(e, "title").firstChild.nodeValue;
		return (text)
	}
	function g_to_func(e) {
		var func = g_to_text(e);
		// if there's any manipulation we want to do to the function
		// name before it's searched, do it here before returning.
		return (func);
	}
	function update_text(e) {
		var r = find_child(e, "rect");
		var t = find_child(e, "text");
		var w = parseFloat(r.attributes.width.value) -3;
		var txt = find_child(e, "title").textContent.replace(/\([^(]*\)$/,"");
		t.attributes.x.value = parseFloat(r.attributes.x.value) + 3;

		// Smaller than this size won't fit anything
		if (w < 2 * 13 * 0.59) {
			t.textContent = "";
			return;
		}

		t.textContent = txt;
		// Fit in full text width
		if (/^ *$/.test(txt) || t.getSubStringLength(0, txt.length) < w)
			return;

		for (var x = txt.length - 2; x > 0; x--) {
			if (t.getSubStringLength(0, x + 2) <= w) {
				t.textContent = txt.substring(0, x) + "..";
				return;
			}
		}
		t.textContent = "";
	}

	// zoom
	function zoom_reset(e) {
		if (e.attributes != undefined) {
			orig_load(e, "x");
			orig_load(e, "width");
		}
		if (e.childNodes == undefined) return;
		for (var i = 0, c = e.childNodes; i < c.length; i++) {
			zoom_reset(c[i]);
		}
	}
	function zoom_child(e, x, ratio) {
		if (e.attributes != undefined) {
			if (e.attributes.x != undefined) {
				orig_save(e, "x");
				e.attributes.x.value = (parseFloat(e.attributes.x.value) - x - 10) * ratio + 10;
				if (e.tagName == "text")
					e.attributes.x.value = find_child(e.parentNode, "rect[x]").attributes.x.value + 3;
			}
			if (e.attributes.width != undefined) {
				orig_save(e, "width");
				e.attributes.width.value = parseFloat(e.attributes.width.value) * ratio;
			}
		}

		if (e.childNodes == undefined) return;
		for (var i = 0, c = e.childNodes; i < c.length; i++) {
			zoom_child(c[i], x - 10, ratio);
		}
	}
	function zoom_parent(e) {
		if (e.attributes) {
			if (e.attributes.x != undefined) {
				orig_save(e, "x");
				e.attributes.x.value = 10;
			}
			if (e.attributes.width != undefined) {
				orig_save(e, "width");
				e.attributes.width.value = parseInt(svg.width.baseVal.value) - (10 * 2);
			}
		}
		if (e.childNodes == undefined) return;
		for (var i = 0, c = e.childNodes; i < c.length; i++) {
			zoom_parent(c[i]);
		}
	}
	function zoom(node) {
		var attr = find_child(node, "rect").attributes;
		var width = parseFloat(attr.width.value);
		var xmin = parseFloat(attr.x.value);
		var xmax = parseFloat(xmin + width);
		var ymin = parseFloat(attr.y.value);
		var ratio = (svg.width.baseVal.value - 2 * 10) / width;

		// XXX: Workaround for JavaScript float issues (fix me)
		var fudge = 0.0001;

		unzoombtn.classList.remove("hide");

		var el = document.getElementById("frames").children;
		for (var i = 0; i < el.length; i++) {
			var e = el[i];
			var a = find_child(e, "rect").attributes;
			var ex = parseFloat(a.x.value);
			var ew = parseFloat(a.width.value);
			var upstack;
			// Is it an ancestor
			if (1 == 0) {
				upstack = parseFloat(a.y.value) > ymin;
			} else {
				upstack = parseFloat(a.y.value) < ymin;
			}
			if (upstack) {
				// Direct ancestor
				if (ex <= xmin && (ex+ew+fudge) >= xmax) {
					e.classList.add("parent");
					zoom_parent(e);
					update_text(e);
				}
				// not in current path
				else
					e.classList.add("hide");
			}
			// Children maybe
			else {
				// no common path
				if (ex < xmin || ex + fudge >= xmax) {
					e.classList.add("hide");
				}
				else {
					zoom_child(e, xmin, ratio);
					update_text(e);
				}
			}
		}
		search();
	}
	function unzoom() {
		unzoombtn.classList.add("hide");
		var el = document.getElementById("frames").children;
		for(var i = 0; i < el.length; i++) {
			el[i].classList.remove("parent");
			el[i].classList.remove("hide");
			zoom_reset(el[i]);
			update_text(el[i]);
		}
		search();
	}
	function clearzoom() {
		unzoom();

		// remove zoom state
		var params = get_params();
		if (params.x) delete params.x;
		if (params.y) delete params.y;
		history.replaceState(null, null, parse_params(params));
	}

	// search
	function toggle_ignorecase() {
		ignorecase = !ignorecase;
		if (ignorecase) {
			ignorecaseBtn.classList.add("show");
		} else {
			ignorecaseBtn.classList.remove("show");
		}
		reset_search();
		search();
	}
	function reset_search() {
		var el = document.querySelectorAll("#frames rect");
		for (var i = 0; i < el.length; i++) {
			orig_load(el[i], "fill")
		}
		var params = get_params();
		delete params.s;
		history.replaceState(null, null, parse_params(params));
	}
	function search_prompt() {
		if (!searching) {
			var term = prompt("Enter a search term (regexp " +
			    "allowed, eg: ^ext4_)"
			    + (ignorecase ? ", ignoring case" : "")
			    + "\nPress Ctrl-i to toggle case sensitivity", "");
			if (term != null) search(term);
		} else {
			reset_search();
			searching = 0;
			currentSearchTerm = null;
			searchbtn.classList.remove("show");
			searchbtn.firstChild.nodeValue = "Search"
			matchedtxt.classList.add("hide");
			matchedtxt.firstChild.nodeValue = ""
		}
	}
	function search(term) {
		if (term) currentSearchTerm = term;

		var re = new RegExp(currentSearchTerm, ignorecase ? 'i' : '');
		var el = document.getElementById("frames").children;
		var matches = new Object();
		var maxwidth = 0;
		for (var i = 0; i < el.length; i++) {
			var e = el[i];
			var func = g_to_func(e);
			var rect = find_child(e, "rect");
			if (func == null || rect == null)
				continue;

			// Save max width. Only works as we have a root frame
			var w = parseFloat(rect.attributes.width.value);
			if (w > maxwidth)
				maxwidth = w;

			if (func.match(re)) {
				// highlight
				var x = parseFloat(rect.attributes.x.value);
				orig_save(rect, "fill");
				rect.attributes.fill.value = "rgb(230,0,230)";

				// remember matches
				if (matches[x] == undefined) {
					matches[x] = w;
				} else {
					if (w > matches[x]) {
						// overwrite with parent
						matches[x] = w;
					}
				}
				searching = 1;
			}
		}
		if (!searching)
			return;
		var params = get_params();
		params.s = currentSearchTerm;
		history.replaceState(null, null, parse_params(params));

		searchbtn.classList.add("show");
		searchbtn.firstChild.nodeValue = "Reset Search";

		// calculate percent matched, excluding vertical overlap
		var count = 0;
		var lastx = -1;
		var lastw = 0;
		var keys = Array();
		for (k in matches) {
			if (matches.hasOwnProperty(k))
				keys.push(k);
		}
		// sort the matched frames by their x location
		// ascending, then width descending
		keys.sort(function(a, b){
			return a - b;
		});
		// Step through frames saving only the biggest bottom-up frames
		// thanks to the sort order. This relies on the tree property
		// where children are always smaller than their parents.
		var fudge = 0.0001;	// JavaScript floating point
		for (var k in keys) {
			var x = parseFloat(keys[k]);
			var w = matches[keys[k]];
			if (x >= lastx + lastw - fudge) {
				count += w;
				lastx = x;
				lastw = w;
			}
		}
		// display matched percent
		matchedtxt.classList.remove("hide");
		var pct = 100 * count / maxwidth;
		if (pct != 100) pct = pct.toFixed(1)
		matchedtxt.firstChild.nodeValue = "Matched: " + pct + "%";
	}
]]>
</script>
<rect x="0.0" y="0" width="1200.0" height="411.0" fill="url(#background)"  />
<text id="title" x="600.00" y="26" >Firedrake example</text>
<text id="details" x="10.00" y="393" > </text>
<text id="unzoom" x="10.00" y="26" class="hide">Reset Zoom</text>
<text id="search" x="1090.00" y="26" >Search</text>
<text id="ignorecase" x="1174.00" y="26" >ic</text>
<text id="matched" x="1090.00" y="393" > </text>
<g id="frames">
<g >
<title>Log_Event_subkernel85_cell_to__cell_integral_otherwise (116,265 us, 0.17%)</title><rect x="857.2" y="295" width="2.0" height="15.0" fill="rgb(0,0,0)" rx="2" ry="2" />
<text  x="860.21" y="305.5" ></text>
</g>
<g >
<title>Log_Event_tensorshell_knl_14 (847,311 us, 1.23%)</title><rect x="88.0" y="231" width="14.6" height="15.0" fill="rgb(0,0,0)" rx="2" ry="2" />
<text  x="91.04" y="241.5" ></text>
</g>
<g >
<title>Log_Event_mtf_solve_1 (899,703 us, 1.31%)</title><rect x="87.1" y="215" width="15.5" height="15.0" fill="rgb(0,0,0)" rx="2" ry="2" />
<text  x="90.14" y="225.5" ></text>
</g>
<g >
<title>Log_Event_tensorshell_knl_80 (218,087 us, 0.32%)</title><rect x="1164.5" y="327" width="3.7" height="15.0" fill="rgb(0,0,0)" rx="2" ry="2" />
<text  x="1167.48" y="337.5" ></text>
</g>
<g >
<title>SCForwardElim (2,459,327 us, 3.58%)</title><rect x="61.5" y="135" width="42.2" height="15.0" fill="rgb(0,0,0)" rx="2" ry="2" />
<text  x="64.50" y="145.5" >SCF..</text>
</g>
<g >
<title>Log_Event_subkernel111_interior_facet_vert_to__exterior_facet_vert_integral_otherwise (113,675 us, 0.17%)</title><rect x="1173.7" y="311" width="2.0" height="15.0" fill="rgb(0,0,0)" rx="2" ry="2" />
<text  x="1176.74" y="321.5" ></text>
</g>
<g >
<title>Log_Event_tensorshell_knl_121 (1,421,972 us, 2.07%)</title><rect x="188.0" y="263" width="24.4" height="15.0" fill="rgb(0,0,0)" rx="2" ry="2" />
<text  x="191.02" y="273.5" >L..</text>
</g>
<g >
<title>Log_Event_subkernel141_cell_to__cell_integral_otherwise (1,099,827 us, 1.60%)</title><rect x="1140.3" y="343" width="18.8" height="15.0" fill="rgb(0,0,0)" rx="2" ry="2" />
<text  x="1143.25" y="353.5" ></text>
</g>
<g >
<title>Log_Event_subkernel104_cell_to__cell_integral_otherwise (428,032 us, 0.62%)</title><rect x="890.3" y="247" width="7.4" height="15.0" fill="rgb(0,0,0)" rx="2" ry="2" />
<text  x="893.35" y="257.5" ></text>
</g>
<g >
<title>Log_Event_subkernel112_interior_facet_vert_to__exterior_facet_vert_integral_otherwise (812,259 us, 1.18%)</title><rect x="909.6" y="247" width="14.0" height="15.0" fill="rgb(0,0,0)" rx="2" ry="2" />
<text  x="912.63" y="257.5" ></text>
</g>
<g >
<title>firedrake.matrix_free.operators.ImplicitMatrixContext.mult (13,411,740 us, 19.50%)</title><rect x="954.6" y="247" width="230.1" height="15.0" fill="rgb(0,0,0)" rx="2" ry="2" />
<text  x="957.62" y="257.5" >firedrake.matrix_free.opera..</text>
</g>
<g >
<title>Log_Event_subkernel134_cell_to__cell_integral_otherwise (2,625,377 us, 3.82%)</title><rect x="1095.2" y="343" width="45.1" height="15.0" fill="rgb(0,0,0)" rx="2" ry="2" />
<text  x="1098.21" y="353.5" >Log..</text>
</g>
<g >
<title>Log_Event_subkernel149_cell_to__cell_integral_otherwise (112,371 us, 0.16%)</title><rect x="836.9" y="263" width="1.9" height="15.0" fill="rgb(0,0,0)" rx="2" ry="2" />
<text  x="839.92" y="273.5" ></text>
</g>
<g >
<title>Log_Event_subkernel147_cell_to__cell_integral_otherwise (161,666 us, 0.24%)</title><rect x="834.1" y="263" width="2.8" height="15.0" fill="rgb(0,0,0)" rx="2" ry="2" />
<text  x="837.14" y="273.5" ></text>
</g>
<g >
<title>PCApply (65,639,297 us, 95.43%)</title><rect x="61.5" y="119" width="1126.0" height="15.0" fill="rgb(0,0,0)" rx="2" ry="2" />
<text  x="64.50" y="129.5" >PCApply</text>
</g>
<g >
<title>Log_Event_mtf_solve_135 (20,545,275 us, 29.87%)</title><rect x="216.6" y="279" width="352.4" height="15.0" fill="rgb(0,0,0)" rx="2" ry="2" />
<text  x="219.56" y="289.5" >Log_Event_mtf_solve_135</text>
</g>
<g >
<title>Log_Event_tensorshell_knl_137 (73,085 us, 0.11%)</title><rect x="1090.3" y="359" width="1.3" height="15.0" fill="rgb(0,0,0)" rx="2" ry="2" />
<text  x="1093.35" y="369.5" ></text>
</g>
<g >
<title>MatMult (83,903 us, 0.12%)</title><rect x="60.1" y="119" width="1.4" height="15.0" fill="rgb(0,0,0)" rx="2" ry="2" />
<text  x="63.06" y="129.5" ></text>
</g>
<g >
<title>Log_Event_subkernel91_cell_to__cell_integral_otherwise (176,190 us, 0.26%)</title><rect x="849.0" y="263" width="3.0" height="15.0" fill="rgb(0,0,0)" rx="2" ry="2" />
<text  x="852.01" y="273.5" ></text>
</g>
<g >
<title>MatMult (49,549,874 us, 72.04%)</title><rect x="103.7" y="167" width="850.0" height="15.0" fill="rgb(0,0,0)" rx="2" ry="2" />
<text  x="106.69" y="177.5" >MatMult</text>
</g>
<g >
<title>Log_Event_slate_loopy_knl_0 (1,125,936 us, 1.64%)</title><rect x="84.4" y="199" width="19.3" height="15.0" fill="rgb(0,0,0)" rx="2" ry="2" />
<text  x="87.38" y="209.5" ></text>
</g>
<g >
<title>Log_Event_tensorshell_knl_80 (1,046,934 us, 1.52%)</title><rect x="854.4" y="263" width="18.0" height="15.0" fill="rgb(0,0,0)" rx="2" ry="2" />
<text  x="857.44" y="273.5" ></text>
</g>
<g >
<title>ParLoopExecute (1,182,074 us, 1.72%)</title><rect x="83.4" y="167" width="20.3" height="15.0" fill="rgb(0,0,0)" rx="2" ry="2" />
<text  x="86.41" y="177.5" ></text>
</g>
<g >
<title>Log_Event_subkernel126_cell_to__cell_integral_otherwise (115,129 us, 0.17%)</title><rect x="192.4" y="295" width="2.0" height="15.0" fill="rgb(0,0,0)" rx="2" ry="2" />
<text  x="195.40" y="305.5" ></text>
</g>
<g >
<title>Log_Event_mtf_solve_105 (437,521 us, 0.64%)</title><rect x="154.8" y="247" width="7.5" height="15.0" fill="rgb(0,0,0)" rx="2" ry="2" />
<text  x="157.77" y="257.5" ></text>
</g>
<g >
<title>Log_Event_mtf_solve_135 (4,907,849 us, 7.14%)</title><rect x="1011.0" y="343" width="84.2" height="15.0" fill="rgb(0,0,0)" rx="2" ry="2" />
<text  x="1014.02" y="353.5" >Log_Even..</text>
</g>
<g >
<title>Log_Event_subkernel134_cell_to__cell_integral_otherwise (10,824,739 us, 15.74%)</title><rect x="569.0" y="279" width="185.7" height="15.0" fill="rgb(0,0,0)" rx="2" ry="2" />
<text  x="572.01" y="289.5" >Log_Event_subkernel134..</text>
</g>
<g >
<title>CreateExtMesh (69,615 us, 0.10%)</title><rect x="32.6" y="71" width="1.2" height="15.0" fill="rgb(0,0,0)" rx="2" ry="2" />
<text  x="35.59" y="81.5" ></text>
</g>
<g >
<title>Log_Event_mtf_solve_120 (9,147,139 us, 13.30%)</title><rect x="1002.2" y="311" width="156.9" height="15.0" fill="rgb(0,0,0)" rx="2" ry="2" />
<text  x="1005.20" y="321.5" >Log_Event_mtf_solv..</text>
</g>
<g >
<title>Log_Event_subkernel152_interior_facet_vert_to__exterior_facet_vert_integral_otherwise (110,909 us, 0.16%)</title><rect x="1180.9" y="311" width="1.9" height="15.0" fill="rgb(0,0,0)" rx="2" ry="2" />
<text  x="1183.88" y="321.5" ></text>
</g>
<g >
<title>Log_Event_tensorshell_knl_140 (210,561 us, 0.31%)</title><rect x="1091.6" y="359" width="3.6" height="15.0" fill="rgb(0,0,0)" rx="2" ry="2" />
<text  x="1094.60" y="369.5" ></text>
</g>
<g >
<title>ParLoopExecute (81,242 us, 0.12%)</title><rect x="1184.7" y="167" width="1.4" height="15.0" fill="rgb(0,0,0)" rx="2" ry="2" />
<text  x="1187.70" y="177.5" ></text>
</g>
<g >
<title>MatMult (52,689 us, 0.08%)</title><rect x="953.7" y="215" width="0.9" height="15.0" fill="rgb(0,0,0)" rx="2" ry="2" />
<text  x="956.72" y="225.5" ></text>
</g>
<g >
<title>Log_Event_subkernel91_interior_facet_vert_to__exterior_facet_vert_integral_otherwise (140,370 us, 0.20%)</title><rect x="852.0" y="263" width="2.4" height="15.0" fill="rgb(0,0,0)" rx="2" ry="2" />
<text  x="855.03" y="273.5" ></text>
</g>
<g >
<title>Log_Event_subkernel127_cell_to__cell_integral_otherwise (438,374 us, 0.64%)</title><rect x="194.4" y="295" width="7.5" height="15.0" fill="rgb(0,0,0)" rx="2" ry="2" />
<text  x="197.37" y="305.5" ></text>
</g>
<g >
<title>Log_Event_subkernel145_cell_to__cell_integral_otherwise (104,251 us, 0.15%)</title><rect x="1179.1" y="311" width="1.8" height="15.0" fill="rgb(0,0,0)" rx="2" ry="2" />
<text  x="1182.09" y="321.5" ></text>
</g>
<g >
<title>all (68,784,918 us, 100%)</title><rect x="10.0" y="39" width="1180.0" height="15.0" fill="rgb(0,0,0)" rx="2" ry="2" />
<text  x="13.00" y="49.5" ></text>
</g>
<g >
<title>Log_Event_subkernel117_cell_to__cell_integral_otherwise (469,597 us, 0.68%)</title><rect x="168.7" y="263" width="8.1" height="15.0" fill="rgb(0,0,0)" rx="2" ry="2" />
<text  x="171.72" y="273.5" ></text>
</g>
<g >
<title>SCSolve (63,179,970 us, 91.85%)</title><rect x="103.7" y="135" width="1083.8" height="15.0" fill="rgb(0,0,0)" rx="2" ry="2" />
<text  x="106.69" y="145.5" >SCSolve</text>
</g>
<g >
<title>firedrake.extrusion_utils.make_extruded_coords (69,615 us, 0.10%)</title><rect x="32.6" y="87" width="1.2" height="15.0" fill="rgb(0,0,0)" rx="2" ry="2" />
<text  x="35.59" y="97.5" ></text>
</g>
<g >
<title>Parloop_Cells_wrap_slate_loopy_knl_77 (11,912,687 us, 17.32%)</title><rect x="980.3" y="279" width="204.4" height="15.0" fill="rgb(0,0,0)" rx="2" ry="2" />
<text  x="983.34" y="289.5" >Parloop_Cells_wrap_slate..</text>
</g>
<g >
<title>Log_Event_subkernel153_interior_facet_vert_to__exterior_facet_vert_integral_otherwise (111,565 us, 0.16%)</title><rect x="1182.8" y="311" width="1.9" height="15.0" fill="rgb(0,0,0)" rx="2" ry="2" />
<text  x="1185.78" y="321.5" ></text>
</g>
<g >
<title>Log_Event_subkernel20_cell_to__cell_integral_otherwise (268,251 us, 0.39%)</title><rect x="91.8" y="263" width="4.6" height="15.0" fill="rgb(0,0,0)" rx="2" ry="2" />
<text  x="94.78" y="273.5" ></text>
</g>
<g >
<title>Log_Event_mtf_solve_79 (2,537,960 us, 3.69%)</title><rect x="846.8" y="247" width="43.5" height="15.0" fill="rgb(0,0,0)" rx="2" ry="2" />
<text  x="849.81" y="257.5" >Log..</text>
</g>
<g >
<title>Log_Event_subkernel152_interior_facet_horiz_top_to__exterior_facet_top_integral_otherwise (56,824 us, 0.08%)</title><rect x="935.1" y="247" width="1.0" height="15.0" fill="rgb(0,0,0)" rx="2" ry="2" />
<text  x="938.09" y="257.5" ></text>
</g>
<g >
<title>Log_Event_subkernel116_cell_to__cell_integral_otherwise (114,002 us, 0.17%)</title><rect x="166.8" y="263" width="1.9" height="15.0" fill="rgb(0,0,0)" rx="2" ry="2" />
<text  x="169.76" y="273.5" ></text>
</g>
<g >
<title>PCSetUp (165,667 us, 0.24%)</title><rect x="1184.7" y="151" width="2.8" height="15.0" fill="rgb(0,0,0)" rx="2" ry="2" />
<text  x="1187.70" y="161.5" ></text>
</g>
<g >
<title>Log_Event_subkernel88_cell_to__cell_integral_otherwise (186,432 us, 0.27%)</title><rect x="869.2" y="279" width="3.2" height="15.0" fill="rgb(0,0,0)" rx="2" ry="2" />
<text  x="872.20" y="289.5" ></text>
</g>
<g >
<title>Log_Event_subkernel122_cell_to__cell_integral_otherwise (104,094 us, 0.15%)</title><rect x="1008.3" y="343" width="1.8" height="15.0" fill="rgb(0,0,0)" rx="2" ry="2" />
<text  x="1011.29" y="353.5" ></text>
</g>
<g >
<title>Log_Event_tensorshell_knl_133 (36,145,587 us, 52.55%)</title><rect x="212.4" y="263" width="620.1" height="15.0" fill="rgb(0,0,0)" rx="2" ry="2" />
<text  x="215.42" y="273.5" >Log_Event_tensorshell_knl_133</text>
</g>
<g >
<title>PCApply (52,689 us, 0.08%)</title><rect x="953.7" y="183" width="0.9" height="15.0" fill="rgb(0,0,0)" rx="2" ry="2" />
<text  x="956.72" y="193.5" ></text>
</g>
<g >
<title>firedrake.matrix_free.operators.ImplicitMatrixContext.mult (52,689 us, 0.08%)</title><rect x="953.7" y="231" width="0.9" height="15.0" fill="rgb(0,0,0)" rx="2" ry="2" />
<text  x="956.72" y="241.5" ></text>
</g>
<g >
<title>Log_Event_subkernel81_cell_to__cell_integral_otherwise (427,528 us, 0.62%)</title><rect x="861.9" y="279" width="7.3" height="15.0" fill="rgb(0,0,0)" rx="2" ry="2" />
<text  x="864.87" y="289.5" ></text>
</g>
<g >
<title>Log_Event_subkernel112_interior_facet_horiz_bottom_to__exterior_facet_bottom_integral_otherwise (63,219 us, 0.09%)</title><rect x="907.5" y="247" width="1.1" height="15.0" fill="rgb(0,0,0)" rx="2" ry="2" />
<text  x="910.47" y="257.5" ></text>
</g>
<g >
<title>Log_Event_subkernel132_cell_to__cell_integral_otherwise (176,349 us, 0.26%)</title><rect x="182.6" y="263" width="3.0" height="15.0" fill="rgb(0,0,0)" rx="2" ry="2" />
<text  x="185.58" y="273.5" ></text>
</g>
<g >
<title>Log_Event_subkernel150_cell_to__cell_integral_otherwise (114,475 us, 0.17%)</title><rect x="1160.7" y="327" width="1.9" height="15.0" fill="rgb(0,0,0)" rx="2" ry="2" />
<text  x="1163.67" y="337.5" ></text>
</g>
<g >
<title>Log_Event_subkernel22_cell_to__cell_integral_otherwise (108,017 us, 0.16%)</title><rect x="100.7" y="247" width="1.9" height="15.0" fill="rgb(0,0,0)" rx="2" ry="2" />
<text  x="103.72" y="257.5" ></text>
</g>
<g >
<title>Log_Event_subkernel139_cell_to__cell_integral_otherwise (2,690,195 us, 3.91%)</title><rect x="1044.2" y="359" width="46.1" height="15.0" fill="rgb(0,0,0)" rx="2" ry="2" />
<text  x="1047.20" y="369.5" >Log_..</text>
</g>
<g >
<title>Log_Event_tensorshell_knl_137 (304,881 us, 0.44%)</title><rect x="548.5" y="295" width="5.2" height="15.0" fill="rgb(0,0,0)" rx="2" ry="2" />
<text  x="551.51" y="305.5" ></text>
</g>
<g >
<title>Log_Event_subkernel93_cell_to__cell_integral_otherwise (425,963 us, 0.62%)</title><rect x="883.0" y="279" width="7.3" height="15.0" fill="rgb(0,0,0)" rx="2" ry="2" />
<text  x="886.04" y="289.5" ></text>
</g>
<g >
<title>firedrake.matrix_free.operators.ImplicitMatrixContext.mult (49,549,874 us, 72.04%)</title><rect x="103.7" y="183" width="850.0" height="15.0" fill="rgb(0,0,0)" rx="2" ry="2" />
<text  x="106.69" y="193.5" >firedrake.matrix_free.operators.ImplicitMatrixContext.mult</text>
</g>
<g >
<title>Log_Event_mtf_solve_16 (486,233 us, 0.71%)</title><rect x="88.0" y="247" width="8.4" height="15.0" fill="rgb(0,0,0)" rx="2" ry="2" />
<text  x="91.04" y="257.5" ></text>
</g>
<g >
<title>Log_Event_subkernel153_interior_facet_vert_to__exterior_facet_vert_integral_otherwise (457,720 us, 0.67%)</title><rect x="945.9" y="247" width="7.8" height="15.0" fill="rgb(0,0,0)" rx="2" ry="2" />
<text  x="948.87" y="257.5" ></text>
</g>
<g >
<title>Log_Event_mtf_solve_113 (204,115 us, 0.30%)</title><rect x="998.7" y="311" width="3.5" height="15.0" fill="rgb(0,0,0)" rx="2" ry="2" />
<text  x="1001.70" y="321.5" ></text>
</g>
<g >
<title>Log_Event_subkernel93_cell_to__cell_integral_otherwise (103,803 us, 0.15%)</title><rect x="1170.2" y="343" width="1.8" height="15.0" fill="rgb(0,0,0)" rx="2" ry="2" />
<text  x="1173.18" y="353.5" ></text>
</g>
<g >
<title>Log_Event_mtf_solve_82 (432,974 us, 0.63%)</title><rect x="854.4" y="279" width="7.5" height="15.0" fill="rgb(0,0,0)" rx="2" ry="2" />
<text  x="857.44" y="289.5" ></text>
</g>
<g >
<title>Log_Event_mtf_solve_82 (113,795 us, 0.17%)</title><rect x="1164.5" y="343" width="1.9" height="15.0" fill="rgb(0,0,0)" rx="2" ry="2" />
<text  x="1167.48" y="353.5" ></text>
</g>
<g >
<title>Log_Event_subkernel145_cell_to__cell_integral_otherwise (427,525 us, 0.62%)</title><rect x="926.8" y="247" width="7.3" height="15.0" fill="rgb(0,0,0)" rx="2" ry="2" />
<text  x="929.78" y="257.5" ></text>
</g>
<g >
<title>Log_Event_mtf_solve_94 (432,588 us, 0.63%)</title><rect x="872.4" y="279" width="7.4" height="15.0" fill="rgb(0,0,0)" rx="2" ry="2" />
<text  x="875.40" y="289.5" ></text>
</g>
<g >
<title>Log_Event_subkernel111_interior_facet_horiz_top_to__exterior_facet_top_integral_otherwise (56,429 us, 0.08%)</title><rect x="898.7" y="247" width="0.9" height="15.0" fill="rgb(0,0,0)" rx="2" ry="2" />
<text  x="901.66" y="257.5" ></text>
</g>
<g >
<title>Log_Event_mtf_solve_94 (113,738 us, 0.17%)</title><rect x="1168.2" y="343" width="2.0" height="15.0" fill="rgb(0,0,0)" rx="2" ry="2" />
<text  x="1171.23" y="353.5" ></text>
</g>
<g >
<title>Log_Event_subkernel124_cell_to__cell_integral_otherwise (161,931 us, 0.24%)</title><rect x="189.6" y="295" width="2.8" height="15.0" fill="rgb(0,0,0)" rx="2" ry="2" />
<text  x="192.62" y="305.5" ></text>
</g>
<g >
<title>PCSetUp (143,368 us, 0.21%)</title><rect x="1187.5" y="103" width="2.5" height="15.0" fill="rgb(0,0,0)" rx="2" ry="2" />
<text  x="1190.54" y="113.5" ></text>
</g>
<g >
<title>Log_Event_mtf_solve_146 (834,364 us, 1.21%)</title><rect x="832.5" y="247" width="14.3" height="15.0" fill="rgb(0,0,0)" rx="2" ry="2" />
<text  x="835.49" y="257.5" ></text>
</g>
<g >
<title>Log_Event_mtf_solve_113 (845,361 us, 1.23%)</title><rect x="162.3" y="247" width="14.5" height="15.0" fill="rgb(0,0,0)" rx="2" ry="2" />
<text  x="165.27" y="257.5" ></text>
</g>
<g >
<title>Log_Event_subkernel106_cell_to__cell_integral_otherwise (162,278 us, 0.24%)</title><rect x="154.8" y="263" width="2.7" height="15.0" fill="rgb(0,0,0)" rx="2" ry="2" />
<text  x="157.77" y="273.5" ></text>
</g>
<g >
<title>Log_Event_mtf_solve_146 (204,823 us, 0.30%)</title><rect x="1159.1" y="311" width="3.5" height="15.0" fill="rgb(0,0,0)" rx="2" ry="2" />
<text  x="1162.12" y="321.5" ></text>
</g>
<g >
<title>PCApply (13,464,429 us, 19.57%)</title><rect x="953.7" y="167" width="231.0" height="15.0" fill="rgb(0,0,0)" rx="2" ry="2" />
<text  x="956.72" y="177.5" >PCApply</text>
</g>
<g >
<title>Parloop_Cells_wrap_slate_loopy_knl_0 (1,182,074 us, 1.72%)</title><rect x="83.4" y="183" width="20.3" height="15.0" fill="rgb(0,0,0)" rx="2" ry="2" />
<text  x="86.41" y="193.5" ></text>
</g>
<g >
<title>KSPSetUp (13,411,740 us, 19.50%)</title><rect x="954.6" y="199" width="230.1" height="15.0" fill="rgb(0,0,0)" rx="2" ry="2" />
<text  x="957.62" y="209.5" >KSPSetUp</text>
</g>
<g >
<title>Log_Event_subkernel112_interior_facet_horiz_top_to__exterior_facet_top_integral_otherwise (62,551 us, 0.09%)</title><rect x="908.6" y="247" width="1.0" height="15.0" fill="rgb(0,0,0)" rx="2" ry="2" />
<text  x="911.55" y="257.5" ></text>
</g>
<g >
<title>KSPSolve (13,411,740 us, 19.50%)</title><rect x="954.6" y="215" width="230.1" height="15.0" fill="rgb(0,0,0)" rx="2" ry="2" />
<text  x="957.62" y="225.5" >KSPSolve</text>
</g>
<g >
<title>ParLoopExecute (49,549,874 us, 72.04%)</title><rect x="103.7" y="199" width="850.0" height="15.0" fill="rgb(0,0,0)" rx="2" ry="2" />
<text  x="106.69" y="209.5" >ParLoopExecute</text>
</g>
<g >
<title>Log_Event_subkernel86_cell_to__cell_integral_otherwise (155,270 us, 0.23%)</title><rect x="859.2" y="295" width="2.7" height="15.0" fill="rgb(0,0,0)" rx="2" ry="2" />
<text  x="862.21" y="305.5" ></text>
</g>
<g >
<title>Log_Event_subkernel108_cell_to__cell_integral_otherwise (113,132 us, 0.16%)</title><rect x="157.5" y="263" width="2.0" height="15.0" fill="rgb(0,0,0)" rx="2" ry="2" />
<text  x="160.55" y="273.5" ></text>
</g>
<g >
<title>Log_Event_subkernel129_cell_to__cell_integral_otherwise (186,363 us, 0.27%)</title><rect x="209.2" y="279" width="3.2" height="15.0" fill="rgb(0,0,0)" rx="2" ry="2" />
<text  x="212.22" y="289.5" ></text>
</g>
<g >
<title>Log_Event_subkernel95_cell_to__cell_integral_otherwise (161,062 us, 0.23%)</title><rect x="872.4" y="295" width="2.8" height="15.0" fill="rgb(0,0,0)" rx="2" ry="2" />
<text  x="875.40" y="305.5" ></text>
</g>
<g >
<title>Log_Event_subkernel153_interior_facet_horiz_bottom_to__exterior_facet_bottom_integral_otherwise (56,861 us, 0.08%)</title><rect x="943.9" y="247" width="1.0" height="15.0" fill="rgb(0,0,0)" rx="2" ry="2" />
<text  x="946.91" y="257.5" ></text>
</g>
<g >
<title>Log_Event_subkernel109_cell_to__cell_integral_otherwise (162,111 us, 0.24%)</title><rect x="159.5" y="263" width="2.8" height="15.0" fill="rgb(0,0,0)" rx="2" ry="2" />
<text  x="162.49" y="273.5" ></text>
</g>
<g >
<title>Log_Event_subkernel81_cell_to__cell_integral_otherwise (104,292 us, 0.15%)</title><rect x="1166.4" y="343" width="1.8" height="15.0" fill="rgb(0,0,0)" rx="2" ry="2" />
<text  x="1169.44" y="353.5" ></text>
</g>
<g >
<title>Log_Event_subkernel97_cell_to__cell_integral_otherwise (116,377 us, 0.17%)</title><rect x="875.2" y="295" width="2.0" height="15.0" fill="rgb(0,0,0)" rx="2" ry="2" />
<text  x="878.16" y="305.5" ></text>
</g>
<g >
<title>Log_Event_mtf_solve_105 (115,182 us, 0.17%)</title><rect x="996.7" y="311" width="2.0" height="15.0" fill="rgb(0,0,0)" rx="2" ry="2" />
<text  x="999.72" y="321.5" ></text>
</g>
<g >
<title>Log_Event_subkernel19_cell_to__cell_integral_otherwise (67,447 us, 0.10%)</title><rect x="90.6" y="263" width="1.2" height="15.0" fill="rgb(0,0,0)" rx="2" ry="2" />
<text  x="93.62" y="273.5" ></text>
</g>
<g >
<title>Log_Event_subkernel15_cell_to__cell_integral_otherwise (253,061 us, 0.37%)</title><rect x="96.4" y="247" width="4.3" height="15.0" fill="rgb(0,0,0)" rx="2" ry="2" />
<text  x="99.38" y="257.5" ></text>
</g>
<g >
<title>Log_Event_subkernel17_cell_to__cell_integral_otherwise (94,775 us, 0.14%)</title><rect x="89.0" y="263" width="1.6" height="15.0" fill="rgb(0,0,0)" rx="2" ry="2" />
<text  x="91.99" y="273.5" ></text>
</g>
<g >
<title>KSPSolve (65,723,200 us, 95.55%)</title><rect x="60.1" y="103" width="1127.4" height="15.0" fill="rgb(0,0,0)" rx="2" ry="2" />
<text  x="63.06" y="113.5" >KSPSolve</text>
</g>
<g >
<title>HybridInit (143,368 us, 0.21%)</title><rect x="1187.5" y="119" width="2.5" height="15.0" fill="rgb(0,0,0)" rx="2" ry="2" />
<text  x="1190.54" y="129.5" ></text>
</g>
<g >
<title>Log_Event_tensorshell_knl_92 (1,045,983 us, 1.52%)</title><rect x="872.4" y="263" width="17.9" height="15.0" fill="rgb(0,0,0)" rx="2" ry="2" />
<text  x="875.40" y="273.5" ></text>
</g>
<g >
<title>firedrake.interpolation.make_interpolator (84,425 us, 0.12%)</title><rect x="1186.1" y="167" width="1.4" height="15.0" fill="rgb(0,0,0)" rx="2" ry="2" />
<text  x="1189.09" y="177.5" ></text>
</g>
<g >
<title>firedrake.__init__ (1,532,080 us, 2.23%)</title><rect x="33.8" y="71" width="26.3" height="15.0" fill="rgb(0,0,0)" rx="2" ry="2" />
<text  x="36.78" y="81.5" >f..</text>
</g>
<g >
<title>firedrake (68,784,918 us, 100.00%)</title><rect x="10.0" y="55" width="1180.0" height="15.0" fill="rgb(0,0,0)" rx="2" ry="2" />
<text  x="13.00" y="65.5" >firedrake</text>
</g>
<g >
<title>Log_Event_slate_loopy_knl_77 (49,010,688 us, 71.25%)</title><rect x="112.9" y="231" width="840.8" height="15.0" fill="rgb(0,0,0)" rx="2" ry="2" />
<text  x="115.94" y="241.5" >Log_Event_slate_loopy_knl_77</text>
</g>
<g >
<title>ParLoopExecute (11,912,687 us, 17.32%)</title><rect x="980.3" y="263" width="204.4" height="15.0" fill="rgb(0,0,0)" rx="2" ry="2" />
<text  x="983.34" y="273.5" >ParLoopExecute</text>
</g>
<g >
<title>Log_Event_mtf_solve_41 (65,236 us, 0.09%)</title><rect x="102.6" y="215" width="1.1" height="15.0" fill="rgb(0,0,0)" rx="2" ry="2" />
<text  x="105.57" y="225.5" ></text>
</g>
<g >
<title>MatMult (13,411,740 us, 19.50%)</title><rect x="954.6" y="231" width="230.1" height="15.0" fill="rgb(0,0,0)" rx="2" ry="2" />
<text  x="957.62" y="241.5" >MatMult</text>
</g>
<g >
<title>Log_Event_mtf_solve_123 (198,411 us, 0.29%)</title><rect x="1004.9" y="343" width="3.4" height="15.0" fill="rgb(0,0,0)" rx="2" ry="2" />
<text  x="1007.88" y="353.5" ></text>
</g>
<g >
<title>Log_Event_subkernel141_cell_to__cell_integral_otherwise (4,534,049 us, 6.59%)</title><rect x="754.7" y="279" width="77.8" height="15.0" fill="rgb(0,0,0)" rx="2" ry="2" />
<text  x="757.71" y="289.5" >Log_Even..</text>
</g>
<g >
<title>Log_Event_subkernel136_cell_to__cell_integral_otherwise (4,058,485 us, 5.90%)</title><rect x="236.3" y="295" width="69.6" height="15.0" fill="rgb(0,0,0)" rx="2" ry="2" />
<text  x="239.26" y="305.5" >Log_Eve..</text>
</g>
<g >
<title>firedrake.matrix_free.operators.ImplicitMatrixContext.mult (83,903 us, 0.12%)</title><rect x="60.1" y="135" width="1.4" height="15.0" fill="rgb(0,0,0)" rx="2" ry="2" />
<text  x="63.06" y="145.5" ></text>
</g>
<g >
<title>Log_Event_subkernel111_interior_facet_horiz_bottom_to__exterior_facet_bottom_integral_otherwise (56,771 us, 0.08%)</title><rect x="897.7" y="247" width="1.0" height="15.0" fill="rgb(0,0,0)" rx="2" ry="2" />
<text  x="900.69" y="257.5" ></text>
</g>
<g >
<title>Log_Event_subkernel132_interior_facet_vert_to__exterior_facet_vert_integral_otherwise (141,240 us, 0.21%)</title><rect x="185.6" y="263" width="2.4" height="15.0" fill="rgb(0,0,0)" rx="2" ry="2" />
<text  x="188.60" y="273.5" ></text>
</g>
<g >
<title>Log_Event_subkernel150_cell_to__cell_integral_otherwise (464,132 us, 0.67%)</title><rect x="838.8" y="263" width="8.0" height="15.0" fill="rgb(0,0,0)" rx="2" ry="2" />
<text  x="841.84" y="273.5" ></text>
</g>
<g >
<title>Log_Event_subkernel98_cell_to__cell_integral_otherwise (155,149 us, 0.23%)</title><rect x="877.2" y="295" width="2.6" height="15.0" fill="rgb(0,0,0)" rx="2" ry="2" />
<text  x="880.16" y="305.5" ></text>
</g>
<g >
<title>Log_Event_subkernel152_interior_facet_horiz_bottom_to__exterior_facet_bottom_integral_otherwise (56,636 us, 0.08%)</title><rect x="934.1" y="247" width="1.0" height="15.0" fill="rgb(0,0,0)" rx="2" ry="2" />
<text  x="937.11" y="257.5" ></text>
</g>
<g >
<title>Log_Event_subkernel112_interior_facet_vert_to__exterior_facet_vert_integral_otherwise (198,205 us, 0.29%)</title><rect x="1175.7" y="311" width="3.4" height="15.0" fill="rgb(0,0,0)" rx="2" ry="2" />
<text  x="1178.69" y="321.5" ></text>
</g>
<g >
<title>Log_Event_subkernel83_cell_to__cell_integral_otherwise (161,439 us, 0.23%)</title><rect x="854.4" y="295" width="2.8" height="15.0" fill="rgb(0,0,0)" rx="2" ry="2" />
<text  x="857.44" y="305.5" ></text>
</g>
<g >
<title>firedrake.variational_solver.NonlinearVariationalSolver.solve (65,866,568 us, 95.76%)</title><rect x="60.1" y="71" width="1129.9" height="15.0" fill="rgb(0,0,0)" rx="2" ry="2" />
<text  x="63.06" y="81.5" >firedrake.variational_solver.NonlinearVariationalSolver.solve</text>
</g>
<g >
<title>Log_Event_subkernel117_cell_to__cell_integral_otherwise (112,744 us, 0.16%)</title><rect x="1000.3" y="327" width="1.9" height="15.0" fill="rgb(0,0,0)" rx="2" ry="2" />
<text  x="1003.27" y="337.5" ></text>
</g>
<g >
<title>Log_Event_subkernel100_cell_to__cell_integral_otherwise (187,432 us, 0.27%)</title><rect x="879.8" y="279" width="3.2" height="15.0" fill="rgb(0,0,0)" rx="2" ry="2" />
<text  x="882.82" y="289.5" ></text>
</g>
<g >
<title>Log_Event_subkernel136_cell_to__cell_integral_otherwise (978,807 us, 1.42%)</title><rect x="1015.6" y="359" width="16.8" height="15.0" fill="rgb(0,0,0)" rx="2" ry="2" />
<text  x="1018.61" y="369.5" ></text>
</g>
<g >
<title>Parloop_Cells_wrap_slate_loopy_knl_77 (49,549,874 us, 72.04%)</title><rect x="103.7" y="215" width="850.0" height="15.0" fill="rgb(0,0,0)" rx="2" ry="2" />
<text  x="106.69" y="225.5" >Parloop_Cells_wrap_slate_loopy_knl_77</text>
</g>
<g >
<title>Log_Event_subkernel119_cell_to__cell_integral_otherwise (187,670 us, 0.27%)</title><rect x="923.6" y="247" width="3.2" height="15.0" fill="rgb(0,0,0)" rx="2" ry="2" />
<text  x="926.56" y="257.5" ></text>
</g>
<g >
<title>Log_Event_tensorshell_knl_121 (302,505 us, 0.44%)</title><rect x="1004.9" y="327" width="5.2" height="15.0" fill="rgb(0,0,0)" rx="2" ry="2" />
<text  x="1007.88" y="337.5" ></text>
</g>
<g >
<title>PCSetUp (13,411,740 us, 19.50%)</title><rect x="954.6" y="183" width="230.1" height="15.0" fill="rgb(0,0,0)" rx="2" ry="2" />
<text  x="957.62" y="193.5" >PCSetUp</text>
</g>
<g >
<title>KSPSolve (63,014,303 us, 91.61%)</title><rect x="103.7" y="151" width="1081.0" height="15.0" fill="rgb(0,0,0)" rx="2" ry="2" />
<text  x="106.69" y="161.5" >KSPSolve</text>
</g>
<g >
<title>Log_Event_tensorshell_knl_92 (217,541 us, 0.32%)</title><rect x="1168.2" y="327" width="3.8" height="15.0" fill="rgb(0,0,0)" rx="2" ry="2" />
<text  x="1171.23" y="337.5" ></text>
</g>
<g >
<title>Log_Event_subkernel152_interior_facet_vert_to__exterior_facet_vert_integral_otherwise (457,400 us, 0.66%)</title><rect x="936.1" y="247" width="7.8" height="15.0" fill="rgb(0,0,0)" rx="2" ry="2" />
<text  x="939.06" y="257.5" ></text>
</g>
<g >
<title>Log_Event_tensorshell_knl_140 (890,158 us, 1.29%)</title><rect x="553.7" y="295" width="15.3" height="15.0" fill="rgb(0,0,0)" rx="2" ry="2" />
<text  x="556.74" y="305.5" ></text>
</g>
<g >
<title>ParLoopExecute (52,689 us, 0.08%)</title><rect x="953.7" y="247" width="0.9" height="15.0" fill="rgb(0,0,0)" rx="2" ry="2" />
<text  x="956.72" y="257.5" ></text>
</g>
<g >
<title>Log_Event_subkernel114_cell_to__cell_integral_otherwise (161,358 us, 0.23%)</title><rect x="164.0" y="263" width="2.8" height="15.0" fill="rgb(0,0,0)" rx="2" ry="2" />
<text  x="166.99" y="273.5" ></text>
</g>
<g >
<title>Log_Event_mtf_solve_120 (38,223,424 us, 55.57%)</title><rect x="176.8" y="247" width="655.7" height="15.0" fill="rgb(0,0,0)" rx="2" ry="2" />
<text  x="179.77" y="257.5" >Log_Event_mtf_solve_120</text>
</g>
<g >
<title>Log_Event_subkernel138_cell_to__cell_integral_otherwise (687,567 us, 1.00%)</title><rect x="1032.4" y="359" width="11.8" height="15.0" fill="rgb(0,0,0)" rx="2" ry="2" />
<text  x="1035.40" y="369.5" ></text>
</g>
<g >
<title>Log_Event_subkernel139_cell_to__cell_integral_otherwise (11,292,053 us, 16.42%)</title><rect x="354.8" y="295" width="193.7" height="15.0" fill="rgb(0,0,0)" rx="2" ry="2" />
<text  x="357.80" y="305.5" >Log_Event_subkernel139_..</text>
</g>
<g >
<title>Log_Event_mtf_solve_123 (808,324 us, 1.18%)</title><rect x="188.0" y="279" width="13.9" height="15.0" fill="rgb(0,0,0)" rx="2" ry="2" />
<text  x="191.02" y="289.5" ></text>
</g>
<g >
<title>Log_Event_subkernel138_cell_to__cell_integral_otherwise (2,851,487 us, 4.15%)</title><rect x="305.9" y="295" width="48.9" height="15.0" fill="rgb(0,0,0)" rx="2" ry="2" />
<text  x="308.88" y="305.5" >Log_..</text>
</g>
<g >
<title>Log_Event_tensorshell_knl_133 (8,688,353 us, 12.63%)</title><rect x="1010.1" y="327" width="149.0" height="15.0" fill="rgb(0,0,0)" rx="2" ry="2" />
<text  x="1013.07" y="337.5" >Log_Event_tensors..</text>
</g>
<g >
<title>MatResidual (52,689 us, 0.08%)</title><rect x="953.7" y="199" width="0.9" height="15.0" fill="rgb(0,0,0)" rx="2" ry="2" />
<text  x="956.72" y="209.5" ></text>
</g>
<g >
<title>Log_Event_slate_loopy_knl_77 (11,741,775 us, 17.07%)</title><rect x="983.3" y="295" width="201.4" height="15.0" fill="rgb(0,0,0)" rx="2" ry="2" />
<text  x="986.27" y="305.5" >Log_Event_slate_loopy_kn..</text>
</g>
<g >
<title>Log_Event_subkernel104_cell_to__cell_integral_otherwise (104,130 us, 0.15%)</title><rect x="1172.0" y="311" width="1.7" height="15.0" fill="rgb(0,0,0)" rx="2" ry="2" />
<text  x="1174.96" y="321.5" ></text>
</g>
<g >
<title>SNESSolve (65,866,568 us, 95.76%)</title><rect x="60.1" y="87" width="1129.9" height="15.0" fill="rgb(0,0,0)" rx="2" ry="2" />
<text  x="63.06" y="97.5" >SNESSolve</text>
</g>
<g >
<title>ParLoopExecute (83,903 us, 0.12%)</title><rect x="60.1" y="151" width="1.4" height="15.0" fill="rgb(0,0,0)" rx="2" ry="2" />
<text  x="63.06" y="161.5" ></text>
</g>
<g >
<title>Log_Event_subkernel127_cell_to__cell_integral_otherwise (108,041 us, 0.16%)</title><rect x="1006.4" y="359" width="1.9" height="15.0" fill="rgb(0,0,0)" rx="2" ry="2" />
<text  x="1009.43" y="369.5" ></text>
</g>
<g >
<title>Parloop_Cells_wrap_slate_loopy_knl_77 (52,689 us, 0.08%)</title><rect x="953.7" y="263" width="0.9" height="15.0" fill="rgb(0,0,0)" rx="2" ry="2" />
<text  x="956.72" y="273.5" ></text>
</g>
<g >
<title>Log_Event_subkernel122_cell_to__cell_integral_otherwise (427,285 us, 0.62%)</title><rect x="201.9" y="279" width="7.3" height="15.0" fill="rgb(0,0,0)" rx="2" ry="2" />
<text  x="204.89" y="289.5" ></text>
</g>
<g >
<title>HybridRHS (2,459,327 us, 3.58%)</title><rect x="61.5" y="151" width="42.2" height="15.0" fill="rgb(0,0,0)" rx="2" ry="2" />
<text  x="64.50" y="161.5" >Hyb..</text>
</g>
<g >
<title>Log_Event_mtf_solve_79 (543,448 us, 0.79%)</title><rect x="1162.6" y="311" width="9.4" height="15.0" fill="rgb(0,0,0)" rx="2" ry="2" />
<text  x="1165.63" y="321.5" ></text>
</g>
<g >
<title>Log_Event_subkernel153_interior_facet_horiz_top_to__exterior_facet_top_integral_otherwise (57,277 us, 0.08%)</title><rect x="944.9" y="247" width="1.0" height="15.0" fill="rgb(0,0,0)" rx="2" ry="2" />
<text  x="947.88" y="257.5" ></text>
</g>
<g >
<title>Log_Event_subkernel111_interior_facet_vert_to__exterior_facet_vert_integral_otherwise (456,937 us, 0.66%)</title><rect x="899.6" y="247" width="7.9" height="15.0" fill="rgb(0,0,0)" rx="2" ry="2" />
<text  x="902.63" y="257.5" ></text>
</g>
</g>
</svg>
