<?xml version="1.0" standalone="no"?>
<!DOCTYPE svg PUBLIC "-//W3C//DTD SVG 1.1//EN" "http://www.w3.org/Graphics/SVG/1.1/DTD/svg11.dtd">
<svg version="1.1" width="1200" height="411" onload="init(evt)" viewBox="0 0 1200 411" xmlns="http://www.w3.org/2000/svg" xmlns:xlink="http://www.w3.org/1999/xlink">
<!-- Flame graph stack visualization. See https://github.com/brendangregg/FlameGraph for latest version, and http://www.brendangregg.com/flamegraphs.html for examples. -->
<!-- NOTES:  -->
<defs>
	<linearGradient id="background" y1="0" y2="1" x1="0" x2="0" >
		<stop stop-color="#eeeeee" offset="5%" />
		<stop stop-color="#eeeeb0" offset="95%" />
	</linearGradient>
</defs>
<style type="text/css">
	text { font-family:Verdana; font-size:13px; fill:rgb(0,0,0); }
	#search, #ignorecase { opacity:0.1; cursor:pointer; }
	#search:hover, #search.show, #ignorecase:hover, #ignorecase.show { opacity:1; }
	#subtitle { text-anchor:middle; font-color:rgb(160,160,160); }
	#title { text-anchor:middle; font-size:18px}
	#unzoom { cursor:pointer; }
	#frames > *:hover { stroke:black; stroke-width:0.5; cursor:pointer; }
	.hide { display:none; }
	.parent { opacity:0.5; }
</style>
<script type="text/ecmascript">
<![CDATA[
	"use strict";
	var details, searchbtn, unzoombtn, matchedtxt, svg, searching, currentSearchTerm, ignorecase, ignorecaseBtn;
	function init(evt) {
		details = document.getElementById("details").firstChild;
		searchbtn = document.getElementById("search");
		ignorecaseBtn = document.getElementById("ignorecase");
		unzoombtn = document.getElementById("unzoom");
		matchedtxt = document.getElementById("matched");
		svg = document.getElementsByTagName("svg")[0];
		searching = 0;
		currentSearchTerm = null;

		// use GET parameters to restore a flamegraphs state.
		var params = get_params();
		if (params.x && params.y)
			zoom(find_group(document.querySelector('[x="' + params.x + '"][y="' + params.y + '"]')));
                if (params.s) search(params.s);
	}

	// event listeners
	window.addEventListener("click", function(e) {
		var target = find_group(e.target);
		if (target) {
			if (target.nodeName == "a") {
				if (e.ctrlKey === false) return;
				e.preventDefault();
			}
			if (target.classList.contains("parent")) unzoom();
			zoom(target);
			if (!document.querySelector('.parent')) {
				clearzoom();
				return;
			}

			// set parameters for zoom state
			var el = target.querySelector("rect");
			if (el && el.attributes && el.attributes.y && el.attributes._orig_x) {
				var params = get_params()
				params.x = el.attributes._orig_x.value;
				params.y = el.attributes.y.value;
				history.replaceState(null, null, parse_params(params));
			}
		}
		else if (e.target.id == "unzoom") clearzoom();
		else if (e.target.id == "search") search_prompt();
		else if (e.target.id == "ignorecase") toggle_ignorecase();
	}, false)

	// mouse-over for info
	// show
	window.addEventListener("mouseover", function(e) {
		var target = find_group(e.target);
		if (target) details.nodeValue = "Function: " + g_to_text(target);
	}, false)

	// clear
	window.addEventListener("mouseout", function(e) {
		var target = find_group(e.target);
		if (target) details.nodeValue = ' ';
	}, false)

	// ctrl-F for search
	// ctrl-I to toggle case-sensitive search
	window.addEventListener("keydown",function (e) {
		if (e.keyCode === 114 || (e.ctrlKey && e.keyCode === 70)) {
			e.preventDefault();
			search_prompt();
		}
		else if (e.ctrlKey && e.keyCode === 73) {
			e.preventDefault();
			toggle_ignorecase();
		}
	}, false)

	// functions
	function get_params() {
		var params = {};
		var paramsarr = window.location.search.substr(1).split('&');
		for (var i = 0; i < paramsarr.length; ++i) {
			var tmp = paramsarr[i].split("=");
			if (!tmp[0] || !tmp[1]) continue;
			params[tmp[0]]  = decodeURIComponent(tmp[1]);
		}
		return params;
	}
	function parse_params(params) {
		var uri = "?";
		for (var key in params) {
			uri += key + '=' + encodeURIComponent(params[key]) + '&';
		}
		if (uri.slice(-1) == "&")
			uri = uri.substring(0, uri.length - 1);
		if (uri == '?')
			uri = window.location.href.split('?')[0];
		return uri;
	}
	function find_child(node, selector) {
		var children = node.querySelectorAll(selector);
		if (children.length) return children[0];
	}
	function find_group(node) {
		var parent = node.parentElement;
		if (!parent) return;
		if (parent.id == "frames") return node;
		return find_group(parent);
	}
	function orig_save(e, attr, val) {
		if (e.attributes["_orig_" + attr] != undefined) return;
		if (e.attributes[attr] == undefined) return;
		if (val == undefined) val = e.attributes[attr].value;
		e.setAttribute("_orig_" + attr, val);
	}
	function orig_load(e, attr) {
		if (e.attributes["_orig_"+attr] == undefined) return;
		e.attributes[attr].value = e.attributes["_orig_" + attr].value;
		e.removeAttribute("_orig_"+attr);
	}
	function g_to_text(e) {
		var text = find_child(e, "title").firstChild.nodeValue;
		return (text)
	}
	function g_to_func(e) {
		var func = g_to_text(e);
		// if there's any manipulation we want to do to the function
		// name before it's searched, do it here before returning.
		return (func);
	}
	function update_text(e) {
		var r = find_child(e, "rect");
		var t = find_child(e, "text");
		var w = parseFloat(r.attributes.width.value) -3;
		var txt = find_child(e, "title").textContent.replace(/\([^(]*\)$/,"");
		t.attributes.x.value = parseFloat(r.attributes.x.value) + 3;

		// Smaller than this size won't fit anything
		if (w < 2 * 13 * 0.59) {
			t.textContent = "";
			return;
		}

		t.textContent = txt;
		// Fit in full text width
		if (/^ *$/.test(txt) || t.getSubStringLength(0, txt.length) < w)
			return;

		for (var x = txt.length - 2; x > 0; x--) {
			if (t.getSubStringLength(0, x + 2) <= w) {
				t.textContent = txt.substring(0, x) + "..";
				return;
			}
		}
		t.textContent = "";
	}

	// zoom
	function zoom_reset(e) {
		if (e.attributes != undefined) {
			orig_load(e, "x");
			orig_load(e, "width");
		}
		if (e.childNodes == undefined) return;
		for (var i = 0, c = e.childNodes; i < c.length; i++) {
			zoom_reset(c[i]);
		}
	}
	function zoom_child(e, x, ratio) {
		if (e.attributes != undefined) {
			if (e.attributes.x != undefined) {
				orig_save(e, "x");
				e.attributes.x.value = (parseFloat(e.attributes.x.value) - x - 10) * ratio + 10;
				if (e.tagName == "text")
					e.attributes.x.value = find_child(e.parentNode, "rect[x]").attributes.x.value + 3;
			}
			if (e.attributes.width != undefined) {
				orig_save(e, "width");
				e.attributes.width.value = parseFloat(e.attributes.width.value) * ratio;
			}
		}

		if (e.childNodes == undefined) return;
		for (var i = 0, c = e.childNodes; i < c.length; i++) {
			zoom_child(c[i], x - 10, ratio);
		}
	}
	function zoom_parent(e) {
		if (e.attributes) {
			if (e.attributes.x != undefined) {
				orig_save(e, "x");
				e.attributes.x.value = 10;
			}
			if (e.attributes.width != undefined) {
				orig_save(e, "width");
				e.attributes.width.value = parseInt(svg.width.baseVal.value) - (10 * 2);
			}
		}
		if (e.childNodes == undefined) return;
		for (var i = 0, c = e.childNodes; i < c.length; i++) {
			zoom_parent(c[i]);
		}
	}
	function zoom(node) {
		var attr = find_child(node, "rect").attributes;
		var width = parseFloat(attr.width.value);
		var xmin = parseFloat(attr.x.value);
		var xmax = parseFloat(xmin + width);
		var ymin = parseFloat(attr.y.value);
		var ratio = (svg.width.baseVal.value - 2 * 10) / width;

		// XXX: Workaround for JavaScript float issues (fix me)
		var fudge = 0.0001;

		unzoombtn.classList.remove("hide");

		var el = document.getElementById("frames").children;
		for (var i = 0; i < el.length; i++) {
			var e = el[i];
			var a = find_child(e, "rect").attributes;
			var ex = parseFloat(a.x.value);
			var ew = parseFloat(a.width.value);
			var upstack;
			// Is it an ancestor
			if (1 == 0) {
				upstack = parseFloat(a.y.value) > ymin;
			} else {
				upstack = parseFloat(a.y.value) < ymin;
			}
			if (upstack) {
				// Direct ancestor
				if (ex <= xmin && (ex+ew+fudge) >= xmax) {
					e.classList.add("parent");
					zoom_parent(e);
					update_text(e);
				}
				// not in current path
				else
					e.classList.add("hide");
			}
			// Children maybe
			else {
				// no common path
				if (ex < xmin || ex + fudge >= xmax) {
					e.classList.add("hide");
				}
				else {
					zoom_child(e, xmin, ratio);
					update_text(e);
				}
			}
		}
		search();
	}
	function unzoom() {
		unzoombtn.classList.add("hide");
		var el = document.getElementById("frames").children;
		for(var i = 0; i < el.length; i++) {
			el[i].classList.remove("parent");
			el[i].classList.remove("hide");
			zoom_reset(el[i]);
			update_text(el[i]);
		}
		search();
	}
	function clearzoom() {
		unzoom();

		// remove zoom state
		var params = get_params();
		if (params.x) delete params.x;
		if (params.y) delete params.y;
		history.replaceState(null, null, parse_params(params));
	}

	// search
	function toggle_ignorecase() {
		ignorecase = !ignorecase;
		if (ignorecase) {
			ignorecaseBtn.classList.add("show");
		} else {
			ignorecaseBtn.classList.remove("show");
		}
		reset_search();
		search();
	}
	function reset_search() {
		var el = document.querySelectorAll("#frames rect");
		for (var i = 0; i < el.length; i++) {
			orig_load(el[i], "fill")
		}
		var params = get_params();
		delete params.s;
		history.replaceState(null, null, parse_params(params));
	}
	function search_prompt() {
		if (!searching) {
			var term = prompt("Enter a search term (regexp " +
			    "allowed, eg: ^ext4_)"
			    + (ignorecase ? ", ignoring case" : "")
			    + "\nPress Ctrl-i to toggle case sensitivity", "");
			if (term != null) search(term);
		} else {
			reset_search();
			searching = 0;
			currentSearchTerm = null;
			searchbtn.classList.remove("show");
			searchbtn.firstChild.nodeValue = "Search"
			matchedtxt.classList.add("hide");
			matchedtxt.firstChild.nodeValue = ""
		}
	}
	function search(term) {
		if (term) currentSearchTerm = term;

		var re = new RegExp(currentSearchTerm, ignorecase ? 'i' : '');
		var el = document.getElementById("frames").children;
		var matches = new Object();
		var maxwidth = 0;
		for (var i = 0; i < el.length; i++) {
			var e = el[i];
			var func = g_to_func(e);
			var rect = find_child(e, "rect");
			if (func == null || rect == null)
				continue;

			// Save max width. Only works as we have a root frame
			var w = parseFloat(rect.attributes.width.value);
			if (w > maxwidth)
				maxwidth = w;

			if (func.match(re)) {
				// highlight
				var x = parseFloat(rect.attributes.x.value);
				orig_save(rect, "fill");
				rect.attributes.fill.value = "rgb(230,0,230)";

				// remember matches
				if (matches[x] == undefined) {
					matches[x] = w;
				} else {
					if (w > matches[x]) {
						// overwrite with parent
						matches[x] = w;
					}
				}
				searching = 1;
			}
		}
		if (!searching)
			return;
		var params = get_params();
		params.s = currentSearchTerm;
		history.replaceState(null, null, parse_params(params));

		searchbtn.classList.add("show");
		searchbtn.firstChild.nodeValue = "Reset Search";

		// calculate percent matched, excluding vertical overlap
		var count = 0;
		var lastx = -1;
		var lastw = 0;
		var keys = Array();
		for (k in matches) {
			if (matches.hasOwnProperty(k))
				keys.push(k);
		}
		// sort the matched frames by their x location
		// ascending, then width descending
		keys.sort(function(a, b){
			return a - b;
		});
		// Step through frames saving only the biggest bottom-up frames
		// thanks to the sort order. This relies on the tree property
		// where children are always smaller than their parents.
		var fudge = 0.0001;	// JavaScript floating point
		for (var k in keys) {
			var x = parseFloat(keys[k]);
			var w = matches[keys[k]];
			if (x >= lastx + lastw - fudge) {
				count += w;
				lastx = x;
				lastw = w;
			}
		}
		// display matched percent
		matchedtxt.classList.remove("hide");
		var pct = 100 * count / maxwidth;
		if (pct != 100) pct = pct.toFixed(1)
		matchedtxt.firstChild.nodeValue = "Matched: " + pct + "%";
	}
]]>
</script>
<rect x="0.0" y="0" width="1200.0" height="411.0" fill="url(#background)"  />
<text id="title" x="600.00" y="26" >Firedrake example</text>
<text id="details" x="10.00" y="393" > </text>
<text id="unzoom" x="10.00" y="26" class="hide">Reset Zoom</text>
<text id="search" x="1090.00" y="26" >Search</text>
<text id="ignorecase" x="1174.00" y="26" >ic</text>
<text id="matched" x="1090.00" y="393" > </text>
<g id="frames">
<g >
<title>Log_Event_subkernel153_interior_facet_vert_to__exterior_facet_vert_integral_otherwise (488,713 us, 0.76%)</title><rect x="950.4" y="247" width="9.0" height="15.0" fill="rgb(0,0,0)" rx="2" ry="2" />
<text  x="953.39" y="257.5" ></text>
</g>
<g >
<title>Log_Event_subkernel152_interior_facet_horiz_bottom_to__exterior_facet_bottom_integral_otherwise (57,960 us, 0.09%)</title><rect x="937.2" y="247" width="1.1" height="15.0" fill="rgb(0,0,0)" rx="2" ry="2" />
<text  x="940.24" y="257.5" ></text>
</g>
<g >
<title>Log_Event_subkernel104_cell_to__cell_integral_otherwise (448,771 us, 0.70%)</title><rect x="888.1" y="247" width="8.3" height="15.0" fill="rgb(0,0,0)" rx="2" ry="2" />
<text  x="891.11" y="257.5" ></text>
</g>
<g >
<title>Log_Event_subkernel152_interior_facet_horiz_top_to__exterior_facet_top_integral_otherwise (58,302 us, 0.09%)</title><rect x="938.3" y="247" width="1.1" height="15.0" fill="rgb(0,0,0)" rx="2" ry="2" />
<text  x="941.31" y="257.5" ></text>
</g>
<g >
<title>Log_Event_subkernel111_interior_facet_vert_to__exterior_facet_vert_integral_otherwise (111,216 us, 0.17%)</title><rect x="1171.2" y="311" width="2.0" height="15.0" fill="rgb(0,0,0)" rx="2" ry="2" />
<text  x="1174.18" y="321.5" ></text>
</g>
<g >
<title>Log_Event_subkernel132_interior_facet_vert_to__exterior_facet_vert_integral_otherwise (146,453 us, 0.23%)</title><rect x="202.0" y="263" width="2.7" height="15.0" fill="rgb(0,0,0)" rx="2" ry="2" />
<text  x="205.04" y="273.5" ></text>
</g>
<g >
<title>Log_Event_subkernel91_cell_to__cell_integral_otherwise (184,887 us, 0.29%)</title><rect x="841.7" y="263" width="3.4" height="15.0" fill="rgb(0,0,0)" rx="2" ry="2" />
<text  x="844.73" y="273.5" ></text>
</g>
<g >
<title>HybridInit (139,324 us, 0.22%)</title><rect x="1187.4" y="119" width="2.6" height="15.0" fill="rgb(0,0,0)" rx="2" ry="2" />
<text  x="1190.44" y="129.5" ></text>
</g>
<g >
<title>Log_Event_tensorshell_knl_92 (263,855 us, 0.41%)</title><rect x="1164.4" y="327" width="4.9" height="15.0" fill="rgb(0,0,0)" rx="2" ry="2" />
<text  x="1167.42" y="337.5" ></text>
</g>
<g >
<title>Log_Event_subkernel111_interior_facet_horiz_top_to__exterior_facet_top_integral_otherwise (58,192 us, 0.09%)</title><rect x="897.4" y="247" width="1.1" height="15.0" fill="rgb(0,0,0)" rx="2" ry="2" />
<text  x="900.42" y="257.5" ></text>
</g>
<g >
<title>Log_Event_subkernel134_cell_to__cell_integral_otherwise (10,962,582 us, 17.06%)</title><rect x="539.3" y="279" width="201.3" height="15.0" fill="rgb(0,0,0)" rx="2" ry="2" />
<text  x="542.32" y="289.5" >Log_Event_subkernel134_c..</text>
</g>
<g >
<title>HybridRHS (2,318,799 us, 3.61%)</title><rect x="70.8" y="151" width="42.6" height="15.0" fill="rgb(0,0,0)" rx="2" ry="2" />
<text  x="73.80" y="161.5" >Hyb..</text>
</g>
<g >
<title>Log_Event_subkernel139_cell_to__cell_integral_otherwise (7,828,995 us, 12.18%)</title><rect x="378.7" y="295" width="143.7" height="15.0" fill="rgb(0,0,0)" rx="2" ry="2" />
<text  x="381.68" y="305.5" >Log_Event_subker..</text>
</g>
<g >
<title>Log_Event_subkernel138_cell_to__cell_integral_otherwise (673,915 us, 1.05%)</title><rect x="1037.5" y="359" width="12.4" height="15.0" fill="rgb(0,0,0)" rx="2" ry="2" />
<text  x="1040.52" y="369.5" ></text>
</g>
<g >
<title>firedrake.variational_solver.NonlinearVariationalSolver.solve (61,043,185 us, 94.99%)</title><rect x="69.1" y="71" width="1120.9" height="15.0" fill="rgb(0,0,0)" rx="2" ry="2" />
<text  x="72.09" y="81.5" >firedrake.variational_solver.NonlinearVariationalSolver.solve</text>
</g>
<g >
<title>Log_Event_subkernel138_cell_to__cell_integral_otherwise (2,871,206 us, 4.47%)</title><rect x="326.0" y="295" width="52.7" height="15.0" fill="rgb(0,0,0)" rx="2" ry="2" />
<text  x="328.95" y="305.5" >Log_..</text>
</g>
<g >
<title>Log_Event_subkernel15_cell_to__cell_integral_otherwise (241,276 us, 0.38%)</title><rect x="105.9" y="247" width="4.4" height="15.0" fill="rgb(0,0,0)" rx="2" ry="2" />
<text  x="108.90" y="257.5" ></text>
</g>
<g >
<title>all (64,260,973 us, 100%)</title><rect x="10.0" y="39" width="1180.0" height="15.0" fill="rgb(0,0,0)" rx="2" ry="2" />
<text  x="13.00" y="49.5" ></text>
</g>
<g >
<title>Log_Event_subkernel145_cell_to__cell_integral_otherwise (104,561 us, 0.16%)</title><rect x="1177.7" y="311" width="1.9" height="15.0" fill="rgb(0,0,0)" rx="2" ry="2" />
<text  x="1180.71" y="321.5" ></text>
</g>
<g >
<title>Log_Event_subkernel117_cell_to__cell_integral_otherwise (77,077 us, 0.12%)</title><rect x="1005.0" y="327" width="1.4" height="15.0" fill="rgb(0,0,0)" rx="2" ry="2" />
<text  x="1007.97" y="337.5" ></text>
</g>
<g >
<title>Log_Event_tensorshell_knl_14 (668,175 us, 1.04%)</title><rect x="99.9" y="231" width="12.3" height="15.0" fill="rgb(0,0,0)" rx="2" ry="2" />
<text  x="102.92" y="241.5" ></text>
</g>
<g >
<title>Log_Event_tensorshell_knl_133 (7,601,454 us, 11.83%)</title><rect x="1015.0" y="327" width="139.6" height="15.0" fill="rgb(0,0,0)" rx="2" ry="2" />
<text  x="1018.02" y="337.5" >Log_Event_tensor..</text>
</g>
<g >
<title>Log_Event_subkernel139_cell_to__cell_integral_otherwise (1,837,334 us, 2.86%)</title><rect x="1049.9" y="359" width="33.7" height="15.0" fill="rgb(0,0,0)" rx="2" ry="2" />
<text  x="1052.89" y="369.5" >Lo..</text>
</g>
<g >
<title>Log_Event_slate_loopy_knl_77 (45,459,422 us, 70.74%)</title><rect x="124.6" y="231" width="834.8" height="15.0" fill="rgb(0,0,0)" rx="2" ry="2" />
<text  x="127.61" y="241.5" >Log_Event_slate_loopy_knl_77</text>
</g>
<g >
<title>PCApply (60,857,508 us, 94.70%)</title><rect x="69.9" y="119" width="1117.5" height="15.0" fill="rgb(0,0,0)" rx="2" ry="2" />
<text  x="72.94" y="129.5" >PCApply</text>
</g>
<g >
<title>firedrake.interpolation.make_interpolator (74,497 us, 0.12%)</title><rect x="1185.2" y="167" width="1.4" height="15.0" fill="rgb(0,0,0)" rx="2" ry="2" />
<text  x="1188.24" y="177.5" ></text>
</g>
<g >
<title>Log_Event_subkernel104_cell_to__cell_integral_otherwise (104,422 us, 0.16%)</title><rect x="1169.3" y="311" width="1.9" height="15.0" fill="rgb(0,0,0)" rx="2" ry="2" />
<text  x="1172.27" y="321.5" ></text>
</g>
<g >
<title>Log_Event_subkernel141_cell_to__cell_integral_otherwise (4,619,701 us, 7.19%)</title><rect x="740.6" y="279" width="84.9" height="15.0" fill="rgb(0,0,0)" rx="2" ry="2" />
<text  x="743.62" y="289.5" >Log_Event..</text>
</g>
<g >
<title>Log_Event_tensorshell_knl_80 (1,098,502 us, 1.71%)</title><rect x="847.8" y="263" width="20.2" height="15.0" fill="rgb(0,0,0)" rx="2" ry="2" />
<text  x="850.81" y="273.5" ></text>
</g>
<g >
<title>Log_Event_subkernel150_cell_to__cell_integral_otherwise (331,677 us, 0.52%)</title><rect x="833.1" y="263" width="6.1" height="15.0" fill="rgb(0,0,0)" rx="2" ry="2" />
<text  x="836.14" y="273.5" ></text>
</g>
<g >
<title>Log_Event_subkernel112_interior_facet_horiz_top_to__exterior_facet_top_integral_otherwise (65,951 us, 0.10%)</title><rect x="908.5" y="247" width="1.3" height="15.0" fill="rgb(0,0,0)" rx="2" ry="2" />
<text  x="911.55" y="257.5" ></text>
</g>
<g >
<title>Log_Event_mtf_solve_1 (715,319 us, 1.11%)</title><rect x="99.1" y="215" width="13.1" height="15.0" fill="rgb(0,0,0)" rx="2" ry="2" />
<text  x="102.06" y="225.5" ></text>
</g>
<g >
<title>Log_Event_subkernel116_cell_to__cell_integral_otherwise (120,533 us, 0.19%)</title><rect x="184.7" y="263" width="2.2" height="15.0" fill="rgb(0,0,0)" rx="2" ry="2" />
<text  x="187.66" y="273.5" ></text>
</g>
<g >
<title>Log_Event_subkernel132_cell_to__cell_integral_otherwise (185,147 us, 0.29%)</title><rect x="198.6" y="263" width="3.4" height="15.0" fill="rgb(0,0,0)" rx="2" ry="2" />
<text  x="201.64" y="273.5" ></text>
</g>
<g >
<title>HybridBreak (46,718 us, 0.07%)</title><rect x="69.9" y="151" width="0.9" height="15.0" fill="rgb(0,0,0)" rx="2" ry="2" />
<text  x="72.94" y="161.5" ></text>
</g>
<g >
<title>MatResidual (53,644 us, 0.08%)</title><rect x="960.3" y="199" width="1.0" height="15.0" fill="rgb(0,0,0)" rx="2" ry="2" />
<text  x="963.27" y="209.5" ></text>
</g>
<g >
<title>Log_Event_subkernel91_interior_facet_vert_to__exterior_facet_vert_integral_otherwise (146,177 us, 0.23%)</title><rect x="845.1" y="263" width="2.7" height="15.0" fill="rgb(0,0,0)" rx="2" ry="2" />
<text  x="848.12" y="273.5" ></text>
</g>
<g >
<title>Log_Event_subkernel88_cell_to__cell_integral_otherwise (45,476 us, 0.07%)</title><rect x="1163.6" y="343" width="0.8" height="15.0" fill="rgb(0,0,0)" rx="2" ry="2" />
<text  x="1166.58" y="353.5" ></text>
</g>
<g >
<title>Log_Event_subkernel129_cell_to__cell_integral_otherwise (195,429 us, 0.30%)</title><rect x="225.6" y="279" width="3.6" height="15.0" fill="rgb(0,0,0)" rx="2" ry="2" />
<text  x="228.57" y="289.5" ></text>
</g>
<g >
<title>Log_Event_slate_loopy_knl_0 (935,175 us, 1.46%)</title><rect x="96.2" y="199" width="17.2" height="15.0" fill="rgb(0,0,0)" rx="2" ry="2" />
<text  x="99.20" y="209.5" ></text>
</g>
<g >
<title>Log_Event_mtf_solve_113 (163,243 us, 0.25%)</title><rect x="1003.4" y="311" width="3.0" height="15.0" fill="rgb(0,0,0)" rx="2" ry="2" />
<text  x="1006.39" y="321.5" ></text>
</g>
<g >
<title>Log_Event_tensorshell_knl_121 (1,330,096 us, 2.07%)</title><rect x="204.7" y="263" width="24.5" height="15.0" fill="rgb(0,0,0)" rx="2" ry="2" />
<text  x="207.73" y="273.5" >L..</text>
</g>
<g >
<title>Log_Event_subkernel136_cell_to__cell_integral_otherwise (958,505 us, 1.49%)</title><rect x="1019.9" y="359" width="17.6" height="15.0" fill="rgb(0,0,0)" rx="2" ry="2" />
<text  x="1022.92" y="369.5" ></text>
</g>
<g >
<title>Parloop_Cells_wrap_form0_cell_integral_otherwise (46,353 us, 0.07%)</title><rect x="69.1" y="167" width="0.8" height="15.0" fill="rgb(0,0,0)" rx="2" ry="2" />
<text  x="72.09" y="177.5" ></text>
</g>
<g >
<title>PCApply (12,217,635 us, 19.01%)</title><rect x="959.4" y="167" width="224.3" height="15.0" fill="rgb(0,0,0)" rx="2" ry="2" />
<text  x="962.37" y="177.5" >PCApply</text>
</g>
<g >
<title>Log_Event_subkernel86_cell_to__cell_integral_otherwise (163,107 us, 0.25%)</title><rect x="853.2" y="295" width="3.0" height="15.0" fill="rgb(0,0,0)" rx="2" ry="2" />
<text  x="856.17" y="305.5" ></text>
</g>
<g >
<title>Log_Event_tensorshell_knl_80 (263,726 us, 0.41%)</title><rect x="1159.6" y="327" width="4.8" height="15.0" fill="rgb(0,0,0)" rx="2" ry="2" />
<text  x="1162.58" y="337.5" ></text>
</g>
<g >
<title>Log_Event_slate_loopy_knl_77 (10,641,385 us, 16.56%)</title><rect x="988.3" y="295" width="195.4" height="15.0" fill="rgb(0,0,0)" rx="2" ry="2" />
<text  x="991.31" y="305.5" >Log_Event_slate_loopy_k..</text>
</g>
<g >
<title>Log_Event_mtf_solve_79 (2,662,213 us, 4.14%)</title><rect x="839.2" y="247" width="48.9" height="15.0" fill="rgb(0,0,0)" rx="2" ry="2" />
<text  x="842.23" y="257.5" >Log_..</text>
</g>
<g >
<title>Log_Event_mtf_solve_16 (325,376 us, 0.51%)</title><rect x="99.9" y="247" width="6.0" height="15.0" fill="rgb(0,0,0)" rx="2" ry="2" />
<text  x="102.92" y="257.5" ></text>
</g>
<g >
<title>Log_Event_mtf_solve_113 (703,524 us, 1.09%)</title><rect x="180.0" y="247" width="12.9" height="15.0" fill="rgb(0,0,0)" rx="2" ry="2" />
<text  x="183.03" y="257.5" ></text>
</g>
<g >
<title>Parloop_Cells_wrap_slate_loopy_knl_77 (46,026,243 us, 71.62%)</title><rect x="114.2" y="215" width="845.2" height="15.0" fill="rgb(0,0,0)" rx="2" ry="2" />
<text  x="117.21" y="225.5" >Parloop_Cells_wrap_slate_loopy_knl_77</text>
</g>
<g >
<title>Log_Event_subkernel111_interior_facet_horiz_bottom_to__exterior_facet_bottom_integral_otherwise (58,086 us, 0.09%)</title><rect x="896.4" y="247" width="1.0" height="15.0" fill="rgb(0,0,0)" rx="2" ry="2" />
<text  x="899.35" y="257.5" ></text>
</g>
<g >
<title>Log_Event_subkernel106_cell_to__cell_integral_otherwise (169,391 us, 0.26%)</title><rect x="171.6" y="263" width="3.1" height="15.0" fill="rgb(0,0,0)" rx="2" ry="2" />
<text  x="174.61" y="273.5" ></text>
</g>
<g >
<title>Log_Event_subkernel124_cell_to__cell_integral_otherwise (170,487 us, 0.27%)</title><rect x="206.1" y="295" width="3.2" height="15.0" fill="rgb(0,0,0)" rx="2" ry="2" />
<text  x="209.14" y="305.5" ></text>
</g>
<g >
<title>Log_Event_tensorshell_knl_140 (142,864 us, 0.22%)</title><rect x="1084.9" y="359" width="2.7" height="15.0" fill="rgb(0,0,0)" rx="2" ry="2" />
<text  x="1087.95" y="369.5" ></text>
</g>
<g >
<title>Log_Event_subkernel141_cell_to__cell_integral_otherwise (1,087,381 us, 1.69%)</title><rect x="1134.6" y="343" width="20.0" height="15.0" fill="rgb(0,0,0)" rx="2" ry="2" />
<text  x="1137.63" y="353.5" ></text>
</g>
<g >
<title>firedrake.matrix_free.operators.ImplicitMatrixContext.mult (46,026,243 us, 71.62%)</title><rect x="114.2" y="183" width="845.2" height="15.0" fill="rgb(0,0,0)" rx="2" ry="2" />
<text  x="117.21" y="193.5" >firedrake.matrix_free.operators.ImplicitMatrixContext.mult</text>
</g>
<g >
<title>Log_Event_tensorshell_knl_137 (71,549 us, 0.11%)</title><rect x="1083.6" y="359" width="1.3" height="15.0" fill="rgb(0,0,0)" rx="2" ry="2" />
<text  x="1086.63" y="369.5" ></text>
</g>
<g >
<title>SNESSolve (61,043,185 us, 94.99%)</title><rect x="69.1" y="87" width="1120.9" height="15.0" fill="rgb(0,0,0)" rx="2" ry="2" />
<text  x="72.09" y="97.5" >SNESSolve</text>
</g>
<g >
<title>Log_Event_tensorshell_knl_137 (306,244 us, 0.48%)</title><rect x="522.4" y="295" width="5.7" height="15.0" fill="rgb(0,0,0)" rx="2" ry="2" />
<text  x="525.44" y="305.5" ></text>
</g>
<g >
<title>SCSolve (58,491,991 us, 91.02%)</title><rect x="113.4" y="135" width="1074.0" height="15.0" fill="rgb(0,0,0)" rx="2" ry="2" />
<text  x="116.38" y="145.5" >SCSolve</text>
</g>
<g >
<title>Log_Event_subkernel100_cell_to__cell_integral_otherwise (45,631 us, 0.07%)</title><rect x="1166.5" y="343" width="0.8" height="15.0" fill="rgb(0,0,0)" rx="2" ry="2" />
<text  x="1169.51" y="353.5" ></text>
</g>
<g >
<title>Log_Event_subkernel17_cell_to__cell_integral_otherwise (89,808 us, 0.14%)</title><rect x="99.9" y="263" width="1.7" height="15.0" fill="rgb(0,0,0)" rx="2" ry="2" />
<text  x="102.92" y="273.5" ></text>
</g>
<g >
<title>Log_Event_subkernel81_cell_to__cell_integral_otherwise (104,357 us, 0.16%)</title><rect x="1161.7" y="343" width="1.9" height="15.0" fill="rgb(0,0,0)" rx="2" ry="2" />
<text  x="1164.67" y="353.5" ></text>
</g>
<g >
<title>Log_Event_subkernel98_cell_to__cell_integral_otherwise (162,484 us, 0.25%)</title><rect x="873.3" y="295" width="3.0" height="15.0" fill="rgb(0,0,0)" rx="2" ry="2" />
<text  x="876.32" y="305.5" ></text>
</g>
<g >
<title>Log_Event_subkernel112_interior_facet_vert_to__exterior_facet_vert_integral_otherwise (198,483 us, 0.31%)</title><rect x="1173.2" y="311" width="3.7" height="15.0" fill="rgb(0,0,0)" rx="2" ry="2" />
<text  x="1176.22" y="321.5" ></text>
</g>
<g >
<title>Log_Event_subkernel100_cell_to__cell_integral_otherwise (195,496 us, 0.30%)</title><rect x="876.3" y="279" width="3.6" height="15.0" fill="rgb(0,0,0)" rx="2" ry="2" />
<text  x="879.30" y="289.5" ></text>
</g>
<g >
<title>SCForwardElim (2,365,517 us, 3.68%)</title><rect x="69.9" y="135" width="43.5" height="15.0" fill="rgb(0,0,0)" rx="2" ry="2" />
<text  x="72.94" y="145.5" >SCF..</text>
</g>
<g >
<title>Log_Event_subkernel19_cell_to__cell_integral_otherwise (63,281 us, 0.10%)</title><rect x="101.6" y="263" width="1.1" height="15.0" fill="rgb(0,0,0)" rx="2" ry="2" />
<text  x="104.57" y="273.5" ></text>
</g>
<g >
<title>Log_Event_subkernel150_cell_to__cell_integral_otherwise (77,241 us, 0.12%)</title><rect x="1156.2" y="327" width="1.4" height="15.0" fill="rgb(0,0,0)" rx="2" ry="2" />
<text  x="1159.16" y="337.5" ></text>
</g>
<g >
<title>MatMult (53,644 us, 0.08%)</title><rect x="960.3" y="215" width="1.0" height="15.0" fill="rgb(0,0,0)" rx="2" ry="2" />
<text  x="963.27" y="225.5" ></text>
</g>
<g >
<title>Log_Event_subkernel112_interior_facet_horiz_bottom_to__exterior_facet_bottom_integral_otherwise (66,372 us, 0.10%)</title><rect x="907.3" y="247" width="1.2" height="15.0" fill="rgb(0,0,0)" rx="2" ry="2" />
<text  x="910.33" y="257.5" ></text>
</g>
<g >
<title>PCSetUp (12,114,669 us, 18.85%)</title><rect x="961.3" y="183" width="222.4" height="15.0" fill="rgb(0,0,0)" rx="2" ry="2" />
<text  x="964.26" y="193.5" >PCSetUp</text>
</g>
<g >
<title>Log_Event_subkernel153_interior_facet_horiz_top_to__exterior_facet_top_integral_otherwise (59,029 us, 0.09%)</title><rect x="949.3" y="247" width="1.1" height="15.0" fill="rgb(0,0,0)" rx="2" ry="2" />
<text  x="952.31" y="257.5" ></text>
</g>
<g >
<title>Log_Event_mtf_solve_41 (64,523 us, 0.10%)</title><rect x="112.2" y="215" width="1.2" height="15.0" fill="rgb(0,0,0)" rx="2" ry="2" />
<text  x="115.19" y="225.5" ></text>
</g>
<g >
<title>Log_Event_subkernel85_cell_to__cell_integral_otherwise (121,924 us, 0.19%)</title><rect x="850.9" y="295" width="2.3" height="15.0" fill="rgb(0,0,0)" rx="2" ry="2" />
<text  x="853.93" y="305.5" ></text>
</g>
<g >
<title>Log_Event_subkernel108_cell_to__cell_integral_otherwise (119,852 us, 0.19%)</title><rect x="174.7" y="263" width="2.2" height="15.0" fill="rgb(0,0,0)" rx="2" ry="2" />
<text  x="177.72" y="273.5" ></text>
</g>
<g >
<title>Log_Event_subkernel145_cell_to__cell_integral_otherwise (448,567 us, 0.70%)</title><rect x="929.0" y="247" width="8.2" height="15.0" fill="rgb(0,0,0)" rx="2" ry="2" />
<text  x="932.01" y="257.5" ></text>
</g>
<g >
<title>firedrake (64,260,973 us, 100.00%)</title><rect x="10.0" y="55" width="1180.0" height="15.0" fill="rgb(0,0,0)" rx="2" ry="2" />
<text  x="13.00" y="65.5" >firedrake</text>
</g>
<g >
<title>Log_Event_subkernel152_interior_facet_vert_to__exterior_facet_vert_integral_otherwise (111,268 us, 0.17%)</title><rect x="1179.6" y="311" width="2.1" height="15.0" fill="rgb(0,0,0)" rx="2" ry="2" />
<text  x="1182.63" y="321.5" ></text>
</g>
<g >
<title>Log_Event_tensorshell_knl_92 (1,096,566 us, 1.71%)</title><rect x="868.0" y="263" width="20.1" height="15.0" fill="rgb(0,0,0)" rx="2" ry="2" />
<text  x="870.98" y="273.5" ></text>
</g>
<g >
<title>Log_Event_subkernel93_cell_to__cell_integral_otherwise (447,783 us, 0.70%)</title><rect x="879.9" y="279" width="8.2" height="15.0" fill="rgb(0,0,0)" rx="2" ry="2" />
<text  x="882.89" y="289.5" ></text>
</g>
<g >
<title>Log_Event_mtf_solve_94 (453,287 us, 0.71%)</title><rect x="868.0" y="279" width="8.3" height="15.0" fill="rgb(0,0,0)" rx="2" ry="2" />
<text  x="870.98" y="289.5" ></text>
</g>
<g >
<title>Log_Event_subkernel129_cell_to__cell_integral_otherwise (45,481 us, 0.07%)</title><rect x="1014.2" y="343" width="0.8" height="15.0" fill="rgb(0,0,0)" rx="2" ry="2" />
<text  x="1017.18" y="353.5" ></text>
</g>
<g >
<title>Log_Event_subkernel119_cell_to__cell_integral_otherwise (196,154 us, 0.31%)</title><rect x="925.4" y="247" width="3.6" height="15.0" fill="rgb(0,0,0)" rx="2" ry="2" />
<text  x="928.41" y="257.5" ></text>
</g>
<g >
<title>ParLoopExecute (46,353 us, 0.07%)</title><rect x="69.1" y="151" width="0.8" height="15.0" fill="rgb(0,0,0)" rx="2" ry="2" />
<text  x="72.09" y="161.5" ></text>
</g>
<g >
<title>Log_Event_subkernel149_cell_to__cell_integral_otherwise (119,585 us, 0.19%)</title><rect x="830.9" y="263" width="2.2" height="15.0" fill="rgb(0,0,0)" rx="2" ry="2" />
<text  x="833.94" y="273.5" ></text>
</g>
<g >
<title>Log_Event_mtf_solve_94 (113,926 us, 0.18%)</title><rect x="1164.4" y="343" width="2.1" height="15.0" fill="rgb(0,0,0)" rx="2" ry="2" />
<text  x="1167.42" y="353.5" ></text>
</g>
<g >
<title>Log_Event_mtf_solve_135 (3,897,407 us, 6.06%)</title><rect x="1016.0" y="343" width="71.6" height="15.0" fill="rgb(0,0,0)" rx="2" ry="2" />
<text  x="1019.00" y="353.5" >Log_Eve..</text>
</g>
<g >
<title>Log_Event_subkernel127_cell_to__cell_integral_otherwise (74,349 us, 0.12%)</title><rect x="1010.9" y="359" width="1.4" height="15.0" fill="rgb(0,0,0)" rx="2" ry="2" />
<text  x="1013.90" y="369.5" ></text>
</g>
<g >
<title>MatMult (46,353 us, 0.07%)</title><rect x="69.1" y="119" width="0.8" height="15.0" fill="rgb(0,0,0)" rx="2" ry="2" />
<text  x="72.09" y="129.5" ></text>
</g>
<g >
<title>ParLoopExecute (10,813,746 us, 16.83%)</title><rect x="985.1" y="263" width="198.6" height="15.0" fill="rgb(0,0,0)" rx="2" ry="2" />
<text  x="988.15" y="273.5" >ParLoopExecute</text>
</g>
<g >
<title>PCApply (102,966 us, 0.16%)</title><rect x="959.4" y="183" width="1.9" height="15.0" fill="rgb(0,0,0)" rx="2" ry="2" />
<text  x="962.37" y="193.5" ></text>
</g>
<g >
<title>KSPSolve (58,289,128 us, 90.71%)</title><rect x="113.4" y="151" width="1070.3" height="15.0" fill="rgb(0,0,0)" rx="2" ry="2" />
<text  x="116.38" y="161.5" >KSPSolve</text>
</g>
<g >
<title>PCSetUp (139,324 us, 0.22%)</title><rect x="1187.4" y="103" width="2.6" height="15.0" fill="rgb(0,0,0)" rx="2" ry="2" />
<text  x="1190.44" y="113.5" ></text>
</g>
<g >
<title>Log_Event_subkernel117_cell_to__cell_integral_otherwise (331,026 us, 0.52%)</title><rect x="186.9" y="263" width="6.0" height="15.0" fill="rgb(0,0,0)" rx="2" ry="2" />
<text  x="189.87" y="273.5" ></text>
</g>
<g >
<title>Log_Event_subkernel126_cell_to__cell_integral_otherwise (121,056 us, 0.19%)</title><rect x="209.3" y="295" width="2.2" height="15.0" fill="rgb(0,0,0)" rx="2" ry="2" />
<text  x="212.27" y="305.5" ></text>
</g>
<g >
<title>Log_Event_mtf_solve_146 (701,852 us, 1.09%)</title><rect x="826.3" y="247" width="12.9" height="15.0" fill="rgb(0,0,0)" rx="2" ry="2" />
<text  x="829.34" y="257.5" ></text>
</g>
<g >
<title>Log_Event_tensorshell_knl_121 (309,909 us, 0.48%)</title><rect x="1009.3" y="327" width="5.7" height="15.0" fill="rgb(0,0,0)" rx="2" ry="2" />
<text  x="1012.32" y="337.5" ></text>
</g>
<g >
<title>ParLoopExecute (991,609 us, 1.54%)</title><rect x="95.2" y="167" width="18.2" height="15.0" fill="rgb(0,0,0)" rx="2" ry="2" />
<text  x="98.17" y="177.5" ></text>
</g>
<g >
<title>Log_Event_tensorshell_knl_133 (32,473,265 us, 50.53%)</title><rect x="229.2" y="263" width="596.3" height="15.0" fill="rgb(0,0,0)" rx="2" ry="2" />
<text  x="232.16" y="273.5" >Log_Event_tensorshell_knl_133</text>
</g>
<g >
<title>Log_Event_mtf_solve_82 (455,010 us, 0.71%)</title><rect x="847.8" y="279" width="8.4" height="15.0" fill="rgb(0,0,0)" rx="2" ry="2" />
<text  x="850.81" y="289.5" ></text>
</g>
<g >
<title>MatMult (46,026,243 us, 71.62%)</title><rect x="114.2" y="167" width="845.2" height="15.0" fill="rgb(0,0,0)" rx="2" ry="2" />
<text  x="117.21" y="177.5" >MatMult</text>
</g>
<g >
<title>Log_Event_subkernel97_cell_to__cell_integral_otherwise (121,403 us, 0.19%)</title><rect x="871.1" y="295" width="2.2" height="15.0" fill="rgb(0,0,0)" rx="2" ry="2" />
<text  x="874.09" y="305.5" ></text>
</g>
<g >
<title>Log_Event_subkernel136_cell_to__cell_integral_otherwise (4,089,451 us, 6.36%)</title><rect x="250.9" y="295" width="75.1" height="15.0" fill="rgb(0,0,0)" rx="2" ry="2" />
<text  x="253.86" y="305.5" >Log_Eve..</text>
</g>
<g >
<title>firedrake.matrix_free.operators.ImplicitMatrixContext.mult (12,114,669 us, 18.85%)</title><rect x="961.3" y="247" width="222.4" height="15.0" fill="rgb(0,0,0)" rx="2" ry="2" />
<text  x="964.26" y="257.5" >firedrake.matrix_free.opera..</text>
</g>
<g >
<title>Log_Event_mtf_solve_120 (8,071,159 us, 12.56%)</title><rect x="1006.4" y="311" width="148.2" height="15.0" fill="rgb(0,0,0)" rx="2" ry="2" />
<text  x="1009.39" y="321.5" >Log_Event_mtf_sol..</text>
</g>
<g >
<title>KSPSolve (12,114,669 us, 18.85%)</title><rect x="961.3" y="215" width="222.4" height="15.0" fill="rgb(0,0,0)" rx="2" ry="2" />
<text  x="964.26" y="225.5" >KSPSolve</text>
</g>
<g >
<title>firedrake.matrix_free.operators.ImplicitMatrixContext.mult (46,353 us, 0.07%)</title><rect x="69.1" y="135" width="0.8" height="15.0" fill="rgb(0,0,0)" rx="2" ry="2" />
<text  x="72.09" y="145.5" ></text>
</g>
<g >
<title>Log_Event_subkernel22_cell_to__cell_integral_otherwise (101,523 us, 0.16%)</title><rect x="110.3" y="247" width="1.9" height="15.0" fill="rgb(0,0,0)" rx="2" ry="2" />
<text  x="113.33" y="257.5" ></text>
</g>
<g >
<title>PCSetUp (202,863 us, 0.32%)</title><rect x="1183.7" y="151" width="3.7" height="15.0" fill="rgb(0,0,0)" rx="2" ry="2" />
<text  x="1186.72" y="161.5" ></text>
</g>
<g >
<title>firedrake.matrix_free.operators.ImplicitMatrixContext.mult (53,644 us, 0.08%)</title><rect x="960.3" y="231" width="1.0" height="15.0" fill="rgb(0,0,0)" rx="2" ry="2" />
<text  x="963.27" y="241.5" ></text>
</g>
<g >
<title>Log_Event_subkernel134_cell_to__cell_integral_otherwise (2,562,865 us, 3.99%)</title><rect x="1087.6" y="343" width="47.0" height="15.0" fill="rgb(0,0,0)" rx="2" ry="2" />
<text  x="1090.57" y="353.5" >Log_..</text>
</g>
<g >
<title>Parloop_Cells_wrap_slate_loopy_knl_0 (991,609 us, 1.54%)</title><rect x="95.2" y="183" width="18.2" height="15.0" fill="rgb(0,0,0)" rx="2" ry="2" />
<text  x="98.17" y="193.5" ></text>
</g>
<g >
<title>Log_Event_subkernel20_cell_to__cell_integral_otherwise (172,287 us, 0.27%)</title><rect x="102.7" y="263" width="3.2" height="15.0" fill="rgb(0,0,0)" rx="2" ry="2" />
<text  x="105.73" y="273.5" ></text>
</g>
<g >
<title>Log_Event_subkernel147_cell_to__cell_integral_otherwise (169,210 us, 0.26%)</title><rect x="827.8" y="263" width="3.1" height="15.0" fill="rgb(0,0,0)" rx="2" ry="2" />
<text  x="830.83" y="273.5" ></text>
</g>
<g >
<title>Log_Event_subkernel122_cell_to__cell_integral_otherwise (447,749 us, 0.70%)</title><rect x="217.3" y="279" width="8.3" height="15.0" fill="rgb(0,0,0)" rx="2" ry="2" />
<text  x="220.35" y="289.5" ></text>
</g>
<g >
<title>CreateExtMesh (72,176 us, 0.11%)</title><rect x="33.5" y="71" width="1.3" height="15.0" fill="rgb(0,0,0)" rx="2" ry="2" />
<text  x="36.46" y="81.5" ></text>
</g>
<g >
<title>Log_Event_mtf_solve_123 (686,918 us, 1.07%)</title><rect x="204.7" y="279" width="12.6" height="15.0" fill="rgb(0,0,0)" rx="2" ry="2" />
<text  x="207.73" y="289.5" ></text>
</g>
<g >
<title>Log_Event_mtf_solve_135 (16,646,307 us, 25.90%)</title><rect x="233.7" y="279" width="305.6" height="15.0" fill="rgb(0,0,0)" rx="2" ry="2" />
<text  x="236.65" y="289.5" >Log_Event_mtf_solve_135</text>
</g>
<g >
<title>Log_Event_subkernel122_cell_to__cell_integral_otherwise (104,385 us, 0.16%)</title><rect x="1012.3" y="343" width="1.9" height="15.0" fill="rgb(0,0,0)" rx="2" ry="2" />
<text  x="1015.26" y="353.5" ></text>
</g>
<g >
<title>ParLoopExecute (46,026,243 us, 71.62%)</title><rect x="114.2" y="199" width="845.2" height="15.0" fill="rgb(0,0,0)" rx="2" ry="2" />
<text  x="117.21" y="209.5" >ParLoopExecute</text>
</g>
<g >
<title>Log_Event_mtf_solve_120 (34,493,536 us, 53.68%)</title><rect x="192.9" y="247" width="633.4" height="15.0" fill="rgb(0,0,0)" rx="2" ry="2" />
<text  x="195.95" y="257.5" >Log_Event_mtf_solve_120</text>
</g>
<g >
<title>Log_Event_subkernel93_cell_to__cell_integral_otherwise (104,298 us, 0.16%)</title><rect x="1167.3" y="343" width="2.0" height="15.0" fill="rgb(0,0,0)" rx="2" ry="2" />
<text  x="1170.35" y="353.5" ></text>
</g>
<g >
<title>Log_Event_mtf_solve_123 (160,043 us, 0.25%)</title><rect x="1009.3" y="343" width="3.0" height="15.0" fill="rgb(0,0,0)" rx="2" ry="2" />
<text  x="1012.32" y="353.5" ></text>
</g>
<g >
<title>Log_Event_mtf_solve_79 (636,171 us, 0.99%)</title><rect x="1157.6" y="311" width="11.7" height="15.0" fill="rgb(0,0,0)" rx="2" ry="2" />
<text  x="1160.58" y="321.5" ></text>
</g>
<g >
<title>Log_Event_subkernel112_interior_facet_vert_to__exterior_facet_vert_integral_otherwise (852,051 us, 1.33%)</title><rect x="909.8" y="247" width="15.6" height="15.0" fill="rgb(0,0,0)" rx="2" ry="2" />
<text  x="912.76" y="257.5" ></text>
</g>
<g >
<title>Log_Event_tensorshell_knl_143 (48,396 us, 0.08%)</title><rect x="825.5" y="263" width="0.8" height="15.0" fill="rgb(0,0,0)" rx="2" ry="2" />
<text  x="828.45" y="273.5" ></text>
</g>
<g >
<title>Log_Event_subkernel81_cell_to__cell_integral_otherwise (447,934 us, 0.70%)</title><rect x="856.2" y="279" width="8.2" height="15.0" fill="rgb(0,0,0)" rx="2" ry="2" />
<text  x="859.16" y="289.5" ></text>
</g>
<g >
<title>Parloop_Cells_wrap_slate_loopy_knl_77 (53,644 us, 0.08%)</title><rect x="960.3" y="263" width="1.0" height="15.0" fill="rgb(0,0,0)" rx="2" ry="2" />
<text  x="963.27" y="273.5" ></text>
</g>
<g >
<title>Log_Event_mtf_solve_146 (162,581 us, 0.25%)</title><rect x="1154.6" y="311" width="3.0" height="15.0" fill="rgb(0,0,0)" rx="2" ry="2" />
<text  x="1157.60" y="321.5" ></text>
</g>
<g >
<title>KSPSolve (60,903,861 us, 94.78%)</title><rect x="69.1" y="103" width="1118.3" height="15.0" fill="rgb(0,0,0)" rx="2" ry="2" />
<text  x="72.09" y="113.5" >KSPSolve</text>
</g>
<g >
<title>Log_Event_subkernel153_interior_facet_horiz_bottom_to__exterior_facet_bottom_integral_otherwise (58,296 us, 0.09%)</title><rect x="948.2" y="247" width="1.1" height="15.0" fill="rgb(0,0,0)" rx="2" ry="2" />
<text  x="951.24" y="257.5" ></text>
</g>
<g >
<title>Log_Event_tensorshell_knl_140 (613,206 us, 0.95%)</title><rect x="528.1" y="295" width="11.2" height="15.0" fill="rgb(0,0,0)" rx="2" ry="2" />
<text  x="531.06" y="305.5" ></text>
</g>
<g >
<title>Log_Event_subkernel127_cell_to__cell_integral_otherwise (318,554 us, 0.50%)</title><rect x="211.5" y="295" width="5.8" height="15.0" fill="rgb(0,0,0)" rx="2" ry="2" />
<text  x="214.50" y="305.5" ></text>
</g>
<g >
<title>firedrake.extrusion_utils.make_extruded_coords (72,176 us, 0.11%)</title><rect x="33.5" y="87" width="1.3" height="15.0" fill="rgb(0,0,0)" rx="2" ry="2" />
<text  x="36.46" y="97.5" ></text>
</g>
<g >
<title>ParLoopExecute (83,184 us, 0.13%)</title><rect x="1183.7" y="167" width="1.5" height="15.0" fill="rgb(0,0,0)" rx="2" ry="2" />
<text  x="1186.72" y="177.5" ></text>
</g>
<g >
<title>Log_Event_subkernel111_interior_facet_vert_to__exterior_facet_vert_integral_otherwise (481,422 us, 0.75%)</title><rect x="898.5" y="247" width="8.8" height="15.0" fill="rgb(0,0,0)" rx="2" ry="2" />
<text  x="901.49" y="257.5" ></text>
</g>
<g >
<title>Log_Event_subkernel109_cell_to__cell_integral_otherwise (169,225 us, 0.26%)</title><rect x="176.9" y="263" width="3.1" height="15.0" fill="rgb(0,0,0)" rx="2" ry="2" />
<text  x="179.92" y="273.5" ></text>
</g>
<g >
<title>Log_Event_mtf_solve_105 (115,195 us, 0.18%)</title><rect x="1001.3" y="311" width="2.1" height="15.0" fill="rgb(0,0,0)" rx="2" ry="2" />
<text  x="1004.28" y="321.5" ></text>
</g>
<g >
<title>Log_Event_subkernel114_cell_to__cell_integral_otherwise (169,154 us, 0.26%)</title><rect x="181.6" y="263" width="3.1" height="15.0" fill="rgb(0,0,0)" rx="2" ry="2" />
<text  x="184.55" y="273.5" ></text>
</g>
<g >
<title>Log_Event_subkernel119_cell_to__cell_integral_otherwise (45,641 us, 0.07%)</title><rect x="1176.9" y="311" width="0.8" height="15.0" fill="rgb(0,0,0)" rx="2" ry="2" />
<text  x="1179.87" y="321.5" ></text>
</g>
<g >
<title>ParLoopExecute (53,644 us, 0.08%)</title><rect x="960.3" y="247" width="1.0" height="15.0" fill="rgb(0,0,0)" rx="2" ry="2" />
<text  x="963.27" y="257.5" ></text>
</g>
<g >
<title>Log_Event_mtf_solve_82 (113,893 us, 0.18%)</title><rect x="1159.6" y="343" width="2.1" height="15.0" fill="rgb(0,0,0)" rx="2" ry="2" />
<text  x="1162.58" y="353.5" ></text>
</g>
<g >
<title>firedrake.tsfc_interface.compile_form (45,182 us, 0.07%)</title><rect x="1186.6" y="167" width="0.8" height="15.0" fill="rgb(0,0,0)" rx="2" ry="2" />
<text  x="1189.61" y="177.5" ></text>
</g>
<g >
<title>Parloop_Cells_wrap_slate_loopy_knl_77 (10,813,746 us, 16.83%)</title><rect x="985.1" y="279" width="198.6" height="15.0" fill="rgb(0,0,0)" rx="2" ry="2" />
<text  x="988.15" y="289.5" >Parloop_Cells_wrap_slat..</text>
</g>
<g >
<title>Log_Event_subkernel95_cell_to__cell_integral_otherwise (169,400 us, 0.26%)</title><rect x="868.0" y="295" width="3.1" height="15.0" fill="rgb(0,0,0)" rx="2" ry="2" />
<text  x="870.98" y="305.5" ></text>
</g>
<g >
<title>KSPSetUp (12,114,669 us, 18.85%)</title><rect x="961.3" y="199" width="222.4" height="15.0" fill="rgb(0,0,0)" rx="2" ry="2" />
<text  x="964.26" y="209.5" >KSPSetUp</text>
</g>
<g >
<title>Log_Event_mtf_solve_105 (458,468 us, 0.71%)</title><rect x="171.6" y="247" width="8.4" height="15.0" fill="rgb(0,0,0)" rx="2" ry="2" />
<text  x="174.61" y="257.5" ></text>
</g>
<g >
<title>Log_Event_subkernel83_cell_to__cell_integral_otherwise (169,979 us, 0.26%)</title><rect x="847.8" y="295" width="3.1" height="15.0" fill="rgb(0,0,0)" rx="2" ry="2" />
<text  x="850.81" y="305.5" ></text>
</g>
<g >
<title>firedrake.__init__ (1,868,110 us, 2.91%)</title><rect x="34.8" y="71" width="34.3" height="15.0" fill="rgb(0,0,0)" rx="2" ry="2" />
<text  x="37.78" y="81.5" >fi..</text>
</g>
<g >
<title>Log_Event_subkernel152_interior_facet_vert_to__exterior_facet_vert_integral_otherwise (482,582 us, 0.75%)</title><rect x="939.4" y="247" width="8.8" height="15.0" fill="rgb(0,0,0)" rx="2" ry="2" />
<text  x="942.38" y="257.5" ></text>
</g>
<g >
<title>MatMult (12,114,669 us, 18.85%)</title><rect x="961.3" y="231" width="222.4" height="15.0" fill="rgb(0,0,0)" rx="2" ry="2" />
<text  x="964.26" y="241.5" >MatMult</text>
</g>
<g >
<title>Log_Event_subkernel153_interior_facet_vert_to__exterior_facet_vert_integral_otherwise (111,412 us, 0.17%)</title><rect x="1181.7" y="311" width="2.0" height="15.0" fill="rgb(0,0,0)" rx="2" ry="2" />
<text  x="1184.67" y="321.5" ></text>
</g>
<g >
<title>Log_Event_subkernel88_cell_to__cell_integral_otherwise (195,558 us, 0.30%)</title><rect x="864.4" y="279" width="3.6" height="15.0" fill="rgb(0,0,0)" rx="2" ry="2" />
<text  x="867.39" y="289.5" ></text>
</g>
</g>
</svg>
