<?xml version="1.0" standalone="no"?>
<!DOCTYPE svg PUBLIC "-//W3C//DTD SVG 1.1//EN" "http://www.w3.org/Graphics/SVG/1.1/DTD/svg11.dtd">
<svg version="1.1" width="1200" height="411" onload="init(evt)" viewBox="0 0 1200 411" xmlns="http://www.w3.org/2000/svg" xmlns:xlink="http://www.w3.org/1999/xlink">
<!-- Flame graph stack visualization. See https://github.com/brendangregg/FlameGraph for latest version, and http://www.brendangregg.com/flamegraphs.html for examples. -->
<!-- NOTES:  -->
<defs>
	<linearGradient id="background" y1="0" y2="1" x1="0" x2="0" >
		<stop stop-color="#eeeeee" offset="5%" />
		<stop stop-color="#eeeeb0" offset="95%" />
	</linearGradient>
</defs>
<style type="text/css">
	text { font-family:Verdana; font-size:13px; fill:rgb(0,0,0); }
	#search, #ignorecase { opacity:0.1; cursor:pointer; }
	#search:hover, #search.show, #ignorecase:hover, #ignorecase.show { opacity:1; }
	#subtitle { text-anchor:middle; font-color:rgb(160,160,160); }
	#title { text-anchor:middle; font-size:18px}
	#unzoom { cursor:pointer; }
	#frames > *:hover { stroke:black; stroke-width:0.5; cursor:pointer; }
	.hide { display:none; }
	.parent { opacity:0.5; }
</style>
<script type="text/ecmascript">
<![CDATA[
	"use strict";
	var details, searchbtn, unzoombtn, matchedtxt, svg, searching, currentSearchTerm, ignorecase, ignorecaseBtn;
	function init(evt) {
		details = document.getElementById("details").firstChild;
		searchbtn = document.getElementById("search");
		ignorecaseBtn = document.getElementById("ignorecase");
		unzoombtn = document.getElementById("unzoom");
		matchedtxt = document.getElementById("matched");
		svg = document.getElementsByTagName("svg")[0];
		searching = 0;
		currentSearchTerm = null;

		// use GET parameters to restore a flamegraphs state.
		var params = get_params();
		if (params.x && params.y)
			zoom(find_group(document.querySelector('[x="' + params.x + '"][y="' + params.y + '"]')));
                if (params.s) search(params.s);
	}

	// event listeners
	window.addEventListener("click", function(e) {
		var target = find_group(e.target);
		if (target) {
			if (target.nodeName == "a") {
				if (e.ctrlKey === false) return;
				e.preventDefault();
			}
			if (target.classList.contains("parent")) unzoom();
			zoom(target);
			if (!document.querySelector('.parent')) {
				clearzoom();
				return;
			}

			// set parameters for zoom state
			var el = target.querySelector("rect");
			if (el && el.attributes && el.attributes.y && el.attributes._orig_x) {
				var params = get_params()
				params.x = el.attributes._orig_x.value;
				params.y = el.attributes.y.value;
				history.replaceState(null, null, parse_params(params));
			}
		}
		else if (e.target.id == "unzoom") clearzoom();
		else if (e.target.id == "search") search_prompt();
		else if (e.target.id == "ignorecase") toggle_ignorecase();
	}, false)

	// mouse-over for info
	// show
	window.addEventListener("mouseover", function(e) {
		var target = find_group(e.target);
		if (target) details.nodeValue = "Function: " + g_to_text(target);
	}, false)

	// clear
	window.addEventListener("mouseout", function(e) {
		var target = find_group(e.target);
		if (target) details.nodeValue = ' ';
	}, false)

	// ctrl-F for search
	// ctrl-I to toggle case-sensitive search
	window.addEventListener("keydown",function (e) {
		if (e.keyCode === 114 || (e.ctrlKey && e.keyCode === 70)) {
			e.preventDefault();
			search_prompt();
		}
		else if (e.ctrlKey && e.keyCode === 73) {
			e.preventDefault();
			toggle_ignorecase();
		}
	}, false)

	// functions
	function get_params() {
		var params = {};
		var paramsarr = window.location.search.substr(1).split('&');
		for (var i = 0; i < paramsarr.length; ++i) {
			var tmp = paramsarr[i].split("=");
			if (!tmp[0] || !tmp[1]) continue;
			params[tmp[0]]  = decodeURIComponent(tmp[1]);
		}
		return params;
	}
	function parse_params(params) {
		var uri = "?";
		for (var key in params) {
			uri += key + '=' + encodeURIComponent(params[key]) + '&';
		}
		if (uri.slice(-1) == "&")
			uri = uri.substring(0, uri.length - 1);
		if (uri == '?')
			uri = window.location.href.split('?')[0];
		return uri;
	}
	function find_child(node, selector) {
		var children = node.querySelectorAll(selector);
		if (children.length) return children[0];
	}
	function find_group(node) {
		var parent = node.parentElement;
		if (!parent) return;
		if (parent.id == "frames") return node;
		return find_group(parent);
	}
	function orig_save(e, attr, val) {
		if (e.attributes["_orig_" + attr] != undefined) return;
		if (e.attributes[attr] == undefined) return;
		if (val == undefined) val = e.attributes[attr].value;
		e.setAttribute("_orig_" + attr, val);
	}
	function orig_load(e, attr) {
		if (e.attributes["_orig_"+attr] == undefined) return;
		e.attributes[attr].value = e.attributes["_orig_" + attr].value;
		e.removeAttribute("_orig_"+attr);
	}
	function g_to_text(e) {
		var text = find_child(e, "title").firstChild.nodeValue;
		return (text)
	}
	function g_to_func(e) {
		var func = g_to_text(e);
		// if there's any manipulation we want to do to the function
		// name before it's searched, do it here before returning.
		return (func);
	}
	function update_text(e) {
		var r = find_child(e, "rect");
		var t = find_child(e, "text");
		var w = parseFloat(r.attributes.width.value) -3;
		var txt = find_child(e, "title").textContent.replace(/\([^(]*\)$/,"");
		t.attributes.x.value = parseFloat(r.attributes.x.value) + 3;

		// Smaller than this size won't fit anything
		if (w < 2 * 13 * 0.59) {
			t.textContent = "";
			return;
		}

		t.textContent = txt;
		// Fit in full text width
		if (/^ *$/.test(txt) || t.getSubStringLength(0, txt.length) < w)
			return;

		for (var x = txt.length - 2; x > 0; x--) {
			if (t.getSubStringLength(0, x + 2) <= w) {
				t.textContent = txt.substring(0, x) + "..";
				return;
			}
		}
		t.textContent = "";
	}

	// zoom
	function zoom_reset(e) {
		if (e.attributes != undefined) {
			orig_load(e, "x");
			orig_load(e, "width");
		}
		if (e.childNodes == undefined) return;
		for (var i = 0, c = e.childNodes; i < c.length; i++) {
			zoom_reset(c[i]);
		}
	}
	function zoom_child(e, x, ratio) {
		if (e.attributes != undefined) {
			if (e.attributes.x != undefined) {
				orig_save(e, "x");
				e.attributes.x.value = (parseFloat(e.attributes.x.value) - x - 10) * ratio + 10;
				if (e.tagName == "text")
					e.attributes.x.value = find_child(e.parentNode, "rect[x]").attributes.x.value + 3;
			}
			if (e.attributes.width != undefined) {
				orig_save(e, "width");
				e.attributes.width.value = parseFloat(e.attributes.width.value) * ratio;
			}
		}

		if (e.childNodes == undefined) return;
		for (var i = 0, c = e.childNodes; i < c.length; i++) {
			zoom_child(c[i], x - 10, ratio);
		}
	}
	function zoom_parent(e) {
		if (e.attributes) {
			if (e.attributes.x != undefined) {
				orig_save(e, "x");
				e.attributes.x.value = 10;
			}
			if (e.attributes.width != undefined) {
				orig_save(e, "width");
				e.attributes.width.value = parseInt(svg.width.baseVal.value) - (10 * 2);
			}
		}
		if (e.childNodes == undefined) return;
		for (var i = 0, c = e.childNodes; i < c.length; i++) {
			zoom_parent(c[i]);
		}
	}
	function zoom(node) {
		var attr = find_child(node, "rect").attributes;
		var width = parseFloat(attr.width.value);
		var xmin = parseFloat(attr.x.value);
		var xmax = parseFloat(xmin + width);
		var ymin = parseFloat(attr.y.value);
		var ratio = (svg.width.baseVal.value - 2 * 10) / width;

		// XXX: Workaround for JavaScript float issues (fix me)
		var fudge = 0.0001;

		unzoombtn.classList.remove("hide");

		var el = document.getElementById("frames").children;
		for (var i = 0; i < el.length; i++) {
			var e = el[i];
			var a = find_child(e, "rect").attributes;
			var ex = parseFloat(a.x.value);
			var ew = parseFloat(a.width.value);
			var upstack;
			// Is it an ancestor
			if (1 == 0) {
				upstack = parseFloat(a.y.value) > ymin;
			} else {
				upstack = parseFloat(a.y.value) < ymin;
			}
			if (upstack) {
				// Direct ancestor
				if (ex <= xmin && (ex+ew+fudge) >= xmax) {
					e.classList.add("parent");
					zoom_parent(e);
					update_text(e);
				}
				// not in current path
				else
					e.classList.add("hide");
			}
			// Children maybe
			else {
				// no common path
				if (ex < xmin || ex + fudge >= xmax) {
					e.classList.add("hide");
				}
				else {
					zoom_child(e, xmin, ratio);
					update_text(e);
				}
			}
		}
		search();
	}
	function unzoom() {
		unzoombtn.classList.add("hide");
		var el = document.getElementById("frames").children;
		for(var i = 0; i < el.length; i++) {
			el[i].classList.remove("parent");
			el[i].classList.remove("hide");
			zoom_reset(el[i]);
			update_text(el[i]);
		}
		search();
	}
	function clearzoom() {
		unzoom();

		// remove zoom state
		var params = get_params();
		if (params.x) delete params.x;
		if (params.y) delete params.y;
		history.replaceState(null, null, parse_params(params));
	}

	// search
	function toggle_ignorecase() {
		ignorecase = !ignorecase;
		if (ignorecase) {
			ignorecaseBtn.classList.add("show");
		} else {
			ignorecaseBtn.classList.remove("show");
		}
		reset_search();
		search();
	}
	function reset_search() {
		var el = document.querySelectorAll("#frames rect");
		for (var i = 0; i < el.length; i++) {
			orig_load(el[i], "fill")
		}
		var params = get_params();
		delete params.s;
		history.replaceState(null, null, parse_params(params));
	}
	function search_prompt() {
		if (!searching) {
			var term = prompt("Enter a search term (regexp " +
			    "allowed, eg: ^ext4_)"
			    + (ignorecase ? ", ignoring case" : "")
			    + "\nPress Ctrl-i to toggle case sensitivity", "");
			if (term != null) search(term);
		} else {
			reset_search();
			searching = 0;
			currentSearchTerm = null;
			searchbtn.classList.remove("show");
			searchbtn.firstChild.nodeValue = "Search"
			matchedtxt.classList.add("hide");
			matchedtxt.firstChild.nodeValue = ""
		}
	}
	function search(term) {
		if (term) currentSearchTerm = term;

		var re = new RegExp(currentSearchTerm, ignorecase ? 'i' : '');
		var el = document.getElementById("frames").children;
		var matches = new Object();
		var maxwidth = 0;
		for (var i = 0; i < el.length; i++) {
			var e = el[i];
			var func = g_to_func(e);
			var rect = find_child(e, "rect");
			if (func == null || rect == null)
				continue;

			// Save max width. Only works as we have a root frame
			var w = parseFloat(rect.attributes.width.value);
			if (w > maxwidth)
				maxwidth = w;

			if (func.match(re)) {
				// highlight
				var x = parseFloat(rect.attributes.x.value);
				orig_save(rect, "fill");
				rect.attributes.fill.value = "rgb(230,0,230)";

				// remember matches
				if (matches[x] == undefined) {
					matches[x] = w;
				} else {
					if (w > matches[x]) {
						// overwrite with parent
						matches[x] = w;
					}
				}
				searching = 1;
			}
		}
		if (!searching)
			return;
		var params = get_params();
		params.s = currentSearchTerm;
		history.replaceState(null, null, parse_params(params));

		searchbtn.classList.add("show");
		searchbtn.firstChild.nodeValue = "Reset Search";

		// calculate percent matched, excluding vertical overlap
		var count = 0;
		var lastx = -1;
		var lastw = 0;
		var keys = Array();
		for (k in matches) {
			if (matches.hasOwnProperty(k))
				keys.push(k);
		}
		// sort the matched frames by their x location
		// ascending, then width descending
		keys.sort(function(a, b){
			return a - b;
		});
		// Step through frames saving only the biggest bottom-up frames
		// thanks to the sort order. This relies on the tree property
		// where children are always smaller than their parents.
		var fudge = 0.0001;	// JavaScript floating point
		for (var k in keys) {
			var x = parseFloat(keys[k]);
			var w = matches[keys[k]];
			if (x >= lastx + lastw - fudge) {
				count += w;
				lastx = x;
				lastw = w;
			}
		}
		// display matched percent
		matchedtxt.classList.remove("hide");
		var pct = 100 * count / maxwidth;
		if (pct != 100) pct = pct.toFixed(1)
		matchedtxt.firstChild.nodeValue = "Matched: " + pct + "%";
	}
]]>
</script>
<rect x="0.0" y="0" width="1200.0" height="411.0" fill="url(#background)"  />
<text id="title" x="600.00" y="26" >Firedrake example</text>
<text id="details" x="10.00" y="393" > </text>
<text id="unzoom" x="10.00" y="26" class="hide">Reset Zoom</text>
<text id="search" x="1090.00" y="26" >Search</text>
<text id="ignorecase" x="1174.00" y="26" >ic</text>
<text id="matched" x="1090.00" y="393" > </text>
<g id="frames">
<g >
<title>SCSolve (52,004,720 us, 90.61%)</title><rect x="117.8" y="135" width="1069.2" height="15.0" fill="rgb(0,0,0)" rx="2" ry="2" />
<text  x="120.76" y="145.5" >SCSolve</text>
</g>
<g >
<title>Log_Event_subkernel95_cell_to__cell_integral_otherwise (145,798 us, 0.25%)</title><rect x="848.4" y="295" width="3.0" height="15.0" fill="rgb(0,0,0)" rx="2" ry="2" />
<text  x="851.38" y="305.5" ></text>
</g>
<g >
<title>Log_Event_mtf_solve_82 (390,001 us, 0.68%)</title><rect x="829.0" y="279" width="8.0" height="15.0" fill="rgb(0,0,0)" rx="2" ry="2" />
<text  x="831.96" y="289.5" ></text>
</g>
<g >
<title>Parloop_Cells_wrap_slate_loopy_knl_77 (49,731 us, 0.09%)</title><rect x="936.1" y="263" width="1.0" height="15.0" fill="rgb(0,0,0)" rx="2" ry="2" />
<text  x="939.07" y="273.5" ></text>
</g>
<g >
<title>Log_Event_subkernel132_cell_to__cell_integral_otherwise (160,349 us, 0.28%)</title><rect x="202.3" y="263" width="3.3" height="15.0" fill="rgb(0,0,0)" rx="2" ry="2" />
<text  x="205.28" y="273.5" ></text>
</g>
<g >
<title>Log_Event_subkernel112_interior_facet_vert_to__exterior_facet_vert_integral_otherwise (731,788 us, 1.28%)</title><rect x="888.5" y="247" width="15.1" height="15.0" fill="rgb(0,0,0)" rx="2" ry="2" />
<text  x="891.53" y="257.5" ></text>
</g>
<g >
<title>KSPSolve (54,354,111 us, 94.71%)</title><rect x="69.5" y="103" width="1117.5" height="15.0" fill="rgb(0,0,0)" rx="2" ry="2" />
<text  x="72.45" y="113.5" >KSPSolve</text>
</g>
<g >
<title>MatMult (44,928 us, 0.08%)</title><rect x="69.5" y="119" width="0.9" height="15.0" fill="rgb(0,0,0)" rx="2" ry="2" />
<text  x="72.45" y="129.5" ></text>
</g>
<g >
<title>Log_Event_subkernel127_cell_to__cell_integral_otherwise (73,973 us, 0.13%)</title><rect x="990.9" y="359" width="1.5" height="15.0" fill="rgb(0,0,0)" rx="2" ry="2" />
<text  x="993.89" y="369.5" ></text>
</g>
<g >
<title>Log_Event_mtf_solve_79 (635,106 us, 1.11%)</title><rect x="1154.4" y="311" width="13.1" height="15.0" fill="rgb(0,0,0)" rx="2" ry="2" />
<text  x="1157.39" y="321.5" ></text>
</g>
<g >
<title>Log_Event_tensorshell_knl_140 (141,669 us, 0.25%)</title><rect x="1073.5" y="359" width="2.9" height="15.0" fill="rgb(0,0,0)" rx="2" ry="2" />
<text  x="1076.46" y="369.5" ></text>
</g>
<g >
<title>HybridInit (146,444 us, 0.26%)</title><rect x="1187.0" y="119" width="3.0" height="15.0" fill="rgb(0,0,0)" rx="2" ry="2" />
<text  x="1189.99" y="129.5" ></text>
</g>
<g >
<title>Log_Event_subkernel117_cell_to__cell_integral_otherwise (285,752 us, 0.50%)</title><rect x="191.3" y="263" width="5.8" height="15.0" fill="rgb(0,0,0)" rx="2" ry="2" />
<text  x="194.26" y="273.5" ></text>
</g>
<g >
<title>Log_Event_subkernel111_interior_facet_vert_to__exterior_facet_vert_integral_otherwise (411,201 us, 0.72%)</title><rect x="877.8" y="247" width="8.4" height="15.0" fill="rgb(0,0,0)" rx="2" ry="2" />
<text  x="880.75" y="257.5" ></text>
</g>
<g >
<title>Log_Event_slate_loopy_knl_77 (39,314,701 us, 68.50%)</title><rect x="127.7" y="231" width="808.4" height="15.0" fill="rgb(0,0,0)" rx="2" ry="2" />
<text  x="130.75" y="241.5" >Log_Event_slate_loopy_knl_77</text>
</g>
<g >
<title>firedrake.matrix_free.operators.ImplicitMatrixContext.mult (44,928 us, 0.08%)</title><rect x="69.5" y="135" width="0.9" height="15.0" fill="rgb(0,0,0)" rx="2" ry="2" />
<text  x="72.45" y="145.5" ></text>
</g>
<g >
<title>firedrake.matrix_free.operators.ImplicitMatrixContext.mult (39,800,625 us, 69.35%)</title><rect x="117.8" y="183" width="818.3" height="15.0" fill="rgb(0,0,0)" rx="2" ry="2" />
<text  x="120.76" y="193.5" >firedrake.matrix_free.operators.ImplicitMatrixContext.mult</text>
</g>
<g >
<title>Log_Event_subkernel153_interior_facet_vert_to__exterior_facet_vert_integral_otherwise (111,367 us, 0.19%)</title><rect x="1181.4" y="311" width="2.3" height="15.0" fill="rgb(0,0,0)" rx="2" ry="2" />
<text  x="1184.38" y="321.5" ></text>
</g>
<g >
<title>Log_Event_subkernel111_interior_facet_horiz_bottom_to__exterior_facet_bottom_integral_otherwise (50,161 us, 0.09%)</title><rect x="875.7" y="247" width="1.0" height="15.0" fill="rgb(0,0,0)" rx="2" ry="2" />
<text  x="878.70" y="257.5" ></text>
</g>
<g >
<title>Log_Event_subkernel81_cell_to__cell_integral_otherwise (385,712 us, 0.67%)</title><rect x="837.0" y="279" width="7.9" height="15.0" fill="rgb(0,0,0)" rx="2" ry="2" />
<text  x="839.98" y="289.5" ></text>
</g>
<g >
<title>Log_Event_slate_loopy_knl_0 (947,107 us, 1.65%)</title><rect x="98.3" y="199" width="19.5" height="15.0" fill="rgb(0,0,0)" rx="2" ry="2" />
<text  x="101.28" y="209.5" ></text>
</g>
<g >
<title>firedrake.parloops.par_loop (43,979 us, 0.08%)</title><rect x="70.4" y="167" width="0.9" height="15.0" fill="rgb(0,0,0)" rx="2" ry="2" />
<text  x="73.38" y="177.5" ></text>
</g>
<g >
<title>Log_Event_subkernel138_cell_to__cell_integral_otherwise (677,037 us, 1.18%)</title><rect x="1020.6" y="359" width="13.9" height="15.0" fill="rgb(0,0,0)" rx="2" ry="2" />
<text  x="1023.61" y="369.5" ></text>
</g>
<g >
<title>KSPSetUp (12,034,897 us, 20.97%)</title><rect x="937.1" y="199" width="247.4" height="15.0" fill="rgb(0,0,0)" rx="2" ry="2" />
<text  x="940.09" y="209.5" >KSPSetUp</text>
</g>
<g >
<title>MatMult (12,034,897 us, 20.97%)</title><rect x="937.1" y="231" width="247.4" height="15.0" fill="rgb(0,0,0)" rx="2" ry="2" />
<text  x="940.09" y="241.5" >MatMult</text>
</g>
<g >
<title>Log_Event_tensorshell_knl_121 (1,146,383 us, 2.00%)</title><rect x="208.2" y="263" width="23.5" height="15.0" fill="rgb(0,0,0)" rx="2" ry="2" />
<text  x="211.17" y="273.5" >L..</text>
</g>
<g >
<title>firedrake.variational_solver.NonlinearVariationalSolver.solve (54,500,555 us, 94.96%)</title><rect x="69.5" y="71" width="1120.5" height="15.0" fill="rgb(0,0,0)" rx="2" ry="2" />
<text  x="72.45" y="81.5" >firedrake.variational_solver.NonlinearVariationalSolver.solve</text>
</g>
<g >
<title>Log_Event_subkernel150_cell_to__cell_integral_otherwise (77,276 us, 0.13%)</title><rect x="1152.8" y="327" width="1.6" height="15.0" fill="rgb(0,0,0)" rx="2" ry="2" />
<text  x="1155.80" y="337.5" ></text>
</g>
<g >
<title>Log_Event_subkernel134_cell_to__cell_integral_otherwise (2,563,311 us, 4.47%)</title><rect x="1076.4" y="343" width="52.7" height="15.0" fill="rgb(0,0,0)" rx="2" ry="2" />
<text  x="1079.37" y="353.5" >Log_..</text>
</g>
<g >
<title>Log_Event_tensorshell_knl_137 (268,983 us, 0.47%)</title><rect x="515.3" y="295" width="5.6" height="15.0" fill="rgb(0,0,0)" rx="2" ry="2" />
<text  x="518.34" y="305.5" ></text>
</g>
<g >
<title>firedrake.matrix_free.operators.ImplicitMatrixContext.mult (49,731 us, 0.09%)</title><rect x="936.1" y="231" width="1.0" height="15.0" fill="rgb(0,0,0)" rx="2" ry="2" />
<text  x="939.07" y="241.5" ></text>
</g>
<g >
<title>Log_Event_subkernel150_cell_to__cell_integral_otherwise (285,075 us, 0.50%)</title><rect x="814.8" y="263" width="5.9" height="15.0" fill="rgb(0,0,0)" rx="2" ry="2" />
<text  x="817.83" y="273.5" ></text>
</g>
<g >
<title>SNESSolve (54,500,555 us, 94.96%)</title><rect x="69.5" y="87" width="1120.5" height="15.0" fill="rgb(0,0,0)" rx="2" ry="2" />
<text  x="72.45" y="97.5" >SNESSolve</text>
</g>
<g >
<title>Log_Event_subkernel145_cell_to__cell_integral_otherwise (104,730 us, 0.18%)</title><rect x="1176.9" y="311" width="2.2" height="15.0" fill="rgb(0,0,0)" rx="2" ry="2" />
<text  x="1179.94" y="321.5" ></text>
</g>
<g >
<title>Log_Event_subkernel91_cell_to__cell_integral_otherwise (42,935 us, 0.07%)</title><rect x="1155.7" y="327" width="0.9" height="15.0" fill="rgb(0,0,0)" rx="2" ry="2" />
<text  x="1158.73" y="337.5" ></text>
</g>
<g >
<title>Log_Event_subkernel153_interior_facet_horiz_top_to__exterior_facet_top_integral_otherwise (50,716 us, 0.09%)</title><rect x="926.5" y="247" width="1.1" height="15.0" fill="rgb(0,0,0)" rx="2" ry="2" />
<text  x="929.55" y="257.5" ></text>
</g>
<g >
<title>Log_Event_subkernel91_interior_facet_vert_to__exterior_facet_vert_integral_otherwise (125,577 us, 0.22%)</title><rect x="826.4" y="263" width="2.6" height="15.0" fill="rgb(0,0,0)" rx="2" ry="2" />
<text  x="829.38" y="273.5" ></text>
</g>
<g >
<title>firedrake.interpolation.make_interpolator (75,825 us, 0.13%)</title><rect x="1185.4" y="167" width="1.6" height="15.0" fill="rgb(0,0,0)" rx="2" ry="2" />
<text  x="1188.43" y="177.5" ></text>
</g>
<g >
<title>Log_Event_subkernel141_cell_to__cell_integral_otherwise (1,069,275 us, 1.86%)</title><rect x="1129.1" y="343" width="22.0" height="15.0" fill="rgb(0,0,0)" rx="2" ry="2" />
<text  x="1132.07" y="353.5" ></text>
</g>
<g >
<title>firedrake.interpolation.make_interpolator (43,117 us, 0.08%)</title><rect x="1188.3" y="135" width="0.8" height="15.0" fill="rgb(0,0,0)" rx="2" ry="2" />
<text  x="1191.26" y="145.5" ></text>
</g>
<g >
<title>Log_Event_subkernel124_cell_to__cell_integral_otherwise (146,720 us, 0.26%)</title><rect x="209.6" y="295" width="3.0" height="15.0" fill="rgb(0,0,0)" rx="2" ry="2" />
<text  x="212.56" y="305.5" ></text>
</g>
<g >
<title>PCApply (12,084,628 us, 21.06%)</title><rect x="936.1" y="167" width="248.4" height="15.0" fill="rgb(0,0,0)" rx="2" ry="2" />
<text  x="939.07" y="177.5" >PCApply</text>
</g>
<g >
<title>Log_Event_mtf_solve_16 (330,605 us, 0.58%)</title><rect x="102.4" y="247" width="6.8" height="15.0" fill="rgb(0,0,0)" rx="2" ry="2" />
<text  x="105.40" y="257.5" ></text>
</g>
<g >
<title>Log_Event_subkernel111_interior_facet_vert_to__exterior_facet_vert_integral_otherwise (112,849 us, 0.20%)</title><rect x="1169.6" y="311" width="2.3" height="15.0" fill="rgb(0,0,0)" rx="2" ry="2" />
<text  x="1172.61" y="321.5" ></text>
</g>
<g >
<title>Log_Event_subkernel141_cell_to__cell_integral_otherwise (3,953,235 us, 6.89%)</title><rect x="726.2" y="279" width="81.3" height="15.0" fill="rgb(0,0,0)" rx="2" ry="2" />
<text  x="729.17" y="289.5" >Log_Even..</text>
</g>
<g >
<title>Log_Event_tensorshell_knl_133 (7,566,243 us, 13.18%)</title><rect x="995.5" y="327" width="155.6" height="15.0" fill="rgb(0,0,0)" rx="2" ry="2" />
<text  x="998.49" y="337.5" >Log_Event_tensorsh..</text>
</g>
<g >
<title>Log_Event_subkernel119_cell_to__cell_integral_otherwise (45,596 us, 0.08%)</title><rect x="1176.0" y="311" width="0.9" height="15.0" fill="rgb(0,0,0)" rx="2" ry="2" />
<text  x="1179.00" y="321.5" ></text>
</g>
<g >
<title>Log_Event_mtf_solve_94 (113,548 us, 0.20%)</title><rect x="1162.0" y="343" width="2.4" height="15.0" fill="rgb(0,0,0)" rx="2" ry="2" />
<text  x="1165.04" y="353.5" ></text>
</g>
<g >
<title>Parloop_Cells_wrap_slate_loopy_knl_0 (1,001,898 us, 1.75%)</title><rect x="97.2" y="183" width="20.6" height="15.0" fill="rgb(0,0,0)" rx="2" ry="2" />
<text  x="100.16" y="193.5" ></text>
</g>
<g >
<title>Log_Event_subkernel127_cell_to__cell_integral_otherwise (274,404 us, 0.48%)</title><rect x="214.7" y="295" width="5.7" height="15.0" fill="rgb(0,0,0)" rx="2" ry="2" />
<text  x="217.71" y="305.5" ></text>
</g>
<g >
<title>Log_Event_subkernel98_cell_to__cell_integral_otherwise (139,798 us, 0.24%)</title><rect x="853.5" y="295" width="2.9" height="15.0" fill="rgb(0,0,0)" rx="2" ry="2" />
<text  x="856.53" y="305.5" ></text>
</g>
<g >
<title>Log_Event_subkernel132_cell_to__cell_integral_otherwise (42,881 us, 0.07%)</title><rect x="988.2" y="327" width="0.9" height="15.0" fill="rgb(0,0,0)" rx="2" ry="2" />
<text  x="991.25" y="337.5" ></text>
</g>
<g >
<title>ParLoopExecute (1,001,898 us, 1.75%)</title><rect x="97.2" y="167" width="20.6" height="15.0" fill="rgb(0,0,0)" rx="2" ry="2" />
<text  x="100.16" y="177.5" ></text>
</g>
<g >
<title>Log_Event_subkernel129_cell_to__cell_integral_otherwise (168,180 us, 0.29%)</title><rect x="228.3" y="279" width="3.4" height="15.0" fill="rgb(0,0,0)" rx="2" ry="2" />
<text  x="231.28" y="289.5" ></text>
</g>
<g >
<title>Log_Event_mtf_solve_1 (729,185 us, 1.27%)</title><rect x="101.4" y="215" width="15.0" height="15.0" fill="rgb(0,0,0)" rx="2" ry="2" />
<text  x="104.42" y="225.5" ></text>
</g>
<g >
<title>Log_Event_subkernel22_cell_to__cell_integral_otherwise (111,195 us, 0.19%)</title><rect x="114.1" y="247" width="2.3" height="15.0" fill="rgb(0,0,0)" rx="2" ry="2" />
<text  x="117.13" y="257.5" ></text>
</g>
<g >
<title>Log_Event_mtf_solve_105 (392,609 us, 0.68%)</title><rect x="176.6" y="247" width="8.1" height="15.0" fill="rgb(0,0,0)" rx="2" ry="2" />
<text  x="179.63" y="257.5" ></text>
</g>
<g >
<title>PCSetUp (146,444 us, 0.26%)</title><rect x="1187.0" y="103" width="3.0" height="15.0" fill="rgb(0,0,0)" rx="2" ry="2" />
<text  x="1189.99" y="113.5" ></text>
</g>
<g >
<title>Log_Event_subkernel129_cell_to__cell_integral_otherwise (45,452 us, 0.08%)</title><rect x="994.6" y="343" width="0.9" height="15.0" fill="rgb(0,0,0)" rx="2" ry="2" />
<text  x="997.56" y="353.5" ></text>
</g>
<g >
<title>firedrake (57,392,122 us, 100.00%)</title><rect x="10.0" y="55" width="1180.0" height="15.0" fill="rgb(0,0,0)" rx="2" ry="2" />
<text  x="13.00" y="65.5" >firedrake</text>
</g>
<g >
<title>Log_Event_subkernel112_interior_facet_horiz_top_to__exterior_facet_top_integral_otherwise (56,253 us, 0.10%)</title><rect x="887.4" y="247" width="1.1" height="15.0" fill="rgb(0,0,0)" rx="2" ry="2" />
<text  x="890.37" y="257.5" ></text>
</g>
<g >
<title>Log_Event_subkernel152_interior_facet_horiz_bottom_to__exterior_facet_bottom_integral_otherwise (50,074 us, 0.09%)</title><rect x="915.0" y="247" width="1.0" height="15.0" fill="rgb(0,0,0)" rx="2" ry="2" />
<text  x="917.99" y="257.5" ></text>
</g>
<g >
<title>Log_Event_subkernel122_cell_to__cell_integral_otherwise (385,396 us, 0.67%)</title><rect x="220.4" y="279" width="7.9" height="15.0" fill="rgb(0,0,0)" rx="2" ry="2" />
<text  x="223.35" y="289.5" ></text>
</g>
<g >
<title>MatMult (39,800,625 us, 69.35%)</title><rect x="117.8" y="167" width="818.3" height="15.0" fill="rgb(0,0,0)" rx="2" ry="2" />
<text  x="120.76" y="177.5" >MatMult</text>
</g>
<g >
<title>Parloop_Cells_wrap_slate_loopy_knl_77 (10,786,420 us, 18.79%)</title><rect x="962.8" y="279" width="221.7" height="15.0" fill="rgb(0,0,0)" rx="2" ry="2" />
<text  x="965.76" y="289.5" >Parloop_Cells_wrap_slate_l..</text>
</g>
<g >
<title>Log_Event_subkernel112_interior_facet_vert_to__exterior_facet_vert_integral_otherwise (198,308 us, 0.35%)</title><rect x="1171.9" y="311" width="4.1" height="15.0" fill="rgb(0,0,0)" rx="2" ry="2" />
<text  x="1174.93" y="321.5" ></text>
</g>
<g >
<title>Log_Event_mtf_solve_135 (3,879,229 us, 6.76%)</title><rect x="996.6" y="343" width="79.8" height="15.0" fill="rgb(0,0,0)" rx="2" ry="2" />
<text  x="999.61" y="353.5" >Log_Even..</text>
</g>
<g >
<title>Log_Event_tensorshell_knl_121 (309,452 us, 0.54%)</title><rect x="989.1" y="327" width="6.4" height="15.0" fill="rgb(0,0,0)" rx="2" ry="2" />
<text  x="992.13" y="337.5" ></text>
</g>
<g >
<title>Log_Event_subkernel19_cell_to__cell_integral_otherwise (62,831 us, 0.11%)</title><rect x="104.2" y="263" width="1.3" height="15.0" fill="rgb(0,0,0)" rx="2" ry="2" />
<text  x="107.24" y="273.5" ></text>
</g>
<g >
<title>Log_Event_mtf_solve_123 (592,807 us, 1.03%)</title><rect x="208.2" y="279" width="12.2" height="15.0" fill="rgb(0,0,0)" rx="2" ry="2" />
<text  x="211.17" y="289.5" ></text>
</g>
<g >
<title>Parloop_Cells_wrap_expression_kernel (43,642 us, 0.08%)</title><rect x="1184.5" y="183" width="0.9" height="15.0" fill="rgb(0,0,0)" rx="2" ry="2" />
<text  x="1187.53" y="193.5" ></text>
</g>
<g >
<title>Log_Event_slate_loopy_knl_77 (10,613,344 us, 18.49%)</title><rect x="965.5" y="295" width="218.2" height="15.0" fill="rgb(0,0,0)" rx="2" ry="2" />
<text  x="968.46" y="305.5" >Log_Event_slate_loopy_knl_77</text>
</g>
<g >
<title>Log_Event_subkernel153_interior_facet_vert_to__exterior_facet_vert_integral_otherwise (412,455 us, 0.72%)</title><rect x="927.6" y="247" width="8.5" height="15.0" fill="rgb(0,0,0)" rx="2" ry="2" />
<text  x="930.59" y="257.5" ></text>
</g>
<g >
<title>ParLoopExecute (39,800,625 us, 69.35%)</title><rect x="117.8" y="199" width="818.3" height="15.0" fill="rgb(0,0,0)" rx="2" ry="2" />
<text  x="120.76" y="209.5" >ParLoopExecute</text>
</g>
<g >
<title>Log_Event_subkernel88_cell_to__cell_integral_otherwise (45,477 us, 0.08%)</title><rect x="1161.1" y="343" width="0.9" height="15.0" fill="rgb(0,0,0)" rx="2" ry="2" />
<text  x="1164.10" y="353.5" ></text>
</g>
<g >
<title>Log_Event_subkernel152_interior_facet_vert_to__exterior_facet_vert_integral_otherwise (111,323 us, 0.19%)</title><rect x="1179.1" y="311" width="2.3" height="15.0" fill="rgb(0,0,0)" rx="2" ry="2" />
<text  x="1182.09" y="321.5" ></text>
</g>
<g >
<title>Log_Event_mtf_solve_146 (600,542 us, 1.05%)</title><rect x="808.3" y="247" width="12.4" height="15.0" fill="rgb(0,0,0)" rx="2" ry="2" />
<text  x="811.34" y="257.5" ></text>
</g>
<g >
<title>Log_Event_subkernel153_interior_facet_horiz_bottom_to__exterior_facet_bottom_integral_otherwise (50,093 us, 0.09%)</title><rect x="925.5" y="247" width="1.0" height="15.0" fill="rgb(0,0,0)" rx="2" ry="2" />
<text  x="928.52" y="257.5" ></text>
</g>
<g >
<title>all (57,392,122 us, 100%)</title><rect x="10.0" y="39" width="1180.0" height="15.0" fill="rgb(0,0,0)" rx="2" ry="2" />
<text  x="13.00" y="49.5" ></text>
</g>
<g >
<title>Log_Event_tensorshell_knl_133 (28,001,408 us, 48.79%)</title><rect x="231.7" y="263" width="575.8" height="15.0" fill="rgb(0,0,0)" rx="2" ry="2" />
<text  x="234.74" y="273.5" >Log_Event_tensorshell_knl_133</text>
</g>
<g >
<title>Log_Event_tensorshell_knl_140 (538,091 us, 0.94%)</title><rect x="520.9" y="295" width="11.0" height="15.0" fill="rgb(0,0,0)" rx="2" ry="2" />
<text  x="523.87" y="305.5" ></text>
</g>
<g >
<title>Log_Event_subkernel122_cell_to__cell_integral_otherwise (104,607 us, 0.18%)</title><rect x="992.4" y="343" width="2.2" height="15.0" fill="rgb(0,0,0)" rx="2" ry="2" />
<text  x="995.41" y="353.5" ></text>
</g>
<g >
<title>Log_Event_mtf_solve_113 (163,197 us, 0.28%)</title><rect x="982.5" y="311" width="3.4" height="15.0" fill="rgb(0,0,0)" rx="2" ry="2" />
<text  x="985.54" y="321.5" ></text>
</g>
<g >
<title>Log_Event_subkernel15_cell_to__cell_integral_otherwise (240,074 us, 0.42%)</title><rect x="109.2" y="247" width="4.9" height="15.0" fill="rgb(0,0,0)" rx="2" ry="2" />
<text  x="112.19" y="257.5" ></text>
</g>
<g >
<title>Log_Event_tensorshell_knl_92 (942,848 us, 1.64%)</title><rect x="848.4" y="263" width="19.4" height="15.0" fill="rgb(0,0,0)" rx="2" ry="2" />
<text  x="851.38" y="273.5" ></text>
</g>
<g >
<title>Log_Event_mtf_solve_146 (162,196 us, 0.28%)</title><rect x="1151.1" y="311" width="3.3" height="15.0" fill="rgb(0,0,0)" rx="2" ry="2" />
<text  x="1154.06" y="321.5" ></text>
</g>
<g >
<title>Log_Event_subkernel147_cell_to__cell_integral_otherwise (145,578 us, 0.25%)</title><rect x="809.7" y="263" width="3.0" height="15.0" fill="rgb(0,0,0)" rx="2" ry="2" />
<text  x="812.74" y="273.5" ></text>
</g>
<g >
<title>Log_Event_subkernel119_cell_to__cell_integral_otherwise (169,213 us, 0.29%)</title><rect x="903.6" y="247" width="3.5" height="15.0" fill="rgb(0,0,0)" rx="2" ry="2" />
<text  x="906.57" y="257.5" ></text>
</g>
<g >
<title>KSPSolve (51,885,253 us, 90.40%)</title><rect x="117.8" y="151" width="1066.7" height="15.0" fill="rgb(0,0,0)" rx="2" ry="2" />
<text  x="120.76" y="161.5" >KSPSolve</text>
</g>
<g >
<title>Log_Event_subkernel83_cell_to__cell_integral_otherwise (145,507 us, 0.25%)</title><rect x="829.0" y="295" width="3.0" height="15.0" fill="rgb(0,0,0)" rx="2" ry="2" />
<text  x="831.96" y="305.5" ></text>
</g>
<g >
<title>Parloop_Cells_wrap_slate_loopy_knl_77 (39,800,625 us, 69.35%)</title><rect x="117.8" y="215" width="818.3" height="15.0" fill="rgb(0,0,0)" rx="2" ry="2" />
<text  x="120.76" y="225.5" >Parloop_Cells_wrap_slate_loopy_knl_77</text>
</g>
<g >
<title>Log_Event_tensorshell_knl_143 (43,123 us, 0.08%)</title><rect x="807.5" y="263" width="0.8" height="15.0" fill="rgb(0,0,0)" rx="2" ry="2" />
<text  x="810.45" y="273.5" ></text>
</g>
<g >
<title>Log_Event_subkernel111_interior_facet_horiz_top_to__exterior_facet_top_integral_otherwise (49,657 us, 0.09%)</title><rect x="876.7" y="247" width="1.1" height="15.0" fill="rgb(0,0,0)" rx="2" ry="2" />
<text  x="879.73" y="257.5" ></text>
</g>
<g >
<title>Log_Event_subkernel152_interior_facet_horiz_top_to__exterior_facet_top_integral_otherwise (50,056 us, 0.09%)</title><rect x="916.0" y="247" width="1.1" height="15.0" fill="rgb(0,0,0)" rx="2" ry="2" />
<text  x="919.02" y="257.5" ></text>
</g>
<g >
<title>Log_Event_tensorshell_knl_92 (263,235 us, 0.46%)</title><rect x="1162.0" y="327" width="5.5" height="15.0" fill="rgb(0,0,0)" rx="2" ry="2" />
<text  x="1165.04" y="337.5" ></text>
</g>
<g >
<title>PCSetUp (12,034,897 us, 20.97%)</title><rect x="937.1" y="183" width="247.4" height="15.0" fill="rgb(0,0,0)" rx="2" ry="2" />
<text  x="940.09" y="193.5" >PCSetUp</text>
</g>
<g >
<title>Log_Event_subkernel132_interior_facet_vert_to__exterior_facet_vert_integral_otherwise (126,081 us, 0.22%)</title><rect x="205.6" y="263" width="2.6" height="15.0" fill="rgb(0,0,0)" rx="2" ry="2" />
<text  x="208.57" y="273.5" ></text>
</g>
<g >
<title>CreateExtMesh (69,334 us, 0.12%)</title><rect x="37.2" y="71" width="1.4" height="15.0" fill="rgb(0,0,0)" rx="2" ry="2" />
<text  x="40.21" y="81.5" ></text>
</g>
<g >
<title>Log_Event_mtf_solve_120 (29,727,561 us, 51.80%)</title><rect x="197.1" y="247" width="611.2" height="15.0" fill="rgb(0,0,0)" rx="2" ry="2" />
<text  x="200.13" y="257.5" >Log_Event_mtf_solve_120</text>
</g>
<g >
<title>ParLoopExecute (43,642 us, 0.08%)</title><rect x="1184.5" y="167" width="0.9" height="15.0" fill="rgb(0,0,0)" rx="2" ry="2" />
<text  x="1187.53" y="177.5" ></text>
</g>
<g >
<title>MatMult (49,731 us, 0.09%)</title><rect x="936.1" y="215" width="1.0" height="15.0" fill="rgb(0,0,0)" rx="2" ry="2" />
<text  x="939.07" y="225.5" ></text>
</g>
<g >
<title>Log_Event_subkernel109_cell_to__cell_integral_otherwise (145,335 us, 0.25%)</title><rect x="181.7" y="263" width="3.0" height="15.0" fill="rgb(0,0,0)" rx="2" ry="2" />
<text  x="184.71" y="273.5" ></text>
</g>
<g >
<title>Log_Event_mtf_solve_135 (14,392,774 us, 25.08%)</title><rect x="236.0" y="279" width="295.9" height="15.0" fill="rgb(0,0,0)" rx="2" ry="2" />
<text  x="239.01" y="289.5" >Log_Event_mtf_solve_135</text>
</g>
<g >
<title>SCForwardElim (2,304,463 us, 4.02%)</title><rect x="70.4" y="135" width="47.4" height="15.0" fill="rgb(0,0,0)" rx="2" ry="2" />
<text  x="73.38" y="145.5" >SCFo..</text>
</g>
<g >
<title>Log_Event_mtf_solve_41 (65,202 us, 0.11%)</title><rect x="116.4" y="215" width="1.4" height="15.0" fill="rgb(0,0,0)" rx="2" ry="2" />
<text  x="119.42" y="225.5" ></text>
</g>
<g >
<title>HybridRHS (2,260,484 us, 3.94%)</title><rect x="71.3" y="151" width="46.5" height="15.0" fill="rgb(0,0,0)" rx="2" ry="2" />
<text  x="74.28" y="161.5" >Hybr..</text>
</g>
<g >
<title>Log_Event_tensorshell_knl_137 (71,509 us, 0.12%)</title><rect x="1072.0" y="359" width="1.5" height="15.0" fill="rgb(0,0,0)" rx="2" ry="2" />
<text  x="1074.99" y="369.5" ></text>
</g>
<g >
<title>Log_Event_mtf_solve_105 (114,760 us, 0.20%)</title><rect x="980.2" y="311" width="2.3" height="15.0" fill="rgb(0,0,0)" rx="2" ry="2" />
<text  x="983.18" y="321.5" ></text>
</g>
<g >
<title>Log_Event_subkernel136_cell_to__cell_integral_otherwise (3,547,981 us, 6.18%)</title><rect x="252.5" y="295" width="72.9" height="15.0" fill="rgb(0,0,0)" rx="2" ry="2" />
<text  x="255.45" y="305.5" >Log_Eve..</text>
</g>
<g >
<title>Log_Event_subkernel152_interior_facet_vert_to__exterior_facet_vert_integral_otherwise (411,767 us, 0.72%)</title><rect x="917.1" y="247" width="8.4" height="15.0" fill="rgb(0,0,0)" rx="2" ry="2" />
<text  x="920.05" y="257.5" ></text>
</g>
<g >
<title>Log_Event_subkernel149_cell_to__cell_integral_otherwise (101,653 us, 0.18%)</title><rect x="812.7" y="263" width="2.1" height="15.0" fill="rgb(0,0,0)" rx="2" ry="2" />
<text  x="815.74" y="273.5" ></text>
</g>
<g >
<title>ParLoopExecute (10,786,420 us, 18.79%)</title><rect x="962.8" y="263" width="221.7" height="15.0" fill="rgb(0,0,0)" rx="2" ry="2" />
<text  x="965.76" y="273.5" >ParLoopExecute</text>
</g>
<g >
<title>Log_Event_subkernel145_cell_to__cell_integral_otherwise (386,076 us, 0.67%)</title><rect x="907.1" y="247" width="7.9" height="15.0" fill="rgb(0,0,0)" rx="2" ry="2" />
<text  x="910.05" y="257.5" ></text>
</g>
<g >
<title>Log_Event_subkernel126_cell_to__cell_integral_otherwise (103,861 us, 0.18%)</title><rect x="212.6" y="295" width="2.1" height="15.0" fill="rgb(0,0,0)" rx="2" ry="2" />
<text  x="215.58" y="305.5" ></text>
</g>
<g >
<title>ParLoopExecute (49,731 us, 0.09%)</title><rect x="936.1" y="247" width="1.0" height="15.0" fill="rgb(0,0,0)" rx="2" ry="2" />
<text  x="939.07" y="257.5" ></text>
</g>
<g >
<title>Log_Event_tensorshell_knl_80 (263,813 us, 0.46%)</title><rect x="1156.6" y="327" width="5.4" height="15.0" fill="rgb(0,0,0)" rx="2" ry="2" />
<text  x="1159.61" y="337.5" ></text>
</g>
<g >
<title>Log_Event_subkernel108_cell_to__cell_integral_otherwise (101,645 us, 0.18%)</title><rect x="179.6" y="263" width="2.1" height="15.0" fill="rgb(0,0,0)" rx="2" ry="2" />
<text  x="182.62" y="273.5" ></text>
</g>
<g >
<title>Log_Event_subkernel136_cell_to__cell_integral_otherwise (955,169 us, 1.66%)</title><rect x="1001.0" y="359" width="19.6" height="15.0" fill="rgb(0,0,0)" rx="2" ry="2" />
<text  x="1003.97" y="369.5" ></text>
</g>
<g >
<title>Log_Event_subkernel93_cell_to__cell_integral_otherwise (384,181 us, 0.67%)</title><rect x="859.9" y="279" width="7.9" height="15.0" fill="rgb(0,0,0)" rx="2" ry="2" />
<text  x="862.87" y="289.5" ></text>
</g>
<g >
<title>PCApply (49,731 us, 0.09%)</title><rect x="936.1" y="183" width="1.0" height="15.0" fill="rgb(0,0,0)" rx="2" ry="2" />
<text  x="939.07" y="193.5" ></text>
</g>
<g >
<title>Log_Event_mtf_solve_123 (159,393 us, 0.28%)</title><rect x="989.1" y="343" width="3.3" height="15.0" fill="rgb(0,0,0)" rx="2" ry="2" />
<text  x="992.13" y="353.5" ></text>
</g>
<g >
<title>Log_Event_subkernel139_cell_to__cell_integral_otherwise (6,755,175 us, 11.77%)</title><rect x="376.4" y="295" width="138.9" height="15.0" fill="rgb(0,0,0)" rx="2" ry="2" />
<text  x="379.45" y="305.5" >Log_Event_subker..</text>
</g>
<g >
<title>Log_Event_subkernel106_cell_to__cell_integral_otherwise (145,629 us, 0.25%)</title><rect x="176.6" y="263" width="3.0" height="15.0" fill="rgb(0,0,0)" rx="2" ry="2" />
<text  x="179.63" y="273.5" ></text>
</g>
<g >
<title>Log_Event_subkernel85_cell_to__cell_integral_otherwise (104,489 us, 0.18%)</title><rect x="832.0" y="295" width="2.1" height="15.0" fill="rgb(0,0,0)" rx="2" ry="2" />
<text  x="834.95" y="305.5" ></text>
</g>
<g >
<title>Log_Event_subkernel104_cell_to__cell_integral_otherwise (104,885 us, 0.18%)</title><rect x="1167.5" y="311" width="2.1" height="15.0" fill="rgb(0,0,0)" rx="2" ry="2" />
<text  x="1170.45" y="321.5" ></text>
</g>
<g >
<title>Log_Event_subkernel81_cell_to__cell_integral_otherwise (104,665 us, 0.18%)</title><rect x="1159.0" y="343" width="2.1" height="15.0" fill="rgb(0,0,0)" rx="2" ry="2" />
<text  x="1161.95" y="353.5" ></text>
</g>
<g >
<title>KSPSolve (12,034,897 us, 20.97%)</title><rect x="937.1" y="215" width="247.4" height="15.0" fill="rgb(0,0,0)" rx="2" ry="2" />
<text  x="940.09" y="225.5" >KSPSolve</text>
</g>
<g >
<title>firedrake.__init__ (1,498,844 us, 2.61%)</title><rect x="38.6" y="71" width="30.9" height="15.0" fill="rgb(0,0,0)" rx="2" ry="2" />
<text  x="41.63" y="81.5" >fi..</text>
</g>
<g >
<title>pyop2.global_kernel.GlobalKernel.compile (41,803 us, 0.07%)</title><rect x="1183.7" y="295" width="0.8" height="15.0" fill="rgb(0,0,0)" rx="2" ry="2" />
<text  x="1186.67" y="305.5" ></text>
</g>
<g >
<title>MatResidual (49,731 us, 0.09%)</title><rect x="936.1" y="199" width="1.0" height="15.0" fill="rgb(0,0,0)" rx="2" ry="2" />
<text  x="939.07" y="209.5" ></text>
</g>
<g >
<title>Log_Event_subkernel17_cell_to__cell_integral_otherwise (89,604 us, 0.16%)</title><rect x="102.4" y="263" width="1.8" height="15.0" fill="rgb(0,0,0)" rx="2" ry="2" />
<text  x="105.40" y="273.5" ></text>
</g>
<g >
<title>PCSetUp (119,467 us, 0.21%)</title><rect x="1184.5" y="151" width="2.5" height="15.0" fill="rgb(0,0,0)" rx="2" ry="2" />
<text  x="1187.53" y="161.5" ></text>
</g>
<g >
<title>Parloop_Cells_wrap_form0_cell_integral_otherwise (44,928 us, 0.08%)</title><rect x="69.5" y="167" width="0.9" height="15.0" fill="rgb(0,0,0)" rx="2" ry="2" />
<text  x="72.45" y="177.5" ></text>
</g>
<g >
<title>Log_Event_subkernel139_cell_to__cell_integral_otherwise (1,821,999 us, 3.17%)</title><rect x="1034.5" y="359" width="37.5" height="15.0" fill="rgb(0,0,0)" rx="2" ry="2" />
<text  x="1037.53" y="369.5" >Lo..</text>
</g>
<g >
<title>Log_Event_subkernel112_interior_facet_horiz_bottom_to__exterior_facet_bottom_integral_otherwise (56,647 us, 0.10%)</title><rect x="886.2" y="247" width="1.2" height="15.0" fill="rgb(0,0,0)" rx="2" ry="2" />
<text  x="889.21" y="257.5" ></text>
</g>
<g >
<title>Log_Event_subkernel100_cell_to__cell_integral_otherwise (45,545 us, 0.08%)</title><rect x="1164.4" y="343" width="0.9" height="15.0" fill="rgb(0,0,0)" rx="2" ry="2" />
<text  x="1167.37" y="353.5" ></text>
</g>
<g >
<title>Log_Event_subkernel104_cell_to__cell_integral_otherwise (386,028 us, 0.67%)</title><rect x="867.8" y="247" width="7.9" height="15.0" fill="rgb(0,0,0)" rx="2" ry="2" />
<text  x="870.76" y="257.5" ></text>
</g>
<g >
<title>ParLoopExecute (44,928 us, 0.08%)</title><rect x="69.5" y="151" width="0.9" height="15.0" fill="rgb(0,0,0)" rx="2" ry="2" />
<text  x="72.45" y="161.5" ></text>
</g>
<g >
<title>Log_Event_subkernel91_cell_to__cell_integral_otherwise (160,162 us, 0.28%)</title><rect x="823.1" y="263" width="3.3" height="15.0" fill="rgb(0,0,0)" rx="2" ry="2" />
<text  x="826.09" y="273.5" ></text>
</g>
<g >
<title>Log_Event_subkernel86_cell_to__cell_integral_otherwise (140,005 us, 0.24%)</title><rect x="834.1" y="295" width="2.9" height="15.0" fill="rgb(0,0,0)" rx="2" ry="2" />
<text  x="837.10" y="305.5" ></text>
</g>
<g >
<title>Log_Event_subkernel20_cell_to__cell_integral_otherwise (178,170 us, 0.31%)</title><rect x="105.5" y="263" width="3.7" height="15.0" fill="rgb(0,0,0)" rx="2" ry="2" />
<text  x="108.53" y="273.5" ></text>
</g>
<g >
<title>Log_Event_subkernel93_cell_to__cell_integral_otherwise (104,142 us, 0.18%)</title><rect x="1165.3" y="343" width="2.2" height="15.0" fill="rgb(0,0,0)" rx="2" ry="2" />
<text  x="1168.31" y="353.5" ></text>
</g>
<g >
<title>Log_Event_subkernel97_cell_to__cell_integral_otherwise (104,738 us, 0.18%)</title><rect x="851.4" y="295" width="2.1" height="15.0" fill="rgb(0,0,0)" rx="2" ry="2" />
<text  x="854.38" y="305.5" ></text>
</g>
<g >
<title>firedrake.extrusion_utils.make_extruded_coords (69,334 us, 0.12%)</title><rect x="37.2" y="87" width="1.4" height="15.0" fill="rgb(0,0,0)" rx="2" ry="2" />
<text  x="40.21" y="97.5" ></text>
</g>
<g >
<title>Log_Event_subkernel117_cell_to__cell_integral_otherwise (77,355 us, 0.13%)</title><rect x="984.3" y="327" width="1.6" height="15.0" fill="rgb(0,0,0)" rx="2" ry="2" />
<text  x="987.30" y="337.5" ></text>
</g>
<g >
<title>Log_Event_subkernel88_cell_to__cell_integral_otherwise (168,625 us, 0.29%)</title><rect x="844.9" y="279" width="3.5" height="15.0" fill="rgb(0,0,0)" rx="2" ry="2" />
<text  x="847.91" y="289.5" ></text>
</g>
<g >
<title>firedrake.parloops.par_loop (41,620 us, 0.07%)</title><rect x="1189.1" y="135" width="0.9" height="15.0" fill="rgb(0,0,0)" rx="2" ry="2" />
<text  x="1192.14" y="145.5" ></text>
</g>
<g >
<title>Log_Event_mtf_solve_79 (2,289,693 us, 3.99%)</title><rect x="820.7" y="247" width="47.1" height="15.0" fill="rgb(0,0,0)" rx="2" ry="2" />
<text  x="823.69" y="257.5" >Log_..</text>
</g>
<g >
<title>Log_Event_mtf_solve_82 (113,671 us, 0.20%)</title><rect x="1156.6" y="343" width="2.4" height="15.0" fill="rgb(0,0,0)" rx="2" ry="2" />
<text  x="1159.61" y="353.5" ></text>
</g>
<g >
<title>firedrake.matrix_free.operators.ImplicitMatrixContext.mult (12,034,897 us, 20.97%)</title><rect x="937.1" y="247" width="247.4" height="15.0" fill="rgb(0,0,0)" rx="2" ry="2" />
<text  x="940.09" y="257.5" >firedrake.matrix_free.operator..</text>
</g>
<g >
<title>Log_Event_tensorshell_knl_14 (681,874 us, 1.19%)</title><rect x="102.4" y="231" width="14.0" height="15.0" fill="rgb(0,0,0)" rx="2" ry="2" />
<text  x="105.40" y="241.5" ></text>
</g>
<g >
<title>Log_Event_subkernel114_cell_to__cell_integral_otherwise (145,787 us, 0.25%)</title><rect x="186.2" y="263" width="3.0" height="15.0" fill="rgb(0,0,0)" rx="2" ry="2" />
<text  x="189.15" y="273.5" ></text>
</g>
<g >
<title>Log_Event_mtf_solve_94 (390,334 us, 0.68%)</title><rect x="848.4" y="279" width="8.0" height="15.0" fill="rgb(0,0,0)" rx="2" ry="2" />
<text  x="851.38" y="289.5" ></text>
</g>
<g >
<title>Log_Event_mtf_solve_120 (8,033,137 us, 14.00%)</title><rect x="985.9" y="311" width="165.2" height="15.0" fill="rgb(0,0,0)" rx="2" ry="2" />
<text  x="988.89" y="321.5" >Log_Event_mtf_solve..</text>
</g>
<g >
<title>Log_Event_subkernel116_cell_to__cell_integral_otherwise (102,388 us, 0.18%)</title><rect x="189.2" y="263" width="2.1" height="15.0" fill="rgb(0,0,0)" rx="2" ry="2" />
<text  x="192.15" y="273.5" ></text>
</g>
<g >
<title>Log_Event_subkernel100_cell_to__cell_integral_otherwise (168,333 us, 0.29%)</title><rect x="856.4" y="279" width="3.5" height="15.0" fill="rgb(0,0,0)" rx="2" ry="2" />
<text  x="859.40" y="289.5" ></text>
</g>
<g >
<title>PCApply (54,309,183 us, 94.63%)</title><rect x="70.4" y="119" width="1116.6" height="15.0" fill="rgb(0,0,0)" rx="2" ry="2" />
<text  x="73.38" y="129.5" >PCApply</text>
</g>
<g >
<title>Log_Event_subkernel134_cell_to__cell_integral_otherwise (9,447,445 us, 16.46%)</title><rect x="531.9" y="279" width="194.3" height="15.0" fill="rgb(0,0,0)" rx="2" ry="2" />
<text  x="534.93" y="289.5" >Log_Event_subkernel134_..</text>
</g>
<g >
<title>HybridBreak (43,979 us, 0.08%)</title><rect x="70.4" y="151" width="0.9" height="15.0" fill="rgb(0,0,0)" rx="2" ry="2" />
<text  x="73.38" y="161.5" ></text>
</g>
<g >
<title>Log_Event_mtf_solve_113 (604,564 us, 1.05%)</title><rect x="184.7" y="247" width="12.4" height="15.0" fill="rgb(0,0,0)" rx="2" ry="2" />
<text  x="187.70" y="257.5" ></text>
</g>
<g >
<title>Log_Event_tensorshell_knl_80 (944,338 us, 1.65%)</title><rect x="829.0" y="263" width="19.4" height="15.0" fill="rgb(0,0,0)" rx="2" ry="2" />
<text  x="831.96" y="273.5" ></text>
</g>
<g >
<title>Log_Event_subkernel138_cell_to__cell_integral_otherwise (2,482,922 us, 4.33%)</title><rect x="325.4" y="295" width="51.0" height="15.0" fill="rgb(0,0,0)" rx="2" ry="2" />
<text  x="328.40" y="305.5" >Log_..</text>
</g>
</g>
</svg>
