<?xml version="1.0" standalone="no"?>
<!DOCTYPE svg PUBLIC "-//W3C//DTD SVG 1.1//EN" "http://www.w3.org/Graphics/SVG/1.1/DTD/svg11.dtd">
<svg version="1.1" width="1200" height="267" onload="init(evt)" viewBox="0 0 1200 267" xmlns="http://www.w3.org/2000/svg" xmlns:xlink="http://www.w3.org/1999/xlink">
<!-- Flame graph stack visualization. See https://github.com/brendangregg/FlameGraph for latest version, and http://www.brendangregg.com/flamegraphs.html for examples. -->
<!-- NOTES:  -->
<defs>
	<linearGradient id="background" y1="0" y2="1" x1="0" x2="0" >
		<stop stop-color="#eeeeee" offset="5%" />
		<stop stop-color="#eeeeb0" offset="95%" />
	</linearGradient>
</defs>
<style type="text/css">
	text { font-family:Verdana; font-size:13px; fill:rgb(0,0,0); }
	#search, #ignorecase { opacity:0.1; cursor:pointer; }
	#search:hover, #search.show, #ignorecase:hover, #ignorecase.show { opacity:1; }
	#subtitle { text-anchor:middle; font-color:rgb(160,160,160); }
	#title { text-anchor:middle; font-size:18px}
	#unzoom { cursor:pointer; }
	#frames > *:hover { stroke:black; stroke-width:0.5; cursor:pointer; }
	.hide { display:none; }
	.parent { opacity:0.5; }
</style>
<script type="text/ecmascript">
<![CDATA[
	"use strict";
	var details, searchbtn, unzoombtn, matchedtxt, svg, searching, currentSearchTerm, ignorecase, ignorecaseBtn;
	function init(evt) {
		details = document.getElementById("details").firstChild;
		searchbtn = document.getElementById("search");
		ignorecaseBtn = document.getElementById("ignorecase");
		unzoombtn = document.getElementById("unzoom");
		matchedtxt = document.getElementById("matched");
		svg = document.getElementsByTagName("svg")[0];
		searching = 0;
		currentSearchTerm = null;

		// use GET parameters to restore a flamegraphs state.
		var params = get_params();
		if (params.x && params.y)
			zoom(find_group(document.querySelector('[x="' + params.x + '"][y="' + params.y + '"]')));
                if (params.s) search(params.s);
	}

	// event listeners
	window.addEventListener("click", function(e) {
		var target = find_group(e.target);
		if (target) {
			if (target.nodeName == "a") {
				if (e.ctrlKey === false) return;
				e.preventDefault();
			}
			if (target.classList.contains("parent")) unzoom();
			zoom(target);
			if (!document.querySelector('.parent')) {
				clearzoom();
				return;
			}

			// set parameters for zoom state
			var el = target.querySelector("rect");
			if (el && el.attributes && el.attributes.y && el.attributes._orig_x) {
				var params = get_params()
				params.x = el.attributes._orig_x.value;
				params.y = el.attributes.y.value;
				history.replaceState(null, null, parse_params(params));
			}
		}
		else if (e.target.id == "unzoom") clearzoom();
		else if (e.target.id == "search") search_prompt();
		else if (e.target.id == "ignorecase") toggle_ignorecase();
	}, false)

	// mouse-over for info
	// show
	window.addEventListener("mouseover", function(e) {
		var target = find_group(e.target);
		if (target) details.nodeValue = "Function: " + g_to_text(target);
	}, false)

	// clear
	window.addEventListener("mouseout", function(e) {
		var target = find_group(e.target);
		if (target) details.nodeValue = ' ';
	}, false)

	// ctrl-F for search
	// ctrl-I to toggle case-sensitive search
	window.addEventListener("keydown",function (e) {
		if (e.keyCode === 114 || (e.ctrlKey && e.keyCode === 70)) {
			e.preventDefault();
			search_prompt();
		}
		else if (e.ctrlKey && e.keyCode === 73) {
			e.preventDefault();
			toggle_ignorecase();
		}
	}, false)

	// functions
	function get_params() {
		var params = {};
		var paramsarr = window.location.search.substr(1).split('&');
		for (var i = 0; i < paramsarr.length; ++i) {
			var tmp = paramsarr[i].split("=");
			if (!tmp[0] || !tmp[1]) continue;
			params[tmp[0]]  = decodeURIComponent(tmp[1]);
		}
		return params;
	}
	function parse_params(params) {
		var uri = "?";
		for (var key in params) {
			uri += key + '=' + encodeURIComponent(params[key]) + '&';
		}
		if (uri.slice(-1) == "&")
			uri = uri.substring(0, uri.length - 1);
		if (uri == '?')
			uri = window.location.href.split('?')[0];
		return uri;
	}
	function find_child(node, selector) {
		var children = node.querySelectorAll(selector);
		if (children.length) return children[0];
	}
	function find_group(node) {
		var parent = node.parentElement;
		if (!parent) return;
		if (parent.id == "frames") return node;
		return find_group(parent);
	}
	function orig_save(e, attr, val) {
		if (e.attributes["_orig_" + attr] != undefined) return;
		if (e.attributes[attr] == undefined) return;
		if (val == undefined) val = e.attributes[attr].value;
		e.setAttribute("_orig_" + attr, val);
	}
	function orig_load(e, attr) {
		if (e.attributes["_orig_"+attr] == undefined) return;
		e.attributes[attr].value = e.attributes["_orig_" + attr].value;
		e.removeAttribute("_orig_"+attr);
	}
	function g_to_text(e) {
		var text = find_child(e, "title").firstChild.nodeValue;
		return (text)
	}
	function g_to_func(e) {
		var func = g_to_text(e);
		// if there's any manipulation we want to do to the function
		// name before it's searched, do it here before returning.
		return (func);
	}
	function update_text(e) {
		var r = find_child(e, "rect");
		var t = find_child(e, "text");
		var w = parseFloat(r.attributes.width.value) -3;
		var txt = find_child(e, "title").textContent.replace(/\([^(]*\)$/,"");
		t.attributes.x.value = parseFloat(r.attributes.x.value) + 3;

		// Smaller than this size won't fit anything
		if (w < 2 * 13 * 0.59) {
			t.textContent = "";
			return;
		}

		t.textContent = txt;
		// Fit in full text width
		if (/^ *$/.test(txt) || t.getSubStringLength(0, txt.length) < w)
			return;

		for (var x = txt.length - 2; x > 0; x--) {
			if (t.getSubStringLength(0, x + 2) <= w) {
				t.textContent = txt.substring(0, x) + "..";
				return;
			}
		}
		t.textContent = "";
	}

	// zoom
	function zoom_reset(e) {
		if (e.attributes != undefined) {
			orig_load(e, "x");
			orig_load(e, "width");
		}
		if (e.childNodes == undefined) return;
		for (var i = 0, c = e.childNodes; i < c.length; i++) {
			zoom_reset(c[i]);
		}
	}
	function zoom_child(e, x, ratio) {
		if (e.attributes != undefined) {
			if (e.attributes.x != undefined) {
				orig_save(e, "x");
				e.attributes.x.value = (parseFloat(e.attributes.x.value) - x - 10) * ratio + 10;
				if (e.tagName == "text")
					e.attributes.x.value = find_child(e.parentNode, "rect[x]").attributes.x.value + 3;
			}
			if (e.attributes.width != undefined) {
				orig_save(e, "width");
				e.attributes.width.value = parseFloat(e.attributes.width.value) * ratio;
			}
		}

		if (e.childNodes == undefined) return;
		for (var i = 0, c = e.childNodes; i < c.length; i++) {
			zoom_child(c[i], x - 10, ratio);
		}
	}
	function zoom_parent(e) {
		if (e.attributes) {
			if (e.attributes.x != undefined) {
				orig_save(e, "x");
				e.attributes.x.value = 10;
			}
			if (e.attributes.width != undefined) {
				orig_save(e, "width");
				e.attributes.width.value = parseInt(svg.width.baseVal.value) - (10 * 2);
			}
		}
		if (e.childNodes == undefined) return;
		for (var i = 0, c = e.childNodes; i < c.length; i++) {
			zoom_parent(c[i]);
		}
	}
	function zoom(node) {
		var attr = find_child(node, "rect").attributes;
		var width = parseFloat(attr.width.value);
		var xmin = parseFloat(attr.x.value);
		var xmax = parseFloat(xmin + width);
		var ymin = parseFloat(attr.y.value);
		var ratio = (svg.width.baseVal.value - 2 * 10) / width;

		// XXX: Workaround for JavaScript float issues (fix me)
		var fudge = 0.0001;

		unzoombtn.classList.remove("hide");

		var el = document.getElementById("frames").children;
		for (var i = 0; i < el.length; i++) {
			var e = el[i];
			var a = find_child(e, "rect").attributes;
			var ex = parseFloat(a.x.value);
			var ew = parseFloat(a.width.value);
			var upstack;
			// Is it an ancestor
			if (1 == 0) {
				upstack = parseFloat(a.y.value) > ymin;
			} else {
				upstack = parseFloat(a.y.value) < ymin;
			}
			if (upstack) {
				// Direct ancestor
				if (ex <= xmin && (ex+ew+fudge) >= xmax) {
					e.classList.add("parent");
					zoom_parent(e);
					update_text(e);
				}
				// not in current path
				else
					e.classList.add("hide");
			}
			// Children maybe
			else {
				// no common path
				if (ex < xmin || ex + fudge >= xmax) {
					e.classList.add("hide");
				}
				else {
					zoom_child(e, xmin, ratio);
					update_text(e);
				}
			}
		}
		search();
	}
	function unzoom() {
		unzoombtn.classList.add("hide");
		var el = document.getElementById("frames").children;
		for(var i = 0; i < el.length; i++) {
			el[i].classList.remove("parent");
			el[i].classList.remove("hide");
			zoom_reset(el[i]);
			update_text(el[i]);
		}
		search();
	}
	function clearzoom() {
		unzoom();

		// remove zoom state
		var params = get_params();
		if (params.x) delete params.x;
		if (params.y) delete params.y;
		history.replaceState(null, null, parse_params(params));
	}

	// search
	function toggle_ignorecase() {
		ignorecase = !ignorecase;
		if (ignorecase) {
			ignorecaseBtn.classList.add("show");
		} else {
			ignorecaseBtn.classList.remove("show");
		}
		reset_search();
		search();
	}
	function reset_search() {
		var el = document.querySelectorAll("#frames rect");
		for (var i = 0; i < el.length; i++) {
			orig_load(el[i], "fill")
		}
		var params = get_params();
		delete params.s;
		history.replaceState(null, null, parse_params(params));
	}
	function search_prompt() {
		if (!searching) {
			var term = prompt("Enter a search term (regexp " +
			    "allowed, eg: ^ext4_)"
			    + (ignorecase ? ", ignoring case" : "")
			    + "\nPress Ctrl-i to toggle case sensitivity", "");
			if (term != null) search(term);
		} else {
			reset_search();
			searching = 0;
			currentSearchTerm = null;
			searchbtn.classList.remove("show");
			searchbtn.firstChild.nodeValue = "Search"
			matchedtxt.classList.add("hide");
			matchedtxt.firstChild.nodeValue = ""
		}
	}
	function search(term) {
		if (term) currentSearchTerm = term;

		var re = new RegExp(currentSearchTerm, ignorecase ? 'i' : '');
		var el = document.getElementById("frames").children;
		var matches = new Object();
		var maxwidth = 0;
		for (var i = 0; i < el.length; i++) {
			var e = el[i];
			var func = g_to_func(e);
			var rect = find_child(e, "rect");
			if (func == null || rect == null)
				continue;

			// Save max width. Only works as we have a root frame
			var w = parseFloat(rect.attributes.width.value);
			if (w > maxwidth)
				maxwidth = w;

			if (func.match(re)) {
				// highlight
				var x = parseFloat(rect.attributes.x.value);
				orig_save(rect, "fill");
				rect.attributes.fill.value = "rgb(230,0,230)";

				// remember matches
				if (matches[x] == undefined) {
					matches[x] = w;
				} else {
					if (w > matches[x]) {
						// overwrite with parent
						matches[x] = w;
					}
				}
				searching = 1;
			}
		}
		if (!searching)
			return;
		var params = get_params();
		params.s = currentSearchTerm;
		history.replaceState(null, null, parse_params(params));

		searchbtn.classList.add("show");
		searchbtn.firstChild.nodeValue = "Reset Search";

		// calculate percent matched, excluding vertical overlap
		var count = 0;
		var lastx = -1;
		var lastw = 0;
		var keys = Array();
		for (k in matches) {
			if (matches.hasOwnProperty(k))
				keys.push(k);
		}
		// sort the matched frames by their x location
		// ascending, then width descending
		keys.sort(function(a, b){
			return a - b;
		});
		// Step through frames saving only the biggest bottom-up frames
		// thanks to the sort order. This relies on the tree property
		// where children are always smaller than their parents.
		var fudge = 0.0001;	// JavaScript floating point
		for (var k in keys) {
			var x = parseFloat(keys[k]);
			var w = matches[keys[k]];
			if (x >= lastx + lastw - fudge) {
				count += w;
				lastx = x;
				lastw = w;
			}
		}
		// display matched percent
		matchedtxt.classList.remove("hide");
		var pct = 100 * count / maxwidth;
		if (pct != 100) pct = pct.toFixed(1)
		matchedtxt.firstChild.nodeValue = "Matched: " + pct + "%";
	}
]]>
</script>
<rect x="0.0" y="0" width="1200.0" height="267.0" fill="url(#background)"  />
<text id="title" x="600.00" y="26" >Firedrake example</text>
<text id="details" x="10.00" y="249" > </text>
<text id="unzoom" x="10.00" y="26" class="hide">Reset Zoom</text>
<text id="search" x="1090.00" y="26" >Search</text>
<text id="ignorecase" x="1174.00" y="26" >ic</text>
<text id="matched" x="1090.00" y="249" > </text>
<g id="frames">
<g >
<title>firedrake.assemble_expressions.assemble_expression (731,177 us, 0.27%)</title><rect x="87.8" y="87" width="3.1" height="15.0" fill="rgb(0,0,0)" rx="2" ry="2" />
<text  x="90.78" y="97.5" ></text>
</g>
<g >
<title>pyop2.global_kernel.GlobalKernel.compile (1,765,867 us, 0.65%)</title><rect x="135.5" y="135" width="7.7" height="15.0" fill="rgb(0,0,0)" rx="2" ry="2" />
<text  x="138.53" y="145.5" ></text>
</g>
<g >
<title>HybridInit (46,813,030 us, 17.12%)</title><rect x="949.2" y="119" width="202.0" height="15.0" fill="rgb(0,0,0)" rx="2" ry="2" />
<text  x="952.23" y="129.5" >HybridInit</text>
</g>
<g >
<title>pyop2.global_kernel.GlobalKernel.compile (1,805,673 us, 0.66%)</title><rect x="33.9" y="119" width="7.8" height="15.0" fill="rgb(0,0,0)" rx="2" ry="2" />
<text  x="36.87" y="129.5" ></text>
</g>
<g >
<title>inv_getri (1,968,952 us, 0.72%)</title><rect x="965.4" y="199" width="8.5" height="15.0" fill="rgb(0,0,0)" rx="2" ry="2" />
<text  x="968.41" y="209.5" ></text>
</g>
<g >
<title>Parloop_Cells_wrap_form1_cell_integral_otherwise (3,601,993 us, 1.32%)</title><rect x="512.6" y="167" width="15.5" height="15.0" fill="rgb(0,0,0)" rx="2" ry="2" />
<text  x="515.57" y="177.5" ></text>
</g>
<g >
<title>Parloop_Cells_wrap_form0_exterior_facet_top_integral_otherwise (1,765,867 us, 0.65%)</title><rect x="135.5" y="119" width="7.7" height="15.0" fill="rgb(0,0,0)" rx="2" ry="2" />
<text  x="138.53" y="129.5" ></text>
</g>
<g >
<title>Parloop_set_#x7fd78ecec700_wrap_expression_kernel (376,090 us, 0.14%)</title><rect x="87.8" y="135" width="1.6" height="15.0" fill="rgb(0,0,0)" rx="2" ry="2" />
<text  x="90.78" y="145.5" ></text>
</g>
<g >
<title>pyop2.global_kernel.GlobalKernel.compile (4,969,498 us, 1.82%)</title><rect x="106.5" y="135" width="21.4" height="15.0" fill="rgb(0,0,0)" rx="2" ry="2" />
<text  x="109.47" y="145.5" ></text>
</g>
<g >
<title>ParLoopExecute (20,238,355 us, 7.40%)</title><rect x="106.5" y="103" width="87.3" height="15.0" fill="rgb(0,0,0)" rx="2" ry="2" />
<text  x="109.47" y="113.5" >ParLoopEx..</text>
</g>
<g >
<title>firedrake.assemble.assemble (11,152,739 us, 4.08%)</title><rect x="446.6" y="103" width="48.1" height="15.0" fill="rgb(0,0,0)" rx="2" ry="2" />
<text  x="449.60" y="113.5" >fire..</text>
</g>
<g >
<title>Log_Event_subkernel17_interior_facet_vert_to__exterior_facet_vert_integral_otherwise (206,222 us, 0.08%)</title><rect x="545.8" y="183" width="0.9" height="15.0" fill="rgb(0,0,0)" rx="2" ry="2" />
<text  x="548.81" y="193.5" ></text>
</g>
<g >
<title>firedrake.assemble_expressions.evaluate_expression (731,177 us, 0.27%)</title><rect x="87.8" y="103" width="3.1" height="15.0" fill="rgb(0,0,0)" rx="2" ry="2" />
<text  x="90.78" y="113.5" ></text>
</g>
<g >
<title>ParLoopExecute (731,177 us, 0.27%)</title><rect x="87.8" y="119" width="3.1" height="15.0" fill="rgb(0,0,0)" rx="2" ry="2" />
<text  x="90.78" y="129.5" ></text>
</g>
<g >
<title>Log_Event_subkernel6_cell_to__cell_integral_otherwise (588,701 us, 0.22%)</title><rect x="817.6" y="199" width="2.6" height="15.0" fill="rgb(0,0,0)" rx="2" ry="2" />
<text  x="820.65" y="209.5" ></text>
</g>
<g >
<title>ParLoopExecute (668,049 us, 0.24%)</title><rect x="1148.3" y="151" width="2.9" height="15.0" fill="rgb(0,0,0)" rx="2" ry="2" />
<text  x="1151.32" y="161.5" ></text>
</g>
<g >
<title>firedrake.matrix_free.operators.ImplicitMatrixContext.mult (9,097,328 us, 3.33%)</title><rect x="494.7" y="135" width="39.3" height="15.0" fill="rgb(0,0,0)" rx="2" ry="2" />
<text  x="497.72" y="145.5" >fir..</text>
</g>
<g >
<title>firedrake.tsfc_interface.compile_form (2,650,912 us, 0.97%)</title><rect x="794.0" y="151" width="11.5" height="15.0" fill="rgb(0,0,0)" rx="2" ry="2" />
<text  x="797.02" y="161.5" ></text>
</g>
<g >
<title>Log_Event_slate_loopy_knl_7 (2,338,943 us, 0.86%)</title><rect x="648.1" y="199" width="10.1" height="15.0" fill="rgb(0,0,0)" rx="2" ry="2" />
<text  x="651.09" y="209.5" ></text>
</g>
<g >
<title>Log_Event_subkernel2_cell_to__cell_integral_otherwise (580,651 us, 0.21%)</title><rect x="974.8" y="183" width="2.6" height="15.0" fill="rgb(0,0,0)" rx="2" ry="2" />
<text  x="977.85" y="193.5" ></text>
</g>
<g >
<title>Log_Event_subkernel11_cell_to__cell_integral_otherwise (96,433 us, 0.04%)</title><rect x="658.9" y="199" width="0.4" height="15.0" fill="rgb(0,0,0)" rx="2" ry="2" />
<text  x="661.89" y="209.5" ></text>
</g>
<g >
<title>SCSolve (719,841 us, 0.26%)</title><rect x="946.1" y="135" width="3.1" height="15.0" fill="rgb(0,0,0)" rx="2" ry="2" />
<text  x="949.13" y="145.5" ></text>
</g>
<g >
<title>Log_Event_form00_exterior_facet_vert_integral_otherwise (105,543 us, 0.04%)</title><rect x="304.2" y="151" width="0.5" height="15.0" fill="rgb(0,0,0)" rx="2" ry="2" />
<text  x="307.24" y="161.5" ></text>
</g>
<g >
<title>CreateSparsity (402,080 us, 0.15%)</title><rect x="1145.8" y="151" width="1.8" height="15.0" fill="rgb(0,0,0)" rx="2" ry="2" />
<text  x="1148.84" y="161.5" ></text>
</g>
<g >
<title>pyop2.global_kernel.GlobalKernel.compile (34,741,936 us, 12.70%)</title><rect x="978.1" y="183" width="149.9" height="15.0" fill="rgb(0,0,0)" rx="2" ry="2" />
<text  x="981.12" y="193.5" >pyop2.global_kern..</text>
</g>
<g >
<title>KSPSolve (105,349,881 us, 38.52%)</title><rect x="494.7" y="103" width="454.5" height="15.0" fill="rgb(0,0,0)" rx="2" ry="2" />
<text  x="497.72" y="113.5" >KSPSolve</text>
</g>
<g >
<title>inv_getrf (448,590 us, 0.16%)</title><rect x="963.5" y="199" width="1.9" height="15.0" fill="rgb(0,0,0)" rx="2" ry="2" />
<text  x="966.47" y="209.5" ></text>
</g>
<g >
<title>Parloop_Cells_wrap_form0_exterior_facet_bottom_integral_otherwise (1,766,691 us, 0.65%)</title><rect x="127.9" y="119" width="7.6" height="15.0" fill="rgb(0,0,0)" rx="2" ry="2" />
<text  x="130.91" y="129.5" ></text>
</g>
<g >
<title>pyop2.global_kernel.GlobalKernel.compile (27,010,480 us, 9.88%)</title><rect x="660.4" y="199" width="116.5" height="15.0" fill="rgb(0,0,0)" rx="2" ry="2" />
<text  x="663.40" y="209.5" >pyop2.global_..</text>
</g>
<g >
<title>Parloop_Cells_wrap_form00_exterior_facet_top_integral_otherwise (2,157,739 us, 0.79%)</title><rect x="283.6" y="135" width="9.3" height="15.0" fill="rgb(0,0,0)" rx="2" ry="2" />
<text  x="286.64" y="145.5" ></text>
</g>
<g >
<title>ParLoopExecute (29,949,239 us, 10.95%)</title><rect x="647.7" y="167" width="129.2" height="15.0" fill="rgb(0,0,0)" rx="2" ry="2" />
<text  x="650.72" y="177.5" >ParLoopExecute</text>
</g>
<g >
<title>Log_Event_slate_loopy_knl_0 (3,693,851 us, 1.35%)</title><rect x="958.0" y="183" width="15.9" height="15.0" fill="rgb(0,0,0)" rx="2" ry="2" />
<text  x="960.96" y="193.5" ></text>
</g>
<g >
<title>solve_getrf (507,626 us, 0.19%)</title><rect x="655.9" y="215" width="2.1" height="15.0" fill="rgb(0,0,0)" rx="2" ry="2" />
<text  x="658.86" y="225.5" ></text>
</g>
<g >
<title>Log_Event_slate_loopy_knl_4 (496,881 us, 0.18%)</title><rect x="814.5" y="199" width="2.2" height="15.0" fill="rgb(0,0,0)" rx="2" ry="2" />
<text  x="817.51" y="209.5" ></text>
</g>
<g >
<title>firedrake.tsfc_interface.compile_form (4,133,258 us, 1.51%)</title><rect x="1128.0" y="151" width="17.8" height="15.0" fill="rgb(0,0,0)" rx="2" ry="2" />
<text  x="1131.00" y="161.5" ></text>
</g>
<g >
<title>Parloop_ExtFacets_wrap_form0_exterior_facet_vert_integral_otherwise (4,259,025 us, 1.56%)</title><rect x="155.3" y="119" width="18.3" height="15.0" fill="rgb(0,0,0)" rx="2" ry="2" />
<text  x="158.27" y="129.5" ></text>
</g>
<g >
<title>KSPSolve (208,591 us, 0.08%)</title><rect x="417.1" y="151" width="0.9" height="15.0" fill="rgb(0,0,0)" rx="2" ry="2" />
<text  x="420.14" y="161.5" ></text>
</g>
<g >
<title>Parloop_Cells_wrap_form_cell_integral_otherwise (9,649,464 us, 3.53%)</title><rect x="446.6" y="135" width="41.6" height="15.0" fill="rgb(0,0,0)" rx="2" ry="2" />
<text  x="449.60" y="145.5" >Par..</text>
</g>
<g >
<title>firedrake.tsfc_interface.compile_form (1,357,509 us, 0.50%)</title><rect x="528.1" y="151" width="5.9" height="15.0" fill="rgb(0,0,0)" rx="2" ry="2" />
<text  x="531.11" y="161.5" ></text>
</g>
<g >
<title>pyop2.global_kernel.GlobalKernel.compile (4,337,210 us, 1.59%)</title><rect x="69.1" y="119" width="18.7" height="15.0" fill="rgb(0,0,0)" rx="2" ry="2" />
<text  x="72.07" y="129.5" ></text>
</g>
<g >
<title>Parloop_ExtFacets_wrap_form_exterior_facet_vert_integral_otherwise (4,295,390 us, 1.57%)</title><rect x="50.5" y="103" width="18.6" height="15.0" fill="rgb(0,0,0)" rx="2" ry="2" />
<text  x="53.53" y="113.5" ></text>
</g>
<g >
<title>ParLoopExecute (39,620,121 us, 14.49%)</title><rect x="957.1" y="151" width="170.9" height="15.0" fill="rgb(0,0,0)" rx="2" ry="2" />
<text  x="960.07" y="161.5" >ParLoopExecute</text>
</g>
<g >
<title>PCSetUp (46,813,030 us, 17.12%)</title><rect x="949.2" y="103" width="202.0" height="15.0" fill="rgb(0,0,0)" rx="2" ry="2" />
<text  x="952.23" y="113.5" >PCSetUp</text>
</g>
<g >
<title>pyop2.global_kernel.GlobalKernel.compile (4,295,390 us, 1.57%)</title><rect x="50.5" y="119" width="18.6" height="15.0" fill="rgb(0,0,0)" rx="2" ry="2" />
<text  x="53.53" y="129.5" ></text>
</g>
<g >
<title>pyop2.global_kernel.GlobalKernel.compile (2,055,865 us, 0.75%)</title><rect x="41.7" y="119" width="8.8" height="15.0" fill="rgb(0,0,0)" rx="2" ry="2" />
<text  x="44.66" y="129.5" ></text>
</g>
<g >
<title>inv_getrf (245,960 us, 0.09%)</title><rect x="650.6" y="215" width="1.0" height="15.0" fill="rgb(0,0,0)" rx="2" ry="2" />
<text  x="653.56" y="225.5" ></text>
</g>
<g >
<title>Parloop_Cells_wrap_form00_interior_facet_horiz_integral_otherwise (2,616,176 us, 0.96%)</title><rect x="292.9" y="135" width="11.3" height="15.0" fill="rgb(0,0,0)" rx="2" ry="2" />
<text  x="295.95" y="145.5" ></text>
</g>
<g >
<title>Parloop_set_#x7fd78ed45a80_wrap_expression_kernel (355,087 us, 0.13%)</title><rect x="89.4" y="135" width="1.5" height="15.0" fill="rgb(0,0,0)" rx="2" ry="2" />
<text  x="92.40" y="145.5" ></text>
</g>
<g >
<title>MatCholFctrNum (3,028,676 us, 1.11%)</title><rect x="418.0" y="151" width="13.1" height="15.0" fill="rgb(0,0,0)" rx="2" ry="2" />
<text  x="421.04" y="161.5" ></text>
</g>
<g >
<title>pyop2.global_kernel.GlobalKernel.compile (887,775 us, 0.32%)</title><rect x="15.9" y="135" width="3.8" height="15.0" fill="rgb(0,0,0)" rx="2" ry="2" />
<text  x="18.88" y="145.5" ></text>
</g>
<g >
<title>MatZeroInitial (3,288,791 us, 1.20%)</title><rect x="386.4" y="135" width="14.2" height="15.0" fill="rgb(0,0,0)" rx="2" ry="2" />
<text  x="389.43" y="145.5" ></text>
</g>
<g >
<title>solve_getrf (248,012 us, 0.09%)</title><rect x="543.6" y="199" width="1.1" height="15.0" fill="rgb(0,0,0)" rx="2" ry="2" />
<text  x="546.61" y="209.5" ></text>
</g>
<g >
<title>Log_Event_slate_loopy_knl_14 (281,428 us, 0.10%)</title><rect x="543.5" y="183" width="1.2" height="15.0" fill="rgb(0,0,0)" rx="2" ry="2" />
<text  x="546.46" y="193.5" ></text>
</g>
<g >
<title>Parloop_Cells_wrap_form00_exterior_facet_bottom_integral_otherwise (2,424,408 us, 0.89%)</title><rect x="273.2" y="135" width="10.4" height="15.0" fill="rgb(0,0,0)" rx="2" ry="2" />
<text  x="276.18" y="145.5" ></text>
</g>
<g >
<title>Parloop_IntFacets_wrap_form00_interior_facet_vert_integral_otherwise (5,713,456 us, 2.09%)</title><rect x="329.1" y="135" width="24.6" height="15.0" fill="rgb(0,0,0)" rx="2" ry="2" />
<text  x="332.06" y="145.5" >P..</text>
</g>
<g >
<title>HybridRHS (31,761,861 us, 11.61%)</title><rect x="809.1" y="151" width="137.0" height="15.0" fill="rgb(0,0,0)" rx="2" ry="2" />
<text  x="812.10" y="161.5" >HybridRHS</text>
</g>
<g >
<title>Log_Event_subkernel10_cell_to__cell_integral_otherwise (164,787 us, 0.06%)</title><rect x="658.2" y="199" width="0.7" height="15.0" fill="rgb(0,0,0)" rx="2" ry="2" />
<text  x="661.18" y="209.5" ></text>
</g>
<g >
<title>firedrake.parloops.par_loop (900,449 us, 0.33%)</title><rect x="539.2" y="167" width="3.9" height="15.0" fill="rgb(0,0,0)" rx="2" ry="2" />
<text  x="542.21" y="177.5" ></text>
</g>
<g >
<title>MatMult (140,710 us, 0.05%)</title><rect x="416.5" y="135" width="0.6" height="15.0" fill="rgb(0,0,0)" rx="2" ry="2" />
<text  x="419.53" y="145.5" ></text>
</g>
<g >
<title>SNESSolve (161,155,892 us, 58.92%)</title><rect x="494.7" y="87" width="695.3" height="15.0" fill="rgb(0,0,0)" rx="2" ry="2" />
<text  x="497.72" y="97.5" >SNESSolve</text>
</g>
<g >
<title>ParLoopExecute (7,720,992 us, 2.82%)</title><rect x="1151.2" y="119" width="33.3" height="15.0" fill="rgb(0,0,0)" rx="2" ry="2" />
<text  x="1154.20" y="129.5" >Pa..</text>
</g>
<g >
<title>firedrake (273,506,710 us, 100.00%)</title><rect x="10.0" y="55" width="1180.0" height="15.0" fill="rgb(0,0,0)" rx="2" ry="2" />
<text  x="13.00" y="65.5" >firedrake</text>
</g>
<g >
<title>pyop2.global_kernel.GlobalKernel.compile (2,157,739 us, 0.79%)</title><rect x="283.6" y="151" width="9.3" height="15.0" fill="rgb(0,0,0)" rx="2" ry="2" />
<text  x="286.64" y="161.5" ></text>
</g>
<g >
<title>pyop2.global_kernel.GlobalKernel.compile (355,087 us, 0.13%)</title><rect x="89.4" y="151" width="1.5" height="15.0" fill="rgb(0,0,0)" rx="2" ry="2" />
<text  x="92.40" y="161.5" ></text>
</g>
<g >
<title>MatAssemblyEnd (44,679 us, 0.02%)</title><rect x="386.2" y="135" width="0.2" height="15.0" fill="rgb(0,0,0)" rx="2" ry="2" />
<text  x="389.24" y="145.5" ></text>
</g>
<g >
<title>Log_Event_subkernel9_cell_to__cell_integral_otherwise (45,900 us, 0.02%)</title><rect x="660.2" y="199" width="0.2" height="15.0" fill="rgb(0,0,0)" rx="2" ry="2" />
<text  x="663.20" y="209.5" ></text>
</g>
<g >
<title>ParLoopExecute (7,739,819 us, 2.83%)</title><rect x="494.7" y="151" width="33.4" height="15.0" fill="rgb(0,0,0)" rx="2" ry="2" />
<text  x="497.72" y="161.5" >Pa..</text>
</g>
<g >
<title>CreateExtMesh (919,440 us, 0.34%)</title><rect x="15.7" y="71" width="4.0" height="15.0" fill="rgb(0,0,0)" rx="2" ry="2" />
<text  x="18.75" y="81.5" ></text>
</g>
<g >
<title>Log_Event_form00_interior_facet_vert_integral_otherwise (290,091 us, 0.11%)</title><rect x="329.7" y="151" width="1.2" height="15.0" fill="rgb(0,0,0)" rx="2" ry="2" />
<text  x="332.69" y="161.5" ></text>
</g>
<g >
<title>PCSetUp (3,077,980 us, 1.13%)</title><rect x="418.0" y="135" width="13.3" height="15.0" fill="rgb(0,0,0)" rx="2" ry="2" />
<text  x="421.04" y="145.5" ></text>
</g>
<g >
<title>Log_Event_form00_interior_facet_horiz_integral_otherwise (68,573 us, 0.03%)</title><rect x="293.3" y="151" width="0.3" height="15.0" fill="rgb(0,0,0)" rx="2" ry="2" />
<text  x="296.29" y="161.5" ></text>
</g>
<g >
<title>solve_memcpy (30,587 us, 0.01%)</title><rect x="658.0" y="215" width="0.2" height="15.0" fill="rgb(0,0,0)" rx="2" ry="2" />
<text  x="661.05" y="225.5" ></text>
</g>
<g >
<title>all (273,506,710 us, 100%)</title><rect x="10.0" y="39" width="1180.0" height="15.0" fill="rgb(0,0,0)" rx="2" ry="2" />
<text  x="13.00" y="49.5" ></text>
</g>
<g >
<title>pyop2.global_kernel.GlobalKernel.compile (376,090 us, 0.14%)</title><rect x="87.8" y="151" width="1.6" height="15.0" fill="rgb(0,0,0)" rx="2" ry="2" />
<text  x="90.78" y="161.5" ></text>
</g>
<g >
<title>CreateSparsity (7,538,950 us, 2.76%)</title><rect x="353.7" y="135" width="32.5" height="15.0" fill="rgb(0,0,0)" rx="2" ry="2" />
<text  x="356.71" y="145.5" >Cr..</text>
</g>
<g >
<title>pyop2.global_kernel.GlobalKernel.compile (4,034,931 us, 1.48%)</title><rect x="1151.4" y="151" width="17.4" height="15.0" fill="rgb(0,0,0)" rx="2" ry="2" />
<text  x="1154.36" y="161.5" ></text>
</g>
<g >
<title>MatSolve (208,591 us, 0.08%)</title><rect x="417.1" y="183" width="0.9" height="15.0" fill="rgb(0,0,0)" rx="2" ry="2" />
<text  x="420.14" y="193.5" ></text>
</g>
<g >
<title>Parloop_Cells_wrap_form0_cell_integral_otherwise (4,072,484 us, 1.49%)</title><rect x="1151.2" y="135" width="17.6" height="15.0" fill="rgb(0,0,0)" rx="2" ry="2" />
<text  x="1154.20" y="145.5" ></text>
</g>
<g >
<title>firedrake.norms.errornorm (11,152,739 us, 4.08%)</title><rect x="446.6" y="71" width="48.1" height="15.0" fill="rgb(0,0,0)" rx="2" ry="2" />
<text  x="449.60" y="81.5" >fire..</text>
</g>
<g >
<title>pyop2.global_kernel.GlobalKernel.compile (5,648,944 us, 2.07%)</title><rect x="304.7" y="151" width="24.4" height="15.0" fill="rgb(0,0,0)" rx="2" ry="2" />
<text  x="307.69" y="161.5" >p..</text>
</g>
<g >
<title>PCSetUpOnBlocks (3,077,980 us, 1.13%)</title><rect x="418.0" y="119" width="13.3" height="15.0" fill="rgb(0,0,0)" rx="2" ry="2" />
<text  x="421.04" y="129.5" ></text>
</g>
<g >
<title>firedrake.assemble.assemble (18,573,911 us, 6.79%)</title><rect x="26.3" y="71" width="80.2" height="15.0" fill="rgb(0,0,0)" rx="2" ry="2" />
<text  x="29.34" y="81.5" >firedrak..</text>
</g>
<g >
<title>HybridOperatorAssembly (45,515,365 us, 16.64%)</title><rect x="949.5" y="135" width="196.3" height="15.0" fill="rgb(0,0,0)" rx="2" ry="2" />
<text  x="952.47" y="145.5" >HybridOperatorAssembly</text>
</g>
<g >
<title>pyop2.global_kernel.GlobalKernel.compile (21,868,813 us, 8.00%)</title><rect x="546.7" y="183" width="94.3" height="15.0" fill="rgb(0,0,0)" rx="2" ry="2" />
<text  x="549.70" y="193.5" >pyop2.glob..</text>
</g>
<g >
<title>MatMult (690,497 us, 0.25%)</title><rect x="946.3" y="167" width="2.9" height="15.0" fill="rgb(0,0,0)" rx="2" ry="2" />
<text  x="949.26" y="177.5" ></text>
</g>
<g >
<title>pyop2.global_kernel.GlobalKernel.compile (4,137,826 us, 1.51%)</title><rect x="494.7" y="183" width="17.9" height="15.0" fill="rgb(0,0,0)" rx="2" ry="2" />
<text  x="497.72" y="193.5" ></text>
</g>
<g >
<title>pyop2.global_kernel.GlobalKernel.compile (3,648,508 us, 1.33%)</title><rect x="1168.8" y="151" width="15.7" height="15.0" fill="rgb(0,0,0)" rx="2" ry="2" />
<text  x="1171.77" y="161.5" ></text>
</g>
<g >
<title>MatMult (9,097,328 us, 3.33%)</title><rect x="494.7" y="119" width="39.3" height="15.0" fill="rgb(0,0,0)" rx="2" ry="2" />
<text  x="497.72" y="129.5" >Mat..</text>
</g>
<g >
<title>pyop2.global_kernel.GlobalKernel.compile (842,763 us, 0.31%)</title><rect x="805.5" y="215" width="3.6" height="15.0" fill="rgb(0,0,0)" rx="2" ry="2" />
<text  x="808.46" y="225.5" ></text>
</g>
<g >
<title>HybridProject (900,449 us, 0.33%)</title><rect x="539.2" y="151" width="3.9" height="15.0" fill="rgb(0,0,0)" rx="2" ry="2" />
<text  x="542.21" y="161.5" ></text>
</g>
<g >
<title>SNESFunctionEval (8,992,981 us, 3.29%)</title><rect x="1151.2" y="103" width="38.8" height="15.0" fill="rgb(0,0,0)" rx="2" ry="2" />
<text  x="1154.20" y="113.5" >SNE..</text>
</g>
<g >
<title>pyop2.global_kernel.GlobalKernel.compile (2,809,274 us, 1.03%)</title><rect x="143.2" y="135" width="12.1" height="15.0" fill="rgb(0,0,0)" rx="2" ry="2" />
<text  x="146.15" y="145.5" ></text>
</g>
<g >
<title>firedrake.interpolation.make_interpolator (34,938 us, 0.01%)</title><rect x="1148.2" y="135" width="0.1" height="15.0" fill="rgb(0,0,0)" rx="2" ry="2" />
<text  x="1151.17" y="145.5" ></text>
</g>
<g >
<title>inv_getri (982,020 us, 0.36%)</title><rect x="651.6" y="215" width="4.3" height="15.0" fill="rgb(0,0,0)" rx="2" ry="2" />
<text  x="654.62" y="225.5" ></text>
</g>
<g >
<title>Log_Event_subkernel1_interior_facet_vert_to__exterior_facet_vert_integral_otherwise (219,730 us, 0.08%)</title><rect x="973.9" y="183" width="0.9" height="15.0" fill="rgb(0,0,0)" rx="2" ry="2" />
<text  x="976.90" y="193.5" ></text>
</g>
<g >
<title>firedrake.assemble.allocate_matrix (10,872,420 us, 3.98%)</title><rect x="353.7" y="119" width="46.9" height="15.0" fill="rgb(0,0,0)" rx="2" ry="2" />
<text  x="356.71" y="129.5" >fire..</text>
</g>
<g >
<title>Log_Event_form00_cell_integral_otherwise (225,747 us, 0.08%)</title><rect x="195.5" y="151" width="1.0" height="15.0" fill="rgb(0,0,0)" rx="2" ry="2" />
<text  x="198.54" y="161.5" ></text>
</g>
<g >
<title>firedrake.variational_solver.NonlinearVariationalSolver.solve (161,155,892 us, 58.92%)</title><rect x="494.7" y="71" width="695.3" height="15.0" fill="rgb(0,0,0)" rx="2" ry="2" />
<text  x="497.72" y="81.5" >firedrake.variational_solver.NonlinearVariationalSolver.solve</text>
</g>
<g >
<title>ParLoopExecute (842,763 us, 0.31%)</title><rect x="805.5" y="183" width="3.6" height="15.0" fill="rgb(0,0,0)" rx="2" ry="2" />
<text  x="808.46" y="193.5" ></text>
</g>
<g >
<title>firedrake.tsfc_interface.compile_form (3,601,681 us, 1.32%)</title><rect x="90.9" y="87" width="15.6" height="15.0" fill="rgb(0,0,0)" rx="2" ry="2" />
<text  x="93.93" y="97.5" ></text>
</g>
<g >
<title>Parloop_Cells_wrap_wrap_slate_loopy_knl_7 (29,949,239 us, 10.95%)</title><rect x="647.7" y="183" width="129.2" height="15.0" fill="rgb(0,0,0)" rx="2" ry="2" />
<text  x="650.72" y="193.5" >Parloop_Cells_..</text>
</g>
<g >
<title>Parloop_Cells_wrap_form1_cell_integral_otherwise (3,648,508 us, 1.33%)</title><rect x="1168.8" y="135" width="15.7" height="15.0" fill="rgb(0,0,0)" rx="2" ry="2" />
<text  x="1171.77" y="145.5" ></text>
</g>
<g >
<title>Parloop_IntFacets_wrap_form0_interior_facet_vert_integral_otherwise (4,668,000 us, 1.71%)</title><rect x="173.6" y="119" width="20.2" height="15.0" fill="rgb(0,0,0)" rx="2" ry="2" />
<text  x="176.65" y="129.5" ></text>
</g>
<g >
<title>pyop2.global_kernel.GlobalKernel.compile (17,768,902 us, 6.50%)</title><rect x="196.5" y="151" width="76.7" height="15.0" fill="rgb(0,0,0)" rx="2" ry="2" />
<text  x="199.52" y="161.5" >pyop2.g..</text>
</g>
<g >
<title>pyop2.global_kernel.GlobalKernel.compile (3,601,993 us, 1.32%)</title><rect x="512.6" y="183" width="15.5" height="15.0" fill="rgb(0,0,0)" rx="2" ry="2" />
<text  x="515.57" y="193.5" ></text>
</g>
<g >
<title>Log_Event_subkernel5_interior_facet_vert_to__exterior_facet_vert_integral_otherwise (230,397 us, 0.08%)</title><rect x="816.7" y="199" width="0.9" height="15.0" fill="rgb(0,0,0)" rx="2" ry="2" />
<text  x="819.65" y="209.5" ></text>
</g>
<g >
<title>pyop2.global_kernel.GlobalKernel.compile (5,278,095 us, 1.93%)</title><rect x="330.9" y="151" width="22.8" height="15.0" fill="rgb(0,0,0)" rx="2" ry="2" />
<text  x="333.94" y="161.5" ></text>
</g>
<g >
<title>firedrake.assemble.assemble (51,628,403 us, 18.88%)</title><rect x="193.8" y="103" width="222.7" height="15.0" fill="rgb(0,0,0)" rx="2" ry="2" />
<text  x="196.79" y="113.5" >firedrake.assemble.assemble</text>
</g>
<g >
<title>pyop2.global_kernel.GlobalKernel.compile (668,049 us, 0.24%)</title><rect x="1148.3" y="183" width="2.9" height="15.0" fill="rgb(0,0,0)" rx="2" ry="2" />
<text  x="1151.32" y="193.5" ></text>
</g>
<g >
<title>firedrake.linear_solver.LinearSolver.solve (3,427,281 us, 1.25%)</title><rect x="416.5" y="103" width="14.8" height="15.0" fill="rgb(0,0,0)" rx="2" ry="2" />
<text  x="419.53" y="113.5" ></text>
</g>
<g >
<title>ParLoopExecute (27,956,677 us, 10.22%)</title><rect x="814.2" y="167" width="120.6" height="15.0" fill="rgb(0,0,0)" rx="2" ry="2" />
<text  x="817.20" y="177.5" >ParLoopExecute</text>
</g>
<g >
<title>ParLoopExecute (900,449 us, 0.33%)</title><rect x="539.2" y="183" width="3.9" height="15.0" fill="rgb(0,0,0)" rx="2" ry="2" />
<text  x="542.21" y="193.5" ></text>
</g>
<g >
<title>firedrake.extrusion_utils.make_extruded_coords (919,440 us, 0.34%)</title><rect x="15.7" y="87" width="4.0" height="15.0" fill="rgb(0,0,0)" rx="2" ry="2" />
<text  x="18.75" y="97.5" ></text>
</g>
<g >
<title>firedrake.tsfc_interface.compile_form (3,687,559 us, 1.35%)</title><rect x="400.6" y="119" width="15.9" height="15.0" fill="rgb(0,0,0)" rx="2" ry="2" />
<text  x="403.62" y="129.5" ></text>
</g>
<g >
<title>pyop2.global_kernel.GlobalKernel.compile (4,668,000 us, 1.71%)</title><rect x="173.6" y="135" width="20.2" height="15.0" fill="rgb(0,0,0)" rx="2" ry="2" />
<text  x="176.65" y="145.5" ></text>
</g>
<g >
<title>RecoverFirstElim (35,457,459 us, 12.96%)</title><rect x="641.0" y="151" width="153.0" height="15.0" fill="rgb(0,0,0)" rx="2" ry="2" />
<text  x="644.05" y="161.5" >RecoverFirstElim</text>
</g>
<g >
<title>firedrake.__init__ (1,535,556 us, 0.56%)</title><rect x="19.7" y="71" width="6.6" height="15.0" fill="rgb(0,0,0)" rx="2" ry="2" />
<text  x="22.71" y="81.5" ></text>
</g>
<g >
<title>Parloop_Cells_wrap_form0_cell_integral_otherwise (4,969,498 us, 1.82%)</title><rect x="106.5" y="119" width="21.4" height="15.0" fill="rgb(0,0,0)" rx="2" ry="2" />
<text  x="109.47" y="129.5" ></text>
</g>
<g >
<title>Parloop_Cells_wrap_form0_cell_integral_otherwise (4,137,826 us, 1.51%)</title><rect x="494.7" y="167" width="17.9" height="15.0" fill="rgb(0,0,0)" rx="2" ry="2" />
<text  x="497.72" y="177.5" ></text>
</g>
<g >
<title>MatZeroInitial (138,423 us, 0.05%)</title><rect x="1147.6" y="151" width="0.6" height="15.0" fill="rgb(0,0,0)" rx="2" ry="2" />
<text  x="1150.57" y="161.5" ></text>
</g>
<g >
<title>ParLoopExecute (14,241,053 us, 5.21%)</title><rect x="26.3" y="87" width="61.5" height="15.0" fill="rgb(0,0,0)" rx="2" ry="2" />
<text  x="29.34" y="97.5" >ParLoo..</text>
</g>
<g >
<title>pyop2.global_kernel.GlobalKernel.compile (900,449 us, 0.33%)</title><rect x="539.2" y="215" width="3.9" height="15.0" fill="rgb(0,0,0)" rx="2" ry="2" />
<text  x="542.21" y="225.5" ></text>
</g>
<g >
<title>SCForwardElim (32,604,624 us, 11.92%)</title><rect x="805.5" y="135" width="140.6" height="15.0" fill="rgb(0,0,0)" rx="2" ry="2" />
<text  x="808.46" y="145.5" >SCForwardElim</text>
</g>
<g >
<title>PCApply (208,591 us, 0.08%)</title><rect x="417.1" y="167" width="0.9" height="15.0" fill="rgb(0,0,0)" rx="2" ry="2" />
<text  x="420.14" y="177.5" ></text>
</g>
<g >
<title>Log_Event_subkernel15_cell_to__cell_integral_otherwise (165,804 us, 0.06%)</title><rect x="544.7" y="183" width="0.7" height="15.0" fill="rgb(0,0,0)" rx="2" ry="2" />
<text  x="547.68" y="193.5" ></text>
</g>
<g >
<title>PCApply (96,252,553 us, 35.19%)</title><rect x="534.0" y="119" width="415.2" height="15.0" fill="rgb(0,0,0)" rx="2" ry="2" />
<text  x="536.97" y="129.5" >PCApply</text>
</g>
<g >
<title>Log_Event_subkernel3_interior_facet_vert_to__exterior_facet_vert_integral_otherwise (176,582 us, 0.06%)</title><rect x="977.4" y="183" width="0.7" height="15.0" fill="rgb(0,0,0)" rx="2" ry="2" />
<text  x="980.35" y="193.5" ></text>
</g>
<g >
<title>Parloop_Cells_wrap_wrap_slate_loopy_knl_14 (22,703,760 us, 8.30%)</title><rect x="543.1" y="167" width="97.9" height="15.0" fill="rgb(0,0,0)" rx="2" ry="2" />
<text  x="546.10" y="177.5" >Parloop_Ce..</text>
</g>
<g >
<title>SCBackSub (62,928,088 us, 23.01%)</title><rect x="534.0" y="135" width="271.5" height="15.0" fill="rgb(0,0,0)" rx="2" ry="2" />
<text  x="536.97" y="145.5" >SCBackSub</text>
</g>
<g >
<title>Parloop_Cells_wrap_wrap_slate_loopy_knl_0 (39,620,121 us, 14.49%)</title><rect x="957.1" y="167" width="170.9" height="15.0" fill="rgb(0,0,0)" rx="2" ry="2" />
<text  x="960.07" y="177.5" >Parloop_Cells_wrap_w..</text>
</g>
<g >
<title>Parloop_Cells_wrap_pyop2_kernel_uniform_extrusion (887,775 us, 0.32%)</title><rect x="15.9" y="119" width="3.8" height="15.0" fill="rgb(0,0,0)" rx="2" ry="2" />
<text  x="18.88" y="129.5" ></text>
</g>
<g >
<title>firedrake.parloops.par_loop (842,763 us, 0.31%)</title><rect x="805.5" y="167" width="3.6" height="15.0" fill="rgb(0,0,0)" rx="2" ry="2" />
<text  x="808.46" y="177.5" ></text>
</g>
<g >
<title>Parloop_Cells_wrap_par_loop_kernel (842,763 us, 0.31%)</title><rect x="805.5" y="199" width="3.6" height="15.0" fill="rgb(0,0,0)" rx="2" ry="2" />
<text  x="808.46" y="209.5" ></text>
</g>
<g >
<title>solve_getrf (449,253 us, 0.16%)</title><rect x="814.7" y="215" width="2.0" height="15.0" fill="rgb(0,0,0)" rx="2" ry="2" />
<text  x="817.72" y="225.5" ></text>
</g>
<g >
<title>firedrake.tsfc_interface.compile_form (2,622,185 us, 0.96%)</title><rect x="934.8" y="167" width="11.3" height="15.0" fill="rgb(0,0,0)" rx="2" ry="2" />
<text  x="937.82" y="177.5" ></text>
</g>
<g >
<title>Parloop_Cells_wrap_form_exterior_facet_top_integral_otherwise (1,805,673 us, 0.66%)</title><rect x="33.9" y="103" width="7.8" height="15.0" fill="rgb(0,0,0)" rx="2" ry="2" />
<text  x="36.87" y="113.5" ></text>
</g>
<g >
<title>Log_Event_subkernel16_cell_to__cell_integral_otherwise (96,623 us, 0.04%)</title><rect x="545.4" y="183" width="0.4" height="15.0" fill="rgb(0,0,0)" rx="2" ry="2" />
<text  x="548.39" y="193.5" ></text>
</g>
<g >
<title>firedrake.parloops.par_loop (668,049 us, 0.24%)</title><rect x="1148.3" y="135" width="2.9" height="15.0" fill="rgb(0,0,0)" rx="2" ry="2" />
<text  x="1151.32" y="145.5" ></text>
</g>
<g >
<title>pyop2.global_kernel.GlobalKernel.compile (26,569,138 us, 9.71%)</title><rect x="820.2" y="199" width="114.6" height="15.0" fill="rgb(0,0,0)" rx="2" ry="2" />
<text  x="823.19" y="209.5" >pyop2.global..</text>
</g>
<g >
<title>pyop2.global_kernel.GlobalKernel.compile (2,424,408 us, 0.89%)</title><rect x="273.2" y="151" width="10.4" height="15.0" fill="rgb(0,0,0)" rx="2" ry="2" />
<text  x="276.18" y="161.5" ></text>
</g>
<g >
<title>Parloop_Cells_wrap_form0_interior_facet_horiz_integral_otherwise (2,809,274 us, 1.03%)</title><rect x="143.2" y="119" width="12.1" height="15.0" fill="rgb(0,0,0)" rx="2" ry="2" />
<text  x="146.15" y="129.5" ></text>
</g>
<g >
<title>Parloop_Cells_wrap_form_interior_facet_horiz_integral_otherwise (2,055,865 us, 0.75%)</title><rect x="41.7" y="103" width="8.8" height="15.0" fill="rgb(0,0,0)" rx="2" ry="2" />
<text  x="44.66" y="113.5" ></text>
</g>
<g >
<title>Log_Event_form0_cell_integral_otherwise (37,553 us, 0.01%)</title><rect x="1151.2" y="151" width="0.2" height="15.0" fill="rgb(0,0,0)" rx="2" ry="2" />
<text  x="1154.20" y="161.5" ></text>
</g>
<g >
<title>pyop2.global_kernel.GlobalKernel.compile (1,766,691 us, 0.65%)</title><rect x="127.9" y="135" width="7.6" height="15.0" fill="rgb(0,0,0)" rx="2" ry="2" />
<text  x="130.91" y="145.5" ></text>
</g>
<g >
<title>ParLoopExecute (37,068,424 us, 13.55%)</title><rect x="193.8" y="119" width="159.9" height="15.0" fill="rgb(0,0,0)" rx="2" ry="2" />
<text  x="196.79" y="129.5" >ParLoopExecute</text>
</g>
<g >
<title>firedrake.assemble.allocate_matrix (540,503 us, 0.20%)</title><rect x="1145.8" y="135" width="2.4" height="15.0" fill="rgb(0,0,0)" rx="2" ry="2" />
<text  x="1148.84" y="145.5" ></text>
</g>
<g >
<title>Parloop_IntFacets_wrap_form_interior_facet_vert_integral_otherwise (4,337,210 us, 1.59%)</title><rect x="69.1" y="103" width="18.7" height="15.0" fill="rgb(0,0,0)" rx="2" ry="2" />
<text  x="72.07" y="113.5" ></text>
</g>
<g >
<title>Parloop_Cells_wrap_par_loop_kernel (900,449 us, 0.33%)</title><rect x="539.2" y="199" width="3.9" height="15.0" fill="rgb(0,0,0)" rx="2" ry="2" />
<text  x="542.21" y="209.5" ></text>
</g>
<g >
<title>firedrake.tsfc_interface.compile_form (3,543,385 us, 1.30%)</title><rect x="431.3" y="103" width="15.3" height="15.0" fill="rgb(0,0,0)" rx="2" ry="2" />
<text  x="434.32" y="113.5" ></text>
</g>
<g >
<title>firedrake.tsfc_interface.compile_form (3,962,806 us, 1.45%)</title><rect x="776.9" y="167" width="17.1" height="15.0" fill="rgb(0,0,0)" rx="2" ry="2" />
<text  x="779.93" y="177.5" ></text>
</g>
<g >
<title>ParLoopExecute (9,649,464 us, 3.53%)</title><rect x="446.6" y="119" width="41.6" height="15.0" fill="rgb(0,0,0)" rx="2" ry="2" />
<text  x="449.60" y="129.5" >Par..</text>
</g>
<g >
<title>HybridBreak (842,763 us, 0.31%)</title><rect x="805.5" y="151" width="3.6" height="15.0" fill="rgb(0,0,0)" rx="2" ry="2" />
<text  x="808.46" y="161.5" ></text>
</g>
<g >
<title>pyop2.global_kernel.GlobalKernel.compile (2,468,726 us, 0.90%)</title><rect x="293.6" y="151" width="10.6" height="15.0" fill="rgb(0,0,0)" rx="2" ry="2" />
<text  x="296.58" y="161.5" ></text>
</g>
<g >
<title>Parloop_ExtFacets_wrap_form00_exterior_facet_vert_integral_otherwise (5,754,487 us, 2.10%)</title><rect x="304.2" y="135" width="24.9" height="15.0" fill="rgb(0,0,0)" rx="2" ry="2" />
<text  x="307.24" y="145.5" >P..</text>
</g>
<g >
<title>MatICCFactorSym (49,304 us, 0.02%)</title><rect x="431.1" y="151" width="0.2" height="15.0" fill="rgb(0,0,0)" rx="2" ry="2" />
<text  x="434.10" y="161.5" ></text>
</g>
<g >
<title>ParLoopExecute (22,703,760 us, 8.30%)</title><rect x="543.1" y="151" width="97.9" height="15.0" fill="rgb(0,0,0)" rx="2" ry="2" />
<text  x="546.10" y="161.5" >ParLoopExe..</text>
</g>
<g >
<title>ParLoopExecute (887,775 us, 0.32%)</title><rect x="15.9" y="103" width="3.8" height="15.0" fill="rgb(0,0,0)" rx="2" ry="2" />
<text  x="18.88" y="113.5" ></text>
</g>
<g >
<title>firedrake.tsfc_interface.compile_form (1,271,989 us, 0.47%)</title><rect x="1184.5" y="119" width="5.5" height="15.0" fill="rgb(0,0,0)" rx="2" ry="2" />
<text  x="1187.51" y="129.5" ></text>
</g>
<g >
<title>firedrake.tsfc_interface.compile_form (1,503,275 us, 0.55%)</title><rect x="488.2" y="119" width="6.5" height="15.0" fill="rgb(0,0,0)" rx="2" ry="2" />
<text  x="491.23" y="129.5" ></text>
</g>
<g >
<title>Parloop_Cells_wrap_wrap_slate_loopy_knl_4 (27,956,677 us, 10.22%)</title><rect x="814.2" y="183" width="120.6" height="15.0" fill="rgb(0,0,0)" rx="2" ry="2" />
<text  x="817.20" y="193.5" >Parloop_Cells..</text>
</g>
<g >
<title>firedrake.function.Function.project (78,837,424 us, 28.82%)</title><rect x="106.5" y="71" width="340.1" height="15.0" fill="rgb(0,0,0)" rx="2" ry="2" />
<text  x="109.47" y="81.5" >firedrake.function.Function.project</text>
</g>
<g >
<title>Parloop_Cells_wrap_form_exterior_facet_bottom_integral_otherwise (1,746,915 us, 0.64%)</title><rect x="26.3" y="103" width="7.6" height="15.0" fill="rgb(0,0,0)" rx="2" ry="2" />
<text  x="29.34" y="113.5" ></text>
</g>
<g >
<title>Parloop_Cells_wrap_par_loop_kernel (668,049 us, 0.24%)</title><rect x="1148.3" y="167" width="2.9" height="15.0" fill="rgb(0,0,0)" rx="2" ry="2" />
<text  x="1151.32" y="177.5" ></text>
</g>
<g >
<title>firedrake.norms.norm (11,152,739 us, 4.08%)</title><rect x="446.6" y="87" width="48.1" height="15.0" fill="rgb(0,0,0)" rx="2" ry="2" />
<text  x="449.60" y="97.5" >fire..</text>
</g>
<g >
<title>PCApply (208,591 us, 0.08%)</title><rect x="417.1" y="135" width="0.9" height="15.0" fill="rgb(0,0,0)" rx="2" ry="2" />
<text  x="420.14" y="145.5" ></text>
</g>
<g >
<title>Log_Event_subkernel13_interior_facet_vert_to__exterior_facet_vert_integral_otherwise (206,060 us, 0.08%)</title><rect x="659.3" y="199" width="0.9" height="15.0" fill="rgb(0,0,0)" rx="2" ry="2" />
<text  x="662.31" y="209.5" ></text>
</g>
<g >
<title>KSPSolve (719,841 us, 0.26%)</title><rect x="946.1" y="151" width="3.1" height="15.0" fill="rgb(0,0,0)" rx="2" ry="2" />
<text  x="949.13" y="161.5" ></text>
</g>
<g >
<title>pyop2.global_kernel.GlobalKernel.compile (9,649,464 us, 3.53%)</title><rect x="446.6" y="151" width="41.6" height="15.0" fill="rgb(0,0,0)" rx="2" ry="2" />
<text  x="449.60" y="161.5" >pyo..</text>
</g>
<g >
<title>KSPSolve (349,301 us, 0.13%)</title><rect x="416.5" y="119" width="1.5" height="15.0" fill="rgb(0,0,0)" rx="2" ry="2" />
<text  x="419.53" y="129.5" ></text>
</g>
<g >
<title>pyop2.global_kernel.GlobalKernel.compile (1,746,915 us, 0.64%)</title><rect x="26.3" y="119" width="7.6" height="15.0" fill="rgb(0,0,0)" rx="2" ry="2" />
<text  x="29.34" y="129.5" ></text>
</g>
<g >
<title>firedrake.projection.project (78,837,424 us, 28.82%)</title><rect x="106.5" y="87" width="340.1" height="15.0" fill="rgb(0,0,0)" rx="2" ry="2" />
<text  x="109.47" y="97.5" >firedrake.projection.project</text>
</g>
<g >
<title>pyop2.global_kernel.GlobalKernel.compile (4,259,025 us, 1.56%)</title><rect x="155.3" y="135" width="18.3" height="15.0" fill="rgb(0,0,0)" rx="2" ry="2" />
<text  x="158.27" y="145.5" ></text>
</g>
<g >
<title>Parloop_Cells_wrap_form00_cell_integral_otherwise (18,402,158 us, 6.73%)</title><rect x="193.8" y="135" width="79.4" height="15.0" fill="rgb(0,0,0)" rx="2" ry="2" />
<text  x="196.79" y="145.5" >Parloop_..</text>
</g>
</g>
</svg>
