<?xml version="1.0" standalone="no"?>
<!DOCTYPE svg PUBLIC "-//W3C//DTD SVG 1.1//EN" "http://www.w3.org/Graphics/SVG/1.1/DTD/svg11.dtd">
<svg version="1.1" width="1200" height="283" onload="init(evt)" viewBox="0 0 1200 283" xmlns="http://www.w3.org/2000/svg" xmlns:xlink="http://www.w3.org/1999/xlink">
<!-- Flame graph stack visualization. See https://github.com/brendangregg/FlameGraph for latest version, and http://www.brendangregg.com/flamegraphs.html for examples. -->
<!-- NOTES:  -->
<defs>
	<linearGradient id="background" y1="0" y2="1" x1="0" x2="0" >
		<stop stop-color="#eeeeee" offset="5%" />
		<stop stop-color="#eeeeb0" offset="95%" />
	</linearGradient>
</defs>
<style type="text/css">
	text { font-family:Verdana; font-size:13px; fill:rgb(0,0,0); }
	#search, #ignorecase { opacity:0.1; cursor:pointer; }
	#search:hover, #search.show, #ignorecase:hover, #ignorecase.show { opacity:1; }
	#subtitle { text-anchor:middle; font-color:rgb(160,160,160); }
	#title { text-anchor:middle; font-size:18px}
	#unzoom { cursor:pointer; }
	#frames > *:hover { stroke:black; stroke-width:0.5; cursor:pointer; }
	.hide { display:none; }
	.parent { opacity:0.5; }
</style>
<script type="text/ecmascript">
<![CDATA[
	"use strict";
	var details, searchbtn, unzoombtn, matchedtxt, svg, searching, currentSearchTerm, ignorecase, ignorecaseBtn;
	function init(evt) {
		details = document.getElementById("details").firstChild;
		searchbtn = document.getElementById("search");
		ignorecaseBtn = document.getElementById("ignorecase");
		unzoombtn = document.getElementById("unzoom");
		matchedtxt = document.getElementById("matched");
		svg = document.getElementsByTagName("svg")[0];
		searching = 0;
		currentSearchTerm = null;

		// use GET parameters to restore a flamegraphs state.
		var params = get_params();
		if (params.x && params.y)
			zoom(find_group(document.querySelector('[x="' + params.x + '"][y="' + params.y + '"]')));
                if (params.s) search(params.s);
	}

	// event listeners
	window.addEventListener("click", function(e) {
		var target = find_group(e.target);
		if (target) {
			if (target.nodeName == "a") {
				if (e.ctrlKey === false) return;
				e.preventDefault();
			}
			if (target.classList.contains("parent")) unzoom();
			zoom(target);
			if (!document.querySelector('.parent')) {
				clearzoom();
				return;
			}

			// set parameters for zoom state
			var el = target.querySelector("rect");
			if (el && el.attributes && el.attributes.y && el.attributes._orig_x) {
				var params = get_params()
				params.x = el.attributes._orig_x.value;
				params.y = el.attributes.y.value;
				history.replaceState(null, null, parse_params(params));
			}
		}
		else if (e.target.id == "unzoom") clearzoom();
		else if (e.target.id == "search") search_prompt();
		else if (e.target.id == "ignorecase") toggle_ignorecase();
	}, false)

	// mouse-over for info
	// show
	window.addEventListener("mouseover", function(e) {
		var target = find_group(e.target);
		if (target) details.nodeValue = "Function: " + g_to_text(target);
	}, false)

	// clear
	window.addEventListener("mouseout", function(e) {
		var target = find_group(e.target);
		if (target) details.nodeValue = ' ';
	}, false)

	// ctrl-F for search
	// ctrl-I to toggle case-sensitive search
	window.addEventListener("keydown",function (e) {
		if (e.keyCode === 114 || (e.ctrlKey && e.keyCode === 70)) {
			e.preventDefault();
			search_prompt();
		}
		else if (e.ctrlKey && e.keyCode === 73) {
			e.preventDefault();
			toggle_ignorecase();
		}
	}, false)

	// functions
	function get_params() {
		var params = {};
		var paramsarr = window.location.search.substr(1).split('&');
		for (var i = 0; i < paramsarr.length; ++i) {
			var tmp = paramsarr[i].split("=");
			if (!tmp[0] || !tmp[1]) continue;
			params[tmp[0]]  = decodeURIComponent(tmp[1]);
		}
		return params;
	}
	function parse_params(params) {
		var uri = "?";
		for (var key in params) {
			uri += key + '=' + encodeURIComponent(params[key]) + '&';
		}
		if (uri.slice(-1) == "&")
			uri = uri.substring(0, uri.length - 1);
		if (uri == '?')
			uri = window.location.href.split('?')[0];
		return uri;
	}
	function find_child(node, selector) {
		var children = node.querySelectorAll(selector);
		if (children.length) return children[0];
	}
	function find_group(node) {
		var parent = node.parentElement;
		if (!parent) return;
		if (parent.id == "frames") return node;
		return find_group(parent);
	}
	function orig_save(e, attr, val) {
		if (e.attributes["_orig_" + attr] != undefined) return;
		if (e.attributes[attr] == undefined) return;
		if (val == undefined) val = e.attributes[attr].value;
		e.setAttribute("_orig_" + attr, val);
	}
	function orig_load(e, attr) {
		if (e.attributes["_orig_"+attr] == undefined) return;
		e.attributes[attr].value = e.attributes["_orig_" + attr].value;
		e.removeAttribute("_orig_"+attr);
	}
	function g_to_text(e) {
		var text = find_child(e, "title").firstChild.nodeValue;
		return (text)
	}
	function g_to_func(e) {
		var func = g_to_text(e);
		// if there's any manipulation we want to do to the function
		// name before it's searched, do it here before returning.
		return (func);
	}
	function update_text(e) {
		var r = find_child(e, "rect");
		var t = find_child(e, "text");
		var w = parseFloat(r.attributes.width.value) -3;
		var txt = find_child(e, "title").textContent.replace(/\([^(]*\)$/,"");
		t.attributes.x.value = parseFloat(r.attributes.x.value) + 3;

		// Smaller than this size won't fit anything
		if (w < 2 * 13 * 0.59) {
			t.textContent = "";
			return;
		}

		t.textContent = txt;
		// Fit in full text width
		if (/^ *$/.test(txt) || t.getSubStringLength(0, txt.length) < w)
			return;

		for (var x = txt.length - 2; x > 0; x--) {
			if (t.getSubStringLength(0, x + 2) <= w) {
				t.textContent = txt.substring(0, x) + "..";
				return;
			}
		}
		t.textContent = "";
	}

	// zoom
	function zoom_reset(e) {
		if (e.attributes != undefined) {
			orig_load(e, "x");
			orig_load(e, "width");
		}
		if (e.childNodes == undefined) return;
		for (var i = 0, c = e.childNodes; i < c.length; i++) {
			zoom_reset(c[i]);
		}
	}
	function zoom_child(e, x, ratio) {
		if (e.attributes != undefined) {
			if (e.attributes.x != undefined) {
				orig_save(e, "x");
				e.attributes.x.value = (parseFloat(e.attributes.x.value) - x - 10) * ratio + 10;
				if (e.tagName == "text")
					e.attributes.x.value = find_child(e.parentNode, "rect[x]").attributes.x.value + 3;
			}
			if (e.attributes.width != undefined) {
				orig_save(e, "width");
				e.attributes.width.value = parseFloat(e.attributes.width.value) * ratio;
			}
		}

		if (e.childNodes == undefined) return;
		for (var i = 0, c = e.childNodes; i < c.length; i++) {
			zoom_child(c[i], x - 10, ratio);
		}
	}
	function zoom_parent(e) {
		if (e.attributes) {
			if (e.attributes.x != undefined) {
				orig_save(e, "x");
				e.attributes.x.value = 10;
			}
			if (e.attributes.width != undefined) {
				orig_save(e, "width");
				e.attributes.width.value = parseInt(svg.width.baseVal.value) - (10 * 2);
			}
		}
		if (e.childNodes == undefined) return;
		for (var i = 0, c = e.childNodes; i < c.length; i++) {
			zoom_parent(c[i]);
		}
	}
	function zoom(node) {
		var attr = find_child(node, "rect").attributes;
		var width = parseFloat(attr.width.value);
		var xmin = parseFloat(attr.x.value);
		var xmax = parseFloat(xmin + width);
		var ymin = parseFloat(attr.y.value);
		var ratio = (svg.width.baseVal.value - 2 * 10) / width;

		// XXX: Workaround for JavaScript float issues (fix me)
		var fudge = 0.0001;

		unzoombtn.classList.remove("hide");

		var el = document.getElementById("frames").children;
		for (var i = 0; i < el.length; i++) {
			var e = el[i];
			var a = find_child(e, "rect").attributes;
			var ex = parseFloat(a.x.value);
			var ew = parseFloat(a.width.value);
			var upstack;
			// Is it an ancestor
			if (1 == 0) {
				upstack = parseFloat(a.y.value) > ymin;
			} else {
				upstack = parseFloat(a.y.value) < ymin;
			}
			if (upstack) {
				// Direct ancestor
				if (ex <= xmin && (ex+ew+fudge) >= xmax) {
					e.classList.add("parent");
					zoom_parent(e);
					update_text(e);
				}
				// not in current path
				else
					e.classList.add("hide");
			}
			// Children maybe
			else {
				// no common path
				if (ex < xmin || ex + fudge >= xmax) {
					e.classList.add("hide");
				}
				else {
					zoom_child(e, xmin, ratio);
					update_text(e);
				}
			}
		}
		search();
	}
	function unzoom() {
		unzoombtn.classList.add("hide");
		var el = document.getElementById("frames").children;
		for(var i = 0; i < el.length; i++) {
			el[i].classList.remove("parent");
			el[i].classList.remove("hide");
			zoom_reset(el[i]);
			update_text(el[i]);
		}
		search();
	}
	function clearzoom() {
		unzoom();

		// remove zoom state
		var params = get_params();
		if (params.x) delete params.x;
		if (params.y) delete params.y;
		history.replaceState(null, null, parse_params(params));
	}

	// search
	function toggle_ignorecase() {
		ignorecase = !ignorecase;
		if (ignorecase) {
			ignorecaseBtn.classList.add("show");
		} else {
			ignorecaseBtn.classList.remove("show");
		}
		reset_search();
		search();
	}
	function reset_search() {
		var el = document.querySelectorAll("#frames rect");
		for (var i = 0; i < el.length; i++) {
			orig_load(el[i], "fill")
		}
		var params = get_params();
		delete params.s;
		history.replaceState(null, null, parse_params(params));
	}
	function search_prompt() {
		if (!searching) {
			var term = prompt("Enter a search term (regexp " +
			    "allowed, eg: ^ext4_)"
			    + (ignorecase ? ", ignoring case" : "")
			    + "\nPress Ctrl-i to toggle case sensitivity", "");
			if (term != null) search(term);
		} else {
			reset_search();
			searching = 0;
			currentSearchTerm = null;
			searchbtn.classList.remove("show");
			searchbtn.firstChild.nodeValue = "Search"
			matchedtxt.classList.add("hide");
			matchedtxt.firstChild.nodeValue = ""
		}
	}
	function search(term) {
		if (term) currentSearchTerm = term;

		var re = new RegExp(currentSearchTerm, ignorecase ? 'i' : '');
		var el = document.getElementById("frames").children;
		var matches = new Object();
		var maxwidth = 0;
		for (var i = 0; i < el.length; i++) {
			var e = el[i];
			var func = g_to_func(e);
			var rect = find_child(e, "rect");
			if (func == null || rect == null)
				continue;

			// Save max width. Only works as we have a root frame
			var w = parseFloat(rect.attributes.width.value);
			if (w > maxwidth)
				maxwidth = w;

			if (func.match(re)) {
				// highlight
				var x = parseFloat(rect.attributes.x.value);
				orig_save(rect, "fill");
				rect.attributes.fill.value = "rgb(230,0,230)";

				// remember matches
				if (matches[x] == undefined) {
					matches[x] = w;
				} else {
					if (w > matches[x]) {
						// overwrite with parent
						matches[x] = w;
					}
				}
				searching = 1;
			}
		}
		if (!searching)
			return;
		var params = get_params();
		params.s = currentSearchTerm;
		history.replaceState(null, null, parse_params(params));

		searchbtn.classList.add("show");
		searchbtn.firstChild.nodeValue = "Reset Search";

		// calculate percent matched, excluding vertical overlap
		var count = 0;
		var lastx = -1;
		var lastw = 0;
		var keys = Array();
		for (k in matches) {
			if (matches.hasOwnProperty(k))
				keys.push(k);
		}
		// sort the matched frames by their x location
		// ascending, then width descending
		keys.sort(function(a, b){
			return a - b;
		});
		// Step through frames saving only the biggest bottom-up frames
		// thanks to the sort order. This relies on the tree property
		// where children are always smaller than their parents.
		var fudge = 0.0001;	// JavaScript floating point
		for (var k in keys) {
			var x = parseFloat(keys[k]);
			var w = matches[keys[k]];
			if (x >= lastx + lastw - fudge) {
				count += w;
				lastx = x;
				lastw = w;
			}
		}
		// display matched percent
		matchedtxt.classList.remove("hide");
		var pct = 100 * count / maxwidth;
		if (pct != 100) pct = pct.toFixed(1)
		matchedtxt.firstChild.nodeValue = "Matched: " + pct + "%";
	}
]]>
</script>
<rect x="0.0" y="0" width="1200.0" height="283.0" fill="url(#background)"  />
<text id="title" x="600.00" y="26" >Firedrake example</text>
<text id="details" x="10.00" y="265" > </text>
<text id="unzoom" x="10.00" y="26" class="hide">Reset Zoom</text>
<text id="search" x="1090.00" y="26" >Search</text>
<text id="ignorecase" x="1174.00" y="26" >ic</text>
<text id="matched" x="1090.00" y="265" > </text>
<g id="frames">
<g >
<title>Log_Event_inits_wrap_slate_loopy_knl_14 (13,722 us, 0.10%)</title><rect x="240.3" y="183" width="1.1" height="15.0" fill="rgb(0,0,0)" rx="2" ry="2" />
<text  x="243.30" y="193.5" ></text>
</g>
<g >
<title>MatMult (238,069 us, 1.66%)</title><rect x="685.4" y="167" width="19.6" height="15.0" fill="rgb(0,0,0)" rx="2" ry="2" />
<text  x="688.40" y="177.5" ></text>
</g>
<g >
<title>Parloop_Cells_wrap_par_loop_kernel (38,717 us, 0.27%)</title><rect x="561.1" y="199" width="3.2" height="15.0" fill="rgb(0,0,0)" rx="2" ry="2" />
<text  x="564.09" y="209.5" ></text>
</g>
<g >
<title>firedrake.functionspaceimpl.FunctionSpace.__init__ (23,809 us, 0.17%)</title><rect x="87.0" y="87" width="2.0" height="15.0" fill="rgb(0,0,0)" rx="2" ry="2" />
<text  x="90.01" y="97.5" ></text>
</g>
<g >
<title>firedrake.functionspaceimpl.FunctionSpace.__init__ (8,713 us, 0.06%)</title><rect x="707.5" y="151" width="0.8" height="15.0" fill="rgb(0,0,0)" rx="2" ry="2" />
<text  x="710.54" y="161.5" ></text>
</g>
<g >
<title>Log_Event_subkernel17_interior_facet_vert_to__exterior_facet_vert_integral_otherwise (194,651 us, 1.36%)</title><rect x="290.1" y="183" width="16.0" height="15.0" fill="rgb(0,0,0)" rx="2" ry="2" />
<text  x="293.08" y="193.5" ></text>
</g>
<g >
<title>Log_Event_inits_wrap_slate_loopy_knl_7 (17,198 us, 0.12%)</title><rect x="319.0" y="199" width="1.4" height="15.0" fill="rgb(0,0,0)" rx="2" ry="2" />
<text  x="321.97" y="209.5" ></text>
</g>
<g >
<title>pyop2.global_kernel.GlobalKernel.compile (36,573 us, 0.26%)</title><rect x="83.5" y="135" width="3.0" height="15.0" fill="rgb(0,0,0)" rx="2" ry="2" />
<text  x="86.48" y="145.5" ></text>
</g>
<g >
<title>Log_Event_subkernel1_interior_facet_horiz_bottom_to__exterior_facet_bottom_integral_otherwise (15,093 us, 0.11%)</title><rect x="1038.7" y="183" width="1.3" height="15.0" fill="rgb(0,0,0)" rx="2" ry="2" />
<text  x="1041.75" y="193.5" ></text>
</g>
<g >
<title>firedrake.ufl_expr.adjoint (3,239 us, 0.02%)</title><rect x="215.8" y="119" width="0.2" height="15.0" fill="rgb(0,0,0)" rx="2" ry="2" />
<text  x="218.76" y="129.5" ></text>
</g>
<g >
<title>CreateSparsity (404,449 us, 2.83%)</title><rect x="1126.2" y="151" width="33.4" height="15.0" fill="rgb(0,0,0)" rx="2" ry="2" />
<text  x="1129.22" y="161.5" >Cr..</text>
</g>
<g >
<title>firedrake.tsfc_interface.compile_form (35,665 us, 0.25%)</title><rect x="1187.1" y="119" width="2.9" height="15.0" fill="rgb(0,0,0)" rx="2" ry="2" />
<text  x="1190.06" y="129.5" ></text>
</g>
<g >
<title>firedrake.ufl_expr.action (4,286 us, 0.03%)</title><rect x="215.4" y="119" width="0.4" height="15.0" fill="rgb(0,0,0)" rx="2" ry="2" />
<text  x="218.41" y="129.5" ></text>
</g>
<g >
<title>SCBackSub (4,169,214 us, 29.14%)</title><rect x="216.3" y="135" width="343.8" height="15.0" fill="rgb(0,0,0)" rx="2" ry="2" />
<text  x="219.27" y="145.5" >SCBackSub</text>
</g>
<g >
<title>ParLoopExecute (36,573 us, 0.26%)</title><rect x="83.5" y="103" width="3.0" height="15.0" fill="rgb(0,0,0)" rx="2" ry="2" />
<text  x="86.48" y="113.5" ></text>
</g>
<g >
<title>Log_Event_subkernel10_cell_to__cell_integral_otherwise (164,268 us, 1.15%)</title><rect x="511.2" y="199" width="13.6" height="15.0" fill="rgb(0,0,0)" rx="2" ry="2" />
<text  x="514.21" y="209.5" ></text>
</g>
<g >
<title>Log_Event_subkernel2_cell_to__cell_integral_otherwise (579,336 us, 4.05%)</title><rect x="1059.1" y="183" width="47.8" height="15.0" fill="rgb(0,0,0)" rx="2" ry="2" />
<text  x="1062.07" y="193.5" >Log_..</text>
</g>
<g >
<title>CreateMesh (1,712 us, 0.01%)</title><rect x="89.0" y="71" width="0.1" height="15.0" fill="rgb(0,0,0)" rx="2" ry="2" />
<text  x="91.98" y="81.5" ></text>
</g>
<g >
<title>firedrake.function.Function.__init__ (1,492 us, 0.01%)</title><rect x="1172.3" y="135" width="0.1" height="15.0" fill="rgb(0,0,0)" rx="2" ry="2" />
<text  x="1175.29" y="145.5" ></text>
</g>
<g >
<title>Log_Event_subkernel3_interior_facet_vert_to__exterior_facet_vert_integral_otherwise (166,776 us, 1.17%)</title><rect x="1109.4" y="183" width="13.8" height="15.0" fill="rgb(0,0,0)" rx="2" ry="2" />
<text  x="1112.44" y="193.5" ></text>
</g>
<g >
<title>solve_getrf (510,597 us, 3.57%)</title><rect x="464.5" y="215" width="42.1" height="15.0" fill="rgb(0,0,0)" rx="2" ry="2" />
<text  x="467.49" y="225.5" >sol..</text>
</g>
<g >
<title>firedrake.functionspacedata.get_shared_data (3,217 us, 0.02%)</title><rect x="1172.0" y="215" width="0.3" height="15.0" fill="rgb(0,0,0)" rx="2" ry="2" />
<text  x="1175.02" y="225.5" ></text>
</g>
<g >
<title>KSPSolve (250,222 us, 1.75%)</title><rect x="685.2" y="151" width="20.6" height="15.0" fill="rgb(0,0,0)" rx="2" ry="2" />
<text  x="688.17" y="161.5" ></text>
</g>
<g >
<title>firedrake.functionspacedata.get_shared_data (6,274 us, 0.04%)</title><rect x="86.5" y="135" width="0.5" height="15.0" fill="rgb(0,0,0)" rx="2" ry="2" />
<text  x="89.50" y="145.5" ></text>
</g>
<g >
<title>firedrake.functionspacedata.FunctionSpaceData.__init__ (1,645 us, 0.01%)</title><rect x="707.4" y="215" width="0.1" height="15.0" fill="rgb(0,0,0)" rx="2" ry="2" />
<text  x="710.40" y="225.5" ></text>
</g>
<g >
<title>VecPointwiseMult (1,584 us, 0.01%)</title><rect x="705.3" y="183" width="0.2" height="15.0" fill="rgb(0,0,0)" rx="2" ry="2" />
<text  x="708.33" y="193.5" ></text>
</g>
<g >
<title>Parloop_Cells_wrap_par_loop_kernel (33,445 us, 0.23%)</title><rect x="1176.6" y="167" width="2.7" height="15.0" fill="rgb(0,0,0)" rx="2" ry="2" />
<text  x="1179.57" y="177.5" ></text>
</g>
<g >
<title>Parloop_Cells_wrap_wrap_slate_loopy_knl_7 (2,945,633 us, 20.59%)</title><rect x="317.2" y="183" width="242.9" height="15.0" fill="rgb(0,0,0)" rx="2" ry="2" />
<text  x="320.19" y="193.5" >Parloop_Cells_wrap_wrap_slate..</text>
</g>
<g >
<title>solve_memcpy (30,480 us, 0.21%)</title><rect x="508.7" y="215" width="2.5" height="15.0" fill="rgb(0,0,0)" rx="2" ry="2" />
<text  x="511.70" y="225.5" ></text>
</g>
<g >
<title>PCApply (5,935,379 us, 41.49%)</title><rect x="216.3" y="119" width="489.5" height="15.0" fill="rgb(0,0,0)" rx="2" ry="2" />
<text  x="219.27" y="129.5" >PCApply</text>
</g>
<g >
<title>CreateFunctionSpace (6,274 us, 0.04%)</title><rect x="86.5" y="103" width="0.5" height="15.0" fill="rgb(0,0,0)" rx="2" ry="2" />
<text  x="89.50" y="113.5" ></text>
</g>
<g >
<title>firedrake.formmanipulation.split_form (6,781 us, 0.05%)</title><rect x="1189.4" y="135" width="0.6" height="15.0" fill="rgb(0,0,0)" rx="2" ry="2" />
<text  x="1192.44" y="145.5" ></text>
</g>
<g >
<title>solve_memcpy (24,049 us, 0.17%)</title><rect x="611.3" y="215" width="2.0" height="15.0" fill="rgb(0,0,0)" rx="2" ry="2" />
<text  x="614.34" y="225.5" ></text>
</g>
<g >
<title>solve_getrs (17,923 us, 0.13%)</title><rect x="609.9" y="215" width="1.4" height="15.0" fill="rgb(0,0,0)" rx="2" ry="2" />
<text  x="612.86" y="225.5" ></text>
</g>
<g >
<title>firedrake.__init__ (1,508,018 us, 10.54%)</title><rect x="89.1" y="71" width="124.4" height="15.0" fill="rgb(0,0,0)" rx="2" ry="2" />
<text  x="92.12" y="81.5" >firedrake.__in..</text>
</g>
<g >
<title>MatZeroInitial (137,478 us, 0.96%)</title><rect x="1159.8" y="151" width="11.4" height="15.0" fill="rgb(0,0,0)" rx="2" ry="2" />
<text  x="1162.84" y="161.5" ></text>
</g>
<g >
<title>Log_Event_inits_wrap_slate_loopy_knl_0 (21,615 us, 0.15%)</title><rect x="736.0" y="183" width="1.8" height="15.0" fill="rgb(0,0,0)" rx="2" ry="2" />
<text  x="739.05" y="193.5" ></text>
</g>
<g >
<title>VecAXPY (2,594 us, 0.02%)</title><rect x="705.5" y="167" width="0.2" height="15.0" fill="rgb(0,0,0)" rx="2" ry="2" />
<text  x="708.46" y="177.5" ></text>
</g>
<g >
<title>inv_memcpy (24,675 us, 0.17%)</title><rect x="1036.7" y="199" width="2.0" height="15.0" fill="rgb(0,0,0)" rx="2" ry="2" />
<text  x="1039.71" y="209.5" ></text>
</g>
<g >
<title>Log_Event_subkernel9_cell_to__cell_integral_otherwise (45,301 us, 0.32%)</title><rect x="552.9" y="199" width="3.7" height="15.0" fill="rgb(0,0,0)" rx="2" ry="2" />
<text  x="555.88" y="209.5" ></text>
</g>
<g >
<title>firedrake.variational_solver.NonlinearVariationalSolver.__init__ (11,409 us, 0.08%)</title><rect x="215.1" y="71" width="0.9" height="15.0" fill="rgb(0,0,0)" rx="2" ry="2" />
<text  x="218.09" y="81.5" ></text>
</g>
<g >
<title>firedrake.functionspacedata.get_shared_data (23,809 us, 0.17%)</title><rect x="87.0" y="103" width="2.0" height="15.0" fill="rgb(0,0,0)" rx="2" ry="2" />
<text  x="90.01" y="113.5" ></text>
</g>
<g >
<title>pyop2.global_kernel.GlobalKernel.compile (33,247 us, 0.23%)</title><rect x="1184.3" y="151" width="2.8" height="15.0" fill="rgb(0,0,0)" rx="2" ry="2" />
<text  x="1187.32" y="161.5" ></text>
</g>
<g >
<title>ParLoopExecute (33,445 us, 0.23%)</title><rect x="1176.6" y="151" width="2.7" height="15.0" fill="rgb(0,0,0)" rx="2" ry="2" />
<text  x="1179.57" y="161.5" ></text>
</g>
<g >
<title>firedrake.functionspacedata.FunctionSpaceData.__init__ (6,274 us, 0.04%)</title><rect x="86.5" y="151" width="0.5" height="15.0" fill="rgb(0,0,0)" rx="2" ry="2" />
<text  x="89.50" y="161.5" ></text>
</g>
<g >
<title>Log_Event_slate_loopy_knl_0 (3,648,520 us, 25.50%)</title><rect x="737.8" y="183" width="300.9" height="15.0" fill="rgb(0,0,0)" rx="2" ry="2" />
<text  x="740.83" y="193.5" >Log_Event_slate_loopy_knl_0</text>
</g>
<g >
<title>firedrake.formmanipulation.ExtractSubBlock.argument (9,606 us, 0.07%)</title><rect x="1171.5" y="167" width="0.8" height="15.0" fill="rgb(0,0,0)" rx="2" ry="2" />
<text  x="1174.50" y="177.5" ></text>
</g>
<g >
<title>ParLoopExecute (856,088 us, 5.98%)</title><rect x="238.6" y="151" width="70.6" height="15.0" fill="rgb(0,0,0)" rx="2" ry="2" />
<text  x="241.59" y="161.5" >ParLoop..</text>
</g>
<g >
<title>Log_Event_subkernel11_cell_to__cell_integral_otherwise (96,342 us, 0.67%)</title><rect x="524.8" y="199" width="7.9" height="15.0" fill="rgb(0,0,0)" rx="2" ry="2" />
<text  x="527.76" y="209.5" ></text>
</g>
<g >
<title>HybridProject (41,706 us, 0.29%)</title><rect x="235.2" y="151" width="3.4" height="15.0" fill="rgb(0,0,0)" rx="2" ry="2" />
<text  x="238.15" y="161.5" ></text>
</g>
<g >
<title>FunctionSpaceData: CreateElement (11,017 us, 0.08%)</title><rect x="87.9" y="135" width="0.9" height="15.0" fill="rgb(0,0,0)" rx="2" ry="2" />
<text  x="90.86" y="145.5" ></text>
</g>
<g >
<title>Log_Event_form0_cell_integral_otherwise (11,219 us, 0.08%)</title><rect x="1179.9" y="151" width="1.0" height="15.0" fill="rgb(0,0,0)" rx="2" ry="2" />
<text  x="1182.93" y="161.5" ></text>
</g>
<g >
<title>Log_Event_subkernel13_interior_facet_horiz_bottom_to__exterior_facet_bottom_integral_otherwise (23,592 us, 0.16%)</title><rect x="532.7" y="199" width="2.0" height="15.0" fill="rgb(0,0,0)" rx="2" ry="2" />
<text  x="535.71" y="209.5" ></text>
</g>
<g >
<title>firedrake.ufl_expr.action (5,253 us, 0.04%)</title><rect x="213.6" y="87" width="0.5" height="15.0" fill="rgb(0,0,0)" rx="2" ry="2" />
<text  x="216.63" y="97.5" ></text>
</g>
<g >
<title>SCSolve (250,222 us, 1.75%)</title><rect x="685.2" y="135" width="20.6" height="15.0" fill="rgb(0,0,0)" rx="2" ry="2" />
<text  x="688.17" y="145.5" ></text>
</g>
<g >
<title>firedrake.assemble.allocate_matrix (545,185 us, 3.81%)</title><rect x="1126.2" y="135" width="45.0" height="15.0" fill="rgb(0,0,0)" rx="2" ry="2" />
<text  x="1129.22" y="145.5" >fir..</text>
</g>
<g >
<title>firedrake.functionspaceimpl.FunctionSpace.__init__ (6,274 us, 0.04%)</title><rect x="86.5" y="119" width="0.5" height="15.0" fill="rgb(0,0,0)" rx="2" ry="2" />
<text  x="89.50" y="129.5" ></text>
</g>
<g >
<title>pyop2.global_kernel.GlobalKernel.compile (37,382 us, 0.26%)</title><rect x="682.1" y="199" width="3.1" height="15.0" fill="rgb(0,0,0)" rx="2" ry="2" />
<text  x="685.08" y="209.5" ></text>
</g>
<g >
<title>Parloop_Cells_wrap_wrap_slate_loopy_knl_0 (4,855,047 us, 33.93%)</title><rect x="725.8" y="167" width="400.4" height="15.0" fill="rgb(0,0,0)" rx="2" ry="2" />
<text  x="728.79" y="177.5" >Parloop_Cells_wrap_wrap_slate_loopy_knl_0</text>
</g>
<g >
<title>ParLoopExecute (1,396,066 us, 9.76%)</title><rect x="570.0" y="167" width="115.2" height="15.0" fill="rgb(0,0,0)" rx="2" ry="2" />
<text  x="573.02" y="177.5" >ParLoopExecute</text>
</g>
<g >
<title>MatAssemblyEnd (3,258 us, 0.02%)</title><rect x="1159.6" y="151" width="0.2" height="15.0" fill="rgb(0,0,0)" rx="2" ry="2" />
<text  x="1162.58" y="161.5" ></text>
</g>
<g >
<title>firedrake.functionspace.make_scalar_element (1,648 us, 0.01%)</title><rect x="1171.9" y="199" width="0.1" height="15.0" fill="rgb(0,0,0)" rx="2" ry="2" />
<text  x="1174.89" y="209.5" ></text>
</g>
<g >
<title>ParLoopExecute (35,060 us, 0.25%)</title><rect x="235.7" y="183" width="2.9" height="15.0" fill="rgb(0,0,0)" rx="2" ry="2" />
<text  x="238.70" y="193.5" ></text>
</g>
<g >
<title>pyop2.global_kernel.GlobalKernel.compile (36,852 us, 0.26%)</title><rect x="1180.9" y="151" width="3.0" height="15.0" fill="rgb(0,0,0)" rx="2" ry="2" />
<text  x="1183.85" y="161.5" ></text>
</g>
<g >
<title>Log_Event_subkernel1_interior_facet_vert_to__exterior_facet_vert_integral_otherwise (215,733 us, 1.51%)</title><rect x="1041.3" y="183" width="17.8" height="15.0" fill="rgb(0,0,0)" rx="2" ry="2" />
<text  x="1044.28" y="193.5" ></text>
</g>
<g >
<title>firedrake.parloops.par_loop (38,633 us, 0.27%)</title><rect x="1176.1" y="135" width="3.2" height="15.0" fill="rgb(0,0,0)" rx="2" ry="2" />
<text  x="1179.14" y="145.5" ></text>
</g>
<g >
<title>SCForwardElim (1,515,943 us, 10.60%)</title><rect x="560.1" y="135" width="125.1" height="15.0" fill="rgb(0,0,0)" rx="2" ry="2" />
<text  x="563.13" y="145.5" >SCForwardElim</text>
</g>
<g >
<title>firedrake.mesh.MeshTopology._facets (2,507 us, 0.02%)</title><rect x="88.8" y="135" width="0.2" height="15.0" fill="rgb(0,0,0)" rx="2" ry="2" />
<text  x="91.77" y="145.5" ></text>
</g>
<g >
<title>HybridInit (5,743,645 us, 40.15%)</title><rect x="705.8" y="119" width="473.7" height="15.0" fill="rgb(0,0,0)" rx="2" ry="2" />
<text  x="708.80" y="129.5" >HybridInit</text>
</g>
<g >
<title>firedrake.formmanipulation.ExtractSubBlock.argument (1,665 us, 0.01%)</title><rect x="1189.9" y="167" width="0.1" height="15.0" fill="rgb(0,0,0)" rx="2" ry="2" />
<text  x="1192.86" y="177.5" ></text>
</g>
<g >
<title>Log_Event_inits_wrap_slate_loopy_knl_4 (16,498 us, 0.12%)</title><rect x="571.7" y="199" width="1.4" height="15.0" fill="rgb(0,0,0)" rx="2" ry="2" />
<text  x="574.74" y="209.5" ></text>
</g>
<g >
<title>firedrake.extrusion_utils.make_extruded_coords (66,504 us, 0.46%)</title><rect x="81.0" y="87" width="5.5" height="15.0" fill="rgb(0,0,0)" rx="2" ry="2" />
<text  x="84.01" y="97.5" ></text>
</g>
<g >
<title>CreateFunctionSpace (23,809 us, 0.17%)</title><rect x="87.0" y="71" width="2.0" height="15.0" fill="rgb(0,0,0)" rx="2" ry="2" />
<text  x="90.01" y="81.5" ></text>
</g>
<g >
<title>firedrake.functionspacedata.get_shared_data (8,713 us, 0.06%)</title><rect x="707.5" y="167" width="0.8" height="15.0" fill="rgb(0,0,0)" rx="2" ry="2" />
<text  x="710.54" y="177.5" ></text>
</g>
<g >
<title>CreateFunctionSpace (10,358 us, 0.07%)</title><rect x="707.4" y="135" width="0.9" height="15.0" fill="rgb(0,0,0)" rx="2" ry="2" />
<text  x="710.40" y="145.5" ></text>
</g>
<g >
<title>firedrake.parloops.par_loop (41,706 us, 0.29%)</title><rect x="235.2" y="167" width="3.4" height="15.0" fill="rgb(0,0,0)" rx="2" ry="2" />
<text  x="238.15" y="177.5" ></text>
</g>
<g >
<title>firedrake.matrix_free.operators.ImplicitMatrixContext.__init__ (7,525 us, 0.05%)</title><rect x="215.4" y="103" width="0.6" height="15.0" fill="rgb(0,0,0)" rx="2" ry="2" />
<text  x="218.41" y="113.5" ></text>
</g>
<g >
<title>firedrake.variational_solver.NonlinearVariationalProblem.__init__ (12,392 us, 0.09%)</title><rect x="214.1" y="87" width="1.0" height="15.0" fill="rgb(0,0,0)" rx="2" ry="2" />
<text  x="217.07" y="97.5" ></text>
</g>
<g >
<title>pyop2.global_kernel.GlobalKernel.compile (37,151 us, 0.26%)</title><rect x="306.1" y="183" width="3.1" height="15.0" fill="rgb(0,0,0)" rx="2" ry="2" />
<text  x="309.13" y="193.5" ></text>
</g>
<g >
<title>pyop2.global_kernel.GlobalKernel.compile (38,717 us, 0.27%)</title><rect x="561.1" y="215" width="3.2" height="15.0" fill="rgb(0,0,0)" rx="2" ry="2" />
<text  x="564.09" y="225.5" ></text>
</g>
<g >
<title>SNESFunctionEval (127,008 us, 0.89%)</title><rect x="1179.5" y="103" width="10.5" height="15.0" fill="rgb(0,0,0)" rx="2" ry="2" />
<text  x="1182.52" y="113.5" ></text>
</g>
<g >
<title>MatZeroEntries (5,649 us, 0.04%)</title><rect x="725.3" y="151" width="0.5" height="15.0" fill="rgb(0,0,0)" rx="2" ry="2" />
<text  x="728.32" y="161.5" ></text>
</g>
<g >
<title>all (14,306,920 us, 100%)</title><rect x="10.0" y="39" width="1180.0" height="15.0" fill="rgb(0,0,0)" rx="2" ry="2" />
<text  x="13.00" y="49.5" ></text>
</g>
<g >
<title>firedrake.variational_solver.NonlinearVariationalSolver.solve (11,808,920 us, 82.54%)</title><rect x="216.0" y="71" width="974.0" height="15.0" fill="rgb(0,0,0)" rx="2" ry="2" />
<text  x="219.03" y="81.5" >firedrake.variational_solver.NonlinearVariationalSolver.solve</text>
</g>
<g >
<title>Parloop_Cells_wrap_form1_cell_integral_otherwise (38,413 us, 0.27%)</title><rect x="1183.9" y="135" width="3.2" height="15.0" fill="rgb(0,0,0)" rx="2" ry="2" />
<text  x="1186.89" y="145.5" ></text>
</g>
<g >
<title>pyop2.global_kernel.GlobalKernel.compile (33,445 us, 0.23%)</title><rect x="1176.6" y="183" width="2.7" height="15.0" fill="rgb(0,0,0)" rx="2" ry="2" />
<text  x="1179.57" y="193.5" ></text>
</g>
<g >
<title>firedrake.ufl_expr.adjoint (10,741 us, 0.08%)</title><rect x="214.2" y="103" width="0.9" height="15.0" fill="rgb(0,0,0)" rx="2" ry="2" />
<text  x="217.20" y="113.5" ></text>
</g>
<g >
<title>Log_Event_subkernel17_interior_facet_horiz_bottom_to__exterior_facet_bottom_integral_otherwise (24,153 us, 0.17%)</title><rect x="286.1" y="183" width="2.0" height="15.0" fill="rgb(0,0,0)" rx="2" ry="2" />
<text  x="289.07" y="193.5" ></text>
</g>
<g >
<title>firedrake.functionspacedata.get_shared_data (1,645 us, 0.01%)</title><rect x="707.4" y="199" width="0.1" height="15.0" fill="rgb(0,0,0)" rx="2" ry="2" />
<text  x="710.40" y="209.5" ></text>
</g>
<g >
<title>firedrake.formmanipulation.ExtractSubBlock.split (3,870 us, 0.03%)</title><rect x="1189.7" y="151" width="0.3" height="15.0" fill="rgb(0,0,0)" rx="2" ry="2" />
<text  x="1192.68" y="161.5" ></text>
</g>
<g >
<title>HybridRHS (1,465,666 us, 10.24%)</title><rect x="564.3" y="151" width="120.9" height="15.0" fill="rgb(0,0,0)" rx="2" ry="2" />
<text  x="567.28" y="161.5" >HybridRHS</text>
</g>
<g >
<title>inv_getri (1,937,763 us, 13.54%)</title><rect x="876.9" y="199" width="159.8" height="15.0" fill="rgb(0,0,0)" rx="2" ry="2" />
<text  x="879.89" y="209.5" >inv_getri</text>
</g>
<g >
<title>PCSetUp (5,743,645 us, 40.15%)</title><rect x="705.8" y="103" width="473.7" height="15.0" fill="rgb(0,0,0)" rx="2" ry="2" />
<text  x="708.80" y="113.5" >PCSetUp</text>
</g>
<g >
<title>firedrake.functionspaceimpl.FunctionSpace.__init__ (3,217 us, 0.02%)</title><rect x="1172.0" y="199" width="0.3" height="15.0" fill="rgb(0,0,0)" rx="2" ry="2" />
<text  x="1175.02" y="209.5" ></text>
</g>
<g >
<title>Parloop_Cells_wrap_wrap_slate_loopy_knl_14 (856,088 us, 5.98%)</title><rect x="238.6" y="167" width="70.6" height="15.0" fill="rgb(0,0,0)" rx="2" ry="2" />
<text  x="241.59" y="177.5" >Parloop..</text>
</g>
<g >
<title>Log_Event_subkernel17_interior_facet_horiz_top_to__exterior_facet_top_integral_otherwise (24,491 us, 0.17%)</title><rect x="288.1" y="183" width="2.0" height="15.0" fill="rgb(0,0,0)" rx="2" ry="2" />
<text  x="291.06" y="193.5" ></text>
</g>
<g >
<title>firedrake.variational_solver.LinearVariationalProblem.__init__ (17,645 us, 0.12%)</title><rect x="213.6" y="71" width="1.5" height="15.0" fill="rgb(0,0,0)" rx="2" ry="2" />
<text  x="216.63" y="81.5" ></text>
</g>
<g >
<title>Parloop_Cells_wrap_pyop2_kernel_uniform_extrusion (36,573 us, 0.26%)</title><rect x="83.5" y="119" width="3.0" height="15.0" fill="rgb(0,0,0)" rx="2" ry="2" />
<text  x="86.48" y="129.5" ></text>
</g>
<g >
<title>firedrake.utility_meshes.RectangleMesh (1,661 us, 0.01%)</title><rect x="213.5" y="87" width="0.1" height="15.0" fill="rgb(0,0,0)" rx="2" ry="2" />
<text  x="216.50" y="97.5" ></text>
</g>
<g >
<title>FunctionSpaceData: CreateElement (8,713 us, 0.06%)</title><rect x="707.5" y="199" width="0.8" height="15.0" fill="rgb(0,0,0)" rx="2" ry="2" />
<text  x="710.54" y="209.5" ></text>
</g>
<g >
<title>pyop2.global_kernel.GlobalKernel.compile (35,060 us, 0.25%)</title><rect x="235.7" y="215" width="2.9" height="15.0" fill="rgb(0,0,0)" rx="2" ry="2" />
<text  x="238.70" y="225.5" ></text>
</g>
<g >
<title>CreateFunctionSpace (6,837 us, 0.05%)</title><rect x="1171.7" y="183" width="0.6" height="15.0" fill="rgb(0,0,0)" rx="2" ry="2" />
<text  x="1174.72" y="193.5" ></text>
</g>
<g >
<title>Log_Event_subkernel3_interior_facet_horiz_top_to__exterior_facet_top_integral_otherwise (15,813 us, 0.11%)</title><rect x="1108.1" y="183" width="1.3" height="15.0" fill="rgb(0,0,0)" rx="2" ry="2" />
<text  x="1111.13" y="193.5" ></text>
</g>
<g >
<title>firedrake (14,306,920 us, 100.00%)</title><rect x="10.0" y="55" width="1180.0" height="15.0" fill="rgb(0,0,0)" rx="2" ry="2" />
<text  x="13.00" y="65.5" >firedrake</text>
</g>
<g >
<title>firedrake.formmanipulation.split_form (13,389 us, 0.09%)</title><rect x="1171.2" y="135" width="1.1" height="15.0" fill="rgb(0,0,0)" rx="2" ry="2" />
<text  x="1174.18" y="145.5" ></text>
</g>
<g >
<title>ParLoopExecute (86,484 us, 0.60%)</title><rect x="1179.9" y="119" width="7.2" height="15.0" fill="rgb(0,0,0)" rx="2" ry="2" />
<text  x="1182.93" y="129.5" ></text>
</g>
<g >
<title>firedrake.functionspacedata.FunctionSpaceData.__init__ (8,713 us, 0.06%)</title><rect x="707.5" y="183" width="0.8" height="15.0" fill="rgb(0,0,0)" rx="2" ry="2" />
<text  x="710.54" y="193.5" ></text>
</g>
<g >
<title>Log_Event_form1_cell_integral_otherwise (5,166 us, 0.04%)</title><rect x="1183.9" y="151" width="0.4" height="15.0" fill="rgb(0,0,0)" rx="2" ry="2" />
<text  x="1186.89" y="161.5" ></text>
</g>
<g >
<title>VecTDot (1,591 us, 0.01%)</title><rect x="705.7" y="167" width="0.1" height="15.0" fill="rgb(0,0,0)" rx="2" ry="2" />
<text  x="708.67" y="177.5" ></text>
</g>
<g >
<title>Parloop_Cells_wrap_par_loop_kernel (35,060 us, 0.25%)</title><rect x="235.7" y="199" width="2.9" height="15.0" fill="rgb(0,0,0)" rx="2" ry="2" />
<text  x="238.70" y="209.5" ></text>
</g>
<g >
<title>firedrake.formmanipulation.ExtractSubBlock.split (13,389 us, 0.09%)</title><rect x="1171.2" y="151" width="1.1" height="15.0" fill="rgb(0,0,0)" rx="2" ry="2" />
<text  x="1174.18" y="161.5" ></text>
</g>
<g >
<title>ParLoopExecute (2,945,633 us, 20.59%)</title><rect x="317.2" y="167" width="242.9" height="15.0" fill="rgb(0,0,0)" rx="2" ry="2" />
<text  x="320.19" y="177.5" >ParLoopExecute</text>
</g>
<g >
<title>Log_Event_subkernel1_interior_facet_horiz_top_to__exterior_facet_top_integral_otherwise (15,548 us, 0.11%)</title><rect x="1040.0" y="183" width="1.3" height="15.0" fill="rgb(0,0,0)" rx="2" ry="2" />
<text  x="1042.99" y="193.5" ></text>
</g>
<g >
<title>Log_Event_subkernel5_interior_facet_horiz_bottom_to__exterior_facet_bottom_integral_otherwise (15,433 us, 0.11%)</title><rect x="613.3" y="199" width="1.3" height="15.0" fill="rgb(0,0,0)" rx="2" ry="2" />
<text  x="616.32" y="209.5" ></text>
</g>
<g >
<title>KSPSolve (5,935,379 us, 41.49%)</title><rect x="216.3" y="103" width="489.5" height="15.0" fill="rgb(0,0,0)" rx="2" ry="2" />
<text  x="219.27" y="113.5" >KSPSolve</text>
</g>
<g >
<title>firedrake.functionspacedata.FunctionSpaceData.__init__ (23,809 us, 0.17%)</title><rect x="87.0" y="119" width="2.0" height="15.0" fill="rgb(0,0,0)" rx="2" ry="2" />
<text  x="90.01" y="129.5" ></text>
</g>
<g >
<title>Log_Event_slate_loopy_knl_4 (487,693 us, 3.41%)</title><rect x="573.1" y="199" width="40.2" height="15.0" fill="rgb(0,0,0)" rx="2" ry="2" />
<text  x="576.10" y="209.5" >Log..</text>
</g>
<g >
<title>PCApply (5,096 us, 0.04%)</title><rect x="705.0" y="167" width="0.5" height="15.0" fill="rgb(0,0,0)" rx="2" ry="2" />
<text  x="708.04" y="177.5" ></text>
</g>
<g >
<title>ParLoopExecute (38,717 us, 0.27%)</title><rect x="561.1" y="183" width="3.2" height="15.0" fill="rgb(0,0,0)" rx="2" ry="2" />
<text  x="564.09" y="193.5" ></text>
</g>
<g >
<title>firedrake.parloops.par_loop (47,264 us, 0.33%)</title><rect x="560.4" y="167" width="3.9" height="15.0" fill="rgb(0,0,0)" rx="2" ry="2" />
<text  x="563.38" y="177.5" ></text>
</g>
<g >
<title>solve_getrs (25,391 us, 0.18%)</title><rect x="506.6" y="215" width="2.1" height="15.0" fill="rgb(0,0,0)" rx="2" ry="2" />
<text  x="509.60" y="225.5" ></text>
</g>
<g >
<title>HybridOperatorAssembly (5,067,603 us, 35.42%)</title><rect x="708.3" y="135" width="417.9" height="15.0" fill="rgb(0,0,0)" rx="2" ry="2" />
<text  x="711.25" y="145.5" >HybridOperatorAssembly</text>
</g>
<g >
<title>pyop2.global_kernel.GlobalKernel.compile (42,620 us, 0.30%)</title><rect x="556.6" y="199" width="3.5" height="15.0" fill="rgb(0,0,0)" rx="2" ry="2" />
<text  x="559.62" y="209.5" ></text>
</g>
<g >
<title>Log_Event_subkernel15_cell_to__cell_integral_otherwise (163,931 us, 1.15%)</title><rect x="264.6" y="183" width="13.6" height="15.0" fill="rgb(0,0,0)" rx="2" ry="2" />
<text  x="267.63" y="193.5" ></text>
</g>
<g >
<title>RecoverFirstElim (3,042,471 us, 21.27%)</title><rect x="309.2" y="151" width="250.9" height="15.0" fill="rgb(0,0,0)" rx="2" ry="2" />
<text  x="312.20" y="161.5" >RecoverFirstElim</text>
</g>
<g >
<title>firedrake.interpolation.make_interpolator (45,205 us, 0.32%)</title><rect x="1172.4" y="135" width="3.7" height="15.0" fill="rgb(0,0,0)" rx="2" ry="2" />
<text  x="1175.41" y="145.5" ></text>
</g>
<g >
<title>solve_getrs (11,980 us, 0.08%)</title><rect x="262.4" y="199" width="1.0" height="15.0" fill="rgb(0,0,0)" rx="2" ry="2" />
<text  x="265.43" y="209.5" ></text>
</g>
<g >
<title>Parloop_Cells_wrap_form0_cell_integral_otherwise (48,071 us, 0.34%)</title><rect x="1179.9" y="135" width="4.0" height="15.0" fill="rgb(0,0,0)" rx="2" ry="2" />
<text  x="1182.93" y="145.5" ></text>
</g>
<g >
<title>Log_Event_subkernel5_interior_facet_vert_to__exterior_facet_vert_integral_otherwise (219,963 us, 1.54%)</title><rect x="615.9" y="199" width="18.2" height="15.0" fill="rgb(0,0,0)" rx="2" ry="2" />
<text  x="618.92" y="209.5" ></text>
</g>
<g >
<title>Log_Event_subkernel16_cell_to__cell_integral_otherwise (95,957 us, 0.67%)</title><rect x="278.2" y="183" width="7.9" height="15.0" fill="rgb(0,0,0)" rx="2" ry="2" />
<text  x="281.15" y="193.5" ></text>
</g>
<g >
<title>Log_Event_subkernel13_interior_facet_horiz_top_to__exterior_facet_top_integral_otherwise (24,340 us, 0.17%)</title><rect x="534.7" y="199" width="2.0" height="15.0" fill="rgb(0,0,0)" rx="2" ry="2" />
<text  x="537.65" y="209.5" ></text>
</g>
<g >
<title>firedrake.utility_meshes.SquareMesh (1,661 us, 0.01%)</title><rect x="213.5" y="71" width="0.1" height="15.0" fill="rgb(0,0,0)" rx="2" ry="2" />
<text  x="216.50" y="81.5" ></text>
</g>
<g >
<title>Parloop_Cells_wrap_wrap_slate_loopy_knl_4 (1,396,066 us, 9.76%)</title><rect x="570.0" y="183" width="115.2" height="15.0" fill="rgb(0,0,0)" rx="2" ry="2" />
<text  x="573.02" y="193.5" >Parloop_Cells..</text>
</g>
<g >
<title>ParLoopExecute (4,855,047 us, 33.93%)</title><rect x="725.8" y="151" width="400.4" height="15.0" fill="rgb(0,0,0)" rx="2" ry="2" />
<text  x="728.79" y="161.5" >ParLoopExecute</text>
</g>
<g >
<title>firedrake.functionspace.VectorFunctionSpace (6,274 us, 0.04%)</title><rect x="86.5" y="87" width="0.5" height="15.0" fill="rgb(0,0,0)" rx="2" ry="2" />
<text  x="89.50" y="97.5" ></text>
</g>
<g >
<title>solve_memcpy (14,741 us, 0.10%)</title><rect x="263.4" y="199" width="1.2" height="15.0" fill="rgb(0,0,0)" rx="2" ry="2" />
<text  x="266.42" y="209.5" ></text>
</g>
<g >
<title>Log_Event_slate_loopy_knl_14 (281,329 us, 1.97%)</title><rect x="241.4" y="183" width="23.2" height="15.0" fill="rgb(0,0,0)" rx="2" ry="2" />
<text  x="244.43" y="193.5" >L..</text>
</g>
<g >
<title>HybridBreak (50,277 us, 0.35%)</title><rect x="560.1" y="151" width="4.2" height="15.0" fill="rgb(0,0,0)" rx="2" ry="2" />
<text  x="563.13" y="161.5" ></text>
</g>
<g >
<title>SNESSolve (11,806,032 us, 82.52%)</title><rect x="216.3" y="87" width="973.7" height="15.0" fill="rgb(0,0,0)" rx="2" ry="2" />
<text  x="219.27" y="97.5" >SNESSolve</text>
</g>
<g >
<title>Log_Event_subkernel5_interior_facet_horiz_top_to__exterior_facet_top_integral_otherwise (16,038 us, 0.11%)</title><rect x="614.6" y="199" width="1.3" height="15.0" fill="rgb(0,0,0)" rx="2" ry="2" />
<text  x="617.60" y="209.5" ></text>
</g>
<g >
<title>firedrake.functionspace.MixedFunctionSpace (1,645 us, 0.01%)</title><rect x="707.4" y="151" width="0.1" height="15.0" fill="rgb(0,0,0)" rx="2" ry="2" />
<text  x="710.40" y="161.5" ></text>
</g>
<g >
<title>CreateFunctionSpace (1,645 us, 0.01%)</title><rect x="707.4" y="167" width="0.1" height="15.0" fill="rgb(0,0,0)" rx="2" ry="2" />
<text  x="710.40" y="177.5" ></text>
</g>
<g >
<title>Log_Event_subkernel13_interior_facet_vert_to__exterior_facet_vert_integral_otherwise (196,707 us, 1.37%)</title><rect x="536.7" y="199" width="16.2" height="15.0" fill="rgb(0,0,0)" rx="2" ry="2" />
<text  x="539.66" y="209.5" ></text>
</g>
<g >
<title>firedrake.functionspacedata.FunctionSpaceData.__init__ (3,217 us, 0.02%)</title><rect x="1172.0" y="231" width="0.3" height="15.0" fill="rgb(0,0,0)" rx="2" ry="2" />
<text  x="1175.02" y="241.5" ></text>
</g>
<g >
<title>inv_getrf (435,350 us, 3.04%)</title><rect x="841.0" y="199" width="35.9" height="15.0" fill="rgb(0,0,0)" rx="2" ry="2" />
<text  x="843.99" y="209.5" >in..</text>
</g>
<g >
<title>inv_memcpy (14,004 us, 0.10%)</title><rect x="463.3" y="215" width="1.2" height="15.0" fill="rgb(0,0,0)" rx="2" ry="2" />
<text  x="466.33" y="225.5" ></text>
</g>
<g >
<title>firedrake.ufl_expr.adjoint (2,418 us, 0.02%)</title><rect x="1179.3" y="135" width="0.2" height="15.0" fill="rgb(0,0,0)" rx="2" ry="2" />
<text  x="1182.33" y="145.5" ></text>
</g>
<g >
<title>solve_getrf (247,703 us, 1.73%)</title><rect x="242.0" y="199" width="20.4" height="15.0" fill="rgb(0,0,0)" rx="2" ry="2" />
<text  x="245.00" y="209.5" ></text>
</g>
<g >
<title>firedrake.assemble.allocate_matrix (7,525 us, 0.05%)</title><rect x="215.4" y="87" width="0.6" height="15.0" fill="rgb(0,0,0)" rx="2" ry="2" />
<text  x="218.41" y="97.5" ></text>
</g>
<g >
<title>Log_Event_slate_loopy_knl_7 (2,313,676 us, 16.17%)</title><rect x="320.4" y="199" width="190.8" height="15.0" fill="rgb(0,0,0)" rx="2" ry="2" />
<text  x="323.38" y="209.5" >Log_Event_slate_loopy_..</text>
</g>
<g >
<title>inv_getri (959,376 us, 6.71%)</title><rect x="384.2" y="215" width="79.1" height="15.0" fill="rgb(0,0,0)" rx="2" ry="2" />
<text  x="387.21" y="225.5" >inv_getri</text>
</g>
<g >
<title>CreateExtMesh (74,698 us, 0.52%)</title><rect x="80.9" y="71" width="6.1" height="15.0" fill="rgb(0,0,0)" rx="2" ry="2" />
<text  x="83.85" y="81.5" ></text>
</g>
<g >
<title>pyop2.global_kernel.GlobalKernel.compile (36,684 us, 0.26%)</title><rect x="1123.2" y="183" width="3.0" height="15.0" fill="rgb(0,0,0)" rx="2" ry="2" />
<text  x="1126.19" y="193.5" ></text>
</g>
<g >
<title>inv_getrf (243,475 us, 1.70%)</title><rect x="364.1" y="215" width="20.1" height="15.0" fill="rgb(0,0,0)" rx="2" ry="2" />
<text  x="367.13" y="225.5" ></text>
</g>
<g >
<title>solve_getrf (440,438 us, 3.08%)</title><rect x="573.5" y="215" width="36.4" height="15.0" fill="rgb(0,0,0)" rx="2" ry="2" />
<text  x="576.54" y="225.5" >so..</text>
</g>
<g >
<title>Log_Event_subkernel3_interior_facet_horiz_bottom_to__exterior_facet_bottom_integral_otherwise (15,533 us, 0.11%)</title><rect x="1106.9" y="183" width="1.2" height="15.0" fill="rgb(0,0,0)" rx="2" ry="2" />
<text  x="1109.85" y="193.5" ></text>
</g>
<g >
<title>Log_Event_subkernel6_cell_to__cell_integral_otherwise (582,214 us, 4.07%)</title><rect x="634.1" y="199" width="48.0" height="15.0" fill="rgb(0,0,0)" rx="2" ry="2" />
<text  x="637.06" y="209.5" >Log_..</text>
</g>
<g >
<title>firedrake.functionspaceimpl.FunctionSpace.__init__ (1,645 us, 0.01%)</title><rect x="707.4" y="183" width="0.1" height="15.0" fill="rgb(0,0,0)" rx="2" ry="2" />
<text  x="710.40" y="193.5" ></text>
</g>
</g>
</svg>
