<?xml version="1.0" standalone="no"?>
<!DOCTYPE svg PUBLIC "-//W3C//DTD SVG 1.1//EN" "http://www.w3.org/Graphics/SVG/1.1/DTD/svg11.dtd">
<svg version="1.1" width="1200" height="267" onload="init(evt)" viewBox="0 0 1200 267" xmlns="http://www.w3.org/2000/svg" xmlns:xlink="http://www.w3.org/1999/xlink">
<!-- Flame graph stack visualization. See https://github.com/brendangregg/FlameGraph for latest version, and http://www.brendangregg.com/flamegraphs.html for examples. -->
<!-- NOTES:  -->
<defs>
	<linearGradient id="background" y1="0" y2="1" x1="0" x2="0" >
		<stop stop-color="#eeeeee" offset="5%" />
		<stop stop-color="#eeeeb0" offset="95%" />
	</linearGradient>
</defs>
<style type="text/css">
	text { font-family:Verdana; font-size:13px; fill:rgb(0,0,0); }
	#search, #ignorecase { opacity:0.1; cursor:pointer; }
	#search:hover, #search.show, #ignorecase:hover, #ignorecase.show { opacity:1; }
	#subtitle { text-anchor:middle; font-color:rgb(160,160,160); }
	#title { text-anchor:middle; font-size:18px}
	#unzoom { cursor:pointer; }
	#frames > *:hover { stroke:black; stroke-width:0.5; cursor:pointer; }
	.hide { display:none; }
	.parent { opacity:0.5; }
</style>
<script type="text/ecmascript">
<![CDATA[
	"use strict";
	var details, searchbtn, unzoombtn, matchedtxt, svg, searching, currentSearchTerm, ignorecase, ignorecaseBtn;
	function init(evt) {
		details = document.getElementById("details").firstChild;
		searchbtn = document.getElementById("search");
		ignorecaseBtn = document.getElementById("ignorecase");
		unzoombtn = document.getElementById("unzoom");
		matchedtxt = document.getElementById("matched");
		svg = document.getElementsByTagName("svg")[0];
		searching = 0;
		currentSearchTerm = null;

		// use GET parameters to restore a flamegraphs state.
		var params = get_params();
		if (params.x && params.y)
			zoom(find_group(document.querySelector('[x="' + params.x + '"][y="' + params.y + '"]')));
                if (params.s) search(params.s);
	}

	// event listeners
	window.addEventListener("click", function(e) {
		var target = find_group(e.target);
		if (target) {
			if (target.nodeName == "a") {
				if (e.ctrlKey === false) return;
				e.preventDefault();
			}
			if (target.classList.contains("parent")) unzoom();
			zoom(target);
			if (!document.querySelector('.parent')) {
				clearzoom();
				return;
			}

			// set parameters for zoom state
			var el = target.querySelector("rect");
			if (el && el.attributes && el.attributes.y && el.attributes._orig_x) {
				var params = get_params()
				params.x = el.attributes._orig_x.value;
				params.y = el.attributes.y.value;
				history.replaceState(null, null, parse_params(params));
			}
		}
		else if (e.target.id == "unzoom") clearzoom();
		else if (e.target.id == "search") search_prompt();
		else if (e.target.id == "ignorecase") toggle_ignorecase();
	}, false)

	// mouse-over for info
	// show
	window.addEventListener("mouseover", function(e) {
		var target = find_group(e.target);
		if (target) details.nodeValue = "Function: " + g_to_text(target);
	}, false)

	// clear
	window.addEventListener("mouseout", function(e) {
		var target = find_group(e.target);
		if (target) details.nodeValue = ' ';
	}, false)

	// ctrl-F for search
	// ctrl-I to toggle case-sensitive search
	window.addEventListener("keydown",function (e) {
		if (e.keyCode === 114 || (e.ctrlKey && e.keyCode === 70)) {
			e.preventDefault();
			search_prompt();
		}
		else if (e.ctrlKey && e.keyCode === 73) {
			e.preventDefault();
			toggle_ignorecase();
		}
	}, false)

	// functions
	function get_params() {
		var params = {};
		var paramsarr = window.location.search.substr(1).split('&');
		for (var i = 0; i < paramsarr.length; ++i) {
			var tmp = paramsarr[i].split("=");
			if (!tmp[0] || !tmp[1]) continue;
			params[tmp[0]]  = decodeURIComponent(tmp[1]);
		}
		return params;
	}
	function parse_params(params) {
		var uri = "?";
		for (var key in params) {
			uri += key + '=' + encodeURIComponent(params[key]) + '&';
		}
		if (uri.slice(-1) == "&")
			uri = uri.substring(0, uri.length - 1);
		if (uri == '?')
			uri = window.location.href.split('?')[0];
		return uri;
	}
	function find_child(node, selector) {
		var children = node.querySelectorAll(selector);
		if (children.length) return children[0];
	}
	function find_group(node) {
		var parent = node.parentElement;
		if (!parent) return;
		if (parent.id == "frames") return node;
		return find_group(parent);
	}
	function orig_save(e, attr, val) {
		if (e.attributes["_orig_" + attr] != undefined) return;
		if (e.attributes[attr] == undefined) return;
		if (val == undefined) val = e.attributes[attr].value;
		e.setAttribute("_orig_" + attr, val);
	}
	function orig_load(e, attr) {
		if (e.attributes["_orig_"+attr] == undefined) return;
		e.attributes[attr].value = e.attributes["_orig_" + attr].value;
		e.removeAttribute("_orig_"+attr);
	}
	function g_to_text(e) {
		var text = find_child(e, "title").firstChild.nodeValue;
		return (text)
	}
	function g_to_func(e) {
		var func = g_to_text(e);
		// if there's any manipulation we want to do to the function
		// name before it's searched, do it here before returning.
		return (func);
	}
	function update_text(e) {
		var r = find_child(e, "rect");
		var t = find_child(e, "text");
		var w = parseFloat(r.attributes.width.value) -3;
		var txt = find_child(e, "title").textContent.replace(/\([^(]*\)$/,"");
		t.attributes.x.value = parseFloat(r.attributes.x.value) + 3;

		// Smaller than this size won't fit anything
		if (w < 2 * 13 * 0.59) {
			t.textContent = "";
			return;
		}

		t.textContent = txt;
		// Fit in full text width
		if (/^ *$/.test(txt) || t.getSubStringLength(0, txt.length) < w)
			return;

		for (var x = txt.length - 2; x > 0; x--) {
			if (t.getSubStringLength(0, x + 2) <= w) {
				t.textContent = txt.substring(0, x) + "..";
				return;
			}
		}
		t.textContent = "";
	}

	// zoom
	function zoom_reset(e) {
		if (e.attributes != undefined) {
			orig_load(e, "x");
			orig_load(e, "width");
		}
		if (e.childNodes == undefined) return;
		for (var i = 0, c = e.childNodes; i < c.length; i++) {
			zoom_reset(c[i]);
		}
	}
	function zoom_child(e, x, ratio) {
		if (e.attributes != undefined) {
			if (e.attributes.x != undefined) {
				orig_save(e, "x");
				e.attributes.x.value = (parseFloat(e.attributes.x.value) - x - 10) * ratio + 10;
				if (e.tagName == "text")
					e.attributes.x.value = find_child(e.parentNode, "rect[x]").attributes.x.value + 3;
			}
			if (e.attributes.width != undefined) {
				orig_save(e, "width");
				e.attributes.width.value = parseFloat(e.attributes.width.value) * ratio;
			}
		}

		if (e.childNodes == undefined) return;
		for (var i = 0, c = e.childNodes; i < c.length; i++) {
			zoom_child(c[i], x - 10, ratio);
		}
	}
	function zoom_parent(e) {
		if (e.attributes) {
			if (e.attributes.x != undefined) {
				orig_save(e, "x");
				e.attributes.x.value = 10;
			}
			if (e.attributes.width != undefined) {
				orig_save(e, "width");
				e.attributes.width.value = parseInt(svg.width.baseVal.value) - (10 * 2);
			}
		}
		if (e.childNodes == undefined) return;
		for (var i = 0, c = e.childNodes; i < c.length; i++) {
			zoom_parent(c[i]);
		}
	}
	function zoom(node) {
		var attr = find_child(node, "rect").attributes;
		var width = parseFloat(attr.width.value);
		var xmin = parseFloat(attr.x.value);
		var xmax = parseFloat(xmin + width);
		var ymin = parseFloat(attr.y.value);
		var ratio = (svg.width.baseVal.value - 2 * 10) / width;

		// XXX: Workaround for JavaScript float issues (fix me)
		var fudge = 0.0001;

		unzoombtn.classList.remove("hide");

		var el = document.getElementById("frames").children;
		for (var i = 0; i < el.length; i++) {
			var e = el[i];
			var a = find_child(e, "rect").attributes;
			var ex = parseFloat(a.x.value);
			var ew = parseFloat(a.width.value);
			var upstack;
			// Is it an ancestor
			if (1 == 0) {
				upstack = parseFloat(a.y.value) > ymin;
			} else {
				upstack = parseFloat(a.y.value) < ymin;
			}
			if (upstack) {
				// Direct ancestor
				if (ex <= xmin && (ex+ew+fudge) >= xmax) {
					e.classList.add("parent");
					zoom_parent(e);
					update_text(e);
				}
				// not in current path
				else
					e.classList.add("hide");
			}
			// Children maybe
			else {
				// no common path
				if (ex < xmin || ex + fudge >= xmax) {
					e.classList.add("hide");
				}
				else {
					zoom_child(e, xmin, ratio);
					update_text(e);
				}
			}
		}
		search();
	}
	function unzoom() {
		unzoombtn.classList.add("hide");
		var el = document.getElementById("frames").children;
		for(var i = 0; i < el.length; i++) {
			el[i].classList.remove("parent");
			el[i].classList.remove("hide");
			zoom_reset(el[i]);
			update_text(el[i]);
		}
		search();
	}
	function clearzoom() {
		unzoom();

		// remove zoom state
		var params = get_params();
		if (params.x) delete params.x;
		if (params.y) delete params.y;
		history.replaceState(null, null, parse_params(params));
	}

	// search
	function toggle_ignorecase() {
		ignorecase = !ignorecase;
		if (ignorecase) {
			ignorecaseBtn.classList.add("show");
		} else {
			ignorecaseBtn.classList.remove("show");
		}
		reset_search();
		search();
	}
	function reset_search() {
		var el = document.querySelectorAll("#frames rect");
		for (var i = 0; i < el.length; i++) {
			orig_load(el[i], "fill")
		}
		var params = get_params();
		delete params.s;
		history.replaceState(null, null, parse_params(params));
	}
	function search_prompt() {
		if (!searching) {
			var term = prompt("Enter a search term (regexp " +
			    "allowed, eg: ^ext4_)"
			    + (ignorecase ? ", ignoring case" : "")
			    + "\nPress Ctrl-i to toggle case sensitivity", "");
			if (term != null) search(term);
		} else {
			reset_search();
			searching = 0;
			currentSearchTerm = null;
			searchbtn.classList.remove("show");
			searchbtn.firstChild.nodeValue = "Search"
			matchedtxt.classList.add("hide");
			matchedtxt.firstChild.nodeValue = ""
		}
	}
	function search(term) {
		if (term) currentSearchTerm = term;

		var re = new RegExp(currentSearchTerm, ignorecase ? 'i' : '');
		var el = document.getElementById("frames").children;
		var matches = new Object();
		var maxwidth = 0;
		for (var i = 0; i < el.length; i++) {
			var e = el[i];
			var func = g_to_func(e);
			var rect = find_child(e, "rect");
			if (func == null || rect == null)
				continue;

			// Save max width. Only works as we have a root frame
			var w = parseFloat(rect.attributes.width.value);
			if (w > maxwidth)
				maxwidth = w;

			if (func.match(re)) {
				// highlight
				var x = parseFloat(rect.attributes.x.value);
				orig_save(rect, "fill");
				rect.attributes.fill.value = "rgb(230,0,230)";

				// remember matches
				if (matches[x] == undefined) {
					matches[x] = w;
				} else {
					if (w > matches[x]) {
						// overwrite with parent
						matches[x] = w;
					}
				}
				searching = 1;
			}
		}
		if (!searching)
			return;
		var params = get_params();
		params.s = currentSearchTerm;
		history.replaceState(null, null, parse_params(params));

		searchbtn.classList.add("show");
		searchbtn.firstChild.nodeValue = "Reset Search";

		// calculate percent matched, excluding vertical overlap
		var count = 0;
		var lastx = -1;
		var lastw = 0;
		var keys = Array();
		for (k in matches) {
			if (matches.hasOwnProperty(k))
				keys.push(k);
		}
		// sort the matched frames by their x location
		// ascending, then width descending
		keys.sort(function(a, b){
			return a - b;
		});
		// Step through frames saving only the biggest bottom-up frames
		// thanks to the sort order. This relies on the tree property
		// where children are always smaller than their parents.
		var fudge = 0.0001;	// JavaScript floating point
		for (var k in keys) {
			var x = parseFloat(keys[k]);
			var w = matches[keys[k]];
			if (x >= lastx + lastw - fudge) {
				count += w;
				lastx = x;
				lastw = w;
			}
		}
		// display matched percent
		matchedtxt.classList.remove("hide");
		var pct = 100 * count / maxwidth;
		if (pct != 100) pct = pct.toFixed(1)
		matchedtxt.firstChild.nodeValue = "Matched: " + pct + "%";
	}
]]>
</script>
<rect x="0.0" y="0" width="1200.0" height="267.0" fill="url(#background)"  />
<text id="title" x="600.00" y="26" >Firedrake example</text>
<text id="details" x="10.00" y="249" > </text>
<text id="unzoom" x="10.00" y="26" class="hide">Reset Zoom</text>
<text id="search" x="1090.00" y="26" >Search</text>
<text id="ignorecase" x="1174.00" y="26" >ic</text>
<text id="matched" x="1090.00" y="249" > </text>
<g id="frames">
<g >
<title>SCForwardElim (32,770,192 us, 21.05%)</title><rect x="513.5" y="135" width="248.4" height="15.0" fill="rgb(0,0,0)" rx="2" ry="2" />
<text  x="516.51" y="145.5" >SCForwardElim</text>
</g>
<g >
<title>PCSetUp (46,747,071 us, 30.03%)</title><rect x="763.7" y="103" width="354.4" height="15.0" fill="rgb(0,0,0)" rx="2" ry="2" />
<text  x="766.72" y="113.5" >PCSetUp</text>
</g>
<g >
<title>Parloop_Cells_wrap_pyop2_kernel_uniform_extrusion (886,621 us, 0.57%)</title><rect x="17.1" y="119" width="6.7" height="15.0" fill="rgb(0,0,0)" rx="2" ry="2" />
<text  x="20.06" y="129.5" ></text>
</g>
<g >
<title>Parloop_Cells_wrap_par_loop_kernel (861,599 us, 0.55%)</title><rect x="513.5" y="199" width="6.5" height="15.0" fill="rgb(0,0,0)" rx="2" ry="2" />
<text  x="516.51" y="209.5" ></text>
</g>
<g >
<title>firedrake.parloops.par_loop (674,520 us, 0.43%)</title><rect x="1113.0" y="135" width="5.1" height="15.0" fill="rgb(0,0,0)" rx="2" ry="2" />
<text  x="1115.95" y="145.5" ></text>
</g>
<g >
<title>Log_Event_slate_loopy_knl_7 (2,320,589 us, 1.49%)</title><rect x="238.2" y="199" width="17.6" height="15.0" fill="rgb(0,0,0)" rx="2" ry="2" />
<text  x="241.17" y="209.5" ></text>
</g>
<g >
<title>firedrake.functionspacedata.FunctionSpaceData.__init__ (26,071 us, 0.02%)</title><rect x="23.8" y="119" width="0.2" height="15.0" fill="rgb(0,0,0)" rx="2" ry="2" />
<text  x="26.78" y="129.5" ></text>
</g>
<g >
<title>HybridInit (46,747,071 us, 30.03%)</title><rect x="763.7" y="119" width="354.4" height="15.0" fill="rgb(0,0,0)" rx="2" ry="2" />
<text  x="766.72" y="129.5" >HybridInit</text>
</g>
<g >
<title>Log_Event_subkernel17_interior_facet_vert_to__exterior_facet_vert_integral_otherwise (196,516 us, 0.13%)</title><rect x="56.4" y="183" width="1.5" height="15.0" fill="rgb(0,0,0)" rx="2" ry="2" />
<text  x="59.40" y="193.5" ></text>
</g>
<g >
<title>Parloop_Cells_wrap_wrap_slate_loopy_knl_0 (39,352,973 us, 25.28%)</title><rect x="778.6" y="167" width="298.3" height="15.0" fill="rgb(0,0,0)" rx="2" ry="2" />
<text  x="781.57" y="177.5" >Parloop_Cells_wrap_wrap_slate_loopy_..</text>
</g>
<g >
<title>Log_Event_subkernel13_interior_facet_horiz_top_to__exterior_facet_top_integral_otherwise (24,431 us, 0.02%)</title><rect x="257.9" y="199" width="0.2" height="15.0" fill="rgb(0,0,0)" rx="2" ry="2" />
<text  x="260.93" y="209.5" ></text>
</g>
<g >
<title>firedrake.tsfc_interface.compile_form (4,184,709 us, 2.69%)</title><rect x="1076.9" y="151" width="31.7" height="15.0" fill="rgb(0,0,0)" rx="2" ry="2" />
<text  x="1079.86" y="161.5" >fi..</text>
</g>
<g >
<title>Log_Event_slate_loopy_knl_4 (477,725 us, 0.31%)</title><rect x="529.4" y="199" width="3.6" height="15.0" fill="rgb(0,0,0)" rx="2" ry="2" />
<text  x="532.40" y="209.5" ></text>
</g>
<g >
<title>HybridRHS (31,908,593 us, 20.50%)</title><rect x="520.0" y="151" width="241.9" height="15.0" fill="rgb(0,0,0)" rx="2" ry="2" />
<text  x="523.04" y="161.5" >HybridRHS</text>
</g>
<g >
<title>ParLoopExecute (28,069,904 us, 18.03%)</title><rect x="529.0" y="167" width="212.8" height="15.0" fill="rgb(0,0,0)" rx="2" ry="2" />
<text  x="532.00" y="177.5" >ParLoopExecute</text>
</g>
<g >
<title>Log_Event_inits_wrap_slate_loopy_knl_4 (17,006 us, 0.01%)</title><rect x="529.3" y="199" width="0.1" height="15.0" fill="rgb(0,0,0)" rx="2" ry="2" />
<text  x="532.27" y="209.5" ></text>
</g>
<g >
<title>firedrake.tsfc_interface.compile_form (1,251,006 us, 0.80%)</title><rect x="1180.5" y="119" width="9.5" height="15.0" fill="rgb(0,0,0)" rx="2" ry="2" />
<text  x="1183.52" y="129.5" ></text>
</g>
<g >
<title>firedrake.extrusion_utils.make_extruded_coords (919,077 us, 0.59%)</title><rect x="16.8" y="87" width="7.0" height="15.0" fill="rgb(0,0,0)" rx="2" ry="2" />
<text  x="19.81" y="97.5" ></text>
</g>
<g >
<title>inv_getri (965,546 us, 0.62%)</title><rect x="244.2" y="215" width="7.3" height="15.0" fill="rgb(0,0,0)" rx="2" ry="2" />
<text  x="247.17" y="225.5" ></text>
</g>
<g >
<title>firedrake.parloops.par_loop (861,599 us, 0.55%)</title><rect x="513.5" y="167" width="6.5" height="15.0" fill="rgb(0,0,0)" rx="2" ry="2" />
<text  x="516.51" y="177.5" ></text>
</g>
<g >
<title>Log_Event_subkernel13_interior_facet_vert_to__exterior_facet_vert_integral_otherwise (195,171 us, 0.13%)</title><rect x="258.1" y="199" width="1.5" height="15.0" fill="rgb(0,0,0)" rx="2" ry="2" />
<text  x="261.11" y="209.5" ></text>
</g>
<g >
<title>firedrake.functionspacedata.get_shared_data (26,071 us, 0.02%)</title><rect x="23.8" y="103" width="0.2" height="15.0" fill="rgb(0,0,0)" rx="2" ry="2" />
<text  x="26.78" y="113.5" ></text>
</g>
<g >
<title>ParLoopExecute (883,445 us, 0.57%)</title><rect x="44.9" y="183" width="6.7" height="15.0" fill="rgb(0,0,0)" rx="2" ry="2" />
<text  x="47.89" y="193.5" ></text>
</g>
<g >
<title>MatZeroInitial (137,626 us, 0.09%)</title><rect x="1111.6" y="151" width="1.1" height="15.0" fill="rgb(0,0,0)" rx="2" ry="2" />
<text  x="1114.65" y="161.5" ></text>
</g>
<g >
<title>ParLoopExecute (861,599 us, 0.55%)</title><rect x="513.5" y="183" width="6.5" height="15.0" fill="rgb(0,0,0)" rx="2" ry="2" />
<text  x="516.51" y="193.5" ></text>
</g>
<g >
<title>firedrake.functionspaceimpl.FunctionSpace.__init__ (26,071 us, 0.02%)</title><rect x="23.8" y="87" width="0.2" height="15.0" fill="rgb(0,0,0)" rx="2" ry="2" />
<text  x="26.78" y="97.5" ></text>
</g>
<g >
<title>Log_Event_subkernel13_interior_facet_horiz_bottom_to__exterior_facet_bottom_integral_otherwise (23,842 us, 0.02%)</title><rect x="257.7" y="199" width="0.2" height="15.0" fill="rgb(0,0,0)" rx="2" ry="2" />
<text  x="260.75" y="209.5" ></text>
</g>
<g >
<title>Log_Event_subkernel10_cell_to__cell_integral_otherwise (164,671 us, 0.11%)</title><rect x="255.8" y="199" width="1.2" height="15.0" fill="rgb(0,0,0)" rx="2" ry="2" />
<text  x="258.77" y="209.5" ></text>
</g>
<g >
<title>Log_Event_subkernel5_interior_facet_horiz_top_to__exterior_facet_top_integral_otherwise (15,812 us, 0.01%)</title><rect x="533.0" y="199" width="0.1" height="15.0" fill="rgb(0,0,0)" rx="2" ry="2" />
<text  x="536.02" y="209.5" ></text>
</g>
<g >
<title>pyop2.global_kernel.GlobalKernel.compile (21,982,778 us, 14.12%)</title><rect x="57.9" y="183" width="166.6" height="15.0" fill="rgb(0,0,0)" rx="2" ry="2" />
<text  x="60.89" y="193.5" >pyop2.global_kernel..</text>
</g>
<g >
<title>firedrake (155,672,501 us, 100.00%)</title><rect x="10.0" y="55" width="1180.0" height="15.0" fill="rgb(0,0,0)" rx="2" ry="2" />
<text  x="13.00" y="65.5" >firedrake</text>
</g>
<g >
<title>ParLoopExecute (886,621 us, 0.57%)</title><rect x="17.1" y="103" width="6.7" height="15.0" fill="rgb(0,0,0)" rx="2" ry="2" />
<text  x="20.06" y="113.5" ></text>
</g>
<g >
<title>firedrake.variational_solver.NonlinearVariationalSolver.solve (152,282,623 us, 97.82%)</title><rect x="35.7" y="71" width="1154.3" height="15.0" fill="rgb(0,0,0)" rx="2" ry="2" />
<text  x="38.70" y="81.5" >firedrake.variational_solver.NonlinearVariationalSolver.solve</text>
</g>
<g >
<title>firedrake.tsfc_interface.compile_form (3,797,975 us, 2.44%)</title><rect x="464.1" y="167" width="28.8" height="15.0" fill="rgb(0,0,0)" rx="2" ry="2" />
<text  x="467.09" y="177.5" >f..</text>
</g>
<g >
<title>KSPSolve (239,164 us, 0.15%)</title><rect x="761.9" y="151" width="1.8" height="15.0" fill="rgb(0,0,0)" rx="2" ry="2" />
<text  x="764.91" y="161.5" ></text>
</g>
<g >
<title>Parloop_Cells_wrap_par_loop_kernel (883,445 us, 0.57%)</title><rect x="44.9" y="199" width="6.7" height="15.0" fill="rgb(0,0,0)" rx="2" ry="2" />
<text  x="47.89" y="209.5" ></text>
</g>
<g >
<title>CreateFunctionSpace (26,071 us, 0.02%)</title><rect x="23.8" y="71" width="0.2" height="15.0" fill="rgb(0,0,0)" rx="2" ry="2" />
<text  x="26.78" y="81.5" ></text>
</g>
<g >
<title>Log_Event_subkernel17_interior_facet_horiz_bottom_to__exterior_facet_bottom_integral_otherwise (24,379 us, 0.02%)</title><rect x="56.0" y="183" width="0.2" height="15.0" fill="rgb(0,0,0)" rx="2" ry="2" />
<text  x="59.03" y="193.5" ></text>
</g>
<g >
<title>firedrake.assemble.allocate_matrix (542,264 us, 0.35%)</title><rect x="1108.6" y="135" width="4.1" height="15.0" fill="rgb(0,0,0)" rx="2" ry="2" />
<text  x="1111.58" y="145.5" ></text>
</g>
<g >
<title>pyop2.global_kernel.GlobalKernel.compile (34,520,115 us, 22.17%)</title><rect x="815.2" y="183" width="261.7" height="15.0" fill="rgb(0,0,0)" rx="2" ry="2" />
<text  x="818.20" y="193.5" >pyop2.global_kernel.GlobalKernel..</text>
</g>
<g >
<title>ParLoopExecute (39,352,973 us, 25.28%)</title><rect x="778.6" y="151" width="298.3" height="15.0" fill="rgb(0,0,0)" rx="2" ry="2" />
<text  x="781.57" y="161.5" >ParLoopExecute</text>
</g>
<g >
<title>ParLoopExecute (674,520 us, 0.43%)</title><rect x="1113.0" y="151" width="5.1" height="15.0" fill="rgb(0,0,0)" rx="2" ry="2" />
<text  x="1115.95" y="161.5" ></text>
</g>
<g >
<title>CreateSparsity (404,638 us, 0.26%)</title><rect x="1108.6" y="151" width="3.0" height="15.0" fill="rgb(0,0,0)" rx="2" ry="2" />
<text  x="1111.58" y="161.5" ></text>
</g>
<g >
<title>SCBackSub (63,035,934 us, 40.49%)</title><rect x="35.7" y="135" width="477.8" height="15.0" fill="rgb(0,0,0)" rx="2" ry="2" />
<text  x="38.70" y="145.5" >SCBackSub</text>
</g>
<g >
<title>pyop2.global_kernel.GlobalKernel.compile (4,129,533 us, 2.65%)</title><rect x="1149.2" y="151" width="31.3" height="15.0" fill="rgb(0,0,0)" rx="2" ry="2" />
<text  x="1152.22" y="161.5" >py..</text>
</g>
<g >
<title>Log_Event_slate_loopy_knl_14 (283,639 us, 0.18%)</title><rect x="51.9" y="183" width="2.1" height="15.0" fill="rgb(0,0,0)" rx="2" ry="2" />
<text  x="54.86" y="193.5" ></text>
</g>
<g >
<title>CreateFunctionSpace (16,212 us, 0.01%)</title><rect x="764.0" y="135" width="0.1" height="15.0" fill="rgb(0,0,0)" rx="2" ry="2" />
<text  x="767.02" y="145.5" ></text>
</g>
<g >
<title>solve_getrs (24,548 us, 0.02%)</title><rect x="255.3" y="215" width="0.2" height="15.0" fill="rgb(0,0,0)" rx="2" ry="2" />
<text  x="258.35" y="225.5" ></text>
</g>
<g >
<title>solve_getrf (435,927 us, 0.28%)</title><rect x="529.4" y="215" width="3.3" height="15.0" fill="rgb(0,0,0)" rx="2" ry="2" />
<text  x="532.40" y="225.5" ></text>
</g>
<g >
<title>RecoverFirstElim (35,402,717 us, 22.74%)</title><rect x="224.5" y="151" width="268.4" height="15.0" fill="rgb(0,0,0)" rx="2" ry="2" />
<text  x="227.52" y="161.5" >RecoverFirstElim</text>
</g>
<g >
<title>solve_memcpy (24,350 us, 0.02%)</title><rect x="532.8" y="215" width="0.2" height="15.0" fill="rgb(0,0,0)" rx="2" ry="2" />
<text  x="535.83" y="225.5" ></text>
</g>
<g >
<title>inv_memcpy (24,823 us, 0.02%)</title><rect x="807.6" y="199" width="0.2" height="15.0" fill="rgb(0,0,0)" rx="2" ry="2" />
<text  x="810.60" y="209.5" ></text>
</g>
<g >
<title>pyop2.global_kernel.GlobalKernel.compile (861,599 us, 0.55%)</title><rect x="513.5" y="215" width="6.5" height="15.0" fill="rgb(0,0,0)" rx="2" ry="2" />
<text  x="516.51" y="225.5" ></text>
</g>
<g >
<title>solve_getrf (509,226 us, 0.33%)</title><rect x="251.5" y="215" width="3.8" height="15.0" fill="rgb(0,0,0)" rx="2" ry="2" />
<text  x="254.49" y="225.5" ></text>
</g>
<g >
<title>Log_Event_subkernel17_interior_facet_horiz_top_to__exterior_facet_top_integral_otherwise (24,846 us, 0.02%)</title><rect x="56.2" y="183" width="0.2" height="15.0" fill="rgb(0,0,0)" rx="2" ry="2" />
<text  x="59.22" y="193.5" ></text>
</g>
<g >
<title>SNESFunctionEval (9,490,262 us, 6.10%)</title><rect x="1118.1" y="103" width="71.9" height="15.0" fill="rgb(0,0,0)" rx="2" ry="2" />
<text  x="1121.06" y="113.5" >SNESFun..</text>
</g>
<g >
<title>HybridBreak (861,599 us, 0.55%)</title><rect x="513.5" y="151" width="6.5" height="15.0" fill="rgb(0,0,0)" rx="2" ry="2" />
<text  x="516.51" y="161.5" ></text>
</g>
<g >
<title>Log_Event_subkernel3_interior_facet_vert_to__exterior_facet_vert_integral_otherwise (168,172 us, 0.11%)</title><rect x="813.9" y="183" width="1.3" height="15.0" fill="rgb(0,0,0)" rx="2" ry="2" />
<text  x="816.92" y="193.5" ></text>
</g>
<g >
<title>CreateExtMesh (919,077 us, 0.59%)</title><rect x="16.8" y="71" width="7.0" height="15.0" fill="rgb(0,0,0)" rx="2" ry="2" />
<text  x="19.81" y="81.5" ></text>
</g>
<g >
<title>Log_Event_subkernel9_cell_to__cell_integral_otherwise (45,564 us, 0.03%)</title><rect x="259.6" y="199" width="0.3" height="15.0" fill="rgb(0,0,0)" rx="2" ry="2" />
<text  x="262.59" y="209.5" ></text>
</g>
<g >
<title>solve_getrs (17,448 us, 0.01%)</title><rect x="532.7" y="215" width="0.1" height="15.0" fill="rgb(0,0,0)" rx="2" ry="2" />
<text  x="535.70" y="225.5" ></text>
</g>
<g >
<title>Log_Event_subkernel15_cell_to__cell_integral_otherwise (169,427 us, 0.11%)</title><rect x="54.0" y="183" width="1.3" height="15.0" fill="rgb(0,0,0)" rx="2" ry="2" />
<text  x="57.01" y="193.5" ></text>
</g>
<g >
<title>Log_Event_subkernel6_cell_to__cell_integral_otherwise (583,767 us, 0.37%)</title><rect x="534.9" y="199" width="4.4" height="15.0" fill="rgb(0,0,0)" rx="2" ry="2" />
<text  x="537.88" y="209.5" ></text>
</g>
<g >
<title>Parloop_Cells_wrap_form1_cell_integral_otherwise (4,129,533 us, 2.65%)</title><rect x="1149.2" y="135" width="31.3" height="15.0" fill="rgb(0,0,0)" rx="2" ry="2" />
<text  x="1152.22" y="145.5" >Pa..</text>
</g>
<g >
<title>SCSolve (239,164 us, 0.15%)</title><rect x="761.9" y="135" width="1.8" height="15.0" fill="rgb(0,0,0)" rx="2" ry="2" />
<text  x="764.91" y="145.5" ></text>
</g>
<g >
<title>firedrake.tsfc_interface.compile_form (2,656,729 us, 1.71%)</title><rect x="741.8" y="167" width="20.1" height="15.0" fill="rgb(0,0,0)" rx="2" ry="2" />
<text  x="744.77" y="177.5" ></text>
</g>
<g >
<title>Log_Event_subkernel3_interior_facet_horiz_top_to__exterior_facet_top_integral_otherwise (15,998 us, 0.01%)</title><rect x="813.8" y="183" width="0.1" height="15.0" fill="rgb(0,0,0)" rx="2" ry="2" />
<text  x="816.80" y="193.5" ></text>
</g>
<g >
<title>firedrake.tsfc_interface.compile_form (2,721,845 us, 1.75%)</title><rect x="492.9" y="151" width="20.6" height="15.0" fill="rgb(0,0,0)" rx="2" ry="2" />
<text  x="495.88" y="161.5" ></text>
</g>
<g >
<title>ParLoopExecute (29,843,107 us, 19.17%)</title><rect x="237.9" y="167" width="226.2" height="15.0" fill="rgb(0,0,0)" rx="2" ry="2" />
<text  x="240.88" y="177.5" >ParLoopExecute</text>
</g>
<g >
<title>solve_memcpy (30,745 us, 0.02%)</title><rect x="255.5" y="215" width="0.3" height="15.0" fill="rgb(0,0,0)" rx="2" ry="2" />
<text  x="258.53" y="225.5" ></text>
</g>
<g >
<title>Parloop_Cells_wrap_wrap_slate_loopy_knl_4 (28,069,904 us, 18.03%)</title><rect x="529.0" y="183" width="212.8" height="15.0" fill="rgb(0,0,0)" rx="2" ry="2" />
<text  x="532.00" y="193.5" >Parloop_Cells_wrap_wrap_s..</text>
</g>
<g >
<title>Parloop_Cells_wrap_par_loop_kernel (674,520 us, 0.43%)</title><rect x="1113.0" y="167" width="5.1" height="15.0" fill="rgb(0,0,0)" rx="2" ry="2" />
<text  x="1115.95" y="177.5" ></text>
</g>
<g >
<title>pyop2.global_kernel.GlobalKernel.compile (674,520 us, 0.43%)</title><rect x="1113.0" y="183" width="5.1" height="15.0" fill="rgb(0,0,0)" rx="2" ry="2" />
<text  x="1115.95" y="193.5" ></text>
</g>
<g >
<title>solve_getrf (249,429 us, 0.16%)</title><rect x="52.1" y="199" width="1.9" height="15.0" fill="rgb(0,0,0)" rx="2" ry="2" />
<text  x="55.12" y="209.5" ></text>
</g>
<g >
<title>HybridProject (883,445 us, 0.57%)</title><rect x="44.9" y="151" width="6.7" height="15.0" fill="rgb(0,0,0)" rx="2" ry="2" />
<text  x="47.89" y="161.5" ></text>
</g>
<g >
<title>pyop2.global_kernel.GlobalKernel.compile (883,445 us, 0.57%)</title><rect x="44.9" y="215" width="6.7" height="15.0" fill="rgb(0,0,0)" rx="2" ry="2" />
<text  x="47.89" y="225.5" ></text>
</g>
<g >
<title>ParLoopExecute (8,239,256 us, 5.29%)</title><rect x="1118.1" y="119" width="62.4" height="15.0" fill="rgb(0,0,0)" rx="2" ry="2" />
<text  x="1121.06" y="129.5" >ParLoo..</text>
</g>
<g >
<title>Log_Event_subkernel1_interior_facet_vert_to__exterior_facet_vert_integral_otherwise (211,313 us, 0.14%)</title><rect x="807.8" y="183" width="1.6" height="15.0" fill="rgb(0,0,0)" rx="2" ry="2" />
<text  x="810.79" y="193.5" ></text>
</g>
<g >
<title>inv_getri (1,946,884 us, 1.25%)</title><rect x="792.8" y="199" width="14.8" height="15.0" fill="rgb(0,0,0)" rx="2" ry="2" />
<text  x="795.84" y="209.5" ></text>
</g>
<g >
<title>ParLoopExecute (22,815,391 us, 14.66%)</title><rect x="51.6" y="151" width="172.9" height="15.0" fill="rgb(0,0,0)" rx="2" ry="2" />
<text  x="54.58" y="161.5" >ParLoopExecute</text>
</g>
<g >
<title>Parloop_Cells_wrap_wrap_slate_loopy_knl_14 (22,815,391 us, 14.66%)</title><rect x="51.6" y="167" width="172.9" height="15.0" fill="rgb(0,0,0)" rx="2" ry="2" />
<text  x="54.58" y="177.5" >Parloop_Cells_wrap_w..</text>
</g>
<g >
<title>Log_Event_slate_loopy_knl_0 (3,662,485 us, 2.35%)</title><rect x="780.0" y="183" width="27.8" height="15.0" fill="rgb(0,0,0)" rx="2" ry="2" />
<text  x="783.03" y="193.5" >L..</text>
</g>
<g >
<title>PCApply (96,045,290 us, 61.70%)</title><rect x="35.7" y="119" width="728.0" height="15.0" fill="rgb(0,0,0)" rx="2" ry="2" />
<text  x="38.70" y="129.5" >PCApply</text>
</g>
<g >
<title>all (155,672,501 us, 100%)</title><rect x="10.0" y="39" width="1180.0" height="15.0" fill="rgb(0,0,0)" rx="2" ry="2" />
<text  x="13.00" y="49.5" ></text>
</g>
<g >
<title>Log_Event_inits_wrap_slate_loopy_knl_7 (17,380 us, 0.01%)</title><rect x="238.0" y="199" width="0.2" height="15.0" fill="rgb(0,0,0)" rx="2" ry="2" />
<text  x="241.04" y="209.5" ></text>
</g>
<g >
<title>inv_getrf (437,379 us, 0.28%)</title><rect x="789.5" y="199" width="3.3" height="15.0" fill="rgb(0,0,0)" rx="2" ry="2" />
<text  x="792.53" y="209.5" ></text>
</g>
<g >
<title>pyop2.global_kernel.GlobalKernel.compile (26,932,870 us, 17.30%)</title><rect x="259.9" y="199" width="204.2" height="15.0" fill="rgb(0,0,0)" rx="2" ry="2" />
<text  x="262.94" y="209.5" >pyop2.global_kernel.Glob..</text>
</g>
<g >
<title>firedrake.__init__ (1,527,410 us, 0.98%)</title><rect x="24.0" y="71" width="11.6" height="15.0" fill="rgb(0,0,0)" rx="2" ry="2" />
<text  x="26.98" y="81.5" ></text>
</g>
<g >
<title>Parloop_Cells_wrap_wrap_slate_loopy_knl_7 (29,843,107 us, 19.17%)</title><rect x="237.9" y="183" width="226.2" height="15.0" fill="rgb(0,0,0)" rx="2" ry="2" />
<text  x="240.88" y="193.5" >Parloop_Cells_wrap_wrap_sla..</text>
</g>
<g >
<title>Log_Event_subkernel2_cell_to__cell_integral_otherwise (582,405 us, 0.37%)</title><rect x="809.4" y="183" width="4.4" height="15.0" fill="rgb(0,0,0)" rx="2" ry="2" />
<text  x="812.39" y="193.5" ></text>
</g>
<g >
<title>Log_Event_inits_wrap_slate_loopy_knl_0 (21,853 us, 0.01%)</title><rect x="779.9" y="183" width="0.1" height="15.0" fill="rgb(0,0,0)" rx="2" ry="2" />
<text  x="782.86" y="193.5" ></text>
</g>
<g >
<title>HybridOperatorAssembly (45,440,505 us, 29.19%)</title><rect x="764.1" y="135" width="344.5" height="15.0" fill="rgb(0,0,0)" rx="2" ry="2" />
<text  x="767.14" y="145.5" >HybridOperatorAssembly</text>
</g>
<g >
<title>firedrake.variational_solver.LinearVariationalProblem.__init__ (18,308 us, 0.01%)</title><rect x="35.6" y="71" width="0.1" height="15.0" fill="rgb(0,0,0)" rx="2" ry="2" />
<text  x="38.56" y="81.5" ></text>
</g>
<g >
<title>Log_Event_subkernel5_interior_facet_vert_to__exterior_facet_vert_integral_otherwise (229,165 us, 0.15%)</title><rect x="533.1" y="199" width="1.8" height="15.0" fill="rgb(0,0,0)" rx="2" ry="2" />
<text  x="536.14" y="209.5" ></text>
</g>
<g >
<title>inv_getrf (244,656 us, 0.16%)</title><rect x="242.3" y="215" width="1.9" height="15.0" fill="rgb(0,0,0)" rx="2" ry="2" />
<text  x="245.31" y="225.5" ></text>
</g>
<g >
<title>pyop2.global_kernel.GlobalKernel.compile (4,109,723 us, 2.64%)</title><rect x="1118.1" y="151" width="31.1" height="15.0" fill="rgb(0,0,0)" rx="2" ry="2" />
<text  x="1121.06" y="161.5" >py..</text>
</g>
<g >
<title>firedrake.interpolation.make_interpolator (34,011 us, 0.02%)</title><rect x="1112.7" y="135" width="0.3" height="15.0" fill="rgb(0,0,0)" rx="2" ry="2" />
<text  x="1115.69" y="145.5" ></text>
</g>
<g >
<title>Log_Event_subkernel11_cell_to__cell_integral_otherwise (96,677 us, 0.06%)</title><rect x="257.0" y="199" width="0.7" height="15.0" fill="rgb(0,0,0)" rx="2" ry="2" />
<text  x="260.01" y="209.5" ></text>
</g>
<g >
<title>KSPSolve (96,045,290 us, 61.70%)</title><rect x="35.7" y="103" width="728.0" height="15.0" fill="rgb(0,0,0)" rx="2" ry="2" />
<text  x="38.70" y="113.5" >KSPSolve</text>
</g>
<g >
<title>Parloop_Cells_wrap_form0_cell_integral_otherwise (4,109,723 us, 2.64%)</title><rect x="1118.1" y="135" width="31.1" height="15.0" fill="rgb(0,0,0)" rx="2" ry="2" />
<text  x="1121.06" y="145.5" >Pa..</text>
</g>
<g >
<title>MatMult (239,164 us, 0.15%)</title><rect x="761.9" y="167" width="1.8" height="15.0" fill="rgb(0,0,0)" rx="2" ry="2" />
<text  x="764.91" y="177.5" ></text>
</g>
<g >
<title>Log_Event_subkernel16_cell_to__cell_integral_otherwise (97,658 us, 0.06%)</title><rect x="55.3" y="183" width="0.7" height="15.0" fill="rgb(0,0,0)" rx="2" ry="2" />
<text  x="58.29" y="193.5" ></text>
</g>
<g >
<title>SNESSolve (152,282,623 us, 97.82%)</title><rect x="35.7" y="87" width="1154.3" height="15.0" fill="rgb(0,0,0)" rx="2" ry="2" />
<text  x="38.70" y="97.5" >SNESSolve</text>
</g>
<g >
<title>pyop2.global_kernel.GlobalKernel.compile (26,710,848 us, 17.16%)</title><rect x="539.3" y="199" width="202.5" height="15.0" fill="rgb(0,0,0)" rx="2" ry="2" />
<text  x="542.30" y="209.5" >pyop2.global_kernel.Glob..</text>
</g>
<g >
<title>firedrake.parloops.par_loop (883,445 us, 0.57%)</title><rect x="44.9" y="167" width="6.7" height="15.0" fill="rgb(0,0,0)" rx="2" ry="2" />
<text  x="47.89" y="177.5" ></text>
</g>
<g >
<title>pyop2.global_kernel.GlobalKernel.compile (886,621 us, 0.57%)</title><rect x="17.1" y="135" width="6.7" height="15.0" fill="rgb(0,0,0)" rx="2" ry="2" />
<text  x="20.06" y="145.5" ></text>
</g>
</g>
</svg>
