<?xml version="1.0" standalone="no"?>
<!DOCTYPE svg PUBLIC "-//W3C//DTD SVG 1.1//EN" "http://www.w3.org/Graphics/SVG/1.1/DTD/svg11.dtd">
<svg version="1.1" width="1200" height="299" onload="init(evt)" viewBox="0 0 1200 299" xmlns="http://www.w3.org/2000/svg" xmlns:xlink="http://www.w3.org/1999/xlink">
<!-- Flame graph stack visualization. See https://github.com/brendangregg/FlameGraph for latest version, and http://www.brendangregg.com/flamegraphs.html for examples. -->
<!-- NOTES:  -->
<defs>
	<linearGradient id="background" y1="0" y2="1" x1="0" x2="0" >
		<stop stop-color="#eeeeee" offset="5%" />
		<stop stop-color="#eeeeb0" offset="95%" />
	</linearGradient>
</defs>
<style type="text/css">
	text { font-family:Verdana; font-size:13px; fill:rgb(0,0,0); }
	#search, #ignorecase { opacity:0.1; cursor:pointer; }
	#search:hover, #search.show, #ignorecase:hover, #ignorecase.show { opacity:1; }
	#subtitle { text-anchor:middle; font-color:rgb(160,160,160); }
	#title { text-anchor:middle; font-size:18px}
	#unzoom { cursor:pointer; }
	#frames > *:hover { stroke:black; stroke-width:0.5; cursor:pointer; }
	.hide { display:none; }
	.parent { opacity:0.5; }
</style>
<script type="text/ecmascript">
<![CDATA[
	"use strict";
	var details, searchbtn, unzoombtn, matchedtxt, svg, searching, currentSearchTerm, ignorecase, ignorecaseBtn;
	function init(evt) {
		details = document.getElementById("details").firstChild;
		searchbtn = document.getElementById("search");
		ignorecaseBtn = document.getElementById("ignorecase");
		unzoombtn = document.getElementById("unzoom");
		matchedtxt = document.getElementById("matched");
		svg = document.getElementsByTagName("svg")[0];
		searching = 0;
		currentSearchTerm = null;

		// use GET parameters to restore a flamegraphs state.
		var params = get_params();
		if (params.x && params.y)
			zoom(find_group(document.querySelector('[x="' + params.x + '"][y="' + params.y + '"]')));
                if (params.s) search(params.s);
	}

	// event listeners
	window.addEventListener("click", function(e) {
		var target = find_group(e.target);
		if (target) {
			if (target.nodeName == "a") {
				if (e.ctrlKey === false) return;
				e.preventDefault();
			}
			if (target.classList.contains("parent")) unzoom();
			zoom(target);
			if (!document.querySelector('.parent')) {
				clearzoom();
				return;
			}

			// set parameters for zoom state
			var el = target.querySelector("rect");
			if (el && el.attributes && el.attributes.y && el.attributes._orig_x) {
				var params = get_params()
				params.x = el.attributes._orig_x.value;
				params.y = el.attributes.y.value;
				history.replaceState(null, null, parse_params(params));
			}
		}
		else if (e.target.id == "unzoom") clearzoom();
		else if (e.target.id == "search") search_prompt();
		else if (e.target.id == "ignorecase") toggle_ignorecase();
	}, false)

	// mouse-over for info
	// show
	window.addEventListener("mouseover", function(e) {
		var target = find_group(e.target);
		if (target) details.nodeValue = "Function: " + g_to_text(target);
	}, false)

	// clear
	window.addEventListener("mouseout", function(e) {
		var target = find_group(e.target);
		if (target) details.nodeValue = ' ';
	}, false)

	// ctrl-F for search
	// ctrl-I to toggle case-sensitive search
	window.addEventListener("keydown",function (e) {
		if (e.keyCode === 114 || (e.ctrlKey && e.keyCode === 70)) {
			e.preventDefault();
			search_prompt();
		}
		else if (e.ctrlKey && e.keyCode === 73) {
			e.preventDefault();
			toggle_ignorecase();
		}
	}, false)

	// functions
	function get_params() {
		var params = {};
		var paramsarr = window.location.search.substr(1).split('&');
		for (var i = 0; i < paramsarr.length; ++i) {
			var tmp = paramsarr[i].split("=");
			if (!tmp[0] || !tmp[1]) continue;
			params[tmp[0]]  = decodeURIComponent(tmp[1]);
		}
		return params;
	}
	function parse_params(params) {
		var uri = "?";
		for (var key in params) {
			uri += key + '=' + encodeURIComponent(params[key]) + '&';
		}
		if (uri.slice(-1) == "&")
			uri = uri.substring(0, uri.length - 1);
		if (uri == '?')
			uri = window.location.href.split('?')[0];
		return uri;
	}
	function find_child(node, selector) {
		var children = node.querySelectorAll(selector);
		if (children.length) return children[0];
	}
	function find_group(node) {
		var parent = node.parentElement;
		if (!parent) return;
		if (parent.id == "frames") return node;
		return find_group(parent);
	}
	function orig_save(e, attr, val) {
		if (e.attributes["_orig_" + attr] != undefined) return;
		if (e.attributes[attr] == undefined) return;
		if (val == undefined) val = e.attributes[attr].value;
		e.setAttribute("_orig_" + attr, val);
	}
	function orig_load(e, attr) {
		if (e.attributes["_orig_"+attr] == undefined) return;
		e.attributes[attr].value = e.attributes["_orig_" + attr].value;
		e.removeAttribute("_orig_"+attr);
	}
	function g_to_text(e) {
		var text = find_child(e, "title").firstChild.nodeValue;
		return (text)
	}
	function g_to_func(e) {
		var func = g_to_text(e);
		// if there's any manipulation we want to do to the function
		// name before it's searched, do it here before returning.
		return (func);
	}
	function update_text(e) {
		var r = find_child(e, "rect");
		var t = find_child(e, "text");
		var w = parseFloat(r.attributes.width.value) -3;
		var txt = find_child(e, "title").textContent.replace(/\([^(]*\)$/,"");
		t.attributes.x.value = parseFloat(r.attributes.x.value) + 3;

		// Smaller than this size won't fit anything
		if (w < 2 * 13 * 0.59) {
			t.textContent = "";
			return;
		}

		t.textContent = txt;
		// Fit in full text width
		if (/^ *$/.test(txt) || t.getSubStringLength(0, txt.length) < w)
			return;

		for (var x = txt.length - 2; x > 0; x--) {
			if (t.getSubStringLength(0, x + 2) <= w) {
				t.textContent = txt.substring(0, x) + "..";
				return;
			}
		}
		t.textContent = "";
	}

	// zoom
	function zoom_reset(e) {
		if (e.attributes != undefined) {
			orig_load(e, "x");
			orig_load(e, "width");
		}
		if (e.childNodes == undefined) return;
		for (var i = 0, c = e.childNodes; i < c.length; i++) {
			zoom_reset(c[i]);
		}
	}
	function zoom_child(e, x, ratio) {
		if (e.attributes != undefined) {
			if (e.attributes.x != undefined) {
				orig_save(e, "x");
				e.attributes.x.value = (parseFloat(e.attributes.x.value) - x - 10) * ratio + 10;
				if (e.tagName == "text")
					e.attributes.x.value = find_child(e.parentNode, "rect[x]").attributes.x.value + 3;
			}
			if (e.attributes.width != undefined) {
				orig_save(e, "width");
				e.attributes.width.value = parseFloat(e.attributes.width.value) * ratio;
			}
		}

		if (e.childNodes == undefined) return;
		for (var i = 0, c = e.childNodes; i < c.length; i++) {
			zoom_child(c[i], x - 10, ratio);
		}
	}
	function zoom_parent(e) {
		if (e.attributes) {
			if (e.attributes.x != undefined) {
				orig_save(e, "x");
				e.attributes.x.value = 10;
			}
			if (e.attributes.width != undefined) {
				orig_save(e, "width");
				e.attributes.width.value = parseInt(svg.width.baseVal.value) - (10 * 2);
			}
		}
		if (e.childNodes == undefined) return;
		for (var i = 0, c = e.childNodes; i < c.length; i++) {
			zoom_parent(c[i]);
		}
	}
	function zoom(node) {
		var attr = find_child(node, "rect").attributes;
		var width = parseFloat(attr.width.value);
		var xmin = parseFloat(attr.x.value);
		var xmax = parseFloat(xmin + width);
		var ymin = parseFloat(attr.y.value);
		var ratio = (svg.width.baseVal.value - 2 * 10) / width;

		// XXX: Workaround for JavaScript float issues (fix me)
		var fudge = 0.0001;

		unzoombtn.classList.remove("hide");

		var el = document.getElementById("frames").children;
		for (var i = 0; i < el.length; i++) {
			var e = el[i];
			var a = find_child(e, "rect").attributes;
			var ex = parseFloat(a.x.value);
			var ew = parseFloat(a.width.value);
			var upstack;
			// Is it an ancestor
			if (1 == 0) {
				upstack = parseFloat(a.y.value) > ymin;
			} else {
				upstack = parseFloat(a.y.value) < ymin;
			}
			if (upstack) {
				// Direct ancestor
				if (ex <= xmin && (ex+ew+fudge) >= xmax) {
					e.classList.add("parent");
					zoom_parent(e);
					update_text(e);
				}
				// not in current path
				else
					e.classList.add("hide");
			}
			// Children maybe
			else {
				// no common path
				if (ex < xmin || ex + fudge >= xmax) {
					e.classList.add("hide");
				}
				else {
					zoom_child(e, xmin, ratio);
					update_text(e);
				}
			}
		}
		search();
	}
	function unzoom() {
		unzoombtn.classList.add("hide");
		var el = document.getElementById("frames").children;
		for(var i = 0; i < el.length; i++) {
			el[i].classList.remove("parent");
			el[i].classList.remove("hide");
			zoom_reset(el[i]);
			update_text(el[i]);
		}
		search();
	}
	function clearzoom() {
		unzoom();

		// remove zoom state
		var params = get_params();
		if (params.x) delete params.x;
		if (params.y) delete params.y;
		history.replaceState(null, null, parse_params(params));
	}

	// search
	function toggle_ignorecase() {
		ignorecase = !ignorecase;
		if (ignorecase) {
			ignorecaseBtn.classList.add("show");
		} else {
			ignorecaseBtn.classList.remove("show");
		}
		reset_search();
		search();
	}
	function reset_search() {
		var el = document.querySelectorAll("#frames rect");
		for (var i = 0; i < el.length; i++) {
			orig_load(el[i], "fill")
		}
		var params = get_params();
		delete params.s;
		history.replaceState(null, null, parse_params(params));
	}
	function search_prompt() {
		if (!searching) {
			var term = prompt("Enter a search term (regexp " +
			    "allowed, eg: ^ext4_)"
			    + (ignorecase ? ", ignoring case" : "")
			    + "\nPress Ctrl-i to toggle case sensitivity", "");
			if (term != null) search(term);
		} else {
			reset_search();
			searching = 0;
			currentSearchTerm = null;
			searchbtn.classList.remove("show");
			searchbtn.firstChild.nodeValue = "Search"
			matchedtxt.classList.add("hide");
			matchedtxt.firstChild.nodeValue = ""
		}
	}
	function search(term) {
		if (term) currentSearchTerm = term;

		var re = new RegExp(currentSearchTerm, ignorecase ? 'i' : '');
		var el = document.getElementById("frames").children;
		var matches = new Object();
		var maxwidth = 0;
		for (var i = 0; i < el.length; i++) {
			var e = el[i];
			var func = g_to_func(e);
			var rect = find_child(e, "rect");
			if (func == null || rect == null)
				continue;

			// Save max width. Only works as we have a root frame
			var w = parseFloat(rect.attributes.width.value);
			if (w > maxwidth)
				maxwidth = w;

			if (func.match(re)) {
				// highlight
				var x = parseFloat(rect.attributes.x.value);
				orig_save(rect, "fill");
				rect.attributes.fill.value = "rgb(230,0,230)";

				// remember matches
				if (matches[x] == undefined) {
					matches[x] = w;
				} else {
					if (w > matches[x]) {
						// overwrite with parent
						matches[x] = w;
					}
				}
				searching = 1;
			}
		}
		if (!searching)
			return;
		var params = get_params();
		params.s = currentSearchTerm;
		history.replaceState(null, null, parse_params(params));

		searchbtn.classList.add("show");
		searchbtn.firstChild.nodeValue = "Reset Search";

		// calculate percent matched, excluding vertical overlap
		var count = 0;
		var lastx = -1;
		var lastw = 0;
		var keys = Array();
		for (k in matches) {
			if (matches.hasOwnProperty(k))
				keys.push(k);
		}
		// sort the matched frames by their x location
		// ascending, then width descending
		keys.sort(function(a, b){
			return a - b;
		});
		// Step through frames saving only the biggest bottom-up frames
		// thanks to the sort order. This relies on the tree property
		// where children are always smaller than their parents.
		var fudge = 0.0001;	// JavaScript floating point
		for (var k in keys) {
			var x = parseFloat(keys[k]);
			var w = matches[keys[k]];
			if (x >= lastx + lastw - fudge) {
				count += w;
				lastx = x;
				lastw = w;
			}
		}
		// display matched percent
		matchedtxt.classList.remove("hide");
		var pct = 100 * count / maxwidth;
		if (pct != 100) pct = pct.toFixed(1)
		matchedtxt.firstChild.nodeValue = "Matched: " + pct + "%";
	}
]]>
</script>
<rect x="0.0" y="0" width="1200.0" height="299.0" fill="url(#background)"  />
<text id="title" x="600.00" y="26" >Firedrake example</text>
<text id="details" x="10.00" y="281" > </text>
<text id="unzoom" x="10.00" y="26" class="hide">Reset Zoom</text>
<text id="search" x="1090.00" y="26" >Search</text>
<text id="ignorecase" x="1174.00" y="26" >ic</text>
<text id="matched" x="1090.00" y="281" > </text>
<g id="frames">
<g >
<title>firedrake (280,696,860 us, 100.00%)</title><rect x="10.0" y="55" width="1180.0" height="15.0" fill="rgb(0,0,0)" rx="2" ry="2" />
<text  x="13.00" y="65.5" >firedrake</text>
</g>
<g >
<title>pyop2.global_kernel.GlobalKernel.compile (4,482,353 us, 1.60%)</title><rect x="1165.0" y="151" width="18.8" height="15.0" fill="rgb(0,0,0)" rx="2" ry="2" />
<text  x="1167.98" y="161.5" ></text>
</g>
<g >
<title>CreateSparsity (832,116 us, 0.30%)</title><rect x="232.5" y="135" width="3.5" height="15.0" fill="rgb(0,0,0)" rx="2" ry="2" />
<text  x="235.55" y="145.5" ></text>
</g>
<g >
<title>Parloop_Cells_wrap_form_exterior_facet_bottom_integral_otherwise (1,314,394 us, 0.47%)</title><rect x="25.7" y="103" width="5.5" height="15.0" fill="rgb(0,0,0)" rx="2" ry="2" />
<text  x="28.72" y="113.5" ></text>
</g>
<g >
<title>pyop2.global_kernel.GlobalKernel.compile (1,442,811 us, 0.51%)</title><rect x="31.2" y="119" width="6.1" height="15.0" fill="rgb(0,0,0)" rx="2" ry="2" />
<text  x="34.24" y="129.5" ></text>
</g>
<g >
<title>pyop2.global_kernel.GlobalKernel.compile (897,106 us, 0.32%)</title><rect x="350.4" y="215" width="3.7" height="15.0" fill="rgb(0,0,0)" rx="2" ry="2" />
<text  x="353.36" y="225.5" ></text>
</g>
<g >
<title>Parloop_Cells_wrap_form00_exterior_facet_top_integral_otherwise (1,699,560 us, 0.61%)</title><rect x="195.1" y="135" width="7.1" height="15.0" fill="rgb(0,0,0)" rx="2" ry="2" />
<text  x="198.09" y="145.5" ></text>
</g>
<g >
<title>PCSetUp (157,167 us, 0.06%)</title><rect x="244.8" y="135" width="0.6" height="15.0" fill="rgb(0,0,0)" rx="2" ry="2" />
<text  x="247.77" y="145.5" ></text>
</g>
<g >
<title>pyop2.global_kernel.GlobalKernel.compile (1,758,114 us, 0.63%)</title><rect x="202.4" y="151" width="7.4" height="15.0" fill="rgb(0,0,0)" rx="2" ry="2" />
<text  x="205.37" y="161.5" ></text>
</g>
<g >
<title>Parloop_Cells_wrap_form1_cell_integral_otherwise (3,783,740 us, 1.35%)</title><rect x="324.0" y="167" width="15.9" height="15.0" fill="rgb(0,0,0)" rx="2" ry="2" />
<text  x="327.03" y="177.5" ></text>
</g>
<g >
<title>pyop2.global_kernel.GlobalKernel.compile (1,314,394 us, 0.47%)</title><rect x="25.7" y="119" width="5.5" height="15.0" fill="rgb(0,0,0)" rx="2" ry="2" />
<text  x="28.72" y="129.5" ></text>
</g>
<g >
<title>ParLoopExecute (872,833 us, 0.31%)</title><rect x="570.0" y="183" width="3.7" height="15.0" fill="rgb(0,0,0)" rx="2" ry="2" />
<text  x="573.01" y="193.5" ></text>
</g>
<g >
<title>MatCholFctrNum (157,167 us, 0.06%)</title><rect x="244.8" y="151" width="0.6" height="15.0" fill="rgb(0,0,0)" rx="2" ry="2" />
<text  x="247.77" y="161.5" ></text>
</g>
<g >
<title>HybridInit (748,625 us, 0.27%)</title><rect x="1142.2" y="119" width="3.1" height="15.0" fill="rgb(0,0,0)" rx="2" ry="2" />
<text  x="1145.20" y="129.5" ></text>
</g>
<g >
<title>ParLoopExecute (8,390,064 us, 2.99%)</title><rect x="304.7" y="151" width="35.2" height="15.0" fill="rgb(0,0,0)" rx="2" ry="2" />
<text  x="307.67" y="161.5" >Pa..</text>
</g>
<g >
<title>pyop2.global_kernel.GlobalKernel.compile (2,497,476 us, 0.89%)</title><rect x="116.2" y="135" width="10.5" height="15.0" fill="rgb(0,0,0)" rx="2" ry="2" />
<text  x="119.18" y="145.5" ></text>
</g>
<g >
<title>Log_Event_subkernel6_interior_facet_vert_to__exterior_facet_vert_integral_otherwise (41,683 us, 0.01%)</title><rect x="972.6" y="199" width="0.2" height="15.0" fill="rgb(0,0,0)" rx="2" ry="2" />
<text  x="975.58" y="209.5" ></text>
</g>
<g >
<title>PCSetUp (42,355,982 us, 15.09%)</title><rect x="964.1" y="151" width="178.1" height="15.0" fill="rgb(0,0,0)" rx="2" ry="2" />
<text  x="967.14" y="161.5" >PCSetUp</text>
</g>
<g >
<title>Parloop_Cells_wrap_wrap_slate_loopy_knl_3 (37,084,576 us, 13.21%)</title><rect x="971.7" y="183" width="155.9" height="15.0" fill="rgb(0,0,0)" rx="2" ry="2" />
<text  x="974.74" y="193.5" >Parloop_Cells_wrap..</text>
</g>
<g >
<title>pyop2.global_kernel.GlobalKernel.compile (10,597,596 us, 3.78%)</title><rect x="252.3" y="151" width="44.6" height="15.0" fill="rgb(0,0,0)" rx="2" ry="2" />
<text  x="255.33" y="161.5" >pyo..</text>
</g>
<g >
<title>pyop2.global_kernel.GlobalKernel.compile (894,751 us, 0.32%)</title><rect x="15.5" y="135" width="3.8" height="15.0" fill="rgb(0,0,0)" rx="2" ry="2" />
<text  x="18.53" y="145.5" ></text>
</g>
<g >
<title>MatMult (56,641,180 us, 20.18%)</title><rect x="726.0" y="167" width="238.1" height="15.0" fill="rgb(0,0,0)" rx="2" ry="2" />
<text  x="729.03" y="177.5" >MatMult</text>
</g>
<g >
<title>firedrake.tsfc_interface.compile_form (1,468,423 us, 0.52%)</title><rect x="1183.8" y="119" width="6.2" height="15.0" fill="rgb(0,0,0)" rx="2" ry="2" />
<text  x="1186.83" y="129.5" ></text>
</g>
<g >
<title>SNESSolve (210,601,818 us, 75.03%)</title><rect x="304.7" y="87" width="885.3" height="15.0" fill="rgb(0,0,0)" rx="2" ry="2" />
<text  x="307.67" y="97.5" >SNESSolve</text>
</g>
<g >
<title>CreateSparsity (81,154 us, 0.03%)</title><rect x="1127.6" y="183" width="0.4" height="15.0" fill="rgb(0,0,0)" rx="2" ry="2" />
<text  x="1130.63" y="193.5" ></text>
</g>
<g >
<title>ParLoopExecute (51,325,751 us, 18.29%)</title><rect x="733.7" y="199" width="215.8" height="15.0" fill="rgb(0,0,0)" rx="2" ry="2" />
<text  x="736.69" y="209.5" >ParLoopExecute</text>
</g>
<g >
<title>Parloop_Cells_wrap_form00_exterior_facet_bottom_integral_otherwise (1,680,462 us, 0.60%)</title><rect x="188.0" y="135" width="7.1" height="15.0" fill="rgb(0,0,0)" rx="2" ry="2" />
<text  x="191.03" y="145.5" ></text>
</g>
<g >
<title>Parloop_Cells_wrap_form00_interior_facet_horiz_integral_otherwise (1,789,339 us, 0.64%)</title><rect x="202.2" y="135" width="7.6" height="15.0" fill="rgb(0,0,0)" rx="2" ry="2" />
<text  x="205.23" y="145.5" ></text>
</g>
<g >
<title>KSPSolve (199,230,515 us, 70.98%)</title><rect x="304.7" y="103" width="837.5" height="15.0" fill="rgb(0,0,0)" rx="2" ry="2" />
<text  x="307.67" y="113.5" >KSPSolve</text>
</g>
<g >
<title>Parloop_Cells_wrap_wrap_slate_loopy_knl_0 (32,532,039 us, 11.59%)</title><rect x="579.5" y="183" width="136.8" height="15.0" fill="rgb(0,0,0)" rx="2" ry="2" />
<text  x="582.51" y="193.5" >Parloop_Cells_w..</text>
</g>
<g >
<title>ParLoopExecute (25,184,799 us, 8.97%)</title><rect x="126.7" y="119" width="105.8" height="15.0" fill="rgb(0,0,0)" rx="2" ry="2" />
<text  x="129.68" y="129.5" >ParLoopExec..</text>
</g>
<g >
<title>inv_getri (30,440 us, 0.01%)</title><rect x="972.3" y="215" width="0.1" height="15.0" fill="rgb(0,0,0)" rx="2" ry="2" />
<text  x="975.26" y="225.5" ></text>
</g>
<g >
<title>Parloop_IntFacets_wrap_form0_interior_facet_vert_integral_otherwise (2,497,476 us, 0.89%)</title><rect x="116.2" y="119" width="10.5" height="15.0" fill="rgb(0,0,0)" rx="2" ry="2" />
<text  x="119.18" y="129.5" ></text>
</g>
<g >
<title>ParLoopExecute (32,532,039 us, 11.59%)</title><rect x="579.5" y="167" width="136.8" height="15.0" fill="rgb(0,0,0)" rx="2" ry="2" />
<text  x="582.51" y="177.5" >ParLoopExecute</text>
</g>
<g >
<title>Log_Event_subkernel1_interior_facet_vert_to__exterior_facet_vert_integral_otherwise (49,666 us, 0.02%)</title><rect x="579.6" y="199" width="0.2" height="15.0" fill="rgb(0,0,0)" rx="2" ry="2" />
<text  x="582.64" y="209.5" ></text>
</g>
<g >
<title>ParLoopExecute (9,154,255 us, 3.26%)</title><rect x="1145.3" y="119" width="38.5" height="15.0" fill="rgb(0,0,0)" rx="2" ry="2" />
<text  x="1148.34" y="129.5" >Par..</text>
</g>
<g >
<title>Log_Event_slate_loopy_knl_3 (70,675 us, 0.03%)</title><rect x="972.1" y="199" width="0.3" height="15.0" fill="rgb(0,0,0)" rx="2" ry="2" />
<text  x="975.09" y="209.5" ></text>
</g>
<g >
<title>firedrake.matrix_free.operators.ImplicitMatrixContext.mult (56,641,180 us, 20.18%)</title><rect x="726.0" y="183" width="238.1" height="15.0" fill="rgb(0,0,0)" rx="2" ry="2" />
<text  x="729.03" y="193.5" >firedrake.matrix_free.operato..</text>
</g>
<g >
<title>pyop2.global_kernel.GlobalKernel.compile (4,328,058 us, 1.54%)</title><rect x="70.4" y="135" width="18.2" height="15.0" fill="rgb(0,0,0)" rx="2" ry="2" />
<text  x="73.42" y="145.5" ></text>
</g>
<g >
<title>pyop2.global_kernel.GlobalKernel.compile (1,335,340 us, 0.48%)</title><rect x="88.6" y="135" width="5.6" height="15.0" fill="rgb(0,0,0)" rx="2" ry="2" />
<text  x="91.61" y="145.5" ></text>
</g>
<g >
<title>firedrake.assemble.assemble (10,632,628 us, 3.79%)</title><rect x="25.7" y="71" width="44.7" height="15.0" fill="rgb(0,0,0)" rx="2" ry="2" />
<text  x="28.72" y="81.5" >fir..</text>
</g>
<g >
<title>SNESFunctionEval (10,622,678 us, 3.78%)</title><rect x="1145.3" y="103" width="44.7" height="15.0" fill="rgb(0,0,0)" rx="2" ry="2" />
<text  x="1148.34" y="113.5" >SNE..</text>
</g>
<g >
<title>KSPSolve (38,578 us, 0.01%)</title><rect x="244.6" y="119" width="0.2" height="15.0" fill="rgb(0,0,0)" rx="2" ry="2" />
<text  x="247.61" y="129.5" ></text>
</g>
<g >
<title>Parloop_Cells_wrap_form0_cell_integral_otherwise (4,328,058 us, 1.54%)</title><rect x="70.4" y="119" width="18.2" height="15.0" fill="rgb(0,0,0)" rx="2" ry="2" />
<text  x="73.42" y="129.5" ></text>
</g>
<g >
<title>Parloop_Cells_wrap_form0_exterior_facet_bottom_integral_otherwise (1,335,340 us, 0.48%)</title><rect x="88.6" y="119" width="5.6" height="15.0" fill="rgb(0,0,0)" rx="2" ry="2" />
<text  x="91.61" y="129.5" ></text>
</g>
<g >
<title>pyop2.global_kernel.GlobalKernel.compile (18,576,890 us, 6.62%)</title><rect x="354.6" y="183" width="78.1" height="15.0" fill="rgb(0,0,0)" rx="2" ry="2" />
<text  x="357.60" y="193.5" >pyop2.gl..</text>
</g>
<g >
<title>firedrake.tsfc_interface.compile_form (1,640,693 us, 0.58%)</title><rect x="245.4" y="103" width="6.9" height="15.0" fill="rgb(0,0,0)" rx="2" ry="2" />
<text  x="248.43" y="113.5" ></text>
</g>
<g >
<title>Log_Event_inits_wrap_slate_loopy_knl_7 (102,350 us, 0.04%)</title><rect x="738.9" y="231" width="0.4" height="15.0" fill="rgb(0,0,0)" rx="2" ry="2" />
<text  x="741.90" y="241.5" ></text>
</g>
<g >
<title>KSPSolve (56,641,180 us, 20.18%)</title><rect x="726.0" y="151" width="238.1" height="15.0" fill="rgb(0,0,0)" rx="2" ry="2" />
<text  x="729.03" y="161.5" >KSPSolve</text>
</g>
<g >
<title>HybridProject (897,106 us, 0.32%)</title><rect x="350.4" y="151" width="3.7" height="15.0" fill="rgb(0,0,0)" rx="2" ry="2" />
<text  x="353.36" y="161.5" ></text>
</g>
<g >
<title>pyop2.global_kernel.GlobalKernel.compile (872,833 us, 0.31%)</title><rect x="570.0" y="215" width="3.7" height="15.0" fill="rgb(0,0,0)" rx="2" ry="2" />
<text  x="573.01" y="225.5" ></text>
</g>
<g >
<title>Parloop_set_#x7f20f844e830_wrap_expression_kernel (375,554 us, 0.13%)</title><rect x="61.9" y="135" width="1.6" height="15.0" fill="rgb(0,0,0)" rx="2" ry="2" />
<text  x="64.89" y="145.5" ></text>
</g>
<g >
<title>ParLoopExecute (25,546,727 us, 9.10%)</title><rect x="439.5" y="167" width="107.4" height="15.0" fill="rgb(0,0,0)" rx="2" ry="2" />
<text  x="442.52" y="177.5" >ParLoopExecute</text>
</g>
<g >
<title>pyop2.global_kernel.GlobalKernel.compile (14,540,531 us, 5.18%)</title><rect x="126.9" y="151" width="61.1" height="15.0" fill="rgb(0,0,0)" rx="2" ry="2" />
<text  x="129.90" y="161.5" >pyop2..</text>
</g>
<g >
<title>pyop2.global_kernel.GlobalKernel.compile (1,613,965 us, 0.57%)</title><rect x="99.9" y="135" width="6.8" height="15.0" fill="rgb(0,0,0)" rx="2" ry="2" />
<text  x="102.91" y="145.5" ></text>
</g>
<g >
<title>firedrake.norms.norm (12,450,797 us, 4.44%)</title><rect x="252.3" y="87" width="52.4" height="15.0" fill="rgb(0,0,0)" rx="2" ry="2" />
<text  x="255.33" y="97.5" >fire..</text>
</g>
<g >
<title>Log_Event_form0_cell_integral_otherwise (34,499 us, 0.01%)</title><rect x="1145.3" y="151" width="0.2" height="15.0" fill="rgb(0,0,0)" rx="2" ry="2" />
<text  x="1148.34" y="161.5" ></text>
</g>
<g >
<title>firedrake.tsfc_interface.compile_form (1,296,598 us, 0.46%)</title><rect x="65.0" y="87" width="5.4" height="15.0" fill="rgb(0,0,0)" rx="2" ry="2" />
<text  x="67.97" y="97.5" ></text>
</g>
<g >
<title>Parloop_ExtFacets_wrap_form0_exterior_facet_vert_integral_otherwise (2,256,693 us, 0.80%)</title><rect x="106.7" y="119" width="9.5" height="15.0" fill="rgb(0,0,0)" rx="2" ry="2" />
<text  x="109.69" y="129.5" ></text>
</g>
<g >
<title>pyop2.global_kernel.GlobalKernel.compile (2,859,610 us, 1.02%)</title><rect x="209.8" y="151" width="12.0" height="15.0" fill="rgb(0,0,0)" rx="2" ry="2" />
<text  x="212.76" y="161.5" ></text>
</g>
<g >
<title>firedrake.assemble_expressions.evaluate_expression (732,635 us, 0.26%)</title><rect x="61.9" y="103" width="3.1" height="15.0" fill="rgb(0,0,0)" rx="2" ry="2" />
<text  x="64.89" y="113.5" ></text>
</g>
<g >
<title>HybridRHS (36,241,451 us, 12.91%)</title><rect x="573.7" y="151" width="152.3" height="15.0" fill="rgb(0,0,0)" rx="2" ry="2" />
<text  x="576.68" y="161.5" >HybridRHS</text>
</g>
<g >
<title>firedrake.assemble.allocate_matrix (81,154 us, 0.03%)</title><rect x="1127.6" y="167" width="0.4" height="15.0" fill="rgb(0,0,0)" rx="2" ry="2" />
<text  x="1130.63" y="177.5" ></text>
</g>
<g >
<title>Parloop_IntFacets_wrap_form_interior_facet_vert_integral_otherwise (2,046,302 us, 0.73%)</title><rect x="53.3" y="103" width="8.6" height="15.0" fill="rgb(0,0,0)" rx="2" ry="2" />
<text  x="56.28" y="113.5" ></text>
</g>
<g >
<title>Parloop_Cells_wrap_form_cell_integral_otherwise (10,597,596 us, 3.78%)</title><rect x="252.3" y="135" width="44.6" height="15.0" fill="rgb(0,0,0)" rx="2" ry="2" />
<text  x="255.33" y="145.5" >Par..</text>
</g>
<g >
<title>ParLoopExecute (732,635 us, 0.26%)</title><rect x="61.9" y="119" width="3.1" height="15.0" fill="rgb(0,0,0)" rx="2" ry="2" />
<text  x="64.89" y="129.5" ></text>
</g>
<g >
<title>pyop2.global_kernel.GlobalKernel.compile (4,637,403 us, 1.65%)</title><rect x="1145.5" y="151" width="19.5" height="15.0" fill="rgb(0,0,0)" rx="2" ry="2" />
<text  x="1148.49" y="161.5" ></text>
</g>
<g >
<title>ParLoopExecute (8,603,395 us, 3.07%)</title><rect x="25.7" y="87" width="36.2" height="15.0" fill="rgb(0,0,0)" rx="2" ry="2" />
<text  x="28.72" y="97.5" >Pa..</text>
</g>
<g >
<title>PCSetUp (748,625 us, 0.27%)</title><rect x="1142.2" y="103" width="3.1" height="15.0" fill="rgb(0,0,0)" rx="2" ry="2" />
<text  x="1145.20" y="113.5" ></text>
</g>
<g >
<title>pyop2.global_kernel.GlobalKernel.compile (357,081 us, 0.13%)</title><rect x="63.5" y="151" width="1.5" height="15.0" fill="rgb(0,0,0)" rx="2" ry="2" />
<text  x="66.46" y="161.5" ></text>
</g>
<g >
<title>Parloop_Cells_wrap_wrap_slate_loopy_knl_11 (25,546,727 us, 9.10%)</title><rect x="439.5" y="183" width="107.4" height="15.0" fill="rgb(0,0,0)" rx="2" ry="2" />
<text  x="442.52" y="193.5" >Parloop_Cell..</text>
</g>
<g >
<title>pyop2.global_kernel.GlobalKernel.compile (2,472,655 us, 0.88%)</title><rect x="42.9" y="119" width="10.4" height="15.0" fill="rgb(0,0,0)" rx="2" ry="2" />
<text  x="45.89" y="129.5" ></text>
</g>
<g >
<title>Parloop_ExtFacets_wrap_form_exterior_facet_vert_integral_otherwise (2,472,655 us, 0.88%)</title><rect x="42.9" y="103" width="10.4" height="15.0" fill="rgb(0,0,0)" rx="2" ry="2" />
<text  x="45.89" y="113.5" ></text>
</g>
<g >
<title>pyop2.global_kernel.GlobalKernel.compile (2,046,302 us, 0.73%)</title><rect x="53.3" y="119" width="8.6" height="15.0" fill="rgb(0,0,0)" rx="2" ry="2" />
<text  x="56.28" y="129.5" ></text>
</g>
<g >
<title>firedrake.tsfc_interface.compile_form (1,670,961 us, 0.60%)</title><rect x="237.6" y="119" width="7.0" height="15.0" fill="rgb(0,0,0)" rx="2" ry="2" />
<text  x="240.58" y="129.5" ></text>
</g>
<g >
<title>Log_Event_subkernel8_interior_facet_horiz_bottom_to__exterior_facet_bottom_integral_otherwise (496,901 us, 0.18%)</title><rect x="767.6" y="231" width="2.1" height="15.0" fill="rgb(0,0,0)" rx="2" ry="2" />
<text  x="770.58" y="241.5" ></text>
</g>
<g >
<title>pyop2.global_kernel.GlobalKernel.compile (2,256,693 us, 0.80%)</title><rect x="106.7" y="135" width="9.5" height="15.0" fill="rgb(0,0,0)" rx="2" ry="2" />
<text  x="109.69" y="145.5" ></text>
</g>
<g >
<title>firedrake.matrix_free.operators.ImplicitMatrixContext.mult (9,617,608 us, 3.43%)</title><rect x="304.7" y="135" width="40.4" height="15.0" fill="rgb(0,0,0)" rx="2" ry="2" />
<text  x="307.67" y="145.5" >fir..</text>
</g>
<g >
<title>MatMult (9,617,608 us, 3.43%)</title><rect x="304.7" y="119" width="40.4" height="15.0" fill="rgb(0,0,0)" rx="2" ry="2" />
<text  x="307.67" y="129.5" >Mat..</text>
</g>
<g >
<title>solve_getrf (2,124,707 us, 0.76%)</title><rect x="739.8" y="247" width="8.9" height="15.0" fill="rgb(0,0,0)" rx="2" ry="2" />
<text  x="742.81" y="257.5" ></text>
</g>
<g >
<title>ParLoopExecute (894,751 us, 0.32%)</title><rect x="15.5" y="103" width="3.8" height="15.0" fill="rgb(0,0,0)" rx="2" ry="2" />
<text  x="18.53" y="113.5" ></text>
</g>
<g >
<title>firedrake.tsfc_interface.compile_form (3,383,212 us, 1.21%)</title><rect x="1128.0" y="167" width="14.2" height="15.0" fill="rgb(0,0,0)" rx="2" ry="2" />
<text  x="1130.97" y="177.5" ></text>
</g>
<g >
<title>Parloop_Cells_wrap_form00_cell_integral_otherwise (14,593,638 us, 5.20%)</title><rect x="126.7" y="135" width="61.3" height="15.0" fill="rgb(0,0,0)" rx="2" ry="2" />
<text  x="129.68" y="145.5" >Parlo..</text>
</g>
<g >
<title>Parloop_set_#x7f20f8488580_wrap_expression_kernel (357,081 us, 0.13%)</title><rect x="63.5" y="135" width="1.5" height="15.0" fill="rgb(0,0,0)" rx="2" ry="2" />
<text  x="66.46" y="145.5" ></text>
</g>
<g >
<title>pyop2.global_kernel.GlobalKernel.compile (1,351,551 us, 0.48%)</title><rect x="94.2" y="135" width="5.7" height="15.0" fill="rgb(0,0,0)" rx="2" ry="2" />
<text  x="97.22" y="145.5" ></text>
</g>
<g >
<title>Parloop_Cells_wrap_form_exterior_facet_top_integral_otherwise (1,442,811 us, 0.51%)</title><rect x="31.2" y="103" width="6.1" height="15.0" fill="rgb(0,0,0)" rx="2" ry="2" />
<text  x="34.24" y="113.5" ></text>
</g>
<g >
<title>firedrake.variational_solver.NonlinearVariationalSolver.solve (210,601,818 us, 75.03%)</title><rect x="304.7" y="71" width="885.3" height="15.0" fill="rgb(0,0,0)" rx="2" ry="2" />
<text  x="307.67" y="81.5" >firedrake.variational_solver.NonlinearVariationalSolver.solve</text>
</g>
<g >
<title>solve_getrs (274,333 us, 0.10%)</title><rect x="748.7" y="247" width="1.2" height="15.0" fill="rgb(0,0,0)" rx="2" ry="2" />
<text  x="751.74" y="257.5" ></text>
</g>
<g >
<title>Log_Event_subkernel21_interior_facet_vert_to__exterior_facet_vert_integral_otherwise (43,699 us, 0.02%)</title><rect x="354.4" y="183" width="0.2" height="15.0" fill="rgb(0,0,0)" rx="2" ry="2" />
<text  x="357.41" y="193.5" ></text>
</g>
<g >
<title>pyop2.global_kernel.GlobalKernel.compile (3,783,740 us, 1.35%)</title><rect x="324.0" y="183" width="15.9" height="15.0" fill="rgb(0,0,0)" rx="2" ry="2" />
<text  x="327.03" y="193.5" ></text>
</g>
<g >
<title>SCForwardElim (37,114,284 us, 13.22%)</title><rect x="570.0" y="135" width="156.0" height="15.0" fill="rgb(0,0,0)" rx="2" ry="2" />
<text  x="573.01" y="145.5" >SCForwardElim</text>
</g>
<g >
<title>Parloop_Cells_wrap_form0_exterior_facet_top_integral_otherwise (1,351,551 us, 0.48%)</title><rect x="94.2" y="119" width="5.7" height="15.0" fill="rgb(0,0,0)" rx="2" ry="2" />
<text  x="97.22" y="129.5" ></text>
</g>
<g >
<title>Parloop_Cells_wrap_wrap_slate_loopy_knl_7 (51,325,751 us, 18.29%)</title><rect x="733.7" y="215" width="215.8" height="15.0" fill="rgb(0,0,0)" rx="2" ry="2" />
<text  x="736.69" y="225.5" >Parloop_Cells_wrap_wrap_sl..</text>
</g>
<g >
<title>Log_Event_subkernel10_interior_facet_vert_to__exterior_facet_vert_integral_otherwise (3,142,226 us, 1.12%)</title><rect x="754.4" y="231" width="13.2" height="15.0" fill="rgb(0,0,0)" rx="2" ry="2" />
<text  x="757.37" y="241.5" ></text>
</g>
<g >
<title>Log_Event_subkernel17_interior_facet_vert_to__exterior_facet_vert_integral_otherwise (42,729 us, 0.02%)</title><rect x="440.1" y="199" width="0.2" height="15.0" fill="rgb(0,0,0)" rx="2" ry="2" />
<text  x="443.11" y="209.5" ></text>
</g>
<g >
<title>solve_memcpy (135,481 us, 0.05%)</title><rect x="749.9" y="247" width="0.6" height="15.0" fill="rgb(0,0,0)" rx="2" ry="2" />
<text  x="752.89" y="257.5" ></text>
</g>
<g >
<title>firedrake.tsfc_interface.compile_form (1,853,201 us, 0.66%)</title><rect x="296.9" y="119" width="7.8" height="15.0" fill="rgb(0,0,0)" rx="2" ry="2" />
<text  x="299.88" y="129.5" ></text>
</g>
<g >
<title>MatZeroInitial (365,189 us, 0.13%)</title><rect x="236.0" y="135" width="1.6" height="15.0" fill="rgb(0,0,0)" rx="2" ry="2" />
<text  x="239.05" y="145.5" ></text>
</g>
<g >
<title>Log_Event_subkernel4_interior_facet_vert_to__exterior_facet_vert_integral_otherwise (47,762 us, 0.02%)</title><rect x="972.4" y="199" width="0.2" height="15.0" fill="rgb(0,0,0)" rx="2" ry="2" />
<text  x="975.38" y="209.5" ></text>
</g>
<g >
<title>firedrake.norms.errornorm (12,450,797 us, 4.44%)</title><rect x="252.3" y="71" width="52.4" height="15.0" fill="rgb(0,0,0)" rx="2" ry="2" />
<text  x="255.33" y="81.5" >fire..</text>
</g>
<g >
<title>pyop2.global_kernel.GlobalKernel.compile (679,376 us, 0.24%)</title><rect x="1142.5" y="183" width="2.8" height="15.0" fill="rgb(0,0,0)" rx="2" ry="2" />
<text  x="1145.49" y="193.5" ></text>
</g>
<g >
<title>firedrake.parloops.par_loop (679,376 us, 0.24%)</title><rect x="1142.5" y="135" width="2.8" height="15.0" fill="rgb(0,0,0)" rx="2" ry="2" />
<text  x="1145.49" y="145.5" ></text>
</g>
<g >
<title>pyop2.global_kernel.GlobalKernel.compile (1,680,462 us, 0.60%)</title><rect x="188.0" y="151" width="7.1" height="15.0" fill="rgb(0,0,0)" rx="2" ry="2" />
<text  x="191.03" y="161.5" ></text>
</g>
<g >
<title>firedrake.tsfc_interface.compile_form (1,227,544 us, 0.44%)</title><rect x="339.9" y="151" width="5.2" height="15.0" fill="rgb(0,0,0)" rx="2" ry="2" />
<text  x="342.94" y="161.5" ></text>
</g>
<g >
<title>Parloop_Cells_wrap_form0_interior_facet_horiz_integral_otherwise (1,613,965 us, 0.57%)</title><rect x="99.9" y="119" width="6.8" height="15.0" fill="rgb(0,0,0)" rx="2" ry="2" />
<text  x="102.91" y="129.5" ></text>
</g>
<g >
<title>ParLoopExecute (679,376 us, 0.24%)</title><rect x="1142.5" y="151" width="2.8" height="15.0" fill="rgb(0,0,0)" rx="2" ry="2" />
<text  x="1145.49" y="161.5" ></text>
</g>
<g >
<title>ParLoopExecute (18,687,650 us, 6.66%)</title><rect x="354.1" y="151" width="78.6" height="15.0" fill="rgb(0,0,0)" rx="2" ry="2" />
<text  x="357.13" y="161.5" >ParLoopE..</text>
</g>
<g >
<title>Log_Event_slate_loopy_knl_11 (83,743 us, 0.03%)</title><rect x="439.8" y="199" width="0.3" height="15.0" fill="rgb(0,0,0)" rx="2" ry="2" />
<text  x="442.76" y="209.5" ></text>
</g>
<g >
<title>ParLoopExecute (897,106 us, 0.32%)</title><rect x="350.4" y="183" width="3.7" height="15.0" fill="rgb(0,0,0)" rx="2" ry="2" />
<text  x="353.36" y="193.5" ></text>
</g>
<g >
<title>firedrake.tsfc_interface.compile_form (3,205,724 us, 1.14%)</title><rect x="546.9" y="167" width="13.5" height="15.0" fill="rgb(0,0,0)" rx="2" ry="2" />
<text  x="549.92" y="177.5" ></text>
</g>
<g >
<title>Parloop_Cells_wrap_par_loop_kernel (679,376 us, 0.24%)</title><rect x="1142.5" y="167" width="2.8" height="15.0" fill="rgb(0,0,0)" rx="2" ry="2" />
<text  x="1145.49" y="177.5" ></text>
</g>
<g >
<title>firedrake.__init__ (1,527,662 us, 0.54%)</title><rect x="19.3" y="71" width="6.4" height="15.0" fill="rgb(0,0,0)" rx="2" ry="2" />
<text  x="22.30" y="81.5" ></text>
</g>
<g >
<title>Log_Event_subkernel8_interior_facet_vert_to__exterior_facet_vert_integral_otherwise (3,914,383 us, 1.39%)</title><rect x="771.8" y="231" width="16.4" height="15.0" fill="rgb(0,0,0)" rx="2" ry="2" />
<text  x="774.78" y="241.5" ></text>
</g>
<g >
<title>ParLoopExecute (13,383,083 us, 4.77%)</title><rect x="70.4" y="103" width="56.3" height="15.0" fill="rgb(0,0,0)" rx="2" ry="2" />
<text  x="73.42" y="113.5" >ParLo..</text>
</g>
<g >
<title>Log_Event_subkernel9_cell_to__cell_integral_otherwise (2,400,966 us, 0.86%)</title><rect x="788.2" y="231" width="10.1" height="15.0" fill="rgb(0,0,0)" rx="2" ry="2" />
<text  x="791.24" y="241.5" ></text>
</g>
<g >
<title>Parloop_Cells_wrap_form_interior_facet_horiz_integral_otherwise (1,327,233 us, 0.47%)</title><rect x="37.3" y="103" width="5.6" height="15.0" fill="rgb(0,0,0)" rx="2" ry="2" />
<text  x="40.31" y="113.5" ></text>
</g>
<g >
<title>Parloop_Cells_wrap_par_loop_kernel (872,833 us, 0.31%)</title><rect x="570.0" y="199" width="3.7" height="15.0" fill="rgb(0,0,0)" rx="2" ry="2" />
<text  x="573.01" y="209.5" ></text>
</g>
<g >
<title>solve_getrf (34,060 us, 0.01%)</title><rect x="440.0" y="215" width="0.1" height="15.0" fill="rgb(0,0,0)" rx="2" ry="2" />
<text  x="442.96" y="225.5" ></text>
</g>
<g >
<title>PCApply (189,612,907 us, 67.55%)</title><rect x="345.1" y="119" width="797.1" height="15.0" fill="rgb(0,0,0)" rx="2" ry="2" />
<text  x="348.10" y="129.5" >PCApply</text>
</g>
<g >
<title>Parloop_Cells_wrap_wrap_slate_loopy_knl_18 (18,687,650 us, 6.66%)</title><rect x="354.1" y="167" width="78.6" height="15.0" fill="rgb(0,0,0)" rx="2" ry="2" />
<text  x="357.13" y="177.5" >Parloop_..</text>
</g>
<g >
<title>Log_Event_subkernel10_interior_facet_horiz_top_to__exterior_facet_top_integral_otherwise (465,647 us, 0.17%)</title><rect x="752.4" y="231" width="2.0" height="15.0" fill="rgb(0,0,0)" rx="2" ry="2" />
<text  x="755.41" y="241.5" ></text>
</g>
<g >
<title>CreateExtMesh (926,067 us, 0.33%)</title><rect x="15.4" y="71" width="3.9" height="15.0" fill="rgb(0,0,0)" rx="2" ry="2" />
<text  x="18.40" y="81.5" ></text>
</g>
<g >
<title>Parloop_IntFacets_wrap_form00_interior_facet_vert_integral_otherwise (2,562,190 us, 0.91%)</title><rect x="221.8" y="135" width="10.7" height="15.0" fill="rgb(0,0,0)" rx="2" ry="2" />
<text  x="224.78" y="145.5" ></text>
</g>
<g >
<title>Parloop_Cells_wrap_form0_cell_integral_otherwise (4,671,902 us, 1.66%)</title><rect x="1145.3" y="135" width="19.7" height="15.0" fill="rgb(0,0,0)" rx="2" ry="2" />
<text  x="1148.34" y="145.5" ></text>
</g>
<g >
<title>Log_Event_subkernel10_interior_facet_horiz_bottom_to__exterior_facet_bottom_integral_otherwise (463,138 us, 0.16%)</title><rect x="750.5" y="231" width="1.9" height="15.0" fill="rgb(0,0,0)" rx="2" ry="2" />
<text  x="753.46" y="241.5" ></text>
</g>
<g >
<title>firedrake.linear_solver.LinearSolver.solve (195,745 us, 0.07%)</title><rect x="244.6" y="103" width="0.8" height="15.0" fill="rgb(0,0,0)" rx="2" ry="2" />
<text  x="247.61" y="113.5" ></text>
</g>
<g >
<title>Log_Event_subkernel8_interior_facet_horiz_top_to__exterior_facet_top_integral_otherwise (502,746 us, 0.18%)</title><rect x="769.7" y="231" width="2.1" height="15.0" fill="rgb(0,0,0)" rx="2" ry="2" />
<text  x="772.67" y="241.5" ></text>
</g>
<g >
<title>all (280,696,860 us, 100%)</title><rect x="10.0" y="39" width="1180.0" height="15.0" fill="rgb(0,0,0)" rx="2" ry="2" />
<text  x="13.00" y="49.5" ></text>
</g>
<g >
<title>HybridBreak (872,833 us, 0.31%)</title><rect x="570.0" y="151" width="3.7" height="15.0" fill="rgb(0,0,0)" rx="2" ry="2" />
<text  x="573.01" y="161.5" ></text>
</g>
<g >
<title>firedrake.tsfc_interface.compile_form (3,494,182 us, 1.24%)</title><rect x="949.5" y="199" width="14.6" height="15.0" fill="rgb(0,0,0)" rx="2" ry="2" />
<text  x="952.45" y="209.5" ></text>
</g>
<g >
<title>Log_Event_subkernel2_cell_to__cell_integral_otherwise (28,475 us, 0.01%)</title><rect x="579.8" y="199" width="0.2" height="15.0" fill="rgb(0,0,0)" rx="2" ry="2" />
<text  x="582.85" y="209.5" ></text>
</g>
<g >
<title>firedrake.tsfc_interface.compile_form (2,322,967 us, 0.83%)</title><rect x="716.3" y="167" width="9.7" height="15.0" fill="rgb(0,0,0)" rx="2" ry="2" />
<text  x="719.27" y="177.5" ></text>
</g>
<g >
<title>Log_Event_slate_loopy_knl_7 (2,649,306 us, 0.94%)</title><rect x="739.3" y="231" width="11.2" height="15.0" fill="rgb(0,0,0)" rx="2" ry="2" />
<text  x="742.33" y="241.5" ></text>
</g>
<g >
<title>pyop2.global_kernel.GlobalKernel.compile (35,948,660 us, 12.81%)</title><rect x="798.3" y="231" width="151.2" height="15.0" fill="rgb(0,0,0)" rx="2" ry="2" />
<text  x="801.33" y="241.5" >pyop2.global_kern..</text>
</g>
<g >
<title>Parloop_Cells_wrap_form1_cell_integral_otherwise (4,482,353 us, 1.60%)</title><rect x="1165.0" y="135" width="18.8" height="15.0" fill="rgb(0,0,0)" rx="2" ry="2" />
<text  x="1167.98" y="145.5" ></text>
</g>
<g >
<title>pyop2.global_kernel.GlobalKernel.compile (32,422,525 us, 11.55%)</title><rect x="580.0" y="199" width="136.3" height="15.0" fill="rgb(0,0,0)" rx="2" ry="2" />
<text  x="582.97" y="209.5" >pyop2.global_ke..</text>
</g>
<g >
<title>Log_Event_form00_interior_facet_vert_integral_otherwise (47,277 us, 0.02%)</title><rect x="222.0" y="151" width="0.2" height="15.0" fill="rgb(0,0,0)" rx="2" ry="2" />
<text  x="224.98" y="161.5" ></text>
</g>
<g >
<title>pyop2.global_kernel.GlobalKernel.compile (25,365,203 us, 9.04%)</title><rect x="440.3" y="199" width="106.6" height="15.0" fill="rgb(0,0,0)" rx="2" ry="2" />
<text  x="443.29" y="209.5" >pyop2.globa..</text>
</g>
<g >
<title>pyop2.global_kernel.GlobalKernel.compile (2,466,708 us, 0.88%)</title><rect x="222.2" y="151" width="10.3" height="15.0" fill="rgb(0,0,0)" rx="2" ry="2" />
<text  x="225.18" y="161.5" ></text>
</g>
<g >
<title>SCBackSub (53,501,461 us, 19.06%)</title><rect x="345.1" y="135" width="224.9" height="15.0" fill="rgb(0,0,0)" rx="2" ry="2" />
<text  x="348.10" y="145.5" >SCBackSub</text>
</g>
<g >
<title>pyop2.global_kernel.GlobalKernel.compile (4,606,324 us, 1.64%)</title><rect x="304.7" y="183" width="19.3" height="15.0" fill="rgb(0,0,0)" rx="2" ry="2" />
<text  x="307.67" y="193.5" ></text>
</g>
<g >
<title>RecoverFirstElim (30,378,092 us, 10.82%)</title><rect x="432.7" y="151" width="127.7" height="15.0" fill="rgb(0,0,0)" rx="2" ry="2" />
<text  x="435.69" y="161.5" >RecoverFirstElim</text>
</g>
<g >
<title>firedrake.function.Function.project (43,272,586 us, 15.42%)</title><rect x="70.4" y="71" width="181.9" height="15.0" fill="rgb(0,0,0)" rx="2" ry="2" />
<text  x="73.42" y="81.5" >firedrake.function.Fu..</text>
</g>
<g >
<title>PCSetUpOnBlocks (157,167 us, 0.06%)</title><rect x="244.8" y="119" width="0.6" height="15.0" fill="rgb(0,0,0)" rx="2" ry="2" />
<text  x="247.77" y="129.5" ></text>
</g>
<g >
<title>firedrake.tsfc_interface.compile_form (2,286,902 us, 0.81%)</title><rect x="560.4" y="151" width="9.6" height="15.0" fill="rgb(0,0,0)" rx="2" ry="2" />
<text  x="563.39" y="161.5" ></text>
</g>
<g >
<title>firedrake.assemble_expressions.assemble_expression (732,635 us, 0.26%)</title><rect x="61.9" y="87" width="3.1" height="15.0" fill="rgb(0,0,0)" rx="2" ry="2" />
<text  x="64.89" y="97.5" ></text>
</g>
<g >
<title>Parloop_Cells_wrap_pyop2_kernel_uniform_extrusion (894,751 us, 0.32%)</title><rect x="15.5" y="119" width="3.8" height="15.0" fill="rgb(0,0,0)" rx="2" ry="2" />
<text  x="18.53" y="129.5" ></text>
</g>
<g >
<title>ParLoopExecute (37,084,576 us, 13.21%)</title><rect x="971.7" y="167" width="155.9" height="15.0" fill="rgb(0,0,0)" rx="2" ry="2" />
<text  x="974.74" y="177.5" >ParLoopExecute</text>
</g>
<g >
<title>Log_Event_slate_loopy_knl_0 (31,373 us, 0.01%)</title><rect x="579.5" y="199" width="0.1" height="15.0" fill="rgb(0,0,0)" rx="2" ry="2" />
<text  x="582.51" y="209.5" ></text>
</g>
<g >
<title>Parloop_Cells_wrap_par_loop_kernel (897,106 us, 0.32%)</title><rect x="350.4" y="199" width="3.7" height="15.0" fill="rgb(0,0,0)" rx="2" ry="2" />
<text  x="353.36" y="209.5" ></text>
</g>
<g >
<title>ParLoopExecute (10,597,596 us, 3.78%)</title><rect x="252.3" y="119" width="44.6" height="15.0" fill="rgb(0,0,0)" rx="2" ry="2" />
<text  x="255.33" y="129.5" >Par..</text>
</g>
<g >
<title>firedrake.projection.project (43,272,586 us, 15.42%)</title><rect x="70.4" y="87" width="181.9" height="15.0" fill="rgb(0,0,0)" rx="2" ry="2" />
<text  x="73.42" y="97.5" >firedrake.projection...</text>
</g>
<g >
<title>pyop2.global_kernel.GlobalKernel.compile (375,554 us, 0.13%)</title><rect x="61.9" y="151" width="1.6" height="15.0" fill="rgb(0,0,0)" rx="2" ry="2" />
<text  x="64.89" y="161.5" ></text>
</g>
<g >
<title>firedrake.parloops.par_loop (897,106 us, 0.32%)</title><rect x="350.4" y="167" width="3.7" height="15.0" fill="rgb(0,0,0)" rx="2" ry="2" />
<text  x="353.36" y="177.5" ></text>
</g>
<g >
<title>pyop2.global_kernel.GlobalKernel.compile (1,699,560 us, 0.61%)</title><rect x="195.1" y="151" width="7.1" height="15.0" fill="rgb(0,0,0)" rx="2" ry="2" />
<text  x="198.09" y="161.5" ></text>
</g>
<g >
<title>pyop2.global_kernel.GlobalKernel.compile (36,841,252 us, 13.12%)</title><rect x="972.8" y="199" width="154.8" height="15.0" fill="rgb(0,0,0)" rx="2" ry="2" />
<text  x="975.76" y="209.5" >pyop2.global_kerne..</text>
</g>
<g >
<title>SCSolve (98,997,162 us, 35.27%)</title><rect x="726.0" y="135" width="416.2" height="15.0" fill="rgb(0,0,0)" rx="2" ry="2" />
<text  x="729.03" y="145.5" >SCSolve</text>
</g>
<g >
<title>firedrake.assemble.assemble (12,450,797 us, 4.44%)</title><rect x="252.3" y="103" width="52.4" height="15.0" fill="rgb(0,0,0)" rx="2" ry="2" />
<text  x="255.33" y="113.5" >fire..</text>
</g>
<g >
<title>firedrake.parloops.par_loop (872,833 us, 0.31%)</title><rect x="570.0" y="167" width="3.7" height="15.0" fill="rgb(0,0,0)" rx="2" ry="2" />
<text  x="573.01" y="177.5" ></text>
</g>
<g >
<title>Parloop_Cells_wrap_form0_cell_integral_otherwise (4,606,324 us, 1.64%)</title><rect x="304.7" y="167" width="19.3" height="15.0" fill="rgb(0,0,0)" rx="2" ry="2" />
<text  x="307.67" y="177.5" ></text>
</g>
<g >
<title>firedrake.assemble.assemble (28,053,065 us, 9.99%)</title><rect x="126.7" y="103" width="117.9" height="15.0" fill="rgb(0,0,0)" rx="2" ry="2" />
<text  x="129.68" y="113.5" >firedrake.ass..</text>
</g>
<g >
<title>firedrake.assemble.allocate_matrix (1,197,305 us, 0.43%)</title><rect x="232.5" y="119" width="5.1" height="15.0" fill="rgb(0,0,0)" rx="2" ry="2" />
<text  x="235.55" y="129.5" ></text>
</g>
<g >
<title>Parloop_ExtFacets_wrap_form00_exterior_facet_vert_integral_otherwise (2,859,610 us, 1.02%)</title><rect x="209.8" y="135" width="12.0" height="15.0" fill="rgb(0,0,0)" rx="2" ry="2" />
<text  x="212.76" y="145.5" ></text>
</g>
<g >
<title>firedrake.extrusion_utils.make_extruded_coords (926,067 us, 0.33%)</title><rect x="15.4" y="87" width="3.9" height="15.0" fill="rgb(0,0,0)" rx="2" ry="2" />
<text  x="18.40" y="97.5" ></text>
</g>
<g >
<title>pyop2.global_kernel.GlobalKernel.compile (1,327,233 us, 0.47%)</title><rect x="37.3" y="119" width="5.6" height="15.0" fill="rgb(0,0,0)" rx="2" ry="2" />
<text  x="40.31" y="129.5" ></text>
</g>
</g>
</svg>
