<?xml version="1.0" standalone="no"?>
<!DOCTYPE svg PUBLIC "-//W3C//DTD SVG 1.1//EN" "http://www.w3.org/Graphics/SVG/1.1/DTD/svg11.dtd">
<svg version="1.1" width="1200" height="347" onload="init(evt)" viewBox="0 0 1200 347" xmlns="http://www.w3.org/2000/svg" xmlns:xlink="http://www.w3.org/1999/xlink">
<!-- Flame graph stack visualization. See https://github.com/brendangregg/FlameGraph for latest version, and http://www.brendangregg.com/flamegraphs.html for examples. -->
<!-- NOTES:  -->
<defs>
	<linearGradient id="background" y1="0" y2="1" x1="0" x2="0" >
		<stop stop-color="#eeeeee" offset="5%" />
		<stop stop-color="#eeeeb0" offset="95%" />
	</linearGradient>
</defs>
<style type="text/css">
	text { font-family:Verdana; font-size:13px; fill:rgb(0,0,0); }
	#search, #ignorecase { opacity:0.1; cursor:pointer; }
	#search:hover, #search.show, #ignorecase:hover, #ignorecase.show { opacity:1; }
	#subtitle { text-anchor:middle; font-color:rgb(160,160,160); }
	#title { text-anchor:middle; font-size:18px}
	#unzoom { cursor:pointer; }
	#frames > *:hover { stroke:black; stroke-width:0.5; cursor:pointer; }
	.hide { display:none; }
	.parent { opacity:0.5; }
</style>
<script type="text/ecmascript">
<![CDATA[
	"use strict";
	var details, searchbtn, unzoombtn, matchedtxt, svg, searching, currentSearchTerm, ignorecase, ignorecaseBtn;
	function init(evt) {
		details = document.getElementById("details").firstChild;
		searchbtn = document.getElementById("search");
		ignorecaseBtn = document.getElementById("ignorecase");
		unzoombtn = document.getElementById("unzoom");
		matchedtxt = document.getElementById("matched");
		svg = document.getElementsByTagName("svg")[0];
		searching = 0;
		currentSearchTerm = null;

		// use GET parameters to restore a flamegraphs state.
		var params = get_params();
		if (params.x && params.y)
			zoom(find_group(document.querySelector('[x="' + params.x + '"][y="' + params.y + '"]')));
                if (params.s) search(params.s);
	}

	// event listeners
	window.addEventListener("click", function(e) {
		var target = find_group(e.target);
		if (target) {
			if (target.nodeName == "a") {
				if (e.ctrlKey === false) return;
				e.preventDefault();
			}
			if (target.classList.contains("parent")) unzoom();
			zoom(target);
			if (!document.querySelector('.parent')) {
				clearzoom();
				return;
			}

			// set parameters for zoom state
			var el = target.querySelector("rect");
			if (el && el.attributes && el.attributes.y && el.attributes._orig_x) {
				var params = get_params()
				params.x = el.attributes._orig_x.value;
				params.y = el.attributes.y.value;
				history.replaceState(null, null, parse_params(params));
			}
		}
		else if (e.target.id == "unzoom") clearzoom();
		else if (e.target.id == "search") search_prompt();
		else if (e.target.id == "ignorecase") toggle_ignorecase();
	}, false)

	// mouse-over for info
	// show
	window.addEventListener("mouseover", function(e) {
		var target = find_group(e.target);
		if (target) details.nodeValue = "Function: " + g_to_text(target);
	}, false)

	// clear
	window.addEventListener("mouseout", function(e) {
		var target = find_group(e.target);
		if (target) details.nodeValue = ' ';
	}, false)

	// ctrl-F for search
	// ctrl-I to toggle case-sensitive search
	window.addEventListener("keydown",function (e) {
		if (e.keyCode === 114 || (e.ctrlKey && e.keyCode === 70)) {
			e.preventDefault();
			search_prompt();
		}
		else if (e.ctrlKey && e.keyCode === 73) {
			e.preventDefault();
			toggle_ignorecase();
		}
	}, false)

	// functions
	function get_params() {
		var params = {};
		var paramsarr = window.location.search.substr(1).split('&');
		for (var i = 0; i < paramsarr.length; ++i) {
			var tmp = paramsarr[i].split("=");
			if (!tmp[0] || !tmp[1]) continue;
			params[tmp[0]]  = decodeURIComponent(tmp[1]);
		}
		return params;
	}
	function parse_params(params) {
		var uri = "?";
		for (var key in params) {
			uri += key + '=' + encodeURIComponent(params[key]) + '&';
		}
		if (uri.slice(-1) == "&")
			uri = uri.substring(0, uri.length - 1);
		if (uri == '?')
			uri = window.location.href.split('?')[0];
		return uri;
	}
	function find_child(node, selector) {
		var children = node.querySelectorAll(selector);
		if (children.length) return children[0];
	}
	function find_group(node) {
		var parent = node.parentElement;
		if (!parent) return;
		if (parent.id == "frames") return node;
		return find_group(parent);
	}
	function orig_save(e, attr, val) {
		if (e.attributes["_orig_" + attr] != undefined) return;
		if (e.attributes[attr] == undefined) return;
		if (val == undefined) val = e.attributes[attr].value;
		e.setAttribute("_orig_" + attr, val);
	}
	function orig_load(e, attr) {
		if (e.attributes["_orig_"+attr] == undefined) return;
		e.attributes[attr].value = e.attributes["_orig_" + attr].value;
		e.removeAttribute("_orig_"+attr);
	}
	function g_to_text(e) {
		var text = find_child(e, "title").firstChild.nodeValue;
		return (text)
	}
	function g_to_func(e) {
		var func = g_to_text(e);
		// if there's any manipulation we want to do to the function
		// name before it's searched, do it here before returning.
		return (func);
	}
	function update_text(e) {
		var r = find_child(e, "rect");
		var t = find_child(e, "text");
		var w = parseFloat(r.attributes.width.value) -3;
		var txt = find_child(e, "title").textContent.replace(/\([^(]*\)$/,"");
		t.attributes.x.value = parseFloat(r.attributes.x.value) + 3;

		// Smaller than this size won't fit anything
		if (w < 2 * 13 * 0.59) {
			t.textContent = "";
			return;
		}

		t.textContent = txt;
		// Fit in full text width
		if (/^ *$/.test(txt) || t.getSubStringLength(0, txt.length) < w)
			return;

		for (var x = txt.length - 2; x > 0; x--) {
			if (t.getSubStringLength(0, x + 2) <= w) {
				t.textContent = txt.substring(0, x) + "..";
				return;
			}
		}
		t.textContent = "";
	}

	// zoom
	function zoom_reset(e) {
		if (e.attributes != undefined) {
			orig_load(e, "x");
			orig_load(e, "width");
		}
		if (e.childNodes == undefined) return;
		for (var i = 0, c = e.childNodes; i < c.length; i++) {
			zoom_reset(c[i]);
		}
	}
	function zoom_child(e, x, ratio) {
		if (e.attributes != undefined) {
			if (e.attributes.x != undefined) {
				orig_save(e, "x");
				e.attributes.x.value = (parseFloat(e.attributes.x.value) - x - 10) * ratio + 10;
				if (e.tagName == "text")
					e.attributes.x.value = find_child(e.parentNode, "rect[x]").attributes.x.value + 3;
			}
			if (e.attributes.width != undefined) {
				orig_save(e, "width");
				e.attributes.width.value = parseFloat(e.attributes.width.value) * ratio;
			}
		}

		if (e.childNodes == undefined) return;
		for (var i = 0, c = e.childNodes; i < c.length; i++) {
			zoom_child(c[i], x - 10, ratio);
		}
	}
	function zoom_parent(e) {
		if (e.attributes) {
			if (e.attributes.x != undefined) {
				orig_save(e, "x");
				e.attributes.x.value = 10;
			}
			if (e.attributes.width != undefined) {
				orig_save(e, "width");
				e.attributes.width.value = parseInt(svg.width.baseVal.value) - (10 * 2);
			}
		}
		if (e.childNodes == undefined) return;
		for (var i = 0, c = e.childNodes; i < c.length; i++) {
			zoom_parent(c[i]);
		}
	}
	function zoom(node) {
		var attr = find_child(node, "rect").attributes;
		var width = parseFloat(attr.width.value);
		var xmin = parseFloat(attr.x.value);
		var xmax = parseFloat(xmin + width);
		var ymin = parseFloat(attr.y.value);
		var ratio = (svg.width.baseVal.value - 2 * 10) / width;

		// XXX: Workaround for JavaScript float issues (fix me)
		var fudge = 0.0001;

		unzoombtn.classList.remove("hide");

		var el = document.getElementById("frames").children;
		for (var i = 0; i < el.length; i++) {
			var e = el[i];
			var a = find_child(e, "rect").attributes;
			var ex = parseFloat(a.x.value);
			var ew = parseFloat(a.width.value);
			var upstack;
			// Is it an ancestor
			if (1 == 0) {
				upstack = parseFloat(a.y.value) > ymin;
			} else {
				upstack = parseFloat(a.y.value) < ymin;
			}
			if (upstack) {
				// Direct ancestor
				if (ex <= xmin && (ex+ew+fudge) >= xmax) {
					e.classList.add("parent");
					zoom_parent(e);
					update_text(e);
				}
				// not in current path
				else
					e.classList.add("hide");
			}
			// Children maybe
			else {
				// no common path
				if (ex < xmin || ex + fudge >= xmax) {
					e.classList.add("hide");
				}
				else {
					zoom_child(e, xmin, ratio);
					update_text(e);
				}
			}
		}
		search();
	}
	function unzoom() {
		unzoombtn.classList.add("hide");
		var el = document.getElementById("frames").children;
		for(var i = 0; i < el.length; i++) {
			el[i].classList.remove("parent");
			el[i].classList.remove("hide");
			zoom_reset(el[i]);
			update_text(el[i]);
		}
		search();
	}
	function clearzoom() {
		unzoom();

		// remove zoom state
		var params = get_params();
		if (params.x) delete params.x;
		if (params.y) delete params.y;
		history.replaceState(null, null, parse_params(params));
	}

	// search
	function toggle_ignorecase() {
		ignorecase = !ignorecase;
		if (ignorecase) {
			ignorecaseBtn.classList.add("show");
		} else {
			ignorecaseBtn.classList.remove("show");
		}
		reset_search();
		search();
	}
	function reset_search() {
		var el = document.querySelectorAll("#frames rect");
		for (var i = 0; i < el.length; i++) {
			orig_load(el[i], "fill")
		}
		var params = get_params();
		delete params.s;
		history.replaceState(null, null, parse_params(params));
	}
	function search_prompt() {
		if (!searching) {
			var term = prompt("Enter a search term (regexp " +
			    "allowed, eg: ^ext4_)"
			    + (ignorecase ? ", ignoring case" : "")
			    + "\nPress Ctrl-i to toggle case sensitivity", "");
			if (term != null) search(term);
		} else {
			reset_search();
			searching = 0;
			currentSearchTerm = null;
			searchbtn.classList.remove("show");
			searchbtn.firstChild.nodeValue = "Search"
			matchedtxt.classList.add("hide");
			matchedtxt.firstChild.nodeValue = ""
		}
	}
	function search(term) {
		if (term) currentSearchTerm = term;

		var re = new RegExp(currentSearchTerm, ignorecase ? 'i' : '');
		var el = document.getElementById("frames").children;
		var matches = new Object();
		var maxwidth = 0;
		for (var i = 0; i < el.length; i++) {
			var e = el[i];
			var func = g_to_func(e);
			var rect = find_child(e, "rect");
			if (func == null || rect == null)
				continue;

			// Save max width. Only works as we have a root frame
			var w = parseFloat(rect.attributes.width.value);
			if (w > maxwidth)
				maxwidth = w;

			if (func.match(re)) {
				// highlight
				var x = parseFloat(rect.attributes.x.value);
				orig_save(rect, "fill");
				rect.attributes.fill.value = "rgb(230,0,230)";

				// remember matches
				if (matches[x] == undefined) {
					matches[x] = w;
				} else {
					if (w > matches[x]) {
						// overwrite with parent
						matches[x] = w;
					}
				}
				searching = 1;
			}
		}
		if (!searching)
			return;
		var params = get_params();
		params.s = currentSearchTerm;
		history.replaceState(null, null, parse_params(params));

		searchbtn.classList.add("show");
		searchbtn.firstChild.nodeValue = "Reset Search";

		// calculate percent matched, excluding vertical overlap
		var count = 0;
		var lastx = -1;
		var lastw = 0;
		var keys = Array();
		for (k in matches) {
			if (matches.hasOwnProperty(k))
				keys.push(k);
		}
		// sort the matched frames by their x location
		// ascending, then width descending
		keys.sort(function(a, b){
			return a - b;
		});
		// Step through frames saving only the biggest bottom-up frames
		// thanks to the sort order. This relies on the tree property
		// where children are always smaller than their parents.
		var fudge = 0.0001;	// JavaScript floating point
		for (var k in keys) {
			var x = parseFloat(keys[k]);
			var w = matches[keys[k]];
			if (x >= lastx + lastw - fudge) {
				count += w;
				lastx = x;
				lastw = w;
			}
		}
		// display matched percent
		matchedtxt.classList.remove("hide");
		var pct = 100 * count / maxwidth;
		if (pct != 100) pct = pct.toFixed(1)
		matchedtxt.firstChild.nodeValue = "Matched: " + pct + "%";
	}
]]>
</script>
<rect x="0.0" y="0" width="1200.0" height="347.0" fill="url(#background)"  />
<text id="title" x="600.00" y="26" >Firedrake example</text>
<text id="details" x="10.00" y="329" > </text>
<text id="unzoom" x="10.00" y="26" class="hide">Reset Zoom</text>
<text id="search" x="1090.00" y="26" >Search</text>
<text id="ignorecase" x="1174.00" y="26" >ic</text>
<text id="matched" x="1090.00" y="329" > </text>
<g id="frames">
<g >
<title>Log_Event_subkernel119_cell_to__cell_integral_otherwise (285,546 us, 0.20%)</title><rect x="121.5" y="263" width="2.3" height="15.0" fill="rgb(0,0,0)" rx="2" ry="2" />
<text  x="124.46" y="273.5" ></text>
</g>
<g >
<title>Log_Event_subkernel122_interior_facet_horiz_bottom_to__exterior_facet_bottom_integral_otherwise (122,565 us, 0.08%)</title><rect x="634.3" y="247" width="1.0" height="15.0" fill="rgb(0,0,0)" rx="2" ry="2" />
<text  x="637.32" y="257.5" ></text>
</g>
<g >
<title>Log_Event_subkernel126_cell_to__cell_integral_otherwise (198,381 us, 0.14%)</title><rect x="127.2" y="263" width="1.6" height="15.0" fill="rgb(0,0,0)" rx="2" ry="2" />
<text  x="130.17" y="273.5" ></text>
</g>
<g >
<title>Log_Event_subkernel98_cell_to__cell_integral_otherwise (317,101 us, 0.22%)</title><rect x="617.1" y="279" width="2.6" height="15.0" fill="rgb(0,0,0)" rx="2" ry="2" />
<text  x="620.10" y="289.5" ></text>
</g>
<g >
<title>Log_Event_tensorshell_knl_2 (112,751 us, 0.08%)</title><rect x="71.5" y="231" width="0.9" height="15.0" fill="rgb(0,0,0)" rx="2" ry="2" />
<text  x="74.53" y="241.5" ></text>
</g>
<g >
<title>firedrake.__init__ (1,525,479 us, 1.05%)</title><rect x="23.1" y="71" width="12.4" height="15.0" fill="rgb(0,0,0)" rx="2" ry="2" />
<text  x="26.14" y="81.5" ></text>
</g>
<g >
<title>Parloop_Cells_wrap_form0_cell_integral_otherwise (79,155 us, 0.05%)</title><rect x="35.5" y="167" width="0.7" height="15.0" fill="rgb(0,0,0)" rx="2" ry="2" />
<text  x="38.54" y="177.5" ></text>
</g>
<g >
<title>MatMult (1,380,323 us, 0.95%)</title><rect x="673.8" y="231" width="11.2" height="15.0" fill="rgb(0,0,0)" rx="2" ry="2" />
<text  x="676.78" y="241.5" ></text>
</g>
<g >
<title>Log_Event_subkernel144_cell_to__cell_integral_otherwise (16,687,037 us, 11.49%)</title><rect x="381.5" y="279" width="135.7" height="15.0" fill="rgb(0,0,0)" rx="2" ry="2" />
<text  x="384.54" y="289.5" >Log_Event_subke..</text>
</g>
<g >
<title>ParLoopExecute (105,329 us, 0.07%)</title><rect x="1187.2" y="167" width="0.8" height="15.0" fill="rgb(0,0,0)" rx="2" ry="2" />
<text  x="1190.18" y="177.5" ></text>
</g>
<g >
<title>Log_Event_subkernel82_cell_to__cell_integral_otherwise (117,084 us, 0.08%)</title><rect x="1161.7" y="263" width="1.0" height="15.0" fill="rgb(0,0,0)" rx="2" ry="2" />
<text  x="1164.75" y="273.5" ></text>
</g>
<g >
<title>Log_Event_subkernel162_interior_facet_horiz_bottom_to__exterior_facet_bottom_integral_otherwise (114,800 us, 0.08%)</title><rect x="656.2" y="247" width="0.9" height="15.0" fill="rgb(0,0,0)" rx="2" ry="2" />
<text  x="659.21" y="257.5" ></text>
</g>
<g >
<title>Log_Event_subkernel15_cell_to__cell_integral_otherwise (796,289 us, 0.55%)</title><rect x="62.1" y="247" width="6.4" height="15.0" fill="rgb(0,0,0)" rx="2" ry="2" />
<text  x="65.06" y="257.5" ></text>
</g>
<g >
<title>PCSetUp (204,198 us, 0.14%)</title><rect x="1187.2" y="151" width="1.6" height="15.0" fill="rgb(0,0,0)" rx="2" ry="2" />
<text  x="1190.18" y="161.5" ></text>
</g>
<g >
<title>Log_Event_subkernel78_interior_facet_horiz_bottom_to__exterior_facet_bottom_integral_otherwise (84,226 us, 0.06%)</title><rect x="1147.3" y="263" width="0.7" height="15.0" fill="rgb(0,0,0)" rx="2" ry="2" />
<text  x="1150.35" y="273.5" ></text>
</g>
<g >
<title>Log_Event_mtf_solve_16 (1,253,895 us, 0.86%)</title><rect x="51.9" y="247" width="10.2" height="15.0" fill="rgb(0,0,0)" rx="2" ry="2" />
<text  x="54.87" y="257.5" ></text>
</g>
<g >
<title>Log_Event_subkernel96_cell_to__cell_integral_otherwise (291,872 us, 0.20%)</title><rect x="608.8" y="295" width="2.4" height="15.0" fill="rgb(0,0,0)" rx="2" ry="2" />
<text  x="611.82" y="305.5" ></text>
</g>
<g >
<title>SCForwardElim (4,652,760 us, 3.20%)</title><rect x="36.2" y="135" width="37.8" height="15.0" fill="rgb(0,0,0)" rx="2" ry="2" />
<text  x="39.18" y="145.5" >SC..</text>
</g>
<g >
<title>Log_Event_subkernel124_cell_to__cell_integral_otherwise (287,518 us, 0.20%)</title><rect x="124.8" y="263" width="2.4" height="15.0" fill="rgb(0,0,0)" rx="2" ry="2" />
<text  x="127.83" y="273.5" ></text>
</g>
<g >
<title>Log_Event_mtf_solve_92 (777,683 us, 0.54%)</title><rect x="604.9" y="279" width="6.3" height="15.0" fill="rgb(0,0,0)" rx="2" ry="2" />
<text  x="607.87" y="289.5" ></text>
</g>
<g >
<title>Log_Event_subkernel118_cell_to__cell_integral_otherwise (197,112 us, 0.14%)</title><rect x="119.9" y="263" width="1.6" height="15.0" fill="rgb(0,0,0)" rx="2" ry="2" />
<text  x="122.86" y="273.5" ></text>
</g>
<g >
<title>Log_Event_subkernel79_cell_to__cell_integral_otherwise (561,131 us, 0.39%)</title><rect x="1154.5" y="263" width="4.6" height="15.0" fill="rgb(0,0,0)" rx="2" ry="2" />
<text  x="1157.54" y="273.5" ></text>
</g>
<g >
<title>Parloop_Cells_wrap_slate_loopy_knl_87 (73,625 us, 0.05%)</title><rect x="684.4" y="279" width="0.6" height="15.0" fill="rgb(0,0,0)" rx="2" ry="2" />
<text  x="687.40" y="289.5" ></text>
</g>
<g >
<title>KSPSolve (1,380,323 us, 0.95%)</title><rect x="673.8" y="215" width="11.2" height="15.0" fill="rgb(0,0,0)" rx="2" ry="2" />
<text  x="676.78" y="225.5" ></text>
</g>
<g >
<title>Log_Event_tensorshell_knl_54 (95,803 us, 0.07%)</title><rect x="73.2" y="231" width="0.8" height="15.0" fill="rgb(0,0,0)" rx="2" ry="2" />
<text  x="76.22" y="241.5" ></text>
</g>
<g >
<title>Log_Event_subkernel84_cell_to__cell_integral_otherwise (153,237 us, 0.11%)</title><rect x="1163.3" y="263" width="1.3" height="15.0" fill="rgb(0,0,0)" rx="2" ry="2" />
<text  x="1166.34" y="273.5" ></text>
</g>
<g >
<title>Log_Event_subkernel148_cell_to__cell_integral_otherwise (4,421,178 us, 3.05%)</title><rect x="226.8" y="295" width="35.9" height="15.0" fill="rgb(0,0,0)" rx="2" ry="2" />
<text  x="229.80" y="305.5" >Lo..</text>
</g>
<g >
<title>MatMult (73,799,563 us, 50.83%)</title><rect x="74.0" y="167" width="599.8" height="15.0" fill="rgb(0,0,0)" rx="2" ry="2" />
<text  x="77.00" y="177.5" >MatMult</text>
</g>
<g >
<title>Log_Event_tensorshell_knl_90 (1,821,679 us, 1.25%)</title><rect x="604.9" y="263" width="14.8" height="15.0" fill="rgb(0,0,0)" rx="2" ry="2" />
<text  x="607.87" y="273.5" ></text>
</g>
<g >
<title>firedrake (145,191,462 us, 100.00%)</title><rect x="10.0" y="55" width="1180.0" height="15.0" fill="rgb(0,0,0)" rx="2" ry="2" />
<text  x="13.00" y="65.5" >firedrake</text>
</g>
<g >
<title>Log_Event_mtf_solve_115 (770,348 us, 0.53%)</title><rect x="117.5" y="247" width="6.3" height="15.0" fill="rgb(0,0,0)" rx="2" ry="2" />
<text  x="120.52" y="257.5" ></text>
</g>
<g >
<title>Log_Event_tensorshell_knl_131 (2,224,143 us, 1.53%)</title><rect x="141.4" y="263" width="18.0" height="15.0" fill="rgb(0,0,0)" rx="2" ry="2" />
<text  x="144.36" y="273.5" ></text>
</g>
<g >
<title>Log_Event_subkernel134_cell_to__cell_integral_otherwise (287,240 us, 0.20%)</title><rect x="142.4" y="295" width="2.3" height="15.0" fill="rgb(0,0,0)" rx="2" ry="2" />
<text  x="145.37" y="305.5" ></text>
</g>
<g >
<title>Log_Event_mtf_solve_89 (4,394,487 us, 3.03%)</title><rect x="584.0" y="247" width="35.7" height="15.0" fill="rgb(0,0,0)" rx="2" ry="2" />
<text  x="586.96" y="257.5" >Lo..</text>
</g>
<g >
<title>Log_Event_mtf_solve_41 (191,278 us, 0.13%)</title><rect x="72.4" y="215" width="1.6" height="15.0" fill="rgb(0,0,0)" rx="2" ry="2" />
<text  x="75.44" y="225.5" ></text>
</g>
<g >
<title>Log_Event_tensorshell_knl_102 (1,817,869 us, 1.25%)</title><rect x="590.1" y="263" width="14.8" height="15.0" fill="rgb(0,0,0)" rx="2" ry="2" />
<text  x="593.10" y="273.5" ></text>
</g>
<g >
<title>Log_Event_tensorshell_knl_42 (95,475 us, 0.07%)</title><rect x="72.4" y="231" width="0.8" height="15.0" fill="rgb(0,0,0)" rx="2" ry="2" />
<text  x="75.44" y="241.5" ></text>
</g>
<g >
<title>Log_Event_subkernel162_interior_facet_horiz_top_to__exterior_facet_top_integral_otherwise (111,972 us, 0.08%)</title><rect x="657.1" y="247" width="1.0" height="15.0" fill="rgb(0,0,0)" rx="2" ry="2" />
<text  x="660.14" y="257.5" ></text>
</g>
<g >
<title>KSPSolve (136,969,733 us, 94.34%)</title><rect x="74.0" y="151" width="1113.2" height="15.0" fill="rgb(0,0,0)" rx="2" ry="2" />
<text  x="77.00" y="161.5" >KSPSolve</text>
</g>
<g >
<title>Log_Event_subkernel121_interior_facet_horiz_top_to__exterior_facet_top_integral_otherwise (112,879 us, 0.08%)</title><rect x="626.5" y="247" width="0.9" height="15.0" fill="rgb(0,0,0)" rx="2" ry="2" />
<text  x="629.50" y="257.5" ></text>
</g>
<g >
<title>Log_Event_subkernel19_cell_to__cell_integral_otherwise (212,011 us, 0.15%)</title><rect x="55.5" y="263" width="1.7" height="15.0" fill="rgb(0,0,0)" rx="2" ry="2" />
<text  x="58.48" y="273.5" ></text>
</g>
<g >
<title>Log_Event_subkernel122_interior_facet_vert_to__exterior_facet_vert_integral_otherwise (1,405,521 us, 0.97%)</title><rect x="636.3" y="247" width="11.4" height="15.0" fill="rgb(0,0,0)" rx="2" ry="2" />
<text  x="639.31" y="257.5" ></text>
</g>
<g >
<title>MatMult (79,155 us, 0.05%)</title><rect x="35.5" y="119" width="0.7" height="15.0" fill="rgb(0,0,0)" rx="2" ry="2" />
<text  x="38.54" y="129.5" ></text>
</g>
<g >
<title>KSPSolve (141,905,846 us, 97.74%)</title><rect x="35.5" y="103" width="1153.3" height="15.0" fill="rgb(0,0,0)" rx="2" ry="2" />
<text  x="38.54" y="113.5" >KSPSolve</text>
</g>
<g >
<title>Log_Event_subkernel101_interior_facet_vert_to__exterior_facet_vert_integral_otherwise (250,771 us, 0.17%)</title><rect x="588.1" y="263" width="2.0" height="15.0" fill="rgb(0,0,0)" rx="2" ry="2" />
<text  x="591.06" y="273.5" ></text>
</g>
<g >
<title>ParLoopExecute (59,106,473 us, 40.71%)</title><rect x="689.2" y="231" width="480.4" height="15.0" fill="rgb(0,0,0)" rx="2" ry="2" />
<text  x="692.24" y="241.5" >ParLoopExecute</text>
</g>
<g >
<title>Log_Event_subkernel110_cell_to__cell_integral_otherwise (316,538 us, 0.22%)</title><rect x="602.3" y="279" width="2.6" height="15.0" fill="rgb(0,0,0)" rx="2" ry="2" />
<text  x="605.30" y="289.5" ></text>
</g>
<g >
<title>ParLoopExecute (3,367,881 us, 2.32%)</title><rect x="46.6" y="167" width="27.4" height="15.0" fill="rgb(0,0,0)" rx="2" ry="2" />
<text  x="49.63" y="177.5" >P..</text>
</g>
<g >
<title>Log_Event_subkernel163_interior_facet_horiz_bottom_to__exterior_facet_bottom_integral_otherwise (115,087 us, 0.08%)</title><rect x="665.0" y="247" width="0.9" height="15.0" fill="rgb(0,0,0)" rx="2" ry="2" />
<text  x="667.97" y="257.5" ></text>
</g>
<g >
<title>CreateSparsity (1,695,065 us, 1.17%)</title><rect x="1169.6" y="247" width="13.8" height="15.0" fill="rgb(0,0,0)" rx="2" ry="2" />
<text  x="1172.61" y="257.5" ></text>
</g>
<g >
<title>Log_Event_tensorshell_knl_147 (452,113 us, 0.31%)</title><rect x="370.5" y="295" width="3.6" height="15.0" fill="rgb(0,0,0)" rx="2" ry="2" />
<text  x="373.46" y="305.5" ></text>
</g>
<g >
<title>inv_getri (3,809,042 us, 2.62%)</title><rect x="1116.4" y="279" width="30.9" height="15.0" fill="rgb(0,0,0)" rx="2" ry="2" />
<text  x="1119.39" y="289.5" >in..</text>
</g>
<g >
<title>Log_Event_mtf_solve_133 (1,182,499 us, 0.81%)</title><rect x="141.4" y="279" width="9.6" height="15.0" fill="rgb(0,0,0)" rx="2" ry="2" />
<text  x="144.36" y="289.5" ></text>
</g>
<g >
<title>all (145,191,462 us, 100%)</title><rect x="10.0" y="39" width="1180.0" height="15.0" fill="rgb(0,0,0)" rx="2" ry="2" />
<text  x="13.00" y="49.5" ></text>
</g>
<g >
<title>Log_Event_subkernel157_cell_to__cell_integral_otherwise (285,517 us, 0.20%)</title><rect x="575.5" y="263" width="2.3" height="15.0" fill="rgb(0,0,0)" rx="2" ry="2" />
<text  x="578.49" y="273.5" ></text>
</g>
<g >
<title>Log_Event_subkernel142_cell_to__cell_integral_otherwise (293,710 us, 0.20%)</title><rect x="136.9" y="263" width="2.4" height="15.0" fill="rgb(0,0,0)" rx="2" ry="2" />
<text  x="139.93" y="273.5" ></text>
</g>
<g >
<title>Log_Event_subkernel93_cell_to__cell_integral_otherwise (287,336 us, 0.20%)</title><rect x="604.9" y="295" width="2.3" height="15.0" fill="rgb(0,0,0)" rx="2" ry="2" />
<text  x="607.87" y="305.5" ></text>
</g>
<g >
<title>PCApply (63,170,170 us, 43.51%)</title><rect x="673.8" y="167" width="513.4" height="15.0" fill="rgb(0,0,0)" rx="2" ry="2" />
<text  x="676.78" y="177.5" >PCApply</text>
</g>
<g >
<title>firedrake.matrix_free.operators.ImplicitMatrixContext.mult (79,155 us, 0.05%)</title><rect x="35.5" y="135" width="0.7" height="15.0" fill="rgb(0,0,0)" rx="2" ry="2" />
<text  x="38.54" y="145.5" ></text>
</g>
<g >
<title>Log_Event_subkernel159_cell_to__cell_integral_otherwise (195,321 us, 0.13%)</title><rect x="577.8" y="263" width="1.6" height="15.0" fill="rgb(0,0,0)" rx="2" ry="2" />
<text  x="580.81" y="273.5" ></text>
</g>
<g >
<title>Log_Event_subkernel78_interior_facet_vert_to__exterior_facet_vert_integral_otherwise (713,929 us, 0.49%)</title><rect x="1148.7" y="263" width="5.8" height="15.0" fill="rgb(0,0,0)" rx="2" ry="2" />
<text  x="1151.74" y="273.5" ></text>
</g>
<g >
<title>PCSetUp (63,170,170 us, 43.51%)</title><rect x="673.8" y="183" width="513.4" height="15.0" fill="rgb(0,0,0)" rx="2" ry="2" />
<text  x="676.78" y="193.5" >PCSetUp</text>
</g>
<g >
<title>CreateSparsity (98,869 us, 0.07%)</title><rect x="1188.0" y="183" width="0.8" height="15.0" fill="rgb(0,0,0)" rx="2" ry="2" />
<text  x="1191.03" y="193.5" ></text>
</g>
<g >
<title>Log_Event_tensorshell_knl_143 (50,997,375 us, 35.12%)</title><rect x="159.4" y="263" width="414.5" height="15.0" fill="rgb(0,0,0)" rx="2" ry="2" />
<text  x="162.44" y="273.5" >Log_Event_tensorshell_knl_143</text>
</g>
<g >
<title>firedrake.interpolation.make_interpolator (98,869 us, 0.07%)</title><rect x="1188.0" y="167" width="0.8" height="15.0" fill="rgb(0,0,0)" rx="2" ry="2" />
<text  x="1191.03" y="177.5" ></text>
</g>
<g >
<title>Log_Event_subkernel114_cell_to__cell_integral_otherwise (724,022 us, 0.50%)</title><rect x="619.7" y="247" width="5.9" height="15.0" fill="rgb(0,0,0)" rx="2" ry="2" />
<text  x="622.68" y="257.5" ></text>
</g>
<g >
<title>Log_Event_subkernel129_cell_to__cell_integral_otherwise (317,411 us, 0.22%)</title><rect x="647.7" y="247" width="2.6" height="15.0" fill="rgb(0,0,0)" rx="2" ry="2" />
<text  x="650.73" y="257.5" ></text>
</g>
<g >
<title>Log_Event_subkernel17_cell_to__cell_integral_otherwise (313,137 us, 0.22%)</title><rect x="52.9" y="263" width="2.6" height="15.0" fill="rgb(0,0,0)" rx="2" ry="2" />
<text  x="55.94" y="273.5" ></text>
</g>
<g >
<title>Log_Event_mtf_solve_1 (2,530,979 us, 1.74%)</title><rect x="51.9" y="215" width="20.5" height="15.0" fill="rgb(0,0,0)" rx="2" ry="2" />
<text  x="54.87" y="225.5" ></text>
</g>
<g >
<title>Log_Event_subkernel121_interior_facet_horiz_bottom_to__exterior_facet_bottom_integral_otherwise (115,280 us, 0.08%)</title><rect x="625.6" y="247" width="0.9" height="15.0" fill="rgb(0,0,0)" rx="2" ry="2" />
<text  x="628.56" y="257.5" ></text>
</g>
<g >
<title>inv_getrf (897,316 us, 0.62%)</title><rect x="1109.1" y="279" width="7.3" height="15.0" fill="rgb(0,0,0)" rx="2" ry="2" />
<text  x="1112.10" y="289.5" ></text>
</g>
<g >
<title>HybridRHS (4,652,760 us, 3.20%)</title><rect x="36.2" y="151" width="37.8" height="15.0" fill="rgb(0,0,0)" rx="2" ry="2" />
<text  x="39.18" y="161.5" >Hy..</text>
</g>
<g >
<title>Log_Event_subkernel121_interior_facet_vert_to__exterior_facet_vert_integral_otherwise (849,594 us, 0.59%)</title><rect x="627.4" y="247" width="6.9" height="15.0" fill="rgb(0,0,0)" rx="2" ry="2" />
<text  x="630.42" y="257.5" ></text>
</g>
<g >
<title>ParLoopExecute (73,625 us, 0.05%)</title><rect x="684.4" y="263" width="0.6" height="15.0" fill="rgb(0,0,0)" rx="2" ry="2" />
<text  x="687.40" y="273.5" ></text>
</g>
<g >
<title>Log_Event_subkernel139_cell_to__cell_integral_otherwise (315,715 us, 0.22%)</title><rect x="156.9" y="279" width="2.5" height="15.0" fill="rgb(0,0,0)" rx="2" ry="2" />
<text  x="159.87" y="289.5" ></text>
</g>
<g >
<title>Log_Event_mtf_solve_123 (1,176,240 us, 0.81%)</title><rect x="123.8" y="247" width="9.5" height="15.0" fill="rgb(0,0,0)" rx="2" ry="2" />
<text  x="126.78" y="257.5" ></text>
</g>
<g >
<title>Log_Event_subkernel78_interior_facet_horiz_top_to__exterior_facet_top_integral_otherwise (86,831 us, 0.06%)</title><rect x="1148.0" y="263" width="0.7" height="15.0" fill="rgb(0,0,0)" rx="2" ry="2" />
<text  x="1151.03" y="273.5" ></text>
</g>
<g >
<title>Parloop_Cells_wrap_wrap_slate_loopy_knl_77 (59,106,473 us, 40.71%)</title><rect x="689.2" y="247" width="480.4" height="15.0" fill="rgb(0,0,0)" rx="2" ry="2" />
<text  x="692.24" y="257.5" >Parloop_Cells_wrap_wrap_slate_loopy_knl_77</text>
</g>
<g >
<title>Log_Event_slate_loopy_knl_77 (55,611,373 us, 38.30%)</title><rect x="695.4" y="263" width="451.9" height="15.0" fill="rgb(0,0,0)" rx="2" ry="2" />
<text  x="698.38" y="273.5" >Log_Event_slate_loopy_knl_77</text>
</g>
<g >
<title>Parloop_Cells_wrap_slate_loopy_knl_87 (73,799,563 us, 50.83%)</title><rect x="74.0" y="215" width="599.8" height="15.0" fill="rgb(0,0,0)" rx="2" ry="2" />
<text  x="77.00" y="225.5" >Parloop_Cells_wrap_slate_loopy_knl_87</text>
</g>
<g >
<title>firedrake.matrix_free.operators.ImplicitMatrixContext.mult (1,380,323 us, 0.95%)</title><rect x="673.8" y="247" width="11.2" height="15.0" fill="rgb(0,0,0)" rx="2" ry="2" />
<text  x="676.78" y="257.5" ></text>
</g>
<g >
<title>PCSetUp (143,009 us, 0.10%)</title><rect x="1188.8" y="103" width="1.2" height="15.0" fill="rgb(0,0,0)" rx="2" ry="2" />
<text  x="1191.84" y="113.5" ></text>
</g>
<g >
<title>Log_Event_subkernel136_cell_to__cell_integral_otherwise (198,658 us, 0.14%)</title><rect x="144.7" y="295" width="1.6" height="15.0" fill="rgb(0,0,0)" rx="2" ry="2" />
<text  x="147.71" y="305.5" ></text>
</g>
<g >
<title>Parloop_Cells_wrap_slate_loopy_knl_0 (3,367,881 us, 2.32%)</title><rect x="46.6" y="183" width="27.4" height="15.0" fill="rgb(0,0,0)" rx="2" ry="2" />
<text  x="49.63" y="193.5" >P..</text>
</g>
<g >
<title>KSPSetUp (63,170,170 us, 43.51%)</title><rect x="673.8" y="199" width="513.4" height="15.0" fill="rgb(0,0,0)" rx="2" ry="2" />
<text  x="676.78" y="209.5" >KSPSetUp</text>
</g>
<g >
<title>Log_Event_subkernel105_cell_to__cell_integral_otherwise (285,525 us, 0.20%)</title><rect x="590.1" y="295" width="2.3" height="15.0" fill="rgb(0,0,0)" rx="2" ry="2" />
<text  x="593.10" y="305.5" ></text>
</g>
<g >
<title>PCSetUp (61,789,847 us, 42.56%)</title><rect x="685.0" y="215" width="502.2" height="15.0" fill="rgb(0,0,0)" rx="2" ry="2" />
<text  x="688.00" y="225.5" >PCSetUp</text>
</g>
<g >
<title>Log_Event_subkernel155_cell_to__cell_integral_otherwise (725,906 us, 0.50%)</title><rect x="650.3" y="247" width="5.9" height="15.0" fill="rgb(0,0,0)" rx="2" ry="2" />
<text  x="653.31" y="257.5" ></text>
</g>
<g >
<title>Log_Event_subkernel163_interior_facet_vert_to__exterior_facet_vert_integral_otherwise (855,531 us, 0.59%)</title><rect x="666.8" y="247" width="7.0" height="15.0" fill="rgb(0,0,0)" rx="2" ry="2" />
<text  x="669.83" y="257.5" ></text>
</g>
<g >
<title>Log_Event_subkernel149_cell_to__cell_integral_otherwise (13,254,934 us, 9.13%)</title><rect x="262.7" y="295" width="107.8" height="15.0" fill="rgb(0,0,0)" rx="2" ry="2" />
<text  x="265.73" y="305.5" >Log_Event_su..</text>
</g>
<g >
<title>Log_Event_subkernel80_cell_to__cell_integral_otherwise (325,537 us, 0.22%)</title><rect x="1159.1" y="263" width="2.6" height="15.0" fill="rgb(0,0,0)" rx="2" ry="2" />
<text  x="1162.10" y="273.5" ></text>
</g>
<g >
<title>Log_Event_subkernel132_cell_to__cell_integral_otherwise (725,929 us, 0.50%)</title><rect x="151.0" y="279" width="5.9" height="15.0" fill="rgb(0,0,0)" rx="2" ry="2" />
<text  x="153.97" y="289.5" ></text>
</g>
<g >
<title>Log_Event_subkernel163_interior_facet_horiz_top_to__exterior_facet_top_integral_otherwise (114,187 us, 0.08%)</title><rect x="665.9" y="247" width="0.9" height="15.0" fill="rgb(0,0,0)" rx="2" ry="2" />
<text  x="668.90" y="257.5" ></text>
</g>
<g >
<title>Log_Event_subkernel151_cell_to__cell_integral_otherwise (6,982,403 us, 4.81%)</title><rect x="517.2" y="279" width="56.7" height="15.0" fill="rgb(0,0,0)" rx="2" ry="2" />
<text  x="520.15" y="289.5" >Log_E..</text>
</g>
<g >
<title>Log_Event_tensorshell_knl_150 (911,327 us, 0.63%)</title><rect x="374.1" y="295" width="7.4" height="15.0" fill="rgb(0,0,0)" rx="2" ry="2" />
<text  x="377.13" y="305.5" ></text>
</g>
<g >
<title>Log_Event_mtf_solve_156 (1,167,864 us, 0.80%)</title><rect x="574.5" y="247" width="9.5" height="15.0" fill="rgb(0,0,0)" rx="2" ry="2" />
<text  x="577.47" y="257.5" ></text>
</g>
<g >
<title>CreateExtMesh (69,421 us, 0.05%)</title><rect x="22.6" y="71" width="0.5" height="15.0" fill="rgb(0,0,0)" rx="2" ry="2" />
<text  x="25.58" y="81.5" ></text>
</g>
<g >
<title>Log_Event_subkernel85_interior_facet_vert_to__exterior_facet_vert_integral_otherwise (618,740 us, 0.43%)</title><rect x="1164.6" y="263" width="5.0" height="15.0" fill="rgb(0,0,0)" rx="2" ry="2" />
<text  x="1167.58" y="273.5" ></text>
</g>
<g >
<title>Log_Event_slate_loopy_knl_0 (3,275,708 us, 2.26%)</title><rect x="47.4" y="199" width="26.6" height="15.0" fill="rgb(0,0,0)" rx="2" ry="2" />
<text  x="50.38" y="209.5" >L..</text>
</g>
<g >
<title>Log_Event_subkernel103_cell_to__cell_integral_otherwise (726,349 us, 0.50%)</title><rect x="596.4" y="279" width="5.9" height="15.0" fill="rgb(0,0,0)" rx="2" ry="2" />
<text  x="599.40" y="289.5" ></text>
</g>
<g >
<title>Log_Event_subkernel142_interior_facet_vert_to__exterior_facet_vert_integral_otherwise (251,307 us, 0.17%)</title><rect x="139.3" y="263" width="2.1" height="15.0" fill="rgb(0,0,0)" rx="2" ry="2" />
<text  x="142.32" y="273.5" ></text>
</g>
<g >
<title>HybridInit (143,009 us, 0.10%)</title><rect x="1188.8" y="119" width="1.2" height="15.0" fill="rgb(0,0,0)" rx="2" ry="2" />
<text  x="1191.84" y="129.5" ></text>
</g>
<g >
<title>PCApply (141,826,691 us, 97.68%)</title><rect x="36.2" y="119" width="1152.6" height="15.0" fill="rgb(0,0,0)" rx="2" ry="2" />
<text  x="39.18" y="129.5" >PCApply</text>
</g>
<g >
<title>Log_Event_subkernel91_cell_to__cell_integral_otherwise (726,895 us, 0.50%)</title><rect x="611.2" y="279" width="5.9" height="15.0" fill="rgb(0,0,0)" rx="2" ry="2" />
<text  x="614.19" y="289.5" ></text>
</g>
<g >
<title>firedrake.assemble.allocate_matrix (2,161,210 us, 1.49%)</title><rect x="1169.6" y="231" width="17.6" height="15.0" fill="rgb(0,0,0)" rx="2" ry="2" />
<text  x="1172.61" y="241.5" ></text>
</g>
<g >
<title>Log_Event_subkernel108_cell_to__cell_integral_otherwise (290,744 us, 0.20%)</title><rect x="594.0" y="295" width="2.4" height="15.0" fill="rgb(0,0,0)" rx="2" ry="2" />
<text  x="597.03" y="305.5" ></text>
</g>
<g >
<title>Log_Event_subkernel137_cell_to__cell_integral_otherwise (572,239 us, 0.39%)</title><rect x="146.3" y="295" width="4.7" height="15.0" fill="rgb(0,0,0)" rx="2" ry="2" />
<text  x="149.32" y="305.5" ></text>
</g>
<g >
<title>firedrake.variational_solver.NonlinearVariationalSolver.solve (142,048,855 us, 97.84%)</title><rect x="35.5" y="71" width="1154.5" height="15.0" fill="rgb(0,0,0)" rx="2" ry="2" />
<text  x="38.54" y="81.5" >firedrake.variational_solver.NonlinearVariationalSolver.solve</text>
</g>
<g >
<title>Log_Event_subkernel122_interior_facet_horiz_top_to__exterior_facet_top_integral_otherwise (121,831 us, 0.08%)</title><rect x="635.3" y="247" width="1.0" height="15.0" fill="rgb(0,0,0)" rx="2" ry="2" />
<text  x="638.32" y="257.5" ></text>
</g>
<g >
<title>Log_Event_subkernel160_cell_to__cell_integral_otherwise (561,873 us, 0.39%)</title><rect x="579.4" y="263" width="4.6" height="15.0" fill="rgb(0,0,0)" rx="2" ry="2" />
<text  x="582.40" y="273.5" ></text>
</g>
<g >
<title>firedrake.matrix_free.operators.ImplicitMatrixContext.mult (73,799,563 us, 50.83%)</title><rect x="74.0" y="183" width="599.8" height="15.0" fill="rgb(0,0,0)" rx="2" ry="2" />
<text  x="77.00" y="193.5" >firedrake.matrix_free.operators.ImplicitMatrixContext.mult</text>
</g>
<g >
<title>Log_Event_subkernel20_cell_to__cell_integral_otherwise (597,986 us, 0.41%)</title><rect x="57.2" y="263" width="4.9" height="15.0" fill="rgb(0,0,0)" rx="2" ry="2" />
<text  x="60.20" y="273.5" ></text>
</g>
<g >
<title>Log_Event_tensorshell_knl_153 (70,094 us, 0.05%)</title><rect x="573.9" y="263" width="0.6" height="15.0" fill="rgb(0,0,0)" rx="2" ry="2" />
<text  x="576.90" y="273.5" ></text>
</g>
<g >
<title>Log_Event_mtf_solve_104 (774,982 us, 0.53%)</title><rect x="590.1" y="279" width="6.3" height="15.0" fill="rgb(0,0,0)" rx="2" ry="2" />
<text  x="593.10" y="289.5" ></text>
</g>
<g >
<title>Log_Event_tensorshell_knl_14 (2,418,228 us, 1.67%)</title><rect x="51.9" y="231" width="19.6" height="15.0" fill="rgb(0,0,0)" rx="2" ry="2" />
<text  x="54.87" y="241.5" ></text>
</g>
<g >
<title>SCSolve (137,173,931 us, 94.48%)</title><rect x="74.0" y="135" width="1114.8" height="15.0" fill="rgb(0,0,0)" rx="2" ry="2" />
<text  x="77.00" y="145.5" >SCSolve</text>
</g>
<g >
<title>SNESSolve (142,048,855 us, 97.84%)</title><rect x="35.5" y="87" width="1154.5" height="15.0" fill="rgb(0,0,0)" rx="2" ry="2" />
<text  x="38.54" y="97.5" >SNESSolve</text>
</g>
<g >
<title>MatZeroInitial (466,145 us, 0.32%)</title><rect x="1183.4" y="247" width="3.8" height="15.0" fill="rgb(0,0,0)" rx="2" ry="2" />
<text  x="1186.39" y="257.5" ></text>
</g>
<g >
<title>Log_Event_mtf_solve_130 (54,278,250 us, 37.38%)</title><rect x="133.3" y="247" width="441.2" height="15.0" fill="rgb(0,0,0)" rx="2" ry="2" />
<text  x="136.34" y="257.5" >Log_Event_mtf_solve_130</text>
</g>
<g >
<title>firedrake.extrusion_utils.make_extruded_coords (69,421 us, 0.05%)</title><rect x="22.6" y="87" width="0.5" height="15.0" fill="rgb(0,0,0)" rx="2" ry="2" />
<text  x="25.58" y="97.5" ></text>
</g>
<g >
<title>Log_Event_subkernel101_cell_to__cell_integral_otherwise (293,339 us, 0.20%)</title><rect x="585.7" y="263" width="2.4" height="15.0" fill="rgb(0,0,0)" rx="2" ry="2" />
<text  x="588.68" y="273.5" ></text>
</g>
<g >
<title>Log_Event_subkernel107_cell_to__cell_integral_otherwise (198,713 us, 0.14%)</title><rect x="592.4" y="295" width="1.6" height="15.0" fill="rgb(0,0,0)" rx="2" ry="2" />
<text  x="595.42" y="305.5" ></text>
</g>
<g >
<title>Log_Event_subkernel127_cell_to__cell_integral_otherwise (561,517 us, 0.39%)</title><rect x="128.8" y="263" width="4.5" height="15.0" fill="rgb(0,0,0)" rx="2" ry="2" />
<text  x="131.78" y="273.5" ></text>
</g>
<g >
<title>Log_Event_subkernel95_cell_to__cell_integral_otherwise (198,475 us, 0.14%)</title><rect x="607.2" y="295" width="1.6" height="15.0" fill="rgb(0,0,0)" rx="2" ry="2" />
<text  x="610.21" y="305.5" ></text>
</g>
<g >
<title>Log_Event_inits_wrap_slate_loopy_knl_77 (74,951 us, 0.05%)</title><rect x="694.8" y="263" width="0.6" height="15.0" fill="rgb(0,0,0)" rx="2" ry="2" />
<text  x="697.78" y="273.5" ></text>
</g>
<g >
<title>Log_Event_mtf_solve_145 (26,945,507 us, 18.56%)</title><rect x="162.5" y="279" width="219.0" height="15.0" fill="rgb(0,0,0)" rx="2" ry="2" />
<text  x="165.54" y="289.5" >Log_Event_mtf_solve_145</text>
</g>
<g >
<title>Log_Event_subkernel116_cell_to__cell_integral_otherwise (287,690 us, 0.20%)</title><rect x="117.5" y="263" width="2.4" height="15.0" fill="rgb(0,0,0)" rx="2" ry="2" />
<text  x="120.52" y="273.5" ></text>
</g>
<g >
<title>Log_Event_subkernel146_cell_to__cell_integral_otherwise (6,561,003 us, 4.52%)</title><rect x="173.5" y="295" width="53.3" height="15.0" fill="rgb(0,0,0)" rx="2" ry="2" />
<text  x="176.48" y="305.5" >Log_..</text>
</g>
<g >
<title>Log_Event_slate_loopy_knl_87 (72,874,851 us, 50.19%)</title><rect x="81.5" y="231" width="592.3" height="15.0" fill="rgb(0,0,0)" rx="2" ry="2" />
<text  x="84.51" y="241.5" >Log_Event_slate_loopy_knl_87</text>
</g>
<g >
<title>Log_Event_subkernel22_cell_to__cell_integral_otherwise (368,044 us, 0.25%)</title><rect x="68.5" y="247" width="3.0" height="15.0" fill="rgb(0,0,0)" rx="2" ry="2" />
<text  x="71.54" y="257.5" ></text>
</g>
<g >
<title>Log_Event_subkernel82_interior_facet_vert_to__exterior_facet_vert_integral_otherwise (78,799 us, 0.05%)</title><rect x="1162.7" y="263" width="0.6" height="15.0" fill="rgb(0,0,0)" rx="2" ry="2" />
<text  x="1165.70" y="273.5" ></text>
</g>
<g >
<title>ParLoopExecute (73,799,563 us, 50.83%)</title><rect x="74.0" y="199" width="599.8" height="15.0" fill="rgb(0,0,0)" rx="2" ry="2" />
<text  x="77.00" y="209.5" >ParLoopExecute</text>
</g>
<g >
<title>Log_Event_subkernel162_interior_facet_vert_to__exterior_facet_vert_integral_otherwise (850,472 us, 0.59%)</title><rect x="658.1" y="247" width="6.9" height="15.0" fill="rgb(0,0,0)" rx="2" ry="2" />
<text  x="661.05" y="257.5" ></text>
</g>
<g >
<title>ParLoopExecute (79,155 us, 0.05%)</title><rect x="35.5" y="151" width="0.7" height="15.0" fill="rgb(0,0,0)" rx="2" ry="2" />
<text  x="38.54" y="161.5" ></text>
</g>
</g>
</svg>
