<?xml version="1.0" standalone="no"?>
<!DOCTYPE svg PUBLIC "-//W3C//DTD SVG 1.1//EN" "http://www.w3.org/Graphics/SVG/1.1/DTD/svg11.dtd">
<svg version="1.1" width="1200" height="267" onload="init(evt)" viewBox="0 0 1200 267" xmlns="http://www.w3.org/2000/svg" xmlns:xlink="http://www.w3.org/1999/xlink">
<!-- Flame graph stack visualization. See https://github.com/brendangregg/FlameGraph for latest version, and http://www.brendangregg.com/flamegraphs.html for examples. -->
<!-- NOTES:  -->
<defs>
	<linearGradient id="background" y1="0" y2="1" x1="0" x2="0" >
		<stop stop-color="#eeeeee" offset="5%" />
		<stop stop-color="#eeeeb0" offset="95%" />
	</linearGradient>
</defs>
<style type="text/css">
	text { font-family:Verdana; font-size:13px; fill:rgb(0,0,0); }
	#search, #ignorecase { opacity:0.1; cursor:pointer; }
	#search:hover, #search.show, #ignorecase:hover, #ignorecase.show { opacity:1; }
	#subtitle { text-anchor:middle; font-color:rgb(160,160,160); }
	#title { text-anchor:middle; font-size:18px}
	#unzoom { cursor:pointer; }
	#frames > *:hover { stroke:black; stroke-width:0.5; cursor:pointer; }
	.hide { display:none; }
	.parent { opacity:0.5; }
</style>
<script type="text/ecmascript">
<![CDATA[
	"use strict";
	var details, searchbtn, unzoombtn, matchedtxt, svg, searching, currentSearchTerm, ignorecase, ignorecaseBtn;
	function init(evt) {
		details = document.getElementById("details").firstChild;
		searchbtn = document.getElementById("search");
		ignorecaseBtn = document.getElementById("ignorecase");
		unzoombtn = document.getElementById("unzoom");
		matchedtxt = document.getElementById("matched");
		svg = document.getElementsByTagName("svg")[0];
		searching = 0;
		currentSearchTerm = null;

		// use GET parameters to restore a flamegraphs state.
		var params = get_params();
		if (params.x && params.y)
			zoom(find_group(document.querySelector('[x="' + params.x + '"][y="' + params.y + '"]')));
                if (params.s) search(params.s);
	}

	// event listeners
	window.addEventListener("click", function(e) {
		var target = find_group(e.target);
		if (target) {
			if (target.nodeName == "a") {
				if (e.ctrlKey === false) return;
				e.preventDefault();
			}
			if (target.classList.contains("parent")) unzoom();
			zoom(target);
			if (!document.querySelector('.parent')) {
				clearzoom();
				return;
			}

			// set parameters for zoom state
			var el = target.querySelector("rect");
			if (el && el.attributes && el.attributes.y && el.attributes._orig_x) {
				var params = get_params()
				params.x = el.attributes._orig_x.value;
				params.y = el.attributes.y.value;
				history.replaceState(null, null, parse_params(params));
			}
		}
		else if (e.target.id == "unzoom") clearzoom();
		else if (e.target.id == "search") search_prompt();
		else if (e.target.id == "ignorecase") toggle_ignorecase();
	}, false)

	// mouse-over for info
	// show
	window.addEventListener("mouseover", function(e) {
		var target = find_group(e.target);
		if (target) details.nodeValue = "Function: " + g_to_text(target);
	}, false)

	// clear
	window.addEventListener("mouseout", function(e) {
		var target = find_group(e.target);
		if (target) details.nodeValue = ' ';
	}, false)

	// ctrl-F for search
	// ctrl-I to toggle case-sensitive search
	window.addEventListener("keydown",function (e) {
		if (e.keyCode === 114 || (e.ctrlKey && e.keyCode === 70)) {
			e.preventDefault();
			search_prompt();
		}
		else if (e.ctrlKey && e.keyCode === 73) {
			e.preventDefault();
			toggle_ignorecase();
		}
	}, false)

	// functions
	function get_params() {
		var params = {};
		var paramsarr = window.location.search.substr(1).split('&');
		for (var i = 0; i < paramsarr.length; ++i) {
			var tmp = paramsarr[i].split("=");
			if (!tmp[0] || !tmp[1]) continue;
			params[tmp[0]]  = decodeURIComponent(tmp[1]);
		}
		return params;
	}
	function parse_params(params) {
		var uri = "?";
		for (var key in params) {
			uri += key + '=' + encodeURIComponent(params[key]) + '&';
		}
		if (uri.slice(-1) == "&")
			uri = uri.substring(0, uri.length - 1);
		if (uri == '?')
			uri = window.location.href.split('?')[0];
		return uri;
	}
	function find_child(node, selector) {
		var children = node.querySelectorAll(selector);
		if (children.length) return children[0];
	}
	function find_group(node) {
		var parent = node.parentElement;
		if (!parent) return;
		if (parent.id == "frames") return node;
		return find_group(parent);
	}
	function orig_save(e, attr, val) {
		if (e.attributes["_orig_" + attr] != undefined) return;
		if (e.attributes[attr] == undefined) return;
		if (val == undefined) val = e.attributes[attr].value;
		e.setAttribute("_orig_" + attr, val);
	}
	function orig_load(e, attr) {
		if (e.attributes["_orig_"+attr] == undefined) return;
		e.attributes[attr].value = e.attributes["_orig_" + attr].value;
		e.removeAttribute("_orig_"+attr);
	}
	function g_to_text(e) {
		var text = find_child(e, "title").firstChild.nodeValue;
		return (text)
	}
	function g_to_func(e) {
		var func = g_to_text(e);
		// if there's any manipulation we want to do to the function
		// name before it's searched, do it here before returning.
		return (func);
	}
	function update_text(e) {
		var r = find_child(e, "rect");
		var t = find_child(e, "text");
		var w = parseFloat(r.attributes.width.value) -3;
		var txt = find_child(e, "title").textContent.replace(/\([^(]*\)$/,"");
		t.attributes.x.value = parseFloat(r.attributes.x.value) + 3;

		// Smaller than this size won't fit anything
		if (w < 2 * 13 * 0.59) {
			t.textContent = "";
			return;
		}

		t.textContent = txt;
		// Fit in full text width
		if (/^ *$/.test(txt) || t.getSubStringLength(0, txt.length) < w)
			return;

		for (var x = txt.length - 2; x > 0; x--) {
			if (t.getSubStringLength(0, x + 2) <= w) {
				t.textContent = txt.substring(0, x) + "..";
				return;
			}
		}
		t.textContent = "";
	}

	// zoom
	function zoom_reset(e) {
		if (e.attributes != undefined) {
			orig_load(e, "x");
			orig_load(e, "width");
		}
		if (e.childNodes == undefined) return;
		for (var i = 0, c = e.childNodes; i < c.length; i++) {
			zoom_reset(c[i]);
		}
	}
	function zoom_child(e, x, ratio) {
		if (e.attributes != undefined) {
			if (e.attributes.x != undefined) {
				orig_save(e, "x");
				e.attributes.x.value = (parseFloat(e.attributes.x.value) - x - 10) * ratio + 10;
				if (e.tagName == "text")
					e.attributes.x.value = find_child(e.parentNode, "rect[x]").attributes.x.value + 3;
			}
			if (e.attributes.width != undefined) {
				orig_save(e, "width");
				e.attributes.width.value = parseFloat(e.attributes.width.value) * ratio;
			}
		}

		if (e.childNodes == undefined) return;
		for (var i = 0, c = e.childNodes; i < c.length; i++) {
			zoom_child(c[i], x - 10, ratio);
		}
	}
	function zoom_parent(e) {
		if (e.attributes) {
			if (e.attributes.x != undefined) {
				orig_save(e, "x");
				e.attributes.x.value = 10;
			}
			if (e.attributes.width != undefined) {
				orig_save(e, "width");
				e.attributes.width.value = parseInt(svg.width.baseVal.value) - (10 * 2);
			}
		}
		if (e.childNodes == undefined) return;
		for (var i = 0, c = e.childNodes; i < c.length; i++) {
			zoom_parent(c[i]);
		}
	}
	function zoom(node) {
		var attr = find_child(node, "rect").attributes;
		var width = parseFloat(attr.width.value);
		var xmin = parseFloat(attr.x.value);
		var xmax = parseFloat(xmin + width);
		var ymin = parseFloat(attr.y.value);
		var ratio = (svg.width.baseVal.value - 2 * 10) / width;

		// XXX: Workaround for JavaScript float issues (fix me)
		var fudge = 0.0001;

		unzoombtn.classList.remove("hide");

		var el = document.getElementById("frames").children;
		for (var i = 0; i < el.length; i++) {
			var e = el[i];
			var a = find_child(e, "rect").attributes;
			var ex = parseFloat(a.x.value);
			var ew = parseFloat(a.width.value);
			var upstack;
			// Is it an ancestor
			if (1 == 0) {
				upstack = parseFloat(a.y.value) > ymin;
			} else {
				upstack = parseFloat(a.y.value) < ymin;
			}
			if (upstack) {
				// Direct ancestor
				if (ex <= xmin && (ex+ew+fudge) >= xmax) {
					e.classList.add("parent");
					zoom_parent(e);
					update_text(e);
				}
				// not in current path
				else
					e.classList.add("hide");
			}
			// Children maybe
			else {
				// no common path
				if (ex < xmin || ex + fudge >= xmax) {
					e.classList.add("hide");
				}
				else {
					zoom_child(e, xmin, ratio);
					update_text(e);
				}
			}
		}
		search();
	}
	function unzoom() {
		unzoombtn.classList.add("hide");
		var el = document.getElementById("frames").children;
		for(var i = 0; i < el.length; i++) {
			el[i].classList.remove("parent");
			el[i].classList.remove("hide");
			zoom_reset(el[i]);
			update_text(el[i]);
		}
		search();
	}
	function clearzoom() {
		unzoom();

		// remove zoom state
		var params = get_params();
		if (params.x) delete params.x;
		if (params.y) delete params.y;
		history.replaceState(null, null, parse_params(params));
	}

	// search
	function toggle_ignorecase() {
		ignorecase = !ignorecase;
		if (ignorecase) {
			ignorecaseBtn.classList.add("show");
		} else {
			ignorecaseBtn.classList.remove("show");
		}
		reset_search();
		search();
	}
	function reset_search() {
		var el = document.querySelectorAll("#frames rect");
		for (var i = 0; i < el.length; i++) {
			orig_load(el[i], "fill")
		}
		var params = get_params();
		delete params.s;
		history.replaceState(null, null, parse_params(params));
	}
	function search_prompt() {
		if (!searching) {
			var term = prompt("Enter a search term (regexp " +
			    "allowed, eg: ^ext4_)"
			    + (ignorecase ? ", ignoring case" : "")
			    + "\nPress Ctrl-i to toggle case sensitivity", "");
			if (term != null) search(term);
		} else {
			reset_search();
			searching = 0;
			currentSearchTerm = null;
			searchbtn.classList.remove("show");
			searchbtn.firstChild.nodeValue = "Search"
			matchedtxt.classList.add("hide");
			matchedtxt.firstChild.nodeValue = ""
		}
	}
	function search(term) {
		if (term) currentSearchTerm = term;

		var re = new RegExp(currentSearchTerm, ignorecase ? 'i' : '');
		var el = document.getElementById("frames").children;
		var matches = new Object();
		var maxwidth = 0;
		for (var i = 0; i < el.length; i++) {
			var e = el[i];
			var func = g_to_func(e);
			var rect = find_child(e, "rect");
			if (func == null || rect == null)
				continue;

			// Save max width. Only works as we have a root frame
			var w = parseFloat(rect.attributes.width.value);
			if (w > maxwidth)
				maxwidth = w;

			if (func.match(re)) {
				// highlight
				var x = parseFloat(rect.attributes.x.value);
				orig_save(rect, "fill");
				rect.attributes.fill.value = "rgb(230,0,230)";

				// remember matches
				if (matches[x] == undefined) {
					matches[x] = w;
				} else {
					if (w > matches[x]) {
						// overwrite with parent
						matches[x] = w;
					}
				}
				searching = 1;
			}
		}
		if (!searching)
			return;
		var params = get_params();
		params.s = currentSearchTerm;
		history.replaceState(null, null, parse_params(params));

		searchbtn.classList.add("show");
		searchbtn.firstChild.nodeValue = "Reset Search";

		// calculate percent matched, excluding vertical overlap
		var count = 0;
		var lastx = -1;
		var lastw = 0;
		var keys = Array();
		for (k in matches) {
			if (matches.hasOwnProperty(k))
				keys.push(k);
		}
		// sort the matched frames by their x location
		// ascending, then width descending
		keys.sort(function(a, b){
			return a - b;
		});
		// Step through frames saving only the biggest bottom-up frames
		// thanks to the sort order. This relies on the tree property
		// where children are always smaller than their parents.
		var fudge = 0.0001;	// JavaScript floating point
		for (var k in keys) {
			var x = parseFloat(keys[k]);
			var w = matches[keys[k]];
			if (x >= lastx + lastw - fudge) {
				count += w;
				lastx = x;
				lastw = w;
			}
		}
		// display matched percent
		matchedtxt.classList.remove("hide");
		var pct = 100 * count / maxwidth;
		if (pct != 100) pct = pct.toFixed(1)
		matchedtxt.firstChild.nodeValue = "Matched: " + pct + "%";
	}
]]>
</script>
<rect x="0.0" y="0" width="1200.0" height="267.0" fill="url(#background)"  />
<text id="title" x="600.00" y="26" >Firedrake example</text>
<text id="details" x="10.00" y="249" > </text>
<text id="unzoom" x="10.00" y="26" class="hide">Reset Zoom</text>
<text id="search" x="1090.00" y="26" >Search</text>
<text id="ignorecase" x="1174.00" y="26" >ic</text>
<text id="matched" x="1090.00" y="249" > </text>
<g id="frames">
<g >
<title>CreateSparsity (190,403 us, 0.09%)</title><rect x="286.1" y="135" width="1.0" height="15.0" fill="rgb(0,0,0)" rx="2" ry="2" />
<text  x="289.11" y="145.5" ></text>
</g>
<g >
<title>ParLoopExecute (681,819 us, 0.30%)</title><rect x="1130.6" y="151" width="3.6" height="15.0" fill="rgb(0,0,0)" rx="2" ry="2" />
<text  x="1133.64" y="161.5" ></text>
</g>
<g >
<title>pyop2.global_kernel.GlobalKernel.compile (1,364,976 us, 0.61%)</title><rect x="45.4" y="119" width="7.2" height="15.0" fill="rgb(0,0,0)" rx="2" ry="2" />
<text  x="48.37" y="129.5" ></text>
</g>
<g >
<title>pyop2.global_kernel.GlobalKernel.compile (2,009,842 us, 0.90%)</title><rect x="52.6" y="119" width="10.6" height="15.0" fill="rgb(0,0,0)" rx="2" ry="2" />
<text  x="55.57" y="129.5" ></text>
</g>
<g >
<title>ParLoopExecute (25,438,830 us, 11.38%)</title><rect x="544.7" y="167" width="134.3" height="15.0" fill="rgb(0,0,0)" rx="2" ry="2" />
<text  x="547.75" y="177.5" >ParLoopExecute</text>
</g>
<g >
<title>firedrake.variational_solver.NonlinearVariationalSolver.solve (154,778,926 us, 69.22%)</title><rect x="373.2" y="71" width="816.8" height="15.0" fill="rgb(0,0,0)" rx="2" ry="2" />
<text  x="376.22" y="81.5" >firedrake.variational_solver.NonlinearVariationalSolver.solve</text>
</g>
<g >
<title>firedrake.assemble.assemble (27,210,068 us, 12.17%)</title><rect x="154.9" y="103" width="143.6" height="15.0" fill="rgb(0,0,0)" rx="2" ry="2" />
<text  x="157.89" y="113.5" >firedrake.assemb..</text>
</g>
<g >
<title>pyop2.global_kernel.GlobalKernel.compile (37,511,292 us, 16.78%)</title><rect x="915.1" y="183" width="197.9" height="15.0" fill="rgb(0,0,0)" rx="2" ry="2" />
<text  x="918.09" y="193.5" >pyop2.global_kernel.Glo..</text>
</g>
<g >
<title>firedrake.norms.norm (12,465,087 us, 5.57%)</title><rect x="307.4" y="87" width="65.8" height="15.0" fill="rgb(0,0,0)" rx="2" ry="2" />
<text  x="310.44" y="97.5" >firedr..</text>
</g>
<g >
<title>firedrake.tsfc_interface.compile_form (1,649,130 us, 0.74%)</title><rect x="298.7" y="103" width="8.7" height="15.0" fill="rgb(0,0,0)" rx="2" ry="2" />
<text  x="301.73" y="113.5" ></text>
</g>
<g >
<title>pyop2.global_kernel.GlobalKernel.compile (2,501,984 us, 1.12%)</title><rect x="141.7" y="135" width="13.2" height="15.0" fill="rgb(0,0,0)" rx="2" ry="2" />
<text  x="144.69" y="145.5" ></text>
</g>
<g >
<title>firedrake.parloops.par_loop (981,214 us, 0.44%)</title><rect x="707.5" y="167" width="5.1" height="15.0" fill="rgb(0,0,0)" rx="2" ry="2" />
<text  x="710.46" y="177.5" ></text>
</g>
<g >
<title>pyop2.global_kernel.GlobalKernel.compile (2,064,524 us, 0.92%)</title><rect x="63.2" y="119" width="10.9" height="15.0" fill="rgb(0,0,0)" rx="2" ry="2" />
<text  x="66.18" y="129.5" ></text>
</g>
<g >
<title>pyop2.global_kernel.GlobalKernel.compile (1,774,051 us, 0.79%)</title><rect x="250.4" y="151" width="9.3" height="15.0" fill="rgb(0,0,0)" rx="2" ry="2" />
<text  x="253.37" y="161.5" ></text>
</g>
<g >
<title>firedrake.extrusion_utils.make_extruded_coords (936,126 us, 0.42%)</title><rect x="18.1" y="87" width="4.9" height="15.0" fill="rgb(0,0,0)" rx="2" ry="2" />
<text  x="21.07" y="97.5" ></text>
</g>
<g >
<title>pyop2.global_kernel.GlobalKernel.compile (1,307,780 us, 0.58%)</title><rect x="31.2" y="119" width="6.9" height="15.0" fill="rgb(0,0,0)" rx="2" ry="2" />
<text  x="34.19" y="129.5" ></text>
</g>
<g >
<title>Parloop_Cells_wrap_form1_cell_integral_otherwise (3,498,629 us, 1.56%)</title><rect x="399.6" y="167" width="18.5" height="15.0" fill="rgb(0,0,0)" rx="2" ry="2" />
<text  x="402.61" y="177.5" ></text>
</g>
<g >
<title>ParLoopExecute (8,499,799 us, 3.80%)</title><rect x="373.2" y="151" width="44.9" height="15.0" fill="rgb(0,0,0)" rx="2" ry="2" />
<text  x="376.22" y="161.5" >Par..</text>
</g>
<g >
<title>HybridProject (964,384 us, 0.43%)</title><rect x="431.2" y="151" width="5.1" height="15.0" fill="rgb(0,0,0)" rx="2" ry="2" />
<text  x="434.25" y="161.5" ></text>
</g>
<g >
<title>pyop2.global_kernel.GlobalKernel.compile (18,637,482 us, 8.33%)</title><rect x="436.5" y="183" width="98.4" height="15.0" fill="rgb(0,0,0)" rx="2" ry="2" />
<text  x="439.52" y="193.5" >pyop2.glob..</text>
</g>
<g >
<title>firedrake.tsfc_interface.compile_form (3,312,873 us, 1.48%)</title><rect x="1113.0" y="151" width="17.5" height="15.0" fill="rgb(0,0,0)" rx="2" ry="2" />
<text  x="1116.04" y="161.5" ></text>
</g>
<g >
<title>Parloop_IntFacets_wrap_form0_interior_facet_vert_integral_otherwise (2,501,984 us, 1.12%)</title><rect x="141.7" y="119" width="13.2" height="15.0" fill="rgb(0,0,0)" rx="2" ry="2" />
<text  x="144.69" y="129.5" ></text>
</g>
<g >
<title>Parloop_Cells_wrap_wrap_slate_loopy_knl_14 (18,672,134 us, 8.35%)</title><rect x="436.3" y="167" width="98.6" height="15.0" fill="rgb(0,0,0)" rx="2" ry="2" />
<text  x="439.34" y="177.5" >Parloop_Ce..</text>
</g>
<g >
<title>Parloop_Cells_wrap_par_loop_kernel (981,214 us, 0.44%)</title><rect x="707.5" y="199" width="5.1" height="15.0" fill="rgb(0,0,0)" rx="2" ry="2" />
<text  x="710.46" y="209.5" ></text>
</g>
<g >
<title>Parloop_Cells_wrap_form1_cell_integral_otherwise (4,459,741 us, 1.99%)</title><rect x="1158.8" y="135" width="23.6" height="15.0" fill="rgb(0,0,0)" rx="2" ry="2" />
<text  x="1161.82" y="145.5" >P..</text>
</g>
<g >
<title>Parloop_IntFacets_wrap_form_interior_facet_vert_integral_otherwise (2,064,524 us, 0.92%)</title><rect x="63.2" y="103" width="10.9" height="15.0" fill="rgb(0,0,0)" rx="2" ry="2" />
<text  x="66.18" y="113.5" ></text>
</g>
<g >
<title>Parloop_Cells_wrap_form00_exterior_facet_top_integral_otherwise (1,717,883 us, 0.77%)</title><rect x="241.3" y="135" width="9.1" height="15.0" fill="rgb(0,0,0)" rx="2" ry="2" />
<text  x="244.30" y="145.5" ></text>
</g>
<g >
<title>Parloop_ExtFacets_wrap_form0_exterior_facet_vert_integral_otherwise (2,135,526 us, 0.96%)</title><rect x="130.4" y="119" width="11.3" height="15.0" fill="rgb(0,0,0)" rx="2" ry="2" />
<text  x="133.42" y="129.5" ></text>
</g>
<g >
<title>Parloop_Cells_wrap_form_exterior_facet_bottom_integral_otherwise (1,307,780 us, 0.58%)</title><rect x="31.2" y="103" width="6.9" height="15.0" fill="rgb(0,0,0)" rx="2" ry="2" />
<text  x="34.19" y="113.5" ></text>
</g>
<g >
<title>ParLoopExecute (18,672,134 us, 8.35%)</title><rect x="436.3" y="151" width="98.6" height="15.0" fill="rgb(0,0,0)" rx="2" ry="2" />
<text  x="439.34" y="161.5" >ParLoopExe..</text>
</g>
<g >
<title>ParLoopExecute (9,117,682 us, 4.08%)</title><rect x="1134.2" y="119" width="48.2" height="15.0" fill="rgb(0,0,0)" rx="2" ry="2" />
<text  x="1137.24" y="129.5" >ParL..</text>
</g>
<g >
<title>pyop2.global_kernel.GlobalKernel.compile (981,214 us, 0.44%)</title><rect x="707.5" y="215" width="5.1" height="15.0" fill="rgb(0,0,0)" rx="2" ry="2" />
<text  x="710.46" y="225.5" ></text>
</g>
<g >
<title>Parloop_Cells_wrap_form_exterior_facet_top_integral_otherwise (1,379,514 us, 0.62%)</title><rect x="38.1" y="103" width="7.3" height="15.0" fill="rgb(0,0,0)" rx="2" ry="2" />
<text  x="41.09" y="113.5" ></text>
</g>
<g >
<title>firedrake.tsfc_interface.compile_form (2,253,443 us, 1.01%)</title><rect x="695.6" y="151" width="11.9" height="15.0" fill="rgb(0,0,0)" rx="2" ry="2" />
<text  x="698.56" y="161.5" ></text>
</g>
<g >
<title>ParLoopExecute (13,296,789 us, 5.95%)</title><rect x="84.7" y="103" width="70.2" height="15.0" fill="rgb(0,0,0)" rx="2" ry="2" />
<text  x="87.72" y="113.5" >ParLoop..</text>
</g>
<g >
<title>pyop2.global_kernel.GlobalKernel.compile (904,240 us, 0.40%)</title><rect x="18.2" y="135" width="4.8" height="15.0" fill="rgb(0,0,0)" rx="2" ry="2" />
<text  x="21.24" y="145.5" ></text>
</g>
<g >
<title>pyop2.global_kernel.GlobalKernel.compile (1,369,416 us, 0.61%)</title><rect x="114.7" y="135" width="7.3" height="15.0" fill="rgb(0,0,0)" rx="2" ry="2" />
<text  x="117.73" y="145.5" ></text>
</g>
<g >
<title>pyop2.global_kernel.GlobalKernel.compile (25,372,635 us, 11.35%)</title><rect x="545.1" y="199" width="133.9" height="15.0" fill="rgb(0,0,0)" rx="2" ry="2" />
<text  x="548.10" y="209.5" >pyop2.global_ke..</text>
</g>
<g >
<title>Parloop_Cells_wrap_form0_cell_integral_otherwise (4,657,941 us, 2.08%)</title><rect x="1134.2" y="135" width="24.6" height="15.0" fill="rgb(0,0,0)" rx="2" ry="2" />
<text  x="1137.24" y="145.5" >P..</text>
</g>
<g >
<title>firedrake.tsfc_interface.compile_form (2,056,153 us, 0.92%)</title><rect x="287.6" y="119" width="10.9" height="15.0" fill="rgb(0,0,0)" rx="2" ry="2" />
<text  x="290.63" y="129.5" ></text>
</g>
<g >
<title>pyop2.global_kernel.GlobalKernel.compile (406,892 us, 0.18%)</title><rect x="76.1" y="151" width="2.1" height="15.0" fill="rgb(0,0,0)" rx="2" ry="2" />
<text  x="79.10" y="161.5" ></text>
</g>
<g >
<title>Parloop_Cells_wrap_pyop2_kernel_uniform_extrusion (904,240 us, 0.40%)</title><rect x="18.2" y="119" width="4.8" height="15.0" fill="rgb(0,0,0)" rx="2" ry="2" />
<text  x="21.24" y="129.5" ></text>
</g>
<g >
<title>PCSetUp (43,509,993 us, 19.46%)</title><rect x="904.6" y="103" width="229.6" height="15.0" fill="rgb(0,0,0)" rx="2" ry="2" />
<text  x="907.63" y="113.5" >PCSetUp</text>
</g>
<g >
<title>Parloop_Cells_wrap_wrap_slate_loopy_knl_4 (32,739,231 us, 14.64%)</title><rect x="719.4" y="183" width="172.7" height="15.0" fill="rgb(0,0,0)" rx="2" ry="2" />
<text  x="722.36" y="193.5" >Parloop_Cells_wrap_w..</text>
</g>
<g >
<title>MatMult (9,729,318 us, 4.35%)</title><rect x="373.2" y="119" width="51.4" height="15.0" fill="rgb(0,0,0)" rx="2" ry="2" />
<text  x="376.22" y="129.5" >MatM..</text>
</g>
<g >
<title>Parloop_Cells_wrap_form0_cell_integral_otherwise (5,001,170 us, 2.24%)</title><rect x="373.2" y="167" width="26.4" height="15.0" fill="rgb(0,0,0)" rx="2" ry="2" />
<text  x="376.22" y="177.5" >P..</text>
</g>
<g >
<title>SNESSolve (154,778,926 us, 69.22%)</title><rect x="373.2" y="87" width="816.8" height="15.0" fill="rgb(0,0,0)" rx="2" ry="2" />
<text  x="376.22" y="97.5" >SNESSolve</text>
</g>
<g >
<title>firedrake.assemble.allocate_matrix (288,553 us, 0.13%)</title><rect x="286.1" y="119" width="1.5" height="15.0" fill="rgb(0,0,0)" rx="2" ry="2" />
<text  x="289.11" y="129.5" ></text>
</g>
<g >
<title>firedrake.functionspaceimpl.FunctionSpace.__init__ (22,957 us, 0.01%)</title><rect x="23.0" y="87" width="0.1" height="15.0" fill="rgb(0,0,0)" rx="2" ry="2" />
<text  x="26.01" y="97.5" ></text>
</g>
<g >
<title>ParLoopExecute (904,240 us, 0.40%)</title><rect x="18.2" y="103" width="4.8" height="15.0" fill="rgb(0,0,0)" rx="2" ry="2" />
<text  x="21.24" y="113.5" ></text>
</g>
<g >
<title>ParLoopExecute (964,384 us, 0.43%)</title><rect x="431.2" y="183" width="5.1" height="15.0" fill="rgb(0,0,0)" rx="2" ry="2" />
<text  x="434.25" y="193.5" ></text>
</g>
<g >
<title>Parloop_set_#x7fc67928ebf0_wrap_expression_kernel (383,246 us, 0.17%)</title><rect x="74.1" y="135" width="2.0" height="15.0" fill="rgb(0,0,0)" rx="2" ry="2" />
<text  x="77.07" y="145.5" ></text>
</g>
<g >
<title>firedrake.assemble.assemble (10,144,448 us, 4.54%)</title><rect x="31.2" y="71" width="53.5" height="15.0" fill="rgb(0,0,0)" rx="2" ry="2" />
<text  x="34.19" y="81.5" >fire..</text>
</g>
<g >
<title>pyop2.global_kernel.GlobalKernel.compile (383,246 us, 0.17%)</title><rect x="74.1" y="151" width="2.0" height="15.0" fill="rgb(0,0,0)" rx="2" ry="2" />
<text  x="77.07" y="161.5" ></text>
</g>
<g >
<title>Parloop_Cells_wrap_form0_interior_facet_horiz_integral_otherwise (1,603,699 us, 0.72%)</title><rect x="122.0" y="119" width="8.4" height="15.0" fill="rgb(0,0,0)" rx="2" ry="2" />
<text  x="124.95" y="129.5" ></text>
</g>
<g >
<title>PCSetUp (47,972 us, 0.02%)</title><rect x="298.5" y="135" width="0.2" height="15.0" fill="rgb(0,0,0)" rx="2" ry="2" />
<text  x="301.48" y="145.5" ></text>
</g>
<g >
<title>HybridOperatorAssembly (42,733,652 us, 19.11%)</title><rect x="905.0" y="135" width="225.5" height="15.0" fill="rgb(0,0,0)" rx="2" ry="2" />
<text  x="908.01" y="145.5" >HybridOperatorAssembly</text>
</g>
<g >
<title>ParLoopExecute (10,669,499 us, 4.77%)</title><rect x="307.4" y="119" width="56.3" height="15.0" fill="rgb(0,0,0)" rx="2" ry="2" />
<text  x="310.44" y="129.5" >ParLo..</text>
</g>
<g >
<title>firedrake.assemble_expressions.assemble_expression (790,138 us, 0.35%)</title><rect x="74.1" y="87" width="4.1" height="15.0" fill="rgb(0,0,0)" rx="2" ry="2" />
<text  x="77.07" y="97.5" ></text>
</g>
<g >
<title>Parloop_IntFacets_wrap_form00_interior_facet_vert_integral_otherwise (2,519,079 us, 1.13%)</title><rect x="272.8" y="135" width="13.3" height="15.0" fill="rgb(0,0,0)" rx="2" ry="2" />
<text  x="275.81" y="145.5" ></text>
</g>
<g >
<title>pyop2.global_kernel.GlobalKernel.compile (1,350,374 us, 0.60%)</title><rect x="107.6" y="135" width="7.1" height="15.0" fill="rgb(0,0,0)" rx="2" ry="2" />
<text  x="110.60" y="145.5" ></text>
</g>
<g >
<title>HybridRHS (36,383,459 us, 16.27%)</title><rect x="712.6" y="151" width="192.0" height="15.0" fill="rgb(0,0,0)" rx="2" ry="2" />
<text  x="715.63" y="161.5" >HybridRHS</text>
</g>
<g >
<title>Parloop_Cells_wrap_par_loop_kernel (964,384 us, 0.43%)</title><rect x="431.2" y="199" width="5.1" height="15.0" fill="rgb(0,0,0)" rx="2" ry="2" />
<text  x="434.25" y="209.5" ></text>
</g>
<g >
<title>pyop2.global_kernel.GlobalKernel.compile (1,717,883 us, 0.77%)</title><rect x="241.3" y="151" width="9.1" height="15.0" fill="rgb(0,0,0)" rx="2" ry="2" />
<text  x="244.30" y="161.5" ></text>
</g>
<g >
<title>Parloop_set_#x7fc6792e7be0_wrap_expression_kernel (406,892 us, 0.18%)</title><rect x="76.1" y="135" width="2.1" height="15.0" fill="rgb(0,0,0)" rx="2" ry="2" />
<text  x="79.10" y="145.5" ></text>
</g>
<g >
<title>ParLoopExecute (981,214 us, 0.44%)</title><rect x="707.5" y="183" width="5.1" height="15.0" fill="rgb(0,0,0)" rx="2" ry="2" />
<text  x="710.46" y="193.5" ></text>
</g>
<g >
<title>firedrake.tsfc_interface.compile_form (1,448,727 us, 0.65%)</title><rect x="1182.4" y="119" width="7.6" height="15.0" fill="rgb(0,0,0)" rx="2" ry="2" />
<text  x="1185.35" y="129.5" ></text>
</g>
<g >
<title>firedrake.parloops.par_loop (964,384 us, 0.43%)</title><rect x="431.2" y="167" width="5.1" height="15.0" fill="rgb(0,0,0)" rx="2" ry="2" />
<text  x="434.25" y="177.5" ></text>
</g>
<g >
<title>firedrake.tsfc_interface.compile_form (2,370,153 us, 1.06%)</title><rect x="892.1" y="167" width="12.5" height="15.0" fill="rgb(0,0,0)" rx="2" ry="2" />
<text  x="895.13" y="177.5" ></text>
</g>
<g >
<title>HybridInit (43,509,993 us, 19.46%)</title><rect x="904.6" y="119" width="229.6" height="15.0" fill="rgb(0,0,0)" rx="2" ry="2" />
<text  x="907.63" y="129.5" >HybridInit</text>
</g>
<g >
<title>Parloop_Cells_wrap_wrap_slate_loopy_knl_0 (37,600,432 us, 16.82%)</title><rect x="914.6" y="167" width="198.4" height="15.0" fill="rgb(0,0,0)" rx="2" ry="2" />
<text  x="917.62" y="177.5" >Parloop_Cells_wrap_wrap..</text>
</g>
<g >
<title>Parloop_Cells_wrap_wrap_slate_loopy_knl_7 (25,438,830 us, 11.38%)</title><rect x="544.7" y="183" width="134.3" height="15.0" fill="rgb(0,0,0)" rx="2" ry="2" />
<text  x="547.75" y="193.5" >Parloop_Cells_w..</text>
</g>
<g >
<title>MatCholFctrNum (47,972 us, 0.02%)</title><rect x="298.5" y="151" width="0.2" height="15.0" fill="rgb(0,0,0)" rx="2" ry="2" />
<text  x="301.48" y="161.5" ></text>
</g>
<g >
<title>SCBackSub (53,608,533 us, 23.97%)</title><rect x="424.6" y="135" width="282.9" height="15.0" fill="rgb(0,0,0)" rx="2" ry="2" />
<text  x="427.56" y="145.5" >SCBackSub</text>
</g>
<g >
<title>HybridBreak (981,214 us, 0.44%)</title><rect x="707.5" y="151" width="5.1" height="15.0" fill="rgb(0,0,0)" rx="2" ry="2" />
<text  x="710.46" y="161.5" ></text>
</g>
<g >
<title>Log_Event_slate_loopy_knl_0 (26,573 us, 0.01%)</title><rect x="914.9" y="183" width="0.2" height="15.0" fill="rgb(0,0,0)" rx="2" ry="2" />
<text  x="917.95" y="193.5" ></text>
</g>
<g >
<title>pyop2.global_kernel.GlobalKernel.compile (3,498,629 us, 1.56%)</title><rect x="399.6" y="183" width="18.5" height="15.0" fill="rgb(0,0,0)" rx="2" ry="2" />
<text  x="402.61" y="193.5" ></text>
</g>
<g >
<title>firedrake (223,607,619 us, 100.00%)</title><rect x="10.0" y="55" width="1180.0" height="15.0" fill="rgb(0,0,0)" rx="2" ry="2" />
<text  x="13.00" y="65.5" >firedrake</text>
</g>
<g >
<title>Parloop_Cells_wrap_form0_exterior_facet_bottom_integral_otherwise (1,350,374 us, 0.60%)</title><rect x="107.6" y="119" width="7.1" height="15.0" fill="rgb(0,0,0)" rx="2" ry="2" />
<text  x="110.60" y="129.5" ></text>
</g>
<g >
<title>Log_Event_slate_loopy_knl_7 (31,350 us, 0.01%)</title><rect x="544.9" y="199" width="0.2" height="15.0" fill="rgb(0,0,0)" rx="2" ry="2" />
<text  x="547.93" y="209.5" ></text>
</g>
<g >
<title>pyop2.global_kernel.GlobalKernel.compile (2,479,538 us, 1.11%)</title><rect x="259.7" y="151" width="13.1" height="15.0" fill="rgb(0,0,0)" rx="2" ry="2" />
<text  x="262.73" y="161.5" ></text>
</g>
<g >
<title>ParLoopExecute (37,600,432 us, 16.82%)</title><rect x="914.6" y="151" width="198.4" height="15.0" fill="rgb(0,0,0)" rx="2" ry="2" />
<text  x="917.62" y="161.5" >ParLoopExecute</text>
</g>
<g >
<title>CreateExtMesh (936,126 us, 0.42%)</title><rect x="18.1" y="71" width="4.9" height="15.0" fill="rgb(0,0,0)" rx="2" ry="2" />
<text  x="21.07" y="81.5" ></text>
</g>
<g >
<title>pyop2.global_kernel.GlobalKernel.compile (2,135,526 us, 0.96%)</title><rect x="130.4" y="135" width="11.3" height="15.0" fill="rgb(0,0,0)" rx="2" ry="2" />
<text  x="133.42" y="145.5" ></text>
</g>
<g >
<title>Parloop_Cells_wrap_form0_cell_integral_otherwise (4,335,790 us, 1.94%)</title><rect x="84.7" y="119" width="22.9" height="15.0" fill="rgb(0,0,0)" rx="2" ry="2" />
<text  x="87.72" y="129.5" ></text>
</g>
<g >
<title>Parloop_ExtFacets_wrap_form00_exterior_facet_vert_integral_otherwise (2,479,538 us, 1.11%)</title><rect x="259.7" y="135" width="13.1" height="15.0" fill="rgb(0,0,0)" rx="2" ry="2" />
<text  x="262.73" y="145.5" ></text>
</g>
<g >
<title>Parloop_ExtFacets_wrap_form_exterior_facet_vert_integral_otherwise (2,009,842 us, 0.90%)</title><rect x="52.6" y="103" width="10.6" height="15.0" fill="rgb(0,0,0)" rx="2" ry="2" />
<text  x="55.57" y="113.5" ></text>
</g>
<g >
<title>firedrake.assemble.allocate_matrix (22,690 us, 0.01%)</title><rect x="1130.5" y="135" width="0.1" height="15.0" fill="rgb(0,0,0)" rx="2" ry="2" />
<text  x="1133.52" y="145.5" ></text>
</g>
<g >
<title>pyop2.global_kernel.GlobalKernel.compile (1,603,699 us, 0.72%)</title><rect x="122.0" y="135" width="8.4" height="15.0" fill="rgb(0,0,0)" rx="2" ry="2" />
<text  x="124.95" y="145.5" ></text>
</g>
<g >
<title>firedrake.projection.project (42,203,959 us, 18.87%)</title><rect x="84.7" y="87" width="222.7" height="15.0" fill="rgb(0,0,0)" rx="2" ry="2" />
<text  x="87.72" y="97.5" >firedrake.projection.project</text>
</g>
<g >
<title>ParLoopExecute (790,138 us, 0.35%)</title><rect x="74.1" y="119" width="4.1" height="15.0" fill="rgb(0,0,0)" rx="2" ry="2" />
<text  x="77.07" y="129.5" ></text>
</g>
<g >
<title>firedrake.assemble_expressions.evaluate_expression (790,138 us, 0.35%)</title><rect x="74.1" y="103" width="4.1" height="15.0" fill="rgb(0,0,0)" rx="2" ry="2" />
<text  x="77.07" y="113.5" ></text>
</g>
<g >
<title>Parloop_Cells_wrap_form_cell_integral_otherwise (10,669,499 us, 4.77%)</title><rect x="307.4" y="135" width="56.3" height="15.0" fill="rgb(0,0,0)" rx="2" ry="2" />
<text  x="310.44" y="145.5" >Parlo..</text>
</g>
<g >
<title>pyop2.global_kernel.GlobalKernel.compile (10,669,499 us, 4.77%)</title><rect x="307.4" y="151" width="56.3" height="15.0" fill="rgb(0,0,0)" rx="2" ry="2" />
<text  x="310.44" y="161.5" >pyop2..</text>
</g>
<g >
<title>firedrake.function.Function.project (42,203,959 us, 18.87%)</title><rect x="84.7" y="71" width="222.7" height="15.0" fill="rgb(0,0,0)" rx="2" ry="2" />
<text  x="87.72" y="81.5" >firedrake.function.Function..</text>
</g>
<g >
<title>SCForwardElim (37,364,673 us, 16.71%)</title><rect x="707.5" y="135" width="197.1" height="15.0" fill="rgb(0,0,0)" rx="2" ry="2" />
<text  x="710.46" y="145.5" >SCForwardElim</text>
</g>
<g >
<title>MatZeroInitial (98,150 us, 0.04%)</title><rect x="287.1" y="135" width="0.5" height="15.0" fill="rgb(0,0,0)" rx="2" ry="2" />
<text  x="290.11" y="145.5" ></text>
</g>
<g >
<title>pyop2.global_kernel.GlobalKernel.compile (681,819 us, 0.30%)</title><rect x="1130.6" y="183" width="3.6" height="15.0" fill="rgb(0,0,0)" rx="2" ry="2" />
<text  x="1133.64" y="193.5" ></text>
</g>
<g >
<title>ParLoopExecute (24,865,362 us, 11.12%)</title><rect x="154.9" y="119" width="131.2" height="15.0" fill="rgb(0,0,0)" rx="2" ry="2" />
<text  x="157.89" y="129.5" >ParLoopExecute</text>
</g>
<g >
<title>firedrake.norms.errornorm (12,465,087 us, 5.57%)</title><rect x="307.4" y="71" width="65.8" height="15.0" fill="rgb(0,0,0)" rx="2" ry="2" />
<text  x="310.44" y="81.5" >firedr..</text>
</g>
<g >
<title>firedrake.tsfc_interface.compile_form (1,227,674 us, 0.55%)</title><rect x="78.2" y="87" width="6.5" height="15.0" fill="rgb(0,0,0)" rx="2" ry="2" />
<text  x="81.24" y="97.5" ></text>
</g>
<g >
<title>firedrake.tsfc_interface.compile_form (1,795,588 us, 0.80%)</title><rect x="363.7" y="119" width="9.5" height="15.0" fill="rgb(0,0,0)" rx="2" ry="2" />
<text  x="366.74" y="129.5" ></text>
</g>
<g >
<title>Parloop_Cells_wrap_form00_interior_facet_horiz_integral_otherwise (1,774,051 us, 0.79%)</title><rect x="250.4" y="135" width="9.3" height="15.0" fill="rgb(0,0,0)" rx="2" ry="2" />
<text  x="253.37" y="145.5" ></text>
</g>
<g >
<title>pyop2.global_kernel.GlobalKernel.compile (964,384 us, 0.43%)</title><rect x="431.2" y="215" width="5.1" height="15.0" fill="rgb(0,0,0)" rx="2" ry="2" />
<text  x="434.25" y="225.5" ></text>
</g>
<g >
<title>ParLoopExecute (8,126,636 us, 3.63%)</title><rect x="31.2" y="87" width="42.9" height="15.0" fill="rgb(0,0,0)" rx="2" ry="2" />
<text  x="34.19" y="97.5" >Par..</text>
</g>
<g >
<title>Parloop_Cells_wrap_form00_cell_integral_otherwise (14,660,635 us, 6.56%)</title><rect x="154.9" y="135" width="77.4" height="15.0" fill="rgb(0,0,0)" rx="2" ry="2" />
<text  x="157.89" y="145.5" >Parloop_..</text>
</g>
<g >
<title>firedrake.parloops.par_loop (681,819 us, 0.30%)</title><rect x="1130.6" y="135" width="3.6" height="15.0" fill="rgb(0,0,0)" rx="2" ry="2" />
<text  x="1133.64" y="145.5" ></text>
</g>
<g >
<title>PCApply (90,973,206 us, 40.68%)</title><rect x="424.6" y="119" width="480.0" height="15.0" fill="rgb(0,0,0)" rx="2" ry="2" />
<text  x="427.56" y="129.5" >PCApply</text>
</g>
<g >
<title>all (223,607,619 us, 100%)</title><rect x="10.0" y="39" width="1180.0" height="15.0" fill="rgb(0,0,0)" rx="2" ry="2" />
<text  x="13.00" y="49.5" ></text>
</g>
<g >
<title>pyop2.global_kernel.GlobalKernel.compile (1,714,176 us, 0.77%)</title><rect x="232.3" y="151" width="9.0" height="15.0" fill="rgb(0,0,0)" rx="2" ry="2" />
<text  x="235.26" y="161.5" ></text>
</g>
<g >
<title>Parloop_Cells_wrap_form0_exterior_facet_top_integral_otherwise (1,369,416 us, 0.61%)</title><rect x="114.7" y="119" width="7.3" height="15.0" fill="rgb(0,0,0)" rx="2" ry="2" />
<text  x="117.73" y="129.5" ></text>
</g>
<g >
<title>firedrake.__init__ (1,527,392 us, 0.68%)</title><rect x="23.1" y="71" width="8.1" height="15.0" fill="rgb(0,0,0)" rx="2" ry="2" />
<text  x="26.13" y="81.5" ></text>
</g>
<g >
<title>PCSetUpOnBlocks (47,972 us, 0.02%)</title><rect x="298.5" y="119" width="0.2" height="15.0" fill="rgb(0,0,0)" rx="2" ry="2" />
<text  x="301.48" y="129.5" ></text>
</g>
<g >
<title>pyop2.global_kernel.GlobalKernel.compile (4,657,941 us, 2.08%)</title><rect x="1134.2" y="151" width="24.6" height="15.0" fill="rgb(0,0,0)" rx="2" ry="2" />
<text  x="1137.24" y="161.5" >p..</text>
</g>
<g >
<title>firedrake.tsfc_interface.compile_form (3,140,300 us, 1.40%)</title><rect x="679.0" y="167" width="16.6" height="15.0" fill="rgb(0,0,0)" rx="2" ry="2" />
<text  x="681.99" y="177.5" ></text>
</g>
<g >
<title>pyop2.global_kernel.GlobalKernel.compile (14,660,635 us, 6.56%)</title><rect x="154.9" y="151" width="77.4" height="15.0" fill="rgb(0,0,0)" rx="2" ry="2" />
<text  x="157.89" y="161.5" >pyop2.gl..</text>
</g>
<g >
<title>pyop2.global_kernel.GlobalKernel.compile (32,701,751 us, 14.62%)</title><rect x="719.6" y="199" width="172.5" height="15.0" fill="rgb(0,0,0)" rx="2" ry="2" />
<text  x="722.56" y="209.5" >pyop2.global_kernel...</text>
</g>
<g >
<title>Parloop_Cells_wrap_par_loop_kernel (681,819 us, 0.30%)</title><rect x="1130.6" y="167" width="3.6" height="15.0" fill="rgb(0,0,0)" rx="2" ry="2" />
<text  x="1133.64" y="177.5" ></text>
</g>
<g >
<title>CreateFunctionSpace (22,957 us, 0.01%)</title><rect x="23.0" y="71" width="0.1" height="15.0" fill="rgb(0,0,0)" rx="2" ry="2" />
<text  x="26.01" y="81.5" ></text>
</g>
<g >
<title>SNESFunctionEval (10,566,409 us, 4.73%)</title><rect x="1134.2" y="103" width="55.8" height="15.0" fill="rgb(0,0,0)" rx="2" ry="2" />
<text  x="1137.24" y="113.5" >SNESF..</text>
</g>
<g >
<title>pyop2.global_kernel.GlobalKernel.compile (1,379,514 us, 0.62%)</title><rect x="38.1" y="119" width="7.3" height="15.0" fill="rgb(0,0,0)" rx="2" ry="2" />
<text  x="41.09" y="129.5" ></text>
</g>
<g >
<title>RecoverFirstElim (30,450,922 us, 13.62%)</title><rect x="534.9" y="151" width="160.7" height="15.0" fill="rgb(0,0,0)" rx="2" ry="2" />
<text  x="537.87" y="161.5" >RecoverFirstElim</text>
</g>
<g >
<title>firedrake.linear_solver.LinearSolver.solve (47,972 us, 0.02%)</title><rect x="298.5" y="103" width="0.2" height="15.0" fill="rgb(0,0,0)" rx="2" ry="2" />
<text  x="301.48" y="113.5" ></text>
</g>
<g >
<title>KSPSolve (100,702,524 us, 45.04%)</title><rect x="373.2" y="103" width="531.4" height="15.0" fill="rgb(0,0,0)" rx="2" ry="2" />
<text  x="376.22" y="113.5" >KSPSolve</text>
</g>
<g >
<title>firedrake.assemble.assemble (12,465,087 us, 5.57%)</title><rect x="307.4" y="103" width="65.8" height="15.0" fill="rgb(0,0,0)" rx="2" ry="2" />
<text  x="310.44" y="113.5" >firedr..</text>
</g>
<g >
<title>pyop2.global_kernel.GlobalKernel.compile (2,491,797 us, 1.11%)</title><rect x="273.0" y="151" width="13.1" height="15.0" fill="rgb(0,0,0)" rx="2" ry="2" />
<text  x="275.96" y="161.5" ></text>
</g>
<g >
<title>CreateSparsity (22,690 us, 0.01%)</title><rect x="1130.5" y="151" width="0.1" height="15.0" fill="rgb(0,0,0)" rx="2" ry="2" />
<text  x="1133.52" y="161.5" ></text>
</g>
<g >
<title>firedrake.matrix_free.operators.ImplicitMatrixContext.mult (9,729,318 us, 4.35%)</title><rect x="373.2" y="135" width="51.4" height="15.0" fill="rgb(0,0,0)" rx="2" ry="2" />
<text  x="376.22" y="145.5" >fire..</text>
</g>
<g >
<title>firedrake.tsfc_interface.compile_form (1,229,519 us, 0.55%)</title><rect x="418.1" y="151" width="6.5" height="15.0" fill="rgb(0,0,0)" rx="2" ry="2" />
<text  x="421.07" y="161.5" ></text>
</g>
<g >
<title>pyop2.global_kernel.GlobalKernel.compile (5,001,170 us, 2.24%)</title><rect x="373.2" y="183" width="26.4" height="15.0" fill="rgb(0,0,0)" rx="2" ry="2" />
<text  x="376.22" y="193.5" >p..</text>
</g>
<g >
<title>pyop2.global_kernel.GlobalKernel.compile (4,459,741 us, 1.99%)</title><rect x="1158.8" y="151" width="23.6" height="15.0" fill="rgb(0,0,0)" rx="2" ry="2" />
<text  x="1161.82" y="161.5" >p..</text>
</g>
<g >
<title>ParLoopExecute (32,739,231 us, 14.64%)</title><rect x="719.4" y="167" width="172.7" height="15.0" fill="rgb(0,0,0)" rx="2" ry="2" />
<text  x="722.36" y="177.5" >ParLoopExecute</text>
</g>
<g >
<title>pyop2.global_kernel.GlobalKernel.compile (4,335,790 us, 1.94%)</title><rect x="84.7" y="135" width="22.9" height="15.0" fill="rgb(0,0,0)" rx="2" ry="2" />
<text  x="87.72" y="145.5" ></text>
</g>
<g >
<title>Parloop_Cells_wrap_form00_exterior_facet_bottom_integral_otherwise (1,714,176 us, 0.77%)</title><rect x="232.3" y="135" width="9.0" height="15.0" fill="rgb(0,0,0)" rx="2" ry="2" />
<text  x="235.26" y="145.5" ></text>
</g>
<g >
<title>Parloop_Cells_wrap_form_interior_facet_horiz_integral_otherwise (1,364,976 us, 0.61%)</title><rect x="45.4" y="103" width="7.2" height="15.0" fill="rgb(0,0,0)" rx="2" ry="2" />
<text  x="48.37" y="113.5" ></text>
</g>
</g>
</svg>
