<?xml version="1.0" standalone="no"?>
<!DOCTYPE svg PUBLIC "-//W3C//DTD SVG 1.1//EN" "http://www.w3.org/Graphics/SVG/1.1/DTD/svg11.dtd">
<svg version="1.1" width="1200" height="283" onload="init(evt)" viewBox="0 0 1200 283" xmlns="http://www.w3.org/2000/svg" xmlns:xlink="http://www.w3.org/1999/xlink">
<!-- Flame graph stack visualization. See https://github.com/brendangregg/FlameGraph for latest version, and http://www.brendangregg.com/flamegraphs.html for examples. -->
<!-- NOTES:  -->
<defs>
	<linearGradient id="background" y1="0" y2="1" x1="0" x2="0" >
		<stop stop-color="#eeeeee" offset="5%" />
		<stop stop-color="#eeeeb0" offset="95%" />
	</linearGradient>
</defs>
<style type="text/css">
	text { font-family:Verdana; font-size:13px; fill:rgb(0,0,0); }
	#search, #ignorecase { opacity:0.1; cursor:pointer; }
	#search:hover, #search.show, #ignorecase:hover, #ignorecase.show { opacity:1; }
	#subtitle { text-anchor:middle; font-color:rgb(160,160,160); }
	#title { text-anchor:middle; font-size:18px}
	#unzoom { cursor:pointer; }
	#frames > *:hover { stroke:black; stroke-width:0.5; cursor:pointer; }
	.hide { display:none; }
	.parent { opacity:0.5; }
</style>
<script type="text/ecmascript">
<![CDATA[
	"use strict";
	var details, searchbtn, unzoombtn, matchedtxt, svg, searching, currentSearchTerm, ignorecase, ignorecaseBtn;
	function init(evt) {
		details = document.getElementById("details").firstChild;
		searchbtn = document.getElementById("search");
		ignorecaseBtn = document.getElementById("ignorecase");
		unzoombtn = document.getElementById("unzoom");
		matchedtxt = document.getElementById("matched");
		svg = document.getElementsByTagName("svg")[0];
		searching = 0;
		currentSearchTerm = null;

		// use GET parameters to restore a flamegraphs state.
		var params = get_params();
		if (params.x && params.y)
			zoom(find_group(document.querySelector('[x="' + params.x + '"][y="' + params.y + '"]')));
                if (params.s) search(params.s);
	}

	// event listeners
	window.addEventListener("click", function(e) {
		var target = find_group(e.target);
		if (target) {
			if (target.nodeName == "a") {
				if (e.ctrlKey === false) return;
				e.preventDefault();
			}
			if (target.classList.contains("parent")) unzoom();
			zoom(target);
			if (!document.querySelector('.parent')) {
				clearzoom();
				return;
			}

			// set parameters for zoom state
			var el = target.querySelector("rect");
			if (el && el.attributes && el.attributes.y && el.attributes._orig_x) {
				var params = get_params()
				params.x = el.attributes._orig_x.value;
				params.y = el.attributes.y.value;
				history.replaceState(null, null, parse_params(params));
			}
		}
		else if (e.target.id == "unzoom") clearzoom();
		else if (e.target.id == "search") search_prompt();
		else if (e.target.id == "ignorecase") toggle_ignorecase();
	}, false)

	// mouse-over for info
	// show
	window.addEventListener("mouseover", function(e) {
		var target = find_group(e.target);
		if (target) details.nodeValue = "Function: " + g_to_text(target);
	}, false)

	// clear
	window.addEventListener("mouseout", function(e) {
		var target = find_group(e.target);
		if (target) details.nodeValue = ' ';
	}, false)

	// ctrl-F for search
	// ctrl-I to toggle case-sensitive search
	window.addEventListener("keydown",function (e) {
		if (e.keyCode === 114 || (e.ctrlKey && e.keyCode === 70)) {
			e.preventDefault();
			search_prompt();
		}
		else if (e.ctrlKey && e.keyCode === 73) {
			e.preventDefault();
			toggle_ignorecase();
		}
	}, false)

	// functions
	function get_params() {
		var params = {};
		var paramsarr = window.location.search.substr(1).split('&');
		for (var i = 0; i < paramsarr.length; ++i) {
			var tmp = paramsarr[i].split("=");
			if (!tmp[0] || !tmp[1]) continue;
			params[tmp[0]]  = decodeURIComponent(tmp[1]);
		}
		return params;
	}
	function parse_params(params) {
		var uri = "?";
		for (var key in params) {
			uri += key + '=' + encodeURIComponent(params[key]) + '&';
		}
		if (uri.slice(-1) == "&")
			uri = uri.substring(0, uri.length - 1);
		if (uri == '?')
			uri = window.location.href.split('?')[0];
		return uri;
	}
	function find_child(node, selector) {
		var children = node.querySelectorAll(selector);
		if (children.length) return children[0];
	}
	function find_group(node) {
		var parent = node.parentElement;
		if (!parent) return;
		if (parent.id == "frames") return node;
		return find_group(parent);
	}
	function orig_save(e, attr, val) {
		if (e.attributes["_orig_" + attr] != undefined) return;
		if (e.attributes[attr] == undefined) return;
		if (val == undefined) val = e.attributes[attr].value;
		e.setAttribute("_orig_" + attr, val);
	}
	function orig_load(e, attr) {
		if (e.attributes["_orig_"+attr] == undefined) return;
		e.attributes[attr].value = e.attributes["_orig_" + attr].value;
		e.removeAttribute("_orig_"+attr);
	}
	function g_to_text(e) {
		var text = find_child(e, "title").firstChild.nodeValue;
		return (text)
	}
	function g_to_func(e) {
		var func = g_to_text(e);
		// if there's any manipulation we want to do to the function
		// name before it's searched, do it here before returning.
		return (func);
	}
	function update_text(e) {
		var r = find_child(e, "rect");
		var t = find_child(e, "text");
		var w = parseFloat(r.attributes.width.value) -3;
		var txt = find_child(e, "title").textContent.replace(/\([^(]*\)$/,"");
		t.attributes.x.value = parseFloat(r.attributes.x.value) + 3;

		// Smaller than this size won't fit anything
		if (w < 2 * 13 * 0.59) {
			t.textContent = "";
			return;
		}

		t.textContent = txt;
		// Fit in full text width
		if (/^ *$/.test(txt) || t.getSubStringLength(0, txt.length) < w)
			return;

		for (var x = txt.length - 2; x > 0; x--) {
			if (t.getSubStringLength(0, x + 2) <= w) {
				t.textContent = txt.substring(0, x) + "..";
				return;
			}
		}
		t.textContent = "";
	}

	// zoom
	function zoom_reset(e) {
		if (e.attributes != undefined) {
			orig_load(e, "x");
			orig_load(e, "width");
		}
		if (e.childNodes == undefined) return;
		for (var i = 0, c = e.childNodes; i < c.length; i++) {
			zoom_reset(c[i]);
		}
	}
	function zoom_child(e, x, ratio) {
		if (e.attributes != undefined) {
			if (e.attributes.x != undefined) {
				orig_save(e, "x");
				e.attributes.x.value = (parseFloat(e.attributes.x.value) - x - 10) * ratio + 10;
				if (e.tagName == "text")
					e.attributes.x.value = find_child(e.parentNode, "rect[x]").attributes.x.value + 3;
			}
			if (e.attributes.width != undefined) {
				orig_save(e, "width");
				e.attributes.width.value = parseFloat(e.attributes.width.value) * ratio;
			}
		}

		if (e.childNodes == undefined) return;
		for (var i = 0, c = e.childNodes; i < c.length; i++) {
			zoom_child(c[i], x - 10, ratio);
		}
	}
	function zoom_parent(e) {
		if (e.attributes) {
			if (e.attributes.x != undefined) {
				orig_save(e, "x");
				e.attributes.x.value = 10;
			}
			if (e.attributes.width != undefined) {
				orig_save(e, "width");
				e.attributes.width.value = parseInt(svg.width.baseVal.value) - (10 * 2);
			}
		}
		if (e.childNodes == undefined) return;
		for (var i = 0, c = e.childNodes; i < c.length; i++) {
			zoom_parent(c[i]);
		}
	}
	function zoom(node) {
		var attr = find_child(node, "rect").attributes;
		var width = parseFloat(attr.width.value);
		var xmin = parseFloat(attr.x.value);
		var xmax = parseFloat(xmin + width);
		var ymin = parseFloat(attr.y.value);
		var ratio = (svg.width.baseVal.value - 2 * 10) / width;

		// XXX: Workaround for JavaScript float issues (fix me)
		var fudge = 0.0001;

		unzoombtn.classList.remove("hide");

		var el = document.getElementById("frames").children;
		for (var i = 0; i < el.length; i++) {
			var e = el[i];
			var a = find_child(e, "rect").attributes;
			var ex = parseFloat(a.x.value);
			var ew = parseFloat(a.width.value);
			var upstack;
			// Is it an ancestor
			if (1 == 0) {
				upstack = parseFloat(a.y.value) > ymin;
			} else {
				upstack = parseFloat(a.y.value) < ymin;
			}
			if (upstack) {
				// Direct ancestor
				if (ex <= xmin && (ex+ew+fudge) >= xmax) {
					e.classList.add("parent");
					zoom_parent(e);
					update_text(e);
				}
				// not in current path
				else
					e.classList.add("hide");
			}
			// Children maybe
			else {
				// no common path
				if (ex < xmin || ex + fudge >= xmax) {
					e.classList.add("hide");
				}
				else {
					zoom_child(e, xmin, ratio);
					update_text(e);
				}
			}
		}
		search();
	}
	function unzoom() {
		unzoombtn.classList.add("hide");
		var el = document.getElementById("frames").children;
		for(var i = 0; i < el.length; i++) {
			el[i].classList.remove("parent");
			el[i].classList.remove("hide");
			zoom_reset(el[i]);
			update_text(el[i]);
		}
		search();
	}
	function clearzoom() {
		unzoom();

		// remove zoom state
		var params = get_params();
		if (params.x) delete params.x;
		if (params.y) delete params.y;
		history.replaceState(null, null, parse_params(params));
	}

	// search
	function toggle_ignorecase() {
		ignorecase = !ignorecase;
		if (ignorecase) {
			ignorecaseBtn.classList.add("show");
		} else {
			ignorecaseBtn.classList.remove("show");
		}
		reset_search();
		search();
	}
	function reset_search() {
		var el = document.querySelectorAll("#frames rect");
		for (var i = 0; i < el.length; i++) {
			orig_load(el[i], "fill")
		}
		var params = get_params();
		delete params.s;
		history.replaceState(null, null, parse_params(params));
	}
	function search_prompt() {
		if (!searching) {
			var term = prompt("Enter a search term (regexp " +
			    "allowed, eg: ^ext4_)"
			    + (ignorecase ? ", ignoring case" : "")
			    + "\nPress Ctrl-i to toggle case sensitivity", "");
			if (term != null) search(term);
		} else {
			reset_search();
			searching = 0;
			currentSearchTerm = null;
			searchbtn.classList.remove("show");
			searchbtn.firstChild.nodeValue = "Search"
			matchedtxt.classList.add("hide");
			matchedtxt.firstChild.nodeValue = ""
		}
	}
	function search(term) {
		if (term) currentSearchTerm = term;

		var re = new RegExp(currentSearchTerm, ignorecase ? 'i' : '');
		var el = document.getElementById("frames").children;
		var matches = new Object();
		var maxwidth = 0;
		for (var i = 0; i < el.length; i++) {
			var e = el[i];
			var func = g_to_func(e);
			var rect = find_child(e, "rect");
			if (func == null || rect == null)
				continue;

			// Save max width. Only works as we have a root frame
			var w = parseFloat(rect.attributes.width.value);
			if (w > maxwidth)
				maxwidth = w;

			if (func.match(re)) {
				// highlight
				var x = parseFloat(rect.attributes.x.value);
				orig_save(rect, "fill");
				rect.attributes.fill.value = "rgb(230,0,230)";

				// remember matches
				if (matches[x] == undefined) {
					matches[x] = w;
				} else {
					if (w > matches[x]) {
						// overwrite with parent
						matches[x] = w;
					}
				}
				searching = 1;
			}
		}
		if (!searching)
			return;
		var params = get_params();
		params.s = currentSearchTerm;
		history.replaceState(null, null, parse_params(params));

		searchbtn.classList.add("show");
		searchbtn.firstChild.nodeValue = "Reset Search";

		// calculate percent matched, excluding vertical overlap
		var count = 0;
		var lastx = -1;
		var lastw = 0;
		var keys = Array();
		for (k in matches) {
			if (matches.hasOwnProperty(k))
				keys.push(k);
		}
		// sort the matched frames by their x location
		// ascending, then width descending
		keys.sort(function(a, b){
			return a - b;
		});
		// Step through frames saving only the biggest bottom-up frames
		// thanks to the sort order. This relies on the tree property
		// where children are always smaller than their parents.
		var fudge = 0.0001;	// JavaScript floating point
		for (var k in keys) {
			var x = parseFloat(keys[k]);
			var w = matches[keys[k]];
			if (x >= lastx + lastw - fudge) {
				count += w;
				lastx = x;
				lastw = w;
			}
		}
		// display matched percent
		matchedtxt.classList.remove("hide");
		var pct = 100 * count / maxwidth;
		if (pct != 100) pct = pct.toFixed(1)
		matchedtxt.firstChild.nodeValue = "Matched: " + pct + "%";
	}
]]>
</script>
<rect x="0.0" y="0" width="1200.0" height="283.0" fill="url(#background)"  />
<text id="title" x="600.00" y="26" >Firedrake example</text>
<text id="details" x="10.00" y="265" > </text>
<text id="unzoom" x="10.00" y="26" class="hide">Reset Zoom</text>
<text id="search" x="1090.00" y="26" >Search</text>
<text id="ignorecase" x="1174.00" y="26" >ic</text>
<text id="matched" x="1090.00" y="265" > </text>
<g id="frames">
<g >
<title>firedrake.functionspacedata.FunctionSpaceData.__init__ (6,252 us, 0.16%)</title><rect x="304.3" y="151" width="1.9" height="15.0" fill="rgb(0,0,0)" rx="2" ry="2" />
<text  x="307.28" y="161.5" ></text>
</g>
<g >
<title>firedrake.interpolation.make_interpolator (22,688 us, 0.59%)</title><rect x="1134.3" y="135" width="7.0" height="15.0" fill="rgb(0,0,0)" rx="2" ry="2" />
<text  x="1137.27" y="145.5" ></text>
</g>
<g >
<title>Log_Event_subkernel17_interior_facet_vert_to__exterior_facet_vert_integral_otherwise (11,754 us, 0.31%)</title><rect x="839.0" y="183" width="3.6" height="15.0" fill="rgb(0,0,0)" rx="2" ry="2" />
<text  x="841.96" y="193.5" ></text>
</g>
<g >
<title>firedrake.functionspaceimpl.FunctionSpace.__init__ (3,178 us, 0.08%)</title><rect x="1132.7" y="199" width="0.9" height="15.0" fill="rgb(0,0,0)" rx="2" ry="2" />
<text  x="1135.66" y="209.5" ></text>
</g>
<g >
<title>firedrake.parloops.par_loop (38,511 us, 1.01%)</title><rect x="1141.3" y="135" width="11.9" height="15.0" fill="rgb(0,0,0)" rx="2" ry="2" />
<text  x="1144.29" y="145.5" ></text>
</g>
<g >
<title>Parloop_Cells_wrap_par_loop_kernel (33,508 us, 0.88%)</title><rect x="1142.8" y="167" width="10.4" height="15.0" fill="rgb(0,0,0)" rx="2" ry="2" />
<text  x="1145.83" y="177.5" ></text>
</g>
<g >
<title>firedrake.ufl_expr.adjoint (2,186 us, 0.06%)</title><rect x="1153.2" y="135" width="0.7" height="15.0" fill="rgb(0,0,0)" rx="2" ry="2" />
<text  x="1156.19" y="145.5" ></text>
</g>
<g >
<title>pyop2.global_kernel.GlobalKernel.compile (36,049 us, 0.94%)</title><rect x="1156.1" y="151" width="11.1" height="15.0" fill="rgb(0,0,0)" rx="2" ry="2" />
<text  x="1159.06" y="161.5" ></text>
</g>
<g >
<title>SCForwardElim (194,669 us, 5.10%)</title><rect x="952.4" y="135" width="60.2" height="15.0" fill="rgb(0,0,0)" rx="2" ry="2" />
<text  x="955.39" y="145.5" >SCFor..</text>
</g>
<g >
<title>firedrake.functionspace.make_scalar_element (1,745 us, 0.05%)</title><rect x="1132.1" y="199" width="0.6" height="15.0" fill="rgb(0,0,0)" rx="2" ry="2" />
<text  x="1135.12" y="209.5" ></text>
</g>
<g >
<title>ParLoopExecute (70,665 us, 1.85%)</title><rect x="990.7" y="167" width="21.9" height="15.0" fill="rgb(0,0,0)" rx="2" ry="2" />
<text  x="993.73" y="177.5" ></text>
</g>
<g >
<title>PCApply (696,055 us, 18.24%)</title><rect x="798.8" y="119" width="215.2" height="15.0" fill="rgb(0,0,0)" rx="2" ry="2" />
<text  x="801.83" y="129.5" >PCApply</text>
</g>
<g >
<title>Log_Event_subkernel16_cell_to__cell_integral_otherwise (3,339 us, 0.09%)</title><rect x="837.0" y="183" width="1.0" height="15.0" fill="rgb(0,0,0)" rx="2" ry="2" />
<text  x="840.00" y="193.5" ></text>
</g>
<g >
<title>Log_Event_subkernel3_interior_facet_horiz_top_to__exterior_facet_top_integral_otherwise (1,599 us, 0.04%)</title><rect x="1105.0" y="183" width="0.5" height="15.0" fill="rgb(0,0,0)" rx="2" ry="2" />
<text  x="1108.00" y="193.5" ></text>
</g>
<g >
<title>Parloop_Cells_wrap_wrap_slate_loopy_knl_7 (90,251 us, 2.36%)</title><rect x="924.3" y="183" width="27.9" height="15.0" fill="rgb(0,0,0)" rx="2" ry="2" />
<text  x="927.34" y="193.5" >P..</text>
</g>
<g >
<title>firedrake.functionspaceimpl.FunctionSpace.local_to_global_map (467 us, 0.01%)</title><rect x="1120.5" y="151" width="0.1" height="15.0" fill="rgb(0,0,0)" rx="2" ry="2" />
<text  x="1123.49" y="161.5" ></text>
</g>
<g >
<title>Log_Event_subkernel13_interior_facet_horiz_top_to__exterior_facet_top_integral_otherwise (1,483 us, 0.04%)</title><rect x="935.3" y="199" width="0.4" height="15.0" fill="rgb(0,0,0)" rx="2" ry="2" />
<text  x="938.28" y="209.5" ></text>
</g>
<g >
<title>firedrake.functionspaceimpl.FunctionSpace.__init__ (23,146 us, 0.61%)</title><rect x="307.1" y="87" width="7.2" height="15.0" fill="rgb(0,0,0)" rx="2" ry="2" />
<text  x="310.09" y="97.5" ></text>
</g>
<g >
<title>RecoverFirstElim (317,632 us, 8.32%)</title><rect x="854.2" y="151" width="98.2" height="15.0" fill="rgb(0,0,0)" rx="2" ry="2" />
<text  x="857.18" y="161.5" >RecoverFir..</text>
</g>
<g >
<title>firedrake.functionspacedata.FunctionSpaceData.__init__ (22,330 us, 0.59%)</title><rect x="307.3" y="119" width="7.0" height="15.0" fill="rgb(0,0,0)" rx="2" ry="2" />
<text  x="310.35" y="129.5" ></text>
</g>
<g >
<title>FunctionSpaceData: CreateElement (717 us, 0.02%)</title><rect x="305.8" y="167" width="0.2" height="15.0" fill="rgb(0,0,0)" rx="2" ry="2" />
<text  x="308.79" y="177.5" ></text>
</g>
<g >
<title>firedrake.ufl_expr.adjoint (10,772 us, 0.28%)</title><rect x="792.2" y="103" width="3.3" height="15.0" fill="rgb(0,0,0)" rx="2" ry="2" />
<text  x="795.17" y="113.5" ></text>
</g>
<g >
<title>firedrake.tsfc_interface.compile_form (38,372 us, 1.01%)</title><rect x="1178.1" y="119" width="11.9" height="15.0" fill="rgb(0,0,0)" rx="2" ry="2" />
<text  x="1181.14" y="129.5" ></text>
</g>
<g >
<title>firedrake.functionspaceimpl.WithGeometry.split (904 us, 0.02%)</title><rect x="1133.6" y="183" width="0.3" height="15.0" fill="rgb(0,0,0)" rx="2" ry="2" />
<text  x="1136.64" y="193.5" ></text>
</g>
<g >
<title>firedrake.functionspace.make_scalar_element (783 us, 0.02%)</title><rect x="306.9" y="87" width="0.2" height="15.0" fill="rgb(0,0,0)" rx="2" ry="2" />
<text  x="309.85" y="97.5" ></text>
</g>
<g >
<title>firedrake.variational_solver.NonlinearVariationalProblem.__init__ (11,791 us, 0.31%)</title><rect x="792.2" y="87" width="3.6" height="15.0" fill="rgb(0,0,0)" rx="2" ry="2" />
<text  x="795.17" y="97.5" ></text>
</g>
<g >
<title>Log_Event_subkernel3_interior_facet_horiz_bottom_to__exterior_facet_bottom_integral_otherwise (1,399 us, 0.04%)</title><rect x="1104.6" y="183" width="0.4" height="15.0" fill="rgb(0,0,0)" rx="2" ry="2" />
<text  x="1107.56" y="193.5" ></text>
</g>
<g >
<title>KSPSolve (4,763 us, 0.12%)</title><rect x="1012.6" y="151" width="1.4" height="15.0" fill="rgb(0,0,0)" rx="2" ry="2" />
<text  x="1015.58" y="161.5" ></text>
</g>
<g >
<title>firedrake.functionspacedata.FunctionSpaceData.__init__ (2,281 us, 0.06%)</title><rect x="1132.9" y="231" width="0.7" height="15.0" fill="rgb(0,0,0)" rx="2" ry="2" />
<text  x="1135.94" y="241.5" ></text>
</g>
<g >
<title>Log_Event_subkernel17_interior_facet_horiz_top_to__exterior_facet_top_integral_otherwise (1,525 us, 0.04%)</title><rect x="838.5" y="183" width="0.5" height="15.0" fill="rgb(0,0,0)" rx="2" ry="2" />
<text  x="841.49" y="193.5" ></text>
</g>
<g >
<title>firedrake.ufl_expr.action (5,171 us, 0.14%)</title><rect x="790.6" y="87" width="1.6" height="15.0" fill="rgb(0,0,0)" rx="2" ry="2" />
<text  x="793.57" y="97.5" ></text>
</g>
<g >
<title>Parloop_Cells_wrap_wrap_slate_loopy_knl_0 (106,687 us, 2.80%)</title><rect x="1087.5" y="167" width="33.0" height="15.0" fill="rgb(0,0,0)" rx="2" ry="2" />
<text  x="1090.50" y="177.5" >Pa..</text>
</g>
<g >
<title>MatZeroInitial (6,180 us, 0.16%)</title><rect x="1127.9" y="151" width="1.9" height="15.0" fill="rgb(0,0,0)" rx="2" ry="2" />
<text  x="1130.91" y="161.5" ></text>
</g>
<g >
<title>FunctionSpaceData: CreateElement (6,445 us, 0.17%)</title><rect x="1020.7" y="199" width="2.0" height="15.0" fill="rgb(0,0,0)" rx="2" ry="2" />
<text  x="1023.71" y="209.5" ></text>
</g>
<g >
<title>firedrake.functionspaceimpl.FunctionSpace.__init__ (597 us, 0.02%)</title><rect x="789.8" y="87" width="0.2" height="15.0" fill="rgb(0,0,0)" rx="2" ry="2" />
<text  x="792.83" y="97.5" ></text>
</g>
<g >
<title>firedrake.matrix_free.operators.ImplicitMatrixContext.__init__ (7,251 us, 0.19%)</title><rect x="796.2" y="103" width="2.3" height="15.0" fill="rgb(0,0,0)" rx="2" ry="2" />
<text  x="799.24" y="113.5" ></text>
</g>
<g >
<title>Log_Event_subkernel9_cell_to__cell_integral_otherwise (3,059 us, 0.08%)</title><rect x="939.4" y="199" width="1.0" height="15.0" fill="rgb(0,0,0)" rx="2" ry="2" />
<text  x="942.41" y="209.5" ></text>
</g>
<g >
<title>solve_getrs (985 us, 0.03%)</title><rect x="994.1" y="215" width="0.3" height="15.0" fill="rgb(0,0,0)" rx="2" ry="2" />
<text  x="997.11" y="225.5" ></text>
</g>
<g >
<title>CreateFunctionSpace (11,092 us, 0.29%)</title><rect x="1019.3" y="135" width="3.4" height="15.0" fill="rgb(0,0,0)" rx="2" ry="2" />
<text  x="1022.27" y="145.5" ></text>
</g>
<g >
<title>CreateFunctionSpace (24,675 us, 0.65%)</title><rect x="306.6" y="71" width="7.7" height="15.0" fill="rgb(0,0,0)" rx="2" ry="2" />
<text  x="309.62" y="81.5" ></text>
</g>
<g >
<title>pyop2.global_kernel.GlobalKernel.compile (38,452 us, 1.01%)</title><rect x="940.4" y="199" width="11.8" height="15.0" fill="rgb(0,0,0)" rx="2" ry="2" />
<text  x="943.36" y="209.5" ></text>
</g>
<g >
<title>CreateFunctionSpace (6,850 us, 0.18%)</title><rect x="1131.5" y="183" width="2.1" height="15.0" fill="rgb(0,0,0)" rx="2" ry="2" />
<text  x="1134.52" y="193.5" ></text>
</g>
<g >
<title>Log_Event_slate_loopy_knl_0 (20,688 us, 0.54%)</title><rect x="1090.5" y="183" width="6.4" height="15.0" fill="rgb(0,0,0)" rx="2" ry="2" />
<text  x="1093.47" y="193.5" ></text>
</g>
<g >
<title>ParLoopExecute (90,251 us, 2.36%)</title><rect x="924.3" y="167" width="27.9" height="15.0" fill="rgb(0,0,0)" rx="2" ry="2" />
<text  x="927.34" y="177.5" >P..</text>
</g>
<g >
<title>CreateFunctionSpace (2,106 us, 0.06%)</title><rect x="1019.6" y="167" width="0.7" height="15.0" fill="rgb(0,0,0)" rx="2" ry="2" />
<text  x="1022.64" y="177.5" ></text>
</g>
<g >
<title>Log_Event_subkernel1_interior_facet_horiz_bottom_to__exterior_facet_bottom_integral_otherwise (1,431 us, 0.04%)</title><rect x="1096.9" y="183" width="0.4" height="15.0" fill="rgb(0,0,0)" rx="2" ry="2" />
<text  x="1099.87" y="193.5" ></text>
</g>
<g >
<title>ParLoopExecute (33,508 us, 0.88%)</title><rect x="1142.8" y="151" width="10.4" height="15.0" fill="rgb(0,0,0)" rx="2" ry="2" />
<text  x="1145.83" y="161.5" ></text>
</g>
<g >
<title>solve_getrs (1,634 us, 0.04%)</title><rect x="932.1" y="215" width="0.5" height="15.0" fill="rgb(0,0,0)" rx="2" ry="2" />
<text  x="935.10" y="225.5" ></text>
</g>
<g >
<title>Log_Event_slate_loopy_knl_7 (24,522 us, 0.64%)</title><rect x="925.2" y="199" width="7.6" height="15.0" fill="rgb(0,0,0)" rx="2" ry="2" />
<text  x="928.20" y="209.5" ></text>
</g>
<g >
<title>PetscBarrier (657 us, 0.02%)</title><rect x="314.8" y="71" width="0.2" height="15.0" fill="rgb(0,0,0)" rx="2" ry="2" />
<text  x="317.78" y="81.5" ></text>
</g>
<g >
<title>Parloop_Cells_wrap_par_loop_kernel (36,724 us, 0.96%)</title><rect x="954.7" y="199" width="11.3" height="15.0" fill="rgb(0,0,0)" rx="2" ry="2" />
<text  x="957.68" y="209.5" ></text>
</g>
<g >
<title>firedrake.formmanipulation.ExtractSubBlock.argument (9,604 us, 0.25%)</title><rect x="1131.0" y="167" width="2.9" height="15.0" fill="rgb(0,0,0)" rx="2" ry="2" />
<text  x="1133.95" y="177.5" ></text>
</g>
<g >
<title>firedrake.function.Function.__init__ (1,135 us, 0.03%)</title><rect x="1133.9" y="135" width="0.4" height="15.0" fill="rgb(0,0,0)" rx="2" ry="2" />
<text  x="1136.92" y="145.5" ></text>
</g>
<g >
<title>HybridProject (39,975 us, 1.05%)</title><rect x="820.8" y="151" width="12.3" height="15.0" fill="rgb(0,0,0)" rx="2" ry="2" />
<text  x="823.78" y="161.5" ></text>
</g>
<g >
<title>Log_Event_subkernel5_interior_facet_horiz_bottom_to__exterior_facet_bottom_integral_otherwise (1,475 us, 0.04%)</title><rect x="994.4" y="199" width="0.5" height="15.0" fill="rgb(0,0,0)" rx="2" ry="2" />
<text  x="997.42" y="209.5" ></text>
</g>
<g >
<title>pyop2.global_kernel.GlobalKernel.compile (32,971 us, 0.86%)</title><rect x="1167.9" y="151" width="10.2" height="15.0" fill="rgb(0,0,0)" rx="2" ry="2" />
<text  x="1170.94" y="161.5" ></text>
</g>
<g >
<title>SCSolve (4,763 us, 0.12%)</title><rect x="1012.6" y="135" width="1.4" height="15.0" fill="rgb(0,0,0)" rx="2" ry="2" />
<text  x="1015.58" y="145.5" ></text>
</g>
<g >
<title>firedrake.functionspacedata.FunctionSpaceData.__init__ (7,247 us, 0.19%)</title><rect x="1020.5" y="183" width="2.2" height="15.0" fill="rgb(0,0,0)" rx="2" ry="2" />
<text  x="1023.46" y="193.5" ></text>
</g>
<g >
<title>SNESSolve (1,265,636 us, 33.16%)</title><rect x="798.7" y="87" width="391.3" height="15.0" fill="rgb(0,0,0)" rx="2" ry="2" />
<text  x="801.68" y="97.5" >SNESSolve</text>
</g>
<g >
<title>firedrake.functionspaceimpl.FunctionSpace.__init__ (6,252 us, 0.16%)</title><rect x="304.3" y="119" width="1.9" height="15.0" fill="rgb(0,0,0)" rx="2" ry="2" />
<text  x="307.28" y="129.5" ></text>
</g>
<g >
<title>firedrake.mesh._Facets.__init__ (635 us, 0.02%)</title><rect x="306.0" y="167" width="0.2" height="15.0" fill="rgb(0,0,0)" rx="2" ry="2" />
<text  x="309.02" y="177.5" ></text>
</g>
<g >
<title>pyop2.global_kernel.GlobalKernel.compile (33,418 us, 0.88%)</title><rect x="822.8" y="215" width="10.3" height="15.0" fill="rgb(0,0,0)" rx="2" ry="2" />
<text  x="825.81" y="225.5" ></text>
</g>
<g >
<title>solve_getrf (7,311 us, 0.19%)</title><rect x="991.9" y="215" width="2.2" height="15.0" fill="rgb(0,0,0)" rx="2" ry="2" />
<text  x="994.85" y="225.5" ></text>
</g>
<g >
<title>pyop2.global_kernel.GlobalKernel.compile (37,228 us, 0.98%)</title><rect x="1109.0" y="183" width="11.5" height="15.0" fill="rgb(0,0,0)" rx="2" ry="2" />
<text  x="1111.98" y="193.5" ></text>
</g>
<g >
<title>Log_Event_subkernel11_cell_to__cell_integral_otherwise (3,414 us, 0.09%)</title><rect x="933.8" y="199" width="1.0" height="15.0" fill="rgb(0,0,0)" rx="2" ry="2" />
<text  x="936.76" y="209.5" ></text>
</g>
<g >
<title>firedrake.mesh.make_mesh_from_coordinates (609 us, 0.02%)</title><rect x="306.4" y="87" width="0.2" height="15.0" fill="rgb(0,0,0)" rx="2" ry="2" />
<text  x="309.43" y="97.5" ></text>
</g>
<g >
<title>Log_Event_subkernel5_interior_facet_vert_to__exterior_facet_vert_integral_otherwise (13,355 us, 0.35%)</title><rect x="995.3" y="199" width="4.1" height="15.0" fill="rgb(0,0,0)" rx="2" ry="2" />
<text  x="998.31" y="209.5" ></text>
</g>
<g >
<title>Log_Event_subkernel3_interior_facet_vert_to__exterior_facet_vert_integral_otherwise (11,274 us, 0.30%)</title><rect x="1105.5" y="183" width="3.5" height="15.0" fill="rgb(0,0,0)" rx="2" ry="2" />
<text  x="1108.49" y="193.5" ></text>
</g>
<g >
<title>firedrake.functionspace.MixedFunctionSpace (1,359 us, 0.04%)</title><rect x="789.6" y="71" width="0.4" height="15.0" fill="rgb(0,0,0)" rx="2" ry="2" />
<text  x="792.59" y="81.5" ></text>
</g>
<g >
<title>CreateMesh (614 us, 0.02%)</title><rect x="790.2" y="103" width="0.2" height="15.0" fill="rgb(0,0,0)" rx="2" ry="2" />
<text  x="793.24" y="113.5" ></text>
</g>
<g >
<title>firedrake.assemble.allocate_matrix (29,711 us, 0.78%)</title><rect x="1120.6" y="135" width="9.2" height="15.0" fill="rgb(0,0,0)" rx="2" ry="2" />
<text  x="1123.63" y="145.5" ></text>
</g>
<g >
<title>firedrake.formmanipulation.split_form (6,157 us, 0.16%)</title><rect x="1188.1" y="135" width="1.9" height="15.0" fill="rgb(0,0,0)" rx="2" ry="2" />
<text  x="1191.10" y="145.5" ></text>
</g>
<g >
<title>ParLoopExecute (74,709 us, 1.96%)</title><rect x="1155.0" y="119" width="23.1" height="15.0" fill="rgb(0,0,0)" rx="2" ry="2" />
<text  x="1158.04" y="129.5" >P..</text>
</g>
<g >
<title>firedrake.functionspacedata.FunctionSpaceData.__init__ (1,520 us, 0.04%)</title><rect x="1019.8" y="215" width="0.5" height="15.0" fill="rgb(0,0,0)" rx="2" ry="2" />
<text  x="1022.83" y="225.5" ></text>
</g>
<g >
<title>Parloop_Cells_wrap_wrap_slate_loopy_knl_4 (70,665 us, 1.85%)</title><rect x="990.7" y="183" width="21.9" height="15.0" fill="rgb(0,0,0)" rx="2" ry="2" />
<text  x="993.73" y="193.5" ></text>
</g>
<g >
<title>firedrake.assemble.allocate_matrix (7,251 us, 0.19%)</title><rect x="796.2" y="87" width="2.3" height="15.0" fill="rgb(0,0,0)" rx="2" ry="2" />
<text  x="799.24" y="97.5" ></text>
</g>
<g >
<title>CreateFunctionSpace (6,252 us, 0.16%)</title><rect x="304.3" y="103" width="1.9" height="15.0" fill="rgb(0,0,0)" rx="2" ry="2" />
<text  x="307.28" y="113.5" ></text>
</g>
<g >
<title>Parloop_Cells_wrap_form1_cell_integral_otherwise (35,356 us, 0.93%)</title><rect x="1167.2" y="135" width="10.9" height="15.0" fill="rgb(0,0,0)" rx="2" ry="2" />
<text  x="1170.20" y="145.5" ></text>
</g>
<g >
<title>ParLoopExecute (36,724 us, 0.96%)</title><rect x="954.7" y="183" width="11.3" height="15.0" fill="rgb(0,0,0)" rx="2" ry="2" />
<text  x="957.68" y="193.5" ></text>
</g>
<g >
<title>pyop2.global_kernel.GlobalKernel.compile (34,371 us, 0.90%)</title><rect x="1001.9" y="199" width="10.7" height="15.0" fill="rgb(0,0,0)" rx="2" ry="2" />
<text  x="1004.95" y="209.5" ></text>
</g>
<g >
<title>Log_Event_subkernel1_interior_facet_vert_to__exterior_facet_vert_integral_otherwise (13,672 us, 0.36%)</title><rect x="1097.8" y="183" width="4.2" height="15.0" fill="rgb(0,0,0)" rx="2" ry="2" />
<text  x="1100.78" y="193.5" ></text>
</g>
<g >
<title>firedrake.functionspacedata.get_shared_data (444 us, 0.01%)</title><rect x="1189.9" y="215" width="0.1" height="15.0" fill="rgb(0,0,0)" rx="2" ry="2" />
<text  x="1192.86" y="225.5" ></text>
</g>
<g >
<title>firedrake.functionspace.VectorFunctionSpace (6,252 us, 0.16%)</title><rect x="304.3" y="87" width="1.9" height="15.0" fill="rgb(0,0,0)" rx="2" ry="2" />
<text  x="307.28" y="97.5" ></text>
</g>
<g >
<title>MatMult (3,512 us, 0.09%)</title><rect x="1012.8" y="167" width="1.1" height="15.0" fill="rgb(0,0,0)" rx="2" ry="2" />
<text  x="1015.77" y="177.5" ></text>
</g>
<g >
<title>Log_Event_subkernel10_cell_to__cell_integral_otherwise (3,150 us, 0.08%)</title><rect x="932.8" y="199" width="1.0" height="15.0" fill="rgb(0,0,0)" rx="2" ry="2" />
<text  x="935.79" y="209.5" ></text>
</g>
<g >
<title>Log_Event_form1_cell_integral_otherwise (2,385 us, 0.06%)</title><rect x="1167.2" y="151" width="0.7" height="15.0" fill="rgb(0,0,0)" rx="2" ry="2" />
<text  x="1170.20" y="161.5" ></text>
</g>
<g >
<title>KSPSolve (696,055 us, 18.24%)</title><rect x="798.8" y="103" width="215.2" height="15.0" fill="rgb(0,0,0)" rx="2" ry="2" />
<text  x="801.83" y="113.5" >KSPSolve</text>
</g>
<g >
<title>PCApply (612 us, 0.02%)</title><rect x="1013.9" y="167" width="0.1" height="15.0" fill="rgb(0,0,0)" rx="2" ry="2" />
<text  x="1016.86" y="177.5" ></text>
</g>
<g >
<title>Log_Event_subkernel2_cell_to__cell_integral_otherwise (8,271 us, 0.22%)</title><rect x="1102.0" y="183" width="2.6" height="15.0" fill="rgb(0,0,0)" rx="2" ry="2" />
<text  x="1105.01" y="193.5" ></text>
</g>
<g >
<title>HybridInit (452,222 us, 11.85%)</title><rect x="1014.0" y="119" width="139.9" height="15.0" fill="rgb(0,0,0)" rx="2" ry="2" />
<text  x="1017.05" y="129.5" >HybridInit</text>
</g>
<g >
<title>Log_Event_subkernel1_interior_facet_horiz_top_to__exterior_facet_top_integral_otherwise (1,510 us, 0.04%)</title><rect x="1097.3" y="183" width="0.5" height="15.0" fill="rgb(0,0,0)" rx="2" ry="2" />
<text  x="1100.31" y="193.5" ></text>
</g>
<g >
<title>inv_memcpy (503 us, 0.01%)</title><rect x="1096.7" y="199" width="0.2" height="15.0" fill="rgb(0,0,0)" rx="2" ry="2" />
<text  x="1099.71" y="209.5" ></text>
</g>
<g >
<title>FunctionSpaceData: CreateElement (10,332 us, 0.27%)</title><rect x="310.3" y="135" width="3.2" height="15.0" fill="rgb(0,0,0)" rx="2" ry="2" />
<text  x="313.29" y="145.5" ></text>
</g>
<g >
<title>Parloop_Cells_wrap_form0_cell_integral_otherwise (38,909 us, 1.02%)</title><rect x="1155.2" y="135" width="12.0" height="15.0" fill="rgb(0,0,0)" rx="2" ry="2" />
<text  x="1158.17" y="145.5" ></text>
</g>
<g >
<title>Log_Event_form0_cell_integral_otherwise (2,860 us, 0.07%)</title><rect x="1155.2" y="151" width="0.9" height="15.0" fill="rgb(0,0,0)" rx="2" ry="2" />
<text  x="1158.17" y="161.5" ></text>
</g>
<g >
<title>firedrake.utility_meshes.RectangleMesh (1,809 us, 0.05%)</title><rect x="790.0" y="87" width="0.6" height="15.0" fill="rgb(0,0,0)" rx="2" ry="2" />
<text  x="793.01" y="97.5" ></text>
</g>
<g >
<title>solve_getrs (760 us, 0.02%)</title><rect x="835.8" y="199" width="0.2" height="15.0" fill="rgb(0,0,0)" rx="2" ry="2" />
<text  x="838.81" y="209.5" ></text>
</g>
<g >
<title>firedrake.functionspaceimpl.FunctionSpace.__init__ (444 us, 0.01%)</title><rect x="1189.9" y="199" width="0.1" height="15.0" fill="rgb(0,0,0)" rx="2" ry="2" />
<text  x="1192.86" y="209.5" ></text>
</g>
<g >
<title>pyop2.global_kernel.GlobalKernel.compile (33,508 us, 0.88%)</title><rect x="1142.8" y="183" width="10.4" height="15.0" fill="rgb(0,0,0)" rx="2" ry="2" />
<text  x="1145.83" y="193.5" ></text>
</g>
<g >
<title>pyop2.global_kernel.GlobalKernel.compile (37,471 us, 0.98%)</title><rect x="842.6" y="183" width="11.6" height="15.0" fill="rgb(0,0,0)" rx="2" ry="2" />
<text  x="845.59" y="193.5" ></text>
</g>
<g >
<title>CreateFunctionSpace (1,053 us, 0.03%)</title><rect x="1189.7" y="183" width="0.3" height="15.0" fill="rgb(0,0,0)" rx="2" ry="2" />
<text  x="1192.67" y="193.5" ></text>
</g>
<g >
<title>pyop2.global_kernel.GlobalKernel.compile (36,724 us, 0.96%)</title><rect x="954.7" y="215" width="11.3" height="15.0" fill="rgb(0,0,0)" rx="2" ry="2" />
<text  x="957.68" y="225.5" ></text>
</g>
<g >
<title>firedrake.ufl_expr.derivative (1,019 us, 0.03%)</title><rect x="795.5" y="103" width="0.3" height="15.0" fill="rgb(0,0,0)" rx="2" ry="2" />
<text  x="798.50" y="113.5" ></text>
</g>
<g >
<title>firedrake.mesh._Facets.__init__ (811 us, 0.02%)</title><rect x="314.0" y="151" width="0.3" height="15.0" fill="rgb(0,0,0)" rx="2" ry="2" />
<text  x="317.00" y="161.5" ></text>
</g>
<g >
<title>firedrake.functionspacedata.get_shared_data (2,281 us, 0.06%)</title><rect x="1132.9" y="215" width="0.7" height="15.0" fill="rgb(0,0,0)" rx="2" ry="2" />
<text  x="1135.94" y="225.5" ></text>
</g>
<g >
<title>firedrake.utility_meshes.SquareMesh (1,809 us, 0.05%)</title><rect x="790.0" y="71" width="0.6" height="15.0" fill="rgb(0,0,0)" rx="2" ry="2" />
<text  x="793.01" y="81.5" ></text>
</g>
<g >
<title>firedrake.formmanipulation.ExtractSubBlock.split (3,203 us, 0.08%)</title><rect x="1189.0" y="151" width="1.0" height="15.0" fill="rgb(0,0,0)" rx="2" ry="2" />
<text  x="1192.01" y="161.5" ></text>
</g>
<g >
<title>HybridRHS (150,516 us, 3.94%)</title><rect x="966.0" y="151" width="46.6" height="15.0" fill="rgb(0,0,0)" rx="2" ry="2" />
<text  x="969.04" y="161.5" >Hybr..</text>
</g>
<g >
<title>Parloop_Cells_wrap_wrap_slate_loopy_knl_14 (68,033 us, 1.78%)</title><rect x="833.1" y="167" width="21.1" height="15.0" fill="rgb(0,0,0)" rx="2" ry="2" />
<text  x="836.14" y="177.5" ></text>
</g>
<g >
<title>firedrake.variational_solver.NonlinearVariationalSolver.solve (1,266,265 us, 33.18%)</title><rect x="798.5" y="71" width="391.5" height="15.0" fill="rgb(0,0,0)" rx="2" ry="2" />
<text  x="801.48" y="81.5" >firedrake.variational_solver.NonlinearVariational..</text>
</g>
<g >
<title>firedrake.mesh.ExtrudedMeshTopology.__init__ (719 us, 0.02%)</title><rect x="306.2" y="87" width="0.2" height="15.0" fill="rgb(0,0,0)" rx="2" ry="2" />
<text  x="309.21" y="97.5" ></text>
</g>
<g >
<title>all (3,816,423 us, 100%)</title><rect x="10.0" y="39" width="1180.0" height="15.0" fill="rgb(0,0,0)" rx="2" ry="2" />
<text  x="13.00" y="49.5" ></text>
</g>
<g >
<title>Parloop_Cells_wrap_pyop2_kernel_uniform_extrusion (38,639 us, 1.01%)</title><rect x="292.3" y="119" width="12.0" height="15.0" fill="rgb(0,0,0)" rx="2" ry="2" />
<text  x="295.33" y="129.5" ></text>
</g>
<g >
<title>Log_Event_subkernel5_interior_facet_horiz_top_to__exterior_facet_top_integral_otherwise (1,420 us, 0.04%)</title><rect x="994.9" y="199" width="0.4" height="15.0" fill="rgb(0,0,0)" rx="2" ry="2" />
<text  x="997.87" y="209.5" ></text>
</g>
<g >
<title>Parloop_Cells_wrap_par_loop_kernel (33,418 us, 0.88%)</title><rect x="822.8" y="199" width="10.3" height="15.0" fill="rgb(0,0,0)" rx="2" ry="2" />
<text  x="825.81" y="209.5" ></text>
</g>
<g >
<title>ParLoopExecute (106,687 us, 2.80%)</title><rect x="1087.5" y="151" width="33.0" height="15.0" fill="rgb(0,0,0)" rx="2" ry="2" />
<text  x="1090.50" y="161.5" >Pa..</text>
</g>
<g >
<title>inv_getri (8,950 us, 0.23%)</title><rect x="1093.9" y="199" width="2.8" height="15.0" fill="rgb(0,0,0)" rx="2" ry="2" />
<text  x="1096.95" y="209.5" ></text>
</g>
<g >
<title>solve_getrf (9,986 us, 0.26%)</title><rect x="929.0" y="215" width="3.1" height="15.0" fill="rgb(0,0,0)" rx="2" ry="2" />
<text  x="932.01" y="225.5" ></text>
</g>
<g >
<title>firedrake.extrusion_utils.make_extruded_coords (70,791 us, 1.85%)</title><rect x="282.4" y="87" width="21.9" height="15.0" fill="rgb(0,0,0)" rx="2" ry="2" />
<text  x="285.39" y="97.5" ></text>
</g>
<g >
<title>pyop2.global_kernel.GlobalKernel.compile (38,639 us, 1.01%)</title><rect x="292.3" y="135" width="12.0" height="15.0" fill="rgb(0,0,0)" rx="2" ry="2" />
<text  x="295.33" y="145.5" ></text>
</g>
<g >
<title>solve_memcpy (587 us, 0.02%)</title><rect x="932.6" y="215" width="0.2" height="15.0" fill="rgb(0,0,0)" rx="2" ry="2" />
<text  x="935.60" y="225.5" ></text>
</g>
<g >
<title>Log_Event_subkernel15_cell_to__cell_integral_otherwise (3,099 us, 0.08%)</title><rect x="836.0" y="183" width="1.0" height="15.0" fill="rgb(0,0,0)" rx="2" ry="2" />
<text  x="839.04" y="193.5" ></text>
</g>
<g >
<title>Mesh: numbering (721 us, 0.02%)</title><rect x="314.6" y="87" width="0.2" height="15.0" fill="rgb(0,0,0)" rx="2" ry="2" />
<text  x="317.56" y="97.5" ></text>
</g>
<g >
<title>inv_getrf (4,645 us, 0.12%)</title><rect x="925.8" y="215" width="1.5" height="15.0" fill="rgb(0,0,0)" rx="2" ry="2" />
<text  x="928.83" y="225.5" ></text>
</g>
<g >
<title>firedrake.functionspacedata.get_shared_data (7,247 us, 0.19%)</title><rect x="1020.5" y="167" width="2.2" height="15.0" fill="rgb(0,0,0)" rx="2" ry="2" />
<text  x="1023.46" y="177.5" ></text>
</g>
<g >
<title>Log_Event_slate_loopy_knl_14 (6,548 us, 0.17%)</title><rect x="834.0" y="183" width="2.0" height="15.0" fill="rgb(0,0,0)" rx="2" ry="2" />
<text  x="837.02" y="193.5" ></text>
</g>
<g >
<title>SNESFunctionEval (116,852 us, 3.06%)</title><rect x="1153.9" y="103" width="36.1" height="15.0" fill="rgb(0,0,0)" rx="2" ry="2" />
<text  x="1156.87" y="113.5" >SN..</text>
</g>
<g >
<title>Log_Event_slate_loopy_knl_4 (9,043 us, 0.24%)</title><rect x="991.6" y="199" width="2.8" height="15.0" fill="rgb(0,0,0)" rx="2" ry="2" />
<text  x="994.62" y="209.5" ></text>
</g>
<g >
<title>ParLoopExecute (33,418 us, 0.88%)</title><rect x="822.8" y="183" width="10.3" height="15.0" fill="rgb(0,0,0)" rx="2" ry="2" />
<text  x="825.81" y="193.5" ></text>
</g>
<g >
<title>firedrake.functionspace.MixedFunctionSpace (3,318 us, 0.09%)</title><rect x="1019.4" y="151" width="1.1" height="15.0" fill="rgb(0,0,0)" rx="2" ry="2" />
<text  x="1022.43" y="161.5" ></text>
</g>
<g >
<title>firedrake.functionspacedata.FunctionSpaceData.boundary_nodes (467 us, 0.01%)</title><rect x="1120.5" y="167" width="0.1" height="15.0" fill="rgb(0,0,0)" rx="2" ry="2" />
<text  x="1123.49" y="177.5" ></text>
</g>
<g >
<title>firedrake.variational_solver.NonlinearVariationalSolver.__init__ (8,623 us, 0.23%)</title><rect x="795.8" y="71" width="2.7" height="15.0" fill="rgb(0,0,0)" rx="2" ry="2" />
<text  x="798.82" y="81.5" ></text>
</g>
<g >
<title>firedrake.__init__ (1,535,015 us, 40.22%)</title><rect x="315.0" y="71" width="474.6" height="15.0" fill="rgb(0,0,0)" rx="2" ry="2" />
<text  x="317.98" y="81.5" >firedrake.__init__</text>
</g>
<g >
<title>firedrake.ufl_expr.action (4,196 us, 0.11%)</title><rect x="796.2" y="119" width="1.3" height="15.0" fill="rgb(0,0,0)" rx="2" ry="2" />
<text  x="799.24" y="129.5" ></text>
</g>
<g >
<title>firedrake.formmanipulation.ExtractSubBlock.split (13,276 us, 0.35%)</title><rect x="1129.8" y="151" width="4.1" height="15.0" fill="rgb(0,0,0)" rx="2" ry="2" />
<text  x="1132.82" y="161.5" ></text>
</g>
<g >
<title>solve_getrf (5,041 us, 0.13%)</title><rect x="834.2" y="199" width="1.6" height="15.0" fill="rgb(0,0,0)" rx="2" ry="2" />
<text  x="837.25" y="209.5" ></text>
</g>
<g >
<title>Log_Event_subkernel17_interior_facet_horiz_bottom_to__exterior_facet_bottom_integral_otherwise (1,464 us, 0.04%)</title><rect x="838.0" y="183" width="0.5" height="15.0" fill="rgb(0,0,0)" rx="2" ry="2" />
<text  x="841.03" y="193.5" ></text>
</g>
<g >
<title>firedrake.function.Function.split (1,019 us, 0.03%)</title><rect x="795.5" y="119" width="0.3" height="15.0" fill="rgb(0,0,0)" rx="2" ry="2" />
<text  x="798.50" y="129.5" ></text>
</g>
<g >
<title>CreateExtMesh (78,944 us, 2.07%)</title><rect x="282.2" y="71" width="24.4" height="15.0" fill="rgb(0,0,0)" rx="2" ry="2" />
<text  x="285.21" y="81.5" >C..</text>
</g>
<g >
<title>PCSetUp (452,222 us, 11.85%)</title><rect x="1014.0" y="103" width="139.9" height="15.0" fill="rgb(0,0,0)" rx="2" ry="2" />
<text  x="1017.05" y="113.5" >PCSetUp</text>
</g>
<g >
<title>firedrake.formmanipulation.split_form (13,276 us, 0.35%)</title><rect x="1129.8" y="135" width="4.1" height="15.0" fill="rgb(0,0,0)" rx="2" ry="2" />
<text  x="1132.82" y="145.5" ></text>
</g>
<g >
<title>HybridBreak (44,153 us, 1.16%)</title><rect x="952.4" y="151" width="13.6" height="15.0" fill="rgb(0,0,0)" rx="2" ry="2" />
<text  x="955.39" y="161.5" ></text>
</g>
<g >
<title>firedrake.functionspaceimpl.FunctionSpace.__init__ (1,520 us, 0.04%)</title><rect x="1019.8" y="183" width="0.5" height="15.0" fill="rgb(0,0,0)" rx="2" ry="2" />
<text  x="1022.83" y="193.5" ></text>
</g>
<g >
<title>CreateMesh (1,706 us, 0.04%)</title><rect x="314.3" y="71" width="0.5" height="15.0" fill="rgb(0,0,0)" rx="2" ry="2" />
<text  x="317.25" y="81.5" ></text>
</g>
<g >
<title>firedrake.functionspaceimpl.FunctionSpace.__init__ (532 us, 0.01%)</title><rect x="1020.3" y="167" width="0.2" height="15.0" fill="rgb(0,0,0)" rx="2" ry="2" />
<text  x="1023.30" y="177.5" ></text>
</g>
<g >
<title>firedrake.mesh.MeshTopology._facets (2,479 us, 0.06%)</title><rect x="313.5" y="135" width="0.8" height="15.0" fill="rgb(0,0,0)" rx="2" ry="2" />
<text  x="316.48" y="145.5" ></text>
</g>
<g >
<title>SCBackSub (496,623 us, 13.01%)</title><rect x="798.8" y="135" width="153.6" height="15.0" fill="rgb(0,0,0)" rx="2" ry="2" />
<text  x="801.83" y="145.5" >SCBackSub</text>
</g>
<g >
<title>firedrake.mesh._from_cell_list (472 us, 0.01%)</title><rect x="790.4" y="103" width="0.2" height="15.0" fill="rgb(0,0,0)" rx="2" ry="2" />
<text  x="793.43" y="113.5" ></text>
</g>
<g >
<title>Log_Event_subkernel6_cell_to__cell_integral_otherwise (8,110 us, 0.21%)</title><rect x="999.4" y="199" width="2.5" height="15.0" fill="rgb(0,0,0)" rx="2" ry="2" />
<text  x="1002.44" y="209.5" ></text>
</g>
<g >
<title>inv_getrf (7,370 us, 0.19%)</title><rect x="1091.7" y="199" width="2.2" height="15.0" fill="rgb(0,0,0)" rx="2" ry="2" />
<text  x="1094.67" y="209.5" ></text>
</g>
<g >
<title>ParLoopExecute (39,755 us, 1.04%)</title><rect x="292.0" y="103" width="12.3" height="15.0" fill="rgb(0,0,0)" rx="2" ry="2" />
<text  x="294.99" y="113.5" ></text>
</g>
<g >
<title>Log_Event_subkernel13_interior_facet_vert_to__exterior_facet_vert_integral_otherwise (11,865 us, 0.31%)</title><rect x="935.7" y="199" width="3.7" height="15.0" fill="rgb(0,0,0)" rx="2" ry="2" />
<text  x="938.74" y="209.5" ></text>
</g>
<g >
<title>inv_getri (5,635 us, 0.15%)</title><rect x="927.3" y="215" width="1.7" height="15.0" fill="rgb(0,0,0)" rx="2" ry="2" />
<text  x="930.27" y="225.5" ></text>
</g>
<g >
<title>Log_Event_subkernel13_interior_facet_horiz_bottom_to__exterior_facet_bottom_integral_otherwise (1,512 us, 0.04%)</title><rect x="934.8" y="199" width="0.5" height="15.0" fill="rgb(0,0,0)" rx="2" ry="2" />
<text  x="937.81" y="209.5" ></text>
</g>
<g >
<title>firedrake (3,816,423 us, 100.00%)</title><rect x="10.0" y="55" width="1180.0" height="15.0" fill="rgb(0,0,0)" rx="2" ry="2" />
<text  x="13.00" y="65.5" >firedrake</text>
</g>
<g >
<title>ParLoopExecute (68,033 us, 1.78%)</title><rect x="833.1" y="151" width="21.1" height="15.0" fill="rgb(0,0,0)" rx="2" ry="2" />
<text  x="836.14" y="161.5" ></text>
</g>
<g >
<title>firedrake.functionspacedata.get_shared_data (22,330 us, 0.59%)</title><rect x="307.3" y="103" width="7.0" height="15.0" fill="rgb(0,0,0)" rx="2" ry="2" />
<text  x="310.35" y="113.5" ></text>
</g>
<g >
<title>firedrake.parloops.par_loop (39,975 us, 1.05%)</title><rect x="820.8" y="167" width="12.3" height="15.0" fill="rgb(0,0,0)" rx="2" ry="2" />
<text  x="823.78" y="177.5" ></text>
</g>
<g >
<title>firedrake.functionspacedata.get_shared_data (1,520 us, 0.04%)</title><rect x="1019.8" y="199" width="0.5" height="15.0" fill="rgb(0,0,0)" rx="2" ry="2" />
<text  x="1022.83" y="209.5" ></text>
</g>
<g >
<title>firedrake.ufl_expr.adjoint (3,055 us, 0.08%)</title><rect x="797.5" y="119" width="1.0" height="15.0" fill="rgb(0,0,0)" rx="2" ry="2" />
<text  x="800.54" y="129.5" ></text>
</g>
<g >
<title>firedrake.parloops.par_loop (43,549 us, 1.14%)</title><rect x="952.6" y="167" width="13.4" height="15.0" fill="rgb(0,0,0)" rx="2" ry="2" />
<text  x="955.57" y="177.5" ></text>
</g>
<g >
<title>HybridOperatorAssembly (316,730 us, 8.30%)</title><rect x="1022.7" y="135" width="97.9" height="15.0" fill="rgb(0,0,0)" rx="2" ry="2" />
<text  x="1025.70" y="145.5" >HybridOper..</text>
</g>
<g >
<title>firedrake.formmanipulation.ExtractSubBlock.argument (1,053 us, 0.03%)</title><rect x="1189.7" y="167" width="0.3" height="15.0" fill="rgb(0,0,0)" rx="2" ry="2" />
<text  x="1192.67" y="177.5" ></text>
</g>
<g >
<title>firedrake.functionspacedata.get_shared_data (6,252 us, 0.16%)</title><rect x="304.3" y="135" width="1.9" height="15.0" fill="rgb(0,0,0)" rx="2" ry="2" />
<text  x="307.28" y="145.5" ></text>
</g>
<g >
<title>firedrake.functionspaceimpl.FunctionSpace.__init__ (7,247 us, 0.19%)</title><rect x="1020.5" y="151" width="2.2" height="15.0" fill="rgb(0,0,0)" rx="2" ry="2" />
<text  x="1023.46" y="161.5" ></text>
</g>
<g >
<title>firedrake.function.Function.split (458 us, 0.01%)</title><rect x="952.2" y="167" width="0.2" height="15.0" fill="rgb(0,0,0)" rx="2" ry="2" />
<text  x="955.24" y="177.5" ></text>
</g>
<g >
<title>firedrake.variational_solver.LinearVariationalProblem.__init__ (16,962 us, 0.44%)</title><rect x="790.6" y="71" width="5.2" height="15.0" fill="rgb(0,0,0)" rx="2" ry="2" />
<text  x="793.57" y="81.5" ></text>
</g>
<g >
<title>CreateSparsity (22,930 us, 0.60%)</title><rect x="1120.8" y="151" width="7.1" height="15.0" fill="rgb(0,0,0)" rx="2" ry="2" />
<text  x="1123.82" y="161.5" ></text>
</g>
</g>
</svg>
