<?xml version="1.0" standalone="no"?>
<!DOCTYPE svg PUBLIC "-//W3C//DTD SVG 1.1//EN" "http://www.w3.org/Graphics/SVG/1.1/DTD/svg11.dtd">
<svg version="1.1" width="1200" height="299" onload="init(evt)" viewBox="0 0 1200 299" xmlns="http://www.w3.org/2000/svg" xmlns:xlink="http://www.w3.org/1999/xlink">
<!-- Flame graph stack visualization. See https://github.com/brendangregg/FlameGraph for latest version, and http://www.brendangregg.com/flamegraphs.html for examples. -->
<!-- NOTES:  -->
<defs>
	<linearGradient id="background" y1="0" y2="1" x1="0" x2="0" >
		<stop stop-color="#eeeeee" offset="5%" />
		<stop stop-color="#eeeeb0" offset="95%" />
	</linearGradient>
</defs>
<style type="text/css">
	text { font-family:Verdana; font-size:13px; fill:rgb(0,0,0); }
	#search, #ignorecase { opacity:0.1; cursor:pointer; }
	#search:hover, #search.show, #ignorecase:hover, #ignorecase.show { opacity:1; }
	#subtitle { text-anchor:middle; font-color:rgb(160,160,160); }
	#title { text-anchor:middle; font-size:18px}
	#unzoom { cursor:pointer; }
	#frames > *:hover { stroke:black; stroke-width:0.5; cursor:pointer; }
	.hide { display:none; }
	.parent { opacity:0.5; }
</style>
<script type="text/ecmascript">
<![CDATA[
	"use strict";
	var details, searchbtn, unzoombtn, matchedtxt, svg, searching, currentSearchTerm, ignorecase, ignorecaseBtn;
	function init(evt) {
		details = document.getElementById("details").firstChild;
		searchbtn = document.getElementById("search");
		ignorecaseBtn = document.getElementById("ignorecase");
		unzoombtn = document.getElementById("unzoom");
		matchedtxt = document.getElementById("matched");
		svg = document.getElementsByTagName("svg")[0];
		searching = 0;
		currentSearchTerm = null;

		// use GET parameters to restore a flamegraphs state.
		var params = get_params();
		if (params.x && params.y)
			zoom(find_group(document.querySelector('[x="' + params.x + '"][y="' + params.y + '"]')));
                if (params.s) search(params.s);
	}

	// event listeners
	window.addEventListener("click", function(e) {
		var target = find_group(e.target);
		if (target) {
			if (target.nodeName == "a") {
				if (e.ctrlKey === false) return;
				e.preventDefault();
			}
			if (target.classList.contains("parent")) unzoom();
			zoom(target);
			if (!document.querySelector('.parent')) {
				clearzoom();
				return;
			}

			// set parameters for zoom state
			var el = target.querySelector("rect");
			if (el && el.attributes && el.attributes.y && el.attributes._orig_x) {
				var params = get_params()
				params.x = el.attributes._orig_x.value;
				params.y = el.attributes.y.value;
				history.replaceState(null, null, parse_params(params));
			}
		}
		else if (e.target.id == "unzoom") clearzoom();
		else if (e.target.id == "search") search_prompt();
		else if (e.target.id == "ignorecase") toggle_ignorecase();
	}, false)

	// mouse-over for info
	// show
	window.addEventListener("mouseover", function(e) {
		var target = find_group(e.target);
		if (target) details.nodeValue = "Function: " + g_to_text(target);
	}, false)

	// clear
	window.addEventListener("mouseout", function(e) {
		var target = find_group(e.target);
		if (target) details.nodeValue = ' ';
	}, false)

	// ctrl-F for search
	// ctrl-I to toggle case-sensitive search
	window.addEventListener("keydown",function (e) {
		if (e.keyCode === 114 || (e.ctrlKey && e.keyCode === 70)) {
			e.preventDefault();
			search_prompt();
		}
		else if (e.ctrlKey && e.keyCode === 73) {
			e.preventDefault();
			toggle_ignorecase();
		}
	}, false)

	// functions
	function get_params() {
		var params = {};
		var paramsarr = window.location.search.substr(1).split('&');
		for (var i = 0; i < paramsarr.length; ++i) {
			var tmp = paramsarr[i].split("=");
			if (!tmp[0] || !tmp[1]) continue;
			params[tmp[0]]  = decodeURIComponent(tmp[1]);
		}
		return params;
	}
	function parse_params(params) {
		var uri = "?";
		for (var key in params) {
			uri += key + '=' + encodeURIComponent(params[key]) + '&';
		}
		if (uri.slice(-1) == "&")
			uri = uri.substring(0, uri.length - 1);
		if (uri == '?')
			uri = window.location.href.split('?')[0];
		return uri;
	}
	function find_child(node, selector) {
		var children = node.querySelectorAll(selector);
		if (children.length) return children[0];
	}
	function find_group(node) {
		var parent = node.parentElement;
		if (!parent) return;
		if (parent.id == "frames") return node;
		return find_group(parent);
	}
	function orig_save(e, attr, val) {
		if (e.attributes["_orig_" + attr] != undefined) return;
		if (e.attributes[attr] == undefined) return;
		if (val == undefined) val = e.attributes[attr].value;
		e.setAttribute("_orig_" + attr, val);
	}
	function orig_load(e, attr) {
		if (e.attributes["_orig_"+attr] == undefined) return;
		e.attributes[attr].value = e.attributes["_orig_" + attr].value;
		e.removeAttribute("_orig_"+attr);
	}
	function g_to_text(e) {
		var text = find_child(e, "title").firstChild.nodeValue;
		return (text)
	}
	function g_to_func(e) {
		var func = g_to_text(e);
		// if there's any manipulation we want to do to the function
		// name before it's searched, do it here before returning.
		return (func);
	}
	function update_text(e) {
		var r = find_child(e, "rect");
		var t = find_child(e, "text");
		var w = parseFloat(r.attributes.width.value) -3;
		var txt = find_child(e, "title").textContent.replace(/\([^(]*\)$/,"");
		t.attributes.x.value = parseFloat(r.attributes.x.value) + 3;

		// Smaller than this size won't fit anything
		if (w < 2 * 13 * 0.59) {
			t.textContent = "";
			return;
		}

		t.textContent = txt;
		// Fit in full text width
		if (/^ *$/.test(txt) || t.getSubStringLength(0, txt.length) < w)
			return;

		for (var x = txt.length - 2; x > 0; x--) {
			if (t.getSubStringLength(0, x + 2) <= w) {
				t.textContent = txt.substring(0, x) + "..";
				return;
			}
		}
		t.textContent = "";
	}

	// zoom
	function zoom_reset(e) {
		if (e.attributes != undefined) {
			orig_load(e, "x");
			orig_load(e, "width");
		}
		if (e.childNodes == undefined) return;
		for (var i = 0, c = e.childNodes; i < c.length; i++) {
			zoom_reset(c[i]);
		}
	}
	function zoom_child(e, x, ratio) {
		if (e.attributes != undefined) {
			if (e.attributes.x != undefined) {
				orig_save(e, "x");
				e.attributes.x.value = (parseFloat(e.attributes.x.value) - x - 10) * ratio + 10;
				if (e.tagName == "text")
					e.attributes.x.value = find_child(e.parentNode, "rect[x]").attributes.x.value + 3;
			}
			if (e.attributes.width != undefined) {
				orig_save(e, "width");
				e.attributes.width.value = parseFloat(e.attributes.width.value) * ratio;
			}
		}

		if (e.childNodes == undefined) return;
		for (var i = 0, c = e.childNodes; i < c.length; i++) {
			zoom_child(c[i], x - 10, ratio);
		}
	}
	function zoom_parent(e) {
		if (e.attributes) {
			if (e.attributes.x != undefined) {
				orig_save(e, "x");
				e.attributes.x.value = 10;
			}
			if (e.attributes.width != undefined) {
				orig_save(e, "width");
				e.attributes.width.value = parseInt(svg.width.baseVal.value) - (10 * 2);
			}
		}
		if (e.childNodes == undefined) return;
		for (var i = 0, c = e.childNodes; i < c.length; i++) {
			zoom_parent(c[i]);
		}
	}
	function zoom(node) {
		var attr = find_child(node, "rect").attributes;
		var width = parseFloat(attr.width.value);
		var xmin = parseFloat(attr.x.value);
		var xmax = parseFloat(xmin + width);
		var ymin = parseFloat(attr.y.value);
		var ratio = (svg.width.baseVal.value - 2 * 10) / width;

		// XXX: Workaround for JavaScript float issues (fix me)
		var fudge = 0.0001;

		unzoombtn.classList.remove("hide");

		var el = document.getElementById("frames").children;
		for (var i = 0; i < el.length; i++) {
			var e = el[i];
			var a = find_child(e, "rect").attributes;
			var ex = parseFloat(a.x.value);
			var ew = parseFloat(a.width.value);
			var upstack;
			// Is it an ancestor
			if (1 == 0) {
				upstack = parseFloat(a.y.value) > ymin;
			} else {
				upstack = parseFloat(a.y.value) < ymin;
			}
			if (upstack) {
				// Direct ancestor
				if (ex <= xmin && (ex+ew+fudge) >= xmax) {
					e.classList.add("parent");
					zoom_parent(e);
					update_text(e);
				}
				// not in current path
				else
					e.classList.add("hide");
			}
			// Children maybe
			else {
				// no common path
				if (ex < xmin || ex + fudge >= xmax) {
					e.classList.add("hide");
				}
				else {
					zoom_child(e, xmin, ratio);
					update_text(e);
				}
			}
		}
		search();
	}
	function unzoom() {
		unzoombtn.classList.add("hide");
		var el = document.getElementById("frames").children;
		for(var i = 0; i < el.length; i++) {
			el[i].classList.remove("parent");
			el[i].classList.remove("hide");
			zoom_reset(el[i]);
			update_text(el[i]);
		}
		search();
	}
	function clearzoom() {
		unzoom();

		// remove zoom state
		var params = get_params();
		if (params.x) delete params.x;
		if (params.y) delete params.y;
		history.replaceState(null, null, parse_params(params));
	}

	// search
	function toggle_ignorecase() {
		ignorecase = !ignorecase;
		if (ignorecase) {
			ignorecaseBtn.classList.add("show");
		} else {
			ignorecaseBtn.classList.remove("show");
		}
		reset_search();
		search();
	}
	function reset_search() {
		var el = document.querySelectorAll("#frames rect");
		for (var i = 0; i < el.length; i++) {
			orig_load(el[i], "fill")
		}
		var params = get_params();
		delete params.s;
		history.replaceState(null, null, parse_params(params));
	}
	function search_prompt() {
		if (!searching) {
			var term = prompt("Enter a search term (regexp " +
			    "allowed, eg: ^ext4_)"
			    + (ignorecase ? ", ignoring case" : "")
			    + "\nPress Ctrl-i to toggle case sensitivity", "");
			if (term != null) search(term);
		} else {
			reset_search();
			searching = 0;
			currentSearchTerm = null;
			searchbtn.classList.remove("show");
			searchbtn.firstChild.nodeValue = "Search"
			matchedtxt.classList.add("hide");
			matchedtxt.firstChild.nodeValue = ""
		}
	}
	function search(term) {
		if (term) currentSearchTerm = term;

		var re = new RegExp(currentSearchTerm, ignorecase ? 'i' : '');
		var el = document.getElementById("frames").children;
		var matches = new Object();
		var maxwidth = 0;
		for (var i = 0; i < el.length; i++) {
			var e = el[i];
			var func = g_to_func(e);
			var rect = find_child(e, "rect");
			if (func == null || rect == null)
				continue;

			// Save max width. Only works as we have a root frame
			var w = parseFloat(rect.attributes.width.value);
			if (w > maxwidth)
				maxwidth = w;

			if (func.match(re)) {
				// highlight
				var x = parseFloat(rect.attributes.x.value);
				orig_save(rect, "fill");
				rect.attributes.fill.value = "rgb(230,0,230)";

				// remember matches
				if (matches[x] == undefined) {
					matches[x] = w;
				} else {
					if (w > matches[x]) {
						// overwrite with parent
						matches[x] = w;
					}
				}
				searching = 1;
			}
		}
		if (!searching)
			return;
		var params = get_params();
		params.s = currentSearchTerm;
		history.replaceState(null, null, parse_params(params));

		searchbtn.classList.add("show");
		searchbtn.firstChild.nodeValue = "Reset Search";

		// calculate percent matched, excluding vertical overlap
		var count = 0;
		var lastx = -1;
		var lastw = 0;
		var keys = Array();
		for (k in matches) {
			if (matches.hasOwnProperty(k))
				keys.push(k);
		}
		// sort the matched frames by their x location
		// ascending, then width descending
		keys.sort(function(a, b){
			return a - b;
		});
		// Step through frames saving only the biggest bottom-up frames
		// thanks to the sort order. This relies on the tree property
		// where children are always smaller than their parents.
		var fudge = 0.0001;	// JavaScript floating point
		for (var k in keys) {
			var x = parseFloat(keys[k]);
			var w = matches[keys[k]];
			if (x >= lastx + lastw - fudge) {
				count += w;
				lastx = x;
				lastw = w;
			}
		}
		// display matched percent
		matchedtxt.classList.remove("hide");
		var pct = 100 * count / maxwidth;
		if (pct != 100) pct = pct.toFixed(1)
		matchedtxt.firstChild.nodeValue = "Matched: " + pct + "%";
	}
]]>
</script>
<rect x="0.0" y="0" width="1200.0" height="299.0" fill="url(#background)"  />
<text id="title" x="600.00" y="26" >Firedrake example</text>
<text id="details" x="10.00" y="281" > </text>
<text id="unzoom" x="10.00" y="26" class="hide">Reset Zoom</text>
<text id="search" x="1090.00" y="26" >Search</text>
<text id="ignorecase" x="1174.00" y="26" >ic</text>
<text id="matched" x="1090.00" y="281" > </text>
<g id="frames">
<g >
<title>HybridBreak (900,136 us, 0.38%)</title><rect x="695.6" y="151" width="4.4" height="15.0" fill="rgb(0,0,0)" rx="2" ry="2" />
<text  x="698.55" y="161.5" ></text>
</g>
<g >
<title>ParLoopExecute (21,043,638 us, 8.85%)</title><rect x="705.9" y="167" width="104.4" height="15.0" fill="rgb(0,0,0)" rx="2" ry="2" />
<text  x="708.87" y="177.5" >ParLoopExec..</text>
</g>
<g >
<title>firedrake.assemble.assemble (12,970,292 us, 5.46%)</title><rect x="27.9" y="71" width="64.4" height="15.0" fill="rgb(0,0,0)" rx="2" ry="2" />
<text  x="30.89" y="81.5" >firedr..</text>
</g>
<g >
<title>Log_Event_slate_loopy_knl_11 (34,126 us, 0.01%)</title><rect x="561.2" y="199" width="0.2" height="15.0" fill="rgb(0,0,0)" rx="2" ry="2" />
<text  x="564.21" y="209.5" ></text>
</g>
<g >
<title>pyop2.global_kernel.GlobalKernel.compile (3,302,193 us, 1.39%)</title><rect x="277.0" y="151" width="16.4" height="15.0" fill="rgb(0,0,0)" rx="2" ry="2" />
<text  x="279.97" y="161.5" ></text>
</g>
<g >
<title>pyop2.global_kernel.GlobalKernel.compile (21,006,335 us, 8.84%)</title><rect x="706.1" y="199" width="104.2" height="15.0" fill="rgb(0,0,0)" rx="2" ry="2" />
<text  x="709.06" y="209.5" >pyop2.globa..</text>
</g>
<g >
<title>CreateExtMesh (941,484 us, 0.40%)</title><rect x="15.5" y="71" width="4.7" height="15.0" fill="rgb(0,0,0)" rx="2" ry="2" />
<text  x="18.54" y="81.5" ></text>
</g>
<g >
<title>HybridProject (897,271 us, 0.38%)</title><rect x="462.1" y="151" width="4.5" height="15.0" fill="rgb(0,0,0)" rx="2" ry="2" />
<text  x="465.14" y="161.5" ></text>
</g>
<g >
<title>pyop2.global_kernel.GlobalKernel.compile (12,541,174 us, 5.28%)</title><rect x="335.5" y="151" width="62.2" height="15.0" fill="rgb(0,0,0)" rx="2" ry="2" />
<text  x="338.46" y="161.5" >pyop2...</text>
</g>
<g >
<title>firedrake.tsfc_interface.compile_form (3,023,967 us, 1.27%)</title><rect x="669.6" y="167" width="15.0" height="15.0" fill="rgb(0,0,0)" rx="2" ry="2" />
<text  x="672.57" y="177.5" ></text>
</g>
<g >
<title>firedrake.matrix_free.operators.ImplicitMatrixContext.mult (9,877,961 us, 4.16%)</title><rect x="407.2" y="135" width="49.0" height="15.0" fill="rgb(0,0,0)" rx="2" ry="2" />
<text  x="410.16" y="145.5" >fire..</text>
</g>
<g >
<title>Log_Event_subkernel8_interior_facet_horiz_bottom_to__exterior_facet_bottom_integral_otherwise (27,119 us, 0.01%)</title><rect x="835.6" y="231" width="0.1" height="15.0" fill="rgb(0,0,0)" rx="2" ry="2" />
<text  x="838.55" y="241.5" ></text>
</g>
<g >
<title>RecoverFirstElim (26,393,064 us, 11.10%)</title><rect x="553.6" y="151" width="131.0" height="15.0" fill="rgb(0,0,0)" rx="2" ry="2" />
<text  x="556.55" y="161.5" >RecoverFirstElim</text>
</g>
<g >
<title>ParLoopExecute (897,271 us, 0.38%)</title><rect x="462.1" y="183" width="4.5" height="15.0" fill="rgb(0,0,0)" rx="2" ry="2" />
<text  x="465.14" y="193.5" ></text>
</g>
<g >
<title>firedrake.tsfc_interface.compile_form (3,400,992 us, 1.43%)</title><rect x="966.4" y="199" width="16.9" height="15.0" fill="rgb(0,0,0)" rx="2" ry="2" />
<text  x="969.41" y="209.5" ></text>
</g>
<g >
<title>CreateFunctionSpace (24,901 us, 0.01%)</title><rect x="20.2" y="71" width="0.1" height="15.0" fill="rgb(0,0,0)" rx="2" ry="2" />
<text  x="23.21" y="81.5" ></text>
</g>
<g >
<title>Parloop_Cells_wrap_form_interior_facet_horiz_integral_otherwise (1,522,951 us, 0.64%)</title><rect x="44.1" y="103" width="7.5" height="15.0" fill="rgb(0,0,0)" rx="2" ry="2" />
<text  x="47.07" y="113.5" ></text>
</g>
<g >
<title>pyop2.global_kernel.GlobalKernel.compile (359,079 us, 0.15%)</title><rect x="81.4" y="151" width="1.7" height="15.0" fill="rgb(0,0,0)" rx="2" ry="2" />
<text  x="84.35" y="161.5" ></text>
</g>
<g >
<title>pyop2.global_kernel.GlobalKernel.compile (25,905,853 us, 10.90%)</title><rect x="993.4" y="199" width="128.6" height="15.0" fill="rgb(0,0,0)" rx="2" ry="2" />
<text  x="996.39" y="209.5" >pyop2.global_k..</text>
</g>
<g >
<title>firedrake.function.Function.project (48,985,849 us, 20.61%)</title><rect x="92.3" y="71" width="243.2" height="15.0" fill="rgb(0,0,0)" rx="2" ry="2" />
<text  x="95.28" y="81.5" >firedrake.function.Function.p..</text>
</g>
<g >
<title>pyop2.global_kernel.GlobalKernel.compile (1,522,951 us, 0.64%)</title><rect x="44.1" y="119" width="7.5" height="15.0" fill="rgb(0,0,0)" rx="2" ry="2" />
<text  x="47.07" y="129.5" ></text>
</g>
<g >
<title>pyop2.global_kernel.GlobalKernel.compile (1,444,292 us, 0.61%)</title><rect x="115.3" y="135" width="7.2" height="15.0" fill="rgb(0,0,0)" rx="2" ry="2" />
<text  x="118.35" y="145.5" ></text>
</g>
<g >
<title>Parloop_IntFacets_wrap_form_interior_facet_vert_integral_otherwise (2,920,046 us, 1.23%)</title><rect x="65.0" y="103" width="14.5" height="15.0" fill="rgb(0,0,0)" rx="2" ry="2" />
<text  x="68.02" y="113.5" ></text>
</g>
<g >
<title>HybridInit (751,273 us, 0.32%)</title><rect x="1137.8" y="119" width="3.7" height="15.0" fill="rgb(0,0,0)" rx="2" ry="2" />
<text  x="1140.75" y="129.5" ></text>
</g>
<g >
<title>ParLoopExecute (27,417,888 us, 11.54%)</title><rect x="830.3" y="199" width="136.1" height="15.0" fill="rgb(0,0,0)" rx="2" ry="2" />
<text  x="833.30" y="209.5" >ParLoopExecute</text>
</g>
<g >
<title>Parloop_Cells_wrap_form0_interior_facet_horiz_integral_otherwise (1,919,713 us, 0.81%)</title><rect x="129.9" y="119" width="9.5" height="15.0" fill="rgb(0,0,0)" rx="2" ry="2" />
<text  x="132.91" y="129.5" ></text>
</g>
<g >
<title>firedrake.norms.norm (14,442,093 us, 6.08%)</title><rect x="335.5" y="87" width="71.7" height="15.0" fill="rgb(0,0,0)" rx="2" ry="2" />
<text  x="338.46" y="97.5" >firedra..</text>
</g>
<g >
<title>solve_memcpy (34,282 us, 0.01%)</title><rect x="833.7" y="247" width="0.2" height="15.0" fill="rgb(0,0,0)" rx="2" ry="2" />
<text  x="836.73" y="257.5" ></text>
</g>
<g >
<title>firedrake.projection.project (48,985,849 us, 20.61%)</title><rect x="92.3" y="87" width="243.2" height="15.0" fill="rgb(0,0,0)" rx="2" ry="2" />
<text  x="95.28" y="97.5" >firedrake.projection.project</text>
</g>
<g >
<title>pyop2.global_kernel.GlobalKernel.compile (3,924,818 us, 1.65%)</title><rect x="429.2" y="183" width="19.5" height="15.0" fill="rgb(0,0,0)" rx="2" ry="2" />
<text  x="432.22" y="193.5" ></text>
</g>
<g >
<title>Log_Event_subkernel10_interior_facet_vert_to__exterior_facet_vert_integral_otherwise (280,900 us, 0.12%)</title><rect x="834.2" y="231" width="1.4" height="15.0" fill="rgb(0,0,0)" rx="2" ry="2" />
<text  x="837.16" y="241.5" ></text>
</g>
<g >
<title>Parloop_Cells_wrap_par_loop_kernel (675,653 us, 0.28%)</title><rect x="1138.1" y="167" width="3.4" height="15.0" fill="rgb(0,0,0)" rx="2" ry="2" />
<text  x="1141.13" y="177.5" ></text>
</g>
<g >
<title>firedrake.tsfc_interface.compile_form (1,427,647 us, 0.60%)</title><rect x="1182.9" y="119" width="7.1" height="15.0" fill="rgb(0,0,0)" rx="2" ry="2" />
<text  x="1185.91" y="129.5" ></text>
</g>
<g >
<title>firedrake.__init__ (1,521,191 us, 0.64%)</title><rect x="20.3" y="71" width="7.6" height="15.0" fill="rgb(0,0,0)" rx="2" ry="2" />
<text  x="23.33" y="81.5" ></text>
</g>
<g >
<title>firedrake.tsfc_interface.compile_form (2,297,295 us, 0.97%)</title><rect x="810.3" y="167" width="11.4" height="15.0" fill="rgb(0,0,0)" rx="2" ry="2" />
<text  x="813.34" y="177.5" ></text>
</g>
<g >
<title>ParLoopExecute (15,277,434 us, 6.43%)</title><rect x="92.3" y="103" width="75.8" height="15.0" fill="rgb(0,0,0)" rx="2" ry="2" />
<text  x="95.28" y="113.5" >ParLoop..</text>
</g>
<g >
<title>pyop2.global_kernel.GlobalKernel.compile (1,779,866 us, 0.75%)</title><rect x="248.7" y="151" width="8.9" height="15.0" fill="rgb(0,0,0)" rx="2" ry="2" />
<text  x="251.74" y="161.5" ></text>
</g>
<g >
<title>pyop2.global_kernel.GlobalKernel.compile (4,647,428 us, 1.96%)</title><rect x="92.3" y="135" width="23.0" height="15.0" fill="rgb(0,0,0)" rx="2" ry="2" />
<text  x="95.28" y="145.5" >p..</text>
</g>
<g >
<title>Parloop_Cells_wrap_wrap_slate_loopy_knl_0 (21,043,638 us, 8.85%)</title><rect x="705.9" y="183" width="104.4" height="15.0" fill="rgb(0,0,0)" rx="2" ry="2" />
<text  x="708.87" y="193.5" >Parloop_Cel..</text>
</g>
<g >
<title>ParLoopExecute (909,947 us, 0.38%)</title><rect x="15.7" y="103" width="4.5" height="15.0" fill="rgb(0,0,0)" rx="2" ry="2" />
<text  x="18.69" y="113.5" ></text>
</g>
<g >
<title>firedrake.tsfc_interface.compile_form (1,900,919 us, 0.80%)</title><rect x="397.7" y="119" width="9.5" height="15.0" fill="rgb(0,0,0)" rx="2" ry="2" />
<text  x="400.72" y="129.5" ></text>
</g>
<g >
<title>Parloop_Cells_wrap_form0_cell_integral_otherwise (4,328,070 us, 1.82%)</title><rect x="1141.5" y="135" width="21.5" height="15.0" fill="rgb(0,0,0)" rx="2" ry="2" />
<text  x="1144.48" y="145.5" ></text>
</g>
<g >
<title>pyop2.global_kernel.GlobalKernel.compile (909,947 us, 0.38%)</title><rect x="15.7" y="135" width="4.5" height="15.0" fill="rgb(0,0,0)" rx="2" ry="2" />
<text  x="18.69" y="145.5" ></text>
</g>
<g >
<title>ParLoopExecute (25,985,361 us, 10.93%)</title><rect x="993.0" y="167" width="129.0" height="15.0" fill="rgb(0,0,0)" rx="2" ry="2" />
<text  x="996.00" y="177.5" >ParLoopExecute</text>
</g>
<g >
<title>firedrake.parloops.par_loop (897,271 us, 0.38%)</title><rect x="462.1" y="167" width="4.5" height="15.0" fill="rgb(0,0,0)" rx="2" ry="2" />
<text  x="465.14" y="177.5" ></text>
</g>
<g >
<title>MatMult (9,877,961 us, 4.16%)</title><rect x="407.2" y="119" width="49.0" height="15.0" fill="rgb(0,0,0)" rx="2" ry="2" />
<text  x="410.16" y="129.5" >MatM..</text>
</g>
<g >
<title>Parloop_Cells_wrap_form_exterior_facet_bottom_integral_otherwise (1,845,581 us, 0.78%)</title><rect x="27.9" y="103" width="9.1" height="15.0" fill="rgb(0,0,0)" rx="2" ry="2" />
<text  x="30.89" y="113.5" ></text>
</g>
<g >
<title>pyop2.global_kernel.GlobalKernel.compile (1,975,889 us, 0.83%)</title><rect x="257.6" y="151" width="9.8" height="15.0" fill="rgb(0,0,0)" rx="2" ry="2" />
<text  x="260.58" y="161.5" ></text>
</g>
<g >
<title>pyop2.global_kernel.GlobalKernel.compile (21,791,976 us, 9.17%)</title><rect x="561.4" y="199" width="108.2" height="15.0" fill="rgb(0,0,0)" rx="2" ry="2" />
<text  x="564.38" y="209.5" >pyop2.global..</text>
</g>
<g >
<title>pyop2.global_kernel.GlobalKernel.compile (3,329,571 us, 1.40%)</title><rect x="293.4" y="151" width="16.5" height="15.0" fill="rgb(0,0,0)" rx="2" ry="2" />
<text  x="296.36" y="161.5" ></text>
</g>
<g >
<title>Log_Event_slate_loopy_knl_7 (594,113 us, 0.25%)</title><rect x="830.9" y="231" width="3.0" height="15.0" fill="rgb(0,0,0)" rx="2" ry="2" />
<text  x="833.95" y="241.5" ></text>
</g>
<g >
<title>firedrake.assemble_expressions.assemble_expression (728,321 us, 0.31%)</title><rect x="79.5" y="87" width="3.6" height="15.0" fill="rgb(0,0,0)" rx="2" ry="2" />
<text  x="82.52" y="97.5" ></text>
</g>
<g >
<title>firedrake (237,690,878 us, 100.00%)</title><rect x="10.0" y="55" width="1180.0" height="15.0" fill="rgb(0,0,0)" rx="2" ry="2" />
<text  x="13.00" y="65.5" >firedrake</text>
</g>
<g >
<title>solve_getrs (33,513 us, 0.01%)</title><rect x="833.6" y="247" width="0.1" height="15.0" fill="rgb(0,0,0)" rx="2" ry="2" />
<text  x="836.56" y="257.5" ></text>
</g>
<g >
<title>ParLoopExecute (900,136 us, 0.38%)</title><rect x="695.6" y="183" width="4.4" height="15.0" fill="rgb(0,0,0)" rx="2" ry="2" />
<text  x="698.55" y="193.5" ></text>
</g>
<g >
<title>ParLoopExecute (728,321 us, 0.31%)</title><rect x="79.5" y="119" width="3.6" height="15.0" fill="rgb(0,0,0)" rx="2" ry="2" />
<text  x="82.52" y="129.5" ></text>
</g>
<g >
<title>Parloop_Cells_wrap_wrap_slate_loopy_knl_11 (21,826,102 us, 9.18%)</title><rect x="561.2" y="183" width="108.4" height="15.0" fill="rgb(0,0,0)" rx="2" ry="2" />
<text  x="564.21" y="193.5" >Parloop_Cell..</text>
</g>
<g >
<title>pyop2.global_kernel.GlobalKernel.compile (4,017,037 us, 1.69%)</title><rect x="1163.0" y="151" width="19.9" height="15.0" fill="rgb(0,0,0)" rx="2" ry="2" />
<text  x="1165.97" y="161.5" ></text>
</g>
<g >
<title>Parloop_Cells_wrap_form00_exterior_facet_bottom_integral_otherwise (1,779,866 us, 0.75%)</title><rect x="248.7" y="135" width="8.9" height="15.0" fill="rgb(0,0,0)" rx="2" ry="2" />
<text  x="251.74" y="145.5" ></text>
</g>
<g >
<title>Parloop_Cells_wrap_form0_cell_integral_otherwise (4,443,277 us, 1.87%)</title><rect x="407.2" y="167" width="22.0" height="15.0" fill="rgb(0,0,0)" rx="2" ry="2" />
<text  x="410.16" y="177.5" ></text>
</g>
<g >
<title>PCSetUp (751,273 us, 0.32%)</title><rect x="1137.8" y="103" width="3.7" height="15.0" fill="rgb(0,0,0)" rx="2" ry="2" />
<text  x="1140.75" y="113.5" ></text>
</g>
<g >
<title>SNESSolve (157,689,714 us, 66.34%)</title><rect x="407.2" y="87" width="782.8" height="15.0" fill="rgb(0,0,0)" rx="2" ry="2" />
<text  x="410.16" y="97.5" >SNESSolve</text>
</g>
<g >
<title>pyop2.global_kernel.GlobalKernel.compile (1,929,795 us, 0.81%)</title><rect x="267.4" y="151" width="9.6" height="15.0" fill="rgb(0,0,0)" rx="2" ry="2" />
<text  x="270.39" y="161.5" ></text>
</g>
<g >
<title>inv_getri (24,572 us, 0.01%)</title><rect x="993.3" y="215" width="0.1" height="15.0" fill="rgb(0,0,0)" rx="2" ry="2" />
<text  x="996.27" y="225.5" ></text>
</g>
<g >
<title>Parloop_Cells_wrap_par_loop_kernel (900,136 us, 0.38%)</title><rect x="695.6" y="199" width="4.4" height="15.0" fill="rgb(0,0,0)" rx="2" ry="2" />
<text  x="698.55" y="209.5" ></text>
</g>
<g >
<title>SCBackSub (48,213,780 us, 20.28%)</title><rect x="456.2" y="135" width="239.4" height="15.0" fill="rgb(0,0,0)" rx="2" ry="2" />
<text  x="459.20" y="145.5" >SCBackSub</text>
</g>
<g >
<title>firedrake.tsfc_interface.compile_form (1,509,866 us, 0.64%)</title><rect x="448.7" y="151" width="7.5" height="15.0" fill="rgb(0,0,0)" rx="2" ry="2" />
<text  x="451.70" y="161.5" ></text>
</g>
<g >
<title>PCApply (137,287,726 us, 57.76%)</title><rect x="456.2" y="119" width="681.6" height="15.0" fill="rgb(0,0,0)" rx="2" ry="2" />
<text  x="459.20" y="129.5" >PCApply</text>
</g>
<g >
<title>ParLoopExecute (21,826,102 us, 9.18%)</title><rect x="561.2" y="167" width="108.4" height="15.0" fill="rgb(0,0,0)" rx="2" ry="2" />
<text  x="564.21" y="177.5" >ParLoopExecute</text>
</g>
<g >
<title>ParLoopExecute (675,653 us, 0.28%)</title><rect x="1138.1" y="151" width="3.4" height="15.0" fill="rgb(0,0,0)" rx="2" ry="2" />
<text  x="1141.13" y="161.5" ></text>
</g>
<g >
<title>firedrake.matrix_free.operators.ImplicitMatrixContext.mult (32,541,508 us, 13.69%)</title><rect x="821.7" y="183" width="161.6" height="15.0" fill="rgb(0,0,0)" rx="2" ry="2" />
<text  x="824.75" y="193.5" >firedrake.matrix_fr..</text>
</g>
<g >
<title>PCSetUpOnBlocks (57,275 us, 0.02%)</title><rect x="323.4" y="119" width="0.3" height="15.0" fill="rgb(0,0,0)" rx="2" ry="2" />
<text  x="326.39" y="129.5" ></text>
</g>
<g >
<title>pyop2.global_kernel.GlobalKernel.compile (900,136 us, 0.38%)</title><rect x="695.6" y="215" width="4.4" height="15.0" fill="rgb(0,0,0)" rx="2" ry="2" />
<text  x="698.55" y="225.5" ></text>
</g>
<g >
<title>MatZeroInitial (79,944 us, 0.03%)</title><rect x="310.6" y="135" width="0.4" height="15.0" fill="rgb(0,0,0)" rx="2" ry="2" />
<text  x="313.56" y="145.5" ></text>
</g>
<g >
<title>all (237,690,878 us, 100%)</title><rect x="10.0" y="39" width="1180.0" height="15.0" fill="rgb(0,0,0)" rx="2" ry="2" />
<text  x="13.00" y="49.5" ></text>
</g>
<g >
<title>solve_getrf (526,318 us, 0.22%)</title><rect x="830.9" y="247" width="2.7" height="15.0" fill="rgb(0,0,0)" rx="2" ry="2" />
<text  x="833.95" y="257.5" ></text>
</g>
<g >
<title>firedrake.assemble.assemble (14,442,093 us, 6.08%)</title><rect x="335.5" y="103" width="71.7" height="15.0" fill="rgb(0,0,0)" rx="2" ry="2" />
<text  x="338.46" y="113.5" >firedra..</text>
</g>
<g >
<title>ParLoopExecute (8,368,095 us, 3.52%)</title><rect x="407.2" y="151" width="41.5" height="15.0" fill="rgb(0,0,0)" rx="2" ry="2" />
<text  x="410.16" y="161.5" >Par..</text>
</g>
<g >
<title>Parloop_Cells_wrap_wrap_slate_loopy_knl_7 (27,417,888 us, 11.54%)</title><rect x="830.3" y="215" width="136.1" height="15.0" fill="rgb(0,0,0)" rx="2" ry="2" />
<text  x="833.30" y="225.5" >Parloop_Cells_w..</text>
</g>
<g >
<title>Parloop_Cells_wrap_form1_cell_integral_otherwise (3,924,818 us, 1.65%)</title><rect x="429.2" y="167" width="19.5" height="15.0" fill="rgb(0,0,0)" rx="2" ry="2" />
<text  x="432.22" y="177.5" ></text>
</g>
<g >
<title>Parloop_Cells_wrap_form_exterior_facet_top_integral_otherwise (1,413,571 us, 0.59%)</title><rect x="37.0" y="103" width="7.1" height="15.0" fill="rgb(0,0,0)" rx="2" ry="2" />
<text  x="40.05" y="113.5" ></text>
</g>
<g >
<title>firedrake.tsfc_interface.compile_form (2,374,354 us, 1.00%)</title><rect x="323.7" y="103" width="11.8" height="15.0" fill="rgb(0,0,0)" rx="2" ry="2" />
<text  x="326.68" y="113.5" ></text>
</g>
<g >
<title>SCForwardElim (25,420,030 us, 10.69%)</title><rect x="695.6" y="135" width="126.1" height="15.0" fill="rgb(0,0,0)" rx="2" ry="2" />
<text  x="698.55" y="145.5" >SCForwardElim</text>
</g>
<g >
<title>Parloop_Cells_wrap_par_loop_kernel (897,271 us, 0.38%)</title><rect x="462.1" y="199" width="4.5" height="15.0" fill="rgb(0,0,0)" rx="2" ry="2" />
<text  x="465.14" y="209.5" ></text>
</g>
<g >
<title>Parloop_Cells_wrap_wrap_slate_loopy_knl_18 (17,516,919 us, 7.37%)</title><rect x="466.6" y="167" width="87.0" height="15.0" fill="rgb(0,0,0)" rx="2" ry="2" />
<text  x="469.59" y="177.5" >Parloop_C..</text>
</g>
<g >
<title>Log_Event_inits_wrap_slate_loopy_knl_7 (29,532 us, 0.01%)</title><rect x="830.8" y="231" width="0.1" height="15.0" fill="rgb(0,0,0)" rx="2" ry="2" />
<text  x="833.80" y="241.5" ></text>
</g>
<g >
<title>ParLoopExecute (17,516,919 us, 7.37%)</title><rect x="466.6" y="151" width="87.0" height="15.0" fill="rgb(0,0,0)" rx="2" ry="2" />
<text  x="469.59" y="161.5" >ParLoopEx..</text>
</g>
<g >
<title>pyop2.global_kernel.GlobalKernel.compile (3,094,125 us, 1.30%)</title><rect x="152.8" y="135" width="15.3" height="15.0" fill="rgb(0,0,0)" rx="2" ry="2" />
<text  x="155.76" y="145.5" ></text>
</g>
<g >
<title>Parloop_set_#x7f699c53ff40_wrap_expression_kernel (359,079 us, 0.15%)</title><rect x="81.4" y="135" width="1.7" height="15.0" fill="rgb(0,0,0)" rx="2" ry="2" />
<text  x="84.35" y="145.5" ></text>
</g>
<g >
<title>SNESFunctionEval (9,772,754 us, 4.11%)</title><rect x="1141.5" y="103" width="48.5" height="15.0" fill="rgb(0,0,0)" rx="2" ry="2" />
<text  x="1144.48" y="113.5" >SNES..</text>
</g>
<g >
<title>pyop2.global_kernel.GlobalKernel.compile (1,845,581 us, 0.78%)</title><rect x="27.9" y="119" width="9.1" height="15.0" fill="rgb(0,0,0)" rx="2" ry="2" />
<text  x="30.89" y="129.5" ></text>
</g>
<g >
<title>pyop2.global_kernel.GlobalKernel.compile (897,271 us, 0.38%)</title><rect x="462.1" y="215" width="4.5" height="15.0" fill="rgb(0,0,0)" rx="2" ry="2" />
<text  x="465.14" y="225.5" ></text>
</g>
<g >
<title>firedrake.parloops.par_loop (675,653 us, 0.28%)</title><rect x="1138.1" y="135" width="3.4" height="15.0" fill="rgb(0,0,0)" rx="2" ry="2" />
<text  x="1141.13" y="145.5" ></text>
</g>
<g >
<title>Parloop_Cells_wrap_form00_interior_facet_horiz_integral_otherwise (1,929,795 us, 0.81%)</title><rect x="267.4" y="135" width="9.6" height="15.0" fill="rgb(0,0,0)" rx="2" ry="2" />
<text  x="270.39" y="145.5" ></text>
</g>
<g >
<title>SCSolve (63,653,916 us, 26.78%)</title><rect x="821.7" y="135" width="316.1" height="15.0" fill="rgb(0,0,0)" rx="2" ry="2" />
<text  x="824.75" y="145.5" >SCSolve</text>
</g>
<g >
<title>pyop2.global_kernel.GlobalKernel.compile (4,443,277 us, 1.87%)</title><rect x="407.2" y="183" width="22.0" height="15.0" fill="rgb(0,0,0)" rx="2" ry="2" />
<text  x="410.16" y="193.5" ></text>
</g>
<g >
<title>firedrake.assemble.assemble (31,276,786 us, 13.16%)</title><rect x="168.1" y="103" width="155.3" height="15.0" fill="rgb(0,0,0)" rx="2" ry="2" />
<text  x="171.12" y="113.5" >firedrake.assemble..</text>
</g>
<g >
<title>Parloop_set_#x7f699c53df00_wrap_expression_kernel (369,242 us, 0.16%)</title><rect x="79.5" y="135" width="1.9" height="15.0" fill="rgb(0,0,0)" rx="2" ry="2" />
<text  x="82.52" y="145.5" ></text>
</g>
<g >
<title>pyop2.global_kernel.GlobalKernel.compile (17,516,919 us, 7.37%)</title><rect x="466.6" y="183" width="87.0" height="15.0" fill="rgb(0,0,0)" rx="2" ry="2" />
<text  x="469.59" y="193.5" >pyop2.glo..</text>
</g>
<g >
<title>pyop2.global_kernel.GlobalKernel.compile (2,682,198 us, 1.13%)</title><rect x="139.4" y="135" width="13.4" height="15.0" fill="rgb(0,0,0)" rx="2" ry="2" />
<text  x="142.44" y="145.5" ></text>
</g>
<g >
<title>Parloop_Cells_wrap_form0_exterior_facet_top_integral_otherwise (1,489,678 us, 0.63%)</title><rect x="122.5" y="119" width="7.4" height="15.0" fill="rgb(0,0,0)" rx="2" ry="2" />
<text  x="125.52" y="129.5" ></text>
</g>
<g >
<title>Parloop_Cells_wrap_wrap_slate_loopy_knl_3 (25,985,361 us, 10.93%)</title><rect x="993.0" y="183" width="129.0" height="15.0" fill="rgb(0,0,0)" rx="2" ry="2" />
<text  x="996.00" y="193.5" >Parloop_Cells_..</text>
</g>
<g >
<title>ParLoopExecute (12,541,174 us, 5.28%)</title><rect x="335.5" y="119" width="62.2" height="15.0" fill="rgb(0,0,0)" rx="2" ry="2" />
<text  x="338.46" y="129.5" >ParLoo..</text>
</g>
<g >
<title>pyop2.global_kernel.GlobalKernel.compile (2,920,046 us, 1.23%)</title><rect x="65.0" y="119" width="14.5" height="15.0" fill="rgb(0,0,0)" rx="2" ry="2" />
<text  x="68.02" y="129.5" ></text>
</g>
<g >
<title>firedrake.parloops.par_loop (900,136 us, 0.38%)</title><rect x="695.6" y="167" width="4.4" height="15.0" fill="rgb(0,0,0)" rx="2" ry="2" />
<text  x="698.55" y="177.5" ></text>
</g>
<g >
<title>Parloop_Cells_wrap_form0_cell_integral_otherwise (4,647,428 us, 1.96%)</title><rect x="92.3" y="119" width="23.0" height="15.0" fill="rgb(0,0,0)" rx="2" ry="2" />
<text  x="95.28" y="129.5" >P..</text>
</g>
<g >
<title>HybridRHS (24,519,894 us, 10.32%)</title><rect x="700.0" y="151" width="121.7" height="15.0" fill="rgb(0,0,0)" rx="2" ry="2" />
<text  x="703.02" y="161.5" >HybridRHS</text>
</g>
<g >
<title>Parloop_Cells_wrap_form00_cell_integral_otherwise (16,240,002 us, 6.83%)</title><rect x="168.1" y="135" width="80.6" height="15.0" fill="rgb(0,0,0)" rx="2" ry="2" />
<text  x="171.12" y="145.5" >Parloop_..</text>
</g>
<g >
<title>Log_Event_subkernel10_interior_facet_horiz_bottom_to__exterior_facet_bottom_integral_otherwise (25,734 us, 0.01%)</title><rect x="833.9" y="231" width="0.1" height="15.0" fill="rgb(0,0,0)" rx="2" ry="2" />
<text  x="836.90" y="241.5" ></text>
</g>
<g >
<title>firedrake.variational_solver.NonlinearVariationalSolver.solve (157,689,714 us, 66.34%)</title><rect x="407.2" y="71" width="782.8" height="15.0" fill="rgb(0,0,0)" rx="2" ry="2" />
<text  x="410.16" y="81.5" >firedrake.variational_solver.NonlinearVariationalSolver.solve</text>
</g>
<g >
<title>firedrake.tsfc_interface.compile_form (3,172,859 us, 1.33%)</title><rect x="1122.0" y="167" width="15.8" height="15.0" fill="rgb(0,0,0)" rx="2" ry="2" />
<text  x="1125.00" y="177.5" ></text>
</g>
<g >
<title>Log_Event_slate_loopy_knl_3 (51,227 us, 0.02%)</title><rect x="993.1" y="199" width="0.3" height="15.0" fill="rgb(0,0,0)" rx="2" ry="2" />
<text  x="996.14" y="209.5" ></text>
</g>
<g >
<title>firedrake.extrusion_utils.make_extruded_coords (941,484 us, 0.40%)</title><rect x="15.5" y="87" width="4.7" height="15.0" fill="rgb(0,0,0)" rx="2" ry="2" />
<text  x="18.54" y="97.5" ></text>
</g>
<g >
<title>pyop2.global_kernel.GlobalKernel.compile (675,653 us, 0.28%)</title><rect x="1138.1" y="183" width="3.4" height="15.0" fill="rgb(0,0,0)" rx="2" ry="2" />
<text  x="1141.13" y="193.5" ></text>
</g>
<g >
<title>pyop2.global_kernel.GlobalKernel.compile (16,240,002 us, 6.83%)</title><rect x="168.1" y="151" width="80.6" height="15.0" fill="rgb(0,0,0)" rx="2" ry="2" />
<text  x="171.12" y="161.5" >pyop2.gl..</text>
</g>
<g >
<title>KSPSolve (147,165,687 us, 61.91%)</title><rect x="407.2" y="103" width="730.6" height="15.0" fill="rgb(0,0,0)" rx="2" ry="2" />
<text  x="410.16" y="113.5" >KSPSolve</text>
</g>
<g >
<title>Parloop_IntFacets_wrap_form00_interior_facet_vert_integral_otherwise (3,329,571 us, 1.40%)</title><rect x="293.4" y="135" width="16.5" height="15.0" fill="rgb(0,0,0)" rx="2" ry="2" />
<text  x="296.36" y="145.5" ></text>
</g>
<g >
<title>Log_Event_subkernel10_interior_facet_horiz_top_to__exterior_facet_top_integral_otherwise (27,225 us, 0.01%)</title><rect x="834.0" y="231" width="0.2" height="15.0" fill="rgb(0,0,0)" rx="2" ry="2" />
<text  x="837.02" y="241.5" ></text>
</g>
<g >
<title>pyop2.global_kernel.GlobalKernel.compile (4,328,070 us, 1.82%)</title><rect x="1141.5" y="151" width="21.5" height="15.0" fill="rgb(0,0,0)" rx="2" ry="2" />
<text  x="1144.48" y="161.5" ></text>
</g>
<g >
<title>firedrake.tsfc_interface.compile_form (2,505,553 us, 1.05%)</title><rect x="311.0" y="119" width="12.4" height="15.0" fill="rgb(0,0,0)" rx="2" ry="2" />
<text  x="313.95" y="129.5" ></text>
</g>
<g >
<title>MatMult (32,541,508 us, 13.69%)</title><rect x="821.7" y="167" width="161.6" height="15.0" fill="rgb(0,0,0)" rx="2" ry="2" />
<text  x="824.75" y="177.5" >MatMult</text>
</g>
<g >
<title>Parloop_ExtFacets_wrap_form_exterior_facet_vert_integral_otherwise (2,698,406 us, 1.14%)</title><rect x="51.6" y="103" width="13.4" height="15.0" fill="rgb(0,0,0)" rx="2" ry="2" />
<text  x="54.63" y="113.5" ></text>
</g>
<g >
<title>ParLoopExecute (8,345,107 us, 3.51%)</title><rect x="1141.5" y="119" width="41.4" height="15.0" fill="rgb(0,0,0)" rx="2" ry="2" />
<text  x="1144.48" y="129.5" >Par..</text>
</g>
<g >
<title>firedrake.norms.errornorm (14,442,093 us, 6.08%)</title><rect x="335.5" y="71" width="71.7" height="15.0" fill="rgb(0,0,0)" rx="2" ry="2" />
<text  x="338.46" y="81.5" >firedra..</text>
</g>
<g >
<title>pyop2.global_kernel.GlobalKernel.compile (1,919,713 us, 0.81%)</title><rect x="129.9" y="135" width="9.5" height="15.0" fill="rgb(0,0,0)" rx="2" ry="2" />
<text  x="132.91" y="145.5" ></text>
</g>
<g >
<title>Parloop_Cells_wrap_pyop2_kernel_uniform_extrusion (909,947 us, 0.38%)</title><rect x="15.7" y="119" width="4.5" height="15.0" fill="rgb(0,0,0)" rx="2" ry="2" />
<text  x="18.69" y="129.5" ></text>
</g>
<g >
<title>pyop2.global_kernel.GlobalKernel.compile (2,698,406 us, 1.14%)</title><rect x="51.6" y="119" width="13.4" height="15.0" fill="rgb(0,0,0)" rx="2" ry="2" />
<text  x="54.63" y="129.5" ></text>
</g>
<g >
<title>firedrake.linear_solver.LinearSolver.solve (57,275 us, 0.02%)</title><rect x="323.4" y="103" width="0.3" height="15.0" fill="rgb(0,0,0)" rx="2" ry="2" />
<text  x="326.39" y="113.5" ></text>
</g>
<g >
<title>ParLoopExecute (10,400,555 us, 4.38%)</title><rect x="27.9" y="87" width="51.6" height="15.0" fill="rgb(0,0,0)" rx="2" ry="2" />
<text  x="30.89" y="97.5" >ParL..</text>
</g>
<g >
<title>PCSetUp (57,275 us, 0.02%)</title><rect x="323.4" y="135" width="0.3" height="15.0" fill="rgb(0,0,0)" rx="2" ry="2" />
<text  x="326.39" y="145.5" ></text>
</g>
<g >
<title>Log_Event_subkernel8_interior_facet_vert_to__exterior_facet_vert_integral_otherwise (442,619 us, 0.19%)</title><rect x="835.8" y="231" width="2.2" height="15.0" fill="rgb(0,0,0)" rx="2" ry="2" />
<text  x="838.83" y="241.5" ></text>
</g>
<g >
<title>KSPSolve (32,541,508 us, 13.69%)</title><rect x="821.7" y="151" width="161.6" height="15.0" fill="rgb(0,0,0)" rx="2" ry="2" />
<text  x="824.75" y="161.5" >KSPSolve</text>
</g>
<g >
<title>pyop2.global_kernel.GlobalKernel.compile (369,242 us, 0.16%)</title><rect x="79.5" y="151" width="1.9" height="15.0" fill="rgb(0,0,0)" rx="2" ry="2" />
<text  x="82.52" y="161.5" ></text>
</g>
<g >
<title>Log_Event_subkernel9_cell_to__cell_integral_otherwise (336,487 us, 0.14%)</title><rect x="838.0" y="231" width="1.7" height="15.0" fill="rgb(0,0,0)" rx="2" ry="2" />
<text  x="841.02" y="241.5" ></text>
</g>
<g >
<title>ParLoopExecute (28,557,316 us, 12.01%)</title><rect x="168.1" y="119" width="141.8" height="15.0" fill="rgb(0,0,0)" rx="2" ry="2" />
<text  x="171.12" y="129.5" >ParLoopExecute</text>
</g>
<g >
<title>firedrake.tsfc_interface.compile_form (1,841,416 us, 0.77%)</title><rect x="83.1" y="87" width="9.2" height="15.0" fill="rgb(0,0,0)" rx="2" ry="2" />
<text  x="86.14" y="97.5" ></text>
</g>
<g >
<title>firedrake.assemble.allocate_matrix (213,917 us, 0.09%)</title><rect x="309.9" y="119" width="1.1" height="15.0" fill="rgb(0,0,0)" rx="2" ry="2" />
<text  x="312.89" y="129.5" ></text>
</g>
<g >
<title>PCSetUp (31,112,408 us, 13.09%)</title><rect x="983.3" y="151" width="154.5" height="15.0" fill="rgb(0,0,0)" rx="2" ry="2" />
<text  x="986.30" y="161.5" >PCSetUp</text>
</g>
<g >
<title>Parloop_IntFacets_wrap_form0_interior_facet_vert_integral_otherwise (3,094,125 us, 1.30%)</title><rect x="152.8" y="119" width="15.3" height="15.0" fill="rgb(0,0,0)" rx="2" ry="2" />
<text  x="155.76" y="129.5" ></text>
</g>
<g >
<title>MatCholFctrNum (57,275 us, 0.02%)</title><rect x="323.4" y="151" width="0.3" height="15.0" fill="rgb(0,0,0)" rx="2" ry="2" />
<text  x="326.39" y="161.5" ></text>
</g>
<g >
<title>CreateSparsity (133,973 us, 0.06%)</title><rect x="309.9" y="135" width="0.7" height="15.0" fill="rgb(0,0,0)" rx="2" ry="2" />
<text  x="312.89" y="145.5" ></text>
</g>
<g >
<title>pyop2.global_kernel.GlobalKernel.compile (1,489,678 us, 0.63%)</title><rect x="122.5" y="135" width="7.4" height="15.0" fill="rgb(0,0,0)" rx="2" ry="2" />
<text  x="125.52" y="145.5" ></text>
</g>
<g >
<title>Parloop_ExtFacets_wrap_form00_exterior_facet_vert_integral_otherwise (3,302,193 us, 1.39%)</title><rect x="277.0" y="135" width="16.4" height="15.0" fill="rgb(0,0,0)" rx="2" ry="2" />
<text  x="279.97" y="145.5" ></text>
</g>
<g >
<title>Parloop_ExtFacets_wrap_form0_exterior_facet_vert_integral_otherwise (2,682,198 us, 1.13%)</title><rect x="139.4" y="119" width="13.4" height="15.0" fill="rgb(0,0,0)" rx="2" ry="2" />
<text  x="142.44" y="129.5" ></text>
</g>
<g >
<title>Log_Event_subkernel8_interior_facet_horiz_top_to__exterior_facet_top_integral_otherwise (27,979 us, 0.01%)</title><rect x="835.7" y="231" width="0.1" height="15.0" fill="rgb(0,0,0)" rx="2" ry="2" />
<text  x="838.69" y="241.5" ></text>
</g>
<g >
<title>Parloop_Cells_wrap_form1_cell_integral_otherwise (4,017,037 us, 1.69%)</title><rect x="1163.0" y="135" width="19.9" height="15.0" fill="rgb(0,0,0)" rx="2" ry="2" />
<text  x="1165.97" y="145.5" ></text>
</g>
<g >
<title>firedrake.tsfc_interface.compile_form (2,210,322 us, 0.93%)</title><rect x="684.6" y="151" width="11.0" height="15.0" fill="rgb(0,0,0)" rx="2" ry="2" />
<text  x="687.58" y="161.5" ></text>
</g>
<g >
<title>pyop2.global_kernel.GlobalKernel.compile (1,413,571 us, 0.59%)</title><rect x="37.0" y="119" width="7.1" height="15.0" fill="rgb(0,0,0)" rx="2" ry="2" />
<text  x="40.05" y="129.5" ></text>
</g>
<g >
<title>firedrake.assemble_expressions.evaluate_expression (728,321 us, 0.31%)</title><rect x="79.5" y="103" width="3.6" height="15.0" fill="rgb(0,0,0)" rx="2" ry="2" />
<text  x="82.52" y="113.5" ></text>
</g>
<g >
<title>Parloop_Cells_wrap_form_cell_integral_otherwise (12,541,174 us, 5.28%)</title><rect x="335.5" y="135" width="62.2" height="15.0" fill="rgb(0,0,0)" rx="2" ry="2" />
<text  x="338.46" y="145.5" >Parloo..</text>
</g>
<g >
<title>Parloop_Cells_wrap_form0_exterior_facet_bottom_integral_otherwise (1,444,292 us, 0.61%)</title><rect x="115.3" y="119" width="7.2" height="15.0" fill="rgb(0,0,0)" rx="2" ry="2" />
<text  x="118.35" y="129.5" ></text>
</g>
<g >
<title>Parloop_Cells_wrap_form00_exterior_facet_top_integral_otherwise (1,975,889 us, 0.83%)</title><rect x="257.6" y="135" width="9.8" height="15.0" fill="rgb(0,0,0)" rx="2" ry="2" />
<text  x="260.58" y="145.5" ></text>
</g>
<g >
<title>pyop2.global_kernel.GlobalKernel.compile (25,525,498 us, 10.74%)</title><rect x="839.7" y="231" width="126.7" height="15.0" fill="rgb(0,0,0)" rx="2" ry="2" />
<text  x="842.70" y="241.5" >pyop2.global_k..</text>
</g>
</g>
</svg>
