<?xml version="1.0" standalone="no"?>
<!DOCTYPE svg PUBLIC "-//W3C//DTD SVG 1.1//EN" "http://www.w3.org/Graphics/SVG/1.1/DTD/svg11.dtd">
<svg version="1.1" width="1200" height="427" onload="init(evt)" viewBox="0 0 1200 427" xmlns="http://www.w3.org/2000/svg" xmlns:xlink="http://www.w3.org/1999/xlink">
<!-- Flame graph stack visualization. See https://github.com/brendangregg/FlameGraph for latest version, and http://www.brendangregg.com/flamegraphs.html for examples. -->
<!-- NOTES:  -->
<defs>
	<linearGradient id="background" y1="0" y2="1" x1="0" x2="0" >
		<stop stop-color="#eeeeee" offset="5%" />
		<stop stop-color="#eeeeb0" offset="95%" />
	</linearGradient>
</defs>
<style type="text/css">
	text { font-family:Verdana; font-size:13px; fill:rgb(0,0,0); }
	#search, #ignorecase { opacity:0.1; cursor:pointer; }
	#search:hover, #search.show, #ignorecase:hover, #ignorecase.show { opacity:1; }
	#subtitle { text-anchor:middle; font-color:rgb(160,160,160); }
	#title { text-anchor:middle; font-size:18px}
	#unzoom { cursor:pointer; }
	#frames > *:hover { stroke:black; stroke-width:0.5; cursor:pointer; }
	.hide { display:none; }
	.parent { opacity:0.5; }
</style>
<script type="text/ecmascript">
<![CDATA[
	"use strict";
	var details, searchbtn, unzoombtn, matchedtxt, svg, searching, currentSearchTerm, ignorecase, ignorecaseBtn;
	function init(evt) {
		details = document.getElementById("details").firstChild;
		searchbtn = document.getElementById("search");
		ignorecaseBtn = document.getElementById("ignorecase");
		unzoombtn = document.getElementById("unzoom");
		matchedtxt = document.getElementById("matched");
		svg = document.getElementsByTagName("svg")[0];
		searching = 0;
		currentSearchTerm = null;

		// use GET parameters to restore a flamegraphs state.
		var params = get_params();
		if (params.x && params.y)
			zoom(find_group(document.querySelector('[x="' + params.x + '"][y="' + params.y + '"]')));
                if (params.s) search(params.s);
	}

	// event listeners
	window.addEventListener("click", function(e) {
		var target = find_group(e.target);
		if (target) {
			if (target.nodeName == "a") {
				if (e.ctrlKey === false) return;
				e.preventDefault();
			}
			if (target.classList.contains("parent")) unzoom();
			zoom(target);
			if (!document.querySelector('.parent')) {
				clearzoom();
				return;
			}

			// set parameters for zoom state
			var el = target.querySelector("rect");
			if (el && el.attributes && el.attributes.y && el.attributes._orig_x) {
				var params = get_params()
				params.x = el.attributes._orig_x.value;
				params.y = el.attributes.y.value;
				history.replaceState(null, null, parse_params(params));
			}
		}
		else if (e.target.id == "unzoom") clearzoom();
		else if (e.target.id == "search") search_prompt();
		else if (e.target.id == "ignorecase") toggle_ignorecase();
	}, false)

	// mouse-over for info
	// show
	window.addEventListener("mouseover", function(e) {
		var target = find_group(e.target);
		if (target) details.nodeValue = "Function: " + g_to_text(target);
	}, false)

	// clear
	window.addEventListener("mouseout", function(e) {
		var target = find_group(e.target);
		if (target) details.nodeValue = ' ';
	}, false)

	// ctrl-F for search
	// ctrl-I to toggle case-sensitive search
	window.addEventListener("keydown",function (e) {
		if (e.keyCode === 114 || (e.ctrlKey && e.keyCode === 70)) {
			e.preventDefault();
			search_prompt();
		}
		else if (e.ctrlKey && e.keyCode === 73) {
			e.preventDefault();
			toggle_ignorecase();
		}
	}, false)

	// functions
	function get_params() {
		var params = {};
		var paramsarr = window.location.search.substr(1).split('&');
		for (var i = 0; i < paramsarr.length; ++i) {
			var tmp = paramsarr[i].split("=");
			if (!tmp[0] || !tmp[1]) continue;
			params[tmp[0]]  = decodeURIComponent(tmp[1]);
		}
		return params;
	}
	function parse_params(params) {
		var uri = "?";
		for (var key in params) {
			uri += key + '=' + encodeURIComponent(params[key]) + '&';
		}
		if (uri.slice(-1) == "&")
			uri = uri.substring(0, uri.length - 1);
		if (uri == '?')
			uri = window.location.href.split('?')[0];
		return uri;
	}
	function find_child(node, selector) {
		var children = node.querySelectorAll(selector);
		if (children.length) return children[0];
	}
	function find_group(node) {
		var parent = node.parentElement;
		if (!parent) return;
		if (parent.id == "frames") return node;
		return find_group(parent);
	}
	function orig_save(e, attr, val) {
		if (e.attributes["_orig_" + attr] != undefined) return;
		if (e.attributes[attr] == undefined) return;
		if (val == undefined) val = e.attributes[attr].value;
		e.setAttribute("_orig_" + attr, val);
	}
	function orig_load(e, attr) {
		if (e.attributes["_orig_"+attr] == undefined) return;
		e.attributes[attr].value = e.attributes["_orig_" + attr].value;
		e.removeAttribute("_orig_"+attr);
	}
	function g_to_text(e) {
		var text = find_child(e, "title").firstChild.nodeValue;
		return (text)
	}
	function g_to_func(e) {
		var func = g_to_text(e);
		// if there's any manipulation we want to do to the function
		// name before it's searched, do it here before returning.
		return (func);
	}
	function update_text(e) {
		var r = find_child(e, "rect");
		var t = find_child(e, "text");
		var w = parseFloat(r.attributes.width.value) -3;
		var txt = find_child(e, "title").textContent.replace(/\([^(]*\)$/,"");
		t.attributes.x.value = parseFloat(r.attributes.x.value) + 3;

		// Smaller than this size won't fit anything
		if (w < 2 * 13 * 0.59) {
			t.textContent = "";
			return;
		}

		t.textContent = txt;
		// Fit in full text width
		if (/^ *$/.test(txt) || t.getSubStringLength(0, txt.length) < w)
			return;

		for (var x = txt.length - 2; x > 0; x--) {
			if (t.getSubStringLength(0, x + 2) <= w) {
				t.textContent = txt.substring(0, x) + "..";
				return;
			}
		}
		t.textContent = "";
	}

	// zoom
	function zoom_reset(e) {
		if (e.attributes != undefined) {
			orig_load(e, "x");
			orig_load(e, "width");
		}
		if (e.childNodes == undefined) return;
		for (var i = 0, c = e.childNodes; i < c.length; i++) {
			zoom_reset(c[i]);
		}
	}
	function zoom_child(e, x, ratio) {
		if (e.attributes != undefined) {
			if (e.attributes.x != undefined) {
				orig_save(e, "x");
				e.attributes.x.value = (parseFloat(e.attributes.x.value) - x - 10) * ratio + 10;
				if (e.tagName == "text")
					e.attributes.x.value = find_child(e.parentNode, "rect[x]").attributes.x.value + 3;
			}
			if (e.attributes.width != undefined) {
				orig_save(e, "width");
				e.attributes.width.value = parseFloat(e.attributes.width.value) * ratio;
			}
		}

		if (e.childNodes == undefined) return;
		for (var i = 0, c = e.childNodes; i < c.length; i++) {
			zoom_child(c[i], x - 10, ratio);
		}
	}
	function zoom_parent(e) {
		if (e.attributes) {
			if (e.attributes.x != undefined) {
				orig_save(e, "x");
				e.attributes.x.value = 10;
			}
			if (e.attributes.width != undefined) {
				orig_save(e, "width");
				e.attributes.width.value = parseInt(svg.width.baseVal.value) - (10 * 2);
			}
		}
		if (e.childNodes == undefined) return;
		for (var i = 0, c = e.childNodes; i < c.length; i++) {
			zoom_parent(c[i]);
		}
	}
	function zoom(node) {
		var attr = find_child(node, "rect").attributes;
		var width = parseFloat(attr.width.value);
		var xmin = parseFloat(attr.x.value);
		var xmax = parseFloat(xmin + width);
		var ymin = parseFloat(attr.y.value);
		var ratio = (svg.width.baseVal.value - 2 * 10) / width;

		// XXX: Workaround for JavaScript float issues (fix me)
		var fudge = 0.0001;

		unzoombtn.classList.remove("hide");

		var el = document.getElementById("frames").children;
		for (var i = 0; i < el.length; i++) {
			var e = el[i];
			var a = find_child(e, "rect").attributes;
			var ex = parseFloat(a.x.value);
			var ew = parseFloat(a.width.value);
			var upstack;
			// Is it an ancestor
			if (1 == 0) {
				upstack = parseFloat(a.y.value) > ymin;
			} else {
				upstack = parseFloat(a.y.value) < ymin;
			}
			if (upstack) {
				// Direct ancestor
				if (ex <= xmin && (ex+ew+fudge) >= xmax) {
					e.classList.add("parent");
					zoom_parent(e);
					update_text(e);
				}
				// not in current path
				else
					e.classList.add("hide");
			}
			// Children maybe
			else {
				// no common path
				if (ex < xmin || ex + fudge >= xmax) {
					e.classList.add("hide");
				}
				else {
					zoom_child(e, xmin, ratio);
					update_text(e);
				}
			}
		}
		search();
	}
	function unzoom() {
		unzoombtn.classList.add("hide");
		var el = document.getElementById("frames").children;
		for(var i = 0; i < el.length; i++) {
			el[i].classList.remove("parent");
			el[i].classList.remove("hide");
			zoom_reset(el[i]);
			update_text(el[i]);
		}
		search();
	}
	function clearzoom() {
		unzoom();

		// remove zoom state
		var params = get_params();
		if (params.x) delete params.x;
		if (params.y) delete params.y;
		history.replaceState(null, null, parse_params(params));
	}

	// search
	function toggle_ignorecase() {
		ignorecase = !ignorecase;
		if (ignorecase) {
			ignorecaseBtn.classList.add("show");
		} else {
			ignorecaseBtn.classList.remove("show");
		}
		reset_search();
		search();
	}
	function reset_search() {
		var el = document.querySelectorAll("#frames rect");
		for (var i = 0; i < el.length; i++) {
			orig_load(el[i], "fill")
		}
		var params = get_params();
		delete params.s;
		history.replaceState(null, null, parse_params(params));
	}
	function search_prompt() {
		if (!searching) {
			var term = prompt("Enter a search term (regexp " +
			    "allowed, eg: ^ext4_)"
			    + (ignorecase ? ", ignoring case" : "")
			    + "\nPress Ctrl-i to toggle case sensitivity", "");
			if (term != null) search(term);
		} else {
			reset_search();
			searching = 0;
			currentSearchTerm = null;
			searchbtn.classList.remove("show");
			searchbtn.firstChild.nodeValue = "Search"
			matchedtxt.classList.add("hide");
			matchedtxt.firstChild.nodeValue = ""
		}
	}
	function search(term) {
		if (term) currentSearchTerm = term;

		var re = new RegExp(currentSearchTerm, ignorecase ? 'i' : '');
		var el = document.getElementById("frames").children;
		var matches = new Object();
		var maxwidth = 0;
		for (var i = 0; i < el.length; i++) {
			var e = el[i];
			var func = g_to_func(e);
			var rect = find_child(e, "rect");
			if (func == null || rect == null)
				continue;

			// Save max width. Only works as we have a root frame
			var w = parseFloat(rect.attributes.width.value);
			if (w > maxwidth)
				maxwidth = w;

			if (func.match(re)) {
				// highlight
				var x = parseFloat(rect.attributes.x.value);
				orig_save(rect, "fill");
				rect.attributes.fill.value = "rgb(230,0,230)";

				// remember matches
				if (matches[x] == undefined) {
					matches[x] = w;
				} else {
					if (w > matches[x]) {
						// overwrite with parent
						matches[x] = w;
					}
				}
				searching = 1;
			}
		}
		if (!searching)
			return;
		var params = get_params();
		params.s = currentSearchTerm;
		history.replaceState(null, null, parse_params(params));

		searchbtn.classList.add("show");
		searchbtn.firstChild.nodeValue = "Reset Search";

		// calculate percent matched, excluding vertical overlap
		var count = 0;
		var lastx = -1;
		var lastw = 0;
		var keys = Array();
		for (k in matches) {
			if (matches.hasOwnProperty(k))
				keys.push(k);
		}
		// sort the matched frames by their x location
		// ascending, then width descending
		keys.sort(function(a, b){
			return a - b;
		});
		// Step through frames saving only the biggest bottom-up frames
		// thanks to the sort order. This relies on the tree property
		// where children are always smaller than their parents.
		var fudge = 0.0001;	// JavaScript floating point
		for (var k in keys) {
			var x = parseFloat(keys[k]);
			var w = matches[keys[k]];
			if (x >= lastx + lastw - fudge) {
				count += w;
				lastx = x;
				lastw = w;
			}
		}
		// display matched percent
		matchedtxt.classList.remove("hide");
		var pct = 100 * count / maxwidth;
		if (pct != 100) pct = pct.toFixed(1)
		matchedtxt.firstChild.nodeValue = "Matched: " + pct + "%";
	}
]]>
</script>
<rect x="0.0" y="0" width="1200.0" height="427.0" fill="url(#background)"  />
<text id="title" x="600.00" y="26" >Firedrake example</text>
<text id="details" x="10.00" y="409" > </text>
<text id="unzoom" x="10.00" y="26" class="hide">Reset Zoom</text>
<text id="search" x="1090.00" y="26" >Search</text>
<text id="ignorecase" x="1174.00" y="26" >ic</text>
<text id="matched" x="1090.00" y="409" > </text>
<g id="frames">
<g >
<title>HybridBreak (1,053,912 us, 0.48%)</title><rect x="291.9" y="151" width="5.7" height="15.0" fill="rgb(0,0,0)" rx="2" ry="2" />
<text  x="294.90" y="161.5" ></text>
</g>
<g >
<title>firedrake.dmhooks.coarsen (2,349,604 us, 1.07%)</title><rect x="633.9" y="263" width="12.6" height="15.0" fill="rgb(0,0,0)" rx="2" ry="2" />
<text  x="636.86" y="273.5" ></text>
</g>
<g >
<title>ParLoopExecute (5,430,650 us, 2.47%)</title><rect x="27.9" y="151" width="29.1" height="15.0" fill="rgb(0,0,0)" rx="2" ry="2" />
<text  x="30.90" y="161.5" >P..</text>
</g>
<g >
<title>Parloop_Cells_wrap_form0_cell_integral_otherwise (3,123,519 us, 1.42%)</title><rect x="1154.5" y="135" width="16.7" height="15.0" fill="rgb(0,0,0)" rx="2" ry="2" />
<text  x="1157.45" y="145.5" ></text>
</g>
<g >
<title>firedrake.tsfc_interface.compile_form (887,670 us, 0.40%)</title><rect x="57.0" y="151" width="4.8" height="15.0" fill="rgb(0,0,0)" rx="2" ry="2" />
<text  x="60.02" y="161.5" ></text>
</g>
<g >
<title>Log_Event_slate_loopy_knl_57 (96,692 us, 0.04%)</title><rect x="624.1" y="231" width="0.5" height="15.0" fill="rgb(0,0,0)" rx="2" ry="2" />
<text  x="627.12" y="241.5" ></text>
</g>
<g >
<title>SNESSolve (216,713,554 us, 98.48%)</title><rect x="27.9" y="87" width="1162.1" height="15.0" fill="rgb(0,0,0)" rx="2" ry="2" />
<text  x="30.90" y="97.5" >SNESSolve</text>
</g>
<g >
<title>Log_Event_tensorshell_knl_67 (55,355 us, 0.03%)</title><rect x="626.1" y="311" width="0.3" height="15.0" fill="rgb(0,0,0)" rx="2" ry="2" />
<text  x="629.14" y="321.5" ></text>
</g>
<g >
<title>pyop2.global_kernel.GlobalKernel.compile (2,236,089 us, 1.02%)</title><rect x="45.0" y="183" width="12.0" height="15.0" fill="rgb(0,0,0)" rx="2" ry="2" />
<text  x="48.03" y="193.5" ></text>
</g>
<g >
<title>Log_Event_tensorshell_knl_60 (55,567 us, 0.03%)</title><rect x="625.8" y="311" width="0.3" height="15.0" fill="rgb(0,0,0)" rx="2" ry="2" />
<text  x="628.84" y="321.5" ></text>
</g>
<g >
<title>Parloop_set_#x7fb6b05b4f40_wrap_pyop2_kernel_restrict (664,814 us, 0.30%)</title><rect x="646.5" y="295" width="3.5" height="15.0" fill="rgb(0,0,0)" rx="2" ry="2" />
<text  x="649.46" y="305.5" ></text>
</g>
<g >
<title>Log_Event_mtf_solve_59 (57,341 us, 0.03%)</title><rect x="689.5" y="311" width="0.3" height="15.0" fill="rgb(0,0,0)" rx="2" ry="2" />
<text  x="692.52" y="321.5" ></text>
</g>
<g >
<title>pyop2.global_kernel.GlobalKernel.compile (1,023,151 us, 0.46%)</title><rect x="638.6" y="375" width="5.5" height="15.0" fill="rgb(0,0,0)" rx="2" ry="2" />
<text  x="641.61" y="385.5" ></text>
</g>
<g >
<title>CreateExtMesh (918,716 us, 0.42%)</title><rect x="14.9" y="71" width="4.9" height="15.0" fill="rgb(0,0,0)" rx="2" ry="2" />
<text  x="17.91" y="81.5" ></text>
</g>
<g >
<title>ParLoopExecute (22,239,035 us, 10.11%)</title><rect x="130.5" y="167" width="119.3" height="15.0" fill="rgb(0,0,0)" rx="2" ry="2" />
<text  x="133.53" y="177.5" >ParLoopExecute</text>
</g>
<g >
<title>Log_Event_tensorshell_knl_67 (28,564 us, 0.01%)</title><rect x="689.7" y="327" width="0.1" height="15.0" fill="rgb(0,0,0)" rx="2" ry="2" />
<text  x="692.67" y="337.5" ></text>
</g>
<g >
<title>firedrake.interpolation.make_interpolator (33,323 us, 0.02%)</title><rect x="644.1" y="327" width="0.2" height="15.0" fill="rgb(0,0,0)" rx="2" ry="2" />
<text  x="647.10" y="337.5" ></text>
</g>
<g >
<title>ParLoopExecute (45,661,966 us, 20.75%)</title><rect x="688.8" y="263" width="244.9" height="15.0" fill="rgb(0,0,0)" rx="2" ry="2" />
<text  x="691.84" y="273.5" >ParLoopExecute</text>
</g>
<g >
<title>Parloop_Cells_wrap_expression_kernel (1,023,151 us, 0.46%)</title><rect x="638.6" y="359" width="5.5" height="15.0" fill="rgb(0,0,0)" rx="2" ry="2" />
<text  x="641.61" y="369.5" ></text>
</g>
<g >
<title>PCApply (203,039,748 us, 92.27%)</title><rect x="61.8" y="119" width="1088.8" height="15.0" fill="rgb(0,0,0)" rx="2" ry="2" />
<text  x="64.78" y="129.5" >PCApply</text>
</g>
<g >
<title>firedrake.tsfc_interface.compile_form (11,771,551 us, 5.35%)</title><rect x="561.0" y="167" width="63.1" height="15.0" fill="rgb(0,0,0)" rx="2" ry="2" />
<text  x="563.99" y="177.5" >firedr..</text>
</g>
<g >
<title>firedrake.matrix_free.operators.ImplicitMatrixContext.mult (475,785 us, 0.22%)</title><rect x="624.6" y="231" width="2.6" height="15.0" fill="rgb(0,0,0)" rx="2" ry="2" />
<text  x="627.63" y="241.5" ></text>
</g>
<g >
<title>Parloop_Cells_wrap_form1_cell_integral_otherwise (2,415,412 us, 1.10%)</title><rect x="1171.2" y="135" width="13.0" height="15.0" fill="rgb(0,0,0)" rx="2" ry="2" />
<text  x="1174.20" y="145.5" ></text>
</g>
<g >
<title>ParLoopExecute (475,785 us, 0.22%)</title><rect x="624.6" y="247" width="2.6" height="15.0" fill="rgb(0,0,0)" rx="2" ry="2" />
<text  x="627.63" y="257.5" ></text>
</g>
<g >
<title>ParLoopExecute (664,814 us, 0.30%)</title><rect x="646.5" y="279" width="3.5" height="15.0" fill="rgb(0,0,0)" rx="2" ry="2" />
<text  x="649.46" y="289.5" ></text>
</g>
<g >
<title>KSPSolve (209,358,068 us, 95.14%)</title><rect x="27.9" y="103" width="1122.7" height="15.0" fill="rgb(0,0,0)" rx="2" ry="2" />
<text  x="30.90" y="113.5" >KSPSolve</text>
</g>
<g >
<title>MatMult (97,264 us, 0.04%)</title><rect x="652.2" y="215" width="0.5" height="15.0" fill="rgb(0,0,0)" rx="2" ry="2" />
<text  x="655.21" y="225.5" ></text>
</g>
<g >
<title>HybridProject (895,785 us, 0.41%)</title><rect x="66.0" y="151" width="4.9" height="15.0" fill="rgb(0,0,0)" rx="2" ry="2" />
<text  x="69.05" y="161.5" ></text>
</g>
<g >
<title>Log_Event_mtf_solve_88 (22,987 us, 0.01%)</title><rect x="626.8" y="327" width="0.1" height="15.0" fill="rgb(0,0,0)" rx="2" ry="2" />
<text  x="629.77" y="337.5" ></text>
</g>
<g >
<title>firedrake.matrix_free.operators.ImplicitMatrixContext.mult (6,318,320 us, 2.87%)</title><rect x="27.9" y="135" width="33.9" height="15.0" fill="rgb(0,0,0)" rx="2" ry="2" />
<text  x="30.90" y="145.5" >fi..</text>
</g>
<g >
<title>pyop2.global_kernel.GlobalKernel.compile (887,280 us, 0.40%)</title><rect x="15.1" y="135" width="4.7" height="15.0" fill="rgb(0,0,0)" rx="2" ry="2" />
<text  x="18.08" y="145.5" ></text>
</g>
<g >
<title>Log_Event_tensorshell_knl_60 (28,777 us, 0.01%)</title><rect x="689.5" y="327" width="0.2" height="15.0" fill="rgb(0,0,0)" rx="2" ry="2" />
<text  x="692.52" y="337.5" ></text>
</g>
<g >
<title>SNESFunctionEval (6,629,373 us, 3.01%)</title><rect x="1154.5" y="103" width="35.5" height="15.0" fill="rgb(0,0,0)" rx="2" ry="2" />
<text  x="1157.45" y="113.5" >SN..</text>
</g>
<g >
<title>Parloop_Cells_wrap_slate_loopy_knl_0 (43,050,660 us, 19.56%)</title><rect x="330.1" y="183" width="230.9" height="15.0" fill="rgb(0,0,0)" rx="2" ry="2" />
<text  x="333.14" y="193.5" >Parloop_Cells_wrap_slate_loo..</text>
</g>
<g >
<title>firedrake.mg.interface.restrict (1,072,745 us, 0.49%)</title><rect x="646.5" y="263" width="5.7" height="15.0" fill="rgb(0,0,0)" rx="2" ry="2" />
<text  x="649.46" y="273.5" ></text>
</g>
<g >
<title>ParLoopExecute (887,280 us, 0.40%)</title><rect x="15.1" y="103" width="4.7" height="15.0" fill="rgb(0,0,0)" rx="2" ry="2" />
<text  x="18.08" y="113.5" ></text>
</g>
<g >
<title>ParLoopExecute (8,518,716 us, 3.87%)</title><rect x="70.9" y="151" width="45.6" height="15.0" fill="rgb(0,0,0)" rx="2" ry="2" />
<text  x="73.85" y="161.5" >Par..</text>
</g>
<g >
<title>firedrake.mg.embedded.TransferManager.op (1,243,874 us, 0.57%)</title><rect x="627.2" y="279" width="6.7" height="15.0" fill="rgb(0,0,0)" rx="2" ry="2" />
<text  x="630.19" y="289.5" ></text>
</g>
<g >
<title>MatMultTranspose (1,072,745 us, 0.49%)</title><rect x="646.5" y="247" width="5.7" height="15.0" fill="rgb(0,0,0)" rx="2" ry="2" />
<text  x="649.46" y="257.5" ></text>
</g>
<g >
<title>firedrake.interpolation.make_interpolator (22,476 us, 0.01%)</title><rect x="1148.6" y="167" width="0.1" height="15.0" fill="rgb(0,0,0)" rx="2" ry="2" />
<text  x="1151.62" y="177.5" ></text>
</g>
<g >
<title>MatMult (6,318,320 us, 2.87%)</title><rect x="27.9" y="119" width="33.9" height="15.0" fill="rgb(0,0,0)" rx="2" ry="2" />
<text  x="30.90" y="129.5" >Ma..</text>
</g>
<g >
<title>HybridRHS (60,898,776 us, 27.67%)</title><rect x="297.6" y="151" width="326.5" height="15.0" fill="rgb(0,0,0)" rx="2" ry="2" />
<text  x="300.55" y="161.5" >HybridRHS</text>
</g>
<g >
<title>RecoverFirstElim (31,015,008 us, 14.09%)</title><rect x="116.5" y="151" width="166.3" height="15.0" fill="rgb(0,0,0)" rx="2" ry="2" />
<text  x="119.53" y="161.5" >RecoverFirstElim</text>
</g>
<g >
<title>PCSetUp (20,827,799 us, 9.46%)</title><rect x="1001.4" y="215" width="111.7" height="15.0" fill="rgb(0,0,0)" rx="2" ry="2" />
<text  x="1004.38" y="225.5" >PCSetUp</text>
</g>
<g >
<title>firedrake.tsfc_interface.compile_form (6,164,929 us, 2.80%)</title><rect x="249.8" y="167" width="33.0" height="15.0" fill="rgb(0,0,0)" rx="2" ry="2" />
<text  x="252.79" y="177.5" >fi..</text>
</g>
<g >
<title>PCSetUp (726,113 us, 0.33%)</title><rect x="1150.6" y="103" width="3.9" height="15.0" fill="rgb(0,0,0)" rx="2" ry="2" />
<text  x="1153.56" y="113.5" ></text>
</g>
<g >
<title>ParLoopExecute (591,515 us, 0.27%)</title><rect x="635.4" y="311" width="3.2" height="15.0" fill="rgb(0,0,0)" rx="2" ry="2" />
<text  x="638.44" y="321.5" ></text>
</g>
<g >
<title>Parloop_Cells_wrap_slate_loopy_knl_107 (22,239,035 us, 10.11%)</title><rect x="130.5" y="183" width="119.3" height="15.0" fill="rgb(0,0,0)" rx="2" ry="2" />
<text  x="133.53" y="193.5" >Parloop_Cells..</text>
</g>
<g >
<title>HybridInit (726,113 us, 0.33%)</title><rect x="1150.6" y="119" width="3.9" height="15.0" fill="rgb(0,0,0)" rx="2" ry="2" />
<text  x="1153.56" y="129.5" ></text>
</g>
<g >
<title>MatMult (96,692 us, 0.04%)</title><rect x="624.1" y="167" width="0.5" height="15.0" fill="rgb(0,0,0)" rx="2" ry="2" />
<text  x="627.12" y="177.5" ></text>
</g>
<g >
<title>PCSetUp (335,081 us, 0.15%)</title><rect x="1113.1" y="199" width="1.8" height="15.0" fill="rgb(0,0,0)" rx="2" ry="2" />
<text  x="1116.06" y="209.5" ></text>
</g>
<g >
<title>KSPSolve (91,516,297 us, 41.59%)</title><rect x="624.1" y="151" width="490.8" height="15.0" fill="rgb(0,0,0)" rx="2" ry="2" />
<text  x="627.12" y="161.5" >KSPSolve</text>
</g>
<g >
<title>MatMult (475,785 us, 0.22%)</title><rect x="624.6" y="215" width="2.6" height="15.0" fill="rgb(0,0,0)" rx="2" ry="2" />
<text  x="627.63" y="225.5" ></text>
</g>
<g >
<title>Parloop_Cells_wrap_slate_loopy_knl_57 (96,692 us, 0.04%)</title><rect x="624.1" y="215" width="0.5" height="15.0" fill="rgb(0,0,0)" rx="2" ry="2" />
<text  x="627.12" y="225.5" ></text>
</g>
<g >
<title>pyop2.global_kernel.GlobalKernel.compile (895,785 us, 0.41%)</title><rect x="66.0" y="215" width="4.9" height="15.0" fill="rgb(0,0,0)" rx="2" ry="2" />
<text  x="69.05" y="225.5" ></text>
</g>
<g >
<title>Log_Event_mtf_solve_59 (22,786 us, 0.01%)</title><rect x="652.5" y="295" width="0.1" height="15.0" fill="rgb(0,0,0)" rx="2" ry="2" />
<text  x="655.47" y="305.5" ></text>
</g>
<g >
<title>Parloop_Cells_wrap_par_loop_kernel (895,785 us, 0.41%)</title><rect x="66.0" y="199" width="4.9" height="15.0" fill="rgb(0,0,0)" rx="2" ry="2" />
<text  x="69.05" y="209.5" ></text>
</g>
<g >
<title>Log_Event_mtf_solve_59 (22,861 us, 0.01%)</title><rect x="624.4" y="247" width="0.1" height="15.0" fill="rgb(0,0,0)" rx="2" ry="2" />
<text  x="627.39" y="257.5" ></text>
</g>
<g >
<title>PCSetUp (86,180,333 us, 39.16%)</title><rect x="652.7" y="183" width="462.2" height="15.0" fill="rgb(0,0,0)" rx="2" ry="2" />
<text  x="655.73" y="193.5" >PCSetUp</text>
</g>
<g >
<title>Log_Event_slate_loopy_knl_57 (97,264 us, 0.04%)</title><rect x="652.2" y="279" width="0.5" height="15.0" fill="rgb(0,0,0)" rx="2" ry="2" />
<text  x="655.21" y="289.5" ></text>
</g>
<g >
<title>firedrake.mg.embedded.TransferManager.op (2,349,604 us, 1.07%)</title><rect x="633.9" y="279" width="12.6" height="15.0" fill="rgb(0,0,0)" rx="2" ry="2" />
<text  x="636.86" y="289.5" ></text>
</g>
<g >
<title>Log_Event_slate_loopy_knl_57 (475,785 us, 0.22%)</title><rect x="624.6" y="279" width="2.6" height="15.0" fill="rgb(0,0,0)" rx="2" ry="2" />
<text  x="627.63" y="289.5" ></text>
</g>
<g >
<title>PCSetUp (6,657,070 us, 3.03%)</title><rect x="1114.9" y="151" width="35.7" height="15.0" fill="rgb(0,0,0)" rx="2" ry="2" />
<text  x="1117.86" y="161.5" >PC..</text>
</g>
<g >
<title>pyop2.global_kernel.GlobalKernel.compile (3,123,519 us, 1.42%)</title><rect x="1154.5" y="151" width="16.7" height="15.0" fill="rgb(0,0,0)" rx="2" ry="2" />
<text  x="1157.45" y="161.5" ></text>
</g>
<g >
<title>firedrake.pointquery_utils.to_reference_coordinates (406,772 us, 0.18%)</title><rect x="644.3" y="311" width="2.2" height="15.0" fill="rgb(0,0,0)" rx="2" ry="2" />
<text  x="647.27" y="321.5" ></text>
</g>
<g >
<title>Parloop_Cells_wrap_slate_loopy_knl_57 (45,661,966 us, 20.75%)</title><rect x="688.8" y="279" width="244.9" height="15.0" fill="rgb(0,0,0)" rx="2" ry="2" />
<text  x="691.84" y="289.5" >Parloop_Cells_wrap_slate_loop..</text>
</g>
<g >
<title>Parloop_Cells_wrap_expression_kernel (1,197,188 us, 0.54%)</title><rect x="1114.9" y="183" width="6.4" height="15.0" fill="rgb(0,0,0)" rx="2" ry="2" />
<text  x="1117.86" y="193.5" ></text>
</g>
<g >
<title>ParLoopExecute (96,692 us, 0.04%)</title><rect x="624.1" y="199" width="0.5" height="15.0" fill="rgb(0,0,0)" rx="2" ry="2" />
<text  x="627.12" y="209.5" ></text>
</g>
<g >
<title>ParLoopExecute (43,050,660 us, 19.56%)</title><rect x="330.1" y="167" width="230.9" height="15.0" fill="rgb(0,0,0)" rx="2" ry="2" />
<text  x="333.14" y="177.5" >ParLoopExecute</text>
</g>
<g >
<title>Log_Event_mtf_solve_85 (25,087 us, 0.01%)</title><rect x="652.6" y="295" width="0.1" height="15.0" fill="rgb(0,0,0)" rx="2" ry="2" />
<text  x="655.59" y="305.5" ></text>
</g>
<g >
<title>DMCoarsen (2,349,604 us, 1.07%)</title><rect x="633.9" y="247" width="12.6" height="15.0" fill="rgb(0,0,0)" rx="2" ry="2" />
<text  x="636.86" y="257.5" ></text>
</g>
<g >
<title>firedrake.pointquery_utils.to_reference_coordinates (416,762 us, 0.19%)</title><rect x="631.6" y="311" width="2.3" height="15.0" fill="rgb(0,0,0)" rx="2" ry="2" />
<text  x="634.62" y="321.5" ></text>
</g>
<g >
<title>pyop2.global_kernel.GlobalKernel.compile (665,448 us, 0.30%)</title><rect x="1150.9" y="183" width="3.6" height="15.0" fill="rgb(0,0,0)" rx="2" ry="2" />
<text  x="1153.88" y="193.5" ></text>
</g>
<g >
<title>Log_Event_tensorshell_knl_93 (27,907 us, 0.01%)</title><rect x="690.0" y="327" width="0.1" height="15.0" fill="rgb(0,0,0)" rx="2" ry="2" />
<text  x="692.99" y="337.5" ></text>
</g>
<g >
<title>Parloop_Cells_wrap_slate_loopy_knl_57 (97,264 us, 0.04%)</title><rect x="652.2" y="263" width="0.5" height="15.0" fill="rgb(0,0,0)" rx="2" ry="2" />
<text  x="655.21" y="273.5" ></text>
</g>
<g >
<title>all (220,052,163 us, 100%)</title><rect x="10.0" y="39" width="1180.0" height="15.0" fill="rgb(0,0,0)" rx="2" ry="2" />
<text  x="13.00" y="49.5" ></text>
</g>
<g >
<title>firedrake.parloops.par_loop (895,785 us, 0.41%)</title><rect x="66.0" y="167" width="4.9" height="15.0" fill="rgb(0,0,0)" rx="2" ry="2" />
<text  x="69.05" y="177.5" ></text>
</g>
<g >
<title>firedrake.mg.interface.prolong (1,243,874 us, 0.57%)</title><rect x="627.2" y="295" width="6.7" height="15.0" fill="rgb(0,0,0)" rx="2" ry="2" />
<text  x="630.19" y="305.5" ></text>
</g>
<g >
<title>pyop2.global_kernel.GlobalKernel.compile (45,419,698 us, 20.64%)</title><rect x="690.1" y="295" width="243.6" height="15.0" fill="rgb(0,0,0)" rx="2" ry="2" />
<text  x="693.14" y="305.5" >pyop2.global_kernel.GlobalKer..</text>
</g>
<g >
<title>firedrake.extrusion_utils.make_extruded_coords (918,716 us, 0.42%)</title><rect x="14.9" y="87" width="4.9" height="15.0" fill="rgb(0,0,0)" rx="2" ry="2" />
<text  x="17.91" y="97.5" ></text>
</g>
<g >
<title>PCApply (91,419,605 us, 41.54%)</title><rect x="624.6" y="167" width="490.3" height="15.0" fill="rgb(0,0,0)" rx="2" ry="2" />
<text  x="627.63" y="177.5" >PCApply</text>
</g>
<g >
<title>pyop2.global_kernel.GlobalKernel.compile (664,814 us, 0.30%)</title><rect x="646.5" y="311" width="3.5" height="15.0" fill="rgb(0,0,0)" rx="2" ry="2" />
<text  x="649.46" y="321.5" ></text>
</g>
<g >
<title>Parloop_Cells_wrap_form0_cell_integral_otherwise (3,194,561 us, 1.45%)</title><rect x="27.9" y="167" width="17.1" height="15.0" fill="rgb(0,0,0)" rx="2" ry="2" />
<text  x="30.90" y="177.5" ></text>
</g>
<g >
<title>ParLoopExecute (1,053,912 us, 0.48%)</title><rect x="291.9" y="183" width="5.7" height="15.0" fill="rgb(0,0,0)" rx="2" ry="2" />
<text  x="294.90" y="193.5" ></text>
</g>
<g >
<title>pyop2.global_kernel.GlobalKernel.compile (3,194,561 us, 1.45%)</title><rect x="27.9" y="183" width="17.1" height="15.0" fill="rgb(0,0,0)" rx="2" ry="2" />
<text  x="30.90" y="193.5" ></text>
</g>
<g >
<title>Parloop_Cells_wrap_form1_cell_integral_otherwise (2,236,089 us, 1.02%)</title><rect x="45.0" y="167" width="12.0" height="15.0" fill="rgb(0,0,0)" rx="2" ry="2" />
<text  x="48.03" y="177.5" ></text>
</g>
<g >
<title>pyop2.global_kernel.GlobalKernel.compile (2,415,412 us, 1.10%)</title><rect x="1171.2" y="151" width="13.0" height="15.0" fill="rgb(0,0,0)" rx="2" ry="2" />
<text  x="1174.20" y="161.5" ></text>
</g>
<g >
<title>Log_Event_tensorshell_knl_86 (30,604 us, 0.01%)</title><rect x="689.8" y="327" width="0.2" height="15.0" fill="rgb(0,0,0)" rx="2" ry="2" />
<text  x="692.83" y="337.5" ></text>
</g>
<g >
<title>PCApply (5,239,272 us, 2.38%)</title><rect x="624.6" y="183" width="28.1" height="15.0" fill="rgb(0,0,0)" rx="2" ry="2" />
<text  x="627.63" y="193.5" >P..</text>
</g>
<g >
<title>firedrake.matrix_free.operators.ImplicitMatrixContext.mult (65,017,453 us, 29.55%)</title><rect x="652.7" y="247" width="348.7" height="15.0" fill="rgb(0,0,0)" rx="2" ry="2" />
<text  x="655.73" y="257.5" >firedrake.matrix_free.operators.ImplicitMat..</text>
</g>
<g >
<title>pyop2.global_kernel.GlobalKernel.compile (1,053,912 us, 0.48%)</title><rect x="291.9" y="215" width="5.7" height="15.0" fill="rgb(0,0,0)" rx="2" ry="2" />
<text  x="294.90" y="225.5" ></text>
</g>
<g >
<title>ParLoopExecute (895,785 us, 0.41%)</title><rect x="66.0" y="183" width="4.9" height="15.0" fill="rgb(0,0,0)" rx="2" ry="2" />
<text  x="69.05" y="193.5" ></text>
</g>
<g >
<title>KSPSolve (5,142,008 us, 2.34%)</title><rect x="624.6" y="199" width="27.6" height="15.0" fill="rgb(0,0,0)" rx="2" ry="2" />
<text  x="627.63" y="209.5" >K..</text>
</g>
<g >
<title>ParLoopExecute (1,023,151 us, 0.46%)</title><rect x="638.6" y="343" width="5.5" height="15.0" fill="rgb(0,0,0)" rx="2" ry="2" />
<text  x="641.61" y="353.5" ></text>
</g>
<g >
<title>pyop2.global_kernel.GlobalKernel.compile (43,024,974 us, 19.55%)</title><rect x="330.3" y="199" width="230.7" height="15.0" fill="rgb(0,0,0)" rx="2" ry="2" />
<text  x="333.28" y="209.5" >pyop2.global_kernel.GlobalKe..</text>
</g>
<g >
<title>PCSetUp (3,422,349 us, 1.56%)</title><rect x="633.9" y="231" width="18.3" height="15.0" fill="rgb(0,0,0)" rx="2" ry="2" />
<text  x="636.86" y="241.5" ></text>
</g>
<g >
<title>MGInterp Level 1 (1,243,874 us, 0.57%)</title><rect x="627.2" y="247" width="6.7" height="15.0" fill="rgb(0,0,0)" rx="2" ry="2" />
<text  x="630.19" y="257.5" ></text>
</g>
<g >
<title>firedrake.parloops.par_loop (665,448 us, 0.30%)</title><rect x="1150.9" y="135" width="3.6" height="15.0" fill="rgb(0,0,0)" rx="2" ry="2" />
<text  x="1153.88" y="145.5" ></text>
</g>
<g >
<title>firedrake.interpolation.Interpolator.interpolate (1,023,151 us, 0.46%)</title><rect x="638.6" y="327" width="5.5" height="15.0" fill="rgb(0,0,0)" rx="2" ry="2" />
<text  x="641.61" y="337.5" ></text>
</g>
<g >
<title>Parloop_Cells_wrap_pyop2_kernel_uniform_extrusion (887,280 us, 0.40%)</title><rect x="15.1" y="119" width="4.7" height="15.0" fill="rgb(0,0,0)" rx="2" ry="2" />
<text  x="18.08" y="129.5" ></text>
</g>
<g >
<title>firedrake.interpolation.interpolate (1,056,474 us, 0.48%)</title><rect x="638.6" y="311" width="5.7" height="15.0" fill="rgb(0,0,0)" rx="2" ry="2" />
<text  x="641.61" y="321.5" ></text>
</g>
<g >
<title>Parloop_set_#x7fb6b05b7e50_wrap_pyop2_kernel_inject (591,515 us, 0.27%)</title><rect x="635.4" y="327" width="3.2" height="15.0" fill="rgb(0,0,0)" rx="2" ry="2" />
<text  x="638.44" y="337.5" ></text>
</g>
<g >
<title>PCApply (4,666,223 us, 2.12%)</title><rect x="627.2" y="215" width="25.0" height="15.0" fill="rgb(0,0,0)" rx="2" ry="2" />
<text  x="630.19" y="225.5" >P..</text>
</g>
<g >
<title>Log_Event_mtf_solve_81 (27,153 us, 0.01%)</title><rect x="626.4" y="295" width="0.2" height="15.0" fill="rgb(0,0,0)" rx="2" ry="2" />
<text  x="629.43" y="305.5" ></text>
</g>
<g >
<title>pyop2.global_kernel.GlobalKernel.compile (22,239,035 us, 10.11%)</title><rect x="130.5" y="199" width="119.3" height="15.0" fill="rgb(0,0,0)" rx="2" ry="2" />
<text  x="133.53" y="209.5" >pyop2.global_..</text>
</g>
<g >
<title>MatResidual (97,264 us, 0.04%)</title><rect x="652.2" y="199" width="0.5" height="15.0" fill="rgb(0,0,0)" rx="2" ry="2" />
<text  x="655.21" y="209.5" ></text>
</g>
<g >
<title>firedrake.matrix_free.operators.ImplicitMatrixContext.mult (97,264 us, 0.04%)</title><rect x="652.2" y="231" width="0.5" height="15.0" fill="rgb(0,0,0)" rx="2" ry="2" />
<text  x="655.21" y="241.5" ></text>
</g>
<g >
<title>pyop2.global_kernel.GlobalKernel.compile (587,127 us, 0.27%)</title><rect x="628.5" y="343" width="3.1" height="15.0" fill="rgb(0,0,0)" rx="2" ry="2" />
<text  x="631.47" y="353.5" ></text>
</g>
<g >
<title>firedrake.tsfc_interface.compile_form (1,688,954 us, 0.77%)</title><rect x="282.8" y="151" width="9.1" height="15.0" fill="rgb(0,0,0)" rx="2" ry="2" />
<text  x="285.85" y="161.5" ></text>
</g>
<g >
<title>Log_Event_mtf_solve_59 (110,922 us, 0.05%)</title><rect x="625.8" y="295" width="0.6" height="15.0" fill="rgb(0,0,0)" rx="2" ry="2" />
<text  x="628.84" y="305.5" ></text>
</g>
<g >
<title>Parloop_Cells_wrap_slate_loopy_knl_57 (475,785 us, 0.22%)</title><rect x="624.6" y="263" width="2.6" height="15.0" fill="rgb(0,0,0)" rx="2" ry="2" />
<text  x="627.63" y="273.5" ></text>
</g>
<g >
<title>Log_Event_mtf_solve_85 (58,511 us, 0.03%)</title><rect x="689.8" y="311" width="0.3" height="15.0" fill="rgb(0,0,0)" rx="2" ry="2" />
<text  x="692.83" y="321.5" ></text>
</g>
<g >
<title>Parloop_Cells_wrap_form00_cell_integral_otherwise (5,099,309 us, 2.32%)</title><rect x="1121.3" y="183" width="27.3" height="15.0" fill="rgb(0,0,0)" rx="2" ry="2" />
<text  x="1124.28" y="193.5" >P..</text>
</g>
<g >
<title>Log_Event_tensorshell_knl_86 (58,948 us, 0.03%)</title><rect x="626.6" y="311" width="0.3" height="15.0" fill="rgb(0,0,0)" rx="2" ry="2" />
<text  x="629.58" y="321.5" ></text>
</g>
<g >
<title>firedrake.tsfc_interface.compile_form (12,620,913 us, 5.74%)</title><rect x="933.7" y="263" width="67.7" height="15.0" fill="rgb(0,0,0)" rx="2" ry="2" />
<text  x="936.70" y="273.5" >firedr..</text>
</g>
<g >
<title>Log_Event_mtf_solve_85 (112,849 us, 0.05%)</title><rect x="626.6" y="295" width="0.6" height="15.0" fill="rgb(0,0,0)" rx="2" ry="2" />
<text  x="629.58" y="305.5" ></text>
</g>
<g >
<title>KSPSetUp (85,845,252 us, 39.01%)</title><rect x="652.7" y="199" width="460.4" height="15.0" fill="rgb(0,0,0)" rx="2" ry="2" />
<text  x="655.73" y="209.5" >KSPSetUp</text>
</g>
<g >
<title>Parloop_Cells_wrap_par_loop_kernel (1,053,912 us, 0.48%)</title><rect x="291.9" y="199" width="5.7" height="15.0" fill="rgb(0,0,0)" rx="2" ry="2" />
<text  x="294.90" y="209.5" ></text>
</g>
<g >
<title>firedrake.tsfc_interface.compile_form (3,386,547 us, 1.54%)</title><rect x="1094.9" y="231" width="18.2" height="15.0" fill="rgb(0,0,0)" rx="2" ry="2" />
<text  x="1097.90" y="241.5" ></text>
</g>
<g >
<title>SCBackSub (42,913,693 us, 19.50%)</title><rect x="61.8" y="135" width="230.1" height="15.0" fill="rgb(0,0,0)" rx="2" ry="2" />
<text  x="64.78" y="145.5" >SCBackSub</text>
</g>
<g >
<title>firedrake (220,052,163 us, 100.00%)</title><rect x="10.0" y="55" width="1180.0" height="15.0" fill="rgb(0,0,0)" rx="2" ry="2" />
<text  x="13.00" y="65.5" >firedrake</text>
</g>
<g >
<title>firedrake.tsfc_interface.compile_form (338,097 us, 0.15%)</title><rect x="1148.7" y="167" width="1.9" height="15.0" fill="rgb(0,0,0)" rx="2" ry="2" />
<text  x="1151.74" y="177.5" ></text>
</g>
<g >
<title>ParLoopExecute (587,127 us, 0.27%)</title><rect x="628.5" y="311" width="3.1" height="15.0" fill="rgb(0,0,0)" rx="2" ry="2" />
<text  x="631.47" y="321.5" ></text>
</g>
<g >
<title>Log_Event_slate_loopy_knl_0 (25,686 us, 0.01%)</title><rect x="330.1" y="199" width="0.2" height="15.0" fill="rgb(0,0,0)" rx="2" ry="2" />
<text  x="333.14" y="209.5" ></text>
</g>
<g >
<title>pyop2.global_kernel.GlobalKernel.compile (8,518,716 us, 3.87%)</title><rect x="70.9" y="183" width="45.6" height="15.0" fill="rgb(0,0,0)" rx="2" ry="2" />
<text  x="73.85" y="193.5" >pyo..</text>
</g>
<g >
<title>pyop2.global_kernel.GlobalKernel.compile (591,515 us, 0.27%)</title><rect x="635.4" y="343" width="3.2" height="15.0" fill="rgb(0,0,0)" rx="2" ry="2" />
<text  x="638.44" y="353.5" ></text>
</g>
<g >
<title>firedrake.tsfc_interface.compile_form (335,081 us, 0.15%)</title><rect x="1113.1" y="215" width="1.8" height="15.0" fill="rgb(0,0,0)" rx="2" ry="2" />
<text  x="1116.06" y="225.5" ></text>
</g>
<g >
<title>firedrake.matrix_free.operators.ImplicitMatrixContext.mult (96,692 us, 0.04%)</title><rect x="624.1" y="183" width="0.5" height="15.0" fill="rgb(0,0,0)" rx="2" ry="2" />
<text  x="627.12" y="193.5" ></text>
</g>
<g >
<title>firedrake.__init__ (1,503,836 us, 0.68%)</title><rect x="19.8" y="71" width="8.1" height="15.0" fill="rgb(0,0,0)" rx="2" ry="2" />
<text  x="22.84" y="81.5" ></text>
</g>
<g >
<title>Parloop_set_#x7fb6b05b7e50_wrap_pyop2_kernel_prolong (587,127 us, 0.27%)</title><rect x="628.5" y="327" width="3.1" height="15.0" fill="rgb(0,0,0)" rx="2" ry="2" />
<text  x="631.47" y="337.5" ></text>
</g>
<g >
<title>MatMult (65,017,453 us, 29.55%)</title><rect x="652.7" y="231" width="348.7" height="15.0" fill="rgb(0,0,0)" rx="2" ry="2" />
<text  x="655.73" y="241.5" >MatMult</text>
</g>
<g >
<title>Log_Event_tensorshell_knl_93 (53,901 us, 0.02%)</title><rect x="626.9" y="311" width="0.3" height="15.0" fill="rgb(0,0,0)" rx="2" ry="2" />
<text  x="629.90" y="321.5" ></text>
</g>
<g >
<title>KSPSolve (65,017,453 us, 29.55%)</title><rect x="652.7" y="215" width="348.7" height="15.0" fill="rgb(0,0,0)" rx="2" ry="2" />
<text  x="655.73" y="225.5" >KSPSolve</text>
</g>
<g >
<title>ParLoopExecute (665,448 us, 0.30%)</title><rect x="1150.9" y="151" width="3.6" height="15.0" fill="rgb(0,0,0)" rx="2" ry="2" />
<text  x="1153.88" y="161.5" ></text>
</g>
<g >
<title>ParLoopExecute (5,538,931 us, 2.52%)</title><rect x="1154.5" y="119" width="29.7" height="15.0" fill="rgb(0,0,0)" rx="2" ry="2" />
<text  x="1157.45" y="129.5" >P..</text>
</g>
<g >
<title>Log_Event_mtf_solve_85 (23,606 us, 0.01%)</title><rect x="624.5" y="247" width="0.1" height="15.0" fill="rgb(0,0,0)" rx="2" ry="2" />
<text  x="627.51" y="257.5" ></text>
</g>
<g >
<title>ParLoopExecute (6,296,497 us, 2.86%)</title><rect x="1114.9" y="167" width="33.7" height="15.0" fill="rgb(0,0,0)" rx="2" ry="2" />
<text  x="1117.86" y="177.5" >Pa..</text>
</g>
<g >
<title>firedrake.mg.interface.inject (2,349,604 us, 1.07%)</title><rect x="633.9" y="295" width="12.6" height="15.0" fill="rgb(0,0,0)" rx="2" ry="2" />
<text  x="636.86" y="305.5" ></text>
</g>
<g >
<title>ParLoopExecute (97,264 us, 0.04%)</title><rect x="652.2" y="247" width="0.5" height="15.0" fill="rgb(0,0,0)" rx="2" ry="2" />
<text  x="655.21" y="257.5" ></text>
</g>
<g >
<title>Parloop_Cells_wrap_slate_loopy_knl_133 (8,518,716 us, 3.87%)</title><rect x="70.9" y="167" width="45.6" height="15.0" fill="rgb(0,0,0)" rx="2" ry="2" />
<text  x="73.85" y="177.5" >Par..</text>
</g>
<g >
<title>firedrake.tsfc_interface.compile_form (1,090,442 us, 0.50%)</title><rect x="1184.2" y="119" width="5.8" height="15.0" fill="rgb(0,0,0)" rx="2" ry="2" />
<text  x="1187.15" y="129.5" ></text>
</g>
<g >
<title>pyop2.global_kernel.GlobalKernel.compile (15,439,606 us, 7.02%)</title><rect x="1012.1" y="263" width="82.8" height="15.0" fill="rgb(0,0,0)" rx="2" ry="2" />
<text  x="1015.11" y="273.5" >pyop2.gl..</text>
</g>
<g >
<title>ParLoopExecute (15,439,606 us, 7.02%)</title><rect x="1012.1" y="231" width="82.8" height="15.0" fill="rgb(0,0,0)" rx="2" ry="2" />
<text  x="1015.11" y="241.5" >ParLoopE..</text>
</g>
<g >
<title>Log_Event_slate_loopy_knl_57 (242,268 us, 0.11%)</title><rect x="688.8" y="295" width="1.3" height="15.0" fill="rgb(0,0,0)" rx="2" ry="2" />
<text  x="691.84" y="305.5" ></text>
</g>
<g >
<title>SCForwardElim (61,952,688 us, 28.15%)</title><rect x="291.9" y="135" width="332.2" height="15.0" fill="rgb(0,0,0)" rx="2" ry="2" />
<text  x="294.90" y="145.5" >SCForwardElim</text>
</g>
<g >
<title>pyop2.global_kernel.GlobalKernel.compile (5,099,309 us, 2.32%)</title><rect x="1121.3" y="199" width="27.3" height="15.0" fill="rgb(0,0,0)" rx="2" ry="2" />
<text  x="1124.28" y="209.5" >p..</text>
</g>
<g >
<title>firedrake.variational_solver.NonlinearVariationalSolver.solve (216,713,554 us, 98.48%)</title><rect x="27.9" y="71" width="1162.1" height="15.0" fill="rgb(0,0,0)" rx="2" ry="2" />
<text  x="30.90" y="81.5" >firedrake.variational_solver.NonlinearVariationalSolver.solve</text>
</g>
<g >
<title>SCSolve (98,173,367 us, 44.61%)</title><rect x="624.1" y="135" width="526.5" height="15.0" fill="rgb(0,0,0)" rx="2" ry="2" />
<text  x="627.12" y="145.5" >SCSolve</text>
</g>
<g >
<title>firedrake.pointquery_utils.to_reference_coordinates (407,931 us, 0.19%)</title><rect x="650.0" y="279" width="2.2" height="15.0" fill="rgb(0,0,0)" rx="2" ry="2" />
<text  x="653.02" y="289.5" ></text>
</g>
<g >
<title>PCApply (1,243,874 us, 0.57%)</title><rect x="627.2" y="231" width="6.7" height="15.0" fill="rgb(0,0,0)" rx="2" ry="2" />
<text  x="630.19" y="241.5" ></text>
</g>
<g >
<title>MatMult (1,243,874 us, 0.57%)</title><rect x="627.2" y="263" width="6.7" height="15.0" fill="rgb(0,0,0)" rx="2" ry="2" />
<text  x="630.19" y="273.5" ></text>
</g>
<g >
<title>Parloop_Cells_wrap_wrap_slate_loopy_knl_48 (15,439,606 us, 7.02%)</title><rect x="1012.1" y="247" width="82.8" height="15.0" fill="rgb(0,0,0)" rx="2" ry="2" />
<text  x="1015.11" y="257.5" >Parloop_..</text>
</g>
<g >
<title>Parloop_Cells_wrap_par_loop_kernel (665,448 us, 0.30%)</title><rect x="1150.9" y="167" width="3.6" height="15.0" fill="rgb(0,0,0)" rx="2" ry="2" />
<text  x="1153.88" y="177.5" ></text>
</g>
<g >
<title>firedrake.parloops.par_loop (1,053,912 us, 0.48%)</title><rect x="291.9" y="167" width="5.7" height="15.0" fill="rgb(0,0,0)" rx="2" ry="2" />
<text  x="294.90" y="177.5" ></text>
</g>
<g >
<title>pyop2.global_kernel.GlobalKernel.compile (1,197,188 us, 0.54%)</title><rect x="1114.9" y="199" width="6.4" height="15.0" fill="rgb(0,0,0)" rx="2" ry="2" />
<text  x="1117.86" y="209.5" ></text>
</g>
</g>
</svg>
