<?xml version="1.0" standalone="no"?>
<!DOCTYPE svg PUBLIC "-//W3C//DTD SVG 1.1//EN" "http://www.w3.org/Graphics/SVG/1.1/DTD/svg11.dtd">
<svg version="1.1" width="1200" height="427" onload="init(evt)" viewBox="0 0 1200 427" xmlns="http://www.w3.org/2000/svg" xmlns:xlink="http://www.w3.org/1999/xlink">
<!-- Flame graph stack visualization. See https://github.com/brendangregg/FlameGraph for latest version, and http://www.brendangregg.com/flamegraphs.html for examples. -->
<!-- NOTES:  -->
<defs>
	<linearGradient id="background" y1="0" y2="1" x1="0" x2="0" >
		<stop stop-color="#eeeeee" offset="5%" />
		<stop stop-color="#eeeeb0" offset="95%" />
	</linearGradient>
</defs>
<style type="text/css">
	text { font-family:Verdana; font-size:13px; fill:rgb(0,0,0); }
	#search, #ignorecase { opacity:0.1; cursor:pointer; }
	#search:hover, #search.show, #ignorecase:hover, #ignorecase.show { opacity:1; }
	#subtitle { text-anchor:middle; font-color:rgb(160,160,160); }
	#title { text-anchor:middle; font-size:18px}
	#unzoom { cursor:pointer; }
	#frames > *:hover { stroke:black; stroke-width:0.5; cursor:pointer; }
	.hide { display:none; }
	.parent { opacity:0.5; }
</style>
<script type="text/ecmascript">
<![CDATA[
	"use strict";
	var details, searchbtn, unzoombtn, matchedtxt, svg, searching, currentSearchTerm, ignorecase, ignorecaseBtn;
	function init(evt) {
		details = document.getElementById("details").firstChild;
		searchbtn = document.getElementById("search");
		ignorecaseBtn = document.getElementById("ignorecase");
		unzoombtn = document.getElementById("unzoom");
		matchedtxt = document.getElementById("matched");
		svg = document.getElementsByTagName("svg")[0];
		searching = 0;
		currentSearchTerm = null;

		// use GET parameters to restore a flamegraphs state.
		var params = get_params();
		if (params.x && params.y)
			zoom(find_group(document.querySelector('[x="' + params.x + '"][y="' + params.y + '"]')));
                if (params.s) search(params.s);
	}

	// event listeners
	window.addEventListener("click", function(e) {
		var target = find_group(e.target);
		if (target) {
			if (target.nodeName == "a") {
				if (e.ctrlKey === false) return;
				e.preventDefault();
			}
			if (target.classList.contains("parent")) unzoom();
			zoom(target);
			if (!document.querySelector('.parent')) {
				clearzoom();
				return;
			}

			// set parameters for zoom state
			var el = target.querySelector("rect");
			if (el && el.attributes && el.attributes.y && el.attributes._orig_x) {
				var params = get_params()
				params.x = el.attributes._orig_x.value;
				params.y = el.attributes.y.value;
				history.replaceState(null, null, parse_params(params));
			}
		}
		else if (e.target.id == "unzoom") clearzoom();
		else if (e.target.id == "search") search_prompt();
		else if (e.target.id == "ignorecase") toggle_ignorecase();
	}, false)

	// mouse-over for info
	// show
	window.addEventListener("mouseover", function(e) {
		var target = find_group(e.target);
		if (target) details.nodeValue = "Function: " + g_to_text(target);
	}, false)

	// clear
	window.addEventListener("mouseout", function(e) {
		var target = find_group(e.target);
		if (target) details.nodeValue = ' ';
	}, false)

	// ctrl-F for search
	// ctrl-I to toggle case-sensitive search
	window.addEventListener("keydown",function (e) {
		if (e.keyCode === 114 || (e.ctrlKey && e.keyCode === 70)) {
			e.preventDefault();
			search_prompt();
		}
		else if (e.ctrlKey && e.keyCode === 73) {
			e.preventDefault();
			toggle_ignorecase();
		}
	}, false)

	// functions
	function get_params() {
		var params = {};
		var paramsarr = window.location.search.substr(1).split('&');
		for (var i = 0; i < paramsarr.length; ++i) {
			var tmp = paramsarr[i].split("=");
			if (!tmp[0] || !tmp[1]) continue;
			params[tmp[0]]  = decodeURIComponent(tmp[1]);
		}
		return params;
	}
	function parse_params(params) {
		var uri = "?";
		for (var key in params) {
			uri += key + '=' + encodeURIComponent(params[key]) + '&';
		}
		if (uri.slice(-1) == "&")
			uri = uri.substring(0, uri.length - 1);
		if (uri == '?')
			uri = window.location.href.split('?')[0];
		return uri;
	}
	function find_child(node, selector) {
		var children = node.querySelectorAll(selector);
		if (children.length) return children[0];
	}
	function find_group(node) {
		var parent = node.parentElement;
		if (!parent) return;
		if (parent.id == "frames") return node;
		return find_group(parent);
	}
	function orig_save(e, attr, val) {
		if (e.attributes["_orig_" + attr] != undefined) return;
		if (e.attributes[attr] == undefined) return;
		if (val == undefined) val = e.attributes[attr].value;
		e.setAttribute("_orig_" + attr, val);
	}
	function orig_load(e, attr) {
		if (e.attributes["_orig_"+attr] == undefined) return;
		e.attributes[attr].value = e.attributes["_orig_" + attr].value;
		e.removeAttribute("_orig_"+attr);
	}
	function g_to_text(e) {
		var text = find_child(e, "title").firstChild.nodeValue;
		return (text)
	}
	function g_to_func(e) {
		var func = g_to_text(e);
		// if there's any manipulation we want to do to the function
		// name before it's searched, do it here before returning.
		return (func);
	}
	function update_text(e) {
		var r = find_child(e, "rect");
		var t = find_child(e, "text");
		var w = parseFloat(r.attributes.width.value) -3;
		var txt = find_child(e, "title").textContent.replace(/\([^(]*\)$/,"");
		t.attributes.x.value = parseFloat(r.attributes.x.value) + 3;

		// Smaller than this size won't fit anything
		if (w < 2 * 13 * 0.59) {
			t.textContent = "";
			return;
		}

		t.textContent = txt;
		// Fit in full text width
		if (/^ *$/.test(txt) || t.getSubStringLength(0, txt.length) < w)
			return;

		for (var x = txt.length - 2; x > 0; x--) {
			if (t.getSubStringLength(0, x + 2) <= w) {
				t.textContent = txt.substring(0, x) + "..";
				return;
			}
		}
		t.textContent = "";
	}

	// zoom
	function zoom_reset(e) {
		if (e.attributes != undefined) {
			orig_load(e, "x");
			orig_load(e, "width");
		}
		if (e.childNodes == undefined) return;
		for (var i = 0, c = e.childNodes; i < c.length; i++) {
			zoom_reset(c[i]);
		}
	}
	function zoom_child(e, x, ratio) {
		if (e.attributes != undefined) {
			if (e.attributes.x != undefined) {
				orig_save(e, "x");
				e.attributes.x.value = (parseFloat(e.attributes.x.value) - x - 10) * ratio + 10;
				if (e.tagName == "text")
					e.attributes.x.value = find_child(e.parentNode, "rect[x]").attributes.x.value + 3;
			}
			if (e.attributes.width != undefined) {
				orig_save(e, "width");
				e.attributes.width.value = parseFloat(e.attributes.width.value) * ratio;
			}
		}

		if (e.childNodes == undefined) return;
		for (var i = 0, c = e.childNodes; i < c.length; i++) {
			zoom_child(c[i], x - 10, ratio);
		}
	}
	function zoom_parent(e) {
		if (e.attributes) {
			if (e.attributes.x != undefined) {
				orig_save(e, "x");
				e.attributes.x.value = 10;
			}
			if (e.attributes.width != undefined) {
				orig_save(e, "width");
				e.attributes.width.value = parseInt(svg.width.baseVal.value) - (10 * 2);
			}
		}
		if (e.childNodes == undefined) return;
		for (var i = 0, c = e.childNodes; i < c.length; i++) {
			zoom_parent(c[i]);
		}
	}
	function zoom(node) {
		var attr = find_child(node, "rect").attributes;
		var width = parseFloat(attr.width.value);
		var xmin = parseFloat(attr.x.value);
		var xmax = parseFloat(xmin + width);
		var ymin = parseFloat(attr.y.value);
		var ratio = (svg.width.baseVal.value - 2 * 10) / width;

		// XXX: Workaround for JavaScript float issues (fix me)
		var fudge = 0.0001;

		unzoombtn.classList.remove("hide");

		var el = document.getElementById("frames").children;
		for (var i = 0; i < el.length; i++) {
			var e = el[i];
			var a = find_child(e, "rect").attributes;
			var ex = parseFloat(a.x.value);
			var ew = parseFloat(a.width.value);
			var upstack;
			// Is it an ancestor
			if (1 == 0) {
				upstack = parseFloat(a.y.value) > ymin;
			} else {
				upstack = parseFloat(a.y.value) < ymin;
			}
			if (upstack) {
				// Direct ancestor
				if (ex <= xmin && (ex+ew+fudge) >= xmax) {
					e.classList.add("parent");
					zoom_parent(e);
					update_text(e);
				}
				// not in current path
				else
					e.classList.add("hide");
			}
			// Children maybe
			else {
				// no common path
				if (ex < xmin || ex + fudge >= xmax) {
					e.classList.add("hide");
				}
				else {
					zoom_child(e, xmin, ratio);
					update_text(e);
				}
			}
		}
		search();
	}
	function unzoom() {
		unzoombtn.classList.add("hide");
		var el = document.getElementById("frames").children;
		for(var i = 0; i < el.length; i++) {
			el[i].classList.remove("parent");
			el[i].classList.remove("hide");
			zoom_reset(el[i]);
			update_text(el[i]);
		}
		search();
	}
	function clearzoom() {
		unzoom();

		// remove zoom state
		var params = get_params();
		if (params.x) delete params.x;
		if (params.y) delete params.y;
		history.replaceState(null, null, parse_params(params));
	}

	// search
	function toggle_ignorecase() {
		ignorecase = !ignorecase;
		if (ignorecase) {
			ignorecaseBtn.classList.add("show");
		} else {
			ignorecaseBtn.classList.remove("show");
		}
		reset_search();
		search();
	}
	function reset_search() {
		var el = document.querySelectorAll("#frames rect");
		for (var i = 0; i < el.length; i++) {
			orig_load(el[i], "fill")
		}
		var params = get_params();
		delete params.s;
		history.replaceState(null, null, parse_params(params));
	}
	function search_prompt() {
		if (!searching) {
			var term = prompt("Enter a search term (regexp " +
			    "allowed, eg: ^ext4_)"
			    + (ignorecase ? ", ignoring case" : "")
			    + "\nPress Ctrl-i to toggle case sensitivity", "");
			if (term != null) search(term);
		} else {
			reset_search();
			searching = 0;
			currentSearchTerm = null;
			searchbtn.classList.remove("show");
			searchbtn.firstChild.nodeValue = "Search"
			matchedtxt.classList.add("hide");
			matchedtxt.firstChild.nodeValue = ""
		}
	}
	function search(term) {
		if (term) currentSearchTerm = term;

		var re = new RegExp(currentSearchTerm, ignorecase ? 'i' : '');
		var el = document.getElementById("frames").children;
		var matches = new Object();
		var maxwidth = 0;
		for (var i = 0; i < el.length; i++) {
			var e = el[i];
			var func = g_to_func(e);
			var rect = find_child(e, "rect");
			if (func == null || rect == null)
				continue;

			// Save max width. Only works as we have a root frame
			var w = parseFloat(rect.attributes.width.value);
			if (w > maxwidth)
				maxwidth = w;

			if (func.match(re)) {
				// highlight
				var x = parseFloat(rect.attributes.x.value);
				orig_save(rect, "fill");
				rect.attributes.fill.value = "rgb(230,0,230)";

				// remember matches
				if (matches[x] == undefined) {
					matches[x] = w;
				} else {
					if (w > matches[x]) {
						// overwrite with parent
						matches[x] = w;
					}
				}
				searching = 1;
			}
		}
		if (!searching)
			return;
		var params = get_params();
		params.s = currentSearchTerm;
		history.replaceState(null, null, parse_params(params));

		searchbtn.classList.add("show");
		searchbtn.firstChild.nodeValue = "Reset Search";

		// calculate percent matched, excluding vertical overlap
		var count = 0;
		var lastx = -1;
		var lastw = 0;
		var keys = Array();
		for (k in matches) {
			if (matches.hasOwnProperty(k))
				keys.push(k);
		}
		// sort the matched frames by their x location
		// ascending, then width descending
		keys.sort(function(a, b){
			return a - b;
		});
		// Step through frames saving only the biggest bottom-up frames
		// thanks to the sort order. This relies on the tree property
		// where children are always smaller than their parents.
		var fudge = 0.0001;	// JavaScript floating point
		for (var k in keys) {
			var x = parseFloat(keys[k]);
			var w = matches[keys[k]];
			if (x >= lastx + lastw - fudge) {
				count += w;
				lastx = x;
				lastw = w;
			}
		}
		// display matched percent
		matchedtxt.classList.remove("hide");
		var pct = 100 * count / maxwidth;
		if (pct != 100) pct = pct.toFixed(1)
		matchedtxt.firstChild.nodeValue = "Matched: " + pct + "%";
	}
]]>
</script>
<rect x="0.0" y="0" width="1200.0" height="427.0" fill="url(#background)"  />
<text id="title" x="600.00" y="26" >Firedrake example</text>
<text id="details" x="10.00" y="409" > </text>
<text id="unzoom" x="10.00" y="26" class="hide">Reset Zoom</text>
<text id="search" x="1090.00" y="26" >Search</text>
<text id="ignorecase" x="1174.00" y="26" >ic</text>
<text id="matched" x="1090.00" y="409" > </text>
<g id="frames">
<g >
<title>Log_Event_subkernel8_interior_facet_vert_to__exterior_facet_vert_integral_otherwise (12,879 us, 0.01%)</title><rect x="674.7" y="295" width="0.1" height="15.0" fill="rgb(0,0,0)" rx="2" ry="2" />
<text  x="677.65" y="305.5" ></text>
</g>
<g >
<title>firedrake.variational_solver.NonlinearVariationalProblem.__init__ (10,920 us, 0.01%)</title><rect x="47.8" y="87" width="0.1" height="15.0" fill="rgb(0,0,0)" rx="2" ry="2" />
<text  x="50.78" y="97.5" ></text>
</g>
<g >
<title>firedrake.extrusion_utils.make_extruded_coords (890,486 us, 0.85%)</title><rect x="20.1" y="87" width="10.0" height="15.0" fill="rgb(0,0,0)" rx="2" ry="2" />
<text  x="23.15" y="97.5" ></text>
</g>
<g >
<title>KSPSolve (17,707,046 us, 16.81%)</title><rect x="661.1" y="215" width="198.3" height="15.0" fill="rgb(0,0,0)" rx="2" ry="2" />
<text  x="664.08" y="225.5" >KSPSolve</text>
</g>
<g >
<title>pyop2.global_kernel.GlobalKernel.compile (9,898,510 us, 9.40%)</title><rect x="133.6" y="183" width="110.8" height="15.0" fill="rgb(0,0,0)" rx="2" ry="2" />
<text  x="136.57" y="193.5" >pyop2.global..</text>
</g>
<g >
<title>firedrake.pointquery_utils.to_reference_coordinates (475,307 us, 0.45%)</title><rect x="610.8" y="311" width="5.4" height="15.0" fill="rgb(0,0,0)" rx="2" ry="2" />
<text  x="613.84" y="321.5" ></text>
</g>
<g >
<title>ParLoopExecute (12,700,288 us, 12.05%)</title><rect x="870.4" y="231" width="142.2" height="15.0" fill="rgb(0,0,0)" rx="2" ry="2" />
<text  x="873.37" y="241.5" >ParLoopExecute</text>
</g>
<g >
<title>MGInterp Level (10,960 us, 0.01%; +0.01%)</title><rect x="600.8" y="247" width="0.1" height="15.0" fill="rgb(255,0,0)" rx="2" ry="2" />
<text  x="603.80" y="257.5" ></text>
</g>
<g >
<title>pyop2.global_kernel.GlobalKernel.compile (3,088,270 us, 2.93%)</title><rect x="1119.3" y="151" width="34.6" height="15.0" fill="rgb(0,0,0)" rx="2" ry="2" />
<text  x="1122.31" y="161.5" >py..</text>
</g>
<g >
<title>ParLoopExecute (855,379 us, 0.81%)</title><rect x="20.5" y="103" width="9.6" height="15.0" fill="rgb(0,0,0)" rx="2" ry="2" />
<text  x="23.54" y="113.5" ></text>
</g>
<g >
<title>pyop2.global_kernel.GlobalKernel.compile (10,729,868 us, 10.18%)</title><rect x="457.7" y="199" width="120.2" height="15.0" fill="rgb(0,0,0)" rx="2" ry="2" />
<text  x="460.69" y="209.5" >pyop2.global_..</text>
</g>
<g >
<title>ParLoopExecute (5,144,844 us, 4.88%)</title><rect x="47.9" y="151" width="57.6" height="15.0" fill="rgb(0,0,0)" rx="2" ry="2" />
<text  x="50.90" y="161.5" >ParLo..</text>
</g>
<g >
<title>Parloop_Cells_wrap_par_loop_kernel (895,826 us, 0.85%)</title><rect x="440.2" y="199" width="10.1" height="15.0" fill="rgb(0,0,0)" rx="2" ry="2" />
<text  x="443.24" y="209.5" ></text>
</g>
<g >
<title>PCApply (39,838,846 us, 37.81%)</title><rect x="599.4" y="167" width="446.2" height="15.0" fill="rgb(0,0,0)" rx="2" ry="2" />
<text  x="602.44" y="177.5" >PCApply</text>
</g>
<g >
<title>firedrake.mg.embedded.TransferManager.op (2,490,500 us, 2.36%)</title><rect x="616.5" y="279" width="27.9" height="15.0" fill="rgb(0,0,0)" rx="2" ry="2" />
<text  x="619.52" y="289.5" >f..</text>
</g>
<g >
<title>firedrake.variational_solver.LinearVariationalProblem.__init__ (10,920 us, 0.01%)</title><rect x="47.8" y="71" width="0.1" height="15.0" fill="rgb(0,0,0)" rx="2" ry="2" />
<text  x="50.78" y="81.5" ></text>
</g>
<g >
<title>KSPSolve (94,941,373 us, 90.11%)</title><rect x="47.9" y="103" width="1063.3" height="15.0" fill="rgb(0,0,0)" rx="2" ry="2" />
<text  x="50.90" y="113.5" >KSPSolve</text>
</g>
<g >
<title>Parloop_Cells_wrap_form0_cell_integral_otherwise (2,890,292 us, 2.74%)</title><rect x="47.9" y="167" width="32.4" height="15.0" fill="rgb(0,0,0)" rx="2" ry="2" />
<text  x="50.90" y="177.5" >Pa..</text>
</g>
<g >
<title>firedrake.interpolation.make_interpolator (25,304 us, 0.02%)</title><rect x="1106.9" y="167" width="0.3" height="15.0" fill="rgb(0,0,0)" rx="2" ry="2" />
<text  x="1109.92" y="177.5" ></text>
</g>
<g >
<title>ParLoopExecute (659,406 us, 0.63%)</title><rect x="1111.9" y="151" width="7.4" height="15.0" fill="rgb(0,0,0)" rx="2" ry="2" />
<text  x="1114.92" y="161.5" ></text>
</g>
<g >
<title>firedrake (105,356,912 us, 100.00%)</title><rect x="10.0" y="55" width="1180.0" height="15.0" fill="rgb(0,0,0)" rx="2" ry="2" />
<text  x="13.00" y="65.5" >firedrake</text>
</g>
<g >
<title>MatMult (17,707,046 us, 16.81%)</title><rect x="661.1" y="231" width="198.3" height="15.0" fill="rgb(0,0,0)" rx="2" ry="2" />
<text  x="664.08" y="241.5" >MatMult</text>
</g>
<g >
<title>Log_Event_subkernel8_interior_facet_vert_to__exterior_facet_vert_integral_otherwise (21,181 us, 0.02%)</title><rect x="600.2" y="279" width="0.2" height="15.0" fill="rgb(0,0,0)" rx="2" ry="2" />
<text  x="603.16" y="289.5" ></text>
</g>
<g >
<title>MatMult (1,360,860 us, 1.29%)</title><rect x="600.9" y="263" width="15.3" height="15.0" fill="rgb(0,0,0)" rx="2" ry="2" />
<text  x="603.93" y="273.5" ></text>
</g>
<g >
<title>PCApply (88,855,813 us, 84.34%)</title><rect x="116.1" y="119" width="995.1" height="15.0" fill="rgb(0,0,0)" rx="2" ry="2" />
<text  x="119.06" y="129.5" >PCApply</text>
</g>
<g >
<title>pyop2.global_kernel.GlobalKernel.compile (867,342 us, 0.82%)</title><rect x="123.9" y="215" width="9.7" height="15.0" fill="rgb(0,0,0)" rx="2" ry="2" />
<text  x="126.85" y="225.5" ></text>
</g>
<g >
<title>PCApply (5,503,931 us, 5.22%)</title><rect x="599.4" y="183" width="61.7" height="15.0" fill="rgb(0,0,0)" rx="2" ry="2" />
<text  x="602.44" y="193.5" >PCApply</text>
</g>
<g >
<title>firedrake.matrix_free.operators.ImplicitMatrixContext.mult (20,880 us, 0.02%)</title><rect x="599.2" y="183" width="0.2" height="15.0" fill="rgb(0,0,0)" rx="2" ry="2" />
<text  x="602.20" y="193.5" ></text>
</g>
<g >
<title>firedrake.parloops.par_loop (867,342 us, 0.82%)</title><rect x="123.9" y="167" width="9.7" height="15.0" fill="rgb(0,0,0)" rx="2" ry="2" />
<text  x="126.85" y="177.5" ></text>
</g>
<g >
<title>firedrake.functionspacedata.FunctionSpaceData.__init__ (22,934 us, 0.02%)</title><rect x="30.1" y="119" width="0.3" height="15.0" fill="rgb(0,0,0)" rx="2" ry="2" />
<text  x="33.12" y="129.5" ></text>
</g>
<g >
<title>firedrake.matrix_free.operators.ImplicitMatrixContext.mult (17,707,046 us, 16.81%)</title><rect x="661.1" y="247" width="198.3" height="15.0" fill="rgb(0,0,0)" rx="2" ry="2" />
<text  x="664.08" y="257.5" >firedrake.matrix_free.o..</text>
</g>
<g >
<title>HybridBreak (895,826 us, 0.85%)</title><rect x="440.2" y="151" width="10.1" height="15.0" fill="rgb(0,0,0)" rx="2" ry="2" />
<text  x="443.24" y="161.5" ></text>
</g>
<g >
<title>firedrake.matrix_free.operators.ImplicitMatrixContext.mult (20,622 us, 0.02%)</title><rect x="660.9" y="231" width="0.2" height="15.0" fill="rgb(0,0,0)" rx="2" ry="2" />
<text  x="663.85" y="241.5" ></text>
</g>
<g >
<title>firedrake.parloops.par_loop (659,406 us, 0.63%)</title><rect x="1111.9" y="135" width="7.4" height="15.0" fill="rgb(0,0,0)" rx="2" ry="2" />
<text  x="1114.92" y="145.5" ></text>
</g>
<g >
<title>Parloop_Cells_wrap_pyop2_kernel_uniform_extrusion (855,379 us, 0.81%)</title><rect x="20.5" y="119" width="9.6" height="15.0" fill="rgb(0,0,0)" rx="2" ry="2" />
<text  x="23.54" y="129.5" ></text>
</g>
<g >
<title>firedrake.pointquery_utils.to_reference_coordinates (495,062 us, 0.47%)</title><rect x="638.9" y="311" width="5.5" height="15.0" fill="rgb(0,0,0)" rx="2" ry="2" />
<text  x="641.86" y="321.5" ></text>
</g>
<g >
<title>SNESSolve (101,972,677 us, 96.79%)</title><rect x="47.9" y="87" width="1142.1" height="15.0" fill="rgb(0,0,0)" rx="2" ry="2" />
<text  x="50.90" y="97.5" >SNESSolve</text>
</g>
<g >
<title>firedrake.formmanipulation.ExtractSubBlock.argument (11,389 us, 0.01%)</title><rect x="1111.6" y="167" width="0.2" height="15.0" fill="rgb(0,0,0)" rx="2" ry="2" />
<text  x="1114.65" y="177.5" ></text>
</g>
<g >
<title>HybridProject (867,342 us, 0.82%)</title><rect x="123.9" y="151" width="9.7" height="15.0" fill="rgb(0,0,0)" rx="2" ry="2" />
<text  x="126.85" y="161.5" ></text>
</g>
<g >
<title>Parloop_Cells_wrap_par_loop_kernel (867,342 us, 0.82%)</title><rect x="123.9" y="199" width="9.7" height="15.0" fill="rgb(0,0,0)" rx="2" ry="2" />
<text  x="126.85" y="209.5" ></text>
</g>
<g >
<title>MGInterp Level 1 (1,360,860 us, 1.29%)</title><rect x="600.9" y="247" width="15.3" height="15.0" fill="rgb(0,0,0)" rx="2" ry="2" />
<text  x="603.93" y="257.5" ></text>
</g>
<g >
<title>PCSetUp (5,858,584 us, 5.56%)</title><rect x="1045.6" y="151" width="65.6" height="15.0" fill="rgb(0,0,0)" rx="2" ry="2" />
<text  x="1048.63" y="161.5" >PCSetUp</text>
</g>
<g >
<title>firedrake.formmanipulation.split_form (11,389 us, 0.01%)</title><rect x="1111.6" y="135" width="0.2" height="15.0" fill="rgb(0,0,0)" rx="2" ry="2" />
<text  x="1114.65" y="145.5" ></text>
</g>
<g >
<title>firedrake.ufl_expr.adjoint (10,920 us, 0.01%)</title><rect x="47.8" y="103" width="0.1" height="15.0" fill="rgb(0,0,0)" rx="2" ry="2" />
<text  x="50.78" y="113.5" ></text>
</g>
<g >
<title>pyop2.global_kernel.GlobalKernel.compile (928,019 us, 0.88%)</title><rect x="1045.8" y="199" width="10.4" height="15.0" fill="rgb(0,0,0)" rx="2" ry="2" />
<text  x="1048.81" y="209.5" ></text>
</g>
<g >
<title>MatResidual (20,622 us, 0.02%)</title><rect x="660.9" y="199" width="0.2" height="15.0" fill="rgb(0,0,0)" rx="2" ry="2" />
<text  x="663.85" y="209.5" ></text>
</g>
<g >
<title>Parloop_set_#x7f9426726320_wrap_pyop2_kernel_inject (582,519 us, 0.55%)</title><rect x="620.4" y="327" width="6.5" height="15.0" fill="rgb(0,0,0)" rx="2" ry="2" />
<text  x="623.41" y="337.5" ></text>
</g>
<g >
<title>firedrake.mg.embedded.TransferManager.op (1,360,860 us, 1.29%)</title><rect x="600.9" y="279" width="15.3" height="15.0" fill="rgb(0,0,0)" rx="2" ry="2" />
<text  x="603.93" y="289.5" ></text>
</g>
<g >
<title>RecoverFirstElim (15,510,879 us, 14.72%)</title><rect x="244.4" y="151" width="173.8" height="15.0" fill="rgb(0,0,0)" rx="2" ry="2" />
<text  x="247.43" y="161.5" >RecoverFirstElim</text>
</g>
<g >
<title>firedrake.interpolation.make_interpolator (36,175 us, 0.03%)</title><rect x="638.5" y="327" width="0.4" height="15.0" fill="rgb(0,0,0)" rx="2" ry="2" />
<text  x="641.46" y="337.5" ></text>
</g>
<g >
<title>pyop2.global_kernel.GlobalKernel.compile (2,254,552 us, 2.14%)</title><rect x="80.3" y="183" width="25.2" height="15.0" fill="rgb(0,0,0)" rx="2" ry="2" />
<text  x="83.27" y="193.5" >p..</text>
</g>
<g >
<title>pyop2.global_kernel.GlobalKernel.compile (1,028,984 us, 0.98%)</title><rect x="626.9" y="375" width="11.6" height="15.0" fill="rgb(0,0,0)" rx="2" ry="2" />
<text  x="629.94" y="385.5" ></text>
</g>
<g >
<title>DMCoarsen (2,509,346 us, 2.38%)</title><rect x="616.3" y="247" width="28.1" height="15.0" fill="rgb(0,0,0)" rx="2" ry="2" />
<text  x="619.30" y="257.5" >D..</text>
</g>
<g >
<title>MatMultTranspose (1,467,896 us, 1.39%)</title><rect x="644.4" y="247" width="16.5" height="15.0" fill="rgb(0,0,0)" rx="2" ry="2" />
<text  x="647.41" y="257.5" ></text>
</g>
<g >
<title>Parloop_Cells_wrap_wrap_slate_loopy_knl_3 (12,700,288 us, 12.05%)</title><rect x="870.4" y="247" width="142.2" height="15.0" fill="rgb(0,0,0)" rx="2" ry="2" />
<text  x="873.37" y="257.5" >Parloop_Cells_wr..</text>
</g>
<g >
<title>PCSetUp (353,500 us, 0.34%)</title><rect x="1041.7" y="199" width="3.9" height="15.0" fill="rgb(0,0,0)" rx="2" ry="2" />
<text  x="1044.67" y="209.5" ></text>
</g>
<g >
<title>Parloop_set_#x7f941dd6b160_wrap_pyop2_kernel_restrict (686,736 us, 0.65%)</title><rect x="644.7" y="295" width="7.6" height="15.0" fill="rgb(0,0,0)" rx="2" ry="2" />
<text  x="647.65" y="305.5" ></text>
</g>
<g >
<title>Parloop_Cells_wrap_par_loop_kernel (659,406 us, 0.63%)</title><rect x="1111.9" y="167" width="7.4" height="15.0" fill="rgb(0,0,0)" rx="2" ry="2" />
<text  x="1114.92" y="177.5" ></text>
</g>
<g >
<title>Parloop_Cells_wrap_expression_kernel (928,019 us, 0.88%)</title><rect x="1045.8" y="183" width="10.4" height="15.0" fill="rgb(0,0,0)" rx="2" ry="2" />
<text  x="1048.81" y="193.5" ></text>
</g>
<g >
<title>CreateFunctionSpace (22,934 us, 0.02%)</title><rect x="30.1" y="71" width="0.3" height="15.0" fill="rgb(0,0,0)" rx="2" ry="2" />
<text  x="33.12" y="81.5" ></text>
</g>
<g >
<title>Log_Event_subkernel10_interior_facet_vert_to__exterior_facet_vert_integral_otherwise (12,949 us, 0.01%)</title><rect x="674.5" y="295" width="0.2" height="15.0" fill="rgb(0,0,0)" rx="2" ry="2" />
<text  x="677.51" y="305.5" ></text>
</g>
<g >
<title>firedrake.parloops.par_loop (895,826 us, 0.85%)</title><rect x="440.2" y="167" width="10.1" height="15.0" fill="rgb(0,0,0)" rx="2" ry="2" />
<text  x="443.24" y="177.5" ></text>
</g>
<g >
<title>firedrake.__init__ (1,554,084 us, 1.48%)</title><rect x="30.4" y="71" width="17.4" height="15.0" fill="rgb(0,0,0)" rx="2" ry="2" />
<text  x="33.38" y="81.5" ></text>
</g>
<g >
<title>ParLoopExecute (686,736 us, 0.65%)</title><rect x="644.7" y="279" width="7.6" height="15.0" fill="rgb(0,0,0)" rx="2" ry="2" />
<text  x="647.65" y="289.5" ></text>
</g>
<g >
<title>pyop2.global_kernel.GlobalKernel.compile (593,436 us, 0.56%)</title><rect x="604.2" y="343" width="6.6" height="15.0" fill="rgb(0,0,0)" rx="2" ry="2" />
<text  x="607.20" y="353.5" ></text>
</g>
<g >
<title>firedrake.interpolation.make_interpolator (13,017 us, 0.01%)</title><rect x="1111.8" y="135" width="0.1" height="15.0" fill="rgb(0,0,0)" rx="2" ry="2" />
<text  x="1114.77" y="145.5" ></text>
</g>
<g >
<title>pyop2.global_kernel.GlobalKernel.compile (11,984,779 us, 11.38%)</title><rect x="255.0" y="199" width="134.2" height="15.0" fill="rgb(0,0,0)" rx="2" ry="2" />
<text  x="258.00" y="209.5" >pyop2.global_ke..</text>
</g>
<g >
<title>Log_Event_slate_loopy_knl_7 (13,394 us, 0.01%)</title><rect x="599.8" y="279" width="0.1" height="15.0" fill="rgb(0,0,0)" rx="2" ry="2" />
<text  x="602.77" y="289.5" ></text>
</g>
<g >
<title>SCSolve (45,718,310 us, 43.39%)</title><rect x="599.2" y="135" width="512.0" height="15.0" fill="rgb(0,0,0)" rx="2" ry="2" />
<text  x="602.20" y="145.5" >SCSolve</text>
</g>
<g >
<title>PCSetUp (3,989,565 us, 3.79%)</title><rect x="616.2" y="231" width="44.7" height="15.0" fill="rgb(0,0,0)" rx="2" ry="2" />
<text  x="619.17" y="241.5" >PCS..</text>
</g>
<g >
<title>ParLoopExecute (10,729,868 us, 10.18%)</title><rect x="457.7" y="167" width="120.2" height="15.0" fill="rgb(0,0,0)" rx="2" ry="2" />
<text  x="460.69" y="177.5" >ParLoopExecute</text>
</g>
<g >
<title>Parloop_set_#x7f9426726320_wrap_pyop2_kernel_prolong (593,436 us, 0.56%)</title><rect x="604.2" y="327" width="6.6" height="15.0" fill="rgb(0,0,0)" rx="2" ry="2" />
<text  x="607.20" y="337.5" ></text>
</g>
<g >
<title>ParLoopExecute (895,826 us, 0.85%)</title><rect x="440.2" y="183" width="10.1" height="15.0" fill="rgb(0,0,0)" rx="2" ry="2" />
<text  x="443.24" y="193.5" ></text>
</g>
<g >
<title>firedrake.mg.interface.prolong (1,360,860 us, 1.29%)</title><rect x="600.9" y="295" width="15.3" height="15.0" fill="rgb(0,0,0)" rx="2" ry="2" />
<text  x="603.93" y="305.5" ></text>
</g>
<g >
<title>Parloop_Cells_wrap_form1_cell_integral_otherwise (2,254,552 us, 2.14%)</title><rect x="80.3" y="167" width="25.2" height="15.0" fill="rgb(0,0,0)" rx="2" ry="2" />
<text  x="83.27" y="177.5" >P..</text>
</g>
<g >
<title>CreateExtMesh (902,096 us, 0.86%)</title><rect x="20.0" y="71" width="10.1" height="15.0" fill="rgb(0,0,0)" rx="2" ry="2" />
<text  x="23.02" y="81.5" ></text>
</g>
<g >
<title>firedrake.tsfc_interface.compile_form (940,716 us, 0.89%)</title><rect x="105.5" y="151" width="10.6" height="15.0" fill="rgb(0,0,0)" rx="2" ry="2" />
<text  x="108.53" y="161.5" ></text>
</g>
<g >
<title>pyop2.global_kernel.GlobalKernel.compile (2,013,747 us, 1.91%)</title><rect x="1153.9" y="151" width="22.5" height="15.0" fill="rgb(0,0,0)" rx="2" ry="2" />
<text  x="1156.89" y="161.5" ></text>
</g>
<g >
<title>Log_Event_subkernel10_interior_facet_vert_to__exterior_facet_vert_integral_otherwise (20,976 us, 0.02%)</title><rect x="599.9" y="279" width="0.3" height="15.0" fill="rgb(0,0,0)" rx="2" ry="2" />
<text  x="602.92" y="289.5" ></text>
</g>
<g >
<title>Parloop_Cells_wrap_form00_cell_integral_otherwise (4,528,053 us, 4.30%)</title><rect x="1056.2" y="183" width="50.7" height="15.0" fill="rgb(0,0,0)" rx="2" ry="2" />
<text  x="1059.20" y="193.5" >Parl..</text>
</g>
<g >
<title>Parloop_Cells_wrap_wrap_slate_loopy_knl_7 (20,880 us, 0.02%)</title><rect x="599.2" y="215" width="0.2" height="15.0" fill="rgb(0,0,0)" rx="2" ry="2" />
<text  x="602.20" y="225.5" ></text>
</g>
<g >
<title>firedrake.variational_solver.NonlinearVariationalSolver.solve (101,972,677 us, 96.79%)</title><rect x="47.9" y="71" width="1142.1" height="15.0" fill="rgb(0,0,0)" rx="2" ry="2" />
<text  x="50.90" y="81.5" >firedrake.variational_solver.NonlinearVariationalSolver.solve</text>
</g>
<g >
<title>KSPSolve (39,859,726 us, 37.83%)</title><rect x="599.2" y="151" width="446.4" height="15.0" fill="rgb(0,0,0)" rx="2" ry="2" />
<text  x="602.20" y="161.5" >KSPSolve</text>
</g>
<g >
<title>firedrake.tsfc_interface.compile_form (2,610,902 us, 2.48%)</title><rect x="830.2" y="263" width="29.2" height="15.0" fill="rgb(0,0,0)" rx="2" ry="2" />
<text  x="833.16" y="273.5" >f..</text>
</g>
<g >
<title>Parloop_Cells_wrap_wrap_slate_loopy_knl_18 (9,898,510 us, 9.40%)</title><rect x="133.6" y="167" width="110.8" height="15.0" fill="rgb(0,0,0)" rx="2" ry="2" />
<text  x="136.57" y="177.5" >Parloop_Cell..</text>
</g>
<g >
<title>all (105,356,912 us, 100%)</title><rect x="10.0" y="39" width="1180.0" height="15.0" fill="rgb(0,0,0)" rx="2" ry="2" />
<text  x="13.00" y="49.5" ></text>
</g>
<g >
<title>MatMult (20,880 us, 0.02%)</title><rect x="599.2" y="167" width="0.2" height="15.0" fill="rgb(0,0,0)" rx="2" ry="2" />
<text  x="602.20" y="177.5" ></text>
</g>
<g >
<title>pyop2.global_kernel.GlobalKernel.compile (686,736 us, 0.65%)</title><rect x="644.7" y="311" width="7.6" height="15.0" fill="rgb(0,0,0)" rx="2" ry="2" />
<text  x="647.65" y="321.5" ></text>
</g>
<g >
<title>firedrake.matrix_free.operators.ImplicitMatrixContext.mult (103,446 us, 0.10%)</title><rect x="599.4" y="231" width="1.2" height="15.0" fill="rgb(0,0,0)" rx="2" ry="2" />
<text  x="602.44" y="241.5" ></text>
</g>
<g >
<title>Parloop_Cells_wrap_wrap_slate_loopy_knl_0 (10,729,868 us, 10.18%)</title><rect x="457.7" y="183" width="120.2" height="15.0" fill="rgb(0,0,0)" rx="2" ry="2" />
<text  x="460.69" y="193.5" >Parloop_Cells..</text>
</g>
<g >
<title>firedrake.matrix_free.operators.ImplicitMatrixContext.mult (6,085,560 us, 5.78%)</title><rect x="47.9" y="135" width="68.2" height="15.0" fill="rgb(0,0,0)" rx="2" ry="2" />
<text  x="50.90" y="145.5" >firedr..</text>
</g>
<g >
<title>firedrake.interpolation.interpolate (1,065,159 us, 1.01%)</title><rect x="626.9" y="311" width="12.0" height="15.0" fill="rgb(0,0,0)" rx="2" ry="2" />
<text  x="629.94" y="321.5" ></text>
</g>
<g >
<title>firedrake.tsfc_interface.compile_form (1,209,975 us, 1.15%)</title><rect x="1176.4" y="119" width="13.6" height="15.0" fill="rgb(0,0,0)" rx="2" ry="2" />
<text  x="1179.45" y="129.5" ></text>
</g>
<g >
<title>PCApply (5,379,863 us, 5.11%)</title><rect x="600.6" y="215" width="60.3" height="15.0" fill="rgb(0,0,0)" rx="2" ry="2" />
<text  x="603.60" y="225.5" >PCApply</text>
</g>
<g >
<title>PCApply (1,390,298 us, 1.32%)</title><rect x="600.6" y="231" width="15.6" height="15.0" fill="rgb(0,0,0)" rx="2" ry="2" />
<text  x="603.60" y="241.5" ></text>
</g>
<g >
<title>SCForwardElim (14,193,395 us, 13.47%)</title><rect x="440.2" y="135" width="159.0" height="15.0" fill="rgb(0,0,0)" rx="2" ry="2" />
<text  x="443.24" y="145.5" >SCForwardElim</text>
</g>
<g >
<title>firedrake.tsfc_interface.compile_form (2,582,345 us, 2.45%)</title><rect x="389.2" y="167" width="29.0" height="15.0" fill="rgb(0,0,0)" rx="2" ry="2" />
<text  x="392.23" y="177.5" >f..</text>
</g>
<g >
<title>firedrake.tsfc_interface.compile_form (1,971,918 us, 1.87%)</title><rect x="418.2" y="151" width="22.0" height="15.0" fill="rgb(0,0,0)" rx="2" ry="2" />
<text  x="421.15" y="161.5" ></text>
</g>
<g >
<title>ParLoopExecute (13,923,630 us, 13.22%)</title><rect x="674.2" y="263" width="156.0" height="15.0" fill="rgb(0,0,0)" rx="2" ry="2" />
<text  x="677.21" y="273.5" >ParLoopExecute</text>
</g>
<g >
<title>Log_Event_subkernel9_cell_to__cell_integral_otherwise (18,146 us, 0.02%)</title><rect x="600.4" y="279" width="0.2" height="15.0" fill="rgb(0,0,0)" rx="2" ry="2" />
<text  x="603.39" y="289.5" ></text>
</g>
<g >
<title>KSPSolve (5,483,309 us, 5.20%)</title><rect x="599.4" y="199" width="61.5" height="15.0" fill="rgb(0,0,0)" rx="2" ry="2" />
<text  x="602.44" y="209.5" >KSPSolve</text>
</g>
<g >
<title>Parloop_Cells_wrap_wrap_slate_loopy_knl_7 (103,446 us, 0.10%)</title><rect x="599.4" y="263" width="1.2" height="15.0" fill="rgb(0,0,0)" rx="2" ry="2" />
<text  x="602.44" y="273.5" ></text>
</g>
<g >
<title>PCSetUp (34,334,915 us, 32.59%)</title><rect x="661.1" y="183" width="384.5" height="15.0" fill="rgb(0,0,0)" rx="2" ry="2" />
<text  x="664.08" y="193.5" >PCSetUp</text>
</g>
<g >
<title>ParLoopExecute (593,436 us, 0.56%)</title><rect x="604.2" y="311" width="6.6" height="15.0" fill="rgb(0,0,0)" rx="2" ry="2" />
<text  x="607.20" y="321.5" ></text>
</g>
<g >
<title>Parloop_Cells_wrap_wrap_slate_loopy_knl_11 (11,984,779 us, 11.38%)</title><rect x="255.0" y="183" width="134.2" height="15.0" fill="rgb(0,0,0)" rx="2" ry="2" />
<text  x="258.00" y="193.5" >Parloop_Cells_w..</text>
</g>
<g >
<title>MatMult (20,622 us, 0.02%)</title><rect x="660.9" y="215" width="0.2" height="15.0" fill="rgb(0,0,0)" rx="2" ry="2" />
<text  x="663.85" y="225.5" ></text>
</g>
<g >
<title>pyop2.global_kernel.GlobalKernel.compile (659,406 us, 0.63%)</title><rect x="1111.9" y="183" width="7.4" height="15.0" fill="rgb(0,0,0)" rx="2" ry="2" />
<text  x="1114.92" y="193.5" ></text>
</g>
<g >
<title>PCSetUp (719,312 us, 0.68%)</title><rect x="1111.2" y="103" width="8.1" height="15.0" fill="rgb(0,0,0)" rx="2" ry="2" />
<text  x="1114.25" y="113.5" ></text>
</g>
<g >
<title>firedrake.formmanipulation.ExtractSubBlock.split (11,389 us, 0.01%)</title><rect x="1111.6" y="151" width="0.2" height="15.0" fill="rgb(0,0,0)" rx="2" ry="2" />
<text  x="1114.65" y="161.5" ></text>
</g>
<g >
<title>pyop2.global_kernel.GlobalKernel.compile (4,528,053 us, 4.30%)</title><rect x="1056.2" y="199" width="50.7" height="15.0" fill="rgb(0,0,0)" rx="2" ry="2" />
<text  x="1059.20" y="209.5" >pyop..</text>
</g>
<g >
<title>ParLoopExecute (20,880 us, 0.02%)</title><rect x="599.2" y="199" width="0.2" height="15.0" fill="rgb(0,0,0)" rx="2" ry="2" />
<text  x="602.20" y="209.5" ></text>
</g>
<g >
<title>HybridRHS (13,297,569 us, 12.62%)</title><rect x="450.3" y="151" width="148.9" height="15.0" fill="rgb(0,0,0)" rx="2" ry="2" />
<text  x="453.27" y="161.5" >HybridRHS</text>
</g>
<g >
<title>firedrake.interpolation.Interpolator.interpolate (1,028,984 us, 0.98%)</title><rect x="626.9" y="327" width="11.6" height="15.0" fill="rgb(0,0,0)" rx="2" ry="2" />
<text  x="629.94" y="337.5" ></text>
</g>
<g >
<title>ParLoopExecute (5,456,072 us, 5.18%)</title><rect x="1045.8" y="167" width="61.1" height="15.0" fill="rgb(0,0,0)" rx="2" ry="2" />
<text  x="1048.81" y="177.5" >ParLo..</text>
</g>
<g >
<title>KSPSetUp (33,981,415 us, 32.25%)</title><rect x="661.1" y="199" width="380.6" height="15.0" fill="rgb(0,0,0)" rx="2" ry="2" />
<text  x="664.08" y="209.5" >KSPSetUp</text>
</g>
<g >
<title>firedrake.mg.interface.inject (2,490,500 us, 2.36%)</title><rect x="616.5" y="295" width="27.9" height="15.0" fill="rgb(0,0,0)" rx="2" ry="2" />
<text  x="619.52" y="305.5" >f..</text>
</g>
<g >
<title>MatMult (103,446 us, 0.10%)</title><rect x="599.4" y="215" width="1.2" height="15.0" fill="rgb(0,0,0)" rx="2" ry="2" />
<text  x="602.44" y="225.5" ></text>
</g>
<g >
<title>firedrake.tsfc_interface.compile_form (2,594,823 us, 2.46%)</title><rect x="1012.6" y="231" width="29.1" height="15.0" fill="rgb(0,0,0)" rx="2" ry="2" />
<text  x="1015.61" y="241.5" >f..</text>
</g>
<g >
<title>firedrake.functionspaceimpl.FunctionSpace.__init__ (22,934 us, 0.02%)</title><rect x="30.1" y="87" width="0.3" height="15.0" fill="rgb(0,0,0)" rx="2" ry="2" />
<text  x="33.12" y="97.5" ></text>
</g>
<g >
<title>ParLoopExecute (103,446 us, 0.10%)</title><rect x="599.4" y="247" width="1.2" height="15.0" fill="rgb(0,0,0)" rx="2" ry="2" />
<text  x="602.44" y="257.5" ></text>
</g>
<g >
<title>Parloop_Cells_wrap_form0_cell_integral_otherwise (3,088,270 us, 2.93%)</title><rect x="1119.3" y="135" width="34.6" height="15.0" fill="rgb(0,0,0)" rx="2" ry="2" />
<text  x="1122.31" y="145.5" >Pa..</text>
</g>
<g >
<title>pyop2.global_kernel.GlobalKernel.compile (13,860,517 us, 13.16%)</title><rect x="674.9" y="295" width="155.3" height="15.0" fill="rgb(0,0,0)" rx="2" ry="2" />
<text  x="677.92" y="305.5" >pyop2.global_kerne..</text>
</g>
<g >
<title>Parloop_Cells_wrap_form1_cell_integral_otherwise (2,013,747 us, 1.91%)</title><rect x="1153.9" y="135" width="22.5" height="15.0" fill="rgb(0,0,0)" rx="2" ry="2" />
<text  x="1156.89" y="145.5" ></text>
</g>
<g >
<title>ParLoopExecute (582,519 us, 0.55%)</title><rect x="620.4" y="311" width="6.5" height="15.0" fill="rgb(0,0,0)" rx="2" ry="2" />
<text  x="623.41" y="321.5" ></text>
</g>
<g >
<title>ParLoopExecute (11,984,779 us, 11.38%)</title><rect x="255.0" y="167" width="134.2" height="15.0" fill="rgb(0,0,0)" rx="2" ry="2" />
<text  x="258.00" y="177.5" >ParLoopExecute</text>
</g>
<g >
<title>Parloop_Cells_wrap_expression_kernel (1,028,984 us, 0.98%)</title><rect x="626.9" y="359" width="11.6" height="15.0" fill="rgb(0,0,0)" rx="2" ry="2" />
<text  x="629.94" y="369.5" ></text>
</g>
<g >
<title>firedrake.tsfc_interface.compile_form (353,500 us, 0.34%)</title><rect x="1041.7" y="215" width="3.9" height="15.0" fill="rgb(0,0,0)" rx="2" ry="2" />
<text  x="1044.67" y="225.5" ></text>
</g>
<g >
<title>ParLoopExecute (5,102,017 us, 4.84%)</title><rect x="1119.3" y="119" width="57.1" height="15.0" fill="rgb(0,0,0)" rx="2" ry="2" />
<text  x="1122.31" y="129.5" >ParLo..</text>
</g>
<g >
<title>firedrake.mg.interface.restrict (1,467,896 us, 1.39%)</title><rect x="644.4" y="263" width="16.5" height="15.0" fill="rgb(0,0,0)" rx="2" ry="2" />
<text  x="647.41" y="273.5" ></text>
</g>
<g >
<title>firedrake.functionspacedata.get_shared_data (22,934 us, 0.02%)</title><rect x="30.1" y="103" width="0.3" height="15.0" fill="rgb(0,0,0)" rx="2" ry="2" />
<text  x="33.12" y="113.5" ></text>
</g>
<g >
<title>firedrake.tsfc_interface.compile_form (1,905,448 us, 1.81%)</title><rect x="577.9" y="167" width="21.3" height="15.0" fill="rgb(0,0,0)" rx="2" ry="2" />
<text  x="580.86" y="177.5" ></text>
</g>
<g >
<title>PCSetUp (16,274,369 us, 15.45%)</title><rect x="859.4" y="215" width="182.3" height="15.0" fill="rgb(0,0,0)" rx="2" ry="2" />
<text  x="862.40" y="225.5" >PCSetUp</text>
</g>
<g >
<title>HybridInit (719,312 us, 0.68%)</title><rect x="1111.2" y="119" width="8.1" height="15.0" fill="rgb(0,0,0)" rx="2" ry="2" />
<text  x="1114.25" y="129.5" ></text>
</g>
<g >
<title>pyop2.global_kernel.GlobalKernel.compile (895,826 us, 0.85%)</title><rect x="440.2" y="215" width="10.1" height="15.0" fill="rgb(0,0,0)" rx="2" ry="2" />
<text  x="443.24" y="225.5" ></text>
</g>
<g >
<title>pyop2.global_kernel.GlobalKernel.compile (2,890,292 us, 2.74%)</title><rect x="47.9" y="183" width="32.4" height="15.0" fill="rgb(0,0,0)" rx="2" ry="2" />
<text  x="50.90" y="193.5" >py..</text>
</g>
<g >
<title>Parloop_Cells_wrap_wrap_slate_loopy_knl_7 (20,622 us, 0.02%)</title><rect x="660.9" y="263" width="0.2" height="15.0" fill="rgb(0,0,0)" rx="2" ry="2" />
<text  x="663.85" y="273.5" ></text>
</g>
<g >
<title>ParLoopExecute (867,342 us, 0.82%)</title><rect x="123.9" y="183" width="9.7" height="15.0" fill="rgb(0,0,0)" rx="2" ry="2" />
<text  x="126.85" y="193.5" ></text>
</g>
<g >
<title>Log_Event_subkernel9_cell_to__cell_integral_otherwise (11,153 us, 0.01%)</title><rect x="674.8" y="295" width="0.1" height="15.0" fill="rgb(0,0,0)" rx="2" ry="2" />
<text  x="677.80" y="305.5" ></text>
</g>
<g >
<title>ParLoopExecute (1,028,984 us, 0.98%)</title><rect x="626.9" y="343" width="11.6" height="15.0" fill="rgb(0,0,0)" rx="2" ry="2" />
<text  x="629.94" y="353.5" ></text>
</g>
<g >
<title>SNESFunctionEval (6,311,992 us, 5.99%)</title><rect x="1119.3" y="103" width="70.7" height="15.0" fill="rgb(0,0,0)" rx="2" ry="2" />
<text  x="1122.31" y="113.5" >SNESFun..</text>
</g>
<g >
<title>MatMult (6,085,560 us, 5.78%)</title><rect x="47.9" y="119" width="68.2" height="15.0" fill="rgb(0,0,0)" rx="2" ry="2" />
<text  x="50.90" y="129.5" >MatMult</text>
</g>
<g >
<title>Parloop_Cells_wrap_wrap_slate_loopy_knl_7 (13,923,630 us, 13.22%)</title><rect x="674.2" y="279" width="156.0" height="15.0" fill="rgb(0,0,0)" rx="2" ry="2" />
<text  x="677.21" y="289.5" >Parloop_Cells_wrap..</text>
</g>
<g >
<title>pyop2.global_kernel.GlobalKernel.compile (582,519 us, 0.55%)</title><rect x="620.4" y="343" width="6.5" height="15.0" fill="rgb(0,0,0)" rx="2" ry="2" />
<text  x="623.41" y="353.5" ></text>
</g>
<g >
<title>firedrake.tsfc_interface.compile_form (361,647 us, 0.34%)</title><rect x="1107.2" y="167" width="4.0" height="15.0" fill="rgb(0,0,0)" rx="2" ry="2" />
<text  x="1110.20" y="177.5" ></text>
</g>
<g >
<title>pyop2.global_kernel.GlobalKernel.compile (855,379 us, 0.81%)</title><rect x="20.5" y="135" width="9.6" height="15.0" fill="rgb(0,0,0)" rx="2" ry="2" />
<text  x="23.54" y="145.5" ></text>
</g>
<g >
<title>firedrake.dmhooks.coarsen (2,509,346 us, 2.38%)</title><rect x="616.3" y="263" width="28.1" height="15.0" fill="rgb(0,0,0)" rx="2" ry="2" />
<text  x="619.30" y="273.5" >f..</text>
</g>
<g >
<title>ParLoopExecute (9,898,510 us, 9.40%)</title><rect x="133.6" y="151" width="110.8" height="15.0" fill="rgb(0,0,0)" rx="2" ry="2" />
<text  x="136.57" y="161.5" >ParLoopExecute</text>
</g>
<g >
<title>firedrake.pointquery_utils.to_reference_coordinates (759,530 us, 0.72%)</title><rect x="652.3" y="279" width="8.6" height="15.0" fill="rgb(0,0,0)" rx="2" ry="2" />
<text  x="655.34" y="289.5" ></text>
</g>
<g >
<title>SCBackSub (28,944,108 us, 27.47%)</title><rect x="116.1" y="135" width="324.1" height="15.0" fill="rgb(0,0,0)" rx="2" ry="2" />
<text  x="119.06" y="145.5" >SCBackSub</text>
</g>
<g >
<title>pyop2.global_kernel.GlobalKernel.compile (12,700,288 us, 12.05%)</title><rect x="870.4" y="263" width="142.2" height="15.0" fill="rgb(0,0,0)" rx="2" ry="2" />
<text  x="873.37" y="273.5" >pyop2.global_ker..</text>
</g>
<g >
<title>ParLoopExecute (20,622 us, 0.02%)</title><rect x="660.9" y="247" width="0.2" height="15.0" fill="rgb(0,0,0)" rx="2" ry="2" />
<text  x="663.85" y="257.5" ></text>
</g>
</g>
</svg>
