<?xml version="1.0" standalone="no"?>
<!DOCTYPE svg PUBLIC "-//W3C//DTD SVG 1.1//EN" "http://www.w3.org/Graphics/SVG/1.1/DTD/svg11.dtd">
<svg version="1.1" width="1200" height="427" onload="init(evt)" viewBox="0 0 1200 427" xmlns="http://www.w3.org/2000/svg" xmlns:xlink="http://www.w3.org/1999/xlink">
<!-- Flame graph stack visualization. See https://github.com/brendangregg/FlameGraph for latest version, and http://www.brendangregg.com/flamegraphs.html for examples. -->
<!-- NOTES:  -->
<defs>
	<linearGradient id="background" y1="0" y2="1" x1="0" x2="0" >
		<stop stop-color="#eeeeee" offset="5%" />
		<stop stop-color="#eeeeb0" offset="95%" />
	</linearGradient>
</defs>
<style type="text/css">
	text { font-family:Verdana; font-size:13px; fill:rgb(0,0,0); }
	#search, #ignorecase { opacity:0.1; cursor:pointer; }
	#search:hover, #search.show, #ignorecase:hover, #ignorecase.show { opacity:1; }
	#subtitle { text-anchor:middle; font-color:rgb(160,160,160); }
	#title { text-anchor:middle; font-size:18px}
	#unzoom { cursor:pointer; }
	#frames > *:hover { stroke:black; stroke-width:0.5; cursor:pointer; }
	.hide { display:none; }
	.parent { opacity:0.5; }
</style>
<script type="text/ecmascript">
<![CDATA[
	"use strict";
	var details, searchbtn, unzoombtn, matchedtxt, svg, searching, currentSearchTerm, ignorecase, ignorecaseBtn;
	function init(evt) {
		details = document.getElementById("details").firstChild;
		searchbtn = document.getElementById("search");
		ignorecaseBtn = document.getElementById("ignorecase");
		unzoombtn = document.getElementById("unzoom");
		matchedtxt = document.getElementById("matched");
		svg = document.getElementsByTagName("svg")[0];
		searching = 0;
		currentSearchTerm = null;

		// use GET parameters to restore a flamegraphs state.
		var params = get_params();
		if (params.x && params.y)
			zoom(find_group(document.querySelector('[x="' + params.x + '"][y="' + params.y + '"]')));
                if (params.s) search(params.s);
	}

	// event listeners
	window.addEventListener("click", function(e) {
		var target = find_group(e.target);
		if (target) {
			if (target.nodeName == "a") {
				if (e.ctrlKey === false) return;
				e.preventDefault();
			}
			if (target.classList.contains("parent")) unzoom();
			zoom(target);
			if (!document.querySelector('.parent')) {
				clearzoom();
				return;
			}

			// set parameters for zoom state
			var el = target.querySelector("rect");
			if (el && el.attributes && el.attributes.y && el.attributes._orig_x) {
				var params = get_params()
				params.x = el.attributes._orig_x.value;
				params.y = el.attributes.y.value;
				history.replaceState(null, null, parse_params(params));
			}
		}
		else if (e.target.id == "unzoom") clearzoom();
		else if (e.target.id == "search") search_prompt();
		else if (e.target.id == "ignorecase") toggle_ignorecase();
	}, false)

	// mouse-over for info
	// show
	window.addEventListener("mouseover", function(e) {
		var target = find_group(e.target);
		if (target) details.nodeValue = "Function: " + g_to_text(target);
	}, false)

	// clear
	window.addEventListener("mouseout", function(e) {
		var target = find_group(e.target);
		if (target) details.nodeValue = ' ';
	}, false)

	// ctrl-F for search
	// ctrl-I to toggle case-sensitive search
	window.addEventListener("keydown",function (e) {
		if (e.keyCode === 114 || (e.ctrlKey && e.keyCode === 70)) {
			e.preventDefault();
			search_prompt();
		}
		else if (e.ctrlKey && e.keyCode === 73) {
			e.preventDefault();
			toggle_ignorecase();
		}
	}, false)

	// functions
	function get_params() {
		var params = {};
		var paramsarr = window.location.search.substr(1).split('&');
		for (var i = 0; i < paramsarr.length; ++i) {
			var tmp = paramsarr[i].split("=");
			if (!tmp[0] || !tmp[1]) continue;
			params[tmp[0]]  = decodeURIComponent(tmp[1]);
		}
		return params;
	}
	function parse_params(params) {
		var uri = "?";
		for (var key in params) {
			uri += key + '=' + encodeURIComponent(params[key]) + '&';
		}
		if (uri.slice(-1) == "&")
			uri = uri.substring(0, uri.length - 1);
		if (uri == '?')
			uri = window.location.href.split('?')[0];
		return uri;
	}
	function find_child(node, selector) {
		var children = node.querySelectorAll(selector);
		if (children.length) return children[0];
	}
	function find_group(node) {
		var parent = node.parentElement;
		if (!parent) return;
		if (parent.id == "frames") return node;
		return find_group(parent);
	}
	function orig_save(e, attr, val) {
		if (e.attributes["_orig_" + attr] != undefined) return;
		if (e.attributes[attr] == undefined) return;
		if (val == undefined) val = e.attributes[attr].value;
		e.setAttribute("_orig_" + attr, val);
	}
	function orig_load(e, attr) {
		if (e.attributes["_orig_"+attr] == undefined) return;
		e.attributes[attr].value = e.attributes["_orig_" + attr].value;
		e.removeAttribute("_orig_"+attr);
	}
	function g_to_text(e) {
		var text = find_child(e, "title").firstChild.nodeValue;
		return (text)
	}
	function g_to_func(e) {
		var func = g_to_text(e);
		// if there's any manipulation we want to do to the function
		// name before it's searched, do it here before returning.
		return (func);
	}
	function update_text(e) {
		var r = find_child(e, "rect");
		var t = find_child(e, "text");
		var w = parseFloat(r.attributes.width.value) -3;
		var txt = find_child(e, "title").textContent.replace(/\([^(]*\)$/,"");
		t.attributes.x.value = parseFloat(r.attributes.x.value) + 3;

		// Smaller than this size won't fit anything
		if (w < 2 * 13 * 0.59) {
			t.textContent = "";
			return;
		}

		t.textContent = txt;
		// Fit in full text width
		if (/^ *$/.test(txt) || t.getSubStringLength(0, txt.length) < w)
			return;

		for (var x = txt.length - 2; x > 0; x--) {
			if (t.getSubStringLength(0, x + 2) <= w) {
				t.textContent = txt.substring(0, x) + "..";
				return;
			}
		}
		t.textContent = "";
	}

	// zoom
	function zoom_reset(e) {
		if (e.attributes != undefined) {
			orig_load(e, "x");
			orig_load(e, "width");
		}
		if (e.childNodes == undefined) return;
		for (var i = 0, c = e.childNodes; i < c.length; i++) {
			zoom_reset(c[i]);
		}
	}
	function zoom_child(e, x, ratio) {
		if (e.attributes != undefined) {
			if (e.attributes.x != undefined) {
				orig_save(e, "x");
				e.attributes.x.value = (parseFloat(e.attributes.x.value) - x - 10) * ratio + 10;
				if (e.tagName == "text")
					e.attributes.x.value = find_child(e.parentNode, "rect[x]").attributes.x.value + 3;
			}
			if (e.attributes.width != undefined) {
				orig_save(e, "width");
				e.attributes.width.value = parseFloat(e.attributes.width.value) * ratio;
			}
		}

		if (e.childNodes == undefined) return;
		for (var i = 0, c = e.childNodes; i < c.length; i++) {
			zoom_child(c[i], x - 10, ratio);
		}
	}
	function zoom_parent(e) {
		if (e.attributes) {
			if (e.attributes.x != undefined) {
				orig_save(e, "x");
				e.attributes.x.value = 10;
			}
			if (e.attributes.width != undefined) {
				orig_save(e, "width");
				e.attributes.width.value = parseInt(svg.width.baseVal.value) - (10 * 2);
			}
		}
		if (e.childNodes == undefined) return;
		for (var i = 0, c = e.childNodes; i < c.length; i++) {
			zoom_parent(c[i]);
		}
	}
	function zoom(node) {
		var attr = find_child(node, "rect").attributes;
		var width = parseFloat(attr.width.value);
		var xmin = parseFloat(attr.x.value);
		var xmax = parseFloat(xmin + width);
		var ymin = parseFloat(attr.y.value);
		var ratio = (svg.width.baseVal.value - 2 * 10) / width;

		// XXX: Workaround for JavaScript float issues (fix me)
		var fudge = 0.0001;

		unzoombtn.classList.remove("hide");

		var el = document.getElementById("frames").children;
		for (var i = 0; i < el.length; i++) {
			var e = el[i];
			var a = find_child(e, "rect").attributes;
			var ex = parseFloat(a.x.value);
			var ew = parseFloat(a.width.value);
			var upstack;
			// Is it an ancestor
			if (1 == 0) {
				upstack = parseFloat(a.y.value) > ymin;
			} else {
				upstack = parseFloat(a.y.value) < ymin;
			}
			if (upstack) {
				// Direct ancestor
				if (ex <= xmin && (ex+ew+fudge) >= xmax) {
					e.classList.add("parent");
					zoom_parent(e);
					update_text(e);
				}
				// not in current path
				else
					e.classList.add("hide");
			}
			// Children maybe
			else {
				// no common path
				if (ex < xmin || ex + fudge >= xmax) {
					e.classList.add("hide");
				}
				else {
					zoom_child(e, xmin, ratio);
					update_text(e);
				}
			}
		}
		search();
	}
	function unzoom() {
		unzoombtn.classList.add("hide");
		var el = document.getElementById("frames").children;
		for(var i = 0; i < el.length; i++) {
			el[i].classList.remove("parent");
			el[i].classList.remove("hide");
			zoom_reset(el[i]);
			update_text(el[i]);
		}
		search();
	}
	function clearzoom() {
		unzoom();

		// remove zoom state
		var params = get_params();
		if (params.x) delete params.x;
		if (params.y) delete params.y;
		history.replaceState(null, null, parse_params(params));
	}

	// search
	function toggle_ignorecase() {
		ignorecase = !ignorecase;
		if (ignorecase) {
			ignorecaseBtn.classList.add("show");
		} else {
			ignorecaseBtn.classList.remove("show");
		}
		reset_search();
		search();
	}
	function reset_search() {
		var el = document.querySelectorAll("#frames rect");
		for (var i = 0; i < el.length; i++) {
			orig_load(el[i], "fill")
		}
		var params = get_params();
		delete params.s;
		history.replaceState(null, null, parse_params(params));
	}
	function search_prompt() {
		if (!searching) {
			var term = prompt("Enter a search term (regexp " +
			    "allowed, eg: ^ext4_)"
			    + (ignorecase ? ", ignoring case" : "")
			    + "\nPress Ctrl-i to toggle case sensitivity", "");
			if (term != null) search(term);
		} else {
			reset_search();
			searching = 0;
			currentSearchTerm = null;
			searchbtn.classList.remove("show");
			searchbtn.firstChild.nodeValue = "Search"
			matchedtxt.classList.add("hide");
			matchedtxt.firstChild.nodeValue = ""
		}
	}
	function search(term) {
		if (term) currentSearchTerm = term;

		var re = new RegExp(currentSearchTerm, ignorecase ? 'i' : '');
		var el = document.getElementById("frames").children;
		var matches = new Object();
		var maxwidth = 0;
		for (var i = 0; i < el.length; i++) {
			var e = el[i];
			var func = g_to_func(e);
			var rect = find_child(e, "rect");
			if (func == null || rect == null)
				continue;

			// Save max width. Only works as we have a root frame
			var w = parseFloat(rect.attributes.width.value);
			if (w > maxwidth)
				maxwidth = w;

			if (func.match(re)) {
				// highlight
				var x = parseFloat(rect.attributes.x.value);
				orig_save(rect, "fill");
				rect.attributes.fill.value = "rgb(230,0,230)";

				// remember matches
				if (matches[x] == undefined) {
					matches[x] = w;
				} else {
					if (w > matches[x]) {
						// overwrite with parent
						matches[x] = w;
					}
				}
				searching = 1;
			}
		}
		if (!searching)
			return;
		var params = get_params();
		params.s = currentSearchTerm;
		history.replaceState(null, null, parse_params(params));

		searchbtn.classList.add("show");
		searchbtn.firstChild.nodeValue = "Reset Search";

		// calculate percent matched, excluding vertical overlap
		var count = 0;
		var lastx = -1;
		var lastw = 0;
		var keys = Array();
		for (k in matches) {
			if (matches.hasOwnProperty(k))
				keys.push(k);
		}
		// sort the matched frames by their x location
		// ascending, then width descending
		keys.sort(function(a, b){
			return a - b;
		});
		// Step through frames saving only the biggest bottom-up frames
		// thanks to the sort order. This relies on the tree property
		// where children are always smaller than their parents.
		var fudge = 0.0001;	// JavaScript floating point
		for (var k in keys) {
			var x = parseFloat(keys[k]);
			var w = matches[keys[k]];
			if (x >= lastx + lastw - fudge) {
				count += w;
				lastx = x;
				lastw = w;
			}
		}
		// display matched percent
		matchedtxt.classList.remove("hide");
		var pct = 100 * count / maxwidth;
		if (pct != 100) pct = pct.toFixed(1)
		matchedtxt.firstChild.nodeValue = "Matched: " + pct + "%";
	}
]]>
</script>
<rect x="0.0" y="0" width="1200.0" height="427.0" fill="url(#background)"  />
<text id="title" x="600.00" y="26" >Firedrake example</text>
<text id="details" x="10.00" y="409" > </text>
<text id="unzoom" x="10.00" y="26" class="hide">Reset Zoom</text>
<text id="search" x="1090.00" y="26" >Search</text>
<text id="ignorecase" x="1174.00" y="26" >ic</text>
<text id="matched" x="1090.00" y="409" > </text>
<g id="frames">
<g >
<title>ParLoopExecute (14,773,659 us, 12.65%)</title><rect x="659.4" y="263" width="149.2" height="15.0" fill="rgb(0,0,0)" rx="2" ry="2" />
<text  x="662.38" y="273.5" >ParLoopExecute</text>
</g>
<g >
<title>Parloop_Cells_wrap_wrap_slate_loopy_knl_7 (20,788 us, 0.02%)</title><rect x="587.6" y="215" width="0.2" height="15.0" fill="rgb(0,0,0)" rx="2" ry="2" />
<text  x="590.59" y="225.5" ></text>
</g>
<g >
<title>ParLoopExecute (5,668,216 us, 4.85%)</title><rect x="1121.3" y="119" width="57.3" height="15.0" fill="rgb(0,0,0)" rx="2" ry="2" />
<text  x="1124.30" y="129.5" >ParLo..</text>
</g>
<g >
<title>firedrake.matrix_free.operators.ImplicitMatrixContext.mult (100,435 us, 0.09%)</title><rect x="587.8" y="231" width="1.0" height="15.0" fill="rgb(0,0,0)" rx="2" ry="2" />
<text  x="590.80" y="241.5" ></text>
</g>
<g >
<title>ParLoopExecute (20,788 us, 0.02%)</title><rect x="587.6" y="199" width="0.2" height="15.0" fill="rgb(0,0,0)" rx="2" ry="2" />
<text  x="590.59" y="209.5" ></text>
</g>
<g >
<title>MatResidual (20,474 us, 0.02%)</title><rect x="639.5" y="199" width="0.2" height="15.0" fill="rgb(0,0,0)" rx="2" ry="2" />
<text  x="642.52" y="209.5" ></text>
</g>
<g >
<title>pyop2.global_kernel.GlobalKernel.compile (675,182 us, 0.58%)</title><rect x="628.1" y="311" width="6.8" height="15.0" fill="rgb(0,0,0)" rx="2" ry="2" />
<text  x="631.11" y="321.5" ></text>
</g>
<g >
<title>MatMult (20,788 us, 0.02%)</title><rect x="587.6" y="167" width="0.2" height="15.0" fill="rgb(0,0,0)" rx="2" ry="2" />
<text  x="590.59" y="177.5" ></text>
</g>
<g >
<title>ParLoopExecute (675,465 us, 0.58%)</title><rect x="1114.5" y="151" width="6.8" height="15.0" fill="rgb(0,0,0)" rx="2" ry="2" />
<text  x="1117.47" y="161.5" ></text>
</g>
<g >
<title>ParLoopExecute (6,673,489 us, 5.71%)</title><rect x="1042.6" y="167" width="67.4" height="15.0" fill="rgb(0,0,0)" rx="2" ry="2" />
<text  x="1045.58" y="177.5" >ParLoo..</text>
</g>
<g >
<title>firedrake.mg.interface.prolong (1,322,823 us, 1.13%)</title><rect x="589.0" y="295" width="13.4" height="15.0" fill="rgb(0,0,0)" rx="2" ry="2" />
<text  x="592.01" y="305.5" ></text>
</g>
<g >
<title>firedrake.tsfc_interface.compile_form (1,621,551 us, 1.39%)</title><rect x="416.3" y="151" width="16.4" height="15.0" fill="rgb(0,0,0)" rx="2" ry="2" />
<text  x="419.27" y="161.5" ></text>
</g>
<g >
<title>MatMultTranspose (1,151,298 us, 0.99%)</title><rect x="627.9" y="247" width="11.6" height="15.0" fill="rgb(0,0,0)" rx="2" ry="2" />
<text  x="630.89" y="257.5" ></text>
</g>
<g >
<title>firedrake.functionspaceimpl.FunctionSpace.__init__ (21,104 us, 0.02%)</title><rect x="28.3" y="87" width="0.2" height="15.0" fill="rgb(0,0,0)" rx="2" ry="2" />
<text  x="31.27" y="97.5" ></text>
</g>
<g >
<title>pyop2.global_kernel.GlobalKernel.compile (595,027 us, 0.51%)</title><rect x="591.7" y="343" width="6.0" height="15.0" fill="rgb(0,0,0)" rx="2" ry="2" />
<text  x="594.73" y="353.5" ></text>
</g>
<g >
<title>firedrake.tsfc_interface.compile_form (2,495,643 us, 2.14%)</title><rect x="1013.7" y="231" width="25.2" height="15.0" fill="rgb(0,0,0)" rx="2" ry="2" />
<text  x="1016.74" y="241.5" >f..</text>
</g>
<g >
<title>pyop2.global_kernel.GlobalKernel.compile (913,573 us, 0.78%)</title><rect x="128.8" y="215" width="9.2" height="15.0" fill="rgb(0,0,0)" rx="2" ry="2" />
<text  x="131.82" y="225.5" ></text>
</g>
<g >
<title>firedrake.interpolation.make_interpolator (34,698 us, 0.03%)</title><rect x="623.0" y="327" width="0.3" height="15.0" fill="rgb(0,0,0)" rx="2" ry="2" />
<text  x="625.99" y="337.5" ></text>
</g>
<g >
<title>Parloop_Cells_wrap_expression_kernel (1,246,078 us, 1.07%)</title><rect x="1042.6" y="183" width="12.6" height="15.0" fill="rgb(0,0,0)" rx="2" ry="2" />
<text  x="1045.58" y="193.5" ></text>
</g>
<g >
<title>Parloop_Cells_wrap_par_loop_kernel (1,051,549 us, 0.90%)</title><rect x="432.7" y="199" width="10.6" height="15.0" fill="rgb(0,0,0)" rx="2" ry="2" />
<text  x="435.65" y="209.5" ></text>
</g>
<g >
<title>firedrake.pointquery_utils.to_reference_coordinates (450,446 us, 0.39%)</title><rect x="623.3" y="311" width="4.6" height="15.0" fill="rgb(0,0,0)" rx="2" ry="2" />
<text  x="626.34" y="321.5" ></text>
</g>
<g >
<title>Parloop_Cells_wrap_form0_cell_integral_otherwise (3,180,517 us, 2.72%)</title><rect x="1121.3" y="135" width="32.1" height="15.0" fill="rgb(0,0,0)" rx="2" ry="2" />
<text  x="1124.30" y="145.5" >Pa..</text>
</g>
<g >
<title>MatMult (6,754,524 us, 5.78%)</title><rect x="48.6" y="119" width="68.2" height="15.0" fill="rgb(0,0,0)" rx="2" ry="2" />
<text  x="51.56" y="129.5" >MatMult</text>
</g>
<g >
<title>pyop2.global_kernel.GlobalKernel.compile (2,487,699 us, 2.13%)</title><rect x="1153.4" y="151" width="25.2" height="15.0" fill="rgb(0,0,0)" rx="2" ry="2" />
<text  x="1156.43" y="161.5" >p..</text>
</g>
<g >
<title>ParLoopExecute (100,435 us, 0.09%)</title><rect x="587.8" y="247" width="1.0" height="15.0" fill="rgb(0,0,0)" rx="2" ry="2" />
<text  x="590.80" y="257.5" ></text>
</g>
<g >
<title>pyop2.global_kernel.GlobalKernel.compile (1,246,078 us, 1.07%)</title><rect x="1042.6" y="199" width="12.6" height="15.0" fill="rgb(0,0,0)" rx="2" ry="2" />
<text  x="1045.58" y="209.5" ></text>
</g>
<g >
<title>firedrake.tsfc_interface.compile_form (1,729,810 us, 1.48%)</title><rect x="570.1" y="167" width="17.5" height="15.0" fill="rgb(0,0,0)" rx="2" ry="2" />
<text  x="573.12" y="177.5" ></text>
</g>
<g >
<title>pyop2.global_kernel.GlobalKernel.compile (10,442,221 us, 8.94%)</title><rect x="138.0" y="183" width="105.5" height="15.0" fill="rgb(0,0,0)" rx="2" ry="2" />
<text  x="141.05" y="193.5" >pyop2.globa..</text>
</g>
<g >
<title>Parloop_Cells_wrap_par_loop_kernel (675,465 us, 0.58%)</title><rect x="1114.5" y="167" width="6.8" height="15.0" fill="rgb(0,0,0)" rx="2" ry="2" />
<text  x="1117.47" y="177.5" ></text>
</g>
<g >
<title>PCSetUp (341,951 us, 0.29%)</title><rect x="1038.9" y="199" width="3.5" height="15.0" fill="rgb(0,0,0)" rx="2" ry="2" />
<text  x="1041.95" y="209.5" ></text>
</g>
<g >
<title>pyop2.global_kernel.GlobalKernel.compile (675,465 us, 0.58%)</title><rect x="1114.5" y="183" width="6.8" height="15.0" fill="rgb(0,0,0)" rx="2" ry="2" />
<text  x="1117.47" y="193.5" ></text>
</g>
<g >
<title>ParLoopExecute (605,693 us, 0.52%)</title><rect x="605.9" y="311" width="6.1" height="15.0" fill="rgb(0,0,0)" rx="2" ry="2" />
<text  x="608.86" y="321.5" ></text>
</g>
<g >
<title>pyop2.global_kernel.GlobalKernel.compile (14,719,221 us, 12.60%)</title><rect x="659.9" y="295" width="148.7" height="15.0" fill="rgb(0,0,0)" rx="2" ry="2" />
<text  x="662.93" y="305.5" >pyop2.global_kern..</text>
</g>
<g >
<title>MatMult (100,435 us, 0.09%)</title><rect x="587.8" y="215" width="1.0" height="15.0" fill="rgb(0,0,0)" rx="2" ry="2" />
<text  x="590.80" y="225.5" ></text>
</g>
<g >
<title>ParLoopExecute (10,442,221 us, 8.94%)</title><rect x="138.0" y="151" width="105.5" height="15.0" fill="rgb(0,0,0)" rx="2" ry="2" />
<text  x="141.05" y="161.5" >ParLoopExec..</text>
</g>
<g >
<title>pyop2.global_kernel.GlobalKernel.compile (915,645 us, 0.78%)</title><rect x="19.0" y="135" width="9.3" height="15.0" fill="rgb(0,0,0)" rx="2" ry="2" />
<text  x="22.02" y="145.5" ></text>
</g>
<g >
<title>Parloop_set_#x7f60d63ae380_wrap_pyop2_kernel_inject (605,693 us, 0.52%)</title><rect x="605.9" y="327" width="6.1" height="15.0" fill="rgb(0,0,0)" rx="2" ry="2" />
<text  x="608.86" y="337.5" ></text>
</g>
<g >
<title>PCApply (45,000,725 us, 38.53%)</title><rect x="587.8" y="167" width="454.6" height="15.0" fill="rgb(0,0,0)" rx="2" ry="2" />
<text  x="590.80" y="177.5" >PCApply</text>
</g>
<g >
<title>pyop2.global_kernel.GlobalKernel.compile (16,028,598 us, 13.72%)</title><rect x="851.8" y="263" width="161.9" height="15.0" fill="rgb(0,0,0)" rx="2" ry="2" />
<text  x="854.81" y="273.5" >pyop2.global_kernel..</text>
</g>
<g >
<title>PCSetUp (7,073,099 us, 6.06%)</title><rect x="1042.4" y="151" width="71.5" height="15.0" fill="rgb(0,0,0)" rx="2" ry="2" />
<text  x="1045.40" y="161.5" >PCSetUp</text>
</g>
<g >
<title>Parloop_set_#x7f60d63ae380_wrap_pyop2_kernel_prolong (595,027 us, 0.51%)</title><rect x="591.7" y="327" width="6.0" height="15.0" fill="rgb(0,0,0)" rx="2" ry="2" />
<text  x="594.73" y="337.5" ></text>
</g>
<g >
<title>firedrake.functionspacedata.get_shared_data (21,104 us, 0.02%)</title><rect x="28.3" y="103" width="0.2" height="15.0" fill="rgb(0,0,0)" rx="2" ry="2" />
<text  x="31.27" y="113.5" ></text>
</g>
<g >
<title>pyop2.global_kernel.GlobalKernel.compile (2,299,735 us, 1.97%)</title><rect x="81.4" y="183" width="23.2" height="15.0" fill="rgb(0,0,0)" rx="2" ry="2" />
<text  x="84.40" y="193.5" >p..</text>
</g>
<g >
<title>ParLoopExecute (1,051,549 us, 0.90%)</title><rect x="432.7" y="183" width="10.6" height="15.0" fill="rgb(0,0,0)" rx="2" ry="2" />
<text  x="435.65" y="193.5" ></text>
</g>
<g >
<title>firedrake (116,807,101 us, 100.00%)</title><rect x="10.0" y="55" width="1180.0" height="15.0" fill="rgb(0,0,0)" rx="2" ry="2" />
<text  x="13.00" y="65.5" >firedrake</text>
</g>
<g >
<title>firedrake.formmanipulation.split_form (14,256 us, 0.01%)</title><rect x="1114.2" y="135" width="0.2" height="15.0" fill="rgb(0,0,0)" rx="2" ry="2" />
<text  x="1117.21" y="145.5" ></text>
</g>
<g >
<title>PCApply (98,698,210 us, 84.50%)</title><rect x="116.8" y="119" width="997.1" height="15.0" fill="rgb(0,0,0)" rx="2" ry="2" />
<text  x="119.80" y="129.5" >PCApply</text>
</g>
<g >
<title>Parloop_Cells_wrap_pyop2_kernel_uniform_extrusion (915,645 us, 0.78%)</title><rect x="19.0" y="119" width="9.3" height="15.0" fill="rgb(0,0,0)" rx="2" ry="2" />
<text  x="22.02" y="129.5" ></text>
</g>
<g >
<title>firedrake.interpolation.make_interpolator (12,067 us, 0.01%)</title><rect x="1114.4" y="135" width="0.1" height="15.0" fill="rgb(0,0,0)" rx="2" ry="2" />
<text  x="1117.35" y="145.5" ></text>
</g>
<g >
<title>Parloop_Cells_wrap_wrap_slate_loopy_knl_11 (13,030,448 us, 11.16%)</title><rect x="259.0" y="183" width="131.6" height="15.0" fill="rgb(0,0,0)" rx="2" ry="2" />
<text  x="261.99" y="193.5" >Parloop_Cells_w..</text>
</g>
<g >
<title>firedrake.variational_solver.NonlinearVariationalProblem.__init__ (12,459 us, 0.01%)</title><rect x="48.4" y="87" width="0.2" height="15.0" fill="rgb(0,0,0)" rx="2" ry="2" />
<text  x="51.43" y="97.5" ></text>
</g>
<g >
<title>ParLoopExecute (675,182 us, 0.58%)</title><rect x="628.1" y="279" width="6.8" height="15.0" fill="rgb(0,0,0)" rx="2" ry="2" />
<text  x="631.11" y="289.5" ></text>
</g>
<g >
<title>HybridInit (736,643 us, 0.63%)</title><rect x="1113.9" y="119" width="7.4" height="15.0" fill="rgb(0,0,0)" rx="2" ry="2" />
<text  x="1116.86" y="129.5" ></text>
</g>
<g >
<title>pyop2.global_kernel.GlobalKernel.compile (11,372,195 us, 9.74%)</title><rect x="455.2" y="199" width="114.9" height="15.0" fill="rgb(0,0,0)" rx="2" ry="2" />
<text  x="458.23" y="209.5" >pyop2.global..</text>
</g>
<g >
<title>KSPSolve (45,021,513 us, 38.54%)</title><rect x="587.6" y="151" width="454.8" height="15.0" fill="rgb(0,0,0)" rx="2" ry="2" />
<text  x="590.59" y="161.5" >KSPSolve</text>
</g>
<g >
<title>SNESFunctionEval (6,800,685 us, 5.82%)</title><rect x="1121.3" y="103" width="68.7" height="15.0" fill="rgb(0,0,0)" rx="2" ry="2" />
<text  x="1124.30" y="113.5" >SNESFu..</text>
</g>
<g >
<title>MGInterp Level 1 (1,322,823 us, 1.13%)</title><rect x="589.0" y="247" width="13.4" height="15.0" fill="rgb(0,0,0)" rx="2" ry="2" />
<text  x="592.01" y="257.5" ></text>
</g>
<g >
<title>firedrake.functionspacedata.FunctionSpaceData.__init__ (21,104 us, 0.02%)</title><rect x="28.3" y="119" width="0.2" height="15.0" fill="rgb(0,0,0)" rx="2" ry="2" />
<text  x="31.27" y="129.5" ></text>
</g>
<g >
<title>ParLoopExecute (11,372,195 us, 9.74%)</title><rect x="455.2" y="167" width="114.9" height="15.0" fill="rgb(0,0,0)" rx="2" ry="2" />
<text  x="458.23" y="177.5" >ParLoopExecute</text>
</g>
<g >
<title>PCApply (5,140,393 us, 4.40%)</title><rect x="587.8" y="183" width="51.9" height="15.0" fill="rgb(0,0,0)" rx="2" ry="2" />
<text  x="590.80" y="193.5" >PCAp..</text>
</g>
<g >
<title>firedrake.extrusion_utils.make_extruded_coords (958,186 us, 0.82%)</title><rect x="18.6" y="87" width="9.7" height="15.0" fill="rgb(0,0,0)" rx="2" ry="2" />
<text  x="21.59" y="97.5" ></text>
</g>
<g >
<title>firedrake.tsfc_interface.compile_form (2,538,999 us, 2.17%)</title><rect x="390.6" y="167" width="25.7" height="15.0" fill="rgb(0,0,0)" rx="2" ry="2" />
<text  x="393.62" y="177.5" >f..</text>
</g>
<g >
<title>Parloop_Cells_wrap_wrap_slate_loopy_knl_7 (100,435 us, 0.09%)</title><rect x="587.8" y="263" width="1.0" height="15.0" fill="rgb(0,0,0)" rx="2" ry="2" />
<text  x="590.80" y="273.5" ></text>
</g>
<g >
<title>pyop2.global_kernel.GlobalKernel.compile (3,251,221 us, 2.78%)</title><rect x="48.6" y="183" width="32.8" height="15.0" fill="rgb(0,0,0)" rx="2" ry="2" />
<text  x="51.56" y="193.5" >py..</text>
</g>
<g >
<title>KSPSetUp (39,518,381 us, 33.83%)</title><rect x="639.7" y="199" width="399.2" height="15.0" fill="rgb(0,0,0)" rx="2" ry="2" />
<text  x="642.73" y="209.5" >KSPSetUp</text>
</g>
<g >
<title>firedrake.pointquery_utils.to_reference_coordinates (454,504 us, 0.39%)</title><rect x="634.9" y="279" width="4.6" height="15.0" fill="rgb(0,0,0)" rx="2" ry="2" />
<text  x="637.93" y="289.5" ></text>
</g>
<g >
<title>SNESSolve (112,990,062 us, 96.73%)</title><rect x="48.6" y="87" width="1141.4" height="15.0" fill="rgb(0,0,0)" rx="2" ry="2" />
<text  x="51.56" y="97.5" >SNESSolve</text>
</g>
<g >
<title>SCForwardElim (15,336,973 us, 13.13%)</title><rect x="432.7" y="135" width="154.9" height="15.0" fill="rgb(0,0,0)" rx="2" ry="2" />
<text  x="435.65" y="145.5" >SCForwardElim</text>
</g>
<g >
<title>firedrake.variational_solver.NonlinearVariationalSolver.solve (112,990,062 us, 96.73%)</title><rect x="48.6" y="71" width="1141.4" height="15.0" fill="rgb(0,0,0)" rx="2" ry="2" />
<text  x="51.56" y="81.5" >firedrake.variational_solver.NonlinearVariationalSolver.solve</text>
</g>
<g >
<title>firedrake.variational_solver.LinearVariationalProblem.__init__ (12,459 us, 0.01%)</title><rect x="48.4" y="71" width="0.2" height="15.0" fill="rgb(0,0,0)" rx="2" ry="2" />
<text  x="51.43" y="81.5" ></text>
</g>
<g >
<title>firedrake.matrix_free.operators.ImplicitMatrixContext.mult (20,788 us, 0.02%)</title><rect x="587.6" y="183" width="0.2" height="15.0" fill="rgb(0,0,0)" rx="2" ry="2" />
<text  x="590.59" y="193.5" ></text>
</g>
<g >
<title>KSPSolve (5,119,919 us, 4.38%)</title><rect x="587.8" y="199" width="51.7" height="15.0" fill="rgb(0,0,0)" rx="2" ry="2" />
<text  x="590.80" y="209.5" >KSPS..</text>
</g>
<g >
<title>firedrake.parloops.par_loop (913,573 us, 0.78%)</title><rect x="128.8" y="167" width="9.2" height="15.0" fill="rgb(0,0,0)" rx="2" ry="2" />
<text  x="131.82" y="177.5" ></text>
</g>
<g >
<title>Parloop_Cells_wrap_wrap_slate_loopy_knl_18 (10,442,221 us, 8.94%)</title><rect x="138.0" y="167" width="105.5" height="15.0" fill="rgb(0,0,0)" rx="2" ry="2" />
<text  x="141.05" y="177.5" >Parloop_Cel..</text>
</g>
<g >
<title>SCSolve (52,094,612 us, 44.60%)</title><rect x="587.6" y="135" width="526.3" height="15.0" fill="rgb(0,0,0)" rx="2" ry="2" />
<text  x="590.59" y="145.5" >SCSolve</text>
</g>
<g >
<title>firedrake.interpolation.make_interpolator (23,624 us, 0.02%)</title><rect x="1110.0" y="167" width="0.2" height="15.0" fill="rgb(0,0,0)" rx="2" ry="2" />
<text  x="1112.99" y="177.5" ></text>
</g>
<g >
<title>HybridRHS (14,285,424 us, 12.23%)</title><rect x="443.3" y="151" width="144.3" height="15.0" fill="rgb(0,0,0)" rx="2" ry="2" />
<text  x="446.28" y="161.5" >HybridRHS</text>
</g>
<g >
<title>firedrake.tsfc_interface.compile_form (1,132,469 us, 0.97%)</title><rect x="1178.6" y="119" width="11.4" height="15.0" fill="rgb(0,0,0)" rx="2" ry="2" />
<text  x="1181.56" y="129.5" ></text>
</g>
<g >
<title>firedrake.matrix_free.operators.ImplicitMatrixContext.mult (19,248,596 us, 16.48%)</title><rect x="639.7" y="247" width="194.5" height="15.0" fill="rgb(0,0,0)" rx="2" ry="2" />
<text  x="642.73" y="257.5" >firedrake.matrix_free.o..</text>
</g>
<g >
<title>pyop2.global_kernel.GlobalKernel.compile (5,427,411 us, 4.65%)</title><rect x="1055.2" y="199" width="54.8" height="15.0" fill="rgb(0,0,0)" rx="2" ry="2" />
<text  x="1058.16" y="209.5" >pyop2..</text>
</g>
<g >
<title>firedrake.matrix_free.operators.ImplicitMatrixContext.mult (6,754,524 us, 5.78%)</title><rect x="48.6" y="135" width="68.2" height="15.0" fill="rgb(0,0,0)" rx="2" ry="2" />
<text  x="51.56" y="145.5" >firedr..</text>
</g>
<g >
<title>pyop2.global_kernel.GlobalKernel.compile (1,051,549 us, 0.90%)</title><rect x="432.7" y="215" width="10.6" height="15.0" fill="rgb(0,0,0)" rx="2" ry="2" />
<text  x="435.65" y="225.5" ></text>
</g>
<g >
<title>Parloop_Cells_wrap_wrap_slate_loopy_knl_7 (20,474 us, 0.02%)</title><rect x="639.5" y="263" width="0.2" height="15.0" fill="rgb(0,0,0)" rx="2" ry="2" />
<text  x="642.52" y="273.5" ></text>
</g>
<g >
<title>MatMult (20,474 us, 0.02%)</title><rect x="639.5" y="215" width="0.2" height="15.0" fill="rgb(0,0,0)" rx="2" ry="2" />
<text  x="642.52" y="225.5" ></text>
</g>
<g >
<title>PCSetUp (3,677,790 us, 3.15%)</title><rect x="602.4" y="231" width="37.1" height="15.0" fill="rgb(0,0,0)" rx="2" ry="2" />
<text  x="605.37" y="241.5" >PC..</text>
</g>
<g >
<title>pyop2.global_kernel.GlobalKernel.compile (1,090,180 us, 0.93%)</title><rect x="612.0" y="375" width="11.0" height="15.0" fill="rgb(0,0,0)" rx="2" ry="2" />
<text  x="614.98" y="385.5" ></text>
</g>
<g >
<title>Parloop_Cells_wrap_form00_cell_integral_otherwise (5,427,411 us, 4.65%)</title><rect x="1055.2" y="183" width="54.8" height="15.0" fill="rgb(0,0,0)" rx="2" ry="2" />
<text  x="1058.16" y="193.5" >Parlo..</text>
</g>
<g >
<title>firedrake.parloops.par_loop (1,051,549 us, 0.90%)</title><rect x="432.7" y="167" width="10.6" height="15.0" fill="rgb(0,0,0)" rx="2" ry="2" />
<text  x="435.65" y="177.5" ></text>
</g>
<g >
<title>pyop2.global_kernel.GlobalKernel.compile (3,180,517 us, 2.72%)</title><rect x="1121.3" y="151" width="32.1" height="15.0" fill="rgb(0,0,0)" rx="2" ry="2" />
<text  x="1124.30" y="161.5" >py..</text>
</g>
<g >
<title>firedrake.interpolation.interpolate (1,124,878 us, 0.96%)</title><rect x="612.0" y="311" width="11.3" height="15.0" fill="rgb(0,0,0)" rx="2" ry="2" />
<text  x="614.98" y="321.5" ></text>
</g>
<g >
<title>Log_Event_subkernel9_cell_to__cell_integral_otherwise (18,059 us, 0.02%)</title><rect x="588.6" y="279" width="0.2" height="15.0" fill="rgb(0,0,0)" rx="2" ry="2" />
<text  x="591.63" y="289.5" ></text>
</g>
<g >
<title>Log_Event_subkernel8_interior_facet_vert_to__exterior_facet_vert_integral_otherwise (20,698 us, 0.02%)</title><rect x="588.4" y="279" width="0.2" height="15.0" fill="rgb(0,0,0)" rx="2" ry="2" />
<text  x="591.42" y="289.5" ></text>
</g>
<g >
<title>MatMult (19,248,596 us, 16.48%)</title><rect x="639.7" y="231" width="194.5" height="15.0" fill="rgb(0,0,0)" rx="2" ry="2" />
<text  x="642.73" y="241.5" >MatMult</text>
</g>
<g >
<title>SCBackSub (31,266,625 us, 26.77%)</title><rect x="116.8" y="135" width="315.9" height="15.0" fill="rgb(0,0,0)" rx="2" ry="2" />
<text  x="119.80" y="145.5" >SCBackSub</text>
</g>
<g >
<title>Log_Event_subkernel10_interior_facet_vert_to__exterior_facet_vert_integral_otherwise (20,512 us, 0.02%)</title><rect x="588.2" y="279" width="0.2" height="15.0" fill="rgb(0,0,0)" rx="2" ry="2" />
<text  x="591.22" y="289.5" ></text>
</g>
<g >
<title>Parloop_Cells_wrap_wrap_slate_loopy_knl_3 (16,028,598 us, 13.72%)</title><rect x="851.8" y="247" width="161.9" height="15.0" fill="rgb(0,0,0)" rx="2" ry="2" />
<text  x="854.81" y="257.5" >Parloop_Cells_wrap_..</text>
</g>
<g >
<title>firedrake.formmanipulation.ExtractSubBlock.split (14,256 us, 0.01%)</title><rect x="1114.2" y="151" width="0.2" height="15.0" fill="rgb(0,0,0)" rx="2" ry="2" />
<text  x="1117.21" y="161.5" ></text>
</g>
<g >
<title>HybridBreak (1,051,549 us, 0.90%)</title><rect x="432.7" y="151" width="10.6" height="15.0" fill="rgb(0,0,0)" rx="2" ry="2" />
<text  x="435.65" y="161.5" ></text>
</g>
<g >
<title>firedrake.parloops.par_loop (675,465 us, 0.58%)</title><rect x="1114.5" y="135" width="6.8" height="15.0" fill="rgb(0,0,0)" rx="2" ry="2" />
<text  x="1117.47" y="145.5" ></text>
</g>
<g >
<title>firedrake.tsfc_interface.compile_form (341,951 us, 0.29%)</title><rect x="1038.9" y="215" width="3.5" height="15.0" fill="rgb(0,0,0)" rx="2" ry="2" />
<text  x="1041.95" y="225.5" ></text>
</g>
<g >
<title>CreateFunctionSpace (21,104 us, 0.02%)</title><rect x="28.3" y="71" width="0.2" height="15.0" fill="rgb(0,0,0)" rx="2" ry="2" />
<text  x="31.27" y="81.5" ></text>
</g>
<g >
<title>PCApply (1,341,694 us, 1.15%)</title><rect x="588.8" y="231" width="13.6" height="15.0" fill="rgb(0,0,0)" rx="2" ry="2" />
<text  x="591.82" y="241.5" ></text>
</g>
<g >
<title>ParLoopExecute (20,474 us, 0.02%)</title><rect x="639.5" y="247" width="0.2" height="15.0" fill="rgb(0,0,0)" rx="2" ry="2" />
<text  x="642.52" y="257.5" ></text>
</g>
<g >
<title>firedrake.pointquery_utils.to_reference_coordinates (458,170 us, 0.39%)</title><rect x="597.7" y="311" width="4.7" height="15.0" fill="rgb(0,0,0)" rx="2" ry="2" />
<text  x="600.74" y="321.5" ></text>
</g>
<g >
<title>pyop2.global_kernel.GlobalKernel.compile (13,030,448 us, 11.16%)</title><rect x="259.0" y="199" width="131.6" height="15.0" fill="rgb(0,0,0)" rx="2" ry="2" />
<text  x="261.99" y="209.5" >pyop2.global_ke..</text>
</g>
<g >
<title>firedrake.dmhooks.coarsen (2,526,492 us, 2.16%)</title><rect x="602.4" y="263" width="25.5" height="15.0" fill="rgb(0,0,0)" rx="2" ry="2" />
<text  x="605.37" y="273.5" >f..</text>
</g>
<g >
<title>MatMult (1,322,823 us, 1.13%)</title><rect x="589.0" y="263" width="13.4" height="15.0" fill="rgb(0,0,0)" rx="2" ry="2" />
<text  x="592.01" y="273.5" ></text>
</g>
<g >
<title>pyop2.global_kernel.GlobalKernel.compile (605,693 us, 0.52%)</title><rect x="605.9" y="343" width="6.1" height="15.0" fill="rgb(0,0,0)" rx="2" ry="2" />
<text  x="608.86" y="353.5" ></text>
</g>
<g >
<title>Parloop_Cells_wrap_wrap_slate_loopy_knl_7 (14,773,659 us, 12.65%)</title><rect x="659.4" y="279" width="149.2" height="15.0" fill="rgb(0,0,0)" rx="2" ry="2" />
<text  x="662.38" y="289.5" >Parloop_Cells_wra..</text>
</g>
<g >
<title>Parloop_Cells_wrap_wrap_slate_loopy_knl_0 (11,372,195 us, 9.74%)</title><rect x="455.2" y="183" width="114.9" height="15.0" fill="rgb(0,0,0)" rx="2" ry="2" />
<text  x="458.23" y="193.5" >Parloop_Cell..</text>
</g>
<g >
<title>Parloop_set_#x7f60d63ae290_wrap_pyop2_kernel_restrict (675,182 us, 0.58%)</title><rect x="628.1" y="295" width="6.8" height="15.0" fill="rgb(0,0,0)" rx="2" ry="2" />
<text  x="631.11" y="305.5" ></text>
</g>
<g >
<title>firedrake.matrix_free.operators.ImplicitMatrixContext.mult (20,474 us, 0.02%)</title><rect x="639.5" y="231" width="0.2" height="15.0" fill="rgb(0,0,0)" rx="2" ry="2" />
<text  x="642.52" y="241.5" ></text>
</g>
<g >
<title>firedrake.mg.embedded.TransferManager.op (1,322,823 us, 1.13%)</title><rect x="589.0" y="279" width="13.4" height="15.0" fill="rgb(0,0,0)" rx="2" ry="2" />
<text  x="592.01" y="289.5" ></text>
</g>
<g >
<title>Parloop_Cells_wrap_par_loop_kernel (913,573 us, 0.78%)</title><rect x="128.8" y="199" width="9.2" height="15.0" fill="rgb(0,0,0)" rx="2" ry="2" />
<text  x="131.82" y="209.5" ></text>
</g>
<g >
<title>PCSetUp (736,643 us, 0.63%)</title><rect x="1113.9" y="103" width="7.4" height="15.0" fill="rgb(0,0,0)" rx="2" ry="2" />
<text  x="1116.86" y="113.5" ></text>
</g>
<g >
<title>RecoverFirstElim (17,099,174 us, 14.64%)</title><rect x="243.5" y="151" width="172.8" height="15.0" fill="rgb(0,0,0)" rx="2" ry="2" />
<text  x="246.54" y="161.5" >RecoverFirstElim</text>
</g>
<g >
<title>PCSetUp (20,269,785 us, 17.35%)</title><rect x="834.2" y="215" width="204.7" height="15.0" fill="rgb(0,0,0)" rx="2" ry="2" />
<text  x="837.18" y="225.5" >PCSetUp</text>
</g>
<g >
<title>Parloop_Cells_wrap_expression_kernel (1,090,180 us, 0.93%)</title><rect x="612.0" y="359" width="11.0" height="15.0" fill="rgb(0,0,0)" rx="2" ry="2" />
<text  x="614.98" y="369.5" ></text>
</g>
<g >
<title>firedrake.mg.interface.restrict (1,151,298 us, 0.99%)</title><rect x="627.9" y="263" width="11.6" height="15.0" fill="rgb(0,0,0)" rx="2" ry="2" />
<text  x="630.89" y="273.5" ></text>
</g>
<g >
<title>Log_Event_slate_loopy_knl_7 (12,835 us, 0.01%)</title><rect x="588.1" y="279" width="0.1" height="15.0" fill="rgb(0,0,0)" rx="2" ry="2" />
<text  x="591.09" y="289.5" ></text>
</g>
<g >
<title>firedrake.__init__ (1,975,247 us, 1.69%)</title><rect x="28.5" y="71" width="19.9" height="15.0" fill="rgb(0,0,0)" rx="2" ry="2" />
<text  x="31.48" y="81.5" ></text>
</g>
<g >
<title>firedrake.mg.interface.inject (2,507,102 us, 2.15%)</title><rect x="602.6" y="295" width="25.3" height="15.0" fill="rgb(0,0,0)" rx="2" ry="2" />
<text  x="605.57" y="305.5" >f..</text>
</g>
<g >
<title>Parloop_Cells_wrap_form1_cell_integral_otherwise (2,487,699 us, 2.13%)</title><rect x="1153.4" y="135" width="25.2" height="15.0" fill="rgb(0,0,0)" rx="2" ry="2" />
<text  x="1156.43" y="145.5" >P..</text>
</g>
<g >
<title>Parloop_Cells_wrap_form0_cell_integral_otherwise (3,251,221 us, 2.78%)</title><rect x="48.6" y="167" width="32.8" height="15.0" fill="rgb(0,0,0)" rx="2" ry="2" />
<text  x="51.56" y="177.5" >Pa..</text>
</g>
<g >
<title>all (116,807,101 us, 100%)</title><rect x="10.0" y="39" width="1180.0" height="15.0" fill="rgb(0,0,0)" rx="2" ry="2" />
<text  x="13.00" y="49.5" ></text>
</g>
<g >
<title>ParLoopExecute (5,550,956 us, 4.75%)</title><rect x="48.6" y="151" width="56.0" height="15.0" fill="rgb(0,0,0)" rx="2" ry="2" />
<text  x="51.56" y="161.5" >ParLo..</text>
</g>
<g >
<title>firedrake.tsfc_interface.compile_form (358,849 us, 0.31%)</title><rect x="1110.2" y="167" width="3.7" height="15.0" fill="rgb(0,0,0)" rx="2" ry="2" />
<text  x="1113.23" y="177.5" ></text>
</g>
<g >
<title>ParLoopExecute (16,028,598 us, 13.72%)</title><rect x="851.8" y="231" width="161.9" height="15.0" fill="rgb(0,0,0)" rx="2" ry="2" />
<text  x="854.81" y="241.5" >ParLoopExecute</text>
</g>
<g >
<title>Parloop_Cells_wrap_form1_cell_integral_otherwise (2,299,735 us, 1.97%)</title><rect x="81.4" y="167" width="23.2" height="15.0" fill="rgb(0,0,0)" rx="2" ry="2" />
<text  x="84.40" y="177.5" >P..</text>
</g>
<g >
<title>ParLoopExecute (913,573 us, 0.78%)</title><rect x="128.8" y="183" width="9.2" height="15.0" fill="rgb(0,0,0)" rx="2" ry="2" />
<text  x="131.82" y="193.5" ></text>
</g>
<g >
<title>firedrake.interpolation.Interpolator.interpolate (1,090,180 us, 0.93%)</title><rect x="612.0" y="327" width="11.0" height="15.0" fill="rgb(0,0,0)" rx="2" ry="2" />
<text  x="614.98" y="337.5" ></text>
</g>
<g >
<title>KSPSolve (19,248,596 us, 16.48%)</title><rect x="639.7" y="215" width="194.5" height="15.0" fill="rgb(0,0,0)" rx="2" ry="2" />
<text  x="642.73" y="225.5" >KSPSolve</text>
</g>
<g >
<title>firedrake.tsfc_interface.compile_form (2,529,357 us, 2.17%)</title><rect x="808.6" y="263" width="25.6" height="15.0" fill="rgb(0,0,0)" rx="2" ry="2" />
<text  x="811.63" y="273.5" >f..</text>
</g>
<g >
<title>ParLoopExecute (1,090,180 us, 0.93%)</title><rect x="612.0" y="343" width="11.0" height="15.0" fill="rgb(0,0,0)" rx="2" ry="2" />
<text  x="614.98" y="353.5" ></text>
</g>
<g >
<title>firedrake.tsfc_interface.compile_form (1,203,568 us, 1.03%)</title><rect x="104.6" y="151" width="12.2" height="15.0" fill="rgb(0,0,0)" rx="2" ry="2" />
<text  x="107.64" y="161.5" ></text>
</g>
<g >
<title>HybridProject (913,573 us, 0.78%)</title><rect x="128.8" y="151" width="9.2" height="15.0" fill="rgb(0,0,0)" rx="2" ry="2" />
<text  x="131.82" y="161.5" ></text>
</g>
<g >
<title>CreateExtMesh (970,258 us, 0.83%)</title><rect x="18.5" y="71" width="9.8" height="15.0" fill="rgb(0,0,0)" rx="2" ry="2" />
<text  x="21.47" y="81.5" ></text>
</g>
<g >
<title>ParLoopExecute (915,645 us, 0.78%)</title><rect x="19.0" y="103" width="9.3" height="15.0" fill="rgb(0,0,0)" rx="2" ry="2" />
<text  x="22.02" y="113.5" ></text>
</g>
<g >
<title>firedrake.mg.embedded.TransferManager.op (2,507,102 us, 2.15%)</title><rect x="602.6" y="279" width="25.3" height="15.0" fill="rgb(0,0,0)" rx="2" ry="2" />
<text  x="605.57" y="289.5" >f..</text>
</g>
<g >
<title>ParLoopExecute (13,030,448 us, 11.16%)</title><rect x="259.0" y="167" width="131.6" height="15.0" fill="rgb(0,0,0)" rx="2" ry="2" />
<text  x="261.99" y="177.5" >ParLoopExecute</text>
</g>
<g >
<title>DMCoarsen (2,526,492 us, 2.16%)</title><rect x="602.4" y="247" width="25.5" height="15.0" fill="rgb(0,0,0)" rx="2" ry="2" />
<text  x="605.37" y="257.5" >D..</text>
</g>
<g >
<title>KSPSolve (105,452,734 us, 90.28%)</title><rect x="48.6" y="103" width="1065.3" height="15.0" fill="rgb(0,0,0)" rx="2" ry="2" />
<text  x="51.56" y="113.5" >KSPSolve</text>
</g>
<g >
<title>ParLoopExecute (595,027 us, 0.51%)</title><rect x="591.7" y="311" width="6.0" height="15.0" fill="rgb(0,0,0)" rx="2" ry="2" />
<text  x="594.73" y="321.5" ></text>
</g>
<g >
<title>PCApply (5,019,484 us, 4.30%)</title><rect x="588.8" y="215" width="50.7" height="15.0" fill="rgb(0,0,0)" rx="2" ry="2" />
<text  x="591.82" y="225.5" >PCAp..</text>
</g>
<g >
<title>PCSetUp (39,860,332 us, 34.12%)</title><rect x="639.7" y="183" width="402.7" height="15.0" fill="rgb(0,0,0)" rx="2" ry="2" />
<text  x="642.73" y="193.5" >PCSetUp</text>
</g>
</g>
</svg>
