<?xml version="1.0" standalone="no"?>
<!DOCTYPE svg PUBLIC "-//W3C//DTD SVG 1.1//EN" "http://www.w3.org/Graphics/SVG/1.1/DTD/svg11.dtd">
<svg version="1.1" width="1200" height="283" onload="init(evt)" viewBox="0 0 1200 283" xmlns="http://www.w3.org/2000/svg" xmlns:xlink="http://www.w3.org/1999/xlink">
<!-- Flame graph stack visualization. See https://github.com/brendangregg/FlameGraph for latest version, and http://www.brendangregg.com/flamegraphs.html for examples. -->
<!-- NOTES:  -->
<defs>
	<linearGradient id="background" y1="0" y2="1" x1="0" x2="0" >
		<stop stop-color="#eeeeee" offset="5%" />
		<stop stop-color="#eeeeb0" offset="95%" />
	</linearGradient>
</defs>
<style type="text/css">
	text { font-family:Verdana; font-size:13px; fill:rgb(0,0,0); }
	#search, #ignorecase { opacity:0.1; cursor:pointer; }
	#search:hover, #search.show, #ignorecase:hover, #ignorecase.show { opacity:1; }
	#subtitle { text-anchor:middle; font-color:rgb(160,160,160); }
	#title { text-anchor:middle; font-size:18px}
	#unzoom { cursor:pointer; }
	#frames > *:hover { stroke:black; stroke-width:0.5; cursor:pointer; }
	.hide { display:none; }
	.parent { opacity:0.5; }
</style>
<script type="text/ecmascript">
<![CDATA[
	"use strict";
	var details, searchbtn, unzoombtn, matchedtxt, svg, searching, currentSearchTerm, ignorecase, ignorecaseBtn;
	function init(evt) {
		details = document.getElementById("details").firstChild;
		searchbtn = document.getElementById("search");
		ignorecaseBtn = document.getElementById("ignorecase");
		unzoombtn = document.getElementById("unzoom");
		matchedtxt = document.getElementById("matched");
		svg = document.getElementsByTagName("svg")[0];
		searching = 0;
		currentSearchTerm = null;

		// use GET parameters to restore a flamegraphs state.
		var params = get_params();
		if (params.x && params.y)
			zoom(find_group(document.querySelector('[x="' + params.x + '"][y="' + params.y + '"]')));
                if (params.s) search(params.s);
	}

	// event listeners
	window.addEventListener("click", function(e) {
		var target = find_group(e.target);
		if (target) {
			if (target.nodeName == "a") {
				if (e.ctrlKey === false) return;
				e.preventDefault();
			}
			if (target.classList.contains("parent")) unzoom();
			zoom(target);
			if (!document.querySelector('.parent')) {
				clearzoom();
				return;
			}

			// set parameters for zoom state
			var el = target.querySelector("rect");
			if (el && el.attributes && el.attributes.y && el.attributes._orig_x) {
				var params = get_params()
				params.x = el.attributes._orig_x.value;
				params.y = el.attributes.y.value;
				history.replaceState(null, null, parse_params(params));
			}
		}
		else if (e.target.id == "unzoom") clearzoom();
		else if (e.target.id == "search") search_prompt();
		else if (e.target.id == "ignorecase") toggle_ignorecase();
	}, false)

	// mouse-over for info
	// show
	window.addEventListener("mouseover", function(e) {
		var target = find_group(e.target);
		if (target) details.nodeValue = "Function: " + g_to_text(target);
	}, false)

	// clear
	window.addEventListener("mouseout", function(e) {
		var target = find_group(e.target);
		if (target) details.nodeValue = ' ';
	}, false)

	// ctrl-F for search
	// ctrl-I to toggle case-sensitive search
	window.addEventListener("keydown",function (e) {
		if (e.keyCode === 114 || (e.ctrlKey && e.keyCode === 70)) {
			e.preventDefault();
			search_prompt();
		}
		else if (e.ctrlKey && e.keyCode === 73) {
			e.preventDefault();
			toggle_ignorecase();
		}
	}, false)

	// functions
	function get_params() {
		var params = {};
		var paramsarr = window.location.search.substr(1).split('&');
		for (var i = 0; i < paramsarr.length; ++i) {
			var tmp = paramsarr[i].split("=");
			if (!tmp[0] || !tmp[1]) continue;
			params[tmp[0]]  = decodeURIComponent(tmp[1]);
		}
		return params;
	}
	function parse_params(params) {
		var uri = "?";
		for (var key in params) {
			uri += key + '=' + encodeURIComponent(params[key]) + '&';
		}
		if (uri.slice(-1) == "&")
			uri = uri.substring(0, uri.length - 1);
		if (uri == '?')
			uri = window.location.href.split('?')[0];
		return uri;
	}
	function find_child(node, selector) {
		var children = node.querySelectorAll(selector);
		if (children.length) return children[0];
	}
	function find_group(node) {
		var parent = node.parentElement;
		if (!parent) return;
		if (parent.id == "frames") return node;
		return find_group(parent);
	}
	function orig_save(e, attr, val) {
		if (e.attributes["_orig_" + attr] != undefined) return;
		if (e.attributes[attr] == undefined) return;
		if (val == undefined) val = e.attributes[attr].value;
		e.setAttribute("_orig_" + attr, val);
	}
	function orig_load(e, attr) {
		if (e.attributes["_orig_"+attr] == undefined) return;
		e.attributes[attr].value = e.attributes["_orig_" + attr].value;
		e.removeAttribute("_orig_"+attr);
	}
	function g_to_text(e) {
		var text = find_child(e, "title").firstChild.nodeValue;
		return (text)
	}
	function g_to_func(e) {
		var func = g_to_text(e);
		// if there's any manipulation we want to do to the function
		// name before it's searched, do it here before returning.
		return (func);
	}
	function update_text(e) {
		var r = find_child(e, "rect");
		var t = find_child(e, "text");
		var w = parseFloat(r.attributes.width.value) -3;
		var txt = find_child(e, "title").textContent.replace(/\([^(]*\)$/,"");
		t.attributes.x.value = parseFloat(r.attributes.x.value) + 3;

		// Smaller than this size won't fit anything
		if (w < 2 * 13 * 0.59) {
			t.textContent = "";
			return;
		}

		t.textContent = txt;
		// Fit in full text width
		if (/^ *$/.test(txt) || t.getSubStringLength(0, txt.length) < w)
			return;

		for (var x = txt.length - 2; x > 0; x--) {
			if (t.getSubStringLength(0, x + 2) <= w) {
				t.textContent = txt.substring(0, x) + "..";
				return;
			}
		}
		t.textContent = "";
	}

	// zoom
	function zoom_reset(e) {
		if (e.attributes != undefined) {
			orig_load(e, "x");
			orig_load(e, "width");
		}
		if (e.childNodes == undefined) return;
		for (var i = 0, c = e.childNodes; i < c.length; i++) {
			zoom_reset(c[i]);
		}
	}
	function zoom_child(e, x, ratio) {
		if (e.attributes != undefined) {
			if (e.attributes.x != undefined) {
				orig_save(e, "x");
				e.attributes.x.value = (parseFloat(e.attributes.x.value) - x - 10) * ratio + 10;
				if (e.tagName == "text")
					e.attributes.x.value = find_child(e.parentNode, "rect[x]").attributes.x.value + 3;
			}
			if (e.attributes.width != undefined) {
				orig_save(e, "width");
				e.attributes.width.value = parseFloat(e.attributes.width.value) * ratio;
			}
		}

		if (e.childNodes == undefined) return;
		for (var i = 0, c = e.childNodes; i < c.length; i++) {
			zoom_child(c[i], x - 10, ratio);
		}
	}
	function zoom_parent(e) {
		if (e.attributes) {
			if (e.attributes.x != undefined) {
				orig_save(e, "x");
				e.attributes.x.value = 10;
			}
			if (e.attributes.width != undefined) {
				orig_save(e, "width");
				e.attributes.width.value = parseInt(svg.width.baseVal.value) - (10 * 2);
			}
		}
		if (e.childNodes == undefined) return;
		for (var i = 0, c = e.childNodes; i < c.length; i++) {
			zoom_parent(c[i]);
		}
	}
	function zoom(node) {
		var attr = find_child(node, "rect").attributes;
		var width = parseFloat(attr.width.value);
		var xmin = parseFloat(attr.x.value);
		var xmax = parseFloat(xmin + width);
		var ymin = parseFloat(attr.y.value);
		var ratio = (svg.width.baseVal.value - 2 * 10) / width;

		// XXX: Workaround for JavaScript float issues (fix me)
		var fudge = 0.0001;

		unzoombtn.classList.remove("hide");

		var el = document.getElementById("frames").children;
		for (var i = 0; i < el.length; i++) {
			var e = el[i];
			var a = find_child(e, "rect").attributes;
			var ex = parseFloat(a.x.value);
			var ew = parseFloat(a.width.value);
			var upstack;
			// Is it an ancestor
			if (1 == 0) {
				upstack = parseFloat(a.y.value) > ymin;
			} else {
				upstack = parseFloat(a.y.value) < ymin;
			}
			if (upstack) {
				// Direct ancestor
				if (ex <= xmin && (ex+ew+fudge) >= xmax) {
					e.classList.add("parent");
					zoom_parent(e);
					update_text(e);
				}
				// not in current path
				else
					e.classList.add("hide");
			}
			// Children maybe
			else {
				// no common path
				if (ex < xmin || ex + fudge >= xmax) {
					e.classList.add("hide");
				}
				else {
					zoom_child(e, xmin, ratio);
					update_text(e);
				}
			}
		}
		search();
	}
	function unzoom() {
		unzoombtn.classList.add("hide");
		var el = document.getElementById("frames").children;
		for(var i = 0; i < el.length; i++) {
			el[i].classList.remove("parent");
			el[i].classList.remove("hide");
			zoom_reset(el[i]);
			update_text(el[i]);
		}
		search();
	}
	function clearzoom() {
		unzoom();

		// remove zoom state
		var params = get_params();
		if (params.x) delete params.x;
		if (params.y) delete params.y;
		history.replaceState(null, null, parse_params(params));
	}

	// search
	function toggle_ignorecase() {
		ignorecase = !ignorecase;
		if (ignorecase) {
			ignorecaseBtn.classList.add("show");
		} else {
			ignorecaseBtn.classList.remove("show");
		}
		reset_search();
		search();
	}
	function reset_search() {
		var el = document.querySelectorAll("#frames rect");
		for (var i = 0; i < el.length; i++) {
			orig_load(el[i], "fill")
		}
		var params = get_params();
		delete params.s;
		history.replaceState(null, null, parse_params(params));
	}
	function search_prompt() {
		if (!searching) {
			var term = prompt("Enter a search term (regexp " +
			    "allowed, eg: ^ext4_)"
			    + (ignorecase ? ", ignoring case" : "")
			    + "\nPress Ctrl-i to toggle case sensitivity", "");
			if (term != null) search(term);
		} else {
			reset_search();
			searching = 0;
			currentSearchTerm = null;
			searchbtn.classList.remove("show");
			searchbtn.firstChild.nodeValue = "Search"
			matchedtxt.classList.add("hide");
			matchedtxt.firstChild.nodeValue = ""
		}
	}
	function search(term) {
		if (term) currentSearchTerm = term;

		var re = new RegExp(currentSearchTerm, ignorecase ? 'i' : '');
		var el = document.getElementById("frames").children;
		var matches = new Object();
		var maxwidth = 0;
		for (var i = 0; i < el.length; i++) {
			var e = el[i];
			var func = g_to_func(e);
			var rect = find_child(e, "rect");
			if (func == null || rect == null)
				continue;

			// Save max width. Only works as we have a root frame
			var w = parseFloat(rect.attributes.width.value);
			if (w > maxwidth)
				maxwidth = w;

			if (func.match(re)) {
				// highlight
				var x = parseFloat(rect.attributes.x.value);
				orig_save(rect, "fill");
				rect.attributes.fill.value = "rgb(230,0,230)";

				// remember matches
				if (matches[x] == undefined) {
					matches[x] = w;
				} else {
					if (w > matches[x]) {
						// overwrite with parent
						matches[x] = w;
					}
				}
				searching = 1;
			}
		}
		if (!searching)
			return;
		var params = get_params();
		params.s = currentSearchTerm;
		history.replaceState(null, null, parse_params(params));

		searchbtn.classList.add("show");
		searchbtn.firstChild.nodeValue = "Reset Search";

		// calculate percent matched, excluding vertical overlap
		var count = 0;
		var lastx = -1;
		var lastw = 0;
		var keys = Array();
		for (k in matches) {
			if (matches.hasOwnProperty(k))
				keys.push(k);
		}
		// sort the matched frames by their x location
		// ascending, then width descending
		keys.sort(function(a, b){
			return a - b;
		});
		// Step through frames saving only the biggest bottom-up frames
		// thanks to the sort order. This relies on the tree property
		// where children are always smaller than their parents.
		var fudge = 0.0001;	// JavaScript floating point
		for (var k in keys) {
			var x = parseFloat(keys[k]);
			var w = matches[keys[k]];
			if (x >= lastx + lastw - fudge) {
				count += w;
				lastx = x;
				lastw = w;
			}
		}
		// display matched percent
		matchedtxt.classList.remove("hide");
		var pct = 100 * count / maxwidth;
		if (pct != 100) pct = pct.toFixed(1)
		matchedtxt.firstChild.nodeValue = "Matched: " + pct + "%";
	}
]]>
</script>
<rect x="0.0" y="0" width="1200.0" height="283.0" fill="url(#background)"  />
<text id="title" x="600.00" y="26" >Firedrake example</text>
<text id="details" x="10.00" y="265" > </text>
<text id="unzoom" x="10.00" y="26" class="hide">Reset Zoom</text>
<text id="search" x="1090.00" y="26" >Search</text>
<text id="ignorecase" x="1174.00" y="26" >ic</text>
<text id="matched" x="1090.00" y="265" > </text>
<g id="frames">
<g >
<title>Mesh: numbering (928 us, 0.05%)</title><rect x="70.6" y="87" width="0.6" height="15.0" fill="rgb(0,0,0)" rx="2" ry="2" />
<text  x="73.65" y="97.5" ></text>
</g>
<g >
<title>pyop2.global_kernel.GlobalKernel.compile (35,240 us, 1.73%)</title><rect x="1133.3" y="151" width="20.4" height="15.0" fill="rgb(0,0,0)" rx="2" ry="2" />
<text  x="1136.30" y="161.5" ></text>
</g>
<g >
<title>firedrake.ufl_expr.adjoint (3,163 us, 0.16%)</title><rect x="991.7" y="119" width="1.9" height="15.0" fill="rgb(0,0,0)" rx="2" ry="2" />
<text  x="994.74" y="129.5" ></text>
</g>
<g >
<title>KSPSolve (136,048 us, 6.67%)</title><rect x="993.6" y="103" width="78.7" height="15.0" fill="rgb(0,0,0)" rx="2" ry="2" />
<text  x="996.57" y="113.5" >KSPSolve</text>
</g>
<g >
<title>firedrake.assemble.allocate_matrix (7,373 us, 0.36%)</title><rect x="989.3" y="87" width="4.3" height="15.0" fill="rgb(0,0,0)" rx="2" ry="2" />
<text  x="992.30" y="97.5" ></text>
</g>
<g >
<title>firedrake.functionspacedata.FunctionSpaceData.__init__ (4,648 us, 0.23%)</title><rect x="1085.1" y="183" width="2.7" height="15.0" fill="rgb(0,0,0)" rx="2" ry="2" />
<text  x="1088.08" y="193.5" ></text>
</g>
<g >
<title>firedrake.functionspaceimpl.FunctionSpace.__init__ (1,730 us, 0.08%)</title><rect x="1083.2" y="183" width="1.0" height="15.0" fill="rgb(0,0,0)" rx="2" ry="2" />
<text  x="1086.22" y="193.5" ></text>
</g>
<g >
<title>firedrake.utility_meshes.SquareMesh (1,783 us, 0.09%)</title><rect x="977.3" y="71" width="1.0" height="15.0" fill="rgb(0,0,0)" rx="2" ry="2" />
<text  x="980.26" y="81.5" ></text>
</g>
<g >
<title>firedrake.variational_solver.LinearVariationalProblem.__init__ (17,690 us, 0.87%)</title><rect x="978.3" y="71" width="10.2" height="15.0" fill="rgb(0,0,0)" rx="2" ry="2" />
<text  x="981.29" y="81.5" ></text>
</g>
<g >
<title>CreateFunctionSpace (2,343 us, 0.11%)</title><rect x="1082.9" y="167" width="1.3" height="15.0" fill="rgb(0,0,0)" rx="2" ry="2" />
<text  x="1085.86" y="177.5" ></text>
</g>
<g >
<title>firedrake.functionspacedata.get_shared_data (2,278 us, 0.11%)</title><rect x="1094.7" y="215" width="1.3" height="15.0" fill="rgb(0,0,0)" rx="2" ry="2" />
<text  x="1097.67" y="225.5" ></text>
</g>
<g >
<title>CreateFunctionSpace (7,479 us, 0.37%)</title><rect x="52.0" y="103" width="4.4" height="15.0" fill="rgb(0,0,0)" rx="2" ry="2" />
<text  x="55.03" y="113.5" ></text>
</g>
<g >
<title>ParLoopExecute (32,643 us, 1.60%)</title><rect x="1109.6" y="151" width="18.8" height="15.0" fill="rgb(0,0,0)" rx="2" ry="2" />
<text  x="1112.55" y="161.5" ></text>
</g>
<g >
<title>firedrake.variational_solver.NonlinearVariationalProblem.__init__ (12,086 us, 0.59%)</title><rect x="981.5" y="87" width="7.0" height="15.0" fill="rgb(0,0,0)" rx="2" ry="2" />
<text  x="984.53" y="97.5" ></text>
</g>
<g >
<title>firedrake.functionspaceimpl.FunctionSpace.__init__ (407 us, 0.02%)</title><rect x="977.0" y="87" width="0.3" height="15.0" fill="rgb(0,0,0)" rx="2" ry="2" />
<text  x="980.02" y="97.5" ></text>
</g>
<g >
<title>firedrake (2,040,145 us, 100.00%)</title><rect x="10.0" y="55" width="1180.0" height="15.0" fill="rgb(0,0,0)" rx="2" ry="2" />
<text  x="13.00" y="65.5" >firedrake</text>
</g>
<g >
<title>firedrake.functionspaceimpl.FunctionSpace.__init__ (442 us, 0.02%)</title><rect x="1189.7" y="199" width="0.3" height="15.0" fill="rgb(0,0,0)" rx="2" ry="2" />
<text  x="1192.74" y="209.5" ></text>
</g>
<g >
<title>firedrake.ufl_expr.action (5,267 us, 0.26%)</title><rect x="978.5" y="87" width="3.0" height="15.0" fill="rgb(0,0,0)" rx="2" ry="2" />
<text  x="981.48" y="97.5" ></text>
</g>
<g >
<title>SCForwardElim (136,048 us, 6.67%)</title><rect x="993.6" y="135" width="78.7" height="15.0" fill="rgb(0,0,0)" rx="2" ry="2" />
<text  x="996.57" y="145.5" >SCForwar..</text>
</g>
<g >
<title>firedrake.utility_meshes.RectangleMesh (1,783 us, 0.09%)</title><rect x="977.3" y="87" width="1.0" height="15.0" fill="rgb(0,0,0)" rx="2" ry="2" />
<text  x="980.26" y="97.5" ></text>
</g>
<g >
<title>firedrake.functionspacedata.get_shared_data (19,610 us, 0.96%)</title><rect x="58.7" y="103" width="11.3" height="15.0" fill="rgb(0,0,0)" rx="2" ry="2" />
<text  x="61.67" y="113.5" ></text>
</g>
<g >
<title>firedrake.variational_solver.NonlinearVariationalSolver.__init__ (8,730 us, 0.43%)</title><rect x="988.5" y="71" width="5.1" height="15.0" fill="rgb(0,0,0)" rx="2" ry="2" />
<text  x="991.52" y="81.5" ></text>
</g>
<g >
<title>firedrake.functionspace.make_scalar_element (901 us, 0.04%)</title><rect x="57.6" y="87" width="0.6" height="15.0" fill="rgb(0,0,0)" rx="2" ry="2" />
<text  x="60.63" y="97.5" ></text>
</g>
<g >
<title>firedrake.function.Function.__init__ (767 us, 0.04%)</title><rect x="1071.8" y="183" width="0.5" height="15.0" fill="rgb(0,0,0)" rx="2" ry="2" />
<text  x="1074.81" y="193.5" ></text>
</g>
<g >
<title>firedrake.functionspace.make_scalar_element (1,126 us, 0.06%)</title><rect x="1084.4" y="151" width="0.7" height="15.0" fill="rgb(0,0,0)" rx="2" ry="2" />
<text  x="1087.43" y="161.5" ></text>
</g>
<g >
<title>FunctionSpaceData: CreateElement (772 us, 0.04%)</title><rect x="55.5" y="167" width="0.5" height="15.0" fill="rgb(0,0,0)" rx="2" ry="2" />
<text  x="58.54" y="177.5" ></text>
</g>
<g >
<title>firedrake.variational_solver.NonlinearVariationalSolver.solve (339,617 us, 16.65%)</title><rect x="993.6" y="71" width="196.4" height="15.0" fill="rgb(0,0,0)" rx="2" ry="2" />
<text  x="996.57" y="81.5" >firedrake.variational_s..</text>
</g>
<g >
<title>ParLoopExecute (34,012 us, 1.67%)</title><rect x="997.2" y="183" width="19.7" height="15.0" fill="rgb(0,0,0)" rx="2" ry="2" />
<text  x="1000.22" y="193.5" ></text>
</g>
<g >
<title>firedrake.formmanipulation.ExtractSubBlock.argument (1,414 us, 0.07%)</title><rect x="1189.2" y="167" width="0.8" height="15.0" fill="rgb(0,0,0)" rx="2" ry="2" />
<text  x="1192.18" y="177.5" ></text>
</g>
<g >
<title>pyop2.global_kernel.GlobalKernel.compile (32,643 us, 1.60%)</title><rect x="1109.6" y="183" width="18.8" height="15.0" fill="rgb(0,0,0)" rx="2" ry="2" />
<text  x="1112.55" y="193.5" ></text>
</g>
<g >
<title>ParLoopExecute (69,815 us, 3.42%)</title><rect x="1131.8" y="119" width="40.4" height="15.0" fill="rgb(0,0,0)" rx="2" ry="2" />
<text  x="1134.84" y="129.5" >Par..</text>
</g>
<g >
<title>firedrake.slate.slac.optimise.optimise (7,230 us, 0.35%)</title><rect x="1068.1" y="167" width="4.2" height="15.0" fill="rgb(0,0,0)" rx="2" ry="2" />
<text  x="1071.08" y="177.5" ></text>
</g>
<g >
<title>SNESFunctionEval (104,255 us, 5.11%)</title><rect x="1129.7" y="103" width="60.3" height="15.0" fill="rgb(0,0,0)" rx="2" ry="2" />
<text  x="1132.70" y="113.5" >SNESF..</text>
</g>
<g >
<title>CreateMesh (436 us, 0.02%)</title><rect x="977.7" y="103" width="0.2" height="15.0" fill="rgb(0,0,0)" rx="2" ry="2" />
<text  x="980.65" y="113.5" ></text>
</g>
<g >
<title>firedrake.matrix_free.operators.ImplicitMatrixContext.__init__ (7,373 us, 0.36%)</title><rect x="989.3" y="103" width="4.3" height="15.0" fill="rgb(0,0,0)" rx="2" ry="2" />
<text  x="992.30" y="113.5" ></text>
</g>
<g >
<title>firedrake.functionspaceimpl.WithGeometry.split (847 us, 0.04%)</title><rect x="1096.0" y="183" width="0.5" height="15.0" fill="rgb(0,0,0)" rx="2" ry="2" />
<text  x="1098.98" y="193.5" ></text>
</g>
<g >
<title>CreateExtMesh (81,590 us, 4.00%)</title><rect x="10.0" y="71" width="47.2" height="15.0" fill="rgb(0,0,0)" rx="2" ry="2" />
<text  x="13.00" y="81.5" >Crea..</text>
</g>
<g >
<title>CreateFunctionSpace (22,159 us, 1.09%)</title><rect x="57.2" y="71" width="12.8" height="15.0" fill="rgb(0,0,0)" rx="2" ry="2" />
<text  x="60.19" y="81.5" ></text>
</g>
<g >
<title>pyop2.global_kernel.GlobalKernel.compile (34,012 us, 1.67%)</title><rect x="997.2" y="215" width="19.7" height="15.0" fill="rgb(0,0,0)" rx="2" ry="2" />
<text  x="1000.22" y="225.5" ></text>
</g>
<g >
<title>firedrake.functionspacedata.get_shared_data (407 us, 0.02%)</title><rect x="977.0" y="103" width="0.3" height="15.0" fill="rgb(0,0,0)" rx="2" ry="2" />
<text  x="980.02" y="113.5" ></text>
</g>
<g >
<title>firedrake.__init__ (1,564,533 us, 76.69%)</title><rect x="71.6" y="71" width="904.9" height="15.0" fill="rgb(0,0,0)" rx="2" ry="2" />
<text  x="74.60" y="81.5" >firedrake.__init__</text>
</g>
<g >
<title>CreateFunctionSpace (9,192 us, 0.45%)</title><rect x="1082.4" y="135" width="5.4" height="15.0" fill="rgb(0,0,0)" rx="2" ry="2" />
<text  x="1085.45" y="145.5" ></text>
</g>
<g >
<title>firedrake.functionspacedata.FunctionSpaceData.__init__ (2,278 us, 0.11%)</title><rect x="1094.7" y="231" width="1.3" height="15.0" fill="rgb(0,0,0)" rx="2" ry="2" />
<text  x="1097.67" y="241.5" ></text>
</g>
<g >
<title>PCSetUp (99,314 us, 4.87%)</title><rect x="1072.3" y="103" width="57.4" height="15.0" fill="rgb(0,0,0)" rx="2" ry="2" />
<text  x="1075.26" y="113.5" >PCSetUp</text>
</g>
<g >
<title>PCApply (136,048 us, 6.67%)</title><rect x="993.6" y="119" width="78.7" height="15.0" fill="rgb(0,0,0)" rx="2" ry="2" />
<text  x="996.57" y="129.5" >PCApply</text>
</g>
<g >
<title>CreateMesh (436 us, 0.02%)</title><rect x="977.7" y="119" width="0.2" height="15.0" fill="rgb(0,0,0)" rx="2" ry="2" />
<text  x="980.65" y="129.5" ></text>
</g>
<g >
<title>firedrake.functionspace.MixedFunctionSpace (1,296 us, 0.06%)</title><rect x="976.5" y="71" width="0.8" height="15.0" fill="rgb(0,0,0)" rx="2" ry="2" />
<text  x="979.51" y="81.5" ></text>
</g>
<g >
<title>firedrake.formmanipulation.ExtractSubBlock.split (3,604 us, 0.18%)</title><rect x="1187.9" y="151" width="2.1" height="15.0" fill="rgb(0,0,0)" rx="2" ry="2" />
<text  x="1190.92" y="161.5" ></text>
</g>
<g >
<title>CreateFunctionSpace (6,988 us, 0.34%)</title><rect x="1091.9" y="183" width="4.1" height="15.0" fill="rgb(0,0,0)" rx="2" ry="2" />
<text  x="1094.94" y="193.5" ></text>
</g>
<g >
<title>firedrake.mesh._from_cell_list (659 us, 0.03%)</title><rect x="977.9" y="103" width="0.4" height="15.0" fill="rgb(0,0,0)" rx="2" ry="2" />
<text  x="980.91" y="113.5" ></text>
</g>
<g >
<title>firedrake.assemble.allocate_matrix (893 us, 0.04%)</title><rect x="1087.8" y="135" width="0.5" height="15.0" fill="rgb(0,0,0)" rx="2" ry="2" />
<text  x="1090.76" y="145.5" ></text>
</g>
<g >
<title>firedrake.ufl_expr.derivative (1,296 us, 0.06%)</title><rect x="987.8" y="103" width="0.7" height="15.0" fill="rgb(0,0,0)" rx="2" ry="2" />
<text  x="990.77" y="113.5" ></text>
</g>
<g >
<title>CreateMesh (2,031 us, 0.10%)</title><rect x="70.0" y="71" width="1.2" height="15.0" fill="rgb(0,0,0)" rx="2" ry="2" />
<text  x="73.01" y="81.5" ></text>
</g>
<g >
<title>pyop2.global_kernel.GlobalKernel.compile (31,449 us, 1.54%)</title><rect x="1154.0" y="151" width="18.2" height="15.0" fill="rgb(0,0,0)" rx="2" ry="2" />
<text  x="1157.03" y="161.5" ></text>
</g>
<g >
<title>ParLoopExecute (39,284 us, 1.93%)</title><rect x="29.1" y="103" width="22.7" height="15.0" fill="rgb(0,0,0)" rx="2" ry="2" />
<text  x="32.07" y="113.5" ></text>
</g>
<g >
<title>pyop2.global_kernel.GlobalKernel.compile (37,620 us, 1.84%)</title><rect x="30.0" y="135" width="21.8" height="15.0" fill="rgb(0,0,0)" rx="2" ry="2" />
<text  x="33.03" y="145.5" ></text>
</g>
<g >
<title>firedrake.functionspacedata.FunctionSpaceData.__init__ (359 us, 0.02%)</title><rect x="1084.2" y="199" width="0.2" height="15.0" fill="rgb(0,0,0)" rx="2" ry="2" />
<text  x="1087.22" y="209.5" ></text>
</g>
<g >
<title>firedrake.function.Function.__init__ (893 us, 0.04%)</title><rect x="1087.8" y="167" width="0.5" height="15.0" fill="rgb(0,0,0)" rx="2" ry="2" />
<text  x="1090.76" y="177.5" ></text>
</g>
<g >
<title>Parloop_Cells_wrap_form1_cell_integral_otherwise (32,053 us, 1.57%)</title><rect x="1153.7" y="135" width="18.5" height="15.0" fill="rgb(0,0,0)" rx="2" ry="2" />
<text  x="1156.68" y="145.5" ></text>
</g>
<g >
<title>firedrake.functionspacedata.FunctionSpaceData.__init__ (407 us, 0.02%)</title><rect x="977.0" y="119" width="0.3" height="15.0" fill="rgb(0,0,0)" rx="2" ry="2" />
<text  x="980.02" y="129.5" ></text>
</g>
<g >
<title>PetscBarrier (716 us, 0.04%)</title><rect x="71.2" y="71" width="0.4" height="15.0" fill="rgb(0,0,0)" rx="2" ry="2" />
<text  x="74.18" y="81.5" ></text>
</g>
<g >
<title>firedrake.mesh.ExtrudedMeshTopology.__init__ (782 us, 0.04%)</title><rect x="56.4" y="87" width="0.4" height="15.0" fill="rgb(0,0,0)" rx="2" ry="2" />
<text  x="59.36" y="97.5" ></text>
</g>
<g >
<title>SNESSolve (339,617 us, 16.65%)</title><rect x="993.6" y="87" width="196.4" height="15.0" fill="rgb(0,0,0)" rx="2" ry="2" />
<text  x="996.57" y="97.5" >SNESSolve</text>
</g>
<g >
<title>firedrake.matrix_free.operators.ImplicitMatrixContext.__init__ (893 us, 0.04%)</title><rect x="1087.8" y="151" width="0.5" height="15.0" fill="rgb(0,0,0)" rx="2" ry="2" />
<text  x="1090.76" y="161.5" ></text>
</g>
<g >
<title>firedrake.functionspaceimpl.FunctionSpace.__init__ (4,648 us, 0.23%)</title><rect x="1085.1" y="151" width="2.7" height="15.0" fill="rgb(0,0,0)" rx="2" ry="2" />
<text  x="1088.08" y="161.5" ></text>
</g>
<g >
<title>all (2,040,145 us, 100%)</title><rect x="10.0" y="39" width="1180.0" height="15.0" fill="rgb(0,0,0)" rx="2" ry="2" />
<text  x="13.00" y="49.5" ></text>
</g>
<g >
<title>firedrake.functionspaceimpl.FunctionSpace.__init__ (3,251 us, 0.16%)</title><rect x="1094.1" y="199" width="1.9" height="15.0" fill="rgb(0,0,0)" rx="2" ry="2" />
<text  x="1097.10" y="209.5" ></text>
</g>
<g >
<title>firedrake.functionspace.MixedFunctionSpace (3,418 us, 0.17%)</title><rect x="1082.4" y="151" width="2.0" height="15.0" fill="rgb(0,0,0)" rx="2" ry="2" />
<text  x="1085.45" y="161.5" ></text>
</g>
<g >
<title>firedrake.formmanipulation.ExtractSubBlock.argument (9,694 us, 0.48%)</title><rect x="1090.9" y="167" width="5.6" height="15.0" fill="rgb(0,0,0)" rx="2" ry="2" />
<text  x="1093.87" y="177.5" ></text>
</g>
<g >
<title>firedrake.extrusion_utils.make_extruded_coords (71,612 us, 3.51%)</title><rect x="10.4" y="87" width="41.4" height="15.0" fill="rgb(0,0,0)" rx="2" ry="2" />
<text  x="13.37" y="97.5" >fir..</text>
</g>
<g >
<title>firedrake.functionspaceimpl.FunctionSpace.__init__ (20,499 us, 1.00%)</title><rect x="58.2" y="87" width="11.8" height="15.0" fill="rgb(0,0,0)" rx="2" ry="2" />
<text  x="61.15" y="97.5" ></text>
</g>
<g >
<title>firedrake.functionspaceimpl.FunctionSpace.__init__ (359 us, 0.02%)</title><rect x="1084.2" y="167" width="0.2" height="15.0" fill="rgb(0,0,0)" rx="2" ry="2" />
<text  x="1087.22" y="177.5" ></text>
</g>
<g >
<title>firedrake.function.Function.__init__ (1,013 us, 0.05%)</title><rect x="1096.5" y="135" width="0.6" height="15.0" fill="rgb(0,0,0)" rx="2" ry="2" />
<text  x="1099.47" y="145.5" ></text>
</g>
<g >
<title>firedrake.mesh._Facets.__init__ (867 us, 0.04%)</title><rect x="69.5" y="151" width="0.5" height="15.0" fill="rgb(0,0,0)" rx="2" ry="2" />
<text  x="72.51" y="161.5" ></text>
</g>
<g >
<title>firedrake.functionspacedata.get_shared_data (359 us, 0.02%)</title><rect x="1084.2" y="183" width="0.2" height="15.0" fill="rgb(0,0,0)" rx="2" ry="2" />
<text  x="1087.22" y="193.5" ></text>
</g>
<g >
<title>firedrake.formmanipulation.split_form (14,164 us, 0.69%)</title><rect x="1088.3" y="135" width="8.2" height="15.0" fill="rgb(0,0,0)" rx="2" ry="2" />
<text  x="1091.28" y="145.5" ></text>
</g>
<g >
<title>firedrake.ufl_expr.adjoint (2,193 us, 0.11%)</title><rect x="1128.4" y="135" width="1.3" height="15.0" fill="rgb(0,0,0)" rx="2" ry="2" />
<text  x="1131.43" y="145.5" ></text>
</g>
<g >
<title>Parloop_Cells_wrap_par_loop_kernel (32,643 us, 1.60%)</title><rect x="1109.6" y="167" width="18.8" height="15.0" fill="rgb(0,0,0)" rx="2" ry="2" />
<text  x="1112.55" y="177.5" ></text>
</g>
<g >
<title>firedrake.functionspacedata.get_shared_data (442 us, 0.02%)</title><rect x="1189.7" y="215" width="0.3" height="15.0" fill="rgb(0,0,0)" rx="2" ry="2" />
<text  x="1192.74" y="225.5" ></text>
</g>
<g >
<title>firedrake.functionspace.VectorFunctionSpace (7,893 us, 0.39%)</title><rect x="51.8" y="87" width="4.6" height="15.0" fill="rgb(0,0,0)" rx="2" ry="2" />
<text  x="54.79" y="97.5" ></text>
</g>
<g >
<title>Parloop_Cells_wrap_form0_cell_integral_otherwise (37,293 us, 1.83%)</title><rect x="1132.1" y="135" width="21.6" height="15.0" fill="rgb(0,0,0)" rx="2" ry="2" />
<text  x="1135.11" y="145.5" ></text>
</g>
<g >
<title>firedrake.interpolation.make_interpolator (16,543 us, 0.81%)</title><rect x="1097.1" y="135" width="9.5" height="15.0" fill="rgb(0,0,0)" rx="2" ry="2" />
<text  x="1100.06" y="145.5" ></text>
</g>
<g >
<title>firedrake.parloops.par_loop (37,697 us, 1.85%)</title><rect x="1106.6" y="135" width="21.8" height="15.0" fill="rgb(0,0,0)" rx="2" ry="2" />
<text  x="1109.63" y="145.5" ></text>
</g>
<g >
<title>firedrake.functionspacedata.FunctionSpaceData.__init__ (6,789 us, 0.33%)</title><rect x="52.4" y="151" width="4.0" height="15.0" fill="rgb(0,0,0)" rx="2" ry="2" />
<text  x="55.43" y="161.5" ></text>
</g>
<g >
<title>FunctionSpaceData: CreateElement (7,165 us, 0.35%)</title><rect x="64.4" y="135" width="4.1" height="15.0" fill="rgb(0,0,0)" rx="2" ry="2" />
<text  x="67.36" y="145.5" ></text>
</g>
<g >
<title>firedrake.mesh.MeshTopology._facets (2,607 us, 0.13%)</title><rect x="68.5" y="135" width="1.5" height="15.0" fill="rgb(0,0,0)" rx="2" ry="2" />
<text  x="71.50" y="145.5" ></text>
</g>
<g >
<title>firedrake.parloops.par_loop (39,826 us, 1.95%)</title><rect x="993.9" y="167" width="23.0" height="15.0" fill="rgb(0,0,0)" rx="2" ry="2" />
<text  x="996.86" y="177.5" >f..</text>
</g>
<g >
<title>Log_Event_form0_cell_integral_otherwise (2,053 us, 0.10%)</title><rect x="1132.1" y="151" width="1.2" height="15.0" fill="rgb(0,0,0)" rx="2" ry="2" />
<text  x="1135.11" y="161.5" ></text>
</g>
<g >
<title>firedrake.functionspaceimpl.FunctionSpace.__init__ (7,130 us, 0.35%)</title><rect x="52.2" y="119" width="4.2" height="15.0" fill="rgb(0,0,0)" rx="2" ry="2" />
<text  x="55.23" y="129.5" ></text>
</g>
<g >
<title>firedrake.functionspace.make_scalar_element (349 us, 0.02%)</title><rect x="52.0" y="119" width="0.2" height="15.0" fill="rgb(0,0,0)" rx="2" ry="2" />
<text  x="55.03" y="129.5" ></text>
</g>
<g >
<title>firedrake.function.Function.split (958 us, 0.05%)</title><rect x="988.0" y="119" width="0.5" height="15.0" fill="rgb(0,0,0)" rx="2" ry="2" />
<text  x="990.97" y="129.5" ></text>
</g>
<g >
<title>Log_Event_form1_cell_integral_otherwise (604 us, 0.03%)</title><rect x="1153.7" y="151" width="0.3" height="15.0" fill="rgb(0,0,0)" rx="2" ry="2" />
<text  x="1156.68" y="161.5" ></text>
</g>
<g >
<title>firedrake.functionspacedata.FunctionSpaceData.__init__ (19,610 us, 0.96%)</title><rect x="58.7" y="119" width="11.3" height="15.0" fill="rgb(0,0,0)" rx="2" ry="2" />
<text  x="61.67" y="129.5" ></text>
</g>
<g >
<title>firedrake.ufl_expr.adjoint (10,790 us, 0.53%)</title><rect x="981.5" y="103" width="6.3" height="15.0" fill="rgb(0,0,0)" rx="2" ry="2" />
<text  x="984.53" y="113.5" ></text>
</g>
<g >
<title>HybridBreak (40,331 us, 1.98%)</title><rect x="993.6" y="151" width="23.3" height="15.0" fill="rgb(0,0,0)" rx="2" ry="2" />
<text  x="996.57" y="161.5" >H..</text>
</g>
<g >
<title>firedrake.formmanipulation.split_form (6,700 us, 0.33%)</title><rect x="1186.1" y="135" width="3.9" height="15.0" fill="rgb(0,0,0)" rx="2" ry="2" />
<text  x="1189.12" y="145.5" ></text>
</g>
<g >
<title>CreateMesh (485 us, 0.02%)</title><rect x="70.4" y="87" width="0.2" height="15.0" fill="rgb(0,0,0)" rx="2" ry="2" />
<text  x="73.36" y="97.5" ></text>
</g>
<g >
<title>Parloop_Cells_wrap_par_loop_kernel (34,012 us, 1.67%)</title><rect x="997.2" y="199" width="19.7" height="15.0" fill="rgb(0,0,0)" rx="2" ry="2" />
<text  x="1000.22" y="209.5" ></text>
</g>
<g >
<title>firedrake.mesh.make_mesh_from_coordinates (658 us, 0.03%)</title><rect x="56.8" y="87" width="0.4" height="15.0" fill="rgb(0,0,0)" rx="2" ry="2" />
<text  x="59.81" y="97.5" ></text>
</g>
<g >
<title>firedrake.functionspacedata.FunctionSpaceData.__init__ (1,730 us, 0.08%)</title><rect x="1083.2" y="215" width="1.0" height="15.0" fill="rgb(0,0,0)" rx="2" ry="2" />
<text  x="1086.22" y="225.5" ></text>
</g>
<g >
<title>firedrake.functionspace.make_scalar_element (1,760 us, 0.09%)</title><rect x="1093.1" y="199" width="1.0" height="15.0" fill="rgb(0,0,0)" rx="2" ry="2" />
<text  x="1096.09" y="209.5" ></text>
</g>
<g >
<title>firedrake.functionspacedata.get_shared_data (4,648 us, 0.23%)</title><rect x="1085.1" y="167" width="2.7" height="15.0" fill="rgb(0,0,0)" rx="2" ry="2" />
<text  x="1088.08" y="177.5" ></text>
</g>
<g >
<title>firedrake.ufl_expr.action (4,210 us, 0.21%)</title><rect x="989.3" y="119" width="2.4" height="15.0" fill="rgb(0,0,0)" rx="2" ry="2" />
<text  x="992.30" y="129.5" ></text>
</g>
<g >
<title>firedrake.mesh._Facets.__init__ (635 us, 0.03%)</title><rect x="56.0" y="167" width="0.4" height="15.0" fill="rgb(0,0,0)" rx="2" ry="2" />
<text  x="58.99" y="177.5" ></text>
</g>
<g >
<title>HybridRHS (95,717 us, 4.69%)</title><rect x="1016.9" y="151" width="55.4" height="15.0" fill="rgb(0,0,0)" rx="2" ry="2" />
<text  x="1019.90" y="161.5" >Hybri..</text>
</g>
<g >
<title>firedrake.tsfc_interface.compile_form (30,737 us, 1.51%)</title><rect x="1172.2" y="119" width="17.8" height="15.0" fill="rgb(0,0,0)" rx="2" ry="2" />
<text  x="1175.22" y="129.5" ></text>
</g>
<g >
<title>firedrake.functionspacedata.get_shared_data (6,789 us, 0.33%)</title><rect x="52.4" y="135" width="4.0" height="15.0" fill="rgb(0,0,0)" rx="2" ry="2" />
<text  x="55.43" y="145.5" ></text>
</g>
<g >
<title>CreateFunctionSpace (1,062 us, 0.05%)</title><rect x="1189.4" y="183" width="0.6" height="15.0" fill="rgb(0,0,0)" rx="2" ry="2" />
<text  x="1192.39" y="193.5" ></text>
</g>
<g >
<title>firedrake.functionspacedata.get_shared_data (1,730 us, 0.08%)</title><rect x="1083.2" y="199" width="1.0" height="15.0" fill="rgb(0,0,0)" rx="2" ry="2" />
<text  x="1086.22" y="209.5" ></text>
</g>
<g >
<title>firedrake.formmanipulation.ExtractSubBlock.split (13,408 us, 0.66%)</title><rect x="1088.7" y="151" width="7.8" height="15.0" fill="rgb(0,0,0)" rx="2" ry="2" />
<text  x="1091.72" y="161.5" ></text>
</g>
<g >
<title>FunctionSpaceData: CreateElement (4,648 us, 0.23%)</title><rect x="1085.1" y="199" width="2.7" height="15.0" fill="rgb(0,0,0)" rx="2" ry="2" />
<text  x="1088.08" y="209.5" ></text>
</g>
<g >
<title>Parloop_Cells_wrap_pyop2_kernel_uniform_extrusion (38,069 us, 1.87%)</title><rect x="29.8" y="119" width="22.0" height="15.0" fill="rgb(0,0,0)" rx="2" ry="2" />
<text  x="32.77" y="129.5" ></text>
</g>
<g >
<title>firedrake.functionspacedata.FunctionSpaceData.__init__ (442 us, 0.02%)</title><rect x="1189.7" y="231" width="0.3" height="15.0" fill="rgb(0,0,0)" rx="2" ry="2" />
<text  x="1192.74" y="241.5" ></text>
</g>
<g >
<title>HybridInit (99,314 us, 4.87%)</title><rect x="1072.3" y="119" width="57.4" height="15.0" fill="rgb(0,0,0)" rx="2" ry="2" />
<text  x="1075.26" y="129.5" >Hybri..</text>
</g>
</g>
</svg>
