<?xml version="1.0" standalone="no"?>
<!DOCTYPE svg PUBLIC "-//W3C//DTD SVG 1.1//EN" "http://www.w3.org/Graphics/SVG/1.1/DTD/svg11.dtd">
<svg version="1.1" width="1200" height="395" onload="init(evt)" viewBox="0 0 1200 395" xmlns="http://www.w3.org/2000/svg" xmlns:xlink="http://www.w3.org/1999/xlink">
<!-- Flame graph stack visualization. See https://github.com/brendangregg/FlameGraph for latest version, and http://www.brendangregg.com/flamegraphs.html for examples. -->
<!-- NOTES:  -->
<defs>
	<linearGradient id="background" y1="0" y2="1" x1="0" x2="0" >
		<stop stop-color="#eeeeee" offset="5%" />
		<stop stop-color="#eeeeb0" offset="95%" />
	</linearGradient>
</defs>
<style type="text/css">
	text { font-family:Verdana; font-size:13px; fill:rgb(0,0,0); }
	#search, #ignorecase { opacity:0.1; cursor:pointer; }
	#search:hover, #search.show, #ignorecase:hover, #ignorecase.show { opacity:1; }
	#subtitle { text-anchor:middle; font-color:rgb(160,160,160); }
	#title { text-anchor:middle; font-size:18px}
	#unzoom { cursor:pointer; }
	#frames > *:hover { stroke:black; stroke-width:0.5; cursor:pointer; }
	.hide { display:none; }
	.parent { opacity:0.5; }
</style>
<script type="text/ecmascript">
<![CDATA[
	"use strict";
	var details, searchbtn, unzoombtn, matchedtxt, svg, searching, currentSearchTerm, ignorecase, ignorecaseBtn;
	function init(evt) {
		details = document.getElementById("details").firstChild;
		searchbtn = document.getElementById("search");
		ignorecaseBtn = document.getElementById("ignorecase");
		unzoombtn = document.getElementById("unzoom");
		matchedtxt = document.getElementById("matched");
		svg = document.getElementsByTagName("svg")[0];
		searching = 0;
		currentSearchTerm = null;

		// use GET parameters to restore a flamegraphs state.
		var params = get_params();
		if (params.x && params.y)
			zoom(find_group(document.querySelector('[x="' + params.x + '"][y="' + params.y + '"]')));
                if (params.s) search(params.s);
	}

	// event listeners
	window.addEventListener("click", function(e) {
		var target = find_group(e.target);
		if (target) {
			if (target.nodeName == "a") {
				if (e.ctrlKey === false) return;
				e.preventDefault();
			}
			if (target.classList.contains("parent")) unzoom();
			zoom(target);
			if (!document.querySelector('.parent')) {
				clearzoom();
				return;
			}

			// set parameters for zoom state
			var el = target.querySelector("rect");
			if (el && el.attributes && el.attributes.y && el.attributes._orig_x) {
				var params = get_params()
				params.x = el.attributes._orig_x.value;
				params.y = el.attributes.y.value;
				history.replaceState(null, null, parse_params(params));
			}
		}
		else if (e.target.id == "unzoom") clearzoom();
		else if (e.target.id == "search") search_prompt();
		else if (e.target.id == "ignorecase") toggle_ignorecase();
	}, false)

	// mouse-over for info
	// show
	window.addEventListener("mouseover", function(e) {
		var target = find_group(e.target);
		if (target) details.nodeValue = "Function: " + g_to_text(target);
	}, false)

	// clear
	window.addEventListener("mouseout", function(e) {
		var target = find_group(e.target);
		if (target) details.nodeValue = ' ';
	}, false)

	// ctrl-F for search
	// ctrl-I to toggle case-sensitive search
	window.addEventListener("keydown",function (e) {
		if (e.keyCode === 114 || (e.ctrlKey && e.keyCode === 70)) {
			e.preventDefault();
			search_prompt();
		}
		else if (e.ctrlKey && e.keyCode === 73) {
			e.preventDefault();
			toggle_ignorecase();
		}
	}, false)

	// functions
	function get_params() {
		var params = {};
		var paramsarr = window.location.search.substr(1).split('&');
		for (var i = 0; i < paramsarr.length; ++i) {
			var tmp = paramsarr[i].split("=");
			if (!tmp[0] || !tmp[1]) continue;
			params[tmp[0]]  = decodeURIComponent(tmp[1]);
		}
		return params;
	}
	function parse_params(params) {
		var uri = "?";
		for (var key in params) {
			uri += key + '=' + encodeURIComponent(params[key]) + '&';
		}
		if (uri.slice(-1) == "&")
			uri = uri.substring(0, uri.length - 1);
		if (uri == '?')
			uri = window.location.href.split('?')[0];
		return uri;
	}
	function find_child(node, selector) {
		var children = node.querySelectorAll(selector);
		if (children.length) return children[0];
	}
	function find_group(node) {
		var parent = node.parentElement;
		if (!parent) return;
		if (parent.id == "frames") return node;
		return find_group(parent);
	}
	function orig_save(e, attr, val) {
		if (e.attributes["_orig_" + attr] != undefined) return;
		if (e.attributes[attr] == undefined) return;
		if (val == undefined) val = e.attributes[attr].value;
		e.setAttribute("_orig_" + attr, val);
	}
	function orig_load(e, attr) {
		if (e.attributes["_orig_"+attr] == undefined) return;
		e.attributes[attr].value = e.attributes["_orig_" + attr].value;
		e.removeAttribute("_orig_"+attr);
	}
	function g_to_text(e) {
		var text = find_child(e, "title").firstChild.nodeValue;
		return (text)
	}
	function g_to_func(e) {
		var func = g_to_text(e);
		// if there's any manipulation we want to do to the function
		// name before it's searched, do it here before returning.
		return (func);
	}
	function update_text(e) {
		var r = find_child(e, "rect");
		var t = find_child(e, "text");
		var w = parseFloat(r.attributes.width.value) -3;
		var txt = find_child(e, "title").textContent.replace(/\([^(]*\)$/,"");
		t.attributes.x.value = parseFloat(r.attributes.x.value) + 3;

		// Smaller than this size won't fit anything
		if (w < 2 * 13 * 0.59) {
			t.textContent = "";
			return;
		}

		t.textContent = txt;
		// Fit in full text width
		if (/^ *$/.test(txt) || t.getSubStringLength(0, txt.length) < w)
			return;

		for (var x = txt.length - 2; x > 0; x--) {
			if (t.getSubStringLength(0, x + 2) <= w) {
				t.textContent = txt.substring(0, x) + "..";
				return;
			}
		}
		t.textContent = "";
	}

	// zoom
	function zoom_reset(e) {
		if (e.attributes != undefined) {
			orig_load(e, "x");
			orig_load(e, "width");
		}
		if (e.childNodes == undefined) return;
		for (var i = 0, c = e.childNodes; i < c.length; i++) {
			zoom_reset(c[i]);
		}
	}
	function zoom_child(e, x, ratio) {
		if (e.attributes != undefined) {
			if (e.attributes.x != undefined) {
				orig_save(e, "x");
				e.attributes.x.value = (parseFloat(e.attributes.x.value) - x - 10) * ratio + 10;
				if (e.tagName == "text")
					e.attributes.x.value = find_child(e.parentNode, "rect[x]").attributes.x.value + 3;
			}
			if (e.attributes.width != undefined) {
				orig_save(e, "width");
				e.attributes.width.value = parseFloat(e.attributes.width.value) * ratio;
			}
		}

		if (e.childNodes == undefined) return;
		for (var i = 0, c = e.childNodes; i < c.length; i++) {
			zoom_child(c[i], x - 10, ratio);
		}
	}
	function zoom_parent(e) {
		if (e.attributes) {
			if (e.attributes.x != undefined) {
				orig_save(e, "x");
				e.attributes.x.value = 10;
			}
			if (e.attributes.width != undefined) {
				orig_save(e, "width");
				e.attributes.width.value = parseInt(svg.width.baseVal.value) - (10 * 2);
			}
		}
		if (e.childNodes == undefined) return;
		for (var i = 0, c = e.childNodes; i < c.length; i++) {
			zoom_parent(c[i]);
		}
	}
	function zoom(node) {
		var attr = find_child(node, "rect").attributes;
		var width = parseFloat(attr.width.value);
		var xmin = parseFloat(attr.x.value);
		var xmax = parseFloat(xmin + width);
		var ymin = parseFloat(attr.y.value);
		var ratio = (svg.width.baseVal.value - 2 * 10) / width;

		// XXX: Workaround for JavaScript float issues (fix me)
		var fudge = 0.0001;

		unzoombtn.classList.remove("hide");

		var el = document.getElementById("frames").children;
		for (var i = 0; i < el.length; i++) {
			var e = el[i];
			var a = find_child(e, "rect").attributes;
			var ex = parseFloat(a.x.value);
			var ew = parseFloat(a.width.value);
			var upstack;
			// Is it an ancestor
			if (1 == 0) {
				upstack = parseFloat(a.y.value) > ymin;
			} else {
				upstack = parseFloat(a.y.value) < ymin;
			}
			if (upstack) {
				// Direct ancestor
				if (ex <= xmin && (ex+ew+fudge) >= xmax) {
					e.classList.add("parent");
					zoom_parent(e);
					update_text(e);
				}
				// not in current path
				else
					e.classList.add("hide");
			}
			// Children maybe
			else {
				// no common path
				if (ex < xmin || ex + fudge >= xmax) {
					e.classList.add("hide");
				}
				else {
					zoom_child(e, xmin, ratio);
					update_text(e);
				}
			}
		}
		search();
	}
	function unzoom() {
		unzoombtn.classList.add("hide");
		var el = document.getElementById("frames").children;
		for(var i = 0; i < el.length; i++) {
			el[i].classList.remove("parent");
			el[i].classList.remove("hide");
			zoom_reset(el[i]);
			update_text(el[i]);
		}
		search();
	}
	function clearzoom() {
		unzoom();

		// remove zoom state
		var params = get_params();
		if (params.x) delete params.x;
		if (params.y) delete params.y;
		history.replaceState(null, null, parse_params(params));
	}

	// search
	function toggle_ignorecase() {
		ignorecase = !ignorecase;
		if (ignorecase) {
			ignorecaseBtn.classList.add("show");
		} else {
			ignorecaseBtn.classList.remove("show");
		}
		reset_search();
		search();
	}
	function reset_search() {
		var el = document.querySelectorAll("#frames rect");
		for (var i = 0; i < el.length; i++) {
			orig_load(el[i], "fill")
		}
		var params = get_params();
		delete params.s;
		history.replaceState(null, null, parse_params(params));
	}
	function search_prompt() {
		if (!searching) {
			var term = prompt("Enter a search term (regexp " +
			    "allowed, eg: ^ext4_)"
			    + (ignorecase ? ", ignoring case" : "")
			    + "\nPress Ctrl-i to toggle case sensitivity", "");
			if (term != null) search(term);
		} else {
			reset_search();
			searching = 0;
			currentSearchTerm = null;
			searchbtn.classList.remove("show");
			searchbtn.firstChild.nodeValue = "Search"
			matchedtxt.classList.add("hide");
			matchedtxt.firstChild.nodeValue = ""
		}
	}
	function search(term) {
		if (term) currentSearchTerm = term;

		var re = new RegExp(currentSearchTerm, ignorecase ? 'i' : '');
		var el = document.getElementById("frames").children;
		var matches = new Object();
		var maxwidth = 0;
		for (var i = 0; i < el.length; i++) {
			var e = el[i];
			var func = g_to_func(e);
			var rect = find_child(e, "rect");
			if (func == null || rect == null)
				continue;

			// Save max width. Only works as we have a root frame
			var w = parseFloat(rect.attributes.width.value);
			if (w > maxwidth)
				maxwidth = w;

			if (func.match(re)) {
				// highlight
				var x = parseFloat(rect.attributes.x.value);
				orig_save(rect, "fill");
				rect.attributes.fill.value = "rgb(230,0,230)";

				// remember matches
				if (matches[x] == undefined) {
					matches[x] = w;
				} else {
					if (w > matches[x]) {
						// overwrite with parent
						matches[x] = w;
					}
				}
				searching = 1;
			}
		}
		if (!searching)
			return;
		var params = get_params();
		params.s = currentSearchTerm;
		history.replaceState(null, null, parse_params(params));

		searchbtn.classList.add("show");
		searchbtn.firstChild.nodeValue = "Reset Search";

		// calculate percent matched, excluding vertical overlap
		var count = 0;
		var lastx = -1;
		var lastw = 0;
		var keys = Array();
		for (k in matches) {
			if (matches.hasOwnProperty(k))
				keys.push(k);
		}
		// sort the matched frames by their x location
		// ascending, then width descending
		keys.sort(function(a, b){
			return a - b;
		});
		// Step through frames saving only the biggest bottom-up frames
		// thanks to the sort order. This relies on the tree property
		// where children are always smaller than their parents.
		var fudge = 0.0001;	// JavaScript floating point
		for (var k in keys) {
			var x = parseFloat(keys[k]);
			var w = matches[keys[k]];
			if (x >= lastx + lastw - fudge) {
				count += w;
				lastx = x;
				lastw = w;
			}
		}
		// display matched percent
		matchedtxt.classList.remove("hide");
		var pct = 100 * count / maxwidth;
		if (pct != 100) pct = pct.toFixed(1)
		matchedtxt.firstChild.nodeValue = "Matched: " + pct + "%";
	}
]]>
</script>
<rect x="0.0" y="0" width="1200.0" height="395.0" fill="url(#background)"  />
<text id="title" x="600.00" y="26" >Firedrake example</text>
<text id="details" x="10.00" y="377" > </text>
<text id="unzoom" x="10.00" y="26" class="hide">Reset Zoom</text>
<text id="search" x="1090.00" y="26" >Search</text>
<text id="ignorecase" x="1174.00" y="26" >ic</text>
<text id="matched" x="1090.00" y="377" > </text>
<g id="frames">
<g >
<title>firedrake.interpolation.make_interpolator (131,246 us, 0.05%)</title><rect x="757.9" y="167" width="0.6" height="15.0" fill="rgb(0,0,0)" rx="2" ry="2" />
<text  x="760.88" y="177.5" ></text>
</g>
<g >
<title>ParLoopExecute (7,751,915 us, 3.04%)</title><rect x="1148.4" y="119" width="35.9" height="15.0" fill="rgb(0,0,0)" rx="2" ry="2" />
<text  x="1151.37" y="129.5" >Pa..</text>
</g>
<g >
<title>Parloop_Cells_wrap_pyop2_kernel_uniform_extrusion (885,369 us, 0.35%)</title><rect x="14.3" y="119" width="4.1" height="15.0" fill="rgb(0,0,0)" rx="2" ry="2" />
<text  x="17.26" y="129.5" ></text>
</g>
<g >
<title>ParLoopExecute (836,999 us, 0.33%)</title><rect x="51.4" y="183" width="3.9" height="15.0" fill="rgb(0,0,0)" rx="2" ry="2" />
<text  x="54.44" y="193.5" ></text>
</g>
<g >
<title>Log_Event_subkernel16_cell_to__cell_integral_otherwise (189,827 us, 0.07%)</title><rect x="64.1" y="183" width="0.9" height="15.0" fill="rgb(0,0,0)" rx="2" ry="2" />
<text  x="67.14" y="193.5" ></text>
</g>
<g >
<title>firedrake.interpolation.Interpolator.interpolate (1,045,319 us, 0.41%)</title><rect x="716.0" y="295" width="4.8" height="15.0" fill="rgb(0,0,0)" rx="2" ry="2" />
<text  x="718.98" y="305.5" ></text>
</g>
<g >
<title>Log_Event_subkernel15_cell_to__cell_integral_otherwise (462,450 us, 0.18%)</title><rect x="62.0" y="183" width="2.1" height="15.0" fill="rgb(0,0,0)" rx="2" ry="2" />
<text  x="65.00" y="193.5" ></text>
</g>
<g >
<title>pyop2.global_kernel.GlobalKernel.compile (28,315,002 us, 11.11%)</title><rect x="69.0" y="183" width="131.2" height="15.0" fill="rgb(0,0,0)" rx="2" ry="2" />
<text  x="72.05" y="193.5" >pyop2.global_ke..</text>
</g>
<g >
<title>firedrake.tsfc_interface.compile_form (5,027,068 us, 1.97%)</title><rect x="439.1" y="167" width="23.2" height="15.0" fill="rgb(0,0,0)" rx="2" ry="2" />
<text  x="442.07" y="177.5" >f..</text>
</g>
<g >
<title>firedrake.variational_solver.NonlinearVariationalSolver.solve (251,491,158 us, 98.69%)</title><rect x="25.5" y="71" width="1164.5" height="15.0" fill="rgb(0,0,0)" rx="2" ry="2" />
<text  x="28.46" y="81.5" >firedrake.variational_solver.NonlinearVariationalSolver.solve</text>
</g>
<g >
<title>ParLoopExecute (3,064,987 us, 1.20%)</title><rect x="25.5" y="151" width="14.2" height="15.0" fill="rgb(0,0,0)" rx="2" ry="2" />
<text  x="28.46" y="161.5" ></text>
</g>
<g >
<title>solve_getrf (1,212,419 us, 0.48%)</title><rect x="55.9" y="199" width="5.6" height="15.0" fill="rgb(0,0,0)" rx="2" ry="2" />
<text  x="58.89" y="209.5" ></text>
</g>
<g >
<title>firedrake.extrusion_utils.make_extruded_coords (916,724 us, 0.36%)</title><rect x="14.1" y="87" width="4.3" height="15.0" fill="rgb(0,0,0)" rx="2" ry="2" />
<text  x="17.12" y="97.5" ></text>
</g>
<g >
<title>firedrake.tsfc_interface.compile_form (5,403,683 us, 2.12%)</title><rect x="1113.3" y="151" width="25.0" height="15.0" fill="rgb(0,0,0)" rx="2" ry="2" />
<text  x="1116.26" y="161.5" >f..</text>
</g>
<g >
<title>solve_getrs (70,247 us, 0.03%)</title><rect x="270.2" y="215" width="0.4" height="15.0" fill="rgb(0,0,0)" rx="2" ry="2" />
<text  x="273.24" y="225.5" ></text>
</g>
<g >
<title>SNESFunctionEval (8,991,084 us, 3.53%)</title><rect x="1148.4" y="103" width="41.6" height="15.0" fill="rgb(0,0,0)" rx="2" ry="2" />
<text  x="1151.37" y="113.5" >SNE..</text>
</g>
<g >
<title>MatMult (134,646 us, 0.05%)</title><rect x="711.5" y="231" width="0.6" height="15.0" fill="rgb(0,0,0)" rx="2" ry="2" />
<text  x="714.49" y="241.5" ></text>
</g>
<g >
<title>Parloop_set_#x7f1994f60b50_wrap_pyop2_kernel_restrict (634,076 us, 0.25%)</title><rect x="722.8" y="263" width="3.0" height="15.0" fill="rgb(0,0,0)" rx="2" ry="2" />
<text  x="725.84" y="273.5" ></text>
</g>
<g >
<title>PCSetUp (83,605,619 us, 32.81%)</title><rect x="761.2" y="103" width="387.2" height="15.0" fill="rgb(0,0,0)" rx="2" ry="2" />
<text  x="764.23" y="113.5" >PCSetUp</text>
</g>
<g >
<title>MatMultTranspose (29,070 us, 0.01%)</title><rect x="710.7" y="231" width="0.1" height="15.0" fill="rgb(0,0,0)" rx="2" ry="2" />
<text  x="713.67" y="241.5" ></text>
</g>
<g >
<title>Log_Event_subkernel17_interior_facet_horiz_bottom_to__exterior_facet_bottom_integral_otherwise (52,011 us, 0.02%)</title><rect x="65.0" y="183" width="0.3" height="15.0" fill="rgb(0,0,0)" rx="2" ry="2" />
<text  x="68.02" y="193.5" ></text>
</g>
<g >
<title>PCSetUp (7,251,750 us, 2.85%)</title><rect x="727.6" y="151" width="33.6" height="15.0" fill="rgb(0,0,0)" rx="2" ry="2" />
<text  x="730.65" y="161.5" >PC..</text>
</g>
<g >
<title>SCBackSub (93,275,864 us, 36.60%)</title><rect x="44.5" y="135" width="431.9" height="15.0" fill="rgb(0,0,0)" rx="2" ry="2" />
<text  x="47.46" y="145.5" >SCBackSub</text>
</g>
<g >
<title>Parloop_Cells_wrap_expression_kernel (1,045,319 us, 0.41%)</title><rect x="716.0" y="327" width="4.8" height="15.0" fill="rgb(0,0,0)" rx="2" ry="2" />
<text  x="718.98" y="337.5" ></text>
</g>
<g >
<title>CreateExtMesh (916,724 us, 0.36%)</title><rect x="14.1" y="71" width="4.3" height="15.0" fill="rgb(0,0,0)" rx="2" ry="2" />
<text  x="17.12" y="81.5" ></text>
</g>
<g >
<title>inv_memcpy (126,313 us, 0.05%)</title><rect x="871.8" y="199" width="0.6" height="15.0" fill="rgb(0,0,0)" rx="2" ry="2" />
<text  x="874.85" y="209.5" ></text>
</g>
<g >
<title>ParLoopExecute (41,519,106 us, 16.29%)</title><rect x="486.0" y="167" width="192.3" height="15.0" fill="rgb(0,0,0)" rx="2" ry="2" />
<text  x="489.05" y="177.5" >ParLoopExecute</text>
</g>
<g >
<title>Parloop_Cells_wrap_wrap_slate_loopy_knl_0 (74,053,964 us, 29.06%)</title><rect x="770.4" y="167" width="342.9" height="15.0" fill="rgb(0,0,0)" rx="2" ry="2" />
<text  x="773.35" y="177.5" >Parloop_Cells_wrap_wrap_slate_loopy_knl_0</text>
</g>
<g >
<title>Log_Event_subkernel17_interior_facet_horiz_top_to__exterior_facet_top_integral_otherwise (51,257 us, 0.02%)</title><rect x="65.3" y="183" width="0.2" height="15.0" fill="rgb(0,0,0)" rx="2" ry="2" />
<text  x="68.26" y="193.5" ></text>
</g>
<g >
<title>solve_getrf (2,503,193 us, 0.98%)</title><rect x="258.6" y="215" width="11.6" height="15.0" fill="rgb(0,0,0)" rx="2" ry="2" />
<text  x="261.65" y="225.5" ></text>
</g>
<g >
<title>PCApply (3,727,872 us, 1.46%)</title><rect x="694.2" y="183" width="17.3" height="15.0" fill="rgb(0,0,0)" rx="2" ry="2" />
<text  x="697.23" y="193.5" ></text>
</g>
<g >
<title>Parloop_Cells_wrap_expression_kernel (1,523,427 us, 0.60%)</title><rect x="727.6" y="183" width="7.1" height="15.0" fill="rgb(0,0,0)" rx="2" ry="2" />
<text  x="730.65" y="193.5" ></text>
</g>
<g >
<title>pyop2.global_kernel.GlobalKernel.compile (3,064,987 us, 1.20%)</title><rect x="25.5" y="183" width="14.2" height="15.0" fill="rgb(0,0,0)" rx="2" ry="2" />
<text  x="28.46" y="193.5" ></text>
</g>
<g >
<title>solve_getrs (50,550 us, 0.02%)</title><rect x="497.9" y="215" width="0.2" height="15.0" fill="rgb(0,0,0)" rx="2" ry="2" />
<text  x="500.85" y="225.5" ></text>
</g>
<g >
<title>Log_Event_subkernel3_interior_facet_vert_to__exterior_facet_vert_integral_otherwise (578,164 us, 0.23%)</title><rect x="887.1" y="183" width="2.7" height="15.0" fill="rgb(0,0,0)" rx="2" ry="2" />
<text  x="890.10" y="193.5" ></text>
</g>
<g >
<title>solve_memcpy (74,947 us, 0.03%)</title><rect x="61.7" y="199" width="0.3" height="15.0" fill="rgb(0,0,0)" rx="2" ry="2" />
<text  x="64.65" y="209.5" ></text>
</g>
<g >
<title>pyop2.global_kernel.GlobalKernel.compile (896,853 us, 0.35%)</title><rect x="476.4" y="215" width="4.1" height="15.0" fill="rgb(0,0,0)" rx="2" ry="2" />
<text  x="479.38" y="225.5" ></text>
</g>
<g >
<title>Log_Event_slate_loopy_knl_14 (1,347,261 us, 0.53%)</title><rect x="55.8" y="183" width="6.2" height="15.0" fill="rgb(0,0,0)" rx="2" ry="2" />
<text  x="58.76" y="193.5" ></text>
</g>
<g >
<title>MatMult (147,777 us, 0.06%)</title><rect x="710.8" y="215" width="0.7" height="15.0" fill="rgb(0,0,0)" rx="2" ry="2" />
<text  x="713.81" y="225.5" ></text>
</g>
<g >
<title>all (254,830,909 us, 100%)</title><rect x="10.0" y="39" width="1180.0" height="15.0" fill="rgb(0,0,0)" rx="2" ry="2" />
<text  x="13.00" y="49.5" ></text>
</g>
<g >
<title>inv_getri (5,883,306 us, 2.31%)</title><rect x="231.1" y="215" width="27.2" height="15.0" fill="rgb(0,0,0)" rx="2" ry="2" />
<text  x="234.06" y="225.5" >i..</text>
</g>
<g >
<title>PCApply (7,217,742 us, 2.83%)</title><rect x="694.2" y="167" width="33.4" height="15.0" fill="rgb(0,0,0)" rx="2" ry="2" />
<text  x="697.23" y="177.5" >PC..</text>
</g>
<g >
<title>pyop2.global_kernel.GlobalKernel.compile (885,369 us, 0.35%)</title><rect x="14.3" y="135" width="4.1" height="15.0" fill="rgb(0,0,0)" rx="2" ry="2" />
<text  x="17.26" y="145.5" ></text>
</g>
<g >
<title>pyop2.global_kernel.GlobalKernel.compile (634,076 us, 0.25%)</title><rect x="722.8" y="279" width="3.0" height="15.0" fill="rgb(0,0,0)" rx="2" ry="2" />
<text  x="725.84" y="289.5" ></text>
</g>
<g >
<title>HybridInit (83,605,619 us, 32.81%)</title><rect x="761.2" y="119" width="387.2" height="15.0" fill="rgb(0,0,0)" rx="2" ry="2" />
<text  x="764.23" y="129.5" >HybridInit</text>
</g>
<g >
<title>Log_Event_subkernel13_interior_facet_vert_to__exterior_facet_vert_integral_otherwise (767,463 us, 0.30%)</title><rect x="274.8" y="199" width="3.6" height="15.0" fill="rgb(0,0,0)" rx="2" ry="2" />
<text  x="277.80" y="209.5" ></text>
</g>
<g >
<title>Log_Event_inits_wrap_slate_loopy_knl_4 (58,933 us, 0.02%)</title><rect x="486.3" y="199" width="0.2" height="15.0" fill="rgb(0,0,0)" rx="2" ry="2" />
<text  x="489.28" y="209.5" ></text>
</g>
<g >
<title>Log_Event_inits_wrap_slate_loopy_knl_0 (73,013 us, 0.03%)</title><rect x="771.9" y="183" width="0.3" height="15.0" fill="rgb(0,0,0)" rx="2" ry="2" />
<text  x="774.86" y="193.5" ></text>
</g>
<g >
<title>Log_Event_subkernel3_interior_facet_horiz_bottom_to__exterior_facet_bottom_integral_otherwise (45,850 us, 0.02%)</title><rect x="886.7" y="183" width="0.2" height="15.0" fill="rgb(0,0,0)" rx="2" ry="2" />
<text  x="889.67" y="193.5" ></text>
</g>
<g >
<title>pyop2.global_kernel.GlobalKernel.compile (48,262,613 us, 18.94%)</title><rect x="889.8" y="183" width="223.5" height="15.0" fill="rgb(0,0,0)" rx="2" ry="2" />
<text  x="892.78" y="193.5" >pyop2.global_kernel.GlobalK..</text>
</g>
<g >
<title>firedrake.pointquery_utils.to_reference_coordinates (402,514 us, 0.16%)</title><rect x="721.0" y="279" width="1.8" height="15.0" fill="rgb(0,0,0)" rx="2" ry="2" />
<text  x="723.98" y="289.5" ></text>
</g>
<g >
<title>KSPSolve (134,646 us, 0.05%)</title><rect x="711.5" y="215" width="0.6" height="15.0" fill="rgb(0,0,0)" rx="2" ry="2" />
<text  x="714.49" y="225.5" ></text>
</g>
<g >
<title>pyop2.global_kernel.GlobalKernel.compile (583,363 us, 0.23%)</title><rect x="706.1" y="311" width="2.7" height="15.0" fill="rgb(0,0,0)" rx="2" ry="2" />
<text  x="709.06" y="321.5" ></text>
</g>
<g >
<title>inv_getrf (2,458,252 us, 0.96%)</title><rect x="803.6" y="199" width="11.4" height="15.0" fill="rgb(0,0,0)" rx="2" ry="2" />
<text  x="806.59" y="209.5" ></text>
</g>
<g >
<title>Log_Event_subkernel1_interior_facet_horiz_top_to__exterior_facet_top_integral_otherwise (46,713 us, 0.02%)</title><rect x="872.6" y="183" width="0.3" height="15.0" fill="rgb(0,0,0)" rx="2" ry="2" />
<text  x="875.64" y="193.5" ></text>
</g>
<g >
<title>Log_Event_subkernel5_interior_facet_horiz_bottom_to__exterior_facet_bottom_integral_otherwise (47,394 us, 0.02%)</title><rect x="498.7" y="199" width="0.2" height="15.0" fill="rgb(0,0,0)" rx="2" ry="2" />
<text  x="501.66" y="209.5" ></text>
</g>
<g >
<title>firedrake.interpolation.interpolate (1,078,771 us, 0.42%)</title><rect x="716.0" y="279" width="5.0" height="15.0" fill="rgb(0,0,0)" rx="2" ry="2" />
<text  x="718.98" y="289.5" ></text>
</g>
<g >
<title>Log_Event_subkernel2_cell_to__cell_integral_otherwise (2,197,790 us, 0.86%)</title><rect x="876.5" y="183" width="10.2" height="15.0" fill="rgb(0,0,0)" rx="2" ry="2" />
<text  x="879.50" y="193.5" ></text>
</g>
<g >
<title>Parloop_Cells_wrap_wrap_slate_loopy_knl_7 (50,037,809 us, 19.64%)</title><rect x="207.4" y="183" width="231.7" height="15.0" fill="rgb(0,0,0)" rx="2" ry="2" />
<text  x="210.37" y="193.5" >Parloop_Cells_wrap_wrap_slat..</text>
</g>
<g >
<title>DMCoarsen (2,316,700 us, 0.91%)</title><rect x="712.1" y="215" width="10.7" height="15.0" fill="rgb(0,0,0)" rx="2" ry="2" />
<text  x="715.11" y="225.5" ></text>
</g>
<g >
<title>Log_Event_subkernel10_cell_to__cell_integral_otherwise (463,290 us, 0.18%)</title><rect x="271.3" y="199" width="2.1" height="15.0" fill="rgb(0,0,0)" rx="2" ry="2" />
<text  x="274.29" y="209.5" ></text>
</g>
<g >
<title>Log_Event_slate_loopy_knl_4 (2,616,468 us, 1.03%)</title><rect x="486.5" y="199" width="12.2" height="15.0" fill="rgb(0,0,0)" rx="2" ry="2" />
<text  x="489.55" y="209.5" ></text>
</g>
<g >
<title>CreateFunctionSpace (26,889 us, 0.01%)</title><rect x="18.4" y="71" width="0.1" height="15.0" fill="rgb(0,0,0)" rx="2" ry="2" />
<text  x="21.36" y="81.5" ></text>
</g>
<g >
<title>ParLoopExecute (74,053,964 us, 29.06%)</title><rect x="770.4" y="151" width="342.9" height="15.0" fill="rgb(0,0,0)" rx="2" ry="2" />
<text  x="773.35" y="161.5" >ParLoopExecute</text>
</g>
<g >
<title>firedrake.assemble.allocate_matrix (1,444,411 us, 0.57%)</title><rect x="1138.3" y="135" width="6.7" height="15.0" fill="rgb(0,0,0)" rx="2" ry="2" />
<text  x="1141.28" y="145.5" ></text>
</g>
<g >
<title>ParLoopExecute (634,076 us, 0.25%)</title><rect x="722.8" y="247" width="3.0" height="15.0" fill="rgb(0,0,0)" rx="2" ry="2" />
<text  x="725.84" y="257.5" ></text>
</g>
<g >
<title>PCSetUp (3,355,224 us, 1.32%)</title><rect x="712.1" y="199" width="15.5" height="15.0" fill="rgb(0,0,0)" rx="2" ry="2" />
<text  x="715.11" y="209.5" ></text>
</g>
<g >
<title>firedrake.pointquery_utils.to_reference_coordinates (411,619 us, 0.16%)</title><rect x="708.8" y="279" width="1.9" height="15.0" fill="rgb(0,0,0)" rx="2" ry="2" />
<text  x="711.76" y="289.5" ></text>
</g>
<g >
<title>pyop2.global_kernel.GlobalKernel.compile (544,759 us, 0.21%)</title><rect x="713.5" y="311" width="2.5" height="15.0" fill="rgb(0,0,0)" rx="2" ry="2" />
<text  x="716.46" y="321.5" ></text>
</g>
<g >
<title>pyop2.global_kernel.GlobalKernel.compile (4,155,445 us, 1.63%)</title><rect x="1148.5" y="151" width="19.2" height="15.0" fill="rgb(0,0,0)" rx="2" ry="2" />
<text  x="1151.49" y="161.5" ></text>
</g>
<g >
<title>ParLoopExecute (31,280,215 us, 12.27%)</title><rect x="55.3" y="151" width="144.9" height="15.0" fill="rgb(0,0,0)" rx="2" ry="2" />
<text  x="58.32" y="161.5" >ParLoopExecute</text>
</g>
<g >
<title>Log_Event_inits_wrap_slate_loopy_knl_14 (46,317 us, 0.02%)</title><rect x="55.5" y="183" width="0.3" height="15.0" fill="rgb(0,0,0)" rx="2" ry="2" />
<text  x="58.55" y="193.5" ></text>
</g>
<g >
<title>pyop2.global_kernel.GlobalKernel.compile (3,570,436 us, 1.40%)</title><rect x="1167.7" y="151" width="16.6" height="15.0" fill="rgb(0,0,0)" rx="2" ry="2" />
<text  x="1170.73" y="161.5" ></text>
</g>
<g >
<title>MatZeroInitial (403,478 us, 0.16%)</title><rect x="1143.1" y="151" width="1.9" height="15.0" fill="rgb(0,0,0)" rx="2" ry="2" />
<text  x="1146.10" y="161.5" ></text>
</g>
<g >
<title>Log_Event_subkernel3_interior_facet_horiz_top_to__exterior_facet_top_integral_otherwise (46,981 us, 0.02%)</title><rect x="886.9" y="183" width="0.2" height="15.0" fill="rgb(0,0,0)" rx="2" ry="2" />
<text  x="889.89" y="193.5" ></text>
</g>
<g >
<title>Log_Event_subkernel1_interior_facet_vert_to__exterior_facet_vert_integral_otherwise (786,015 us, 0.31%)</title><rect x="872.9" y="183" width="3.6" height="15.0" fill="rgb(0,0,0)" rx="2" ry="2" />
<text  x="875.86" y="193.5" ></text>
</g>
<g >
<title>KSPSetUp (134,646 us, 0.05%)</title><rect x="711.5" y="199" width="0.6" height="15.0" fill="rgb(0,0,0)" rx="2" ry="2" />
<text  x="714.49" y="209.5" ></text>
</g>
<g >
<title>MatMult (4,102,635 us, 1.61%)</title><rect x="25.5" y="119" width="19.0" height="15.0" fill="rgb(0,0,0)" rx="2" ry="2" />
<text  x="28.46" y="129.5" ></text>
</g>
<g >
<title>ParLoopExecute (6,528,684 us, 2.56%)</title><rect x="727.6" y="167" width="30.3" height="15.0" fill="rgb(0,0,0)" rx="2" ry="2" />
<text  x="730.65" y="177.5" >P..</text>
</g>
<g >
<title>HybridBreak (896,853 us, 0.35%)</title><rect x="476.4" y="151" width="4.1" height="15.0" fill="rgb(0,0,0)" rx="2" ry="2" />
<text  x="479.38" y="161.5" ></text>
</g>
<g >
<title>Parloop_Cells_wrap_form1_cell_integral_otherwise (3,064,987 us, 1.20%)</title><rect x="25.5" y="167" width="14.2" height="15.0" fill="rgb(0,0,0)" rx="2" ry="2" />
<text  x="28.46" y="177.5" ></text>
</g>
<g >
<title>Log_Event_subkernel6_cell_to__cell_integral_otherwise (2,192,873 us, 0.86%)</title><rect x="502.5" y="199" width="10.2" height="15.0" fill="rgb(0,0,0)" rx="2" ry="2" />
<text  x="505.51" y="209.5" ></text>
</g>
<g >
<title>Log_Event_slate_loopy_knl_7 (13,694,480 us, 5.37%)</title><rect x="207.9" y="199" width="63.4" height="15.0" fill="rgb(0,0,0)" rx="2" ry="2" />
<text  x="210.88" y="209.5" >Log_Ev..</text>
</g>
<g >
<title>Log_Event_subkernel9_cell_to__cell_integral_otherwise (205,995 us, 0.08%)</title><rect x="278.4" y="199" width="0.9" height="15.0" fill="rgb(0,0,0)" rx="2" ry="2" />
<text  x="281.35" y="209.5" ></text>
</g>
<g >
<title>firedrake.parloops.par_loop (896,853 us, 0.35%)</title><rect x="476.4" y="167" width="4.1" height="15.0" fill="rgb(0,0,0)" rx="2" ry="2" />
<text  x="479.38" y="177.5" ></text>
</g>
<g >
<title>Parloop_Cells_wrap_par_loop_kernel (896,853 us, 0.35%)</title><rect x="476.4" y="199" width="4.1" height="15.0" fill="rgb(0,0,0)" rx="2" ry="2" />
<text  x="479.38" y="209.5" ></text>
</g>
<g >
<title>MatMult (150,360 us, 0.06%)</title><rect x="693.5" y="167" width="0.7" height="15.0" fill="rgb(0,0,0)" rx="2" ry="2" />
<text  x="696.53" y="177.5" ></text>
</g>
<g >
<title>Parloop_Cells_wrap_par_loop_kernel (836,999 us, 0.33%)</title><rect x="51.4" y="199" width="3.9" height="15.0" fill="rgb(0,0,0)" rx="2" ry="2" />
<text  x="54.44" y="209.5" ></text>
</g>
<g >
<title>KSPSolve (158,894,455 us, 62.35%)</title><rect x="25.5" y="103" width="735.7" height="15.0" fill="rgb(0,0,0)" rx="2" ry="2" />
<text  x="28.46" y="113.5" >KSPSolve</text>
</g>
<g >
<title>Parloop_Cells_wrap_wrap_slate_loopy_knl_4 (41,519,106 us, 16.29%)</title><rect x="486.0" y="183" width="192.3" height="15.0" fill="rgb(0,0,0)" rx="2" ry="2" />
<text  x="489.05" y="193.5" >Parloop_Cells_wrap_wrap..</text>
</g>
<g >
<title>Log_Event_slate_loopy_knl_0 (21,646,948 us, 8.49%)</title><rect x="772.2" y="183" width="100.2" height="15.0" fill="rgb(0,0,0)" rx="2" ry="2" />
<text  x="775.20" y="193.5" >Log_Event_s..</text>
</g>
<g >
<title>firedrake.pointquery_utils.to_reference_coordinates (404,448 us, 0.16%)</title><rect x="725.8" y="247" width="1.8" height="15.0" fill="rgb(0,0,0)" rx="2" ry="2" />
<text  x="728.78" y="257.5" ></text>
</g>
<g >
<title>ParLoopExecute (896,853 us, 0.35%)</title><rect x="476.4" y="183" width="4.1" height="15.0" fill="rgb(0,0,0)" rx="2" ry="2" />
<text  x="479.38" y="193.5" ></text>
</g>
<g >
<title>pyop2.global_kernel.GlobalKernel.compile (5,005,257 us, 1.96%)</title><rect x="734.7" y="199" width="23.2" height="15.0" fill="rgb(0,0,0)" rx="2" ry="2" />
<text  x="737.70" y="209.5" >p..</text>
</g>
<g >
<title>ParLoopExecute (667,675 us, 0.26%)</title><rect x="1145.3" y="151" width="3.1" height="15.0" fill="rgb(0,0,0)" rx="2" ry="2" />
<text  x="1148.27" y="161.5" ></text>
</g>
<g >
<title>CreateSparsity (46,249 us, 0.02%)</title><rect x="758.3" y="183" width="0.2" height="15.0" fill="rgb(0,0,0)" rx="2" ry="2" />
<text  x="761.27" y="193.5" ></text>
</g>
<g >
<title>ParLoopExecute (50,037,809 us, 19.64%)</title><rect x="207.4" y="167" width="231.7" height="15.0" fill="rgb(0,0,0)" rx="2" ry="2" />
<text  x="210.37" y="177.5" >ParLoopExecute</text>
</g>
<g >
<title>firedrake (254,830,909 us, 100.00%)</title><rect x="10.0" y="55" width="1180.0" height="15.0" fill="rgb(0,0,0)" rx="2" ry="2" />
<text  x="13.00" y="65.5" >firedrake</text>
</g>
<g >
<title>Parloop_set_#x7f1994f2ffa0_wrap_pyop2_kernel_inject (544,759 us, 0.21%)</title><rect x="713.5" y="295" width="2.5" height="15.0" fill="rgb(0,0,0)" rx="2" ry="2" />
<text  x="716.46" y="305.5" ></text>
</g>
<g >
<title>SNESSolve (251,491,158 us, 98.69%)</title><rect x="25.5" y="87" width="1164.5" height="15.0" fill="rgb(0,0,0)" rx="2" ry="2" />
<text  x="28.46" y="97.5" >SNESSolve</text>
</g>
<g >
<title>CreateSparsity (1,040,933 us, 0.41%)</title><rect x="1138.3" y="151" width="4.8" height="15.0" fill="rgb(0,0,0)" rx="2" ry="2" />
<text  x="1141.28" y="161.5" ></text>
</g>
<g >
<title>Log_Event_subkernel5_interior_facet_vert_to__exterior_facet_vert_integral_otherwise (736,791 us, 0.29%)</title><rect x="499.1" y="199" width="3.4" height="15.0" fill="rgb(0,0,0)" rx="2" ry="2" />
<text  x="502.10" y="209.5" ></text>
</g>
<g >
<title>MatMultTranspose (1,038,524 us, 0.41%)</title><rect x="722.8" y="215" width="4.8" height="15.0" fill="rgb(0,0,0)" rx="2" ry="2" />
<text  x="725.84" y="225.5" ></text>
</g>
<g >
<title>Parloop_Cells_wrap_form1_cell_integral_otherwise (3,570,436 us, 1.40%)</title><rect x="1167.7" y="135" width="16.6" height="15.0" fill="rgb(0,0,0)" rx="2" ry="2" />
<text  x="1170.73" y="145.5" ></text>
</g>
<g >
<title>SCSolve (14,619,852 us, 5.74%)</title><rect x="693.5" y="135" width="67.7" height="15.0" fill="rgb(0,0,0)" rx="2" ry="2" />
<text  x="696.53" y="145.5" >SCSolve</text>
</g>
<g >
<title>firedrake.mg.interface.restrict (29,070 us, 0.01%)</title><rect x="710.7" y="247" width="0.1" height="15.0" fill="rgb(0,0,0)" rx="2" ry="2" />
<text  x="713.67" y="257.5" ></text>
</g>
<g >
<title>firedrake.mg.interface.prolong (1,240,801 us, 0.49%)</title><rect x="704.9" y="263" width="5.8" height="15.0" fill="rgb(0,0,0)" rx="2" ry="2" />
<text  x="707.93" y="273.5" ></text>
</g>
<g >
<title>Log_Event_form0_cell_integral_otherwise (26,034 us, 0.01%)</title><rect x="1148.4" y="151" width="0.1" height="15.0" fill="rgb(0,0,0)" rx="2" ry="2" />
<text  x="1151.37" y="161.5" ></text>
</g>
<g >
<title>inv_memcpy (74,312 us, 0.03%)</title><rect x="258.3" y="215" width="0.3" height="15.0" fill="rgb(0,0,0)" rx="2" ry="2" />
<text  x="261.30" y="225.5" ></text>
</g>
<g >
<title>firedrake.interpolation.make_interpolator (33,452 us, 0.01%)</title><rect x="720.8" y="295" width="0.2" height="15.0" fill="rgb(0,0,0)" rx="2" ry="2" />
<text  x="723.82" y="305.5" ></text>
</g>
<g >
<title>solve_memcpy (124,516 us, 0.05%)</title><rect x="498.1" y="215" width="0.6" height="15.0" fill="rgb(0,0,0)" rx="2" ry="2" />
<text  x="501.09" y="225.5" ></text>
</g>
<g >
<title>firedrake.tsfc_interface.compile_form (3,288,549 us, 1.29%)</title><rect x="678.3" y="167" width="15.2" height="15.0" fill="rgb(0,0,0)" rx="2" ry="2" />
<text  x="681.30" y="177.5" ></text>
</g>
<g >
<title>inv_getri (12,283,326 us, 4.82%)</title><rect x="815.0" y="199" width="56.8" height="15.0" fill="rgb(0,0,0)" rx="2" ry="2" />
<text  x="817.97" y="209.5" >inv_g..</text>
</g>
<g >
<title>firedrake.tsfc_interface.compile_form (591,820 us, 0.23%)</title><rect x="758.5" y="167" width="2.7" height="15.0" fill="rgb(0,0,0)" rx="2" ry="2" />
<text  x="761.49" y="177.5" ></text>
</g>
<g >
<title>solve_getrs (32,582 us, 0.01%)</title><rect x="61.5" y="199" width="0.2" height="15.0" fill="rgb(0,0,0)" rx="2" ry="2" />
<text  x="64.50" y="209.5" ></text>
</g>
<g >
<title>PCApply (154,791,820 us, 60.74%)</title><rect x="44.5" y="119" width="716.7" height="15.0" fill="rgb(0,0,0)" rx="2" ry="2" />
<text  x="47.46" y="129.5" >PCApply</text>
</g>
<g >
<title>MatMult (1,240,801 us, 0.49%)</title><rect x="704.9" y="231" width="5.8" height="15.0" fill="rgb(0,0,0)" rx="2" ry="2" />
<text  x="707.93" y="241.5" ></text>
</g>
<g >
<title>pyop2.global_kernel.GlobalKernel.compile (35,771,179 us, 14.04%)</title><rect x="512.7" y="199" width="165.6" height="15.0" fill="rgb(0,0,0)" rx="2" ry="2" />
<text  x="515.66" y="209.5" >pyop2.global_kernel..</text>
</g>
<g >
<title>Log_Event_subkernel1_interior_facet_horiz_bottom_to__exterior_facet_bottom_integral_otherwise (44,976 us, 0.02%)</title><rect x="872.4" y="183" width="0.2" height="15.0" fill="rgb(0,0,0)" rx="2" ry="2" />
<text  x="875.43" y="193.5" ></text>
</g>
<g >
<title>pyop2.global_kernel.GlobalKernel.compile (836,999 us, 0.33%)</title><rect x="51.4" y="215" width="3.9" height="15.0" fill="rgb(0,0,0)" rx="2" ry="2" />
<text  x="54.44" y="225.5" ></text>
</g>
<g >
<title>Parloop_Cells_wrap_form00_cell_integral_otherwise (5,005,257 us, 1.96%)</title><rect x="734.7" y="183" width="23.2" height="15.0" fill="rgb(0,0,0)" rx="2" ry="2" />
<text  x="737.70" y="193.5" >P..</text>
</g>
<g >
<title>Parloop_Cells_wrap_wrap_slate_loopy_knl_14 (31,280,215 us, 12.27%)</title><rect x="55.3" y="167" width="144.9" height="15.0" fill="rgb(0,0,0)" rx="2" ry="2" />
<text  x="58.32" y="177.5" >Parloop_Cells_wr..</text>
</g>
<g >
<title>firedrake.tsfc_interface.compile_form (1,239,169 us, 0.49%)</title><rect x="1184.3" y="119" width="5.7" height="15.0" fill="rgb(0,0,0)" rx="2" ry="2" />
<text  x="1187.26" y="129.5" ></text>
</g>
<g >
<title>HybridProject (836,999 us, 0.33%)</title><rect x="51.4" y="151" width="3.9" height="15.0" fill="rgb(0,0,0)" rx="2" ry="2" />
<text  x="54.44" y="161.5" ></text>
</g>
<g >
<title>Parloop_set_#x7f1994f2ffa0_wrap_pyop2_kernel_prolong (583,363 us, 0.23%)</title><rect x="706.1" y="295" width="2.7" height="15.0" fill="rgb(0,0,0)" rx="2" ry="2" />
<text  x="709.06" y="305.5" ></text>
</g>
<g >
<title>MatResidual (147,777 us, 0.06%)</title><rect x="710.8" y="199" width="0.7" height="15.0" fill="rgb(0,0,0)" rx="2" ry="2" />
<text  x="713.81" y="209.5" ></text>
</g>
<g >
<title>pyop2.global_kernel.GlobalKernel.compile (1,497,202 us, 0.59%)</title><rect x="727.8" y="199" width="6.9" height="15.0" fill="rgb(0,0,0)" rx="2" ry="2" />
<text  x="730.77" y="209.5" ></text>
</g>
<g >
<title>Log_Event_inits_wrap_slate_loopy_knl_7 (60,518 us, 0.02%)</title><rect x="207.6" y="199" width="0.3" height="15.0" fill="rgb(0,0,0)" rx="2" ry="2" />
<text  x="210.60" y="209.5" ></text>
</g>
<g >
<title>firedrake.parloops.par_loop (667,675 us, 0.26%)</title><rect x="1145.3" y="135" width="3.1" height="15.0" fill="rgb(0,0,0)" rx="2" ry="2" />
<text  x="1148.27" y="145.5" ></text>
</g>
<g >
<title>ParLoopExecute (544,759 us, 0.21%)</title><rect x="713.5" y="279" width="2.5" height="15.0" fill="rgb(0,0,0)" rx="2" ry="2" />
<text  x="716.46" y="289.5" ></text>
</g>
<g >
<title>solve_getrf (2,441,402 us, 0.96%)</title><rect x="486.5" y="215" width="11.4" height="15.0" fill="rgb(0,0,0)" rx="2" ry="2" />
<text  x="489.55" y="225.5" ></text>
</g>
<g >
<title>firedrake.mg.interface.inject (2,316,700 us, 0.91%)</title><rect x="712.1" y="263" width="10.7" height="15.0" fill="rgb(0,0,0)" rx="2" ry="2" />
<text  x="715.11" y="273.5" ></text>
</g>
<g >
<title>ParLoopExecute (885,369 us, 0.35%)</title><rect x="14.3" y="103" width="4.1" height="15.0" fill="rgb(0,0,0)" rx="2" ry="2" />
<text  x="17.26" y="113.5" ></text>
</g>
<g >
<title>firedrake.dmhooks.coarsen (2,316,700 us, 0.91%)</title><rect x="712.1" y="231" width="10.7" height="15.0" fill="rgb(0,0,0)" rx="2" ry="2" />
<text  x="715.11" y="241.5" ></text>
</g>
<g >
<title>HybridOperatorAssembly (81,372,985 us, 31.93%)</title><rect x="761.5" y="135" width="376.8" height="15.0" fill="rgb(0,0,0)" rx="2" ry="2" />
<text  x="764.48" y="145.5" >HybridOperatorAssembly</text>
</g>
<g >
<title>KSPSolve (3,580,095 us, 1.40%)</title><rect x="694.2" y="199" width="16.6" height="15.0" fill="rgb(0,0,0)" rx="2" ry="2" />
<text  x="697.23" y="209.5" ></text>
</g>
<g >
<title>firedrake.mg.embedded.TransferManager.op (2,316,700 us, 0.91%)</title><rect x="712.1" y="247" width="10.7" height="15.0" fill="rgb(0,0,0)" rx="2" ry="2" />
<text  x="715.11" y="257.5" ></text>
</g>
<g >
<title>Log_Event_subkernel13_interior_facet_horiz_bottom_to__exterior_facet_bottom_integral_otherwise (51,978 us, 0.02%)</title><rect x="274.3" y="199" width="0.3" height="15.0" fill="rgb(0,0,0)" rx="2" ry="2" />
<text  x="277.32" y="209.5" ></text>
</g>
<g >
<title>pyop2.global_kernel.GlobalKernel.compile (34,502,179 us, 13.54%)</title><rect x="279.3" y="199" width="159.8" height="15.0" fill="rgb(0,0,0)" rx="2" ry="2" />
<text  x="282.31" y="209.5" >pyop2.global_kerne..</text>
</g>
<g >
<title>firedrake.interpolation.make_interpolator (65,262 us, 0.03%)</title><rect x="1145.0" y="135" width="0.3" height="15.0" fill="rgb(0,0,0)" rx="2" ry="2" />
<text  x="1147.97" y="145.5" ></text>
</g>
<g >
<title>Log_Event_subkernel17_interior_facet_vert_to__exterior_facet_vert_integral_otherwise (766,195 us, 0.30%)</title><rect x="65.5" y="183" width="3.5" height="15.0" fill="rgb(0,0,0)" rx="2" ry="2" />
<text  x="68.50" y="193.5" ></text>
</g>
<g >
<title>PCSetUp (3,489,870 us, 1.37%)</title><rect x="711.5" y="183" width="16.1" height="15.0" fill="rgb(0,0,0)" rx="2" ry="2" />
<text  x="714.49" y="193.5" ></text>
</g>
<g >
<title>pyop2.global_kernel.GlobalKernel.compile (667,675 us, 0.26%)</title><rect x="1145.3" y="183" width="3.1" height="15.0" fill="rgb(0,0,0)" rx="2" ry="2" />
<text  x="1148.27" y="193.5" ></text>
</g>
<g >
<title>inv_getrf (1,218,176 us, 0.48%)</title><rect x="225.4" y="215" width="5.7" height="15.0" fill="rgb(0,0,0)" rx="2" ry="2" />
<text  x="228.42" y="225.5" ></text>
</g>
<g >
<title>firedrake.__init__ (1,506,949 us, 0.59%)</title><rect x="18.5" y="71" width="7.0" height="15.0" fill="rgb(0,0,0)" rx="2" ry="2" />
<text  x="21.49" y="81.5" ></text>
</g>
<g >
<title>PCApply (1,313,850 us, 0.52%)</title><rect x="704.7" y="215" width="6.1" height="15.0" fill="rgb(0,0,0)" rx="2" ry="2" />
<text  x="707.72" y="225.5" ></text>
</g>
<g >
<title>Log_Event_subkernel11_cell_to__cell_integral_otherwise (189,938 us, 0.07%)</title><rect x="273.4" y="199" width="0.9" height="15.0" fill="rgb(0,0,0)" rx="2" ry="2" />
<text  x="276.44" y="209.5" ></text>
</g>
<g >
<title>firedrake.mg.embedded.TransferManager.op (1,240,801 us, 0.49%)</title><rect x="704.9" y="247" width="5.8" height="15.0" fill="rgb(0,0,0)" rx="2" ry="2" />
<text  x="707.93" y="257.5" ></text>
</g>
<g >
<title>firedrake.parloops.par_loop (836,999 us, 0.33%)</title><rect x="51.4" y="167" width="3.9" height="15.0" fill="rgb(0,0,0)" rx="2" ry="2" />
<text  x="54.44" y="177.5" ></text>
</g>
<g >
<title>SCForwardElim (46,896,104 us, 18.40%)</title><rect x="476.4" y="135" width="217.1" height="15.0" fill="rgb(0,0,0)" rx="2" ry="2" />
<text  x="479.38" y="145.5" >SCForwardElim</text>
</g>
<g >
<title>ParLoopExecute (1,045,319 us, 0.41%)</title><rect x="716.0" y="311" width="4.8" height="15.0" fill="rgb(0,0,0)" rx="2" ry="2" />
<text  x="718.98" y="321.5" ></text>
</g>
<g >
<title>firedrake.mg.interface.restrict (1,038,524 us, 0.41%)</title><rect x="722.8" y="231" width="4.8" height="15.0" fill="rgb(0,0,0)" rx="2" ry="2" />
<text  x="725.84" y="241.5" ></text>
</g>
<g >
<title>pyop2.global_kernel.GlobalKernel.compile (1,045,319 us, 0.41%)</title><rect x="716.0" y="343" width="4.8" height="15.0" fill="rgb(0,0,0)" rx="2" ry="2" />
<text  x="718.98" y="353.5" ></text>
</g>
<g >
<title>HybridRHS (45,999,251 us, 18.05%)</title><rect x="480.5" y="151" width="213.0" height="15.0" fill="rgb(0,0,0)" rx="2" ry="2" />
<text  x="483.53" y="161.5" >HybridRHS</text>
</g>
<g >
<title>Log_Event_subkernel13_interior_facet_horiz_top_to__exterior_facet_top_integral_otherwise (52,244 us, 0.02%)</title><rect x="274.6" y="199" width="0.2" height="15.0" fill="rgb(0,0,0)" rx="2" ry="2" />
<text  x="277.56" y="209.5" ></text>
</g>
<g >
<title>firedrake.tsfc_interface.compile_form (1,037,648 us, 0.41%)</title><rect x="39.7" y="151" width="4.8" height="15.0" fill="rgb(0,0,0)" rx="2" ry="2" />
<text  x="42.66" y="161.5" ></text>
</g>
<g >
<title>Log_Event_subkernel5_interior_facet_horiz_top_to__exterior_facet_top_integral_otherwise (46,482 us, 0.02%)</title><rect x="498.9" y="199" width="0.2" height="15.0" fill="rgb(0,0,0)" rx="2" ry="2" />
<text  x="501.88" y="209.5" ></text>
</g>
<g >
<title>Parloop_Cells_wrap_form0_cell_integral_otherwise (4,181,479 us, 1.64%)</title><rect x="1148.4" y="135" width="19.3" height="15.0" fill="rgb(0,0,0)" rx="2" ry="2" />
<text  x="1151.37" y="145.5" ></text>
</g>
<g >
<title>firedrake.tsfc_interface.compile_form (3,030,137 us, 1.19%)</title><rect x="462.3" y="151" width="14.1" height="15.0" fill="rgb(0,0,0)" rx="2" ry="2" />
<text  x="465.35" y="161.5" ></text>
</g>
<g >
<title>RecoverFirstElim (56,621,330 us, 22.22%)</title><rect x="200.2" y="151" width="262.1" height="15.0" fill="rgb(0,0,0)" rx="2" ry="2" />
<text  x="203.16" y="161.5" >RecoverFirstElim</text>
</g>
<g >
<title>KSPSolve (7,368,102 us, 2.89%)</title><rect x="693.5" y="151" width="34.1" height="15.0" fill="rgb(0,0,0)" rx="2" ry="2" />
<text  x="696.53" y="161.5" >KS..</text>
</g>
<g >
<title>Parloop_Cells_wrap_par_loop_kernel (667,675 us, 0.26%)</title><rect x="1145.3" y="167" width="3.1" height="15.0" fill="rgb(0,0,0)" rx="2" ry="2" />
<text  x="1148.27" y="177.5" ></text>
</g>
<g >
<title>ParLoopExecute (583,363 us, 0.23%)</title><rect x="706.1" y="279" width="2.7" height="15.0" fill="rgb(0,0,0)" rx="2" ry="2" />
<text  x="709.06" y="289.5" ></text>
</g>
<g >
<title>MatMult (2,222,201 us, 0.87%)</title><rect x="694.4" y="215" width="10.3" height="15.0" fill="rgb(0,0,0)" rx="2" ry="2" />
<text  x="697.43" y="225.5" ></text>
</g>
<g >
<title>firedrake.matrix_free.operators.ImplicitMatrixContext.mult (4,102,635 us, 1.61%)</title><rect x="25.5" y="135" width="19.0" height="15.0" fill="rgb(0,0,0)" rx="2" ry="2" />
<text  x="28.46" y="145.5" ></text>
</g>
<g >
<title>solve_memcpy (156,725 us, 0.06%)</title><rect x="270.6" y="215" width="0.7" height="15.0" fill="rgb(0,0,0)" rx="2" ry="2" />
<text  x="273.57" y="225.5" ></text>
</g>
</g>
</svg>
