<?xml version="1.0" standalone="no"?>
<!DOCTYPE svg PUBLIC "-//W3C//DTD SVG 1.1//EN" "http://www.w3.org/Graphics/SVG/1.1/DTD/svg11.dtd">
<svg version="1.1" width="1200" height="267" onload="init(evt)" viewBox="0 0 1200 267" xmlns="http://www.w3.org/2000/svg" xmlns:xlink="http://www.w3.org/1999/xlink">
<!-- Flame graph stack visualization. See https://github.com/brendangregg/FlameGraph for latest version, and http://www.brendangregg.com/flamegraphs.html for examples. -->
<!-- NOTES:  -->
<defs>
	<linearGradient id="background" y1="0" y2="1" x1="0" x2="0" >
		<stop stop-color="#eeeeee" offset="5%" />
		<stop stop-color="#eeeeb0" offset="95%" />
	</linearGradient>
</defs>
<style type="text/css">
	text { font-family:Verdana; font-size:13px; fill:rgb(0,0,0); }
	#search, #ignorecase { opacity:0.1; cursor:pointer; }
	#search:hover, #search.show, #ignorecase:hover, #ignorecase.show { opacity:1; }
	#subtitle { text-anchor:middle; font-color:rgb(160,160,160); }
	#title { text-anchor:middle; font-size:18px}
	#unzoom { cursor:pointer; }
	#frames > *:hover { stroke:black; stroke-width:0.5; cursor:pointer; }
	.hide { display:none; }
	.parent { opacity:0.5; }
</style>
<script type="text/ecmascript">
<![CDATA[
	"use strict";
	var details, searchbtn, unzoombtn, matchedtxt, svg, searching, currentSearchTerm, ignorecase, ignorecaseBtn;
	function init(evt) {
		details = document.getElementById("details").firstChild;
		searchbtn = document.getElementById("search");
		ignorecaseBtn = document.getElementById("ignorecase");
		unzoombtn = document.getElementById("unzoom");
		matchedtxt = document.getElementById("matched");
		svg = document.getElementsByTagName("svg")[0];
		searching = 0;
		currentSearchTerm = null;

		// use GET parameters to restore a flamegraphs state.
		var params = get_params();
		if (params.x && params.y)
			zoom(find_group(document.querySelector('[x="' + params.x + '"][y="' + params.y + '"]')));
                if (params.s) search(params.s);
	}

	// event listeners
	window.addEventListener("click", function(e) {
		var target = find_group(e.target);
		if (target) {
			if (target.nodeName == "a") {
				if (e.ctrlKey === false) return;
				e.preventDefault();
			}
			if (target.classList.contains("parent")) unzoom();
			zoom(target);
			if (!document.querySelector('.parent')) {
				clearzoom();
				return;
			}

			// set parameters for zoom state
			var el = target.querySelector("rect");
			if (el && el.attributes && el.attributes.y && el.attributes._orig_x) {
				var params = get_params()
				params.x = el.attributes._orig_x.value;
				params.y = el.attributes.y.value;
				history.replaceState(null, null, parse_params(params));
			}
		}
		else if (e.target.id == "unzoom") clearzoom();
		else if (e.target.id == "search") search_prompt();
		else if (e.target.id == "ignorecase") toggle_ignorecase();
	}, false)

	// mouse-over for info
	// show
	window.addEventListener("mouseover", function(e) {
		var target = find_group(e.target);
		if (target) details.nodeValue = "Function: " + g_to_text(target);
	}, false)

	// clear
	window.addEventListener("mouseout", function(e) {
		var target = find_group(e.target);
		if (target) details.nodeValue = ' ';
	}, false)

	// ctrl-F for search
	// ctrl-I to toggle case-sensitive search
	window.addEventListener("keydown",function (e) {
		if (e.keyCode === 114 || (e.ctrlKey && e.keyCode === 70)) {
			e.preventDefault();
			search_prompt();
		}
		else if (e.ctrlKey && e.keyCode === 73) {
			e.preventDefault();
			toggle_ignorecase();
		}
	}, false)

	// functions
	function get_params() {
		var params = {};
		var paramsarr = window.location.search.substr(1).split('&');
		for (var i = 0; i < paramsarr.length; ++i) {
			var tmp = paramsarr[i].split("=");
			if (!tmp[0] || !tmp[1]) continue;
			params[tmp[0]]  = decodeURIComponent(tmp[1]);
		}
		return params;
	}
	function parse_params(params) {
		var uri = "?";
		for (var key in params) {
			uri += key + '=' + encodeURIComponent(params[key]) + '&';
		}
		if (uri.slice(-1) == "&")
			uri = uri.substring(0, uri.length - 1);
		if (uri == '?')
			uri = window.location.href.split('?')[0];
		return uri;
	}
	function find_child(node, selector) {
		var children = node.querySelectorAll(selector);
		if (children.length) return children[0];
	}
	function find_group(node) {
		var parent = node.parentElement;
		if (!parent) return;
		if (parent.id == "frames") return node;
		return find_group(parent);
	}
	function orig_save(e, attr, val) {
		if (e.attributes["_orig_" + attr] != undefined) return;
		if (e.attributes[attr] == undefined) return;
		if (val == undefined) val = e.attributes[attr].value;
		e.setAttribute("_orig_" + attr, val);
	}
	function orig_load(e, attr) {
		if (e.attributes["_orig_"+attr] == undefined) return;
		e.attributes[attr].value = e.attributes["_orig_" + attr].value;
		e.removeAttribute("_orig_"+attr);
	}
	function g_to_text(e) {
		var text = find_child(e, "title").firstChild.nodeValue;
		return (text)
	}
	function g_to_func(e) {
		var func = g_to_text(e);
		// if there's any manipulation we want to do to the function
		// name before it's searched, do it here before returning.
		return (func);
	}
	function update_text(e) {
		var r = find_child(e, "rect");
		var t = find_child(e, "text");
		var w = parseFloat(r.attributes.width.value) -3;
		var txt = find_child(e, "title").textContent.replace(/\([^(]*\)$/,"");
		t.attributes.x.value = parseFloat(r.attributes.x.value) + 3;

		// Smaller than this size won't fit anything
		if (w < 2 * 13 * 0.59) {
			t.textContent = "";
			return;
		}

		t.textContent = txt;
		// Fit in full text width
		if (/^ *$/.test(txt) || t.getSubStringLength(0, txt.length) < w)
			return;

		for (var x = txt.length - 2; x > 0; x--) {
			if (t.getSubStringLength(0, x + 2) <= w) {
				t.textContent = txt.substring(0, x) + "..";
				return;
			}
		}
		t.textContent = "";
	}

	// zoom
	function zoom_reset(e) {
		if (e.attributes != undefined) {
			orig_load(e, "x");
			orig_load(e, "width");
		}
		if (e.childNodes == undefined) return;
		for (var i = 0, c = e.childNodes; i < c.length; i++) {
			zoom_reset(c[i]);
		}
	}
	function zoom_child(e, x, ratio) {
		if (e.attributes != undefined) {
			if (e.attributes.x != undefined) {
				orig_save(e, "x");
				e.attributes.x.value = (parseFloat(e.attributes.x.value) - x - 10) * ratio + 10;
				if (e.tagName == "text")
					e.attributes.x.value = find_child(e.parentNode, "rect[x]").attributes.x.value + 3;
			}
			if (e.attributes.width != undefined) {
				orig_save(e, "width");
				e.attributes.width.value = parseFloat(e.attributes.width.value) * ratio;
			}
		}

		if (e.childNodes == undefined) return;
		for (var i = 0, c = e.childNodes; i < c.length; i++) {
			zoom_child(c[i], x - 10, ratio);
		}
	}
	function zoom_parent(e) {
		if (e.attributes) {
			if (e.attributes.x != undefined) {
				orig_save(e, "x");
				e.attributes.x.value = 10;
			}
			if (e.attributes.width != undefined) {
				orig_save(e, "width");
				e.attributes.width.value = parseInt(svg.width.baseVal.value) - (10 * 2);
			}
		}
		if (e.childNodes == undefined) return;
		for (var i = 0, c = e.childNodes; i < c.length; i++) {
			zoom_parent(c[i]);
		}
	}
	function zoom(node) {
		var attr = find_child(node, "rect").attributes;
		var width = parseFloat(attr.width.value);
		var xmin = parseFloat(attr.x.value);
		var xmax = parseFloat(xmin + width);
		var ymin = parseFloat(attr.y.value);
		var ratio = (svg.width.baseVal.value - 2 * 10) / width;

		// XXX: Workaround for JavaScript float issues (fix me)
		var fudge = 0.0001;

		unzoombtn.classList.remove("hide");

		var el = document.getElementById("frames").children;
		for (var i = 0; i < el.length; i++) {
			var e = el[i];
			var a = find_child(e, "rect").attributes;
			var ex = parseFloat(a.x.value);
			var ew = parseFloat(a.width.value);
			var upstack;
			// Is it an ancestor
			if (1 == 0) {
				upstack = parseFloat(a.y.value) > ymin;
			} else {
				upstack = parseFloat(a.y.value) < ymin;
			}
			if (upstack) {
				// Direct ancestor
				if (ex <= xmin && (ex+ew+fudge) >= xmax) {
					e.classList.add("parent");
					zoom_parent(e);
					update_text(e);
				}
				// not in current path
				else
					e.classList.add("hide");
			}
			// Children maybe
			else {
				// no common path
				if (ex < xmin || ex + fudge >= xmax) {
					e.classList.add("hide");
				}
				else {
					zoom_child(e, xmin, ratio);
					update_text(e);
				}
			}
		}
		search();
	}
	function unzoom() {
		unzoombtn.classList.add("hide");
		var el = document.getElementById("frames").children;
		for(var i = 0; i < el.length; i++) {
			el[i].classList.remove("parent");
			el[i].classList.remove("hide");
			zoom_reset(el[i]);
			update_text(el[i]);
		}
		search();
	}
	function clearzoom() {
		unzoom();

		// remove zoom state
		var params = get_params();
		if (params.x) delete params.x;
		if (params.y) delete params.y;
		history.replaceState(null, null, parse_params(params));
	}

	// search
	function toggle_ignorecase() {
		ignorecase = !ignorecase;
		if (ignorecase) {
			ignorecaseBtn.classList.add("show");
		} else {
			ignorecaseBtn.classList.remove("show");
		}
		reset_search();
		search();
	}
	function reset_search() {
		var el = document.querySelectorAll("#frames rect");
		for (var i = 0; i < el.length; i++) {
			orig_load(el[i], "fill")
		}
		var params = get_params();
		delete params.s;
		history.replaceState(null, null, parse_params(params));
	}
	function search_prompt() {
		if (!searching) {
			var term = prompt("Enter a search term (regexp " +
			    "allowed, eg: ^ext4_)"
			    + (ignorecase ? ", ignoring case" : "")
			    + "\nPress Ctrl-i to toggle case sensitivity", "");
			if (term != null) search(term);
		} else {
			reset_search();
			searching = 0;
			currentSearchTerm = null;
			searchbtn.classList.remove("show");
			searchbtn.firstChild.nodeValue = "Search"
			matchedtxt.classList.add("hide");
			matchedtxt.firstChild.nodeValue = ""
		}
	}
	function search(term) {
		if (term) currentSearchTerm = term;

		var re = new RegExp(currentSearchTerm, ignorecase ? 'i' : '');
		var el = document.getElementById("frames").children;
		var matches = new Object();
		var maxwidth = 0;
		for (var i = 0; i < el.length; i++) {
			var e = el[i];
			var func = g_to_func(e);
			var rect = find_child(e, "rect");
			if (func == null || rect == null)
				continue;

			// Save max width. Only works as we have a root frame
			var w = parseFloat(rect.attributes.width.value);
			if (w > maxwidth)
				maxwidth = w;

			if (func.match(re)) {
				// highlight
				var x = parseFloat(rect.attributes.x.value);
				orig_save(rect, "fill");
				rect.attributes.fill.value = "rgb(230,0,230)";

				// remember matches
				if (matches[x] == undefined) {
					matches[x] = w;
				} else {
					if (w > matches[x]) {
						// overwrite with parent
						matches[x] = w;
					}
				}
				searching = 1;
			}
		}
		if (!searching)
			return;
		var params = get_params();
		params.s = currentSearchTerm;
		history.replaceState(null, null, parse_params(params));

		searchbtn.classList.add("show");
		searchbtn.firstChild.nodeValue = "Reset Search";

		// calculate percent matched, excluding vertical overlap
		var count = 0;
		var lastx = -1;
		var lastw = 0;
		var keys = Array();
		for (k in matches) {
			if (matches.hasOwnProperty(k))
				keys.push(k);
		}
		// sort the matched frames by their x location
		// ascending, then width descending
		keys.sort(function(a, b){
			return a - b;
		});
		// Step through frames saving only the biggest bottom-up frames
		// thanks to the sort order. This relies on the tree property
		// where children are always smaller than their parents.
		var fudge = 0.0001;	// JavaScript floating point
		for (var k in keys) {
			var x = parseFloat(keys[k]);
			var w = matches[keys[k]];
			if (x >= lastx + lastw - fudge) {
				count += w;
				lastx = x;
				lastw = w;
			}
		}
		// display matched percent
		matchedtxt.classList.remove("hide");
		var pct = 100 * count / maxwidth;
		if (pct != 100) pct = pct.toFixed(1)
		matchedtxt.firstChild.nodeValue = "Matched: " + pct + "%";
	}
]]>
</script>
<rect x="0.0" y="0" width="1200.0" height="267.0" fill="url(#background)"  />
<text id="title" x="600.00" y="26" >Firedrake example</text>
<text id="details" x="10.00" y="249" > </text>
<text id="unzoom" x="10.00" y="26" class="hide">Reset Zoom</text>
<text id="search" x="1090.00" y="26" >Search</text>
<text id="ignorecase" x="1174.00" y="26" >ic</text>
<text id="matched" x="1090.00" y="249" > </text>
<g id="frames">
<g >
<title>ParLoopExecute (49,765,383 us, 20.47%)</title><rect x="197.4" y="167" width="241.5" height="15.0" fill="rgb(0,0,0)" rx="2" ry="2" />
<text  x="200.39" y="177.5" >ParLoopExecute</text>
</g>
<g >
<title>KSPSolve (147,055,462 us, 60.48%)</title><rect x="26.4" y="103" width="713.7" height="15.0" fill="rgb(0,0,0)" rx="2" ry="2" />
<text  x="29.40" y="113.5" >KSPSolve</text>
</g>
<g >
<title>MatZeroInitial (400,155 us, 0.16%)</title><rect x="1140.6" y="151" width="2.0" height="15.0" fill="rgb(0,0,0)" rx="2" ry="2" />
<text  x="1143.64" y="161.5" ></text>
</g>
<g >
<title>MatSolve (84,657 us, 0.03%)</title><rect x="708.3" y="183" width="0.4" height="15.0" fill="rgb(0,0,0)" rx="2" ry="2" />
<text  x="711.26" y="193.5" ></text>
</g>
<g >
<title>Parloop_Cells_wrap_par_loop_kernel (693,740 us, 0.29%)</title><rect x="1142.9" y="167" width="3.4" height="15.0" fill="rgb(0,0,0)" rx="2" ry="2" />
<text  x="1145.90" y="177.5" ></text>
</g>
<g >
<title>Parloop_Cells_wrap_par_loop_kernel (895,467 us, 0.37%)</title><rect x="477.9" y="199" width="4.3" height="15.0" fill="rgb(0,0,0)" rx="2" ry="2" />
<text  x="480.89" y="209.5" ></text>
</g>
<g >
<title>Parloop_Cells_wrap_wrap_slate_loopy_knl_0 (74,113,820 us, 30.48%)</title><rect x="749.7" y="167" width="359.7" height="15.0" fill="rgb(0,0,0)" rx="2" ry="2" />
<text  x="752.75" y="177.5" >Parloop_Cells_wrap_wrap_slate_loopy_knl_0</text>
</g>
<g >
<title>firedrake.functionspacedata.FunctionSpaceData.__init__ (24,485 us, 0.01%)</title><rect x="19.0" y="119" width="0.1" height="15.0" fill="rgb(0,0,0)" rx="2" ry="2" />
<text  x="21.97" y="129.5" ></text>
</g>
<g >
<title>Log_Event_subkernel1_interior_facet_horiz_bottom_to__exterior_facet_bottom_integral_otherwise (45,335 us, 0.02%)</title><rect x="856.6" y="183" width="0.2" height="15.0" fill="rgb(0,0,0)" rx="2" ry="2" />
<text  x="859.56" y="193.5" ></text>
</g>
<g >
<title>firedrake.variational_solver.NonlinearVariationalSolver.solve (239,763,283 us, 98.61%)</title><rect x="26.4" y="71" width="1163.6" height="15.0" fill="rgb(0,0,0)" rx="2" ry="2" />
<text  x="29.40" y="81.5" >firedrake.variational_solver.NonlinearVariationalSolver.solve</text>
</g>
<g >
<title>Log_Event_subkernel5_interior_facet_horiz_top_to__exterior_facet_top_integral_otherwise (46,673 us, 0.02%)</title><rect x="501.7" y="199" width="0.2" height="15.0" fill="rgb(0,0,0)" rx="2" ry="2" />
<text  x="504.66" y="209.5" ></text>
</g>
<g >
<title>Log_Event_inits_wrap_slate_loopy_knl_4 (59,061 us, 0.02%)</title><rect x="488.3" y="199" width="0.3" height="15.0" fill="rgb(0,0,0)" rx="2" ry="2" />
<text  x="491.33" y="209.5" ></text>
</g>
<g >
<title>RecoverFirstElim (56,305,778 us, 23.16%)</title><rect x="188.8" y="151" width="273.2" height="15.0" fill="rgb(0,0,0)" rx="2" ry="2" />
<text  x="191.75" y="161.5" >RecoverFirstElim</text>
</g>
<g >
<title>solve_getrf (1,235,665 us, 0.51%)</title><rect x="37.3" y="199" width="6.0" height="15.0" fill="rgb(0,0,0)" rx="2" ry="2" />
<text  x="40.27" y="209.5" ></text>
</g>
<g >
<title>pyop2.global_kernel.GlobalKernel.compile (888,465 us, 0.37%)</title><rect x="14.7" y="135" width="4.3" height="15.0" fill="rgb(0,0,0)" rx="2" ry="2" />
<text  x="17.66" y="145.5" ></text>
</g>
<g >
<title>Log_Event_slate_loopy_knl_0 (21,611,315 us, 8.89%)</title><rect x="751.7" y="183" width="104.9" height="15.0" fill="rgb(0,0,0)" rx="2" ry="2" />
<text  x="754.68" y="193.5" >Log_Event_s..</text>
</g>
<g >
<title>ParLoopExecute (7,770,414 us, 3.20%)</title><rect x="1146.3" y="119" width="37.7" height="15.0" fill="rgb(0,0,0)" rx="2" ry="2" />
<text  x="1149.27" y="129.5" >Pa..</text>
</g>
<g >
<title>Log_Event_subkernel17_interior_facet_horiz_bottom_to__exterior_facet_bottom_integral_otherwise (53,097 us, 0.02%)</title><rect x="47.1" y="183" width="0.2" height="15.0" fill="rgb(0,0,0)" rx="2" ry="2" />
<text  x="50.09" y="193.5" ></text>
</g>
<g >
<title>Log_Event_subkernel16_cell_to__cell_integral_otherwise (199,616 us, 0.08%)</title><rect x="46.1" y="183" width="1.0" height="15.0" fill="rgb(0,0,0)" rx="2" ry="2" />
<text  x="49.12" y="193.5" ></text>
</g>
<g >
<title>firedrake.parloops.par_loop (693,740 us, 0.29%)</title><rect x="1142.9" y="135" width="3.4" height="15.0" fill="rgb(0,0,0)" rx="2" ry="2" />
<text  x="1145.90" y="145.5" ></text>
</g>
<g >
<title>inv_getri (5,849,321 us, 2.41%)</title><rect x="222.2" y="215" width="28.4" height="15.0" fill="rgb(0,0,0)" rx="2" ry="2" />
<text  x="225.19" y="225.5" >i..</text>
</g>
<g >
<title>HybridProject (884,293 us, 0.36%)</title><rect x="32.4" y="151" width="4.3" height="15.0" fill="rgb(0,0,0)" rx="2" ry="2" />
<text  x="35.38" y="161.5" ></text>
</g>
<g >
<title>firedrake.tsfc_interface.compile_form (5,386,029 us, 2.22%)</title><rect x="1109.4" y="151" width="26.2" height="15.0" fill="rgb(0,0,0)" rx="2" ry="2" />
<text  x="1112.43" y="161.5" >f..</text>
</g>
<g >
<title>Log_Event_subkernel3_interior_facet_horiz_top_to__exterior_facet_top_integral_otherwise (47,126 us, 0.02%)</title><rect x="871.8" y="183" width="0.2" height="15.0" fill="rgb(0,0,0)" rx="2" ry="2" />
<text  x="874.79" y="193.5" ></text>
</g>
<g >
<title>firedrake.functionspacedata.get_shared_data (24,485 us, 0.01%)</title><rect x="19.0" y="103" width="0.1" height="15.0" fill="rgb(0,0,0)" rx="2" ry="2" />
<text  x="21.97" y="113.5" ></text>
</g>
<g >
<title>inv_getrf (1,217,714 us, 0.50%)</title><rect x="216.3" y="215" width="5.9" height="15.0" fill="rgb(0,0,0)" rx="2" ry="2" />
<text  x="219.29" y="225.5" ></text>
</g>
<g >
<title>Log_Event_subkernel1_interior_facet_vert_to__exterior_facet_vert_integral_otherwise (796,812 us, 0.33%)</title><rect x="857.0" y="183" width="3.9" height="15.0" fill="rgb(0,0,0)" rx="2" ry="2" />
<text  x="860.01" y="193.5" ></text>
</g>
<g >
<title>firedrake.tsfc_interface.compile_form (1,240,010 us, 0.51%)</title><rect x="1184.0" y="119" width="6.0" height="15.0" fill="rgb(0,0,0)" rx="2" ry="2" />
<text  x="1186.98" y="129.5" ></text>
</g>
<g >
<title>Log_Event_slate_loopy_knl_7 (13,646,178 us, 5.61%)</title><rect x="197.9" y="199" width="66.2" height="15.0" fill="rgb(0,0,0)" rx="2" ry="2" />
<text  x="200.92" y="209.5" >Log_Ev..</text>
</g>
<g >
<title>ParLoopExecute (895,467 us, 0.37%)</title><rect x="477.9" y="183" width="4.3" height="15.0" fill="rgb(0,0,0)" rx="2" ry="2" />
<text  x="480.89" y="193.5" ></text>
</g>
<g >
<title>ParLoopExecute (74,113,820 us, 30.48%)</title><rect x="749.7" y="151" width="359.7" height="15.0" fill="rgb(0,0,0)" rx="2" ry="2" />
<text  x="752.75" y="161.5" >ParLoopExecute</text>
</g>
<g >
<title>CreateExtMesh (920,487 us, 0.38%)</title><rect x="14.5" y="71" width="4.5" height="15.0" fill="rgb(0,0,0)" rx="2" ry="2" />
<text  x="17.51" y="81.5" ></text>
</g>
<g >
<title>SCBackSub (93,031,493 us, 38.26%)</title><rect x="26.4" y="135" width="451.5" height="15.0" fill="rgb(0,0,0)" rx="2" ry="2" />
<text  x="29.40" y="145.5" >SCBackSub</text>
</g>
<g >
<title>inv_getrf (2,443,820 us, 1.01%)</title><rect x="784.6" y="199" width="11.8" height="15.0" fill="rgb(0,0,0)" rx="2" ry="2" />
<text  x="787.57" y="209.5" ></text>
</g>
<g >
<title>solve_getrf (2,497,026 us, 1.03%)</title><rect x="250.9" y="215" width="12.2" height="15.0" fill="rgb(0,0,0)" rx="2" ry="2" />
<text  x="253.94" y="225.5" ></text>
</g>
<g >
<title>KSPSolve (84,657 us, 0.03%)</title><rect x="708.3" y="151" width="0.4" height="15.0" fill="rgb(0,0,0)" rx="2" ry="2" />
<text  x="711.26" y="161.5" ></text>
</g>
<g >
<title>Parloop_Cells_wrap_pyop2_kernel_uniform_extrusion (888,465 us, 0.37%)</title><rect x="14.7" y="119" width="4.3" height="15.0" fill="rgb(0,0,0)" rx="2" ry="2" />
<text  x="17.66" y="129.5" ></text>
</g>
<g >
<title>Log_Event_subkernel2_cell_to__cell_integral_otherwise (2,204,485 us, 0.91%)</title><rect x="860.9" y="183" width="10.7" height="15.0" fill="rgb(0,0,0)" rx="2" ry="2" />
<text  x="863.87" y="193.5" ></text>
</g>
<g >
<title>Log_Event_slate_loopy_knl_4 (2,639,290 us, 1.09%)</title><rect x="488.6" y="199" width="12.8" height="15.0" fill="rgb(0,0,0)" rx="2" ry="2" />
<text  x="491.62" y="209.5" ></text>
</g>
<g >
<title>firedrake.tsfc_interface.compile_form (4,760,780 us, 1.96%)</title><rect x="438.9" y="167" width="23.1" height="15.0" fill="rgb(0,0,0)" rx="2" ry="2" />
<text  x="441.90" y="177.5" >f..</text>
</g>
<g >
<title>Log_Event_subkernel3_interior_facet_horiz_bottom_to__exterior_facet_bottom_integral_otherwise (45,898 us, 0.02%)</title><rect x="871.6" y="183" width="0.2" height="15.0" fill="rgb(0,0,0)" rx="2" ry="2" />
<text  x="874.57" y="193.5" ></text>
</g>
<g >
<title>firedrake.parloops.par_loop (884,293 us, 0.36%)</title><rect x="32.4" y="167" width="4.3" height="15.0" fill="rgb(0,0,0)" rx="2" ry="2" />
<text  x="35.38" y="177.5" ></text>
</g>
<g >
<title>pyop2.global_kernel.GlobalKernel.compile (4,195,416 us, 1.73%)</title><rect x="1146.3" y="151" width="20.3" height="15.0" fill="rgb(0,0,0)" rx="2" ry="2" />
<text  x="1149.27" y="161.5" ></text>
</g>
<g >
<title>solve_getrs (69,255 us, 0.03%)</title><rect x="263.1" y="215" width="0.3" height="15.0" fill="rgb(0,0,0)" rx="2" ry="2" />
<text  x="266.06" y="225.5" ></text>
</g>
<g >
<title>SCSolve (6,556,313 us, 2.70%)</title><rect x="708.3" y="135" width="31.8" height="15.0" fill="rgb(0,0,0)" rx="2" ry="2" />
<text  x="711.26" y="145.5" >SC..</text>
</g>
<g >
<title>ParLoopExecute (42,098,241 us, 17.31%)</title><rect x="488.1" y="167" width="204.3" height="15.0" fill="rgb(0,0,0)" rx="2" ry="2" />
<text  x="491.09" y="177.5" >ParLoopExecute</text>
</g>
<g >
<title>inv_memcpy (74,239 us, 0.03%)</title><rect x="250.6" y="215" width="0.3" height="15.0" fill="rgb(0,0,0)" rx="2" ry="2" />
<text  x="253.58" y="225.5" ></text>
</g>
<g >
<title>firedrake.__init__ (1,506,622 us, 0.62%)</title><rect x="19.1" y="71" width="7.3" height="15.0" fill="rgb(0,0,0)" rx="2" ry="2" />
<text  x="22.09" y="81.5" ></text>
</g>
<g >
<title>Log_Event_slate_loopy_knl_14 (1,371,486 us, 0.56%)</title><rect x="37.1" y="183" width="6.7" height="15.0" fill="rgb(0,0,0)" rx="2" ry="2" />
<text  x="40.14" y="193.5" ></text>
</g>
<g >
<title>firedrake.tsfc_interface.compile_form (3,273,325 us, 1.35%)</title><rect x="462.0" y="151" width="15.9" height="15.0" fill="rgb(0,0,0)" rx="2" ry="2" />
<text  x="465.01" y="161.5" ></text>
</g>
<g >
<title>solve_memcpy (154,110 us, 0.06%)</title><rect x="263.4" y="215" width="0.7" height="15.0" fill="rgb(0,0,0)" rx="2" ry="2" />
<text  x="266.40" y="225.5" ></text>
</g>
<g >
<title>CreateSparsity (1,045,349 us, 0.43%)</title><rect x="1135.6" y="151" width="5.0" height="15.0" fill="rgb(0,0,0)" rx="2" ry="2" />
<text  x="1138.57" y="161.5" ></text>
</g>
<g >
<title>ParLoopExecute (31,336,066 us, 12.89%)</title><rect x="36.7" y="151" width="152.1" height="15.0" fill="rgb(0,0,0)" rx="2" ry="2" />
<text  x="39.67" y="161.5" >ParLoopExecute</text>
</g>
<g >
<title>HybridBreak (895,467 us, 0.37%)</title><rect x="477.9" y="151" width="4.3" height="15.0" fill="rgb(0,0,0)" rx="2" ry="2" />
<text  x="480.89" y="161.5" ></text>
</g>
<g >
<title>firedrake.functionspaceimpl.FunctionSpace.__init__ (24,485 us, 0.01%)</title><rect x="19.0" y="87" width="0.1" height="15.0" fill="rgb(0,0,0)" rx="2" ry="2" />
<text  x="21.97" y="97.5" ></text>
</g>
<g >
<title>pyop2.global_kernel.GlobalKernel.compile (34,300,526 us, 14.11%)</title><rect x="272.4" y="199" width="166.5" height="15.0" fill="rgb(0,0,0)" rx="2" ry="2" />
<text  x="275.44" y="209.5" >pyop2.global_kernel..</text>
</g>
<g >
<title>Log_Event_subkernel13_interior_facet_vert_to__exterior_facet_vert_integral_otherwise (742,570 us, 0.31%)</title><rect x="267.8" y="199" width="3.6" height="15.0" fill="rgb(0,0,0)" rx="2" ry="2" />
<text  x="270.84" y="209.5" ></text>
</g>
<g >
<title>solve_memcpy (125,277 us, 0.05%)</title><rect x="500.8" y="215" width="0.6" height="15.0" fill="rgb(0,0,0)" rx="2" ry="2" />
<text  x="503.82" y="225.5" ></text>
</g>
<g >
<title>PCSetUp (6,471,656 us, 2.66%)</title><rect x="708.7" y="151" width="31.4" height="15.0" fill="rgb(0,0,0)" rx="2" ry="2" />
<text  x="711.67" y="161.5" >PC..</text>
</g>
<g >
<title>Parloop_Cells_wrap_wrap_slate_loopy_knl_4 (42,098,241 us, 17.31%)</title><rect x="488.1" y="183" width="204.3" height="15.0" fill="rgb(0,0,0)" rx="2" ry="2" />
<text  x="491.09" y="193.5" >Parloop_Cells_wrap_wrap_..</text>
</g>
<g >
<title>Log_Event_subkernel1_interior_facet_horiz_top_to__exterior_facet_top_integral_otherwise (46,842 us, 0.02%)</title><rect x="856.8" y="183" width="0.2" height="15.0" fill="rgb(0,0,0)" rx="2" ry="2" />
<text  x="859.78" y="193.5" ></text>
</g>
<g >
<title>Log_Event_subkernel13_interior_facet_horiz_bottom_to__exterior_facet_bottom_integral_otherwise (51,966 us, 0.02%)</title><rect x="267.3" y="199" width="0.3" height="15.0" fill="rgb(0,0,0)" rx="2" ry="2" />
<text  x="270.33" y="209.5" ></text>
</g>
<g >
<title>firedrake.assemble.allocate_matrix (1,445,504 us, 0.59%)</title><rect x="1135.6" y="135" width="7.0" height="15.0" fill="rgb(0,0,0)" rx="2" ry="2" />
<text  x="1138.57" y="145.5" ></text>
</g>
<g >
<title>firedrake (243,143,151 us, 100.00%)</title><rect x="10.0" y="55" width="1180.0" height="15.0" fill="rgb(0,0,0)" rx="2" ry="2" />
<text  x="13.00" y="65.5" >firedrake</text>
</g>
<g >
<title>all (243,143,151 us, 100%)</title><rect x="10.0" y="39" width="1180.0" height="15.0" fill="rgb(0,0,0)" rx="2" ry="2" />
<text  x="13.00" y="49.5" ></text>
</g>
<g >
<title>Log_Event_subkernel5_interior_facet_vert_to__exterior_facet_vert_integral_otherwise (741,152 us, 0.30%)</title><rect x="501.9" y="199" width="3.6" height="15.0" fill="rgb(0,0,0)" rx="2" ry="2" />
<text  x="504.89" y="209.5" ></text>
</g>
<g >
<title>PCApply (147,055,462 us, 60.48%)</title><rect x="26.4" y="119" width="713.7" height="15.0" fill="rgb(0,0,0)" rx="2" ry="2" />
<text  x="29.40" y="129.5" >PCApply</text>
</g>
<g >
<title>inv_memcpy (124,286 us, 0.05%)</title><rect x="856.0" y="199" width="0.6" height="15.0" fill="rgb(0,0,0)" rx="2" ry="2" />
<text  x="858.95" y="209.5" ></text>
</g>
<g >
<title>Parloop_Cells_wrap_form0_cell_integral_otherwise (4,195,416 us, 1.73%)</title><rect x="1146.3" y="135" width="20.3" height="15.0" fill="rgb(0,0,0)" rx="2" ry="2" />
<text  x="1149.27" y="145.5" ></text>
</g>
<g >
<title>SCForwardElim (47,467,656 us, 19.52%)</title><rect x="477.9" y="135" width="230.4" height="15.0" fill="rgb(0,0,0)" rx="2" ry="2" />
<text  x="480.89" y="145.5" >SCForwardElim</text>
</g>
<g >
<title>ParLoopExecute (884,293 us, 0.36%)</title><rect x="32.4" y="183" width="4.3" height="15.0" fill="rgb(0,0,0)" rx="2" ry="2" />
<text  x="35.38" y="193.5" ></text>
</g>
<g >
<title>Parloop_Cells_wrap_wrap_slate_loopy_knl_14 (31,336,066 us, 12.89%)</title><rect x="36.7" y="167" width="152.1" height="15.0" fill="rgb(0,0,0)" rx="2" ry="2" />
<text  x="39.67" y="177.5" >Parloop_Cells_wra..</text>
</g>
<g >
<title>Parloop_Cells_wrap_par_loop_kernel (884,293 us, 0.36%)</title><rect x="32.4" y="199" width="4.3" height="15.0" fill="rgb(0,0,0)" rx="2" ry="2" />
<text  x="35.38" y="209.5" ></text>
</g>
<g >
<title>Log_Event_subkernel11_cell_to__cell_integral_otherwise (192,281 us, 0.08%)</title><rect x="266.4" y="199" width="0.9" height="15.0" fill="rgb(0,0,0)" rx="2" ry="2" />
<text  x="269.40" y="209.5" ></text>
</g>
<g >
<title>Log_Event_inits_wrap_slate_loopy_knl_0 (73,418 us, 0.03%)</title><rect x="751.3" y="183" width="0.4" height="15.0" fill="rgb(0,0,0)" rx="2" ry="2" />
<text  x="754.32" y="193.5" ></text>
</g>
<g >
<title>ParLoopExecute (888,465 us, 0.37%)</title><rect x="14.7" y="103" width="4.3" height="15.0" fill="rgb(0,0,0)" rx="2" ry="2" />
<text  x="17.66" y="113.5" ></text>
</g>
<g >
<title>Parloop_Cells_wrap_form1_cell_integral_otherwise (3,574,998 us, 1.47%)</title><rect x="1166.6" y="135" width="17.4" height="15.0" fill="rgb(0,0,0)" rx="2" ry="2" />
<text  x="1169.63" y="145.5" ></text>
</g>
<g >
<title>Log_Event_inits_wrap_slate_loopy_knl_7 (60,036 us, 0.02%)</title><rect x="197.6" y="199" width="0.3" height="15.0" fill="rgb(0,0,0)" rx="2" ry="2" />
<text  x="200.63" y="209.5" ></text>
</g>
<g >
<title>solve_getrs (51,607 us, 0.02%)</title><rect x="500.6" y="215" width="0.2" height="15.0" fill="rgb(0,0,0)" rx="2" ry="2" />
<text  x="503.57" y="225.5" ></text>
</g>
<g >
<title>firedrake.parloops.par_loop (895,467 us, 0.37%)</title><rect x="477.9" y="167" width="4.3" height="15.0" fill="rgb(0,0,0)" rx="2" ry="2" />
<text  x="480.89" y="177.5" ></text>
</g>
<g >
<title>HybridRHS (46,572,189 us, 19.15%)</title><rect x="482.2" y="151" width="226.1" height="15.0" fill="rgb(0,0,0)" rx="2" ry="2" />
<text  x="485.24" y="161.5" >HybridRHS</text>
</g>
<g >
<title>pyop2.global_kernel.GlobalKernel.compile (693,740 us, 0.29%)</title><rect x="1142.9" y="183" width="3.4" height="15.0" fill="rgb(0,0,0)" rx="2" ry="2" />
<text  x="1145.90" y="193.5" ></text>
</g>
<g >
<title>Log_Event_subkernel10_cell_to__cell_integral_otherwise (464,583 us, 0.19%)</title><rect x="264.1" y="199" width="2.3" height="15.0" fill="rgb(0,0,0)" rx="2" ry="2" />
<text  x="267.14" y="209.5" ></text>
</g>
<g >
<title>HybridInit (83,697,397 us, 34.42%)</title><rect x="740.1" y="119" width="406.2" height="15.0" fill="rgb(0,0,0)" rx="2" ry="2" />
<text  x="743.08" y="129.5" >HybridInit</text>
</g>
<g >
<title>HybridOperatorAssembly (81,438,124 us, 33.49%)</title><rect x="740.3" y="135" width="395.3" height="15.0" fill="rgb(0,0,0)" rx="2" ry="2" />
<text  x="743.34" y="145.5" >HybridOperatorAssembly</text>
</g>
<g >
<title>CreateFunctionSpace (24,485 us, 0.01%)</title><rect x="19.0" y="71" width="0.1" height="15.0" fill="rgb(0,0,0)" rx="2" ry="2" />
<text  x="21.97" y="81.5" ></text>
</g>
<g >
<title>Log_Event_subkernel17_interior_facet_horiz_top_to__exterior_facet_top_integral_otherwise (52,254 us, 0.02%)</title><rect x="47.3" y="183" width="0.3" height="15.0" fill="rgb(0,0,0)" rx="2" ry="2" />
<text  x="50.34" y="193.5" ></text>
</g>
<g >
<title>pyop2.global_kernel.GlobalKernel.compile (884,293 us, 0.36%)</title><rect x="32.4" y="215" width="4.3" height="15.0" fill="rgb(0,0,0)" rx="2" ry="2" />
<text  x="35.38" y="225.5" ></text>
</g>
<g >
<title>Parloop_Cells_wrap_wrap_slate_loopy_knl_7 (49,765,383 us, 20.47%)</title><rect x="197.4" y="183" width="241.5" height="15.0" fill="rgb(0,0,0)" rx="2" ry="2" />
<text  x="200.39" y="193.5" >Parloop_Cells_wrap_wrap_slate..</text>
</g>
<g >
<title>pyop2.global_kernel.GlobalKernel.compile (3,574,998 us, 1.47%)</title><rect x="1166.6" y="151" width="17.4" height="15.0" fill="rgb(0,0,0)" rx="2" ry="2" />
<text  x="1169.63" y="161.5" ></text>
</g>
<g >
<title>pyop2.global_kernel.GlobalKernel.compile (48,340,188 us, 19.88%)</title><rect x="874.8" y="183" width="234.6" height="15.0" fill="rgb(0,0,0)" rx="2" ry="2" />
<text  x="877.83" y="193.5" >pyop2.global_kernel.GlobalKe..</text>
</g>
<g >
<title>firedrake.extrusion_utils.make_extruded_coords (920,487 us, 0.38%)</title><rect x="14.5" y="87" width="4.5" height="15.0" fill="rgb(0,0,0)" rx="2" ry="2" />
<text  x="17.51" y="97.5" ></text>
</g>
<g >
<title>Log_Event_subkernel13_interior_facet_horiz_top_to__exterior_facet_top_integral_otherwise (52,213 us, 0.02%)</title><rect x="267.6" y="199" width="0.2" height="15.0" fill="rgb(0,0,0)" rx="2" ry="2" />
<text  x="270.58" y="209.5" ></text>
</g>
<g >
<title>Log_Event_subkernel5_interior_facet_horiz_bottom_to__exterior_facet_bottom_integral_otherwise (47,705 us, 0.02%)</title><rect x="501.4" y="199" width="0.3" height="15.0" fill="rgb(0,0,0)" rx="2" ry="2" />
<text  x="504.43" y="209.5" ></text>
</g>
<g >
<title>Log_Event_subkernel3_interior_facet_vert_to__exterior_facet_vert_integral_otherwise (578,580 us, 0.24%)</title><rect x="872.0" y="183" width="2.8" height="15.0" fill="rgb(0,0,0)" rx="2" ry="2" />
<text  x="875.02" y="193.5" ></text>
</g>
<g >
<title>solve_getrf (2,462,406 us, 1.01%)</title><rect x="488.6" y="215" width="12.0" height="15.0" fill="rgb(0,0,0)" rx="2" ry="2" />
<text  x="491.62" y="225.5" ></text>
</g>
<g >
<title>SNESSolve (239,763,283 us, 98.61%)</title><rect x="26.4" y="87" width="1163.6" height="15.0" fill="rgb(0,0,0)" rx="2" ry="2" />
<text  x="29.40" y="97.5" >SNESSolve</text>
</g>
<g >
<title>pyop2.global_kernel.GlobalKernel.compile (895,467 us, 0.37%)</title><rect x="477.9" y="215" width="4.3" height="15.0" fill="rgb(0,0,0)" rx="2" ry="2" />
<text  x="480.89" y="225.5" ></text>
</g>
<g >
<title>Log_Event_subkernel17_interior_facet_vert_to__exterior_facet_vert_integral_otherwise (748,982 us, 0.31%)</title><rect x="47.6" y="183" width="3.6" height="15.0" fill="rgb(0,0,0)" rx="2" ry="2" />
<text  x="50.60" y="193.5" ></text>
</g>
<g >
<title>ParLoopExecute (693,740 us, 0.29%)</title><rect x="1142.9" y="151" width="3.4" height="15.0" fill="rgb(0,0,0)" rx="2" ry="2" />
<text  x="1145.90" y="161.5" ></text>
</g>
<g >
<title>Log_Event_inits_wrap_slate_loopy_knl_14 (46,932 us, 0.02%)</title><rect x="36.9" y="183" width="0.2" height="15.0" fill="rgb(0,0,0)" rx="2" ry="2" />
<text  x="39.92" y="193.5" ></text>
</g>
<g >
<title>Log_Event_subkernel15_cell_to__cell_integral_otherwise (477,382 us, 0.20%)</title><rect x="43.8" y="183" width="2.3" height="15.0" fill="rgb(0,0,0)" rx="2" ry="2" />
<text  x="46.80" y="193.5" ></text>
</g>
<g >
<title>firedrake.tsfc_interface.compile_form (3,268,037 us, 1.34%)</title><rect x="692.4" y="167" width="15.9" height="15.0" fill="rgb(0,0,0)" rx="2" ry="2" />
<text  x="695.40" y="177.5" ></text>
</g>
<g >
<title>Log_Event_subkernel6_cell_to__cell_integral_otherwise (2,193,428 us, 0.90%)</title><rect x="505.5" y="199" width="10.6" height="15.0" fill="rgb(0,0,0)" rx="2" ry="2" />
<text  x="508.48" y="209.5" ></text>
</g>
<g >
<title>MatLUFactor (6,471,656 us, 2.66%)</title><rect x="708.7" y="167" width="31.4" height="15.0" fill="rgb(0,0,0)" rx="2" ry="2" />
<text  x="711.67" y="177.5" >Ma..</text>
</g>
<g >
<title>inv_getri (12,265,711 us, 5.04%)</title><rect x="796.4" y="199" width="59.6" height="15.0" fill="rgb(0,0,0)" rx="2" ry="2" />
<text  x="799.43" y="209.5" >inv_g..</text>
</g>
<g >
<title>solve_memcpy (76,691 us, 0.03%)</title><rect x="43.4" y="199" width="0.4" height="15.0" fill="rgb(0,0,0)" rx="2" ry="2" />
<text  x="46.43" y="209.5" ></text>
</g>
<g >
<title>Log_Event_subkernel9_cell_to__cell_integral_otherwise (205,673 us, 0.08%)</title><rect x="271.4" y="199" width="1.0" height="15.0" fill="rgb(0,0,0)" rx="2" ry="2" />
<text  x="274.44" y="209.5" ></text>
</g>
<g >
<title>pyop2.global_kernel.GlobalKernel.compile (36,321,593 us, 14.94%)</title><rect x="516.1" y="199" width="176.3" height="15.0" fill="rgb(0,0,0)" rx="2" ry="2" />
<text  x="519.13" y="209.5" >pyop2.global_kernel...</text>
</g>
<g >
<title>solve_getrs (33,105 us, 0.01%)</title><rect x="43.3" y="199" width="0.1" height="15.0" fill="rgb(0,0,0)" rx="2" ry="2" />
<text  x="46.27" y="209.5" ></text>
</g>
<g >
<title>firedrake.interpolation.make_interpolator (65,945 us, 0.03%)</title><rect x="1142.6" y="135" width="0.3" height="15.0" fill="rgb(0,0,0)" rx="2" ry="2" />
<text  x="1145.58" y="145.5" ></text>
</g>
<g >
<title>SNESFunctionEval (9,010,424 us, 3.71%)</title><rect x="1146.3" y="103" width="43.7" height="15.0" fill="rgb(0,0,0)" rx="2" ry="2" />
<text  x="1149.27" y="113.5" >SNE..</text>
</g>
<g >
<title>pyop2.global_kernel.GlobalKernel.compile (28,336,171 us, 11.65%)</title><rect x="51.2" y="183" width="137.6" height="15.0" fill="rgb(0,0,0)" rx="2" ry="2" />
<text  x="54.23" y="193.5" >pyop2.global_ke..</text>
</g>
<g >
<title>PCSetUp (83,697,397 us, 34.42%)</title><rect x="740.1" y="103" width="406.2" height="15.0" fill="rgb(0,0,0)" rx="2" ry="2" />
<text  x="743.08" y="113.5" >PCSetUp</text>
</g>
<g >
<title>PCApply (84,657 us, 0.03%)</title><rect x="708.3" y="167" width="0.4" height="15.0" fill="rgb(0,0,0)" rx="2" ry="2" />
<text  x="711.26" y="177.5" ></text>
</g>
</g>
</svg>
