<?xml version="1.0" standalone="no"?>
<!DOCTYPE svg PUBLIC "-//W3C//DTD SVG 1.1//EN" "http://www.w3.org/Graphics/SVG/1.1/DTD/svg11.dtd">
<svg version="1.1" width="1200" height="347" onload="init(evt)" viewBox="0 0 1200 347" xmlns="http://www.w3.org/2000/svg" xmlns:xlink="http://www.w3.org/1999/xlink">
<!-- Flame graph stack visualization. See https://github.com/brendangregg/FlameGraph for latest version, and http://www.brendangregg.com/flamegraphs.html for examples. -->
<!-- NOTES:  -->
<defs>
	<linearGradient id="background" y1="0" y2="1" x1="0" x2="0" >
		<stop stop-color="#eeeeee" offset="5%" />
		<stop stop-color="#eeeeb0" offset="95%" />
	</linearGradient>
</defs>
<style type="text/css">
	text { font-family:Verdana; font-size:13px; fill:rgb(0,0,0); }
	#search, #ignorecase { opacity:0.1; cursor:pointer; }
	#search:hover, #search.show, #ignorecase:hover, #ignorecase.show { opacity:1; }
	#subtitle { text-anchor:middle; font-color:rgb(160,160,160); }
	#title { text-anchor:middle; font-size:18px}
	#unzoom { cursor:pointer; }
	#frames > *:hover { stroke:black; stroke-width:0.5; cursor:pointer; }
	.hide { display:none; }
	.parent { opacity:0.5; }
</style>
<script type="text/ecmascript">
<![CDATA[
	"use strict";
	var details, searchbtn, unzoombtn, matchedtxt, svg, searching, currentSearchTerm, ignorecase, ignorecaseBtn;
	function init(evt) {
		details = document.getElementById("details").firstChild;
		searchbtn = document.getElementById("search");
		ignorecaseBtn = document.getElementById("ignorecase");
		unzoombtn = document.getElementById("unzoom");
		matchedtxt = document.getElementById("matched");
		svg = document.getElementsByTagName("svg")[0];
		searching = 0;
		currentSearchTerm = null;

		// use GET parameters to restore a flamegraphs state.
		var params = get_params();
		if (params.x && params.y)
			zoom(find_group(document.querySelector('[x="' + params.x + '"][y="' + params.y + '"]')));
                if (params.s) search(params.s);
	}

	// event listeners
	window.addEventListener("click", function(e) {
		var target = find_group(e.target);
		if (target) {
			if (target.nodeName == "a") {
				if (e.ctrlKey === false) return;
				e.preventDefault();
			}
			if (target.classList.contains("parent")) unzoom();
			zoom(target);
			if (!document.querySelector('.parent')) {
				clearzoom();
				return;
			}

			// set parameters for zoom state
			var el = target.querySelector("rect");
			if (el && el.attributes && el.attributes.y && el.attributes._orig_x) {
				var params = get_params()
				params.x = el.attributes._orig_x.value;
				params.y = el.attributes.y.value;
				history.replaceState(null, null, parse_params(params));
			}
		}
		else if (e.target.id == "unzoom") clearzoom();
		else if (e.target.id == "search") search_prompt();
		else if (e.target.id == "ignorecase") toggle_ignorecase();
	}, false)

	// mouse-over for info
	// show
	window.addEventListener("mouseover", function(e) {
		var target = find_group(e.target);
		if (target) details.nodeValue = "Function: " + g_to_text(target);
	}, false)

	// clear
	window.addEventListener("mouseout", function(e) {
		var target = find_group(e.target);
		if (target) details.nodeValue = ' ';
	}, false)

	// ctrl-F for search
	// ctrl-I to toggle case-sensitive search
	window.addEventListener("keydown",function (e) {
		if (e.keyCode === 114 || (e.ctrlKey && e.keyCode === 70)) {
			e.preventDefault();
			search_prompt();
		}
		else if (e.ctrlKey && e.keyCode === 73) {
			e.preventDefault();
			toggle_ignorecase();
		}
	}, false)

	// functions
	function get_params() {
		var params = {};
		var paramsarr = window.location.search.substr(1).split('&');
		for (var i = 0; i < paramsarr.length; ++i) {
			var tmp = paramsarr[i].split("=");
			if (!tmp[0] || !tmp[1]) continue;
			params[tmp[0]]  = decodeURIComponent(tmp[1]);
		}
		return params;
	}
	function parse_params(params) {
		var uri = "?";
		for (var key in params) {
			uri += key + '=' + encodeURIComponent(params[key]) + '&';
		}
		if (uri.slice(-1) == "&")
			uri = uri.substring(0, uri.length - 1);
		if (uri == '?')
			uri = window.location.href.split('?')[0];
		return uri;
	}
	function find_child(node, selector) {
		var children = node.querySelectorAll(selector);
		if (children.length) return children[0];
	}
	function find_group(node) {
		var parent = node.parentElement;
		if (!parent) return;
		if (parent.id == "frames") return node;
		return find_group(parent);
	}
	function orig_save(e, attr, val) {
		if (e.attributes["_orig_" + attr] != undefined) return;
		if (e.attributes[attr] == undefined) return;
		if (val == undefined) val = e.attributes[attr].value;
		e.setAttribute("_orig_" + attr, val);
	}
	function orig_load(e, attr) {
		if (e.attributes["_orig_"+attr] == undefined) return;
		e.attributes[attr].value = e.attributes["_orig_" + attr].value;
		e.removeAttribute("_orig_"+attr);
	}
	function g_to_text(e) {
		var text = find_child(e, "title").firstChild.nodeValue;
		return (text)
	}
	function g_to_func(e) {
		var func = g_to_text(e);
		// if there's any manipulation we want to do to the function
		// name before it's searched, do it here before returning.
		return (func);
	}
	function update_text(e) {
		var r = find_child(e, "rect");
		var t = find_child(e, "text");
		var w = parseFloat(r.attributes.width.value) -3;
		var txt = find_child(e, "title").textContent.replace(/\([^(]*\)$/,"");
		t.attributes.x.value = parseFloat(r.attributes.x.value) + 3;

		// Smaller than this size won't fit anything
		if (w < 2 * 13 * 0.59) {
			t.textContent = "";
			return;
		}

		t.textContent = txt;
		// Fit in full text width
		if (/^ *$/.test(txt) || t.getSubStringLength(0, txt.length) < w)
			return;

		for (var x = txt.length - 2; x > 0; x--) {
			if (t.getSubStringLength(0, x + 2) <= w) {
				t.textContent = txt.substring(0, x) + "..";
				return;
			}
		}
		t.textContent = "";
	}

	// zoom
	function zoom_reset(e) {
		if (e.attributes != undefined) {
			orig_load(e, "x");
			orig_load(e, "width");
		}
		if (e.childNodes == undefined) return;
		for (var i = 0, c = e.childNodes; i < c.length; i++) {
			zoom_reset(c[i]);
		}
	}
	function zoom_child(e, x, ratio) {
		if (e.attributes != undefined) {
			if (e.attributes.x != undefined) {
				orig_save(e, "x");
				e.attributes.x.value = (parseFloat(e.attributes.x.value) - x - 10) * ratio + 10;
				if (e.tagName == "text")
					e.attributes.x.value = find_child(e.parentNode, "rect[x]").attributes.x.value + 3;
			}
			if (e.attributes.width != undefined) {
				orig_save(e, "width");
				e.attributes.width.value = parseFloat(e.attributes.width.value) * ratio;
			}
		}

		if (e.childNodes == undefined) return;
		for (var i = 0, c = e.childNodes; i < c.length; i++) {
			zoom_child(c[i], x - 10, ratio);
		}
	}
	function zoom_parent(e) {
		if (e.attributes) {
			if (e.attributes.x != undefined) {
				orig_save(e, "x");
				e.attributes.x.value = 10;
			}
			if (e.attributes.width != undefined) {
				orig_save(e, "width");
				e.attributes.width.value = parseInt(svg.width.baseVal.value) - (10 * 2);
			}
		}
		if (e.childNodes == undefined) return;
		for (var i = 0, c = e.childNodes; i < c.length; i++) {
			zoom_parent(c[i]);
		}
	}
	function zoom(node) {
		var attr = find_child(node, "rect").attributes;
		var width = parseFloat(attr.width.value);
		var xmin = parseFloat(attr.x.value);
		var xmax = parseFloat(xmin + width);
		var ymin = parseFloat(attr.y.value);
		var ratio = (svg.width.baseVal.value - 2 * 10) / width;

		// XXX: Workaround for JavaScript float issues (fix me)
		var fudge = 0.0001;

		unzoombtn.classList.remove("hide");

		var el = document.getElementById("frames").children;
		for (var i = 0; i < el.length; i++) {
			var e = el[i];
			var a = find_child(e, "rect").attributes;
			var ex = parseFloat(a.x.value);
			var ew = parseFloat(a.width.value);
			var upstack;
			// Is it an ancestor
			if (1 == 0) {
				upstack = parseFloat(a.y.value) > ymin;
			} else {
				upstack = parseFloat(a.y.value) < ymin;
			}
			if (upstack) {
				// Direct ancestor
				if (ex <= xmin && (ex+ew+fudge) >= xmax) {
					e.classList.add("parent");
					zoom_parent(e);
					update_text(e);
				}
				// not in current path
				else
					e.classList.add("hide");
			}
			// Children maybe
			else {
				// no common path
				if (ex < xmin || ex + fudge >= xmax) {
					e.classList.add("hide");
				}
				else {
					zoom_child(e, xmin, ratio);
					update_text(e);
				}
			}
		}
		search();
	}
	function unzoom() {
		unzoombtn.classList.add("hide");
		var el = document.getElementById("frames").children;
		for(var i = 0; i < el.length; i++) {
			el[i].classList.remove("parent");
			el[i].classList.remove("hide");
			zoom_reset(el[i]);
			update_text(el[i]);
		}
		search();
	}
	function clearzoom() {
		unzoom();

		// remove zoom state
		var params = get_params();
		if (params.x) delete params.x;
		if (params.y) delete params.y;
		history.replaceState(null, null, parse_params(params));
	}

	// search
	function toggle_ignorecase() {
		ignorecase = !ignorecase;
		if (ignorecase) {
			ignorecaseBtn.classList.add("show");
		} else {
			ignorecaseBtn.classList.remove("show");
		}
		reset_search();
		search();
	}
	function reset_search() {
		var el = document.querySelectorAll("#frames rect");
		for (var i = 0; i < el.length; i++) {
			orig_load(el[i], "fill")
		}
		var params = get_params();
		delete params.s;
		history.replaceState(null, null, parse_params(params));
	}
	function search_prompt() {
		if (!searching) {
			var term = prompt("Enter a search term (regexp " +
			    "allowed, eg: ^ext4_)"
			    + (ignorecase ? ", ignoring case" : "")
			    + "\nPress Ctrl-i to toggle case sensitivity", "");
			if (term != null) search(term);
		} else {
			reset_search();
			searching = 0;
			currentSearchTerm = null;
			searchbtn.classList.remove("show");
			searchbtn.firstChild.nodeValue = "Search"
			matchedtxt.classList.add("hide");
			matchedtxt.firstChild.nodeValue = ""
		}
	}
	function search(term) {
		if (term) currentSearchTerm = term;

		var re = new RegExp(currentSearchTerm, ignorecase ? 'i' : '');
		var el = document.getElementById("frames").children;
		var matches = new Object();
		var maxwidth = 0;
		for (var i = 0; i < el.length; i++) {
			var e = el[i];
			var func = g_to_func(e);
			var rect = find_child(e, "rect");
			if (func == null || rect == null)
				continue;

			// Save max width. Only works as we have a root frame
			var w = parseFloat(rect.attributes.width.value);
			if (w > maxwidth)
				maxwidth = w;

			if (func.match(re)) {
				// highlight
				var x = parseFloat(rect.attributes.x.value);
				orig_save(rect, "fill");
				rect.attributes.fill.value = "rgb(230,0,230)";

				// remember matches
				if (matches[x] == undefined) {
					matches[x] = w;
				} else {
					if (w > matches[x]) {
						// overwrite with parent
						matches[x] = w;
					}
				}
				searching = 1;
			}
		}
		if (!searching)
			return;
		var params = get_params();
		params.s = currentSearchTerm;
		history.replaceState(null, null, parse_params(params));

		searchbtn.classList.add("show");
		searchbtn.firstChild.nodeValue = "Reset Search";

		// calculate percent matched, excluding vertical overlap
		var count = 0;
		var lastx = -1;
		var lastw = 0;
		var keys = Array();
		for (k in matches) {
			if (matches.hasOwnProperty(k))
				keys.push(k);
		}
		// sort the matched frames by their x location
		// ascending, then width descending
		keys.sort(function(a, b){
			return a - b;
		});
		// Step through frames saving only the biggest bottom-up frames
		// thanks to the sort order. This relies on the tree property
		// where children are always smaller than their parents.
		var fudge = 0.0001;	// JavaScript floating point
		for (var k in keys) {
			var x = parseFloat(keys[k]);
			var w = matches[keys[k]];
			if (x >= lastx + lastw - fudge) {
				count += w;
				lastx = x;
				lastw = w;
			}
		}
		// display matched percent
		matchedtxt.classList.remove("hide");
		var pct = 100 * count / maxwidth;
		if (pct != 100) pct = pct.toFixed(1)
		matchedtxt.firstChild.nodeValue = "Matched: " + pct + "%";
	}
]]>
</script>
<rect x="0.0" y="0" width="1200.0" height="347.0" fill="url(#background)"  />
<text id="title" x="600.00" y="26" >Firedrake example</text>
<text id="details" x="10.00" y="329" > </text>
<text id="unzoom" x="10.00" y="26" class="hide">Reset Zoom</text>
<text id="search" x="1090.00" y="26" >Search</text>
<text id="ignorecase" x="1174.00" y="26" >ic</text>
<text id="matched" x="1090.00" y="329" > </text>
<g id="frames">
<g >
<title>PCSetUp (148,057 us, 1.37%)</title><rect x="1160.6" y="151" width="16.2" height="15.0" fill="rgb(0,0,0)" rx="2" ry="2" />
<text  x="1163.58" y="161.5" ></text>
</g>
<g >
<title>Log_Event_subkernel20_cell_to__cell_integral_otherwise (47,899 us, 0.44%)</title><rect x="475.7" y="263" width="5.2" height="15.0" fill="rgb(0,0,0)" rx="2" ry="2" />
<text  x="478.70" y="273.5" ></text>
</g>
<g >
<title>Log_Event_subkernel150_cell_to__cell_integral_otherwise (32,956 us, 0.31%)</title><rect x="957.2" y="263" width="3.6" height="15.0" fill="rgb(0,0,0)" rx="2" ry="2" />
<text  x="960.20" y="273.5" ></text>
</g>
<g >
<title>Log_Event_subkernel19_cell_to__cell_integral_otherwise (17,592 us, 0.16%)</title><rect x="473.8" y="263" width="1.9" height="15.0" fill="rgb(0,0,0)" rx="2" ry="2" />
<text  x="476.78" y="273.5" ></text>
</g>
<g >
<title>Log_Event_tensorshell_knl_2 (8,070 us, 0.07%)</title><rect x="491.9" y="231" width="0.9" height="15.0" fill="rgb(0,0,0)" rx="2" ry="2" />
<text  x="494.95" y="241.5" ></text>
</g>
<g >
<title>firedrake.matrix_free.operators.ImplicitMatrixContext.mult (95,828 us, 0.89%)</title><rect x="314.3" y="135" width="10.5" height="15.0" fill="rgb(0,0,0)" rx="2" ry="2" />
<text  x="317.27" y="145.5" ></text>
</g>
<g >
<title>Log_Event_subkernel88_cell_to__cell_integral_otherwise (19,446 us, 0.18%)</title><rect x="975.7" y="279" width="2.1" height="15.0" fill="rgb(0,0,0)" rx="2" ry="2" />
<text  x="978.71" y="289.5" ></text>
</g>
<g >
<title>Log_Event_mtf_solve_146 (69,559 us, 0.65%)</title><rect x="953.2" y="247" width="7.6" height="15.0" fill="rgb(0,0,0)" rx="2" ry="2" />
<text  x="956.19" y="257.5" ></text>
</g>
<g >
<title>Log_Event_subkernel111_interior_facet_vert_to__exterior_facet_vert_integral_otherwise (40,719 us, 0.38%)</title><rect x="994.5" y="247" width="4.5" height="15.0" fill="rgb(0,0,0)" rx="2" ry="2" />
<text  x="997.53" y="257.5" ></text>
</g>
<g >
<title>ParLoopExecute (62,654 us, 0.58%)</title><rect x="314.3" y="151" width="6.8" height="15.0" fill="rgb(0,0,0)" rx="2" ry="2" />
<text  x="317.27" y="161.5" ></text>
</g>
<g >
<title>firedrake.functionspacedata.get_shared_data (22,941 us, 0.21%)</title><rect x="141.6" y="103" width="2.5" height="15.0" fill="rgb(0,0,0)" rx="2" ry="2" />
<text  x="144.61" y="113.5" ></text>
</g>
<g >
<title>firedrake.variational_solver.NonlinearVariationalSolver.__init__ (7,780 us, 0.07%)</title><rect x="313.4" y="71" width="0.9" height="15.0" fill="rgb(0,0,0)" rx="2" ry="2" />
<text  x="316.42" y="81.5" ></text>
</g>
<g >
<title>Log_Event_mtf_solve_41 (102,285 us, 0.95%)</title><rect x="492.8" y="215" width="11.2" height="15.0" fill="rgb(0,0,0)" rx="2" ry="2" />
<text  x="495.83" y="225.5" ></text>
</g>
<g >
<title>Log_Event_subkernel106_cell_to__cell_integral_otherwise (16,735 us, 0.16%)</title><rect x="547.5" y="263" width="1.8" height="15.0" fill="rgb(0,0,0)" rx="2" ry="2" />
<text  x="550.46" y="273.5" ></text>
</g>
<g >
<title>Log_Event_subkernel100_cell_to__cell_integral_otherwise (19,386 us, 0.18%)</title><rect x="982.7" y="279" width="2.2" height="15.0" fill="rgb(0,0,0)" rx="2" ry="2" />
<text  x="985.74" y="289.5" ></text>
</g>
<g >
<title>firedrake.variational_solver.NonlinearVariationalSolver.solve (8,001,573 us, 74.21%)</title><rect x="314.3" y="71" width="875.7" height="15.0" fill="rgb(0,0,0)" rx="2" ry="2" />
<text  x="317.27" y="81.5" >firedrake.variational_solver.NonlinearVariationalSolver.solve</text>
</g>
<g >
<title>ParLoopExecute (389,906 us, 3.62%)</title><rect x="465.7" y="167" width="42.7" height="15.0" fill="rgb(0,0,0)" rx="2" ry="2" />
<text  x="468.74" y="177.5" >Par..</text>
</g>
<g >
<title>Parloop_Cells_wrap_form1_cell_integral_otherwise (29,806 us, 0.28%)</title><rect x="317.9" y="167" width="3.2" height="15.0" fill="rgb(0,0,0)" rx="2" ry="2" />
<text  x="320.87" y="177.5" ></text>
</g>
<g >
<title>pyop2.global_kernel.GlobalKernel.compile (40,128 us, 0.37%)</title><rect x="504.0" y="199" width="4.4" height="15.0" fill="rgb(0,0,0)" rx="2" ry="2" />
<text  x="507.02" y="209.5" ></text>
</g>
<g >
<title>FunctionSpaceData: CreateElement (10,596 us, 0.10%)</title><rect x="143.0" y="135" width="1.1" height="15.0" fill="rgb(0,0,0)" rx="2" ry="2" />
<text  x="145.96" y="145.5" ></text>
</g>
<g >
<title>Log_Event_mtf_solve_135 (1,743,243 us, 16.17%)</title><rect x="584.8" y="279" width="190.8" height="15.0" fill="rgb(0,0,0)" rx="2" ry="2" />
<text  x="587.82" y="289.5" >Log_Event_mtf_solve_135</text>
</g>
<g >
<title>FunctionSpaceData: CreateElement (8,773 us, 0.08%)</title><rect x="1180.4" y="199" width="0.9" height="15.0" fill="rgb(0,0,0)" rx="2" ry="2" />
<text  x="1183.37" y="209.5" ></text>
</g>
<g >
<title>PCSetUp (120,745 us, 1.12%)</title><rect x="1176.8" y="103" width="13.2" height="15.0" fill="rgb(0,0,0)" rx="2" ry="2" />
<text  x="1179.79" y="113.5" ></text>
</g>
<g >
<title>firedrake.functionspacedata.get_shared_data (6,324 us, 0.06%)</title><rect x="140.9" y="135" width="0.7" height="15.0" fill="rgb(0,0,0)" rx="2" ry="2" />
<text  x="143.92" y="145.5" ></text>
</g>
<g >
<title>firedrake.variational_solver.NonlinearVariationalProblem.__init__ (11,891 us, 0.11%)</title><rect x="312.1" y="87" width="1.3" height="15.0" fill="rgb(0,0,0)" rx="2" ry="2" />
<text  x="315.12" y="97.5" ></text>
</g>
<g >
<title>all (10,781,758 us, 100%)</title><rect x="10.0" y="39" width="1180.0" height="15.0" fill="rgb(0,0,0)" rx="2" ry="2" />
<text  x="13.00" y="49.5" ></text>
</g>
<g >
<title>Log_Event_tensorshell_knl_54 (94,867 us, 0.88%)</title><rect x="493.6" y="231" width="10.4" height="15.0" fill="rgb(0,0,0)" rx="2" ry="2" />
<text  x="496.64" y="241.5" ></text>
</g>
<g >
<title>Log_Event_tensorshell_knl_42 (7,418 us, 0.07%)</title><rect x="492.8" y="231" width="0.8" height="15.0" fill="rgb(0,0,0)" rx="2" ry="2" />
<text  x="495.83" y="241.5" ></text>
</g>
<g >
<title>Log_Event_subkernel138_cell_to__cell_integral_otherwise (300,836 us, 2.79%)</title><rect x="642.6" y="295" width="32.9" height="15.0" fill="rgb(0,0,0)" rx="2" ry="2" />
<text  x="645.57" y="305.5" >Lo..</text>
</g>
<g >
<title>PCApply (1,258,810 us, 11.68%)</title><rect x="1022.8" y="167" width="137.8" height="15.0" fill="rgb(0,0,0)" rx="2" ry="2" />
<text  x="1025.81" y="177.5" >PCApply</text>
</g>
<g >
<title>Log_Event_subkernel149_cell_to__cell_integral_otherwise (11,821 us, 0.11%)</title><rect x="955.9" y="263" width="1.3" height="15.0" fill="rgb(0,0,0)" rx="2" ry="2" />
<text  x="958.90" y="273.5" ></text>
</g>
<g >
<title>Log_Event_mtf_solve_82 (45,029 us, 0.42%)</title><rect x="965.9" y="279" width="5.0" height="15.0" fill="rgb(0,0,0)" rx="2" ry="2" />
<text  x="968.94" y="289.5" ></text>
</g>
<g >
<title>Log_Event_tensorshell_knl_92 (108,292 us, 1.00%)</title><rect x="977.8" y="263" width="11.9" height="15.0" fill="rgb(0,0,0)" rx="2" ry="2" />
<text  x="980.84" y="273.5" ></text>
</g>
<g >
<title>Log_Event_subkernel15_cell_to__cell_integral_otherwise (72,754 us, 0.67%)</title><rect x="480.9" y="247" width="8.0" height="15.0" fill="rgb(0,0,0)" rx="2" ry="2" />
<text  x="483.94" y="257.5" ></text>
</g>
<g >
<title>pyop2.global_kernel.GlobalKernel.compile (33,560 us, 0.31%)</title><rect x="325.5" y="215" width="3.7" height="15.0" fill="rgb(0,0,0)" rx="2" ry="2" />
<text  x="328.54" y="225.5" ></text>
</g>
<g >
<title>Parloop_Cells_wrap_slate_loopy_knl_77 (4,674,784 us, 43.36%)</title><rect x="511.2" y="215" width="511.6" height="15.0" fill="rgb(0,0,0)" rx="2" ry="2" />
<text  x="514.18" y="225.5" >Parloop_Cells_wrap_slate_loopy_knl_77</text>
</g>
<g >
<title>ParLoopExecute (70,764 us, 0.66%)</title><rect x="1161.7" y="167" width="7.7" height="15.0" fill="rgb(0,0,0)" rx="2" ry="2" />
<text  x="1164.70" y="177.5" ></text>
</g>
<g >
<title>Log_Event_subkernel22_cell_to__cell_integral_otherwise (27,777 us, 0.26%)</title><rect x="488.9" y="247" width="3.0" height="15.0" fill="rgb(0,0,0)" rx="2" ry="2" />
<text  x="491.91" y="257.5" ></text>
</g>
<g >
<title>Log_Event_subkernel60_cell_to__cell_integral_otherwise (24,177 us, 0.22%)</title><rect x="496.0" y="263" width="2.7" height="15.0" fill="rgb(0,0,0)" rx="2" ry="2" />
<text  x="499.04" y="273.5" ></text>
</g>
<g >
<title>firedrake.matrix_free.operators.ImplicitMatrixContext.mult (1,235,803 us, 11.46%)</title><rect x="1022.8" y="247" width="135.3" height="15.0" fill="rgb(0,0,0)" rx="2" ry="2" />
<text  x="1025.81" y="257.5" >firedrake.matri..</text>
</g>
<g >
<title>pyop2.global_kernel.GlobalKernel.compile (29,806 us, 0.28%)</title><rect x="317.9" y="183" width="3.2" height="15.0" fill="rgb(0,0,0)" rx="2" ry="2" />
<text  x="320.87" y="193.5" ></text>
</g>
<g >
<title>Parloop_Cells_wrap_par_loop_kernel (34,156 us, 0.32%)</title><rect x="1186.3" y="167" width="3.7" height="15.0" fill="rgb(0,0,0)" rx="2" ry="2" />
<text  x="1189.26" y="177.5" ></text>
</g>
<g >
<title>Log_Event_tensorshell_knl_121 (131,718 us, 1.22%)</title><rect x="567.6" y="263" width="14.4" height="15.0" fill="rgb(0,0,0)" rx="2" ry="2" />
<text  x="570.55" y="273.5" ></text>
</g>
<g >
<title>KSPSolve (1,235,803 us, 11.46%)</title><rect x="1022.8" y="215" width="135.3" height="15.0" fill="rgb(0,0,0)" rx="2" ry="2" />
<text  x="1025.81" y="225.5" >KSPSolve</text>
</g>
<g >
<title>firedrake.interpolation.make_interpolator (37,273 us, 0.35%)</title><rect x="1182.2" y="135" width="4.1" height="15.0" fill="rgb(0,0,0)" rx="2" ry="2" />
<text  x="1185.18" y="145.5" ></text>
</g>
<g >
<title>Log_Event_subkernel109_cell_to__cell_integral_otherwise (16,672 us, 0.15%)</title><rect x="550.6" y="263" width="1.8" height="15.0" fill="rgb(0,0,0)" rx="2" ry="2" />
<text  x="553.58" y="273.5" ></text>
</g>
<g >
<title>Parloop_Cells_wrap_form0_cell_integral_otherwise (32,848 us, 0.30%)</title><rect x="314.3" y="167" width="3.6" height="15.0" fill="rgb(0,0,0)" rx="2" ry="2" />
<text  x="317.27" y="177.5" ></text>
</g>
<g >
<title>Log_Event_subkernel114_cell_to__cell_integral_otherwise (16,843 us, 0.16%)</title><rect x="553.3" y="263" width="1.9" height="15.0" fill="rgb(0,0,0)" rx="2" ry="2" />
<text  x="556.31" y="273.5" ></text>
</g>
<g >
<title>HybridInit (120,745 us, 1.12%)</title><rect x="1176.8" y="119" width="13.2" height="15.0" fill="rgb(0,0,0)" rx="2" ry="2" />
<text  x="1179.79" y="129.5" ></text>
</g>
<g >
<title>firedrake.parloops.par_loop (34,156 us, 0.32%)</title><rect x="1186.3" y="135" width="3.7" height="15.0" fill="rgb(0,0,0)" rx="2" ry="2" />
<text  x="1189.26" y="145.5" ></text>
</g>
<g >
<title>MatMult (4,700,087 us, 43.59%)</title><rect x="508.4" y="167" width="514.4" height="15.0" fill="rgb(0,0,0)" rx="2" ry="2" />
<text  x="511.41" y="177.5" >MatMult</text>
</g>
<g >
<title>Log_Event_subkernel83_cell_to__cell_integral_otherwise (16,896 us, 0.16%)</title><rect x="965.9" y="295" width="1.9" height="15.0" fill="rgb(0,0,0)" rx="2" ry="2" />
<text  x="968.94" y="305.5" ></text>
</g>
<g >
<title>Parloop_Cells_wrap_par_loop_kernel (33,560 us, 0.31%)</title><rect x="325.5" y="199" width="3.7" height="15.0" fill="rgb(0,0,0)" rx="2" ry="2" />
<text  x="328.54" y="209.5" ></text>
</g>
<g >
<title>Parloop_Cells_wrap_pyop2_kernel_uniform_extrusion (35,417 us, 0.33%)</title><rect x="137.0" y="119" width="3.9" height="15.0" fill="rgb(0,0,0)" rx="2" ry="2" />
<text  x="140.04" y="129.5" ></text>
</g>
<g >
<title>Log_Event_subkernel93_cell_to__cell_integral_otherwise (44,057 us, 0.41%)</title><rect x="984.9" y="279" width="4.8" height="15.0" fill="rgb(0,0,0)" rx="2" ry="2" />
<text  x="987.87" y="289.5" ></text>
</g>
<g >
<title>firedrake.__init__ (1,535,057 us, 14.24%)</title><rect x="144.1" y="71" width="168.0" height="15.0" fill="rgb(0,0,0)" rx="2" ry="2" />
<text  x="147.12" y="81.5" >firedrake.__init__</text>
</g>
<g >
<title>Parloop_Cells_wrap_expression_kernel (32,002 us, 0.30%)</title><rect x="1161.7" y="183" width="3.5" height="15.0" fill="rgb(0,0,0)" rx="2" ry="2" />
<text  x="1164.70" y="193.5" ></text>
</g>
<g >
<title>SCForwardElim (1,678,046 us, 15.56%)</title><rect x="324.8" y="135" width="183.6" height="15.0" fill="rgb(0,0,0)" rx="2" ry="2" />
<text  x="327.76" y="145.5" >SCForwardElim</text>
</g>
<g >
<title>Log_Event_tensorshell_knl_14 (202,319 us, 1.88%)</title><rect x="469.8" y="231" width="22.1" height="15.0" fill="rgb(0,0,0)" rx="2" ry="2" />
<text  x="472.80" y="241.5" ></text>
</g>
<g >
<title>pyop2.global_kernel.GlobalKernel.compile (32,848 us, 0.30%)</title><rect x="314.3" y="183" width="3.6" height="15.0" fill="rgb(0,0,0)" rx="2" ry="2" />
<text  x="317.27" y="193.5" ></text>
</g>
<g >
<title>CreateFunctionSpace (8,773 us, 0.08%)</title><rect x="1180.4" y="135" width="0.9" height="15.0" fill="rgb(0,0,0)" rx="2" ry="2" />
<text  x="1183.37" y="145.5" ></text>
</g>
<g >
<title>firedrake.parloops.par_loop (40,705 us, 0.38%)</title><rect x="324.8" y="167" width="4.4" height="15.0" fill="rgb(0,0,0)" rx="2" ry="2" />
<text  x="327.76" y="177.5" ></text>
</g>
<g >
<title>Log_Event_slate_loopy_knl_77 (4,617,080 us, 42.82%)</title><rect x="517.5" y="231" width="505.3" height="15.0" fill="rgb(0,0,0)" rx="2" ry="2" />
<text  x="520.50" y="241.5" >Log_Event_slate_loopy_knl_77</text>
</g>
<g >
<title>firedrake (10,781,758 us, 100.00%)</title><rect x="10.0" y="55" width="1180.0" height="15.0" fill="rgb(0,0,0)" rx="2" ry="2" />
<text  x="13.00" y="65.5" >firedrake</text>
</g>
<g >
<title>firedrake.extrusion_utils.make_extruded_coords (65,437 us, 0.61%)</title><rect x="133.8" y="87" width="7.1" height="15.0" fill="rgb(0,0,0)" rx="2" ry="2" />
<text  x="136.75" y="97.5" ></text>
</g>
<g >
<title>firedrake.functionspaceimpl.FunctionSpace.__init__ (6,324 us, 0.06%)</title><rect x="140.9" y="119" width="0.7" height="15.0" fill="rgb(0,0,0)" rx="2" ry="2" />
<text  x="143.92" y="129.5" ></text>
</g>
<g >
<title>Log_Event_subkernel17_cell_to__cell_integral_otherwise (25,192 us, 0.23%)</title><rect x="471.0" y="263" width="2.8" height="15.0" fill="rgb(0,0,0)" rx="2" ry="2" />
<text  x="474.02" y="273.5" ></text>
</g>
<g >
<title>Log_Event_subkernel122_cell_to__cell_integral_otherwise (44,163 us, 0.41%)</title><rect x="575.0" y="279" width="4.9" height="15.0" fill="rgb(0,0,0)" rx="2" ry="2" />
<text  x="578.02" y="289.5" ></text>
</g>
<g >
<title>Log_Event_subkernel126_cell_to__cell_integral_otherwise (12,033 us, 0.11%)</title><rect x="570.2" y="295" width="1.3" height="15.0" fill="rgb(0,0,0)" rx="2" ry="2" />
<text  x="573.23" y="305.5" ></text>
</g>
<g >
<title>firedrake.tsfc_interface.compile_form (33,174 us, 0.31%)</title><rect x="321.1" y="151" width="3.7" height="15.0" fill="rgb(0,0,0)" rx="2" ry="2" />
<text  x="324.13" y="161.5" ></text>
</g>
<g >
<title>Log_Event_tensorshell_knl_80 (108,685 us, 1.01%)</title><rect x="965.9" y="263" width="11.9" height="15.0" fill="rgb(0,0,0)" rx="2" ry="2" />
<text  x="968.94" y="273.5" ></text>
</g>
<g >
<title>pyop2.global_kernel.GlobalKernel.compile (34,156 us, 0.32%)</title><rect x="1186.3" y="183" width="3.7" height="15.0" fill="rgb(0,0,0)" rx="2" ry="2" />
<text  x="1189.26" y="193.5" ></text>
</g>
<g >
<title>Log_Event_subkernel132_cell_to__cell_integral_otherwise (18,302 us, 0.17%)</title><rect x="564.2" y="263" width="2.0" height="15.0" fill="rgb(0,0,0)" rx="2" ry="2" />
<text  x="567.18" y="273.5" ></text>
</g>
<g >
<title>Log_Event_mtf_solve_94 (44,849 us, 0.42%)</title><rect x="977.8" y="279" width="4.9" height="15.0" fill="rgb(0,0,0)" rx="2" ry="2" />
<text  x="980.84" y="289.5" ></text>
</g>
<g >
<title>Log_Event_subkernel152_interior_facet_vert_to__exterior_facet_vert_integral_otherwise (40,648 us, 0.38%)</title><rect x="1013.8" y="247" width="4.5" height="15.0" fill="rgb(0,0,0)" rx="2" ry="2" />
<text  x="1016.85" y="257.5" ></text>
</g>
<g >
<title>firedrake.matrix_free.operators.ImplicitMatrixContext.mult (4,700,087 us, 43.59%)</title><rect x="508.4" y="183" width="514.4" height="15.0" fill="rgb(0,0,0)" rx="2" ry="2" />
<text  x="511.41" y="193.5" >firedrake.matrix_free.operators.ImplicitMatrixContext.mult</text>
</g>
<g >
<title>Log_Event_mtf_solve_56 (46,080 us, 0.43%)</title><rect x="493.6" y="247" width="5.1" height="15.0" fill="rgb(0,0,0)" rx="2" ry="2" />
<text  x="496.64" y="257.5" ></text>
</g>
<g >
<title>MatMult (1,235,803 us, 11.46%)</title><rect x="1022.8" y="231" width="135.3" height="15.0" fill="rgb(0,0,0)" rx="2" ry="2" />
<text  x="1025.81" y="241.5" >MatMult</text>
</g>
<g >
<title>CreateFunctionSpace (6,324 us, 0.06%)</title><rect x="140.9" y="103" width="0.7" height="15.0" fill="rgb(0,0,0)" rx="2" ry="2" />
<text  x="143.92" y="113.5" ></text>
</g>
<g >
<title>firedrake.functionspacedata.FunctionSpaceData.__init__ (8,773 us, 0.08%)</title><rect x="1180.4" y="183" width="0.9" height="15.0" fill="rgb(0,0,0)" rx="2" ry="2" />
<text  x="1183.37" y="193.5" ></text>
</g>
<g >
<title>Log_Event_subkernel129_cell_to__cell_integral_otherwise (19,319 us, 0.18%)</title><rect x="579.9" y="279" width="2.1" height="15.0" fill="rgb(0,0,0)" rx="2" ry="2" />
<text  x="582.86" y="289.5" ></text>
</g>
<g >
<title>pyop2.global_kernel.GlobalKernel.compile (35,417 us, 0.33%)</title><rect x="137.0" y="135" width="3.9" height="15.0" fill="rgb(0,0,0)" rx="2" ry="2" />
<text  x="140.04" y="145.5" ></text>
</g>
<g >
<title>Log_Event_subkernel85_cell_to__cell_integral_otherwise (12,009 us, 0.11%)</title><rect x="967.8" y="295" width="1.3" height="15.0" fill="rgb(0,0,0)" rx="2" ry="2" />
<text  x="970.79" y="305.5" ></text>
</g>
<g >
<title>Log_Event_subkernel147_cell_to__cell_integral_otherwise (16,750 us, 0.16%)</title><rect x="954.1" y="263" width="1.8" height="15.0" fill="rgb(0,0,0)" rx="2" ry="2" />
<text  x="957.07" y="273.5" ></text>
</g>
<g >
<title>firedrake.functionspacedata.get_shared_data (8,773 us, 0.08%)</title><rect x="1180.4" y="167" width="0.9" height="15.0" fill="rgb(0,0,0)" rx="2" ry="2" />
<text  x="1183.37" y="177.5" ></text>
</g>
<g >
<title>MatMult (95,828 us, 0.89%)</title><rect x="314.3" y="119" width="10.5" height="15.0" fill="rgb(0,0,0)" rx="2" ry="2" />
<text  x="317.27" y="129.5" ></text>
</g>
<g >
<title>PCSetUp (23,007 us, 0.21%)</title><rect x="1158.1" y="199" width="2.5" height="15.0" fill="rgb(0,0,0)" rx="2" ry="2" />
<text  x="1161.06" y="209.5" ></text>
</g>
<g >
<title>KSPSolve (7,880,828 us, 73.09%)</title><rect x="314.3" y="103" width="862.5" height="15.0" fill="rgb(0,0,0)" rx="2" ry="2" />
<text  x="317.27" y="113.5" >KSPSolve</text>
</g>
<g >
<title>Log_Event_subkernel139_cell_to__cell_integral_otherwise (818,173 us, 7.59%)</title><rect x="675.5" y="295" width="89.5" height="15.0" fill="rgb(0,0,0)" rx="2" ry="2" />
<text  x="678.50" y="305.5" >Log_Event..</text>
</g>
<g >
<title>HybridRHS (1,637,341 us, 15.19%)</title><rect x="329.2" y="151" width="179.2" height="15.0" fill="rgb(0,0,0)" rx="2" ry="2" />
<text  x="332.22" y="161.5" >HybridRHS</text>
</g>
<g >
<title>ParLoopExecute (33,560 us, 0.31%)</title><rect x="325.5" y="183" width="3.7" height="15.0" fill="rgb(0,0,0)" rx="2" ry="2" />
<text  x="328.54" y="193.5" ></text>
</g>
<g >
<title>Log_Event_tensorshell_knl_133 (3,391,890 us, 31.46%)</title><rect x="582.0" y="263" width="371.2" height="15.0" fill="rgb(0,0,0)" rx="2" ry="2" />
<text  x="584.97" y="273.5" >Log_Event_tensorshell_knl_133</text>
</g>
<g >
<title>Log_Event_mtf_solve_105 (45,238 us, 0.42%)</title><rect x="547.5" y="247" width="4.9" height="15.0" fill="rgb(0,0,0)" rx="2" ry="2" />
<text  x="550.46" y="257.5" ></text>
</g>
<g >
<title>HybridBreak (40,705 us, 0.38%)</title><rect x="324.8" y="151" width="4.4" height="15.0" fill="rgb(0,0,0)" rx="2" ry="2" />
<text  x="327.76" y="161.5" ></text>
</g>
<g >
<title>firedrake.functionspace.VectorFunctionSpace (6,324 us, 0.06%)</title><rect x="140.9" y="87" width="0.7" height="15.0" fill="rgb(0,0,0)" rx="2" ry="2" />
<text  x="143.92" y="97.5" ></text>
</g>
<g >
<title>Log_Event_mtf_solve_123 (68,236 us, 0.63%)</title><rect x="567.6" y="279" width="7.4" height="15.0" fill="rgb(0,0,0)" rx="2" ry="2" />
<text  x="570.55" y="289.5" ></text>
</g>
<g >
<title>Log_Event_subkernel141_cell_to__cell_integral_otherwise (481,428 us, 4.47%)</title><rect x="900.5" y="279" width="52.7" height="15.0" fill="rgb(0,0,0)" rx="2" ry="2" />
<text  x="903.50" y="289.5" >Log_..</text>
</g>
<g >
<title>KSPSolve (5,958,897 us, 55.27%)</title><rect x="508.4" y="151" width="652.2" height="15.0" fill="rgb(0,0,0)" rx="2" ry="2" />
<text  x="511.41" y="161.5" >KSPSolve</text>
</g>
<g >
<title>pyop2.global_kernel.GlobalKernel.compile (32,002 us, 0.30%)</title><rect x="1161.7" y="199" width="3.5" height="15.0" fill="rgb(0,0,0)" rx="2" ry="2" />
<text  x="1164.70" y="209.5" ></text>
</g>
<g >
<title>firedrake.assemble.allocate_matrix (7,780 us, 0.07%)</title><rect x="313.4" y="87" width="0.9" height="15.0" fill="rgb(0,0,0)" rx="2" ry="2" />
<text  x="316.42" y="97.5" ></text>
</g>
<g >
<title>CreateFunctionSpace (7,764 us, 0.07%)</title><rect x="1181.3" y="183" width="0.9" height="15.0" fill="rgb(0,0,0)" rx="2" ry="2" />
<text  x="1184.33" y="193.5" ></text>
</g>
<g >
<title>firedrake.tsfc_interface.compile_form (15,958 us, 0.15%)</title><rect x="1158.8" y="215" width="1.8" height="15.0" fill="rgb(0,0,0)" rx="2" ry="2" />
<text  x="1161.83" y="225.5" ></text>
</g>
<g >
<title>Log_Event_subkernel132_interior_facet_vert_to__exterior_facet_vert_integral_otherwise (12,502 us, 0.12%)</title><rect x="566.2" y="263" width="1.4" height="15.0" fill="rgb(0,0,0)" rx="2" ry="2" />
<text  x="569.19" y="273.5" ></text>
</g>
<g >
<title>PCApply (7,785,000 us, 72.21%)</title><rect x="324.8" y="119" width="852.0" height="15.0" fill="rgb(0,0,0)" rx="2" ry="2" />
<text  x="327.76" y="129.5" >PCApply</text>
</g>
<g >
<title>ParLoopExecute (4,674,784 us, 43.36%)</title><rect x="511.2" y="199" width="511.6" height="15.0" fill="rgb(0,0,0)" rx="2" ry="2" />
<text  x="514.18" y="209.5" >ParLoopExecute</text>
</g>
<g >
<title>Log_Event_subkernel108_cell_to__cell_integral_otherwise (11,831 us, 0.11%)</title><rect x="549.3" y="263" width="1.3" height="15.0" fill="rgb(0,0,0)" rx="2" ry="2" />
<text  x="552.29" y="273.5" ></text>
</g>
<g >
<title>Log_Event_subkernel95_cell_to__cell_integral_otherwise (16,791 us, 0.16%)</title><rect x="977.8" y="295" width="1.9" height="15.0" fill="rgb(0,0,0)" rx="2" ry="2" />
<text  x="980.84" y="305.5" ></text>
</g>
<g >
<title>Log_Event_tensorshell_knl_140 (64,416 us, 0.60%)</title><rect x="768.6" y="295" width="7.0" height="15.0" fill="rgb(0,0,0)" rx="2" ry="2" />
<text  x="771.56" y="305.5" ></text>
</g>
<g >
<title>Log_Event_subkernel97_cell_to__cell_integral_otherwise (12,014 us, 0.11%)</title><rect x="979.7" y="295" width="1.3" height="15.0" fill="rgb(0,0,0)" rx="2" ry="2" />
<text  x="982.67" y="305.5" ></text>
</g>
<g >
<title>firedrake.variational_solver.LinearVariationalProblem.__init__ (11,891 us, 0.11%)</title><rect x="312.1" y="71" width="1.3" height="15.0" fill="rgb(0,0,0)" rx="2" ry="2" />
<text  x="315.12" y="81.5" ></text>
</g>
<g >
<title>Log_Event_subkernel136_cell_to__cell_integral_otherwise (428,785 us, 3.98%)</title><rect x="595.6" y="295" width="47.0" height="15.0" fill="rgb(0,0,0)" rx="2" ry="2" />
<text  x="598.65" y="305.5" >Log_..</text>
</g>
<g >
<title>Log_Event_mtf_solve_1 (210,389 us, 1.95%)</title><rect x="469.8" y="215" width="23.0" height="15.0" fill="rgb(0,0,0)" rx="2" ry="2" />
<text  x="472.80" y="225.5" >L..</text>
</g>
<g >
<title>firedrake.matrix_free.operators.ImplicitMatrixContext.__init__ (7,780 us, 0.07%)</title><rect x="313.4" y="103" width="0.9" height="15.0" fill="rgb(0,0,0)" rx="2" ry="2" />
<text  x="316.42" y="113.5" ></text>
</g>
<g >
<title>Log_Event_mtf_solve_113 (69,819 us, 0.65%)</title><rect x="552.4" y="247" width="7.6" height="15.0" fill="rgb(0,0,0)" rx="2" ry="2" />
<text  x="555.41" y="257.5" ></text>
</g>
<g >
<title>firedrake.formmanipulation.ExtractSubBlock.argument (7,764 us, 0.07%)</title><rect x="1181.3" y="167" width="0.9" height="15.0" fill="rgb(0,0,0)" rx="2" ry="2" />
<text  x="1184.33" y="177.5" ></text>
</g>
<g >
<title>ParLoopExecute (35,417 us, 0.33%)</title><rect x="137.0" y="103" width="3.9" height="15.0" fill="rgb(0,0,0)" rx="2" ry="2" />
<text  x="140.04" y="113.5" ></text>
</g>
<g >
<title>Log_Event_subkernel119_cell_to__cell_integral_otherwise (19,437 us, 0.18%)</title><rect x="1006.9" y="247" width="2.1" height="15.0" fill="rgb(0,0,0)" rx="2" ry="2" />
<text  x="1009.87" y="257.5" ></text>
</g>
<g >
<title>Log_Event_mtf_solve_120 (3,592,186 us, 33.32%)</title><rect x="560.0" y="247" width="393.2" height="15.0" fill="rgb(0,0,0)" rx="2" ry="2" />
<text  x="563.05" y="257.5" >Log_Event_mtf_solve_120</text>
</g>
<g >
<title>Parloop_Cells_wrap_form00_cell_integral_otherwise (38,762 us, 0.36%)</title><rect x="1165.2" y="183" width="4.2" height="15.0" fill="rgb(0,0,0)" rx="2" ry="2" />
<text  x="1168.20" y="193.5" ></text>
</g>
<g >
<title>firedrake.formmanipulation.ExtractSubBlock.split (7,764 us, 0.07%)</title><rect x="1181.3" y="151" width="0.9" height="15.0" fill="rgb(0,0,0)" rx="2" ry="2" />
<text  x="1184.33" y="161.5" ></text>
</g>
<g >
<title>Log_Event_subkernel145_cell_to__cell_integral_otherwise (44,289 us, 0.41%)</title><rect x="1009.0" y="247" width="4.8" height="15.0" fill="rgb(0,0,0)" rx="2" ry="2" />
<text  x="1012.00" y="257.5" ></text>
</g>
<g >
<title>firedrake.tsfc_interface.compile_form (19,478 us, 0.18%)</title><rect x="1174.7" y="167" width="2.1" height="15.0" fill="rgb(0,0,0)" rx="2" ry="2" />
<text  x="1177.65" y="177.5" ></text>
</g>
<g >
<title>PCSetUp (1,258,810 us, 11.68%)</title><rect x="1022.8" y="183" width="137.8" height="15.0" fill="rgb(0,0,0)" rx="2" ry="2" />
<text  x="1025.81" y="193.5" >PCSetUp</text>
</g>
<g >
<title>SCSolve (6,106,954 us, 56.64%)</title><rect x="508.4" y="135" width="668.4" height="15.0" fill="rgb(0,0,0)" rx="2" ry="2" />
<text  x="511.41" y="145.5" >SCSolve</text>
</g>
<g >
<title>ParLoopExecute (34,156 us, 0.32%)</title><rect x="1186.3" y="151" width="3.7" height="15.0" fill="rgb(0,0,0)" rx="2" ry="2" />
<text  x="1189.26" y="161.5" ></text>
</g>
<g >
<title>Log_Event_subkernel59_cell_to__cell_integral_otherwise (9,030 us, 0.08%)</title><rect x="495.0" y="263" width="1.0" height="15.0" fill="rgb(0,0,0)" rx="2" ry="2" />
<text  x="498.05" y="273.5" ></text>
</g>
<g >
<title>Log_Event_subkernel62_cell_to__cell_integral_otherwise (14,355 us, 0.13%)</title><rect x="502.5" y="247" width="1.5" height="15.0" fill="rgb(0,0,0)" rx="2" ry="2" />
<text  x="505.45" y="257.5" ></text>
</g>
<g >
<title>firedrake.interpolation.make_interpolator (47,632 us, 0.44%)</title><rect x="1169.4" y="167" width="5.3" height="15.0" fill="rgb(0,0,0)" rx="2" ry="2" />
<text  x="1172.44" y="177.5" ></text>
</g>
<g >
<title>firedrake.ufl_expr.adjoint (11,891 us, 0.11%)</title><rect x="312.1" y="103" width="1.3" height="15.0" fill="rgb(0,0,0)" rx="2" ry="2" />
<text  x="315.12" y="113.5" ></text>
</g>
<g >
<title>Log_Event_subkernel91_cell_to__cell_integral_otherwise (18,294 us, 0.17%)</title><rect x="962.6" y="263" width="2.0" height="15.0" fill="rgb(0,0,0)" rx="2" ry="2" />
<text  x="965.57" y="273.5" ></text>
</g>
<g >
<title>firedrake.formmanipulation.split_form (7,764 us, 0.07%)</title><rect x="1181.3" y="135" width="0.9" height="15.0" fill="rgb(0,0,0)" rx="2" ry="2" />
<text  x="1184.33" y="145.5" ></text>
</g>
<g >
<title>Log_Event_subkernel91_interior_facet_vert_to__exterior_facet_vert_integral_otherwise (12,534 us, 0.12%)</title><rect x="964.6" y="263" width="1.3" height="15.0" fill="rgb(0,0,0)" rx="2" ry="2" />
<text  x="967.57" y="273.5" ></text>
</g>
<g >
<title>Log_Event_subkernel104_cell_to__cell_integral_otherwise (44,268 us, 0.41%)</title><rect x="989.7" y="247" width="4.8" height="15.0" fill="rgb(0,0,0)" rx="2" ry="2" />
<text  x="992.69" y="257.5" ></text>
</g>
<g >
<title>firedrake.functionspacedata.FunctionSpaceData.__init__ (22,941 us, 0.21%)</title><rect x="141.6" y="119" width="2.5" height="15.0" fill="rgb(0,0,0)" rx="2" ry="2" />
<text  x="144.61" y="129.5" ></text>
</g>
<g >
<title>Log_Event_subkernel55_cell_to__cell_integral_otherwise (34,432 us, 0.32%)</title><rect x="498.7" y="247" width="3.8" height="15.0" fill="rgb(0,0,0)" rx="2" ry="2" />
<text  x="501.68" y="257.5" ></text>
</g>
<g >
<title>Log_Event_slate_loopy_knl_0 (349,778 us, 3.24%)</title><rect x="465.7" y="199" width="38.3" height="15.0" fill="rgb(0,0,0)" rx="2" ry="2" />
<text  x="468.74" y="209.5" >Lo..</text>
</g>
<g >
<title>SNESSolve (8,001,573 us, 74.21%)</title><rect x="314.3" y="87" width="875.7" height="15.0" fill="rgb(0,0,0)" rx="2" ry="2" />
<text  x="317.27" y="97.5" >SNESSolve</text>
</g>
<g >
<title>Log_Event_tensorshell_knl_137 (32,120 us, 0.30%)</title><rect x="765.0" y="295" width="3.6" height="15.0" fill="rgb(0,0,0)" rx="2" ry="2" />
<text  x="768.04" y="305.5" ></text>
</g>
<g >
<title>Log_Event_subkernel57_cell_to__cell_integral_otherwise (12,873 us, 0.12%)</title><rect x="493.6" y="263" width="1.4" height="15.0" fill="rgb(0,0,0)" rx="2" ry="2" />
<text  x="496.64" y="273.5" ></text>
</g>
<g >
<title>Log_Event_subkernel134_cell_to__cell_integral_otherwise (1,141,162 us, 10.58%)</title><rect x="775.6" y="279" width="124.9" height="15.0" fill="rgb(0,0,0)" rx="2" ry="2" />
<text  x="778.61" y="289.5" >Log_Event_subk..</text>
</g>
<g >
<title>Log_Event_subkernel117_cell_to__cell_integral_otherwise (32,831 us, 0.30%)</title><rect x="556.5" y="263" width="3.5" height="15.0" fill="rgb(0,0,0)" rx="2" ry="2" />
<text  x="559.46" y="273.5" ></text>
</g>
<g >
<title>Log_Event_subkernel153_interior_facet_vert_to__exterior_facet_vert_integral_otherwise (41,252 us, 0.38%)</title><rect x="1018.3" y="247" width="4.5" height="15.0" fill="rgb(0,0,0)" rx="2" ry="2" />
<text  x="1021.30" y="257.5" ></text>
</g>
<g >
<title>Log_Event_subkernel86_cell_to__cell_integral_otherwise (16,124 us, 0.15%)</title><rect x="969.1" y="295" width="1.8" height="15.0" fill="rgb(0,0,0)" rx="2" ry="2" />
<text  x="972.10" y="305.5" ></text>
</g>
<g >
<title>Log_Event_subkernel124_cell_to__cell_integral_otherwise (16,665 us, 0.15%)</title><rect x="568.4" y="295" width="1.8" height="15.0" fill="rgb(0,0,0)" rx="2" ry="2" />
<text  x="571.41" y="305.5" ></text>
</g>
<g >
<title>KSPSetUp (1,235,803 us, 11.46%)</title><rect x="1022.8" y="199" width="135.3" height="15.0" fill="rgb(0,0,0)" rx="2" ry="2" />
<text  x="1025.81" y="209.5" >KSPSetUp</text>
</g>
<g >
<title>Log_Event_subkernel116_cell_to__cell_integral_otherwise (11,915 us, 0.11%)</title><rect x="555.2" y="263" width="1.3" height="15.0" fill="rgb(0,0,0)" rx="2" ry="2" />
<text  x="558.15" y="273.5" ></text>
</g>
<g >
<title>pyop2.global_kernel.GlobalKernel.compile (38,762 us, 0.36%)</title><rect x="1165.2" y="199" width="4.2" height="15.0" fill="rgb(0,0,0)" rx="2" ry="2" />
<text  x="1168.20" y="209.5" ></text>
</g>
<g >
<title>Log_Event_subkernel81_cell_to__cell_integral_otherwise (44,210 us, 0.41%)</title><rect x="970.9" y="279" width="4.8" height="15.0" fill="rgb(0,0,0)" rx="2" ry="2" />
<text  x="973.87" y="289.5" ></text>
</g>
<g >
<title>CreateExtMesh (71,761 us, 0.67%)</title><rect x="133.8" y="71" width="7.8" height="15.0" fill="rgb(0,0,0)" rx="2" ry="2" />
<text  x="136.75" y="81.5" ></text>
</g>
<g >
<title>Log_Event_subkernel127_cell_to__cell_integral_otherwise (31,745 us, 0.29%)</title><rect x="571.5" y="295" width="3.5" height="15.0" fill="rgb(0,0,0)" rx="2" ry="2" />
<text  x="574.55" y="305.5" ></text>
</g>
<g >
<title>firedrake.functionspaceimpl.FunctionSpace.__init__ (22,941 us, 0.21%)</title><rect x="141.6" y="87" width="2.5" height="15.0" fill="rgb(0,0,0)" rx="2" ry="2" />
<text  x="144.61" y="97.5" ></text>
</g>
<g >
<title>Parloop_Cells_wrap_slate_loopy_knl_0 (389,906 us, 3.62%)</title><rect x="465.7" y="183" width="42.7" height="15.0" fill="rgb(0,0,0)" rx="2" ry="2" />
<text  x="468.74" y="193.5" >Par..</text>
</g>
<g >
<title>Log_Event_mtf_solve_16 (101,788 us, 0.94%)</title><rect x="469.8" y="247" width="11.1" height="15.0" fill="rgb(0,0,0)" rx="2" ry="2" />
<text  x="472.80" y="257.5" ></text>
</g>
<g >
<title>Log_Event_mtf_solve_79 (263,905 us, 2.45%)</title><rect x="960.8" y="247" width="28.9" height="15.0" fill="rgb(0,0,0)" rx="2" ry="2" />
<text  x="963.80" y="257.5" >L..</text>
</g>
<g >
<title>firedrake.functionspacedata.FunctionSpaceData.__init__ (6,324 us, 0.06%)</title><rect x="140.9" y="151" width="0.7" height="15.0" fill="rgb(0,0,0)" rx="2" ry="2" />
<text  x="143.92" y="161.5" ></text>
</g>
<g >
<title>CreateFunctionSpace (22,941 us, 0.21%)</title><rect x="141.6" y="71" width="2.5" height="15.0" fill="rgb(0,0,0)" rx="2" ry="2" />
<text  x="144.61" y="81.5" ></text>
</g>
<g >
<title>firedrake.functionspaceimpl.FunctionSpace.__init__ (8,773 us, 0.08%)</title><rect x="1180.4" y="151" width="0.9" height="15.0" fill="rgb(0,0,0)" rx="2" ry="2" />
<text  x="1183.37" y="161.5" ></text>
</g>
<g >
<title>Log_Event_subkernel112_interior_facet_vert_to__exterior_facet_vert_integral_otherwise (72,045 us, 0.67%)</title><rect x="999.0" y="247" width="7.9" height="15.0" fill="rgb(0,0,0)" rx="2" ry="2" />
<text  x="1001.99" y="257.5" ></text>
</g>
<g >
<title>Log_Event_subkernel98_cell_to__cell_integral_otherwise (16,044 us, 0.15%)</title><rect x="981.0" y="295" width="1.7" height="15.0" fill="rgb(0,0,0)" rx="2" ry="2" />
<text  x="983.99" y="305.5" ></text>
</g>
</g>
</svg>
