<?xml version="1.0" standalone="no"?>
<!DOCTYPE svg PUBLIC "-//W3C//DTD SVG 1.1//EN" "http://www.w3.org/Graphics/SVG/1.1/DTD/svg11.dtd">
<svg version="1.1" width="1200" height="347" onload="init(evt)" viewBox="0 0 1200 347" xmlns="http://www.w3.org/2000/svg" xmlns:xlink="http://www.w3.org/1999/xlink">
<!-- Flame graph stack visualization. See https://github.com/brendangregg/FlameGraph for latest version, and http://www.brendangregg.com/flamegraphs.html for examples. -->
<!-- NOTES:  -->
<defs>
	<linearGradient id="background" y1="0" y2="1" x1="0" x2="0" >
		<stop stop-color="#eeeeee" offset="5%" />
		<stop stop-color="#eeeeb0" offset="95%" />
	</linearGradient>
</defs>
<style type="text/css">
	text { font-family:Verdana; font-size:13px; fill:rgb(0,0,0); }
	#search, #ignorecase { opacity:0.1; cursor:pointer; }
	#search:hover, #search.show, #ignorecase:hover, #ignorecase.show { opacity:1; }
	#subtitle { text-anchor:middle; font-color:rgb(160,160,160); }
	#title { text-anchor:middle; font-size:18px}
	#unzoom { cursor:pointer; }
	#frames > *:hover { stroke:black; stroke-width:0.5; cursor:pointer; }
	.hide { display:none; }
	.parent { opacity:0.5; }
</style>
<script type="text/ecmascript">
<![CDATA[
	"use strict";
	var details, searchbtn, unzoombtn, matchedtxt, svg, searching, currentSearchTerm, ignorecase, ignorecaseBtn;
	function init(evt) {
		details = document.getElementById("details").firstChild;
		searchbtn = document.getElementById("search");
		ignorecaseBtn = document.getElementById("ignorecase");
		unzoombtn = document.getElementById("unzoom");
		matchedtxt = document.getElementById("matched");
		svg = document.getElementsByTagName("svg")[0];
		searching = 0;
		currentSearchTerm = null;

		// use GET parameters to restore a flamegraphs state.
		var params = get_params();
		if (params.x && params.y)
			zoom(find_group(document.querySelector('[x="' + params.x + '"][y="' + params.y + '"]')));
                if (params.s) search(params.s);
	}

	// event listeners
	window.addEventListener("click", function(e) {
		var target = find_group(e.target);
		if (target) {
			if (target.nodeName == "a") {
				if (e.ctrlKey === false) return;
				e.preventDefault();
			}
			if (target.classList.contains("parent")) unzoom();
			zoom(target);
			if (!document.querySelector('.parent')) {
				clearzoom();
				return;
			}

			// set parameters for zoom state
			var el = target.querySelector("rect");
			if (el && el.attributes && el.attributes.y && el.attributes._orig_x) {
				var params = get_params()
				params.x = el.attributes._orig_x.value;
				params.y = el.attributes.y.value;
				history.replaceState(null, null, parse_params(params));
			}
		}
		else if (e.target.id == "unzoom") clearzoom();
		else if (e.target.id == "search") search_prompt();
		else if (e.target.id == "ignorecase") toggle_ignorecase();
	}, false)

	// mouse-over for info
	// show
	window.addEventListener("mouseover", function(e) {
		var target = find_group(e.target);
		if (target) details.nodeValue = "Function: " + g_to_text(target);
	}, false)

	// clear
	window.addEventListener("mouseout", function(e) {
		var target = find_group(e.target);
		if (target) details.nodeValue = ' ';
	}, false)

	// ctrl-F for search
	// ctrl-I to toggle case-sensitive search
	window.addEventListener("keydown",function (e) {
		if (e.keyCode === 114 || (e.ctrlKey && e.keyCode === 70)) {
			e.preventDefault();
			search_prompt();
		}
		else if (e.ctrlKey && e.keyCode === 73) {
			e.preventDefault();
			toggle_ignorecase();
		}
	}, false)

	// functions
	function get_params() {
		var params = {};
		var paramsarr = window.location.search.substr(1).split('&');
		for (var i = 0; i < paramsarr.length; ++i) {
			var tmp = paramsarr[i].split("=");
			if (!tmp[0] || !tmp[1]) continue;
			params[tmp[0]]  = decodeURIComponent(tmp[1]);
		}
		return params;
	}
	function parse_params(params) {
		var uri = "?";
		for (var key in params) {
			uri += key + '=' + encodeURIComponent(params[key]) + '&';
		}
		if (uri.slice(-1) == "&")
			uri = uri.substring(0, uri.length - 1);
		if (uri == '?')
			uri = window.location.href.split('?')[0];
		return uri;
	}
	function find_child(node, selector) {
		var children = node.querySelectorAll(selector);
		if (children.length) return children[0];
	}
	function find_group(node) {
		var parent = node.parentElement;
		if (!parent) return;
		if (parent.id == "frames") return node;
		return find_group(parent);
	}
	function orig_save(e, attr, val) {
		if (e.attributes["_orig_" + attr] != undefined) return;
		if (e.attributes[attr] == undefined) return;
		if (val == undefined) val = e.attributes[attr].value;
		e.setAttribute("_orig_" + attr, val);
	}
	function orig_load(e, attr) {
		if (e.attributes["_orig_"+attr] == undefined) return;
		e.attributes[attr].value = e.attributes["_orig_" + attr].value;
		e.removeAttribute("_orig_"+attr);
	}
	function g_to_text(e) {
		var text = find_child(e, "title").firstChild.nodeValue;
		return (text)
	}
	function g_to_func(e) {
		var func = g_to_text(e);
		// if there's any manipulation we want to do to the function
		// name before it's searched, do it here before returning.
		return (func);
	}
	function update_text(e) {
		var r = find_child(e, "rect");
		var t = find_child(e, "text");
		var w = parseFloat(r.attributes.width.value) -3;
		var txt = find_child(e, "title").textContent.replace(/\([^(]*\)$/,"");
		t.attributes.x.value = parseFloat(r.attributes.x.value) + 3;

		// Smaller than this size won't fit anything
		if (w < 2 * 13 * 0.59) {
			t.textContent = "";
			return;
		}

		t.textContent = txt;
		// Fit in full text width
		if (/^ *$/.test(txt) || t.getSubStringLength(0, txt.length) < w)
			return;

		for (var x = txt.length - 2; x > 0; x--) {
			if (t.getSubStringLength(0, x + 2) <= w) {
				t.textContent = txt.substring(0, x) + "..";
				return;
			}
		}
		t.textContent = "";
	}

	// zoom
	function zoom_reset(e) {
		if (e.attributes != undefined) {
			orig_load(e, "x");
			orig_load(e, "width");
		}
		if (e.childNodes == undefined) return;
		for (var i = 0, c = e.childNodes; i < c.length; i++) {
			zoom_reset(c[i]);
		}
	}
	function zoom_child(e, x, ratio) {
		if (e.attributes != undefined) {
			if (e.attributes.x != undefined) {
				orig_save(e, "x");
				e.attributes.x.value = (parseFloat(e.attributes.x.value) - x - 10) * ratio + 10;
				if (e.tagName == "text")
					e.attributes.x.value = find_child(e.parentNode, "rect[x]").attributes.x.value + 3;
			}
			if (e.attributes.width != undefined) {
				orig_save(e, "width");
				e.attributes.width.value = parseFloat(e.attributes.width.value) * ratio;
			}
		}

		if (e.childNodes == undefined) return;
		for (var i = 0, c = e.childNodes; i < c.length; i++) {
			zoom_child(c[i], x - 10, ratio);
		}
	}
	function zoom_parent(e) {
		if (e.attributes) {
			if (e.attributes.x != undefined) {
				orig_save(e, "x");
				e.attributes.x.value = 10;
			}
			if (e.attributes.width != undefined) {
				orig_save(e, "width");
				e.attributes.width.value = parseInt(svg.width.baseVal.value) - (10 * 2);
			}
		}
		if (e.childNodes == undefined) return;
		for (var i = 0, c = e.childNodes; i < c.length; i++) {
			zoom_parent(c[i]);
		}
	}
	function zoom(node) {
		var attr = find_child(node, "rect").attributes;
		var width = parseFloat(attr.width.value);
		var xmin = parseFloat(attr.x.value);
		var xmax = parseFloat(xmin + width);
		var ymin = parseFloat(attr.y.value);
		var ratio = (svg.width.baseVal.value - 2 * 10) / width;

		// XXX: Workaround for JavaScript float issues (fix me)
		var fudge = 0.0001;

		unzoombtn.classList.remove("hide");

		var el = document.getElementById("frames").children;
		for (var i = 0; i < el.length; i++) {
			var e = el[i];
			var a = find_child(e, "rect").attributes;
			var ex = parseFloat(a.x.value);
			var ew = parseFloat(a.width.value);
			var upstack;
			// Is it an ancestor
			if (1 == 0) {
				upstack = parseFloat(a.y.value) > ymin;
			} else {
				upstack = parseFloat(a.y.value) < ymin;
			}
			if (upstack) {
				// Direct ancestor
				if (ex <= xmin && (ex+ew+fudge) >= xmax) {
					e.classList.add("parent");
					zoom_parent(e);
					update_text(e);
				}
				// not in current path
				else
					e.classList.add("hide");
			}
			// Children maybe
			else {
				// no common path
				if (ex < xmin || ex + fudge >= xmax) {
					e.classList.add("hide");
				}
				else {
					zoom_child(e, xmin, ratio);
					update_text(e);
				}
			}
		}
		search();
	}
	function unzoom() {
		unzoombtn.classList.add("hide");
		var el = document.getElementById("frames").children;
		for(var i = 0; i < el.length; i++) {
			el[i].classList.remove("parent");
			el[i].classList.remove("hide");
			zoom_reset(el[i]);
			update_text(el[i]);
		}
		search();
	}
	function clearzoom() {
		unzoom();

		// remove zoom state
		var params = get_params();
		if (params.x) delete params.x;
		if (params.y) delete params.y;
		history.replaceState(null, null, parse_params(params));
	}

	// search
	function toggle_ignorecase() {
		ignorecase = !ignorecase;
		if (ignorecase) {
			ignorecaseBtn.classList.add("show");
		} else {
			ignorecaseBtn.classList.remove("show");
		}
		reset_search();
		search();
	}
	function reset_search() {
		var el = document.querySelectorAll("#frames rect");
		for (var i = 0; i < el.length; i++) {
			orig_load(el[i], "fill")
		}
		var params = get_params();
		delete params.s;
		history.replaceState(null, null, parse_params(params));
	}
	function search_prompt() {
		if (!searching) {
			var term = prompt("Enter a search term (regexp " +
			    "allowed, eg: ^ext4_)"
			    + (ignorecase ? ", ignoring case" : "")
			    + "\nPress Ctrl-i to toggle case sensitivity", "");
			if (term != null) search(term);
		} else {
			reset_search();
			searching = 0;
			currentSearchTerm = null;
			searchbtn.classList.remove("show");
			searchbtn.firstChild.nodeValue = "Search"
			matchedtxt.classList.add("hide");
			matchedtxt.firstChild.nodeValue = ""
		}
	}
	function search(term) {
		if (term) currentSearchTerm = term;

		var re = new RegExp(currentSearchTerm, ignorecase ? 'i' : '');
		var el = document.getElementById("frames").children;
		var matches = new Object();
		var maxwidth = 0;
		for (var i = 0; i < el.length; i++) {
			var e = el[i];
			var func = g_to_func(e);
			var rect = find_child(e, "rect");
			if (func == null || rect == null)
				continue;

			// Save max width. Only works as we have a root frame
			var w = parseFloat(rect.attributes.width.value);
			if (w > maxwidth)
				maxwidth = w;

			if (func.match(re)) {
				// highlight
				var x = parseFloat(rect.attributes.x.value);
				orig_save(rect, "fill");
				rect.attributes.fill.value = "rgb(230,0,230)";

				// remember matches
				if (matches[x] == undefined) {
					matches[x] = w;
				} else {
					if (w > matches[x]) {
						// overwrite with parent
						matches[x] = w;
					}
				}
				searching = 1;
			}
		}
		if (!searching)
			return;
		var params = get_params();
		params.s = currentSearchTerm;
		history.replaceState(null, null, parse_params(params));

		searchbtn.classList.add("show");
		searchbtn.firstChild.nodeValue = "Reset Search";

		// calculate percent matched, excluding vertical overlap
		var count = 0;
		var lastx = -1;
		var lastw = 0;
		var keys = Array();
		for (k in matches) {
			if (matches.hasOwnProperty(k))
				keys.push(k);
		}
		// sort the matched frames by their x location
		// ascending, then width descending
		keys.sort(function(a, b){
			return a - b;
		});
		// Step through frames saving only the biggest bottom-up frames
		// thanks to the sort order. This relies on the tree property
		// where children are always smaller than their parents.
		var fudge = 0.0001;	// JavaScript floating point
		for (var k in keys) {
			var x = parseFloat(keys[k]);
			var w = matches[keys[k]];
			if (x >= lastx + lastw - fudge) {
				count += w;
				lastx = x;
				lastw = w;
			}
		}
		// display matched percent
		matchedtxt.classList.remove("hide");
		var pct = 100 * count / maxwidth;
		if (pct != 100) pct = pct.toFixed(1)
		matchedtxt.firstChild.nodeValue = "Matched: " + pct + "%";
	}
]]>
</script>
<rect x="0.0" y="0" width="1200.0" height="347.0" fill="url(#background)"  />
<text id="title" x="600.00" y="26" >Firedrake example</text>
<text id="details" x="10.00" y="329" > </text>
<text id="unzoom" x="10.00" y="26" class="hide">Reset Zoom</text>
<text id="search" x="1090.00" y="26" >Search</text>
<text id="ignorecase" x="1174.00" y="26" >ic</text>
<text id="matched" x="1090.00" y="329" > </text>
<g id="frames">
<g >
<title>firedrake.tsfc_interface.compile_form (34,226 us, 0.27%)</title><rect x="282.0" y="151" width="3.2" height="15.0" fill="rgb(0,0,0)" rx="2" ry="2" />
<text  x="284.97" y="161.5" ></text>
</g>
<g >
<title>firedrake.formmanipulation.split_form (7,932 us, 0.06%)</title><rect x="1182.6" y="135" width="0.8" height="15.0" fill="rgb(0,0,0)" rx="2" ry="2" />
<text  x="1185.63" y="145.5" ></text>
</g>
<g >
<title>firedrake.interpolation.make_interpolator (47,886 us, 0.38%)</title><rect x="1172.4" y="167" width="4.5" height="15.0" fill="rgb(0,0,0)" rx="2" ry="2" />
<text  x="1175.44" y="177.5" ></text>
</g>
<g >
<title>Log_Event_subkernel149_cell_to__cell_integral_otherwise (14,363 us, 0.11%)</title><rect x="966.4" y="263" width="1.4" height="15.0" fill="rgb(0,0,0)" rx="2" ry="2" />
<text  x="969.45" y="273.5" ></text>
</g>
<g >
<title>ParLoopExecute (37,292 us, 0.30%)</title><rect x="285.2" y="183" width="3.5" height="15.0" fill="rgb(0,0,0)" rx="2" ry="2" />
<text  x="288.19" y="193.5" ></text>
</g>
<g >
<title>ParLoopExecute (182,730 us, 1.46%)</title><rect x="410.5" y="167" width="17.2" height="15.0" fill="rgb(0,0,0)" rx="2" ry="2" />
<text  x="413.55" y="177.5" ></text>
</g>
<g >
<title>ParLoopExecute (6,468,223 us, 51.54%)</title><rect x="430.3" y="199" width="608.1" height="15.0" fill="rgb(0,0,0)" rx="2" ry="2" />
<text  x="433.27" y="209.5" >ParLoopExecute</text>
</g>
<g >
<title>Log_Event_subkernel136_cell_to__cell_integral_otherwise (546,546 us, 4.35%)</title><rect x="524.9" y="295" width="51.3" height="15.0" fill="rgb(0,0,0)" rx="2" ry="2" />
<text  x="527.86" y="305.5" >Log_..</text>
</g>
<g >
<title>Log_Event_subkernel129_cell_to__cell_integral_otherwise (23,829 us, 0.19%)</title><rect x="505.0" y="279" width="2.3" height="15.0" fill="rgb(0,0,0)" rx="2" ry="2" />
<text  x="508.02" y="289.5" ></text>
</g>
<g >
<title>Log_Event_subkernel91_cell_to__cell_integral_otherwise (22,247 us, 0.18%)</title><rect x="975.0" y="263" width="2.1" height="15.0" fill="rgb(0,0,0)" rx="2" ry="2" />
<text  x="978.00" y="273.5" ></text>
</g>
<g >
<title>KSPSolve (9,603,356 us, 76.51%)</title><rect x="275.9" y="103" width="902.8" height="15.0" fill="rgb(0,0,0)" rx="2" ry="2" />
<text  x="278.87" y="113.5" >KSPSolve</text>
</g>
<g >
<title>Log_Event_subkernel104_cell_to__cell_integral_otherwise (54,464 us, 0.43%)</title><rect x="1003.4" y="247" width="5.1" height="15.0" fill="rgb(0,0,0)" rx="2" ry="2" />
<text  x="1006.42" y="257.5" ></text>
</g>
<g >
<title>CreateFunctionSpace (23,506 us, 0.19%)</title><rect x="126.2" y="71" width="2.2" height="15.0" fill="rgb(0,0,0)" rx="2" ry="2" />
<text  x="129.16" y="81.5" ></text>
</g>
<g >
<title>firedrake.parloops.par_loop (32,796 us, 0.26%)</title><rect x="1186.9" y="135" width="3.1" height="15.0" fill="rgb(0,0,0)" rx="2" ry="2" />
<text  x="1189.92" y="145.5" ></text>
</g>
<g >
<title>Parloop_Cells_wrap_expression_kernel (35,612 us, 0.28%)</title><rect x="1165.8" y="183" width="3.4" height="15.0" fill="rgb(0,0,0)" rx="2" ry="2" />
<text  x="1168.81" y="193.5" ></text>
</g>
<g >
<title>Log_Event_mtf_solve_113 (107,029 us, 0.85%)</title><rect x="472.5" y="247" width="10.1" height="15.0" fill="rgb(0,0,0)" rx="2" ry="2" />
<text  x="475.53" y="257.5" ></text>
</g>
<g >
<title>Log_Event_subkernel17_cell_to__cell_integral_otherwise (13,218 us, 0.11%)</title><rect x="413.1" y="263" width="1.2" height="15.0" fill="rgb(0,0,0)" rx="2" ry="2" />
<text  x="416.06" y="273.5" ></text>
</g>
<g >
<title>CreateFunctionSpace (7,932 us, 0.06%)</title><rect x="1182.6" y="183" width="0.8" height="15.0" fill="rgb(0,0,0)" rx="2" ry="2" />
<text  x="1185.63" y="193.5" ></text>
</g>
<g >
<title>Log_Event_tensorshell_knl_140 (118,418 us, 0.94%)</title><rect x="757.7" y="295" width="11.1" height="15.0" fill="rgb(0,0,0)" rx="2" ry="2" />
<text  x="760.71" y="305.5" ></text>
</g>
<g >
<title>pyop2.global_kernel.GlobalKernel.compile (34,876 us, 0.28%)</title><rect x="1169.2" y="199" width="3.2" height="15.0" fill="rgb(0,0,0)" rx="2" ry="2" />
<text  x="1172.16" y="209.5" ></text>
</g>
<g >
<title>ParLoopExecute (32,796 us, 0.26%)</title><rect x="1186.9" y="151" width="3.1" height="15.0" fill="rgb(0,0,0)" rx="2" ry="2" />
<text  x="1189.92" y="161.5" ></text>
</g>
<g >
<title>firedrake.functionspacedata.get_shared_data (8,920 us, 0.07%)</title><rect x="1181.8" y="167" width="0.8" height="15.0" fill="rgb(0,0,0)" rx="2" ry="2" />
<text  x="1184.80" y="177.5" ></text>
</g>
<g >
<title>firedrake.matrix_free.operators.ImplicitMatrixContext.__init__ (7,810 us, 0.06%)</title><rect x="275.1" y="103" width="0.8" height="15.0" fill="rgb(0,0,0)" rx="2" ry="2" />
<text  x="278.13" y="113.5" ></text>
</g>
<g >
<title>firedrake.functionspaceimpl.FunctionSpace.__init__ (8,920 us, 0.07%)</title><rect x="1181.8" y="151" width="0.8" height="15.0" fill="rgb(0,0,0)" rx="2" ry="2" />
<text  x="1184.80" y="161.5" ></text>
</g>
<g >
<title>Log_Event_subkernel139_cell_to__cell_integral_otherwise (1,504,072 us, 11.98%)</title><rect x="612.5" y="295" width="141.4" height="15.0" fill="rgb(0,0,0)" rx="2" ry="2" />
<text  x="615.46" y="305.5" >Log_Event_subker..</text>
</g>
<g >
<title>Log_Event_slate_loopy_knl_77 (6,397,837 us, 50.97%)</title><rect x="436.9" y="231" width="601.5" height="15.0" fill="rgb(0,0,0)" rx="2" ry="2" />
<text  x="439.89" y="241.5" >Log_Event_slate_loopy_knl_77</text>
</g>
<g >
<title>firedrake.formmanipulation.ExtractSubBlock.argument (7,932 us, 0.06%)</title><rect x="1182.6" y="167" width="0.8" height="15.0" fill="rgb(0,0,0)" rx="2" ry="2" />
<text  x="1185.63" y="177.5" ></text>
</g>
<g >
<title>Parloop_Cells_wrap_form00_cell_integral_otherwise (34,876 us, 0.28%)</title><rect x="1169.2" y="183" width="3.2" height="15.0" fill="rgb(0,0,0)" rx="2" ry="2" />
<text  x="1172.16" y="193.5" ></text>
</g>
<g >
<title>pyop2.global_kernel.GlobalKernel.compile (31,610 us, 0.25%)</title><rect x="279.0" y="183" width="3.0" height="15.0" fill="rgb(0,0,0)" rx="2" ry="2" />
<text  x="282.00" y="193.5" ></text>
</g>
<g >
<title>Log_Event_mtf_solve_120 (5,113,679 us, 40.74%)</title><rect x="482.6" y="247" width="480.8" height="15.0" fill="rgb(0,0,0)" rx="2" ry="2" />
<text  x="485.59" y="257.5" >Log_Event_mtf_solve_120</text>
</g>
<g >
<title>pyop2.global_kernel.GlobalKernel.compile (32,796 us, 0.26%)</title><rect x="1186.9" y="183" width="3.1" height="15.0" fill="rgb(0,0,0)" rx="2" ry="2" />
<text  x="1189.92" y="193.5" ></text>
</g>
<g >
<title>Parloop_Cells_wrap_par_loop_kernel (32,796 us, 0.26%)</title><rect x="1186.9" y="167" width="3.1" height="15.0" fill="rgb(0,0,0)" rx="2" ry="2" />
<text  x="1189.92" y="177.5" ></text>
</g>
<g >
<title>firedrake.variational_solver.LinearVariationalProblem.__init__ (11,897 us, 0.09%)</title><rect x="274.0" y="71" width="1.1" height="15.0" fill="rgb(0,0,0)" rx="2" ry="2" />
<text  x="277.02" y="81.5" ></text>
</g>
<g >
<title>Log_Event_subkernel152_interior_facet_vert_to__exterior_facet_vert_integral_otherwise (49,706 us, 0.40%)</title><rect x="1029.1" y="247" width="4.6" height="15.0" fill="rgb(0,0,0)" rx="2" ry="2" />
<text  x="1032.06" y="257.5" ></text>
</g>
<g >
<title>PCSetUp (119,822 us, 0.95%)</title><rect x="1178.7" y="103" width="11.3" height="15.0" fill="rgb(0,0,0)" rx="2" ry="2" />
<text  x="1181.73" y="113.5" ></text>
</g>
<g >
<title>Log_Event_subkernel112_interior_facet_vert_to__exterior_facet_vert_integral_otherwise (89,991 us, 0.72%)</title><rect x="1013.3" y="247" width="8.4" height="15.0" fill="rgb(0,0,0)" rx="2" ry="2" />
<text  x="1016.28" y="257.5" ></text>
</g>
<g >
<title>Log_Event_mtf_solve_123 (99,754 us, 0.79%)</title><rect x="490.6" y="279" width="9.3" height="15.0" fill="rgb(0,0,0)" rx="2" ry="2" />
<text  x="493.57" y="289.5" ></text>
</g>
<g >
<title>Log_Event_subkernel145_cell_to__cell_integral_otherwise (54,128 us, 0.43%)</title><rect x="1024.0" y="247" width="5.1" height="15.0" fill="rgb(0,0,0)" rx="2" ry="2" />
<text  x="1026.97" y="257.5" ></text>
</g>
<g >
<title>Log_Event_tensorshell_knl_121 (177,589 us, 1.41%)</title><rect x="490.6" y="263" width="16.7" height="15.0" fill="rgb(0,0,0)" rx="2" ry="2" />
<text  x="493.57" y="273.5" ></text>
</g>
<g >
<title>firedrake.matrix_free.operators.ImplicitMatrixContext.mult (1,329,146 us, 10.59%)</title><rect x="1038.4" y="247" width="124.9" height="15.0" fill="rgb(0,0,0)" rx="2" ry="2" />
<text  x="1041.39" y="257.5" >firedrake.matr..</text>
</g>
<g >
<title>ParLoopExecute (36,458 us, 0.29%)</title><rect x="122.0" y="103" width="3.4" height="15.0" fill="rgb(0,0,0)" rx="2" ry="2" />
<text  x="125.00" y="113.5" ></text>
</g>
<g >
<title>firedrake.matrix_free.operators.ImplicitMatrixContext.mult (6,495,278 us, 51.75%)</title><rect x="427.7" y="183" width="610.7" height="15.0" fill="rgb(0,0,0)" rx="2" ry="2" />
<text  x="430.73" y="193.5" >firedrake.matrix_free.operators.ImplicitMatrixContext.mult</text>
</g>
<g >
<title>pyop2.global_kernel.GlobalKernel.compile (39,249 us, 0.31%)</title><rect x="424.0" y="199" width="3.7" height="15.0" fill="rgb(0,0,0)" rx="2" ry="2" />
<text  x="427.04" y="209.5" ></text>
</g>
<g >
<title>Parloop_Cells_wrap_form1_cell_integral_otherwise (31,610 us, 0.25%)</title><rect x="279.0" y="167" width="3.0" height="15.0" fill="rgb(0,0,0)" rx="2" ry="2" />
<text  x="282.00" y="177.5" ></text>
</g>
<g >
<title>ParLoopExecute (70,488 us, 0.56%)</title><rect x="1165.8" y="167" width="6.6" height="15.0" fill="rgb(0,0,0)" rx="2" ry="2" />
<text  x="1168.81" y="177.5" ></text>
</g>
<g >
<title>firedrake.matrix_free.operators.ImplicitMatrixContext.mult (99,157 us, 0.79%)</title><rect x="275.9" y="135" width="9.3" height="15.0" fill="rgb(0,0,0)" rx="2" ry="2" />
<text  x="278.87" y="145.5" ></text>
</g>
<g >
<title>firedrake.functionspacedata.FunctionSpaceData.__init__ (23,506 us, 0.19%)</title><rect x="126.2" y="119" width="2.2" height="15.0" fill="rgb(0,0,0)" rx="2" ry="2" />
<text  x="129.16" y="129.5" ></text>
</g>
<g >
<title>firedrake.functionspace.VectorFunctionSpace (7,769 us, 0.06%)</title><rect x="125.4" y="87" width="0.8" height="15.0" fill="rgb(0,0,0)" rx="2" ry="2" />
<text  x="128.43" y="97.5" ></text>
</g>
<g >
<title>Parloop_Cells_wrap_slate_loopy_knl_0 (182,730 us, 1.46%)</title><rect x="410.5" y="183" width="17.2" height="15.0" fill="rgb(0,0,0)" rx="2" ry="2" />
<text  x="413.55" y="193.5" ></text>
</g>
<g >
<title>Log_Event_subkernel138_cell_to__cell_integral_otherwise (385,230 us, 3.07%)</title><rect x="576.2" y="295" width="36.3" height="15.0" fill="rgb(0,0,0)" rx="2" ry="2" />
<text  x="579.24" y="305.5" >Lo..</text>
</g>
<g >
<title>Log_Event_subkernel109_cell_to__cell_integral_otherwise (20,479 us, 0.16%)</title><rect x="470.6" y="263" width="1.9" height="15.0" fill="rgb(0,0,0)" rx="2" ry="2" />
<text  x="473.60" y="273.5" ></text>
</g>
<g >
<title>Log_Event_subkernel117_cell_to__cell_integral_otherwise (59,133 us, 0.47%)</title><rect x="477.0" y="263" width="5.6" height="15.0" fill="rgb(0,0,0)" rx="2" ry="2" />
<text  x="480.03" y="273.5" ></text>
</g>
<g >
<title>HybridRHS (1,478,800 us, 11.78%)</title><rect x="288.7" y="151" width="139.0" height="15.0" fill="rgb(0,0,0)" rx="2" ry="2" />
<text  x="291.70" y="161.5" >HybridRHS</text>
</g>
<g >
<title>MatMult (99,157 us, 0.79%)</title><rect x="275.9" y="119" width="9.3" height="15.0" fill="rgb(0,0,0)" rx="2" ry="2" />
<text  x="278.87" y="129.5" ></text>
</g>
<g >
<title>Log_Event_mtf_solve_105 (55,478 us, 0.44%)</title><rect x="467.3" y="247" width="5.2" height="15.0" fill="rgb(0,0,0)" rx="2" ry="2" />
<text  x="470.31" y="257.5" ></text>
</g>
<g >
<title>PCSetUp (147,390 us, 1.17%)</title><rect x="1164.9" y="151" width="13.8" height="15.0" fill="rgb(0,0,0)" rx="2" ry="2" />
<text  x="1167.88" y="161.5" ></text>
</g>
<g >
<title>Log_Event_subkernel81_cell_to__cell_integral_otherwise (54,161 us, 0.43%)</title><rect x="983.7" y="279" width="5.0" height="15.0" fill="rgb(0,0,0)" rx="2" ry="2" />
<text  x="986.65" y="289.5" ></text>
</g>
<g >
<title>firedrake.variational_solver.NonlinearVariationalSolver.__init__ (7,810 us, 0.06%)</title><rect x="275.1" y="71" width="0.8" height="15.0" fill="rgb(0,0,0)" rx="2" ry="2" />
<text  x="278.13" y="81.5" ></text>
</g>
<g >
<title>Log_Event_mtf_solve_16 (66,794 us, 0.53%)</title><rect x="412.3" y="247" width="6.3" height="15.0" fill="rgb(0,0,0)" rx="2" ry="2" />
<text  x="415.34" y="257.5" ></text>
</g>
<g >
<title>HybridInit (119,822 us, 0.95%)</title><rect x="1178.7" y="119" width="11.3" height="15.0" fill="rgb(0,0,0)" rx="2" ry="2" />
<text  x="1181.73" y="129.5" ></text>
</g>
<g >
<title>Log_Event_slate_loopy_knl_0 (143,481 us, 1.14%)</title><rect x="410.5" y="199" width="13.5" height="15.0" fill="rgb(0,0,0)" rx="2" ry="2" />
<text  x="413.55" y="209.5" ></text>
</g>
<g >
<title>Log_Event_subkernel100_cell_to__cell_integral_otherwise (23,720 us, 0.19%)</title><rect x="996.1" y="279" width="2.2" height="15.0" fill="rgb(0,0,0)" rx="2" ry="2" />
<text  x="999.11" y="289.5" ></text>
</g>
<g >
<title>firedrake.formmanipulation.ExtractSubBlock.split (7,932 us, 0.06%)</title><rect x="1182.6" y="151" width="0.8" height="15.0" fill="rgb(0,0,0)" rx="2" ry="2" />
<text  x="1185.63" y="161.5" ></text>
</g>
<g >
<title>CreateFunctionSpace (8,920 us, 0.07%)</title><rect x="1181.8" y="135" width="0.8" height="15.0" fill="rgb(0,0,0)" rx="2" ry="2" />
<text  x="1184.80" y="145.5" ></text>
</g>
<g >
<title>firedrake.ufl_expr.adjoint (11,897 us, 0.09%)</title><rect x="274.0" y="103" width="1.1" height="15.0" fill="rgb(0,0,0)" rx="2" ry="2" />
<text  x="277.02" y="113.5" ></text>
</g>
<g >
<title>KSPSolve (7,840,717 us, 62.47%)</title><rect x="427.7" y="151" width="737.2" height="15.0" fill="rgb(0,0,0)" rx="2" ry="2" />
<text  x="430.73" y="161.5" >KSPSolve</text>
</g>
<g >
<title>KSPSolve (1,329,146 us, 10.59%)</title><rect x="1038.4" y="215" width="124.9" height="15.0" fill="rgb(0,0,0)" rx="2" ry="2" />
<text  x="1041.39" y="225.5" >KSPSolve</text>
</g>
<g >
<title>Log_Event_tensorshell_knl_80 (132,451 us, 1.06%)</title><rect x="978.5" y="263" width="12.5" height="15.0" fill="rgb(0,0,0)" rx="2" ry="2" />
<text  x="981.51" y="273.5" ></text>
</g>
<g >
<title>Log_Event_subkernel88_cell_to__cell_integral_otherwise (23,575 us, 0.19%)</title><rect x="988.7" y="279" width="2.3" height="15.0" fill="rgb(0,0,0)" rx="2" ry="2" />
<text  x="991.75" y="289.5" ></text>
</g>
<g >
<title>PCApply (9,504,199 us, 75.72%)</title><rect x="285.2" y="119" width="893.5" height="15.0" fill="rgb(0,0,0)" rx="2" ry="2" />
<text  x="288.19" y="129.5" >PCApply</text>
</g>
<g >
<title>Log_Event_mtf_solve_1 (116,261 us, 0.93%)</title><rect x="412.3" y="215" width="11.0" height="15.0" fill="rgb(0,0,0)" rx="2" ry="2" />
<text  x="415.34" y="225.5" ></text>
</g>
<g >
<title>Parloop_Cells_wrap_pyop2_kernel_uniform_extrusion (36,458 us, 0.29%)</title><rect x="122.0" y="119" width="3.4" height="15.0" fill="rgb(0,0,0)" rx="2" ry="2" />
<text  x="125.00" y="129.5" ></text>
</g>
<g >
<title>Log_Event_subkernel153_interior_facet_vert_to__exterior_facet_vert_integral_otherwise (49,463 us, 0.39%)</title><rect x="1033.7" y="247" width="4.7" height="15.0" fill="rgb(0,0,0)" rx="2" ry="2" />
<text  x="1036.74" y="257.5" ></text>
</g>
<g >
<title>Log_Event_subkernel111_interior_facet_vert_to__exterior_facet_vert_integral_otherwise (50,457 us, 0.40%)</title><rect x="1008.5" y="247" width="4.8" height="15.0" fill="rgb(0,0,0)" rx="2" ry="2" />
<text  x="1011.54" y="257.5" ></text>
</g>
<g >
<title>Log_Event_mtf_solve_41 (8,170 us, 0.07%)</title><rect x="423.3" y="215" width="0.7" height="15.0" fill="rgb(0,0,0)" rx="2" ry="2" />
<text  x="426.27" y="225.5" ></text>
</g>
<g >
<title>ParLoopExecute (64,931 us, 0.52%)</title><rect x="275.9" y="151" width="6.1" height="15.0" fill="rgb(0,0,0)" rx="2" ry="2" />
<text  x="278.87" y="161.5" ></text>
</g>
<g >
<title>firedrake.assemble.allocate_matrix (7,810 us, 0.06%)</title><rect x="275.1" y="87" width="0.8" height="15.0" fill="rgb(0,0,0)" rx="2" ry="2" />
<text  x="278.13" y="97.5" ></text>
</g>
<g >
<title>Log_Event_subkernel95_cell_to__cell_integral_otherwise (20,464 us, 0.16%)</title><rect x="991.0" y="295" width="1.9" height="15.0" fill="rgb(0,0,0)" rx="2" ry="2" />
<text  x="993.96" y="305.5" ></text>
</g>
<g >
<title>Log_Event_tensorshell_knl_137 (40,953 us, 0.33%)</title><rect x="753.9" y="295" width="3.8" height="15.0" fill="rgb(0,0,0)" rx="2" ry="2" />
<text  x="756.86" y="305.5" ></text>
</g>
<g >
<title>Log_Event_subkernel147_cell_to__cell_integral_otherwise (20,661 us, 0.16%)</title><rect x="964.5" y="263" width="1.9" height="15.0" fill="rgb(0,0,0)" rx="2" ry="2" />
<text  x="967.50" y="273.5" ></text>
</g>
<g >
<title>Log_Event_subkernel119_cell_to__cell_integral_otherwise (23,748 us, 0.19%)</title><rect x="1021.7" y="247" width="2.3" height="15.0" fill="rgb(0,0,0)" rx="2" ry="2" />
<text  x="1024.74" y="257.5" ></text>
</g>
<g >
<title>Log_Event_subkernel116_cell_to__cell_integral_otherwise (14,515 us, 0.12%)</title><rect x="475.7" y="263" width="1.3" height="15.0" fill="rgb(0,0,0)" rx="2" ry="2" />
<text  x="478.67" y="273.5" ></text>
</g>
<g >
<title>firedrake (12,551,095 us, 100.00%)</title><rect x="10.0" y="55" width="1180.0" height="15.0" fill="rgb(0,0,0)" rx="2" ry="2" />
<text  x="13.00" y="65.5" >firedrake</text>
</g>
<g >
<title>pyop2.global_kernel.GlobalKernel.compile (36,458 us, 0.29%)</title><rect x="122.0" y="135" width="3.4" height="15.0" fill="rgb(0,0,0)" rx="2" ry="2" />
<text  x="125.00" y="145.5" ></text>
</g>
<g >
<title>Log_Event_mtf_solve_146 (104,280 us, 0.83%)</title><rect x="963.4" y="247" width="9.8" height="15.0" fill="rgb(0,0,0)" rx="2" ry="2" />
<text  x="966.36" y="257.5" ></text>
</g>
<g >
<title>Log_Event_subkernel91_interior_facet_vert_to__exterior_facet_vert_integral_otherwise (15,115 us, 0.12%)</title><rect x="977.1" y="263" width="1.4" height="15.0" fill="rgb(0,0,0)" rx="2" ry="2" />
<text  x="980.09" y="273.5" ></text>
</g>
<g >
<title>Log_Event_mtf_solve_94 (54,789 us, 0.44%)</title><rect x="991.0" y="279" width="5.1" height="15.0" fill="rgb(0,0,0)" rx="2" ry="2" />
<text  x="993.96" y="289.5" ></text>
</g>
<g >
<title>Log_Event_subkernel98_cell_to__cell_integral_otherwise (19,617 us, 0.16%)</title><rect x="994.3" y="295" width="1.8" height="15.0" fill="rgb(0,0,0)" rx="2" ry="2" />
<text  x="997.27" y="305.5" ></text>
</g>
<g >
<title>Log_Event_subkernel93_cell_to__cell_integral_otherwise (53,960 us, 0.43%)</title><rect x="998.3" y="279" width="5.1" height="15.0" fill="rgb(0,0,0)" rx="2" ry="2" />
<text  x="1001.34" y="289.5" ></text>
</g>
<g >
<title>all (12,551,095 us, 100%)</title><rect x="10.0" y="39" width="1180.0" height="15.0" fill="rgb(0,0,0)" rx="2" ry="2" />
<text  x="13.00" y="49.5" ></text>
</g>
<g >
<title>Log_Event_subkernel19_cell_to__cell_integral_otherwise (9,274 us, 0.07%)</title><rect x="414.3" y="263" width="0.9" height="15.0" fill="rgb(0,0,0)" rx="2" ry="2" />
<text  x="417.31" y="273.5" ></text>
</g>
<g >
<title>Log_Event_subkernel83_cell_to__cell_integral_otherwise (20,433 us, 0.16%)</title><rect x="978.5" y="295" width="1.9" height="15.0" fill="rgb(0,0,0)" rx="2" ry="2" />
<text  x="981.51" y="305.5" ></text>
</g>
<g >
<title>Log_Event_mtf_solve_135 (2,748,480 us, 21.90%)</title><rect x="510.4" y="279" width="258.4" height="15.0" fill="rgb(0,0,0)" rx="2" ry="2" />
<text  x="513.45" y="289.5" >Log_Event_mtf_solve_135</text>
</g>
<g >
<title>firedrake.functionspacedata.get_shared_data (23,506 us, 0.19%)</title><rect x="126.2" y="103" width="2.2" height="15.0" fill="rgb(0,0,0)" rx="2" ry="2" />
<text  x="129.16" y="113.5" ></text>
</g>
<g >
<title>Parloop_Cells_wrap_par_loop_kernel (37,292 us, 0.30%)</title><rect x="285.2" y="199" width="3.5" height="15.0" fill="rgb(0,0,0)" rx="2" ry="2" />
<text  x="288.19" y="209.5" ></text>
</g>
<g >
<title>Log_Event_subkernel124_cell_to__cell_integral_otherwise (20,576 us, 0.16%)</title><rect x="491.7" y="295" width="1.9" height="15.0" fill="rgb(0,0,0)" rx="2" ry="2" />
<text  x="494.67" y="305.5" ></text>
</g>
<g >
<title>pyop2.global_kernel.GlobalKernel.compile (33,321 us, 0.27%)</title><rect x="275.9" y="183" width="3.1" height="15.0" fill="rgb(0,0,0)" rx="2" ry="2" />
<text  x="278.87" y="193.5" ></text>
</g>
<g >
<title>Log_Event_subkernel132_interior_facet_vert_to__exterior_facet_vert_integral_otherwise (15,316 us, 0.12%)</title><rect x="489.1" y="263" width="1.5" height="15.0" fill="rgb(0,0,0)" rx="2" ry="2" />
<text  x="492.13" y="273.5" ></text>
</g>
<g >
<title>Log_Event_tensorshell_knl_14 (116,261 us, 0.93%)</title><rect x="412.3" y="231" width="11.0" height="15.0" fill="rgb(0,0,0)" rx="2" ry="2" />
<text  x="415.34" y="241.5" ></text>
</g>
<g >
<title>MatMult (6,495,278 us, 51.75%)</title><rect x="427.7" y="167" width="610.7" height="15.0" fill="rgb(0,0,0)" rx="2" ry="2" />
<text  x="430.73" y="177.5" >MatMult</text>
</g>
<g >
<title>Log_Event_mtf_solve_82 (54,715 us, 0.44%)</title><rect x="978.5" y="279" width="5.2" height="15.0" fill="rgb(0,0,0)" rx="2" ry="2" />
<text  x="981.51" y="289.5" ></text>
</g>
<g >
<title>firedrake.functionspacedata.FunctionSpaceData.__init__ (8,920 us, 0.07%)</title><rect x="1181.8" y="183" width="0.8" height="15.0" fill="rgb(0,0,0)" rx="2" ry="2" />
<text  x="1184.80" y="193.5" ></text>
</g>
<g >
<title>PCApply (1,345,439 us, 10.72%)</title><rect x="1038.4" y="167" width="126.5" height="15.0" fill="rgb(0,0,0)" rx="2" ry="2" />
<text  x="1041.39" y="177.5" >PCApply</text>
</g>
<g >
<title>firedrake.variational_solver.NonlinearVariationalSolver.solve (9,723,178 us, 77.47%)</title><rect x="275.9" y="71" width="914.1" height="15.0" fill="rgb(0,0,0)" rx="2" ry="2" />
<text  x="278.87" y="81.5" >firedrake.variational_solver.NonlinearVariationalSolver.solve</text>
</g>
<g >
<title>Log_Event_subkernel141_cell_to__cell_integral_otherwise (615,594 us, 4.90%)</title><rect x="905.5" y="279" width="57.9" height="15.0" fill="rgb(0,0,0)" rx="2" ry="2" />
<text  x="908.48" y="289.5" >Log_E..</text>
</g>
<g >
<title>firedrake.variational_solver.NonlinearVariationalProblem.__init__ (11,897 us, 0.09%)</title><rect x="274.0" y="87" width="1.1" height="15.0" fill="rgb(0,0,0)" rx="2" ry="2" />
<text  x="277.02" y="97.5" ></text>
</g>
<g >
<title>PCSetUp (1,345,439 us, 10.72%)</title><rect x="1038.4" y="183" width="126.5" height="15.0" fill="rgb(0,0,0)" rx="2" ry="2" />
<text  x="1041.39" y="193.5" >PCSetUp</text>
</g>
<g >
<title>firedrake.tsfc_interface.compile_form (16,293 us, 0.13%)</title><rect x="1163.3" y="215" width="1.6" height="15.0" fill="rgb(0,0,0)" rx="2" ry="2" />
<text  x="1166.35" y="225.5" ></text>
</g>
<g >
<title>Log_Event_subkernel106_cell_to__cell_integral_otherwise (20,435 us, 0.16%)</title><rect x="467.3" y="263" width="1.9" height="15.0" fill="rgb(0,0,0)" rx="2" ry="2" />
<text  x="470.31" y="273.5" ></text>
</g>
<g >
<title>FunctionSpaceData: CreateElement (10,964 us, 0.09%)</title><rect x="127.3" y="135" width="1.1" height="15.0" fill="rgb(0,0,0)" rx="2" ry="2" />
<text  x="130.34" y="145.5" ></text>
</g>
<g >
<title>pyop2.global_kernel.GlobalKernel.compile (35,612 us, 0.28%)</title><rect x="1165.8" y="199" width="3.4" height="15.0" fill="rgb(0,0,0)" rx="2" ry="2" />
<text  x="1168.81" y="209.5" ></text>
</g>
<g >
<title>Log_Event_subkernel126_cell_to__cell_integral_otherwise (14,668 us, 0.12%)</title><rect x="493.6" y="295" width="1.4" height="15.0" fill="rgb(0,0,0)" rx="2" ry="2" />
<text  x="496.60" y="305.5" ></text>
</g>
<g >
<title>firedrake.extrusion_utils.make_extruded_coords (66,838 us, 0.53%)</title><rect x="119.1" y="87" width="6.3" height="15.0" fill="rgb(0,0,0)" rx="2" ry="2" />
<text  x="122.14" y="97.5" ></text>
</g>
<g >
<title>PCSetUp (16,293 us, 0.13%)</title><rect x="1163.3" y="199" width="1.6" height="15.0" fill="rgb(0,0,0)" rx="2" ry="2" />
<text  x="1166.35" y="209.5" ></text>
</g>
<g >
<title>HybridBreak (37,292 us, 0.30%)</title><rect x="285.2" y="151" width="3.5" height="15.0" fill="rgb(0,0,0)" rx="2" ry="2" />
<text  x="288.19" y="161.5" ></text>
</g>
<g >
<title>Log_Event_subkernel86_cell_to__cell_integral_otherwise (19,571 us, 0.16%)</title><rect x="981.8" y="295" width="1.9" height="15.0" fill="rgb(0,0,0)" rx="2" ry="2" />
<text  x="984.81" y="305.5" ></text>
</g>
<g >
<title>Log_Event_subkernel22_cell_to__cell_integral_otherwise (14,677 us, 0.12%)</title><rect x="421.9" y="247" width="1.4" height="15.0" fill="rgb(0,0,0)" rx="2" ry="2" />
<text  x="424.89" y="257.5" ></text>
</g>
<g >
<title>Log_Event_subkernel134_cell_to__cell_integral_otherwise (1,453,310 us, 11.58%)</title><rect x="768.8" y="279" width="136.7" height="15.0" fill="rgb(0,0,0)" rx="2" ry="2" />
<text  x="771.85" y="289.5" >Log_Event_subke..</text>
</g>
<g >
<title>FunctionSpaceData: CreateElement (8,920 us, 0.07%)</title><rect x="1181.8" y="199" width="0.8" height="15.0" fill="rgb(0,0,0)" rx="2" ry="2" />
<text  x="1184.80" y="209.5" ></text>
</g>
<g >
<title>firedrake.__init__ (1,549,205 us, 12.34%)</title><rect x="128.4" y="71" width="145.6" height="15.0" fill="rgb(0,0,0)" rx="2" ry="2" />
<text  x="131.37" y="81.5" >firedrake.__init__</text>
</g>
<g >
<title>Log_Event_subkernel122_cell_to__cell_integral_otherwise (54,006 us, 0.43%)</title><rect x="499.9" y="279" width="5.1" height="15.0" fill="rgb(0,0,0)" rx="2" ry="2" />
<text  x="502.95" y="289.5" ></text>
</g>
<g >
<title>firedrake.parloops.par_loop (37,292 us, 0.30%)</title><rect x="285.2" y="167" width="3.5" height="15.0" fill="rgb(0,0,0)" rx="2" ry="2" />
<text  x="288.19" y="177.5" ></text>
</g>
<g >
<title>Log_Event_subkernel15_cell_to__cell_integral_otherwise (34,790 us, 0.28%)</title><rect x="418.6" y="247" width="3.3" height="15.0" fill="rgb(0,0,0)" rx="2" ry="2" />
<text  x="421.62" y="257.5" ></text>
</g>
<g >
<title>Log_Event_subkernel114_cell_to__cell_integral_otherwise (20,565 us, 0.16%)</title><rect x="473.7" y="263" width="2.0" height="15.0" fill="rgb(0,0,0)" rx="2" ry="2" />
<text  x="476.73" y="273.5" ></text>
</g>
<g >
<title>Log_Event_subkernel108_cell_to__cell_integral_otherwise (14,564 us, 0.12%)</title><rect x="469.2" y="263" width="1.4" height="15.0" fill="rgb(0,0,0)" rx="2" ry="2" />
<text  x="472.23" y="273.5" ></text>
</g>
<g >
<title>Parloop_Cells_wrap_form0_cell_integral_otherwise (33,321 us, 0.27%)</title><rect x="275.9" y="167" width="3.1" height="15.0" fill="rgb(0,0,0)" rx="2" ry="2" />
<text  x="278.87" y="177.5" ></text>
</g>
<g >
<title>Log_Event_tensorshell_knl_92 (132,469 us, 1.06%)</title><rect x="991.0" y="263" width="12.4" height="15.0" fill="rgb(0,0,0)" rx="2" ry="2" />
<text  x="993.96" y="273.5" ></text>
</g>
<g >
<title>KSPSetUp (1,329,146 us, 10.59%)</title><rect x="1038.4" y="199" width="124.9" height="15.0" fill="rgb(0,0,0)" rx="2" ry="2" />
<text  x="1041.39" y="209.5" >KSPSetUp</text>
</g>
<g >
<title>Log_Event_subkernel132_cell_to__cell_integral_otherwise (22,652 us, 0.18%)</title><rect x="487.0" y="263" width="2.1" height="15.0" fill="rgb(0,0,0)" rx="2" ry="2" />
<text  x="490.00" y="273.5" ></text>
</g>
<g >
<title>firedrake.tsfc_interface.compile_form (19,091 us, 0.15%)</title><rect x="1176.9" y="167" width="1.8" height="15.0" fill="rgb(0,0,0)" rx="2" ry="2" />
<text  x="1179.94" y="177.5" ></text>
</g>
<g >
<title>Parloop_Cells_wrap_slate_loopy_knl_77 (6,468,223 us, 51.54%)</title><rect x="430.3" y="215" width="608.1" height="15.0" fill="rgb(0,0,0)" rx="2" ry="2" />
<text  x="433.27" y="225.5" >Parloop_Cells_wrap_slate_loopy_knl_77</text>
</g>
<g >
<title>pyop2.global_kernel.GlobalKernel.compile (37,292 us, 0.30%)</title><rect x="285.2" y="215" width="3.5" height="15.0" fill="rgb(0,0,0)" rx="2" ry="2" />
<text  x="288.19" y="225.5" ></text>
</g>
<g >
<title>Log_Event_mtf_solve_79 (321,803 us, 2.56%)</title><rect x="973.2" y="247" width="30.2" height="15.0" fill="rgb(0,0,0)" rx="2" ry="2" />
<text  x="976.16" y="257.5" >L..</text>
</g>
<g >
<title>firedrake.interpolation.make_interpolator (37,613 us, 0.30%)</title><rect x="1183.4" y="135" width="3.5" height="15.0" fill="rgb(0,0,0)" rx="2" ry="2" />
<text  x="1186.38" y="145.5" ></text>
</g>
<g >
<title>firedrake.functionspaceimpl.FunctionSpace.__init__ (23,506 us, 0.19%)</title><rect x="126.2" y="87" width="2.2" height="15.0" fill="rgb(0,0,0)" rx="2" ry="2" />
<text  x="129.16" y="97.5" ></text>
</g>
<g >
<title>Log_Event_subkernel85_cell_to__cell_integral_otherwise (14,711 us, 0.12%)</title><rect x="980.4" y="295" width="1.4" height="15.0" fill="rgb(0,0,0)" rx="2" ry="2" />
<text  x="983.43" y="305.5" ></text>
</g>
<g >
<title>Log_Event_subkernel20_cell_to__cell_integral_otherwise (36,595 us, 0.29%)</title><rect x="415.2" y="263" width="3.4" height="15.0" fill="rgb(0,0,0)" rx="2" ry="2" />
<text  x="418.18" y="273.5" ></text>
</g>
<g >
<title>Log_Event_subkernel127_cell_to__cell_integral_otherwise (52,794 us, 0.42%)</title><rect x="495.0" y="295" width="4.9" height="15.0" fill="rgb(0,0,0)" rx="2" ry="2" />
<text  x="497.98" y="305.5" ></text>
</g>
<g >
<title>Log_Event_subkernel150_cell_to__cell_integral_otherwise (57,068 us, 0.45%)</title><rect x="967.8" y="263" width="5.4" height="15.0" fill="rgb(0,0,0)" rx="2" ry="2" />
<text  x="970.80" y="273.5" ></text>
</g>
<g >
<title>Log_Event_tensorshell_knl_133 (4,851,244 us, 38.65%)</title><rect x="507.3" y="263" width="456.1" height="15.0" fill="rgb(0,0,0)" rx="2" ry="2" />
<text  x="510.26" y="273.5" >Log_Event_tensorshell_knl_133</text>
</g>
<g >
<title>Log_Event_subkernel97_cell_to__cell_integral_otherwise (14,708 us, 0.12%)</title><rect x="992.9" y="295" width="1.4" height="15.0" fill="rgb(0,0,0)" rx="2" ry="2" />
<text  x="995.89" y="305.5" ></text>
</g>
<g >
<title>MatMult (1,329,146 us, 10.59%)</title><rect x="1038.4" y="231" width="124.9" height="15.0" fill="rgb(0,0,0)" rx="2" ry="2" />
<text  x="1041.39" y="241.5" >MatMult</text>
</g>
<g >
<title>CreateExtMesh (74,607 us, 0.59%)</title><rect x="119.1" y="71" width="7.1" height="15.0" fill="rgb(0,0,0)" rx="2" ry="2" />
<text  x="122.14" y="81.5" ></text>
</g>
<g >
<title>SCForwardElim (1,516,092 us, 12.08%)</title><rect x="285.2" y="135" width="142.5" height="15.0" fill="rgb(0,0,0)" rx="2" ry="2" />
<text  x="288.19" y="145.5" >SCForwardElim</text>
</g>
<g >
<title>SCSolve (7,988,107 us, 63.64%)</title><rect x="427.7" y="135" width="751.0" height="15.0" fill="rgb(0,0,0)" rx="2" ry="2" />
<text  x="430.73" y="145.5" >SCSolve</text>
</g>
<g >
<title>SNESSolve (9,723,178 us, 77.47%)</title><rect x="275.9" y="87" width="914.1" height="15.0" fill="rgb(0,0,0)" rx="2" ry="2" />
<text  x="278.87" y="97.5" >SNESSolve</text>
</g>
</g>
</svg>
