<?xml version="1.0" standalone="no"?>
<!DOCTYPE svg PUBLIC "-//W3C//DTD SVG 1.1//EN" "http://www.w3.org/Graphics/SVG/1.1/DTD/svg11.dtd">
<svg version="1.1" width="1200" height="347" onload="init(evt)" viewBox="0 0 1200 347" xmlns="http://www.w3.org/2000/svg" xmlns:xlink="http://www.w3.org/1999/xlink">
<!-- Flame graph stack visualization. See https://github.com/brendangregg/FlameGraph for latest version, and http://www.brendangregg.com/flamegraphs.html for examples. -->
<!-- NOTES:  -->
<defs>
	<linearGradient id="background" y1="0" y2="1" x1="0" x2="0" >
		<stop stop-color="#eeeeee" offset="5%" />
		<stop stop-color="#eeeeb0" offset="95%" />
	</linearGradient>
</defs>
<style type="text/css">
	text { font-family:Verdana; font-size:13px; fill:rgb(0,0,0); }
	#search, #ignorecase { opacity:0.1; cursor:pointer; }
	#search:hover, #search.show, #ignorecase:hover, #ignorecase.show { opacity:1; }
	#subtitle { text-anchor:middle; font-color:rgb(160,160,160); }
	#title { text-anchor:middle; font-size:18px}
	#unzoom { cursor:pointer; }
	#frames > *:hover { stroke:black; stroke-width:0.5; cursor:pointer; }
	.hide { display:none; }
	.parent { opacity:0.5; }
</style>
<script type="text/ecmascript">
<![CDATA[
	"use strict";
	var details, searchbtn, unzoombtn, matchedtxt, svg, searching, currentSearchTerm, ignorecase, ignorecaseBtn;
	function init(evt) {
		details = document.getElementById("details").firstChild;
		searchbtn = document.getElementById("search");
		ignorecaseBtn = document.getElementById("ignorecase");
		unzoombtn = document.getElementById("unzoom");
		matchedtxt = document.getElementById("matched");
		svg = document.getElementsByTagName("svg")[0];
		searching = 0;
		currentSearchTerm = null;

		// use GET parameters to restore a flamegraphs state.
		var params = get_params();
		if (params.x && params.y)
			zoom(find_group(document.querySelector('[x="' + params.x + '"][y="' + params.y + '"]')));
                if (params.s) search(params.s);
	}

	// event listeners
	window.addEventListener("click", function(e) {
		var target = find_group(e.target);
		if (target) {
			if (target.nodeName == "a") {
				if (e.ctrlKey === false) return;
				e.preventDefault();
			}
			if (target.classList.contains("parent")) unzoom();
			zoom(target);
			if (!document.querySelector('.parent')) {
				clearzoom();
				return;
			}

			// set parameters for zoom state
			var el = target.querySelector("rect");
			if (el && el.attributes && el.attributes.y && el.attributes._orig_x) {
				var params = get_params()
				params.x = el.attributes._orig_x.value;
				params.y = el.attributes.y.value;
				history.replaceState(null, null, parse_params(params));
			}
		}
		else if (e.target.id == "unzoom") clearzoom();
		else if (e.target.id == "search") search_prompt();
		else if (e.target.id == "ignorecase") toggle_ignorecase();
	}, false)

	// mouse-over for info
	// show
	window.addEventListener("mouseover", function(e) {
		var target = find_group(e.target);
		if (target) details.nodeValue = "Function: " + g_to_text(target);
	}, false)

	// clear
	window.addEventListener("mouseout", function(e) {
		var target = find_group(e.target);
		if (target) details.nodeValue = ' ';
	}, false)

	// ctrl-F for search
	// ctrl-I to toggle case-sensitive search
	window.addEventListener("keydown",function (e) {
		if (e.keyCode === 114 || (e.ctrlKey && e.keyCode === 70)) {
			e.preventDefault();
			search_prompt();
		}
		else if (e.ctrlKey && e.keyCode === 73) {
			e.preventDefault();
			toggle_ignorecase();
		}
	}, false)

	// functions
	function get_params() {
		var params = {};
		var paramsarr = window.location.search.substr(1).split('&');
		for (var i = 0; i < paramsarr.length; ++i) {
			var tmp = paramsarr[i].split("=");
			if (!tmp[0] || !tmp[1]) continue;
			params[tmp[0]]  = decodeURIComponent(tmp[1]);
		}
		return params;
	}
	function parse_params(params) {
		var uri = "?";
		for (var key in params) {
			uri += key + '=' + encodeURIComponent(params[key]) + '&';
		}
		if (uri.slice(-1) == "&")
			uri = uri.substring(0, uri.length - 1);
		if (uri == '?')
			uri = window.location.href.split('?')[0];
		return uri;
	}
	function find_child(node, selector) {
		var children = node.querySelectorAll(selector);
		if (children.length) return children[0];
	}
	function find_group(node) {
		var parent = node.parentElement;
		if (!parent) return;
		if (parent.id == "frames") return node;
		return find_group(parent);
	}
	function orig_save(e, attr, val) {
		if (e.attributes["_orig_" + attr] != undefined) return;
		if (e.attributes[attr] == undefined) return;
		if (val == undefined) val = e.attributes[attr].value;
		e.setAttribute("_orig_" + attr, val);
	}
	function orig_load(e, attr) {
		if (e.attributes["_orig_"+attr] == undefined) return;
		e.attributes[attr].value = e.attributes["_orig_" + attr].value;
		e.removeAttribute("_orig_"+attr);
	}
	function g_to_text(e) {
		var text = find_child(e, "title").firstChild.nodeValue;
		return (text)
	}
	function g_to_func(e) {
		var func = g_to_text(e);
		// if there's any manipulation we want to do to the function
		// name before it's searched, do it here before returning.
		return (func);
	}
	function update_text(e) {
		var r = find_child(e, "rect");
		var t = find_child(e, "text");
		var w = parseFloat(r.attributes.width.value) -3;
		var txt = find_child(e, "title").textContent.replace(/\([^(]*\)$/,"");
		t.attributes.x.value = parseFloat(r.attributes.x.value) + 3;

		// Smaller than this size won't fit anything
		if (w < 2 * 13 * 0.59) {
			t.textContent = "";
			return;
		}

		t.textContent = txt;
		// Fit in full text width
		if (/^ *$/.test(txt) || t.getSubStringLength(0, txt.length) < w)
			return;

		for (var x = txt.length - 2; x > 0; x--) {
			if (t.getSubStringLength(0, x + 2) <= w) {
				t.textContent = txt.substring(0, x) + "..";
				return;
			}
		}
		t.textContent = "";
	}

	// zoom
	function zoom_reset(e) {
		if (e.attributes != undefined) {
			orig_load(e, "x");
			orig_load(e, "width");
		}
		if (e.childNodes == undefined) return;
		for (var i = 0, c = e.childNodes; i < c.length; i++) {
			zoom_reset(c[i]);
		}
	}
	function zoom_child(e, x, ratio) {
		if (e.attributes != undefined) {
			if (e.attributes.x != undefined) {
				orig_save(e, "x");
				e.attributes.x.value = (parseFloat(e.attributes.x.value) - x - 10) * ratio + 10;
				if (e.tagName == "text")
					e.attributes.x.value = find_child(e.parentNode, "rect[x]").attributes.x.value + 3;
			}
			if (e.attributes.width != undefined) {
				orig_save(e, "width");
				e.attributes.width.value = parseFloat(e.attributes.width.value) * ratio;
			}
		}

		if (e.childNodes == undefined) return;
		for (var i = 0, c = e.childNodes; i < c.length; i++) {
			zoom_child(c[i], x - 10, ratio);
		}
	}
	function zoom_parent(e) {
		if (e.attributes) {
			if (e.attributes.x != undefined) {
				orig_save(e, "x");
				e.attributes.x.value = 10;
			}
			if (e.attributes.width != undefined) {
				orig_save(e, "width");
				e.attributes.width.value = parseInt(svg.width.baseVal.value) - (10 * 2);
			}
		}
		if (e.childNodes == undefined) return;
		for (var i = 0, c = e.childNodes; i < c.length; i++) {
			zoom_parent(c[i]);
		}
	}
	function zoom(node) {
		var attr = find_child(node, "rect").attributes;
		var width = parseFloat(attr.width.value);
		var xmin = parseFloat(attr.x.value);
		var xmax = parseFloat(xmin + width);
		var ymin = parseFloat(attr.y.value);
		var ratio = (svg.width.baseVal.value - 2 * 10) / width;

		// XXX: Workaround for JavaScript float issues (fix me)
		var fudge = 0.0001;

		unzoombtn.classList.remove("hide");

		var el = document.getElementById("frames").children;
		for (var i = 0; i < el.length; i++) {
			var e = el[i];
			var a = find_child(e, "rect").attributes;
			var ex = parseFloat(a.x.value);
			var ew = parseFloat(a.width.value);
			var upstack;
			// Is it an ancestor
			if (1 == 0) {
				upstack = parseFloat(a.y.value) > ymin;
			} else {
				upstack = parseFloat(a.y.value) < ymin;
			}
			if (upstack) {
				// Direct ancestor
				if (ex <= xmin && (ex+ew+fudge) >= xmax) {
					e.classList.add("parent");
					zoom_parent(e);
					update_text(e);
				}
				// not in current path
				else
					e.classList.add("hide");
			}
			// Children maybe
			else {
				// no common path
				if (ex < xmin || ex + fudge >= xmax) {
					e.classList.add("hide");
				}
				else {
					zoom_child(e, xmin, ratio);
					update_text(e);
				}
			}
		}
		search();
	}
	function unzoom() {
		unzoombtn.classList.add("hide");
		var el = document.getElementById("frames").children;
		for(var i = 0; i < el.length; i++) {
			el[i].classList.remove("parent");
			el[i].classList.remove("hide");
			zoom_reset(el[i]);
			update_text(el[i]);
		}
		search();
	}
	function clearzoom() {
		unzoom();

		// remove zoom state
		var params = get_params();
		if (params.x) delete params.x;
		if (params.y) delete params.y;
		history.replaceState(null, null, parse_params(params));
	}

	// search
	function toggle_ignorecase() {
		ignorecase = !ignorecase;
		if (ignorecase) {
			ignorecaseBtn.classList.add("show");
		} else {
			ignorecaseBtn.classList.remove("show");
		}
		reset_search();
		search();
	}
	function reset_search() {
		var el = document.querySelectorAll("#frames rect");
		for (var i = 0; i < el.length; i++) {
			orig_load(el[i], "fill")
		}
		var params = get_params();
		delete params.s;
		history.replaceState(null, null, parse_params(params));
	}
	function search_prompt() {
		if (!searching) {
			var term = prompt("Enter a search term (regexp " +
			    "allowed, eg: ^ext4_)"
			    + (ignorecase ? ", ignoring case" : "")
			    + "\nPress Ctrl-i to toggle case sensitivity", "");
			if (term != null) search(term);
		} else {
			reset_search();
			searching = 0;
			currentSearchTerm = null;
			searchbtn.classList.remove("show");
			searchbtn.firstChild.nodeValue = "Search"
			matchedtxt.classList.add("hide");
			matchedtxt.firstChild.nodeValue = ""
		}
	}
	function search(term) {
		if (term) currentSearchTerm = term;

		var re = new RegExp(currentSearchTerm, ignorecase ? 'i' : '');
		var el = document.getElementById("frames").children;
		var matches = new Object();
		var maxwidth = 0;
		for (var i = 0; i < el.length; i++) {
			var e = el[i];
			var func = g_to_func(e);
			var rect = find_child(e, "rect");
			if (func == null || rect == null)
				continue;

			// Save max width. Only works as we have a root frame
			var w = parseFloat(rect.attributes.width.value);
			if (w > maxwidth)
				maxwidth = w;

			if (func.match(re)) {
				// highlight
				var x = parseFloat(rect.attributes.x.value);
				orig_save(rect, "fill");
				rect.attributes.fill.value = "rgb(230,0,230)";

				// remember matches
				if (matches[x] == undefined) {
					matches[x] = w;
				} else {
					if (w > matches[x]) {
						// overwrite with parent
						matches[x] = w;
					}
				}
				searching = 1;
			}
		}
		if (!searching)
			return;
		var params = get_params();
		params.s = currentSearchTerm;
		history.replaceState(null, null, parse_params(params));

		searchbtn.classList.add("show");
		searchbtn.firstChild.nodeValue = "Reset Search";

		// calculate percent matched, excluding vertical overlap
		var count = 0;
		var lastx = -1;
		var lastw = 0;
		var keys = Array();
		for (k in matches) {
			if (matches.hasOwnProperty(k))
				keys.push(k);
		}
		// sort the matched frames by their x location
		// ascending, then width descending
		keys.sort(function(a, b){
			return a - b;
		});
		// Step through frames saving only the biggest bottom-up frames
		// thanks to the sort order. This relies on the tree property
		// where children are always smaller than their parents.
		var fudge = 0.0001;	// JavaScript floating point
		for (var k in keys) {
			var x = parseFloat(keys[k]);
			var w = matches[keys[k]];
			if (x >= lastx + lastw - fudge) {
				count += w;
				lastx = x;
				lastw = w;
			}
		}
		// display matched percent
		matchedtxt.classList.remove("hide");
		var pct = 100 * count / maxwidth;
		if (pct != 100) pct = pct.toFixed(1)
		matchedtxt.firstChild.nodeValue = "Matched: " + pct + "%";
	}
]]>
</script>
<rect x="0.0" y="0" width="1200.0" height="347.0" fill="url(#background)"  />
<text id="title" x="600.00" y="26" >Firedrake example</text>
<text id="details" x="10.00" y="329" > </text>
<text id="unzoom" x="10.00" y="26" class="hide">Reset Zoom</text>
<text id="search" x="1090.00" y="26" >Search</text>
<text id="ignorecase" x="1174.00" y="26" >ic</text>
<text id="matched" x="1090.00" y="329" > </text>
<g id="frames">
<g >
<title>Log_Event_subkernel111_interior_facet_vert_to__exterior_facet_vert_integral_otherwise (41,103 us, 0.36%)</title><rect x="977.0" y="247" width="4.2" height="15.0" fill="rgb(0,0,0)" rx="2" ry="2" />
<text  x="979.97" y="257.5" ></text>
</g>
<g >
<title>Log_Event_mtf_solve_135 (1,735,488 us, 15.18%)</title><rect x="591.9" y="279" width="179.1" height="15.0" fill="rgb(0,0,0)" rx="2" ry="2" />
<text  x="594.93" y="289.5" >Log_Event_mtf_solve_135</text>
</g>
<g >
<title>firedrake.functionspaceimpl.FunctionSpace.__init__ (23,864 us, 0.21%)</title><rect x="139.8" y="87" width="2.4" height="15.0" fill="rgb(0,0,0)" rx="2" ry="2" />
<text  x="142.77" y="97.5" ></text>
</g>
<g >
<title>Log_Event_subkernel150_cell_to__cell_integral_otherwise (32,959 us, 0.29%)</title><rect x="941.7" y="263" width="3.4" height="15.0" fill="rgb(0,0,0)" rx="2" ry="2" />
<text  x="944.69" y="273.5" ></text>
</g>
<g >
<title>Parloop_Cells_wrap_form1_cell_integral_otherwise (30,126 us, 0.26%)</title><rect x="303.9" y="167" width="3.1" height="15.0" fill="rgb(0,0,0)" rx="2" ry="2" />
<text  x="306.90" y="177.5" ></text>
</g>
<g >
<title>Log_Event_tensorshell_knl_92 (108,516 us, 0.95%)</title><rect x="961.2" y="263" width="11.2" height="15.0" fill="rgb(0,0,0)" rx="2" ry="2" />
<text  x="964.19" y="273.5" ></text>
</g>
<g >
<title>Log_Event_subkernel81_cell_to__cell_integral_otherwise (44,366 us, 0.39%)</title><rect x="954.6" y="279" width="4.6" height="15.0" fill="rgb(0,0,0)" rx="2" ry="2" />
<text  x="957.60" y="289.5" ></text>
</g>
<g >
<title>firedrake.functionspacedata.get_shared_data (23,864 us, 0.21%)</title><rect x="139.8" y="103" width="2.4" height="15.0" fill="rgb(0,0,0)" rx="2" ry="2" />
<text  x="142.77" y="113.5" ></text>
</g>
<g >
<title>ParLoopExecute (32,424 us, 0.28%)</title><rect x="1186.7" y="151" width="3.3" height="15.0" fill="rgb(0,0,0)" rx="2" ry="2" />
<text  x="1189.65" y="161.5" ></text>
</g>
<g >
<title>Log_Event_subkernel147_cell_to__cell_integral_otherwise (16,809 us, 0.15%)</title><rect x="938.7" y="263" width="1.8" height="15.0" fill="rgb(0,0,0)" rx="2" ry="2" />
<text  x="941.74" y="273.5" ></text>
</g>
<g >
<title>ParLoopExecute (460,256 us, 4.02%)</title><rect x="473.3" y="167" width="47.5" height="15.0" fill="rgb(0,0,0)" rx="2" ry="2" />
<text  x="476.27" y="177.5" >ParL..</text>
</g>
<g >
<title>Log_Event_subkernel153_interior_facet_vert_to__exterior_facet_vert_integral_otherwise (40,665 us, 0.36%)</title><rect x="999.4" y="247" width="4.2" height="15.0" fill="rgb(0,0,0)" rx="2" ry="2" />
<text  x="1002.43" y="257.5" ></text>
</g>
<g >
<title>Log_Event_subkernel55_cell_to__cell_integral_otherwise (44,088 us, 0.39%)</title><rect x="509.9" y="247" width="4.5" height="15.0" fill="rgb(0,0,0)" rx="2" ry="2" />
<text  x="512.85" y="257.5" ></text>
</g>
<g >
<title>Log_Event_subkernel91_cell_to__cell_integral_otherwise (18,319 us, 0.16%)</title><rect x="946.8" y="263" width="1.9" height="15.0" fill="rgb(0,0,0)" rx="2" ry="2" />
<text  x="949.76" y="273.5" ></text>
</g>
<g >
<title>Log_Event_subkernel97_cell_to__cell_integral_otherwise (12,022 us, 0.11%)</title><rect x="962.9" y="295" width="1.3" height="15.0" fill="rgb(0,0,0)" rx="2" ry="2" />
<text  x="965.92" y="305.5" ></text>
</g>
<g >
<title>ParLoopExecute (71,753 us, 0.63%)</title><rect x="1163.2" y="167" width="7.4" height="15.0" fill="rgb(0,0,0)" rx="2" ry="2" />
<text  x="1166.24" y="177.5" ></text>
</g>
<g >
<title>Log_Event_subkernel152_interior_facet_vert_to__exterior_facet_vert_integral_otherwise (40,834 us, 0.36%)</title><rect x="995.2" y="247" width="4.2" height="15.0" fill="rgb(0,0,0)" rx="2" ry="2" />
<text  x="998.22" y="257.5" ></text>
</g>
<g >
<title>firedrake.matrix_free.operators.ImplicitMatrixContext.mult (1,511,698 us, 13.22%)</title><rect x="1003.6" y="247" width="156.0" height="15.0" fill="rgb(0,0,0)" rx="2" ry="2" />
<text  x="1006.63" y="257.5" >firedrake.matrix_f..</text>
</g>
<g >
<title>HybridBreak (41,446 us, 0.36%)</title><rect x="310.5" y="151" width="4.3" height="15.0" fill="rgb(0,0,0)" rx="2" ry="2" />
<text  x="313.50" y="161.5" ></text>
</g>
<g >
<title>pyop2.global_kernel.GlobalKernel.compile (32,424 us, 0.28%)</title><rect x="1186.7" y="183" width="3.3" height="15.0" fill="rgb(0,0,0)" rx="2" ry="2" />
<text  x="1189.65" y="193.5" ></text>
</g>
<g >
<title>Log_Event_subkernel138_cell_to__cell_integral_otherwise (299,472 us, 2.62%)</title><rect x="646.0" y="295" width="30.9" height="15.0" fill="rgb(0,0,0)" rx="2" ry="2" />
<text  x="648.98" y="305.5" >Lo..</text>
</g>
<g >
<title>Log_Event_tensorshell_knl_2 (9,257 us, 0.08%)</title><rect x="501.1" y="231" width="1.0" height="15.0" fill="rgb(0,0,0)" rx="2" ry="2" />
<text  x="504.13" y="241.5" ></text>
</g>
<g >
<title>all (11,436,304 us, 100%)</title><rect x="10.0" y="39" width="1180.0" height="15.0" fill="rgb(0,0,0)" rx="2" ry="2" />
<text  x="13.00" y="49.5" ></text>
</g>
<g >
<title>CreateExtMesh (70,368 us, 0.62%)</title><rect x="132.5" y="71" width="7.3" height="15.0" fill="rgb(0,0,0)" rx="2" ry="2" />
<text  x="135.51" y="81.5" ></text>
</g>
<g >
<title>Log_Event_subkernel136_cell_to__cell_integral_otherwise (427,397 us, 3.74%)</title><rect x="601.9" y="295" width="44.1" height="15.0" fill="rgb(0,0,0)" rx="2" ry="2" />
<text  x="604.88" y="305.5" >Log..</text>
</g>
<g >
<title>Log_Event_subkernel86_cell_to__cell_integral_otherwise (16,091 us, 0.14%)</title><rect x="952.9" y="295" width="1.7" height="15.0" fill="rgb(0,0,0)" rx="2" ry="2" />
<text  x="955.94" y="305.5" ></text>
</g>
<g >
<title>Log_Event_slate_loopy_knl_0 (417,189 us, 3.65%)</title><rect x="473.3" y="199" width="43.0" height="15.0" fill="rgb(0,0,0)" rx="2" ry="2" />
<text  x="476.27" y="209.5" >Log..</text>
</g>
<g >
<title>Log_Event_subkernel145_cell_to__cell_integral_otherwise (44,415 us, 0.39%)</title><rect x="990.6" y="247" width="4.6" height="15.0" fill="rgb(0,0,0)" rx="2" ry="2" />
<text  x="993.64" y="257.5" ></text>
</g>
<g >
<title>firedrake.variational_solver.NonlinearVariationalSolver.__init__ (7,925 us, 0.07%)</title><rect x="299.7" y="71" width="0.8" height="15.0" fill="rgb(0,0,0)" rx="2" ry="2" />
<text  x="302.71" y="81.5" ></text>
</g>
<g >
<title>firedrake.interpolation.make_interpolator (37,431 us, 0.33%)</title><rect x="1182.8" y="135" width="3.9" height="15.0" fill="rgb(0,0,0)" rx="2" ry="2" />
<text  x="1185.79" y="145.5" ></text>
</g>
<g >
<title>firedrake.functionspacedata.get_shared_data (6,421 us, 0.06%)</title><rect x="139.1" y="135" width="0.7" height="15.0" fill="rgb(0,0,0)" rx="2" ry="2" />
<text  x="142.10" y="145.5" ></text>
</g>
<g >
<title>ParLoopExecute (34,707 us, 0.30%)</title><rect x="311.2" y="183" width="3.6" height="15.0" fill="rgb(0,0,0)" rx="2" ry="2" />
<text  x="314.19" y="193.5" ></text>
</g>
<g >
<title>Log_Event_tensorshell_knl_42 (8,669 us, 0.08%)</title><rect x="502.1" y="231" width="0.9" height="15.0" fill="rgb(0,0,0)" rx="2" ry="2" />
<text  x="505.09" y="241.5" ></text>
</g>
<g >
<title>Log_Event_subkernel122_cell_to__cell_integral_otherwise (44,391 us, 0.39%)</title><rect x="582.8" y="279" width="4.6" height="15.0" fill="rgb(0,0,0)" rx="2" ry="2" />
<text  x="585.80" y="289.5" ></text>
</g>
<g >
<title>SCSolve (6,367,484 us, 55.68%)</title><rect x="520.8" y="135" width="657.0" height="15.0" fill="rgb(0,0,0)" rx="2" ry="2" />
<text  x="523.76" y="145.5" >SCSolve</text>
</g>
<g >
<title>Log_Event_subkernel83_cell_to__cell_integral_otherwise (16,841 us, 0.15%)</title><rect x="950.0" y="295" width="1.7" height="15.0" fill="rgb(0,0,0)" rx="2" ry="2" />
<text  x="952.95" y="305.5" ></text>
</g>
<g >
<title>pyop2.global_kernel.GlobalKernel.compile (33,451 us, 0.29%)</title><rect x="1163.2" y="199" width="3.5" height="15.0" fill="rgb(0,0,0)" rx="2" ry="2" />
<text  x="1166.24" y="209.5" ></text>
</g>
<g >
<title>pyop2.global_kernel.GlobalKernel.compile (30,126 us, 0.26%)</title><rect x="303.9" y="183" width="3.1" height="15.0" fill="rgb(0,0,0)" rx="2" ry="2" />
<text  x="306.90" y="193.5" ></text>
</g>
<g >
<title>firedrake.variational_solver.LinearVariationalProblem.__init__ (11,887 us, 0.10%)</title><rect x="298.5" y="71" width="1.2" height="15.0" fill="rgb(0,0,0)" rx="2" ry="2" />
<text  x="301.49" y="81.5" ></text>
</g>
<g >
<title>Log_Event_subkernel91_interior_facet_vert_to__exterior_facet_vert_integral_otherwise (12,590 us, 0.11%)</title><rect x="948.7" y="263" width="1.3" height="15.0" fill="rgb(0,0,0)" rx="2" ry="2" />
<text  x="951.65" y="273.5" ></text>
</g>
<g >
<title>Log_Event_subkernel132_cell_to__cell_integral_otherwise (18,271 us, 0.16%)</title><rect x="572.5" y="263" width="1.9" height="15.0" fill="rgb(0,0,0)" rx="2" ry="2" />
<text  x="575.48" y="273.5" ></text>
</g>
<g >
<title>CreateFunctionSpace (6,421 us, 0.06%)</title><rect x="139.1" y="103" width="0.7" height="15.0" fill="rgb(0,0,0)" rx="2" ry="2" />
<text  x="142.10" y="113.5" ></text>
</g>
<g >
<title>Log_Event_mtf_solve_56 (66,582 us, 0.58%)</title><rect x="503.0" y="247" width="6.9" height="15.0" fill="rgb(0,0,0)" rx="2" ry="2" />
<text  x="505.98" y="257.5" ></text>
</g>
<g >
<title>PCSetUp (118,659 us, 1.04%)</title><rect x="1177.8" y="103" width="12.2" height="15.0" fill="rgb(0,0,0)" rx="2" ry="2" />
<text  x="1180.76" y="113.5" ></text>
</g>
<g >
<title>Log_Event_subkernel134_cell_to__cell_integral_otherwise (1,140,722 us, 9.97%)</title><rect x="771.0" y="279" width="117.7" height="15.0" fill="rgb(0,0,0)" rx="2" ry="2" />
<text  x="774.00" y="289.5" >Log_Event_sub..</text>
</g>
<g >
<title>firedrake.parloops.par_loop (32,424 us, 0.28%)</title><rect x="1186.7" y="135" width="3.3" height="15.0" fill="rgb(0,0,0)" rx="2" ry="2" />
<text  x="1189.65" y="145.5" ></text>
</g>
<g >
<title>pyop2.global_kernel.GlobalKernel.compile (32,699 us, 0.29%)</title><rect x="300.5" y="183" width="3.4" height="15.0" fill="rgb(0,0,0)" rx="2" ry="2" />
<text  x="303.53" y="193.5" ></text>
</g>
<g >
<title>Log_Event_subkernel62_cell_to__cell_integral_otherwise (18,525 us, 0.16%)</title><rect x="514.4" y="247" width="1.9" height="15.0" fill="rgb(0,0,0)" rx="2" ry="2" />
<text  x="517.40" y="257.5" ></text>
</g>
<g >
<title>Log_Event_subkernel104_cell_to__cell_integral_otherwise (44,384 us, 0.39%)</title><rect x="972.4" y="247" width="4.6" height="15.0" fill="rgb(0,0,0)" rx="2" ry="2" />
<text  x="975.39" y="257.5" ></text>
</g>
<g >
<title>Log_Event_subkernel108_cell_to__cell_integral_otherwise (11,676 us, 0.10%)</title><rect x="558.4" y="263" width="1.2" height="15.0" fill="rgb(0,0,0)" rx="2" ry="2" />
<text  x="561.37" y="273.5" ></text>
</g>
<g >
<title>CreateFunctionSpace (8,684 us, 0.08%)</title><rect x="1181.1" y="135" width="0.9" height="15.0" fill="rgb(0,0,0)" rx="2" ry="2" />
<text  x="1184.09" y="145.5" ></text>
</g>
<g >
<title>HybridInit (118,659 us, 1.04%)</title><rect x="1177.8" y="119" width="12.2" height="15.0" fill="rgb(0,0,0)" rx="2" ry="2" />
<text  x="1180.76" y="129.5" ></text>
</g>
<g >
<title>firedrake.functionspacedata.FunctionSpaceData.__init__ (23,864 us, 0.21%)</title><rect x="139.8" y="119" width="2.4" height="15.0" fill="rgb(0,0,0)" rx="2" ry="2" />
<text  x="142.77" y="129.5" ></text>
</g>
<g >
<title>Log_Event_subkernel119_cell_to__cell_integral_otherwise (19,468 us, 0.17%)</title><rect x="988.6" y="247" width="2.0" height="15.0" fill="rgb(0,0,0)" rx="2" ry="2" />
<text  x="991.63" y="257.5" ></text>
</g>
<g >
<title>Log_Event_mtf_solve_120 (3,580,283 us, 31.31%)</title><rect x="568.5" y="247" width="369.4" height="15.0" fill="rgb(0,0,0)" rx="2" ry="2" />
<text  x="571.49" y="257.5" >Log_Event_mtf_solve_120</text>
</g>
<g >
<title>firedrake.variational_solver.NonlinearVariationalProblem.__init__ (11,887 us, 0.10%)</title><rect x="298.5" y="87" width="1.2" height="15.0" fill="rgb(0,0,0)" rx="2" ry="2" />
<text  x="301.49" y="97.5" ></text>
</g>
<g >
<title>firedrake.formmanipulation.ExtractSubBlock.argument (7,821 us, 0.07%)</title><rect x="1182.0" y="167" width="0.8" height="15.0" fill="rgb(0,0,0)" rx="2" ry="2" />
<text  x="1184.99" y="177.5" ></text>
</g>
<g >
<title>firedrake.interpolation.make_interpolator (51,663 us, 0.45%)</title><rect x="1170.6" y="167" width="5.4" height="15.0" fill="rgb(0,0,0)" rx="2" ry="2" />
<text  x="1173.64" y="177.5" ></text>
</g>
<g >
<title>KSPSetUp (1,511,698 us, 13.22%)</title><rect x="1003.6" y="199" width="156.0" height="15.0" fill="rgb(0,0,0)" rx="2" ry="2" />
<text  x="1006.63" y="209.5" >KSPSetUp</text>
</g>
<g >
<title>KSPSolve (6,214,683 us, 54.34%)</title><rect x="520.8" y="151" width="641.2" height="15.0" fill="rgb(0,0,0)" rx="2" ry="2" />
<text  x="523.76" y="161.5" >KSPSolve</text>
</g>
<g >
<title>Log_Event_subkernel15_cell_to__cell_integral_otherwise (77,072 us, 0.67%)</title><rect x="489.8" y="247" width="8.0" height="15.0" fill="rgb(0,0,0)" rx="2" ry="2" />
<text  x="492.85" y="257.5" ></text>
</g>
<g >
<title>pyop2.global_kernel.GlobalKernel.compile (33,479 us, 0.29%)</title><rect x="135.6" y="135" width="3.5" height="15.0" fill="rgb(0,0,0)" rx="2" ry="2" />
<text  x="138.65" y="145.5" ></text>
</g>
<g >
<title>Log_Event_subkernel112_interior_facet_vert_to__exterior_facet_vert_integral_otherwise (71,883 us, 0.63%)</title><rect x="981.2" y="247" width="7.4" height="15.0" fill="rgb(0,0,0)" rx="2" ry="2" />
<text  x="984.21" y="257.5" ></text>
</g>
<g >
<title>Log_Event_subkernel57_cell_to__cell_integral_otherwise (16,623 us, 0.15%)</title><rect x="503.7" y="263" width="1.7" height="15.0" fill="rgb(0,0,0)" rx="2" ry="2" />
<text  x="506.73" y="273.5" ></text>
</g>
<g >
<title>Log_Event_subkernel59_cell_to__cell_integral_otherwise (11,527 us, 0.10%)</title><rect x="505.4" y="263" width="1.2" height="15.0" fill="rgb(0,0,0)" rx="2" ry="2" />
<text  x="508.45" y="273.5" ></text>
</g>
<g >
<title>Log_Event_mtf_solve_146 (69,588 us, 0.61%)</title><rect x="937.9" y="247" width="7.2" height="15.0" fill="rgb(0,0,0)" rx="2" ry="2" />
<text  x="940.91" y="257.5" ></text>
</g>
<g >
<title>Parloop_Cells_wrap_par_loop_kernel (32,424 us, 0.28%)</title><rect x="1186.7" y="167" width="3.3" height="15.0" fill="rgb(0,0,0)" rx="2" ry="2" />
<text  x="1189.65" y="177.5" ></text>
</g>
<g >
<title>Log_Event_subkernel129_cell_to__cell_integral_otherwise (19,415 us, 0.17%)</title><rect x="587.4" y="279" width="2.0" height="15.0" fill="rgb(0,0,0)" rx="2" ry="2" />
<text  x="590.38" y="289.5" ></text>
</g>
<g >
<title>ParLoopExecute (4,653,558 us, 40.69%)</title><rect x="523.5" y="199" width="480.1" height="15.0" fill="rgb(0,0,0)" rx="2" ry="2" />
<text  x="526.47" y="209.5" >ParLoopExecute</text>
</g>
<g >
<title>Parloop_Cells_wrap_form00_cell_integral_otherwise (38,302 us, 0.33%)</title><rect x="1166.7" y="183" width="3.9" height="15.0" fill="rgb(0,0,0)" rx="2" ry="2" />
<text  x="1169.69" y="193.5" ></text>
</g>
<g >
<title>MatMult (4,679,860 us, 40.92%)</title><rect x="520.8" y="167" width="482.8" height="15.0" fill="rgb(0,0,0)" rx="2" ry="2" />
<text  x="523.76" y="177.5" >MatMult</text>
</g>
<g >
<title>firedrake.ufl_expr.adjoint (11,887 us, 0.10%)</title><rect x="298.5" y="103" width="1.2" height="15.0" fill="rgb(0,0,0)" rx="2" ry="2" />
<text  x="301.49" y="113.5" ></text>
</g>
<g >
<title>Log_Event_mtf_solve_41 (137,864 us, 1.21%)</title><rect x="502.1" y="215" width="14.2" height="15.0" fill="rgb(0,0,0)" rx="2" ry="2" />
<text  x="505.09" y="225.5" ></text>
</g>
<g >
<title>MatMult (1,511,698 us, 13.22%)</title><rect x="1003.6" y="231" width="156.0" height="15.0" fill="rgb(0,0,0)" rx="2" ry="2" />
<text  x="1006.63" y="241.5" >MatMult</text>
</g>
<g >
<title>Parloop_Cells_wrap_par_loop_kernel (34,707 us, 0.30%)</title><rect x="311.2" y="199" width="3.6" height="15.0" fill="rgb(0,0,0)" rx="2" ry="2" />
<text  x="314.19" y="209.5" ></text>
</g>
<g >
<title>Log_Event_mtf_solve_105 (45,223 us, 0.40%)</title><rect x="556.6" y="247" width="4.7" height="15.0" fill="rgb(0,0,0)" rx="2" ry="2" />
<text  x="559.64" y="257.5" ></text>
</g>
<g >
<title>Log_Event_tensorshell_knl_54 (129,195 us, 1.13%)</title><rect x="503.0" y="231" width="13.3" height="15.0" fill="rgb(0,0,0)" rx="2" ry="2" />
<text  x="505.98" y="241.5" ></text>
</g>
<g >
<title>Log_Event_subkernel95_cell_to__cell_integral_otherwise (16,759 us, 0.15%)</title><rect x="961.2" y="295" width="1.7" height="15.0" fill="rgb(0,0,0)" rx="2" ry="2" />
<text  x="964.19" y="305.5" ></text>
</g>
<g >
<title>Log_Event_subkernel109_cell_to__cell_integral_otherwise (16,766 us, 0.15%)</title><rect x="559.6" y="263" width="1.7" height="15.0" fill="rgb(0,0,0)" rx="2" ry="2" />
<text  x="562.57" y="273.5" ></text>
</g>
<g >
<title>Log_Event_subkernel22_cell_to__cell_integral_otherwise (32,312 us, 0.28%)</title><rect x="497.8" y="247" width="3.3" height="15.0" fill="rgb(0,0,0)" rx="2" ry="2" />
<text  x="500.80" y="257.5" ></text>
</g>
<g >
<title>ParLoopExecute (62,825 us, 0.55%)</title><rect x="300.5" y="151" width="6.5" height="15.0" fill="rgb(0,0,0)" rx="2" ry="2" />
<text  x="303.53" y="161.5" ></text>
</g>
<g >
<title>Parloop_Cells_wrap_slate_loopy_knl_0 (460,256 us, 4.02%)</title><rect x="473.3" y="183" width="47.5" height="15.0" fill="rgb(0,0,0)" rx="2" ry="2" />
<text  x="476.27" y="193.5" >Parl..</text>
</g>
<g >
<title>FunctionSpaceData: CreateElement (8,684 us, 0.08%)</title><rect x="1181.1" y="199" width="0.9" height="15.0" fill="rgb(0,0,0)" rx="2" ry="2" />
<text  x="1184.09" y="209.5" ></text>
</g>
<g >
<title>firedrake.functionspacedata.FunctionSpaceData.__init__ (6,421 us, 0.06%)</title><rect x="139.1" y="151" width="0.7" height="15.0" fill="rgb(0,0,0)" rx="2" ry="2" />
<text  x="142.10" y="161.5" ></text>
</g>
<g >
<title>Log_Event_tensorshell_knl_80 (108,926 us, 0.95%)</title><rect x="950.0" y="263" width="11.2" height="15.0" fill="rgb(0,0,0)" rx="2" ry="2" />
<text  x="952.95" y="273.5" ></text>
</g>
<g >
<title>Log_Event_subkernel17_cell_to__cell_integral_otherwise (28,808 us, 0.25%)</title><rect x="479.1" y="263" width="3.0" height="15.0" fill="rgb(0,0,0)" rx="2" ry="2" />
<text  x="482.12" y="273.5" ></text>
</g>
<g >
<title>Parloop_Cells_wrap_form0_cell_integral_otherwise (32,699 us, 0.29%)</title><rect x="300.5" y="167" width="3.4" height="15.0" fill="rgb(0,0,0)" rx="2" ry="2" />
<text  x="303.53" y="177.5" ></text>
</g>
<g >
<title>Log_Event_subkernel60_cell_to__cell_integral_otherwise (31,163 us, 0.27%)</title><rect x="506.6" y="263" width="3.3" height="15.0" fill="rgb(0,0,0)" rx="2" ry="2" />
<text  x="509.64" y="273.5" ></text>
</g>
<g >
<title>ParLoopExecute (33,479 us, 0.29%)</title><rect x="135.6" y="103" width="3.5" height="15.0" fill="rgb(0,0,0)" rx="2" ry="2" />
<text  x="138.65" y="113.5" ></text>
</g>
<g >
<title>Log_Event_subkernel98_cell_to__cell_integral_otherwise (16,114 us, 0.14%)</title><rect x="964.2" y="295" width="1.6" height="15.0" fill="rgb(0,0,0)" rx="2" ry="2" />
<text  x="967.16" y="305.5" ></text>
</g>
<g >
<title>firedrake.extrusion_utils.make_extruded_coords (63,947 us, 0.56%)</title><rect x="132.5" y="87" width="6.6" height="15.0" fill="rgb(0,0,0)" rx="2" ry="2" />
<text  x="135.51" y="97.5" ></text>
</g>
<g >
<title>Parloop_Cells_wrap_expression_kernel (33,451 us, 0.29%)</title><rect x="1163.2" y="183" width="3.5" height="15.0" fill="rgb(0,0,0)" rx="2" ry="2" />
<text  x="1166.24" y="193.5" ></text>
</g>
<g >
<title>PCApply (1,534,823 us, 13.42%)</title><rect x="1003.6" y="167" width="158.4" height="15.0" fill="rgb(0,0,0)" rx="2" ry="2" />
<text  x="1006.63" y="177.5" >PCApply</text>
</g>
<g >
<title>firedrake.__init__ (1,514,420 us, 13.24%)</title><rect x="142.2" y="71" width="156.3" height="15.0" fill="rgb(0,0,0)" rx="2" ry="2" />
<text  x="145.23" y="81.5" >firedrake.__init__</text>
</g>
<g >
<title>Log_Event_mtf_solve_94 (44,895 us, 0.39%)</title><rect x="961.2" y="279" width="4.6" height="15.0" fill="rgb(0,0,0)" rx="2" ry="2" />
<text  x="964.19" y="289.5" ></text>
</g>
<g >
<title>Log_Event_mtf_solve_1 (235,561 us, 2.06%)</title><rect x="477.8" y="215" width="24.3" height="15.0" fill="rgb(0,0,0)" rx="2" ry="2" />
<text  x="480.78" y="225.5" >L..</text>
</g>
<g >
<title>Log_Event_subkernel127_cell_to__cell_integral_otherwise (31,527 us, 0.28%)</title><rect x="579.5" y="295" width="3.3" height="15.0" fill="rgb(0,0,0)" rx="2" ry="2" />
<text  x="582.55" y="305.5" ></text>
</g>
<g >
<title>Log_Event_mtf_solve_113 (69,694 us, 0.61%)</title><rect x="561.3" y="247" width="7.2" height="15.0" fill="rgb(0,0,0)" rx="2" ry="2" />
<text  x="564.30" y="257.5" ></text>
</g>
<g >
<title>Parloop_Cells_wrap_slate_loopy_knl_77 (4,653,558 us, 40.69%)</title><rect x="523.5" y="215" width="480.1" height="15.0" fill="rgb(0,0,0)" rx="2" ry="2" />
<text  x="526.47" y="225.5" >Parloop_Cells_wrap_slate_loopy_knl_77</text>
</g>
<g >
<title>firedrake.formmanipulation.split_form (7,821 us, 0.07%)</title><rect x="1182.0" y="135" width="0.8" height="15.0" fill="rgb(0,0,0)" rx="2" ry="2" />
<text  x="1184.99" y="145.5" ></text>
</g>
<g >
<title>CreateFunctionSpace (7,821 us, 0.07%)</title><rect x="1182.0" y="183" width="0.8" height="15.0" fill="rgb(0,0,0)" rx="2" ry="2" />
<text  x="1184.99" y="193.5" ></text>
</g>
<g >
<title>Log_Event_tensorshell_knl_133 (3,377,786 us, 29.54%)</title><rect x="589.4" y="263" width="348.5" height="15.0" fill="rgb(0,0,0)" rx="2" ry="2" />
<text  x="592.39" y="273.5" >Log_Event_tensorshell_knl_133</text>
</g>
<g >
<title>Log_Event_subkernel88_cell_to__cell_integral_otherwise (19,551 us, 0.17%)</title><rect x="959.2" y="279" width="2.0" height="15.0" fill="rgb(0,0,0)" rx="2" ry="2" />
<text  x="962.18" y="289.5" ></text>
</g>
<g >
<title>Log_Event_tensorshell_knl_137 (31,965 us, 0.28%)</title><rect x="761.1" y="295" width="3.3" height="15.0" fill="rgb(0,0,0)" rx="2" ry="2" />
<text  x="764.08" y="305.5" ></text>
</g>
<g >
<title>firedrake.variational_solver.NonlinearVariationalSolver.solve (8,620,542 us, 75.38%)</title><rect x="300.5" y="71" width="889.5" height="15.0" fill="rgb(0,0,0)" rx="2" ry="2" />
<text  x="303.53" y="81.5" >firedrake.variational_solver.NonlinearVariationalSolver.solve</text>
</g>
<g >
<title>firedrake.matrix_free.operators.ImplicitMatrixContext.mult (4,679,860 us, 40.92%)</title><rect x="520.8" y="183" width="482.8" height="15.0" fill="rgb(0,0,0)" rx="2" ry="2" />
<text  x="523.76" y="193.5" >firedrake.matrix_free.operators.ImplicitMatrixContext.mult</text>
</g>
<g >
<title>Log_Event_subkernel124_cell_to__cell_integral_otherwise (16,834 us, 0.15%)</title><rect x="576.6" y="295" width="1.7" height="15.0" fill="rgb(0,0,0)" rx="2" ry="2" />
<text  x="579.58" y="305.5" ></text>
</g>
<g >
<title>SNESSolve (8,620,542 us, 75.38%)</title><rect x="300.5" y="87" width="889.5" height="15.0" fill="rgb(0,0,0)" rx="2" ry="2" />
<text  x="303.53" y="97.5" >SNESSolve</text>
</g>
<g >
<title>firedrake.tsfc_interface.compile_form (16,783 us, 0.15%)</title><rect x="1160.3" y="215" width="1.7" height="15.0" fill="rgb(0,0,0)" rx="2" ry="2" />
<text  x="1163.26" y="225.5" ></text>
</g>
<g >
<title>Log_Event_tensorshell_knl_121 (131,989 us, 1.15%)</title><rect x="575.8" y="263" width="13.6" height="15.0" fill="rgb(0,0,0)" rx="2" ry="2" />
<text  x="578.77" y="273.5" ></text>
</g>
<g >
<title>pyop2.global_kernel.GlobalKernel.compile (34,707 us, 0.30%)</title><rect x="311.2" y="215" width="3.6" height="15.0" fill="rgb(0,0,0)" rx="2" ry="2" />
<text  x="314.19" y="225.5" ></text>
</g>
<g >
<title>Log_Event_tensorshell_knl_14 (226,304 us, 1.98%)</title><rect x="477.8" y="231" width="23.3" height="15.0" fill="rgb(0,0,0)" rx="2" ry="2" />
<text  x="480.78" y="241.5" >L..</text>
</g>
<g >
<title>Log_Event_subkernel126_cell_to__cell_integral_otherwise (11,995 us, 0.10%)</title><rect x="578.3" y="295" width="1.2" height="15.0" fill="rgb(0,0,0)" rx="2" ry="2" />
<text  x="581.31" y="305.5" ></text>
</g>
<g >
<title>pyop2.global_kernel.GlobalKernel.compile (38,302 us, 0.33%)</title><rect x="1166.7" y="199" width="3.9" height="15.0" fill="rgb(0,0,0)" rx="2" ry="2" />
<text  x="1169.69" y="209.5" ></text>
</g>
<g >
<title>PCSetUp (1,534,823 us, 13.42%)</title><rect x="1003.6" y="183" width="158.4" height="15.0" fill="rgb(0,0,0)" rx="2" ry="2" />
<text  x="1006.63" y="193.5" >PCSetUp</text>
</g>
<g >
<title>PCApply (8,405,309 us, 73.50%)</title><rect x="310.5" y="119" width="867.3" height="15.0" fill="rgb(0,0,0)" rx="2" ry="2" />
<text  x="313.50" y="129.5" >PCApply</text>
</g>
<g >
<title>Log_Event_subkernel114_cell_to__cell_integral_otherwise (16,777 us, 0.15%)</title><rect x="562.2" y="263" width="1.7" height="15.0" fill="rgb(0,0,0)" rx="2" ry="2" />
<text  x="565.16" y="273.5" ></text>
</g>
<g >
<title>Log_Event_tensorshell_knl_140 (64,169 us, 0.56%)</title><rect x="764.4" y="295" width="6.6" height="15.0" fill="rgb(0,0,0)" rx="2" ry="2" />
<text  x="767.38" y="305.5" ></text>
</g>
<g >
<title>Log_Event_subkernel149_cell_to__cell_integral_otherwise (11,733 us, 0.10%)</title><rect x="940.5" y="263" width="1.2" height="15.0" fill="rgb(0,0,0)" rx="2" ry="2" />
<text  x="943.48" y="273.5" ></text>
</g>
<g >
<title>firedrake.functionspace.VectorFunctionSpace (6,421 us, 0.06%)</title><rect x="139.1" y="87" width="0.7" height="15.0" fill="rgb(0,0,0)" rx="2" ry="2" />
<text  x="142.10" y="97.5" ></text>
</g>
<g >
<title>Log_Event_subkernel100_cell_to__cell_integral_otherwise (19,416 us, 0.17%)</title><rect x="965.8" y="279" width="2.0" height="15.0" fill="rgb(0,0,0)" rx="2" ry="2" />
<text  x="968.82" y="289.5" ></text>
</g>
<g >
<title>firedrake.parloops.par_loop (41,446 us, 0.36%)</title><rect x="310.5" y="167" width="4.3" height="15.0" fill="rgb(0,0,0)" rx="2" ry="2" />
<text  x="313.50" y="177.5" ></text>
</g>
<g >
<title>MatMult (96,574 us, 0.84%)</title><rect x="300.5" y="119" width="10.0" height="15.0" fill="rgb(0,0,0)" rx="2" ry="2" />
<text  x="303.53" y="129.5" ></text>
</g>
<g >
<title>firedrake.functionspacedata.FunctionSpaceData.__init__ (8,684 us, 0.08%)</title><rect x="1181.1" y="183" width="0.9" height="15.0" fill="rgb(0,0,0)" rx="2" ry="2" />
<text  x="1184.09" y="193.5" ></text>
</g>
<g >
<title>firedrake.tsfc_interface.compile_form (33,749 us, 0.30%)</title><rect x="307.0" y="151" width="3.5" height="15.0" fill="rgb(0,0,0)" rx="2" ry="2" />
<text  x="310.01" y="161.5" ></text>
</g>
<g >
<title>KSPSolve (1,511,698 us, 13.22%)</title><rect x="1003.6" y="215" width="156.0" height="15.0" fill="rgb(0,0,0)" rx="2" ry="2" />
<text  x="1006.63" y="225.5" >KSPSolve</text>
</g>
<g >
<title>Log_Event_subkernel85_cell_to__cell_integral_otherwise (12,077 us, 0.11%)</title><rect x="951.7" y="295" width="1.2" height="15.0" fill="rgb(0,0,0)" rx="2" ry="2" />
<text  x="954.69" y="305.5" ></text>
</g>
<g >
<title>firedrake.functionspaceimpl.FunctionSpace.__init__ (8,684 us, 0.08%)</title><rect x="1181.1" y="151" width="0.9" height="15.0" fill="rgb(0,0,0)" rx="2" ry="2" />
<text  x="1184.09" y="161.5" ></text>
</g>
<g >
<title>HybridRHS (1,996,379 us, 17.46%)</title><rect x="314.8" y="151" width="206.0" height="15.0" fill="rgb(0,0,0)" rx="2" ry="2" />
<text  x="317.77" y="161.5" >HybridRHS</text>
</g>
<g >
<title>firedrake.functionspacedata.get_shared_data (8,684 us, 0.08%)</title><rect x="1181.1" y="167" width="0.9" height="15.0" fill="rgb(0,0,0)" rx="2" ry="2" />
<text  x="1184.09" y="177.5" ></text>
</g>
<g >
<title>Log_Event_subkernel132_interior_facet_vert_to__exterior_facet_vert_integral_otherwise (13,637 us, 0.12%)</title><rect x="574.4" y="263" width="1.4" height="15.0" fill="rgb(0,0,0)" rx="2" ry="2" />
<text  x="577.36" y="273.5" ></text>
</g>
<g >
<title>Log_Event_subkernel93_cell_to__cell_integral_otherwise (44,205 us, 0.39%)</title><rect x="967.8" y="279" width="4.6" height="15.0" fill="rgb(0,0,0)" rx="2" ry="2" />
<text  x="970.83" y="289.5" ></text>
</g>
<g >
<title>CreateFunctionSpace (23,864 us, 0.21%)</title><rect x="139.8" y="71" width="2.4" height="15.0" fill="rgb(0,0,0)" rx="2" ry="2" />
<text  x="142.77" y="81.5" ></text>
</g>
<g >
<title>Log_Event_subkernel116_cell_to__cell_integral_otherwise (11,782 us, 0.10%)</title><rect x="563.9" y="263" width="1.2" height="15.0" fill="rgb(0,0,0)" rx="2" ry="2" />
<text  x="566.89" y="273.5" ></text>
</g>
<g >
<title>firedrake.matrix_free.operators.ImplicitMatrixContext.mult (96,574 us, 0.84%)</title><rect x="300.5" y="135" width="10.0" height="15.0" fill="rgb(0,0,0)" rx="2" ry="2" />
<text  x="303.53" y="145.5" ></text>
</g>
<g >
<title>firedrake.matrix_free.operators.ImplicitMatrixContext.__init__ (7,925 us, 0.07%)</title><rect x="299.7" y="103" width="0.8" height="15.0" fill="rgb(0,0,0)" rx="2" ry="2" />
<text  x="302.71" y="113.5" ></text>
</g>
<g >
<title>firedrake.assemble.allocate_matrix (7,925 us, 0.07%)</title><rect x="299.7" y="87" width="0.8" height="15.0" fill="rgb(0,0,0)" rx="2" ry="2" />
<text  x="302.71" y="97.5" ></text>
</g>
<g >
<title>Log_Event_subkernel117_cell_to__cell_integral_otherwise (32,828 us, 0.29%)</title><rect x="565.1" y="263" width="3.4" height="15.0" fill="rgb(0,0,0)" rx="2" ry="2" />
<text  x="568.11" y="273.5" ></text>
</g>
<g >
<title>PCSetUp (152,801 us, 1.34%)</title><rect x="1162.0" y="151" width="15.8" height="15.0" fill="rgb(0,0,0)" rx="2" ry="2" />
<text  x="1164.99" y="161.5" ></text>
</g>
<g >
<title>firedrake.tsfc_interface.compile_form (17,286 us, 0.15%)</title><rect x="1176.0" y="167" width="1.8" height="15.0" fill="rgb(0,0,0)" rx="2" ry="2" />
<text  x="1178.97" y="177.5" ></text>
</g>
<g >
<title>FunctionSpaceData: CreateElement (11,504 us, 0.10%)</title><rect x="141.0" y="135" width="1.2" height="15.0" fill="rgb(0,0,0)" rx="2" ry="2" />
<text  x="144.04" y="145.5" ></text>
</g>
<g >
<title>SCForwardElim (2,037,825 us, 17.82%)</title><rect x="310.5" y="135" width="210.3" height="15.0" fill="rgb(0,0,0)" rx="2" ry="2" />
<text  x="313.50" y="145.5" >SCForwardElim</text>
</g>
<g >
<title>pyop2.global_kernel.GlobalKernel.compile (43,067 us, 0.38%)</title><rect x="516.3" y="199" width="4.5" height="15.0" fill="rgb(0,0,0)" rx="2" ry="2" />
<text  x="519.31" y="209.5" ></text>
</g>
<g >
<title>KSPSolve (8,501,883 us, 74.34%)</title><rect x="300.5" y="103" width="877.3" height="15.0" fill="rgb(0,0,0)" rx="2" ry="2" />
<text  x="303.53" y="113.5" >KSPSolve</text>
</g>
<g >
<title>Log_Event_subkernel19_cell_to__cell_integral_otherwise (20,130 us, 0.18%)</title><rect x="482.1" y="263" width="2.1" height="15.0" fill="rgb(0,0,0)" rx="2" ry="2" />
<text  x="485.09" y="273.5" ></text>
</g>
<g >
<title>PCSetUp (23,125 us, 0.20%)</title><rect x="1159.6" y="199" width="2.4" height="15.0" fill="rgb(0,0,0)" rx="2" ry="2" />
<text  x="1162.60" y="209.5" ></text>
</g>
<g >
<title>firedrake (11,436,304 us, 100.00%)</title><rect x="10.0" y="55" width="1180.0" height="15.0" fill="rgb(0,0,0)" rx="2" ry="2" />
<text  x="13.00" y="65.5" >firedrake</text>
</g>
<g >
<title>Log_Event_mtf_solve_123 (68,183 us, 0.60%)</title><rect x="575.8" y="279" width="7.0" height="15.0" fill="rgb(0,0,0)" rx="2" ry="2" />
<text  x="578.77" y="289.5" ></text>
</g>
<g >
<title>Log_Event_subkernel20_cell_to__cell_integral_otherwise (55,018 us, 0.48%)</title><rect x="484.2" y="263" width="5.6" height="15.0" fill="rgb(0,0,0)" rx="2" ry="2" />
<text  x="487.17" y="273.5" ></text>
</g>
<g >
<title>Log_Event_mtf_solve_79 (264,609 us, 2.31%)</title><rect x="945.1" y="247" width="27.3" height="15.0" fill="rgb(0,0,0)" rx="2" ry="2" />
<text  x="948.09" y="257.5" >L..</text>
</g>
<g >
<title>Log_Event_subkernel141_cell_to__cell_integral_otherwise (476,898 us, 4.17%)</title><rect x="888.7" y="279" width="49.2" height="15.0" fill="rgb(0,0,0)" rx="2" ry="2" />
<text  x="891.70" y="289.5" >Log_..</text>
</g>
<g >
<title>Log_Event_subkernel106_cell_to__cell_integral_otherwise (16,781 us, 0.15%)</title><rect x="556.6" y="263" width="1.8" height="15.0" fill="rgb(0,0,0)" rx="2" ry="2" />
<text  x="559.64" y="273.5" ></text>
</g>
<g >
<title>Log_Event_subkernel139_cell_to__cell_integral_otherwise (816,042 us, 7.14%)</title><rect x="676.9" y="295" width="84.2" height="15.0" fill="rgb(0,0,0)" rx="2" ry="2" />
<text  x="679.88" y="305.5" >Log_Even..</text>
</g>
<g >
<title>Parloop_Cells_wrap_pyop2_kernel_uniform_extrusion (33,479 us, 0.29%)</title><rect x="135.6" y="119" width="3.5" height="15.0" fill="rgb(0,0,0)" rx="2" ry="2" />
<text  x="138.65" y="129.5" ></text>
</g>
<g >
<title>Log_Event_mtf_solve_16 (116,920 us, 1.02%)</title><rect x="477.8" y="247" width="12.0" height="15.0" fill="rgb(0,0,0)" rx="2" ry="2" />
<text  x="480.78" y="257.5" ></text>
</g>
<g >
<title>firedrake.functionspaceimpl.FunctionSpace.__init__ (6,421 us, 0.06%)</title><rect x="139.1" y="119" width="0.7" height="15.0" fill="rgb(0,0,0)" rx="2" ry="2" />
<text  x="142.10" y="129.5" ></text>
</g>
<g >
<title>Log_Event_mtf_solve_82 (45,009 us, 0.39%)</title><rect x="950.0" y="279" width="4.6" height="15.0" fill="rgb(0,0,0)" rx="2" ry="2" />
<text  x="952.95" y="289.5" ></text>
</g>
<g >
<title>firedrake.formmanipulation.ExtractSubBlock.split (7,821 us, 0.07%)</title><rect x="1182.0" y="151" width="0.8" height="15.0" fill="rgb(0,0,0)" rx="2" ry="2" />
<text  x="1184.99" y="161.5" ></text>
</g>
<g >
<title>Log_Event_slate_loopy_knl_77 (4,596,069 us, 40.19%)</title><rect x="529.4" y="231" width="474.2" height="15.0" fill="rgb(0,0,0)" rx="2" ry="2" />
<text  x="532.40" y="241.5" >Log_Event_slate_loopy_knl_77</text>
</g>
</g>
</svg>
