<?xml version="1.0" standalone="no"?>
<!DOCTYPE svg PUBLIC "-//W3C//DTD SVG 1.1//EN" "http://www.w3.org/Graphics/SVG/1.1/DTD/svg11.dtd">
<svg version="1.1" width="1200" height="331" onload="init(evt)" viewBox="0 0 1200 331" xmlns="http://www.w3.org/2000/svg" xmlns:xlink="http://www.w3.org/1999/xlink">
<!-- Flame graph stack visualization. See https://github.com/brendangregg/FlameGraph for latest version, and http://www.brendangregg.com/flamegraphs.html for examples. -->
<!-- NOTES:  -->
<defs>
	<linearGradient id="background" y1="0" y2="1" x1="0" x2="0" >
		<stop stop-color="#eeeeee" offset="5%" />
		<stop stop-color="#eeeeb0" offset="95%" />
	</linearGradient>
</defs>
<style type="text/css">
	text { font-family:Verdana; font-size:13px; fill:rgb(0,0,0); }
	#search, #ignorecase { opacity:0.1; cursor:pointer; }
	#search:hover, #search.show, #ignorecase:hover, #ignorecase.show { opacity:1; }
	#subtitle { text-anchor:middle; font-color:rgb(160,160,160); }
	#title { text-anchor:middle; font-size:18px}
	#unzoom { cursor:pointer; }
	#frames > *:hover { stroke:black; stroke-width:0.5; cursor:pointer; }
	.hide { display:none; }
	.parent { opacity:0.5; }
</style>
<script type="text/ecmascript">
<![CDATA[
	"use strict";
	var details, searchbtn, unzoombtn, matchedtxt, svg, searching, currentSearchTerm, ignorecase, ignorecaseBtn;
	function init(evt) {
		details = document.getElementById("details").firstChild;
		searchbtn = document.getElementById("search");
		ignorecaseBtn = document.getElementById("ignorecase");
		unzoombtn = document.getElementById("unzoom");
		matchedtxt = document.getElementById("matched");
		svg = document.getElementsByTagName("svg")[0];
		searching = 0;
		currentSearchTerm = null;

		// use GET parameters to restore a flamegraphs state.
		var params = get_params();
		if (params.x && params.y)
			zoom(find_group(document.querySelector('[x="' + params.x + '"][y="' + params.y + '"]')));
                if (params.s) search(params.s);
	}

	// event listeners
	window.addEventListener("click", function(e) {
		var target = find_group(e.target);
		if (target) {
			if (target.nodeName == "a") {
				if (e.ctrlKey === false) return;
				e.preventDefault();
			}
			if (target.classList.contains("parent")) unzoom();
			zoom(target);
			if (!document.querySelector('.parent')) {
				clearzoom();
				return;
			}

			// set parameters for zoom state
			var el = target.querySelector("rect");
			if (el && el.attributes && el.attributes.y && el.attributes._orig_x) {
				var params = get_params()
				params.x = el.attributes._orig_x.value;
				params.y = el.attributes.y.value;
				history.replaceState(null, null, parse_params(params));
			}
		}
		else if (e.target.id == "unzoom") clearzoom();
		else if (e.target.id == "search") search_prompt();
		else if (e.target.id == "ignorecase") toggle_ignorecase();
	}, false)

	// mouse-over for info
	// show
	window.addEventListener("mouseover", function(e) {
		var target = find_group(e.target);
		if (target) details.nodeValue = "Function: " + g_to_text(target);
	}, false)

	// clear
	window.addEventListener("mouseout", function(e) {
		var target = find_group(e.target);
		if (target) details.nodeValue = ' ';
	}, false)

	// ctrl-F for search
	// ctrl-I to toggle case-sensitive search
	window.addEventListener("keydown",function (e) {
		if (e.keyCode === 114 || (e.ctrlKey && e.keyCode === 70)) {
			e.preventDefault();
			search_prompt();
		}
		else if (e.ctrlKey && e.keyCode === 73) {
			e.preventDefault();
			toggle_ignorecase();
		}
	}, false)

	// functions
	function get_params() {
		var params = {};
		var paramsarr = window.location.search.substr(1).split('&');
		for (var i = 0; i < paramsarr.length; ++i) {
			var tmp = paramsarr[i].split("=");
			if (!tmp[0] || !tmp[1]) continue;
			params[tmp[0]]  = decodeURIComponent(tmp[1]);
		}
		return params;
	}
	function parse_params(params) {
		var uri = "?";
		for (var key in params) {
			uri += key + '=' + encodeURIComponent(params[key]) + '&';
		}
		if (uri.slice(-1) == "&")
			uri = uri.substring(0, uri.length - 1);
		if (uri == '?')
			uri = window.location.href.split('?')[0];
		return uri;
	}
	function find_child(node, selector) {
		var children = node.querySelectorAll(selector);
		if (children.length) return children[0];
	}
	function find_group(node) {
		var parent = node.parentElement;
		if (!parent) return;
		if (parent.id == "frames") return node;
		return find_group(parent);
	}
	function orig_save(e, attr, val) {
		if (e.attributes["_orig_" + attr] != undefined) return;
		if (e.attributes[attr] == undefined) return;
		if (val == undefined) val = e.attributes[attr].value;
		e.setAttribute("_orig_" + attr, val);
	}
	function orig_load(e, attr) {
		if (e.attributes["_orig_"+attr] == undefined) return;
		e.attributes[attr].value = e.attributes["_orig_" + attr].value;
		e.removeAttribute("_orig_"+attr);
	}
	function g_to_text(e) {
		var text = find_child(e, "title").firstChild.nodeValue;
		return (text)
	}
	function g_to_func(e) {
		var func = g_to_text(e);
		// if there's any manipulation we want to do to the function
		// name before it's searched, do it here before returning.
		return (func);
	}
	function update_text(e) {
		var r = find_child(e, "rect");
		var t = find_child(e, "text");
		var w = parseFloat(r.attributes.width.value) -3;
		var txt = find_child(e, "title").textContent.replace(/\([^(]*\)$/,"");
		t.attributes.x.value = parseFloat(r.attributes.x.value) + 3;

		// Smaller than this size won't fit anything
		if (w < 2 * 13 * 0.59) {
			t.textContent = "";
			return;
		}

		t.textContent = txt;
		// Fit in full text width
		if (/^ *$/.test(txt) || t.getSubStringLength(0, txt.length) < w)
			return;

		for (var x = txt.length - 2; x > 0; x--) {
			if (t.getSubStringLength(0, x + 2) <= w) {
				t.textContent = txt.substring(0, x) + "..";
				return;
			}
		}
		t.textContent = "";
	}

	// zoom
	function zoom_reset(e) {
		if (e.attributes != undefined) {
			orig_load(e, "x");
			orig_load(e, "width");
		}
		if (e.childNodes == undefined) return;
		for (var i = 0, c = e.childNodes; i < c.length; i++) {
			zoom_reset(c[i]);
		}
	}
	function zoom_child(e, x, ratio) {
		if (e.attributes != undefined) {
			if (e.attributes.x != undefined) {
				orig_save(e, "x");
				e.attributes.x.value = (parseFloat(e.attributes.x.value) - x - 10) * ratio + 10;
				if (e.tagName == "text")
					e.attributes.x.value = find_child(e.parentNode, "rect[x]").attributes.x.value + 3;
			}
			if (e.attributes.width != undefined) {
				orig_save(e, "width");
				e.attributes.width.value = parseFloat(e.attributes.width.value) * ratio;
			}
		}

		if (e.childNodes == undefined) return;
		for (var i = 0, c = e.childNodes; i < c.length; i++) {
			zoom_child(c[i], x - 10, ratio);
		}
	}
	function zoom_parent(e) {
		if (e.attributes) {
			if (e.attributes.x != undefined) {
				orig_save(e, "x");
				e.attributes.x.value = 10;
			}
			if (e.attributes.width != undefined) {
				orig_save(e, "width");
				e.attributes.width.value = parseInt(svg.width.baseVal.value) - (10 * 2);
			}
		}
		if (e.childNodes == undefined) return;
		for (var i = 0, c = e.childNodes; i < c.length; i++) {
			zoom_parent(c[i]);
		}
	}
	function zoom(node) {
		var attr = find_child(node, "rect").attributes;
		var width = parseFloat(attr.width.value);
		var xmin = parseFloat(attr.x.value);
		var xmax = parseFloat(xmin + width);
		var ymin = parseFloat(attr.y.value);
		var ratio = (svg.width.baseVal.value - 2 * 10) / width;

		// XXX: Workaround for JavaScript float issues (fix me)
		var fudge = 0.0001;

		unzoombtn.classList.remove("hide");

		var el = document.getElementById("frames").children;
		for (var i = 0; i < el.length; i++) {
			var e = el[i];
			var a = find_child(e, "rect").attributes;
			var ex = parseFloat(a.x.value);
			var ew = parseFloat(a.width.value);
			var upstack;
			// Is it an ancestor
			if (1 == 0) {
				upstack = parseFloat(a.y.value) > ymin;
			} else {
				upstack = parseFloat(a.y.value) < ymin;
			}
			if (upstack) {
				// Direct ancestor
				if (ex <= xmin && (ex+ew+fudge) >= xmax) {
					e.classList.add("parent");
					zoom_parent(e);
					update_text(e);
				}
				// not in current path
				else
					e.classList.add("hide");
			}
			// Children maybe
			else {
				// no common path
				if (ex < xmin || ex + fudge >= xmax) {
					e.classList.add("hide");
				}
				else {
					zoom_child(e, xmin, ratio);
					update_text(e);
				}
			}
		}
		search();
	}
	function unzoom() {
		unzoombtn.classList.add("hide");
		var el = document.getElementById("frames").children;
		for(var i = 0; i < el.length; i++) {
			el[i].classList.remove("parent");
			el[i].classList.remove("hide");
			zoom_reset(el[i]);
			update_text(el[i]);
		}
		search();
	}
	function clearzoom() {
		unzoom();

		// remove zoom state
		var params = get_params();
		if (params.x) delete params.x;
		if (params.y) delete params.y;
		history.replaceState(null, null, parse_params(params));
	}

	// search
	function toggle_ignorecase() {
		ignorecase = !ignorecase;
		if (ignorecase) {
			ignorecaseBtn.classList.add("show");
		} else {
			ignorecaseBtn.classList.remove("show");
		}
		reset_search();
		search();
	}
	function reset_search() {
		var el = document.querySelectorAll("#frames rect");
		for (var i = 0; i < el.length; i++) {
			orig_load(el[i], "fill")
		}
		var params = get_params();
		delete params.s;
		history.replaceState(null, null, parse_params(params));
	}
	function search_prompt() {
		if (!searching) {
			var term = prompt("Enter a search term (regexp " +
			    "allowed, eg: ^ext4_)"
			    + (ignorecase ? ", ignoring case" : "")
			    + "\nPress Ctrl-i to toggle case sensitivity", "");
			if (term != null) search(term);
		} else {
			reset_search();
			searching = 0;
			currentSearchTerm = null;
			searchbtn.classList.remove("show");
			searchbtn.firstChild.nodeValue = "Search"
			matchedtxt.classList.add("hide");
			matchedtxt.firstChild.nodeValue = ""
		}
	}
	function search(term) {
		if (term) currentSearchTerm = term;

		var re = new RegExp(currentSearchTerm, ignorecase ? 'i' : '');
		var el = document.getElementById("frames").children;
		var matches = new Object();
		var maxwidth = 0;
		for (var i = 0; i < el.length; i++) {
			var e = el[i];
			var func = g_to_func(e);
			var rect = find_child(e, "rect");
			if (func == null || rect == null)
				continue;

			// Save max width. Only works as we have a root frame
			var w = parseFloat(rect.attributes.width.value);
			if (w > maxwidth)
				maxwidth = w;

			if (func.match(re)) {
				// highlight
				var x = parseFloat(rect.attributes.x.value);
				orig_save(rect, "fill");
				rect.attributes.fill.value = "rgb(230,0,230)";

				// remember matches
				if (matches[x] == undefined) {
					matches[x] = w;
				} else {
					if (w > matches[x]) {
						// overwrite with parent
						matches[x] = w;
					}
				}
				searching = 1;
			}
		}
		if (!searching)
			return;
		var params = get_params();
		params.s = currentSearchTerm;
		history.replaceState(null, null, parse_params(params));

		searchbtn.classList.add("show");
		searchbtn.firstChild.nodeValue = "Reset Search";

		// calculate percent matched, excluding vertical overlap
		var count = 0;
		var lastx = -1;
		var lastw = 0;
		var keys = Array();
		for (k in matches) {
			if (matches.hasOwnProperty(k))
				keys.push(k);
		}
		// sort the matched frames by their x location
		// ascending, then width descending
		keys.sort(function(a, b){
			return a - b;
		});
		// Step through frames saving only the biggest bottom-up frames
		// thanks to the sort order. This relies on the tree property
		// where children are always smaller than their parents.
		var fudge = 0.0001;	// JavaScript floating point
		for (var k in keys) {
			var x = parseFloat(keys[k]);
			var w = matches[keys[k]];
			if (x >= lastx + lastw - fudge) {
				count += w;
				lastx = x;
				lastw = w;
			}
		}
		// display matched percent
		matchedtxt.classList.remove("hide");
		var pct = 100 * count / maxwidth;
		if (pct != 100) pct = pct.toFixed(1)
		matchedtxt.firstChild.nodeValue = "Matched: " + pct + "%";
	}
]]>
</script>
<rect x="0.0" y="0" width="1200.0" height="331.0" fill="url(#background)"  />
<text id="title" x="600.00" y="26" >Firedrake example</text>
<text id="details" x="10.00" y="313" > </text>
<text id="unzoom" x="10.00" y="26" class="hide">Reset Zoom</text>
<text id="search" x="1090.00" y="26" >Search</text>
<text id="ignorecase" x="1174.00" y="26" >ic</text>
<text id="matched" x="1090.00" y="313" > </text>
<g id="frames">
<g >
<title>MatMult (4,295,286 us, 0.49%)</title><rect x="1030.7" y="231" width="5.8" height="15.0" fill="rgb(0,0,0)" rx="2" ry="2" />
<text  x="1033.68" y="241.5" ></text>
</g>
<g >
<title>PCGAMG Gal l00 (1,547,368 us, 0.18%)</title><rect x="1028.6" y="183" width="2.1" height="15.0" fill="rgb(0,0,0)" rx="2" ry="2" />
<text  x="1031.60" y="193.5" ></text>
</g>
<g >
<title>MatMult (11,381,949 us, 1.30%)</title><rect x="1030.7" y="199" width="15.3" height="15.0" fill="rgb(0,0,0)" rx="2" ry="2" />
<text  x="1033.68" y="209.5" ></text>
</g>
<g >
<title>MatZeroEntries (739,751 us, 0.08%)</title><rect x="1121.0" y="119" width="1.0" height="15.0" fill="rgb(0,0,0)" rx="2" ry="2" />
<text  x="1123.96" y="129.5" ></text>
</g>
<g >
<title>MatZeroInitial (26,107,898 us, 2.98%)</title><rect x="325.9" y="103" width="35.2" height="15.0" fill="rgb(0,0,0)" rx="2" ry="2" />
<text  x="328.87" y="113.5" >Ma..</text>
</g>
<g >
<title>MatAssemblyEnd (139,537 us, 0.02%)</title><rect x="1065.3" y="135" width="0.2" height="15.0" fill="rgb(0,0,0)" rx="2" ry="2" />
<text  x="1068.31" y="145.5" ></text>
</g>
<g >
<title>PCApply (1,948,132 us, 0.22%)</title><rect x="154.9" y="135" width="2.7" height="15.0" fill="rgb(0,0,0)" rx="2" ry="2" />
<text  x="157.95" y="145.5" ></text>
</g>
<g >
<title>KSPSolve (517,906,298 us, 59.19%)</title><rect x="361.1" y="103" width="698.5" height="15.0" fill="rgb(0,0,0)" rx="2" ry="2" />
<text  x="364.08" y="113.5" >KSPSolve</text>
</g>
<g >
<title>MatTrnMatMultSym (102,634,467 us, 11.73%)</title><rect x="867.0" y="215" width="138.4" height="15.0" fill="rgb(0,0,0)" rx="2" ry="2" />
<text  x="870.01" y="225.5" >MatTrnMatMultSym</text>
</g>
<g >
<title>PCApply (15,322,891 us, 1.75%)</title><rect x="415.4" y="167" width="20.6" height="15.0" fill="rgb(0,0,0)" rx="2" ry="2" />
<text  x="418.36" y="177.5" ></text>
</g>
<g >
<title>MatMult (8,462,024 us, 0.97%)</title><rect x="853.2" y="215" width="11.5" height="15.0" fill="rgb(0,0,0)" rx="2" ry="2" />
<text  x="856.24" y="225.5" ></text>
</g>
<g >
<title>KSPSolve (76,530,650 us, 8.75%)</title><rect x="603.1" y="247" width="103.2" height="15.0" fill="rgb(0,0,0)" rx="2" ry="2" />
<text  x="606.09" y="257.5" >KSPSolve</text>
</g>
<g >
<title>firedrake.tsfc_interface.compile_form (1,733,481 us, 0.20%)</title><rect x="1187.7" y="119" width="2.3" height="15.0" fill="rgb(0,0,0)" rx="2" ry="2" />
<text  x="1190.66" y="129.5" ></text>
</g>
<g >
<title>MatMultAdd (315,234 us, 0.04%)</title><rect x="1045.6" y="215" width="0.4" height="15.0" fill="rgb(0,0,0)" rx="2" ry="2" />
<text  x="1048.61" y="225.5" ></text>
</g>
<g >
<title>ParLoopExecute (26,839,198 us, 3.07%)</title><rect x="21.9" y="119" width="36.2" height="15.0" fill="rgb(0,0,0)" rx="2" ry="2" />
<text  x="24.93" y="129.5" >Pa..</text>
</g>
<g >
<title>Log_Event_form01_cell_integral_otherwise (642,895 us, 0.07%)</title><rect x="1159.3" y="151" width="0.8" height="15.0" fill="rgb(0,0,0)" rx="2" ry="2" />
<text  x="1162.27" y="161.5" ></text>
</g>
<g >
<title>MatMult (8,457,990 us, 0.97%)</title><rect x="1048.2" y="135" width="11.4" height="15.0" fill="rgb(0,0,0)" rx="2" ry="2" />
<text  x="1051.17" y="145.5" ></text>
</g>
<g >
<title>firedrake.norms.norm (11,419,121 us, 1.31%)</title><rect x="193.6" y="87" width="15.4" height="15.0" fill="rgb(0,0,0)" rx="2" ry="2" />
<text  x="196.56" y="97.5" ></text>
</g>
<g >
<title>pyop2.global_kernel.GlobalKernel.compile (18,409,079 us, 2.10%)</title><rect x="33.3" y="151" width="24.8" height="15.0" fill="rgb(0,0,0)" rx="2" ry="2" />
<text  x="36.29" y="161.5" >p..</text>
</g>
<g >
<title>MatSolve (1,948,132 us, 0.22%)</title><rect x="154.9" y="183" width="2.7" height="15.0" fill="rgb(0,0,0)" rx="2" ry="2" />
<text  x="157.95" y="193.5" ></text>
</g>
<g >
<title>MatResidual (40,105,204 us, 4.58%)</title><rect x="812.1" y="183" width="54.1" height="15.0" fill="rgb(0,0,0)" rx="2" ry="2" />
<text  x="815.07" y="193.5" >MatRe..</text>
</g>
<g >
<title>PCApply (4,356,818 us, 0.50%)</title><rect x="1036.5" y="231" width="5.9" height="15.0" fill="rgb(0,0,0)" rx="2" ry="2" />
<text  x="1039.48" y="241.5" ></text>
</g>
<g >
<title>MatAssemblyEnd (440,707 us, 0.05%)</title><rect x="325.3" y="103" width="0.6" height="15.0" fill="rgb(0,0,0)" rx="2" ry="2" />
<text  x="328.27" y="113.5" ></text>
</g>
<g >
<title>GAMG: createProl (120,439,512 us, 13.77%)</title><rect x="866.2" y="167" width="162.4" height="15.0" fill="rgb(0,0,0)" rx="2" ry="2" />
<text  x="869.16" y="177.5" >GAMG: createProl</text>
</g>
<g >
<title>pyop2.global_kernel.GlobalKernel.compile (8,016,124 us, 0.92%)</title><rect x="1160.1" y="151" width="10.9" height="15.0" fill="rgb(0,0,0)" rx="2" ry="2" />
<text  x="1163.14" y="161.5" ></text>
</g>
<g >
<title>pyop2.global_kernel.GlobalKernel.compile (392,057 us, 0.04%)</title><rect x="15.1" y="151" width="0.5" height="15.0" fill="rgb(0,0,0)" rx="2" ry="2" />
<text  x="18.06" y="161.5" ></text>
</g>
<g >
<title>Log_Event_form1_cell_integral_otherwise (130,870 us, 0.01%)</title><rect x="1114.2" y="151" width="0.2" height="15.0" fill="rgb(0,0,0)" rx="2" ry="2" />
<text  x="1117.23" y="161.5" ></text>
</g>
<g >
<title>VecAYPX (154,057 us, 0.02%)</title><rect x="706.3" y="231" width="0.2" height="15.0" fill="rgb(0,0,0)" rx="2" ry="2" />
<text  x="709.31" y="241.5" ></text>
</g>
<g >
<title>firedrake.extrusion_utils.make_extruded_coords (921,474 us, 0.11%)</title><rect x="11.3" y="87" width="1.2" height="15.0" fill="rgb(0,0,0)" rx="2" ry="2" />
<text  x="14.30" y="97.5" ></text>
</g>
<g >
<title>MatMult (2,414,611 us, 0.28%)</title><rect x="1042.4" y="215" width="3.2" height="15.0" fill="rgb(0,0,0)" rx="2" ry="2" />
<text  x="1045.35" y="225.5" ></text>
</g>
<g >
<title>MatScale (378,333 us, 0.04%)</title><rect x="1023.5" y="215" width="0.6" height="15.0" fill="rgb(0,0,0)" rx="2" ry="2" />
<text  x="1026.54" y="225.5" ></text>
</g>
<g >
<title>MatPtAPSymbolic (383,644 us, 0.04%)</title><rect x="1030.2" y="199" width="0.5" height="15.0" fill="rgb(0,0,0)" rx="2" ry="2" />
<text  x="1033.17" y="209.5" ></text>
</g>
<g >
<title>PCGAMG Squ l00 (102,634,467 us, 11.73%)</title><rect x="867.0" y="199" width="138.4" height="15.0" fill="rgb(0,0,0)" rx="2" ry="2" />
<text  x="870.01" y="209.5" >PCGAMG Squ l00</text>
</g>
<g >
<title>Parloop_Cells_wrap_form00_cell_integral_otherwise (26,839,198 us, 3.07%)</title><rect x="21.9" y="135" width="36.2" height="15.0" fill="rgb(0,0,0)" rx="2" ry="2" />
<text  x="24.93" y="145.5" >Pa..</text>
</g>
<g >
<title>ParLoopExecute (48,714,391 us, 5.57%)</title><rect x="1122.0" y="119" width="65.7" height="15.0" fill="rgb(0,0,0)" rx="2" ry="2" />
<text  x="1124.96" y="129.5" >ParLoo..</text>
</g>
<g >
<title>all (874,916,428 us, 100%)</title><rect x="10.0" y="39" width="1180.0" height="15.0" fill="rgb(0,0,0)" rx="2" ry="2" />
<text  x="13.00" y="49.5" ></text>
</g>
<g >
<title>KSPSolve (30,501,882 us, 3.49%)</title><rect x="394.9" y="151" width="41.1" height="15.0" fill="rgb(0,0,0)" rx="2" ry="2" />
<text  x="397.89" y="161.5" >KSP..</text>
</g>
<g >
<title>PCApply (15,309,644 us, 1.75%)</title><rect x="832.6" y="263" width="20.6" height="15.0" fill="rgb(0,0,0)" rx="2" ry="2" />
<text  x="835.59" y="273.5" ></text>
</g>
<g >
<title>pyop2.global_kernel.GlobalKernel.compile (921,474 us, 0.11%)</title><rect x="11.3" y="135" width="1.2" height="15.0" fill="rgb(0,0,0)" rx="2" ry="2" />
<text  x="14.30" y="145.5" ></text>
</g>
<g >
<title>MatAssemblyEnd (136,488 us, 0.02%)</title><rect x="1090.0" y="135" width="0.2" height="15.0" fill="rgb(0,0,0)" rx="2" ry="2" />
<text  x="1093.02" y="145.5" ></text>
</g>
<g >
<title>KSPSolve (30,163,021 us, 3.45%)</title><rect x="771.4" y="215" width="40.7" height="15.0" fill="rgb(0,0,0)" rx="2" ry="2" />
<text  x="774.39" y="225.5" >KSP..</text>
</g>
<g >
<title>MatLUFactorNum (16,217,726 us, 1.85%)</title><rect x="479.1" y="183" width="21.9" height="15.0" fill="rgb(0,0,0)" rx="2" ry="2" />
<text  x="482.12" y="193.5" ></text>
</g>
<g >
<title>pyop2.global_kernel.GlobalKernel.compile (16,400,997 us, 1.87%)</title><rect x="1133.3" y="151" width="22.1" height="15.0" fill="rgb(0,0,0)" rx="2" ry="2" />
<text  x="1136.31" y="161.5" ></text>
</g>
<g >
<title>KSPSolve_FS_Schu (405,707,753 us, 46.37%)</title><rect x="501.0" y="135" width="547.2" height="15.0" fill="rgb(0,0,0)" rx="2" ry="2" />
<text  x="503.99" y="145.5" >KSPSolve_FS_Schu</text>
</g>
<g >
<title>PCApply (76,530,650 us, 8.75%)</title><rect x="603.1" y="263" width="103.2" height="15.0" fill="rgb(0,0,0)" rx="2" ry="2" />
<text  x="606.09" y="273.5" >PCApply</text>
</g>
<g >
<title>Parloop_set_#x7f1a3a3237f0_wrap_expression_kernel (392,057 us, 0.04%)</title><rect x="15.1" y="135" width="0.5" height="15.0" fill="rgb(0,0,0)" rx="2" ry="2" />
<text  x="18.06" y="145.5" ></text>
</g>
<g >
<title>GAMG: partLevel (1,547,368 us, 0.18%)</title><rect x="1028.6" y="167" width="2.1" height="15.0" fill="rgb(0,0,0)" rx="2" ry="2" />
<text  x="1031.60" y="177.5" ></text>
</g>
<g >
<title>MatMultAdd (1,119,783 us, 0.13%)</title><rect x="864.7" y="215" width="1.5" height="15.0" fill="rgb(0,0,0)" rx="2" ry="2" />
<text  x="867.65" y="225.5" ></text>
</g>
<g >
<title>MatMult (2,147,600 us, 0.25%)</title><rect x="1025.6" y="215" width="2.9" height="15.0" fill="rgb(0,0,0)" rx="2" ry="2" />
<text  x="1028.58" y="225.5" ></text>
</g>
<g >
<title>KSPSolve_FS_Low (48,167,499 us, 5.51%)</title><rect x="436.0" y="135" width="65.0" height="15.0" fill="rgb(0,0,0)" rx="2" ry="2" />
<text  x="439.03" y="145.5" >KSPSol..</text>
</g>
<g >
<title>MatMatMultSym (456,306 us, 0.05%)</title><rect x="1025.0" y="231" width="0.6" height="15.0" fill="rgb(0,0,0)" rx="2" ry="2" />
<text  x="1027.96" y="241.5" ></text>
</g>
<g >
<title>KSPSolve (30,554,578 us, 3.49%)</title><rect x="436.0" y="151" width="41.2" height="15.0" fill="rgb(0,0,0)" rx="2" ry="2" />
<text  x="439.03" y="161.5" >KSP..</text>
</g>
<g >
<title>MatConvert (764,990 us, 0.09%)</title><rect x="1022.5" y="215" width="1.0" height="15.0" fill="rgb(0,0,0)" rx="2" ry="2" />
<text  x="1025.51" y="225.5" ></text>
</g>
<g >
<title>Log_Event_form10_cell_integral_otherwise (760,221 us, 0.09%)</title><rect x="1175.6" y="151" width="1.0" height="15.0" fill="rgb(0,0,0)" rx="2" ry="2" />
<text  x="1178.56" y="161.5" ></text>
</g>
<g >
<title>MatMatMultNum (11,899,540 us, 1.36%)</title><rect x="1074.2" y="119" width="16.0" height="15.0" fill="rgb(0,0,0)" rx="2" ry="2" />
<text  x="1077.16" y="129.5" ></text>
</g>
<g >
<title>PCGAMGCoarse_AGG (103,167,384 us, 11.79%)</title><rect x="866.3" y="183" width="139.1" height="15.0" fill="rgb(0,0,0)" rx="2" ry="2" />
<text  x="869.29" y="193.5" >PCGAMGCoarse_AGG</text>
</g>
<g >
<title>PCGAMG Opt l00 (1,037,063 us, 0.12%)</title><rect x="1024.2" y="215" width="1.4" height="15.0" fill="rgb(0,0,0)" rx="2" ry="2" />
<text  x="1027.18" y="225.5" ></text>
</g>
<g >
<title>VecMAXPY (291,150 us, 0.03%)</title><rect x="361.3" y="135" width="0.3" height="15.0" fill="rgb(0,0,0)" rx="2" ry="2" />
<text  x="364.25" y="145.5" ></text>
</g>
<g >
<title>firedrake.assemble_expressions.assemble_expression (763,193 us, 0.09%)</title><rect x="14.6" y="87" width="1.0" height="15.0" fill="rgb(0,0,0)" rx="2" ry="2" />
<text  x="17.56" y="97.5" ></text>
</g>
<g >
<title>MatMult (15,085,392 us, 1.72%)</title><rect x="436.2" y="167" width="20.3" height="15.0" fill="rgb(0,0,0)" rx="2" ry="2" />
<text  x="439.20" y="177.5" ></text>
</g>
<g >
<title>PCSetUp (35,915,478 us, 4.11%)</title><rect x="1059.6" y="103" width="48.4" height="15.0" fill="rgb(0,0,0)" rx="2" ry="2" />
<text  x="1062.58" y="113.5" >PCSe..</text>
</g>
<g >
<title>PCGAMGPOpt_AGG (3,369,204 us, 0.39%)</title><rect x="1024.1" y="183" width="4.5" height="15.0" fill="rgb(0,0,0)" rx="2" ry="2" />
<text  x="1027.05" y="193.5" ></text>
</g>
<g >
<title>MatSolve (76,530,650 us, 8.75%)</title><rect x="603.1" y="279" width="103.2" height="15.0" fill="rgb(0,0,0)" rx="2" ry="2" />
<text  x="606.09" y="289.5" >MatSolve</text>
</g>
<g >
<title>MatPtAPNumeric (1,163,724 us, 0.13%)</title><rect x="1028.6" y="199" width="1.6" height="15.0" fill="rgb(0,0,0)" rx="2" ry="2" />
<text  x="1031.60" y="209.5" ></text>
</g>
<g >
<title>MatMult (42,257,915 us, 4.83%)</title><rect x="706.9" y="215" width="57.0" height="15.0" fill="rgb(0,0,0)" rx="2" ry="2" />
<text  x="709.87" y="225.5" >MatMult</text>
</g>
<g >
<title>firedrake (874,916,428 us, 100.00%)</title><rect x="10.0" y="55" width="1180.0" height="15.0" fill="rgb(0,0,0)" rx="2" ry="2" />
<text  x="13.00" y="65.5" >firedrake</text>
</g>
<g >
<title>Log_Event_form_cell_integral_otherwise (121,278 us, 0.01%)</title><rect x="193.6" y="151" width="0.1" height="15.0" fill="rgb(0,0,0)" rx="2" ry="2" />
<text  x="196.56" y="161.5" ></text>
</g>
<g >
<title>pyop2.global_kernel.GlobalKernel.compile (371,136 us, 0.04%)</title><rect x="14.6" y="151" width="0.5" height="15.0" fill="rgb(0,0,0)" rx="2" ry="2" />
<text  x="17.56" y="161.5" ></text>
</g>
<g >
<title>firedrake.linear_solver.LinearSolver.solve (29,550,667 us, 3.38%)</title><rect x="153.1" y="103" width="39.9" height="15.0" fill="rgb(0,0,0)" rx="2" ry="2" />
<text  x="156.11" y="113.5" >fir..</text>
</g>
<g >
<title>firedrake.assemble.allocate_matrix (112,791,571 us, 12.89%)</title><rect x="209.0" y="87" width="152.1" height="15.0" fill="rgb(0,0,0)" rx="2" ry="2" />
<text  x="211.96" y="97.5" >firedrake.assembl..</text>
</g>
<g >
<title>MatAssemblyEnd (137,276 us, 0.02%)</title><rect x="1005.2" y="231" width="0.2" height="15.0" fill="rgb(0,0,0)" rx="2" ry="2" />
<text  x="1008.25" y="241.5" ></text>
</g>
<g >
<title>SNESJacobianEval (51,187,623 us, 5.85%)</title><rect x="1121.0" y="103" width="69.0" height="15.0" fill="rgb(0,0,0)" rx="2" ry="2" />
<text  x="1123.96" y="113.5" >SNESJac..</text>
</g>
<g >
<title>CreateExtMesh (921,474 us, 0.11%)</title><rect x="11.3" y="71" width="1.2" height="15.0" fill="rgb(0,0,0)" rx="2" ry="2" />
<text  x="14.30" y="81.5" ></text>
</g>
<g >
<title>MatSOR (1,584,381 us, 0.18%)</title><rect x="1046.0" y="247" width="2.2" height="15.0" fill="rgb(0,0,0)" rx="2" ry="2" />
<text  x="1049.04" y="257.5" ></text>
</g>
<g >
<title>MatCreateSubMats (5,991,702 us, 0.68%)</title><rect x="1066.1" y="119" width="8.1" height="15.0" fill="rgb(0,0,0)" rx="2" ry="2" />
<text  x="1069.07" y="129.5" ></text>
</g>
<g >
<title>PCSetUpOnBlocks (17,612,921 us, 2.01%)</title><rect x="477.2" y="151" width="23.8" height="15.0" fill="rgb(0,0,0)" rx="2" ry="2" />
<text  x="480.24" y="161.5" >P..</text>
</g>
<g >
<title>PCSetUp (26,235,625 us, 3.00%)</title><rect x="157.6" y="135" width="35.4" height="15.0" fill="rgb(0,0,0)" rx="2" ry="2" />
<text  x="160.58" y="145.5" >PC..</text>
</g>
<g >
<title>MatMult (15,091,431 us, 1.72%)</title><rect x="812.2" y="231" width="20.4" height="15.0" fill="rgb(0,0,0)" rx="2" ry="2" />
<text  x="815.24" y="241.5" ></text>
</g>
<g >
<title>firedrake.tsfc_interface.compile_form (1,591,254 us, 0.18%)</title><rect x="206.8" y="119" width="2.2" height="15.0" fill="rgb(0,0,0)" rx="2" ry="2" />
<text  x="209.81" y="129.5" ></text>
</g>
<g >
<title>firedrake.assemble.allocate_matrix (69,828,904 us, 7.98%)</title><rect x="58.1" y="119" width="94.2" height="15.0" fill="rgb(0,0,0)" rx="2" ry="2" />
<text  x="61.12" y="129.5" >firedrake...</text>
</g>
<g >
<title>PCApply (1,948,132 us, 0.22%)</title><rect x="154.9" y="167" width="2.7" height="15.0" fill="rgb(0,0,0)" rx="2" ry="2" />
<text  x="157.95" y="177.5" ></text>
</g>
<g >
<title>KSPSolve (15,309,644 us, 1.75%)</title><rect x="832.6" y="247" width="20.6" height="15.0" fill="rgb(0,0,0)" rx="2" ry="2" />
<text  x="835.59" y="257.5" ></text>
</g>
<g >
<title>SNESFunctionEval (9,597,672 us, 1.10%)</title><rect x="1108.0" y="103" width="13.0" height="15.0" fill="rgb(0,0,0)" rx="2" ry="2" />
<text  x="1111.02" y="113.5" ></text>
</g>
<g >
<title>MatICCFactorSym (323,429 us, 0.04%)</title><rect x="192.5" y="151" width="0.5" height="15.0" fill="rgb(0,0,0)" rx="2" ry="2" />
<text  x="195.53" y="161.5" ></text>
</g>
<g >
<title>MatZeroInitial (17,671,441 us, 2.02%)</title><rect x="128.5" y="135" width="23.8" height="15.0" fill="rgb(0,0,0)" rx="2" ry="2" />
<text  x="131.47" y="145.5" >M..</text>
</g>
<g >
<title>MatMult (1,366,910 us, 0.16%)</title><rect x="153.1" y="135" width="1.8" height="15.0" fill="rgb(0,0,0)" rx="2" ry="2" />
<text  x="156.11" y="145.5" ></text>
</g>
<g >
<title>Parloop_Cells_wrap_form0_cell_integral_otherwise (4,698,981 us, 0.54%)</title><rect x="15.6" y="119" width="6.3" height="15.0" fill="rgb(0,0,0)" rx="2" ry="2" />
<text  x="18.59" y="129.5" ></text>
</g>
<g >
<title>MatSolve (15,341,343 us, 1.75%)</title><rect x="456.5" y="215" width="20.7" height="15.0" fill="rgb(0,0,0)" rx="2" ry="2" />
<text  x="459.55" y="225.5" ></text>
</g>
<g >
<title>VecNorm (112,579 us, 0.01%)</title><rect x="706.5" y="231" width="0.2" height="15.0" fill="rgb(0,0,0)" rx="2" ry="2" />
<text  x="709.51" y="241.5" ></text>
</g>
<g >
<title>MatCoarsen (261,249 us, 0.03%)</title><rect x="866.7" y="215" width="0.3" height="15.0" fill="rgb(0,0,0)" rx="2" ry="2" />
<text  x="869.66" y="225.5" ></text>
</g>
<g >
<title>Log_Event_form00_cell_integral_otherwise (1,930,190 us, 0.22%)</title><rect x="30.7" y="151" width="2.6" height="15.0" fill="rgb(0,0,0)" rx="2" ry="2" />
<text  x="33.69" y="161.5" ></text>
</g>
<g >
<title>PCSetUpOnBlocks (26,235,625 us, 3.00%)</title><rect x="157.6" y="119" width="35.4" height="15.0" fill="rgb(0,0,0)" rx="2" ry="2" />
<text  x="160.58" y="129.5" >PC..</text>
</g>
<g >
<title>PCApply (15,341,343 us, 1.75%)</title><rect x="456.5" y="167" width="20.7" height="15.0" fill="rgb(0,0,0)" rx="2" ry="2" />
<text  x="459.55" y="177.5" ></text>
</g>
<g >
<title>firedrake.projection.project (131,955,687 us, 15.08%)</title><rect x="15.6" y="87" width="178.0" height="15.0" fill="rgb(0,0,0)" rx="2" ry="2" />
<text  x="18.59" y="97.5" >firedrake.projection...</text>
</g>
<g >
<title>CreateSparsity (86,242,966 us, 9.86%)</title><rect x="209.0" y="103" width="116.3" height="15.0" fill="rgb(0,0,0)" rx="2" ry="2" />
<text  x="211.96" y="113.5" >CreateSparsity</text>
</g>
<g >
<title>Parloop_Cells_wrap_form_cell_integral_otherwise (9,827,867 us, 1.12%)</title><rect x="193.6" y="135" width="13.2" height="15.0" fill="rgb(0,0,0)" rx="2" ry="2" />
<text  x="196.56" y="145.5" ></text>
</g>
<g >
<title>KSPSolve (8,652,104 us, 0.99%)</title><rect x="1030.7" y="215" width="11.7" height="15.0" fill="rgb(0,0,0)" rx="2" ry="2" />
<text  x="1033.68" y="225.5" ></text>
</g>
<g >
<title>KSPSolve (270,754,543 us, 30.95%)</title><rect x="501.0" y="151" width="365.2" height="15.0" fill="rgb(0,0,0)" rx="2" ry="2" />
<text  x="503.99" y="161.5" >KSPSolve</text>
</g>
<g >
<title>PCApply (76,530,650 us, 8.75%)</title><rect x="603.1" y="231" width="103.2" height="15.0" fill="rgb(0,0,0)" rx="2" ry="2" />
<text  x="606.09" y="241.5" >PCApply</text>
</g>
<g >
<title>ParLoopExecute (9,827,867 us, 1.12%)</title><rect x="193.6" y="119" width="13.2" height="15.0" fill="rgb(0,0,0)" rx="2" ry="2" />
<text  x="196.56" y="129.5" ></text>
</g>
<g >
<title>KSPGMRESOrthog (653,019 us, 0.07%)</title><rect x="361.3" y="119" width="0.8" height="15.0" fill="rgb(0,0,0)" rx="2" ry="2" />
<text  x="364.25" y="129.5" ></text>
</g>
<g >
<title>KSPSolve (12,966,330 us, 1.48%)</title><rect x="1030.7" y="183" width="17.5" height="15.0" fill="rgb(0,0,0)" rx="2" ry="2" />
<text  x="1033.68" y="193.5" ></text>
</g>
<g >
<title>KSPSolve (230,649,339 us, 26.36%)</title><rect x="501.0" y="183" width="311.1" height="15.0" fill="rgb(0,0,0)" rx="2" ry="2" />
<text  x="503.99" y="193.5" >KSPSolve</text>
</g>
<g >
<title>Parloop_Cells_wrap_pyop2_kernel_uniform_extrusion (921,474 us, 0.11%)</title><rect x="11.3" y="119" width="1.2" height="15.0" fill="rgb(0,0,0)" rx="2" ry="2" />
<text  x="14.30" y="129.5" ></text>
</g>
<g >
<title>PCSetUp (134,953,210 us, 15.42%)</title><rect x="866.2" y="151" width="182.0" height="15.0" fill="rgb(0,0,0)" rx="2" ry="2" />
<text  x="869.16" y="161.5" >PCSetUp</text>
</g>
<g >
<title>VecSet (148,842 us, 0.02%)</title><rect x="706.7" y="231" width="0.2" height="15.0" fill="rgb(0,0,0)" rx="2" ry="2" />
<text  x="709.67" y="241.5" ></text>
</g>
<g >
<title>PCApply (270,754,543 us, 30.95%)</title><rect x="501.0" y="167" width="365.2" height="15.0" fill="rgb(0,0,0)" rx="2" ry="2" />
<text  x="503.99" y="177.5" >PCApply</text>
</g>
<g >
<title>ParLoopExecute (4,698,981 us, 0.54%)</title><rect x="15.6" y="103" width="6.3" height="15.0" fill="rgb(0,0,0)" rx="2" ry="2" />
<text  x="18.59" y="113.5" ></text>
</g>
<g >
<title>firedrake.assemble.assemble (97,264,937 us, 11.12%)</title><rect x="21.9" y="103" width="131.2" height="15.0" fill="rgb(0,0,0)" rx="2" ry="2" />
<text  x="24.93" y="113.5" >firedrake.assem..</text>
</g>
<g >
<title>Parloop_Cells_wrap_form10_cell_integral_otherwise (12,389,912 us, 1.42%)</title><rect x="1171.0" y="135" width="16.7" height="15.0" fill="rgb(0,0,0)" rx="2" ry="2" />
<text  x="1173.95" y="145.5" ></text>
</g>
<g >
<title>ParLoopExecute (921,474 us, 0.11%)</title><rect x="11.3" y="103" width="1.2" height="15.0" fill="rgb(0,0,0)" rx="2" ry="2" />
<text  x="14.30" y="113.5" ></text>
</g>
<g >
<title>MatAssemblyEnd (486,454 us, 0.06%)</title><rect x="1073.5" y="135" width="0.7" height="15.0" fill="rgb(0,0,0)" rx="2" ry="2" />
<text  x="1076.50" y="145.5" ></text>
</g>
<g >
<title>PCApply (15,341,343 us, 1.75%)</title><rect x="456.5" y="199" width="20.7" height="15.0" fill="rgb(0,0,0)" rx="2" ry="2" />
<text  x="459.55" y="209.5" ></text>
</g>
<g >
<title>MatSolve (4,356,818 us, 0.50%)</title><rect x="1036.5" y="279" width="5.9" height="15.0" fill="rgb(0,0,0)" rx="2" ry="2" />
<text  x="1039.48" y="289.5" ></text>
</g>
<g >
<title>KSPSolve (15,322,891 us, 1.75%)</title><rect x="415.4" y="183" width="20.6" height="15.0" fill="rgb(0,0,0)" rx="2" ry="2" />
<text  x="418.36" y="193.5" ></text>
</g>
<g >
<title>firedrake.norms.errornorm (11,419,121 us, 1.31%)</title><rect x="193.6" y="71" width="15.4" height="15.0" fill="rgb(0,0,0)" rx="2" ry="2" />
<text  x="196.56" y="81.5" ></text>
</g>
<g >
<title>MatAXPY (4,136,146 us, 0.47%)</title><rect x="1059.9" y="119" width="5.6" height="15.0" fill="rgb(0,0,0)" rx="2" ry="2" />
<text  x="1062.91" y="129.5" ></text>
</g>
<g >
<title>MatAssemblyEnd (309,000 us, 0.04%)</title><rect x="128.1" y="135" width="0.4" height="15.0" fill="rgb(0,0,0)" rx="2" ry="2" />
<text  x="131.05" y="145.5" ></text>
</g>
<g >
<title>PCApply (92,161 us, 0.01%)</title><rect x="1028.5" y="215" width="0.1" height="15.0" fill="rgb(0,0,0)" rx="2" ry="2" />
<text  x="1031.47" y="225.5" ></text>
</g>
<g >
<title>MatCholFctrNum (25,912,196 us, 2.96%)</title><rect x="157.6" y="151" width="34.9" height="15.0" fill="rgb(0,0,0)" rx="2" ry="2" />
<text  x="160.58" y="161.5" >Ma..</text>
</g>
<g >
<title>MatScale (246,851 us, 0.03%)</title><rect x="1107.7" y="119" width="0.3" height="15.0" fill="rgb(0,0,0)" rx="2" ry="2" />
<text  x="1110.69" y="129.5" ></text>
</g>
<g >
<title>MatMult (75,379,832 us, 8.62%)</title><rect x="501.4" y="231" width="101.7" height="15.0" fill="rgb(0,0,0)" rx="2" ry="2" />
<text  x="504.42" y="241.5" >MatMult</text>
</g>
<g >
<title>Parloop_set_#x7f1a3a2ab280_wrap_expression_kernel (371,136 us, 0.04%)</title><rect x="14.6" y="135" width="0.5" height="15.0" fill="rgb(0,0,0)" rx="2" ry="2" />
<text  x="17.56" y="145.5" ></text>
</g>
<g >
<title>CreateSparsity (51,848,463 us, 5.93%)</title><rect x="58.1" y="135" width="70.0" height="15.0" fill="rgb(0,0,0)" rx="2" ry="2" />
<text  x="61.12" y="145.5" >CreateS..</text>
</g>
<g >
<title>Parloop_Cells_wrap_form00_cell_integral_otherwise (24,814,426 us, 2.84%)</title><rect x="1122.0" y="135" width="33.4" height="15.0" fill="rgb(0,0,0)" rx="2" ry="2" />
<text  x="1124.96" y="145.5" >Pa..</text>
</g>
<g >
<title>KSPSolve_FS_0 (30,501,882 us, 3.49%)</title><rect x="394.9" y="135" width="41.1" height="15.0" fill="rgb(0,0,0)" rx="2" ry="2" />
<text  x="397.89" y="145.5" >KSP..</text>
</g>
<g >
<title>Parloop_Cells_wrap_form1_cell_integral_otherwise (3,671,534 us, 0.42%)</title><rect x="1114.2" y="135" width="5.0" height="15.0" fill="rgb(0,0,0)" rx="2" ry="2" />
<text  x="1117.23" y="145.5" ></text>
</g>
<g >
<title>pyop2.global_kernel.GlobalKernel.compile (4,444,562 us, 0.51%)</title><rect x="1108.2" y="151" width="6.0" height="15.0" fill="rgb(0,0,0)" rx="2" ry="2" />
<text  x="1111.24" y="161.5" ></text>
</g>
<g >
<title>KSPSolve (1,584,381 us, 0.18%)</title><rect x="1046.0" y="215" width="2.2" height="15.0" fill="rgb(0,0,0)" rx="2" ry="2" />
<text  x="1049.04" y="225.5" ></text>
</g>
<g >
<title>PCApply (1,584,381 us, 0.18%)</title><rect x="1046.0" y="199" width="2.2" height="15.0" fill="rgb(0,0,0)" rx="2" ry="2" />
<text  x="1049.04" y="209.5" ></text>
</g>
<g >
<title>PCSetUp (17,612,921 us, 2.01%)</title><rect x="477.2" y="167" width="23.8" height="15.0" fill="rgb(0,0,0)" rx="2" ry="2" />
<text  x="480.24" y="177.5" >P..</text>
</g>
<g >
<title>PCApply (30,163,021 us, 3.45%)</title><rect x="771.4" y="199" width="40.7" height="15.0" fill="rgb(0,0,0)" rx="2" ry="2" />
<text  x="774.39" y="209.5" >PCA..</text>
</g>
<g >
<title>KSPSolve (4,356,818 us, 0.50%)</title><rect x="1036.5" y="247" width="5.9" height="15.0" fill="rgb(0,0,0)" rx="2" ry="2" />
<text  x="1039.48" y="257.5" ></text>
</g>
<g >
<title>MatMult (200,353,508 us, 22.90%)</title><rect x="501.2" y="199" width="270.2" height="15.0" fill="rgb(0,0,0)" rx="2" ry="2" />
<text  x="504.17" y="209.5" >MatMult</text>
</g>
<g >
<title>PCApply (1,584,381 us, 0.18%)</title><rect x="1046.0" y="231" width="2.2" height="15.0" fill="rgb(0,0,0)" rx="2" ry="2" />
<text  x="1049.04" y="241.5" ></text>
</g>
<g >
<title>PCApply (30,163,021 us, 3.45%)</title><rect x="771.4" y="231" width="40.7" height="15.0" fill="rgb(0,0,0)" rx="2" ry="2" />
<text  x="774.39" y="241.5" >PCA..</text>
</g>
<g >
<title>MatConvert (430,771 us, 0.05%)</title><rect x="1065.5" y="119" width="0.6" height="15.0" fill="rgb(0,0,0)" rx="2" ry="2" />
<text  x="1068.49" y="129.5" ></text>
</g>
<g >
<title>KSPSolve (30,523,397 us, 3.49%)</title><rect x="812.1" y="215" width="41.1" height="15.0" fill="rgb(0,0,0)" rx="2" ry="2" />
<text  x="815.07" y="225.5" >KSP..</text>
</g>
<g >
<title>MatMult (15,079,090 us, 1.72%)</title><rect x="395.0" y="167" width="20.4" height="15.0" fill="rgb(0,0,0)" rx="2" ry="2" />
<text  x="398.03" y="177.5" ></text>
</g>
<g >
<title>firedrake.assemble.assemble (11,419,121 us, 1.31%)</title><rect x="193.6" y="103" width="15.4" height="15.0" fill="rgb(0,0,0)" rx="2" ry="2" />
<text  x="196.56" y="113.5" ></text>
</g>
<g >
<title>firedrake.tsfc_interface.compile_form (596,835 us, 0.07%)</title><rect x="152.3" y="119" width="0.8" height="15.0" fill="rgb(0,0,0)" rx="2" ry="2" />
<text  x="155.30" y="129.5" ></text>
</g>
<g >
<title>ParLoopExecute (8,277,195 us, 0.95%)</title><rect x="1108.0" y="119" width="11.2" height="15.0" fill="rgb(0,0,0)" rx="2" ry="2" />
<text  x="1111.02" y="129.5" ></text>
</g>
<g >
<title>firedrake.function.Function.project (131,955,687 us, 15.08%)</title><rect x="15.6" y="71" width="178.0" height="15.0" fill="rgb(0,0,0)" rx="2" ry="2" />
<text  x="18.59" y="81.5" >firedrake.function.Fu..</text>
</g>
<g >
<title>firedrake.assemble.assemble (763,193 us, 0.09%)</title><rect x="14.6" y="71" width="1.0" height="15.0" fill="rgb(0,0,0)" rx="2" ry="2" />
<text  x="17.56" y="81.5" ></text>
</g>
<g >
<title>PCApply (15,322,891 us, 1.75%)</title><rect x="415.4" y="199" width="20.6" height="15.0" fill="rgb(0,0,0)" rx="2" ry="2" />
<text  x="418.36" y="209.5" ></text>
</g>
<g >
<title>KSPSolve (15,341,343 us, 1.75%)</title><rect x="456.5" y="183" width="20.7" height="15.0" fill="rgb(0,0,0)" rx="2" ry="2" />
<text  x="459.55" y="193.5" ></text>
</g>
<g >
<title>KSPSolve (2,239,761 us, 0.26%)</title><rect x="1025.6" y="199" width="3.0" height="15.0" fill="rgb(0,0,0)" rx="2" ry="2" />
<text  x="1028.58" y="209.5" ></text>
</g>
<g >
<title>Parloop_Cells_wrap_form01_cell_integral_otherwise (11,510,053 us, 1.32%)</title><rect x="1155.4" y="135" width="15.6" height="15.0" fill="rgb(0,0,0)" rx="2" ry="2" />
<text  x="1158.43" y="145.5" ></text>
</g>
<g >
<title>pyop2.global_kernel.GlobalKernel.compile (3,540,664 us, 0.40%)</title><rect x="1114.4" y="151" width="4.8" height="15.0" fill="rgb(0,0,0)" rx="2" ry="2" />
<text  x="1117.41" y="161.5" ></text>
</g>
<g >
<title>firedrake.variational_solver.NonlinearVariationalSolver.solve (614,607,071 us, 70.25%)</title><rect x="361.1" y="71" width="828.9" height="15.0" fill="rgb(0,0,0)" rx="2" ry="2" />
<text  x="364.08" y="81.5" >firedrake.variational_solver.NonlinearVariationalSolver.solve</text>
</g>
<g >
<title>MatMult (40,105,204 us, 4.58%)</title><rect x="812.1" y="199" width="54.1" height="15.0" fill="rgb(0,0,0)" rx="2" ry="2" />
<text  x="815.07" y="209.5" >MatMult</text>
</g>
<g >
<title>firedrake.assemble_expressions.evaluate_expression (763,193 us, 0.09%)</title><rect x="14.6" y="103" width="1.0" height="15.0" fill="rgb(0,0,0)" rx="2" ry="2" />
<text  x="17.56" y="113.5" ></text>
</g>
<g >
<title>MatMatMultSym (12,961,963 us, 1.48%)</title><rect x="1090.2" y="119" width="17.5" height="15.0" fill="rgb(0,0,0)" rx="2" ry="2" />
<text  x="1093.20" y="129.5" ></text>
</g>
<g >
<title>VecMDot (361,869 us, 0.04%)</title><rect x="361.6" y="135" width="0.5" height="15.0" fill="rgb(0,0,0)" rx="2" ry="2" />
<text  x="364.64" y="145.5" ></text>
</g>
<g >
<title>PCApply (15,309,644 us, 1.75%)</title><rect x="832.6" y="231" width="20.6" height="15.0" fill="rgb(0,0,0)" rx="2" ry="2" />
<text  x="835.59" y="241.5" ></text>
</g>
<g >
<title>KSPSolve (152,512,021 us, 17.43%)</title><rect x="501.2" y="215" width="205.7" height="15.0" fill="rgb(0,0,0)" rx="2" ry="2" />
<text  x="504.17" y="225.5" >KSPSolve</text>
</g>
<g >
<title>Parloop_Cells_wrap_form0_cell_integral_otherwise (4,605,661 us, 0.53%)</title><rect x="1108.0" y="135" width="6.2" height="15.0" fill="rgb(0,0,0)" rx="2" ry="2" />
<text  x="1111.02" y="145.5" ></text>
</g>
<g >
<title>pyop2.global_kernel.GlobalKernel.compile (8,211,075 us, 0.94%)</title><rect x="1176.6" y="151" width="11.1" height="15.0" fill="rgb(0,0,0)" rx="2" ry="2" />
<text  x="1179.59" y="161.5" ></text>
</g>
<g >
<title>firedrake.variational_solver.NonlinearVariationalSolver.__init__ (112,791,571 us, 12.89%)</title><rect x="209.0" y="71" width="152.1" height="15.0" fill="rgb(0,0,0)" rx="2" ry="2" />
<text  x="211.96" y="81.5" >firedrake.variati..</text>
</g>
<g >
<title>Log_Event_form00_cell_integral_otherwise (1,568,366 us, 0.18%)</title><rect x="1131.2" y="151" width="2.1" height="15.0" fill="rgb(0,0,0)" rx="2" ry="2" />
<text  x="1134.19" y="161.5" ></text>
</g>
<g >
<title>MatSolve (15,322,891 us, 1.75%)</title><rect x="415.4" y="215" width="20.6" height="15.0" fill="rgb(0,0,0)" rx="2" ry="2" />
<text  x="418.36" y="225.5" ></text>
</g>
<g >
<title>pyop2.global_kernel.GlobalKernel.compile (9,706,589 us, 1.11%)</title><rect x="193.7" y="151" width="13.1" height="15.0" fill="rgb(0,0,0)" rx="2" ry="2" />
<text  x="196.72" y="161.5" ></text>
</g>
<g >
<title>PCGAMGGraph_AGG (13,804,945 us, 1.58%)</title><rect x="1005.4" y="183" width="18.7" height="15.0" fill="rgb(0,0,0)" rx="2" ry="2" />
<text  x="1008.43" y="193.5" ></text>
</g>
<g >
<title>  MIS/Agg (261,249 us, 0.03%)</title><rect x="866.7" y="199" width="0.3" height="15.0" fill="rgb(0,0,0)" rx="2" ry="2" />
<text  x="869.66" y="209.5" ></text>
</g>
<g >
<title>KSPSolve (1,948,132 us, 0.22%)</title><rect x="154.9" y="151" width="2.7" height="15.0" fill="rgb(0,0,0)" rx="2" ry="2" />
<text  x="157.95" y="161.5" ></text>
</g>
<g >
<title>  Graph (13,804,945 us, 1.58%)</title><rect x="1005.4" y="199" width="18.7" height="15.0" fill="rgb(0,0,0)" rx="2" ry="2" />
<text  x="1008.43" y="209.5" ></text>
</g>
<g >
<title>  SA: smooth (1,129,443 us, 0.13%)</title><rect x="1024.1" y="199" width="1.5" height="15.0" fill="rgb(0,0,0)" rx="2" ry="2" />
<text  x="1027.05" y="209.5" ></text>
</g>
<g >
<title>firedrake.__init__ (1,497,913 us, 0.17%)</title><rect x="12.5" y="71" width="2.1" height="15.0" fill="rgb(0,0,0)" rx="2" ry="2" />
<text  x="15.54" y="81.5" ></text>
</g>
<g >
<title>pyop2.global_kernel.GlobalKernel.compile (4,698,981 us, 0.54%)</title><rect x="15.6" y="135" width="6.3" height="15.0" fill="rgb(0,0,0)" rx="2" ry="2" />
<text  x="18.59" y="145.5" ></text>
</g>
<g >
<title>MatAssemblyEnd (137,316 us, 0.02%)</title><rect x="1022.3" y="215" width="0.2" height="15.0" fill="rgb(0,0,0)" rx="2" ry="2" />
<text  x="1025.33" y="225.5" ></text>
</g>
<g >
<title>MatSOR (30,163,021 us, 3.45%)</title><rect x="771.4" y="247" width="40.7" height="15.0" fill="rgb(0,0,0)" rx="2" ry="2" />
<text  x="774.39" y="257.5" >Mat..</text>
</g>
<g >
<title>SNESSolve (614,607,071 us, 70.25%)</title><rect x="361.1" y="87" width="828.9" height="15.0" fill="rgb(0,0,0)" rx="2" ry="2" />
<text  x="364.08" y="97.5" >SNESSolve</text>
</g>
<g >
<title>KSPSetUp (12,966,330 us, 1.48%)</title><rect x="1030.7" y="167" width="17.5" height="15.0" fill="rgb(0,0,0)" rx="2" ry="2" />
<text  x="1033.68" y="177.5" ></text>
</g>
<g >
<title>firedrake.tsfc_interface.compile_form (441,102 us, 0.05%)</title><rect x="193.0" y="103" width="0.6" height="15.0" fill="rgb(0,0,0)" rx="2" ry="2" />
<text  x="195.96" y="113.5" ></text>
</g>
<g >
<title>MatMult (24,165,889 us, 2.76%)</title><rect x="362.1" y="119" width="32.6" height="15.0" fill="rgb(0,0,0)" rx="2" ry="2" />
<text  x="365.13" y="129.5" >Ma..</text>
</g>
<g >
<title>MatMatMultNum (580,757 us, 0.07%)</title><rect x="1024.2" y="231" width="0.8" height="15.0" fill="rgb(0,0,0)" rx="2" ry="2" />
<text  x="1027.18" y="241.5" ></text>
</g>
<g >
<title>KSPSolve (3,315,042 us, 0.38%)</title><rect x="153.1" y="119" width="4.5" height="15.0" fill="rgb(0,0,0)" rx="2" ry="2" />
<text  x="156.11" y="129.5" ></text>
</g>
<g >
<title>MatILUFactorSym (1,395,195 us, 0.16%)</title><rect x="477.2" y="183" width="1.9" height="15.0" fill="rgb(0,0,0)" rx="2" ry="2" />
<text  x="480.24" y="193.5" ></text>
</g>
<g >
<title>ParLoopExecute (763,193 us, 0.09%)</title><rect x="14.6" y="119" width="1.0" height="15.0" fill="rgb(0,0,0)" rx="2" ry="2" />
<text  x="17.56" y="129.5" ></text>
</g>
<g >
<title>PCApply (4,356,818 us, 0.50%)</title><rect x="1036.5" y="263" width="5.9" height="15.0" fill="rgb(0,0,0)" rx="2" ry="2" />
<text  x="1039.48" y="273.5" ></text>
</g>
<g >
<title>PCApply (492,959,321 us, 56.34%)</title><rect x="394.7" y="119" width="664.9" height="15.0" fill="rgb(0,0,0)" rx="2" ry="2" />
<text  x="397.73" y="129.5" >PCApply</text>
</g>
<g >
<title>firedrake.tsfc_interface.compile_form (1,320,477 us, 0.15%)</title><rect x="1119.2" y="119" width="1.8" height="15.0" fill="rgb(0,0,0)" rx="2" ry="2" />
<text  x="1122.18" y="129.5" ></text>
</g>
<g >
<title>MatSolve (15,309,644 us, 1.75%)</title><rect x="832.6" y="279" width="20.6" height="15.0" fill="rgb(0,0,0)" rx="2" ry="2" />
<text  x="835.59" y="289.5" ></text>
</g>
<g >
<title>MatMultAdd (5,583,572 us, 0.64%)</title><rect x="763.9" y="215" width="7.5" height="15.0" fill="rgb(0,0,0)" rx="2" ry="2" />
<text  x="766.86" y="225.5" ></text>
</g>
<g >
<title>Log_Event_form0_cell_integral_otherwise (161,099 us, 0.02%)</title><rect x="1108.0" y="151" width="0.2" height="15.0" fill="rgb(0,0,0)" rx="2" ry="2" />
<text  x="1111.02" y="161.5" ></text>
</g>
</g>
</svg>
