<?xml version="1.0" standalone="no"?>
<!DOCTYPE svg PUBLIC "-//W3C//DTD SVG 1.1//EN" "http://www.w3.org/Graphics/SVG/1.1/DTD/svg11.dtd">
<svg version="1.1" width="1200" height="331" onload="init(evt)" viewBox="0 0 1200 331" xmlns="http://www.w3.org/2000/svg" xmlns:xlink="http://www.w3.org/1999/xlink">
<!-- Flame graph stack visualization. See https://github.com/brendangregg/FlameGraph for latest version, and http://www.brendangregg.com/flamegraphs.html for examples. -->
<!-- NOTES:  -->
<defs>
	<linearGradient id="background" y1="0" y2="1" x1="0" x2="0" >
		<stop stop-color="#eeeeee" offset="5%" />
		<stop stop-color="#eeeeb0" offset="95%" />
	</linearGradient>
</defs>
<style type="text/css">
	text { font-family:Verdana; font-size:13px; fill:rgb(0,0,0); }
	#search, #ignorecase { opacity:0.1; cursor:pointer; }
	#search:hover, #search.show, #ignorecase:hover, #ignorecase.show { opacity:1; }
	#subtitle { text-anchor:middle; font-color:rgb(160,160,160); }
	#title { text-anchor:middle; font-size:18px}
	#unzoom { cursor:pointer; }
	#frames > *:hover { stroke:black; stroke-width:0.5; cursor:pointer; }
	.hide { display:none; }
	.parent { opacity:0.5; }
</style>
<script type="text/ecmascript">
<![CDATA[
	"use strict";
	var details, searchbtn, unzoombtn, matchedtxt, svg, searching, currentSearchTerm, ignorecase, ignorecaseBtn;
	function init(evt) {
		details = document.getElementById("details").firstChild;
		searchbtn = document.getElementById("search");
		ignorecaseBtn = document.getElementById("ignorecase");
		unzoombtn = document.getElementById("unzoom");
		matchedtxt = document.getElementById("matched");
		svg = document.getElementsByTagName("svg")[0];
		searching = 0;
		currentSearchTerm = null;

		// use GET parameters to restore a flamegraphs state.
		var params = get_params();
		if (params.x && params.y)
			zoom(find_group(document.querySelector('[x="' + params.x + '"][y="' + params.y + '"]')));
                if (params.s) search(params.s);
	}

	// event listeners
	window.addEventListener("click", function(e) {
		var target = find_group(e.target);
		if (target) {
			if (target.nodeName == "a") {
				if (e.ctrlKey === false) return;
				e.preventDefault();
			}
			if (target.classList.contains("parent")) unzoom();
			zoom(target);
			if (!document.querySelector('.parent')) {
				clearzoom();
				return;
			}

			// set parameters for zoom state
			var el = target.querySelector("rect");
			if (el && el.attributes && el.attributes.y && el.attributes._orig_x) {
				var params = get_params()
				params.x = el.attributes._orig_x.value;
				params.y = el.attributes.y.value;
				history.replaceState(null, null, parse_params(params));
			}
		}
		else if (e.target.id == "unzoom") clearzoom();
		else if (e.target.id == "search") search_prompt();
		else if (e.target.id == "ignorecase") toggle_ignorecase();
	}, false)

	// mouse-over for info
	// show
	window.addEventListener("mouseover", function(e) {
		var target = find_group(e.target);
		if (target) details.nodeValue = "Function: " + g_to_text(target);
	}, false)

	// clear
	window.addEventListener("mouseout", function(e) {
		var target = find_group(e.target);
		if (target) details.nodeValue = ' ';
	}, false)

	// ctrl-F for search
	// ctrl-I to toggle case-sensitive search
	window.addEventListener("keydown",function (e) {
		if (e.keyCode === 114 || (e.ctrlKey && e.keyCode === 70)) {
			e.preventDefault();
			search_prompt();
		}
		else if (e.ctrlKey && e.keyCode === 73) {
			e.preventDefault();
			toggle_ignorecase();
		}
	}, false)

	// functions
	function get_params() {
		var params = {};
		var paramsarr = window.location.search.substr(1).split('&');
		for (var i = 0; i < paramsarr.length; ++i) {
			var tmp = paramsarr[i].split("=");
			if (!tmp[0] || !tmp[1]) continue;
			params[tmp[0]]  = decodeURIComponent(tmp[1]);
		}
		return params;
	}
	function parse_params(params) {
		var uri = "?";
		for (var key in params) {
			uri += key + '=' + encodeURIComponent(params[key]) + '&';
		}
		if (uri.slice(-1) == "&")
			uri = uri.substring(0, uri.length - 1);
		if (uri == '?')
			uri = window.location.href.split('?')[0];
		return uri;
	}
	function find_child(node, selector) {
		var children = node.querySelectorAll(selector);
		if (children.length) return children[0];
	}
	function find_group(node) {
		var parent = node.parentElement;
		if (!parent) return;
		if (parent.id == "frames") return node;
		return find_group(parent);
	}
	function orig_save(e, attr, val) {
		if (e.attributes["_orig_" + attr] != undefined) return;
		if (e.attributes[attr] == undefined) return;
		if (val == undefined) val = e.attributes[attr].value;
		e.setAttribute("_orig_" + attr, val);
	}
	function orig_load(e, attr) {
		if (e.attributes["_orig_"+attr] == undefined) return;
		e.attributes[attr].value = e.attributes["_orig_" + attr].value;
		e.removeAttribute("_orig_"+attr);
	}
	function g_to_text(e) {
		var text = find_child(e, "title").firstChild.nodeValue;
		return (text)
	}
	function g_to_func(e) {
		var func = g_to_text(e);
		// if there's any manipulation we want to do to the function
		// name before it's searched, do it here before returning.
		return (func);
	}
	function update_text(e) {
		var r = find_child(e, "rect");
		var t = find_child(e, "text");
		var w = parseFloat(r.attributes.width.value) -3;
		var txt = find_child(e, "title").textContent.replace(/\([^(]*\)$/,"");
		t.attributes.x.value = parseFloat(r.attributes.x.value) + 3;

		// Smaller than this size won't fit anything
		if (w < 2 * 13 * 0.59) {
			t.textContent = "";
			return;
		}

		t.textContent = txt;
		// Fit in full text width
		if (/^ *$/.test(txt) || t.getSubStringLength(0, txt.length) < w)
			return;

		for (var x = txt.length - 2; x > 0; x--) {
			if (t.getSubStringLength(0, x + 2) <= w) {
				t.textContent = txt.substring(0, x) + "..";
				return;
			}
		}
		t.textContent = "";
	}

	// zoom
	function zoom_reset(e) {
		if (e.attributes != undefined) {
			orig_load(e, "x");
			orig_load(e, "width");
		}
		if (e.childNodes == undefined) return;
		for (var i = 0, c = e.childNodes; i < c.length; i++) {
			zoom_reset(c[i]);
		}
	}
	function zoom_child(e, x, ratio) {
		if (e.attributes != undefined) {
			if (e.attributes.x != undefined) {
				orig_save(e, "x");
				e.attributes.x.value = (parseFloat(e.attributes.x.value) - x - 10) * ratio + 10;
				if (e.tagName == "text")
					e.attributes.x.value = find_child(e.parentNode, "rect[x]").attributes.x.value + 3;
			}
			if (e.attributes.width != undefined) {
				orig_save(e, "width");
				e.attributes.width.value = parseFloat(e.attributes.width.value) * ratio;
			}
		}

		if (e.childNodes == undefined) return;
		for (var i = 0, c = e.childNodes; i < c.length; i++) {
			zoom_child(c[i], x - 10, ratio);
		}
	}
	function zoom_parent(e) {
		if (e.attributes) {
			if (e.attributes.x != undefined) {
				orig_save(e, "x");
				e.attributes.x.value = 10;
			}
			if (e.attributes.width != undefined) {
				orig_save(e, "width");
				e.attributes.width.value = parseInt(svg.width.baseVal.value) - (10 * 2);
			}
		}
		if (e.childNodes == undefined) return;
		for (var i = 0, c = e.childNodes; i < c.length; i++) {
			zoom_parent(c[i]);
		}
	}
	function zoom(node) {
		var attr = find_child(node, "rect").attributes;
		var width = parseFloat(attr.width.value);
		var xmin = parseFloat(attr.x.value);
		var xmax = parseFloat(xmin + width);
		var ymin = parseFloat(attr.y.value);
		var ratio = (svg.width.baseVal.value - 2 * 10) / width;

		// XXX: Workaround for JavaScript float issues (fix me)
		var fudge = 0.0001;

		unzoombtn.classList.remove("hide");

		var el = document.getElementById("frames").children;
		for (var i = 0; i < el.length; i++) {
			var e = el[i];
			var a = find_child(e, "rect").attributes;
			var ex = parseFloat(a.x.value);
			var ew = parseFloat(a.width.value);
			var upstack;
			// Is it an ancestor
			if (1 == 0) {
				upstack = parseFloat(a.y.value) > ymin;
			} else {
				upstack = parseFloat(a.y.value) < ymin;
			}
			if (upstack) {
				// Direct ancestor
				if (ex <= xmin && (ex+ew+fudge) >= xmax) {
					e.classList.add("parent");
					zoom_parent(e);
					update_text(e);
				}
				// not in current path
				else
					e.classList.add("hide");
			}
			// Children maybe
			else {
				// no common path
				if (ex < xmin || ex + fudge >= xmax) {
					e.classList.add("hide");
				}
				else {
					zoom_child(e, xmin, ratio);
					update_text(e);
				}
			}
		}
		search();
	}
	function unzoom() {
		unzoombtn.classList.add("hide");
		var el = document.getElementById("frames").children;
		for(var i = 0; i < el.length; i++) {
			el[i].classList.remove("parent");
			el[i].classList.remove("hide");
			zoom_reset(el[i]);
			update_text(el[i]);
		}
		search();
	}
	function clearzoom() {
		unzoom();

		// remove zoom state
		var params = get_params();
		if (params.x) delete params.x;
		if (params.y) delete params.y;
		history.replaceState(null, null, parse_params(params));
	}

	// search
	function toggle_ignorecase() {
		ignorecase = !ignorecase;
		if (ignorecase) {
			ignorecaseBtn.classList.add("show");
		} else {
			ignorecaseBtn.classList.remove("show");
		}
		reset_search();
		search();
	}
	function reset_search() {
		var el = document.querySelectorAll("#frames rect");
		for (var i = 0; i < el.length; i++) {
			orig_load(el[i], "fill")
		}
		var params = get_params();
		delete params.s;
		history.replaceState(null, null, parse_params(params));
	}
	function search_prompt() {
		if (!searching) {
			var term = prompt("Enter a search term (regexp " +
			    "allowed, eg: ^ext4_)"
			    + (ignorecase ? ", ignoring case" : "")
			    + "\nPress Ctrl-i to toggle case sensitivity", "");
			if (term != null) search(term);
		} else {
			reset_search();
			searching = 0;
			currentSearchTerm = null;
			searchbtn.classList.remove("show");
			searchbtn.firstChild.nodeValue = "Search"
			matchedtxt.classList.add("hide");
			matchedtxt.firstChild.nodeValue = ""
		}
	}
	function search(term) {
		if (term) currentSearchTerm = term;

		var re = new RegExp(currentSearchTerm, ignorecase ? 'i' : '');
		var el = document.getElementById("frames").children;
		var matches = new Object();
		var maxwidth = 0;
		for (var i = 0; i < el.length; i++) {
			var e = el[i];
			var func = g_to_func(e);
			var rect = find_child(e, "rect");
			if (func == null || rect == null)
				continue;

			// Save max width. Only works as we have a root frame
			var w = parseFloat(rect.attributes.width.value);
			if (w > maxwidth)
				maxwidth = w;

			if (func.match(re)) {
				// highlight
				var x = parseFloat(rect.attributes.x.value);
				orig_save(rect, "fill");
				rect.attributes.fill.value = "rgb(230,0,230)";

				// remember matches
				if (matches[x] == undefined) {
					matches[x] = w;
				} else {
					if (w > matches[x]) {
						// overwrite with parent
						matches[x] = w;
					}
				}
				searching = 1;
			}
		}
		if (!searching)
			return;
		var params = get_params();
		params.s = currentSearchTerm;
		history.replaceState(null, null, parse_params(params));

		searchbtn.classList.add("show");
		searchbtn.firstChild.nodeValue = "Reset Search";

		// calculate percent matched, excluding vertical overlap
		var count = 0;
		var lastx = -1;
		var lastw = 0;
		var keys = Array();
		for (k in matches) {
			if (matches.hasOwnProperty(k))
				keys.push(k);
		}
		// sort the matched frames by their x location
		// ascending, then width descending
		keys.sort(function(a, b){
			return a - b;
		});
		// Step through frames saving only the biggest bottom-up frames
		// thanks to the sort order. This relies on the tree property
		// where children are always smaller than their parents.
		var fudge = 0.0001;	// JavaScript floating point
		for (var k in keys) {
			var x = parseFloat(keys[k]);
			var w = matches[keys[k]];
			if (x >= lastx + lastw - fudge) {
				count += w;
				lastx = x;
				lastw = w;
			}
		}
		// display matched percent
		matchedtxt.classList.remove("hide");
		var pct = 100 * count / maxwidth;
		if (pct != 100) pct = pct.toFixed(1)
		matchedtxt.firstChild.nodeValue = "Matched: " + pct + "%";
	}
]]>
</script>
<rect x="0.0" y="0" width="1200.0" height="331.0" fill="url(#background)"  />
<text id="title" x="600.00" y="26" >Firedrake example</text>
<text id="details" x="10.00" y="313" > </text>
<text id="unzoom" x="10.00" y="26" class="hide">Reset Zoom</text>
<text id="search" x="1090.00" y="26" >Search</text>
<text id="ignorecase" x="1174.00" y="26" >ic</text>
<text id="matched" x="1090.00" y="313" > </text>
<g id="frames">
<g >
<title>KSPSolve (1,279,152,362 us, 81.91%)</title><rect x="183.2" y="103" width="966.5" height="15.0" fill="rgb(0,0,0)" rx="2" ry="2" />
<text  x="186.16" y="113.5" >KSPSolve</text>
</g>
<g >
<title>VecAYPX (493,038 us, 0.03%)</title><rect x="736.2" y="199" width="0.3" height="15.0" fill="rgb(0,0,0)" rx="2" ry="2" />
<text  x="739.16" y="209.5" ></text>
</g>
<g >
<title>PCApply (1,905,665 us, 0.12%)</title><rect x="78.4" y="167" width="1.5" height="15.0" fill="rgb(0,0,0)" rx="2" ry="2" />
<text  x="81.42" y="177.5" ></text>
</g>
<g >
<title>firedrake.function.Function.project (107,903,176 us, 6.91%)</title><rect x="17.5" y="71" width="81.5" height="15.0" fill="rgb(0,0,0)" rx="2" ry="2" />
<text  x="20.46" y="81.5" >firedrak..</text>
</g>
<g >
<title>PCApply (150,739,250 us, 9.65%)</title><rect x="621.7" y="231" width="113.9" height="15.0" fill="rgb(0,0,0)" rx="2" ry="2" />
<text  x="624.67" y="241.5" >PCApply</text>
</g>
<g >
<title>KSPSolve (320,672,204 us, 20.53%)</title><rect x="819.9" y="215" width="242.3" height="15.0" fill="rgb(0,0,0)" rx="2" ry="2" />
<text  x="822.87" y="225.5" >KSPSolve</text>
</g>
<g >
<title>MatMultAdd (270,426 us, 0.02%)</title><rect x="736.5" y="183" width="0.2" height="15.0" fill="rgb(0,0,0)" rx="2" ry="2" />
<text  x="739.53" y="193.5" ></text>
</g>
<g >
<title>KSPSolve_FS_0 (354,927,636 us, 22.73%)</title><rect x="226.0" y="135" width="268.2" height="15.0" fill="rgb(0,0,0)" rx="2" ry="2" />
<text  x="229.02" y="145.5" >KSPSolve_FS_0</text>
</g>
<g >
<title>KSPGMRESOrthog (1,495,043 us, 0.10%)</title><rect x="183.3" y="119" width="1.1" height="15.0" fill="rgb(0,0,0)" rx="2" ry="2" />
<text  x="186.31" y="129.5" ></text>
</g>
<g >
<title>KSPSolve (1,905,665 us, 0.12%)</title><rect x="78.4" y="151" width="1.5" height="15.0" fill="rgb(0,0,0)" rx="2" ry="2" />
<text  x="81.42" y="161.5" ></text>
</g>
<g >
<title>VecAYPX (484,735 us, 0.03%)</title><rect x="1061.8" y="231" width="0.4" height="15.0" fill="rgb(0,0,0)" rx="2" ry="2" />
<text  x="1064.80" y="241.5" ></text>
</g>
<g >
<title>MatMult (19,003,149 us, 1.22%)</title><rect x="1135.2" y="135" width="14.4" height="15.0" fill="rgb(0,0,0)" rx="2" ry="2" />
<text  x="1138.20" y="145.5" ></text>
</g>
<g >
<title>KSPSolve_FS_Schu (417,330,318 us, 26.72%)</title><rect x="819.9" y="135" width="315.3" height="15.0" fill="rgb(0,0,0)" rx="2" ry="2" />
<text  x="822.87" y="145.5" >KSPSolve_FS_Schu</text>
</g>
<g >
<title>Log_Event_form10_cell_integral_otherwise (752,142 us, 0.05%)</title><rect x="1189.4" y="151" width="0.6" height="15.0" fill="rgb(0,0,0)" rx="2" ry="2" />
<text  x="1192.43" y="161.5" ></text>
</g>
<g >
<title>firedrake.assemble.assemble (79,154,958 us, 5.07%)</title><rect x="17.6" y="103" width="59.8" height="15.0" fill="rgb(0,0,0)" rx="2" ry="2" />
<text  x="20.60" y="113.5" >fired..</text>
</g>
<g >
<title>MatSOR (150,728,172 us, 9.65%)</title><rect x="947.3" y="279" width="113.9" height="15.0" fill="rgb(0,0,0)" rx="2" ry="2" />
<text  x="950.31" y="289.5" >MatSOR</text>
</g>
<g >
<title>MatAssemblyEnd (577,814 us, 0.04%)</title><rect x="803.7" y="215" width="0.4" height="15.0" fill="rgb(0,0,0)" rx="2" ry="2" />
<text  x="806.68" y="225.5" ></text>
</g>
<g >
<title>MatLUFactorNum (22,455,220 us, 1.44%)</title><rect x="1118.2" y="183" width="17.0" height="15.0" fill="rgb(0,0,0)" rx="2" ry="2" />
<text  x="1121.23" y="193.5" ></text>
</g>
<g >
<title>VecAYPX (490,739 us, 0.03%)</title><rect x="467.9" y="199" width="0.4" height="15.0" fill="rgb(0,0,0)" rx="2" ry="2" />
<text  x="470.89" y="209.5" ></text>
</g>
<g >
<title>PCApply (150,728,172 us, 9.65%)</title><rect x="947.3" y="263" width="113.9" height="15.0" fill="rgb(0,0,0)" rx="2" ry="2" />
<text  x="950.31" y="273.5" >PCApply</text>
</g>
<g >
<title>VecMAXPY (647,777 us, 0.04%)</title><rect x="183.3" y="135" width="0.5" height="15.0" fill="rgb(0,0,0)" rx="2" ry="2" />
<text  x="186.31" y="145.5" ></text>
</g>
<g >
<title>MatMult (168,667,484 us, 10.80%)</title><rect x="819.9" y="231" width="127.4" height="15.0" fill="rgb(0,0,0)" rx="2" ry="2" />
<text  x="822.87" y="241.5" >MatMult</text>
</g>
<g >
<title>ParLoopExecute (8,638,751 us, 0.55%)</title><rect x="17.6" y="119" width="6.5" height="15.0" fill="rgb(0,0,0)" rx="2" ry="2" />
<text  x="20.60" y="129.5" ></text>
</g>
<g >
<title>MatMult (19,025,501 us, 1.22%)</title><rect x="1088.1" y="183" width="14.4" height="15.0" fill="rgb(0,0,0)" rx="2" ry="2" />
<text  x="1091.11" y="193.5" ></text>
</g>
<g >
<title>PCSetUp (75,955,656 us, 4.86%)</title><rect x="762.5" y="151" width="57.4" height="15.0" fill="rgb(0,0,0)" rx="2" ry="2" />
<text  x="765.48" y="161.5" >PCSetUp</text>
</g>
<g >
<title>MatMult (4,344,063 us, 0.28%)</title><rect x="807.6" y="215" width="3.3" height="15.0" fill="rgb(0,0,0)" rx="2" ry="2" />
<text  x="810.58" y="225.5" ></text>
</g>
<g >
<title>VecSet (410,904 us, 0.03%)</title><rect x="1061.2" y="263" width="0.3" height="15.0" fill="rgb(0,0,0)" rx="2" ry="2" />
<text  x="1064.20" y="273.5" ></text>
</g>
<g >
<title>KSPSolve (394,172,961 us, 25.24%)</title><rect x="819.9" y="151" width="297.8" height="15.0" fill="rgb(0,0,0)" rx="2" ry="2" />
<text  x="822.87" y="161.5" >KSPSolve</text>
</g>
<g >
<title>MatScale (758,211 us, 0.05%)</title><rect x="805.3" y="215" width="0.5" height="15.0" fill="rgb(0,0,0)" rx="2" ry="2" />
<text  x="808.25" y="225.5" ></text>
</g>
<g >
<title>MatZeroInitial (17,766,859 us, 1.14%)</title><rect x="63.8" y="135" width="13.5" height="15.0" fill="rgb(0,0,0)" rx="2" ry="2" />
<text  x="66.83" y="145.5" ></text>
</g>
<g >
<title>MatResidual (33,769,833 us, 2.16%)</title><rect x="1062.6" y="215" width="25.5" height="15.0" fill="rgb(0,0,0)" rx="2" ry="2" />
<text  x="1065.60" y="225.5" >M..</text>
</g>
<g >
<title>VecSet (410,024 us, 0.03%)</title><rect x="467.3" y="231" width="0.3" height="15.0" fill="rgb(0,0,0)" rx="2" ry="2" />
<text  x="470.30" y="241.5" ></text>
</g>
<g >
<title>MatConvert (1,512,384 us, 0.10%)</title><rect x="804.1" y="215" width="1.2" height="15.0" fill="rgb(0,0,0)" rx="2" ry="2" />
<text  x="807.11" y="225.5" ></text>
</g>
<g >
<title>MatAssemblyEnd (484,479 us, 0.03%)</title><rect x="1157.5" y="135" width="0.3" height="15.0" fill="rgb(0,0,0)" rx="2" ry="2" />
<text  x="1160.46" y="145.5" ></text>
</g>
<g >
<title>KSPSolve (355,049,585 us, 22.73%)</title><rect x="494.2" y="151" width="268.3" height="15.0" fill="rgb(0,0,0)" rx="2" ry="2" />
<text  x="497.20" y="161.5" >KSPSolve</text>
</g>
<g >
<title>firedrake.assemble_expressions.assemble_expression (168,674 us, 0.01%)</title><rect x="17.3" y="87" width="0.2" height="15.0" fill="rgb(0,0,0)" rx="2" ry="2" />
<text  x="20.33" y="97.5" ></text>
</g>
<g >
<title>CreateSparsity (52,223,550 us, 3.34%)</title><rect x="24.1" y="135" width="39.5" height="15.0" fill="rgb(0,0,0)" rx="2" ry="2" />
<text  x="27.13" y="145.5" >Cre..</text>
</g>
<g >
<title>KSPSolve (354,927,636 us, 22.73%)</title><rect x="226.0" y="151" width="268.2" height="15.0" fill="rgb(0,0,0)" rx="2" ry="2" />
<text  x="229.02" y="161.5" >KSPSolve</text>
</g>
<g >
<title>ParLoopExecute (16,086,427 us, 1.03%)</title><rect x="1177.8" y="119" width="12.2" height="15.0" fill="rgb(0,0,0)" rx="2" ry="2" />
<text  x="1180.85" y="129.5" ></text>
</g>
<g >
<title>  SA: smooth (2,323,642 us, 0.15%)</title><rect x="805.8" y="199" width="1.8" height="15.0" fill="rgb(0,0,0)" rx="2" ry="2" />
<text  x="808.83" y="209.5" ></text>
</g>
<g >
<title>MatTrnMatMultSym (42,312,765 us, 2.71%)</title><rect x="762.8" y="215" width="32.0" height="15.0" fill="rgb(0,0,0)" rx="2" ry="2" />
<text  x="765.84" y="225.5" >Ma..</text>
</g>
<g >
<title>PCApply (1,905,665 us, 0.12%)</title><rect x="78.4" y="135" width="1.5" height="15.0" fill="rgb(0,0,0)" rx="2" ry="2" />
<text  x="81.42" y="145.5" ></text>
</g>
<g >
<title>PCApply (151,038,135 us, 9.67%)</title><rect x="353.5" y="199" width="114.1" height="15.0" fill="rgb(0,0,0)" rx="2" ry="2" />
<text  x="356.49" y="209.5" >PCApply</text>
</g>
<g >
<title>all (1,561,695,826 us, 100%)</title><rect x="10.0" y="39" width="1180.0" height="15.0" fill="rgb(0,0,0)" rx="2" ry="2" />
<text  x="13.00" y="49.5" ></text>
</g>
<g >
<title>KSPSetUp (7,190,210 us, 0.46%)</title><rect x="814.4" y="167" width="5.5" height="15.0" fill="rgb(0,0,0)" rx="2" ry="2" />
<text  x="817.43" y="177.5" ></text>
</g>
<g >
<title>MatAssemblyEnd (313,054 us, 0.02%)</title><rect x="63.6" y="135" width="0.2" height="15.0" fill="rgb(0,0,0)" rx="2" ry="2" />
<text  x="66.59" y="145.5" ></text>
</g>
<g >
<title>PCGAMG Gal l00 (4,276,514 us, 0.27%)</title><rect x="811.1" y="183" width="3.2" height="15.0" fill="rgb(0,0,0)" rx="2" ry="2" />
<text  x="814.07" y="193.5" ></text>
</g>
<g >
<title>PCGAMGGraph_AGG (14,585,801 us, 0.93%)</title><rect x="794.8" y="183" width="11.0" height="15.0" fill="rgb(0,0,0)" rx="2" ry="2" />
<text  x="797.81" y="193.5" ></text>
</g>
<g >
<title>firedrake.assemble.assemble (168,674 us, 0.01%)</title><rect x="17.3" y="71" width="0.2" height="15.0" fill="rgb(0,0,0)" rx="2" ry="2" />
<text  x="20.33" y="81.5" ></text>
</g>
<g >
<title>Parloop_Cells_wrap_form00_cell_integral_otherwise (8,391,262 us, 0.54%)</title><rect x="1177.8" y="135" width="6.4" height="15.0" fill="rgb(0,0,0)" rx="2" ry="2" />
<text  x="1180.85" y="145.5" ></text>
</g>
<g >
<title>VecAXPBYCZ (371,229 us, 0.02%)</title><rect x="735.9" y="199" width="0.3" height="15.0" fill="rgb(0,0,0)" rx="2" ry="2" />
<text  x="738.88" y="209.5" ></text>
</g>
<g >
<title>ParLoopExecute (279,982 us, 0.02%)</title><rect x="99.0" y="119" width="0.2" height="15.0" fill="rgb(0,0,0)" rx="2" ry="2" />
<text  x="101.99" y="129.5" ></text>
</g>
<g >
<title>MatSOR (3,300,507 us, 0.21%)</title><rect x="817.4" y="247" width="2.5" height="15.0" fill="rgb(0,0,0)" rx="2" ry="2" />
<text  x="820.37" y="257.5" ></text>
</g>
<g >
<title>CreateSparsity (84,331,157 us, 5.40%)</title><rect x="99.4" y="103" width="63.7" height="15.0" fill="rgb(0,0,0)" rx="2" ry="2" />
<text  x="102.40" y="113.5" >Create..</text>
</g>
<g >
<title>PCGAMG Gal l01 (175,817 us, 0.01%)</title><rect x="814.3" y="183" width="0.1" height="15.0" fill="rgb(0,0,0)" rx="2" ry="2" />
<text  x="817.30" y="193.5" ></text>
</g>
<g >
<title>Parloop_Cells_wrap_form10_cell_integral_otherwise (4,178,773 us, 0.27%)</title><rect x="1186.8" y="135" width="3.2" height="15.0" fill="rgb(0,0,0)" rx="2" ry="2" />
<text  x="1189.84" y="145.5" ></text>
</g>
<g >
<title>MatMultAdd (2,549,901 us, 0.16%)</title><rect x="1102.5" y="183" width="1.9" height="15.0" fill="rgb(0,0,0)" rx="2" ry="2" />
<text  x="1105.49" y="193.5" ></text>
</g>
<g >
<title>PCApply (1,222,424,805 us, 78.28%)</title><rect x="226.0" y="119" width="923.7" height="15.0" fill="rgb(0,0,0)" rx="2" ry="2" />
<text  x="229.02" y="129.5" >PCApply</text>
</g>
<g >
<title>MatConvert (425,240 us, 0.03%)</title><rect x="1153.0" y="119" width="0.3" height="15.0" fill="rgb(0,0,0)" rx="2" ry="2" />
<text  x="1155.99" y="129.5" ></text>
</g>
<g >
<title>Log_Event_form00_cell_integral_otherwise (1,948,210 us, 0.12%)</title><rect x="22.5" y="151" width="1.5" height="15.0" fill="rgb(0,0,0)" rx="2" ry="2" />
<text  x="25.53" y="161.5" ></text>
</g>
<g >
<title>MatMult (1,332,480 us, 0.09%)</title><rect x="77.4" y="135" width="1.0" height="15.0" fill="rgb(0,0,0)" rx="2" ry="2" />
<text  x="80.41" y="145.5" ></text>
</g>
<g >
<title>PCSetUpOnBlocks (23,157,357 us, 1.48%)</title><rect x="1117.7" y="151" width="17.5" height="15.0" fill="rgb(0,0,0)" rx="2" ry="2" />
<text  x="1120.70" y="161.5" ></text>
</g>
<g >
<title>MatPtAPSymbolic (1,195,645 us, 0.08%)</title><rect x="813.4" y="199" width="0.9" height="15.0" fill="rgb(0,0,0)" rx="2" ry="2" />
<text  x="816.40" y="209.5" ></text>
</g>
<g >
<title>Log_Event_form00_cell_integral_otherwise (1,557,098 us, 0.10%)</title><rect x="1183.0" y="151" width="1.2" height="15.0" fill="rgb(0,0,0)" rx="2" ry="2" />
<text  x="1186.01" y="161.5" ></text>
</g>
<g >
<title>MatAXPY (4,147,304 us, 0.27%)</title><rect x="1149.9" y="119" width="3.1" height="15.0" fill="rgb(0,0,0)" rx="2" ry="2" />
<text  x="1152.86" y="129.5" ></text>
</g>
<g >
<title>MatMult (168,701,370 us, 10.80%)</title><rect x="494.2" y="199" width="127.5" height="15.0" fill="rgb(0,0,0)" rx="2" ry="2" />
<text  x="497.20" y="209.5" >MatMult</text>
</g>
<g >
<title>firedrake.__init__ (8,110,627 us, 0.52%)</title><rect x="11.2" y="71" width="6.1" height="15.0" fill="rgb(0,0,0)" rx="2" ry="2" />
<text  x="14.20" y="81.5" ></text>
</g>
<g >
<title>Log_Event_form01_cell_integral_otherwise (632,942 us, 0.04%)</title><rect x="1186.4" y="151" width="0.4" height="15.0" fill="rgb(0,0,0)" rx="2" ry="2" />
<text  x="1189.36" y="161.5" ></text>
</g>
<g >
<title>MatPtAPNumeric (3,080,869 us, 0.20%)</title><rect x="811.1" y="199" width="2.3" height="15.0" fill="rgb(0,0,0)" rx="2" ry="2" />
<text  x="814.07" y="209.5" ></text>
</g>
<g >
<title>GAMG: partLevel (4,452,331 us, 0.29%)</title><rect x="811.1" y="167" width="3.3" height="15.0" fill="rgb(0,0,0)" rx="2" ry="2" />
<text  x="814.07" y="177.5" ></text>
</g>
<g >
<title>MatMultAdd (271,108 us, 0.02%)</title><rect x="1062.2" y="215" width="0.2" height="15.0" fill="rgb(0,0,0)" rx="2" ry="2" />
<text  x="1065.16" y="225.5" ></text>
</g>
<g >
<title>MatICCFactorSym (325,327 us, 0.02%)</title><rect x="98.7" y="151" width="0.3" height="15.0" fill="rgb(0,0,0)" rx="2" ry="2" />
<text  x="101.74" y="161.5" ></text>
</g>
<g >
<title>MatSolve (1,905,665 us, 0.12%)</title><rect x="78.4" y="183" width="1.5" height="15.0" fill="rgb(0,0,0)" rx="2" ry="2" />
<text  x="81.42" y="193.5" ></text>
</g>
<g >
<title>firedrake (1,561,695,826 us, 100.00%)</title><rect x="10.0" y="55" width="1180.0" height="15.0" fill="rgb(0,0,0)" rx="2" ry="2" />
<text  x="13.00" y="65.5" >firedrake</text>
</g>
<g >
<title>KSPSolve (151,139,076 us, 9.68%)</title><rect x="947.3" y="247" width="114.2" height="15.0" fill="rgb(0,0,0)" rx="2" ry="2" />
<text  x="950.31" y="257.5" >KSPSolve</text>
</g>
<g >
<title>PCSetUp (23,157,357 us, 1.48%)</title><rect x="1117.7" y="167" width="17.5" height="15.0" fill="rgb(0,0,0)" rx="2" ry="2" />
<text  x="1120.70" y="177.5" ></text>
</g>
<g >
<title>MatMatMultSym (977,283 us, 0.06%)</title><rect x="806.8" y="231" width="0.8" height="15.0" fill="rgb(0,0,0)" rx="2" ry="2" />
<text  x="809.84" y="241.5" ></text>
</g>
<g >
<title>pyop2.global_kernel.GlobalKernel.compile (173,868 us, 0.01%)</title><rect x="24.0" y="151" width="0.1" height="15.0" fill="rgb(0,0,0)" rx="2" ry="2" />
<text  x="27.00" y="161.5" ></text>
</g>
<g >
<title>PCGAMGPOpt_AGG (6,938,345 us, 0.44%)</title><rect x="805.8" y="183" width="5.3" height="15.0" fill="rgb(0,0,0)" rx="2" ry="2" />
<text  x="808.83" y="193.5" ></text>
</g>
<g >
<title>PCApply (17,580,955 us, 1.13%)</title><rect x="1104.4" y="167" width="13.3" height="15.0" fill="rgb(0,0,0)" rx="2" ry="2" />
<text  x="1107.42" y="177.5" ></text>
</g>
<g >
<title>MatMultAdd (269,233 us, 0.02%)</title><rect x="468.3" y="183" width="0.2" height="15.0" fill="rgb(0,0,0)" rx="2" ry="2" />
<text  x="471.26" y="193.5" ></text>
</g>
<g >
<title>MatMatMultNum (11,892,624 us, 0.76%)</title><rect x="1157.8" y="119" width="9.0" height="15.0" fill="rgb(0,0,0)" rx="2" ry="2" />
<text  x="1160.83" y="129.5" ></text>
</g>
<g >
<title>Parloop_set_#x7fdfd0b72830_wrap_expression_kernel (168,674 us, 0.01%)</title><rect x="17.3" y="135" width="0.2" height="15.0" fill="rgb(0,0,0)" rx="2" ry="2" />
<text  x="20.33" y="145.5" ></text>
</g>
<g >
<title>MatMult (376,592,006 us, 24.11%)</title><rect x="819.9" y="167" width="284.5" height="15.0" fill="rgb(0,0,0)" rx="2" ry="2" />
<text  x="822.87" y="177.5" >MatMult</text>
</g>
<g >
<title>MatMultTranspose (303,250 us, 0.02%)</title><rect x="736.7" y="183" width="0.3" height="15.0" fill="rgb(0,0,0)" rx="2" ry="2" />
<text  x="739.74" y="193.5" ></text>
</g>
<g >
<title>firedrake.tsfc_interface.compile_form (264,682 us, 0.02%)</title><rect x="1177.1" y="119" width="0.2" height="15.0" fill="rgb(0,0,0)" rx="2" ry="2" />
<text  x="1180.09" y="129.5" ></text>
</g>
<g >
<title>MatMult (3,889,703 us, 0.25%)</title><rect x="814.4" y="199" width="3.0" height="15.0" fill="rgb(0,0,0)" rx="2" ry="2" />
<text  x="817.43" y="209.5" ></text>
</g>
<g >
<title>firedrake.tsfc_interface.compile_form (212,744 us, 0.01%)</title><rect x="77.3" y="119" width="0.1" height="15.0" fill="rgb(0,0,0)" rx="2" ry="2" />
<text  x="80.25" y="129.5" ></text>
</g>
<g >
<title>SNESSolve (1,332,520,766 us, 85.33%)</title><rect x="183.2" y="87" width="1006.8" height="15.0" fill="rgb(0,0,0)" rx="2" ry="2" />
<text  x="186.16" y="97.5" >SNESSolve</text>
</g>
<g >
<title>PCApply (354,927,636 us, 22.73%)</title><rect x="226.0" y="167" width="268.2" height="15.0" fill="rgb(0,0,0)" rx="2" ry="2" />
<text  x="229.02" y="177.5" >PCApply</text>
</g>
<g >
<title>SNESJacobianEval (16,816,607 us, 1.08%)</title><rect x="1177.3" y="103" width="12.7" height="15.0" fill="rgb(0,0,0)" rx="2" ry="2" />
<text  x="1180.29" y="113.5" ></text>
</g>
<g >
<title>MatMatMultNum (1,110,832 us, 0.07%)</title><rect x="806.0" y="231" width="0.8" height="15.0" fill="rgb(0,0,0)" rx="2" ry="2" />
<text  x="809.01" y="241.5" ></text>
</g>
<g >
<title>PCApply (355,049,585 us, 22.73%)</title><rect x="494.2" y="167" width="268.3" height="15.0" fill="rgb(0,0,0)" rx="2" ry="2" />
<text  x="497.20" y="177.5" >PCApply</text>
</g>
<g >
<title>KSPSolve (3,238,145 us, 0.21%)</title><rect x="77.4" y="119" width="2.5" height="15.0" fill="rgb(0,0,0)" rx="2" ry="2" />
<text  x="80.41" y="129.5" ></text>
</g>
<g >
<title>firedrake.variational_solver.NonlinearVariationalSolver.solve (1,332,520,766 us, 85.33%)</title><rect x="183.2" y="71" width="1006.8" height="15.0" fill="rgb(0,0,0)" rx="2" ry="2" />
<text  x="186.16" y="81.5" >firedrake.variational_solver.NonlinearVariationalSolver.solve</text>
</g>
<g >
<title>firedrake.linear_solver.LinearSolver.solve (28,553,402 us, 1.83%)</title><rect x="77.4" y="103" width="21.6" height="15.0" fill="rgb(0,0,0)" rx="2" ry="2" />
<text  x="80.41" y="113.5" ></text>
</g>
<g >
<title>Parloop_Cells_wrap_form0_cell_integral_otherwise (182,451 us, 0.01%)</title><rect x="1176.8" y="135" width="0.2" height="15.0" fill="rgb(0,0,0)" rx="2" ry="2" />
<text  x="1179.83" y="145.5" ></text>
</g>
<g >
<title>MatCreateSubMats (5,975,338 us, 0.38%)</title><rect x="1153.3" y="119" width="4.5" height="15.0" fill="rgb(0,0,0)" rx="2" ry="2" />
<text  x="1156.32" y="129.5" ></text>
</g>
<g >
<title>GAMG: createProl (64,313,115 us, 4.12%)</title><rect x="762.5" y="167" width="48.6" height="15.0" fill="rgb(0,0,0)" rx="2" ry="2" />
<text  x="765.48" y="177.5" >GAMG..</text>
</g>
<g >
<title>firedrake.assemble.assemble (543,872 us, 0.03%)</title><rect x="99.0" y="103" width="0.4" height="15.0" fill="rgb(0,0,0)" rx="2" ry="2" />
<text  x="101.99" y="113.5" ></text>
</g>
<g >
<title>PCApply (3,300,507 us, 0.21%)</title><rect x="817.4" y="231" width="2.5" height="15.0" fill="rgb(0,0,0)" rx="2" ry="2" />
<text  x="820.37" y="241.5" ></text>
</g>
<g >
<title>VecAXPBYCZ (371,522 us, 0.02%)</title><rect x="467.6" y="199" width="0.3" height="15.0" fill="rgb(0,0,0)" rx="2" ry="2" />
<text  x="470.61" y="209.5" ></text>
</g>
<g >
<title>firedrake.assemble.allocate_matrix (70,303,463 us, 4.50%)</title><rect x="24.1" y="119" width="53.2" height="15.0" fill="rgb(0,0,0)" rx="2" ry="2" />
<text  x="27.13" y="129.5" >fire..</text>
</g>
<g >
<title>PCGAMGCoarse_AGG (42,788,969 us, 2.74%)</title><rect x="762.5" y="183" width="32.3" height="15.0" fill="rgb(0,0,0)" rx="2" ry="2" />
<text  x="765.48" y="193.5" >PC..</text>
</g>
<g >
<title>Parloop_Cells_wrap_form00_cell_integral_otherwise (8,638,751 us, 0.55%)</title><rect x="17.6" y="135" width="6.5" height="15.0" fill="rgb(0,0,0)" rx="2" ry="2" />
<text  x="20.60" y="145.5" ></text>
</g>
<g >
<title>MatMult (55,032,541 us, 3.52%)</title><rect x="184.4" y="119" width="41.6" height="15.0" fill="rgb(0,0,0)" rx="2" ry="2" />
<text  x="187.44" y="129.5" >Mat..</text>
</g>
<g >
<title>firedrake.assemble.allocate_matrix (110,858,087 us, 7.10%)</title><rect x="99.4" y="87" width="83.8" height="15.0" fill="rgb(0,0,0)" rx="2" ry="2" />
<text  x="102.40" y="97.5" >firedrak..</text>
</g>
<g >
<title>MatMult (33,763,413 us, 2.16%)</title><rect x="737.0" y="199" width="25.5" height="15.0" fill="rgb(0,0,0)" rx="2" ry="2" />
<text  x="739.96" y="209.5" >M..</text>
</g>
<g >
<title>MatMult (33,760,319 us, 2.16%)</title><rect x="468.7" y="199" width="25.5" height="15.0" fill="rgb(0,0,0)" rx="2" ry="2" />
<text  x="471.70" y="209.5" >M..</text>
</g>
<g >
<title>PCApply (151,139,076 us, 9.68%)</title><rect x="947.3" y="231" width="114.2" height="15.0" fill="rgb(0,0,0)" rx="2" ry="2" />
<text  x="950.31" y="241.5" >PCApply</text>
</g>
<g >
<title>VecScatterBegin (158,461 us, 0.01%)</title><rect x="1149.6" y="135" width="0.1" height="15.0" fill="rgb(0,0,0)" rx="2" ry="2" />
<text  x="1152.56" y="145.5" ></text>
</g>
<g >
<title>MatSolve (17,580,955 us, 1.13%)</title><rect x="1104.4" y="215" width="13.3" height="15.0" fill="rgb(0,0,0)" rx="2" ry="2" />
<text  x="1107.42" y="225.5" ></text>
</g>
<g >
<title>MatILUFactorSym (702,137 us, 0.04%)</title><rect x="1117.7" y="183" width="0.5" height="15.0" fill="rgb(0,0,0)" rx="2" ry="2" />
<text  x="1120.70" y="193.5" ></text>
</g>
<g >
<title>MatResidual (33,763,413 us, 2.16%)</title><rect x="737.0" y="183" width="25.5" height="15.0" fill="rgb(0,0,0)" rx="2" ry="2" />
<text  x="739.96" y="193.5" >M..</text>
</g>
<g >
<title>PCApply (270,640 us, 0.02%)</title><rect x="810.9" y="215" width="0.2" height="15.0" fill="rgb(0,0,0)" rx="2" ry="2" />
<text  x="813.87" y="225.5" ></text>
</g>
<g >
<title>MatAssemblyEnd (439,096 us, 0.03%)</title><rect x="163.1" y="103" width="0.4" height="15.0" fill="rgb(0,0,0)" rx="2" ry="2" />
<text  x="166.12" y="113.5" ></text>
</g>
<g >
<title>MatSOR (150,628,111 us, 9.65%)</title><rect x="353.5" y="247" width="113.8" height="15.0" fill="rgb(0,0,0)" rx="2" ry="2" />
<text  x="356.49" y="257.5" >MatSOR</text>
</g>
<g >
<title>MatZeroInitial (26,087,834 us, 1.67%)</title><rect x="163.5" y="103" width="19.7" height="15.0" fill="rgb(0,0,0)" rx="2" ry="2" />
<text  x="166.45" y="113.5" ></text>
</g>
<g >
<title>KSPSolve (151,038,135 us, 9.67%)</title><rect x="353.5" y="215" width="114.1" height="15.0" fill="rgb(0,0,0)" rx="2" ry="2" />
<text  x="356.49" y="225.5" >KSPSolve</text>
</g>
<g >
<title>MatResidual (33,760,319 us, 2.16%)</title><rect x="468.7" y="183" width="25.5" height="15.0" fill="rgb(0,0,0)" rx="2" ry="2" />
<text  x="471.70" y="193.5" >M..</text>
</g>
<g >
<title>PCSetUpOnBlocks (25,315,257 us, 1.62%)</title><rect x="79.9" y="119" width="19.1" height="15.0" fill="rgb(0,0,0)" rx="2" ry="2" />
<text  x="82.86" y="129.5" ></text>
</g>
<g >
<title>MatScale (246,296 us, 0.02%)</title><rect x="1176.6" y="119" width="0.2" height="15.0" fill="rgb(0,0,0)" rx="2" ry="2" />
<text  x="1179.64" y="129.5" ></text>
</g>
<g >
<title>PCApply (17,580,955 us, 1.13%)</title><rect x="1104.4" y="199" width="13.3" height="15.0" fill="rgb(0,0,0)" rx="2" ry="2" />
<text  x="1107.42" y="209.5" ></text>
</g>
<g >
<title>MatMult (33,769,833 us, 2.16%)</title><rect x="1062.6" y="231" width="25.5" height="15.0" fill="rgb(0,0,0)" rx="2" ry="2" />
<text  x="1065.60" y="241.5" >M..</text>
</g>
<g >
<title>PCSetUp (35,933,261 us, 2.30%)</title><rect x="1149.7" y="103" width="27.1" height="15.0" fill="rgb(0,0,0)" rx="2" ry="2" />
<text  x="1152.68" y="113.5" >P..</text>
</g>
<g >
<title>KSPSolve (151,146,859 us, 9.68%)</title><rect x="621.7" y="215" width="114.2" height="15.0" fill="rgb(0,0,0)" rx="2" ry="2" />
<text  x="624.67" y="225.5" >KSPSolve</text>
</g>
<g >
<title>MatMult (168,694,901 us, 10.80%)</title><rect x="226.0" y="199" width="127.5" height="15.0" fill="rgb(0,0,0)" rx="2" ry="2" />
<text  x="229.02" y="209.5" >MatMult</text>
</g>
<g >
<title>KSPSolve (320,712,496 us, 20.54%)</title><rect x="494.2" y="183" width="242.3" height="15.0" fill="rgb(0,0,0)" rx="2" ry="2" />
<text  x="497.20" y="193.5" >KSPSolve</text>
</g>
<g >
<title>SNESFunctionEval (618,536 us, 0.04%)</title><rect x="1176.8" y="103" width="0.5" height="15.0" fill="rgb(0,0,0)" rx="2" ry="2" />
<text  x="1179.83" y="113.5" ></text>
</g>
<g >
<title>KSPSolve_FS_Low (431,005,241 us, 27.60%)</title><rect x="494.2" y="135" width="325.7" height="15.0" fill="rgb(0,0,0)" rx="2" ry="2" />
<text  x="497.20" y="145.5" >KSPSolve_FS_Low</text>
</g>
<g >
<title>ParLoopExecute (353,854 us, 0.02%)</title><rect x="1176.8" y="119" width="0.3" height="15.0" fill="rgb(0,0,0)" rx="2" ry="2" />
<text  x="1179.83" y="129.5" ></text>
</g>
<g >
<title>KSPSolve (320,595,297 us, 20.53%)</title><rect x="226.0" y="183" width="242.3" height="15.0" fill="rgb(0,0,0)" rx="2" ry="2" />
<text  x="229.02" y="193.5" >KSPSolve</text>
</g>
<g >
<title>KSPSolve (17,580,955 us, 1.13%)</title><rect x="1104.4" y="183" width="13.3" height="15.0" fill="rgb(0,0,0)" rx="2" ry="2" />
<text  x="1107.42" y="193.5" ></text>
</g>
<g >
<title>MatZeroEntries (730,180 us, 0.05%)</title><rect x="1177.3" y="119" width="0.5" height="15.0" fill="rgb(0,0,0)" rx="2" ry="2" />
<text  x="1180.29" y="129.5" ></text>
</g>
<g >
<title>KSPSolve (3,300,507 us, 0.21%)</title><rect x="817.4" y="215" width="2.5" height="15.0" fill="rgb(0,0,0)" rx="2" ry="2" />
<text  x="820.37" y="225.5" ></text>
</g>
<g >
<title>PCApply (151,146,859 us, 9.68%)</title><rect x="621.7" y="199" width="114.2" height="15.0" fill="rgb(0,0,0)" rx="2" ry="2" />
<text  x="624.67" y="209.5" >PCApply</text>
</g>
<g >
<title>KSPSolve (4,614,703 us, 0.30%)</title><rect x="807.6" y="199" width="3.5" height="15.0" fill="rgb(0,0,0)" rx="2" ry="2" />
<text  x="810.58" y="209.5" ></text>
</g>
<g >
<title>MatCholFctrNum (24,989,930 us, 1.60%)</title><rect x="79.9" y="151" width="18.8" height="15.0" fill="rgb(0,0,0)" rx="2" ry="2" />
<text  x="82.86" y="161.5" ></text>
</g>
<g >
<title>firedrake.tsfc_interface.compile_form (263,890 us, 0.02%)</title><rect x="99.2" y="119" width="0.2" height="15.0" fill="rgb(0,0,0)" rx="2" ry="2" />
<text  x="102.20" y="129.5" ></text>
</g>
<g >
<title>firedrake.norms.norm (543,872 us, 0.03%)</title><rect x="99.0" y="87" width="0.4" height="15.0" fill="rgb(0,0,0)" rx="2" ry="2" />
<text  x="101.99" y="97.5" ></text>
</g>
<g >
<title>PCApply (355,016,604 us, 22.73%)</title><rect x="819.9" y="199" width="268.2" height="15.0" fill="rgb(0,0,0)" rx="2" ry="2" />
<text  x="822.87" y="209.5" >PCApply</text>
</g>
<g >
<title>ParLoopExecute (168,674 us, 0.01%)</title><rect x="17.3" y="119" width="0.2" height="15.0" fill="rgb(0,0,0)" rx="2" ry="2" />
<text  x="20.33" y="129.5" ></text>
</g>
<g >
<title>Parloop_Cells_wrap_form01_cell_integral_otherwise (3,516,392 us, 0.23%)</title><rect x="1184.2" y="135" width="2.6" height="15.0" fill="rgb(0,0,0)" rx="2" ry="2" />
<text  x="1187.19" y="145.5" ></text>
</g>
<g >
<title>firedrake.projection.project (107,903,176 us, 6.91%)</title><rect x="17.5" y="87" width="81.5" height="15.0" fill="rgb(0,0,0)" rx="2" ry="2" />
<text  x="20.46" y="97.5" >firedrak..</text>
</g>
<g >
<title>  Graph (14,585,801 us, 0.93%)</title><rect x="794.8" y="199" width="11.0" height="15.0" fill="rgb(0,0,0)" rx="2" ry="2" />
<text  x="797.81" y="209.5" ></text>
</g>
<g >
<title>PCGAMG Squ l00 (42,312,765 us, 2.71%)</title><rect x="762.8" y="199" width="32.0" height="15.0" fill="rgb(0,0,0)" rx="2" ry="2" />
<text  x="765.84" y="209.5" >PC..</text>
</g>
<g >
<title>firedrake.variational_solver.NonlinearVariationalSolver.__init__ (110,858,087 us, 7.10%)</title><rect x="99.4" y="71" width="83.8" height="15.0" fill="rgb(0,0,0)" rx="2" ry="2" />
<text  x="102.40" y="81.5" >firedrak..</text>
</g>
<g >
<title>VecMDot (847,266 us, 0.05%)</title><rect x="183.8" y="135" width="0.6" height="15.0" fill="rgb(0,0,0)" rx="2" ry="2" />
<text  x="186.80" y="145.5" ></text>
</g>
<g >
<title>MatMultTranspose (302,787 us, 0.02%)</title><rect x="468.5" y="183" width="0.2" height="15.0" fill="rgb(0,0,0)" rx="2" ry="2" />
<text  x="471.47" y="193.5" ></text>
</g>
<g >
<title>PCApply (3,300,507 us, 0.21%)</title><rect x="817.4" y="199" width="2.5" height="15.0" fill="rgb(0,0,0)" rx="2" ry="2" />
<text  x="820.37" y="209.5" ></text>
</g>
<g >
<title>PCApply (150,628,111 us, 9.65%)</title><rect x="353.5" y="231" width="113.8" height="15.0" fill="rgb(0,0,0)" rx="2" ry="2" />
<text  x="356.49" y="241.5" >PCApply</text>
</g>
<g >
<title>MatSOR (150,739,250 us, 9.65%)</title><rect x="621.7" y="247" width="113.9" height="15.0" fill="rgb(0,0,0)" rx="2" ry="2" />
<text  x="624.67" y="257.5" >MatSOR</text>
</g>
<g >
<title>  MIS/Agg (282,491 us, 0.02%)</title><rect x="762.6" y="199" width="0.2" height="15.0" fill="rgb(0,0,0)" rx="2" ry="2" />
<text  x="765.62" y="209.5" ></text>
</g>
<g >
<title>firedrake.norms.errornorm (543,872 us, 0.03%)</title><rect x="99.0" y="71" width="0.4" height="15.0" fill="rgb(0,0,0)" rx="2" ry="2" />
<text  x="101.99" y="81.5" ></text>
</g>
<g >
<title>VecAXPBYCZ (380,909 us, 0.02%)</title><rect x="1061.5" y="231" width="0.3" height="15.0" fill="rgb(0,0,0)" rx="2" ry="2" />
<text  x="1064.51" y="241.5" ></text>
</g>
<g >
<title>KSPSolve (7,190,210 us, 0.46%)</title><rect x="814.4" y="183" width="5.5" height="15.0" fill="rgb(0,0,0)" rx="2" ry="2" />
<text  x="817.43" y="193.5" ></text>
</g>
<g >
<title>MatCoarsen (282,491 us, 0.02%)</title><rect x="762.6" y="215" width="0.2" height="15.0" fill="rgb(0,0,0)" rx="2" ry="2" />
<text  x="765.62" y="225.5" ></text>
</g>
<g >
<title>PCSetUp (25,315,257 us, 1.62%)</title><rect x="79.9" y="135" width="19.1" height="15.0" fill="rgb(0,0,0)" rx="2" ry="2" />
<text  x="82.86" y="145.5" ></text>
</g>
<g >
<title>Parloop_Cells_wrap_form1_cell_integral_otherwise (171,403 us, 0.01%)</title><rect x="1177.0" y="135" width="0.1" height="15.0" fill="rgb(0,0,0)" rx="2" ry="2" />
<text  x="1179.96" y="145.5" ></text>
</g>
<g >
<title>MatMatMultSym (13,001,266 us, 0.83%)</title><rect x="1166.8" y="119" width="9.8" height="15.0" fill="rgb(0,0,0)" rx="2" ry="2" />
<text  x="1169.82" y="129.5" ></text>
</g>
<g >
<title>VecSet (407,609 us, 0.03%)</title><rect x="735.6" y="231" width="0.3" height="15.0" fill="rgb(0,0,0)" rx="2" ry="2" />
<text  x="738.57" y="241.5" ></text>
</g>
<g >
<title>PCGAMG Opt l00 (2,088,115 us, 0.13%)</title><rect x="806.0" y="215" width="1.6" height="15.0" fill="rgb(0,0,0)" rx="2" ry="2" />
<text  x="809.01" y="225.5" ></text>
</g>
<g >
<title>KSPSolve (355,016,604 us, 22.73%)</title><rect x="819.9" y="183" width="268.2" height="15.0" fill="rgb(0,0,0)" rx="2" ry="2" />
<text  x="822.87" y="193.5" >KSPSolve</text>
</g>
<g >
<title>firedrake.assemble_expressions.evaluate_expression (168,674 us, 0.01%)</title><rect x="17.3" y="103" width="0.2" height="15.0" fill="rgb(0,0,0)" rx="2" ry="2" />
<text  x="20.33" y="113.5" ></text>
</g>
<g >
<title>Parloop_Cells_wrap_form_cell_integral_otherwise (279,982 us, 0.02%)</title><rect x="99.0" y="135" width="0.2" height="15.0" fill="rgb(0,0,0)" rx="2" ry="2" />
<text  x="101.99" y="145.5" ></text>
</g>
<g >
<title>MatMultTranspose (303,459 us, 0.02%)</title><rect x="1062.4" y="215" width="0.2" height="15.0" fill="rgb(0,0,0)" rx="2" ry="2" />
<text  x="1065.37" y="225.5" ></text>
</g>
</g>
</svg>
